<?xml version="1.0" encoding="UTF-8"?>
<svg xmlns="http://www.w3.org/2000/svg" viewBox="0 0 1920 1080" width="1920" height="1080">
  <defs>
    <linearGradient id="bgGrad" x1="0%" y1="0%" x2="100%" y2="100%">
      <stop offset="0%" stop-color="#FFE66D"/>
      <stop offset="100%" stop-color="#00CED1"/>
    </linearGradient>
    <clipPath id="complexClip"><polygon points="1352.8,540.0 1478.6,602.0 1336.8,634.4 1273.2,668.0 1287.1,744.3 1239.2,812.0 1077.7,743.8 998.7,747.4 899.9,861.9 796.9,822.4 687.4,805.6 722.4,688.4 542.5,710.6 579.0,635.4 518.5,592.8 494.2,540.0 426.6,476.2 529.4,432.2 581.7,385.4 629.9,333.8 743.3,328.9 828.5,312.4 924.7,350.8 1013.5,253.5 1077.9,336.0 1152.0,352.9 1199.0,390.7 1303.3,399.7 1392.6,431.7 1494.5,476.1"/></clipPath>
    <radialGradient id="leaf0" cx="50%" cy="50%" r="70%">
      <stop offset="0%" stop-color="#00FA9A"/>
      <stop offset="50%" stop-color="#9370DB"/>
      <stop offset="100%" stop-color="#DC143C"/>
    </radialGradient>
    <radialGradient id="leaf1" cx="50%" cy="50%" r="70%">
      <stop offset="0%" stop-color="#00CED1"/>
      <stop offset="50%" stop-color="#45B7D1"/>
      <stop offset="100%" stop-color="#FFE66D"/>
    </radialGradient>
    <radialGradient id="leaf2" cx="50%" cy="50%" r="70%">
      <stop offset="0%" stop-color="#7B68EE"/>
      <stop offset="50%" stop-color="#FF4500"/>
      <stop offset="100%" stop-color="#00FA9A"/>
    </radialGradient>
    <radialGradient id="leaf3" cx="50%" cy="50%" r="70%">
      <stop offset="0%" stop-color="#00FA9A"/>
      <stop offset="50%" stop-color="#FF1493"/>
      <stop offset="100%" stop-color="#FF69B4"/>
    </radialGradient>
    <radialGradient id="leaf4" cx="50%" cy="50%" r="70%">
      <stop offset="0%" stop-color="#45B7D1"/>
      <stop offset="50%" stop-color="#FFD700"/>
      <stop offset="100%" stop-color="#FF6B6B"/>
    </radialGradient>
    <radialGradient id="leaf5" cx="50%" cy="50%" r="70%">
      <stop offset="0%" stop-color="#45B7D1"/>
      <stop offset="50%" stop-color="#FFE66D"/>
      <stop offset="100%" stop-color="#7B68EE"/>
    </radialGradient>
    <radialGradient id="leaf6" cx="50%" cy="50%" r="70%">
      <stop offset="0%" stop-color="#32CD32"/>
      <stop offset="50%" stop-color="#FF1493"/>
      <stop offset="100%" stop-color="#FF6B6B"/>
    </radialGradient>
    <radialGradient id="leaf7" cx="50%" cy="50%" r="70%">
      <stop offset="0%" stop-color="#FFD700"/>
      <stop offset="50%" stop-color="#00CED1"/>
      <stop offset="100%" stop-color="#00FA9A"/>
    </radialGradient>
    <radialGradient id="leaf8" cx="50%" cy="50%" r="70%">
      <stop offset="0%" stop-color="#32CD32"/>
      <stop offset="50%" stop-color="#00FA9A"/>
      <stop offset="100%" stop-color="#9370DB"/>
    </radialGradient>
    <radialGradient id="leaf9" cx="50%" cy="50%" r="70%">
      <stop offset="0%" stop-color="#4ECDC4"/>
      <stop offset="50%" stop-color="#FF6B6B"/>
      <stop offset="100%" stop-color="#FF1493"/>
    </radialGradient>
    <radialGradient id="leaf10" cx="50%" cy="50%" r="70%">
      <stop offset="0%" stop-color="#FF1493"/>
      <stop offset="50%" stop-color="#7B68EE"/>
      <stop offset="100%" stop-color="#DC143C"/>
    </radialGradient>
    <radialGradient id="leaf11" cx="50%" cy="50%" r="70%">
      <stop offset="0%" stop-color="#00CED1"/>
      <stop offset="50%" stop-color="#FFD700"/>
      <stop offset="100%" stop-color="#9370DB"/>
    </radialGradient>
    <radialGradient id="leaf12" cx="50%" cy="50%" r="70%">
      <stop offset="0%" stop-color="#FFE66D"/>
      <stop offset="50%" stop-color="#DC143C"/>
      <stop offset="100%" stop-color="#32CD32"/>
    </radialGradient>
    <radialGradient id="leaf13" cx="50%" cy="50%" r="70%">
      <stop offset="0%" stop-color="#FF4500"/>
      <stop offset="50%" stop-color="#FFD700"/>
      <stop offset="100%" stop-color="#00FA9A"/>
    </radialGradient>
    <radialGradient id="leaf14" cx="50%" cy="50%" r="70%">
      <stop offset="0%" stop-color="#7B68EE"/>
      <stop offset="50%" stop-color="#FF4500"/>
      <stop offset="100%" stop-color="#9370DB"/>
    </radialGradient>
    <radialGradient id="leaf15" cx="50%" cy="50%" r="70%">
      <stop offset="0%" stop-color="#45B7D1"/>
      <stop offset="50%" stop-color="#FF6B6B"/>
      <stop offset="100%" stop-color="#FFD700"/>
    </radialGradient>
    <radialGradient id="leaf16" cx="50%" cy="50%" r="70%">
      <stop offset="0%" stop-color="#7B68EE"/>
      <stop offset="50%" stop-color="#FFE66D"/>
      <stop offset="100%" stop-color="#FF6B6B"/>
    </radialGradient>
    <radialGradient id="leaf17" cx="50%" cy="50%" r="70%">
      <stop offset="0%" stop-color="#FF69B4"/>
      <stop offset="50%" stop-color="#FFE66D"/>
      <stop offset="100%" stop-color="#DC143C"/>
    </radialGradient>
    <radialGradient id="leaf18" cx="50%" cy="50%" r="70%">
      <stop offset="0%" stop-color="#FF6B6B"/>
      <stop offset="50%" stop-color="#FF69B4"/>
      <stop offset="100%" stop-color="#00CED1"/>
    </radialGradient>
    <radialGradient id="leaf19" cx="50%" cy="50%" r="70%">
      <stop offset="0%" stop-color="#96E6A1"/>
      <stop offset="50%" stop-color="#00CED1"/>
      <stop offset="100%" stop-color="#FF1493"/>
    </radialGradient>
  </defs>

  <!-- Background -->
  <rect width="1920" height="1080" fill="url(#bgGrad)"/>
  
  <!-- Leaves with clip-path -->
  <g clip-path="url(#complexClip)">
    <path d="M 1777.7552739820533,843.5784371827201 C 1818.3376873999753,877.3971150309885 1831.8651585392827,924.7432640185643 1777.7552739820533,978.8531485757937 C 1723.6453894248239,924.7432640185643 1737.1728605641313,877.3971150309885 1777.7552739820533,843.5784371827201 Z" fill="url(#leaf0)" opacity="0.31" transform="rotate(215.2 1777.8 911.2)"/>
    <path d="M 935.9541640030611,518.0087113587734 C 961.8775771279594,539.611555629522 970.5187148362588,569.85553760857 935.9541640030611,604.4200884417677 C 901.3896131698634,569.85553760857 910.0307508781628,539.611555629522 935.9541640030611,518.0087113587734 Z" fill="url(#leaf1)" opacity="0.29" transform="rotate(303.5 936.0 561.2)"/>
    <path d="M 613.3658187175823,-44.84586200128428 C 672.7749005511537,4.661706193358562 692.5779278290108,73.97230166585854 613.3658187175823,153.1844107772871 C 534.1537096061538,73.97230166585854 553.956736884011,4.661706193358562 613.3658187175823,-44.84586200128428 Z" fill="url(#leaf2)" opacity="0.26" transform="rotate(160.1 613.4 54.2)"/>
    <path d="M 685.3715814291729,928.0406331323271 C 717.0134047662438,954.4088192465529 727.560679211934,991.3242798064689 685.3715814291729,1033.51337758923 C 643.1824836464118,991.3242798064689 653.7297580921021,954.4088192465529 685.3715814291729,928.0406331323271 Z" fill="url(#leaf3)" opacity="0.27" transform="rotate(8.1 685.4 980.8)"/>
    <path d="M 560.5330492565074,371.91608386840176 C 608.2276430300252,411.6615786796666 624.1258409545311,467.30527141543735 560.5330492565074,530.898063113461 C 496.9402575584837,467.30527141543735 512.8384554829896,411.6615786796666 560.5330492565074,371.91608386840176 Z" fill="url(#leaf4)" opacity="0.38" transform="rotate(359.5 560.5 451.4)"/>
    <path d="M 301.3652230522754,116.84174069976225 C 353.66989406541245,160.42896654404313 371.10478440312477,221.45108272603633 301.3652230522754,291.19064407688575 C 231.625661701426,221.45108272603633 249.06055203913834,160.42896654404313 301.3652230522754,116.84174069976225 Z" fill="url(#leaf5)" opacity="0.39" transform="rotate(295.9 301.4 204.0)"/>
    <path d="M 997.7566860458903,331.4954008227509 C 1051.2620952988261,376.08324186686406 1069.0972317164712,438.5062193286224 997.7566860458903,509.84676499920346 C 926.4161403753093,438.5062193286224 944.2512767929545,376.08324186686406 997.7566860458903,331.4954008227509 Z" fill="url(#leaf6)" opacity="0.23" transform="rotate(123.9 997.8 420.7)"/>
    <path d="M 689.8525811160154,87.81173261572553 C 747.0371920972863,135.46557510011792 766.0987290910432,202.1809545782673 689.8525811160154,278.42710255329513 C 613.6064331409875,202.1809545782673 632.6679701347445,135.46557510011792 689.8525811160154,87.81173261572553 Z" fill="url(#leaf7)" opacity="0.38" transform="rotate(174.4 689.9 183.1)"/>
    <path d="M 532.6925191872485,927.8849538740194 C 562.4152902491791,952.6539297589615 572.3228806031559,987.3304959978805 532.6925191872485,1026.9608574137878 C 493.06215777134116,987.3304959978805 502.969748125318,952.6539297589615 532.6925191872485,927.8849538740194 Z" fill="url(#leaf8)" opacity="0.26" transform="rotate(43.2 532.7 977.4)"/>
    <path d="M 1090.3067870178834,453.14598643870715 C 1125.1989251838882,482.22276824371113 1136.8296379058897,522.9302627707166 1090.3067870178834,569.4531136587229 C 1043.783936129877,522.9302627707166 1055.4146488518786,482.22276824371113 1090.3067870178834,453.14598643870715 Z" fill="url(#leaf9)" opacity="0.23" transform="rotate(334.8 1090.3 511.3)"/>
    <path d="M 782.431177906991,39.2959474950204 C 811.2331471600427,63.29758853923011 820.8338035777266,96.89988600112372 782.431177906991,135.30251167185924 C 744.0285522362555,96.89988600112372 753.6292086539394,63.29758853923011 782.431177906991,39.2959474950204 Z" fill="url(#leaf10)" opacity="0.21" transform="rotate(311.4 782.4 87.3)"/>
    <path d="M 670.6117194914946,641.6820245534516 C 719.3931482316646,682.3332151702599 735.6536244783879,739.2448820337916 670.6117194914946,804.2867870206849 C 605.5698145046013,739.2448820337916 621.8302907513246,682.3332151702599 670.6117194914946,641.6820245534516 Z" fill="url(#leaf11)" opacity="0.25" transform="rotate(287.0 670.6 723.0)"/>
    <path d="M 197.87329122167438,450.8465106814319 C 239.64504983242614,485.656309523725 253.5689693693434,534.3900279029353 197.87329122167438,590.0857060506044 C 142.17761307400536,534.3900279029353 156.10153261092262,485.656309523725 197.87329122167438,450.8465106814319 Z" fill="url(#leaf12)" opacity="0.32" transform="rotate(211.6 197.9 520.5)"/>
    <path d="M 1114.382195004778,196.5461355259243 C 1168.11441566531,241.3229860763676 1186.0251558854873,304.0105768469883 1114.382195004778,375.65353772769754 C 1042.7392341240686,304.0105768469883 1060.649974344246,241.3229860763676 1114.382195004778,196.5461355259243 Z" fill="url(#leaf13)" opacity="0.20" transform="rotate(246.4 1114.4 286.1)"/>
    <path d="M 149.68934604562486,-21.21767298990799 C 197.528010230615,18.64788049758379 213.4742316256117,74.45965538007229 149.68934604562486,138.24454096005914 C 85.90446046563801,74.45965538007229 101.85068186063472,18.64788049758379 149.68934604562486,-21.21767298990799 Z" fill="url(#leaf14)" opacity="0.27" transform="rotate(213.9 149.7 58.5)"/>
    <path d="M 978.1454321688377,520.780168521774 C 1012.7909716809962,549.6514514485727 1024.3394848517157,590.071247546091 978.1454321688377,636.2653002289688 C 931.9513794859597,590.071247546091 943.4998926566792,549.6514514485727 978.1454321688377,520.780168521774 Z" fill="url(#leaf15)" opacity="0.38" transform="rotate(157.4 978.1 578.5)"/>
    <path d="M 753.3769287409958,755.3539962902565 C 812.7282548023153,804.8134346746893 832.5120301560885,874.0566484128955 753.3769287409958,953.191749827988 C 674.2418273259032,874.0566484128955 694.0256026796764,804.8134346746893 753.3769287409958,755.3539962902565 Z" fill="url(#leaf16)" opacity="0.26" transform="rotate(306.2 753.4 854.3)"/>
    <path d="M 109.37103568529572,126.45941087699566 C 146.8134877773245,157.66145428701964 159.2943051413341,201.3443150610532 109.37103568529572,251.26758451709156 C 59.44776622925736,201.3443150610532 71.92858359326695,157.66145428701964 109.37103568529572,126.45941087699566 Z" fill="url(#leaf17)" opacity="0.24" transform="rotate(316.4 109.4 188.9)"/>
    <path d="M 1691.300351951832,346.7767348329604 C 1726.399388596426,376.02593203678884 1738.0990674779575,416.9748081221486 1691.300351951832,463.773523648274 C 1644.5016364257065,416.9748081221486 1656.201315307238,376.02593203678884 1691.300351951832,346.7767348329604 Z" fill="url(#leaf18)" opacity="0.36" transform="rotate(0.9 1691.3 405.3)"/>
    <path d="M 470.44152292372024,447.07880210760726 C 525.5100977475614,492.9692811274749 543.8662893555085,557.2159517552896 470.44152292372024,630.6407181870777 C 397.01675649193203,557.2159517552896 415.37294809987907,492.9692811274749 470.44152292372024,447.07880210760726 Z" fill="url(#leaf19)" opacity="0.31" transform="rotate(116.5 470.4 538.9)"/>
    <path d="M 608.8636491034529,568.6742954117356 C 648.62213242962,601.8063648502082 661.8749602050091,648.1912620640699 608.8636491034529,701.2025731656261 C 555.8523380018967,648.1912620640699 569.1051657772857,601.8063648502082 608.8636491034529,568.6742954117356 Z" fill="url(#leaf0)" opacity="0.30" transform="rotate(343.2 608.9 634.9)"/>
    <path d="M 518.4599573895675,663.9053127820516 C 576.7636592223661,712.4917309760503 596.1982264999656,780.5127164476487 518.4599573895675,858.2509855580468 C 440.7216882791695,780.5127164476487 460.156255556769,712.4917309760503 518.4599573895675,663.9053127820516 Z" fill="url(#leaf1)" opacity="0.31" transform="rotate(70.8 518.5 761.1)"/>
    <path d="M 695.4342245515239,865.6745937252658 C 739.4879884581543,902.3860636474578 754.1725764270311,953.7821215385267 695.4342245515239,1012.5204734140339 C 636.6958726760167,953.7821215385267 651.3804606448936,902.3860636474578 695.4342245515239,865.6745937252658 Z" fill="url(#leaf2)" opacity="0.26" transform="rotate(251.4 695.4 939.1)"/>
    <path d="M 873.3084616205616,128.14952924729658 C 905.5019013239867,154.97739566681747 916.233047891795,192.53640865414667 873.3084616205616,235.46099492538008 C 830.3838753493283,192.53640865414667 841.1150219171366,154.97739566681747 873.3084616205616,128.14952924729658 Z" fill="url(#leaf3)" opacity="0.29" transform="rotate(228.2 873.3 181.8)"/>
    <path d="M 354.4158456915416,333.5559687760572 C 385.2551396026431,359.2553803686418 395.5349042396769,395.2345565982602 354.4158456915416,436.3536151463955 C 313.29678714340633,395.2345565982602 323.5765517804401,359.2553803686418 354.4158456915416,333.5559687760572 Z" fill="url(#leaf4)" opacity="0.30" transform="rotate(81.4 354.4 385.0)"/>
    <path d="M 1732.1455600361364,296.6801327200805 C 1761.2373127218168,320.92325995814747 1770.9345636170435,354.8636380914412 1732.1455600361364,393.65264167234835 C 1693.3565564552293,354.8636380914412 1703.053807350456,320.92325995814747 1732.1455600361364,296.6801327200805 Z" fill="url(#leaf5)" opacity="0.36" transform="rotate(149.9 1732.1 345.2)"/>
    <path d="M 238.56173921371732,401.3824849775331 C 288.059640223621,442.63073581911954 304.5589405602555,500.37828699734047 238.56173921371732,566.3754883438786 C 172.56453786717913,500.37828699734047 189.06383820381367,442.63073581911954 238.56173921371732,401.3824849775331 Z" fill="url(#leaf6)" opacity="0.25" transform="rotate(320.5 238.6 483.9)"/>
    <path d="M 1792.5898730542283,304.8125696034097 C 1834.7806783374756,339.97157400611576 1848.8442800985579,389.1941801699042 1792.5898730542283,445.4485872142339 C 1736.3354660098987,389.1941801699042 1750.399067770981,339.97157400611576 1792.5898730542283,304.8125696034097 Z" fill="url(#leaf7)" opacity="0.38" transform="rotate(36.7 1792.6 375.1)"/>
    <path d="M 940.0748001878089,145.46537239193327 C 991.2584259280544,188.11839384213786 1008.3196345081362,247.83262387242428 940.0748001878089,316.07745819275164 C 871.8299658674816,247.83262387242428 888.8911744475635,188.11839384213786 940.0748001878089,145.46537239193327 Z" fill="url(#leaf8)" opacity="0.39" transform="rotate(245.9 940.1 230.8)"/>
    <path d="M 413.8595662207898,715.6033882284106 C 461.7020311923999,755.4721090380856 477.6495195162699,811.2883181716307 413.8595662207898,875.0782714671108 C 350.06961292530974,811.2883181716307 366.01710124917975,755.4721090380856 413.8595662207898,715.6033882284106 Z" fill="url(#leaf9)" opacity="0.22" transform="rotate(178.7 413.9 795.3)"/>
    <path d="M 386.3507101078597,321.5157715768108 C 445.5040683705728,370.8102367957383 465.2218544581438,439.82248810223695 386.3507101078597,518.6936324525211 C 307.4795657575756,439.82248810223695 327.1973518451466,370.8102367957383 386.3507101078597,321.5157715768108 Z" fill="url(#leaf10)" opacity="0.35" transform="rotate(113.0 386.4 420.1)"/>
    <path d="M 757.6207718898982,487.56392656650075 C 810.0991549485249,531.2959124486896 827.5919493014004,592.5206926837541 757.6207718898982,662.4918700952563 C 687.6495944783959,592.5206926837541 705.1423888312714,531.2959124486896 757.6207718898982,487.56392656650075 Z" fill="url(#leaf11)" opacity="0.20" transform="rotate(93.5 757.6 575.0)"/>
    <path d="M 1025.6493319172487,446.0254550428872 C 1067.1181080237243,480.58276846495016 1080.9410333925493,528.9630072558383 1025.6493319172487,584.2547087311391 C 970.3576304419479,528.9630072558383 984.1805558107732,480.58276846495016 1025.6493319172487,446.0254550428872 Z" fill="url(#leaf12)" opacity="0.24" transform="rotate(287.8 1025.6 515.1)"/>
    <path d="M 580.4137825407462,966.3389002452122 C 617.9256483061495,997.5987883830483 630.4296035612838,1041.3626317760186 580.4137825407462,1091.3784527965563 C 530.3979615202086,1041.3626317760186 542.9019167753429,997.5987883830483 580.4137825407462,966.3389002452122 Z" fill="url(#leaf13)" opacity="0.40" transform="rotate(250.9 580.4 1028.9)"/>
    <path d="M 656.8038044138842,290.92232278948467 C 703.875491095097,330.148728357162 719.5660533221679,385.06569615191023 656.8038044138842,447.82794506019394 C 594.0415555056005,385.06569615191023 609.7321177326714,330.148728357162 656.8038044138842,290.92232278948467 Z" fill="url(#leaf14)" opacity="0.36" transform="rotate(276.3 656.8 369.4)"/>
    <path d="M 661.1798575833513,286.5584481993973 C 701.6218497188462,320.26010831230957 715.1025137640111,367.44243247038685 661.1798575833513,421.36508865104656 C 607.2572014026916,367.44243247038685 620.7378654478565,320.26010831230957 661.1798575833513,286.5584481993973 Z" fill="url(#leaf15)" opacity="0.23" transform="rotate(20.1 661.2 354.0)"/>
    <path d="M 1831.258810031944,803.0834426477816 C 1891.0851734184023,852.9387454698301 1911.0272945472216,922.736169420698 1831.258810031944,1002.5046539359757 C 1751.4903255166664,922.736169420698 1771.4324466454857,852.9387454698301 1831.258810031944,803.0834426477816 Z" fill="url(#leaf16)" opacity="0.37" transform="rotate(123.0 1831.3 902.8)"/>
    <path d="M 1583.7046359838694,878.4864509024711 C 1635.8729439922836,921.9600409094829 1653.2623799950882,982.8230669192994 1583.7046359838694,1052.3808109305182 C 1514.1468919726506,982.8230669192994 1531.5363279754552,921.9600409094829 1583.7046359838694,878.4864509024711 Z" fill="url(#leaf17)" opacity="0.27" transform="rotate(44.7 1583.7 965.4)"/>
    <path d="M 1226.01488008634,200.3011758569512 C 1256.7650847593416,225.92634641778574 1267.0151529836753,261.8015852029541 1226.01488008634,302.80185810028934 C 1185.014607189005,261.8015852029541 1195.2646754133386,225.92634641778574 1226.01488008634,200.3011758569512 Z" fill="url(#leaf18)" opacity="0.38" transform="rotate(39.3 1226.0 251.6)"/>
    <path d="M 1294.1260809274072,583.704741201158 C 1332.6076852837884,615.7727448314756 1345.4348867359154,660.6679499139203 1294.1260809274072,711.9767557224286 C 1242.817275118899,660.6679499139203 1255.644476571026,615.7727448314756 1294.1260809274072,583.704741201158 Z" fill="url(#leaf19)" opacity="0.40" transform="rotate(31.7 1294.1 647.8)"/>
    <path d="M 256.4036970168023,48.41448458387086 C 309.42779611209227,92.60123382994584 327.10249581052227,154.46268277445083 256.4036970168023,225.16148156817079 C 185.70489822308235,154.46268277445083 203.37959792151233,92.60123382994584 256.4036970168023,48.41448458387086 Z" fill="url(#leaf0)" opacity="0.22" transform="rotate(49.3 256.4 136.8)"/>
    <path d="M 602.7059053981104,816.4898839098203 C 632.0221999134137,840.9201293392397 641.7942980851815,875.1224729404269 602.7059053981104,914.2108656274979 C 563.6175127110394,875.1224729404269 573.3896108828071,840.9201293392397 602.7059053981104,816.4898839098203 Z" fill="url(#leaf1)" opacity="0.38" transform="rotate(198.5 602.7 865.4)"/>
    <path d="M 1606.6566119771785,638.0824609115994 C 1631.7225848043847,658.9707716009378 1640.07790908012,688.2144065660117 1606.6566119771785,721.6357036689533 C 1573.235314874237,688.2144065660117 1581.5906391499723,658.9707716009378 1606.6566119771785,638.0824609115994 Z" fill="url(#leaf2)" opacity="0.34" transform="rotate(87.0 1606.7 679.9)"/>
    <path d="M 1578.490293455565,886.4621144838345 C 1606.4596192459394,909.769885975813 1615.7827278427308,942.4007660645832 1578.490293455565,979.6932004517489 C 1541.1978590683993,942.4007660645832 1550.5209676651907,909.769885975813 1578.490293455565,886.4621144838345 Z" fill="url(#leaf3)" opacity="0.32" transform="rotate(195.8 1578.5 933.1)"/>
    <path d="M 1062.484782357614,750.8469095814788 C 1093.7663025146987,776.9148430457161 1104.1934759003939,813.4099498956484 1062.484782357614,855.1186434384282 C 1020.7760888148342,813.4099498956484 1031.2032622005293,776.9148430457161 1062.484782357614,750.8469095814788 Z" fill="url(#leaf4)" opacity="0.23" transform="rotate(108.8 1062.5 803.0)"/>
    <path d="M 1459.1104559748353,386.48582615229566 C 1495.735799236395,417.0069455369287 1507.9442469902483,459.73651267541504 1459.1104559748353,508.5703036908279 C 1410.2766649594223,459.73651267541504 1422.4851127132756,417.0069455369287 1459.1104559748353,386.48582615229566 Z" fill="url(#leaf5)" opacity="0.28" transform="rotate(149.2 1459.1 447.5)"/>
    <path d="M 789.8965680508558,962.4451819278662 C 816.2874123047785,984.4375521394684 825.0843603894193,1015.2268704357116 789.8965680508558,1050.4146627742753 C 754.7087757122922,1015.2268704357116 763.505723796933,984.4375521394684 789.8965680508558,962.4451819278662 Z" fill="url(#leaf6)" opacity="0.36" transform="rotate(128.6 789.9 1006.4)"/>
    <path d="M 1053.3296669240035,-28.869328931993522 C 1104.6876323626027,13.928975600172564 1121.8069541754692,73.84660194520508 1053.3296669240035,142.32388919667082 C 984.8523796725377,73.84660194520508 1001.9717014854042,13.928975600172564 1053.3296669240035,-28.869328931993522 Z" fill="url(#leaf7)" opacity="0.38" transform="rotate(74.4 1053.3 56.7)"/>
    <path d="M 1149.815861603781,192.68530835685064 C 1202.8412818673535,236.8731585764943 1220.516421955211,298.7361488839954 1149.815861603781,369.43670923542516 C 1079.1153012523512,298.7361488839954 1096.7904413402086,236.8731585764943 1149.815861603781,192.68530835685064 Z" fill="url(#leaf8)" opacity="0.24" transform="rotate(223.9 1149.8 281.1)"/>
    <path d="M 1749.8493912355245,168.676175335219 C 1790.3134796894867,202.3962490468541 1803.8015091741406,249.60435224314327 1749.8493912355245,303.55647018175944 C 1695.8972732969085,249.60435224314327 1709.3853027815624,202.3962490468541 1749.8493912355245,168.676175335219 Z" fill="url(#leaf9)" opacity="0.25" transform="rotate(310.4 1749.8 236.1)"/>
    <path d="M 1407.0225555445911,171.95852784914575 C 1438.7456859438314,198.39446984851267 1449.3200627435783,235.4047886476264 1407.0225555445911,277.7022958466135 C 1364.725048345604,235.4047886476264 1375.2994251453508,198.39446984851267 1407.0225555445911,171.95852784914575 Z" fill="url(#leaf10)" opacity="0.38" transform="rotate(158.9 1407.0 224.8)"/>
    <path d="M 382.495967552382,95.65329816793007 C 429.08888343539064,134.4807280704373 444.6198553963935,188.83912993394736 382.495967552382,250.9630177779589 C 320.3720797083705,188.83912993394736 335.9030516693734,134.4807280704373 382.495967552382,95.65329816793007 Z" fill="url(#leaf11)" opacity="0.32" transform="rotate(45.5 382.5 173.3)"/>
    <path d="M 643.3114301727477,519.6344371972168 C 688.385123448698,557.1958482605087 703.4096878740147,609.7818237491173 643.3114301727477,669.8800814503843 C 583.2131724714807,609.7818237491173 598.2377368967974,557.1958482605087 643.3114301727477,519.6344371972168 Z" fill="url(#leaf12)" opacity="0.39" transform="rotate(201.8 643.3 594.8)"/>
    <path d="M 122.1906879058304,308.9562016634288 C 150.0641049806504,332.18404922577884 159.3552440055904,364.7030358130688 122.1906879058304,401.86759191282886 C 85.02613180607041,364.7030358130688 94.3172708310104,332.18404922577884 122.1906879058304,308.9562016634288 Z" fill="url(#leaf13)" opacity="0.21" transform="rotate(183.6 122.2 355.4)"/>
    <path d="M 1317.5653947024982,-1.615795701662492 C 1366.6580307988845,39.29473437865944 1383.0222428310133,96.56947649111015 1317.5653947024982,162.02632461962526 C 1252.1085465739832,96.56947649111015 1268.472758606112,39.29473437865944 1317.5653947024982,-1.615795701662492 Z" fill="url(#leaf14)" opacity="0.34" transform="rotate(242.8 1317.6 80.2)"/>
    <path d="M 534.1618743489739,527.852967548704 C 577.0778991884481,563.6163215815991 591.3832408016062,613.6850172276523 534.1618743489739,670.9063836802846 C 476.9405078963416,613.6850172276523 491.2458495094997,563.6163215815991 534.1618743489739,527.852967548704 Z" fill="url(#leaf15)" opacity="0.33" transform="rotate(339.2 534.2 599.4)"/>
    <path d="M 1582.1706660139369,796.84008926204 C 1625.501896024474,832.9494476041543 1639.9456393613198,883.5025492831144 1582.1706660139369,941.2775226304973 C 1524.395692666554,883.5025492831144 1538.8394360033997,832.9494476041543 1582.1706660139369,796.84008926204 Z" fill="url(#leaf16)" opacity="0.23" transform="rotate(8.1 1582.2 869.1)"/>
    <path d="M 1297.7553093630218,721.4576009774826 C 1353.7792849028324,768.1442472606581 1372.4539434161027,833.5055520571038 1297.7553093630218,908.2041861101848 C 1223.0566753099408,833.5055520571038 1241.7313338232111,768.1442472606581 1297.7553093630218,721.4576009774826 Z" fill="url(#leaf17)" opacity="0.23" transform="rotate(93.9 1297.8 814.8)"/>
    <path d="M 1327.2134591368263,771.7646364273472 C 1359.0176528933905,798.2681312244841 1369.6190508122454,835.3730239404758 1327.2134591368263,877.7786156158949 C 1284.807867461407,835.3730239404758 1295.409265380262,798.2681312244841 1327.2134591368263,771.7646364273472 Z" fill="url(#leaf18)" opacity="0.39" transform="rotate(17.3 1327.2 824.8)"/>
    <path d="M 1600.7978421822659,848.6579553902088 C 1625.4681345471563,869.216532360951 1633.6915653354533,897.9985401199899 1600.7978421822659,930.8922632731774 C 1567.9041190290784,897.9985401199899 1576.1275498173754,869.216532360951 1600.7978421822659,848.6579553902088 Z" fill="url(#leaf19)" opacity="0.33" transform="rotate(352.9 1600.8 889.8)"/>
    <path d="M 457.41529546466273,564.4247566131639 C 499.7756293841688,599.7250348794189 513.8957406906708,649.145424452176 457.41529546466273,705.625869678184 C 400.9348502386547,649.145424452176 415.0549615451567,599.7250348794189 457.41529546466273,564.4247566131639 Z" fill="url(#leaf0)" opacity="0.29" transform="rotate(355.0 457.4 635.0)"/>
    <path d="M 827.1919854678144,152.50243173915078 C 880.7028398961116,197.09481042939842 898.5397913722106,259.5241405957451 827.1919854678144,330.87194650014135 C 755.8441795634183,259.5241405957451 773.6811310395173,197.09481042939842 827.1919854678144,152.50243173915078 Z" fill="url(#leaf1)" opacity="0.27" transform="rotate(304.0 827.2 241.7)"/>
    <path d="M 872.5186895290776,557.8911217148263 C 907.5133121608283,587.0533072412853 919.1781863714118,627.8803669783277 872.5186895290776,674.539863820662 C 825.8591926867434,627.8803669783277 837.524066897327,587.0533072412853 872.5186895290776,557.8911217148263 Z" fill="url(#leaf2)" opacity="0.39" transform="rotate(284.9 872.5 616.2)"/>
    <path d="M 760.1918967758887,602.7923106333733 C 802.8805380430816,638.3661783560341 817.110085132146,688.1695931677592 760.1918967758887,745.0877815240165 C 703.2737084196315,688.1695931677592 717.5032555086958,638.3661783560341 760.1918967758887,602.7923106333733 Z" fill="url(#leaf3)" opacity="0.37" transform="rotate(251.5 760.2 673.9)"/>
    <path d="M 477.10017130141836,888.4312560171595 C 519.6624478696529,923.8998198240215 533.8498733923977,973.5558091536284 477.10017130141836,1030.3055112446077 C 420.35046921043903,973.5558091536284 434.53789473318386,923.8998198240215 477.10017130141836,888.4312560171595 Z" fill="url(#leaf4)" opacity="0.22" transform="rotate(171.4 477.1 959.4)"/>
    <path d="M 920.7568817741022,800.8346365866838 C 976.0071907081868,846.8765606984209 994.4239603528817,911.335254454853 920.7568817741022,985.0023330336325 C 847.0898031953227,911.335254454853 865.5065728400176,846.8765606984209 920.7568817741022,800.8346365866838 Z" fill="url(#leaf5)" opacity="0.36" transform="rotate(186.1 920.8 892.9)"/>
    <path d="M 652.118029158257,556.0770261364697 C 697.0045955168627,593.4824981019744 711.9667843030646,645.8501588536811 652.118029158257,705.6989139984888 C 592.2692740134493,645.8501588536811 607.2314627996512,593.4824981019744 652.118029158257,556.0770261364697 Z" fill="url(#leaf6)" opacity="0.38" transform="rotate(58.8 652.1 630.9)"/>
    <path d="M 235.62251989958517,519.2960070597343 C 259.7643827166817,539.4142260739815 267.81167032238056,567.5797326939274 235.62251989958517,599.7688831167228 C 203.43336947678978,567.5797326939274 211.48065708248865,539.4142260739815 235.62251989958517,519.2960070597343 Z" fill="url(#leaf7)" opacity="0.30" transform="rotate(14.0 235.6 559.5)"/>
    <path d="M 226.49699306922344,67.06450622102601 C 281.5786448290751,112.96588268756904 299.93919541569227,177.22780974072924 226.49699306922344,250.67001208719807 C 153.0547907227546,177.22780974072924 171.4153413093718,112.96588268756904 226.49699306922344,67.06450622102601 Z" fill="url(#leaf8)" opacity="0.29" transform="rotate(228.9 226.5 158.9)"/>
    <path d="M 1079.9596428676466,521.4406258554166 C 1135.3712828180123,567.6169924807215 1153.8418294681344,632.2639057561482 1079.9596428676466,706.146092356636 C 1006.0774562671588,632.2639057561482 1024.5480029172809,567.6169924807215 1079.9596428676466,521.4406258554166 Z" fill="url(#leaf9)" opacity="0.28" transform="rotate(19.8 1080.0 613.8)"/>
    <path d="M 876.6921152495025,197.3041587793174 C 914.2615720884705,228.61203947845735 926.7847243681265,272.44307245725327 876.6921152495025,322.5356815758772 C 826.5995061308786,272.44307245725327 839.1226584105345,228.61203947845735 876.6921152495025,197.3041587793174 Z" fill="url(#leaf10)" opacity="0.27" transform="rotate(4.9 876.7 259.9)"/>
    <path d="M 1726.2878335125658,42.442363582651325 C 1760.3202751824717,70.8027316409063 1771.6644224057738,110.50724692246327 1726.2878335125658,155.88383581567123 C 1680.9112446193578,110.50724692246327 1692.25539184266,70.8027316409063 1726.2878335125658,42.442363582651325 Z" fill="url(#leaf11)" opacity="0.30" transform="rotate(40.7 1726.3 99.2)"/>
    <path d="M 1489.9076931920083,597.2357259394335 C 1523.119159119545,624.911947545714 1534.1896477620573,663.6586577945069 1489.9076931920083,707.9406123645558 C 1445.6257386219593,663.6586577945069 1456.6962272644716,624.911947545714 1489.9076931920083,597.2357259394335 Z" fill="url(#leaf12)" opacity="0.38" transform="rotate(131.3 1489.9 652.6)"/>
    <path d="M 1646.7470951262376,252.44358511198482 C 1685.427707330361,284.677428615421 1698.3212447317355,329.8048095202317 1646.7470951262376,381.3789591257296 C 1595.1729455207396,329.8048095202317 1608.0664829221141,284.677428615421 1646.7470951262376,252.44358511198482 Z" fill="url(#leaf13)" opacity="0.33" transform="rotate(314.7 1646.7 316.9)"/>
    <path d="M 965.2849359730727,547.9234341266476 C 1001.0880550711,577.759366708337 1013.0224281037758,619.5296723227023 965.2849359730727,667.2671644534053 C 917.5474438423696,619.5296723227023 929.4818168750454,577.759366708337 965.2849359730727,547.9234341266476 Z" fill="url(#leaf14)" opacity="0.23" transform="rotate(88.2 965.3 607.6)"/>
    <path d="M 569.9480751089379,192.47592901408723 C 622.1630292205804,235.98839077378926 639.5680139244612,296.9058372373721 569.9480751089379,366.52577605289537 C 500.3281362934147,296.9058372373721 517.7331209972955,235.98839077378926 569.9480751089379,192.47592901408723 Z" fill="url(#leaf15)" opacity="0.30" transform="rotate(22.7 569.9 279.5)"/>
    <path d="M 942.873961204519,949.6662676955527 C 981.6021204633212,981.9397337445545 994.5115068829219,1027.122586213157 942.873961204519,1078.76013189156 C 891.236415526116,1027.122586213157 904.1458019457168,981.9397337445545 942.873961204519,949.6662676955527 Z" fill="url(#leaf16)" opacity="0.28" transform="rotate(71.0 942.9 1014.2)"/>
    <path d="M 240.05885799736933,625.1249102322988 C 279.83221758486866,658.269376555215 293.0900041140351,704.6716294072975 240.05885799736933,757.7027755239633 C 187.02771188070358,704.6716294072975 200.28549840987,658.269376555215 240.05885799736933,625.1249102322988 Z" fill="url(#leaf17)" opacity="0.30" transform="rotate(242.9 240.1 691.4)"/>
    <path d="M 1700.6505871439977,727.8736461144358 C 1744.315590618978,764.2611490102528 1758.8705917773048,815.2036530643963 1700.6505871439977,873.4236576977034 C 1642.4305825106906,815.2036530643963 1656.9855836690174,764.2611490102528 1700.6505871439977,727.8736461144358 Z" fill="url(#leaf18)" opacity="0.39" transform="rotate(31.0 1700.7 800.6)"/>
    <path d="M 1323.0049280229478,328.56484394200106 C 1358.9204479151706,358.4944438521867 1370.8922878792448,400.3958837264466 1323.0049280229478,448.2832435827436 C 1275.1175681666507,400.3958837264466 1287.089408130725,358.4944438521867 1323.0049280229478,328.56484394200106 Z" fill="url(#leaf19)" opacity="0.22" transform="rotate(350.8 1323.0 388.4)"/>
    <path d="M 1636.6672628199383,385.7806550916549 C 1690.0796778038257,430.2910009115611 1707.883816131788,492.6054850594297 1636.6672628199383,563.8220383712796 C 1565.4507095080885,492.6054850594297 1583.2548478360509,430.2910009115611 1636.6672628199383,385.7806550916549 Z" fill="url(#leaf0)" opacity="0.23" transform="rotate(351.7 1636.7 474.8)"/>
    <path d="M 1142.7990064398891,221.7184931417292 C 1177.4602243620586,250.6028414102038 1189.0139636694485,291.04092898606825 1142.7990064398891,337.25588621562764 C 1096.5840492103298,291.04092898606825 1108.1377885177196,250.6028414102038 1142.7990064398891,221.7184931417292 Z" fill="url(#leaf1)" opacity="0.38" transform="rotate(255.9 1142.8 279.5)"/>
    <path d="M 1733.5039410368024,891.4612462185974 C 1760.5422175348951,913.9931433003413 1769.5549763675926,945.5377992147828 1733.5039410368024,981.588834545573 C 1697.4529057060122,945.5377992147828 1706.4656645387097,913.9931433003413 1733.5039410368024,891.4612462185974 Z" fill="url(#leaf2)" opacity="0.40" transform="rotate(342.4 1733.5 936.5)"/>
    <path d="M 1047.7326683990968,162.02270654441685 C 1095.0096824274538,201.42021823471418 1110.7686871035726,256.57673460113045 1047.7326683990968,319.6127533056062 C 984.6966496946211,256.57673460113045 1000.45565437074,201.42021823471418 1047.7326683990968,162.02270654441685 Z" fill="url(#leaf3)" opacity="0.35" transform="rotate(227.4 1047.7 240.8)"/>
    <path d="M 874.3704087819139,937.8705942793705 C 899.6706653014278,958.9541413789653 908.1040841412657,988.4711073183983 874.3704087819139,1022.2047826777501 C 840.636733422562,988.4711073183983 849.0701522623999,958.9541413789653 874.3704087819139,937.8705942793705 Z" fill="url(#leaf4)" opacity="0.21" transform="rotate(156.6 874.4 980.0)"/>
    <path d="M 1726.430509550659,326.2163123378931 C 1775.287251269811,366.9302637705196 1791.5728318428614,423.92979577619667 1726.430509550659,489.07211806839905 C 1661.2881872584567,423.92979577619667 1677.5737678315072,366.9302637705196 1726.430509550659,326.2163123378931 Z" fill="url(#leaf5)" opacity="0.35" transform="rotate(274.1 1726.4 407.6)"/>
    <path d="M 1705.2376430229676,926.5897116806925 C 1757.3982837380763,970.0569122766163 1774.7851639764458,1030.9109931109097 1705.2376430229676,1100.4585140643878 C 1635.6901220694895,1030.9109931109097 1653.077002307859,970.0569122766163 1705.2376430229676,926.5897116806925 Z" fill="url(#leaf6)" opacity="0.39" transform="rotate(129.0 1705.2 1013.5)"/>
    <path d="M 82.56370446914289,578.260719960402 C 141.8236767864791,627.6440302248487 161.57700089225787,696.7806645950743 82.56370446914289,775.7939610181893 C 3.5504080460279113,696.7806645950743 23.30373215180667,627.6440302248487 82.56370446914289,578.260719960402 Z" fill="url(#leaf7)" opacity="0.25" transform="rotate(133.0 82.6 677.0)"/>
    <path d="M 1376.06770640027,64.66321935264205 C 1423.785241456778,104.42783189973211 1439.6910864756142,160.0982894656582 1376.06770640027,223.7216695410023 C 1312.444326324926,160.0982894656582 1328.350171343762,104.42783189973211 1376.06770640027,64.66321935264205 Z" fill="url(#leaf8)" opacity="0.28" transform="rotate(56.2 1376.1 144.2)"/>
    <path d="M 421.6865396626015,398.61605860659097 C 479.8894619154407,447.1184938172903 499.29043599972044,515.0219031122693 421.6865396626015,592.6257994493883 C 344.08264332548254,515.0219031122693 363.4836174097623,447.1184938172903 421.6865396626015,398.61605860659097 Z" fill="url(#leaf9)" opacity="0.38" transform="rotate(195.6 421.7 495.6)"/>
    <path d="M 497.4730426581732,862.9910942954082 C 554.3322734038527,910.3737865834745 573.2853503190792,976.7095557867672 497.4730426581732,1052.5218634476732 C 421.6607349972672,976.7095557867672 440.6138119124937,910.3737865834745 497.4730426581732,862.9910942954082 Z" fill="url(#leaf10)" opacity="0.37" transform="rotate(235.6 497.5 957.8)"/>
    <path d="M 916.2887063279729,338.2374279823411 C 961.0896374120017,375.57153721903177 976.023281106678,427.8392901503987 916.2887063279729,487.57386492910376 C 856.5541315492678,427.8392901503987 871.4877752439442,375.57153721903177 916.2887063279729,338.2374279823411 Z" fill="url(#leaf11)" opacity="0.29" transform="rotate(259.1 916.3 412.9)"/>
    <path d="M 172.6675522632762,797.8180158394802 C 208.61514629557936,827.7743441997328 220.59767763968043,869.7132039040865 172.6675522632762,917.6433292804908 C 124.73742688687199,869.7132039040865 136.71995823097305,827.7743441997328 172.6675522632762,797.8180158394802 Z" fill="url(#leaf12)" opacity="0.26" transform="rotate(286.9 172.7 857.7)"/>
    <path d="M 926.1722207510323,198.39194742877365 C 974.6727167749225,238.80902744868212 990.8395487828859,295.39293947655403 926.1722207510323,360.0602675084076 C 861.5048927191788,295.39293947655403 877.6717247271422,238.80902744868212 926.1722207510323,198.39194742877365 Z" fill="url(#leaf13)" opacity="0.36" transform="rotate(205.0 926.2 279.2)"/>
    <path d="M 1580.6126639774388,506.8831850481844 C 1623.147994529082,542.3292938412204 1637.3264380462965,591.9538461514709 1580.6126639774388,648.6676202203286 C 1523.8988899085812,591.9538461514709 1538.0773334257956,542.3292938412204 1580.6126639774388,506.8831850481844 Z" fill="url(#leaf14)" opacity="0.26" transform="rotate(63.3 1580.6 577.8)"/>
    <path d="M 889.523013631,623.2968406667633 C 932.6876165943004,659.2673431361802 947.0758175820672,709.626046593364 889.523013631,767.178850544431 C 831.9702096799329,709.626046593364 846.3584106676997,659.2673431361802 889.523013631,623.2968406667633 Z" fill="url(#leaf15)" opacity="0.31" transform="rotate(312.3 889.5 695.2)"/>
    <path d="M 1434.0414243148982,346.98905832243946 C 1458.5911152571468,367.44713410764666 1466.7743455712298,396.0884402069368 1434.0414243148982,428.8213614632684 C 1401.3085030585667,396.0884402069368 1409.4917333726496,367.44713410764666 1434.0414243148982,346.98905832243946 Z" fill="url(#leaf16)" opacity="0.27" transform="rotate(7.5 1434.0 387.9)"/>
    <path d="M 975.1929817885296,422.61403486314333 C 1011.6128152418579,452.9638960742503 1023.7527597263007,495.4537017698 975.1929817885296,544.0134797075712 C 926.6332038507584,495.4537017698 938.7731483352012,452.9638960742503 975.1929817885296,422.61403486314333 Z" fill="url(#leaf17)" opacity="0.38" transform="rotate(157.4 975.2 483.3)"/>
    <path d="M 162.78023376471492,947.9659170608104 C 210.86055260088312,988.0328494242839 226.8873255462725,1044.1265547331468 162.78023376471492,1108.2336465147043 C 98.67314198315732,1044.1265547331468 114.69991492854672,988.0328494242839 162.78023376471492,947.9659170608104 Z" fill="url(#leaf18)" opacity="0.22" transform="rotate(347.3 162.8 1028.1)"/>
    <path d="M 795.0338592985499,865.739328241665 C 838.2326483556772,901.7383191226044 852.6322447080529,952.1369063559195 795.0338592985499,1009.7352917654224 C 737.435473889047,952.1369063559195 751.8350702414227,901.7383191226044 795.0338592985499,865.739328241665 Z" fill="url(#leaf19)" opacity="0.39" transform="rotate(314.8 795.0 937.7)"/>
    <path d="M 205.03289006059202,137.44425392834444 C 261.15202630962784,184.21020080254095 279.85840505930645,249.68252642641608 205.03289006059202,324.5080414251305 C 130.2073750618776,249.68252642641608 148.9137538115562,184.21020080254095 205.03289006059202,137.44425392834444 Z" fill="url(#leaf0)" opacity="0.36" transform="rotate(87.1 205.0 231.0)"/>
    <path d="M 1436.1940320560036,818.0710329588395 C 1467.649622890866,844.284025321225 1478.1348198358203,880.9822146285646 1436.1940320560036,922.9230024083814 C 1394.253244276187,880.9822146285646 1404.738441221141,844.284025321225 1436.1940320560036,818.0710329588395 Z" fill="url(#leaf1)" opacity="0.31" transform="rotate(89.2 1436.2 870.5)"/>
    <path d="M 1442.3933456725351,838.2809844666363 C 1483.1724966552392,872.2636102855562 1496.765546982807,919.8392864320442 1442.3933456725351,974.2114877423162 C 1388.0211443622632,919.8392864320442 1401.614194689831,872.2636102855562 1442.3933456725351,838.2809844666363 Z" fill="url(#leaf2)" opacity="0.23" transform="rotate(159.5 1442.4 906.2)"/>
    <path d="M 1216.4165824269899,748.2455825641863 C 1263.4773710482318,787.4629064152213 1279.1643005886458,842.3671598066702 1216.4165824269899,905.1148779683261 C 1153.668864265334,842.3671598066702 1169.355793805748,787.4629064152213 1216.4165824269899,748.2455825641863 Z" fill="url(#leaf3)" opacity="0.25" transform="rotate(164.9 1216.4 826.7)"/>
    <path d="M 514.7284870557068,640.7441960070374 C 558.438664438886,677.1693438263534 573.0087235666124,728.1645507733958 514.7284870557068,786.4447872843015 C 456.4482505448011,728.1645507733958 471.0183096725275,677.1693438263534 514.7284870557068,640.7441960070374 Z" fill="url(#leaf4)" opacity="0.28" transform="rotate(58.6 514.7 713.6)"/>
    <path d="M 274.5406156799423,863.9679064561652 C 303.16731230539244,887.8234869773737 312.7095445138758,921.2212997070656 274.5406156799423,959.3902285409991 C 236.3716868460087,921.2212997070656 245.9139190544921,887.8234869773737 274.5406156799423,863.9679064561652 Z" fill="url(#leaf5)" opacity="0.36" transform="rotate(336.7 274.5 911.7)"/>
    <path d="M 286.1177217422882,337.983140390608 C 341.4561968870943,384.0985363446131 359.9023552686963,448.66009068022015 286.1177217422882,522.4447242066283 C 212.3330882158801,448.66009068022015 230.77924659748214,384.0985363446131 286.1177217422882,337.983140390608 Z" fill="url(#leaf6)" opacity="0.36" transform="rotate(48.8 286.1 430.2)"/>
    <path d="M 756.4589213445188,647.5454580255839 C 803.9706237650796,687.1385433760512 819.8078579052665,742.5688628667053 756.4589213445188,805.917799427453 C 693.1099847837711,742.5688628667053 708.947218923958,687.1385433760512 756.4589213445188,647.5454580255839 Z" fill="url(#leaf7)" opacity="0.32" transform="rotate(37.5 756.5 726.7)"/>
    <path d="M 739.9884557086705,520.4262213500596 C 781.0743281111678,554.6644483521407 794.7696189120002,602.5979661550542 739.9884557086705,657.3791293583839 C 685.2072925053408,602.5979661550542 698.9025833061731,554.6644483521407 739.9884557086705,520.4262213500596 Z" fill="url(#leaf8)" opacity="0.36" transform="rotate(16.6 740.0 588.9)"/>
    <path d="M 846.6695201696651,-3.188268583733361 C 887.0992591491822,30.503180565864213 900.5758388090212,77.67120937530082 846.6695201696651,131.57752801465693 C 792.7632015303091,77.67120937530082 806.239781190148,30.503180565864213 846.6695201696651,-3.188268583733361 Z" fill="url(#leaf9)" opacity="0.20" transform="rotate(156.6 846.7 64.2)"/>
    <path d="M 1798.7883021776274,193.54632275691586 C 1849.6400576891863,235.92278568321484 1866.590642859706,295.24983378003344 1798.7883021776274,363.0521744621118 C 1730.985961495549,295.24983378003344 1747.9365466660686,235.92278568321484 1798.7883021776274,193.54632275691586 Z" fill="url(#leaf10)" opacity="0.36" transform="rotate(117.5 1798.8 278.3)"/>
    <path d="M 250.08612265213304,785.9011462223926 C 296.52203914270507,824.5977432978693 312.00067797289574,878.7729792035367 250.08612265213304,940.6875345242994 C 188.17156733137037,878.7729792035367 203.65020616156104,824.5977432978693 250.08612265213304,785.9011462223926 Z" fill="url(#leaf11)" opacity="0.32" transform="rotate(313.1 250.1 863.3)"/>
    <path d="M 189.1109888909017,552.7824278706331 C 223.648614379248,581.563782444255 235.16115620869675,621.8576788473257 189.1109888909017,667.9078461651208 C 143.06082157310664,621.8576788473257 154.5733634025554,581.563782444255 189.1109888909017,552.7824278706331 Z" fill="url(#leaf12)" opacity="0.34" transform="rotate(274.3 189.1 610.3)"/>
    <path d="M 79.69440492781756,346.6077062871792 C 120.90322727609507,380.94839157741046 134.63950139218758,429.0253509837342 79.69440492781756,483.9704474481042 C 24.749308463447534,429.0253509837342 38.48558257954004,380.94839157741046 79.69440492781756,346.6077062871792 Z" fill="url(#leaf13)" opacity="0.40" transform="rotate(66.0 79.7 415.3)"/>
    <path d="M 1744.948596181192,26.568362992364285 C 1787.8772906915883,62.34227508436129 1802.1868555283872,112.4257520131571 1744.948596181192,169.6640113603523 C 1687.7103368339967,112.4257520131571 1702.0199016707957,62.34227508436129 1744.948596181192,26.568362992364285 Z" fill="url(#leaf14)" opacity="0.39" transform="rotate(343.1 1744.9 98.1)"/>
    <path d="M 859.6743993732299,535.1237324707039 C 917.2808272633783,583.1290890458276 936.4829698934279,650.3365882510009 859.6743993732299,727.1451587711989 C 782.8658288530319,650.3365882510009 802.0679714830815,583.1290890458276 859.6743993732299,535.1237324707039 Z" fill="url(#leaf15)" opacity="0.20" transform="rotate(59.3 859.7 631.1)"/>
    <path d="M 741.6664006756971,395.0055585513461 C 783.6974293529248,430.0314157823692 797.7077722453341,479.0676159058016 741.6664006756971,535.1089874754385 C 685.6250291060601,479.0676159058016 699.6353719984694,430.0314157823692 741.6664006756971,395.0055585513461 Z" fill="url(#leaf16)" opacity="0.21" transform="rotate(126.0 741.7 465.1)"/>
    <path d="M 916.6470096430206,117.17659919179391 C 955.2084961670264,149.31117129513203 968.0623250083617,194.2995722398054 916.6470096430206,245.71488760514637 C 865.2316942776796,194.2995722398054 878.0855231190149,149.31117129513203 916.6470096430206,117.17659919179391 Z" fill="url(#leaf17)" opacity="0.26" transform="rotate(99.6 916.6 181.4)"/>
    <path d="M 1539.825323028478,918.0968211602615 C 1566.8355032393708,940.6053046693389 1575.8388966430018,972.1171815820474 1539.825323028478,1008.1307551965713 C 1503.811749413954,972.1171815820474 1512.815142817585,940.6053046693389 1539.825323028478,918.0968211602615 Z" fill="url(#leaf18)" opacity="0.29" transform="rotate(187.2 1539.8 963.1)"/>
    <path d="M 1534.7731445059444,373.081352793978 C 1578.912920285181,409.86449927667513 1593.62617887826,461.36090435245114 1534.7731445059444,520.2139387247665 C 1475.920110133629,461.36090435245114 1490.6333687267079,409.86449927667513 1534.7731445059444,373.081352793978 Z" fill="url(#leaf19)" opacity="0.32" transform="rotate(237.2 1534.8 446.6)"/>
    <path d="M 211.87978549948733,337.2382112827665 C 258.4685575361641,376.0621879799971 273.99814821505635,430.41575535612 211.87978549948733,492.53411807168897 C 149.7614227839183,430.41575535612 165.29101346281058,376.0621879799971 211.87978549948733,337.2382112827665 Z" fill="url(#leaf0)" opacity="0.35" transform="rotate(111.6 211.9 414.9)"/>
    <path d="M 433.37408522615925,17.887611371231742 C 459.7577380553495,39.87398872889026 468.5522889984129,70.65491702961219 433.37408522615925,105.83312080186582 C 398.1958814539056,70.65491702961219 406.990432396969,39.87398872889026 433.37408522615925,17.887611371231742 Z" fill="url(#leaf1)" opacity="0.24" transform="rotate(190.5 433.4 61.9)"/>
    <path d="M 1092.7115680591935,209.7522999485485 C 1146.6151383435065,254.67194185214274 1164.5829951049443,317.55944051717466 1092.7115680591935,389.4308675629254 C 1020.8401410134427,317.55944051717466 1038.8079977748805,254.67194185214274 1092.7115680591935,209.7522999485485 Z" fill="url(#leaf2)" opacity="0.30" transform="rotate(344.8 1092.7 299.6)"/>
    <path d="M 1545.4508663202655,355.7617240260913 C 1576.2124970136479,381.39641627057665 1586.4663739114421,417.28498541285614 1545.4508663202655,458.30049300403266 C 1504.4353587290889,417.28498541285614 1514.6892356268831,381.39641627057665 1545.4508663202655,355.7617240260913 Z" fill="url(#leaf3)" opacity="0.37" transform="rotate(202.4 1545.5 407.0)"/>
    <path d="M 1307.1769268268497,252.68643317676245 C 1342.567629714543,282.17868558317355 1354.3645306771075,323.4678389521491 1307.1769268268497,370.6554428024069 C 1259.989322976592,323.4678389521491 1271.7862239391563,282.17868558317355 1307.1769268268497,252.68643317676245 Z" fill="url(#leaf4)" opacity="0.25" transform="rotate(190.4 1307.2 311.7)"/>
    <path d="M 1376.1601946529813,845.4518642270566 C 1400.4222338988911,865.6702302653149 1408.5095803141944,893.9759427188764 1376.1601946529813,926.3253283800896 C 1343.8108089917682,893.9759427188764 1351.8981554070715,865.6702302653149 1376.1601946529813,845.4518642270566 Z" fill="url(#leaf5)" opacity="0.30" transform="rotate(215.5 1376.2 885.9)"/>
    <path d="M 1053.1096920594587,701.2609130308091 C 1078.3655936846703,722.3074977184855 1086.7842275597409,751.7727162812323 1053.1096920594587,785.4472517815144 C 1019.4351565591766,751.7727162812323 1027.853790434247,722.3074977184855 1053.1096920594587,701.2609130308091 Z" fill="url(#leaf6)" opacity="0.35" transform="rotate(140.5 1053.1 743.4)"/>
    <path d="M 762.9303194886618,352.14524802980185 C 811.7429070783817,392.82240435456845 828.0137696082884,449.7704232092417 762.9303194886618,514.8538733288683 C 697.8468693690352,449.7704232092417 714.1177318989419,392.82240435456845 762.9303194886618,352.14524802980185 Z" fill="url(#leaf7)" opacity="0.34" transform="rotate(155.9 762.9 433.5)"/>
    <path d="M 949.5835713030633,630.4095895164279 C 978.64857885889,654.6304291462834 988.3369147108323,688.5396046280813 949.5835713030633,727.2929480358501 C 910.8302278952943,688.5396046280813 920.5185637472366,654.6304291462834 949.5835713030633,630.4095895164279 Z" fill="url(#leaf8)" opacity="0.22" transform="rotate(347.8 949.6 678.9)"/>
    <path d="M 289.1795972700239,264.9072198890849 C 314.20673798627524,285.76317048596104 322.54911822502567,314.96150132158755 289.1795972700239,348.33102227658935 C 255.81007631502214,314.96150132158755 264.1524565537726,285.76317048596104 289.1795972700239,264.9072198890849 Z" fill="url(#leaf9)" opacity="0.32" transform="rotate(98.3 289.2 306.6)"/>
    <path d="M 1694.706937403767,250.78940737281926 C 1742.5020824992566,290.6186949523941 1758.4337975310866,346.3796975637988 1694.706937403767,410.1065576911185 C 1630.9800772764472,346.3796975637988 1646.9117923082772,290.6186949523941 1694.706937403767,250.78940737281926 Z" fill="url(#leaf10)" opacity="0.31" transform="rotate(48.4 1694.7 330.4)"/>
    <path d="M 111.11065260071604,51.30068993895425 C 143.05653172182738,77.92225587321371 153.70515809553117,115.19244818117697 111.11065260071604,157.7869536759921 C 68.5161471059009,115.19244818117697 79.16477347960468,77.92225587321371 111.11065260071604,51.30068993895425 Z" fill="url(#leaf11)" opacity="0.38" transform="rotate(15.7 111.1 104.5)"/>
    <path d="M 771.1049537755482,317.8523065800233 C 797.6766761303369,339.9954085423472 806.5339169152664,370.99575128960066 771.1049537755482,406.4247144293189 C 735.67599063583,370.99575128960066 744.5332314207595,339.9954085423472 771.1049537755482,317.8523065800233 Z" fill="url(#leaf12)" opacity="0.35" transform="rotate(245.7 771.1 362.1)"/>
    <path d="M 1401.7870963745115,562.0808780066296 C 1432.7996529683307,587.9246751681457 1443.137171832937,624.105991194268 1401.7870963745115,665.4560666526935 C 1360.437020916086,624.105991194268 1370.7745397806923,587.9246751681457 1401.7870963745115,562.0808780066296 Z" fill="url(#leaf13)" opacity="0.21" transform="rotate(108.7 1401.8 613.8)"/>
    <path d="M 727.4905652303802,140.17630412726095 C 761.4378781991727,168.46573160125467 772.7536491887702,208.0709300648459 727.4905652303802,253.33401402323585 C 682.2274812719902,208.0709300648459 693.5432522615877,168.46573160125467 727.4905652303802,140.17630412726095 Z" fill="url(#leaf14)" opacity="0.38" transform="rotate(232.1 727.5 196.8)"/>
    <path d="M 1214.8216539902403,642.7854749062726 C 1269.5064397131348,688.3561296753513 1287.7347016207661,752.1550463520615 1214.8216539902403,825.0680939825875 C 1141.9086063597144,752.1550463520615 1160.1368682673458,688.3561296753513 1214.8216539902403,642.7854749062726 Z" fill="url(#leaf15)" opacity="0.27" transform="rotate(166.6 1214.8 733.9)"/>
    <path d="M 1682.1530097814257,158.8010427134236 C 1742.048604990549,208.7140387210263 1762.01380339359,278.59223313167007 1682.1530097814257,358.45302674383436 C 1602.2922161692613,278.59223313167007 1622.2574145723024,208.7140387210263 1682.1530097814257,158.8010427134236 Z" fill="url(#leaf16)" opacity="0.23" transform="rotate(193.8 1682.2 258.6)"/>
    <path d="M 844.9525574975822,92.7408854074427 C 871.094819548436,114.52610378315421 879.8089068987207,145.02540950915034 844.9525574975822,179.88175891028874 C 810.0962080964438,145.02540950915034 818.8102954467284,114.52610378315421 844.9525574975822,92.7408854074427 Z" fill="url(#leaf17)" opacity="0.39" transform="rotate(123.0 845.0 136.3)"/>
    <path d="M 1445.2976776701496,516.9726852934093 C 1487.4910605643365,552.1338377052317 1501.5555215290656,601.359451081783 1445.2976776701496,657.6172949406989 C 1389.0398338112336,601.359451081783 1403.1042947759627,552.1338377052317 1445.2976776701496,516.9726852934093 Z" fill="url(#leaf18)" opacity="0.29" transform="rotate(44.7 1445.3 587.3)"/>
    <path d="M 1550.0013971627156,622.3888125919203 C 1598.1332737201699,662.4987097231322 1614.1772325726545,718.6525657068287 1550.0013971627156,782.8284011167676 C 1485.8255617527768,718.6525657068287 1501.8695206052614,662.4987097231322 1550.0013971627156,622.3888125919203 Z" fill="url(#leaf19)" opacity="0.21" transform="rotate(270.2 1550.0 702.6)"/>
    <path d="M 1358.3414463913025,458.5074028314144 C 1401.334325539174,494.3348021213073 1415.665285255131,544.4931611271574 1358.3414463913025,601.8169999909859 C 1301.017607527474,544.4931611271574 1315.348567243431,494.3348021213073 1358.3414463913025,458.5074028314144 Z" fill="url(#leaf0)" opacity="0.39" transform="rotate(130.2 1358.3 530.2)"/>
    <path d="M 1863.2343290660788,382.8877546396676 C 1888.1901370152618,403.68426126398685 1896.5087396649897,432.7993705380338 1863.2343290660788,466.0737811369446 C 1829.9599184671679,432.7993705380338 1838.2785211168957,403.68426126398685 1863.2343290660788,382.8877546396676 Z" fill="url(#leaf1)" opacity="0.30" transform="rotate(249.4 1863.2 424.5)"/>
    <path d="M 1486.3927026867168,947.6786787034598 C 1515.0635688493257,971.5710671723006 1524.6205242368621,1005.0204110286776 1486.3927026867168,1043.2482325788228 C 1448.1648811365715,1005.0204110286776 1457.7218365241079,971.5710671723006 1486.3927026867168,947.6786787034598 Z" fill="url(#leaf2)" opacity="0.37" transform="rotate(123.5 1486.4 995.5)"/>
    <path d="M 964.9435055557647,376.14389735156357 C 1009.0998238539786,412.94082926674184 1023.8185966200499,464.4565339479915 964.9435055557647,523.3316250122768 C 906.0684144914794,464.4565339479915 920.7871872575507,412.94082926674184 964.9435055557647,376.14389735156357 Z" fill="url(#leaf3)" opacity="0.23" transform="rotate(78.9 964.9 449.7)"/>
    <path d="M 1057.0684863494937,503.01110903139886 C 1105.2920251815303,543.1973913914294 1121.3665381255425,599.4581866954721 1057.0684863494937,663.756238471521 C 992.7704345734448,599.4581866954721 1008.8449475174571,543.1973913914294 1057.0684863494937,503.01110903139886 Z" fill="url(#leaf4)" opacity="0.29" transform="rotate(254.6 1057.1 583.4)"/>
    <path d="M 1683.9662805216062,774.761579166797 C 1717.3727952310376,802.6003414246564 1728.5083001341816,841.5746085856598 1683.9662805216062,886.116628198235 C 1639.4242609090309,841.5746085856598 1650.5597658121749,802.6003414246564 1683.9662805216062,774.761579166797 Z" fill="url(#leaf5)" opacity="0.31" transform="rotate(183.0 1684.0 830.4)"/>
    <path d="M 752.7188823431867,7.3936502030778115 C 803.3048808820091,49.54864898542982 820.1668803949499,108.56564728072263 752.7188823431867,176.01364533248585 C 685.2708842914235,108.56564728072263 702.1328838043643,49.54864898542982 752.7188823431867,7.3936502030778115 Z" fill="url(#leaf6)" opacity="0.27" transform="rotate(150.9 752.7 91.7)"/>
    <path d="M 1477.0236386371273,193.63212259959334 C 1506.2239789248943,217.96573950606577 1515.9574256874832,252.03280317512719 1477.0236386371273,290.96659022548306 C 1438.0898515867714,252.03280317512719 1447.8232983493604,217.96573950606577 1477.0236386371273,193.63212259959334 Z" fill="url(#leaf7)" opacity="0.25" transform="rotate(290.0 1477.0 242.3)"/>
    <path d="M 1054.4082982042264,413.89900626022705 C 1110.3734353474088,460.5366205462123 1129.0284810618027,525.8292805465917 1054.4082982042264,600.449463404168 C 979.78811534665,525.8292805465917 998.4431610610441,460.5366205462123 1054.4082982042264,413.89900626022705 Z" fill="url(#leaf8)" opacity="0.33" transform="rotate(315.9 1054.4 507.2)"/>
    <path d="M 1612.104474184627,296.3170754983379 C 1663.4120212308385,339.0733647035142 1680.514536912909,398.93216959076096 1612.104474184627,467.342232319043 C 1543.6944114563448,398.93216959076096 1560.7969271384154,339.0733647035142 1612.104474184627,296.3170754983379 Z" fill="url(#leaf9)" opacity="0.26" transform="rotate(43.1 1612.1 381.8)"/>
    <path d="M 1632.5651132176988,383.0345095692939 C 1683.9748751936004,425.8759778825452 1701.111462518901,485.85403352109705 1632.5651132176988,554.4003828222992 C 1564.0187639164967,485.85403352109705 1581.1553512417972,425.8759778825452 1632.5651132176988,383.0345095692939 Z" fill="url(#leaf10)" opacity="0.35" transform="rotate(171.8 1632.6 468.7)"/>
    <path d="M 778.9326002353122,607.666901199152 C 825.782290193334,646.7083094975035 841.3988535126746,701.3662811151955 778.9326002353122,763.8325343925579 C 716.4663469579498,701.3662811151955 732.0829102772904,646.7083094975035 778.9326002353122,607.666901199152 Z" fill="url(#leaf11)" opacity="0.23" transform="rotate(280.9 778.9 685.7)"/>
    <path d="M 201.95635463546023,565.3977038261128 C 248.32508624759598,604.0383135028925 263.7813301183079,658.1351670503842 201.95635463546023,719.9601425332319 C 140.13137915261257,658.1351670503842 155.58762302332448,604.0383135028925 201.95635463546023,565.3977038261128 Z" fill="url(#leaf12)" opacity="0.20" transform="rotate(37.2 202.0 642.7)"/>
    <path d="M 285.94420427494595,285.2232516765578 C 331.90590503955303,323.5246689803971 347.22647196108875,377.14665320577205 285.94420427494595,438.42892089191486 C 224.66193658880314,377.14665320577205 239.98250351033883,323.5246689803971 285.94420427494595,285.2232516765578 Z" fill="url(#leaf13)" opacity="0.36" transform="rotate(97.5 285.9 361.8)"/>
    <path d="M 239.03666676731896,734.2703368259472 C 280.73674180391106,769.0203993564406 294.63676681610843,817.6704868991314 239.03666676731896,873.270586947921 C 183.43656671852946,817.6704868991314 197.33659173072684,769.0203993564406 239.03666676731896,734.2703368259472 Z" fill="url(#leaf14)" opacity="0.31" transform="rotate(234.3 239.0 803.8)"/>
    <path d="M 1456.3856297129526,132.32652927029275 C 1482.5958560459533,154.1683845477933 1491.3325981569535,184.74698193629408 1456.3856297129526,219.69395038029498 C 1421.4386612689516,184.74698193629408 1430.1754033799518,154.1683845477933 1456.3856297129526,132.32652927029275 Z" fill="url(#leaf15)" opacity="0.35" transform="rotate(31.0 1456.4 176.0)"/>
    <path d="M 1015.9545417826718,728.0090790567978 C 1041.133115300005,748.9912236545757 1049.5259731391163,778.3662260914647 1015.9545417826718,811.9376574479094 C 982.3831104262272,778.3662260914647 990.7759682653383,748.9912236545757 1015.9545417826718,728.0090790567978 Z" fill="url(#leaf16)" opacity="0.24" transform="rotate(234.8 1016.0 770.0)"/>
    <path d="M 1447.9460406041233,46.32648735199221 C 1480.0487865187074,73.07877561414577 1490.749701823569,110.53197918116074 1447.9460406041233,153.3356404006064 C 1405.1423793846775,110.53197918116074 1415.843294689539,73.07877561414577 1447.9460406041233,46.32648735199221 Z" fill="url(#leaf17)" opacity="0.40" transform="rotate(354.0 1447.9 99.8)"/>
    <path d="M 1290.9364243735645,26.159762012955056 C 1318.0096178190067,48.72075655082362 1327.0340156341542,80.30614890383961 1290.9364243735645,116.40374016442932 C 1254.8388331129747,80.30614890383961 1263.8632309281222,48.72075655082362 1290.9364243735645,26.159762012955056 Z" fill="url(#leaf18)" opacity="0.39" transform="rotate(12.4 1290.9 71.3)"/>
    <path d="M 1031.9870415613964,174.16255682658795 C 1058.1153426487117,195.9361410660174 1066.8247763444836,226.41915900121865 1031.9870415613964,261.25689378430576 C 997.1493067783092,226.41915900121865 1005.8587404740811,195.9361410660174 1031.9870415613964,174.16255682658795 Z" fill="url(#leaf19)" opacity="0.32" transform="rotate(25.9 1032.0 217.7)"/>
    <path d="M 439.6930872868256,701.0971655341439 C 476.4631191248692,731.7388587325136 488.71979640421705,774.6372292102311 439.6930872868256,823.6639383276226 C 390.6663781694341,774.6372292102311 402.92305544878195,731.7388587325136 439.6930872868256,701.0971655341439 Z" fill="url(#leaf0)" opacity="0.27" transform="rotate(264.0 439.7 762.4)"/>
    <path d="M 354.6933620617283,797.5826250766409 C 394.0133249029529,830.3492607776614 407.11997918336107,876.22255075909 354.6933620617283,928.6491678807229 C 302.2667449400955,876.22255075909 315.3733992205037,830.3492607776614 354.6933620617283,797.5826250766409 Z" fill="url(#leaf1)" opacity="0.24" transform="rotate(142.4 354.7 863.1)"/>
    <path d="M 493.4178037817356,614.778653595402 C 524.85061272239,640.9726610459473 535.3282157026081,677.6442714767109 493.4178037817356,719.5546833975833 C 451.50739186086304,677.6442714767109 461.9849948410812,640.9726610459473 493.4178037817356,614.778653595402 Z" fill="url(#leaf2)" opacity="0.22" transform="rotate(180.4 493.4 667.2)"/>
    <path d="M 1628.994664843563,917.5038491117202 C 1679.6331019794823,959.7025467249863 1696.5125810247887,1018.7807233835588 1628.994664843563,1086.2986395647845 C 1561.4767486623373,1018.7807233835588 1578.3562277076437,959.7025467249863 1628.994664843563,917.5038491117202 Z" fill="url(#leaf3)" opacity="0.25" transform="rotate(358.7 1629.0 1001.9)"/>
    <path d="M 974.6159030557398,310.2072337931868 C 1005.402645877196,335.862852811067 1015.6648934843481,371.7807194360993 974.6159030557398,412.82970986470764 C 933.5669126271314,371.7807194360993 943.8291602342834,335.862852811067 974.6159030557398,310.2072337931868 Z" fill="url(#leaf4)" opacity="0.39" transform="rotate(40.4 974.6 361.5)"/>
    <path d="M 370.457904254086,272.37895550638666 C 404.1316351775248,300.4403979425857 415.35621215200445,339.7264173532644 370.457904254086,384.6247252511829 C 325.5595963561675,339.7264173532644 336.78417333064715,300.4403979425857 370.457904254086,272.37895550638666 Z" fill="url(#leaf5)" opacity="0.21" transform="rotate(63.0 370.5 328.5)"/>
    <path d="M 979.2469988490981,131.70522453743496 C 1019.7813608054214,165.48385950103776 1033.2928147908626,212.77394845008166 979.2469988490981,266.81976439184615 C 925.2011829073336,212.77394845008166 938.7126368927748,165.48385950103776 979.2469988490981,131.70522453743496 Z" fill="url(#leaf6)" opacity="0.35" transform="rotate(106.0 979.2 199.3)"/>
    <path d="M 1281.0685618207567,859.1051241715544 C 1324.215309411592,895.0607471639172 1338.5975586085372,945.3986193532252 1281.0685618207567,1002.9276161410056 C 1223.5395650329763,945.3986193532252 1237.9218142299214,895.0607471639172 1281.0685618207567,859.1051241715544 Z" fill="url(#leaf7)" opacity="0.21" transform="rotate(193.7 1281.1 931.0)"/>
    <path d="M 1050.9936984930953,283.0133301904127 C 1075.3753172157167,303.3313457925972 1083.5025234565903,331.77656763565534 1050.9936984930953,364.28539259915044 C 1018.4848735296002,331.77656763565534 1026.6120797704739,303.3313457925972 1050.9936984930953,283.0133301904127 Z" fill="url(#leaf8)" opacity="0.24" transform="rotate(74.5 1051.0 323.6)"/>
    <path d="M 940.4329049527784,328.95194568405856 C 978.412888195367,360.6019317195491 991.0728826095633,404.91191216923585 940.4329049527784,455.5518898260207 C 889.7929272959934,404.91191216923585 902.4529217101897,360.6019317195491 940.4329049527784,328.95194568405856 Z" fill="url(#leaf9)" opacity="0.25" transform="rotate(314.3 940.4 392.3)"/>
    <path d="M 300.90304625907265,264.4966582600102 C 337.2618571859713,294.795667365759 349.3814608282708,337.2142801138074 300.90304625907265,385.6926946830055 C 252.4246316898745,337.2142801138074 264.544235332174,294.795667365759 300.90304625907265,264.4966582600102 Z" fill="url(#leaf10)" opacity="0.39" transform="rotate(200.3 300.9 325.1)"/>
    <path d="M 905.9207596643791,556.8955229897304 C 932.1470962056101,578.7508034407562 940.8892083860204,609.3481960721923 905.9207596643791,644.3166447938336 C 870.9523109427379,609.3481960721923 879.6944231231482,578.7508034407562 905.9207596643791,556.8955229897304 Z" fill="url(#leaf11)" opacity="0.38" transform="rotate(347.6 905.9 600.6)"/>
    <path d="M 1845.9600487212872,591.9480385964769 C 1887.2295095898976,626.3392559869854 1900.985996546101,674.4869603336977 1845.9600487212872,729.5129081585114 C 1790.9341008964734,674.4869603336977 1804.6905878526768,626.3392559869854 1845.9600487212872,591.9480385964769 Z" fill="url(#leaf12)" opacity="0.31" transform="rotate(310.9 1846.0 660.7)"/>
    <path d="M 566.5349104574267,774.71918528975 C 603.396930801623,805.4375355765803 615.684270916355,848.4432259781426 566.5349104574267,897.592586437071 C 517.3855499984984,848.4432259781426 529.6728901132304,805.4375355765803 566.5349104574267,774.71918528975 Z" fill="url(#leaf13)" opacity="0.24" transform="rotate(237.7 566.5 836.2)"/>
    <path d="M 1618.2494368347745,277.97794131162277 C 1664.4634013748482,316.48957842835085 1679.8680562215395,370.40587039177024 1618.2494368347745,432.0244897785352 C 1556.6308174480096,370.40587039177024 1572.0354722947009,316.48957842835085 1618.2494368347745,277.97794131162277 Z" fill="url(#leaf14)" opacity="0.23" transform="rotate(277.1 1618.2 355.0)"/>
    <path d="M 1683.2100457775587,243.90916249648626 C 1713.4850901816956,269.13836616660046 1723.5767716497414,304.4592513047603 1683.2100457775587,344.82597717694296 C 1642.843319905376,304.4592513047603 1652.9350013734218,269.13836616660046 1683.2100457775587,243.90916249648626 Z" fill="url(#leaf15)" opacity="0.24" transform="rotate(125.1 1683.2 294.4)"/>
    <path d="M 1623.6197718608007,505.83824446732103 C 1647.675495674786,525.8846809789752 1655.6940702794475,553.9496920952912 1623.6197718608007,586.023990513938 C 1591.545473442154,553.9496920952912 1599.5640480468155,525.8846809789752 1623.6197718608007,505.83824446732103 Z" fill="url(#leaf16)" opacity="0.28" transform="rotate(18.7 1623.6 545.9)"/>
    <path d="M 1276.1369359448452,792.9156726111438 C 1321.3626117676447,830.60373579681 1336.437837041911,883.3670242567428 1276.1369359448452,943.6679253538088 C 1215.8360348477793,883.3670242567428 1230.9112601220456,830.60373579681 1276.1369359448452,792.9156726111438 Z" fill="url(#leaf17)" opacity="0.34" transform="rotate(47.9 1276.1 868.3)"/>
    <path d="M 736.208972341318,229.87525576035367 C 785.514127604322,270.9628851461903 801.9491793586566,328.4855662863615 736.208972341318,394.22577330370007 C 670.4687653239795,328.4855662863615 686.9038170783141,270.9628851461903 736.208972341318,229.87525576035367 Z" fill="url(#leaf18)" opacity="0.40" transform="rotate(284.6 736.2 312.1)"/>
    <path d="M 416.5928426372381,922.5792189555045 C 452.54785505968965,952.5417293075475 464.53285920050683,994.4892438004076 416.5928426372381,1042.4292603636763 C 368.6528260739694,994.4892438004076 380.63783021478656,952.5417293075475 416.5928426372381,922.5792189555045 Z" fill="url(#leaf19)" opacity="0.26" transform="rotate(200.3 416.6 982.5)"/>
    <path d="M 1068.5368649523975,824.671822237772 C 1124.0323521336622,870.9180615554926 1142.5308478607506,935.6627966003014 1068.5368649523975,1009.6567795086544 C 994.5428820440446,935.6627966003014 1013.0413777711328,870.9180615554926 1068.5368649523975,824.671822237772 Z" fill="url(#leaf0)" opacity="0.26" transform="rotate(298.5 1068.5 917.2)"/>
    <path d="M 926.470986339344,716.3124483226484 C 961.3650028561776,745.3907954200098 972.9963416951222,786.1004813563156 926.470986339344,832.6258367120938 C 879.9456309835658,786.1004813563156 891.5769698225104,745.3907954200098 926.470986339344,716.3124483226484 Z" fill="url(#leaf1)" opacity="0.21" transform="rotate(263.7 926.5 774.5)"/>
    <path d="M 1154.4153171928117,540.6981381521537 C 1202.1014245873982,580.4365609809757 1217.996793718927,636.0703529413266 1154.4153171928117,699.651829467442 C 1090.8338406666965,636.0703529413266 1106.7292097982252,580.4365609809757 1154.4153171928117,540.6981381521537 Z" fill="url(#leaf2)" opacity="0.20" transform="rotate(203.0 1154.4 620.2)"/>
    <path d="M 1718.5193431143246,304.6095510136199 C 1742.5835925920005,324.6630922450166 1750.6050090845592,352.73804996897195 1718.5193431143246,384.82371593920664 C 1686.4336771440899,352.73804996897195 1694.4550936366486,324.6630922450166 1718.5193431143246,304.6095510136199 Z" fill="url(#leaf3)" opacity="0.26" transform="rotate(169.2 1718.5 344.7)"/>
    <path d="M 924.738114584831,728.5567085896205 C 964.3406515264819,761.5588227076629 977.5414971736989,807.7617824729223 924.738114584831,860.5651650617901 C 871.9347319959631,807.7617824729223 885.1355776431801,761.5588227076629 924.738114584831,728.5567085896205 Z" fill="url(#leaf4)" opacity="0.29" transform="rotate(215.5 924.7 794.6)"/>
    <path d="M 1064.815424787553,400.5619562622075 C 1117.9037842744344,444.80225583460873 1135.599904103395,506.73867523597045 1064.815424787553,577.5231545518125 C 994.030945471711,506.73867523597045 1011.7270653006715,444.80225583460873 1064.815424787553,400.5619562622075 Z" fill="url(#leaf5)" opacity="0.21" transform="rotate(237.6 1064.8 489.0)"/>
    <path d="M 1113.889452303552,642.4220262522088 C 1142.8382879217788,666.5460559340645 1152.4878997945214,700.3196974886627 1113.889452303552,738.918144979632 C 1075.2910048125825,700.3196974886627 1084.940616685325,666.5460559340645 1113.889452303552,642.4220262522088 Z" fill="url(#leaf6)" opacity="0.29" transform="rotate(184.1 1113.9 690.7)"/>
    <path d="M 234.24262518794822,772.5075139446333 C 264.26773490563716,797.5284387093741 274.2761048115335,832.5577333800112 234.24262518794822,872.5912130035965 C 194.20914556436293,832.5577333800112 204.21751547025926,797.5284387093741 234.24262518794822,772.5075139446333 Z" fill="url(#leaf7)" opacity="0.36" transform="rotate(166.4 234.2 822.5)"/>
    <path d="M 123.55296174912132,28.47354803339106 C 149.05566343004458,49.725799434160436 157.55656399035232,79.47895139523754 123.55296174912132,113.48255363646854 C 89.54935950789033,79.47895139523754 98.05026006819807,49.725799434160436 123.55296174912132,28.47354803339106 Z" fill="url(#leaf8)" opacity="0.33" transform="rotate(104.9 123.6 71.0)"/>
    <path d="M 943.8462073041961,-43.62984857630013 C 1000.4500658486784,3.540033544101739 1019.3180186968391,69.57786851266435 943.8462073041961,145.04967990530733 C 868.3743959115532,69.57786851266435 887.2423487597139,3.540033544101739 943.8462073041961,-43.62984857630013 Z" fill="url(#leaf9)" opacity="0.38" transform="rotate(13.2 943.8 50.7)"/>
    <path d="M 741.460739144098,386.29205271389947 C 801.1162191437251,436.00495271358864 821.0013791436006,505.6030127131534 741.460739144098,585.143652712656 C 661.9200991445955,505.6030127131534 681.805259144471,436.00495271358864 741.460739144098,386.29205271389947 Z" fill="url(#leaf10)" opacity="0.27" transform="rotate(137.2 741.5 485.7)"/>
    <path d="M 750.1902053219588,611.2110484302742 C 789.9638842404279,644.3557808623318 803.221777213251,690.7584062672124 750.1902053219588,743.7899781585046 C 697.1586334306667,690.7584062672124 710.4165264034898,644.3557808623318 750.1902053219588,611.2110484302742 Z" fill="url(#leaf11)" opacity="0.24" transform="rotate(208.8 750.2 677.5)"/>
    <path d="M 754.5370873109971,185.7388082893339 C 780.8680075609259,207.68124183094125 789.6449809775688,238.40064878919154 754.5370873109971,273.50854245576335 C 719.4291936444254,238.40064878919154 728.2061670610683,207.68124183094125 754.5370873109971,185.7388082893339 Z" fill="url(#leaf12)" opacity="0.26" transform="rotate(72.0 754.5 229.6)"/>
    <path d="M 357.3839853751426,621.8174978094056 C 409.4267592796036,665.1864760631231 426.77435058109063,725.9030456183276 357.3839853751426,795.2934108242756 C 287.9936201691945,725.9030456183276 305.34121147068157,665.1864760631231 357.3839853751426,621.8174978094056 Z" fill="url(#leaf13)" opacity="0.22" transform="rotate(34.4 357.4 708.6)"/>
    <path d="M 1044.0814440471277,599.9800882759679 C 1091.523709181592,639.5153092213548 1107.3377975597468,694.8646185448965 1044.0814440471277,758.1209720575156 C 980.8250905345086,694.8646185448965 996.6391789126634,639.5153092213548 1044.0814440471277,599.9800882759679 Z" fill="url(#leaf14)" opacity="0.25" transform="rotate(170.6 1044.1 679.1)"/>
    <path d="M 1469.2932418529317,175.06833069111937 C 1510.2311892763753,209.1832868773223 1523.8771717508564,256.94422553800644 1469.2932418529317,311.5281554359311 C 1414.709311955007,256.94422553800644 1428.3552944294881,209.1832868773223 1469.2932418529317,175.06833069111937 Z" fill="url(#leaf15)" opacity="0.36" transform="rotate(160.5 1469.3 243.3)"/>
    <path d="M 1424.4206138814923,933.1892990620452 C 1458.6627569742059,961.7244183059731 1470.076804671777,1001.6735852474723 1424.4206138814923,1047.329776037757 C 1378.7644230912076,1001.6735852474723 1390.1784707887787,961.7244183059731 1424.4206138814923,933.1892990620452 Z" fill="url(#leaf16)" opacity="0.23" transform="rotate(68.5 1424.4 990.3)"/>
    <path d="M 566.121272344792,774.3574171002984 C 621.6256313221336,820.6110495814164 640.1270843145808,885.3661350549816 566.121272344792,959.3719470247703 C 492.1154603750033,885.3661350549816 510.6169133674505,820.6110495814164 566.121272344792,774.3574171002984 Z" fill="url(#leaf17)" opacity="0.38" transform="rotate(58.9 566.1 866.9)"/>
  </g>

  <!-- Central star shape -->
  <polygon points="960.0,280.7 1036.2,435.1 1206.6,459.9 1083.3,580.1 1112.4,749.8 960.0,669.7 807.6,749.8 836.7,580.1 713.4,459.9 883.8,435.1" 
           fill="#FF1493" 
           transform="rotate(288.7 960.0 540.0)"/>
</svg>