<?xml version="1.0" encoding="UTF-8"?>
<svg xmlns="http://www.w3.org/2000/svg" viewBox="0 0 1920 1080" width="1920" height="1080">
  <defs>
    <linearGradient id="bgGrad" x1="0%" y1="0%" x2="100%" y2="100%">
      <stop offset="0%" stop-color="#00CED1"/>
      <stop offset="100%" stop-color="#FF1493"/>
    </linearGradient>
    <clipPath id="complexClip"><polygon points="1494.1,540.0 1404.4,593.1 1481.0,670.5 1357.9,702.6 1249.0,720.5 1170.6,745.1 1065.8,723.2 1018.1,851.0 913.1,790.9 792.2,830.5 738.0,756.3 663.2,725.4 614.8,681.1 517.3,650.9 522.9,592.3 466.6,540.0 413.0,474.6 458.3,414.3 546.8,371.1 695.6,374.8 687.9,274.9 806.4,274.1 910.3,273.8 1006.1,293.5 1090.9,313.3 1176.0,329.6 1344.6,299.8 1300.3,400.9 1384.7,433.6 1357.4,492.5"/></clipPath>
    <radialGradient id="leaf0" cx="50%" cy="50%" r="70%">
      <stop offset="0%" stop-color="#FF6B6B"/>
      <stop offset="50%" stop-color="#FF1493"/>
      <stop offset="100%" stop-color="#45B7D1"/>
    </radialGradient>
    <radialGradient id="leaf1" cx="50%" cy="50%" r="70%">
      <stop offset="0%" stop-color="#7B68EE"/>
      <stop offset="50%" stop-color="#4ECDC4"/>
      <stop offset="100%" stop-color="#FFD700"/>
    </radialGradient>
    <radialGradient id="leaf2" cx="50%" cy="50%" r="70%">
      <stop offset="0%" stop-color="#9370DB"/>
      <stop offset="50%" stop-color="#FF4500"/>
      <stop offset="100%" stop-color="#FF6B6B"/>
    </radialGradient>
    <radialGradient id="leaf3" cx="50%" cy="50%" r="70%">
      <stop offset="0%" stop-color="#7B68EE"/>
      <stop offset="50%" stop-color="#DC143C"/>
      <stop offset="100%" stop-color="#00CED1"/>
    </radialGradient>
    <radialGradient id="leaf4" cx="50%" cy="50%" r="70%">
      <stop offset="0%" stop-color="#FF69B4"/>
      <stop offset="50%" stop-color="#FF4500"/>
      <stop offset="100%" stop-color="#FFE66D"/>
    </radialGradient>
    <radialGradient id="leaf5" cx="50%" cy="50%" r="70%">
      <stop offset="0%" stop-color="#9370DB"/>
      <stop offset="50%" stop-color="#FFD700"/>
      <stop offset="100%" stop-color="#00FA9A"/>
    </radialGradient>
    <radialGradient id="leaf6" cx="50%" cy="50%" r="70%">
      <stop offset="0%" stop-color="#FFD700"/>
      <stop offset="50%" stop-color="#32CD32"/>
      <stop offset="100%" stop-color="#4ECDC4"/>
    </radialGradient>
    <radialGradient id="leaf7" cx="50%" cy="50%" r="70%">
      <stop offset="0%" stop-color="#FFD700"/>
      <stop offset="50%" stop-color="#FF6B6B"/>
      <stop offset="100%" stop-color="#7B68EE"/>
    </radialGradient>
    <radialGradient id="leaf8" cx="50%" cy="50%" r="70%">
      <stop offset="0%" stop-color="#32CD32"/>
      <stop offset="50%" stop-color="#9370DB"/>
      <stop offset="100%" stop-color="#FFE66D"/>
    </radialGradient>
    <radialGradient id="leaf9" cx="50%" cy="50%" r="70%">
      <stop offset="0%" stop-color="#FFE66D"/>
      <stop offset="50%" stop-color="#32CD32"/>
      <stop offset="100%" stop-color="#FF69B4"/>
    </radialGradient>
    <radialGradient id="leaf10" cx="50%" cy="50%" r="70%">
      <stop offset="0%" stop-color="#FFE66D"/>
      <stop offset="50%" stop-color="#4ECDC4"/>
      <stop offset="100%" stop-color="#FFD700"/>
    </radialGradient>
    <radialGradient id="leaf11" cx="50%" cy="50%" r="70%">
      <stop offset="0%" stop-color="#00FA9A"/>
      <stop offset="50%" stop-color="#00CED1"/>
      <stop offset="100%" stop-color="#7B68EE"/>
    </radialGradient>
    <radialGradient id="leaf12" cx="50%" cy="50%" r="70%">
      <stop offset="0%" stop-color="#32CD32"/>
      <stop offset="50%" stop-color="#FF1493"/>
      <stop offset="100%" stop-color="#FF4500"/>
    </radialGradient>
    <radialGradient id="leaf13" cx="50%" cy="50%" r="70%">
      <stop offset="0%" stop-color="#FF1493"/>
      <stop offset="50%" stop-color="#4ECDC4"/>
      <stop offset="100%" stop-color="#DC143C"/>
    </radialGradient>
    <radialGradient id="leaf14" cx="50%" cy="50%" r="70%">
      <stop offset="0%" stop-color="#7B68EE"/>
      <stop offset="50%" stop-color="#4ECDC4"/>
      <stop offset="100%" stop-color="#FFE66D"/>
    </radialGradient>
    <radialGradient id="leaf15" cx="50%" cy="50%" r="70%">
      <stop offset="0%" stop-color="#4ECDC4"/>
      <stop offset="50%" stop-color="#45B7D1"/>
      <stop offset="100%" stop-color="#9370DB"/>
    </radialGradient>
    <radialGradient id="leaf16" cx="50%" cy="50%" r="70%">
      <stop offset="0%" stop-color="#FFD700"/>
      <stop offset="50%" stop-color="#45B7D1"/>
      <stop offset="100%" stop-color="#96E6A1"/>
    </radialGradient>
    <radialGradient id="leaf17" cx="50%" cy="50%" r="70%">
      <stop offset="0%" stop-color="#FFE66D"/>
      <stop offset="50%" stop-color="#4ECDC4"/>
      <stop offset="100%" stop-color="#FFD700"/>
    </radialGradient>
    <radialGradient id="leaf18" cx="50%" cy="50%" r="70%">
      <stop offset="0%" stop-color="#FFE66D"/>
      <stop offset="50%" stop-color="#4ECDC4"/>
      <stop offset="100%" stop-color="#FF69B4"/>
    </radialGradient>
    <radialGradient id="leaf19" cx="50%" cy="50%" r="70%">
      <stop offset="0%" stop-color="#7B68EE"/>
      <stop offset="50%" stop-color="#00CED1"/>
      <stop offset="100%" stop-color="#FFD700"/>
    </radialGradient>
  </defs>

  <!-- Background -->
  <rect width="1920" height="1080" fill="url(#bgGrad)"/>
  
  <!-- Leaves with clip-path -->
  <g clip-path="url(#complexClip)">
    <path d="M 1783.1182486257158,856.5572583337059 C 1838.9947590742458,903.1210170408144 1857.6202625570893,968.3102792307664 1783.1182486257158,1042.81229316214 C 1708.6162346943422,968.3102792307664 1727.2417381771857,903.1210170408144 1783.1182486257158,856.5572583337059 Z" fill="url(#leaf0)" opacity="0.25" transform="rotate(144.0 1783.1 949.7)"/>
    <path d="M 1472.2632221617228,346.53103711177585 C 1501.502506574721,370.8971074559412 1511.2489347123874,405.0096059377727 1472.2632221617228,443.9953184884372 C 1433.2775096110581,405.0096059377727 1443.0239377487244,370.8971074559412 1472.2632221617228,346.53103711177585 Z" fill="url(#leaf1)" opacity="0.36" transform="rotate(217.9 1472.3 395.3)"/>
    <path d="M 778.026124610346,753.8848223277379 C 816.2404356664617,785.7300815411678 828.9785393518338,830.3134444399695 778.026124610346,881.2658591814574 C 727.0737098688581,830.3134444399695 739.8118135542302,785.7300815411678 778.026124610346,753.8848223277379 Z" fill="url(#leaf2)" opacity="0.27" transform="rotate(59.6 778.0 817.6)"/>
    <path d="M 1834.1391597820887,269.417385657273 C 1871.9286349701263,300.90861498063765 1884.5251266994721,344.99633603334826 1834.1391597820887,395.3823029507318 C 1783.7531928647052,344.99633603334826 1796.349684594051,300.90861498063765 1834.1391597820887,269.417385657273 Z" fill="url(#leaf3)" opacity="0.26" transform="rotate(30.7 1834.1 332.4)"/>
    <path d="M 1523.4663954405926,803.4112911560461 C 1555.4383277154805,830.0545680517861 1566.0956384737765,867.3551557058221 1523.4663954405926,909.984398739006 C 1480.8371524074087,867.3551557058221 1491.4944631657047,830.0545680517861 1523.4663954405926,803.4112911560461 Z" fill="url(#leaf4)" opacity="0.30" transform="rotate(229.0 1523.5 856.7)"/>
    <path d="M 538.2421547303668,622.7702318010706 C 576.7110314534305,654.8276290702904 589.5339903611183,699.7079852471979 538.2421547303668,750.9998208779496 C 486.95031909961523,699.7079852471979 499.77327800730313,654.8276290702904 538.2421547303668,622.7702318010706 Z" fill="url(#leaf5)" opacity="0.25" transform="rotate(110.1 538.2 686.9)"/>
    <path d="M 920.4836608535395,403.55127346759906 C 964.5652502748952,440.2859313187288 979.2591134153471,491.7144523103105 920.4836608535395,550.4899048721181 C 861.7082082917319,491.7144523103105 876.4020714321838,440.2859313187288 920.4836608535395,403.55127346759906 Z" fill="url(#leaf6)" opacity="0.22" transform="rotate(153.5 920.5 477.0)"/>
    <path d="M 1140.5691375171239,945.1326480433385 C 1172.9613322847265,972.1261436830072 1183.758730540594,1009.9170375785435 1140.5691375171239,1053.1066306020136 C 1097.3795444936538,1009.9170375785435 1108.1769427495212,972.1261436830072 1140.5691375171239,945.1326480433385 Z" fill="url(#leaf7)" opacity="0.32" transform="rotate(235.3 1140.6 999.1)"/>
    <path d="M 368.57570215310517,497.34013453502155 C 396.8510930479307,520.9029602807094 406.2762233462058,553.8909163246725 368.57570215310517,591.5914375177732 C 330.8751809600045,553.8909163246725 340.30031125827963,520.9029602807094 368.57570215310517,497.34013453502155 Z" fill="url(#leaf8)" opacity="0.34" transform="rotate(356.6 368.6 544.5)"/>
    <path d="M 909.8505604144134,782.6917615362086 C 968.4688355876149,831.5403241805432 988.0082606453487,899.9283118826116 909.8505604144134,978.086012113547 C 831.692860183478,899.9283118826116 851.2322852412119,831.5403241805432 909.8505604144134,782.6917615362086 Z" fill="url(#leaf9)" opacity="0.36" transform="rotate(127.5 909.9 880.4)"/>
    <path d="M 1265.1296091047845,783.808286472326 C 1298.1834056986763,811.3531169672358 1309.2013378966403,849.9158796601096 1265.1296091047845,893.9876084519653 C 1221.0578803129288,849.9158796601096 1232.0758125108928,811.3531169672358 1265.1296091047845,783.808286472326 Z" fill="url(#leaf10)" opacity="0.24" transform="rotate(151.7 1265.1 838.9)"/>
    <path d="M 1589.007546992475,492.4340086331446 C 1634.4820489963313,530.3294269696913 1649.64021633095,583.3830126408569 1589.007546992475,644.0156819793318 C 1528.374877654,583.3830126408569 1543.5330449886187,530.3294269696913 1589.007546992475,492.4340086331446 Z" fill="url(#leaf11)" opacity="0.28" transform="rotate(162.0 1589.0 568.2)"/>
    <path d="M 1509.0873295373228,700.1105116776251 C 1538.1974922688753,724.3689806205856 1547.9008798460595,758.3308371407303 1509.0873295373228,797.144387449467 C 1470.2737792285861,758.3308371407303 1479.9771668057704,724.3689806205856 1509.0873295373228,700.1105116776251 Z" fill="url(#leaf12)" opacity="0.38" transform="rotate(299.5 1509.1 748.6)"/>
    <path d="M 454.11927877233984,431.49196628659075 C 481.31770026849557,454.1573175333872 490.3838407672141,485.8888092789022 454.11927877233984,522.1533712737764 C 417.85471677746557,485.8888092789022 426.9208572761841,454.1573175333872 454.11927877233984,431.49196628659075 Z" fill="url(#leaf13)" opacity="0.38" transform="rotate(77.6 454.1 476.8)"/>
    <path d="M 732.0504498474152,125.50421453171893 C 769.9032889564536,157.0482471225843 782.5209019927997,201.20989274979587 732.0504498474152,251.68034489518047 C 681.5799977020306,201.20989274979587 694.1976107383767,157.0482471225843 732.0504498474152,125.50421453171893 Z" fill="url(#leaf14)" opacity="0.22" transform="rotate(324.4 732.1 188.6)"/>
    <path d="M 1315.6187757844598,628.9334657527023 C 1357.0078639399828,663.4243725489715 1370.8042266584907,711.7116420637485 1315.6187757844598,766.8970929377793 C 1260.4333249104288,711.7116420637485 1274.2296876289367,663.4243725489715 1315.6187757844598,628.9334657527023 Z" fill="url(#leaf15)" opacity="0.26" transform="rotate(102.1 1315.6 697.9)"/>
    <path d="M 1089.15348005024,143.97794980960265 C 1127.036152077173,175.5468431653802 1139.6637094194841,219.74329386346884 1089.15348005024,270.25352323271295 C 1038.6432506809958,219.74329386346884 1051.270808023307,175.5468431653802 1089.15348005024,143.97794980960265 Z" fill="url(#leaf16)" opacity="0.24" transform="rotate(188.7 1089.2 207.1)"/>
    <path d="M 1805.5281935216706,777.2671615199348 C 1837.6294777650508,804.0182317227517 1848.3299058461776,841.4697300066954 1805.5281935216706,884.2714423312024 C 1762.7264811971636,841.4697300066954 1773.4269092782904,804.0182317227517 1805.5281935216706,777.2671615199348 Z" fill="url(#leaf17)" opacity="0.37" transform="rotate(115.4 1805.5 830.8)"/>
    <path d="M 1196.8090613843237,808.8754356507156 C 1237.4982864110907,842.7831231730215 1251.061361420013,890.2538857042498 1196.8090613843237,944.5061857399392 C 1142.5567613486344,890.2538857042498 1156.1198363575568,842.7831231730215 1196.8090613843237,808.8754356507156 Z" fill="url(#leaf18)" opacity="0.39" transform="rotate(95.3 1196.8 876.7)"/>
    <path d="M 479.008506466074,80.4414055270724 C 520.8591706684956,115.31695902909047 534.8093920693029,164.14273393191579 479.008506466074,219.9436195351447 C 423.20762086284503,164.14273393191579 437.1578422636523,115.31695902909047 479.008506466074,80.4414055270724 Z" fill="url(#leaf19)" opacity="0.40" transform="rotate(263.5 479.0 150.2)"/>
    <path d="M 590.1239560541396,188.9906750676892 C 648.6508333107071,237.76307278149542 668.1597923962296,306.0444295808241 590.1239560541396,384.08026592291407 C 512.0881197120497,306.0444295808241 531.5970787975722,237.76307278149542 590.1239560541396,188.9906750676892 Z" fill="url(#leaf0)" opacity="0.24" transform="rotate(290.6 590.1 286.5)"/>
    <path d="M 1065.4178004722094,644.6274281508918 C 1090.5583591216102,665.5778936920591 1098.9385453380771,694.9085454496933 1065.4178004722094,728.429290315561 C 1031.8970556063416,694.9085454496933 1040.2772418228085,665.5778936920591 1065.4178004722094,644.6274281508918 Z" fill="url(#leaf1)" opacity="0.38" transform="rotate(207.3 1065.4 686.5)"/>
    <path d="M 205.60720297361394,442.3756531459314 C 249.93482532421933,479.3153384381025 264.7106994410878,531.0308978471422 205.60720297361394,590.1343943146161 C 146.50370650614008,531.0308978471422 161.27958062300854,479.3153384381025 205.60720297361394,442.3756531459314 Z" fill="url(#leaf2)" opacity="0.28" transform="rotate(185.6 205.6 516.3)"/>
    <path d="M 1671.4778909144152,456.79989722142096 C 1729.0620697995948,504.78671295907066 1748.2567960946546,571.9682549917803 1671.4778909144152,648.7471601720199 C 1594.6989857341757,571.9682549917803 1613.8937120292355,504.78671295907066 1671.4778909144152,456.79989722142096 Z" fill="url(#leaf3)" opacity="0.28" transform="rotate(140.4 1671.5 552.8)"/>
    <path d="M 1616.4884246218055,726.5129417836769 C 1645.0729664395008,750.3333932984228 1654.601147045399,783.6820254190671 1616.4884246218055,821.7947478426607 C 1578.375702198212,783.6820254190671 1587.9038828041103,750.3333932984228 1616.4884246218055,726.5129417836769 Z" fill="url(#leaf4)" opacity="0.30" transform="rotate(285.7 1616.5 774.2)"/>
    <path d="M 603.0025125987515,152.79759411397424 C 657.0380287522338,197.82719090854278 675.0498674700611,260.8686264209387 603.0025125987515,332.9159812922483 C 530.9551577274419,260.8686264209387 548.9669964452693,197.82719090854278 603.0025125987515,152.79759411397424 Z" fill="url(#leaf5)" opacity="0.35" transform="rotate(160.8 603.0 242.9)"/>
    <path d="M 896.5365219070102,51.87949036639775 C 923.753320087309,74.56015551664677 932.8255861474086,106.3130867269954 896.5365219070102,142.6021509673938 C 860.2474576666118,106.3130867269954 869.3197237267113,74.56015551664677 896.5365219070102,51.87949036639775 Z" fill="url(#leaf6)" opacity="0.38" transform="rotate(64.1 896.5 97.2)"/>
    <path d="M 1718.5886698854529,456.73174039081994 C 1769.1358947361211,498.8544277663769 1785.984969686344,557.8261900921566 1718.5886698854529,625.2224898930477 C 1651.1923700845618,557.8261900921566 1668.0414450347846,498.8544277663769 1718.5886698854529,456.73174039081994 Z" fill="url(#leaf7)" opacity="0.34" transform="rotate(281.4 1718.6 541.0)"/>
    <path d="M 1330.8978837772036,140.86463993363103 C 1355.3021964925153,161.20156719639078 1363.4369673976191,189.67326536425443 1330.8978837772036,222.21234898467006 C 1298.358800156788,189.67326536425443 1306.4935710618918,161.20156719639078 1330.8978837772036,140.86463993363103 Z" fill="url(#leaf8)" opacity="0.32" transform="rotate(134.5 1330.9 181.5)"/>
    <path d="M 347.27313776965,55.44796448740445 C 397.5148852054073,97.31608735053553 414.2621343506597,155.93145935891903 347.27313776965,222.92045593992876 C 280.2841411886403,155.93145935891903 297.0313903338927,97.31608735053553 347.27313776965,55.44796448740445 Z" fill="url(#leaf9)" opacity="0.33" transform="rotate(155.8 347.3 139.2)"/>
    <path d="M 480.2484107861062,255.10212266129582 C 524.0837003099207,291.6315305978079 538.6954634845256,342.7727017089249 480.2484107861062,401.2197544073443 C 421.8013580876868,342.7727017089249 436.41312126229167,291.6315305978079 480.2484107861062,255.10212266129582 Z" fill="url(#leaf10)" opacity="0.26" transform="rotate(191.3 480.2 328.2)"/>
    <path d="M 1850.5396130046324,265.60449514621837 C 1880.762732542451,290.79042809440057 1890.837105721724,326.05073422185563 1850.5396130046324,366.34822693894716 C 1810.242120287541,326.05073422185563 1820.3164934668139,290.79042809440057 1850.5396130046324,265.60449514621837 Z" fill="url(#leaf11)" opacity="0.40" transform="rotate(186.3 1850.5 316.0)"/>
    <path d="M 451.629757351736,434.02961740209093 C 502.85526118742234,476.71753726516295 519.9304291326512,536.4806250734638 451.629757351736,604.781296854379 C 383.3290855708208,536.4806250734638 400.4042535160496,476.71753726516295 451.629757351736,434.02961740209093 Z" fill="url(#leaf12)" opacity="0.36" transform="rotate(246.8 451.6 519.4)"/>
    <path d="M 1711.2689284876155,31.20800660264713 C 1767.6143794617685,78.16254908110793 1786.3961964531527,143.89890855095302 1711.2689284876155,219.0261765164903 C 1636.1416605220784,143.89890855095302 1654.9234775134626,78.16254908110793 1711.2689284876155,31.20800660264713 Z" fill="url(#leaf13)" opacity="0.28" transform="rotate(109.0 1711.3 125.1)"/>
    <path d="M 247.46557613996035,681.9086220277688 C 301.75560994562034,727.1503168658188 319.8522878808403,790.4886896390888 247.46557613996035,862.8754013799687 C 175.07886439908037,790.4886896390888 193.17554233430036,727.1503168658188 247.46557613996035,681.9086220277688 Z" fill="url(#leaf14)" opacity="0.29" transform="rotate(223.8 247.5 772.4)"/>
    <path d="M 703.271851846344,743.7137604471764 C 742.7687331057002,776.6278281633066 755.9343601921523,822.7075229658889 703.271851846344,875.3700313116972 C 650.6093435005357,822.7075229658889 663.7749705869878,776.6278281633066 703.271851846344,743.7137604471764 Z" fill="url(#leaf15)" opacity="0.26" transform="rotate(228.1 703.3 809.5)"/>
    <path d="M 495.9645704083198,934.2352507884349 C 532.9439063132833,965.0513640425712 545.2703516149378,1008.193922598362 495.9645704083198,1057.4997038049798 C 446.6587892017018,1008.193922598362 458.9852345033563,965.0513640425712 495.9645704083198,934.2352507884349 Z" fill="url(#leaf16)" opacity="0.34" transform="rotate(66.0 496.0 995.9)"/>
    <path d="M 306.7946165082346,242.7357155210962 C 365.19132376075777,291.3996382315322 384.65689284493214,359.5291300261426 306.7946165082346,437.3914063628402 C 228.932340171537,359.5291300261426 248.3979092557114,291.3996382315322 306.7946165082346,242.7357155210962 Z" fill="url(#leaf17)" opacity="0.37" transform="rotate(10.9 306.8 340.1)"/>
    <path d="M 412.5765137039171,137.5271034253323 C 446.2067495897013,165.55229999681916 457.4168282182961,204.78757519690075 412.5765137039171,249.6278897112797 C 367.7361991895381,204.78757519690075 378.9462778181329,165.55229999681916 412.5765137039171,137.5271034253323 Z" fill="url(#leaf18)" opacity="0.26" transform="rotate(73.2 412.6 193.6)"/>
    <path d="M 1713.9184769599885,894.6585786490051 C 1748.0907326856568,923.1354584203954 1759.4814845942128,963.0030901003416 1713.9184769599885,1008.5660977345659 C 1668.3554693257643,963.0030901003416 1679.7462212343203,923.1354584203954 1713.9184769599885,894.6585786490051 Z" fill="url(#leaf19)" opacity="0.30" transform="rotate(56.1 1713.9 951.6)"/>
    <path d="M 1113.707034857803,195.75394940243345 C 1159.050219782554,233.53993683972607 1174.164614757471,286.4403192519357 1113.707034857803,346.89789915160384 C 1053.2494549581347,286.4403192519357 1068.3638499330518,233.53993683972607 1113.707034857803,195.75394940243345 Z" fill="url(#leaf0)" opacity="0.35" transform="rotate(237.2 1113.7 271.3)"/>
    <path d="M 1731.9139085373974,12.64688452172939 C 1777.6426908567516,50.75420312119128 1792.8856182965364,104.10444916043792 1731.9139085373974,165.07615891957695 C 1670.9421987782584,104.10444916043792 1686.1851262180433,50.75420312119128 1731.9139085373974,12.64688452172939 Z" fill="url(#leaf1)" opacity="0.21" transform="rotate(294.6 1731.9 88.9)"/>
    <path d="M 975.2509482597928,579.2245884317668 C 1005.3329007977839,604.2928822134261 1015.3602183104476,639.388493507749 975.2509482597928,679.4977635584038 C 935.141678209138,639.388493507749 945.1689957218018,604.2928822134261 975.2509482597928,579.2245884317668 Z" fill="url(#leaf2)" opacity="0.30" transform="rotate(289.3 975.3 629.4)"/>
    <path d="M 412.4712375778728,801.2844380774325 C 459.940465294005,840.842127840876 475.76354119938236,896.2228935096969 412.4712375778728,959.5151971312064 C 349.1789339563632,896.2228935096969 365.0020098617406,840.842127840876 412.4712375778728,801.2844380774325 Z" fill="url(#leaf3)" opacity="0.26" transform="rotate(54.8 412.5 880.4)"/>
    <path d="M 1632.667373285113,729.0105518531334 C 1687.9091667330206,775.0453797263897 1706.323097882323,839.4941387489484 1632.667373285113,913.1498633461586 C 1559.0116486879028,839.4941387489484 1577.4255798372053,775.0453797263897 1632.667373285113,729.0105518531334 Z" fill="url(#leaf4)" opacity="0.21" transform="rotate(162.7 1632.7 821.1)"/>
    <path d="M 834.5426588409531,760.3908409406595 C 878.3234630679592,796.8748444631645 892.9170644769612,847.9524493946717 834.5426588409531,906.3268550306798 C 776.168253204945,847.9524493946717 790.761854613947,796.8748444631645 834.5426588409531,760.3908409406595 Z" fill="url(#leaf5)" opacity="0.27" transform="rotate(102.0 834.5 833.4)"/>
    <path d="M 1129.413620478215,343.3189984716251 C 1188.1512005196705,392.2669818395045 1207.7303938668222,460.7941585545358 1129.413620478215,539.110931943143 C 1051.096847089608,460.7941585545358 1070.6760404367596,392.2669818395045 1129.413620478215,343.3189984716251 Z" fill="url(#leaf6)" opacity="0.39" transform="rotate(214.3 1129.4 441.2)"/>
    <path d="M 1308.9175918971887,327.0280149985298 C 1349.2919604504634,360.67332212625877 1362.7500833015552,407.77675210507937 1308.9175918971887,461.6092435094457 C 1255.0851004928222,407.77675210507937 1268.543223343914,360.67332212625877 1308.9175918971887,327.0280149985298 Z" fill="url(#leaf7)" opacity="0.34" transform="rotate(145.1 1308.9 394.3)"/>
    <path d="M 253.38606456006093,853.0112045129468 C 297.2134744833236,889.5340461156658 311.8226111244111,940.6660243594721 253.38606456006093,999.1025709238223 C 194.94951799571075,940.6660243594721 209.5586546367983,889.5340461156658 253.38606456006093,853.0112045129468 Z" fill="url(#leaf8)" opacity="0.23" transform="rotate(84.1 253.4 926.1)"/>
    <path d="M 1806.4534401389376,916.5404553633041 C 1850.533590732367,953.2739141911619 1865.22697426351,1004.7007565501629 1806.4534401389376,1063.4742906747354 C 1747.679906014365,1004.7007565501629 1762.3732895455082,953.2739141911619 1806.4534401389376,916.5404553633041 Z" fill="url(#leaf9)" opacity="0.34" transform="rotate(244.0 1806.5 990.0)"/>
    <path d="M 494.8743135666131,494.20113175957016 C 534.1587580488815,526.9381688281271 547.2535728763042,572.7700207241069 494.8743135666131,625.149280033798 C 442.49505425692195,572.7700207241069 455.58986908434474,526.9381688281271 494.8743135666131,494.20113175957016 Z" fill="url(#leaf10)" opacity="0.39" transform="rotate(86.1 494.9 559.7)"/>
    <path d="M 769.1767937370687,851.9194042084307 C 800.7009972001092,878.1895737609644 811.2090650211228,914.9678111345117 769.1767937370687,957.0000824185659 C 727.1445224530146,914.9678111345117 737.6525902740282,878.1895737609644 769.1767937370687,851.9194042084307 Z" fill="url(#leaf11)" opacity="0.22" transform="rotate(185.8 769.2 904.5)"/>
    <path d="M 708.6042299576794,597.4048620954884 C 743.7002190943167,626.6515197093529 755.3988821398625,667.5968403687631 708.6042299576794,714.3914925509462 C 661.8095777754963,667.5968403687631 673.5082408210421,626.6515197093529 708.6042299576794,597.4048620954884 Z" fill="url(#leaf12)" opacity="0.35" transform="rotate(320.4 708.6 655.9)"/>
    <path d="M 154.28070418023165,369.34192894222633 C 213.73242476813954,418.88502943214957 233.54966496410884,488.2453701180421 154.28070418023165,567.5143309019193 C 75.01174339635448,488.2453701180421 94.82898359232377,418.88502943214957 154.28070418023165,369.34192894222633 Z" fill="url(#leaf13)" opacity="0.39" transform="rotate(283.4 154.3 468.4)"/>
    <path d="M 415.3715178762895,918.334559652107 C 452.94935487840564,949.6494238205371 465.4753005457777,993.4902336563393 415.3715178762895,1043.5940163258276 C 365.26773520680126,993.4902336563393 377.79368087417333,949.6494238205371 415.3715178762895,918.334559652107 Z" fill="url(#leaf14)" opacity="0.24" transform="rotate(225.7 415.4 981.0)"/>
    <path d="M 325.233392461118,92.77013538440815 C 353.59660014090474,116.40614178423041 363.05100270083364,149.49655074398157 325.233392461118,187.3141609836972 C 287.41578222140237,149.49655074398157 296.87018478133126,116.40614178423041 325.233392461118,92.77013538440815 Z" fill="url(#leaf15)" opacity="0.38" transform="rotate(178.4 325.2 140.0)"/>
    <path d="M 1131.6725384478354,27.071790973434872 C 1176.372112022901,64.32143561932286 1191.2719698812562,116.47093812356603 1131.6725384478354,176.0703695569868 C 1072.0731070144147,116.47093812356603 1086.9729648727698,64.32143561932286 1131.6725384478354,27.071790973434872 Z" fill="url(#leaf16)" opacity="0.32" transform="rotate(69.9 1131.7 101.6)"/>
    <path d="M 769.7851236284566,355.79279214441755 C 812.2571195857589,391.1861221088361 826.4144515715263,440.7367840590221 769.7851236284566,497.3661120020918 C 713.1557956853869,440.7367840590221 727.3131276711543,391.1861221088361 769.7851236284566,355.79279214441755 Z" fill="url(#leaf17)" opacity="0.38" transform="rotate(77.2 769.8 426.6)"/>
    <path d="M 1787.8226419318685,637.4433753993949 C 1837.216414506527,678.6048525449436 1853.6810053647462,736.2309205487117 1787.8226419318685,802.0892839815895 C 1721.9642784989908,736.2309205487117 1738.42886935721,678.6048525449436 1787.8226419318685,637.4433753993949 Z" fill="url(#leaf18)" opacity="0.22" transform="rotate(275.3 1787.8 719.8)"/>
    <path d="M 1013.6843335621419,202.50870238943259 C 1064.4443026120189,244.8086765976635 1081.3642922953113,304.0286404891868 1013.6843335621419,371.7085992223562 C 946.0043748289725,304.0286404891868 962.9243645122648,244.8086765976635 1013.6843335621419,202.50870238943259 Z" fill="url(#leaf19)" opacity="0.32" transform="rotate(139.4 1013.7 287.1)"/>
    <path d="M 1461.158559292239,460.7850767850406 C 1493.9454744596542,488.1075060912198 1504.874446182126,526.3589071198708 1461.158559292239,570.0747940097575 C 1417.4426724023522,526.3589071198708 1428.371644124824,488.1075060912198 1461.158559292239,460.7850767850406 Z" fill="url(#leaf0)" opacity="0.30" transform="rotate(132.3 1461.2 515.4)"/>
    <path d="M 1170.0779136968179,503.540852947399 C 1216.2291719963314,542.0002348636604 1231.612924762836,595.8433695464261 1170.0779136968179,657.3783806124442 C 1108.5429026307997,595.8433695464261 1123.9266553973043,542.0002348636604 1170.0779136968179,503.540852947399 Z" fill="url(#leaf1)" opacity="0.24" transform="rotate(241.2 1170.1 580.5)"/>
    <path d="M 813.0573063851069,122.94147707350841 C 864.8175252855663,166.07499282389117 882.0709315857193,226.46191487442704 813.0573063851069,295.4755400750395 C 744.0436811844945,226.46191487442704 761.2970874846476,166.07499282389117 813.0573063851069,122.94147707350841 Z" fill="url(#leaf2)" opacity="0.32" transform="rotate(260.4 813.1 209.2)"/>
    <path d="M 126.98916938781278,64.75878858932691 C 163.62247109721747,95.28654001383083 175.83357166701904,138.0253920081363 126.98916938781278,186.86979428734256 C 78.14476710860652,138.0253920081363 90.35586767840809,95.28654001383083 126.98916938781278,64.75878858932691 Z" fill="url(#leaf3)" opacity="0.32" transform="rotate(181.1 127.0 125.8)"/>
    <path d="M 1128.2723167706376,105.68986306988994 C 1168.2968168861566,139.0436131661557 1181.6383169246628,185.73886330092773 1128.2723167706376,239.10486345495292 C 1074.9063166166125,185.73886330092773 1088.2478166551186,139.0436131661557 1128.2723167706376,105.68986306988994 Z" fill="url(#leaf4)" opacity="0.21" transform="rotate(28.1 1128.3 172.4)"/>
    <path d="M 377.42549708661386,933.7665719966857 C 410.223967591126,961.0986307504459 421.15679109263004,999.3635130057099 377.42549708661386,1043.094807011726 C 333.6942030805977,999.3635130057099 344.62702658210173,961.0986307504459 377.42549708661386,933.7665719966857 Z" fill="url(#leaf5)" opacity="0.33" transform="rotate(91.1 377.4 988.4)"/>
    <path d="M 157.99359978329994,668.8723350188801 C 204.66673373660868,707.7666133133041 220.22444505437824,762.2186029254975 157.99359978329994,824.4494481965759 C 95.76275451222163,762.2186029254975 111.3204658299912,707.7666133133041 157.99359978329994,668.8723350188801 Z" fill="url(#leaf6)" opacity="0.21" transform="rotate(194.9 158.0 746.7)"/>
    <path d="M 348.35460171085293,686.1178914203513 C 394.64841889353306,724.6960724059181 410.0796912877598,778.7055257857116 348.35460171085293,840.4306153626185 C 286.6295121339461,778.7055257857116 302.0607845281728,724.6960724059181 348.35460171085293,686.1178914203513 Z" fill="url(#leaf7)" opacity="0.28" transform="rotate(293.2 348.4 763.3)"/>
    <path d="M 589.1277363238037,823.2568529468214 C 620.4617168182906,849.3685033588937 630.9063769831196,885.9248139357951 589.1277363238037,927.7034545951109 C 547.3490956644878,885.9248139357951 557.7937558293168,849.3685033588937 589.1277363238037,823.2568529468214 Z" fill="url(#leaf8)" opacity="0.26" transform="rotate(354.3 589.1 875.5)"/>
    <path d="M 1842.4443832184772,734.5879754998157 C 1879.2976531743284,765.2990337963582 1891.5820764929454,808.2945154115178 1842.4443832184772,857.4322086859859 C 1793.3066899440091,808.2945154115178 1805.591113262626,765.2990337963582 1842.4443832184772,734.5879754998157 Z" fill="url(#leaf9)" opacity="0.28" transform="rotate(291.7 1842.4 796.0)"/>
    <path d="M 1254.3892621602195,907.3465846604414 C 1286.5653345802727,934.1599783438191 1297.2906920536238,971.698729500548 1254.3892621602195,1014.6001593939524 C 1211.487832266815,971.698729500548 1222.2131897401662,934.1599783438191 1254.3892621602195,907.3465846604414 Z" fill="url(#leaf10)" opacity="0.38" transform="rotate(140.0 1254.4 961.0)"/>
    <path d="M 267.7488396109886,609.202094185893 C 304.08445178668495,639.4817709989732 316.19632251191706,681.8733185372855 267.7488396109886,730.320801438214 C 219.30135671006022,681.8733185372855 231.41322743529233,639.4817709989732 267.7488396109886,609.202094185893 Z" fill="url(#leaf11)" opacity="0.39" transform="rotate(61.3 267.7 669.8)"/>
    <path d="M 1841.2091576577452,490.2858846264511 C 1874.8753590429064,518.3410524474187 1886.0974261712936,557.6182873967736 1841.2091576577452,602.5065559103219 C 1796.3208891441968,557.6182873967736 1807.542956272584,518.3410524474187 1841.2091576577452,490.2858846264511 Z" fill="url(#leaf12)" opacity="0.32" transform="rotate(17.8 1841.2 546.4)"/>
    <path d="M 1763.3239791161932,445.5966814544139 C 1799.1037115906834,475.4131251831557 1811.0302890821802,517.1561464033942 1763.3239791161932,564.8624563693812 C 1715.6176691502062,517.1561464033942 1727.544246641703,475.4131251831557 1763.3239791161932,445.5966814544139 Z" fill="url(#leaf13)" opacity="0.36" transform="rotate(63.9 1763.3 505.2)"/>
    <path d="M 1694.2373297898373,767.3209679116478 C 1743.6635772184939,808.5095074355282 1760.138993028046,866.1734627689608 1694.2373297898373,932.0751260071695 C 1628.3356665516287,866.1734627689608 1644.8110823611808,808.5095074355282 1694.2373297898373,767.3209679116478 Z" fill="url(#leaf14)" opacity="0.27" transform="rotate(141.0 1694.2 849.7)"/>
    <path d="M 112.64292267807869,275.51248777589456 C 172.63218257574542,325.5035376906168 192.62860254163434,395.49100757122795 112.64292267807869,475.47668743478357 C 32.65724281452306,395.49100757122795 52.65366278041197,325.5035376906168 112.64292267807869,275.51248777589456 Z" fill="url(#leaf15)" opacity="0.24" transform="rotate(165.8 112.6 375.5)"/>
    <path d="M 232.84570938695163,343.73611058571544 C 281.0744622386105,383.92673796209783 297.15071318916347,440.1936162890332 232.84570938695163,504.498620091245 C 168.54070558473978,440.1936162890332 184.61695653529276,383.92673796209783 232.84570938695163,343.73611058571544 Z" fill="url(#leaf16)" opacity="0.31" transform="rotate(336.3 232.8 424.1)"/>
    <path d="M 159.75167843632067,223.39868998267636 C 204.76581763726404,260.9104726501292 219.77053070424518,313.4269683845631 159.75167843632067,373.44582065248755 C 99.73282616839617,313.4269683845631 114.73753923537731,260.9104726501292 159.75167843632067,223.39868998267636 Z" fill="url(#leaf17)" opacity="0.23" transform="rotate(84.2 159.8 298.4)"/>
    <path d="M 1828.578674171037,912.707046737047 C 1855.3263506396938,934.9967771275946 1864.242242795913,966.202399674361 1828.578674171037,1001.865968299237 C 1792.915105546161,966.202399674361 1801.83099770238,934.9967771275946 1828.578674171037,912.707046737047 Z" fill="url(#leaf18)" opacity="0.39" transform="rotate(156.4 1828.6 957.3)"/>
    <path d="M 1414.0555974510128,348.1043997972301 C 1463.7717965265595,389.5345656935189 1480.343862885075,447.5367979483233 1414.0555974510128,513.8250633823853 C 1347.7673320169506,447.5367979483233 1364.339398375466,389.5345656935189 1414.0555974510128,348.1043997972301 Z" fill="url(#leaf19)" opacity="0.25" transform="rotate(93.8 1414.1 431.0)"/>
    <path d="M 1241.9970309012022,550.9954366399749 C 1272.4470866976455,576.3704831370109 1282.5971052964599,611.8955482328614 1241.9970309012022,652.4956226281191 C 1201.3969565059444,611.8955482328614 1211.5469751047588,576.3704831370109 1241.9970309012022,550.9954366399749 Z" fill="url(#leaf0)" opacity="0.32" transform="rotate(71.1 1242.0 601.7)"/>
    <path d="M 1457.6082994536148,125.22483825241414 C 1495.1838945371096,156.5378341553264 1507.7090928982743,200.37602841940358 1457.6082994536148,250.4768218640632 C 1407.5075060089553,200.37602841940358 1420.03270437012,156.5378341553264 1457.6082994536148,125.22483825241414 Z" fill="url(#leaf1)" opacity="0.30" transform="rotate(53.9 1457.6 187.9)"/>
    <path d="M 164.94317271869303,84.04333755973929 C 216.8548966606685,127.3031075113855 234.15880464132698,187.86678544369022 164.94317271869303,257.0824173663242 C 95.72754079605907,187.86678544369022 113.03144877671758,127.3031075113855 164.94317271869303,84.04333755973929 Z" fill="url(#leaf2)" opacity="0.37" transform="rotate(323.6 164.9 170.6)"/>
    <path d="M 283.86687896867176,414.4692769079498 C 310.6055821656487,436.75152957209724 319.51848323130764,467.94668330190365 283.86687896867176,503.5982875645396 C 248.21527470603584,467.94668330190365 257.1281757716948,436.75152957209724 283.86687896867176,414.4692769079498 Z" fill="url(#leaf3)" opacity="0.28" transform="rotate(57.3 283.9 459.0)"/>
    <path d="M 788.449848303568,378.52687624434014 C 845.8085162891872,426.32576623235605 864.9280722843936,493.2442122155784 788.449848303568,569.7224361964038 C 711.9716243227425,493.2442122155784 731.0911803179489,426.32576623235605 788.449848303568,378.52687624434014 Z" fill="url(#leaf4)" opacity="0.29" transform="rotate(108.6 788.4 474.1)"/>
    <path d="M 1671.1517382886764,523.6560098059739 C 1705.4611267157406,552.2471668285274 1716.897589524762,592.2747866601022 1671.1517382886764,638.0206378961878 C 1625.4058870525907,592.2747866601022 1636.842349861612,552.2471668285274 1671.1517382886764,523.6560098059739 Z" fill="url(#leaf5)" opacity="0.37" transform="rotate(249.2 1671.2 580.8)"/>
    <path d="M 356.857460970114,871.9855734892504 C 401.69196973900284,909.3476641299911 416.6368059952991,961.6545910270281 356.857460970114,1021.4339360522132 C 297.0781159449289,961.6545910270281 312.02295220122517,909.3476641299911 356.857460970114,871.9855734892504 Z" fill="url(#leaf6)" opacity="0.30" transform="rotate(199.3 356.9 946.7)"/>
    <path d="M 253.6214492041425,375.7647313185738 C 298.14740630606445,412.86969557017545 312.9893920067051,464.81664552241773 253.6214492041425,524.1845883249804 C 194.2535064015799,464.81664552241773 209.09549210222053,412.86969557017545 253.6214492041425,375.7647313185738 Z" fill="url(#leaf7)" opacity="0.34" transform="rotate(1.7 253.6 450.0)"/>
    <path d="M 361.061121585881,25.556609174473977 C 386.31741199381105,46.60351784774901 394.736175463121,76.06918999033405 361.061121585881,109.74424386757411 C 327.38606770864095,76.06918999033405 335.8048311779509,46.60351784774901 361.061121585881,25.556609174473977 Z" fill="url(#leaf8)" opacity="0.28" transform="rotate(51.8 361.1 67.7)"/>
    <path d="M 1138.5744519098744,306.44602412540013 C 1186.4510931993625,346.34322519997346 1202.4099736291917,402.19930670437617 1138.5744519098744,466.03482842369357 C 1074.738930190557,402.19930670437617 1090.6978106203862,346.34322519997346 1138.5744519098744,306.44602412540013 Z" fill="url(#leaf9)" opacity="0.33" transform="rotate(318.7 1138.6 386.2)"/>
    <path d="M 589.2553146508766,63.25137321856444 C 635.8096700194891,102.04666935907488 651.3277884756933,156.3600839557895 589.2553146508766,218.4325577806062 C 527.1828408260599,156.3600839557895 542.7009592822641,102.04666935907488 589.2553146508766,63.25137321856444 Z" fill="url(#leaf10)" opacity="0.24" transform="rotate(247.9 589.3 140.8)"/>
    <path d="M 412.0124878744077,711.7447717413622 C 462.9771555048224,754.2153281000411 479.965378048294,813.6741070021916 412.0124878744077,881.6269971760778 C 344.05959770052146,813.6741070021916 361.04782024399304,754.2153281000411 412.0124878744077,711.7447717413622 Z" fill="url(#leaf11)" opacity="0.22" transform="rotate(110.2 412.0 796.7)"/>
    <path d="M 761.184193444783,-10.534132065653772 C 798.5199472461175,20.578996102125004 810.965198513229,64.13737553701529 761.184193444783,113.91838060546132 C 711.403188376337,64.13737553701529 723.8484396434485,20.578996102125004 761.184193444783,-10.534132065653772 Z" fill="url(#leaf12)" opacity="0.32" transform="rotate(46.2 761.2 51.7)"/>
    <path d="M 1401.5672478822544,364.04489653020244 C 1450.2379503995708,404.6038152946328 1466.461517905343,461.3863015648353 1401.5672478822544,526.2805715879239 C 1336.6729778591657,461.3863015648353 1352.896545364938,404.6038152946328 1401.5672478822544,364.04489653020244 Z" fill="url(#leaf13)" opacity="0.24" transform="rotate(77.4 1401.6 445.2)"/>
    <path d="M 1765.541951984771,598.3456161056364 C 1814.1117327116003,638.820433377994 1830.3016596205432,695.4851775592948 1765.541951984771,760.244885195067 C 1700.7822443489988,695.4851775592948 1716.9721712579417,638.820433377994 1765.541951984771,598.3456161056364 Z" fill="url(#leaf14)" opacity="0.39" transform="rotate(63.5 1765.5 679.3)"/>
    <path d="M 866.4094807950758,711.9783969465922 C 900.6865272424632,740.542602319415 912.1122093915923,780.5324898413669 866.4094807950758,826.2352184378834 C 820.7067521985592,780.5324898413669 832.1324343476883,740.542602319415 866.4094807950758,711.9783969465922 Z" fill="url(#leaf15)" opacity="0.28" transform="rotate(251.9 866.4 769.1)"/>
    <path d="M 273.9242079131464,912.7475790905078 C 321.8935795652684,952.722055467276 337.88337011597577,1008.6863223947518 273.9242079131464,1072.6454845975811 C 209.96504571031704,1008.6863223947518 225.95483626102438,952.722055467276 273.9242079131464,912.7475790905078 Z" fill="url(#leaf16)" opacity="0.24" transform="rotate(143.7 273.9 992.7)"/>
    <path d="M 1137.5713728758142,681.3941269913673 C 1168.594716412343,707.2469132718079 1178.9358309245192,743.4408140644247 1137.5713728758142,784.8052721131296 C 1096.2069148271091,743.4408140644247 1106.5480293392854,707.2469132718079 1137.5713728758142,681.3941269913673 Z" fill="url(#leaf17)" opacity="0.35" transform="rotate(289.7 1137.6 733.1)"/>
    <path d="M 1868.4855014494656,763.4050483750467 C 1895.4293887327815,785.85828777781 1904.410684493887,817.2928229416787 1868.4855014494656,853.2180059860999 C 1832.5603184050442,817.2928229416787 1841.5416141661497,785.85828777781 1868.4855014494656,763.4050483750467 Z" fill="url(#leaf18)" opacity="0.37" transform="rotate(203.6 1868.5 808.3)"/>
    <path d="M 983.250658099675,352.87463766797816 C 1012.9474908760607,377.6219983149663 1022.8464351348559,412.26830322074966 983.250658099675,451.8640802559306 C 943.654881064494,412.26830322074966 953.5538253232893,377.6219983149663 983.250658099675,352.87463766797816 Z" fill="url(#leaf19)" opacity="0.22" transform="rotate(34.3 983.3 402.4)"/>
    <path d="M 873.4374313986108,8.691340044754554 C 909.6088895754137,38.834221858757004 921.6660423010147,81.03425639836044 873.4374313986108,129.26286730076436 C 825.2088204962068,81.03425639836044 837.2659732218078,38.834221858757004 873.4374313986108,8.691340044754554 Z" fill="url(#leaf0)" opacity="0.28" transform="rotate(226.7 873.4 69.0)"/>
    <path d="M 1736.4960830923449,575.9869053557525 C 1764.5859010340441,599.3950869738352 1773.9491736812772,632.166541239151 1736.4960830923449,669.6196318280834 C 1699.0429925034125,632.166541239151 1708.4062651506456,599.3950869738352 1736.4960830923449,575.9869053557525 Z" fill="url(#leaf1)" opacity="0.37" transform="rotate(155.4 1736.5 622.8)"/>
    <path d="M 987.7038483174515,-7.888091834275841 C 1028.110978671582,25.784516794166137 1041.5800221229588,72.9261688739849 987.7038483174515,126.80234267949207 C 933.8276745119443,72.9261688739849 947.2967179633212,25.784516794166137 987.7038483174515,-7.888091834275841 Z" fill="url(#leaf2)" opacity="0.35" transform="rotate(286.7 987.7 59.5)"/>
    <path d="M 1803.0981191210572,195.57046993270382 C 1844.927132471438,230.42798105802112 1858.8701369215648,279.22849663346534 1803.0981191210572,335.000514433973 C 1747.3261013205495,279.22849663346534 1761.2691057706763,230.42798105802112 1803.0981191210572,195.57046993270382 Z" fill="url(#leaf3)" opacity="0.35" transform="rotate(262.4 1803.1 265.3)"/>
    <path d="M 783.7660416872948,446.4507572642118 C 836.410941294173,490.32150693661026 853.9592411631323,551.7405564779681 783.7660416872948,621.9337559538056 C 713.5728422114572,551.7405564779681 731.1211420804166,490.32150693661026 783.7660416872948,446.4507572642118 Z" fill="url(#leaf4)" opacity="0.23" transform="rotate(131.3 783.8 534.2)"/>
    <path d="M 961.4753083714999,724.1970300165269 C 999.3397083822457,755.7506966921484 1011.9611750524944,799.9258300380186 961.4753083714999,850.411696719013 C 910.9894416905054,799.9258300380186 923.610908360754,755.7506966921484 961.4753083714999,724.1970300165269 Z" fill="url(#leaf5)" opacity="0.23" transform="rotate(309.4 961.5 787.3)"/>
    <path d="M 722.9040157913525,197.00246346964093 C 773.6298879708816,239.2740236192484 790.5385120307245,298.4542078286988 722.9040157913525,366.0887040680708 C 655.2695195519806,298.4542078286988 672.1781436118235,239.2740236192484 722.9040157913525,197.00246346964093 Z" fill="url(#leaf6)" opacity="0.28" transform="rotate(233.7 722.9 281.5)"/>
    <path d="M 555.2123720629365,232.23355699469928 C 611.7282383559736,279.3301122388969 630.5668604536528,345.2652895807736 555.2123720629365,420.61977797148984 C 479.85788367222034,345.2652895807736 498.6965057698994,279.3301122388969 555.2123720629365,232.23355699469928 Z" fill="url(#leaf7)" opacity="0.27" transform="rotate(326.3 555.2 326.4)"/>
    <path d="M 1267.8945566307755,872.5174947605036 C 1319.4812023830389,915.506366220723 1336.6767509671265,975.6907862650302 1267.8945566307755,1044.4729806013813 C 1199.1123622944244,975.6907862650302 1216.307910878512,915.506366220723 1267.8945566307755,872.5174947605036 Z" fill="url(#leaf8)" opacity="0.28" transform="rotate(50.5 1267.9 958.5)"/>
    <path d="M 263.1627401495436,862.3239828182507 C 304.59230091669286,896.848616790875 318.40215450574266,945.1831043525492 263.1627401495436,1000.4225187087482 C 207.92332579334456,945.1831043525492 221.73317938239433,896.848616790875 263.1627401495436,862.3239828182507 Z" fill="url(#leaf9)" opacity="0.31" transform="rotate(10.0 263.2 931.4)"/>
    <path d="M 1790.943686373716,950.2258719398377 C 1834.1835618827965,986.2591015307381 1848.5968537191566,1036.7056229579987 1790.943686373716,1094.3587903034395 C 1733.2905190282754,1036.7056229579987 1747.7038108646354,986.2591015307381 1790.943686373716,950.2258719398377 Z" fill="url(#leaf10)" opacity="0.24" transform="rotate(271.0 1790.9 1022.3)"/>
    <path d="M 1313.168934267076,742.8067731871361 C 1371.4305286892125,791.3581018722497 1390.851060163258,859.3299620314087 1313.168934267076,937.0120879275905 C 1235.4868083708943,859.3299620314087 1254.9073398449398,791.3581018722497 1313.168934267076,742.8067731871361 Z" fill="url(#leaf11)" opacity="0.23" transform="rotate(308.6 1313.2 839.9)"/>
    <path d="M 1561.4531212807485,180.37637468212398 C 1585.886979062028,200.73792283319028 1594.0315983224546,229.2440902446831 1561.4531212807485,261.8225672863892 C 1528.8746442390425,229.2440902446831 1537.019263499469,200.73792283319028 1561.4531212807485,180.37637468212398 Z" fill="url(#leaf12)" opacity="0.20" transform="rotate(268.7 1561.5 221.1)"/>
    <path d="M 800.4394809261067,445.3869521512028 C 836.607583933202,475.5270379904489 848.6636182689006,517.7231581653934 800.4394809261067,565.9472955081873 C 752.2153435833129,517.7231581653934 764.2713779190115,475.5270379904489 800.4394809261067,445.3869521512028 Z" fill="url(#leaf13)" opacity="0.30" transform="rotate(350.9 800.4 505.7)"/>
    <path d="M 735.1899574514653,803.9692213070892 C 777.8221206148365,839.496023943232 792.0328416692937,889.2335476338318 735.1899574514653,946.0764318516602 C 678.3470732336368,889.2335476338318 692.557794288094,839.496023943232 735.1899574514653,803.9692213070892 Z" fill="url(#leaf14)" opacity="0.33" transform="rotate(353.5 735.2 875.0)"/>
    <path d="M 341.33325313683594,844.4447607561444 C 368.63796112407556,867.198684078844 377.73953045315545,899.0541767306237 341.33325313683594,935.4604540469431 C 304.9269758205164,899.0541767306237 314.0285451495963,867.198684078844 341.33325313683594,844.4447607561444 Z" fill="url(#leaf15)" opacity="0.21" transform="rotate(144.2 341.3 890.0)"/>
    <path d="M 758.1886279190094,31.443028166840676 C 794.1161722437969,61.38264843749695 806.0920203520594,103.29811681641573 758.1886279190094,151.20150924946574 C 710.2852354859593,103.29811681641573 722.2610835942219,61.38264843749695 758.1886279190094,31.443028166840676 Z" fill="url(#leaf16)" opacity="0.33" transform="rotate(296.5 758.2 91.3)"/>
    <path d="M 545.95020159604,945.1531340397922 C 594.3995905080503,985.5276247998008 610.5493868120539,1042.051911863813 545.95020159604,1106.6510970798267 C 481.3510163800261,1042.051911863813 497.5008126840296,985.5276247998008 545.95020159604,945.1531340397922 Z" fill="url(#leaf17)" opacity="0.34" transform="rotate(312.5 546.0 1025.9)"/>
    <path d="M 927.8435067322624,417.04013881452084 C 964.9168316474847,447.9345762438728 977.2746066192256,491.1867886449655 927.8435067322624,540.6178885319287 C 878.4124068452993,491.1867886449655 890.7701818170401,447.9345762438728 927.8435067322624,417.04013881452084 Z" fill="url(#leaf18)" opacity="0.39" transform="rotate(307.2 927.8 478.8)"/>
    <path d="M 274.6165878427508,440.1523912918998 C 312.02140368139356,471.32307115743544 324.4896756276078,514.9620229691853 274.6165878427508,564.8351107540424 C 224.74350005789375,514.9620229691853 237.211772004108,471.32307115743544 274.6165878427508,440.1523912918998 Z" fill="url(#leaf19)" opacity="0.31" transform="rotate(17.1 274.6 502.5)"/>
    <path d="M 754.7671225708717,571.6844512475777 C 804.6162780414325,613.2254141397117 821.2326631982861,671.3827621886992 754.7671225708717,737.8483028161136 C 688.3015819434573,671.3827621886992 704.917967100311,613.2254141397117 754.7671225708717,571.6844512475777 Z" fill="url(#leaf0)" opacity="0.25" transform="rotate(96.8 754.8 654.8)"/>
    <path d="M 1246.855835578914,781.4697751063871 C 1272.7047225475458,803.0105142469137 1281.3210182037562,833.1675490436508 1246.855835578914,867.6327316684932 C 1212.3906529540716,833.1675490436508 1221.006948610282,803.0105142469137 1246.855835578914,781.4697751063871 Z" fill="url(#leaf1)" opacity="0.33" transform="rotate(266.9 1246.9 824.6)"/>
    <path d="M 321.5025554410978,104.39201710438448 C 374.75136050418155,148.76602132362095 392.50096219187617,210.889627230552 321.5025554410978,281.88803398133035 C 250.50414869031943,210.889627230552 268.25375037801405,148.76602132362095 321.5025554410978,104.39201710438448 Z" fill="url(#leaf2)" opacity="0.31" transform="rotate(13.5 321.5 193.1)"/>
    <path d="M 1193.3935402793645,553.5300204888454 C 1223.540705516134,578.6526581861533 1233.5897605950572,613.8243509623844 1193.3935402793645,654.0205712780771 C 1153.1973199636718,613.8243509623844 1163.246375042595,578.6526581861533 1193.3935402793645,553.5300204888454 Z" fill="url(#leaf3)" opacity="0.33" transform="rotate(124.7 1193.4 603.8)"/>
    <path d="M 330.76448213888176,61.08197891142213 C 360.47361378321887,85.8395886150364 370.3766576646646,120.50024220009638 330.76448213888176,160.1124177258792 C 291.1523066130989,120.50024220009638 301.05535049454465,85.8395886150364 330.76448213888176,61.08197891142213 Z" fill="url(#leaf4)" opacity="0.24" transform="rotate(30.4 330.8 110.6)"/>
    <path d="M 199.6235156350554,752.0453055928192 C 234.7566249607853,781.3228966975942 246.46766140269526,822.311524244279 199.6235156350554,869.1556700119188 C 152.77936986741557,822.311524244279 164.49040630932552,781.3228966975942 199.6235156350554,752.0453055928192 Z" fill="url(#leaf5)" opacity="0.28" transform="rotate(227.4 199.6 810.6)"/>
    <path d="M 1764.7468905384167,13.573632764793402 C 1803.591099644613,45.943807019956964 1816.5391693466784,91.26205097718595 1764.7468905384167,143.05432978544764 C 1712.954611730155,91.26205097718595 1725.9026814322203,45.943807019956964 1764.7468905384167,13.573632764793402 Z" fill="url(#leaf6)" opacity="0.21" transform="rotate(80.7 1764.7 78.3)"/>
    <path d="M 1007.4984883075026,321.4803948956967 C 1048.3051320753566,355.4859313689083 1061.9073466646414,403.09368243140466 1007.4984883075026,457.50254078854334 C 953.0896299503639,403.09368243140466 966.6918445396486,355.4859313689083 1007.4984883075026,321.4803948956967 Z" fill="url(#leaf7)" opacity="0.22" transform="rotate(134.9 1007.5 389.5)"/>
    <path d="M 644.9529232112576,591.8097528162581 C 697.639867955362,635.7155401030118 715.2021828700634,697.1836423044668 644.9529232112576,767.4329019632727 C 574.7036635524518,697.1836423044668 592.2659784671532,635.7155401030118 644.9529232112576,591.8097528162581 Z" fill="url(#leaf8)" opacity="0.37" transform="rotate(260.0 645.0 679.6)"/>
    <path d="M 1030.1207299232594,680.7551529670158 C 1088.870963691902,729.7136811075512 1108.4543749481163,798.255620504301 1030.1207299232594,876.5892655291578 C 951.7870848984026,798.255620504301 971.3704961546168,729.7136811075512 1030.1207299232594,680.7551529670158 Z" fill="url(#leaf9)" opacity="0.20" transform="rotate(341.2 1030.1 778.7)"/>
    <path d="M 1078.8871476676154,688.2554793594109 C 1138.4626737705053,737.9017511118191 1158.3211824714685,807.4065315651907 1078.8871476676154,886.8405663690439 C 999.4531128637622,807.4065315651907 1019.3116215647254,737.9017511118191 1078.8871476676154,688.2554793594109 Z" fill="url(#leaf10)" opacity="0.33" transform="rotate(62.0 1078.9 787.5)"/>
    <path d="M 1402.6112014452003,176.55480120072377 C 1441.5400576181669,208.995514678196 1454.516343009156,254.4125135466571 1402.6112014452003,306.31765511061263 C 1350.7060598812448,254.4125135466571 1363.6823452722338,208.995514678196 1402.6112014452003,176.55480120072377 Z" fill="url(#leaf11)" opacity="0.35" transform="rotate(3.6 1402.6 241.4)"/>
    <path d="M 1493.6316485725883,81.54969354666548 C 1543.4859779465137,123.09496802493655 1560.104087737822,181.25835229451604 1493.6316485725883,247.73079145974975 C 1427.1592094073546,181.25835229451604 1443.777319198663,123.09496802493655 1493.6316485725883,81.54969354666548 Z" fill="url(#leaf12)" opacity="0.36" transform="rotate(71.4 1493.6 164.6)"/>
    <path d="M 314.5888985540719,188.17578397617058 C 338.8391747893884,208.384347505601 346.92260020116055,236.67633644680356 314.5888985540719,269.0100380938922 C 282.2551969069832,236.67633644680356 290.33862231875537,208.384347505601 314.5888985540719,188.17578397617058 Z" fill="url(#leaf13)" opacity="0.31" transform="rotate(220.2 314.6 228.6)"/>
    <path d="M 1094.1556147102003,57.651171539090996 C 1152.194445043782,106.01686348374238 1171.5407218216426,173.72883220625434 1094.1556147102003,251.11393931769655 C 1016.7705075987581,173.72883220625434 1036.1167843766186,106.01686348374238 1094.1556147102003,57.651171539090996 Z" fill="url(#leaf14)" opacity="0.33" transform="rotate(265.7 1094.2 154.4)"/>
    <path d="M 1175.2805328417276,878.8816659144909 C 1224.4141474587752,919.8263447620307 1240.792018997791,977.1488951485863 1175.2805328417276,1042.66038130465 C 1109.769046685664,977.1488951485863 1126.14691822468,919.8263447620307 1175.2805328417276,878.8816659144909 Z" fill="url(#leaf15)" opacity="0.36" transform="rotate(155.1 1175.3 960.8)"/>
    <path d="M 390.06579610815425,529.6811124889756 C 422.735305127071,556.905703338073 433.6251414667099,595.0201305268091 390.06579610815425,638.5794758853648 C 346.50645074959857,595.0201305268091 357.3962870892375,556.905703338073 390.06579610815425,529.6811124889756 Z" fill="url(#leaf16)" opacity="0.24" transform="rotate(232.6 390.1 584.1)"/>
    <path d="M 146.50467001656267,336.29440114007764 C 183.43232107661942,367.06744369012495 195.74153809663835,410.1497032601912 146.50467001656267,459.38657134026687 C 97.26780193648699,410.1497032601912 109.57701895650591,367.06744369012495 146.50467001656267,336.29440114007764 Z" fill="url(#leaf17)" opacity="0.27" transform="rotate(283.4 146.5 397.8)"/>
    <path d="M 276.9839925617026,167.6897668351615 C 305.90393880843897,191.78972204077513 315.5439208906845,225.52965932863424 276.9839925617026,264.08958765761605 C 238.42406423272078,225.52965932863424 248.06404631496625,191.78972204077513 276.9839925617026,167.6897668351615 Z" fill="url(#leaf18)" opacity="0.29" transform="rotate(131.6 277.0 215.9)"/>
    <path d="M 958.4985582793139,475.9134213839011 C 1005.49268382021,515.0751926679811 1021.1573923338419,569.9016724656932 958.4985582793139,632.5605065202212 C 895.8397242247859,569.9016724656932 911.5044327384178,515.0751926679811 958.4985582793139,475.9134213839011 Z" fill="url(#leaf19)" opacity="0.21" transform="rotate(123.0 958.5 554.2)"/>
    <path d="M 1603.998605263088,403.69968056922903 C 1645.7951229065338,438.5301119387673 1659.7272954543491,487.2927158561209 1603.998605263088,543.0214060473821 C 1548.2699150718267,487.2927158561209 1562.202087619642,438.5301119387673 1603.998605263088,403.69968056922903 Z" fill="url(#leaf0)" opacity="0.24" transform="rotate(281.9 1604.0 473.4)"/>
    <path d="M 1651.0732050460722,561.3009981549728 C 1682.6613948762965,587.6244896801597 1693.1907914863714,624.4773778154214 1651.0732050460722,666.5949642557205 C 1608.955618605773,624.4773778154214 1619.4850152158479,587.6244896801597 1651.0732050460722,561.3009981549728 Z" fill="url(#leaf1)" opacity="0.36" transform="rotate(9.6 1651.1 613.9)"/>
    <path d="M 660.781375933437,191.79446424166568 C 689.324558326317,215.5804495690657 698.8389524572771,248.8808290274258 660.781375933437,286.9384055512659 C 622.7237994095968,248.8808290274258 632.238193540557,215.5804495690657 660.781375933437,191.79446424166568 Z" fill="url(#leaf2)" opacity="0.22" transform="rotate(220.5 660.8 239.4)"/>
    <path d="M 234.5787632715594,676.0057642530614 C 280.0334841003613,713.8846982770631 295.18505770996194,766.9152059106652 234.5787632715594,827.5215003490678 C 173.9724688331569,766.9152059106652 189.12404244275754,713.8846982770631 234.5787632715594,676.0057642530614 Z" fill="url(#leaf3)" opacity="0.36" transform="rotate(68.6 234.6 751.8)"/>
    <path d="M 1091.4158337517047,757.1986545655736 C 1115.6249035061983,777.3728793609849 1123.6945934243627,805.6167940745607 1091.4158337517047,837.8955537472189 C 1059.1370740790467,805.6167940745607 1067.206763997211,777.3728793609849 1091.4158337517047,757.1986545655736 Z" fill="url(#leaf4)" opacity="0.31" transform="rotate(276.5 1091.4 797.5)"/>
    <path d="M 655.5244336245456,278.15469445179224 C 681.4386287378995,299.7498570462539 690.0766937756842,329.9830846785002 655.5244336245456,364.5353448296388 C 620.972173473407,329.9830846785002 629.6102385111917,299.7498570462539 655.5244336245456,278.15469445179224 Z" fill="url(#leaf5)" opacity="0.25" transform="rotate(122.7 655.5 321.3)"/>
    <path d="M 870.9602939965084,135.48855137655218 C 901.097209139628,160.6026473291518 911.1428475206678,195.7623816627913 870.9602939965084,235.94493518695074 C 830.777740472349,195.7623816627913 840.8233788533888,160.6026473291518 870.9602939965084,135.48855137655218 Z" fill="url(#leaf6)" opacity="0.32" transform="rotate(274.1 871.0 185.7)"/>
    <path d="M 801.9173974884213,450.9528080591231 C 857.7658395269792,497.493176424588 876.3819868731653,562.6496921362389 801.9173974884213,637.1142815209828 C 727.4528081036774,562.6496921362389 746.0689554498634,497.493176424588 801.9173974884213,450.9528080591231 Z" fill="url(#leaf7)" opacity="0.29" transform="rotate(94.2 801.9 544.0)"/>
    <path d="M 1034.9482755291265,128.89598750257338 C 1063.0020545849297,152.27413671574286 1072.3533142701976,185.0035456141801 1034.9482755291265,222.40858435525124 C 997.5432367880553,185.0035456141801 1006.8944964733231,152.27413671574286 1034.9482755291265,128.89598750257338 Z" fill="url(#leaf8)" opacity="0.22" transform="rotate(325.8 1034.9 175.7)"/>
    <path d="M 1684.100084363433,122.50595222411617 C 1719.641197055823,152.1235461344411 1731.4882346199531,193.58817760889605 1684.100084363433,240.97632786541595 C 1636.711934106913,193.58817760889605 1648.558971671043,152.1235461344411 1684.100084363433,122.50595222411617 Z" fill="url(#leaf9)" opacity="0.22" transform="rotate(289.6 1684.1 181.7)"/>
    <path d="M 1757.082304752749,151.18251361465138 C 1810.2306532282303,195.47280401088568 1827.9467693867239,257.4792105656137 1757.082304752749,328.3436751995886 C 1686.2178401187741,257.4792105656137 1703.9339562772677,195.47280401088568 1757.082304752749,151.18251361465138 Z" fill="url(#leaf10)" opacity="0.22" transform="rotate(15.4 1757.1 239.8)"/>
    <path d="M 173.36700285667607,825.3644662609378 C 199.000582593245,846.7257827080786 207.54510917210132,876.6316257340757 173.36700285667607,910.8097320495009 C 139.1888965412508,876.6316257340757 147.73342312010712,846.7257827080786 173.36700285667607,825.3644662609378 Z" fill="url(#leaf11)" opacity="0.26" transform="rotate(72.9 173.4 868.1)"/>
    <path d="M 1648.7005351435375,564.7191507758989 C 1673.5679464679301,585.4419935462261 1681.857083576061,614.4539734246841 1648.7005351435375,647.6105218572077 C 1615.543986711014,614.4539734246841 1623.833123819145,585.4419935462261 1648.7005351435375,564.7191507758989 Z" fill="url(#leaf12)" opacity="0.32" transform="rotate(264.4 1648.7 606.2)"/>
    <path d="M 336.45602110411295,463.61124888363383 C 362.7530790613681,485.52546384801315 371.51876504711987,516.2053647981442 336.45602110411295,551.2681087411511 C 301.393277161106,516.2053647981442 310.1589631468578,485.52546384801315 336.45602110411295,463.61124888363383 Z" fill="url(#leaf13)" opacity="0.33" transform="rotate(81.2 336.5 507.4)"/>
    <path d="M 390.1269558357535,180.03661160916522 C 447.44284163723853,227.79984977706943 466.5481369044003,294.6683832121353 390.1269558357535,371.08956428078204 C 313.70577476710673,294.6683832121353 332.8110700342685,227.79984977706943 390.1269558357535,180.03661160916522 Z" fill="url(#leaf14)" opacity="0.24" transform="rotate(321.4 390.1 275.6)"/>
    <path d="M 1013.4058261150911,77.93147502863734 C 1052.8684390232042,110.81698578539834 1066.0226433259088,156.85670084486372 1013.4058261150911,209.47351805568132 C 960.7890089042735,156.85670084486372 973.9432132069779,110.81698578539834 1013.4058261150911,77.93147502863734 Z" fill="url(#leaf15)" opacity="0.32" transform="rotate(338.7 1013.4 143.7)"/>
    <path d="M 1381.7787358496616,90.23424352571767 C 1416.0626540975577,118.80417539896447 1427.4906268468565,158.80208002151002 1381.7787358496616,204.51397101870492 C 1336.0668448524668,158.80208002151002 1347.4948176017656,118.80417539896447 1381.7787358496616,90.23424352571767 Z" fill="url(#leaf16)" opacity="0.24" transform="rotate(26.5 1381.8 147.4)"/>
    <path d="M 1579.936072019495,808.488105646897 C 1614.5207202567055,837.3086458445723 1626.0489363357756,877.6574021213179 1579.936072019495,923.7702664375985 C 1533.8232077032144,877.6574021213179 1545.3514237822844,837.3086458445723 1579.936072019495,808.488105646897 Z" fill="url(#leaf17)" opacity="0.31" transform="rotate(334.4 1579.9 866.1)"/>
    <path d="M 186.50224706154754,102.73362463436686 C 220.11752760500312,130.74635842057984 231.32262111948833,169.96418572127803 186.50224706154754,214.78455977921882 C 141.68187300360674,169.96418572127803 152.88696651809195,130.74635842057984 186.50224706154754,102.73362463436686 Z" fill="url(#leaf18)" opacity="0.39" transform="rotate(70.2 186.5 158.8)"/>
    <path d="M 201.83937334093324,554.3845421861379 C 252.1422635413996,596.3036173531931 268.9098936082217,654.9903225870705 201.83937334093324,722.060842854359 C 134.76885307364478,654.9903225870705 151.53648314046688,596.3036173531931 201.83937334093324,554.3845421861379 Z" fill="url(#leaf19)" opacity="0.23" transform="rotate(219.8 201.8 638.2)"/>
    <path d="M 1180.9107997015776,776.2751336309395 C 1223.3740178995574,811.6611487959226 1237.5284239655507,861.201570026899 1180.9107997015776,917.819194290872 C 1124.2931754376045,861.201570026899 1138.4475815035978,811.6611487959226 1180.9107997015776,776.2751336309395 Z" fill="url(#leaf0)" opacity="0.26" transform="rotate(271.1 1180.9 847.0)"/>
    <path d="M 50.06347102913972,613.9718305699338 C 98.73876724258616,654.5345774144726 114.96386598040165,711.3224229968267 50.06347102913972,776.2228179480886 C -14.83692392212221,711.3224229968267 1.3881748156932687,654.5345774144726 50.06347102913972,613.9718305699338 Z" fill="url(#leaf1)" opacity="0.36" transform="rotate(330.8 50.1 695.1)"/>
    <path d="M 1209.248409306905,101.40027710274899 C 1266.943880685876,149.47983658522472 1286.175704478866,216.79121986069075 1209.248409306905,293.7185150326519 C 1132.3211141349439,216.79121986069075 1151.552937927934,149.47983658522472 1209.248409306905,101.40027710274899 Z" fill="url(#leaf2)" opacity="0.34" transform="rotate(52.2 1209.2 197.6)"/>
    <path d="M 246.3330993439559,229.2668109511242 C 295.00461130377283,269.8264042509717 311.22844862371187,326.6098348707581 246.3330993439559,391.5051841505141 C 181.43775006419995,326.6098348707581 197.66158738413895,269.8264042509717 246.3330993439559,229.2668109511242 Z" fill="url(#leaf3)" opacity="0.26" transform="rotate(144.8 246.3 310.4)"/>
    <path d="M 1792.8200059519213,142.919734856245 C 1823.4042646149558,168.4066170754404 1833.599017502634,204.08825218231402 1792.8200059519213,244.86726373302673 C 1752.0409944012085,204.08825218231402 1762.2357472888868,168.4066170754404 1792.8200059519213,142.919734856245 Z" fill="url(#leaf4)" opacity="0.29" transform="rotate(309.7 1792.8 193.9)"/>
    <path d="M 1842.493875490979,871.7886721964749 C 1892.8437367798642,913.7468899372127 1909.6270238761595,972.4883947742455 1842.493875490979,1039.621543159426 C 1775.3607271057986,972.4883947742455 1792.1440142020938,913.7468899372127 1842.493875490979,871.7886721964749 Z" fill="url(#leaf5)" opacity="0.39" transform="rotate(109.0 1842.5 955.7)"/>
    <path d="M 562.958772565415,713.7270422376346 C 622.0595394341434,762.9776812949083 641.7597950570529,831.9285759750915 562.958772565415,910.7295984667294 C 484.15775007377704,831.9285759750915 503.8580056966865,762.9776812949083 562.958772565415,713.7270422376346 Z" fill="url(#leaf6)" opacity="0.23" transform="rotate(102.6 563.0 812.2)"/>
    <path d="M 942.01727220105,294.0367657423916 C 996.9470458599376,339.8115771247979 1015.2569704129002,403.8963130601668 942.01727220105,477.13601127201696 C 868.7775739891998,403.8963130601668 887.0874985421624,339.8115771247979 942.01727220105,294.0367657423916 Z" fill="url(#leaf7)" opacity="0.25" transform="rotate(211.4 942.0 385.6)"/>
    <path d="M 1727.8313098679746,878.4927783861928 C 1757.7951662208645,903.4626586802676 1767.7831183384944,938.4204910919726 1727.8313098679746,978.3722995624925 C 1687.8795013974548,938.4204910919726 1697.8674535150847,903.4626586802676 1727.8313098679746,878.4927783861928 Z" fill="url(#leaf8)" opacity="0.39" transform="rotate(55.0 1727.8 928.4)"/>
    <path d="M 1583.5098543156653,346.89174231567915 C 1635.7639950468235,390.43685959164446 1653.1820419572098,451.4000237779959 1583.5098543156653,521.0722114195404 C 1513.8376666741208,451.4000237779959 1531.255713584507,390.43685959164446 1583.5098543156653,346.89174231567915 Z" fill="url(#leaf9)" opacity="0.31" transform="rotate(22.0 1583.5 434.0)"/>
    <path d="M 151.72069119320963,223.73820224135278 C 208.55075809692875,271.09659132778535 227.49411373150178,337.398336048791 151.72069119320963,413.17175858708316 C 75.94726865491747,337.398336048791 94.89062428949052,271.09659132778535 151.72069119320963,223.73820224135278 Z" fill="url(#leaf10)" opacity="0.34" transform="rotate(20.9 151.7 318.5)"/>
    <path d="M 136.2596453479671,774.8075249117624 C 161.8399483353312,796.124444067899 170.36671599778592,825.9681308864906 136.2596453479671,860.0752015363094 C 102.1525746981483,825.9681308864906 110.67934236060302,796.124444067899 136.2596453479671,774.8075249117624 Z" fill="url(#leaf11)" opacity="0.29" transform="rotate(345.9 136.3 817.4)"/>
    <path d="M 677.0829197224892,784.0753735020268 C 703.4840241375432,806.076293847905 712.2843922758946,836.8775823321348 677.0829197224892,872.0790548855401 C 641.8814471690839,836.8775823321348 650.6818153074353,806.076293847905 677.0829197224892,784.0753735020268 Z" fill="url(#leaf12)" opacity="0.37" transform="rotate(196.0 677.1 828.1)"/>
    <path d="M 1564.1185494908343,492.9525758717174 C 1603.899535091606,526.1033972056937 1617.1598636251963,572.5145470732605 1564.1185494908343,625.5558612076226 C 1511.0772353564723,572.5145470732605 1524.3375638900627,526.1033972056937 1564.1185494908343,492.9525758717174 Z" fill="url(#leaf13)" opacity="0.25" transform="rotate(19.3 1564.1 559.3)"/>
    <path d="M 810.2938626132326,39.7246815459461 C 851.7222563165741,74.24834296539737 865.5317208843546,122.58146895262914 810.2938626132326,177.81932722375115 C 755.0560043421106,122.58146895262914 768.8654689098911,74.24834296539737 810.2938626132326,39.7246815459461 Z" fill="url(#leaf14)" opacity="0.37" transform="rotate(121.8 810.3 108.8)"/>
    <path d="M 703.0554094240624,216.3458864234824 C 756.2876176486491,260.7060599439713 774.0316870568446,322.8103028726557 703.0554094240624,393.7865805054379 C 632.0791317912802,322.8103028726557 649.8232011994758,260.7060599439713 703.0554094240624,216.3458864234824 Z" fill="url(#leaf15)" opacity="0.23" transform="rotate(308.0 703.1 305.1)"/>
    <path d="M 1016.9052486024502,190.0208598887462 C 1060.7905122272653,226.5919129094253 1075.4189334355367,277.791387138376 1016.9052486024502,336.3050719714626 C 958.3915637693636,277.791387138376 973.0199849776353,226.5919129094253 1016.9052486024502,190.0208598887462 Z" fill="url(#leaf16)" opacity="0.27" transform="rotate(214.2 1016.9 263.2)"/>
    <path d="M 97.33811076349139,539.0130768770172 C 140.46974211315097,574.9561030017335 154.84695256303752,625.2763395763363 97.33811076349139,682.7851813758824 C 39.82926896394526,625.2763395763363 54.206479413831794,574.9561030017335 97.33811076349139,539.0130768770172 Z" fill="url(#leaf17)" opacity="0.24" transform="rotate(200.9 97.3 610.9)"/>
    <path d="M 1676.472036591356,745.6150258450721 C 1701.212652820386,766.2322060359304 1709.4595248967294,795.0962583031321 1676.472036591356,828.0837466085054 C 1643.4845482859828,795.0962583031321 1651.7314203623262,766.2322060359304 1676.472036591356,745.6150258450721 Z" fill="url(#leaf18)" opacity="0.30" transform="rotate(31.8 1676.5 786.8)"/>
    <path d="M 863.8896867882335,522.8355343082627 C 891.8070827982042,546.1000309832383 901.1128814681945,578.6703263282042 863.8896867882335,615.8935210081651 C 826.6664921082725,578.6703263282042 835.9722907782627,546.1000309832383 863.8896867882335,522.8355343082627 Z" fill="url(#leaf19)" opacity="0.32" transform="rotate(167.1 863.9 569.4)"/>
    <path d="M 375.17437536472926,868.0534026563791 C 405.29082303485507,893.150442381484 415.329638924897,928.2862979966308 375.17437536472926,968.4415615567984 C 335.01911180456153,928.2862979966308 345.05792769460345,893.150442381484 375.17437536472926,868.0534026563791 Z" fill="url(#leaf0)" opacity="0.32" transform="rotate(174.0 375.2 918.2)"/>
    <path d="M 721.3432312593329,763.1919898242317 C 759.430889341345,794.9317048925751 772.1267753686825,839.3673059882559 721.3432312593329,890.1508500976055 C 670.5596871499833,839.3673059882559 683.2555731773208,794.9317048925751 721.3432312593329,763.1919898242317 Z" fill="url(#leaf1)" opacity="0.26" transform="rotate(154.6 721.3 826.7)"/>
    <path d="M 1471.1906882719968,122.02802879063285 C 1529.8156270970885,170.88214447820923 1549.357273372119,239.27790644081617 1471.1906882719968,317.4444915409384 C 1393.0241031718747,239.27790644081617 1412.565749446905,170.88214447820923 1471.1906882719968,122.02802879063285 Z" fill="url(#leaf2)" opacity="0.28" transform="rotate(172.3 1471.2 219.7)"/>
  </g>

  <!-- Central star shape -->
  <polygon points="960.0,294.9 1032.0,440.8 1193.1,464.2 1076.6,577.9 1104.1,738.3 960.0,662.6 815.9,738.3 843.4,577.9 726.9,464.2 888.0,440.8" 
           fill="#45B7D1" 
           transform="rotate(182.6 960.0 540.0)"/>
</svg>