<?xml version="1.0" encoding="UTF-8"?>
<svg xmlns="http://www.w3.org/2000/svg" viewBox="0 0 1920 1080" width="1920" height="1080">
  <defs>
    <linearGradient id="bgGrad" x1="0%" y1="0%" x2="100%" y2="100%">
      <stop offset="0%" stop-color="#45B7D1"/>
      <stop offset="100%" stop-color="#00FA9A"/>
    </linearGradient>
    <clipPath id="complexClip"><polygon points="1380.9,540.0 1334.1,584.7 1429.2,657.5 1419.8,727.9 1298.4,751.4 1228.7,801.8 1110.6,800.7 1013.9,828.4 912.3,795.4 786.2,841.0 690.1,803.0 597.6,766.4 525.2,717.7 492.6,657.1 510.2,593.8 446.9,540.0 410.6,474.3 579.7,444.8 510.5,356.3 699.2,377.1 705.6,292.2 793.0,251.0 922.7,340.5 1010.5,269.6 1108.5,282.9 1205.3,301.0 1274.9,343.3 1392.8,363.1 1336.6,445.7 1392.4,488.3"/></clipPath>
    <radialGradient id="leaf0" cx="50%" cy="50%" r="70%">
      <stop offset="0%" stop-color="#9370DB"/>
      <stop offset="50%" stop-color="#FFD700"/>
      <stop offset="100%" stop-color="#32CD32"/>
    </radialGradient>
    <radialGradient id="leaf1" cx="50%" cy="50%" r="70%">
      <stop offset="0%" stop-color="#FF69B4"/>
      <stop offset="50%" stop-color="#45B7D1"/>
      <stop offset="100%" stop-color="#FFE66D"/>
    </radialGradient>
    <radialGradient id="leaf2" cx="50%" cy="50%" r="70%">
      <stop offset="0%" stop-color="#9370DB"/>
      <stop offset="50%" stop-color="#FF69B4"/>
      <stop offset="100%" stop-color="#FF4500"/>
    </radialGradient>
    <radialGradient id="leaf3" cx="50%" cy="50%" r="70%">
      <stop offset="0%" stop-color="#45B7D1"/>
      <stop offset="50%" stop-color="#96E6A1"/>
      <stop offset="100%" stop-color="#32CD32"/>
    </radialGradient>
    <radialGradient id="leaf4" cx="50%" cy="50%" r="70%">
      <stop offset="0%" stop-color="#DC143C"/>
      <stop offset="50%" stop-color="#9370DB"/>
      <stop offset="100%" stop-color="#FF1493"/>
    </radialGradient>
    <radialGradient id="leaf5" cx="50%" cy="50%" r="70%">
      <stop offset="0%" stop-color="#FFD700"/>
      <stop offset="50%" stop-color="#45B7D1"/>
      <stop offset="100%" stop-color="#FF6B6B"/>
    </radialGradient>
    <radialGradient id="leaf6" cx="50%" cy="50%" r="70%">
      <stop offset="0%" stop-color="#32CD32"/>
      <stop offset="50%" stop-color="#FF1493"/>
      <stop offset="100%" stop-color="#00CED1"/>
    </radialGradient>
    <radialGradient id="leaf7" cx="50%" cy="50%" r="70%">
      <stop offset="0%" stop-color="#45B7D1"/>
      <stop offset="50%" stop-color="#7B68EE"/>
      <stop offset="100%" stop-color="#FF69B4"/>
    </radialGradient>
    <radialGradient id="leaf8" cx="50%" cy="50%" r="70%">
      <stop offset="0%" stop-color="#FF69B4"/>
      <stop offset="50%" stop-color="#96E6A1"/>
      <stop offset="100%" stop-color="#FF6B6B"/>
    </radialGradient>
    <radialGradient id="leaf9" cx="50%" cy="50%" r="70%">
      <stop offset="0%" stop-color="#00FA9A"/>
      <stop offset="50%" stop-color="#FFE66D"/>
      <stop offset="100%" stop-color="#7B68EE"/>
    </radialGradient>
    <radialGradient id="leaf10" cx="50%" cy="50%" r="70%">
      <stop offset="0%" stop-color="#4ECDC4"/>
      <stop offset="50%" stop-color="#96E6A1"/>
      <stop offset="100%" stop-color="#00CED1"/>
    </radialGradient>
    <radialGradient id="leaf11" cx="50%" cy="50%" r="70%">
      <stop offset="0%" stop-color="#96E6A1"/>
      <stop offset="50%" stop-color="#4ECDC4"/>
      <stop offset="100%" stop-color="#00FA9A"/>
    </radialGradient>
    <radialGradient id="leaf12" cx="50%" cy="50%" r="70%">
      <stop offset="0%" stop-color="#9370DB"/>
      <stop offset="50%" stop-color="#FF4500"/>
      <stop offset="100%" stop-color="#FFD700"/>
    </radialGradient>
    <radialGradient id="leaf13" cx="50%" cy="50%" r="70%">
      <stop offset="0%" stop-color="#00FA9A"/>
      <stop offset="50%" stop-color="#45B7D1"/>
      <stop offset="100%" stop-color="#32CD32"/>
    </radialGradient>
    <radialGradient id="leaf14" cx="50%" cy="50%" r="70%">
      <stop offset="0%" stop-color="#9370DB"/>
      <stop offset="50%" stop-color="#00FA9A"/>
      <stop offset="100%" stop-color="#FF4500"/>
    </radialGradient>
    <radialGradient id="leaf15" cx="50%" cy="50%" r="70%">
      <stop offset="0%" stop-color="#32CD32"/>
      <stop offset="50%" stop-color="#FF69B4"/>
      <stop offset="100%" stop-color="#7B68EE"/>
    </radialGradient>
    <radialGradient id="leaf16" cx="50%" cy="50%" r="70%">
      <stop offset="0%" stop-color="#FFD700"/>
      <stop offset="50%" stop-color="#00CED1"/>
      <stop offset="100%" stop-color="#FF1493"/>
    </radialGradient>
    <radialGradient id="leaf17" cx="50%" cy="50%" r="70%">
      <stop offset="0%" stop-color="#00CED1"/>
      <stop offset="50%" stop-color="#9370DB"/>
      <stop offset="100%" stop-color="#7B68EE"/>
    </radialGradient>
    <radialGradient id="leaf18" cx="50%" cy="50%" r="70%">
      <stop offset="0%" stop-color="#00FA9A"/>
      <stop offset="50%" stop-color="#FF69B4"/>
      <stop offset="100%" stop-color="#FF6B6B"/>
    </radialGradient>
    <radialGradient id="leaf19" cx="50%" cy="50%" r="70%">
      <stop offset="0%" stop-color="#DC143C"/>
      <stop offset="50%" stop-color="#FFD700"/>
      <stop offset="100%" stop-color="#00FA9A"/>
    </radialGradient>
  </defs>

  <!-- Background -->
  <rect width="1920" height="1080" fill="url(#bgGrad)"/>
  
  <!-- Leaves with clip-path -->
  <g clip-path="url(#complexClip)">
    <path d="M 1582.3864095970962,555.1470428708824 C 1616.2640196121083,583.3783845500592 1627.5565562837792,622.9022629009067 1582.3864095970962,668.0724095875896 C 1537.2162629104132,622.9022629009067 1548.508799582084,583.3783845500592 1582.3864095970962,555.1470428708824 Z" fill="url(#leaf0)" opacity="0.20" transform="rotate(60.8 1582.4 611.6)"/>
    <path d="M 818.3920079486464,6.221297503039068 C 856.5423228899571,38.013226620797894 869.2590945370606,82.52192738566025 818.3920079486464,133.38901397407437 C 767.5249213602323,82.52192738566025 780.2416930073358,38.013226620797894 818.3920079486464,6.221297503039068 Z" fill="url(#leaf1)" opacity="0.32" transform="rotate(105.0 818.4 69.8)"/>
    <path d="M 334.37906967414625,-4.347281320350319 C 386.70092046456193,39.25426100499609 404.1415373947005,100.29642026048106 334.37906967414625,170.0588879810353 C 264.616601953592,100.29642026048106 282.05721888373057,39.25426100499609 334.37906967414625,-4.347281320350319 Z" fill="url(#leaf2)" opacity="0.31" transform="rotate(190.2 334.4 82.9)"/>
    <path d="M 272.65320004007174,191.81085210245305 C 312.26226829162886,224.81840897875065 325.4652910421479,271.0289886055673 272.65320004007174,323.84107960764345 C 219.84110903799558,271.0289886055673 233.04413178851462,224.81840897875065 272.65320004007174,191.81085210245305 Z" fill="url(#leaf3)" opacity="0.22" transform="rotate(256.0 272.7 257.8)"/>
    <path d="M 1034.4860914337748,707.9845795057516 C 1088.897294507279,753.3272487336716 1107.0343621984468,816.8069856527596 1034.4860914337748,889.3552564174316 C 961.9378206691028,816.8069856527596 980.0748883602708,753.3272487336716 1034.4860914337748,707.9845795057516 Z" fill="url(#leaf4)" opacity="0.22" transform="rotate(100.5 1034.5 798.7)"/>
    <path d="M 139.2189079598524,300.42958714625235 C 199.0152749007677,350.2598929303484 218.94739721440615,420.02232102808296 139.2189079598524,499.7508102826367 C 59.49041870529865,420.02232102808296 79.4225410189371,350.2598929303484 139.2189079598524,300.42958714625235 Z" fill="url(#leaf5)" opacity="0.21" transform="rotate(3.5 139.2 400.1)"/>
    <path d="M 576.1688000870678,402.7376183277627 C 630.3314257624811,447.8731397239404 648.3856343209522,511.0628696785893 576.1688000870678,583.2797039124738 C 503.9519658531833,511.0628696785893 522.0061744116545,447.8731397239404 576.1688000870678,402.7376183277627 Z" fill="url(#leaf6)" opacity="0.37" transform="rotate(354.8 576.2 493.0)"/>
    <path d="M 423.4168813289648,2.0433868201797907 C 475.33743236675525,45.31051268500515 492.64428271268537,105.88448889576065 423.4168813289648,175.11189027948123 C 354.1894799452442,105.88448889576065 371.49633029117433,45.31051268500515 423.4168813289648,2.0433868201797907 Z" fill="url(#leaf7)" opacity="0.33" transform="rotate(259.8 423.4 88.6)"/>
    <path d="M 1323.3816048232768,289.45139720907775 C 1376.366541239572,333.6055108893237 1394.0281867116703,395.421270041668 1323.3816048232768,466.06785193006147 C 1252.7350229348833,395.421270041668 1270.3966684069817,333.6055108893237 1323.3816048232768,289.45139720907775 Z" fill="url(#leaf8)" opacity="0.40" transform="rotate(278.1 1323.4 377.8)"/>
    <path d="M 1312.5797502310627,937.4504795880554 C 1363.4906998508998,979.8762709379197 1380.4610163908455,1039.2723788277297 1312.5797502310627,1107.1536449875125 C 1244.6984840712798,1039.2723788277297 1261.6688006112256,979.8762709379197 1312.5797502310627,937.4504795880554 Z" fill="url(#leaf9)" opacity="0.37" transform="rotate(192.2 1312.6 1022.3)"/>
    <path d="M 716.7582958270659,687.6477792857014 C 765.2430555657471,728.0517457346024 781.4046421453075,784.6172987630638 716.7582958270659,849.2636450813053 C 652.1119495088243,784.6172987630638 668.2735360883847,728.0517457346024 716.7582958270659,687.6477792857014 Z" fill="url(#leaf10)" opacity="0.27" transform="rotate(308.3 716.8 768.5)"/>
    <path d="M 1757.7177828002018,178.65237055216483 C 1797.5985341557785,211.88633001514543 1810.8921179409708,258.4138732633183 1757.7177828002018,311.58820840408725 C 1704.5434476594328,258.4138732633183 1717.8370314446252,211.88633001514543 1757.7177828002018,178.65237055216483 Z" fill="url(#leaf11)" opacity="0.23" transform="rotate(24.1 1757.7 245.1)"/>
    <path d="M 1314.6054176872938,32.83774612333974 C 1368.6890517967352,77.90744121454094 1386.7169298332158,141.0050143422226 1314.6054176872938,213.11652648814453 C 1242.4939055413718,141.0050143422226 1260.5217835778524,77.90744121454094 1314.6054176872938,32.83774612333974 Z" fill="url(#leaf12)" opacity="0.21" transform="rotate(17.9 1314.6 123.0)"/>
    <path d="M 277.56230258597617,92.60232537614792 C 324.33316372950765,131.57804299575747 339.9234507773515,186.14404766321087 277.56230258597617,248.5051958545862 C 215.20115439460085,186.14404766321087 230.7914414424447,131.57804299575747 277.56230258597617,92.60232537614792 Z" fill="url(#leaf13)" opacity="0.24" transform="rotate(303.4 277.6 170.6)"/>
    <path d="M 1819.5293006698298,507.44366690897243 C 1848.416463259003,531.5163023999501 1858.045517455394,565.2179920873187 1819.5293006698298,603.734208872883 C 1781.0130838842656,565.2179920873187 1790.6421380806567,531.5163023999501 1819.5293006698298,507.44366690897243 Z" fill="url(#leaf14)" opacity="0.25" transform="rotate(103.6 1819.5 555.6)"/>
    <path d="M 1172.5833089256578,776.2916171327565 C 1223.85406033517,819.0172433073501 1240.9443108050075,878.8331199517811 1172.5833089256578,947.1941218311308 C 1104.222307046308,878.8331199517811 1121.3125575161455,819.0172433073501 1172.5833089256578,776.2916171327565 Z" fill="url(#leaf15)" opacity="0.32" transform="rotate(172.7 1172.6 861.7)"/>
    <path d="M 819.5333217833544,243.12435952368358 C 863.3306057869737,279.6220961933663 877.9297004548467,330.71892753092214 819.5333217833544,389.11530620241456 C 761.136943111862,330.71892753092214 775.736037779735,279.6220961933663 819.5333217833544,243.12435952368358 Z" fill="url(#leaf16)" opacity="0.31" transform="rotate(165.8 819.5 316.1)"/>
    <path d="M 915.4238801204915,27.234328546220198 C 961.4982431372732,65.62963106020501 976.8563641428672,119.38305457978375 915.4238801204915,180.81553860215945 C 853.9913960981158,119.38305457978375 869.3495171037098,65.62963106020501 915.4238801204915,27.234328546220198 Z" fill="url(#leaf17)" opacity="0.34" transform="rotate(342.2 915.4 104.0)"/>
    <path d="M 1311.1024849572946,810.9690815101796 C 1336.90897961904,832.474493728301 1345.5111445062887,862.582070833671 1311.1024849572946,896.9907303826651 C 1276.6938254083004,862.582070833671 1285.295990295549,832.474493728301 1311.1024849572946,810.9690815101796 Z" fill="url(#leaf18)" opacity="0.25" transform="rotate(182.9 1311.1 854.0)"/>
    <path d="M 1402.2013343866936,672.4430584593473 C 1461.1905049738657,721.6007006153241 1480.8535618362566,790.4213996336916 1402.2013343866936,869.0736270832546 C 1323.5491069371305,790.4213996336916 1343.2121637995215,721.6007006153241 1402.2013343866936,672.4430584593473 Z" fill="url(#leaf19)" opacity="0.37" transform="rotate(295.5 1402.2 770.8)"/>
    <path d="M 438.8864727355076,694.9700318165749 C 480.8838110074019,729.9678137098201 494.8829237647,778.9647083603635 438.8864727355076,834.9611593895559 C 382.89002170631517,778.9647083603635 396.8891344636133,729.9678137098201 438.8864727355076,694.9700318165749 Z" fill="url(#leaf0)" opacity="0.38" transform="rotate(265.7 438.9 765.0)"/>
    <path d="M 431.83353384444183,248.34187005566716 C 469.6300858776625,279.8389967500177 482.22893655540275,323.93497412210854 431.83353384444183,374.3303768330694 C 381.4381311334809,323.93497412210854 394.03698181122115,279.8389967500177 431.83353384444183,248.34187005566716 Z" fill="url(#leaf1)" opacity="0.32" transform="rotate(303.5 431.8 311.3)"/>
    <path d="M 535.0664615724243,88.5795864753619 C 559.3823467571408,108.84282412929232 567.487641818713,137.21135684479492 535.0664615724243,169.63253709108358 C 502.6452813261356,137.21135684479492 510.7505763877078,108.84282412929232 535.0664615724243,88.5795864753619 Z" fill="url(#leaf2)" opacity="0.38" transform="rotate(57.3 535.1 129.1)"/>
    <path d="M 1026.3046506900316,503.6639690492955 C 1056.3760768047978,528.7234908116005 1066.3998855097198,563.8068212788278 1026.3046506900316,603.9020560985159 C 986.2094158703435,563.8068212788278 996.2332245752655,528.7234908116005 1026.3046506900316,503.6639690492955 Z" fill="url(#leaf3)" opacity="0.31" transform="rotate(50.9 1026.3 553.8)"/>
    <path d="M 1734.8905398364918,935.1517841231337 C 1762.3153387598427,958.005783225926 1771.4569384009596,990.0013819698355 1734.8905398364918,1026.5677805343034 C 1698.324141272024,990.0013819698355 1707.465740913141,958.005783225926 1734.8905398364918,935.1517841231337 Z" fill="url(#leaf4)" opacity="0.34" transform="rotate(339.6 1734.9 980.9)"/>
    <path d="M 1774.500981080811,245.25944656646817 C 1834.2816176508495,295.0766437081669 1854.208496507529,364.8207197065451 1774.500981080811,444.5282351332631 C 1694.793465654093,364.8207197065451 1714.7203445107725,295.0766437081669 1774.500981080811,245.25944656646817 Z" fill="url(#leaf5)" opacity="0.38" transform="rotate(250.5 1774.5 344.9)"/>
    <path d="M 1474.1286894882799,41.72527795957515 C 1522.6258025933007,82.13953888042583 1538.791506961641,138.71950416961678 1474.1286894882799,203.38232164297787 C 1409.4658720149187,138.71950416961678 1425.631576383259,82.13953888042583 1474.1286894882799,41.72527795957515 Z" fill="url(#leaf6)" opacity="0.31" transform="rotate(263.6 1474.1 122.6)"/>
    <path d="M 622.5393944749256,789.4220702672814 C 649.4501613136543,811.8477092995554 658.420416926564,843.2436039447389 622.5393944749256,879.1246263963773 C 586.6583720232873,843.2436039447389 595.6286276361969,811.8477092995554 622.5393944749256,789.4220702672814 Z" fill="url(#leaf7)" opacity="0.30" transform="rotate(74.0 622.5 834.3)"/>
    <path d="M 1059.2092688279504,899.0873782867623 C 1112.3120537687873,943.3396990707931 1130.0129820823997,1005.2929481684364 1059.2092688279504,1076.0966614228857 C 988.4055555735009,1005.2929481684364 1006.1064838871133,943.3396990707931 1059.2092688279504,899.0873782867623 Z" fill="url(#leaf8)" opacity="0.25" transform="rotate(345.8 1059.2 987.6)"/>
    <path d="M 504.1055893809247,767.9377879635579 C 560.8216464679036,815.2011688693736 579.72699883023,881.3699021375157 504.1055893809247,956.991311586821 C 428.48417993161945,881.3699021375157 447.38953229394576,815.2011688693736 504.1055893809247,767.9377879635579 Z" fill="url(#leaf9)" opacity="0.38" transform="rotate(326.1 504.1 862.5)"/>
    <path d="M 1301.2656029286402,961.0295372525021 C 1325.3754897786655,981.1211096275232 1333.412118728674,1009.2493109525527 1301.2656029286402,1041.3958267525866 C 1269.1190871286065,1009.2493109525527 1277.155716078615,981.1211096275232 1301.2656029286402,961.0295372525021 Z" fill="url(#leaf10)" opacity="0.28" transform="rotate(74.5 1301.3 1001.2)"/>
    <path d="M 1500.7381060949094,563.2907374209666 C 1533.7379568627618,590.7906130608437 1544.7379071187127,629.2904389566716 1500.7381060949094,673.2902399804749 C 1456.7383050711062,629.2904389566716 1467.738255327057,590.7906130608437 1500.7381060949094,563.2907374209666 Z" fill="url(#leaf11)" opacity="0.35" transform="rotate(17.5 1500.7 618.3)"/>
    <path d="M 1508.772526776992,227.33135062158578 C 1563.902108089461,273.2726683819768 1582.2786351936177,337.5905132465242 1508.772526776992,411.0966216631498 C 1435.2664183603663,337.5905132465242 1453.6429454645229,273.2726683819768 1508.772526776992,227.33135062158578 Z" fill="url(#leaf12)" opacity="0.24" transform="rotate(326.0 1508.8 319.2)"/>
    <path d="M 860.6050350010318,659.2077900572292 C 914.6329472912271,704.2310502990588 932.6422513879589,767.2636146376201 860.6050350010318,839.3008310245473 C 788.5678186141046,767.2636146376201 806.5771227108364,704.2310502990588 860.6050350010318,659.2077900572292 Z" fill="url(#leaf13)" opacity="0.35" transform="rotate(181.1 860.6 749.3)"/>
    <path d="M 854.9951236857482,773.2550722611244 C 892.4794805993191,804.4920363557667 904.974266237176,848.223786088266 854.9951236857482,898.2029286396938 C 805.0159811343204,848.223786088266 817.5107667721774,804.4920363557667 854.9951236857482,773.2550722611244 Z" fill="url(#leaf14)" opacity="0.36" transform="rotate(176.9 855.0 835.7)"/>
    <path d="M 394.6303688751933,367.01757727104456 C 435.077928198254,400.7238767069285 448.56044797260756,447.912695917166 394.6303688751933,501.84277501458024 C 340.70028977777906,447.912695917166 354.1828095521326,400.7238767069285 394.6303688751933,367.01757727104456 Z" fill="url(#leaf15)" opacity="0.39" transform="rotate(221.4 394.6 434.4)"/>
    <path d="M 1823.239115791271,874.0758950452449 C 1852.3658651831556,898.3481862051487 1862.074781647117,932.3293938290141 1823.239115791271,971.1650596848602 C 1784.4034499354248,932.3293938290141 1794.1123663993862,898.3481862051487 1823.239115791271,874.0758950452449 Z" fill="url(#leaf16)" opacity="0.27" transform="rotate(288.0 1823.2 922.6)"/>
    <path d="M 482.7774399330606,647.198622033907 C 535.8053561654847,691.3885522275938 553.4813282429593,753.2544544987552 482.7774399330606,823.9583428086539 C 412.07355162316185,753.2544544987552 429.74952370063653,691.3885522275938 482.7774399330606,647.198622033907 Z" fill="url(#leaf17)" opacity="0.22" transform="rotate(101.0 482.8 735.6)"/>
    <path d="M 1513.0877798610811,335.17345792837915 C 1544.582092507658,361.4187184671933 1555.0801967231837,398.16208322153307 1513.0877798610811,440.1545000836357 C 1471.0953629989785,398.16208322153307 1481.5934672145042,361.4187184671933 1513.0877798610811,335.17345792837915 Z" fill="url(#leaf18)" opacity="0.28" transform="rotate(25.9 1513.1 387.7)"/>
    <path d="M 549.2984329466412,712.7535160409983 C 579.2919253529446,737.7480930462513 589.2897561550458,772.7405008536052 549.2984329466412,812.7318240620099 C 509.30710973823665,772.7405008536052 519.3049405403378,737.7480930462513 549.2984329466412,712.7535160409983 Z" fill="url(#leaf19)" opacity="0.33" transform="rotate(121.3 549.3 762.7)"/>
    <path d="M 922.8972163748284,8.034201356761287 C 974.7100284563434,51.21154475802372 991.9809658168483,111.65982551979113 922.8972163748284,180.74357496181102 C 853.8134669328085,111.65982551979113 871.0844042933135,51.21154475802372 922.8972163748284,8.034201356761287 Z" fill="url(#leaf0)" opacity="0.22" transform="rotate(334.4 922.9 94.4)"/>
    <path d="M 1105.7384284009713,914.556263217322 C 1148.1077106153568,949.8639983959765 1162.2308046868186,999.294827646093 1105.7384284009713,1055.7872039319404 C 1049.246052115124,999.294827646093 1063.3691461865858,949.8639983959765 1105.7384284009713,914.556263217322 Z" fill="url(#leaf1)" opacity="0.37" transform="rotate(170.8 1105.7 985.2)"/>
    <path d="M 1649.168220778683,64.20222335296259 C 1700.2448398094546,106.7660725452722 1717.2703794863783,166.35546141450564 1649.168220778683,234.457620122201 C 1581.0660620709878,166.35546141450564 1598.0916017479115,106.7660725452722 1649.168220778683,64.20222335296259 Z" fill="url(#leaf2)" opacity="0.33" transform="rotate(308.2 1649.2 149.3)"/>
    <path d="M 1529.9666612132394,610.9497164052522 C 1567.8080620133435,642.4842170720055 1580.421862280045,686.6325180054604 1529.9666612132394,737.0877190722659 C 1479.5114601464338,686.6325180054604 1492.1252604131353,642.4842170720055 1529.9666612132394,610.9497164052522 Z" fill="url(#leaf3)" opacity="0.39" transform="rotate(343.9 1530.0 674.0)"/>
    <path d="M 567.0384419234408,370.02631440756187 C 619.0630832631515,413.3801821906541 636.4046303763885,474.0755970869833 567.0384419234408,543.4417855399308 C 497.6722534704932,474.0755970869833 515.0138005837301,413.3801821906541 567.0384419234408,370.02631440756187 Z" fill="url(#leaf4)" opacity="0.37" transform="rotate(258.6 567.0 456.7)"/>
    <path d="M 1340.5226942105055,548.3464354258276 C 1378.1090973251248,579.6684380213437 1390.6378983633313,623.5192416550663 1340.5226942105055,673.634445807892 C 1290.4074900576798,623.5192416550663 1302.9362910958862,579.6684380213437 1340.5226942105055,548.3464354258276 Z" fill="url(#leaf5)" opacity="0.32" transform="rotate(153.9 1340.5 611.0)"/>
    <path d="M 51.90205492864409,29.579828506352953 C 94.78627324449697,65.31667710289702 109.0810126831146,115.34826513805871 51.90205492864409,172.5272228925292 C -5.2769028258264115,115.34826513805871 9.017836612791214,65.31667710289702 51.90205492864409,29.579828506352953 Z" fill="url(#leaf6)" opacity="0.29" transform="rotate(97.7 51.9 101.1)"/>
    <path d="M 168.3066369366698,752.3289280135217 C 219.40936318169545,794.9145332177097 236.44360526337067,854.534380503573 168.3066369366698,922.6713488302738 C 100.16966860996892,854.534380503573 117.20391069164415,794.9145332177097 168.3066369366698,752.3289280135217 Z" fill="url(#leaf7)" opacity="0.38" transform="rotate(24.8 168.3 837.5)"/>
    <path d="M 162.24768986011784,455.73208487291697 C 208.26875835650605,494.0829752865738 223.6091145219688,547.7742218656933 162.24768986011784,609.1356465275443 C 100.8862651982669,547.7742218656933 116.22662136372963,494.0829752865738 162.24768986011784,455.73208487291697 Z" fill="url(#leaf8)" opacity="0.37" transform="rotate(83.7 162.2 532.4)"/>
    <path d="M 729.5192675565849,713.5893133087667 C 766.8549949393222,744.7024194610478 779.3002374002347,788.2607680742415 729.5192675565849,838.0417379178913 C 679.738297712935,788.2607680742415 692.1835401738475,744.7024194610478 729.5192675565849,713.5893133087667 Z" fill="url(#leaf9)" opacity="0.24" transform="rotate(211.8 729.5 775.8)"/>
    <path d="M 524.3388930467947,423.58541579906245 C 581.8417799400429,471.50448821010264 601.009408904459,538.5911895855588 524.3388930467947,615.261705443223 C 447.66837718913047,538.5911895855588 466.8360061535465,471.50448821010264 524.3388930467947,423.58541579906245 Z" fill="url(#leaf10)" opacity="0.20" transform="rotate(104.0 524.3 519.4)"/>
    <path d="M 948.2350859132839,620.9032475459597 C 979.3763804704965,646.8543263436369 989.7568119895675,683.185836660385 948.2350859132839,724.7075627366686 C 906.7133598370003,683.185836660385 917.0937913560713,646.8543263436369 948.2350859132839,620.9032475459597 Z" fill="url(#leaf11)" opacity="0.32" transform="rotate(232.4 948.2 672.8)"/>
    <path d="M 1722.8480024163186,250.89085814317744 C 1750.2337663614023,273.7123280974139 1759.362354343097,305.6623860333449 1722.8480024163186,342.1767379601232 C 1686.3336504895403,305.6623860333449 1695.462238471235,273.7123280974139 1722.8480024163186,250.89085814317744 Z" fill="url(#leaf12)" opacity="0.35" transform="rotate(178.4 1722.8 296.5)"/>
    <path d="M 1334.9675266869042,818.0476591829222 C 1368.7968335714172,846.2387482533497 1380.0732691995881,885.7062729519482 1334.9675266869042,930.8120154646322 C 1289.8617841742202,885.7062729519482 1301.1382198023912,846.2387482533497 1334.9675266869042,818.0476591829222 Z" fill="url(#leaf13)" opacity="0.30" transform="rotate(325.3 1335.0 874.4)"/>
    <path d="M 1412.809282109463,468.09109463305697 C 1463.8140365492031,510.5950566661738 1480.81562136245,570.1006035125373 1412.809282109463,638.1069427655242 C 1344.8029428564762,570.1006035125373 1361.804527669723,510.5950566661738 1412.809282109463,468.09109463305697 Z" fill="url(#leaf14)" opacity="0.30" transform="rotate(300.0 1412.8 553.1)"/>
    <path d="M 1082.1772270347135,123.90098840669731 C 1114.9923348695568,151.2469116024001 1125.930704147838,189.53120407638403 1082.1772270347135,233.2846811895085 C 1038.423749921589,189.53120407638403 1049.3621191998702,151.2469116024001 1082.1772270347135,123.90098840669731 Z" fill="url(#leaf15)" opacity="0.31" transform="rotate(38.7 1082.2 178.6)"/>
    <path d="M 875.5545295253368,881.2761885420578 C 934.9320386532389,930.7574461486428 954.724541695873,1000.031206797862 875.5545295253368,1079.201218968398 C 796.3845173548006,1000.031206797862 816.1770203974346,930.7574461486428 875.5545295253368,881.2761885420578 Z" fill="url(#leaf16)" opacity="0.28" transform="rotate(133.2 875.6 980.2)"/>
    <path d="M 642.6808456120607,912.2700086877197 C 667.0907088372428,932.6115613753715 675.2273299123035,961.0897351380839 642.6808456120607,993.6362194383267 C 610.1343613118179,961.0897351380839 618.2709823868786,932.6115613753715 642.6808456120607,912.2700086877197 Z" fill="url(#leaf17)" opacity="0.29" transform="rotate(347.7 642.7 953.0)"/>
    <path d="M 1187.928760130395,163.84897426707425 C 1229.1978946409904,198.23991969257057 1242.954272811189,246.3872432882654 1187.928760130395,301.4127559690595 C 1132.903247449601,246.3872432882654 1146.6596256197995,198.23991969257057 1187.928760130395,163.84897426707425 Z" fill="url(#leaf18)" opacity="0.26" transform="rotate(240.2 1187.9 232.6)"/>
    <path d="M 1657.745455781932,450.54281793671987 C 1713.171759632375,496.7314044787558 1731.6471942491894,561.3954256376061 1657.745455781932,635.2971641048636 C 1583.8437173146744,561.3954256376061 1602.319151931489,496.7314044787558 1657.745455781932,450.54281793671987 Z" fill="url(#leaf19)" opacity="0.35" transform="rotate(86.7 1657.7 542.9)"/>
    <path d="M 616.1822928125389,840.0047396983828 C 663.0949894663667,879.0986535765726 678.7325550176427,933.8301330060383 616.1822928125389,996.3803952111421 C 553.6320306074351,933.8301330060383 569.2695961587111,879.0986535765726 616.1822928125389,840.0047396983828 Z" fill="url(#leaf0)" opacity="0.26" transform="rotate(145.6 616.2 918.2)"/>
    <path d="M 468.78868034268515,271.74094979079655 C 507.0127637101357,303.59435259700535 519.7541248326191,348.1891165256976 468.78868034268515,399.15456101563166 C 417.8232358527511,348.1891165256976 430.5645969752346,303.59435259700535 468.78868034268515,271.74094979079655 Z" fill="url(#leaf1)" opacity="0.40" transform="rotate(93.2 468.8 335.4)"/>
    <path d="M 1085.260510136041,478.99801040145564 C 1126.4234694529823,513.300476498907 1140.144455891963,561.3239290353387 1085.260510136041,616.2078747912607 C 1030.376564380119,561.3239290353387 1044.0975508190995,513.300476498907 1085.260510136041,478.99801040145564 Z" fill="url(#leaf2)" opacity="0.25" transform="rotate(296.4 1085.3 547.6)"/>
    <path d="M 1075.5713889610472,218.63722838773865 C 1123.2756050692103,258.39074181120793 1139.177010438598,314.04566060406495 1075.5713889610472,377.6512820816158 C 1011.9657674834963,314.04566060406495 1027.867172852884,258.39074181120793 1075.5713889610472,218.63722838773865 Z" fill="url(#leaf3)" opacity="0.39" transform="rotate(143.0 1075.6 298.1)"/>
    <path d="M 159.12817714648764,98.14205392755315 C 186.2408050298852,120.73591049705111 195.27834765768438,152.36730969434825 159.12817714648764,188.51748020554498 C 122.97800663529091,152.36730969434825 132.0155492630901,120.73591049705111 159.12817714648764,98.14205392755315 Z" fill="url(#leaf4)" opacity="0.32" transform="rotate(176.5 159.1 143.3)"/>
    <path d="M 1430.3057446487692,894.3354826968322 C 1461.158201278744,920.0458632218111 1471.4423534887355,956.0403959567817 1430.3057446487692,997.1770047967481 C 1389.1691358088028,956.0403959567817 1399.4532880187944,920.0458632218111 1430.3057446487692,894.3354826968322 Z" fill="url(#leaf5)" opacity="0.36" transform="rotate(17.3 1430.3 945.8)"/>
    <path d="M 686.012916691376,286.3078174421525 C 716.054443272255,311.3424229262184 726.0682854658813,346.3908706039106 686.012916691376,386.446239378416 C 645.9575479168706,346.3908706039106 655.9713901104969,311.3424229262184 686.012916691376,286.3078174421525 Z" fill="url(#leaf6)" opacity="0.35" transform="rotate(249.3 686.0 336.4)"/>
    <path d="M 1044.3264257283222,255.96272039925717 C 1103.0938645018236,304.93558604384174 1122.6830107596575,373.4975979462601 1044.3264257283222,451.8541829775954 C 965.9698406969869,373.4975979462601 985.5589869548207,304.93558604384174 1044.3264257283222,255.96272039925717 Z" fill="url(#leaf7)" opacity="0.24" transform="rotate(185.5 1044.3 353.9)"/>
    <path d="M 1718.6200423110542,78.35571849889953 C 1747.6961743976385,102.58582857105318 1757.3882184265,136.50798267206827 1718.6200423110542,175.2761587875141 C 1679.8518661956084,136.50798267206827 1689.54391022447,102.58582857105318 1718.6200423110542,78.35571849889953 Z" fill="url(#leaf8)" opacity="0.25" transform="rotate(315.7 1718.6 126.8)"/>
    <path d="M 924.7948309789921,87.42583061993369 C 971.813471518915,126.6080310698694 987.4863516988892,181.46311169977938 924.7948309789921,244.15463241967652 C 862.103310259095,181.46311169977938 877.7761904390692,126.6080310698694 924.7948309789921,87.42583061993369 Z" fill="url(#leaf9)" opacity="0.28" transform="rotate(258.1 924.8 165.8)"/>
    <path d="M 1255.7345094333161,215.5705282316805 C 1297.1973817770227,250.12292185143596 1311.0183392249248,298.4962729190936 1255.7345094333161,353.78010271070235 C 1200.4506796417074,298.4962729190936 1214.2716370896096,250.12292185143596 1255.7345094333161,215.5705282316805 Z" fill="url(#leaf10)" opacity="0.24" transform="rotate(274.2 1255.7 284.7)"/>
    <path d="M 732.0575659203643,513.0178412556525 C 764.4221935397861,539.9883642718374 775.2104027462601,577.7470964944963 732.0575659203643,620.8999333203922 C 688.9047290944684,577.7470964944963 699.6929383009424,539.9883642718374 732.0575659203643,513.0178412556525 Z" fill="url(#leaf11)" opacity="0.31" transform="rotate(134.8 732.1 567.0)"/>
    <path d="M 596.0377394312711,743.3892940418549 C 641.4659251477482,781.2461154722524 656.6086537199071,834.245665474809 596.0377394312711,894.816579763445 C 535.4668251426351,834.245665474809 550.6095537147941,781.2461154722524 596.0377394312711,743.3892940418549 Z" fill="url(#leaf12)" opacity="0.33" transform="rotate(310.2 596.0 819.1)"/>
    <path d="M 985.406677142523,449.9173358264979 C 1014.8215186664645,474.42970376311587 1024.6264658411117,508.74701887438096 985.406677142523,547.9668075729696 C 946.1868884439343,508.74701887438096 955.9918356185815,474.42970376311587 985.406677142523,449.9173358264979 Z" fill="url(#leaf13)" opacity="0.28" transform="rotate(323.5 985.4 498.9)"/>
    <path d="M 331.10529745938123,224.33552443015333 C 357.19831714805093,246.07970750404473 365.89599037760746,276.5215638074927 331.10529745938123,311.31225672571895 C 296.314604541155,276.5215638074927 305.01227777071153,246.07970750404473 331.10529745938123,224.33552443015333 Z" fill="url(#leaf14)" opacity="0.27" transform="rotate(26.2 331.1 267.8)"/>
    <path d="M 1592.4964211202055,887.1486534861248 C 1626.9495218444672,915.8595707563428 1638.4338887525544,956.0548549346482 1592.4964211202055,1001.9923225669971 C 1546.5589534878566,956.0548549346482 1558.0433203959437,915.8595707563428 1592.4964211202055,887.1486534861248 Z" fill="url(#leaf15)" opacity="0.21" transform="rotate(325.3 1592.5 944.6)"/>
    <path d="M 296.4319786088351,818.2983552243511 C 339.3551865403412,854.0676951672729 353.6629225175099,904.1447710873633 296.4319786088351,961.3757149960381 C 239.20103470016028,904.1447710873633 253.50877067732898,854.0676951672729 296.4319786088351,818.2983552243511 Z" fill="url(#leaf16)" opacity="0.37" transform="rotate(148.3 296.4 889.8)"/>
    <path d="M 538.5763529074572,816.3744026072795 C 571.8075048024455,844.0670291864363 582.8845554341082,882.8367063972559 538.5763529074572,927.1449089239068 C 494.26815038080633,882.8367063972559 505.3452010124691,844.0670291864363 538.5763529074572,816.3744026072795 Z" fill="url(#leaf17)" opacity="0.23" transform="rotate(180.0 538.6 871.8)"/>
    <path d="M 913.0814724149725,431.9743882121249 C 947.113967281176,460.3348006006278 958.4581322365771,500.0393779445318 913.0814724149725,545.4160377661365 C 867.7048125933679,500.0393779445318 879.048977548769,460.3348006006278 913.0814724149725,431.9743882121249 Z" fill="url(#leaf18)" opacity="0.23" transform="rotate(89.6 913.1 488.7)"/>
    <path d="M 927.1819322518043,854.5631134078191 C 981.1901033603975,899.5699226649801 999.192827063262,962.5794556250056 927.1819322518043,1034.5903504364633 C 855.1710374403465,962.5794556250056 873.173761143211,899.5699226649801 927.1819322518043,854.5631134078191 Z" fill="url(#leaf19)" opacity="0.35" transform="rotate(148.6 927.2 944.6)"/>
    <path d="M 1463.682598879157,368.99857565108374 C 1487.7496391508982,389.0544425442015 1495.7719859081453,417.13265619456627 1463.682598879157,449.22204322355464 C 1431.5932118501687,417.13265619456627 1439.6155586074158,389.0544425442015 1463.682598879157,368.99857565108374 Z" fill="url(#leaf0)" opacity="0.25" transform="rotate(14.9 1463.7 409.1)"/>
    <path d="M 1444.9466021424873,90.80269347008742 C 1499.2147784490849,136.02617372558538 1517.3041705512842,199.33904608328254 1444.9466021424873,271.6966144920793 C 1372.5890337336905,199.33904608328254 1390.6784258358898,136.02617372558538 1444.9466021424873,90.80269347008742 Z" fill="url(#leaf1)" opacity="0.33" transform="rotate(124.5 1444.9 181.2)"/>
    <path d="M 481.78318065727194,894.893173576407 C 509.72787307575055,918.1804172584724 519.0427705485768,950.7825584133641 481.78318065727194,988.0421483046689 C 444.5235907659671,950.7825584133641 453.83848823879333,918.1804172584724 481.78318065727194,894.893173576407 Z" fill="url(#leaf2)" opacity="0.38" transform="rotate(265.6 481.8 941.5)"/>
    <path d="M 1388.9134982982146,648.4242847570627 C 1423.4312245816543,677.1890566599292 1434.937133342801,717.4597373239421 1388.9134982982146,763.4833723685285 C 1342.8898632536282,717.4597373239421 1354.3957720147748,677.1890566599292 1388.9134982982146,648.4242847570627 Z" fill="url(#leaf3)" opacity="0.39" transform="rotate(8.5 1388.9 706.0)"/>
    <path d="M 1472.0726666405453,206.5896340806758 C 1512.7773655335457,240.5102164915094 1526.345598497879,287.99903186667643 1472.0726666405453,342.27196372401016 C 1417.7997347832115,287.99903186667643 1431.367967747545,240.5102164915094 1472.0726666405453,206.5896340806758 Z" fill="url(#leaf4)" opacity="0.29" transform="rotate(10.8 1472.1 274.4)"/>
    <path d="M 1288.5675759234114,325.2870038946947 C 1329.106076067002,359.06908734768683 1342.6189094481988,406.3640041818758 1288.5675759234114,460.41533770666325 C 1234.516242398624,406.3640041818758 1248.0290757798207,359.06908734768683 1288.5675759234114,325.2870038946947 Z" fill="url(#leaf5)" opacity="0.25" transform="rotate(236.4 1288.6 392.9)"/>
    <path d="M 232.627894170985,103.02431926152899 C 279.7316307609229,142.27743308647723 295.4328762909022,197.2317924414048 232.627894170985,260.036774561322 C 169.8229120510678,197.2317924414048 185.5241575810471,142.27743308647723 232.627894170985,103.02431926152899 Z" fill="url(#leaf6)" opacity="0.25" transform="rotate(81.2 232.6 181.5)"/>
    <path d="M 736.5623153365674,591.8937144929624 C 766.5154330644637,616.854645932876 776.499805640429,651.7999499487548 736.5623153365674,691.7374402526165 C 696.6248250327058,651.7999499487548 706.6091976086711,616.854645932876 736.5623153365674,591.8937144929624 Z" fill="url(#leaf7)" opacity="0.28" transform="rotate(308.3 736.6 641.8)"/>
    <path d="M 1860.6202018069544,346.24001397416373 C 1914.913343993131,391.4842991293109 1933.0110580551898,454.826298346517 1860.6202018069544,527.2171545947525 C 1788.229345558719,454.826298346517 1806.3270596207776,391.4842991293109 1860.6202018069544,346.24001397416373 Z" fill="url(#leaf8)" opacity="0.39" transform="rotate(9.0 1860.6 436.7)"/>
    <path d="M 1807.325008410361,84.11252848915774 C 1853.6365042846899,122.70544171776498 1869.0736695761327,176.73552023781514 1807.325008410361,238.48418140358672 C 1745.5763472445894,176.73552023781514 1761.0135125360323,122.70544171776498 1807.325008410361,84.11252848915774 Z" fill="url(#leaf9)" opacity="0.37" transform="rotate(93.2 1807.3 161.3)"/>
    <path d="M 1340.2377721773548,168.51351270235048 C 1372.0872192302122,195.0547185797317 1382.7037015811648,232.21240680806542 1340.2377721773548,274.6783362118754 C 1297.771842773545,232.21240680806542 1308.3883251244974,195.0547185797317 1340.2377721773548,168.51351270235048 Z" fill="url(#leaf10)" opacity="0.22" transform="rotate(26.0 1340.2 221.6)"/>
    <path d="M 973.6258963266799,114.26702034016085 C 1023.6471882925968,155.95143031175823 1040.3209522812358,214.30960427199454 973.6258963266799,281.00466022655036 C 906.9308403721242,214.30960427199454 923.6046043607631,155.95143031175823 973.6258963266799,114.26702034016085 Z" fill="url(#leaf11)" opacity="0.39" transform="rotate(151.3 973.6 197.6)"/>
    <path d="M 1352.4783932864252,807.2785292402979 C 1381.6968096039482,831.6272095049003 1391.436281709789,865.7153618753435 1352.4783932864252,904.6732502987073 C 1313.5205048630614,865.7153618753435 1323.2599769689023,831.6272095049003 1352.4783932864252,807.2785292402979 Z" fill="url(#leaf12)" opacity="0.30" transform="rotate(103.3 1352.5 856.0)"/>
    <path d="M 1108.7253081021772,333.7425407223225 C 1160.6873565710223,377.0442477796933 1178.0080393939706,437.6666376600125 1108.7253081021772,506.9493689518058 C 1039.4425768103838,437.6666376600125 1056.7632596333322,377.0442477796933 1108.7253081021772,333.7425407223225 Z" fill="url(#leaf13)" opacity="0.26" transform="rotate(305.4 1108.7 420.3)"/>
    <path d="M 1747.568789735692,841.4263086004637 C 1779.478634444963,868.0178458581896 1790.1152493480536,905.2459980190059 1747.568789735692,947.7924576313674 C 1705.0223301233304,905.2459980190059 1715.658945026421,868.0178458581896 1747.568789735692,841.4263086004637 Z" fill="url(#leaf14)" opacity="0.36" transform="rotate(263.4 1747.6 894.6)"/>
    <path d="M 1446.649840552374,851.0429902160924 C 1498.3553052533002,894.1308774668645 1515.5904601536092,954.4539196179453 1446.649840552374,1023.3945392191806 C 1377.7092209511386,954.4539196179453 1394.9443758514476,894.1308774668645 1446.649840552374,851.0429902160924 Z" fill="url(#leaf15)" opacity="0.31" transform="rotate(31.9 1446.6 937.2)"/>
    <path d="M 743.0829403738896,841.2393284719226 C 787.435948053105,878.2001682046022 802.2202839461769,929.9453438303534 743.0829403738896,989.0826874026407 C 683.9455968016024,929.9453438303534 698.7299326946743,878.2001682046022 743.0829403738896,841.2393284719226 Z" fill="url(#leaf16)" opacity="0.32" transform="rotate(134.6 743.1 915.2)"/>
    <path d="M 1019.4441836899437,848.5870635013787 C 1047.6562220400085,872.0970954597659 1057.0602348233633,905.0111402015082 1019.4441836899437,942.6271913349278 C 981.828132556524,905.0111402015082 991.2321453398789,872.0970954597659 1019.4441836899437,848.5870635013787 Z" fill="url(#leaf17)" opacity="0.37" transform="rotate(188.4 1019.4 895.6)"/>
    <path d="M 604.0909584398984,301.81305257651235 C 651.5389057818682,341.3530086948205 667.3548882291914,396.7089472604519 604.0909584398984,459.9728770497449 C 540.8270286506054,396.7089472604519 556.6430110979286,341.3530086948205 604.0909584398984,301.81305257651235 Z" fill="url(#leaf18)" opacity="0.31" transform="rotate(272.9 604.1 380.9)"/>
    <path d="M 1570.6703627902546,412.86204589109104 C 1596.42243481301,434.32210591005406 1605.0064588205953,464.36618993660227 1570.6703627902546,498.7022859669431 C 1536.3342667599138,464.36618993660227 1544.918290767499,434.32210591005406 1570.6703627902546,412.86204589109104 Z" fill="url(#leaf19)" opacity="0.33" transform="rotate(206.9 1570.7 455.8)"/>
    <path d="M 1210.5484278093666,885.537127132569 C 1252.3684149006733,920.3871163753246 1266.3084105977755,969.1771013151823 1210.5484278093666,1024.9370841035914 C 1154.7884450209576,969.1771013151823 1168.7284407180598,920.3871163753246 1210.5484278093666,885.537127132569 Z" fill="url(#leaf0)" opacity="0.34" transform="rotate(135.8 1210.5 955.2)"/>
    <path d="M 1549.018606114991,723.4564061480523 C 1579.4544563470208,748.8196146747439 1589.5997397576975,784.3281066121122 1549.018606114991,824.9092402548188 C 1508.4374724722843,784.3281066121122 1518.582755882961,748.8196146747439 1549.018606114991,723.4564061480523 Z" fill="url(#leaf1)" opacity="0.32" transform="rotate(299.4 1549.0 774.2)"/>
    <path d="M 55.354700425004815,470.19474370476905 C 83.36221860471127,493.53434218785776 92.69805799794676,526.2097800641819 55.354700425004815,563.5531376371239 C 18.011342852062867,526.2097800641819 27.34718224529836,493.53434218785776 55.354700425004815,470.19474370476905 Z" fill="url(#leaf2)" opacity="0.40" transform="rotate(258.6 55.4 516.9)"/>
    <path d="M 832.0110340257188,794.3347183213878 C 875.264663050733,830.3794091755663 889.6825393924044,880.8419763714162 832.0110340257188,938.5134817381017 C 774.3395286590332,880.8419763714162 788.7574050007046,830.3794091755663 832.0110340257188,794.3347183213878 Z" fill="url(#leaf3)" opacity="0.38" transform="rotate(192.9 832.0 866.4)"/>
    <path d="M 1176.8564386479104,868.6879827963867 C 1223.5626157968798,907.6097970871945 1239.1313415132029,962.1003370943254 1176.8564386479104,1024.3752399596178 C 1114.581535782618,962.1003370943254 1130.150261498941,907.6097970871945 1176.8564386479104,868.6879827963867 Z" fill="url(#leaf4)" opacity="0.35" transform="rotate(109.3 1176.9 946.5)"/>
    <path d="M 1578.0408064605372,773.9339805539609 C 1609.0955112925403,799.8129012472968 1619.4470795698749,836.0433902179673 1578.0408064605372,877.4496633273048 C 1536.6345333511995,836.0433902179673 1546.986101628534,799.8129012472968 1578.0408064605372,773.9339805539609 Z" fill="url(#leaf5)" opacity="0.33" transform="rotate(33.9 1578.0 825.7)"/>
    <path d="M 1456.7488628930082,61.616983859705826 C 1514.3387088717423,109.60852217531757 1533.535324197987,176.796675817174 1456.7488628930082,253.58313712215278 C 1379.9624015880295,176.796675817174 1399.1590169142742,109.60852217531757 1456.7488628930082,61.616983859705826 Z" fill="url(#leaf6)" opacity="0.39" transform="rotate(172.9 1456.7 157.6)"/>
    <path d="M 1256.9786131830267,418.7750461605765 C 1312.2274937647546,464.81577997868305 1330.6437872919973,529.2728073240323 1256.9786131830267,602.9379814330028 C 1183.313439074056,529.2728073240323 1201.7297326012988,464.81577997868305 1256.9786131830267,418.7750461605765 Z" fill="url(#leaf7)" opacity="0.31" transform="rotate(250.3 1257.0 510.9)"/>
    <path d="M 752.447304224599,894.9338296266319 C 791.6854883184765,927.6323163715299 804.7648830164356,973.4101978143871 752.447304224599,1025.7277766062239 C 700.1297254327623,973.4101978143871 713.2091201307214,927.6323163715299 752.447304224599,894.9338296266319 Z" fill="url(#leaf8)" opacity="0.28" transform="rotate(140.2 752.4 960.3)"/>
    <path d="M 907.8631679335101,709.4821182386621 C 961.4372119539221,754.1271549223388 979.2952266273927,816.6302062794861 907.8631679335101,888.0622649733688 C 836.4311092396275,816.6302062794861 854.2891239130981,754.1271549223388 907.8631679335101,709.4821182386621 Z" fill="url(#leaf9)" opacity="0.22" transform="rotate(354.6 907.9 798.8)"/>
    <path d="M 1800.818311295779,65.50063837029653 C 1835.7913441032097,94.64483237648872 1847.4490217056866,135.4467039851578 1800.818311295779,182.07741439506532 C 1754.1876008858715,135.4467039851578 1765.8452784883484,94.64483237648872 1800.818311295779,65.50063837029653 Z" fill="url(#leaf10)" opacity="0.38" transform="rotate(116.5 1800.8 123.8)"/>
    <path d="M 1192.0997933451963,416.4871992303409 C 1224.5105705146586,443.4961802048929 1235.3141629044794,481.3087535692656 1192.0997933451963,524.5231231285487 C 1148.8854237859132,481.3087535692656 1159.689016175734,443.4961802048929 1192.0997933451963,416.4871992303409 Z" fill="url(#leaf11)" opacity="0.30" transform="rotate(181.9 1192.1 470.5)"/>
    <path d="M 1550.977812196542,739.4749065223772 C 1599.4885625042652,779.9005317788134 1615.6588126068398,836.4964071378241 1550.977812196542,901.177407548122 C 1486.296811786244,836.4964071378241 1502.4670618888185,779.9005317788134 1550.977812196542,739.4749065223772 Z" fill="url(#leaf12)" opacity="0.25" transform="rotate(128.4 1551.0 820.3)"/>
    <path d="M 203.2289563338249,287.11107350896395 C 237.25807651717662,315.46867366175707 248.60111657829384,355.1693138756674 203.2289563338249,400.5414741201364 C 157.85679608935595,355.1693138756674 169.19983615047317,315.46867366175707 203.2289563338249,287.11107350896395 Z" fill="url(#leaf13)" opacity="0.40" transform="rotate(75.1 203.2 343.8)"/>
    <path d="M 1865.2962874257564,83.79560171635733 C 1899.564042738286,112.35206447679866 1910.9866278424627,152.33111234141654 1865.2962874257564,198.02145275812268 C 1819.6059470090502,152.33111234141654 1831.028532113227,112.35206447679866 1865.2962874257564,83.79560171635733 Z" fill="url(#leaf14)" opacity="0.35" transform="rotate(214.3 1865.3 140.9)"/>
    <path d="M 870.8564417083713,702.3326509781579 C 925.8979030144061,748.2005353998535 944.2450567830844,812.4155735902274 870.8564417083713,885.8041886649404 C 797.4678266336583,812.4155735902274 815.8149804023366,748.2005353998535 870.8564417083713,702.3326509781579 Z" fill="url(#leaf15)" opacity="0.29" transform="rotate(347.1 870.9 794.1)"/>
    <path d="M 1616.9376333128987,892.6094374232315 C 1665.9160352262347,933.4247723510115 1682.2421691973466,990.5662412499034 1616.9376333128987,1055.8707771343516 C 1551.6330974284508,990.5662412499034 1567.9592313995627,933.4247723510115 1616.9376333128987,892.6094374232315 Z" fill="url(#leaf16)" opacity="0.36" transform="rotate(95.2 1616.9 974.2)"/>
    <path d="M 705.0286348534698,147.13258683196176 C 745.7283185481696,181.04898991087822 759.2948797797362,228.5319542213613 705.0286348534698,282.79819914762766 C 650.7623899272035,228.5319542213613 664.3289511587701,181.04898991087822 705.0286348534698,147.13258683196176 Z" fill="url(#leaf17)" opacity="0.32" transform="rotate(152.6 705.0 215.0)"/>
    <path d="M 1725.354665523933,182.76002165093595 C 1751.437912874338,204.49606110960698 1760.1323286578065,234.92651635174641 1725.354665523933,269.70417948562005 C 1690.5770023900593,234.92651635174641 1699.2714181735278,204.49606110960698 1725.354665523933,182.76002165093595 Z" fill="url(#leaf18)" opacity="0.39" transform="rotate(124.4 1725.4 226.2)"/>
    <path d="M 324.44105558417647,170.85375730542333 C 376.0083319678919,213.8264876251862 393.19742409579703,273.9883100728542 324.44105558417647,342.74467858447474 C 255.6846870725559,273.9883100728542 272.87377920046106,213.8264876251862 324.44105558417647,170.85375730542333 Z" fill="url(#leaf19)" opacity="0.40" transform="rotate(268.4 324.4 256.8)"/>
    <path d="M 98.31726512727235,38.89544174919823 C 149.67841742601468,81.69640199815017 166.79880152559545,141.61774634668288 98.31726512727235,210.09928274500598 C 29.83572872894925,141.61774634668288 46.956112828530024,81.69640199815017 98.31726512727235,38.89544174919823 Z" fill="url(#leaf0)" opacity="0.37" transform="rotate(286.3 98.3 124.5)"/>
    <path d="M 1224.3113057628561,658.8453066284105 C 1258.2421890692658,687.1210427170853 1269.5524835047356,726.70707324123 1224.3113057628561,771.9482509831096 C 1179.0701280209767,726.70707324123 1190.3804224564465,687.1210427170853 1224.3113057628561,658.8453066284105 Z" fill="url(#leaf1)" opacity="0.29" transform="rotate(158.4 1224.3 715.4)"/>
    <path d="M 1611.820928035283,695.0719903712105 C 1639.7872570763852,718.377264572129 1649.1093667567525,751.0046484534148 1611.820928035283,788.2930871748844 C 1574.5324893138136,751.0046484534148 1583.8545989941808,718.377264572129 1611.820928035283,695.0719903712105 Z" fill="url(#leaf2)" opacity="0.27" transform="rotate(314.0 1611.8 741.7)"/>
    <path d="M 705.1224971843997,222.68255148066564 C 763.8140715511647,271.59219678630313 783.3779296734197,340.06570021419566 705.1224971843997,418.32113270321565 C 626.8670646953797,340.06570021419566 646.4309228176346,271.59219678630313 705.1224971843997,222.68255148066564 Z" fill="url(#leaf3)" opacity="0.29" transform="rotate(160.1 705.1 320.5)"/>
    <path d="M 109.5901819815947,428.8128873606704 C 158.31453919831068,469.4165183746004 174.55599160388266,526.2616017941024 109.5901819815947,591.2274114163904 C 44.62437235930672,526.2616017941024 60.86582476487872,469.4165183746004 109.5901819815947,428.8128873606704 Z" fill="url(#leaf4)" opacity="0.32" transform="rotate(122.3 109.6 510.0)"/>
    <path d="M 174.95683149442235,646.4336582389435 C 214.3634109975647,679.2724744915622 227.49893749861215,725.2468172452283 174.95683149442235,777.7889232494181 C 122.41472549023254,725.2468172452283 135.55025199128,679.2724744915622 174.95683149442235,646.4336582389435 Z" fill="url(#leaf5)" opacity="0.33" transform="rotate(262.1 175.0 712.1)"/>
    <path d="M 669.1924021752172,828.9399775073032 C 715.885508959114,867.8508998272171 731.4498778870794,922.3261910750965 669.1924021752172,984.5836667869587 C 606.934926463355,922.3261910750965 622.4992953913205,867.8508998272171 669.1924021752172,828.9399775073032 Z" fill="url(#leaf6)" opacity="0.33" transform="rotate(196.4 669.2 906.8)"/>
    <path d="M 1506.7811238445383,309.03975633986124 C 1532.0603888747123,330.10581053167283 1540.486810551437,359.5982864002091 1506.7811238445383,393.3039731071076 C 1473.0754371376397,359.5982864002091 1481.5018588143644,330.10581053167283 1506.7811238445383,309.03975633986124 Z" fill="url(#leaf7)" opacity="0.39" transform="rotate(300.6 1506.8 351.2)"/>
    <path d="M 1487.2167953152627,599.2553243516542 C 1511.5595175594278,619.5409262217917 1519.6737583074828,647.9407688399841 1487.2167953152627,680.3977318322042 C 1454.7598323230427,647.9407688399841 1462.8740730710977,619.5409262217917 1487.2167953152627,599.2553243516542 Z" fill="url(#leaf8)" opacity="0.29" transform="rotate(50.8 1487.2 639.8)"/>
    <path d="M 425.9923333043955,156.0843117465247 C 478.1551184796498,199.5532993925699 495.54271353806786,260.4098820970332 425.9923333043955,329.9602623307055 C 356.4419530707232,260.4098820970332 373.82954812914124,199.5532993925699 425.9923333043955,156.0843117465247 Z" fill="url(#leaf9)" opacity="0.35" transform="rotate(161.8 426.0 243.0)"/>
    <path d="M 1764.866174981488,38.991424222048295 C 1820.7422657867728,85.55483322645222 1839.3676293885344,150.7436058326177 1764.866174981488,225.24506023966399 C 1690.3647205744417,150.7436058326177 1708.9900841762033,85.55483322645222 1764.866174981488,38.991424222048295 Z" fill="url(#leaf10)" opacity="0.36" transform="rotate(247.4 1764.9 132.1)"/>
    <path d="M 1787.9460078522918,676.5920134281113 C 1824.8478695623423,707.3435648531533 1837.148490132359,750.3957368482122 1787.9460078522918,799.5982191282795 C 1738.7435255722246,750.3957368482122 1751.0441461422413,707.3435648531533 1787.9460078522918,676.5920134281113 Z" fill="url(#leaf11)" opacity="0.37" transform="rotate(120.3 1787.9 738.1)"/>
    <path d="M 416.7768029606674,230.16930253914575 C 449.7562193318757,257.65214951515264 460.7493581222784,296.1281352815623 416.7768029606674,340.10069044317333 C 372.8042477990564,296.1281352815623 383.7973865894591,257.65214951515264 416.7768029606674,230.16930253914575 Z" fill="url(#leaf12)" opacity="0.22" transform="rotate(233.3 416.8 285.1)"/>
    <path d="M 1363.9639267260247,-4.027156632155062 C 1403.4107757537995,28.845217557657236 1416.5597254297245,74.86654142339445 1363.9639267260247,127.46234012709414 C 1311.368128022325,74.86654142339445 1324.51707769825,28.845217557657236 1363.9639267260247,-4.027156632155062 Z" fill="url(#leaf13)" opacity="0.34" transform="rotate(286.5 1364.0 61.7)"/>
    <path d="M 1504.999391092582,593.4999775246146 C 1534.7574527612278,618.2983622484861 1544.6768066507766,653.0161008619062 1504.999391092582,692.6935164201008 C 1465.3219755343875,653.0161008619062 1475.2413294239363,618.2983622484861 1504.999391092582,593.4999775246146 Z" fill="url(#leaf14)" opacity="0.32" transform="rotate(298.0 1505.0 643.1)"/>
    <path d="M 1015.6763674899594,815.8264272439648 C 1052.0879207973999,846.1693883334984 1064.2251052332133,888.6495338588455 1015.6763674899594,937.1982716020995 C 967.1276297467055,888.6495338588455 979.264814182519,846.1693883334984 1015.6763674899594,815.8264272439648 Z" fill="url(#leaf15)" opacity="0.25" transform="rotate(171.4 1015.7 876.5)"/>
    <path d="M 471.1959453866884,304.2551463546871 C 497.7602635513487,326.3920781585707 506.61503627290216,357.38378268400777 471.1959453866884,392.80287357022155 C 435.7768545004746,357.38378268400777 444.63162722202804,326.3920781585707 471.1959453866884,304.2551463546871 Z" fill="url(#leaf16)" opacity="0.39" transform="rotate(96.2 471.2 348.5)"/>
    <path d="M 1186.3230554351078,324.4549160454966 C 1244.5100138490925,372.9440480571505 1263.905666653754,440.82883287346596 1186.3230554351078,518.4114440921122 C 1108.7404442164616,440.82883287346596 1128.136097021123,372.9440480571505 1186.3230554351078,324.4549160454966 Z" fill="url(#leaf17)" opacity="0.26" transform="rotate(37.4 1186.3 421.4)"/>
    <path d="M 909.4400782822937,763.9303167346727 C 955.6263930366662,802.4189123633164 971.0218312881236,856.3029462434175 909.4400782822937,917.8846992492474 C 847.8583252764638,856.3029462434175 863.2537635279213,802.4189123633164 909.4400782822937,763.9303167346727 Z" fill="url(#leaf18)" opacity="0.37" transform="rotate(327.3 909.4 840.9)"/>
    <path d="M 914.4439281118297,330.6248353987794 C 966.1277845769787,373.69471578640355 983.3557367320284,433.9925483290774 914.4439281118297,502.9043569492761 C 845.532119491631,433.9925483290774 862.7600716466807,373.69471578640355 914.4439281118297,330.6248353987794 Z" fill="url(#leaf19)" opacity="0.25" transform="rotate(266.0 914.4 416.8)"/>
    <path d="M 1017.4146765467098,152.71872362889536 C 1069.1845992651477,195.86032589426026 1086.4412401712937,256.25856906577116 1017.4146765467098,325.285132690355 C 948.3881129221259,256.25856906577116 965.6447538282719,195.86032589426026 1017.4146765467098,152.71872362889536 Z" fill="url(#leaf0)" opacity="0.35" transform="rotate(57.9 1017.4 239.0)"/>
    <path d="M 1589.1140251562308,349.9088089580573 C 1630.7638333362454,384.6169824414029 1644.6471027295838,433.2084253180867 1589.1140251562308,488.7415028914396 C 1533.5809475828778,433.2084253180867 1547.4642169762162,384.6169824414029 1589.1140251562308,349.9088089580573 Z" fill="url(#leaf1)" opacity="0.25" transform="rotate(188.0 1589.1 419.3)"/>
    <path d="M 1838.4686755983346,366.6973721257611 C 1866.0593534842426,389.68960369735106 1875.2562461128787,421.8787278975771 1838.4686755983346,458.6662984121211 C 1801.6811050837905,421.8787278975771 1810.8779977124266,389.68960369735106 1838.4686755983346,366.6973721257611 Z" fill="url(#leaf2)" opacity="0.33" transform="rotate(137.5 1838.5 412.7)"/>
    <path d="M 1632.8339121051501,563.7790082230047 C 1658.7270931786256,585.3566591175676 1667.3581535364508,615.5653703699556 1632.8339121051501,650.0896118012563 C 1598.3096706738495,615.5653703699556 1606.9407310316747,585.3566591175676 1632.8339121051501,563.7790082230047 Z" fill="url(#leaf3)" opacity="0.33" transform="rotate(195.5 1632.8 606.9)"/>
    <path d="M 498.36310955258324,622.9692576245111 C 552.5357746950799,668.1131452432584 570.5933297425788,731.3145879095046 498.36310955258324,803.5448080995002 C 426.1328893625876,731.3145879095046 444.1904444100865,668.1131452432584 498.36310955258324,622.9692576245111 Z" fill="url(#leaf4)" opacity="0.38" transform="rotate(8.3 498.4 713.3)"/>
    <path d="M 1585.111478206672,21.248917323326495 C 1643.2877993024997,69.72918490318284 1662.6799063344422,137.60155951498172 1585.111478206672,215.16998764275183 C 1507.5430500789018,137.60155951498172 1526.9351571108443,69.72918490318284 1585.111478206672,21.248917323326495 Z" fill="url(#leaf5)" opacity="0.32" transform="rotate(212.0 1585.1 118.2)"/>
    <path d="M 366.6051331252711,908.5732277189699 C 426.4826166674117,958.4711306707537 446.44177784812524,1028.328194803251 366.6051331252711,1108.1648395261052 C 286.76848840241695,1028.328194803251 306.72764958313047,958.4711306707537 366.6051331252711,908.5732277189699 Z" fill="url(#leaf6)" opacity="0.25" transform="rotate(158.9 366.6 1008.4)"/>
    <path d="M 172.82284416448897,487.3157940721237 C 203.586387916156,512.9520805318463 213.84090250004505,548.8428815754578 172.82284416448897,589.8609399110139 C 131.8047858289329,548.8428815754578 142.05930041282193,512.9520805318463 172.82284416448897,487.3157940721237 Z" fill="url(#leaf7)" opacity="0.27" transform="rotate(212.0 172.8 538.6)"/>
    <path d="M 1622.2466460720539,476.6161180081596 C 1649.1534200147921,499.0384296271082 1658.1223446623717,530.4296658936363 1622.2466460720539,566.3053644839541 C 1586.370947481736,530.4296658936363 1595.3398721293156,499.0384296271082 1622.2466460720539,476.6161180081596 Z" fill="url(#leaf8)" opacity="0.33" transform="rotate(357.9 1622.2 521.5)"/>
    <path d="M 568.7490683175588,294.8565844225702 C 626.8190773039398,343.2482585778878 646.1757469660669,410.9966023953324 568.7490683175588,488.42328104384046 C 491.3223896690507,410.9966023953324 510.67905933117777,343.2482585778878 568.7490683175588,294.8565844225702 Z" fill="url(#leaf9)" opacity="0.33" transform="rotate(288.5 568.7 391.6)"/>
    <path d="M 952.2818377935489,786.3767042101545 C 1001.0041037669268,826.9785925213027 1017.2448590913862,883.8212361569103 952.2818377935489,948.7842574547476 C 887.3188164957116,883.8212361569103 903.559571820171,826.9785925213027 952.2818377935489,786.3767042101545 Z" fill="url(#leaf10)" opacity="0.25" transform="rotate(274.3 952.3 867.6)"/>
    <path d="M 1395.8675139647708,469.3844443129683 C 1441.8643343090166,507.7151279331732 1457.1966077570987,561.3780850014601 1395.8675139647708,622.707178793788 C 1334.5384201724428,561.3780850014601 1349.870693620525,507.7151279331732 1395.8675139647708,469.3844443129683 Z" fill="url(#leaf11)" opacity="0.22" transform="rotate(47.0 1395.9 546.0)"/>
    <path d="M 1293.468578882806,355.9912796743174 C 1319.4214931979689,377.61870827028645 1328.0724646363565,407.89710830464304 1293.468578882806,442.50099405819344 C 1258.8646931292556,407.89710830464304 1267.5156645676432,377.61870827028645 1293.468578882806,355.9912796743174 Z" fill="url(#leaf12)" opacity="0.34" transform="rotate(58.3 1293.5 399.2)"/>
    <path d="M 117.58842146695766,464.55187206433374 C 176.68642125724367,513.8002052229054 196.38575452067235,582.7478716449058 117.58842146695766,661.5452046986204 C 38.79108841324296,582.7478716449058 58.49042167667164,513.8002052229054 117.58842146695766,464.55187206433374 Z" fill="url(#leaf13)" opacity="0.38" transform="rotate(173.8 117.6 563.0)"/>
    <path d="M 517.7955525856407,134.0879370284875 C 554.2350553215481,164.45418930841026 566.3815562335171,206.96694250030214 517.7955525856407,255.5529461481786 C 469.2095489377643,206.96694250030214 481.35604984973344,164.45418930841026 517.7955525856407,134.0879370284875 Z" fill="url(#leaf14)" opacity="0.34" transform="rotate(324.5 517.8 194.8)"/>
    <path d="M 106.95731148354704,577.8525214647376 C 164.65843424548032,625.9367904330154 183.89214183279142,693.2547669886042 106.95731148354704,770.1895973378486 C 30.02248113430265,693.2547669886042 49.25618872161376,625.9367904330154 106.95731148354704,577.8525214647376 Z" fill="url(#leaf15)" opacity="0.23" transform="rotate(47.2 107.0 674.0)"/>
    <path d="M 884.0097660792838,366.6228259647203 C 927.2413667683807,402.64915987230097 941.6519003314129,453.0860273429139 884.0097660792838,510.72816159504293 C 826.3676318271548,453.0860273429139 840.778165390187,402.64915987230097 884.0097660792838,366.6228259647203 Z" fill="url(#leaf16)" opacity="0.20" transform="rotate(338.8 884.0 438.7)"/>
    <path d="M 1590.8301862428805,882.0324993201298 C 1628.6921548047305,913.5841397883382 1641.312810992014,957.7564364438301 1590.8301862428805,1008.2390611929636 C 1540.347561493747,957.7564364438301 1552.9682176810304,913.5841397883382 1590.8301862428805,882.0324993201298 Z" fill="url(#leaf17)" opacity="0.31" transform="rotate(161.8 1590.8 945.1)"/>
    <path d="M 1635.5392654357488,376.39972221492286 C 1675.8803812742942,410.01731874704404 1689.3274198871427,457.0819538920137 1635.5392654357488,510.8701083434076 C 1581.751110984355,457.0819538920137 1595.1981495972034,410.01731874704404 1635.5392654357488,376.39972221492286 Z" fill="url(#leaf18)" opacity="0.35" transform="rotate(155.0 1635.5 443.6)"/>
    <path d="M 579.2474476438379,804.7639829868117 C 625.073470437724,842.9523353150502 640.3488113690195,896.4160285745841 579.2474476438379,957.5173922997656 C 518.1460839186562,896.4160285745841 533.4214248499517,842.9523353150502 579.2474476438379,804.7639829868117 Z" fill="url(#leaf19)" opacity="0.34" transform="rotate(300.1 579.2 881.1)"/>
    <path d="M 931.3079400961668,609.1799678682452 C 968.3462359995839,640.045214454426 980.6923346340561,683.2565596750792 931.3079400961668,732.6409542129685 C 881.9235455582775,683.2565596750792 894.2696441927498,640.045214454426 931.3079400961668,609.1799678682452 Z" fill="url(#leaf0)" opacity="0.37" transform="rotate(163.3 931.3 670.9)"/>
    <path d="M 1305.2630488535324,906.2511900672647 C 1346.094354944315,940.2772784762503 1359.7047903079092,987.91380224883 1305.2630488535324,1042.3555437032069 C 1250.8213073991556,987.91380224883 1264.4317427627498,940.2772784762503 1305.2630488535324,906.2511900672647 Z" fill="url(#leaf1)" opacity="0.30" transform="rotate(117.8 1305.3 974.3)"/>
    <path d="M 516.4180775907344,646.6539509485496 C 547.7073648240126,672.7283569762815 558.1371272351054,709.2325254151061 516.4180775907344,750.9515750594772 C 474.69902794636334,709.2325254151061 485.12879035745607,672.7283569762815 516.4180775907344,646.6539509485496 Z" fill="url(#leaf2)" opacity="0.20" transform="rotate(56.6 516.4 698.8)"/>
    <path d="M 287.468908397228,79.95122801655543 C 331.1351791072846,116.3397869416026 345.69060267730345,167.28376943666862 287.468908397228,225.5054637167441 C 229.24721411715254,167.28376943666862 243.8026376871714,116.3397869416026 287.468908397228,79.95122801655543 Z" fill="url(#leaf3)" opacity="0.31" transform="rotate(316.4 287.5 152.7)"/>
    <path d="M 1866.689795678265,896.807272795255 C 1892.0205379663375,917.9162247019821 1900.4641187290283,947.4687573714001 1866.689795678265,981.2430804221634 C 1832.9154726275017,947.4687573714001 1841.3590533901925,917.9162247019821 1866.689795678265,896.807272795255 Z" fill="url(#leaf4)" opacity="0.25" transform="rotate(84.6 1866.7 939.0)"/>
    <path d="M 1034.417219006124,490.7943279520475 C 1058.4402088453955,510.81348615144043 1066.4478721251526,538.8403076305905 1034.417219006124,570.8709607496191 C 1002.3865658870953,538.8403076305905 1010.3942291668526,510.81348615144043 1034.417219006124,490.7943279520475 Z" fill="url(#leaf5)" opacity="0.37" transform="rotate(256.8 1034.4 530.8)"/>
    <path d="M 1750.5841870299262,271.6069575425184 C 1790.0851376214882,304.5244163688202 1803.252121152009,350.60885872564273 1750.5841870299262,403.27679284772563 C 1697.9162529078433,350.60885872564273 1711.083236438364,304.5244163688202 1750.5841870299262,271.6069575425184 Z" fill="url(#leaf6)" opacity="0.32" transform="rotate(267.4 1750.6 337.4)"/>
    <path d="M 1154.189471633873,79.25345711180992 C 1193.6535390155982,112.14017992991423 1206.8082281428399,158.18159187526024 1154.189471633873,210.80034838422714 C 1101.570715124906,158.18159187526024 1114.7254042521477,112.14017992991423 1154.189471633873,79.25345711180992 Z" fill="url(#leaf7)" opacity="0.38" transform="rotate(135.0 1154.2 145.0)"/>
    <path d="M 1573.323996421183,758.7595849729751 C 1599.4311245091553,780.5155250462855 1608.1335005384797,810.97384114892 1573.323996421183,845.7833452662167 C 1538.5144923038863,810.97384114892 1547.2168683332106,780.5155250462855 1573.323996421183,758.7595849729751 Z" fill="url(#leaf8)" opacity="0.22" transform="rotate(285.7 1573.3 802.3)"/>
    <path d="M 761.695323601488,6.039283639835716 C 817.077761364193,52.191315108756534 835.5385739517612,116.80415916524568 761.695323601488,190.64740951551897 C 687.8520732512147,116.80415916524568 706.312885838783,52.191315108756534 761.695323601488,6.039283639835716 Z" fill="url(#leaf9)" opacity="0.20" transform="rotate(340.5 761.7 98.3)"/>
    <path d="M 1033.3765725051317,420.685804112823 C 1091.8119676629863,469.38196674436847 1111.2904327156043,537.5565944285321 1033.3765725051317,615.4704546390049 C 955.4627122946589,537.5565944285321 974.9411773472771,469.38196674436847 1033.3765725051317,420.685804112823 Z" fill="url(#leaf10)" opacity="0.27" transform="rotate(99.0 1033.4 518.1)"/>
    <path d="M 1014.4200886260335,886.3628969277365 C 1052.7815678602872,918.3307962896146 1065.5687276050385,963.0858553962439 1014.4200886260335,1014.2344943752489 C 963.2714496470285,963.0858553962439 976.0586093917798,918.3307962896146 1014.4200886260335,886.3628969277365 Z" fill="url(#leaf11)" opacity="0.29" transform="rotate(158.2 1014.4 950.3)"/>
    <path d="M 804.6163813430558,397.73509794681064 C 838.3404205940253,425.8384639892853 849.5817670110152,465.18317644874986 804.6163813430558,510.14856211670934 C 759.6509956750963,465.18317644874986 770.8923420920862,425.8384639892853 804.6163813430558,397.73509794681064 Z" fill="url(#leaf12)" opacity="0.26" transform="rotate(32.1 804.6 453.9)"/>
    <path d="M 598.1619210158314,784.9897291551289 C 637.3894112615608,817.6793043599034 650.4652413434707,863.4447096465877 598.1619210158314,915.748029974227 C 545.858600688192,863.4447096465877 558.9344307701019,817.6793043599034 598.1619210158314,784.9897291551289 Z" fill="url(#leaf13)" opacity="0.26" transform="rotate(269.6 598.2 850.4)"/>
    <path d="M 1560.0204183909284,41.46565444101089 C 1584.3840854100238,61.768710290257005 1592.505307749722,90.19298847920157 1560.0204183909284,122.67787783799537 C 1527.5355290321347,90.19298847920157 1535.656751371833,61.768710290257005 1560.0204183909284,41.46565444101089 Z" fill="url(#leaf14)" opacity="0.21" transform="rotate(208.2 1560.0 82.1)"/>
    <path d="M 720.5679841161146,689.1253048561405 C 755.207566558025,717.9916235577324 766.7540940386617,758.4044697399611 720.5679841161146,804.5905796625082 C 674.3818741935676,758.4044697399611 685.9284016742043,717.9916235577324 720.5679841161146,689.1253048561405 Z" fill="url(#leaf15)" opacity="0.33" transform="rotate(264.7 720.6 746.9)"/>
    <path d="M 411.0232942576085,724.2848328759762 C 454.3262718437586,760.3706475311013 468.76059770580866,810.8907880482765 411.0232942576085,868.6280914964766 C 353.2859908094083,810.8907880482765 367.72031667145836,760.3706475311013 411.0232942576085,724.2848328759762 Z" fill="url(#leaf16)" opacity="0.39" transform="rotate(295.5 411.0 796.5)"/>
    <path d="M 1220.6767846547725,241.4565007854191 C 1263.6447377030613,277.26312832565986 1277.9673887191577,327.39240688199686 1220.6767846547725,384.683010946382 C 1163.3861805903873,327.39240688199686 1177.7088316064837,277.26312832565986 1220.6767846547725,241.4565007854191 Z" fill="url(#leaf17)" opacity="0.37" transform="rotate(87.3 1220.7 313.1)"/>
    <path d="M 296.0269680252909,864.2325758624203 C 351.58621575854477,910.5319489734651 370.10596500296276,975.351071328928 296.0269680252909,1049.4300683065999 C 221.94797104761906,975.351071328928 240.46772029203703,910.5319489734651 296.0269680252909,864.2325758624203 Z" fill="url(#leaf18)" opacity="0.29" transform="rotate(212.7 296.0 956.8)"/>
    <path d="M 447.1805080488729,388.33181664249463 C 488.32357934938733,422.61770939292336 502.03793644955886,470.6179592435235 447.1805080488729,525.4753876442094 C 392.323079648187,470.6179592435235 406.0374367483585,422.61770939292336 447.1805080488729,388.33181664249463 Z" fill="url(#leaf19)" opacity="0.23" transform="rotate(321.3 447.2 456.9)"/>
    <path d="M 1031.3599337001235,289.8760411066927 C 1079.6250936142321,330.09700770178324 1095.7134802522683,386.4063609349099 1031.3599337001235,450.75990748705476 C 967.0063871479787,386.4063609349099 983.0947737860149,330.09700770178324 1031.3599337001235,289.8760411066927 Z" fill="url(#leaf0)" opacity="0.24" transform="rotate(55.2 1031.4 370.3)"/>
    <path d="M 211.1618137632948,317.4136846481117 C 250.6678658401571,350.3353947121637 263.8365498657779,396.4257888018364 211.1618137632948,449.1005249043195 C 158.48707766081168,396.4257888018364 171.65576168643247,350.3353947121637 211.1618137632948,317.4136846481117 Z" fill="url(#leaf1)" opacity="0.23" transform="rotate(189.6 211.2 383.3)"/>
    <path d="M 1785.8246576709978,82.63516439265914 C 1823.810501003089,114.29003383606846 1836.4724487804526,158.60685105684152 1785.8246576709978,209.25464216629643 C 1735.176866561543,158.60685105684152 1747.8388143389066,114.29003383606846 1785.8246576709978,82.63516439265914 Z" fill="url(#leaf2)" opacity="0.32" transform="rotate(206.5 1785.8 145.9)"/>
  </g>

  <!-- Central star shape -->
  <polygon points="960.0,213.8 1055.9,408.1 1270.2,439.2 1115.1,590.4 1151.7,803.9 960.0,703.1 768.3,803.9 804.9,590.4 649.8,439.2 864.1,408.1" 
           fill="#96E6A1" 
           transform="rotate(349.6 960.0 540.0)"/>
</svg>