<?xml version="1.0" encoding="UTF-8"?>
<svg xmlns="http://www.w3.org/2000/svg" viewBox="0 0 1920 1080" width="1920" height="1080">
  <defs>
    <linearGradient id="bgGrad" x1="0%" y1="0%" x2="100%" y2="100%">
      <stop offset="0%" stop-color="#00FA9A"/>
      <stop offset="100%" stop-color="#00CED1"/>
    </linearGradient>
    <clipPath id="complexClip"><polygon points="1318.7,540.0 1425.2,595.6 1293.2,623.4 1252.1,659.4 1335.6,774.7 1177.2,751.6 1064.1,720.2 1002.0,765.0 917.7,766.2 793.9,827.5 747.1,747.5 598.8,765.7 634.0,673.2 468.5,663.1 486.0,596.7 428.8,540.0 458.4,480.0 499.5,424.7 590.4,389.0 640.3,340.3 746.6,332.1 827.5,310.7 922.3,338.4 1019.2,223.4 1114.0,273.4 1232.6,274.4 1338.1,303.8 1350.0,380.6 1453.0,416.5 1372.4,490.7"/></clipPath>
    <radialGradient id="leaf0" cx="50%" cy="50%" r="70%">
      <stop offset="0%" stop-color="#FFE66D"/>
      <stop offset="50%" stop-color="#FF69B4"/>
      <stop offset="100%" stop-color="#9370DB"/>
    </radialGradient>
    <radialGradient id="leaf1" cx="50%" cy="50%" r="70%">
      <stop offset="0%" stop-color="#DC143C"/>
      <stop offset="50%" stop-color="#00CED1"/>
      <stop offset="100%" stop-color="#45B7D1"/>
    </radialGradient>
    <radialGradient id="leaf2" cx="50%" cy="50%" r="70%">
      <stop offset="0%" stop-color="#96E6A1"/>
      <stop offset="50%" stop-color="#32CD32"/>
      <stop offset="100%" stop-color="#FF6B6B"/>
    </radialGradient>
    <radialGradient id="leaf3" cx="50%" cy="50%" r="70%">
      <stop offset="0%" stop-color="#DC143C"/>
      <stop offset="50%" stop-color="#FFE66D"/>
      <stop offset="100%" stop-color="#4ECDC4"/>
    </radialGradient>
    <radialGradient id="leaf4" cx="50%" cy="50%" r="70%">
      <stop offset="0%" stop-color="#FFE66D"/>
      <stop offset="50%" stop-color="#DC143C"/>
      <stop offset="100%" stop-color="#00FA9A"/>
    </radialGradient>
    <radialGradient id="leaf5" cx="50%" cy="50%" r="70%">
      <stop offset="0%" stop-color="#FFD700"/>
      <stop offset="50%" stop-color="#FF69B4"/>
      <stop offset="100%" stop-color="#FF6B6B"/>
    </radialGradient>
    <radialGradient id="leaf6" cx="50%" cy="50%" r="70%">
      <stop offset="0%" stop-color="#FFD700"/>
      <stop offset="50%" stop-color="#00CED1"/>
      <stop offset="100%" stop-color="#FF6B6B"/>
    </radialGradient>
    <radialGradient id="leaf7" cx="50%" cy="50%" r="70%">
      <stop offset="0%" stop-color="#7B68EE"/>
      <stop offset="50%" stop-color="#FF4500"/>
      <stop offset="100%" stop-color="#FFD700"/>
    </radialGradient>
    <radialGradient id="leaf8" cx="50%" cy="50%" r="70%">
      <stop offset="0%" stop-color="#FF4500"/>
      <stop offset="50%" stop-color="#00CED1"/>
      <stop offset="100%" stop-color="#9370DB"/>
    </radialGradient>
    <radialGradient id="leaf9" cx="50%" cy="50%" r="70%">
      <stop offset="0%" stop-color="#4ECDC4"/>
      <stop offset="50%" stop-color="#FFD700"/>
      <stop offset="100%" stop-color="#FF69B4"/>
    </radialGradient>
    <radialGradient id="leaf10" cx="50%" cy="50%" r="70%">
      <stop offset="0%" stop-color="#32CD32"/>
      <stop offset="50%" stop-color="#00CED1"/>
      <stop offset="100%" stop-color="#96E6A1"/>
    </radialGradient>
    <radialGradient id="leaf11" cx="50%" cy="50%" r="70%">
      <stop offset="0%" stop-color="#FF6B6B"/>
      <stop offset="50%" stop-color="#DC143C"/>
      <stop offset="100%" stop-color="#FF4500"/>
    </radialGradient>
    <radialGradient id="leaf12" cx="50%" cy="50%" r="70%">
      <stop offset="0%" stop-color="#45B7D1"/>
      <stop offset="50%" stop-color="#FF4500"/>
      <stop offset="100%" stop-color="#FFD700"/>
    </radialGradient>
    <radialGradient id="leaf13" cx="50%" cy="50%" r="70%">
      <stop offset="0%" stop-color="#45B7D1"/>
      <stop offset="50%" stop-color="#FF69B4"/>
      <stop offset="100%" stop-color="#7B68EE"/>
    </radialGradient>
    <radialGradient id="leaf14" cx="50%" cy="50%" r="70%">
      <stop offset="0%" stop-color="#FF4500"/>
      <stop offset="50%" stop-color="#FF1493"/>
      <stop offset="100%" stop-color="#7B68EE"/>
    </radialGradient>
    <radialGradient id="leaf15" cx="50%" cy="50%" r="70%">
      <stop offset="0%" stop-color="#32CD32"/>
      <stop offset="50%" stop-color="#FF6B6B"/>
      <stop offset="100%" stop-color="#FF4500"/>
    </radialGradient>
    <radialGradient id="leaf16" cx="50%" cy="50%" r="70%">
      <stop offset="0%" stop-color="#9370DB"/>
      <stop offset="50%" stop-color="#FF69B4"/>
      <stop offset="100%" stop-color="#32CD32"/>
    </radialGradient>
    <radialGradient id="leaf17" cx="50%" cy="50%" r="70%">
      <stop offset="0%" stop-color="#DC143C"/>
      <stop offset="50%" stop-color="#45B7D1"/>
      <stop offset="100%" stop-color="#96E6A1"/>
    </radialGradient>
    <radialGradient id="leaf18" cx="50%" cy="50%" r="70%">
      <stop offset="0%" stop-color="#7B68EE"/>
      <stop offset="50%" stop-color="#FFD700"/>
      <stop offset="100%" stop-color="#FF4500"/>
    </radialGradient>
    <radialGradient id="leaf19" cx="50%" cy="50%" r="70%">
      <stop offset="0%" stop-color="#96E6A1"/>
      <stop offset="50%" stop-color="#9370DB"/>
      <stop offset="100%" stop-color="#DC143C"/>
    </radialGradient>
  </defs>

  <!-- Background -->
  <rect width="1920" height="1080" fill="url(#bgGrad)"/>
  
  <!-- Leaves with clip-path -->
  <g clip-path="url(#complexClip)">
    <path d="M 462.8783881987921,464.1062262328447 C 487.1914129580462,484.36708019888977 495.2957545444643,512.7322757513529 462.8783881987921,545.1496420970251 C 430.4610218531199,512.7322757513529 438.565363439538,484.36708019888977 462.8783881987921,464.1062262328447 Z" fill="url(#leaf0)" opacity="0.28" transform="rotate(308.5 462.9 504.6)"/>
    <path d="M 1010.2018141865206,688.8030092441466 C 1055.4387131575772,726.5004250533605 1070.5176794812628,779.27680718626 1010.2018141865206,839.5926724810024 C 949.8859488917782,779.27680718626 964.9649152154637,726.5004250533605 1010.2018141865206,688.8030092441466 Z" fill="url(#leaf1)" opacity="0.23" transform="rotate(97.7 1010.2 764.2)"/>
    <path d="M 320.1313536227102,670.1899100606543 C 358.06944135222176,701.8049831685805 370.7154705953923,746.0660855196772 320.1313536227102,796.6502024923593 C 269.54723665002814,746.0660855196772 282.19326589319866,701.8049831685805 320.1313536227102,670.1899100606543 Z" fill="url(#leaf2)" opacity="0.23" transform="rotate(36.9 320.1 733.4)"/>
    <path d="M 1003.8921108095375,100.27413401987417 C 1039.3857795161382,129.8521912753747 1051.2170024183383,171.26147143307543 1003.8921108095375,218.58636304187627 C 956.5672192007366,171.26147143307543 968.3984421029369,129.8521912753747 1003.8921108095375,100.27413401987417 Z" fill="url(#leaf3)" opacity="0.38" transform="rotate(91.3 1003.9 159.4)"/>
    <path d="M 808.8527032477973,226.09095887449718 C 836.92762733356,249.48672894596612 846.2859353621476,282.24080704602267 808.8527032477973,319.67403916037296 C 771.419471133447,282.24080704602267 780.7777791620346,249.48672894596612 808.8527032477973,226.09095887449718 Z" fill="url(#leaf4)" opacity="0.30" transform="rotate(50.2 808.9 272.9)"/>
    <path d="M 697.8025581277994,934.9586113392518 C 728.1593977470574,960.2559776886334 738.27834428681,995.6722905777676 697.8025581277994,1036.1480767367782 C 657.3267719687889,995.6722905777676 667.4457185085415,960.2559776886334 697.8025581277994,934.9586113392518 Z" fill="url(#leaf5)" opacity="0.27" transform="rotate(173.4 697.8 985.6)"/>
    <path d="M 112.2901028836804,621.009018373746 C 138.9110366642953,643.1931298575918 147.7846812578336,674.2508859349758 112.2901028836804,709.745464309129 C 76.79552450952721,674.2508859349758 85.66916910306551,643.1931298575918 112.2901028836804,621.009018373746 Z" fill="url(#leaf6)" opacity="0.30" transform="rotate(203.3 112.3 665.4)"/>
    <path d="M 1362.0677057076668,123.90410849422568 C 1413.6055647261169,166.85232434293408 1430.7848510656004,226.97982653112584 1362.0677057076668,295.6969718890593 C 1293.3505603497333,226.97982653112584 1310.5298466892168,166.85232434293408 1362.0677057076668,123.90410849422568 Z" fill="url(#leaf7)" opacity="0.39" transform="rotate(198.1 1362.1 209.8)"/>
    <path d="M 951.6007552282801,130.51086877620918 C 1004.0273417628024,174.19969088831104 1021.5028706076431,235.36404184525364 951.6007552282801,305.2661572246166 C 881.6986398489172,235.36404184525364 899.1741686937579,174.19969088831104 951.6007552282801,130.51086877620918 Z" fill="url(#leaf8)" opacity="0.35" transform="rotate(187.2 951.6 217.9)"/>
    <path d="M 1598.6569255484821,710.3475623722616 C 1641.9368502579146,746.4141662967885 1656.3634918277253,796.9074117911262 1598.6569255484821,854.6139780703693 C 1540.950359269239,796.9074117911262 1555.3770008390497,746.4141662967885 1598.6569255484821,710.3475623722616 Z" fill="url(#leaf9)" opacity="0.36" transform="rotate(25.6 1598.7 782.5)"/>
    <path d="M 782.534442539591,913.0551143725783 C 833.0285464583783,955.1335343049009 849.8599144313073,1014.0433222101527 782.534442539591,1081.3687941018688 C 715.2089706478748,1014.0433222101527 732.0403386208038,955.1335343049009 782.534442539591,913.0551143725783 Z" fill="url(#leaf10)" opacity="0.30" transform="rotate(121.5 782.5 997.2)"/>
    <path d="M 1368.4823829191332,761.3494262356315 C 1401.079118455155,788.5133725156495 1411.944696967162,826.5428973076747 1368.4823829191332,870.0052113557034 C 1325.0200688711045,826.5428973076747 1335.8856473831115,788.5133725156495 1368.4823829191332,761.3494262356315 Z" fill="url(#leaf11)" opacity="0.20" transform="rotate(250.5 1368.5 815.7)"/>
    <path d="M 185.05977196272286,170.02596689167245 C 226.88443111134495,204.87984951552423 240.82598416088567,253.6752851889167 185.05977196272286,309.4414973870795 C 129.29355976456006,253.6752851889167 143.23511281410077,204.87984951552423 185.05977196272286,170.02596689167245 Z" fill="url(#leaf12)" opacity="0.34" transform="rotate(295.1 185.1 239.7)"/>
    <path d="M 317.2216170464303,811.7173566911341 C 369.6148817191758,855.3784105850888 387.0793032767577,916.5038860366252 317.2216170464303,986.3615722669525 C 247.36393081610294,916.5038860366252 264.8283523736848,855.3784105850888 317.2216170464303,811.7173566911341 Z" fill="url(#leaf13)" opacity="0.29" transform="rotate(16.3 317.2 899.0)"/>
    <path d="M 150.86387576751451,956.1892674932101 C 187.08084589730151,986.3700759346992 199.15316927389716,1028.623207752784 150.86387576751451,1076.9125012591667 C 102.57458226113185,1028.623207752784 114.64690563772751,986.3700759346992 150.86387576751451,956.1892674932101 Z" fill="url(#leaf14)" opacity="0.39" transform="rotate(212.5 150.9 1016.6)"/>
    <path d="M 1323.9189986608826,126.89454066191826 C 1360.119151006077,157.06133428291346 1372.185868454475,199.29484535230677 1323.9189986608826,247.5617151458991 C 1275.6521288672902,199.29484535230677 1287.7188463156883,157.06133428291346 1323.9189986608826,126.89454066191826 Z" fill="url(#leaf15)" opacity="0.21" transform="rotate(313.7 1323.9 187.2)"/>
    <path d="M 1239.1984255516047,249.02234190833553 C 1267.2422204018035,272.39217095016784 1276.5901520185364,305.10993160873306 1239.1984255516047,342.50165807566475 C 1201.806699084673,305.10993160873306 1211.154630701406,272.39217095016784 1239.1984255516047,249.02234190833553 Z" fill="url(#leaf16)" opacity="0.38" transform="rotate(312.9 1239.2 295.8)"/>
    <path d="M 1536.9322731922834,854.5449156298412 C 1576.1345026763925,887.2134401999319 1589.2019125044287,932.949374598059 1536.9322731922834,985.2190139102042 C 1484.6626338801382,932.949374598059 1497.7300437081744,887.2134401999319 1536.9322731922834,854.5449156298412 Z" fill="url(#leaf17)" opacity="0.27" transform="rotate(21.5 1536.9 919.9)"/>
    <path d="M 1398.7251230008403,573.8704346775959 C 1439.741380327318,608.0506491163272 1453.4134661028106,655.9029493305512 1398.7251230008403,710.5912924325215 C 1344.03677989887,655.9029493305512 1357.7088656743626,608.0506491163272 1398.7251230008403,573.8704346775959 Z" fill="url(#leaf18)" opacity="0.35" transform="rotate(77.9 1398.7 642.2)"/>
    <path d="M 793.3537031265356,629.2388181460922 C 824.4956533591076,655.1904433399021 834.8763034366316,691.5227186112361 793.3537031265356,733.045318921332 C 751.8311028164396,691.5227186112361 762.2117528939636,655.1904433399021 793.3537031265356,629.2388181460922 Z" fill="url(#leaf19)" opacity="0.37" transform="rotate(324.9 793.4 681.1)"/>
    <path d="M 1076.0524331730087,741.5189562912528 C 1134.7944933918134,790.4706731402567 1154.375180131415,859.0030767288622 1076.0524331730087,937.3258236872684 C 997.7296862146025,859.0030767288622 1017.310372954204,790.4706731402567 1076.0524331730087,741.5189562912528 Z" fill="url(#leaf0)" opacity="0.31" transform="rotate(99.4 1076.1 839.4)"/>
    <path d="M 1497.1266739471528,155.13846715766786 C 1533.2447041734795,185.23682567960688 1545.2840475822552,227.3745276103215 1497.1266739471528,275.5319012454239 C 1448.9693003120503,227.3745276103215 1461.008643720826,185.23682567960688 1497.1266739471528,155.13846715766786 Z" fill="url(#leaf1)" opacity="0.32" transform="rotate(149.8 1497.1 215.3)"/>
    <path d="M 1459.75266572219,662.0213218845381 C 1496.2584037897561,692.4427702741766 1508.4269831456115,735.0327980196705 1459.75266572219,783.7071154430921 C 1411.0783482987683,735.0327980196705 1423.2469276546237,692.4427702741766 1459.75266572219,662.0213218845381 Z" fill="url(#leaf2)" opacity="0.28" transform="rotate(196.4 1459.8 722.9)"/>
    <path d="M 537.8348593597683,527.9861950462589 C 571.9224981769657,556.3925607272568 583.2850444493649,596.1614726806538 537.8348593597683,641.6116577702503 C 492.38467427017173,596.1614726806538 503.74722054257086,556.3925607272568 537.8348593597683,527.9861950462589 Z" fill="url(#leaf3)" opacity="0.23" transform="rotate(247.2 537.8 584.8)"/>
    <path d="M 896.062226473831,79.09628426372512 C 932.4893758709635,109.45224209466892 944.631759003341,151.95058305799023 896.062226473831,200.5201155875003 C 847.4926939443209,151.95058305799023 859.6350770766984,109.45224209466892 896.062226473831,79.09628426372512 Z" fill="url(#leaf4)" opacity="0.21" transform="rotate(104.7 896.1 139.8)"/>
    <path d="M 976.4594927906197,400.81856304697436 C 1010.4146747086509,429.114547978667 1021.733068681328,468.72892688303665 976.4594927906197,514.0025027737449 C 931.1859168999115,468.72892688303665 942.5043108725886,429.114547978667 976.4594927906197,400.81856304697436 Z" fill="url(#leaf5)" opacity="0.25" transform="rotate(53.2 976.5 457.4)"/>
    <path d="M 1252.174588291174,108.35131328957674 C 1306.1631043253892,153.3417433180894 1324.1592763367942,216.32834535800714 1252.174588291174,288.3130334036274 C 1180.1899002455536,216.32834535800714 1198.1860722569586,153.3417433180894 1252.174588291174,108.35131328957674 Z" fill="url(#leaf6)" opacity="0.30" transform="rotate(58.1 1252.2 198.3)"/>
    <path d="M 1420.479223877873,907.5503988304774 C 1474.174595103534,952.2965415185283 1492.0730521787543,1014.9411412817994 1420.479223877873,1086.5349695826808 C 1348.8853955769916,1014.9411412817994 1366.7838526522119,952.2965415185283 1420.479223877873,907.5503988304774 Z" fill="url(#leaf7)" opacity="0.25" transform="rotate(344.9 1420.5 997.0)"/>
    <path d="M 271.8605265773829,640.649849048725 C 314.48343139215274,676.1689363943665 328.6910663304094,725.8956586782647 271.8605265773829,782.7261984312911 C 215.02998682435648,725.8956586782647 229.23762176261312,676.1689363943665 271.8605265773829,640.649849048725 Z" fill="url(#leaf8)" opacity="0.31" transform="rotate(129.9 271.9 711.7)"/>
    <path d="M 714.962434902935,552.1206869068371 C 759.6122264431314,589.3288465236674 774.4954902898635,641.4202699872299 714.962434902935,700.9533253741583 C 655.4293795160065,641.4202699872299 670.3126433627386,589.3288465236674 714.962434902935,552.1206869068371 Z" fill="url(#leaf9)" opacity="0.31" transform="rotate(243.6 715.0 626.5)"/>
    <path d="M 1576.9018667046275,482.9189343489829 C 1603.9309788291007,505.4431944527106 1612.940682870592,536.9771585979294 1576.9018667046275,573.0159747638936 C 1540.8630505386632,536.9771585979294 1549.8727545801544,505.4431944527106 1576.9018667046275,482.9189343489829 Z" fill="url(#leaf10)" opacity="0.35" transform="rotate(55.1 1576.9 528.0)"/>
    <path d="M 1038.9338267986575,565.0236139405802 C 1094.9351249550878,611.6913624042721 1113.6022243405646,677.0262102534407 1038.9338267986575,751.6946077953478 C 964.2654292567505,677.0262102534407 982.9325286422272,611.6913624042721 1038.9338267986575,565.0236139405802 Z" fill="url(#leaf11)" opacity="0.24" transform="rotate(178.7 1038.9 658.4)"/>
    <path d="M 1063.5543026040523,456.7277014841214 C 1097.0977150151787,484.68054516006015 1108.2788524855544,523.8145263063743 1063.5543026040523,568.5390761878763 C 1018.8297527225503,523.8145263063743 1030.010890192926,484.68054516006015 1063.5543026040523,456.7277014841214 Z" fill="url(#leaf12)" opacity="0.22" transform="rotate(305.1 1063.6 512.6)"/>
    <path d="M 1009.5167703509193,842.1381377210477 C 1041.1436551636486,868.4938750649887 1051.6859501012252,905.3919073465064 1009.5167703509193,947.5610870968122 C 967.3475906006134,905.3919073465064 977.8898855381899,868.4938750649887 1009.5167703509193,842.1381377210477 Z" fill="url(#leaf13)" opacity="0.21" transform="rotate(338.6 1009.5 894.8)"/>
    <path d="M 1711.9708242249417,347.0538185813705 C 1743.9281164861388,373.68489546570146 1754.5805472398713,410.96840310376484 1711.9708242249417,453.5781261186944 C 1669.361101210012,410.96840310376484 1680.0135319637445,373.68489546570146 1711.9708242249417,347.0538185813705 Z" fill="url(#leaf14)" opacity="0.38" transform="rotate(131.7 1712.0 400.3)"/>
    <path d="M 486.9279253538901,182.85257703731168 C 537.2528798253579,224.79003909686816 554.0278646491804,283.50248598024723 486.9279253538901,350.6024252755376 C 419.8279860585997,283.50248598024723 436.6029708824223,224.79003909686816 486.9279253538901,182.85257703731168 Z" fill="url(#leaf15)" opacity="0.37" transform="rotate(17.0 486.9 266.7)"/>
    <path d="M 264.7396019020546,866.1888317750027 C 314.27391384848124,907.4674250636915 330.78535116395676,965.2574556678559 264.7396019020546,1031.303204929758 C 198.69385264015236,965.2574556678559 215.2052899556279,907.4674250636915 264.7396019020546,866.1888317750027 Z" fill="url(#leaf16)" opacity="0.25" transform="rotate(102.3 264.7 948.7)"/>
    <path d="M 537.8202878930828,914.2173510464871 C 581.1683396383404,950.3407275008685 595.617690220093,1000.9134545370025 537.8202878930828,1058.7108568640128 C 480.02288556607255,1000.9134545370025 494.4722361478251,950.3407275008685 537.8202878930828,914.2173510464871 Z" fill="url(#leaf17)" opacity="0.34" transform="rotate(81.1 537.8 986.5)"/>
    <path d="M 150.6707111272916,615.49721117138 C 178.2848065070136,638.5089573211483 187.48950496692092,670.725401930824 150.6707111272916,707.5441957704533 C 113.8519172876623,670.725401930824 123.05661574756962,638.5089573211483 150.6707111272916,615.49721117138 Z" fill="url(#leaf18)" opacity="0.20" transform="rotate(203.9 150.7 661.5)"/>
    <path d="M 560.1460344390289,73.53773808634381 C 592.383173513523,100.40202064842232 603.1288865383545,138.01201623533225 560.1460344390289,180.99486833465787 C 517.1631823397032,138.01201623533225 527.9088953645347,100.40202064842232 560.1460344390289,73.53773808634381 Z" fill="url(#leaf19)" opacity="0.27" transform="rotate(58.3 560.1 127.3)"/>
    <path d="M 187.87790356050502,66.87567658419971 C 215.0407623191429,89.51139221639795 224.09504857202222,121.2013941014755 187.87790356050502,157.4185391129927 C 151.66075854898781,121.2013941014755 160.71504480186712,89.51139221639795 187.87790356050502,66.87567658419971 Z" fill="url(#leaf0)" opacity="0.26" transform="rotate(248.1 187.9 112.1)"/>
    <path d="M 1572.5685771063243,649.3769626511901 C 1599.4688641991902,671.7938685619117 1608.435626563479,703.1775368369221 1572.5685771063243,739.0445862940767 C 1536.7015276491695,703.1775368369221 1545.6682900134583,671.7938685619117 1572.5685771063243,649.3769626511901 Z" fill="url(#leaf1)" opacity="0.38" transform="rotate(212.6 1572.6 694.2)"/>
    <path d="M 817.5152986629316,247.98574915136922 C 857.6482754485083,281.42989647268314 871.0259343770339,328.2517027225227 817.5152986629316,381.762338436625 C 764.0046629488294,328.2517027225227 777.3823218773549,281.42989647268314 817.5152986629316,247.98574915136922 Z" fill="url(#leaf2)" opacity="0.31" transform="rotate(13.5 817.5 314.9)"/>
    <path d="M 941.2788422848093,401.0466636762935 C 969.2339363220772,424.34257537401675 978.5523010011665,456.9568517508292 941.2788422848093,494.2303104671863 C 904.0053835684522,456.9568517508292 913.3237482475415,424.34257537401675 941.2788422848093,401.0466636762935 Z" fill="url(#leaf3)" opacity="0.37" transform="rotate(302.6 941.3 447.6)"/>
    <path d="M 1439.337716762209,230.8079913032101 C 1487.1579609321548,270.6581947781648 1503.0980423221367,326.44847964310145 1439.337716762209,390.208805203029 C 1375.5773912022814,326.44847964310145 1391.5174725922634,270.6581947781648 1439.337716762209,230.8079913032101 Z" fill="url(#leaf4)" opacity="0.32" transform="rotate(292.9 1439.3 310.5)"/>
    <path d="M 137.0170249877822,111.52991481254992 C 178.90384536151208,146.43559845732483 192.86611881942207,195.3035555600097 137.0170249877822,251.15264939164956 C 81.16793115614234,195.3035555600097 95.13020461405232,146.43559845732483 137.0170249877822,111.52991481254992 Z" fill="url(#leaf5)" opacity="0.23" transform="rotate(102.1 137.0 181.3)"/>
    <path d="M 1446.6187299416322,739.539229703862 C 1478.580178601445,766.1737702537059 1489.2339948213826,803.4621270234875 1446.6187299416322,846.0773919032379 C 1404.0034650618818,803.4621270234875 1414.6572812818195,766.1737702537059 1446.6187299416322,739.539229703862 Z" fill="url(#leaf6)" opacity="0.32" transform="rotate(109.8 1446.6 792.8)"/>
    <path d="M 261.2196405352837,516.6761554228601 C 285.9129639128178,537.2539249041386 294.14407170532917,566.0628021779283 261.2196405352837,598.9872333479739 C 228.29520936523824,566.0628021779283 236.5263171577496,537.2539249041386 261.2196405352837,516.6761554228601 Z" fill="url(#leaf7)" opacity="0.25" transform="rotate(84.5 261.2 557.8)"/>
    <path d="M 1482.0530808938986,2.154544581026144 C 1534.2944642477328,45.68903070922125 1551.7082586990107,106.6373112886944 1482.0530808938986,176.29248909380658 C 1412.3979030887865,106.6373112886944 1429.8116975400644,45.68903070922125 1482.0530808938986,2.154544581026144 Z" fill="url(#leaf8)" opacity="0.27" transform="rotate(275.7 1482.1 89.2)"/>
    <path d="M 865.2266178662477,167.03435545285888 C 904.6345954059973,199.8743367359835 917.7705879192471,245.85031053235795 865.2266178662477,298.39428058535736 C 812.6826478132483,245.85031053235795 825.8186403264981,199.8743367359835 865.2266178662477,167.03435545285888 Z" fill="url(#leaf9)" opacity="0.23" transform="rotate(285.8 865.2 232.7)"/>
    <path d="M 1168.7968613665205,200.3532303500952 C 1205.5555977561658,230.9855106747996 1217.8085098860474,273.87070312938573 1168.7968613665205,322.8823516489128 C 1119.7852128469935,273.87070312938573 1132.0381249768752,230.9855106747996 1168.7968613665205,200.3532303500952 Z" fill="url(#leaf10)" opacity="0.40" transform="rotate(245.3 1168.8 261.6)"/>
    <path d="M 1091.794889155018,740.0603004698518 C 1133.8783307990043,775.1298351731738 1147.9061446803332,824.2271837578246 1091.794889155018,880.3384392831398 C 1035.6836336297026,824.2271837578246 1049.7114475110316,775.1298351731738 1091.794889155018,740.0603004698518 Z" fill="url(#leaf11)" opacity="0.30" transform="rotate(151.5 1091.8 810.2)"/>
    <path d="M 117.02828360675765,851.2938679579897 C 146.70421248911774,876.0238086932899 156.59618878323778,910.6457257227099 117.02828360675765,950.2136308991901 C 77.46037843027754,910.6457257227099 87.35235472439757,876.0238086932899 117.02828360675765,851.2938679579897 Z" fill="url(#leaf12)" opacity="0.28" transform="rotate(157.1 117.0 900.8)"/>
    <path d="M 270.86399587735514,663.1084293249534 C 318.8368473576628,703.0858055585431 334.8277978510987,759.0541322855687 270.86399587735514,823.0179342593123 C 206.90019390361158,759.0541322855687 222.89114439704747,703.0858055585431 270.86399587735514,663.1084293249534 Z" fill="url(#leaf13)" opacity="0.29" transform="rotate(334.4 270.9 743.1)"/>
    <path d="M 1586.5110466825556,100.68496613376684 C 1636.3824960189204,142.24450724740407 1653.0063124643752,200.42786480649622 1586.5110466825556,266.92313058831576 C 1520.015780900736,200.42786480649622 1536.6395973461908,142.24450724740407 1586.5110466825556,100.68496613376684 Z" fill="url(#leaf14)" opacity="0.36" transform="rotate(257.1 1586.5 183.8)"/>
    <path d="M 959.3638640411776,270.7298851759781 C 1019.0486142662525,320.4671770302071 1038.943531007944,390.0993856261277 959.3638640411776,469.6790525928941 C 879.7841970744113,390.0993856261277 899.6791138161028,320.4671770302071 959.3638640411776,270.7298851759781 Z" fill="url(#leaf15)" opacity="0.37" transform="rotate(345.5 959.4 370.2)"/>
    <path d="M 938.5920425381311,21.427184655988356 C 994.0712741135183,67.65987763547768 1012.564351305314,132.38564780676273 938.5920425381311,206.35795657394567 C 864.6197337709482,132.38564780676273 883.1128109627439,67.65987763547768 938.5920425381311,21.427184655988356 Z" fill="url(#leaf16)" opacity="0.37" transform="rotate(82.8 938.6 113.9)"/>
    <path d="M 550.5951204275211,765.310235980686 C 575.9774063337571,786.4621409025494 584.4381683025025,816.0748077931581 550.5951204275211,849.9178556681395 C 516.7520725525397,816.0748077931581 525.2128345212851,786.4621409025494 550.5951204275211,765.310235980686 Z" fill="url(#leaf17)" opacity="0.31" transform="rotate(41.1 550.6 807.6)"/>
    <path d="M 330.8938046207913,635.7139155415008 C 380.37336663114945,676.946883883466 396.86655396793554,734.6730395622171 330.8938046207913,800.6457889093614 C 264.921055273647,734.6730395622171 281.4142426104331,676.946883883466 330.8938046207913,635.7139155415008 Z" fill="url(#leaf18)" opacity="0.29" transform="rotate(357.2 330.9 718.2)"/>
    <path d="M 614.3141800494026,963.6537423212421 C 646.6218543119286,990.5768042066805 657.3910790661039,1028.2690908462941 614.3141800494026,1071.3459898629956 C 571.2372810327013,1028.2690908462941 582.0065057868766,990.5768042066805 614.3141800494026,963.6537423212421 Z" fill="url(#leaf19)" opacity="0.25" transform="rotate(34.4 614.3 1017.5)"/>
    <path d="M 305.4952380064648,-20.44478539139179 C 354.503768607765,20.395656776358408 370.8399454748651,77.57227581120868 305.4952380064648,142.91698327960898 C 240.15053053806446,77.57227581120868 256.48670740516457,20.395656776358408 305.4952380064648,-20.44478539139179 Z" fill="url(#leaf0)" opacity="0.26" transform="rotate(100.4 305.5 61.2)"/>
    <path d="M 558.9722142316557,371.73402129247825 C 599.8750362709803,405.8197063252488 613.5093102840885,453.53966537112746 558.9722142316557,508.07676142356024 C 504.4351181792229,453.53966537112746 518.0693921923311,405.8197063252488 558.9722142316557,371.73402129247825 Z" fill="url(#leaf1)" opacity="0.31" transform="rotate(136.7 559.0 439.9)"/>
    <path d="M 1038.5920401187368,394.1114878651566 C 1071.0740242892284,421.17980800723296 1081.901352346059,459.07545620613985 1038.5920401187368,502.384768433462 C 995.2827278914147,459.07545620613985 1006.1100559482452,421.17980800723296 1038.5920401187368,394.1114878651566 Z" fill="url(#leaf2)" opacity="0.30" transform="rotate(144.2 1038.6 448.2)"/>
    <path d="M 1065.5940565118178,52.220265841785206 C 1105.9939777332465,85.88686685964255 1119.4606181403897,133.02010828464284 1065.5940565118178,186.88666991321458 C 1011.7274948832461,133.02010828464284 1025.194135290389,85.88686685964255 1065.5940565118178,52.220265841785206 Z" fill="url(#leaf3)" opacity="0.26" transform="rotate(191.2 1065.6 119.6)"/>
    <path d="M 1591.0928322109635,503.14407225238483 C 1617.9855207879798,525.5546460665649 1626.9497503136517,556.9294494064172 1591.0928322109635,592.7863675091055 C 1555.2359141082752,556.9294494064172 1564.2001436339472,525.5546460665649 1591.0928322109635,503.14407225238483 Z" fill="url(#leaf4)" opacity="0.31" transform="rotate(312.1 1591.1 548.0)"/>
    <path d="M 1780.3450186813739,849.557857412585 C 1833.1535727069008,893.5649857671908 1850.7564240487432,955.174965463639 1780.3450186813739,1025.5863708310083 C 1709.9336133140046,955.174965463639 1727.5364646558469,893.5649857671908 1780.3450186813739,849.557857412585 Z" fill="url(#leaf5)" opacity="0.28" transform="rotate(188.5 1780.3 937.6)"/>
    <path d="M 1565.215087993182,405.28860897564954 C 1620.4514274273342,451.3188918374432 1638.8635405720518,515.7612878439543 1565.215087993182,589.4097404228241 C 1491.566635414312,515.7612878439543 1509.9787485590296,451.3188918374432 1565.215087993182,405.28860897564954 Z" fill="url(#leaf6)" opacity="0.29" transform="rotate(274.8 1565.2 497.3)"/>
    <path d="M 1706.0555687474932,112.61764716986562 C 1759.2490639206108,156.94555981413026 1776.9802289783165,219.00463751610073 1706.0555687474932,289.92929774692414 C 1635.13090851667,219.00463751610073 1652.8620735743757,156.94555981413026 1706.0555687474932,112.61764716986562 Z" fill="url(#leaf7)" opacity="0.40" transform="rotate(213.8 1706.1 201.3)"/>
    <path d="M 1429.8229870860646,829.6525309872262 C 1459.6658154946188,854.5215546610215 1469.6134249641368,889.3381878043347 1429.8229870860646,929.128625682407 C 1390.0325492079924,889.3381878043347 1399.9801586775104,854.5215546610215 1429.8229870860646,829.6525309872262 Z" fill="url(#leaf8)" opacity="0.38" transform="rotate(330.8 1429.8 879.4)"/>
    <path d="M 1034.6231203279092,40.08487251707216 C 1070.460126182335,69.94904406242696 1082.405794800477,111.7588842259237 1034.6231203279092,159.54155869849137 C 986.8404458553415,111.7588842259237 998.7861144734834,69.94904406242696 1034.6231203279092,40.08487251707216 Z" fill="url(#leaf9)" opacity="0.30" transform="rotate(124.9 1034.6 99.8)"/>
    <path d="M 1014.5033547312565,552.4099359844406 C 1073.0904961729566,601.232553852524 1092.6195433201901,669.584218867841 1014.5033547312565,747.7004074567744 C 936.3871661423229,669.584218867841 955.9162132895564,601.232553852524 1014.5033547312565,552.4099359844406 Z" fill="url(#leaf10)" opacity="0.23" transform="rotate(184.8 1014.5 650.1)"/>
    <path d="M 1643.8443139389192,694.448284592225 C 1697.5713236499043,739.2207926847128 1715.4803268868995,801.9023040141956 1643.8443139389192,873.5383169621759 C 1572.2083009909388,801.9023040141956 1590.117304227934,739.2207926847128 1643.8443139389192,694.448284592225 Z" fill="url(#leaf11)" opacity="0.39" transform="rotate(305.9 1643.8 784.0)"/>
    <path d="M 703.1084128779389,185.45069810975536 C 736.501206344999,213.27802599897214 747.6321375006858,252.2362850438756 703.1084128779389,296.7600096666224 C 658.5846882551921,252.2362850438756 669.7156194108788,213.27802599897214 703.1084128779389,185.45069810975536 Z" fill="url(#leaf12)" opacity="0.35" transform="rotate(28.5 703.1 241.1)"/>
    <path d="M 1707.648635796947,665.0603495661073 C 1737.236499544602,689.7169026891531 1747.0991207938205,724.2360770614174 1707.648635796947,763.6865620582907 C 1668.1981508000736,724.2360770614174 1678.060772049292,689.7169026891531 1707.648635796947,665.0603495661073 Z" fill="url(#leaf13)" opacity="0.24" transform="rotate(0.8 1707.6 714.4)"/>
    <path d="M 575.7695659601411,38.23263247985406 C 622.9501819316415,77.54981245610435 638.6770539221416,132.59386442285475 575.7695659601411,195.5013523848552 C 512.8620779981406,132.59386442285475 528.5889499886407,77.54981245610435 575.7695659601411,38.23263247985406 Z" fill="url(#leaf14)" opacity="0.31" transform="rotate(244.7 575.8 116.9)"/>
    <path d="M 810.6102746323625,620.8445508586975 C 860.8953168353604,662.7487526945291 877.656997569693,721.4146352646934 810.6102746323625,788.4613582020239 C 743.563551695032,721.4146352646934 760.3252324293645,662.7487526945291 810.6102746323625,620.8445508586975 Z" fill="url(#leaf15)" opacity="0.26" transform="rotate(157.4 810.6 704.7)"/>
    <path d="M 1218.3463106389247,697.9248368168719 C 1247.6789023937176,722.3686632791994 1257.4564329786485,756.5900203264578 1218.3463106389247,795.7001426661816 C 1179.2361882992009,756.5900203264578 1189.0137188841318,722.3686632791994 1218.3463106389247,697.9248368168719 Z" fill="url(#leaf16)" opacity="0.29" transform="rotate(252.8 1218.3 746.8)"/>
    <path d="M 1077.3914691154216,636.7252143322331 C 1115.9230647490117,668.8348773602248 1128.7669299602085,713.7884055994132 1077.3914691154216,765.1638664441999 C 1026.0160082706348,713.7884055994132 1038.8598734818315,668.8348773602248 1077.3914691154216,636.7252143322331 Z" fill="url(#leaf17)" opacity="0.22" transform="rotate(129.2 1077.4 700.9)"/>
    <path d="M 1565.4980807758495,524.8653672915282 C 1621.5040693671679,571.5370244509602 1640.1727322309407,636.877344474165 1565.4980807758495,711.5519959292562 C 1490.8234293207584,636.877344474165 1509.4920921845312,571.5370244509602 1565.4980807758495,524.8653672915282 Z" fill="url(#leaf18)" opacity="0.33" transform="rotate(239.1 1565.5 618.2)"/>
    <path d="M 498.9277530263977,890.5072408653045 C 546.0414073263363,929.7686194485867 561.7459587596492,984.7345494651818 498.9277530263977,1047.5527551984333 C 436.10954729314625,984.7345494651818 451.8140987264591,929.7686194485867 498.9277530263977,890.5072408653045 Z" fill="url(#leaf19)" opacity="0.31" transform="rotate(351.8 498.9 969.0)"/>
    <path d="M 160.49355207318024,481.7458769998372 C 219.57911515159958,530.9838462318534 239.27430284440607,599.917003156676 160.49355207318024,678.6977539279017 C 81.71280130195443,599.917003156676 101.4079889947609,530.9838462318534 160.49355207318024,481.7458769998372 Z" fill="url(#leaf0)" opacity="0.37" transform="rotate(301.3 160.5 580.2)"/>
    <path d="M 1545.6678514489518,454.0218448935014 C 1598.4461993979266,498.00380151764716 1616.038982047585,559.5785407914514 1545.6678514489518,629.9496713900846 C 1475.2967208503185,559.5785407914514 1492.8895034999769,498.00380151764716 1545.6678514489518,454.0218448935014 Z" fill="url(#leaf1)" opacity="0.39" transform="rotate(286.6 1545.7 542.0)"/>
    <path d="M 1352.605040833576,143.88483159709187 C 1377.900774441915,164.9646096040411 1386.3326856446947,194.47629881376997 1352.605040833576,228.20394362488872 C 1318.877396022457,194.47629881376997 1327.3093072252368,164.9646096040411 1352.605040833576,143.88483159709187 Z" fill="url(#leaf2)" opacity="0.31" transform="rotate(190.8 1352.6 186.0)"/>
    <path d="M 1421.0725999637614,798.7918010934831 C 1453.7109692441388,825.9904421604642 1464.5904256709312,864.0685396542378 1421.0725999637614,907.5863653614077 C 1377.5547742565916,864.0685396542378 1388.434230683384,825.9904421604642 1421.0725999637614,798.7918010934831 Z" fill="url(#leaf3)" opacity="0.40" transform="rotate(340.4 1421.1 853.2)"/>
    <path d="M 342.95576743981604,15.856983598151736 C 368.87317423406546,37.45482259335958 377.5123098321486,67.69179718665055 342.95576743981604,102.24833957898309 C 308.39922504748347,67.69179718665055 317.0383606455666,37.45482259335958 342.95576743981604,15.856983598151736 Z" fill="url(#leaf4)" opacity="0.24" transform="rotate(294.0 343.0 59.1)"/>
    <path d="M 303.2001272102667,542.4787895302695 C 362.32648218802944,591.7507520117384 382.035267180617,660.7314994857949 303.2001272102667,739.5666394561451 C 224.36498723991645,660.7314994857949 244.073772232504,591.7507520117384 303.2001272102667,542.4787895302695 Z" fill="url(#leaf5)" opacity="0.30" transform="rotate(4.2 303.2 641.0)"/>
    <path d="M 717.8381759212917,433.03712135655815 C 760.956501015362,468.9690589349501 775.3292760467189,519.2737715446988 717.8381759212917,576.7648716701259 C 660.3470757958646,519.2737715446988 674.7198508272214,468.9690589349501 717.8381759212917,433.03712135655815 Z" fill="url(#leaf6)" opacity="0.27" transform="rotate(77.8 717.8 504.9)"/>
    <path d="M 1640.2692882205015,341.19845699851544 C 1685.989952297433,379.2990103959584 1701.2301736564102,432.63978515237864 1640.2692882205015,493.60067058828747 C 1579.3084027845928,432.63978515237864 1594.54862414357,379.2990103959584 1640.2692882205015,341.19845699851544 Z" fill="url(#leaf7)" opacity="0.24" transform="rotate(94.5 1640.3 417.4)"/>
    <path d="M 862.2768537659813,820.0642435131155 C 904.0933108809896,854.9112911089558 918.0321299193257,903.6971577431322 862.2768537659813,959.4524338964767 C 806.5215776126369,903.6971577431322 820.4603966509729,854.9112911089558 862.2768537659813,820.0642435131155 Z" fill="url(#leaf8)" opacity="0.36" transform="rotate(340.6 862.3 889.8)"/>
    <path d="M 935.6052888843446,154.7321293327646 C 992.5573644555199,202.19219230874393 1011.5413896459115,268.636280475115 935.6052888843446,344.57238123668185 C 859.6691881227778,268.636280475115 878.6532133131694,202.19219230874393 935.6052888843446,154.7321293327646 Z" fill="url(#leaf9)" opacity="0.36" transform="rotate(287.7 935.6 249.7)"/>
    <path d="M 713.8695158818318,380.21208224975487 C 761.1599343673698,419.6207643210365 776.9234071958824,474.7929192208308 713.8695158818318,537.8468105348815 C 650.8156245677812,474.7929192208308 666.5790973962938,419.6207643210365 713.8695158818318,380.21208224975487 Z" fill="url(#leaf10)" opacity="0.32" transform="rotate(230.8 713.9 459.0)"/>
    <path d="M 606.4276425518237,805.1445321990994 C 650.0781071852243,841.5199193935998 664.6282620630245,892.4454614659005 606.4276425518237,950.6460809771012 C 548.227023040623,892.4454614659005 562.7771779184231,841.5199193935998 606.4276425518237,805.1445321990994 Z" fill="url(#leaf11)" opacity="0.24" transform="rotate(277.9 606.4 877.9)"/>
    <path d="M 696.2357997426724,455.8143396946003 C 737.544820565406,490.23852371354496 751.3144941729838,538.4323813400674 696.2357997426724,593.511075770379 C 641.157105312361,538.4323813400674 654.9267789199388,490.23852371354496 696.2357997426724,455.8143396946003 Z" fill="url(#leaf12)" opacity="0.38" transform="rotate(180.2 696.2 524.7)"/>
    <path d="M 236.3302500867019,190.85256592153738 C 272.0635874452034,220.6303470536219 283.97469989803716,262.3192406385403 236.3302500867019,309.96369044987557 C 188.68580027536663,262.3192406385403 200.59691272820046,220.6303470536219 236.3302500867019,190.85256592153738 Z" fill="url(#leaf13)" opacity="0.37" transform="rotate(273.1 236.3 250.4)"/>
    <path d="M 745.5048874456011,480.2779236625082 C 796.3579872286737,522.6555068150687 813.3090204896978,581.9841232286534 745.5048874456011,649.7882562727501 C 677.7007544015044,581.9841232286534 694.6517876625285,522.6555068150687 745.5048874456011,480.2779236625082 Z" fill="url(#leaf14)" opacity="0.22" transform="rotate(199.5 745.5 565.0)"/>
    <path d="M 1197.5249546206867,384.43934746983115 C 1246.2253899339516,425.02304356421865 1262.4588683717068,481.8402180963612 1197.5249546206867,546.7741318473811 C 1132.5910408696666,481.8402180963612 1148.8245193074217,425.02304356421865 1197.5249546206867,384.43934746983115 Z" fill="url(#leaf15)" opacity="0.36" transform="rotate(80.5 1197.5 465.6)"/>
    <path d="M 262.15177976483875,523.0312293341619 C 303.79693347076056,557.7355240890968 317.6786513727345,606.3215367460056 262.15177976483875,661.8484083539013 C 206.624908156943,606.3215367460056 220.50662605891694,557.7355240890968 262.15177976483875,523.0312293341619 Z" fill="url(#leaf16)" opacity="0.25" transform="rotate(129.6 262.2 592.4)"/>
    <path d="M 961.3228125271717,78.6518615480671 C 1019.7643208771404,127.3531185063744 1039.2448236604632,195.53487824800462 961.3228125271717,273.45688938129626 C 883.40080139388,195.53487824800462 902.8813041772029,127.3531185063744 961.3228125271717,78.6518615480671 Z" fill="url(#leaf17)" opacity="0.25" transform="rotate(152.6 961.3 176.1)"/>
    <path d="M 942.5037653071494,679.4382234168734 C 972.6682914992545,704.5753285769609 982.7231335632895,739.7672758010835 942.5037653071494,779.9866440572237 C 902.2843970510093,739.7672758010835 912.3392391150443,704.5753285769609 942.5037653071494,679.4382234168734 Z" fill="url(#leaf18)" opacity="0.34" transform="rotate(320.0 942.5 729.7)"/>
    <path d="M 601.7042258463767,153.00407266490356 C 648.6429440907277,192.11967120186267 664.2891835055113,246.88150915360544 601.7042258463767,309.46646681274 C 539.1192681872421,246.88150915360544 554.7655076020258,192.11967120186267 601.7042258463767,153.00407266490356 Z" fill="url(#leaf19)" opacity="0.22" transform="rotate(40.4 601.7 231.2)"/>
    <path d="M 121.09956048190257,-33.25144381280721 C 175.5204680887847,12.09931252626123 193.66077062441207,75.59037140095705 121.09956048190257,148.15158154346653 C 48.53835033939306,75.59037140095705 66.67865287502045,12.09931252626123 121.09956048190257,-33.25144381280721 Z" fill="url(#leaf0)" opacity="0.25" transform="rotate(220.0 121.1 57.5)"/>
    <path d="M 732.2002978442321,883.2549251160945 C 759.9291882755276,906.3623338088408 769.1721517526262,938.7127059786857 732.2002978442321,975.6845598870798 C 695.228443935838,938.7127059786857 704.4714074129365,906.3623338088408 732.2002978442321,883.2549251160945 Z" fill="url(#leaf1)" opacity="0.33" transform="rotate(347.2 732.2 929.5)"/>
    <path d="M 604.101872870921,189.7923947976582 C 648.1008462208746,226.45820592261953 662.7671706708592,277.79034149756535 604.101872870921,336.45563929750347 C 545.4365750709829,277.79034149756535 560.1028995209675,226.45820592261953 604.101872870921,189.7923947976582 Z" fill="url(#leaf2)" opacity="0.38" transform="rotate(299.2 604.1 263.1)"/>
    <path d="M 1249.6873325702081,936.7287702834723 C 1293.4970543062086,973.2368717301392 1308.1002948848752,1024.348213755473 1249.6873325702081,1082.7611760701402 C 1191.274370255541,1024.348213755473 1205.8776108342076,973.2368717301392 1249.6873325702081,936.7287702834723 Z" fill="url(#leaf3)" opacity="0.40" transform="rotate(315.5 1249.7 1009.7)"/>
    <path d="M 815.3189156495978,506.21180241700824 C 846.1532540181769,531.9070843908241 856.4313668077032,567.8804791541664 815.3189156495978,608.9929303122718 C 774.2064644914924,567.8804791541664 784.4845772810187,531.9070843908241 815.3189156495978,506.21180241700824 Z" fill="url(#leaf4)" opacity="0.34" transform="rotate(301.4 815.3 557.6)"/>
    <path d="M 1444.7376593988931,796.5240410065367 C 1472.3459067964081,819.5309138377992 1481.5486559289131,851.7405358015667 1444.7376593988931,888.5515323315867 C 1407.926662868873,851.7405358015667 1417.1294120013781,819.5309138377992 1444.7376593988931,796.5240410065367 Z" fill="url(#leaf5)" opacity="0.24" transform="rotate(286.5 1444.7 842.5)"/>
    <path d="M 1255.625066420724,839.5116273476851 C 1309.1928137873933,884.1514168199096 1327.048729576283,946.6471220810239 1255.625066420724,1018.0707852365831 C 1184.2014032651648,946.6471220810239 1202.0573190540545,884.1514168199096 1255.625066420724,839.5116273476851 Z" fill="url(#leaf6)" opacity="0.29" transform="rotate(180.1 1255.6 928.8)"/>
    <path d="M 765.760882185453,173.1042746264631 C 810.8786913982888,210.70244897049287 825.9179611359007,263.3398930521346 765.760882185453,323.4969720025822 C 705.6038032350054,263.3398930521346 720.6430729726173,210.70244897049287 765.760882185453,173.1042746264631 Z" fill="url(#leaf7)" opacity="0.29" transform="rotate(233.3 765.8 248.3)"/>
    <path d="M 290.4671412440006,304.21166089174386 C 342.352374868191,347.4493555785692 359.64745274292113,407.98212814012476 290.4671412440006,477.1624396390453 C 221.28682974507998,407.98212814012476 238.58190761981012,347.4493555785692 290.4671412440006,304.21166089174386 Z" fill="url(#leaf8)" opacity="0.34" transform="rotate(4.6 290.5 390.7)"/>
    <path d="M 1037.8970681086294,371.79081970636776 C 1096.227973533526,420.39990756044824 1115.6716086751583,488.452630556161 1037.8970681086294,566.2271711226898 C 960.1225275421006,488.452630556161 979.5661626837327,420.39990756044824 1037.8970681086294,371.79081970636776 Z" fill="url(#leaf9)" opacity="0.40" transform="rotate(67.4 1037.9 469.0)"/>
    <path d="M 863.8931584825996,34.647221765217935 C 905.1487593117596,69.02688912285129 918.9006262548129,117.15842342353797 863.8931584825996,172.16589119575133 C 808.8856907103863,117.15842342353797 822.6375576534396,69.02688912285129 863.8931584825996,34.647221765217935 Z" fill="url(#leaf10)" opacity="0.31" transform="rotate(37.0 863.9 103.4)"/>
    <path d="M 1578.2591194139575,606.1177211214508 C 1632.4326462039146,651.2623267797484 1650.4904884672337,714.4647747013651 1578.2591194139575,786.6961437546413 C 1506.0277503606812,714.4647747013651 1524.0855926240004,651.2623267797484 1578.2591194139575,606.1177211214508 Z" fill="url(#leaf11)" opacity="0.33" transform="rotate(117.6 1578.3 696.4)"/>
    <path d="M 1653.559407132531,281.19472806051624 C 1700.4880797277563,320.30195522320395 1716.1309705928313,375.0520732509667 1653.559407132531,437.62363671126707 C 1590.9878436722308,375.0520732509667 1606.630734537306,320.30195522320395 1653.559407132531,281.19472806051624 Z" fill="url(#leaf12)" opacity="0.36" transform="rotate(28.3 1653.6 359.4)"/>
    <path d="M 1756.3599614716782,187.47464369407567 C 1800.4229643314716,224.19381274390355 1815.1106319514029,275.6006494136626 1756.3599614716782,334.3513198933872 C 1697.6092909919535,275.6006494136626 1712.2969586118847,224.19381274390355 1756.3599614716782,187.47464369407567 Z" fill="url(#leaf13)" opacity="0.36" transform="rotate(316.0 1756.4 260.9)"/>
    <path d="M 723.5606638639596,695.5510081748492 C 779.6416919425673,742.2851982403556 798.3353679687699,807.7130643320646 723.5606638639596,882.487768436875 C 648.7859597591493,807.7130643320646 667.4796357853519,742.2851982403556 723.5606638639596,695.5510081748492 Z" fill="url(#leaf14)" opacity="0.24" transform="rotate(328.6 723.6 789.0)"/>
    <path d="M 951.6684436533391,665.2231249223614 C 986.3563252235913,694.1296928975717 997.9189524136755,734.598888062866 951.6684436533391,780.8493968232024 C 905.4179348930027,734.598888062866 916.9805620830869,694.1296928975717 951.6684436533391,665.2231249223614 Z" fill="url(#leaf15)" opacity="0.35" transform="rotate(346.7 951.7 723.0)"/>
    <path d="M 351.3936189428238,849.864377973971 C 384.7618975751525,877.6712768342448 395.884657119262,916.6009352386283 351.3936189428238,961.0919734150665 C 306.90258076638565,916.6009352386283 318.02534031049515,877.6712768342448 351.3936189428238,849.864377973971 Z" fill="url(#leaf16)" opacity="0.32" transform="rotate(129.4 351.4 905.5)"/>
    <path d="M 1741.4187881147143,839.7886598267839 C 1792.4795526293105,882.3392969222808 1809.4998074675093,941.9101888559765 1741.4187881147143,1009.9912082087715 C 1673.3377687619193,941.9101888559765 1690.358023600118,882.3392969222808 1741.4187881147143,839.7886598267839 Z" fill="url(#leaf17)" opacity="0.22" transform="rotate(146.4 1741.4 924.9)"/>
    <path d="M 123.4668415005975,850.0861223576663 C 156.12587444844382,877.3019831475383 167.0122187643926,915.404188253359 123.4668415005975,958.9495655171542 C 79.9214642368024,915.404188253359 90.80780855275117,877.3019831475383 123.4668415005975,850.0861223576663 Z" fill="url(#leaf18)" opacity="0.21" transform="rotate(268.3 123.5 904.5)"/>
    <path d="M 1780.2275164717844,331.08963742175274 C 1835.3506011425814,377.0255413140835 1853.7249626995135,441.3358067633465 1780.2275164717844,514.8332529910757 C 1706.7300702440552,441.3358067633465 1725.1044318009874,377.0255413140835 1780.2275164717844,331.08963742175274 Z" fill="url(#leaf19)" opacity="0.24" transform="rotate(100.8 1780.2 423.0)"/>
    <path d="M 841.1287899844103,400.9898148084222 C 896.4874446779125,447.1220270530074 914.9403295757467,511.70712419542673 841.1287899844103,585.5186637867631 C 767.317250393074,511.70712419542673 785.7701352909081,447.1220270530074 841.1287899844103,400.9898148084222 Z" fill="url(#leaf0)" opacity="0.33" transform="rotate(44.3 841.1 493.3)"/>
    <path d="M 1241.8162587206336,54.71791677503742 C 1291.1840374606031,95.85773239167868 1307.6399637072595,153.45347425497644 1241.8162587206336,219.27717924160245 C 1175.9925537340077,153.45347425497644 1192.4484799806642,95.85773239167868 1241.8162587206336,54.71791677503742 Z" fill="url(#leaf1)" opacity="0.23" transform="rotate(200.1 1241.8 137.0)"/>
    <path d="M 569.441716388331,177.9905210851204 C 606.1757940476755,208.6022524679075 618.4204866007904,251.45867640380948 569.441716388331,300.43744661626886 C 520.4629461758716,251.45867640380948 532.7076387289865,208.6022524679075 569.441716388331,177.9905210851204 Z" fill="url(#leaf2)" opacity="0.26" transform="rotate(40.6 569.4 239.2)"/>
    <path d="M 1816.334366395862,812.7433563000083 C 1848.8961193462042,839.8781504252936 1859.7500369963184,877.8668622006929 1816.334366395862,921.2825328011494 C 1772.9186957954055,877.8668622006929 1783.7726134455197,839.8781504252936 1816.334366395862,812.7433563000083 Z" fill="url(#leaf3)" opacity="0.21" transform="rotate(33.7 1816.3 867.0)"/>
    <path d="M 972.153337014015,439.43434203914205 C 1008.322208619012,469.57506837663954 1020.378499154011,511.772085249136 972.153337014015,559.997247389132 C 923.9281748740191,511.772085249136 935.9844654090181,469.57506837663954 972.153337014015,439.43434203914205 Z" fill="url(#leaf4)" opacity="0.21" transform="rotate(15.0 972.2 499.7)"/>
    <path d="M 491.68755531761843,882.0466666195812 C 526.8076102498809,911.3133790631332 538.5142952273017,952.286776484106 491.68755531761843,999.1135163937893 C 444.8608154079352,952.286776484106 456.567500385356,911.3133790631332 491.68755531761843,882.0466666195812 Z" fill="url(#leaf5)" opacity="0.39" transform="rotate(68.2 491.7 940.6)"/>
    <path d="M 736.8723526054664,598.745623069854 C 773.3380286987353,629.1336864809115 785.4932540631584,671.676975256392 736.8723526054664,720.2978767140839 C 688.2514511477744,671.676975256392 700.4066765121975,629.1336864809115 736.8723526054664,598.745623069854 Z" fill="url(#leaf6)" opacity="0.34" transform="rotate(184.0 736.9 659.5)"/>
    <path d="M 1764.6267338302932,331.604227208653 C 1813.2171014899368,372.09620025835596 1829.413890709818,428.78496252794 1764.6267338302932,493.5721194074647 C 1699.8395769507686,428.78496252794 1716.0363661706497,372.09620025835596 1764.6267338302932,331.604227208653 Z" fill="url(#leaf7)" opacity="0.29" transform="rotate(155.3 1764.6 412.6)"/>
    <path d="M 336.5718787929869,366.88912919214476 C 396.0015633407256,416.4138663152603 415.81145818997186,485.7484982876221 336.5718787929869,564.988077684607 C 257.332299396002,485.7484982876221 277.1421942452482,416.4138663152603 336.5718787929869,366.88912919214476 Z" fill="url(#leaf8)" opacity="0.35" transform="rotate(105.9 336.6 465.9)"/>
    <path d="M 491.86983814249226,760.9206318065199 C 535.8445318438938,797.5662098910211 550.5027630776943,848.8700192093229 491.86983814249226,907.5029441445249 C 433.2369132072902,848.8700192093229 447.89514444109074,797.5662098910211 491.86983814249226,760.9206318065199 Z" fill="url(#leaf9)" opacity="0.31" transform="rotate(60.3 491.9 834.2)"/>
    <path d="M 1109.1410416179974,725.0105401065391 C 1148.7050317113542,757.980531851003 1161.8930284091398,804.1385202932526 1109.1410416179974,856.8905070843948 C 1056.389054826855,804.1385202932526 1069.5770515246406,757.980531851003 1109.1410416179974,725.0105401065391 Z" fill="url(#leaf10)" opacity="0.25" transform="rotate(116.7 1109.1 791.0)"/>
    <path d="M 1236.36619078715,365.5409531336144 C 1275.3157937695544,397.9989556189514 1288.298994763689,443.4401590984232 1236.36619078715,495.3729630749624 C 1184.4333868106107,443.4401590984232 1197.4165878047454,397.9989556189514 1236.36619078715,365.5409531336144 Z" fill="url(#leaf11)" opacity="0.36" transform="rotate(150.3 1236.4 430.5)"/>
    <path d="M 1306.752141455191,186.28211774745597 C 1353.232296767204,225.01558050746692 1368.7256818712085,279.2424283714823 1306.752141455191,341.2159687874998 C 1244.7786010391733,279.2424283714823 1260.2719861431779,225.01558050746692 1306.752141455191,186.28211774745597 Z" fill="url(#leaf12)" opacity="0.37" transform="rotate(335.6 1306.8 263.7)"/>
    <path d="M 1652.8763671637212,476.58302882822426 C 1706.3069508679582,521.1085152484219 1724.1171454360374,583.4441962366985 1652.8763671637212,654.6849745090146 C 1581.635588891405,583.4441962366985 1599.4457834594841,521.1085152484219 1652.8763671637212,476.58302882822426 Z" fill="url(#leaf13)" opacity="0.39" transform="rotate(69.3 1652.9 565.6)"/>
    <path d="M 1544.6324689318735,14.054615759397151 C 1580.5860160817174,44.01590505093376 1592.570531798332,85.96171005908502 1544.6324689318735,133.89977292554357 C 1496.694406065415,85.96171005908502 1508.6789217820296,44.01590505093376 1544.6324689318735,14.054615759397151 Z" fill="url(#leaf14)" opacity="0.23" transform="rotate(267.9 1544.6 74.0)"/>
    <path d="M 1108.2250059772823,722.886805957342 C 1132.2407413638498,742.8999187794815 1140.2459864927055,770.9182767304768 1108.2250059772823,802.9392572459001 C 1076.2040254618591,770.9182767304768 1084.2092705907148,742.8999187794815 1108.2250059772823,722.886805957342 Z" fill="url(#leaf15)" opacity="0.36" transform="rotate(11.3 1108.2 762.9)"/>
    <path d="M 544.687325327676,589.5743931545117 C 590.8890760284901,628.0758520718566 606.2896595954281,681.9778945561397 544.687325327676,743.5802288238917 C 483.08499105992394,681.9778945561397 498.485574626862,628.0758520718566 544.687325327676,589.5743931545117 Z" fill="url(#leaf16)" opacity="0.27" transform="rotate(324.7 544.7 666.6)"/>
    <path d="M 1858.907727923305,902.2962661802729 C 1907.5829339990005,942.8589379100192 1923.808002690899,999.646678331664 1858.907727923305,1064.546953099258 C 1794.007453155711,999.646678331664 1810.2325218476094,942.8589379100192 1858.907727923305,902.2962661802729 Z" fill="url(#leaf17)" opacity="0.27" transform="rotate(205.9 1858.9 983.4)"/>
    <path d="M 1306.3306949396747,775.4170644370113 C 1342.3137065458086,805.4029074421229 1354.3080437478532,847.3830876492791 1306.3306949396747,895.3604364574576 C 1258.3533461314962,847.3830876492791 1270.3476833335408,805.4029074421229 1306.3306949396747,775.4170644370113 Z" fill="url(#leaf18)" opacity="0.29" transform="rotate(128.0 1306.3 835.4)"/>
    <path d="M 991.6857439077334,286.49346399752187 C 1039.9735570130877,326.7333082519838 1056.0694947148725,383.0690902082304 991.6857439077334,447.4528410153695 C 927.3019931005942,383.0690902082304 943.397930802379,326.7333082519838 991.6857439077334,286.49346399752187 Z" fill="url(#leaf19)" opacity="0.34" transform="rotate(283.1 991.7 367.0)"/>
    <path d="M 689.2967310158126,259.87025609080354 C 736.5940807627583,299.28471421325827 752.3598640117401,354.4649555846949 689.2967310158126,417.52808858062247 C 626.2335980198851,354.4649555846949 641.999381268867,299.28471421325827 689.2967310158126,259.87025609080354 Z" fill="url(#leaf0)" opacity="0.25" transform="rotate(23.3 689.3 338.7)"/>
    <path d="M 817.31213085501,701.40964239523 C 873.4899269232161,748.2244724520684 892.2158589459515,813.7652345316422 817.31213085501,888.6689626225838 C 742.4084027640685,813.7652345316422 761.1343347868038,748.2244724520684 817.31213085501,701.40964239523 Z" fill="url(#leaf1)" opacity="0.39" transform="rotate(193.2 817.3 795.0)"/>
    <path d="M 723.3773566807334,502.76412295817676 C 758.0936013646267,531.6943268614211 769.6656829259244,572.1966123259632 723.3773566807334,618.4849385711542 C 677.0890304355424,572.1966123259632 688.6611119968402,531.6943268614211 723.3773566807334,502.76412295817676 Z" fill="url(#leaf2)" opacity="0.21" transform="rotate(5.6 723.4 560.6)"/>
    <path d="M 1858.9864201006303,109.62957994719137 C 1899.398984506896,143.30671695241287 1912.8698393089846,190.454708759723 1858.9864201006303,244.3381279680774 C 1805.103000892276,190.454708759723 1818.5738556943645,143.30671695241287 1858.9864201006303,109.62957994719137 Z" fill="url(#leaf3)" opacity="0.32" transform="rotate(302.6 1859.0 177.0)"/>
    <path d="M 1537.721005388971,374.3941796467085 C 1568.5955537469372,400.1229699450138 1578.8870698662595,436.14327636264113 1537.721005388971,477.3093408399295 C 1496.5549409116825,436.14327636264113 1506.8464570310048,400.1229699450138 1537.721005388971,374.3941796467085 Z" fill="url(#leaf4)" opacity="0.26" transform="rotate(165.7 1537.7 425.9)"/>
    <path d="M 837.7116126868589,966.2998095952937 C 868.5767703207206,992.0207742901785 878.8651561986744,1028.0301248630171 837.7116126868589,1069.1836683748327 C 796.5580691750433,1028.0301248630171 806.8464550529972,992.0207742901785 837.7116126868589,966.2998095952937 Z" fill="url(#leaf5)" opacity="0.36" transform="rotate(118.6 837.7 1017.7)"/>
    <path d="M 1187.1942713075857,786.1794235374243 C 1240.1766085619186,830.3313712493684 1257.8373876466962,892.14409804609 1187.1942713075857,962.7872143852005 C 1116.5511549684752,892.14409804609 1134.211934053253,830.3313712493684 1187.1942713075857,786.1794235374243 Z" fill="url(#leaf6)" opacity="0.34" transform="rotate(165.6 1187.2 874.5)"/>
    <path d="M 486.1367660084081,610.1182178721996 C 524.4563939421009,642.0512411502771 537.229603253332,686.7574737395854 486.1367660084081,737.8503109845093 C 435.0439287634842,686.7574737395854 447.81713807471516,642.0512411502771 486.1367660084081,610.1182178721996 Z" fill="url(#leaf7)" opacity="0.24" transform="rotate(312.0 486.1 674.0)"/>
    <path d="M 724.08054973863,283.01437097509387 C 783.0121567894068,332.12404351740787 802.6560258063324,400.87758507664745 724.08054973863,479.4530611443499 C 645.5050736709276,400.87758507664745 665.1489426878532,332.12404351740787 724.08054973863,283.01437097509387 Z" fill="url(#leaf8)" opacity="0.35" transform="rotate(301.3 724.1 381.2)"/>
    <path d="M 333.4401018632833,479.5043465711114 C 360.8710566431619,502.3634755543436 370.0147082364548,534.3662561308686 333.4401018632833,570.9408625040401 C 296.8654954901118,534.3662561308686 306.0091470834047,502.3634755543436 333.4401018632833,479.5043465711114 Z" fill="url(#leaf9)" opacity="0.36" transform="rotate(253.9 333.4 525.2)"/>
    <path d="M 1585.9239961166934,354.56545280529946 C 1631.784217194521,392.7823037034892 1647.0709575537971,446.285894960955 1585.9239961166934,507.4328563980586 C 1524.7770346795896,446.285894960955 1540.0637750388657,392.7823037034892 1585.9239961166934,354.56545280529946 Z" fill="url(#leaf10)" opacity="0.21" transform="rotate(308.6 1585.9 431.0)"/>
    <path d="M 902.6021425855408,830.1246602722443 C 947.280810835234,867.3568838136553 962.1737002517984,919.4819967716306 902.6021425855408,979.0535544378882 C 843.0305849192832,919.4819967716306 857.9234743358477,867.3568838136553 902.6021425855408,830.1246602722443 Z" fill="url(#leaf11)" opacity="0.23" transform="rotate(267.5 902.6 904.6)"/>
    <path d="M 1734.095744417102,185.03885234882654 C 1773.1343288295086,217.571006025832 1786.1471903003107,263.1160211736396 1734.095744417102,315.1674670568483 C 1682.0442985338932,263.1160211736396 1695.0571600046953,217.571006025832 1734.095744417102,185.03885234882654 Z" fill="url(#leaf12)" opacity="0.39" transform="rotate(171.4 1734.1 250.1)"/>
    <path d="M 1152.4674583043072,496.06353106285104 C 1189.2836023235159,526.7436510788582 1201.5556503299185,569.6958191012682 1152.4674583043072,618.7840111268795 C 1103.379266278696,569.6958191012682 1115.6513142850986,526.7436510788582 1152.4674583043072,496.06353106285104 Z" fill="url(#leaf13)" opacity="0.31" transform="rotate(255.5 1152.5 557.4)"/>
    <path d="M 283.16507674466516,532.3285143508 C 326.09828006273403,568.1061837825241 340.40934783542366,618.1949209869377 283.16507674466516,675.4391920776962 C 225.92080565390668,618.1949209869377 240.2318734265963,568.1061837825241 283.16507674466516,532.3285143508 Z" fill="url(#leaf14)" opacity="0.21" transform="rotate(204.6 283.2 603.9)"/>
    <path d="M 910.0607730526417,742.04530816286 C 944.451275936188,770.7040605658153 955.9147768973702,810.8263139299528 910.0607730526417,856.6803177746813 C 864.2067692079132,810.8263139299528 875.6702701690954,770.7040605658153 910.0607730526417,742.04530816286 Z" fill="url(#leaf15)" opacity="0.22" transform="rotate(56.1 910.1 799.4)"/>
  </g>

  <!-- Central star shape -->
  <polygon points="960.0,282.9 1035.6,436.0 1204.5,460.6 1082.2,579.7 1111.1,748.0 960.0,668.5 808.9,748.0 837.8,579.7 715.5,460.6 884.4,436.0" 
           fill="#00CED1" 
           transform="rotate(268.8 960.0 540.0)"/>
</svg>