<?xml version="1.0" encoding="UTF-8"?>
<svg xmlns="http://www.w3.org/2000/svg" viewBox="0 0 1920 1080" width="1920" height="1080">
  <defs>
    <linearGradient id="bgGrad" x1="0%" y1="0%" x2="100%" y2="100%">
      <stop offset="0%" stop-color="#4ECDC4"/>
      <stop offset="100%" stop-color="#9370DB"/>
    </linearGradient>
    <clipPath id="complexClip"><polygon points="1425.8,540.0 1401.2,592.7 1360.1,640.2 1244.1,656.1 1305.6,755.9 1135.4,710.9 1102.7,787.0 1002.9,769.5 906.9,823.9 850.4,729.8 753.0,741.7 732.1,682.4 507.6,724.9 631.3,622.3 537.6,590.5 451.9,540.0 616.0,498.9 582.3,445.4 631.9,405.9 628.3,332.8 687.0,274.0 785.6,238.1 923.1,342.6 1000.2,324.6 1070.1,349.5 1193.4,312.6 1265.8,348.9 1318.0,393.7 1317.7,450.4 1459.3,480.3"/></clipPath>
    <radialGradient id="leaf0" cx="50%" cy="50%" r="70%">
      <stop offset="0%" stop-color="#DC143C"/>
      <stop offset="50%" stop-color="#FFD700"/>
      <stop offset="100%" stop-color="#FF6B6B"/>
    </radialGradient>
    <radialGradient id="leaf1" cx="50%" cy="50%" r="70%">
      <stop offset="0%" stop-color="#45B7D1"/>
      <stop offset="50%" stop-color="#FF4500"/>
      <stop offset="100%" stop-color="#FF69B4"/>
    </radialGradient>
    <radialGradient id="leaf2" cx="50%" cy="50%" r="70%">
      <stop offset="0%" stop-color="#00FA9A"/>
      <stop offset="50%" stop-color="#4ECDC4"/>
      <stop offset="100%" stop-color="#FF1493"/>
    </radialGradient>
    <radialGradient id="leaf3" cx="50%" cy="50%" r="70%">
      <stop offset="0%" stop-color="#7B68EE"/>
      <stop offset="50%" stop-color="#FFD700"/>
      <stop offset="100%" stop-color="#FF69B4"/>
    </radialGradient>
    <radialGradient id="leaf4" cx="50%" cy="50%" r="70%">
      <stop offset="0%" stop-color="#00CED1"/>
      <stop offset="50%" stop-color="#32CD32"/>
      <stop offset="100%" stop-color="#00FA9A"/>
    </radialGradient>
    <radialGradient id="leaf5" cx="50%" cy="50%" r="70%">
      <stop offset="0%" stop-color="#00CED1"/>
      <stop offset="50%" stop-color="#00FA9A"/>
      <stop offset="100%" stop-color="#DC143C"/>
    </radialGradient>
    <radialGradient id="leaf6" cx="50%" cy="50%" r="70%">
      <stop offset="0%" stop-color="#FF6B6B"/>
      <stop offset="50%" stop-color="#FF1493"/>
      <stop offset="100%" stop-color="#45B7D1"/>
    </radialGradient>
    <radialGradient id="leaf7" cx="50%" cy="50%" r="70%">
      <stop offset="0%" stop-color="#32CD32"/>
      <stop offset="50%" stop-color="#96E6A1"/>
      <stop offset="100%" stop-color="#DC143C"/>
    </radialGradient>
    <radialGradient id="leaf8" cx="50%" cy="50%" r="70%">
      <stop offset="0%" stop-color="#96E6A1"/>
      <stop offset="50%" stop-color="#9370DB"/>
      <stop offset="100%" stop-color="#FF69B4"/>
    </radialGradient>
    <radialGradient id="leaf9" cx="50%" cy="50%" r="70%">
      <stop offset="0%" stop-color="#00FA9A"/>
      <stop offset="50%" stop-color="#45B7D1"/>
      <stop offset="100%" stop-color="#FF4500"/>
    </radialGradient>
    <radialGradient id="leaf10" cx="50%" cy="50%" r="70%">
      <stop offset="0%" stop-color="#00CED1"/>
      <stop offset="50%" stop-color="#FFD700"/>
      <stop offset="100%" stop-color="#FF6B6B"/>
    </radialGradient>
    <radialGradient id="leaf11" cx="50%" cy="50%" r="70%">
      <stop offset="0%" stop-color="#FFD700"/>
      <stop offset="50%" stop-color="#96E6A1"/>
      <stop offset="100%" stop-color="#4ECDC4"/>
    </radialGradient>
    <radialGradient id="leaf12" cx="50%" cy="50%" r="70%">
      <stop offset="0%" stop-color="#7B68EE"/>
      <stop offset="50%" stop-color="#FF4500"/>
      <stop offset="100%" stop-color="#FFD700"/>
    </radialGradient>
    <radialGradient id="leaf13" cx="50%" cy="50%" r="70%">
      <stop offset="0%" stop-color="#9370DB"/>
      <stop offset="50%" stop-color="#4ECDC4"/>
      <stop offset="100%" stop-color="#FF6B6B"/>
    </radialGradient>
    <radialGradient id="leaf14" cx="50%" cy="50%" r="70%">
      <stop offset="0%" stop-color="#FFD700"/>
      <stop offset="50%" stop-color="#FF4500"/>
      <stop offset="100%" stop-color="#45B7D1"/>
    </radialGradient>
    <radialGradient id="leaf15" cx="50%" cy="50%" r="70%">
      <stop offset="0%" stop-color="#DC143C"/>
      <stop offset="50%" stop-color="#FF1493"/>
      <stop offset="100%" stop-color="#00CED1"/>
    </radialGradient>
    <radialGradient id="leaf16" cx="50%" cy="50%" r="70%">
      <stop offset="0%" stop-color="#FFD700"/>
      <stop offset="50%" stop-color="#FF1493"/>
      <stop offset="100%" stop-color="#00FA9A"/>
    </radialGradient>
    <radialGradient id="leaf17" cx="50%" cy="50%" r="70%">
      <stop offset="0%" stop-color="#DC143C"/>
      <stop offset="50%" stop-color="#FF69B4"/>
      <stop offset="100%" stop-color="#FF6B6B"/>
    </radialGradient>
    <radialGradient id="leaf18" cx="50%" cy="50%" r="70%">
      <stop offset="0%" stop-color="#00FA9A"/>
      <stop offset="50%" stop-color="#FF69B4"/>
      <stop offset="100%" stop-color="#45B7D1"/>
    </radialGradient>
    <radialGradient id="leaf19" cx="50%" cy="50%" r="70%">
      <stop offset="0%" stop-color="#00FA9A"/>
      <stop offset="50%" stop-color="#FF69B4"/>
      <stop offset="100%" stop-color="#00CED1"/>
    </radialGradient>
  </defs>

  <!-- Background -->
  <rect width="1920" height="1080" fill="url(#bgGrad)"/>
  
  <!-- Leaves with clip-path -->
  <g clip-path="url(#complexClip)">
    <path d="M 1381.5668153536956,173.2330744784771 C 1422.4262000183603,207.28256169903102 1436.0459949065819,254.9518438078065 1381.5668153536956,309.43102336069273 C 1327.0876358008093,254.9518438078065 1340.7074306890308,207.28256169903102 1381.5668153536956,173.2330744784771 Z" fill="url(#leaf0)" opacity="0.22" transform="rotate(229.5 1381.6 241.3)"/>
    <path d="M 1663.4382979052064,222.29795611246118 C 1691.154344627055,245.39466171400176 1700.3930268676713,277.7300495561586 1663.4382979052064,314.6847785186235 C 1626.4835689427414,277.7300495561586 1635.7222511833577,245.39466171400176 1663.4382979052064,222.29795611246118 Z" fill="url(#leaf1)" opacity="0.22" transform="rotate(165.9 1663.4 268.5)"/>
    <path d="M 1358.723139016401,392.107552031419 C 1388.2706477212062,416.73047595209 1398.1198172894747,451.20256944102937 1358.723139016401,490.59924771410294 C 1319.3264607433275,451.20256944102937 1329.175630311596,416.73047595209 1358.723139016401,392.107552031419 Z" fill="url(#leaf2)" opacity="0.25" transform="rotate(338.3 1358.7 441.4)"/>
    <path d="M 861.0766092168419,694.2982059978324 C 901.7574049166922,728.1988690810409 915.3176701499756,775.6597973975329 861.0766092168419,829.9008583306666 C 806.8355482837082,775.6597973975329 820.3958135169917,728.1988690810409 861.0766092168419,694.2982059978324 Z" fill="url(#leaf3)" opacity="0.37" transform="rotate(166.5 861.1 762.1)"/>
    <path d="M 531.1108432752333,50.834936662649795 C 589.5818886110748,99.56080777585103 609.0722370563552,167.77702733433276 531.1108432752333,245.73842111545474 C 453.1494494941113,167.77702733433276 472.63979793939177,99.56080777585103 531.1108432752333,50.834936662649795 Z" fill="url(#leaf4)" opacity="0.39" transform="rotate(207.5 531.1 148.3)"/>
    <path d="M 780.2526947512168,703.1091645248661 C 805.0995003844217,723.81483588587 813.3817689288234,752.8027757912757 780.2526947512168,785.9318499688821 C 747.1236205736103,752.8027757912757 755.4058891180119,723.81483588587 780.2526947512168,703.1091645248661 Z" fill="url(#leaf5)" opacity="0.29" transform="rotate(10.6 780.3 744.5)"/>
    <path d="M 1850.4367827514484,552.2774959090283 C 1888.4143067739615,583.925432594456 1901.0734814481325,628.2325439540546 1850.4367827514484,678.8692426507388 C 1799.8000840547643,628.2325439540546 1812.4592587289353,583.925432594456 1850.4367827514484,552.2774959090283 Z" fill="url(#leaf6)" opacity="0.22" transform="rotate(277.8 1850.4 615.6)"/>
    <path d="M 1669.5670989686723,604.4037275460284 C 1720.8337927090472,647.1259723296743 1737.9226906225056,706.9371150267782 1669.5670989686723,775.2927066806114 C 1601.211507314839,706.9371150267782 1618.3004052282974,647.1259723296743 1669.5670989686723,604.4037275460284 Z" fill="url(#leaf7)" opacity="0.20" transform="rotate(280.7 1669.6 689.8)"/>
    <path d="M 1830.6670909127793,680.0171475090742 C 1857.3482583853374,702.251453736206 1866.2419808761902,733.3794824541906 1830.6670909127793,768.9543724176015 C 1795.0922009493684,733.3794824541906 1803.985923440221,702.251453736206 1830.6670909127793,680.0171475090742 Z" fill="url(#leaf8)" opacity="0.28" transform="rotate(256.6 1830.7 724.5)"/>
    <path d="M 1607.3107069179428,202.01462689347838 C 1664.4801933642866,249.655865598765 1683.5366888464014,316.3535997861663 1607.3107069179428,392.57958171462485 C 1531.0847249894841,316.3535997861663 1550.141220471599,249.655865598765 1607.3107069179428,202.01462689347838 Z" fill="url(#leaf9)" opacity="0.27" transform="rotate(343.6 1607.3 297.3)"/>
    <path d="M 348.8469630266722,670.123745133346 C 388.7603623275161,703.3849112173826 402.0648287611307,749.9505437350338 348.8469630266722,803.1684094694923 C 295.6290972922137,749.9505437350338 308.9335637258283,703.3849112173826 348.8469630266722,670.123745133346 Z" fill="url(#leaf10)" opacity="0.31" transform="rotate(17.8 348.8 736.6)"/>
    <path d="M 292.26278328507266,152.60214425424897 C 330.10310147957176,184.13574274966487 342.7165408777381,228.28278064324718 292.26278328507266,278.73653823591263 C 241.80902569240718,228.28278064324718 254.42246509057355,184.13574274966487 292.26278328507266,152.60214425424897 Z" fill="url(#leaf11)" opacity="0.28" transform="rotate(260.0 292.3 215.7)"/>
    <path d="M 168.45269014941823,666.1276032681736 C 212.70105225767475,703.0012383583875 227.45050629376027,754.6243274846867 168.45269014941823,813.6221436290288 C 109.45487400507619,754.6243274846867 124.20432804116172,703.0012383583875 168.45269014941823,666.1276032681736 Z" fill="url(#leaf12)" opacity="0.27" transform="rotate(76.8 168.5 739.9)"/>
    <path d="M 1750.2585583776663,833.7816588490075 C 1789.4916671241383,866.4759161377342 1802.5693700396291,912.2478763419516 1750.2585583776663,964.5586880039143 C 1697.9477467157035,912.2478763419516 1711.0254496311943,866.4759161377342 1750.2585583776663,833.7816588490075 Z" fill="url(#leaf13)" opacity="0.32" transform="rotate(104.7 1750.3 899.2)"/>
    <path d="M 310.9518362894865,829.041367127646 C 355.6110474448901,866.2573764238157 370.497451163358,918.3597894384532 310.9518362894865,977.9054043123247 C 251.406221415615,918.3597894384532 266.29262513408287,866.2573764238157 310.9518362894865,829.041367127646 Z" fill="url(#leaf14)" opacity="0.34" transform="rotate(73.9 311.0 903.5)"/>
    <path d="M 656.2573400285418,861.6508473167645 C 713.0579458198264,908.9846854761684 731.9914810835879,975.2520588993337 656.2573400285418,1050.9861999543798 C 580.5231989734956,975.2520588993337 599.4567342372571,908.9846854761684 656.2573400285418,861.6508473167645 Z" fill="url(#leaf15)" opacity="0.24" transform="rotate(186.9 656.3 956.3)"/>
    <path d="M 1376.2647421666823,357.66963002460557 C 1431.5546573495076,403.7445593436267 1449.984629077116,468.2494603902562 1376.2647421666823,541.96934730069 C 1302.5448552562484,468.2494603902562 1320.974826983857,403.7445593436267 1376.2647421666823,357.66963002460557 Z" fill="url(#leaf16)" opacity="0.36" transform="rotate(287.4 1376.3 449.8)"/>
    <path d="M 888.846970442943,414.2088504756873 C 913.0800983451381,434.40312372751663 921.15780764587,462.6751062800777 888.846970442943,494.9859434830047 C 856.5361332400159,462.6751062800777 864.6138425407478,434.40312372751663 888.846970442943,414.2088504756873 Z" fill="url(#leaf17)" opacity="0.38" transform="rotate(4.2 888.8 454.6)"/>
    <path d="M 1050.0634066611426,706.212859886984 C 1083.4889255260025,734.0674589410339 1094.6307651476227,773.0638976167039 1050.0634066611426,817.6312561031839 C 1005.4960481746626,773.0638976167039 1016.6378877962826,734.0674589410339 1050.0634066611426,706.212859886984 Z" fill="url(#leaf18)" opacity="0.32" transform="rotate(284.7 1050.1 761.9)"/>
    <path d="M 1276.156697771872,12.528462125318214 C 1320.9721429845044,49.87466646917868 1335.9106247220486,102.15935255058332 1276.156697771872,161.91327950076007 C 1216.4027708216952,102.15935255058332 1231.3412525592394,49.87466646917868 1276.156697771872,12.528462125318214 Z" fill="url(#leaf19)" opacity="0.32" transform="rotate(25.7 1276.2 87.2)"/>
    <path d="M 639.4697427372246,696.0879693680697 C 698.2074401710686,745.0360505629397 717.7866726490165,813.5633642357577 639.4697427372246,891.8802941475496 C 561.1528128254326,813.5633642357577 580.7320453033806,745.0360505629397 639.4697427372246,696.0879693680697 Z" fill="url(#leaf0)" opacity="0.21" transform="rotate(243.2 639.5 794.0)"/>
    <path d="M 174.55470495900346,470.46534194399635 C 224.29431605137486,511.91501785430586 240.87418641549868,569.9445641287392 174.55470495900346,636.2640455852344 C 108.23522350250825,569.9445641287392 124.81509386663205,511.91501785430586 174.55470495900346,470.46534194399635 Z" fill="url(#leaf1)" opacity="0.36" transform="rotate(119.0 174.6 553.4)"/>
    <path d="M 452.9370539074928,456.9918465773155 C 505.1509287070849,500.50340891030896 522.5555536402823,561.4195961764998 452.9370539074928,631.0380959092893 C 383.3185541747033,561.4195961764998 400.72317910790065,500.50340891030896 452.9370539074928,456.9918465773155 Z" fill="url(#leaf2)" opacity="0.28" transform="rotate(38.7 452.9 544.0)"/>
    <path d="M 1609.973781958469,329.0516738104658 C 1664.1763055304318,374.2204434537681 1682.2438133877529,437.4567209543914 1609.973781958469,509.72675238367515 C 1537.7037505291853,437.4567209543914 1555.7712583865064,374.2204434537681 1609.973781958469,329.0516738104658 Z" fill="url(#leaf3)" opacity="0.35" transform="rotate(131.8 1610.0 419.4)"/>
    <path d="M 850.9124314726746,16.76804068376738 C 892.8076992578028,51.68076383804094 906.7727885195122,100.55857625402392 850.9124314726746,156.41893330086162 C 795.052074425837,100.55857625402392 809.0171636875464,51.68076383804094 850.9124314726746,16.76804068376738 Z" fill="url(#leaf4)" opacity="0.21" transform="rotate(156.0 850.9 86.6)"/>
    <path d="M 1400.7597184525175,53.32587932206944 C 1459.6219222254322,102.37771579949839 1479.2426568164037,171.0502868678989 1400.7597184525175,249.5332252317852 C 1322.2767800886313,171.0502868678989 1341.8975146796029,102.37771579949839 1400.7597184525175,53.32587932206944 Z" fill="url(#leaf5)" opacity="0.35" transform="rotate(44.7 1400.8 151.4)"/>
    <path d="M 459.11393447710645,820.4170966669571 C 517.2683445091537,868.8791050269965 536.6531478531696,936.7259167310517 459.11393447710645,1014.2651301071148 C 381.57472110104334,936.7259167310517 400.9595244450591,868.8791050269965 459.11393447710645,820.4170966669571 Z" fill="url(#leaf6)" opacity="0.23" transform="rotate(333.7 459.1 917.3)"/>
    <path d="M 1278.4327959479485,609.5259682226762 C 1302.5849986153794,629.6528037788686 1310.6357328378563,657.8303735575379 1278.4327959479485,690.0333104474456 C 1246.2298590580408,657.8303735575379 1254.2805932805177,629.6528037788686 1278.4327959479485,609.5259682226762 Z" fill="url(#leaf7)" opacity="0.39" transform="rotate(64.6 1278.4 649.8)"/>
    <path d="M 1278.1288672642208,592.3067949715203 C 1315.9674876755103,623.8389786475947 1328.58036114594,667.984035794099 1278.1288672642208,718.4355296758181 C 1227.6773733825016,667.984035794099 1240.2902468529314,623.8389786475947 1278.1288672642208,592.3067949715203 Z" fill="url(#leaf8)" opacity="0.35" transform="rotate(330.2 1278.1 655.4)"/>
    <path d="M 1532.5822218620997,532.7954140448056 C 1578.669082342873,571.2011311121166 1594.0313691697975,624.9691350063522 1532.5822218620997,686.4182823140499 C 1471.133074554402,624.9691350063522 1486.4953613813263,571.2011311121166 1532.5822218620997,532.7954140448056 Z" fill="url(#leaf9)" opacity="0.23" transform="rotate(44.7 1532.6 609.6)"/>
    <path d="M 1594.5413514336012,537.2447610568406 C 1640.899057376216,575.8761826756863 1656.3516260237543,629.9601729420701 1594.5413514336012,691.7704475322232 C 1532.7310768434481,629.9601729420701 1548.1836454909865,575.8761826756863 1594.5413514336012,537.2447610568406 Z" fill="url(#leaf10)" opacity="0.28" transform="rotate(359.6 1594.5 614.5)"/>
    <path d="M 1652.843093562468,102.68123664703197 C 1686.0977775684248,130.3934733186625 1697.182672237077,169.19060465894526 1652.843093562468,213.5301833335541 C 1608.5035148878592,169.19060465894526 1619.5884095565114,130.3934733186625 1652.843093562468,102.68123664703197 Z" fill="url(#leaf11)" opacity="0.34" transform="rotate(290.1 1652.8 158.1)"/>
    <path d="M 675.0850822113466,746.1226598793091 C 710.7881291081053,775.8751989599414 722.6891447403582,817.5287536728265 675.0850822113466,865.1328162018381 C 627.481019682335,817.5287536728265 639.3820353145879,775.8751989599414 675.0850822113466,746.1226598793091 Z" fill="url(#leaf12)" opacity="0.21" transform="rotate(50.3 675.1 805.6)"/>
    <path d="M 815.8021624601059,110.72360244343713 C 851.253896347897,140.26671401659632 863.0711409771607,181.6270702190192 815.8021624601059,228.8960487360739 C 768.5331839430512,181.6270702190192 780.3504285723149,140.26671401659632 815.8021624601059,110.72360244343713 Z" fill="url(#leaf13)" opacity="0.34" transform="rotate(339.5 815.8 169.8)"/>
    <path d="M 960.169908537917,504.005839824948 C 1013.1131785882097,548.1252315335253 1030.7609352716406,609.8923799255334 960.169908537917,680.4834066592571 C 889.5788818041933,609.8923799255334 907.2266384876242,548.1252315335253 960.169908537917,504.005839824948 Z" fill="url(#leaf14)" opacity="0.35" transform="rotate(230.0 960.2 592.2)"/>
    <path d="M 550.1502116571713,877.0155893273054 C 581.6964448963511,903.304117026622 592.2118559760777,940.108055805665 550.1502116571713,982.1697001245714 C 508.08856733826497,940.108055805665 518.6039784179916,903.304117026622 550.1502116571713,877.0155893273054 Z" fill="url(#leaf15)" opacity="0.23" transform="rotate(312.7 550.2 929.6)"/>
    <path d="M 1786.2475201878212,236.20389250966358 C 1836.866451218047,278.3863350348517 1853.7394282281223,337.44175457011505 1786.2475201878212,404.93366261041604 C 1718.7556121475202,337.44175457011505 1735.6285891575956,278.3863350348517 1786.2475201878212,236.20389250966358 Z" fill="url(#leaf16)" opacity="0.20" transform="rotate(96.2 1786.2 320.6)"/>
    <path d="M 684.4954621546908,483.8470161736854 C 740.2797354504643,530.3339105868299 758.874493215722,595.4155627652323 684.4954621546908,669.7945938262635 C 610.1164310936596,595.4155627652323 628.7111888589174,530.3339105868299 684.4954621546908,483.8470161736854 Z" fill="url(#leaf17)" opacity="0.29" transform="rotate(189.0 684.5 576.8)"/>
    <path d="M 1422.437411110854,817.8382934852099 C 1481.278683862348,866.8726874447882 1500.8924414461794,935.520838988198 1422.437411110854,1013.9758693235234 C 1343.9823807755288,935.520838988198 1363.59613835936,866.8726874447882 1422.437411110854,817.8382934852099 Z" fill="url(#leaf18)" opacity="0.38" transform="rotate(125.7 1422.4 915.9)"/>
    <path d="M 154.78147490404353,419.86646507622015 C 214.46561553725473,469.60324893722947 234.36032908165845,539.2347463426426 154.78147490404353,618.8136005202574 C 75.2026207264286,539.2347463426426 95.09733427083233,469.60324893722947 154.78147490404353,419.86646507622015 Z" fill="url(#leaf19)" opacity="0.26" transform="rotate(335.3 154.8 519.3)"/>
    <path d="M 1409.1566848730731,890.9121340148309 C 1463.0038816340943,935.7847979823487 1480.9529472211016,998.6065275368735 1409.1566848730731,1070.4027898849017 C 1337.3604225250447,998.6065275368735 1355.309488112052,935.7847979823487 1409.1566848730731,890.9121340148309 Z" fill="url(#leaf0)" opacity="0.27" transform="rotate(145.1 1409.2 980.7)"/>
    <path d="M 1799.8633370987507,841.4595321036022 C 1831.734789745514,868.019075975905 1842.3586072944352,905.202437397129 1799.8633370987507,947.6977075928135 C 1757.3680669030662,905.202437397129 1767.9918844519873,868.019075975905 1799.8633370987507,841.4595321036022 Z" fill="url(#leaf1)" opacity="0.28" transform="rotate(79.3 1799.9 894.6)"/>
    <path d="M 328.82057692908273,62.80555682639181 C 359.70882996128535,88.54576768656065 370.0049143053529,124.58206289079703 328.82057692908273,165.76640026706718 C 287.6362395528126,124.58206289079703 297.9323238968801,88.54576768656065 328.82057692908273,62.80555682639181 Z" fill="url(#leaf2)" opacity="0.40" transform="rotate(284.0 328.8 114.3)"/>
    <path d="M 304.16238858431484,269.963678033281 C 346.46127989450986,305.21275412511017 360.56091033124153,354.561460653671 304.16238858431484,410.9599824005977 C 247.76386683738812,354.561460653671 261.8634972741198,305.21275412511017 304.16238858431484,269.963678033281 Z" fill="url(#leaf3)" opacity="0.37" transform="rotate(2.8 304.2 340.5)"/>
    <path d="M 291.6123215183579,465.4335307722364 C 335.1854087819886,501.74443682526197 349.7097712031988,552.5797052994977 291.6123215183579,610.6771549843387 C 233.51487183351693,552.5797052994977 248.03923425472718,501.74443682526197 291.6123215183579,465.4335307722364 Z" fill="url(#leaf4)" opacity="0.30" transform="rotate(36.8 291.6 538.1)"/>
    <path d="M 1157.176201382624,540.6603951495823 C 1183.6082169581064,562.6870747958176 1192.4188888166004,593.5244263005471 1157.176201382624,628.7671137345236 C 1121.9335139486475,593.5244263005471 1130.7441858071415,562.6870747958176 1157.176201382624,540.6603951495823 Z" fill="url(#leaf5)" opacity="0.31" transform="rotate(342.2 1157.2 584.7)"/>
    <path d="M 1235.7633157821824,252.76297044913824 C 1271.4102269558816,282.46872976055425 1283.2925306804482,324.0567927965367 1235.7633157821824,371.58600769480233 C 1188.2341008839167,324.0567927965367 1200.1164046084832,282.46872976055425 1235.7633157821824,252.76297044913824 Z" fill="url(#leaf6)" opacity="0.36" transform="rotate(258.2 1235.8 312.2)"/>
    <path d="M 1275.2094159156118,305.03976300753243 C 1308.3086306368107,332.6224419418648 1319.3417022105436,371.2381924499302 1275.2094159156118,415.370478744862 C 1231.07712962068,371.2381924499302 1242.1102011944129,332.6224419418648 1275.2094159156118,305.03976300753243 Z" fill="url(#leaf7)" opacity="0.30" transform="rotate(286.6 1275.2 360.2)"/>
    <path d="M 1683.1072163553029,327.16797826233926 C 1734.6685243992758,370.13573496565 1751.8556270806,430.29059435028506 1683.1072163553029,499.0390050755823 C 1614.3588056300057,430.29059435028506 1631.5459083113299,370.13573496565 1683.1072163553029,327.16797826233926 Z" fill="url(#leaf8)" opacity="0.32" transform="rotate(278.5 1683.1 413.1)"/>
    <path d="M 1783.7796084850488,330.7644153840829 C 1828.6500173814363,368.15642279773914 1843.6068203468988,420.5052331768579 1783.7796084850488,480.332445038708 C 1723.9523966231989,420.5052331768579 1738.9091995886613,368.15642279773914 1783.7796084850488,330.7644153840829 Z" fill="url(#leaf9)" opacity="0.24" transform="rotate(335.8 1783.8 405.5)"/>
    <path d="M 1397.8430773563207,592.508076434858 C 1425.866223960766,615.8606986052292 1435.2072728289147,648.5543696437489 1397.8430773563207,685.9185651163428 C 1360.4788818837267,648.5543696437489 1369.8199307518753,615.8606986052292 1397.8430773563207,592.508076434858 Z" fill="url(#leaf10)" opacity="0.27" transform="rotate(49.2 1397.8 639.2)"/>
    <path d="M 1078.0820932256065,183.294045049024 C 1118.9013796871325,217.31011710029554 1132.507808507641,264.9326179720757 1078.0820932256065,319.3583332541102 C 1023.656377943572,264.9326179720757 1037.2628067640806,217.31011710029554 1078.0820932256065,183.294045049024 Z" fill="url(#leaf11)" opacity="0.33" transform="rotate(221.7 1078.1 251.3)"/>
    <path d="M 1662.9413026412221,507.04109615564755 C 1702.0940848632983,539.6684146740444 1715.1450122706572,585.3466605998 1662.9413026412221,637.550370229235 C 1610.737593011787,585.3466605998 1623.788520419146,539.6684146740444 1662.9413026412221,507.04109615564755 Z" fill="url(#leaf12)" opacity="0.28" transform="rotate(147.3 1662.9 572.3)"/>
    <path d="M 733.2719275674602,682.9746532064983 C 774.9431092798112,717.7006379667906 788.8335031839281,766.3170166312001 733.2719275674602,821.8785922476679 C 677.7103519509924,766.3170166312001 691.6007458551093,717.7006379667906 733.2719275674602,682.9746532064983 Z" fill="url(#leaf13)" opacity="0.28" transform="rotate(8.4 733.3 752.4)"/>
    <path d="M 925.5142763066084,33.2479401991658 C 978.052474693895,77.02977218857129 995.5652074896572,138.32433697373895 925.5142763066084,208.37526815678774 C 855.4633451235596,138.32433697373895 872.9760779193218,77.02977218857129 925.5142763066084,33.2479401991658 Z" fill="url(#leaf14)" opacity="0.32" transform="rotate(254.8 925.5 120.8)"/>
    <path d="M 1683.2381614867672,813.6396165485935 C 1713.5754488861198,838.9206893813873 1723.6878780192374,874.3141913472986 1683.2381614867672,914.7639078797686 C 1642.7884449542971,874.3141913472986 1652.9008740874146,838.9206893813873 1683.2381614867672,813.6396165485935 Z" fill="url(#leaf15)" opacity="0.27" transform="rotate(248.2 1683.2 864.2)"/>
    <path d="M 1207.6942285417463,847.8933926440004 C 1252.1469437618273,884.9373219940678 1266.9645155018543,936.7988230841623 1207.6942285417463,996.0691100442702 C 1148.4239415816382,936.7988230841623 1163.2415133216653,884.9373219940678 1207.6942285417463,847.8933926440004 Z" fill="url(#leaf16)" opacity="0.28" transform="rotate(303.5 1207.7 922.0)"/>
    <path d="M 285.9155023872513,558.2749282501088 C 328.73633795787026,593.9589578922912 343.00994981474327,643.9165993913467 285.9155023872513,701.0110468188386 C 228.82105495975938,643.9165993913467 243.09466681663235,593.9589578922912 285.9155023872513,558.2749282501088 Z" fill="url(#leaf17)" opacity="0.28" transform="rotate(37.8 285.9 629.6)"/>
    <path d="M 1254.590630967033,600.5758829977111 C 1282.6232900577304,623.936432239959 1291.9675097546294,656.641201179106 1254.590630967033,694.0180799667027 C 1217.2137521794364,656.641201179106 1226.5579718763354,623.936432239959 1254.590630967033,600.5758829977111 Z" fill="url(#leaf18)" opacity="0.33" transform="rotate(52.9 1254.6 647.3)"/>
    <path d="M 1666.0702765121605,263.5544705276593 C 1692.7121854513666,285.7560613103312 1701.5928217644355,316.8382884060718 1666.0702765121605,352.3608336583468 C 1630.5477312598855,316.8382884060718 1639.4283675729544,285.7560613103312 1666.0702765121605,263.5544705276593 Z" fill="url(#leaf19)" opacity="0.30" transform="rotate(138.0 1666.1 308.0)"/>
    <path d="M 1203.7329381467737,776.2928411433636 C 1253.6337156208795,817.8768223717851 1270.267308112248,876.0943960915753 1203.7329381467737,942.6287660570497 C 1137.1985681812994,876.0943960915753 1153.832160672668,817.8768223717851 1203.7329381467737,776.2928411433636 Z" fill="url(#leaf0)" opacity="0.35" transform="rotate(194.2 1203.7 859.5)"/>
    <path d="M 773.1228852939815,661.6661582221543 C 807.5896406085772,690.3884543176506 819.0785590467757,730.5996688513455 773.1228852939815,776.5553426041397 C 727.1672115411874,730.5996688513455 738.6561299793859,690.3884543176506 773.1228852939815,661.6661582221543 Z" fill="url(#leaf1)" opacity="0.30" transform="rotate(303.0 773.1 719.1)"/>
    <path d="M 1264.1720642830412,779.7810523478151 C 1309.3947975563888,817.4666634089382 1324.469041980838,870.2265188945105 1264.1720642830412,930.5234965923073 C 1203.8750865852444,870.2265188945105 1218.9493310096937,817.4666634089382 1264.1720642830412,779.7810523478151 Z" fill="url(#leaf2)" opacity="0.35" transform="rotate(56.7 1264.2 855.2)"/>
    <path d="M 488.09687764495163,-6.453170568904952 C 525.4409715102229,24.66690765215438 537.8890027986465,68.23501716163744 488.09687764495163,118.02714231533237 C 438.3047524912567,68.23501716163744 450.75278377968044,24.66690765215438 488.09687764495163,-6.453170568904952 Z" fill="url(#leaf3)" opacity="0.39" transform="rotate(35.7 488.1 55.8)"/>
    <path d="M 409.8436543827928,661.1416018520864 C 446.3999210029126,691.6051573688528 458.58534320961917,734.2541350923259 409.8436543827928,782.9958239191523 C 361.10196555596644,734.2541350923259 373.287387762673,691.6051573688528 409.8436543827928,661.1416018520864 Z" fill="url(#leaf4)" opacity="0.22" transform="rotate(278.9 409.8 722.1)"/>
    <path d="M 90.30416379061042,110.69515351295846 C 134.77201874086953,147.75169930484105 149.59463705762255,199.63086341347665 90.30416379061042,258.9213366804888 C 31.013690523598278,199.63086341347665 45.836308840351315,147.75169930484105 90.30416379061042,110.69515351295846 Z" fill="url(#leaf5)" opacity="0.20" transform="rotate(238.7 90.3 184.8)"/>
    <path d="M 1703.4149242025971,276.3288940482035 C 1743.3112172199978,309.5758048960374 1756.6099815591315,356.1214800830049 1703.4149242025971,409.3165374395391 C 1650.2198668460628,356.1214800830049 1663.5186311851965,309.5758048960374 1703.4149242025971,276.3288940482035 Z" fill="url(#leaf6)" opacity="0.31" transform="rotate(46.8 1703.4 342.8)"/>
    <path d="M 86.60192545473978,587.2860914040904 C 133.45231055191638,626.3280789850709 149.0691055843086,680.9868615984436 86.60192545473978,743.4540417280124 C 24.134745325170975,680.9868615984436 39.75154035756318,626.3280789850709 86.60192545473978,587.2860914040904 Z" fill="url(#leaf7)" opacity="0.33" transform="rotate(117.8 86.6 665.4)"/>
    <path d="M 624.6806788744335,332.10479386312113 C 650.604517348843,353.7079925917958 659.2457968403129,383.95247081194026 624.6806788744335,418.5175887778197 C 590.1155609085541,383.95247081194026 598.756840400024,353.7079925917958 624.6806788744335,332.10479386312113 Z" fill="url(#leaf8)" opacity="0.24" transform="rotate(25.0 624.7 375.3)"/>
    <path d="M 262.3257738006596,12.695951565395134 C 312.34902156644677,54.38199137021777 329.0234374883758,112.74244709696946 262.3257738006596,179.44011078468566 C 195.62811011294338,112.74244709696946 212.30252603487241,54.38199137021777 262.3257738006596,12.695951565395134 Z" fill="url(#leaf9)" opacity="0.21" transform="rotate(185.6 262.3 96.1)"/>
    <path d="M 1500.7597475805533,97.00379311133764 C 1551.2065197377597,139.0427699090096 1568.0221104568284,197.89733742575032 1500.7597475805533,265.15970030202544 C 1433.4973847042781,197.89733742575032 1450.3129754233469,139.0427699090096 1500.7597475805533,97.00379311133764 Z" fill="url(#leaf10)" opacity="0.33" transform="rotate(233.7 1500.8 181.1)"/>
    <path d="M 1620.525205329577,661.5463657186651 C 1666.8745068999726,700.1707836939947 1682.3242740901044,754.2449688594563 1620.525205329577,816.0440376199838 C 1558.7261365690495,754.2449688594563 1574.1759037591812,700.1707836939947 1620.525205329577,661.5463657186651 Z" fill="url(#leaf11)" opacity="0.33" transform="rotate(144.6 1620.5 738.8)"/>
    <path d="M 526.3602241052913,629.6167664820684 C 574.335244732108,669.595950337749 590.3269182743802,725.5668077357018 526.3602241052913,789.5335019047907 C 462.3935299362024,725.5668077357018 478.38520347847464,669.595950337749 526.3602241052913,629.6167664820684 Z" fill="url(#leaf12)" opacity="0.28" transform="rotate(92.5 526.4 709.6)"/>
    <path d="M 1340.4621949424493,421.7862939483766 C 1379.650379806519,454.4431146684346 1392.7131080945421,500.16266367651576 1340.4621949424493,552.4135768286085 C 1288.2112817903565,500.16266367651576 1301.2740100783797,454.4431146684346 1340.4621949424493,421.7862939483766 Z" fill="url(#leaf13)" opacity="0.21" transform="rotate(337.2 1340.5 487.1)"/>
    <path d="M 1072.9126164229408,224.33334497368452 C 1116.6357563368651,260.7692949019548 1131.2101363081733,311.7796248015333 1072.9126164229408,370.07714468676585 C 1014.6150965377083,311.7796248015333 1029.1894765090165,260.7692949019548 1072.9126164229408,224.33334497368452 Z" fill="url(#leaf14)" opacity="0.37" transform="rotate(30.5 1072.9 297.2)"/>
    <path d="M 138.0782721487151,785.3939281257957 C 162.64583864803922,805.8669002085659 170.83502748114728,834.529061124444 138.0782721487151,867.2858164568762 C 105.32151681628291,834.529061124444 113.51070564939096,805.8669002085659 138.0782721487151,785.3939281257957 Z" fill="url(#leaf15)" opacity="0.28" transform="rotate(337.9 138.1 826.3)"/>
    <path d="M 235.05826807617012,402.29142351205496 C 280.79192330902913,440.4028028727708 296.0364750533155,493.758733977773 235.05826807617012,554.7369409549183 C 174.0800610990248,493.758733977773 189.32461284331112,440.4028028727708 235.05826807617012,402.29142351205496 Z" fill="url(#leaf16)" opacity="0.38" transform="rotate(287.4 235.1 478.5)"/>
    <path d="M 179.8276606095676,98.00023904445004 C 210.27145583062173,123.37006839532847 220.4193875709731,158.88782948655827 179.8276606095676,199.47955644796377 C 139.2359336481621,158.88782948655827 149.38386538851347,123.37006839532847 179.8276606095676,98.00023904445004 Z" fill="url(#leaf17)" opacity="0.28" transform="rotate(359.4 179.8 148.7)"/>
    <path d="M 1197.1311973447523,381.1238508300783 C 1226.1840444763004,405.33455677303516 1235.8683268534833,439.2295450931747 1197.1311973447523,477.9666746019056 C 1158.3940678360213,439.2295450931747 1168.0783502132042,405.33455677303516 1197.1311973447523,381.1238508300783 Z" fill="url(#leaf18)" opacity="0.39" transform="rotate(15.5 1197.1 429.5)"/>
    <path d="M 879.6007891938912,818.5375273265898 C 920.4998197496254,852.6200527897016 934.1328299348701,900.3355884380583 879.6007891938912,954.8676291790372 C 825.0687484529122,900.3355884380583 838.7017586381569,852.6200527897016 879.6007891938912,818.5375273265898 Z" fill="url(#leaf19)" opacity="0.36" transform="rotate(162.1 879.6 886.7)"/>
    <path d="M 333.73134398549684,494.0005989595819 C 379.2597262954175,531.9409175511825 394.43585373205775,585.0573635794232 333.73134398549684,645.7618733259841 C 273.0268342389359,585.0573635794232 288.20296167557615,531.9409175511825 333.73134398549684,494.0005989595819 Z" fill="url(#leaf0)" opacity="0.27" transform="rotate(356.3 333.7 569.9)"/>
    <path d="M 582.6242442948653,536.922713267851 C 635.5926149671251,581.0630221614008 653.248738524545,642.8594546123705 582.6242442948653,713.4839488420502 C 511.99975006518565,642.8594546123705 529.6558736226056,581.0630221614008 582.6242442948653,536.922713267851 Z" fill="url(#leaf1)" opacity="0.36" transform="rotate(353.0 582.6 625.2)"/>
    <path d="M 1145.4121454844228,478.6119485515192 C 1176.3001624030471,504.3519626503728 1186.5961680425885,540.3879823887679 1145.4121454844228,581.5720049469337 C 1104.2281229262571,540.3879823887679 1114.5241285657985,504.3519626503728 1145.4121454844228,478.6119485515192 Z" fill="url(#leaf2)" opacity="0.31" transform="rotate(188.9 1145.4 530.1)"/>
    <path d="M 416.53780893757727,932.3964011464094 C 442.02058805368836,953.6320504098353 450.5148477590587,983.3619593786316 416.53780893757727,1017.338998200113 C 382.56077011609585,983.3619593786316 391.0550298214662,953.6320504098353 416.53780893757727,932.3964011464094 Z" fill="url(#leaf3)" opacity="0.28" transform="rotate(162.8 416.5 974.9)"/>
    <path d="M 985.9995747418559,651.1293485744245 C 1042.6916001390857,698.372703072116 1061.5889419381622,764.513399368884 985.9995747418559,840.1027665651904 C 910.4102075455496,764.513399368884 929.3075493446262,698.372703072116 985.9995747418559,651.1293485744245 Z" fill="url(#leaf4)" opacity="0.30" transform="rotate(318.8 986.0 745.6)"/>
    <path d="M 391.412480358383,898.2919217753931 C 416.24426506415733,918.9850756968718 424.5215266327488,947.9554911869419 391.412480358383,981.0645374613077 C 358.30343408401717,947.9554911869419 366.58069565260865,918.9850756968718 391.412480358383,898.2919217753931 Z" fill="url(#leaf5)" opacity="0.31" transform="rotate(85.0 391.4 939.7)"/>
    <path d="M 51.0788709064801,699.6809770735057 C 75.30665577936836,719.8707978009126 83.38258407033109,748.1365468192822 51.0788709064801,780.4402599831332 C 18.775157742629098,748.1365468192822 26.851086033591848,719.8707978009126 51.0788709064801,699.6809770735057 Z" fill="url(#leaf6)" opacity="0.39" transform="rotate(115.5 51.1 740.1)"/>
    <path d="M 788.1614725417969,411.17423239317054 C 827.6778419386466,444.10454022387853 840.8499650709298,490.2069711868698 788.1614725417969,542.8954637160026 C 735.472980012664,490.2069711868698 748.6451031449473,444.10454022387853 788.1614725417969,411.17423239317054 Z" fill="url(#leaf7)" opacity="0.32" transform="rotate(238.1 788.2 477.0)"/>
    <path d="M 175.38903056916246,443.6961220576735 C 220.4684384416032,481.2622952847075 235.4949077324168,533.854937802555 175.38903056916246,593.9608149658094 C 115.28315340590811,533.854937802555 130.3096226967217,481.2622952847075 175.38903056916246,443.6961220576735 Z" fill="url(#leaf8)" opacity="0.34" transform="rotate(243.2 175.4 518.8)"/>
    <path d="M 416.42408683779735,-0.2346105900853388 C 465.70129592952253,40.82973031968564 482.12703229343094,98.319807593365 416.42408683779735,164.02275304899857 C 350.72114138216375,98.319807593365 367.14687774607216,40.82973031968564 416.42408683779735,-0.2346105900853388 Z" fill="url(#leaf9)" opacity="0.30" transform="rotate(316.2 416.4 81.9)"/>
    <path d="M 1725.2141902717824,230.03378173125049 C 1774.225711999891,270.8767165046744 1790.5628859092606,328.0568251874678 1725.2141902717824,393.405520824946 C 1659.8654946343042,328.0568251874678 1676.2026685436738,270.8767165046744 1725.2141902717824,230.03378173125049 Z" fill="url(#leaf10)" opacity="0.39" transform="rotate(104.9 1725.2 311.7)"/>
    <path d="M 264.395347582722,860.2353526668663 C 313.3427779935108,901.0248780091903 329.6585881304405,958.1302134884439 264.395347582722,1023.3934540361623 C 199.13210703500357,958.1302134884439 215.4479171719332,901.0248780091903 264.395347582722,860.2353526668663 Z" fill="url(#leaf11)" opacity="0.37" transform="rotate(254.9 264.4 941.8)"/>
    <path d="M 487.6774285566805,16.543042878822042 C 524.6229340401878,47.33096411507809 536.9381025346902,90.43405384583654 487.6774285566805,139.69472782384622 C 438.41675457867086,90.43405384583654 450.7319230731733,47.33096411507809 487.6774285566805,16.543042878822042 Z" fill="url(#leaf12)" opacity="0.40" transform="rotate(356.5 487.7 78.1)"/>
    <path d="M 1724.4140772950077,788.1143354557468 C 1777.9070620977927,832.6918227914009 1795.7380570320543,895.1003050613167 1724.4140772950077,966.4242847983634 C 1653.0900975579611,895.1003050613167 1670.9210924922227,832.6918227914009 1724.4140772950077,788.1143354557468 Z" fill="url(#leaf13)" opacity="0.39" transform="rotate(348.3 1724.4 877.3)"/>
    <path d="M 1441.3725450593922,63.30244393620853 C 1498.352767287953,110.7859624600091 1517.346174697473,177.2628883933299 1441.3725450593922,253.2365180314108 C 1365.3989154213114,177.2628883933299 1384.3923228308315,110.7859624600091 1441.3725450593922,63.30244393620853 Z" fill="url(#leaf14)" opacity="0.40" transform="rotate(330.1 1441.4 158.3)"/>
    <path d="M 1496.8320567666171,202.08954033193683 C 1523.1281126174083,224.00292020759613 1531.893464567672,254.68165203351919 1496.8320567666171,289.7430598345741 C 1461.7706489655623,254.68165203351919 1470.536000915826,224.00292020759613 1496.8320567666171,202.08954033193683 Z" fill="url(#leaf15)" opacity="0.35" transform="rotate(72.6 1496.8 245.9)"/>
    <path d="M 610.2841342682216,110.12428569793113 C 655.8704805132409,148.11290756878057 671.0659292615807,201.29697818796978 610.2841342682216,262.07877318132887 C 549.5023392748625,201.29697818796978 564.6977880232023,148.11290756878057 610.2841342682216,110.12428569793113 Z" fill="url(#leaf16)" opacity="0.33" transform="rotate(235.2 610.3 186.1)"/>
    <path d="M 750.1730786058965,728.4048264767227 C 789.7148765261276,761.3563247435819 802.8954758328713,807.4884223171848 750.1730786058965,860.2108195441594 C 697.4506813789218,807.4884223171848 710.6312806856655,761.3563247435819 750.1730786058965,728.4048264767227 Z" fill="url(#leaf17)" opacity="0.29" transform="rotate(315.4 750.2 794.3)"/>
    <path d="M 1733.834133716255,-33.856508836800856 C 1785.288559052896,9.022178943733323 1802.4400341651099,69.05234183648118 1733.834133716255,137.65824228533586 C 1665.2282332674004,69.05234183648118 1682.3797083796142,9.022178943733323 1733.834133716255,-33.856508836800856 Z" fill="url(#leaf18)" opacity="0.28" transform="rotate(10.7 1733.8 51.9)"/>
    <path d="M 1086.691058060194,-8.169585497548681 C 1131.381215472797,29.072212346287046 1146.2779346103312,81.21072932765706 1086.691058060194,140.79760587779424 C 1027.104181510057,81.21072932765706 1042.0009006475912,29.072212346287046 1086.691058060194,-8.169585497548681 Z" fill="url(#leaf19)" opacity="0.28" transform="rotate(124.1 1086.7 66.3)"/>
    <path d="M 517.3824461712236,229.40255449093954 C 548.9104463882267,255.67588800510876 559.4197797938943,292.45855492494564 517.3824461712236,334.49588854761635 C 475.34511254855283,292.45855492494564 485.8544459542205,255.67588800510876 517.3824461712236,229.40255449093954 Z" fill="url(#leaf0)" opacity="0.23" transform="rotate(48.2 517.4 281.9)"/>
    <path d="M 342.36967867431963,617.6406702126511 C 402.29849008717156,667.5813463900278 422.27476055812224,737.4982930383551 342.36967867431963,817.4033749221577 C 262.464596790517,737.4982930383551 282.4408672614677,667.5813463900278 342.36967867431963,617.6406702126511 Z" fill="url(#leaf1)" opacity="0.37" transform="rotate(90.2 342.4 717.5)"/>
    <path d="M 1464.0122749232596,827.1523678487497 C 1521.7080698144875,875.2321969247731 1540.940001444897,942.5439576312058 1464.0122749232596,1019.4716841528432 C 1387.0845484016222,942.5439576312058 1406.3164800320317,875.2321969247731 1464.0122749232596,827.1523678487497 Z" fill="url(#leaf2)" opacity="0.30" transform="rotate(83.8 1464.0 923.3)"/>
    <path d="M 1643.3437531995605,73.7235131049048 C 1680.8458906317803,104.97529429842135 1693.346603109187,148.72778796934455 1643.3437531995605,198.73063787897104 C 1593.340903289934,148.72778796934455 1605.8416157673407,104.97529429842135 1643.3437531995605,73.7235131049048 Z" fill="url(#leaf3)" opacity="0.21" transform="rotate(249.6 1643.3 136.2)"/>
    <path d="M 63.023636208355995,237.89833567152232 C 108.82447778411087,276.065703651318 124.09142497602916,329.50001882303206 63.023636208355995,390.56780759070523 C 1.955847440682831,329.50001882303206 17.222794632601122,276.065703651318 63.023636208355995,237.89833567152232 Z" fill="url(#leaf4)" opacity="0.38" transform="rotate(66.1 63.0 314.2)"/>
    <path d="M 499.7933277430216,120.8114723798627 C 529.2345080155153,145.34578927360744 539.0482347730132,179.69383292485003 499.7933277430216,218.94873995484159 C 460.53842071303006,179.69383292485003 470.35214747052794,145.34578927360744 499.7933277430216,120.8114723798627 Z" fill="url(#leaf5)" opacity="0.26" transform="rotate(274.0 499.8 169.9)"/>
    <path d="M 1713.6346429954779,821.4098617931173 C 1772.5769133635865,870.5284204332079 1792.2243368196227,939.2944025293347 1713.6346429954779,1017.8840963534795 C 1635.044949171333,939.2944025293347 1654.6923726273692,870.5284204332079 1713.6346429954779,821.4098617931173 Z" fill="url(#leaf6)" opacity="0.32" transform="rotate(144.3 1713.6 919.6)"/>
    <path d="M 1615.1132504757677,252.86055178920554 C 1672.1526689712339,300.39340053542736 1691.1658084697226,366.9393887801379 1615.1132504757677,442.9919467740928 C 1539.0606924818128,366.9393887801379 1558.0738319803015,300.39340053542736 1615.1132504757677,252.86055178920554 Z" fill="url(#leaf7)" opacity="0.29" transform="rotate(133.1 1615.1 347.9)"/>
    <path d="M 601.1974911273769,901.5950593755713 C 634.5539798235899,929.3921332890822 645.6728093889942,968.3080367679972 601.1974911273769,1012.7833550296145 C 556.7221728657596,968.3080367679972 567.8410024311639,929.3921332890822 601.1974911273769,901.5950593755713 Z" fill="url(#leaf8)" opacity="0.35" transform="rotate(127.8 601.2 957.2)"/>
    <path d="M 428.87059866891803,237.05327446704428 C 466.34423769406516,268.2813069880002 478.83545070244753,312.0005525173385 428.87059866891803,361.965404550868 C 378.90574663538854,312.0005525173385 391.3969596437709,268.2813069880002 428.87059866891803,237.05327446704428 Z" fill="url(#leaf9)" opacity="0.33" transform="rotate(183.7 428.9 299.5)"/>
    <path d="M 81.09493441382202,694.0838367786976 C 106.38733604321571,715.1608381365256 114.81813658634695,744.6686400374849 81.09493441382202,778.3918422100098 C 47.37173224129709,744.6686400374849 55.80253278442832,715.1608381365256 81.09493441382202,694.0838367786976 Z" fill="url(#leaf10)" opacity="0.22" transform="rotate(289.1 81.1 736.2)"/>
    <path d="M 1219.9804856925139,6.757650484558894 C 1263.4141297608176,42.95235387481192 1277.8920111169186,93.62493862116615 1219.9804856925139,151.536464045571 C 1162.068960268109,93.62493862116615 1176.5468416242102,42.95235387481192 1219.9804856925139,6.757650484558894 Z" fill="url(#leaf11)" opacity="0.29" transform="rotate(194.4 1220.0 79.1)"/>
    <path d="M 1469.6006827150718,28.3085899708623 C 1525.8597834186187,75.19117389048468 1544.6128169864676,140.826791377956 1469.6006827150718,215.8389256493518 C 1394.588548443676,140.826791377956 1413.341582011525,75.19117389048468 1469.6006827150718,28.3085899708623 Z" fill="url(#leaf12)" opacity="0.37" transform="rotate(229.4 1469.6 122.1)"/>
    <path d="M 309.73910374958285,953.4709108236158 C 349.24715509312387,986.3942869432334 362.4165055409709,1032.4870135106978 309.73910374958285,1085.164415302086 C 257.0617019581948,1032.4870135106978 270.23105240604184,986.3942869432334 309.73910374958285,953.4709108236158 Z" fill="url(#leaf13)" opacity="0.33" transform="rotate(185.7 309.7 1019.3)"/>
    <path d="M 713.4394324986704,36.29196080428858 C 760.3140421515908,75.35413551505555 775.9389120358975,130.0411801101293 713.4394324986704,192.54065964735645 C 650.9399529614433,130.0411801101293 666.56482284575,75.35413551505555 713.4394324986704,36.29196080428858 Z" fill="url(#leaf14)" opacity="0.22" transform="rotate(132.7 713.4 114.4)"/>
    <path d="M 1460.243633099398,870.6392438556948 C 1514.6998331137725,916.0194105343402 1532.8518997852307,979.5516438844438 1460.243633099398,1052.1599105702765 C 1387.6353664135654,979.5516438844438 1405.7874330850236,916.0194105343402 1460.243633099398,870.6392438556948 Z" fill="url(#leaf15)" opacity="0.31" transform="rotate(86.9 1460.2 961.4)"/>
    <path d="M 963.8011448247656,459.0334360050367 C 1006.9622076331443,495.0009883453523 1021.3492285692706,545.3555616217941 963.8011448247656,602.9036453662991 C 906.2530610802606,545.3555616217941 920.6400820163869,495.0009883453523 963.8011448247656,459.0334360050367 Z" fill="url(#leaf16)" opacity="0.29" transform="rotate(21.7 963.8 531.0)"/>
    <path d="M 897.1934268410782,703.9476870564513 C 944.3556485496769,743.2495384802835 960.0763891192097,798.2721304736485 897.1934268410782,861.1550927517801 C 834.3104645629468,798.2721304736485 850.0312051324796,743.2495384802835 897.1934268410782,703.9476870564513 Z" fill="url(#leaf17)" opacity="0.33" transform="rotate(99.5 897.2 782.6)"/>
    <path d="M 535.9923986215614,92.56103435892932 C 564.0393337586113,115.93348030647087 573.3883121376278,148.65490463302905 535.9923986215614,186.05081814909556 C 498.5964851054949,148.65490463302905 507.94546348451155,115.93348030647087 535.9923986215614,92.56103435892932 Z" fill="url(#leaf18)" opacity="0.38" transform="rotate(84.5 536.0 139.3)"/>
    <path d="M 700.3426482029333,619.5742567584115 C 752.9320294747818,663.3987411516184 770.4618232320645,724.7530193021083 700.3426482029333,794.8721943312395 C 630.2234731738022,724.7530193021083 647.7532669310849,663.3987411516184 700.3426482029333,619.5742567584115 Z" fill="url(#leaf19)" opacity="0.38" transform="rotate(160.0 700.3 707.2)"/>
    <path d="M 1160.8307564058307,168.2084293509276 C 1217.3008329578095,215.26682647757664 1236.1241918084693,281.14858245488534 1160.8307564058307,356.4420178575238 C 1085.5373210031921,281.14858245488534 1104.360679853852,215.26682647757664 1160.8307564058307,168.2084293509276 Z" fill="url(#leaf0)" opacity="0.35" transform="rotate(65.4 1160.8 262.3)"/>
    <path d="M 1472.7593809022167,931.9528949596469 C 1503.5584769326254,957.6188083183209 1513.824842276095,993.5510870204645 1472.7593809022167,1034.6165483943428 C 1431.6939195283383,993.5510870204645 1441.960284871808,957.6188083183209 1472.7593809022167,931.9528949596469 Z" fill="url(#leaf1)" opacity="0.32" transform="rotate(306.8 1472.8 983.3)"/>
    <path d="M 1654.4942291197133,759.0337010153307 C 1691.5651210362657,789.9261109457912 1703.9220850084498,833.1754848484356 1654.4942291197133,882.6033407371722 C 1605.0663732309768,833.1754848484356 1617.4233372031608,789.9261109457912 1654.4942291197133,759.0337010153307 Z" fill="url(#leaf2)" opacity="0.33" transform="rotate(310.7 1654.5 820.8)"/>
    <path d="M 1335.709129781617,763.0989271522044 C 1381.8816666725797,801.5760412280066 1397.2725123029009,855.4440009341298 1335.709129781617,917.0073834554134 C 1274.1457472603333,855.4440009341298 1289.5365928906544,801.5760412280066 1335.709129781617,763.0989271522044 Z" fill="url(#leaf3)" opacity="0.32" transform="rotate(131.2 1335.7 840.1)"/>
    <path d="M 145.72100293646224,508.4908813478626 C 188.25214624714732,543.9335007734335 202.42919401737566,593.5531679692327 145.72100293646224,650.2613590501462 C 89.01281185554882,593.5531679692327 103.18985962577717,543.9335007734335 145.72100293646224,508.4908813478626 Z" fill="url(#leaf4)" opacity="0.29" transform="rotate(183.9 145.7 579.4)"/>
    <path d="M 144.20244029298638,468.2440257639989 C 200.30021427601977,514.9921707498601 218.99947227036427,580.4395737300657 144.20244029298638,655.2366057074436 C 69.40540831560851,580.4395737300657 88.10466630995299,514.9921707498601 144.20244029298638,468.2440257639989 Z" fill="url(#leaf5)" opacity="0.32" transform="rotate(170.0 144.2 561.7)"/>
    <path d="M 282.35639053390855,411.29595204750547 C 326.86429993617276,448.3858765493923 341.7002697369275,500.31177085203393 282.35639053390855,559.6556500550529 C 223.0125113308896,500.31177085203393 237.84848113164435,448.3858765493923 282.35639053390855,411.29595204750547 Z" fill="url(#leaf6)" opacity="0.23" transform="rotate(303.4 282.4 485.5)"/>
    <path d="M 627.0231918824433,171.9896675231074 C 686.0881054665693,221.21042884321253 705.7764099946114,290.1194946913597 627.0231918824433,368.87271280352786 C 548.2699737702751,290.1194946913597 567.9582782983172,221.21042884321253 627.0231918824433,171.9896675231074 Z" fill="url(#leaf7)" opacity="0.34" transform="rotate(59.5 627.0 270.4)"/>
    <path d="M 1296.9747855905212,556.8450683485728 C 1325.3475002584555,580.488997238518 1334.8050718144336,613.5904976844414 1296.9747855905212,651.4207839083538 C 1259.1444993666087,613.5904976844414 1268.6020709225868,580.488997238518 1296.9747855905212,556.8450683485728 Z" fill="url(#leaf8)" opacity="0.39" transform="rotate(221.7 1297.0 604.1)"/>
    <path d="M 693.5016015911411,609.0644201967903 C 734.8189175252052,643.4955168085104 748.5913561698933,691.6990520649184 693.5016015911411,746.7888066436706 C 638.411847012389,691.6990520649184 652.1842856570771,643.4955168085104 693.5016015911411,609.0644201967903 Z" fill="url(#leaf9)" opacity="0.20" transform="rotate(340.3 693.5 677.9)"/>
    <path d="M 1563.2984703472566,490.80982224821315 C 1593.6798354451769,516.1276264964799 1603.8069571444835,551.5725524440535 1563.2984703472566,592.0810392412803 C 1522.7899835500298,551.5725524440535 1532.9171052493364,516.1276264964799 1563.2984703472566,490.80982224821315 Z" fill="url(#leaf10)" opacity="0.24" transform="rotate(141.7 1563.3 541.4)"/>
    <path d="M 1174.9834341892974,131.26775160490487 C 1231.386170057266,178.27003149487885 1250.1870820132558,244.07322334084242 1174.9834341892974,319.2768711648008 C 1099.779786365339,244.07322334084242 1118.5806983213288,178.27003149487885 1174.9834341892974,131.26775160490487 Z" fill="url(#leaf11)" opacity="0.39" transform="rotate(131.2 1175.0 225.3)"/>
    <path d="M 380.6483797284469,554.1355424149784 C 438.4096812795672,602.2699603742453 457.663448463274,669.6581455172189 380.6483797284469,746.673214252046 C 303.63331099361983,669.6581455172189 322.8870781773266,602.2699603742453 380.6483797284469,554.1355424149784 Z" fill="url(#leaf12)" opacity="0.27" transform="rotate(57.6 380.6 650.4)"/>
    <path d="M 1185.7320890458013,184.8736409884413 C 1244.9059347558243,234.18517908012709 1264.6305499924986,303.22133240848717 1185.7320890458013,382.1197933551844 C 1106.833628099104,303.22133240848717 1126.5582433357783,234.18517908012709 1185.7320890458013,184.8736409884413 Z" fill="url(#leaf13)" opacity="0.35" transform="rotate(111.4 1185.7 283.5)"/>
    <path d="M 1766.9838006494547,732.5686290241807 C 1816.512332902095,773.842405901381 1833.0218436529751,831.6256935294615 1766.9838006494547,897.6637365329819 C 1700.9457576459342,831.6256935294615 1717.4552683968143,773.842405901381 1766.9838006494547,732.5686290241807 Z" fill="url(#leaf14)" opacity="0.27" transform="rotate(195.1 1767.0 815.1)"/>
    <path d="M 1173.9829206430702,894.1216612461915 C 1232.7474504093886,943.0921027181236 1252.3356269981616,1011.6507207788285 1173.9829206430702,1090.0034271339198 C 1095.6302142879788,1011.6507207788285 1115.2183908767518,943.0921027181236 1173.9829206430702,894.1216612461915 Z" fill="url(#leaf15)" opacity="0.31" transform="rotate(84.7 1174.0 992.1)"/>
    <path d="M 1830.913976239022,484.40472450115493 C 1885.91832726487,530.2416836893615 1904.2531109401525,594.4134265528508 1830.913976239022,667.7525612539812 C 1757.5748415378916,594.4134265528508 1775.9096252131742,530.2416836893615 1830.913976239022,484.40472450115493 Z" fill="url(#leaf16)" opacity="0.26" transform="rotate(208.2 1830.9 576.1)"/>
    <path d="M 558.591035865967,179.76105821401745 C 599.4026948244035,213.77077401271453 613.0065811438823,261.3843761308904 558.591035865967,315.79992140880574 C 504.1754905880517,261.3843761308904 517.7793769075305,213.77077401271453 558.591035865967,179.76105821401745 Z" fill="url(#leaf17)" opacity="0.28" transform="rotate(331.0 558.6 247.8)"/>
    <path d="M 1577.3899553483263,48.78100777130953 C 1634.461566881429,96.34068404889501 1653.4854373924632,162.9242308375147 1577.3899553483263,239.01971288165146 C 1501.2944733041895,162.9242308375147 1520.3183438152237,96.34068404889501 1577.3899553483263,48.78100777130953 Z" fill="url(#leaf18)" opacity="0.24" transform="rotate(58.8 1577.4 143.9)"/>
    <path d="M 1317.2862032174114,61.16920001530464 C 1363.5501973993582,99.72252850026041 1378.9715287933407,153.69718837919848 1317.2862032174114,215.3825139551277 C 1255.6008776414822,153.69718837919848 1271.0222090354646,99.72252850026041 1317.2862032174114,61.16920001530464 Z" fill="url(#leaf19)" opacity="0.36" transform="rotate(42.8 1317.3 138.3)"/>
    <path d="M 986.2610692408362,62.716629560235035 C 1016.0010299415816,87.49993014418953 1025.9143501751635,122.19655096172585 986.2610692408362,161.84983189605305 C 946.607788306509,122.19655096172585 956.5211085400907,87.49993014418953 986.2610692408362,62.716629560235035 Z" fill="url(#leaf0)" opacity="0.29" transform="rotate(348.7 986.3 112.3)"/>
    <path d="M 1583.6670342294383,850.0072567909275 C 1639.5142527112132,896.5466055257399 1658.1299922051383,961.7016937544773 1583.6670342294383,1036.1646517301774 C 1509.2040762537383,961.7016937544773 1527.8198157476634,896.5466055257399 1583.6670342294383,850.0072567909275 Z" fill="url(#leaf1)" opacity="0.24" transform="rotate(325.2 1583.7 943.1)"/>
    <path d="M 1596.5230323201965,332.05977901413667 C 1623.7631404583053,354.7598691292274 1632.8431765043417,386.53999529035445 1596.5230323201965,422.86013947449965 C 1560.2028881360513,386.53999529035445 1569.2829241820878,354.7598691292274 1596.5230323201965,332.05977901413667 Z" fill="url(#leaf2)" opacity="0.25" transform="rotate(240.9 1596.5 377.5)"/>
    <path d="M 1709.9873356217165,289.39907380036135 C 1743.202685893862,317.07853236048254 1754.2744693179104,355.8297743446522 1709.9873356217165,400.1169080408461 C 1665.7002019255226,355.8297743446522 1676.771985349571,317.07853236048254 1709.9873356217165,289.39907380036135 Z" fill="url(#leaf3)" opacity="0.23" transform="rotate(347.9 1710.0 344.8)"/>
    <path d="M 1177.1999473643668,694.689408213875 C 1203.2423490569008,716.3914096243201 1211.923149621079,746.7742115989432 1177.1999473643668,781.4974138556553 C 1142.4767451076548,746.7742115989432 1151.1575456718328,716.3914096243201 1177.1999473643668,694.689408213875 Z" fill="url(#leaf4)" opacity="0.23" transform="rotate(126.0 1177.2 738.1)"/>
    <path d="M 228.13108761437843,67.63063387305009 C 256.52777629370763,91.29454110582444 265.9933391868174,124.42401123170855 228.13108761437843,162.2862628041475 C 190.26883604193947,124.42401123170855 199.7343989350492,91.29454110582444 228.13108761437843,67.63063387305009 Z" fill="url(#leaf5)" opacity="0.26" transform="rotate(211.2 228.1 115.0)"/>
    <path d="M 775.8500298469205,703.5023858691883 C 804.6332371910036,727.4883919892575 814.2276396390312,761.0688005573544 775.8500298469205,799.446410349465 C 737.4724200548098,761.0688005573544 747.0668225028375,727.4883919892575 775.8500298469205,703.5023858691883 Z" fill="url(#leaf6)" opacity="0.24" transform="rotate(36.4 775.9 751.5)"/>
    <path d="M 1444.4097670014212,27.613304420685708 C 1487.1982270532837,63.27035446390446 1501.461047070571,113.19022452441072 1444.4097670014212,170.2415045935607 C 1387.3584869322713,113.19022452441072 1401.6213069495586,63.27035446390446 1444.4097670014212,27.613304420685708 Z" fill="url(#leaf7)" opacity="0.23" transform="rotate(32.4 1444.4 98.9)"/>
    <path d="M 1332.6078643609808,901.4275109561686 C 1371.7293229715328,934.028726464962 1384.76980917505,979.6704281772727 1332.6078643609808,1031.832372991342 C 1280.4459195469115,979.6704281772727 1293.4864057504287,934.028726464962 1332.6078643609808,901.4275109561686 Z" fill="url(#leaf8)" opacity="0.34" transform="rotate(96.8 1332.6 966.6)"/>
    <path d="M 159.47972096894154,299.07750444507917 C 196.28070186966735,329.74498852901735 208.54769550324264,372.6794662465308 159.47972096894154,421.7474407808319 C 110.41174643464043,372.6794662465308 122.67874006821572,329.74498852901735 159.47972096894154,299.07750444507917 Z" fill="url(#leaf9)" opacity="0.32" transform="rotate(349.3 159.5 360.4)"/>
    <path d="M 808.9512273055336,520.0637969171529 C 849.9268615850951,554.2101588167876 863.5854063449491,602.015065476276 808.9512273055336,656.6492445156915 C 754.3170482661181,602.015065476276 767.9755930259721,554.2101588167876 808.9512273055336,520.0637969171529 Z" fill="url(#leaf10)" opacity="0.27" transform="rotate(317.9 809.0 588.4)"/>
    <path d="M 323.9498691944763,681.0251748449415 C 370.70108623807,719.9845223812695 386.2848252526012,774.5276089321288 323.9498691944763,836.8625649902536 C 261.61491313635145,774.5276089321288 277.19865215088265,719.9845223812695 323.9498691944763,681.0251748449415 Z" fill="url(#leaf11)" opacity="0.32" transform="rotate(255.5 323.9 758.9)"/>
    <path d="M 717.6202812783403,237.09262033006314 C 773.7578460004328,283.87392426514026 792.4703675744636,349.36774977424824 717.6202812783403,424.2178360703716 C 642.7701949822169,349.36774977424824 661.4827165562477,283.87392426514026 717.6202812783403,237.09262033006314 Z" fill="url(#leaf12)" opacity="0.20" transform="rotate(350.2 717.6 330.7)"/>
    <path d="M 887.248246379706,102.24519741427511 C 916.9742496737653,127.0168668259912 926.8829174384517,161.69720400239373 887.248246379706,201.33187506113947 C 847.6135753209602,161.69720400239373 857.5222430856467,127.0168668259912 887.248246379706,102.24519741427511 Z" fill="url(#leaf13)" opacity="0.27" transform="rotate(304.2 887.2 151.8)"/>
    <path d="M 335.02397795588877,818.3357603910451 C 387.6242289029281,862.1693028469113 405.1576458852746,923.5362622851238 335.02397795588877,993.6699302145096 C 264.89031002650296,923.5362622851238 282.4237270088494,862.1693028469113 335.02397795588877,818.3357603910451 Z" fill="url(#leaf14)" opacity="0.37" transform="rotate(160.0 335.0 906.0)"/>
    <path d="M 412.11811028320017,489.50955928716587 C 437.39746642125465,510.57568940221125 445.8239184672728,540.0682715632748 412.11811028320017,573.7740797473474 C 378.41230209912754,540.0682715632748 386.8387541451457,510.57568940221125 412.11811028320017,489.50955928716587 Z" fill="url(#leaf15)" opacity="0.34" transform="rotate(338.2 412.1 531.6)"/>
    <path d="M 277.7016557077234,503.1420474536456 C 309.3847050180909,529.5445885456186 319.9457214548801,566.5081460743806 277.7016557077234,608.7522118215373 C 235.45758996056668,566.5081460743806 246.01860639735585,529.5445885456186 277.7016557077234,503.1420474536456 Z" fill="url(#leaf16)" opacity="0.29" transform="rotate(110.1 277.7 555.9)"/>
    <path d="M 164.5770955310084,303.509965740904 C 194.711401941835,328.62188774992615 204.75617074544385,363.7785785625572 164.5770955310084,403.95765377699263 C 124.39802031657295,363.7785785625572 134.44278912018183,328.62188774992615 164.5770955310084,303.509965740904 Z" fill="url(#leaf17)" opacity="0.24" transform="rotate(81.1 164.6 353.7)"/>
    <path d="M 800.5532252208951,934.3284441860669 C 851.3606909557175,976.6679989650855 868.2965128673249,1035.9433756557116 800.5532252208951,1103.6866633021414 C 732.8099375744654,1035.9433756557116 749.7457594860728,976.6679989650855 800.5532252208951,934.3284441860669 Z" fill="url(#leaf18)" opacity="0.39" transform="rotate(36.3 800.6 1019.0)"/>
    <path d="M 979.9286954801931,654.4307163214645 C 1026.1836995468,692.976553043637 1041.602034235669,746.9407244546783 979.9286954801931,808.6140632101541 C 918.2553567247173,746.9407244546783 933.6736914135863,692.976553043637 979.9286954801931,654.4307163214645 Z" fill="url(#leaf19)" opacity="0.25" transform="rotate(0.5 979.9 731.5)"/>
    <path d="M 1534.540151572395,672.3604860509225 C 1593.7652409482282,721.7147271974503 1613.5069374068394,790.8106648025893 1534.540151572395,869.7774506370337 C 1455.5733657379506,790.8106648025893 1475.3150621965617,721.7147271974503 1534.540151572395,672.3604860509225 Z" fill="url(#leaf0)" opacity="0.22" transform="rotate(340.6 1534.5 771.1)"/>
    <path d="M 526.5033420680863,844.2581658759625 C 565.916717941619,877.1026457705731 579.0545098994633,923.0849176230279 526.5033420680863,975.6360854544048 C 473.9521742367094,923.0849176230279 487.08996619455365,877.1026457705731 526.5033420680863,844.2581658759625 Z" fill="url(#leaf1)" opacity="0.37" transform="rotate(341.9 526.5 909.9)"/>
    <path d="M 526.8912038389595,545.2728844555188 C 578.3092392533422,588.1212473008377 595.4485843914698,648.1089552842841 526.8912038389595,716.6663358367944 C 458.3338232864493,648.1089552842841 475.47316842457684,588.1212473008377 526.8912038389595,545.2728844555188 Z" fill="url(#leaf2)" opacity="0.24" transform="rotate(324.3 526.9 631.0)"/>
    <path d="M 1017.8556189238066,939.3596050361227 C 1068.7288870328946,981.7539951270294 1085.6866430692571,1041.1061412542988 1017.8556189238066,1108.9371653997493 C 950.0245947783559,1041.1061412542988 966.9823508147185,981.7539951270294 1017.8556189238066,939.3596050361227 Z" fill="url(#leaf3)" opacity="0.21" transform="rotate(279.5 1017.9 1024.1)"/>
    <path d="M 796.6756406835304,312.76377508964924 C 831.5832817101378,341.8534759451554 843.2191620523403,382.57905714286403 796.6756406835304,429.12257851167385 C 750.1321193147206,382.57905714286403 761.767999656923,341.8534759451554 796.6756406835304,312.76377508964924 Z" fill="url(#leaf4)" opacity="0.39" transform="rotate(2.7 796.7 370.9)"/>
    <path d="M 838.0945339872692,289.1493697113374 C 870.9843077648068,316.557514525952 881.9475656906526,354.92891726641255 838.0945339872692,398.78194896979596 C 794.2415022838858,354.92891726641255 805.2047602097316,316.557514525952 838.0945339872692,289.1493697113374 Z" fill="url(#leaf5)" opacity="0.26" transform="rotate(308.1 838.1 344.0)"/>
    <path d="M 102.15545850778287,398.4227840611181 C 151.59078368840574,439.61888837830384 168.06922541528002,497.2934344223638 102.15545850778287,563.2072013298609 C 36.241691600285705,497.2934344223638 52.72013332715999,439.61888837830384 102.15545850778287,398.4227840611181 Z" fill="url(#leaf6)" opacity="0.25" transform="rotate(78.7 102.2 480.8)"/>
    <path d="M 1794.530723222294,954.4562456546502 C 1823.2747232801207,978.4095790361723 1832.8560566327296,1011.9442457703035 1794.530723222294,1050.2695791807391 C 1756.2053898118584,1011.9442457703035 1765.7867231644673,978.4095790361723 1794.530723222294,954.4562456546502 Z" fill="url(#leaf7)" opacity="0.28" transform="rotate(234.5 1794.5 1002.4)"/>
    <path d="M 246.0836990536076,706.8416109675144 C 275.88905366748605,731.6794064790798 285.8241718721122,766.4523201952713 246.0836990536076,806.1927930137759 C 206.343226235103,766.4523201952713 216.27834443972915,731.6794064790798 246.0836990536076,706.8416109675144 Z" fill="url(#leaf8)" opacity="0.27" transform="rotate(113.3 246.1 756.5)"/>
    <path d="M 1448.6320980300316,78.36179979643937 C 1489.905601812536,112.75638628185965 1503.663436406704,160.90880736144805 1448.6320980300316,215.94014573812052 C 1393.600759653359,160.90880736144805 1407.3585942475272,112.75638628185965 1448.6320980300316,78.36179979643937 Z" fill="url(#leaf9)" opacity="0.40" transform="rotate(255.2 1448.6 147.2)"/>
    <path d="M 1652.2097974935198,890.3047856334639 C 1679.173537801076,912.7745692230941 1688.161451236928,944.2322662485764 1652.2097974935198,980.1839199919847 C 1616.2581437501115,944.2322662485764 1625.2460571859635,912.7745692230941 1652.2097974935198,890.3047856334639 Z" fill="url(#leaf10)" opacity="0.31" transform="rotate(327.0 1652.2 935.2)"/>
    <path d="M 650.4008759684399,724.2787149061328 C 678.1922404054194,747.4381852702824 687.4560285510792,779.8614437800918 650.4008759684399,816.9165963627311 C 613.3457233858006,779.8614437800918 622.6095115314604,747.4381852702824 650.4008759684399,724.2787149061328 Z" fill="url(#leaf11)" opacity="0.23" transform="rotate(149.8 650.4 770.6)"/>
    <path d="M 659.502984914644,7.051092833656654 C 690.3809739187922,32.78275033711342 700.6736369201749,68.80707084195289 659.502984914644,109.97772284748372 C 618.3323329091131,68.80707084195289 628.6249959104958,32.78275033711342 659.502984914644,7.051092833656654 Z" fill="url(#leaf12)" opacity="0.32" transform="rotate(153.2 659.5 58.5)"/>
    <path d="M 173.6633072370508,453.51694357148267 C 212.27999136172355,485.6975136753766 225.15221940328112,530.7503118208282 173.6633072370508,582.2392239870585 C 122.17439507082045,530.7503118208282 135.04662311237803,485.6975136753766 173.6633072370508,453.51694357148267 Z" fill="url(#leaf13)" opacity="0.34" transform="rotate(103.8 173.7 517.9)"/>
    <path d="M 1853.1600324846133,323.1580670353427 C 1887.1158644089537,351.45459363895964 1898.4344750504004,391.0697308840233 1853.1600324846133,436.34417344981034 C 1807.8855899188263,391.0697308840233 1819.204200560273,351.45459363895964 1853.1600324846133,323.1580670353427 Z" fill="url(#leaf14)" opacity="0.33" transform="rotate(275.2 1853.2 379.8)"/>
    <path d="M 1203.711366376033,401.5601185966183 C 1242.4796574176692,433.86702779798173 1255.4024210982145,479.09670067989055 1203.711366376033,530.7877554020721 C 1152.0203116538516,479.09670067989055 1164.943075334397,433.86702779798173 1203.711366376033,401.5601185966183 Z" fill="url(#leaf15)" opacity="0.26" transform="rotate(80.5 1203.7 466.2)"/>
    <path d="M 1835.3511650097664,402.7222290200119 C 1880.0015687374312,439.9308987930659 1894.8850366466527,492.0230364753414 1835.3511650097664,551.5569081122278 C 1775.8172933728802,492.0230364753414 1790.7007612821017,439.9308987930659 1835.3511650097664,402.7222290200119 Z" fill="url(#leaf16)" opacity="0.37" transform="rotate(73.9 1835.4 477.1)"/>
    <path d="M 459.2751579418868,70.17527862677483 C 500.5474237395019,104.56883345812075 514.3048456720403,152.71981022200504 459.2751579418868,207.74949795215852 C 404.2454702117333,152.71981022200504 418.0028921442717,104.56883345812075 459.2751579418868,70.17527862677483 Z" fill="url(#leaf17)" opacity="0.34" transform="rotate(111.1 459.3 139.0)"/>
    <path d="M 1792.291835569634,801.952096169722 C 1838.4850932815361,840.4464775963071 1853.8828458521702,894.3386115935263 1792.291835569634,955.9296218760625 C 1730.7008252870978,894.3386115935263 1746.098577857732,840.4464775963071 1792.291835569634,801.952096169722 Z" fill="url(#leaf18)" opacity="0.39" transform="rotate(70.8 1792.3 878.9)"/>
    <path d="M 1558.2265001817925,906.114651691084 C 1604.9108311732523,945.0182608506337 1620.472274837072,999.4833136740034 1558.2265001817925,1061.729088329283 C 1495.980725526513,999.4833136740034 1511.5421691903327,945.0182608506337 1558.2265001817925,906.114651691084 Z" fill="url(#leaf19)" opacity="0.34" transform="rotate(38.2 1558.2 983.9)"/>
    <path d="M 52.71893971811903,889.9300248011081 C 111.76200603539922,939.1325800655083 131.4430281411593,1008.0161574356686 52.71893971811903,1086.7402458587087 C -26.00514870492124,1008.0161574356686 -6.324126599161168,939.1325800655083 52.71893971811903,889.9300248011081 Z" fill="url(#leaf0)" opacity="0.22" transform="rotate(79.6 52.7 988.3)"/>
    <path d="M 1048.527651001623,441.1287645972185 C 1101.5305827039806,485.29787434918313 1119.1982266047664,547.1346280019336 1048.527651001623,617.805203605077 C 977.8570753984797,547.1346280019336 995.5247192992655,485.29787434918313 1048.527651001623,441.1287645972185 Z" fill="url(#leaf1)" opacity="0.29" transform="rotate(83.3 1048.5 529.5)"/>
    <path d="M 1045.269836567797,764.9989157388749 C 1074.3940445487738,789.2690890563556 1084.1021138757662,823.2473317008286 1045.269836567797,862.0796090087978 C 1006.4375592598279,823.2473317008286 1016.1456285868202,789.2690890563556 1045.269836567797,764.9989157388749 Z" fill="url(#leaf2)" opacity="0.23" transform="rotate(261.8 1045.3 813.5)"/>
    <path d="M 329.17323550752457,11.708049293266825 C 370.7610500299772,46.364561395310695 384.6236548707948,94.88367833817212 329.17323550752457,150.33409770144232 C 273.72281614425435,94.88367833817212 287.58542098507195,46.364561395310695 329.17323550752457,11.708049293266825 Z" fill="url(#leaf3)" opacity="0.26" transform="rotate(128.8 329.2 81.0)"/>
    <path d="M 1757.8328483239552,703.9650484133773 C 1809.3728410683138,746.9150423670095 1826.5528386497667,807.0450339020946 1757.8328483239552,875.7650242279061 C 1689.1128579981437,807.0450339020946 1706.2928555795966,746.9150423670095 1757.8328483239552,703.9650484133773 Z" fill="url(#leaf4)" opacity="0.29" transform="rotate(182.2 1757.8 789.9)"/>
    <path d="M 1041.6940862187398,768.6983895139824 C 1088.8902752095983,808.0285470063645 1104.6223382065511,863.0907674956993 1041.6940862187398,926.0190194835106 C 978.7658342309286,863.0907674956993 994.4978972278814,808.0285470063645 1041.6940862187398,768.6983895139824 Z" fill="url(#leaf5)" opacity="0.29" transform="rotate(356.0 1041.7 847.4)"/>
    <path d="M 1690.3771679673869,507.9479555091658 C 1741.951149367023,550.9262733421957 1759.1424765002348,611.0959183084377 1690.3771679673869,679.8612268412857 C 1621.611859434539,611.0959183084377 1638.8031865677508,550.9262733421957 1690.3771679673869,507.9479555091658 Z" fill="url(#leaf6)" opacity="0.37" transform="rotate(85.2 1690.4 593.9)"/>
    <path d="M 474.19032087329816,213.66627196951563 C 517.6000066605411,249.84101012555146 532.0699019229555,300.4856435440016 474.19032087329816,358.3652245936589 C 416.31073982364086,300.4856435440016 430.7806350860552,249.84101012555146 474.19032087329816,213.66627196951563 Z" fill="url(#leaf7)" opacity="0.32" transform="rotate(149.5 474.2 286.0)"/>
    <path d="M 1695.3059286224238,779.6292131669626 C 1737.9305940048741,815.1497676523377 1752.138815799024,864.878543931863 1695.3059286224238,921.7114311084632 C 1638.4730414458236,864.878543931863 1652.6812632399735,815.1497676523377 1695.3059286224238,779.6292131669626 Z" fill="url(#leaf8)" opacity="0.38" transform="rotate(86.4 1695.3 850.7)"/>
    <path d="M 1369.6724809469645,378.6160720100345 C 1409.5981198362965,411.8874377511445 1422.9066661327404,458.46734978869847 1369.6724809469645,511.7015349744745 C 1316.4382957611886,458.46734978869847 1329.7468420576324,411.8874377511445 1369.6724809469645,378.6160720100345 Z" fill="url(#leaf9)" opacity="0.26" transform="rotate(240.1 1369.7 445.2)"/>
    <path d="M 1857.5073171948243,708.2634356112626 C 1916.4225520665473,757.3594646710317 1936.0609636904549,826.0939053547086 1857.5073171948243,904.6475518503391 C 1778.9536706991937,826.0939053547086 1798.5920823231013,757.3594646710317 1857.5073171948243,708.2634356112626 Z" fill="url(#leaf10)" opacity="0.33" transform="rotate(167.7 1857.5 806.5)"/>
    <path d="M 1680.44961911633,612.8924283744459 C 1735.794458182428,659.013127596194 1754.242737871127,723.5821065066414 1680.44961911633,797.3752252614383 C 1606.656500361533,723.5821065066414 1625.1047800502322,659.013127596194 1680.44961911633,612.8924283744459 Z" fill="url(#leaf11)" opacity="0.29" transform="rotate(194.6 1680.4 705.1)"/>
    <path d="M 594.4991218323679,502.83400715258716 C 634.9149131086867,536.5138332161862 648.3868435341262,583.6655897052248 594.4991218323679,637.5533114069831 C 540.6114001306096,583.6655897052248 554.0833305560491,536.5138332161862 594.4991218323679,502.83400715258716 Z" fill="url(#leaf12)" opacity="0.36" transform="rotate(340.4 594.5 570.2)"/>
  </g>

  <!-- Central star shape -->
  <polygon points="960.0,314.8 1026.2,448.9 1174.2,470.4 1067.1,574.8 1092.4,722.2 960.0,652.6 827.6,722.2 852.9,574.8 745.8,470.4 893.8,448.9" 
           fill="#FF1493" 
           transform="rotate(130.2 960.0 540.0)"/>
</svg>