<?xml version="1.0" encoding="UTF-8"?>
<svg xmlns="http://www.w3.org/2000/svg" viewBox="0 0 1920 1080" width="1920" height="1080">
  <defs>
    <linearGradient id="bgGrad" x1="0%" y1="0%" x2="100%" y2="100%">
      <stop offset="0%" stop-color="#FF1493"/>
      <stop offset="100%" stop-color="#FFD700"/>
    </linearGradient>
    <clipPath id="complexClip"><polygon points="1417.3,540.0 1515.9,606.5 1275.8,619.1 1397.4,718.8 1272.6,735.3 1158.2,733.1 1107.4,795.2 1011.8,817.3 905.8,829.9 833.2,759.6 789.3,706.3 637.0,741.8 571.6,698.7 615.3,626.3 552.5,588.7 577.2,540.0 592.8,496.1 586.2,446.4 599.1,392.5 730.0,396.3 750.4,335.8 826.4,308.7 914.1,294.4 1010.2,271.5 1094.9,306.5 1134.3,370.2 1284.8,337.1 1413.7,354.6 1364.8,438.6 1496.6,475.8"/></clipPath>
    <radialGradient id="leaf0" cx="50%" cy="50%" r="70%">
      <stop offset="0%" stop-color="#9370DB"/>
      <stop offset="50%" stop-color="#FF69B4"/>
      <stop offset="100%" stop-color="#FF4500"/>
    </radialGradient>
    <radialGradient id="leaf1" cx="50%" cy="50%" r="70%">
      <stop offset="0%" stop-color="#7B68EE"/>
      <stop offset="50%" stop-color="#32CD32"/>
      <stop offset="100%" stop-color="#DC143C"/>
    </radialGradient>
    <radialGradient id="leaf2" cx="50%" cy="50%" r="70%">
      <stop offset="0%" stop-color="#FF1493"/>
      <stop offset="50%" stop-color="#FF6B6B"/>
      <stop offset="100%" stop-color="#9370DB"/>
    </radialGradient>
    <radialGradient id="leaf3" cx="50%" cy="50%" r="70%">
      <stop offset="0%" stop-color="#DC143C"/>
      <stop offset="50%" stop-color="#7B68EE"/>
      <stop offset="100%" stop-color="#FF6B6B"/>
    </radialGradient>
    <radialGradient id="leaf4" cx="50%" cy="50%" r="70%">
      <stop offset="0%" stop-color="#00CED1"/>
      <stop offset="50%" stop-color="#7B68EE"/>
      <stop offset="100%" stop-color="#FF4500"/>
    </radialGradient>
    <radialGradient id="leaf5" cx="50%" cy="50%" r="70%">
      <stop offset="0%" stop-color="#96E6A1"/>
      <stop offset="50%" stop-color="#FFD700"/>
      <stop offset="100%" stop-color="#00CED1"/>
    </radialGradient>
    <radialGradient id="leaf6" cx="50%" cy="50%" r="70%">
      <stop offset="0%" stop-color="#96E6A1"/>
      <stop offset="50%" stop-color="#00CED1"/>
      <stop offset="100%" stop-color="#FFE66D"/>
    </radialGradient>
    <radialGradient id="leaf7" cx="50%" cy="50%" r="70%">
      <stop offset="0%" stop-color="#45B7D1"/>
      <stop offset="50%" stop-color="#00FA9A"/>
      <stop offset="100%" stop-color="#FFD700"/>
    </radialGradient>
    <radialGradient id="leaf8" cx="50%" cy="50%" r="70%">
      <stop offset="0%" stop-color="#4ECDC4"/>
      <stop offset="50%" stop-color="#FF1493"/>
      <stop offset="100%" stop-color="#DC143C"/>
    </radialGradient>
    <radialGradient id="leaf9" cx="50%" cy="50%" r="70%">
      <stop offset="0%" stop-color="#FF6B6B"/>
      <stop offset="50%" stop-color="#FF69B4"/>
      <stop offset="100%" stop-color="#DC143C"/>
    </radialGradient>
    <radialGradient id="leaf10" cx="50%" cy="50%" r="70%">
      <stop offset="0%" stop-color="#FFD700"/>
      <stop offset="50%" stop-color="#96E6A1"/>
      <stop offset="100%" stop-color="#32CD32"/>
    </radialGradient>
    <radialGradient id="leaf11" cx="50%" cy="50%" r="70%">
      <stop offset="0%" stop-color="#FFD700"/>
      <stop offset="50%" stop-color="#9370DB"/>
      <stop offset="100%" stop-color="#DC143C"/>
    </radialGradient>
    <radialGradient id="leaf12" cx="50%" cy="50%" r="70%">
      <stop offset="0%" stop-color="#45B7D1"/>
      <stop offset="50%" stop-color="#FF1493"/>
      <stop offset="100%" stop-color="#4ECDC4"/>
    </radialGradient>
    <radialGradient id="leaf13" cx="50%" cy="50%" r="70%">
      <stop offset="0%" stop-color="#FFE66D"/>
      <stop offset="50%" stop-color="#00FA9A"/>
      <stop offset="100%" stop-color="#FF1493"/>
    </radialGradient>
    <radialGradient id="leaf14" cx="50%" cy="50%" r="70%">
      <stop offset="0%" stop-color="#FF4500"/>
      <stop offset="50%" stop-color="#96E6A1"/>
      <stop offset="100%" stop-color="#32CD32"/>
    </radialGradient>
    <radialGradient id="leaf15" cx="50%" cy="50%" r="70%">
      <stop offset="0%" stop-color="#00FA9A"/>
      <stop offset="50%" stop-color="#96E6A1"/>
      <stop offset="100%" stop-color="#FFE66D"/>
    </radialGradient>
    <radialGradient id="leaf16" cx="50%" cy="50%" r="70%">
      <stop offset="0%" stop-color="#00CED1"/>
      <stop offset="50%" stop-color="#00FA9A"/>
      <stop offset="100%" stop-color="#FFE66D"/>
    </radialGradient>
    <radialGradient id="leaf17" cx="50%" cy="50%" r="70%">
      <stop offset="0%" stop-color="#9370DB"/>
      <stop offset="50%" stop-color="#32CD32"/>
      <stop offset="100%" stop-color="#00FA9A"/>
    </radialGradient>
    <radialGradient id="leaf18" cx="50%" cy="50%" r="70%">
      <stop offset="0%" stop-color="#32CD32"/>
      <stop offset="50%" stop-color="#FF4500"/>
      <stop offset="100%" stop-color="#9370DB"/>
    </radialGradient>
    <radialGradient id="leaf19" cx="50%" cy="50%" r="70%">
      <stop offset="0%" stop-color="#00FA9A"/>
      <stop offset="50%" stop-color="#00CED1"/>
      <stop offset="100%" stop-color="#FF1493"/>
    </radialGradient>
  </defs>

  <!-- Background -->
  <rect width="1920" height="1080" fill="url(#bgGrad)"/>
  
  <!-- Leaves with clip-path -->
  <g clip-path="url(#complexClip)">
    <path d="M 1649.9880510667856,487.3598305374352 C 1685.0067475673052,516.5420776212017 1696.6796464008119,557.3972235384746 1649.9880510667856,604.0888188725008 C 1603.2964557327593,557.3972235384746 1614.969354566266,516.5420776212017 1649.9880510667856,487.3598305374352 Z" fill="url(#leaf0)" opacity="0.28" transform="rotate(4.5 1650.0 545.7)"/>
    <path d="M 109.3131531316742,335.0117352659373 C 134.23815337315773,355.78256880050697 142.54648678698558,384.8617357489044 109.3131531316742,418.0950694042158 C 76.07981947636281,384.8617357489044 84.38815289019067,355.78256880050697 109.3131531316742,335.0117352659373 Z" fill="url(#leaf1)" opacity="0.24" transform="rotate(338.2 109.3 376.6)"/>
    <path d="M 1511.632401721756,263.1132611858294 C 1557.4546610591483,301.29847730032293 1572.7287475049457,354.7577798606139 1511.632401721756,415.8541256438035 C 1450.5360559385663,354.7577798606139 1465.8101423843636,301.29847730032293 1511.632401721756,263.1132611858294 Z" fill="url(#leaf2)" opacity="0.24" transform="rotate(0.1 1511.6 339.5)"/>
    <path d="M 453.33682897901684,712.4883326096794 C 490.7783126336321,743.6895689885255 503.2588071851705,787.3712999189099 453.33682897901684,837.2932781250636 C 403.4148507728632,787.3712999189099 415.8953453244016,743.6895689885255 453.33682897901684,712.4883326096794 Z" fill="url(#leaf3)" opacity="0.34" transform="rotate(345.4 453.3 774.9)"/>
    <path d="M 1531.3125292739935,724.7402319783151 C 1590.0699075204614,773.7047138503716 1609.655700269284,842.2549884712508 1531.3125292739935,920.5981594665412 C 1452.969358278703,842.2549884712508 1472.5551510275257,773.7047138503716 1531.3125292739935,724.7402319783151 Z" fill="url(#leaf4)" opacity="0.26" transform="rotate(85.9 1531.3 822.7)"/>
    <path d="M 564.0278813894809,605.6652687439105 C 613.7793950567959,647.124863466673 630.3632329459009,705.1682960785405 564.0278813894809,771.5036476349605 C 497.6925298330608,705.1682960785405 514.2763677221658,647.124863466673 564.0278813894809,605.6652687439105 Z" fill="url(#leaf5)" opacity="0.21" transform="rotate(34.4 564.0 688.6)"/>
    <path d="M 1811.1738879683764,648.0627588652656 C 1855.1969643876994,684.7486558813679 1869.8713231941401,736.1089117039112 1811.1738879683764,794.8063469296749 C 1752.4764527426128,736.1089117039112 1767.1508115490535,684.7486558813679 1811.1738879683764,648.0627588652656 Z" fill="url(#leaf6)" opacity="0.31" transform="rotate(292.1 1811.2 721.4)"/>
    <path d="M 659.2747447731184,762.7157835185487 C 713.2012977079761,807.6545776309301 731.1768153529287,870.5688893882641 659.2747447731184,942.4709599680743 C 587.3726741933082,870.5688893882641 605.3481918382607,807.6545776309301 659.2747447731184,762.7157835185487 Z" fill="url(#leaf7)" opacity="0.38" transform="rotate(109.7 659.3 852.6)"/>
    <path d="M 1360.7294599615493,161.66414265724984 C 1398.4711571396092,193.11555697229977 1411.0517228656292,237.1475370133697 1360.7294599615493,287.4697999174496 C 1310.4071970574694,237.1475370133697 1322.9877627834894,193.11555697229977 1360.7294599615493,161.66414265724984 Z" fill="url(#leaf8)" opacity="0.31" transform="rotate(82.0 1360.7 224.6)"/>
    <path d="M 953.7129768232448,151.77057492631317 C 1002.6064694790754,192.51515213950523 1018.9043003643521,249.55756023797414 953.7129768232448,314.74888377908144 C 888.5216532821375,249.55756023797414 904.8194841674143,192.51515213950523 953.7129768232448,151.77057492631317 Z" fill="url(#leaf9)" opacity="0.34" transform="rotate(307.8 953.7 233.3)"/>
    <path d="M 1279.1650489437325,10.168653314179409 C 1337.8438380871667,59.0676442670412 1357.4034344683114,127.52623160104771 1279.1650489437325,205.7646171256266 C 1200.9266634191536,127.52623160104771 1220.4862598002983,59.0676442670412 1279.1650489437325,10.168653314179409 Z" fill="url(#leaf10)" opacity="0.38" transform="rotate(13.9 1279.2 108.0)"/>
    <path d="M 378.914854014697,900.023448642226 C 434.16498127948165,946.0652213628798 452.5816903677432,1010.5237031717952 378.914854014697,1084.1905395248414 C 305.24801766165086,1010.5237031717952 323.6647267499124,946.0652213628798 378.914854014697,900.023448642226 Z" fill="url(#leaf11)" opacity="0.26" transform="rotate(286.0 378.9 992.1)"/>
    <path d="M 594.6197891164569,40.32880284626117 C 646.5905287032182,83.63775250189553 663.9141085654719,144.27028201978365 594.6197891164569,213.56460146879863 C 525.3254696674419,144.27028201978365 542.6490495296956,83.63775250189553 594.6197891164569,40.32880284626117 Z" fill="url(#leaf12)" opacity="0.34" transform="rotate(329.2 594.6 126.9)"/>
    <path d="M 1446.5657043156557,113.42007272912342 C 1491.4471511131587,150.82127839370932 1506.407633378993,203.18296632412955 1446.5657043156557,263.024895387467 C 1386.7237752523183,203.18296632412955 1401.6842575181527,150.82127839370932 1446.5657043156557,113.42007272912342 Z" fill="url(#leaf13)" opacity="0.28" transform="rotate(66.5 1446.6 188.2)"/>
    <path d="M 1614.9885394677524,618.4352405277557 C 1662.4651721607715,657.9991011052716 1678.2907163917778,713.3885059137939 1614.9885394677524,776.6906828378194 C 1551.686362543727,713.3885059137939 1567.5119067747332,657.9991011052716 1614.9885394677524,618.4352405277557 Z" fill="url(#leaf14)" opacity="0.37" transform="rotate(168.9 1615.0 697.6)"/>
    <path d="M 808.0149743619224,291.82961070984027 C 861.7863296097333,336.63907341634933 879.7101146923369,399.372321205462 808.0149743619224,471.06746153587653 C 736.319834031508,399.372321205462 754.2436191141115,336.63907341634933 808.0149743619224,291.82961070984027 Z" fill="url(#leaf15)" opacity="0.35" transform="rotate(69.2 808.0 381.4)"/>
    <path d="M 1384.8015742373527,318.569225015729 C 1430.0207572193021,356.2518775006869 1445.0938182132854,409.00759097962793 1384.8015742373527,469.2998349555605 C 1324.50933026142,409.00759097962793 1339.5823912554033,356.2518775006869 1384.8015742373527,318.569225015729 Z" fill="url(#leaf16)" opacity="0.37" transform="rotate(95.2 1384.8 393.9)"/>
    <path d="M 724.5555578204232,319.6150420072436 C 779.7491740424861,365.60972219229586 798.147046116507,430.00227445136915 724.5555578204232,503.59376274745284 C 650.9640695243395,430.00227445136915 669.3619415983604,365.60972219229586 724.5555578204232,319.6150420072436 Z" fill="url(#leaf17)" opacity="0.33" transform="rotate(19.1 724.6 411.6)"/>
    <path d="M 445.48275178392765,8.066892956764278 C 476.67857863789055,34.06341533506668 487.0771875892115,70.45854666469005 445.48275178392765,112.05298246997388 C 403.8883159786438,70.45854666469005 414.28692492996475,34.06341533506668 445.48275178392765,8.066892956764278 Z" fill="url(#leaf18)" opacity="0.25" transform="rotate(20.2 445.5 60.1)"/>
    <path d="M 1071.641396633171,601.1610819381924 C 1124.7507326503894,645.4188619525411 1142.453844656129,707.3797539726293 1071.641396633171,778.1922019955871 C 1000.8289486102133,707.3797539726293 1018.5320606159527,645.4188619525411 1071.641396633171,601.1610819381924 Z" fill="url(#leaf19)" opacity="0.28" transform="rotate(55.1 1071.6 689.7)"/>
    <path d="M 1271.77219762483,-0.8765770221397133 C 1317.9436943962298,37.599670287360134 1333.3341933200297,91.46641652065992 1271.77219762483,153.02841221585967 C 1210.21020192963,91.46641652065992 1225.60070085343,37.599670287360134 1271.77219762483,-0.8765770221397133 Z" fill="url(#leaf0)" opacity="0.25" transform="rotate(175.8 1271.8 76.1)"/>
    <path d="M 1817.6503229609327,315.0158897900592 C 1861.3622319086292,351.4424805798062 1875.932868224528,402.43970768545205 1817.6503229609327,460.7222529490473 C 1759.3677776973375,402.43970768545205 1773.9384140132363,351.4424805798062 1817.6503229609327,315.0158897900592 Z" fill="url(#leaf1)" opacity="0.21" transform="rotate(171.9 1817.7 387.9)"/>
    <path d="M 651.017264665562,749.6661566516394 C 708.6555004876674,797.6980198367273 727.8682457617026,864.9426282958502 651.017264665562,941.7936093919908 C 574.1662835694215,864.9426282958502 593.3790288434567,797.6980198367273 651.017264665562,749.6661566516394 Z" fill="url(#leaf2)" opacity="0.35" transform="rotate(21.4 651.0 845.7)"/>
    <path d="M 1308.996746993037,727.3379138675904 C 1365.7911059351954,774.666546319389 1384.7225589159148,840.926631751907 1308.996746993037,916.6524436747849 C 1233.2709350701593,840.926631751907 1252.2023880508787,774.666546319389 1308.996746993037,727.3379138675904 Z" fill="url(#leaf3)" opacity="0.27" transform="rotate(346.7 1309.0 822.0)"/>
    <path d="M 752.342772186296,706.7287215500143 C 809.4621490141526,754.3282022398948 828.5019412901048,820.9674752057275 752.342772186296,897.1266443095363 C 676.1836030824871,820.9674752057275 695.2233953584393,754.3282022398948 752.342772186296,706.7287215500143 Z" fill="url(#leaf4)" opacity="0.29" transform="rotate(185.9 752.3 801.9)"/>
    <path d="M 471.6506882362724,321.2349191306123 C 521.2742519252539,362.5878888714302 537.8154398215811,420.48204650857537 471.6506882362724,486.64679809388406 C 405.4859366509637,420.48204650857537 422.0271245472909,362.5878888714302 471.6506882362724,321.2349191306123 Z" fill="url(#leaf5)" opacity="0.24" transform="rotate(320.3 471.7 403.9)"/>
    <path d="M 1184.9345161639712,624.0148046249027 C 1225.7821546610478,658.0545033724665 1239.3980341600732,705.7100816190557 1184.9345161639712,760.1735996151577 C 1130.4709981678693,705.7100816190557 1144.0868776668947,658.0545033724665 1184.9345161639712,624.0148046249027 Z" fill="url(#leaf6)" opacity="0.23" transform="rotate(268.0 1184.9 692.1)"/>
    <path d="M 442.2258616449989,198.09550402064679 C 480.0905899099903,229.64944424147296 492.71216599832076,273.8249605506296 442.2258616449989,324.3112649039515 C 391.739557291677,273.8249605506296 404.36113338000746,229.64944424147296 442.2258616449989,198.09550402064679 Z" fill="url(#leaf7)" opacity="0.30" transform="rotate(248.2 442.2 261.2)"/>
    <path d="M 1042.8737067817638,673.4633585183918 C 1079.9985293955078,704.400710696512 1092.373470266756,747.7130037458802 1042.8737067817638,797.2127672308724 C 993.3739432967716,747.7130037458802 1005.7488841680196,704.400710696512 1042.8737067817638,673.4633585183918 Z" fill="url(#leaf8)" opacity="0.35" transform="rotate(272.0 1042.9 735.3)"/>
    <path d="M 1743.5966078807005,-31.671925494050875 C 1798.8406470651744,14.364773826343956 1817.2553267933322,78.81615287489672 1743.5966078807005,152.47487178752846 C 1669.9378889680688,78.81615287489672 1688.3525686962266,14.364773826343956 1743.5966078807005,-31.671925494050875 Z" fill="url(#leaf9)" opacity="0.21" transform="rotate(184.7 1743.6 60.4)"/>
    <path d="M 1221.647154265251,169.63120159726725 C 1275.0134925029079,214.10315012864805 1292.8022719154603,276.3638780725812 1221.647154265251,347.51899572279046 C 1150.4920366150416,276.3638780725812 1168.280816027594,214.10315012864805 1221.647154265251,169.63120159726725 Z" fill="url(#leaf10)" opacity="0.27" transform="rotate(54.4 1221.6 258.6)"/>
    <path d="M 1416.1651014709787,728.500818746721 C 1451.799986616034,758.1965563676005 1463.6782816643858,799.7705890368317 1416.1651014709787,847.2837692302387 C 1368.6519212775715,799.7705890368317 1380.5302163259234,758.1965563676005 1416.1651014709787,728.500818746721 Z" fill="url(#leaf11)" opacity="0.36" transform="rotate(25.9 1416.2 787.9)"/>
    <path d="M 583.4413466361625,286.683431768353 C 632.9920377246424,327.97567434208617 649.5089347541356,385.78481394531264 583.4413466361625,451.8524020632857 C 517.3737585181894,385.78481394531264 533.8906555476826,327.97567434208617 583.4413466361625,286.683431768353 Z" fill="url(#leaf12)" opacity="0.31" transform="rotate(303.3 583.4 369.3)"/>
    <path d="M 1579.175103858532,641.106240782516 C 1633.9344578548355,686.7390357794355 1652.1875758536034,750.6249487751229 1579.175103858532,823.6374207701941 C 1506.1626318634608,750.6249487751229 1524.4157498622287,686.7390357794355 1579.175103858532,641.106240782516 Z" fill="url(#leaf13)" opacity="0.26" transform="rotate(288.1 1579.2 732.4)"/>
    <path d="M 1858.93658279207,521.8763857693319 C 1905.9972391096737,561.093599367335 1921.684124548875,615.997698404539 1858.93658279207,678.7452401613438 C 1796.1890410352653,615.997698404539 1811.8759264744665,561.093599367335 1858.93658279207,521.8763857693319 Z" fill="url(#leaf14)" opacity="0.23" transform="rotate(108.7 1858.9 600.3)"/>
    <path d="M 368.8296061311061,696.4914533184657 C 400.22060531566876,722.6506193056013 410.684271710523,759.2734516875911 368.8296061311061,801.128117267008 C 326.97494055168926,759.2734516875911 337.4386069465435,722.6506193056013 368.8296061311061,696.4914533184657 Z" fill="url(#leaf15)" opacity="0.26" transform="rotate(57.8 368.8 748.8)"/>
    <path d="M 1569.2646097883746,371.8341127156836 C 1617.939164647322,412.3962417648064 1634.1640162669712,469.1832224335784 1569.2646097883746,534.0826289121749 C 1504.365203309778,469.1832224335784 1520.5900549294272,412.3962417648064 1569.2646097883746,371.8341127156836 Z" fill="url(#leaf16)" opacity="0.32" transform="rotate(285.8 1569.3 453.0)"/>
    <path d="M 867.8477555598084,249.36691099180518 C 901.8906532206339,277.7359923758264 913.2382857742424,317.4527063134561 867.8477555598084,362.84323652789 C 822.4572253453745,317.4527063134561 833.804857898983,277.7359923758264 867.8477555598084,249.36691099180518 Z" fill="url(#leaf17)" opacity="0.24" transform="rotate(301.0 867.8 306.1)"/>
    <path d="M 1308.2931586092147,886.5367889161239 C 1349.406887196716,920.7982294057083 1363.11146339255,968.7642460911266 1308.2931586092147,1023.5825508744617 C 1253.4748538258796,968.7642460911266 1267.1794300217134,920.7982294057083 1308.2931586092147,886.5367889161239 Z" fill="url(#leaf18)" opacity="0.22" transform="rotate(16.6 1308.3 955.1)"/>
    <path d="M 1554.2284840839625,587.0180595712885 C 1600.0647721899109,625.2149663262454 1615.3435348918936,678.690635783185 1554.2284840839625,739.8056865911161 C 1493.1134332760314,678.690635783185 1508.3921959780141,625.2149663262454 1554.2284840839625,587.0180595712885 Z" fill="url(#leaf19)" opacity="0.34" transform="rotate(58.5 1554.2 663.4)"/>
    <path d="M 1309.7574295116565,540.4019573238402 C 1355.826375351079,578.7927455233589 1371.1826906308866,632.5398490026852 1309.7574295116565,693.9651101219151 C 1248.3321683924264,632.5398490026852 1263.688483672234,578.7927455233589 1309.7574295116565,540.4019573238402 Z" fill="url(#leaf0)" opacity="0.40" transform="rotate(117.8 1309.8 617.2)"/>
    <path d="M 736.0636417912269,79.58183320447979 C 760.5948525407706,100.02450882909949 768.7719227906184,128.64425470356707 736.0636417912269,161.35253570295862 C 703.3553607918354,128.64425470356707 711.5324310416833,100.02450882909949 736.0636417912269,79.58183320447979 Z" fill="url(#leaf1)" opacity="0.35" transform="rotate(80.6 736.1 120.5)"/>
    <path d="M 438.3726898770025,177.24887696057834 C 476.9414567743254,209.38951604168082 489.79771240676644,254.38641075522426 438.3726898770025,305.8114332849882 C 386.9476673472385,254.38641075522426 399.80392297967956,209.38951604168082 438.3726898770025,177.24887696057834 Z" fill="url(#leaf2)" opacity="0.30" transform="rotate(31.2 438.4 241.5)"/>
    <path d="M 1723.3500513741067,694.7683107864304 C 1771.651396140674,735.0194314252366 1787.7518443961965,791.3710003195652 1723.3500513741067,855.772793341655 C 1658.9482583520169,791.3710003195652 1675.0487066075393,735.0194314252366 1723.3500513741067,694.7683107864304 Z" fill="url(#leaf3)" opacity="0.28" transform="rotate(264.7 1723.4 775.3)"/>
    <path d="M 1627.5312266327421,-26.886072436098985 C 1675.3772098751995,12.985580265948897 1691.3258709560187,68.80589404881593 1627.5312266327421,132.60053837209256 C 1563.7365823094656,68.80589404881593 1579.6852433902848,12.985580265948897 1627.5312266327421,-26.886072436098985 Z" fill="url(#leaf4)" opacity="0.39" transform="rotate(38.6 1627.5 52.9)"/>
    <path d="M 1415.2541548422955,14.053975806042615 C 1462.7102524816285,53.60072383881999 1478.5289516947394,108.96617108470831 1415.2541548422955,172.2409679371521 C 1351.9793579898517,108.96617108470831 1367.7980572029626,53.60072383881999 1415.2541548422955,14.053975806042615 Z" fill="url(#leaf5)" opacity="0.23" transform="rotate(13.4 1415.3 93.1)"/>
    <path d="M 977.4443446521,355.91530234737155 C 1020.7679260384958,392.01828683603475 1035.209119833961,442.5624651201632 977.4443446521,500.32724030202434 C 919.6795694702389,442.5624651201632 934.1207632657041,392.01828683603475 977.4443446521,355.91530234737155 Z" fill="url(#leaf6)" opacity="0.40" transform="rotate(75.5 977.4 428.1)"/>
    <path d="M 477.4963240170543,339.2187101968909 C 522.7988220640527,376.97079190272297 537.8996547463855,429.8237062908878 477.4963240170543,490.2270370202191 C 417.09299328772306,429.8237062908878 432.19382597005585,376.97079190272297 477.4963240170543,339.2187101968909 Z" fill="url(#leaf7)" opacity="0.32" transform="rotate(20.6 477.5 414.7)"/>
    <path d="M 1128.9999726266838,466.45463454274056 C 1168.6660469382807,499.50969646907134 1181.888071708813,545.7867831659345 1128.9999726266838,598.6748822480637 C 1076.1118735445546,545.7867831659345 1089.3338983150868,499.50969646907134 1128.9999726266838,466.45463454274056 Z" fill="url(#leaf8)" opacity="0.31" transform="rotate(141.1 1129.0 532.6)"/>
    <path d="M 1629.4636379979215,707.961918960337 C 1687.7513054170274,756.5349751429254 1707.1805278900629,824.537253798549 1629.4636379979215,902.2541436906904 C 1551.7467481057802,824.537253798549 1571.1759705788156,756.5349751429254 1629.4636379979215,707.961918960337 Z" fill="url(#leaf9)" opacity="0.34" transform="rotate(331.4 1629.5 805.1)"/>
    <path d="M 1387.22191333796,894.2161010501411 C 1422.3486647879006,923.4883939250917 1434.0575819378807,964.4696039500225 1387.22191333796,1011.3052725499433 C 1340.386244738039,964.4696039500225 1352.0951618880192,923.4883939250917 1387.22191333796,894.2161010501411 Z" fill="url(#leaf10)" opacity="0.23" transform="rotate(352.6 1387.2 952.8)"/>
    <path d="M 295.8933655538739,270.32808422106564 C 337.4040788296,304.9203452841707 351.24098325484204,353.3495107725178 295.8933655538739,408.6971284734859 C 240.54574785290575,353.3495107725178 254.3826522781478,304.9203452841707 295.8933655538739,270.32808422106564 Z" fill="url(#leaf11)" opacity="0.35" transform="rotate(198.8 295.9 339.5)"/>
    <path d="M 1749.552163085023,337.5100241001953 C 1801.1103231221582,380.47515746447453 1818.2963764678698,440.6263441744655 1749.552163085023,509.3705575573123 C 1680.8079497021763,440.6263441744655 1697.9940030478879,380.47515746447453 1749.552163085023,337.5100241001953 Z" fill="url(#leaf12)" opacity="0.32" transform="rotate(124.8 1749.6 423.4)"/>
    <path d="M 69.75800525608886,57.89118385631639 C 102.19538277218555,84.92233178639697 113.0078419442178,122.76593888850978 69.75800525608886,166.0157755766387 C 26.508168567959935,122.76593888850978 37.32062773999217,84.92233178639697 69.75800525608886,57.89118385631639 Z" fill="url(#leaf13)" opacity="0.25" transform="rotate(27.5 69.8 112.0)"/>
    <path d="M 205.14852268219548,294.9780017592327 C 251.9985024915334,334.0196516003477 267.6151624279794,388.67796137790856 205.14852268219548,451.1446011236925 C 142.68188293641157,388.67796137790856 158.29854287285755,334.0196516003477 205.14852268219548,294.9780017592327 Z" fill="url(#leaf14)" opacity="0.26" transform="rotate(7.6 205.1 373.1)"/>
    <path d="M 282.8156984173131,615.9393446482935 C 317.84786276716306,645.1328149398352 329.52525088377973,686.0036733479934 282.8156984173131,732.7132258144601 C 236.1061459508465,686.0036733479934 247.78353406746317,645.1328149398352 282.8156984173131,615.9393446482935 Z" fill="url(#leaf15)" opacity="0.30" transform="rotate(180.9 282.8 674.3)"/>
    <path d="M 276.95552375511005,48.69165467917402 C 313.8576308905407,79.44341062536623 326.1583332690176,122.4958689500353 276.95552375511005,171.69867846394283 C 227.75271424120254,122.4958689500353 240.0534166196794,79.44341062536623 276.95552375511005,48.69165467917402 Z" fill="url(#leaf16)" opacity="0.31" transform="rotate(307.0 277.0 110.2)"/>
    <path d="M 1593.703801906895,459.6217706471153 C 1645.5283271162377,502.80887498823427 1662.8031688526855,563.2708210658009 1593.703801906895,632.3701880115914 C 1524.6044349611045,563.2708210658009 1541.8792766975523,502.80887498823427 1593.703801906895,459.6217706471153 Z" fill="url(#leaf17)" opacity="0.25" transform="rotate(212.6 1593.7 546.0)"/>
    <path d="M 384.33286404192944,796.2861388177232 C 425.79612638892064,830.838857440216 439.61721383791775,879.2126635117057 384.33286404192944,934.497013307694 C 329.04851424594113,879.2126635117057 342.86960169493824,830.838857440216 384.33286404192944,796.2861388177232 Z" fill="url(#leaf18)" opacity="0.31" transform="rotate(102.4 384.3 865.4)"/>
    <path d="M 937.8716463221822,305.4953173805611 C 969.8843519976313,332.172572110102 980.5552538894476,369.5207287314593 937.8716463221822,412.2043362987248 C 895.1880387549168,369.5207287314593 905.8589406467331,332.172572110102 937.8716463221822,305.4953173805611 Z" fill="url(#leaf19)" opacity="0.39" transform="rotate(283.4 937.9 358.8)"/>
    <path d="M 54.75462505045041,895.7679809295778 C 89.08848909848935,924.3795343029435 100.53311044783567,964.4357090256557 54.75462505045041,1010.2141944230409 C 8.976139653065147,964.4357090256557 20.420761002411467,924.3795343029435 54.75462505045041,895.7679809295778 Z" fill="url(#leaf0)" opacity="0.29" transform="rotate(30.8 54.8 953.0)"/>
    <path d="M 1178.6529318106102,673.4938345014681 C 1223.0789786549194,710.5155402050591 1237.8876609363556,762.3459281900864 1178.6529318106102,821.5806573158319 C 1119.4182026848648,762.3459281900864 1134.226884966301,710.5155402050591 1178.6529318106102,673.4938345014681 Z" fill="url(#leaf1)" opacity="0.26" transform="rotate(258.0 1178.7 747.5)"/>
    <path d="M 1369.6925854115823,764.8924101005309 C 1395.993550543677,786.8098810439432 1404.760538921042,817.4943403647204 1369.6925854115823,852.5622938741801 C 1334.6246319021225,817.4943403647204 1343.3916202794876,786.8098810439432 1369.6925854115823,764.8924101005309 Z" fill="url(#leaf2)" opacity="0.34" transform="rotate(182.0 1369.7 808.7)"/>
    <path d="M 1597.8366059890545,349.36642819166934 C 1651.5333744474756,394.1137352403535 1669.4322972669493,456.7599651085114 1597.8366059890545,528.355656386406 C 1526.2409147111598,456.7599651085114 1544.1398375306335,394.1137352403535 1597.8366059890545,349.36642819166934 Z" fill="url(#leaf3)" opacity="0.35" transform="rotate(72.1 1597.8 438.9)"/>
    <path d="M 142.0068673364545,755.7664951256419 C 179.89401034726393,787.3391143013164 192.52305801753374,831.5407811472606 142.0068673364545,882.0569718283399 C 91.49067665537524,831.5407811472606 104.11972432564505,787.3391143013164 142.0068673364545,755.7664951256419 Z" fill="url(#leaf4)" opacity="0.33" transform="rotate(208.6 142.0 818.9)"/>
    <path d="M 1150.7225836585487,905.1405818527905 C 1186.4451850981116,934.9094163857596 1198.3527189112992,976.5857847319162 1150.7225836585487,1024.2159199846667 C 1103.0924484057982,976.5857847319162 1114.999982218986,934.9094163857596 1150.7225836585487,905.1405818527905 Z" fill="url(#leaf5)" opacity="0.31" transform="rotate(239.5 1150.7 964.7)"/>
    <path d="M 1632.1322547636062,326.2556059245649 C 1676.804684950778,363.4826310805414 1691.6954950131685,415.60046629890854 1632.1322547636062,475.163706548471 C 1572.5690145140438,415.60046629890854 1587.4598245764344,363.4826310805414 1632.1322547636062,326.2556059245649 Z" fill="url(#leaf6)" opacity="0.35" transform="rotate(32.8 1632.1 400.7)"/>
    <path d="M 1065.6569088100755,570.225762706023 C 1108.0909277933154,605.5874451920562 1122.2356007877286,655.0938006725028 1065.6569088100755,711.6724926501558 C 1009.0782168324224,655.0938006725028 1023.2228898268356,605.5874451920562 1065.6569088100755,570.225762706023 Z" fill="url(#leaf7)" opacity="0.30" transform="rotate(261.7 1065.7 640.9)"/>
    <path d="M 559.6122635528814,476.96277618408175 C 619.2727110121452,526.6798157334683 639.1595268318998,596.2836711026094 559.6122635528814,675.8309343816279 C 480.0650002738629,596.2836711026094 499.9518160936175,526.6798157334683 559.6122635528814,476.96277618408175 Z" fill="url(#leaf8)" opacity="0.37" transform="rotate(172.2 559.6 576.4)"/>
    <path d="M 1038.4415501834305,242.97760990771792 C 1087.6947002352474,284.0219016175653 1104.1124169191862,341.4839100113515 1038.4415501834305,407.15477674710723 C 972.7706834476749,341.4839100113515 989.1884001316138,284.0219016175653 1038.4415501834305,242.97760990771792 Z" fill="url(#leaf9)" opacity="0.21" transform="rotate(206.4 1038.4 325.1)"/>
    <path d="M 95.48906227025242,549.9326760229137 C 143.00857667391665,589.5322713593006 158.84841480847138,644.9717048302422 95.48906227025242,708.3310573684612 C 32.12970973203345,644.9717048302422 47.969547866588194,589.5322713593006 95.48906227025242,549.9326760229137 Z" fill="url(#leaf10)" opacity="0.24" transform="rotate(164.0 95.5 629.1)"/>
    <path d="M 489.45367121553323,224.36119944943835 C 538.3228456796213,265.0855115028451 554.612570500984,322.0995483776146 489.45367121553323,387.25844766306545 C 424.2947719300824,322.0995483776146 440.5844967514451,265.0855115028451 489.45367121553323,224.36119944943835 Z" fill="url(#leaf11)" opacity="0.31" transform="rotate(185.4 489.5 305.8)"/>
    <path d="M 1516.2566136510884,35.75191636455919 C 1557.906322072984,70.46000671613898 1571.7895582136161,119.05133320835068 1516.2566136510884,174.58427777087832 C 1460.7236690885607,119.05133320835068 1474.6069052291928,70.46000671613898 1516.2566136510884,35.75191636455919 Z" fill="url(#leaf12)" opacity="0.37" transform="rotate(323.4 1516.3 105.2)"/>
    <path d="M 1270.6184900565625,718.0822672372506 C 1310.3988138615703,751.232537074757 1323.6589217965727,797.6429148472661 1270.6184900565625,850.6833465872764 C 1217.5780583165522,797.6429148472661 1230.8381662515546,751.232537074757 1270.6184900565625,718.0822672372506 Z" fill="url(#leaf13)" opacity="0.32" transform="rotate(252.1 1270.6 784.4)"/>
    <path d="M 487.9044385352234,521.3145910144708 C 523.2003966576627,550.727889449837 534.9657160318093,591.9065072593496 487.9044385352234,638.9677847559356 C 440.8431610386375,591.9065072593496 452.608480412784,550.727889449837 487.9044385352234,521.3145910144708 Z" fill="url(#leaf14)" opacity="0.23" transform="rotate(356.9 487.9 580.1)"/>
    <path d="M 823.6236697732228,172.64460544393108 C 858.4410181730398,201.65906244377857 870.0468009729788,242.27930224356507 823.6236697732228,288.70243344332107 C 777.2005385734668,242.27930224356507 788.8063213734058,201.65906244377857 823.6236697732228,172.64460544393108 Z" fill="url(#leaf15)" opacity="0.21" transform="rotate(230.1 823.6 230.7)"/>
    <path d="M 593.360292238799,794.9577596589548 C 630.681214961486,826.0585285945274 643.121522535715,869.5996051043289 593.360292238799,919.360835401245 C 543.5990619418831,869.5996051043289 556.0393695161121,826.0585285945274 593.360292238799,794.9577596589548 Z" fill="url(#leaf16)" opacity="0.23" transform="rotate(99.2 593.4 857.2)"/>
    <path d="M 1335.9585554000842,143.97402586029403 C 1360.7682620877658,164.64878143336207 1369.038164316993,193.59343923565737 1335.9585554000842,226.67304815256625 C 1302.8789464831752,193.59343923565737 1311.1488487124025,164.64878143336207 1335.9585554000842,143.97402586029403 Z" fill="url(#leaf17)" opacity="0.39" transform="rotate(186.8 1336.0 185.3)"/>
    <path d="M 1715.8183229823785,468.9963517640688 C 1741.3816047123103,490.29908653901185 1749.9026986222873,520.1229152239321 1715.8183229823785,554.207290863841 C 1681.7339473424697,520.1229152239321 1690.2550412524467,490.29908653901185 1715.8183229823785,468.9963517640688 Z" fill="url(#leaf18)" opacity="0.40" transform="rotate(154.2 1715.8 511.6)"/>
    <path d="M 350.312325774753,281.3600977787376 C 404.3963120384484,326.4300863318171 422.42430745968016,389.5280703061284 350.312325774753,461.6400519910556 C 278.2003440898258,389.5280703061284 296.2283395110576,326.4300863318171 350.312325774753,281.3600977787376 Z" fill="url(#leaf19)" opacity="0.23" transform="rotate(2.1 350.3 371.5)"/>
    <path d="M 1769.7096851733127,794.2836664496908 C 1799.8108296789217,819.3679535376983 1809.844544514125,854.4859554609089 1769.7096851733127,894.620814801721 C 1729.5748258325004,854.4859554609089 1739.6085406677037,819.3679535376983 1769.7096851733127,794.2836664496908 Z" fill="url(#leaf0)" opacity="0.38" transform="rotate(81.6 1769.7 844.5)"/>
    <path d="M 65.33301124533178,236.77725260462302 C 95.983879653145,262.3196429444674 106.20083578908275,298.07898942024946 65.33301124533178,338.94681396400046 C 24.465186701580805,298.07898942024946 34.682142837518555,262.3196429444674 65.33301124533178,236.77725260462302 Z" fill="url(#leaf1)" opacity="0.39" transform="rotate(131.8 65.3 287.9)"/>
    <path d="M 833.3603975200142,422.7808547629801 C 881.8128177141482,463.1578715914251 897.9636244455262,519.685695151248 833.3603975200142,584.28892207676 C 768.7571705945022,519.685695151248 784.9079773258802,463.1578715914251 833.3603975200142,422.7808547629801 Z" fill="url(#leaf2)" opacity="0.28" transform="rotate(97.9 833.4 503.5)"/>
    <path d="M 1085.653574081098,511.958822663948 C 1115.7610725883687,537.0484047533404 1125.7969054241257,572.1738196784897 1085.653574081098,612.3171510215175 C 1045.5102427380702,572.1738196784897 1055.5460755738272,537.0484047533404 1085.653574081098,511.958822663948 Z" fill="url(#leaf3)" opacity="0.24" transform="rotate(18.6 1085.7 562.1)"/>
    <path d="M 96.08601927830185,34.81277453798877 C 138.69477029221963,70.32006704958692 152.8976872968589,120.03027656582432 96.08601927830185,176.84194458438134 C 39.27435125974481,120.03027656582432 53.47726826438407,70.32006704958692 96.08601927830185,34.81277453798877 Z" fill="url(#leaf4)" opacity="0.36" transform="rotate(349.2 96.1 105.8)"/>
    <path d="M 1026.782926681154,432.8695356596297 C 1066.101759521996,465.63522969366466 1079.2080371356099,511.5072013413135 1026.782926681154,563.9323117957694 C 974.3578162266982,511.5072013413135 987.4640938403122,465.63522969366466 1026.782926681154,432.8695356596297 Z" fill="url(#leaf5)" opacity="0.26" transform="rotate(278.4 1026.8 498.4)"/>
    <path d="M 1722.8191487139088,257.91657630135336 C 1769.4315612870214,296.76025344561384 1784.9690321447256,351.14140144757846 1722.8191487139088,413.2912848783952 C 1660.669265283092,351.14140144757846 1676.2067361407962,296.76025344561384 1722.8191487139088,257.91657630135336 Z" fill="url(#leaf6)" opacity="0.22" transform="rotate(247.1 1722.8 335.6)"/>
    <path d="M 989.3808191639137,483.72462059782947 C 1039.4811612496187,525.4749056692502 1056.181275278187,583.9253047692395 989.3808191639137,650.7257608835127 C 922.5803630496404,583.9253047692395 939.2804770782086,525.4749056692502 989.3808191639137,483.72462059782947 Z" fill="url(#leaf7)" opacity="0.27" transform="rotate(157.6 989.4 567.2)"/>
    <path d="M 566.9970295673755,821.8374563020586 C 592.7452524251189,843.2943086835115 601.3279933777001,873.3339020175455 566.9970295673755,907.66486582787 C 532.666065757051,873.3339020175455 541.2488067096322,843.2943086835115 566.9970295673755,821.8374563020586 Z" fill="url(#leaf8)" opacity="0.24" transform="rotate(135.8 567.0 864.8)"/>
    <path d="M 1404.2396288739508,785.1430176482496 C 1431.4230526025906,807.7958707554495 1440.4841938454706,839.5098651055295 1404.2396288739508,875.7544300770493 C 1367.995063902431,839.5098651055295 1377.056205145311,807.7958707554495 1404.2396288739508,785.1430176482496 Z" fill="url(#leaf9)" opacity="0.26" transform="rotate(323.1 1404.2 830.4)"/>
    <path d="M 1401.4529197930522,542.8956396874346 C 1441.8777686884796,576.5830137669576 1455.352718320289,623.7453374782897 1401.4529197930522,677.6451360055264 C 1347.5531212658154,623.7453374782897 1361.0280708976247,576.5830137669576 1401.4529197930522,542.8956396874346 Z" fill="url(#leaf10)" opacity="0.35" transform="rotate(218.1 1401.5 610.3)"/>
    <path d="M 1166.7233772149873,152.11609031959614 C 1226.1802541264035,201.66348774577625 1245.9992130968753,271.0298441424284 1166.7233772149873,350.30568002431653 C 1087.4475413330993,271.0298441424284 1107.266500303571,201.66348774577625 1166.7233772149873,152.11609031959614 Z" fill="url(#leaf11)" opacity="0.37" transform="rotate(231.7 1166.7 251.2)"/>
    <path d="M 932.9273425232939,807.6460866550239 C 970.4325952897038,838.9004639603654 982.9343462118405,882.6565921878438 932.9273425232939,932.6635958763903 C 882.9203388347472,882.6565921878438 895.4220897568839,838.9004639603654 932.9273425232939,807.6460866550239 Z" fill="url(#leaf12)" opacity="0.28" transform="rotate(55.6 932.9 870.2)"/>
    <path d="M 90.9688914363482,840.6141650992071 C 127.94210593616253,871.4251771823856 140.26651076943398,914.5605940988356 90.9688914363482,963.8582134319214 C 41.67127210326243,914.5605940988356 53.995676936533876,871.4251771823856 90.9688914363482,840.6141650992071 Z" fill="url(#leaf13)" opacity="0.27" transform="rotate(335.0 91.0 902.2)"/>
    <path d="M 1277.7175340450867,460.204465003343 C 1332.2307654831736,505.63215786841545 1350.4018426292027,569.2309278795169 1277.7175340450867,641.9152364636328 C 1205.0332254609707,569.2309278795169 1223.2043026069998,505.63215786841545 1277.7175340450867,460.204465003343 Z" fill="url(#leaf14)" opacity="0.29" transform="rotate(99.2 1277.7 551.1)"/>
    <path d="M 1517.015136853341,633.4550167126824 C 1572.8343624413396,679.9710380360148 1591.4407709706727,745.09346788868 1517.015136853341,819.5191020060117 C 1442.589502736009,745.09346788868 1461.1959112653421,679.9710380360148 1517.015136853341,633.4550167126824 Z" fill="url(#leaf15)" opacity="0.22" transform="rotate(142.4 1517.0 726.5)"/>
    <path d="M 1310.2737217125025,101.65721700005443 C 1350.1137067780214,134.85720455465355 1363.393701799861,181.3371871310923 1310.2737217125025,234.45716721845085 C 1257.153741625144,181.3371871310923 1270.4337366469836,134.85720455465355 1310.2737217125025,101.65721700005443 Z" fill="url(#leaf16)" opacity="0.36" transform="rotate(243.2 1310.3 168.1)"/>
    <path d="M 394.3969053456516,285.5012352202813 C 418.78167196575447,305.82187407036696 426.90992750578874,334.270768460487 394.3969053456516,366.78379062062413 C 361.88388318551443,334.270768460487 370.0121387255487,305.82187407036696 394.3969053456516,285.5012352202813 Z" fill="url(#leaf17)" opacity="0.28" transform="rotate(159.4 394.4 326.1)"/>
    <path d="M 1456.8548242049449,495.28498319727146 C 1497.8086225422178,529.4131484783322 1511.459888654642,577.1925798718173 1456.8548242049449,631.7976443215146 C 1402.2497597552476,577.1925798718173 1415.901025867672,529.4131484783322 1456.8548242049449,495.28498319727146 Z" fill="url(#leaf18)" opacity="0.29" transform="rotate(95.2 1456.9 563.5)"/>
    <path d="M 1242.3350173860483,305.3797198849352 C 1270.3297168016318,328.70863606458806 1279.661283273493,361.3691187161021 1242.3350173860483,398.6953846035467 C 1205.0087514986037,361.3691187161021 1214.3403179704649,328.70863606458806 1242.3350173860483,305.3797198849352 Z" fill="url(#leaf19)" opacity="0.33" transform="rotate(69.4 1242.3 352.0)"/>
    <path d="M 214.54437981804963,11.431262839746765 C 265.1731173035351,53.62187741098465 282.04936313203024,112.6887378107177 214.54437981804963,180.1937211246983 C 147.03939650406903,112.6887378107177 163.91564233256418,53.62187741098465 214.54437981804963,11.431262839746765 Z" fill="url(#leaf0)" opacity="0.33" transform="rotate(208.9 214.5 95.8)"/>
    <path d="M 1545.0053508921271,-21.01697896383871 C 1604.3949286296938,28.47433581746693 1624.1914545422162,97.76217651129483 1545.0053508921271,176.94828016138385 C 1465.819247242038,97.76217651129483 1485.6157731545604,28.47433581746693 1545.0053508921271,-21.01697896383871 Z" fill="url(#leaf1)" opacity="0.29" transform="rotate(66.0 1545.0 78.0)"/>
    <path d="M 564.6259960970816,135.64005842204597 C 594.5441404758562,160.57184540435816 604.5168552687811,195.47634717959525 564.6259960970816,235.36720635129478 C 524.7351369253821,195.47634717959525 534.707851718307,160.57184540435816 564.6259960970816,135.64005842204597 Z" fill="url(#leaf2)" opacity="0.21" transform="rotate(196.4 564.6 185.5)"/>
    <path d="M 399.12064027201126,216.51418366688452 C 457.800153604576,265.41377811068844 477.3599913820976,333.87321033201397 399.12064027201126,412.1125614421003 C 320.88128916192494,333.87321033201397 340.4411269394465,265.41377811068844 399.12064027201126,216.51418366688452 Z" fill="url(#leaf3)" opacity="0.39" transform="rotate(67.6 399.1 314.3)"/>
    <path d="M 1038.7769141820647,675.0105616486796 C 1077.6880289815006,707.4364906482095 1090.6584005813127,752.8327912475514 1038.7769141820647,804.7142776467992 C 986.8954277828168,752.8327912475514 999.8657993826288,707.4364906482095 1038.7769141820647,675.0105616486796 Z" fill="url(#leaf4)" opacity="0.23" transform="rotate(242.5 1038.8 739.9)"/>
    <path d="M 90.37112615731678,717.1034939547496 C 142.5892161561725,760.6185689537961 159.9952461557911,821.539673952461 90.37112615731678,891.1637939509353 C 20.747006158842467,821.539673952461 38.15303615846104,760.6185689537961 90.37112615731678,717.1034939547496 Z" fill="url(#leaf5)" opacity="0.29" transform="rotate(334.1 90.4 804.1)"/>
    <path d="M 1383.2141019443038,110.01585371530598 C 1415.7143248596824,137.09937281145483 1426.547732498142,175.01629954606318 1383.2141019443038,218.34993009990131 C 1339.8804713904656,175.01629954606318 1350.7138790289252,137.09937281145483 1383.2141019443038,110.01585371530598 Z" fill="url(#leaf6)" opacity="0.26" transform="rotate(17.0 1383.2 164.2)"/>
    <path d="M 1338.8526339339708,418.12498251352554 C 1394.777489139488,464.7290285181231 1413.4191075413269,529.9746929245596 1338.8526339339708,604.5411665319157 C 1264.2861603266147,529.9746929245596 1282.9277787284536,464.7290285181231 1338.8526339339708,418.12498251352554 Z" fill="url(#leaf7)" opacity="0.27" transform="rotate(23.8 1338.9 511.3)"/>
    <path d="M 1706.1765774054672,747.8407934324498 C 1759.1768598382757,792.0076954597903 1776.843620649212,853.8413582980668 1706.1765774054672,924.5084015418115 C 1635.5095341617225,853.8413582980668 1653.1762949726588,792.0076954597903 1706.1765774054672,747.8407934324498 Z" fill="url(#leaf8)" opacity="0.39" transform="rotate(71.9 1706.2 836.2)"/>
    <path d="M 1647.1684353783594,171.88866355692585 C 1675.8711042095913,195.80755424961916 1685.4386604866688,229.29400121938983 1647.1684353783594,267.56422632769915 C 1608.89821027005,229.29400121938983 1618.4657665471275,195.80755424961916 1647.1684353783594,171.88866355692585 Z" fill="url(#leaf9)" opacity="0.35" transform="rotate(43.4 1647.2 219.7)"/>
    <path d="M 953.7047468854346,311.334427249163 C 1011.8342984370269,359.7757202088232 1031.2108156208908,427.59353035234744 953.7047468854346,505.09959908780377 C 876.1986781499783,427.59353035234744 895.5751953338423,359.7757202088232 953.7047468854346,311.334427249163 Z" fill="url(#leaf10)" opacity="0.29" transform="rotate(257.1 953.7 408.2)"/>
    <path d="M 878.3163922242032,884.2873462162026 C 914.5463800454223,914.4790027338852 926.6230426524954,956.7473218586408 878.3163922242032,1005.053972286933 C 830.009741795911,956.7473218586408 842.0864044029842,914.4790027338852 878.3163922242032,884.2873462162026 Z" fill="url(#leaf11)" opacity="0.37" transform="rotate(304.5 878.3 944.7)"/>
    <path d="M 1278.626068391802,202.50896004032117 C 1332.5268776566636,247.42630109437255 1350.4938140782842,310.3105785700445 1278.626068391802,382.1783242565267 C 1206.7583227053196,310.3105785700445 1224.7252591269403,247.42630109437255 1278.626068391802,202.50896004032117 Z" fill="url(#leaf12)" opacity="0.37" transform="rotate(275.7 1278.6 292.3)"/>
    <path d="M 1417.9721612769993,249.8288160791719 C 1450.3855784632376,276.8399970677038 1461.1900508586502,314.6556504516484 1417.9721612769993,357.87354003329943 C 1374.7542716953483,314.6556504516484 1385.558744090761,276.8399970677038 1417.9721612769993,249.8288160791719 Z" fill="url(#leaf13)" opacity="0.22" transform="rotate(343.1 1418.0 303.9)"/>
    <path d="M 1068.285090918785,730.6407894122003 C 1098.3240104127533,755.6732223238406 1108.3369835774095,790.7186284001368 1068.285090918785,830.7705210587612 C 1028.2331982601606,790.7186284001368 1038.2461714248168,755.6732223238406 1068.285090918785,730.6407894122003 Z" fill="url(#leaf14)" opacity="0.38" transform="rotate(57.4 1068.3 780.7)"/>
    <path d="M 1200.4051855866828,137.87099002746166 C 1259.4236406689192,187.05303592932535 1279.0964590296646,255.90790019193452 1200.4051855866828,334.5991736349164 C 1121.713912143701,255.90790019193452 1141.3867305044464,187.05303592932535 1200.4051855866828,137.87099002746166 Z" fill="url(#leaf15)" opacity="0.35" transform="rotate(331.1 1200.4 236.2)"/>
    <path d="M 1053.2844842495351,348.62383894150787 C 1096.1318644433193,384.3299891029947 1110.414324507914,434.3185993290762 1053.2844842495351,491.44843958745514 C 996.1546439911563,434.3185993290762 1010.437104055751,384.3299891029947 1053.2844842495351,348.62383894150787 Z" fill="url(#leaf16)" opacity="0.29" transform="rotate(272.2 1053.3 420.0)"/>
    <path d="M 1850.8142765043556,736.0877945655845 C 1909.76046909752,785.2096217265549 1929.4091999619081,853.9801797519135 1850.8142765043556,932.5751032094661 C 1772.219353046803,853.9801797519135 1791.8680839111912,785.2096217265549 1850.8142765043556,736.0877945655845 Z" fill="url(#leaf17)" opacity="0.36" transform="rotate(214.6 1850.8 834.3)"/>
    <path d="M 354.7553969698766,296.7586570368215 C 402.1032625503142,336.2152116871861 417.88588441046005,391.4543881976967 354.7553969698766,454.58487563828015 C 291.6249095292931,391.4543881976967 307.407531389439,336.2152116871861 354.7553969698766,296.7586570368215 Z" fill="url(#leaf18)" opacity="0.30" transform="rotate(344.5 354.8 375.7)"/>
    <path d="M 352.87960016082707,317.2808837791581 C 384.3716790276399,343.5242828348355 394.86903864991086,380.2650415127838 352.87960016082707,422.2544800018676 C 310.8901616717433,380.2650415127838 321.3875212940142,343.5242828348355 352.87960016082707,317.2808837791581 Z" fill="url(#leaf19)" opacity="0.21" transform="rotate(121.4 352.9 369.8)"/>
    <path d="M 724.4551382939735,595.2786335684102 C 762.7097524186199,627.1574786722823 775.4612904601688,671.7878618177033 724.4551382939735,722.7940139838986 C 673.4489861277782,671.7878618177033 686.2005241693271,627.1574786722823 724.4551382939735,595.2786335684102 Z" fill="url(#leaf0)" opacity="0.39" transform="rotate(163.0 724.5 659.0)"/>
    <path d="M 1175.8390708229529,896.1335519381887 C 1224.8747207292665,936.9965935267835 1241.2199373647045,994.204851750816 1175.8390708229529,1059.5857182925677 C 1110.4582042812012,994.204851750816 1126.8034209166392,936.9965935267835 1175.8390708229529,896.1335519381887 Z" fill="url(#leaf1)" opacity="0.37" transform="rotate(228.9 1175.8 977.9)"/>
    <path d="M 1669.5168122296488,470.5526435308017 C 1720.5816841556227,513.1067034691132 1737.6033081309474,572.6823873827494 1669.5168122296488,640.768883284048 C 1601.4303163283503,572.6823873827494 1618.451940303675,513.1067034691132 1669.5168122296488,470.5526435308017 Z" fill="url(#leaf2)" opacity="0.28" transform="rotate(73.3 1669.5 555.7)"/>
    <path d="M 1759.1907834337917,192.1509840243695 C 1813.5793052526599,237.47475220675963 1831.708812525616,300.9280276621058 1759.1907834337917,373.44605675393 C 1686.6727543419674,300.9280276621058 1704.8022616149235,237.47475220675963 1759.1907834337917,192.1509840243695 Z" fill="url(#leaf3)" opacity="0.26" transform="rotate(73.9 1759.2 282.8)"/>
    <path d="M 377.7576395502894,321.3595400640737 C 421.30245854452596,357.6468892259375 435.81739820927146,408.4491780525468 377.7576395502894,466.5089367115289 C 319.69788089130736,408.4491780525468 334.21282055605286,357.6468892259375 377.7576395502894,321.3595400640737 Z" fill="url(#leaf4)" opacity="0.21" transform="rotate(250.7 377.8 393.9)"/>
    <path d="M 1437.4164384330486,649.1611439533561 C 1489.4829238580035,692.5498818074852 1506.838418999655,753.2941148032659 1437.4164384330486,822.7160953698723 C 1367.9944578664422,753.2941148032659 1385.3499530080937,692.5498818074852 1437.4164384330486,649.1611439533561 Z" fill="url(#leaf5)" opacity="0.38" transform="rotate(239.1 1437.4 735.9)"/>
    <path d="M 1516.5509813370868,389.9387595139359 C 1550.9439157367017,418.59953818028157 1562.40822720324,458.7246283131655 1516.5509813370868,504.58187417931856 C 1470.6937354709337,458.7246283131655 1482.158046937472,418.59953818028157 1516.5509813370868,389.9387595139359 Z" fill="url(#leaf6)" opacity="0.20" transform="rotate(311.8 1516.6 447.3)"/>
    <path d="M 1035.4939547592207,30.379201362067136 C 1082.454513160219,69.5130000295656 1098.1080326272183,124.30031816406346 1035.4939547592207,186.914396032061 C 972.8798768912231,124.30031816406346 988.5333963582226,69.5130000295656 1035.4939547592207,30.379201362067136 Z" fill="url(#leaf7)" opacity="0.22" transform="rotate(305.4 1035.5 108.6)"/>
    <path d="M 1093.8050051189625,553.9633791601383 C 1145.7462735543702,597.247769522978 1163.060029699506,657.8459160309536 1093.8050051189625,727.1009406114971 C 1024.549980538419,657.8459160309536 1041.8637366835549,597.247769522978 1093.8050051189625,553.9633791601383 Z" fill="url(#leaf8)" opacity="0.22" transform="rotate(133.2 1093.8 640.5)"/>
    <path d="M 1136.888623543502,160.1566327000664 C 1171.3898119890605,188.90762307136518 1182.89020813758,229.15900959118346 1136.888623543502,275.16059418526146 C 1090.887038949424,229.15900959118346 1102.3874350979436,188.90762307136518 1136.888623543502,160.1566327000664 Z" fill="url(#leaf9)" opacity="0.29" transform="rotate(325.9 1136.9 217.7)"/>
    <path d="M 1403.3949476872226,622.7427090948709 C 1461.6658259665226,671.3017743276208 1481.0894520596225,739.2844656534708 1403.3949476872226,816.9789700258707 C 1325.7004433148227,739.2844656534708 1345.1240694079227,671.3017743276208 1403.3949476872226,622.7427090948709 Z" fill="url(#leaf10)" opacity="0.24" transform="rotate(107.8 1403.4 719.9)"/>
    <path d="M 913.4108685362226,116.57172614599043 C 953.7211104839702,150.16359443578008 967.157857799886,197.1922100414856 913.4108685362226,250.93919930514906 C 859.6638792725591,197.1922100414856 873.1006265884749,150.16359443578008 913.4108685362226,116.57172614599043 Z" fill="url(#leaf11)" opacity="0.30" transform="rotate(57.1 913.4 183.8)"/>
    <path d="M 382.85746859188646,678.7243367894738 C 414.25612349687486,704.8898825436308 424.7223417985376,741.5216465994506 382.85746859188646,783.3865198061018 C 340.9925953852353,741.5216465994506 351.45881368689805,704.8898825436308 382.85746859188646,678.7243367894738 Z" fill="url(#leaf12)" opacity="0.32" transform="rotate(46.3 382.9 731.1)"/>
    <path d="M 1653.372332211236,590.5306711995619 C 1691.107157006724,621.9763585291354 1703.6854319385536,666.0003207905382 1653.372332211236,716.3134205178559 C 1603.0592324839183,666.0003207905382 1615.637507415748,621.9763585291354 1653.372332211236,590.5306711995619 Z" fill="url(#leaf13)" opacity="0.23" transform="rotate(256.1 1653.4 653.4)"/>
    <path d="M 1128.515187247393,928.8792086849118 C 1184.9288791063511,975.8906185673769 1203.733443059337,1041.706592402828 1128.515187247393,1116.924848214772 C 1053.2969314354489,1041.706592402828 1072.1014953884348,975.8906185673769 1128.515187247393,928.8792086849118 Z" fill="url(#leaf14)" opacity="0.29" transform="rotate(166.9 1128.5 1022.9)"/>
    <path d="M 1773.2009313686028,127.59435458257153 C 1810.0049206368174,158.26434563941692 1822.2729170595555,201.20233311900046 1773.2009313686028,250.2743188099531 C 1724.12894567765,201.20233311900046 1736.3969421003883,158.26434563941692 1773.2009313686028,127.59435458257153 Z" fill="url(#leaf15)" opacity="0.39" transform="rotate(360.0 1773.2 188.9)"/>
    <path d="M 1156.1038643983636,83.53864485043974 C 1198.6920835233639,119.02882745460667 1212.8881565650306,168.71508310044038 1156.1038643983636,225.49937526710747 C 1099.3195722316966,168.71508310044038 1113.5156452733634,119.02882745460667 1156.1038643983636,83.53864485043974 Z" fill="url(#leaf16)" opacity="0.39" transform="rotate(80.1 1156.1 154.5)"/>
    <path d="M 278.51408305963747,917.931471490802 C 304.64436686082803,939.7067079917941 313.3544614612249,970.1920390931831 278.51408305963747,1005.0324174947706 C 243.67370465805004,970.1920390931831 252.3837992584469,939.7067079917941 278.51408305963747,917.931471490802 Z" fill="url(#leaf17)" opacity="0.27" transform="rotate(2.3 278.5 961.5)"/>
    <path d="M 1341.6357600164467,684.2750820566948 C 1381.396898955409,717.4093645058301 1394.6506119350631,763.7973599346194 1341.6357600164467,816.8122118532358 C 1288.6209080978304,763.7973599346194 1301.8746210774846,717.4093645058301 1341.6357600164467,684.2750820566948 Z" fill="url(#leaf18)" opacity="0.30" transform="rotate(305.1 1341.6 750.5)"/>
    <path d="M 1711.9551659621254,861.6763590028486 C 1755.7259345548418,898.1519994967789 1770.3161907524138,949.2178961882813 1711.9551659621254,1007.5789209785698 C 1653.594141171837,949.2178961882813 1668.184397369409,898.1519994967789 1711.9551659621254,861.6763590028486 Z" fill="url(#leaf19)" opacity="0.39" transform="rotate(276.0 1712.0 934.6)"/>
    <path d="M 1203.718459126108,604.847479900131 C 1260.4916650929374,652.1584848724889 1279.4160670818806,718.3938918337898 1203.718459126108,794.0914997895622 C 1128.0208511703354,718.3938918337898 1146.9452531592785,652.1584848724889 1203.718459126108,604.847479900131 Z" fill="url(#leaf0)" opacity="0.27" transform="rotate(16.8 1203.7 699.5)"/>
    <path d="M 1835.301865235816,527.1244494166266 C 1894.9845991040536,576.8600609734913 1914.8788437267995,646.4899171531018 1835.301865235816,726.0668956440853 C 1755.7248867448325,646.4899171531018 1775.6191313675783,576.8600609734913 1835.301865235816,527.1244494166266 Z" fill="url(#leaf1)" opacity="0.33" transform="rotate(125.6 1835.3 626.6)"/>
    <path d="M 1853.885686969591,614.5900077289741 C 1895.4624885895048,649.2373424122358 1909.3214224628096,697.7436109688019 1853.885686969591,753.1793464620205 C 1798.4499514763725,697.7436109688019 1812.3088853496772,649.2373424122358 1853.885686969591,614.5900077289741 Z" fill="url(#leaf2)" opacity="0.24" transform="rotate(121.3 1853.9 683.9)"/>
    <path d="M 1217.8871178216527,500.4912028029657 C 1269.3381264539712,543.3670433298978 1286.488462664744,603.3932200676027 1217.8871178216527,671.994564910694 C 1149.2857729785615,603.3932200676027 1166.4361091893343,543.3670433298978 1217.8871178216527,500.4912028029657 Z" fill="url(#leaf3)" opacity="0.35" transform="rotate(330.1 1217.9 586.2)"/>
    <path d="M 1638.8088937185485,28.802494094330868 C 1664.5229407870418,50.23086665140863 1673.0942898098729,80.2305882313175 1638.8088937185485,114.51598432264193 C 1604.523497627224,80.2305882313175 1613.0948466500552,50.23086665140863 1638.8088937185485,28.802494094330868 Z" fill="url(#leaf4)" opacity="0.23" transform="rotate(214.2 1638.8 71.7)"/>
    <path d="M 523.5944654752554,22.879876090120717 C 562.2459219711134,55.08942317000236 575.129740803066,100.18278908183666 523.5944654752554,151.7180644096473 C 472.05919014744484,100.18278908183666 484.94300897939746,55.08942317000236 523.5944654752554,22.879876090120717 Z" fill="url(#leaf5)" opacity="0.25" transform="rotate(25.6 523.6 87.3)"/>
    <path d="M 213.55673776822132,217.6992554045616 C 258.4822568857446,255.13718800249768 273.45742992491904,307.5502936396082 213.55673776822132,367.45098579630593 C 153.65604561152358,307.5502936396082 168.63121865069803,255.13718800249768 213.55673776822132,217.6992554045616 Z" fill="url(#leaf6)" opacity="0.39" transform="rotate(133.2 213.6 292.6)"/>
    <path d="M 1176.468775595007,-34.605782872656256 C 1235.1428149953251,14.289249960942207 1254.7008281287644,82.74229592798005 1176.468775595007,160.9743484617376 C 1098.2367230612494,82.74229592798005 1117.7947361946888,14.289249960942207 1176.468775595007,-34.605782872656256 Z" fill="url(#leaf7)" opacity="0.31" transform="rotate(152.9 1176.5 63.2)"/>
    <path d="M 1609.5059346085561,170.967483746224 C 1640.7065021051578,196.96795666005875 1651.1066912706917,233.3686187394274 1609.5059346085561,274.969375401563 C 1567.9051779464205,233.3686187394274 1578.3053671119544,196.96795666005875 1609.5059346085561,170.967483746224 Z" fill="url(#leaf8)" opacity="0.21" transform="rotate(231.3 1609.5 223.0)"/>
    <path d="M 1661.0460390176186,718.0037087433268 C 1711.0290530050438,759.6562203995146 1727.690057667519,817.9697367181775 1661.0460390176186,884.613755368078 C 1594.402020367718,817.9697367181775 1611.0630250301933,759.6562203995146 1661.0460390176186,718.0037087433268 Z" fill="url(#leaf9)" opacity="0.24" transform="rotate(87.0 1661.0 801.3)"/>
    <path d="M 1416.9871861036324,438.0625765500608 C 1457.9931692762423,472.23422919390225 1471.6618303337789,520.0745428952803 1416.9871861036324,574.7491871254267 C 1362.312541873486,520.0745428952803 1375.9812029310226,472.23422919390225 1416.9871861036324,438.0625765500608 Z" fill="url(#leaf10)" opacity="0.30" transform="rotate(109.1 1417.0 506.4)"/>
    <path d="M 787.7238887666863,495.3069708389233 C 824.1963915940412,525.7007231950523 836.3538925364928,568.251976493633 787.7238887666863,616.8819802634396 C 739.0938849968798,568.251976493633 751.2513859393314,525.7007231950523 787.7238887666863,495.3069708389233 Z" fill="url(#leaf11)" opacity="0.39" transform="rotate(309.6 787.7 556.1)"/>
    <path d="M 1244.2470798709094,654.9863786000466 C 1270.0531161182034,676.491408806125 1278.6551282006349,706.5984510946349 1244.2470798709094,741.0064994243604 C 1209.8390315411839,706.5984510946349 1218.4410436236153,676.491408806125 1244.2470798709094,654.9863786000466 Z" fill="url(#leaf12)" opacity="0.38" transform="rotate(14.1 1244.2 698.0)"/>
    <path d="M 1060.8192244938418,134.70081307538297 C 1101.551996760796,168.64478996451143 1115.1295875164474,216.16635760929128 1060.8192244938418,270.4767206318968 C 1006.5088614712363,216.16635760929128 1020.0864522268877,168.64478996451143 1060.8192244938418,134.70081307538297 Z" fill="url(#leaf13)" opacity="0.38" transform="rotate(66.5 1060.8 202.6)"/>
    <path d="M 702.6006462182798,434.62450907746484 C 741.7316889003444,467.2337113125186 754.7753697943658,512.8865944415938 702.6006462182798,565.0613180176798 C 650.4259226421939,512.8865944415938 663.4696035362153,467.2337113125186 702.6006462182798,434.62450907746484 Z" fill="url(#leaf14)" opacity="0.23" transform="rotate(281.5 702.6 499.8)"/>
    <path d="M 1458.8739604086038,726.1746908291911 C 1498.1065483141676,758.8685140838276 1511.184077616022,804.6398666403186 1458.8739604086038,856.9499838477368 C 1406.5638432011856,804.6398666403186 1419.64137250304,758.8685140838276 1458.8739604086038,726.1746908291911 Z" fill="url(#leaf15)" opacity="0.31" transform="rotate(323.5 1458.9 791.6)"/>
    <path d="M 704.397876198533,105.95116714905375 C 732.8927766685619,129.69691754074447 742.3910768252382,162.9409680891115 704.397876198533,200.93416871581667 C 666.4046755718279,162.9409680891115 675.9029757285042,129.69691754074447 704.397876198533,105.95116714905375 Z" fill="url(#leaf16)" opacity="0.38" transform="rotate(127.9 704.4 153.4)"/>
    <path d="M 1275.7276827848207,594.7651181628705 C 1329.3679504191177,639.4653411914514 1347.24803963055,702.0456534314646 1275.7276827848207,773.566010277194 C 1204.2073259390913,702.0456534314646 1222.0874151505236,639.4653411914514 1275.7276827848207,594.7651181628705 Z" fill="url(#leaf17)" opacity="0.21" transform="rotate(240.0 1275.7 684.2)"/>
    <path d="M 774.5326200835128,776.2457901456523 C 801.7144255029748,798.8972946618707 810.7750273094621,830.6094009845763 774.5326200835128,866.8518082105256 C 738.2902128575636,830.6094009845763 747.3508146640509,798.8972946618707 774.5326200835128,776.2457901456523 Z" fill="url(#leaf18)" opacity="0.32" transform="rotate(301.1 774.5 821.5)"/>
    <path d="M 1798.084281370146,411.70216571709943 C 1837.0863292809584,444.203872309443 1850.0870119178958,489.70626153872405 1798.084281370146,541.7089920864738 C 1746.0815508223964,489.70626153872405 1759.0822334593338,444.203872309443 1798.084281370146,411.70216571709943 Z" fill="url(#leaf19)" opacity="0.22" transform="rotate(276.7 1798.1 476.7)"/>
    <path d="M 1190.4447241471687,912.1584240400624 C 1228.0792582571953,943.5205357984179 1240.6241029605376,987.4274922601156 1190.4447241471687,1037.6068710734846 C 1140.2653453337998,987.4274922601156 1152.810190037142,943.5205357984179 1190.4447241471687,912.1584240400624 Z" fill="url(#leaf0)" opacity="0.37" transform="rotate(241.3 1190.4 974.9)"/>
    <path d="M 1699.1243996500657,131.64153269409007 C 1739.110439880449,164.96323288607613 1752.4391199572433,211.61361315485658 1699.1243996500657,264.92833346203423 C 1645.809679342888,211.61361315485658 1659.1383594196825,164.96323288607613 1699.1243996500657,131.64153269409007 Z" fill="url(#leaf1)" opacity="0.35" transform="rotate(48.8 1699.1 198.3)"/>
    <path d="M 1249.376333922257,252.6942809830771 C 1303.529870078331,297.8222277798055 1321.5810487970223,361.00135329522516 1249.376333922257,433.20606816999054 C 1177.1716190474915,361.00135329522516 1195.2227977661828,297.8222277798055 1249.376333922257,252.6942809830771 Z" fill="url(#leaf2)" opacity="0.29" transform="rotate(242.9 1249.4 343.0)"/>
    <path d="M 303.882800077365,596.1796439664784 C 348.2283943214172,633.1343058365219 363.0102590694346,684.8708324545828 303.882800077365,743.9982914466525 C 244.75534108529538,684.8708324545828 259.5372058333128,633.1343058365219 303.882800077365,596.1796439664784 Z" fill="url(#leaf3)" opacity="0.28" transform="rotate(165.4 303.9 670.1)"/>
    <path d="M 533.4471089678755,353.64741609955433 C 559.2307869179642,375.13381439129495 567.8253462346605,405.21477199973185 533.4471089678755,439.5930092665169 C 499.0688717010904,405.21477199973185 507.6634310177867,375.13381439129495 533.4471089678755,353.64741609955433 Z" fill="url(#leaf4)" opacity="0.32" transform="rotate(323.0 533.4 396.6)"/>
    <path d="M 914.738750275857,872.5051889109703 C 950.9516368831347,902.682594417035 963.0225990855606,944.9309621255258 914.738750275857,993.2148109352294 C 866.4549014661534,944.9309621255258 878.5258636685793,902.682594417035 914.738750275857,872.5051889109703 Z" fill="url(#leaf5)" opacity="0.34" transform="rotate(81.9 914.7 932.9)"/>
    <path d="M 227.72175603899305,86.40207669201003 C 257.0835768536057,110.87026070418725 266.8708504584766,145.12571832123533 227.72175603899305,184.27481274071886 C 188.57266161950952,145.12571832123533 198.3599352243804,110.87026070418725 227.72175603899305,86.40207669201003 Z" fill="url(#leaf6)" opacity="0.36" transform="rotate(199.9 227.7 135.3)"/>
    <path d="M 1334.1026883072227,827.4441312459355 C 1368.9392397479555,856.4745907798796 1380.5514235615333,897.1172341274013 1334.1026883072227,943.5659693817117 C 1287.6539530529121,897.1172341274013 1299.26613686649,856.4745907798796 1334.1026883072227,827.4441312459355 Z" fill="url(#leaf7)" opacity="0.32" transform="rotate(326.1 1334.1 885.5)"/>
    <path d="M 610.6828166373666,533.6948958474416 C 666.6892346468122,580.3669108553129 685.3580406499608,645.7077318663329 610.6828166373666,720.3829558789271 C 536.0075926247724,645.7077318663329 554.676398627921,580.3669108553129 610.6828166373666,533.6948958474416 Z" fill="url(#leaf8)" opacity="0.24" transform="rotate(257.2 610.7 627.0)"/>
    <path d="M 196.60591138745625,291.2564672025226 C 221.9457272212948,312.372980397388 230.39233249924098,341.9360988701996 196.60591138745625,375.7225199819843 C 162.8194902756715,341.9360988701996 171.2660955536177,312.372980397388 196.60591138745625,291.2564672025226 Z" fill="url(#leaf9)" opacity="0.34" transform="rotate(312.3 196.6 333.5)"/>
  </g>

  <!-- Central star shape -->
  <polygon points="960.0,272.3 1038.7,431.7 1214.6,457.3 1087.3,581.4 1117.4,756.6 960.0,673.9 802.6,756.6 832.7,581.4 705.4,457.3 881.3,431.7" 
           fill="#FF69B4" 
           transform="rotate(201.0 960.0 540.0)"/>
</svg>