<?xml version="1.0" encoding="UTF-8"?>
<svg xmlns="http://www.w3.org/2000/svg" viewBox="0 0 1920 1080" width="1920" height="1080">
  <defs>
    <linearGradient id="bgGrad" x1="0%" y1="0%" x2="100%" y2="100%">
      <stop offset="0%" stop-color="#FF4500"/>
      <stop offset="100%" stop-color="#FFD700"/>
    </linearGradient>
    <clipPath id="complexClip"><polygon points="1336.3,540.0 1513.8,606.2 1384.9,646.4 1413.0,725.1 1254.7,724.1 1214.8,788.2 1063.9,719.9 1010.6,810.8 904.4,837.5 801.0,815.3 679.4,813.4 655.3,730.3 583.8,693.8 493.6,656.8 480.3,597.4 407.5,540.0 515.6,486.9 591.3,447.7 642.4,410.2 651.0,347.0 722.7,308.8 849.2,348.1 903.3,236.5 1018.8,225.1 1072.2,345.8 1209.2,297.2 1222.4,376.1 1299.1,401.4 1370.3,437.2 1445.6,481.9"/></clipPath>
    <radialGradient id="leaf0" cx="50%" cy="50%" r="70%">
      <stop offset="0%" stop-color="#FF69B4"/>
      <stop offset="50%" stop-color="#FF6B6B"/>
      <stop offset="100%" stop-color="#96E6A1"/>
    </radialGradient>
    <radialGradient id="leaf1" cx="50%" cy="50%" r="70%">
      <stop offset="0%" stop-color="#FF69B4"/>
      <stop offset="50%" stop-color="#7B68EE"/>
      <stop offset="100%" stop-color="#4ECDC4"/>
    </radialGradient>
    <radialGradient id="leaf2" cx="50%" cy="50%" r="70%">
      <stop offset="0%" stop-color="#00CED1"/>
      <stop offset="50%" stop-color="#FF6B6B"/>
      <stop offset="100%" stop-color="#FF4500"/>
    </radialGradient>
    <radialGradient id="leaf3" cx="50%" cy="50%" r="70%">
      <stop offset="0%" stop-color="#FF69B4"/>
      <stop offset="50%" stop-color="#FF1493"/>
      <stop offset="100%" stop-color="#00CED1"/>
    </radialGradient>
    <radialGradient id="leaf4" cx="50%" cy="50%" r="70%">
      <stop offset="0%" stop-color="#FF6B6B"/>
      <stop offset="50%" stop-color="#32CD32"/>
      <stop offset="100%" stop-color="#9370DB"/>
    </radialGradient>
    <radialGradient id="leaf5" cx="50%" cy="50%" r="70%">
      <stop offset="0%" stop-color="#32CD32"/>
      <stop offset="50%" stop-color="#FF4500"/>
      <stop offset="100%" stop-color="#FFD700"/>
    </radialGradient>
    <radialGradient id="leaf6" cx="50%" cy="50%" r="70%">
      <stop offset="0%" stop-color="#4ECDC4"/>
      <stop offset="50%" stop-color="#96E6A1"/>
      <stop offset="100%" stop-color="#FF1493"/>
    </radialGradient>
    <radialGradient id="leaf7" cx="50%" cy="50%" r="70%">
      <stop offset="0%" stop-color="#9370DB"/>
      <stop offset="50%" stop-color="#DC143C"/>
      <stop offset="100%" stop-color="#FFD700"/>
    </radialGradient>
    <radialGradient id="leaf8" cx="50%" cy="50%" r="70%">
      <stop offset="0%" stop-color="#32CD32"/>
      <stop offset="50%" stop-color="#00CED1"/>
      <stop offset="100%" stop-color="#FFE66D"/>
    </radialGradient>
    <radialGradient id="leaf9" cx="50%" cy="50%" r="70%">
      <stop offset="0%" stop-color="#FF4500"/>
      <stop offset="50%" stop-color="#FF1493"/>
      <stop offset="100%" stop-color="#FF6B6B"/>
    </radialGradient>
    <radialGradient id="leaf10" cx="50%" cy="50%" r="70%">
      <stop offset="0%" stop-color="#FF1493"/>
      <stop offset="50%" stop-color="#00FA9A"/>
      <stop offset="100%" stop-color="#FFE66D"/>
    </radialGradient>
    <radialGradient id="leaf11" cx="50%" cy="50%" r="70%">
      <stop offset="0%" stop-color="#4ECDC4"/>
      <stop offset="50%" stop-color="#FFE66D"/>
      <stop offset="100%" stop-color="#00FA9A"/>
    </radialGradient>
    <radialGradient id="leaf12" cx="50%" cy="50%" r="70%">
      <stop offset="0%" stop-color="#32CD32"/>
      <stop offset="50%" stop-color="#DC143C"/>
      <stop offset="100%" stop-color="#FF4500"/>
    </radialGradient>
    <radialGradient id="leaf13" cx="50%" cy="50%" r="70%">
      <stop offset="0%" stop-color="#FF69B4"/>
      <stop offset="50%" stop-color="#FF6B6B"/>
      <stop offset="100%" stop-color="#32CD32"/>
    </radialGradient>
    <radialGradient id="leaf14" cx="50%" cy="50%" r="70%">
      <stop offset="0%" stop-color="#FF1493"/>
      <stop offset="50%" stop-color="#DC143C"/>
      <stop offset="100%" stop-color="#4ECDC4"/>
    </radialGradient>
    <radialGradient id="leaf15" cx="50%" cy="50%" r="70%">
      <stop offset="0%" stop-color="#DC143C"/>
      <stop offset="50%" stop-color="#FFD700"/>
      <stop offset="100%" stop-color="#00FA9A"/>
    </radialGradient>
    <radialGradient id="leaf16" cx="50%" cy="50%" r="70%">
      <stop offset="0%" stop-color="#FFD700"/>
      <stop offset="50%" stop-color="#FFE66D"/>
      <stop offset="100%" stop-color="#45B7D1"/>
    </radialGradient>
    <radialGradient id="leaf17" cx="50%" cy="50%" r="70%">
      <stop offset="0%" stop-color="#4ECDC4"/>
      <stop offset="50%" stop-color="#9370DB"/>
      <stop offset="100%" stop-color="#00CED1"/>
    </radialGradient>
    <radialGradient id="leaf18" cx="50%" cy="50%" r="70%">
      <stop offset="0%" stop-color="#00CED1"/>
      <stop offset="50%" stop-color="#00FA9A"/>
      <stop offset="100%" stop-color="#9370DB"/>
    </radialGradient>
    <radialGradient id="leaf19" cx="50%" cy="50%" r="70%">
      <stop offset="0%" stop-color="#FF69B4"/>
      <stop offset="50%" stop-color="#9370DB"/>
      <stop offset="100%" stop-color="#45B7D1"/>
    </radialGradient>
  </defs>

  <!-- Background -->
  <rect width="1920" height="1080" fill="url(#bgGrad)"/>
  
  <!-- Leaves with clip-path -->
  <g clip-path="url(#complexClip)">
    <path d="M 1194.258764701645,495.89700810071923 C 1252.134681714616,544.1269389448615 1271.4266540522729,611.6488421266608 1194.258764701645,688.8167314772886 C 1117.0908753510173,611.6488421266608 1136.3828476886742,544.1269389448615 1194.258764701645,495.89700810071923 Z" fill="url(#leaf0)" opacity="0.32" transform="rotate(79.4 1194.3 592.4)"/>
    <path d="M 915.9210753291202,964.9196323226375 C 953.7527136958753,996.4459976282667 966.363259818127,1040.5829090561476 915.9210753291202,1091.0250935451545 C 865.4788908401134,1040.5829090561476 878.0894369623651,996.4459976282667 915.9210753291202,964.9196323226375 Z" fill="url(#leaf1)" opacity="0.36" transform="rotate(15.5 915.9 1028.0)"/>
    <path d="M 778.1406969358804,822.033829540811 C 826.7770119355027,862.5640920404962 842.9891169353768,919.3064595400556 778.1406969358804,984.154879539552 C 713.292276936384,919.3064595400556 729.5043819362581,862.5640920404962 778.1406969358804,822.033829540811 Z" fill="url(#leaf2)" opacity="0.37" transform="rotate(166.6 778.1 903.1)"/>
    <path d="M 574.830294122315,614.3726914027349 C 627.1196677751137,657.9471694467338 644.5494589927133,718.9514387083324 574.830294122315,788.6706035787307 C 505.1111292519166,718.9514387083324 522.5409204695162,657.9471694467338 574.830294122315,614.3726914027349 Z" fill="url(#leaf3)" opacity="0.30" transform="rotate(292.1 574.8 701.5)"/>
    <path d="M 1345.8705602131777,62.43731210170931 C 1378.3366449699968,89.49238273239195 1389.15867322227,127.36948161534765 1345.8705602131777,170.65759462443987 C 1302.5824472040854,127.36948161534765 1313.4044754563586,89.49238273239195 1345.8705602131777,62.43731210170931 Z" fill="url(#leaf4)" opacity="0.24" transform="rotate(203.0 1345.9 116.5)"/>
    <path d="M 419.5302604318346,381.8876398445645 C 476.58738392295066,429.4352427538279 495.60642508665603,496.0018868267966 419.5302604318346,572.0780514816179 C 343.4540957770132,496.0018868267966 362.4731369407186,429.4352427538279 419.5302604318346,381.8876398445645 Z" fill="url(#leaf5)" opacity="0.29" transform="rotate(344.7 419.5 477.0)"/>
    <path d="M 272.2866023603226,7.47854460314889 C 330.83637897927906,56.27002511894595 350.3529711855979,124.57809784106183 272.2866023603226,202.64446666633714 C 194.2202335350473,124.57809784106183 213.73682574136615,56.27002511894595 272.2866023603226,7.47854460314889 Z" fill="url(#leaf6)" opacity="0.24" transform="rotate(229.5 272.3 105.1)"/>
    <path d="M 1446.1175567939417,856.5637309395244 C 1495.0718255785262,897.358954926678 1511.3899151733876,954.4722685086932 1446.1175567939417,1019.7446268881391 C 1380.8451984144958,954.4722685086932 1397.1632880093573,897.358954926678 1446.1175567939417,856.5637309395244 Z" fill="url(#leaf7)" opacity="0.32" transform="rotate(97.0 1446.1 938.2)"/>
    <path d="M 1115.6505916390656,233.54636866858834 C 1169.8456339144327,278.7089038980609 1187.9106480062217,341.93645321932246 1115.6505916390656,414.19650958647856 C 1043.3905352719096,341.93645321932246 1061.4555493636985,278.7089038980609 1115.6505916390656,233.54636866858834 Z" fill="url(#leaf8)" opacity="0.30" transform="rotate(32.6 1115.7 323.9)"/>
    <path d="M 235.54176474403747,33.05969732911332 C 266.7509587910314,59.06735903494161 277.1540234733627,95.47808542310122 235.54176474403747,137.0903441524265 C 193.9295060147122,95.47808542310122 204.3325706970435,59.06735903494161 235.54176474403747,33.05969732911332 Z" fill="url(#leaf9)" opacity="0.37" transform="rotate(136.3 235.5 85.1)"/>
    <path d="M 1444.255663646569,566.622967098664 C 1493.906546224283,607.9987025800922 1510.4568404168542,665.9247322540917 1444.255663646569,732.1259090243768 C 1378.0544868762838,665.9247322540917 1394.6047810688551,607.9987025800922 1444.255663646569,566.622967098664 Z" fill="url(#leaf10)" opacity="0.37" transform="rotate(154.0 1444.3 649.4)"/>
    <path d="M 1241.2966375197207,326.59536353033207 C 1292.5911797502263,369.3408153890867 1309.6893604937281,429.1844479913432 1241.2966375197207,497.57717096535055 C 1172.9039145457132,429.1844479913432 1190.002095289215,369.3408153890867 1241.2966375197207,326.59536353033207 Z" fill="url(#leaf11)" opacity="0.27" transform="rotate(192.0 1241.3 412.1)"/>
    <path d="M 876.7660155609781,329.23556486142985 C 929.8709452473613,373.4896729334159 947.5725884761557,435.44542423419625 876.7660155609781,506.25199714937384 C 805.9594426458004,435.44542423419625 823.6610858745948,373.4896729334159 876.7660155609781,329.23556486142985 Z" fill="url(#leaf12)" opacity="0.22" transform="rotate(13.4 876.8 417.7)"/>
    <path d="M 1287.2494594301377,306.4430180017375 C 1327.764063436414,340.20518800696794 1341.2689314385063,387.47222601429047 1287.2494594301377,441.4916980226591 C 1233.229987421769,387.47222601429047 1246.7348554238613,340.20518800696794 1287.2494594301377,306.4430180017375 Z" fill="url(#leaf13)" opacity="0.32" transform="rotate(355.8 1287.2 374.0)"/>
    <path d="M 871.3841747939935,295.9510518422514 C 916.2947475396604,333.37652913030723 931.2649384548828,385.77219733358544 871.3841747939935,445.65296099447477 C 811.5034111331041,385.77219733358544 826.4736020483265,333.37652913030723 871.3841747939935,295.9510518422514 Z" fill="url(#leaf14)" opacity="0.30" transform="rotate(129.0 871.4 370.8)"/>
    <path d="M 998.5449105423364,262.67238275889827 C 1038.6621672339793,296.10343000193393 1052.0345861311935,342.90689614218377 998.5449105423364,396.3965717310408 C 945.0552349534794,342.90689614218377 958.4276538506937,296.10343000193393 998.5449105423364,262.67238275889827 Z" fill="url(#leaf15)" opacity="0.38" transform="rotate(300.3 998.5 329.5)"/>
    <path d="M 1288.8466417798686,490.79993446279525 C 1337.82288851795,531.6134734111964 1354.1483040973105,588.752427938958 1288.8466417798686,654.0540902564 C 1223.5449794624267,588.752427938958 1239.870395041787,531.6134734111964 1288.8466417798686,490.79993446279525 Z" fill="url(#leaf16)" opacity="0.22" transform="rotate(131.5 1288.8 572.4)"/>
    <path d="M 1268.158682435512,227.539026476609 C 1319.7782142654548,270.55530300156136 1336.9847248754359,330.7780901364947 1268.158682435512,399.60413257641846 C 1199.3326399955881,330.7780901364947 1216.5391506055691,270.55530300156136 1268.158682435512,227.539026476609 Z" fill="url(#leaf17)" opacity="0.28" transform="rotate(208.0 1268.2 313.6)"/>
    <path d="M 1248.271204462075,45.48291394724157 C 1293.2102341961017,82.9321053922639 1308.1899107741108,135.36097341529518 1248.271204462075,195.27967972733092 C 1188.3524981500393,135.36097341529518 1203.3321747280484,82.9321053922639 1248.271204462075,45.48291394724157 Z" fill="url(#leaf18)" opacity="0.38" transform="rotate(13.5 1248.3 120.4)"/>
    <path d="M 1265.7806234812729,672.4367242869484 C 1324.648793753859,721.493532847437 1344.2715171780546,790.173064832121 1265.7806234812729,868.6639585289026 C 1187.289729784491,790.173064832121 1206.9124532086867,721.493532847437 1265.7806234812729,672.4367242869484 Z" fill="url(#leaf19)" opacity="0.29" transform="rotate(16.5 1265.8 770.6)"/>
    <path d="M 359.1410958835532,563.1712458161137 C 399.4021744397911,596.7221446129787 412.82253395853706,643.6934029285895 359.1410958835532,697.3748410035735 C 305.4596578085693,643.6934029285895 318.8800173273153,596.7221446129787 359.1410958835532,563.1712458161137 Z" fill="url(#leaf0)" opacity="0.20" transform="rotate(330.5 359.1 630.3)"/>
    <path d="M 998.0040621647726,129.55649114653247 C 1022.8293798492934,150.24425588363317 1031.1044857441336,179.2071265155742 998.0040621647726,212.30755009493535 C 964.9036385854114,179.2071265155742 973.1787444802517,150.24425588363317 998.0040621647726,129.55649114653247 Z" fill="url(#leaf1)" opacity="0.24" transform="rotate(107.4 998.0 170.9)"/>
    <path d="M 1040.6933864735236,770.1844698713236 C 1095.671058792727,815.9991968039931 1113.996949565795,880.1398145097305 1040.6933864735236,953.4433776020018 C 967.3898233812523,880.1398145097305 985.71571415432,815.9991968039931 1040.6933864735236,770.1844698713236 Z" fill="url(#leaf2)" opacity="0.30" transform="rotate(40.1 1040.7 861.8)"/>
    <path d="M 1668.4644564199853,367.68976101338535 C 1717.4114839837562,408.4789506498612 1733.7271598383466,465.58381614092735 1668.4644564199853,530.8465195592887 C 1603.201753001624,465.58381614092735 1619.5174288562143,408.4789506498612 1668.4644564199853,367.68976101338535 Z" fill="url(#leaf3)" opacity="0.28" transform="rotate(212.3 1668.5 449.3)"/>
    <path d="M 1685.5725429773663,386.21990612425674 C 1732.4047581699726,425.2467521180954 1748.0154965675083,479.8843365094696 1685.5725429773663,542.3272900996114 C 1623.1295893872243,479.8843365094696 1638.74032778476,425.2467521180954 1685.5725429773663,386.21990612425674 Z" fill="url(#leaf4)" opacity="0.24" transform="rotate(41.8 1685.6 464.3)"/>
    <path d="M 1572.9872971830796,90.07674513935125 C 1621.6670737501981,130.64322561195004 1637.8936659392377,187.43629827358833 1572.9872971830796,252.3426670297464 C 1508.0809284269214,187.43629827358833 1524.307520615961,130.64322561195004 1572.9872971830796,90.07674513935125 Z" fill="url(#leaf5)" opacity="0.31" transform="rotate(153.8 1573.0 171.2)"/>
    <path d="M 1212.2781182838196,674.069287721162 C 1243.7710624069082,700.3134078237357 1254.2687104479376,737.055175967339 1212.2781182838196,779.045768131457 C 1170.2875261197016,737.055175967339 1180.785174160731,700.3134078237357 1212.2781182838196,674.069287721162 Z" fill="url(#leaf6)" opacity="0.35" transform="rotate(247.2 1212.3 726.6)"/>
    <path d="M 888.7511443217977,321.3829094835954 C 938.1016353258682,362.50831865365416 954.5517989938917,420.0838914917364 888.7511443217977,485.88454616383035 C 822.9504896497037,420.0838914917364 839.4006533177272,362.50831865365416 888.7511443217977,321.3829094835954 Z" fill="url(#leaf7)" opacity="0.25" transform="rotate(285.1 888.8 403.6)"/>
    <path d="M 746.4122384435608,401.9532144573437 C 800.3904687636561,446.9350730574231 818.3832122036879,509.9096750975344 746.4122384435608,581.8806488576615 C 674.4412646834337,509.9096750975344 692.4340081234654,446.9350730574231 746.4122384435608,401.9532144573437 Z" fill="url(#leaf8)" opacity="0.26" transform="rotate(8.2 746.4 491.9)"/>
    <path d="M 857.4822254039814,29.305230038088183 C 896.4367040754491,61.76729559764462 909.4215302992717,107.21418738102363 857.4822254039814,159.15349227631393 C 805.542920508691,107.21418738102363 818.5277467325136,61.76729559764462 857.4822254039814,29.305230038088183 Z" fill="url(#leaf9)" opacity="0.24" transform="rotate(77.8 857.5 94.2)"/>
    <path d="M 1599.6069717261018,398.2420195971547 C 1633.0436714678972,426.1059360486507 1644.1892380484956,465.11541908074514 1599.6069717261018,509.69768540313873 C 1555.0247054037081,465.11541908074514 1566.1702719843065,426.1059360486507 1599.6069717261018,398.2420195971547 Z" fill="url(#leaf10)" opacity="0.21" transform="rotate(3.8 1599.6 454.0)"/>
    <path d="M 534.0863470966947,885.4434765551384 C 563.6996508772969,910.1212297056403 573.5707521374977,944.6700841163429 534.0863470966947,984.1544891571459 C 494.60194205589164,944.6700841163429 504.4730433160924,910.1212297056403 534.0863470966947,885.4434765551384 Z" fill="url(#leaf11)" opacity="0.37" transform="rotate(94.1 534.1 934.8)"/>
    <path d="M 550.1015352155262,341.6653515229749 C 583.750066434781,369.70579420568737 594.966243507866,408.96241396148474 550.1015352155262,453.82712225382465 C 505.2368269231863,408.96241396148474 516.4530039962713,369.70579420568737 550.1015352155262,341.6653515229749 Z" fill="url(#leaf12)" opacity="0.22" transform="rotate(220.0 550.1 397.7)"/>
    <path d="M 646.7898619385961,-11.611743484030832 C 688.5257208058589,23.168138905354816 702.4376737616132,71.85997425049473 646.7898619385961,127.50778607351177 C 591.1420501155791,71.85997425049473 605.0540030713333,23.168138905354816 646.7898619385961,-11.611743484030832 Z" fill="url(#leaf13)" opacity="0.28" transform="rotate(96.0 646.8 57.9)"/>
    <path d="M 1469.5064680016599,713.7421234376975 C 1495.2027453128978,735.1556878637292 1503.7681710833106,765.1346780601737 1469.5064680016599,799.3963811418243 C 1435.2447649200092,765.1346780601737 1443.810190690422,735.1556878637292 1469.5064680016599,713.7421234376975 Z" fill="url(#leaf14)" opacity="0.28" transform="rotate(162.2 1469.5 756.6)"/>
    <path d="M 159.08781711824378,107.7048724110475 C 217.82937200815417,156.6561681526395 237.40989030479096,225.1879821908683 159.08781711824378,303.5100553774155 C 80.76574393169658,225.1879821908683 100.34626222833339,156.6561681526395 159.08781711824378,107.7048724110475 Z" fill="url(#leaf15)" opacity="0.23" transform="rotate(236.4 159.1 205.6)"/>
    <path d="M 934.8322991279051,940.3659900949756 C 985.7858858340903,982.8273123501299 1002.770414736152,1042.273163507346 934.8322991279051,1110.2112791155928 C 866.8941835196582,1042.273163507346 883.8787124217199,982.8273123501299 934.8322991279051,940.3659900949756 Z" fill="url(#leaf16)" opacity="0.34" transform="rotate(251.8 934.8 1025.3)"/>
    <path d="M 1172.0337821583366,665.9888991885978 C 1224.3630149531862,709.5965931843057 1241.8060925514692,770.6473647782967 1172.0337821583366,840.4196751714294 C 1102.261471765204,770.6473647782967 1119.704549363487,709.5965931843057 1172.0337821583366,665.9888991885978 Z" fill="url(#leaf17)" opacity="0.37" transform="rotate(332.0 1172.0 753.2)"/>
    <path d="M 1034.1823064469827,436.8936138419642 C 1062.4085432312631,460.41547782886454 1071.8172888260233,493.346087410525 1034.1823064469827,530.9810697895655 C 996.5473240679422,493.346087410525 1005.9560696627024,460.41547782886454 1034.1823064469827,436.8936138419642 Z" fill="url(#leaf18)" opacity="0.36" transform="rotate(91.6 1034.2 483.9)"/>
    <path d="M 1485.025767356402,779.8721431922161 C 1539.1537524183243,824.9787974104846 1557.1964141056317,888.1281133160605 1485.025767356402,960.2987600652903 C 1412.8551206071722,888.1281133160605 1430.8977822944796,824.9787974104846 1485.025767356402,779.8721431922161 Z" fill="url(#leaf19)" opacity="0.37" transform="rotate(56.3 1485.0 870.1)"/>
    <path d="M 1265.5640667747869,123.75062301038383 C 1319.4055413155563,168.61851846102502 1337.3526994958127,231.43357209192266 1265.5640667747869,303.2222048129485 C 1193.775434053761,231.43357209192266 1211.7225922340174,168.61851846102502 1265.5640667747869,123.75062301038383 Z" fill="url(#leaf0)" opacity="0.25" transform="rotate(354.1 1265.6 213.5)"/>
    <path d="M 936.1030022721495,261.240315139434 C 985.8987686493282,302.73678712041624 1002.4973574417211,360.8318478937914 936.1030022721495,427.226203063363 C 869.708647102578,360.8318478937914 886.3072358949709,302.73678712041624 936.1030022721495,261.240315139434 Z" fill="url(#leaf1)" opacity="0.36" transform="rotate(292.5 936.1 344.2)"/>
    <path d="M 1613.08541770311,776.8261716563572 C 1672.0192864874825,825.9377289766678 1691.6639094156067,894.6939092251026 1613.08541770311,973.2724009375995 C 1534.5069259906131,894.6939092251026 1554.1515489187373,825.9377289766678 1613.08541770311,776.8261716563572 Z" fill="url(#leaf2)" opacity="0.23" transform="rotate(1.0 1613.1 875.0)"/>
    <path d="M 1520.6602781435427,611.138184914187 C 1566.3534863055527,649.2158583825288 1581.5845556928894,702.5246012382072 1520.6602781435427,763.448878787554 C 1459.736000594196,702.5246012382072 1474.9670699815326,649.2158583825288 1520.6602781435427,611.138184914187 Z" fill="url(#leaf3)" opacity="0.25" transform="rotate(149.3 1520.7 687.3)"/>
    <path d="M 310.9412421836608,711.9723868478136 C 357.22376629323225,750.5411569391232 372.65127432975606,804.5374350669565 310.9412421836608,866.2474672130518 C 249.23121003756555,804.5374350669565 264.65871807408934,750.5411569391232 310.9412421836608,711.9723868478136 Z" fill="url(#leaf4)" opacity="0.21" transform="rotate(309.0 310.9 789.1)"/>
    <path d="M 419.49252435415826,881.485826081978 C 476.17659912226196,928.7225550553977 495.0712907116299,994.8539756181854 419.49252435415826,1070.432741975657 C 343.9137579966866,994.8539756181854 362.80844958605456,928.7225550553977 419.49252435415826,881.485826081978 Z" fill="url(#leaf5)" opacity="0.39" transform="rotate(73.5 419.5 976.0)"/>
    <path d="M 1434.2805804948007,51.13836721298199 C 1493.8689239933703,100.79532012845668 1513.73170515956,170.31505421012125 1434.2805804948007,249.76617887488075 C 1354.8294558300413,170.31505421012125 1374.692236996231,100.79532012845668 1434.2805804948007,51.13836721298199 Z" fill="url(#leaf6)" opacity="0.29" transform="rotate(265.1 1434.3 150.5)"/>
    <path d="M 612.1076654097011,281.5647421235976 C 656.0219046335683,318.15994147682034 670.6599843748575,369.3932205713321 612.1076654097011,427.94553953648847 C 553.5553464445447,369.3932205713321 568.1934261858339,318.15994147682034 612.1076654097011,281.5647421235976 Z" fill="url(#leaf7)" opacity="0.27" transform="rotate(335.4 612.1 354.8)"/>
    <path d="M 821.7282116037982,831.8066785187265 C 865.7044567661544,868.4535494873567 880.3632051536065,919.7591688434389 821.7282116037982,978.3941623932473 C 763.0932180539899,919.7591688434389 777.7519664414419,868.4535494873567 821.7282116037982,831.8066785187265 Z" fill="url(#leaf8)" opacity="0.32" transform="rotate(156.1 821.7 905.1)"/>
    <path d="M 661.8915413612721,704.3795493745669 C 697.9386494825449,734.4188061422942 709.9543521896358,776.4737656171125 661.8915413612721,824.5365764454763 C 613.8287305329084,776.4737656171125 625.8444332399993,734.4188061422942 661.8915413612721,704.3795493745669 Z" fill="url(#leaf9)" opacity="0.36" transform="rotate(339.2 661.9 764.5)"/>
    <path d="M 1467.2390267930348,56.05829080406231 C 1508.00214946545,90.02755969774164 1521.5898570229217,137.5845361488927 1467.2390267930348,191.93536637877963 C 1412.8881965631479,137.5845361488927 1426.4759041206196,90.02755969774164 1467.2390267930348,56.05829080406231 Z" fill="url(#leaf10)" opacity="0.37" transform="rotate(182.5 1467.2 124.0)"/>
    <path d="M 919.7703914782974,718.3238549637076 C 960.6756365743097,752.4115592103846 974.3107182729805,800.1343451557323 919.7703914782974,854.6746719504154 C 865.2300646836143,800.1343451557323 878.865146382285,752.4115592103846 919.7703914782974,718.3238549637076 Z" fill="url(#leaf11)" opacity="0.37" transform="rotate(165.1 919.8 786.5)"/>
    <path d="M 1773.8934735490454,887.1287789801122 C 1798.9199425139143,907.9841697841696 1807.2620988355372,937.1817169098499 1773.8934735490454,970.5503421963417 C 1740.5248482625536,937.1817169098499 1748.8670045841766,907.9841697841696 1773.8934735490454,887.1287789801122 Z" fill="url(#leaf12)" opacity="0.25" transform="rotate(30.0 1773.9 928.8)"/>
    <path d="M 1023.1715117162685,354.8898536897811 C 1050.1417037770361,377.3650137404208 1059.131767797292,408.8302378113164 1023.1715117162685,444.79049389233995 C 987.2112556352449,408.8302378113164 996.2013196555008,377.3650137404208 1023.1715117162685,354.8898536897811 Z" fill="url(#leaf13)" opacity="0.24" transform="rotate(309.2 1023.2 399.8)"/>
    <path d="M 1014.4651250199789,499.5831332078481 C 1055.899703357158,534.1119484888306 1069.711229469551,582.4522898822062 1014.4651250199789,637.6983943317782 C 959.2190205704069,582.4522898822062 973.0305466827999,534.1119484888306 1014.4651250199789,499.5831332078481 Z" fill="url(#leaf14)" opacity="0.30" transform="rotate(230.8 1014.5 568.6)"/>
    <path d="M 695.0417586093995,782.61898246633 C 738.7983968226544,819.0828476440423 753.3839428937393,870.1322588928397 695.0417586093995,928.4744431771794 C 636.6995743250596,870.1322588928397 651.2851203961446,819.0828476440423 695.0417586093995,782.61898246633 Z" fill="url(#leaf15)" opacity="0.39" transform="rotate(98.4 695.0 855.5)"/>
    <path d="M 1853.173902688079,96.9395321788873 C 1892.0587497090905,129.34357136306363 1905.020365382761,174.7092262209105 1853.173902688079,226.5556889155926 C 1801.3274399933969,174.7092262209105 1814.2890556670673,129.34357136306363 1853.173902688079,96.9395321788873 Z" fill="url(#leaf16)" opacity="0.21" transform="rotate(334.6 1853.2 161.7)"/>
    <path d="M 1541.5560716358325,294.4471949296832 C 1568.7672269203292,317.12315766676386 1577.8376120151615,348.8695054986768 1541.5560716358325,385.1510458780059 C 1505.2745312565035,348.8695054986768 1514.3449163513358,317.12315766676386 1541.5560716358325,294.4471949296832 Z" fill="url(#leaf17)" opacity="0.21" transform="rotate(340.9 1541.6 339.8)"/>
    <path d="M 1392.7637599488291,700.2974225879849 C 1421.9884349602034,724.6513184307968 1431.729993297328,758.7467726107334 1392.7637599488291,797.7130059592324 C 1353.7975266003302,758.7467726107334 1363.5390849374548,724.6513184307968 1392.7637599488291,700.2974225879849 Z" fill="url(#leaf18)" opacity="0.32" transform="rotate(250.4 1392.8 749.0)"/>
    <path d="M 895.8563105092029,323.09444400923655 C 951.3030781397082,369.3000837013243 969.7853340165432,433.9879792702471 895.8563105092029,507.9170027775874 C 821.9272870018626,433.9879792702471 840.4095428786976,369.3000837013243 895.8563105092029,323.09444400923655 Z" fill="url(#leaf19)" opacity="0.28" transform="rotate(300.1 895.9 415.5)"/>
    <path d="M 1368.6591619844721,905.8881528186596 C 1403.521714160429,934.940279631957 1415.142564885748,975.6132571705733 1368.6591619844721,1022.0966600718491 C 1322.1757590831962,975.6132571705733 1333.7966098085153,934.940279631957 1368.6591619844721,905.8881528186596 Z" fill="url(#leaf0)" opacity="0.20" transform="rotate(119.8 1368.7 964.0)"/>
    <path d="M 1577.964492485957,455.4777498401211 C 1621.1151603353555,491.4366397146199 1635.498716285155,541.7790855389183 1577.964492485957,599.3133093381164 C 1520.4302686867588,541.7790855389183 1534.8138246365584,491.4366397146199 1577.964492485957,455.4777498401211 Z" fill="url(#leaf1)" opacity="0.29" transform="rotate(102.4 1578.0 527.4)"/>
    <path d="M 1068.0678549271165,13.627617555155929 C 1103.0891520081368,42.81203178933946 1114.7629177018102,83.67021171719641 1068.0678549271165,130.36527449189006 C 1021.3727921524229,83.67021171719641 1033.0465578460962,42.81203178933946 1068.0678549271165,13.627617555155929 Z" fill="url(#leaf2)" opacity="0.39" transform="rotate(54.9 1068.1 72.0)"/>
    <path d="M 1392.9412319035373,231.62098366661988 C 1432.6560111311776,264.7166330229867 1445.8942708737243,311.05054212190026 1392.9412319035373,364.0035810920872 C 1339.9881929333503,311.05054212190026 1353.226452675897,264.7166330229867 1392.9412319035373,231.62098366661988 Z" fill="url(#leaf3)" opacity="0.21" transform="rotate(23.4 1392.9 297.8)"/>
    <path d="M 1037.6405603122198,29.37327913644289 C 1092.7960509275083,75.33618798251666 1111.1812144659377,139.68426036701993 1037.6405603122198,213.22491452073797 C 964.0999061585018,139.68426036701993 982.4850696969313,75.33618798251666 1037.6405603122198,29.37327913644289 Z" fill="url(#leaf4)" opacity="0.21" transform="rotate(92.5 1037.6 121.3)"/>
    <path d="M 1620.8524808591512,775.2874190738619 C 1678.82580916193,823.5985259928442 1698.1502519295232,891.2340756794196 1620.8524808591512,968.5318467497914 C 1543.5547097887793,891.2340756794196 1562.8791525563724,823.5985259928442 1620.8524808591512,775.2874190738619 Z" fill="url(#leaf5)" opacity="0.32" transform="rotate(146.3 1620.9 871.9)"/>
    <path d="M 813.3826549649443,881.5176980975149 C 839.172416810427,903.0091663020838 847.7690040922545,933.0972217884802 813.3826549649443,967.4835709157904 C 778.9963058376342,933.0972217884802 787.5928931194617,903.0091663020838 813.3826549649443,881.5176980975149 Z" fill="url(#leaf6)" opacity="0.25" transform="rotate(142.5 813.4 924.5)"/>
    <path d="M 849.9289533649876,74.56131120209892 C 889.8605376376487,107.8376314293165 903.1710657285357,154.42447974742112 849.9289533649876,207.66659211096925 C 796.6868410014395,154.42447974742112 809.9973690923265,107.8376314293165 849.9289533649876,74.56131120209892 Z" fill="url(#leaf7)" opacity="0.40" transform="rotate(239.5 849.9 141.1)"/>
    <path d="M 1049.6696359777065,877.3036120196509 C 1082.228035965921,904.4356120098296 1093.0808359619923,942.4204119960797 1049.6696359777065,985.8316119803656 C 1006.2584359934207,942.4204119960797 1017.1112359894921,904.4356120098296 1049.6696359777065,877.3036120196509 Z" fill="url(#leaf8)" opacity="0.33" transform="rotate(179.2 1049.7 931.6)"/>
    <path d="M 1515.9206302967123,924.0181683170968 C 1547.0944990110154,949.9963922456826 1557.4857885824497,986.3659057457028 1515.9206302967123,1027.9310640314402 C 1474.3554720109748,986.3659057457028 1484.7467615824091,949.9963922456826 1515.9206302967123,924.0181683170968 Z" fill="url(#leaf9)" opacity="0.36" transform="rotate(42.3 1515.9 976.0)"/>
    <path d="M 267.56712596919743,427.1416905445915 C 298.96537699066994,453.30689972915195 309.4314606644941,489.93819258753655 267.56712596919743,531.8025272828332 C 225.70279127390074,489.93819258753655 236.1688749477249,453.30689972915195 267.56712596919743,427.1416905445915 Z" fill="url(#leaf10)" opacity="0.24" transform="rotate(349.8 267.6 479.5)"/>
    <path d="M 1190.2426844192016,28.87036294963218 C 1231.3240867771417,63.10486491458229 1245.0178875631218,111.03316766551245 1190.2426844192016,165.80837080943263 C 1135.4674812752814,111.03316766551245 1149.1612820612615,63.10486491458229 1190.2426844192016,28.87036294963218 Z" fill="url(#leaf11)" opacity="0.33" transform="rotate(150.2 1190.2 97.3)"/>
    <path d="M 1354.6113569614868,7.5025817561960935 C 1414.5073678046833,57.415924125526544 1434.4727047524154,127.29460344258918 1354.6113569614868,207.1559512335179 C 1274.750009170558,127.29460344258918 1294.7153461182902,57.415924125526544 1354.6113569614868,7.5025817561960935 Z" fill="url(#leaf12)" opacity="0.29" transform="rotate(176.3 1354.6 107.3)"/>
    <path d="M 1281.6242777032635,427.3725983739247 C 1320.5256674775771,459.79042318585266 1333.4927974023483,505.17537792255183 1281.6242777032635,557.0438976216366 C 1229.7557580041787,505.17537792255183 1242.7228879289498,459.79042318585266 1281.6242777032635,427.3725983739247 Z" fill="url(#leaf13)" opacity="0.37" transform="rotate(66.5 1281.6 492.2)"/>
    <path d="M 734.1836229249394,938.6910769555097 C 785.2157537507514,981.2178526436865 802.2264640260221,1040.7553386071338 734.1836229249394,1108.7981797082166 C 666.1407818238567,1040.7553386071338 683.1514920991274,981.2178526436865 734.1836229249394,938.6910769555097 Z" fill="url(#leaf14)" opacity="0.24" transform="rotate(325.9 734.2 1023.7)"/>
    <path d="M 94.4101458535158,650.050785430597 C 148.17391397956914,694.8539255356415 166.0951700215869,757.5783216827037 94.4101458535158,829.2633458507748 C 22.725121685444705,757.5783216827037 40.64637772746248,694.8539255356415 94.4101458535158,650.050785430597 Z" fill="url(#leaf15)" opacity="0.23" transform="rotate(120.5 94.4 739.7)"/>
    <path d="M 1234.423145872576,155.67188822394067 C 1287.4759499517122,199.88255828988753 1305.160217978091,261.77749638221314 1234.423145872576,332.5145684877282 C 1163.686073767061,261.77749638221314 1181.3703417934398,199.88255828988753 1234.423145872576,155.67188822394067 Z" fill="url(#leaf16)" opacity="0.21" transform="rotate(6.7 1234.4 244.1)"/>
    <path d="M 1506.6196195592277,41.04716391964071 C 1534.507253170533,64.28685859572852 1543.803131040968,96.82243114225146 1506.6196195592277,134.00594262399198 C 1469.4361080774872,96.82243114225146 1478.7319859479223,64.28685859572852 1506.6196195592277,41.04716391964071 Z" fill="url(#leaf17)" opacity="0.20" transform="rotate(110.2 1506.6 87.5)"/>
    <path d="M 393.61064553054445,441.46257963343794 C 449.8523592653025,488.33067441240297 468.5995971768885,553.946007102954 393.61064553054445,628.9349587492981 C 318.6216938842004,553.946007102954 337.3689317957864,488.33067441240297 393.61064553054445,441.46257963343794 Z" fill="url(#leaf18)" opacity="0.24" transform="rotate(96.8 393.6 535.2)"/>
    <path d="M 1063.1284919652744,763.3545300339495 C 1102.0408385309022,795.7814855053058 1115.0116207194446,841.1792231652048 1063.1284919652744,893.062351919375 C 1011.2453632111042,841.1792231652048 1024.2161453996466,795.7814855053058 1063.1284919652744,763.3545300339495 Z" fill="url(#leaf19)" opacity="0.39" transform="rotate(334.3 1063.1 828.2)"/>
    <path d="M 1072.7305802788883,429.4023566496476 C 1127.5644777543316,475.09727121251694 1145.8424435794793,539.070151600534 1072.7305802788883,612.1820149011251 C 999.6187169782972,539.070151600534 1017.8966828034451,475.09727121251694 1072.7305802788883,429.4023566496476 Z" fill="url(#leaf0)" opacity="0.27" transform="rotate(146.4 1072.7 520.8)"/>
    <path d="M 187.70483671432487,796.6310388534135 C 219.50696998482343,823.1328165788291 230.1076810749896,860.2353053944107 187.70483671432487,902.6381497550755 C 145.30199235366013,860.2353053944107 155.9027034438263,823.1328165788291 187.70483671432487,796.6310388534135 Z" fill="url(#leaf1)" opacity="0.21" transform="rotate(184.3 187.7 849.6)"/>
    <path d="M 1031.2448681819446,609.1469855211142 C 1080.2530444613606,649.9871324206274 1096.5891032211657,707.1633380799459 1031.2448681819446,772.5075731191671 C 965.9006331427234,707.1633380799459 982.2366919025288,649.9871324206274 1031.2448681819446,609.1469855211142 Z" fill="url(#leaf2)" opacity="0.40" transform="rotate(19.4 1031.2 690.8)"/>
    <path d="M 793.5877261984726,51.899433135596716 C 825.6608596767913,78.62704436752897 836.3519041695642,116.04570009223411 793.5877261984726,158.8098780633257 C 750.823548227381,116.04570009223411 761.5145927201539,78.62704436752897 793.5877261984726,51.899433135596716 Z" fill="url(#leaf3)" opacity="0.20" transform="rotate(101.3 793.6 105.4)"/>
    <path d="M 1814.493058285749,357.94824838059327 C 1840.0206449662237,379.2212372809889 1848.5298405263818,409.00342174154264 1814.493058285749,443.04020398217557 C 1780.456276045116,409.00342174154264 1788.9654716052742,379.2212372809889 1814.493058285749,357.94824838059327 Z" fill="url(#leaf4)" opacity="0.32" transform="rotate(157.9 1814.5 400.5)"/>
    <path d="M 1681.9737811250154,601.8328427488152 C 1734.4280253500317,645.5447129363289 1751.9127734250371,706.7413311988479 1681.9737811250154,776.6803234988697 C 1612.0347888249937,706.7413311988479 1629.5195368999991,645.5447129363289 1681.9737811250154,601.8328427488152 Z" fill="url(#leaf5)" opacity="0.34" transform="rotate(183.3 1682.0 689.3)"/>
    <path d="M 1396.6292649738436,897.1107526468127 C 1449.0405491998774,940.7868228351742 1466.510977275222,1001.9333210988805 1396.6292649738436,1071.815033400259 C 1326.7475526724652,1001.9333210988805 1344.2179807478099,940.7868228351742 1396.6292649738436,897.1107526468127 Z" fill="url(#leaf6)" opacity="0.33" transform="rotate(123.9 1396.6 984.5)"/>
    <path d="M 123.21905906837041,296.13660285500384 C 161.09136841827444,327.6968606465905 173.7154715349091,371.8812215548119 123.21905906837041,422.37763402135056 C 72.72264660183173,371.8812215548119 85.3467497184664,327.6968606465905 123.21905906837041,296.13660285500384 Z" fill="url(#leaf7)" opacity="0.38" transform="rotate(254.3 123.2 359.3)"/>
    <path d="M 1113.8324310284702,303.6820630792961 C 1173.5066255086938,353.41055847948246 1193.3980236687682,423.0304520397433 1113.8324310284702,502.5960446800415 C 1034.2668383881721,423.0304520397433 1054.1582365482466,353.41055847948246 1113.8324310284702,303.6820630792961 Z" fill="url(#leaf8)" opacity="0.34" transform="rotate(325.7 1113.8 403.1)"/>
    <path d="M 492.50094041158053,653.2566318694342 C 534.2040654130204,688.0092360373009 548.1051070801672,736.6628818723141 492.50094041158053,792.2670485409008 C 436.8967737429939,736.6628818723141 450.7978154101406,688.0092360373009 492.50094041158053,653.2566318694342 Z" fill="url(#leaf9)" opacity="0.27" transform="rotate(74.5 492.5 722.8)"/>
    <path d="M 501.04258469412673,779.5697775219885 C 526.9865936935747,801.1897850215286 535.6345966933907,831.4577955208845 501.04258469412673,866.0498075201485 C 466.4505726948628,831.4577955208845 475.09857569467874,801.1897850215286 501.04258469412673,779.5697775219885 Z" fill="url(#leaf10)" opacity="0.30" transform="rotate(157.0 501.0 822.8)"/>
    <path d="M 50.14277860925999,42.365615551859705 C 74.97265369239184,63.05717812113625 83.24927872010247,92.02536571812342 50.14277860925999,125.1318658289659 C 17.03627849841751,92.02536571812342 25.312903526128135,63.05717812113625 50.14277860925999,42.365615551859705 Z" fill="url(#leaf11)" opacity="0.23" transform="rotate(319.7 50.1 83.7)"/>
    <path d="M 598.6624164295116,447.0907367066929 C 649.5767014980131,489.5193075971108 666.5481298541802,548.9193068436958 598.6624164295116,616.8050202683644 C 530.7767030048431,548.9193068436958 547.7481313610101,489.5193075971108 598.6624164295116,447.0907367066929 Z" fill="url(#leaf12)" opacity="0.26" transform="rotate(257.8 598.7 531.9)"/>
    <path d="M 1231.4005795447865,57.33708294914125 C 1272.8431335772589,91.87254464286826 1286.6573182547497,140.2221910140861 1231.4005795447865,195.47892972404935 C 1176.1438408348233,140.2221910140861 1189.9580255123142,91.87254464286826 1231.4005795447865,57.33708294914125 Z" fill="url(#leaf13)" opacity="0.38" transform="rotate(261.4 1231.4 126.4)"/>
    <path d="M 1678.1932002245544,-29.11296114648806 C 1726.2789611527871,10.958506293705938 1742.3075481288647,67.05856070997754 1678.1932002245544,131.17290861428793 C 1614.078852320244,67.05856070997754 1630.1074392963217,10.958506293705938 1678.1932002245544,-29.11296114648806 Z" fill="url(#leaf14)" opacity="0.27" transform="rotate(304.0 1678.2 51.0)"/>
    <path d="M 156.51737770212998,515.6701755453792 C 190.23911367962532,543.7716221932919 201.47969233879041,583.1136475003698 156.51737770212998,628.0759621370303 C 111.55506306546953,583.1136475003698 122.79564172463463,543.7716221932919 156.51737770212998,515.6701755453792 Z" fill="url(#leaf15)" opacity="0.23" transform="rotate(147.0 156.5 571.9)"/>
    <path d="M 1801.8639016851257,320.11175904800956 C 1829.8562242633118,343.4386945298313 1839.1869984560406,376.0964042043817 1801.8639016851257,413.41950097529644 C 1764.5408049142109,376.0964042043817 1773.8715791069396,343.4386945298313 1801.8639016851257,320.11175904800956 Z" fill="url(#leaf16)" opacity="0.36" transform="rotate(286.2 1801.9 366.8)"/>
    <path d="M 840.9085942183027,754.4502210022193 C 900.296261314703,803.9399435825529 920.0921503468363,873.2255551950199 840.9085942183027,952.4091113235535 C 761.7250380897691,873.2255551950199 781.5209271219024,803.9399435825529 840.9085942183027,754.4502210022193 Z" fill="url(#leaf17)" opacity="0.32" transform="rotate(31.3 840.9 853.4)"/>
    <path d="M 1199.5563437104831,439.9954728413244 C 1246.1601833464526,478.83200587129903 1261.6947965584427,533.2031521132635 1199.5563437104831,595.341604961223 C 1137.4178908625236,533.2031521132635 1152.9525040745136,478.83200587129903 1199.5563437104831,439.9954728413244 Z" fill="url(#leaf18)" opacity="0.21" transform="rotate(205.2 1199.6 517.7)"/>
    <path d="M 1458.6018506485132,631.8211627715935 C 1505.3623403065894,670.788237486657 1520.9491701926147,725.3421420877459 1458.6018506485132,787.6894616318474 C 1396.2545311044116,725.3421420877459 1411.841360990437,670.788237486657 1458.6018506485132,631.8211627715935 Z" fill="url(#leaf19)" opacity="0.30" transform="rotate(276.7 1458.6 709.8)"/>
    <path d="M 1068.2630500695923,703.8495968290213 C 1108.8819992649255,737.6987211584658 1122.4216489967034,785.087495219688 1068.2630500695923,839.2460941467991 C 1014.1044511424811,785.087495219688 1027.644100874259,737.6987211584658 1068.2630500695923,703.8495968290213 Z" fill="url(#leaf0)" opacity="0.36" transform="rotate(36.3 1068.3 771.5)"/>
    <path d="M 718.9798697073556,679.505072174648 C 766.2251192599198,718.8761134684514 781.9735357774412,773.9955712797763 718.9798697073556,836.9892373498618 C 655.9862036372701,773.9955712797763 671.7346201547915,718.8761134684514 718.9798697073556,679.505072174648 Z" fill="url(#leaf1)" opacity="0.27" transform="rotate(177.5 719.0 758.2)"/>
    <path d="M 782.3936764928651,142.06629205767385 C 831.9881621483211,183.39503010388717 848.5196573668064,241.2552633685858 782.3936764928651,307.38124424252703 C 716.2676956189238,241.2552633685858 732.7991908374091,183.39503010388717 782.3936764928651,142.06629205767385 Z" fill="url(#leaf2)" opacity="0.33" transform="rotate(318.6 782.4 224.7)"/>
    <path d="M 886.5973466061603,849.8036881859869 C 934.362764990809,889.6082035065274 950.2845711190253,945.3345249552842 886.5973466061603,1009.0217494681492 C 822.9101220932953,945.3345249552842 838.8319282215116,889.6082035065274 886.5973466061603,849.8036881859869 Z" fill="url(#leaf3)" opacity="0.22" transform="rotate(339.6 886.6 929.4)"/>
    <path d="M 740.9783866613295,696.1073845457943 C 769.1498269825456,719.5835848134744 778.5403070896176,752.4502651882265 740.9783866613295,790.0121856165147 C 703.4164662330414,752.4502651882265 712.8069463401134,719.5835848134744 740.9783866613295,696.1073845457943 Z" fill="url(#leaf4)" opacity="0.39" transform="rotate(187.3 741.0 743.1)"/>
    <path d="M 1411.4799195073572,484.83958166095454 C 1467.9642809721809,531.909882881641 1486.7924014604555,597.8083045906019 1411.4799195073572,673.1207865437002 C 1336.1674375542589,597.8083045906019 1354.9955580425335,531.909882881641 1411.4799195073572,484.83958166095454 Z" fill="url(#leaf5)" opacity="0.34" transform="rotate(235.8 1411.5 579.0)"/>
    <path d="M 343.4951364724485,661.70182553654 C 382.47138717058726,694.1820344516556 395.46347073663355,739.6543269328175 343.4951364724485,791.6226611970025 C 291.52680220826346,739.6543269328175 304.51888577430975,694.1820344516556 343.4951364724485,661.70182553654 Z" fill="url(#leaf6)" opacity="0.26" transform="rotate(150.9 343.5 726.7)"/>
    <path d="M 1830.3581239897378,195.07966831877576 C 1868.9923815122547,227.2748829208731 1881.8704673530935,272.34818336380937 1830.3581239897378,323.8605267271651 C 1778.845780626382,272.34818336380937 1791.723866467221,227.2748829208731 1830.3581239897378,195.07966831877576 Z" fill="url(#leaf7)" opacity="0.38" transform="rotate(65.1 1830.4 259.5)"/>
    <path d="M 1054.516006793915,516.0687537927256 C 1109.069585284895,561.5300692018757 1127.2541114485552,625.1759107746858 1054.516006793915,697.9140154293259 C 981.7779021392749,625.1759107746858 999.962428302935,561.5300692018757 1054.516006793915,516.0687537927256 Z" fill="url(#leaf8)" opacity="0.24" transform="rotate(22.3 1054.5 607.0)"/>
    <path d="M 94.7885055973492,548.0951028887334 C 146.8556493904374,591.4843893829736 164.21136398813348,652.2293904749099 94.7885055973492,721.6522488656942 C 25.36564720656493,652.2293904749099 42.721361804261,591.4843893829736 94.7885055973492,548.0951028887334 Z" fill="url(#leaf9)" opacity="0.22" transform="rotate(144.5 94.8 634.9)"/>
    <path d="M 644.8921567898273,481.5318104291863 C 682.9486743444872,513.2455750580696 695.6341801960406,557.6448455385063 644.8921567898273,608.3868689447196 C 594.1501333836139,557.6448455385063 606.8356392351673,513.2455750580696 644.8921567898273,481.5318104291863 Z" fill="url(#leaf10)" opacity="0.39" transform="rotate(88.8 644.9 545.0)"/>
    <path d="M 1836.653665108291,728.5836353981059 C 1886.2853233057208,769.9433505626307 1902.8292093715306,827.8469517929653 1836.653665108291,894.0224960562049 C 1770.4781208450515,827.8469517929653 1787.0220069108614,769.9433505626307 1836.653665108291,728.5836353981059 Z" fill="url(#leaf11)" opacity="0.26" transform="rotate(207.1 1836.7 811.3)"/>
    <path d="M 109.48661513012519,700.3846672081418 C 143.9509617330923,729.1049560439476 155.43907726741466,769.3133604140759 109.48661513012519,815.2658225513653 C 63.534152992835715,769.3133604140759 75.02226852715809,729.1049560439476 109.48661513012519,700.3846672081418 Z" fill="url(#leaf12)" opacity="0.36" transform="rotate(215.6 109.5 757.8)"/>
    <path d="M 605.0130727144035,40.988843974175424 C 633.6832808606981,64.88068409608755 643.240016909463,98.32926026676454 605.0130727144035,136.55620446182394 C 566.7861285193441,98.32926026676454 576.3428645681089,64.88068409608755 605.0130727144035,40.988843974175424 Z" fill="url(#leaf13)" opacity="0.35" transform="rotate(39.6 605.0 88.8)"/>
    <path d="M 113.94943073082518,835.0441952062868 C 172.33071053077066,883.6952617062412 191.7911371307525,951.8067548061777 113.94943073082518,1029.648461206105 C 36.10772433089787,951.8067548061777 55.56815093087971,883.6952617062412 113.94943073082518,835.0441952062868 Z" fill="url(#leaf14)" opacity="0.28" transform="rotate(104.1 113.9 932.3)"/>
    <path d="M 462.5386726108725,685.2625800443949 C 496.10964211858317,713.2383879674871 507.2999652878201,752.4045190598163 462.5386726108725,797.1658117367639 C 417.77737993392486,752.4045190598163 428.9677031031618,713.2383879674871 462.5386726108725,685.2625800443949 Z" fill="url(#leaf15)" opacity="0.30" transform="rotate(133.6 462.5 741.2)"/>
    <path d="M 648.6595394746422,803.0734342777533 C 680.5373006907415,829.6382352911694 691.163221096108,866.828956709952 648.6595394746422,909.3326383314178 C 606.1558578531764,866.828956709952 616.7817782585429,829.6382352911694 648.6595394746422,803.0734342777533 Z" fill="url(#leaf16)" opacity="0.36" transform="rotate(310.5 648.7 856.2)"/>
    <path d="M 1509.6408966376614,329.55208217225334 C 1539.6504551936089,354.56004763554296 1549.6536413789247,389.5711992841484 1509.6408966376614,429.5839440254118 C 1469.628151896398,389.5711992841484 1479.631338081714,354.56004763554296 1509.6408966376614,329.55208217225334 Z" fill="url(#leaf17)" opacity="0.23" transform="rotate(41.2 1509.6 379.6)"/>
    <path d="M 87.90462620953345,955.718240344871 C 125.31127407219739,986.890446897091 137.78015669308536,1030.5315360701989 87.90462620953345,1080.4070665537508 C 38.02909572598152,1030.5315360701989 50.49797834686951,986.890446897091 87.90462620953345,955.718240344871 Z" fill="url(#leaf18)" opacity="0.36" transform="rotate(98.0 87.9 1018.1)"/>
    <path d="M 1408.7064039262864,231.42599644023548 C 1466.563713588864,279.6404211590502 1485.8494834763899,347.1406157653908 1408.7064039262864,424.28369531549436 C 1331.563324376183,347.1406157653908 1350.8490942637088,279.6404211590502 1408.7064039262864,231.42599644023548 Z" fill="url(#leaf19)" opacity="0.36" transform="rotate(280.1 1408.7 327.9)"/>
    <path d="M 713.4451558097514,96.11789001474128 C 766.9074674708961,140.66981639902855 784.7282380246111,203.0425133370307 713.4451558097514,274.3255955518903 C 642.1620735948918,203.0425133370307 659.9828441486068,140.66981639902855 713.4451558097514,96.11789001474128 Z" fill="url(#leaf0)" opacity="0.20" transform="rotate(232.2 713.4 185.2)"/>
    <path d="M 1530.473492591806,894.1641430387646 C 1570.837824545283,927.8010863333287 1584.2926018631085,974.8928069457185 1530.473492591806,1028.7119162170209 C 1476.6543833205035,974.8928069457185 1490.109160638329,927.8010863333287 1530.473492591806,894.1641430387646 Z" fill="url(#leaf1)" opacity="0.36" transform="rotate(160.9 1530.5 961.4)"/>
    <path d="M 1737.9249232474538,76.16423510043575 C 1762.2858320906726,96.46499246978469 1770.406135038412,124.8860527868732 1737.9249232474538,157.3672645778315 C 1705.4437114564955,124.8860527868732 1713.564014404235,96.46499246978469 1737.9249232474538,76.16423510043575 Z" fill="url(#leaf2)" opacity="0.23" transform="rotate(232.7 1737.9 116.8)"/>
    <path d="M 1490.4795737395198,637.9775146169648 C 1546.425081715322,684.5987712634667 1565.0735843739228,749.8685305685692 1490.4795737395198,824.4625412029723 C 1415.8855631051167,749.8685305685692 1434.5340657637175,684.5987712634667 1490.4795737395198,637.9775146169648 Z" fill="url(#leaf3)" opacity="0.23" transform="rotate(199.8 1490.5 731.2)"/>
    <path d="M 389.81489332970284,964.2296008408434 C 419.80484427426063,989.2212266279748 429.8014945891132,1024.209502729959 389.81489332970284,1064.1961039893692 C 349.8282920702925,1024.209502729959 359.82494238514505,989.2212266279748 389.81489332970284,964.2296008408434 Z" fill="url(#leaf4)" opacity="0.30" transform="rotate(187.9 389.8 1014.2)"/>
    <path d="M 1533.9982180034744,64.97081677109598 C 1567.5093058672778,92.89672332426548 1578.6796684885458,131.9929924987028 1533.9982180034744,176.674442983774 C 1489.3167675184031,131.9929924987028 1500.487130139671,92.89672332426548 1533.9982180034744,64.97081677109598 Z" fill="url(#leaf5)" opacity="0.36" transform="rotate(10.5 1534.0 120.8)"/>
    <path d="M 1488.684347153542,961.2725913143322 C 1521.9082759830628,988.9591986722664 1532.9829189262366,1027.7204489733742 1488.684347153542,1072.019020746069 C 1444.3857753808472,1027.7204489733742 1455.460418324021,988.9591986722664 1488.684347153542,961.2725913143322 Z" fill="url(#leaf6)" opacity="0.32" transform="rotate(107.5 1488.7 1016.6)"/>
    <path d="M 1455.4809942492175,425.1949472891133 C 1493.3293887544216,456.73527604345 1505.9455202561562,500.8917362995215 1455.4809942492175,551.3562623064603 C 1405.0164682422787,500.8917362995215 1417.6325997440133,456.73527604345 1455.4809942492175,425.1949472891133 Z" fill="url(#leaf7)" opacity="0.26" transform="rotate(61.0 1455.5 488.3)"/>
    <path d="M 1204.0034468006618,782.4365410797029 C 1246.0866334389514,817.5058632782775 1260.1143623183812,866.6029143562819 1204.0034468006618,922.7138298740012 C 1147.8925312829424,866.6029143562819 1161.9202601623722,817.5058632782775 1204.0034468006618,782.4365410797029 Z" fill="url(#leaf8)" opacity="0.31" transform="rotate(42.3 1204.0 852.6)"/>
    <path d="M 1176.6360766417456,521.5026438576533 C 1205.744958863804,545.7600457093686 1215.44791960449,579.7204083017699 1176.6360766417456,618.5322512645143 C 1137.8242336790013,579.7204083017699 1147.5271944196872,545.7600457093686 1176.6360766417456,521.5026438576533 Z" fill="url(#leaf9)" opacity="0.30" transform="rotate(238.1 1176.6 570.0)"/>
    <path d="M 354.1563148220187,359.75631952031836 C 379.2038026998594,380.62922608518556 387.55296532580627,409.85129527599975 354.1563148220187,443.2479457797873 C 320.75966431823116,409.85129527599975 329.108826944178,380.62922608518556 354.1563148220187,359.75631952031836 Z" fill="url(#leaf10)" opacity="0.39" transform="rotate(107.8 354.2 401.5)"/>
    <path d="M 328.39313058412995,155.88979415879282 C 355.03837570637234,178.0941650939948 363.9201240804531,209.18028440327757 328.39313058412995,244.70727789960074 C 292.8661370878068,209.18028440327757 301.74788546188756,178.0941650939948 328.39313058412995,155.88979415879282 Z" fill="url(#leaf11)" opacity="0.35" transform="rotate(318.7 328.4 200.3)"/>
    <path d="M 812.8629389456407,440.8513731496615 C 856.7283418093529,477.4058755360883 871.3501427639235,528.5821788770858 812.8629389456407,587.0693826953685 C 754.375735127358,528.5821788770858 768.9975360819286,477.4058755360883 812.8629389456407,440.8513731496615 Z" fill="url(#leaf12)" opacity="0.24" transform="rotate(168.4 812.9 514.0)"/>
    <path d="M 831.662220024582,898.6845321938272 C 888.6316242191999,946.1590356893421 907.621425617406,1012.623340583063 831.662220024582,1088.582546175887 C 755.703014431758,1012.623340583063 774.692815829964,946.1590356893421 831.662220024582,898.6845321938272 Z" fill="url(#leaf13)" opacity="0.22" transform="rotate(60.1 831.7 993.6)"/>
    <path d="M 478.09763881484093,878.9173267393656 C 511.9466305623346,907.124819862277 523.2296278114991,946.6153102343529 478.09763881484093,991.7472992310112 C 432.9656498181827,946.6153102343529 444.2486470673473,907.124819862277 478.09763881484093,878.9173267393656 Z" fill="url(#leaf14)" opacity="0.37" transform="rotate(71.6 478.1 935.3)"/>
    <path d="M 658.7468256195677,728.603532904614 C 695.763494495086,759.4507569675459 708.1023841202586,802.6368706556505 658.7468256195677,851.9924291563414 C 609.3912671188768,802.6368706556505 621.7301567440495,759.4507569675459 658.7468256195677,728.603532904614 Z" fill="url(#leaf15)" opacity="0.24" transform="rotate(311.9 658.7 790.3)"/>
    <path d="M 1164.4970582966482,280.39893167026173 C 1214.4736655173172,322.0461043541524 1231.1325345908733,380.35214611159944 1164.4970582966482,446.9876224058246 C 1097.8615820024231,380.35214611159944 1114.5204510759793,322.0461043541524 1164.4970582966482,280.39893167026173 Z" fill="url(#leaf16)" opacity="0.39" transform="rotate(85.6 1164.5 363.7)"/>
    <path d="M 1591.9844990157249,503.8281351246149 C 1626.7844939039032,532.8281308647636 1638.3844921999628,573.4281249009719 1591.9844990157249,619.8281180852098 C 1545.584505831487,573.4281249009719 1557.1845041275465,532.8281308647636 1591.9844990157249,503.8281351246149 Z" fill="url(#leaf17)" opacity="0.37" transform="rotate(54.6 1592.0 561.8)"/>
    <path d="M 638.2632111067669,327.0858887016615 C 689.4579605394133,369.74817989553344 706.5228770169621,429.47538756695417 638.2632111067669,497.73505347714934 C 570.0035451965717,429.47538756695417 587.0684616741205,369.74817989553344 638.2632111067669,327.0858887016615 Z" fill="url(#leaf18)" opacity="0.31" transform="rotate(319.5 638.3 412.4)"/>
    <path d="M 1454.0608479423486,84.49255557007399 C 1495.393140819372,118.93613296759368 1509.17057177838,167.15714132412126 1454.0608479423486,222.26686516015275 C 1398.9511241063171,167.15714132412126 1412.728555065325,118.93613296759368 1454.0608479423486,84.49255557007399 Z" fill="url(#leaf19)" opacity="0.29" transform="rotate(217.4 1454.1 153.4)"/>
    <path d="M 1112.1090424633107,72.67805957422028 C 1141.1129568976794,96.84798826952743 1150.7809283758022,130.68588844295746 1112.1090424633107,169.3577743554489 C 1073.4371565508193,130.68588844295746 1083.105128028942,96.84798826952743 1112.1090424633107,72.67805957422028 Z" fill="url(#leaf0)" opacity="0.37" transform="rotate(44.7 1112.1 121.0)"/>
    <path d="M 848.297313029304,962.586877017322 C 880.3766930673677,989.3196937157085 891.0698197467224,1026.7456370934497 848.297313029304,1069.518143810868 C 805.5248063118855,1026.7456370934497 816.2179329912402,989.3196937157085 848.297313029304,962.586877017322 Z" fill="url(#leaf1)" opacity="0.38" transform="rotate(3.1 848.3 1016.1)"/>
    <path d="M 1229.9510725629775,344.23620858688025 C 1262.21812355956,371.12541775069894 1272.9738072250875,408.7703105800452 1229.9510725629775,451.79304524215513 C 1186.9283379008675,408.7703105800452 1197.6840215663951,371.12541775069894 1229.9510725629775,344.23620858688025 Z" fill="url(#leaf2)" opacity="0.26" transform="rotate(201.8 1230.0 398.0)"/>
    <path d="M 859.6350975405742,195.16709364796884 C 900.4437027403535,229.1742646477849 914.0465711402799,276.78430404752737 859.6350975405742,331.19577764723306 C 805.2236239408685,276.78430404752737 818.8264923407949,229.1742646477849 859.6350975405742,195.16709364796884 Z" fill="url(#leaf3)" opacity="0.26" transform="rotate(121.5 859.6 263.2)"/>
    <path d="M 1522.8154941498644,470.6326110431871 C 1573.7888153949718,513.1103787474433 1590.7799224766743,572.579253533402 1522.8154941498644,640.543681860212 C 1454.8510658230546,572.579253533402 1471.842172904757,513.1103787474433 1522.8154941498644,470.6326110431871 Z" fill="url(#leaf4)" opacity="0.36" transform="rotate(61.6 1522.8 555.6)"/>
    <path d="M 75.60162979126093,346.51063722692015 C 130.48351925633287,392.24554511448014 148.77748241135686,456.274416157064 75.60162979126093,529.45026877716 C 2.425777171164995,456.274416157064 20.71974032618899,392.24554511448014 75.60162979126093,346.51063722692015 Z" fill="url(#leaf5)" opacity="0.37" transform="rotate(294.1 75.6 438.0)"/>
    <path d="M 1287.5516692479896,194.21876794362925 C 1317.212310843886,218.9359692735428 1327.0991913758512,253.5400511354218 1287.5516692479896,293.0875732632835 C 1248.004147120128,253.5400511354218 1257.8910276520933,218.9359692735428 1287.5516692479896,194.21876794362925 Z" fill="url(#leaf6)" opacity="0.26" transform="rotate(157.4 1287.6 243.7)"/>
    <path d="M 1781.1525679659264,960.7036649068689 C 1808.4115449449614,983.4194790560647 1817.4978706046397,1015.2216188649388 1781.1525679659264,1051.566921503652 C 1744.8072653272131,1015.2216188649388 1753.8935909868915,983.4194790560647 1781.1525679659264,960.7036649068689 Z" fill="url(#leaf7)" opacity="0.30" transform="rotate(331.7 1781.2 1006.1)"/>
    <path d="M 93.10956320701379,867.2779718553297 C 134.09063454798988,901.4288646394764 147.75099166164858,949.2401145372819 93.10956320701379,1003.8815429919166 C 38.468134752379015,949.2401145372819 52.12849186603771,901.4288646394764 93.10956320701379,867.2779718553297 Z" fill="url(#leaf8)" opacity="0.37" transform="rotate(307.1 93.1 935.6)"/>
    <path d="M 364.1605038583448,262.17355348790227 C 390.0727808121688,283.76711761608897 398.71020646344346,313.9981073955503 364.1605038583448,348.54781000064895 C 329.6108012532461,313.9981073955503 338.2482269045208,283.76711761608897 364.1605038583448,262.17355348790227 Z" fill="url(#leaf9)" opacity="0.26" transform="rotate(119.7 364.2 305.4)"/>
    <path d="M 57.93377358041627,173.09316208485393 C 99.25678115050727,207.52900172659645 113.03111700720427,255.73917722503595 57.93377358041627,310.83652065182395 C 2.836430153628264,255.73917722503595 16.61076601032527,207.52900172659645 57.93377358041627,173.09316208485393 Z" fill="url(#leaf10)" opacity="0.36" transform="rotate(206.5 57.9 242.0)"/>
    <path d="M 105.1767090174316,273.71204902487545 C 150.9740300238801,311.8764831969159 166.23980369269626,365.30669103777245 105.1767090174316,426.3697857130371 C 44.11361434216696,365.30669103777245 59.37938801098313,311.8764831969159 105.1767090174316,273.71204902487545 Z" fill="url(#leaf11)" opacity="0.40" transform="rotate(5.1 105.2 350.0)"/>
    <path d="M 1533.5672466160274,617.0907066853397 C 1565.8061157463667,643.9564309606222 1576.5524054564796,681.568444946018 1533.5672466160274,724.5536037864701 C 1490.5820877755752,681.568444946018 1501.3283774856882,643.9564309606222 1533.5672466160274,617.0907066853397 Z" fill="url(#leaf12)" opacity="0.21" transform="rotate(128.3 1533.6 670.8)"/>
    <path d="M 1009.436740602883,282.89306034168465 C 1062.0428034989823,326.7314460884341 1079.578157797682,388.1051861338833 1009.436740602883,458.24660332868245 C 939.2953234080838,388.1051861338833 956.8306777067837,326.7314460884341 1009.436740602883,282.89306034168465 Z" fill="url(#leaf13)" opacity="0.27" transform="rotate(106.1 1009.4 370.6)"/>
    <path d="M 780.4467519004734,506.18978909142925 C 830.0347432954827,547.513115253937 846.5640737604858,605.3657718814479 780.4467519004734,671.4830937414604 C 714.3294300404609,605.3657718814479 730.858760505464,547.513115253937 780.4467519004734,506.18978909142925 Z" fill="url(#leaf14)" opacity="0.20" transform="rotate(171.6 780.4 588.8)"/>
    <path d="M 1645.9988979614488,88.58348068409697 C 1678.9758002897636,116.06423262435922 1689.9681010658685,154.53728534072638 1645.9988979614488,198.50648844514598 C 1602.0296948570292,154.53728534072638 1613.021995633134,116.06423262435922 1645.9988979614488,88.58348068409697 Z" fill="url(#leaf15)" opacity="0.27" transform="rotate(237.6 1646.0 143.5)"/>
    <path d="M 1284.1627982250857,236.026579983759 C 1309.2464193168623,256.9295975602395 1317.6076263474545,286.19382216731213 1284.1627982250857,319.63865028968087 C 1250.717970102717,286.19382216731213 1259.079177133309,256.9295975602395 1284.1627982250857,236.026579983759 Z" fill="url(#leaf16)" opacity="0.23" transform="rotate(74.9 1284.2 277.8)"/>
    <path d="M 1219.5679627921147,571.9795036340195 C 1273.8971549761125,617.2538304540175 1292.0068857041117,680.6378880020148 1219.5679627921147,753.0768109140117 C 1147.1290398801177,680.6378880020148 1165.238770608117,617.2538304540175 1219.5679627921147,571.9795036340195 Z" fill="url(#leaf17)" opacity="0.30" transform="rotate(241.4 1219.6 662.5)"/>
    <path d="M 1476.6685001705412,302.70141753559096 C 1517.8264915749098,336.99974370589825 1531.5458220430328,385.0174003443284 1476.6685001705412,439.89472221682 C 1421.7911782980495,385.0174003443284 1435.5105087661725,336.99974370589825 1476.6685001705412,302.70141753559096 Z" fill="url(#leaf18)" opacity="0.30" transform="rotate(306.1 1476.7 371.3)"/>
    <path d="M 1058.6825920604374,616.6686347159538 C 1107.7809415751299,657.5839259781975 1124.1470580800271,714.8653337453386 1058.6825920604374,780.3297997649285 C 993.2181260408476,714.8653337453386 1009.584242545745,657.5839259781975 1058.6825920604374,616.6686347159538 Z" fill="url(#leaf19)" opacity="0.38" transform="rotate(141.4 1058.7 698.5)"/>
    <path d="M 1796.6421175537976,366.5932186450576 C 1834.619596614994,398.2411178627213 1847.2787563020595,442.54817676745046 1796.6421175537976,493.18481551571233 C 1746.0054788055356,442.54817676745046 1758.6646384926012,398.2411178627213 1796.6421175537976,366.5932186450576 Z" fill="url(#leaf0)" opacity="0.35" transform="rotate(94.3 1796.6 429.9)"/>
    <path d="M 607.195180148327,788.8953108743735 C 642.0017346617306,817.9007729688765 653.6039194995318,858.5084199011806 607.195180148327,904.9171592523853 C 560.7864407971223,858.5084199011806 572.3886256349235,817.9007729688765 607.195180148327,788.8953108743735 Z" fill="url(#leaf1)" opacity="0.38" transform="rotate(341.0 607.2 846.9)"/>
    <path d="M 1861.1858425346402,81.93706953934347 C 1898.6541903575517,113.16069272510312 1911.1436396318556,156.87376518516663 1861.1858425346402,206.83156228238207 C 1811.2280454374247,156.87376518516663 1823.7174947117287,113.16069272510312 1861.1858425346402,81.93706953934347 Z" fill="url(#leaf2)" opacity="0.30" transform="rotate(96.0 1861.2 144.4)"/>
    <path d="M 480.03184621168083,503.331529412784 C 526.3216564787873,541.9063713020394 541.7515932344895,595.911149946997 480.03184621168083,657.6308969698057 C 418.31209918887214,595.911149946997 433.7420359445743,541.9063713020394 480.03184621168083,503.331529412784 Z" fill="url(#leaf3)" opacity="0.38" transform="rotate(151.4 480.0 580.5)"/>
    <path d="M 448.5615515257967,682.6106922653665 C 476.26981364684036,705.7009106995696 485.50590102052155,738.0272165074539 448.5615515257967,774.9715660021787 C 411.6172020310718,738.0272165074539 420.853289404753,705.7009106995696 448.5615515257967,682.6106922653665 Z" fill="url(#leaf4)" opacity="0.25" transform="rotate(186.4 448.6 728.8)"/>
    <path d="M 474.97712752220235,441.7117133818328 C 499.07461911766023,461.7929563780477 507.10711631614623,489.90669657274856 474.97712752220235,522.0366853666925 C 442.84713872825847,489.90669657274856 450.87963592674447,461.7929563780477 474.97712752220235,441.7117133818328 Z" fill="url(#leaf5)" opacity="0.33" transform="rotate(346.3 475.0 481.9)"/>
  </g>

  <!-- Central star shape -->
  <polygon points="960.0,192.9 1062.0,399.6 1290.1,432.7 1125.0,593.6 1164.0,820.8 960.0,713.5 756.0,820.8 795.0,593.6 629.9,432.7 858.0,399.6" 
           fill="#4ECDC4" 
           transform="rotate(10.6 960.0 540.0)"/>
</svg>