<?xml version="1.0" encoding="UTF-8"?>
<svg xmlns="http://www.w3.org/2000/svg" viewBox="0 0 1920 1080" width="1920" height="1080">
  <defs>
    <linearGradient id="bgGrad" x1="0%" y1="0%" x2="100%" y2="100%">
      <stop offset="0%" stop-color="#DC143C"/>
      <stop offset="100%" stop-color="#FF6B6B"/>
    </linearGradient>
    <clipPath id="complexClip"><polygon points="1298.2,540.0 1334.8,584.8 1405.2,651.5 1396.1,718.2 1294.5,749.0 1156.7,731.7 1111.9,803.0 1001.3,761.0 907.2,822.4 837.5,752.1 737.9,756.3 653.9,731.2 551.0,707.2 526.0,648.7 402.7,606.6 579.5,540.0 539.0,489.7 520.2,429.8 583.5,386.1 720.5,390.4 723.6,309.7 782.4,232.6 918.9,320.2 995.4,350.5 1083.0,327.1 1192.5,313.5 1312.8,319.6 1276.8,410.5 1423.2,424.0 1429.8,483.8"/></clipPath>
    <radialGradient id="leaf0" cx="50%" cy="50%" r="70%">
      <stop offset="0%" stop-color="#45B7D1"/>
      <stop offset="50%" stop-color="#FF1493"/>
      <stop offset="100%" stop-color="#00FA9A"/>
    </radialGradient>
    <radialGradient id="leaf1" cx="50%" cy="50%" r="70%">
      <stop offset="0%" stop-color="#7B68EE"/>
      <stop offset="50%" stop-color="#00FA9A"/>
      <stop offset="100%" stop-color="#FF1493"/>
    </radialGradient>
    <radialGradient id="leaf2" cx="50%" cy="50%" r="70%">
      <stop offset="0%" stop-color="#FF6B6B"/>
      <stop offset="50%" stop-color="#FFE66D"/>
      <stop offset="100%" stop-color="#00CED1"/>
    </radialGradient>
    <radialGradient id="leaf3" cx="50%" cy="50%" r="70%">
      <stop offset="0%" stop-color="#9370DB"/>
      <stop offset="50%" stop-color="#7B68EE"/>
      <stop offset="100%" stop-color="#FF1493"/>
    </radialGradient>
    <radialGradient id="leaf4" cx="50%" cy="50%" r="70%">
      <stop offset="0%" stop-color="#FFE66D"/>
      <stop offset="50%" stop-color="#FFD700"/>
      <stop offset="100%" stop-color="#96E6A1"/>
    </radialGradient>
    <radialGradient id="leaf5" cx="50%" cy="50%" r="70%">
      <stop offset="0%" stop-color="#96E6A1"/>
      <stop offset="50%" stop-color="#32CD32"/>
      <stop offset="100%" stop-color="#9370DB"/>
    </radialGradient>
    <radialGradient id="leaf6" cx="50%" cy="50%" r="70%">
      <stop offset="0%" stop-color="#FFD700"/>
      <stop offset="50%" stop-color="#45B7D1"/>
      <stop offset="100%" stop-color="#00FA9A"/>
    </radialGradient>
    <radialGradient id="leaf7" cx="50%" cy="50%" r="70%">
      <stop offset="0%" stop-color="#FF69B4"/>
      <stop offset="50%" stop-color="#45B7D1"/>
      <stop offset="100%" stop-color="#00FA9A"/>
    </radialGradient>
    <radialGradient id="leaf8" cx="50%" cy="50%" r="70%">
      <stop offset="0%" stop-color="#FF1493"/>
      <stop offset="50%" stop-color="#32CD32"/>
      <stop offset="100%" stop-color="#FF6B6B"/>
    </radialGradient>
    <radialGradient id="leaf9" cx="50%" cy="50%" r="70%">
      <stop offset="0%" stop-color="#DC143C"/>
      <stop offset="50%" stop-color="#FF6B6B"/>
      <stop offset="100%" stop-color="#FFD700"/>
    </radialGradient>
    <radialGradient id="leaf10" cx="50%" cy="50%" r="70%">
      <stop offset="0%" stop-color="#45B7D1"/>
      <stop offset="50%" stop-color="#FFE66D"/>
      <stop offset="100%" stop-color="#32CD32"/>
    </radialGradient>
    <radialGradient id="leaf11" cx="50%" cy="50%" r="70%">
      <stop offset="0%" stop-color="#FF69B4"/>
      <stop offset="50%" stop-color="#FFD700"/>
      <stop offset="100%" stop-color="#96E6A1"/>
    </radialGradient>
    <radialGradient id="leaf12" cx="50%" cy="50%" r="70%">
      <stop offset="0%" stop-color="#FF69B4"/>
      <stop offset="50%" stop-color="#DC143C"/>
      <stop offset="100%" stop-color="#4ECDC4"/>
    </radialGradient>
    <radialGradient id="leaf13" cx="50%" cy="50%" r="70%">
      <stop offset="0%" stop-color="#FFD700"/>
      <stop offset="50%" stop-color="#45B7D1"/>
      <stop offset="100%" stop-color="#9370DB"/>
    </radialGradient>
    <radialGradient id="leaf14" cx="50%" cy="50%" r="70%">
      <stop offset="0%" stop-color="#96E6A1"/>
      <stop offset="50%" stop-color="#FFE66D"/>
      <stop offset="100%" stop-color="#FF69B4"/>
    </radialGradient>
    <radialGradient id="leaf15" cx="50%" cy="50%" r="70%">
      <stop offset="0%" stop-color="#32CD32"/>
      <stop offset="50%" stop-color="#7B68EE"/>
      <stop offset="100%" stop-color="#FFD700"/>
    </radialGradient>
    <radialGradient id="leaf16" cx="50%" cy="50%" r="70%">
      <stop offset="0%" stop-color="#FF1493"/>
      <stop offset="50%" stop-color="#32CD32"/>
      <stop offset="100%" stop-color="#4ECDC4"/>
    </radialGradient>
    <radialGradient id="leaf17" cx="50%" cy="50%" r="70%">
      <stop offset="0%" stop-color="#FFD700"/>
      <stop offset="50%" stop-color="#00FA9A"/>
      <stop offset="100%" stop-color="#FF6B6B"/>
    </radialGradient>
    <radialGradient id="leaf18" cx="50%" cy="50%" r="70%">
      <stop offset="0%" stop-color="#FF69B4"/>
      <stop offset="50%" stop-color="#9370DB"/>
      <stop offset="100%" stop-color="#45B7D1"/>
    </radialGradient>
    <radialGradient id="leaf19" cx="50%" cy="50%" r="70%">
      <stop offset="0%" stop-color="#96E6A1"/>
      <stop offset="50%" stop-color="#FF69B4"/>
      <stop offset="100%" stop-color="#FF6B6B"/>
    </radialGradient>
  </defs>

  <!-- Background -->
  <rect width="1920" height="1080" fill="url(#bgGrad)"/>
  
  <!-- Leaves with clip-path -->
  <g clip-path="url(#complexClip)">
    <path d="M 1601.7921270048641,820.2976152434907 C 1637.5899008779104,850.1290934710291 1649.5224921689257,891.893162989583 1601.7921270048641,939.6235281536445 C 1554.0617618408025,891.893162989583 1565.994353131818,850.1290934710291 1601.7921270048641,820.2976152434907 Z" fill="url(#leaf0)" opacity="0.40" transform="rotate(121.3 1601.8 880.0)"/>
    <path d="M 1710.831707800054,543.253551453435 C 1764.5351944835797,588.0064570230398 1782.4363567114217,650.6605248204867 1710.831707800054,722.2651737318545 C 1639.227058888686,650.6605248204867 1657.128221116528,588.0064570230398 1710.831707800054,543.253551453435 Z" fill="url(#leaf1)" opacity="0.21" transform="rotate(114.9 1710.8 632.8)"/>
    <path d="M 1117.5873392136818,164.81807729649296 C 1167.8685900329315,206.71911964586764 1184.6290069726813,265.3805789349922 1117.5873392136818,332.42224669399167 C 1050.5456714546824,265.3805789349922 1067.3060883944322,206.71911964586764 1117.5873392136818,164.81807729649296 Z" fill="url(#leaf2)" opacity="0.23" transform="rotate(290.7 1117.6 248.6)"/>
    <path d="M 1414.6682887345517,470.09381960590713 C 1460.3376914430344,508.1516551963093 1475.5608256791952,561.4326250228723 1414.6682887345517,622.3251619675159 C 1353.775751789908,561.4326250228723 1368.998886026069,508.1516551963093 1414.6682887345517,470.09381960590713 Z" fill="url(#leaf3)" opacity="0.36" transform="rotate(179.1 1414.7 546.2)"/>
    <path d="M 1295.1045644699059,837.8955728304795 C 1336.4099337067717,872.316713861201 1350.1783901190604,920.5063113042112 1295.1045644699059,975.5801369533656 C 1240.0307388207514,920.5063113042112 1253.79919523304,872.316713861201 1295.1045644699059,837.8955728304795 Z" fill="url(#leaf4)" opacity="0.38" transform="rotate(196.6 1295.1 906.7)"/>
    <path d="M 1818.3761252308648,750.3781158837995 C 1869.5236825763761,793.0010803383924 1886.5728683582133,852.6732305748225 1818.3761252308648,920.869973702171 C 1750.1793821035162,852.6732305748225 1767.2285678853534,793.0010803383924 1818.3761252308648,750.3781158837995 Z" fill="url(#leaf5)" opacity="0.23" transform="rotate(331.8 1818.4 835.6)"/>
    <path d="M 1180.3130813888172,253.42438432162936 C 1211.2569441186097,279.2109365964564 1221.5715650285404,315.3121097812142 1180.3130813888172,356.5705934209374 C 1139.054597749094,315.3121097812142 1149.3692186590247,279.2109365964564 1180.3130813888172,253.42438432162936 Z" fill="url(#leaf6)" opacity="0.20" transform="rotate(282.6 1180.3 305.0)"/>
    <path d="M 1800.698267042248,26.33522819713081 C 1832.6571749483576,52.96765145222206 1843.3101442503942,90.2530440093498 1800.698267042248,132.86492121749578 C 1758.086389834102,90.2530440093498 1768.7393591361385,52.96765145222206 1800.698267042248,26.33522819713081 Z" fill="url(#leaf7)" opacity="0.26" transform="rotate(230.1 1800.7 79.6)"/>
    <path d="M 742.2146258354724,542.5475962132781 C 788.7845619054114,581.3558762715605 804.3078739287243,635.6874683531561 742.2146258354724,697.7807164464081 C 680.1213777422204,635.6874683531561 695.6446897655334,581.3558762715605 742.2146258354724,542.5475962132781 Z" fill="url(#leaf8)" opacity="0.26" transform="rotate(109.2 742.2 620.2)"/>
    <path d="M 312.7490990883521,475.81025520101934 C 354.5730510087562,510.6635484680227 368.51436831555753,559.4581590418275 312.7490990883521,615.2234282690329 C 256.9838298611467,559.4581590418275 270.92514716794807,510.6635484680227 312.7490990883521,475.81025520101934 Z" fill="url(#leaf9)" opacity="0.29" transform="rotate(200.6 312.7 545.5)"/>
    <path d="M 1160.6347798064733,486.1402154441748 C 1200.0889327327045,519.0186762160341 1213.2403170414482,565.0485212966371 1160.6347798064733,617.654058531612 C 1108.0292425714983,565.0485212966371 1121.180626880242,519.0186762160341 1160.6347798064733,486.1402154441748 Z" fill="url(#leaf10)" opacity="0.36" transform="rotate(18.4 1160.6 551.9)"/>
    <path d="M 1488.5924986067148,40.5614765737123 C 1515.39669663615,62.89830826490825 1524.3314293126284,94.16987263258258 1488.5924986067148,129.9088033384961 C 1452.8535679008012,94.16987263258258 1461.7883005772796,62.89830826490825 1488.5924986067148,40.5614765737123 Z" fill="url(#leaf11)" opacity="0.38" transform="rotate(205.4 1488.6 85.2)"/>
    <path d="M 1114.4659817600686,273.63218591313677 C 1173.0297565760716,322.43533159313915 1192.5510148480726,390.7597355451426 1114.4659817600686,468.84476863314643 C 1036.3809486720647,390.7597355451426 1055.9022069440657,322.43533159313915 1114.4659817600686,273.63218591313677 Z" fill="url(#leaf12)" opacity="0.31" transform="rotate(272.2 1114.5 371.2)"/>
    <path d="M 1313.5654172373675,544.8365750792865 C 1344.3265183933977,570.4708260426452 1354.5802187787413,606.3587773913472 1313.5654172373675,647.373578932721 C 1272.5506156959937,606.3587773913472 1282.8043160813372,570.4708260426452 1313.5654172373675,544.8365750792865 Z" fill="url(#leaf13)" opacity="0.21" transform="rotate(187.6 1313.6 596.1)"/>
    <path d="M 1478.598778030023,870.9094762256327 C 1520.9553275203743,906.2066008009256 1535.0741773504915,955.6225752063356 1478.598778030023,1012.0979745268041 C 1422.1233787095543,955.6225752063356 1436.2422285396715,906.2066008009256 1478.598778030023,870.9094762256327 Z" fill="url(#leaf14)" opacity="0.25" transform="rotate(100.6 1478.6 941.5)"/>
    <path d="M 1433.9617062073976,588.4052167343243 C 1468.7775127661223,617.4183888665949 1480.3827816190305,658.0368298517736 1433.9617062073976,704.4579052634065 C 1387.5406307957646,658.0368298517736 1399.1458996486729,617.4183888665949 1433.9617062073976,588.4052167343243 Z" fill="url(#leaf15)" opacity="0.34" transform="rotate(246.7 1434.0 646.4)"/>
    <path d="M 1233.4156097066054,603.8249812640988 C 1261.5850931699279,627.2995508168675 1270.9749209910353,660.1639481907437 1233.4156097066054,697.7232594751736 C 1195.8562984221755,660.1639481907437 1205.246126243283,627.2995508168675 1233.4156097066054,603.8249812640988 Z" fill="url(#leaf16)" opacity="0.29" transform="rotate(195.2 1233.4 650.8)"/>
    <path d="M 1721.4164959322582,244.89752727687116 C 1777.9527860020773,292.01110233505375 1796.7982160253503,357.9701074165094 1721.4164959322582,433.35182750960155 C 1646.034775839166,357.9701074165094 1664.880205862439,292.01110233505375 1721.4164959322582,244.89752727687116 Z" fill="url(#leaf17)" opacity="0.25" transform="rotate(54.5 1721.4 339.1)"/>
    <path d="M 170.90907310985136,545.105168408182 C 214.99072199655404,581.8398758137674 229.68460495878827,633.2684661815872 170.90907310985136,692.0439980305241 C 112.13354126091446,633.2684661815872 126.82742422314868,581.8398758137674 170.90907310985136,545.105168408182 Z" fill="url(#leaf18)" opacity="0.32" transform="rotate(62.0 170.9 618.6)"/>
    <path d="M 154.1765092167072,271.9620925353867 C 182.79380049978042,295.8098352712811 192.33289759413816,329.19667510153323 154.1765092167072,367.3530634789642 C 116.02012083927622,329.19667510153323 125.55921793363396,295.8098352712811 154.1765092167072,271.9620925353867 Z" fill="url(#leaf19)" opacity="0.38" transform="rotate(303.4 154.2 319.7)"/>
    <path d="M 978.424407290721,285.6421763811877 C 1018.6203795490657,319.1388199298083 1032.0190369685138,366.0341208978771 978.424407290721,419.62875057567 C 924.8297776129281,366.0341208978771 938.2284350323763,319.1388199298083 978.424407290721,285.6421763811877 Z" fill="url(#leaf0)" opacity="0.34" transform="rotate(216.8 978.4 352.6)"/>
    <path d="M 1128.7951056531615,548.8659349347618 C 1185.3120544021394,595.9633922255767 1204.1510373184656,661.8998324327177 1128.7951056531615,737.2557640980217 C 1053.4391739878574,661.8998324327177 1072.2781569041836,595.9633922255767 1128.7951056531615,548.8659349347618 Z" fill="url(#leaf1)" opacity="0.21" transform="rotate(183.5 1128.8 643.1)"/>
    <path d="M 1653.7104094606443,339.08045264939193 C 1687.3475138098104,367.11137294036365 1698.559881926199,406.354661347724 1653.7104094606443,451.2041338132787 C 1608.8609369950896,406.354661347724 1620.0733051114782,367.11137294036365 1653.7104094606443,339.08045264939193 Z" fill="url(#leaf2)" opacity="0.22" transform="rotate(207.5 1653.7 395.1)"/>
    <path d="M 640.3381021969398,153.1566162580984 C 694.2715441986114,198.10115125949147 712.2493581991687,261.0235002614417 640.3381021969398,332.9347562636706 C 568.4268461947108,261.0235002614417 586.4046601952681,198.10115125949147 640.3381021969398,153.1566162580984 Z" fill="url(#leaf3)" opacity="0.33" transform="rotate(260.4 640.3 243.0)"/>
    <path d="M 808.5584720566159,683.5559486731509 C 834.532502154661,705.2009737548551 843.1905121873427,735.504008869241 808.5584720566159,770.1360489999679 C 773.926431925889,735.504008869241 782.5844419585708,705.2009737548551 808.5584720566159,683.5559486731509 Z" fill="url(#leaf4)" opacity="0.39" transform="rotate(267.7 808.6 726.8)"/>
    <path d="M 684.3356580706663,819.5484007361008 C 710.0789535509907,841.0011469697043 718.6600520444322,871.0349916967494 684.3356580706663,905.3593856705152 C 650.0112640969005,871.0349916967494 658.592362590342,841.0011469697043 684.3356580706663,819.5484007361008 Z" fill="url(#leaf5)" opacity="0.34" transform="rotate(145.3 684.3 862.5)"/>
    <path d="M 1072.8649917383707,278.2262250661663 C 1126.4326124439885,322.8659089875145 1144.2884860125278,385.3614664774019 1072.8649917383707,456.78496075155897 C 1001.4414974642136,385.3614664774019 1019.297371032753,322.8659089875145 1072.8649917383707,278.2262250661663 Z" fill="url(#leaf6)" opacity="0.23" transform="rotate(318.9 1072.9 367.5)"/>
    <path d="M 878.7768979027228,806.1596592774182 C 932.5549472601604,850.9747004086162 950.4809637126396,913.7157579922933 878.7768979027228,985.4198238022101 C 807.072832092806,913.7157579922933 824.9988485452852,850.9747004086162 878.7768979027228,806.1596592774182 Z" fill="url(#leaf7)" opacity="0.28" transform="rotate(112.5 878.8 895.8)"/>
    <path d="M 1753.1676899821452,366.24783752455227 C 1800.8019377011783,405.9430439570799 1816.6800202741895,461.51633296261855 1753.1676899821452,525.0286632546627 C 1689.655359690101,461.51633296261855 1705.5334422631122,405.9430439570799 1753.1676899821452,366.24783752455227 Z" fill="url(#leaf8)" opacity="0.21" transform="rotate(140.1 1753.2 445.6)"/>
    <path d="M 1721.9368949776313,267.59700011776454 C 1778.8351037767818,315.01217411705665 1797.8011733764986,381.3934177160655 1721.9368949776313,457.25769611493286 C 1646.072616578764,381.3934177160655 1665.0386861784807,315.01217411705665 1721.9368949776313,267.59700011776454 Z" fill="url(#leaf9)" opacity="0.24" transform="rotate(35.5 1721.9 362.4)"/>
    <path d="M 766.9082886355105,227.54619935107328 C 793.187626279831,249.44564738800705 801.9474054946045,280.1048746397143 766.9082886355105,315.14399149880825 C 731.8691717764166,280.1048746397143 740.6289509911901,249.44564738800705 766.9082886355105,227.54619935107328 Z" fill="url(#leaf10)" opacity="0.26" transform="rotate(85.5 766.9 271.3)"/>
    <path d="M 165.89910763026705,-35.43218034501461 C 219.9463721987495,9.607206795387434 237.96212705491033,72.6623487919503 165.89910763026705,144.72536821659355 C 93.83608820562378,72.6623487919503 111.8518430617846,9.607206795387434 165.89910763026705,-35.43218034501461 Z" fill="url(#leaf11)" opacity="0.38" transform="rotate(240.1 165.9 54.6)"/>
    <path d="M 1272.402875506268,641.5688467347537 C 1310.5996812652022,673.3995182005323 1323.3319498515134,717.9624582526221 1272.402875506268,768.8915325978677 C 1221.4738011610225,717.9624582526221 1234.2060697473337,673.3995182005323 1272.402875506268,641.5688467347537 Z" fill="url(#leaf12)" opacity="0.37" transform="rotate(197.3 1272.4 705.2)"/>
    <path d="M 1569.7735964888245,820.9117016940063 C 1608.111463962414,852.8599245886643 1620.8907531202772,897.5874366411854 1569.7735964888245,948.704593272638 C 1518.6564398573719,897.5874366411854 1531.435729015235,852.8599245886643 1569.7735964888245,820.9117016940063 Z" fill="url(#leaf13)" opacity="0.34" transform="rotate(182.6 1569.8 884.8)"/>
    <path d="M 1288.3381344210175,778.8748009654331 C 1314.0861187269836,800.3314545537381 1322.6687801623057,830.3707695773653 1288.3381344210175,864.7014153186534 C 1254.0074886797292,830.3707695773653 1262.5901501150513,800.3314545537381 1288.3381344210175,778.8748009654331 Z" fill="url(#leaf14)" opacity="0.32" transform="rotate(95.9 1288.3 821.8)"/>
    <path d="M 1156.6563630656142,670.0476761960603 C 1206.7544509158588,711.7960827379309 1223.453813532607,770.2438518965496 1156.6563630656142,837.0413023635425 C 1089.8589125986214,770.2438518965496 1106.5582752153696,711.7960827379309 1156.6563630656142,670.0476761960603 Z" fill="url(#leaf15)" opacity="0.23" transform="rotate(153.2 1156.7 753.5)"/>
    <path d="M 1025.057809831844,883.8613751850185 C 1052.792049419837,906.9732415083458 1062.036795949168,939.3298543610043 1025.057809831844,976.3088404783282 C 988.07882371452,939.3298543610043 997.323570243851,906.9732415083458 1025.057809831844,883.8613751850185 Z" fill="url(#leaf16)" opacity="0.34" transform="rotate(215.1 1025.1 930.1)"/>
    <path d="M 1480.1694706156454,42.92269691806189 C 1520.827242251675,76.80417328141978 1534.379832797018,124.23824019012082 1480.1694706156454,178.44860237149345 C 1425.9591084342728,124.23824019012082 1439.5116989796159,76.80417328141978 1480.1694706156454,42.92269691806189 Z" fill="url(#leaf17)" opacity="0.24" transform="rotate(347.5 1480.2 110.7)"/>
    <path d="M 891.2999968656799,401.86436693785527 C 928.4984919796605,432.86311286617246 940.8979903509874,476.26135716581643 891.2999968656799,525.8593506511239 C 841.7020033803724,476.26135716581643 854.1015017516993,432.86311286617246 891.2999968656799,401.86436693785527 Z" fill="url(#leaf18)" opacity="0.22" transform="rotate(53.2 891.3 463.9)"/>
    <path d="M 889.8267309186208,557.6958298383682 C 926.6683070006635,588.3971432400705 938.9488323613444,631.3789820024537 889.8267309186208,680.5010834451772 C 840.7046294758971,631.3789820024537 852.9851548365781,588.3971432400705 889.8267309186208,557.6958298383682 Z" fill="url(#leaf19)" opacity="0.21" transform="rotate(230.0 889.8 619.1)"/>
    <path d="M 1678.4792925857053,788.0079257014121 C 1723.1336402823551,825.219882115287 1738.0184228479052,877.3166210947119 1678.4792925857053,936.8557513569118 C 1618.9401623235053,877.3166210947119 1633.8249448890554,825.219882115287 1678.4792925857053,788.0079257014121 Z" fill="url(#leaf0)" opacity="0.23" transform="rotate(229.0 1678.5 862.4)"/>
    <path d="M 849.4269533048566,323.16929335833174 C 906.9835576514382,371.1331303138164 926.169092433632,438.282502051495 849.4269533048566,515.0246411802705 C 772.6848141760812,438.282502051495 791.870348958275,371.1331303138164 849.4269533048566,323.16929335833174 Z" fill="url(#leaf1)" opacity="0.31" transform="rotate(139.3 849.4 419.1)"/>
    <path d="M 1732.8727779703229,467.13369145842273 C 1762.7387050731663,492.0219640441256 1772.6940141074474,526.8655456641096 1732.8727779703229,566.6867818012341 C 1693.0515418331984,526.8655456641096 1703.0068508674794,492.0219640441256 1732.8727779703229,467.13369145842273 Z" fill="url(#leaf2)" opacity="0.31" transform="rotate(39.0 1732.9 516.9)"/>
    <path d="M 461.7037620799881,126.87653190449987 C 494.9840985068918,154.6101455935863 506.0775439825264,193.4372047583073 461.7037620799881,237.81098666084557 C 417.32998017744984,193.4372047583073 428.4234256530844,154.6101455935863 461.7037620799881,126.87653190449987 Z" fill="url(#leaf3)" opacity="0.21" transform="rotate(288.6 461.7 182.3)"/>
    <path d="M 926.1395644945694,253.89789799097565 C 957.1820776665974,279.7666589676656 967.5295820572734,315.98292433503156 926.1395644945694,357.37294189773553 C 884.7495469318654,315.98292433503156 895.0970513225415,279.7666589676656 926.1395644945694,253.89789799097565 Z" fill="url(#leaf4)" opacity="0.30" transform="rotate(176.6 926.1 305.6)"/>
    <path d="M 73.03158739927214,544.5375508760679 C 104.73061278371863,570.9534053631068 115.29695457853413,607.9356016449609 73.03158739927214,650.200968824223 C 30.766220220010155,607.9356016449609 41.332562014825655,570.9534053631068 73.03158739927214,544.5375508760679 Z" fill="url(#leaf5)" opacity="0.30" transform="rotate(272.7 73.0 597.4)"/>
    <path d="M 1247.8994426258712,189.2286520906497 C 1281.05088949326,216.85485781347379 1292.1013717823898,255.53154582542751 1247.8994426258712,299.7334749819461 C 1203.6975134693525,255.53154582542751 1214.7479957584824,216.85485781347379 1247.8994426258712,189.2286520906497 Z" fill="url(#leaf6)" opacity="0.22" transform="rotate(195.9 1247.9 244.5)"/>
    <path d="M 1475.5120002022065,587.3283914323415 C 1519.8238918227603,624.254967782803 1534.594522362945,675.9521746734491 1475.5120002022065,735.0346968341876 C 1416.429478041468,675.9521746734491 1431.2001085816528,624.254967782803 1475.5120002022065,587.3283914323415 Z" fill="url(#leaf7)" opacity="0.38" transform="rotate(340.0 1475.5 661.2)"/>
    <path d="M 71.64489995301284,48.07320801309302 C 119.12986482269886,87.64401207116471 134.95818644592754,143.04313775246507 71.64489995301284,206.35642424537977 C 8.33161346009814,143.04313775246507 24.159935083326815,87.64401207116471 71.64489995301284,48.07320801309302 Z" fill="url(#leaf8)" opacity="0.29" transform="rotate(310.6 71.6 127.2)"/>
    <path d="M 1256.6911189485381,350.44118844051906 C 1292.0625274900553,379.9173622251167 1303.8529970038944,421.18400552355337 1256.6911189485381,468.34588357890954 C 1209.5292408931818,421.18400552355337 1221.319710407021,379.9173622251167 1256.6911189485381,350.44118844051906 Z" fill="url(#leaf9)" opacity="0.28" transform="rotate(331.5 1256.7 409.4)"/>
    <path d="M 1659.9516680881025,122.51568375084176 C 1693.7474342060082,150.6788221824298 1705.0126895786434,190.10721598665305 1659.9516680881025,235.1682374771939 C 1614.8906465975615,190.10721598665305 1626.1559019701967,150.6788221824298 1659.9516680881025,122.51568375084176 Z" fill="url(#leaf10)" opacity="0.27" transform="rotate(18.8 1660.0 178.8)"/>
    <path d="M 665.1324464133534,601.4207791011625 C 705.8805593336084,635.3775398680416 719.46326364036,682.9170049416724 665.1324464133534,737.247822168679 C 610.8016291863468,682.9170049416724 624.3843334930983,635.3775398680416 665.1324464133534,601.4207791011625 Z" fill="url(#leaf11)" opacity="0.38" transform="rotate(285.0 665.1 669.3)"/>
    <path d="M 840.8730806742774,691.7226591598704 C 888.2232239102099,731.1811118564808 904.006604988854,786.4229456317354 840.8730806742774,849.556469946312 C 777.7395563597008,786.4229456317354 793.5229374383449,731.1811118564808 840.8730806742774,691.7226591598704 Z" fill="url(#leaf12)" opacity="0.40" transform="rotate(186.1 840.9 770.6)"/>
    <path d="M 1440.111533775516,61.79297584561611 C 1477.6378225258227,93.06488313753847 1490.1465854425917,136.8455533462298 1440.111533775516,186.88060501330557 C 1390.0764821084401,136.8455533462298 1402.5852450252091,93.06488313753847 1440.111533775516,61.79297584561611 Z" fill="url(#leaf13)" opacity="0.20" transform="rotate(87.4 1440.1 124.3)"/>
    <path d="M 451.0715732634554,864.6893153864632 C 508.3604626305704,912.4300565257257 527.4567590862754,979.2670941206932 451.0715732634554,1055.6522799435131 C 374.6863874406354,979.2670941206932 393.78268389634036,912.4300565257257 451.0715732634554,864.6893153864632 Z" fill="url(#leaf14)" opacity="0.30" transform="rotate(155.9 451.1 960.2)"/>
    <path d="M 1686.0579826430862,122.16450774238061 C 1733.0161340949894,161.29630061896654 1748.6688512456237,216.08081064618688 1686.0579826430862,278.6916792487244 C 1623.4471140405487,216.08081064618688 1639.099831191183,161.29630061896654 1686.0579826430862,122.16450774238061 Z" fill="url(#leaf15)" opacity="0.26" transform="rotate(119.4 1686.1 200.4)"/>
    <path d="M 735.0195311713484,136.92563467152894 C 774.035134188321,169.43863718567277 787.0403351939785,214.95684070547412 735.0195311713484,266.9776447281042 C 682.9987271487182,214.95684070547412 696.0039281543758,169.43863718567277 735.0195311713484,136.92563467152894 Z" fill="url(#leaf16)" opacity="0.31" transform="rotate(309.7 735.0 202.0)"/>
    <path d="M 1193.8009302211021,804.4950434605504 C 1222.7034519208241,828.5804782103188 1232.3376258207315,862.3000868599946 1193.8009302211021,900.836782459624 C 1155.2642346214727,862.3000868599946 1164.8984085213801,828.5804782103188 1193.8009302211021,804.4950434605504 Z" fill="url(#leaf17)" opacity="0.34" transform="rotate(311.5 1193.8 852.7)"/>
    <path d="M 154.2610871110434,441.1916268487628 C 189.06504841895122,470.194927938686 200.6663688549205,510.7995494645785 154.2610871110434,557.2048312084556 C 107.85580536716628,510.7995494645785 119.45712580313557,470.194927938686 154.2610871110434,441.1916268487628 Z" fill="url(#leaf18)" opacity="0.23" transform="rotate(230.9 154.3 499.2)"/>
    <path d="M 1459.9389959875355,544.1441465442575 C 1498.1012990954268,575.9460658008336 1510.8220667980572,620.46875276004 1459.9389959875355,671.3518235705618 C 1409.0559251770137,620.46875276004 1421.776692879644,575.9460658008336 1459.9389959875355,544.1441465442575 Z" fill="url(#leaf19)" opacity="0.31" transform="rotate(112.4 1459.9 607.7)"/>
    <path d="M 249.25422055648798,364.4334911239289 C 302.98478554655446,409.2089619489843 320.89497387657667,471.8946211040619 249.25422055648798,543.5353744241506 C 177.6134672363993,471.8946211040619 195.52365556642147,409.2089619489843 249.25422055648798,364.4334911239289 Z" fill="url(#leaf0)" opacity="0.30" transform="rotate(322.4 249.3 454.0)"/>
    <path d="M 943.7976855084963,930.762704104926 C 994.9878660917748,973.4211879243247 1012.0512596195343,1033.143065271483 943.7976855084963,1101.3966393825208 C 875.5441113974583,1033.143065271483 892.6075049252179,973.4211879243247 943.7976855084963,930.762704104926 Z" fill="url(#leaf1)" opacity="0.32" transform="rotate(348.3 943.8 1016.1)"/>
    <path d="M 1059.94617774357,945.8547403658074 C 1096.6910053680351,976.4754300528617 1108.9392812428569,1019.3443956147378 1059.94617774357,1068.3374991140247 C 1010.953074244283,1019.3443956147378 1023.2013501191047,976.4754300528617 1059.94617774357,945.8547403658074 Z" fill="url(#leaf2)" opacity="0.34" transform="rotate(30.4 1059.9 1007.1)"/>
    <path d="M 731.3379136651231,170.4898004683307 C 767.7412078408303,200.82587894808668 779.8756392327326,243.29638881974503 731.3379136651231,291.8341143873546 C 682.8001880975136,243.29638881974503 694.9346194894159,200.82587894808668 731.3379136651231,170.4898004683307 Z" fill="url(#leaf3)" opacity="0.25" transform="rotate(238.0 731.3 231.2)"/>
    <path d="M 880.1955632115971,57.30636155527215 C 929.5148510277344,98.40576806871988 945.9546136331135,155.9449371875467 880.1955632115971,221.70398760906312 C 814.4365127900808,155.9449371875467 830.8762753954599,98.40576806871988 880.1955632115971,57.30636155527215 Z" fill="url(#leaf4)" opacity="0.26" transform="rotate(27.3 880.2 139.5)"/>
    <path d="M 1549.662331885981,55.661717290303514 C 1594.6555214857622,93.15604195678776 1609.653251352356,145.64809648986568 1549.662331885981,205.63901595624048 C 1489.6714124196062,145.64809648986568 1504.6691422862,93.15604195678776 1549.662331885981,55.661717290303514 Z" fill="url(#leaf5)" opacity="0.35" transform="rotate(210.7 1549.7 130.7)"/>
    <path d="M 201.99860499692844,620.5810798917862 C 238.5930707919763,651.0764680543261 250.79122605699223,693.770011481882 201.99860499692844,742.5626325419457 C 153.20598393686464,693.770011481882 165.40413920188058,651.0764680543261 201.99860499692844,620.5810798917862 Z" fill="url(#leaf6)" opacity="0.36" transform="rotate(47.1 202.0 681.6)"/>
    <path d="M 1690.423031639099,555.7938350596378 C 1724.0370445636593,583.8055124967713 1735.2417155385126,623.0218609087583 1690.423031639099,667.8405448081719 C 1645.6043477396854,623.0218609087583 1656.8090187145388,583.8055124967713 1690.423031639099,555.7938350596378 Z" fill="url(#leaf7)" opacity="0.39" transform="rotate(69.4 1690.4 611.8)"/>
    <path d="M 218.49356235826676,415.39469145648695 C 243.31104228388736,436.07592472783745 251.58353559242755,465.02965130772816 218.49356235826676,498.1196245418889 C 185.40358912410596,465.02965130772816 193.67608243264615,436.07592472783745 218.49356235826676,415.39469145648695 Z" fill="url(#leaf8)" opacity="0.28" transform="rotate(12.4 218.5 456.8)"/>
    <path d="M 1423.9086979606138,868.6229918434533 C 1466.6825257872906,904.2678483656839 1480.940468396183,954.1706474968067 1423.9086979606138,1011.2024179323757 C 1366.8769275250447,954.1706474968067 1381.134870133937,904.2678483656839 1423.9086979606138,868.6229918434533 Z" fill="url(#leaf9)" opacity="0.20" transform="rotate(133.4 1423.9 939.9)"/>
    <path d="M 922.6002999003483,918.053835989597 C 981.6294050480429,967.2447569460093 1001.3057734306078,1036.1120462849863 922.6002999003483,1114.8175198152458 C 843.8948263700888,1036.1120462849863 863.5711947526537,967.2447569460093 922.6002999003483,918.053835989597 Z" fill="url(#leaf10)" opacity="0.33" transform="rotate(257.6 922.6 1016.4)"/>
    <path d="M 1768.9426346476998,373.11854874303 C 1821.0014900310598,416.5009282291632 1838.354441825513,477.23625950974974 1768.9426346476998,546.648066687563 C 1699.5308274698866,477.23625950974974 1716.8837792643399,416.5009282291632 1768.9426346476998,373.11854874303 Z" fill="url(#leaf11)" opacity="0.23" transform="rotate(341.4 1768.9 459.9)"/>
    <path d="M 512.4476722713764,506.1911705138317 C 549.2942667781097,536.8966659361095 561.5764649470207,579.8843595272982 512.4476722713764,629.0131522029425 C 463.3188795957321,579.8843595272982 475.60107776464315,536.8966659361095 512.4476722713764,506.1911705138317 Z" fill="url(#leaf12)" opacity="0.24" transform="rotate(196.9 512.4 567.6)"/>
    <path d="M 440.4026259236559,342.41003675148187 C 468.37442520277426,365.7198694840805 477.69835829581376,398.35363530971864 440.4026259236559,435.6493676818765 C 403.106893551498,398.35363530971864 412.4308266445375,365.7198694840805 440.4026259236559,342.41003675148187 Z" fill="url(#leaf13)" opacity="0.29" transform="rotate(165.1 440.4 389.0)"/>
    <path d="M 336.9466554960854,624.4671384895688 C 381.3309766432319,661.4540727788575 396.1257503589474,713.2357807838617 336.9466554960854,772.4148756467238 C 277.76756063322335,713.2357807838617 292.56233434893886,661.4540727788575 336.9466554960854,624.4671384895688 Z" fill="url(#leaf14)" opacity="0.34" transform="rotate(57.4 336.9 698.4)"/>
    <path d="M 745.3310394357562,306.1627709744872 C 783.269075409399,337.77780095252285 795.9150874006133,382.03884292177275 745.3310394357562,432.62289088662976 C 694.7469914708992,382.03884292177275 707.3930034621135,337.77780095252285 745.3310394357562,306.1627709744872 Z" fill="url(#leaf15)" opacity="0.36" transform="rotate(36.1 745.3 369.4)"/>
    <path d="M 1127.5642354627198,462.3249007108111 C 1173.9165570656191,500.95183537989385 1189.367330933252,555.0295439166097 1127.5642354627198,616.8326393871421 C 1065.7611399921875,555.0295439166097 1081.2119138598205,500.95183537989385 1127.5642354627198,462.3249007108111 Z" fill="url(#leaf16)" opacity="0.34" transform="rotate(145.5 1127.6 539.6)"/>
    <path d="M 1473.3730668466442,670.7196093781297 C 1532.2441454525886,719.77884154975 1551.8678383212368,788.4617665900186 1473.3730668466442,866.9565380646111 C 1394.8782953720515,788.4617665900186 1414.5019882406998,719.77884154975 1473.3730668466442,670.7196093781297 Z" fill="url(#leaf17)" opacity="0.35" transform="rotate(1.0 1473.4 768.8)"/>
    <path d="M 689.371347124477,218.74179498406735 C 716.5793464956258,241.41512779335807 725.6486796193421,273.157793726365 689.371347124477,309.4351262212301 C 653.0940146296118,273.157793726365 662.1633477533281,241.41512779335807 689.371347124477,218.74179498406735 Z" fill="url(#leaf18)" opacity="0.33" transform="rotate(187.1 689.4 264.1)"/>
    <path d="M 1631.5432556174233,720.5819835140737 C 1673.4332789511727,755.4903362921982 1687.3966200624225,804.3620301815727 1631.5432556174233,860.2153946265719 C 1575.689891172424,804.3620301815727 1589.6532322836738,755.4903362921982 1631.5432556174233,720.5819835140737 Z" fill="url(#leaf19)" opacity="0.34" transform="rotate(350.6 1631.5 790.4)"/>
    <path d="M 83.3944841815399,11.474667524403998 C 140.88509540154357,59.3835102077404 160.04863247487816,126.45588996441137 83.3944841815399,203.1100382577496 C 6.740335888201642,126.45588996441137 25.903872961536216,59.3835102077404 83.3944841815399,11.474667524403998 Z" fill="url(#leaf0)" opacity="0.36" transform="rotate(286.0 83.4 107.3)"/>
    <path d="M 1787.095380421325,884.8605101411673 C 1823.135241552261,914.8937277502807 1835.1485285959063,956.9402324030394 1787.095380421325,1004.9933805776208 C 1739.0422322467437,956.9402324030394 1751.055519290389,914.8937277502807 1787.095380421325,884.8605101411673 Z" fill="url(#leaf1)" opacity="0.38" transform="rotate(172.7 1787.1 944.9)"/>
    <path d="M 1015.8239994178917,334.04563087074837 C 1050.0250849619295,362.5465354907797 1061.4254468099418,402.4478019588236 1015.8239994178917,448.04924935087377 C 970.2225520258417,402.4478019588236 981.6229138738541,362.5465354907797 1015.8239994178917,334.04563087074837 Z" fill="url(#leaf2)" opacity="0.35" transform="rotate(338.3 1015.8 391.0)"/>
    <path d="M 886.1460617183757,844.5790341665507 C 922.4212209976008,874.8083335659051 934.5129407573426,917.1293527250011 886.1460617183757,965.496231763968 C 837.7791826794088,917.1293527250011 849.8709024391505,874.8083335659051 886.1460617183757,844.5790341665507 Z" fill="url(#leaf3)" opacity="0.21" transform="rotate(309.4 886.1 905.0)"/>
    <path d="M 177.1739377518328,596.4713777003195 C 204.1517656524992,618.9529009508748 213.14437495272134,650.4270335016523 177.1739377518328,686.3974707025408 C 141.20350055094426,650.4270335016523 150.1961098511664,618.9529009508748 177.1739377518328,596.4713777003195 Z" fill="url(#leaf4)" opacity="0.37" transform="rotate(210.2 177.2 641.4)"/>
    <path d="M 494.8947230899156,215.885638633404 C 544.8273407121059,257.49615331856256 561.4715465861693,315.75087387778456 494.8947230899156,382.3276973740383 C 428.3178995936619,315.75087387778456 444.96210546772534,257.49615331856256 494.8947230899156,215.885638633404 Z" fill="url(#leaf5)" opacity="0.21" transform="rotate(269.0 494.9 299.1)"/>
    <path d="M 478.35300347240826,478.2501971952546 C 521.6057838594097,514.2941808510891 536.0233773217435,564.7557579692575 478.35300347240826,622.4261318185928 C 420.68262962307296,564.7557579692575 435.1002230854068,514.2941808510891 478.35300347240826,478.2501971952546 Z" fill="url(#leaf6)" opacity="0.34" transform="rotate(42.1 478.4 550.3)"/>
    <path d="M 1831.5920934598414,87.06361120431018 C 1855.6361581899334,107.10033181272017 1863.6508464332974,135.15174066449416 1831.5920934598414,167.21049363795015 C 1799.5333404863854,135.15174066449416 1807.5480287297494,107.10033181272017 1831.5920934598414,87.06361120431018 Z" fill="url(#leaf7)" opacity="0.25" transform="rotate(264.6 1831.6 127.1)"/>
    <path d="M 1063.3354866998125,767.4642867485469 C 1107.9239933577603,804.62137563017 1122.7868289104094,856.6413000644424 1063.3354866998125,916.0926422750393 C 1003.8841444892155,856.6413000644424 1018.7469800418647,804.62137563017 1063.3354866998125,767.4642867485469 Z" fill="url(#leaf8)" opacity="0.23" transform="rotate(125.7 1063.3 841.8)"/>
    <path d="M 1016.2545810280566,469.69906109321175 C 1068.7882050046774,513.4770810737291 1086.2994129968843,574.7663090464533 1016.2545810280566,644.8111410152811 C 946.2097490592288,574.7663090464533 963.7209570514358,513.4770810737291 1016.2545810280566,469.69906109321175 Z" fill="url(#leaf9)" opacity="0.29" transform="rotate(234.6 1016.3 557.3)"/>
    <path d="M 604.1744996222117,939.9085714624078 C 646.7813008983914,975.4142391925576 660.9835679904512,1025.1221740147673 604.1744996222117,1081.9312423830067 C 547.3654312539721,1025.1221740147673 561.567698346032,975.4142391925576 604.1744996222117,939.9085714624078 Z" fill="url(#leaf10)" opacity="0.39" transform="rotate(192.1 604.2 1010.9)"/>
    <path d="M 1194.8889412834408,84.74448669207683 C 1229.6262774613867,113.69226684036505 1241.2053895207018,154.21915904796856 1194.8889412834408,200.5356072852297 C 1148.5724930461797,154.21915904796856 1160.1516051054948,113.69226684036505 1194.8889412834408,84.74448669207683 Z" fill="url(#leaf11)" opacity="0.34" transform="rotate(229.9 1194.9 142.6)"/>
    <path d="M 960.3565329717646,248.30831967756797 C 1003.8313045834059,284.5372960206023 1018.3228951206196,335.25786290085034 960.3565329717646,393.2242250497053 C 902.3901708229097,335.25786290085034 916.8817613601234,284.5372960206023 960.3565329717646,248.30831967756797 Z" fill="url(#leaf12)" opacity="0.37" transform="rotate(304.9 960.4 320.8)"/>
    <path d="M 256.8214349923095,879.7212072407359 C 292.18991039800903,909.1949367454856 303.9794021999089,950.4581580521351 256.8214349923095,997.6161252597345 C 209.66346778471006,950.4581580521351 221.45295958660992,909.1949367454856 256.8214349923095,879.7212072407359 Z" fill="url(#leaf13)" opacity="0.32" transform="rotate(16.0 256.8 938.7)"/>
    <path d="M 1163.312074038725,664.599835672276 C 1201.1347081374154,696.1186974211846 1213.7422528369789,740.2451038696568 1163.312074038725,790.6752826679106 C 1112.8818952404713,740.2451038696568 1125.4894399400348,696.1186974211846 1163.312074038725,664.599835672276 Z" fill="url(#leaf14)" opacity="0.28" transform="rotate(301.2 1163.3 727.6)"/>
    <path d="M 1514.1423519819366,579.8380082403721 C 1542.0265671374673,603.0748542033144 1551.3213055226443,635.6064385514337 1514.1423519819366,672.7853920921414 C 1476.963398441229,635.6064385514337 1486.258136826406,603.0748542033144 1514.1423519819366,579.8380082403721 Z" fill="url(#leaf15)" opacity="0.27" transform="rotate(302.0 1514.1 626.3)"/>
    <path d="M 1719.8822843035764,806.9389434710552 C 1755.7048053425174,836.7910443368394 1767.645645688831,878.5839855489373 1719.8822843035764,926.347346934192 C 1672.1189229183217,878.5839855489373 1684.0597632646354,836.7910443368394 1719.8822843035764,806.9389434710552 Z" fill="url(#leaf16)" opacity="0.20" transform="rotate(221.8 1719.9 866.6)"/>
    <path d="M 1711.635462813655,262.3381183399589 C 1766.2267342677676,307.8308445517193 1784.4238247524718,371.52066124818384 1711.635462813655,444.30902318700043 C 1638.8471008748384,371.52066124818384 1657.0441913595425,307.8308445517193 1711.635462813655,262.3381183399589 Z" fill="url(#leaf17)" opacity="0.36" transform="rotate(338.8 1711.6 353.3)"/>
    <path d="M 1326.3989257434018,474.55766176830747 C 1366.6856413643204,508.12992478573955 1380.1145465712932,555.1310930101446 1326.3989257434018,608.846713838036 C 1272.6833049155105,555.1310930101446 1286.1122101224832,508.12992478573955 1326.3989257434018,474.55766176830747 Z" fill="url(#leaf18)" opacity="0.37" transform="rotate(341.9 1326.4 541.7)"/>
    <path d="M 998.2622987718968,484.1833275200902 C 1026.4340841320136,507.6598153201876 1035.8246792520526,540.5268982403239 998.2622987718968,578.0892787204798 C 960.6999182917409,540.5268982403239 970.0905134117799,507.6598153201876 998.2622987718968,484.1833275200902 Z" fill="url(#leaf19)" opacity="0.29" transform="rotate(53.8 998.3 531.1)"/>
    <path d="M 134.95865253727806,638.641671522061 C 164.09045963119405,662.9181774336575 173.8010619958327,696.905285709893 134.95865253727806,735.7476951684475 C 96.11624307872341,696.905285709893 105.82684544336207,662.9181774336575 134.95865253727806,638.641671522061 Z" fill="url(#leaf0)" opacity="0.22" transform="rotate(86.3 135.0 687.2)"/>
    <path d="M 1466.186244149567,945.8384983138294 C 1493.1899006073822,968.3415453620088 1502.191119426654,999.84581122946 1466.186244149567,1035.850686506547 C 1430.18136887248,999.84581122946 1439.182587691752,968.3415453620088 1466.186244149567,945.8384983138294 Z" fill="url(#leaf1)" opacity="0.30" transform="rotate(144.2 1466.2 990.8)"/>
    <path d="M 928.4722527170753,494.27752424917975 C 956.7548639878629,517.8463669748361 966.1824010781254,550.8427467907549 928.4722527170753,588.5528951518049 C 890.7621043560252,550.8427467907549 900.1896414462877,517.8463669748361 928.4722527170753,494.27752424917975 Z" fill="url(#leaf2)" opacity="0.27" transform="rotate(173.0 928.5 541.4)"/>
    <path d="M 729.1757019887351,567.4394263143298 C 776.4447385084095,606.8302900807251 792.2010840149677,661.9774993536786 729.1757019887351,725.0028813799112 C 666.1503199625025,661.9774993536786 681.9066654690607,606.8302900807251 729.1757019887351,567.4394263143298 Z" fill="url(#leaf3)" opacity="0.27" transform="rotate(82.6 729.2 646.2)"/>
    <path d="M 536.4060508112057,211.11932482596038 C 567.088519810014,236.68804899163396 577.3160094762834,272.48426282357696 536.4060508112057,313.39422148865464 C 495.4960921461279,272.48426282357696 505.72358181239736,236.68804899163396 536.4060508112057,211.11932482596038 Z" fill="url(#leaf4)" opacity="0.26" transform="rotate(247.7 536.4 262.3)"/>
    <path d="M 915.9669796208535,263.2026005004469 C 962.4638997787704,301.9500339653776 977.9628731647426,356.19644081628064 915.9669796208535,418.19233436016975 C 853.9710860769644,356.19644081628064 869.4700594629367,301.9500339653776 915.9669796208535,263.2026005004469 Z" fill="url(#leaf5)" opacity="0.39" transform="rotate(175.8 916.0 340.7)"/>
    <path d="M 1070.6615738119767,361.46610354439736 C 1124.9593999707504,406.7142920100421 1143.0586753570083,470.0617558619447 1070.6615738119767,542.4588574069762 C 998.2644722669452,470.0617558619447 1016.3637476532031,406.7142920100421 1070.6615738119767,361.46610354439736 Z" fill="url(#leaf6)" opacity="0.21" transform="rotate(176.7 1070.7 452.0)"/>
    <path d="M 184.64484357542068,408.09067872901164 C 235.1000324003945,450.1366694164898 251.91842867538577,509.0010563789592 184.64484357542068,576.2746414789243 C 117.3712584754556,509.0010563789592 134.18965475044686,450.1366694164898 184.64484357542068,408.09067872901164 Z" fill="url(#leaf7)" opacity="0.36" transform="rotate(200.5 184.6 492.2)"/>
    <path d="M 1692.930581195529,384.244367229974 C 1741.0367245841942,424.33282005386167 1757.0721057137491,480.45665400730434 1692.930581195529,544.5981785255245 C 1628.7890566773087,480.45665400730434 1644.8244378068637,424.33282005386167 1692.930581195529,384.244367229974 Z" fill="url(#leaf8)" opacity="0.36" transform="rotate(268.0 1692.9 464.4)"/>
    <path d="M 1844.6108745579772,605.5189458002901 C 1880.5202840563336,635.4434537155871 1892.4900872224523,677.3377647970028 1844.6108745579772,725.2169774614779 C 1796.7316618935022,677.3377647970028 1808.701465059621,635.4434537155871 1844.6108745579772,605.5189458002901 Z" fill="url(#leaf9)" opacity="0.39" transform="rotate(145.6 1844.6 665.4)"/>
    <path d="M 1719.7064091884884,673.6431501925821 C 1743.7078174229725,693.6443237213188 1751.7082868344671,721.6459666615502 1719.7064091884884,753.647844307529 C 1687.7045315425096,721.6459666615502 1695.7050009540042,693.6443237213188 1719.7064091884884,673.6431501925821 Z" fill="url(#leaf10)" opacity="0.34" transform="rotate(298.5 1719.7 713.6)"/>
    <path d="M 63.20427557215915,100.59165200813864 C 115.21330456911059,143.93250950559818 132.54964756809443,204.60971000204154 63.20427557215915,273.95508199797683 C -6.141096423776133,204.60971000204154 11.195246575207698,143.93250950559818 63.20427557215915,100.59165200813864 Z" fill="url(#leaf11)" opacity="0.30" transform="rotate(216.2 63.2 187.3)"/>
    <path d="M 559.791722653968,31.503734451771493 C 612.0327917409554,75.03795869092762 629.4464814366178,135.9858726257462 559.791722653968,205.64063140839602 C 490.1369638713182,135.9858726257462 507.55065356698066,75.03795869092762 559.791722653968,31.503734451771493 Z" fill="url(#leaf12)" opacity="0.25" transform="rotate(264.6 559.8 118.6)"/>
    <path d="M 1764.525542664172,891.4026741962091 C 1821.0960104331855,938.5447306703871 1839.9528330228568,1004.5436097342363 1764.525542664172,1079.970900092921 C 1689.0982523054872,1004.5436097342363 1707.9550748951585,938.5447306703871 1764.525542664172,891.4026741962091 Z" fill="url(#leaf13)" opacity="0.34" transform="rotate(355.6 1764.5 985.7)"/>
    <path d="M 712.5013147659363,669.4997558637459 C 751.7109081641931,702.1744170289599 764.7807726302788,747.9189426602595 712.5013147659363,800.1984005246019 C 660.2218569015938,747.9189426602595 673.2917213676794,702.1744170289599 712.5013147659363,669.4997558637459 Z" fill="url(#leaf14)" opacity="0.35" transform="rotate(146.0 712.5 734.8)"/>
    <path d="M 1310.167365491037,49.052915199259076 C 1365.3982592007214,95.07865995732946 1383.8085571039496,159.514702618628 1310.167365491037,233.15589423154063 C 1236.5261738781242,159.514702618628 1254.9364717813523,95.07865995732946 1310.167365491037,49.052915199259076 Z" fill="url(#leaf15)" opacity="0.38" transform="rotate(32.0 1310.2 141.1)"/>
    <path d="M 1455.7969368247618,-7.551257200916197 C 1495.881194563051,25.852290914324776 1509.2426138091473,72.61725827566214 1455.7969368247618,126.0629352600477 C 1402.3512598403763,72.61725827566214 1415.7126790864727,25.852290914324776 1455.7969368247618,-7.551257200916197 Z" fill="url(#leaf16)" opacity="0.39" transform="rotate(276.9 1455.8 59.3)"/>
    <path d="M 122.15872223470548,16.26914776931814 C 155.72522565682812,44.24123395442032 166.91406013086896,83.40215461356338 122.15872223470548,128.15749250972686 C 77.40338433854198,83.40215461356338 88.59221881258286,44.24123395442032 122.15872223470548,16.26914776931814 Z" fill="url(#leaf17)" opacity="0.38" transform="rotate(123.6 122.2 72.2)"/>
    <path d="M 1337.2426719689258,282.0800048438535 C 1383.1029556364474,320.29690790012137 1398.3897168589544,373.80057217889646 1337.2426719689258,434.9476170689251 C 1276.0956270788972,373.80057217889646 1291.3823883014043,320.29690790012137 1337.2426719689258,282.0800048438535 Z" fill="url(#leaf18)" opacity="0.32" transform="rotate(171.3 1337.2 358.5)"/>
    <path d="M 1739.058242608157,766.70349042151 C 1780.413847947726,801.1664948711509 1794.1990497275824,849.4147011006481 1739.058242608157,904.5555082200735 C 1683.9174354887314,849.4147011006481 1697.7026372685878,801.1664948711509 1739.058242608157,766.70349042151 Z" fill="url(#leaf19)" opacity="0.21" transform="rotate(163.3 1739.1 835.6)"/>
    <path d="M 325.6535410519439,201.127322228183 C 358.33830837115755,228.36462832752773 369.2332308108954,266.49685686661036 325.6535410519439,310.0765466255619 C 282.07385129299234,266.49685686661036 292.9687737327302,228.36462832752773 325.6535410519439,201.127322228183 Z" fill="url(#leaf0)" opacity="0.26" transform="rotate(166.4 325.7 255.6)"/>
    <path d="M 174.6191556789713,406.7440543991875 C 220.67854517159165,445.12687897637113 236.03167500246508,498.8628333844282 174.6191556789713,560.2753527079219 C 113.20663635547753,498.8628333844282 128.55976618635097,445.12687897637113 174.6191556789713,406.7440543991875 Z" fill="url(#leaf1)" opacity="0.20" transform="rotate(335.9 174.6 483.5)"/>
    <path d="M 1521.1482036588588,101.69203629241518 C 1557.2229296525447,131.7543079538201 1569.2478383171067,173.84148827978697 1521.1482036588588,221.94112293803482 C 1473.048569000611,173.84148827978697 1485.073477665173,131.7543079538201 1521.1482036588588,101.69203629241518 Z" fill="url(#leaf2)" opacity="0.37" transform="rotate(189.6 1521.1 161.8)"/>
    <path d="M 1253.0000016863517,490.751324160332 C 1305.4435412192886,534.4542737711129 1322.924721063601,595.638403226206 1253.0000016863517,665.5631226034554 C 1183.0752823091022,595.638403226206 1200.5564621534147,534.4542737711129 1253.0000016863517,490.751324160332 Z" fill="url(#leaf3)" opacity="0.40" transform="rotate(116.2 1253.0 578.2)"/>
    <path d="M 109.60968068833462,699.1920914006514 C 166.12541744420298,746.2885386972083 184.96399636282575,812.2235649123882 109.60968068833462,887.5778805868792 C 34.25536501384347,812.2235649123882 53.09394393246626,746.2885386972083 109.60968068833462,699.1920914006514 Z" fill="url(#leaf4)" opacity="0.31" transform="rotate(308.3 109.6 793.4)"/>
    <path d="M 1801.2660958366776,703.8049654758449 C 1848.6489501573742,743.2906774097588 1864.4432349309398,798.5706741172382 1801.2660958366776,861.7478132115004 C 1738.0889567424153,798.5706741172382 1753.883241515981,743.2906774097588 1801.2660958366776,703.8049654758449 Z" fill="url(#leaf5)" opacity="0.37" transform="rotate(178.0 1801.3 782.8)"/>
    <path d="M 1654.1595224398866,785.5287425494788 C 1681.69894642691,808.478262538665 1690.8787544225845,840.6075905235258 1654.1595224398866,877.3268225062237 C 1617.4402904571887,840.6075905235258 1626.6200984528632,808.478262538665 1654.1595224398866,785.5287425494788 Z" fill="url(#leaf6)" opacity="0.30" transform="rotate(175.1 1654.2 831.4)"/>
    <path d="M 709.374284697563,699.900111612422 C 748.9428104060139,732.8738830361311 762.1323189754975,779.0371630293239 709.374284697563,831.7951973072584 C 656.6162504196285,779.0371630293239 669.8057589891121,732.8738830361311 709.374284697563,699.900111612422 Z" fill="url(#leaf7)" opacity="0.30" transform="rotate(204.1 709.4 765.8)"/>
    <path d="M 394.9536873191162,-4.532239299929259 C 451.7761217425517,42.819789386266976 470.7169332170302,109.1126295469417 394.9536873191162,184.8758754448557 C 319.19044142120225,109.1126295469417 338.13125289568075,42.819789386266976 394.9536873191162,-4.532239299929259 Z" fill="url(#leaf8)" opacity="0.33" transform="rotate(321.6 395.0 90.2)"/>
    <path d="M 700.6181092784122,540.4763430616179 C 735.7463931125719,569.7499129234176 747.4558210572918,610.7329107299372 700.6181092784122,657.5706225088168 C 653.7803974995327,610.7329107299372 665.4898254442526,569.7499129234176 700.6181092784122,540.4763430616179 Z" fill="url(#leaf9)" opacity="0.24" transform="rotate(168.6 700.6 599.0)"/>
    <path d="M 1466.6443565328073,35.740266258102615 C 1493.5255489014426,58.141259898632 1502.4859463576543,89.50265099537313 1466.6443565328073,125.34424082022014 C 1430.8027667079602,89.50265099537313 1439.763164164172,58.141259898632 1466.6443565328073,35.740266258102615 Z" fill="url(#leaf10)" opacity="0.31" transform="rotate(16.2 1466.6 80.5)"/>
    <path d="M 915.2642985368008,914.2848799791914 C 939.4170413585745,934.4121656640028 947.4679556324991,962.5903656227389 915.2642985368008,994.7940227184372 C 883.0606414411025,962.5903656227389 891.1115557150271,934.4121656640028 915.2642985368008,914.2848799791914 Z" fill="url(#leaf11)" opacity="0.35" transform="rotate(194.3 915.3 954.5)"/>
    <path d="M 645.9279507610943,537.8491178017528 C 699.3403397198691,582.3594419340651 717.144469372794,644.6738957193024 645.9279507610943,715.8904143310021 C 574.7114321493946,644.6738957193024 592.5155618023194,582.3594419340651 645.9279507610943,537.8491178017528 Z" fill="url(#leaf12)" opacity="0.36" transform="rotate(249.2 645.9 626.9)"/>
    <path d="M 414.2160736308086,709.8641752099882 C 450.08071719630107,739.7513781812319 462.03559838479856,781.593462340973 414.2160736308086,829.412987094963 C 366.3965488768186,781.593462340973 378.3514300653161,739.7513781812319 414.2160736308086,709.8641752099882 Z" fill="url(#leaf13)" opacity="0.38" transform="rotate(40.3 414.2 769.6)"/>
    <path d="M 1148.327083062215,6.0147586615703545 C 1175.3997548302825,28.575318468293297 1184.4239787529718,60.16010219770541 1148.327083062215,96.25699788846212 C 1112.2301873714582,60.16010219770541 1121.2544112941475,28.575318468293297 1148.327083062215,6.0147586615703545 Z" fill="url(#leaf14)" opacity="0.39" transform="rotate(216.3 1148.3 51.1)"/>
    <path d="M 761.9177397909206,294.29129506602663 C 793.8940032060335,320.9381812452874 804.5527576777379,358.2438218962525 761.9177397909206,400.87883978306974 C 719.2827219041033,358.2438218962525 729.9414763758076,320.9381812452874 761.9177397909206,294.29129506602663 Z" fill="url(#leaf15)" opacity="0.30" transform="rotate(181.9 761.9 347.6)"/>
    <path d="M 86.2789548341893,843.034514914396 C 123.95295132032166,874.429511986173 136.51095014903245,918.3825078866607 86.2789548341893,968.6145032015039 C 36.04695951934616,918.3825078866607 48.604958348056954,874.429511986173 86.2789548341893,843.034514914396 Z" fill="url(#leaf16)" opacity="0.27" transform="rotate(322.2 86.3 905.8)"/>
    <path d="M 1173.846085537707,646.556212335882 C 1212.2121060563654,678.5278961014308 1225.000779562585,723.2882533731988 1173.846085537707,774.4429473980767 C 1122.6913915128291,723.2882533731988 1135.4800650190487,678.5278961014308 1173.846085537707,646.556212335882 Z" fill="url(#leaf17)" opacity="0.38" transform="rotate(106.0 1173.8 710.5)"/>
    <path d="M 1518.6085849544697,955.9437067367593 C 1559.6924120773083,990.1802293391247 1573.3870211182546,1038.1113609824365 1518.6085849544697,1092.8897971462213 C 1463.830148790685,1038.1113609824365 1477.5247578316312,990.1802293391247 1518.6085849544697,955.9437067367593 Z" fill="url(#leaf18)" opacity="0.29" transform="rotate(289.9 1518.6 1024.4)"/>
    <path d="M 1739.7458932820516,12.604485188533715 C 1784.849331111049,50.190683379364785 1799.8838103873813,102.81136084652829 1739.7458932820516,162.949277951858 C 1679.6079761767219,102.81136084652829 1694.6424554530543,50.190683379364785 1739.7458932820516,12.604485188533715 Z" fill="url(#leaf19)" opacity="0.38" transform="rotate(61.7 1739.7 87.8)"/>
    <path d="M 1018.6266689368326,138.61730873573092 C 1042.671406010345,158.6545896303245 1050.6863183681824,186.7067828827555 1018.6266689368326,218.76643231410523 C 986.5670195054829,186.7067828827555 994.5819318633203,158.6545896303245 1018.6266689368326,138.61730873573092 Z" fill="url(#leaf0)" opacity="0.36" transform="rotate(203.3 1018.6 178.7)"/>
    <path d="M 1750.207389919306,214.67987901071405 C 1777.9980290509743,237.838744953771 1787.2615754281971,270.26115727405073 1750.207389919306,307.31534278294185 C 1713.153204410415,270.26115727405073 1722.4167507876377,237.838744953771 1750.207389919306,214.67987901071405 Z" fill="url(#leaf1)" opacity="0.38" transform="rotate(20.9 1750.2 261.0)"/>
    <path d="M 748.4572705220494,774.2600909719439 C 780.1312144666525,800.6550442591132 790.6891957815203,837.6079788611502 748.4572705220494,879.8399041206211 C 706.2253452625785,837.6079788611502 716.7833265774462,800.6550442591132 748.4572705220494,774.2600909719439 Z" fill="url(#leaf2)" opacity="0.39" transform="rotate(53.1 748.5 827.0)"/>
    <path d="M 1044.0536353930813,926.4888114193575 C 1072.3208205722174,950.0447990686376 1081.7432156319294,983.0231817776297 1044.0536353930813,1020.7127620164779 C 1006.3640551542331,983.0231817776297 1015.7864502139453,950.0447990686376 1044.0536353930813,926.4888114193575 Z" fill="url(#leaf3)" opacity="0.22" transform="rotate(267.9 1044.1 973.6)"/>
    <path d="M 416.131367282398,120.95605670320829 C 471.9101191302276,167.43834990973295 490.50303641283745,232.5135603988675 416.131367282398,306.88522952930697 C 341.75969815195856,232.5135603988675 360.3526154345684,167.43834990973295 416.131367282398,120.95605670320829 Z" fill="url(#leaf4)" opacity="0.25" transform="rotate(329.6 416.1 213.9)"/>
    <path d="M 1659.3477543971178,141.75298072053772 C 1706.1063521716312,180.71847886596558 1721.6925514298023,235.2701762695646 1659.3477543971178,297.61497330224915 C 1597.0029573644333,235.2701762695646 1612.5891566226044,180.71847886596558 1659.3477543971178,141.75298072053772 Z" fill="url(#leaf5)" opacity="0.32" transform="rotate(199.7 1659.3 219.7)"/>
    <path d="M 1830.7223221993345,284.50101519394696 C 1860.2572021557237,309.1134151576047 1870.102162141187,343.57077510672553 1830.7223221993345,382.9506150485779 C 1791.342482257482,343.57077510672553 1801.1874422429453,309.1134151576047 1830.7223221993345,284.50101519394696 Z" fill="url(#leaf6)" opacity="0.26" transform="rotate(113.0 1830.7 333.7)"/>
    <path d="M 231.79819913971946,664.0300926886607 C 289.4007572003936,712.0322244058891 308.601609887285,779.235208810009 231.79819913971946,856.0386195575745 C 154.9947883921539,779.235208810009 174.1956410790453,712.0322244058891 231.79819913971946,664.0300926886607 Z" fill="url(#leaf7)" opacity="0.31" transform="rotate(157.4 231.8 760.0)"/>
    <path d="M 1082.3845348872303,31.554015691771887 C 1110.1746777597555,54.71246808554295 1119.438058717264,87.13430143682243 1082.3845348872303,124.18782526685612 C 1045.3310110571965,87.13430143682243 1054.5943920147051,54.71246808554295 1082.3845348872303,31.554015691771887 Z" fill="url(#leaf8)" opacity="0.34" transform="rotate(202.6 1082.4 77.9)"/>
    <path d="M 1826.9239696626903,410.07885289798907 C 1875.21701417249,450.3230566561555 1891.3146956757566,506.6649419175885 1826.9239696626903,571.0556679306549 C 1762.533243649624,506.6649419175885 1778.6309251528905,450.3230566561555 1826.9239696626903,410.07885289798907 Z" fill="url(#leaf9)" opacity="0.25" transform="rotate(320.0 1826.9 490.6)"/>
    <path d="M 668.6183818715467,66.95949104521378 C 726.186961622976,114.93330750473824 745.3764882067859,182.0966505480725 668.6183818715467,258.8547568833116 C 591.8602755363075,182.0966505480725 611.0498021201174,114.93330750473824 668.6183818715467,66.95949104521378 Z" fill="url(#leaf10)" opacity="0.34" transform="rotate(118.6 668.6 162.9)"/>
    <path d="M 353.69151166939633,543.2361830500971 C 408.1239739770158,588.5965683064467 426.26812807955565,652.101107665336 353.69151166939633,724.6777240754953 C 281.114895259237,652.101107665336 299.2590493617769,588.5965683064467 353.69151166939633,543.2361830500971 Z" fill="url(#leaf11)" opacity="0.38" transform="rotate(100.6 353.7 634.0)"/>
    <path d="M 1272.1123778071617,603.372061653687 C 1329.415272051223,651.1244735237381 1348.5162367992434,717.9778501418097 1272.1123778071617,794.3817091338914 C 1195.70851881508,717.9778501418097 1214.8094835631005,651.1244735237381 1272.1123778071617,603.372061653687 Z" fill="url(#leaf12)" opacity="0.30" transform="rotate(320.1 1272.1 698.9)"/>
    <path d="M 647.6954632847948,764.9938122385088 C 705.5603851135606,813.214580429147 724.8486923898159,880.7236558960406 647.6954632847948,957.8768850010617 C 570.5422341797736,880.7236558960406 589.8305414560289,813.214580429147 647.6954632847948,764.9938122385088 Z" fill="url(#leaf13)" opacity="0.22" transform="rotate(59.9 647.7 861.4)"/>
    <path d="M 146.3590000252844,228.6437458632173 C 202.86827253368497,275.73480628688446 221.70469670315185,341.6622908800185 146.3590000252844,417.00798755788594 C 71.01330334741694,341.6622908800185 89.8497275168838,275.73480628688446 146.3590000252844,228.6437458632173 Z" fill="url(#leaf14)" opacity="0.26" transform="rotate(340.9 146.4 322.8)"/>
    <path d="M 1655.9463914594392,597.3886384912294 C 1715.5057606313671,647.0214461345026 1735.3588836886765,716.5073768350852 1655.9463914594392,795.9198690643225 C 1576.5338992302018,716.5073768350852 1596.3870222875112,647.0214461345026 1655.9463914594392,597.3886384912294 Z" fill="url(#leaf15)" opacity="0.29" transform="rotate(23.2 1655.9 696.7)"/>
    <path d="M 472.71547660539375,284.4846735148301 C 508.16491292991645,314.02587045193235 519.9813917047574,355.3835461638755 472.71547660539375,402.6494612632391 C 425.44956150603014,355.3835461638755 437.26604028087104,314.02587045193235 472.71547660539375,284.4846735148301 Z" fill="url(#leaf16)" opacity="0.29" transform="rotate(130.2 472.7 343.6)"/>
    <path d="M 1864.4506669491602,-13.366121925573296 C 1914.3013222947088,28.17609086238385 1930.9182074098917,86.33518876552387 1864.4506669491602,152.80272922625528 C 1797.9831264884288,86.33518876552387 1814.6000116036116,28.17609086238385 1864.4506669491602,-13.366121925573296 Z" fill="url(#leaf17)" opacity="0.25" transform="rotate(157.7 1864.5 69.7)"/>
    <path d="M 1011.6068405749455,250.18674766775018 C 1059.1615207298778,289.81564779686045 1075.013080781522,345.29610797761484 1011.6068405749455,408.70234818419124 C 948.2006003683691,345.29610797761484 964.0521604200133,289.81564779686045 1011.6068405749455,250.18674766775018 Z" fill="url(#leaf18)" opacity="0.37" transform="rotate(257.2 1011.6 329.4)"/>
    <path d="M 248.0060897011195,-8.560057010693725 C 289.14774821835715,25.72465842033764 302.86163439076967,73.72326002378155 248.0060897011195,128.57880471343174 C 193.15054501146932,73.72326002378155 206.86443118388186,25.72465842033764 248.0060897011195,-8.560057010693725 Z" fill="url(#leaf19)" opacity="0.37" transform="rotate(335.0 248.0 60.0)"/>
  </g>

  <!-- Central star shape -->
  <polygon points="960.0,301.2 1030.2,443.4 1187.1,466.2 1073.6,576.9 1100.4,733.2 960.0,659.4 819.6,733.2 846.4,576.9 732.9,466.2 889.8,443.4" 
           fill="#4ECDC4" 
           transform="rotate(308.4 960.0 540.0)"/>
</svg>