<?xml version="1.0" encoding="UTF-8"?>
<svg xmlns="http://www.w3.org/2000/svg" viewBox="0 0 1920 1080" width="1920" height="1080">
  <defs>
    <linearGradient id="bgGrad" x1="0%" y1="0%" x2="100%" y2="100%">
      <stop offset="0%" stop-color="#00CED1"/>
      <stop offset="100%" stop-color="#45B7D1"/>
    </linearGradient>
    <clipPath id="complexClip"><polygon points="1301.2,540.0 1321.8,583.3 1284.9,621.4 1300.1,679.0 1334.4,773.9 1226.1,799.2 1124.9,825.5 1019.6,858.7 900.4,859.1 843.9,741.0 756.0,738.7 702.2,701.0 632.8,673.7 444.2,669.2 601.6,582.9 416.2,540.0 496.0,484.5 591.5,447.7 562.4,377.5 620.9,328.2 731.8,317.7 852.7,354.2 917.0,309.9 1012.6,258.6 1099.9,297.7 1221.6,285.1 1307.2,323.1 1258.3,418.1 1463.5,413.9 1375.1,490.4"/></clipPath>
    <radialGradient id="leaf0" cx="50%" cy="50%" r="70%">
      <stop offset="0%" stop-color="#00FA9A"/>
      <stop offset="50%" stop-color="#7B68EE"/>
      <stop offset="100%" stop-color="#FFE66D"/>
    </radialGradient>
    <radialGradient id="leaf1" cx="50%" cy="50%" r="70%">
      <stop offset="0%" stop-color="#32CD32"/>
      <stop offset="50%" stop-color="#9370DB"/>
      <stop offset="100%" stop-color="#FF4500"/>
    </radialGradient>
    <radialGradient id="leaf2" cx="50%" cy="50%" r="70%">
      <stop offset="0%" stop-color="#45B7D1"/>
      <stop offset="50%" stop-color="#FF4500"/>
      <stop offset="100%" stop-color="#DC143C"/>
    </radialGradient>
    <radialGradient id="leaf3" cx="50%" cy="50%" r="70%">
      <stop offset="0%" stop-color="#45B7D1"/>
      <stop offset="50%" stop-color="#32CD32"/>
      <stop offset="100%" stop-color="#FFD700"/>
    </radialGradient>
    <radialGradient id="leaf4" cx="50%" cy="50%" r="70%">
      <stop offset="0%" stop-color="#FF4500"/>
      <stop offset="50%" stop-color="#00CED1"/>
      <stop offset="100%" stop-color="#FF69B4"/>
    </radialGradient>
    <radialGradient id="leaf5" cx="50%" cy="50%" r="70%">
      <stop offset="0%" stop-color="#4ECDC4"/>
      <stop offset="50%" stop-color="#FF6B6B"/>
      <stop offset="100%" stop-color="#FF69B4"/>
    </radialGradient>
    <radialGradient id="leaf6" cx="50%" cy="50%" r="70%">
      <stop offset="0%" stop-color="#32CD32"/>
      <stop offset="50%" stop-color="#45B7D1"/>
      <stop offset="100%" stop-color="#FF6B6B"/>
    </radialGradient>
    <radialGradient id="leaf7" cx="50%" cy="50%" r="70%">
      <stop offset="0%" stop-color="#FF6B6B"/>
      <stop offset="50%" stop-color="#00CED1"/>
      <stop offset="100%" stop-color="#45B7D1"/>
    </radialGradient>
    <radialGradient id="leaf8" cx="50%" cy="50%" r="70%">
      <stop offset="0%" stop-color="#7B68EE"/>
      <stop offset="50%" stop-color="#DC143C"/>
      <stop offset="100%" stop-color="#4ECDC4"/>
    </radialGradient>
    <radialGradient id="leaf9" cx="50%" cy="50%" r="70%">
      <stop offset="0%" stop-color="#FFD700"/>
      <stop offset="50%" stop-color="#FF1493"/>
      <stop offset="100%" stop-color="#32CD32"/>
    </radialGradient>
    <radialGradient id="leaf10" cx="50%" cy="50%" r="70%">
      <stop offset="0%" stop-color="#DC143C"/>
      <stop offset="50%" stop-color="#96E6A1"/>
      <stop offset="100%" stop-color="#9370DB"/>
    </radialGradient>
    <radialGradient id="leaf11" cx="50%" cy="50%" r="70%">
      <stop offset="0%" stop-color="#7B68EE"/>
      <stop offset="50%" stop-color="#00CED1"/>
      <stop offset="100%" stop-color="#FF4500"/>
    </radialGradient>
    <radialGradient id="leaf12" cx="50%" cy="50%" r="70%">
      <stop offset="0%" stop-color="#7B68EE"/>
      <stop offset="50%" stop-color="#45B7D1"/>
      <stop offset="100%" stop-color="#00FA9A"/>
    </radialGradient>
    <radialGradient id="leaf13" cx="50%" cy="50%" r="70%">
      <stop offset="0%" stop-color="#4ECDC4"/>
      <stop offset="50%" stop-color="#FF4500"/>
      <stop offset="100%" stop-color="#45B7D1"/>
    </radialGradient>
    <radialGradient id="leaf14" cx="50%" cy="50%" r="70%">
      <stop offset="0%" stop-color="#FF69B4"/>
      <stop offset="50%" stop-color="#FF4500"/>
      <stop offset="100%" stop-color="#00CED1"/>
    </radialGradient>
    <radialGradient id="leaf15" cx="50%" cy="50%" r="70%">
      <stop offset="0%" stop-color="#FFD700"/>
      <stop offset="50%" stop-color="#4ECDC4"/>
      <stop offset="100%" stop-color="#FFE66D"/>
    </radialGradient>
    <radialGradient id="leaf16" cx="50%" cy="50%" r="70%">
      <stop offset="0%" stop-color="#9370DB"/>
      <stop offset="50%" stop-color="#FFE66D"/>
      <stop offset="100%" stop-color="#45B7D1"/>
    </radialGradient>
    <radialGradient id="leaf17" cx="50%" cy="50%" r="70%">
      <stop offset="0%" stop-color="#FF6B6B"/>
      <stop offset="50%" stop-color="#FF1493"/>
      <stop offset="100%" stop-color="#4ECDC4"/>
    </radialGradient>
    <radialGradient id="leaf18" cx="50%" cy="50%" r="70%">
      <stop offset="0%" stop-color="#4ECDC4"/>
      <stop offset="50%" stop-color="#FF4500"/>
      <stop offset="100%" stop-color="#96E6A1"/>
    </radialGradient>
    <radialGradient id="leaf19" cx="50%" cy="50%" r="70%">
      <stop offset="0%" stop-color="#DC143C"/>
      <stop offset="50%" stop-color="#FF4500"/>
      <stop offset="100%" stop-color="#FF69B4"/>
    </radialGradient>
  </defs>

  <!-- Background -->
  <rect width="1920" height="1080" fill="url(#bgGrad)"/>
  
  <!-- Leaves with clip-path -->
  <g clip-path="url(#complexClip)">
    <path d="M 1425.0266260046571,222.0306268574555 C 1460.8922010412275,251.9186060545975 1472.8473927200844,293.7617769305963 1425.0266260046571,341.58254364602345 C 1377.20585928923,293.7617769305963 1389.1610509680868,251.9186060545975 1425.0266260046571,222.0306268574555 Z" fill="url(#leaf0)" opacity="0.25" transform="rotate(165.3 1425.0 281.8)"/>
    <path d="M 915.9971908676997,197.63146501848877 C 969.989533465346,242.62508384986066 987.9869809978948,305.6161502137813 915.9971908676997,377.60594034397633 C 844.0074007375047,305.6161502137813 862.0048482700535,242.62508384986066 915.9971908676997,197.63146501848877 Z" fill="url(#leaf1)" opacity="0.21" transform="rotate(250.1 916.0 287.6)"/>
    <path d="M 1499.3091632244218,876.380909306495 C 1548.5380439608725,917.4049765868706 1564.9476708730226,974.8386707793964 1499.3091632244218,1040.4771784279974 C 1433.670655575821,974.8386707793964 1450.080282487971,917.4049765868706 1499.3091632244218,876.380909306495 Z" fill="url(#leaf2)" opacity="0.23" transform="rotate(84.9 1499.3 958.4)"/>
    <path d="M 1322.7120926121374,594.341158883059 C 1379.4829224670436,641.6501837621474 1398.4065324186788,707.8828185928712 1322.7120926121374,783.5772583994126 C 1247.017652805596,707.8828185928712 1265.9412627572312,641.6501837621474 1322.7120926121374,594.341158883059 Z" fill="url(#leaf3)" opacity="0.33" transform="rotate(352.2 1322.7 689.0)"/>
    <path d="M 1165.569967351632,671.3443368657512 C 1203.8318505141397,703.2292395011742 1216.5858115683088,747.8681031907664 1165.569967351632,798.8839474074433 C 1114.554123134955,747.8681031907664 1127.3080841891242,703.2292395011742 1165.569967351632,671.3443368657512 Z" fill="url(#leaf4)" opacity="0.30" transform="rotate(329.6 1165.6 735.1)"/>
    <path d="M 691.7280913573002,406.4339912385101 C 740.9341724463131,447.43905881268756 757.3361994759841,504.846153416536 691.7280913573002,570.45426153522 C 626.1199832386162,504.846153416536 642.5220102682872,447.43905881268756 691.7280913573002,406.4339912385101 Z" fill="url(#leaf5)" opacity="0.31" transform="rotate(144.0 691.7 488.4)"/>
    <path d="M 1533.2495161190643,141.21075010007058 C 1561.7860938709243,164.99123155995403 1571.2982864548778,198.28390560379086 1533.2495161190643,236.33267593960437 C 1495.2007457832508,198.28390560379086 1504.7129383672043,164.99123155995403 1533.2495161190643,141.21075010007058 Z" fill="url(#leaf6)" opacity="0.34" transform="rotate(347.7 1533.2 188.8)"/>
    <path d="M 1271.7403302777352,753.1043377661967 C 1309.7143490212327,784.749353385778 1322.3723552690653,829.0523752531918 1271.7403302777352,879.6844002445218 C 1221.108305286405,829.0523752531918 1233.7663115342377,784.749353385778 1271.7403302777352,753.1043377661967 Z" fill="url(#leaf7)" opacity="0.29" transform="rotate(193.0 1271.7 816.4)"/>
    <path d="M 1506.7849893373148,651.7098017678427 C 1550.484470080881,688.1260357208145 1565.0509636620695,739.108763254975 1506.7849893373148,797.3747375797298 C 1448.51901501256,739.108763254975 1463.0855085937485,688.1260357208145 1506.7849893373148,651.7098017678427 Z" fill="url(#leaf8)" opacity="0.26" transform="rotate(341.9 1506.8 724.5)"/>
    <path d="M 746.182240063699,529.4512806246975 C 802.3815180372661,576.2840122693367 821.1146106951219,641.8498365718316 746.182240063699,716.7822072032544 C 671.2498694322762,641.8498365718316 689.982962090132,576.2840122693367 746.182240063699,529.4512806246975 Z" fill="url(#leaf9)" opacity="0.24" transform="rotate(132.3 746.2 623.1)"/>
    <path d="M 601.3143133268803,556.00225655778 C 641.4134521891538,589.4182056096745 654.7798318099115,636.2005342823268 601.3143133268803,689.6660527653579 C 547.8487948438492,636.2005342823268 561.2151744646069,589.4182056096745 601.3143133268803,556.00225655778 Z" fill="url(#leaf10)" opacity="0.29" transform="rotate(47.4 601.3 622.8)"/>
    <path d="M 1183.5973920922738,613.7697466293257 C 1209.985808801067,635.7600938866533 1218.781947703998,666.5465800469118 1183.5973920922738,701.7311356586358 C 1148.4128364805497,666.5465800469118 1157.2089753834807,635.7600938866533 1183.5973920922738,613.7697466293257 Z" fill="url(#leaf11)" opacity="0.30" transform="rotate(6.9 1183.6 657.8)"/>
    <path d="M 707.0158248114925,359.9091768117872 C 731.3017310938077,380.14743204704985 739.3970331879128,408.4809893764176 707.0158248114925,440.86219775283786 C 674.6346164350722,408.4809893764176 682.7299185291773,380.14743204704985 707.0158248114925,359.9091768117872 Z" fill="url(#leaf12)" opacity="0.35" transform="rotate(79.1 707.0 400.4)"/>
    <path d="M 766.7183988349403,507.2281103203111 C 800.7013022191743,535.5471964738393 812.0289366805855,575.1939170887789 766.7183988349403,620.5044549344241 C 721.4078609892952,575.1939170887789 732.7354954507064,535.5471964738393 766.7183988349403,507.2281103203111 Z" fill="url(#leaf13)" opacity="0.39" transform="rotate(296.6 766.7 563.9)"/>
    <path d="M 1543.5143502878718,631.6917275420512 C 1575.0194078618697,657.9459421870496 1585.521093719869,694.7018426900471 1543.5143502878718,736.7085861220444 C 1501.5076068558747,694.7018426900471 1512.009292713874,657.9459421870496 1543.5143502878718,631.6917275420512 Z" fill="url(#leaf14)" opacity="0.24" transform="rotate(16.6 1543.5 684.2)"/>
    <path d="M 199.5189588375607,407.3570264610084 C 226.71590299319107,430.02114659070037 235.78155104506786,461.75091477226914 199.5189588375607,498.0135069797763 C 163.25636663005352,461.75091477226914 172.3220146819303,430.02114659070037 199.5189588375607,407.3570264610084 Z" fill="url(#leaf15)" opacity="0.33" transform="rotate(176.2 199.5 452.7)"/>
    <path d="M 928.498047091623,404.11125447429544 C 966.6660636065369,435.9179349033904 979.3887357781749,480.4472875041234 928.498047091623,531.3379761906754 C 877.6073584050711,480.4472875041234 890.3300305767091,435.9179349033904 928.498047091623,404.11125447429544 Z" fill="url(#leaf16)" opacity="0.34" transform="rotate(174.8 928.5 467.7)"/>
    <path d="M 654.241703673306,136.77709371051196 C 696.7128039995152,172.1696773156863 710.869837441585,221.7192943629304 654.241703673306,278.34742813120937 C 597.613569905027,221.7192943629304 611.7706033470968,172.1696773156863 654.241703673306,136.77709371051196 Z" fill="url(#leaf17)" opacity="0.22" transform="rotate(141.6 654.2 207.6)"/>
    <path d="M 449.539189236857,664.3360817949455 C 502.52227224783354,708.4886509707592 520.183299918159,770.3022478168986 449.539189236857,840.9463584982005 C 378.89507855555496,770.3022478168986 396.55610622588046,708.4886509707592 449.539189236857,664.3360817949455 Z" fill="url(#leaf18)" opacity="0.32" transform="rotate(129.2 449.5 752.6)"/>
    <path d="M 941.0393039970792,797.9064867779321 C 967.1284764870293,819.6474638528905 975.8248673170127,850.0848317578323 941.0393039970792,884.8703950777658 C 906.2537406771456,850.0848317578323 914.9501315071291,819.6474638528905 941.0393039970792,797.9064867779321 Z" fill="url(#leaf19)" opacity="0.39" transform="rotate(41.9 941.0 841.4)"/>
    <path d="M 1618.4359799582328,618.4222612302292 C 1661.3199759289287,654.1589245391423 1675.6146412524938,704.1902531716207 1618.4359799582328,761.3689144658817 C 1561.2573186639718,704.1902531716207 1575.551983987537,654.1589245391423 1618.4359799582328,618.4222612302292 Z" fill="url(#leaf0)" opacity="0.22" transform="rotate(188.4 1618.4 689.9)"/>
    <path d="M 432.62715319421307,956.5045315115466 C 458.6803091809238,978.2154948338055 467.36469450982736,1008.610843484968 432.62715319421307,1043.3483848005824 C 397.88961187859877,1008.610843484968 406.5739972075023,978.2154948338055 432.62715319421307,956.5045315115466 Z" fill="url(#leaf1)" opacity="0.37" transform="rotate(156.3 432.6 999.9)"/>
    <path d="M 1593.2934549611423,648.2549623688072 C 1634.0824599173811,682.2457998323397 1647.6787949027942,729.8329722812849 1593.2934549611423,784.2183122229368 C 1538.9081150194904,729.8329722812849 1552.5044500049034,682.2457998323397 1593.2934549611423,648.2549623688072 Z" fill="url(#leaf2)" opacity="0.32" transform="rotate(6.1 1593.3 716.2)"/>
    <path d="M 537.1276371655507,968.9464576526158 C 570.9617481968768,997.1415501787208 582.2397852073187,1036.6146797152678 537.1276371655507,1081.726827757036 C 492.01548912378263,1036.6146797152678 503.29352613422463,997.1415501787208 537.1276371655507,968.9464576526158 Z" fill="url(#leaf3)" opacity="0.39" transform="rotate(78.5 537.1 1025.3)"/>
    <path d="M 352.5060288955282,907.4418828298907 C 411.15939140462336,956.3196849208034 430.7105122409884,1024.748607848081 352.5060288955282,1102.9530911935412 C 274.30154555006794,1024.748607848081 293.852666386433,956.3196849208034 352.5060288955282,907.4418828298907 Z" fill="url(#leaf4)" opacity="0.21" transform="rotate(284.1 352.5 1005.2)"/>
    <path d="M 1006.2419378626772,956.7464436025871 C 1035.103331701646,980.7976051350611 1044.7237963146358,1014.4692312805248 1006.2419378626772,1052.9510897324833 C 967.7600794107187,1014.4692312805248 977.3805440237084,980.7976051350611 1006.2419378626772,956.7464436025871 Z" fill="url(#leaf5)" opacity="0.25" transform="rotate(337.2 1006.2 1004.8)"/>
    <path d="M 205.64733910010045,141.99310400921536 C 253.3825325238905,181.7724318623737 269.29426366515384,237.46349085679543 205.64733910010045,301.1104154218488 C 142.00041453504707,237.46349085679543 157.91214567631042,181.7724318623737 205.64733910010045,141.99310400921536 Z" fill="url(#leaf6)" opacity="0.32" transform="rotate(5.0 205.6 221.6)"/>
    <path d="M 1266.1908185727928,877.8712338863736 C 1308.022629211107,912.7310760849688 1321.9665660905448,961.5348551630019 1266.1908185727928,1017.3106026807541 C 1210.4150710550407,961.5348551630019 1224.3590079344785,912.7310760849688 1266.1908185727928,877.8712338863736 Z" fill="url(#leaf7)" opacity="0.23" transform="rotate(358.7 1266.2 947.6)"/>
    <path d="M 1345.2422251627195,959.0319478638866 C 1386.2074100022112,993.1696018967963 1399.8624716153752,1040.96231754287 1345.2422251627195,1095.5825639955258 C 1290.6219787100638,1040.96231754287 1304.2770403232278,993.1696018967963 1345.2422251627195,959.0319478638866 Z" fill="url(#leaf8)" opacity="0.23" transform="rotate(247.2 1345.2 1027.3)"/>
    <path d="M 1158.9257900415846,915.6357148410772 C 1189.9151863344518,941.4602117517999 1200.244985098741,977.6145074268115 1158.9257900415846,1018.9337024839677 C 1117.6065949844283,977.6145074268115 1127.9363937487174,941.4602117517999 1158.9257900415846,915.6357148410772 Z" fill="url(#leaf9)" opacity="0.38" transform="rotate(349.6 1158.9 967.3)"/>
    <path d="M 142.3610890304447,558.029887178655 C 172.18006879067676,582.8790369788485 182.11972871075412,617.6678466991192 142.3610890304447,657.4264863794286 C 102.60244935013529,617.6678466991192 112.54210927021265,582.8790369788485 142.3610890304447,558.029887178655 Z" fill="url(#leaf10)" opacity="0.37" transform="rotate(172.1 142.4 607.7)"/>
    <path d="M 648.5764574751256,490.4958279968474 C 700.074553176575,533.4109077480553 717.2405850770582,593.4920193997464 648.5764574751256,662.156147001679 C 579.912329873193,593.4920193997464 597.0783617736762,533.4109077480553 648.5764574751256,490.4958279968474 Z" fill="url(#leaf11)" opacity="0.23" transform="rotate(91.3 648.6 576.3)"/>
    <path d="M 1474.358782308543,164.20495470067428 C 1504.4071133967404,189.24523060750562 1514.423223759473,224.30161687706953 1474.358782308543,264.36605832799967 C 1434.2943408576127,224.30161687706953 1444.3104512203454,189.24523060750562 1474.358782308543,164.20495470067428 Z" fill="url(#leaf12)" opacity="0.21" transform="rotate(161.9 1474.4 214.3)"/>
    <path d="M 1111.1372458527067,844.0463028726065 C 1147.6988824119708,874.51433333866 1159.8860945983922,917.1695759911349 1111.1372458527067,965.9184247368205 C 1062.388397107021,917.1695759911349 1074.5756092934425,874.51433333866 1111.1372458527067,844.0463028726065 Z" fill="url(#leaf13)" opacity="0.28" transform="rotate(268.8 1111.1 905.0)"/>
    <path d="M 547.963082074381,482.78278355842457 C 580.3273302176865,509.75299034451257 591.1154129321217,547.5112798450357 547.963082074381,590.6636107027764 C 504.8107512166402,547.5112798450357 515.5988339310754,509.75299034451257 547.963082074381,482.78278355842457 Z" fill="url(#leaf14)" opacity="0.37" transform="rotate(275.5 548.0 536.7)"/>
    <path d="M 1168.2782261030027,923.4093584061076 C 1216.3809688415552,963.4949773549013 1232.4152164210727,1019.6148438832125 1168.2782261030027,1083.7518342012827 C 1104.1412357849326,1019.6148438832125 1120.1754833644502,963.4949773549013 1168.2782261030027,923.4093584061076 Z" fill="url(#leaf15)" opacity="0.35" transform="rotate(317.0 1168.3 1003.6)"/>
    <path d="M 1477.3327615287506,780.7260471751001 C 1519.5724238606454,815.9257657850123 1533.65231130461,865.2053718388895 1477.3327615287506,921.524921614749 C 1421.013211752891,865.2053718388895 1435.0930991968557,815.9257657850123 1477.3327615287506,780.7260471751001 Z" fill="url(#leaf16)" opacity="0.22" transform="rotate(344.4 1477.3 851.1)"/>
    <path d="M 438.6634727038212,245.51952325788858 C 470.0673904731602,271.6894547323377 480.53536306293984,308.32735879656656 438.6634727038212,350.1992491556852 C 396.79158234470253,308.32735879656656 407.2595549344822,271.6894547323377 438.6634727038212,245.51952325788858 Z" fill="url(#leaf17)" opacity="0.38" transform="rotate(311.7 438.7 297.9)"/>
    <path d="M 1675.5576546115785,383.97262290936214 C 1718.7805815444997,419.9917286867965 1733.1882238554736,470.41847677520457 1675.5576546115785,528.0490460190995 C 1617.9270853676835,470.41847677520457 1632.3347276786574,419.9917286867965 1675.5576546115785,383.97262290936214 Z" fill="url(#leaf18)" opacity="0.40" transform="rotate(283.3 1675.6 456.0)"/>
    <path d="M 1214.8508572481458,409.4849037617199 C 1252.1301124107742,440.5509497305771 1264.5565307983172,484.0434140869771 1214.8508572481458,533.7490876371486 C 1165.1451836979743,484.0434140869771 1177.5716020855173,440.5509497305771 1214.8508572481458,409.4849037617199 Z" fill="url(#leaf19)" opacity="0.33" transform="rotate(284.1 1214.9 471.6)"/>
    <path d="M 714.6815771361408,779.7205905184154 C 766.9484435767861,823.2763125522865 784.3707323903345,884.254323399706 714.6815771361408,953.9434786538997 C 644.9924218819472,884.254323399706 662.4147106954956,823.2763125522865 714.6815771361408,779.7205905184154 Z" fill="url(#leaf0)" opacity="0.23" transform="rotate(254.2 714.7 866.8)"/>
    <path d="M 1719.8443628793527,717.5071753670303 C 1750.526667314598,743.0757623964014 1760.7541021263464,778.871784237521 1719.8443628793527,819.7815234845147 C 1678.934623632359,778.871784237521 1689.1620584441075,743.0757623964014 1719.8443628793527,717.5071753670303 Z" fill="url(#leaf1)" opacity="0.31" transform="rotate(356.1 1719.8 768.6)"/>
    <path d="M 869.6674321165303,623.3999157641045 C 916.0442210358639,662.0472398635492 931.5031506756418,716.1534936027716 869.6674321165303,777.9892121618831 C 807.8317135574189,716.1534936027716 823.2906431971968,662.0472398635492 869.6674321165303,623.3999157641045 Z" fill="url(#leaf2)" opacity="0.21" transform="rotate(334.3 869.7 700.7)"/>
    <path d="M 385.4424007416177,541.7329530438338 C 431.61564602721506,580.2106574484983 447.00672778908086,634.0794436150285 385.4424007416177,695.6437706624916 C 323.8780736941545,634.0794436150285 339.2691554560203,580.2106574484983 385.4424007416177,541.7329530438338 Z" fill="url(#leaf3)" opacity="0.39" transform="rotate(31.6 385.4 618.7)"/>
    <path d="M 1859.0108428618346,819.2172237941617 C 1913.7848613789895,864.8622392251241 1932.0428675513745,928.7652608284715 1859.0108428618346,1001.7972855180113 C 1785.9788181722947,928.7652608284715 1804.2368243446797,864.8622392251241 1859.0108428618346,819.2172237941617 Z" fill="url(#leaf4)" opacity="0.38" transform="rotate(37.4 1859.0 910.5)"/>
    <path d="M 1147.8088860418263,258.4816217228207 C 1197.3709377396863,299.7833314710374 1213.891621638973,357.60572511854076 1147.8088860418263,423.6884607156875 C 1081.7261504446797,357.60572511854076 1098.2468343439664,299.7833314710374 1147.8088860418263,258.4816217228207 Z" fill="url(#leaf5)" opacity="0.30" transform="rotate(277.9 1147.8 341.1)"/>
    <path d="M 1560.0492500623654,626.5272740890662 C 1602.8096567884377,662.160946360793 1617.0631256971283,712.0480875412105 1560.0492500623654,769.0619631759735 C 1503.0353744276026,712.0480875412105 1517.2888433362932,662.160946360793 1560.0492500623654,626.5272740890662 Z" fill="url(#leaf6)" opacity="0.35" transform="rotate(43.6 1560.0 697.8)"/>
    <path d="M 307.4677404580065,652.8862169958087 C 348.43966597681424,687.0294882614818 362.0969744830835,734.8300680334241 307.4677404580065,789.4593020585011 C 252.83850643292956,734.8300680334241 266.4958149391988,687.0294882614818 307.4677404580065,652.8862169958087 Z" fill="url(#leaf7)" opacity="0.39" transform="rotate(255.6 307.5 721.2)"/>
    <path d="M 1719.4371713436524,69.66214663696319 C 1755.6590947196912,99.8470827836623 1767.733069178371,142.10599338904103 1719.4371713436524,190.4018912237596 C 1671.1412735089339,142.10599338904103 1683.2152479676135,99.8470827836623 1719.4371713436524,69.66214663696319 Z" fill="url(#leaf8)" opacity="0.35" transform="rotate(94.2 1719.4 130.0)"/>
    <path d="M 1442.6416877110005,264.1164451295066 C 1498.5223519147116,310.68366529926595 1517.1492399826154,375.87777353692906 1442.6416877110005,450.38532580854405 C 1368.1341354393855,375.87777353692906 1386.7610235072893,310.68366529926595 1442.6416877110005,264.1164451295066 Z" fill="url(#leaf9)" opacity="0.39" transform="rotate(135.6 1442.6 357.3)"/>
    <path d="M 918.7327872269054,441.91100518206565 C 978.5735740747502,491.7783275552697 998.5205030240319,561.5925788777554 918.7327872269054,641.3802946748818 C 838.945071429779,561.5925788777554 858.8920003790606,491.7783275552697 918.7327872269054,441.91100518206565 Z" fill="url(#leaf10)" opacity="0.38" transform="rotate(338.3 918.7 541.6)"/>
    <path d="M 633.0246338208633,297.38143912150474 C 672.6781509451924,330.42603672511234 685.8959899866355,376.68847337016297 633.0246338208633,429.55982953593514 C 580.1532776550911,376.68847337016297 593.3711166965342,330.42603672511234 633.0246338208633,297.38143912150474 Z" fill="url(#leaf11)" opacity="0.21" transform="rotate(221.0 633.0 363.5)"/>
    <path d="M 1868.300377485822,126.18068544870796 C 1900.2251477751897,152.78466068984767 1910.8667378716457,190.0302260274433 1868.300377485822,232.59658641326683 C 1825.7340170999985,190.0302260274433 1836.3756071964544,152.78466068984767 1868.300377485822,126.18068544870796 Z" fill="url(#leaf12)" opacity="0.26" transform="rotate(214.2 1868.3 179.4)"/>
    <path d="M 1160.8655167462862,134.6113022666897 C 1204.3407300900324,170.84064671981156 1218.832467871281,221.56172895418214 1160.8655167462862,279.5286800791771 C 1102.8985656212913,221.56172895418214 1117.39030340254,170.84064671981156 1160.8655167462862,134.6113022666897 Z" fill="url(#leaf13)" opacity="0.36" transform="rotate(320.9 1160.9 207.1)"/>
    <path d="M 1223.2712603214725,461.3790312750242 C 1247.4261356852478,481.5080940781703 1255.4777608065062,509.6887820025748 1223.2712603214725,541.8952824876085 C 1191.0647598364387,509.6887820025748 1199.1163849576972,481.5080940781703 1223.2712603214725,461.3790312750242 Z" fill="url(#leaf14)" opacity="0.38" transform="rotate(337.2 1223.3 501.6)"/>
    <path d="M 285.75822957888033,804.7099684017807 C 344.70158701431075,853.829432931306 364.3493728261209,922.5966832726415 285.75822957888033,1001.1878265198819 C 207.16708633163978,922.5966832726415 226.81487214344992,853.829432931306 285.75822957888033,804.7099684017807 Z" fill="url(#leaf15)" opacity="0.31" transform="rotate(97.4 285.8 902.9)"/>
    <path d="M 1392.5190268249985,189.23493064179917 C 1430.5033552875616,220.88853769393515 1443.164798108416,265.20358756692553 1392.5190268249985,315.8493588503431 C 1341.8732555415809,265.20358756692553 1354.5346983624354,220.88853769393515 1392.5190268249985,189.23493064179917 Z" fill="url(#leaf16)" opacity="0.31" transform="rotate(243.6 1392.5 252.5)"/>
    <path d="M 1703.3508774455408,321.7274546377951 C 1741.6103507145406,353.61034902862826 1754.363508470874,398.2464011757947 1703.3508774455408,449.2590322011277 C 1652.3382464202077,398.2464011757947 1665.0914041765411,353.61034902862826 1703.3508774455408,321.7274546377951 Z" fill="url(#leaf17)" opacity="0.25" transform="rotate(169.8 1703.4 385.5)"/>
    <path d="M 1866.4923065914486,587.5891746802118 C 1919.0609243404836,631.396356137741 1936.5837969234954,692.7264101782819 1866.4923065914486,762.8179005103285 C 1796.4008162594018,692.7264101782819 1813.9236888424136,631.396356137741 1866.4923065914486,587.5891746802118 Z" fill="url(#leaf18)" opacity="0.21" transform="rotate(176.4 1866.5 675.2)"/>
    <path d="M 465.1094781207882,627.84249449239 C 505.6888245188339,661.6586164907615 519.2152733181824,709.0011872884814 465.1094781207882,763.1069824858757 C 411.0036829233939,709.0011872884814 424.5301317227425,661.6586164907615 465.1094781207882,627.84249449239 Z" fill="url(#leaf19)" opacity="0.28" transform="rotate(343.2 465.1 695.5)"/>
    <path d="M 1452.744322513363,923.8978694324805 C 1478.2019766676954,945.1125812277576 1486.6878613858062,974.8131777411455 1452.744322513363,1008.7567166135889 C 1418.8007836409197,974.8131777411455 1427.2866683590305,945.1125812277576 1452.744322513363,923.8978694324805 Z" fill="url(#leaf0)" opacity="0.27" transform="rotate(102.8 1452.7 966.3)"/>
    <path d="M 1610.863145212843,540.1432661387671 C 1663.3087963341532,583.8479754065256 1680.7906800412566,645.0345683813877 1610.863145212843,714.9621032098014 C 1540.9356103844293,645.0345683813877 1558.4174940915327,583.8479754065256 1610.863145212843,540.1432661387671 Z" fill="url(#leaf1)" opacity="0.26" transform="rotate(336.5 1610.9 627.6)"/>
    <path d="M 1136.2425155727692,629.3656384099404 C 1177.1064279576237,663.4188987306524 1190.7277320859084,711.0934631796492 1136.2425155727692,765.5786796927885 C 1081.75729905963,711.0934631796492 1095.3786031879147,663.4188987306524 1136.2425155727692,629.3656384099404 Z" fill="url(#leaf2)" opacity="0.28" transform="rotate(32.0 1136.2 697.5)"/>
    <path d="M 1491.0899918490495,338.47347841280174 C 1544.795012168668,383.2276620124839 1562.696685608541,445.88351905203893 1491.0899918490495,517.4902128115305 C 1419.483298089558,445.88351905203893 1437.384971529431,383.2276620124839 1491.0899918490495,338.47347841280174 Z" fill="url(#leaf3)" opacity="0.22" transform="rotate(189.7 1491.1 428.0)"/>
    <path d="M 800.9565406276749,955.5875548721255 C 834.551589963113,983.5834293183239 845.7499397415922,1022.7776535430015 800.9565406276749,1067.5710526569187 C 756.1631415137576,1022.7776535430015 767.3614912922369,983.5834293183239 800.9565406276749,955.5875548721255 Z" fill="url(#leaf4)" opacity="0.28" transform="rotate(58.8 801.0 1011.6)"/>
    <path d="M 529.8100996171053,915.8440288809902 C 561.0167055981666,941.8495338652081 571.4189075918537,978.2572408431129 529.8100996171053,1019.8660488178614 C 488.20129164235686,978.2572408431129 498.60349363604394,941.8495338652081 529.8100996171053,915.8440288809902 Z" fill="url(#leaf5)" opacity="0.28" transform="rotate(160.0 529.8 967.9)"/>
    <path d="M 342.46910359828513,904.545221624698 C 371.9008277832811,929.071658445528 381.7114025116131,963.40866999469 342.46910359828513,1002.650968908018 C 303.2268046849572,963.40866999469 313.03737941328916,929.071658445528 342.46910359828513,904.545221624698 Z" fill="url(#leaf6)" opacity="0.24" transform="rotate(131.7 342.5 953.6)"/>
    <path d="M 508.02621301527273,434.6443107447484 C 538.4772166939631,460.0201471436571 548.6275512535267,495.54631810212925 508.02621301527273,536.1476563403832 C 467.42487477701883,495.54631810212925 477.5752093365823,460.0201471436571 508.02621301527273,434.6443107447484 Z" fill="url(#leaf7)" opacity="0.33" transform="rotate(280.3 508.0 485.4)"/>
    <path d="M 1829.52271483634,151.8172508351453 C 1866.8004568766223,182.8820358687139 1879.2263708900496,226.37273491570997 1829.52271483634,276.0763909694198 C 1779.8190587826302,226.37273491570997 1792.2449727960575,182.8820358687139 1829.52271483634,151.8172508351453 Z" fill="url(#leaf8)" opacity="0.37" transform="rotate(187.5 1829.5 213.9)"/>
    <path d="M 1087.867099746992,214.87407918364752 C 1132.1939250809735,251.8131002952988 1146.969533525634,303.5277298516106 1087.867099746992,362.6301636302527 C 1028.7646659683498,303.5277298516106 1043.5402744130104,251.8131002952988 1087.867099746992,214.87407918364752 Z" fill="url(#leaf9)" opacity="0.27" transform="rotate(183.4 1087.9 288.8)"/>
    <path d="M 945.3259200640224,13.078512523003937 C 984.5104003442116,45.732246089828294 997.5718937709414,91.44747308338239 945.3259200640224,143.69344679030138 C 893.0799463571034,91.44747308338239 906.1414397838332,45.732246089828294 945.3259200640224,13.078512523003937 Z" fill="url(#leaf10)" opacity="0.28" transform="rotate(223.4 945.3 78.4)"/>
    <path d="M 56.809863850843115,415.8713943506421 C 106.38841303032888,457.18685200021355 122.91459609015747,515.0284927096136 56.809863850843115,581.133224948928 C -9.294868388471244,515.0284927096136 7.231314671357353,457.18685200021355 56.809863850843115,415.8713943506421 Z" fill="url(#leaf11)" opacity="0.26" transform="rotate(310.5 56.8 498.5)"/>
    <path d="M 1485.2122391215198,58.9175325731448 C 1541.4167468549797,105.75462235102805 1560.151582766133,171.3265480400646 1485.2122391215198,246.2658916846778 C 1410.2728954769066,171.3265480400646 1429.00773138806,105.75462235102805 1485.2122391215198,58.9175325731448 Z" fill="url(#leaf12)" opacity="0.32" transform="rotate(85.1 1485.2 152.6)"/>
    <path d="M 356.1634200743474,247.72605637042636 C 395.73923568788433,280.70590271504045 408.93117422573,326.8776875975002 356.1634200743474,379.6454417488827 C 303.39566592296484,326.8776875975002 316.5876044608105,280.70590271504045 356.1634200743474,247.72605637042636 Z" fill="url(#leaf13)" opacity="0.22" transform="rotate(270.3 356.2 313.7)"/>
    <path d="M 1420.2174500513945,744.3623324454526 C 1446.951110689133,766.6403829769014 1455.8623309017125,797.8296537209295 1420.2174500513945,833.4745345712475 C 1384.5725692010765,797.8296537209295 1393.483789413656,766.6403829769014 1420.2174500513945,744.3623324454526 Z" fill="url(#leaf14)" opacity="0.34" transform="rotate(253.4 1420.2 788.9)"/>
    <path d="M 1281.3355886508814,792.1769101309462 C 1334.011262619945,836.073305105166 1351.5698206096329,897.5282580690736 1281.3355886508814,967.7624900278252 C 1211.10135669213,897.5282580690736 1228.6599146818178,836.073305105166 1281.3355886508814,792.1769101309462 Z" fill="url(#leaf15)" opacity="0.28" transform="rotate(208.7 1281.3 880.0)"/>
    <path d="M 808.9624571974647,845.1568279344862 C 839.9394250975332,870.9709678512098 850.2650810642226,907.1107637346231 808.9624571974647,948.413387601381 C 767.6598333307068,907.1107637346231 777.9854892973962,870.9709678512098 808.9624571974647,845.1568279344862 Z" fill="url(#leaf16)" opacity="0.39" transform="rotate(39.7 809.0 896.8)"/>
    <path d="M 1417.4827261346065,407.4410819969299 C 1454.160955763565,438.00627335439515 1466.387032306551,480.7975412548466 1417.4827261346065,529.7018474267911 C 1368.578419962662,480.7975412548466 1380.804496505648,438.00627335439515 1417.4827261346065,407.4410819969299 Z" fill="url(#leaf17)" opacity="0.20" transform="rotate(244.3 1417.5 468.6)"/>
    <path d="M 1655.3811117963824,192.2239132675711 C 1704.3416130839717,233.0243310072288 1720.6617801798348,290.1449158427496 1655.3811117963824,355.42558422620186 C 1590.10044341293,290.1449158427496 1606.420610508793,233.0243310072288 1655.3811117963824,192.2239132675711 Z" fill="url(#leaf18)" opacity="0.25" transform="rotate(313.3 1655.4 273.8)"/>
    <path d="M 1008.2678368874344,271.68088456595126 C 1057.4628561665213,312.67673396519024 1073.8611959262169,370.0709231241249 1008.2678368874344,435.6642821629073 C 942.674477848652,370.0709231241249 959.0728176083476,312.67673396519024 1008.2678368874344,271.68088456595126 Z" fill="url(#leaf19)" opacity="0.25" transform="rotate(267.4 1008.3 353.7)"/>
    <path d="M 566.609074550374,235.07644711725905 C 607.5727162285124,269.21281518237436 621.2272634545585,317.0037304735358 566.609074550374,371.62191937772036 C 511.99088564618944,317.0037304735358 525.6454328722356,269.21281518237436 566.609074550374,235.07644711725905 Z" fill="url(#leaf0)" opacity="0.23" transform="rotate(165.2 566.6 303.3)"/>
    <path d="M 1716.5281765744478,376.8898845030983 C 1754.5394127850718,408.5659146786183 1767.2098248552797,452.9123569243463 1716.5281765744478,503.5940052051783 C 1665.8465282936158,452.9123569243463 1678.5169403638238,408.5659146786183 1716.5281765744478,376.8898845030983 Z" fill="url(#leaf1)" opacity="0.35" transform="rotate(219.2 1716.5 440.2)"/>
    <path d="M 1436.9633662819715,606.3236650872134 C 1476.1147215854292,638.9497945067616 1489.1651733532485,684.6263756941289 1436.9633662819715,736.8281827654059 C 1384.7615592106945,684.6263756941289 1397.8120109785139,638.9497945067616 1436.9633662819715,606.3236650872134 Z" fill="url(#leaf2)" opacity="0.29" transform="rotate(148.6 1437.0 671.6)"/>
    <path d="M 462.5050367600063,471.3051095240204 C 504.0402647598806,505.9177995239156 517.8853407598386,554.375565523769 462.5050367600063,609.7558695236013 C 407.1247327601739,554.375565523769 420.969808760132,505.9177995239156 462.5050367600063,471.3051095240204 Z" fill="url(#leaf3)" opacity="0.30" transform="rotate(336.6 462.5 540.5)"/>
    <path d="M 658.8327083263061,813.3439436033352 C 703.4756174378222,850.5463678629319 718.3565871416608,902.6297618263673 658.8327083263061,962.153640641722 C 599.3088295109515,902.6297618263673 614.1897992147901,850.5463678629319 658.8327083263061,813.3439436033352 Z" fill="url(#leaf4)" opacity="0.28" transform="rotate(45.1 658.8 887.7)"/>
    <path d="M 1751.3412407398473,765.3460259870247 C 1790.4199370337847,797.9116062319725 1803.4461691317638,843.5034185748995 1751.3412407398473,895.6083469668159 C 1699.2363123479308,843.5034185748995 1712.26254444591,797.9116062319725 1751.3412407398473,765.3460259870247 Z" fill="url(#leaf5)" opacity="0.25" transform="rotate(2.4 1751.3 830.5)"/>
    <path d="M 740.3820178391613,182.38617417142 C 775.3602091727399,211.53466694940215 787.0196062839327,252.34255683857714 740.3820178391613,298.9801452833486 C 693.74442939439,252.34255683857714 705.4038265055827,211.53466694940215 740.3820178391613,182.38617417142 Z" fill="url(#leaf6)" opacity="0.22" transform="rotate(88.8 740.4 240.7)"/>
    <path d="M 781.572099201498,763.4476404938162 C 816.5843572085498,792.6245221663594 828.2551098775671,833.4721565079197 781.572099201498,880.1551671839889 C 734.8890885254289,833.4721565079197 746.5598411944461,792.6245221663594 781.572099201498,763.4476404938162 Z" fill="url(#leaf7)" opacity="0.33" transform="rotate(341.0 781.6 821.8)"/>
    <path d="M 369.64004880020127,949.9628539577976 C 395.9840845554374,971.916217087161 404.7654298071828,1002.6509254682699 369.64004880020127,1037.7763064752514 C 334.51466779321976,1002.6509254682699 343.29601304496515,971.916217087161 369.64004880020127,949.9628539577976 Z" fill="url(#leaf8)" opacity="0.38" transform="rotate(264.6 369.6 993.9)"/>
    <path d="M 220.33988376656743,531.3346674665999 C 251.3401630855484,557.1682335657506 261.67358952520874,593.3352261045618 220.33988376656743,634.668931863203 C 179.00617800792614,593.3352261045618 189.33960444758645,557.1682335657506 220.33988376656743,531.3346674665999 Z" fill="url(#leaf9)" opacity="0.30" transform="rotate(219.4 220.3 583.0)"/>
    <path d="M 280.4269285044449,520.745022649421 C 316.42347905523667,550.7421481084142 328.4223292388339,592.7381237510045 280.4269285044449,640.7335244853936 C 232.43152777005588,592.7381237510045 244.43037795365314,550.7421481084142 280.4269285044449,520.745022649421 Z" fill="url(#leaf10)" opacity="0.35" transform="rotate(354.4 280.4 580.7)"/>
    <path d="M 1072.8997684395113,378.6845137267302 C 1115.6279960987104,414.29137010939615 1129.8707386517767,464.1409690451285 1072.8997684395113,521.111939257394 C 1015.9287982272457,464.1409690451285 1030.1715407803122,414.29137010939615 1072.8997684395113,378.6845137267302 Z" fill="url(#leaf11)" opacity="0.22" transform="rotate(266.1 1072.9 449.9)"/>
    <path d="M 534.7310524128826,676.9991910505785 C 577.4748771397958,712.6190449896728 591.7228187154336,762.4868405044049 534.7310524128826,819.4786068069559 C 477.7392861103316,762.4868405044049 491.9872276859694,712.6190449896728 534.7310524128826,676.9991910505785 Z" fill="url(#leaf12)" opacity="0.40" transform="rotate(305.7 534.7 748.2)"/>
    <path d="M 630.3951378846912,579.0199749514379 C 658.3735737313574,602.3353381569932 667.6997190135795,634.9768466447705 630.3951378846912,672.2814277736588 C 593.0905567558028,634.9768466447705 602.4167020380249,602.3353381569932 630.3951378846912,579.0199749514379 Z" fill="url(#leaf13)" opacity="0.25" transform="rotate(248.8 630.4 625.7)"/>
    <path d="M 1655.8973011518528,8.154786905835948 C 1705.4803465569257,49.473991410063334 1722.0080283586167,107.32087771598168 1655.8973011518528,173.4316049227455 C 1589.786573945089,107.32087771598168 1606.31425574678,49.473991410063334 1655.8973011518528,8.154786905835948 Z" fill="url(#leaf14)" opacity="0.28" transform="rotate(267.1 1655.9 90.8)"/>
    <path d="M 1252.5465351371517,722.6369078486548 C 1280.5156200256113,745.9444785890377 1289.8386483217644,778.5750776255736 1252.5465351371517,815.8671908101862 C 1215.2544219525391,778.5750776255736 1224.5774502486922,745.9444785890377 1252.5465351371517,722.6369078486548 Z" fill="url(#leaf15)" opacity="0.22" transform="rotate(232.4 1252.5 769.3)"/>
    <path d="M 1200.2547021389628,254.78634886512674 C 1226.901655259117,276.99214313192186 1235.783972965835,308.080255105435 1200.2547021389628,343.60952593230724 C 1164.7254313120907,308.080255105435 1173.6077490188086,276.99214313192186 1200.2547021389628,254.78634886512674 Z" fill="url(#leaf16)" opacity="0.38" transform="rotate(51.2 1200.3 299.2)"/>
    <path d="M 1673.0113733102685,878.5053404827372 C 1722.6677315324034,919.885639001183 1739.2198509397817,977.8180569270071 1673.0113733102685,1044.0265345565203 C 1606.8028956807552,977.8180569270071 1623.3550150881335,919.885639001183 1673.0113733102685,878.5053404827372 Z" fill="url(#leaf17)" opacity="0.37" transform="rotate(47.9 1673.0 961.3)"/>
    <path d="M 1358.2578530576577,70.34994153468875 C 1390.6864785881178,97.3737961434055 1401.4960204316046,135.20719259560894 1358.2578530576577,178.44535996955574 C 1315.0196856837108,135.20719259560894 1325.8292275271976,97.3737961434055 1358.2578530576577,70.34994153468875 Z" fill="url(#leaf18)" opacity="0.39" transform="rotate(116.6 1358.3 124.4)"/>
    <path d="M 415.9815267895473,436.213427548141 C 444.620519038921,460.07925442261904 454.1668497887122,493.4914120468884 415.9815267895473,531.6767350460533 C 377.7962037903823,493.4914120468884 387.3425345401736,460.07925442261904 415.9815267895473,436.213427548141 Z" fill="url(#leaf19)" opacity="0.25" transform="rotate(192.3 416.0 483.9)"/>
    <path d="M 658.4742979337177,755.52523631694 C 688.3469059224922,780.4190763075853 698.3044419187504,815.2704522944889 658.4742979337177,855.1005962795216 C 618.644153948685,815.2704522944889 628.6016899449432,780.4190763075853 658.4742979337177,755.52523631694 Z" fill="url(#leaf0)" opacity="0.22" transform="rotate(97.6 658.5 805.3)"/>
    <path d="M 1843.5978760716519,591.3913586617417 C 1875.672708921211,618.1203860363744 1886.3643198710643,655.5410243608601 1843.5978760716519,698.3074681602724 C 1800.8314322722395,655.5410243608601 1811.5230432220926,618.1203860363744 1843.5978760716519,591.3913586617417 Z" fill="url(#leaf1)" opacity="0.38" transform="rotate(322.3 1843.6 644.8)"/>
    <path d="M 449.16578054216166,869.2589323507017 C 478.9367968379909,894.068112597226 488.8604689366007,928.8009649423601 449.16578054216166,968.4956533367991 C 409.47109214772263,928.8009649423601 419.3947642463324,894.068112597226 449.16578054216166,869.2589323507017 Z" fill="url(#leaf2)" opacity="0.22" transform="rotate(181.8 449.2 918.9)"/>
    <path d="M 607.274724266608,23.569896121655574 C 651.5203644870459,60.44126297202047 666.2689112271919,112.06117656253132 607.274724266608,171.05536352311515 C 548.2805373060241,112.06117656253132 563.0290840461702,60.44126297202047 607.274724266608,23.569896121655574 Z" fill="url(#leaf3)" opacity="0.38" transform="rotate(84.4 607.3 97.3)"/>
    <path d="M 1558.2881657051378,281.15222251664323 C 1617.8352006927155,330.7747516729579 1637.6842123552412,400.2462924917985 1558.2881657051378,479.642339141902 C 1478.8921190550343,400.2462924917985 1498.74113071756,330.7747516729579 1558.2881657051378,281.15222251664323 Z" fill="url(#leaf4)" opacity="0.33" transform="rotate(175.4 1558.3 380.4)"/>
    <path d="M 1819.484289618262,251.74877966499778 C 1866.616179509412,291.02535457428934 1882.3268094731284,346.0125594472976 1819.484289618262,408.8550793021641 C 1756.6417697633956,346.0125594472976 1772.352399727112,291.02535457428934 1819.484289618262,251.74877966499778 Z" fill="url(#leaf5)" opacity="0.30" transform="rotate(128.3 1819.5 330.3)"/>
    <path d="M 64.66628577037196,602.4242740922407 C 109.46536223732676,639.7568378147031 124.39838772631168,692.0224270261504 64.66628577037196,751.75452898209 C 4.934183814432224,692.0224270261504 19.867209303417162,639.7568378147031 64.66628577037196,602.4242740922407 Z" fill="url(#leaf6)" opacity="0.28" transform="rotate(351.6 64.7 677.1)"/>
    <path d="M 934.451350106235,88.05403858336626 C 959.5689673237105,108.9853862645958 967.9415063962023,138.28927301831715 934.451350106235,171.77942930828442 C 900.9611938162678,138.28927301831715 909.3337328887596,108.9853862645958 934.451350106235,88.05403858336626 Z" fill="url(#leaf7)" opacity="0.35" transform="rotate(221.4 934.5 129.9)"/>
    <path d="M 1767.997243724505,469.7564680554692 C 1804.6298798318348,500.2836648115773 1816.840758534278,543.0217402701286 1767.997243724505,591.8652550799015 C 1719.1537289147323,543.0217402701286 1731.3646076171754,500.2836648115773 1767.997243724505,469.7564680554692 Z" fill="url(#leaf8)" opacity="0.21" transform="rotate(119.3 1768.0 530.8)"/>
    <path d="M 1437.1192565740832,410.027952516446 C 1488.7734816221903,453.0731400565353 1505.991556638226,513.3364026126603 1437.1192565740832,582.2087026768031 C 1368.2469565099404,513.3364026126603 1385.4650315259762,453.0731400565353 1437.1192565740832,410.027952516446 Z" fill="url(#leaf9)" opacity="0.35" transform="rotate(76.2 1437.1 496.1)"/>
    <path d="M 1633.0872454601024,150.5933023728163 C 1668.8068894785565,180.35967238819472 1680.7134374847078,222.03259040972455 1633.0872454601024,269.65878243433 C 1585.461053435497,222.03259040972455 1597.3676014416483,180.35967238819472 1633.0872454601024,150.5933023728163 Z" fill="url(#leaf10)" opacity="0.35" transform="rotate(247.7 1633.1 210.1)"/>
    <path d="M 659.0433412046966,913.4512711568178 C 701.2144824814782,948.593888887469 715.2715295737386,997.7935537103808 659.0433412046966,1054.021742079423 C 602.8151528356547,997.7935537103808 616.8721999279151,948.593888887469 659.0433412046966,913.4512711568178 Z" fill="url(#leaf11)" opacity="0.23" transform="rotate(147.5 659.0 983.7)"/>
    <path d="M 1726.9014629440014,664.2221957917159 C 1751.3099138309794,684.5625715308643 1759.446064126639,713.039097565672 1726.9014629440014,745.5836987483094 C 1694.356861761364,713.039097565672 1702.4930120570234,684.5625715308643 1726.9014629440014,664.2221957917159 Z" fill="url(#leaf12)" opacity="0.31" transform="rotate(29.6 1726.9 704.9)"/>
    <path d="M 641.3976397543851,536.1363494096187 C 689.7165069992672,576.4020721136872 705.8227960808946,632.7740838993828 641.3976397543851,697.1992402258924 C 576.9724834278755,632.7740838993828 593.078772509503,576.4020721136872 641.3976397543851,536.1363494096187 Z" fill="url(#leaf13)" opacity="0.26" transform="rotate(35.1 641.4 616.7)"/>
    <path d="M 842.540876078722,833.1493254224056 C 880.6589928760718,864.9144227535304 893.3650318085217,909.3855590171052 842.540876078722,960.2097147469049 C 791.7167203489223,909.3855590171052 804.4227592813722,864.9144227535304 842.540876078722,833.1493254224056 Z" fill="url(#leaf14)" opacity="0.24" transform="rotate(134.3 842.5 896.7)"/>
    <path d="M 532.1173069160836,806.973886761646 C 567.4341924504271,836.4046247069322 579.2064876285415,877.6076578303329 532.1173069160836,924.6968385427907 C 485.02812620362573,877.6076578303329 496.8004213817402,836.4046247069322 532.1173069160836,806.973886761646 Z" fill="url(#leaf15)" opacity="0.28" transform="rotate(144.9 532.1 865.8)"/>
    <path d="M 189.45971113955682,55.51823368575954 C 248.06097089349032,104.35261681403745 267.5947241448015,172.72075319362654 189.45971113955682,250.8557661988712 C 111.32469813431214,172.72075319362654 130.8584513856233,104.35261681403745 189.45971113955682,55.51823368575954 Z" fill="url(#leaf16)" opacity="0.29" transform="rotate(11.4 189.5 153.2)"/>
    <path d="M 1584.3483487214594,739.2397774418616 C 1612.3364237990122,762.5631733398224 1621.6657821581966,795.2159275969674 1584.3483487214594,832.5333610337045 C 1547.0309152847221,795.2159275969674 1556.3602736439066,762.5631733398224 1584.3483487214594,739.2397774418616 Z" fill="url(#leaf17)" opacity="0.26" transform="rotate(71.5 1584.3 785.9)"/>
    <path d="M 1169.1930931481834,751.7846241426882 C 1205.0466125102728,781.6625569444293 1216.9977856309692,823.4916628668669 1169.1930931481834,871.2963553496527 C 1121.3884006653975,823.4916628668669 1133.339573786094,781.6625569444293 1169.1930931481834,751.7846241426882 Z" fill="url(#leaf18)" opacity="0.32" transform="rotate(179.0 1169.2 811.5)"/>
    <path d="M 700.4596342172284,257.1701500774419 C 750.1825738661177,298.6059331181829 766.756887082414,356.6160293752203 700.4596342172284,422.9132822404059 C 634.1623813520429,356.6160293752203 650.7366945683392,298.6059331181829 700.4596342172284,257.1701500774419 Z" fill="url(#leaf19)" opacity="0.22" transform="rotate(9.7 700.5 340.0)"/>
    <path d="M 814.6051932780074,370.6439808424355 C 871.8896251008216,418.38100736144736 890.9844357084263,485.2128444880639 814.6051932780074,561.5920869184828 C 738.2259508475885,485.2128444880639 757.3207614551932,418.38100736144736 814.6051932780074,370.6439808424355 Z" fill="url(#leaf0)" opacity="0.21" transform="rotate(304.9 814.6 466.1)"/>
    <path d="M 1121.112965189174,702.2968502860726 C 1152.3123631192796,728.2963485611606 1162.7121624293147,764.6956461462837 1121.112965189174,806.2948433864244 C 1079.5137679490333,764.6956461462837 1089.9135672590685,728.2963485611606 1121.112965189174,702.2968502860726 Z" fill="url(#leaf1)" opacity="0.40" transform="rotate(75.7 1121.1 754.3)"/>
    <path d="M 1081.3340301362448,631.1989831466819 C 1113.2170930474504,657.7682022393533 1123.844780684519,694.9651089690932 1081.3340301362448,737.4758595173673 C 1038.8232795879705,694.9651089690932 1049.4509672250392,657.7682022393533 1081.3340301362448,631.1989831466819 Z" fill="url(#leaf2)" opacity="0.29" transform="rotate(191.9 1081.3 684.3)"/>
    <path d="M 145.2345404366596,14.681761069489085 C 191.83897159125422,53.51878703165127 207.3737819761191,107.89062337867833 145.2345404366596,170.02986491813783 C 83.09529889720008,107.89062337867833 98.63010928206496,53.51878703165127 145.2345404366596,14.681761069489085 Z" fill="url(#leaf3)" opacity="0.27" transform="rotate(55.0 145.2 92.4)"/>
    <path d="M 1312.4575785760444,825.3217702413476 C 1370.9849439760144,874.0945747413227 1390.4940657760044,942.3765010412877 1312.4575785760444,1020.4129882412478 C 1234.4210913760844,942.3765010412877 1253.9302131760744,874.0945747413227 1312.4575785760444,825.3217702413476 Z" fill="url(#leaf4)" opacity="0.34" transform="rotate(15.3 1312.5 922.9)"/>
    <path d="M 151.53641629436208,326.538064461899 C 196.47890050295646,363.9901346357277 211.45972857248793,416.4230328790878 151.53641629436208,476.3463451572137 C 91.61310401623624,416.4230328790878 106.5939320857677,363.9901346357277 151.53641629436208,326.538064461899 Z" fill="url(#leaf5)" opacity="0.24" transform="rotate(171.6 151.5 401.4)"/>
    <path d="M 841.8686953153212,567.4349456394173 C 899.8572573736171,615.7587473546638 919.1867780597158,683.412069756009 841.8686953153212,760.7301525004036 C 764.5506125709267,683.412069756009 783.8801332570254,615.7587473546638 841.8686953153212,567.4349456394173 Z" fill="url(#leaf6)" opacity="0.27" transform="rotate(325.3 841.9 664.1)"/>
    <path d="M 579.5958415159587,213.93538951713165 C 628.9282182769464,255.0457034846214 645.3723438639423,312.60014303910714 579.5958415159587,378.3766453870908 C 513.819339167975,312.60014303910714 530.263464754971,255.0457034846214 579.5958415159587,213.93538951713165 Z" fill="url(#leaf7)" opacity="0.37" transform="rotate(216.7 579.6 296.2)"/>
    <path d="M 843.3622424295561,915.7925017851377 C 887.522330963737,952.5925755636218 902.2423604751306,1004.1126788534995 843.3622424295561,1062.992796899074 C 784.4821243839816,1004.1126788534995 799.2021538953752,952.5925755636218 843.3622424295561,915.7925017851377 Z" fill="url(#leaf8)" opacity="0.29" transform="rotate(0.0 843.4 989.4)"/>
    <path d="M 1567.7641340864832,129.88139722656754 C 1615.2834675653357,169.48084179227794 1631.1232453916198,224.92006418427246 1567.7641340864832,288.2791754894091 C 1504.4050227813466,224.92006418427246 1520.2448006076306,169.48084179227794 1567.7641340864832,129.88139722656754 Z" fill="url(#leaf9)" opacity="0.39" transform="rotate(278.8 1567.8 209.1)"/>
    <path d="M 1094.327162952768,305.6740288640332 C 1149.8899971294024,351.97639067789515 1168.4109418549472,416.79969721730185 1094.327162952768,490.883476119481 C 1020.2433840505889,416.79969721730185 1038.7643287761337,351.97639067789515 1094.327162952768,305.6740288640332 Z" fill="url(#leaf10)" opacity="0.29" transform="rotate(33.5 1094.3 398.3)"/>
    <path d="M 1081.8990561296782,136.8890346264169 C 1110.8954850680973,161.0527254084327 1120.5609613809036,194.88189250325487 1081.8990561296782,233.54379775448018 C 1043.237150878453,194.88189250325487 1052.9026271912592,161.0527254084327 1081.8990561296782,136.8890346264169 Z" fill="url(#leaf11)" opacity="0.34" transform="rotate(167.0 1081.9 185.2)"/>
    <path d="M 253.70653692823464,349.4680004517402 C 293.5022211539181,382.63107063980976 306.76744922914594,429.0593689031071 253.70653692823464,482.1202812040184 C 200.64562462732337,429.0593689031071 213.91085270255118,382.63107063980976 253.70653692823464,349.4680004517402 Z" fill="url(#leaf12)" opacity="0.23" transform="rotate(278.4 253.7 415.8)"/>
    <path d="M 759.3834409499566,111.83168542132249 C 785.2923716439104,133.4224609996173 793.9286818752283,163.64954680923006 759.3834409499566,198.19478773450174 C 724.8382000246849,163.64954680923006 733.4745102560028,133.4224609996173 759.3834409499566,111.83168542132249 Z" fill="url(#leaf13)" opacity="0.26" transform="rotate(48.1 759.4 155.0)"/>
    <path d="M 1329.9392137199716,94.47806539805005 C 1373.8481397791397,131.06883711402344 1388.484448465529,182.2959175163862 1329.9392137199716,240.84115226194365 C 1271.393978974414,182.2959175163862 1286.0302876608034,131.06883711402344 1329.9392137199716,94.47806539805005 Z" fill="url(#leaf14)" opacity="0.24" transform="rotate(243.8 1329.9 167.7)"/>
    <path d="M 276.4401609307228,244.46928779935917 C 318.0387325994511,279.13476418996606 331.90492315569384,327.66643113681573 276.4401609307228,383.13119336178676 C 220.97539870575176,327.66643113681573 234.84158926199453,279.13476418996606 276.4401609307228,244.46928779935917 Z" fill="url(#leaf15)" opacity="0.22" transform="rotate(283.3 276.4 313.8)"/>
    <path d="M 926.5357815512801,522.2357874052185 C 968.1022619667717,556.8745210847948 981.9577554386021,605.3687482362016 926.5357815512801,660.7907221235236 C 871.1138076639581,605.3687482362016 884.9693011357886,556.8745210847948 926.5357815512801,522.2357874052185 Z" fill="url(#leaf16)" opacity="0.37" transform="rotate(176.9 926.5 591.5)"/>
    <path d="M 1125.5447510973725,479.09532032300865 C 1177.250257536844,522.1832423559015 1194.485426350001,582.5063332019516 1125.5447510973725,651.4470084545802 C 1056.6040758447439,582.5063332019516 1073.839244657901,522.1832423559015 1125.5447510973725,479.09532032300865 Z" fill="url(#leaf17)" opacity="0.26" transform="rotate(189.3 1125.5 565.3)"/>
    <path d="M 1259.0427121086661,210.19651285063753 C 1315.7422751255822,257.44614869806753 1334.642129464554,323.5956388844695 1259.0427121086661,399.19505624035753 C 1183.4432947527782,323.5956388844695 1202.34314909175,257.44614869806753 1259.0427121086661,210.19651285063753 Z" fill="url(#leaf18)" opacity="0.36" transform="rotate(342.5 1259.0 304.7)"/>
    <path d="M 644.7984655020023,879.4498728789213 C 695.5573233094576,921.7489210518007 712.4769425786094,980.967588493832 644.7984655020023,1048.646065570439 C 577.1199884253951,980.967588493832 594.0396076945469,921.7489210518007 644.7984655020023,879.4498728789213 Z" fill="url(#leaf19)" opacity="0.38" transform="rotate(96.8 644.8 964.0)"/>
    <path d="M 1201.6920294625852,-16.67584387116031 C 1260.1317668102752,32.023937251914596 1279.611679259505,100.20363082421946 1201.6920294625852,178.12328062113932 C 1123.7723796656653,100.20363082421946 1143.2522921148952,32.023937251914596 1201.6920294625852,-16.67584387116031 Z" fill="url(#leaf0)" opacity="0.27" transform="rotate(82.5 1201.7 80.7)"/>
    <path d="M 652.3071591077002,519.6942575085541 C 687.8548498250871,549.3173331063765 699.7040800642161,590.7896389433279 652.3071591077002,638.1865598998438 C 604.9102381511842,590.7896389433279 616.7594683903133,549.3173331063765 652.3071591077002,519.6942575085541 Z" fill="url(#leaf1)" opacity="0.22" transform="rotate(15.7 652.3 578.9)"/>
    <path d="M 1833.4639606769226,463.10958408660787 C 1892.6881323447558,512.4630604764687 1912.4295229007,581.557927422274 1833.4639606769226,660.5234896460515 C 1754.4983984531452,581.557927422274 1774.2397890090895,512.4630604764687 1833.4639606769226,463.10958408660787 Z" fill="url(#leaf2)" opacity="0.23" transform="rotate(243.8 1833.5 561.8)"/>
    <path d="M 670.74177123405,508.7386452612586 C 727.4912902281216,556.0299110896516 746.4077965594788,622.2376832494017 670.74177123405,697.9037085748305 C 595.0757459086212,622.2376832494017 613.9922522399785,556.0299110896516 670.74177123405,508.7386452612586 Z" fill="url(#leaf3)" opacity="0.28" transform="rotate(67.8 670.7 603.3)"/>
    <path d="M 693.7542083963251,667.3727143151639 C 724.8090448622677,693.2517447034493 735.1606570175818,729.4823872470488 693.7542083963251,770.8888358683055 C 652.3477597750684,729.4823872470488 662.6993719303825,693.2517447034493 693.7542083963251,667.3727143151639 Z" fill="url(#leaf4)" opacity="0.22" transform="rotate(143.9 693.8 719.1)"/>
    <path d="M 1832.5260458416833,190.5443501576662 C 1867.708308804655,219.86290262680922 1879.435729792312,260.9088760836094 1832.5260458416833,307.8185600342382 C 1785.6163618910546,260.9088760836094 1797.3437828787116,219.86290262680922 1832.5260458416833,190.5443501576662 Z" fill="url(#leaf5)" opacity="0.29" transform="rotate(308.5 1832.5 249.2)"/>
    <path d="M 1205.5456459904435,448.0981008998306 C 1249.303694545033,484.5631413619887 1263.8897107298965,535.6141980090099 1205.5456459904435,593.9582627484627 C 1147.2015812509906,535.6141980090099 1161.787597435854,484.5631413619887 1205.5456459904435,448.0981008998306 Z" fill="url(#leaf6)" opacity="0.35" transform="rotate(342.6 1205.5 521.0)"/>
    <path d="M 550.7385887626722,332.54121874402915 C 588.3366917082478,363.87297119867554 600.8693926901063,407.73742463518045 550.7385887626722,457.8682285626146 C 500.607784835238,407.73742463518045 513.1404858170965,363.87297119867554 550.7385887626722,332.54121874402915 Z" fill="url(#leaf7)" opacity="0.22" transform="rotate(208.9 550.7 395.2)"/>
    <path d="M 535.2501695762876,208.65092273708314 C 590.257531645229,254.49039112786772 608.5933190015429,318.66564687496617 535.2501695762876,392.0087963002215 C 461.90702015103227,318.66564687496617 480.2428075073461,254.49039112786772 535.2501695762876,208.65092273708314 Z" fill="url(#leaf8)" opacity="0.31" transform="rotate(149.3 535.3 300.3)"/>
    <path d="M 1071.655679469242,702.2766621632612 C 1106.389272103209,731.2213226915669 1117.967136314531,771.7438474311949 1071.655679469242,818.055304276484 C 1025.3442226239529,771.7438474311949 1036.922086835275,731.2213226915669 1071.655679469242,702.2766621632612 Z" fill="url(#leaf9)" opacity="0.28" transform="rotate(259.6 1071.7 760.2)"/>
    <path d="M 477.4652921326911,332.1186808914124 C 506.1912354033305,356.05696695027854 515.7665498268769,389.5705674326911 477.4652921326911,427.87182512687696 C 439.16403443850527,389.5705674326911 448.7393488620517,356.05696695027854 477.4652921326911,332.1186808914124 Z" fill="url(#leaf10)" opacity="0.21" transform="rotate(67.5 477.5 380.0)"/>
    <path d="M 960.7357017633548,50.11061794844878 C 1004.0019315783829,86.16580946097226 1018.4240081833923,136.6430775785051 960.7357017633548,194.3313839985427 C 903.0473953433172,136.6430775785051 917.4694719483266,86.16580946097226 960.7357017633548,50.11061794844878 Z" fill="url(#leaf11)" opacity="0.32" transform="rotate(120.0 960.7 122.2)"/>
    <path d="M 399.5207328023602,855.070746624391 C 437.78132372235325,886.9545723910518 450.53485402901754,931.5919284643769 399.5207328023602,982.6060496910343 C 348.5066115757029,931.5919284643769 361.2601418823672,886.9545723910518 399.5207328023602,855.070746624391 Z" fill="url(#leaf12)" opacity="0.21" transform="rotate(71.8 399.5 918.8)"/>
  </g>

  <!-- Central star shape -->
  <polygon points="960.0,301.9 1030.0,443.7 1186.4,466.4 1073.2,576.8 1099.9,732.6 960.0,659.0 820.1,732.6 846.8,576.8 733.6,466.4 890.0,443.7" 
           fill="#FFE66D" 
           transform="rotate(140.6 960.0 540.0)"/>
</svg>