<?xml version="1.0" encoding="UTF-8"?>
<svg xmlns="http://www.w3.org/2000/svg" viewBox="0 0 1920 1080" width="1920" height="1080">
  <defs>
    <linearGradient id="bgGrad" x1="0%" y1="0%" x2="100%" y2="100%">
      <stop offset="0%" stop-color="#FF1493"/>
      <stop offset="100%" stop-color="#FF69B4"/>
    </linearGradient>
    <clipPath id="complexClip"><polygon points="1315.6,540.0 1387.1,591.1 1443.8,661.2 1344.6,697.2 1228.8,707.9 1187.7,761.9 1122.8,821.9 1019.8,860.1 903.8,840.8 800.1,816.8 778.4,717.0 698.2,703.5 667.5,659.5 615.1,626.4 472.2,598.3 443.0,540.0 441.3,478.0 513.9,428.3 601.7,393.6 630.6,334.2 703.3,289.9 783.9,235.1 901.3,225.6 1012.2,260.5 1077.5,336.6 1131.9,372.5 1278.0,341.4 1321.7,392.2 1358.4,440.2 1498.6,475.6"/></clipPath>
    <radialGradient id="leaf0" cx="50%" cy="50%" r="70%">
      <stop offset="0%" stop-color="#FFD700"/>
      <stop offset="50%" stop-color="#4ECDC4"/>
      <stop offset="100%" stop-color="#45B7D1"/>
    </radialGradient>
    <radialGradient id="leaf1" cx="50%" cy="50%" r="70%">
      <stop offset="0%" stop-color="#45B7D1"/>
      <stop offset="50%" stop-color="#FF6B6B"/>
      <stop offset="100%" stop-color="#00FA9A"/>
    </radialGradient>
    <radialGradient id="leaf2" cx="50%" cy="50%" r="70%">
      <stop offset="0%" stop-color="#FF4500"/>
      <stop offset="50%" stop-color="#FF6B6B"/>
      <stop offset="100%" stop-color="#7B68EE"/>
    </radialGradient>
    <radialGradient id="leaf3" cx="50%" cy="50%" r="70%">
      <stop offset="0%" stop-color="#00CED1"/>
      <stop offset="50%" stop-color="#32CD32"/>
      <stop offset="100%" stop-color="#FFD700"/>
    </radialGradient>
    <radialGradient id="leaf4" cx="50%" cy="50%" r="70%">
      <stop offset="0%" stop-color="#FF6B6B"/>
      <stop offset="50%" stop-color="#FF4500"/>
      <stop offset="100%" stop-color="#7B68EE"/>
    </radialGradient>
    <radialGradient id="leaf5" cx="50%" cy="50%" r="70%">
      <stop offset="0%" stop-color="#45B7D1"/>
      <stop offset="50%" stop-color="#96E6A1"/>
      <stop offset="100%" stop-color="#FF1493"/>
    </radialGradient>
    <radialGradient id="leaf6" cx="50%" cy="50%" r="70%">
      <stop offset="0%" stop-color="#FF1493"/>
      <stop offset="50%" stop-color="#FF6B6B"/>
      <stop offset="100%" stop-color="#00FA9A"/>
    </radialGradient>
    <radialGradient id="leaf7" cx="50%" cy="50%" r="70%">
      <stop offset="0%" stop-color="#00CED1"/>
      <stop offset="50%" stop-color="#00FA9A"/>
      <stop offset="100%" stop-color="#FF4500"/>
    </radialGradient>
    <radialGradient id="leaf8" cx="50%" cy="50%" r="70%">
      <stop offset="0%" stop-color="#96E6A1"/>
      <stop offset="50%" stop-color="#FF6B6B"/>
      <stop offset="100%" stop-color="#4ECDC4"/>
    </radialGradient>
    <radialGradient id="leaf9" cx="50%" cy="50%" r="70%">
      <stop offset="0%" stop-color="#00FA9A"/>
      <stop offset="50%" stop-color="#00CED1"/>
      <stop offset="100%" stop-color="#45B7D1"/>
    </radialGradient>
    <radialGradient id="leaf10" cx="50%" cy="50%" r="70%">
      <stop offset="0%" stop-color="#32CD32"/>
      <stop offset="50%" stop-color="#9370DB"/>
      <stop offset="100%" stop-color="#4ECDC4"/>
    </radialGradient>
    <radialGradient id="leaf11" cx="50%" cy="50%" r="70%">
      <stop offset="0%" stop-color="#45B7D1"/>
      <stop offset="50%" stop-color="#32CD32"/>
      <stop offset="100%" stop-color="#DC143C"/>
    </radialGradient>
    <radialGradient id="leaf12" cx="50%" cy="50%" r="70%">
      <stop offset="0%" stop-color="#FF1493"/>
      <stop offset="50%" stop-color="#DC143C"/>
      <stop offset="100%" stop-color="#FF4500"/>
    </radialGradient>
    <radialGradient id="leaf13" cx="50%" cy="50%" r="70%">
      <stop offset="0%" stop-color="#00FA9A"/>
      <stop offset="50%" stop-color="#FF6B6B"/>
      <stop offset="100%" stop-color="#FFE66D"/>
    </radialGradient>
    <radialGradient id="leaf14" cx="50%" cy="50%" r="70%">
      <stop offset="0%" stop-color="#45B7D1"/>
      <stop offset="50%" stop-color="#FF69B4"/>
      <stop offset="100%" stop-color="#4ECDC4"/>
    </radialGradient>
    <radialGradient id="leaf15" cx="50%" cy="50%" r="70%">
      <stop offset="0%" stop-color="#FF1493"/>
      <stop offset="50%" stop-color="#32CD32"/>
      <stop offset="100%" stop-color="#FF6B6B"/>
    </radialGradient>
    <radialGradient id="leaf16" cx="50%" cy="50%" r="70%">
      <stop offset="0%" stop-color="#FF1493"/>
      <stop offset="50%" stop-color="#00CED1"/>
      <stop offset="100%" stop-color="#7B68EE"/>
    </radialGradient>
    <radialGradient id="leaf17" cx="50%" cy="50%" r="70%">
      <stop offset="0%" stop-color="#FF6B6B"/>
      <stop offset="50%" stop-color="#96E6A1"/>
      <stop offset="100%" stop-color="#7B68EE"/>
    </radialGradient>
    <radialGradient id="leaf18" cx="50%" cy="50%" r="70%">
      <stop offset="0%" stop-color="#DC143C"/>
      <stop offset="50%" stop-color="#FF69B4"/>
      <stop offset="100%" stop-color="#FFE66D"/>
    </radialGradient>
    <radialGradient id="leaf19" cx="50%" cy="50%" r="70%">
      <stop offset="0%" stop-color="#96E6A1"/>
      <stop offset="50%" stop-color="#45B7D1"/>
      <stop offset="100%" stop-color="#7B68EE"/>
    </radialGradient>
  </defs>

  <!-- Background -->
  <rect width="1920" height="1080" fill="url(#bgGrad)"/>
  
  <!-- Leaves with clip-path -->
  <g clip-path="url(#complexClip)">
    <path d="M 680.0800091623412,339.5364094207016 C 712.9711495705455,366.94569309420524 723.934863039947,405.3186902371103 680.0800091623412,449.17354411471604 C 636.2251552847354,405.3186902371103 647.1888687541368,366.94569309420524 680.0800091623412,339.5364094207016 Z" fill="url(#leaf0)" opacity="0.37" transform="rotate(13.6 680.1 394.4)"/>
    <path d="M 558.045061840136,741.9776754771397 C 583.4370035683752,763.1376269173389 591.9009841444548,792.761558933618 558.045061840136,826.6174812379368 C 524.1891395358172,792.761558933618 532.6531201118968,763.1376269173389 558.045061840136,741.9776754771397 Z" fill="url(#leaf1)" opacity="0.25" transform="rotate(194.0 558.0 784.3)"/>
    <path d="M 804.9161303754859,489.95969304426893 C 852.6312436981095,529.7222874797886 868.5362814723173,585.3899196895162 804.9161303754859,649.0100707863477 C 741.2959792786544,585.3899196895162 757.2010170528622,529.7222874797886 804.9161303754859,489.95969304426893 Z" fill="url(#leaf2)" opacity="0.38" transform="rotate(168.6 804.9 569.5)"/>
    <path d="M 437.1046978597721,850.7574967273002 C 495.24165883223844,899.2049642043555 514.6206458230606,967.0314186722329 437.1046978597721,1044.5473666355213 C 359.58874989648365,967.0314186722329 378.96773688730576,899.2049642043555 437.1046978597721,850.7574967273002 Z" fill="url(#leaf3)" opacity="0.32" transform="rotate(22.2 437.1 947.7)"/>
    <path d="M 1062.7932377559346,448.8213858339942 C 1091.0306334227466,472.3525488896709 1100.4430986450172,505.29617716761834 1062.7932377559346,542.9460380567011 C 1025.143376866852,505.29617716761834 1034.5558420891225,472.3525488896709 1062.7932377559346,448.8213858339942 Z" fill="url(#leaf4)" opacity="0.35" transform="rotate(0.5 1062.8 495.9)"/>
    <path d="M 1087.513276782069,742.751235524827 C 1144.5303856599655,790.2654929230742 1163.5360886192643,856.7854532806203 1087.513276782069,932.8082651178158 C 1011.4904649448735,856.7854532806203 1030.4961679041724,790.2654929230742 1087.513276782069,742.751235524827 Z" fill="url(#leaf5)" opacity="0.37" transform="rotate(344.8 1087.5 837.8)"/>
    <path d="M 1403.3505310183803,191.22832184872314 C 1460.95790233844,239.2344646154395 1480.1603594451265,306.4430644888424 1403.3505310183803,383.25289291558863 C 1326.540702591634,306.4430644888424 1345.7431596983206,239.2344646154395 1403.3505310183803,191.22832184872314 Z" fill="url(#leaf6)" opacity="0.32" transform="rotate(43.0 1403.4 287.2)"/>
    <path d="M 787.7492661377668,343.38176328481563 C 818.403859568722,368.92725781061165 828.6220573790405,404.69095014672615 787.7492661377668,445.5637413879998 C 746.876474896493,404.69095014672615 757.0946727068115,368.92725781061165 787.7492661377668,343.38176328481563 Z" fill="url(#leaf7)" opacity="0.20" transform="rotate(157.9 787.7 394.5)"/>
    <path d="M 436.04382723760756,564.8177575484566 C 465.3079649455531,589.2045389717446 475.0626775148683,623.3460329643477 436.04382723760756,662.3648832416085 C 397.0249769603468,623.3460329643477 406.779689529662,589.2045389717446 436.04382723760756,564.8177575484566 Z" fill="url(#leaf8)" opacity="0.32" transform="rotate(168.3 436.0 613.6)"/>
    <path d="M 1142.085970198757,308.47560487829566 C 1189.9117967572456,348.33046034370295 1205.8537389434086,404.1272579952731 1142.085970198757,467.89502673992473 C 1078.3182014541053,404.1272579952731 1094.2601436402683,348.33046034370295 1142.085970198757,308.47560487829566 Z" fill="url(#leaf9)" opacity="0.34" transform="rotate(230.6 1142.1 388.2)"/>
    <path d="M 1862.3237019699632,558.391643174477 C 1904.6978148661105,593.7034039212665 1918.8225191648262,643.1398689667717 1862.3237019699632,699.6386861616348 C 1805.8248847751001,643.1398689667717 1819.9495890738158,593.7034039212665 1862.3237019699632,558.391643174477 Z" fill="url(#leaf10)" opacity="0.30" transform="rotate(68.8 1862.3 629.0)"/>
    <path d="M 1621.7951116048819,129.20963933413108 C 1655.7412731502416,157.49810728859745 1667.056660332028,197.10196242485037 1621.7951116048819,242.36351115199656 C 1576.5335628777357,197.10196242485037 1587.8489500595222,157.49810728859745 1621.7951116048819,129.20963933413108 Z" fill="url(#leaf11)" opacity="0.35" transform="rotate(2.3 1621.8 185.8)"/>
    <path d="M 1009.9873536448366,670.8823160155966 C 1039.8141755925062,695.738000971988 1049.7564495750628,730.5359599109358 1009.9873536448366,770.3050558411619 C 970.2182577146104,730.5359599109358 980.160531697167,695.738000971988 1009.9873536448366,670.8823160155966 Z" fill="url(#leaf12)" opacity="0.26" transform="rotate(75.0 1010.0 720.6)"/>
    <path d="M 1325.8291371106177,297.64505919099827 C 1365.363103780654,330.5900314160286 1378.541092670666,376.712992531071 1325.8291371106177,429.4249480911195 C 1273.1171815505693,376.712992531071 1286.2951704405814,330.5900314160286 1325.8291371106177,297.64505919099827 Z" fill="url(#leaf13)" opacity="0.38" transform="rotate(258.0 1325.8 363.5)"/>
    <path d="M 1715.2892155173513,153.81715784754888 C 1756.8813090550661,188.47723579564462 1770.7453402343044,237.00134492297863 1715.2892155173513,292.4574696399318 C 1659.8330908003982,237.00134492297863 1673.6971219796364,188.47723579564462 1715.2892155173513,153.81715784754888 Z" fill="url(#leaf14)" opacity="0.32" transform="rotate(297.3 1715.3 223.1)"/>
    <path d="M 610.1417624745039,442.61755921211085 C 644.5760917000041,471.3128335666943 656.0542014418374,511.48621766311106 610.1417624745039,557.3986566304445 C 564.2293235071704,511.48621766311106 575.7074332490038,471.3128335666943 610.1417624745039,442.61755921211085 Z" fill="url(#leaf15)" opacity="0.22" transform="rotate(341.3 610.1 500.0)"/>
    <path d="M 1137.1910135450119,-16.145444132636655 C 1176.9139854639004,16.957032466437198 1190.15497610353,63.300499705140595 1137.1910135450119,116.26446226365876 C 1084.2270509864936,63.300499705140595 1097.4680416261233,16.957032466437198 1137.1910135450119,-16.145444132636655 Z" fill="url(#leaf16)" opacity="0.38" transform="rotate(12.8 1137.2 50.1)"/>
    <path d="M 1502.3620781319285,632.5439740292243 C 1550.1126434612436,672.3361118036536 1566.0294985710154,728.0451046878546 1502.3620781319285,791.7125251269415 C 1438.6946576928415,728.0451046878546 1454.6115128026133,672.3361118036536 1502.3620781319285,632.5439740292243 Z" fill="url(#leaf17)" opacity="0.23" transform="rotate(171.1 1502.4 712.1)"/>
    <path d="M 1413.348808417464,304.9981535421607 C 1464.8785882560214,347.93963674095863 1482.0551815355407,408.05771321927574 1413.348808417464,476.7640863373524 C 1344.6424352993872,408.05771321927574 1361.8190285789065,347.93963674095863 1413.348808417464,304.9981535421607 Z" fill="url(#leaf18)" opacity="0.36" transform="rotate(9.2 1413.3 390.9)"/>
    <path d="M 973.7551983968252,828.3968595036455 C 1004.8165785437959,854.2813429594544 1015.1703719261195,890.5196197975869 973.7551983968252,931.934793326881 C 932.3400248675309,890.5196197975869 942.6938182498545,854.2813429594544 973.7551983968252,828.3968595036455 Z" fill="url(#leaf19)" opacity="0.27" transform="rotate(127.2 973.8 880.2)"/>
    <path d="M 683.3645150056701,310.3345132872391 C 722.0519139689621,342.57401242331576 734.9477136233928,387.7093112138231 683.3645150056701,439.29250983154583 C 631.7813163879474,387.7093112138231 644.6771160423781,342.57401242331576 683.3645150056701,310.3345132872391 Z" fill="url(#leaf0)" opacity="0.26" transform="rotate(143.1 683.4 374.8)"/>
    <path d="M 1540.4596261404959,34.031691793861285 C 1571.1305600524424,59.590803387150046 1581.3542046897578,95.37355961775431 1540.4596261404959,136.26813816701633 C 1499.565047591234,95.37355961775431 1509.7886922285493,59.590803387150046 1540.4596261404959,34.031691793861285 Z" fill="url(#leaf1)" opacity="0.29" transform="rotate(314.7 1540.5 85.1)"/>
    <path d="M 1546.3980859736596,389.9983874342672 C 1584.0305596783087,421.35878218814156 1596.5747175798585,465.26333484356564 1546.3980859736596,515.4399664497646 C 1496.2214543674606,465.26333484356564 1508.7656122690105,421.35878218814156 1546.3980859736596,389.9983874342672 Z" fill="url(#leaf2)" opacity="0.27" transform="rotate(41.3 1546.4 452.7)"/>
    <path d="M 644.6192422087034,94.28233096989418 C 686.75101260451,129.39213963306636 700.7949360697789,178.5458717615074 644.6192422087034,234.7215656225829 C 588.4435483476279,178.5458717615074 602.4874718128968,129.39213963306636 644.6192422087034,94.28233096989418 Z" fill="url(#leaf3)" opacity="0.39" transform="rotate(354.4 644.6 164.5)"/>
    <path d="M 1004.0682701625276,512.9710644786261 C 1037.2512257867857,540.6235274988411 1048.3122109948715,579.3369757271421 1004.0682701625276,623.5809165594861 C 959.8243293301836,579.3369757271421 970.8853145382695,540.6235274988411 1004.0682701625276,512.9710644786261 Z" fill="url(#leaf4)" opacity="0.21" transform="rotate(354.5 1004.1 568.3)"/>
    <path d="M 132.23351875405928,406.9911869882079 C 187.27564532235772,452.8596257951233 205.62302084512385,517.0754401248048 132.23351875405928,590.4649422158694 C 58.84401666299469,517.0754401248048 77.19139218576083,452.8596257951233 132.23351875405928,406.9911869882079 Z" fill="url(#leaf5)" opacity="0.24" transform="rotate(168.4 132.2 498.7)"/>
    <path d="M 766.6293202418849,692.2170125433346 C 824.5621172787824,740.4943434074158 843.8730496244149,808.0826066171296 766.6293202418849,885.3263359996596 C 689.3855908593549,808.0826066171296 708.6965232049874,740.4943434074158 766.6293202418849,692.2170125433346 Z" fill="url(#leaf6)" opacity="0.31" transform="rotate(222.5 766.6 788.8)"/>
    <path d="M 1440.5391299039318,762.2034363721375 C 1495.446852870602,807.9598721776961 1513.7494271928254,872.018882305478 1440.5391299039318,945.2291795943715 C 1367.3288326150382,872.018882305478 1385.6314069372615,807.9598721776961 1440.5391299039318,762.2034363721375 Z" fill="url(#leaf7)" opacity="0.33" transform="rotate(32.7 1440.5 853.7)"/>
    <path d="M 348.6495290691343,914.940721951132 C 397.7497609297509,955.8575818349792 414.11650488328974,1013.1411856723652 348.6495290691343,1078.6081614865207 C 283.18255325497887,1013.1411856723652 299.5492972085177,955.8575818349792 348.6495290691343,914.940721951132 Z" fill="url(#leaf8)" opacity="0.22" transform="rotate(83.6 348.6 996.8)"/>
    <path d="M 1278.9497380000532,632.9826710321374 C 1305.652626142452,655.2350778174697 1314.553588856585,686.388447316935 1278.9497380000532,721.9922981734667 C 1243.3458871435214,686.388447316935 1252.2468498576545,655.2350778174697 1278.9497380000532,632.9826710321374 Z" fill="url(#leaf9)" opacity="0.38" transform="rotate(321.5 1278.9 677.5)"/>
    <path d="M 680.0144459211701,540.4432315412172 C 716.8285404615159,571.121643658172 729.0999053082978,614.0714206219087 680.0144459211701,663.1568800090364 C 630.9289865340425,614.0714206219087 643.2003513808244,571.121643658172 680.0144459211701,540.4432315412172 Z" fill="url(#leaf10)" opacity="0.27" transform="rotate(144.0 680.0 601.8)"/>
    <path d="M 782.2398066119237,633.7108181441852 C 829.1688025135231,672.8183147288514 844.8118011473896,727.568809947384 782.2398066119237,790.14080448285 C 719.6678120764577,727.568809947384 735.3108107103242,672.8183147288514 782.2398066119237,633.7108181441852 Z" fill="url(#leaf11)" opacity="0.24" transform="rotate(313.5 782.2 711.9)"/>
    <path d="M 1733.8470472605534,47.21423630544085 C 1776.8307116036833,83.03395659138246 1791.15859971806,133.18156499170072 1733.8470472605534,190.49311744920732 C 1676.5354948030467,133.18156499170072 1690.8633829174235,83.03395659138246 1733.8470472605534,47.21423630544085 Z" fill="url(#leaf12)" opacity="0.35" transform="rotate(53.2 1733.8 118.9)"/>
    <path d="M 1046.0423074755497,588.7099801387054 C 1093.5838163010876,628.3279041599869 1109.4309859096002,683.792997789781 1046.0423074755497,747.1816762238315 C 982.6536290414992,683.792997789781 998.5007986500119,628.3279041599869 1046.0423074755497,588.7099801387054 Z" fill="url(#leaf13)" opacity="0.38" transform="rotate(61.9 1046.0 667.9)"/>
    <path d="M 1573.2780880527328,753.4506650847925 C 1598.0639915927568,774.1055847014793 1606.3259594394315,803.0224721648407 1573.2780880527328,836.0703435515395 C 1540.230216666034,803.0224721648407 1548.4921845127087,774.1055847014793 1573.2780880527328,753.4506650847925 Z" fill="url(#leaf14)" opacity="0.23" transform="rotate(23.5 1573.3 794.8)"/>
    <path d="M 774.900355538756,571.288942000502 C 826.3969856703255,614.2028004434765 843.5625290475153,674.2822022636409 774.900355538756,742.9443757724002 C 706.2381820299967,674.2822022636409 723.4037254071865,614.2028004434765 774.900355538756,571.288942000502 Z" fill="url(#leaf15)" opacity="0.35" transform="rotate(241.6 774.9 657.1)"/>
    <path d="M 1196.6037921324207,135.766030584061 C 1250.7388025437592,180.87853926017632 1268.7838060142053,244.03605140673778 1196.6037921324207,316.2160652885223 C 1124.4237782506361,244.03605140673778 1142.4687817210822,180.87853926017632 1196.6037921324207,135.766030584061 Z" fill="url(#leaf16)" opacity="0.35" transform="rotate(77.1 1196.6 226.0)"/>
    <path d="M 804.275620697156,891.7839567658023 C 847.6774238154867,927.9521260310778 862.1446915215969,978.5875630024635 804.275620697156,1036.4566338269044 C 746.4065498727151,978.5875630024635 760.8738175788253,927.9521260310778 804.275620697156,891.7839567658023 Z" fill="url(#leaf17)" opacity="0.22" transform="rotate(48.8 804.3 964.1)"/>
    <path d="M 447.42950210362125,710.0193367637306 C 485.1550159694261,741.4572649852346 497.73018725802774,785.4703644953403 447.42950210362125,835.7710496497467 C 397.12881694921475,785.4703644953403 409.7039882378164,741.4572649852346 447.42950210362125,710.0193367637306 Z" fill="url(#leaf18)" opacity="0.25" transform="rotate(42.9 447.4 772.9)"/>
    <path d="M 130.0079401748657,650.0846872927498 C 158.89294628259552,674.155525715858 168.5212816518388,707.8546995082094 130.0079401748657,746.3680409851825 C 91.4945986978926,707.8546995082094 101.12293406713587,674.155525715858 130.0079401748657,650.0846872927498 Z" fill="url(#leaf19)" opacity="0.29" transform="rotate(12.6 130.0 698.2)"/>
    <path d="M 1170.2991585491447,697.1482374723671 C 1214.7175614056118,734.1635731860898 1229.523695691101,785.9850431853015 1170.2991585491447,845.2095803272578 C 1111.0746214071885,785.9850431853015 1125.8807556926777,734.1635731860898 1170.2991585491447,697.1482374723671 Z" fill="url(#leaf0)" opacity="0.23" transform="rotate(188.9 1170.3 771.2)"/>
    <path d="M 1431.537413281884,260.3137920034127 C 1472.83312283435,294.72688329713424 1486.5983593518386,342.9052111083444 1431.537413281884,397.9661571782989 C 1376.4764672119295,342.9052111083444 1390.241703729418,294.72688329713424 1431.537413281884,260.3137920034127 Z" fill="url(#leaf1)" opacity="0.28" transform="rotate(190.7 1431.5 329.1)"/>
    <path d="M 1078.6551724291462,216.2828104335846 C 1132.037474754831,260.76806237165533 1149.8315755300594,323.0474150849543 1078.6551724291462,394.22381818586746 C 1007.478769328233,323.0474150849543 1025.2728701034614,260.76806237165533 1078.6551724291462,216.2828104335846 Z" fill="url(#leaf2)" opacity="0.33" transform="rotate(184.7 1078.7 305.3)"/>
    <path d="M 1606.2860079216362,114.3553353884376 C 1634.001523309129,137.45159821134826 1643.2400284382932,169.78636616342317 1606.2860079216362,206.74038668008023 C 1569.3319874049791,169.78636616342317 1578.5704925341433,137.45159821134826 1606.2860079216362,114.3553353884376 Z" fill="url(#leaf3)" opacity="0.25" transform="rotate(35.3 1606.3 160.5)"/>
    <path d="M 1742.9618939423726,689.2397760102542 C 1774.7924045397488,715.7652015080675 1785.4025747388741,752.9007972050064 1742.9618939423726,795.3414780015078 C 1700.5212131458711,752.9007972050064 1711.1313833449965,715.7652015080675 1742.9618939423726,689.2397760102542 Z" fill="url(#leaf4)" opacity="0.21" transform="rotate(308.5 1743.0 742.3)"/>
    <path d="M 1071.6988603906893,787.8209788879882 C 1105.8801662575884,816.3054004437374 1117.2739348798882,856.1835906217864 1071.6988603906893,901.7586651109851 C 1026.1237859014905,856.1835906217864 1037.5175545237903,816.3054004437374 1071.6988603906893,787.8209788879882 Z" fill="url(#leaf5)" opacity="0.30" transform="rotate(77.2 1071.7 844.8)"/>
    <path d="M 1527.0959358976786,84.26060992272068 C 1569.9753959796299,119.9934933243467 1584.2685493402803,170.01953008662315 1527.0959358976786,227.19214352922478 C 1469.923322455077,170.01953008662315 1484.2164758157273,119.9934933243467 1527.0959358976786,84.26060992272068 Z" fill="url(#leaf6)" opacity="0.20" transform="rotate(134.3 1527.1 155.7)"/>
    <path d="M 1857.3851477339579,498.6411028034963 C 1883.6947032704566,520.5657324172452 1892.464555115956,551.2602138764935 1857.3851477339579,586.3396212584917 C 1822.3057403519597,551.2602138764935 1831.0755921974592,520.5657324172452 1857.3851477339579,498.6411028034963 Z" fill="url(#leaf7)" opacity="0.23" transform="rotate(356.1 1857.4 542.5)"/>
    <path d="M 236.36020797173194,116.25219518494006 C 284.1582634104473,156.0839080505362 300.09094855668576,211.84830606237082 236.36020797173194,275.5790466473246 C 172.62946738677812,211.84830606237082 188.56215253301656,156.0839080505362 236.36020797173194,116.25219518494006 Z" fill="url(#leaf8)" opacity="0.39" transform="rotate(233.6 236.4 195.9)"/>
    <path d="M 155.89469914261156,44.41290413885008 C 190.50757636808206,73.25696849340883 202.04520210990557,113.63865858979109 155.89469914261156,159.7891615570851 C 109.74419617531754,113.63865858979109 121.28182191714106,73.25696849340883 155.89469914261156,44.41290413885008 Z" fill="url(#leaf9)" opacity="0.35" transform="rotate(251.7 155.9 102.1)"/>
    <path d="M 955.9147004503562,573.2813698523776 C 999.8773170934796,609.9168837216471 1014.5315226411874,661.2066031386242 955.9147004503562,719.8234253294554 C 897.2978782595251,661.2066031386242 911.9520838072328,609.9168837216471 955.9147004503562,573.2813698523776 Z" fill="url(#leaf10)" opacity="0.38" transform="rotate(140.9 955.9 646.6)"/>
    <path d="M 853.703288528015,127.51664470029112 C 886.7983686740334,155.0958781553065 897.8300620560397,193.70680499232805 853.703288528015,237.83357852035266 C 809.5765149999904,193.70680499232805 820.6082083819966,155.0958781553065 853.703288528015,127.51664470029112 Z" fill="url(#leaf11)" opacity="0.25" transform="rotate(166.6 853.7 182.7)"/>
    <path d="M 1375.7521161945504,471.849527238077 C 1406.5243851178916,497.49308467419456 1416.7818080923385,533.3940650847593 1375.7521161945504,574.4237569825475 C 1334.7224242967623,533.3940650847593 1344.979847271209,497.49308467419456 1375.7521161945504,471.849527238077 Z" fill="url(#leaf12)" opacity="0.32" transform="rotate(5.4 1375.8 523.1)"/>
    <path d="M 1632.9231993948622,641.1411737905462 C 1675.0295755413654,676.2298205792988 1689.0650342568665,725.3539260835526 1632.9231993948622,781.4957609455569 C 1576.7813645328579,725.3539260835526 1590.816823248359,676.2298205792988 1632.9231993948622,641.1411737905462 Z" fill="url(#leaf13)" opacity="0.34" transform="rotate(94.0 1632.9 711.3)"/>
    <path d="M 1254.4084516783494,828.076164690713 C 1283.4086207166981,852.2429722226702 1293.075343729481,886.0765027674104 1254.4084516783494,924.743394818542 C 1215.7415596272178,886.0765027674104 1225.4082826400006,852.2429722226702 1254.4084516783494,828.076164690713 Z" fill="url(#leaf14)" opacity="0.36" transform="rotate(328.1 1254.4 876.4)"/>
    <path d="M 1288.7356714969096,509.22636376526617 C 1348.0352586720403,558.6426864112084 1367.8017877304173,627.8255381155276 1288.7356714969096,706.8916543490352 C 1209.669555263402,627.8255381155276 1229.436084321779,558.6426864112084 1288.7356714969096,509.22636376526617 Z" fill="url(#leaf15)" opacity="0.26" transform="rotate(193.1 1288.7 608.1)"/>
    <path d="M 1124.5302974467306,252.95559991417238 C 1159.7110388140404,282.2728843869306 1171.437952603144,323.31708264879217 1124.5302974467306,370.22473780520534 C 1077.6226422903173,323.31708264879217 1089.3495560794208,282.2728843869306 1124.5302974467306,252.95559991417238 Z" fill="url(#leaf16)" opacity="0.29" transform="rotate(146.9 1124.5 311.6)"/>
    <path d="M 1171.5323642995609,438.0750848918033 C 1228.1730682321465,485.2756715022914 1247.0533028763418,551.3564927569748 1171.5323642995609,626.8774313337558 C 1096.01142572278,551.3564927569748 1114.8916603669752,485.2756715022914 1171.5323642995609,438.0750848918033 Z" fill="url(#leaf17)" opacity="0.40" transform="rotate(69.5 1171.5 532.5)"/>
    <path d="M 1204.0750554850074,661.4593717324628 C 1260.6099790033918,708.5718079977831 1279.45495350952,774.5292187692315 1204.0750554850074,849.909116793744 C 1128.6951574604948,774.5292187692315 1147.540131966623,708.5718079977831 1204.0750554850074,661.4593717324628 Z" fill="url(#leaf18)" opacity="0.26" transform="rotate(294.6 1204.1 755.7)"/>
    <path d="M 900.8030915954056,29.76380465801651 C 959.0011698747496,78.26220322413656 978.4005293011977,146.15996121670463 900.8030915954056,223.7573989224967 C 823.2056538896135,146.15996121670463 842.6050133160616,78.26220322413656 900.8030915954056,29.76380465801651 Z" fill="url(#leaf19)" opacity="0.35" transform="rotate(4.7 900.8 126.8)"/>
    <path d="M 951.3149490731149,28.58457104770295 C 983.4167764617082,55.33609387153069 994.1173855912393,92.78822582488954 951.3149490731149,135.59066234301392 C 908.5125125549905,92.78822582488954 919.2131216845216,55.33609387153069 951.3149490731149,28.58457104770295 Z" fill="url(#leaf0)" opacity="0.30" transform="rotate(326.6 951.3 82.1)"/>
    <path d="M 518.3688490122827,88.51945125303614 C 543.7483091460709,109.66900136452634 552.208129190667,139.27837152061264 518.3688490122827,173.11765169899695 C 484.52956883389834,139.27837152061264 492.9893888784944,109.66900136452634 518.3688490122827,88.51945125303614 Z" fill="url(#leaf1)" opacity="0.36" transform="rotate(45.8 518.4 130.8)"/>
    <path d="M 267.04797579321075,552.928489617143 C 301.8068565531626,581.8942235837696 313.39315013981326,622.4462511370468 267.04797579321075,668.7914254836494 C 220.70280144660825,622.4462511370468 232.28909503325886,581.8942235837696 267.04797579321075,552.928489617143 Z" fill="url(#leaf2)" opacity="0.30" transform="rotate(93.7 267.0 610.9)"/>
    <path d="M 1264.241075014932,901.7796125126139 C 1309.213139087093,939.2563325727481 1324.2038271111467,991.723740656936 1264.241075014932,1051.6864927531506 C 1204.2783229187173,991.723740656936 1219.269010942771,939.2563325727481 1264.241075014932,901.7796125126139 Z" fill="url(#leaf3)" opacity="0.28" transform="rotate(268.5 1264.2 976.7)"/>
    <path d="M 1394.8867314540262,574.2394217399315 C 1434.5368478792484,607.2811854276167 1447.7535533543225,653.5396545903761 1394.8867314540262,706.4064764906725 C 1342.0199095537298,653.5396545903761 1355.236615028804,607.2811854276167 1394.8867314540262,574.2394217399315 Z" fill="url(#leaf4)" opacity="0.35" transform="rotate(127.9 1394.9 640.3)"/>
    <path d="M 223.0679693742148,332.2035975285683 C 260.1754064691228,363.126461774325 272.5445521674255,406.4184717183843 223.0679693742148,455.895054511595 C 173.59138658100414,406.4184717183843 185.96053227930682,363.126461774325 223.0679693742148,332.2035975285683 Z" fill="url(#leaf5)" opacity="0.21" transform="rotate(157.0 223.1 394.0)"/>
    <path d="M 714.1414685526197,755.5245123365827 C 762.0335441081509,795.4345752995252 777.997569293328,851.308663447645 714.1414685526197,915.1647641883532 C 650.2853678119114,851.308663447645 666.2493929970885,795.4345752995252 714.1414685526197,755.5245123365827 Z" fill="url(#leaf6)" opacity="0.27" transform="rotate(311.7 714.1 835.3)"/>
    <path d="M 1743.2027458932937,-16.77069004588268 C 1786.8628203627027,19.612705345291452 1801.4161785191723,70.54945889293523 1743.2027458932937,128.76289151881386 C 1684.9893132674151,70.54945889293523 1699.5426714238847,19.612705345291452 1743.2027458932937,-16.77069004588268 Z" fill="url(#leaf7)" opacity="0.24" transform="rotate(312.9 1743.2 56.0)"/>
    <path d="M 308.5465982996428,376.2120862017203 C 344.552216974698,406.216768430933 356.5540898663831,448.22332355183073 308.5465982996428,496.230815118571 C 260.53910673290255,448.22332355183073 272.54097962458764,406.216768430933 308.5465982996428,376.2120862017203 Z" fill="url(#leaf8)" opacity="0.24" transform="rotate(219.5 308.5 436.2)"/>
    <path d="M 134.84335076531693,659.5027112155806 C 174.84855280073162,692.8403795784262 188.18362014586987,739.51311528641 134.84335076531693,792.8533846669629 C 81.50308138476399,739.51311528641 94.83814872990223,692.8403795784262 134.84335076531693,659.5027112155806 Z" fill="url(#leaf9)" opacity="0.25" transform="rotate(64.1 134.8 726.2)"/>
    <path d="M 120.05489599048961,929.7431637667556 C 148.08965408515942,953.1054621789805 157.43457345004936,985.8126799560953 120.05489599048961,1023.192357415655 C 82.67521853092985,985.8126799560953 92.0201378958198,953.1054621789805 120.05489599048961,929.7431637667556 Z" fill="url(#leaf10)" opacity="0.27" transform="rotate(222.4 120.1 976.5)"/>
    <path d="M 794.713052605261,-5.3601180650090186 C 853.333820962996,43.49052223310344 872.874077082241,111.88141865046089 794.713052605261,190.04244312744083 C 716.5520281282811,111.88141865046089 736.0922842475261,43.49052223310344 794.713052605261,-5.3601180650090186 Z" fill="url(#leaf11)" opacity="0.30" transform="rotate(252.2 794.7 92.3)"/>
    <path d="M 747.6892504576925,404.91870127463653 C 793.842771863106,443.3799691124811 809.227278998244,497.22574408546353 747.6892504576925,558.7637726260149 C 686.1512219171411,497.22574408546353 701.5357290522791,443.3799691124811 747.6892504576925,404.91870127463653 Z" fill="url(#leaf12)" opacity="0.39" transform="rotate(320.7 747.7 481.8)"/>
    <path d="M 1270.7768276233394,32.436153681464944 C 1307.7959619716505,63.2854323050575 1320.1356734210874,106.47442237808707 1270.7768276233394,155.83326817583514 C 1221.4179818255914,106.47442237808707 1233.7576932750283,63.2854323050575 1270.7768276233394,32.436153681464944 Z" fill="url(#leaf13)" opacity="0.35" transform="rotate(325.6 1270.8 94.1)"/>
    <path d="M 214.23481533269464,922.2181439355472 C 244.76585778578772,947.6606793131248 254.94287193681873,983.2802288417333 214.23481533269464,1023.9882854458574 C 173.52675872857054,983.2802288417333 183.70377287960156,947.6606793131248 214.23481533269464,922.2181439355472 Z" fill="url(#leaf14)" opacity="0.37" transform="rotate(3.9 214.2 973.1)"/>
    <path d="M 565.6157848255369,835.8030092189429 C 625.1893682229821,885.4476620501472 645.0472293554639,954.9501760138332 565.6157848255369,1034.3816205437602 C 486.18434029561007,954.9501760138332 506.0422014280918,885.4476620501472 565.6157848255369,835.8030092189429 Z" fill="url(#leaf15)" opacity="0.38" transform="rotate(95.0 565.6 935.1)"/>
    <path d="M 131.7651689203505,807.5806579339971 C 181.7335059786202,849.2209388158885 198.38961833137677,907.5173320505364 131.7651689203505,974.1417814615627 C 65.14071950932424,907.5173320505364 81.79683186208081,849.2209388158885 131.7651689203505,807.5806579339971 Z" fill="url(#leaf16)" opacity="0.39" transform="rotate(358.6 131.8 890.9)"/>
    <path d="M 1195.490559230451,61.34999228152316 C 1234.5745460340963,93.91998128456088 1247.6025416353114,139.51796588881368 1195.490559230451,191.62994829367403 C 1143.3785768255907,139.51796588881368 1156.4065724268057,93.91998128456088 1195.490559230451,61.34999228152316 Z" fill="url(#leaf17)" opacity="0.23" transform="rotate(210.8 1195.5 126.5)"/>
    <path d="M 1622.805997094634,170.50959943219812 C 1668.0565049205486,208.21835595379366 1683.140007529187,261.01061508402745 1622.805997094634,321.34462551858036 C 1562.471986660081,261.01061508402745 1577.5554892687194,208.21835595379366 1622.805997094634,170.50959943219812 Z" fill="url(#leaf18)" opacity="0.25" transform="rotate(267.3 1622.8 245.9)"/>
    <path d="M 390.3808625661002,589.673620125359 C 414.40811643776306,609.696331685078 422.41720106165064,637.7281278686846 390.3808625661002,669.7644663642351 C 358.3445240705497,637.7281278686846 366.3536086944373,609.696331685078 390.3808625661002,589.673620125359 Z" fill="url(#leaf19)" opacity="0.31" transform="rotate(121.1 390.4 629.7)"/>
    <path d="M 327.60852618103445,429.9091773130776 C 376.7911901948576,470.8947306579302 393.18541153279864,528.2745053407239 327.60852618103445,593.8513906924882 C 262.03164082927026,528.2745053407239 278.4258621672113,470.8947306579302 327.60852618103445,429.9091773130776 Z" fill="url(#leaf0)" opacity="0.33" transform="rotate(256.1 327.6 511.9)"/>
    <path d="M 570.9673605284247,73.36798505770184 C 614.7398444215451,109.84505496863551 629.3306723859185,160.91295284394263 570.9673605284247,219.2762647014365 C 512.6040486709309,160.91295284394263 527.1948766353044,109.84505496863551 570.9673605284247,73.36798505770184 Z" fill="url(#leaf1)" opacity="0.38" transform="rotate(305.1 571.0 146.3)"/>
    <path d="M 1127.891627121855,607.5883942780126 C 1181.5464011572813,652.3007059742012 1199.4313258357565,714.8979423488651 1127.891627121855,786.4376410627667 C 1056.3519284079534,714.8979423488651 1074.2368530864287,652.3007059742012 1127.891627121855,607.5883942780126 Z" fill="url(#leaf2)" opacity="0.32" transform="rotate(10.3 1127.9 697.0)"/>
    <path d="M 1770.5825039377996,399.3722178297347 C 1808.6229132880326,431.0725589549288 1821.30304973811,475.4530365302005 1770.5825039377996,526.1735823305111 C 1719.8619581374892,475.4530365302005 1732.5420945875667,431.0725589549288 1770.5825039377996,399.3722178297347 Z" fill="url(#leaf3)" opacity="0.22" transform="rotate(186.0 1770.6 462.8)"/>
    <path d="M 1375.4084973244176,559.8637514242293 C 1406.4772835489348,585.7544066113271 1416.833545623774,622.001323873264 1375.4084973244176,663.4263721726204 C 1333.9834490250612,622.001323873264 1344.3397110999003,585.7544066113271 1375.4084973244176,559.8637514242293 Z" fill="url(#leaf4)" opacity="0.21" transform="rotate(268.7 1375.4 611.6)"/>
    <path d="M 925.440310529868,944.221209322097 C 960.9526008565797,973.8147845943568 972.7900309654837,1015.2457899755203 925.440310529868,1062.595510411136 C 878.0905900942524,1015.2457899755203 889.9280202031564,973.8147845943568 925.440310529868,944.221209322097 Z" fill="url(#leaf5)" opacity="0.24" transform="rotate(145.4 925.4 1003.4)"/>
    <path d="M 1220.10398631883,514.3498204407907 C 1257.2675025696005,545.3194173164329 1269.6553413198576,588.676852942332 1220.10398631883,638.2282079433595 C 1170.5526313178025,588.676852942332 1182.9404700680595,545.3194173164329 1220.10398631883,514.3498204407907 Z" fill="url(#leaf6)" opacity="0.37" transform="rotate(273.9 1220.1 576.3)"/>
    <path d="M 73.77343281391624,635.9352974330762 C 109.7866792601188,665.946336138245 121.79109474218633,707.9617903254814 73.77343281391624,755.9794522537514 C 25.755770885646157,707.9617903254814 37.760186367713686,665.946336138245 73.77343281391624,635.9352974330762 Z" fill="url(#leaf7)" opacity="0.35" transform="rotate(322.6 73.8 696.0)"/>
    <path d="M 966.8056399833374,697.0915277108882 C 1023.1832155076847,744.0728406478443 1041.9757406824672,809.8466787595828 966.8056399833374,885.0167794587126 C 891.6355392842077,809.8466787595828 910.4280644589901,744.0728406478443 966.8056399833374,697.0915277108882 Z" fill="url(#leaf8)" opacity="0.27" transform="rotate(134.7 966.8 791.1)"/>
    <path d="M 1835.9312849866985,50.01377633986019 C 1870.1743553646202,78.54966832146157 1881.5887121572607,118.4999170957035 1835.9312849866985,164.1573442662657 C 1790.2738578161363,118.4999170957035 1801.688214608777,78.54966832146157 1835.9312849866985,50.01377633986019 Z" fill="url(#leaf9)" opacity="0.27" transform="rotate(123.7 1835.9 107.1)"/>
    <path d="M 213.64677386404787,459.8379984770129 C 252.35005956211685,492.09073655873704 265.2511547948065,537.2445698731508 213.64677386404787,588.8489508039095 C 162.04239293328925,537.2445698731508 174.9434881659789,492.09073655873704 213.64677386404787,459.8379984770129 Z" fill="url(#leaf10)" opacity="0.29" transform="rotate(175.5 213.6 524.3)"/>
    <path d="M 1521.1180036555577,131.31793157358624 C 1580.553208203897,180.84726869720237 1600.3649430533435,250.18834067026492 1521.1180036555577,329.4352800680507 C 1441.8710642577719,250.18834067026492 1461.6827991072184,180.84726869720237 1521.1180036555577,131.31793157358624 Z" fill="url(#leaf11)" opacity="0.28" transform="rotate(344.7 1521.1 230.4)"/>
    <path d="M 1010.1785613389443,605.8181587207788 C 1040.2942419022158,630.9145591901718 1050.332802089973,666.0495198473219 1010.1785613389443,706.2037605983506 C 970.0243205879156,666.0495198473219 980.0628807756727,630.9145591901718 1010.1785613389443,605.8181587207788 Z" fill="url(#leaf12)" opacity="0.35" transform="rotate(155.6 1010.2 656.0)"/>
    <path d="M 750.4303129412701,238.30271885520358 C 778.3154237102025,261.5403111626472 787.6104606331799,294.0729403930682 750.4303129412701,331.253088084978 C 713.2501652493604,294.0729403930682 722.5452021723378,261.5403111626472 750.4303129412701,238.30271885520358 Z" fill="url(#leaf13)" opacity="0.23" transform="rotate(152.4 750.4 284.8)"/>
    <path d="M 1793.9687626624898,378.64197596011013 C 1836.5408939523836,414.11875203502154 1850.731604382348,463.78623853989757 1793.9687626624898,520.5490802597559 C 1737.2059209426316,463.78623853989757 1751.396631372596,414.11875203502154 1793.9687626624898,378.64197596011013 Z" fill="url(#leaf14)" opacity="0.35" transform="rotate(130.0 1794.0 449.6)"/>
    <path d="M 1279.5992428110164,435.6035827625966 C 1329.0218910695485,476.78912297804004 1345.496107155726,534.4488792796609 1279.5992428110164,600.3457436243704 C 1213.702378466307,534.4488792796609 1230.1765945524844,476.78912297804004 1279.5992428110164,435.6035827625966 Z" fill="url(#leaf15)" opacity="0.21" transform="rotate(155.6 1279.6 518.0)"/>
    <path d="M 913.5142570051361,890.9570986925116 C 955.7946841604071,926.1907879885708 969.8881598788307,975.5179530030537 913.5142570051361,1031.8918558767484 C 857.1403541314414,975.5179530030537 871.2338298498651,926.1907879885708 913.5142570051361,890.9570986925116 Z" fill="url(#leaf16)" opacity="0.29" transform="rotate(288.5 913.5 961.4)"/>
    <path d="M 1816.167604622923,541.7298075158833 C 1863.563833219978,581.226664680096 1879.3625760856632,636.5222647099937 1816.167604622923,699.7172361727339 C 1752.9726331601826,636.5222647099937 1768.7713760258678,581.226664680096 1816.167604622923,541.7298075158833 Z" fill="url(#leaf17)" opacity="0.35" transform="rotate(73.6 1816.2 620.7)"/>
    <path d="M 1188.6612700752576,414.69375934977995 C 1242.3079935911999,459.3993622797318 1260.1902347631806,521.9872063816644 1188.6612700752576,593.5161710695874 C 1117.1323053873346,521.9872063816644 1135.0145465593152,459.3993622797318 1188.6612700752576,414.69375934977995 Z" fill="url(#leaf18)" opacity="0.30" transform="rotate(97.3 1188.7 504.1)"/>
    <path d="M 1113.4582741431188,-22.439982306249007 C 1167.2039120007144,22.348049241747276 1185.1191246199128,85.05129340894207 1113.4582741431188,156.7121438857361 C 1041.797423666325,85.05129340894207 1059.7126362855233,22.348049241747276 1113.4582741431188,-22.439982306249007 Z" fill="url(#leaf19)" opacity="0.29" transform="rotate(110.7 1113.5 67.1)"/>
    <path d="M 588.6138307526148,268.44224690766225 C 619.9722803555464,294.5742882434386 630.4250968898571,331.15914611352554 588.6138307526148,372.9704122507677 C 546.8025646153726,331.15914611352554 557.2553811496832,294.5742882434386 588.6138307526148,268.44224690766225 Z" fill="url(#leaf0)" opacity="0.23" transform="rotate(144.2 588.6 320.7)"/>
    <path d="M 1309.1157627463933,45.8115459084334 C 1355.465631362826,84.43643642212727 1370.9155875683036,138.5112831412987 1309.1157627463933,200.31110796320888 C 1247.315937924483,138.5112831412987 1262.7658941299608,84.43643642212727 1309.1157627463933,45.8115459084334 Z" fill="url(#leaf1)" opacity="0.32" transform="rotate(334.8 1309.1 123.1)"/>
    <path d="M 1055.1669366983015,271.62458736805564 C 1106.6843954554759,314.55580299903437 1123.8568817078674,374.6595048824046 1055.1669366983015,443.34944989197055 C 986.4769916887356,374.6595048824046 1003.649477941127,314.55580299903437 1055.1669366983015,271.62458736805564 Z" fill="url(#leaf2)" opacity="0.31" transform="rotate(161.9 1055.2 357.5)"/>
    <path d="M 1768.7134909283916,503.07245640803103 C 1818.2721977229971,544.371378736869 1834.7917666545325,602.1898699972422 1768.7134909283916,668.268145723383 C 1702.6352152022507,602.1898699972422 1719.154784133786,544.371378736869 1768.7134909283916,503.07245640803103 Z" fill="url(#leaf3)" opacity="0.21" transform="rotate(9.7 1768.7 585.7)"/>
    <path d="M 1152.5714648386506,887.0248766846978 C 1192.2064517021697,920.054032404297 1205.4181139900095,966.2948504117359 1152.5714648386506,1019.1414995630946 C 1099.7248156872918,966.2948504117359 1112.9364779751315,920.054032404297 1152.5714648386506,887.0248766846978 Z" fill="url(#leaf4)" opacity="0.38" transform="rotate(128.6 1152.6 953.1)"/>
    <path d="M 1195.7971155051785,46.435892609083055 C 1236.104738602763,80.02557852373694 1249.5406129686246,127.05113880425237 1195.7971155051785,180.7946362676986 C 1142.0536180417323,127.05113880425237 1155.4894924075938,80.02557852373694 1195.7971155051785,46.435892609083055 Z" fill="url(#leaf5)" opacity="0.23" transform="rotate(20.6 1195.8 113.6)"/>
    <path d="M 682.6525951927716,537.5551132726533 C 730.469794870259,577.4027796705594 746.4088614294213,633.189512627628 682.6525951927716,696.9457788642777 C 618.8963289561219,633.189512627628 634.8353955152843,577.4027796705594 682.6525951927716,537.5551132726533 Z" fill="url(#leaf6)" opacity="0.33" transform="rotate(297.8 682.7 617.3)"/>
    <path d="M 579.6151417517556,164.87793158325368 C 623.3129691673684,201.29278776293103 637.8789116392393,252.27358641447927 579.6151417517556,310.537356301963 C 521.3513718642719,252.27358641447927 535.9173143361428,201.29278776293103 579.6151417517556,164.87793158325368 Z" fill="url(#leaf7)" opacity="0.25" transform="rotate(33.9 579.6 237.7)"/>
    <path d="M 1791.305784799845,313.22404339437423 C 1844.7942539452454,357.7977676822079 1862.623743660379,420.20098168517507 1791.305784799845,491.5189405457089 C 1719.987825939311,420.20098168517507 1737.8173156544447,357.7977676822079 1791.305784799845,313.22404339437423 Z" fill="url(#leaf8)" opacity="0.36" transform="rotate(12.7 1791.3 402.4)"/>
    <path d="M 381.27696946191713,666.2580166047451 C 415.68816348036944,694.934011620122 427.1585614865203,735.0804046416497 381.27696946191713,780.9619966662528 C 335.395377437314,735.0804046416497 346.8657754434648,694.934011620122 381.27696946191713,666.2580166047451 Z" fill="url(#leaf9)" opacity="0.21" transform="rotate(12.3 381.3 723.6)"/>
    <path d="M 1801.0147920083975,171.05900546065027 C 1826.9138429194288,192.6415478865097 1835.5468598897726,222.85710728271295 1801.0147920083975,257.38917516408804 C 1766.4827241270225,222.85710728271295 1775.1157410973663,192.6415478865097 1801.0147920083975,171.05900546065027 Z" fill="url(#leaf10)" opacity="0.39" transform="rotate(59.9 1801.0 214.2)"/>
    <path d="M 1694.7069039552496,337.21448639899336 C 1725.4247422977228,362.81268501772115 1735.664021745214,398.65016308394 1694.7069039552496,439.6072808739044 C 1653.749786165285,398.65016308394 1663.9890656127764,362.81268501772115 1694.7069039552496,337.21448639899336 Z" fill="url(#leaf11)" opacity="0.34" transform="rotate(207.9 1694.7 388.4)"/>
    <path d="M 1187.5533205497002,244.80325333727586 C 1220.4174173176625,272.1900006439111 1231.3721162403167,310.53144687320054 1187.5533205497002,354.35024256381695 C 1143.7345248590836,310.53144687320054 1154.6892237817378,272.1900006439111 1187.5533205497002,244.80325333727586 Z" fill="url(#leaf12)" opacity="0.28" transform="rotate(15.0 1187.6 299.6)"/>
    <path d="M 927.1649900147925,355.60503992569994 C 964.3239949734568,386.5708773912536 976.7103299596783,429.92304984302876 927.1649900147925,479.46838978791465 C 877.6196500699066,429.92304984302876 890.0059850561281,386.5708773912536 927.1649900147925,355.60503992569994 Z" fill="url(#leaf13)" opacity="0.25" transform="rotate(358.5 927.2 417.5)"/>
    <path d="M 1186.782301263154,244.28147384163114 C 1237.6427358456729,286.6651693270635 1254.5962140398458,346.0023430066688 1186.782301263154,413.8162557833606 C 1118.9683884864623,346.0023430066688 1135.9218666806353,286.6651693270635 1186.782301263154,244.28147384163114 Z" fill="url(#leaf14)" opacity="0.37" transform="rotate(198.8 1186.8 329.0)"/>
    <path d="M 1258.360218058678,975.9665951335393 C 1290.1390889547838,1002.4489875469608 1300.7320459201524,1039.524336925751 1258.360218058678,1081.8961647872256 C 1215.9883901972034,1039.524336925751 1226.581347162572,1002.4489875469608 1258.360218058678,975.9665951335393 Z" fill="url(#leaf15)" opacity="0.30" transform="rotate(48.9 1258.4 1028.9)"/>
    <path d="M 442.3489334876057,118.38287203715254 C 471.31730960798785,142.52318547080435 480.9734349814486,176.3196242779169 442.3489334876057,214.9441257717598 C 403.7244319937628,176.3196242779169 413.3805573672235,142.52318547080435 442.3489334876057,118.38287203715254 Z" fill="url(#leaf16)" opacity="0.35" transform="rotate(32.3 442.3 166.7)"/>
    <path d="M 251.91620059860085,377.660250391366 C 294.86758013349885,413.45306667044764 309.1847066451315,463.5630094611619 251.91620059860085,520.8315155076926 C 194.6476945520702,463.5630094611619 208.96482106370286,413.45306667044764 251.91620059860085,377.660250391366 Z" fill="url(#leaf17)" opacity="0.34" transform="rotate(80.6 251.9 449.2)"/>
    <path d="M 1507.669096313404,100.20110616527421 C 1559.8909842801736,143.7193461375822 1577.2982802690967,204.64488209881335 1507.669096313404,274.27406605450614 C 1438.0399123577113,204.64488209881335 1455.4472083466344,143.7193461375822 1507.669096313404,100.20110616527421 Z" fill="url(#leaf18)" opacity="0.37" transform="rotate(176.9 1507.7 187.2)"/>
    <path d="M 910.7617766696841,128.6579606416717 C 969.7906040759283,177.84865014687517 989.4668798780096,246.71561545416006 910.7617766696841,325.4207186624856 C 832.0566734613585,246.71561545416006 851.7329492634399,177.84865014687517 910.7617766696841,128.6579606416717 Z" fill="url(#leaf19)" opacity="0.38" transform="rotate(95.2 910.8 227.0)"/>
    <path d="M 189.85290636296057,661.6151527885639 C 243.3228086608709,706.1734047034893 261.146109426841,768.5549573843846 189.85290636296057,839.848160448265 C 118.55970329908014,768.5549573843846 136.38300406505024,706.1734047034893 189.85290636296057,661.6151527885639 Z" fill="url(#leaf0)" opacity="0.33" transform="rotate(293.0 189.9 750.7)"/>
    <path d="M 75.37994355899394,156.79395206963994 C 116.0874624576415,190.71688448517955 129.65663542385732,238.20898986693504 75.37994355899394,292.4856817317984 C 21.10325169413055,238.20898986693504 34.6724246603464,190.71688448517955 75.37994355899394,156.79395206963994 Z" fill="url(#leaf1)" opacity="0.26" transform="rotate(54.2 75.4 224.6)"/>
    <path d="M 543.6273172003689,33.7695619009928 C 569.3341732531942,55.19194194501391 577.9031252708027,85.18327400664346 543.6273172003689,119.45908207707724 C 509.35150912993515,85.18327400664346 517.9204611475436,55.19194194501391 543.6273172003689,33.7695619009928 Z" fill="url(#leaf2)" opacity="0.37" transform="rotate(274.1 543.6 76.6)"/>
    <path d="M 507.7318436955052,338.9899335584897 C 535.8933123030713,362.45782406479486 545.2804685055934,395.31287077362197 507.7318436955052,432.86149558371017 C 470.183218885417,395.31287077362197 479.57037508793906,362.45782406479486 507.7318436955052,338.9899335584897 Z" fill="url(#leaf3)" opacity="0.22" transform="rotate(277.2 507.7 385.9)"/>
    <path d="M 1352.256403993549,33.347257836127795 C 1400.0210124672897,73.1510982309118 1415.9425486252032,128.8764747836094 1352.256403993549,192.5626194152638 C 1288.5702593618946,128.8764747836094 1304.4917955198082,73.1510982309118 1352.256403993549,33.347257836127795 Z" fill="url(#leaf4)" opacity="0.22" transform="rotate(87.7 1352.3 113.0)"/>
    <path d="M 379.6134688463808,258.8410730453425 C 407.98827783137466,282.48674719950407 417.4465474930393,315.59069101533026 379.6134688463808,353.42376966198873 C 341.78039019972226,315.59069101533026 351.2386598613869,282.48674719950407 379.6134688463808,258.8410730453425 Z" fill="url(#leaf5)" opacity="0.37" transform="rotate(326.6 379.6 306.1)"/>
    <path d="M 1839.3386674398203,595.8209560194141 C 1866.669699376166,618.5968159663689 1875.7800433549478,650.4830198921055 1839.3386674398203,686.9243958072332 C 1802.8972915246927,650.4830198921055 1812.0076355034746,618.5968159663689 1839.3386674398203,595.8209560194141 Z" fill="url(#leaf6)" opacity="0.38" transform="rotate(83.8 1839.3 641.4)"/>
    <path d="M 505.9663696747664,279.0176809973392 C 549.0404752788796,314.91276900076684 563.3985104802507,365.1658922055656 505.9663696747664,422.5980330110499 C 448.53422886928206,365.1658922055656 462.89226407065314,314.91276900076684 505.9663696747664,279.0176809973392 Z" fill="url(#leaf7)" opacity="0.24" transform="rotate(154.1 506.0 350.8)"/>
    <path d="M 254.15957666913025,640.2460604052815 C 310.31815289177825,687.0448739241548 329.0376782993276,752.5632128505774 254.15957666913025,827.4413144807747 C 179.28147503893294,752.5632128505774 198.00100044648227,687.0448739241548 254.15957666913025,640.2460604052815 Z" fill="url(#leaf8)" opacity="0.31" transform="rotate(184.5 254.2 733.8)"/>
    <path d="M 1051.2655013251401,639.4667774924335 C 1093.6027480298637,674.7478164130365 1107.715163598105,724.1412709018806 1051.2655013251401,780.5909331748453 C 994.8158390521754,724.1412709018806 1008.9282546204166,674.7478164130365 1051.2655013251401,639.4667774924335 Z" fill="url(#leaf9)" opacity="0.34" transform="rotate(195.2 1051.3 710.0)"/>
    <path d="M 1236.1379078487007,470.3988080906231 C 1270.1563651061351,498.74752247181846 1281.4958508586133,538.435722605492 1236.1379078487007,583.7936656154045 C 1190.7799648387881,538.435722605492 1202.1194505912663,498.74752247181846 1236.1379078487007,470.3988080906231 Z" fill="url(#leaf10)" opacity="0.31" transform="rotate(164.2 1236.1 527.1)"/>
    <path d="M 57.80660774183546,583.9829170798015 C 95.58175623029221,615.4622074868488 108.17347239311114,659.533214056715 57.80660774183546,709.9000787079907 C 7.439743090559773,659.533214056715 20.0314592533787,615.4622074868488 57.80660774183546,583.9829170798015 Z" fill="url(#leaf11)" opacity="0.28" transform="rotate(58.7 57.8 646.9)"/>
    <path d="M 1795.3415997650286,330.1522873307051 C 1827.3446911207936,356.8215301271759 1838.0123882393818,394.158470042235 1795.3415997650286,436.8292585165883 C 1752.6708112906754,394.158470042235 1763.3385084092636,356.8215301271759 1795.3415997650286,330.1522873307051 Z" fill="url(#leaf12)" opacity="0.39" transform="rotate(77.9 1795.3 383.5)"/>
    <path d="M 1776.4143711374343,31.938445761639905 C 1803.3258119495022,54.364646438363096 1812.2962922201914,85.76132738577556 1776.4143711374343,121.64324846853265 C 1740.5324500546772,85.76132738577556 1749.5029303253664,54.364646438363096 1776.4143711374343,31.938445761639905 Z" fill="url(#leaf13)" opacity="0.38" transform="rotate(353.9 1776.4 76.8)"/>
    <path d="M 135.00644621551436,-7.140329406191952 C 179.7578829903975,30.152534572877315 194.6750285820252,82.3625441435743 135.00644621551436,142.03112651008513 C 75.33786384900353,82.3625441435743 90.25500944063124,30.152534572877315 135.00644621551436,-7.140329406191952 Z" fill="url(#leaf14)" opacity="0.20" transform="rotate(306.6 135.0 67.4)"/>
    <path d="M 772.9998427661598,891.5511412121523 C 830.1534629703635,939.1791580489887 849.2046697050981,1005.8583816205598 772.9998427661598,1082.0632085594982 C 696.7950158272214,1005.8583816205598 715.846222561956,939.1791580489887 772.9998427661598,891.5511412121523 Z" fill="url(#leaf15)" opacity="0.25" transform="rotate(163.2 773.0 986.8)"/>
    <path d="M 111.59422754751665,314.5827854131512 C 161.3709709015185,356.06340487481947 177.9632186861858,414.13627212115495 111.59422754751665,480.5052632598241 C 45.22523640884751,414.13627212115495 61.8174841935148,356.06340487481947 111.59422754751665,314.5827854131512 Z" fill="url(#leaf16)" opacity="0.23" transform="rotate(129.3 111.6 397.5)"/>
    <path d="M 810.3725979472811,308.7414994499594 C 835.2403316804238,329.464610894245 843.529576258138,358.4769669162448 810.3725979472811,391.6339452271018 C 777.2156196364241,358.4769669162448 785.5048642141384,329.464610894245 810.3725979472811,308.7414994499594 Z" fill="url(#leaf17)" opacity="0.30" transform="rotate(323.9 810.4 350.2)"/>
    <path d="M 1843.800433655729,115.9724005089777 C 1880.4971022692193,146.5529576868863 1892.7293251403828,189.3657377359583 1843.800433655729,238.29462922061205 C 1794.8715421710751,189.3657377359583 1807.1037650422386,146.5529576868863 1843.800433655729,115.9724005089777 Z" fill="url(#leaf18)" opacity="0.24" transform="rotate(169.5 1843.8 177.1)"/>
    <path d="M 1233.3437598252071,306.7427663101273 C 1284.7147119500105,349.55189308079684 1301.8383626582784,409.4846705597341 1233.3437598252071,477.97927339280534 C 1164.849156992136,409.4846705597341 1181.9728077004038,349.55189308079684 1233.3437598252071,306.7427663101273 Z" fill="url(#leaf19)" opacity="0.36" transform="rotate(65.8 1233.3 392.4)"/>
    <path d="M 1695.1218813831022,953.3342271732758 C 1719.6668677457244,973.7883824754612 1727.8485298665985,1002.4241998985204 1695.1218813831022,1035.1508483820169 C 1662.3952328996058,1002.4241998985204 1670.57689502048,973.7883824754612 1695.1218813831022,953.3342271732758 Z" fill="url(#leaf0)" opacity="0.26" transform="rotate(113.1 1695.1 994.2)"/>
    <path d="M 1446.5231859429098,650.6500900838719 C 1493.773020944525,690.0249525852179 1509.5229659450633,745.1497600871023 1446.5231859429098,808.1495400892559 C 1383.5234059407562,745.1497600871023 1399.2733509412947,690.0249525852179 1446.5231859429098,650.6500900838719 Z" fill="url(#leaf1)" opacity="0.24" transform="rotate(199.1 1446.5 729.4)"/>
    <path d="M 190.6358220732724,448.98226999165456 C 230.35031901632348,482.0776841108638 243.58848466400718,528.4112638777567 190.6358220732724,581.3639264684915 C 137.68315948253763,528.4112638777567 150.92132513022133,482.0776841108638 190.6358220732724,448.98226999165456 Z" fill="url(#leaf2)" opacity="0.36" transform="rotate(174.5 190.6 515.2)"/>
    <path d="M 925.6729128503557,227.40795996810655 C 963.5095360025022,258.93847926156195 976.1217437198844,303.0812062723995 925.6729128503557,353.5300371419282 C 875.224081980827,303.0812062723995 887.8362896982093,258.93847926156195 925.6729128503557,227.40795996810655 Z" fill="url(#leaf3)" opacity="0.37" transform="rotate(304.9 925.7 290.5)"/>
    <path d="M 1533.0827747605858,20.789306799042407 C 1566.0329081505527,48.247751290681336 1577.0162859472082,86.68957357897584 1533.0827747605858,130.62308476559812 C 1489.1492635739635,86.68957357897584 1500.132641370619,48.247751290681336 1533.0827747605858,20.789306799042407 Z" fill="url(#leaf4)" opacity="0.34" transform="rotate(281.4 1533.1 75.7)"/>
    <path d="M 426.670208774117,459.1641117039752 C 468.31983353349506,493.8721323367903 482.2030417866211,542.4633612227314 426.670208774117,597.9961942352355 C 371.1373757616129,542.4633612227314 385.0205840147389,493.8721323367903 426.670208774117,459.1641117039752 Z" fill="url(#leaf5)" opacity="0.39" transform="rotate(57.7 426.7 528.6)"/>
    <path d="M 570.6737073202456,532.7279041458388 C 600.9785517267758,557.9819411512807 611.0801665289525,593.3375929588992 570.6737073202456,633.7440521676061 C 530.2672481115387,593.3375929588992 540.3688629137155,557.9819411512807 570.6737073202456,532.7279041458388 Z" fill="url(#leaf6)" opacity="0.34" transform="rotate(263.6 570.7 583.2)"/>
    <path d="M 477.66720051485714,203.35770529015934 C 528.4978957740151,245.71661800612432 545.4414608604011,305.0190958084753 477.66720051485714,372.79335615401925 C 409.8929401693132,305.0190958084753 426.8365052556992,245.71661800612432 477.66720051485714,203.35770529015934 Z" fill="url(#leaf7)" opacity="0.36" transform="rotate(236.2 477.7 288.1)"/>
    <path d="M 420.84356818787194,868.2168835771618 C 455.938365746949,897.4625482097259 467.63663159997463,938.4064786953157 420.84356818787194,985.1995421074184 C 374.05050477576924,938.4064786953157 385.7487706287949,897.4625482097259 420.84356818787194,868.2168835771618 Z" fill="url(#leaf8)" opacity="0.33" transform="rotate(263.2 420.8 926.7)"/>
    <path d="M 784.3294812024685,814.0224526210575 C 813.2592378202155,838.1305831358466 822.9024900261312,871.8819658565515 784.3294812024685,910.454974680214 C 745.7564723788058,871.8819658565515 755.3997245847215,838.1305831358466 784.3294812024685,814.0224526210575 Z" fill="url(#leaf9)" opacity="0.31" transform="rotate(95.4 784.3 862.2)"/>
    <path d="M 371.33480364732145,797.5776331976642 C 418.4593025225411,836.8480489270139 434.16746881428105,891.8266309481036 371.33480364732145,954.6592961150632 C 308.50213848036185,891.8266309481036 324.2103047721018,836.8480489270139 371.33480364732145,797.5776331976642 Z" fill="url(#leaf10)" opacity="0.35" transform="rotate(53.5 371.3 876.1)"/>
    <path d="M 792.4964231315303,708.7986527333017 C 842.0956301519192,750.1313252502923 858.6286991587154,807.9970667740794 792.4964231315303,874.1293428012646 C 726.3641471043451,807.9970667740794 742.8972161111413,750.1313252502923 792.4964231315303,708.7986527333017 Z" fill="url(#leaf11)" opacity="0.26" transform="rotate(200.4 792.5 791.5)"/>
    <path d="M 644.8206196417094,166.619813829839 C 692.4436246009351,206.3056512958604 708.3179595873437,261.8658237482904 644.8206196417094,325.36316369392466 C 581.3232796960751,261.8658237482904 597.1976146824837,206.3056512958604 644.8206196417094,166.619813829839 Z" fill="url(#leaf12)" opacity="0.39" transform="rotate(26.9 644.8 246.0)"/>
    <path d="M 722.3761037463374,379.256093486724 C 777.8146928604126,425.45491774845334 796.2942225651044,490.1332717148744 722.3761037463374,564.0513905336413 C 648.4579849275705,490.1332717148744 666.9375146322623,425.45491774845334 722.3761037463374,379.256093486724 Z" fill="url(#leaf13)" opacity="0.29" transform="rotate(308.6 722.4 471.7)"/>
    <path d="M 789.4769742598015,471.0656210297028 C 844.3341544318571,516.7799378397492 862.6198811558756,580.779981373814 789.4769742598015,653.9228882698882 C 716.3340673637274,580.779981373814 734.619794087746,516.7799378397492 789.4769742598015,471.0656210297028 Z" fill="url(#leaf14)" opacity="0.38" transform="rotate(177.9 789.5 562.5)"/>
    <path d="M 915.1201856025253,366.1895092566808 C 968.8667654888195,410.9783258285927 986.7822921175842,473.6826690292692 915.1201856025253,545.3447755443282 C 843.4580790874664,473.6826690292692 861.3736057162312,410.9783258285927 915.1201856025253,366.1895092566808 Z" fill="url(#leaf15)" opacity="0.30" transform="rotate(33.3 915.1 455.8)"/>
    <path d="M 1707.5403665694573,851.5776259486855 C 1734.5515401419595,874.0869372591042 1743.555264666127,905.5999730936901 1707.5403665694573,941.6148711903598 C 1671.5254684727877,905.5999730936901 1680.529192996955,874.0869372591042 1707.5403665694573,851.5776259486855 Z" fill="url(#leaf16)" opacity="0.36" transform="rotate(194.5 1707.5 896.6)"/>
    <path d="M 634.3252592240118,532.3156117414333 C 668.482588105497,560.7800524760042 679.8683643993254,600.6302695044036 634.3252592240118,646.1733746797172 C 588.7821540486982,600.6302695044036 600.1679303425266,560.7800524760042 634.3252592240118,532.3156117414333 Z" fill="url(#leaf17)" opacity="0.27" transform="rotate(76.6 634.3 589.2)"/>
    <path d="M 115.27999117440844,115.95977642054045 C 148.81419942077457,143.9049499591789 159.99226883622995,183.02819291327273 115.27999117440844,227.74047057509426 C 70.56771351258692,183.02819291327273 81.7457829280423,143.9049499591789 115.27999117440844,115.95977642054045 Z" fill="url(#leaf18)" opacity="0.22" transform="rotate(249.1 115.3 171.9)"/>
    <path d="M 150.04484321893133,954.215598424505 C 178.86611103012098,978.2333216004963 188.4732003005175,1011.8581340468842 150.04484321893133,1050.2864911284703 C 111.61648613734516,1011.8581340468842 121.2235754077417,978.2333216004963 150.04484321893133,954.215598424505 Z" fill="url(#leaf19)" opacity="0.27" transform="rotate(38.0 150.0 1002.3)"/>
    <path d="M 958.0897058035599,29.692898965224003 C 997.8566825280323,62.832046235617625 1011.1123414361897,109.22685241416869 958.0897058035599,162.2494880467985 C 905.0670701709302,109.22685241416869 918.3227290790876,62.832046235617625 958.0897058035599,29.692898965224003 Z" fill="url(#leaf0)" opacity="0.28" transform="rotate(45.1 958.1 96.0)"/>
    <path d="M 880.3424537633931,600.4483402935189 C 935.6368533899354,646.5270066489708 954.0683199321161,711.0371395466033 880.3424537633931,784.7630057153262 C 806.6165875946701,711.0371395466033 825.0480541368509,646.5270066489708 880.3424537633931,600.4483402935189 Z" fill="url(#leaf1)" opacity="0.37" transform="rotate(138.3 880.3 692.6)"/>
    <path d="M 679.5754019219783,127.64947488753133 C 725.8369350574492,166.2007525004238 741.2574461026062,220.17254115847325 679.5754019219783,281.8545853391012 C 617.8933577413503,220.17254115847325 633.3138687865073,166.2007525004238 679.5754019219783,127.64947488753133 Z" fill="url(#leaf2)" opacity="0.21" transform="rotate(94.5 679.6 204.8)"/>
    <path d="M 567.6995972995251,457.4441688845491 C 593.156019970997,478.6578544441091 601.641494194821,508.35701422749304 567.6995972995251,542.298911122789 C 533.7577004042291,508.35701422749304 542.2431746280531,478.6578544441091 567.6995972995251,457.4441688845491 Z" fill="url(#leaf3)" opacity="0.30" transform="rotate(182.7 567.7 499.9)"/>
    <path d="M 1458.9838565287573,414.555225653479 C 1501.48566253968,449.9733973292481 1515.6529312099879,499.5588376753248 1458.9838565287573,556.2279123565554 C 1402.3147818475268,499.5588376753248 1416.4820505178345,449.9733973292481 1458.9838565287573,414.555225653479 Z" fill="url(#leaf4)" opacity="0.23" transform="rotate(52.6 1459.0 485.4)"/>
    <path d="M 1410.1485737721619,479.6805269166474 C 1455.3621972733033,517.358546500932 1470.4334051070173,570.1077739189304 1410.1485737721619,630.3926052537857 C 1349.8637424373064,570.1077739189304 1364.9349502710204,517.358546500932 1410.1485737721619,479.6805269166474 Z" fill="url(#leaf5)" opacity="0.38" transform="rotate(45.5 1410.1 555.0)"/>
    <path d="M 1406.741368936746,324.20086233597874 C 1450.3907069891218,360.5753107129586 1464.9404863399138,411.49953844073036 1406.741368936746,469.6986558438981 C 1348.5422515335783,411.49953844073036 1363.0920308843704,360.5753107129586 1406.741368936746,324.20086233597874 Z" fill="url(#leaf6)" opacity="0.38" transform="rotate(188.3 1406.7 396.9)"/>
    <path d="M 434.99328184350014,256.6391802007639 C 482.2245995455535,295.9986116191417 497.9683721129046,351.10181560487064 434.99328184350014,414.0769058742751 C 372.0181915740957,351.10181560487064 387.7619641414468,295.9986116191417 434.99328184350014,256.6391802007639 Z" fill="url(#leaf7)" opacity="0.27" transform="rotate(111.7 435.0 335.4)"/>
    <path d="M 181.88718443435263,238.68667503979103 C 211.4313443246359,263.30680828169375 221.27939762139698,297.7749948203575 181.88718443435263,337.1672080074019 C 142.49497124730829,297.7749948203575 152.34302454406938,263.30680828169375 181.88718443435263,238.68667503979103 Z" fill="url(#leaf8)" opacity="0.38" transform="rotate(191.5 181.9 287.9)"/>
    <path d="M 696.9482408626579,479.5355113978641 C 722.8989208600633,501.1610780623686 731.549147525865,531.4368713926747 696.9482408626579,566.0377780558817 C 662.3473341994509,531.4368713926747 670.9975608652526,501.1610780623686 696.9482408626579,479.5355113978641 Z" fill="url(#leaf9)" opacity="0.29" transform="rotate(35.4 696.9 522.8)"/>
    <path d="M 1792.011678486093,905.9815711035974 C 1849.3404571233423,953.7555533013052 1868.4500500024253,1020.6391283780961 1792.011678486093,1097.0774998944285 C 1715.5733069697606,1020.6391283780961 1734.6828998488436,953.7555533013052 1792.011678486093,905.9815711035974 Z" fill="url(#leaf10)" opacity="0.30" transform="rotate(254.0 1792.0 1001.5)"/>
    <path d="M 227.12579568809352,160.9674812067742 C 273.7940338910079,199.8576797092029 289.3501132919794,254.30395761260306 227.12579568809352,316.52827521648896 C 164.9014780842076,254.30395761260306 180.4575574851791,199.8576797092029 227.12579568809352,160.9674812067742 Z" fill="url(#leaf11)" opacity="0.34" transform="rotate(1.9 227.1 238.7)"/>
    <path d="M 1377.4654070423462,136.8489303063825 C 1402.4831116891432,157.69701751204664 1410.8223465714088,186.88433959997644 1377.4654070423462,220.24127912903907 C 1344.1084675132836,186.88433959997644 1352.4477023955492,157.69701751204664 1377.4654070423462,136.8489303063825 Z" fill="url(#leaf12)" opacity="0.35" transform="rotate(190.8 1377.5 178.5)"/>
  </g>

  <!-- Central star shape -->
  <polygon points="960.0,330.6 1021.5,455.3 1159.2,475.3 1059.6,572.4 1083.1,709.4 960.0,644.7 836.9,709.4 860.4,572.4 760.8,475.3 898.5,455.3" 
           fill="#00CED1" 
           transform="rotate(314.9 960.0 540.0)"/>
</svg>