<?xml version="1.0" encoding="UTF-8"?>
<svg xmlns="http://www.w3.org/2000/svg" viewBox="0 0 1920 1080" width="1920" height="1080">
  <defs>
    <linearGradient id="bgGrad" x1="0%" y1="0%" x2="100%" y2="100%">
      <stop offset="0%" stop-color="#4ECDC4"/>
      <stop offset="100%" stop-color="#96E6A1"/>
    </linearGradient>
    <clipPath id="complexClip"><polygon points="1335.0,540.0 1311.0,582.0 1377.7,644.6 1406.0,722.3 1301.5,753.4 1186.9,761.1 1069.1,728.9 1019.1,856.3 913.2,790.2 820.3,781.8 687.3,805.7 588.9,771.8 674.9,656.5 604.7,629.0 503.7,594.6 524.5,540.0 603.5,497.4 639.5,459.7 529.5,364.1 694.2,373.9 747.3,332.8 789.1,244.1 913.5,290.9 1000.3,324.1 1111.3,278.1 1132.0,372.4 1257.8,354.0 1247.6,422.5 1440.9,419.6 1411.9,486.0"/></clipPath>
    <radialGradient id="leaf0" cx="50%" cy="50%" r="70%">
      <stop offset="0%" stop-color="#00CED1"/>
      <stop offset="50%" stop-color="#7B68EE"/>
      <stop offset="100%" stop-color="#FF6B6B"/>
    </radialGradient>
    <radialGradient id="leaf1" cx="50%" cy="50%" r="70%">
      <stop offset="0%" stop-color="#DC143C"/>
      <stop offset="50%" stop-color="#00FA9A"/>
      <stop offset="100%" stop-color="#FF4500"/>
    </radialGradient>
    <radialGradient id="leaf2" cx="50%" cy="50%" r="70%">
      <stop offset="0%" stop-color="#FFE66D"/>
      <stop offset="50%" stop-color="#9370DB"/>
      <stop offset="100%" stop-color="#4ECDC4"/>
    </radialGradient>
    <radialGradient id="leaf3" cx="50%" cy="50%" r="70%">
      <stop offset="0%" stop-color="#00FA9A"/>
      <stop offset="50%" stop-color="#FF1493"/>
      <stop offset="100%" stop-color="#7B68EE"/>
    </radialGradient>
    <radialGradient id="leaf4" cx="50%" cy="50%" r="70%">
      <stop offset="0%" stop-color="#FF1493"/>
      <stop offset="50%" stop-color="#9370DB"/>
      <stop offset="100%" stop-color="#FF69B4"/>
    </radialGradient>
    <radialGradient id="leaf5" cx="50%" cy="50%" r="70%">
      <stop offset="0%" stop-color="#32CD32"/>
      <stop offset="50%" stop-color="#FFD700"/>
      <stop offset="100%" stop-color="#9370DB"/>
    </radialGradient>
    <radialGradient id="leaf6" cx="50%" cy="50%" r="70%">
      <stop offset="0%" stop-color="#FFD700"/>
      <stop offset="50%" stop-color="#FF6B6B"/>
      <stop offset="100%" stop-color="#FFE66D"/>
    </radialGradient>
    <radialGradient id="leaf7" cx="50%" cy="50%" r="70%">
      <stop offset="0%" stop-color="#DC143C"/>
      <stop offset="50%" stop-color="#FF4500"/>
      <stop offset="100%" stop-color="#00FA9A"/>
    </radialGradient>
    <radialGradient id="leaf8" cx="50%" cy="50%" r="70%">
      <stop offset="0%" stop-color="#7B68EE"/>
      <stop offset="50%" stop-color="#FF69B4"/>
      <stop offset="100%" stop-color="#FFD700"/>
    </radialGradient>
    <radialGradient id="leaf9" cx="50%" cy="50%" r="70%">
      <stop offset="0%" stop-color="#00FA9A"/>
      <stop offset="50%" stop-color="#4ECDC4"/>
      <stop offset="100%" stop-color="#96E6A1"/>
    </radialGradient>
    <radialGradient id="leaf10" cx="50%" cy="50%" r="70%">
      <stop offset="0%" stop-color="#00CED1"/>
      <stop offset="50%" stop-color="#DC143C"/>
      <stop offset="100%" stop-color="#FF4500"/>
    </radialGradient>
    <radialGradient id="leaf11" cx="50%" cy="50%" r="70%">
      <stop offset="0%" stop-color="#FFD700"/>
      <stop offset="50%" stop-color="#9370DB"/>
      <stop offset="100%" stop-color="#FF6B6B"/>
    </radialGradient>
    <radialGradient id="leaf12" cx="50%" cy="50%" r="70%">
      <stop offset="0%" stop-color="#FFD700"/>
      <stop offset="50%" stop-color="#9370DB"/>
      <stop offset="100%" stop-color="#4ECDC4"/>
    </radialGradient>
    <radialGradient id="leaf13" cx="50%" cy="50%" r="70%">
      <stop offset="0%" stop-color="#FF1493"/>
      <stop offset="50%" stop-color="#DC143C"/>
      <stop offset="100%" stop-color="#9370DB"/>
    </radialGradient>
    <radialGradient id="leaf14" cx="50%" cy="50%" r="70%">
      <stop offset="0%" stop-color="#96E6A1"/>
      <stop offset="50%" stop-color="#00CED1"/>
      <stop offset="100%" stop-color="#FF69B4"/>
    </radialGradient>
    <radialGradient id="leaf15" cx="50%" cy="50%" r="70%">
      <stop offset="0%" stop-color="#FF6B6B"/>
      <stop offset="50%" stop-color="#32CD32"/>
      <stop offset="100%" stop-color="#FFE66D"/>
    </radialGradient>
    <radialGradient id="leaf16" cx="50%" cy="50%" r="70%">
      <stop offset="0%" stop-color="#FF4500"/>
      <stop offset="50%" stop-color="#96E6A1"/>
      <stop offset="100%" stop-color="#FF6B6B"/>
    </radialGradient>
    <radialGradient id="leaf17" cx="50%" cy="50%" r="70%">
      <stop offset="0%" stop-color="#FF1493"/>
      <stop offset="50%" stop-color="#FF4500"/>
      <stop offset="100%" stop-color="#4ECDC4"/>
    </radialGradient>
    <radialGradient id="leaf18" cx="50%" cy="50%" r="70%">
      <stop offset="0%" stop-color="#4ECDC4"/>
      <stop offset="50%" stop-color="#DC143C"/>
      <stop offset="100%" stop-color="#FFE66D"/>
    </radialGradient>
    <radialGradient id="leaf19" cx="50%" cy="50%" r="70%">
      <stop offset="0%" stop-color="#FF4500"/>
      <stop offset="50%" stop-color="#FF6B6B"/>
      <stop offset="100%" stop-color="#FFD700"/>
    </radialGradient>
  </defs>

  <!-- Background -->
  <rect width="1920" height="1080" fill="url(#bgGrad)"/>
  
  <!-- Leaves with clip-path -->
  <g clip-path="url(#complexClip)">
    <path d="M 1453.6794951613067,193.05736445127158 C 1511.3675896112652,241.13077649290375 1530.5969544279183,308.4335533511887 1453.6794951613067,385.35101261780017 C 1376.7620358946951,308.4335533511887 1395.9914007113482,241.13077649290375 1453.6794951613067,193.05736445127158 Z" fill="url(#leaf0)" opacity="0.30" transform="rotate(85.5 1453.7 289.2)"/>
    <path d="M 1499.8410523978328,759.2254251558685 C 1528.0934940554657,782.7691265372292 1537.51097460801,815.7303084711342 1499.8410523978328,853.4002306813114 C 1462.1711301876555,815.7303084711342 1471.5886107401998,782.7691265372292 1499.8410523978328,759.2254251558685 Z" fill="url(#leaf1)" opacity="0.23" transform="rotate(104.8 1499.8 806.3)"/>
    <path d="M 1326.9065246519467,874.1375670368086 C 1378.7135708407961,917.3101055275165 1395.9825862370792,977.7516594145075 1326.9065246519467,1046.82772099964 C 1257.8304630668142,977.7516594145075 1275.0994784630973,917.3101055275165 1326.9065246519467,874.1375670368086 Z" fill="url(#leaf2)" opacity="0.23" transform="rotate(73.3 1326.9 960.5)"/>
    <path d="M 488.95573380045823,644.4498512627924 C 529.3085747576534,678.0772187271217 542.7595217433852,725.1555331771829 488.95573380045823,778.9593211201097 C 435.15194585753125,725.1555331771829 448.602892843263,678.0772187271217 488.95573380045823,644.4498512627924 Z" fill="url(#leaf3)" opacity="0.23" transform="rotate(341.9 489.0 711.7)"/>
    <path d="M 139.1435250404668,913.1781804165201 C 179.6787340702723,946.9575212746913 193.1904704135408,994.2485984761311 139.1435250404668,1048.2955438492052 C 85.09657966739283,994.2485984761311 98.60831601066133,946.9575212746913 139.1435250404668,913.1781804165201 Z" fill="url(#leaf4)" opacity="0.29" transform="rotate(317.8 139.1 980.7)"/>
    <path d="M 1060.6672898971256,817.3609106750719 C 1113.7175121810833,861.5694292450368 1131.4009196090692,923.4613552429875 1060.6672898971256,994.1949849549312 C 989.9336601851819,923.4613552429875 1007.6170676131678,861.5694292450368 1060.6672898971256,817.3609106750719 Z" fill="url(#leaf5)" opacity="0.29" transform="rotate(234.5 1060.7 905.8)"/>
    <path d="M 856.766145983301,55.76037348844726 C 881.8382297518139,76.65377662887465 890.1955910079848,105.904541025473 856.766145983301,139.3339860501568 C 823.3367009586173,105.904541025473 831.6940622147882,76.65377662887465 856.766145983301,55.76037348844726 Z" fill="url(#leaf6)" opacity="0.30" transform="rotate(317.6 856.8 97.5)"/>
    <path d="M 1531.4714505551692,855.7944875355151 C 1562.2296282246243,881.4263022600612 1572.4823541144428,917.3108428744256 1531.4714505551692,958.3217464336992 C 1490.4605469958956,917.3108428744256 1500.713272885714,881.4263022600612 1531.4714505551692,855.7944875355151 Z" fill="url(#leaf7)" opacity="0.26" transform="rotate(315.3 1531.5 907.1)"/>
    <path d="M 1840.489504805542,42.05184836003494 C 1900.4061028675494,91.98234674504111 1920.378302221552,161.88504448404976 1840.489504805542,241.77384190005964 C 1760.600707389532,161.88504448404976 1780.5729067435348,91.98234674504111 1840.489504805542,42.05184836003494 Z" fill="url(#leaf8)" opacity="0.21" transform="rotate(216.2 1840.5 141.9)"/>
    <path d="M 422.5631028559549,563.264788017954 C 449.83999795367293,585.995533932719 458.9322963195789,617.81857821339 422.5631028559549,654.187771677014 C 386.19390939233097,617.81857821339 395.2862077582369,585.995533932719 422.5631028559549,563.264788017954 Z" fill="url(#leaf9)" opacity="0.31" transform="rotate(144.8 422.6 608.7)"/>
    <path d="M 1847.3072769361477,824.9465270784367 C 1889.5872443194305,860.1798332311723 1903.6805667805247,909.5064618450021 1847.3072769361477,965.8797516893792 C 1790.9339870917706,909.5064618450021 1805.0273095528648,860.1798332311723 1847.3072769361477,824.9465270784367 Z" fill="url(#leaf10)" opacity="0.38" transform="rotate(214.7 1847.3 895.4)"/>
    <path d="M 1804.2568282600344,201.50072526846594 C 1839.2233349723367,230.6394808620513 1850.8788372097708,271.4337386930708 1804.2568282600344,318.0557476428074 C 1757.6348193102979,271.4337386930708 1769.290321547732,230.6394808620513 1804.2568282600344,201.50072526846594 Z" fill="url(#leaf11)" opacity="0.24" transform="rotate(281.8 1804.3 259.8)"/>
    <path d="M 1829.9062673765452,387.2206803511848 C 1853.9580988697362,407.2638732621773 1861.9753760341332,435.32434333756686 1829.9062673765452,467.3934519951549 C 1797.8371587189572,435.32434333756686 1805.8544358833542,407.2638732621773 1829.9062673765452,387.2206803511848 Z" fill="url(#leaf12)" opacity="0.26" transform="rotate(358.7 1829.9 427.3)"/>
    <path d="M 1125.663791853663,296.8889460582408 C 1185.2565503995108,346.54957817978067 1205.1208032481268,416.0744631499365 1125.663791853663,495.53147454440034 C 1046.2067804591993,416.0744631499365 1066.0710333078152,346.54957817978067 1125.663791853663,296.8889460582408 Z" fill="url(#leaf13)" opacity="0.22" transform="rotate(336.8 1125.7 396.2)"/>
    <path d="M 779.2575175577464,205.47105977541577 C 806.8775189140864,228.4877275723658 816.0841860328665,260.7110624880958 779.2575175577464,297.5377309632159 C 742.4308490826263,260.7110624880958 751.6375162014064,228.4877275723658 779.2575175577464,205.47105977541577 Z" fill="url(#leaf14)" opacity="0.24" transform="rotate(359.9 779.3 251.5)"/>
    <path d="M 969.3322067204224,91.1270134232033 C 1026.7290868859704,138.95774689449343 1045.8613802744867,205.92077375429957 969.3322067204224,282.4499473083638 C 892.8030331663582,205.92077375429957 911.9353265548742,138.95774689449343 969.3322067204224,91.1270134232033 Z" fill="url(#leaf15)" opacity="0.36" transform="rotate(70.8 969.3 186.8)"/>
    <path d="M 426.8723971251157,783.3003172018381 C 481.6223821131825,828.9253046918938 499.87237710920476,892.8002871779717 426.8723971251157,965.8002671620608 C 353.87241714102663,892.8002871779717 372.1224121370489,828.9253046918938 426.8723971251157,783.3003172018381 Z" fill="url(#leaf16)" opacity="0.38" transform="rotate(290.7 426.9 874.6)"/>
    <path d="M 409.8661163512878,373.79525543569594 C 440.5239173642112,399.3434229464654 450.743184368519,435.11085746154265 409.8661163512878,475.98792547877383 C 368.98904833405663,435.11085746154265 379.20831533836446,399.3434229464654 409.8661163512878,373.79525543569594 Z" fill="url(#leaf17)" opacity="0.31" transform="rotate(115.1 409.9 424.9)"/>
    <path d="M 468.76454554914295,609.8359264286008 C 520.6491038565181,653.0730583514135 537.9439566256431,713.605043043351 468.76454554914295,782.7844541198511 C 399.58513447264284,713.605043043351 416.8799872417679,653.0730583514135 468.76454554914295,609.8359264286008 Z" fill="url(#leaf18)" opacity="0.34" transform="rotate(283.4 468.8 696.3)"/>
    <path d="M 1787.226334327638,38.88611505173536 C 1834.455275749924,78.24356623697378 1850.1982562240194,133.34399789630757 1787.226334327638,196.31591979268904 C 1724.2544124312565,133.34399789630757 1739.9973929053517,78.24356623697378 1787.226334327638,38.88611505173536 Z" fill="url(#leaf19)" opacity="0.26" transform="rotate(171.1 1787.2 117.6)"/>
    <path d="M 1133.8095063987632,726.1846891952329 C 1180.145928931383,764.7983746390827 1195.591403108923,818.8575342604724 1133.8095063987632,880.6394309706321 C 1072.0276096886034,818.8575342604724 1087.4730838661435,764.7983746390827 1133.8095063987632,726.1846891952329 Z" fill="url(#leaf0)" opacity="0.38" transform="rotate(134.8 1133.8 803.4)"/>
    <path d="M 1146.143246044043,263.8011804342936 C 1172.0506746636881,285.39070428399793 1180.68648420357,315.61603767358395 1146.143246044043,350.1592758331108 C 1111.6000078845161,315.61603767358395 1120.235817424398,285.39070428399793 1146.143246044043,263.8011804342936 Z" fill="url(#leaf1)" opacity="0.27" transform="rotate(113.2 1146.1 307.0)"/>
    <path d="M 228.2807896678468,265.1413432013067 C 255.581268577257,287.89174229248187 264.68142821372703,319.74230102012706 228.2807896678468,356.1429395660073 C 191.88015112196652,319.74230102012706 200.9803107584366,287.89174229248187 228.2807896678468,265.1413432013067 Z" fill="url(#leaf2)" opacity="0.27" transform="rotate(170.7 228.3 310.6)"/>
    <path d="M 1271.1159038068333,-4.498428840968927 C 1319.034683226388,35.433887341993426 1335.007609699573,91.33912999814072 1271.1159038068333,155.23083589088048 C 1207.2241979140936,91.33912999814072 1223.1971243872786,35.433887341993426 1271.1159038068333,-4.498428840968927 Z" fill="url(#leaf3)" opacity="0.31" transform="rotate(259.3 1271.1 75.4)"/>
    <path d="M 1744.0530884464843,871.3822513501835 C 1797.0410396097107,915.5388773195389 1814.7036899974528,977.3581536766362 1744.0530884464843,1048.0087552276045 C 1673.4024868955157,977.3581536766362 1691.0651372832579,915.5388773195389 1744.0530884464843,871.3822513501835 Z" fill="url(#leaf4)" opacity="0.31" transform="rotate(72.6 1744.1 959.7)"/>
    <path d="M 979.3593420273961,49.27356046719592 C 1018.4271568338866,81.83007280593797 1031.4497617693835,127.40919008017684 979.3593420273961,179.49960982216413 C 927.2689222854088,127.40919008017684 940.2915272209057,81.83007280593797 979.3593420273961,49.27356046719592 Z" fill="url(#leaf5)" opacity="0.29" transform="rotate(0.3 979.4 114.4)"/>
    <path d="M 999.4509462164963,674.5222917343924 C 1048.4334926465183,715.3410804260774 1064.7610081231924,772.4873845944364 999.4509462164963,837.7974465011325 C 934.1408843098002,772.4873845944364 950.4683997864743,715.3410804260774 999.4509462164963,674.5222917343924 Z" fill="url(#leaf6)" opacity="0.36" transform="rotate(212.5 999.5 756.2)"/>
    <path d="M 1437.6709625677343,867.0286015620864 C 1465.2043244349763,889.9730697847881 1474.382111724057,922.0953252965705 1437.6709625677343,958.8064744528933 C 1400.9598134114115,922.0953252965705 1410.1376007004922,889.9730697847881 1437.6709625677343,867.0286015620864 Z" fill="url(#leaf7)" opacity="0.33" transform="rotate(145.1 1437.7 912.9)"/>
    <path d="M 748.021894674245,429.024203746485 C 803.9169899470426,475.6034498071497 822.5486883713085,540.8143942920802 748.021894674245,615.3411879891437 C 673.4951009771816,540.8143942920802 692.1267994014474,475.6034498071497 748.021894674245,429.024203746485 Z" fill="url(#leaf8)" opacity="0.23" transform="rotate(64.5 748.0 522.2)"/>
    <path d="M 1106.3010463678954,829.7480383753692 C 1138.8811558392108,856.8981296014653 1149.7411923296493,894.9082573179999 1106.3010463678954,938.3484032797536 C 1062.8609004061416,894.9082573179999 1073.72093689658,856.8981296014653 1106.3010463678954,829.7480383753692 Z" fill="url(#leaf9)" opacity="0.32" transform="rotate(98.9 1106.3 884.0)"/>
    <path d="M 898.9289382629878,234.04762012898252 C 938.4680799589725,266.9969048756364 951.647793857634,313.12590352095185 898.9289382629878,365.8447591155981 C 846.2100826683416,313.12590352095185 859.3897965670031,266.9969048756364 898.9289382629878,234.04762012898252 Z" fill="url(#leaf10)" opacity="0.35" transform="rotate(231.7 898.9 299.9)"/>
    <path d="M 1860.8926885507697,531.1102611560307 C 1906.8485242509132,569.4067909061503 1922.1671361509611,623.0219325563177 1860.8926885507697,684.296380156509 C 1799.6182409505782,623.0219325563177 1814.936852850626,569.4067909061503 1860.8926885507697,531.1102611560307 Z" fill="url(#leaf11)" opacity="0.29" transform="rotate(3.9 1860.9 607.7)"/>
    <path d="M 1624.9882417809006,901.1051086952361 C 1667.6220635142026,936.6332934729879 1681.8333374253034,986.3727521618405 1624.9882417809006,1043.2178478062433 C 1568.1431461364978,986.3727521618405 1582.3544200475985,936.6332934729879 1624.9882417809006,901.1051086952361 Z" fill="url(#leaf12)" opacity="0.37" transform="rotate(14.5 1625.0 972.2)"/>
    <path d="M 843.1734218243496,491.48089435438084 C 884.430575178472,525.8618554828162 898.1829596298462,573.9952010626257 843.1734218243496,629.0047388681222 C 788.163884018853,573.9952010626257 801.9162684702271,525.8618554828162 843.1734218243496,491.48089435438084 Z" fill="url(#leaf13)" opacity="0.39" transform="rotate(275.0 843.2 560.2)"/>
    <path d="M 1531.7255151868956,560.5541919612207 C 1567.2375855107398,590.1475838977575 1579.0749422853546,631.578332608909 1531.7255151868956,678.927759707368 C 1484.3760880884365,631.578332608909 1496.2134448630513,590.1475838977575 1531.7255151868956,560.5541919612207 Z" fill="url(#leaf14)" opacity="0.38" transform="rotate(6.4 1531.7 619.7)"/>
    <path d="M 196.67328843509327,291.5275236593136 C 239.23978966127143,326.99960801446207 253.42862340333082,376.6605261116699 196.67328843509327,433.4158610799075 C 139.91795346685572,376.6605261116699 154.1067872089151,326.99960801446207 196.67328843509327,291.5275236593136 Z" fill="url(#leaf15)" opacity="0.35" transform="rotate(309.1 196.7 362.5)"/>
    <path d="M 204.52390308255485,308.47653440366383 C 235.60368595924865,334.37635346757537 245.96361358481326,370.63610015705143 204.52390308255485,412.07581065930987 C 163.08419258029645,370.63610015705143 173.44412020586105,334.37635346757537 204.52390308255485,308.47653440366383 Z" fill="url(#leaf16)" opacity="0.30" transform="rotate(7.4 204.5 360.3)"/>
    <path d="M 402.7177058370337,103.00150969666092 C 432.48285506433245,127.80580071940987 442.40457147343204,162.53180815125842 402.7177058370337,202.21867378765674 C 363.03084020063534,162.53180815125842 372.9525566097349,127.80580071940987 402.7177058370337,103.00150969666092 Z" fill="url(#leaf17)" opacity="0.32" transform="rotate(198.5 402.7 152.6)"/>
    <path d="M 1318.7911360467135,629.5599647187439 C 1344.8773489503674,651.2984754717888 1353.5727532515855,681.7323905260517 1318.7911360467135,716.5140077309236 C 1284.0095188418416,681.7323905260517 1292.7049231430597,651.2984754717888 1318.7911360467135,629.5599647187439 Z" fill="url(#leaf18)" opacity="0.30" transform="rotate(275.8 1318.8 673.0)"/>
    <path d="M 767.1139959806292,153.89163927866483 C 809.3909010525092,189.1223935052315 823.4832027431358,238.44544942242487 767.1139959806292,294.81465618493155 C 710.7447892181225,238.44544942242487 724.8370909087491,189.1223935052315 767.1139959806292,153.89163927866483 Z" fill="url(#leaf19)" opacity="0.21" transform="rotate(185.5 767.1 224.4)"/>
    <path d="M 782.3200022637319,232.1951479970123 C 812.7002091845417,257.51198709768715 822.8269448248117,292.9555618386319 782.3200022637319,333.4625043997117 C 741.8130597026521,292.9555618386319 751.9397953429221,257.51198709768715 782.3200022637319,232.1951479970123 Z" fill="url(#leaf0)" opacity="0.39" transform="rotate(59.8 782.3 282.8)"/>
    <path d="M 222.2417635005838,42.524250228835676 C 254.71298405151433,69.58360068794445 265.53672423515786,107.46669133069673 222.2417635005838,150.76165206527077 C 178.94680276600977,107.46669133069673 189.77054294965328,69.58360068794445 222.2417635005838,42.524250228835676 Z" fill="url(#leaf1)" opacity="0.40" transform="rotate(165.4 222.2 96.6)"/>
    <path d="M 1101.437857246339,833.3233029485796 C 1140.6814729294342,866.0263160178257 1153.7626781571328,911.8105343147702 1101.437857246339,964.1353552255639 C 1049.1130363355453,911.8105343147702 1062.1942415632438,866.0263160178257 1101.437857246339,833.3233029485796 Z" fill="url(#leaf2)" opacity="0.37" transform="rotate(224.4 1101.4 898.7)"/>
    <path d="M 649.3168370808567,240.43317944246033 C 674.517576344098,261.4337954951614 682.9178227651784,290.83465796894296 649.3168370808567,324.4356436532647 C 615.715851396535,290.83465796894296 624.1160978176154,261.4337954951614 649.3168370808567,240.43317944246033 Z" fill="url(#leaf3)" opacity="0.29" transform="rotate(287.5 649.3 282.4)"/>
    <path d="M 165.11842432199566,55.874930742527084 C 200.54711959374555,85.39884346898532 212.35668468432885,126.73232128602686 165.11842432199566,173.97058164836005 C 117.88016395966247,126.73232128602686 129.68972905024577,85.39884346898532 165.11842432199566,55.874930742527084 Z" fill="url(#leaf4)" opacity="0.29" transform="rotate(172.4 165.1 114.9)"/>
    <path d="M 1698.4007747923893,657.7752757430833 C 1754.8666885997332,704.8302039158699 1773.688659868848,770.7071033577712 1698.4007747923893,845.9949884342298 C 1623.1128897159306,770.7071033577712 1641.9348609850454,704.8302039158699 1698.4007747923893,657.7752757430833 Z" fill="url(#leaf5)" opacity="0.30" transform="rotate(296.7 1698.4 751.9)"/>
    <path d="M 1365.1593823588344,173.11170561718674 C 1393.3519114537355,196.6054798629377 1402.749421152036,229.496763806989 1365.1593823588344,267.0868026001905 C 1327.5693435656328,229.496763806989 1336.9668532639332,196.6054798629377 1365.1593823588344,173.11170561718674 Z" fill="url(#leaf6)" opacity="0.25" transform="rotate(344.0 1365.2 220.1)"/>
    <path d="M 480.911214442573,83.26042309856766 C 524.411362895875,119.51054680965258 538.9114123803089,170.26072000517146 480.911214442573,228.26091794290735 C 422.9110165048371,170.26072000517146 437.4110659892711,119.51054680965258 480.911214442573,83.26042309856766 Z" fill="url(#leaf7)" opacity="0.35" transform="rotate(341.4 480.9 155.8)"/>
    <path d="M 1353.5492817860797,105.28516984689544 C 1391.983463675402,137.31365475466393 1404.7948576385093,182.15353362553984 1353.5492817860797,233.39910947796943 C 1302.3037059336502,182.15353362553984 1315.1150998967576,137.31365475466393 1353.5492817860797,105.28516984689544 Z" fill="url(#leaf8)" opacity="0.26" transform="rotate(268.8 1353.5 169.3)"/>
    <path d="M 806.3366078292709,274.30731598906016 C 851.8795507591733,312.25976843064547 867.0605317358073,365.3932018488649 806.3366078292709,426.1171257554014 C 745.6126839227344,365.3932018488649 760.7936648993684,312.25976843064547 806.3366078292709,274.30731598906016 Z" fill="url(#leaf9)" opacity="0.37" transform="rotate(126.6 806.3 350.2)"/>
    <path d="M 1747.7649433859654,156.0199549666549 C 1788.3872392676533,189.87186820139482 1801.9280045615492,237.26454673003067 1747.7649433859654,291.42760790561454 C 1693.6018822103815,237.26454673003067 1707.1426475042774,189.87186820139482 1747.7649433859654,156.0199549666549 Z" fill="url(#leaf10)" opacity="0.23" transform="rotate(211.5 1747.8 223.7)"/>
    <path d="M 325.73615520733495,467.9405884888147 C 383.0312336251786,515.686487170351 402.12959309779313,582.5307453245019 325.73615520733495,658.9241832149601 C 249.34271731687676,582.5307453245019 268.4410767894913,515.686487170351 325.73615520733495,467.9405884888147 Z" fill="url(#leaf11)" opacity="0.38" transform="rotate(180.7 325.7 563.4)"/>
    <path d="M 1342.8408582007723,426.79994915509917 C 1401.1911618466154,475.42520219330174 1420.6412630618966,543.5005564467854 1342.8408582007723,621.3009613079095 C 1265.0404533396481,543.5005564467854 1284.4905545549293,475.42520219330174 1342.8408582007723,426.79994915509917 Z" fill="url(#leaf12)" opacity="0.40" transform="rotate(160.6 1342.8 524.1)"/>
    <path d="M 1831.4888302575605,219.47353620338686 C 1877.1887295330869,257.55678559965884 1892.4220292915957,310.87333475443967 1831.4888302575605,371.8065337884749 C 1770.5556312235253,310.87333475443967 1785.7889309820341,257.55678559965884 1831.4888302575605,219.47353620338686 Z" fill="url(#leaf13)" opacity="0.28" transform="rotate(356.9 1831.5 295.6)"/>
    <path d="M 1849.69373411006,312.9529982391574 C 1881.833165041162,339.73585734840896 1892.5463086848624,377.2318601013612 1849.69373411006,420.0844346761637 C 1806.8411595352575,377.2318601013612 1817.554303178958,339.73585734840896 1849.69373411006,312.9529982391574 Z" fill="url(#leaf14)" opacity="0.22" transform="rotate(312.0 1849.7 366.5)"/>
    <path d="M 1350.3842327198743,568.1838428334933 C 1380.1161365959124,592.9604293968584 1390.0267712212585,627.6476505855697 1350.3842327198743,667.290189086954 C 1310.74169421849,627.6476505855697 1320.6523288438361,592.9604293968584 1350.3842327198743,568.1838428334933 Z" fill="url(#leaf15)" opacity="0.27" transform="rotate(218.5 1350.4 617.7)"/>
    <path d="M 261.1008532928804,300.9389484527656 C 308.6212907157962,340.5393129718621 324.4614365234348,395.9798232985972 261.1008532928804,459.3404065291516 C 197.740270062326,395.9798232985972 213.5804158699646,340.5393129718621 261.1008532928804,300.9389484527656 Z" fill="url(#leaf16)" opacity="0.21" transform="rotate(149.4 261.1 380.1)"/>
    <path d="M 640.0265797868925,644.4193703572358 C 664.8705834195097,665.1227067177501 673.1519179637154,694.1073776224702 640.0265797868925,727.232715799293 C 606.9012416100696,694.1073776224702 615.1825761542754,665.1227067177501 640.0265797868925,644.4193703572358 Z" fill="url(#leaf17)" opacity="0.20" transform="rotate(279.1 640.0 685.8)"/>
    <path d="M 359.9102719313266,593.1899489221728 C 409.42994513434326,634.4563432580201 425.93650286868217,692.2292953282063 359.9102719313266,758.2555262655619 C 293.884040993971,692.2292953282063 310.3905987283099,634.4563432580201 359.9102719313266,593.1899489221728 Z" fill="url(#leaf18)" opacity="0.28" transform="rotate(190.0 359.9 675.7)"/>
    <path d="M 948.0993336033573,854.3718137130581 C 979.4748690272711,880.5180932329864 989.9333808352424,917.1228845608858 948.0993336033573,958.956931792771 C 906.2652863714723,917.1228845608858 916.7237981794435,880.5180932329864 948.0993336033573,854.3718137130581 Z" fill="url(#leaf19)" opacity="0.33" transform="rotate(69.4 948.1 906.7)"/>
    <path d="M 1696.748851752144,134.9291764668684 C 1725.7457935776927,159.09329465482566 1735.4114408528756,192.9230601179658 1696.748851752144,231.58564921869743 C 1658.0862626514124,192.9230601179658 1667.7519099265953,159.09329465482566 1696.748851752144,134.9291764668684 Z" fill="url(#leaf0)" opacity="0.34" transform="rotate(81.7 1696.7 183.3)"/>
    <path d="M 425.9128038721906,80.50859760823815 C 479.31910805467544,125.01385109364217 497.121209448837,187.3212059732078 425.9128038721906,258.5296115498543 C 354.70439829554414,187.3212059732078 372.5064996897057,125.01385109364217 425.9128038721906,80.50859760823815 Z" fill="url(#leaf1)" opacity="0.33" transform="rotate(186.0 425.9 169.5)"/>
    <path d="M 1649.7378413028994,7.676860808973409 C 1683.2467436709437,35.60094611567701 1694.416377793625,74.69466554506205 1649.7378413028994,119.37320203578781 C 1605.0593048121737,74.69466554506205 1616.228938934855,35.60094611567701 1649.7378413028994,7.676860808973409 Z" fill="url(#leaf2)" opacity="0.37" transform="rotate(228.0 1649.7 63.5)"/>
    <path d="M 1294.3189660080088,751.9374000837362 C 1345.3855319994984,794.4928717433108 1362.4077206633283,854.0705320667154 1294.3189660080088,922.1592867220348 C 1226.2302113526894,854.0705320667154 1243.2524000165192,794.4928717433108 1294.3189660080088,751.9374000837362 Z" fill="url(#leaf3)" opacity="0.26" transform="rotate(266.9 1294.3 837.0)"/>
    <path d="M 588.1712795889995,631.1380887840019 C 644.0823711560149,677.730665089848 662.7194016783533,742.9602719180326 588.1712795889995,817.5083940073864 C 513.6231574996457,742.9602719180326 532.260188021984,677.730665089848 588.1712795889995,631.1380887840019 Z" fill="url(#leaf4)" opacity="0.36" transform="rotate(110.1 588.2 724.3)"/>
    <path d="M 425.96106947142755,586.450733250874 C 473.05327467740415,625.6942375891879 488.7506764127297,680.6351436628273 425.96106947142755,743.4247506041295 C 363.1714625301254,680.6351436628273 378.86886426545095,625.6942375891879 425.96106947142755,586.450733250874 Z" fill="url(#leaf5)" opacity="0.30" transform="rotate(10.0 426.0 664.9)"/>
    <path d="M 1619.869278646845,270.06527628639117 C 1674.9660270588465,315.9792332963924 1693.331609862847,380.2587731103942 1619.869278646845,453.72110432639624 C 1546.406947430843,380.2587731103942 1564.7725302348435,315.9792332963924 1619.869278646845,270.06527628639117 Z" fill="url(#leaf6)" opacity="0.21" transform="rotate(12.8 1619.9 361.9)"/>
    <path d="M 1061.5244412171019,857.6062887910983 C 1100.9701860707892,890.4777428358377 1114.1187676886848,936.4977784984728 1061.5244412171019,989.0921049700559 C 1008.9301147455188,936.4977784984728 1022.0786963634147,890.4777428358377 1061.5244412171019,857.6062887910983 Z" fill="url(#leaf7)" opacity="0.22" transform="rotate(16.7 1061.5 923.3)"/>
    <path d="M 617.7739592404729,11.78379917331361 C 667.731774151066,53.41531159880787 684.3843791212637,111.69942899449983 617.7739592404729,178.30984887529064 C 551.1635393596821,111.69942899449983 567.8161443298798,53.41531159880787 617.7739592404729,11.78379917331361 Z" fill="url(#leaf8)" opacity="0.22" transform="rotate(35.3 617.8 95.0)"/>
    <path d="M 1579.1548747970382,373.68550390894364 C 1628.446792880485,414.76210231181585 1644.8774322416339,472.26934007583696 1579.1548747970382,537.9918975204324 C 1513.4323173524426,472.26934007583696 1529.8629567135915,414.76210231181585 1579.1548747970382,373.68550390894364 Z" fill="url(#leaf9)" opacity="0.24" transform="rotate(322.0 1579.2 455.8)"/>
    <path d="M 217.8379472907992,839.8411225466784 C 274.49445766447474,887.054881191408 293.3799611223666,953.1541432940294 217.8379472907992,1028.6961571255968 C 142.29593345923183,953.1541432940294 161.1814369171237,887.054881191408 217.8379472907992,839.8411225466784 Z" fill="url(#leaf10)" opacity="0.30" transform="rotate(89.2 217.8 934.3)"/>
    <path d="M 376.11098703965865,116.7264954211591 C 416.53788670431226,150.4155784750371 430.0135199258635,197.58029475046635 376.11098703965865,251.48282763667117 C 322.20845415345383,197.58029475046635 335.68408737500505,150.4155784750371 376.11098703965865,116.7264954211591 Z" fill="url(#leaf11)" opacity="0.38" transform="rotate(36.1 376.1 184.1)"/>
    <path d="M 1144.306981129762,123.21189462579702 C 1180.5492321843199,153.41377050459508 1192.629982535839,195.69639673491235 1144.306981129762,244.01939814098927 C 1095.9839797236853,195.69639673491235 1108.0647300752044,153.41377050459508 1144.306981129762,123.21189462579702 Z" fill="url(#leaf12)" opacity="0.37" transform="rotate(190.7 1144.3 183.6)"/>
    <path d="M 265.6370867845342,902.0789597604254 C 312.3529413873231,941.0088385960828 327.92489292158604,995.5106689660032 265.6370867845342,1057.7984751030551 C 203.34928064748232,995.5106689660032 218.92123218174527,941.0088385960828 265.6370867845342,902.0789597604254 Z" fill="url(#leaf13)" opacity="0.27" transform="rotate(179.8 265.6 979.9)"/>
    <path d="M 639.6283441754031,56.54903207059634 C 699.1751837044997,106.17139834484351 719.0241302141985,175.64271112878956 639.6283441754031,255.03849716758504 C 560.2325581366076,175.64271112878956 580.0815046463065,106.17139834484351 639.6283441754031,56.54903207059634 Z" fill="url(#leaf14)" opacity="0.40" transform="rotate(338.9 639.6 155.8)"/>
    <path d="M 236.74706550339064,37.64558318869467 C 268.7191985209548,64.28902736999814 279.3765761934762,101.58984922382297 236.74706550339064,144.2193599139085 C 194.1175548133051,101.58984922382297 204.7749324858265,64.28902736999814 236.74706550339064,37.64558318869467 Z" fill="url(#leaf15)" opacity="0.38" transform="rotate(82.1 236.7 90.9)"/>
    <path d="M 623.688974618326,478.8543619757715 C 666.6020862859287,514.6152883654405 680.9064568417964,564.680585310977 623.688974618326,621.8980675344474 C 566.4714923948557,564.680585310977 580.7758629507233,514.6152883654405 623.688974618326,478.8543619757715 Z" fill="url(#leaf16)" opacity="0.34" transform="rotate(55.3 623.7 550.4)"/>
    <path d="M 191.0285874095626,864.3453026619022 C 244.84927131169198,909.1958725803433 262.7894992790684,971.986670466161 191.0285874095626,1043.7475823356667 C 119.26767554005674,971.986670466161 137.2079035074332,909.1958725803433 191.0285874095626,864.3453026619022 Z" fill="url(#leaf17)" opacity="0.36" transform="rotate(279.4 191.0 954.0)"/>
    <path d="M 1855.6616413142833,745.5174741126358 C 1900.5487956186967,782.9234360329801 1915.5111803868344,835.2917827214624 1855.6616413142833,895.1413217940134 C 1795.8121022417322,835.2917827214624 1810.77448700987,782.9234360329801 1855.6616413142833,745.5174741126358 Z" fill="url(#leaf18)" opacity="0.40" transform="rotate(239.7 1855.7 820.3)"/>
    <path d="M 953.3660958551933,507.7171820216769 C 1011.2628533505938,555.9644799345107 1030.5617725157274,623.510697012478 953.3660958551933,700.7063736730121 C 876.1704191946592,623.510697012478 895.4693383597928,555.9644799345107 953.3660958551933,507.7171820216769 Z" fill="url(#leaf19)" opacity="0.26" transform="rotate(57.8 953.4 604.2)"/>
    <path d="M 502.45881265975567,430.5155865482539 C 539.3605907802004,461.2670683152911 551.6611834870153,504.31914278914326 502.45881265975567,553.5215136164029 C 453.2564418324961,504.31914278914326 465.55703453931096,461.2670683152911 502.45881265975567,430.5155865482539 Z" fill="url(#leaf0)" opacity="0.28" transform="rotate(197.2 502.5 492.0)"/>
    <path d="M 1662.3250046254418,804.7265897445188 C 1705.3452873127792,840.5768253173 1719.6853815418915,890.7671551191935 1662.3250046254418,948.1275320356433 C 1604.964627708992,890.7671551191935 1619.3047219381044,840.5768253173 1662.3250046254418,804.7265897445188 Z" fill="url(#leaf1)" opacity="0.24" transform="rotate(193.8 1662.3 876.4)"/>
    <path d="M 319.1446919142629,861.5414957199183 C 362.2434373640555,897.4571169280789 376.6096858473197,947.7389866195036 319.1446919142629,1005.2039805525604 C 261.6796979812061,947.7389866195036 276.0459464644703,897.4571169280789 319.1446919142629,861.5414957199183 Z" fill="url(#leaf2)" opacity="0.26" transform="rotate(114.3 319.1 933.4)"/>
    <path d="M 1170.3151761883817,112.83492874863592 C 1225.16667290488,158.54450934571776 1243.4505051437127,222.53792218163235 1170.3151761883817,295.67325113696336 C 1097.1798472330506,222.53792218163235 1115.4636794718833,158.54450934571776 1170.3151761883817,112.83492874863592 Z" fill="url(#leaf3)" opacity="0.23" transform="rotate(314.7 1170.3 204.3)"/>
    <path d="M 153.06587123041396,35.977553785869596 C 179.04307543348457,57.625223955095095 187.70214350117476,87.9319621920108 153.06587123041396,122.56823446277161 C 118.42959895965316,87.9319621920108 127.08866702734336,57.625223955095095 153.06587123041396,35.977553785869596 Z" fill="url(#leaf4)" opacity="0.38" transform="rotate(203.0 153.1 79.3)"/>
    <path d="M 1483.3707924623366,90.70639599044586 C 1530.917725320975,130.3288400393113 1546.7667029405213,185.80026170772294 1483.3707924623366,249.19617218590764 C 1419.9748819841518,185.80026170772294 1435.823859603698,130.3288400393113 1483.3707924623366,90.70639599044586 Z" fill="url(#leaf5)" opacity="0.24" transform="rotate(76.4 1483.4 170.0)"/>
    <path d="M 1277.152440265231,28.07899078591386 C 1304.6145159215935,50.96405383288263 1313.768541140381,83.0031420986389 1277.152440265231,119.61924297378893 C 1240.536339390081,83.0031420986389 1249.6903646088685,50.96405383288263 1277.152440265231,28.07899078591386 Z" fill="url(#leaf6)" opacity="0.27" transform="rotate(284.6 1277.2 73.8)"/>
    <path d="M 737.325081226376,873.6000974216819 C 788.6624402645039,916.3812299534551 805.7748932772131,976.2748154979375 737.325081226376,1044.7246275487746 C 668.875269175539,976.2748154979375 685.9877221882482,916.3812299534551 737.325081226376,873.6000974216819 Z" fill="url(#leaf7)" opacity="0.22" transform="rotate(77.3 737.3 959.2)"/>
    <path d="M 228.08084751242703,850.5770869634717 C 273.86995633789263,888.7346776513597 289.1329926130478,942.1553046144029 228.08084751242703,1003.2074497150237 C 167.02870241180622,942.1553046144029 182.29173868696142,888.7346776513597 228.08084751242703,850.5770869634717 Z" fill="url(#leaf8)" opacity="0.38" transform="rotate(237.6 228.1 926.9)"/>
    <path d="M 129.74002674001454,721.1083796017598 C 160.80490778033186,746.9957804686909 171.15986812710432,783.2381416823945 129.74002674001454,824.6579830694842 C 88.32018535292477,783.2381416823945 98.67514569969721,746.9957804686909 129.74002674001454,721.1083796017598 Z" fill="url(#leaf9)" opacity="0.38" transform="rotate(152.8 129.7 772.9)"/>
    <path d="M 717.2252725800818,904.6580420422199 C 761.8769203362116,941.8677485056614 776.7608029215882,993.9613375544795 717.2252725800818,1053.496867895986 C 657.6897422385754,993.9613375544795 672.573624823952,941.8677485056614 717.2252725800818,904.6580420422199 Z" fill="url(#leaf10)" opacity="0.37" transform="rotate(344.4 717.2 979.1)"/>
    <path d="M 1256.3058391967493,598.454551203582 C 1295.0359102419234,630.7296104078937 1307.945933923648,675.91469329393 1256.3058391967493,727.5547880208287 C 1204.6657444698506,675.91469329393 1217.5757681515752,630.7296104078937 1256.3058391967493,598.454551203582 Z" fill="url(#leaf11)" opacity="0.35" transform="rotate(6.4 1256.3 663.0)"/>
    <path d="M 1520.0909407615454,227.44749601429425 C 1560.1715528658783,260.84800610123835 1573.531756900656,307.6087202229602 1520.0909407615454,361.0495363620708 C 1466.6501246224348,307.6087202229602 1480.0103286572125,260.84800610123835 1520.0909407615454,227.44749601429425 Z" fill="url(#leaf12)" opacity="0.20" transform="rotate(297.7 1520.1 294.2)"/>
    <path d="M 639.5940849084872,396.7248910892592 C 698.5517016323553,445.8562383591493 718.2042405403113,514.6401245369954 639.5940849084872,593.2502801688195 C 560.983929276663,514.6401245369954 580.636468184619,445.8562383591493 639.5940849084872,396.7248910892592 Z" fill="url(#leaf13)" opacity="0.37" transform="rotate(28.9 639.6 495.0)"/>
    <path d="M 1376.7920170665911,963.0010697150747 C 1411.9673775265562,992.3138700983787 1423.6924976798778,1033.3517906350046 1376.7920170665911,1080.2522712482912 C 1329.8915364533045,1033.3517906350046 1341.616656606626,992.3138700983787 1376.7920170665911,963.0010697150747 Z" fill="url(#leaf14)" opacity="0.38" transform="rotate(145.7 1376.8 1021.6)"/>
    <path d="M 1787.1735366870362,568.7384124899751 C 1835.1207198806385,608.6943984846437 1851.103114278506,664.6327788771797 1787.1735366870362,728.5623564686495 C 1723.2439590955664,664.6327788771797 1739.2263534934339,608.6943984846437 1787.1735366870362,568.7384124899751 Z" fill="url(#leaf15)" opacity="0.35" transform="rotate(266.3 1787.2 648.7)"/>
    <path d="M 467.2973908463768,583.456677927006 C 506.7343961950146,616.3208490508708 519.8800646445604,662.3306886242816 467.2973908463768,714.9133624224653 C 414.7147170481931,662.3306886242816 427.860385497739,616.3208490508708 467.2973908463768,583.456677927006 Z" fill="url(#leaf16)" opacity="0.38" transform="rotate(31.3 467.3 649.2)"/>
    <path d="M 77.84700543697753,347.8392631883255 C 133.7443901240759,394.4204170942408 152.37685168644202,459.63403256252224 77.84700543697753,534.1638788119867 C 3.3171591875130275,459.63403256252224 21.94962074987916,394.4204170942408 77.84700543697753,347.8392631883255 Z" fill="url(#leaf17)" opacity="0.28" transform="rotate(145.8 77.8 441.0)"/>
    <path d="M 889.2265485846226,26.667219818326316 C 945.2420411353531,73.34679694393506 963.9138719855966,138.6982049197873 889.2265485846226,213.38552832076127 C 814.5392251836486,138.6982049197873 833.2110560338921,73.34679694393506 889.2265485846226,26.667219818326316 Z" fill="url(#leaf18)" opacity="0.38" transform="rotate(315.5 889.2 120.0)"/>
    <path d="M 1283.5113274712091,44.26380675963689 C 1328.3128042836634,81.59837077001546 1343.2466298878148,133.86676038454547 1283.5113274712091,193.6020628011512 C 1223.7760250546035,133.86676038454547 1238.709850658755,81.59837077001546 1283.5113274712091,44.26380675963689 Z" fill="url(#leaf19)" opacity="0.21" transform="rotate(299.7 1283.5 118.9)"/>
    <path d="M 1508.7135045285208,871.562768633811 C 1559.4183438582818,913.8168014086116 1576.319956968202,972.9724472933326 1508.7135045285208,1040.5788997330137 C 1441.1070520888397,972.9724472933326 1458.00866519876,913.8168014086116 1508.7135045285208,871.562768633811 Z" fill="url(#leaf0)" opacity="0.24" transform="rotate(251.2 1508.7 956.1)"/>
    <path d="M 1401.8808912657557,451.642657104598 C 1437.3410346453786,481.1927765876171 1449.1610824385864,522.5629438638439 1401.8808912657557,569.8431350366744 C 1354.600700092925,522.5629438638439 1366.4207478861329,481.1927765876171 1401.8808912657557,451.642657104598 Z" fill="url(#leaf1)" opacity="0.24" transform="rotate(285.5 1401.9 510.7)"/>
    <path d="M 480.49239545672015,238.42704416455584 C 539.748557522597,287.80717921945325 559.500611544556,356.9393682963097 480.49239545672015,435.94758438414556 C 401.48417936888427,356.9393682963097 421.23623339084327,287.80717921945325 480.49239545672015,238.42704416455584 Z" fill="url(#leaf2)" opacity="0.35" transform="rotate(87.2 480.5 337.2)"/>
    <path d="M 1634.538723849698,312.56680624680433 C 1668.2024625333797,340.61992181653915 1679.4237087612737,379.8942836141679 1634.538723849698,424.7792685257436 C 1589.6537389381224,379.8942836141679 1600.8749851660164,340.61992181653915 1634.538723849698,312.56680624680433 Z" fill="url(#leaf3)" opacity="0.30" transform="rotate(233.8 1634.5 368.7)"/>
    <path d="M 882.2384693746411,193.29739384719852 C 907.6785011059735,214.49742028997554 916.1585116830844,244.17745730986337 882.2384693746411,278.0974996183066 C 848.3184270661978,244.17745730986337 856.7984376433087,214.49742028997554 882.2384693746411,193.29739384719852 Z" fill="url(#leaf4)" opacity="0.30" transform="rotate(230.2 882.2 235.7)"/>
    <path d="M 966.8932472580539,556.2267925582294 C 1012.1174413427985,593.9136209621832 1027.19217270438,646.6751807277187 966.8932472580539,706.9741061740449 C 906.5943218117276,646.6751807277187 921.6690531733092,593.9136209621832 966.8932472580539,556.2267925582294 Z" fill="url(#leaf5)" opacity="0.33" transform="rotate(154.5 966.9 631.6)"/>
    <path d="M 1256.3332308363663,216.4973449582283 C 1281.0379905902564,237.08464475313679 1289.2729105082199,265.9068644660087 1256.3332308363663,298.84654413786234 C 1223.3935511645127,265.9068644660087 1231.6284710824762,237.08464475313679 1256.3332308363663,216.4973449582283 Z" fill="url(#leaf6)" opacity="0.40" transform="rotate(168.0 1256.3 257.7)"/>
    <path d="M 530.7189615158592,597.1105262450019 C 572.0146707583825,631.523617280438 585.779907172557,679.7019447300486 530.7189615158592,734.7628903867464 C 475.6580158591613,679.7019447300486 489.4232522733358,631.523617280438 530.7189615158592,597.1105262450019 Z" fill="url(#leaf7)" opacity="0.22" transform="rotate(55.8 530.7 665.9)"/>
    <path d="M 1276.1554751490849,363.9758089628709 C 1334.9606990780428,412.98016223700245 1354.5624403876955,481.5862568207867 1276.1554751490849,559.9932220593971 C 1197.7485099104742,481.5862568207867 1217.350251220127,412.98016223700245 1276.1554751490849,363.9758089628709 Z" fill="url(#leaf8)" opacity="0.21" transform="rotate(261.7 1276.2 462.0)"/>
    <path d="M 1357.9641335922886,804.3491276594763 C 1393.2878289858918,833.7855404874789 1405.0623941170927,874.9965184466826 1357.9641335922886,922.0947789714868 C 1310.8658730674845,874.9965184466826 1322.6404381986854,833.7855404874789 1357.9641335922886,804.3491276594763 Z" fill="url(#leaf9)" opacity="0.29" transform="rotate(101.4 1358.0 863.2)"/>
    <path d="M 846.6786862946111,585.1104954484127 C 878.4805485329487,611.612047313694 889.0811692790611,648.7142199250878 846.6786862946111,691.1167029095378 C 804.2762033101611,648.7142199250878 814.8768240562736,611.612047313694 846.6786862946111,585.1104954484127 Z" fill="url(#leaf10)" opacity="0.35" transform="rotate(114.0 846.7 638.1)"/>
    <path d="M 425.1269668605698,521.207022658026 C 458.1431627439891,548.720519227542 469.1485613717955,587.2394144248645 425.1269668605698,631.2610089360902 C 381.10537234934407,587.2394144248645 392.1107709771505,548.720519227542 425.1269668605698,521.207022658026 Z" fill="url(#leaf11)" opacity="0.34" transform="rotate(7.8 425.1 576.2)"/>
    <path d="M 1270.8596085670179,564.2076673439531 C 1296.3141322676224,585.4197704277904 1304.7989735011574,615.1167147451624 1270.8596085670179,649.056079679302 C 1236.9202436328783,615.1167147451624 1245.4050848664133,585.4197704277904 1270.8596085670179,564.2076673439531 Z" fill="url(#leaf12)" opacity="0.24" transform="rotate(100.4 1270.9 606.6)"/>
    <path d="M 196.3101237171798,788.5181834937994 C 236.54674021869226,822.0486972450598 249.9589457191964,868.9914164968243 196.3101237171798,922.640238498841 C 142.6613017151632,868.9914164968243 156.07350721566735,822.0486972450598 196.3101237171798,788.5181834937994 Z" fill="url(#leaf13)" opacity="0.29" transform="rotate(147.4 196.3 855.6)"/>
    <path d="M 362.0184143930798,584.5875949541974 C 420.11168516184597,632.9986539281691 439.4761087514347,700.7741364917296 362.0184143930798,778.2318308500844 C 284.5607200347249,700.7741364917296 303.92514362431365,632.9986539281691 362.0184143930798,584.5875949541974 Z" fill="url(#leaf14)" opacity="0.34" transform="rotate(20.7 362.0 681.4)"/>
    <path d="M 1640.6542496281297,731.5069309966416 C 1673.5230399396269,758.8975895895559 1684.4793033767926,797.2445116196358 1640.6542496281297,841.0695653682985 C 1596.8291958794669,797.2445116196358 1607.7854593166326,758.8975895895559 1640.6542496281297,731.5069309966416 Z" fill="url(#leaf15)" opacity="0.21" transform="rotate(27.0 1640.7 786.3)"/>
    <path d="M 367.9748601854231,944.3890639774271 C 409.49699591223873,978.9908437497734 423.3377078211773,1027.4333354310584 367.9748601854231,1082.7961830668125 C 312.6120125496689,1027.4333354310584 326.45272445860746,978.9908437497734 367.9748601854231,944.3890639774271 Z" fill="url(#leaf16)" opacity="0.24" transform="rotate(216.3 368.0 1013.6)"/>
    <path d="M 1235.6001976218113,142.74420529044818 C 1278.3328086776883,178.35471450367896 1292.5770123629804,228.2094274022021 1235.6001976218113,285.1862421433714 C 1178.623382880642,228.2094274022021 1192.8675865659343,178.35471450367896 1235.6001976218113,142.74420529044818 Z" fill="url(#leaf17)" opacity="0.26" transform="rotate(269.5 1235.6 214.0)"/>
    <path d="M 985.8645754881599,441.33871342122904 C 1019.0399253416889,468.98483829916995 1030.0983752928653,507.68941312828713 985.8645754881599,551.9232129329926 C 941.6307756834544,507.68941312828713 952.6892256346308,468.98483829916995 985.8645754881599,441.33871342122904 Z" fill="url(#leaf18)" opacity="0.33" transform="rotate(247.9 985.9 496.6)"/>
    <path d="M 754.1120019433093,80.97340699107683 C 793.6193318285452,113.89618189544007 806.7884417902906,159.98806676154862 754.1120019433093,212.6645066085298 C 701.4355620963281,159.98806676154862 714.6046720580734,113.89618189544007 754.1120019433093,80.97340699107683 Z" fill="url(#leaf19)" opacity="0.27" transform="rotate(251.2 754.1 146.8)"/>
    <path d="M 917.0292797782654,434.8687356496506 C 965.7019965167422,475.4293329317146 981.9262354295678,532.2141691266042 917.0292797782654,597.1111247779066 C 852.132324126963,532.2141691266042 868.3565630397886,475.4293329317146 917.0292797782654,434.8687356496506 Z" fill="url(#leaf0)" opacity="0.37" transform="rotate(305.2 917.0 516.0)"/>
    <path d="M 550.0502376535376,881.788622593965 C 597.744605097149,921.5339287969746 613.6427275783528,977.1773574811879 550.0502376535376,1040.769847406003 C 486.4577477287223,977.1773574811879 502.35587020992614,921.5339287969746 550.0502376535376,881.788622593965 Z" fill="url(#leaf1)" opacity="0.32" transform="rotate(123.2 550.1 961.3)"/>
    <path d="M 720.5004820704056,322.8861222631204 C 771.698708965453,365.5513113423266 788.7647845971354,425.28257605321517 720.5004820704056,493.54687857994503 C 652.2361795436758,425.28257605321517 669.3022551753583,365.5513113423266 720.5004820704056,322.8861222631204 Z" fill="url(#leaf2)" opacity="0.30" transform="rotate(4.0 720.5 408.2)"/>
    <path d="M 394.0668241310849,194.86823024438985 C 419.88788860573237,216.38578397326276 428.49491009728155,246.51035919368485 394.0668241310849,280.9384451598815 C 359.63873816488825,246.51035919368485 368.24575965643743,216.38578397326276 394.0668241310849,194.86823024438985 Z" fill="url(#leaf3)" opacity="0.23" transform="rotate(312.6 394.1 237.9)"/>
    <path d="M 1385.1209418257774,-30.63827095179127 C 1440.5307615544966,15.536578822141479 1459.0007014640698,80.18136850564733 1385.1209418257774,154.06112814393973 C 1311.241182187485,80.18136850564733 1329.7111220970583,15.536578822141479 1385.1209418257774,-30.63827095179127 Z" fill="url(#leaf4)" opacity="0.39" transform="rotate(313.4 1385.1 61.7)"/>
    <path d="M 560.0792907831529,125.22899474819626 C 616.7169289055192,172.42702651683484 635.5961416129746,238.50427099292884 560.0792907831529,314.02112182275056 C 484.5624399533312,238.50427099292884 503.44165266078664,172.42702651683484 560.0792907831529,125.22899474819626 Z" fill="url(#leaf5)" opacity="0.21" transform="rotate(151.6 560.1 219.6)"/>
    <path d="M 695.849172167101,286.8368354443079 C 742.9214635797875,326.06374495488006 758.6122273840165,380.9814182696811 695.849172167101,443.7444734865966 C 633.0861169501854,380.9814182696811 648.7768807544144,326.06374495488006 695.849172167101,286.8368354443079 Z" fill="url(#leaf6)" opacity="0.33" transform="rotate(149.4 695.8 365.3)"/>
    <path d="M 338.3171071173252,514.8616728592511 C 379.701017050884,549.3482644705501 393.4956536954036,597.6294927263688 338.3171071173252,652.8080393044471 C 283.1385605392468,597.6294927263688 296.93319718376637,549.3482644705501 338.3171071173252,514.8616728592511 Z" fill="url(#leaf7)" opacity="0.31" transform="rotate(282.7 338.3 583.8)"/>
    <path d="M 1332.8116303407476,487.17903246150576 C 1374.0076974227193,521.5090883631487 1387.7397197833764,569.571166625449 1332.8116303407476,624.4992560680778 C 1277.8835408981188,569.571166625449 1291.6155632587759,521.5090883631487 1332.8116303407476,487.17903246150576 Z" fill="url(#leaf8)" opacity="0.27" transform="rotate(104.6 1332.8 555.8)"/>
    <path d="M 1622.5860598745737,497.43968996413906 C 1676.6727742381177,542.511951933759 1694.7016790259656,605.6131186912269 1622.5860598745737,677.7287378426188 C 1550.4704407231818,605.6131186912269 1568.4993455110298,542.511951933759 1622.5860598745737,497.43968996413906 Z" fill="url(#leaf9)" opacity="0.26" transform="rotate(251.4 1622.6 587.6)"/>
    <path d="M 930.3502783676045,365.60278659097355 C 965.4421872786324,394.84604401683026 977.1394902489752,435.78660441302964 930.3502783676045,482.5758162944004 C 883.5610664862337,435.78660441302964 895.2583694565765,394.84604401683026 930.3502783676045,365.60278659097355 Z" fill="url(#leaf10)" opacity="0.33" transform="rotate(93.8 930.4 424.1)"/>
    <path d="M 71.97933515916445,254.3104764895664 C 129.47510950101343,302.2236217744406 148.64036761496308,369.3020251732644 71.97933515916445,445.963057629063 C -4.681697296634184,369.3020251732644 14.483560817315471,302.2236217744406 71.97933515916445,254.3104764895664 Z" fill="url(#leaf11)" opacity="0.32" transform="rotate(307.7 72.0 350.1)"/>
    <path d="M 1004.7942277928014,886.1332493199826 C 1062.8509176417913,934.5138241941409 1082.2031475914546,1002.2466290179624 1004.7942277928014,1079.6555488166155 C 927.3853079941482,1002.2466290179624 946.7375379438115,934.5138241941409 1004.7942277928014,886.1332493199826 Z" fill="url(#leaf12)" opacity="0.31" transform="rotate(301.9 1004.8 982.9)"/>
    <path d="M 284.7769873119747,601.8085281081044 C 337.0964727833584,645.4080993342575 354.53630127381973,706.4474990508718 284.7769873119747,776.2068130127168 C 215.01767335012974,706.4474990508718 232.457501840591,645.4080993342575 284.7769873119747,601.8085281081044 Z" fill="url(#leaf13)" opacity="0.20" transform="rotate(225.4 284.8 689.0)"/>
    <path d="M 57.27615245710714,890.2282393856841 C 86.35885598739,914.4638256609198 96.0530904974843,948.3936464462498 57.27615245710714,987.170584486627 C 18.499214416729977,948.3936464462498 28.193448926824274,914.4638256609198 57.27615245710714,890.2282393856841 Z" fill="url(#leaf14)" opacity="0.28" transform="rotate(297.9 57.3 938.7)"/>
    <path d="M 249.71867792468908,500.9167620013851 C 284.10834204488407,529.5748154348809 295.5715634182824,569.6960902417751 249.71867792468908,615.5489757353683 C 203.86579243109577,569.6960902417751 215.32901380449408,529.5748154348809 249.71867792468908,500.9167620013851 Z" fill="url(#leaf15)" opacity="0.25" transform="rotate(206.8 249.7 558.2)"/>
    <path d="M 847.2618887613525,375.35645278715754 C 880.4612411256101,403.0225797573722 891.527691913696,441.7551575156728 847.2618887613525,486.0209606680163 C 802.9960856090089,441.7551575156728 814.0625363970948,403.0225797573722 847.2618887613525,375.35645278715754 Z" fill="url(#leaf16)" opacity="0.39" transform="rotate(321.5 847.3 430.7)"/>
    <path d="M 1180.5854871454135,908.722970554889 C 1223.9390539228712,944.8509428694371 1238.3902428486904,995.4301041098045 1180.5854871454135,1053.2348598130816 C 1122.7807314421366,995.4301041098045 1137.2319203679558,944.8509428694371 1180.5854871454135,908.722970554889 Z" fill="url(#leaf17)" opacity="0.37" transform="rotate(205.3 1180.6 981.0)"/>
    <path d="M 363.7461722987664,617.2624530404375 C 401.4271131527047,648.6632370853861 413.9874267706841,692.6243347483141 363.7461722987664,742.8655892202319 C 313.50491782684867,692.6243347483141 326.0652314448281,648.6632370853861 363.7461722987664,617.2624530404375 Z" fill="url(#leaf18)" opacity="0.24" transform="rotate(186.6 363.7 680.1)"/>
    <path d="M 439.1297747635206,101.0264098498535 C 466.5902172069974,123.91011188608417 475.74369802148965,155.94729473680712 439.1297747635206,192.5612179947762 C 402.5158515055515,155.94729473680712 411.66933232004374,123.91011188608417 439.1297747635206,101.0264098498535 Z" fill="url(#leaf19)" opacity="0.25" transform="rotate(315.8 439.1 146.8)"/>
    <path d="M 941.2443326497937,637.264679202021 C 996.2925297613052,683.1381767949472 1014.6419287984758,747.361073425044 941.2443326497937,820.7586695737259 C 867.8467365011116,747.361073425044 886.1961355382822,683.1381767949472 941.2443326497937,637.264679202021 Z" fill="url(#leaf0)" opacity="0.32" transform="rotate(120.1 941.2 729.0)"/>
    <path d="M 314.72561431642094,557.3240710665929 C 373.40570390141664,606.2241457207559 392.96573376308186,674.6842502365843 314.72561431642094,752.9243696832451 C 236.48549486976003,674.6842502365843 256.04552473142525,606.2241457207559 314.72561431642094,557.3240710665929 Z" fill="url(#leaf1)" opacity="0.27" transform="rotate(285.9 314.7 655.1)"/>
    <path d="M 618.8946017109812,601.1633101532751 C 671.4162959243605,644.9313886644245 688.9235273288202,706.2066985800336 618.8946017109812,776.2356241978727 C 548.8656760931422,706.2066985800336 566.3729074976019,644.9313886644245 618.8946017109812,601.1633101532751 Z" fill="url(#leaf2)" opacity="0.36" transform="rotate(118.4 618.9 688.7)"/>
    <path d="M 254.0776307243819,386.6058994048277 C 306.48398110626437,430.27785805639644 323.95276456689186,491.41860016859266 254.0776307243819,561.2937340111026 C 184.20249688187192,491.41860016859266 201.67128034249941,430.27785805639644 254.0776307243819,386.6058994048277 Z" fill="url(#leaf3)" opacity="0.39" transform="rotate(333.5 254.1 473.9)"/>
    <path d="M 530.9666798560576,-5.053466729702308 C 578.4078651484335,34.48085434727764 594.2215935792254,89.82890385504957 530.9666798560576,153.0838175782175 C 467.71176613288964,89.82890385504957 483.5254945636816,34.48085434727764 530.9666798560576,-5.053466729702308 Z" fill="url(#leaf4)" opacity="0.27" transform="rotate(25.9 531.0 74.0)"/>
    <path d="M 763.9400836837389,695.3188542512754 C 814.3532068826445,737.3297902503633 831.1575812822796,796.1451006490865 763.9400836837389,863.3625982476273 C 696.7225860851981,796.1451006490865 713.5269604848332,737.3297902503633 763.9400836837389,695.3188542512754 Z" fill="url(#leaf5)" opacity="0.39" transform="rotate(305.7 763.9 779.3)"/>
    <path d="M 408.9068477878608,178.1027477247074 C 439.8077347685436,203.85348687527642 450.1080304287712,239.904521686073 408.9068477878608,281.1057043269834 C 367.70566514695037,239.904521686073 378.005960807178,203.85348687527642 408.9068477878608,178.1027477247074 Z" fill="url(#leaf6)" opacity="0.21" transform="rotate(89.6 408.9 229.6)"/>
    <path d="M 626.5250279824879,506.8146238555214 C 666.5345341976159,540.1558790347947 679.8710362693253,586.8336362857774 626.5250279824879,640.1796445726147 C 573.1790196956506,586.8336362857774 586.5155217673599,540.1558790347947 626.5250279824879,506.8146238555214 Z" fill="url(#leaf7)" opacity="0.24" transform="rotate(0.0 626.5 573.5)"/>
    <path d="M 1671.326090957132,295.02647245157004 C 1703.2558171589706,321.6345776197689 1713.89905922625,358.88592485524725 1671.326090957132,401.45889312436543 C 1628.753122688014,358.88592485524725 1639.3963647552935,321.6345776197689 1671.326090957132,295.02647245157004 Z" fill="url(#leaf8)" opacity="0.33" transform="rotate(286.9 1671.3 348.2)"/>
    <path d="M 940.3706370859877,613.3532093024572 C 973.9525601256938,641.338145168879 985.1465344722625,680.5170553818695 940.3706370859877,725.2929527681443 C 895.5947396997129,680.5170553818695 906.7887140462816,641.338145168879 940.3706370859877,613.3532093024572 Z" fill="url(#leaf9)" opacity="0.31" transform="rotate(46.3 940.4 669.3)"/>
    <path d="M 1132.4609372827106,101.39588354759226 C 1191.4504339305745,150.5537974208122 1211.1135994798624,219.3748768433201 1132.4609372827106,298.027539040472 C 1053.8082750855588,219.3748768433201 1073.4714406348467,150.5537974208122 1132.4609372827106,101.39588354759226 Z" fill="url(#leaf10)" opacity="0.39" transform="rotate(20.1 1132.5 199.7)"/>
    <path d="M 1266.5937125383098,563.5115040120722 C 1311.0692404975578,600.5744439781121 1325.8944164839736,652.462559930568 1266.5937125383098,711.7632638762318 C 1207.293008592646,652.462559930568 1222.1181845790618,600.5744439781121 1266.5937125383098,563.5115040120722 Z" fill="url(#leaf11)" opacity="0.34" transform="rotate(92.4 1266.6 637.6)"/>
    <path d="M 573.6799516586034,260.2512003865636 C 622.2303277440247,300.70984712441475 638.4137864391652,357.3519525574064 573.6799516586034,422.0857873379682 C 508.94611687804155,357.3519525574064 525.129575573182,300.70984712441475 573.6799516586034,260.2512003865636 Z" fill="url(#leaf12)" opacity="0.33" transform="rotate(251.9 573.7 341.2)"/>
    <path d="M 407.78661991510717,773.08514663135 C 435.8554077466363,796.4758031576242 445.211670357146,829.2227222944082 407.78661991510717,866.647772736447 C 370.36156947306836,829.2227222944082 379.71783208357806,796.4758031576242 407.78661991510717,773.08514663135 Z" fill="url(#leaf13)" opacity="0.28" transform="rotate(241.6 407.8 819.9)"/>
    <path d="M 908.7197877136239,544.3175445622863 C 965.6317164896966,591.7441518756802 984.6023594150541,658.1414021144317 908.7197877136239,734.023973815862 C 832.8372160121936,658.1414021144317 851.8078589375511,591.7441518756802 908.7197877136239,544.3175445622863 Z" fill="url(#leaf14)" opacity="0.39" transform="rotate(60.5 908.7 639.2)"/>
    <path d="M 794.9938637853296,363.7503459690571 C 849.2950294525576,409.00131735841376 867.3954180083002,472.3526773035131 794.9938637853296,544.7542315264837 C 722.592309562359,472.3526773035131 740.6926981181016,409.00131735841376 794.9938637853296,363.7503459690571 Z" fill="url(#leaf15)" opacity="0.29" transform="rotate(320.7 795.0 454.3)"/>
  </g>

  <!-- Central star shape -->
  <polygon points="960.0,333.3 1020.7,456.4 1156.6,476.1 1058.3,571.9 1081.5,707.2 960.0,643.3 838.5,707.2 861.7,571.9 763.4,476.1 899.3,456.4" 
           fill="#00CED1" 
           transform="rotate(166.9 960.0 540.0)"/>
</svg>