<?xml version="1.0" encoding="UTF-8"?>
<svg xmlns="http://www.w3.org/2000/svg" viewBox="0 0 1920 1080" width="1920" height="1080">
  <defs>
    <linearGradient id="bgGrad" x1="0%" y1="0%" x2="100%" y2="100%">
      <stop offset="0%" stop-color="#FF1493"/>
      <stop offset="100%" stop-color="#FFD700"/>
    </linearGradient>
    <clipPath id="complexClip"><polygon points="1337.1,540.0 1333.5,584.7 1467.6,667.1 1298.8,678.4 1265.1,730.6 1188.1,762.2 1106.0,792.8 1020.2,862.0 907.6,820.7 796.5,823.1 703.8,789.6 702.9,700.6 538.4,712.3 534.4,646.6 610.8,581.7 563.0,540.0 522.9,487.7 589.5,447.2 576.4,383.2 585.8,306.3 765.4,350.4 841.9,335.5 900.0,219.1 1012.6,258.3 1064.0,360.0 1217.4,289.2 1236.1,367.5 1366.5,373.9 1411.6,426.9 1327.5,496.1"/></clipPath>
    <radialGradient id="leaf0" cx="50%" cy="50%" r="70%">
      <stop offset="0%" stop-color="#FFD700"/>
      <stop offset="50%" stop-color="#7B68EE"/>
      <stop offset="100%" stop-color="#DC143C"/>
    </radialGradient>
    <radialGradient id="leaf1" cx="50%" cy="50%" r="70%">
      <stop offset="0%" stop-color="#DC143C"/>
      <stop offset="50%" stop-color="#96E6A1"/>
      <stop offset="100%" stop-color="#4ECDC4"/>
    </radialGradient>
    <radialGradient id="leaf2" cx="50%" cy="50%" r="70%">
      <stop offset="0%" stop-color="#FF69B4"/>
      <stop offset="50%" stop-color="#4ECDC4"/>
      <stop offset="100%" stop-color="#FFE66D"/>
    </radialGradient>
    <radialGradient id="leaf3" cx="50%" cy="50%" r="70%">
      <stop offset="0%" stop-color="#FFD700"/>
      <stop offset="50%" stop-color="#4ECDC4"/>
      <stop offset="100%" stop-color="#96E6A1"/>
    </radialGradient>
    <radialGradient id="leaf4" cx="50%" cy="50%" r="70%">
      <stop offset="0%" stop-color="#DC143C"/>
      <stop offset="50%" stop-color="#45B7D1"/>
      <stop offset="100%" stop-color="#96E6A1"/>
    </radialGradient>
    <radialGradient id="leaf5" cx="50%" cy="50%" r="70%">
      <stop offset="0%" stop-color="#FF69B4"/>
      <stop offset="50%" stop-color="#9370DB"/>
      <stop offset="100%" stop-color="#FF6B6B"/>
    </radialGradient>
    <radialGradient id="leaf6" cx="50%" cy="50%" r="70%">
      <stop offset="0%" stop-color="#DC143C"/>
      <stop offset="50%" stop-color="#00CED1"/>
      <stop offset="100%" stop-color="#9370DB"/>
    </radialGradient>
    <radialGradient id="leaf7" cx="50%" cy="50%" r="70%">
      <stop offset="0%" stop-color="#4ECDC4"/>
      <stop offset="50%" stop-color="#FFD700"/>
      <stop offset="100%" stop-color="#FF4500"/>
    </radialGradient>
    <radialGradient id="leaf8" cx="50%" cy="50%" r="70%">
      <stop offset="0%" stop-color="#FF69B4"/>
      <stop offset="50%" stop-color="#FFE66D"/>
      <stop offset="100%" stop-color="#00FA9A"/>
    </radialGradient>
    <radialGradient id="leaf9" cx="50%" cy="50%" r="70%">
      <stop offset="0%" stop-color="#FFD700"/>
      <stop offset="50%" stop-color="#45B7D1"/>
      <stop offset="100%" stop-color="#00CED1"/>
    </radialGradient>
    <radialGradient id="leaf10" cx="50%" cy="50%" r="70%">
      <stop offset="0%" stop-color="#32CD32"/>
      <stop offset="50%" stop-color="#4ECDC4"/>
      <stop offset="100%" stop-color="#FFE66D"/>
    </radialGradient>
    <radialGradient id="leaf11" cx="50%" cy="50%" r="70%">
      <stop offset="0%" stop-color="#FF4500"/>
      <stop offset="50%" stop-color="#00FA9A"/>
      <stop offset="100%" stop-color="#4ECDC4"/>
    </radialGradient>
    <radialGradient id="leaf12" cx="50%" cy="50%" r="70%">
      <stop offset="0%" stop-color="#00CED1"/>
      <stop offset="50%" stop-color="#45B7D1"/>
      <stop offset="100%" stop-color="#FF69B4"/>
    </radialGradient>
    <radialGradient id="leaf13" cx="50%" cy="50%" r="70%">
      <stop offset="0%" stop-color="#FF6B6B"/>
      <stop offset="50%" stop-color="#96E6A1"/>
      <stop offset="100%" stop-color="#FF1493"/>
    </radialGradient>
    <radialGradient id="leaf14" cx="50%" cy="50%" r="70%">
      <stop offset="0%" stop-color="#7B68EE"/>
      <stop offset="50%" stop-color="#00CED1"/>
      <stop offset="100%" stop-color="#FFD700"/>
    </radialGradient>
    <radialGradient id="leaf15" cx="50%" cy="50%" r="70%">
      <stop offset="0%" stop-color="#96E6A1"/>
      <stop offset="50%" stop-color="#FFE66D"/>
      <stop offset="100%" stop-color="#45B7D1"/>
    </radialGradient>
    <radialGradient id="leaf16" cx="50%" cy="50%" r="70%">
      <stop offset="0%" stop-color="#FFD700"/>
      <stop offset="50%" stop-color="#FFE66D"/>
      <stop offset="100%" stop-color="#4ECDC4"/>
    </radialGradient>
    <radialGradient id="leaf17" cx="50%" cy="50%" r="70%">
      <stop offset="0%" stop-color="#FFE66D"/>
      <stop offset="50%" stop-color="#FFD700"/>
      <stop offset="100%" stop-color="#45B7D1"/>
    </radialGradient>
    <radialGradient id="leaf18" cx="50%" cy="50%" r="70%">
      <stop offset="0%" stop-color="#4ECDC4"/>
      <stop offset="50%" stop-color="#FF1493"/>
      <stop offset="100%" stop-color="#00CED1"/>
    </radialGradient>
    <radialGradient id="leaf19" cx="50%" cy="50%" r="70%">
      <stop offset="0%" stop-color="#FFD700"/>
      <stop offset="50%" stop-color="#9370DB"/>
      <stop offset="100%" stop-color="#FF1493"/>
    </radialGradient>
  </defs>

  <!-- Background -->
  <rect width="1920" height="1080" fill="url(#bgGrad)"/>
  
  <!-- Leaves with clip-path -->
  <g clip-path="url(#complexClip)">
    <path d="M 1365.3199887358203,80.0006113661226 C 1421.0665890755938,126.45611164926711 1439.6487891888514,191.49381204566944 1365.3199887358203,265.82261249870066 C 1290.9911882827892,191.49381204566944 1309.5733883960468,126.45611164926711 1365.3199887358203,80.0006113661226 Z" fill="url(#leaf0)" opacity="0.28" transform="rotate(194.8 1365.3 172.9)"/>
    <path d="M 1376.6782738805819,274.0224548950913 C 1436.4292273999515,323.8149161612327 1456.3462119064081,393.5243619338307 1376.6782738805819,473.1922999596569 C 1297.0103358547556,393.5243619338307 1316.9273203612122,323.8149161612327 1376.6782738805819,274.0224548950913 Z" fill="url(#leaf1)" opacity="0.31" transform="rotate(313.2 1376.7 373.6)"/>
    <path d="M 522.232858877321,58.19019744726684 C 568.2670567383989,96.55202899816513 583.6117893587582,150.25859316942274 522.232858877321,211.63752365086003 C 460.85392839588366,150.25859316942274 476.198661016243,96.55202899816513 522.232858877321,58.19019744726684 Z" fill="url(#leaf2)" opacity="0.28" transform="rotate(345.5 522.2 134.9)"/>
    <path d="M 941.6657160918728,157.29396775982804 C 999.6986732041091,205.65476535335833 1019.0429922415212,273.3598819843007 941.6657160918728,350.7371581339492 C 864.2884399422244,273.3598819843007 883.6327589796365,205.65476535335833 941.6657160918728,157.29396775982804 Z" fill="url(#leaf3)" opacity="0.26" transform="rotate(271.4 941.7 254.0)"/>
    <path d="M 1581.3592451444279,263.08467360486634 C 1639.5350381337314,311.5645010959526 1658.9269691301658,379.4362595834733 1581.3592451444279,457.0039835692113 C 1503.7915211586899,379.4362595834733 1523.1834521551243,311.5645010959526 1581.3592451444279,263.08467360486634 Z" fill="url(#leaf4)" opacity="0.35" transform="rotate(44.8 1581.4 360.0)"/>
    <path d="M 1069.997670357531,348.0535140875047 C 1114.6955812298438,385.30177314776535 1129.5948848539479,437.44933583213026 1069.997670357531,497.04655032854726 C 1010.400455861114,437.44933583213026 1025.2997594852181,385.30177314776535 1069.997670357531,348.0535140875047 Z" fill="url(#leaf5)" opacity="0.39" transform="rotate(305.7 1070.0 422.6)"/>
    <path d="M 1669.3169627170835,196.38725114590505 C 1701.8045666806725,223.46025444889597 1712.633768001869,261.36245907308324 1669.3169627170835,304.6792643578687 C 1626.000157432298,261.36245907308324 1636.8293587534945,223.46025444889597 1669.3169627170835,196.38725114590505 Z" fill="url(#leaf6)" opacity="0.23" transform="rotate(45.6 1669.3 250.5)"/>
    <path d="M 574.1473418545074,914.5326466373537 C 615.7948907727675,949.2389374025704 629.6774070788542,997.8277444738738 574.1473418545074,1053.3578096982208 C 518.6172766301606,997.8277444738738 532.4997929362473,949.2389374025704 574.1473418545074,914.5326466373537 Z" fill="url(#leaf7)" opacity="0.23" transform="rotate(18.0 574.1 983.9)"/>
    <path d="M 1584.6079298396837,784.5593043308679 C 1638.5568092854917,829.5167038690412 1656.539769100761,892.4570632224838 1584.6079298396837,964.3889024835612 C 1512.6760905786064,892.4570632224838 1530.6590503938758,829.5167038690412 1584.6079298396837,784.5593043308679 Z" fill="url(#leaf8)" opacity="0.29" transform="rotate(21.0 1584.6 874.5)"/>
    <path d="M 377.71542518809366,772.3466840363736 C 415.94331931802,804.2032624779788 428.68595069466204,848.8024722962261 377.71542518809366,899.7729978027945 C 326.7448996815253,848.8024722962261 339.48753105816735,804.2032624779788 377.71542518809366,772.3466840363736 Z" fill="url(#leaf9)" opacity="0.30" transform="rotate(60.8 377.7 836.1)"/>
    <path d="M 112.72142354742095,409.6192708477404 C 148.13531957772165,439.13085087299095 159.93995158782187,480.44706290834176 112.72142354742095,527.6655909487426 C 65.50289550702004,480.44706290834176 77.30752751712026,439.13085087299095 112.72142354742095,409.6192708477404 Z" fill="url(#leaf10)" opacity="0.33" transform="rotate(37.8 112.7 468.6)"/>
    <path d="M 863.2537587687076,921.8800959928794 C 910.8001276544138,961.5020700643013 926.6489172829826,1016.9728337642919 863.2537587687076,1080.3679922785668 C 799.8586002544326,1016.9728337642919 815.7073898830014,961.5020700643013 863.2537587687076,921.8800959928794 Z" fill="url(#leaf11)" opacity="0.39" transform="rotate(246.5 863.3 1001.1)"/>
    <path d="M 722.01369776323,336.34862510069325 C 769.5568180097112,375.96789197276087 785.4045247585382,431.4348655936555 722.01369776323,494.8256925889637 C 658.6228707679218,431.4348655936555 674.4705775167488,375.96789197276087 722.01369776323,336.34862510069325 Z" fill="url(#leaf12)" opacity="0.24" transform="rotate(336.5 722.0 415.6)"/>
    <path d="M 1160.034516003892,915.9049915749843 C 1197.9318811075213,947.4861291613422 1210.5643361420646,991.6997217822432 1160.034516003892,1042.2295419204158 C 1109.5046958657192,991.6997217822432 1122.1371509002624,947.4861291613422 1160.034516003892,915.9049915749843 Z" fill="url(#leaf13)" opacity="0.25" transform="rotate(14.6 1160.0 979.1)"/>
    <path d="M 386.9271862288132,112.28095750286278 C 416.4265092696625,136.86372670357053 426.2596169499456,171.27960358456144 386.9271862288132,210.61203430569387 C 347.59475550768076,171.27960358456144 357.42786318796385,136.86372670357053 386.9271862288132,112.28095750286278 Z" fill="url(#leaf14)" opacity="0.28" transform="rotate(172.0 386.9 161.4)"/>
    <path d="M 1785.572405684866,772.0011018929276 C 1814.672372514309,796.2510742507968 1824.3723614574567,830.2010355518137 1785.572405684866,869.0009913244044 C 1746.7724499122753,830.2010355518137 1756.472438855423,796.2510742507968 1785.572405684866,772.0011018929276 Z" fill="url(#leaf15)" opacity="0.25" transform="rotate(194.2 1785.6 820.5)"/>
    <path d="M 874.0970728590839,606.1202311056176 C 924.562268534455,648.1745608350934 941.3840004262454,707.0506224563597 874.0970728590839,774.3375500235212 C 806.8101452919225,707.0506224563597 823.6318771837128,648.1745608350934 874.0970728590839,606.1202311056176 Z" fill="url(#leaf16)" opacity="0.28" transform="rotate(173.1 874.1 690.2)"/>
    <path d="M 1755.6782843783506,18.41481666079389 C 1798.7580699824089,54.314637997509166 1813.117998517095,104.57438786891055 1755.6782843783506,162.014102007655 C 1698.2385702396061,104.57438786891055 1712.5984987742922,54.314637997509166 1755.6782843783506,18.41481666079389 Z" fill="url(#leaf17)" opacity="0.36" transform="rotate(251.2 1755.7 90.2)"/>
    <path d="M 359.28169748717215,683.1768794870163 C 392.4475921343166,710.8151250263033 403.5028903500314,749.5086687813052 359.28169748717215,793.7298616441644 C 315.0605046243129,749.5086687813052 326.1158028400277,710.8151250263033 359.28169748717215,683.1768794870163 Z" fill="url(#leaf18)" opacity="0.29" transform="rotate(169.4 359.3 738.5)"/>
    <path d="M 744.8931736944944,75.57392969792838 C 788.5596592401797,111.96266765266616 803.1151544220749,162.90690078929904 744.8931736944944,221.1288815168795 C 686.671192966914,162.90690078929904 701.2266881488091,111.96266765266616 744.8931736944944,75.57392969792838 Z" fill="url(#leaf19)" opacity="0.22" transform="rotate(187.3 744.9 148.4)"/>
    <path d="M 128.840225737766,204.7368203272312 C 169.85852648822998,238.9187376192845 183.53129340505134,286.7734218281592 128.840225737766,341.4644894954446 C 74.14915807048064,286.7734218281592 87.82192498730198,238.9187376192845 128.840225737766,204.7368203272312 Z" fill="url(#leaf0)" opacity="0.24" transform="rotate(242.3 128.8 273.1)"/>
    <path d="M 1311.8517244112136,810.4366072683772 C 1358.2131925153185,849.071164021798 1373.6670152166869,903.1595434765873 1311.8517244112136,964.9748342820606 C 1250.0364336057403,903.1595434765873 1265.4902563071087,849.071164021798 1311.8517244112136,810.4366072683772 Z" fill="url(#leaf1)" opacity="0.35" transform="rotate(235.1 1311.9 887.7)"/>
    <path d="M 569.3820813473426,536.5465510232173 C 619.7405154055259,578.5119127383699 636.526660091587,637.2634191395838 569.3820813473426,704.4079978838281 C 502.2375026030982,637.2634191395838 519.0236472891593,578.5119127383699 569.3820813473426,536.5465510232173 Z" fill="url(#leaf2)" opacity="0.34" transform="rotate(40.7 569.4 620.5)"/>
    <path d="M 1023.7316917223701,469.6935273967798 C 1057.22764872573,497.60682489957975 1068.39296772685,536.6854414034997 1023.7316917223701,581.3467174079796 C 979.0704157178902,536.6854414034997 990.2357347190101,497.60682489957975 1023.7316917223701,469.6935273967798 Z" fill="url(#leaf3)" opacity="0.22" transform="rotate(267.0 1023.7 525.5)"/>
    <path d="M 325.40888147032314,394.7150767670922 C 379.9532053126741,440.1686799690513 398.1346465934578,503.8037244517941 325.40888147032314,576.5294895749287 C 252.68311634718853,503.8037244517941 270.8645576279722,440.1686799690513 325.40888147032314,394.7150767670922 Z" fill="url(#leaf4)" opacity="0.35" transform="rotate(317.1 325.4 485.6)"/>
    <path d="M 1049.7249672223106,761.2577000567833 C 1095.4270059783662,799.3427323534962 1110.6610188970515,852.6617775688944 1049.7249672223106,913.5978292436353 C 988.7889155475698,852.6617775688944 1004.022928466255,799.3427323534962 1049.7249672223106,761.2577000567833 Z" fill="url(#leaf5)" opacity="0.29" transform="rotate(153.8 1049.7 837.4)"/>
    <path d="M 419.1052196639675,-28.896446516121912 C 467.6407891564735,11.549861394299754 483.81931232064215,68.17469246889009 419.1052196639675,132.88878512556477 C 354.3911270072928,68.17469246889009 370.5696501714615,11.549861394299754 419.1052196639675,-28.896446516121912 Z" fill="url(#leaf6)" opacity="0.28" transform="rotate(142.8 419.1 52.0)"/>
    <path d="M 773.605550198905,89.01036607283642 C 799.6634338388515,110.72526910612515 808.349395052167,141.1261333527294 773.605550198905,175.8699782059914 C 738.861705345643,141.1261333527294 747.5476665589586,110.72526910612515 773.605550198905,89.01036607283642 Z" fill="url(#leaf7)" opacity="0.27" transform="rotate(104.5 773.6 132.4)"/>
    <path d="M 761.4442911669623,743.3721273162399 C 804.8595210222634,779.5514855289907 819.3312643073638,830.202587026842 761.4442911669623,888.0895601672433 C 703.5573180265609,830.202587026842 718.0290613116613,779.5514855289907 761.4442911669623,743.3721273162399 Z" fill="url(#leaf8)" opacity="0.31" transform="rotate(42.4 761.4 815.7)"/>
    <path d="M 761.993009904079,867.0552455583202 C 787.0664435518112,887.949773598097 795.4242547677219,917.2021128537845 761.993009904079,950.6333577174273 C 728.5617650404362,917.2021128537845 736.9195762563469,887.949773598097 761.993009904079,867.0552455583202 Z" fill="url(#leaf9)" opacity="0.20" transform="rotate(289.3 762.0 908.8)"/>
    <path d="M 353.8285829067902,421.6790893769107 C 412.48979690518206,470.56343437557064 432.04353490464604,539.0015173736945 353.8285829067902,617.2164693715504 C 275.61363090893434,539.0015173736945 295.1673689083983,470.56343437557064 353.8285829067902,421.6790893769107 Z" fill="url(#leaf10)" opacity="0.34" transform="rotate(240.0 353.8 519.4)"/>
    <path d="M 1420.841328009317,15.207242283150606 C 1451.4164030231427,40.686471461338556 1461.6080946944178,76.35739231080169 1420.841328009317,117.1241589959024 C 1380.0745613242163,76.35739231080169 1390.2662529954914,40.686471461338556 1420.841328009317,15.207242283150606 Z" fill="url(#leaf11)" opacity="0.32" transform="rotate(163.1 1420.8 66.2)"/>
    <path d="M 526.7871459311857,377.06663983585906 C 578.2844029050973,419.9810206474521 595.4501552297345,480.0611537836823 526.7871459311857,548.7241630822311 C 458.1241366326369,480.0611537836823 475.2898889572741,419.9810206474521 526.7871459311857,377.06663983585906 Z" fill="url(#leaf12)" opacity="0.27" transform="rotate(5.9 526.8 462.9)"/>
    <path d="M 232.8140123010531,240.5783184689167 C 274.6509092660391,275.4423992730717 288.5965415877011,324.2521123988887 232.8140123010531,380.0346416855367 C 177.03148301440513,324.2521123988887 190.97711533606713,275.4423992730717 232.8140123010531,240.5783184689167 Z" fill="url(#leaf13)" opacity="0.39" transform="rotate(284.6 232.8 310.3)"/>
    <path d="M 113.86887495339988,382.97761119699953 C 151.72907490023772,414.5277778193644 164.34914154918368,458.69801109067527 113.86887495339988,509.17827768645907 C 63.38860835761608,458.69801109067527 76.00867500656204,414.5277778193644 113.86887495339988,382.97761119699953 Z" fill="url(#leaf14)" opacity="0.30" transform="rotate(334.6 113.9 446.1)"/>
    <path d="M 1444.0630189456176,13.221194822063126 C 1488.8108543580677,50.51105766577143 1503.726799495551,102.71686564696306 1444.0630189456176,162.38064619689635 C 1384.3992383956843,102.71686564696306 1399.3151835331676,50.51105766577143 1444.0630189456176,13.221194822063126 Z" fill="url(#leaf15)" opacity="0.35" transform="rotate(330.4 1444.1 87.8)"/>
    <path d="M 1735.397434176376,17.72089254364427 C 1769.0147339385353,45.735309012110406 1780.2205005259218,84.95549206796301 1735.397434176376,129.7785584175088 C 1690.5743678268302,84.95549206796301 1701.7801344142167,45.735309012110406 1735.397434176376,17.72089254364427 Z" fill="url(#leaf16)" opacity="0.30" transform="rotate(116.3 1735.4 73.7)"/>
    <path d="M 1790.1525635887353,973.9891148618178 C 1819.7579581886118,998.6602770283816 1829.6264230552374,1033.1999040615708 1790.1525635887353,1072.6737635280729 C 1750.6787041222333,1033.1999040615708 1760.5471689888589,998.6602770283816 1790.1525635887353,973.9891148618178 Z" fill="url(#leaf17)" opacity="0.28" transform="rotate(212.2 1790.2 1023.3)"/>
    <path d="M 328.34361499257176,158.73987904902867 C 376.7327929390681,199.06419400444227 392.8625189212335,255.5182349420213 328.34361499257176,320.03713887068307 C 263.82471106391,255.5182349420213 279.95443704607544,199.06419400444227 328.34361499257176,158.73987904902867 Z" fill="url(#leaf18)" opacity="0.36" transform="rotate(26.2 328.3 239.4)"/>
    <path d="M 946.2238233174048,921.0858655731207 C 1000.9362924297716,966.6795898334262 1019.1737821338937,1030.5108037978541 946.2238233174048,1103.4607626143431 C 873.2738645009159,1030.5108037978541 891.5113542050381,966.6795898334262 946.2238233174048,921.0858655731207 Z" fill="url(#leaf19)" opacity="0.37" transform="rotate(261.2 946.2 1012.3)"/>
    <path d="M 714.7862039941308,945.6526489787491 C 755.2155159182279,979.3437422488299 768.6919532262601,1026.511272826943 714.7862039941308,1080.4170220590725 C 660.8804547620015,1026.511272826943 674.3568920700337,979.3437422488299 714.7862039941308,945.6526489787491 Z" fill="url(#leaf0)" opacity="0.31" transform="rotate(5.5 714.8 1013.0)"/>
    <path d="M 1844.1352560204045,378.94006093182674 C 1881.3947103498479,409.98960620636285 1893.8145284596624,453.4589695907135 1844.1352560204045,503.1382420299713 C 1794.4559835811467,453.4589695907135 1806.8758016909612,409.98960620636285 1844.1352560204045,378.94006093182674 Z" fill="url(#leaf1)" opacity="0.36" transform="rotate(39.1 1844.1 441.0)"/>
    <path d="M 423.3699604657883,429.892099205651 C 475.19759656848646,473.08179595789943 492.4734752693858,533.5473714110473 423.3699604657883,602.6508862146447 C 354.26644566219085,533.5473714110473 371.5423243630902,473.08179595789943 423.3699604657883,429.892099205651 Z" fill="url(#leaf2)" opacity="0.36" transform="rotate(340.5 423.4 516.3)"/>
    <path d="M 272.2554961508499,232.71460657021385 C 319.56378973391855,272.13818455610436 335.3332209282747,327.3311937363511 272.2554961508499,390.4089185137759 C 209.1777713734251,327.3311937363511 224.9472025677813,272.13818455610436 272.2554961508499,232.71460657021385 Z" fill="url(#leaf3)" opacity="0.36" transform="rotate(304.6 272.3 311.6)"/>
    <path d="M 1030.7814619731107,926.9744035579555 C 1055.268534764258,947.3802975505782 1063.430892361307,975.9485491402501 1030.7814619731107,1008.5979795284464 C 998.1320315849143,975.9485491402501 1006.2943891819634,947.3802975505782 1030.7814619731107,926.9744035579555 Z" fill="url(#leaf4)" opacity="0.37" transform="rotate(146.0 1030.8 967.8)"/>
    <path d="M 1622.1891688881576,60.065851109254226 C 1681.166962791551,109.21401269541529 1700.8262274260153,178.02143891604078 1622.1891688881576,256.65849745389846 C 1543.5521103503,178.02143891604078 1563.2113749847642,109.21401269541529 1622.1891688881576,60.065851109254226 Z" fill="url(#leaf5)" opacity="0.36" transform="rotate(295.0 1622.2 158.4)"/>
    <path d="M 1561.4932849433926,129.15996252819076 C 1609.9857810655733,169.5703759633414 1626.1499464396336,226.14495477255235 1561.4932849433926,290.8016162687934 C 1496.8366234471516,226.14495477255235 1513.000788821212,169.5703759633414 1561.4932849433926,129.15996252819076 Z" fill="url(#leaf6)" opacity="0.25" transform="rotate(53.9 1561.5 210.0)"/>
    <path d="M 1190.8263431123712,816.4398285667867 C 1236.5072632285912,854.50726199697 1251.7342366006646,907.8016687992267 1190.8263431123712,968.7095622875202 C 1129.9184496240778,907.8016687992267 1145.1454229961512,854.50726199697 1190.8263431123712,816.4398285667867 Z" fill="url(#leaf7)" opacity="0.36" transform="rotate(144.8 1190.8 892.6)"/>
    <path d="M 1855.7491028067739,394.75174126946064 C 1899.5168769864097,431.2248864191572 1914.1061350462883,482.2872896287323 1855.7491028067739,540.6443218682468 C 1797.3920705672595,482.2872896287323 1811.981328627138,431.2248864191572 1855.7491028067739,394.75174126946064 Z" fill="url(#leaf8)" opacity="0.35" transform="rotate(196.0 1855.7 467.7)"/>
    <path d="M 316.94121119531786,503.18956297999244 C 343.18825691042184,525.0621010759124 351.9372721487898,555.6836544102003 316.94121119531786,590.6797153636724 C 281.9451502418459,555.6836544102003 290.6941654802139,525.0621010759124 316.94121119531786,503.18956297999244 Z" fill="url(#leaf9)" opacity="0.30" transform="rotate(150.1 316.9 546.9)"/>
    <path d="M 755.9763759646712,802.4518654638058 C 783.704345315391,825.5585065894056 792.947001765631,857.9078041652454 755.9763759646712,894.8784299662051 C 719.0057501637115,857.9078041652454 728.2484066139514,825.5585065894056 755.9763759646712,802.4518654638058 Z" fill="url(#leaf10)" opacity="0.34" transform="rotate(274.7 756.0 848.7)"/>
    <path d="M 444.17457607146287,531.7617619314511 C 498.71146069926846,577.2091657879557 516.8904222418703,640.8355311870623 444.17457607146287,713.5513773574697 C 371.4587299010554,640.8355311870623 389.6376914436573,577.2091657879557 444.17457607146287,531.7617619314511 Z" fill="url(#leaf11)" opacity="0.32" transform="rotate(220.9 444.2 622.7)"/>
    <path d="M 1696.4397243663589,576.6006974038037 C 1730.8583424775768,605.282879163152 1742.331215181316,645.4379336262397 1696.4397243663589,691.329424441197 C 1650.5482335514016,645.4379336262397 1662.021106255141,605.282879163152 1696.4397243663589,576.6006974038037 Z" fill="url(#leaf12)" opacity="0.29" transform="rotate(36.4 1696.4 634.0)"/>
    <path d="M 888.2764273134744,526.5515844667424 C 942.2149724339458,571.5003720671353 960.1944874741031,634.4286747076853 888.2764273134744,706.346734868314 C 816.3583671528457,634.4286747076853 834.337882193003,571.5003720671353 888.2764273134744,526.5515844667424 Z" fill="url(#leaf13)" opacity="0.25" transform="rotate(125.9 888.3 616.4)"/>
    <path d="M 705.9538382744627,115.99916652709823 C 753.9540315584337,155.99932759707406 769.954095986424,211.99955309504023 705.9538382744627,275.99981080700155 C 641.9535805625013,211.99955309504023 657.9536449904916,155.99932759707406 705.9538382744627,115.99916652709823 Z" fill="url(#leaf14)" opacity="0.39" transform="rotate(13.2 706.0 196.0)"/>
    <path d="M 1732.4155419789608,738.3633923321362 C 1780.1971364643796,778.1813877366518 1796.1243346261858,833.9265813029737 1732.4155419789608,897.6353739501986 C 1668.7067493317359,833.9265813029737 1684.633947493542,778.1813877366518 1732.4155419789608,738.3633923321362 Z" fill="url(#leaf15)" opacity="0.33" transform="rotate(115.3 1732.4 818.0)"/>
    <path d="M 1768.3482551622687,246.5811613172962 C 1813.0635364791767,283.84389574805283 1827.9686302514792,336.0117239511121 1768.3482551622687,395.6320990403227 C 1708.7278800730583,336.0117239511121 1723.6329738453608,283.84389574805283 1768.3482551622687,246.5811613172962 Z" fill="url(#leaf16)" opacity="0.24" transform="rotate(273.6 1768.3 321.1)"/>
    <path d="M 1242.0494290818194,406.32049244579287 C 1285.7629441957831,442.7484217074292 1300.3341159004376,493.7475226737201 1242.0494290818194,552.0322094923382 C 1183.7647422632012,493.7475226737201 1198.3359139678557,442.7484217074292 1242.0494290818194,406.32049244579287 Z" fill="url(#leaf17)" opacity="0.26" transform="rotate(36.2 1242.0 479.2)"/>
    <path d="M 1473.1476979949555,800.5972666627116 C 1528.8899238389101,847.0491215326739 1547.470665786895,912.0817183506211 1473.1476979949555,986.4046861425608 C 1398.8247302030159,912.0817183506211 1417.4054721510008,847.0491215326739 1473.1476979949555,800.5972666627116 Z" fill="url(#leaf18)" opacity="0.38" transform="rotate(244.7 1473.1 893.5)"/>
    <path d="M 1751.2867650565354,304.57793887557466 C 1799.3899609458772,344.6639354500262 1815.424359575658,400.7843306542584 1751.2867650565354,464.9219251733808 C 1687.1491705374128,400.7843306542584 1703.1835691671936,344.6639354500262 1751.2867650565354,304.57793887557466 Z" fill="url(#leaf19)" opacity="0.39" transform="rotate(265.9 1751.3 384.7)"/>
    <path d="M 1722.2159708037298,142.76637472272316 C 1751.967348243429,167.55918925580568 1761.884474056662,202.26912960212124 1722.2159708037298,241.9376328550533 C 1682.5474675507976,202.26912960212124 1692.4645933640306,167.55918925580568 1722.2159708037298,142.76637472272316 Z" fill="url(#leaf0)" opacity="0.25" transform="rotate(318.4 1722.2 192.4)"/>
    <path d="M 1263.741631066221,59.38378027186522 C 1296.9076555452957,87.02213400442741 1307.9629970383205,125.71582923001449 1263.741631066221,169.937195202114 C 1219.5202650941217,125.71582923001449 1230.5756065871465,87.02213400442741 1263.741631066221,59.38378027186522 Z" fill="url(#leaf1)" opacity="0.24" transform="rotate(209.4 1263.7 114.7)"/>
    <path d="M 1493.5984235118624,660.587300604907 C 1519.688808185803,682.3292878331908 1528.3856030771165,712.7680699527882 1493.5984235118624,747.5552495180424 C 1458.8112439466083,712.7680699527882 1467.5080388379217,682.3292878331908 1493.5984235118624,660.587300604907 Z" fill="url(#leaf2)" opacity="0.25" transform="rotate(113.1 1493.6 704.1)"/>
    <path d="M 720.7390663798001,823.9357499491819 C 779.5904221052654,872.9785463870696 799.2075406804205,941.6384614001125 720.7390663798001,1020.106935700733 C 642.2705920791797,941.6384614001125 661.8877106543348,872.9785463870696 720.7390663798001,823.9357499491819 Z" fill="url(#leaf3)" opacity="0.35" transform="rotate(2.2 720.7 922.0)"/>
    <path d="M 783.2391968766044,583.7150876408369 C 812.4086689946137,608.0229810725114 822.1318263672835,642.0540318768556 783.2391968766044,680.9466613675346 C 744.3465673859254,642.0540318768556 754.0697247585952,608.0229810725114 783.2391968766044,583.7150876408369 Z" fill="url(#leaf4)" opacity="0.28" transform="rotate(131.4 783.2 632.3)"/>
    <path d="M 238.35627053515935,809.4538307250903 C 278.2546926668611,842.7025158348417 291.5541667107617,889.2506749884938 238.35627053515935,942.4485711640962 C 185.15837435955703,889.2506749884938 198.4578484034576,842.7025158348417 238.35627053515935,809.4538307250903 Z" fill="url(#leaf5)" opacity="0.27" transform="rotate(90.1 238.4 876.0)"/>
    <path d="M 1756.7106846983925,542.0173634655804 C 1792.0557578961807,571.4715911304038 1803.83744896211,612.7075098611567 1756.7106846983925,659.8342741248742 C 1709.5839204346748,612.7075098611567 1721.3656115006042,571.4715911304038 1756.7106846983925,542.0173634655804 Z" fill="url(#leaf6)" opacity="0.35" transform="rotate(341.6 1756.7 600.9)"/>
    <path d="M 817.5268645751253,235.4710907731903 C 875.8787046407326,284.0976241611964 895.3293179959351,352.17477090440497 817.5268645751253,429.9772243252147 C 739.7244111543155,352.17477090440497 759.1750245095179,284.0976241611964 817.5268645751253,235.4710907731903 Z" fill="url(#leaf7)" opacity="0.34" transform="rotate(167.6 817.5 332.7)"/>
    <path d="M 1364.7691489633496,658.5172300573723 C 1410.091264460314,696.285659638176 1425.1986362926355,749.1614610513012 1364.7691489633496,809.5909483805871 C 1304.3396616340638,749.1614610513012 1319.4470334663852,696.285659638176 1364.7691489633496,658.5172300573723 Z" fill="url(#leaf8)" opacity="0.27" transform="rotate(183.0 1364.8 734.1)"/>
    <path d="M 1244.8528577711197,172.76881073040335 C 1273.5454464883749,196.67930132811603 1283.1096427274601,230.1539881649138 1244.8528577711197,268.4107731212541 C 1206.5960728147793,230.1539881649138 1216.1602690538646,196.67930132811603 1244.8528577711197,172.76881073040335 Z" fill="url(#leaf9)" opacity="0.25" transform="rotate(344.3 1244.9 220.6)"/>
    <path d="M 1019.3483253050679,234.67892406712951 C 1050.026393005409,260.24398048408045 1060.2524155721894,296.0350594678118 1019.3483253050679,336.93914973493327 C 978.4442350379463,296.0350594678118 988.6702576047268,260.24398048408045 1019.3483253050679,234.67892406712951 Z" fill="url(#leaf10)" opacity="0.29" transform="rotate(245.5 1019.3 285.8)"/>
    <path d="M 658.4157625826637,426.6946292823163 C 699.798964776598,461.1806311105949 713.5933655079094,509.461033670185 658.4157625826637,564.6386365954307 C 603.2381596574179,509.461033670185 617.0325603887293,461.1806311105949 658.4157625826637,426.6946292823163 Z" fill="url(#leaf11)" opacity="0.22" transform="rotate(294.6 658.4 495.7)"/>
    <path d="M 1136.221396418988,647.2862630188308 C 1188.723987740611,691.0384224535167 1206.2248515144852,752.2914456620767 1136.221396418988,822.2949007575739 C 1066.2179413234908,752.2914456620767 1083.718805097365,691.0384224535167 1136.221396418988,647.2862630188308 Z" fill="url(#leaf12)" opacity="0.40" transform="rotate(43.3 1136.2 734.8)"/>
    <path d="M 1679.8595563201743,452.1095630187277 C 1714.6708474794093,481.11897231809024 1726.2746111991544,521.7321453371977 1679.8595563201743,568.1472002161777 C 1633.4445014411942,521.7321453371977 1645.0482651609393,481.11897231809024 1679.8595563201743,452.1095630187277 Z" fill="url(#leaf13)" opacity="0.31" transform="rotate(125.7 1679.9 510.1)"/>
    <path d="M 869.2568311583791,747.2647989844171 C 910.8877585754644,781.9572384986549 924.7647343811595,830.5266538185878 869.2568311583791,886.0345570413682 C 813.7489279355987,830.5266538185878 827.6259037412938,781.9572384986549 869.2568311583791,747.2647989844171 Z" fill="url(#leaf14)" opacity="0.26" transform="rotate(268.8 869.3 816.6)"/>
    <path d="M 1211.9690355532457,370.70487155071885 C 1266.2908004492685,415.9730089640713 1284.3980554146096,479.34840134276476 1211.9690355532457,551.7774212041287 C 1139.5400156918818,479.34840134276476 1157.6472706572229,415.9730089640713 1211.9690355532457,370.70487155071885 Z" fill="url(#leaf15)" opacity="0.25" transform="rotate(311.2 1212.0 461.2)"/>
    <path d="M 721.2541561216686,312.7867740539984 C 746.1452526846803,333.52935452317473 754.4422848723508,362.5689671800216 721.2541561216686,395.75709593070377 C 688.0660273709865,362.5689671800216 696.363059558657,333.52935452317473 721.2541561216686,312.7867740539984 Z" fill="url(#leaf16)" opacity="0.30" transform="rotate(53.6 721.3 354.3)"/>
    <path d="M 1554.3627173468628,40.843187824717404 C 1612.1910536335815,89.0334680636496 1631.4671657291544,156.49986039815465 1554.3627173468628,233.60430878044616 C 1477.2582689645712,156.49986039815465 1496.5343810601441,89.0334680636496 1554.3627173468628,40.843187824717404 Z" fill="url(#leaf17)" opacity="0.35" transform="rotate(102.7 1554.4 137.2)"/>
    <path d="M 1259.4356242532647,643.4493673197419 C 1310.6662714074935,686.1415732815992 1327.7431537922364,745.9106616281995 1259.4356242532647,814.2181911671712 C 1191.128094714293,745.9106616281995 1208.204977099036,686.1415732815992 1259.4356242532647,643.4493673197419 Z" fill="url(#leaf18)" opacity="0.30" transform="rotate(77.0 1259.4 728.8)"/>
    <path d="M 1089.2294709327614,18.9718627861332 C 1142.642627785959,63.4828268304644 1160.4470134036912,125.79817649252807 1089.2294709327614,197.01571896345797 C 1018.0119284618315,125.79817649252807 1035.8163140795639,63.4828268304644 1089.2294709327614,18.9718627861332 Z" fill="url(#leaf19)" opacity="0.29" transform="rotate(190.4 1089.2 108.0)"/>
    <path d="M 1104.2932546000816,673.0100761333894 C 1149.7224533688932,710.8677417740658 1164.8655196251639,763.8684736710128 1104.2932546000816,824.4407386960951 C 1043.7209895749993,763.8684736710128 1058.86405583127,710.8677417740658 1104.2932546000816,673.0100761333894 Z" fill="url(#leaf0)" opacity="0.34" transform="rotate(148.4 1104.3 748.7)"/>
    <path d="M 1529.1152791181257,519.9883996314479 C 1579.5381280637976,562.0074404195078 1596.3457443790217,620.8340975227917 1529.1152791181257,688.0645627836875 C 1461.8848138572298,620.8340975227917 1478.692430172454,562.0074404195078 1529.1152791181257,519.9883996314479 Z" fill="url(#leaf1)" opacity="0.28" transform="rotate(303.4 1529.1 604.0)"/>
    <path d="M 1590.5927696557305,188.79130550968338 C 1625.665750751352,218.01878975603478 1637.3567444498929,258.9372677009267 1590.5927696557305,305.701242495089 C 1543.8287948615682,258.9372677009267 1555.519788560109,218.01878975603478 1590.5927696557305,188.79130550968338 Z" fill="url(#leaf2)" opacity="0.29" transform="rotate(0.5 1590.6 247.2)"/>
    <path d="M 835.9385002019715,657.8206491265685 C 892.0202574640823,704.5554468449941 910.7141765514526,769.9841636507902 835.9385002019715,844.7598400002712 C 761.1628238524903,769.9841636507902 779.8567429398606,704.5554468449941 835.9385002019715,657.8206491265685 Z" fill="url(#leaf3)" opacity="0.30" transform="rotate(296.5 835.9 751.3)"/>
    <path d="M 233.57600349625815,907.700996673727 C 288.65210654848875,953.5977492172525 307.010807565899,1017.8532027781882 233.57600349625815,1091.288006847829 C 160.14119942661736,1017.8532027781882 178.49990044402756,953.5977492172525 233.57600349625815,907.700996673727 Z" fill="url(#leaf4)" opacity="0.36" transform="rotate(167.3 233.6 999.5)"/>
    <path d="M 530.0602773757832,19.76721480932912 C 579.9133608227554,61.31145101513928 596.5310553050795,119.47338170327352 530.0602773757832,185.94415963256978 C 463.58949944648697,119.47338170327352 480.207193928811,61.31145101513928 530.0602773757832,19.76721480932912 Z" fill="url(#leaf5)" opacity="0.38" transform="rotate(301.9 530.1 102.9)"/>
    <path d="M 146.3218328603889,-37.478933556005074 C 205.05023358308782,11.46140037957737 224.62636715732083,79.9778678893928 146.3218328603889,158.2824021863247 C 68.01729856345698,79.9778678893928 87.59343213768997,11.46140037957737 146.3218328603889,-37.478933556005074 Z" fill="url(#leaf6)" opacity="0.34" transform="rotate(134.8 146.3 60.4)"/>
    <path d="M 962.0300903815987,234.84102277733973 C 1010.5904026300502,275.3079496510493 1026.777173379534,331.96164727424264 962.0300903815987,396.70873027217795 C 897.2830073836634,331.96164727424264 913.4697781331472,275.3079496510493 962.0300903815987,234.84102277733973 Z" fill="url(#leaf7)" opacity="0.22" transform="rotate(358.6 962.0 315.8)"/>
    <path d="M 292.71034366487106,237.80476684475707 C 321.42322282785165,261.7321661472409 330.9941825488452,295.23052517071824 292.71034366487106,333.51436405469235 C 254.42650478089695,295.23052517071824 263.9974645018905,261.7321661472409 292.71034366487106,237.80476684475707 Z" fill="url(#leaf8)" opacity="0.28" transform="rotate(49.3 292.7 285.7)"/>
    <path d="M 193.27950870321507,138.3001092768314 C 221.21791627954858,161.58211559044264 230.53071880499306,194.1769244294984 193.27950870321507,231.42813453127638 C 156.0282986014371,194.1769244294984 165.34110112688157,161.58211559044264 193.27950870321507,138.3001092768314 Z" fill="url(#leaf9)" opacity="0.29" transform="rotate(340.8 193.3 184.9)"/>
    <path d="M 1032.1952973500295,17.800310374955643 C 1078.8889453324084,56.71168369360484 1094.4534946598683,111.18760633971371 1032.1952973500295,173.44580364955243 C 969.9371000401908,111.18760633971371 985.5016493676504,56.71168369360484 1032.1952973500295,17.800310374955643 Z" fill="url(#leaf10)" opacity="0.31" transform="rotate(159.7 1032.2 95.6)"/>
    <path d="M 931.3721292812876,72.93871543727766 C 974.8522283658625,109.17213134109014 989.3455947273875,159.89891360642758 931.3721292812876,217.87237905252755 C 873.3986638351877,159.89891360642758 887.8920301967127,109.17213134109014 931.3721292812876,72.93871543727766 Z" fill="url(#leaf11)" opacity="0.28" transform="rotate(39.8 931.4 145.4)"/>
    <path d="M 1444.1226625637446,787.6709839388309 C 1498.116190775814,832.6655907822219 1516.1140335131702,895.6580403629694 1444.1226625637446,967.6494113123949 C 1372.131291614319,895.6580403629694 1390.1291343516752,832.6655907822219 1444.1226625637446,787.6709839388309 Z" fill="url(#leaf12)" opacity="0.31" transform="rotate(232.0 1444.1 877.7)"/>
    <path d="M 294.7262866543305,343.8875737026632 C 329.05643558062104,372.49603114123863 340.49981855605125,412.5478715552442 294.7262866543305,458.32140345696496 C 248.95275475260982,412.5478715552442 260.39613772804,372.49603114123863 294.7262866543305,343.8875737026632 Z" fill="url(#leaf13)" opacity="0.24" transform="rotate(236.6 294.7 401.1)"/>
    <path d="M 418.7942843908659,-30.35140843719732 C 467.23272703024577,10.013960428952572 483.37887457670575,66.52547684156242 418.7942843908659,131.11006702740224 C 354.2096942050261,66.52547684156242 370.3558417514861,10.013960428952572 418.7942843908659,-30.35140843719732 Z" fill="url(#leaf14)" opacity="0.21" transform="rotate(195.7 418.8 50.4)"/>
    <path d="M 305.8656377216636,241.66921588349567 C 350.0012404508632,278.44888482449534 364.71310802726305,329.9404213418949 305.8656377216636,388.78789164749435 C 247.0181674160641,329.9404213418949 261.73003499246397,278.44888482449534 305.8656377216636,241.66921588349567 Z" fill="url(#leaf15)" opacity="0.34" transform="rotate(153.2 305.9 315.2)"/>
    <path d="M 1473.6393571310316,812.0699548043594 C 1527.0934992045138,856.615073198928 1544.9115465623413,918.9782389513241 1473.6393571310316,990.2504283826338 C 1402.367167699722,918.9782389513241 1420.1852150575494,856.615073198928 1473.6393571310316,812.0699548043594 Z" fill="url(#leaf16)" opacity="0.33" transform="rotate(282.9 1473.6 901.2)"/>
    <path d="M 1561.351614286923,697.8207197446117 C 1586.5645219169387,718.831476102958 1594.9688244602771,748.2465350046429 1561.351614286923,781.863745177997 C 1527.7344041135689,748.2465350046429 1536.1387066569073,718.831476102958 1561.351614286923,697.8207197446117 Z" fill="url(#leaf17)" opacity="0.27" transform="rotate(95.7 1561.4 739.8)"/>
    <path d="M 725.8861902091857,798.0515161036062 C 770.6708476079866,835.3720639359403 785.5990667409202,887.6208309012081 725.8861902091857,947.3337074329427 C 666.1733136774511,887.6208309012081 681.1015328103847,835.3720639359403 725.8861902091857,798.0515161036062 Z" fill="url(#leaf18)" opacity="0.35" transform="rotate(102.5 725.9 872.7)"/>
    <path d="M 1342.666745272739,515.1655213645139 C 1373.4289165495372,540.8006640951792 1383.6829736418033,576.6898639181104 1342.666745272739,617.7060922871748 C 1301.6505169036748,576.6898639181104 1311.9045739959408,540.8006640951792 1342.666745272739,515.1655213645139 Z" fill="url(#leaf19)" opacity="0.21" transform="rotate(193.3 1342.7 566.4)"/>
    <path d="M 370.7565536267719,169.16033564594304 C 407.19226063261203,199.5234248174765 419.3374963012254,242.0317496576233 370.7565536267719,290.6126923320768 C 322.1756109523184,242.0317496576233 334.3208466209318,199.5234248174765 370.7565536267719,169.16033564594304 Z" fill="url(#leaf0)" opacity="0.27" transform="rotate(305.3 370.8 229.9)"/>
    <path d="M 661.9656960115545,633.2777093201262 C 696.5852275692274,662.1273189515204 708.1250714217852,702.516772435472 661.9656960115545,748.6761478457026 C 615.8063206013239,702.516772435472 627.3461644538817,662.1273189515204 661.9656960115545,633.2777093201262 Z" fill="url(#leaf1)" opacity="0.28" transform="rotate(227.5 662.0 691.0)"/>
    <path d="M 1668.8095308486904,670.9425640003371 C 1700.375512976794,697.24754910709 1710.8975070194952,734.0745282565441 1668.8095308486904,776.1625044273487 C 1626.7215546778857,734.0745282565441 1637.243548720587,697.24754910709 1668.8095308486904,670.9425640003371 Z" fill="url(#leaf2)" opacity="0.25" transform="rotate(113.8 1668.8 723.6)"/>
    <path d="M 235.17604736376052,809.9740546986405 C 294.43325027306963,859.3550571230649 314.1856512428393,928.4884605172588 235.17604736376052,1007.4980643963376 C 156.1664434846817,928.4884605172588 175.9188444544514,859.3550571230649 235.17604736376052,809.9740546986405 Z" fill="url(#leaf3)" opacity="0.33" transform="rotate(97.3 235.2 908.7)"/>
    <path d="M 866.8140644853695,434.2333646803969 C 921.4687244450106,479.77891464676446 939.6869444315577,543.5426845996791 866.8140644853695,616.4155645458671 C 793.9411845391813,543.5426845996791 812.1594045257284,479.77891464676446 866.8140644853695,434.2333646803969 Z" fill="url(#leaf4)" opacity="0.39" transform="rotate(46.2 866.8 525.3)"/>
    <path d="M 1081.0345924738108,179.88977743446412 C 1113.2933945868679,206.77211252867832 1124.0463286245536,244.40738166057815 1081.0345924738108,287.41911781132086 C 1038.022856323068,244.40738166057815 1048.7757903607537,206.77211252867832 1081.0345924738108,179.88977743446412 Z" fill="url(#leaf5)" opacity="0.37" transform="rotate(109.2 1081.0 233.7)"/>
    <path d="M 225.00191455263302,167.7484172797102 C 269.98777275968246,205.2366324522514 284.983058828699,257.7201336938091 225.00191455263302,317.70127796987504 C 165.02077027656708,257.7201336938091 180.01605634558356,205.2366324522514 225.00191455263302,167.7484172797102 Z" fill="url(#leaf6)" opacity="0.30" transform="rotate(1.4 225.0 242.7)"/>
    <path d="M 1706.9219199095123,323.82531486706785 C 1747.1534911498472,357.3516242340137 1760.5640148966256,404.28845734773785 1706.9219199095123,457.9305523348512 C 1653.279824922399,404.28845734773785 1666.6903486691774,357.3516242340137 1706.9219199095123,323.82531486706785 Z" fill="url(#leaf7)" opacity="0.21" transform="rotate(310.2 1706.9 390.9)"/>
    <path d="M 1364.7505496291324,332.72909456401305 C 1418.7334005482705,377.71480366329484 1436.7276841879832,440.69479640228934 1364.7505496291324,512.6719309611402 C 1292.7734150702815,440.69479640228934 1310.7676987099942,377.71480366329484 1364.7505496291324,332.72909456401305 Z" fill="url(#leaf8)" opacity="0.40" transform="rotate(140.8 1364.8 422.7)"/>
    <path d="M 263.39519689335236,419.0090952029376 C 311.321467573319,458.94765410290984 327.2968911333079,514.8616365628709 263.39519689335236,578.7633308028264 C 199.49350265339686,514.8616365628709 215.46892621338574,458.94765410290984 263.39519689335236,419.0090952029376 Z" fill="url(#leaf9)" opacity="0.33" transform="rotate(159.5 263.4 498.9)"/>
    <path d="M 1687.9142284266468,949.104988543496 C 1714.2479697255249,971.0497729592279 1723.0258834918177,1001.7724711412524 1687.9142284266468,1036.8841262064232 C 1652.8025733614759,1001.7724711412524 1661.5804871277687,971.0497729592279 1687.9142284266468,949.104988543496 Z" fill="url(#leaf10)" opacity="0.21" transform="rotate(220.2 1687.9 993.0)"/>
    <path d="M 574.069982116332,945.5474776895462 C 607.501018208278,973.4066744328345 618.6446969055934,1012.4095498734382 574.069982116332,1056.9842646626996 C 529.4952673270706,1012.4095498734382 540.638946024386,973.4066744328345 574.069982116332,945.5474776895462 Z" fill="url(#leaf11)" opacity="0.39" transform="rotate(149.8 574.1 1001.3)"/>
    <path d="M 326.2629118958239,579.6057825198602 C 369.215760507819,615.3998230298562 383.5333767118174,665.5114797438505 326.2629118958239,722.7819445598441 C 268.99244707983036,665.5114797438505 283.31006328382875,615.3998230298562 326.2629118958239,579.6057825198602 Z" fill="url(#leaf12)" opacity="0.22" transform="rotate(7.0 326.3 651.2)"/>
    <path d="M 1226.894669761491,513.0673376113175 C 1270.907977424117,549.745093996839 1285.5790799783256,601.0939529365692 1226.894669761491,659.7783631534037 C 1168.2102595446565,601.0939529365692 1182.881362098865,549.745093996839 1226.894669761491,513.0673376113175 Z" fill="url(#leaf13)" opacity="0.25" transform="rotate(135.7 1226.9 586.4)"/>
    <path d="M 1798.4546479051787,-17.33501058293531 C 1839.280663884412,16.68666939975911 1852.8893358774899,64.31702137553131 1798.4546479051787,118.75170934784238 C 1744.0199599328676,64.31702137553131 1757.6286319259455,16.68666939975911 1798.4546479051787,-17.33501058293531 Z" fill="url(#leaf14)" opacity="0.39" transform="rotate(351.2 1798.5 50.7)"/>
    <path d="M 134.0906612717333,640.3900912242116 C 190.82111750667795,687.6654714199988 209.73126958499284,753.8510036941009 134.0906612717333,829.4916120073603 C 58.45005295847376,753.8510036941009 77.36020503678864,687.6654714199988 134.0906612717333,640.3900912242116 Z" fill="url(#leaf15)" opacity="0.27" transform="rotate(122.5 134.1 734.9)"/>
    <path d="M 1154.7314888164012,634.3266451249865 C 1212.903908020845,682.8036611286897 1232.2947144223263,750.6714835338742 1154.7314888164012,828.2347091397992 C 1077.1682632104762,750.6714835338742 1096.5590696119575,682.8036611286897 1154.7314888164012,634.3266451249865 Z" fill="url(#leaf16)" opacity="0.32" transform="rotate(355.0 1154.7 731.3)"/>
    <path d="M 831.736338782811,460.89419550097153 C 878.7364312817441,500.06093925008247 894.4031287813884,554.8943804988377 831.736338782811,617.5611704974151 C 769.0695487842336,554.8943804988377 784.7362462838779,500.06093925008247 831.736338782811,460.89419550097153 Z" fill="url(#leaf17)" opacity="0.22" transform="rotate(326.8 831.7 539.2)"/>
    <path d="M 1088.5556034747963,551.3231649817766 C 1120.9635139377485,578.3297570342369 1131.7661507587327,616.1389859076811 1088.5556034747963,659.3495331916175 C 1045.3450561908599,616.1389859076811 1056.147693011844,578.3297570342369 1088.5556034747963,551.3231649817766 Z" fill="url(#leaf18)" opacity="0.35" transform="rotate(74.3 1088.6 605.3)"/>
    <path d="M 1008.9575563165143,601.4044973430509 C 1067.9776669025491,650.5879228314134 1087.6510370978942,719.4447185151207 1008.9575563165143,798.1381992965005 C 930.2640755351346,719.4447185151207 949.9374457304795,650.5879228314134 1008.9575563165143,601.4044973430509 Z" fill="url(#leaf19)" opacity="0.25" transform="rotate(245.7 1009.0 699.8)"/>
    <path d="M 1550.9911764981316,869.9935366157675 C 1609.4979933890293,918.7492173581822 1629.0002656859951,987.007170397563 1550.9911764981316,1065.0162595854267 C 1472.982087310268,987.007170397563 1492.484359607234,918.7492173581822 1550.9911764981316,869.9935366157675 Z" fill="url(#leaf0)" opacity="0.25" transform="rotate(34.1 1551.0 967.5)"/>
    <path d="M 172.007893841159,725.5654703959253 C 213.9426825469202,760.5111276507264 227.9209454488406,809.4350478074477 172.007893841159,865.3480994151294 C 116.09484223347738,809.4350478074477 130.07310513539778,760.5111276507264 172.007893841159,725.5654703959253 Z" fill="url(#leaf1)" opacity="0.32" transform="rotate(178.4 172.0 795.5)"/>
    <path d="M 249.47795683800965,624.1659449529176 C 277.2489352068144,647.3084269269216 286.505927996416,679.7079016905271 249.47795683800965,716.7358728489336 C 212.4499856796033,679.7079016905271 221.70697846920487,647.3084269269216 249.47795683800965,624.1659449529176 Z" fill="url(#leaf2)" opacity="0.32" transform="rotate(304.4 249.5 670.5)"/>
    <path d="M 166.43947578973217,767.121140494089 C 222.72895778775455,814.0290421591076 241.492118453762,879.7001044901338 166.43947578973217,954.7527471541636 C 91.38683312570234,879.7001044901338 110.1499937917098,814.0290421591076 166.43947578973217,767.121140494089 Z" fill="url(#leaf3)" opacity="0.27" transform="rotate(54.3 166.4 860.9)"/>
    <path d="M 1550.866045142497,869.4757350847729 C 1582.6280772732484,895.9440951937323 1593.2154213168321,932.9997993462757 1550.866045142497,975.349175520611 C 1508.5166689681616,932.9997993462757 1519.1040130117453,895.9440951937323 1550.866045142497,869.4757350847729 Z" fill="url(#leaf4)" opacity="0.37" transform="rotate(114.5 1550.9 922.4)"/>
    <path d="M 1246.9783024665899,70.64120318083087 C 1297.6877702795955,112.89909302500214 1314.5909262172638,172.06013880684193 1246.9783024665899,239.67276255751597 C 1179.365678715916,172.06013880684193 1196.2688346535842,112.89909302500214 1246.9783024665899,70.64120318083087 Z" fill="url(#leaf5)" opacity="0.30" transform="rotate(73.4 1247.0 155.2)"/>
    <path d="M 996.8011373008013,812.7545601714128 C 1025.6920102557858,836.8302876339 1035.3223012407807,870.536306081382 996.8011373008013,909.0574700213615 C 958.2799733608218,870.536306081382 967.9102643458167,836.8302876339 996.8011373008013,812.7545601714128 Z" fill="url(#leaf6)" opacity="0.32" transform="rotate(170.7 996.8 860.9)"/>
    <path d="M 1089.5247298867182,966.0063906565235 C 1122.9926250068895,993.8963032566662 1134.1485900469465,1032.9421808968661 1089.5247298867182,1077.5660410570945 C 1044.9008697264899,1032.9421808968661 1056.056834766547,993.8963032566662 1089.5247298867182,966.0063906565235 Z" fill="url(#leaf7)" opacity="0.20" transform="rotate(145.6 1089.5 1021.8)"/>
    <path d="M 1738.049576491848,50.15392081627624 C 1768.0806156172466,75.17978675410832 1778.0909619923793,110.21599906707323 1738.049576491848,150.25738456760456 C 1698.0081909913167,110.21599906707323 1708.0185373664494,75.17978675410832 1738.049576491848,50.15392081627624 Z" fill="url(#leaf8)" opacity="0.34" transform="rotate(230.6 1738.0 100.2)"/>
    <path d="M 1407.5869689270219,569.9930845550326 C 1452.4205771503462,607.3544247411361 1467.3651132247876,659.6603010016811 1407.5869689270219,719.4384452994467 C 1347.8088246292562,659.6603010016811 1362.7533607036976,607.3544247411361 1407.5869689270219,569.9930845550326 Z" fill="url(#leaf9)" opacity="0.36" transform="rotate(129.6 1407.6 644.7)"/>
    <path d="M 777.3953200539556,530.09674087223 C 806.8552278938062,554.6466640721055 816.6751971737564,589.0165565519312 777.3953200539556,628.296433671732 C 738.1154429341549,589.0165565519312 747.9354122141051,554.6466640721055 777.3953200539556,530.09674087223 Z" fill="url(#leaf10)" opacity="0.21" transform="rotate(354.0 777.4 579.2)"/>
    <path d="M 522.1513928511788,327.72813664291033 C 560.4259771698984,359.6236235751766 573.1841719428048,404.2773052803494 522.1513928511788,455.3100843719755 C 471.1186137595528,404.2773052803494 483.8768085324593,359.6236235751766 522.1513928511788,327.72813664291033 Z" fill="url(#leaf11)" opacity="0.33" transform="rotate(114.4 522.2 391.5)"/>
    <path d="M 259.4393074222728,642.6013906054253 C 305.662934671787,681.1210799800206 321.0708104216251,735.0486451044538 259.4393074222728,796.6801481038061 C 197.8078044229205,735.0486451044538 213.2156801727586,681.1210799800206 259.4393074222728,642.6013906054253 Z" fill="url(#leaf12)" opacity="0.23" transform="rotate(70.9 259.4 719.6)"/>
    <path d="M 164.32878471704038,319.45109345223 C 206.97798059728922,354.992090019104 221.1943792240388,404.7494852127276 164.32878471704038,461.61507971972605 C 107.46319021004193,404.7494852127276 121.67958883679154,354.992090019104 164.32878471704038,319.45109345223 Z" fill="url(#leaf13)" opacity="0.35" transform="rotate(14.9 164.3 390.5)"/>
    <path d="M 969.0890460662991,255.0626534455928 C 1023.0085824927835,299.99560046766305 1040.9817613016116,362.90172629856147 969.0890460662991,434.79444153387396 C 897.1963308309867,362.90172629856147 915.1695096398148,299.99560046766305 969.0890460662991,255.0626534455928 Z" fill="url(#leaf14)" opacity="0.37" transform="rotate(243.7 969.1 344.9)"/>
    <path d="M 1129.6449146219438,621.4676051269345 C 1162.309828136172,648.6883663887913 1173.1981326409148,686.797432155391 1129.6449146219438,730.3506501743619 C 1086.091696602973,686.797432155391 1096.9800011077157,648.6883663887913 1129.6449146219438,621.4676051269345 Z" fill="url(#leaf15)" opacity="0.36" transform="rotate(136.1 1129.6 675.9)"/>
    <path d="M 397.0856174516847,933.0669557657905 C 439.5567399594937,968.4595578556314 453.71378079543007,1018.0092007814085 397.0856174516847,1074.637364125154 C 340.4574541079393,1018.0092007814085 354.6144949438757,968.4595578556314 397.0856174516847,933.0669557657905 Z" fill="url(#leaf16)" opacity="0.27" transform="rotate(201.1 397.1 1003.9)"/>
    <path d="M 1193.835680576068,512.6564774219612 C 1250.2929675825496,559.7042165940294 1269.112063251377,625.5710514349248 1193.835680576068,700.847434110234 C 1118.5592979007588,625.5710514349248 1137.3783935695863,559.7042165940294 1193.835680576068,512.6564774219612 Z" fill="url(#leaf17)" opacity="0.28" transform="rotate(16.0 1193.8 606.8)"/>
    <path d="M 112.6911878129388,200.21927921284063 C 146.74552626392153,228.59789458865959 158.09697241424908,268.32795611480606 112.6911878129388,313.73374071611636 C 67.28540321162849,268.32795611480606 78.63684936195607,228.59789458865959 112.6911878129388,200.21927921284063 Z" fill="url(#leaf18)" opacity="0.26" transform="rotate(293.7 112.7 257.0)"/>
    <path d="M 83.14022007162643,255.75480183999798 C 116.30348837593047,283.3908587602514 127.35791114403182,322.08133844860606 83.14022007162643,366.29902952101145 C 38.92252899922104,322.08133844860606 49.97695176732239,283.3908587602514 83.14022007162643,255.75480183999798 Z" fill="url(#leaf19)" opacity="0.22" transform="rotate(157.1 83.1 311.0)"/>
    <path d="M 797.2765780822492,871.1970526466038 C 854.9752748623497,919.2792999633542 874.2081737890499,986.5944462068047 797.2765780822492,1063.5260419136052 C 720.3449823754486,986.5944462068047 739.5778813021487,919.2792999633542 797.2765780822492,871.1970526466038 Z" fill="url(#leaf0)" opacity="0.30" transform="rotate(283.2 797.3 967.4)"/>
    <path d="M 698.8404156090214,622.6013698510938 C 737.9093826655339,655.1588423981876 750.9323716843714,700.7393039641189 698.8404156090214,752.831260039469 C 646.7484595336714,700.7393039641189 659.7714485525089,655.1588423981876 698.8404156090214,622.6013698510938 Z" fill="url(#leaf1)" opacity="0.38" transform="rotate(10.5 698.8 687.7)"/>
    <path d="M 707.9105926644314,287.941236635176 C 744.1373570463014,318.130206953401 756.2129451735914,360.394765398916 707.9105926644314,408.69711790807594 C 659.6082401552715,360.394765398916 671.6838282825614,318.130206953401 707.9105926644314,287.941236635176 Z" fill="url(#leaf2)" opacity="0.36" transform="rotate(191.4 707.9 348.3)"/>
    <path d="M 70.40434714372292,57.10829739210837 C 114.1645913281672,93.57516754581194 128.75133938964862,144.62878576099692 70.40434714372292,202.97577800692264 C 12.057354897797204,144.62878576099692 26.644102959278634,93.57516754581194 70.40434714372292,57.10829739210837 Z" fill="url(#leaf3)" opacity="0.27" transform="rotate(211.6 70.4 130.0)"/>
    <path d="M 63.82800123409164,793.6166161533118 C 98.3085258836961,822.3503866946488 109.80203410023094,862.5776654525207 63.82800123409164,908.55169831866 C 17.85396836795234,862.5776654525207 29.34747658448717,822.3503866946488 63.82800123409164,793.6166161533118 Z" fill="url(#leaf4)" opacity="0.34" transform="rotate(287.8 63.8 851.1)"/>
    <path d="M 579.7058605865191,609.07409389649 C 612.0950187219946,636.0650590093863 622.8914047671531,673.8524101674411 579.7058605865191,717.0379543480751 C 536.5203164058851,673.8524101674411 547.3167024510435,636.0650590093863 579.7058605865191,609.07409389649 Z" fill="url(#leaf5)" opacity="0.35" transform="rotate(153.1 579.7 663.1)"/>
    <path d="M 1598.873686231785,594.3445720763901 C 1645.618855878765,633.2988801155402 1661.2005790944252,687.8349113703504 1598.873686231785,750.1618042329904 C 1536.546793369145,687.8349113703504 1552.128516584805,633.2988801155402 1598.873686231785,594.3445720763901 Z" fill="url(#leaf6)" opacity="0.40" transform="rotate(245.5 1598.9 672.3)"/>
    <path d="M 1428.9473143518842,868.1077826991718 C 1464.6579245376458,897.8666245206398 1476.561461266233,939.5290030706949 1428.9473143518842,987.1431499850437 C 1381.3331674375354,939.5290030706949 1393.2367041661225,897.8666245206398 1428.9473143518842,868.1077826991718 Z" fill="url(#leaf7)" opacity="0.34" transform="rotate(344.7 1428.9 927.6)"/>
    <path d="M 547.5134543351649,196.4209372833776 C 575.494088109184,219.73813209506022 584.820966033857,252.38220483141583 547.5134543351649,289.689716530108 C 510.2059426364727,252.38220483141583 519.5328205611457,219.73813209506022 547.5134543351649,196.4209372833776 Z" fill="url(#leaf8)" opacity="0.32" transform="rotate(39.7 547.5 243.1)"/>
    <path d="M 96.18589822418423,570.0531148829083 C 136.58090045367814,603.7156167408199 150.0459011968428,650.8431193418961 96.18589822418423,704.7031223145547 C 42.325895251525665,650.8431193418961 55.79089599469031,603.7156167408199 96.18589822418423,570.0531148829083 Z" fill="url(#leaf9)" opacity="0.27" transform="rotate(9.8 96.2 637.4)"/>
    <path d="M 587.8741872855401,735.6765891614573 C 623.4361052485447,765.3115207972944 635.2900779028795,806.8004250874664 587.8741872855401,854.2163157048058 C 540.4582966682007,806.8004250874664 552.3122693225355,765.3115207972944 587.8741872855401,735.6765891614573 Z" fill="url(#leaf10)" opacity="0.31" transform="rotate(301.3 587.9 794.9)"/>
    <path d="M 931.2115272267897,111.61268154213356 C 956.5851757912974,132.75738867922328 965.0430586461333,162.35997867114892 931.2115272267897,196.1915100904925 C 897.3799958074461,162.35997867114892 905.837878662282,132.75738867922328 931.2115272267897,111.61268154213356 Z" fill="url(#leaf11)" opacity="0.25" transform="rotate(56.8 931.2 153.9)"/>
    <path d="M 497.48670958803746,201.8344195650434 C 527.4466933598868,226.80107270825116 537.4333546171699,261.75438710874204 497.48670958803746,301.70103213787445 C 457.54006455890504,261.75438710874204 467.52672581618816,226.80107270825116 497.48670958803746,201.8344195650434 Z" fill="url(#leaf12)" opacity="0.37" transform="rotate(109.8 497.5 251.8)"/>
    <path d="M 1238.3233868618706,34.055772861163526 C 1265.9122908262334,57.04652616479913 1275.1085921476877,89.23358078988899 1238.3233868618706,126.01878607570598 C 1201.5381815760536,89.23358078988899 1210.7344828975079,57.04652616479913 1238.3233868618706,34.055772861163526 Z" fill="url(#leaf13)" opacity="0.26" transform="rotate(331.7 1238.3 80.0)"/>
    <path d="M 345.54738754930185,362.80702912466927 C 388.9969571591182,399.01500379951625 403.480147029057,449.706168344302 345.54738754930185,507.6389278240572 C 287.6146280695467,449.706168344302 302.0978179394855,399.01500379951625 345.54738754930185,362.80702912466927 Z" fill="url(#leaf14)" opacity="0.31" transform="rotate(69.5 345.5 435.2)"/>
    <path d="M 1012.3464195776093,617.1585827629171 C 1053.9949699180102,651.8657080465847 1067.8778200314773,700.4556834437192 1012.3464195776093,755.9870838975871 C 956.8150191237413,700.4556834437192 970.6978692372082,651.8657080465847 1012.3464195776093,617.1585827629171 Z" fill="url(#leaf15)" opacity="0.30" transform="rotate(340.0 1012.3 686.6)"/>
  </g>

  <!-- Central star shape -->
  <polygon points="960.0,339.8 1018.8,459.0 1150.4,478.1 1055.2,570.9 1077.7,702.0 960.0,640.1 842.3,702.0 864.8,570.9 769.6,478.1 901.2,459.0" 
           fill="#96E6A1" 
           transform="rotate(109.2 960.0 540.0)"/>
</svg>