<?xml version="1.0" encoding="UTF-8"?>
<svg xmlns="http://www.w3.org/2000/svg" viewBox="0 0 1920 1080" width="1920" height="1080">
  <defs>
    <linearGradient id="bgGrad" x1="0%" y1="0%" x2="100%" y2="100%">
      <stop offset="0%" stop-color="#9370DB"/>
      <stop offset="100%" stop-color="#FF6B6B"/>
    </linearGradient>
    <clipPath id="complexClip"><polygon points="1467.3,540.0 1295.8,580.1 1326.4,631.8 1292.6,675.9 1276.7,737.9 1189.8,763.9 1064.6,721.0 1016.3,841.2 923.1,737.2 806.1,806.4 716.9,776.8 725.0,686.8 566.8,700.7 621.3,624.8 465.4,599.1 504.5,540.0 560.7,492.3 590.6,447.5 507.2,355.0 653.2,348.3 743.0,328.6 788.9,243.8 913.4,290.7 1006.8,289.3 1127.0,250.9 1153.8,351.2 1246.4,361.1 1242.6,424.5 1291.8,456.9 1478.8,478.0"/></clipPath>
    <radialGradient id="leaf0" cx="50%" cy="50%" r="70%">
      <stop offset="0%" stop-color="#9370DB"/>
      <stop offset="50%" stop-color="#FF1493"/>
      <stop offset="100%" stop-color="#FFD700"/>
    </radialGradient>
    <radialGradient id="leaf1" cx="50%" cy="50%" r="70%">
      <stop offset="0%" stop-color="#4ECDC4"/>
      <stop offset="50%" stop-color="#45B7D1"/>
      <stop offset="100%" stop-color="#00FA9A"/>
    </radialGradient>
    <radialGradient id="leaf2" cx="50%" cy="50%" r="70%">
      <stop offset="0%" stop-color="#45B7D1"/>
      <stop offset="50%" stop-color="#4ECDC4"/>
      <stop offset="100%" stop-color="#9370DB"/>
    </radialGradient>
    <radialGradient id="leaf3" cx="50%" cy="50%" r="70%">
      <stop offset="0%" stop-color="#00CED1"/>
      <stop offset="50%" stop-color="#FFD700"/>
      <stop offset="100%" stop-color="#00FA9A"/>
    </radialGradient>
    <radialGradient id="leaf4" cx="50%" cy="50%" r="70%">
      <stop offset="0%" stop-color="#45B7D1"/>
      <stop offset="50%" stop-color="#FF4500"/>
      <stop offset="100%" stop-color="#00FA9A"/>
    </radialGradient>
    <radialGradient id="leaf5" cx="50%" cy="50%" r="70%">
      <stop offset="0%" stop-color="#00FA9A"/>
      <stop offset="50%" stop-color="#FFD700"/>
      <stop offset="100%" stop-color="#FF1493"/>
    </radialGradient>
    <radialGradient id="leaf6" cx="50%" cy="50%" r="70%">
      <stop offset="0%" stop-color="#7B68EE"/>
      <stop offset="50%" stop-color="#FFE66D"/>
      <stop offset="100%" stop-color="#FFD700"/>
    </radialGradient>
    <radialGradient id="leaf7" cx="50%" cy="50%" r="70%">
      <stop offset="0%" stop-color="#4ECDC4"/>
      <stop offset="50%" stop-color="#7B68EE"/>
      <stop offset="100%" stop-color="#32CD32"/>
    </radialGradient>
    <radialGradient id="leaf8" cx="50%" cy="50%" r="70%">
      <stop offset="0%" stop-color="#FF1493"/>
      <stop offset="50%" stop-color="#32CD32"/>
      <stop offset="100%" stop-color="#00CED1"/>
    </radialGradient>
    <radialGradient id="leaf9" cx="50%" cy="50%" r="70%">
      <stop offset="0%" stop-color="#FF69B4"/>
      <stop offset="50%" stop-color="#FFE66D"/>
      <stop offset="100%" stop-color="#FF4500"/>
    </radialGradient>
    <radialGradient id="leaf10" cx="50%" cy="50%" r="70%">
      <stop offset="0%" stop-color="#FF69B4"/>
      <stop offset="50%" stop-color="#FF4500"/>
      <stop offset="100%" stop-color="#32CD32"/>
    </radialGradient>
    <radialGradient id="leaf11" cx="50%" cy="50%" r="70%">
      <stop offset="0%" stop-color="#7B68EE"/>
      <stop offset="50%" stop-color="#4ECDC4"/>
      <stop offset="100%" stop-color="#45B7D1"/>
    </radialGradient>
    <radialGradient id="leaf12" cx="50%" cy="50%" r="70%">
      <stop offset="0%" stop-color="#7B68EE"/>
      <stop offset="50%" stop-color="#FFD700"/>
      <stop offset="100%" stop-color="#9370DB"/>
    </radialGradient>
    <radialGradient id="leaf13" cx="50%" cy="50%" r="70%">
      <stop offset="0%" stop-color="#FF69B4"/>
      <stop offset="50%" stop-color="#7B68EE"/>
      <stop offset="100%" stop-color="#00FA9A"/>
    </radialGradient>
    <radialGradient id="leaf14" cx="50%" cy="50%" r="70%">
      <stop offset="0%" stop-color="#96E6A1"/>
      <stop offset="50%" stop-color="#FF4500"/>
      <stop offset="100%" stop-color="#FF1493"/>
    </radialGradient>
    <radialGradient id="leaf15" cx="50%" cy="50%" r="70%">
      <stop offset="0%" stop-color="#FFE66D"/>
      <stop offset="50%" stop-color="#9370DB"/>
      <stop offset="100%" stop-color="#45B7D1"/>
    </radialGradient>
    <radialGradient id="leaf16" cx="50%" cy="50%" r="70%">
      <stop offset="0%" stop-color="#FFE66D"/>
      <stop offset="50%" stop-color="#00CED1"/>
      <stop offset="100%" stop-color="#DC143C"/>
    </radialGradient>
    <radialGradient id="leaf17" cx="50%" cy="50%" r="70%">
      <stop offset="0%" stop-color="#DC143C"/>
      <stop offset="50%" stop-color="#FF4500"/>
      <stop offset="100%" stop-color="#FFD700"/>
    </radialGradient>
    <radialGradient id="leaf18" cx="50%" cy="50%" r="70%">
      <stop offset="0%" stop-color="#FF1493"/>
      <stop offset="50%" stop-color="#FF6B6B"/>
      <stop offset="100%" stop-color="#DC143C"/>
    </radialGradient>
    <radialGradient id="leaf19" cx="50%" cy="50%" r="70%">
      <stop offset="0%" stop-color="#FF1493"/>
      <stop offset="50%" stop-color="#96E6A1"/>
      <stop offset="100%" stop-color="#FFD700"/>
    </radialGradient>
  </defs>

  <!-- Background -->
  <rect width="1920" height="1080" fill="url(#bgGrad)"/>
  
  <!-- Leaves with clip-path -->
  <g clip-path="url(#complexClip)">
    <path d="M 1335.805425004152,21.694944074332838 C 1365.744393077841,46.64408413574031 1375.724049102404,81.57288022171076 1335.805425004152,121.49150431996271 C 1295.8868009059001,81.57288022171076 1305.866456930463,46.64408413574031 1335.805425004152,21.694944074332838 Z" fill="url(#leaf0)" opacity="0.26" transform="rotate(354.2 1335.8 71.6)"/>
    <path d="M 262.8061864781164,452.0801310183302 C 311.640653844759,492.77552049053236 327.9188096336399,549.7490657516155 262.8061864781164,614.8616889071391 C 197.69356332259287,549.7490657516155 213.97171911147373,492.77552049053236 262.8061864781164,452.0801310183302 Z" fill="url(#leaf1)" opacity="0.25" transform="rotate(286.4 262.8 533.5)"/>
    <path d="M 309.9526421335858,51.20471159142946 C 352.9278909395312,87.01741892971731 367.25297387484636,137.15520920332028 309.9526421335858,194.45554094458083 C 252.65231039232526,137.15520920332028 266.9773933276404,87.01741892971731 309.9526421335858,51.20471159142946 Z" fill="url(#leaf2)" opacity="0.33" transform="rotate(150.2 310.0 122.8)"/>
    <path d="M 454.85953843449465,223.0611588254534 C 508.90765561294756,268.10125647416413 526.9236946724319,331.1573931823592 454.85953843449465,403.22154942029647 C 382.7953821965574,331.1573931823592 400.81142125604174,268.10125647416413 454.85953843449465,223.0611588254534 Z" fill="url(#leaf3)" opacity="0.33" transform="rotate(184.7 454.9 313.1)"/>
    <path d="M 1692.8011378976546,855.1398555615792 C 1723.4231431336082,880.6581932582072 1733.6304782122593,916.3838660334864 1692.8011378976546,957.213206348091 C 1651.97179758305,916.3838660334864 1662.179132661701,880.6581932582072 1692.8011378976546,855.1398555615792 Z" fill="url(#leaf4)" opacity="0.38" transform="rotate(192.8 1692.8 906.2)"/>
    <path d="M 1443.8937219326071,615.7259167355622 C 1471.980173068355,639.1312926820189 1481.3423234469376,671.8988190070581 1443.8937219326071,709.3474205213887 C 1406.4451204182767,671.8988190070581 1415.8072707968593,639.1312926820189 1443.8937219326071,615.7259167355622 Z" fill="url(#leaf5)" opacity="0.39" transform="rotate(257.5 1443.9 662.5)"/>
    <path d="M 1084.9975973729995,-8.275952566308263 C 1122.8732898456235,23.28712449421181 1135.4985206698316,67.47543237893991 1084.9975973729995,117.97635567577203 C 1034.4966740761674,67.47543237893991 1047.1219049003755,23.28712449421181 1084.9975973729995,-8.275952566308263 Z" fill="url(#leaf6)" opacity="0.32" transform="rotate(115.7 1085.0 54.9)"/>
    <path d="M 647.1003949143922,242.72043940333705 C 692.7032323588032,280.7228039403463 707.904178173607,333.9261142921592 647.1003949143922,394.72989755137394 C 586.2966116551773,333.9261142921592 601.4975574699811,280.7228039403463 647.1003949143922,242.72043940333705 Z" fill="url(#leaf7)" opacity="0.40" transform="rotate(158.1 647.1 318.7)"/>
    <path d="M 677.4850109095531,608.4210667087859 C 716.7153368199694,641.1130049674662 729.7921121234415,686.8817185296185 677.4850109095531,739.1888197435069 C 625.1779096956648,686.8817185296185 638.2546849991369,641.1130049674662 677.4850109095531,608.4210667087859 Z" fill="url(#leaf8)" opacity="0.23" transform="rotate(164.2 677.5 673.8)"/>
    <path d="M 1050.057573638061,152.5148414372782 C 1075.6491039488935,173.84111669630533 1084.1796140525046,203.69790205894333 1050.057573638061,237.81994247338676 C 1015.9355332236177,203.69790205894333 1024.4660433272286,173.84111669630533 1050.057573638061,152.5148414372782 Z" fill="url(#leaf9)" opacity="0.39" transform="rotate(218.9 1050.1 195.2)"/>
    <path d="M 462.29170211449303,577.2733423100383 C 502.5933523193125,610.8580508140544 516.027235720919,657.8766427196772 462.29170211449303,711.612176326103 C 408.5561685080671,657.8766427196772 421.9900519096736,610.8580508140544 462.29170211449303,577.2733423100383 Z" fill="url(#leaf10)" opacity="0.30" transform="rotate(351.0 462.3 644.4)"/>
    <path d="M 1646.8517068020951,862.8872826395656 C 1702.3332867969693,909.1219326352941 1720.827146795261,973.8504426293141 1646.8517068020951,1047.8258826224796 C 1572.8762668089294,973.8504426293141 1591.370126807221,909.1219326352941 1646.8517068020951,862.8872826395656 Z" fill="url(#leaf11)" opacity="0.28" transform="rotate(186.0 1646.9 955.4)"/>
    <path d="M 879.353764877073,575.3246450207544 C 912.5418960717883,602.9814210163504 923.6046064700267,641.700907410185 879.353764877073,685.9517490031387 C 835.1029232841192,641.700907410185 846.1656336823577,602.9814210163504 879.353764877073,575.3246450207544 Z" fill="url(#leaf12)" opacity="0.26" transform="rotate(104.0 879.4 630.6)"/>
    <path d="M 546.1928297741074,466.4184276052499 C 588.849028388384,501.9652597838138 603.0677612598096,551.7308248338032 546.1928297741074,608.6057563195054 C 489.31789828840516,551.7308248338032 503.53663115983073,501.9652597838138 546.1928297741074,466.4184276052499 Z" fill="url(#leaf13)" opacity="0.29" transform="rotate(216.7 546.2 537.5)"/>
    <path d="M 251.15966303530448,817.9526445523804 C 291.78919768230406,851.8105900915468 305.3323758979706,899.2117138463797 251.15966303530448,953.3844267090458 C 196.98695017263833,899.2117138463797 210.5301283883049,851.8105900915468 251.15966303530448,817.9526445523804 Z" fill="url(#leaf14)" opacity="0.23" transform="rotate(60.1 251.2 885.7)"/>
    <path d="M 224.95463298468894,766.3120671084678 C 278.1011159500559,810.6008029129403 295.81661027184487,872.6050330392018 224.95463298468894,943.4670103263577 C 154.092655697533,872.6050330392018 171.808150019322,810.6008029129403 224.95463298468894,766.3120671084678 Z" fill="url(#leaf15)" opacity="0.33" transform="rotate(157.0 225.0 854.9)"/>
    <path d="M 1552.6120733226776,334.61989688902383 C 1579.7532090559237,357.2375100000621 1588.800254300339,388.90216835551576 1552.6120733226776,425.0903493331771 C 1516.4238923450162,388.90216835551576 1525.4709375894315,357.2375100000621 1552.6120733226776,334.61989688902383 Z" fill="url(#leaf16)" opacity="0.37" transform="rotate(100.1 1552.6 379.9)"/>
    <path d="M 849.154079092807,147.1198806067633 C 897.9700071695444,187.79982067071106 914.2419831951235,244.75173676023792 849.154079092807,309.83964086255435 C 784.0661749904906,244.75173676023792 800.3381510160697,187.79982067071106 849.154079092807,147.1198806067633 Z" fill="url(#leaf17)" opacity="0.25" transform="rotate(113.3 849.2 228.5)"/>
    <path d="M 236.59511921158625,276.65218523063675 C 270.63836052607184,305.02155299270805 281.9861076309004,344.738667859608 236.59511921158625,390.1296562789221 C 191.2041307922721,344.738667859608 202.55187789710067,305.02155299270805 236.59511921158625,276.65218523063675 Z" fill="url(#leaf18)" opacity="0.36" transform="rotate(72.7 236.6 333.4)"/>
    <path d="M 1465.5271547491118,958.7021134067479 C 1502.431035050633,989.4553469913488 1514.7323284844733,1032.50987400979 1465.5271547491118,1081.7150477451517 C 1416.3219810137502,1032.50987400979 1428.6232744475906,989.4553469913488 1465.5271547491118,958.7021134067479 Z" fill="url(#leaf19)" opacity="0.32" transform="rotate(59.6 1465.5 1020.2)"/>
    <path d="M 1553.1426865267288,607.0591013148143 C 1597.843935836643,644.3101424064095 1612.744352273281,696.4615999346428 1553.1426865267288,756.063265681195 C 1493.5410207801765,696.4615999346428 1508.4414372168146,644.3101424064095 1553.1426865267288,607.0591013148143 Z" fill="url(#leaf0)" opacity="0.39" transform="rotate(131.4 1553.1 681.6)"/>
    <path d="M 63.38764884790522,396.24194680799894 C 101.38402725903165,427.90559548393765 114.04948672940714,472.23470363025183 63.38764884790522,522.8965415117538 C 12.725810966403294,472.23470363025183 25.391270436778782,427.90559548393765 63.38764884790522,396.24194680799894 Z" fill="url(#leaf1)" opacity="0.28" transform="rotate(83.0 63.4 459.6)"/>
    <path d="M 977.385619901685,350.7149248655742 C 1013.1888787407227,380.55097389810555 1025.1232983537352,422.3214425436495 977.385619901685,470.0591209956997 C 929.6479414496348,422.3214425436495 941.5823610626474,380.55097389810555 977.385619901685,350.7149248655742 Z" fill="url(#leaf2)" opacity="0.33" transform="rotate(338.3 977.4 410.4)"/>
    <path d="M 299.1299567718093,137.70613385129573 C 351.78867941036816,181.58840271676144 369.34158695655447,243.02357912841342 299.1299567718093,313.2352093131585 C 228.91832658706417,243.02357912841342 246.47123413325045,181.58840271676144 299.1299567718093,137.70613385129573 Z" fill="url(#leaf3)" opacity="0.38" transform="rotate(137.3 299.1 225.5)"/>
    <path d="M 543.6658930052263,61.35893996570189 C 594.3005348138219,103.55447480619817 611.1787487500203,162.62822358289296 543.6658930052263,230.141079327687 C 476.15303726043226,162.62822358289296 493.03125119663076,103.55447480619817 543.6658930052263,61.35893996570189 Z" fill="url(#leaf4)" opacity="0.29" transform="rotate(65.1 543.7 145.8)"/>
    <path d="M 1861.0870210325083,745.0772293545232 C 1915.8314773928887,790.6976096548401 1934.0796295130153,854.5661420752837 1861.0870210325083,927.5587505557907 C 1788.0944125520014,854.5661420752837 1806.342564672128,790.6976096548401 1861.0870210325083,745.0772293545232 Z" fill="url(#leaf5)" opacity="0.39" transform="rotate(17.1 1861.1 836.3)"/>
    <path d="M 476.42160360046563,437.02756964994535 C 505.2602461943115,461.0597718114836 514.8731270589268,494.70485483763713 476.42160360046563,533.1563782960983 C 437.97008014200446,494.70485483763713 447.58296100661977,461.0597718114836 476.42160360046563,437.02756964994535 Z" fill="url(#leaf6)" opacity="0.28" transform="rotate(46.7 476.4 485.1)"/>
    <path d="M 969.7801141947217,550.0199403348471 C 1019.5100222213204,591.4615303570127 1036.0866582301867,649.4797563880445 969.7801141947217,715.7863004235095 C 903.4735701592567,649.4797563880445 920.050206168123,591.4615303570127 969.7801141947217,550.0199403348471 Z" fill="url(#leaf7)" opacity="0.23" transform="rotate(324.5 969.8 632.9)"/>
    <path d="M 1584.8070345214394,884.6341594592808 C 1640.3295851341975,930.9029516365792 1658.837102005117,995.6792606847971 1584.8070345214394,1069.7093281684747 C 1510.7769670377618,995.6792606847971 1529.2844839086813,930.9029516365792 1584.8070345214394,884.6341594592808 Z" fill="url(#leaf8)" opacity="0.37" transform="rotate(229.9 1584.8 977.2)"/>
    <path d="M 1199.5340441639569,879.466506769488 C 1224.3157833097525,900.1179560576509 1232.5763630250176,929.0299850610791 1199.5340441639569,962.0723039221398 C 1166.4917253028962,929.0299850610791 1174.7523050181612,900.1179560576509 1199.5340441639569,879.466506769488 Z" fill="url(#leaf9)" opacity="0.25" transform="rotate(6.3 1199.5 920.8)"/>
    <path d="M 837.5891715577721,-12.246799463213371 C 877.0943970211995,20.67422175630937 890.2628055090086,66.76365146364121 837.5891715577721,119.4372854148776 C 784.9155376065357,66.76365146364121 798.0839460943448,20.67422175630937 837.5891715577721,-12.246799463213371 Z" fill="url(#leaf10)" opacity="0.34" transform="rotate(310.5 837.6 53.6)"/>
    <path d="M 1369.281365698953,423.50368680866916 C 1409.2106307870529,456.7780743820856 1422.5203858164193,503.36221698486855 1369.281365698953,556.6012371023348 C 1316.0423455814869,503.36221698486855 1329.3521006108533,456.7780743820856 1369.281365698953,423.50368680866916 Z" fill="url(#leaf11)" opacity="0.30" transform="rotate(100.8 1369.3 490.1)"/>
    <path d="M 1135.0760455334,807.2636480447109 C 1190.305014111797,853.2877885267084 1208.714670304596,917.7215852015049 1135.0760455334,991.3602099727009 C 1061.437420762204,917.7215852015049 1079.847076955003,853.2877885267084 1135.0760455334,807.2636480447109 Z" fill="url(#leaf12)" opacity="0.37" transform="rotate(249.9 1135.1 899.3)"/>
    <path d="M 631.8189791918286,438.0147361914634 C 679.9935831446709,478.1602394854986 696.051784462285,534.363944097148 631.8189791918286,598.5967493676043 C 567.5861739213722,534.363944097148 583.6443752389863,478.1602394854986 631.8189791918286,438.0147361914634 Z" fill="url(#leaf13)" opacity="0.32" transform="rotate(176.9 631.8 518.3)"/>
    <path d="M 95.76175892287702,776.8965618391725 C 124.70336221409812,801.0145645818568 134.3505633111718,834.7797684216147 95.76175892287702,873.3685728099096 C 57.172954534582225,834.7797684216147 66.82015563165592,801.0145645818568 95.76175892287702,776.8965618391725 Z" fill="url(#leaf14)" opacity="0.39" transform="rotate(176.7 95.8 825.1)"/>
    <path d="M 1206.4593207076323,715.2546792713647 C 1234.7429723553803,738.8243889778214 1244.1708562379629,771.8219825668607 1206.4593207076323,809.5335180971913 C 1168.7477851773017,771.8219825668607 1178.1756690598843,738.8243889778214 1206.4593207076323,715.2546792713647 Z" fill="url(#leaf15)" opacity="0.40" transform="rotate(63.6 1206.5 762.4)"/>
    <path d="M 492.14088439786195,407.20463536481213 C 550.5385299174512,455.86933996446993 570.0044117573144,523.9999264039908 492.14088439786195,601.8634537634432 C 414.27735703840955,523.9999264039908 433.7432388782726,455.86933996446993 492.14088439786195,407.20463536481213 Z" fill="url(#leaf16)" opacity="0.34" transform="rotate(115.2 492.1 504.5)"/>
    <path d="M 1649.3776625030334,812.6673267435302 C 1706.6720564071454,860.4126549969569 1725.770187708516,927.2561145517542 1649.3776625030334,1003.6486397572368 C 1572.9851372975509,927.2561145517542 1592.0832685989214,860.4126549969569 1649.3776625030334,812.6673267435302 Z" fill="url(#leaf17)" opacity="0.36" transform="rotate(206.0 1649.4 908.2)"/>
    <path d="M 145.55254198558958,176.30758037677057 C 172.2208794137533,198.53119490024034 181.11032522314122,229.644255233098 145.55254198558958,265.20203847064965 C 109.99475874803795,229.644255233098 118.88420455742587,198.53119490024034 145.55254198558958,176.30758037677057 Z" fill="url(#leaf18)" opacity="0.34" transform="rotate(24.4 145.6 220.8)"/>
    <path d="M 1325.5562430746147,660.3035156802363 C 1382.6544897213716,707.8853878858672 1401.687238603624,774.5000089737504 1325.5562430746147,850.6310045027598 C 1249.4252475456053,774.5000089737504 1268.4579964278578,707.8853878858672 1325.5562430746147,660.3035156802363 Z" fill="url(#leaf19)" opacity="0.30" transform="rotate(237.7 1325.6 755.5)"/>
    <path d="M 813.7626938768522,598.121356355324 C 862.6713829540892,638.8785972530214 878.9742793131682,695.9387345097979 813.7626938768522,761.1503199461138 C 748.5511084405362,695.9387345097979 764.8540047996152,638.8785972530214 813.7626938768522,598.121356355324 Z" fill="url(#leaf0)" opacity="0.30" transform="rotate(112.8 813.8 679.6)"/>
    <path d="M 1263.8099733739416,437.9443470572876 C 1310.6630816594163,476.9886039618499 1326.2807844212414,531.6505636282371 1263.8099733739416,594.1213746755368 C 1201.3391623266418,531.6505636282371 1216.9568650884669,476.9886039618499 1263.8099733739416,437.9443470572876 Z" fill="url(#leaf1)" opacity="0.32" transform="rotate(272.3 1263.8 516.0)"/>
    <path d="M 1100.1892675721774,875.4423420020177 C 1140.330451996139,908.8933290219854 1153.710846804126,955.7247108499405 1100.1892675721774,1009.246290081889 C 1046.6676883402288,955.7247108499405 1060.048083148216,908.8933290219854 1100.1892675721774,875.4423420020177 Z" fill="url(#leaf2)" opacity="0.29" transform="rotate(189.1 1100.2 942.3)"/>
    <path d="M 917.0695524193459,509.52649244328626 C 952.57468662245,539.1141042792063 964.409731356818,580.5367608494945 917.0695524193459,627.8769397869668 C 869.7293734818737,580.5367608494945 881.5644182162417,539.1141042792063 917.0695524193459,509.52649244328626 Z" fill="url(#leaf3)" opacity="0.36" transform="rotate(348.0 917.1 568.7)"/>
    <path d="M 318.7594994561945,549.3442640084454 C 347.3118180513494,573.1378628377412 356.8292575830677,606.4489011987553 318.7594994561945,644.5186593256285 C 280.68974132932124,606.4489011987553 290.20718086103955,573.1378628377412 318.7594994561945,549.3442640084454 Z" fill="url(#leaf4)" opacity="0.25" transform="rotate(114.4 318.8 596.9)"/>
    <path d="M 1310.0634252489,767.3457364544604 C 1363.4210008737346,811.8103828084892 1381.2068594153461,874.0608877041295 1310.0634252489,945.2043218705755 C 1238.919991082454,874.0608877041295 1256.7058496240656,811.8103828084892 1310.0634252489,767.3457364544604 Z" fill="url(#leaf5)" opacity="0.29" transform="rotate(135.9 1310.1 856.3)"/>
    <path d="M 1403.8458103981366,879.9387488794877 C 1452.8623132224684,920.7858345664309 1469.2011474972458,977.9717545281513 1403.8458103981366,1043.3270916272604 C 1338.4904732990274,977.9717545281513 1354.8293075738047,920.7858345664309 1403.8458103981366,879.9387488794877 Z" fill="url(#leaf6)" opacity="0.26" transform="rotate(251.7 1403.8 961.6)"/>
    <path d="M 411.8215208775012,833.3967561152047 C 462.33476636889884,875.491127358036 479.1725148660314,934.4232470979999 411.8215208775012,1001.7742410865301 C 344.470526888971,934.4232470979999 361.30827538610356,875.491127358036 411.8215208775012,833.3967561152047 Z" fill="url(#leaf7)" opacity="0.21" transform="rotate(25.2 411.8 917.6)"/>
    <path d="M 1181.3141273094895,747.2183228857817 C 1217.4045082535736,777.2936403391851 1229.434635234935,819.3990847739499 1181.3141273094895,867.5195926993953 C 1133.193619384044,819.3990847739499 1145.2237463654055,777.2936403391851 1181.3141273094895,747.2183228857817 Z" fill="url(#leaf8)" opacity="0.29" transform="rotate(56.0 1181.3 807.4)"/>
    <path d="M 1070.1714519766524,220.69155308397404 C 1107.5973660495642,251.8798148114005 1120.0726707405347,295.54338122979755 1070.1714519766524,345.4445999936799 C 1020.2702332127701,295.54338122979755 1032.7455379037406,251.8798148114005 1070.1714519766524,220.69155308397404 Z" fill="url(#leaf9)" opacity="0.29" transform="rotate(171.7 1070.2 283.1)"/>
    <path d="M 1620.092416631709,581.601931736244 C 1650.5946443927837,607.0204548704728 1660.7620536464751,642.6063872583932 1620.092416631709,683.2760242731594 C 1579.422779616943,642.6063872583932 1589.5901888706344,607.0204548704728 1620.092416631709,581.601931736244 Z" fill="url(#leaf10)" opacity="0.25" transform="rotate(85.6 1620.1 632.4)"/>
    <path d="M 1544.0621231017487,91.24375258823665 C 1602.8826361938054,140.2608468316172 1622.4894738911576,208.8847787723499 1544.0621231017487,287.31212956175875 C 1465.63477231234,208.8847787723499 1485.241610009692,140.2608468316172 1544.0621231017487,91.24375258823665 Z" fill="url(#leaf11)" opacity="0.36" transform="rotate(308.0 1544.1 189.3)"/>
    <path d="M 463.4395976962228,176.71837041906446 C 516.585683680294,221.00677540579048 534.3010456749844,283.0105423872069 463.4395976962228,353.87199036596854 C 392.57814971746114,283.0105423872069 410.29351171215154,221.00677540579048 463.4395976962228,176.71837041906446 Z" fill="url(#leaf12)" opacity="0.27" transform="rotate(341.9 463.4 265.3)"/>
    <path d="M 1286.8563597544094,523.895042632782 C 1318.7657628645081,550.4862118911977 1329.4022305678745,587.7138488529797 1286.8563597544094,630.2597196664449 C 1244.3104889409442,587.7138488529797 1254.9469566443106,550.4862118911977 1286.8563597544094,523.895042632782 Z" fill="url(#leaf13)" opacity="0.32" transform="rotate(324.2 1286.9 577.1)"/>
    <path d="M 931.4351598679074,298.1045272396549 C 957.0432877281582,319.444633789864 965.5793303482419,349.32078296015663 931.4351598679074,383.4649534404912 C 897.2909893875728,349.32078296015663 905.8270320076565,319.444633789864 931.4351598679074,298.1045272396549 Z" fill="url(#leaf14)" opacity="0.39" transform="rotate(240.6 931.4 340.8)"/>
    <path d="M 331.654413640124,963.745477043293 C 370.79010488115136,996.3585530774825 383.83533529482713,1042.0168595253479 331.654413640124,1094.197781180051 C 279.4734919854209,1042.0168595253479 292.51872239909665,996.3585530774825 331.654413640124,963.745477043293 Z" fill="url(#leaf15)" opacity="0.22" transform="rotate(330.2 331.7 1029.0)"/>
    <path d="M 1294.650628591059,747.5761934023941 C 1343.7418841484548,788.4855730335572 1360.1056360009202,845.7587045171856 1294.650628591059,911.2137119270466 C 1229.195621181198,845.7587045171856 1245.5593730336634,788.4855730335572 1294.650628591059,747.5761934023941 Z" fill="url(#leaf16)" opacity="0.33" transform="rotate(329.1 1294.7 829.4)"/>
    <path d="M 994.4836058695947,118.55618177447968 C 1021.9960996826705,141.48325995204286 1031.1669309536958,173.5811694006313 994.4836058695947,210.26449448473238 C 957.8002807854937,173.5811694006313 966.9711120565189,141.48325995204286 994.4836058695947,118.55618177447968 Z" fill="url(#leaf17)" opacity="0.37" transform="rotate(186.8 994.5 164.4)"/>
    <path d="M 1438.7975789192594,621.7271441771169 C 1477.143347266539,653.6819511331831 1489.9252700489653,698.4186808716759 1438.7975789192594,749.5463720013819 C 1387.6698877895535,698.4186808716759 1400.4518105719799,653.6819511331831 1438.7975789192594,621.7271441771169 Z" fill="url(#leaf18)" opacity="0.34" transform="rotate(338.2 1438.8 685.6)"/>
    <path d="M 1192.2606996801903,570.8106528775625 C 1238.852649676427,609.6372778744263 1254.3832996751726,663.9945528700359 1192.2606996801903,726.1171528650182 C 1130.138099685208,663.9945528700359 1145.6687496839536,609.6372778744263 1192.2606996801903,570.8106528775625 Z" fill="url(#leaf19)" opacity="0.24" transform="rotate(114.8 1192.3 648.5)"/>
    <path d="M 671.4534227639184,112.3179156883184 C 703.4338729333234,138.96829082948923 714.0940229897917,176.27881602712839 671.4534227639184,218.9194162530017 C 628.8128225380451,176.27881602712839 639.4729725945134,138.96829082948923 671.4534227639184,112.3179156883184 Z" fill="url(#leaf0)" opacity="0.28" transform="rotate(243.7 671.5 165.6)"/>
    <path d="M 1681.4223166473548,-29.244482993430246 C 1737.2089676244957,17.244392820853804 1755.8045179502094,82.32881896085148 1681.4223166473548,156.71102026370596 C 1607.0401153445002,82.32881896085148 1625.635665670214,17.244392820853804 1681.4223166473548,-29.244482993430246 Z" fill="url(#leaf1)" opacity="0.37" transform="rotate(1.0 1681.4 63.7)"/>
    <path d="M 1321.1024097017792,901.240230517915 C 1366.0274493957536,938.677763596227 1381.0024626270783,991.0903099058639 1321.1024097017792,1050.990362831163 C 1261.20235677648,991.0903099058639 1276.1773700078047,938.677763596227 1321.1024097017792,901.240230517915 Z" fill="url(#leaf2)" opacity="0.31" transform="rotate(135.6 1321.1 976.1)"/>
    <path d="M 1672.0923675031902,456.87084133670544 C 1697.2991139722458,477.8764633942517 1705.7013627952642,507.2843342748165 1672.0923675031902,540.8933295668905 C 1638.4833722111161,507.2843342748165 1646.8856210341346,477.8764633942517 1672.0923675031902,456.87084133670544 Z" fill="url(#leaf3)" opacity="0.33" transform="rotate(219.1 1672.1 498.9)"/>
    <path d="M 1079.7011845466664,898.2573614602343 C 1117.039270729268,929.3724332790691 1129.485299456802,972.9335338254377 1079.7011845466664,1022.7176487355734 C 1029.9170696365306,972.9335338254377 1042.3630983640646,929.3724332790691 1079.7011845466664,898.2573614602343 Z" fill="url(#leaf4)" opacity="0.27" transform="rotate(15.4 1079.7 960.5)"/>
    <path d="M 786.8408510174811,-20.898390381397604 C 844.5576790931513,27.198966348327488 863.7966217850412,94.53526576994261 786.8408510174811,171.49103653750277 C 709.885080249921,94.53526576994261 729.124022941811,27.198966348327488 786.8408510174811,-20.898390381397604 Z" fill="url(#leaf5)" opacity="0.39" transform="rotate(123.1 786.8 75.3)"/>
    <path d="M 1391.7751413781841,812.3941725247172 C 1431.4974170585017,845.4960689249817 1444.7381756186076,891.8387238853522 1391.7751413781841,944.8017581257756 C 1338.8121071377607,891.8387238853522 1352.0528656978665,845.4960689249817 1391.7751413781841,812.3941725247172 Z" fill="url(#leaf6)" opacity="0.23" transform="rotate(266.6 1391.8 878.6)"/>
    <path d="M 873.7739195114392,821.515668215347 C 900.9066009051468,844.1262360434366 909.9508280363826,875.7810310027621 873.7739195114392,911.9579395277055 C 837.5970109864958,875.7810310027621 846.6412381177316,844.1262360434366 873.7739195114392,821.515668215347 Z" fill="url(#leaf7)" opacity="0.28" transform="rotate(255.0 873.8 866.7)"/>
    <path d="M 381.575614831412,35.008420257626526 C 415.58776617096794,63.351879707256465 426.9251499508199,103.03272293673838 381.575614831412,148.38225805614627 C 336.2260797120041,103.03272293673838 347.56346349185606,63.351879707256465 381.575614831412,35.008420257626526 Z" fill="url(#leaf8)" opacity="0.31" transform="rotate(163.5 381.6 91.7)"/>
    <path d="M 1465.3688156792452,880.5182509624437 C 1521.5247656294741,927.3148759209678 1540.2434156128838,992.8301508629015 1465.3688156792452,1067.70475079654 C 1390.4942157456067,992.8301508629015 1409.2128657290164,927.3148759209678 1465.3688156792452,880.5182509624437 Z" fill="url(#leaf9)" opacity="0.38" transform="rotate(206.3 1465.4 974.1)"/>
    <path d="M 1352.2345159392855,943.4113842431269 C 1393.325725902256,977.6540592122689 1407.0227958899127,1025.5938041690677 1352.2345159392855,1080.382084119695 C 1297.4462359886584,1025.5938041690677 1311.143305976315,977.6540592122689 1352.2345159392855,943.4113842431269 Z" fill="url(#leaf10)" opacity="0.27" transform="rotate(35.9 1352.2 1011.9)"/>
    <path d="M 785.7977861831783,491.65816725249476 C 823.1028550437007,522.7457246362635 835.5378779972083,566.2683049735396 785.7977861831783,616.0083967875695 C 736.0576943691484,566.2683049735396 748.492717322656,522.7457246362635 785.7977861831783,491.65816725249476 Z" fill="url(#leaf11)" opacity="0.38" transform="rotate(128.1 785.8 553.8)"/>
    <path d="M 148.511378451457,544.2821340908188 C 174.46892775149368,565.9134251741826 183.12144418483922,596.1972326908921 148.511378451457,630.8072984242742 C 113.90131271807478,596.1972326908921 122.55382915142033,565.9134251741826 148.511378451457,544.2821340908188 Z" fill="url(#leaf12)" opacity="0.23" transform="rotate(266.8 148.5 587.5)"/>
    <path d="M 1710.1076152518433,69.19117682147571 C 1735.989310214451,90.7592559569822 1744.6165418686537,120.95456674669131 1710.1076152518433,155.4634933635017 C 1675.5986886350329,120.95456674669131 1684.2259202892355,90.7592559569822 1710.1076152518433,69.19117682147571 Z" fill="url(#leaf13)" opacity="0.30" transform="rotate(359.8 1710.1 112.3)"/>
    <path d="M 1106.329644424301,428.548203994843 C 1143.2685581340654,459.3306320863133 1155.5815293706535,502.4260314143718 1106.329644424301,551.6779163607243 C 1057.0777594779486,502.4260314143718 1069.3907307145366,459.3306320863133 1106.329644424301,428.548203994843 Z" fill="url(#leaf14)" opacity="0.34" transform="rotate(301.2 1106.3 490.1)"/>
    <path d="M 484.42823794814086,731.8504663003222 C 532.171053965189,771.636146314529 548.0853259708716,827.3360983344185 484.42823794814086,890.9931863571493 C 420.77114992541004,827.3360983344185 436.6854219310928,771.636146314529 484.42823794814086,731.8504663003222 Z" fill="url(#leaf15)" opacity="0.32" transform="rotate(226.9 484.4 811.4)"/>
    <path d="M 524.407035280499,560.1374750551682 C 576.3743563262435,603.443575926622 593.696796674825,664.0721171466572 524.407035280499,733.3618785409832 C 455.11727388617305,664.0721171466572 472.43971423475455,603.443575926622 524.407035280499,560.1374750551682 Z" fill="url(#leaf16)" opacity="0.36" transform="rotate(50.2 524.4 646.7)"/>
    <path d="M 1715.123665287931,398.329928830965 C 1756.5124526990437,432.8205850068921 1770.3087151694144,481.10750365319 1715.123665287931,536.2925535346734 C 1659.9386154064478,481.10750365319 1673.7348778768185,432.8205850068921 1715.123665287931,398.329928830965 Z" fill="url(#leaf17)" opacity="0.26" transform="rotate(161.4 1715.1 467.3)"/>
    <path d="M 1474.582255197702,89.1548712048876 C 1510.9479258867589,119.45959677910174 1523.0698161164446,161.88621258300154 1474.582255197702,210.37377350174418 C 1426.0946942789592,161.88621258300154 1438.216584508645,119.45959677910174 1474.582255197702,89.1548712048876 Z" fill="url(#leaf18)" opacity="0.27" transform="rotate(283.2 1474.6 149.8)"/>
    <path d="M 1197.4810180506856,-1.9356003589491237 C 1231.677953022209,26.56184545065366 1243.07693134605,66.45826958409756 1197.4810180506856,112.05418287946202 C 1151.8851047553212,66.45826958409756 1163.2840830791622,26.56184545065366 1197.4810180506856,-1.9356003589491237 Z" fill="url(#leaf19)" opacity="0.30" transform="rotate(197.3 1197.5 55.1)"/>
    <path d="M 1621.1471648145966,53.83650879646888 C 1671.8991477315305,96.12982789391378 1688.8164753705084,155.34047463033664 1621.1471648145966,223.0097851862485 C 1553.4778542586848,155.34047463033664 1570.3951818976627,96.12982789391378 1621.1471648145966,53.83650879646888 Z" fill="url(#leaf0)" opacity="0.32" transform="rotate(342.2 1621.1 138.4)"/>
    <path d="M 1285.0444994760717,132.43882948812944 C 1310.9684303080253,154.04210518142418 1319.6097405853432,184.28669115203678 1285.0444994760717,218.85193226130832 C 1250.4792583668002,184.28669115203678 1259.120568644118,154.04210518142418 1285.0444994760717,132.43882948812944 Z" fill="url(#leaf1)" opacity="0.36" transform="rotate(318.1 1285.0 175.6)"/>
    <path d="M 1123.1951128609487,349.7685846144613 C 1150.913326898545,372.8670963124583 1160.152731577744,405.205012689654 1123.1951128609487,442.16263140644907 C 1086.2374941441535,405.205012689654 1095.4768988233525,372.8670963124583 1123.1951128609487,349.7685846144613 Z" fill="url(#leaf2)" opacity="0.38" transform="rotate(111.0 1123.2 396.0)"/>
    <path d="M 255.60216542392857,440.32049679895965 C 296.0910816687312,474.06126033629516 309.5873870836654,521.2983292885649 255.60216542392857,575.2835509483018 C 201.61694376419172,521.2983292885649 215.11324917912592,474.06126033629516 255.60216542392857,440.32049679895965 Z" fill="url(#leaf3)" opacity="0.27" transform="rotate(111.6 255.6 507.8)"/>
    <path d="M 378.5474452055964,238.14243844567142 C 436.68212602167233,286.5880057924014 456.06035296036436,354.41180007782333 378.5474452055964,431.9247078325913 C 301.0345374508284,354.41180007782333 320.4127643895204,286.5880057924014 378.5474452055964,238.14243844567142 Z" fill="url(#leaf4)" opacity="0.31" transform="rotate(80.8 378.5 335.0)"/>
    <path d="M 1405.3616994149727,185.89848503127484 C 1453.6114754035139,226.10663168839238 1469.6947340663608,282.39803700835694 1405.3616994149727,346.731071659745 C 1341.0286647635846,282.39803700835694 1357.1119234264315,226.10663168839238 1405.3616994149727,185.89848503127484 Z" fill="url(#leaf5)" opacity="0.23" transform="rotate(348.8 1405.4 266.3)"/>
    <path d="M 1483.2424429478806,465.0669337839181 C 1530.3635923397521,504.3345582771444 1546.0706421370428,559.3092325676613 1483.2424429478806,622.1374317568234 C 1420.4142437587184,559.3092325676613 1436.121293556009,504.3345582771444 1483.2424429478806,465.0669337839181 Z" fill="url(#leaf6)" opacity="0.39" transform="rotate(140.4 1483.2 543.6)"/>
    <path d="M 1659.944543229668,721.0744089834213 C 1707.1029879735484,760.3731129366549 1722.8224695548417,815.3912984711819 1659.944543229668,878.2692247963557 C 1597.0666169044941,815.3912984711819 1612.7860984857875,760.3731129366549 1659.944543229668,721.0744089834213 Z" fill="url(#leaf7)" opacity="0.26" transform="rotate(333.4 1659.9 799.7)"/>
    <path d="M 1127.4270012106142,245.494527266488 C 1152.255807517996,266.1851991893061 1160.5320762871231,295.1521398812514 1127.4270012106142,328.2572149577603 C 1094.3219261341053,295.1521398812514 1102.5981949032325,266.1851991893061 1127.4270012106142,245.494527266488 Z" fill="url(#leaf8)" opacity="0.36" transform="rotate(131.8 1127.4 286.9)"/>
    <path d="M 549.3042644575447,514.599861183984 C 581.8417996467235,541.714473841633 592.6876447097832,579.6749315623417 549.3042644575447,623.0583118145802 C 505.92088420530627,579.6749315623417 516.7667292683659,541.714473841633 549.3042644575447,514.599861183984 Z" fill="url(#leaf9)" opacity="0.28" transform="rotate(0.7 549.3 568.8)"/>
    <path d="M 1155.9765154923755,750.4283047706832 C 1195.0375793316439,782.979191303407 1208.0579339447333,828.5504324492201 1155.9765154923755,880.6318509015781 C 1103.8950970400176,828.5504324492201 1116.915451653107,782.979191303407 1155.9765154923755,750.4283047706832 Z" fill="url(#leaf10)" opacity="0.33" transform="rotate(313.6 1156.0 815.5)"/>
    <path d="M 889.4370576618603,523.9114717983305 C 932.704257708645,559.9674718373177 947.1266577242397,610.4458718918997 889.4370576618603,668.1354719542792 C 831.7474575994809,610.4458718918997 846.1698576150757,559.9674718373177 889.4370576618603,523.9114717983305 Z" fill="url(#leaf11)" opacity="0.20" transform="rotate(229.0 889.4 596.0)"/>
    <path d="M 1861.107319095323,592.294698410094 C 1919.635236288621,641.0679627378423 1939.1445420197201,709.3505327966899 1861.107319095323,787.3877557210872 C 1783.0700961709258,709.3505327966899 1802.579401902025,641.0679627378423 1861.107319095323,592.294698410094 Z" fill="url(#leaf12)" opacity="0.29" transform="rotate(334.7 1861.1 689.8)"/>
    <path d="M 1712.8276270681124,371.46371494315787 C 1754.6673383960492,406.3301410497719 1768.613908838695,455.1431375990315 1712.8276270681124,510.92941936961387 C 1657.04134529753,455.1431375990315 1670.9879157401756,406.3301410497719 1712.8276270681124,371.46371494315787 Z" fill="url(#leaf13)" opacity="0.35" transform="rotate(71.9 1712.8 441.2)"/>
    <path d="M 1715.696481560168,587.9260004885389 C 1763.031736403602,627.3720461914005 1778.8101546847467,682.5965101754069 1715.696481560168,745.7101832999856 C 1652.5828084355892,682.5965101754069 1668.3612267167339,627.3720461914005 1715.696481560168,587.9260004885389 Z" fill="url(#leaf14)" opacity="0.31" transform="rotate(229.3 1715.7 666.8)"/>
    <path d="M 147.07714769861468,-0.014083025681287609 C 192.81572097971113,38.10139470856575 208.06191207340993,91.4630635365116 147.07714769861468,152.44782791130686 C 86.09238332381942,91.4630635365116 101.33857441751823,38.10139470856575 147.07714769861468,-0.014083025681287609 Z" fill="url(#leaf15)" opacity="0.27" transform="rotate(249.1 147.1 76.2)"/>
    <path d="M 1316.172745511443,128.31035499563558 C 1345.4398188083305,152.69958274304184 1355.1955099072932,186.8445015894106 1316.172745511443,225.86726598526064 C 1277.149981115593,186.8445015894106 1286.9056722145556,152.69958274304184 1316.172745511443,128.31035499563558 Z" fill="url(#leaf16)" opacity="0.24" transform="rotate(19.2 1316.2 177.1)"/>
    <path d="M 852.172992742858,37.36115410754161 C 907.2817673871688,83.28513297780056 925.6513589352724,147.5787033961631 852.172992742858,221.0570695885774 C 778.6946265504437,147.5787033961631 797.0642180985473,83.28513297780056 852.172992742858,37.36115410754161 Z" fill="url(#leaf17)" opacity="0.31" transform="rotate(56.1 852.2 129.2)"/>
    <path d="M 181.0527558227062,643.501704810745 C 210.47283489992668,668.0184373750955 220.27952792566686,702.341862965186 181.0527558227062,741.5686350681467 C 141.82598371974552,702.341862965186 151.6326767454857,668.0184373750955 181.0527558227062,643.501704810745 Z" fill="url(#leaf18)" opacity="0.39" transform="rotate(134.4 181.1 692.5)"/>
    <path d="M 344.7216364321459,618.8309182241325 C 394.3848031950564,660.2168905265579 410.93919211602656,718.1572517499535 344.7216364321459,784.3748074338342 C 278.5040807482652,718.1572517499535 295.05846966923536,660.2168905265579 344.7216364321459,618.8309182241325 Z" fill="url(#leaf19)" opacity="0.21" transform="rotate(186.4 344.7 701.6)"/>
    <path d="M 200.5219405288234,43.9738830397727 C 249.29895391348336,84.62139419365602 265.5579583750367,141.52790980909265 200.5219405288234,206.56392765530597 C 135.48592268261007,141.52790980909265 151.74492714416343,84.62139419365602 200.5219405288234,43.9738830397727 Z" fill="url(#leaf0)" opacity="0.39" transform="rotate(36.6 200.5 125.3)"/>
    <path d="M 1440.1844799510607,260.99206666320765 C 1479.9827737174373,294.1573114685215 1493.2488716395628,340.58865419596094 1440.1844799510607,393.65304588446315 C 1387.1200882625585,340.58865419596094 1400.386186184684,294.1573114685215 1440.1844799510607,260.99206666320765 Z" fill="url(#leaf1)" opacity="0.35" transform="rotate(310.7 1440.2 327.3)"/>
    <path d="M 853.1251804358421,868.3509534754098 C 906.0797018764129,912.4797213425521 923.7312090232698,974.2599963565514 853.1251804358421,1044.866024943979 C 782.5191518484145,974.2599963565514 800.1706589952714,912.4797213425521 853.1251804358421,868.3509534754098 Z" fill="url(#leaf2)" opacity="0.30" transform="rotate(125.2 853.1 956.6)"/>
    <path d="M 1562.3801559286003,224.72105073311434 C 1593.487540393418,250.64387112046245 1603.8566685483572,286.9358196627498 1562.3801559286003,328.4123322825068 C 1520.9036433088434,286.9358196627498 1531.2727714637826,250.64387112046245 1562.3801559286003,224.72105073311434 Z" fill="url(#leaf3)" opacity="0.32" transform="rotate(102.4 1562.4 276.6)"/>
    <path d="M 1599.6676795948213,341.95392442774596 C 1656.1972234936243,389.0618776767484 1675.0404047932252,455.0130122253519 1599.6676795948213,530.3857374237558 C 1524.2949543964173,455.0130122253519 1543.1381356960183,389.0618776767484 1599.6676795948213,341.95392442774596 Z" fill="url(#leaf4)" opacity="0.25" transform="rotate(244.3 1599.7 436.2)"/>
    <path d="M 1585.4273765764926,22.858258593074467 C 1610.5700767071182,43.810508701929145 1618.9509767506602,73.1436588543257 1585.4273765764926,106.66725902849318 C 1551.903776402325,73.1436588543257 1560.284676445867,43.810508701929145 1585.4273765764926,22.858258593074467 Z" fill="url(#leaf5)" opacity="0.39" transform="rotate(285.3 1585.4 64.8)"/>
    <path d="M 633.4737404301873,126.9326185096109 C 667.7636989152297,155.5075839138129 679.1936850769105,195.5125354796957 633.4737404301873,241.23248012641892 C 587.753795783464,195.5125354796957 599.1837819451448,155.5075839138129 633.4737404301873,126.9326185096109 Z" fill="url(#leaf6)" opacity="0.29" transform="rotate(319.8 633.5 184.1)"/>
    <path d="M 217.38063116915174,859.6203994517564 C 241.50457519665974,879.7236861413463 249.54588987249576,907.8682875067724 217.38063116915174,940.0335462101164 C 185.21537246580772,907.8682875067724 193.25668714164374,879.7236861413463 217.38063116915174,859.6203994517564 Z" fill="url(#leaf7)" opacity="0.28" transform="rotate(78.5 217.4 899.8)"/>
    <path d="M 300.71524879941376,950.7075444649215 C 340.8306901540778,984.1370789271415 354.2025039389658,1030.9384271742495 300.71524879941376,1084.4256823138014 C 247.22799365986174,1030.9384271742495 260.59980744474973,984.1370789271415 300.71524879941376,950.7075444649215 Z" fill="url(#leaf8)" opacity="0.28" transform="rotate(117.4 300.7 1017.6)"/>
    <path d="M 1009.6930380910217,797.7178762367564 C 1062.137702610694,841.4217633364834 1079.6192574505849,902.6072052761011 1009.6930380910217,972.5334246356642 C 939.7668187314586,902.6072052761011 957.2483735713494,841.4217633364834 1009.6930380910217,797.7178762367564 Z" fill="url(#leaf9)" opacity="0.28" transform="rotate(119.9 1009.7 885.1)"/>
    <path d="M 777.8925943449265,275.629748197111 C 812.6112036065464,304.56192258179425 824.1840733604197,345.0669667203508 777.8925943449265,391.35844573584404 C 731.6011153294332,345.0669667203508 743.1739850833065,304.56192258179425 777.8925943449265,275.629748197111 Z" fill="url(#leaf10)" opacity="0.39" transform="rotate(267.6 777.9 333.5)"/>
    <path d="M 522.4198851365949,290.1392117957627 C 560.774135958339,322.10108748054955 573.5588862322537,366.84771343925104 522.4198851365949,417.98671453490994 C 471.280884040936,366.84771343925104 484.06563431485074,322.10108748054955 522.4198851365949,290.1392117957627 Z" fill="url(#leaf11)" opacity="0.24" transform="rotate(4.5 522.4 354.1)"/>
    <path d="M 687.0704464988258,424.8400523784578 C 731.2986121677494,461.6968571025608 746.0413340573906,513.296383716305 687.0704464988258,572.2672712748697 C 628.0995589402611,513.296383716305 642.8422808299023,461.6968571025608 687.0704464988258,424.8400523784578 Z" fill="url(#leaf12)" opacity="0.35" transform="rotate(256.3 687.1 498.6)"/>
    <path d="M 663.6137417114045,674.7256763792755 C 708.0879156071558,711.7874879590681 722.9126402390729,763.674024170778 663.6137417114045,822.9729226984464 C 604.3148431837361,763.674024170778 619.1395678156532,711.7874879590681 663.6137417114045,674.7256763792755 Z" fill="url(#leaf13)" opacity="0.35" transform="rotate(274.9 663.6 748.8)"/>
    <path d="M 186.87340449225366,61.38150280602639 C 239.78586149105968,105.47521697169807 257.42334715732835,167.20641680363843 186.87340449225366,237.75635946871313 C 116.32346182717896,167.20641680363843 133.96094749344763,105.47521697169807 186.87340449225366,61.38150280602639 Z" fill="url(#leaf14)" opacity="0.25" transform="rotate(54.8 186.9 149.6)"/>
    <path d="M 1215.19175132926,458.22543328778954 C 1248.6191559933498,486.0816038411978 1259.7616242147133,525.0802426159694 1215.19175132926,569.6501155014226 C 1170.6218784438065,525.0802426159694 1181.76434666517,486.0816038411978 1215.19175132926,458.22543328778954 Z" fill="url(#leaf15)" opacity="0.25" transform="rotate(95.2 1215.2 513.9)"/>
    <path d="M 83.59646721338832,82.35660316872499 C 124.62820179438897,116.54971531955886 138.30544665472252,164.4200723307263 83.59646721338832,219.1290517720605 C 28.887487772054115,164.4200723307263 42.564732632387674,116.54971531955886 83.59646721338832,82.35660316872499 Z" fill="url(#leaf16)" opacity="0.24" transform="rotate(134.2 83.6 150.7)"/>
    <path d="M 914.2037833456915,124.32575082262437 C 961.8656276731178,164.04395442881298 977.7529091155932,219.649439477477 914.2037833456915,283.1985652473787 C 850.6546575757898,219.649439477477 866.5419390182651,164.04395442881298 914.2037833456915,124.32575082262437 Z" fill="url(#leaf17)" opacity="0.37" transform="rotate(137.6 914.2 203.8)"/>
    <path d="M 1628.5509873295318,30.93301047930194 C 1656.365429912266,54.11171263158052 1665.6369107731775,86.56189564477052 1628.5509873295318,123.64781908841624 C 1591.4650638858861,86.56189564477052 1600.7365447467976,54.11171263158052 1628.5509873295318,30.93301047930194 Z" fill="url(#leaf18)" opacity="0.30" transform="rotate(6.2 1628.6 77.3)"/>
    <path d="M 992.0771728705465,927.0606529918751 C 1029.6567455749503,958.3769635788783 1042.1832698097514,1002.2197984006826 992.0771728705465,1052.3258953398874 C 941.9710759313416,1002.2197984006826 954.4976001661428,958.3769635788783 992.0771728705465,927.0606529918751 Z" fill="url(#leaf19)" opacity="0.30" transform="rotate(309.7 992.1 989.7)"/>
    <path d="M 1042.666604414051,501.6468797115542 C 1099.3103737277977,548.8500208063431 1118.1916301657131,614.9344183390474 1042.666604414051,690.4594440907094 C 967.1415786623891,614.9344183390474 986.0228351003045,548.8500208063431 1042.666604414051,501.6468797115542 Z" fill="url(#leaf0)" opacity="0.31" transform="rotate(346.6 1042.7 596.1)"/>
    <path d="M 1064.3891265407524,554.5399302333278 C 1104.8638070508462,588.268830658406 1118.3553672208775,635.4892912535154 1064.3891265407524,689.4555319336405 C 1010.4228858606274,635.4892912535154 1023.9144460306586,588.268830658406 1064.3891265407524,554.5399302333278 Z" fill="url(#leaf1)" opacity="0.22" transform="rotate(115.8 1064.4 622.0)"/>
    <path d="M 727.9949472140255,686.1073642892828 C 786.3539817081585,734.7398930343936 805.8069932062027,802.8254332775488 727.9949472140255,880.637479269726 C 650.1829012218483,802.8254332775488 669.6359127198925,734.7398930343936 727.9949472140255,686.1073642892828 Z" fill="url(#leaf2)" opacity="0.31" transform="rotate(290.4 728.0 783.4)"/>
    <path d="M 1675.9818800100984,188.22591217043157 C 1715.6979998417994,221.3226786968491 1728.9367064523665,267.65815183383364 1675.9818800100984,320.6129782761017 C 1623.0270535678303,267.65815183383364 1636.2657601783974,221.3226786968491 1675.9818800100984,188.22591217043157 Z" fill="url(#leaf3)" opacity="0.24" transform="rotate(51.1 1676.0 254.4)"/>
    <path d="M 1581.8900051528026,787.3845101565219 C 1629.7273608124947,827.2489732062652 1645.673146032392,883.0592214759058 1581.8900051528026,946.8423623554952 C 1518.1068642732132,883.0592214759058 1534.0526494931105,827.2489732062652 1581.8900051528026,787.3845101565219 Z" fill="url(#leaf4)" opacity="0.34" transform="rotate(156.8 1581.9 867.1)"/>
    <path d="M 1649.3055940771526,344.5326394232201 C 1683.9889428814406,373.43543009346007 1695.5500591495365,413.89933703179605 1649.3055940771526,460.14380210418005 C 1603.0611290047686,413.89933703179605 1614.6222452728646,373.43543009346007 1649.3055940771526,344.5326394232201 Z" fill="url(#leaf5)" opacity="0.37" transform="rotate(88.5 1649.3 402.3)"/>
    <path d="M 1542.4780807494585,430.5152714384415 C 1572.6523500579758,455.6604958622059 1582.7104398274814,490.86381005547594 1542.4780807494585,531.0961691334988 C 1502.2457216714356,490.86381005547594 1512.3038114409412,455.6604958622059 1542.4780807494585,430.5152714384415 Z" fill="url(#leaf6)" opacity="0.24" transform="rotate(341.2 1542.5 480.8)"/>
    <path d="M 1721.9829249971453,850.1923338024025 C 1779.6937218593407,898.2846645208986 1798.930654146739,965.6139275267931 1721.9829249971453,1042.5616566763867 C 1645.0351958475517,965.6139275267931 1664.27212813495,898.2846645208986 1721.9829249971453,850.1923338024025 Z" fill="url(#leaf7)" opacity="0.40" transform="rotate(303.7 1722.0 946.4)"/>
    <path d="M 1329.114409589095,363.6691138787195 C 1367.285736201731,395.4785527225829 1380.0095117392764,440.0117671039916 1329.114409589095,490.906869254173 C 1278.2193074389136,440.0117671039916 1290.943082976459,395.4785527225829 1329.114409589095,363.6691138787195 Z" fill="url(#leaf8)" opacity="0.33" transform="rotate(344.6 1329.1 427.3)"/>
    <path d="M 626.3509878958761,495.72308209956685 C 657.285732902459,521.5020362717194 667.59731457132,557.5925721127328 626.3509878958761,598.8388987881767 C 585.1046612204321,557.5925721127328 595.4162428892931,521.5020362717194 626.3509878958761,495.72308209956685 Z" fill="url(#leaf9)" opacity="0.22" transform="rotate(69.1 626.4 547.3)"/>
    <path d="M 878.9882632050667,707.6718102035751 C 930.1152247110737,750.2776114585809 947.1575452130759,809.9257332155889 878.9882632050667,878.0950152235981 C 810.8189811970575,809.9257332155889 827.8613016990597,750.2776114585809 878.9882632050667,707.6718102035751 Z" fill="url(#leaf10)" opacity="0.36" transform="rotate(46.9 879.0 792.9)"/>
    <path d="M 1205.366727280546,269.58773314114126 C 1251.3155362425118,307.8784072761129 1266.6318058965005,361.48535106507313 1205.366727280546,422.75042968102775 C 1144.1016486645915,361.48535106507313 1159.4179183185802,307.8784072761129 1205.366727280546,269.58773314114126 Z" fill="url(#leaf11)" opacity="0.30" transform="rotate(53.6 1205.4 346.2)"/>
    <path d="M 468.8560240120466,464.4829514006735 C 506.58985150573756,495.927807645416 519.1677940036345,539.9506063880555 468.8560240120466,590.2623763796435 C 418.5442540204586,539.9506063880555 431.1221965183556,495.927807645416 468.8560240120466,464.4829514006735 Z" fill="url(#leaf12)" opacity="0.33" transform="rotate(121.1 468.9 527.4)"/>
    <path d="M 244.66302383173417,441.71190959103126 C 271.4519355568319,464.03600269527936 280.3815727985312,495.2897330412268 244.66302383173417,531.0082820080238 C 208.94447486493715,495.2897330412268 217.8741121066364,464.03600269527936 244.66302383173417,441.71190959103126 Z" fill="url(#leaf13)" opacity="0.38" transform="rotate(143.2 244.7 486.4)"/>
    <path d="M 1793.618707365678,190.20137175344198 C 1848.327546821898,235.79207130029215 1866.5638266406381,299.61905066588236 1793.618707365678,372.5641699408426 C 1720.6735880907177,299.61905066588236 1738.9098679094577,235.79207130029215 1793.618707365678,190.20137175344198 Z" fill="url(#leaf14)" opacity="0.21" transform="rotate(71.8 1793.6 281.4)"/>
    <path d="M 1538.589646506339,135.64839926634727 C 1598.559726043084,185.62346554696808 1618.5497525553324,255.58855833983725 1538.589646506339,335.54866438883056 C 1458.6295404573457,255.58855833983725 1478.619566969594,185.62346554696808 1538.589646506339,135.64839926634727 Z" fill="url(#leaf15)" opacity="0.26" transform="rotate(287.6 1538.6 235.6)"/>
    <path d="M 867.2642139964438,708.9068174944554 C 904.2489140368924,739.7274008614959 916.5771473837086,782.8762175753526 867.2642139964438,832.1891509626174 C 817.951280609179,782.8762175753526 830.2795139559952,739.7274008614959 867.2642139964438,708.9068174944554 Z" fill="url(#leaf16)" opacity="0.35" transform="rotate(92.0 867.3 770.5)"/>
    <path d="M 828.0180194519617,445.4894510236386 C 874.2863689997819,484.04640898015543 889.7091521823886,538.026150119279 828.0180194519617,599.717282849706 C 766.3268867215347,538.026150119279 781.7496699041415,484.04640898015543 828.0180194519617,445.4894510236386 Z" fill="url(#leaf17)" opacity="0.21" transform="rotate(175.4 828.0 522.6)"/>
    <path d="M 408.9273025063043,666.3039665442536 C 444.60530657889694,696.0356366047475 456.49797460309446,737.659974689439 408.9273025063043,785.2306467862293 C 361.3566304095141,737.659974689439 373.2492984337116,696.0356366047475 408.9273025063043,666.3039665442536 Z" fill="url(#leaf18)" opacity="0.21" transform="rotate(206.0 408.9 725.8)"/>
    <path d="M 893.1983151531812,731.9175364135381 C 934.5288878689455,766.3596803433416 948.3057454408669,814.5786818450665 893.1983151531812,869.6861121327522 C 838.0908848654955,814.5786818450665 851.8677424374168,766.3596803433416 893.1983151531812,731.9175364135381 Z" fill="url(#leaf19)" opacity="0.27" transform="rotate(305.1 893.2 800.8)"/>
    <path d="M 1099.9608902175707,9.47979797968597 C 1129.2069283422736,33.851496416938375 1138.9556077171746,67.97187422909174 1099.9608902175707,106.96659172869559 C 1060.9661727179669,67.97187422909174 1070.7148520928679,33.851496416938375 1099.9608902175707,9.47979797968597 Z" fill="url(#leaf0)" opacity="0.22" transform="rotate(87.0 1100.0 58.2)"/>
    <path d="M 1348.2503336245336,406.9526680050295 C 1390.545915832069,442.198986511309 1404.6444432345809,491.54383242010033 1348.2503336245336,547.9379420301475 C 1291.8562240144863,491.54383242010033 1305.954751416998,442.198986511309 1348.2503336245336,406.9526680050295 Z" fill="url(#leaf1)" opacity="0.21" transform="rotate(12.4 1348.3 477.4)"/>
    <path d="M 787.915363217939,34.9620951511729 C 826.9724403196236,67.50965940257674 839.9914660201852,113.07624935454214 787.915363217939,165.1523521567883 C 735.8392604156928,113.07624935454214 748.8582861162544,67.50965940257674 787.915363217939,34.9620951511729 Z" fill="url(#leaf2)" opacity="0.30" transform="rotate(105.1 787.9 100.1)"/>
    <path d="M 1376.1095058217788,172.61004892985724 C 1419.0959202857389,208.43206098315738 1433.424725107059,258.58287785777753 1376.1095058217788,315.8980971430577 C 1318.7942865364987,258.58287785777753 1333.1230913578188,208.43206098315738 1376.1095058217788,172.61004892985724 Z" fill="url(#leaf3)" opacity="0.26" transform="rotate(290.2 1376.1 244.3)"/>
    <path d="M 819.3889759166378,285.5077251293328 C 872.5797209979231,329.83334603040396 890.3099693583516,391.8892152919035 819.3889759166378,462.8102087336173 C 748.467982474924,391.8892152919035 766.1982308353525,329.83334603040396 819.3889759166378,285.5077251293328 Z" fill="url(#leaf4)" opacity="0.39" transform="rotate(49.1 819.4 374.2)"/>
    <path d="M 78.87696876860716,502.58462571795746 C 120.52704302816602,537.2930209342564 134.41040111468564,585.8847742370751 78.87696876860716,641.4182065831536 C 23.343536422528672,585.8847742370751 37.22689450904829,537.2930209342564 78.87696876860716,502.58462571795746 Z" fill="url(#leaf5)" opacity="0.21" transform="rotate(320.1 78.9 572.0)"/>
    <path d="M 963.6673292974716,824.7115085728564 C 1003.7683515671499,858.1290271309217 1017.1353589903761,904.9135531122131 963.6673292974716,958.3815828051175 C 910.1992996045672,904.9135531122131 923.5663070277933,858.1290271309217 963.6673292974716,824.7115085728564 Z" fill="url(#leaf6)" opacity="0.29" transform="rotate(98.1 963.7 891.5)"/>
    <path d="M 375.3346990409526,760.1349737767291 C 406.246407709772,785.8947310007453 416.5503105993784,821.9583911143678 375.3346990409526,863.1740026727937 C 334.1190874825268,821.9583911143678 344.42299037213326,785.8947310007453 375.3346990409526,760.1349737767291 Z" fill="url(#leaf7)" opacity="0.21" transform="rotate(41.9 375.3 811.7)"/>
    <path d="M 1159.1917412594937,228.1016836328704 C 1218.975584014266,277.9215525951805 1238.90353159919,347.6693691424148 1159.1917412594937,427.381159482111 C 1079.4799509197974,347.6693691424148 1099.4078985047215,277.9215525951805 1159.1917412594937,228.1016836328704 Z" fill="url(#leaf8)" opacity="0.37" transform="rotate(211.2 1159.2 327.7)"/>
    <path d="M 986.0055016963989,18.609191135260204 C 1022.2842123046281,48.841449975451226 1034.3771158407046,91.16661235171865 986.0055016963989,139.5382264960243 C 937.6338875520933,91.16661235171865 949.7267910881698,48.841449975451226 986.0055016963989,18.609191135260204 Z" fill="url(#leaf9)" opacity="0.30" transform="rotate(161.9 986.0 79.1)"/>
    <path d="M 1166.9666961620187,939.9778528068093 C 1206.1664510840187,972.6443152418093 1219.2330360580186,1018.3773626508092 1166.9666961620187,1070.6437025468092 C 1114.7003562660188,1018.3773626508092 1127.7669412400187,972.6443152418093 1166.9666961620187,939.9778528068093 Z" fill="url(#leaf10)" opacity="0.30" transform="rotate(37.5 1167.0 1005.3)"/>
    <path d="M 1718.560150869277,682.5596109534112 C 1768.9906397354653,724.5850183419013 1785.8008026908615,783.4205886857876 1718.560150869277,850.6612405073719 C 1651.3194990476927,783.4205886857876 1668.129662003089,724.5850183419013 1718.560150869277,682.5596109534112 Z" fill="url(#leaf11)" opacity="0.30" transform="rotate(63.6 1718.6 766.6)"/>
    <path d="M 1614.6765858645813,518.3084553055776 C 1654.4421557441156,551.4464302051896 1667.6973457039603,597.8395950646462 1614.6765858645813,650.8603549040254 C 1561.6558260252023,597.8395950646462 1574.911015985047,551.4464302051896 1614.6765858645813,518.3084553055776 Z" fill="url(#leaf12)" opacity="0.28" transform="rotate(36.7 1614.7 584.6)"/>
    <path d="M 1630.4108503486411,480.68998934014314 C 1664.7630075339875,509.31678699459843 1676.2137265957697,549.3943037108359 1630.4108503486411,595.1971799579643 C 1584.6079741015126,549.3943037108359 1596.0586931632947,509.31678699459843 1630.4108503486411,480.68998934014314 Z" fill="url(#leaf13)" opacity="0.27" transform="rotate(205.1 1630.4 537.9)"/>
    <path d="M 463.7326288841964,37.56471296891529 C 491.45798610118857,60.669177316408756 500.699771840186,93.01542740289962 463.7326288841964,129.98257035888918 C 426.76548592820683,93.01542740289962 436.00727166720424,60.669177316408756 463.7326288841964,37.56471296891529 Z" fill="url(#leaf14)" opacity="0.20" transform="rotate(172.2 463.7 83.8)"/>
    <path d="M 602.1095919567198,693.7807651090346 C 629.1461394434882,716.3112213480083 638.1583219390776,747.8538600825715 602.1095919567198,783.9025900649293 C 566.060861974362,747.8538600825715 575.0730444699514,716.3112213480083 602.1095919567198,693.7807651090346 Z" fill="url(#leaf15)" opacity="0.36" transform="rotate(99.5 602.1 738.8)"/>
    <path d="M 597.5937012880156,33.236378842191954 C 629.3985544488677,59.740423142902046 640.0001721691517,96.84608516389618 597.5937012880156,139.25255604503232 C 555.1872304068795,96.84608516389618 565.7888481271635,59.740423142902046 597.5937012880156,33.236378842191954 Z" fill="url(#leaf16)" opacity="0.36" transform="rotate(25.1 597.6 86.2)"/>
    <path d="M 1837.9922590132055,634.9547676995637 C 1872.5558918640997,663.757795075309 1884.077102814398,704.0820334013522 1837.9922590132055,750.1668772025446 C 1791.9074152120131,704.0820334013522 1803.4286261623113,663.757795075309 1837.9922590132055,634.9547676995637 Z" fill="url(#leaf17)" opacity="0.30" transform="rotate(97.3 1838.0 692.6)"/>
    <path d="M 1845.148058668234,43.38488379923511 C 1898.0730375766018,87.48903288954159 1915.7146972127243,149.23484161597065 1845.148058668234,219.80148016046098 C 1774.5814201237436,149.23484161597065 1792.223079759866,87.48903288954159 1845.148058668234,43.38488379923511 Z" fill="url(#leaf18)" opacity="0.26" transform="rotate(265.9 1845.1 131.6)"/>
    <path d="M 1326.3088150096312,348.600169964108 C 1385.963472061704,398.3123841741686 1405.8483577457282,467.90948406825345 1326.3088150096312,547.4490268043504 C 1246.7692722735342,467.90948406825345 1266.6541579575585,398.3123841741686 1326.3088150096312,348.600169964108 Z" fill="url(#leaf19)" opacity="0.34" transform="rotate(265.6 1326.3 448.0)"/>
    <path d="M 372.83666443765196,510.0787728183618 C 426.52504891226454,554.8190932138723 444.42117707046873,617.455541767587 372.83666443765196,689.0400544004037 C 301.2521518048352,617.455541767587 319.1482799630394,554.8190932138723 372.83666443765196,510.0787728183618 Z" fill="url(#leaf0)" opacity="0.26" transform="rotate(239.0 372.8 599.6)"/>
    <path d="M 1724.4534114193577,463.64637112451237 C 1774.3579623400112,505.2334968917237 1790.9928126468958,563.4554729658196 1724.4534114193577,629.9948741933576 C 1657.9140101918197,563.4554729658196 1674.5488604987042,505.2334968917237 1724.4534114193577,463.64637112451237 Z" fill="url(#leaf1)" opacity="0.35" transform="rotate(162.5 1724.5 546.8)"/>
    <path d="M 759.5206836468989,344.55981162246496 C 814.6770322081477,390.52343542350565 833.062481728564,454.8725087449626 759.5206836468989,528.4143068266277 C 685.9788855652338,454.8725087449626 704.36433508565,390.52343542350565 759.5206836468989,344.55981162246496 Z" fill="url(#leaf2)" opacity="0.30" transform="rotate(158.0 759.5 436.5)"/>
    <path d="M 109.84997769382807,384.4392476524531 C 167.05190523534847,432.1075206037201 186.11921441585525,498.8431027354939 109.84997769382807,575.1123394575211 C 33.580740971800864,498.8431027354939 52.64805015230767,432.1075206037201 109.84997769382807,384.4392476524531 Z" fill="url(#leaf3)" opacity="0.24" transform="rotate(44.5 109.8 479.8)"/>
    <path d="M 288.7914164250518,734.9622673331763 C 324.8423889863776,765.0047444676145 336.8593798401529,807.0642124558279 288.7914164250518,855.132175870929 C 240.7234530099507,807.0642124558279 252.740443863726,765.0047444676145 288.7914164250518,734.9622673331763 Z" fill="url(#leaf4)" opacity="0.39" transform="rotate(193.3 288.8 795.0)"/>
    <path d="M 272.328142031619,869.5315428471981 C 305.97931634594374,897.5741881091354 317.1963744507186,936.8338914758476 272.328142031619,981.7021238949474 C 227.45990961251934,936.8338914758476 238.67696771729425,897.5741881091354 272.328142031619,869.5315428471981 Z" fill="url(#leaf5)" opacity="0.40" transform="rotate(163.9 272.3 925.6)"/>
    <path d="M 1509.015974500157,344.3999332804472 C 1552.3888631264813,380.5440071357175 1566.8464926685895,431.14571053309584 1509.015974500157,488.9762287015282 C 1451.1854563317245,431.14571053309584 1465.6430858738327,380.5440071357175 1509.015974500157,344.3999332804472 Z" fill="url(#leaf6)" opacity="0.20" transform="rotate(146.5 1509.0 416.7)"/>
    <path d="M 1557.4853395984424,849.7633023977398 C 1582.5368412189825,870.6395537481899 1590.8873417591626,899.8663056388201 1557.4853395984424,933.2683077995403 C 1524.083337437722,899.8663056388201 1532.4338379779022,870.6395537481899 1557.4853395984424,849.7633023977398 Z" fill="url(#leaf7)" opacity="0.35" transform="rotate(81.8 1557.5 891.5)"/>
    <path d="M 1768.6585087934002,153.25491646339594 C 1813.0293057423019,190.23058058748066 1827.8195713919358,241.99651036119926 1768.6585087934002,301.1575729597348 C 1709.4974461948646,241.99651036119926 1724.2877118444985,190.23058058748066 1768.6585087934002,153.25491646339594 Z" fill="url(#leaf8)" opacity="0.21" transform="rotate(357.9 1768.7 227.2)"/>
    <path d="M 301.85064103113154,386.85063724950595 C 360.1188973716089,435.40751753323707 379.54164948510135,503.3871499304606 301.85064103113154,581.0781583844305 C 224.15963257716174,503.3871499304606 243.5823846906542,435.40751753323707 301.85064103113154,386.85063724950595 Z" fill="url(#leaf9)" opacity="0.36" transform="rotate(264.0 301.9 484.0)"/>
    <path d="M 659.6547958411164,269.2260837909664 C 703.4609300969272,305.73119567080875 718.0629748488641,356.83835230258796 659.6547958411164,415.2465313103356 C 601.2466168333688,356.83835230258796 615.8486615853056,305.73119567080875 659.6547958411164,269.2260837909664 Z" fill="url(#leaf10)" opacity="0.21" transform="rotate(188.3 659.7 342.2)"/>
    <path d="M 738.2094012610553,723.2026542715296 C 784.5255722707708,761.7994634462925 799.964295940676,815.8349962909606 738.2094012610553,877.5898909705813 C 676.4545065814345,815.8349962909606 691.8932302513398,761.7994634462925 738.2094012610553,723.2026542715296 Z" fill="url(#leaf11)" opacity="0.24" transform="rotate(109.2 738.2 800.4)"/>
    <path d="M 1292.77857068854,555.4819016932424 C 1334.5404513512299,590.2834689121509 1348.4610782387933,639.0056630186225 1292.77857068854,694.6881705688759 C 1237.0960631382866,639.0056630186225 1251.01669002585,590.2834689121509 1292.77857068854,555.4819016932424 Z" fill="url(#leaf12)" opacity="0.25" transform="rotate(187.7 1292.8 625.1)"/>
    <path d="M 721.3271096649052,98.60616897891231 C 752.5782079018988,124.64875084307377 762.9952406475635,161.10836545289982 721.3271096649052,202.77649643555816 C 679.6589786822468,161.10836545289982 690.0760114279115,124.64875084307377 721.3271096649052,98.60616897891231 Z" fill="url(#leaf13)" opacity="0.37" transform="rotate(102.6 721.3 150.7)"/>
    <path d="M 1412.2889861131277,804.2972204931293 C 1441.7436576260109,828.8427800871984 1451.5618814636384,863.2065635188953 1412.2889861131277,902.479458869406 C 1373.016090762617,863.2065635188953 1382.8343146002446,828.8427800871984 1412.2889861131277,804.2972204931293 Z" fill="url(#leaf14)" opacity="0.26" transform="rotate(122.6 1412.3 853.4)"/>
    <path d="M 824.3195046489143,560.4413701980659 C 878.1441763448845,605.295263278041 896.0857335768746,668.0907135900063 824.3195046489143,739.8569425179667 C 752.5532757209539,668.0907135900063 770.4948329529441,605.295263278041 824.3195046489143,560.4413701980659 Z" fill="url(#leaf15)" opacity="0.25" transform="rotate(213.3 824.3 650.1)"/>
    <path d="M 1121.8200447669958,394.59602646224215 C 1157.2653805017626,424.1338062412146 1169.0804924133517,465.48669793177595 1121.8200447669958,512.7471455781317 C 1074.5595971206399,465.48669793177595 1086.374709032229,424.1338062412146 1121.8200447669958,394.59602646224215 Z" fill="url(#leaf16)" opacity="0.26" transform="rotate(198.5 1121.8 453.7)"/>
    <path d="M 1441.4020907037136,592.0860886988928 C 1500.2988927384238,641.1667570611513 1519.931160083327,709.8796927683131 1441.4020907037136,788.4087621479266 C 1362.8730213241001,709.8796927683131 1382.5052886690034,641.1667570611513 1441.4020907037136,592.0860886988928 Z" fill="url(#leaf17)" opacity="0.21" transform="rotate(66.8 1441.4 690.2)"/>
    <path d="M 1427.7241520013854,128.8259604372309 C 1451.8459227331762,148.92743604705657 1459.8865129771066,177.06950190081253 1427.7241520013854,209.23186287653363 C 1395.5617910256642,177.06950190081253 1403.6023812695946,148.92743604705657 1427.7241520013854,128.8259604372309 Z" fill="url(#leaf18)" opacity="0.28" transform="rotate(230.5 1427.7 169.0)"/>
    <path d="M 588.8653272726696,593.2316136738888 C 648.5143914044186,642.939167117013 668.3974127816683,712.5297419373868 588.8653272726696,792.0618274463856 C 509.33324176367086,712.5297419373868 529.2162631409205,642.939167117013 588.8653272726696,593.2316136738888 Z" fill="url(#leaf19)" opacity="0.33" transform="rotate(63.4 588.9 692.6)"/>
    <path d="M 1296.573845903476,-15.949838936278226 C 1338.9678981185875,19.378537909648017 1353.099248856958,68.83826549394476 1296.573845903476,125.36366844742675 C 1240.048442949994,68.83826549394476 1254.1797936883645,19.378537909648017 1296.573845903476,-15.949838936278226 Z" fill="url(#leaf0)" opacity="0.23" transform="rotate(339.1 1296.6 54.7)"/>
    <path d="M 1806.6431124584785,437.12813395163073 C 1851.286393814107,474.3308684146545 1866.1674875993167,526.4146966628878 1806.6431124584785,585.9390718037258 C 1747.1187373176404,526.4146966628878 1761.99983110285,474.3308684146545 1806.6431124584785,437.12813395163073 Z" fill="url(#leaf1)" opacity="0.34" transform="rotate(336.6 1806.6 511.5)"/>
    <path d="M 846.4104933610388,33.381759708281905 C 885.6860256243942,66.11136992774475 898.7778697121794,111.93282423499272 846.4104933610388,164.30020058613326 C 794.0431170098982,111.93282423499272 807.1349610976833,66.11136992774475 846.4104933610388,33.381759708281905 Z" fill="url(#leaf2)" opacity="0.24" transform="rotate(219.7 846.4 98.8)"/>
  </g>

  <!-- Central star shape -->
  <polygon points="960.0,259.6 1042.4,426.6 1226.6,453.4 1093.3,583.3 1124.8,766.8 960.0,680.2 795.2,766.8 826.7,583.3 693.4,453.4 877.6,426.6" 
           fill="#00FA9A" 
           transform="rotate(146.6 960.0 540.0)"/>
</svg>