<?xml version="1.0" encoding="UTF-8"?>
<svg xmlns="http://www.w3.org/2000/svg" viewBox="0 0 1920 1080" width="1920" height="1080">
  <defs>
    <linearGradient id="bgGrad" x1="0%" y1="0%" x2="100%" y2="100%">
      <stop offset="0%" stop-color="#96E6A1"/>
      <stop offset="100%" stop-color="#FF4500"/>
    </linearGradient>
    <clipPath id="complexClip"><polygon points="1517.4,540.0 1320.1,583.1 1440.7,660.4 1328.4,690.5 1316.1,762.5 1225.7,798.9 1080.2,748.1 997.5,740.7 904.2,838.4 855.3,721.2 746.2,748.3 695.8,705.1 643.4,669.4 453.5,666.8 542.6,589.9 482.4,540.0 494.9,484.4 539.5,434.7 662.1,418.2 728.6,395.4 729.2,315.1 849.3,348.4 902.7,233.4 1010.6,269.3 1107.4,284.8 1151.9,353.0 1253.5,356.6 1414.0,354.5 1308.6,452.7 1359.1,492.3"/></clipPath>
    <radialGradient id="leaf0" cx="50%" cy="50%" r="70%">
      <stop offset="0%" stop-color="#FF1493"/>
      <stop offset="50%" stop-color="#FFD700"/>
      <stop offset="100%" stop-color="#FFE66D"/>
    </radialGradient>
    <radialGradient id="leaf1" cx="50%" cy="50%" r="70%">
      <stop offset="0%" stop-color="#FF6B6B"/>
      <stop offset="50%" stop-color="#32CD32"/>
      <stop offset="100%" stop-color="#FFE66D"/>
    </radialGradient>
    <radialGradient id="leaf2" cx="50%" cy="50%" r="70%">
      <stop offset="0%" stop-color="#FFE66D"/>
      <stop offset="50%" stop-color="#9370DB"/>
      <stop offset="100%" stop-color="#FF4500"/>
    </radialGradient>
    <radialGradient id="leaf3" cx="50%" cy="50%" r="70%">
      <stop offset="0%" stop-color="#FF4500"/>
      <stop offset="50%" stop-color="#00CED1"/>
      <stop offset="100%" stop-color="#DC143C"/>
    </radialGradient>
    <radialGradient id="leaf4" cx="50%" cy="50%" r="70%">
      <stop offset="0%" stop-color="#FF6B6B"/>
      <stop offset="50%" stop-color="#FF69B4"/>
      <stop offset="100%" stop-color="#45B7D1"/>
    </radialGradient>
    <radialGradient id="leaf5" cx="50%" cy="50%" r="70%">
      <stop offset="0%" stop-color="#45B7D1"/>
      <stop offset="50%" stop-color="#4ECDC4"/>
      <stop offset="100%" stop-color="#FF4500"/>
    </radialGradient>
    <radialGradient id="leaf6" cx="50%" cy="50%" r="70%">
      <stop offset="0%" stop-color="#32CD32"/>
      <stop offset="50%" stop-color="#DC143C"/>
      <stop offset="100%" stop-color="#FF69B4"/>
    </radialGradient>
    <radialGradient id="leaf7" cx="50%" cy="50%" r="70%">
      <stop offset="0%" stop-color="#00CED1"/>
      <stop offset="50%" stop-color="#45B7D1"/>
      <stop offset="100%" stop-color="#96E6A1"/>
    </radialGradient>
    <radialGradient id="leaf8" cx="50%" cy="50%" r="70%">
      <stop offset="0%" stop-color="#FF69B4"/>
      <stop offset="50%" stop-color="#4ECDC4"/>
      <stop offset="100%" stop-color="#FFE66D"/>
    </radialGradient>
    <radialGradient id="leaf9" cx="50%" cy="50%" r="70%">
      <stop offset="0%" stop-color="#FFD700"/>
      <stop offset="50%" stop-color="#FF6B6B"/>
      <stop offset="100%" stop-color="#32CD32"/>
    </radialGradient>
    <radialGradient id="leaf10" cx="50%" cy="50%" r="70%">
      <stop offset="0%" stop-color="#4ECDC4"/>
      <stop offset="50%" stop-color="#00FA9A"/>
      <stop offset="100%" stop-color="#DC143C"/>
    </radialGradient>
    <radialGradient id="leaf11" cx="50%" cy="50%" r="70%">
      <stop offset="0%" stop-color="#7B68EE"/>
      <stop offset="50%" stop-color="#FF1493"/>
      <stop offset="100%" stop-color="#DC143C"/>
    </radialGradient>
    <radialGradient id="leaf12" cx="50%" cy="50%" r="70%">
      <stop offset="0%" stop-color="#FFD700"/>
      <stop offset="50%" stop-color="#DC143C"/>
      <stop offset="100%" stop-color="#45B7D1"/>
    </radialGradient>
    <radialGradient id="leaf13" cx="50%" cy="50%" r="70%">
      <stop offset="0%" stop-color="#FFE66D"/>
      <stop offset="50%" stop-color="#FF4500"/>
      <stop offset="100%" stop-color="#00CED1"/>
    </radialGradient>
    <radialGradient id="leaf14" cx="50%" cy="50%" r="70%">
      <stop offset="0%" stop-color="#FF69B4"/>
      <stop offset="50%" stop-color="#32CD32"/>
      <stop offset="100%" stop-color="#FFE66D"/>
    </radialGradient>
    <radialGradient id="leaf15" cx="50%" cy="50%" r="70%">
      <stop offset="0%" stop-color="#4ECDC4"/>
      <stop offset="50%" stop-color="#FF4500"/>
      <stop offset="100%" stop-color="#FFD700"/>
    </radialGradient>
    <radialGradient id="leaf16" cx="50%" cy="50%" r="70%">
      <stop offset="0%" stop-color="#7B68EE"/>
      <stop offset="50%" stop-color="#FFD700"/>
      <stop offset="100%" stop-color="#FF69B4"/>
    </radialGradient>
    <radialGradient id="leaf17" cx="50%" cy="50%" r="70%">
      <stop offset="0%" stop-color="#FFE66D"/>
      <stop offset="50%" stop-color="#32CD32"/>
      <stop offset="100%" stop-color="#DC143C"/>
    </radialGradient>
    <radialGradient id="leaf18" cx="50%" cy="50%" r="70%">
      <stop offset="0%" stop-color="#7B68EE"/>
      <stop offset="50%" stop-color="#4ECDC4"/>
      <stop offset="100%" stop-color="#45B7D1"/>
    </radialGradient>
    <radialGradient id="leaf19" cx="50%" cy="50%" r="70%">
      <stop offset="0%" stop-color="#9370DB"/>
      <stop offset="50%" stop-color="#96E6A1"/>
      <stop offset="100%" stop-color="#45B7D1"/>
    </radialGradient>
  </defs>

  <!-- Background -->
  <rect width="1920" height="1080" fill="url(#bgGrad)"/>
  
  <!-- Leaves with clip-path -->
  <g clip-path="url(#complexClip)">
    <path d="M 200.81723954235778,-12.707101209709592 C 246.05676996042598,24.992507472013898 261.1366134331154,77.77195962642679 200.81723954235778,138.09133351718435 C 140.4978656516002,77.77195962642679 155.57770912428958,24.992507472013898 200.81723954235778,-12.707101209709592 Z" fill="url(#leaf0)" opacity="0.21" transform="rotate(34.0 200.8 62.7)"/>
    <path d="M 1731.3019020538572,651.1660606011316 C 1765.8949051277884,679.9935631627409 1777.4259061524322,720.3520667489939 1731.3019020538572,766.4760708475688 C 1685.1778979552823,720.3520667489939 1696.708898979926,679.9935631627409 1731.3019020538572,651.1660606011316 Z" fill="url(#leaf1)" opacity="0.37" transform="rotate(137.9 1731.3 708.8)"/>
    <path d="M 1343.2072448439483,907.4602532363135 C 1395.7855394547719,951.2754987453333 1413.3116376583798,1012.616842457961 1343.2072448439483,1082.7212352723925 C 1273.1028520295167,1012.616842457961 1290.6289502331247,951.2754987453333 1343.2072448439483,907.4602532363135 Z" fill="url(#leaf2)" opacity="0.30" transform="rotate(75.6 1343.2 995.1)"/>
    <path d="M 1045.4352018291938,461.6354769301731 C 1092.3342568178825,500.7180227540804 1107.9672751474454,555.4335869075505 1045.4352018291938,617.9656602258021 C 982.9031285109422,555.4335869075505 998.5361468405051,500.7180227540804 1045.4352018291938,461.6354769301731 Z" fill="url(#leaf3)" opacity="0.40" transform="rotate(344.8 1045.4 539.8)"/>
    <path d="M 527.1187770880451,305.7658911459223 C 560.243053979677,333.36945522228217 571.284479610221,372.01444492918597 527.1187770880451,416.1801474513618 C 482.9530745658693,372.01444492918597 493.9945001964133,333.36945522228217 527.1187770880451,305.7658911459223 Z" fill="url(#leaf4)" opacity="0.27" transform="rotate(159.3 527.1 361.0)"/>
    <path d="M 1841.3015364241708,891.1223836363663 C 1890.596334513879,932.2013820444565 1907.027933877115,989.7119798157827 1841.3015364241708,1055.438377268727 C 1775.5751389712266,989.7119798157827 1792.0067383344626,932.2013820444565 1841.3015364241708,891.1223836363663 Z" fill="url(#leaf5)" opacity="0.34" transform="rotate(199.1 1841.3 973.3)"/>
    <path d="M 1822.94137475393,389.80219786137764 C 1855.6958881158553,417.09762566298207 1866.614059236497,455.31122458522833 1822.94137475393,498.9839090677955 C 1779.2686902713629,455.31122458522833 1790.1868613920046,417.09762566298207 1822.94137475393,389.80219786137764 Z" fill="url(#leaf6)" opacity="0.24" transform="rotate(35.4 1822.9 444.4)"/>
    <path d="M 534.7575849272947,115.71453393357903 C 574.4125413727568,148.7603309714641 587.6308601879108,195.0244468245032 534.7575849272947,247.8977220851193 C 481.8843096666786,195.0244468245032 495.10262848183265,148.7603309714641 534.7575849272947,115.71453393357903 Z" fill="url(#leaf7)" opacity="0.36" transform="rotate(14.9 534.8 181.8)"/>
    <path d="M 1781.2494441788133,540.6930591868494 C 1838.170890701671,588.1275979558973 1857.14470620929,654.5359522325645 1781.2494441788133,730.4312142630412 C 1705.3541821483366,654.5359522325645 1724.3279976559556,588.1275979558973 1781.2494441788133,540.6930591868494 Z" fill="url(#leaf8)" opacity="0.39" transform="rotate(198.1 1781.2 635.6)"/>
    <path d="M 336.7385196439462,552.4028098563671 C 370.5286691191722,580.5612677523887 381.79205227758086,619.9831088068191 336.7385196439462,665.0366414404538 C 291.6849870103115,619.9831088068191 302.94837016872015,580.5612677523887 336.7385196439462,552.4028098563671 Z" fill="url(#leaf9)" opacity="0.32" transform="rotate(43.6 336.7 608.7)"/>
    <path d="M 829.8039671297273,195.72745362625366 C 858.4646528702938,219.61135841005904 868.0182147838159,253.0488251073866 829.8039671297273,291.2630727614752 C 791.5897194756387,253.0488251073866 801.1432813891608,219.61135841005904 829.8039671297273,195.72745362625366 Z" fill="url(#leaf10)" opacity="0.40" transform="rotate(302.0 829.8 243.5)"/>
    <path d="M 961.6593330620019,29.34489454626283 C 995.6530924307388,57.673027353543574 1006.9843455536511,97.33241328373663 961.6593330620019,142.65742577538583 C 916.3343205703527,97.33241328373663 927.6655736932651,57.673027353543574 961.6593330620019,29.34489454626283 Z" fill="url(#leaf11)" opacity="0.37" transform="rotate(316.6 961.7 86.0)"/>
    <path d="M 1637.8213385983952,272.70000002347564 C 1688.4455489059758,314.8868419464595 1705.3202856751693,373.94842063863695 1637.8213385983952,441.4473677154112 C 1570.322391521621,373.94842063863695 1587.1971282908146,314.8868419464595 1637.8213385983952,272.70000002347564 Z" fill="url(#leaf12)" opacity="0.36" transform="rotate(349.7 1637.8 357.1)"/>
    <path d="M 417.2466988960001,57.036777079287745 C 469.33925806883474,100.44724305664997 486.7034444597797,161.22189542495707 417.2466988960001,230.67864098873662 C 347.78995333222053,161.22189542495707 365.1541397231655,100.44724305664997 417.2466988960001,57.036777079287745 Z" fill="url(#leaf13)" opacity="0.39" transform="rotate(274.4 417.2 143.9)"/>
    <path d="M 697.9194468832078,94.66940206204816 C 742.3107694037244,131.66217082914534 757.1078769105633,183.45204710308136 697.9194468832078,242.6404771304368 C 638.7310168558523,183.45204710308136 653.5281243626912,131.66217082914534 697.9194468832078,94.66940206204816 Z" fill="url(#leaf14)" opacity="0.32" transform="rotate(160.7 697.9 168.7)"/>
    <path d="M 217.5916304107443,922.129333864372 C 267.8816379085807,964.0376734459023 284.64497374119276,1022.7093488600448 217.5916304107443,1089.7626921904932 C 150.53828708029582,1022.7093488600448 167.30162291290793,964.0376734459023 217.5916304107443,922.129333864372 Z" fill="url(#leaf15)" opacity="0.33" transform="rotate(72.5 217.6 1005.9)"/>
    <path d="M 1283.3458947623124,197.99664478882605 C 1331.675725714447,238.2715039156049 1347.7856693651586,294.6563066930953 1283.3458947623124,359.0960812959414 C 1218.9061201594661,294.6563066930953 1235.0160638101777,238.2715039156049 1283.3458947623124,197.99664478882605 Z" fill="url(#leaf16)" opacity="0.24" transform="rotate(284.3 1283.3 278.5)"/>
    <path d="M 403.8934038736283,65.72044513792281 C 432.53265022254715,89.58648376202186 442.0790656721868,122.99893783576053 403.8934038736283,161.184599634319 C 365.7077420750698,122.99893783576053 375.25415752470946,89.58648376202186 403.8934038736283,65.72044513792281 Z" fill="url(#leaf17)" opacity="0.22" transform="rotate(200.7 403.9 113.5)"/>
    <path d="M 1224.6369285899311,450.76394446147975 C 1268.8855576071805,487.63780197585425 1283.6351006129303,539.2612024959784 1224.6369285899311,598.2593745189776 C 1165.638756566932,539.2612024959784 1180.3882995726817,487.63780197585425 1224.6369285899311,450.76394446147975 Z" fill="url(#leaf18)" opacity="0.35" transform="rotate(219.3 1224.6 524.5)"/>
    <path d="M 1639.5799997195293,899.9088229312879 C 1684.1146521779613,937.0210333133145 1698.9595363307722,988.978127848152 1639.5799997195293,1048.3576644593948 C 1580.2004631082864,988.978127848152 1595.0453472610973,937.0210333133145 1639.5799997195293,899.9088229312879 Z" fill="url(#leaf19)" opacity="0.30" transform="rotate(74.8 1639.6 974.1)"/>
    <path d="M 1648.4560457803268,318.8625283113911 C 1678.332434371729,343.7595188042263 1688.291230568863,378.6153054941955 1648.4560457803268,418.45049028273183 C 1608.6208609917906,378.6153054941955 1618.5796571889246,343.7595188042263 1648.4560457803268,318.8625283113911 Z" fill="url(#leaf0)" opacity="0.25" transform="rotate(286.8 1648.5 368.7)"/>
    <path d="M 480.71758628804594,238.88754171700293 C 521.029633068001,272.48091403363213 534.4669819946528,319.51163527691307 480.71758628804594,373.26103098351984 C 426.96819058143916,319.51163527691307 440.40553950809084,272.48091403363213 480.71758628804594,238.88754171700293 Z" fill="url(#leaf1)" opacity="0.36" transform="rotate(302.5 480.7 306.1)"/>
    <path d="M 1312.6712644115091,716.3605900731318 C 1365.3242864629676,760.2381084493472 1382.875293813454,821.6666341760489 1312.6712644115091,891.8706635779936 C 1242.4672350095643,821.6666341760489 1260.0182423600506,760.2381084493472 1312.6712644115091,716.3605900731318 Z" fill="url(#leaf2)" opacity="0.28" transform="rotate(207.2 1312.7 804.1)"/>
    <path d="M 802.1136356577161,458.41565729671413 C 860.3624940721476,506.95637264207363 879.7787802102914,574.913374125577 802.1136356577161,652.5785186781521 C 724.4484911051409,574.913374125577 743.8647772432847,506.95637264207363 802.1136356577161,458.41565729671413 Z" fill="url(#leaf3)" opacity="0.26" transform="rotate(359.4 802.1 555.5)"/>
    <path d="M 1246.0801449356065,19.726423039645525 C 1272.205676831392,41.49769961946677 1280.9141874633206,71.97748683121651 1246.0801449356065,106.8115293589305 C 1211.2461024078925,71.97748683121651 1219.954613039821,41.49769961946677 1246.0801449356065,19.726423039645525 Z" fill="url(#leaf4)" opacity="0.30" transform="rotate(155.8 1246.1 63.3)"/>
    <path d="M 377.7832274364281,430.33536413463423 C 413.0973592908658,459.7638073466657 424.86873657567844,500.9636278435098 377.7832274364281,548.0491369827602 C 330.69771829717774,500.9636278435098 342.46909558199036,459.7638073466657 377.7832274364281,430.33536413463423 Z" fill="url(#leaf5)" opacity="0.34" transform="rotate(323.3 377.8 489.2)"/>
    <path d="M 1769.3384349289845,237.5680936260948 C 1823.858418953138,283.0014136462227 1842.0317469611891,346.60806167440177 1769.3384349289845,419.30137370660646 C 1696.6451228967799,346.60806167440177 1714.818450904831,283.0014136462227 1769.3384349289845,237.5680936260948 Z" fill="url(#leaf6)" opacity="0.32" transform="rotate(285.8 1769.3 328.4)"/>
    <path d="M 1740.8939767491427,74.15300696572936 C 1791.1207171986032,116.00862400694646 1807.86296401509,174.6064878646504 1740.8939767491427,241.57547513059777 C 1673.9249894831953,174.6064878646504 1690.6672362996821,116.00862400694646 1740.8939767491427,74.15300696572936 Z" fill="url(#leaf7)" opacity="0.27" transform="rotate(135.0 1740.9 157.9)"/>
    <path d="M 1189.119409536783,825.4400807436557 C 1221.3610321159829,852.3080995596556 1232.1082396423828,889.9233259020555 1189.119409536783,932.9121560076553 C 1146.1305794311832,889.9233259020555 1156.877786957583,852.3080995596556 1189.119409536783,825.4400807436557 Z" fill="url(#leaf8)" opacity="0.34" transform="rotate(280.7 1189.1 879.2)"/>
    <path d="M 1845.0820815206773,906.0657739227745 C 1872.8462251448952,929.2025602762894 1882.1009396863014,961.5940611712105 1845.0820815206773,998.6129193368345 C 1808.0632233550532,961.5940611712105 1817.3179378964594,929.2025602762894 1845.0820815206773,906.0657739227745 Z" fill="url(#leaf9)" opacity="0.34" transform="rotate(238.3 1845.1 952.3)"/>
    <path d="M 246.11395759662335,925.440828439841 C 276.28109939253295,950.5801132697657 286.3368133245028,985.7751120316602 246.11395759662335,1025.9979677595397 C 205.89110186874385,985.7751120316602 215.94681580071372,950.5801132697657 246.11395759662335,925.440828439841 Z" fill="url(#leaf10)" opacity="0.31" transform="rotate(264.2 246.1 975.7)"/>
    <path d="M 1506.450639948365,114.72749059670517 C 1566.3731926024245,164.66295114175472 1586.3473768204444,234.57259590482406 1506.450639948365,314.46933277690334 C 1426.5539030762857,234.57259590482406 1446.5280872943056,164.66295114175472 1506.450639948365,114.72749059670517 Z" fill="url(#leaf11)" opacity="0.21" transform="rotate(183.4 1506.5 214.6)"/>
    <path d="M 1543.8580588767488,381.11938440576284 C 1570.976139178177,403.7177846569529 1580.015499278653,435.35554500861895 1543.8580588767488,471.512985410523 C 1507.7006184748448,435.35554500861895 1516.7399785753207,403.7177846569529 1543.8580588767488,381.11938440576284 Z" fill="url(#leaf12)" opacity="0.32" transform="rotate(26.8 1543.9 426.3)"/>
    <path d="M 608.625407674018,684.5389040819963 C 643.8080697778524,713.8577891685251 655.5356238124639,754.9042282896652 608.625407674018,801.8144444281112 C 561.7151915355721,754.9042282896652 573.4427455701835,713.8577891685251 608.625407674018,684.5389040819963 Z" fill="url(#leaf13)" opacity="0.29" transform="rotate(85.4 608.6 743.2)"/>
    <path d="M 1847.8640112120434,230.62717425066197 C 1889.7671190864085,265.5464308126329 1903.7348217111967,314.43338999939215 1847.8640112120434,370.3042004985456 C 1791.99320071289,314.43338999939215 1805.9609033376782,265.5464308126329 1847.8640112120434,230.62717425066197 Z" fill="url(#leaf14)" opacity="0.37" transform="rotate(88.2 1847.9 300.5)"/>
    <path d="M 519.0636733082711,484.5830791909881 C 554.1550609542468,513.8259022293012 565.8521901695719,554.7658544829395 519.0636733082711,601.5543713442404 C 472.27515644697013,554.7658544829395 483.97228566229535,513.8259022293012 519.0636733082711,484.5830791909881 Z" fill="url(#leaf15)" opacity="0.22" transform="rotate(120.7 519.1 543.1)"/>
    <path d="M 1256.257724683778,180.76678117522837 C 1303.0668814620421,219.77441182378186 1318.6699337214636,274.3850947317567 1256.257724683778,336.79730376944224 C 1193.8455156460923,274.3850947317567 1209.4485679055138,219.77441182378186 1256.257724683778,180.76678117522837 Z" fill="url(#leaf16)" opacity="0.40" transform="rotate(84.7 1256.3 258.8)"/>
    <path d="M 1186.1862703200532,53.300493891467525 C 1237.887611532851,96.38494490213236 1255.1213919371169,156.70317631706314 1186.1862703200532,225.6382979341269 C 1117.2511487029894,156.70317631706314 1134.4849291072553,96.38494490213236 1186.1862703200532,53.300493891467525 Z" fill="url(#leaf17)" opacity="0.23" transform="rotate(241.2 1186.2 139.5)"/>
    <path d="M 690.8711986572789,214.9322876564445 C 720.6340184861194,239.73463751381155 730.5549584290662,274.4579273141254 690.8711986572789,314.14168708591274 C 651.1874388854916,274.4579273141254 661.1083788284384,239.73463751381155 690.8711986572789,214.9322876564445 Z" fill="url(#leaf18)" opacity="0.23" transform="rotate(151.8 690.9 264.5)"/>
    <path d="M 914.3253674974003,215.8942397872422 C 940.1435565173788,237.40939730389098 948.7496195240383,267.53061782719925 914.3253674974003,301.9548698538373 C 879.9011154707623,267.53061782719925 888.5071784774218,237.40939730389098 914.3253674974003,215.8942397872422 Z" fill="url(#leaf19)" opacity="0.23" transform="rotate(194.7 914.3 258.9)"/>
    <path d="M 738.478222190495,739.7156971321639 C 769.4399426655359,765.5171308613648 779.7605161572163,801.6391380822458 738.478222190495,842.9214320489672 C 697.1959282237736,801.6391380822458 707.5165017154541,765.5171308613648 738.478222190495,739.7156971321639 Z" fill="url(#leaf0)" opacity="0.28" transform="rotate(39.0 738.5 791.3)"/>
    <path d="M 1322.8598705980198,335.708223727587 C 1377.4786689978232,381.22388906075633 1395.684935131091,444.9458205271935 1322.8598705980198,517.7708850602645 C 1250.0348060649487,444.9458205271935 1268.2410721982164,381.22388906075633 1322.8598705980198,335.708223727587 Z" fill="url(#leaf1)" opacity="0.26" transform="rotate(92.9 1322.9 426.7)"/>
    <path d="M 631.0948168520616,811.417976151987 C 689.7060089247635,860.2606362125719 709.2430729489975,928.6403602973907 631.0948168520616,1006.7886163943265 C 552.9465607551258,928.6403602973907 572.4836247793597,860.2606362125719 631.0948168520616,811.417976151987 Z" fill="url(#leaf2)" opacity="0.29" transform="rotate(211.1 631.1 909.1)"/>
    <path d="M 241.3671001059058,483.7569832157249 C 282.042597726446,517.6532312328418 295.60109693329275,565.1079784568053 241.3671001059058,619.3419752841924 C 187.13310327851883,565.1079784568053 200.6916024853656,517.6532312328418 241.3671001059058,483.7569832157249 Z" fill="url(#leaf3)" opacity="0.29" transform="rotate(173.3 241.4 551.5)"/>
    <path d="M 514.2412707800315,530.9032795241711 C 545.6594618654663,557.0851054287 556.1321922272778,593.7396616950406 514.2412707800315,635.6305831422868 C 472.35034933278524,593.7396616950406 482.8230796945968,557.0851054287 514.2412707800315,530.9032795241711 Z" fill="url(#leaf4)" opacity="0.33" transform="rotate(52.4 514.2 583.3)"/>
    <path d="M 613.9567209742418,225.53425654024537 C 657.2680626801744,261.6270412951892 671.7051765821519,312.15693995211063 613.9567209742418,369.9053955600208 C 556.2082653663316,312.15693995211063 570.6453792683092,261.6270412951892 613.9567209742418,225.53425654024537 Z" fill="url(#leaf5)" opacity="0.25" transform="rotate(191.0 614.0 297.7)"/>
    <path d="M 770.2061101225183,824.3075165299415 C 818.2505606459025,864.3445586327617 834.2653774870306,920.39641757671 770.2061101225183,984.4556849412222 C 706.1468427580061,920.39641757671 722.1616595991342,864.3445586327617 770.2061101225183,824.3075165299415 Z" fill="url(#leaf6)" opacity="0.33" transform="rotate(216.9 770.2 904.4)"/>
    <path d="M 887.0364000593083,553.9000343844409 C 917.7205423248497,579.4701529390587 927.9485897466968,615.2683189155237 887.0364000593083,656.1805086029121 C 846.1242103719198,615.2683189155237 856.352257793767,579.4701529390587 887.0364000593083,553.9000343844409 Z" fill="url(#leaf7)" opacity="0.36" transform="rotate(152.4 887.0 605.0)"/>
    <path d="M 1670.784687709467,189.24010928939808 C 1719.7845571236137,230.07333380118695 1736.1178469283293,287.23984811769134 1670.784687709467,352.5730073365535 C 1605.451528490605,287.23984811769134 1621.7848182953205,230.07333380118695 1670.784687709467,189.24010928939808 Z" fill="url(#leaf8)" opacity="0.38" transform="rotate(72.1 1670.8 270.9)"/>
    <path d="M 926.792666591288,154.8114596475247 C 980.4373886725375,199.51539471523265 998.3189626996207,262.10090381002374 926.792666591288,333.62719991835644 C 855.2663704829554,262.10090381002374 873.1479445100385,199.51539471523265 926.792666591288,154.8114596475247 Z" fill="url(#leaf9)" opacity="0.22" transform="rotate(304.9 926.8 244.2)"/>
    <path d="M 1622.2711163369183,309.47360594383605 C 1671.4195519561372,350.4306356265184 1687.80236382921,407.7704771822736 1622.2711163369183,473.3017246745654 C 1556.7398688446267,407.7704771822736 1573.1226807176995,350.4306356265184 1622.2711163369183,309.47360594383605 Z" fill="url(#leaf10)" opacity="0.20" transform="rotate(344.7 1622.3 391.4)"/>
    <path d="M 1147.6626393024694,420.3766053130691 C 1190.403994770911,455.9944015367704 1204.6511132603914,505.85931624995214 1147.6626393024694,562.8477902078741 C 1090.6741653445474,505.85931624995214 1104.921283834028,455.9944015367704 1147.6626393024694,420.3766053130691 Z" fill="url(#leaf11)" opacity="0.32" transform="rotate(354.5 1147.7 491.6)"/>
    <path d="M 1345.791348200098,403.33896773822244 C 1374.4001290566214,427.1796184519919 1383.9363893421291,460.5565294512693 1345.791348200098,498.7015705933005 C 1307.6463070580667,460.5565294512693 1317.1825673435744,427.1796184519919 1345.791348200098,403.33896773822244 Z" fill="url(#leaf12)" opacity="0.29" transform="rotate(61.1 1345.8 451.0)"/>
    <path d="M 644.4819552975197,261.49165875733945 C 695.270012892455,303.81504008645226 712.1993654241,363.0677739472101 644.4819552975197,430.78518407379056 C 576.7645451709393,363.0677739472101 593.6938977025843,303.81504008645226 644.4819552975197,261.49165875733945 Z" fill="url(#leaf13)" opacity="0.38" transform="rotate(180.4 644.5 346.1)"/>
    <path d="M 1519.1795148193585,679.287826716451 C 1558.928825264333,712.412252087263 1572.1785954126576,758.7864476063999 1519.1795148193585,811.785528199699 C 1466.1804342260593,758.7864476063999 1479.430204374384,712.412252087263 1519.1795148193585,679.287826716451 Z" fill="url(#leaf14)" opacity="0.20" transform="rotate(151.2 1519.2 745.5)"/>
    <path d="M 1076.678980653607,445.7304912478089 C 1118.4981335656869,480.5797853412089 1132.4378512030469,529.3687970719689 1076.678980653607,585.1276676214088 C 1020.920110104167,529.3687970719689 1034.859827741527,480.5797853412089 1076.678980653607,445.7304912478089 Z" fill="url(#leaf15)" opacity="0.23" transform="rotate(282.9 1076.7 515.4)"/>
    <path d="M 267.4061009022575,7.921770797133874 C 299.11998549555136,34.3500079582121 309.69128035998267,71.34953998372163 267.4061009022575,113.63471944144679 C 225.1209214445323,71.34953998372163 235.69221630896362,34.3500079582121 267.4061009022575,7.921770797133874 Z" fill="url(#leaf16)" opacity="0.39" transform="rotate(54.2 267.4 60.8)"/>
    <path d="M 194.44456337427314,796.7924844299463 C 229.04934364827125,825.6298013249447 240.58427040627063,866.0020449779425 194.44456337427314,912.14175200994 C 148.30485634227566,866.0020449779425 159.83978310027504,825.6298013249447 194.44456337427314,796.7924844299463 Z" fill="url(#leaf17)" opacity="0.36" transform="rotate(228.6 194.4 854.5)"/>
    <path d="M 147.39558899312235,557.6451698991028 C 196.33912312421964,598.4314483416839 212.65363450125207,655.5322381612974 147.39558899312235,720.7902836694271 C 82.13754348499262,655.5322381612974 98.45205486202505,598.4314483416839 147.39558899312235,557.6451698991028 Z" fill="url(#leaf18)" opacity="0.36" transform="rotate(224.0 147.4 639.2)"/>
    <path d="M 849.984877786962,895.9925212591398 C 880.9690270592273,921.8126456526943 891.2970768166491,957.9608198036706 849.984877786962,999.2730188333577 C 808.6726787572749,957.9608198036706 819.0007285146967,921.8126456526943 849.984877786962,895.9925212591398 Z" fill="url(#leaf19)" opacity="0.26" transform="rotate(315.7 850.0 947.6)"/>
    <path d="M 1163.6163777825643,515.4947213883131 C 1217.7121714386553,560.5745494350555 1235.7441026573522,623.6863087004949 1163.6163777825643,695.8140335752828 C 1091.4886529077764,623.6863087004949 1109.5205841264733,560.5745494350555 1163.6163777825643,515.4947213883131 Z" fill="url(#leaf0)" opacity="0.40" transform="rotate(124.7 1163.6 605.7)"/>
    <path d="M 1600.9395462035586,396.32763996296217 C 1657.4816489728405,443.44605893736366 1676.329016562601,509.41184550152576 1600.9395462035586,584.8013158605681 C 1525.5500758445162,509.41184550152576 1544.3974434342767,443.44605893736366 1600.9395462035586,396.32763996296217 Z" fill="url(#leaf1)" opacity="0.31" transform="rotate(155.8 1600.9 490.6)"/>
    <path d="M 312.32563199639435,598.3218600598868 C 358.24125852263984,636.5848821650915 373.54646736472165,690.1531131123778 312.32563199639435,751.3739484807052 C 251.10479662806705,690.1531131123778 266.41000547014886,636.5848821650915 312.32563199639435,598.3218600598868 Z" fill="url(#leaf2)" opacity="0.25" transform="rotate(27.0 312.3 674.8)"/>
    <path d="M 1002.5397941869941,-6.54333459050261 C 1062.032267295771,43.0337263334781 1081.8630916653633,112.44161162705109 1002.5397941869941,191.76490910542023 C 923.216496708625,112.44161162705109 943.0473210782172,43.0337263334781 1002.5397941869941,-6.54333459050261 Z" fill="url(#leaf3)" opacity="0.22" transform="rotate(306.6 1002.5 92.6)"/>
    <path d="M 531.6509323039927,210.37277745739058 C 563.1830828570945,236.6495695849754 573.6937997081285,273.4370785635942 531.6509323039927,315.47994596773 C 489.60806489985697,273.4370785635942 500.1187817508909,236.6495695849754 531.6509323039927,210.37277745739058 Z" fill="url(#leaf4)" opacity="0.31" transform="rotate(317.1 531.7 262.9)"/>
    <path d="M 1002.9300007591936,923.7520720055037 C 1032.812996395277,948.6545683689066 1042.7739949406382,983.5180632776705 1002.9300007591936,1023.3620574591151 C 963.086006577749,983.5180632776705 973.0470051231101,948.6545683689066 1002.9300007591936,923.7520720055037 Z" fill="url(#leaf5)" opacity="0.38" transform="rotate(82.0 1002.9 973.6)"/>
    <path d="M 579.203560505857,189.83262849064565 C 607.6379143111604,213.5279233283985 617.1160322462616,246.7013361012525 579.203560505857,284.6138078416571 C 541.2910887654524,246.7013361012525 550.7692067005536,213.5279233283985 579.203560505857,189.83262849064565 Z" fill="url(#leaf6)" opacity="0.28" transform="rotate(144.1 579.2 237.2)"/>
    <path d="M 1540.0753805524982,51.79426442777321 C 1577.3600502774118,82.86482253186782 1589.7882735190497,126.36360387760026 1540.0753805524982,176.07649684415162 C 1490.3624875859468,126.36360387760026 1502.7907108275847,82.86482253186782 1540.0753805524982,51.79426442777321 Z" fill="url(#leaf7)" opacity="0.24" transform="rotate(32.5 1540.1 113.9)"/>
    <path d="M 443.95783484137695,824.2941875645215 C 470.4744199251923,846.3913418010343 479.3132816197974,877.3273577321522 443.95783484137695,912.6828045105726 C 408.6023880629565,877.3273577321522 417.4412497575616,846.3913418010343 443.95783484137695,824.2941875645215 Z" fill="url(#leaf8)" opacity="0.33" transform="rotate(195.4 444.0 868.5)"/>
    <path d="M 1530.887938477952,606.2845035147419 C 1574.1049830492411,642.2987073241495 1588.5106645730043,692.7185926573202 1530.887938477952,750.3413187523723 C 1473.2652123828998,692.7185926573202 1487.670893906663,642.2987073241495 1530.887938477952,606.2845035147419 Z" fill="url(#leaf9)" opacity="0.26" transform="rotate(281.0 1530.9 678.3)"/>
    <path d="M 1608.7294142273297,88.77229030512586 C 1643.913365579569,118.09224976532523 1655.6413493636487,159.14019300960436 1608.7294142273297,206.05212814592335 C 1561.8174790910107,159.14019300960436 1573.5454628750904,118.09224976532523 1608.7294142273297,88.77229030512586 Z" fill="url(#leaf10)" opacity="0.35" transform="rotate(71.2 1608.7 147.4)"/>
    <path d="M 451.51017033026625,67.66171352949445 C 502.1595505295434,109.86953036222542 519.0426772626358,168.96047392804877 451.51017033026625,236.49298086041833 C 383.97766339789666,168.96047392804877 400.8607901309891,109.86953036222542 451.51017033026625,67.66171352949445 Z" fill="url(#leaf11)" opacity="0.33" transform="rotate(160.1 451.5 152.1)"/>
    <path d="M 1357.9988128776724,414.2050706322273 C 1403.861595238076,452.4240559325636 1419.1491893582104,505.93063535303435 1357.9988128776724,567.0810118335723 C 1296.8484363971345,505.93063535303435 1312.1360305172689,452.4240559325636 1357.9988128776724,414.2050706322273 Z" fill="url(#leaf12)" opacity="0.23" transform="rotate(166.1 1358.0 490.6)"/>
    <path d="M 291.01823546184,900.5239695838109 C 335.63486167657004,937.7044914294192 350.50707041481337,989.757222013271 291.01823546184,1049.2460569662444 C 231.52940050886662,989.757222013271 246.40160924710997,937.7044914294192 291.01823546184,900.5239695838109 Z" fill="url(#leaf13)" opacity="0.24" transform="rotate(187.4 291.0 974.9)"/>
    <path d="M 1742.8165531312593,265.8425817889126 C 1787.7573189644988,303.2932199832789 1802.7375742422455,355.7241134553918 1742.8165531312593,415.64513456637786 C 1682.895532020273,355.7241134553918 1697.8757872980198,303.2932199832789 1742.8165531312593,265.8425817889126 Z" fill="url(#leaf14)" opacity="0.40" transform="rotate(172.3 1742.8 340.7)"/>
    <path d="M 319.28117093159074,408.6758399942804 C 366.46263793318747,447.9937291622777 382.1897936003864,503.0387739974739 319.28117093159074,565.9473966662696 C 256.3725482627951,503.0387739974739 272.099703929994,447.9937291622777 319.28117093159074,408.6758399942804 Z" fill="url(#leaf15)" opacity="0.39" transform="rotate(10.0 319.3 487.3)"/>
    <path d="M 552.5079292735616,19.1266302139516 C 602.6337147667266,60.89811812492247 619.342309931115,119.3782012002817 552.5079292735616,186.21258185783506 C 485.67354861600813,119.3782012002817 502.3821437803965,60.89811812492247 552.5079292735616,19.1266302139516 Z" fill="url(#leaf16)" opacity="0.25" transform="rotate(102.0 552.5 102.7)"/>
    <path d="M 1125.365055632582,43.43310627295361 C 1166.5433645145374,77.74836367458323 1180.2694674751895,125.7897240368647 1125.365055632582,180.6941358794721 C 1070.4606437899745,125.7897240368647 1084.1867467506265,77.74836367458323 1125.365055632582,43.43310627295361 Z" fill="url(#leaf17)" opacity="0.40" transform="rotate(150.0 1125.4 112.1)"/>
    <path d="M 1383.0213851443805,440.0537525713395 C 1411.72489069113,463.97334052696397 1421.2927258733796,497.4607636648383 1383.0213851443805,535.7321043938375 C 1344.7500444153814,497.4607636648383 1354.317879597631,463.97334052696397 1383.0213851443805,440.0537525713395 Z" fill="url(#leaf18)" opacity="0.27" transform="rotate(73.7 1383.0 487.9)"/>
    <path d="M 240.81529790141477,506.0184045824391 C 283.27037371920017,541.3976344305936 297.422065658462,590.9285562180099 240.81529790141477,647.5353239750572 C 184.20853014436756,590.9285562180099 198.36022208362937,541.3976344305936 240.81529790141477,506.0184045824391 Z" fill="url(#leaf19)" opacity="0.28" transform="rotate(3.4 240.8 576.8)"/>
    <path d="M 92.75027939272346,592.5460213429956 C 126.50082548297058,620.6714764182016 137.75100751305297,660.0471135234898 92.75027939272346,705.0478416438193 C 47.74955127239396,660.0471135234898 58.999733302476336,620.6714764182016 92.75027939272346,592.5460213429956 Z" fill="url(#leaf0)" opacity="0.33" transform="rotate(235.8 92.8 648.8)"/>
    <path d="M 525.0486875889103,775.7526103087051 C 570.2875380521806,813.4516523614304 585.3671548732707,866.2303112352457 525.0486875889103,926.5487785196061 C 464.7302203045499,866.2303112352457 479.80983712564,813.4516523614304 525.0486875889103,775.7526103087051 Z" fill="url(#leaf1)" opacity="0.27" transform="rotate(116.1 525.0 851.2)"/>
    <path d="M 600.2556031787306,610.809153948977 C 658.8075952045001,659.6024806371183 678.3249258797566,727.9131380005161 600.2556031787306,805.9824607015422 C 522.1862804777045,727.9131380005161 541.703611152961,659.6024806371183 600.2556031787306,610.809153948977 Z" fill="url(#leaf2)" opacity="0.32" transform="rotate(345.1 600.3 708.4)"/>
    <path d="M 119.14648612526364,555.8561008251363 C 166.485641356552,595.3053968512099 182.26535976698148,650.534411287713 119.14648612526364,713.6532849294308 C 56.02761248354579,650.534411287713 71.80733089397526,595.3053968512099 119.14648612526364,555.8561008251363 Z" fill="url(#leaf3)" opacity="0.21" transform="rotate(178.2 119.1 634.8)"/>
    <path d="M 720.0990909999265,660.0121424791619 C 767.2550362405963,699.3087635130535 782.973684654153,754.3240329605015 720.0990909999265,817.198626614728 C 657.2244973457,754.3240329605015 672.9431457592567,699.3087635130535 720.0990909999265,660.0121424791619 Z" fill="url(#leaf4)" opacity="0.38" transform="rotate(329.5 720.1 738.6)"/>
    <path d="M 85.09416924396852,786.9264758349793 C 122.92542474512274,818.4525220859412 135.53584324550746,862.5889868372877 85.09416924396852,913.0306608388266 C 34.652495242429566,862.5889868372877 47.262913742814305,818.4525220859412 85.09416924396852,786.9264758349793 Z" fill="url(#leaf5)" opacity="0.34" transform="rotate(148.3 85.1 850.0)"/>
    <path d="M 1869.354383418712,874.1910109219741 C 1900.8271081814055,900.4182815575521 1911.3180164356368,937.1364604473613 1869.354383418712,979.1000934642861 C 1827.390750401787,937.1364604473613 1837.8816586560183,900.4182815575521 1869.354383418712,874.1910109219741 Z" fill="url(#leaf6)" opacity="0.37" transform="rotate(152.8 1869.4 926.6)"/>
    <path d="M 196.3891795593656,322.9125005216008 C 223.8161417741061,345.76830236721787 232.95846251235292,377.7664249510818 196.3891795593656,414.33570790406907 C 159.81989660637828,377.7664249510818 168.96221734462512,345.76830236721787 196.3891795593656,322.9125005216008 Z" fill="url(#leaf7)" opacity="0.27" transform="rotate(197.9 196.4 368.6)"/>
    <path d="M 376.60047205565496,315.9538868002095 C 418.7925850409038,351.11398095458355 432.85662270265345,400.3381127707072 376.60047205565496,456.59426341770563 C 320.34432140865647,400.3381127707072 334.4083590704061,351.11398095458355 376.60047205565496,315.9538868002095 Z" fill="url(#leaf8)" opacity="0.21" transform="rotate(97.1 376.6 386.3)"/>
    <path d="M 983.9120704165791,556.0719059618543 C 1028.0474080189192,592.8513539638045 1042.7591872196992,644.3425811665346 983.9120704165791,703.1896979696548 C 925.064953613459,644.3425811665346 939.776732814239,592.8513539638045 983.9120704165791,556.0719059618543 Z" fill="url(#leaf9)" opacity="0.26" transform="rotate(35.0 983.9 629.6)"/>
    <path d="M 52.456034554560645,831.7152378732419 C 103.51237809668845,874.2621908250151 120.5311592773977,933.8279249574975 52.456034554560645,1001.9030496803346 C -15.619090168276415,933.8279249574975 1.3996910124328465,874.2621908250151 52.456034554560645,831.7152378732419 Z" fill="url(#leaf10)" opacity="0.36" transform="rotate(293.1 52.5 916.8)"/>
    <path d="M 1696.8183692890034,206.8057077708006 C 1722.6470022259268,228.3295685515702 1731.2565465382347,258.4629736446476 1696.8183692890034,292.90115089387893 C 1662.380192039772,258.4629736446476 1670.98973635208,228.3295685515702 1696.8183692890034,206.8057077708006 Z" fill="url(#leaf11)" opacity="0.28" transform="rotate(220.7 1696.8 249.9)"/>
    <path d="M 1554.579585431371,608.6792652307047 C 1593.6048845945666,641.200347866701 1606.6133176489652,686.7298635570959 1554.579585431371,738.76359577469 C 1502.5458532137768,686.7298635570959 1515.5542862681755,641.200347866701 1554.579585431371,608.6792652307047 Z" fill="url(#leaf12)" opacity="0.25" transform="rotate(96.1 1554.6 673.7)"/>
    <path d="M 935.6915980759211,131.7396136531567 C 968.394461232106,158.99199961664416 979.295415617501,197.1453399655266 935.6915980759211,240.74915750710653 C 892.0877805343412,197.1453399655266 902.9887349197362,158.99199961664416 935.6915980759211,131.7396136531567 Z" fill="url(#leaf13)" opacity="0.31" transform="rotate(149.3 935.7 186.2)"/>
    <path d="M 1247.2136117811451,385.46731499532325 C 1294.7381761478293,425.0711186342268 1310.5796976033907,480.51644372869174 1247.2136117811451,543.8825295509374 C 1183.8475259588995,480.51644372869174 1199.689047414461,425.0711186342268 1247.2136117811451,385.46731499532325 Z" fill="url(#leaf14)" opacity="0.22" transform="rotate(350.2 1247.2 464.7)"/>
    <path d="M 1481.225429995189,293.3243998326474 C 1507.164517794025,314.94030633167745 1515.810880393637,345.2025754303195 1481.225429995189,379.78802582876756 C 1446.639979596741,345.2025754303195 1455.286342196353,314.94030633167745 1481.225429995189,293.3243998326474 Z" fill="url(#leaf15)" opacity="0.25" transform="rotate(350.4 1481.2 336.6)"/>
    <path d="M 106.6959816381329,652.7085686420786 C 135.12719934328155,676.4012500630357 144.60427191166443,709.5710040523758 106.6959816381329,747.4792943259073 C 68.78769136460139,709.5710040523758 78.26476393298427,676.4012500630357 106.6959816381329,652.7085686420786 Z" fill="url(#leaf16)" opacity="0.22" transform="rotate(308.0 106.7 700.1)"/>
    <path d="M 1279.7539130363878,307.03339143175447 C 1317.6929476060507,338.6492535731402 1330.3392924626048,382.91146057108017 1279.7539130363878,433.49683999729734 C 1229.1685336101707,382.91146057108017 1241.8148784667248,338.6492535731402 1279.7539130363878,307.03339143175447 Z" fill="url(#leaf17)" opacity="0.26" transform="rotate(8.9 1279.8 370.3)"/>
    <path d="M 436.1772380360991,663.1408054122115 C 491.85454991717955,709.5385653131119 510.4136538775397,774.4954291743725 436.1772380360991,848.7318450158131 C 361.9408221946585,774.4954291743725 380.4999261550186,709.5385653131119 436.1772380360991,663.1408054122115 Z" fill="url(#leaf18)" opacity="0.35" transform="rotate(0.1 436.2 755.9)"/>
    <path d="M 420.2135248103885,785.2174141041623 C 476.06978062384655,831.7642939487107 494.68853256166585,896.9299257310784 420.2135248103885,971.4049334823558 C 345.73851705911113,896.9299257310784 364.35726899693043,831.7642939487107 420.2135248103885,785.2174141041623 Z" fill="url(#leaf19)" opacity="0.31" transform="rotate(106.8 420.2 878.3)"/>
    <path d="M 77.77186704875115,848.3440996569815 C 118.77752916748139,882.5154847559234 132.44608320705814,930.355423894442 77.77186704875115,985.029640052749 C 23.097650890444164,930.355423894442 36.76620493002091,882.5154847559234 77.77186704875115,848.3440996569815 Z" fill="url(#leaf0)" opacity="0.34" transform="rotate(115.9 77.8 916.7)"/>
    <path d="M 1195.1053670037566,244.21693735894073 C 1251.895250667398,291.5418404119751 1270.8252118886116,357.7967046862233 1195.1053670037566,433.51654957107826 C 1119.3855221189015,357.7967046862233 1138.3154833401152,291.5418404119751 1195.1053670037566,244.21693735894073 Z" fill="url(#leaf1)" opacity="0.20" transform="rotate(83.3 1195.1 338.9)"/>
    <path d="M 617.9503659120736,571.6398887558468 C 661.7674645054011,608.1541375836198 676.3731640365104,659.2740859425019 617.9503659120736,717.6968840669387 C 559.5275677876368,659.2740859425019 574.1332673187461,608.1541375836198 617.9503659120736,571.6398887558468 Z" fill="url(#leaf2)" opacity="0.31" transform="rotate(347.8 618.0 644.7)"/>
    <path d="M 1652.9135247182858,347.3829783768047 C 1681.4820499175796,371.19008270954953 1691.0048916506776,404.5200287753923 1652.9135247182858,442.61139570778397 C 1614.822157785894,404.5200287753923 1624.344999518992,371.19008270954953 1652.9135247182858,347.3829783768047 Z" fill="url(#leaf3)" opacity="0.33" transform="rotate(263.6 1652.9 395.0)"/>
    <path d="M 771.7957574124258,165.15652092775426 C 821.9525810689847,206.95387397488668 838.6715222878377,265.47016824087206 771.7957574124258,332.34593311628396 C 704.919992537014,265.47016824087206 721.6389337558669,206.95387397488668 771.7957574124258,165.15652092775426 Z" fill="url(#leaf4)" opacity="0.33" transform="rotate(21.7 771.8 248.8)"/>
    <path d="M 990.8721648119563,734.9635012964025 C 1042.697767940393,778.1515039034332 1059.9729689832054,838.6147075532763 990.8721648119563,907.7155117245254 C 921.7713606407071,838.6147075532763 939.0465616835194,778.1515039034332 990.8721648119563,734.9635012964025 Z" fill="url(#leaf5)" opacity="0.25" transform="rotate(215.6 990.9 821.3)"/>
    <path d="M 604.2419318489675,817.1401563116909 C 632.6050492787331,840.7760875031622 642.0594217553216,873.8663911712222 604.2419318489675,911.6838810775763 C 566.4244419426134,873.8663911712222 575.878814419202,840.7760875031622 604.2419318489675,817.1401563116909 Z" fill="url(#leaf6)" opacity="0.27" transform="rotate(343.6 604.2 864.4)"/>
    <path d="M 1265.1484558423424,57.650470369346465 C 1294.3583487071878,81.99204775671762 1304.0949796621362,116.07025609903727 1265.1484558423424,155.01677991883113 C 1226.2019320225486,116.07025609903727 1235.938562977497,81.99204775671762 1265.1484558423424,57.650470369346465 Z" fill="url(#leaf7)" opacity="0.26" transform="rotate(309.4 1265.1 106.3)"/>
    <path d="M 1695.4850364287215,620.0462380217207 C 1739.689138925046,656.8829901019911 1754.4238397571542,708.4544430143698 1695.4850364287215,767.3932463428025 C 1636.5462331002889,708.4544430143698 1651.280933932397,656.8829901019911 1695.4850364287215,620.0462380217207 Z" fill="url(#leaf8)" opacity="0.28" transform="rotate(107.8 1695.5 693.7)"/>
    <path d="M 1556.6352827641842,892.2898474513988 C 1594.1694239551591,923.5682984438778 1606.6808043521507,967.3581298333485 1556.6352827641842,1017.4036514213149 C 1506.5897611762177,967.3581298333485 1519.1011415732094,923.5682984438778 1556.6352827641842,892.2898474513988 Z" fill="url(#leaf9)" opacity="0.22" transform="rotate(57.8 1556.6 954.8)"/>
    <path d="M 124.27889000994362,307.5533372753059 C 181.67386092535563,355.3824797048159 200.80551789715963,422.3432791061299 124.27889000994362,498.8699069933459 C 47.752262122727615,422.3432791061299 66.88391909453162,355.3824797048159 124.27889000994362,307.5533372753059 Z" fill="url(#leaf10)" opacity="0.35" transform="rotate(256.2 124.3 403.2)"/>
    <path d="M 88.33463447892109,14.296606532414515 C 134.70904925863576,52.941952182176735 150.16718751854063,107.04543609184384 88.33463447892109,168.87798913146338 C 26.502081439301534,107.04543609184384 41.96021969920643,52.941952182176735 88.33463447892109,14.296606532414515 Z" fill="url(#leaf11)" opacity="0.26" transform="rotate(98.4 88.3 91.6)"/>
    <path d="M 933.1301042171815,283.9911879632295 C 965.9184116412067,311.3147774832505 976.8478474492151,349.56780281127993 933.1301042171815,393.28554604331356 C 889.4123609851479,349.56780281127993 900.3417967931563,311.3147774832505 933.1301042171815,283.9911879632295 Z" fill="url(#leaf12)" opacity="0.29" transform="rotate(302.7 933.1 338.6)"/>
    <path d="M 898.3867203636054,-1.2717499630282632 C 935.1441710259207,29.359458922234545 947.3966545800258,72.24315136160247 898.3867203636054,121.25308557802296 C 849.3767861471849,72.24315136160247 861.62926970129,29.359458922234545 898.3867203636054,-1.2717499630282632 Z" fill="url(#leaf13)" opacity="0.33" transform="rotate(149.9 898.4 60.0)"/>
    <path d="M 663.1808049994954,307.086528646386 C 699.4663322814097,337.32446804798116 711.5615080420476,379.6575832102144 663.1808049994954,428.0382862527666 C 614.8001019569432,379.6575832102144 626.8952777175812,337.32446804798116 663.1808049994954,307.086528646386 Z" fill="url(#leaf14)" opacity="0.35" transform="rotate(318.0 663.2 367.6)"/>
    <path d="M 676.5410779132558,921.8224926544868 C 729.008558514961,965.545393155908 746.4977187155295,1026.7574538578974 676.5410779132558,1096.714094660171 C 606.5844371109821,1026.7574538578974 624.0735973115505,965.545393155908 676.5410779132558,921.8224926544868 Z" fill="url(#leaf15)" opacity="0.32" transform="rotate(65.0 676.5 1009.3)"/>
    <path d="M 1263.6314201896278,323.90307810787266 C 1320.657960034359,371.4251946451487 1339.6668066492693,437.9561577973351 1263.6314201896278,513.9915442569768 C 1187.5960337299862,437.9561577973351 1206.6048803448966,371.4251946451487 1263.6314201896278,323.90307810787266 Z" fill="url(#leaf16)" opacity="0.22" transform="rotate(90.3 1263.6 418.9)"/>
    <path d="M 1143.672733615659,27.906345557825134 C 1190.0976208704508,66.5937516034851 1205.572583288715,120.75612006740906 1143.672733615659,182.65596974046503 C 1081.772883942603,120.75612006740906 1097.247846360867,66.5937516034851 1143.672733615659,27.906345557825134 Z" fill="url(#leaf17)" opacity="0.26" transform="rotate(262.0 1143.7 105.3)"/>
    <path d="M 617.1152872048406,195.29915285851877 C 668.3233224894656,237.97251559570628 685.3926675843406,297.7152234277688 617.1152872048406,365.99260380726884 C 548.8379068253405,297.7152234277688 565.9072519202156,237.97251559570628 617.1152872048406,195.29915285851877 Z" fill="url(#leaf18)" opacity="0.35" transform="rotate(357.1 617.1 280.6)"/>
    <path d="M 1660.4299359471838,158.13366574481194 C 1695.1124769075564,187.035783211789 1706.673323894347,227.4987476655569 1660.4299359471838,273.7421356127202 C 1614.1865480000206,227.4987476655569 1625.7473949868113,187.035783211789 1660.4299359471838,158.13366574481194 Z" fill="url(#leaf19)" opacity="0.22" transform="rotate(78.2 1660.4 215.9)"/>
    <path d="M 1371.3001488628256,725.9067773512064 C 1415.2190512662712,762.5058626874111 1429.858685400753,813.7445821580975 1371.3001488628256,872.3031186960249 C 1312.7416123248981,813.7445821580975 1327.38124645938,762.5058626874111 1371.3001488628256,725.9067773512064 Z" fill="url(#leaf0)" opacity="0.40" transform="rotate(232.8 1371.3 799.1)"/>
    <path d="M 879.3380314026064,649.7793236605193 C 920.8814798606036,684.3988640421836 934.7292960132693,732.8662205765137 879.3380314026064,788.2574851871767 C 823.9467667919434,732.8662205765137 837.7945829446091,684.3988640421836 879.3380314026064,649.7793236605193 Z" fill="url(#leaf1)" opacity="0.39" transform="rotate(119.2 879.3 719.0)"/>
    <path d="M 242.62032626456568,942.2239999349734 C 286.06141248505213,978.4249051187121 300.5417745585477,1029.1061723759465 242.62032626456568,1087.0276206699284 C 184.6988779705837,1029.1061723759465 199.17924004407922,978.4249051187121 242.62032626456568,942.2239999349734 Z" fill="url(#leaf2)" opacity="0.22" transform="rotate(298.3 242.6 1014.6)"/>
    <path d="M 1253.3740097358195,751.0187494150892 C 1302.5149076824275,791.9694977039292 1318.8952069979634,849.3005453083052 1253.3740097358195,914.8217425704491 C 1187.8528124736756,849.3005453083052 1204.2331117892115,791.9694977039292 1253.3740097358195,751.0187494150892 Z" fill="url(#leaf3)" opacity="0.29" transform="rotate(30.3 1253.4 832.9)"/>
    <path d="M 1379.5121866945215,307.6167280440813 C 1408.7417813096595,331.97472355669623 1418.4849795147054,366.07591727435715 1379.5121866945215,405.04871009454104 C 1340.5393938743375,366.07591727435715 1350.2825920793834,331.97472355669623 1379.5121866945215,307.6167280440813 Z" fill="url(#leaf4)" opacity="0.36" transform="rotate(306.7 1379.5 356.3)"/>
    <path d="M 184.40949897222262,852.9674175956982 C 241.997827366605,900.9576912576836 261.1939368313991,968.144074384463 184.40949897222262,1044.9285122436395 C 107.62506111304612,968.144074384463 126.82117057784025,900.9576912576836 184.40949897222262,852.9674175956982 Z" fill="url(#leaf5)" opacity="0.21" transform="rotate(212.2 184.4 948.9)"/>
    <path d="M 797.2579411566667,202.85785500062065 C 845.9258782981834,243.4144692852179 862.1485240120223,300.1937292836541 797.2579411566667,365.0843121390097 C 732.367358301311,300.1937292836541 748.5900040151499,243.4144692852179 797.2579411566667,202.85785500062065 Z" fill="url(#leaf6)" opacity="0.28" transform="rotate(171.8 797.3 284.0)"/>
    <path d="M 295.4507312604572,512.0433396209505 C 337.237564225767,546.8657004253754 351.166508547537,595.6170055515702 295.4507312604572,651.33278283865 C 239.7349539733774,595.6170055515702 253.66389829514736,546.8657004253754 295.4507312604572,512.0433396209505 Z" fill="url(#leaf7)" opacity="0.33" transform="rotate(121.5 295.5 581.7)"/>
    <path d="M 290.3082372263367,529.0740717636563 C 321.2338682355711,554.8454309380184 331.54241190531593,590.9253337821252 290.3082372263367,632.1595084611045 C 249.07406254735747,590.9253337821252 259.3826062171023,554.8454309380184 290.3082372263367,529.0740717636563 Z" fill="url(#leaf8)" opacity="0.35" transform="rotate(259.8 290.3 580.6)"/>
    <path d="M 1166.2596235008737,679.387136878905 C 1199.2465903667949,706.8762759338393 1210.2422459887687,745.3610706107473 1166.2596235008737,789.3436930986422 C 1122.2770010129786,745.3610706107473 1133.2726566349525,706.8762759338393 1166.2596235008737,679.387136878905 Z" fill="url(#leaf9)" opacity="0.28" transform="rotate(298.3 1166.3 734.4)"/>
    <path d="M 1423.4342615662981,824.5515145656765 C 1468.6981210724969,862.2713974875087 1483.7860742412297,915.0792335780737 1423.4342615662981,975.4310462530053 C 1363.0824488913665,915.0792335780737 1378.1704020600994,862.2713974875087 1423.4342615662981,824.5515145656765 Z" fill="url(#leaf10)" opacity="0.33" transform="rotate(309.2 1423.4 900.0)"/>
    <path d="M 286.8698354113053,883.4213802353753 C 318.358145993329,909.6616390537284 328.85424952067024,946.3980013994227 286.8698354113053,988.3824155087876 C 244.8854213019404,946.3980013994227 255.38152482928163,909.6616390537284 286.8698354113053,883.4213802353753 Z" fill="url(#leaf11)" opacity="0.33" transform="rotate(309.7 286.9 935.9)"/>
    <path d="M 1534.2490465947915,104.71545793905042 C 1583.0330935656957,145.36883041480388 1599.294442555997,202.2835518808587 1534.2490465947915,267.3289478420643 C 1469.203650633586,202.2835518808587 1485.4649996238873,145.36883041480388 1534.2490465947915,104.71545793905042 Z" fill="url(#leaf12)" opacity="0.38" transform="rotate(9.9 1534.2 186.0)"/>
    <path d="M 418.4793766865766,669.1019700169909 C 452.21157919214164,697.2121387716284 463.4556466939967,736.566375028121 418.4793766865766,781.542645035541 C 373.5031066791565,736.566375028121 384.74717418101153,697.2121387716284 418.4793766865766,669.1019700169909 Z" fill="url(#leaf13)" opacity="0.38" transform="rotate(61.9 418.5 725.3)"/>
    <path d="M 1545.0432824338916,429.67715783139624 C 1592.3284713031749,469.08148188913225 1608.0902009262693,524.2475355699627 1545.0432824338916,587.2944540623404 C 1481.996363941514,524.2475355699627 1497.7580935646083,469.08148188913225 1545.0432824338916,429.67715783139624 Z" fill="url(#leaf14)" opacity="0.35" transform="rotate(215.1 1545.0 508.5)"/>
    <path d="M 640.0701011801672,899.1502287010599 C 693.2601402671017,943.4752612735053 710.9901532960799,1005.530306874929 640.0701011801672,1076.4503589908418 C 569.1500490642544,1005.530306874929 586.8800620932326,943.4752612735053 640.0701011801672,899.1502287010599 Z" fill="url(#leaf15)" opacity="0.31" transform="rotate(294.0 640.1 987.8)"/>
    <path d="M 1113.3222376587871,249.0819668777313 C 1151.8484616568903,281.1871535428173 1164.6905363229248,326.13441487393777 1113.3222376587871,377.5027135380754 C 1061.9539389946494,326.13441487393777 1074.796013660684,281.1871535428173 1113.3222376587871,249.0819668777313 Z" fill="url(#leaf16)" opacity="0.29" transform="rotate(102.5 1113.3 313.3)"/>
    <path d="M 189.30674503556878,565.8365264205287 C 242.41311593486768,610.0918355032777 260.1152395679673,672.0492682191265 189.30674503556878,742.857762751525 C 118.49825050317025,672.0492682191265 136.2003741362699,610.0918355032777 189.30674503556878,565.8365264205287 Z" fill="url(#leaf17)" opacity="0.28" transform="rotate(192.3 189.3 654.3)"/>
    <path d="M 878.5030603150535,367.08324834835093 C 909.8624895741916,393.2161060642993 920.3156326605709,429.8021068666271 878.5030603150535,471.61467921214455 C 836.6904879695361,429.8021068666271 847.1436310559154,393.2161060642993 878.5030603150535,367.08324834835093 Z" fill="url(#leaf18)" opacity="0.37" transform="rotate(249.0 878.5 419.3)"/>
    <path d="M 927.2232094121136,734.059995888232 C 976.776145089874,775.3541089530323 993.2937903157941,833.1658672437527 927.2232094121136,899.2364481474332 C 861.1526285084332,833.1658672437527 877.6702737343533,775.3541089530323 927.2232094121136,734.059995888232 Z" fill="url(#leaf19)" opacity="0.22" transform="rotate(339.9 927.2 816.6)"/>
    <path d="M 299.1867153550679,442.28210179071584 C 346.3284867746829,481.5669113070617 362.04241058122125,536.5656446299458 299.1867153550679,599.4213398560992 C 236.3310201289146,536.5656446299458 252.04494393545292,481.5669113070617 299.1867153550679,442.28210179071584 Z" fill="url(#leaf0)" opacity="0.23" transform="rotate(119.8 299.2 520.9)"/>
    <path d="M 674.1659287666043,179.52542956132908 C 726.9722624091314,223.53070759676828 744.5743736233071,285.1380968463832 674.1659287666043,355.5465417030859 C 603.7574839099016,285.1380968463832 621.3595951240773,223.53070759676828 674.1659287666043,179.52542956132908 Z" fill="url(#leaf1)" opacity="0.39" transform="rotate(170.4 674.2 267.5)"/>
    <path d="M 162.8152707644959,429.7042956550606 C 204.31700483998628,464.2890740513026 218.15091619848306,512.7077638060414 162.8152707644959,568.0434092400285 C 107.47962533050871,512.7077638060414 121.3135366890055,464.2890740513026 162.8152707644959,429.7042956550606 Z" fill="url(#leaf2)" opacity="0.37" transform="rotate(120.7 162.8 498.9)"/>
    <path d="M 908.6717084814478,307.2689537983266 C 948.5559967522062,340.50586069062524 961.8507595091256,387.0375303398433 908.6717084814478,440.21658136752103 C 855.49265745377,387.0375303398433 868.7874202106894,340.50586069062524 908.6717084814478,307.2689537983266 Z" fill="url(#leaf3)" opacity="0.33" transform="rotate(324.3 908.7 373.7)"/>
    <path d="M 577.0781950872073,929.4436978669445 C 609.9943341621945,956.8738137627671 620.9663805205236,995.2759760169189 577.0781950872073,1039.1641614502353 C 533.190009653891,995.2759760169189 544.1620560122201,956.8738137627671 577.0781950872073,929.4436978669445 Z" fill="url(#leaf4)" opacity="0.27" transform="rotate(6.9 577.1 984.3)"/>
    <path d="M 615.3820747877623,8.722747050321573 C 660.4550374440638,46.28354926390616 675.4793583294977,98.86867236292458 615.3820747877623,158.96595590465992 C 555.284791246027,98.86867236292458 570.3091121314609,46.28354926390616 615.3820747877623,8.722747050321573 Z" fill="url(#leaf5)" opacity="0.37" transform="rotate(161.9 615.4 83.8)"/>
    <path d="M 404.13859173012906,592.99109435593 C 445.0863648232148,627.1142386001682 458.73562252091006,674.8866405421015 404.13859173012906,729.4836713328825 C 349.5415609393481,674.8866405421015 363.1908186370433,627.1142386001682 404.13859173012906,592.99109435593 Z" fill="url(#leaf6)" opacity="0.37" transform="rotate(300.9 404.1 661.2)"/>
    <path d="M 1597.7804748047033,905.4426122852458 C 1641.5171294281433,941.8898244714458 1656.0960143026234,992.9159215321258 1597.7804748047033,1051.231461030046 C 1539.4649353067832,992.9159215321258 1554.0438201812633,941.8898244714458 1597.7804748047033,905.4426122852458 Z" fill="url(#leaf7)" opacity="0.27" transform="rotate(286.2 1597.8 978.3)"/>
    <path d="M 1603.8354293482266,65.80868570916577 C 1651.329762154792,105.3872963813036 1667.1612064236472,160.79735132229658 1603.8354293482266,224.1231283977171 C 1540.509652272806,160.79735132229658 1556.3410965416613,105.3872963813036 1603.8354293482266,65.80868570916577 Z" fill="url(#leaf8)" opacity="0.40" transform="rotate(13.9 1603.8 145.0)"/>
    <path d="M 1405.7589130047033,349.6652505788847 C 1455.2672027184233,390.9221586736513 1471.76996595633,448.68183000632456 1405.7589130047033,514.692882957951 C 1339.7478600530767,448.68183000632456 1356.2506232909834,390.9221586736513 1405.7589130047033,349.6652505788847 Z" fill="url(#leaf9)" opacity="0.26" transform="rotate(128.2 1405.8 432.2)"/>
    <path d="M 1209.3387746657854,836.5183718614301 C 1263.29677746064,881.4833741904755 1281.282778392258,944.4343774511391 1209.3387746657854,1016.3783811776118 C 1137.3947709393128,944.4343774511391 1155.3807718709309,881.4833741904755 1209.3387746657854,836.5183718614301 Z" fill="url(#leaf10)" opacity="0.24" transform="rotate(151.2 1209.3 926.4)"/>
    <path d="M 1043.5583417993644,236.02448798623382 C 1089.8638810939772,274.6124373984112 1105.2990608588482,328.63556657545956 1043.5583417993644,390.37628563494343 C 981.8176227398806,328.63556657545956 997.2528025047515,274.6124373984112 1043.5583417993644,236.02448798623382 Z" fill="url(#leaf11)" opacity="0.23" transform="rotate(136.8 1043.6 313.2)"/>
    <path d="M 1529.5097147983752,961.9968787101744 C 1561.9192773219836,989.004847479848 1572.722464829853,1026.8160037573912 1529.5097147983752,1070.028753788869 C 1486.2969647668974,1026.8160037573912 1497.1001522747667,989.004847479848 1529.5097147983752,961.9968787101744 Z" fill="url(#leaf12)" opacity="0.21" transform="rotate(133.0 1529.5 1016.0)"/>
    <path d="M 1407.5872162388785,757.6048903634239 C 1437.5037845568563,782.5353639617388 1447.4759739961821,817.4380269993795 1407.5872162388785,857.3267847566833 C 1367.6984584815748,817.4380269993795 1377.6706479209006,782.5353639617388 1407.5872162388785,757.6048903634239 Z" fill="url(#leaf13)" opacity="0.40" transform="rotate(130.7 1407.6 807.5)"/>
    <path d="M 534.0599585381826,3.303110175292204 C 592.825595250913,52.27447410256755 612.4141408218231,120.83438360075304 534.0599585381826,199.1885658843936 C 455.70577625454206,120.83438360075304 475.29432182545224,52.27447410256755 534.0599585381826,3.303110175292204 Z" fill="url(#leaf14)" opacity="0.39" transform="rotate(349.1 534.1 101.2)"/>
    <path d="M 961.7121157839028,20.882666343992412 C 1018.7160640089066,68.3859565314956 1037.717380083908,134.89056279400006 961.7121157839028,210.89582709400517 C 885.7068514838977,134.89056279400006 904.708167558899,68.3859565314956 961.7121157839028,20.882666343992412 Z" fill="url(#leaf15)" opacity="0.21" transform="rotate(116.0 961.7 115.9)"/>
    <path d="M 595.1140332734739,776.2151361497173 C 626.5674684159615,802.4263321017903 637.0519467967907,839.1220064346925 595.1140332734739,881.0599199580093 C 553.176119750157,839.1220064346925 563.6605981309863,802.4263321017903 595.1140332734739,776.2151361497173 Z" fill="url(#leaf16)" opacity="0.39" transform="rotate(151.4 595.1 828.6)"/>
    <path d="M 849.5800877636151,562.293911136297 C 882.8510507956216,590.0197136629691 893.9413718062906,628.8358372003102 849.5800877636151,673.1971212429856 C 805.2188037209396,628.8358372003102 816.3091247316086,590.0197136629691 849.5800877636151,562.293911136297 Z" fill="url(#leaf17)" opacity="0.38" transform="rotate(44.3 849.6 617.7)"/>
    <path d="M 1511.9063818668192,-40.687930554736084 C 1568.7888421281484,6.714119663038339 1587.7496622152582,73.07698996792253 1511.9063818668192,148.9202703163616 C 1436.06310151838,73.07698996792253 1455.02392160549,6.714119663038339 1511.9063818668192,-40.687930554736084 Z" fill="url(#leaf18)" opacity="0.34" transform="rotate(76.7 1511.9 54.1)"/>
  </g>

  <!-- Central star shape -->
  <polygon points="960.0,212.5 1056.3,407.5 1271.5,438.8 1115.8,590.6 1152.5,805.0 960.0,703.8 767.5,805.0 804.2,590.6 648.5,438.8 863.7,407.5" 
           fill="#4ECDC4" 
           transform="rotate(106.2 960.0 540.0)"/>
</svg>