<?xml version="1.0" encoding="UTF-8"?>
<svg xmlns="http://www.w3.org/2000/svg" viewBox="0 0 1920 1080" width="1920" height="1080">
  <defs>
    <linearGradient id="bgGrad" x1="0%" y1="0%" x2="100%" y2="100%">
      <stop offset="0%" stop-color="#00FA9A"/>
      <stop offset="100%" stop-color="#32CD32"/>
    </linearGradient>
    <clipPath id="complexClip"><polygon points="1351.6,540.0 1376.3,589.8 1326.8,631.9 1285.6,673.1 1188.5,682.8 1141.2,716.6 1137.4,847.1 1002.8,769.0 908.7,814.6 797.0,822.3 772.8,722.4 672.5,719.6 594.5,689.4 541.4,644.8 481.7,597.2 495.5,540.0 541.1,489.9 645.8,461.3 536.4,366.9 654.4,349.1 779.0,363.7 819.4,296.6 905.9,250.5 1013.2,255.2 1076.9,337.6 1134.1,370.4 1280.9,339.5 1342.9,383.5 1388.8,432.6 1333.7,495.3"/></clipPath>
    <radialGradient id="leaf0" cx="50%" cy="50%" r="70%">
      <stop offset="0%" stop-color="#00CED1"/>
      <stop offset="50%" stop-color="#9370DB"/>
      <stop offset="100%" stop-color="#96E6A1"/>
    </radialGradient>
    <radialGradient id="leaf1" cx="50%" cy="50%" r="70%">
      <stop offset="0%" stop-color="#00FA9A"/>
      <stop offset="50%" stop-color="#FF4500"/>
      <stop offset="100%" stop-color="#4ECDC4"/>
    </radialGradient>
    <radialGradient id="leaf2" cx="50%" cy="50%" r="70%">
      <stop offset="0%" stop-color="#00CED1"/>
      <stop offset="50%" stop-color="#FF69B4"/>
      <stop offset="100%" stop-color="#FF4500"/>
    </radialGradient>
    <radialGradient id="leaf3" cx="50%" cy="50%" r="70%">
      <stop offset="0%" stop-color="#4ECDC4"/>
      <stop offset="50%" stop-color="#DC143C"/>
      <stop offset="100%" stop-color="#45B7D1"/>
    </radialGradient>
    <radialGradient id="leaf4" cx="50%" cy="50%" r="70%">
      <stop offset="0%" stop-color="#00FA9A"/>
      <stop offset="50%" stop-color="#FFE66D"/>
      <stop offset="100%" stop-color="#32CD32"/>
    </radialGradient>
    <radialGradient id="leaf5" cx="50%" cy="50%" r="70%">
      <stop offset="0%" stop-color="#FFD700"/>
      <stop offset="50%" stop-color="#FF6B6B"/>
      <stop offset="100%" stop-color="#7B68EE"/>
    </radialGradient>
    <radialGradient id="leaf6" cx="50%" cy="50%" r="70%">
      <stop offset="0%" stop-color="#00CED1"/>
      <stop offset="50%" stop-color="#FF4500"/>
      <stop offset="100%" stop-color="#FF6B6B"/>
    </radialGradient>
    <radialGradient id="leaf7" cx="50%" cy="50%" r="70%">
      <stop offset="0%" stop-color="#7B68EE"/>
      <stop offset="50%" stop-color="#DC143C"/>
      <stop offset="100%" stop-color="#FF1493"/>
    </radialGradient>
    <radialGradient id="leaf8" cx="50%" cy="50%" r="70%">
      <stop offset="0%" stop-color="#FF4500"/>
      <stop offset="50%" stop-color="#FF1493"/>
      <stop offset="100%" stop-color="#DC143C"/>
    </radialGradient>
    <radialGradient id="leaf9" cx="50%" cy="50%" r="70%">
      <stop offset="0%" stop-color="#FFE66D"/>
      <stop offset="50%" stop-color="#4ECDC4"/>
      <stop offset="100%" stop-color="#96E6A1"/>
    </radialGradient>
    <radialGradient id="leaf10" cx="50%" cy="50%" r="70%">
      <stop offset="0%" stop-color="#FF1493"/>
      <stop offset="50%" stop-color="#45B7D1"/>
      <stop offset="100%" stop-color="#FFE66D"/>
    </radialGradient>
    <radialGradient id="leaf11" cx="50%" cy="50%" r="70%">
      <stop offset="0%" stop-color="#FFD700"/>
      <stop offset="50%" stop-color="#9370DB"/>
      <stop offset="100%" stop-color="#7B68EE"/>
    </radialGradient>
    <radialGradient id="leaf12" cx="50%" cy="50%" r="70%">
      <stop offset="0%" stop-color="#7B68EE"/>
      <stop offset="50%" stop-color="#96E6A1"/>
      <stop offset="100%" stop-color="#32CD32"/>
    </radialGradient>
    <radialGradient id="leaf13" cx="50%" cy="50%" r="70%">
      <stop offset="0%" stop-color="#00CED1"/>
      <stop offset="50%" stop-color="#00FA9A"/>
      <stop offset="100%" stop-color="#FF69B4"/>
    </radialGradient>
    <radialGradient id="leaf14" cx="50%" cy="50%" r="70%">
      <stop offset="0%" stop-color="#9370DB"/>
      <stop offset="50%" stop-color="#45B7D1"/>
      <stop offset="100%" stop-color="#FFD700"/>
    </radialGradient>
    <radialGradient id="leaf15" cx="50%" cy="50%" r="70%">
      <stop offset="0%" stop-color="#FF69B4"/>
      <stop offset="50%" stop-color="#7B68EE"/>
      <stop offset="100%" stop-color="#FF6B6B"/>
    </radialGradient>
    <radialGradient id="leaf16" cx="50%" cy="50%" r="70%">
      <stop offset="0%" stop-color="#7B68EE"/>
      <stop offset="50%" stop-color="#FFD700"/>
      <stop offset="100%" stop-color="#FF6B6B"/>
    </radialGradient>
    <radialGradient id="leaf17" cx="50%" cy="50%" r="70%">
      <stop offset="0%" stop-color="#96E6A1"/>
      <stop offset="50%" stop-color="#7B68EE"/>
      <stop offset="100%" stop-color="#4ECDC4"/>
    </radialGradient>
    <radialGradient id="leaf18" cx="50%" cy="50%" r="70%">
      <stop offset="0%" stop-color="#FFD700"/>
      <stop offset="50%" stop-color="#FF6B6B"/>
      <stop offset="100%" stop-color="#FF1493"/>
    </radialGradient>
    <radialGradient id="leaf19" cx="50%" cy="50%" r="70%">
      <stop offset="0%" stop-color="#FFE66D"/>
      <stop offset="50%" stop-color="#FF69B4"/>
      <stop offset="100%" stop-color="#DC143C"/>
    </radialGradient>
  </defs>

  <!-- Background -->
  <rect width="1920" height="1080" fill="url(#bgGrad)"/>
  
  <!-- Leaves with clip-path -->
  <g clip-path="url(#complexClip)">
    <path d="M 1085.8990207994625,454.2586073283158 C 1119.4604979934034,482.22650498993323 1130.6476570580503,521.3815617161976 1085.8990207994625,566.1301979747853 C 1041.1503845408747,521.3815617161976 1052.3375436055217,482.22650498993323 1085.8990207994625,454.2586073283158 Z" fill="url(#leaf0)" opacity="0.33" transform="rotate(162.0 1085.9 510.2)"/>
    <path d="M 1011.7331310244144,70.02481310396591 C 1049.8624336663709,101.79923197226287 1062.5722012136896,146.2834183878786 1011.7331310244144,197.12248857715372 C 960.8940608351393,146.2834183878786 973.6038283824581,101.79923197226287 1011.7331310244144,70.02481310396591 Z" fill="url(#leaf1)" opacity="0.36" transform="rotate(67.3 1011.7 133.6)"/>
    <path d="M 182.6781746328198,11.847838721048944 C 226.42283899427449,48.301725688927846 241.00439378142605,99.33716744395831 182.6781746328198,157.66338659256456 C 124.35195548421356,99.33716744395831 138.93351027136512,48.301725688927846 182.6781746328198,11.847838721048944 Z" fill="url(#leaf2)" opacity="0.37" transform="rotate(14.4 182.7 84.8)"/>
    <path d="M 907.0167838500321,599.5152702239145 C 959.7701217181951,643.4763851140505 977.3545676742494,705.0219459602406 907.0167838500321,775.3597297844581 C 836.6790000258147,705.0219459602406 854.263445981869,643.4763851140505 907.0167838500321,599.5152702239145 Z" fill="url(#leaf3)" opacity="0.40" transform="rotate(271.7 907.0 687.4)"/>
    <path d="M 225.07425839655266,961.7978605875963 C 251.31311667821478,983.6635758223148 260.05940277210215,1014.2755771509206 225.07425839655266,1049.26072152647 C 190.08911402100318,1014.2755771509206 198.83540011489055,983.6635758223148 225.07425839655266,961.7978605875963 Z" fill="url(#leaf4)" opacity="0.23" transform="rotate(356.6 225.1 1005.5)"/>
    <path d="M 427.75177278396546,582.0801845631756 C 463.81804471520724,612.1354111725439 475.8401353589545,654.2127284256592 427.75177278396546,702.3010910006483 C 379.6634102089764,654.2127284256592 391.6855008527237,612.1354111725439 427.75177278396546,582.0801845631756 Z" fill="url(#leaf5)" opacity="0.29" transform="rotate(321.4 427.8 642.2)"/>
    <path d="M 995.7117847957313,447.08391928791593 C 1022.9073961412977,469.74692874255453 1031.972599923153,501.47514197904854 995.7117847957313,537.7359571064703 C 959.4509696683095,501.47514197904854 968.516173450165,469.74692874255453 995.7117847957313,447.08391928791593 Z" fill="url(#leaf6)" opacity="0.33" transform="rotate(338.3 995.7 492.4)"/>
    <path d="M 1730.135942751818,186.11826109193154 C 1770.82386302129,220.02486131649152 1784.386503111114,267.49410163087543 1730.135942751818,321.7446619901714 C 1675.885382392522,267.49410163087543 1689.448022482346,220.02486131649152 1730.135942751818,186.11826109193154 Z" fill="url(#leaf7)" opacity="0.24" transform="rotate(145.5 1730.1 253.9)"/>
    <path d="M 1162.9624133941065,225.0118494597244 C 1210.7075732050037,264.79948263547203 1226.6226264753027,320.5021690815187 1162.9624133941065,384.16238216271483 C 1099.3022003129104,320.5021690815187 1115.2172535832094,264.79948263547203 1162.9624133941065,225.0118494597244 Z" fill="url(#leaf8)" opacity="0.34" transform="rotate(38.3 1163.0 304.6)"/>
    <path d="M 760.9140608970046,566.9361525648729 C 795.8944823238456,596.0865037539072 807.5546227994594,636.8969954185552 760.9140608970046,683.53755732101 C 714.2734989945498,636.8969954185552 725.9336394701635,596.0865037539072 760.9140608970046,566.9361525648729 Z" fill="url(#leaf9)" opacity="0.20" transform="rotate(61.8 760.9 625.2)"/>
    <path d="M 882.6727444421923,770.4849630198515 C 907.0763884163468,790.8213329983137 915.2109364077318,819.2922509681606 882.6727444421923,851.8304429337 C 850.1345524766529,819.2922509681606 858.2691004680378,790.8213329983137 882.6727444421923,770.4849630198515 Z" fill="url(#leaf10)" opacity="0.38" transform="rotate(314.8 882.7 811.2)"/>
    <path d="M 1414.297474050014,576.8501117043768 C 1439.8199565617097,598.1188471307897 1448.3274507322747,627.8950767277679 1414.297474050014,661.9250534100286 C 1380.2674973677533,627.8950767277679 1388.7749915383183,598.1188471307897 1414.297474050014,576.8501117043768 Z" fill="url(#leaf11)" opacity="0.23" transform="rotate(242.6 1414.3 619.4)"/>
    <path d="M 800.8061987589508,616.5379296332467 C 858.4341542416873,664.5612258688603 877.6434727359328,731.7938405987196 800.8061987589508,808.6311145757015 C 723.9689247819688,731.7938405987196 743.1782432762143,664.5612258688603 800.8061987589508,616.5379296332467 Z" fill="url(#leaf12)" opacity="0.30" transform="rotate(101.5 800.8 712.6)"/>
    <path d="M 529.8882000763965,229.14431286725 C 578.9143024194358,269.9993981531161 595.2563365337822,327.19651755332853 529.8882000763965,392.56465401071426 C 464.5200636190108,327.19651755332853 480.86209773335725,269.9993981531161 529.8882000763965,229.14431286725 Z" fill="url(#leaf13)" opacity="0.36" transform="rotate(191.9 529.9 310.9)"/>
    <path d="M 1721.5140402696356,853.5736159096713 C 1775.4738178618816,898.5400972365428 1793.4604103926301,961.4931710941629 1721.5140402696356,1033.4395412171575 C 1649.5676701466411,961.4931710941629 1667.5542626773897,898.5400972365428 1721.5140402696356,853.5736159096713 Z" fill="url(#leaf14)" opacity="0.23" transform="rotate(205.6 1721.5 943.5)"/>
    <path d="M 1793.1126975134985,913.7992342730413 C 1826.0917661354827,941.2817914580281 1837.0847890094776,979.7573715170098 1793.1126975134985,1023.7294630129888 C 1749.1406060175193,979.7573715170098 1760.1336288915143,941.2817914580281 1793.1126975134985,913.7992342730413 Z" fill="url(#leaf15)" opacity="0.25" transform="rotate(270.8 1793.1 968.8)"/>
    <path d="M 316.8302503134912,568.6350859807181 C 364.3056293694766,608.197901860706 380.13075572147176,663.585844092689 316.8302503134912,726.8863495006696 C 253.52974490551065,663.585844092689 269.3548712575058,608.197901860706 316.8302503134912,568.6350859807181 Z" fill="url(#leaf16)" opacity="0.25" transform="rotate(258.4 316.8 647.8)"/>
    <path d="M 82.33384920938016,781.7119323994855 C 124.84882123581363,817.1410757548467 139.02047857795813,866.7418764523525 82.33384920938016,923.4285058209305 C 25.647219840802194,866.7418764523525 39.81887718294669,817.1410757548467 82.33384920938016,781.7119323994855 Z" fill="url(#leaf17)" opacity="0.29" transform="rotate(79.5 82.3 852.6)"/>
    <path d="M 1325.7576152897987,889.9663168789695 C 1353.0418041405362,912.7031409212509 1362.136533757449,944.5346945804448 1325.7576152897987,980.913613048095 C 1289.3786968221484,944.5346945804448 1298.473426439061,912.7031409212509 1325.7576152897987,889.9663168789695 Z" fill="url(#leaf18)" opacity="0.37" transform="rotate(59.7 1325.8 935.4)"/>
    <path d="M 664.3008554179646,954.5828337043297 C 693.392708775073,978.8260448352532 703.0899932274424,1012.7665404185464 664.3008554179646,1051.5556782280241 C 625.5117176084868,1012.7665404185464 635.2090020608563,978.8260448352532 664.3008554179646,954.5828337043297 Z" fill="url(#leaf19)" opacity="0.26" transform="rotate(6.5 664.3 1003.1)"/>
    <path d="M 302.60281325844346,616.4493486299086 C 353.6940414074913,659.0253720874485 370.7244507905072,718.6318049280043 302.60281325844346,786.7534424600681 C 234.48117572637972,718.6318049280043 251.51158510939567,659.0253720874485 302.60281325844346,616.4493486299086 Z" fill="url(#leaf0)" opacity="0.31" transform="rotate(321.7 302.6 701.6)"/>
    <path d="M 767.5845317645159,275.992492201075 C 807.6222662568907,309.35727094472077 820.9681777543491,356.0679611858248 767.5845317645159,409.451607175658 C 714.2008857746827,356.0679611858248 727.546797272141,309.35727094472077 767.5845317645159,275.992492201075 Z" fill="url(#leaf1)" opacity="0.36" transform="rotate(246.5 767.6 342.7)"/>
    <path d="M 1170.2954027364008,28.488552899817265 C 1222.0384003789063,71.60771760190528 1239.2860662597416,131.9745481848285 1170.2954027364008,200.9652117081693 C 1101.30473921306,131.9745481848285 1118.5524050938952,71.60771760190528 1170.2954027364008,28.488552899817265 Z" fill="url(#leaf2)" opacity="0.25" transform="rotate(117.6 1170.3 114.7)"/>
    <path d="M 1552.155846245005,-22.408488649863763 C 1602.4280839076712,19.48504273569136 1619.1854964618933,78.13598667546853 1552.155846245005,145.16563689235673 C 1485.1261960281167,78.13598667546853 1501.8836085823389,19.48504273569136 1552.155846245005,-22.408488649863763 Z" fill="url(#leaf3)" opacity="0.21" transform="rotate(198.3 1552.2 61.4)"/>
    <path d="M 1176.9862561030748,668.0453028593266 C 1216.3952087402636,700.8860967236506 1229.531526285993,746.863208133704 1176.9862561030748,799.4084783166223 C 1124.4409859201564,746.863208133704 1137.577303465886,700.8860967236506 1176.9862561030748,668.0453028593266 Z" fill="url(#leaf4)" opacity="0.35" transform="rotate(234.2 1177.0 733.7)"/>
    <path d="M 706.5754778870801,264.4420647617569 C 765.2918183931131,313.3723485167844 784.8639318951241,381.8747457738229 706.5754778870801,460.16319978186687 C 628.287023879036,381.8747457738229 647.859137381047,313.3723485167844 706.5754778870801,264.4420647617569 Z" fill="url(#leaf5)" opacity="0.38" transform="rotate(113.2 706.6 362.3)"/>
    <path d="M 286.0807331824352,611.9590690667217 C 310.97311427401297,632.7027199763698 319.2705746378722,661.7438312498772 286.0807331824352,694.9336727053142 C 252.89089172699823,661.7438312498772 261.18835209085745,632.7027199763698 286.0807331824352,611.9590690667217 Z" fill="url(#leaf6)" opacity="0.29" transform="rotate(78.8 286.1 653.4)"/>
    <path d="M 104.30784499231953,261.49562016251764 C 144.91370721614163,295.3338386823694 158.44899462408233,342.70734461016184 104.30784499231953,396.84849424192464 C 50.16669536055673,342.70734461016184 63.70198276849743,295.3338386823694 104.30784499231953,261.49562016251764 Z" fill="url(#leaf7)" opacity="0.39" transform="rotate(25.2 104.3 329.2)"/>
    <path d="M 741.8227458570675,151.92761885374694 C 772.5563625364492,177.53896608656507 782.8009014295765,213.39485221251041 741.8227458570675,254.3730077850194 C 700.8445902845585,213.39485221251041 711.0891291776858,177.53896608656507 741.8227458570675,151.92761885374694 Z" fill="url(#leaf8)" opacity="0.27" transform="rotate(339.3 741.8 203.2)"/>
    <path d="M 1315.478100090031,451.4168659758443 C 1371.079446078405,497.7513209661561 1389.6132280745298,562.6195579525926 1315.478100090031,636.7546859370914 C 1241.342972105532,562.6195579525926 1259.8767541016568,497.7513209661561 1315.478100090031,451.4168659758443 Z" fill="url(#leaf9)" opacity="0.21" transform="rotate(145.0 1315.5 544.1)"/>
    <path d="M 854.8647557710486,263.90756539716284 C 903.3696435164426,304.32830518499105 919.5379394315738,360.9173408879506 854.8647557710486,425.5905245484758 C 790.1915721105235,360.9173408879506 806.3598680256547,304.32830518499105 854.8647557710486,263.90756539716284 Z" fill="url(#leaf10)" opacity="0.28" transform="rotate(306.3 854.9 344.7)"/>
    <path d="M 403.5085278091177,341.7439938979363 C 450.23959662020997,380.6865512405132 465.81661955724076,435.20613152012083 403.5085278091177,497.5142232682439 C 341.20043606099466,435.20613152012083 356.77745899802545,380.6865512405132 403.5085278091177,341.7439938979363 Z" fill="url(#leaf11)" opacity="0.39" transform="rotate(204.8 403.5 419.6)"/>
    <path d="M 651.8017848552447,90.37280216946166 C 700.947055123674,131.32719405981942 717.3288118798172,188.66334270632032 651.8017848552447,254.19036973089274 C 586.2747578306722,188.66334270632032 602.6565145868154,131.32719405981942 651.8017848552447,90.37280216946166 Z" fill="url(#leaf12)" opacity="0.39" transform="rotate(153.3 651.8 172.3)"/>
    <path d="M 1357.7739919672804,436.00668383640294 C 1393.1157341123778,465.45813562398416 1404.8963148274104,506.6901681265978 1357.7739919672804,553.8124909867277 C 1310.6516691071504,506.6901681265978 1322.432249822183,465.45813562398416 1357.7739919672804,436.00668383640294 Z" fill="url(#leaf13)" opacity="0.25" transform="rotate(28.7 1357.8 494.9)"/>
    <path d="M 1084.5743444832021,237.20904658196793 C 1143.6483148241048,286.43735519938673 1163.3396382710723,355.3569872637731 1084.5743444832021,434.12228105164314 C 1005.8090506953321,355.3569872637731 1025.5003741422995,286.43735519938673 1084.5743444832021,237.20904658196793 Z" fill="url(#leaf14)" opacity="0.39" transform="rotate(216.6 1084.6 335.7)"/>
    <path d="M 992.3732553145535,782.0888254325791 C 1044.792083177858,825.7711819853329 1062.2650257989594,886.9264811591881 992.3732553145535,956.8182516435941 C 922.4814848301475,886.9264811591881 939.954427451249,825.7711819853329 992.3732553145535,782.0888254325791 Z" fill="url(#leaf15)" opacity="0.37" transform="rotate(227.5 992.4 869.5)"/>
    <path d="M 1684.9813383855992,476.767570685712 C 1741.411428872958,523.7926460918443 1760.221459035411,589.6277516604296 1684.9813383855992,664.8678723102414 C 1609.7412177357874,589.6277516604296 1628.5512478982405,523.7926460918443 1684.9813383855992,476.767570685712 Z" fill="url(#leaf16)" opacity="0.28" transform="rotate(129.1 1685.0 570.8)"/>
    <path d="M 845.0305516010678,326.2238294110391 C 903.7283110716897,375.13862896989065 923.2942308952304,443.6193483522829 845.0305516010678,521.8830276464454 C 766.7668723069053,443.6193483522829 786.3327921304459,375.13862896989065 845.0305516010678,326.2238294110391 Z" fill="url(#leaf17)" opacity="0.35" transform="rotate(16.9 845.0 424.1)"/>
    <path d="M 1345.2993906927675,350.8015047269019 C 1374.6559343432134,375.2652911022735 1384.4414488933621,409.5145920277938 1345.2993906927675,448.6566502283884 C 1306.1573324921728,409.5145920277938 1315.9428470423215,375.2652911022735 1345.2993906927675,350.8015047269019 Z" fill="url(#leaf18)" opacity="0.34" transform="rotate(337.7 1345.3 399.7)"/>
    <path d="M 500.1327802125322,812.5124362659202 C 547.9092038303111,852.3261226140693 563.8346783695707,908.065283501478 500.1327802125322,971.7671816585165 C 436.4308820554937,908.065283501478 452.3563565947533,852.3261226140693 500.1327802125322,812.5124362659202 Z" fill="url(#leaf19)" opacity="0.37" transform="rotate(179.5 500.1 892.1)"/>
    <path d="M 674.9877159123843,230.51128912645146 C 707.1877916146632,257.3446855450173 717.9211501820895,294.91144053100936 674.9877159123843,337.84487480071465 C 632.054281642679,294.91144053100936 642.7876402101053,257.3446855450173 674.9877159123843,230.51128912645146 Z" fill="url(#leaf0)" opacity="0.39" transform="rotate(64.3 675.0 284.2)"/>
    <path d="M 1318.9675301674804,659.8407857025222 C 1351.3937065542027,686.8625993581242 1362.2024320164435,724.6931384759669 1318.9675301674804,767.92804032493 C 1275.7326283185173,724.6931384759669 1286.541353780758,686.8625993581242 1318.9675301674804,659.8407857025222 Z" fill="url(#leaf1)" opacity="0.32" transform="rotate(313.6 1319.0 713.9)"/>
    <path d="M 368.6981578687938,784.4546871472187 C 406.23547688027315,815.7357863234515 418.74791655076626,859.5293251701773 368.6981578687938,909.5790838521498 C 318.6483991868214,859.5293251701773 331.1608388573145,815.7357863234515 368.6981578687938,784.4546871472187 Z" fill="url(#leaf2)" opacity="0.21" transform="rotate(67.3 368.7 847.0)"/>
    <path d="M 222.3846951702618,717.6605051370954 C 275.25807907758724,761.7216583932 292.88254038002907,823.4072729517462 222.3846951702618,893.9051181615135 C 151.88684996049454,823.4072729517462 169.51131126293637,761.7216583932 222.3846951702618,717.6605051370954 Z" fill="url(#leaf3)" opacity="0.32" transform="rotate(209.5 222.4 805.8)"/>
    <path d="M 1815.8422332601954,535.5287036385522 C 1860.018851368643,572.3425520622585 1874.7443907381255,623.8819398554473 1815.8422332601954,682.7840973333774 C 1756.9400757822652,623.8819398554473 1771.6656151517477,572.3425520622585 1815.8422332601954,535.5287036385522 Z" fill="url(#leaf4)" opacity="0.26" transform="rotate(141.2 1815.8 609.2)"/>
    <path d="M 1831.5069297124664,80.79591901233644 C 1880.919749902812,121.97326917095789 1897.3906899662607,179.62155939302792 1831.5069297124664,245.50531964682224 C 1765.6231694586722,179.62155939302792 1782.0941095221208,121.97326917095789 1831.5069297124664,80.79591901233644 Z" fill="url(#leaf5)" opacity="0.33" transform="rotate(278.0 1831.5 163.2)"/>
    <path d="M 1867.6413418802986,403.42560594464146 C 1920.3157077473845,447.3209108338796 1937.8738297030798,508.77433767881314 1867.6413418802986,579.0068255015942 C 1797.4088540575174,508.77433767881314 1814.9669760132126,447.3209108338796 1867.6413418802986,403.42560594464146 Z" fill="url(#leaf6)" opacity="0.37" transform="rotate(209.5 1867.6 491.2)"/>
    <path d="M 672.3205053493251,505.7239637041138 C 718.3141207723556,544.0519765566393 733.6453259133658,597.7111945501748 672.3205053493251,659.0360151142154 C 610.9956847852844,597.7111945501748 626.3268899262946,544.0519765566393 672.3205053493251,505.7239637041138 Z" fill="url(#leaf7)" opacity="0.25" transform="rotate(201.4 672.3 582.4)"/>
    <path d="M 750.6131639037377,888.6591672313446 C 790.1448930543157,921.6022748568262 803.3221361045084,967.7226255325006 750.6131639037377,1020.4315977332712 C 697.904191702967,967.7226255325006 711.0814347531597,921.6022748568262 750.6131639037377,888.6591672313446 Z" fill="url(#leaf8)" opacity="0.36" transform="rotate(132.4 750.6 954.5)"/>
    <path d="M 614.9592300784889,412.5386267239527 C 640.0129438643976,433.4167215455433 648.3641817930338,462.6460542957701 614.9592300784889,496.05100601031506 C 581.5542783639439,462.6460542957701 589.9055162925802,433.4167215455433 614.9592300784889,412.5386267239527 Z" fill="url(#leaf9)" opacity="0.32" transform="rotate(128.7 615.0 454.3)"/>
    <path d="M 423.46562178427314,523.6443555876946 C 471.04107690385445,563.2905681873457 486.8995619437149,618.7952658268572 423.46562178427314,682.229205986299 C 360.0316816248314,618.7952658268572 375.89016666469183,563.2905681873457 423.46562178427314,523.6443555876946 Z" fill="url(#leaf10)" opacity="0.28" transform="rotate(92.6 423.5 602.9)"/>
    <path d="M 726.6733936793214,931.1413112478255 C 754.7863566494558,954.5687803896041 764.1573443061673,987.3672371880942 726.6733936793214,1024.8511878149402 C 689.1894430524756,987.3672371880942 698.560430709187,954.5687803896041 726.6733936793214,931.1413112478255 Z" fill="url(#leaf11)" opacity="0.37" transform="rotate(217.0 726.7 978.0)"/>
    <path d="M 1701.4791020747339,635.8528014530914 C 1747.4609006757687,674.1709669539537 1762.7881668761136,727.816398655161 1701.4791020747339,789.1254634565407 C 1640.1700372733542,727.816398655161 1655.497303473699,674.1709669539537 1701.4791020747339,635.8528014530914 Z" fill="url(#leaf12)" opacity="0.32" transform="rotate(278.5 1701.5 712.5)"/>
    <path d="M 1573.4710022125942,171.30065295124044 C 1615.8595850965369,206.6244720211928 1629.989112724518,256.07781871912607 1573.4710022125942,312.5959292310498 C 1516.9528917006703,256.07781871912607 1531.0824193286514,206.6244720211928 1573.4710022125942,171.30065295124044 Z" fill="url(#leaf13)" opacity="0.29" transform="rotate(155.6 1573.5 241.9)"/>
    <path d="M 698.5092827534891,344.8916686227353 C 730.2088066120135,371.30793850483906 740.775314564855,408.29071633978424 698.5092827534891,450.55674815115015 C 656.2432509421232,408.29071633978424 666.8097588949646,371.30793850483906 698.5092827534891,344.8916686227353 Z" fill="url(#leaf14)" opacity="0.26" transform="rotate(235.5 698.5 397.7)"/>
    <path d="M 1673.0652742800066,330.8111320067153 C 1718.9865714659472,369.0788796616659 1734.2936705279276,422.6537263785967 1673.0652742800066,483.88212262651757 C 1611.8368780320857,422.6537263785967 1627.143977094066,369.0788796616659 1673.0652742800066,330.8111320067153 Z" fill="url(#leaf15)" opacity="0.32" transform="rotate(344.6 1673.1 407.3)"/>
    <path d="M 1545.0738337371101,70.2811499215532 C 1578.0468860123165,97.75869348422512 1589.0379034373852,136.22725447196584 1545.0738337371101,180.1913241722409 C 1501.109764036835,136.22725447196584 1512.1007814619038,97.75869348422512 1545.0738337371101,70.2811499215532 Z" fill="url(#leaf16)" opacity="0.23" transform="rotate(47.1 1545.1 125.2)"/>
    <path d="M 1355.1247644253112,157.36413985218545 C 1404.9422865137253,198.87874159253062 1421.5481272098634,256.9991840290138 1355.1247644253112,323.4225468135661 C 1288.701401640759,256.9991840290138 1305.3072423368972,198.87874159253062 1355.1247644253112,157.36413985218545 Z" fill="url(#leaf17)" opacity="0.23" transform="rotate(192.5 1355.1 240.4)"/>
    <path d="M 1390.8523723907188,860.5760559768263 C 1420.5183720929147,885.2977223953229 1430.4070386603134,919.9080553812182 1390.8523723907188,959.4627216508128 C 1351.297706121124,919.9080553812182 1361.1863726885229,885.2977223953229 1390.8523723907188,860.5760559768263 Z" fill="url(#leaf18)" opacity="0.25" transform="rotate(232.9 1390.9 910.0)"/>
    <path d="M 1063.6210343577102,442.33361984129124 C 1121.132036176765,490.2594546905036 1140.30237011645,557.355623479401 1063.6210343577102,634.0369592381408 C 986.9396985989704,557.355623479401 1006.1100325386553,490.2594546905036 1063.6210343577102,442.33361984129124 Z" fill="url(#leaf19)" opacity="0.30" transform="rotate(48.3 1063.6 538.2)"/>
    <path d="M 629.0321405280595,332.33380756526316 C 688.0377882928203,381.50518070256385 707.7063375477406,450.34510309478486 629.0321405280595,529.019300114466 C 550.3579435083783,450.34510309478486 570.0264927632986,381.50518070256385 629.0321405280595,332.33380756526316 Z" fill="url(#leaf0)" opacity="0.23" transform="rotate(31.3 629.0 430.7)"/>
    <path d="M 892.246809983306,899.3444798667635 C 939.3938218564597,938.633656427725 955.1094924808443,993.638503613071 892.246809983306,1056.5011861106093 C 829.3841274857676,993.638503613071 845.0997981101523,938.633656427725 892.246809983306,899.3444798667635 Z" fill="url(#leaf1)" opacity="0.30" transform="rotate(5.5 892.2 977.9)"/>
    <path d="M 922.7886275728666,13.004993736762799 C 947.3158539900031,33.44434908437652 955.4915961290486,62.05944657103573 922.7886275728666,94.76241512721768 C 890.0856590166846,62.05944657103573 898.2614011557301,33.44434908437652 922.7886275728666,13.004993736762799 Z" fill="url(#leaf2)" opacity="0.29" transform="rotate(237.3 922.8 53.9)"/>
    <path d="M 1856.255700861608,236.20070267771436 C 1881.2409739545676,257.02176358851415 1889.5693983188876,286.1712488636338 1856.255700861608,319.4849463209135 C 1822.9420034043283,286.1712488636338 1831.2704277686482,257.02176358851415 1856.255700861608,236.20070267771436 Z" fill="url(#leaf3)" opacity="0.28" transform="rotate(350.3 1856.3 277.8)"/>
    <path d="M 912.533739453078,510.2303884118186 C 957.0070514809107,547.2914817683459 971.8314888235217,599.1770124674839 912.533739453078,658.4747618379275 C 853.2359900826344,599.1770124674839 868.0604274252454,547.2914817683459 912.533739453078,510.2303884118186 Z" fill="url(#leaf4)" opacity="0.40" transform="rotate(111.7 912.5 584.4)"/>
    <path d="M 732.4665975245624,763.411115681949 C 783.8086314320045,806.1961439381507 800.9226427344853,866.0951834968332 732.4665975245624,934.5512287067561 C 664.0105523146395,866.0951834968332 681.1245636171203,806.1961439381507 732.4665975245624,763.411115681949 Z" fill="url(#leaf5)" opacity="0.23" transform="rotate(92.5 732.5 849.0)"/>
    <path d="M 1256.50169887824,-37.81853325187822 C 1311.1036654439204,7.683105552855501 1329.304320965814,71.38539987948272 1256.50169887824,144.18802196705667 C 1183.699076790666,71.38539987948272 1201.8997323125595,7.683105552855501 1256.50169887824,-37.81853325187822 Z" fill="url(#leaf6)" opacity="0.28" transform="rotate(38.3 1256.5 53.2)"/>
    <path d="M 173.0129706028353,788.2948553764664 C 229.47905414090428,835.349924991524 248.3010819869273,901.2270224526045 173.0129706028353,976.5151338366965 C 97.72485921874332,901.2270224526045 116.54688706476632,835.349924991524 173.0129706028353,788.2948553764664 Z" fill="url(#leaf7)" opacity="0.28" transform="rotate(236.9 173.0 882.4)"/>
    <path d="M 1421.8179671822163,465.3484508603886 C 1451.4280104634352,490.02348692807107 1461.2980248905083,524.5685374228265 1421.8179671822163,564.0485951311184 C 1382.3379094739244,524.5685374228265 1392.2079239009975,490.02348692807107 1421.8179671822163,465.3484508603886 Z" fill="url(#leaf8)" opacity="0.20" transform="rotate(168.5 1421.8 514.7)"/>
    <path d="M 616.6102104733741,534.9337823913563 C 645.2621189025725,558.8103727490218 654.8127550456387,592.2375992497533 616.6102104733741,630.440143822018 C 578.4076659011095,592.2375992497533 587.9583020441756,558.8103727490218 616.6102104733741,534.9337823913563 Z" fill="url(#leaf9)" opacity="0.24" transform="rotate(295.5 616.6 582.7)"/>
    <path d="M 199.00948829443013,468.920669221612 C 244.1702785066767,506.5546610651508 259.22387524409226,559.2422496461052 199.00948829443013,619.4566365957672 C 138.79510134476803,559.2422496461052 153.84869808218355,506.5546610651508 199.00948829443013,468.920669221612 Z" fill="url(#leaf10)" opacity="0.32" transform="rotate(306.1 199.0 544.2)"/>
    <path d="M 641.313705298688,162.3061233459906 C 669.781725419441,186.02947344661817 679.2710654596921,219.24216358749672 641.313705298688,257.1995237485008 C 603.3563451376839,219.24216358749672 612.8456851779349,186.02947344661817 641.313705298688,162.3061233459906 Z" fill="url(#leaf11)" opacity="0.29" transform="rotate(133.7 641.3 209.8)"/>
    <path d="M 676.0113909082688,-7.778820723939688 C 719.8701011886333,28.77010450969736 734.4896712820881,79.93859983678924 676.0113909082688,138.4168802106085 C 617.5331105344495,79.93859983678924 632.1526806279044,28.77010450969736 676.0113909082688,-7.778820723939688 Z" fill="url(#leaf12)" opacity="0.36" transform="rotate(191.1 676.0 65.3)"/>
    <path d="M 1504.8933903831014,166.39711786790707 C 1543.9717142526129,198.96238775916652 1556.9978222091165,244.55376560692977 1504.8933903831014,296.6581974329449 C 1452.7889585570863,244.55376560692977 1465.81506651359,198.96238775916652 1504.8933903831014,166.39711786790707 Z" fill="url(#leaf13)" opacity="0.27" transform="rotate(358.6 1504.9 231.5)"/>
    <path d="M 1240.9179934378028,310.3307190991603 C 1276.0820580339605,339.63410626262515 1287.8034128993465,380.6588482914759 1240.9179934378028,427.54426775301965 C 1194.032573976259,380.6588482914759 1205.7539288416451,339.63410626262515 1240.9179934378028,310.3307190991603 Z" fill="url(#leaf14)" opacity="0.39" transform="rotate(154.5 1240.9 368.9)"/>
    <path d="M 1105.6973014506525,838.1495270993141 C 1135.0921198351557,862.6452090864001 1144.8903926299902,896.9391638683205 1105.6973014506525,936.1322550476582 C 1066.5042102713148,896.9391638683205 1076.3024830661493,862.6452090864001 1105.6973014506525,838.1495270993141 Z" fill="url(#leaf15)" opacity="0.35" transform="rotate(12.5 1105.7 887.1)"/>
    <path d="M 801.4223741180148,140.5198284183395 C 828.6529473160085,163.21197275000097 837.7298050486731,194.98097481432703 801.4223741180148,231.28840574498537 C 765.1149431873564,194.98097481432703 774.191800920021,163.21197275000097 801.4223741180148,140.5198284183395 Z" fill="url(#leaf16)" opacity="0.25" transform="rotate(321.0 801.4 185.9)"/>
    <path d="M 817.7222060064908,396.49331203382496 C 866.0636302922031,436.77783227191867 882.1774383874407,493.17616060524983 817.7222060064908,557.6313929861998 C 753.2669736255408,493.17616060524983 769.3807817207784,436.77783227191867 817.7222060064908,396.49331203382496 Z" fill="url(#leaf17)" opacity="0.31" transform="rotate(160.1 817.7 477.1)"/>
    <path d="M 1841.4103991858656,158.88858814572353 C 1889.6308363714186,199.0722858003511 1905.7043154332696,255.3294625168297 1841.4103991858656,319.6233787642338 C 1777.1164829384616,255.3294625168297 1793.1899620003126,199.0722858003511 1841.4103991858656,158.88858814572353 Z" fill="url(#leaf18)" opacity="0.34" transform="rotate(276.5 1841.4 239.3)"/>
    <path d="M 1596.5745964229704,650.8747692447813 C 1625.1309843615288,674.6717591935799 1634.6497803410482,707.987545121898 1596.5745964229704,746.0627290399758 C 1558.4994125048927,707.987545121898 1568.018208484412,674.6717591935799 1596.5745964229704,650.8747692447813 Z" fill="url(#leaf19)" opacity="0.33" transform="rotate(30.3 1596.6 698.5)"/>
    <path d="M 1589.5518631167324,854.5117523019776 C 1634.549788841989,892.0100237396916 1649.5490974170748,944.5076037524911 1589.5518631167324,1004.5048380528335 C 1529.55462881639,944.5076037524911 1544.5539373914758,892.0100237396916 1589.5518631167324,854.5117523019776 Z" fill="url(#leaf0)" opacity="0.39" transform="rotate(246.7 1589.6 929.5)"/>
    <path d="M 1601.9748135259608,193.81149534274965 C 1655.1440435369914,238.1191870186084 1672.867120207335,300.14995536481064 1601.9748135259608,371.0422620461846 C 1531.0825068445868,300.14995536481064 1548.8055835149303,238.1191870186084 1601.9748135259608,193.81149534274965 Z" fill="url(#leaf1)" opacity="0.22" transform="rotate(3.4 1602.0 282.4)"/>
    <path d="M 65.23228480581999,408.167652821052 C 108.84654016571534,444.5128656209648 123.38462528568047,495.39616354084274 65.23228480581999,553.5485040207033 C 7.079944325959502,495.39616354084274 21.618029445924627,444.5128656209648 65.23228480581999,408.167652821052 Z" fill="url(#leaf2)" opacity="0.40" transform="rotate(44.6 65.2 480.9)"/>
    <path d="M 868.9375500402689,62.698073666660854 C 897.449411720774,86.4579584004152 906.9533656142759,119.72179702767126 868.9375500402689,157.7376126016782 C 830.9217344662619,119.72179702767126 840.4256883597637,86.4579584004152 868.9375500402689,62.698073666660854 Z" fill="url(#leaf3)" opacity="0.26" transform="rotate(224.2 868.9 110.2)"/>
    <path d="M 850.0038788646418,156.46480437567755 C 907.8508020928397,204.67057373250907 927.1331098355723,272.15865083207325 850.0038788646418,349.2878818030037 C 772.8746478937113,272.15865083207325 792.156955636444,204.67057373250907 850.0038788646418,156.46480437567755 Z" fill="url(#leaf4)" opacity="0.32" transform="rotate(52.6 850.0 252.9)"/>
    <path d="M 102.98992911232013,913.1002571908141 C 138.4722468883971,942.668855337545 150.29968614708946,984.0648927429681 102.98992911232013,1031.3746497777374 C 55.6801720775508,984.0648927429681 67.50761133624314,942.668855337545 102.98992911232013,913.1002571908141 Z" fill="url(#leaf5)" opacity="0.38" transform="rotate(176.3 103.0 972.2)"/>
    <path d="M 415.4642581430539,264.5461287688367 C 453.1173142700685,295.92367554134887 465.6683329790734,339.852241022866 415.4642581430539,390.0563158588855 C 365.26018330703437,339.852241022866 377.81120201603926,295.92367554134887 415.4642581430539,264.5461287688367 Z" fill="url(#leaf6)" opacity="0.22" transform="rotate(123.4 415.5 327.3)"/>
    <path d="M 144.5567043494484,162.4653756067937 C 179.52951128504318,191.60938138645602 191.18711359690812,232.41098947798326 144.5567043494484,279.04139872544295 C 97.9262951019887,232.41098947798326 109.58389741385363,191.60938138645602 144.5567043494484,162.4653756067937 Z" fill="url(#leaf7)" opacity="0.22" transform="rotate(96.6 144.6 220.8)"/>
    <path d="M 832.46384680774,31.185182971692413 C 887.2387527405554,76.83093791570519 905.4970547181604,140.7349948373231 832.46384680774,213.76820274774354 C 759.4306388973196,140.7349948373231 777.6889408749246,76.83093791570519 832.46384680774,31.185182971692413 Z" fill="url(#leaf8)" opacity="0.37" transform="rotate(263.5 832.5 122.5)"/>
    <path d="M 1369.395601495283,234.4377673057836 C 1393.5196385358972,254.5411315062954 1401.5609842161018,282.68584138701186 1369.395601495283,314.8512241078307 C 1337.2302187744642,282.68584138701186 1345.2715644546688,254.5411315062954 1369.395601495283,234.4377673057836 Z" fill="url(#leaf9)" opacity="0.27" transform="rotate(351.7 1369.4 274.6)"/>
    <path d="M 589.6720180745515,129.78006692255963 C 636.7954159993603,169.04956519323366 652.50321530763,224.02686277217734 589.6720180745515,286.8580600052558 C 526.840820841473,224.02686277217734 542.5486201497426,169.04956519323366 589.6720180745515,129.78006692255963 Z" fill="url(#leaf10)" opacity="0.24" transform="rotate(164.6 589.7 208.3)"/>
    <path d="M 1269.9635076299503,357.5514494210171 C 1312.1314218751882,392.6913779587153 1326.1873932902674,441.88727791149284 1269.9635076299503,498.11116357181004 C 1213.7396219696332,441.88727791149284 1227.7955933847124,392.6913779587153 1269.9635076299503,357.5514494210171 Z" fill="url(#leaf11)" opacity="0.25" transform="rotate(43.4 1270.0 427.8)"/>
    <path d="M 424.16675171650553,396.3179273897989 C 470.9479124013909,435.3022279605367 486.54163262968603,489.88024875956967 424.16675171650553,552.2551296727502 C 361.791870803325,489.88024875956967 377.38559103162015,435.3022279605367 424.16675171650553,396.3179273897989 Z" fill="url(#leaf12)" opacity="0.21" transform="rotate(284.4 424.2 474.3)"/>
    <path d="M 1401.6655376866947,85.29667565114408 C 1436.524884862906,114.34613163132013 1448.1446672549764,155.0153700035666 1401.6655376866947,201.49449957184828 C 1355.186408118413,155.0153700035666 1366.8061905104835,114.34613163132013 1401.6655376866947,85.29667565114408 Z" fill="url(#leaf13)" opacity="0.21" transform="rotate(282.8 1401.7 143.4)"/>
    <path d="M 487.8371104900092,240.94504227713426 C 534.7377829844922,280.02893602253675 550.3713404826532,334.74638726610027 487.8371104900092,397.2806172587443 C 425.3028804973652,334.74638726610027 440.9364379955262,280.02893602253675 487.8371104900092,240.94504227713426 Z" fill="url(#leaf14)" opacity="0.31" transform="rotate(150.1 487.8 319.1)"/>
    <path d="M 1397.6434669276853,2.8243791537776843 C 1443.18716086503,40.77745743489832 1458.3683921774782,93.91176702846721 1397.6434669276853,154.63669227826023 C 1336.9185416778923,93.91176702846721 1352.0997729903406,40.77745743489832 1397.6434669276853,2.8243791537776843 Z" fill="url(#leaf15)" opacity="0.30" transform="rotate(39.7 1397.6 78.7)"/>
    <path d="M 1713.4831666178504,313.99629535799363 C 1763.0161873872803,355.2738126658518 1779.5271943104235,413.0623368968532 1713.4831666178504,479.1063645894262 C 1647.4391389252773,413.0623368968532 1663.9501458484206,355.2738126658518 1713.4831666178504,313.99629535799363 Z" fill="url(#leaf16)" opacity="0.39" transform="rotate(44.0 1713.5 396.6)"/>
    <path d="M 1579.0674818626212,864.7468667921128 C 1604.074647522012,885.5861715082718 1612.4103694084756,914.7611981108944 1579.0674818626212,948.1040856567488 C 1545.7245943167668,914.7611981108944 1554.0603162032305,885.5861715082718 1579.0674818626212,864.7468667921128 Z" fill="url(#leaf17)" opacity="0.26" transform="rotate(31.4 1579.1 906.4)"/>
    <path d="M 431.6687089230621,730.5210699426395 C 469.7069598719547,762.21961240005 482.386376854919,806.5975718404247 431.6687089230621,857.3152397722815 C 380.9510409912053,806.5975718404247 393.63045797416953,762.21961240005 431.6687089230621,730.5210699426395 Z" fill="url(#leaf18)" opacity="0.20" transform="rotate(122.9 431.7 793.9)"/>
    <path d="M 1581.2263333332367,741.9595046031293 C 1624.5506836466225,778.0631298642841 1638.9921337510843,828.6082052299007 1581.2263333332367,886.3740056477484 C 1523.460532915389,828.6082052299007 1537.9019830198508,778.0631298642841 1581.2263333332367,741.9595046031293 Z" fill="url(#leaf19)" opacity="0.24" transform="rotate(298.0 1581.2 814.2)"/>
    <path d="M 1355.378591075689,360.86603958459034 C 1390.2018853413638,389.8854514726527 1401.8096500965887,430.5126281159399 1355.378591075689,476.94368713683957 C 1308.9475320547892,430.5126281159399 1320.5552968100142,389.8854514726527 1355.378591075689,360.86603958459034 Z" fill="url(#leaf0)" opacity="0.26" transform="rotate(85.8 1355.4 418.9)"/>
    <path d="M 1493.986393712121,260.8694060510466 C 1543.608645401326,302.22128245871727 1560.1493959643942,360.11390942945627 1493.986393712121,426.27691168172936 C 1427.823391459848,360.11390942945627 1444.3641420229162,302.22128245871727 1493.986393712121,260.8694060510466 Z" fill="url(#leaf1)" opacity="0.29" transform="rotate(225.8 1494.0 343.6)"/>
    <path d="M 1644.5906814797875,883.694128309469 C 1676.56365611656,910.3382738401126 1687.2213143288175,947.6400775830139 1644.5906814797875,990.2707104320438 C 1601.9600486307575,947.6400775830139 1612.617706843015,910.3382738401126 1644.5906814797875,883.694128309469 Z" fill="url(#leaf2)" opacity="0.20" transform="rotate(157.8 1644.6 937.0)"/>
    <path d="M 152.46887797750324,14.566113989007775 C 204.34586775935378,57.79693880721656 221.63819768663728,118.32009355270887 152.46887797750324,187.4894132618429 C 83.29955826836918,118.32009355270887 100.5918881956527,57.79693880721656 152.46887797750324,14.566113989007775 Z" fill="url(#leaf3)" opacity="0.28" transform="rotate(197.3 152.5 101.0)"/>
    <path d="M 1150.5324309438176,653.9745374440869 C 1178.2728959919139,677.0915916508338 1187.5197176746126,709.4554675402794 1150.5324309438176,746.4427542710745 C 1113.5451442130227,709.4554675402794 1122.7919658957214,677.0915916508338 1150.5324309438176,653.9745374440869 Z" fill="url(#leaf4)" opacity="0.38" transform="rotate(81.5 1150.5 700.2)"/>
    <path d="M 1028.3716358876275,483.96669464909735 C 1073.1549376150876,521.2861127553141 1088.0827048575743,573.5332981040177 1028.3716358876275,633.2443670739646 C 968.6605669176806,573.5332981040177 983.5883341601673,521.2861127553141 1028.3716358876275,483.96669464909735 Z" fill="url(#leaf5)" opacity="0.28" transform="rotate(155.9 1028.4 558.6)"/>
    <path d="M 891.2125423555452,597.2877528015111 C 934.7677599560806,633.5837674686239 949.2861658229257,684.3981880025818 891.2125423555452,742.4718114699623 C 833.1389188881648,684.3981880025818 847.6573247550099,633.5837674686239 891.2125423555452,597.2877528015111 Z" fill="url(#leaf6)" opacity="0.26" transform="rotate(318.0 891.2 669.9)"/>
    <path d="M 529.9372183659268,643.1164490752112 C 568.598133969188,675.3338787445955 581.4851058369417,720.4382802817335 529.9372183659268,771.9861677527483 C 478.38933089491195,720.4382802817335 491.27630276266564,675.3338787445955 529.9372183659268,643.1164490752112 Z" fill="url(#leaf7)" opacity="0.21" transform="rotate(233.4 529.9 707.6)"/>
    <path d="M 121.98103592884858,748.4551783991925 C 148.391947944349,770.4642717454428 157.19558528284912,801.2770024301933 121.98103592884858,836.4915517841938 C 86.76648657484805,801.2770024301933 95.57012391334818,770.4642717454428 121.98103592884858,748.4551783991925 Z" fill="url(#leaf8)" opacity="0.37" transform="rotate(277.7 122.0 792.5)"/>
    <path d="M 1524.5026746358135,813.1182199772642 C 1554.7731441021147,838.3436111991819 1564.8633005908819,873.6591589098666 1524.5026746358135,914.0197848649349 C 1484.1420486807451,873.6591589098666 1494.2322051695123,838.3436111991819 1524.5026746358135,813.1182199772642 Z" fill="url(#leaf9)" opacity="0.24" transform="rotate(276.5 1524.5 863.6)"/>
    <path d="M 1473.9219489561333,-36.642626937825824 C 1529.835983710267,9.952402023952374 1548.4739952949785,75.18544257044185 1473.9219489561333,149.73748890928698 C 1399.369902617288,75.18544257044185 1418.0079142019995,9.952402023952374 1473.9219489561333,-36.642626937825824 Z" fill="url(#leaf10)" opacity="0.28" transform="rotate(47.0 1473.9 56.5)"/>
    <path d="M 592.9454102844055,439.4737086404849 C 639.3082793979768,478.10943290179426 654.7625691025005,532.1994468676273 592.9454102844055,594.0166056857223 C 531.1282514663105,532.1994468676273 546.5825411708342,478.10943290179426 592.9454102844055,439.4737086404849 Z" fill="url(#leaf11)" opacity="0.23" transform="rotate(87.9 592.9 516.7)"/>
    <path d="M 983.1801117268674,188.0664995919397 C 1024.7022429313258,222.66827559565505 1038.542953332812,271.11076200085654 983.1801117268674,326.4736036068011 C 927.8172701209228,271.11076200085654 941.6579805224089,222.66827559565505 983.1801117268674,188.0664995919397 Z" fill="url(#leaf12)" opacity="0.38" transform="rotate(188.9 983.2 257.3)"/>
    <path d="M 1437.694640418428,818.2425872570934 C 1480.571244640034,853.9730907750985 1494.863446047236,903.9957957003055 1437.694640418428,961.1646013291136 C 1380.52583478962,903.9957957003055 1394.818036196822,853.9730907750985 1437.694640418428,818.2425872570934 Z" fill="url(#leaf13)" opacity="0.32" transform="rotate(251.3 1437.7 889.7)"/>
    <path d="M 117.07082550551493,164.77477451090186 C 165.1211990162858,204.81675243654425 181.13799018654274,260.8755215324436 117.07082550551493,324.9426862134714 C 53.00366082448713,260.8755215324436 69.02045199474408,204.81675243654425 117.07082550551493,164.77477451090186 Z" fill="url(#leaf14)" opacity="0.26" transform="rotate(280.9 117.1 244.9)"/>
    <path d="M 922.3836819982971,466.8942403999437 C 953.7662550374154,493.046384599209 964.2271127171215,529.6593864781803 922.3836819982971,571.5028171970046 C 880.5402512794727,529.6593864781803 891.0011089591789,493.046384599209 922.3836819982971,466.8942403999437 Z" fill="url(#leaf15)" opacity="0.34" transform="rotate(109.9 922.4 519.2)"/>
    <path d="M 280.1656645228263,147.46363249624642 C 327.28771435641755,186.73200735757246 342.99506430094794,241.7077321634289 280.1656645228263,304.5371319415505 C 217.3362647447047,241.7077321634289 233.04361468923508,186.73200735757246 280.1656645228263,147.46363249624642 Z" fill="url(#leaf16)" opacity="0.25" transform="rotate(227.7 280.2 226.0)"/>
    <path d="M 1250.0604903892968,828.0618273746172 C 1283.1234979298254,855.614333658391 1294.144500443335,894.1878424556744 1250.0604903892968,938.2718525097125 C 1205.9764803352587,894.1878424556744 1216.9974828487682,855.614333658391 1250.0604903892968,828.0618273746172 Z" fill="url(#leaf17)" opacity="0.34" transform="rotate(234.7 1250.1 883.2)"/>
    <path d="M 1435.7002863719003,766.1306161418428 C 1484.355800704967,806.6768780860649 1500.5743054826557,863.4416448079758 1435.7002863719003,928.315663918731 C 1370.826267261145,863.4416448079758 1387.0447720388338,806.6768780860649 1435.7002863719003,766.1306161418428 Z" fill="url(#leaf18)" opacity="0.34" transform="rotate(234.2 1435.7 847.2)"/>
    <path d="M 784.879343275329,701.0481669601045 C 821.7624805557083,731.7841146937538 834.0568596491681,774.814441520863 784.879343275329,823.9919578947022 C 735.7018269014899,774.814441520863 747.9962059949497,731.7841146937538 784.879343275329,701.0481669601045 Z" fill="url(#leaf19)" opacity="0.26" transform="rotate(172.2 784.9 762.5)"/>
    <path d="M 166.56303600167445,383.009245891701 C 199.30314925024638,410.2926735988443 210.2165203331037,448.48947238884494 166.56303600167445,492.1429567202742 C 122.90955167024521,448.48947238884494 133.82292275310252,410.2926735988443 166.56303600167445,383.009245891701 Z" fill="url(#leaf0)" opacity="0.20" transform="rotate(175.4 166.6 437.6)"/>
    <path d="M 700.870533467417,339.6608561696037 C 740.3087358783183,372.52602484535475 753.4548033486187,418.53726099140636 700.870533467417,471.1215308726081 C 648.2862635862152,418.53726099140636 661.4323310565156,372.52602484535475 700.870533467417,339.6608561696037 Z" fill="url(#leaf1)" opacity="0.33" transform="rotate(341.3 700.9 405.4)"/>
    <path d="M 156.77034468159286,518.3171492410614 C 184.3736489101355,541.3199027648469 193.57475031964975,573.5237576981467 156.77034468159286,610.3281633362036 C 119.96593904353598,573.5237576981467 129.16704045305022,541.3199027648469 156.77034468159286,518.3171492410614 Z" fill="url(#leaf2)" opacity="0.27" transform="rotate(46.7 156.8 564.3)"/>
    <path d="M 1057.1145827432679,541.6586624047311 C 1102.455988202811,579.4431669543504 1117.569790022659,632.3414733238175 1057.1145827432679,692.7966806032084 C 996.6593754638769,632.3414733238175 1011.7731772837246,579.4431669543504 1057.1145827432679,541.6586624047311 Z" fill="url(#leaf3)" opacity="0.37" transform="rotate(31.9 1057.1 617.2)"/>
    <path d="M 1741.627617412238,584.8960973569287 C 1791.998543010008,626.8718686884039 1808.7888515425982,685.6379485524691 1741.627617412238,752.7991826828293 C 1674.4663832818776,685.6379485524691 1691.2566918144678,626.8718686884039 1741.627617412238,584.8960973569287 Z" fill="url(#leaf4)" opacity="0.27" transform="rotate(198.5 1741.6 668.8)"/>
    <path d="M 256.9341298887588,142.9524513812903 C 293.9922224889592,173.83419521479067 306.34492002235936,217.06863658169118 256.9341298887588,266.47942671529177 C 207.5233397551582,217.06863658169118 219.87603728855834,173.83419521479067 256.9341298887588,142.9524513812903 Z" fill="url(#leaf5)" opacity="0.24" transform="rotate(26.1 256.9 204.7)"/>
    <path d="M 1389.9279366539138,473.16721451368585 C 1439.9495497794048,514.8518921182617 1456.623420821235,573.2104407646679 1389.9279366539138,639.9059249319891 C 1323.2324524865926,573.2104407646679 1339.9063235284227,514.8518921182617 1389.9279366539138,473.16721451368585 Z" fill="url(#leaf6)" opacity="0.34" transform="rotate(86.3 1389.9 556.5)"/>
    <path d="M 887.105167773024,238.3648494668979 C 938.0796923918215,280.84361998256236 955.0712005980872,340.31389870449266 887.105167773024,408.2799315295558 C 819.1391349479609,340.31389870449266 836.1306431542266,280.84361998256236 887.105167773024,238.3648494668979 Z" fill="url(#leaf7)" opacity="0.37" transform="rotate(74.8 887.1 323.3)"/>
    <path d="M 1535.0889762294553,523.2410151364545 C 1569.168323513699,551.6404712066577 1580.5281059417803,591.3997097049421 1535.0889762294553,636.8388394172671 C 1489.6498465171303,591.3997097049421 1501.0096289452115,551.6404712066577 1535.0889762294553,523.2410151364545 Z" fill="url(#leaf8)" opacity="0.29" transform="rotate(221.6 1535.1 580.0)"/>
    <path d="M 121.37294606572326,825.2844967367989 C 147.1348687721998,846.7527656588627 155.72217634102532,876.808342149752 121.37294606572326,911.157572425054 C 87.02371579042119,876.808342149752 95.61102335924672,846.7527656588627 121.37294606572326,825.2844967367989 Z" fill="url(#leaf9)" opacity="0.25" transform="rotate(162.6 121.4 868.2)"/>
    <path d="M 1584.7876037868243,977.0398295338721 C 1609.1445021483087,997.3372448351089 1617.2634682688033,1025.7536262568406 1584.7876037868243,1058.2294907388195 C 1552.3117393048453,1025.7536262568406 1560.43070542534,997.3372448351089 1584.7876037868243,977.0398295338721 Z" fill="url(#leaf10)" opacity="0.40" transform="rotate(344.2 1584.8 1017.6)"/>
    <path d="M 1379.4417409730472,408.0651564389805 C 1430.6869627992844,450.7695079608449 1447.7687034080302,510.55560009145506 1379.4417409730472,578.882562526438 C 1311.1147785380642,510.55560009145506 1328.19651914681,450.7695079608449 1379.4417409730472,408.0651564389805 Z" fill="url(#leaf11)" opacity="0.31" transform="rotate(275.4 1379.4 493.5)"/>
    <path d="M 1044.4278410187142,240.19268480395777 C 1100.0896487114455,286.5775245479007 1118.6435846090228,351.5163001894207 1044.4278410187142,425.7320437797293 C 970.2120974284055,351.5163001894207 988.7660333259827,286.5775245479007 1044.4278410187142,240.19268480395777 Z" fill="url(#leaf12)" opacity="0.25" transform="rotate(14.4 1044.4 333.0)"/>
    <path d="M 870.1383082872128,866.6033008767018 C 906.3432710707515,896.7741031963174 918.4115919985977,939.0132264437791 870.1383082872128,987.2865101551639 C 821.8650245758279,939.0132264437791 833.9333455036741,896.7741031963174 870.1383082872128,866.6033008767018 Z" fill="url(#leaf13)" opacity="0.23" transform="rotate(142.0 870.1 926.9)"/>
    <path d="M 783.3793684456061,839.2326424763992 C 827.633433699122,876.1110301876624 842.3847887836272,927.7407729834308 783.3793684456061,986.746193321452 C 724.3739481075851,927.7407729834308 739.1253031920903,876.1110301876624 783.3793684456061,839.2326424763992 Z" fill="url(#leaf14)" opacity="0.21" transform="rotate(4.5 783.4 913.0)"/>
    <path d="M 1378.3229334410885,343.3453904791856 C 1403.6676696730224,364.4660040057973 1412.1159150836672,394.0348629430536 1378.3229334410885,427.82784458563225 C 1344.5299517985097,394.0348629430536 1352.9781972091546,364.4660040057973 1378.3229334410885,343.3453904791856 Z" fill="url(#leaf15)" opacity="0.28" transform="rotate(335.8 1378.3 385.6)"/>
    <path d="M 162.2016750248457,970.927172826432 C 192.88500476069234,996.4966142729709 203.1127813393079,1032.2938322981252 162.2016750248457,1073.2049386125873 C 121.29056871038354,1032.2938322981252 131.5183452889991,996.4966142729709 162.2016750248457,970.927172826432 Z" fill="url(#leaf16)" opacity="0.32" transform="rotate(234.6 162.2 1022.1)"/>
    <path d="M 1016.5767629042195,838.9072742540164 C 1046.4530604779904,863.8041888988255 1056.4118263359142,898.6598694015581 1016.5767629042195,938.4949328332526 C 976.741699472525,898.6598694015581 986.7004653304487,863.8041888988255 1016.5767629042195,838.9072742540164 Z" fill="url(#leaf17)" opacity="0.29" transform="rotate(268.0 1016.6 888.7)"/>
    <path d="M 1437.7298393511105,489.4124733646171 C 1485.680861663042,529.37165862456 1501.664535767019,585.31451798848 1437.7298393511105,649.2492144043887 C 1373.795142935202,585.31451798848 1389.778817039179,529.37165862456 1437.7298393511105,489.4124733646171 Z" fill="url(#leaf18)" opacity="0.25" transform="rotate(228.6 1437.7 569.3)"/>
    <path d="M 591.9519877026137,933.1972145737441 C 639.9183975692115,973.1692227959088 655.9072008580773,1029.1300343069395 591.9519877026137,1093.0852474624032 C 527.99677454715,1029.1300343069395 543.9855778360159,973.1692227959088 591.9519877026137,933.1972145737441 Z" fill="url(#leaf19)" opacity="0.24" transform="rotate(160.6 592.0 1013.1)"/>
    <path d="M 1396.7126558904274,628.5291057735774 C 1431.9777547891788,657.9166881892036 1443.7327877554294,699.0593035710802 1396.7126558904274,746.0794354360821 C 1349.6925240254254,699.0593035710802 1361.447556991676,657.9166881892036 1396.7126558904274,628.5291057735774 Z" fill="url(#leaf0)" opacity="0.27" transform="rotate(60.3 1396.7 687.3)"/>
    <path d="M 1214.1108228636035,258.2158898791191 C 1244.1979139375405,283.28846577406654 1254.2269442955194,318.390072026993 1214.1108228636035,358.5061934589089 C 1173.9947014316876,318.390072026993 1184.0237317896665,283.28846577406654 1214.1108228636035,258.2158898791191 Z" fill="url(#leaf1)" opacity="0.37" transform="rotate(309.9 1214.1 308.4)"/>
    <path d="M 256.4361114395052,43.856422314446036 C 303.1903799239329,82.81831271813576 318.7751360854088,137.36495928330137 256.4361114395052,199.70398392920492 C 194.09708679360168,137.36495928330137 209.68184295507757,82.81831271813576 256.4361114395052,43.856422314446036 Z" fill="url(#leaf2)" opacity="0.30" transform="rotate(309.3 256.4 121.8)"/>
    <path d="M 903.4177538246712,880.281636502465 C 942.9133137974115,913.1946031464151 956.0785004549916,959.2727564479455 903.4177538246712,1011.933503078266 C 850.7570071943508,959.2727564479455 863.9221938519308,913.1946031464151 903.4177538246712,880.281636502465 Z" fill="url(#leaf3)" opacity="0.40" transform="rotate(77.3 903.4 946.1)"/>
    <path d="M 853.1213397225423,256.07304337244994 C 904.7042175072497,299.0587748597061 921.8985101021522,359.2387989418647 853.1213397225423,428.01596932147453 C 784.3441693429324,359.2387989418647 801.5384619378349,299.0587748597061 853.1213397225423,256.07304337244994 Z" fill="url(#leaf4)" opacity="0.29" transform="rotate(228.1 853.1 342.0)"/>
    <path d="M 938.5946769207778,758.695893736029 C 979.6839238724637,792.9369328624338 993.3803395230256,840.8743876394005 938.5946769207778,895.6600502416483 C 883.8090143185301,840.8743876394005 897.505429969092,792.9369328624338 938.5946769207778,758.695893736029 Z" fill="url(#leaf5)" opacity="0.31" transform="rotate(73.7 938.6 827.2)"/>
    <path d="M 506.82551292088783,25.023594449862486 C 549.5651308977266,60.63994276389481 563.8116702233395,110.50283040354006 506.82551292088783,167.48898770599178 C 449.8393556184361,110.50283040354006 464.0858949440491,60.63994276389481 506.82551292088783,25.023594449862486 Z" fill="url(#leaf6)" opacity="0.32" transform="rotate(21.7 506.8 96.3)"/>
    <path d="M 289.8936698389763,408.40483533831286 C 349.7648543312938,458.29748908191084 369.721915828733,528.1472043229479 289.8936698389763,607.9754503127047 C 210.06542384921954,528.1472043229479 230.02248534665875,458.29748908191084 289.8936698389763,408.40483533831286 Z" fill="url(#leaf7)" opacity="0.34" transform="rotate(68.7 289.9 508.2)"/>
    <path d="M 409.21352943414206,383.0248705660431 C 466.1101334495873,430.43870724558076 485.0756681214024,496.81807859693356 409.21352943414206,572.6802172841939 C 333.35139074688175,496.81807859693356 352.3169254186968,430.43870724558076 409.21352943414206,383.0248705660431 Z" fill="url(#leaf8)" opacity="0.39" transform="rotate(90.8 409.2 477.9)"/>
    <path d="M 1522.3668388046135,845.0890208711687 C 1559.1541417495212,875.7451066585917 1571.4165760644903,918.663626760984 1522.3668388046135,967.7133640208608 C 1473.3171015447367,918.663626760984 1485.5795358597059,875.7451066585917 1522.3668388046135,845.0890208711687 Z" fill="url(#leaf9)" opacity="0.28" transform="rotate(286.3 1522.4 906.4)"/>
    <path d="M 666.511730594614,896.3483552909563 C 708.1101885735219,931.0137369400461 721.9763412331579,979.545271248772 666.511730594614,1035.0098818873157 C 611.0471199560702,979.545271248772 624.9132726157062,931.0137369400461 666.511730594614,896.3483552909563 Z" fill="url(#leaf10)" opacity="0.39" transform="rotate(66.8 666.5 965.7)"/>
    <path d="M 815.1173345289936,713.0943451565037 C 854.1757955576076,745.6430626803485 867.1952825671456,791.2112672137315 815.1173345289936,843.2892152518833 C 763.0393864908417,791.2112672137315 776.0588735003797,745.6430626803485 815.1173345289936,713.0943451565037 Z" fill="url(#leaf11)" opacity="0.35" transform="rotate(243.8 815.1 778.2)"/>
    <path d="M 1809.6633132690702,191.00319147370558 C 1850.5438231075561,225.07028300577713 1864.1706597203847,272.76421115067734 1809.6633132690702,327.27155760199184 C 1755.1559668177556,272.76421115067734 1768.7828034305842,225.07028300577713 1809.6633132690702,191.00319147370558 Z" fill="url(#leaf12)" opacity="0.38" transform="rotate(172.4 1809.7 259.1)"/>
    <path d="M 1842.3359230283495,954.5220292896843 C 1875.5664510543625,982.2141359780284 1886.6432937297,1020.9830853417101 1842.3359230283495,1065.2904560430607 C 1798.028552326999,1020.9830853417101 1809.1053950023365,982.2141359780284 1842.3359230283495,954.5220292896843 Z" fill="url(#leaf13)" opacity="0.33" transform="rotate(181.4 1842.3 1009.9)"/>
    <path d="M 1628.2366283573067,106.85818292867427 C 1674.9808263866669,145.81168128647448 1690.562225729787,200.34657898739474 1628.2366283573067,262.67217635987504 C 1565.9110309848263,200.34657898739474 1581.4924303279465,145.81168128647448 1628.2366283573067,106.85818292867427 Z" fill="url(#leaf14)" opacity="0.25" transform="rotate(229.0 1628.2 184.8)"/>
    <path d="M 502.86608555639174,319.76572953310426 C 527.6431852282799,340.41331259301114 535.9022184522427,369.3199288768807 502.86608555639174,402.35606177273166 C 469.8299526605408,369.3199288768807 478.08898588450353,340.41331259301114 502.86608555639174,319.76572953310426 Z" fill="url(#leaf15)" opacity="0.37" transform="rotate(231.4 502.9 361.1)"/>
    <path d="M 655.1840975685369,435.80502771026545 C 690.1592383132878,464.95097833089125 701.8176185615381,505.7553091997673 655.1840975685369,552.3888301927685 C 608.5505765755357,505.7553091997673 620.208956823786,464.95097833089125 655.1840975685369,435.80502771026545 Z" fill="url(#leaf16)" opacity="0.33" transform="rotate(69.2 655.2 494.1)"/>
    <path d="M 328.2807265066709,860.2825604524078 C 356.9148085752025,884.1442955095175 366.4595025980464,917.5507245894712 328.2807265066709,955.7295006808467 C 290.10195041529533,917.5507245894712 299.6466444381392,884.1442955095175 328.2807265066709,860.2825604524078 Z" fill="url(#leaf17)" opacity="0.28" transform="rotate(320.6 328.3 908.0)"/>
    <path d="M 1529.0628367642153,753.7305275565388 C 1560.9774299394212,780.3260218692105 1571.61562766449,817.5597139069507 1529.0628367642153,860.1125048072254 C 1486.5100458639406,817.5597139069507 1497.1482435890093,780.3260218692105 1529.0628367642153,753.7305275565388 Z" fill="url(#leaf18)" opacity="0.31" transform="rotate(349.0 1529.1 806.9)"/>
    <path d="M 1504.742708230474,212.79167950406546 C 1537.8384737714903,240.37148412157913 1548.8703956184959,278.98321058609827 1504.742708230474,323.11089797412006 C 1460.615020842452,278.98321058609827 1471.6469426894575,240.37148412157913 1504.742708230474,212.79167950406546 Z" fill="url(#leaf19)" opacity="0.25" transform="rotate(245.6 1504.7 268.0)"/>
    <path d="M 868.7678798423019,308.14584932909236 C 915.7630552672571,347.308495516555 931.4281137422422,402.13620017900274 868.7678798423019,464.796434078943 C 806.1076459423616,402.13620017900274 821.7727044173467,347.308495516555 868.7678798423019,308.14584932909236 Z" fill="url(#leaf0)" opacity="0.32" transform="rotate(36.8 868.8 386.5)"/>
    <path d="M 1186.4984445187292,259.7576995840329 C 1237.403933426529,302.17894034053256 1254.3724297291287,361.5686773996321 1186.4984445187292,429.4426626100316 C 1118.6244593083297,361.5686773996321 1135.5929556109295,302.17894034053256 1186.4984445187292,259.7576995840329 Z" fill="url(#leaf1)" opacity="0.33" transform="rotate(50.4 1186.5 344.6)"/>
    <path d="M 123.85347872082151,646.6068078139053 C 167.71312359383595,683.1565118747508 182.3330052181741,734.3260975599343 123.85347872082151,792.8056240572869 C 65.37395222346893,734.3260975599343 79.99383384780708,683.1565118747508 123.85347872082151,646.6068078139053 Z" fill="url(#leaf2)" opacity="0.31" transform="rotate(73.7 123.9 719.7)"/>
    <path d="M 1309.708990011721,200.75837259047827 C 1357.426673509131,240.5231088383199 1373.3325680082676,296.1937395852982 1309.708990011721,359.8173175818448 C 1246.0854120151744,296.1937395852982 1261.991306514311,240.5231088383199 1309.708990011721,200.75837259047827 Z" fill="url(#leaf3)" opacity="0.38" transform="rotate(249.4 1309.7 280.3)"/>
    <path d="M 1058.6395580068697,593.266529349085 C 1097.2714436504832,625.4597673854295 1110.148738865021,670.5303006363117 1058.6395580068697,722.039481494463 C 1007.1303771487185,670.5303006363117 1020.0076723632563,625.4597673854295 1058.6395580068697,593.266529349085 Z" fill="url(#leaf4)" opacity="0.29" transform="rotate(354.2 1058.6 657.7)"/>
    <path d="M 1866.0356298808977,841.8126403882784 C 1893.5768339164465,864.7636437512358 1902.7572352616296,896.8950484593762 1866.0356298808977,933.616653840108 C 1829.3140245001657,896.8950484593762 1838.4944258453488,864.7636437512358 1866.0356298808977,841.8126403882784 Z" fill="url(#leaf5)" opacity="0.33" transform="rotate(28.0 1866.0 887.7)"/>
    <path d="M 1746.2526575865083,405.91244680173276 C 1803.44020105711,453.56873302723415 1822.5027155473106,520.2875337429361 1746.2526575865083,596.5375917037385 C 1670.0025996257061,520.2875337429361 1689.0651141159067,453.56873302723415 1746.2526575865083,405.91244680173276 Z" fill="url(#leaf6)" opacity="0.33" transform="rotate(319.2 1746.3 501.2)"/>
    <path d="M 628.6639018431907,873.2751951005405 C 666.9700851019072,905.1970144828042 679.7388128548127,949.8875616179736 628.6639018431907,1000.9624726295956 C 577.5889908315687,949.8875616179736 590.3577185844742,905.1970144828042 628.6639018431907,873.2751951005405 Z" fill="url(#leaf7)" opacity="0.38" transform="rotate(121.4 628.7 937.1)"/>
    <path d="M 1352.1606467852932,491.9265357690933 C 1382.6886072962825,517.3665028615843 1392.8645941332788,552.9824567910716 1352.1606467852932,593.6864041390572 C 1311.4566994373076,552.9824567910716 1321.632686274304,517.3665028615843 1352.1606467852932,491.9265357690933 Z" fill="url(#leaf8)" opacity="0.22" transform="rotate(253.1 1352.2 542.8)"/>
    <path d="M 691.6817855377449,224.9904883533271 C 747.3634296620147,271.3918584568853 765.923977703438,336.3537766018668 691.6817855377449,410.59596876755995 C 617.4395933720517,336.3537766018668 636.000141413475,271.3918584568853 691.6817855377449,224.9904883533271 Z" fill="url(#leaf9)" opacity="0.31" transform="rotate(98.3 691.7 317.8)"/>
    <path d="M 1198.225494411623,329.63354266598196 C 1253.146635871726,375.4011605494011 1271.4536830250936,439.47582558618785 1198.225494411623,512.7040141996584 C 1124.9973057981524,439.47582558618785 1143.30435295152,375.4011605494011 1198.225494411623,329.63354266598196 Z" fill="url(#leaf10)" opacity="0.25" transform="rotate(66.6 1198.2 421.2)"/>
    <path d="M 1428.9953707315808,578.150608872351 C 1471.583027999702,613.640323262452 1485.7789137557425,663.3259234085933 1428.9953707315808,720.1094664327549 C 1372.2118277074192,663.3259234085933 1386.4077134634597,613.640323262452 1428.9953707315808,578.150608872351 Z" fill="url(#leaf11)" opacity="0.29" transform="rotate(259.7 1429.0 649.1)"/>
    <path d="M 724.2684415836302,422.8445998019632 C 769.4556376487856,460.5005965229261 784.5180363371708,513.2189919322741 724.2684415836302,573.4685866858147 C 664.0188468300896,513.2189919322741 679.0812455184748,460.5005965229261 724.2684415836302,422.8445998019632 Z" fill="url(#leaf12)" opacity="0.36" transform="rotate(53.4 724.3 498.2)"/>
    <path d="M 186.34189202665718,574.5073075370495 C 214.93520253241576,598.3350662918484 224.46630603433528,631.6939285485668 186.34189202665718,669.8183425562448 C 148.21747801897908,631.6939285485668 157.7485815208986,598.3350662918484 186.34189202665718,574.5073075370495 Z" fill="url(#leaf13)" opacity="0.21" transform="rotate(257.4 186.3 622.2)"/>
    <path d="M 1079.118522791735,299.0841082885912 C 1129.245836714426,340.856869890834 1145.9549413553232,399.33873613397384 1079.118522791735,466.1751546975622 C 1012.2821042281465,399.33873613397384 1028.9912088690437,340.856869890834 1079.118522791735,299.0841082885912 Z" fill="url(#leaf14)" opacity="0.33" transform="rotate(323.3 1079.1 382.6)"/>
    <path d="M 1235.3243256302674,63.418265985121295 C 1294.589779553483,112.80614425446751 1314.3449308612212,181.9491738315522 1235.3243256302674,260.9697790625061 C 1156.3037203993135,181.9491738315522 1176.0588717070518,112.80614425446751 1235.3243256302674,63.418265985121295 Z" fill="url(#leaf15)" opacity="0.40" transform="rotate(322.2 1235.3 162.2)"/>
    <path d="M 1236.453396864636,835.9342089436608 C 1274.5547979462779,867.6853765116956 1287.2552649734916,912.1370111069443 1236.453396864636,962.9388792158001 C 1185.6515287557804,912.1370111069443 1198.3519957829942,867.6853765116956 1236.453396864636,835.9342089436608 Z" fill="url(#leaf16)" opacity="0.36" transform="rotate(203.8 1236.5 899.4)"/>
  </g>

  <!-- Central star shape -->
  <polygon points="960.0,230.8 1050.9,414.9 1254.1,444.5 1107.0,587.8 1141.7,790.1 960.0,694.6 778.3,790.1 813.0,587.8 665.9,444.5 869.1,414.9" 
           fill="#00FA9A" 
           transform="rotate(274.9 960.0 540.0)"/>
</svg>