<?xml version="1.0" encoding="UTF-8"?>
<svg xmlns="http://www.w3.org/2000/svg" viewBox="0 0 1920 1080" width="1920" height="1080">
  <defs>
    <linearGradient id="bgGrad" x1="0%" y1="0%" x2="100%" y2="100%">
      <stop offset="0%" stop-color="#FFD700"/>
      <stop offset="100%" stop-color="#DC143C"/>
    </linearGradient>
    <clipPath id="complexClip"><polygon points="1533.2,540.0 1346.1,586.2 1304.4,626.2 1334.4,693.0 1213.0,698.0 1166.8,741.5 1124.5,824.7 1012.3,820.0 924.1,732.0 835.0,756.5 789.2,706.4 628.9,746.9 588.0,692.0 611.0,627.4 465.4,599.1 605.6,540.0 527.4,488.3 483.6,420.7 588.2,388.0 684.2,367.7 769.2,354.1 820.6,298.6 924.1,347.6 1005.1,298.9 1095.2,306.0 1230.3,276.7 1318.0,316.4 1247.5,422.5 1435.5,420.9 1328.7,495.9"/></clipPath>
    <radialGradient id="leaf0" cx="50%" cy="50%" r="70%">
      <stop offset="0%" stop-color="#FF6B6B"/>
      <stop offset="50%" stop-color="#7B68EE"/>
      <stop offset="100%" stop-color="#9370DB"/>
    </radialGradient>
    <radialGradient id="leaf1" cx="50%" cy="50%" r="70%">
      <stop offset="0%" stop-color="#9370DB"/>
      <stop offset="50%" stop-color="#FF1493"/>
      <stop offset="100%" stop-color="#FFD700"/>
    </radialGradient>
    <radialGradient id="leaf2" cx="50%" cy="50%" r="70%">
      <stop offset="0%" stop-color="#00FA9A"/>
      <stop offset="50%" stop-color="#FF69B4"/>
      <stop offset="100%" stop-color="#96E6A1"/>
    </radialGradient>
    <radialGradient id="leaf3" cx="50%" cy="50%" r="70%">
      <stop offset="0%" stop-color="#00FA9A"/>
      <stop offset="50%" stop-color="#FF4500"/>
      <stop offset="100%" stop-color="#7B68EE"/>
    </radialGradient>
    <radialGradient id="leaf4" cx="50%" cy="50%" r="70%">
      <stop offset="0%" stop-color="#45B7D1"/>
      <stop offset="50%" stop-color="#7B68EE"/>
      <stop offset="100%" stop-color="#FF1493"/>
    </radialGradient>
    <radialGradient id="leaf5" cx="50%" cy="50%" r="70%">
      <stop offset="0%" stop-color="#FF6B6B"/>
      <stop offset="50%" stop-color="#4ECDC4"/>
      <stop offset="100%" stop-color="#FF69B4"/>
    </radialGradient>
    <radialGradient id="leaf6" cx="50%" cy="50%" r="70%">
      <stop offset="0%" stop-color="#4ECDC4"/>
      <stop offset="50%" stop-color="#FFE66D"/>
      <stop offset="100%" stop-color="#96E6A1"/>
    </radialGradient>
    <radialGradient id="leaf7" cx="50%" cy="50%" r="70%">
      <stop offset="0%" stop-color="#FFE66D"/>
      <stop offset="50%" stop-color="#FFD700"/>
      <stop offset="100%" stop-color="#00FA9A"/>
    </radialGradient>
    <radialGradient id="leaf8" cx="50%" cy="50%" r="70%">
      <stop offset="0%" stop-color="#00FA9A"/>
      <stop offset="50%" stop-color="#32CD32"/>
      <stop offset="100%" stop-color="#4ECDC4"/>
    </radialGradient>
    <radialGradient id="leaf9" cx="50%" cy="50%" r="70%">
      <stop offset="0%" stop-color="#7B68EE"/>
      <stop offset="50%" stop-color="#9370DB"/>
      <stop offset="100%" stop-color="#45B7D1"/>
    </radialGradient>
    <radialGradient id="leaf10" cx="50%" cy="50%" r="70%">
      <stop offset="0%" stop-color="#FFE66D"/>
      <stop offset="50%" stop-color="#FF6B6B"/>
      <stop offset="100%" stop-color="#FF69B4"/>
    </radialGradient>
    <radialGradient id="leaf11" cx="50%" cy="50%" r="70%">
      <stop offset="0%" stop-color="#FF1493"/>
      <stop offset="50%" stop-color="#9370DB"/>
      <stop offset="100%" stop-color="#32CD32"/>
    </radialGradient>
    <radialGradient id="leaf12" cx="50%" cy="50%" r="70%">
      <stop offset="0%" stop-color="#45B7D1"/>
      <stop offset="50%" stop-color="#FFE66D"/>
      <stop offset="100%" stop-color="#FF69B4"/>
    </radialGradient>
    <radialGradient id="leaf13" cx="50%" cy="50%" r="70%">
      <stop offset="0%" stop-color="#FF6B6B"/>
      <stop offset="50%" stop-color="#4ECDC4"/>
      <stop offset="100%" stop-color="#FF1493"/>
    </radialGradient>
    <radialGradient id="leaf14" cx="50%" cy="50%" r="70%">
      <stop offset="0%" stop-color="#00FA9A"/>
      <stop offset="50%" stop-color="#FF69B4"/>
      <stop offset="100%" stop-color="#FF4500"/>
    </radialGradient>
    <radialGradient id="leaf15" cx="50%" cy="50%" r="70%">
      <stop offset="0%" stop-color="#FF4500"/>
      <stop offset="50%" stop-color="#7B68EE"/>
      <stop offset="100%" stop-color="#FF1493"/>
    </radialGradient>
    <radialGradient id="leaf16" cx="50%" cy="50%" r="70%">
      <stop offset="0%" stop-color="#FFE66D"/>
      <stop offset="50%" stop-color="#FF1493"/>
      <stop offset="100%" stop-color="#7B68EE"/>
    </radialGradient>
    <radialGradient id="leaf17" cx="50%" cy="50%" r="70%">
      <stop offset="0%" stop-color="#00FA9A"/>
      <stop offset="50%" stop-color="#FFE66D"/>
      <stop offset="100%" stop-color="#96E6A1"/>
    </radialGradient>
    <radialGradient id="leaf18" cx="50%" cy="50%" r="70%">
      <stop offset="0%" stop-color="#FFE66D"/>
      <stop offset="50%" stop-color="#FFD700"/>
      <stop offset="100%" stop-color="#96E6A1"/>
    </radialGradient>
    <radialGradient id="leaf19" cx="50%" cy="50%" r="70%">
      <stop offset="0%" stop-color="#FF4500"/>
      <stop offset="50%" stop-color="#FFE66D"/>
      <stop offset="100%" stop-color="#96E6A1"/>
    </radialGradient>
  </defs>

  <!-- Background -->
  <rect width="1920" height="1080" fill="url(#bgGrad)"/>
  
  <!-- Leaves with clip-path -->
  <g clip-path="url(#complexClip)">
    <path d="M 402.2094799781589,294.78991156664586 C 436.3024649855938,323.20073240617495 447.6667933214054,362.97588158151564 402.2094799781589,408.4331949247621 C 356.75216663491244,362.97588158151564 368.11649497072403,323.20073240617495 402.2094799781589,294.78991156664586 Z" fill="url(#leaf0)" opacity="0.39" transform="rotate(310.0 402.2 351.6)"/>
    <path d="M 166.13191646547344,646.2682619175933 C 217.86326019962576,689.3777150293869 235.10704144434317,749.7309493858979 166.13191646547344,818.7060743647677 C 97.1567914866037,749.7309493858979 114.40057273132112,689.3777150293869 166.13191646547344,646.2682619175933 Z" fill="url(#leaf1)" opacity="0.20" transform="rotate(186.1 166.1 732.5)"/>
    <path d="M 1785.8188888265697,222.51067878392337 C 1838.834242719082,266.6901403610171 1856.5060273499196,328.5413865689482 1785.8188888265697,399.2285250922981 C 1715.1317503032199,328.5413865689482 1732.8035349340573,266.6901403610171 1785.8188888265697,222.51067878392337 Z" fill="url(#leaf2)" opacity="0.35" transform="rotate(217.0 1785.8 310.9)"/>
    <path d="M 543.3899720910533,168.14740292067276 C 592.4603051485446,209.03934713524887 608.8170828343751,266.28806903565544 543.3899720910533,331.71517977897724 C 477.9628613477315,266.28806903565544 494.319639033562,209.03934713524887 543.3899720910533,168.14740292067276 Z" fill="url(#leaf3)" opacity="0.27" transform="rotate(351.4 543.4 249.9)"/>
    <path d="M 443.1389717090275,375.72441337917644 C 498.6553551755127,421.98806626791406 517.1608163310077,486.7571803121467 443.1389717090275,560.7790249341269 C 369.11712708704727,486.7571803121467 387.6225882425423,421.98806626791406 443.1389717090275,375.72441337917644 Z" fill="url(#leaf4)" opacity="0.24" transform="rotate(358.2 443.1 468.3)"/>
    <path d="M 1554.0270887816714,247.62572797995318 C 1582.146732275046,271.0587642244319 1591.5199467728373,303.86501496670206 1554.0270887816714,341.357872957868 C 1516.5342307905055,303.86501496670206 1525.907445288297,271.0587642244319 1554.0270887816714,247.62572797995318 Z" fill="url(#leaf5)" opacity="0.21" transform="rotate(350.0 1554.0 294.5)"/>
    <path d="M 1544.8716489558965,56.197771902359655 C 1570.7887863216363,77.7953863738095 1579.4278321102163,108.03204663383929 1544.8716489558965,142.58822978815905 C 1510.3154658015767,108.03204663383929 1518.9545115901567,77.7953863738095 1544.8716489558965,56.197771902359655 Z" fill="url(#leaf6)" opacity="0.21" transform="rotate(64.0 1544.9 99.4)"/>
    <path d="M 986.8090438150871,227.03713788404116 C 1030.4304075317389,263.38827431458435 1044.970862103956,314.27986531734473 986.8090438150871,372.4416836062138 C 928.647225526218,314.27986531734473 943.1876800984353,263.38827431458435 986.8090438150871,227.03713788404116 Z" fill="url(#leaf7)" opacity="0.25" transform="rotate(332.4 986.8 299.7)"/>
    <path d="M 252.2116455131416,261.92580877323326 C 278.31371245650655,283.6775312260374 287.0144014376282,314.1299426599631 252.2116455131416,348.93269858444967 C 217.40888958865503,314.1299426599631 226.1095785697767,283.6775312260374 252.2116455131416,261.92580877323326 Z" fill="url(#leaf8)" opacity="0.35" transform="rotate(296.0 252.2 305.4)"/>
    <path d="M 458.9511296282375,548.183674660825 C 491.436039723389,575.2544330734513 502.2643430884395,613.153494851128 458.9511296282375,656.4667083113301 C 415.6379161680355,613.153494851128 426.46621953308596,575.2544330734513 458.9511296282375,548.183674660825 Z" fill="url(#leaf9)" opacity="0.29" transform="rotate(176.5 459.0 602.3)"/>
    <path d="M 1468.8055225492744,634.3272470222266 C 1522.6237025161147,679.1757303279268 1540.5630958383947,741.9636069559069 1468.8055225492744,813.7211802450272 C 1397.0479492601542,741.9636069559069 1414.9873425824342,679.1757303279268 1468.8055225492744,634.3272470222266 Z" fill="url(#leaf10)" opacity="0.33" transform="rotate(278.6 1468.8 724.0)"/>
    <path d="M 63.226707068766615,776.8946640620106 C 94.08420691788072,802.6092472696057 104.37004020091877,838.6096637602388 63.226707068766615,879.7529968923909 C 22.083373936614464,838.6096637602388 32.36920721965251,802.6092472696057 63.226707068766615,776.8946640620106 Z" fill="url(#leaf11)" opacity="0.30" transform="rotate(214.3 63.2 828.3)"/>
    <path d="M 376.80589042259203,720.4223359876421 C 418.9042793575935,755.5043267668101 432.9370756692607,804.6191138576452 376.80589042259203,860.7502991043139 C 320.67470517592335,804.6191138576452 334.70750148759055,755.5043267668101 376.80589042259203,720.4223359876421 Z" fill="url(#leaf12)" opacity="0.31" transform="rotate(48.7 376.8 790.6)"/>
    <path d="M 1588.2259872247769,227.51910410147278 C 1615.809438962976,250.5053138833054 1625.0039228757091,282.6860075778711 1588.2259872247769,319.4639432288034 C 1551.4480515738446,282.6860075778711 1560.6425354865778,250.5053138833054 1588.2259872247769,227.51910410147278 Z" fill="url(#leaf13)" opacity="0.35" transform="rotate(34.3 1588.2 273.5)"/>
    <path d="M 956.1668882361439,384.2193817126799 C 992.5384878633246,414.52904806866377 1004.6623544057181,456.96258096704116 956.1668882361439,505.45804713661533 C 907.6714220665697,456.96258096704116 919.7952886089632,414.52904806866377 956.1668882361439,384.2193817126799 Z" fill="url(#leaf14)" opacity="0.33" transform="rotate(65.4 956.2 444.8)"/>
    <path d="M 817.4746411746628,631.9695520860581 C 866.7364510683772,673.0210603308201 883.157054366282,730.4931718734869 817.4746411746628,796.175585065106 C 751.7922279830436,730.4931718734869 768.2128312809484,673.0210603308201 817.4746411746628,631.9695520860581 Z" fill="url(#leaf15)" opacity="0.39" transform="rotate(181.1 817.5 714.1)"/>
    <path d="M 254.4431070579931,565.7593247745443 C 288.10616032248237,593.8118691616188 299.32717807731217,633.0854313035229 254.4431070579931,677.969502322842 C 209.55903603867404,633.0854313035229 220.7800537935038,593.8118691616188 254.4431070579931,565.7593247745443 Z" fill="url(#leaf16)" opacity="0.27" transform="rotate(33.3 254.4 621.9)"/>
    <path d="M 1430.1344067039504,792.6975659245584 C 1480.7535703531935,834.8802022989275 1497.626624902941,893.9358932230446 1430.1344067039504,961.4281114220353 C 1362.6421885049597,893.9358932230446 1379.5152430547073,834.8802022989275 1430.1344067039504,792.6975659245584 Z" fill="url(#leaf17)" opacity="0.35" transform="rotate(271.5 1430.1 877.1)"/>
    <path d="M 1214.0399411741216,251.48702368615568 C 1259.5332363288935,289.39810298179896 1274.697668047151,342.47361399569957 1214.0399411741216,403.1313408687288 C 1153.3822143010923,342.47361399569957 1168.5466460193497,289.39810298179896 1214.0399411741216,251.48702368615568 Z" fill="url(#leaf18)" opacity="0.28" transform="rotate(170.8 1214.0 327.3)"/>
    <path d="M 1527.179965946207,258.2658400042249 C 1552.410541494188,279.29131962754246 1560.820733343515,308.72699110018704 1527.179965946207,342.3677584974951 C 1493.5391985488989,308.72699110018704 1501.949390398226,279.29131962754246 1527.179965946207,258.2658400042249 Z" fill="url(#leaf19)" opacity="0.28" transform="rotate(187.5 1527.2 300.3)"/>
    <path d="M 1110.594211584494,619.8686812543262 C 1166.6521335398224,666.5836162171 1185.338107524932,731.9845251649833 1110.594211584494,806.7284211054214 C 1035.8503156440559,731.9845251649833 1054.5362896291654,666.5836162171 1110.594211584494,619.8686812543262 Z" fill="url(#leaf0)" opacity="0.20" transform="rotate(192.9 1110.6 713.3)"/>
    <path d="M 1567.2221053872142,594.9401673576365 C 1614.4431226121615,634.2910150450924 1630.1834616871438,689.3822018075307 1567.2221053872142,752.3435581074602 C 1504.2607490872847,689.3822018075307 1520.001088162267,634.2910150450924 1567.2221053872142,594.9401673576365 Z" fill="url(#leaf1)" opacity="0.21" transform="rotate(146.0 1567.2 673.6)"/>
    <path d="M 625.9182336307538,764.665996370923 C 660.8904657231544,793.8095231145902 672.5478764206214,834.6104605557243 625.9182336307538,881.2401033455919 C 579.2885908408862,834.6104605557243 590.9460015383531,793.8095231145902 625.9182336307538,764.665996370923 Z" fill="url(#leaf2)" opacity="0.28" transform="rotate(252.8 625.9 823.0)"/>
    <path d="M 276.17696571191055,311.7056666587318 C 318.9154236678922,347.3210482887165 333.1615763198861,397.18258257069505 276.17696571191055,454.1671931786705 C 219.19235510393506,397.18258257069505 233.43850775592892,347.3210482887165 276.17696571191055,311.7056666587318 Z" fill="url(#leaf3)" opacity="0.27" transform="rotate(323.4 276.2 382.9)"/>
    <path d="M 338.67389797072815,523.6365788071802 C 369.9317947025524,549.6848260837004 380.3510936131605,586.1523722708287 338.67389797072815,627.829567913261 C 296.9967023282958,586.1523722708287 307.4160012389039,549.6848260837004 338.67389797072815,523.6365788071802 Z" fill="url(#leaf4)" opacity="0.23" transform="rotate(91.5 338.7 575.7)"/>
    <path d="M 596.8211588560134,217.20946907362003 C 627.1555470345074,242.48812588903166 637.2670097606721,277.87824543060793 596.8211588560134,318.3240963352666 C 556.3753079513548,277.87824543060793 566.4867706775194,242.48812588903166 596.8211588560134,217.20946907362003 Z" fill="url(#leaf5)" opacity="0.30" transform="rotate(3.8 596.8 267.8)"/>
    <path d="M 1009.1518180018838,699.2570569665301 C 1043.7459871945562,728.0855312937571 1055.277376925447,768.4453953518749 1009.1518180018838,814.5709542754381 C 963.0262590783207,768.4453953518749 974.5576488092114,728.0855312937571 1009.1518180018838,699.2570569665301 Z" fill="url(#leaf6)" opacity="0.31" transform="rotate(2.0 1009.2 756.9)"/>
    <path d="M 1821.8416506736812,207.70256543576747 C 1855.4175746446242,235.68250207822007 1866.6095493016053,274.85441337765366 1821.8416506736812,319.6223120055778 C 1777.0737520457571,274.85441337765366 1788.2657267027382,235.68250207822007 1821.8416506736812,207.70256543576747 Z" fill="url(#leaf7)" opacity="0.36" transform="rotate(228.8 1821.8 263.7)"/>
    <path d="M 1318.3969640931623,878.5957272998155 C 1377.9454584546177,928.2194726010283 1397.7949565751028,997.6927160227262 1318.3969640931623,1077.0907085046667 C 1238.9989716112218,997.6927160227262 1258.848469731707,928.2194726010283 1318.3969640931623,878.5957272998155 Z" fill="url(#leaf8)" opacity="0.30" transform="rotate(78.9 1318.4 977.8)"/>
    <path d="M 872.3467157166458,423.5674778777468 C 923.6570723583809,466.326108412526 940.7605245722926,526.188191161217 872.3467157166458,594.6020000168637 C 803.932906860999,526.188191161217 821.0363590749107,466.326108412526 872.3467157166458,423.5674778777468 Z" fill="url(#leaf9)" opacity="0.21" transform="rotate(323.9 872.3 509.1)"/>
    <path d="M 1393.3517436863697,651.3466015807577 C 1442.9323202834462,692.663748744988 1459.4591791491382,750.5077547749105 1393.3517436863697,816.615190237679 C 1327.2443082236011,750.5077547749105 1343.7711670892932,692.663748744988 1393.3517436863697,651.3466015807577 Z" fill="url(#leaf10)" opacity="0.36" transform="rotate(121.9 1393.4 734.0)"/>
    <path d="M 690.7892882332563,151.59788444823695 C 733.4349989524164,187.13597671420368 747.6502358588031,236.88930588655708 690.7892882332563,293.7502535121039 C 633.9283406077096,236.88930588655708 648.1435775140963,187.13597671420368 690.7892882332563,151.59788444823695 Z" fill="url(#leaf11)" opacity="0.37" transform="rotate(336.8 690.8 222.7)"/>
    <path d="M 974.6883270686758,142.32841446564527 C 999.679324923503,163.15424601133464 1008.0096575417788,192.31041017529978 974.6883270686758,225.6317406484028 C 941.3669965955728,192.31041017529978 949.6973292138485,163.15424601133464 974.6883270686758,142.32841446564527 Z" fill="url(#leaf12)" opacity="0.29" transform="rotate(71.1 974.7 184.0)"/>
    <path d="M 538.757463571895,93.24764437325499 C 576.6482800003349,124.82332473028832 589.2785521431483,169.029277230135 538.757463571895,219.55036580138832 C 488.2363750006416,169.029277230135 500.86664714345494,124.82332473028832 538.757463571895,93.24764437325499 Z" fill="url(#leaf13)" opacity="0.23" transform="rotate(74.9 538.8 156.4)"/>
    <path d="M 974.0431330739714,933.8684383939193 C 999.5061274272834,955.0876003550127 1007.9937922117208,984.7944271005434 974.0431330739714,1018.7450862382929 C 940.092473936222,984.7944271005434 948.5801387206593,955.0876003550127 974.0431330739714,933.8684383939193 Z" fill="url(#leaf14)" opacity="0.33" transform="rotate(122.8 974.0 976.3)"/>
    <path d="M 143.7634013695743,178.20388557409768 C 186.55812373036224,213.86615420808764 200.82303118395822,263.79333029567357 143.7634013695743,320.8529601100575 C 86.70377155519037,263.79333029567357 100.96867900878635,213.86615420808764 143.7634013695743,178.20388557409768 Z" fill="url(#leaf15)" opacity="0.30" transform="rotate(294.1 143.8 249.5)"/>
    <path d="M 305.984813471341,618.7170651676255 C 337.28262860509767,644.7985777790894 347.7152336496832,681.3126954351388 305.984813471341,723.0431156134811 C 264.25439329299877,681.3126954351388 274.6869983375843,644.7985777790894 305.984813471341,618.7170651676255 Z" fill="url(#leaf16)" opacity="0.21" transform="rotate(158.4 306.0 670.9)"/>
    <path d="M 1428.9266512575302,626.0541448290463 C 1478.3063458524,667.2038903247711 1494.7662440506901,724.813534018786 1428.9266512575302,790.6531268119458 C 1363.0870584643703,724.813534018786 1379.5469566626605,667.2038903247711 1428.9266512575302,626.0541448290463 Z" fill="url(#leaf17)" opacity="0.24" transform="rotate(120.3 1428.9 708.4)"/>
    <path d="M 1183.9575282704925,956.0457941515687 C 1227.5431475385958,992.3671435416547 1242.0716872946302,1043.2170326877754 1183.9575282704925,1101.331191711913 C 1125.8433692463548,1043.2170326877754 1140.3719090023892,992.3671435416547 1183.9575282704925,956.0457941515687 Z" fill="url(#leaf18)" opacity="0.20" transform="rotate(206.2 1184.0 1028.7)"/>
    <path d="M 603.6352142014051,493.18130348290987 C 657.2169447784796,537.832745630472 675.0775216375044,600.3447646370589 603.6352142014051,671.7870720731582 C 532.1929067653058,600.3447646370589 550.0534836243306,537.832745630472 603.6352142014051,493.18130348290987 Z" fill="url(#leaf19)" opacity="0.35" transform="rotate(214.5 603.6 582.5)"/>
    <path d="M 1415.313357073971,758.9160881727056 C 1451.689487744005,789.2295303977339 1463.8148646340164,831.6683495127737 1415.313357073971,880.1698570728191 C 1366.8118495139256,831.6683495127737 1378.937226403937,789.2295303977339 1415.313357073971,758.9160881727056 Z" fill="url(#leaf0)" opacity="0.31" transform="rotate(249.8 1415.3 819.5)"/>
    <path d="M 900.1129736503825,143.87084476761032 C 933.064252953802,171.3302441871266 944.0480127216085,209.77340337444937 900.1129736503825,253.70844244567542 C 856.1779345791565,209.77340337444937 867.161694346963,171.3302441871266 900.1129736503825,143.87084476761032 Z" fill="url(#leaf1)" opacity="0.28" transform="rotate(70.6 900.1 198.8)"/>
    <path d="M 873.8570884799234,394.9659140217049 C 917.4841245216052,431.3217773897731 932.0264698688325,482.2199861050686 873.8570884799234,540.3893674939777 C 815.6877070910143,482.2199861050686 830.2300524382416,431.3217773897731 873.8570884799234,394.9659140217049 Z" fill="url(#leaf2)" opacity="0.36" transform="rotate(270.8 873.9 467.7)"/>
    <path d="M 961.4368408849609,719.1356263329318 C 987.518446309416,740.8702975199777 996.2123147842344,771.298837181842 961.4368408849609,806.0743110811155 C 926.6613669856874,771.298837181842 935.3552354605058,740.8702975199777 961.4368408849609,719.1356263329318 Z" fill="url(#leaf3)" opacity="0.35" transform="rotate(143.9 961.4 762.6)"/>
    <path d="M 431.6491695161748,193.71082773445244 C 458.2729919034497,215.8973463905148 467.1475993658746,246.95847250900215 431.6491695161748,282.45690235870194 C 396.15073966647503,246.95847250900215 405.02534712889997,215.8973463905148 431.6491695161748,193.71082773445244 Z" fill="url(#leaf4)" opacity="0.33" transform="rotate(21.9 431.6 238.1)"/>
    <path d="M 1451.5197919673067,578.098813520395 C 1505.630481604467,623.1910548846952 1523.667378150187,686.3201927947155 1451.5197919673067,758.4677789775958 C 1379.3722057844263,686.3201927947155 1397.4091023301464,623.1910548846952 1451.5197919673067,578.098813520395 Z" fill="url(#leaf5)" opacity="0.22" transform="rotate(255.3 1451.5 668.3)"/>
    <path d="M 1506.7819322562946,820.9525694315653 C 1543.385391803809,851.4554523878272 1555.5865449863136,894.1594885265939 1506.7819322562946,942.964101256613 C 1457.9773195262756,894.1594885265939 1470.1784727087802,851.4554523878272 1506.7819322562946,820.9525694315653 Z" fill="url(#leaf6)" opacity="0.39" transform="rotate(300.1 1506.8 882.0)"/>
    <path d="M 204.60474008221473,135.84185896713666 C 242.61634266254245,167.5181944507431 255.28687685598504,211.8650641277921 204.60474008221473,262.5472009015624 C 153.92260330844442,211.8650641277921 166.593137501887,167.5181944507431 204.60474008221473,135.84185896713666 Z" fill="url(#leaf7)" opacity="0.37" transform="rotate(251.7 204.6 199.2)"/>
    <path d="M 1339.5118605258947,519.4969552396606 C 1383.4709303835016,556.129513454333 1398.1239536693706,607.4150949548746 1339.5118605258947,666.0271880983505 C 1280.8997673824188,607.4150949548746 1295.5527906682878,556.129513454333 1339.5118605258947,519.4969552396606 Z" fill="url(#leaf8)" opacity="0.39" transform="rotate(65.3 1339.5 592.8)"/>
    <path d="M 578.6265745086706,793.3096873192054 C 619.1981855746118,827.1193632074896 632.7220559299254,874.4529094510877 578.6265745086706,928.5483908723426 C 524.5310930874158,874.4529094510877 538.0549634427294,827.1193632074896 578.6265745086706,793.3096873192054 Z" fill="url(#leaf9)" opacity="0.36" transform="rotate(8.9 578.6 860.9)"/>
    <path d="M 1452.5737869663262,583.4762206291651 C 1507.5125689159515,629.2585389205196 1525.8254962324934,693.353784528416 1452.5737869663262,766.6054937945831 C 1379.322077700159,693.353784528416 1397.635005016701,629.2585389205196 1452.5737869663262,583.4762206291651 Z" fill="url(#leaf10)" opacity="0.38" transform="rotate(337.9 1452.6 675.0)"/>
    <path d="M 1310.0205013675982,519.3471262507053 C 1362.749969752609,563.2883499048811 1380.3264592142793,624.8060630207272 1310.0205013675982,695.1120208674083 C 1239.714543520917,624.8060630207272 1257.2910329825872,563.2883499048811 1310.0205013675982,519.3471262507053 Z" fill="url(#leaf11)" opacity="0.38" transform="rotate(217.8 1310.0 607.2)"/>
    <path d="M 140.91866177252564,509.71905461645713 C 182.90054476285763,544.7039571084005 196.89450575963497,593.6828205971211 140.91866177252564,649.6586645842305 C 84.94281778541631,593.6828205971211 98.93677878219364,544.7039571084005 140.91866177252564,509.71905461645713 Z" fill="url(#leaf12)" opacity="0.26" transform="rotate(344.6 140.9 579.7)"/>
    <path d="M 1784.880215818383,357.278476658988 C 1825.270563153085,390.9370994379064 1838.7340122646524,438.05917132839215 1784.880215818383,491.91296777466164 C 1731.0264193721137,438.05917132839215 1744.489868483681,390.9370994379064 1784.880215818383,357.278476658988 Z" fill="url(#leaf13)" opacity="0.31" transform="rotate(304.7 1784.9 424.6)"/>
    <path d="M 1660.8615531704431,625.794232682253 C 1694.173438709871,653.5541372984429 1705.277400556347,692.4180037611088 1660.8615531704431,736.8338511470128 C 1616.4457057845393,692.4180037611088 1627.5496676310152,653.5541372984429 1660.8615531704431,625.794232682253 Z" fill="url(#leaf14)" opacity="0.24" transform="rotate(127.8 1660.9 681.3)"/>
    <path d="M 1687.807130977734,482.2635463712391 C 1734.9053918192992,521.5120970725434 1750.604812099821,576.4600680543695 1687.807130977734,639.2577491764564 C 1625.009449855647,576.4600680543695 1640.7088701361688,521.5120970725434 1687.807130977734,482.2635463712391 Z" fill="url(#leaf15)" opacity="0.24" transform="rotate(162.0 1687.8 560.8)"/>
    <path d="M 238.5197348481597,131.9021518869203 C 297.90056178726314,181.38617433617318 317.6941707669643,250.66380576512722 238.5197348481597,329.8382416839318 C 159.34529892935507,250.66380576512722 179.13890790905623,181.38617433617318 238.5197348481597,131.9021518869203 Z" fill="url(#leaf16)" opacity="0.30" transform="rotate(16.4 238.5 230.9)"/>
    <path d="M 1752.3838760674437,309.6139439487626 C 1801.891458269132,350.8702624501696 1818.393985669695,408.62910835213944 1752.3838760674437,474.63921795439063 C 1686.3737664651924,408.62910835213944 1702.8762938657553,350.8702624501696 1752.3838760674437,309.6139439487626 Z" fill="url(#leaf17)" opacity="0.23" transform="rotate(275.5 1752.4 392.1)"/>
    <path d="M 1115.7191500663773,57.297160960018466 C 1146.547889513091,82.98777716561317 1156.8241359953288,118.95463985344574 1115.7191500663773,160.05962578239726 C 1074.6141641374259,118.95463985344574 1084.8904106196637,82.98777716561317 1115.7191500663773,57.297160960018466 Z" fill="url(#leaf18)" opacity="0.30" transform="rotate(184.1 1115.7 108.7)"/>
    <path d="M 487.04261667453545,320.17242418835417 C 534.9917241760438,360.1300137729445 550.97476000988,416.07063919137096 487.04261667453545,480.00278252671546 C 423.1104733391909,416.07063919137096 439.0935091730271,360.1300137729445 487.04261667453545,320.17242418835417 Z" fill="url(#leaf19)" opacity="0.36" transform="rotate(210.9 487.0 400.1)"/>
    <path d="M 1701.8437874753108,253.8647628371328 C 1732.083785429394,279.0647611322021 1742.1637847474217,314.34475874529915 1701.8437874753108,354.66475601741007 C 1661.5237902032,314.34475874529915 1671.6037895212276,279.0647611322021 1701.8437874753108,253.8647628371328 Z" fill="url(#leaf0)" opacity="0.35" transform="rotate(302.8 1701.8 304.3)"/>
    <path d="M 1253.9164691013673,668.5247119918348 C 1279.6962079002685,690.0078276575858 1288.289454166569,720.0841895896373 1253.9164691013673,754.4571746548389 C 1219.5434840361656,720.0841895896373 1228.136730302466,690.0078276575858 1253.9164691013673,668.5247119918348 Z" fill="url(#leaf1)" opacity="0.27" transform="rotate(178.1 1253.9 711.5)"/>
    <path d="M 105.18889982513156,788.2353838416045 C 158.13778481202644,832.359454664017 175.78741314099142,894.1331538153943 105.18889982513156,964.7316671312542 C 34.59038650927171,894.1331538153943 52.24001483823668,832.359454664017 105.18889982513156,788.2353838416045 Z" fill="url(#leaf2)" opacity="0.21" transform="rotate(307.5 105.2 876.5)"/>
    <path d="M 467.44182562885817,41.425440679624586 C 493.0762848983422,62.78749007086125 501.6211046548368,92.69435921859258 467.44182562885817,126.87363824457125 C 433.2625466028795,92.69435921859258 441.80736635937416,62.78749007086125 467.44182562885817,41.425440679624586 Z" fill="url(#leaf3)" opacity="0.26" transform="rotate(279.0 467.4 84.1)"/>
    <path d="M 1462.7229115008429,931.5193967003738 C 1501.6805741063645,963.9841155383086 1514.6664616415385,1009.4347219114172 1462.7229115008429,1061.3782720521128 C 1410.7793613601473,1009.4347219114172 1423.7652488953213,963.9841155383086 1462.7229115008429,931.5193967003738 Z" fill="url(#leaf4)" opacity="0.35" transform="rotate(204.7 1462.7 996.4)"/>
    <path d="M 328.2392393241744,24.78685852500692 C 378.0113767058707,66.26363967642054 394.60208916643614,124.3311332883996 328.2392393241744,190.6939831306614 C 261.8763894819126,124.3311332883996 278.46710194247805,66.26363967642054 328.2392393241744,24.78685852500692 Z" fill="url(#leaf5)" opacity="0.36" transform="rotate(300.3 328.2 107.7)"/>
    <path d="M 805.8561058770941,187.05044758874763 C 843.0753958428454,218.06652256020706 855.4818258314292,261.48902752025026 805.8561058770941,311.11474747458533 C 756.2303859227591,261.48902752025026 768.6368159113429,218.06652256020706 805.8561058770941,187.05044758874763 Z" fill="url(#leaf6)" opacity="0.40" transform="rotate(331.7 805.9 249.1)"/>
    <path d="M 1794.057105421034,862.5375320794379 C 1847.8423033276958,907.3585303349895 1865.7707026299165,970.1079278927615 1794.057105421034,1041.8215251016438 C 1722.3435082121516,970.1079278927615 1740.2719075143723,907.3585303349895 1794.057105421034,862.5375320794379 Z" fill="url(#leaf7)" opacity="0.39" transform="rotate(84.2 1794.1 952.2)"/>
    <path d="M 371.5755342562753,657.3672265267595 C 410.7137038589999,689.9823678623633 423.75976039324144,735.6435657322087 371.5755342562753,787.8277918691748 C 319.3913081193092,735.6435657322087 332.43736465355073,689.9823678623633 371.5755342562753,657.3672265267595 Z" fill="url(#leaf8)" opacity="0.23" transform="rotate(307.7 371.6 722.6)"/>
    <path d="M 336.33702774774935,572.938341858446 C 366.4067832384957,597.9964714340681 376.4300350687445,633.0778528399388 336.33702774774935,673.170860160934 C 296.2440204267542,633.0778528399388 306.267272257003,597.9964714340681 336.33702774774935,572.938341858446 Z" fill="url(#leaf9)" opacity="0.21" transform="rotate(154.1 336.3 623.1)"/>
    <path d="M 724.8597029051558,450.5761889041998 C 762.0247750156509,481.5470823296124 774.413132385816,524.90633312519 724.8597029051558,574.4597626058501 C 675.3062734244957,524.90633312519 687.6946307946607,481.5470823296124 724.8597029051558,450.5761889041998 Z" fill="url(#leaf10)" opacity="0.32" transform="rotate(194.8 724.9 512.5)"/>
    <path d="M 522.6454012865506,475.7445814956151 C 582.4551242674238,525.5860173130094 602.3916985943815,595.3640274573614 522.6454012865506,675.1103247651923 C 442.8991039787197,595.3640274573614 462.83567830567745,525.5860173130094 522.6454012865506,475.7445814956151 Z" fill="url(#leaf11)" opacity="0.27" transform="rotate(127.0 522.6 575.4)"/>
    <path d="M 458.32941519710437,188.29001187323678 C 483.97933590665116,209.66494579785908 492.52930947650003,239.5898532923303 458.32941519710437,273.78974757172597 C 424.1295209177087,239.5898532923303 432.6794944875576,209.66494579785908 458.32941519710437,188.29001187323678 Z" fill="url(#leaf12)" opacity="0.21" transform="rotate(38.7 458.3 231.0)"/>
    <path d="M 775.4444248939884,769.5630341675455 C 831.8878070705262,816.599185981327 850.7022677960387,882.449798520621 775.4444248939884,957.7076414226713 C 700.1865819919382,882.449798520621 719.0010427174507,816.599185981327 775.4444248939884,769.5630341675455 Z" fill="url(#leaf13)" opacity="0.29" transform="rotate(187.3 775.4 863.6)"/>
    <path d="M 959.934739909015,262.81520515988234 C 1011.4965642199777,305.7833920856846 1028.6838389902987,365.9388537818078 959.934739909015,434.68795286309137 C 891.1856408277314,365.9388537818078 908.3729155980523,305.7833920856846 959.934739909015,262.81520515988234 Z" fill="url(#leaf14)" opacity="0.32" transform="rotate(260.4 959.9 348.8)"/>
    <path d="M 1785.1392937884393,796.7255554307199 C 1839.6284791673543,842.1332099131489 1857.7915409603258,905.7039261885498 1785.1392937884393,978.3561733604363 C 1712.4870466165528,905.7039261885498 1730.6501084095244,842.1332099131489 1785.1392937884393,796.7255554307199 Z" fill="url(#leaf15)" opacity="0.28" transform="rotate(244.0 1785.1 887.5)"/>
    <path d="M 1826.9416527700205,118.55365862159155 C 1872.6168003850948,156.61628163415344 1887.8418495901194,209.90395385174008 1826.9416527700205,270.8041506718391 C 1766.0414559499216,209.90395385174008 1781.2665051549461,156.61628163415344 1826.9416527700205,118.55365862159155 Z" fill="url(#leaf16)" opacity="0.34" transform="rotate(315.1 1826.9 194.7)"/>
    <path d="M 1310.1767226087925,106.80664110791528 C 1361.1512449823497,149.28540975254623 1378.142752440202,208.75568585502955 1310.1767226087925,276.7217156864391 C 1242.210692777383,208.75568585502955 1259.2022002352353,149.28540975254623 1310.1767226087925,106.80664110791528 Z" fill="url(#leaf17)" opacity="0.30" transform="rotate(100.5 1310.2 191.8)"/>
    <path d="M 766.2721775382628,670.1982306598709 C 800.2792041662834,698.5374195165548 811.6148797089569,738.2122839159122 766.2721775382628,783.5549860866063 C 720.9294753675687,738.2122839159122 732.2651509102421,698.5374195165548 766.2721775382628,670.1982306598709 Z" fill="url(#leaf18)" opacity="0.32" transform="rotate(226.0 766.3 726.9)"/>
    <path d="M 267.2964178643001,447.56989087067933 C 292.0563061680008,468.2031311237633 300.3096022692344,497.08966747808074 267.2964178643001,530.102851883015 C 234.28323345936582,497.08966747808074 242.5365295605994,468.2031311237633 267.2964178643001,447.56989087067933 Z" fill="url(#leaf19)" opacity="0.30" transform="rotate(162.1 267.3 488.8)"/>
    <path d="M 785.4531566422552,277.5619445757109 C 823.0108570482754,308.8600282473945 835.5300905169488,352.6773453877514 785.4531566422552,402.7542792624451 C 735.3762227675616,352.6773453877514 747.895456236235,308.8600282473945 785.4531566422552,277.5619445757109 Z" fill="url(#leaf0)" opacity="0.25" transform="rotate(273.3 785.5 340.2)"/>
    <path d="M 1614.4775751769744,870.2879580618745 C 1650.0978985055958,899.9715608357258 1661.9713396151365,941.5286047191175 1614.4775751769744,989.0223691572795 C 1566.9838107388123,941.5286047191175 1578.857251848353,899.9715608357258 1614.4775751769744,870.2879580618745 Z" fill="url(#leaf1)" opacity="0.23" transform="rotate(197.8 1614.5 929.7)"/>
    <path d="M 85.20345120506197,0.25450051642147287 C 142.27933523905995,47.8177372114198 161.3046299170593,114.40626858441745 85.20345120506197,190.50744729641477 C 9.102272493064646,114.40626858441745 28.12756717106398,47.8177372114198 85.20345120506197,0.25450051642147287 Z" fill="url(#leaf2)" opacity="0.21" transform="rotate(265.0 85.2 95.4)"/>
    <path d="M 390.17457626776127,430.4752590818118 C 423.7770485154143,458.4773192881894 434.97787259796536,497.680203577118 390.17457626776127,542.4834999073221 C 345.3712799375572,497.680203577118 356.5721040201082,458.4773192881894 390.17457626776127,430.4752590818118 Z" fill="url(#leaf3)" opacity="0.21" transform="rotate(137.9 390.2 486.5)"/>
    <path d="M 514.3330180157038,197.43421445235495 C 562.2932692589222,237.4010904883703 578.2800196733284,293.35471693879185 514.3330180157038,357.30171859641644 C 450.38601635807925,293.35471693879185 466.3727667724854,237.4010904883703 514.3330180157038,197.43421445235495 Z" fill="url(#leaf4)" opacity="0.27" transform="rotate(296.6 514.3 277.4)"/>
    <path d="M 299.4255508961192,561.5245153655994 C 331.10338469260927,587.9227101960078 341.6626626247726,624.8801829585796 299.4255508961192,667.117294687233 C 257.1884391674658,624.8801829585796 267.74771709962914,587.9227101960078 299.4255508961192,561.5245153655994 Z" fill="url(#leaf5)" opacity="0.25" transform="rotate(325.9 299.4 614.3)"/>
    <path d="M 1411.492001951305,590.8592785791043 C 1441.765354742654,616.0870725718952 1451.8564723397703,651.4059841618025 1411.492001951305,691.7704545502679 C 1371.1275315628395,651.4059841618025 1381.218649159956,616.0870725718952 1411.492001951305,590.8592785791043 Z" fill="url(#leaf6)" opacity="0.38" transform="rotate(325.8 1411.5 641.3)"/>
    <path d="M 1555.4043791072752,323.7461495681147 C 1597.2716946137552,358.6355791568481 1611.2274664492486,407.4807805810749 1555.4043791072752,463.3038679230484 C 1499.5812917653018,407.4807805810749 1513.5370636007951,358.6355791568481 1555.4043791072752,323.7461495681147 Z" fill="url(#leaf7)" opacity="0.26" transform="rotate(242.5 1555.4 393.5)"/>
    <path d="M 914.5048544418734,363.6356512012631 C 965.8501511808148,406.4233984837143 982.9652500937954,466.32624467914604 914.5048544418734,534.7866403310679 C 846.0444587899514,466.32624467914604 863.1595577029319,406.4233984837143 914.5048544418734,363.6356512012631 Z" fill="url(#leaf8)" opacity="0.29" transform="rotate(33.1 914.5 449.2)"/>
    <path d="M 591.6706062179362,687.819062411325 C 620.9624951077038,712.2289698194647 630.7264580709598,746.4028401908603 591.6706062179362,785.4586920438838 C 552.6147543649126,746.4028401908603 562.3787173281686,712.2289698194647 591.6706062179362,687.819062411325 Z" fill="url(#leaf9)" opacity="0.21" transform="rotate(43.9 591.7 736.6)"/>
    <path d="M 1455.6339062425964,623.5803756198386 C 1502.5513677854822,662.6782602389102 1518.1905216331108,717.4152987056102 1455.6339062425964,779.9719140961247 C 1393.077290852082,717.4152987056102 1408.7164446997106,662.6782602389102 1455.6339062425964,623.5803756198386 Z" fill="url(#leaf10)" opacity="0.37" transform="rotate(266.6 1455.6 701.8)"/>
    <path d="M 1754.229561637953,386.85849319473533 C 1800.9073823244837,425.7566771001774 1816.4666558866604,480.2141345677963 1754.229561637953,542.4512288165037 C 1691.9924673892458,480.2141345677963 1707.5517409514225,425.7566771001774 1754.229561637953,386.85849319473533 Z" fill="url(#leaf11)" opacity="0.37" transform="rotate(292.6 1754.2 464.7)"/>
    <path d="M 428.1612551400544,793.7158525879239 C 479.7847415542143,836.7354245997238 496.9925703589343,896.9628254162437 428.1612551400544,965.7941406351237 C 359.32993992117446,896.9628254162437 376.53776872589447,836.7354245997238 428.1612551400544,793.7158525879239 Z" fill="url(#leaf12)" opacity="0.36" transform="rotate(304.7 428.2 879.8)"/>
    <path d="M 1802.6999285475094,48.63879423392699 C 1841.4122843558052,80.89909074084011 1854.3164029585705,126.06350585051848 1802.6999285475094,177.6799802615795 C 1751.0834541364484,126.06350585051848 1763.9875727392136,80.89909074084011 1802.6999285475094,48.63879423392699 Z" fill="url(#leaf13)" opacity="0.36" transform="rotate(226.1 1802.7 113.2)"/>
    <path d="M 585.7005115597682,708.8798466870348 C 623.5228877882123,740.3984935440717 636.130346531027,784.5245991439232 585.7005115597682,834.954434115182 C 535.2706765885093,784.5245991439232 547.8781353313241,740.3984935440717 585.7005115597682,708.8798466870348 Z" fill="url(#leaf14)" opacity="0.21" transform="rotate(302.8 585.7 771.9)"/>
    <path d="M 184.1131257585493,23.94444630303157 C 242.92200439800106,72.95184516924137 262.52496394448497,141.56220358193508 184.1131257585493,219.97404176787074 C 105.70128757261362,141.56220358193508 125.30424711909754,72.95184516924137 184.1131257585493,23.94444630303157 Z" fill="url(#leaf15)" opacity="0.37" transform="rotate(301.4 184.1 122.0)"/>
    <path d="M 211.29985719468996,422.31568610278396 C 259.56860938362576,462.5396462602304 275.6581934466044,518.8531904806556 211.29985719468996,583.21152673257 C 146.94152094277553,518.8531904806556 163.03110500575414,462.5396462602304 211.29985719468996,422.31568610278396 Z" fill="url(#leaf16)" opacity="0.34" transform="rotate(263.2 211.3 502.8)"/>
    <path d="M 1715.3515404303012,33.3651320035238 C 1771.1279898980197,79.84550655995594 1789.7201397205927,144.91803093896092 1715.3515404303012,219.28663022925232 C 1640.9829411400096,144.91803093896092 1659.5750909625826,79.84550655995594 1715.3515404303012,33.3651320035238 Z" fill="url(#leaf17)" opacity="0.39" transform="rotate(181.9 1715.4 126.3)"/>
    <path d="M 1238.2334519869585,69.80901065615785 C 1283.0018656503617,107.11602204232719 1297.9246702048295,159.34583798296427 1238.2334519869585,219.0370562008352 C 1178.5422337690875,159.34583798296427 1193.4650383235553,107.11602204232719 1238.2334519869585,69.80901065615785 Z" fill="url(#leaf18)" opacity="0.26" transform="rotate(227.9 1238.2 144.4)"/>
    <path d="M 1656.7153659974927,852.5688488706103 C 1691.791170263499,881.798685758949 1703.4831050188345,922.720457402623 1656.7153659974927,969.4881964239648 C 1609.9476269761508,922.720457402623 1621.6395617314863,881.798685758949 1656.7153659974927,852.5688488706103 Z" fill="url(#leaf19)" opacity="0.34" transform="rotate(150.2 1656.7 911.0)"/>
    <path d="M 231.51292933450384,41.16060162050752 C 268.1080028651893,71.65649622941207 280.30636070875113,114.35074868187844 231.51292933450384,163.14418005612572 C 182.71949796025655,114.35074868187844 194.91785580381838,71.65649622941207 231.51292933450384,41.16060162050752 Z" fill="url(#leaf0)" opacity="0.34" transform="rotate(211.3 231.5 102.2)"/>
    <path d="M 427.9487963366272,907.6092309408939 C 453.8140813703548,929.1636351356668 462.435843048264,959.339801008349 427.9487963366272,993.8268477199858 C 393.4617496249904,959.339801008349 402.0835113028996,929.1636351356668 427.9487963366272,907.6092309408939 Z" fill="url(#leaf1)" opacity="0.32" transform="rotate(194.9 427.9 950.7)"/>
    <path d="M 1629.0013226152034,549.0700991412164 C 1654.224485593196,570.089401622877 1662.6322065858603,599.5164250972018 1629.0013226152034,633.1473090678587 C 1595.3704386445465,599.5164250972018 1603.7781596372108,570.089401622877 1629.0013226152034,549.0700991412164 Z" fill="url(#leaf2)" opacity="0.34" transform="rotate(182.4 1629.0 591.1)"/>
    <path d="M 1039.2793629135022,268.2820401867327 C 1087.5561216613316,308.5126724765905 1103.6483745772746,364.8355576823914 1039.2793629135022,429.20456934616396 C 974.9103512497296,364.8355576823914 991.0026041656728,308.5126724765905 1039.2793629135022,268.2820401867327 Z" fill="url(#leaf3)" opacity="0.27" transform="rotate(7.2 1039.3 348.7)"/>
    <path d="M 374.62804322418174,220.33304181175976 C 418.1537536369318,256.6044671557181 432.66232377451513,307.3844626372599 374.62804322418174,365.4187431875933 C 316.59376267384835,307.3844626372599 331.10233281143167,256.6044671557181 374.62804322418174,220.33304181175976 Z" fill="url(#leaf4)" opacity="0.21" transform="rotate(275.4 374.6 292.9)"/>
    <path d="M 1639.3332120780326,606.7798404062696 C 1686.9857302723885,646.4902722348994 1702.8699030038404,702.0848767949813 1639.3332120780326,765.621567720789 C 1575.7965211522248,702.0848767949813 1591.6806938836767,646.4902722348994 1639.3332120780326,606.7798404062696 Z" fill="url(#leaf5)" opacity="0.31" transform="rotate(229.2 1639.3 686.2)"/>
    <path d="M 1309.8382928442356,923.578774655241 C 1366.9313720684413,971.1563406754125 1385.9623984765099,1037.7649331036525 1309.8382928442356,1113.8890387359268 C 1233.7141872119614,1037.7649331036525 1252.74521362003,971.1563406754125 1309.8382928442356,923.578774655241 Z" fill="url(#leaf6)" opacity="0.27" transform="rotate(316.3 1309.8 1018.7)"/>
    <path d="M 493.1494886855893,452.4602362608259 C 545.9158057340903,496.4321671345768 563.5045780835907,557.992870357828 493.1494886855893,628.3479597558294 C 422.7943992875879,557.992870357828 440.38317163708825,496.4321671345768 493.1494886855893,452.4602362608259 Z" fill="url(#leaf7)" opacity="0.22" transform="rotate(26.4 493.1 540.4)"/>
    <path d="M 1552.6040323418213,573.8407805734083 C 1587.3565706914274,602.80122919808 1598.9407501412961,643.3458572726204 1552.6040323418213,689.6825750720951 C 1506.2673145423464,643.3458572726204 1517.8514939922152,602.80122919808 1552.6040323418213,573.8407805734083 Z" fill="url(#leaf8)" opacity="0.40" transform="rotate(270.6 1552.6 631.8)"/>
    <path d="M 1296.7356875975456,-9.765574013404887 C 1348.9678917543395,33.7612627839234 1366.378626473271,94.698834300183 1296.7356875975456,164.34177317590826 C 1227.0927487218203,94.698834300183 1244.5034834407518,33.7612627839234 1296.7356875975456,-9.765574013404887 Z" fill="url(#leaf9)" opacity="0.37" transform="rotate(347.3 1296.7 77.3)"/>
    <path d="M 1340.117678345343,480.9737873100717 C 1366.4455843531396,502.91370898323555 1375.221553022405,533.629599325665 1340.117678345343,568.7334740027272 C 1305.0138036682808,533.629599325665 1313.7897723375463,502.91370898323555 1340.117678345343,480.9737873100717 Z" fill="url(#leaf10)" opacity="0.23" transform="rotate(132.0 1340.1 524.9)"/>
    <path d="M 477.0732228201066,357.0494448230712 C 526.5664866066111,398.2938313118249 543.0642412021125,456.03597239608007 477.0732228201066,522.026990778086 C 411.0822044381007,456.03597239608007 427.57995903360217,398.2938313118249 477.0732228201066,357.0494448230712 Z" fill="url(#leaf11)" opacity="0.30" transform="rotate(189.2 477.1 439.5)"/>
    <path d="M 457.4592405233083,69.74071626754488 C 500.39698899934314,105.52217333090724 514.709571824688,155.61621321961454 457.4592405233083,212.8665445209943 C 400.20890922192854,155.61621321961454 414.5214920472735,105.52217333090724 457.4592405233083,69.74071626754488 Z" fill="url(#leaf12)" opacity="0.30" transform="rotate(164.0 457.5 141.3)"/>
    <path d="M 217.4990718263295,625.0913285930957 C 259.0322262324613,659.7022905982055 272.87661103450523,708.1576374053593 217.4990718263295,763.5351766135351 C 162.12153261815374,708.1576374053593 175.96591742019768,659.7022905982055 217.4990718263295,625.0913285930957 Z" fill="url(#leaf13)" opacity="0.30" transform="rotate(325.3 217.5 694.3)"/>
    <path d="M 215.96468280396147,408.82266233113626 C 241.06131795619734,429.73652495799945 249.42686300694263,459.015932635608 215.96468280396147,492.47811283858914 C 182.5025026009803,459.015932635608 190.8680476517256,429.73652495799945 215.96468280396147,408.82266233113626 Z" fill="url(#leaf14)" opacity="0.28" transform="rotate(28.8 216.0 450.7)"/>
    <path d="M 1471.633345346095,620.5966007418899 C 1502.8084318218312,646.5758394716701 1513.2001273137432,682.9467736933622 1471.633345346095,724.5135556610103 C 1430.0665633784467,682.9467736933622 1440.4582588703588,646.5758394716701 1471.633345346095,620.5966007418899 Z" fill="url(#leaf15)" opacity="0.32" transform="rotate(77.0 1471.6 672.6)"/>
    <path d="M 74.31155618911278,646.6005864420135 C 127.69966516547784,691.0906772556511 145.49570149093284,753.3768043947437 74.31155618911278,824.5609496965637 C 3.1274108872926973,753.3768043947437 20.923447212747718,691.0906772556511 74.31155618911278,646.6005864420135 Z" fill="url(#leaf16)" opacity="0.38" transform="rotate(48.8 74.3 735.6)"/>
    <path d="M 1345.2762456762512,358.4002295014146 C 1387.8444675125772,393.87374769835293 1402.0338747913524,443.5366731740666 1345.2762456762512,500.294302289168 C 1288.5186165611499,443.5366731740666 1302.708023839925,393.87374769835293 1345.2762456762512,358.4002295014146 Z" fill="url(#leaf17)" opacity="0.38" transform="rotate(59.0 1345.3 429.3)"/>
    <path d="M 1369.9539609286558,775.2219300689869 C 1417.5778897310272,814.9085374042963 1433.452532665151,870.4697876737297 1369.9539609286558,933.9683594102248 C 1306.4553891921605,870.4697876737297 1322.3300321262843,814.9085374042963 1369.9539609286558,775.2219300689869 Z" fill="url(#leaf18)" opacity="0.34" transform="rotate(232.3 1370.0 854.6)"/>
    <path d="M 411.7803280250575,-3.7403560018527457 C 462.6900720763133,38.68443070752711 479.6599867600653,98.07913210065891 411.7803280250575,165.9587908356667 C 343.9006692900497,98.07913210065891 360.8705839738017,38.68443070752711 411.7803280250575,-3.7403560018527457 Z" fill="url(#leaf19)" opacity="0.35" transform="rotate(227.4 411.8 81.1)"/>
    <path d="M 747.7569682490744,875.0669691074066 C 797.9734556060329,916.9140419048721 814.7122847250191,975.4999438213237 747.7569682490744,1042.4552602972685 C 680.8016517731296,975.4999438213237 697.5404808921159,916.9140419048721 747.7569682490744,875.0669691074066 Z" fill="url(#leaf0)" opacity="0.26" transform="rotate(53.2 747.8 958.8)"/>
    <path d="M 1635.14598894526,355.1845882718421 C 1676.430594521096,389.58842625170564 1690.1921297130416,437.7537994235146 1635.14598894526,492.79994019129623 C 1580.0998481774782,437.7537994235146 1593.8613833694237,389.58842625170564 1635.14598894526,355.1845882718421 Z" fill="url(#leaf1)" opacity="0.35" transform="rotate(357.8 1635.1 424.0)"/>
    <path d="M 1527.0821025975702,263.54527902134777 C 1564.9912310910318,295.1362194325658 1577.627607255519,339.363536008271 1527.0821025975702,389.9090406662198 C 1476.5365979396213,339.363536008271 1489.1729741041086,295.1362194325658 1527.0821025975702,263.54527902134777 Z" fill="url(#leaf2)" opacity="0.23" transform="rotate(357.0 1527.1 326.7)"/>
    <path d="M 1091.3358072230446,489.9266081799858 C 1128.8817045308626,521.2148559365007 1141.3970036334686,565.0184027956216 1091.3358072230446,615.0795992060455 C 1041.2746108126207,565.0184027956216 1053.7899099152266,521.2148559365007 1091.3358072230446,489.9266081799858 Z" fill="url(#leaf3)" opacity="0.37" transform="rotate(348.8 1091.3 552.5)"/>
    <path d="M 507.7219983281419,11.474826442691722 C 562.8929185854561,57.45059332378682 581.2832253378941,121.81666695731995 507.7219983281419,195.3778939670721 C 434.1607713183898,121.81666695731995 452.5510780708278,57.45059332378682 507.7219983281419,11.474826442691722 Z" fill="url(#leaf4)" opacity="0.27" transform="rotate(204.9 507.7 103.4)"/>
    <path d="M 1331.765673288145,375.55868847363774 C 1382.641056787859,417.954841390066 1399.5995179544304,477.30945547306567 1331.765673288145,545.1433001393509 C 1263.9318286218597,477.30945547306567 1280.8902897884311,417.954841390066 1331.765673288145,375.55868847363774 Z" fill="url(#leaf5)" opacity="0.25" transform="rotate(219.3 1331.8 460.4)"/>
    <path d="M 1353.2901657332059,690.7926522520088 C 1379.1946208806135,712.3796982081817 1387.8294392630826,742.6015625468237 1353.2901657332059,777.1408360767005 C 1318.7508922033292,742.6015625468237 1327.3857105857983,712.3796982081817 1353.2901657332059,690.7926522520088 Z" fill="url(#leaf6)" opacity="0.28" transform="rotate(288.4 1353.3 734.0)"/>
    <path d="M 1065.2545015563555,99.85873533313705 C 1096.8952415659908,126.22601867449983 1107.442154902536,163.14021535240772 1065.2545015563555,205.32786869858816 C 1023.0668482101751,163.14021535240772 1033.6137615467203,126.22601867449983 1065.2545015563555,99.85873533313705 Z" fill="url(#leaf7)" opacity="0.25" transform="rotate(215.8 1065.3 152.6)"/>
    <path d="M 1288.054419078373,130.6993981480508 C 1346.3204783514323,179.25444754226675 1365.7424981091185,247.23151669416913 1288.054419078373,324.91959572491464 C 1210.3663400476275,247.23151669416913 1229.7883598053138,179.25444754226675 1288.054419078373,130.6993981480508 Z" fill="url(#leaf8)" opacity="0.24" transform="rotate(205.4 1288.1 227.8)"/>
    <path d="M 708.1707139589663,577.1491032931197 C 747.5502903195688,609.965416926955 760.6768157731029,655.9082560143245 708.1707139589663,708.4143578284611 C 655.6646121448297,655.9082560143245 668.7911375983638,609.965416926955 708.1707139589663,577.1491032931197 Z" fill="url(#leaf9)" opacity="0.22" transform="rotate(267.9 708.2 642.8)"/>
    <path d="M 574.6212205211548,-14.29338272101235 C 624.1768603997832,27.002983844511313 640.6954070259926,84.81789703624445 574.6212205211548,150.8920835410823 C 508.5470340163169,84.81789703624445 525.0655806425264,27.002983844511313 574.6212205211548,-14.29338272101235 Z" fill="url(#leaf10)" opacity="0.38" transform="rotate(229.6 574.6 68.3)"/>
    <path d="M 1286.861865355479,179.5281555271264 C 1338.0851272409748,222.21420709837278 1355.1595478694733,281.97467929811774 1286.861865355479,350.27236181211197 C 1218.5641828414848,281.97467929811774 1235.6386034699833,222.21420709837278 1286.861865355479,179.5281555271264 Z" fill="url(#leaf11)" opacity="0.24" transform="rotate(105.8 1286.9 264.9)"/>
    <path d="M 818.1216323947998,950.9624912603953 C 856.9922460607567,983.3546693153593 869.9491172827422,1028.7037185923089 818.1216323947998,1080.5312034802514 C 766.2941475068574,1028.7037185923089 779.251018728843,983.3546693153593 818.1216323947998,950.9624912603953 Z" fill="url(#leaf12)" opacity="0.31" transform="rotate(145.4 818.1 1015.7)"/>
    <path d="M 1441.588893849071,726.1339894370257 C 1474.4637242101444,753.5296814045869 1485.4220009971689,791.8836501591726 1441.588893849071,835.7167573072705 C 1397.755786700973,791.8836501591726 1408.7140634879975,753.5296814045869 1441.588893849071,726.1339894370257 Z" fill="url(#leaf13)" opacity="0.29" transform="rotate(42.7 1441.6 780.9)"/>
    <path d="M 1525.4071678859932,440.0658978515265 C 1566.9053311147275,474.6477005421384 1580.7380521909722,523.062224308995 1525.4071678859932,578.3931086139742 C 1470.0762835810142,523.062224308995 1483.909004657259,474.6477005421384 1525.4071678859932,440.0658978515265 Z" fill="url(#leaf14)" opacity="0.36" transform="rotate(136.9 1525.4 509.2)"/>
    <path d="M 854.5622833202964,29.964409235302497 C 897.5358478791429,65.77571303434127 911.8603693987584,115.91153835299554 854.5622833202964,173.20962443145757 C 797.2641972418344,115.91153835299554 811.5887187614499,65.77571303434127 854.5622833202964,29.964409235302497 Z" fill="url(#leaf15)" opacity="0.34" transform="rotate(95.8 854.6 101.6)"/>
    <path d="M 1717.2144536938117,623.3338873326527 C 1757.678346648046,657.0537981278479 1771.166310966124,704.2616732411212 1717.2144536938117,758.2135305134336 C 1663.2625964214994,704.2616732411212 1676.7505607395774,657.0537981278479 1717.2144536938117,623.3338873326527 Z" fill="url(#leaf16)" opacity="0.26" transform="rotate(284.1 1717.2 690.8)"/>
    <path d="M 1296.569263947107,463.2355296529106 C 1345.7199401831547,504.19442651628367 1362.1034989285038,561.536882125006 1296.569263947107,627.0711171064029 C 1231.0350289657101,561.536882125006 1247.4185877110592,504.19442651628367 1296.569263947107,463.2355296529106 Z" fill="url(#leaf17)" opacity="0.31" transform="rotate(356.4 1296.6 545.2)"/>
    <path d="M 414.1817698977684,485.5681123316182 C 458.5333873828787,522.5277935692102 473.3172598779155,574.2713473018389 414.1817698977684,633.406837281986 C 355.0462799176213,574.2713473018389 369.8301524126581,522.5277935692102 414.1817698977684,485.5681123316182 Z" fill="url(#leaf18)" opacity="0.26" transform="rotate(306.5 414.2 559.5)"/>
    <path d="M 1318.266160385721,363.11278966848647 C 1373.40048930778,409.05806377020235 1391.7785989484664,473.38144751260467 1318.266160385721,546.8938860753501 C 1244.7537218229754,473.38144751260467 1263.131831463662,409.05806377020235 1318.266160385721,363.11278966848647 Z" fill="url(#leaf19)" opacity="0.28" transform="rotate(93.3 1318.3 455.0)"/>
    <path d="M 1415.435374884891,335.06829166454185 C 1469.133525230362,379.8167502857676 1487.0329086788522,442.4645923554838 1415.435374884891,514.062126149445 C 1343.8378410909297,442.4645923554838 1361.73722453942,379.8167502857676 1415.435374884891,335.06829166454185 Z" fill="url(#leaf0)" opacity="0.37" transform="rotate(240.2 1415.4 424.6)"/>
    <path d="M 614.5995935927302,548.7623211303135 C 660.6644845176274,587.1497302343944 676.0194481592598,640.8921029801078 614.5995935927302,702.3119575466374 C 553.1797390262007,640.8921029801078 568.534702667833,587.1497302343944 614.5995935927302,548.7623211303135 Z" fill="url(#leaf1)" opacity="0.28" transform="rotate(122.2 614.6 625.5)"/>
    <path d="M 1780.768806301887,792.0599410067558 C 1807.1456410101819,814.0406365970015 1815.9379192462802,844.8136104233455 1780.768806301887,879.9827233677387 C 1745.5996933574938,844.8136104233455 1754.3919715935922,814.0406365970015 1780.768806301887,792.0599410067558 Z" fill="url(#leaf2)" opacity="0.33" transform="rotate(71.7 1780.8 836.0)"/>
    <path d="M 1426.2429920314028,771.9759927477018 C 1465.7547430115283,804.9024518978065 1478.9253266715702,850.999494707953 1426.2429920314028,903.6818293481205 C 1373.5606573912353,850.999494707953 1386.7312410512773,804.9024518978065 1426.2429920314028,771.9759927477018 Z" fill="url(#leaf3)" opacity="0.30" transform="rotate(226.9 1426.2 837.8)"/>
    <path d="M 1154.6121519556793,269.2105368621476 C 1184.209350877503,293.87486929700066 1194.0750838514443,328.404934705795 1154.6121519556793,367.86786660155985 C 1115.1492200599143,328.404934705795 1125.0149530338556,293.87486929700066 1154.6121519556793,269.2105368621476 Z" fill="url(#leaf4)" opacity="0.28" transform="rotate(155.5 1154.6 318.5)"/>
    <path d="M 1791.0486177924884,297.8673215291367 C 1832.2939720099205,332.2384500436636 1846.0424234157313,380.35802996400116 1791.0486177924884,435.3518355872442 C 1736.0548121692455,380.35802996400116 1749.8032635750562,332.2384500436636 1791.0486177924884,297.8673215291367 Z" fill="url(#leaf5)" opacity="0.38" transform="rotate(170.0 1791.0 366.6)"/>
    <path d="M 51.46355174366444,365.32048670372257 C 90.22159382265625,397.61885510288243 103.14094118232019,442.8365708617062 51.46355174366444,494.51396030036193 C -0.21383769499131233,442.8365708617062 12.705509664672633,397.61885510288243 51.46355174366444,365.32048670372257 Z" fill="url(#leaf6)" opacity="0.37" transform="rotate(118.1 51.5 429.9)"/>
    <path d="M 188.64066497090232,202.92900668933038 C 242.10159347623022,247.4797804437703 259.9219029780062,309.8508636999862 188.64066497090232,381.13210170709004 C 117.35942696379847,309.8508636999862 135.17973646557442,247.4797804437703 188.64066497090232,202.92900668933038 Z" fill="url(#leaf7)" opacity="0.35" transform="rotate(151.0 188.6 292.0)"/>
    <path d="M 529.8347654181235,484.14627498204095 C 564.3525121741036,512.9110639453577 575.8584277594304,553.1817684940011 529.8347654181235,599.2054308353079 C 483.8111030768167,553.1817684940011 495.3170186621434,512.9110639453577 529.8347654181235,484.14627498204095 Z" fill="url(#leaf8)" opacity="0.31" transform="rotate(94.8 529.8 541.7)"/>
    <path d="M 1808.8137128552842,874.3704417323981 C 1852.3014681397576,910.6102378027927 1866.7973865679155,961.3459523013449 1808.8137128552842,1019.3296260139762 C 1750.8300391426528,961.3459523013449 1765.3259575708107,910.6102378027927 1808.8137128552842,874.3704417323981 Z" fill="url(#leaf9)" opacity="0.34" transform="rotate(224.9 1808.8 946.9)"/>
    <path d="M 421.54603244439846,589.2301069033666 C 448.39137640038365,611.6012268666875 457.339824385712,642.9207948153369 421.54603244439846,678.7145867566504 C 385.7522405030849,642.9207948153369 394.7006884884133,611.6012268666875 421.54603244439846,589.2301069033666 Z" fill="url(#leaf10)" opacity="0.26" transform="rotate(204.6 421.5 634.0)"/>
    <path d="M 1634.2868731441224,869.5537129649548 C 1663.5599628597058,893.9479543946077 1673.317659431567,928.0998923961217 1634.2868731441224,967.1306786835663 C 1595.2560868566777,928.0998923961217 1605.013783428539,893.9479543946077 1634.2868731441224,869.5537129649548 Z" fill="url(#leaf11)" opacity="0.29" transform="rotate(74.2 1634.3 918.3)"/>
    <path d="M 458.6710724357966,390.6960701966627 C 493.26881325369146,419.5275208782418 504.80139352632307,459.8915518324524 458.6710724357966,506.02187292297896 C 412.5407513452701,459.8915518324524 424.0733316179017,419.5275208782418 458.6710724357966,390.6960701966627 Z" fill="url(#leaf12)" opacity="0.39" transform="rotate(3.4 458.7 448.4)"/>
    <path d="M 388.9257045289287,691.0697598419797 C 447.04252736010267,739.5004455346248 466.4148016371606,807.3034055043277 388.9257045289287,884.7925026125597 C 311.43660742069676,807.3034055043277 330.8088816977547,739.5004455346248 388.9257045289287,691.0697598419797 Z" fill="url(#leaf13)" opacity="0.28" transform="rotate(325.4 388.9 787.9)"/>
    <path d="M 1441.992092089522,526.8059149088156 C 1483.446931624108,561.3516145209707 1497.2652114689702,609.7155939779877 1441.992092089522,664.9887133574359 C 1386.7189727100738,609.7155939779877 1400.537252554936,561.3516145209707 1441.992092089522,526.8059149088156 Z" fill="url(#leaf14)" opacity="0.21" transform="rotate(75.9 1442.0 595.9)"/>
    <path d="M 993.9364841432013,375.42022772359826 C 1043.7409073586925,416.92391373650753 1060.342381763856,475.0290741545806 993.9364841432013,541.4349717752355 C 927.5305865225464,475.0290741545806 944.1320609277101,416.92391373650753 993.9364841432013,375.42022772359826 Z" fill="url(#leaf15)" opacity="0.28" transform="rotate(184.7 993.9 458.4)"/>
    <path d="M 1060.3753323587227,359.29193470109726 C 1113.9320528932055,403.9225351464996 1131.7842930713664,466.40537577006285 1060.3753323587227,537.8143364827066 C 988.966371646079,466.40537577006285 1006.81861182424,403.9225351464996 1060.3753323587227,359.29193470109726 Z" fill="url(#leaf16)" opacity="0.30" transform="rotate(236.7 1060.4 448.6)"/>
    <path d="M 92.20994161227078,222.34755617291182 C 135.33972333026162,258.2890409379042 149.7163172362586,308.6071196088935 92.20994161227078,366.1134952328813 C 34.70356598828299,308.6071196088935 49.080159894279944,258.2890409379042 92.20994161227078,222.34755617291182 Z" fill="url(#leaf17)" opacity="0.30" transform="rotate(305.6 92.2 294.2)"/>
    <path d="M 1866.3420091336147,452.39145057945336 C 1895.0658146669748,476.32795519058675 1904.6404165114282,509.83906164617355 1866.3420091336147,548.137469023987 C 1828.0436017558013,509.83906164617355 1837.6182036002547,476.32795519058675 1866.3420091336147,452.39145057945336 Z" fill="url(#leaf18)" opacity="0.29" transform="rotate(123.2 1866.3 500.3)"/>
    <path d="M 1052.939530972954,523.1604048475285 C 1106.8806423574524,568.1113310012774 1124.861012818952,631.0426276165258 1052.939530972954,702.964109462524 C 981.0180491269557,631.0426276165258 998.9984195884552,568.1113310012774 1052.939530972954,523.1604048475285 Z" fill="url(#leaf19)" opacity="0.22" transform="rotate(66.6 1052.9 613.1)"/>
    <path d="M 1109.960155841665,644.8017105573595 C 1141.5422976344053,671.1201620513096 1152.0696782319853,707.9659941428399 1109.960155841665,750.0755165331602 C 1067.8506334513447,707.9659941428399 1078.3780140489248,671.1201620513096 1109.960155841665,644.8017105573595 Z" fill="url(#leaf0)" opacity="0.23" transform="rotate(112.2 1110.0 697.4)"/>
    <path d="M 1115.365702580181,896.8994868399924 C 1152.301563079895,927.6793705897541 1164.6135165797996,970.7712078394203 1115.365702580181,1020.0190218390388 C 1066.1178885805625,970.7712078394203 1078.429842080467,927.6793705897541 1115.365702580181,896.8994868399924 Z" fill="url(#leaf1)" opacity="0.33" transform="rotate(327.9 1115.4 958.5)"/>
    <path d="M 303.64580546162813,665.8818296027671 C 344.5690420427389,699.9845267536926 358.21012090310916,747.7283027649886 303.64580546162813,802.2926182064696 C 249.0814900201471,747.7283027649886 262.7225688805174,699.9845267536926 303.64580546162813,665.8818296027671 Z" fill="url(#leaf2)" opacity="0.36" transform="rotate(136.5 303.6 734.1)"/>
    <path d="M 1201.5545285310218,634.904549890873 C 1253.372888898366,678.0865168636598 1270.6456756874807,738.5412706255612 1201.5545285310218,807.6324177820201 C 1132.463381374563,738.5412706255612 1149.7361681636776,678.0865168636598 1201.5545285310218,634.904549890873 Z" fill="url(#leaf3)" opacity="0.32" transform="rotate(141.7 1201.6 721.3)"/>
    <path d="M 930.0782404542003,920.3724163472405 C 983.0225342238797,964.4926611553066 1000.6706321471062,1026.2610038865992 930.0782404542003,1096.8533955795049 C 859.4858487612945,1026.2610038865992 877.133946684521,964.4926611553066 930.0782404542003,920.3724163472405 Z" fill="url(#leaf4)" opacity="0.27" transform="rotate(118.8 930.1 1008.6)"/>
    <path d="M 1177.8118732016712,281.90406172544624 C 1210.3862208469288,309.0493514298276 1221.2443367286814,347.05275701596156 1177.8118732016712,390.4852205429718 C 1134.379409674661,347.05275701596156 1145.2375255564136,309.0493514298276 1177.8118732016712,281.90406172544624 Z" fill="url(#leaf5)" opacity="0.22" transform="rotate(286.3 1177.8 336.2)"/>
    <path d="M 395.6758368681558,125.65657180662305 C 431.39502984051904,155.42256595025913 443.30142749797346,197.0949577513496 395.6758368681558,244.7205483811673 C 348.0502462383381,197.0949577513496 359.9566438957925,155.42256595025913 395.6758368681558,125.65657180662305 Z" fill="url(#leaf6)" opacity="0.30" transform="rotate(183.2 395.7 185.2)"/>
    <path d="M 1532.2558203040853,763.0123779863558 C 1568.570479453623,793.2745939443039 1580.6753658368023,835.6416962854313 1532.2558203040853,884.0612418181482 C 1483.8362747713684,835.6416962854313 1495.9411611545477,793.2745939443039 1532.2558203040853,763.0123779863558 Z" fill="url(#leaf7)" opacity="0.36" transform="rotate(151.0 1532.3 823.5)"/>
  </g>

  <!-- Central star shape -->
  <polygon points="960.0,337.9 1019.4,458.2 1152.2,477.5 1056.1,571.2 1078.8,703.5 960.0,641.1 841.2,703.5 863.9,571.2 767.8,477.5 900.6,458.2" 
           fill="#45B7D1" 
           transform="rotate(209.9 960.0 540.0)"/>
</svg>