<?xml version="1.0" encoding="UTF-8"?>
<svg xmlns="http://www.w3.org/2000/svg" viewBox="0 0 1920 1080" width="1920" height="1080">
  <defs>
    <linearGradient id="bgGrad" x1="0%" y1="0%" x2="100%" y2="100%">
      <stop offset="0%" stop-color="#FF6B6B"/>
      <stop offset="100%" stop-color="#FF4500"/>
    </linearGradient>
    <clipPath id="complexClip"><polygon points="1345.2,540.0 1334.4,584.8 1394.7,648.9 1422.7,729.1 1301.9,753.6 1166.3,741.0 1066.4,724.2 1009.8,806.5 922.9,738.4 824.9,773.9 788.2,707.4 624.5,749.6 684.6,652.5 558.6,640.5 438.6,602.3 505.6,540.0 508.0,486.0 520.7,430.0 588.6,388.2 702.6,379.2 726.6,312.6 785.8,238.4 911.9,282.7 996.7,343.5 1137.3,233.0 1169.5,335.9 1234.3,368.6 1359.8,376.6 1328.8,447.6 1432.0,483.6"/></clipPath>
    <radialGradient id="leaf0" cx="50%" cy="50%" r="70%">
      <stop offset="0%" stop-color="#FF69B4"/>
      <stop offset="50%" stop-color="#96E6A1"/>
      <stop offset="100%" stop-color="#FF4500"/>
    </radialGradient>
    <radialGradient id="leaf1" cx="50%" cy="50%" r="70%">
      <stop offset="0%" stop-color="#32CD32"/>
      <stop offset="50%" stop-color="#FFD700"/>
      <stop offset="100%" stop-color="#9370DB"/>
    </radialGradient>
    <radialGradient id="leaf2" cx="50%" cy="50%" r="70%">
      <stop offset="0%" stop-color="#7B68EE"/>
      <stop offset="50%" stop-color="#00CED1"/>
      <stop offset="100%" stop-color="#FF1493"/>
    </radialGradient>
    <radialGradient id="leaf3" cx="50%" cy="50%" r="70%">
      <stop offset="0%" stop-color="#DC143C"/>
      <stop offset="50%" stop-color="#FF6B6B"/>
      <stop offset="100%" stop-color="#FF4500"/>
    </radialGradient>
    <radialGradient id="leaf4" cx="50%" cy="50%" r="70%">
      <stop offset="0%" stop-color="#45B7D1"/>
      <stop offset="50%" stop-color="#96E6A1"/>
      <stop offset="100%" stop-color="#00FA9A"/>
    </radialGradient>
    <radialGradient id="leaf5" cx="50%" cy="50%" r="70%">
      <stop offset="0%" stop-color="#FF6B6B"/>
      <stop offset="50%" stop-color="#00CED1"/>
      <stop offset="100%" stop-color="#4ECDC4"/>
    </radialGradient>
    <radialGradient id="leaf6" cx="50%" cy="50%" r="70%">
      <stop offset="0%" stop-color="#00FA9A"/>
      <stop offset="50%" stop-color="#FFD700"/>
      <stop offset="100%" stop-color="#7B68EE"/>
    </radialGradient>
    <radialGradient id="leaf7" cx="50%" cy="50%" r="70%">
      <stop offset="0%" stop-color="#DC143C"/>
      <stop offset="50%" stop-color="#FF4500"/>
      <stop offset="100%" stop-color="#FFE66D"/>
    </radialGradient>
    <radialGradient id="leaf8" cx="50%" cy="50%" r="70%">
      <stop offset="0%" stop-color="#32CD32"/>
      <stop offset="50%" stop-color="#FF6B6B"/>
      <stop offset="100%" stop-color="#FF69B4"/>
    </radialGradient>
    <radialGradient id="leaf9" cx="50%" cy="50%" r="70%">
      <stop offset="0%" stop-color="#FF69B4"/>
      <stop offset="50%" stop-color="#7B68EE"/>
      <stop offset="100%" stop-color="#00FA9A"/>
    </radialGradient>
    <radialGradient id="leaf10" cx="50%" cy="50%" r="70%">
      <stop offset="0%" stop-color="#4ECDC4"/>
      <stop offset="50%" stop-color="#45B7D1"/>
      <stop offset="100%" stop-color="#7B68EE"/>
    </radialGradient>
    <radialGradient id="leaf11" cx="50%" cy="50%" r="70%">
      <stop offset="0%" stop-color="#FFD700"/>
      <stop offset="50%" stop-color="#FF6B6B"/>
      <stop offset="100%" stop-color="#DC143C"/>
    </radialGradient>
    <radialGradient id="leaf12" cx="50%" cy="50%" r="70%">
      <stop offset="0%" stop-color="#FFE66D"/>
      <stop offset="50%" stop-color="#96E6A1"/>
      <stop offset="100%" stop-color="#FF6B6B"/>
    </radialGradient>
    <radialGradient id="leaf13" cx="50%" cy="50%" r="70%">
      <stop offset="0%" stop-color="#FF1493"/>
      <stop offset="50%" stop-color="#9370DB"/>
      <stop offset="100%" stop-color="#00FA9A"/>
    </radialGradient>
    <radialGradient id="leaf14" cx="50%" cy="50%" r="70%">
      <stop offset="0%" stop-color="#4ECDC4"/>
      <stop offset="50%" stop-color="#00CED1"/>
      <stop offset="100%" stop-color="#32CD32"/>
    </radialGradient>
    <radialGradient id="leaf15" cx="50%" cy="50%" r="70%">
      <stop offset="0%" stop-color="#FFD700"/>
      <stop offset="50%" stop-color="#FFE66D"/>
      <stop offset="100%" stop-color="#45B7D1"/>
    </radialGradient>
    <radialGradient id="leaf16" cx="50%" cy="50%" r="70%">
      <stop offset="0%" stop-color="#00FA9A"/>
      <stop offset="50%" stop-color="#FF6B6B"/>
      <stop offset="100%" stop-color="#9370DB"/>
    </radialGradient>
    <radialGradient id="leaf17" cx="50%" cy="50%" r="70%">
      <stop offset="0%" stop-color="#96E6A1"/>
      <stop offset="50%" stop-color="#4ECDC4"/>
      <stop offset="100%" stop-color="#45B7D1"/>
    </radialGradient>
    <radialGradient id="leaf18" cx="50%" cy="50%" r="70%">
      <stop offset="0%" stop-color="#DC143C"/>
      <stop offset="50%" stop-color="#FF69B4"/>
      <stop offset="100%" stop-color="#00FA9A"/>
    </radialGradient>
    <radialGradient id="leaf19" cx="50%" cy="50%" r="70%">
      <stop offset="0%" stop-color="#9370DB"/>
      <stop offset="50%" stop-color="#FFD700"/>
      <stop offset="100%" stop-color="#FFE66D"/>
    </radialGradient>
  </defs>

  <!-- Background -->
  <rect width="1920" height="1080" fill="url(#bgGrad)"/>
  
  <!-- Leaves with clip-path -->
  <g clip-path="url(#complexClip)">
    <path d="M 195.58440629012077,947.5556218475253 C 244.12473332307647,988.0058943749884 260.3048423340617,1044.6362759134367 195.58440629012077,1109.3567119573777 C 130.86397024617986,1044.6362759134367 147.04407925716507,988.0058943749884 195.58440629012077,947.5556218475253 Z" fill="url(#leaf0)" opacity="0.23" transform="rotate(31.2 195.6 1028.5)"/>
    <path d="M 168.8450410494135,544.2642732506893 C 210.45866208752716,578.9422907824506 224.3298691002317,627.4915153269166 168.8450410494135,682.9763433777348 C 113.36021299859533,627.4915153269166 127.23142001129987,578.9422907824506 168.8450410494135,544.2642732506893 Z" fill="url(#leaf1)" opacity="0.31" transform="rotate(144.4 168.8 613.6)"/>
    <path d="M 844.4006830058396,198.88971385038482 C 894.4595433248116,240.6054307828615 911.1458300978022,299.00743448832884 844.4006830058396,365.75258158029146 C 777.655535913877,299.00743448832884 794.3418226868675,240.6054307828615 844.4006830058396,198.88971385038482 Z" fill="url(#leaf2)" opacity="0.27" transform="rotate(340.6 844.4 282.3)"/>
    <path d="M 724.6273396426302,559.2927516753888 C 780.0244656484384,605.4570233468955 798.4901743170411,670.0870036870051 724.6273396426302,743.949838361416 C 650.7645049682193,670.0870036870051 669.230213636822,605.4570233468955 724.6273396426302,559.2927516753888 Z" fill="url(#leaf3)" opacity="0.32" transform="rotate(331.8 724.6 651.6)"/>
    <path d="M 92.06401022890952,438.0469713191056 C 149.08688989486126,485.5660377073987 168.0945164501785,552.092730651009 92.06401022890952,628.123236872278 C 16.03350400764056,552.092730651009 35.0411305629578,485.5660377073987 92.06401022890952,438.0469713191056 Z" fill="url(#leaf4)" opacity="0.27" transform="rotate(141.0 92.1 533.1)"/>
    <path d="M 1592.51132397839,610.4831877896966 C 1633.6893665932785,644.7982233021036 1647.4153807982411,692.8392730194734 1592.51132397839,747.7433298393246 C 1537.607267158539,692.8392730194734 1551.3332813635016,644.7982233021036 1592.51132397839,610.4831877896966 Z" fill="url(#leaf5)" opacity="0.28" transform="rotate(303.5 1592.5 679.1)"/>
    <path d="M 557.8456896722903,48.73644345917958 C 585.9623320142256,72.16697874412567 595.334546128204,104.96972814305019 557.8456896722903,142.45858459896394 C 520.3568332163766,104.96972814305019 529.729047330355,72.16697874412567 557.8456896722903,48.73644345917958 Z" fill="url(#leaf6)" opacity="0.29" transform="rotate(152.0 557.8 95.6)"/>
    <path d="M 1330.520885698891,323.4382061113069 C 1386.0234755715683,369.6903643385379 1404.5243388624606,434.4433858566612 1330.520885698891,508.4468390202308 C 1256.5174325353216,434.4433858566612 1275.018295826214,369.6903643385379 1330.520885698891,323.4382061113069 Z" fill="url(#leaf7)" opacity="0.32" transform="rotate(140.0 1330.5 415.9)"/>
    <path d="M 577.5760527252745,179.67436144907649 C 604.8503688271516,202.40295820064068 613.9418075277772,234.22299365283052 577.5760527252745,270.5887484553332 C 541.2102979227718,234.22299365283052 550.3017366233975,202.40295820064068 577.5760527252745,179.67436144907649 Z" fill="url(#leaf8)" opacity="0.21" transform="rotate(66.9 577.6 225.1)"/>
    <path d="M 1048.3336095797065,206.54752020268103 C 1098.6221299480433,248.45462050962843 1115.3849700708224,307.1245609393548 1048.3336095797065,374.1759214304706 C 981.2822490885907,307.1245609393548 998.0450892113696,248.45462050962843 1048.3336095797065,206.54752020268103 Z" fill="url(#leaf9)" opacity="0.37" transform="rotate(257.3 1048.3 290.4)"/>
    <path d="M 1752.2572094824707,704.6070704251305 C 1803.9169959498427,747.6568924812738 1821.1369247722998,807.9266433598743 1752.2572094824707,876.8063586497036 C 1683.3774941926415,807.9266433598743 1700.5974230150987,747.6568924812738 1752.2572094824707,704.6070704251305 Z" fill="url(#leaf10)" opacity="0.24" transform="rotate(285.1 1752.3 790.7)"/>
    <path d="M 116.31934824506509,105.67166443035174 C 165.69287891610986,146.81627332288906 182.15072247312477,204.41872577244126 116.31934824506509,270.250100000501 C 50.4879740170054,204.41872577244126 66.94581757402031,146.81627332288906 116.31934824506509,105.67166443035174 Z" fill="url(#leaf11)" opacity="0.21" transform="rotate(305.5 116.3 188.0)"/>
    <path d="M 1177.4818741703214,56.683478485889395 C 1228.2840569595396,99.01863081023791 1245.218117889279,158.28784406432584 1177.4818741703214,226.02408778328345 C 1109.7456304513637,158.28784406432584 1126.679691381103,99.01863081023791 1177.4818741703214,56.683478485889395 Z" fill="url(#leaf12)" opacity="0.32" transform="rotate(160.1 1177.5 141.4)"/>
    <path d="M 566.6065266298067,319.80958232927725 C 619.279564056296,363.703780184685 636.8372431984591,425.1556571822559 566.6065266298067,495.38637375090826 C 496.37581006115425,425.1556571822559 513.9334892033174,363.703780184685 566.6065266298067,319.80958232927725 Z" fill="url(#leaf13)" opacity="0.24" transform="rotate(4.9 566.6 407.6)"/>
    <path d="M 1732.0690626080498,774.706010505497 C 1756.893175119124,795.3927709313923 1765.167879289482,824.3542355276455 1732.0690626080498,857.4530522090779 C 1698.9702459266175,824.3542355276455 1707.2449500969756,795.3927709313923 1732.0690626080498,774.706010505497 Z" fill="url(#leaf14)" opacity="0.36" transform="rotate(72.2 1732.1 816.1)"/>
    <path d="M 1210.4840020178374,683.3510504478668 C 1237.4602930338115,705.8312929611785 1246.4523900391362,737.3036324798148 1210.4840020178374,773.2720205011135 C 1174.5156139965386,737.3036324798148 1183.5077110018633,705.8312929611785 1210.4840020178374,683.3510504478668 Z" fill="url(#leaf15)" opacity="0.31" transform="rotate(192.5 1210.5 728.3)"/>
    <path d="M 1025.9714243588487,908.9280124903563 C 1059.1850065215135,936.6059976259103 1070.256200575735,975.3551768156858 1025.9714243588487,1019.6399530325722 C 981.6866481419623,975.3551768156858 992.7578421961839,936.6059976259103 1025.9714243588487,908.9280124903563 Z" fill="url(#leaf16)" opacity="0.28" transform="rotate(63.4 1026.0 964.3)"/>
    <path d="M 1733.4411865559512,405.6919897257741 C 1779.8798950083224,444.3909134360835 1795.3594644924463,498.56940663051665 1733.4411865559512,560.4876845670117 C 1671.522908619456,498.56940663051665 1687.00247810358,444.3909134360835 1733.4411865559512,405.6919897257741 Z" fill="url(#leaf17)" opacity="0.31" transform="rotate(205.6 1733.4 483.1)"/>
    <path d="M 1079.2503287954164,566.4600370718258 C 1114.5869146112552,595.9071919183583 1126.3657765498683,637.1332087035037 1079.2503287954164,684.2486564579556 C 1032.1348810409645,637.1332087035037 1043.9137429795776,595.9071919183583 1079.2503287954164,566.4600370718258 Z" fill="url(#leaf18)" opacity="0.23" transform="rotate(89.5 1079.3 625.4)"/>
    <path d="M 727.979401740177,399.1990556893406 C 783.8387688814364,445.74852830705674 802.4585579285229,510.91778997185946 727.979401740177,585.3969461602053 C 653.5002455518311,510.91778997185946 672.1200345989175,445.74852830705674 727.979401740177,399.1990556893406 Z" fill="url(#leaf19)" opacity="0.28" transform="rotate(51.5 728.0 492.3)"/>
    <path d="M 1621.0243409516074,205.3536006765487 C 1676.5893678138204,251.6577897283928 1695.111043434558,316.48365440097456 1621.0243409516074,390.5703568839251 C 1546.9376384686568,316.48365440097456 1565.4593140893944,251.6577897283928 1621.0243409516074,205.3536006765487 Z" fill="url(#leaf0)" opacity="0.23" transform="rotate(0.5 1621.0 298.0)"/>
    <path d="M 753.752812003154,559.6440537283452 C 810.4329005074845,606.8774608152873 829.3262633422614,673.0042307370064 753.752812003154,748.5776820761139 C 678.1793606640465,673.0042307370064 697.0727234988234,606.8774608152873 753.752812003154,559.6440537283452 Z" fill="url(#leaf1)" opacity="0.35" transform="rotate(170.2 753.8 654.1)"/>
    <path d="M 1681.3245200377185,902.7095387998976 C 1718.7577363924258,933.9038857621538 1731.2354751773285,977.5759715093125 1681.3245200377185,1027.4869266489225 C 1631.4135648981085,977.5759715093125 1643.891303683011,933.9038857621538 1681.3245200377185,902.7095387998976 Z" fill="url(#leaf2)" opacity="0.23" transform="rotate(26.1 1681.3 965.1)"/>
    <path d="M 1282.5722422522629,917.6796076231979 C 1342.1179332999163,967.3010168295757 1361.9664969824676,1036.7709897185048 1282.5722422522629,1116.1652444487092 C 1203.1779875220582,1036.7709897185048 1223.0265512046094,967.3010168295757 1282.5722422522629,917.6796076231979 Z" fill="url(#leaf3)" opacity="0.26" transform="rotate(174.7 1282.6 1016.9)"/>
    <path d="M 1658.6301440825737,751.7466655702547 C 1689.9026427847148,777.8070811553723 1700.3268090187619,814.2916629745371 1658.6301440825737,855.9883279107253 C 1616.9334791463855,814.2916629745371 1627.3576453804326,777.8070811553723 1658.6301440825737,751.7466655702547 Z" fill="url(#leaf4)" opacity="0.28" transform="rotate(247.3 1658.6 803.9)"/>
    <path d="M 1073.7474358268746,19.198726741330773 C 1100.6659046173322,41.63078406671207 1109.6387275474847,73.03566432224588 1073.7474358268746,108.92695604285595 C 1037.8561441062645,73.03566432224588 1046.828967036417,41.63078406671207 1073.7474358268746,19.198726741330773 Z" fill="url(#leaf5)" opacity="0.23" transform="rotate(61.3 1073.7 64.1)"/>
    <path d="M 1734.7516042255586,875.8677672988406 C 1784.233021554152,917.102281739335 1800.7268273303496,974.8306019560272 1734.7516042255586,1040.8058250608183 C 1668.7763811207676,974.8306019560272 1685.2701868969652,917.102281739335 1734.7516042255586,875.8677672988406 Z" fill="url(#leaf6)" opacity="0.24" transform="rotate(235.8 1734.8 958.3)"/>
    <path d="M 1505.9122385490334,834.0469712782384 C 1542.449405975889,864.494610800618 1554.628461784841,907.1213061319496 1505.9122385490334,955.8375293677572 C 1457.1960153132259,907.1213061319496 1469.3750711221778,864.494610800618 1505.9122385490334,834.0469712782384 Z" fill="url(#leaf7)" opacity="0.39" transform="rotate(90.9 1505.9 894.9)"/>
    <path d="M 577.6662588195991,409.2071188116544 C 636.9064924168594,458.5739801427046 656.6532369492794,527.6875860061749 577.6662588195991,606.6745641358553 C 498.6792806899187,527.6875860061749 518.4260252223388,458.5739801427046 577.6662588195991,409.2071188116544 Z" fill="url(#leaf8)" opacity="0.22" transform="rotate(306.8 577.7 507.9)"/>
    <path d="M 1023.7205957809977,531.6220000758768 C 1067.3328060380295,567.9655086234034 1081.8702094570401,618.8464205899406 1023.7205957809977,676.9960342659832 C 965.5709821049551,618.8464205899406 980.1083855239657,567.9655086234034 1023.7205957809977,531.6220000758768 Z" fill="url(#leaf9)" opacity="0.38" transform="rotate(23.3 1023.7 604.3)"/>
    <path d="M 1393.1237966126891,883.5718251057237 C 1423.8198784557196,909.1518933082492 1434.0519057367299,944.9639887917847 1393.1237966126891,985.8920979158254 C 1352.1956874886484,944.9639887917847 1362.4277147696587,909.1518933082492 1393.1237966126891,883.5718251057237 Z" fill="url(#leaf10)" opacity="0.32" transform="rotate(32.7 1393.1 934.7)"/>
    <path d="M 1072.0245668328746,871.7546114881382 C 1126.0940560757324,916.8125191905195 1144.117219156685,979.8935899738536 1072.0245668328746,1051.986242297664 C 999.9319145090643,979.8935899738536 1017.9550775900168,916.8125191905195 1072.0245668328746,871.7546114881382 Z" fill="url(#leaf11)" opacity="0.35" transform="rotate(22.0 1072.0 961.9)"/>
    <path d="M 1398.8987758640494,408.156398432415 C 1456.0839894228902,455.81074306478246 1475.1457272758373,522.5268255500969 1398.8987758640494,598.7737769618848 C 1322.6518244522615,522.5268255500969 1341.7135623052086,455.81074306478246 1398.8987758640494,408.156398432415 Z" fill="url(#leaf12)" opacity="0.24" transform="rotate(303.9 1398.9 503.5)"/>
    <path d="M 151.6351069417243,368.13221379970787 C 180.9246277846272,392.5401478354603 190.68780139892817,426.7112554855137 151.6351069417243,465.76394994271755 C 112.58241248452042,426.7112554855137 122.3455860988214,392.5401478354603 151.6351069417243,368.13221379970787 Z" fill="url(#leaf13)" opacity="0.27" transform="rotate(106.8 151.6 416.9)"/>
    <path d="M 102.87767262482865,625.9712308164845 C 145.0397844945709,661.1063240412698 159.093821784485,710.2954545559691 102.87767262482865,766.5116037156255 C 46.6615234651723,710.2954545559691 60.71556075508639,661.1063240412698 102.87767262482865,625.9712308164845 Z" fill="url(#leaf14)" opacity="0.36" transform="rotate(171.7 102.9 696.2)"/>
    <path d="M 1320.278779426659,320.74327138710424 C 1377.678331444787,368.576231402211 1396.8115154508298,435.54237542336057 1320.278779426659,512.0751114475315 C 1243.746043402488,435.54237542336057 1262.8792274085308,368.576231402211 1320.278779426659,320.74327138710424 Z" fill="url(#leaf15)" opacity="0.34" transform="rotate(200.5 1320.3 416.4)"/>
    <path d="M 1092.7515025883456,90.5355613581169 C 1123.0797973697738,115.80914034264036 1133.1892289635832,151.19215092097323 1092.7515025883456,191.62987729621076 C 1052.313776213108,151.19215092097323 1062.4232078069174,115.80914034264036 1092.7515025883456,90.5355613581169 Z" fill="url(#leaf16)" opacity="0.26" transform="rotate(124.0 1092.8 141.1)"/>
    <path d="M 1201.298110398342,588.0717816842421 C 1253.3734603333319,631.467906630067 1270.731910311662,692.2224815542219 1201.298110398342,761.6562814675417 C 1131.864310485022,692.2224815542219 1149.2227604633522,631.467906630067 1201.298110398342,588.0717816842421 Z" fill="url(#leaf17)" opacity="0.24" transform="rotate(55.6 1201.3 674.9)"/>
    <path d="M 1204.8811590855587,570.241626471783 C 1253.203060408057,610.5098775738649 1269.3103608488898,666.8854291167795 1204.8811590855587,731.3146308801105 C 1140.4519573222276,666.8854291167795 1156.5592577630605,610.5098775738649 1204.8811590855587,570.241626471783 Z" fill="url(#leaf18)" opacity="0.31" transform="rotate(253.8 1204.9 650.8)"/>
    <path d="M 1045.7780401701436,23.296730439206456 C 1083.0282833627948,54.338599766415825 1095.4450310936786,97.79721682450895 1045.7780401701436,147.46420774804392 C 996.1110492466087,97.79721682450895 1008.5277969774924,54.338599766415825 1045.7780401701436,23.296730439206456 Z" fill="url(#leaf19)" opacity="0.33" transform="rotate(75.2 1045.8 85.4)"/>
    <path d="M 695.3473148816969,826.8831257514779 C 753.2504564015525,875.1357436846909 772.5515035748377,942.6894087911891 695.3473148816969,1019.8935974843299 C 618.143126188556,942.6894087911891 637.4441733618413,875.1357436846909 695.3473148816969,826.8831257514779 Z" fill="url(#leaf0)" opacity="0.31" transform="rotate(41.4 695.3 923.4)"/>
    <path d="M 1108.8443421207985,455.4065180606298 C 1134.2300534806604,476.5612775271815 1142.6919572672812,506.1779407803539 1108.8443421207985,540.0255559268365 C 1074.9967269743158,506.1779407803539 1083.4586307609366,476.5612775271815 1108.8443421207985,455.4065180606298 Z" fill="url(#leaf1)" opacity="0.24" transform="rotate(286.2 1108.8 497.7)"/>
    <path d="M 228.619987463252,240.49548570383286 C 263.20165823906945,269.31354468368073 274.7288818310086,309.65882725546777 228.619987463252,355.76772162322436 C 182.5110930954954,309.65882725546777 194.03831668743453,269.31354468368073 228.619987463252,240.49548570383286 Z" fill="url(#leaf2)" opacity="0.24" transform="rotate(132.6 228.6 298.1)"/>
    <path d="M 1694.0411459945299,794.4531292862218 C 1737.7127611823116,830.8461419427067 1752.2699662449056,881.7963596617853 1694.0411459945299,940.0251799121611 C 1635.8123257441541,881.7963596617853 1650.3695308067481,830.8461419427067 1694.0411459945299,794.4531292862218 Z" fill="url(#leaf3)" opacity="0.38" transform="rotate(5.1 1694.0 867.2)"/>
    <path d="M 952.8815481007349,264.90275019719934 C 1011.7693676419492,313.97593314821125 1031.398640822354,382.67838927962794 952.8815481007349,461.195482001247 C 874.3644553791158,382.67838927962794 893.9937285595206,313.97593314821125 952.8815481007349,264.90275019719934 Z" fill="url(#leaf4)" opacity="0.24" transform="rotate(156.5 952.9 363.0)"/>
    <path d="M 853.1949080390218,163.3836942957796 C 909.7524445843775,210.51497475024263 928.6049567661627,276.49876738649084 853.1949080390218,351.9088161136317 C 777.784859311881,276.49876738649084 796.6373714936661,210.51497475024263 853.1949080390218,163.3836942957796 Z" fill="url(#leaf5)" opacity="0.29" transform="rotate(153.7 853.2 257.6)"/>
    <path d="M 1114.454567087176,19.02674635249592 C 1158.833822850373,56.009459488493455 1173.626908104772,107.78525787889001 1114.454567087176,166.95759889648605 C 1055.28222606958,107.78525787889001 1070.075311323979,56.009459488493455 1114.454567087176,19.02674635249592 Z" fill="url(#leaf6)" opacity="0.33" transform="rotate(30.6 1114.5 93.0)"/>
    <path d="M 1348.7499304493695,127.59864875559083 C 1387.6061628766063,159.97884244495486 1400.558240352352,205.31111361006455 1348.7499304493695,257.119423513047 C 1296.941620546387,205.31111361006455 1309.8936980221326,159.97884244495486 1348.7499304493695,127.59864875559083 Z" fill="url(#leaf7)" opacity="0.29" transform="rotate(49.9 1348.7 192.4)"/>
    <path d="M 1658.9676304303532,155.97895483139877 C 1704.225230673546,193.69362170072625 1719.311097421277,246.4941553177847 1658.9676304303532,306.83762230870866 C 1598.6241634394294,246.4941553177847 1613.7100301871603,193.69362170072625 1658.9676304303532,155.97895483139877 Z" fill="url(#leaf8)" opacity="0.33" transform="rotate(89.5 1659.0 231.4)"/>
    <path d="M 1559.1671649553546,332.22891186977677 C 1614.1295099806232,378.03086605750053 1632.4502916557126,442.15360192031386 1559.1671649553546,515.4367286206719 C 1485.8840382549965,442.15360192031386 1504.204819930086,378.03086605750053 1559.1671649553546,332.22891186977677 Z" fill="url(#leaf9)" opacity="0.37" transform="rotate(105.0 1559.2 423.8)"/>
    <path d="M 60.41679214525715,695.7334125879861 C 92.08602339044717,722.1244386256444 102.6424338055105,759.071875078366 60.41679214525715,801.2975167386194 C 18.19115048500379,759.071875078366 28.74756090006713,722.1244386256444 60.41679214525715,695.7334125879861 Z" fill="url(#leaf10)" opacity="0.31" transform="rotate(21.1 60.4 748.5)"/>
    <path d="M 434.6804916614111,262.49506402510815 C 468.2014432911207,290.42919038319945 479.37509383435724,329.53696728452735 434.6804916614111,374.2315694574735 C 389.985889488465,329.53696728452735 401.1595400317015,290.42919038319945 434.6804916614111,262.49506402510815 Z" fill="url(#leaf11)" opacity="0.25" transform="rotate(327.0 434.7 318.4)"/>
    <path d="M 354.47331817263483,461.3871580281517 C 403.67354309378027,502.38734546243955 420.07361806749543,559.7876078704426 354.47331817263483,625.3879077653031 C 288.87301827777424,559.7876078704426 305.2730932514894,502.38734546243955 354.47331817263483,461.3871580281517 Z" fill="url(#leaf12)" opacity="0.30" transform="rotate(2.5 354.5 543.4)"/>
    <path d="M 584.7949938747018,129.5028549020272 C 625.966184958916,163.812180805539 639.6899153203207,211.84523707045548 584.7949938747018,266.74015851607436 C 529.900072429083,211.84523707045548 543.6238027904877,163.812180805539 584.7949938747018,129.5028549020272 Z" fill="url(#leaf13)" opacity="0.25" transform="rotate(235.7 584.8 198.1)"/>
    <path d="M 989.4294868556595,487.3276546072101 C 1026.5386946548563,518.2519944398739 1038.9084305879217,561.5460702056033 989.4294868556595,611.0250139378655 C 939.9505431233973,561.5460702056033 952.3202790564629,518.2519944398739 989.4294868556595,487.3276546072101 Z" fill="url(#leaf14)" opacity="0.38" transform="rotate(185.0 989.4 549.2)"/>
    <path d="M 1558.2014868493247,860.6231662350528 C 1593.7650459162367,890.2594654574793 1605.6195656052073,931.7502843688766 1558.2014868493247,979.168363124759 C 1510.7834080934422,931.7502843688766 1522.6379277824128,890.2594654574793 1558.2014868493247,860.6231662350528 Z" fill="url(#leaf15)" opacity="0.23" transform="rotate(193.8 1558.2 919.9)"/>
    <path d="M 1195.761922543285,24.55329435557603 C 1240.9171988975686,62.182691317479 1255.9689576823298,114.86384706414316 1195.761922543285,175.07088220318792 C 1135.5548874042402,114.86384706414316 1150.6066461890014,62.182691317479 1195.761922543285,24.55329435557603 Z" fill="url(#leaf16)" opacity="0.22" transform="rotate(110.3 1195.8 99.8)"/>
    <path d="M 284.00402559283816,10.274078804155053 C 318.3324366661916,38.88108803194957 329.77524035730937,78.93090095086188 284.00402559283816,124.70211571533311 C 238.23281082836695,78.93090095086188 249.67561451948475,38.88108803194957 284.00402559283816,10.274078804155053 Z" fill="url(#leaf17)" opacity="0.39" transform="rotate(82.6 284.0 67.5)"/>
    <path d="M 1273.544239531621,501.6015826237083 C 1309.342798954048,531.4337154757308 1321.2756520948572,573.1987014685623 1273.544239531621,620.9301140317982 C 1225.812826968385,573.1987014685623 1237.7456801091942,531.4337154757308 1273.544239531621,501.6015826237083 Z" fill="url(#leaf18)" opacity="0.34" transform="rotate(246.9 1273.5 561.3)"/>
    <path d="M 1852.38424849271,805.2329050936819 C 1884.1023347326902,831.6646436269989 1894.675030146017,868.6690775736425 1852.38424849271,910.9598592269497 C 1810.093466839403,868.6690775736425 1820.6661622527297,831.6646436269989 1852.38424849271,805.2329050936819 Z" fill="url(#leaf19)" opacity="0.22" transform="rotate(348.6 1852.4 858.1)"/>
    <path d="M 917.9708950703516,154.84135498806012 C 970.6928573250817,198.77632353366852 988.2668447433251,260.2852794975203 917.9708950703516,330.58122917049377 C 847.6749453973781,260.2852794975203 865.2489328156215,198.77632353366852 917.9708950703516,154.84135498806012 Z" fill="url(#leaf0)" opacity="0.34" transform="rotate(335.7 918.0 242.7)"/>
    <path d="M 1444.474901831322,664.2496665180388 C 1501.273754771496,711.5820439681837 1520.206705751554,777.8473723983866 1444.474901831322,853.5791763186185 C 1368.7430979110902,777.8473723983866 1387.6760488911482,711.5820439681837 1444.474901831322,664.2496665180388 Z" fill="url(#leaf1)" opacity="0.24" transform="rotate(168.4 1444.5 758.9)"/>
    <path d="M 891.5391066348227,307.6764315667342 C 947.9979646387916,354.72547990337495 966.8175839734479,420.594147574672 891.5391066348227,495.87262491329716 C 816.2606292961975,420.594147574672 835.0802486308538,354.72547990337495 891.5391066348227,307.6764315667342 Z" fill="url(#leaf2)" opacity="0.37" transform="rotate(340.4 891.5 401.8)"/>
    <path d="M 1015.1039199572408,419.04838045761187 C 1053.910983470338,451.38760005185947 1066.846671308037,496.6625074838061 1015.1039199572408,548.4052588346023 C 963.3611686064446,496.6625074838061 976.2968564441437,451.38760005185947 1015.1039199572408,419.04838045761187 Z" fill="url(#leaf3)" opacity="0.24" transform="rotate(183.3 1015.1 483.7)"/>
    <path d="M 582.166980183295,131.2433746629892 C 630.6674781985979,171.66045634240828 646.8343108703656,228.24437069359504 582.166980183295,292.9117013806656 C 517.4996494962244,228.24437069359504 533.6664821679921,171.66045634240828 582.166980183295,131.2433746629892 Z" fill="url(#leaf4)" opacity="0.38" transform="rotate(44.9 582.2 212.1)"/>
    <path d="M 636.0552288093037,757.6846544367721 C 661.8029596897534,779.1410968371468 670.3855366499032,809.1801161976715 636.0552288093037,843.510424038271 C 601.7249209687042,809.1801161976715 610.307497928854,779.1410968371468 636.0552288093037,757.6846544367721 Z" fill="url(#leaf5)" opacity="0.24" transform="rotate(284.1 636.1 800.6)"/>
    <path d="M 628.3086539459209,776.2063395605909 C 672.7016807127582,813.2005285329552 687.499356301704,864.9923930942654 628.3086539459209,924.1830954500484 C 569.1179515901379,864.9923930942654 583.9156271790837,813.2005285329552 628.3086539459209,776.2063395605909 Z" fill="url(#leaf6)" opacity="0.34" transform="rotate(131.1 628.3 850.2)"/>
    <path d="M 187.92468172105566,485.250288583757 C 217.87341206712662,510.20756387214954 227.8563221824836,545.147749275899 187.92468172105566,585.0793897373269 C 147.99304125962772,545.147749275899 157.9759513749847,510.20756387214954 187.92468172105566,485.250288583757 Z" fill="url(#leaf7)" opacity="0.31" transform="rotate(238.8 187.9 535.2)"/>
    <path d="M 1826.4118767927937,44.81305575174511 C 1886.1124897975742,94.56356658906215 1906.0126941325009,164.214281761306 1826.4118767927937,243.81509910101326 C 1746.8110594530865,164.214281761306 1766.7112637880132,94.56356658906215 1826.4118767927937,44.81305575174511 Z" fill="url(#leaf8)" opacity="0.30" transform="rotate(218.5 1826.4 144.3)"/>
    <path d="M 83.19266906981463,172.8832077714804 C 108.72408207478901,194.1593852756257 117.23455307644713,223.94603378142915 83.19266906981463,257.9879177880617 C 49.15078506318212,223.94603378142915 57.661256064840245,194.1593852756257 83.19266906981463,172.8832077714804 Z" fill="url(#leaf9)" opacity="0.39" transform="rotate(135.3 83.2 215.4)"/>
    <path d="M 1143.3795430098678,586.6026827792332 C 1200.8833968714398,634.5225609972099 1220.0513481586304,701.6103905023772 1143.3795430098678,778.2821956511398 C 1066.7077378611052,701.6103905023772 1085.8756891482958,634.5225609972099 1143.3795430098678,586.6026827792332 Z" fill="url(#leaf10)" opacity="0.24" transform="rotate(257.1 1143.4 682.4)"/>
    <path d="M 1631.5002508298494,39.052461166267875 C 1662.4931980691633,64.87991719902948 1672.824180482268,101.03835564489574 1631.5002508298494,142.36228529731432 C 1590.1763211774307,101.03835564489574 1600.5073035905355,64.87991719902948 1631.5002508298494,39.052461166267875 Z" fill="url(#leaf11)" opacity="0.37" transform="rotate(310.5 1631.5 90.7)"/>
    <path d="M 1100.5925597204111,597.2755837698065 C 1136.5093741854478,627.2062624906704 1148.4816456737933,669.1092126998797 1100.5925597204111,716.9982986532617 C 1052.703473767029,669.1092126998797 1064.6757452553745,627.2062624906704 1100.5925597204111,597.2755837698065 Z" fill="url(#leaf12)" opacity="0.36" transform="rotate(132.5 1100.6 657.1)"/>
    <path d="M 219.13209001387048,446.9611300619666 C 277.0711574809131,495.24368628450213 296.3841799699273,562.8392649960518 219.13209001387048,640.0913549521086 C 141.88000005781367,562.8392649960518 161.19302254682788,495.24368628450213 219.13209001387048,446.9611300619666 Z" fill="url(#leaf13)" opacity="0.35" transform="rotate(272.7 219.1 543.5)"/>
    <path d="M 1485.6927295595015,396.46308332324486 C 1524.3207096418512,428.653066725203 1537.1967030026344,473.7190434879444 1485.6927295595015,525.2230169310775 C 1434.1887561163685,473.7190434879444 1447.0647494771517,428.653066725203 1485.6927295595015,396.46308332324486 Z" fill="url(#leaf14)" opacity="0.25" transform="rotate(49.3 1485.7 460.8)"/>
    <path d="M 349.9713112182254,-32.26805215934596 C 400.94634879146855,10.211145818356663 417.9380279825496,69.68202298714034 349.9713112182254,137.64873975146455 C 282.00459445390123,69.68202298714034 298.9962736449823,10.211145818356663 349.9713112182254,-32.26805215934596 Z" fill="url(#leaf15)" opacity="0.27" transform="rotate(223.4 350.0 52.7)"/>
    <path d="M 933.8814305701302,338.5237538918238 C 960.9894715509454,361.11378804250313 970.0254852112171,392.7398358534542 933.8814305701302,428.88389049454116 C 897.7373759290433,392.7398358534542 906.773389589315,361.11378804250313 933.8814305701302,338.5237538918238 Z" fill="url(#leaf16)" opacity="0.30" transform="rotate(257.4 933.9 383.7)"/>
    <path d="M 1623.3427157466108,424.45877948323295 C 1680.492770441597,472.08382506238803 1699.5427886732589,538.7588888732053 1623.3427157466108,614.9589617998535 C 1547.1426428199627,538.7588888732053 1566.1926610516246,472.08382506238803 1623.3427157466108,424.45877948323295 Z" fill="url(#leaf17)" opacity="0.33" transform="rotate(336.3 1623.3 519.7)"/>
    <path d="M 257.9287228445969,568.6447738763072 C 311.78828699702467,613.5277440033304 329.7414750478339,676.3639021811628 257.9287228445969,748.1766543843999 C 186.1159706413599,676.3639021811628 204.06915869216914,613.5277440033304 257.9287228445969,568.6447738763072 Z" fill="url(#leaf18)" opacity="0.33" transform="rotate(190.8 257.9 658.4)"/>
    <path d="M 1508.3965749579281,648.9561287142388 C 1565.9650451740338,696.9298538943269 1585.1545352460691,764.0930691464503 1508.3965749579281,840.8510294345912 C 1431.638614669787,764.0930691464503 1450.8281047418225,696.9298538943269 1508.3965749579281,648.9561287142388 Z" fill="url(#leaf19)" opacity="0.30" transform="rotate(113.6 1508.4 744.9)"/>
    <path d="M 865.5853447085987,932.8790470458167 C 917.0524384203981,975.7682918056496 934.2081363243312,1035.8132344694156 865.5853447085987,1104.4360260851481 C 796.9625530928661,1035.8132344694156 814.1182509967992,975.7682918056496 865.5853447085987,932.8790470458167 Z" fill="url(#leaf0)" opacity="0.36" transform="rotate(317.7 865.6 1018.7)"/>
    <path d="M 1431.3889692636385,939.910937978017 C 1482.2274061404673,982.276302042041 1499.173551766077,1041.5878117316747 1431.3889692636385,1109.372394234113 C 1363.6043867612,1041.5878117316747 1380.5505323868097,982.276302042041 1431.3889692636385,939.910937978017 Z" fill="url(#leaf1)" opacity="0.33" transform="rotate(334.8 1431.4 1024.6)"/>
    <path d="M 1626.1154190418279,389.2965576778965 C 1669.8781403527646,425.76549210367705 1684.4657141230769,476.8220002997699 1626.1154190418279,535.1722953810188 C 1567.7651239605789,476.8220002997699 1582.3526977308911,425.76549210367705 1626.1154190418279,389.2965576778965 Z" fill="url(#leaf2)" opacity="0.30" transform="rotate(29.5 1626.1 462.2)"/>
    <path d="M 331.32260121894535,794.8294323985318 C 359.27352326093774,818.1218674335255 368.5904972749352,850.7312764825166 331.32260121894535,887.9991725385065 C 294.0547051629555,850.7312764825166 303.37167917695297,818.1218674335255 331.32260121894535,794.8294323985318 Z" fill="url(#leaf3)" opacity="0.24" transform="rotate(5.6 331.3 841.4)"/>
    <path d="M 739.0362661838632,853.5508971181052 C 766.5488408742431,876.4780426934218 775.7196991043697,908.5760464988651 739.0362661838632,945.2594794193717 C 702.3528332633566,908.5760464988651 711.5236914934833,876.4780426934218 739.0362661838632,853.5508971181052 Z" fill="url(#leaf4)" opacity="0.28" transform="rotate(2.4 739.0 899.4)"/>
    <path d="M 549.1449797568547,945.1338975519966 C 595.2038880790259,983.516321153806 610.5568575197497,1037.251714196339 549.1449797568547,1098.663591959234 C 487.73310199395974,1037.251714196339 503.0860714346835,983.516321153806 549.1449797568547,945.1338975519966 Z" fill="url(#leaf5)" opacity="0.21" transform="rotate(331.5 549.1 1021.9)"/>
    <path d="M 993.6023968413875,382.02571095305314 C 1029.141256233112,411.6414271128236 1040.9875426970202,453.1034297365022 993.6023968413875,500.4885755921349 C 946.2172509857548,453.1034297365022 958.063537449663,411.6414271128236 993.6023968413875,382.02571095305314 Z" fill="url(#leaf6)" opacity="0.21" transform="rotate(30.9 993.6 441.3)"/>
    <path d="M 484.9341381595497,569.4684693941261 C 544.9307214527174,619.4656221384325 564.92958255044,689.4616359804616 484.9341381595497,769.4570803713517 C 404.93869376865945,689.4616359804616 424.937554866382,619.4656221384325 484.9341381595497,569.4684693941261 Z" fill="url(#leaf7)" opacity="0.24" transform="rotate(176.5 484.9 669.5)"/>
    <path d="M 864.1932412337607,85.58939259314282 C 900.6527366255078,115.97230541959883 912.8059017560903,158.50838337663723 864.1932412337607,207.12104389896683 C 815.580580711431,158.50838337663723 827.7337458420135,115.97230541959883 864.1932412337607,85.58939259314282 Z" fill="url(#leaf8)" opacity="0.34" transform="rotate(70.3 864.2 146.4)"/>
    <path d="M 327.8355593187967,66.2783281089994 C 375.9884116091436,106.40570501762181 392.03936237259256,162.58403268969317 327.8355593187967,226.78783574348904 C 263.63175626500083,162.58403268969317 279.6827070284498,106.40570501762181 327.8355593187967,66.2783281089994 Z" fill="url(#leaf9)" opacity="0.38" transform="rotate(154.4 327.8 146.5)"/>
    <path d="M 973.688850649087,180.4306788535647 C 1025.5566304685522,223.65382870311896 1042.8458904083739,284.1662384924949 973.688850649087,353.32327825178174 C 904.5318108898002,284.1662384924949 921.8210708296219,223.65382870311896 973.688850649087,180.4306788535647 Z" fill="url(#leaf10)" opacity="0.21" transform="rotate(94.9 973.7 266.9)"/>
    <path d="M 232.87502150000532,132.34661228983288 C 289.0780422138771,179.18246288472602 307.81238245183437,244.75265371757644 232.87502150000532,319.69001466940546 C 157.93766054817627,244.75265371757644 176.67200078613354,179.18246288472602 232.87502150000532,132.34661228983288 Z" fill="url(#leaf11)" opacity="0.36" transform="rotate(97.2 232.9 226.0)"/>
    <path d="M 1028.7076482807129,413.5094891325565 C 1084.8072214085223,460.259133405731 1103.507079117792,525.7086353881753 1028.7076482807129,600.5080662252544 C 953.9082174436337,525.7086353881753 972.6080751529036,460.259133405731 1028.7076482807129,413.5094891325565 Z" fill="url(#leaf12)" opacity="0.29" transform="rotate(42.3 1028.7 507.0)"/>
    <path d="M 1126.589445206503,63.730537561399565 C 1151.1308883060206,84.18174014433102 1159.311369339193,112.81342376043506 1126.589445206503,145.5353478931254 C 1093.8675210738127,112.81342376043506 1102.0480021069852,84.18174014433102 1126.589445206503,63.730537561399565 Z" fill="url(#leaf13)" opacity="0.39" transform="rotate(176.1 1126.6 104.6)"/>
    <path d="M 912.0101469493853,641.2125847531561 C 962.9092698744945,683.6285205240804 979.8756441828642,743.0108306033744 912.0101469493853,810.8763278368533 C 844.1446497159064,743.0108306033744 861.1110240242762,683.6285205240804 912.0101469493853,641.2125847531561 Z" fill="url(#leaf14)" opacity="0.36" transform="rotate(262.6 912.0 726.0)"/>
    <path d="M 809.2634010894525,553.1081937507901 C 839.5103971587678,578.3140238085527 849.5927291818729,613.6021858894206 809.2634010894525,653.931513981841 C 768.9340729970321,613.6021858894206 779.0164050201372,578.3140238085527 809.2634010894525,553.1081937507901 Z" fill="url(#leaf15)" opacity="0.31" transform="rotate(130.7 809.3 603.5)"/>
    <path d="M 1182.8281941581254,451.5057694675213 C 1219.9360680262193,482.42899769093293 1232.305359315584,525.7215172037093 1182.8281941581254,575.1986823611678 C 1133.3510290006668,525.7215172037093 1145.7203202900314,482.42899769093293 1182.8281941581254,451.5057694675213 Z" fill="url(#leaf16)" opacity="0.28" transform="rotate(285.6 1182.8 513.4)"/>
    <path d="M 1659.3229414590844,441.0428860626609 C 1701.9335886968934,476.55175876083507 1716.1371377761632,526.264180538279 1659.3229414590844,583.0783768553578 C 1602.5087451420056,526.264180538279 1616.7122942212754,476.55175876083507 1659.3229414590844,441.0428860626609 Z" fill="url(#leaf17)" opacity="0.36" transform="rotate(218.6 1659.3 512.1)"/>
    <path d="M 867.4247102922479,402.2716075610413 C 896.0380522763425,426.11605921445346 905.5758329377073,459.49829152923047 867.4247102922479,497.64941417468987 C 829.2735876467885,459.49829152923047 838.8113683081534,426.11605921445346 867.4247102922479,402.2716075610413 Z" fill="url(#leaf18)" opacity="0.40" transform="rotate(209.1 867.4 450.0)"/>
    <path d="M 501.4300038092992,554.0273351531457 C 540.4127935932512,586.512993306439 553.4070568545685,631.9929147210496 501.4300038092992,683.9699677663189 C 449.45295076402994,631.9929147210496 462.44721402534725,586.512993306439 501.4300038092992,554.0273351531457 Z" fill="url(#leaf19)" opacity="0.21" transform="rotate(267.4 501.4 619.0)"/>
    <path d="M 1546.6345788767808,840.2730333028823 C 1588.0816521972665,874.8122610699537 1601.897343304095,923.1671799438537 1546.6345788767808,978.4299443711681 C 1491.3718144494665,923.1671799438537 1505.187505556295,874.8122610699537 1546.6345788767808,840.2730333028823 Z" fill="url(#leaf0)" opacity="0.21" transform="rotate(303.1 1546.6 909.4)"/>
    <path d="M 244.30671118506768,438.1913765606078 C 292.56624925611203,478.4076582864781 308.65276194646015,534.7104527026964 244.30671118506768,599.0565034640889 C 179.96066042367522,534.7104527026964 196.04717311402334,478.4076582864781 244.30671118506768,438.1913765606078 Z" fill="url(#leaf1)" opacity="0.22" transform="rotate(55.6 244.3 518.6)"/>
    <path d="M 1736.9402312405261,291.3656703846182 C 1765.82469439901,315.4360563500215 1775.4528487851715,349.1345967015861 1736.9402312405261,387.6472142462313 C 1698.4276136958808,349.1345967015861 1708.0557680820423,315.4360563500215 1736.9402312405261,291.3656703846182 Z" fill="url(#leaf2)" opacity="0.26" transform="rotate(68.6 1736.9 339.5)"/>
    <path d="M 1428.2920157137576,955.508545640387 C 1466.1882824820877,987.0887679473287 1478.8203714048643,1031.3010791770473 1428.2920157137576,1081.829434868154 C 1377.7636600226508,1031.3010791770473 1390.3957489454274,987.0887679473287 1428.2920157137576,955.508545640387 Z" fill="url(#leaf3)" opacity="0.38" transform="rotate(151.4 1428.3 1018.7)"/>
    <path d="M 447.9013529855193,316.1246636062605 C 482.9593834503701,345.33968899363623 494.6453936053204,386.2407245359622 447.9013529855193,432.98476515576334 C 401.15731236571816,386.2407245359622 412.84332252066844,345.33968899363623 447.9013529855193,316.1246636062605 Z" fill="url(#leaf4)" opacity="0.29" transform="rotate(237.5 447.9 374.6)"/>
    <path d="M 1578.2624251657812,837.6631790037077 C 1611.799850838103,865.6110337306426 1622.978992728877,904.7380303483516 1578.2624251657812,949.4545979114475 C 1533.5458576026854,904.7380303483516 1544.7249994934593,865.6110337306426 1578.2624251657812,837.6631790037077 Z" fill="url(#leaf5)" opacity="0.36" transform="rotate(105.1 1578.3 893.6)"/>
    <path d="M 1524.3892620185225,450.09118232714724 C 1564.7574090277667,483.7313048348509 1578.2134580308482,530.827476345636 1524.3892620185225,584.6516723579617 C 1470.5650660061967,530.827476345636 1484.0211150092782,483.7313048348509 1524.3892620185225,450.09118232714724 Z" fill="url(#leaf6)" opacity="0.22" transform="rotate(138.9 1524.4 517.4)"/>
    <path d="M 1258.6884774338944,23.322252567774257 C 1285.6118696411215,45.7584127404635 1294.586333710197,77.16903698222843 1258.6884774338944,113.06689325853122 C 1222.7906211575917,77.16903698222843 1231.7650852266672,45.7584127404635 1258.6884774338944,23.322252567774257 Z" fill="url(#leaf7)" opacity="0.34" transform="rotate(228.5 1258.7 68.2)"/>
    <path d="M 932.1013746530105,485.783381226625 C 970.5333257336514,517.8100071271592 983.3439760938651,562.647283387907 932.1013746530105,613.8898848287616 C 880.8587732121558,562.647283387907 893.6694235723695,517.8100071271592 932.1013746530105,485.783381226625 Z" fill="url(#leaf8)" opacity="0.38" transform="rotate(137.0 932.1 549.8)"/>
    <path d="M 578.5523066698426,863.6685340067501 C 626.2943945639389,903.4536072518304 642.208423861971,959.1527097949428 578.5523066698426,1022.8088269870713 C 514.8961894777141,959.1527097949428 530.8102187757462,903.4536072518304 578.5523066698426,863.6685340067501 Z" fill="url(#leaf9)" opacity="0.40" transform="rotate(359.2 578.6 943.2)"/>
    <path d="M 176.78225819047998,485.6081779169222 C 218.80552788739868,520.6275693310212 232.81328445303825,569.6547173107597 176.78225819047998,625.685743573318 C 120.75123192792171,569.6547173107597 134.75898849356128,520.6275693310212 176.78225819047998,485.6081779169222 Z" fill="url(#leaf10)" opacity="0.24" transform="rotate(53.9 176.8 555.6)"/>
    <path d="M 877.1904364115155,652.8468212093759 C 924.4852813996869,692.259192032852 940.2502297290772,747.4365111857185 877.1904364115155,810.4963045032802 C 814.1306430939538,747.4365111857185 829.8955914233442,692.259192032852 877.1904364115155,652.8468212093759 Z" fill="url(#leaf11)" opacity="0.24" transform="rotate(55.6 877.2 731.7)"/>
    <path d="M 476.0609113159417,705.5219936243202 C 514.836952137373,737.8353609755129 527.7622990778501,783.0740752671827 476.0609113159417,834.775463029091 C 424.3595235540334,783.0740752671827 437.28487049451047,737.8353609755129 476.0609113159417,705.5219936243202 Z" fill="url(#leaf12)" opacity="0.30" transform="rotate(161.6 476.1 770.1)"/>
    <path d="M 272.7967969259046,846.3332101100029 C 299.7521805115663,868.7960297647211 308.7373083734535,900.2439772813264 272.7967969259046,936.1844887288753 C 236.85628547835566,900.2439772813264 245.8414133402429,868.7960297647211 272.7967969259046,846.3332101100029 Z" fill="url(#leaf13)" opacity="0.26" transform="rotate(153.4 272.8 891.3)"/>
    <path d="M 560.8833787171282,81.31981676098192 C 597.8624203148613,112.13568475909285 610.1887675141056,155.27789995644815 560.8833787171282,204.58328875342565 C 511.5779899201507,155.27789995644815 523.904337119395,112.13568475909285 560.8833787171282,81.31981676098192 Z" fill="url(#leaf14)" opacity="0.28" transform="rotate(82.4 560.9 143.0)"/>
    <path d="M 962.3573513328399,261.0475600678078 C 997.1530000617062,290.0439340085297 1008.7515496379949,330.63885752554023 962.3573513328399,377.03305583069516 C 915.9631530276849,330.63885752554023 927.5617026039737,290.0439340085297 962.3573513328399,261.0475600678078 Z" fill="url(#leaf15)" opacity="0.32" transform="rotate(230.0 962.4 319.0)"/>
    <path d="M 482.465553603472,310.3777350921011 C 525.3814753915502,346.14100324883293 539.686782654243,396.2095786682575 482.465553603472,453.43080771902845 C 425.2443245527011,396.2095786682575 439.5496318153938,346.14100324883293 482.465553603472,310.3777350921011 Z" fill="url(#leaf16)" opacity="0.38" transform="rotate(246.3 482.5 381.9)"/>
    <path d="M 1629.2071378733017,335.320355985248 C 1682.291268868847,379.55713181486914 1699.9859792006955,441.48861797633873 1629.2071378733017,512.2674593037325 C 1558.4282965459079,441.48861797633873 1576.1230068777563,379.55713181486914 1629.2071378733017,335.320355985248 Z" fill="url(#leaf17)" opacity="0.32" transform="rotate(106.4 1629.2 423.8)"/>
    <path d="M 337.05987794255435,593.752256072202 C 379.74602397237925,629.3240444303894 393.9747393156542,679.1245481318518 337.05987794255435,736.0394095049517 C 280.1450165694545,679.1245481318518 294.37373191272945,629.3240444303894 337.05987794255435,593.752256072202 Z" fill="url(#leaf18)" opacity="0.36" transform="rotate(83.1 337.1 664.9)"/>
    <path d="M 251.10780697938785,432.82739750932683 C 310.5378382391017,482.3524235590884 330.34784865900633,551.6874600287546 251.10780697938785,630.927501708373 C 171.86776529976933,551.6874600287546 191.67777571967397,482.3524235590884 251.10780697938785,432.82739750932683 Z" fill="url(#leaf19)" opacity="0.27" transform="rotate(64.9 251.1 531.9)"/>
    <path d="M 1027.2824740837268,255.18569651805743 C 1080.7257724175777,299.7217784629332 1098.540205195528,362.07229318575924 1027.2824740837268,433.3300242975605 C 956.0247429719255,362.07229318575924 973.839175749876,299.7217784629332 1027.2824740837268,255.18569651805743 Z" fill="url(#leaf0)" opacity="0.38" transform="rotate(41.4 1027.3 344.3)"/>
    <path d="M 619.3929731667577,923.6074210454095 C 655.7424338171155,953.8986382540411 667.8589207005681,996.3063423461252 619.3929731667577,1044.7722898799357 C 570.9270256329472,996.3063423461252 583.0435125163998,953.8986382540411 619.3929731667577,923.6074210454095 Z" fill="url(#leaf1)" opacity="0.24" transform="rotate(179.4 619.4 984.2)"/>
    <path d="M 231.48022629585984,780.9849794586121 C 265.9318370060273,809.6946550504183 277.41570724274976,849.888200878947 231.48022629585984,895.823681825837 C 185.5447453489699,849.888200878947 197.0286155856924,809.6946550504183 231.48022629585984,780.9849794586121 Z" fill="url(#leaf2)" opacity="0.22" transform="rotate(284.7 231.5 838.4)"/>
    <path d="M 1511.8468369903476,72.8877329444994 C 1541.54488830979,97.63610904403461 1551.444238749604,132.2838355833839 1511.8468369903476,171.88123734264025 C 1472.2494352310912,132.2838355833839 1482.1487856709052,97.63610904403461 1511.8468369903476,72.8877329444994 Z" fill="url(#leaf3)" opacity="0.40" transform="rotate(287.7 1511.8 122.4)"/>
    <path d="M 463.9906701512649,101.99401158791734 C 519.1001114421135,147.91854599695787 537.4699252057297,212.2128941696146 463.9906701512649,285.69214922407946 C 390.5114150968001,212.2128941696146 408.8812288604163,147.91854599695787 463.9906701512649,101.99401158791734 Z" fill="url(#leaf4)" opacity="0.23" transform="rotate(205.4 464.0 193.8)"/>
    <path d="M 1207.4280859475275,851.3988524019003 C 1251.8022130412487,888.377291646668 1266.5935887391558,940.1471065893429 1207.4280859475275,999.3126093809713 C 1148.2625831558992,940.1471065893429 1163.0539588538063,888.377291646668 1207.4280859475275,851.3988524019003 Z" fill="url(#leaf5)" opacity="0.25" transform="rotate(51.1 1207.4 925.4)"/>
    <path d="M 893.3292936431602,301.9809956175816 C 944.6660175702876,344.76159889018777 961.7782588793301,404.65444347183643 893.3292936431602,473.1034087080063 C 824.8803284069903,404.65444347183643 841.9925697160328,344.76159889018777 893.3292936431602,301.9809956175816 Z" fill="url(#leaf6)" opacity="0.23" transform="rotate(4.5 893.3 387.5)"/>
    <path d="M 563.7259367970983,215.39361337608028 C 599.4885885726935,245.19582318907632 611.4094724978919,286.9189169272708 563.7259367970983,334.60245262806444 C 516.0424010963046,286.9189169272708 527.963285021503,245.19582318907632 563.7259367970983,215.39361337608028 Z" fill="url(#leaf7)" opacity="0.25" transform="rotate(203.6 563.7 275.0)"/>
    <path d="M 1481.089871438016,565.4061169161401 C 1520.5244895984579,598.2682987165083 1533.669362318605,644.2753532370238 1481.089871438016,696.8548441176127 C 1428.510380557427,644.2753532370238 1441.655253277574,598.2682987165083 1481.089871438016,565.4061169161401 Z" fill="url(#leaf8)" opacity="0.24" transform="rotate(322.2 1481.1 631.1)"/>
    <path d="M 970.7910128661867,-22.603492793818063 C 1027.351636259849,24.530360034233972 1046.20517739107,90.51775399350683 970.7910128661867,165.9319185183901 C 895.3768483413035,90.51775399350683 914.2303894725243,24.530360034233972 970.7910128661867,-22.603492793818063 Z" fill="url(#leaf9)" opacity="0.22" transform="rotate(355.3 970.8 71.7)"/>
    <path d="M 251.91329582676573,66.79442527836589 C 282.757425402197,92.49786659122529 293.0388019273407,128.4826844292284 251.91329582676573,169.60819052980344 C 210.7877897261907,128.4826844292284 221.06916625133448,92.49786659122529 251.91329582676573,66.79442527836589 Z" fill="url(#leaf10)" opacity="0.21" transform="rotate(133.3 251.9 118.2)"/>
    <path d="M 847.2682450684542,748.969968286132 C 881.8630363386621,777.7989610113053 893.3946334287314,818.1595508265478 847.2682450684542,864.285939186825 C 801.1418567081771,818.1595508265478 812.6734537982463,777.7989610113053 847.2682450684542,748.969968286132 Z" fill="url(#leaf11)" opacity="0.39" transform="rotate(220.0 847.3 806.6)"/>
    <path d="M 363.19472753445586,62.61395105175595 C 413.4587858050193,104.50066627722549 430.21347189520714,163.14206759288285 363.19472753445586,230.16081195363412 C 296.1759831737046,163.14206759288285 312.9306692638924,104.50066627722549 363.19472753445586,62.61395105175595 Z" fill="url(#leaf12)" opacity="0.35" transform="rotate(191.0 363.2 146.4)"/>
    <path d="M 1856.3062366008066,909.8923292247715 C 1908.0445746078683,953.0076108973228 1925.2906872768888,1013.3690052388948 1856.3062366008066,1082.353455914977 C 1787.3217859247245,1013.3690052388948 1804.567898593745,953.0076108973228 1856.3062366008066,909.8923292247715 Z" fill="url(#leaf13)" opacity="0.23" transform="rotate(318.2 1856.3 996.1)"/>
    <path d="M 66.42211680847831,360.4199682037311 C 105.16053733794543,392.7019853116204 118.07334418110113,437.89680926266533 66.42211680847831,489.54803663528816 C 14.77088943585548,437.89680926266533 27.683696279011187,392.7019853116204 66.42211680847831,360.4199682037311 Z" fill="url(#leaf14)" opacity="0.24" transform="rotate(185.7 66.4 425.0)"/>
    <path d="M 1316.7658200428334,55.25996518982291 C 1365.981741820744,96.27323333808167 1382.3870490800475,153.69180874564393 1316.7658200428334,219.31303778285795 C 1251.1445910056193,153.69180874564393 1267.5498982649228,96.27323333808167 1316.7658200428334,55.25996518982291 Z" fill="url(#leaf15)" opacity="0.39" transform="rotate(201.3 1316.8 137.3)"/>
    <path d="M 114.70931621765449,251.1144419884704 C 147.60358254122087,278.5263305914424 158.56833798240967,316.9029746356032 114.70931621765449,360.7619964003584 C 70.8502944528993,316.9029746356032 81.8150498940881,278.5263305914424 114.70931621765449,251.1144419884704 Z" fill="url(#leaf16)" opacity="0.37" transform="rotate(132.3 114.7 305.9)"/>
    <path d="M 1537.191409027669,240.4168286157021 C 1585.3449298744001,280.54476265464484 1601.3961034899773,336.7238703091647 1537.191409027669,400.928564771473 C 1472.9867145653604,336.7238703091647 1489.0378881809377,280.54476265464484 1537.191409027669,240.4168286157021 Z" fill="url(#leaf17)" opacity="0.24" transform="rotate(21.8 1537.2 320.7)"/>
    <path d="M 1260.2698629591305,506.91005434179226 C 1306.9260788520878,545.79023425259 1322.478150816407,600.2224861277069 1260.2698629591305,662.4307739849834 C 1198.061575101854,600.2224861277069 1213.6136470661731,545.79023425259 1260.2698629591305,506.91005434179226 Z" fill="url(#leaf18)" opacity="0.24" transform="rotate(107.5 1260.3 584.7)"/>
    <path d="M 372.93647065671706,357.4568895132718 C 403.80992462688766,383.1847678217473 414.1010759502779,419.203797453613 372.93647065671706,460.36840274717383 C 331.7718653631562,419.203797453613 342.06301668654646,383.1847678217473 372.93647065671706,357.4568895132718 Z" fill="url(#leaf19)" opacity="0.37" transform="rotate(55.1 372.9 408.9)"/>
    <path d="M 1529.7250310870334,962.3507684385124 C 1568.099901783673,994.3298273523789 1580.8915253492196,1039.100509831792 1529.7250310870334,1090.2670040939781 C 1478.5585368248471,1039.100509831792 1491.3501603903937,994.3298273523789 1529.7250310870334,962.3507684385124 Z" fill="url(#leaf0)" opacity="0.38" transform="rotate(315.4 1529.7 1026.3)"/>
    <path d="M 1630.0231563671066,841.7593840932974 C 1687.790341769359,889.8987052618412 1707.0460702367766,957.2937548978024 1630.0231563671066,1034.3166687674723 C 1553.0002424974366,957.2937548978024 1572.2559709648542,889.8987052618412 1630.0231563671066,841.7593840932974 Z" fill="url(#leaf1)" opacity="0.40" transform="rotate(147.2 1630.0 938.0)"/>
    <path d="M 706.3256517177185,695.6367133942294 C 763.9773730343293,743.6798144914052 783.1946134731996,810.940156027451 706.3256517177185,887.8091177829322 C 629.4566899622374,810.940156027451 648.6739304011078,743.6798144914052 706.3256517177185,695.6367133942294 Z" fill="url(#leaf2)" opacity="0.26" transform="rotate(68.1 706.3 791.7)"/>
    <path d="M 1332.3510755779232,644.471250538171 C 1377.8123846238868,682.3556747431406 1392.9661543058746,735.3938686300983 1332.3510755779232,796.0089473580497 C 1271.7359968499718,735.3938686300983 1286.8897665319596,682.3556747431406 1332.3510755779232,644.471250538171 Z" fill="url(#leaf3)" opacity="0.23" transform="rotate(329.3 1332.4 720.2)"/>
    <path d="M 310.60291302237727,871.8970585636582 C 345.9735422463791,901.372582916993 357.763751987713,942.6383170116618 310.60291302237727,989.7991559769976 C 263.4420740570415,942.6383170116618 275.2322837983754,901.372582916993 310.60291302237727,871.8970585636582 Z" fill="url(#leaf4)" opacity="0.33" transform="rotate(47.2 310.6 930.8)"/>
    <path d="M 499.5613537269783,294.4029615935615 C 536.028907389284,324.79258964548285 548.1847586100525,367.3380689181728 499.5613537269783,415.96147380124694 C 450.9379488439041,367.3380689181728 463.0938000646727,324.79258964548285 499.5613537269783,294.4029615935615 Z" fill="url(#leaf5)" opacity="0.36" transform="rotate(211.5 499.6 355.2)"/>
    <path d="M 1113.4400538198754,480.52265245491617 C 1167.0959737841158,525.2359190917831 1184.9812804388625,587.834492383397 1113.4400538198754,659.3757190023841 C 1041.8988272008883,587.834492383397 1059.784133855635,525.2359190917831 1113.4400538198754,480.52265245491617 Z" fill="url(#leaf6)" opacity="0.26" transform="rotate(175.9 1113.4 569.9)"/>
    <path d="M 194.2459813248695,425.4114661560111 C 242.79819284368932,465.8716424216943 258.9822633499626,522.5158891936508 194.2459813248695,587.2521712187438 C 129.5096992997764,522.5158891936508 145.69376980604966,465.8716424216943 194.2459813248695,425.4114661560111 Z" fill="url(#leaf7)" opacity="0.39" transform="rotate(42.0 194.2 506.3)"/>
    <path d="M 772.8926205853481,899.4986391488153 C 800.157614317877,922.219467259256 809.2459455620533,954.028626613873 772.8926205853481,990.3819515905782 C 736.539295608643,954.028626613873 745.6276268528193,922.219467259256 772.8926205853481,899.4986391488153 Z" fill="url(#leaf8)" opacity="0.39" transform="rotate(166.5 772.9 944.9)"/>
    <path d="M 322.79219073768337,663.44440072464 C 349.2562989783637,685.4978242585403 358.07766839192385,716.3726172060007 322.79219073768337,751.6580948602411 C 287.5067130834429,716.3726172060007 296.32808249700304,685.4978242585403 322.79219073768337,663.44440072464 Z" fill="url(#leaf9)" opacity="0.28" transform="rotate(36.7 322.8 707.6)"/>
    <path d="M 1450.1323396902214,385.13033336968203 C 1496.6510861326537,423.89595540504234 1512.157334946798,478.16782625454675 1450.1323396902214,540.1928215111233 C 1388.1073444336448,478.16782625454675 1403.6135932477891,423.89595540504234 1450.1323396902214,385.13033336968203 Z" fill="url(#leaf10)" opacity="0.39" transform="rotate(213.8 1450.1 462.7)"/>
    <path d="M 1062.5665089126328,832.3421525700578 C 1091.3381460410724,856.3185168437575 1100.9286917505524,889.8854268269371 1062.5665089126328,928.2476096648566 C 1024.2043260747132,889.8854268269371 1033.7948717841932,856.3185168437575 1062.5665089126328,832.3421525700578 Z" fill="url(#leaf11)" opacity="0.20" transform="rotate(213.2 1062.6 880.3)"/>
    <path d="M 312.0834801571222,674.42291776056 C 354.6538529205398,709.8982283967413 368.8439771750123,759.5636632873951 312.0834801571222,816.3241603052852 C 255.32298313923212,759.5636632873951 269.5131073937046,709.8982283967413 312.0834801571222,674.42291776056 Z" fill="url(#leaf12)" opacity="0.28" transform="rotate(247.7 312.1 745.4)"/>
    <path d="M 1688.2757229815816,583.7117716526775 C 1717.1142155251737,607.7438487723375 1726.7270463730376,641.3887567398617 1688.2757229815816,679.8400801313178 C 1649.8243995901255,641.3887567398617 1659.4372304379895,607.7438487723375 1688.2757229815816,583.7117716526775 Z" fill="url(#leaf13)" opacity="0.20" transform="rotate(343.6 1688.3 631.8)"/>
    <path d="M 835.2790457812796,627.3461939825636 C 885.3327063273396,669.057577770947 902.017259842693,727.4535150746838 835.2790457812796,794.1917291360971 C 768.5408317198662,727.4535150746838 785.2253852352196,669.057577770947 835.2790457812796,627.3461939825636 Z" fill="url(#leaf14)" opacity="0.23" transform="rotate(244.4 835.3 710.8)"/>
    <path d="M 1082.1377262601036,691.1818297242829 C 1132.295917287887,732.9803222474359 1149.0153142971483,791.4982117798498 1082.1377262601036,858.3757998168945 C 1015.260138223059,791.4982117798498 1031.9795352323201,732.9803222474359 1082.1377262601036,691.1818297242829 Z" fill="url(#leaf15)" opacity="0.26" transform="rotate(39.2 1082.1 774.8)"/>
    <path d="M 431.5375659811548,825.1793148562552 C 474.8472810159457,861.2707440519144 489.2838526942094,911.7987449258372 431.5375659811548,969.5450316388918 C 373.7912792681002,911.7987449258372 388.22785094636384,861.2707440519144 431.5375659811548,825.1793148562552 Z" fill="url(#leaf16)" opacity="0.26" transform="rotate(33.6 431.5 897.4)"/>
    <path d="M 1601.4923559525191,553.091304546544 C 1654.1393630502744,596.9638104613402 1671.688365416193,658.3853187420548 1601.4923559525191,728.5813282057286 C 1531.2963464888453,658.3853187420548 1548.8453488547639,596.9638104613402 1601.4923559525191,553.091304546544 Z" fill="url(#leaf17)" opacity="0.26" transform="rotate(146.2 1601.5 640.8)"/>
    <path d="M 633.7359849515119,399.80346316592835 C 693.0272039541208,449.21281233476907 712.790943621657,518.385901171146 633.7359849515119,597.4408598412911 C 554.6810262813668,518.385901171146 574.4447659489031,449.21281233476907 633.7359849515119,399.80346316592835 Z" fill="url(#leaf18)" opacity="0.32" transform="rotate(203.2 633.7 498.6)"/>
    <path d="M 1335.193090457355,532.3118689559523 C 1388.214600659632,576.4964607911829 1405.8884373937242,638.3548893605058 1335.193090457355,709.0502362968749 C 1264.497743520986,638.3548893605058 1282.1715802550782,576.4964607911829 1335.193090457355,532.3118689559523 Z" fill="url(#leaf19)" opacity="0.35" transform="rotate(342.1 1335.2 620.7)"/>
    <path d="M 1309.085789795968,903.9555824752573 C 1337.0730270403374,927.2782801788985 1346.4021061217938,959.9300569639962 1309.085789795968,997.2463732898221 C 1271.769473470142,959.9300569639962 1281.0985525515985,927.2782801788985 1309.085789795968,903.9555824752573 Z" fill="url(#leaf0)" opacity="0.21" transform="rotate(18.3 1309.1 950.6)"/>
    <path d="M 824.0481847983098,617.3967111839803 C 874.9339735263227,659.8015351239911 891.8959031023271,719.1682886400063 824.0481847983098,787.0160069440236 C 756.2004664942924,719.1682886400063 773.1623960702968,659.8015351239911 824.0481847983098,617.3967111839803 Z" fill="url(#leaf1)" opacity="0.30" transform="rotate(74.9 824.0 702.2)"/>
    <path d="M 663.7436942057765,822.5596489110526 C 707.3703275620849,858.9151767079762 721.9125386808543,909.8129156236694 663.7436942057765,967.9817600987471 C 605.5748497306987,909.8129156236694 620.1170608494681,858.9151767079762 663.7436942057765,822.5596489110526 Z" fill="url(#leaf2)" opacity="0.27" transform="rotate(275.5 663.7 895.3)"/>
    <path d="M 676.2909619146111,778.2147368361611 C 716.5104252504666,811.7309562827073 729.916913029085,858.653663507872 676.2909619146111,912.2796146223459 C 622.6650108001372,858.653663507872 636.0714985787556,811.7309562827073 676.2909619146111,778.2147368361611 Z" fill="url(#leaf3)" opacity="0.36" transform="rotate(112.7 676.3 845.2)"/>
    <path d="M 1405.0112537402854,587.7261080536367 C 1462.8887517282674,635.9573563769551 1482.1812510575949,703.4811040296008 1405.0112537402854,780.6511013469102 C 1327.841256422976,703.4811040296008 1347.1337557523034,635.9573563769551 1405.0112537402854,587.7261080536367 Z" fill="url(#leaf4)" opacity="0.32" transform="rotate(61.1 1405.0 684.2)"/>
    <path d="M 1305.1568407746272,640.6893367448351 C 1351.3674941779686,679.1982145809532 1366.771045312416,733.1106435515183 1305.1568407746272,794.724848089307 C 1243.5426362368385,733.1106435515183 1258.9461873712858,679.1982145809532 1305.1568407746272,640.6893367448351 Z" fill="url(#leaf5)" opacity="0.21" transform="rotate(202.5 1305.2 717.7)"/>
    <path d="M 1295.1213275354157,52.17664745962878 C 1342.6067571896872,91.74783883818827 1358.435233741111,147.14750676817155 1295.1213275354157,210.46141297386674 C 1231.8074213297205,147.14750676817155 1247.6358978811443,91.74783883818827 1295.1213275354157,52.17664745962878 Z" fill="url(#leaf6)" opacity="0.27" transform="rotate(214.2 1295.1 131.3)"/>
    <path d="M 1241.8922947855665,137.97143464989438 C 1291.7216766378936,179.49591952683357 1308.3314705886692,237.6301983545484 1241.8922947855665,304.0693741576511 C 1175.4531189824638,237.6301983545484 1192.0629129332394,179.49591952683357 1241.8922947855665,137.97143464989438 Z" fill="url(#leaf7)" opacity="0.21" transform="rotate(67.8 1241.9 221.0)"/>
    <path d="M 595.5473473180023,472.13655777332986 C 644.0553825556182,512.5599204713432 660.2247276348235,569.1526282485617 595.5473473180023,633.8300085653829 C 530.8699670011811,569.1526282485617 547.0393120803864,512.5599204713432 595.5473473180023,472.13655777332986 Z" fill="url(#leaf8)" opacity="0.26" transform="rotate(143.2 595.5 553.0)"/>
    <path d="M 433.00257583023705,434.95057150596483 C 475.47259562457623,470.3422546679141 489.6292688893559,519.8906110946431 433.00257583023705,576.517304153762 C 376.3758827711182,519.8906110946431 390.53255603589787,470.3422546679141 433.00257583023705,434.95057150596483 Z" fill="url(#leaf9)" opacity="0.34" transform="rotate(97.3 433.0 505.7)"/>
    <path d="M 86.37872214012889,148.012226493666 C 112.92355969290115,170.13292445430955 121.77183887715856,201.10190159921052 86.37872214012889,236.4950183362402 C 50.98560540309921,201.10190159921052 59.83388458735662,170.13292445430955 86.37872214012889,148.012226493666 Z" fill="url(#leaf10)" opacity="0.34" transform="rotate(92.7 86.4 192.3)"/>
    <path d="M 692.719122939129,248.74987733473688 C 726.9319245913742,277.2605453782746 738.3361918087893,317.17548063922743 692.719122939129,362.79254950888776 C 647.1020540694686,317.17548063922743 658.5063212868837,277.2605453782746 692.719122939129,248.74987733473688 Z" fill="url(#leaf11)" opacity="0.26" transform="rotate(170.2 692.7 305.8)"/>
    <path d="M 479.18677108529494,361.80181356636837 C 532.9521369832956,406.6062851480356 550.8739256159625,469.3325453623698 479.18677108529494,541.0196998930373 C 407.4996165546273,469.3325453623698 425.4214051872942,406.6062851480356 479.18677108529494,361.80181356636837 Z" fill="url(#leaf12)" opacity="0.40" transform="rotate(356.5 479.2 451.4)"/>
    <path d="M 1080.4379764709934,123.13567085939819 C 1116.1480168549497,152.8940378460285 1128.0513636496019,194.55575162731097 1080.4379764709934,242.1691388059195 C 1032.8245892923849,194.55575162731097 1044.727936087037,152.8940378460285 1080.4379764709934,123.13567085939819 Z" fill="url(#leaf13)" opacity="0.29" transform="rotate(157.0 1080.4 182.7)"/>
    <path d="M 1299.242783307547,765.5879142855679 C 1331.6411833714096,792.5865810054536 1342.4406500593639,830.3847144132934 1299.242783307547,873.5825811651105 C 1256.04491655573,830.3847144132934 1266.8443832436842,792.5865810054536 1299.242783307547,765.5879142855679 Z" fill="url(#leaf14)" opacity="0.22" transform="rotate(42.0 1299.2 819.6)"/>
    <path d="M 202.072561579782,360.1318267866877 C 240.37249463559232,392.0484376665297 253.1391389875291,436.73169289830844 202.072561579782,487.79827030605554 C 151.00598417203489,436.73169289830844 163.77262852397166,392.0484376665297 202.072561579782,360.1318267866877 Z" fill="url(#leaf15)" opacity="0.24" transform="rotate(93.5 202.1 424.0)"/>
    <path d="M 534.9703737071513,526.7711801988864 C 561.6172284538942,548.9768924878389 570.4995133694753,580.0648896923723 534.9703737071513,615.5940293546962 C 499.44123404482747,580.0648896923723 508.3235189604084,548.9768924878389 534.9703737071513,526.7711801988864 Z" fill="url(#leaf16)" opacity="0.22" transform="rotate(93.9 535.0 571.2)"/>
    <path d="M 354.8854177267169,847.9782659501548 C 405.9469767779856,890.5295651595453 422.9674964617418,950.1013840526921 354.8854177267169,1018.183462787717 C 286.80333899169204,950.1013840526921 303.82385867544826,890.5295651595453 354.8854177267169,847.9782659501548 Z" fill="url(#leaf17)" opacity="0.38" transform="rotate(308.0 354.9 933.1)"/>
    <path d="M 228.35216484639463,935.5080006478337 C 257.6251212094359,959.902130950368 267.38277333044965,994.0539133739162 228.35216484639463,1033.0845218579714 C 189.32155636233958,994.0539133739162 199.07920848335334,959.902130950368 228.35216484639463,935.5080006478337 Z" fill="url(#leaf18)" opacity="0.27" transform="rotate(146.9 228.4 984.3)"/>
    <path d="M 351.5807991966517,875.489636224042 C 378.6868527722389,898.078014203698 387.7222039641013,929.7017433752164 351.5807991966517,965.843148142666 C 315.4393944292021,929.7017433752164 324.47474562106447,898.078014203698 351.5807991966517,875.489636224042 Z" fill="url(#leaf19)" opacity="0.34" transform="rotate(180.3 351.6 920.7)"/>
    <path d="M 496.18894896633446,926.9984886900689 C 532.5896058870132,957.3323694573013 544.7231581939062,999.7998025314266 496.18894896633446,1048.3340117589983 C 447.6547397387627,999.7998025314266 459.7882920456557,957.3323694573013 496.18894896633446,926.9984886900689 Z" fill="url(#leaf0)" opacity="0.34" transform="rotate(75.7 496.2 987.7)"/>
  </g>

  <!-- Central star shape -->
  <polygon points="960.0,297.2 1031.3,441.8 1190.9,465.0 1075.4,577.5 1102.7,736.4 960.0,661.4 817.3,736.4 844.6,577.5 729.1,465.0 888.7,441.8" 
           fill="#FF4500" 
           transform="rotate(306.5 960.0 540.0)"/>
</svg>