<?xml version="1.0" encoding="UTF-8"?>
<svg xmlns="http://www.w3.org/2000/svg" viewBox="0 0 1920 1080" width="1920" height="1080">
  <defs>
    <linearGradient id="bgGrad" x1="0%" y1="0%" x2="100%" y2="100%">
      <stop offset="0%" stop-color="#9370DB"/>
      <stop offset="100%" stop-color="#32CD32"/>
    </linearGradient>
    <clipPath id="complexClip"><polygon points="1496.8,540.0 1513.7,606.2 1293.8,623.6 1387.3,714.6 1213.2,698.2 1152.3,727.3 1095.2,774.1 1001.7,763.3 902.0,850.2 818.5,784.9 732.1,762.0 623.8,750.0 646.7,668.0 471.9,662.2 492.3,595.9 400.5,540.0 490.8,483.9 448.7,412.0 633.8,406.7 699.2,377.1 763.7,348.8 851.2,351.6 917.7,313.6 1011.4,265.2 1102.8,292.8 1192.1,313.8 1189.3,396.8 1365.1,374.4 1482.2,409.2 1400.1,487.4"/></clipPath>
    <radialGradient id="leaf0" cx="50%" cy="50%" r="70%">
      <stop offset="0%" stop-color="#7B68EE"/>
      <stop offset="50%" stop-color="#FF1493"/>
      <stop offset="100%" stop-color="#9370DB"/>
    </radialGradient>
    <radialGradient id="leaf1" cx="50%" cy="50%" r="70%">
      <stop offset="0%" stop-color="#45B7D1"/>
      <stop offset="50%" stop-color="#96E6A1"/>
      <stop offset="100%" stop-color="#FFD700"/>
    </radialGradient>
    <radialGradient id="leaf2" cx="50%" cy="50%" r="70%">
      <stop offset="0%" stop-color="#FF4500"/>
      <stop offset="50%" stop-color="#4ECDC4"/>
      <stop offset="100%" stop-color="#45B7D1"/>
    </radialGradient>
    <radialGradient id="leaf3" cx="50%" cy="50%" r="70%">
      <stop offset="0%" stop-color="#4ECDC4"/>
      <stop offset="50%" stop-color="#00CED1"/>
      <stop offset="100%" stop-color="#7B68EE"/>
    </radialGradient>
    <radialGradient id="leaf4" cx="50%" cy="50%" r="70%">
      <stop offset="0%" stop-color="#FF1493"/>
      <stop offset="50%" stop-color="#FFE66D"/>
      <stop offset="100%" stop-color="#45B7D1"/>
    </radialGradient>
    <radialGradient id="leaf5" cx="50%" cy="50%" r="70%">
      <stop offset="0%" stop-color="#32CD32"/>
      <stop offset="50%" stop-color="#96E6A1"/>
      <stop offset="100%" stop-color="#FF69B4"/>
    </radialGradient>
    <radialGradient id="leaf6" cx="50%" cy="50%" r="70%">
      <stop offset="0%" stop-color="#FF4500"/>
      <stop offset="50%" stop-color="#32CD32"/>
      <stop offset="100%" stop-color="#DC143C"/>
    </radialGradient>
    <radialGradient id="leaf7" cx="50%" cy="50%" r="70%">
      <stop offset="0%" stop-color="#4ECDC4"/>
      <stop offset="50%" stop-color="#FF69B4"/>
      <stop offset="100%" stop-color="#00FA9A"/>
    </radialGradient>
    <radialGradient id="leaf8" cx="50%" cy="50%" r="70%">
      <stop offset="0%" stop-color="#FFD700"/>
      <stop offset="50%" stop-color="#FF6B6B"/>
      <stop offset="100%" stop-color="#00FA9A"/>
    </radialGradient>
    <radialGradient id="leaf9" cx="50%" cy="50%" r="70%">
      <stop offset="0%" stop-color="#FF6B6B"/>
      <stop offset="50%" stop-color="#FF1493"/>
      <stop offset="100%" stop-color="#FF4500"/>
    </radialGradient>
    <radialGradient id="leaf10" cx="50%" cy="50%" r="70%">
      <stop offset="0%" stop-color="#7B68EE"/>
      <stop offset="50%" stop-color="#FF1493"/>
      <stop offset="100%" stop-color="#32CD32"/>
    </radialGradient>
    <radialGradient id="leaf11" cx="50%" cy="50%" r="70%">
      <stop offset="0%" stop-color="#FFD700"/>
      <stop offset="50%" stop-color="#4ECDC4"/>
      <stop offset="100%" stop-color="#32CD32"/>
    </radialGradient>
    <radialGradient id="leaf12" cx="50%" cy="50%" r="70%">
      <stop offset="0%" stop-color="#00CED1"/>
      <stop offset="50%" stop-color="#DC143C"/>
      <stop offset="100%" stop-color="#45B7D1"/>
    </radialGradient>
    <radialGradient id="leaf13" cx="50%" cy="50%" r="70%">
      <stop offset="0%" stop-color="#FF1493"/>
      <stop offset="50%" stop-color="#4ECDC4"/>
      <stop offset="100%" stop-color="#FFD700"/>
    </radialGradient>
    <radialGradient id="leaf14" cx="50%" cy="50%" r="70%">
      <stop offset="0%" stop-color="#9370DB"/>
      <stop offset="50%" stop-color="#7B68EE"/>
      <stop offset="100%" stop-color="#FFD700"/>
    </radialGradient>
    <radialGradient id="leaf15" cx="50%" cy="50%" r="70%">
      <stop offset="0%" stop-color="#45B7D1"/>
      <stop offset="50%" stop-color="#00FA9A"/>
      <stop offset="100%" stop-color="#FFE66D"/>
    </radialGradient>
    <radialGradient id="leaf16" cx="50%" cy="50%" r="70%">
      <stop offset="0%" stop-color="#4ECDC4"/>
      <stop offset="50%" stop-color="#FF6B6B"/>
      <stop offset="100%" stop-color="#FF69B4"/>
    </radialGradient>
    <radialGradient id="leaf17" cx="50%" cy="50%" r="70%">
      <stop offset="0%" stop-color="#FFD700"/>
      <stop offset="50%" stop-color="#00FA9A"/>
      <stop offset="100%" stop-color="#FF1493"/>
    </radialGradient>
    <radialGradient id="leaf18" cx="50%" cy="50%" r="70%">
      <stop offset="0%" stop-color="#00CED1"/>
      <stop offset="50%" stop-color="#4ECDC4"/>
      <stop offset="100%" stop-color="#7B68EE"/>
    </radialGradient>
    <radialGradient id="leaf19" cx="50%" cy="50%" r="70%">
      <stop offset="0%" stop-color="#FF4500"/>
      <stop offset="50%" stop-color="#9370DB"/>
      <stop offset="100%" stop-color="#FF1493"/>
    </radialGradient>
  </defs>

  <!-- Background -->
  <rect width="1920" height="1080" fill="url(#bgGrad)"/>
  
  <!-- Leaves with clip-path -->
  <g clip-path="url(#complexClip)">
    <path d="M 1320.8878798235057,178.42570239103884 C 1378.1199929096454,226.1191299628219 1397.1973639383586,292.88992856331816 1320.8878798235057,369.19941267817103 C 1244.5783957086528,292.88992856331816 1263.655766737366,226.1191299628219 1320.8878798235057,178.42570239103884 Z" fill="url(#leaf0)" opacity="0.37" transform="rotate(177.6 1320.9 273.8)"/>
    <path d="M 530.2642758401497,605.9625566173536 C 576.0734092489722,644.136834458039 591.3431203852464,697.5808234349986 530.2642758401497,758.6596679800953 C 469.185431295053,697.5808234349986 484.45514243132715,644.136834458039 530.2642758401497,605.9625566173536 Z" fill="url(#leaf1)" opacity="0.22" transform="rotate(86.8 530.3 682.3)"/>
    <path d="M 1399.6439424480268,901.9682366055398 C 1457.5216174175312,950.1996324134601 1476.8141757406993,1017.7235865445484 1399.6439424480268,1094.8938198372207 C 1322.4737091553543,1017.7235865445484 1341.7662674785224,950.1996324134601 1399.6439424480268,901.9682366055398 Z" fill="url(#leaf2)" opacity="0.37" transform="rotate(277.0 1399.6 998.4)"/>
    <path d="M 193.1056936553042,931.8830169305921 C 226.82734005650636,959.9843889315939 238.06788885690708,999.3263097329964 193.1056936553042,1044.2885049345994 C 148.14349845370134,999.3263097329964 159.38404725410206,959.9843889315939 193.1056936553042,931.8830169305921 Z" fill="url(#leaf3)" opacity="0.30" transform="rotate(256.1 193.1 988.1)"/>
    <path d="M 367.14184222520805,614.2541793928372 C 418.09600085562823,656.7159782515207 435.0807203991016,716.1624966536775 367.14184222520805,784.1013748275711 C 299.2029640513145,716.1624966536775 316.18768359478787,656.7159782515207 367.14184222520805,614.2541793928372 Z" fill="url(#leaf4)" opacity="0.39" transform="rotate(186.4 367.1 699.2)"/>
    <path d="M 812.9482612876807,593.7945977375108 C 844.9216316497127,620.4390730392041 855.5794217703901,657.7413384615749 812.9482612876807,700.3724989442843 C 770.3171008049712,657.7413384615749 780.9748909256487,620.4390730392041 812.9482612876807,593.7945977375108 Z" fill="url(#leaf5)" opacity="0.34" transform="rotate(233.4 812.9 647.1)"/>
    <path d="M 455.5175793941966,211.36479207933593 C 480.8978362681569,232.51500614096952 489.35792189281034,262.1253058272565 455.5175793941966,295.96564832587023 C 421.6772368955829,262.1253058272565 430.13732252023635,232.51500614096952 455.5175793941966,211.36479207933593 Z" fill="url(#leaf6)" opacity="0.28" transform="rotate(212.5 455.5 253.7)"/>
    <path d="M 253.98755335689432,463.20790411203893 C 278.0174397146179,483.23280941014195 286.0274018338591,511.2676768274861 253.98755335689432,543.3075253044509 C 221.94770487992955,511.2676768274861 229.95766699917075,483.23280941014195 253.98755335689432,463.20790411203893 Z" fill="url(#leaf7)" opacity="0.31" transform="rotate(181.6 254.0 503.3)"/>
    <path d="M 347.6953060020326,494.633379761441 C 404.2345972136386,541.7494557711126 423.0810276175073,607.711962184653 347.6953060020326,683.0976838001276 C 272.30958438655796,607.711962184653 291.15601479042664,541.7494557711126 347.6953060020326,494.633379761441 Z" fill="url(#leaf8)" opacity="0.34" transform="rotate(305.5 347.7 588.9)"/>
    <path d="M 593.3716626694954,694.0642706717721 C 620.9515440430754,717.0475051497554 630.1448378342686,749.224033418932 593.3716626694954,785.9972085837052 C 556.5984875047222,749.224033418932 565.7917812959155,717.0475051497554 593.3716626694954,694.0642706717721 Z" fill="url(#leaf9)" opacity="0.34" transform="rotate(287.2 593.4 740.0)"/>
    <path d="M 396.78969162419264,619.0294928582401 C 431.86397043224815,648.2580585316197 443.5553967016,689.1780504743512 396.78969162419264,735.9437555517585 C 350.0239865467853,689.1780504743512 361.71541281613713,648.2580585316197 396.78969162419264,619.0294928582401 Z" fill="url(#leaf10)" opacity="0.23" transform="rotate(57.1 396.8 677.5)"/>
    <path d="M 1250.8440730219988,547.3356075682074 C 1275.828282773321,568.1557823609759 1284.1563526904283,597.3040270708518 1250.8440730219988,630.6163067392814 C 1217.5317933535694,597.3040270708518 1225.8598632706767,568.1557823609759 1250.8440730219988,547.3356075682074 Z" fill="url(#leaf11)" opacity="0.27" transform="rotate(113.9 1250.8 589.0)"/>
    <path d="M 1222.4121623952155,328.7787034467822 C 1265.6464261741553,364.80725659589854 1280.0578474338017,415.24723100466144 1222.4121623952155,472.8929160432476 C 1164.7664773566294,415.24723100466144 1179.1778986162758,364.80725659589854 1222.4121623952155,328.7787034467822 Z" fill="url(#leaf12)" opacity="0.23" transform="rotate(119.5 1222.4 400.8)"/>
    <path d="M 1039.3139033313405,567.1211032459302 C 1072.6271618759101,594.8821520330715 1083.7315813907667,633.7476203350694 1039.3139033313405,678.1652983944956 C 994.8962252719143,633.7476203350694 1006.0006447867709,594.8821520330715 1039.3139033313405,567.1211032459302 Z" fill="url(#leaf13)" opacity="0.34" transform="rotate(186.4 1039.3 622.6)"/>
    <path d="M 561.0544799926467,971.9978981366738 C 585.872322849933,992.6794338510789 594.1449371356949,1021.6335838512462 561.0544799926467,1054.7240409942945 C 527.9640228495986,1021.6335838512462 536.2366371353605,992.6794338510789 561.0544799926467,971.9978981366738 Z" fill="url(#leaf14)" opacity="0.34" transform="rotate(254.7 561.1 1013.4)"/>
    <path d="M 1129.9274159893077,428.4486874875487 C 1184.823943565611,474.1957938011348 1203.1227860910456,538.2417426401554 1129.9274159893077,611.4371127418932 C 1056.73204588757,538.2417426401554 1075.0308884130045,474.1957938011348 1129.9274159893077,428.4486874875487 Z" fill="url(#leaf15)" opacity="0.22" transform="rotate(6.3 1129.9 519.9)"/>
    <path d="M 1632.8327732975931,600.2031785538871 C 1668.0558565502363,629.5557479310897 1679.7968843011174,670.6493450591735 1632.8327732975931,717.6134560626978 C 1585.8686622940688,670.6493450591735 1597.60969004495,629.5557479310897 1632.8327732975931,600.2031785538871 Z" fill="url(#leaf16)" opacity="0.32" transform="rotate(243.8 1632.8 658.9)"/>
    <path d="M 194.70856698777231,399.28147370426234 C 230.78825722831792,429.3478822380504 242.8148206418331,471.44085418535354 194.70856698777231,519.5471078394144 C 146.60231333371152,471.44085418535354 158.6288767472267,429.3478822380504 194.70856698777231,399.28147370426234 Z" fill="url(#leaf17)" opacity="0.21" transform="rotate(110.8 194.7 459.4)"/>
    <path d="M 118.94200058456744,737.8591112548937 C 150.78498725722244,764.3949334821062 161.39931614810743,801.5450846002037 118.94200058456744,844.0024001637438 C 76.48468502102745,801.5450846002037 87.09901391191244,764.3949334821062 118.94200058456744,737.8591112548937 Z" fill="url(#leaf18)" opacity="0.28" transform="rotate(145.0 118.9 790.9)"/>
    <path d="M 135.38895784461266,682.7390988352915 C 161.91912547368295,704.8475718595168 170.76251468337307,735.7994340934322 135.38895784461266,771.1729909321925 C 100.01540100585225,735.7994340934322 108.85879021554237,704.8475718595168 135.38895784461266,682.7390988352915 Z" fill="url(#leaf19)" opacity="0.25" transform="rotate(100.0 135.4 727.0)"/>
    <path d="M 1754.630174517122,339.52776852956856 C 1805.4264291275633,381.8579807049364 1822.3585139977104,441.12027775045135 1754.630174517122,508.84861723103984 C 1686.9018350365336,441.12027775045135 1703.8339199066806,381.8579807049364 1754.630174517122,339.52776852956856 Z" fill="url(#leaf0)" opacity="0.30" transform="rotate(217.8 1754.6 424.2)"/>
    <path d="M 1079.0826239481078,610.3123985354533 C 1103.7732961060146,630.8879586670424 1112.0035201586504,659.6937428512672 1079.0826239481078,692.6146390618097 C 1046.1617277375651,659.6937428512672 1054.391951790201,630.8879586670424 1079.0826239481078,610.3123985354533 Z" fill="url(#leaf1)" opacity="0.30" transform="rotate(326.4 1079.1 651.5)"/>
    <path d="M 174.48027246175144,256.03054100749694 C 226.50613818522865,299.3854291103946 243.84809342638772,360.0822724544514 174.48027246175144,429.4500934190877 C 105.11245149711516,360.0822724544514 122.45440673827423,299.3854291103946 174.48027246175144,256.03054100749694 Z" fill="url(#leaf2)" opacity="0.21" transform="rotate(340.4 174.5 342.7)"/>
    <path d="M 598.5218657936368,15.11599502438834 C 656.6196566985828,63.53082077850998 675.9855870002315,131.31157683428026 598.5218657936368,208.77529804087487 C 521.0581445870422,131.31157683428026 540.4240748886908,63.53082077850998 598.5218657936368,15.11599502438834 Z" fill="url(#leaf3)" opacity="0.23" transform="rotate(191.0 598.5 111.9)"/>
    <path d="M 700.9199464754201,811.7044432398641 C 758.0369445682398,859.3019416505472 777.075943932513,925.9384394255034 700.9199464754201,1002.0944368825963 C 624.7639490183273,925.9384394255034 643.8029483826004,859.3019416505472 700.9199464754201,811.7044432398641 Z" fill="url(#leaf4)" opacity="0.26" transform="rotate(252.8 700.9 906.9)"/>
    <path d="M 598.2142806960296,476.18896964383555 C 649.9262431999274,519.282271730417 667.1635640345601,579.6128946516311 598.2142806960296,648.5621779901616 C 529.2649973574992,579.6128946516311 546.5023181921318,519.282271730417 598.2142806960296,476.18896964383555 Z" fill="url(#leaf5)" opacity="0.30" transform="rotate(309.7 598.2 562.4)"/>
    <path d="M 371.8072930504479,277.73115344239636 C 409.3646562313303,309.0289560931317 421.88377729162437,352.8458798041611 371.8072930504479,402.92236404533753 C 321.7308088092715,352.8458798041611 334.24992986956556,309.0289560931317 371.8072930504479,277.73115344239636 Z" fill="url(#leaf6)" opacity="0.27" transform="rotate(72.2 371.8 340.3)"/>
    <path d="M 1189.9642753172159,132.8175710735485 C 1249.8931779643992,182.75832327953466 1269.8694788467938,252.67537636791533 1189.9642753172159,332.58057989749324 C 1110.059071787638,252.67537636791533 1130.0353726700325,182.75832327953466 1189.9642753172159,132.8175710735485 Z" fill="url(#leaf7)" opacity="0.24" transform="rotate(347.0 1190.0 232.7)"/>
    <path d="M 1165.5042095986582,919.1415199654939 C 1190.2903614839418,939.7966465365636 1198.5524121123697,968.7138237360612 1165.5042095986582,1001.7620262497726 C 1132.4560070849468,968.7138237360612 1140.7180577133747,939.7966465365636 1165.5042095986582,919.1415199654939 Z" fill="url(#leaf8)" opacity="0.36" transform="rotate(131.6 1165.5 960.5)"/>
    <path d="M 1560.7208401862847,287.3508707417531 C 1591.3199656884626,312.850141993568 1601.5196741891884,348.5491217461088 1560.7208401862847,389.34795574901267 C 1519.922006183381,348.5491217461088 1530.1217146841068,312.850141993568 1560.7208401862847,287.3508707417531 Z" fill="url(#leaf9)" opacity="0.25" transform="rotate(83.3 1560.7 338.3)"/>
    <path d="M 1778.6735822461637,475.07442158740344 C 1821.853663607799,511.05782272209956 1836.2470240616776,561.4345843106742 1778.6735822461637,619.0080261261879 C 1721.1001404306498,561.4345843106742 1735.4935008845284,511.05782272209956 1778.6735822461637,475.07442158740344 Z" fill="url(#leaf10)" opacity="0.31" transform="rotate(246.0 1778.7 547.0)"/>
    <path d="M 477.1557759174037,703.7472129673291 C 510.9920040729183,731.9440697635913 522.2707467914231,771.4196692783584 477.1557759174037,816.5346401523778 C 432.0408050433842,771.4196692783584 443.31954776188905,731.9440697635913 477.1557759174037,703.7472129673291 Z" fill="url(#leaf11)" opacity="0.22" transform="rotate(232.5 477.2 760.1)"/>
    <path d="M 358.84815224914917,37.81922847598399 C 416.79880735397126,86.11144106333572 436.11569238891195,153.72053868562816 358.84815224914917,230.98807882539091 C 281.5806121093864,153.72053868562816 300.8974971443271,86.11144106333572 358.84815224914917,37.81922847598399 Z" fill="url(#leaf12)" opacity="0.36" transform="rotate(124.7 358.8 134.4)"/>
    <path d="M 478.34010150736617,750.6842321034877 C 504.07406878088204,772.1292048314176 512.652057872054,802.1521666505195 478.34010150736617,836.4641230152073 C 444.0281451426784,802.1521666505195 452.6061342338503,772.1292048314176 478.34010150736617,750.6842321034877 Z" fill="url(#leaf13)" opacity="0.26" transform="rotate(309.8 478.3 793.6)"/>
    <path d="M 731.7144545460415,86.29145226087002 C 776.8887676923096,123.93671321609344 791.9468720743989,176.64007855340623 731.7144545460415,236.8724960817637 C 671.482037017684,176.64007855340623 686.5401413997733,123.93671321609344 731.7144545460415,86.29145226087002 Z" fill="url(#leaf14)" opacity="0.28" transform="rotate(111.9 731.7 161.6)"/>
    <path d="M 378.3269521208594,861.8849322699919 C 435.3581193085086,909.4109049263661 454.3685083710584,975.9472666452903 378.3269521208594,1051.9888228954892 C 302.2853958706604,975.9472666452903 321.2957849332102,909.4109049263661 378.3269521208594,861.8849322699919 Z" fill="url(#leaf15)" opacity="0.31" transform="rotate(82.3 378.3 956.9)"/>
    <path d="M 308.23783601873885,107.39020110560304 C 355.36501632233603,146.6628513586007 371.07407642353513,201.64456171279744 308.23783601873885,264.4808021175937 C 245.4015956139426,201.64456171279744 261.11065571514166,146.6628513586007 308.23783601873885,107.39020110560304 Z" fill="url(#leaf16)" opacity="0.40" transform="rotate(282.6 308.2 185.9)"/>
    <path d="M 871.8725619723693,408.76039722293933 C 930.5525929774983,457.6604230605468 950.1126033125413,526.1204592331972 871.8725619723693,604.3605005733691 C 793.6325206321974,526.1204592331972 813.1925309672404,457.6604230605468 871.8725619723693,408.76039722293933 Z" fill="url(#leaf17)" opacity="0.31" transform="rotate(83.3 871.9 506.6)"/>
    <path d="M 281.9267150005671,117.92498271468052 C 332.34117853046484,159.93703565626194 349.1459997070974,218.75390977447594 281.9267150005671,285.9731944810062 C 214.70743029403684,218.75390977447594 231.5122514706694,159.93703565626194 281.9267150005671,117.92498271468052 Z" fill="url(#leaf18)" opacity="0.23" transform="rotate(27.5 281.9 201.9)"/>
    <path d="M 1088.256624184626,77.04130114583076 C 1145.20642371321,124.49946741965081 1164.1896902227381,190.9409002029989 1088.256624184626,266.873966241111 C 1012.3235581465138,190.9409002029989 1031.306824656042,124.49946741965081 1088.256624184626,77.04130114583076 Z" fill="url(#leaf19)" opacity="0.30" transform="rotate(275.1 1088.3 172.0)"/>
    <path d="M 630.3978181274849,26.756246594916675 C 683.7992652551293,71.25745253462028 701.5997476310107,133.55914085020532 630.3978181274849,204.7610703537311 C 559.1958886239591,133.55914085020532 576.9963709998406,71.25745253462028 630.3978181274849,26.756246594916675 Z" fill="url(#leaf0)" opacity="0.26" transform="rotate(233.0 630.4 115.8)"/>
    <path d="M 664.2303510161538,829.4063096779806 C 700.5491780480993,859.6719988712686 712.6554537254144,902.0439637418715 664.2303510161538,950.4690664511321 C 615.8052483068932,902.0439637418715 627.9115239842083,859.6719988712686 664.2303510161538,829.4063096779806 Z" fill="url(#leaf1)" opacity="0.32" transform="rotate(312.6 664.2 889.9)"/>
    <path d="M 1772.8189804979866,105.64618312034443 C 1816.7888365272404,142.28772981138923 1831.4454552036582,193.5858951788519 1772.8189804979866,252.21236988452355 C 1714.192505792315,193.5858951788519 1728.8491244687327,142.28772981138923 1772.8189804979866,105.64618312034443 Z" fill="url(#leaf2)" opacity="0.35" transform="rotate(68.7 1772.8 178.9)"/>
    <path d="M 956.7787965920072,758.8586208698189 C 999.4391538145411,794.4089185552638 1013.6592728887191,844.1793353148867 956.7787965920072,901.0598116115984 C 899.8983202952953,844.1793353148867 914.1184393694733,794.4089185552638 956.7787965920072,758.8586208698189 Z" fill="url(#leaf3)" opacity="0.39" transform="rotate(117.5 956.8 830.0)"/>
    <path d="M 1601.3368616175119,485.6306982405123 C 1644.1674408101333,521.3228475676967 1658.4443005410071,571.291856625755 1601.3368616175119,628.3992955492503 C 1544.2294226940166,571.291856625755 1558.5062824248905,521.3228475676967 1601.3368616175119,485.6306982405123 Z" fill="url(#leaf4)" opacity="0.20" transform="rotate(239.2 1601.3 557.0)"/>
    <path d="M 345.0667588060746,138.74026694908832 C 390.8827393362978,176.92025072427435 406.1547328463722,230.3722280095348 345.0667588060746,291.46020204983245 C 283.97878476577694,230.3722280095348 299.25077827585136,176.92025072427435 345.0667588060746,138.74026694908832 Z" fill="url(#leaf5)" opacity="0.33" transform="rotate(287.7 345.1 215.1)"/>
    <path d="M 811.2209193379364,247.21094783791708 C 849.7958259061492,279.3567033114277 862.6541280955533,324.36076097434255 811.2209193379364,375.7939697319596 C 759.7877105803194,324.36076097434255 772.6460127697236,279.3567033114277 811.2209193379364,247.21094783791708 Z" fill="url(#leaf6)" opacity="0.27" transform="rotate(288.8 811.2 311.5)"/>
    <path d="M 1769.5276036113494,477.2944543384259 C 1805.180299936812,507.00503460964467 1817.0645320452995,548.5998469893509 1769.5276036113494,596.136775423301 C 1721.9906751773992,548.5998469893509 1733.8749072858868,507.00503460964467 1769.5276036113494,477.2944543384259 Z" fill="url(#leaf7)" opacity="0.29" transform="rotate(334.8 1769.5 536.7)"/>
    <path d="M 1773.3861869345449,593.224033530767 C 1825.89000432853,636.9772146924213 1843.3912767931918,698.2316683187374 1773.3861869345449,768.2367581773844 C 1703.381097075898,698.2316683187374 1720.8823695405597,636.9772146924213 1773.3861869345449,593.224033530767 Z" fill="url(#leaf8)" opacity="0.31" transform="rotate(217.7 1773.4 680.7)"/>
    <path d="M 1181.600795719157,429.4634839545175 C 1218.0115567495964,459.805784813217 1230.1484770930763,502.2850060153963 1181.600795719157,550.8326873893154 C 1133.0531143452379,502.2850060153963 1145.1900346887178,459.805784813217 1181.600795719157,429.4634839545175 Z" fill="url(#leaf9)" opacity="0.30" transform="rotate(301.0 1181.6 490.1)"/>
    <path d="M 189.57796662418497,870.7500207365625 C 240.65096374467933,913.3108516703078 257.67529611817747,972.8960149775513 189.57796662418497,1040.9933444715439 C 121.48063713019248,972.8960149775513 138.5049695036906,913.3108516703078 189.57796662418497,870.7500207365625 Z" fill="url(#leaf10)" opacity="0.25" transform="rotate(138.3 189.6 955.9)"/>
    <path d="M 1371.0967845171886,474.38743347644277 C 1396.5983704450377,495.6387550829838 1405.0988990876542,525.3906053321411 1371.0967845171886,559.3927199026068 C 1337.094669946723,525.3906053321411 1345.5951985893394,495.6387550829838 1371.0967845171886,474.38743347644277 Z" fill="url(#leaf11)" opacity="0.34" transform="rotate(235.7 1371.1 516.9)"/>
    <path d="M 1064.5913973361173,541.419425266151 C 1096.5000429384936,568.0099632681314 1107.1362581392857,605.2367164709037 1064.5913973361173,647.7815772740722 C 1022.0465365329488,605.2367164709037 1032.682751733741,568.0099632681314 1064.5913973361173,541.419425266151 Z" fill="url(#leaf12)" opacity="0.21" transform="rotate(145.0 1064.6 594.6)"/>
    <path d="M 997.4957727810257,938.3958966251058 C 1023.0543957814915,959.6947491254939 1031.5739367816468,989.5131426260374 997.4957727810257,1023.5913066266584 C 963.4176087804046,989.5131426260374 971.9371497805599,959.6947491254939 997.4957727810257,938.3958966251058 Z" fill="url(#leaf13)" opacity="0.37" transform="rotate(308.1 997.5 981.0)"/>
    <path d="M 545.0825528642093,965.0131359069252 C 582.3000926854361,996.027752424614 594.7059392925116,1039.4482155493786 545.0825528642093,1089.071601977681 C 495.45916643590704,1039.4482155493786 507.8650130429826,996.027752424614 545.0825528642093,965.0131359069252 Z" fill="url(#leaf14)" opacity="0.25" transform="rotate(181.1 545.1 1027.0)"/>
    <path d="M 650.1114139727612,596.9685501174179 C 693.469903085519,633.1006243780495 707.9227327897717,683.6855283429336 650.1114139727612,741.4968471599441 C 592.3000951557507,683.6855283429336 606.7529248600033,633.1006243780495 650.1114139727612,596.9685501174179 Z" fill="url(#leaf15)" opacity="0.30" transform="rotate(207.2 650.1 669.2)"/>
    <path d="M 722.0144790406727,896.7069905421394 C 771.6330969077565,938.0558387647093 788.1726361967844,995.9442262763071 722.0144790406727,1062.1023834324187 C 655.8563218845609,995.9442262763071 672.3958611735889,938.0558387647093 722.0144790406727,896.7069905421394 Z" fill="url(#leaf16)" opacity="0.20" transform="rotate(263.9 722.0 979.4)"/>
    <path d="M 437.7372827340038,223.99387077820947 C 488.96660985289526,266.684976710619 506.0430522258591,326.45252501599236 437.7372827340038,394.7582945078476 C 369.4315132421485,326.45252501599236 386.5079556151124,266.684976710619 437.7372827340038,223.99387077820947 Z" fill="url(#leaf17)" opacity="0.29" transform="rotate(19.2 437.7 309.4)"/>
    <path d="M 1443.4632809346529,149.72233383614028 C 1472.8546859803373,174.21517137421063 1482.6518209955655,208.50514392750907 1443.4632809346529,247.6936839884216 C 1404.2747408737403,208.50514392750907 1414.0718758889684,174.21517137421063 1443.4632809346529,149.72233383614028 Z" fill="url(#leaf18)" opacity="0.28" transform="rotate(101.5 1443.5 198.7)"/>
    <path d="M 1437.9125361599797,420.6949326248441 C 1485.2114456535833,460.11069053618036 1500.9777488181176,515.2927516120511 1437.9125361599797,578.3579642701891 C 1374.8473235018419,515.2927516120511 1390.6136266663761,460.11069053618036 1437.9125361599797,420.6949326248441 Z" fill="url(#leaf19)" opacity="0.36" transform="rotate(342.1 1437.9 499.5)"/>
    <path d="M 136.59187478095203,433.914972619859 C 169.45215671707433,461.29854089996087 180.40558402911512,499.6355364921036 136.59187478095203,543.4492457402666 C 92.77816553278893,499.6355364921036 103.73159284482972,461.29854089996087 136.59187478095203,433.914972619859 Z" fill="url(#leaf0)" opacity="0.38" transform="rotate(92.3 136.6 488.7)"/>
    <path d="M 701.3927758192426,34.19641520153134 C 756.7785490216189,80.3512262035116 775.240473422411,144.96796160628398 701.3927758192426,218.8156592094524 C 627.5450782160742,144.96796160628398 646.0070026168663,80.3512262035116 701.3927758192426,34.19641520153134 Z" fill="url(#leaf1)" opacity="0.26" transform="rotate(108.3 701.4 126.5)"/>
    <path d="M 614.3437896504886,364.5519043114193 C 670.3591993904138,411.2314124280237 689.0310026370556,476.5827237912698 614.3437896504886,551.2699367778368 C 539.6565766639216,476.5827237912698 558.3283799105634,411.2314124280237 614.3437896504886,364.5519043114193 Z" fill="url(#leaf2)" opacity="0.23" transform="rotate(297.0 614.3 457.9)"/>
    <path d="M 1281.7212629165772,415.694458681167 C 1311.7559210924144,440.7233404943646 1321.7674738176934,475.76377503284124 1281.7212629165772,515.8099859339574 C 1241.675052015461,475.76377503284124 1251.68660474074,440.7233404943646 1281.7212629165772,415.694458681167 Z" fill="url(#leaf3)" opacity="0.34" transform="rotate(215.4 1281.7 465.8)"/>
    <path d="M 510.2306850427771,155.652149836408 C 563.4463449621118,199.99853310252024 581.1848982685567,262.08346967507737 510.2306850427771,333.0376829008569 C 439.2764718169975,262.08346967507737 457.01502512344246,199.99853310252024 510.2306850427771,155.652149836408 Z" fill="url(#leaf4)" opacity="0.32" transform="rotate(1.9 510.2 244.3)"/>
    <path d="M 1074.8064036425108,470.7930716213957 C 1118.4840491258578,507.19110952418504 1133.0432642869737,558.1483625880901 1074.8064036425108,616.385223232553 C 1016.5695429980478,558.1483625880901 1031.1287581591637,507.19110952418504 1074.8064036425108,470.7930716213957 Z" fill="url(#leaf5)" opacity="0.22" transform="rotate(163.7 1074.8 543.6)"/>
    <path d="M 1065.3029671393117,565.6242566467208 C 1121.5289743098388,612.47926262216 1140.2709767000144,678.0762709877749 1065.3029671393117,753.0442805484777 C 990.334957578609,678.0762709877749 1009.0769599687846,612.47926262216 1065.3029671393117,565.6242566467208 Z" fill="url(#leaf6)" opacity="0.30" transform="rotate(224.0 1065.3 659.3)"/>
    <path d="M 584.924059619976,587.6204999679803 C 624.5209863578457,620.617938916205 637.7199619371355,666.8143534437197 584.924059619976,719.6102557608792 C 532.1281573028165,666.8143534437197 545.3271328821063,620.617938916205 584.924059619976,587.6204999679803 Z" fill="url(#leaf7)" opacity="0.23" transform="rotate(209.7 584.9 653.6)"/>
    <path d="M 621.8495469329542,759.7707469468686 C 669.3381812445355,799.3446088731863 685.1677260150626,854.748015570031 621.8495469329542,918.0661946521394 C 558.5313678508459,854.748015570031 574.360912621373,799.3446088731863 621.8495469329542,759.7707469468686 Z" fill="url(#leaf8)" opacity="0.34" transform="rotate(101.9 621.8 838.9)"/>
    <path d="M 919.0684564429495,602.5492601421513 C 976.9368728438263,650.7729404762154 996.226344977452,718.286092943905 919.0684564429495,795.4439814784075 C 841.910567908447,718.286092943905 861.2000400420726,650.7729404762154 919.0684564429495,602.5492601421513 Z" fill="url(#leaf9)" opacity="0.36" transform="rotate(225.4 919.1 699.0)"/>
    <path d="M 1113.7728568195919,343.51467049959 C 1158.1728390422072,380.5146556851029 1172.9728331164124,432.3146349448209 1113.7728568195919,491.51461124164155 C 1054.5728805227714,432.3146349448209 1069.3728745969765,380.5146556851029 1113.7728568195919,343.51467049959 Z" fill="url(#leaf10)" opacity="0.30" transform="rotate(313.1 1113.8 417.5)"/>
    <path d="M 604.8833557126954,712.0868495124994 C 659.8423236504794,757.8859894606527 678.1619796297408,822.0047853880674 604.8833557126954,895.2834093051126 C 531.6047317956501,822.0047853880674 549.9243877749115,757.8859894606527 604.8833557126954,712.0868495124994 Z" fill="url(#leaf11)" opacity="0.29" transform="rotate(205.7 604.9 803.7)"/>
    <path d="M 580.5854163300164,444.7576785715529 C 616.8571350532925,474.9841108409497 628.9477079610513,517.3011160181052 580.5854163300164,565.66340764914 C 532.2231246989816,517.3011160181052 544.3136976067403,474.9841108409497 580.5854163300164,444.7576785715529 Z" fill="url(#leaf12)" opacity="0.21" transform="rotate(128.9 580.6 505.2)"/>
    <path d="M 1006.3751563246905,472.7097731246721 C 1064.3759541548063,521.0437713164353 1083.7095534315117,588.7113687849038 1006.3751563246905,666.045765891725 C 929.0407592178693,588.7113687849038 948.3743584945746,521.0437713164353 1006.3751563246905,472.7097731246721 Z" fill="url(#leaf13)" opacity="0.27" transform="rotate(269.7 1006.4 569.4)"/>
    <path d="M 1259.7093383245508,659.6556100580896 C 1293.3144470722068,687.659867347803 1304.5161499880921,726.8658275534017 1259.7093383245508,771.6726392169431 C 1214.9025266610095,726.8658275534017 1226.1042295768948,687.659867347803 1259.7093383245508,659.6556100580896 Z" fill="url(#leaf14)" opacity="0.30" transform="rotate(255.2 1259.7 715.7)"/>
    <path d="M 1522.7113858867665,730.4164419558155 C 1556.1075714823673,758.2465966188162 1567.2396333475679,797.2088131470173 1522.7113858867665,841.7370606078185 C 1478.1831384259651,797.2088131470173 1489.3152002911656,758.2465966188162 1522.7113858867665,730.4164419558155 Z" fill="url(#leaf15)" opacity="0.32" transform="rotate(196.1 1522.7 786.1)"/>
    <path d="M 98.56159652832632,125.97916855485717 C 125.03922630901363,148.04386003876326 133.86510290257607,178.9344281162318 98.56159652832632,214.23793449048156 C 63.25809015407656,178.9344281162318 72.08396674763901,148.04386003876326 98.56159652832632,125.97916855485717 Z" fill="url(#leaf16)" opacity="0.33" transform="rotate(41.9 98.6 170.1)"/>
    <path d="M 613.2615361111134,372.52742280736794 C 669.5759576295134,419.45610740603456 688.34743146898,485.15626584416776 613.2615361111134,560.2421612020344 C 538.1756407532469,485.15626584416776 556.9471145927134,419.45610740603456 613.2615361111134,372.52742280736794 Z" fill="url(#leaf17)" opacity="0.27" transform="rotate(221.3 613.3 466.4)"/>
    <path d="M 259.4050711999133,523.486264083896 C 311.6239550411518,567.0020006182615 329.030249654898,627.924031766373 259.4050711999133,697.5492102213577 C 189.77989274492865,627.924031766373 207.1861873586748,567.0020006182615 259.4050711999133,523.486264083896 Z" fill="url(#leaf18)" opacity="0.23" transform="rotate(176.0 259.4 610.5)"/>
    <path d="M 410.6515699092052,941.3126501327246 C 454.7859959802607,978.0913385252709 469.4974713372792,1029.5815022748357 410.6515699092052,1088.4274037029095 C 351.8056684811312,1029.5815022748357 366.5171438381497,978.0913385252709 410.6515699092052,941.3126501327246 Z" fill="url(#leaf19)" opacity="0.21" transform="rotate(111.4 410.7 1014.9)"/>
    <path d="M 372.10288604504535,150.4598710949865 C 429.6379614549084,198.4057672698724 448.8163199248628,265.5300219147126 372.10288604504535,342.24345579453006 C 295.3894521652279,265.5300219147126 314.5678106351823,198.4057672698724 372.10288604504535,150.4598710949865 Z" fill="url(#leaf0)" opacity="0.22" transform="rotate(199.3 372.1 246.4)"/>
    <path d="M 949.371419756866,817.1261784913333 C 983.2771174384201,845.3809265592951 994.5790166656049,884.9375738544416 949.371419756866,930.1451707631804 C 904.1638228481271,884.9375738544416 915.4657220753119,845.3809265592951 949.371419756866,817.1261784913333 Z" fill="url(#leaf1)" opacity="0.23" transform="rotate(249.8 949.4 873.6)"/>
    <path d="M 1364.250289650011,872.1521865975959 C 1394.8718088232508,897.6701192419624 1405.0789818809974,933.3952249440755 1364.250289650011,974.223917175062 C 1323.4215974190245,933.3952249440755 1333.628770476771,897.6701192419624 1364.250289650011,872.1521865975959 Z" fill="url(#leaf2)" opacity="0.37" transform="rotate(16.4 1364.3 923.2)"/>
    <path d="M 1701.22757514076,622.6214089578359 C 1736.8144321936468,652.2771231685747 1748.6767178779423,693.7951230636091 1701.22757514076,741.2442658007913 C 1653.7784324035779,693.7951230636091 1665.6407180878734,652.2771231685747 1701.22757514076,622.6214089578359 Z" fill="url(#leaf3)" opacity="0.36" transform="rotate(245.8 1701.2 681.9)"/>
    <path d="M 1098.1440058476205,493.4367083771857 C 1153.407499771161,539.4896199801361 1171.8286644123411,603.9636962242668 1098.1440058476205,677.6483547889874 C 1024.4593472829,603.9636962242668 1042.88051192408,539.4896199801361 1098.1440058476205,493.4367083771857 Z" fill="url(#leaf4)" opacity="0.22" transform="rotate(233.4 1098.1 585.5)"/>
    <path d="M 609.9103484396186,903.8703169201613 C 638.4651772281134,927.6660075772402 647.983453490945,960.9799744971508 609.9103484396186,999.0530795484772 C 571.8372433882922,960.9799744971508 581.3555196511238,927.6660075772402 609.9103484396186,903.8703169201613 Z" fill="url(#leaf5)" opacity="0.22" transform="rotate(82.9 609.9 951.5)"/>
    <path d="M 190.81829782502965,756.8765489157425 C 242.03692340573733,799.5587368996656 259.10979859930654,859.3138000771579 190.81829782502965,927.6053008514349 C 122.52679705075273,859.3138000771579 139.59967224432197,799.5587368996656 190.81829782502965,756.8765489157425 Z" fill="url(#leaf6)" opacity="0.24" transform="rotate(73.6 190.8 842.2)"/>
    <path d="M 1793.7344513106339,475.34170291951864 C 1849.5643779487045,521.8666417845776 1868.1743534947282,587.0015561956602 1793.7344513106339,661.4414583797545 C 1719.2945491265396,587.0015561956602 1737.9045246725632,521.8666417845776 1793.7344513106339,475.34170291951864 Z" fill="url(#leaf7)" opacity="0.25" transform="rotate(85.2 1793.7 568.4)"/>
    <path d="M 77.96181828000587,874.8973401880082 C 126.1703933490952,915.0711527455826 142.23991837212498,971.3144903261868 77.96181828000587,1035.592590418306 C 13.683718187886754,971.3144903261868 29.75324321091653,915.0711527455826 77.96181828000587,874.8973401880082 Z" fill="url(#leaf8)" opacity="0.29" transform="rotate(100.4 78.0 955.2)"/>
    <path d="M 519.124450033904,67.80067141094469 C 575.6289292091265,114.88773739029673 594.4637556008673,180.8096297613896 519.124450033904,256.1489353283529 C 443.7851444669408,180.8096297613896 462.6199708586816,114.88773739029673 519.124450033904,67.80067141094469 Z" fill="url(#leaf9)" opacity="0.28" transform="rotate(310.7 519.1 162.0)"/>
    <path d="M 1643.3819964177023,764.0705415535955 C 1679.4932373985905,794.1632423710023 1691.5303177255532,836.2930235153718 1643.3819964177023,884.4413448232227 C 1595.2336751098514,836.2930235153718 1607.2707554368142,794.1632423710023 1643.3819964177023,764.0705415535955 Z" fill="url(#leaf10)" opacity="0.26" transform="rotate(90.0 1643.4 824.3)"/>
    <path d="M 1143.2150501656038,462.4395226370475 C 1191.069901627957,502.3185655223418 1207.0215187820747,558.1492255617538 1143.2150501656038,621.9556941782248 C 1079.4085815491328,558.1492255617538 1095.3601987032505,502.3185655223418 1143.2150501656038,462.4395226370475 Z" fill="url(#leaf11)" opacity="0.38" transform="rotate(35.5 1143.2 542.2)"/>
    <path d="M 1657.4744655069733,684.0875290300235 C 1716.6318002113746,733.3853079503581 1736.3509117795086,802.4021984388264 1657.4744655069733,881.2786447113617 C 1578.598019234438,802.4021984388264 1598.317130802572,733.3853079503581 1657.4744655069733,684.0875290300235 Z" fill="url(#leaf12)" opacity="0.21" transform="rotate(174.2 1657.5 782.7)"/>
    <path d="M 503.9259950583963,699.1102767938515 C 553.1473903598949,740.128106211767 569.554522127061,797.5530673968486 503.9259950583963,863.1815944655133 C 438.2974679897317,797.5530673968486 454.70459975689784,740.128106211767 503.9259950583963,699.1102767938515 Z" fill="url(#leaf13)" opacity="0.36" transform="rotate(350.7 503.9 781.1)"/>
    <path d="M 1132.6441220564623,223.87136315545123 C 1180.8928592441064,264.0786441451546 1196.9757716399877,320.36883753073937 1132.6441220564623,384.7004871142648 C 1068.3124724729369,320.36883753073937 1084.3953848688182,264.0786441451546 1132.6441220564623,223.87136315545123 Z" fill="url(#leaf14)" opacity="0.31" transform="rotate(317.4 1132.6 304.3)"/>
    <path d="M 344.733853364928,864.9312103046794 C 372.45675385226843,888.0336273774632 381.69772068138195,920.3770112793604 344.733853364928,957.3408785958144 C 307.76998604847404,920.3770112793604 317.01095287758756,888.0336273774632 344.733853364928,864.9312103046794 Z" fill="url(#leaf15)" opacity="0.37" transform="rotate(76.4 344.7 911.1)"/>
    <path d="M 202.83856198380386,851.3481749644911 C 258.13841780784463,897.4313881511918 276.5717030825249,961.9478866125726 202.83856198380386,1035.6810277112936 C 129.10542088508282,961.9478866125726 147.5387061597631,897.4313881511918 202.83856198380386,851.3481749644911 Z" fill="url(#leaf16)" opacity="0.23" transform="rotate(330.1 202.8 943.5)"/>
    <path d="M 1685.3602188428,474.2496352959153 C 1732.8214505531657,513.8006617212202 1748.6418611232878,569.1720987166469 1685.3602188428,632.4537409971348 C 1622.078576562312,569.1720987166469 1637.898987132434,513.8006617212202 1685.3602188428,474.2496352959153 Z" fill="url(#leaf17)" opacity="0.32" transform="rotate(339.1 1685.4 553.4)"/>
    <path d="M 599.3707294202243,735.9533149727874 C 650.7266416862253,778.7499085277882 667.8452791082256,838.6651395047894 599.3707294202243,907.1396891927907 C 530.896179732223,838.6651395047894 548.0148171542232,778.7499085277882 599.3707294202243,735.9533149727874 Z" fill="url(#leaf18)" opacity="0.29" transform="rotate(166.9 599.4 821.5)"/>
    <path d="M 302.30426849950425,112.67736251098796 C 339.67915978345883,143.82310524761675 352.13745687811036,187.4271450788971 302.30426849950425,237.26033345750318 C 252.47108012089816,187.4271450788971 264.92937721554966,143.82310524761675 302.30426849950425,112.67736251098796 Z" fill="url(#leaf19)" opacity="0.32" transform="rotate(150.5 302.3 175.0)"/>
    <path d="M 1687.0949173637116,-35.99924167658358 C 1744.9516655950242,12.214715182843648 1764.237248338795,79.71425478604176 1687.0949173637116,156.85658576112533 C 1609.952586388628,79.71425478604176 1629.238169132399,12.214715182843648 1687.0949173637116,-35.99924167658358 Z" fill="url(#leaf0)" opacity="0.21" transform="rotate(86.0 1687.1 60.4)"/>
    <path d="M 1783.4993393703,956.8259457935553 C 1821.477474470755,988.474391710601 1834.1368528375733,1032.782215994465 1783.4993393703,1083.4197294617384 C 1732.8618259030268,1032.782215994465 1745.5212042698452,988.474391710601 1783.4993393703,956.8259457935553 Z" fill="url(#leaf1)" opacity="0.40" transform="rotate(246.7 1783.5 1020.1)"/>
    <path d="M 415.30835191866396,-9.49392491291897 C 467.81028543385247,34.25768634973812 485.3109299389153,95.50994211745805 415.30835191866396,165.5125201377094 C 345.3057738984126,95.50994211745805 362.80641840347545,34.25768634973812 415.30835191866396,-9.49392491291897 Z" fill="url(#leaf2)" opacity="0.24" transform="rotate(32.0 415.3 78.0)"/>
    <path d="M 1833.923360095431,974.6910266493271 C 1861.4337608386647,997.6163606020219 1870.6038944197426,1029.7118281357946 1833.923360095431,1066.3923624601061 C 1797.2428257711194,1029.7118281357946 1806.4129593521973,997.6163606020219 1833.923360095431,974.6910266493271 Z" fill="url(#leaf3)" opacity="0.26" transform="rotate(335.3 1833.9 1020.5)"/>
    <path d="M 1264.8796214435752,801.3150764359428 C 1301.0476766101017,831.4551224080483 1313.1036949989439,873.651186768996 1264.8796214435752,921.8752603243648 C 1216.6555478882065,873.651186768996 1228.7115662770486,831.4551224080483 1264.8796214435752,801.3150764359428 Z" fill="url(#leaf4)" opacity="0.29" transform="rotate(18.1 1264.9 861.6)"/>
    <path d="M 1563.2460785238147,583.1804985772104 C 1589.262396403992,604.8607634773581 1597.934502364051,635.2131343375648 1563.2460785238147,669.9015581778011 C 1528.5576546835784,635.2131343375648 1537.2297606436375,604.8607634773581 1563.2460785238147,583.1804985772104 Z" fill="url(#leaf5)" opacity="0.25" transform="rotate(71.1 1563.2 626.5)"/>
    <path d="M 353.3813101708143,315.6686821418819 C 398.48828466931593,353.25782755729995 413.5239428354832,405.8826311388852 353.3813101708143,466.0252638035541 C 293.2386775061454,405.8826311388852 308.27433567231265,353.25782755729995 353.3813101708143,315.6686821418819 Z" fill="url(#leaf6)" opacity="0.32" transform="rotate(356.5 353.4 390.8)"/>
    <path d="M 1136.080667438762,249.2693577892123 C 1171.9774165185636,279.1833153557137 1183.9429995451642,321.06285594881564 1136.080667438762,368.92518805521786 C 1088.2183353323599,321.06285594881564 1100.1839183589605,279.1833153557137 1136.080667438762,249.2693577892123 Z" fill="url(#leaf7)" opacity="0.39" transform="rotate(76.9 1136.1 309.1)"/>
    <path d="M 83.64339489086464,41.359734353501125 C 111.29729199798913,64.4046486094382 120.51525770036396,96.6675285677501 83.64339489086464,133.53939137724942 C 46.77153208136532,96.6675285677501 55.989497783740156,64.4046486094382 83.64339489086464,41.359734353501125 Z" fill="url(#leaf8)" opacity="0.36" transform="rotate(174.0 83.6 87.4)"/>
    <path d="M 1676.087167330253,256.4140438471492 C 1719.6070165037809,292.6805848250891 1734.113632894957,343.453742194205 1676.087167330253,401.48020775890893 C 1618.0607017655489,343.453742194205 1632.567318156725,292.6805848250891 1676.087167330253,256.4140438471492 Z" fill="url(#leaf9)" opacity="0.30" transform="rotate(83.6 1676.1 328.9)"/>
    <path d="M 1851.3038905464437,473.4502075246353 C 1900.3182240477759,514.2954854424122 1916.6563352148867,571.4788745272999 1851.3038905464437,636.8313191957429 C 1785.9514458780006,571.4788745272999 1802.2895570451115,514.2954854424122 1851.3038905464437,473.4502075246353 Z" fill="url(#leaf10)" opacity="0.27" transform="rotate(175.4 1851.3 555.1)"/>
    <path d="M 1512.7545564693753,619.0193443741164 C 1560.5832059446993,658.8765522702198 1576.5260891031407,714.6766433247647 1512.7545564693753,778.4481759585301 C 1448.9830238356099,714.6766433247647 1464.9259069940513,658.8765522702198 1512.7545564693753,619.0193443741164 Z" fill="url(#leaf11)" opacity="0.30" transform="rotate(202.0 1512.8 698.7)"/>
    <path d="M 1667.4195393578862,629.8436831757413 C 1724.243575390969,677.1970465366435 1743.1849207353298,743.4917552419067 1667.4195393578862,819.2571366193504 C 1591.6541579804425,743.4917552419067 1610.5955033248033,677.1970465366435 1667.4195393578862,629.8436831757413 Z" fill="url(#leaf12)" opacity="0.36" transform="rotate(66.3 1667.4 724.6)"/>
    <path d="M 1731.938085653448,143.4982228324182 C 1777.3672997193266,181.3559012206504 1792.5103710746196,234.35665096417543 1731.938085653448,294.9289363853469 C 1671.3658002322766,234.35665096417543 1686.5088715875695,181.3559012206504 1731.938085653448,143.4982228324182 Z" fill="url(#leaf13)" opacity="0.23" transform="rotate(260.5 1731.9 219.2)"/>
    <path d="M 1193.0619172721842,595.2773720151374 C 1247.1439982432867,640.3457728243895 1265.1713585669875,703.4415339573424 1193.0619172721842,775.5509752521457 C 1120.952475977381,703.4415339573424 1138.9798363010818,640.3457728243895 1193.0619172721842,595.2773720151374 Z" fill="url(#leaf14)" opacity="0.29" transform="rotate(274.3 1193.1 685.4)"/>
    <path d="M 1688.5084350771217,463.05463496091113 C 1734.37272367081,501.2748754556514 1749.660819868706,554.7832121482878 1688.5084350771217,615.9355969398722 C 1627.3560502855373,554.7832121482878 1642.6441464834334,501.2748754556514 1688.5084350771217,463.05463496091113 Z" fill="url(#leaf15)" opacity="0.36" transform="rotate(73.0 1688.5 539.5)"/>
    <path d="M 975.0562487917808,185.7474284720303 C 1019.172370171373,222.5108629550238 1033.8777439645705,273.97967123121475 975.0562487917808,332.80116640400445 C 916.2347536189911,273.97967123121475 930.9401274121886,222.5108629550238 975.0562487917808,185.7474284720303 Z" fill="url(#leaf16)" opacity="0.26" transform="rotate(228.2 975.1 259.3)"/>
    <path d="M 468.8463357366001,553.160049902247 C 493.2804101952657,573.5217786178016 501.42510168148755,602.0281988195782 468.8463357366001,634.6069647644656 C 436.2675697917127,602.0281988195782 444.41226127793453,573.5217786178016 468.8463357366001,553.160049902247 Z" fill="url(#leaf17)" opacity="0.36" transform="rotate(167.6 468.8 593.9)"/>
    <path d="M 880.7113056324008,658.4196093827476 C 924.9653411330996,695.2979722999966 939.7166862999992,746.9276803841451 880.7113056324008,805.9330610517435 C 821.7059249648024,746.9276803841451 836.457270131702,695.2979722999966 880.7113056324008,658.4196093827476 Z" fill="url(#leaf18)" opacity="0.24" transform="rotate(227.4 880.7 732.2)"/>
    <path d="M 1331.6833933417836,360.6201566963814 C 1372.344656152653,394.50454237210585 1385.8984104229426,441.9426823181201 1331.6833933417836,496.1576993992792 C 1277.4683762606246,441.9426823181201 1291.0221305309142,394.50454237210585 1331.6833933417836,360.6201566963814 Z" fill="url(#leaf19)" opacity="0.31" transform="rotate(323.1 1331.7 428.4)"/>
    <path d="M 1820.9278895656817,141.65885341458005 C 1865.2655680811329,178.60691884412267 1880.0447942529497,230.3342104454823 1820.9278895656817,289.4511151327505 C 1761.8109848784136,230.3342104454823 1776.5902110502304,178.60691884412267 1820.9278895656817,141.65885341458005 Z" fill="url(#leaf0)" opacity="0.35" transform="rotate(234.2 1820.9 215.6)"/>
    <path d="M 959.0049299424093,108.8396493252528 C 1013.9295101413798,154.61013282439484 1032.2377035410366,218.68880972319366 959.0049299424093,291.9215833218209 C 885.7721563437821,218.68880972319366 904.0803497434388,154.61013282439484 959.0049299424093,108.8396493252528 Z" fill="url(#leaf1)" opacity="0.25" transform="rotate(67.2 959.0 200.4)"/>
    <path d="M 778.4001740436546,548.4686955079204 C 818.3727618411674,581.779185339181 831.6969577736716,628.4138711029459 778.4001740436546,681.7106548329629 C 725.1033903136376,628.4138711029459 738.4275862461418,581.779185339181 778.4001740436546,548.4686955079204 Z" fill="url(#leaf2)" opacity="0.25" transform="rotate(57.6 778.4 615.1)"/>
    <path d="M 985.8580882464427,-30.571163779289577 C 1042.79395309721,16.875390263016627 1061.7725747141326,83.30056592224531 985.8580882464427,159.21505238993524 C 909.9436017787527,83.30056592224531 928.9222233956752,16.875390263016627 985.8580882464427,-30.571163779289577 Z" fill="url(#leaf3)" opacity="0.33" transform="rotate(143.5 985.9 64.3)"/>
    <path d="M 471.41930020048727,391.01896749470296 C 502.7069965074985,417.09204775054565 513.1362286098356,453.5943601087255 471.41930020048727,495.3112885180738 C 429.70237179113894,453.5943601087255 440.13160389347604,417.09204775054565 471.41930020048727,391.01896749470296 Z" fill="url(#leaf4)" opacity="0.39" transform="rotate(303.5 471.4 443.2)"/>
    <path d="M 948.0946882475469,451.23353739376046 C 997.5967739734657,492.48527549869283 1014.0974692154387,550.2377088455981 948.0946882475469,616.24048981349 C 882.0919072796551,550.2377088455981 898.592602521628,492.48527549869283 948.0946882475469,451.23353739376046 Z" fill="url(#leaf5)" opacity="0.38" transform="rotate(247.9 948.1 533.7)"/>
    <path d="M 803.5864171635017,153.4115738463443 C 828.6173546459443,174.27068841504652 836.9610004734252,203.47344881122962 803.5864171635017,236.84803212115315 C 770.2118338535781,203.47344881122962 778.5554796810591,174.27068841504652 803.5864171635017,153.4115738463443 Z" fill="url(#leaf6)" opacity="0.39" transform="rotate(168.0 803.6 195.1)"/>
    <path d="M 710.7713126444693,423.16737727907207 C 752.9727318984442,458.33522665738457 767.0398716497692,507.570215787022 710.7713126444693,563.8387747923219 C 654.5027536391693,507.570215787022 668.5698933904944,458.33522665738457 710.7713126444693,423.16737727907207 Z" fill="url(#leaf7)" opacity="0.29" transform="rotate(68.2 710.8 493.5)"/>
    <path d="M 1441.7588212441913,711.5515889121865 C 1499.4903070740102,759.6611604370355 1518.7341356839497,827.0145605718242 1441.7588212441913,903.9898750115825 C 1364.7835068044328,827.0145605718242 1384.0273354143724,759.6611604370355 1441.7588212441913,711.5515889121865 Z" fill="url(#leaf8)" opacity="0.21" transform="rotate(151.7 1441.8 807.8)"/>
    <path d="M 96.63389920060797,798.8737264324961 C 144.51027796997778,838.7707087403043 160.46907089310105,894.6264839712358 96.63389920060797,958.4616556637288 C 32.79872750811488,894.6264839712358 48.757520431238156,838.7707087403043 96.63389920060797,798.8737264324961 Z" fill="url(#leaf9)" opacity="0.39" transform="rotate(35.5 96.6 878.7)"/>
    <path d="M 55.71617572986173,67.35055365540482 C 94.32444318644545,99.52410986922459 107.19386567197336,144.56708856857225 55.71617572986173,196.04477851068384 C 4.238485787750115,144.56708856857225 17.10790827327802,99.52410986922459 55.71617572986173,67.35055365540482 Z" fill="url(#leaf10)" opacity="0.23" transform="rotate(252.9 55.7 131.7)"/>
    <path d="M 1049.047751288649,828.1932793574354 C 1096.4553162940929,867.6995835286386 1112.2578379625743,923.0084093683232 1049.047751288649,986.2184960422485 C 985.8376646147236,923.0084093683232 1001.6401862832049,867.6995835286386 1049.047751288649,828.1932793574354 Z" fill="url(#leaf11)" opacity="0.28" transform="rotate(67.7 1049.0 907.2)"/>
    <path d="M 112.3433207235162,734.5337070150779 C 138.77783718942118,756.5624707366654 147.5893426780562,787.4027399468879 112.3433207235162,822.6487619014279 C 77.09729876897622,787.4027399468879 85.90880425761122,756.5624707366654 112.3433207235162,734.5337070150779 Z" fill="url(#leaf12)" opacity="0.39" transform="rotate(275.9 112.3 778.6)"/>
    <path d="M 1024.1689150561915,621.4536933355556 C 1067.3364985496562,657.4266795801095 1081.7256930474778,707.7888603224851 1024.1689150561915,765.3456383137715 C 966.6121370649051,707.7888603224851 981.0013315627267,657.4266795801095 1024.1689150561915,621.4536933355556 Z" fill="url(#leaf13)" opacity="0.28" transform="rotate(350.0 1024.2 693.4)"/>
    <path d="M 225.27746034091342,449.4908043453704 C 278.53438778997037,493.87157721958454 296.28669693965605,556.0046592434843 225.27746034091342,627.0138958422269 C 154.2682237421708,556.0046592434843 172.02053289185648,493.87157721958454 225.27746034091342,449.4908043453704 Z" fill="url(#leaf14)" opacity="0.29" transform="rotate(116.4 225.3 538.3)"/>
    <path d="M 207.99502657122343,188.42837791231426 C 243.46190684559033,217.98411147428666 255.2842002703793,259.362138461048 207.99502657122343,306.6513121602039 C 160.70585287206757,259.362138461048 172.52814629685653,217.98411147428666 207.99502657122343,188.42837791231426 Z" fill="url(#leaf15)" opacity="0.31" transform="rotate(246.1 208.0 247.5)"/>
    <path d="M 1372.822966316664,709.9706280042249 C 1426.4396130944356,754.6511669857011 1444.311828687026,817.2039215597681 1372.822966316664,888.6927839301302 C 1301.3341039463019,817.2039215597681 1319.2063195388923,754.6511669857011 1372.822966316664,709.9706280042249 Z" fill="url(#leaf16)" opacity="0.31" transform="rotate(245.4 1372.8 799.3)"/>
    <path d="M 1377.891909467803,312.91896007777575 C 1430.6279127865876,356.86562951009614 1448.2065805595157,418.39096671534463 1377.891909467803,488.7056378070572 C 1307.5772383760905,418.39096671534463 1325.1559061490186,356.86562951009614 1377.891909467803,312.91896007777575 Z" fill="url(#leaf17)" opacity="0.23" transform="rotate(66.8 1377.9 400.8)"/>
    <path d="M 1795.9482912772062,580.4611580281822 C 1835.70893726224,613.5950296823769 1848.9624859239177,659.9824499982495 1795.9482912772062,712.9966446449611 C 1742.9340966304947,659.9824499982495 1756.1876452921724,613.5950296823769 1795.9482912772062,580.4611580281822 Z" fill="url(#leaf18)" opacity="0.26" transform="rotate(335.5 1795.9 646.7)"/>
    <path d="M 1159.4305491652049,340.11917785591777 C 1183.8573302264456,360.474828740285 1191.9995905801925,388.9727399783991 1159.4305491652049,421.5417813933866 C 1126.8615077502172,388.9727399783991 1135.0037681039641,360.474828740285 1159.4305491652049,340.11917785591777 Z" fill="url(#leaf19)" opacity="0.37" transform="rotate(176.7 1159.4 380.8)"/>
    <path d="M 261.2561011966111,981.9444524908754 C 286.62597284576316,1003.0860121985021 295.0825967288138,1032.6841957891795 261.2561011966111,1066.5106913213822 C 227.42960566440834,1032.6841957891795 235.88622954745904,1003.0860121985021 261.2561011966111,981.9444524908754 Z" fill="url(#leaf0)" opacity="0.39" transform="rotate(277.0 261.3 1024.2)"/>
    <path d="M 590.6604078386172,752.9981188968524 C 645.7111765804002,798.873759515005 664.0614328276612,863.0996563804184 590.6604078386172,936.5006813694625 C 517.2593828495732,863.0996563804184 535.6096390968341,798.873759515005 590.6604078386172,752.9981188968524 Z" fill="url(#leaf1)" opacity="0.31" transform="rotate(92.3 590.7 844.7)"/>
    <path d="M 1558.2201366263803,832.6525942491842 C 1613.3088087697192,878.5598210353 1631.6716994841656,942.8299385358623 1558.2201366263803,1016.2815013936477 C 1484.768573768595,942.8299385358623 1503.1314644830413,878.5598210353 1558.2201366263803,832.6525942491842 Z" fill="url(#leaf2)" opacity="0.36" transform="rotate(105.1 1558.2 924.5)"/>
    <path d="M 1837.610893927203,574.0394566676675 C 1871.023677309456,601.883442819545 1882.1612717702071,640.8650234321735 1837.610893927203,685.4154012751776 C 1793.060516084199,640.8650234321735 1804.1981105449502,601.883442819545 1837.610893927203,574.0394566676675 Z" fill="url(#leaf3)" opacity="0.32" transform="rotate(303.9 1837.6 629.7)"/>
    <path d="M 840.5947186991265,282.73616939472504 C 883.5594770373858,318.54013467660786 897.881063150139,368.6656860712437 840.5947186991265,425.9520305222562 C 783.308374248114,368.6656860712437 797.6299603608671,318.54013467660786 840.5947186991265,282.73616939472504 Z" fill="url(#leaf4)" opacity="0.35" transform="rotate(246.9 840.6 354.3)"/>
    <path d="M 1080.058379774965,812.1833343160354 C 1123.1076006264695,848.0576850256225 1137.4573409103043,898.2817760190444 1080.058379774965,955.6807371543837 C 1022.6594186396258,898.2817760190444 1037.0091589234605,848.0576850256225 1080.058379774965,812.1833343160354 Z" fill="url(#leaf5)" opacity="0.34" transform="rotate(15.0 1080.1 883.9)"/>
    <path d="M 904.6460952900386,280.6480953493021 C 963.1797396239001,329.42613229418663 982.6909544018539,397.715384017025 904.6460952900386,475.7602431288403 C 826.6012361782233,397.715384017025 846.1124509561771,329.42613229418663 904.6460952900386,280.6480953493021 Z" fill="url(#leaf6)" opacity="0.34" transform="rotate(257.1 904.6 378.2)"/>
    <path d="M 1443.9651633088415,90.67100925442807 C 1502.9926147880976,139.8605521538081 1522.6684319478495,208.72591221294016 1443.9651633088415,287.4291808519482 C 1365.2618946698335,208.72591221294016 1384.9377118295854,139.8605521538081 1443.9651633088415,90.67100925442807 Z" fill="url(#leaf7)" opacity="0.31" transform="rotate(251.0 1444.0 189.1)"/>
    <path d="M 1120.4853053099337,809.891809709486 C 1145.6590530610292,830.869932835399 1154.0503023113945,860.2393052116773 1120.4853053099337,893.8043022131382 C 1086.9203083084728,860.2393052116773 1095.311557558838,830.869932835399 1120.4853053099337,809.891809709486 Z" fill="url(#leaf8)" opacity="0.26" transform="rotate(72.7 1120.5 851.8)"/>
    <path d="M 1649.4849988758065,259.2527644388008 C 1699.1479140056497,300.6385270470034 1715.7022190489306,358.57859469848705 1649.4849988758065,424.79581487161124 C 1583.2677787026823,358.57859469848705 1599.8220837459633,300.6385270470034 1649.4849988758065,259.2527644388008 Z" fill="url(#leaf9)" opacity="0.27" transform="rotate(64.1 1649.5 342.0)"/>
    <path d="M 1845.2985107395386,767.9278290743533 C 1891.7190423065535,806.6116053801991 1907.1925528288918,860.768892208383 1845.2985107395386,922.6629342977361 C 1783.4044686501854,860.768892208383 1798.8779791725237,806.6116053801991 1845.2985107395386,767.9278290743533 Z" fill="url(#leaf10)" opacity="0.36" transform="rotate(298.5 1845.3 845.3)"/>
    <path d="M 1546.5252789430185,699.0180559716845 C 1598.7434948712125,742.5332359118461 1616.1495668472771,803.4544878280723 1546.5252789430185,873.0787757323309 C 1476.90099103876,803.4544878280723 1494.3070630148245,742.5332359118461 1546.5252789430185,699.0180559716845 Z" fill="url(#leaf11)" opacity="0.28" transform="rotate(200.5 1546.5 786.0)"/>
    <path d="M 1421.0609087713608,670.9051420206097 C 1457.4490062707396,701.2285566034253 1469.5783721038658,743.6813370193672 1421.0609087713608,792.1988003518723 C 1372.5434454388558,743.6813370193672 1384.672811271982,701.2285566034253 1421.0609087713608,670.9051420206097 Z" fill="url(#leaf12)" opacity="0.39" transform="rotate(333.4 1421.1 731.6)"/>
    <path d="M 1227.3427566528435,142.61945896413684 C 1277.1233300361469,184.1032701168897 1293.716854497248,242.18060573074368 1227.3427566528435,308.5547035751482 C 1160.968658808439,242.18060573074368 1177.5621832695401,184.1032701168897 1227.3427566528435,142.61945896413684 Z" fill="url(#leaf13)" opacity="0.37" transform="rotate(281.6 1227.3 225.6)"/>
    <path d="M 764.4358622484829,65.42200550308834 C 820.1477709184442,111.84859606138942 838.7184071417646,176.84582284301092 764.4358622484829,251.12836773629263 C 690.1533173552011,176.84582284301092 708.7239535785216,111.84859606138942 764.4358622484829,65.42200550308834 Z" fill="url(#leaf14)" opacity="0.28" transform="rotate(174.6 764.4 158.3)"/>
    <path d="M 1545.0257594314116,297.0393951934746 C 1580.5772900628162,326.66567071964505 1592.4278002732844,368.1424564562837 1545.0257594314116,415.5444972981564 C 1497.6237185895388,368.1424564562837 1509.474228800007,326.66567071964505 1545.0257594314116,297.0393951934746 Z" fill="url(#leaf15)" opacity="0.32" transform="rotate(121.1 1545.0 356.3)"/>
    <path d="M 1063.6614969005032,611.8270260516704 C 1120.2886095417184,659.0162865860163 1139.1643137554568,725.0812513341007 1063.6614969005032,800.5840681890543 C 988.1586800455495,725.0812513341007 1007.0343842592879,659.0162865860163 1063.6614969005032,611.8270260516704 Z" fill="url(#leaf16)" opacity="0.38" transform="rotate(35.7 1063.7 706.2)"/>
    <path d="M 1602.1876568225136,922.4928902826992 C 1650.8834915296518,963.0727525386477 1667.1154364320312,1019.8845596969757 1602.1876568225136,1084.8123393064934 C 1537.2598772129961,1019.8845596969757 1553.4918221153755,963.0727525386477 1602.1876568225136,922.4928902826992 Z" fill="url(#leaf17)" opacity="0.20" transform="rotate(355.0 1602.2 1003.7)"/>
    <path d="M 824.3803625503048,501.3766398318096 C 851.4038543115394,523.8962162995051 860.4116848986175,555.4236233542788 824.3803625503048,591.4549457025917 C 788.349040201992,555.4236233542788 797.3568707890702,523.8962162995051 824.3803625503048,501.3766398318096 Z" fill="url(#leaf18)" opacity="0.35" transform="rotate(2.8 824.4 546.4)"/>
  </g>

  <!-- Central star shape -->
  <polygon points="960.0,312.6 1026.8,448.0 1176.3,469.7 1068.1,575.1 1093.7,724.0 960.0,653.7 826.3,724.0 851.9,575.1 743.7,469.7 893.2,448.0" 
           fill="#9370DB" 
           transform="rotate(346.7 960.0 540.0)"/>
</svg>