<?xml version="1.0" encoding="UTF-8"?>
<svg xmlns="http://www.w3.org/2000/svg" viewBox="0 0 1920 1080" width="1920" height="1080">
  <defs>
    <linearGradient id="bgGrad" x1="0%" y1="0%" x2="100%" y2="100%">
      <stop offset="0%" stop-color="#7B68EE"/>
      <stop offset="100%" stop-color="#FFE66D"/>
    </linearGradient>
    <clipPath id="complexClip"><polygon points="1302.4,540.0 1434.3,596.7 1455.0,664.0 1418.6,727.4 1199.0,689.3 1218.7,792.0 1115.3,808.9 1004.2,776.8 924.5,730.2 841.9,744.5 748.0,746.6 608.6,759.5 633.7,673.3 568.4,638.1 555.4,588.4 573.0,540.0 591.7,496.0 551.9,437.8 659.9,417.3 680.7,365.5 791.5,375.8 785.9,238.6 912.8,287.6 1014.4,248.9 1099.7,298.1 1201.5,304.7 1329.2,309.4 1389.3,364.5 1460.4,414.7 1307.0,498.5"/></clipPath>
    <radialGradient id="leaf0" cx="50%" cy="50%" r="70%">
      <stop offset="0%" stop-color="#32CD32"/>
      <stop offset="50%" stop-color="#FF1493"/>
      <stop offset="100%" stop-color="#96E6A1"/>
    </radialGradient>
    <radialGradient id="leaf1" cx="50%" cy="50%" r="70%">
      <stop offset="0%" stop-color="#45B7D1"/>
      <stop offset="50%" stop-color="#4ECDC4"/>
      <stop offset="100%" stop-color="#FFD700"/>
    </radialGradient>
    <radialGradient id="leaf2" cx="50%" cy="50%" r="70%">
      <stop offset="0%" stop-color="#DC143C"/>
      <stop offset="50%" stop-color="#00FA9A"/>
      <stop offset="100%" stop-color="#FF1493"/>
    </radialGradient>
    <radialGradient id="leaf3" cx="50%" cy="50%" r="70%">
      <stop offset="0%" stop-color="#7B68EE"/>
      <stop offset="50%" stop-color="#32CD32"/>
      <stop offset="100%" stop-color="#9370DB"/>
    </radialGradient>
    <radialGradient id="leaf4" cx="50%" cy="50%" r="70%">
      <stop offset="0%" stop-color="#FF4500"/>
      <stop offset="50%" stop-color="#00FA9A"/>
      <stop offset="100%" stop-color="#DC143C"/>
    </radialGradient>
    <radialGradient id="leaf5" cx="50%" cy="50%" r="70%">
      <stop offset="0%" stop-color="#9370DB"/>
      <stop offset="50%" stop-color="#FF4500"/>
      <stop offset="100%" stop-color="#4ECDC4"/>
    </radialGradient>
    <radialGradient id="leaf6" cx="50%" cy="50%" r="70%">
      <stop offset="0%" stop-color="#32CD32"/>
      <stop offset="50%" stop-color="#DC143C"/>
      <stop offset="100%" stop-color="#00FA9A"/>
    </radialGradient>
    <radialGradient id="leaf7" cx="50%" cy="50%" r="70%">
      <stop offset="0%" stop-color="#FF69B4"/>
      <stop offset="50%" stop-color="#9370DB"/>
      <stop offset="100%" stop-color="#FFE66D"/>
    </radialGradient>
    <radialGradient id="leaf8" cx="50%" cy="50%" r="70%">
      <stop offset="0%" stop-color="#00FA9A"/>
      <stop offset="50%" stop-color="#32CD32"/>
      <stop offset="100%" stop-color="#FF6B6B"/>
    </radialGradient>
    <radialGradient id="leaf9" cx="50%" cy="50%" r="70%">
      <stop offset="0%" stop-color="#32CD32"/>
      <stop offset="50%" stop-color="#FF6B6B"/>
      <stop offset="100%" stop-color="#45B7D1"/>
    </radialGradient>
    <radialGradient id="leaf10" cx="50%" cy="50%" r="70%">
      <stop offset="0%" stop-color="#FF4500"/>
      <stop offset="50%" stop-color="#32CD32"/>
      <stop offset="100%" stop-color="#FFD700"/>
    </radialGradient>
    <radialGradient id="leaf11" cx="50%" cy="50%" r="70%">
      <stop offset="0%" stop-color="#FF4500"/>
      <stop offset="50%" stop-color="#FFE66D"/>
      <stop offset="100%" stop-color="#FFD700"/>
    </radialGradient>
    <radialGradient id="leaf12" cx="50%" cy="50%" r="70%">
      <stop offset="0%" stop-color="#00FA9A"/>
      <stop offset="50%" stop-color="#96E6A1"/>
      <stop offset="100%" stop-color="#FF69B4"/>
    </radialGradient>
    <radialGradient id="leaf13" cx="50%" cy="50%" r="70%">
      <stop offset="0%" stop-color="#00CED1"/>
      <stop offset="50%" stop-color="#FF4500"/>
      <stop offset="100%" stop-color="#FF1493"/>
    </radialGradient>
    <radialGradient id="leaf14" cx="50%" cy="50%" r="70%">
      <stop offset="0%" stop-color="#9370DB"/>
      <stop offset="50%" stop-color="#4ECDC4"/>
      <stop offset="100%" stop-color="#00FA9A"/>
    </radialGradient>
    <radialGradient id="leaf15" cx="50%" cy="50%" r="70%">
      <stop offset="0%" stop-color="#7B68EE"/>
      <stop offset="50%" stop-color="#96E6A1"/>
      <stop offset="100%" stop-color="#00FA9A"/>
    </radialGradient>
    <radialGradient id="leaf16" cx="50%" cy="50%" r="70%">
      <stop offset="0%" stop-color="#FFD700"/>
      <stop offset="50%" stop-color="#9370DB"/>
      <stop offset="100%" stop-color="#00FA9A"/>
    </radialGradient>
    <radialGradient id="leaf17" cx="50%" cy="50%" r="70%">
      <stop offset="0%" stop-color="#FF4500"/>
      <stop offset="50%" stop-color="#FFD700"/>
      <stop offset="100%" stop-color="#FF1493"/>
    </radialGradient>
    <radialGradient id="leaf18" cx="50%" cy="50%" r="70%">
      <stop offset="0%" stop-color="#7B68EE"/>
      <stop offset="50%" stop-color="#FF4500"/>
      <stop offset="100%" stop-color="#32CD32"/>
    </radialGradient>
    <radialGradient id="leaf19" cx="50%" cy="50%" r="70%">
      <stop offset="0%" stop-color="#FF69B4"/>
      <stop offset="50%" stop-color="#FF4500"/>
      <stop offset="100%" stop-color="#FFE66D"/>
    </radialGradient>
  </defs>

  <!-- Background -->
  <rect width="1920" height="1080" fill="url(#bgGrad)"/>
  
  <!-- Leaves with clip-path -->
  <g clip-path="url(#complexClip)">
    <path d="M 523.0907777268878,343.10071876868767 C 570.8200545112054,382.8751160889524 586.7298134393113,438.5592723373229 523.0907777268878,502.1983080497464 C 459.45174201446434,438.5592723373229 475.3615009425702,382.8751160889524 523.0907777268878,343.10071876868767 Z" fill="url(#leaf0)" opacity="0.29" transform="rotate(357.6 523.1 422.6)"/>
    <path d="M 133.71854142698027,413.80355895777194 C 164.32700506578468,439.31061199010895 174.5298262787195,475.02048623538076 133.71854142698027,515.8317710871199 C 92.90725657524104,475.02048623538076 103.11007778817586,439.31061199010895 133.71854142698027,413.80355895777194 Z" fill="url(#leaf1)" opacity="0.22" transform="rotate(219.8 133.7 464.8)"/>
    <path d="M 1541.7078212724948,4.595315983868488 C 1589.5455915431726,44.46012454276659 1605.4915149667318,100.27085652522393 1541.7078212724948,164.0545502194609 C 1477.9241275782579,100.27085652522393 1493.870051001817,44.46012454276659 1541.7078212724948,4.595315983868488 Z" fill="url(#leaf2)" opacity="0.39" transform="rotate(17.4 1541.7 84.3)"/>
    <path d="M 546.7570790563092,668.4749388615545 C 583.5674870103604,699.1502788232639 595.8376229950442,742.095754769657 546.7570790563092,791.176298708392 C 497.6765351175742,742.095754769657 509.94667110225794,699.1502788232639 546.7570790563092,668.4749388615545 Z" fill="url(#leaf3)" opacity="0.34" transform="rotate(319.4 546.8 729.8)"/>
    <path d="M 1228.2737458800339,307.34915623510426 C 1283.4343655951368,353.31633933102336 1301.8212388335044,417.67039566531 1228.2737458800339,491.21788861878053 C 1154.7262529265633,417.67039566531 1173.113126164931,353.31633933102336 1228.2737458800339,307.34915623510426 Z" fill="url(#leaf4)" opacity="0.22" transform="rotate(9.4 1228.3 399.3)"/>
    <path d="M 835.1487849303728,751.4364892924244 C 865.8991490256562,777.0617927051607 876.1492703907506,812.9372174829913 835.1487849303728,853.9377029433691 C 794.148299469995,812.9372174829913 804.3984208350894,777.0617927051607 835.1487849303728,751.4364892924244 Z" fill="url(#leaf5)" opacity="0.33" transform="rotate(71.7 835.1 802.7)"/>
    <path d="M 1767.3731311411386,265.1920810951868 C 1793.528923344611,286.9885745980805 1802.2475207457687,317.5036655021318 1767.3731311411386,352.3780551067618 C 1732.4987415365085,317.5036655021318 1741.2173389376662,286.9885745980805 1767.3731311411386,265.1920810951868 Z" fill="url(#leaf6)" opacity="0.29" transform="rotate(116.5 1767.4 308.8)"/>
    <path d="M 920.8919338003409,912.8898801275934 C 951.7462840860644,938.6018386990297 962.0310675146388,974.5985806990404 920.8919338003409,1015.7377144133384 C 879.752800086043,974.5985806990404 890.0375835146174,938.6018386990297 920.8919338003409,912.8898801275934 Z" fill="url(#leaf7)" opacity="0.31" transform="rotate(66.3 920.9 964.3)"/>
    <path d="M 873.7718599893786,824.7939517434058 C 933.3193507622123,874.4168607207672 953.1685143531568,943.8889332890731 873.7718599893786,1023.2855876528513 C 794.3752056256005,943.8889332890731 814.224369216545,874.4168607207672 873.7718599893786,824.7939517434058 Z" fill="url(#leaf8)" opacity="0.39" transform="rotate(48.2 873.8 924.0)"/>
    <path d="M 836.4888102720948,612.2253765476604 C 887.3880597485594,654.6414177780475 904.3544762407142,714.0238755005895 836.4888102720948,781.8895414692089 C 768.6231443034754,714.0238755005895 785.5895607956303,654.6414177780475 836.4888102720948,612.2253765476604 Z" fill="url(#leaf9)" opacity="0.39" transform="rotate(267.6 836.5 697.1)"/>
    <path d="M 172.91902779167987,36.50628412977514 C 210.2077260067888,67.58019930903257 222.63729207849175,111.08368055999296 172.91902779167987,160.80194484680484 C 123.20076350486798,111.08368055999296 135.63032957657094,67.58019930903257 172.91902779167987,36.50628412977514 Z" fill="url(#leaf10)" opacity="0.31" transform="rotate(59.4 172.9 98.7)"/>
    <path d="M 175.1711461429722,821.9673330095055 C 218.35444713920708,857.9534171730346 232.74888080461872,908.3339350019753 175.1711461429722,965.9116696636219 C 117.59341148132566,908.3339350019753 131.9878451467373,857.9534171730346 175.1711461429722,821.9673330095055 Z" fill="url(#leaf11)" opacity="0.33" transform="rotate(127.3 175.2 893.9)"/>
    <path d="M 1137.132263692443,478.8323866143899 C 1165.6072846062052,502.56157070919176 1175.098958244126,535.7824284419142 1137.132263692443,573.7491229935971 C 1099.1655691407602,535.7824284419142 1108.657242778681,502.56157070919176 1137.132263692443,478.8323866143899 Z" fill="url(#leaf12)" opacity="0.24" transform="rotate(36.0 1137.1 526.3)"/>
    <path d="M 393.3340511012152,427.9888047010866 C 436.385112716161,463.8646893802081 450.73546658780964,514.0909279309782 393.3340511012152,571.4923434175727 C 335.9326356146208,514.0909279309782 350.2829894862694,463.8646893802081 393.3340511012152,427.9888047010866 Z" fill="url(#leaf13)" opacity="0.28" transform="rotate(150.9 393.3 499.7)"/>
    <path d="M 1528.6476999159072,900.4859146628272 C 1578.8993026968697,942.3622503136293 1595.6498369571902,1000.989120224752 1528.6476999159072,1067.991257266035 C 1461.6455628746241,1000.989120224752 1478.3960971349447,942.3622503136293 1528.6476999159072,900.4859146628272 Z" fill="url(#leaf14)" opacity="0.30" transform="rotate(89.1 1528.6 984.2)"/>
    <path d="M 1254.9190047407487,860.8930461714409 C 1311.7934977451189,908.2884570084159 1330.7516620799088,974.642032180181 1254.9190047407487,1050.4746895193412 C 1179.0863474015887,974.642032180181 1198.0445117363786,908.2884570084159 1254.9190047407487,860.8930461714409 Z" fill="url(#leaf15)" opacity="0.32" transform="rotate(308.6 1254.9 955.7)"/>
    <path d="M 1471.4438977836496,241.49588948533525 C 1505.8438002217729,270.162474850438 1517.310434367814,310.29569436158187 1471.4438977836496,356.16223094574633 C 1425.5773611994853,310.29569436158187 1437.0439953455264,270.162474850438 1471.4438977836496,241.49588948533525 Z" fill="url(#leaf16)" opacity="0.32" transform="rotate(64.3 1471.4 298.8)"/>
    <path d="M 262.5745850117133,477.1474235733059 C 319.188423002108,524.3256218986348 338.05970233223957,590.3750995540953 262.5745850117133,665.8602168746216 C 187.089467691187,590.3750995540953 205.96074702131855,524.3256218986348 262.5745850117133,477.1474235733059 Z" fill="url(#leaf17)" opacity="0.27" transform="rotate(90.3 262.6 571.5)"/>
    <path d="M 1788.031559236794,61.155096679931916 C 1838.2144714265387,102.97419017138581 1854.9421088231202,161.52092105942128 1788.031559236794,228.4314706457475 C 1721.1210096504678,161.52092105942128 1737.8486470470493,102.97419017138581 1788.031559236794,61.155096679931916 Z" fill="url(#leaf18)" opacity="0.34" transform="rotate(304.2 1788.0 144.8)"/>
    <path d="M 772.7923554363216,855.4506589555315 C 821.5592094321061,896.0897039520186 837.8148274307009,952.9843669471005 772.7923554363216,1018.0068389414798 C 707.7698834419423,952.9843669471005 724.0255014405371,896.0897039520186 772.7923554363216,855.4506589555315 Z" fill="url(#leaf19)" opacity="0.38" transform="rotate(142.7 772.8 936.7)"/>
    <path d="M 1223.659394751167,350.67082077780253 C 1273.011137170262,391.797272793715 1289.461717976627,449.37430561599257 1223.659394751167,515.1766288414526 C 1157.857071525707,449.37430561599257 1174.307652332072,391.797272793715 1223.659394751167,350.67082077780253 Z" fill="url(#leaf0)" opacity="0.37" transform="rotate(96.6 1223.7 432.9)"/>
    <path d="M 128.83726168428132,532.7079154726632 C 158.99825073405486,557.8420730141411 169.05191375064604,593.0298935722102 128.83726168428132,633.2445456385749 C 88.6226096179166,593.0298935722102 98.67627263450778,557.8420730141411 128.83726168428132,532.7079154726632 Z" fill="url(#leaf1)" opacity="0.31" transform="rotate(133.3 128.8 583.0)"/>
    <path d="M 1041.0178052280773,283.2921488231742 C 1091.0428021871862,324.97964628909824 1107.7178011735557,383.3421427413918 1041.0178052280773,450.0421386868702 C 974.317809282599,383.3421427413918 990.9928082689686,324.97964628909824 1041.0178052280773,283.2921488231742 Z" fill="url(#leaf2)" opacity="0.39" transform="rotate(74.8 1041.0 366.7)"/>
    <path d="M 317.3008834212095,317.0731131621353 C 368.9268636417955,360.09476334595695 386.13552371532415,420.3250736033073 317.3008834212095,489.15971389742197 C 248.46624312709486,420.3250736033073 265.67490320062353,360.09476334595695 317.3008834212095,317.0731131621353 Z" fill="url(#leaf3)" opacity="0.37" transform="rotate(93.9 317.3 403.1)"/>
    <path d="M 374.47196001353814,424.30261976977283 C 421.2547100335539,463.28824478645265 436.84896004022585,517.8681198098044 374.47196001353814,580.2451198364921 C 312.0949599868504,517.8681198098044 327.68920999352235,463.28824478645265 374.47196001353814,424.30261976977283 Z" fill="url(#leaf4)" opacity="0.20" transform="rotate(311.9 374.5 502.3)"/>
    <path d="M 1199.542068819828,650.2261888893083 C 1239.6584975004546,683.6565461231637 1253.0306403939967,730.4590462505612 1199.542068819828,783.9476178247298 C 1146.0534972456594,730.4590462505612 1159.4256401392015,683.6565461231637 1199.542068819828,650.2261888893083 Z" fill="url(#leaf5)" opacity="0.23" transform="rotate(238.9 1199.5 717.1)"/>
    <path d="M 1584.0170352429172,525.2763173305786 C 1634.2486634928757,567.1360075388774 1650.9925395761952,625.7395738304956 1584.0170352429172,692.7150781637736 C 1517.0415309096393,625.7395738304956 1533.7854069929588,567.1360075388774 1584.0170352429172,525.2763173305786 Z" fill="url(#leaf6)" opacity="0.37" transform="rotate(157.2 1584.0 609.0)"/>
    <path d="M 105.89808654608208,144.46221204442173 C 139.29056507263675,172.28927748321732 150.42139124815498,211.2471690975311 105.89808654608208,255.77047379960402 C 61.37478184400918,211.2471690975311 72.50560801952741,172.28927748321732 105.89808654608208,144.46221204442173 Z" fill="url(#leaf7)" opacity="0.28" transform="rotate(330.3 105.9 200.1)"/>
    <path d="M 741.2872680864201,711.3014299138623 C 768.0523711086712,733.6056824324049 776.9740721160882,764.8316359583645 741.2872680864201,800.5184399880326 C 705.600464056752,764.8316359583645 714.522165064169,733.6056824324049 741.2872680864201,711.3014299138623 Z" fill="url(#leaf8)" opacity="0.28" transform="rotate(129.3 741.3 755.9)"/>
    <path d="M 954.38775708013,376.44019253921175 C 991.3843079324237,407.2706515827898 1003.7164915498549,450.4332942437991 954.38775708013,499.762028713524 C 905.059022610405,450.4332942437991 917.3912062278363,407.2706515827898 954.38775708013,376.44019253921175 Z" fill="url(#leaf9)" opacity="0.40" transform="rotate(162.8 954.4 438.1)"/>
    <path d="M 138.42201290389477,670.0658070521207 C 182.77963688183618,707.0304937004051 197.56551154115,758.7810550080035 138.42201290389477,817.9245536452587 C 79.27851426663955,758.7810550080035 94.06438892595335,707.0304937004051 138.42201290389477,670.0658070521207 Z" fill="url(#leaf10)" opacity="0.30" transform="rotate(306.2 138.4 744.0)"/>
    <path d="M 326.47478007999456,341.91862742175925 C 384.1927193026741,390.01691010732554 403.4320323769006,457.35450586711835 326.47478007999456,534.3117581640245 C 249.5175277830885,457.35450586711835 268.756840857315,390.01691010732554 326.47478007999456,341.91862742175925 Z" fill="url(#leaf11)" opacity="0.32" transform="rotate(338.4 326.5 438.1)"/>
    <path d="M 1574.5374686386388,575.0864720705218 C 1625.2642231258665,617.358767476545 1642.1731412882757,676.5399810449774 1574.5374686386388,744.1756536946144 C 1506.9017959890018,676.5399810449774 1523.810714151411,617.358767476545 1574.5374686386388,575.0864720705218 Z" fill="url(#leaf12)" opacity="0.21" transform="rotate(61.9 1574.5 659.6)"/>
    <path d="M 634.1413704426689,240.3192126635975 C 660.6520515783687,262.4114469433474 669.4889452902687,293.3405749349972 634.1413704426689,328.688149782597 C 598.793795595069,293.3405749349972 607.630689306969,262.4114469433474 634.1413704426689,240.3192126635975 Z" fill="url(#leaf13)" opacity="0.30" transform="rotate(153.3 634.1 284.5)"/>
    <path d="M 65.45662216048713,-13.889913682804668 C 107.44298494996201,21.09872197509106 121.43843921312029,70.08281189614507 65.45662216048713,126.06462894877825 C 9.47480510785396,70.08281189614507 23.470259371012254,21.09872197509106 65.45662216048713,-13.889913682804668 Z" fill="url(#leaf14)" opacity="0.35" transform="rotate(113.1 65.5 56.1)"/>
    <path d="M 950.6830988678831,294.5804425602319 C 998.874941258538,334.74031121911105 1014.9388887220897,390.96412734154177 950.6830988678831,455.21991719574834 C 886.4273090136766,390.96412734154177 902.4912564772283,334.74031121911105 950.6830988678831,294.5804425602319 Z" fill="url(#leaf15)" opacity="0.23" transform="rotate(217.9 950.7 374.9)"/>
    <path d="M 428.13861788418967,476.57131695212644 C 487.0530447640541,525.6666726853468 506.6911870573423,594.4001707118554 428.13861788418967,672.952739885008 C 349.58604871103705,594.4001707118554 369.22419100432523,525.6666726853468 428.13861788418967,476.57131695212644 Z" fill="url(#leaf16)" opacity="0.28" transform="rotate(56.3 428.1 574.8)"/>
    <path d="M 532.6602065718914,572.3406498828209 C 581.1976969930839,612.788558567148 597.3768604668148,669.4156307252059 532.6602065718914,734.1322846201293 C 467.94355267696807,669.4156307252059 484.1227161506989,612.788558567148 532.6602065718914,572.3406498828209 Z" fill="url(#leaf17)" opacity="0.28" transform="rotate(328.4 532.7 653.2)"/>
    <path d="M 1331.6635794694766,458.2285606590591 C 1379.735685539258,498.2886490505435 1395.7597208958516,554.3727727986217 1331.6635794694766,618.4689142249966 C 1267.5674380431017,554.3727727986217 1283.5914733996954,498.2886490505435 1331.6635794694766,458.2285606590591 Z" fill="url(#leaf18)" opacity="0.37" transform="rotate(299.3 1331.7 538.3)"/>
    <path d="M 1400.332841829866,485.227662159877 C 1452.2736514618894,528.5116701865632 1469.5872546725639,589.1092814239236 1400.332841829866,658.3636942666213 C 1331.0784289871683,589.1092814239236 1348.3920321978428,528.5116701865632 1400.332841829866,485.227662159877 Z" fill="url(#leaf19)" opacity="0.24" transform="rotate(18.2 1400.3 571.8)"/>
    <path d="M 1760.7985982775506,785.2329384971097 C 1820.225319497611,834.7552061804934 1840.0342265709644,904.0863809372305 1760.7985982775506,983.3220092306444 C 1681.5629699841368,904.0863809372305 1701.37187705749,834.7552061804934 1760.7985982775506,785.2329384971097 Z" fill="url(#leaf0)" opacity="0.24" transform="rotate(163.2 1760.8 884.3)"/>
    <path d="M 391.5022361731506,432.00648221408454 C 416.5416912604554,452.87269478683857 424.888176289557,482.0853923886942 391.5022361731506,515.4713325051006 C 358.1162960567442,482.0853923886942 366.4627810858458,452.87269478683857 391.5022361731506,432.00648221408454 Z" fill="url(#leaf1)" opacity="0.23" transform="rotate(308.0 391.5 473.7)"/>
    <path d="M 64.59739140304256,38.71015016697403 C 111.4587055438929,77.76124528434931 127.07914359084303,132.43277844867472 64.59739140304256,194.9145306364752 C 2.1156392152420977,132.43277844867472 17.736077262192218,77.76124528434931 64.59739140304256,38.71015016697403 Z" fill="url(#leaf2)" opacity="0.37" transform="rotate(250.0 64.6 116.8)"/>
    <path d="M 766.1522870300854,31.174391583791497 C 800.6829999440229,59.94998567873941 812.1932375820021,100.23581741166647 766.1522870300854,146.27676796358313 C 720.1113364781687,100.23581741166647 731.6215741161479,59.94998567873941 766.1522870300854,31.174391583791497 Z" fill="url(#leaf3)" opacity="0.24" transform="rotate(93.0 766.2 88.7)"/>
    <path d="M 1277.4178519040063,397.76240717027775 C 1319.1080327345744,432.50422452908447 1333.0047596780971,481.1427688314139 1277.4178519040063,536.7296766055047 C 1221.8309441299155,481.1427688314139 1235.7276710734382,432.50422452908447 1277.4178519040063,397.76240717027775 Z" fill="url(#leaf4)" opacity="0.31" transform="rotate(320.6 1277.4 467.2)"/>
    <path d="M 700.8711155397016,207.99812630693543 C 725.2839239396577,228.3421333068989 733.421526739643,256.8237431068477 700.8711155397016,289.3741543067892 C 668.3207043397601,256.8237431068477 676.4583071397454,228.3421333068989 700.8711155397016,207.99812630693543 Z" fill="url(#leaf5)" opacity="0.27" transform="rotate(321.7 700.9 248.7)"/>
    <path d="M 289.53359288054355,560.4716496448095 C 320.13796801794206,585.9752955926416 330.3394263970749,621.6803999196065 289.53359288054355,662.4862334361378 C 248.72775936401223,621.6803999196065 258.92921774314505,585.9752955926416 289.53359288054355,560.4716496448095 Z" fill="url(#leaf6)" opacity="0.39" transform="rotate(51.1 289.5 611.5)"/>
    <path d="M 1495.2083375851503,382.01997541277296 C 1552.4759878148218,429.7430172708326 1571.5652045580457,496.555275872116 1495.2083375851503,572.9121428450113 C 1418.8514706122548,496.555275872116 1437.9406873554788,429.7430172708326 1495.2083375851503,382.01997541277296 Z" fill="url(#leaf7)" opacity="0.35" transform="rotate(220.0 1495.2 477.5)"/>
    <path d="M 1052.839562773777,777.5122068014423 C 1099.6646414407933,816.5331056906225 1115.2730009964653,871.1623641354747 1052.839562773777,933.5958023581629 C 990.4061245510889,871.1623641354747 1006.0144841067608,816.5331056906225 1052.839562773777,777.5122068014423 Z" fill="url(#leaf8)" opacity="0.39" transform="rotate(315.6 1052.8 855.6)"/>
    <path d="M 770.4187613658116,805.6578426572249 C 799.4459524430338,829.8471685549101 809.1216828021078,863.7122248116692 770.4187613658116,902.4151462479655 C 731.7158399295155,863.7122248116692 741.3915702885895,829.8471685549101 770.4187613658116,805.6578426572249 Z" fill="url(#leaf9)" opacity="0.21" transform="rotate(238.2 770.4 854.0)"/>
    <path d="M 1509.5081238683679,513.768308159352 C 1561.4394349226923,557.0444007046224 1578.7498719408004,617.6309302680008 1509.5081238683679,686.8726783404334 C 1440.2663757959353,617.6309302680008 1457.5768128140435,557.0444007046224 1509.5081238683679,513.768308159352 Z" fill="url(#leaf10)" opacity="0.38" transform="rotate(40.2 1509.5 600.3)"/>
    <path d="M 1644.7166902069155,148.5110676295841 C 1689.654807980081,185.95949910722206 1704.6341805711363,238.3873031759152 1644.7166902069155,298.30479354013596 C 1584.7991998426946,238.3873031759152 1599.77857243375,185.95949910722206 1644.7166902069155,148.5110676295841 Z" fill="url(#leaf11)" opacity="0.29" transform="rotate(345.3 1644.7 223.4)"/>
    <path d="M 588.9591274624685,782.7417116019806 C 636.9246584609174,822.7129874340213 652.9131687937337,878.6727735988784 588.9591274624685,942.6268149301436 C 525.0050861312033,878.6727735988784 540.9935964640196,822.7129874340213 588.9591274624685,782.7417116019806 Z" fill="url(#leaf12)" opacity="0.22" transform="rotate(231.9 589.0 862.7)"/>
    <path d="M 964.5690165879689,18.048137819859825 C 991.2420946884567,40.27570290359972 1000.1331207219528,71.39429402083557 964.5690165879689,106.9583981548194 C 929.0049124539851,71.39429402083557 937.8959384874811,40.27570290359972 964.5690165879689,18.048137819859825 Z" fill="url(#leaf13)" opacity="0.35" transform="rotate(12.1 964.6 62.5)"/>
    <path d="M 207.00229633107196,437.34427210819075 C 243.49526210209552,467.7550769173771 255.65958402577004,510.33020365023793 207.00229633107196,558.987491344936 C 158.34500863637388,510.33020365023793 170.5093305600484,467.7550769173771 207.00229633107196,437.34427210819075 Z" fill="url(#leaf14)" opacity="0.27" transform="rotate(183.9 207.0 498.2)"/>
    <path d="M 884.6272385850772,833.3237615856203 C 941.8703019294747,881.0263143726183 960.951323044274,947.8098882744156 884.6272385850772,1024.1339727336124 C 808.3031541258804,947.8098882744156 827.3841752406796,881.0263143726183 884.6272385850772,833.3237615856203 Z" fill="url(#leaf15)" opacity="0.31" transform="rotate(80.1 884.6 928.7)"/>
    <path d="M 1848.2722773019855,132.9929659494065 C 1907.2887378390108,182.17334973026084 1926.9608913513525,251.02588702345693 1848.2722773019855,329.71450107282385 C 1769.5836632526184,251.02588702345693 1789.2558167649602,182.17334973026084 1848.2722773019855,132.9929659494065 Z" fill="url(#leaf16)" opacity="0.31" transform="rotate(330.7 1848.3 231.4)"/>
    <path d="M 1265.7434897600212,729.1820898066844 C 1310.2769994403575,766.2933478736313 1325.1215026671362,818.249109167357 1265.7434897600212,877.627122074472 C 1206.3654768529063,818.249109167357 1221.209980079685,766.2933478736313 1265.7434897600212,729.1820898066844 Z" fill="url(#leaf17)" opacity="0.22" transform="rotate(310.6 1265.7 803.4)"/>
    <path d="M 1835.6690974020214,735.2768383809946 C 1894.0668850841005,783.9416614493939 1913.5328143114602,852.072413745153 1835.6690974020214,929.9361306545918 C 1757.8053804925826,852.072413745153 1777.2713097199423,783.9416614493939 1835.6690974020214,735.2768383809946 Z" fill="url(#leaf18)" opacity="0.36" transform="rotate(293.8 1835.7 832.6)"/>
    <path d="M 184.31266595195603,423.36670424969464 C 242.68343486655056,472.0090116785234 262.1403578380821,540.1082420788837 184.31266595195603,617.9359339650097 C 106.48497406582999,540.1082420788837 125.94189703736151,472.0090116785234 184.31266595195603,423.36670424969464 Z" fill="url(#leaf19)" opacity="0.21" transform="rotate(216.5 184.3 520.7)"/>
    <path d="M 1638.2247141078383,715.1914696937562 C 1697.7457470431266,764.792330473163 1717.5860913548893,834.2335355643326 1638.2247141078383,913.5949128113836 C 1558.8633368607873,834.2335355643326 1578.70368117255,764.792330473163 1638.2247141078383,715.1914696937562 Z" fill="url(#leaf0)" opacity="0.32" transform="rotate(283.3 1638.2 814.4)"/>
    <path d="M 1183.8194637444096,833.7040809817911 C 1217.029522644909,861.3791300655407 1228.099542278409,900.1241987827902 1183.8194637444096,944.4042773167896 C 1139.5393852104103,900.1241987827902 1150.6094048439102,861.3791300655407 1183.8194637444096,833.7040809817911 Z" fill="url(#leaf1)" opacity="0.40" transform="rotate(340.3 1183.8 889.1)"/>
    <path d="M 648.0286297683163,601.3659639531023 C 694.1684181507712,639.8157876051481 709.5483476115895,693.6455407180122 648.0286297683163,755.1652585612854 C 586.508911925043,693.6455407180122 601.8888413858613,639.8157876051481 648.0286297683163,601.3659639531023 Z" fill="url(#leaf2)" opacity="0.35" transform="rotate(141.9 648.0 678.3)"/>
    <path d="M 1395.5958612980323,498.5247188292669 C 1440.7477541919748,536.1512962408857 1455.7983851566223,588.828504617152 1395.5958612980323,649.031028475742 C 1335.3933374394423,588.828504617152 1350.44396840409,536.1512962408857 1395.5958612980323,498.5247188292669 Z" fill="url(#leaf3)" opacity="0.20" transform="rotate(98.0 1395.6 573.8)"/>
    <path d="M 749.124149498667,242.83871778026642 C 792.0330205111378,278.5961102906588 806.3359775152949,328.6564598052082 749.124149498667,385.86828782183613 C 691.912321482039,328.6564598052082 706.2152784861961,278.5961102906588 749.124149498667,242.83871778026642 Z" fill="url(#leaf4)" opacity="0.25" transform="rotate(123.8 749.1 314.4)"/>
    <path d="M 1010.0553288261037,527.8292612042533 C 1041.8877436933587,554.3562735936324 1052.4985486491105,591.4940909387632 1010.0553288261037,633.9373107617698 C 967.6121090030971,591.4940909387632 978.2229139588487,554.3562735936324 1010.0553288261037,527.8292612042533 Z" fill="url(#leaf5)" opacity="0.25" transform="rotate(63.3 1010.1 580.9)"/>
    <path d="M 485.40133792446426,432.13603509060374 C 524.2099580192337,464.4765518362449 537.1461647174901,509.75327528014253 485.40133792446426,561.4981020731684 C 433.6565111314384,509.75327528014253 446.59271782969483,464.4765518362449 485.40133792446426,432.13603509060374 Z" fill="url(#leaf6)" opacity="0.38" transform="rotate(97.7 485.4 496.8)"/>
    <path d="M 569.0221176954445,729.009232712384 C 613.9739786472849,766.4691168389176 628.9579322978982,818.9129546160646 569.0221176954445,878.8487692185182 C 509.0863030929908,818.9129546160646 524.0702567436042,766.4691168389176 569.0221176954445,729.009232712384 Z" fill="url(#leaf7)" opacity="0.28" transform="rotate(172.3 569.0 803.9)"/>
    <path d="M 547.0447314906821,200.48932924309938 C 588.4214955212724,234.9699659352579 602.2137501981357,283.2428573042798 547.0447314906821,338.4118760117334 C 491.8757127832285,283.2428573042798 505.6679674600919,234.9699659352579 547.0447314906821,200.48932924309938 Z" fill="url(#leaf8)" opacity="0.26" transform="rotate(281.9 547.0 269.5)"/>
    <path d="M 1536.7439891406968,487.82884724663455 C 1573.468465738937,518.432577745168 1585.7099579383505,561.277800443115 1536.7439891406968,610.2437692407685 C 1487.7780203430432,561.277800443115 1500.0195125424566,518.432577745168 1536.7439891406968,487.82884724663455 Z" fill="url(#leaf9)" opacity="0.28" transform="rotate(82.3 1536.7 549.0)"/>
    <path d="M 1269.1920484104264,567.5273571434558 C 1298.4007976685216,591.8679815252018 1308.13704742122,625.9448556596461 1269.1920484104264,664.8898546704396 C 1230.247049399633,625.9448556596461 1239.9832991523313,591.8679815252018 1269.1920484104264,567.5273571434558 Z" fill="url(#leaf10)" opacity="0.33" transform="rotate(238.1 1269.2 616.2)"/>
    <path d="M 1380.0895140272776,577.5732832053235 C 1426.962270269758,616.6339134073905 1442.5865223505848,671.3187956902844 1380.0895140272776,733.8158040135917 C 1317.5925057039703,671.3187956902844 1333.2167577847972,616.6339134073905 1380.0895140272776,577.5732832053235 Z" fill="url(#leaf11)" opacity="0.32" transform="rotate(122.5 1380.1 655.7)"/>
    <path d="M 155.520508819972,483.70720626697187 C 186.93021507616035,509.88196148046217 197.40011716155647,546.5266187793486 155.520508819972,588.4062271209331 C 113.64090047838755,546.5266187793486 124.11080256378366,509.88196148046217 155.520508819972,483.70720626697187 Z" fill="url(#leaf12)" opacity="0.37" transform="rotate(210.8 155.5 536.1)"/>
    <path d="M 1217.594123511836,463.1445301687814 C 1259.2930191256141,497.89360984692996 1273.1926509968737,546.5423213963379 1217.594123511836,602.1408488813755 C 1161.9955960267982,546.5423213963379 1175.8952278980578,497.89360984692996 1217.594123511836,463.1445301687814 Z" fill="url(#leaf13)" opacity="0.30" transform="rotate(69.3 1217.6 532.6)"/>
    <path d="M 1426.8979233078924,819.3076513744129 C 1468.1239940812109,853.6627103521784 1481.8660176723172,901.75979292105 1426.8979233078924,956.7278872854747 C 1371.9298289434676,901.75979292105 1385.6718525345739,853.6627103521784 1426.8979233078924,819.3076513744129 Z" fill="url(#leaf14)" opacity="0.35" transform="rotate(188.9 1426.9 888.0)"/>
    <path d="M 60.0411528326808,619.8636473160702 C 85.2697566236177,640.8874838085176 93.67929122059667,670.320854897944 60.0411528326808,703.9589932858598 C 26.403014444764935,670.320854897944 34.81254904174391,640.8874838085176 60.0411528326808,619.8636473160702 Z" fill="url(#leaf15)" opacity="0.25" transform="rotate(104.9 60.0 661.9)"/>
    <path d="M 1671.4722796638528,833.7172118100893 C 1726.2690052899095,879.3811498318032 1744.534580498595,943.3106630622026 1671.4722796638528,1016.3729638969448 C 1598.4099788291105,943.3106630622026 1616.675554037796,879.3811498318032 1671.4722796638528,833.7172118100893 Z" fill="url(#leaf16)" opacity="0.27" transform="rotate(162.7 1671.5 925.0)"/>
    <path d="M 1064.6977794512513,334.5397404347515 C 1124.0770445594223,384.0224613582273 1143.8701329288126,453.2982706510934 1064.6977794512513,532.4706241286547 C 985.5254259736901,453.2982706510934 1005.3185143430804,384.0224613582273 1064.6977794512513,334.5397404347515 Z" fill="url(#leaf17)" opacity="0.27" transform="rotate(128.9 1064.7 433.5)"/>
    <path d="M 1780.8793847788452,593.6849364041101 C 1810.1546106102078,618.0809579302455 1819.913019220662,652.2353880668353 1780.8793847788452,691.269022508652 C 1741.8457503370284,652.2353880668353 1751.6041589474826,618.0809579302455 1780.8793847788452,593.6849364041101 Z" fill="url(#leaf18)" opacity="0.26" transform="rotate(187.9 1780.9 642.5)"/>
    <path d="M 211.31734327814408,468.1258081694902 C 262.3489018111014,510.65210694695463 279.3594213220872,570.1889252354049 211.31734327814408,638.231003279348 C 143.27526523420096,570.1889252354049 160.28578474518673,510.65210694695463 211.31734327814408,468.1258081694902 Z" fill="url(#leaf19)" opacity="0.24" transform="rotate(257.5 211.3 553.2)"/>
    <path d="M 387.20442647735047,379.2924337598298 C 433.41709040553775,417.80298703331925 448.82131171493353,471.7177616162044 387.20442647735047,533.3346468537875 C 325.5875412397674,471.7177616162044 340.9917625491632,417.80298703331925 387.20442647735047,379.2924337598298 Z" fill="url(#leaf0)" opacity="0.30" transform="rotate(155.9 387.2 456.3)"/>
    <path d="M 1681.4160269315682,164.42769188007142 C 1730.8770810623328,205.64523698904176 1747.3640991059208,263.3498001416002 1681.4160269315682,329.29787231595276 C 1615.4679547572157,263.3498001416002 1631.9549728008037,205.64523698904176 1681.4160269315682,164.42769188007142 Z" fill="url(#leaf1)" opacity="0.39" transform="rotate(189.9 1681.4 246.9)"/>
    <path d="M 689.9354889184725,464.11563222500536 C 721.5303760249584,490.4447048137436 732.0620050604538,527.3054064379771 689.9354889184725,569.4319225799584 C 647.8089727764913,527.3054064379771 658.3406018119866,490.4447048137436 689.9354889184725,464.11563222500536 Z" fill="url(#leaf2)" opacity="0.40" transform="rotate(245.4 689.9 516.8)"/>
    <path d="M 1426.2955571952732,46.39727673818074 C 1458.3021428448103,73.06943144612829 1468.9710047279893,110.41044803725485 1426.2955571952732,153.08589556997092 C 1383.620109662557,110.41044803725485 1394.288971545736,73.06943144612829 1426.2955571952732,46.39727673818074 Z" fill="url(#leaf3)" opacity="0.37" transform="rotate(194.0 1426.3 99.7)"/>
    <path d="M 188.09014613465084,502.0623081174738 C 242.5995764683555,547.486833395561 260.7693865795904,611.0811687848832 188.09014613465084,683.7604092298227 C 115.41090568971129,611.0811687848832 133.58071580094617,547.486833395561 188.09014613465084,502.0623081174738 Z" fill="url(#leaf4)" opacity="0.29" transform="rotate(121.9 188.1 592.9)"/>
    <path d="M 1609.425481879645,563.2309431431593 C 1657.8011098387092,603.5439664423792 1673.926319158397,659.9821990612872 1609.425481879645,724.4830363400392 C 1544.924644600893,659.9821990612872 1561.049853920581,603.5439664423792 1609.425481879645,563.2309431431593 Z" fill="url(#leaf5)" opacity="0.24" transform="rotate(261.2 1609.4 643.9)"/>
    <path d="M 413.43633240252007,18.265892618135354 C 465.427280517385,61.591682713856116 482.7575965556733,122.24778884786518 413.43633240252007,191.5690530010184 C 344.11506824936686,122.24778884786518 361.44538428765514,61.591682713856116 413.43633240252007,18.265892618135354 Z" fill="url(#leaf6)" opacity="0.24" transform="rotate(186.6 413.4 104.9)"/>
    <path d="M 1643.8706214613405,780.1941353621555 C 1671.3581075862974,803.1003737996197 1680.520602961283,835.1691076120693 1643.8706214613405,871.8190891120119 C 1607.220639961398,835.1691076120693 1616.3831353363837,803.1003737996197 1643.8706214613405,780.1941353621555 Z" fill="url(#leaf7)" opacity="0.21" transform="rotate(241.1 1643.9 826.0)"/>
    <path d="M 773.6609150512679,124.49085834776477 C 829.8707427921461,171.33238146516328 848.6073520391055,236.9105138295212 773.6609150512679,311.8569508173588 C 698.7144780634303,236.9105138295212 717.4510873103898,171.33238146516328 773.6609150512679,124.49085834776477 Z" fill="url(#leaf8)" opacity="0.33" transform="rotate(328.0 773.7 218.2)"/>
    <path d="M 1855.2816525619198,166.33634042555866 C 1888.496572746734,194.0154405795705 1899.5682128083388,232.7661807951871 1855.2816525619198,277.05274104160605 C 1810.9950923155009,232.7661807951871 1822.0667323771056,194.0154405795705 1855.2816525619198,166.33634042555866 Z" fill="url(#leaf9)" opacity="0.33" transform="rotate(323.9 1855.3 221.7)"/>
    <path d="M 220.45157333294753,228.46539827556023 C 261.76754479042785,262.8953744901272 275.53953527625464,311.0973411905209 220.45157333294753,366.18530313382803 C 165.36361138964043,311.0973411905209 179.13560187546722,262.8953744901272 220.45157333294753,228.46539827556023 Z" fill="url(#leaf10)" opacity="0.23" transform="rotate(338.1 220.5 297.3)"/>
    <path d="M 769.763553666024,715.3947913287649 C 807.4975130191291,746.8397574563523 820.075499470164,790.862710034975 769.763553666024,841.174655839115 C 719.451607861884,790.862710034975 732.0295943129189,746.8397574563523 769.763553666024,715.3947913287649 Z" fill="url(#leaf11)" opacity="0.30" transform="rotate(194.9 769.8 778.3)"/>
    <path d="M 250.77563722080092,809.0979595518885 C 301.7516606633892,851.5779790873787 318.7436684775853,911.050006437065 250.77563722080092,979.0180376938494 C 182.80760596401655,911.050006437065 199.79961377821263,851.5779790873787 250.77563722080092,809.0979595518885 Z" fill="url(#leaf12)" opacity="0.40" transform="rotate(286.4 250.8 894.1)"/>
    <path d="M 235.3079591520914,227.68345389268586 C 284.232913964731,268.45424956988546 300.54123223561083,325.533363517965 235.3079591520914,390.7666366014844 C 170.07468606857196,325.533363517965 186.38300433945184,268.45424956988546 235.3079591520914,227.68345389268586 Z" fill="url(#leaf13)" opacity="0.24" transform="rotate(322.8 235.3 309.2)"/>
    <path d="M 375.1517544800264,449.9472528321331 C 433.1926463242262,498.31466270229953 452.53961027229275,566.0290365205326 375.1517544800264,643.4168923127991 C 297.76389868776005,566.0290365205326 317.1108626358266,498.31466270229953 375.1517544800264,449.9472528321331 Z" fill="url(#leaf14)" opacity="0.33" transform="rotate(44.5 375.2 546.7)"/>
    <path d="M 1549.070407323314,659.2010740994515 C 1603.1954956726695,704.3053143905811 1621.2371917891212,767.4512507981625 1549.070407323314,839.6180352639699 C 1476.9036228575067,767.4512507981625 1494.9453189739584,704.3053143905811 1549.070407323314,659.2010740994515 Z" fill="url(#leaf15)" opacity="0.30" transform="rotate(58.1 1549.1 749.4)"/>
    <path d="M 830.3644364137726,905.4851428248979 C 872.920768783362,940.948753132889 887.1062129065584,990.5978075640766 830.3644364137726,1047.3395840568623 C 773.6226599209868,990.5978075640766 787.8081040441833,940.948753132889 830.3644364137726,905.4851428248979 Z" fill="url(#leaf16)" opacity="0.36" transform="rotate(145.7 830.4 976.4)"/>
    <path d="M 1639.0574195438085,817.2373067191428 C 1692.3256223069934,861.6274756884636 1710.0816898947216,923.7737122455127 1639.0574195438085,994.7979825964259 C 1568.0331491928953,923.7737122455127 1585.7892167806235,861.6274756884636 1639.0574195438085,817.2373067191428 Z" fill="url(#leaf17)" opacity="0.38" transform="rotate(210.2 1639.1 906.0)"/>
    <path d="M 1057.6299861699545,794.1218939029785 C 1088.4220997316684,819.7819885377402 1098.686137585573,855.7061210264063 1057.6299861699545,896.7622724420249 C 1016.5738347543358,855.7061210264063 1026.8378726082406,819.7819885377402 1057.6299861699545,794.1218939029785 Z" fill="url(#leaf18)" opacity="0.39" transform="rotate(43.8 1057.6 845.4)"/>
    <path d="M 1238.86095940643,856.8186756067886 C 1292.1990118341864,901.2670526299188 1309.9783626434385,963.494780462301 1238.86095940643,1034.6121836993093 C 1167.7435561694217,963.494780462301 1185.5229069786737,901.2670526299188 1238.86095940643,856.8186756067886 Z" fill="url(#leaf19)" opacity="0.39" transform="rotate(129.1 1238.9 945.7)"/>
    <path d="M 1484.6947586411384,81.00611110302196 C 1518.911525404606,109.52008340591156 1530.3171143257618,149.439644629957 1484.6947586411384,195.06200031458036 C 1439.072402956515,149.439644629957 1450.4779918776708,109.52008340591156 1484.6947586411384,81.00611110302196 Z" fill="url(#leaf0)" opacity="0.31" transform="rotate(275.0 1484.7 138.0)"/>
    <path d="M 912.9792924296456,824.4124593938956 C 950.6185822391503,855.7785342351496 963.1650121756519,899.691039012905 912.9792924296456,949.8767587589113 C 862.7935726836394,899.691039012905 875.3400026201409,855.7785342351496 912.9792924296456,824.4124593938956 Z" fill="url(#leaf1)" opacity="0.29" transform="rotate(22.5 913.0 887.1)"/>
    <path d="M 646.8337470651006,307.1262955653111 C 699.0515729354746,350.64115045728937 716.4575148922659,411.561947306059 646.8337470651006,481.1857151332242 C 577.2099792379354,411.561947306059 594.6159211947266,350.64115045728937 646.8337470651006,307.1262955653111 Z" fill="url(#leaf2)" opacity="0.30" transform="rotate(353.2 646.8 394.2)"/>
    <path d="M 178.55762985529705,315.2926310272815 C 224.5489834906078,353.6187590567072 239.87943470237806,407.27533829790303 178.55762985529705,468.59714314498405 C 117.23582500821604,407.27533829790303 132.5662762199863,353.6187590567072 178.55762985529705,315.2926310272815 Z" fill="url(#leaf3)" opacity="0.34" transform="rotate(350.6 178.6 391.9)"/>
    <path d="M 1523.3251903467524,191.97928150202327 C 1564.0461149802168,225.91338536324355 1577.6197565247048,273.42113076895197 1523.3251903467524,327.7156969469045 C 1469.0306241688,273.42113076895197 1482.604265713288,225.91338536324355 1523.3251903467524,191.97928150202327 Z" fill="url(#leaf4)" opacity="0.22" transform="rotate(219.1 1523.3 259.8)"/>
    <path d="M 520.4630671081749,9.628509322526838 C 579.2046288856759,58.579810803777676 598.7851494781762,127.11163287752885 520.4630671081749,205.4337152475302 C 442.14098473817353,127.11163287752885 461.72150533067384,58.579810803777676 520.4630671081749,9.628509322526838 Z" fill="url(#leaf5)" opacity="0.30" transform="rotate(58.9 520.5 107.5)"/>
    <path d="M 67.11085797350913,768.5492048708916 C 110.64488277997486,804.8275588762797 125.15622438213012,855.617254483823 67.11085797350913,913.662620892444 C 9.065491564888127,855.617254483823 23.576833167043382,804.8275588762797 67.11085797350913,768.5492048708916 Z" fill="url(#leaf6)" opacity="0.37" transform="rotate(100.6 67.1 841.1)"/>
    <path d="M 1287.433458563192,944.0961785334721 C 1336.606671897775,985.0738563122911 1352.9977430093024,1042.4426052026379 1287.433458563192,1108.0068896487483 C 1221.8691741170817,1042.4426052026379 1238.2602452286092,985.0738563122911 1287.433458563192,944.0961785334721 Z" fill="url(#leaf7)" opacity="0.39" transform="rotate(341.7 1287.4 1026.1)"/>
    <path d="M 1635.027479393791,537.4780628159452 C 1674.931589512117,570.7314879145503 1688.232959551559,617.2862830525971 1635.027479393791,670.4917632103651 C 1581.8219992360232,617.2862830525971 1595.1233692754652,570.7314879145503 1635.027479393791,537.4780628159452 Z" fill="url(#leaf8)" opacity="0.40" transform="rotate(47.1 1635.0 604.0)"/>
    <path d="M 1270.5938074722408,968.005654842177 C 1305.5055115333403,997.0987415597599 1317.1427462203735,1037.8290629643761 1270.5938074722408,1084.3780017125089 C 1224.044868724108,1037.8290629643761 1235.6821034111413,997.0987415597599 1270.5938074722408,968.005654842177 Z" fill="url(#leaf9)" opacity="0.29" transform="rotate(270.8 1270.6 1026.2)"/>
    <path d="M 1068.9158340660524,856.5085453334198 C 1123.5583326140152,902.0439607900554 1141.7724987966697,965.7935424293454 1068.9158340660524,1038.6502071599625 C 996.0591693354353,965.7935424293454 1014.2733355180895,902.0439607900554 1068.9158340660524,856.5085453334198 Z" fill="url(#leaf10)" opacity="0.37" transform="rotate(66.4 1068.9 947.6)"/>
    <path d="M 1262.9851428241113,569.2820821906178 C 1287.0385925646538,589.3266236410698 1295.0564091448346,617.3889816717026 1262.9851428241113,649.4602479924258 C 1230.913876503388,617.3889816717026 1238.931693083569,589.3266236410698 1262.9851428241113,569.2820821906178 Z" fill="url(#leaf11)" opacity="0.35" transform="rotate(85.3 1263.0 609.4)"/>
    <path d="M 636.54119307922,485.0564711029945 C 695.3322337823563,534.0490050222747 714.9292473500684,602.6385525092671 636.54119307922,681.0266067801156 C 558.1531388083715,602.6385525092671 577.7501523760836,534.0490050222747 636.54119307922,485.0564711029945 Z" fill="url(#leaf12)" opacity="0.23" transform="rotate(143.4 636.5 583.0)"/>
    <path d="M 1830.0691613141942,538.4624744029463 C 1873.782702254702,574.8904251867027 1888.3538825682044,625.8895562839618 1830.0691613141942,684.1742775379721 C 1771.784440060184,625.8895562839618 1786.3556203736864,574.8904251867027 1830.0691613141942,538.4624744029463 Z" fill="url(#leaf13)" opacity="0.35" transform="rotate(172.1 1830.1 611.3)"/>
    <path d="M 1063.4255743966637,952.1639897890683 C 1100.8135553358672,983.320640571738 1113.276215648935,1026.9399516674753 1063.4255743966637,1076.7905929197466 C 1013.5749331443924,1026.9399516674753 1026.0375934574602,983.320640571738 1063.4255743966637,952.1639897890683 Z" fill="url(#leaf14)" opacity="0.27" transform="rotate(341.6 1063.4 1014.5)"/>
    <path d="M 497.7783159242623,232.68867324020704 C 529.6961044348747,259.286830332384 540.3353672717456,296.5242502614318 497.7783159242623,339.081301608915 C 455.2212645767791,296.5242502614318 465.8605274136499,259.286830332384 497.7783159242623,232.68867324020704 Z" fill="url(#leaf15)" opacity="0.34" transform="rotate(109.5 497.8 285.9)"/>
    <path d="M 274.9095751204875,574.2652965640137 C 318.37309167307814,610.4848936911726 332.8609305239417,661.192329669195 274.9095751204875,719.1436850726492 C 216.95821971703327,661.192329669195 231.44605856789684,610.4848936911726 274.9095751204875,574.2652965640137 Z" fill="url(#leaf16)" opacity="0.24" transform="rotate(67.2 274.9 646.7)"/>
    <path d="M 150.8908388730605,74.71852416097448 C 203.17576687132936,118.28929749286522 220.6040762040857,179.28838015751225 150.8908388730605,249.00161748853742 C 81.1776015420353,179.28838015751225 98.60591087479162,118.28929749286522 150.8908388730605,74.71852416097448 Z" fill="url(#leaf17)" opacity="0.35" transform="rotate(227.7 150.9 161.9)"/>
    <path d="M 1755.3653327044067,406.1836570284001 C 1809.750195643522,451.5043761443294 1827.8784832898934,514.9533829066304 1755.3653327044067,587.4665334921172 C 1682.85218211892,514.9533829066304 1700.9804697652914,451.5043761443294 1755.3653327044067,406.1836570284001 Z" fill="url(#leaf18)" opacity="0.24" transform="rotate(66.6 1755.4 496.8)"/>
    <path d="M 383.86321805908494,374.2934502747826 C 429.2178781164238,412.08900032256497 444.3360981355367,465.00277038946024 383.86321805908494,525.475650465912 C 323.3903379826332,465.00277038946024 338.5085580017461,412.08900032256497 383.86321805908494,374.2934502747826 Z" fill="url(#leaf19)" opacity="0.25" transform="rotate(357.3 383.9 449.9)"/>
    <path d="M 1492.7258369199958,714.1844236736405 C 1529.847169087686,745.1188671467158 1542.2209464769162,788.4270880090212 1492.7258369199958,837.9221975659417 C 1443.2307273630754,788.4270880090212 1455.6045047523055,745.1188671467158 1492.7258369199958,714.1844236736405 Z" fill="url(#leaf0)" opacity="0.26" transform="rotate(186.9 1492.7 776.1)"/>
    <path d="M 196.71451023959554,595.15936794076 C 227.5288896213365,620.8380174255442 237.80034941525017,656.788126704242 196.71451023959554,697.8739658798967 C 155.6286710639409,656.788126704242 165.90013085785458,620.8380174255442 196.71451023959554,595.15936794076 Z" fill="url(#leaf1)" opacity="0.39" transform="rotate(209.5 196.7 646.5)"/>
    <path d="M 1750.145001945781,210.31817397811338 C 1777.748629984582,233.32119734378102 1786.9498393308493,265.5254300557158 1750.145001945781,302.33026744078404 C 1713.3401645607125,265.5254300557158 1722.5413739069797,233.32119734378102 1750.145001945781,210.31817397811338 Z" fill="url(#leaf2)" opacity="0.37" transform="rotate(142.1 1750.1 256.3)"/>
    <path d="M 1255.5157035992247,673.5163518742596 C 1311.4081599433202,720.0933988276726 1330.0389787246854,785.3012645624507 1255.5157035992247,859.8245396879114 C 1180.992428473764,785.3012645624507 1199.6232472551292,720.0933988276726 1255.5157035992247,673.5163518742596 Z" fill="url(#leaf3)" opacity="0.23" transform="rotate(126.5 1255.5 766.7)"/>
    <path d="M 563.993499397092,693.1983815767234 C 609.4113183926471,731.0465640730193 624.5505913911654,784.0340195678335 563.993499397092,844.591111561907 C 503.43640740301856,784.0340195678335 518.5756804015369,731.0465640730193 563.993499397092,693.1983815767234 Z" fill="url(#leaf4)" opacity="0.24" transform="rotate(47.4 564.0 768.9)"/>
    <path d="M 1728.3719850192297,755.5591020062866 C 1770.6720336723577,790.80914255056 1784.7720498900671,840.1591993125427 1728.3719850192297,896.55926418338 C 1671.9719201483922,840.1591993125427 1686.0719363661017,790.80914255056 1728.3719850192297,755.5591020062866 Z" fill="url(#leaf5)" opacity="0.27" transform="rotate(212.8 1728.4 826.1)"/>
    <path d="M 894.4996532493307,677.0218428933875 C 929.5400770320224,706.2221960456307 941.2202182929196,747.102690458771 894.4996532493307,793.82325550236 C 847.7790882057417,747.102690458771 859.4592294666389,706.2221960456307 894.4996532493307,677.0218428933875 Z" fill="url(#leaf6)" opacity="0.26" transform="rotate(207.6 894.5 735.4)"/>
    <path d="M 256.44844156866645,516.7801426776614 C 296.2058111904852,549.911284029177 309.4582677310915,596.2948819212988 256.44844156866645,649.3047080837239 C 203.43861540624144,596.2948819212988 216.6910719468477,549.911284029177 256.44844156866645,516.7801426776614 Z" fill="url(#leaf7)" opacity="0.24" transform="rotate(98.9 256.4 583.0)"/>
    <path d="M 124.35251989268451,558.7112609702128 C 151.15174589712066,581.0439493072429 160.08482123193272,612.3097129790851 124.35251989268451,648.0420143183333 C 88.62021855343632,612.3097129790851 97.55329388824836,581.0439493072429 124.35251989268451,558.7112609702128 Z" fill="url(#leaf8)" opacity="0.40" transform="rotate(59.5 124.4 603.4)"/>
    <path d="M 116.71568532953887,673.9359702720401 C 173.56903178559202,721.3137589854177 192.52014727094306,787.6426631841464 116.71568532953887,863.4471251255507 C 40.91122338813469,787.6426631841464 59.86233887348574,721.3137589854177 116.71568532953887,673.9359702720401 Z" fill="url(#leaf9)" opacity="0.33" transform="rotate(278.0 116.7 768.7)"/>
    <path d="M 1575.692849712104,139.6481745328938 C 1615.5118666038043,172.83068860931078 1628.784872234371,219.28620831629453 1575.692849712104,272.3782308385617 C 1522.6008271898368,219.28620831629453 1535.8738328204035,172.83068860931078 1575.692849712104,139.6481745328938 Z" fill="url(#leaf10)" opacity="0.33" transform="rotate(36.5 1575.7 206.0)"/>
    <path d="M 177.81807008608735,289.34972232407966 C 222.12245714369712,326.2700448720878 236.89058616290038,377.95849643929915 177.81807008608735,437.0310125161122 C 118.74555400927431,377.95849643929915 133.51368302847757,326.2700448720878 177.81807008608735,289.34972232407966 Z" fill="url(#leaf11)" opacity="0.20" transform="rotate(10.0 177.8 363.2)"/>
    <path d="M 1848.5141816576192,14.394313349033382 C 1873.819336261518,35.4819421856157 1882.254387796151,65.00462255683095 1848.5141816576192,98.74482869536266 C 1814.7739755190876,65.00462255683095 1823.2090270537205,35.4819421856157 1848.5141816576192,14.394313349033382 Z" fill="url(#leaf12)" opacity="0.20" transform="rotate(150.5 1848.5 56.6)"/>
    <path d="M 149.4715965928937,791.781349318949 C 194.57597388063357,829.3683303920656 209.6107663098802,881.9901038944288 149.4715965928937,942.1292736114153 C 89.33242687590717,881.9901038944288 104.36721930515381,829.3683303920656 149.4715965928937,791.781349318949 Z" fill="url(#leaf13)" opacity="0.27" transform="rotate(182.5 149.5 867.0)"/>
    <path d="M 1082.9533324604954,388.17727270613204 C 1125.7488866883589,423.8402345626848 1140.0140714309798,473.76838116185877 1082.9533324604954,530.8291201323433 C 1025.892593490011,473.76838116185877 1040.157778232632,423.8402345626848 1082.9533324604954,388.17727270613204 Z" fill="url(#leaf14)" opacity="0.25" transform="rotate(353.3 1083.0 459.5)"/>
    <path d="M 293.46694945544266,310.44418656818107 C 337.74391853341285,347.3416607998229 352.50290822606956,398.9981247241214 293.46694945544266,458.0340834947483 C 234.43099068481575,398.9981247241214 249.18998037747247,347.3416607998229 293.46694945544266,310.44418656818107 Z" fill="url(#leaf15)" opacity="0.34" transform="rotate(182.6 293.5 384.2)"/>
    <path d="M 1652.0009656820926,440.00540883158567 C 1683.6475578343197,466.3775689584417 1694.1964218850621,503.2985931360401 1652.0009656820926,545.4940493390097 C 1609.805509479123,503.2985931360401 1620.3543735298654,466.3775689584417 1652.0009656820926,440.00540883158567 Z" fill="url(#leaf16)" opacity="0.33" transform="rotate(48.4 1652.0 492.7)"/>
    <path d="M 565.3248710998869,845.5946964509859 C 594.5054823132698,869.9118724621384 604.2323527177307,903.9559188777517 565.3248710998869,942.8634004955956 C 526.4173894820431,903.9559188777517 536.144259886504,869.9118724621384 565.3248710998869,845.5946964509859 Z" fill="url(#leaf17)" opacity="0.37" transform="rotate(62.4 565.3 894.2)"/>
    <path d="M 1663.7019918073672,12.47873923394372 C 1692.3929656056862,36.38788406587622 1701.9566235384593,69.86068683058171 1663.7019918073672,108.11531856167372 C 1625.4473600762751,69.86068683058171 1635.0110180090483,36.38788406587622 1663.7019918073672,12.47873923394372 Z" fill="url(#leaf18)" opacity="0.38" transform="rotate(137.2 1663.7 60.3)"/>
    <path d="M 1863.1176150284844,846.0258234223284 C 1906.795327518862,882.4239171643098 1921.3545650156545,933.3812484030838 1863.1176150284844,991.6181983902541 C 1804.8806650413142,933.3812484030838 1819.4399025381067,882.4239171643098 1863.1176150284844,846.0258234223284 Z" fill="url(#leaf19)" opacity="0.37" transform="rotate(44.4 1863.1 918.8)"/>
    <path d="M 1619.2967099016846,412.90707599554065 C 1657.546893337312,444.78222885856337 1670.296954482521,489.40744286679524 1619.2967099016846,540.4076874476317 C 1568.2964653208483,489.40744286679524 1581.0465264660572,444.78222885856337 1619.2967099016846,412.90707599554065 Z" fill="url(#leaf0)" opacity="0.25" transform="rotate(306.2 1619.3 476.7)"/>
    <path d="M 557.9533270597299,862.9763653211236 C 603.911487040712,901.2748319719421 619.2308737010394,954.892685283088 557.9533270597299,1016.1702319243976 C 496.6757804184203,954.892685283088 511.99516707874767,901.2748319719421 557.9533270597299,862.9763653211236 Z" fill="url(#leaf1)" opacity="0.28" transform="rotate(74.8 558.0 939.6)"/>
    <path d="M 815.366265734409,589.3902469385339 C 841.7884215872058,611.4087101491979 850.5958068714714,642.2345586441274 815.366265734409,677.4640997811898 C 780.1367245973466,642.2345586441274 788.9441098816122,611.4087101491979 815.366265734409,589.3902469385339 Z" fill="url(#leaf2)" opacity="0.26" transform="rotate(230.6 815.4 633.4)"/>
    <path d="M 810.6010842573681,636.0469455734967 C 863.5531374921285,680.1736566024637 881.2038219037153,741.9510520430174 810.6010842573681,812.5537896893645 C 739.998346611021,741.9510520430174 757.6490310226078,680.1736566024637 810.6010842573681,636.0469455734967 Z" fill="url(#leaf3)" opacity="0.30" transform="rotate(296.0 810.6 724.3)"/>
    <path d="M 792.5357761450472,194.01418019734848 C 849.6639003145896,241.62095033863378 868.7066083711037,308.2704285364332 792.5357761450472,384.44126076248966 C 716.3649439189907,308.2704285364332 735.4076519755048,241.62095033863378 792.5357761450472,194.01418019734848 Z" fill="url(#leaf4)" opacity="0.37" transform="rotate(334.2 792.5 289.2)"/>
    <path d="M 1754.6675685932014,-24.485820423144077 C 1802.6142685088407,15.469762839888688 1818.596501814054,71.40757940813455 1754.6675685932014,135.33651262898698 C 1690.7386353723489,71.40757940813455 1706.720868677562,15.469762839888688 1754.6675685932014,-24.485820423144077 Z" fill="url(#leaf5)" opacity="0.29" transform="rotate(341.8 1754.7 55.4)"/>
    <path d="M 1010.3602384416222,524.828219120745 C 1048.8968963212333,556.9421006870876 1061.7424489477703,601.9015348799672 1010.3602384416222,653.2837453861155 C 958.978027935474,601.9015348799672 971.8235805620111,556.9421006870876 1010.3602384416222,524.828219120745 Z" fill="url(#leaf6)" opacity="0.26" transform="rotate(351.1 1010.4 589.1)"/>
    <path d="M 1400.7987432285295,842.2496526798104 C 1459.0794846709834,890.8169372151888 1478.506398485135,958.8111355647185 1400.7987432285295,1036.5187908213238 C 1323.091087971924,958.8111355647185 1342.5180017860755,890.8169372151888 1400.7987432285295,842.2496526798104 Z" fill="url(#leaf7)" opacity="0.25" transform="rotate(83.1 1400.8 939.4)"/>
    <path d="M 1617.9791643347535,250.89991351741287 C 1654.3554511337863,281.21348584994035 1666.4808800667975,323.6524871154788 1617.9791643347535,372.1542028475227 C 1569.4774486027095,323.6524871154788 1581.6028775357206,281.21348584994035 1617.9791643347535,250.89991351741287 Z" fill="url(#leaf8)" opacity="0.22" transform="rotate(8.1 1618.0 311.5)"/>
    <path d="M 333.276092442251,393.14098791481854 C 360.9645712116368,416.21472022264 370.19406413476537,448.5179454535901 333.276092442251,485.43591714610443 C 296.35812074973666,448.5179454535901 305.58761367286525,416.21472022264 333.276092442251,393.14098791481854 Z" fill="url(#leaf9)" opacity="0.27" transform="rotate(208.5 333.3 439.3)"/>
    <path d="M 978.1838308501592,806.1308482716947 C 1024.2981414868411,844.5594404689296 1039.669578365735,898.3594695450585 978.1838308501592,959.8452170606342 C 916.6980833345834,898.3594695450585 932.0695202134774,844.5594404689296 978.1838308501592,806.1308482716947 Z" fill="url(#leaf10)" opacity="0.32" transform="rotate(299.9 978.2 883.0)"/>
    <path d="M 665.8510438667358,143.11875615153377 C 724.1691006918921,191.71713683916406 743.6084529669442,259.75486980184644 665.8510438667358,337.5122789020549 C 588.0936347665274,259.75486980184644 607.5329870415795,191.71713683916406 665.8510438667358,143.11875615153377 Z" fill="url(#leaf11)" opacity="0.20" transform="rotate(200.4 665.9 240.3)"/>
    <path d="M 450.57976482534184,210.9682967185188 C 492.4531029059876,245.8627451190569 506.41088226620286,294.71497287981026 450.57976482534184,350.5460903206713 C 394.7486473844808,294.71497287981026 408.7064267446961,245.8627451190569 450.57976482534184,210.9682967185188 Z" fill="url(#leaf12)" opacity="0.21" transform="rotate(24.4 450.6 280.8)"/>
    <path d="M 620.6722670616209,-18.615352714522004 C 680.3807181881199,31.141689890893844 700.2835352302862,100.80154953847602 620.6722670616209,180.4128177071414 C 541.0609988929556,100.80154953847602 560.9638159351219,31.141689890893844 620.6722670616209,-18.615352714522004 Z" fill="url(#leaf13)" opacity="0.24" transform="rotate(123.6 620.7 80.9)"/>
    <path d="M 372.5171768446113,939.9180509375808 C 412.4357802796609,973.1835538001221 425.7419814246774,1019.75525780768 372.5171768446113,1072.980062387746 C 319.2923722645452,1019.75525780768 332.5985734095617,973.1835538001221 372.5171768446113,939.9180509375808 Z" fill="url(#leaf14)" opacity="0.24" transform="rotate(119.5 372.5 1006.4)"/>
    <path d="M 1255.1977909290772,447.19347358653283 C 1296.138110151375,481.310406271781 1309.7848832254742,529.0741120311285 1255.1977909290772,583.6612043275255 C 1200.6106986326802,529.0741120311285 1214.2574717067794,481.310406271781 1255.1977909290772,447.19347358653283 Z" fill="url(#leaf15)" opacity="0.32" transform="rotate(338.7 1255.2 515.4)"/>
    <path d="M 376.39243649727933,44.5342116754731 C 412.9345020421146,74.98593296283582 425.1151905570597,117.61834276514364 376.39243649727933,166.341096824924 C 327.669682437499,117.61834276514364 339.85037095244405,74.98593296283582 376.39243649727933,44.5342116754731 Z" fill="url(#leaf16)" opacity="0.23" transform="rotate(354.1 376.4 105.4)"/>
    <path d="M 1158.1303477541715,759.4366812865594 C 1206.8575152625003,800.0426542101668 1223.0999044319435,856.8910163032173 1158.1303477541715,921.8605729809892 C 1093.1607910763994,856.8910163032173 1109.4031802458426,800.0426542101668 1158.1303477541715,759.4366812865594 Z" fill="url(#leaf17)" opacity="0.29" transform="rotate(338.1 1158.1 840.6)"/>
    <path d="M 193.0058006678412,604.4855878142953 C 245.1588773197459,647.9464850242159 262.5432362037141,708.7917411181047 193.0058006678412,778.3291766539776 C 123.46836513196831,708.7917411181047 140.85272401593653,647.9464850242159 193.0058006678412,604.4855878142953 Z" fill="url(#leaf18)" opacity="0.36" transform="rotate(188.1 193.0 691.4)"/>
    <path d="M 1053.0619134077497,333.8950743739596 C 1103.0122821497175,375.5203816589329 1119.662405063707,433.7958118578955 1053.0619134077497,500.3963035138528 C 986.4614217517924,433.7958118578955 1003.1115446657817,375.5203816589329 1053.0619134077497,333.8950743739596 Z" fill="url(#leaf19)" opacity="0.25" transform="rotate(351.8 1053.1 417.1)"/>
    <path d="M 1145.1102098202723,859.9773612866849 C 1195.4080241051215,901.8922065240592 1212.1739622000712,960.5729898563833 1145.1102098202723,1027.6367422361823 C 1078.0464574404734,960.5729898563833 1094.812395535423,901.8922065240592 1145.1102098202723,859.9773612866849 Z" fill="url(#leaf0)" opacity="0.24" transform="rotate(113.5 1145.1 943.8)"/>
    <path d="M 1082.6641573652478,389.2296845457828 C 1134.7743956662362,432.6548831299398 1152.144475099899,493.4501611477595 1082.6641573652478,562.9304788824106 C 1013.1838396305967,493.4501611477595 1030.5539190642594,432.6548831299398 1082.6641573652478,389.2296845457828 Z" fill="url(#leaf1)" opacity="0.35" transform="rotate(32.1 1082.7 476.1)"/>
    <path d="M 490.57352253193,256.6690213906823 C 526.6613446721075,286.74220650749686 538.6906187188333,328.84466567103726 490.57352253193,376.96176185794053 C 442.4564263450267,328.84466567103726 454.4857003917525,286.74220650749686 490.57352253193,256.6690213906823 Z" fill="url(#leaf2)" opacity="0.37" transform="rotate(202.7 490.6 316.8)"/>
  </g>

  <!-- Central star shape -->
  <polygon points="960.0,319.3 1024.9,450.7 1169.9,471.8 1065.0,574.1 1089.7,718.6 960.0,650.4 830.3,718.6 855.0,574.1 750.1,471.8 895.1,450.7" 
           fill="#7B68EE" 
           transform="rotate(275.0 960.0 540.0)"/>
</svg>