<?xml version="1.0" encoding="UTF-8"?>
<svg xmlns="http://www.w3.org/2000/svg" viewBox="0 0 1920 1080" width="1920" height="1080">
  <defs>
    <linearGradient id="bgGrad" x1="0%" y1="0%" x2="100%" y2="100%">
      <stop offset="0%" stop-color="#00FA9A"/>
      <stop offset="100%" stop-color="#9370DB"/>
    </linearGradient>
    <clipPath id="complexClip"><polygon points="1309.1,540.0 1366.0,588.5 1290.7,622.8 1283.1,672.1 1199.3,689.5 1215.9,789.4 1132.9,839.3 1000.1,754.5 910.1,807.0 823.4,776.5 697.3,796.0 636.4,742.2 557.6,704.5 610.6,627.5 540.5,590.2 512.0,540.0 573.1,493.7 578.5,444.5 611.8,397.7 583.1,304.6 687.2,274.2 789.2,244.2 910.9,277.1 1018.0,229.6 1121.3,260.7 1223.4,283.4 1193.4,394.2 1339.9,384.7 1407.9,427.8 1420.4,485.0"/></clipPath>
    <radialGradient id="leaf0" cx="50%" cy="50%" r="70%">
      <stop offset="0%" stop-color="#FFE66D"/>
      <stop offset="50%" stop-color="#7B68EE"/>
      <stop offset="100%" stop-color="#45B7D1"/>
    </radialGradient>
    <radialGradient id="leaf1" cx="50%" cy="50%" r="70%">
      <stop offset="0%" stop-color="#9370DB"/>
      <stop offset="50%" stop-color="#FFD700"/>
      <stop offset="100%" stop-color="#7B68EE"/>
    </radialGradient>
    <radialGradient id="leaf2" cx="50%" cy="50%" r="70%">
      <stop offset="0%" stop-color="#4ECDC4"/>
      <stop offset="50%" stop-color="#32CD32"/>
      <stop offset="100%" stop-color="#45B7D1"/>
    </radialGradient>
    <radialGradient id="leaf3" cx="50%" cy="50%" r="70%">
      <stop offset="0%" stop-color="#00FA9A"/>
      <stop offset="50%" stop-color="#FFD700"/>
      <stop offset="100%" stop-color="#32CD32"/>
    </radialGradient>
    <radialGradient id="leaf4" cx="50%" cy="50%" r="70%">
      <stop offset="0%" stop-color="#FF1493"/>
      <stop offset="50%" stop-color="#FFE66D"/>
      <stop offset="100%" stop-color="#FF4500"/>
    </radialGradient>
    <radialGradient id="leaf5" cx="50%" cy="50%" r="70%">
      <stop offset="0%" stop-color="#FF1493"/>
      <stop offset="50%" stop-color="#FFD700"/>
      <stop offset="100%" stop-color="#96E6A1"/>
    </radialGradient>
    <radialGradient id="leaf6" cx="50%" cy="50%" r="70%">
      <stop offset="0%" stop-color="#FF1493"/>
      <stop offset="50%" stop-color="#4ECDC4"/>
      <stop offset="100%" stop-color="#FF4500"/>
    </radialGradient>
    <radialGradient id="leaf7" cx="50%" cy="50%" r="70%">
      <stop offset="0%" stop-color="#FF1493"/>
      <stop offset="50%" stop-color="#9370DB"/>
      <stop offset="100%" stop-color="#DC143C"/>
    </radialGradient>
    <radialGradient id="leaf8" cx="50%" cy="50%" r="70%">
      <stop offset="0%" stop-color="#4ECDC4"/>
      <stop offset="50%" stop-color="#00CED1"/>
      <stop offset="100%" stop-color="#FF4500"/>
    </radialGradient>
    <radialGradient id="leaf9" cx="50%" cy="50%" r="70%">
      <stop offset="0%" stop-color="#FF6B6B"/>
      <stop offset="50%" stop-color="#FF1493"/>
      <stop offset="100%" stop-color="#FFD700"/>
    </radialGradient>
    <radialGradient id="leaf10" cx="50%" cy="50%" r="70%">
      <stop offset="0%" stop-color="#FFE66D"/>
      <stop offset="50%" stop-color="#96E6A1"/>
      <stop offset="100%" stop-color="#45B7D1"/>
    </radialGradient>
    <radialGradient id="leaf11" cx="50%" cy="50%" r="70%">
      <stop offset="0%" stop-color="#FF1493"/>
      <stop offset="50%" stop-color="#9370DB"/>
      <stop offset="100%" stop-color="#45B7D1"/>
    </radialGradient>
    <radialGradient id="leaf12" cx="50%" cy="50%" r="70%">
      <stop offset="0%" stop-color="#FFD700"/>
      <stop offset="50%" stop-color="#32CD32"/>
      <stop offset="100%" stop-color="#FFE66D"/>
    </radialGradient>
    <radialGradient id="leaf13" cx="50%" cy="50%" r="70%">
      <stop offset="0%" stop-color="#00FA9A"/>
      <stop offset="50%" stop-color="#FF4500"/>
      <stop offset="100%" stop-color="#45B7D1"/>
    </radialGradient>
    <radialGradient id="leaf14" cx="50%" cy="50%" r="70%">
      <stop offset="0%" stop-color="#00FA9A"/>
      <stop offset="50%" stop-color="#32CD32"/>
      <stop offset="100%" stop-color="#4ECDC4"/>
    </radialGradient>
    <radialGradient id="leaf15" cx="50%" cy="50%" r="70%">
      <stop offset="0%" stop-color="#00CED1"/>
      <stop offset="50%" stop-color="#FF6B6B"/>
      <stop offset="100%" stop-color="#32CD32"/>
    </radialGradient>
    <radialGradient id="leaf16" cx="50%" cy="50%" r="70%">
      <stop offset="0%" stop-color="#00CED1"/>
      <stop offset="50%" stop-color="#FFE66D"/>
      <stop offset="100%" stop-color="#9370DB"/>
    </radialGradient>
    <radialGradient id="leaf17" cx="50%" cy="50%" r="70%">
      <stop offset="0%" stop-color="#7B68EE"/>
      <stop offset="50%" stop-color="#FF69B4"/>
      <stop offset="100%" stop-color="#4ECDC4"/>
    </radialGradient>
    <radialGradient id="leaf18" cx="50%" cy="50%" r="70%">
      <stop offset="0%" stop-color="#00CED1"/>
      <stop offset="50%" stop-color="#FF6B6B"/>
      <stop offset="100%" stop-color="#9370DB"/>
    </radialGradient>
    <radialGradient id="leaf19" cx="50%" cy="50%" r="70%">
      <stop offset="0%" stop-color="#FF4500"/>
      <stop offset="50%" stop-color="#45B7D1"/>
      <stop offset="100%" stop-color="#00CED1"/>
    </radialGradient>
  </defs>

  <!-- Background -->
  <rect width="1920" height="1080" fill="url(#bgGrad)"/>
  
  <!-- Leaves with clip-path -->
  <g clip-path="url(#complexClip)">
    <path d="M 1042.8758458399134,518.666801366327 C 1072.4838051300485,543.340100774773 1082.3531248934269,577.8827199465973 1042.8758458399134,617.3599990001107 C 1003.3985667863999,577.8827199465973 1013.2678865497783,543.340100774773 1042.8758458399134,518.666801366327 Z" fill="url(#leaf0)" opacity="0.34" transform="rotate(266.4 1042.9 568.0)"/>
    <path d="M 1835.3421648412814,331.6571030682587 C 1882.619448880223,371.0548397673767 1898.3785435598702,426.21167114614184 1835.3421648412814,489.24804986473055 C 1772.3057861226926,426.21167114614184 1788.0648808023398,371.0548397673767 1835.3421648412814,331.6571030682587 Z" fill="url(#leaf1)" opacity="0.24" transform="rotate(198.0 1835.3 410.5)"/>
    <path d="M 1074.7345790064735,877.9839940461932 C 1116.4197793706828,912.7216610163675 1130.3148461587525,961.3543947746118 1074.7345790064735,1016.9346619268908 C 1019.1543118541944,961.3543947746118 1033.0493786422642,912.7216610163675 1074.7345790064735,877.9839940461932 Z" fill="url(#leaf2)" opacity="0.27" transform="rotate(36.4 1074.7 947.5)"/>
    <path d="M 820.1413102254779,833.2950320090075 C 861.0405751514104,867.3777527806179 874.6736634600546,915.0935618608725 820.1413102254779,969.6259150954492 C 765.6089569909012,915.0935618608725 779.2420452995455,867.3777527806179 820.1413102254779,833.2950320090075 Z" fill="url(#leaf3)" opacity="0.27" transform="rotate(102.5 820.1 901.5)"/>
    <path d="M 916.1149792881902,218.21096572990552 C 959.0243857315527,253.9688044327076 973.3275212126734,304.0297786166305 916.1149792881902,361.2423205411138 C 858.9024373637069,304.0297786166305 873.2055728448277,253.9688044327076 916.1149792881902,218.21096572990552 Z" fill="url(#leaf4)" opacity="0.27" transform="rotate(77.7 916.1 289.7)"/>
    <path d="M 1507.7427009578646,311.85341602028 C 1533.721473736163,333.5023933355288 1542.3810646622626,363.81096157687705 1507.7427009578646,398.4493252812751 C 1473.1043372534666,363.81096157687705 1481.7639281795662,333.5023933355288 1507.7427009578646,311.85341602028 Z" fill="url(#leaf5)" opacity="0.24" transform="rotate(91.2 1507.7 355.2)"/>
    <path d="M 801.7770961359372,255.157448929601 C 853.8738164332175,298.5713825106679 871.2393898656442,359.3508895241615 801.7770961359372,428.81318325386854 C 732.3148024062302,359.3508895241615 749.6803758386569,298.5713825106679 801.7770961359372,255.157448929601 Z" fill="url(#leaf6)" opacity="0.32" transform="rotate(141.9 801.8 342.0)"/>
    <path d="M 1038.2252504309422,139.68553050433889 C 1070.4902260596286,166.57301019491092 1081.2452179358575,204.21548176171177 1038.2252504309422,247.23544926662703 C 995.2052829260269,204.21548176171177 1005.9602748022558,166.57301019491092 1038.2252504309422,139.68553050433889 Z" fill="url(#leaf7)" opacity="0.35" transform="rotate(136.3 1038.2 193.5)"/>
    <path d="M 466.7424645538893,57.02956687481704 C 502.1607463309239,86.54480168901256 513.9668402566022,127.86613042888627 466.7424645538893,175.09050613159908 C 419.51808885117646,127.86613042888627 431.3241827768547,86.54480168901256 466.7424645538893,57.02956687481704 Z" fill="url(#leaf8)" opacity="0.22" transform="rotate(317.6 466.7 116.1)"/>
    <path d="M 1525.4607129997726,834.001816495211 C 1564.0337254881254,866.1459935688384 1576.8913963175764,911.1478414719168 1525.4607129997726,962.5785247897206 C 1474.0300296819687,911.1478414719168 1486.8877005114198,866.1459935688384 1525.4607129997726,834.001816495211 Z" fill="url(#leaf9)" opacity="0.36" transform="rotate(200.6 1525.5 898.3)"/>
    <path d="M 1571.334199814842,548.0611248544326 C 1607.2723881197376,578.0096151085124 1619.2517842213695,619.937501464224 1571.334199814842,667.8550858707517 C 1523.4166154083143,619.937501464224 1535.3960115099462,578.0096151085124 1571.334199814842,548.0611248544326 Z" fill="url(#leaf10)" opacity="0.26" transform="rotate(91.6 1571.3 608.0)"/>
    <path d="M 1332.0253568594069,636.4143251960487 C 1365.6805126491483,664.4602883541666 1376.8988979123956,703.7246367755315 1332.0253568594069,748.5981778285201 C 1287.1518158064182,703.7246367755315 1298.3702010696654,664.4602883541666 1332.0253568594069,636.4143251960487 Z" fill="url(#leaf11)" opacity="0.34" transform="rotate(233.0 1332.0 692.5)"/>
    <path d="M 567.9082756111103,173.29131968165035 C 592.8960523817273,194.11446699049782 601.2253113052662,223.26687322288427 567.9082756111103,256.5839089170402 C 534.5912399169544,223.26687322288427 542.9204988404933,194.11446699049782 567.9082756111103,173.29131968165035 Z" fill="url(#leaf12)" opacity="0.33" transform="rotate(134.1 567.9 214.9)"/>
    <path d="M 233.90382389344282,364.5460619858301 C 293.4224407223629,414.1449093432635 313.2619796653363,483.58329564367034 233.90382389344282,562.9414514155638 C 154.54566812154934,483.58329564367034 174.38520706452272,414.1449093432635 233.90382389344282,364.5460619858301 Z" fill="url(#leaf13)" opacity="0.34" transform="rotate(282.8 233.9 463.7)"/>
    <path d="M 1122.124152261442,245.88184199454588 C 1169.4669405782683,285.3341655919012 1185.2478700172105,340.5674186281986 1122.124152261442,403.6911363839671 C 1059.0004345056736,340.5674186281986 1074.7813639446158,285.3341655919012 1122.124152261442,245.88184199454588 Z" fill="url(#leaf14)" opacity="0.28" transform="rotate(279.0 1122.1 324.8)"/>
    <path d="M 1500.2565921069356,197.6411013655802 C 1553.1075894202204,241.68359912665076 1570.7245885246484,303.34309599214953 1500.2565921069356,373.81109240986245 C 1429.7885956892228,303.34309599214953 1447.4055947936508,241.68359912665076 1500.2565921069356,197.6411013655802 Z" fill="url(#leaf15)" opacity="0.36" transform="rotate(320.9 1500.3 285.7)"/>
    <path d="M 1057.4873668920998,947.1314516157458 C 1106.8117557040719,988.235108959056 1123.253218641396,1045.7802292396902 1057.4873668920998,1111.5460809889864 C 991.7215151428035,1045.7802292396902 1008.1629780801276,988.235108959056 1057.4873668920998,947.1314516157458 Z" fill="url(#leaf16)" opacity="0.29" transform="rotate(149.9 1057.5 1029.3)"/>
    <path d="M 758.6290216503963,136.6602363961486 C 797.7006771038949,169.2199492740641 810.7245622550612,214.80354730314582 758.6290216503963,266.8990879078106 C 706.5334810457315,214.80354730314582 719.5573661968978,169.2199492740641 758.6290216503963,136.6602363961486 Z" fill="url(#leaf17)" opacity="0.37" transform="rotate(77.8 758.6 201.8)"/>
    <path d="M 388.40442566044686,930.9616564505676 C 435.1771449581597,969.938922531995 450.7680513907307,1024.5070950459933 388.40442566044686,1086.8707207762773 C 326.040799930163,1024.5070950459933 341.631706362734,969.938922531995 388.40442566044686,930.9616564505676 Z" fill="url(#leaf18)" opacity="0.34" transform="rotate(316.1 388.4 1008.9)"/>
    <path d="M 1732.882097416551,473.5668680806756 C 1759.4889327537605,495.73923086168355 1768.3578778661638,526.7805387550947 1732.882097416551,562.2563192047074 C 1697.4063169669382,526.7805387550947 1706.2752620793415,495.73923086168355 1732.882097416551,473.5668680806756 Z" fill="url(#leaf19)" opacity="0.33" transform="rotate(3.6 1732.9 517.9)"/>
    <path d="M 1837.437463740331,86.75880153605172 C 1878.428966145654,120.9183868738209 1892.0928002807616,168.74180634669773 1837.437463740331,223.3971428871284 C 1782.7821271999003,168.74180634669773 1796.445961335008,120.9183868738209 1837.437463740331,86.75880153605172 Z" fill="url(#leaf0)" opacity="0.32" transform="rotate(278.1 1837.4 155.1)"/>
    <path d="M 1763.5643455879065,739.6399614884984 C 1809.1365762481244,777.6168203720133 1824.3273198015304,830.7844228089341 1763.5643455879065,891.5473970225579 C 1702.8013713742826,830.7844228089341 1717.9921149276886,777.6168203720133 1763.5643455879065,739.6399614884984 Z" fill="url(#leaf1)" opacity="0.37" transform="rotate(21.5 1763.6 815.6)"/>
    <path d="M 1834.4628554993071,12.195521947938715 C 1878.594216713122,48.97165629278448 1893.3046704510602,100.45824437556855 1834.4628554993071,159.30005932732178 C 1775.621040547554,100.45824437556855 1790.3314942854922,48.97165629278448 1834.4628554993071,12.195521947938715 Z" fill="url(#leaf2)" opacity="0.21" transform="rotate(277.7 1834.5 85.7)"/>
    <path d="M 665.0881966550635,448.9695768570279 C 697.6837249180139,476.13251707615325 708.5489010056641,514.1606333829288 665.0881966550635,557.6213377335295 C 621.6274923044629,514.1606333829288 632.492668392113,476.13251707615325 665.0881966550635,448.9695768570279 Z" fill="url(#leaf3)" opacity="0.35" transform="rotate(298.1 665.1 503.3)"/>
    <path d="M 1757.8597662046766,565.632610355011 C 1793.8427563226248,595.6184354533012 1805.837086361941,637.5985905909075 1757.8597662046766,685.5759107481719 C 1709.8824460474123,637.5985905909075 1721.8767760867283,595.6184354533012 1757.8597662046766,565.632610355011 Z" fill="url(#leaf4)" opacity="0.32" transform="rotate(105.2 1757.9 625.6)"/>
    <path d="M 332.552396759466,60.93670061427351 C 363.7380316352246,86.9247296774057 374.13324326047746,123.30797036579074 332.552396759466,164.88881686680222 C 290.9715502584545,123.30797036579074 301.36676188370734,86.9247296774057 332.552396759466,60.93670061427351 Z" fill="url(#leaf5)" opacity="0.39" transform="rotate(282.2 332.6 112.9)"/>
    <path d="M 1272.3632040024859,214.69549774359874 C 1325.797463482928,259.2240473106337 1343.608883309742,321.5640167044827 1272.3632040024859,392.80969601173865 C 1201.1175246952298,321.5640167044827 1218.9289445220438,259.2240473106337 1272.3632040024859,214.69549774359874 Z" fill="url(#leaf6)" opacity="0.36" transform="rotate(17.2 1272.4 303.8)"/>
    <path d="M 1696.2009732931772,395.38341270449416 C 1750.7569511327922,440.84672757084 1768.9422770793306,504.49536838372427 1696.2009732931772,577.2366721698777 C 1623.4596695070238,504.49536838372427 1641.6449954535622,440.84672757084 1696.2009732931772,395.38341270449416 Z" fill="url(#leaf7)" opacity="0.26" transform="rotate(243.4 1696.2 486.3)"/>
    <path d="M 489.2396532317004,103.0134757862536 C 548.3156297850626,152.2434562473888 568.0076219695167,221.16542889297804 489.2396532317004,299.93339763079433 C 410.4716844938841,221.16542889297804 430.16367667833816,152.2434562473888 489.2396532317004,103.0134757862536 Z" fill="url(#leaf8)" opacity="0.29" transform="rotate(260.6 489.2 201.5)"/>
    <path d="M 355.70153173777754,718.1391166614575 C 392.16636810030207,748.5264802968945 404.32131355447694,791.0687893865065 355.70153173777754,839.6885712032059 C 307.08174992107814,791.0687893865065 319.236695375253,748.5264802968945 355.70153173777754,718.1391166614575 Z" fill="url(#leaf9)" opacity="0.25" transform="rotate(233.1 355.7 778.9)"/>
    <path d="M 1470.6407851056642,351.52410754078704 C 1501.162569387249,376.9589277754411 1511.3364974811107,412.5676761039568 1470.6407851056642,453.2633884794033 C 1429.9450727302178,412.5676761039568 1440.1190008240794,376.9589277754411 1470.6407851056642,351.52410754078704 Z" fill="url(#leaf10)" opacity="0.37" transform="rotate(148.6 1470.6 402.4)"/>
    <path d="M 862.7860932240134,320.7152565984105 C 903.9860278829037,355.04853548081917 917.7193394358671,403.11512591619123 862.7860932240134,458.048372128045 C 807.8528470121596,403.11512591619123 821.586158565123,355.04853548081917 862.7860932240134,320.7152565984105 Z" fill="url(#leaf11)" opacity="0.39" transform="rotate(14.4 862.8 389.4)"/>
    <path d="M 1775.178560328855,362.29489321973847 C 1826.9322191337492,405.42294222381696 1844.1834387353806,465.80221082952687 1775.178560328855,534.8070892360524 C 1706.1736819223293,465.80221082952687 1723.4249015239607,405.42294222381696 1775.178560328855,362.29489321973847 Z" fill="url(#leaf12)" opacity="0.40" transform="rotate(87.4 1775.2 448.6)"/>
    <path d="M 1254.6646926553326,823.5098609250653 C 1310.0868145809063,869.6949625297101 1328.5608552227643,934.3541047762127 1254.6646926553326,1008.2502673436444 C 1180.768530087901,934.3541047762127 1199.2425707297589,869.6949625297101 1254.6646926553326,823.5098609250653 Z" fill="url(#leaf13)" opacity="0.34" transform="rotate(343.5 1254.7 915.9)"/>
    <path d="M 1807.3940239636977,710.4499133389788 C 1861.8008217070221,755.7889114584159 1879.936420954797,819.2635088256278 1807.3940239636977,891.8059058167271 C 1734.8516269725983,819.2635088256278 1752.9872262203733,755.7889114584159 1807.3940239636977,710.4499133389788 Z" fill="url(#leaf14)" opacity="0.28" transform="rotate(205.9 1807.4 801.1)"/>
    <path d="M 875.65443027986,281.18700418580613 C 918.7290492210434,317.0825199701257 933.0872555347712,367.336242068173 875.65443027986,424.7690673230843 C 818.2216050249488,367.336242068173 832.5798113386766,317.0825199701257 875.65443027986,281.18700418580613 Z" fill="url(#leaf15)" opacity="0.27" transform="rotate(37.7 875.7 353.0)"/>
    <path d="M 444.9957665344201,587.2362896117762 C 502.5416897414053,635.1912256175973 521.7236641437337,702.3281360257466 444.9957665344201,779.0560336350603 C 368.2678689251065,702.3281360257466 387.4498433274349,635.1912256175973 444.9957665344201,587.2362896117762 Z" fill="url(#leaf16)" opacity="0.24" transform="rotate(5.5 445.0 683.1)"/>
    <path d="M 799.8800269585488,285.24534922558706 C 844.1947047415708,322.1742473781054 858.9662640025782,373.87470479163113 799.8800269585488,432.96094183566055 C 740.7937899145194,373.87470479163113 755.5653491755268,322.1742473781054 799.8800269585488,285.24534922558706 Z" fill="url(#leaf17)" opacity="0.27" transform="rotate(163.7 799.9 359.1)"/>
    <path d="M 790.9946177965215,636.635832139351 C 849.4051494041441,685.3112751457031 868.875326606685,753.4568953545962 790.9946177965215,831.3376041647597 C 713.1139089863581,753.4568953545962 732.5840861888989,685.3112751457031 790.9946177965215,636.635832139351 Z" fill="url(#leaf18)" opacity="0.21" transform="rotate(95.3 791.0 734.0)"/>
    <path d="M 419.82770395726556,781.3800432268032 C 465.64319123819075,819.5596159609075 480.9150203318325,873.0110177886536 419.82770395726556,934.0983341632206 C 358.7403875826986,873.0110177886536 374.01221667634036,819.5596159609075 419.82770395726556,781.3800432268032 Z" fill="url(#leaf19)" opacity="0.33" transform="rotate(282.2 419.8 857.7)"/>
    <path d="M 58.66946194558405,869.5797880319665 C 82.70225649503053,889.607116823172 90.7131880115127,917.6453771308595 58.66946194558405,949.6891031967882 C 26.625735879655394,917.6453771308595 34.63666739613756,889.607116823172 58.66946194558405,869.5797880319665 Z" fill="url(#leaf0)" opacity="0.22" transform="rotate(107.7 58.7 909.6)"/>
    <path d="M 174.91584038643845,891.0049619429956 C 233.48644287882274,939.8137973533157 253.00997704295088,1008.1461669277642 174.91584038643845,1086.2403035842765 C 96.82170372992603,1008.1461669277642 116.34523789405415,939.8137973533157 174.91584038643845,891.0049619429956 Z" fill="url(#leaf1)" opacity="0.36" transform="rotate(319.8 174.9 988.6)"/>
    <path d="M 449.74718503017317,949.0164312601967 C 497.42357544614896,988.7467566068432 513.3157055848076,1044.3692120921482 449.74718503017317,1107.9377326467827 C 386.17866447553877,1044.3692120921482 402.0707946141974,988.7467566068432 449.74718503017317,949.0164312601967 Z" fill="url(#leaf2)" opacity="0.35" transform="rotate(126.0 449.7 1028.5)"/>
    <path d="M 1083.4533239414354,355.43247308462446 C 1135.5959806457874,398.88468700491785 1152.976866213905,459.7177864933286 1083.4533239414354,529.241328765798 C 1013.929781668966,459.7177864933286 1031.3106672370834,398.88468700491785 1083.4533239414354,355.43247308462446 Z" fill="url(#leaf3)" opacity="0.28" transform="rotate(208.3 1083.5 442.3)"/>
    <path d="M 570.0598174134009,674.1096432373309 C 623.2262947298431,718.4150410010327 640.9484538353238,780.4425978702153 570.0598174134009,851.3312342921382 C 499.17118099147797,780.4425978702153 516.8933400969587,718.4150410010327 570.0598174134009,674.1096432373309 Z" fill="url(#leaf4)" opacity="0.38" transform="rotate(105.0 570.1 762.7)"/>
    <path d="M 1380.6492549105778,838.140561555276 C 1419.0871511839491,870.1721417830853 1431.8997832750729,915.0163541020185 1380.6492549105778,966.2668824665134 C 1329.3987265460828,915.0163541020185 1342.2113586372066,870.1721417830853 1380.6492549105778,838.140561555276 Z" fill="url(#leaf5)" opacity="0.27" transform="rotate(42.1 1380.6 902.2)"/>
    <path d="M 161.54075024228587,101.36031933379908 C 207.7615614190437,139.87766198109728 223.16849847796297,193.80194168731475 161.54075024228587,255.42968992299186 C 99.91300200660876,193.80194168731475 115.31993906552805,139.87766198109728 161.54075024228587,101.36031933379908 Z" fill="url(#leaf6)" opacity="0.35" transform="rotate(14.0 161.5 178.4)"/>
    <path d="M 313.9740698544716,885.1645341500617 C 372.75611134993835,934.1495687296173 392.3501251817606,1002.7286171409952 313.9740698544716,1081.1046724682842 C 235.59801452718267,1002.7286171409952 255.1920283590049,934.1495687296173 313.9740698544716,885.1645341500617 Z" fill="url(#leaf7)" opacity="0.28" transform="rotate(347.3 314.0 983.1)"/>
    <path d="M 1421.788383376508,29.326972186306065 C 1456.0850950414915,57.90756524045908 1467.5173322631526,97.9203955162733 1421.788383376508,143.64934440291813 C 1376.0594344898632,97.9203955162733 1387.4916717115243,57.90756524045908 1421.788383376508,29.326972186306065 Z" fill="url(#leaf8)" opacity="0.26" transform="rotate(151.3 1421.8 86.5)"/>
    <path d="M 806.2023865779538,818.037787451703 C 831.6685145189747,839.259560735887 840.1572238326482,868.9700433337446 806.2023865779538,902.924880588439 C 772.2475493232594,868.9700433337446 780.7362586369329,839.259560735887 806.2023865779538,818.037787451703 Z" fill="url(#leaf9)" opacity="0.25" transform="rotate(89.3 806.2 860.5)"/>
    <path d="M 297.6469034235255,831.8445564285505 C 344.19256336014035,870.6326063757296 359.707783339012,924.9358763017802 297.6469034235255,986.9967562172667 C 235.586023508039,924.9358763017802 251.10124348691062,870.6326063757296 297.6469034235255,831.8445564285505 Z" fill="url(#leaf10)" opacity="0.36" transform="rotate(140.4 297.6 909.4)"/>
    <path d="M 1581.0864502803756,115.62056183057692 C 1625.1978448955663,152.38005734323576 1639.9016431006298,203.84335106095816 1581.0864502803756,262.65854388121227 C 1522.2712574601214,203.84335106095816 1536.975055665185,152.38005734323576 1581.0864502803756,115.62056183057692 Z" fill="url(#leaf11)" opacity="0.29" transform="rotate(303.4 1581.1 189.1)"/>
    <path d="M 1556.2179810263535,169.08416823285503 C 1593.523710337576,200.17227599220712 1605.958953441317,243.6956268553 1556.2179810263535,293.4365992702633 C 1506.4770086113901,243.6956268553 1518.912251715131,200.17227599220712 1556.2179810263535,169.08416823285503 Z" fill="url(#leaf12)" opacity="0.36" transform="rotate(221.3 1556.2 231.3)"/>
    <path d="M 1092.699558515188,396.725622513192 C 1118.0612121506306,417.86033387606074 1126.515096695778,447.44892978407694 1092.699558515188,481.2644679646669 C 1058.884020334598,447.44892978407694 1067.3379048797456,417.86033387606074 1092.699558515188,396.725622513192 Z" fill="url(#leaf13)" opacity="0.34" transform="rotate(102.7 1092.7 439.0)"/>
    <path d="M 1306.6902029046028,547.3892718239485 C 1336.8307380228534,572.5063844224909 1346.8775830622703,607.67034206045 1306.6902029046028,647.8577222181177 C 1266.5028227469352,607.67034206045 1276.549667786352,572.5063844224909 1306.6902029046028,547.3892718239485 Z" fill="url(#leaf14)" opacity="0.30" transform="rotate(178.3 1306.7 597.6)"/>
    <path d="M 1758.3660352807635,545.6239219950141 C 1816.9442420652347,594.4390943154068 1836.4703109933919,662.7803355639566 1758.3660352807635,740.8846112765848 C 1680.2617595681352,662.7803355639566 1699.7878284962924,594.4390943154068 1758.3660352807635,545.6239219950141 Z" fill="url(#leaf15)" opacity="0.35" transform="rotate(342.4 1758.4 643.3)"/>
    <path d="M 148.50203615223597,493.0335020173312 C 200.6355905070799,536.4781306463678 218.01344195869456,597.3006107270191 148.50203615223597,666.8120165334777 C 78.99063034577739,597.3006107270191 96.36848179739204,536.4781306463678 148.50203615223597,493.0335020173312 Z" fill="url(#leaf16)" opacity="0.39" transform="rotate(115.0 148.5 579.9)"/>
    <path d="M 1378.9824371070697,294.98529185586733 C 1416.0885749166382,325.90707336384116 1428.4572875198278,369.19756747500446 1378.9824371070697,418.67241788776255 C 1329.5075866943116,369.19756747500446 1341.8762992975012,325.90707336384116 1378.9824371070697,294.98529185586733 Z" fill="url(#leaf17)" opacity="0.34" transform="rotate(89.3 1379.0 356.8)"/>
    <path d="M 97.6891948666027,775.6881037585099 C 146.3635524092192,816.2500683773569 162.58833825675805,873.0368188437428 97.6891948666027,937.9359622338982 C 32.79005147644736,873.0368188437428 49.01483732398621,816.2500683773569 97.6891948666027,775.6881037585099 Z" fill="url(#leaf18)" opacity="0.21" transform="rotate(323.1 97.7 856.8)"/>
    <path d="M 286.5306488099642,21.457166719245436 C 331.3342758989336,58.79352262671995 346.2688182619234,111.06442089718426 286.5306488099642,170.8025903491435 C 226.79247935800498,111.06442089718426 241.72702172099477,58.79352262671995 286.5306488099642,21.457166719245436 Z" fill="url(#leaf19)" opacity="0.27" transform="rotate(22.9 286.5 96.1)"/>
    <path d="M 1275.3064220454708,502.28880742628127 C 1314.001606158637,534.5347941872532 1326.9000008630258,579.6791756526138 1275.3064220454708,631.2727544701688 C 1223.7128432279158,579.6791756526138 1236.6112379323044,534.5347941872532 1275.3064220454708,502.28880742628127 Z" fill="url(#leaf0)" opacity="0.30" transform="rotate(245.0 1275.3 566.8)"/>
    <path d="M 548.466824646007,120.36887388089104 C 593.7101202442446,158.07162021275573 608.7912187769905,210.8554650773663 548.466824646007,271.1798592083498 C 488.14243051502353,210.8554650773663 503.2235290477694,158.07162021275573 548.466824646007,120.36887388089104 Z" fill="url(#leaf1)" opacity="0.35" transform="rotate(314.6 548.5 195.8)"/>
    <path d="M 1048.6765281454655,148.79372474877215 C 1096.0318294370545,188.2564758250963 1111.8169298675841,243.50432733195004 1048.6765281454655,306.64472905406865 C 985.5361264233469,243.50432733195004 1001.3212268538765,188.2564758250963 1048.6765281454655,148.79372474877215 Z" fill="url(#leaf2)" opacity="0.20" transform="rotate(201.8 1048.7 227.7)"/>
    <path d="M 1860.9658092014606,569.5019685355211 C 1885.9605794779527,590.330943765931 1894.2921695701166,619.491509088505 1860.9658092014606,652.817869457161 C 1827.6394488328046,619.491509088505 1835.9710389249685,590.330943765931 1860.9658092014606,569.5019685355211 Z" fill="url(#leaf3)" opacity="0.37" transform="rotate(232.8 1861.0 611.2)"/>
    <path d="M 465.0995860544551,595.9027131757123 C 519.5644423236552,641.2900934000457 537.7193944133885,704.8324257141124 465.0995860544551,777.4522340730459 C 392.47977769552165,704.8324257141124 410.634729785255,641.2900934000457 465.0995860544551,595.9027131757123 Z" fill="url(#leaf4)" opacity="0.22" transform="rotate(134.6 465.1 686.7)"/>
    <path d="M 771.593158204356,497.0781453368908 C 831.3668557884777,546.8895599903256 851.2914216498516,616.6255405051343 771.593158204356,696.3238039506298 C 691.8948947588603,616.6255405051343 711.8194606202343,546.8895599903256 771.593158204356,497.0781453368908 Z" fill="url(#leaf5)" opacity="0.35" transform="rotate(142.3 771.6 596.7)"/>
    <path d="M 1061.8722711045975,54.576776519281495 C 1095.212125712774,82.35998869276182 1106.3254105821661,121.25648573563429 1061.8722711045975,165.7096252132028 C 1017.419131627029,121.25648573563429 1028.532416496421,82.35998869276182 1061.8722711045975,54.576776519281495 Z" fill="url(#leaf6)" opacity="0.32" transform="rotate(196.2 1061.9 110.1)"/>
    <path d="M 1057.158227337727,258.64784515894723 C 1108.6145341257095,301.5281008155992 1125.7666363883702,361.5604587349119 1057.158227337727,430.168867785555 C 988.549818287084,361.5604587349119 1005.7019205497448,301.5281008155992 1057.158227337727,258.64784515894723 Z" fill="url(#leaf7)" opacity="0.25" transform="rotate(244.9 1057.2 344.4)"/>
    <path d="M 155.92610234231086,60.23729014139755 C 210.43046643435554,105.65759355143479 228.59858779837043,169.24601832548692 155.92610234231086,241.9185037815465 C 83.25361688625128,169.24601832548692 101.42173825026617,105.65759355143479 155.92610234231086,60.23729014139755 Z" fill="url(#leaf8)" opacity="0.26" transform="rotate(138.9 155.9 151.1)"/>
    <path d="M 1514.7331453543245,-24.74650761904391 C 1570.388839128784,21.6332371930056 1588.9407370536037,86.5648799298749 1514.7331453543245,160.77247162915413 C 1440.5255536550453,86.5648799298749 1459.077451579865,21.6332371930056 1514.7331453543245,-24.74650761904391 Z" fill="url(#leaf9)" opacity="0.29" transform="rotate(330.8 1514.7 68.0)"/>
    <path d="M 1610.5648979880825,290.96117866413914 C 1643.4322206490365,318.3506142149341 1654.3879948693545,356.6958239860471 1610.5648979880825,400.5189208673191 C 1566.7418011068105,356.6958239860471 1577.6975753271286,318.3506142149341 1610.5648979880825,290.96117866413914 Z" fill="url(#leaf10)" opacity="0.35" transform="rotate(126.2 1610.6 345.7)"/>
    <path d="M 742.3686449550785,872.1783536048948 C 795.0377145456285,916.0692449303533 812.5940710758119,977.5164927859951 742.3686449550785,1047.7419189067284 C 672.143218834345,977.5164927859951 689.6995753645284,916.0692449303533 742.3686449550785,872.1783536048948 Z" fill="url(#leaf11)" opacity="0.28" transform="rotate(72.9 742.4 960.0)"/>
    <path d="M 688.6000268617078,29.86065252520652 C 713.710150020729,50.785755157724154 722.0801910737359,80.08089884324885 688.6000268617078,113.56106305527706 C 655.1198626496796,80.08089884324885 663.4899037026865,50.785755157724154 688.6000268617078,29.86065252520652 Z" fill="url(#leaf12)" opacity="0.30" transform="rotate(215.7 688.6 71.7)"/>
    <path d="M 1544.1436655107943,390.36138512258344 C 1579.2645027744172,419.62874950893587 1590.9714485289583,460.6030596498293 1544.1436655107943,507.43084266799315 C 1497.3158824926304,460.6030596498293 1509.0228282471714,419.62874950893587 1544.1436655107943,390.36138512258344 Z" fill="url(#leaf13)" opacity="0.36" transform="rotate(187.4 1544.1 448.9)"/>
    <path d="M 410.2160508113506,188.45172660252462 C 443.0250839566293,215.79258755692354 453.9614283383889,254.06979289308202 410.2160508113506,297.8151704201203 C 366.47067328431234,254.06979289308202 377.4070176660719,215.79258755692354 410.2160508113506,188.45172660252462 Z" fill="url(#leaf14)" opacity="0.37" transform="rotate(195.0 410.2 243.1)"/>
    <path d="M 226.07147664577303,839.6040382778187 C 282.5621021110576,886.6795594988891 301.39231059948577,952.5852892083878 226.07147664577303,1027.9061231621006 C 150.75064269206027,952.5852892083878 169.58085118048848,886.6795594988891 226.07147664577303,839.6040382778187 Z" fill="url(#leaf15)" opacity="0.21" transform="rotate(35.5 226.1 933.8)"/>
    <path d="M 1171.1784151369325,420.500227868927 C 1204.9671282164657,448.65748876853803 1216.2300325763101,488.0776540279935 1171.1784151369325,533.1292714673712 C 1126.1267976975548,488.0776540279935 1137.3897020573993,448.65748876853803 1171.1784151369325,420.500227868927 Z" fill="url(#leaf16)" opacity="0.31" transform="rotate(328.8 1171.2 476.8)"/>
    <path d="M 664.1967435353035,263.2626562104964 C 712.0537553349335,303.1434993768547 728.0060926014768,358.9766798097563 664.1967435353035,422.78602887592956 C 600.3873944691303,358.9766798097563 616.3397317356736,303.1434993768547 664.1967435353035,263.2626562104964 Z" fill="url(#leaf17)" opacity="0.36" transform="rotate(13.7 664.2 343.0)"/>
    <path d="M 541.71834130197,460.4501847675713 C 575.7303657083801,488.7935384395797 587.0677071771835,528.4742335803916 541.71834130197,573.8235994556051 C 496.3689754267565,528.4742335803916 507.70631689555984,488.7935384395797 541.71834130197,460.4501847675713 Z" fill="url(#leaf18)" opacity="0.39" transform="rotate(77.9 541.7 517.1)"/>
    <path d="M 1711.5425399465664,311.0294408142081 C 1739.6355893257714,334.440315296879 1748.9999391188398,367.21553957261824 1711.5425399465664,404.67293874489167 C 1674.085140774293,367.21553957261824 1683.4494905673614,334.440315296879 1711.5425399465664,311.0294408142081 Z" fill="url(#leaf19)" opacity="0.37" transform="rotate(82.1 1711.5 357.9)"/>
    <path d="M 1142.5923031764075,590.1496888781473 C 1196.284371809734,634.8930794059195 1214.181728020843,697.5338261448003 1142.5923031764075,769.1232509892357 C 1071.0028783319722,697.5338261448003 1088.900234543081,634.8930794059195 1142.5923031764075,590.1496888781473 Z" fill="url(#leaf0)" opacity="0.29" transform="rotate(57.4 1142.6 679.6)"/>
    <path d="M 1202.8483025640642,459.8950935543985 C 1250.5140072161125,499.61651409777215 1266.402575433462,555.2265028584952 1202.8483025640642,618.7807757278931 C 1139.2940296946663,555.2265028584952 1155.1825979120158,499.61651409777215 1202.8483025640642,459.8950935543985 Z" fill="url(#leaf1)" opacity="0.22" transform="rotate(152.2 1202.8 539.3)"/>
    <path d="M 330.512072825992,75.83706909291897 C 360.51343624881184,100.83820527860219 370.5138907230851,135.8397959385587 330.512072825992,175.84161383565186 C 290.51025492889886,135.8397959385587 300.51070940317214,100.83820527860219 330.512072825992,75.83706909291897 Z" fill="url(#leaf2)" opacity="0.21" transform="rotate(234.2 330.5 125.8)"/>
    <path d="M 802.8817001800111,85.4202814624341 C 852.3965704057293,126.68267331719936 868.9015271476355,184.45002191387073 802.8817001800111,250.46984888149512 C 736.8618732123866,184.45002191387073 753.3668299542928,126.68267331719936 802.8817001800111,85.4202814624341 Z" fill="url(#leaf3)" opacity="0.21" transform="rotate(302.3 802.9 167.9)"/>
    <path d="M 183.43340568033483,847.2774780642144 C 243.12095129446163,897.01709940932 263.0167998325039,966.652569292468 183.43340568033483,1046.235963444637 C 103.85001152816574,966.652569292468 123.74586006620802,897.01709940932 183.43340568033483,847.2774780642144 Z" fill="url(#leaf4)" opacity="0.22" transform="rotate(194.7 183.4 946.8)"/>
    <path d="M 1318.9129286412158,521.5166290298265 C 1343.945133818083,542.3768000105492 1352.289202210372,571.5810393835609 1318.9129286412158,604.9573129527172 C 1285.5366550720596,571.5810393835609 1293.8807234643486,542.3768000105492 1318.9129286412158,521.5166290298265 Z" fill="url(#leaf5)" opacity="0.20" transform="rotate(37.8 1318.9 563.2)"/>
    <path d="M 1115.7599716005052,583.0756624035776 C 1140.5258105674138,603.7138615426682 1148.7810902230501,632.607340337395 1115.7599716005052,665.62845895994 C 1082.7388529779603,632.607340337395 1090.9941326335966,603.7138615426682 1115.7599716005052,583.0756624035776 Z" fill="url(#leaf6)" opacity="0.24" transform="rotate(48.4 1115.8 624.4)"/>
    <path d="M 751.9229357589461,227.85258202639608 C 782.3939904334575,253.24512758848888 792.5510086582946,288.79469137541884 751.9229357589461,329.4227642747673 C 711.2948628595976,288.79469137541884 721.4518810844347,253.24512758848888 751.9229357589461,227.85258202639608 Z" fill="url(#leaf7)" opacity="0.32" transform="rotate(61.5 751.9 278.6)"/>
    <path d="M 1783.302637138265,600.1224434585516 C 1835.8807810154474,643.9375633562036 1853.4068289745082,705.2787312129163 1783.302637138265,775.3829230491596 C 1713.1984453020218,705.2787312129163 1730.7244932610827,643.9375633562036 1783.302637138265,600.1224434585516 Z" fill="url(#leaf8)" opacity="0.32" transform="rotate(161.2 1783.3 687.8)"/>
    <path d="M 708.1480695987905,39.17099715235581 C 741.5780976831192,67.02935388929635 752.7214403778953,106.03105332101312 708.1480695987905,150.60442410011797 C 663.5746988196856,106.03105332101312 674.7180415144618,67.02935388929635 708.1480695987905,39.17099715235581 Z" fill="url(#leaf9)" opacity="0.29" transform="rotate(136.7 708.1 94.9)"/>
    <path d="M 1826.2901362684818,46.258556882080995 C 1869.7329042562224,82.46086353853151 1884.2138269188026,133.14409285756224 1826.2901362684818,191.06778350788306 C 1768.366445618161,133.14409285756224 1782.8473682807412,82.46086353853151 1826.2901362684818,46.258556882080995 Z" fill="url(#leaf10)" opacity="0.24" transform="rotate(255.9 1826.3 118.7)"/>
    <path d="M 335.7082209592836,-8.980832022084115 C 377.517777330402,25.86046495384788 391.4542961207748,74.63828072015268 335.7082209592836,130.38435588164387 C 279.9621457977924,74.63828072015268 293.8986645881652,25.86046495384788 335.7082209592836,-8.980832022084115 Z" fill="url(#leaf11)" opacity="0.20" transform="rotate(47.4 335.7 60.7)"/>
    <path d="M 1562.5502121636607,886.6659428443893 C 1618.5925644997294,933.3679031244467 1637.2733486117525,998.7506475165269 1562.5502121636607,1073.4737839646186 C 1487.827075715569,998.7506475165269 1506.507859827592,933.3679031244467 1562.5502121636607,886.6659428443893 Z" fill="url(#leaf12)" opacity="0.36" transform="rotate(259.8 1562.6 980.1)"/>
    <path d="M 1424.9138821133706,280.3492309561821 C 1452.3164291561657,303.18468682517795 1461.450611503764,335.1543250417722 1424.9138821133706,371.6910544321656 C 1388.3771527229771,335.1543250417722 1397.5113350705756,303.18468682517795 1424.9138821133706,280.3492309561821 Z" fill="url(#leaf13)" opacity="0.39" transform="rotate(97.9 1424.9 326.0)"/>
    <path d="M 1612.2490523837498,332.3094638824627 C 1642.9655634205587,357.9065564131368 1653.2044004328284,393.74248595608054 1612.2490523837498,434.6978340051591 C 1571.2937043346712,393.74248595608054 1581.532541346941,357.9065564131368 1612.2490523837498,332.3094638824627 Z" fill="url(#leaf14)" opacity="0.22" transform="rotate(350.2 1612.2 383.5)"/>
    <path d="M 1051.6332512829424,88.65062428836524 C 1090.5894602166577,121.114131733128 1103.5748631945628,166.56304215579587 1051.6332512829424,218.5046540674163 C 999.691639371322,166.56304215579587 1012.6770423492271,121.114131733128 1051.6332512829424,88.65062428836524 Z" fill="url(#leaf15)" opacity="0.24" transform="rotate(249.0 1051.6 153.6)"/>
    <path d="M 1558.1480910112423,924.1545322068027 C 1616.8619222203135,973.0827248810289 1636.433199290004,1041.5821946249453 1558.1480910112423,1119.867302903707 C 1479.8629827324805,1041.5821946249453 1499.434259802171,973.0827248810289 1558.1480910112423,924.1545322068027 Z" fill="url(#leaf16)" opacity="0.33" transform="rotate(263.0 1558.1 1022.0)"/>
    <path d="M 1725.848634248499,-4.881782749810839 C 1760.7022879459014,24.162928664691165 1772.3201725117021,64.82552464499398 1725.848634248499,111.29706290819718 C 1679.3770959852957,64.82552464499398 1690.9949805510964,24.162928664691165 1725.848634248499,-4.881782749810839 Z" fill="url(#leaf17)" opacity="0.36" transform="rotate(245.9 1725.8 53.2)"/>
    <path d="M 1826.0950342513015,124.97298752417092 C 1872.961588318303,164.02844924667215 1888.5837730073035,218.70609565817392 1826.0950342513015,281.19483441417594 C 1763.6062954952995,218.70609565817392 1779.2284801843,164.02844924667215 1826.0950342513015,124.97298752417092 Z" fill="url(#leaf18)" opacity="0.40" transform="rotate(10.8 1826.1 203.1)"/>
    <path d="M 1265.9273095050546,831.9310844310897 C 1324.8797013251099,881.0580776144691 1344.5304985984617,949.8358680712001 1265.9273095050546,1028.4390571646072 C 1187.3241204116475,949.8358680712001 1206.9749176849994,881.0580776144691 1265.9273095050546,831.9310844310897 Z" fill="url(#leaf19)" opacity="0.22" transform="rotate(38.0 1265.9 930.2)"/>
    <path d="M 1604.9918567440693,5.948971972684689 C 1659.9585910990406,51.75458393516081 1678.2808358840311,115.88244068262738 1604.9918567440693,189.17141982258917 C 1531.7028776041075,115.88244068262738 1550.025122389098,51.75458393516081 1604.9918567440693,5.948971972684689 Z" fill="url(#leaf0)" opacity="0.22" transform="rotate(102.0 1605.0 97.6)"/>
    <path d="M 1588.6787406021176,212.0285222304659 C 1630.2918428963812,246.70610747568563 1644.1628769944691,295.2547268189932 1588.6787406021176,350.7388632113448 C 1533.194604209766,295.2547268189932 1547.065638307854,246.70610747568563 1588.6787406021176,212.0285222304659 Z" fill="url(#leaf1)" opacity="0.39" transform="rotate(308.7 1588.7 281.4)"/>
    <path d="M 1400.8989050977907,711.7596789253142 C 1451.922353225788,754.2792190319785 1468.9301692684535,813.8065751813085 1400.8989050977907,881.8378393519714 C 1332.867640927128,813.8065751813085 1349.8754569697935,754.2792190319785 1400.8989050977907,711.7596789253142 Z" fill="url(#leaf2)" opacity="0.21" transform="rotate(85.3 1400.9 796.8)"/>
    <path d="M 1459.9556121702512,88.49578516845455 C 1494.0468848419478,116.90517906153497 1505.41064239918,156.67833051184755 1459.9556121702512,202.13336074077623 C 1414.5005819413225,156.67833051184755 1425.8643394985547,116.90517906153497 1459.9556121702512,88.49578516845455 Z" fill="url(#leaf3)" opacity="0.30" transform="rotate(272.2 1460.0 145.3)"/>
    <path d="M 443.0234826067596,358.39723941740044 C 477.73616053311036,387.3244710226927 489.3070531752273,427.8225952701019 443.0234826067596,474.1061658385695 C 396.73991203829195,427.8225952701019 408.31080468040886,387.3244710226927 443.0234826067596,358.39723941740044 Z" fill="url(#leaf4)" opacity="0.34" transform="rotate(99.4 443.0 416.3)"/>
    <path d="M 183.5079828390382,323.2735523284367 C 241.43101924828878,371.54274933614556 260.73869805137235,439.11962514693795 183.5079828390382,516.3503403592721 C 106.27726762670406,439.11962514693795 125.5849464297876,371.54274933614556 183.5079828390382,323.2735523284367 Z" fill="url(#leaf5)" opacity="0.29" transform="rotate(222.9 183.5 419.8)"/>
    <path d="M 1063.8534130291373,269.40866045698584 C 1106.6951804474577,305.1101333055861 1120.9757695868977,355.09219529362645 1063.8534130291373,412.21455185138683 C 1006.7310564713769,355.09219529362645 1021.011645610817,305.1101333055861 1063.8534130291373,269.40866045698584 Z" fill="url(#leaf6)" opacity="0.30" transform="rotate(340.4 1063.9 340.8)"/>
    <path d="M 1654.5691565104707,117.80831817990449 C 1698.2711576267318,154.22665244345535 1712.8384913321522,205.21232041242658 1654.5691565104707,263.48165523410796 C 1596.2998216887893,205.21232041242658 1610.8671553942097,154.22665244345535 1654.5691565104707,117.80831817990449 Z" fill="url(#leaf7)" opacity="0.28" transform="rotate(280.6 1654.6 190.6)"/>
    <path d="M 691.6029198433872,519.4150121739581 C 743.6299874782981,562.7709018697171 760.9723433566016,623.4691474437797 691.6029198433872,692.8385709569941 C 622.2334963301728,623.4691474437797 639.5758522084764,562.7709018697171 691.6029198433872,519.4150121739581 Z" fill="url(#leaf8)" opacity="0.21" transform="rotate(197.1 691.6 606.1)"/>
    <path d="M 647.4068748222084,604.8888912888262 C 680.6310055555135,632.5756668999139 691.7057157999485,671.3371527554366 647.4068748222084,715.6359937331767 C 603.1080338444682,671.3371527554366 614.1827440889032,632.5756668999139 647.4068748222084,604.8888912888262 Z" fill="url(#leaf9)" opacity="0.26" transform="rotate(114.2 647.4 660.3)"/>
    <path d="M 368.16563689787296,544.3140856251183 C 408.25068229550004,577.718290123141 421.61236409470905,624.4841764203725 368.16563689787296,677.9309036172086 C 314.71890970103686,624.4841764203725 328.0805915002459,577.718290123141 368.16563689787296,544.3140856251183 Z" fill="url(#leaf10)" opacity="0.34" transform="rotate(27.0 368.2 611.1)"/>
    <path d="M 1194.6162411805558,895.2279017000425 C 1238.1674855790457,931.5206053654507 1252.684567045209,982.3303904970223 1194.6162411805558,1040.3987163616757 C 1136.5479153159026,982.3303904970223 1151.064996782066,931.5206053654507 1194.6162411805558,895.2279017000425 Z" fill="url(#leaf11)" opacity="0.28" transform="rotate(178.3 1194.6 967.8)"/>
    <path d="M 869.2722469476674,96.58512739620753 C 929.0164729610528,146.371982407362 948.9312149655146,216.07357942297827 869.2722469476674,295.73254744082544 C 789.6132789298202,216.07357942297827 809.528020934282,146.371982407362 869.2722469476674,96.58512739620753 Z" fill="url(#leaf12)" opacity="0.35" transform="rotate(266.9 869.3 196.2)"/>
    <path d="M 1066.4146137441685,415.2193309245353 C 1111.988353068991,453.19744702855405 1127.1795995105983,506.3668095741802 1066.4146137441685,567.1317953406101 C 1005.6496279777385,506.3668095741802 1020.840874419346,453.19744702855405 1066.4146137441685,415.2193309245353 Z" fill="url(#leaf13)" opacity="0.36" transform="rotate(289.1 1066.4 491.2)"/>
    <path d="M 1379.167188850458,227.57577096823184 C 1437.1687640539858,275.9104169711717 1456.5026224551616,343.5789213752874 1379.167188850458,420.9143549799911 C 1301.8317552457543,343.5789213752874 1321.16561364693,275.9104169711717 1379.167188850458,227.57577096823184 Z" fill="url(#leaf14)" opacity="0.24" transform="rotate(122.6 1379.2 324.2)"/>
    <path d="M 616.4379060508381,319.1503608085403 C 654.0963863588848,350.53242773191255 666.6492131282337,394.46732142463367 616.4379060508381,444.67862850202926 C 566.2265989734426,394.46732142463367 578.7794257427914,350.53242773191255 616.4379060508381,319.1503608085403 Z" fill="url(#leaf15)" opacity="0.24" transform="rotate(256.5 616.4 381.9)"/>
    <path d="M 564.2430705260825,48.655103750399675 C 614.1427586342942,90.23817717390938 630.7759880036981,148.45447996682293 564.2430705260825,214.98739744443844 C 497.710153048467,148.45447996682293 514.3433824178709,90.23817717390938 564.2430705260825,48.655103750399675 Z" fill="url(#leaf16)" opacity="0.26" transform="rotate(89.2 564.2 131.8)"/>
    <path d="M 584.9538938510889,392.888682170229 C 611.0344604911678,414.6224877036281 619.7279827045274,445.0498154503869 584.9538938510889,479.82390430382554 C 550.1798049976503,445.0498154503869 558.87332721101,414.6224877036281 584.9538938510889,392.888682170229 Z" fill="url(#leaf17)" opacity="0.32" transform="rotate(54.0 585.0 436.4)"/>
    <path d="M 1531.9040049791895,394.3770130459068 C 1571.2560767613968,427.1704061977462 1584.3734340221326,473.0811566103215 1531.9040049791895,525.5505856532646 C 1479.4345759362463,473.0811566103215 1492.5519331969822,427.1704061977462 1531.9040049791895,394.3770130459068 Z" fill="url(#leaf18)" opacity="0.36" transform="rotate(324.3 1531.9 460.0)"/>
    <path d="M 985.6411133960255,578.1255074077758 C 1012.4597513750351,600.4743723902837 1021.3992973680383,631.762783365795 985.6411133960255,667.5209673378079 C 949.8829294240127,631.762783365795 958.8224754170159,600.4743723902837 985.6411133960255,578.1255074077758 Z" fill="url(#leaf19)" opacity="0.21" transform="rotate(239.6 985.6 622.8)"/>
    <path d="M 362.7305497749417,80.00196767884543 C 390.39348397074303,103.05441284201318 399.61446203601014,135.32783607044803 362.7305497749417,172.21174833151642 C 325.8466375138733,135.32783607044803 335.0676155791404,103.05441284201318 362.7305497749417,80.00196767884543 Z" fill="url(#leaf0)" opacity="0.24" transform="rotate(337.7 362.7 126.1)"/>
    <path d="M 333.8788295112808,40.015962135706445 C 358.84195883646873,60.81856990669638 367.1630019448647,89.94222078608229 333.8788295112808,123.22639321966619 C 300.5946570776969,89.94222078608229 308.91570018609286,60.81856990669638 333.8788295112808,40.015962135706445 Z" fill="url(#leaf1)" opacity="0.23" transform="rotate(139.5 333.9 81.6)"/>
    <path d="M 1659.7717000824327,869.5602246335436 C 1695.8119739218198,899.5937861663662 1707.8253985349488,941.6407723123177 1659.7717000824327,989.6944707648338 C 1611.7180016299167,941.6407723123177 1623.7314262430457,899.5937861663662 1659.7717000824327,869.5602246335436 Z" fill="url(#leaf2)" opacity="0.22" transform="rotate(265.9 1659.8 929.6)"/>
    <path d="M 633.036744218483,-13.078108222543236 C 682.2517519264596,27.934398200770588 698.6567544957851,85.35190719340994 633.036744218483,150.97191747071207 C 567.416733941181,85.35190719340994 583.8217365105064,27.934398200770588 633.036744218483,-13.078108222543236 Z" fill="url(#leaf3)" opacity="0.26" transform="rotate(289.3 633.0 68.9)"/>
    <path d="M 1559.9026043342806,722.7602507197792 C 1617.3227096668143,770.6103384968906 1636.4627447776588,837.6004613848465 1559.9026043342806,914.1606018282248 C 1483.3424638909023,837.6004613848465 1502.4824990017469,770.6103384968906 1559.9026043342806,722.7602507197792 Z" fill="url(#leaf4)" opacity="0.21" transform="rotate(155.7 1559.9 818.5)"/>
    <path d="M 1231.1499492190899,661.0237098535364 C 1278.7239979483693,700.6687504612693 1294.5820141914626,756.1718073120953 1231.1499492190899,819.6038722844679 C 1167.7178842467172,756.1718073120953 1183.5759004898105,700.6687504612693 1231.1499492190899,661.0237098535364 Z" fill="url(#leaf5)" opacity="0.25" transform="rotate(304.8 1231.1 740.3)"/>
    <path d="M 1740.3434795113194,121.1133480351912 C 1778.7846164196226,153.1476287921106 1791.5983287223903,197.99562185179772 1740.3434795113194,249.25047106286874 C 1689.0886303002485,197.99562185179772 1701.9023426030162,153.1476287921106 1740.3434795113194,121.1133480351912 Z" fill="url(#leaf6)" opacity="0.23" transform="rotate(223.5 1740.3 185.2)"/>
    <path d="M 1242.1596852951477,97.09409989774363 C 1288.048090406659,135.3344374906697 1303.3442254438294,188.87091012076624 1242.1596852951477,250.05545026944796 C 1180.975145146466,188.87091012076624 1196.2712801836365,135.3344374906697 1242.1596852951477,97.09409989774363 Z" fill="url(#leaf7)" opacity="0.26" transform="rotate(268.1 1242.2 173.6)"/>
    <path d="M 103.83085197199098,611.475344663382 C 139.79310387481462,641.443887915735 151.78052117575584,683.3998484690292 103.83085197199098,731.349517672794 C 55.88118276822613,683.3998484690292 67.86860006916734,641.443887915735 103.83085197199098,611.475344663382 Z" fill="url(#leaf8)" opacity="0.36" transform="rotate(228.8 103.8 671.4)"/>
    <path d="M 1715.5765630823153,395.59786787276914 C 1764.9801273292326,436.76750474520037 1781.447982078205,494.404996366604 1715.5765630823153,560.2764153624939 C 1649.7051440864254,494.404996366604 1666.172998835398,436.76750474520037 1715.5765630823153,395.59786787276914 Z" fill="url(#leaf9)" opacity="0.31" transform="rotate(109.0 1715.6 477.9)"/>
    <path d="M 1373.0982837823474,630.8013214095233 C 1411.7923254597067,663.0463561406561 1424.6903393521598,708.189404764242 1373.0982837823474,759.7814603340544 C 1321.506228212535,708.189404764242 1334.404242104988,663.0463561406561 1373.0982837823474,630.8013214095233 Z" fill="url(#leaf10)" opacity="0.38" transform="rotate(54.7 1373.1 695.3)"/>
    <path d="M 862.2347381633447,211.37511992788873 C 914.7436987189865,255.13258705759023 932.246685570867,316.3930410391724 862.2347381633447,386.4049884466948 C 792.2227907558223,316.3930410391724 809.7257776077029,255.13258705759023 862.2347381633447,211.37511992788873 Z" fill="url(#leaf11)" opacity="0.39" transform="rotate(240.9 862.2 298.9)"/>
    <path d="M 1311.0299396944317,937.2557917193492 C 1342.5447754860868,963.5181548790617 1353.0497207499718,1000.2854633026593 1311.0299396944317,1042.3052443581994 C 1269.0101586388917,1000.2854633026593 1279.5151039027767,963.5181548790617 1311.0299396944317,937.2557917193492 Z" fill="url(#leaf12)" opacity="0.37" transform="rotate(15.5 1311.0 989.8)"/>
    <path d="M 350.328372753902,419.7312464059525 C 401.2562067716858,462.17110808743905 418.2321514442804,521.5869144415201 350.328372753902,589.4906931318985 C 282.42459406352356,521.5869144415201 299.40053873611816,462.17110808743905 350.328372753902,419.7312464059525 Z" fill="url(#leaf13)" opacity="0.27" transform="rotate(270.2 350.3 504.6)"/>
    <path d="M 748.5724074727851,424.5036078229308 C 799.1249946098591,466.6307637704924 815.9758569888837,525.6087820970788 748.5724074727851,593.0122316131774 C 681.1689579566865,525.6087820970788 698.0198203357112,466.6307637704924 748.5724074727851,424.5036078229308 Z" fill="url(#leaf14)" opacity="0.31" transform="rotate(115.8 748.6 508.8)"/>
    <path d="M 929.9797496341396,130.58941326055913 C 984.3279019113563,175.87954015823976 1002.4439526704286,239.28571781499267 929.9797496341396,311.7499208512817 C 857.5155465978505,239.28571781499267 875.6315973569228,175.87954015823976 929.9797496341396,130.58941326055913 Z" fill="url(#leaf15)" opacity="0.33" transform="rotate(209.3 930.0 221.2)"/>
    <path d="M 1624.0380820537273,523.9209238898759 C 1679.1546671909834,569.8514115042561 1697.5268622367355,634.1540941643883 1624.0380820537273,707.6428743473966 C 1550.549301870719,634.1540941643883 1568.9214969164711,569.8514115042561 1624.0380820537273,523.9209238898759 Z" fill="url(#leaf16)" opacity="0.40" transform="rotate(16.7 1624.0 615.8)"/>
    <path d="M 1324.2587584667547,452.58056486993866 C 1371.6868233132252,492.1039522419975 1387.496178262049,547.4366945628799 1324.2587584667547,610.6741143581742 C 1261.0213386714604,547.4366945628799 1276.8306936202841,492.1039522419975 1324.2587584667547,452.58056486993866 Z" fill="url(#leaf17)" opacity="0.30" transform="rotate(241.9 1324.3 531.6)"/>
    <path d="M 500.43851746852965,836.6869643683941 C 527.2439114269872,859.0247926671087 536.1790427464731,890.2977522853092 500.43851746852965,926.0382775632526 C 464.69799219058626,890.2977522853092 473.6331235100721,859.0247926671087 500.43851746852965,836.6869643683941 Z" fill="url(#leaf18)" opacity="0.33" transform="rotate(199.0 500.4 881.4)"/>
    <path d="M 1457.094372976357,229.95145890222236 C 1506.1009098524398,270.79023963229145 1522.4364221444675,327.9645326543881 1457.094372976357,393.30658182249863 C 1391.7523238082463,327.9645326543881 1408.087836100274,270.79023963229145 1457.094372976357,229.95145890222236 Z" fill="url(#leaf19)" opacity="0.24" transform="rotate(25.2 1457.1 311.6)"/>
    <path d="M 81.56682480765053,558.4113479572736 C 125.6944351751061,595.1843565968198 140.40363863092463,646.6665686921847 81.56682480765053,705.5033825154587 C 22.73001098437644,646.6665686921847 37.43921444019497,595.1843565968198 81.56682480765053,558.4113479572736 Z" fill="url(#leaf0)" opacity="0.22" transform="rotate(288.1 81.6 632.0)"/>
    <path d="M 1351.2952431473186,76.48777699423442 C 1380.7022230100156,100.99359354648197 1390.5045496309147,135.30173671962854 1351.2952431473186,174.51104320322463 C 1312.0859366637226,135.30173671962854 1321.8882632846216,100.99359354648197 1351.2952431473186,76.48777699423442 Z" fill="url(#leaf1)" opacity="0.24" transform="rotate(157.9 1351.3 125.5)"/>
    <path d="M 1413.2133723519155,555.3702919266435 C 1470.1836729142963,602.8455423952942 1489.1737731017565,669.3108930514051 1413.2133723519155,745.2712938012461 C 1337.2529716020745,669.3108930514051 1356.2430717895347,602.8455423952942 1413.2133723519155,555.3702919266435 Z" fill="url(#leaf2)" opacity="0.33" transform="rotate(235.2 1413.2 650.3)"/>
    <path d="M 1237.3940550186414,339.3909448534676 C 1291.6074384711628,384.56876439723544 1309.67856628867,447.8177117585104 1237.3940550186414,520.1022230285389 C 1165.1095437486129,447.8177117585104 1183.18067156612,384.56876439723544 1237.3940550186414,339.3909448534676 Z" fill="url(#leaf3)" opacity="0.39" transform="rotate(40.2 1237.4 429.7)"/>
    <path d="M 1830.6366935457836,697.0461274015693 C 1863.3703772392555,724.3241971461291 1874.2816051370794,762.5134947885128 1830.6366935457836,806.1584063798086 C 1786.9917819544878,762.5134947885128 1797.9030098523117,724.3241971461291 1830.6366935457836,697.0461274015693 Z" fill="url(#leaf4)" opacity="0.24" transform="rotate(322.5 1830.6 751.6)"/>
    <path d="M 965.4611987980281,811.163463142138 C 1025.2147097013528,860.9580555615752 1045.1325466691276,930.6704849487872 965.4611987980281,1010.3418328198868 C 885.7898509269286,930.6704849487872 905.7076878947034,860.9580555615752 965.4611987980281,811.163463142138 Z" fill="url(#leaf5)" opacity="0.26" transform="rotate(1.0 965.5 910.8)"/>
    <path d="M 1588.6394230804526,136.6408585247553 C 1624.4502646249427,166.483226478497 1636.3872118064394,208.2625416137354 1588.6394230804526,256.01033033972215 C 1540.8916343544659,208.2625416137354 1552.8285815359625,166.483226478497 1588.6394230804526,136.6408585247553 Z" fill="url(#leaf6)" opacity="0.23" transform="rotate(193.9 1588.6 196.3)"/>
    <path d="M 1674.4533652036914,740.4608799529386 C 1699.102452433551,761.0017859778216 1707.318814843504,789.7590544126576 1674.4533652036914,822.6245040524703 C 1641.5879155638788,789.7590544126576 1649.8042779738319,761.0017859778216 1674.4533652036914,740.4608799529386 Z" fill="url(#leaf7)" opacity="0.25" transform="rotate(269.2 1674.5 781.5)"/>
    <path d="M 1670.4302753844324,530.0626866954904 C 1727.2350813348544,577.4000249875086 1746.1700166516616,643.6722985963343 1670.4302753844324,719.4120398635635 C 1594.6905341172032,643.6722985963343 1613.6254694340105,577.4000249875086 1670.4302753844324,530.0626866954904 Z" fill="url(#leaf8)" opacity="0.24" transform="rotate(85.5 1670.4 624.7)"/>
    <path d="M 1429.850674245381,57.48619875485457 C 1487.419741795528,105.46042171331035 1506.6094309789103,172.62433385514845 1429.850674245381,249.3830905886777 C 1353.0919175118518,172.62433385514845 1372.2816066952341,105.46042171331035 1429.850674245381,57.48619875485457 Z" fill="url(#leaf9)" opacity="0.21" transform="rotate(195.9 1429.9 153.4)"/>
    <path d="M 1245.915764575283,98.78623804946288 C 1287.2717059576814,133.24952253479492 1301.0570197518143,181.49812081425978 1245.915764575283,236.63937599079105 C 1190.7745093987517,181.49812081425978 1204.5598231928846,133.24952253479492 1245.915764575283,98.78623804946288 Z" fill="url(#leaf10)" opacity="0.21" transform="rotate(330.1 1245.9 167.7)"/>
    <path d="M 600.262368711682,946.2522390985143 C 649.4190566472113,987.2161457114554 665.8046192923878,1044.5656149695728 600.262368711682,1110.1078655502786 C 534.7201181309763,1044.5656149695728 551.1056807761528,987.2161457114554 600.262368711682,946.2522390985143 Z" fill="url(#leaf11)" opacity="0.27" transform="rotate(359.9 600.3 1028.2)"/>
    <path d="M 1070.7075051785685,601.8046341165306 C 1126.5397310272288,648.3314889904141 1145.150472976782,713.4690858138512 1070.7075051785685,787.9120536120648 C 996.2645373803548,713.4690858138512 1014.8752793299082,648.3314889904141 1070.7075051785685,601.8046341165306 Z" fill="url(#leaf12)" opacity="0.30" transform="rotate(148.4 1070.7 694.9)"/>
    <path d="M 256.3676764085818,380.2028629559173 C 307.38321327943265,422.71581034829296 324.3883922363829,482.2339366976189 256.3676764085818,550.2546525254199 C 188.34696058078072,482.2339366976189 205.352139537731,422.71581034829296 256.3676764085818,380.2028629559173 Z" fill="url(#leaf13)" opacity="0.39" transform="rotate(258.7 256.4 465.2)"/>
    <path d="M 1017.862638460062,-4.5131967050836295 C 1063.353886630449,33.39617677023897 1078.5176360205783,86.4692996356906 1017.862638460062,147.12429719620675 C 957.2076408995459,86.4692996356906 972.3713902896749,33.39617677023897 1017.862638460062,-4.5131967050836295 Z" fill="url(#leaf14)" opacity="0.33" transform="rotate(114.6 1017.9 71.3)"/>
    <path d="M 777.1208701921285,832.8078072102564 C 835.872776572255,881.7677291936953 855.4567453656306,950.3116199705097 777.1208701921285,1028.6474951440118 C 698.7849950186263,950.3116199705097 718.3689638120019,881.7677291936953 777.1208701921285,832.8078072102564 Z" fill="url(#leaf15)" opacity="0.20" transform="rotate(337.9 777.1 930.7)"/>
    <path d="M 1798.904938442956,567.0594553719999 C 1847.4792619302948,607.5380582781155 1863.670703092741,664.2081023466773 1798.904938442956,728.9738669964621 C 1734.1391737931713,664.2081023466773 1750.3306149556174,607.5380582781155 1798.904938442956,567.0594553719999 Z" fill="url(#leaf16)" opacity="0.25" transform="rotate(217.7 1798.9 648.0)"/>
    <path d="M 735.6877428795591,932.8937516811834 C 783.4179558296488,972.6689291395916 799.328026813012,1028.3541775813628 735.6877428795591,1091.9944615148158 C 672.0474589461062,1028.3541775813628 687.9575299294694,972.6689291395916 735.6877428795591,932.8937516811834 Z" fill="url(#leaf17)" opacity="0.22" transform="rotate(172.5 735.7 1012.4)"/>
    <path d="M 326.90160128359673,506.9610765070179 C 376.3716008371673,548.1860761349933 392.8616006883575,605.901075614159 326.90160128359673,671.8610750189198 C 260.94160187883597,605.901075614159 277.43160173002616,548.1860761349933 326.90160128359673,506.9610765070179 Z" fill="url(#leaf18)" opacity="0.20" transform="rotate(171.9 326.9 589.4)"/>
    <path d="M 1178.2108652038303,571.5897769054154 C 1228.8799637236284,613.814025671914 1245.769663230228,672.9279739450119 1178.2108652038303,740.4867719714096 C 1110.6520671774326,672.9279739450119 1127.5417666840322,613.814025671914 1178.2108652038303,571.5897769054154 Z" fill="url(#leaf19)" opacity="0.34" transform="rotate(21.8 1178.2 656.0)"/>
    <path d="M 1779.694259056943,434.45613533450336 C 1818.3575760937747,466.6755661985297 1831.2453484393852,511.78276940816653 1779.694259056943,563.3338587906087 C 1728.143169674501,511.78276940816653 1741.0309420201115,466.6755661985297 1779.694259056943,434.45613533450336 Z" fill="url(#leaf0)" opacity="0.35" transform="rotate(69.1 1779.7 498.9)"/>
    <path d="M 1492.6338281548828,361.7618463331388 C 1543.2695796376595,403.9583059021192 1560.1481634652516,463.03334929869186 1492.6338281548828,530.5476846090605 C 1425.119492844514,463.03334929869186 1441.9980766721062,403.9583059021192 1492.6338281548828,361.7618463331388 Z" fill="url(#leaf1)" opacity="0.29" transform="rotate(86.8 1492.6 446.2)"/>
    <path d="M 272.1206033741991,627.8235152612309 C 299.7857640750571,650.8778158452793 309.00748430867645,683.1538366629469 272.1206033741991,720.0407175974243 C 235.2337224397218,683.1538366629469 244.4554426733411,650.8778158452793 272.1206033741991,627.8235152612309 Z" fill="url(#leaf2)" opacity="0.27" transform="rotate(355.5 272.1 673.9)"/>
    <path d="M 1464.6601912801402,584.1902063656792 C 1493.4225073463722,608.1588030875391 1503.0099460351162,641.7148384981431 1464.6601912801402,680.064593253119 C 1426.3104365251643,641.7148384981431 1435.8978752139083,608.1588030875391 1464.6601912801402,584.1902063656792 Z" fill="url(#leaf3)" opacity="0.27" transform="rotate(288.5 1464.7 632.1)"/>
    <path d="M 277.7838601489432,598.5201813941964 C 309.11723444442174,624.6313266404285 319.56169254291456,661.1869299851535 277.7838601489432,702.9647623791249 C 236.0060277549718,661.1869299851535 246.45048585346464,624.6313266404285 277.7838601489432,598.5201813941964 Z" fill="url(#leaf4)" opacity="0.25" transform="rotate(41.7 277.8 650.7)"/>
    <path d="M 601.0846266616685,873.5885927350911 C 631.2480600082863,898.7247871906059 641.3025377904922,933.9154594283267 601.0846266616685,974.1333705571504 C 560.8667155328448,933.9154594283267 570.9211933150507,898.7247871906059 601.0846266616685,873.5885927350911 Z" fill="url(#leaf5)" opacity="0.23" transform="rotate(325.3 601.1 923.9)"/>
    <path d="M 1702.6263724711077,286.04190875595725 C 1760.4312511823666,334.2126410153398 1779.6995440861197,401.65166617847524 1702.6263724711077,478.72483779348727 C 1625.5532008560958,401.65166617847524 1644.8214937598489,334.2126410153398 1702.6263724711077,286.04190875595725 Z" fill="url(#leaf6)" opacity="0.31" transform="rotate(320.1 1702.6 382.4)"/>
  </g>

  <!-- Central star shape -->
  <polygon points="960.0,212.4 1056.3,407.5 1271.6,438.8 1115.8,590.6 1152.6,805.1 960.0,703.8 767.4,805.1 804.2,590.6 648.4,438.8 863.7,407.5" 
           fill="#FF69B4" 
           transform="rotate(194.2 960.0 540.0)"/>
</svg>