<?xml version="1.0" encoding="UTF-8"?>
<svg xmlns="http://www.w3.org/2000/svg" viewBox="0 0 1920 1080" width="1920" height="1080">
  <defs>
    <linearGradient id="bgGrad" x1="0%" y1="0%" x2="100%" y2="100%">
      <stop offset="0%" stop-color="#45B7D1"/>
      <stop offset="100%" stop-color="#32CD32"/>
    </linearGradient>
    <clipPath id="complexClip"><polygon points="1367.5,540.0 1483.6,602.6 1344.7,636.3 1308.5,682.4 1255.5,724.6 1168.5,743.2 1081.8,750.8 1012.9,823.2 911.6,799.0 804.9,808.5 750.1,744.5 640.3,739.7 544.2,709.9 519.2,650.4 578.0,585.7 464.7,540.0 583.2,494.9 648.0,461.9 658.3,416.7 664.5,355.4 728.6,314.6 823.2,303.2 903.9,239.7 1011.4,264.7 1070.0,349.6 1162.4,342.8 1202.4,388.5 1344.4,382.9 1388.0,432.8 1458.8,480.4"/></clipPath>
    <radialGradient id="leaf0" cx="50%" cy="50%" r="70%">
      <stop offset="0%" stop-color="#FF69B4"/>
      <stop offset="50%" stop-color="#DC143C"/>
      <stop offset="100%" stop-color="#96E6A1"/>
    </radialGradient>
    <radialGradient id="leaf1" cx="50%" cy="50%" r="70%">
      <stop offset="0%" stop-color="#FF1493"/>
      <stop offset="50%" stop-color="#FFD700"/>
      <stop offset="100%" stop-color="#FF4500"/>
    </radialGradient>
    <radialGradient id="leaf2" cx="50%" cy="50%" r="70%">
      <stop offset="0%" stop-color="#DC143C"/>
      <stop offset="50%" stop-color="#00CED1"/>
      <stop offset="100%" stop-color="#96E6A1"/>
    </radialGradient>
    <radialGradient id="leaf3" cx="50%" cy="50%" r="70%">
      <stop offset="0%" stop-color="#FF6B6B"/>
      <stop offset="50%" stop-color="#FFD700"/>
      <stop offset="100%" stop-color="#4ECDC4"/>
    </radialGradient>
    <radialGradient id="leaf4" cx="50%" cy="50%" r="70%">
      <stop offset="0%" stop-color="#DC143C"/>
      <stop offset="50%" stop-color="#96E6A1"/>
      <stop offset="100%" stop-color="#00FA9A"/>
    </radialGradient>
    <radialGradient id="leaf5" cx="50%" cy="50%" r="70%">
      <stop offset="0%" stop-color="#32CD32"/>
      <stop offset="50%" stop-color="#4ECDC4"/>
      <stop offset="100%" stop-color="#FF6B6B"/>
    </radialGradient>
    <radialGradient id="leaf6" cx="50%" cy="50%" r="70%">
      <stop offset="0%" stop-color="#FFE66D"/>
      <stop offset="50%" stop-color="#7B68EE"/>
      <stop offset="100%" stop-color="#FFD700"/>
    </radialGradient>
    <radialGradient id="leaf7" cx="50%" cy="50%" r="70%">
      <stop offset="0%" stop-color="#FFE66D"/>
      <stop offset="50%" stop-color="#32CD32"/>
      <stop offset="100%" stop-color="#00CED1"/>
    </radialGradient>
    <radialGradient id="leaf8" cx="50%" cy="50%" r="70%">
      <stop offset="0%" stop-color="#9370DB"/>
      <stop offset="50%" stop-color="#FF69B4"/>
      <stop offset="100%" stop-color="#FF6B6B"/>
    </radialGradient>
    <radialGradient id="leaf9" cx="50%" cy="50%" r="70%">
      <stop offset="0%" stop-color="#7B68EE"/>
      <stop offset="50%" stop-color="#32CD32"/>
      <stop offset="100%" stop-color="#FFD700"/>
    </radialGradient>
    <radialGradient id="leaf10" cx="50%" cy="50%" r="70%">
      <stop offset="0%" stop-color="#FF1493"/>
      <stop offset="50%" stop-color="#FFE66D"/>
      <stop offset="100%" stop-color="#DC143C"/>
    </radialGradient>
    <radialGradient id="leaf11" cx="50%" cy="50%" r="70%">
      <stop offset="0%" stop-color="#32CD32"/>
      <stop offset="50%" stop-color="#4ECDC4"/>
      <stop offset="100%" stop-color="#FFD700"/>
    </radialGradient>
    <radialGradient id="leaf12" cx="50%" cy="50%" r="70%">
      <stop offset="0%" stop-color="#FF4500"/>
      <stop offset="50%" stop-color="#00FA9A"/>
      <stop offset="100%" stop-color="#32CD32"/>
    </radialGradient>
    <radialGradient id="leaf13" cx="50%" cy="50%" r="70%">
      <stop offset="0%" stop-color="#00FA9A"/>
      <stop offset="50%" stop-color="#DC143C"/>
      <stop offset="100%" stop-color="#9370DB"/>
    </radialGradient>
    <radialGradient id="leaf14" cx="50%" cy="50%" r="70%">
      <stop offset="0%" stop-color="#DC143C"/>
      <stop offset="50%" stop-color="#45B7D1"/>
      <stop offset="100%" stop-color="#FF4500"/>
    </radialGradient>
    <radialGradient id="leaf15" cx="50%" cy="50%" r="70%">
      <stop offset="0%" stop-color="#FF4500"/>
      <stop offset="50%" stop-color="#FF6B6B"/>
      <stop offset="100%" stop-color="#00CED1"/>
    </radialGradient>
    <radialGradient id="leaf16" cx="50%" cy="50%" r="70%">
      <stop offset="0%" stop-color="#96E6A1"/>
      <stop offset="50%" stop-color="#00FA9A"/>
      <stop offset="100%" stop-color="#45B7D1"/>
    </radialGradient>
    <radialGradient id="leaf17" cx="50%" cy="50%" r="70%">
      <stop offset="0%" stop-color="#4ECDC4"/>
      <stop offset="50%" stop-color="#DC143C"/>
      <stop offset="100%" stop-color="#96E6A1"/>
    </radialGradient>
    <radialGradient id="leaf18" cx="50%" cy="50%" r="70%">
      <stop offset="0%" stop-color="#32CD32"/>
      <stop offset="50%" stop-color="#96E6A1"/>
      <stop offset="100%" stop-color="#FF69B4"/>
    </radialGradient>
    <radialGradient id="leaf19" cx="50%" cy="50%" r="70%">
      <stop offset="0%" stop-color="#FFD700"/>
      <stop offset="50%" stop-color="#FF69B4"/>
      <stop offset="100%" stop-color="#45B7D1"/>
    </radialGradient>
  </defs>

  <!-- Background -->
  <rect width="1920" height="1080" fill="url(#bgGrad)"/>
  
  <!-- Leaves with clip-path -->
  <g clip-path="url(#complexClip)">
    <path d="M 430.96001130035035,337.84671973694077 C 456.7410140670325,359.3308887091759 465.33468165592654,389.40872527030507 430.96001130035035,423.78339562588127 C 396.58534094477415,389.40872527030507 405.1790085336682,359.3308887091759 430.96001130035035,337.84671973694077 Z" fill="url(#leaf0)" opacity="0.31" transform="rotate(78.3 431.0 380.8)"/>
    <path d="M 563.2149130059911,751.5923219940379 C 613.4920229322079,793.4899135992185 630.2510595742801,852.1465418464715 563.2149130059911,919.1826884147605 C 496.17876643770205,852.1465418464715 512.9378030797743,793.4899135992185 563.2149130059911,751.5923219940379 Z" fill="url(#leaf1)" opacity="0.39" transform="rotate(53.9 563.2 835.4)"/>
    <path d="M 673.3854376822736,474.0891691382601 C 699.4966499571595,495.8485127006651 708.2003873821216,526.3115936880321 673.3854376822736,561.12654338788 C 638.5704879824257,526.3115936880321 647.2742254073877,495.8485127006651 673.3854376822736,474.0891691382601 Z" fill="url(#leaf2)" opacity="0.32" transform="rotate(150.3 673.4 517.6)"/>
    <path d="M 831.3916798212541,289.14526515872103 C 857.509935169779,310.91047794915846 866.2160202859541,341.3817758557709 831.3916798212541,376.20611632047087 C 796.5673393565542,341.3817758557709 805.2734244727292,310.91047794915846 831.3916798212541,289.14526515872103 Z" fill="url(#leaf3)" opacity="0.21" transform="rotate(30.5 831.4 332.7)"/>
    <path d="M 171.67449649780104,133.73287338568105 C 212.97986728472648,168.1540157081189 226.74832421370164,216.34361495953192 171.67449649780104,271.4174426754325 C 116.60066878190045,216.34361495953192 130.3691257108756,168.1540157081189 171.67449649780104,133.73287338568105 Z" fill="url(#leaf4)" opacity="0.37" transform="rotate(225.0 171.7 202.6)"/>
    <path d="M 128.83133443731697,607.0377608657088 C 158.7184501995538,631.9436906675728 168.68082212029944,666.8119923901825 128.83133443731697,706.661480073165 C 88.9818467543345,666.8119923901825 98.94421867508011,631.9436906675728 128.83133443731697,607.0377608657088 Z" fill="url(#leaf5)" opacity="0.31" transform="rotate(320.0 128.8 656.8)"/>
    <path d="M 1439.1481952507675,450.7419410019643 C 1487.1595740614832,490.7514233442274 1503.1633669983885,546.7646986233958 1439.1481952507675,610.7798703710168 C 1375.1330235031464,546.7646986233958 1391.1368164400517,490.7514233442274 1439.1481952507675,450.7419410019643 Z" fill="url(#leaf6)" opacity="0.34" transform="rotate(271.9 1439.1 530.8)"/>
    <path d="M 1569.3924801640796,720.8287331216179 C 1620.4489403476832,763.3757832746209 1637.4677604088845,822.9416534888251 1569.3924801640796,891.0169337336299 C 1501.3171999192748,822.9416534888251 1518.336019980476,763.3757832746209 1569.3924801640796,720.8287331216179 Z" fill="url(#leaf7)" opacity="0.34" transform="rotate(256.0 1569.4 805.9)"/>
    <path d="M 1563.2465022677864,529.7462608918202 C 1600.103137787531,560.4601238249409 1612.3886829607793,603.4595319313097 1563.2465022677864,652.6017126243028 C 1514.1043215747934,603.4595319313097 1526.3898667480416,560.4601238249409 1563.2465022677864,529.7462608918202 Z" fill="url(#leaf8)" opacity="0.25" transform="rotate(28.8 1563.2 591.2)"/>
    <path d="M 1118.7125063892136,214.58043409077365 C 1147.1485175818395,238.2771100846286 1156.6271879793815,271.4524564760255 1118.7125063892136,309.3671380661933 C 1080.7978247990457,271.4524564760255 1090.2764951965876,238.2771100846286 1118.7125063892136,214.58043409077365 Z" fill="url(#leaf9)" opacity="0.23" transform="rotate(224.0 1118.7 262.0)"/>
    <path d="M 1478.2588238324784,487.7182355008026 C 1521.016558065144,523.3496806946906 1535.2691361426992,573.2337039661337 1478.2588238324784,630.2440162763544 C 1421.2485115222576,573.2337039661337 1435.5010895998128,523.3496806946906 1478.2588238324784,487.7182355008026 Z" fill="url(#leaf10)" opacity="0.25" transform="rotate(149.5 1478.3 559.0)"/>
    <path d="M 1504.2704514331558,621.8766685158743 C 1547.4895011639037,657.8925432914975 1561.8958510741531,708.3147679773701 1504.2704514331558,765.9401676183674 C 1446.6450517921585,708.3147679773701 1461.051401702408,657.8925432914975 1504.2704514331558,621.8766685158743 Z" fill="url(#leaf11)" opacity="0.24" transform="rotate(229.0 1504.3 693.9)"/>
    <path d="M 1382.3459043839557,626.902280958194 C 1426.972466981811,664.0910831230733 1441.8479878477629,716.1554061539046 1382.3459043839557,775.6574896177116 C 1322.8438209201486,716.1554061539046 1337.7193417861004,664.0910831230733 1382.3459043839557,626.902280958194 Z" fill="url(#leaf12)" opacity="0.23" transform="rotate(160.6 1382.3 701.3)"/>
    <path d="M 437.40026374273,60.089337187478236 C 488.7077721067176,102.84559415746793 505.8102748947135,162.7043539154535 437.40026374273,231.114365067437 C 368.9902525907465,162.7043539154535 386.09275537874237,102.84559415746793 437.40026374273,60.089337187478236 Z" fill="url(#leaf13)" opacity="0.22" transform="rotate(309.9 437.4 145.6)"/>
    <path d="M 1027.1075380524385,102.63512930445177 C 1084.216585394435,150.2260020894488 1103.2529345084338,216.85322398844468 1027.1075380524385,292.99862044443995 C 950.9621415964432,216.85322398844468 969.9984907104421,150.2260020894488 1027.1075380524385,102.63512930445177 Z" fill="url(#leaf14)" opacity="0.39" transform="rotate(52.3 1027.1 197.8)"/>
    <path d="M 1147.08238972212,884.8543696797515 C 1172.3851090475005,905.9399691175684 1180.8193488226273,935.4598083305121 1147.08238972212,969.1967674310192 C 1113.3454306216129,935.4598083305121 1121.7796703967397,905.9399691175684 1147.08238972212,884.8543696797515 Z" fill="url(#leaf15)" opacity="0.32" transform="rotate(257.9 1147.1 927.0)"/>
    <path d="M 1470.9680678270552,252.23028477248357 C 1506.3060770486313,281.6786257904637 1518.0854134558233,322.9063032156358 1470.9680678270552,370.0236488444039 C 1423.850722198287,322.9063032156358 1435.630058605479,281.6786257904637 1470.9680678270552,252.23028477248357 Z" fill="url(#leaf16)" opacity="0.29" transform="rotate(259.1 1471.0 311.1)"/>
    <path d="M 578.245811227673,-23.92956404218279 C 628.2695573211381,17.756891035704754 644.9441393522931,76.11792814474731 578.245811227673,142.8162562693674 C 511.54748310305297,76.11792814474731 528.2220651342079,17.756891035704754 578.245811227673,-23.92956404218279 Z" fill="url(#leaf17)" opacity="0.31" transform="rotate(15.0 578.2 59.4)"/>
    <path d="M 759.0584924393702,894.9010439951745 C 817.8611771544566,943.9032812577466 837.4620720594855,1012.5064134253474 759.0584924393702,1090.909993045463 C 680.6549128192548,1012.5064134253474 700.2558077242837,943.9032812577466 759.0584924393702,894.9010439951745 Z" fill="url(#leaf18)" opacity="0.27" transform="rotate(306.5 759.1 992.9)"/>
    <path d="M 845.0537795059853,20.91212655454062 C 886.2303413992382,55.22592813225141 899.9558620303226,103.26525034104652 845.0537795059853,158.1673328653838 C 790.151696981648,103.26525034104652 803.8772176127324,55.22592813225141 845.0537795059853,20.91212655454062 Z" fill="url(#leaf19)" opacity="0.36" transform="rotate(103.9 845.1 89.5)"/>
    <path d="M 615.8045162961683,377.6797774036683 C 643.0409409246604,400.37679792741164 652.1197491341577,432.1526266606524 615.8045162961683,468.46785949864176 C 579.489283458179,432.1526266606524 588.5680916676763,400.37679792741164 615.8045162961683,377.6797774036683 Z" fill="url(#leaf0)" opacity="0.24" transform="rotate(268.0 615.8 423.1)"/>
    <path d="M 296.00131270383287,43.760740019129926 C 343.0566833086325,82.97354885646295 358.7418068435657,137.87148122872918 296.00131270383287,200.61197536846203 C 233.26081856410002,137.87148122872918 248.94594209903323,82.97354885646295 296.00131270383287,43.760740019129926 Z" fill="url(#leaf1)" opacity="0.31" transform="rotate(244.6 296.0 122.2)"/>
    <path d="M 1679.607993002531,5.03947260639476 C 1709.3777429532774,29.84759756535021 1719.3009929368598,64.57897250788784 1679.607993002531,104.27197244221657 C 1639.9149930682022,64.57897250788784 1649.8382430517845,29.84759756535021 1679.607993002531,5.03947260639476 Z" fill="url(#leaf2)" opacity="0.37" transform="rotate(289.7 1679.6 54.7)"/>
    <path d="M 1092.2609580616247,574.6533314000343 C 1131.7655880462999,607.5738563872635 1144.9337980411915,653.6625913693846 1092.2609580616247,706.3354313489514 C 1039.588118082058,653.6625913693846 1052.7563280769496,607.5738563872635 1092.2609580616247,574.6533314000343 Z" fill="url(#leaf3)" opacity="0.30" transform="rotate(127.6 1092.3 640.5)"/>
    <path d="M 1713.8823585494163,135.9652574388116 C 1752.8035292252227,168.39956633531693 1765.7772527838247,213.80759879042438 1713.8823585494163,265.7024930248329 C 1661.9874643150079,213.80759879042438 1674.9611878736098,168.39956633531693 1713.8823585494163,135.9652574388116 Z" fill="url(#leaf4)" opacity="0.28" transform="rotate(112.5 1713.9 200.8)"/>
    <path d="M 660.1332005090163,898.2447680733114 C 719.2692382992283,947.5247995651548 738.9812508959657,1016.5168436537354 660.1332005090163,1095.3648940406847 C 581.285150122067,1016.5168436537354 600.9971627188044,947.5247995651548 660.1332005090163,898.2447680733114 Z" fill="url(#leaf5)" opacity="0.39" transform="rotate(323.6 660.1 996.8)"/>
    <path d="M 621.305334931288,64.01425637666539 C 655.7746968745358,92.73872466270524 667.2644841889518,132.95298026316104 621.305334931288,178.9121295208248 C 575.3461856736243,132.95298026316104 586.8359729880402,92.73872466270524 621.305334931288,64.01425637666539 Z" fill="url(#leaf6)" opacity="0.26" transform="rotate(0.5 621.3 121.5)"/>
    <path d="M 262.60964546460235,528.6076794607129 C 305.76370871496465,564.5693988360149 320.14839646508545,614.9158059614375 262.60964546460235,672.4545569619206 C 205.07089446411928,614.9158059614375 219.45558221424005,564.5693988360149 262.60964546460235,528.6076794607129 Z" fill="url(#leaf7)" opacity="0.37" transform="rotate(184.7 262.6 600.5)"/>
    <path d="M 908.5921809931217,517.1615810051035 C 961.1572104674484,560.965772233709 978.6788869588906,622.2916399537569 908.5921809931217,692.3783459195258 C 838.5054750273528,622.2916399537569 856.027151518795,560.965772233709 908.5921809931217,517.1615810051035 Z" fill="url(#leaf8)" opacity="0.32" transform="rotate(107.0 908.6 604.8)"/>
    <path d="M 1779.9451010409991,648.2934737389388 C 1807.8923515814636,671.5828491893258 1817.2081017616183,704.1879748198675 1779.9451010409991,741.4509755404866 C 1742.68210032038,704.1879748198675 1751.9978505005347,671.5828491893258 1779.9451010409991,648.2934737389388 Z" fill="url(#leaf9)" opacity="0.34" transform="rotate(228.3 1779.9 694.9)"/>
    <path d="M 993.8971318033559,424.20347004338646 C 1049.2365997784716,470.3196933559828 1067.6830891035102,534.8824059936177 993.8971318033559,608.6683632937718 C 920.1111745032018,534.8824059936177 938.5576638282404,470.3196933559828 993.8971318033559,424.20347004338646 Z" fill="url(#leaf10)" opacity="0.31" transform="rotate(158.4 993.9 516.4)"/>
    <path d="M 1773.5189276670303,652.341326763205 C 1828.7479494344593,698.3655115693958 1847.1576233569356,762.799370298063 1773.5189276670303,836.4380659879682 C 1699.880231977125,762.799370298063 1718.2899058996013,698.3655115693958 1773.5189276670303,652.341326763205 Z" fill="url(#leaf11)" opacity="0.37" transform="rotate(105.7 1773.5 744.4)"/>
    <path d="M 914.0662459174981,367.5943820344109 C 973.3034885997405,416.95875093627956 993.0492361604879,486.06886739889563 914.0662459174981,565.0518576418854 C 835.0832556745083,486.06886739889563 854.8290032352558,416.95875093627956 914.0662459174981,367.5943820344109 Z" fill="url(#leaf12)" opacity="0.29" transform="rotate(268.6 914.1 466.3)"/>
    <path d="M 1553.5054307648206,614.2689541503856 C 1599.2827254351548,652.4166997089976 1614.5418236585997,705.8235434910542 1553.5054307648206,766.8599363848333 C 1492.4690378710416,705.8235434910542 1507.7281360944864,652.4166997089976 1553.5054307648206,614.2689541503856 Z" fill="url(#leaf13)" opacity="0.25" transform="rotate(256.8 1553.5 690.6)"/>
    <path d="M 290.425269277673,856.5988266251487 C 347.3988386474407,904.0768010999551 366.39002843736324,970.5459653646841 290.425269277673,1046.5107245243744 C 214.46051011798278,970.5459653646841 233.45169990790535,904.0768010999551 290.425269277673,856.5988266251487 Z" fill="url(#leaf14)" opacity="0.37" transform="rotate(212.0 290.4 951.6)"/>
    <path d="M 883.9103909241645,897.4882985147798 C 914.2308882642282,922.7553796314995 924.337720710916,958.1292931949071 883.9103909241645,998.5566229816585 C 843.4830611374131,958.1292931949071 853.5898935841009,922.7553796314995 883.9103909241645,897.4882985147798 Z" fill="url(#leaf15)" opacity="0.20" transform="rotate(341.5 883.9 948.0)"/>
    <path d="M 1807.7103960011962,936.5698914557121 C 1845.6994709815178,968.2274539393135 1858.3624959749584,1012.5480414163554 1807.7103960011962,1063.2001413901176 C 1757.058296027434,1012.5480414163554 1769.7213210208745,968.2274539393135 1807.7103960011962,936.5698914557121 Z" fill="url(#leaf16)" opacity="0.24" transform="rotate(231.0 1807.7 999.9)"/>
    <path d="M 1232.499534183056,849.6018326827525 C 1264.4886875908846,876.2594605226096 1275.1517387268275,913.5801394984096 1232.499534183056,956.232344042181 C 1189.8473296392847,913.5801394984096 1200.5103807752275,876.2594605226096 1232.499534183056,849.6018326827525 Z" fill="url(#leaf17)" opacity="0.36" transform="rotate(109.0 1232.5 902.9)"/>
    <path d="M 1029.4725548538045,518.9153046734801 C 1055.9241147158598,540.9582712251928 1064.7413013365447,571.8184243975905 1029.4725548538045,607.0871708803307 C 994.2038083710642,571.8184243975905 1003.0209949917493,540.9582712251928 1029.4725548538045,518.9153046734801 Z" fill="url(#leaf18)" opacity="0.25" transform="rotate(290.7 1029.5 563.0)"/>
    <path d="M 148.64273896901705,56.870570083889675 C 180.18412994428147,83.15506256327669 190.69792693603625,119.9533520344185 148.64273896901705,162.00854000143772 C 106.58755100199782,119.9533520344185 117.10134799375263,83.15506256327669 148.64273896901705,56.870570083889675 Z" fill="url(#leaf19)" opacity="0.22" transform="rotate(11.0 148.6 109.4)"/>
    <path d="M 1241.8297374342997,-21.67732170894996 C 1297.1248977721934,24.401978572628224 1315.5566178848248,88.91299896683768 1241.8297374342997,162.63987941736278 C 1168.1028569837745,88.91299896683768 1186.5345770964059,24.401978572628224 1241.8297374342997,-21.67732170894996 Z" fill="url(#leaf0)" opacity="0.29" transform="rotate(230.4 1241.8 70.5)"/>
    <path d="M 1389.1287910904457,878.0428148932681 C 1440.7956388617722,921.0985213693737 1458.0179214522145,981.3765104359213 1389.1287910904457,1050.2656407976901 C 1320.2396607286769,981.3765104359213 1337.4619433191192,921.0985213693737 1389.1287910904457,878.0428148932681 Z" fill="url(#leaf1)" opacity="0.24" transform="rotate(239.7 1389.1 964.2)"/>
    <path d="M 843.4620141818575,879.6175187742487 C 900.4902897630783,927.1410817585993 919.4997149568185,993.6740699366902 843.4620141818575,1069.711770711651 C 767.4243134068965,993.6740699366902 786.4337386006367,927.1410817585993 843.4620141818575,879.6175187742487 Z" fill="url(#leaf2)" opacity="0.40" transform="rotate(130.4 843.5 974.7)"/>
    <path d="M 220.2534354590316,161.57441455767218 C 262.9790482609388,197.17909189259484 277.2209191949079,247.02564016148656 220.2534354590316,303.9931238973628 C 163.28595172315536,247.02564016148656 177.52782265712443,197.17909189259484 220.2534354590316,161.57441455767218 Z" fill="url(#leaf3)" opacity="0.29" transform="rotate(89.6 220.3 232.8)"/>
    <path d="M 1271.441592266684,254.7415771799084 C 1302.5974465914185,280.70478911718715 1312.98273136633,317.05328582937733 1271.441592266684,358.59442492902326 C 1229.900453167038,317.05328582937733 1240.2857379419495,280.70478911718715 1271.441592266684,254.7415771799084 Z" fill="url(#leaf4)" opacity="0.39" transform="rotate(122.0 1271.4 306.7)"/>
    <path d="M 1578.565249567076,491.6021995806449 C 1622.6436156842426,528.3341713449503 1637.3364043899649,579.7589318149779 1578.565249567076,638.5300866378667 C 1519.7940947441873,579.7589318149779 1534.4868834499096,528.3341713449503 1578.565249567076,491.6021995806449 Z" fill="url(#leaf5)" opacity="0.30" transform="rotate(248.5 1578.6 565.1)"/>
    <path d="M 82.78388090028602,130.21066986515422 C 127.91398995993441,167.81909408152788 142.9573596464839,220.470887984451 82.78388090028602,280.64436673064887 C 22.610402154088156,220.470887984451 37.653771840637624,167.81909408152788 82.78388090028602,130.21066986515422 Z" fill="url(#leaf6)" opacity="0.25" transform="rotate(265.3 82.8 205.4)"/>
    <path d="M 1799.2684628796194,910.1450190096327 C 1838.0447091411827,942.4585575609354 1850.9701245617039,987.6975115327593 1799.2684628796194,1039.3991732148438 C 1747.566801197535,987.6975115327593 1760.492216618056,942.4585575609354 1799.2684628796194,910.1450190096327 Z" fill="url(#leaf7)" opacity="0.25" transform="rotate(97.0 1799.3 974.8)"/>
    <path d="M 574.7393332031593,148.54138877988086 C 616.8221282657471,183.61038466537067 630.849726619943,232.70697890505642 574.7393332031593,288.81737232184014 C 518.6289397863756,232.70697890505642 532.6565381405715,183.61038466537067 574.7393332031593,148.54138877988086 Z" fill="url(#leaf8)" opacity="0.26" transform="rotate(268.8 574.7 218.7)"/>
    <path d="M 714.0278506320992,78.38388589859849 C 764.7210098664243,120.62818526053603 781.6187296111992,179.77020436724857 714.0278506320992,247.36108334634864 C 646.4369716529992,179.77020436724857 663.3346913977741,120.62818526053603 714.0278506320992,78.38388589859849 Z" fill="url(#leaf9)" opacity="0.27" transform="rotate(258.1 714.0 162.9)"/>
    <path d="M 63.97112530196796,900.3824001829123 C 91.26262218709844,923.1253142538543 100.35978781547527,954.9653939531732 63.97112530196796,991.3540564666805 C 27.582462788460653,954.9653939531732 36.679628416837474,923.1253142538543 63.97112530196796,900.3824001829123 Z" fill="url(#leaf10)" opacity="0.30" transform="rotate(235.4 64.0 945.9)"/>
    <path d="M 99.27240979105255,491.79902045082804 C 133.89418686362475,520.6505013446382 145.43477922114883,561.0425745959724 99.27240979105255,607.2049440260687 C 53.110040360956276,561.0425745959724 64.65063271848035,520.6505013446382 99.27240979105255,491.79902045082804 Z" fill="url(#leaf11)" opacity="0.37" transform="rotate(273.4 99.3 549.5)"/>
    <path d="M 1175.8218227711718,903.5100457001085 C 1221.0020819903261,941.1602617160704 1236.0621683967108,993.870564138417 1175.8218227711718,1054.110909763956 C 1115.5814771456328,993.870564138417 1130.6415635520175,941.1602617160704 1175.8218227711718,903.5100457001085 Z" fill="url(#leaf12)" opacity="0.36" transform="rotate(33.6 1175.8 978.8)"/>
    <path d="M 1038.5095975026718,-32.469564839474586 C 1092.7778619941123,12.753988903392568 1110.8672834912593,76.06696414340658 1038.5095975026718,148.42465013199404 C 966.1519115140843,76.06696414340658 984.2413330112312,12.753988903392568 1038.5095975026718,-32.469564839474586 Z" fill="url(#leaf13)" opacity="0.29" transform="rotate(120.0 1038.5 58.0)"/>
    <path d="M 1474.657862077129,490.9076382708746 C 1530.0335726989504,537.0540637890591 1548.4921429062242,601.6590595145175 1474.657862077129,675.4933403436127 C 1400.8235812480339,601.6590595145175 1419.2821514553077,537.0540637890591 1474.657862077129,490.9076382708746 Z" fill="url(#leaf14)" opacity="0.26" transform="rotate(223.8 1474.7 583.2)"/>
    <path d="M 1345.9703842212577,521.6779172479289 C 1402.280844966497,568.6033012022949 1421.0509985482433,634.2988387384073 1345.9703842212577,709.3794530653929 C 1270.8897698942721,634.2988387384073 1289.6599234760185,568.6033012022949 1345.9703842212577,521.6779172479289 Z" fill="url(#leaf15)" opacity="0.33" transform="rotate(330.3 1346.0 615.5)"/>
    <path d="M 1301.0090000608645,295.5693334512872 C 1337.7635234361483,326.1981029306902 1350.0150312279093,369.07838020185443 1301.0090000608645,418.0844113688993 C 1252.0029688938198,369.07838020185443 1264.2544766855808,326.1981029306902 1301.0090000608645,295.5693334512872 Z" fill="url(#leaf16)" opacity="0.31" transform="rotate(257.1 1301.0 356.8)"/>
    <path d="M 582.9002592478096,376.0380605340249 C 617.9265536971732,405.2266392418279 629.6019851802944,446.0906494327521 582.9002592478096,492.7923753652369 C 536.1985333153248,446.0906494327521 547.873964798446,405.2266392418279 582.9002592478096,376.0380605340249 Z" fill="url(#leaf17)" opacity="0.32" transform="rotate(73.5 582.9 434.4)"/>
    <path d="M 1643.030089053691,88.82082541925334 C 1670.3764816340106,111.60948590285305 1679.4919458274505,143.51361057989266 1643.030089053691,179.9754673536522 C 1606.5682322799314,143.51361057989266 1615.6836964733714,111.60948590285305 1643.030089053691,88.82082541925334 Z" fill="url(#leaf18)" opacity="0.21" transform="rotate(323.1 1643.0 134.4)"/>
    <path d="M 1645.4440781553942,232.79561353331252 C 1688.8022557933884,268.92742823164104 1703.2549816727199,319.5119688093009 1645.4440781553942,377.3228723266265 C 1587.6331746380686,319.5119688093009 1602.0859005174,268.92742823164104 1645.4440781553942,232.79561353331252 Z" fill="url(#leaf19)" opacity="0.27" transform="rotate(313.8 1645.4 305.1)"/>
    <path d="M 362.6839838603514,436.8153276520069 C 396.0907921678708,464.65433457493975 407.22639493704395,503.6289442670457 362.6839838603514,548.1713553437382 C 318.1415727836589,503.6289442670457 329.27717555283203,464.65433457493975 362.6839838603514,436.8153276520069 Z" fill="url(#leaf0)" opacity="0.20" transform="rotate(191.9 362.7 492.5)"/>
    <path d="M 1250.3706140813376,23.064831253022277 C 1294.83434081956,60.11793686820772 1309.6555830656343,111.99228472946734 1250.3706140813376,171.27725371376405 C 1191.085645097041,111.99228472946734 1205.9068873431152,60.11793686820772 1250.3706140813376,23.064831253022277 Z" fill="url(#leaf1)" opacity="0.32" transform="rotate(319.3 1250.4 97.2)"/>
    <path d="M 1593.304282466737,686.0837930235992 C 1632.6675778507997,718.8865391769848 1645.7886763121537,764.8103837917245 1593.304282466737,817.2947776371412 C 1540.8198886213204,764.8103837917245 1553.9409870826744,718.8865391769848 1593.304282466737,686.0837930235992 Z" fill="url(#leaf2)" opacity="0.40" transform="rotate(178.2 1593.3 751.7)"/>
    <path d="M 1557.1492530105172,253.2314049236003 C 1589.4540523394314,280.1520710310289 1600.222318782403,317.84100358142894 1557.1492530105172,360.9140693533147 C 1514.0761872386315,317.84100358142894 1524.844453681603,280.1520710310289 1557.1492530105172,253.2314049236003 Z" fill="url(#leaf3)" opacity="0.37" transform="rotate(285.9 1557.1 307.1)"/>
    <path d="M 601.2187426266817,53.02120304454294 C 661.1037436403076,102.92537055589791 681.0654106448496,172.79120507179488 601.2187426266817,252.63787308996282 C 521.3720746085137,172.79120507179488 541.3337416130557,102.92537055589791 601.2187426266817,53.02120304454294 Z" fill="url(#leaf4)" opacity="0.36" transform="rotate(35.2 601.2 152.8)"/>
    <path d="M 606.9693532143247,365.4645709177564 C 651.6775784838782,402.721425309051 666.5803202403961,454.8810214568635 606.9693532143247,514.4919884829349 C 547.3583861882532,454.8810214568635 562.2611279447711,402.721425309051 606.9693532143247,365.4645709177564 Z" fill="url(#leaf5)" opacity="0.20" transform="rotate(26.9 607.0 440.0)"/>
    <path d="M 237.34344246027877,75.39132964660669 C 267.49796037824376,100.5200945782442 277.5494663508988,135.70036548253668 237.34344246027877,175.90638937315668 C 197.13741856965876,135.70036548253668 207.18892454231377,100.5200945782442 237.34344246027877,75.39132964660669 Z" fill="url(#leaf6)" opacity="0.34" transform="rotate(345.3 237.3 125.6)"/>
    <path d="M 743.9476431194156,485.28838338980626 C 780.5563650798327,515.7956516901539 792.7592723999718,558.5058273106406 743.9476431194156,607.3174565911968 C 695.1360138388594,558.5058273106406 707.3389211589985,515.7956516901539 743.9476431194156,485.28838338980626 Z" fill="url(#leaf7)" opacity="0.39" transform="rotate(180.7 743.9 546.3)"/>
    <path d="M 395.2385448864588,663.7282994919138 C 427.95342200200355,690.9906970882012 438.8583810405185,729.1580537230034 395.2385448864588,772.7778898770631 C 351.61870873239906,729.1580537230034 362.523667770914,690.9906970882012 395.2385448864588,663.7282994919138 Z" fill="url(#leaf8)" opacity="0.32" transform="rotate(89.8 395.2 718.3)"/>
    <path d="M 1018.7030542629957,486.08087383123296 C 1061.2638033737733,521.5481647568809 1075.4507197440323,571.202372052788 1018.7030542629957,627.9500375338246 C 961.9553887819591,571.202372052788 976.1423051522182,521.5481647568809 1018.7030542629957,486.08087383123296 Z" fill="url(#leaf9)" opacity="0.40" transform="rotate(34.1 1018.7 557.0)"/>
    <path d="M 789.5584755357986,441.26202312508144 C 831.0206099049137,475.8138017660108 844.8413213612855,524.1862918633118 789.5584755357986,579.4691376887987 C 734.2756297103117,524.1862918633118 748.0963411666835,475.8138017660108 789.5584755357986,441.26202312508144 Z" fill="url(#leaf10)" opacity="0.32" transform="rotate(201.1 789.6 510.4)"/>
    <path d="M 503.94760698865593,109.6264408983169 C 542.3969588079606,141.6675674144041 555.2134094143954,186.52514453692615 503.94760698865593,237.79094696266566 C 452.68180456291645,186.52514453692615 465.4982551693513,141.6675674144041 503.94760698865593,109.6264408983169 Z" fill="url(#leaf11)" opacity="0.23" transform="rotate(261.1 503.9 173.7)"/>
    <path d="M 1515.435501375548,159.2477807317145 C 1549.4138034195635,187.5630324350608 1560.739904100902,227.2043848197456 1515.435501375548,272.50878754509966 C 1470.131098650194,227.2043848197456 1481.4571993315326,187.5630324350608 1515.435501375548,159.2477807317145 Z" fill="url(#leaf12)" opacity="0.30" transform="rotate(65.3 1515.4 215.9)"/>
    <path d="M 1204.9170557588673,708.0430655704364 C 1234.553668578801,732.7402429203813 1244.432539518779,767.316291210304 1204.9170557588673,806.8317749702159 C 1165.4015719989554,767.316291210304 1175.2804429389334,732.7402429203813 1204.9170557588673,708.0430655704364 Z" fill="url(#leaf13)" opacity="0.40" transform="rotate(126.7 1204.9 757.4)"/>
    <path d="M 556.676527365922,207.84488441571 C 607.5993637637923,250.2805814139353 624.5736425630824,309.6905572114507 556.676527365922,377.5876724086112 C 488.7794121687615,309.6905572114507 505.7536909680516,250.2805814139353 556.676527365922,207.84488441571 Z" fill="url(#leaf14)" opacity="0.38" transform="rotate(237.1 556.7 292.7)"/>
    <path d="M 366.26055592208115,90.62545672627003 C 412.7759913314552,129.3883195674151 428.28113646791326,183.65632754501817 366.26055592208115,245.67690809085025 C 304.23997537624905,183.65632754501817 319.7451205127071,129.3883195674151 366.26055592208115,90.62545672627003 Z" fill="url(#leaf15)" opacity="0.38" transform="rotate(22.9 366.3 168.2)"/>
    <path d="M 673.2324073227524,171.60080587303878 C 706.2382134429496,199.10564430653653 717.2401488163487,237.61241811343336 673.2324073227524,281.62015960702973 C 629.224665829156,237.61241811343336 640.2266012025551,199.10564430653653 673.2324073227524,171.60080587303878 Z" fill="url(#leaf16)" opacity="0.21" transform="rotate(90.2 673.2 226.6)"/>
    <path d="M 98.98485553757757,527.9240998363535 C 133.7385003751078,556.8854705342953 145.32304865428455,597.431389511414 98.98485553757757,643.7695826281209 C 52.6466624208706,597.431389511414 64.23121070004734,556.8854705342953 98.98485553757757,527.9240998363535 Z" fill="url(#leaf17)" opacity="0.40" transform="rotate(141.4 99.0 585.8)"/>
    <path d="M 1140.4785408151977,901.4955501154777 C 1187.2506926064902,940.4723432748882 1202.8414098702542,995.0398536980628 1140.4785408151977,1057.4027227531194 C 1078.1156717601411,995.0398536980628 1093.706389023905,940.4723432748882 1140.4785408151977,901.4955501154777 Z" fill="url(#leaf18)" opacity="0.26" transform="rotate(159.3 1140.5 979.4)"/>
    <path d="M 851.5325202431783,619.0408441775556 C 897.9184470323263,657.6957831685123 913.380422628709,711.8126977558517 851.5325202431783,773.6606001413824 C 789.6846178576476,711.8126977558517 805.1465934540303,657.6957831685123 851.5325202431783,619.0408441775556 Z" fill="url(#leaf19)" opacity="0.23" transform="rotate(334.8 851.5 696.4)"/>
    <path d="M 1431.4464614232602,264.8376242954133 C 1485.168421182002,309.6059240943649 1503.0757411015827,372.2815438128971 1431.4464614232602,443.9108234912196 C 1359.8171817449377,372.2815438128971 1377.7245016645184,309.6059240943649 1431.4464614232602,264.8376242954133 Z" fill="url(#leaf0)" opacity="0.36" transform="rotate(56.1 1431.4 354.4)"/>
    <path d="M 1315.2995112787746,139.0215924553289 C 1343.3609784781902,162.40614845484185 1352.7148008779952,195.14452685415998 1315.2995112787746,232.55981645338068 C 1277.884221679554,195.14452685415998 1287.238044079359,162.40614845484185 1315.2995112787746,139.0215924553289 Z" fill="url(#leaf1)" opacity="0.39" transform="rotate(253.3 1315.3 185.8)"/>
    <path d="M 1229.8434960618788,374.8990656126747 C 1284.94217001466,420.8146272399924 1303.308394665587,485.0964135182371 1229.8434960618788,558.5613121219454 C 1156.3785974581706,485.0964135182371 1174.7448221090976,420.8146272399924 1229.8434960618788,374.8990656126747 Z" fill="url(#leaf2)" opacity="0.23" transform="rotate(31.2 1229.8 466.7)"/>
    <path d="M 1164.768656231735,560.1812219418442 C 1193.5329290959912,584.1514493287245 1203.1210200507435,617.709767670357 1164.768656231735,656.0621314893655 C 1126.4162924127263,617.709767670357 1136.0043833674786,584.1514493287245 1164.768656231735,560.1812219418442 Z" fill="url(#leaf3)" opacity="0.28" transform="rotate(108.9 1164.8 608.1)"/>
    <path d="M 1257.411988576423,414.0160953956907 C 1304.6316489913274,453.365812408111 1320.3715357962956,508.4554162254995 1257.411988576423,571.414963445372 C 1194.4524413565505,508.4554162254995 1210.1923281615186,453.365812408111 1257.411988576423,414.0160953956907 Z" fill="url(#leaf4)" opacity="0.28" transform="rotate(41.9 1257.4 492.7)"/>
    <path d="M 953.1537299272077,190.18313642781206 C 1008.7850850317419,236.54259901492395 1027.3288700665867,301.44584663688056 953.1537299272077,375.62098677625954 C 878.9785897878287,301.44584663688056 897.5223748226734,236.54259901492395 953.1537299272077,190.18313642781206 Z" fill="url(#leaf5)" opacity="0.38" transform="rotate(323.3 953.2 282.9)"/>
    <path d="M 1193.6702907627862,818.2900984509295 C 1217.8588938253615,838.4472676697421 1225.9217615128866,866.66730457608 1193.6702907627862,898.9187753261804 C 1161.4188200126857,866.66730457608 1169.4816877002108,838.4472676697421 1193.6702907627862,818.2900984509295 Z" fill="url(#leaf6)" opacity="0.28" transform="rotate(272.0 1193.7 858.6)"/>
    <path d="M 1092.883663555518,293.6136313557029 C 1152.2694534438137,343.1017895959493 1172.0647167399122,412.3852111322942 1092.883663555518,491.56626431668843 C 1013.7026103711239,412.3852111322942 1033.4978736672224,343.1017895959493 1092.883663555518,293.6136313557029 Z" fill="url(#leaf7)" opacity="0.30" transform="rotate(64.3 1092.9 392.6)"/>
    <path d="M 1110.625001774236,274.8103340127547 C 1162.5404955659606,318.0732455058585 1179.845660163202,378.6413215962038 1110.625001774236,447.86197998516985 C 1041.4043433852698,378.6413215962038 1058.7095079825112,318.0732455058585 1110.625001774236,274.8103340127547 Z" fill="url(#leaf8)" opacity="0.32" transform="rotate(355.4 1110.6 361.3)"/>
    <path d="M 709.6390035585107,808.395996673875 C 742.0906596664578,835.4390434304976 752.9078783691068,873.2993088897691 709.6390035585107,916.5681837003652 C 666.3701287479146,873.2993088897691 677.1873474505636,835.4390434304976 709.6390035585107,808.395996673875 Z" fill="url(#leaf9)" opacity="0.32" transform="rotate(143.2 709.6 862.5)"/>
    <path d="M 827.7381800653798,575.7850299512731 C 881.18745996638,620.3260965354399 899.0038866000466,682.6835897532733 827.7381800653798,753.9492962879401 C 756.4724735307129,682.6835897532733 774.2889001643796,620.3260965354399 827.7381800653798,575.7850299512731 Z" fill="url(#leaf10)" opacity="0.20" transform="rotate(25.0 827.7 664.9)"/>
    <path d="M 471.2454232422329,-5.216721460507088 C 505.5453300191101,23.366534186890576 516.9786322780692,63.383092093247306 471.2454232422329,109.11630112908357 C 425.5122142063966,63.383092093247306 436.9455164653557,23.366534186890576 471.2454232422329,-5.216721460507088 Z" fill="url(#leaf11)" opacity="0.36" transform="rotate(167.2 471.2 51.9)"/>
    <path d="M 182.5213208376137,348.0529859307516 C 215.8910161602832,375.8610653663095 227.01424793450633,414.79237657609053 182.5213208376137,459.28530367298316 C 138.02839374072107,414.79237657609053 149.15162551494421,375.8610653663095 182.5213208376137,348.0529859307516 Z" fill="url(#leaf12)" opacity="0.24" transform="rotate(138.9 182.5 403.7)"/>
    <path d="M 978.4216254941551,162.03716661842097 C 1012.8835086041036,190.75540254337795 1024.3708029740862,230.96093283831775 978.4216254941551,276.91011031824894 C 932.4724480142239,230.96093283831775 943.9597423842067,190.75540254337795 978.4216254941551,162.03716661842097 Z" fill="url(#leaf13)" opacity="0.29" transform="rotate(41.2 978.4 219.5)"/>
    <path d="M 1060.6493298140535,150.56533533048486 C 1104.4360348872929,187.054256224851 1119.0316032450394,238.1387454769636 1060.6493298140535,296.52101890794944 C 1002.2670563830677,238.1387454769636 1016.8626247408142,187.054256224851 1060.6493298140535,150.56533533048486 Z" fill="url(#leaf14)" opacity="0.22" transform="rotate(319.6 1060.6 223.5)"/>
    <path d="M 1656.4215771469694,141.95026494507147 C 1707.1082414420653,184.1891518576513 1724.0037962070971,243.32359353526306 1656.4215771469694,310.9058125953908 C 1588.8393580868417,243.32359353526306 1605.7349128518736,184.1891518576513 1656.4215771469694,141.95026494507147 Z" fill="url(#leaf15)" opacity="0.36" transform="rotate(322.8 1656.4 226.4)"/>
    <path d="M 486.7024877228533,570.9786725016071 C 546.1583400433311,620.5252161020053 565.9769574834904,689.8903771425628 486.7024877228533,769.1648469031999 C 407.42801796221613,689.8903771425628 427.24663540237543,620.5252161020053 486.7024877228533,570.9786725016071 Z" fill="url(#leaf16)" opacity="0.31" transform="rotate(112.0 486.7 670.1)"/>
    <path d="M 1113.763450579449,757.3417701315999 C 1157.382210997321,793.6907371464932 1171.9217978032782,844.5792909673439 1113.763450579449,902.7376381911732 C 1055.6051033556198,844.5792909673439 1070.144690161577,793.6907371464932 1113.763450579449,757.3417701315999 Z" fill="url(#leaf17)" opacity="0.32" transform="rotate(141.0 1113.8 830.0)"/>
    <path d="M 66.97097652446683,53.474462143660844 C 106.14860082963068,86.12248239796406 119.20780893135198,131.82971075398856 66.97097652446683,184.0665431608737 C 14.734144117581693,131.82971075398856 27.79335221930298,86.12248239796406 66.97097652446683,53.474462143660844 Z" fill="url(#leaf18)" opacity="0.33" transform="rotate(325.9 67.0 118.8)"/>
    <path d="M 1184.8149265033087,126.65872557988313 C 1221.5838116452778,157.29946319819078 1233.840106692601,200.1964958638215 1184.8149265033087,249.22167605311375 C 1135.7897463140164,200.1964958638215 1148.0460413613396,157.29946319819078 1184.8149265033087,126.65872557988313 Z" fill="url(#leaf19)" opacity="0.22" transform="rotate(180.0 1184.8 187.9)"/>
    <path d="M 940.9026009872766,182.38218266909655 C 991.8083002749671,224.80359874217197 1008.7768667041973,284.19358124447757 940.9026009872766,352.06784696139823 C 873.0283352703559,284.19358124447757 889.9969016995861,224.80359874217197 940.9026009872766,182.38218266909655 Z" fill="url(#leaf0)" opacity="0.31" transform="rotate(50.3 940.9 267.2)"/>
    <path d="M 93.49026398568068,549.0215461105914 C 150.4820750216248,596.5147219738782 169.47934536693953,663.0051681824797 93.49026398568068,738.9942495637384 C 17.501182604421857,663.0051681824797 36.49845294973657,596.5147219738782 93.49026398568068,549.0215461105914 Z" fill="url(#leaf1)" opacity="0.37" transform="rotate(215.7 93.5 644.0)"/>
    <path d="M 1317.842465946148,35.3953121728909 C 1372.3413463142226,80.81104581295311 1390.5076397702476,144.3930729090402 1317.842465946148,217.05824673313975 C 1245.1772921220484,144.3930729090402 1263.3435855780733,80.81104581295311 1317.842465946148,35.3953121728909 Z" fill="url(#leaf2)" opacity="0.36" transform="rotate(130.3 1317.8 126.2)"/>
    <path d="M 794.3700164370742,142.32846929602 C 833.473967341237,174.91509504948894 846.5086176426246,220.53637110434548 794.3700164370742,272.6749723098958 C 742.2314152315239,220.53637110434548 755.2660655329115,174.91509504948894 794.3700164370742,142.32846929602 Z" fill="url(#leaf3)" opacity="0.26" transform="rotate(358.4 794.4 207.5)"/>
    <path d="M 384.07747273012126,363.39982696078704 C 435.0926220990359,405.9124514348826 452.09767188867414,465.4301256986164 384.07747273012126,533.4503248571693 C 316.0572735715684,465.4301256986164 333.0623233612066,405.9124514348826 384.07747273012126,363.39982696078704 Z" fill="url(#leaf4)" opacity="0.33" transform="rotate(191.0 384.1 448.4)"/>
    <path d="M 1627.5709899165681,169.20002319959275 C 1669.5563940115007,204.18785994536992 1683.5515287098117,253.17083138945796 1627.5709899165681,309.15137018270144 C 1571.5904511233246,253.17083138945796 1585.5855858216355,204.18785994536992 1627.5709899165681,169.20002319959275 Z" fill="url(#leaf5)" opacity="0.26" transform="rotate(151.5 1627.6 239.2)"/>
    <path d="M 643.0198368804572,867.5219901384041 C 674.3360793706069,893.6188588801955 684.7748268673234,930.1544751187034 643.0198368804572,971.9094651055696 C 601.264846893591,930.1544751187034 611.7035943903076,893.6188588801955 643.0198368804572,867.5219901384041 Z" fill="url(#leaf6)" opacity="0.31" transform="rotate(224.0 643.0 919.7)"/>
    <path d="M 1757.5807170075104,275.73541568904614 C 1786.2062800247156,299.59005153671717 1795.7481343637842,332.98654172345664 1757.5807170075104,371.15395907973027 C 1719.4132996512367,332.98654172345664 1728.9551539903052,299.59005153671717 1757.5807170075104,275.73541568904614 Z" fill="url(#leaf7)" opacity="0.29" transform="rotate(20.3 1757.6 323.4)"/>
    <path d="M 71.16252339644086,780.8781637840115 C 117.24362742891472,819.279083811073 132.60399543973935,873.0403718489591 71.16252339644086,934.4818438922576 C 9.721051353142364,873.0403718489591 25.081419363966994,819.279083811073 71.16252339644086,780.8781637840115 Z" fill="url(#leaf8)" opacity="0.27" transform="rotate(313.9 71.2 857.7)"/>
    <path d="M 1595.7654600762057,733.6556506110346 C 1638.1464715313516,768.9731601569895 1652.2734753497336,818.4176735213264 1595.7654600762057,874.9256887948543 C 1539.2574448026778,818.4176735213264 1553.3844486210598,768.9731601569895 1595.7654600762057,733.6556506110346 Z" fill="url(#leaf9)" opacity="0.29" transform="rotate(30.2 1595.8 804.3)"/>
    <path d="M 1144.3996673978615,425.6817346525221 C 1194.4580804376833,467.3970788523736 1211.144218117624,525.7985607321657 1144.3996673978615,592.5431114519281 C 1077.6551166780991,525.7985607321657 1094.3412543580398,467.3970788523736 1144.3996673978615,425.6817346525221 Z" fill="url(#leaf10)" opacity="0.23" transform="rotate(101.4 1144.4 509.1)"/>
    <path d="M 1601.1295981629116,426.2809033692283 C 1647.7588681019636,465.13862831843824 1663.3019580816474,519.5394432473321 1601.1295981629116,581.711803166068 C 1538.9572382441759,519.5394432473321 1554.5003282238597,465.13862831843824 1601.1295981629116,426.2809033692283 Z" fill="url(#leaf11)" opacity="0.23" transform="rotate(9.9 1601.1 504.0)"/>
    <path d="M 1478.7178852388836,393.1929745074566 C 1521.262541441708,428.6468546764769 1535.444093509316,478.2822869131052 1478.7178852388836,535.0084951835377 C 1421.9916769684512,478.2822869131052 1436.1732290360592,428.6468546764769 1478.7178852388836,393.1929745074566 Z" fill="url(#leaf12)" opacity="0.23" transform="rotate(276.6 1478.7 464.1)"/>
    <path d="M 461.56617992529107,265.2654076160489 C 519.1083431086613,313.21721026885746 538.2890641697848,380.34973398278936 461.56617992529107,457.07261822728304 C 384.8432956807974,380.34973398278936 404.02401674192083,313.21721026885746 461.56617992529107,265.2654076160489 Z" fill="url(#leaf13)" opacity="0.34" transform="rotate(318.7 461.6 361.2)"/>
    <path d="M 728.5752569564346,340.4985107989436 C 776.2276460847138,380.20883507250954 792.1117757941402,435.803289055502 728.5752569564346,499.33980789320754 C 665.038738118729,435.803289055502 680.9228678281554,380.20883507250954 728.5752569564346,340.4985107989436 Z" fill="url(#leaf14)" opacity="0.38" transform="rotate(205.7 728.6 419.9)"/>
    <path d="M 1734.1292203748196,122.52481010761241 C 1785.7737099282983,165.56188473551128 1802.9885397794578,225.81378921456968 1734.1292203748196,294.6731086192078 C 1665.2699009701814,225.81378921456968 1682.484730821341,165.56188473551128 1734.1292203748196,122.52481010761241 Z" fill="url(#leaf15)" opacity="0.29" transform="rotate(109.0 1734.1 208.6)"/>
    <path d="M 1553.0689888299169,453.64079301523896 C 1586.094573042064,481.16211319202813 1597.1031011127795,519.6919614395331 1553.0689888299169,563.7260737223958 C 1509.0348765470542,519.6919614395331 1520.0434046177697,481.16211319202813 1553.0689888299169,453.64079301523896 Z" fill="url(#leaf16)" opacity="0.21" transform="rotate(121.6 1553.1 508.7)"/>
    <path d="M 259.07859589656596,452.34383537443205 C 307.5493558731722,492.73613535493723 323.70627586537427,549.2853553276445 259.07859589656596,613.9130352964528 C 194.45091592775765,549.2853553276445 210.60783591995974,492.73613535493723 259.07859589656596,452.34383537443205 Z" fill="url(#leaf17)" opacity="0.36" transform="rotate(254.6 259.1 533.1)"/>
    <path d="M 711.6713608187904,27.983946701031087 C 749.627362065321,59.613947739806555 762.2793624808312,103.89594919409221 711.6713608187904,154.50395085613297 C 661.0633591567496,103.89594919409221 673.7153595722598,59.613947739806555 711.6713608187904,27.983946701031087 Z" fill="url(#leaf18)" opacity="0.36" transform="rotate(248.5 711.7 91.2)"/>
    <path d="M 1691.0902809864879,7.130186063205663 C 1720.0260424861892,31.243320646290076 1729.671296319423,65.00170906260826 1691.0902809864879,103.58272439554332 C 1652.5092656535528,65.00170906260826 1662.1545194867865,31.243320646290076 1691.0902809864879,7.130186063205663 Z" fill="url(#leaf19)" opacity="0.25" transform="rotate(71.6 1691.1 55.4)"/>
    <path d="M 457.33651882281725,331.8881400949972 C 513.2934684922286,378.51893148617336 531.945785048699,443.8020394338199 457.33651882281725,518.4113056597017 C 382.72725259693544,443.8020394338199 401.3795691534059,378.51893148617336 457.33651882281725,331.8881400949972 Z" fill="url(#leaf0)" opacity="0.25" transform="rotate(208.6 457.3 425.1)"/>
    <path d="M 1802.7550723187182,969.5700959935209 C 1828.7902878320479,991.2661089212957 1837.4686930031578,1021.6405270201803 1802.7550723187182,1056.35414770462 C 1768.0414516342787,1021.6405270201803 1776.7198568053886,991.2661089212957 1802.7550723187182,969.5700959935209 Z" fill="url(#leaf1)" opacity="0.26" transform="rotate(133.1 1802.8 1013.0)"/>
    <path d="M 53.3356773277893,884.965760827319 C 96.74161916890588,921.1373790282494 111.2102664492781,971.7776445095521 53.3356773277893,1029.6522336310409 C -4.538911793699498,971.7776445095521 9.929735486672705,921.1373790282494 53.3356773277893,884.965760827319 Z" fill="url(#leaf2)" opacity="0.33" transform="rotate(155.8 53.3 957.3)"/>
    <path d="M 87.76988589424369,568.5921000977285 C 140.50422159483463,612.5373798482209 158.0823334950316,674.0607714989103 87.76988589424369,744.3732190996982 C 17.457438293455752,674.0607714989103 35.035550193652746,612.5373798482209 87.76988589424369,568.5921000977285 Z" fill="url(#leaf3)" opacity="0.35" transform="rotate(246.9 87.8 656.5)"/>
    <path d="M 977.3891605632887,826.8008152825846 C 1017.8983285728938,860.5584552905888 1031.4013845760956,907.8191513017947 977.3891605632887,961.8313753146015 C 923.3769365504819,907.8191513017947 936.8799925536836,860.5584552905888 977.3891605632887,826.8008152825846 Z" fill="url(#leaf4)" opacity="0.26" transform="rotate(320.9 977.4 894.3)"/>
    <path d="M 320.79887315652826,549.5236676616545 C 376.9814804115756,596.3425070408606 395.70901616325807,661.8888821717492 320.79887315652826,736.7990251784789 C 245.88873014979845,661.8888821717492 264.6162659014809,596.3425070408606 320.79887315652826,549.5236676616545 Z" fill="url(#leaf5)" opacity="0.30" transform="rotate(93.2 320.8 643.2)"/>
    <path d="M 646.1242590733108,487.9033673506017 C 670.6894961545719,508.37439825165256 678.8779085149922,537.0338415131238 646.1242590733108,569.7874909548052 C 613.3706096316293,537.0338415131238 621.5590219920497,508.37439825165256 646.1242590733108,487.9033673506017 Z" fill="url(#leaf6)" opacity="0.23" transform="rotate(345.7 646.1 528.8)"/>
    <path d="M 609.4066535430478,416.944594795581 C 645.0384745251614,446.63777894734227 656.9157481858659,488.20823675980813 609.4066535430478,535.7173314026262 C 561.8975589002297,488.20823675980813 573.7748325609342,446.63777894734227 609.4066535430478,416.944594795581 Z" fill="url(#leaf7)" opacity="0.31" transform="rotate(163.7 609.4 476.3)"/>
    <path d="M 321.1462293712537,436.9170441581094 C 346.3662191471943,457.9337023047266 354.7728824058412,487.3570237099906 321.1462293712537,520.983676744578 C 287.5195763366662,487.3570237099906 295.9262395953131,457.9337023047266 321.1462293712537,436.9170441581094 Z" fill="url(#leaf8)" opacity="0.23" transform="rotate(105.8 321.1 479.0)"/>
    <path d="M 125.91567866313672,440.37497479204177 C 159.82038414346474,468.6288960256485 171.12195263690742,508.18438575269784 125.91567866313672,553.3906597264685 C 80.70940468936601,508.18438575269784 92.0109731828087,468.6288960256485 125.91567866313672,440.37497479204177 Z" fill="url(#leaf9)" opacity="0.24" transform="rotate(41.9 125.9 496.9)"/>
    <path d="M 769.0199020630135,53.2984303368317 C 806.4394448719986,84.48138267765262 818.912625808327,128.13751595480193 769.0199020630135,178.0302397001154 C 719.1271783177001,128.13751595480193 731.6003592540285,84.48138267765262 769.0199020630135,53.2984303368317 Z" fill="url(#leaf10)" opacity="0.24" transform="rotate(222.1 769.0 115.7)"/>
    <path d="M 1774.59127887862,610.1167704441676 C 1810.7906958986498,640.2829512941925 1822.8571682386596,682.5156044842272 1774.59127887862,730.781493844267 C 1726.3253895185803,682.5156044842272 1738.3918618585901,640.2829512941925 1774.59127887862,610.1167704441676 Z" fill="url(#leaf11)" opacity="0.27" transform="rotate(211.8 1774.6 670.4)"/>
    <path d="M 1771.3224769354217,313.53491240954213 C 1808.0052438522123,344.10388484020086 1820.2328328244757,386.9004462431231 1771.3224769354217,435.81080213217706 C 1722.4121210463677,386.9004462431231 1734.6397100186311,344.10388484020086 1771.3224769354217,313.53491240954213 Z" fill="url(#leaf12)" opacity="0.22" transform="rotate(243.6 1771.3 374.7)"/>
    <path d="M 164.40551945981926,188.12116651279737 C 205.72760084355735,222.5562343325791 219.50162797147004,270.76532928027353 164.40551945981926,325.86143779192435 C 109.30941094816848,270.76532928027353 123.08343807608118,222.5562343325791 164.40551945981926,188.12116651279737 Z" fill="url(#leaf13)" opacity="0.35" transform="rotate(91.4 164.4 257.0)"/>
    <path d="M 869.7157369306728,20.579275181151104 C 928.1195108104693,69.24908674764811 947.587435437068,137.3868229407439 869.7157369306728,215.25852144713912 C 791.8440384242776,137.3868229407439 811.3119630508764,69.24908674764811 869.7157369306728,20.579275181151104 Z" fill="url(#leaf14)" opacity="0.25" transform="rotate(58.2 869.7 117.9)"/>
    <path d="M 518.8064857945608,700.3840583858519 C 560.1410233321369,734.829506333832 573.9192025113289,783.0531334610041 518.8064857945608,838.1658501777722 C 463.6937690777927,783.0531334610041 477.4719482569847,734.829506333832 518.8064857945608,700.3840583858519 Z" fill="url(#leaf15)" opacity="0.35" transform="rotate(61.9 518.8 769.3)"/>
    <path d="M 550.4415860401768,665.4588778506048 C 588.4192255697375,697.1069107919053 601.0784387462577,741.4141569097261 550.4415860401768,792.051009615807 C 499.804733334096,741.4141569097261 512.4639465106162,697.1069107919053 550.4415860401768,665.4588778506048 Z" fill="url(#leaf16)" opacity="0.39" transform="rotate(30.9 550.4 728.8)"/>
    <path d="M 207.55334677551193,610.9282692742636 C 242.19443683951334,639.7958443275982 253.74146686084714,680.2104494022665 207.55334677551193,726.3985694876017 C 161.3652266901767,680.2104494022665 172.9122567115105,639.7958443275982 207.55334677551193,610.9282692742636 Z" fill="url(#leaf17)" opacity="0.27" transform="rotate(1.4 207.6 668.7)"/>
    <path d="M 921.6967629048644,503.5173780065518 C 969.7271122408991,543.5426691199141 985.7372286862441,599.5780766786213 921.6967629048644,663.618542460001 C 857.6562971234847,599.5780766786213 873.6664135688296,543.5426691199141 921.6967629048644,503.5173780065518 Z" fill="url(#leaf18)" opacity="0.20" transform="rotate(143.2 921.7 583.6)"/>
    <path d="M 267.8387210592807,747.5972293254209 C 322.52923244398056,793.1726554793374 340.7594029055472,856.9782520948205 267.8387210592807,929.898933941087 C 194.91803921301425,856.9782520948205 213.1482096745809,793.1726554793374 267.8387210592807,747.5972293254209 Z" fill="url(#leaf19)" opacity="0.34" transform="rotate(100.1 267.8 838.7)"/>
    <path d="M 790.2618554598965,672.0365816853631 C 839.3215744261066,712.9196808238715 855.67481408151,770.1560196177834 790.2618554598965,835.5689782393969 C 724.848896838283,770.1560196177834 741.2021364936865,712.9196808238715 790.2618554598965,672.0365816853631 Z" fill="url(#leaf0)" opacity="0.26" transform="rotate(50.9 790.3 753.8)"/>
    <path d="M 197.63785083256207,696.3194013545642 C 241.7465859595458,733.0766806270507 256.4494976685404,784.5368716085318 197.63785083256207,843.3485184445101 C 138.82620399658376,784.5368716085318 153.52911570557833,733.0766806270507 197.63785083256207,696.3194013545642 Z" fill="url(#leaf1)" opacity="0.39" transform="rotate(32.9 197.6 769.8)"/>
    <path d="M 100.04669494256328,480.34162566766594 C 136.85381277366304,511.01422386024905 149.1228520506963,553.9558613298655 100.04669494256328,603.0320184379985 C 50.970537834430246,553.9558613298655 63.23957711146351,511.01422386024905 100.04669494256328,480.34162566766594 Z" fill="url(#leaf2)" opacity="0.34" transform="rotate(97.6 100.0 541.7)"/>
    <path d="M 982.762927586145,894.9820727337317 C 1023.8585163429525,929.2283966977378 1037.557045928555,977.1732502473466 982.762927586145,1031.9673685897565 C 927.968809243735,977.1732502473466 941.6673388293375,929.2283966977378 982.762927586145,894.9820727337317 Z" fill="url(#leaf3)" opacity="0.38" transform="rotate(68.8 982.8 963.5)"/>
    <path d="M 264.2698528047731,291.20151376796144 C 308.23523339091577,327.8393309230803 322.8903602529633,379.13227494024676 264.2698528047731,437.75278238843697 C 205.6493453565829,379.13227494024676 220.30447221863045,327.8393309230803 264.2698528047731,291.20151376796144 Z" fill="url(#leaf4)" opacity="0.25" transform="rotate(209.7 264.3 364.5)"/>
    <path d="M 67.96283916352552,593.7324687983584 C 101.86830110896426,621.9870204195573 113.17012175744387,661.5433926892359 67.96283916352552,706.7506752831542 C 22.755556569607172,661.5433926892359 34.05737721808676,621.9870204195573 67.96283916352552,593.7324687983584 Z" fill="url(#leaf5)" opacity="0.31" transform="rotate(332.9 68.0 650.2)"/>
    <path d="M 441.4818184753383,53.89297437423235 C 473.80203930369066,80.82649173119265 484.57544624647477,118.53341603093706 441.4818184753383,161.62704380207353 C 398.3881907042018,118.53341603093706 409.1615976469859,80.82649173119265 441.4818184753383,53.89297437423235 Z" fill="url(#leaf6)" opacity="0.31" transform="rotate(325.2 441.5 107.8)"/>
    <path d="M 1689.3197024388076,570.8104631035469 C 1742.5194122314601,615.143554597424 1760.252648829011,677.2098826888518 1689.3197024388076,748.1428290790552 C 1618.3867560486042,677.2098826888518 1636.119992646155,615.143554597424 1689.3197024388076,570.8104631035469 Z" fill="url(#leaf7)" opacity="0.38" transform="rotate(337.7 1689.3 659.5)"/>
    <path d="M 232.15213301804997,519.3497666948554 C 261.50401381958994,543.8096673628053 271.28797408676996,578.0535282979353 232.15213301804997,617.1893693666552 C 193.01629194932997,578.0535282979353 202.80025221651,543.8096673628053 232.15213301804997,519.3497666948554 Z" fill="url(#leaf8)" opacity="0.24" transform="rotate(81.8 232.2 568.3)"/>
    <path d="M 1735.291107739633,385.09671322214604 C 1795.189241636683,435.01182480302117 1815.155286269033,504.89298101624627 1735.291107739633,584.7571595456465 C 1655.4269292102329,504.89298101624627 1675.392973842583,435.01182480302117 1735.291107739633,385.09671322214604 Z" fill="url(#leaf9)" opacity="0.31" transform="rotate(140.7 1735.3 484.9)"/>
    <path d="M 1815.8814735386256,302.6758207603334 C 1869.2097825957887,347.1160783079694 1886.9858856148433,409.33243887465983 1815.8814735386256,480.43685095087744 C 1744.777061462408,409.33243887465983 1762.5531644814625,347.1160783079694 1815.8814735386256,302.6758207603334 Z" fill="url(#leaf10)" opacity="0.36" transform="rotate(166.0 1815.9 391.6)"/>
    <path d="M 658.1127536562319,566.2562355043158 C 707.7110464066469,607.5881461296616 724.2438106567852,665.4528210051458 658.1127536562319,731.583878005699 C 591.9816966556787,665.4528210051458 608.5144609058169,607.5881461296616 658.1127536562319,566.2562355043158 Z" fill="url(#leaf11)" opacity="0.33" transform="rotate(203.9 658.1 648.9)"/>
    <path d="M 124.91474435408894,172.5955100576208 C 156.2628041707508,198.71889323817234 166.7121574429714,235.2916296909445 124.91474435408894,277.08904277982697 C 83.11733126520647,235.2916296909445 93.5666845374271,198.71889323817234 124.91474435408894,172.5955100576208 Z" fill="url(#leaf12)" opacity="0.40" transform="rotate(192.0 124.9 224.8)"/>
    <path d="M 1008.4967685015641,180.54474912021882 C 1042.5850747226048,208.95167097108597 1053.9478434629516,248.7213615623 1008.4967685015641,294.17243652368745 C 963.0456935401767,248.7213615623 974.4084622805235,208.95167097108597 1008.4967685015641,180.54474912021882 Z" fill="url(#leaf13)" opacity="0.21" transform="rotate(355.9 1008.5 237.4)"/>
    <path d="M 1654.6853597304798,520.9312892510807 C 1702.8137141031186,561.0382512282796 1718.8564988939982,617.187997996358 1654.6853597304798,681.3591371598764 C 1590.5142205669615,617.187997996358 1606.557005357841,561.0382512282796 1654.6853597304798,520.9312892510807 Z" fill="url(#leaf14)" opacity="0.30" transform="rotate(86.6 1654.7 601.1)"/>
  </g>

  <!-- Central star shape -->
  <polygon points="960.0,299.5 1030.7,442.7 1188.7,465.7 1074.4,577.2 1101.4,734.6 960.0,660.3 818.6,734.6 845.6,577.2 731.3,465.7 889.3,442.7" 
           fill="#96E6A1" 
           transform="rotate(343.0 960.0 540.0)"/>
</svg>