<?xml version="1.0" encoding="UTF-8"?>
<svg xmlns="http://www.w3.org/2000/svg" viewBox="0 0 1920 1080" width="1920" height="1080">
  <defs>
    <linearGradient id="bgGrad" x1="0%" y1="0%" x2="100%" y2="100%">
      <stop offset="0%" stop-color="#32CD32"/>
      <stop offset="100%" stop-color="#4ECDC4"/>
    </linearGradient>
    <clipPath id="complexClip"><polygon points="1448.7,540.0 1415.9,594.5 1481.3,670.6 1366.3,706.0 1275.4,737.0 1161.2,736.1 1098.5,779.7 1014.0,828.9 904.2,838.9 809.5,800.5 689.5,803.6 728.3,684.7 677.4,655.5 546.2,643.6 519.4,592.7 470.0,540.0 534.7,489.2 651.7,462.8 607.1,395.8 581.9,303.8 755.7,341.0 796.3,256.6 923.7,345.8 995.4,350.6 1096.7,303.3 1140.0,364.6 1203.8,387.7 1377.4,369.4 1382.8,434.1 1365.4,491.5"/></clipPath>
    <radialGradient id="leaf0" cx="50%" cy="50%" r="70%">
      <stop offset="0%" stop-color="#32CD32"/>
      <stop offset="50%" stop-color="#7B68EE"/>
      <stop offset="100%" stop-color="#00CED1"/>
    </radialGradient>
    <radialGradient id="leaf1" cx="50%" cy="50%" r="70%">
      <stop offset="0%" stop-color="#4ECDC4"/>
      <stop offset="50%" stop-color="#FFE66D"/>
      <stop offset="100%" stop-color="#FFD700"/>
    </radialGradient>
    <radialGradient id="leaf2" cx="50%" cy="50%" r="70%">
      <stop offset="0%" stop-color="#9370DB"/>
      <stop offset="50%" stop-color="#FF1493"/>
      <stop offset="100%" stop-color="#FF4500"/>
    </radialGradient>
    <radialGradient id="leaf3" cx="50%" cy="50%" r="70%">
      <stop offset="0%" stop-color="#45B7D1"/>
      <stop offset="50%" stop-color="#00CED1"/>
      <stop offset="100%" stop-color="#32CD32"/>
    </radialGradient>
    <radialGradient id="leaf4" cx="50%" cy="50%" r="70%">
      <stop offset="0%" stop-color="#FF4500"/>
      <stop offset="50%" stop-color="#FFD700"/>
      <stop offset="100%" stop-color="#FF6B6B"/>
    </radialGradient>
    <radialGradient id="leaf5" cx="50%" cy="50%" r="70%">
      <stop offset="0%" stop-color="#FFE66D"/>
      <stop offset="50%" stop-color="#7B68EE"/>
      <stop offset="100%" stop-color="#FF6B6B"/>
    </radialGradient>
    <radialGradient id="leaf6" cx="50%" cy="50%" r="70%">
      <stop offset="0%" stop-color="#FFE66D"/>
      <stop offset="50%" stop-color="#FF6B6B"/>
      <stop offset="100%" stop-color="#7B68EE"/>
    </radialGradient>
    <radialGradient id="leaf7" cx="50%" cy="50%" r="70%">
      <stop offset="0%" stop-color="#FF69B4"/>
      <stop offset="50%" stop-color="#FFE66D"/>
      <stop offset="100%" stop-color="#00CED1"/>
    </radialGradient>
    <radialGradient id="leaf8" cx="50%" cy="50%" r="70%">
      <stop offset="0%" stop-color="#DC143C"/>
      <stop offset="50%" stop-color="#00FA9A"/>
      <stop offset="100%" stop-color="#00CED1"/>
    </radialGradient>
    <radialGradient id="leaf9" cx="50%" cy="50%" r="70%">
      <stop offset="0%" stop-color="#00CED1"/>
      <stop offset="50%" stop-color="#DC143C"/>
      <stop offset="100%" stop-color="#FF4500"/>
    </radialGradient>
    <radialGradient id="leaf10" cx="50%" cy="50%" r="70%">
      <stop offset="0%" stop-color="#7B68EE"/>
      <stop offset="50%" stop-color="#00FA9A"/>
      <stop offset="100%" stop-color="#32CD32"/>
    </radialGradient>
    <radialGradient id="leaf11" cx="50%" cy="50%" r="70%">
      <stop offset="0%" stop-color="#DC143C"/>
      <stop offset="50%" stop-color="#7B68EE"/>
      <stop offset="100%" stop-color="#00CED1"/>
    </radialGradient>
    <radialGradient id="leaf12" cx="50%" cy="50%" r="70%">
      <stop offset="0%" stop-color="#7B68EE"/>
      <stop offset="50%" stop-color="#FF6B6B"/>
      <stop offset="100%" stop-color="#FF4500"/>
    </radialGradient>
    <radialGradient id="leaf13" cx="50%" cy="50%" r="70%">
      <stop offset="0%" stop-color="#FF6B6B"/>
      <stop offset="50%" stop-color="#FF4500"/>
      <stop offset="100%" stop-color="#FFD700"/>
    </radialGradient>
    <radialGradient id="leaf14" cx="50%" cy="50%" r="70%">
      <stop offset="0%" stop-color="#00CED1"/>
      <stop offset="50%" stop-color="#4ECDC4"/>
      <stop offset="100%" stop-color="#45B7D1"/>
    </radialGradient>
    <radialGradient id="leaf15" cx="50%" cy="50%" r="70%">
      <stop offset="0%" stop-color="#4ECDC4"/>
      <stop offset="50%" stop-color="#FFD700"/>
      <stop offset="100%" stop-color="#FF6B6B"/>
    </radialGradient>
    <radialGradient id="leaf16" cx="50%" cy="50%" r="70%">
      <stop offset="0%" stop-color="#FF1493"/>
      <stop offset="50%" stop-color="#4ECDC4"/>
      <stop offset="100%" stop-color="#FF4500"/>
    </radialGradient>
    <radialGradient id="leaf17" cx="50%" cy="50%" r="70%">
      <stop offset="0%" stop-color="#FF6B6B"/>
      <stop offset="50%" stop-color="#FFD700"/>
      <stop offset="100%" stop-color="#FF69B4"/>
    </radialGradient>
    <radialGradient id="leaf18" cx="50%" cy="50%" r="70%">
      <stop offset="0%" stop-color="#9370DB"/>
      <stop offset="50%" stop-color="#FF69B4"/>
      <stop offset="100%" stop-color="#FF1493"/>
    </radialGradient>
    <radialGradient id="leaf19" cx="50%" cy="50%" r="70%">
      <stop offset="0%" stop-color="#9370DB"/>
      <stop offset="50%" stop-color="#4ECDC4"/>
      <stop offset="100%" stop-color="#00CED1"/>
    </radialGradient>
  </defs>

  <!-- Background -->
  <rect width="1920" height="1080" fill="url(#bgGrad)"/>
  
  <!-- Leaves with clip-path -->
  <g clip-path="url(#complexClip)">
    <path d="M 1485.3702982687075,107.76271845427819 C 1525.842893698073,141.4898813120828 1539.3337588411948,188.70790931300925 1485.3702982687075,242.67136988549663 C 1431.4068376962202,188.70790931300925 1444.897702839342,141.4898813120828 1485.3702982687075,107.76271845427819 Z" fill="url(#leaf0)" opacity="0.35" transform="rotate(308.6 1485.4 175.2)"/>
    <path d="M 1104.488091900437,486.320213019279 C 1145.2944168521071,520.3254838123374 1158.8965251693307,567.9328629226194 1104.488091900437,622.341296191513 C 1050.0796586315432,567.9328629226194 1063.6817669487668,520.3254838123374 1104.488091900437,486.320213019279 Z" fill="url(#leaf1)" opacity="0.24" transform="rotate(64.9 1104.5 554.3)"/>
    <path d="M 1564.346378938527,573.191232617084 C 1606.8827783302088,608.6382321101521 1621.061578127436,658.2640314004475 1564.346378938527,714.9792305893565 C 1507.6311797496182,658.2640314004475 1521.8099795468454,608.6382321101521 1564.346378938527,573.191232617084 Z" fill="url(#leaf2)" opacity="0.22" transform="rotate(179.9 1564.3 644.1)"/>
    <path d="M 1215.8574134400064,902.8294852993022 C 1256.7962326299444,936.9451679575839 1270.442505693257,984.707123679178 1215.8574134400064,1039.2922159324287 C 1161.2723211867558,984.707123679178 1174.9185942500685,936.9451679575839 1215.8574134400064,902.8294852993022 Z" fill="url(#leaf3)" opacity="0.38" transform="rotate(95.8 1215.9 971.1)"/>
    <path d="M 1678.6220852641454,527.8118327061861 C 1718.373982172849,560.9384134634392 1731.6246144757504,607.3156265235937 1678.6220852641454,660.3181557351986 C 1625.6195560525405,607.3156265235937 1638.8701883554418,560.9384134634392 1678.6220852641454,527.8118327061861 Z" fill="url(#leaf4)" opacity="0.36" transform="rotate(78.5 1678.6 594.1)"/>
    <path d="M 1825.4187852808109,54.88420747082057 C 1859.000969033183,82.86936059779734 1870.1950302839737,122.0485749755648 1825.4187852808109,166.82481997872762 C 1780.642540277648,122.0485749755648 1791.8366015284387,82.86936059779734 1825.4187852808109,54.88420747082057 Z" fill="url(#leaf5)" opacity="0.24" transform="rotate(178.8 1825.4 110.9)"/>
    <path d="M 504.0125745186487,853.0893166083058 C 559.82992833217,899.6037781195736 578.4357129366771,964.7240242353485 504.0125745186487,1039.1471626533769 C 429.5894361006203,964.7240242353485 448.1952207051274,899.6037781195736 504.0125745186487,853.0893166083058 Z" fill="url(#leaf6)" opacity="0.26" transform="rotate(222.6 504.0 946.1)"/>
    <path d="M 685.6521736501597,116.51928243656302 C 718.923617928764,144.24548600206657 730.0140993549654,183.06217099377156 685.6521736501597,227.42409669857727 C 641.290247945354,183.06217099377156 652.3807293715555,144.24548600206657 685.6521736501597,116.51928243656302 Z" fill="url(#leaf7)" opacity="0.25" transform="rotate(47.9 685.7 172.0)"/>
    <path d="M 1324.2581110444337,567.9072025763319 C 1352.6138334062884,591.5369712112108 1362.06574086024,624.6186473000413 1324.2581110444337,662.4262771158476 C 1286.4504812286273,624.6186473000413 1295.902388682579,591.5369712112108 1324.2581110444337,567.9072025763319 Z" fill="url(#leaf8)" opacity="0.26" transform="rotate(82.2 1324.3 615.2)"/>
    <path d="M 1264.4299142900202,31.143929767303035 C 1318.1077110884546,75.87542709933179 1336.0003100212662,138.49952336417203 1264.4299142900202,210.06991909541804 C 1192.8595185587742,138.49952336417203 1210.7521174915858,75.87542709933179 1264.4299142900202,31.143929767303035 Z" fill="url(#leaf9)" opacity="0.34" transform="rotate(227.7 1264.4 120.6)"/>
    <path d="M 1694.141970392068,73.79207852041783 C 1719.8881435124501,95.24722278740285 1728.470201219244,125.28442476118185 1694.141970392068,159.61265558835788 C 1659.813739564892,125.28442476118185 1668.395797271686,95.24722278740285 1694.141970392068,73.79207852041783 Z" fill="url(#leaf10)" opacity="0.40" transform="rotate(134.4 1694.1 116.7)"/>
    <path d="M 1602.7010366176755,362.62078297344425 C 1639.3748164066742,393.18226613094316 1651.5994096696738,435.96834255144165 1602.7010366176755,484.8667156034399 C 1553.8026635656772,435.96834255144165 1566.0272568286769,393.18226613094316 1602.7010366176755,362.62078297344425 Z" fill="url(#leaf11)" opacity="0.23" transform="rotate(220.1 1602.7 423.7)"/>
    <path d="M 884.1490420154888,395.5864380903541 C 929.6259968419052,433.4839004457011 944.784981784044,486.54034774318694 884.1490420154888,547.1762875117422 C 823.5131022469336,486.54034774318694 838.6720871890724,433.4839004457011 884.1490420154888,395.5864380903541 Z" fill="url(#leaf12)" opacity="0.31" transform="rotate(26.3 884.1 471.4)"/>
    <path d="M 1000.8690873407584,724.5461202454433 C 1046.988023183621,762.978566781162 1062.3610017979086,816.7839919311684 1000.8690873407584,878.2759063883186 C 939.3771728836082,816.7839919311684 954.7501514978958,762.978566781162 1000.8690873407584,724.5461202454433 Z" fill="url(#leaf13)" opacity="0.35" transform="rotate(35.6 1000.9 801.4)"/>
    <path d="M 586.7898104453362,320.718362294098 C 630.3474789920671,357.0164194163736 644.8667018409773,407.83369938755953 586.7898104453362,465.9105907832006 C 528.7129190496952,407.83369938755953 543.2321418986054,357.0164194163736 586.7898104453362,320.718362294098 Z" fill="url(#leaf14)" opacity="0.25" transform="rotate(165.6 586.8 393.3)"/>
    <path d="M 461.80274915015815,815.7814372445013 C 495.5547494777474,843.9081041841589 506.8054162536105,883.2854378996798 461.80274915015815,928.288105003132 C 416.8000820467058,883.2854378996798 428.0507488225689,843.9081041841589 461.80274915015815,815.7814372445013 Z" fill="url(#leaf15)" opacity="0.40" transform="rotate(138.2 461.8 872.0)"/>
    <path d="M 1640.5767239136192,772.757634260443 C 1665.4904968223427,793.5191116843793 1673.7950877919172,822.5851800778901 1640.5767239136192,855.8035439561882 C 1607.358360035321,822.5851800778901 1615.6629510048956,793.5191116843793 1640.5767239136192,772.757634260443 Z" fill="url(#leaf16)" opacity="0.37" transform="rotate(288.5 1640.6 814.3)"/>
    <path d="M 827.2270171324632,210.41999722210073 C 869.9848660860101,246.0515380167232 884.2374824038592,295.9356951291947 827.2270171324632,352.94616040059066 C 770.2165518610672,295.9356951291947 784.4691681789162,246.0515380167232 827.2270171324632,210.41999722210073 Z" fill="url(#leaf17)" opacity="0.30" transform="rotate(225.6 827.2 281.7)"/>
    <path d="M 1724.6912864404899,433.4413215925366 C 1762.5333288156828,464.97635690519746 1775.1473429407472,509.12540634292264 1724.6912864404899,559.58146284318 C 1674.2352299402326,509.12540634292264 1686.849244065297,464.97635690519746 1724.6912864404899,433.4413215925366 Z" fill="url(#leaf18)" opacity="0.36" transform="rotate(156.2 1724.7 496.5)"/>
    <path d="M 158.29345708419413,577.0691654912042 C 210.50489680141155,620.5786985888853 227.90871004048404,681.4920449256391 158.29345708419413,751.107297881929 C 88.67820412790424,681.4920449256391 106.08201736697671,620.5786985888853 158.29345708419413,577.0691654912042 Z" fill="url(#leaf19)" opacity="0.22" transform="rotate(166.9 158.3 664.1)"/>
    <path d="M 1865.8204704330835,548.8765029479003 C 1920.179073146364,594.1753385423008 1938.2986073841241,657.5937083744614 1865.8204704330835,730.0718453255021 C 1793.342333482043,657.5937083744614 1811.461867719803,594.1753385423008 1865.8204704330835,548.8765029479003 Z" fill="url(#leaf0)" opacity="0.20" transform="rotate(189.2 1865.8 639.5)"/>
    <path d="M 92.33963509560988,233.37443715851612 C 147.09660634215933,279.00524653064065 165.34893009100915,342.88837965161497 92.33963509560988,415.89767464701424 C 19.33034010021062,342.88837965161497 37.58266384906043,279.00524653064065 92.33963509560988,233.37443715851612 Z" fill="url(#leaf1)" opacity="0.40" transform="rotate(176.0 92.3 324.6)"/>
    <path d="M 403.7351846524391,185.58776006835973 C 429.09769264950137,206.72318339924496 437.55186198185544,236.31277606248426 403.7351846524391,270.1294533919006 C 369.91850732302277,236.31277606248426 378.37267665537684,206.72318339924496 403.7351846524391,185.58776006835973 Z" fill="url(#leaf2)" opacity="0.24" transform="rotate(105.6 403.7 227.9)"/>
    <path d="M 342.4263487132289,85.56925858455799 C 391.06212295575796,126.09907045333219 407.2740477032676,182.84080706961606 342.4263487132289,247.6885060596548 C 277.57864972319015,182.84080706961606 293.7905744706998,126.09907045333219 342.4263487132289,85.56925858455799 Z" fill="url(#leaf3)" opacity="0.29" transform="rotate(225.8 342.4 166.6)"/>
    <path d="M 1805.0293962078324,733.5394998662897 C 1862.2763623796884,781.245305009503 1881.3586844369738,848.0334322100016 1805.0293962078324,924.3627204391429 C 1728.700107978691,848.0334322100016 1747.7824300359764,781.245305009503 1805.0293962078324,733.5394998662897 Z" fill="url(#leaf4)" opacity="0.36" transform="rotate(203.2 1805.0 829.0)"/>
    <path d="M 1322.7907667417276,663.1946844185017 C 1375.6851439041532,707.2733320538564 1393.316602958295,768.9834387433528 1322.7907667417276,839.5092749599204 C 1252.26493052516,768.9834387433528 1269.896389579302,707.2733320538564 1322.7907667417276,663.1946844185017 Z" fill="url(#leaf5)" opacity="0.37" transform="rotate(262.0 1322.8 751.4)"/>
    <path d="M 1638.8863479976658,635.2489957870993 C 1680.4791428879425,669.9096581956634 1694.3434078513683,718.434585567653 1638.8863479976658,773.8916454213555 C 1583.4292881439633,718.434585567653 1597.293553107389,669.9096581956634 1638.8863479976658,635.2489957870993 Z" fill="url(#leaf6)" opacity="0.26" transform="rotate(67.4 1638.9 704.6)"/>
    <path d="M 1088.049360806773,385.3171397937655 C 1132.7655582022023,422.58063762328993 1147.670957334012,474.7495345846241 1088.049360806773,534.3711311118632 C 1028.427764279534,474.7495345846241 1043.3331634113435,422.58063762328993 1088.049360806773,385.3171397937655 Z" fill="url(#leaf7)" opacity="0.26" transform="rotate(344.5 1088.0 459.8)"/>
    <path d="M 190.4553441043841,266.3013626848551 C 234.46493941745746,302.9760254457496 249.13480452181525,354.32055331100185 190.4553441043841,413.00001372843303 C 131.77588368695294,354.32055331100185 146.44574879131073,302.9760254457496 190.4553441043841,266.3013626848551 Z" fill="url(#leaf8)" opacity="0.24" transform="rotate(277.6 190.5 339.7)"/>
    <path d="M 1340.0671091271315,614.7261387036327 C 1367.135154507604,637.28284318736 1376.157836301095,668.8622294645779 1340.0671091271315,704.9529566385414 C 1303.9763819531681,668.8622294645779 1312.999063746659,637.28284318736 1340.0671091271315,614.7261387036327 Z" fill="url(#leaf9)" opacity="0.22" transform="rotate(196.4 1340.1 659.8)"/>
    <path d="M 1378.7785457053412,277.9973789607083 C 1430.3357430149445,320.9617100520443 1447.5214754514789,381.11177357991465 1378.7785457053412,449.8547033260522 C 1310.0356159592036,381.11177357991465 1327.221348395738,320.9617100520443 1378.7785457053412,277.9973789607083 Z" fill="url(#leaf10)" opacity="0.27" transform="rotate(219.4 1378.8 363.9)"/>
    <path d="M 795.7016382273634,392.9966867996368 C 824.0977373944504,416.66010277220926 833.5631037834795,449.78888513381077 795.7016382273634,487.65035068992677 C 757.8401726712474,449.78888513381077 767.3055390602765,416.66010277220926 795.7016382273634,392.9966867996368 Z" fill="url(#leaf11)" opacity="0.39" transform="rotate(222.1 795.7 440.3)"/>
    <path d="M 1512.733693274648,825.6398438541466 C 1540.0668031221592,848.4174353937394 1549.1778397379965,880.3060635491693 1512.733693274648,916.7502100125178 C 1476.2895468112995,880.3060635491693 1485.4005834271368,848.4174353937394 1512.733693274648,825.6398438541466 Z" fill="url(#leaf12)" opacity="0.36" transform="rotate(174.1 1512.7 871.2)"/>
    <path d="M 1287.1132182919214,328.3891147428683 C 1338.5448822481308,371.2488347063761 1355.688770233534,431.25244265528704 1287.1132182919214,499.82799459689954 C 1218.5376663503089,431.25244265528704 1235.681554335712,371.2488347063761 1287.1132182919214,328.3891147428683 Z" fill="url(#leaf13)" opacity="0.38" transform="rotate(144.8 1287.1 414.1)"/>
    <path d="M 1598.1771016355906,977.9909174424312 C 1624.0498343182906,999.5515280113478 1632.6740785458571,1029.7363828078312 1598.1771016355906,1064.2333597180977 C 1563.680124725324,1029.7363828078312 1572.3043689528906,999.5515280113478 1598.1771016355906,977.9909174424312 Z" fill="url(#leaf14)" opacity="0.24" transform="rotate(287.1 1598.2 1021.1)"/>
    <path d="M 878.2494098668965,529.6166497377104 C 936.5360795273808,578.1888744547807 955.964969414209,646.1899890586791 878.2494098668965,723.9055486059916 C 800.533850319584,646.1899890586791 819.9627402064121,578.1888744547807 878.2494098668965,529.6166497377104 Z" fill="url(#leaf15)" opacity="0.37" transform="rotate(153.0 878.2 626.8)"/>
    <path d="M 569.7210262714581,381.9056489853287 C 622.5518363951967,425.93132408844417 640.1621064364429,487.5672692328059 569.7210262714581,558.0083493977907 C 499.2799461064733,487.5672692328059 516.8902161477195,425.93132408844417 569.7210262714581,381.9056489853287 Z" fill="url(#leaf16)" opacity="0.35" transform="rotate(157.7 569.7 470.0)"/>
    <path d="M 154.23701172148475,797.2361656917818 C 188.88258390120333,826.1074758415473 200.43110796110955,866.5273100512189 154.23701172148475,912.7214062908437 C 108.04291548185996,866.5273100512189 119.59143954176616,826.1074758415473 154.23701172148475,797.2361656917818 Z" fill="url(#leaf17)" opacity="0.30" transform="rotate(148.7 154.2 855.0)"/>
    <path d="M 775.7966822363076,651.3950966271916 C 831.9053755401854,698.1523410470899 850.6082733081448,763.6124832349474 775.7966822363076,838.4240743067846 C 700.9850911644703,763.6124832349474 719.6879889324297,698.1523410470899 775.7966822363076,651.3950966271916 Z" fill="url(#leaf18)" opacity="0.21" transform="rotate(131.5 775.8 744.9)"/>
    <path d="M 1333.639242349158,837.7336265892101 C 1379.5399324671744,875.9842016875571 1394.840162506513,929.5350068252428 1333.639242349158,990.735926982598 C 1272.4383221918029,929.5350068252428 1287.7385522311415,875.9842016875571 1333.639242349158,837.7336265892101 Z" fill="url(#leaf19)" opacity="0.27" transform="rotate(331.9 1333.6 914.2)"/>
    <path d="M 1791.612131027596,452.7577721255572 C 1838.9363190915483,492.19459551218404 1854.711048446199,547.4061482534617 1791.612131027596,610.5050656720646 C 1728.513213608993,547.4061482534617 1744.2879429636437,492.19459551218404 1791.612131027596,452.7577721255572 Z" fill="url(#leaf0)" opacity="0.31" transform="rotate(130.8 1791.6 531.6)"/>
    <path d="M 1799.7073029920914,575.0082447185264 C 1840.518774686618,609.0178044639651 1854.1225985847934,656.6311881075794 1799.7073029920914,711.0464837002814 C 1745.2920073993894,656.6311881075794 1758.8958312975649,609.0178044639651 1799.7073029920914,575.0082447185264 Z" fill="url(#leaf1)" opacity="0.30" transform="rotate(206.5 1799.7 643.0)"/>
    <path d="M 1022.074666009299,721.462353658777 C 1056.607120529821,750.2393990925453 1068.1179387033285,790.5272626998211 1022.074666009299,836.5705353938505 C 976.0313933152696,790.5272626998211 987.542211488777,750.2393990925453 1022.074666009299,721.462353658777 Z" fill="url(#leaf2)" opacity="0.35" transform="rotate(16.3 1022.1 779.0)"/>
    <path d="M 474.9088519811357,719.2919046823214 C 505.2238479365318,744.5544013118181 515.3288465883305,779.9218965931136 474.9088519811357,820.3418912003084 C 434.48885737394085,779.9218965931136 444.59385602573957,744.5544013118181 474.9088519811357,719.2919046823214 Z" fill="url(#leaf3)" opacity="0.36" transform="rotate(27.1 474.9 769.8)"/>
    <path d="M 1767.778143646307,98.99340099374342 C 1794.2810742806187,121.07917652233655 1803.115384492056,151.99926226236693 1767.778143646307,187.33650310811595 C 1732.440902800558,151.99926226236693 1741.2752130119952,121.07917652233655 1767.778143646307,98.99340099374342 Z" fill="url(#leaf4)" opacity="0.23" transform="rotate(87.1 1767.8 143.2)"/>
    <path d="M 807.9366127451941,306.3770176660337 C 859.3963392072613,349.2601230510897 876.5495813612838,409.2964705901681 807.9366127451941,477.90943920625773 C 739.3236441291044,409.2964705901681 756.4768862831269,349.2601230510897 807.9366127451941,306.3770176660337 Z" fill="url(#leaf5)" opacity="0.28" transform="rotate(101.9 807.9 392.1)"/>
    <path d="M 1139.0688941047902,294.8385109067035 C 1171.9491083813139,322.2386894704733 1182.9091798068218,360.59893945975097 1139.0688941047902,404.4392251617826 C 1095.2286084027585,360.59893945975097 1106.1886798282665,322.2386894704733 1139.0688941047902,294.8385109067035 Z" fill="url(#leaf6)" opacity="0.31" transform="rotate(268.8 1139.1 349.6)"/>
    <path d="M 765.8445426238602,635.0513026309494 C 798.6576996995854,662.3956001940536 809.595418724827,700.6776167823996 765.8445426238602,744.4284928833664 C 722.0936665228934,700.6776167823996 733.0313855481351,662.3956001940536 765.8445426238602,635.0513026309494 Z" fill="url(#leaf7)" opacity="0.27" transform="rotate(2.1 765.8 689.7)"/>
    <path d="M 953.5814162649563,101.35057710622688 C 996.2874292781175,136.9389212838613 1010.5227669491713,186.76260313254951 953.5814162649563,243.70395381676462 C 896.6400655807412,186.76260313254951 910.875403251795,136.9389212838613 953.5814162649563,101.35057710622688 Z" fill="url(#leaf8)" opacity="0.30" transform="rotate(101.0 953.6 172.5)"/>
    <path d="M 871.8827242469955,85.78069326659842 C 918.5669076366619,124.6841794246537 934.128302099884,179.14906004593112 871.8827242469955,241.3946378988196 C 809.637146394107,179.14906004593112 825.1985408573291,124.6841794246537 871.8827242469955,85.78069326659842 Z" fill="url(#leaf9)" opacity="0.32" transform="rotate(193.6 871.9 163.6)"/>
    <path d="M 1247.2811753700737,209.54978727425055 C 1288.8049951038915,244.15297038576534 1302.6462683484974,292.59742674188607 1247.2811753700737,347.96251972030973 C 1191.91608239165,292.59742674188607 1205.7573556362559,244.15297038576534 1247.2811753700737,209.54978727425055 Z" fill="url(#leaf10)" opacity="0.21" transform="rotate(70.8 1247.3 278.8)"/>
    <path d="M 1289.4460755296589,736.7936338517519 C 1349.013700844643,786.4333216142386 1368.8695759496377,855.9288844817199 1289.4460755296589,935.3523849016987 C 1210.02257510968,855.9288844817199 1229.8784502146748,786.4333216142386 1289.4460755296589,736.7936338517519 Z" fill="url(#leaf11)" opacity="0.28" transform="rotate(21.8 1289.4 836.1)"/>
    <path d="M 1326.3851365896342,92.03752052169851 C 1370.301766847468,128.63471240322664 1384.940643600079,179.87078103736602 1326.3851365896342,238.426288047811 C 1267.8296295791893,179.87078103736602 1282.4685063318004,128.63471240322664 1326.3851365896342,92.03752052169851 Z" fill="url(#leaf12)" opacity="0.22" transform="rotate(103.8 1326.4 165.2)"/>
    <path d="M 1549.2935776212043,835.9025328170959 C 1586.2293535141712,866.682346061235 1598.541278811827,909.7740846030297 1549.2935776212043,959.0217857936522 C 1500.0458764305818,909.7740846030297 1512.3578017282375,866.682346061235 1549.2935776212043,835.9025328170959 Z" fill="url(#leaf13)" opacity="0.32" transform="rotate(163.7 1549.3 897.5)"/>
    <path d="M 410.8976696472648,810.1706492399105 C 457.2670457970868,848.8117960314289 472.72350451369414,902.9094015395546 410.8976696472648,964.7352364059839 C 349.0718347808355,902.9094015395546 364.52829349744286,848.8117960314289 410.8976696472648,810.1706492399105 Z" fill="url(#leaf14)" opacity="0.34" transform="rotate(330.0 410.9 887.5)"/>
    <path d="M 1035.3651696406305,885.3226685852557 C 1092.434628882145,932.8805512865177 1111.45778196265,999.4615870682848 1035.3651696406305,1075.5541993903043 C 959.272557318611,999.4615870682848 978.2957103991159,932.8805512865177 1035.3651696406305,885.3226685852557 Z" fill="url(#leaf15)" opacity="0.30" transform="rotate(183.4 1035.4 980.4)"/>
    <path d="M 568.871763389138,806.2953747899747 C 625.8200426868915,853.7522742047694 644.8028024528094,920.1919333854819 568.871763389138,996.1229724491533 C 492.9407243254666,920.1919333854819 511.92348409138447,853.7522742047694 568.871763389138,806.2953747899747 Z" fill="url(#leaf16)" opacity="0.23" transform="rotate(287.6 568.9 901.2)"/>
    <path d="M 1443.6508933847572,858.8760523301553 C 1496.9339763637586,903.2786214793232 1514.6950040234258,965.4422182881581 1443.6508933847572,1036.4863289268267 C 1372.6067827460886,965.4422182881581 1390.3678104057558,903.2786214793232 1443.6508933847572,858.8760523301553 Z" fill="url(#leaf17)" opacity="0.30" transform="rotate(39.1 1443.7 947.7)"/>
    <path d="M 759.1123615879246,430.8452648290132 C 798.8229827769187,463.9374491531749 812.0598565065834,510.2665072070013 759.1123615879246,563.21400212566 C 706.1648666692658,510.2665072070013 719.4017403989305,463.9374491531749 759.1123615879246,430.8452648290132 Z" fill="url(#leaf18)" opacity="0.38" transform="rotate(76.3 759.1 497.0)"/>
    <path d="M 665.9064646453597,40.72185693325768 C 692.2621300538823,62.684911440359805 701.0473518567231,93.43318775030278 665.9064646453597,128.57407496166616 C 630.7655774339963,93.43318775030278 639.5507992368372,62.684911440359805 665.9064646453597,40.72185693325768 Z" fill="url(#leaf19)" opacity="0.30" transform="rotate(47.8 665.9 84.6)"/>
    <path d="M 1065.0568638682826,75.3648912198072 C 1111.7804074473495,114.30117753569627 1127.3549219737051,168.811978377941 1065.0568638682826,231.1100364833635 C 1002.75880576286,168.811978377941 1018.3333202892156,114.30117753569627 1065.0568638682826,75.3648912198072 Z" fill="url(#leaf0)" opacity="0.39" transform="rotate(18.6 1065.1 153.2)"/>
    <path d="M 943.3620522687988,884.6075828976375 C 988.4154177580424,922.1520541386737 1003.4332062544569,974.7143138761245 943.3620522687988,1034.7854678617825 C 883.2908982831408,974.7143138761245 898.3086867795553,922.1520541386737 943.3620522687988,884.6075828976375 Z" fill="url(#leaf1)" opacity="0.33" transform="rotate(311.2 943.4 959.7)"/>
    <path d="M 1003.3540719705388,958.0182288358756 C 1033.6002834929973,983.2234051045909 1043.6823540004834,1018.5106518807925 1003.3540719705388,1058.838933910737 C 963.0257899405942,1018.5106518807925 973.1078604480804,983.2234051045909 1003.3540719705388,958.0182288358756 Z" fill="url(#leaf2)" opacity="0.40" transform="rotate(308.3 1003.4 1008.4)"/>
    <path d="M 1707.1813954462534,37.58150269847023 C 1755.5233954184907,77.8665026753347 1771.6373954092367,134.26550264294497 1707.1813954462534,198.7215026059281 C 1642.7253954832702,134.26550264294497 1658.839395474016,77.8665026753347 1707.1813954462534,37.58150269847023 Z" fill="url(#leaf3)" opacity="0.30" transform="rotate(280.0 1707.2 118.2)"/>
    <path d="M 1565.3617589416824,334.6109520480117 C 1595.3243791369337,359.57980221072114 1605.3119192020174,394.5361924385143 1565.3617589416824,434.48635269884943 C 1525.4115986813474,394.5361924385143 1535.3991387464312,359.57980221072114 1565.3617589416824,334.6109520480117 Z" fill="url(#leaf4)" opacity="0.31" transform="rotate(186.1 1565.4 384.5)"/>
    <path d="M 1756.5187041964361,509.0142954610437 C 1790.7538484194877,537.5435823135866 1802.165563160505,577.4845839071467 1756.5187041964361,623.1314428712153 C 1710.8718452323674,577.4845839071467 1722.2835599733846,537.5435823135866 1756.5187041964361,509.0142954610437 Z" fill="url(#leaf5)" opacity="0.25" transform="rotate(275.5 1756.5 566.1)"/>
    <path d="M 424.5784189105984,135.8577962863538 C 480.3430257483412,182.3283019844728 498.93122802758876,247.3870099618394 424.5784189105984,321.7398190788298 C 350.225609793608,247.3870099618394 368.81381207285557,182.3283019844728 424.5784189105984,135.8577962863538 Z" fill="url(#leaf6)" opacity="0.27" transform="rotate(242.4 424.6 228.8)"/>
    <path d="M 489.4063844364427,591.8844533690243 C 538.9250750654702,633.1500288932139 555.431305275146,690.9218346270792 489.4063844364427,756.9467554657825 C 423.3814635977394,690.9218346270792 439.88769380741525,633.1500288932139 489.4063844364427,591.8844533690243 Z" fill="url(#leaf7)" opacity="0.39" transform="rotate(357.5 489.4 674.4)"/>
    <path d="M 1631.6632605107638,644.9566993964924 C 1655.7797756386474,665.0537953363953 1663.8186140146086,693.1897296522594 1631.6632605107638,725.3450831561041 C 1599.5079070069191,693.1897296522594 1607.5467453828803,665.0537953363953 1631.6632605107638,644.9566993964924 Z" fill="url(#leaf8)" opacity="0.29" transform="rotate(162.5 1631.7 685.2)"/>
    <path d="M 1494.4496090991345,-35.678439499361474 C 1552.2954690555753,12.52644379767257 1571.577422374389,80.01328041352023 1494.4496090991345,157.1410936887747 C 1417.32179582388,80.01328041352023 1436.6037491426937,12.52644379767257 1494.4496090991345,-35.678439499361474 Z" fill="url(#leaf9)" opacity="0.37" transform="rotate(169.1 1494.4 60.7)"/>
    <path d="M 1624.1666211228714,219.81976025353555 C 1662.2632861447878,251.56698110513256 1674.9621744854267,296.01309029736836 1624.1666211228714,346.8086436599236 C 1573.3710677603162,296.01309029736836 1586.069956100955,251.56698110513256 1624.1666211228714,219.81976025353555 Z" fill="url(#leaf10)" opacity="0.35" transform="rotate(359.5 1624.2 283.3)"/>
    <path d="M 231.85633992020846,3.22599450264282 C 271.9969244391679,36.676481601775706 285.37711927882106,83.50716354056175 231.85633992020846,137.02794289917438 C 178.33556056159583,83.50716354056175 191.715755401249,36.676481601775706 231.85633992020846,3.22599450264282 Z" fill="url(#leaf11)" opacity="0.27" transform="rotate(220.5 231.9 70.1)"/>
    <path d="M 545.2734640585952,806.4691867228454 C 598.0821017289301,850.4763847814577 615.684980952375,912.086462063515 545.2734640585952,982.4979789572948 C 474.86194716481543,912.086462063515 492.46482638826035,850.4763847814577 545.2734640585952,806.4691867228454 Z" fill="url(#leaf12)" opacity="0.21" transform="rotate(191.8 545.3 894.5)"/>
    <path d="M 344.2195687198869,183.98684980105313 C 375.4493535435256,210.01167048741868 385.85928181807185,246.44641944833046 344.2195687198869,288.0861325465154 C 302.579855621702,246.44641944833046 312.98978389624824,210.01167048741868 344.2195687198869,183.98684980105313 Z" fill="url(#leaf13)" opacity="0.23" transform="rotate(313.1 344.2 236.0)"/>
    <path d="M 1550.9537869160347,127.34084685522363 C 1599.1066957751605,167.4682709044951 1615.1576653948691,223.64666457347516 1550.9537869160347,287.85054305230955 C 1486.7499084372002,223.64666457347516 1502.800878056909,167.4682709044951 1550.9537869160347,127.34084685522363 Z" fill="url(#leaf14)" opacity="0.33" transform="rotate(182.5 1551.0 207.6)"/>
    <path d="M 1810.3690394322057,11.1840351583552 C 1867.2746317236524,58.605362067894184 1886.243162487468,124.99521974124876 1810.3690394322057,200.86934279651115 C 1734.4949163769434,124.99521974124876 1753.463447140759,58.605362067894184 1810.3690394322057,11.1840351583552 Z" fill="url(#leaf15)" opacity="0.24" transform="rotate(190.5 1810.4 106.0)"/>
    <path d="M 365.5954780581234,-17.234071918763263 C 421.84636612098126,29.641668133618296 440.59666214193385,95.26770420695249 365.5954780581234,170.26888829076296 C 290.5942939743129,95.26770420695249 309.3445899952655,29.641668133618296 365.5954780581234,-17.234071918763263 Z" fill="url(#leaf16)" opacity="0.21" transform="rotate(340.2 365.6 76.5)"/>
    <path d="M 94.5268859314059,818.5307912545578 C 118.72105698637522,838.6926004670323 126.78578067136499,866.9191333644965 94.5268859314059,899.1780281044556 C 62.26799119144682,866.9191333644965 70.33271487643658,838.6926004670323 94.5268859314059,818.5307912545578 Z" fill="url(#leaf17)" opacity="0.24" transform="rotate(12.5 94.5 858.9)"/>
    <path d="M 385.3559899003245,753.5835111625041 C 429.31710282825657,790.2177719357808 443.97080713756725,841.5057370183682 385.3559899003245,900.120554255611 C 326.7411726630818,841.5057370183682 341.39487697239247,790.2177719357808 385.3559899003245,753.5835111625041 Z" fill="url(#leaf18)" opacity="0.40" transform="rotate(67.5 385.4 826.9)"/>
    <path d="M 601.1538178390215,349.52514438812403 C 625.8779714770573,370.1286057531539 634.1193560230693,398.9734516641957 601.1538178390215,431.93898984824347 C 568.1882796549737,398.9734516641957 576.4296642009857,370.1286057531539 601.1538178390215,349.52514438812403 Z" fill="url(#leaf19)" opacity="0.30" transform="rotate(316.1 601.2 390.7)"/>
    <path d="M 272.4809045856491,434.4025394857861 C 303.14291359122166,459.9542136570966 313.36358325974584,495.7265574969312 272.4809045856491,536.609236171028 C 231.5982259115524,495.7265574969312 241.81889558007657,459.9542136570966 272.4809045856491,434.4025394857861 Z" fill="url(#leaf0)" opacity="0.25" transform="rotate(332.3 272.5 485.5)"/>
    <path d="M 1398.907052177358,857.9228372750722 C 1432.227801367882,885.6901282671754 1443.3347177647233,924.56433565612 1398.907052177358,968.9920012434852 C 1354.4793865899928,924.56433565612 1365.5863029868342,885.6901282671754 1398.907052177358,857.9228372750722 Z" fill="url(#leaf1)" opacity="0.39" transform="rotate(195.4 1398.9 913.5)"/>
    <path d="M 762.4874471115587,269.79359393968554 C 789.8705273427752,292.6128274656993 798.9982207531807,324.5597544021186 762.4874471115587,361.0705280437406 C 725.9766734699367,324.5597544021186 735.1043668803422,292.6128274656993 762.4874471115587,269.79359393968554 Z" fill="url(#leaf2)" opacity="0.26" transform="rotate(103.4 762.5 315.4)"/>
    <path d="M 1384.4596966627662,691.8321719256774 C 1436.43451191105,735.1445179659138 1453.7594503271446,795.7818024222449 1384.4596966627662,865.0815560866233 C 1315.1599429983878,795.7818024222449 1332.4848814144823,735.1445179659138 1384.4596966627662,691.8321719256774 Z" fill="url(#leaf3)" opacity="0.23" transform="rotate(112.4 1384.5 778.5)"/>
    <path d="M 143.20050348031566,23.992844204748167 C 189.69614063665023,62.73920850169365 205.19468635542844,116.98411851741733 143.20050348031566,178.9783013925301 C 81.20632060520288,116.98411851741733 96.70486632398108,62.73920850169365 143.20050348031566,23.992844204748167 Z" fill="url(#leaf4)" opacity="0.38" transform="rotate(257.4 143.2 101.5)"/>
    <path d="M 743.8739052386965,647.1181198398642 C 790.083625470335,685.6262200328963 805.486865547548,739.5375603031414 743.8739052386965,801.1505206119928 C 682.260944929845,739.5375603031414 697.6641850070579,685.6262200328963 743.8739052386965,647.1181198398642 Z" fill="url(#leaf5)" opacity="0.38" transform="rotate(252.0 743.9 724.1)"/>
    <path d="M 844.2732564213435,923.7444922653026 C 884.1196604944067,956.9498289928554 897.4017951854278,1003.4373004114291 844.2732564213435,1056.5658391755135 C 791.1447176572592,1003.4373004114291 804.4268523482802,956.9498289928554 844.2732564213435,923.7444922653026 Z" fill="url(#leaf6)" opacity="0.22" transform="rotate(149.0 844.3 990.2)"/>
    <path d="M 1029.6734007279247,469.527707740203 C 1070.7966687228861,503.7970977360042 1084.5044247212065,551.7742437301259 1029.6734007279247,606.6052677234078 C 974.8423767346428,551.7742437301259 988.5501327329632,503.7970977360042 1029.6734007279247,469.527707740203 Z" fill="url(#leaf7)" opacity="0.36" transform="rotate(232.6 1029.7 538.1)"/>
    <path d="M 1158.5962809560428,-8.795294063651397 C 1217.93497570835,40.65361822993803 1237.714540625786,109.88209544096324 1158.5962809560428,189.00035511070632 C 1079.4780212862997,109.88209544096324 1099.2575862037356,40.65361822993803 1158.5962809560428,-8.795294063651397 Z" fill="url(#leaf8)" opacity="0.29" transform="rotate(144.6 1158.6 90.1)"/>
    <path d="M 116.92635104135078,139.5237199761176 C 149.04447234456816,166.28882106213206 159.75051277897396,203.75996258255233 116.92635104135078,246.58412432017548 C 74.10218930372761,203.75996258255233 84.8082297381334,166.28882106213206 116.92635104135078,139.5237199761176 Z" fill="url(#leaf9)" opacity="0.29" transform="rotate(228.8 116.9 193.1)"/>
    <path d="M 161.50095307271124,390.0404055915811 C 214.15565558421193,433.91932435116496 231.7072230880455,495.34981061458245 161.50095307271124,565.5560806299168 C 91.29468305737699,495.34981061458245 108.84625056121055,433.91932435116496 161.50095307271124,390.0404055915811 Z" fill="url(#leaf10)" opacity="0.33" transform="rotate(24.4 161.5 477.8)"/>
    <path d="M 1528.7855049646,0.014195770771365801 C 1571.9695472446629,36.00089767082379 1586.3642280046838,86.38228033089719 1528.7855049646,143.96100337098108 C 1471.2067819245162,86.38228033089719 1485.6014626845372,36.00089767082379 1528.7855049646,0.014195770771365801 Z" fill="url(#leaf11)" opacity="0.35" transform="rotate(303.3 1528.8 72.0)"/>
    <path d="M 1855.8305597210863,-14.04175888699504 C 1908.5569751371925,29.896920626426862 1926.1324469425613,91.41107194521753 1855.8305597210863,161.71295916669257 C 1785.5286724996113,91.41107194521753 1803.10414430498,29.896920626426862 1855.8305597210863,-14.04175888699504 Z" fill="url(#leaf12)" opacity="0.40" transform="rotate(238.0 1855.8 73.8)"/>
    <path d="M 1766.3551006507773,521.324447494405 C 1812.05870650766,559.4107857084739 1827.2932417932875,612.7316592081703 1766.3551006507773,673.6698003506805 C 1705.4169595082672,612.7316592081703 1720.6514947938947,559.4107857084739 1766.3551006507773,521.324447494405 Z" fill="url(#leaf13)" opacity="0.26" transform="rotate(16.4 1766.4 597.5)"/>
    <path d="M 1740.0411642176553,695.9537162149561 C 1792.6105964279407,739.761576390194 1810.1337404980359,801.0925806355269 1740.0411642176553,871.1851569159076 C 1669.9485879372746,801.0925806355269 1687.4717320073698,739.761576390194 1740.0411642176553,695.9537162149561 Z" fill="url(#leaf14)" opacity="0.30" transform="rotate(74.4 1740.0 783.6)"/>
    <path d="M 1335.5963292974654,356.93080048689353 C 1386.6481530478975,399.47398694558694 1403.6654276313748,459.03444798775763 1335.5963292974654,527.1035463216671 C 1267.5272309635561,459.03444798775763 1284.5445055470334,399.47398694558694 1335.5963292974654,356.93080048689353 Z" fill="url(#leaf15)" opacity="0.34" transform="rotate(83.5 1335.6 442.0)"/>
    <path d="M 915.7355134752737,-1.8550664046858998 C 948.5468710083916,25.487731539579002 959.4839901860976,63.76764866154986 915.7355134752737,107.51612537237371 C 871.9870367644498,63.76764866154986 882.9241559421558,25.487731539579002 915.7355134752737,-1.8550664046858998 Z" fill="url(#leaf16)" opacity="0.27" transform="rotate(158.6 915.7 52.8)"/>
    <path d="M 1234.1115579437321,80.37060109563564 C 1273.2209765860866,112.9617832975977 1286.2574494668715,158.5894383803446 1234.1115579437321,210.73532990348392 C 1181.9656664205927,158.5894383803446 1195.0021393013776,112.9617832975977 1234.1115579437321,80.37060109563564 Z" fill="url(#leaf17)" opacity="0.25" transform="rotate(51.1 1234.1 145.6)"/>
    <path d="M 1275.3485696526368,195.58400655747636 C 1322.7083370041194,235.05047935037842 1338.49492612128,290.3035412604413 1275.3485696526368,353.4498977290846 C 1212.2022131839935,290.3035412604413 1227.9888023011542,235.05047935037842 1275.3485696526368,195.58400655747636 Z" fill="url(#leaf18)" opacity="0.26" transform="rotate(107.3 1275.3 274.5)"/>
    <path d="M 1138.6181510750384,315.02063223108036 C 1172.546283718027,343.2940761002377 1183.85566126569,382.8768975170579 1138.6181510750384,428.11440770770963 C 1093.3806408843868,382.8768975170579 1104.6900184320498,343.2940761002377 1138.6181510750384,315.02063223108036 Z" fill="url(#leaf19)" opacity="0.21" transform="rotate(67.3 1138.6 371.6)"/>
    <path d="M 1833.0756381516783,862.8967915265024 C 1867.8982773475425,891.915657523056 1879.505823746164,932.5420699182308 1833.0756381516783,978.9722555127165 C 1786.6454525571926,932.5420699182308 1798.252998955814,891.915657523056 1833.0756381516783,862.8967915265024 Z" fill="url(#leaf0)" opacity="0.27" transform="rotate(161.2 1833.1 920.9)"/>
    <path d="M 1448.637932946323,511.15479535589316 C 1500.460788045318,554.340507938389 1517.7350730783164,614.8005055538832 1448.637932946323,683.8976456858766 C 1379.5407928143295,614.8005055538832 1396.815077847328,554.340507938389 1448.637932946323,511.15479535589316 Z" fill="url(#leaf1)" opacity="0.24" transform="rotate(26.0 1448.6 597.5)"/>
    <path d="M 1306.762759626431,603.5696545683054 C 1353.722979271321,642.7031709390471 1369.3763858196178,697.4900938580856 1306.762759626431,760.1037200512724 C 1244.1491334332443,697.4900938580856 1259.802539981541,642.7031709390471 1306.762759626431,603.5696545683054 Z" fill="url(#leaf2)" opacity="0.36" transform="rotate(161.0 1306.8 681.8)"/>
    <path d="M 1604.542752802381,167.25854454478747 C 1631.4435576074445,189.67588188234026 1640.4104925424656,221.0601541549142 1604.542752802381,256.92789389499865 C 1568.6750130622966,221.0601541549142 1577.6419479973176,189.67588188234026 1604.542752802381,167.25854454478747 Z" fill="url(#leaf3)" opacity="0.24" transform="rotate(275.6 1604.5 212.1)"/>
    <path d="M 250.15876240906064,172.829133896886 C 286.8728356515196,203.42419493226848 299.1108600656726,246.25728038180395 250.15876240906064,295.20937803841593 C 201.20666475244866,246.25728038180395 213.44468916660168,203.42419493226848 250.15876240906064,172.829133896886 Z" fill="url(#leaf4)" opacity="0.26" transform="rotate(278.8 250.2 234.0)"/>
    <path d="M 1058.9081862525297,277.33314085335167 C 1099.0878792990338,310.8162183921051 1112.4811103145353,357.69252694636 1058.9081862525297,411.2654510083655 C 1005.3352621905242,357.69252694636 1018.7284932060255,310.8162183921051 1058.9081862525297,277.33314085335167 Z" fill="url(#leaf5)" opacity="0.38" transform="rotate(75.4 1058.9 344.3)"/>
    <path d="M 1530.7276920427448,85.89027604225012 C 1582.7045932053395,129.2043603444123 1600.0302269262043,189.84407836743938 1530.7276920427448,259.1466132508989 C 1461.4251571592854,189.84407836743938 1478.7507908801501,129.2043603444123 1530.7276920427448,85.89027604225012 Z" fill="url(#leaf6)" opacity="0.35" transform="rotate(162.6 1530.7 172.5)"/>
    <path d="M 385.7300822609764,890.3670931582028 C 416.42204396734,915.9437279135058 426.6526978694612,951.7510165709299 385.7300822609764,992.6736321794147 C 344.80746665249166,951.7510165709299 355.0381205546128,915.9437279135058 385.7300822609764,890.3670931582028 Z" fill="url(#leaf7)" opacity="0.21" transform="rotate(262.0 385.7 941.5)"/>
    <path d="M 456.5591876326217,872.5058127662342 C 493.7404101025886,903.4901648245399 506.13415092591094,946.868257706168 456.5591876326217,996.4432209994573 C 406.9842243393324,946.868257706168 419.37796516265473,903.4901648245399 456.5591876326217,872.5058127662342 Z" fill="url(#leaf8)" opacity="0.34" transform="rotate(67.6 456.6 934.5)"/>
    <path d="M 1415.1169927927297,104.67879859887438 C 1446.072598255812,130.47513648477633 1456.3911334101729,166.59000952503905 1415.1169927927297,207.86415014248217 C 1373.8428521752865,166.59000952503905 1384.1613873296474,130.47513648477633 1415.1169927927297,104.67879859887438 Z" fill="url(#leaf9)" opacity="0.28" transform="rotate(348.1 1415.1 156.3)"/>
    <path d="M 80.51893530146816,567.4647154718069 C 106.76588772385475,589.3371758237957 115.51487186465027,619.9586203165801 80.51893530146816,654.9545568797622 C 45.52299873828604,619.9586203165801 54.27198287908158,589.3371758237957 80.51893530146816,567.4647154718069 Z" fill="url(#leaf10)" opacity="0.21" transform="rotate(207.4 80.5 611.2)"/>
    <path d="M 1860.919913182004,427.31540283973396 C 1892.96722274609,454.0214941431391 1903.649659267452,491.41002196790623 1860.919913182004,534.1397680533544 C 1818.1901670965558,491.41002196790623 1828.8726036179178,454.0214941431391 1860.919913182004,427.31540283973396 Z" fill="url(#leaf11)" opacity="0.30" transform="rotate(40.6 1860.9 480.7)"/>
    <path d="M 1458.7972057261763,632.0200753498727 C 1486.874896906109,655.4181513331498 1496.2341272994197,688.1754577097379 1458.7972057261763,725.6123792829812 C 1421.360284152933,688.1754577097379 1430.7195145462438,655.4181513331498 1458.7972057261763,632.0200753498727 Z" fill="url(#leaf12)" opacity="0.23" transform="rotate(69.4 1458.8 678.8)"/>
    <path d="M 1090.171977958305,809.4104935986927 C 1142.478653063477,852.9993895196693 1159.9142114318674,914.0238438090365 1090.171977958305,983.7660772825991 C 1020.4297444847425,914.0238438090365 1037.865302853133,852.9993895196693 1090.171977958305,809.4104935986927 Z" fill="url(#leaf13)" opacity="0.26" transform="rotate(78.5 1090.2 896.6)"/>
    <path d="M 1159.0579985400716,-32.24444910266891 C 1210.1176263867494,10.305240769562609 1227.137502335642,69.87480659068673 1159.0579985400716,137.95431038625716 C 1090.9784947445012,69.87480659068673 1107.9983706933938,10.305240769562609 1159.0579985400716,-32.24444910266891 Z" fill="url(#leaf14)" opacity="0.26" transform="rotate(325.3 1159.1 52.9)"/>
    <path d="M 1020.7814590614842,934.4381011521676 C 1064.005774735483,970.4583642138334 1078.4138799601492,1020.8867325001654 1020.7814590614842,1078.5191533988304 C 963.149038162819,1020.8867325001654 977.5571433874853,970.4583642138334 1020.7814590614842,934.4381011521676 Z" fill="url(#leaf15)" opacity="0.32" transform="rotate(265.7 1020.8 1006.5)"/>
    <path d="M 1188.8750203859759,685.5638464177889 C 1216.465043871758,708.5555326559407 1225.6617183670187,740.7438933893533 1188.8750203859759,777.5305913703962 C 1152.088322404933,740.7438933893533 1161.2849969001936,708.5555326559407 1188.8750203859759,685.5638464177889 Z" fill="url(#leaf16)" opacity="0.24" transform="rotate(44.3 1188.9 731.5)"/>
    <path d="M 994.5782111171956,410.5053931470378 C 1045.3412678065208,452.80794038814224 1062.2622867029627,512.0315065256885 994.5782111171956,579.7155821114557 C 926.8941355314284,512.0315065256885 943.8151544278702,452.80794038814224 994.5782111171956,410.5053931470378 Z" fill="url(#leaf17)" opacity="0.31" transform="rotate(145.6 994.6 495.1)"/>
    <path d="M 1226.5971994427566,705.9174168163049 C 1277.346733245286,748.2086949850794 1294.263244512796,807.4164844213639 1226.5971994427566,875.0825294914032 C 1158.9311543727172,807.4164844213639 1175.8476656402272,748.2086949850794 1226.5971994427566,705.9174168163049 Z" fill="url(#leaf18)" opacity="0.25" transform="rotate(252.2 1226.6 790.5)"/>
    <path d="M 1807.7027784732097,686.47439275364 C 1845.7131014406636,718.149661893185 1858.3832090964816,762.4950386885479 1807.7027784732097,813.1754693118197 C 1757.022347849938,762.4950386885479 1769.6924555057558,718.149661893185 1807.7027784732097,686.47439275364 Z" fill="url(#leaf19)" opacity="0.32" transform="rotate(93.1 1807.7 749.8)"/>
    <path d="M 603.8123610144112,784.1866016047719 C 631.0689707415049,806.9004430440166 640.1545073172027,838.6998210589593 603.8123610144112,875.0419673617508 C 567.4702147116196,838.6998210589593 576.5557512873174,806.9004430440166 603.8123610144112,784.1866016047719 Z" fill="url(#leaf0)" opacity="0.36" transform="rotate(26.8 603.8 829.6)"/>
    <path d="M 1796.1462176937723,768.3151036536365 C 1841.5207218740468,806.1271904705319 1856.645556600805,859.0641120141855 1796.1462176937723,919.5634509212182 C 1735.6468787867395,859.0641120141855 1750.7717135134978,806.1271904705319 1796.1462176937723,768.3151036536365 Z" fill="url(#leaf1)" opacity="0.22" transform="rotate(326.5 1796.1 843.9)"/>
    <path d="M 1698.5254007091808,151.0224088978947 C 1739.2711045386502,184.9771620891193 1752.85300581514,232.51381655683372 1698.5254007091808,286.84142166279304 C 1644.1977956032215,232.51381655683372 1657.7796968797113,184.9771620891193 1698.5254007091808,151.0224088978947 Z" fill="url(#leaf2)" opacity="0.35" transform="rotate(123.7 1698.5 218.9)"/>
    <path d="M 1265.3421679989892,409.17573132027906 C 1319.2184425393916,454.0726267706144 1337.177200719526,516.928280401084 1265.3421679989892,588.7633131216205 C 1193.5071352784526,516.928280401084 1211.4658934585868,454.0726267706144 1265.3421679989892,409.17573132027906 Z" fill="url(#leaf3)" opacity="0.37" transform="rotate(22.2 1265.3 499.0)"/>
    <path d="M 185.71069840221296,862.5167367210818 C 216.2336751188846,887.9525506516416 226.4080006911085,923.5626901544251 185.71069840221296,964.2599924433207 C 145.0133961133174,923.5626901544251 155.1877216855413,887.9525506516416 185.71069840221296,862.5167367210818 Z" fill="url(#leaf4)" opacity="0.37" transform="rotate(332.6 185.7 913.4)"/>
    <path d="M 576.993833870323,47.59835299961582 C 601.6037314469064,68.10660098010203 609.807030639101,96.81814815278271 576.993833870323,129.63134492156064 C 544.180637101545,96.81814815278271 552.3839362937396,68.10660098010203 576.993833870323,47.59835299961582 Z" fill="url(#leaf5)" opacity="0.25" transform="rotate(20.4 577.0 88.6)"/>
    <path d="M 1696.7781216119504,795.6946554228274 C 1753.1719094522914,842.6894786231117 1771.9698387324052,908.4822311035094 1696.7781216119504,983.6739482239642 C 1621.5864044914956,908.4822311035094 1640.3843337716094,842.6894786231117 1696.7781216119504,795.6946554228274 Z" fill="url(#leaf6)" opacity="0.28" transform="rotate(300.5 1696.8 889.7)"/>
    <path d="M 1435.900286229376,873.903973194585 C 1494.3346468075827,922.5992736764239 1513.8127670003182,990.7726943509983 1435.900286229376,1068.6851751219406 C 1357.9878054584337,990.7726943509983 1377.4659256511693,922.5992736764239 1435.900286229376,873.903973194585 Z" fill="url(#leaf7)" opacity="0.39" transform="rotate(139.5 1435.9 971.3)"/>
    <path d="M 965.5531928530589,657.0308918515746 C 994.004349941794,680.7401894255205 1003.4880689713723,713.9332060290446 965.5531928530589,751.8680821473581 C 927.6183167347456,713.9332060290446 937.1020357643239,680.7401894255205 965.5531928530589,657.0308918515746 Z" fill="url(#leaf8)" opacity="0.23" transform="rotate(313.4 965.6 704.4)"/>
    <path d="M 572.6939673108265,444.95018754545134 C 623.0735811179487,486.9331990513866 639.8667857203228,545.7094151596959 572.6939673108265,612.8822335691923 C 505.52114890133004,545.7094151596959 522.3143535037042,486.9331990513866 572.6939673108265,444.95018754545134 Z" fill="url(#leaf9)" opacity="0.33" transform="rotate(224.7 572.7 528.9)"/>
    <path d="M 1775.1119555449632,209.70613692947447 C 1812.3287051382758,240.7200949239018 1824.7342883360468,284.1396361161 1775.1119555449632,333.7619689071837 C 1725.4896227538795,284.1396361161 1737.8952059516505,240.7200949239018 1775.1119555449632,209.70613692947447 Z" fill="url(#leaf10)" opacity="0.31" transform="rotate(217.9 1775.1 271.7)"/>
    <path d="M 448.139068563507,169.00433546449617 C 473.663375392366,190.27459115521197 482.1714776686523,220.05294912221407 448.139068563507,254.08535822735936 C 414.1066594583617,220.05294912221407 422.614761734648,190.27459115521197 448.139068563507,169.00433546449617 Z" fill="url(#leaf11)" opacity="0.23" transform="rotate(356.6 448.1 211.5)"/>
    <path d="M 1840.5870940895777,543.0684998803255 C 1880.4928512479305,576.3232975122862 1893.7947703007148,622.8800141970311 1840.5870940895777,676.0876904081682 C 1787.3794178784406,622.8800141970311 1800.681336931225,576.3232975122862 1840.5870940895777,543.0684998803255 Z" fill="url(#leaf12)" opacity="0.35" transform="rotate(245.4 1840.6 609.6)"/>
    <path d="M 780.8571090884996,689.1766800690067 C 810.7122089459483,714.055929950214 820.6639088984311,748.8868797839042 780.8571090884996,788.6936795938358 C 741.050309278568,748.8868797839042 751.0020092310508,714.055929950214 780.8571090884996,689.1766800690067 Z" fill="url(#leaf13)" opacity="0.25" transform="rotate(303.8 780.9 738.9)"/>
    <path d="M 137.63316904959018,437.30024946309635 C 194.0680647340746,484.32932920016674 212.87969662890276,550.1700408320652 137.63316904959018,625.4165684113777 C 62.386641470277596,550.1700408320652 81.19827336510575,484.32932920016674 137.63316904959018,437.30024946309635 Z" fill="url(#leaf14)" opacity="0.27" transform="rotate(67.6 137.6 531.4)"/>
    <path d="M 163.20216007284114,474.0111635995475 C 198.23281797108098,503.2033785147473 209.9097039371609,544.0724793960271 163.20216007284114,590.780023260347 C 116.49461620852136,544.0724793960271 128.1715021746013,503.2033785147473 163.20216007284114,474.0111635995475 Z" fill="url(#leaf15)" opacity="0.23" transform="rotate(183.1 163.2 532.4)"/>
    <path d="M 1808.672051684791,695.6300748973517 C 1843.8700532819148,724.9617428949549 1855.6027204809561,766.0260780915994 1808.672051684791,812.9567468877644 C 1761.741382888626,766.0260780915994 1773.4740500876674,724.9617428949549 1808.672051684791,695.6300748973517 Z" fill="url(#leaf16)" opacity="0.36" transform="rotate(180.1 1808.7 754.3)"/>
    <path d="M 1092.7591450673103,426.7678500432685 C 1130.6748815745782,458.3642971326584 1143.3134604103343,502.5993230578043 1092.7591450673103,553.1536384008282 C 1042.2048297242864,502.5993230578043 1054.8434085600425,458.3642971326584 1092.7591450673103,426.7678500432685 Z" fill="url(#leaf17)" opacity="0.35" transform="rotate(91.2 1092.8 490.0)"/>
    <path d="M 684.1202049447802,615.3412276961348 C 739.3327714649763,661.3516997962981 757.7369603050417,725.766360736527 684.1202049447802,799.3831160967885 C 610.5034495845186,725.766360736527 628.9076384245841,661.3516997962981 684.1202049447802,615.3412276961348 Z" fill="url(#leaf18)" opacity="0.35" transform="rotate(205.8 684.1 707.4)"/>
    <path d="M 603.7936884651408,359.13149519950025 C 646.3915816020519,394.6297394802595 660.5908793143557,444.3272814733225 603.7936884651408,501.1244723225374 C 546.9964976159259,444.3272814733225 561.1957953282297,394.6297394802595 603.7936884651408,359.13149519950025 Z" fill="url(#leaf19)" opacity="0.28" transform="rotate(105.6 603.8 430.1)"/>
    <path d="M 1481.0235175433197,478.32235132907584 C 1520.2459215163226,511.00768797324486 1533.32005617399,556.7671592750814 1481.0235175433197,609.0636979057517 C 1428.7269789126494,556.7671592750814 1441.8011135703168,511.00768797324486 1481.0235175433197,478.32235132907584 Z" fill="url(#leaf0)" opacity="0.30" transform="rotate(266.6 1481.0 543.7)"/>
    <path d="M 1012.1793113106703,44.23662000014221 C 1048.336133205237,74.36730491228124 1060.3884071700927,116.55026378927589 1012.1793113106703,164.75935964869834 C 963.9702154512479,116.55026378927589 976.0224894161034,74.36730491228124 1012.1793113106703,44.23662000014221 Z" fill="url(#leaf1)" opacity="0.37" transform="rotate(205.2 1012.2 104.5)"/>
    <path d="M 1255.881936661556,545.0555750687215 C 1306.3184111531127,587.0859704783522 1323.130569316965,645.9285240518351 1255.881936661556,713.1771567072442 C 1188.633304006147,645.9285240518351 1205.4454621699992,587.0859704783522 1255.881936661556,545.0555750687215 Z" fill="url(#leaf2)" opacity="0.27" transform="rotate(207.4 1255.9 629.1)"/>
    <path d="M 1397.6400914523726,900.6119824380236 C 1430.0746970234538,927.6408204139245 1440.8862322138143,965.4811935801858 1397.6400914523726,1008.7273343416274 C 1354.393950690931,965.4811935801858 1365.2054858812915,927.6408204139245 1397.6400914523726,900.6119824380236 Z" fill="url(#leaf3)" opacity="0.37" transform="rotate(122.1 1397.6 954.7)"/>
    <path d="M 1112.5601990245968,149.56313684303896 C 1153.639385278123,183.7957920543107 1167.3324473626317,231.72150935009117 1112.5601990245968,286.4937576881259 C 1057.787950686562,231.72150935009117 1071.4810127710707,183.7957920543107 1112.5601990245968,149.56313684303896 Z" fill="url(#leaf4)" opacity="0.38" transform="rotate(155.3 1112.6 218.0)"/>
    <path d="M 1381.1629157109326,45.91308927675628 C 1425.1693417387646,82.58511096661634 1439.8381504147087,133.92594133242042 1381.1629157109326,192.60117603619653 C 1322.4876810071564,133.92594133242042 1337.1564896831005,82.58511096661634 1381.1629157109326,45.91308927675628 Z" fill="url(#leaf5)" opacity="0.40" transform="rotate(251.2 1381.2 119.3)"/>
    <path d="M 676.8500446879536,332.11243484222456 C 728.8547501754911,375.44968941517243 746.1896520046702,436.1218458172994 676.8500446879536,505.4614531340159 C 607.5104373712371,436.1218458172994 624.8453392004162,375.44968941517243 676.8500446879536,332.11243484222456 Z" fill="url(#leaf6)" opacity="0.37" transform="rotate(341.9 676.9 418.8)"/>
    <path d="M 1074.3345445184043,816.9555936090429 C 1108.9198599122594,845.7766897705887 1120.4482983768778,886.1262243967531 1074.3345445184043,932.2399782552264 C 1028.2207906599308,886.1262243967531 1039.7492291245492,845.7766897705887 1074.3345445184043,816.9555936090429 Z" fill="url(#leaf7)" opacity="0.37" transform="rotate(106.4 1074.3 874.6)"/>
    <path d="M 1743.6096787418762,270.30298457454285 C 1802.2637280200788,319.18135897304506 1821.81507777948,387.61108313094815 1743.6096787418762,465.8164821685517 C 1665.4042797042725,387.61108313094815 1684.9556294636736,319.18135897304506 1743.6096787418762,270.30298457454285 Z" fill="url(#leaf8)" opacity="0.35" transform="rotate(189.8 1743.6 368.1)"/>
    <path d="M 1348.8397951270567,345.84726008566986 C 1373.032765743225,366.0080689324766 1381.0970892819475,394.233201318006 1348.8397951270567,426.4904954728968 C 1316.582500972166,394.233201318006 1324.6468245108886,366.0080689324766 1348.8397951270567,345.84726008566986 Z" fill="url(#leaf9)" opacity="0.34" transform="rotate(38.8 1348.8 386.2)"/>
    <path d="M 455.5834954209238,874.2014784573137 C 510.06764384261226,919.6049354753874 528.2290266498418,983.1697753006906 455.5834954209238,1055.8153065296085 C 382.93796419200584,983.1697753006906 401.0993469992353,919.6049354753874 455.5834954209238,874.2014784573137 Z" fill="url(#leaf10)" opacity="0.40" transform="rotate(266.0 455.6 965.0)"/>
    <path d="M 1860.5673192935396,490.0396996507132 C 1903.7740996741209,526.0453499678644 1918.1763598009813,576.4532604118759 1860.5673192935396,634.0623009193176 C 1802.958278786098,576.4532604118759 1817.3605389129584,526.0453499678644 1860.5673192935396,490.0396996507132 Z" fill="url(#leaf11)" opacity="0.34" transform="rotate(193.2 1860.6 562.1)"/>
    <path d="M 976.8682555326908,481.6107468272103 C 1036.4778046624342,531.2853711019965 1056.3476543723489,600.8298450866973 976.8682555326908,680.3092439263553 C 897.3888566930327,600.8298450866973 917.2587064029473,531.2853711019965 976.8682555326908,481.6107468272103 Z" fill="url(#leaf12)" opacity="0.33" transform="rotate(96.1 976.9 581.0)"/>
    <path d="M 1693.4017800371234,52.80694495561046 C 1729.8062919448073,83.14403821201373 1741.9411292473687,125.61596877097831 1693.4017800371234,174.15531798122356 C 1644.8624308268782,125.61596877097831 1656.9972681294396,83.14403821201373 1693.4017800371234,52.80694495561046 Z" fill="url(#leaf13)" opacity="0.39" transform="rotate(229.9 1693.4 113.5)"/>
    <path d="M 668.2535184052192,253.62256376989467 C 693.7070265290776,274.8338205397767 702.1915292370304,304.52958001761147 668.2535184052192,338.46759084942266 C 634.315507573408,304.52958001761147 642.8000102813609,274.8338205397767 668.2535184052192,253.62256376989467 Z" fill="url(#leaf14)" opacity="0.20" transform="rotate(191.5 668.3 296.0)"/>
    <path d="M 760.5053896185383,362.18279112663413 C 789.9380292159619,386.7099907911538 799.7489090817699,421.04807032148136 760.5053896185383,460.29158978471287 C 721.2618701553067,421.04807032148136 731.0727500211146,386.7099907911538 760.5053896185383,362.18279112663413 Z" fill="url(#leaf15)" opacity="0.25" transform="rotate(192.8 760.5 411.2)"/>
    <path d="M 976.7835182178707,824.2567783528787 C 1034.1721995618889,872.0806794728938 1053.3017600098951,939.0341410409153 976.7835182178707,1015.5523828329397 C 900.2652764258462,939.0341410409153 919.3948368738523,872.0806794728938 976.7835182178707,824.2567783528787 Z" fill="url(#leaf16)" opacity="0.24" transform="rotate(318.0 976.8 919.9)"/>
    <path d="M 1651.2160668503684,693.0259862455778 C 1698.303578244846,732.2655790743092 1713.9994153763387,787.2010090345332 1651.2160668503684,849.9843575605034 C 1588.4327183243981,787.2010090345332 1604.1285554558908,732.2655790743092 1651.2160668503684,693.0259862455778 Z" fill="url(#leaf17)" opacity="0.29" transform="rotate(51.3 1651.2 771.5)"/>
    <path d="M 1241.3898646694429,523.118383157954 C 1282.2057630018155,557.1316317682644 1295.8110624459396,604.750179822699 1241.3898646694429,659.1713775991957 C 1186.9686668929462,604.750179822699 1200.5739663370703,557.1316317682644 1241.3898646694429,523.118383157954 Z" fill="url(#leaf18)" opacity="0.21" transform="rotate(34.7 1241.4 591.1)"/>
    <path d="M 775.8757748103809,844.4889043863069 C 826.8654675784381,886.9803150263546 843.8620318344572,946.4682899224213 775.8757748103809,1014.4545469464975 C 707.8895177863046,946.4682899224213 724.8860820423237,886.9803150263546 775.8757748103809,844.4889043863069 Z" fill="url(#leaf19)" opacity="0.21" transform="rotate(240.3 775.9 929.5)"/>
    <path d="M 1390.122343550553,801.8718545161853 C 1420.1208787728567,826.8706338681051 1430.1203905136247,861.8689249607928 1390.122343550553,901.8669719238644 C 1350.1242965874815,861.8689249607928 1360.1238083282494,826.8706338681051 1390.122343550553,801.8718545161853 Z" fill="url(#leaf0)" opacity="0.21" transform="rotate(240.9 1390.1 851.9)"/>
    <path d="M 476.1843482256335,357.5660359057776 C 523.0863104112304,396.651004393775 538.7202978064295,451.3699602769714 476.1843482256335,513.9059098577673 C 413.64839864483764,451.3699602769714 429.2823860400366,396.651004393775 476.1843482256335,357.5660359057776 Z" fill="url(#leaf1)" opacity="0.21" transform="rotate(164.4 476.2 435.7)"/>
    <path d="M 758.974873615394,934.8787959432597 C 796.8058108274425,966.4045769533001 809.4161232314586,1010.5406703673567 758.974873615394,1060.9819199834212 C 708.5336239993294,1010.5406703673567 721.1439364033455,966.4045769533001 758.974873615394,934.8787959432597 Z" fill="url(#leaf2)" opacity="0.39" transform="rotate(61.8 759.0 997.9)"/>
    <path d="M 777.5395642488578,-2.4471395801240874 C 824.4780439033478,36.668260131950916 840.1242037881779,91.42981972885592 777.5395642488578,154.01445926817593 C 714.9549247095377,91.42981972885592 730.6010845943678,36.668260131950916 777.5395642488578,-2.4471395801240874 Z" fill="url(#leaf3)" opacity="0.21" transform="rotate(152.1 777.5 75.8)"/>
    <path d="M 377.73071659656546,318.2041403726767 C 416.3629556264862,350.3976728976107 429.24036863645983,395.4686184325182 377.73071659656546,446.9782704724126 C 326.2210645566711,395.4686184325182 339.0984775666447,350.3976728976107 377.73071659656546,318.2041403726767 Z" fill="url(#leaf4)" opacity="0.23" transform="rotate(103.1 377.7 382.6)"/>
  </g>

  <!-- Central star shape -->
  <polygon points="960.0,249.7 1045.3,422.6 1236.1,450.3 1098.0,584.9 1130.6,774.9 960.0,685.2 789.4,774.9 822.0,584.9 683.9,450.3 874.7,422.6" 
           fill="#45B7D1" 
           transform="rotate(176.0 960.0 540.0)"/>
</svg>