<?xml version="1.0" encoding="UTF-8"?>
<svg xmlns="http://www.w3.org/2000/svg" viewBox="0 0 1920 1080" width="1920" height="1080">
  <defs>
    <linearGradient id="bgGrad" x1="0%" y1="0%" x2="100%" y2="100%">
      <stop offset="0%" stop-color="#00CED1"/>
      <stop offset="100%" stop-color="#32CD32"/>
    </linearGradient>
    <clipPath id="complexClip"><polygon points="1453.4,540.0 1331.3,584.4 1408.7,652.4 1373.4,708.9 1195.4,687.0 1144.7,720.0 1084.1,754.8 1008.6,799.9 903.5,842.5 830.1,764.9 693.9,799.3 605.5,761.5 642.7,669.7 563.7,639.2 441.0,602.1 523.9,540.0 554.5,491.5 523.4,430.7 640.5,409.4 705.0,380.7 768.4,353.4 797.3,258.4 923.6,345.4 1008.4,280.8 1123.1,257.7 1185.5,320.3 1318.1,316.3 1330.5,388.6 1368.8,437.6 1409.3,486.3"/></clipPath>
    <radialGradient id="leaf0" cx="50%" cy="50%" r="70%">
      <stop offset="0%" stop-color="#00CED1"/>
      <stop offset="50%" stop-color="#FF1493"/>
      <stop offset="100%" stop-color="#FF6B6B"/>
    </radialGradient>
    <radialGradient id="leaf1" cx="50%" cy="50%" r="70%">
      <stop offset="0%" stop-color="#9370DB"/>
      <stop offset="50%" stop-color="#DC143C"/>
      <stop offset="100%" stop-color="#FF4500"/>
    </radialGradient>
    <radialGradient id="leaf2" cx="50%" cy="50%" r="70%">
      <stop offset="0%" stop-color="#7B68EE"/>
      <stop offset="50%" stop-color="#FFE66D"/>
      <stop offset="100%" stop-color="#FF69B4"/>
    </radialGradient>
    <radialGradient id="leaf3" cx="50%" cy="50%" r="70%">
      <stop offset="0%" stop-color="#7B68EE"/>
      <stop offset="50%" stop-color="#96E6A1"/>
      <stop offset="100%" stop-color="#4ECDC4"/>
    </radialGradient>
    <radialGradient id="leaf4" cx="50%" cy="50%" r="70%">
      <stop offset="0%" stop-color="#DC143C"/>
      <stop offset="50%" stop-color="#45B7D1"/>
      <stop offset="100%" stop-color="#FF1493"/>
    </radialGradient>
    <radialGradient id="leaf5" cx="50%" cy="50%" r="70%">
      <stop offset="0%" stop-color="#FF6B6B"/>
      <stop offset="50%" stop-color="#45B7D1"/>
      <stop offset="100%" stop-color="#FFD700"/>
    </radialGradient>
    <radialGradient id="leaf6" cx="50%" cy="50%" r="70%">
      <stop offset="0%" stop-color="#96E6A1"/>
      <stop offset="50%" stop-color="#45B7D1"/>
      <stop offset="100%" stop-color="#32CD32"/>
    </radialGradient>
    <radialGradient id="leaf7" cx="50%" cy="50%" r="70%">
      <stop offset="0%" stop-color="#FF4500"/>
      <stop offset="50%" stop-color="#FF69B4"/>
      <stop offset="100%" stop-color="#FF1493"/>
    </radialGradient>
    <radialGradient id="leaf8" cx="50%" cy="50%" r="70%">
      <stop offset="0%" stop-color="#FF69B4"/>
      <stop offset="50%" stop-color="#FFD700"/>
      <stop offset="100%" stop-color="#9370DB"/>
    </radialGradient>
    <radialGradient id="leaf9" cx="50%" cy="50%" r="70%">
      <stop offset="0%" stop-color="#FFD700"/>
      <stop offset="50%" stop-color="#00FA9A"/>
      <stop offset="100%" stop-color="#7B68EE"/>
    </radialGradient>
    <radialGradient id="leaf10" cx="50%" cy="50%" r="70%">
      <stop offset="0%" stop-color="#FF4500"/>
      <stop offset="50%" stop-color="#00CED1"/>
      <stop offset="100%" stop-color="#32CD32"/>
    </radialGradient>
    <radialGradient id="leaf11" cx="50%" cy="50%" r="70%">
      <stop offset="0%" stop-color="#FF4500"/>
      <stop offset="50%" stop-color="#4ECDC4"/>
      <stop offset="100%" stop-color="#FF1493"/>
    </radialGradient>
    <radialGradient id="leaf12" cx="50%" cy="50%" r="70%">
      <stop offset="0%" stop-color="#DC143C"/>
      <stop offset="50%" stop-color="#9370DB"/>
      <stop offset="100%" stop-color="#7B68EE"/>
    </radialGradient>
    <radialGradient id="leaf13" cx="50%" cy="50%" r="70%">
      <stop offset="0%" stop-color="#4ECDC4"/>
      <stop offset="50%" stop-color="#DC143C"/>
      <stop offset="100%" stop-color="#00CED1"/>
    </radialGradient>
    <radialGradient id="leaf14" cx="50%" cy="50%" r="70%">
      <stop offset="0%" stop-color="#FF69B4"/>
      <stop offset="50%" stop-color="#00CED1"/>
      <stop offset="100%" stop-color="#4ECDC4"/>
    </radialGradient>
    <radialGradient id="leaf15" cx="50%" cy="50%" r="70%">
      <stop offset="0%" stop-color="#45B7D1"/>
      <stop offset="50%" stop-color="#FF69B4"/>
      <stop offset="100%" stop-color="#DC143C"/>
    </radialGradient>
    <radialGradient id="leaf16" cx="50%" cy="50%" r="70%">
      <stop offset="0%" stop-color="#00CED1"/>
      <stop offset="50%" stop-color="#96E6A1"/>
      <stop offset="100%" stop-color="#32CD32"/>
    </radialGradient>
    <radialGradient id="leaf17" cx="50%" cy="50%" r="70%">
      <stop offset="0%" stop-color="#FF1493"/>
      <stop offset="50%" stop-color="#9370DB"/>
      <stop offset="100%" stop-color="#DC143C"/>
    </radialGradient>
    <radialGradient id="leaf18" cx="50%" cy="50%" r="70%">
      <stop offset="0%" stop-color="#FF1493"/>
      <stop offset="50%" stop-color="#00FA9A"/>
      <stop offset="100%" stop-color="#FF6B6B"/>
    </radialGradient>
    <radialGradient id="leaf19" cx="50%" cy="50%" r="70%">
      <stop offset="0%" stop-color="#FFD700"/>
      <stop offset="50%" stop-color="#45B7D1"/>
      <stop offset="100%" stop-color="#32CD32"/>
    </radialGradient>
  </defs>

  <!-- Background -->
  <rect width="1920" height="1080" fill="url(#bgGrad)"/>
  
  <!-- Leaves with clip-path -->
  <g clip-path="url(#complexClip)">
    <path d="M 626.4241632850197,494.30989775491935 C 678.9663652958242,538.0950660972563 696.480432632759,599.3943017765281 626.4241632850197,669.4505711242673 C 556.3678939372805,599.3943017765281 573.8819612742153,538.0950660972563 626.4241632850197,494.30989775491935 Z" fill="url(#leaf0)" opacity="0.31" transform="rotate(310.9 626.4 581.9)"/>
    <path d="M 685.1329458182317,600.0490404260813 C 733.6358265298079,640.4681076857282 749.8034534336666,697.0548018492337 685.1329458182317,761.7253094646687 C 620.4624382027969,697.0548018492337 636.6300651066556,640.4681076857282 685.1329458182317,600.0490404260813 Z" fill="url(#leaf1)" opacity="0.22" transform="rotate(334.8 685.1 680.9)"/>
    <path d="M 339.9796344687421,790.1282341217395 C 395.6455876385265,836.5165284298931 414.20090536178793,901.4601404613081 339.9796344687421,975.6814113543539 C 265.7583635756963,901.4601404613081 284.31368129895776,836.5165284298931 339.9796344687421,790.1282341217395 Z" fill="url(#leaf2)" opacity="0.27" transform="rotate(2.2 340.0 882.9)"/>
    <path d="M 1022.2824360829749,442.90431291160024 C 1069.9583981088442,482.63428126649137 1085.8503854508006,538.2562369633389 1022.2824360829749,601.8241863311646 C 958.7144867151491,538.2562369633389 974.6064740571055,482.63428126649137 1022.2824360829749,442.90431291160024 Z" fill="url(#leaf3)" opacity="0.25" transform="rotate(171.0 1022.3 522.4)"/>
    <path d="M 707.0303360367893,713.9798761798891 C 749.180669197177,749.1051538135455 763.2307802506397,798.2805425006646 707.0303360367893,854.480986714515 C 650.829891822939,798.2805425006646 664.8800028764016,749.1051538135455 707.0303360367893,713.9798761798891 Z" fill="url(#leaf4)" opacity="0.32" transform="rotate(26.6 707.0 784.2)"/>
    <path d="M 1330.8561762419201,212.279770644322 C 1375.9011571956894,249.81725477246312 1390.9161508469458,302.36973255186064 1330.8561762419201,362.4297071568864 C 1270.7962016368945,302.36973255186064 1285.8111952881509,249.81725477246312 1330.8561762419201,212.279770644322 Z" fill="url(#leaf5)" opacity="0.32" transform="rotate(71.4 1330.9 287.4)"/>
    <path d="M 803.6058983623286,350.9283235840817 C 852.8337476325989,391.951531309307 869.243030722689,449.3840221246224 803.6058983623286,515.0211544849828 C 737.9687660019682,449.3840221246224 754.3780490920583,391.951531309307 803.6058983623286,350.9283235840817 Z" fill="url(#leaf6)" opacity="0.30" transform="rotate(319.8 803.6 433.0)"/>
    <path d="M 941.9284907204418,879.8377624847017 C 994.3110251242224,923.4898744878521 1011.7718699254825,984.6028312922629 941.9284907204418,1054.4462104973036 C 872.0851115154011,984.6028312922629 889.5459563166612,923.4898744878521 941.9284907204418,879.8377624847017 Z" fill="url(#leaf7)" opacity="0.29" transform="rotate(59.3 941.9 967.1)"/>
    <path d="M 983.3354405098136,241.43134605317792 C 1025.862086891036,276.8702180375298 1040.0376356847767,326.4846388156224 983.3354405098136,383.18683399058546 C 926.6332453348506,326.4846388156224 940.8087941285913,276.8702180375298 983.3354405098136,241.43134605317792 Z" fill="url(#leaf8)" opacity="0.20" transform="rotate(100.3 983.3 312.3)"/>
    <path d="M 135.3390731948307,899.5157357699046 C 164.1354492606398,923.5127158247456 173.7342412825762,957.1084879015228 135.3390731948307,995.5036559892684 C 96.94390510708519,957.1084879015228 106.54269712902156,923.5127158247456 135.3390731948307,899.5157357699046 Z" fill="url(#leaf9)" opacity="0.25" transform="rotate(165.5 135.3 947.5)"/>
    <path d="M 1774.8895359828239,359.4219248700569 C 1821.707606629821,398.4369837425545 1837.3136301788202,453.05806616405124 1774.8895359828239,515.4821603600474 C 1712.4654417868276,453.05806616405124 1728.0714653358268,398.4369837425545 1774.8895359828239,359.4219248700569 Z" fill="url(#leaf10)" opacity="0.32" transform="rotate(134.4 1774.9 437.5)"/>
    <path d="M 353.2094807616224,922.3109850304729 C 391.75099185630353,954.4289109427071 404.5981622211973,999.3940072198352 353.2094807616224,1050.78268867941 C 301.8207993020475,999.3940072198352 314.66796966694125,954.4289109427071 353.2094807616224,922.3109850304729 Z" fill="url(#leaf11)" opacity="0.29" transform="rotate(174.8 353.2 986.5)"/>
    <path d="M 1427.9835988127968,680.8841526415817 C 1481.1735867350521,725.2091425767946 1498.9035827091373,787.2641284860925 1427.9835988127968,858.1841123824331 C 1357.0636149164563,787.2641284860925 1374.7936108905415,725.2091425767946 1427.9835988127968,680.8841526415817 Z" fill="url(#leaf12)" opacity="0.23" transform="rotate(53.1 1428.0 769.5)"/>
    <path d="M 297.12658329702873,962.6335903392815 C 329.20559301102946,989.366098434282 339.8985962490297,1026.7916097672828 297.12658329702873,1069.5636227192838 C 254.35457034502775,1026.7916097672828 265.047573583028,989.366098434282 297.12658329702873,962.6335903392815 Z" fill="url(#leaf13)" opacity="0.26" transform="rotate(304.5 297.1 1016.1)"/>
    <path d="M 920.4811659037961,195.27466990260132 C 955.7081185895919,224.63046380743123 967.450436151524,265.7285752741931 920.4811659037961,312.6978455219209 C 873.5118956560682,265.7285752741931 885.2542132180002,224.63046380743123 920.4811659037961,195.27466990260132 Z" fill="url(#leaf14)" opacity="0.36" transform="rotate(51.0 920.5 254.0)"/>
    <path d="M 1702.7057624468193,336.9894678630253 C 1753.2511158897178,379.11059573210747 1770.0995670373507,438.0801747488224 1702.7057624468193,505.47397933935383 C 1635.311957856288,438.0801747488224 1652.160409003921,379.11059573210747 1702.7057624468193,336.9894678630253 Z" fill="url(#leaf15)" opacity="0.25" transform="rotate(122.2 1702.7 421.2)"/>
    <path d="M 1421.492557169925,177.35863846730243 C 1470.2056340442202,217.95286919588176 1486.443326335652,274.7847922158929 1421.492557169925,339.73556138161985 C 1356.541788004198,274.7847922158929 1372.7794802956298,217.95286919588176 1421.492557169925,177.35863846730243 Z" fill="url(#leaf16)" opacity="0.21" transform="rotate(158.5 1421.5 258.5)"/>
    <path d="M 1258.3254340225208,536.1756026889432 C 1291.7126111974578,563.9982503347239 1302.8416702557702,602.9499570388172 1258.3254340225208,647.4661932720664 C 1213.8091977892714,602.9499570388172 1224.9382568475837,563.9982503347239 1258.3254340225208,536.1756026889432 Z" fill="url(#leaf17)" opacity="0.21" transform="rotate(186.6 1258.3 591.8)"/>
    <path d="M 1780.1543636808844,332.52840711390905 C 1812.4046799840426,359.4036706998741 1823.1547854184287,397.0290397202253 1780.1543636808844,440.0294614577694 C 1737.1539419433402,397.0290397202253 1747.9040473777263,359.4036706998741 1780.1543636808844,332.52840711390905 Z" fill="url(#leaf18)" opacity="0.24" transform="rotate(210.7 1780.2 386.3)"/>
    <path d="M 1514.9257067281976,94.05049197093906 C 1564.0695821753234,135.0037215102106 1580.450873991032,192.33824286519075 1514.9257067281976,257.86341012802524 C 1449.4005394653632,192.33824286519075 1465.7818312810718,135.0037215102106 1514.9257067281976,94.05049197093906 Z" fill="url(#leaf19)" opacity="0.23" transform="rotate(225.5 1514.9 176.0)"/>
    <path d="M 1515.0703820099181,109.01430030207143 C 1552.506860576996,140.21136577463625 1564.985686766022,183.887257436227 1515.0703820099181,233.8025621923307 C 1465.1550772538144,183.887257436227 1477.6339034428404,140.21136577463625 1515.0703820099181,109.01430030207143 Z" fill="url(#leaf0)" opacity="0.22" transform="rotate(108.3 1515.1 171.4)"/>
    <path d="M 1217.1936293790402,204.4296738899015 C 1269.1168217672728,247.69900088009538 1286.4245525633505,308.27605866636685 1217.1936293790402,377.50698185067705 C 1147.96270619473,308.27605866636685 1165.2704369908076,247.69900088009538 1217.1936293790402,204.4296738899015 Z" fill="url(#leaf1)" opacity="0.25" transform="rotate(108.6 1217.2 291.0)"/>
    <path d="M 1456.488121515086,818.3346749704233 C 1498.5975038673116,853.4258269306114 1512.633964651387,902.5534396748747 1456.488121515086,958.6992828111756 C 1400.342278378785,902.5534396748747 1414.3787391628605,853.4258269306114 1456.488121515086,818.3346749704233 Z" fill="url(#leaf2)" opacity="0.25" transform="rotate(33.7 1456.5 888.5)"/>
    <path d="M 900.8861757985428,106.49696574035883 C 926.7661181045928,128.0635843287338 935.3927655399428,158.25685035245883 900.8861757985428,192.7634400938588 C 866.3795860571428,158.25685035245883 875.0062334924928,128.0635843287338 900.8861757985428,106.49696574035883 Z" fill="url(#leaf3)" opacity="0.23" transform="rotate(226.1 900.9 149.6)"/>
    <path d="M 682.703886719028,658.9781877726298 C 739.8901241041988,706.6333855936053 758.952203232589,773.3506625429712 682.703886719028,849.5989790565322 C 606.455570205467,773.3506625429712 625.5176493338572,706.6333855936053 682.703886719028,658.9781877726298 Z" fill="url(#leaf4)" opacity="0.35" transform="rotate(301.1 682.7 754.3)"/>
    <path d="M 1423.3497358637242,655.092540231371 C 1467.9674547773093,692.2739726593586 1482.8400277485043,744.3279780585412 1423.3497358637242,803.8182699433214 C 1363.859443978944,744.3279780585412 1378.732016950139,692.2739726593586 1423.3497358637242,655.092540231371 Z" fill="url(#leaf5)" opacity="0.21" transform="rotate(226.6 1423.3 729.5)"/>
    <path d="M 1138.0882881797097,637.574717890513 C 1188.4351696333874,679.5304524352446 1205.21746345128,738.2684807978687 1138.0882881797097,805.3976560694391 C 1070.9591129081393,738.2684807978687 1087.741406726032,679.5304524352446 1138.0882881797097,637.574717890513 Z" fill="url(#leaf6)" opacity="0.27" transform="rotate(95.0 1138.1 721.5)"/>
    <path d="M 167.7526497713513,181.49098159179925 C 200.51987713190164,208.7970043922579 211.4422862520851,247.02543631289998 167.7526497713513,290.7150727936338 C 124.06301329061748,247.02543631289998 134.98542241080094,208.7970043922579 167.7526497713513,181.49098159179925 Z" fill="url(#leaf7)" opacity="0.35" transform="rotate(238.6 167.8 236.1)"/>
    <path d="M 1623.1244765026447,580.7585184206469 C 1668.4039431179144,618.491407266705 1683.4970986563378,671.3174516511864 1623.1244765026447,731.6900738048794 C 1562.7518543489516,671.3174516511864 1577.845009887375,618.491407266705 1623.1244765026447,580.7585184206469 Z" fill="url(#leaf8)" opacity="0.35" transform="rotate(262.8 1623.1 656.2)"/>
    <path d="M 74.02707110952738,595.8679466030263 C 125.65063066878298,638.8875795690727 142.85848385520154,699.1150657215376 74.02707110952738,767.9464784672117 C 5.195658363853241,699.1150657215376 22.40351155027178,638.8875795690727 74.02707110952738,595.8679466030263 Z" fill="url(#leaf9)" opacity="0.29" transform="rotate(229.2 74.0 681.9)"/>
    <path d="M 1352.9083431865884,722.8740288879316 C 1398.3833403984333,760.7698598978023 1413.5416728023815,813.8240233116214 1352.9083431865884,874.4573529274147 C 1292.2750135707952,813.8240233116214 1307.4333459747434,760.7698598978023 1352.9083431865884,722.8740288879316 Z" fill="url(#leaf10)" opacity="0.33" transform="rotate(160.0 1352.9 798.7)"/>
    <path d="M 99.44196635475242,141.08886377273592 C 132.22680841362157,168.4095654884602 143.1550890999113,206.65854789047424 99.44196635475242,250.3716706356331 C 55.72884360959355,206.65854789047424 66.65712429588328,168.4095654884602 99.44196635475242,141.08886377273592 Z" fill="url(#leaf11)" opacity="0.37" transform="rotate(16.6 99.4 195.7)"/>
    <path d="M 1584.2841781609623,619.4376139475521 C 1619.1722000260534,648.5109655017947 1630.8015406477505,689.2136576777342 1584.2841781609623,735.7310201645223 C 1537.766815674174,689.2136576777342 1549.3961562958712,648.5109655017947 1584.2841781609623,619.4376139475521 Z" fill="url(#leaf12)" opacity="0.23" transform="rotate(155.8 1584.3 677.6)"/>
    <path d="M 1294.9647052617854,448.0158188096725 C 1353.5786464846324,496.8607698287117 1373.1166268922482,565.2437012553665 1294.9647052617854,643.3956228858292 C 1216.8127836313226,565.2437012553665 1236.3507640389385,496.8607698287117 1294.9647052617854,448.0158188096725 Z" fill="url(#leaf13)" opacity="0.33" transform="rotate(272.9 1295.0 545.7)"/>
    <path d="M 1149.0736971209744,827.7363592745359 C 1201.6319715641393,871.5349213105067 1219.1513963785278,932.8529081608659 1149.0736971209744,1002.9306074184193 C 1078.995997863421,932.8529081608659 1096.5154226778095,871.5349213105067 1149.0736971209744,827.7363592745359 Z" fill="url(#leaf14)" opacity="0.37" transform="rotate(8.0 1149.1 915.3)"/>
    <path d="M 1685.0819847694215,519.7083352330651 C 1739.7127154271593,565.2339441145133 1757.9229589797387,628.9697965485408 1685.0819847694215,701.8107707588579 C 1612.2410105591043,628.9697965485408 1630.4512541116837,565.2339441145133 1685.0819847694215,519.7083352330651 Z" fill="url(#leaf15)" opacity="0.31" transform="rotate(145.4 1685.1 610.8)"/>
    <path d="M 559.4833960027377,902.0524850415359 C 585.1230739316676,923.418883315644 593.6696332413109,953.3318408993956 559.4833960027377,987.5180781379688 C 525.2971587641645,953.3318408993956 533.8437180738077,923.418883315644 559.4833960027377,902.0524850415359 Z" fill="url(#leaf16)" opacity="0.33" transform="rotate(112.1 559.5 944.8)"/>
    <path d="M 1089.8420392632086,100.60319268550116 C 1142.088921244895,144.14226100357303 1159.5045485721237,205.09695664887366 1089.8420392632086,274.7594659577887 C 1020.1795299542936,205.09695664887366 1037.5951572815222,144.14226100357303 1089.8420392632086,100.60319268550116 Z" fill="url(#leaf17)" opacity="0.27" transform="rotate(111.7 1089.8 187.7)"/>
    <path d="M 1648.305079084431,853.041711115715 C 1672.912797612358,873.5481432223206 1681.1153704550002,902.2571481715685 1648.305079084431,935.0674395421375 C 1615.494787713862,902.2571481715685 1623.6973605565042,873.5481432223206 1648.305079084431,853.041711115715 Z" fill="url(#leaf18)" opacity="0.23" transform="rotate(252.2 1648.3 894.1)"/>
    <path d="M 1803.5415691473195,128.47048752500012 C 1827.6038479260694,148.52238650729169 1835.624607518986,176.5950450824999 1803.5415691473195,208.67808345416643 C 1771.458530775653,176.5950450824999 1779.4792903685695,148.52238650729169 1803.5415691473195,128.47048752500012 Z" fill="url(#leaf19)" opacity="0.22" transform="rotate(156.8 1803.5 168.6)"/>
    <path d="M 1566.7604345925993,879.4236696074554 C 1618.6963735758088,922.70361876013 1636.0083532368787,983.2955475738744 1566.7604345925993,1052.5434662181538 C 1497.5125159483198,983.2955475738744 1514.8244956093897,922.70361876013 1566.7604345925993,879.4236696074554 Z" fill="url(#leaf0)" opacity="0.23" transform="rotate(262.4 1566.8 966.0)"/>
    <path d="M 317.54549746461356,521.6969872059144 C 357.6028933801525,555.0781504688636 370.95535868533216,601.8117790369923 317.54549746461356,655.221640257711 C 264.13563624389496,601.8117790369923 277.4881015490746,555.0781504688636 317.54549746461356,521.6969872059144 Z" fill="url(#leaf1)" opacity="0.20" transform="rotate(160.2 317.5 588.5)"/>
    <path d="M 1635.488852430787,158.05808100684686 C 1692.304487268649,205.4044433717319 1711.2430322146029,271.68935068257093 1635.488852430787,347.443530466387 C 1559.734672646971,271.68935068257093 1578.6732175929249,205.4044433717319 1635.488852430787,158.05808100684686 Z" fill="url(#leaf2)" opacity="0.36" transform="rotate(100.1 1635.5 252.8)"/>
    <path d="M 448.0217316892239,822.3268483643102 C 505.9882428634941,870.6322743428686 525.3104132549175,938.2598707128506 448.0217316892239,1015.5485522785442 C 370.73305012353023,938.2598707128506 390.05522051495365,870.6322743428686 448.0217316892239,822.3268483643102 Z" fill="url(#leaf3)" opacity="0.34" transform="rotate(240.7 448.0 918.9)"/>
    <path d="M 1770.2773054983377,710.5167684984399 C 1822.7311541354395,754.2283090293581 1840.215770347807,815.4244657726437 1770.2773054983377,885.3629306221128 C 1700.3388406488684,815.4244657726437 1717.8234568612359,754.2283090293581 1770.2773054983377,710.5167684984399 Z" fill="url(#leaf4)" opacity="0.29" transform="rotate(267.3 1770.3 797.9)"/>
    <path d="M 371.22796543574896,557.3534570369911 C 406.01676441914015,586.3441228564839 417.6130307469372,626.9310550037735 371.22796543574896,673.3161203149618 C 324.8429001245607,626.9310550037735 336.43916645235777,586.3441228564839 371.22796543574896,557.3534570369911 Z" fill="url(#leaf5)" opacity="0.33" transform="rotate(244.0 371.2 615.3)"/>
    <path d="M 1401.6982445826425,665.1131623731502 C 1441.7824307856715,698.5166508756745 1455.1438261866813,745.2815347792083 1401.6982445826425,798.7271163832471 C 1348.2526629786037,745.2815347792083 1361.6140583796134,698.5166508756745 1401.6982445826425,665.1131623731502 Z" fill="url(#leaf6)" opacity="0.29" transform="rotate(288.2 1401.7 731.9)"/>
    <path d="M 980.8833602501178,417.3074947553632 C 1032.0505797007163,459.9468442975286 1049.1063195175825,519.6419336565602 980.8833602501178,587.8648929240248 C 912.6604009826532,519.6419336565602 929.7161407995193,459.9468442975286 980.8833602501178,417.3074947553632 Z" fill="url(#leaf7)" opacity="0.30" transform="rotate(60.8 980.9 502.6)"/>
    <path d="M 1499.5918733825858,544.7750727482081 C 1537.607279999645,576.4545782624242 1550.2790822053314,620.8058859823266 1499.5918733825858,671.4930948050722 C 1448.9046645598403,620.8058859823266 1461.5764667655267,576.4545782624242 1499.5918733825858,544.7750727482081 Z" fill="url(#leaf8)" opacity="0.23" transform="rotate(20.3 1499.6 608.1)"/>
    <path d="M 449.98926817211367,295.5279375719276 C 484.8148270417918,324.5492366299927 496.4233466650178,365.17905531128383 449.98926817211367,411.613133804188 C 403.55518967920955,365.17905531128383 415.16370930243556,324.5492366299927 449.98926817211367,295.5279375719276 Z" fill="url(#leaf9)" opacity="0.31" transform="rotate(314.0 450.0 353.6)"/>
    <path d="M 389.30001003235833,439.4083656511332 C 438.62304317877204,480.51089327314463 455.06405422757666,538.0544319439607 389.30001003235833,603.818476139179 C 323.53596583714,538.0544319439607 339.9769768859446,480.51089327314463 389.30001003235833,439.4083656511332 Z" fill="url(#leaf10)" opacity="0.26" transform="rotate(141.8 389.3 521.6)"/>
    <path d="M 1671.6652152506713,817.6895130210348 C 1717.36720225187,855.7745021887005 1732.6011979189361,909.0934870234322 1671.6652152506713,970.0294696916972 C 1610.7292325824064,909.0934870234322 1625.9632282494726,855.7745021887005 1671.6652152506713,817.6895130210348 Z" fill="url(#leaf11)" opacity="0.39" transform="rotate(255.9 1671.7 893.9)"/>
    <path d="M 399.68212296094464,808.6258770054371 C 446.1116771846713,847.317172191876 461.5881952592469,901.4849854528904 399.68212296094464,963.3910577511926 C 337.7760506626424,901.4849854528904 353.252568737218,847.317172191876 399.68212296094464,808.6258770054371 Z" fill="url(#leaf12)" opacity="0.25" transform="rotate(94.2 399.7 886.0)"/>
    <path d="M 1453.8835911904823,339.6685126975927 C 1499.6896971597735,377.84026767200197 1514.9583991495372,431.2807246361749 1453.8835911904823,492.3555325952297 C 1392.8087832314275,431.2807246361749 1408.0774852211912,377.84026767200197 1453.8835911904823,339.6685126975927 Z" fill="url(#leaf13)" opacity="0.31" transform="rotate(345.2 1453.9 416.0)"/>
    <path d="M 123.55236316407762,519.7082764005316 C 163.93216249723966,553.3581091781666 177.39209560829366,600.4678750668558 123.55236316407762,654.3076075110718 C 69.71263071986158,600.4678750668558 83.17256383091558,553.3581091781666 123.55236316407762,519.7082764005316 Z" fill="url(#leaf14)" opacity="0.37" transform="rotate(248.2 123.6 587.0)"/>
    <path d="M 677.3551389525194,723.9660208900702 C 735.7459649144973,772.6250425250519 755.20957356849,840.7476728140261 677.3551389525194,918.6021074299967 C 599.5007043365488,840.7476728140261 618.9643129905414,772.6250425250519 677.3551389525194,723.9660208900702 Z" fill="url(#leaf15)" opacity="0.21" transform="rotate(214.9 677.4 821.3)"/>
    <path d="M 1074.7684347679572,797.2499690285437 C 1120.2063969206763,835.1149374891429 1135.3523843049159,888.1258933339818 1074.7684347679572,948.7098428709406 C 1014.1844852309983,888.1258933339818 1029.330472615238,835.1149374891429 1074.7684347679572,797.2499690285437 Z" fill="url(#leaf16)" opacity="0.21" transform="rotate(347.6 1074.8 873.0)"/>
    <path d="M 1207.5131882108167,916.1251125781218 C 1253.323149818385,954.3000805844288 1268.5931370209078,1007.7450357932584 1207.5131882108167,1068.8249846033493 C 1146.4332394007256,1007.7450357932584 1161.7032266032484,954.3000805844288 1207.5131882108167,916.1251125781218 Z" fill="url(#leaf17)" opacity="0.22" transform="rotate(264.7 1207.5 992.5)"/>
    <path d="M 1545.017397356239,644.9719297339718 C 1581.935232347191,675.7367922264318 1594.241177344175,718.8075997158758 1545.017397356239,768.0313797038118 C 1495.7936173683029,718.8075997158758 1508.0995623652868,675.7367922264318 1545.017397356239,644.9719297339718 Z" fill="url(#leaf18)" opacity="0.38" transform="rotate(282.6 1545.0 706.5)"/>
    <path d="M 1339.2936919796987,928.0617653377469 C 1381.968247265971,963.623894742974 1396.193099028062,1013.4108759102919 1339.2936919796987,1070.3102829586553 C 1282.3942849313353,1013.4108759102919 1296.6191366934263,963.623894742974 1339.2936919796987,928.0617653377469 Z" fill="url(#leaf19)" opacity="0.32" transform="rotate(216.9 1339.3 999.2)"/>
    <path d="M 796.8763291752535,413.8540211145445 C 845.7968140136991,454.6210918132491 862.1036422931809,511.69499079143554 796.8763291752535,576.9223039093629 C 731.6490160573262,511.69499079143554 747.955844336808,454.6210918132491 796.8763291752535,413.8540211145445 Z" fill="url(#leaf0)" opacity="0.30" transform="rotate(187.7 796.9 495.4)"/>
    <path d="M 1556.0686369440305,529.5263732602497 C 1613.2346265940937,577.1646979686358 1632.2899564774482,643.8583525603764 1556.0686369440305,720.0796720937941 C 1479.8473174106127,643.8583525603764 1498.9026472939672,577.1646979686358 1556.0686369440305,529.5263732602497 Z" fill="url(#leaf1)" opacity="0.22" transform="rotate(30.4 1556.1 624.8)"/>
    <path d="M 901.7667155301858,180.9255335203987 C 934.2829372765958,208.02238497574038 945.1216778587325,245.95797701321874 901.7667155301858,289.31293934176546 C 858.4117532016392,245.95797701321874 869.2504937837758,208.02238497574038 901.7667155301858,180.9255335203987 Z" fill="url(#leaf2)" opacity="0.23" transform="rotate(226.0 901.8 235.1)"/>
    <path d="M 1067.4070678825924,469.26928342278967 C 1114.8911253384515,508.8393313026723 1130.7191444904047,564.237398334508 1067.4070678825924,627.5494749423203 C 1004.0949912747801,564.237398334508 1019.9230104267332,508.8393313026723 1067.4070678825924,469.26928342278967 Z" fill="url(#leaf3)" opacity="0.24" transform="rotate(332.4 1067.4 548.4)"/>
    <path d="M 177.74155321251965,460.63853257037715 C 212.1762227181675,489.3340904917504 223.65444588671681,529.5078715816729 177.74155321251965,575.42076425587 C 131.82866053832248,529.5078715816729 143.3068837068718,489.3340904917504 177.74155321251965,460.63853257037715 Z" fill="url(#leaf4)" opacity="0.23" transform="rotate(22.0 177.7 518.0)"/>
    <path d="M 1370.7385256165112,386.27607844117864 C 1395.9323967516725,407.27097105381307 1404.3303537967263,436.6638207115012 1370.7385256165112,470.25564889171625 C 1337.146697436296,436.6638207115012 1345.5446544813499,407.27097105381307 1370.7385256165112,386.27607844117864 Z" fill="url(#leaf5)" opacity="0.27" transform="rotate(198.0 1370.7 428.3)"/>
    <path d="M 1654.3372106063534,476.2477473802855 C 1686.5416465285525,503.08477731545145 1697.276458502619,540.6566192246838 1654.3372106063534,583.5958671209494 C 1611.3979627100878,540.6566192246838 1622.1327746841544,503.08477731545145 1654.3372106063534,476.2477473802855 Z" fill="url(#leaf6)" opacity="0.22" transform="rotate(193.0 1654.3 529.9)"/>
    <path d="M 1093.057774590992,448.51096197033877 C 1151.9387671728975,497.57845578859343 1171.5657647001995,566.27294713415 1093.057774590992,644.7809372433572 C 1014.5497844817846,566.27294713415 1034.1767820090865,497.57845578859343 1093.057774590992,448.51096197033877 Z" fill="url(#leaf7)" opacity="0.39" transform="rotate(210.1 1093.1 546.6)"/>
    <path d="M 1798.4158788647933,569.6746698498092 C 1842.7523415549572,606.6217220916125 1857.5311624516785,658.3475952301369 1798.4158788647933,717.462878817022 C 1739.300595277908,658.3475952301369 1754.0794161746294,606.6217220916125 1798.4158788647933,569.6746698498092 Z" fill="url(#leaf8)" opacity="0.22" transform="rotate(97.3 1798.4 643.6)"/>
    <path d="M 922.2325498608424,811.8755674689909 C 969.8359375856668,851.5450572396778 985.7037334939416,907.0823429186397 922.2325498608424,970.5535265517389 C 858.7613662277431,907.0823429186397 874.629162136018,851.5450572396778 922.2325498608424,811.8755674689909 Z" fill="url(#leaf9)" opacity="0.33" transform="rotate(306.0 922.2 891.2)"/>
    <path d="M 1186.3890074968772,589.3787954452725 C 1239.0171841117494,633.2356092909995 1256.5599096500403,694.6351486750173 1186.3890074968772,764.8060508281803 C 1116.2181053437141,694.6351486750173 1133.760830882005,633.2356092909995 1186.3890074968772,589.3787954452725 Z" fill="url(#leaf10)" opacity="0.24" transform="rotate(359.1 1186.4 677.1)"/>
    <path d="M 950.2636876508233,134.62667408388458 C 1001.9137439180024,177.6683876398672 1019.1304293403955,237.92678661824291 950.2636876508233,306.7935283078151 C 881.396945961251,237.92678661824291 898.6136313836441,177.6683876398672 950.2636876508233,134.62667408388458 Z" fill="url(#leaf11)" opacity="0.22" transform="rotate(141.7 950.3 220.7)"/>
    <path d="M 722.4273919653108,814.8142539950634 C 781.5173127794469,864.0558546735101 801.2139530508257,932.9940956233356 722.4273919653108,1011.7806567088505 C 643.6408308797959,932.9940956233356 663.3374711511747,864.0558546735101 722.4273919653108,814.8142539950634 Z" fill="url(#leaf12)" opacity="0.35" transform="rotate(110.4 722.4 913.3)"/>
    <path d="M 1445.8008714944167,744.6864659442633 C 1505.154170841727,794.1475487336885 1524.938603957497,863.3930646388837 1445.8008714944167,942.530797101964 C 1366.6631390313364,863.3930646388837 1386.4475721471065,794.1475487336885 1445.8008714944167,744.6864659442633 Z" fill="url(#leaf13)" opacity="0.27" transform="rotate(94.4 1445.8 843.6)"/>
    <path d="M 1412.2992258016595,764.637295471133 C 1463.6912692529665,807.4639983472222 1480.821950403402,867.421382373747 1412.2992258016595,935.9441069754896 C 1343.776501199917,867.421382373747 1360.9071823503525,807.4639983472222 1412.2992258016595,764.637295471133 Z" fill="url(#leaf14)" opacity="0.35" transform="rotate(82.0 1412.3 850.3)"/>
    <path d="M 606.9235522558507,871.305393045049 C 659.8191193538462,915.3850322933785 677.450975053178,977.0965272410399 606.9235522558507,1047.6239500383672 C 536.3961294585234,977.0965272410399 554.0279851578553,915.3850322933785 606.9235522558507,871.305393045049 Z" fill="url(#leaf15)" opacity="0.33" transform="rotate(134.6 606.9 959.5)"/>
    <path d="M 459.1435723880579,356.0688144587808 C 495.6845877479,386.5196605919826 507.86492620118077,429.15084517846503 459.1435723880579,477.8721989915879 C 410.4222185749351,429.15084517846503 422.6025570282158,386.5196605919826 459.1435723880579,356.0688144587808 Z" fill="url(#leaf16)" opacity="0.39" transform="rotate(210.0 459.1 417.0)"/>
    <path d="M 809.1819756661278,355.35406364498215 C 841.953841591144,382.6639519158291 852.8777968994829,420.89779549501486 809.1819756661278,464.59361672836997 C 765.4861544327727,420.89779549501486 776.4101097411115,382.6639519158291 809.1819756661278,355.35406364498215 Z" fill="url(#leaf17)" opacity="0.29" transform="rotate(335.4 809.2 410.0)"/>
    <path d="M 202.30754158236707,905.2304172152849 C 243.14281533894405,939.2598120124323 256.75457325780303,986.9009647284388 202.30754158236707,1041.3479964038747 C 147.86050990693107,986.9009647284388 161.47226782579008,939.2598120124323 202.30754158236707,905.2304172152849 Z" fill="url(#leaf18)" opacity="0.21" transform="rotate(88.9 202.3 973.3)"/>
    <path d="M 93.75470968125218,141.34906079006902 C 125.91168331562397,168.14653881871217 136.63067452708123,205.66300805881258 93.75470968125218,248.53897290464164 C 50.87874483542313,205.66300805881258 61.59773604688039,168.14653881871217 93.75470968125218,141.34906079006902 Z" fill="url(#leaf19)" opacity="0.35" transform="rotate(22.4 93.8 194.9)"/>
    <path d="M 1746.6793648237729,154.02801923278432 C 1780.4607895877352,182.17920653608633 1791.721264509056,221.59086876070916 1746.6793648237729,266.6327684459924 C 1701.6374651384897,221.59086876070916 1712.8979400598105,182.17920653608633 1746.6793648237729,154.02801923278432 Z" fill="url(#leaf0)" opacity="0.24" transform="rotate(129.9 1746.7 210.3)"/>
    <path d="M 1178.644771232458,715.1274810951952 C 1204.2318565919106,736.4500522280724 1212.7608850450615,766.3016518141005 1178.644771232458,800.4177656267041 C 1144.5286574198544,766.3016518141005 1153.0576858730053,736.4500522280724 1178.644771232458,715.1274810951952 Z" fill="url(#leaf1)" opacity="0.26" transform="rotate(235.5 1178.6 757.8)"/>
    <path d="M 1792.1153574330167,335.4152403013125 C 1836.9494768957486,372.7770065202558 1851.894183383326,425.0834792267763 1792.1153574330167,484.8623051770855 C 1732.3365314827074,425.0834792267763 1747.2812379702848,372.7770065202558 1792.1153574330167,335.4152403013125 Z" fill="url(#leaf2)" opacity="0.33" transform="rotate(136.3 1792.1 410.1)"/>
    <path d="M 1052.9235145227076,871.3624222905936 C 1080.1794557708786,894.0757066640693 1089.2647695202688,925.8743047869353 1052.9235145227076,962.2155597844966 C 1016.5822595251464,925.8743047869353 1025.6675732745366,894.0757066640693 1052.9235145227076,871.3624222905936 Z" fill="url(#leaf3)" opacity="0.26" transform="rotate(165.0 1052.9 916.8)"/>
    <path d="M 847.0912597216386,893.3768546489868 C 885.5446227223515,925.4213238162474 898.3624103892557,970.2835806504125 847.0912597216386,1021.5547313180297 C 795.8201090540215,970.2835806504125 808.6378967209257,925.4213238162474 847.0912597216386,893.3768546489868 Z" fill="url(#leaf4)" opacity="0.36" transform="rotate(25.1 847.1 957.5)"/>
    <path d="M 1788.8650645245048,27.838704799742267 C 1821.2553007959689,54.830568359295626 1832.05204621979,92.61917734267034 1788.8650645245048,135.80615903795572 C 1745.6780828292194,92.61917734267034 1756.4748282530406,54.830568359295626 1788.8650645245048,27.838704799742267 Z" fill="url(#leaf5)" opacity="0.31" transform="rotate(201.1 1788.9 81.8)"/>
    <path d="M 404.2192248548204,790.8916498703144 C 432.22586367564764,814.230515554337 441.5614099492567,846.9049275119688 404.2192248548204,884.247112606405 C 366.87703976038415,846.9049275119688 376.2125860339932,814.230515554337 404.2192248548204,790.8916498703144 Z" fill="url(#leaf6)" opacity="0.28" transform="rotate(72.4 404.2 837.6)"/>
    <path d="M 1577.7718538252448,533.1961332982486 C 1629.5612867139234,576.353994038814 1646.8244310101495,636.7749990756057 1577.7718538252448,705.8275762605105 C 1508.71927664034,636.7749990756057 1525.982420936566,576.353994038814 1577.7718538252448,533.1961332982486 Z" fill="url(#leaf7)" opacity="0.24" transform="rotate(8.6 1577.8 619.5)"/>
    <path d="M 654.6740062378303,166.734350202006 C 702.2555019794611,206.385596653365 718.1160005600047,261.89734168526763 654.6740062378303,325.33933600744206 C 591.2320119156559,261.89734168526763 607.0925104961996,206.385596653365 654.6740062378303,166.734350202006 Z" fill="url(#leaf8)" opacity="0.32" transform="rotate(251.2 654.7 246.0)"/>
    <path d="M 775.506223755651,650.4820715470074 C 819.3793186782204,687.0429839824819 834.0036836524102,738.2282613921462 775.506223755651,796.7257212889054 C 717.0087638588918,738.2282613921462 731.6331288330816,687.0429839824819 775.506223755651,650.4820715470074 Z" fill="url(#leaf9)" opacity="0.22" transform="rotate(8.0 775.5 723.6)"/>
    <path d="M 50.32875261795645,-38.59344566485146 C 106.29882388803411,8.048280393546591 124.95551431139333,73.34669687530386 50.32875261795645,147.97345856874074 C -24.29800907548043,73.34669687530386 -5.641318652121214,8.048280393546591 50.32875261795645,-38.59344566485146 Z" fill="url(#leaf10)" opacity="0.27" transform="rotate(75.4 50.3 54.7)"/>
    <path d="M 1217.1954135874723,891.2638266290139 C 1256.472840947431,923.9950160956462 1269.5653167340838,969.8186813489312 1217.1954135874723,1022.1885844955427 C 1164.8255104408609,969.8186813489312 1177.9179862275137,923.9950160956462 1217.1954135874723,891.2638266290139 Z" fill="url(#leaf11)" opacity="0.39" transform="rotate(179.6 1217.2 956.7)"/>
    <path d="M 1106.8677637781154,229.32952600231266 C 1146.9258087420915,262.7112301389594 1160.2784903967504,309.445615930265 1106.8677637781154,362.8563425488998 C 1053.4570371594805,309.445615930265 1066.8097188141394,262.7112301389594 1106.8677637781154,229.32952600231266 Z" fill="url(#leaf12)" opacity="0.29" transform="rotate(185.8 1106.9 296.1)"/>
    <path d="M 1341.5604585411631,555.618577285327 C 1372.9943269244486,581.8134676047315 1383.4722830522105,618.4863140518979 1341.5604585411631,660.3981385629453 C 1299.6486340301158,618.4863140518979 1310.1265901578777,581.8134676047315 1341.5604585411631,555.618577285327 Z" fill="url(#leaf13)" opacity="0.35" transform="rotate(279.2 1341.6 608.0)"/>
    <path d="M 1381.9165681948866,797.669013353906 C 1433.562742711365,840.707492117638 1450.7781342168578,900.9613623868628 1381.9165681948866,969.822928408834 C 1313.0550021729155,900.9613623868628 1330.2703936784083,840.707492117638 1381.9165681948866,797.669013353906 Z" fill="url(#leaf14)" opacity="0.40" transform="rotate(255.5 1381.9 883.7)"/>
    <path d="M 1092.9949179726905,514.1665675684735 C 1151.622051786004,563.0225124129014 1171.1644297237751,631.4208351951004 1092.9949179726905,709.590346946185 C 1014.8254062216058,631.4208351951004 1034.367784159377,563.0225124129014 1092.9949179726905,514.1665675684735 Z" fill="url(#leaf15)" opacity="0.36" transform="rotate(197.0 1093.0 611.9)"/>
    <path d="M 1523.7435349644825,491.7535361071091 C 1569.9266668049918,530.2394793075337 1585.3210440851617,584.1197997881279 1523.7435349644825,645.6973089088071 C 1462.1660258438033,584.1197997881279 1477.5604031239732,530.2394793075337 1523.7435349644825,491.7535361071091 Z" fill="url(#leaf16)" opacity="0.36" transform="rotate(144.9 1523.7 568.7)"/>
    <path d="M 1850.6782053208365,237.3408966992137 C 1887.371988311245,267.91904919122084 1899.603249308048,310.7284626800309 1850.6782053208365,359.65350666724237 C 1801.753161333625,310.7284626800309 1813.9844223304278,267.91904919122084 1850.6782053208365,237.3408966992137 Z" fill="url(#leaf17)" opacity="0.29" transform="rotate(309.2 1850.7 298.5)"/>
    <path d="M 1472.701068713501,889.1279873136303 C 1517.205502279968,926.2150152856861 1532.0403134687901,978.1368544465643 1472.701068713501,1037.4760992018535 C 1413.3618239582117,978.1368544465643 1428.196635147034,926.2150152856861 1472.701068713501,889.1279873136303 Z" fill="url(#leaf18)" opacity="0.32" transform="rotate(249.5 1472.7 963.3)"/>
    <path d="M 214.0438577495528,45.89352688173908 C 259.4478715176048,83.73020502178241 274.58254277362215,136.70155441784308 214.0438577495528,197.24023944191242 C 153.50517272548348,136.70155441784308 168.6398439815008,83.73020502178241 214.0438577495528,45.89352688173908 Z" fill="url(#leaf19)" opacity="0.32" transform="rotate(121.2 214.0 121.6)"/>
    <path d="M 1717.935950035345,734.4872605818815 C 1743.9724751957285,756.1843648822012 1752.6513169158563,786.5603109026486 1717.935950035345,821.27567778316 C 1683.2205831548338,786.5603109026486 1691.8994248749616,756.1843648822012 1717.935950035345,734.4872605818815 Z" fill="url(#leaf0)" opacity="0.31" transform="rotate(107.4 1717.9 777.9)"/>
    <path d="M 730.5377682006574,45.97570899895564 C 776.6768624755249,84.42495422801191 792.0565605671475,138.2538975486907 730.5377682006574,199.77268991518073 C 669.0189758341673,138.2538975486907 684.3986739257899,84.42495422801191 730.5377682006574,45.97570899895564 Z" fill="url(#leaf1)" opacity="0.21" transform="rotate(134.1 730.5 122.9)"/>
    <path d="M 1728.0077894767874,501.9613023832144 C 1772.3266646347117,538.8936983481514 1787.0996230206865,590.5990526990632 1728.0077894767874,649.6908862429625 C 1668.9159559328882,590.5990526990632 1683.688914318863,538.8936983481514 1728.0077894767874,501.9613023832144 Z" fill="url(#leaf2)" opacity="0.31" transform="rotate(285.2 1728.0 575.8)"/>
    <path d="M 295.98433406829054,408.9999744749886 C 334.5410529731277,441.13057356235294 347.39329260807347,486.11341228466296 295.98433406829054,537.5223708244459 C 244.57537552850764,486.11341228466296 257.42761516345337,441.13057356235294 295.98433406829054,408.9999744749886 Z" fill="url(#leaf3)" opacity="0.24" transform="rotate(351.9 296.0 473.3)"/>
    <path d="M 995.5327650275092,430.4346108789377 C 1027.931822875274,457.4338257520752 1038.731508824529,495.2327265744677 995.5327650275092,538.4314703714876 C 952.3340212304892,495.2327265744677 963.1337071797442,457.4338257520752 995.5327650275092,430.4346108789377 Z" fill="url(#leaf4)" opacity="0.39" transform="rotate(10.7 995.5 484.4)"/>
    <path d="M 1763.2823815071206,937.8415683210836 C 1810.8907535075105,977.515211654742 1826.7602108409737,1033.0583123218635 1763.2823815071206,1096.5361416557166 C 1699.8045521732674,1033.0583123218635 1715.6740095067307,977.515211654742 1763.2823815071206,937.8415683210836 Z" fill="url(#leaf5)" opacity="0.36" transform="rotate(295.5 1763.3 1017.2)"/>
    <path d="M 1358.5527313579958,180.35187407442896 C 1411.130009965622,224.16627291411763 1428.6557695014976,285.50643128968176 1358.5527313579958,355.6094694331836 C 1288.449693214494,285.50643128968176 1305.9754527503694,224.16627291411763 1358.5527313579958,180.35187407442896 Z" fill="url(#leaf6)" opacity="0.39" transform="rotate(13.2 1358.6 268.0)"/>
    <path d="M 495.75672617898834,862.3467720236391 C 539.939872592121,899.1660607012496 554.6675880631652,950.7130648499044 495.75672617898834,1009.6239267340812 C 436.84586429481146,950.7130648499044 451.5735797658557,899.1660607012496 495.75672617898834,862.3467720236391 Z" fill="url(#leaf7)" opacity="0.27" transform="rotate(8.6 495.8 936.0)"/>
    <path d="M 1168.2484613898152,933.7452484461577 C 1207.0311250290415,966.0641348121796 1219.9586795754503,1011.3105757246102 1168.2484613898152,1063.0207939102452 C 1116.5382432041802,1011.3105757246102 1129.465797750589,966.0641348121796 1168.2484613898152,933.7452484461577 Z" fill="url(#leaf8)" opacity="0.26" transform="rotate(194.9 1168.2 998.4)"/>
    <path d="M 918.9542190343509,839.7327369801452 C 975.505424787708,886.8587417746095 994.3558267054937,952.8351484868593 918.9542190343509,1028.236756158002 C 843.5526113632081,952.8351484868593 862.4030132809938,886.8587417746095 918.9542190343509,839.7327369801452 Z" fill="url(#leaf9)" opacity="0.30" transform="rotate(345.3 919.0 934.0)"/>
    <path d="M 924.1811124409035,54.42801784630703 C 973.0560031032782,95.15709339828594 989.3476333240698,152.17779917105642 924.1811124409035,217.34432005422266 C 859.0145915577372,152.17779917105642 875.3062217785288,95.15709339828594 924.1811124409035,54.42801784630703 Z" fill="url(#leaf10)" opacity="0.20" transform="rotate(194.0 924.2 135.9)"/>
    <path d="M 1141.1268016009712,885.6913557591067 C 1190.343060289343,926.7049046660832 1206.7484798521334,984.1238731358501 1141.1268016009712,1049.7455513870123 C 1075.505123349809,984.1238731358501 1091.9105429125996,926.7049046660832 1141.1268016009712,885.6913557591067 Z" fill="url(#leaf11)" opacity="0.39" transform="rotate(9.5 1141.1 967.7)"/>
    <path d="M 817.5829660454659,117.84528398786814 C 869.7449896581775,161.3136369984611 887.1323308624146,222.16933121329123 817.5829660454659,291.71869603024 C 748.0336012285172,222.16933121329123 765.4209424327544,161.3136369984611 817.5829660454659,117.84528398786814 Z" fill="url(#leaf12)" opacity="0.22" transform="rotate(140.3 817.6 204.8)"/>
    <path d="M 667.3235138245514,377.82010464004105 C 723.3610003679095,424.5180100928395 742.0401625490289,489.8950777267574 667.3235138245514,564.611726451235 C 592.6068651000738,489.8950777267574 611.2860272811932,424.5180100928395 667.3235138245514,377.82010464004105 Z" fill="url(#leaf13)" opacity="0.23" transform="rotate(171.4 667.3 471.2)"/>
    <path d="M 1790.9297415474373,127.49414674793984 C 1832.6576410890327,162.2673963659361 1846.5669409362313,210.94994583113086 1790.9297415474373,266.5871452199249 C 1735.2925421586433,210.94994583113086 1749.2018420058419,162.2673963659361 1790.9297415474373,127.49414674793984 Z" fill="url(#leaf14)" opacity="0.27" transform="rotate(325.7 1790.9 197.0)"/>
    <path d="M 1852.4071348043854,-11.52233011446323 C 1909.0597644295094,35.68819457314009 1927.9439743045507,101.78292913578474 1852.4071348043854,177.31976863595003 C 1776.87029530422,101.78292913578474 1795.7545051792613,35.68819457314009 1852.4071348043854,-11.52233011446323 Z" fill="url(#leaf15)" opacity="0.31" transform="rotate(211.6 1852.4 82.9)"/>
    <path d="M 281.9063773739151,385.0409817535069 C 322.7245562611325,419.05613082618805 336.33061589020497,466.6773395279416 281.9063773739151,521.1015780442315 C 227.4821388576253,466.6773395279416 241.08819848669776,419.05613082618805 281.9063773739151,385.0409817535069 Z" fill="url(#leaf16)" opacity="0.21" transform="rotate(213.6 281.9 453.1)"/>
    <path d="M 1786.1874127117337,240.45874728635798 C 1840.753504538709,285.9304904755041 1858.9422018143675,349.5909309403086 1786.1874127117337,422.3457200429424 C 1713.4326236091,349.5909309403086 1731.6213208847585,285.9304904755041 1786.1874127117337,240.45874728635798 Z" fill="url(#leaf17)" opacity="0.30" transform="rotate(93.0 1786.2 331.4)"/>
    <path d="M 1836.2873089647305,806.6839912146306 C 1895.464532089809,855.9983438188626 1915.1902731315017,925.0384374647875 1836.2873089647305,1003.9414016315588 C 1757.3843447979593,925.0384374647875 1777.1100858396521,855.9983438188626 1836.2873089647305,806.6839912146306 Z" fill="url(#leaf18)" opacity="0.31" transform="rotate(323.9 1836.3 905.3)"/>
    <path d="M 664.4624785420139,77.78099614211212 C 719.3802160335173,123.54577738503168 737.6861285306852,187.6164711251191 664.4624785420139,260.84012111379036 C 591.2388285533425,187.6164711251191 609.5447410505104,123.54577738503168 664.4624785420139,77.78099614211212 Z" fill="url(#leaf19)" opacity="0.35" transform="rotate(290.9 664.5 169.3)"/>
    <path d="M 1736.2985706916313,68.69631309919737 C 1779.7494663964824,104.90539285323997 1794.2330982980995,155.5981045088996 1736.2985706916313,213.5326321153678 C 1678.364043085163,155.5981045088996 1692.8476749867802,104.90539285323997 1736.2985706916313,68.69631309919737 Z" fill="url(#leaf0)" opacity="0.27" transform="rotate(87.1 1736.3 141.1)"/>
    <path d="M 1204.1788554323443,406.24351719030665 C 1264.013504499209,456.1057247460272 1283.9583875214971,525.9128153240359 1204.1788554323443,605.6923474131888 C 1124.3993233431916,525.9128153240359 1144.3442063654797,456.1057247460272 1204.1788554323443,406.24351719030665 Z" fill="url(#leaf1)" opacity="0.36" transform="rotate(318.6 1204.2 506.0)"/>
    <path d="M 1253.9678620209122,422.37019826940025 C 1313.5525754632924,472.02412613805046 1333.4141466107526,541.5396251541607 1253.9678620209122,620.9859097440011 C 1174.5215774310718,541.5396251541607 1194.383148578532,472.02412613805046 1253.9678620209122,422.37019826940025 Z" fill="url(#leaf2)" opacity="0.25" transform="rotate(299.0 1254.0 521.7)"/>
    <path d="M 378.5498945158615,348.10928126704255 C 424.6432963943977,386.520449499156 440.007763687243,440.29608502411475 378.5498945158615,501.75395419549625 C 317.09202534448,440.29608502411475 332.45649263732537,386.520449499156 378.5498945158615,348.10928126704255 Z" fill="url(#leaf3)" opacity="0.20" transform="rotate(271.0 378.5 424.9)"/>
    <path d="M 1557.446888652935,-12.522390382192071 C 1612.0348747283642,32.967598013998995 1630.2308700868407,96.65358176866648 1557.446888652935,169.4375632025722 C 1484.6629072190294,96.65358176866648 1502.858902577506,32.967598013998995 1557.446888652935,-12.522390382192071 Z" fill="url(#leaf4)" opacity="0.24" transform="rotate(151.9 1557.4 78.5)"/>
    <path d="M 198.54587570411076,97.470409459023 C 224.46599305455902,119.07050725106322 233.1060321713751,149.3106441599195 198.54587570411076,183.87080062718383 C 163.98571923684642,149.3106441599195 172.6257583536625,119.07050725106322 198.54587570411076,97.470409459023 Z" fill="url(#leaf5)" opacity="0.32" transform="rotate(4.0 198.5 140.7)"/>
    <path d="M 1093.9614427309543,519.093409698223 C 1120.3322359117162,541.0690706821913 1129.1225003053034,571.8349960597468 1093.9614427309543,606.9960536340959 C 1058.8003851566052,571.8349960597468 1067.5906495501924,541.0690706821913 1093.9614427309543,519.093409698223 Z" fill="url(#leaf6)" opacity="0.27" transform="rotate(115.4 1094.0 563.0)"/>
    <path d="M 1366.9904119646765,372.08590370311316 C 1403.4859687597652,402.4988676990204 1415.651154358128,445.07701729329057 1366.9904119646765,493.7377596867422 C 1318.329669571225,445.07701729329057 1330.4948551695877,402.4988676990204 1366.9904119646765,372.08590370311316 Z" fill="url(#leaf7)" opacity="0.27" transform="rotate(133.8 1367.0 432.9)"/>
    <path d="M 1338.372950451955,768.7673418733805 C 1362.745816630986,789.0780636892397 1370.8701053573297,817.5130742314426 1338.372950451955,850.0102291368173 C 1305.87579554658,817.5130742314426 1314.000084272924,789.0780636892397 1338.372950451955,768.7673418733805 Z" fill="url(#leaf8)" opacity="0.28" transform="rotate(124.8 1338.4 809.4)"/>
    <path d="M 1362.3879859079118,42.41560843152803 C 1407.2498785416778,79.80051895966639 1422.2038427529333,132.1393936990601 1362.3879859079118,191.95525054408145 C 1302.5721290628903,132.1393936990601 1317.5260932741458,79.80051895966639 1362.3879859079118,42.41560843152803 Z" fill="url(#leaf9)" opacity="0.25" transform="rotate(269.1 1362.4 117.2)"/>
    <path d="M 1774.721559205242,401.96915927596206 C 1827.3924475814586,445.86156625614234 1844.9494103735306,507.31093602839474 1774.721559205242,577.5387871966832 C 1704.4937080369536,507.31093602839474 1722.0506708290256,445.86156625614234 1774.721559205242,401.96915927596206 Z" fill="url(#leaf10)" opacity="0.28" transform="rotate(189.1 1774.7 489.8)"/>
    <path d="M 427.7727353607052,53.793618792671566 C 471.47204399616226,90.20970932221908 486.03848020798125,141.1922360635856 427.7727353607052,199.45798091086164 C 369.5069905134292,141.1922360635856 384.07342672524817,90.20970932221908 427.7727353607052,53.793618792671566 Z" fill="url(#leaf11)" opacity="0.38" transform="rotate(191.3 427.8 126.6)"/>
    <path d="M 1503.0314594191539,520.2174095564911 C 1546.1775534682768,556.1724879307602 1560.5595848179844,606.5095976547368 1503.0314594191539,664.0377230535672 C 1445.5033340203233,606.5095976547368 1459.885365370031,556.1724879307602 1503.0314594191539,520.2174095564911 Z" fill="url(#leaf12)" opacity="0.37" transform="rotate(256.5 1503.0 592.1)"/>
    <path d="M 1615.6864211070745,151.9723717531535 C 1672.355636065496,199.1967175518381 1691.2453743849699,265.3108016699966 1615.6864211070745,340.8697549478919 C 1540.127467829179,265.3108016699966 1559.017206148653,199.1967175518381 1615.6864211070745,151.9723717531535 Z" fill="url(#leaf13)" opacity="0.27" transform="rotate(309.9 1615.7 246.4)"/>
    <path d="M 1072.1303929971082,768.2446400943139 C 1120.79837719828,808.8012935952904 1137.0210385986704,865.5806084966574 1072.1303929971082,930.4712540982197 C 1007.2397473955459,865.5806084966574 1023.4624087959364,808.8012935952904 1072.1303929971082,768.2446400943139 Z" fill="url(#leaf14)" opacity="0.34" transform="rotate(165.0 1072.1 849.4)"/>
    <path d="M 1716.2130039502306,247.3045696133229 C 1748.9102274973327,274.55225590257464 1759.8093020130334,312.6990167075271 1716.2130039502306,356.2953147703299 C 1672.6167058874278,312.6990167075271 1683.5157804031285,274.55225590257464 1716.2130039502306,247.3045696133229 Z" fill="url(#leaf15)" opacity="0.36" transform="rotate(222.3 1716.2 301.8)"/>
    <path d="M 1119.238863706089,230.5951766609725 C 1165.8941898534033,269.4746151170678 1181.4459652358414,323.9058289556012 1119.238863706089,386.1129304853537 C 1057.0317621763365,323.9058289556012 1072.5835375587747,269.4746151170678 1119.238863706089,230.5951766609725 Z" fill="url(#leaf16)" opacity="0.35" transform="rotate(347.0 1119.2 308.4)"/>
    <path d="M 1772.434796038884,840.8161832812262 C 1804.3866754134285,867.44274942668 1815.0373018716102,904.7199420303153 1772.434796038884,947.3224478630415 C 1729.832290206158,904.7199420303153 1740.4829166643397,867.44274942668 1772.434796038884,840.8161832812262 Z" fill="url(#leaf17)" opacity="0.26" transform="rotate(143.4 1772.4 894.1)"/>
    <path d="M 1569.591914855167,421.3767098730484 C 1609.5791492390665,454.69940519296455 1622.9082273670329,501.35117864084714 1569.591914855167,554.667491152713 C 1516.2756023433012,501.35117864084714 1529.6046804712676,454.69940519296455 1569.591914855167,421.3767098730484 Z" fill="url(#leaf18)" opacity="0.29" transform="rotate(161.8 1569.6 488.0)"/>
    <path d="M 527.5393567628798,384.5558076026947 C 582.4866996038237,430.34525997014794 600.802480550805,494.4504932845824 527.5393567628798,567.7136170725075 C 454.2762329749547,494.4504932845824 472.592013921936,430.34525997014794 527.5393567628798,384.5558076026947 Z" fill="url(#leaf19)" opacity="0.26" transform="rotate(359.4 527.5 476.1)"/>
    <path d="M 457.4046678583544,562.3880820371203 C 512.9061031579998,608.6392781201581 531.406581591215,673.390952636411 457.4046678583544,747.3928663692716 C 383.40275412549386,673.390952636411 401.90323255870896,608.6392781201581 457.4046678583544,562.3880820371203 Z" fill="url(#leaf0)" opacity="0.22" transform="rotate(246.8 457.4 654.9)"/>
    <path d="M 1333.8551737235582,895.1353496675463 C 1375.1215697412142,929.524013015593 1388.877035080433,977.6681417028585 1333.8551737235582,1032.6900030597333 C 1278.8333123666835,977.6681417028585 1292.5887777059022,929.524013015593 1333.8551737235582,895.1353496675463 Z" fill="url(#leaf1)" opacity="0.21" transform="rotate(133.4 1333.9 963.9)"/>
    <path d="M 175.69496383921225,457.71058495425854 C 221.42480974350195,495.8187898745 236.66809171159855,549.170276762838 175.69496383921225,610.1434046352242 C 114.72183596682595,549.170276762838 129.96511793492255,495.8187898745 175.69496383921225,457.71058495425854 Z" fill="url(#leaf2)" opacity="0.23" transform="rotate(284.8 175.7 533.9)"/>
    <path d="M 1732.771917257872,438.3496471263071 C 1790.7241995832644,486.6432157308008 1810.041627025062,554.254211777092 1732.771917257872,631.523921544282 C 1655.502207490682,554.254211777092 1674.8196349324796,486.6432157308008 1732.771917257872,438.3496471263071 Z" fill="url(#leaf3)" opacity="0.33" transform="rotate(320.8 1732.8 534.9)"/>
    <path d="M 226.347329932565,588.9205664964262 C 272.6985811088414,627.5466091433232 288.14899816760015,681.623068848979 226.347329932565,743.424737084014 C 164.54566169752985,681.623068848979 179.99607875628863,627.5466091433232 226.347329932565,588.9205664964262 Z" fill="url(#leaf4)" opacity="0.30" transform="rotate(35.2 226.3 666.2)"/>
    <path d="M 950.1280763801365,262.1277898606184 C 989.9369159826804,295.3018228627384 1003.2065291835283,341.7454690657063 950.1280763801365,394.8239218690982 C 897.0496235767446,341.7454690657063 910.3192367775926,295.3018228627384 950.1280763801365,262.1277898606184 Z" fill="url(#leaf5)" opacity="0.27" transform="rotate(250.7 950.1 328.5)"/>
    <path d="M 1081.6527894441217,150.89156314200676 C 1123.3473497602108,185.6370300720811 1137.2455365322405,234.28068377418515 1081.6527894441217,289.8734308623041 C 1026.060042356003,234.28068377418515 1039.9582291280326,185.6370300720811 1081.6527894441217,150.89156314200676 Z" fill="url(#leaf6)" opacity="0.29" transform="rotate(127.4 1081.7 220.4)"/>
    <path d="M 61.784826474545184,316.9864106604219 C 86.37946656063181,337.4819440654941 94.57767992266068,366.17569083259514 61.784826474545184,398.96854428071066 C 28.99197302642969,366.17569083259514 37.190186388458564,337.4819440654941 61.784826474545184,316.9864106604219 Z" fill="url(#leaf7)" opacity="0.31" transform="rotate(133.6 61.8 358.0)"/>
    <path d="M 542.801835691168,174.31229936999642 C 590.1649901592526,213.78159476006698 605.9527083152809,269.03860830616577 542.801835691168,332.1894809302787 C 479.65096306705505,269.03860830616577 495.4386812230833,213.78159476006698 542.801835691168,174.31229936999642 Z" fill="url(#leaf8)" opacity="0.20" transform="rotate(359.5 542.8 253.3)"/>
    <path d="M 546.2243724546777,623.4683280709054 C 581.6812394515221,653.0157172349424 593.5001951171369,694.3820620645942 546.2243724546777,741.6578847270533 C 498.9485497922185,694.3820620645942 510.7675054578333,653.0157172349424 546.2243724546777,623.4683280709054 Z" fill="url(#leaf9)" opacity="0.36" transform="rotate(101.5 546.2 682.6)"/>
    <path d="M 1278.1462100075992,299.98248606695444 C 1335.97967997733,348.1770443750636 1355.257503300574,415.6494260064165 1278.1462100075992,492.76071929939116 C 1201.0349167146244,415.6494260064165 1220.3127400378683,348.1770443750636 1278.1462100075992,299.98248606695444 Z" fill="url(#leaf10)" opacity="0.34" transform="rotate(30.2 1278.1 396.4)"/>
    <path d="M 1319.355754810025,846.1476751270766 C 1372.5897070923943,890.509302029051 1390.3343578531842,952.6155796918152 1319.355754810025,1023.5941827349743 C 1248.3771517668658,952.6155796918152 1266.1218025276557,890.509302029051 1319.355754810025,846.1476751270766 Z" fill="url(#leaf11)" opacity="0.22" transform="rotate(180.4 1319.4 934.9)"/>
    <path d="M 1489.2836398515913,189.7601935137053 C 1534.945258927319,227.8115427434784 1550.1657986192283,281.0834316651608 1489.2836398515913,341.96559043279774 C 1428.4014810839542,281.0834316651608 1443.6220207758636,227.8115427434784 1489.2836398515913,189.7601935137053 Z" fill="url(#leaf12)" opacity="0.25" transform="rotate(22.7 1489.3 265.9)"/>
    <path d="M 1343.1690068567868,709.9006118137315 C 1383.1134260210088,743.1876277839165 1396.428232409083,789.7894501421755 1343.1690068567868,843.0486756944715 C 1289.9097813044907,789.7894501421755 1303.224587692565,743.1876277839165 1343.1690068567868,709.9006118137315 Z" fill="url(#leaf13)" opacity="0.40" transform="rotate(239.1 1343.2 776.5)"/>
    <path d="M 1681.989141015182,508.39987404708586 C 1717.854327179883,538.2875291843369 1729.8093892347836,580.1302463764882 1681.989141015182,627.9504945960898 C 1634.1688927955804,580.1302463764882 1646.123954850481,538.2875291843369 1681.989141015182,508.39987404708586 Z" fill="url(#leaf14)" opacity="0.36" transform="rotate(229.9 1682.0 568.2)"/>
    <path d="M 242.1989946558333,96.97353557216002 C 289.40163433800063,136.30906864063277 305.1358475653897,191.37881493649462 242.1989946558333,254.31566784605104 C 179.26214174627688,191.37881493649462 194.996354973666,136.30906864063277 242.1989946558333,96.97353557216002 Z" fill="url(#leaf15)" opacity="0.24" transform="rotate(155.0 242.2 175.6)"/>
    <path d="M 1602.7363249655818,895.8588365295911 C 1647.3919971367752,933.0718966722524 1662.2772211938398,985.1701808719779 1602.7363249655818,1044.7110771002358 C 1543.195428737324,985.1701808719779 1558.0806527943885,933.0718966722524 1602.7363249655818,895.8588365295911 Z" fill="url(#leaf16)" opacity="0.32" transform="rotate(63.8 1602.7 970.3)"/>
    <path d="M 1270.34031425451,817.6564222827343 C 1310.6095397542313,851.2141101991687 1324.0326149208051,898.1948732821768 1270.34031425451,951.8871739484717 C 1216.648013588215,898.1948732821768 1230.071088754789,851.2141101991687 1270.34031425451,817.6564222827343 Z" fill="url(#leaf17)" opacity="0.24" transform="rotate(321.5 1270.3 884.8)"/>
    <path d="M 161.8203967779548,256.15494818246884 C 214.44769382549833,300.0110290554218 231.99012617467952,361.4095422775559 161.8203967779548,431.57927167428056 C 91.6506673812301,361.4095422775559 109.19309973041129,300.0110290554218 161.8203967779548,256.15494818246884 Z" fill="url(#leaf18)" opacity="0.23" transform="rotate(186.3 161.8 343.9)"/>
    <path d="M 65.68477023051483,189.6117005239923 C 94.02276385315477,213.2266952095256 103.4687617273681,246.2876877692722 65.68477023051483,284.07167926612544 C 27.90077873366156,246.2876877692722 37.34677660787489,213.2266952095256 65.68477023051483,189.6117005239923 Z" fill="url(#leaf19)" opacity="0.36" transform="rotate(353.5 65.7 236.8)"/>
    <path d="M 351.09683523887685,636.0340378309169 C 390.8985150583454,669.2021043471407 404.16574166483497,715.637397469854 351.09683523887685,768.7063038958121 C 298.02792881291873,715.637397469854 311.2951554194083,669.2021043471407 351.09683523887685,636.0340378309169 Z" fill="url(#leaf0)" opacity="0.34" transform="rotate(39.8 351.1 702.4)"/>
    <path d="M 666.4970532072205,112.40514882621018 C 718.4533545748657,155.70206663258114 735.772121697414,216.3177515615005 666.4970532072205,285.59282005169405 C 597.2219847170269,216.3177515615005 614.5407518395753,155.70206663258114 666.4970532072205,112.40514882621018 Z" fill="url(#leaf1)" opacity="0.34" transform="rotate(161.2 666.5 199.0)"/>
    <path d="M 1221.6890105898024,618.7574357750705 C 1274.6057874208086,662.854749800909 1292.244713031144,724.5909894370828 1221.6890105898024,795.1466918784245 C 1151.1333081484606,724.5909894370828 1168.7722337587961,662.854749800909 1221.6890105898024,618.7574357750705 Z" fill="url(#leaf2)" opacity="0.28" transform="rotate(222.0 1221.7 707.0)"/>
    <path d="M 1484.1249904007027,328.31697994689637 C 1526.9940988269213,364.04123696874535 1541.283801635661,414.0551967993339 1484.1249904007027,471.2140080342922 C 1426.9661791657445,414.0551967993339 1441.255881974484,364.04123696874535 1484.1249904007027,328.31697994689637 Z" fill="url(#leaf3)" opacity="0.29" transform="rotate(145.1 1484.1 399.8)"/>
    <path d="M 900.3949574839229,221.20567688123595 C 957.3168363765751,268.6405759584461 976.2907960074591,335.0494346665403 900.3949574839229,410.9452731900766 C 824.4991189603867,335.0494346665403 843.4730785912707,268.6405759584461 900.3949574839229,221.20567688123595 Z" fill="url(#leaf4)" opacity="0.36" transform="rotate(350.2 900.4 316.1)"/>
    <path d="M 1501.867217293115,100.22170414122343 C 1539.6992371822591,131.74838738217693 1552.3099104786404,175.88574391951184 1501.867217293115,226.32843710503744 C 1451.4245241075894,175.88574391951184 1464.0351974039706,131.74838738217693 1501.867217293115,100.22170414122343 Z" fill="url(#leaf5)" opacity="0.30" transform="rotate(172.8 1501.9 163.3)"/>
    <path d="M 203.44280717990753,232.43417971645275 C 238.97128194208005,262.0412420182632 250.81410686280424,303.4911292407978 203.44280717990753,350.86242892369455 C 156.07150749701083,303.4911292407978 167.914332417735,262.0412420182632 203.44280717990753,232.43417971645275 Z" fill="url(#leaf6)" opacity="0.27" transform="rotate(189.3 203.4 291.6)"/>
    <path d="M 1475.8654043599395,445.0247993793925 C 1533.5714928373413,493.11320644389417 1552.8068556631422,560.4369763341964 1475.8654043599395,637.378427637399 C 1398.9239530567368,560.4369763341964 1418.1593158825376,493.11320644389417 1475.8654043599395,445.0247993793925 Z" fill="url(#leaf7)" opacity="0.26" transform="rotate(106.3 1475.9 541.2)"/>
    <path d="M 765.5484974611068,63.564264715290676 C 825.3602161964756,113.4073636614313 845.2974557749318,183.1877021860282 765.5484974611068,262.9366604998532 C 685.7995391472817,183.1877021860282 705.736778725738,113.4073636614313 765.5484974611068,63.564264715290676 Z" fill="url(#leaf8)" opacity="0.25" transform="rotate(101.6 765.5 163.3)"/>
    <path d="M 347.03834777434037,373.7875980671161 C 394.23588619896947,413.1188800876404 409.96839900717913,468.1826749163743 347.03834777434037,531.112726149213 C 284.1082965415016,468.1826749163743 299.84080934971126,413.1188800876404 347.03834777434037,373.7875980671161 Z" fill="url(#leaf9)" opacity="0.38" transform="rotate(178.5 347.0 452.5)"/>
    <path d="M 1304.5702986948684,782.742653035681 C 1332.8121356148483,806.2775171356642 1342.2260812548416,839.2263268756407 1304.5702986948684,876.8821094356139 C 1266.9145161348952,839.2263268756407 1276.3284617748884,806.2775171356642 1304.5702986948684,782.742653035681 Z" fill="url(#leaf10)" opacity="0.29" transform="rotate(156.0 1304.6 829.8)"/>
    <path d="M 1191.294618624918,699.7673974862325 C 1250.0651195876771,748.7428149551984 1269.6552865752635,817.3083994117507 1191.294618624918,895.669067362096 C 1112.9339506745725,817.3083994117507 1132.524117662159,748.7428149551984 1191.294618624918,699.7673974862325 Z" fill="url(#leaf11)" opacity="0.29" transform="rotate(216.5 1191.3 797.7)"/>
    <path d="M 1015.5155832817303,683.6538980074797 C 1045.958990442008,709.0234039743776 1056.106792828767,744.5407123280347 1015.5155832817303,785.1319218750714 C 974.9243737346936,744.5407123280347 985.0721761214528,709.0234039743776 1015.5155832817303,683.6538980074797 Z" fill="url(#leaf12)" opacity="0.36" transform="rotate(148.3 1015.5 734.4)"/>
    <path d="M 1573.7709583548246,92.24660462166487 C 1630.4402049391858,139.47097677529916 1649.3299538006395,205.58509779038718 1573.7709583548246,281.1440932362021 C 1498.2119629090098,205.58509779038718 1517.1017117704635,139.47097677529916 1573.7709583548246,92.24660462166487 Z" fill="url(#leaf13)" opacity="0.28" transform="rotate(253.4 1573.8 186.7)"/>
    <path d="M 732.686266067437,377.6815798641372 C 779.330854251529,416.5520700175472 794.879050312893,470.9707562323212 732.686266067437,533.1635404777771 C 670.493481821981,470.9707562323212 686.0416778833451,416.5520700175472 732.686266067437,377.6815798641372 Z" fill="url(#leaf14)" opacity="0.32" transform="rotate(162.8 732.7 455.4)"/>
    <path d="M 672.0316885069741,474.38314340043405 C 715.5279462379344,510.63002484290104 730.0266988149212,561.3756588623548 672.0316885069741,619.370669170302 C 614.0366781990269,561.3756588623548 628.5354307760138,510.63002484290104 672.0316885069741,474.38314340043405 Z" fill="url(#leaf15)" opacity="0.39" transform="rotate(145.8 672.0 546.9)"/>
    <path d="M 1104.7672418452476,25.62912233319105 C 1130.7387611029942,47.272055047979954 1139.39593418891,77.57216084868442 1104.7672418452476,112.20085319234667 C 1070.1385495015852,77.57216084868442 1078.795722587501,47.272055047979954 1104.7672418452476,25.62912233319105 Z" fill="url(#leaf16)" opacity="0.22" transform="rotate(264.9 1104.8 68.9)"/>
    <path d="M 1718.1923466301805,590.6126952416496 C 1746.8001535164467,614.4525343135381 1756.3360891452019,647.8283090141819 1718.1923466301805,685.9720515292033 C 1680.0486041151592,647.8283090141819 1689.5845397439143,614.4525343135381 1718.1923466301805,590.6126952416496 Z" fill="url(#leaf17)" opacity="0.26" transform="rotate(255.6 1718.2 638.3)"/>
    <path d="M 674.8100456746407,856.951794411661 C 724.8718841380597,898.6699931311769 741.5591636258661,957.075471338499 674.8100456746407,1023.8245892897244 C 608.0609277234154,957.075471338499 624.7482072112217,898.6699931311769 674.8100456746407,856.951794411661 Z" fill="url(#leaf18)" opacity="0.35" transform="rotate(320.1 674.8 940.4)"/>
    <path d="M 1706.194059606842,456.29319825163753 C 1753.66059901562,495.84864775895244 1769.482778818546,551.2262770691932 1706.194059606842,614.514996280897 C 1642.9053403951382,551.2262770691932 1658.7275201980642,495.84864775895244 1706.194059606842,456.29319825163753 Z" fill="url(#leaf19)" opacity="0.25" transform="rotate(122.1 1706.2 535.4)"/>
    <path d="M 377.5138617781023,959.0429163055834 C 406.03548627170744,982.810936716921 415.54269443624247,1016.0861652927937 377.5138617781023,1054.114997950934 C 339.4850291199621,1016.0861652927937 348.99223728449715,982.810936716921 377.5138617781023,959.0429163055834 Z" fill="url(#leaf0)" opacity="0.21" transform="rotate(196.0 377.5 1006.6)"/>
    <path d="M 332.0026200057138,34.48173960048324 C 386.3120886514324,79.73963013858207 404.41524486667197,143.10067689192044 332.0026200057138,215.5133017528786 C 259.5899951447557,143.10067689192044 277.6931513599952,79.73963013858207 332.0026200057138,34.48173960048324 Z" fill="url(#leaf1)" opacity="0.32" transform="rotate(6.2 332.0 125.0)"/>
  </g>

  <!-- Central star shape -->
  <polygon points="960.0,198.4 1060.4,401.8 1284.9,434.4 1122.4,592.8 1160.8,816.4 960.0,710.8 759.2,816.4 797.6,592.8 635.1,434.4 859.6,401.8" 
           fill="#FFD700" 
           transform="rotate(90.2 960.0 540.0)"/>
</svg>