<?xml version="1.0" encoding="UTF-8"?>
<svg xmlns="http://www.w3.org/2000/svg" viewBox="0 0 1920 1080" width="1920" height="1080">
  <defs>
    <linearGradient id="bgGrad" x1="0%" y1="0%" x2="100%" y2="100%">
      <stop offset="0%" stop-color="#FF4500"/>
      <stop offset="100%" stop-color="#FFD700"/>
    </linearGradient>
    <clipPath id="complexClip"><polygon points="1347.7,540.0 1461.9,600.0 1472.4,668.3 1270.9,667.0 1211.4,697.0 1152.2,727.2 1075.1,739.3 1010.6,810.7 909.4,810.7 849.6,731.2 766.7,728.4 600.9,764.3 510.2,723.8 449.8,667.8 594.5,583.7 569.2,540.0 577.6,494.3 606.5,451.5 558.9,376.1 663.0,354.4 698.0,284.7 820.2,298.1 909.8,271.3 1001.5,317.9 1068.3,352.5 1242.7,264.6 1339.0,303.3 1340.8,384.4 1417.0,425.6 1370.1,491.0"/></clipPath>
    <radialGradient id="leaf0" cx="50%" cy="50%" r="70%">
      <stop offset="0%" stop-color="#9370DB"/>
      <stop offset="50%" stop-color="#00FA9A"/>
      <stop offset="100%" stop-color="#FF69B4"/>
    </radialGradient>
    <radialGradient id="leaf1" cx="50%" cy="50%" r="70%">
      <stop offset="0%" stop-color="#9370DB"/>
      <stop offset="50%" stop-color="#32CD32"/>
      <stop offset="100%" stop-color="#00CED1"/>
    </radialGradient>
    <radialGradient id="leaf2" cx="50%" cy="50%" r="70%">
      <stop offset="0%" stop-color="#9370DB"/>
      <stop offset="50%" stop-color="#4ECDC4"/>
      <stop offset="100%" stop-color="#32CD32"/>
    </radialGradient>
    <radialGradient id="leaf3" cx="50%" cy="50%" r="70%">
      <stop offset="0%" stop-color="#96E6A1"/>
      <stop offset="50%" stop-color="#9370DB"/>
      <stop offset="100%" stop-color="#00CED1"/>
    </radialGradient>
    <radialGradient id="leaf4" cx="50%" cy="50%" r="70%">
      <stop offset="0%" stop-color="#FFE66D"/>
      <stop offset="50%" stop-color="#45B7D1"/>
      <stop offset="100%" stop-color="#9370DB"/>
    </radialGradient>
    <radialGradient id="leaf5" cx="50%" cy="50%" r="70%">
      <stop offset="0%" stop-color="#00FA9A"/>
      <stop offset="50%" stop-color="#4ECDC4"/>
      <stop offset="100%" stop-color="#00CED1"/>
    </radialGradient>
    <radialGradient id="leaf6" cx="50%" cy="50%" r="70%">
      <stop offset="0%" stop-color="#00FA9A"/>
      <stop offset="50%" stop-color="#FFD700"/>
      <stop offset="100%" stop-color="#FF69B4"/>
    </radialGradient>
    <radialGradient id="leaf7" cx="50%" cy="50%" r="70%">
      <stop offset="0%" stop-color="#32CD32"/>
      <stop offset="50%" stop-color="#00FA9A"/>
      <stop offset="100%" stop-color="#9370DB"/>
    </radialGradient>
    <radialGradient id="leaf8" cx="50%" cy="50%" r="70%">
      <stop offset="0%" stop-color="#FF69B4"/>
      <stop offset="50%" stop-color="#FFD700"/>
      <stop offset="100%" stop-color="#7B68EE"/>
    </radialGradient>
    <radialGradient id="leaf9" cx="50%" cy="50%" r="70%">
      <stop offset="0%" stop-color="#00FA9A"/>
      <stop offset="50%" stop-color="#9370DB"/>
      <stop offset="100%" stop-color="#45B7D1"/>
    </radialGradient>
    <radialGradient id="leaf10" cx="50%" cy="50%" r="70%">
      <stop offset="0%" stop-color="#FFD700"/>
      <stop offset="50%" stop-color="#FF6B6B"/>
      <stop offset="100%" stop-color="#FF69B4"/>
    </radialGradient>
    <radialGradient id="leaf11" cx="50%" cy="50%" r="70%">
      <stop offset="0%" stop-color="#FFE66D"/>
      <stop offset="50%" stop-color="#32CD32"/>
      <stop offset="100%" stop-color="#FF6B6B"/>
    </radialGradient>
    <radialGradient id="leaf12" cx="50%" cy="50%" r="70%">
      <stop offset="0%" stop-color="#32CD32"/>
      <stop offset="50%" stop-color="#FF1493"/>
      <stop offset="100%" stop-color="#DC143C"/>
    </radialGradient>
    <radialGradient id="leaf13" cx="50%" cy="50%" r="70%">
      <stop offset="0%" stop-color="#4ECDC4"/>
      <stop offset="50%" stop-color="#FF4500"/>
      <stop offset="100%" stop-color="#45B7D1"/>
    </radialGradient>
    <radialGradient id="leaf14" cx="50%" cy="50%" r="70%">
      <stop offset="0%" stop-color="#32CD32"/>
      <stop offset="50%" stop-color="#FFD700"/>
      <stop offset="100%" stop-color="#00FA9A"/>
    </radialGradient>
    <radialGradient id="leaf15" cx="50%" cy="50%" r="70%">
      <stop offset="0%" stop-color="#00CED1"/>
      <stop offset="50%" stop-color="#7B68EE"/>
      <stop offset="100%" stop-color="#00FA9A"/>
    </radialGradient>
    <radialGradient id="leaf16" cx="50%" cy="50%" r="70%">
      <stop offset="0%" stop-color="#FFE66D"/>
      <stop offset="50%" stop-color="#FF69B4"/>
      <stop offset="100%" stop-color="#FF1493"/>
    </radialGradient>
    <radialGradient id="leaf17" cx="50%" cy="50%" r="70%">
      <stop offset="0%" stop-color="#96E6A1"/>
      <stop offset="50%" stop-color="#FF4500"/>
      <stop offset="100%" stop-color="#7B68EE"/>
    </radialGradient>
    <radialGradient id="leaf18" cx="50%" cy="50%" r="70%">
      <stop offset="0%" stop-color="#FF1493"/>
      <stop offset="50%" stop-color="#FFE66D"/>
      <stop offset="100%" stop-color="#00FA9A"/>
    </radialGradient>
    <radialGradient id="leaf19" cx="50%" cy="50%" r="70%">
      <stop offset="0%" stop-color="#FF4500"/>
      <stop offset="50%" stop-color="#00CED1"/>
      <stop offset="100%" stop-color="#FF6B6B"/>
    </radialGradient>
  </defs>

  <!-- Background -->
  <rect width="1920" height="1080" fill="url(#bgGrad)"/>
  
  <!-- Leaves with clip-path -->
  <g clip-path="url(#complexClip)">
    <path d="M 1388.6308709771936,199.51376818850866 C 1433.7619125707176,237.1229695164454 1448.8055931018923,289.77585137555684 1388.6308709771936,349.95057350025564 C 1328.4561488524948,289.77585137555684 1343.4998293836695,237.1229695164454 1388.6308709771936,199.51376818850866 Z" fill="url(#leaf0)" opacity="0.31" transform="rotate(51.1 1388.6 274.7)"/>
    <path d="M 296.24470513188396,53.58570878238024 C 355.15475592657845,102.67741777795896 374.7914395248099,171.40581037176918 296.24470513188396,249.95254476469515 C 217.697970738958,171.40581037176918 237.33465433718948,102.67741777795896 296.24470513188396,53.58570878238024 Z" fill="url(#leaf1)" opacity="0.32" transform="rotate(226.2 296.2 151.8)"/>
    <path d="M 1644.0853114099327,816.9537920569057 C 1685.9377128137658,851.8307932267666 1699.88851328171,900.6585948645717 1644.0853114099327,956.461796736349 C 1588.2821095381555,900.6585948645717 1602.2329100060997,851.8307932267666 1644.0853114099327,816.9537920569057 Z" fill="url(#leaf2)" opacity="0.25" transform="rotate(45.0 1644.1 886.7)"/>
    <path d="M 589.6365673871009,244.0775905049727 C 634.8687161292718,281.77104779011506 649.9460990433287,334.54188798931443 589.6365673871009,394.85141964554225 C 529.327035730873,334.54188798931443 544.4044186449299,281.77104779011506 589.6365673871009,244.0775905049727 Z" fill="url(#leaf3)" opacity="0.39" transform="rotate(66.1 589.6 319.5)"/>
    <path d="M 1456.9351455225274,402.8757581909059 C 1496.3851352019378,435.75074959041467 1509.5351317617415,481.77573754972695 1456.9351455225274,534.375723788941 C 1404.3351592833133,481.77573754972695 1417.485155843117,435.75074959041467 1456.9351455225274,402.8757581909059 Z" fill="url(#leaf4)" opacity="0.39" transform="rotate(327.5 1456.9 468.6)"/>
    <path d="M 126.39795878456124,74.72374425397695 C 161.84638537656116,104.2640997473102 173.66252757389447,145.62059743797676 126.39795878456124,192.88516622730995 C 79.13338999522803,145.62059743797676 90.94953219256134,104.2640997473102 126.39795878456124,74.72374425397695 Z" fill="url(#leaf5)" opacity="0.23" transform="rotate(339.3 126.4 133.8)"/>
    <path d="M 1115.8099072536618,599.1243281117908 C 1150.8339096398627,628.3109967669582 1162.5085771019296,669.1723328841925 1115.8099072536618,715.8710027324604 C 1069.111237405394,669.1723328841925 1080.7859048674609,628.3109967669582 1115.8099072536618,599.1243281117908 Z" fill="url(#leaf6)" opacity="0.38" transform="rotate(125.1 1115.8 657.5)"/>
    <path d="M 775.9442453679659,212.9098711257401 C 823.1737059541558,252.267754947565 838.9168594828858,307.3687922981199 775.9442453679659,370.34140641303975 C 712.971631253046,307.3687922981199 728.714784781776,252.267754947565 775.9442453679659,212.9098711257401 Z" fill="url(#leaf7)" opacity="0.35" transform="rotate(12.1 775.9 291.6)"/>
    <path d="M 1803.1402183904506,927.5816406615797 C 1851.6534641576195,968.0093454675538 1867.8245460800092,1024.6081321959175 1803.1402183904506,1089.292459885476 C 1738.455890700892,1024.6081321959175 1754.6269726232817,968.0093454675538 1803.1402183904506,927.5816406615797 Z" fill="url(#leaf8)" opacity="0.20" transform="rotate(195.8 1803.1 1008.4)"/>
    <path d="M 1742.473036237381,111.1656393023587 C 1793.3375347859594,153.55272142617412 1810.2923676354856,212.89463639951566 1742.473036237381,280.7139677976203 C 1674.6537048392763,212.89463639951566 1691.6085376888025,153.55272142617412 1742.473036237381,111.1656393023587 Z" fill="url(#leaf9)" opacity="0.26" transform="rotate(42.4 1742.5 195.9)"/>
    <path d="M 931.8473920151002,326.1786816937553 C 975.9732080527264,362.9501950584438 990.6818133986018,414.4303137690077 931.8473920151002,473.2647351525092 C 873.0129706315987,414.4303137690077 887.7215759774741,362.9501950584438 931.8473920151002,326.1786816937553 Z" fill="url(#leaf10)" opacity="0.36" transform="rotate(81.8 931.8 399.7)"/>
    <path d="M 1769.4571131561488,547.598257721297 C 1796.909425834282,570.4751849530746 1806.060196726993,602.5028830775633 1769.4571131561488,639.1059666484074 C 1732.8540295853047,602.5028830775633 1742.0048004780156,570.4751849530746 1769.4571131561488,547.598257721297 Z" fill="url(#leaf11)" opacity="0.21" transform="rotate(308.2 1769.5 593.4)"/>
    <path d="M 431.66414993833774,727.2072224969925 C 487.90651459214354,774.0758597084973 506.6539694767455,839.6919518046041 431.66414993833774,914.6817713430119 C 356.67433039993,839.6919518046041 375.42178528453195,774.0758597084973 431.66414993833774,727.2072224969925 Z" fill="url(#leaf12)" opacity="0.36" transform="rotate(132.3 431.7 820.9)"/>
    <path d="M 1036.5501200050394,282.84138824788795 C 1084.4865436873224,322.78840798312376 1100.4653515814166,378.7142356124539 1036.5501200050394,442.6294671888312 C 972.6348884286621,378.7142356124539 988.6136963227564,322.78840798312376 1036.5501200050394,282.84138824788795 Z" fill="url(#leaf13)" opacity="0.31" transform="rotate(295.7 1036.6 362.7)"/>
    <path d="M 413.50180362552254,67.59091584645168 C 471.67096298932626,116.0652153162881 491.0606827772608,183.9292345740591 413.50180362552254,261.48811372579735 C 335.9429244737843,183.9292345740591 355.3326442617188,116.0652153162881 413.50180362552254,67.59091584645168 Z" fill="url(#leaf14)" opacity="0.22" transform="rotate(99.1 413.5 164.5)"/>
    <path d="M 1631.470755836826,784.8390422816254 C 1690.1463583816371,833.7353777356348 1709.704892563241,902.1902473712479 1631.470755836826,980.4243840976629 C 1553.2366191104109,902.1902473712479 1572.7951532920147,833.7353777356348 1631.470755836826,784.8390422816254 Z" fill="url(#leaf15)" opacity="0.23" transform="rotate(294.9 1631.5 882.6)"/>
    <path d="M 364.4176023406795,42.268559731424375 C 408.54697077009587,79.04303342260468 423.256760246568,130.5272965902571 364.4176023406795,189.3664544961456 C 305.578444434791,130.5272965902571 320.2882339112631,79.04303342260468 364.4176023406795,42.268559731424375 Z" fill="url(#leaf16)" opacity="0.39" transform="rotate(163.4 364.4 115.8)"/>
    <path d="M 677.252153530751,205.23492625194166 C 710.5086383507025,232.94866360190127 721.5941332906864,271.74789589184473 677.252153530751,316.0898756517801 C 632.9101737708156,271.74789589184473 643.9956687107995,232.94866360190127 677.252153530751,205.23492625194166 Z" fill="url(#leaf17)" opacity="0.32" transform="rotate(305.7 677.3 260.7)"/>
    <path d="M 772.2685916777276,779.8488561641699 C 830.5129203609205,828.3857967334974 849.9276965886515,896.3375135305557 772.2685916777276,973.9966184414797 C 694.6094867668037,896.3375135305557 714.0242629945348,828.3857967334974 772.2685916777276,779.8488561641699 Z" fill="url(#leaf18)" opacity="0.36" transform="rotate(46.4 772.3 876.9)"/>
    <path d="M 980.8478800193978,197.29121711691687 C 1013.2627482263076,224.3036072893417 1024.0677042952775,262.1209535307365 980.8478800193978,305.34077780661625 C 937.6280557435181,262.1209535307365 948.4330118124881,224.3036072893417 980.8478800193978,197.29121711691687 Z" fill="url(#leaf19)" opacity="0.39" transform="rotate(337.5 980.8 251.3)"/>
    <path d="M 509.3729061701678,800.5895894675392 C 553.8544702819081,837.6575595606561 568.6816583191548,889.5527176910197 509.3729061701678,948.8614698400066 C 450.0641540211808,889.5527176910197 464.8913420584276,837.6575595606561 509.3729061701678,800.5895894675392 Z" fill="url(#leaf0)" opacity="0.35" transform="rotate(56.4 509.4 874.7)"/>
    <path d="M 923.8237811815001,177.60947981596516 C 979.9284496467383,224.36337020366364 998.6300058018176,289.8188167464415 923.8237811815001,364.625041366759 C 849.0175565611826,289.8188167464415 867.7191127162619,224.36337020366364 923.8237811815001,177.60947981596516 Z" fill="url(#leaf1)" opacity="0.25" transform="rotate(272.9 923.8 271.1)"/>
    <path d="M 1428.5570718805461,902.3046764371418 C 1484.3008158683724,948.757796426997 1502.8820638643144,1013.7921644127941 1428.5570718805461,1088.1171563965625 C 1354.2320798967778,1013.7921644127941 1372.8133278927198,948.757796426997 1428.5570718805461,902.3046764371418 Z" fill="url(#leaf2)" opacity="0.34" transform="rotate(270.4 1428.6 995.2)"/>
    <path d="M 1849.881199258152,773.1403893191465 C 1885.3824549555682,802.7247690669932 1897.2162068547068,844.1429007139786 1849.881199258152,891.4779083105333 C 1802.5461916615973,844.1429007139786 1814.379943560736,802.7247690669932 1849.881199258152,773.1403893191465 Z" fill="url(#leaf3)" opacity="0.39" transform="rotate(201.2 1849.9 832.3)"/>
    <path d="M 132.5093516194843,546.4337786213814 C 184.1559898022491,589.4726437736855 201.37153586317072,649.7270549869111 132.5093516194843,718.5892392305975 C 63.647167375797906,649.7270549869111 80.8627134367195,589.4726437736855 132.5093516194843,546.4337786213814 Z" fill="url(#leaf4)" opacity="0.31" transform="rotate(116.4 132.5 632.5)"/>
    <path d="M 1801.0438452089004,694.0298404637715 C 1843.2704047468121,729.218640078698 1857.3459245927827,778.4829595395948 1801.0438452089004,834.785038923477 C 1744.741765825018,778.4829595395948 1758.8172856709887,729.218640078698 1801.0438452089004,694.0298404637715 Z" fill="url(#leaf5)" opacity="0.38" transform="rotate(336.2 1801.0 764.4)"/>
    <path d="M 956.249105403521,328.65247909627817 C 1015.5117861007096,378.0380463439354 1035.2660129997726,447.1778404906555 956.249105403521,526.1947480869071 C 877.2321978072694,447.1778404906555 896.9864247063323,378.0380463439354 956.249105403521,328.65247909627817 Z" fill="url(#leaf6)" opacity="0.36" transform="rotate(339.6 956.2 427.4)"/>
    <path d="M 840.6207468877047,216.5633201363131 C 880.9553722822984,250.1755079651412 894.4002474138297,297.23257092550057 840.6207468877047,351.0120714516255 C 786.8412463615798,297.23257092550057 800.2861214931111,250.1755079651412 840.6207468877047,216.5633201363131 Z" fill="url(#leaf7)" opacity="0.37" transform="rotate(101.3 840.6 283.8)"/>
    <path d="M 1091.763115642665,484.94500286954326 C 1144.070051038018,528.5341156990039 1161.5056961698021,589.5588736602488 1091.763115642665,659.3014541873858 C 1022.0205351155281,589.5588736602488 1039.4561802473122,528.5341156990039 1091.763115642665,484.94500286954326 Z" fill="url(#leaf8)" opacity="0.27" transform="rotate(348.8 1091.8 572.1)"/>
    <path d="M 880.5857605607978,435.72292141869445 C 930.8760129512133,477.631465077374 947.6394304146851,536.3034261995253 880.5857605607978,603.3570960534126 C 813.5320907069105,536.3034261995253 830.2955081703823,477.631465077374 880.5857605607978,435.72292141869445 Z" fill="url(#leaf9)" opacity="0.28" transform="rotate(219.2 880.6 519.5)"/>
    <path d="M 152.60043704784576,199.37025722603784 C 189.35477707124255,229.99887391220184 201.60622374570818,272.8789372728315 152.60043704784576,321.88472397069387 C 103.59465034998334,272.8789372728315 115.84609702444895,229.99887391220184 152.60043704784576,199.37025722603784 Z" fill="url(#leaf10)" opacity="0.21" transform="rotate(300.8 152.6 260.6)"/>
    <path d="M 1748.8591535404814,629.2472213657676 C 1800.9847385926157,672.6852089092129 1818.359933609994,733.4983914700363 1748.8591535404814,802.9991715395487 C 1679.358373470969,733.4983914700363 1696.7335684883471,672.6852089092129 1748.8591535404814,629.2472213657676 Z" fill="url(#leaf11)" opacity="0.39" transform="rotate(154.6 1748.9 716.1)"/>
    <path d="M 1475.360330300306,273.35777381842064 C 1503.6299766126626,296.91581241205114 1513.0531920501148,329.89706644313384 1475.360330300306,367.58992819294264 C 1437.6674685504972,329.89706644313384 1447.0906839879494,296.91581241205114 1475.360330300306,273.35777381842064 Z" fill="url(#leaf12)" opacity="0.25" transform="rotate(333.1 1475.4 320.5)"/>
    <path d="M 448.469210943221,197.76489905896602 C 503.200084512328,243.37396036655517 521.4437090353637,307.22664619717995 448.469210943221,380.2011442893226 C 375.49471285107836,307.22664619717995 393.73833737411405,243.37396036655517 448.469210943221,197.76489905896602 Z" fill="url(#leaf13)" opacity="0.36" transform="rotate(269.0 448.5 289.0)"/>
    <path d="M 416.81288540853194,377.77656843153204 C 454.3160509816473,409.0292064091282 466.8171061726858,452.7828995777628 416.81288540853194,502.78712034191665 C 366.8086646443781,452.7828995777628 379.30971983541656,409.0292064091282 416.81288540853194,377.77656843153204 Z" fill="url(#leaf14)" opacity="0.20" transform="rotate(122.1 416.8 440.3)"/>
    <path d="M 550.6310874624643,56.85949188331647 C 585.9737522721293,86.31171255803731 597.7546405420176,127.54482150264649 550.6310874624643,174.66837458219982 C 503.50753438291093,127.54482150264649 515.2884226527992,86.31171255803731 550.6310874624643,56.85949188331647 Z" fill="url(#leaf15)" opacity="0.35" transform="rotate(120.6 550.6 115.8)"/>
    <path d="M 1139.5589424247014,334.0783466598475 C 1199.0263829575908,383.634547103922 1218.8488631352207,453.0132277256263 1139.5589424247014,532.3031484361454 C 1060.2690217141821,453.0132277256263 1080.091501891812,383.634547103922 1139.5589424247014,334.0783466598475 Z" fill="url(#leaf16)" opacity="0.31" transform="rotate(134.3 1139.6 433.2)"/>
    <path d="M 485.61660635175576,837.53566328336 C 529.9445099576778,874.4755829549617 544.7204778263185,926.1914704952042 485.61660635175576,985.2953419697669 C 426.512734877193,926.1914704952042 441.2887027458337,874.4755829549617 485.61660635175576,837.53566328336 Z" fill="url(#leaf17)" opacity="0.26" transform="rotate(207.6 485.6 911.4)"/>
    <path d="M 956.7818891752781,89.61844784736891 C 986.4349783492485,114.32935549234422 996.3193414072387,148.92462619530966 956.7818891752781,188.46207842727014 C 917.2444369433176,148.92462619530966 927.1288000013078,114.32935549234422 956.7818891752781,89.61844784736891 Z" fill="url(#leaf18)" opacity="0.27" transform="rotate(136.8 956.8 139.0)"/>
    <path d="M 1674.9642572470868,868.4604640157655 C 1720.0335361242646,906.0181964134138 1735.056629083324,958.5990217701211 1674.9642572470868,1018.6913936063582 C 1614.8718854108497,958.5990217701211 1629.894978369909,906.0181964134138 1674.9642572470868,868.4604640157655 Z" fill="url(#leaf19)" opacity="0.25" transform="rotate(346.4 1675.0 943.6)"/>
    <path d="M 1618.1925287026988,875.9294461517015 C 1674.3743016309525,922.7475902585794 1693.1015592737035,988.2929920082086 1618.1925287026988,1063.2020225792132 C 1543.2834981316942,988.2929920082086 1562.0107557744452,922.7475902585794 1618.1925287026988,875.9294461517015 Z" fill="url(#leaf0)" opacity="0.21" transform="rotate(75.9 1618.2 969.6)"/>
    <path d="M 1245.4712972415898,918.2473375756631 C 1285.6712776784816,951.7473212730729 1299.0712711574456,998.6472984494466 1245.4712972415898,1052.2472723653023 C 1191.871323325734,998.6472984494466 1205.271316804698,951.7473212730729 1245.4712972415898,918.2473375756631 Z" fill="url(#leaf1)" opacity="0.31" transform="rotate(32.6 1245.5 985.2)"/>
    <path d="M 1685.4343700501713,612.2752179197689 C 1727.975522445604,647.7261782492961 1742.155906577415,697.3575227106343 1685.4343700501713,754.0790592378778 C 1628.7128335229277,697.3575227106343 1642.8932176547387,647.7261782492961 1685.4343700501713,612.2752179197689 Z" fill="url(#leaf2)" opacity="0.26" transform="rotate(237.5 1685.4 683.2)"/>
    <path d="M 378.905053311087,525.7604845889401 C 403.01454030369314,545.8517237494452 411.0510359678952,573.9794585741523 378.905053311087,606.1254412309605 C 346.7590706542788,573.9794585741523 354.79556631848084,545.8517237494452 378.905053311087,525.7604845889401 Z" fill="url(#leaf3)" opacity="0.26" transform="rotate(254.4 378.9 565.9)"/>
    <path d="M 273.5772446712855,715.1926209991706 C 319.8354150242151,753.7410962932786 335.2548051418583,807.7089617050298 273.5772446712855,869.3865221756026 C 211.89968420071267,807.7089617050298 227.31907431835586,753.7410962932786 273.5772446712855,715.1926209991706 Z" fill="url(#leaf4)" opacity="0.26" transform="rotate(208.5 273.6 792.3)"/>
    <path d="M 1265.3567335477537,333.1355894475862 C 1315.844057553119,375.2083594520573 1332.6731655549074,434.1102374583168 1265.3567335477537,501.4266694654706 C 1198.0403015406,434.1102374583168 1214.8694095423884,375.2083594520573 1265.3567335477537,333.1355894475862 Z" fill="url(#leaf5)" opacity="0.32" transform="rotate(109.2 1265.4 417.3)"/>
    <path d="M 362.40197428293277,722.2767500248099 C 408.3736521583512,760.5864815876586 423.6975447834907,814.2201057756467 362.40197428293277,875.5156762762047 C 301.10640378237485,814.2201057756467 316.43029640751433,760.5864815876586 362.40197428293277,722.2767500248099 Z" fill="url(#leaf6)" opacity="0.24" transform="rotate(281.9 362.4 798.9)"/>
    <path d="M 1146.293194292057,737.4024249163834 C 1171.9722668508261,758.801652048691 1180.5319577037494,788.7605700339218 1146.293194292057,822.9993334456141 C 1112.0544308803646,788.7605700339218 1120.614121733288,758.801652048691 1146.293194292057,737.4024249163834 Z" fill="url(#leaf7)" opacity="0.23" transform="rotate(174.3 1146.3 780.2)"/>
    <path d="M 1149.4953673493517,454.96184310487627 C 1208.7997308194838,504.38214599665304 1228.5678519761946,573.5705700451405 1149.4953673493517,652.6430546719834 C 1070.4228827225088,573.5705700451405 1090.1910038792196,504.38214599665304 1149.4953673493517,454.96184310487627 Z" fill="url(#leaf8)" opacity="0.34" transform="rotate(175.5 1149.5 553.8)"/>
    <path d="M 1833.5841316055414,140.30835311539028 C 1883.2220683408825,181.6733003948412 1899.7680472526629,239.58422658607245 1833.5841316055414,305.7681422331939 C 1767.40021595842,239.58422658607245 1783.9461948702003,181.6733003948412 1833.5841316055414,140.30835311539028 Z" fill="url(#leaf9)" opacity="0.22" transform="rotate(350.6 1833.6 223.0)"/>
    <path d="M 1590.4849318860397,713.2852154173678 C 1643.6959118182292,757.6276986941925 1661.4329051289592,819.707175281747 1590.4849318860397,890.6551485246665 C 1519.5369586431202,819.707175281747 1537.2739519538502,757.6276986941925 1590.4849318860397,713.2852154173678 Z" fill="url(#leaf10)" opacity="0.21" transform="rotate(71.2 1590.5 802.0)"/>
    <path d="M 984.2130311343283,812.936380756958 C 1021.0845993491077,843.6626876026077 1033.3751220873676,886.679517186517 984.2130311343283,935.8416081395565 C 935.050940181289,886.679517186517 947.3414629195488,843.6626876026077 984.2130311343283,812.936380756958 Z" fill="url(#leaf11)" opacity="0.28" transform="rotate(129.2 984.2 874.4)"/>
    <path d="M 1856.9576017661452,874.7042686386644 C 1887.160999309466,899.8737665914317 1897.228798490573,935.1110637253059 1856.9576017661452,975.3822604497336 C 1816.6864050417175,935.1110637253059 1826.7542042228245,899.8737665914317 1856.9576017661452,874.7042686386644 Z" fill="url(#leaf12)" opacity="0.28" transform="rotate(208.0 1857.0 925.0)"/>
    <path d="M 279.0613732376373,530.134328097882 C 317.98249899425406,562.5685995617292 330.95620757979293,607.9765796111154 279.0613732376373,659.871413953271 C 227.16653889548172,607.9765796111154 240.14024748102062,562.5685995617292 279.0613732376373,530.134328097882 Z" fill="url(#leaf13)" opacity="0.34" transform="rotate(339.2 279.1 595.0)"/>
    <path d="M 1782.9223866165314,414.86295967900514 C 1819.181349303883,445.0787619184648 1831.2676701996668,487.38088505370825 1782.9223866165314,535.7261686368437 C 1734.577103033396,487.38088505370825 1746.6634239291798,445.0787619184648 1782.9223866165314,414.86295967900514 Z" fill="url(#leaf14)" opacity="0.22" transform="rotate(255.5 1782.9 475.3)"/>
    <path d="M 1646.2493790278327,477.5515986348674 C 1704.8295323856446,526.3683930997106 1724.3562501715817,594.7119053504911 1646.2493790278327,672.8187764942401 C 1568.1425078840837,594.7119053504911 1587.6692256700208,526.3683930997106 1646.2493790278327,477.5515986348674 Z" fill="url(#leaf15)" opacity="0.20" transform="rotate(197.0 1646.2 575.2)"/>
    <path d="M 1380.3994196489296,735.0685135907233 C 1430.7969588697986,777.0664629414476 1447.5961386100885,835.8635920324616 1380.3994196489296,903.0603109936205 C 1313.2027006877706,835.8635920324616 1330.0018804280605,777.0664629414476 1380.3994196489296,735.0685135907233 Z" fill="url(#leaf16)" opacity="0.36" transform="rotate(167.6 1380.4 819.1)"/>
    <path d="M 1479.001170707167,209.97196508518414 C 1536.5299157151137,257.9125859251398 1555.706164051096,325.02945510107776 1479.001170707167,401.7344484450068 C 1402.2961773632378,325.02945510107776 1421.4724256992201,257.9125859251398 1479.001170707167,209.97196508518414 Z" fill="url(#leaf17)" opacity="0.30" transform="rotate(228.2 1479.0 305.9)"/>
    <path d="M 841.0275174469548,590.6331635430523 C 885.5862223301402,627.7654176123734 900.4391239578687,679.7505733094231 841.0275174469548,739.162179820337 C 781.6159109360409,679.7505733094231 796.4688125637693,627.7654176123734 841.0275174469548,590.6331635430523 Z" fill="url(#leaf18)" opacity="0.20" transform="rotate(105.6 841.0 664.9)"/>
    <path d="M 726.5090202680784,724.5253206944418 C 767.9329871512443,759.04529309708 781.7409761122996,807.3732544607736 726.5090202680784,862.6052103049948 C 671.2770644238573,807.3732544607736 685.0850533849125,759.04529309708 726.5090202680784,724.5253206944418 Z" fill="url(#leaf19)" opacity="0.32" transform="rotate(193.7 726.5 793.6)"/>
    <path d="M 1451.1787727516125,440.4831256406198 C 1502.47839608669,483.2328117531845 1519.578270531716,543.082372310775 1451.1787727516125,611.4818700908784 C 1382.779274971509,543.082372310775 1399.879149416535,483.2328117531845 1451.1787727516125,440.4831256406198 Z" fill="url(#leaf0)" opacity="0.24" transform="rotate(234.9 1451.2 526.0)"/>
    <path d="M 989.1669291729199,783.074783573738 C 1018.6066543449739,807.6078878837831 1028.4198960689919,841.9542339178461 989.1669291729199,881.2072008139181 C 949.9139622768479,841.9542339178461 959.727204000866,807.6078878837831 989.1669291729199,783.074783573738 Z" fill="url(#leaf1)" opacity="0.20" transform="rotate(329.1 989.2 832.1)"/>
    <path d="M 869.2099240453482,935.9954250231099 C 893.9681505765902,956.6272804658115 902.2208927536709,985.5118780855938 869.2099240453482,1018.5228467939164 C 836.1989553370255,985.5118780855938 844.4516975141062,956.6272804658115 869.2099240453482,935.9954250231099 Z" fill="url(#leaf2)" opacity="0.29" transform="rotate(211.4 869.2 977.3)"/>
    <path d="M 1633.096272496262,607.9955788228203 C 1685.8269495669879,651.9378097150919 1703.4038419238964,713.4569329642721 1633.096272496262,783.7645023919067 C 1562.7887030686275,713.4569329642721 1580.365595425536,651.9378097150919 1633.096272496262,607.9955788228203 Z" fill="url(#leaf3)" opacity="0.33" transform="rotate(219.8 1633.1 695.9)"/>
    <path d="M 1296.3182832620807,91.74581039949314 C 1343.4052667511442,130.984963307046 1359.1009279141654,185.91977737762002 1296.3182832620807,248.7024220297046 C 1233.535638609996,185.91977737762002 1249.2312997730173,130.984963307046 1296.3182832620807,91.74581039949314 Z" fill="url(#leaf4)" opacity="0.39" transform="rotate(10.9 1296.3 170.2)"/>
    <path d="M 1593.6533264954821,613.7230612263985 C 1619.5983849757938,635.343943293325 1628.2467378025644,665.6131781870218 1593.6533264954821,700.2065894941042 C 1559.0599151883998,665.6131781870218 1567.7082680151705,635.343943293325 1593.6533264954821,613.7230612263985 Z" fill="url(#leaf5)" opacity="0.27" transform="rotate(87.6 1593.7 657.0)"/>
    <path d="M 440.20692841168324,572.993841766897 C 466.81594421349376,595.1680216017392 475.6856161474306,626.2118733705181 440.20692841168324,661.6905611062655 C 404.72824067593587,626.2118733705181 413.5979126098727,595.1680216017392 440.20692841168324,572.993841766897 Z" fill="url(#leaf6)" opacity="0.28" transform="rotate(149.4 440.2 617.3)"/>
    <path d="M 962.7053487072826,671.2369646650054 C 1017.6856068743277,717.0538464708762 1036.012359596676,781.1974809990955 962.7053487072826,854.5044918884889 C 889.3983378178892,781.1974809990955 907.7250905402375,717.0538464708762 962.7053487072826,671.2369646650054 Z" fill="url(#leaf7)" opacity="0.33" transform="rotate(349.9 962.7 762.9)"/>
    <path d="M 446.5529225261101,338.6437872110836 C 497.5419913995103,381.1346779389171 514.5383476906437,440.621924957884 446.5529225261101,508.60735012241764 C 378.56749736157644,440.621924957884 395.56385365270984,381.1346779389171 446.5529225261101,338.6437872110836 Z" fill="url(#leaf8)" opacity="0.27" transform="rotate(223.5 446.6 423.6)"/>
    <path d="M 658.6581974265943,557.8730311404671 C 683.7690823501828,578.798768576791 692.1393773247123,608.0948009876442 658.6581974265943,641.5759808857623 C 625.1770175284762,608.0948009876442 633.5473125030057,578.798768576791 658.6581974265943,557.8730311404671 Z" fill="url(#leaf9)" opacity="0.38" transform="rotate(103.7 658.7 599.7)"/>
    <path d="M 1762.22752302418,956.4852114736304 C 1794.6649664238194,983.5164143066631 1805.4774475570323,1021.3600982729089 1762.22752302418,1064.6100228057612 C 1718.9775984913279,1021.3600982729089 1729.7900796245408,983.5164143066631 1762.22752302418,956.4852114736304 Z" fill="url(#leaf10)" opacity="0.25" transform="rotate(321.8 1762.2 1010.5)"/>
    <path d="M 1106.5488516118228,652.4886382323656 C 1140.9764075594965,681.1782681887603 1152.4522595420544,721.343750127713 1106.5488516118228,767.2471580579446 C 1060.6454436815911,721.343750127713 1072.121295664149,681.1782681887603 1106.5488516118228,652.4886382323656 Z" fill="url(#leaf11)" opacity="0.35" transform="rotate(52.0 1106.5 709.9)"/>
    <path d="M 79.9580361244333,293.2959697631591 C 128.59298662147347,333.82509517735923 144.80463678715353,390.56587075723945 79.9580361244333,455.4124714199597 C 15.111435461713072,390.56587075723945 31.323085627393134,333.82509517735923 79.9580361244333,293.2959697631591 Z" fill="url(#leaf12)" opacity="0.34" transform="rotate(80.6 80.0 374.4)"/>
    <path d="M 628.8056613399714,327.5864353057316 C 656.8375699899591,350.94635918072134 666.181539539955,383.650252605707 628.8056613399714,421.0261308056906 C 591.4297831399878,383.650252605707 600.7737526899837,350.94635918072134 628.8056613399714,327.5864353057316 Z" fill="url(#leaf13)" opacity="0.38" transform="rotate(110.8 628.8 374.3)"/>
    <path d="M 1126.3288165707552,904.0872765307288 C 1185.174625133181,953.1254503327503 1204.78989465399,1021.7788936555806 1126.3288165707552,1100.2399717388153 C 1047.8677384875205,1021.7788936555806 1067.4830080083293,953.1254503327503 1126.3288165707552,904.0872765307288 Z" fill="url(#leaf14)" opacity="0.32" transform="rotate(354.6 1126.3 1002.2)"/>
    <path d="M 51.32968827848082,65.98843601941275 C 86.72726067363813,95.48641301537717 98.5264514720239,136.78358080972737 51.32968827848082,183.98034400327043 C 4.132925084937746,136.78358080972737 15.932115883323519,95.48641301537717 51.32968827848082,65.98843601941275 Z" fill="url(#leaf15)" opacity="0.33" transform="rotate(350.3 51.3 125.0)"/>
    <path d="M 607.6126154833402,880.746144902313 C 660.3309931473326,924.6781262889733 677.9037857019968,986.1829002302978 607.6126154833402,1056.4740704489543 C 537.3214452646836,986.1829002302978 554.8942378193477,924.6781262889733 607.6126154833402,880.746144902313 Z" fill="url(#leaf16)" opacity="0.32" transform="rotate(58.9 607.6 968.6)"/>
    <path d="M 806.9381800905683,77.61853131401378 C 866.8504414705786,127.54541579735572 886.8211952639153,197.44305407403442 806.9381800905683,277.3260692473815 C 727.0551649172212,197.44305407403442 747.0259187105579,127.54541579735572 806.9381800905683,77.61853131401378 Z" fill="url(#leaf17)" opacity="0.23" transform="rotate(324.1 806.9 177.5)"/>
    <path d="M 1394.3435909236514,910.3404671846595 C 1421.4881893981283,932.9609659133902 1430.5363888896204,964.6296641336131 1394.3435909236514,1000.8224620995823 C 1358.1507929576824,964.6296641336131 1367.1989924491745,932.9609659133902 1394.3435909236514,910.3404671846595 Z" fill="url(#leaf18)" opacity="0.27" transform="rotate(75.7 1394.3 955.6)"/>
    <path d="M 1581.6183980697845,688.4408106172788 C 1623.5477805008752,723.3819626431878 1637.524241311239,772.2995754794604 1581.6183980697845,828.2054187209147 C 1525.71255482833,772.2995754794604 1539.6890156386937,723.3819626431878 1581.6183980697845,688.4408106172788 Z" fill="url(#leaf19)" opacity="0.26" transform="rotate(280.5 1581.6 758.3)"/>
    <path d="M 1532.895244534183,828.8507256579876 C 1558.0425914411223,849.8068480804372 1566.4250404101022,879.1454194718666 1532.895244534183,912.675215347786 C 1499.3654486582636,879.1454194718666 1507.7478976272434,849.8068480804372 1532.895244534183,828.8507256579876 Z" fill="url(#leaf0)" opacity="0.36" transform="rotate(143.2 1532.9 870.8)"/>
    <path d="M 294.29517399074825,841.0099891324685 C 347.1020823360323,885.0157460868719 364.70438511779366,946.6238058230367 294.29517399074825,1017.0330169500821 C 223.88596286370282,946.6238058230367 241.4882656454642,885.0157460868719 294.29517399074825,841.0099891324685 Z" fill="url(#leaf1)" opacity="0.34" transform="rotate(165.5 294.3 929.0)"/>
    <path d="M 1184.7439333796142,131.80385309469136 C 1209.3411421811375,152.30152709596075 1217.5402117816452,180.9982706977379 1184.7439333796142,213.79454909976891 C 1151.9476549775832,180.9982706977379 1160.146724578091,152.30152709596075 1184.7439333796142,131.80385309469136 Z" fill="url(#leaf2)" opacity="0.37" transform="rotate(313.1 1184.7 172.8)"/>
    <path d="M 1614.6987780003199,820.2581479863638 C 1653.274427743556,852.4045227723941 1666.1329776579682,897.4094474728363 1614.6987780003199,948.8436471304847 C 1563.2645783426715,897.4094474728363 1576.1231282570836,852.4045227723941 1614.6987780003199,820.2581479863638 Z" fill="url(#leaf3)" opacity="0.26" transform="rotate(179.6 1614.7 884.6)"/>
    <path d="M 106.41815782806395,762.4526805648557 C 154.9437146759524,802.8906446047628 171.11890029191522,859.5037942606326 106.41815782806395,924.2045367244839 C 41.7174153642127,859.5037942606326 57.89260098017551,802.8906446047628 106.41815782806395,762.4526805648557 Z" fill="url(#leaf4)" opacity="0.25" transform="rotate(79.2 106.4 843.3)"/>
    <path d="M 1361.2052480712823,-5.6348165206158995 C 1418.5674824953007,42.167045499399535 1437.688227303307,109.08965232742115 1361.2052480712823,185.57263155944582 C 1284.7222688392576,109.08965232742115 1303.843013647264,42.167045499399535 1361.2052480712823,-5.6348165206158995 Z" fill="url(#leaf5)" opacity="0.24" transform="rotate(162.5 1361.2 90.0)"/>
    <path d="M 967.494951958652,114.45209385890382 C 1005.9498337371815,146.49782867434504 1018.768127663358,191.36185741596276 967.494951958652,242.6350331206687 C 916.221776253946,191.36185741596276 929.0400701801225,146.49782867434504 967.494951958652,114.45209385890382 Z" fill="url(#leaf6)" opacity="0.21" transform="rotate(121.7 967.5 178.5)"/>
    <path d="M 1080.1444964860762,667.1619541554753 C 1131.913001131737,710.3023746935261 1149.1691693469575,770.6989634467972 1080.1444964860762,839.7236363076784 C 1011.119823625195,770.6989634467972 1028.3759918404153,710.3023746935261 1080.1444964860762,667.1619541554753 Z" fill="url(#leaf7)" opacity="0.34" transform="rotate(0.1 1080.1 753.4)"/>
    <path d="M 115.7495756533886,262.88218568582386 C 143.0315050810297,285.6171268755248 152.12548155691007,317.44604454110606 115.7495756533886,353.82195044462753 C 79.37366974986712,317.44604454110606 88.4676462257475,285.6171268755248 115.7495756533886,262.88218568582386 Z" fill="url(#leaf8)" opacity="0.36" transform="rotate(291.9 115.7 308.4)"/>
    <path d="M 982.2597908125075,243.04570771751344 C 1041.6864239276572,292.5679019801382 1061.4953016327072,361.8989739478128 982.2597908125075,441.1344847680124 C 903.0242799923079,361.8989739478128 922.8331576973578,292.5679019801382 982.2597908125075,243.04570771751344 Z" fill="url(#leaf9)" opacity="0.31" transform="rotate(343.0 982.3 342.1)"/>
    <path d="M 1790.6871061539707,938.7168968409615 C 1815.5000263503564,959.3943303379494 1823.7709997491515,988.3427372337326 1790.6871061539707,1021.4266308289134 C 1757.60321255879,988.3427372337326 1765.874185957585,959.3943303379494 1790.6871061539707,938.7168968409615 Z" fill="url(#leaf10)" opacity="0.26" transform="rotate(29.4 1790.7 980.1)"/>
    <path d="M 1142.0363742228124,406.5244913116595 C 1194.066750729005,449.88313840015337 1211.4102095644025,510.5852443240447 1142.0363742228124,579.9590796656348 C 1072.6625388812222,510.5852443240447 1090.0059977166197,449.88313840015337 1142.0363742228124,406.5244913116595 Z" fill="url(#leaf11)" opacity="0.37" transform="rotate(239.3 1142.0 493.2)"/>
    <path d="M 797.7293448728835,234.35923172200694 C 823.0729397621412,255.47889412972165 831.5208047252271,285.04642150052223 797.7293448728835,318.8378813528658 C 763.93788502054,285.04642150052223 772.3857499836258,255.47889412972165 797.7293448728835,234.35923172200694 Z" fill="url(#leaf12)" opacity="0.40" transform="rotate(21.3 797.7 276.6)"/>
    <path d="M 1362.1017379719322,581.677419467492 C 1401.9119702076273,614.8526129972378 1415.1820476195255,661.297883938882 1362.1017379719322,714.3781935864754 C 1309.0214283243388,661.297883938882 1322.291505736237,614.8526129972378 1362.1017379719322,581.677419467492 Z" fill="url(#leaf13)" opacity="0.27" transform="rotate(50.3 1362.1 648.0)"/>
    <path d="M 1654.9189497227544,786.7124256611647 C 1692.3570952612217,817.910880276554 1704.8364771073775,861.5887167380993 1654.9189497227544,911.5062441227223 C 1605.0014223381313,861.5887167380993 1617.480804184287,817.910880276554 1654.9189497227544,786.7124256611647 Z" fill="url(#leaf14)" opacity="0.33" transform="rotate(62.7 1654.9 849.1)"/>
    <path d="M 865.8036666394273,189.47126199329833 C 899.0254384571257,217.15607184138028 910.0993623963584,255.914805628695 865.8036666394273,300.2105013856261 C 821.5079708824962,255.914805628695 832.581894821729,217.15607184138028 865.8036666394273,189.47126199329833 Z" fill="url(#leaf15)" opacity="0.33" transform="rotate(112.1 865.8 244.8)"/>
    <path d="M 871.409210153605,6.8891822090631365 C 912.228596111861,40.90533717427638 925.8350580979462,88.52795412557492 871.409210153605,142.95380206991612 C 816.9833622092639,88.52795412557492 830.5898241953491,40.90533717427638 871.409210153605,6.8891822090631365 Z" fill="url(#leaf16)" opacity="0.29" transform="rotate(175.4 871.4 74.9)"/>
    <path d="M 260.55051858098216,168.239900979507 C 319.22181591059166,217.13264875418162 338.7789150204615,285.5824956387261 260.55051858098216,363.8108920782054 C 182.3221221415028,285.5824956387261 201.87922125137266,217.13264875418162 260.55051858098216,168.239900979507 Z" fill="url(#leaf17)" opacity="0.37" transform="rotate(205.5 260.6 266.0)"/>
    <path d="M 696.0261742862534,670.106491743293 C 752.8075839628076,717.4243331404214 771.734720521659,783.6693110964013 696.0261742862534,859.3778573318068 C 620.3176280508478,783.6693110964013 639.2447646096992,717.4243331404214 696.0261742862534,670.106491743293 Z" fill="url(#leaf18)" opacity="0.39" transform="rotate(343.8 696.0 764.7)"/>
    <path d="M 614.3868975161213,406.1602033672177 C 672.2589259584015,454.38689373578455 691.5496021058282,521.9042602517782 614.3868975161213,599.0669648414851 C 537.2241929264144,521.9042602517782 556.514869073841,454.38689373578455 614.3868975161213,406.1602033672177 Z" fill="url(#leaf19)" opacity="0.33" transform="rotate(320.3 614.4 502.6)"/>
    <path d="M 578.2156023727788,776.5470030930204 C 631.0530763858433,820.5782314372408 648.6655677235314,882.2219511191494 578.2156023727788,952.6719164699019 C 507.76563702202617,882.2219511191494 525.3781283597143,820.5782314372408 578.2156023727788,776.5470030930204 Z" fill="url(#leaf0)" opacity="0.27" transform="rotate(349.6 578.2 864.6)"/>
    <path d="M 1001.4318575651376,609.7398682583455 C 1033.551709719482,636.5064117202991 1044.2583271042633,673.9795725670341 1001.4318575651376,716.8060421061598 C 958.605388026012,673.9795725670341 969.3120054107933,636.5064117202991 1001.4318575651376,609.7398682583455 Z" fill="url(#leaf1)" opacity="0.33" transform="rotate(261.0 1001.4 663.3)"/>
    <path d="M 1340.709585763978,193.3337408738605 C 1377.4049823695564,223.91323804517566 1389.6367812380824,266.7245340850169 1340.709585763978,315.6517295591212 C 1291.7823902898738,266.7245340850169 1304.0141891583999,223.91323804517566 1340.709585763978,193.3337408738605 Z" fill="url(#leaf2)" opacity="0.31" transform="rotate(348.1 1340.7 254.5)"/>
    <path d="M 281.0807243554349,353.61757566790345 C 336.3796367131959,399.7000026327043 354.8126074991162,464.2154003834255 281.0807243554349,537.9472835271068 C 207.34884121175352,464.2154003834255 225.78181199767386,399.7000026327043 281.0807243554349,353.61757566790345 Z" fill="url(#leaf3)" opacity="0.38" transform="rotate(69.0 281.1 445.8)"/>
    <path d="M 1837.171830498922,42.33953790569157 C 1880.8908257054738,78.77203391115145 1895.4638241076577,129.77752831879528 1837.171830498922,188.0695219275311 C 1778.8798368901862,129.77752831879528 1793.45283529237,78.77203391115145 1837.171830498922,42.33953790569157 Z" fill="url(#leaf4)" opacity="0.32" transform="rotate(233.2 1837.2 115.2)"/>
    <path d="M 1606.0872242943828,223.20967224277086 C 1663.882928597399,271.37275916195097 1683.148163365071,338.80108084880317 1606.0872242943828,415.8620199194914 C 1529.0262852236947,338.80108084880317 1548.2915199913666,271.37275916195097 1606.0872242943828,223.20967224277086 Z" fill="url(#leaf5)" opacity="0.32" transform="rotate(128.1 1606.1 319.5)"/>
    <path d="M 317.8786589418568,729.8796004579469 C 375.50235122185006,777.899344024608 394.7102486485145,845.1269850179335 317.8786589418568,921.9585747245912 C 241.04706923519916,845.1269850179335 260.2549666618636,777.899344024608 317.8786589418568,729.8796004579469 Z" fill="url(#leaf6)" opacity="0.24" transform="rotate(103.9 317.9 825.9)"/>
    <path d="M 1474.4605505947522,434.39653325182894 C 1501.9588885721287,457.31181489964274 1511.1250012312544,489.393209206582 1474.4605505947522,526.057659843084 C 1437.7960999582501,489.393209206582 1446.9622126173758,457.31181489964274 1474.4605505947522,434.39653325182894 Z" fill="url(#leaf7)" opacity="0.29" transform="rotate(90.8 1474.5 480.2)"/>
    <path d="M 1528.778642954059,70.73867137469952 C 1586.6519407041042,118.96641949973719 1605.9430399541193,186.48526687478991 1528.778642954059,263.64966387485015 C 1451.6142459539988,186.48526687478991 1470.9053452040139,118.96641949973719 1528.778642954059,70.73867137469952 Z" fill="url(#leaf8)" opacity="0.37" transform="rotate(308.0 1528.8 167.2)"/>
    <path d="M 709.713611073317,95.55451519419418 C 755.2835468301417,133.52946165821479 770.4735254157499,186.69438670784362 709.713611073317,247.4543010502766 C 648.9536967308841,186.69438670784362 664.1436753164922,133.52946165821479 709.713611073317,95.55451519419418 Z" fill="url(#leaf9)" opacity="0.29" transform="rotate(207.7 709.7 171.5)"/>
    <path d="M 446.74548210421364,386.84434465132705 C 501.4040768113632,432.3931735739517 519.6236083804131,496.16153406562626 446.74548210421364,569.0396603418258 C 373.8673558280142,496.16153406562626 392.08688739706406,432.3931735739517 446.74548210421364,386.84434465132705 Z" fill="url(#leaf10)" opacity="0.32" transform="rotate(267.0 446.7 477.9)"/>
    <path d="M 312.5218189522613,885.5153357001986 C 338.5465892082198,907.2026442468308 347.22151262687265,937.5648762121157 312.5218189522613,972.264569886727 C 277.82212527764995,937.5648762121157 286.4970486963028,907.2026442468308 312.5218189522613,885.5153357001986 Z" fill="url(#leaf11)" opacity="0.22" transform="rotate(163.7 312.5 928.9)"/>
    <path d="M 300.0896188583523,807.159983037691 C 339.29926931114335,839.8346917483502 352.36915279540705,885.579283943273 300.0896188583523,937.8588178803278 C 247.81008492129757,885.579283943273 260.87996840556127,839.8346917483502 300.0896188583523,807.159983037691 Z" fill="url(#leaf12)" opacity="0.30" transform="rotate(240.0 300.1 872.5)"/>
    <path d="M 1106.914610111447,534.7968857883345 C 1160.9150378202417,579.7972422123302 1178.91518038984,642.797741205924 1106.914610111447,714.7983114843171 C 1034.914039833054,642.797741205924 1052.9141824026524,579.7972422123302 1106.914610111447,534.7968857883345 Z" fill="url(#leaf13)" opacity="0.32" transform="rotate(318.4 1106.9 624.8)"/>
    <path d="M 267.55835763495395,21.3836146729888 C 323.4702171989682,67.97683097633403 342.10750372030634,133.20733380101734 267.55835763495395,207.75647988636973 C 193.00921154960156,133.20733380101734 211.64649807093969,67.97683097633403 267.55835763495395,21.3836146729888 Z" fill="url(#leaf14)" opacity="0.28" transform="rotate(103.4 267.6 114.6)"/>
    <path d="M 1201.497653801813,599.8731122735846 C 1251.4306228180785,641.4839197871393 1268.0749458235002,699.7390503061157 1201.497653801813,766.3163423278031 C 1134.9203617801256,699.7390503061157 1151.5646847855473,641.4839197871393 1201.497653801813,599.8731122735846 Z" fill="url(#leaf15)" opacity="0.31" transform="rotate(320.7 1201.5 683.1)"/>
    <path d="M 1341.6453668198294,686.5250956098301 C 1375.7118809193505,714.9138573594311 1387.0673856191906,754.6581238088722 1341.6453668198294,800.0801426082336 C 1296.2233480204682,754.6581238088722 1307.5788527203083,714.9138573594311 1341.6453668198294,686.5250956098301 Z" fill="url(#leaf16)" opacity="0.33" transform="rotate(21.8 1341.6 743.3)"/>
    <path d="M 167.40980014652672,327.5469704820724 C 206.29661837696378,359.95265234076993 219.2588911204428,405.3206069429465 167.40980014652672,457.16969791686256 C 115.56070917261064,405.3206069429465 128.52298191608966,359.95265234076993 167.40980014652672,327.5469704820724 Z" fill="url(#leaf17)" opacity="0.37" transform="rotate(173.8 167.4 392.4)"/>
    <path d="M 316.13743689799594,802.0442349648964 C 351.92369605478126,831.8661175955508 363.85244910704307,873.6167532784671 316.13743689799594,921.3317654875142 C 268.4224246889488,873.6167532784671 280.3511777412106,831.8661175955508 316.13743689799594,802.0442349648964 Z" fill="url(#leaf18)" opacity="0.32" transform="rotate(127.8 316.1 861.7)"/>
    <path d="M 1519.387984400912,933.2891474511098 C 1548.06360024739,957.1854939898415 1557.6221388628828,990.6403791440658 1519.387984400912,1028.8745336060365 C 1481.1538299389413,990.6403791440658 1490.712368554434,957.1854939898415 1519.387984400912,933.2891474511098 Z" fill="url(#leaf19)" opacity="0.31" transform="rotate(331.4 1519.4 981.1)"/>
    <path d="M 1508.9446312631123,593.5238943587253 C 1546.667598352364,624.959700266435 1559.2419207154478,668.9698285372285 1508.9446312631123,719.267117989564 C 1458.6473418107769,668.9698285372285 1471.2216641738607,624.959700266435 1508.9446312631123,593.5238943587253 Z" fill="url(#leaf0)" opacity="0.39" transform="rotate(211.8 1508.9 656.4)"/>
    <path d="M 1358.0447981232226,433.50932914070756 C 1389.5538931471528,459.7669083273162 1400.0569248217964,496.52751918856825 1358.0447981232226,538.539645887142 C 1316.0326714246487,496.52751918856825 1326.5357030992923,459.7669083273162 1358.0447981232226,433.50932914070756 Z" fill="url(#leaf1)" opacity="0.27" transform="rotate(169.2 1358.0 486.0)"/>
    <path d="M 459.2254003094896,583.3004636138362 C 518.0095713435088,632.2872728088523 537.6042950215153,700.8688056818747 459.2254003094896,779.2477003939005 C 380.84650559746393,700.8688056818747 400.44122927547033,632.2872728088523 459.2254003094896,583.3004636138362 Z" fill="url(#leaf2)" opacity="0.26" transform="rotate(62.7 459.2 681.3)"/>
    <path d="M 593.9449668466153,916.6345503869867 C 635.3190859039038,951.112982934727 649.1104589229999,999.3827885015635 593.9449668466153,1054.548280577948 C 538.7794747702308,999.3827885015635 552.5708477893269,951.112982934727 593.9449668466153,916.6345503869867 Z" fill="url(#leaf3)" opacity="0.22" transform="rotate(89.5 593.9 985.6)"/>
    <path d="M 850.3406808222248,840.8090182731415 C 905.51073467912,886.7840631538875 923.9007526314183,951.1491259869318 850.3406808222248,1024.7091977961252 C 776.7806090130314,951.1491259869318 795.1706269653297,886.7840631538875 850.3406808222248,840.8090182731415 Z" fill="url(#leaf4)" opacity="0.31" transform="rotate(260.1 850.3 932.8)"/>
    <path d="M 571.7875080802551,137.09106647857095 C 628.3216040565062,184.20281312544685 647.1663027152565,250.1592584310731 571.7875080802551,325.53805306607455 C 496.4087134452536,250.1592584310731 515.2534121040039,184.20281312544685 571.7875080802551,137.09106647857095 Z" fill="url(#leaf5)" opacity="0.20" transform="rotate(56.0 571.8 231.3)"/>
    <path d="M 1201.6715220019883,579.2873542232497 C 1237.6738004566498,609.2892529354676 1249.674559941537,651.2919111325729 1201.6715220019883,699.2949490721215 C 1153.6684840624396,651.2919111325729 1165.6692435473267,609.2892529354676 1201.6715220019883,579.2873542232497 Z" fill="url(#leaf6)" opacity="0.37" transform="rotate(183.2 1201.7 639.3)"/>
    <path d="M 1116.6455675600062,847.3585987812149 C 1143.7084724751815,869.911019543861 1152.72944078024,901.4844086115656 1116.6455675600062,937.5682818317995 C 1080.5616943397722,901.4844086115656 1089.5826626448309,869.911019543861 1116.6455675600062,847.3585987812149 Z" fill="url(#leaf7)" opacity="0.23" transform="rotate(214.5 1116.6 892.5)"/>
    <path d="M 1703.2154641404643,371.95144339230035 C 1746.9037205183606,408.35832370721397 1761.4664726443261,459.3279561480931 1703.2154641404643,517.578964651955 C 1644.9644556366025,459.3279561480931 1659.527207762568,408.35832370721397 1703.2154641404643,371.95144339230035 Z" fill="url(#leaf8)" opacity="0.35" transform="rotate(64.8 1703.2 444.8)"/>
    <path d="M 126.23922197194446,294.58306140901755 C 160.34596892479044,323.0053505363892 171.7148845757391,362.7965553147095 126.23922197194446,408.2722179185041 C 80.76355936814983,362.7965553147095 92.1324750190985,323.0053505363892 126.23922197194446,294.58306140901755 Z" fill="url(#leaf9)" opacity="0.28" transform="rotate(96.0 126.2 351.4)"/>
    <path d="M 578.6304627800338,619.2682251425181 C 633.3675853574905,664.8824939570653 651.6132928833094,728.7424702974315 578.6304627800338,801.725300400707 C 505.6476326767582,728.7424702974315 523.8933402025771,664.8824939570653 578.6304627800338,619.2682251425181 Z" fill="url(#leaf10)" opacity="0.31" transform="rotate(316.9 578.6 710.5)"/>
    <path d="M 361.8014788796491,183.3015268191109 C 397.22400716006405,212.8203003861234 409.03151658686903,254.14658337994084 361.8014788796491,301.3766210871608 C 314.57144117242916,254.14658337994084 326.37895059923414,212.8203003861234 361.8014788796491,183.3015268191109 Z" fill="url(#leaf11)" opacity="0.31" transform="rotate(128.4 361.8 242.3)"/>
    <path d="M 397.33166121291896,498.7461960873949 C 446.64282833587197,539.8388353565224 463.07988404352295,597.3685303333009 397.33166121291896,663.116753163905 C 331.58343838231497,597.3685303333009 348.02049408996595,539.8388353565224 397.33166121291896,498.7461960873949 Z" fill="url(#leaf12)" opacity="0.34" transform="rotate(49.9 397.3 580.9)"/>
    <path d="M 803.8881657239118,199.87542097756807 C 850.5668981494987,238.77436466555713 866.1264756246943,293.2328858287418 803.8881657239118,355.4711957295243 C 741.6498558231293,293.2328858287418 757.2094332983249,238.77436466555713 803.8881657239118,199.87542097756807 Z" fill="url(#leaf13)" opacity="0.24" transform="rotate(245.9 803.9 277.7)"/>
    <path d="M 1422.2772867709962,-8.820764607021161 C 1480.3102302576374,39.54002163184645 1499.6545447531844,107.24512236626111 1422.2772867709962,184.62238034844927 C 1344.900028788808,107.24512236626111 1364.244343284355,39.54002163184645 1422.2772867709962,-8.820764607021161 Z" fill="url(#leaf14)" opacity="0.22" transform="rotate(306.3 1422.3 87.9)"/>
    <path d="M 499.65215514607445,710.6989108218906 C 541.9137733606325,745.916926000689 556.0009794321519,795.2221472510068 499.65215514607445,851.5709715370842 C 443.303330859997,795.2221472510068 457.3905369315164,745.916926000689 499.65215514607445,710.6989108218906 Z" fill="url(#leaf15)" opacity="0.31" transform="rotate(172.4 499.7 781.1)"/>
    <path d="M 1126.3644443298958,739.5963126057296 C 1169.5028958108148,775.5450221731621 1183.8823796377878,825.8732155675677 1126.3644443298958,883.3911508754599 C 1068.8465090220038,825.8732155675677 1083.2259928489768,775.5450221731621 1126.3644443298958,739.5963126057296 Z" fill="url(#leaf16)" opacity="0.24" transform="rotate(54.8 1126.4 811.5)"/>
    <path d="M 770.7480903705887,701.8721140112519 C 818.2276714619496,741.438431587386 834.0541984924032,796.8312761939738 770.7480903705887,860.1373843157884 C 707.4419822487741,796.8312761939738 723.2685092792277,741.438431587386 770.7480903705887,701.8721140112519 Z" fill="url(#leaf17)" opacity="0.23" transform="rotate(58.5 770.7 781.0)"/>
    <path d="M 687.1419832552472,60.551116061287956 C 739.5835397900606,104.25241317363255 757.0640586349986,165.43422913091499 687.1419832552472,235.35630451066632 C 617.2199078754958,165.43422913091499 634.7004267204337,104.25241317363255 687.1419832552472,60.551116061287956 Z" fill="url(#leaf18)" opacity="0.33" transform="rotate(345.2 687.1 148.0)"/>
    <path d="M 1547.2433741510793,163.78835117790723 C 1588.8293507478545,198.4433316752199 1602.6913429467795,246.9603043714576 1547.2433741510793,302.40827316715786 C 1491.795405355379,246.9603043714576 1505.657397554304,198.4433316752199 1547.2433741510793,163.78835117790723 Z" fill="url(#leaf19)" opacity="0.38" transform="rotate(55.7 1547.2 233.1)"/>
    <path d="M 499.15739209592584,883.8498434628162 C 526.3176816305867,906.4834180750336 535.3711114754735,938.1704225321379 499.15739209592584,974.3841419116856 C 462.9436727163781,938.1704225321379 471.997102561265,906.4834180750336 499.15739209592584,883.8498434628162 Z" fill="url(#leaf0)" opacity="0.25" transform="rotate(87.4 499.2 929.1)"/>
    <path d="M 415.3658180819216,532.9373387188626 C 456.8817590154858,567.5339561634994 470.7204059933405,615.969220585991 415.3658180819216,671.3238084974099 C 360.0112301705027,615.969220585991 373.8498771483574,567.5339561634994 415.3658180819216,532.9373387188626 Z" fill="url(#leaf1)" opacity="0.29" transform="rotate(180.9 415.4 602.1)"/>
    <path d="M 608.8673125279851,926.3396509205315 C 663.5759788754061,971.9302062100492 681.8122009912132,1035.7569836153737 608.8673125279851,1108.7018720786018 C 535.9224240647569,1035.7569836153737 554.158646180564,971.9302062100492 608.8673125279851,926.3396509205315 Z" fill="url(#leaf2)" opacity="0.38" transform="rotate(200.9 608.9 1017.5)"/>
    <path d="M 1407.7299432019527,633.9818364256735 C 1461.296636734344,678.6207477026663 1479.1522012451412,741.1152234904562 1407.7299432019527,812.5374815336447 C 1336.3076851587641,741.1152234904562 1354.1632496695613,678.6207477026663 1407.7299432019527,633.9818364256735 Z" fill="url(#leaf3)" opacity="0.20" transform="rotate(115.7 1407.7 723.3)"/>
    <path d="M 812.231141146654,168.38849741330415 C 841.59710089877,192.86013054006747 851.3857541494754,227.12041691753615 812.231141146654,266.2750299203575 C 773.0765281438325,227.12041691753615 782.8651813945379,192.86013054006747 812.231141146654,168.38849741330415 Z" fill="url(#leaf4)" opacity="0.26" transform="rotate(4.1 812.2 217.3)"/>
    <path d="M 203.75968369506413,271.354016998578 C 237.66620113501307,299.6094481985354 248.96837361499604,339.16705187847583 203.75968369506413,384.3757417984077 C 158.5509937751322,339.16705187847583 169.85316625511518,299.6094481985354 203.75968369506413,271.354016998578 Z" fill="url(#leaf5)" opacity="0.28" transform="rotate(236.3 203.8 327.9)"/>
    <path d="M 174.94998544958258,683.863402231008 C 230.27322596751196,729.9661026626159 248.7143061401551,794.5098832668668 174.94998544958258,868.2742039574393 C 101.18566475901007,794.5098832668668 119.6267449316532,729.9661026626159 174.94998544958258,683.863402231008 Z" fill="url(#leaf6)" opacity="0.22" transform="rotate(236.8 174.9 776.1)"/>
    <path d="M 630.1483161549345,451.3825946776984 C 669.6592892583794,484.3084055972359 682.8296136261945,530.4045408845883 630.1483161549345,583.0858383558483 C 577.4670186836745,530.4045408845883 590.6373430514896,484.3084055972359 630.1483161549345,451.3825946776984 Z" fill="url(#leaf7)" opacity="0.25" transform="rotate(197.1 630.1 517.2)"/>
    <path d="M 457.5282814165906,562.4256835469729 C 482.1244794225014,582.9225152185653 490.3232120911383,611.6180795587945 457.5282814165906,644.4130102333423 C 424.73335074204283,611.6180795587945 432.93208341067975,582.9225152185653 457.5282814165906,562.4256835469729 Z" fill="url(#leaf8)" opacity="0.37" transform="rotate(100.0 457.5 603.4)"/>
    <path d="M 803.1023833209779,775.0028214074309 C 858.7581890153751,821.3826594860953 877.3101242468409,886.3144327962256 803.1023833209779,960.5221737220886 C 728.8946423951148,886.3144327962256 747.4465776265806,821.3826594860953 803.1023833209779,775.0028214074309 Z" fill="url(#leaf9)" opacity="0.33" transform="rotate(351.6 803.1 867.8)"/>
    <path d="M 139.43217820614953,156.14870300605395 C 170.6075680804323,182.12819456795626 180.99936470519322,218.4994827546195 139.43217820614953,260.0666692536632 C 97.86499170710584,218.4994827546195 108.25678833186677,182.12819456795626 139.43217820614953,156.14870300605395 Z" fill="url(#leaf10)" opacity="0.35" transform="rotate(254.3 139.4 208.1)"/>
    <path d="M 1630.067795131551,27.88449472102652 C 1658.6283089420149,51.68492289641294 1668.1484802121693,85.00552234195393 1630.067795131551,123.08620742257222 C 1591.9871100509329,85.00552234195393 1601.5072813210872,51.68492289641294 1630.067795131551,27.88449472102652 Z" fill="url(#leaf11)" opacity="0.26" transform="rotate(247.8 1630.1 75.5)"/>
    <path d="M 623.9226577677302,772.4594211194201 C 662.8422134207045,804.8923841635653 675.8153986383627,850.2985324253686 623.9226577677302,902.1912732960011 C 572.0299168970978,850.2985324253686 585.003102114756,804.8923841635653 623.9226577677302,772.4594211194201 Z" fill="url(#leaf12)" opacity="0.39" transform="rotate(342.6 623.9 837.3)"/>
    <path d="M 1683.2256279571486,625.1225960301168 C 1734.5308381301265,667.8769378409319 1751.6325748544525,727.7330163760728 1683.2256279571486,796.1399632733768 C 1614.8186810598447,727.7330163760728 1631.9204177841707,667.8769378409319 1683.2256279571486,625.1225960301168 Z" fill="url(#leaf13)" opacity="0.22" transform="rotate(205.1 1683.2 710.6)"/>
    <path d="M 162.64791982622916,922.0168575438566 C 186.70195463586813,942.0618865518891 194.71996623908115,970.1249271631347 162.64791982622916,1002.1969735759866 C 130.57587341337717,970.1249271631347 138.59388501659018,942.0618865518891 162.64791982622916,922.0168575438566 Z" fill="url(#leaf14)" opacity="0.38" transform="rotate(164.2 162.6 962.1)"/>
    <path d="M 771.3811318482744,364.1261633077811 C 811.8731832314228,397.86953946040467 825.3705336924722,445.11026607407774 771.3811318482744,499.0996679182755 C 717.3917300040766,445.11026607407774 730.8890804651261,397.86953946040467 771.3811318482744,364.1261633077811 Z" fill="url(#leaf15)" opacity="0.27" transform="rotate(257.9 771.4 431.6)"/>
    <path d="M 488.16032237735953,-6.720725210855363 C 537.6760647725869,34.54239345183407 554.1813122376626,92.31075957959928 488.16032237735953,158.33174943990238 C 422.13933251705646,92.31075957959928 438.6445799821322,34.54239345183407 488.16032237735953,-6.720725210855363 Z" fill="url(#leaf16)" opacity="0.31" transform="rotate(142.7 488.2 75.8)"/>
    <path d="M 290.8443214338217,134.11780844986768 C 316.30033204279874,155.33115062401524 324.7856689124578,185.02982966782184 290.8443214338217,218.97117714645796 C 256.90297395518553,185.02982966782184 265.3883108248446,155.33115062401524 290.8443214338217,134.11780844986768 Z" fill="url(#leaf17)" opacity="0.28" transform="rotate(11.7 290.8 176.5)"/>
    <path d="M 503.3454975404207,431.1933288162759 C 546.1747968003715,466.88441153290154 560.4512298870218,516.8519273361775 503.3454975404207,573.9576596827785 C 446.2397651938196,516.8519273361775 460.5161982804699,466.88441153290154 503.3454975404207,431.1933288162759 Z" fill="url(#leaf18)" opacity="0.24" transform="rotate(68.5 503.3 502.6)"/>
    <path d="M 319.0155763009863,162.18586834524086 C 361.21634807680255,197.35317815842106 375.2832720020746,246.58741189687333 319.0155763009863,302.85510759796165 C 262.747880599898,246.58741189687333 276.8148045251701,197.35317815842106 319.0155763009863,162.18586834524086 Z" fill="url(#leaf19)" opacity="0.30" transform="rotate(318.7 319.0 232.5)"/>
    <path d="M 650.5189977600954,713.2699720032961 C 695.8616849726094,751.0555446803911 710.9759140434473,803.955346428324 650.5189977600954,864.412262711676 C 590.0620814767435,803.955346428324 605.1763105475815,751.0555446803911 650.5189977600954,713.2699720032961 Z" fill="url(#leaf0)" opacity="0.35" transform="rotate(210.6 650.5 788.8)"/>
    <path d="M 791.4686725520343,910.7429160551433 C 823.0120092716613,937.0290299881657 833.5264548448703,973.8295894943972 791.4686725520343,1015.8873717872332 C 749.4108902591983,973.8295894943972 759.9253358324072,937.0290299881657 791.4686725520343,910.7429160551433 Z" fill="url(#leaf1)" opacity="0.26" transform="rotate(282.8 791.5 963.3)"/>
    <path d="M 188.83215668636362,280.6709456895312 C 236.23179044081317,320.17064048490585 252.03166835896303,375.4702131984303 188.83215668636362,438.66972487102976 C 125.6326450137642,375.4702131984303 141.43252293191406,320.17064048490585 188.83215668636362,280.6709456895312 Z" fill="url(#leaf2)" opacity="0.35" transform="rotate(228.5 188.8 359.7)"/>
    <path d="M 1380.5131039092437,235.8923517284921 C 1433.7404528597096,280.24847585388045 1451.482902509865,342.3470496294241 1380.5131039092437,413.3168482300454 C 1309.5433053086224,342.3470496294241 1327.2857549587777,280.24847585388045 1380.5131039092437,235.8923517284921 Z" fill="url(#leaf3)" opacity="0.23" transform="rotate(228.8 1380.5 324.6)"/>
    <path d="M 1728.8411087664037,794.6020784304284 C 1762.3509441511092,822.5269412510162 1773.5208892793441,861.6217491998391 1728.8411087664037,906.3015297127796 C 1684.1613282534634,861.6217491998391 1695.3312733816983,822.5269412510162 1728.8411087664037,794.6020784304284 Z" fill="url(#leaf4)" opacity="0.25" transform="rotate(120.3 1728.8 850.5)"/>
    <path d="M 1053.2032709243772,790.968956991903 C 1106.3778772832604,835.281128957639 1124.1027460695548,897.3181697096693 1053.2032709243772,968.2176448548469 C 982.3037957791996,897.3181697096693 1000.028664565494,835.281128957639 1053.2032709243772,790.968956991903 Z" fill="url(#leaf5)" opacity="0.38" transform="rotate(26.8 1053.2 879.6)"/>
    <path d="M 1198.7982391999085,465.5901867063007 C 1232.8267808985374,493.9473047884914 1244.1696281314137,533.6472701035585 1198.7982391999085,579.0186590350637 C 1153.4268502684033,533.6472701035585 1164.7696975012796,493.9473047884914 1198.7982391999085,465.5901867063007 Z" fill="url(#leaf6)" opacity="0.37" transform="rotate(327.9 1198.8 522.3)"/>
    <path d="M 1375.4863981214776,330.6275202299819 C 1411.9692722420011,361.02991533041813 1424.1302302821755,403.5932684710288 1375.4863981214776,452.2371006317268 C 1326.8425659607797,403.5932684710288 1339.003524000954,361.02991533041813 1375.4863981214776,330.6275202299819 Z" fill="url(#leaf7)" opacity="0.28" transform="rotate(150.5 1375.5 391.4)"/>
    <path d="M 1688.3736892769173,17.311535461496177 C 1720.758775514118,44.299107325830235 1731.5538042598519,82.08170793589792 1688.3736892769173,125.26182291883241 C 1645.1935742939827,82.08170793589792 1655.9886030397165,44.299107325830235 1688.3736892769173,17.311535461496177 Z" fill="url(#leaf8)" opacity="0.40" transform="rotate(182.3 1688.4 71.3)"/>
    <path d="M 139.87153065185362,273.30818737643597 C 198.7897634447079,322.40671470381454 218.42917437565933,391.14465296214456 139.87153065185362,469.7022966859503 C 61.31388692804791,391.14465296214456 80.95329785899935,322.40671470381454 139.87153065185362,273.30818737643597 Z" fill="url(#leaf9)" opacity="0.23" transform="rotate(36.5 139.9 371.5)"/>
    <path d="M 514.4777008308365,319.38467217371533 C 539.1382644627124,339.93514186694523 547.3584523400043,368.7057994374671 514.4777008308365,401.58655094663493 C 481.59694932166866,368.7057994374671 489.8171371989606,339.93514186694523 514.4777008308365,319.38467217371533 Z" fill="url(#leaf10)" opacity="0.36" transform="rotate(255.9 514.5 360.5)"/>
    <path d="M 347.0338421697716,141.84457054475104 C 382.88865634885826,171.72358236065656 394.84026107522044,213.5541989029243 347.0338421697716,261.36061780837315 C 299.2274232643228,213.5541989029243 311.179027990685,171.72358236065656 347.0338421697716,141.84457054475104 Z" fill="url(#leaf11)" opacity="0.38" transform="rotate(275.9 347.0 201.6)"/>
  </g>

  <!-- Central star shape -->
  <polygon points="960.0,330.9 1021.5,455.4 1158.9,475.4 1059.4,572.3 1082.9,709.2 960.0,644.6 837.1,709.2 860.6,572.3 761.1,475.4 898.5,455.4" 
           fill="#7B68EE" 
           transform="rotate(343.6 960.0 540.0)"/>
</svg>