<?xml version="1.0" encoding="UTF-8"?>
<svg xmlns="http://www.w3.org/2000/svg" viewBox="0 0 1920 1080" width="1920" height="1080">
  <defs>
    <linearGradient id="bgGrad" x1="0%" y1="0%" x2="100%" y2="100%">
      <stop offset="0%" stop-color="#FF1493"/>
      <stop offset="100%" stop-color="#FF6B6B"/>
    </linearGradient>
    <clipPath id="complexClip"><polygon points="1436.2,540.0 1380.4,590.3 1398.2,649.7 1237.8,653.5 1224.6,705.3 1172.6,747.1 1100.4,783.0 1001.6,762.6 918.3,763.0 838.8,749.8 719.9,773.9 690.7,708.2 517.3,720.9 546.9,643.5 426.4,603.8 555.7,540.0 465.9,480.9 548.4,436.9 687.6,428.7 703.0,379.5 714.1,300.4 787.1,240.7 902.8,233.9 1010.0,272.5 1079.5,333.2 1131.9,372.5 1332.4,307.4 1423.9,350.4 1391.2,432.0 1476.8,478.2"/></clipPath>
    <radialGradient id="leaf0" cx="50%" cy="50%" r="70%">
      <stop offset="0%" stop-color="#00FA9A"/>
      <stop offset="50%" stop-color="#DC143C"/>
      <stop offset="100%" stop-color="#7B68EE"/>
    </radialGradient>
    <radialGradient id="leaf1" cx="50%" cy="50%" r="70%">
      <stop offset="0%" stop-color="#00FA9A"/>
      <stop offset="50%" stop-color="#4ECDC4"/>
      <stop offset="100%" stop-color="#7B68EE"/>
    </radialGradient>
    <radialGradient id="leaf2" cx="50%" cy="50%" r="70%">
      <stop offset="0%" stop-color="#FF69B4"/>
      <stop offset="50%" stop-color="#32CD32"/>
      <stop offset="100%" stop-color="#00CED1"/>
    </radialGradient>
    <radialGradient id="leaf3" cx="50%" cy="50%" r="70%">
      <stop offset="0%" stop-color="#FF4500"/>
      <stop offset="50%" stop-color="#96E6A1"/>
      <stop offset="100%" stop-color="#32CD32"/>
    </radialGradient>
    <radialGradient id="leaf4" cx="50%" cy="50%" r="70%">
      <stop offset="0%" stop-color="#9370DB"/>
      <stop offset="50%" stop-color="#00CED1"/>
      <stop offset="100%" stop-color="#FF6B6B"/>
    </radialGradient>
    <radialGradient id="leaf5" cx="50%" cy="50%" r="70%">
      <stop offset="0%" stop-color="#FF6B6B"/>
      <stop offset="50%" stop-color="#FFD700"/>
      <stop offset="100%" stop-color="#FF1493"/>
    </radialGradient>
    <radialGradient id="leaf6" cx="50%" cy="50%" r="70%">
      <stop offset="0%" stop-color="#FF69B4"/>
      <stop offset="50%" stop-color="#FF6B6B"/>
      <stop offset="100%" stop-color="#FF4500"/>
    </radialGradient>
    <radialGradient id="leaf7" cx="50%" cy="50%" r="70%">
      <stop offset="0%" stop-color="#FF1493"/>
      <stop offset="50%" stop-color="#FFE66D"/>
      <stop offset="100%" stop-color="#00FA9A"/>
    </radialGradient>
    <radialGradient id="leaf8" cx="50%" cy="50%" r="70%">
      <stop offset="0%" stop-color="#9370DB"/>
      <stop offset="50%" stop-color="#FF6B6B"/>
      <stop offset="100%" stop-color="#96E6A1"/>
    </radialGradient>
    <radialGradient id="leaf9" cx="50%" cy="50%" r="70%">
      <stop offset="0%" stop-color="#DC143C"/>
      <stop offset="50%" stop-color="#FF6B6B"/>
      <stop offset="100%" stop-color="#45B7D1"/>
    </radialGradient>
    <radialGradient id="leaf10" cx="50%" cy="50%" r="70%">
      <stop offset="0%" stop-color="#FF4500"/>
      <stop offset="50%" stop-color="#FF6B6B"/>
      <stop offset="100%" stop-color="#96E6A1"/>
    </radialGradient>
    <radialGradient id="leaf11" cx="50%" cy="50%" r="70%">
      <stop offset="0%" stop-color="#FFE66D"/>
      <stop offset="50%" stop-color="#96E6A1"/>
      <stop offset="100%" stop-color="#45B7D1"/>
    </radialGradient>
    <radialGradient id="leaf12" cx="50%" cy="50%" r="70%">
      <stop offset="0%" stop-color="#00FA9A"/>
      <stop offset="50%" stop-color="#9370DB"/>
      <stop offset="100%" stop-color="#4ECDC4"/>
    </radialGradient>
    <radialGradient id="leaf13" cx="50%" cy="50%" r="70%">
      <stop offset="0%" stop-color="#45B7D1"/>
      <stop offset="50%" stop-color="#7B68EE"/>
      <stop offset="100%" stop-color="#FF6B6B"/>
    </radialGradient>
    <radialGradient id="leaf14" cx="50%" cy="50%" r="70%">
      <stop offset="0%" stop-color="#4ECDC4"/>
      <stop offset="50%" stop-color="#7B68EE"/>
      <stop offset="100%" stop-color="#FFD700"/>
    </radialGradient>
    <radialGradient id="leaf15" cx="50%" cy="50%" r="70%">
      <stop offset="0%" stop-color="#9370DB"/>
      <stop offset="50%" stop-color="#4ECDC4"/>
      <stop offset="100%" stop-color="#00CED1"/>
    </radialGradient>
    <radialGradient id="leaf16" cx="50%" cy="50%" r="70%">
      <stop offset="0%" stop-color="#00CED1"/>
      <stop offset="50%" stop-color="#FFE66D"/>
      <stop offset="100%" stop-color="#FFD700"/>
    </radialGradient>
    <radialGradient id="leaf17" cx="50%" cy="50%" r="70%">
      <stop offset="0%" stop-color="#32CD32"/>
      <stop offset="50%" stop-color="#45B7D1"/>
      <stop offset="100%" stop-color="#FF1493"/>
    </radialGradient>
    <radialGradient id="leaf18" cx="50%" cy="50%" r="70%">
      <stop offset="0%" stop-color="#FFE66D"/>
      <stop offset="50%" stop-color="#FF69B4"/>
      <stop offset="100%" stop-color="#45B7D1"/>
    </radialGradient>
    <radialGradient id="leaf19" cx="50%" cy="50%" r="70%">
      <stop offset="0%" stop-color="#96E6A1"/>
      <stop offset="50%" stop-color="#9370DB"/>
      <stop offset="100%" stop-color="#FF69B4"/>
    </radialGradient>
  </defs>

  <!-- Background -->
  <rect width="1920" height="1080" fill="url(#bgGrad)"/>
  
  <!-- Leaves with clip-path -->
  <g clip-path="url(#complexClip)">
    <path d="M 99.2446566850117,94.03812968365459 C 157.91379957683046,142.92908209350355 177.47018054077006,211.37641546729208 99.2446566850117,289.60193932305043 C 21.019132829253365,211.37641546729208 40.57551379319296,142.92908209350355 99.2446566850117,94.03812968365459 Z" fill="url(#leaf0)" opacity="0.21" transform="rotate(82.6 99.2 191.8)"/>
    <path d="M 668.2255376563046,435.33556129338695 C 724.804356050894,482.4845766222114 743.6639621824238,548.4931980825656 668.2255376563046,623.9316226086848 C 592.7871131301854,548.4931980825656 611.6467192617152,482.4845766222114 668.2255376563046,435.33556129338695 Z" fill="url(#leaf1)" opacity="0.24" transform="rotate(13.3 668.2 529.6)"/>
    <path d="M 1039.7407096116235,219.91097839552512 C 1090.7324394284121,262.40408657618235 1107.729682700675,321.89443802910245 1039.7407096116235,389.88341111815396 C 971.751736522572,321.89443802910245 988.7489797948349,262.40408657618235 1039.7407096116235,219.91097839552512 Z" fill="url(#leaf2)" opacity="0.32" transform="rotate(95.4 1039.7 304.9)"/>
    <path d="M 938.1997479307045,139.9359448688212 C 980.2006894012967,174.93672942764806 994.2010032248274,223.93782781000564 938.1997479307045,279.9390831041286 C 882.1984926365815,223.93782781000564 896.1988064601122,174.93672942764806 938.1997479307045,139.9359448688212 Z" fill="url(#leaf3)" opacity="0.36" transform="rotate(255.1 938.2 209.9)"/>
    <path d="M 506.1491210105001,754.8574934296553 C 534.9350214689368,778.8457438116859 544.5303216217492,812.4292943465288 506.1491210105001,850.8104949577778 C 467.76792039925107,812.4292943465288 477.3632205520633,778.8457438116859 506.1491210105001,754.8574934296553 Z" fill="url(#leaf4)" opacity="0.24" transform="rotate(266.1 506.1 802.8)"/>
    <path d="M 1261.9751507534181,628.6383824543232 C 1293.7310359617154,655.1016201279042 1304.3163310311477,692.1501528709176 1261.9751507534181,734.4913331486473 C 1219.6339704756886,692.1501528709176 1230.2192655451208,655.1016201279042 1261.9751507534181,628.6383824543232 Z" fill="url(#leaf5)" opacity="0.30" transform="rotate(86.8 1262.0 681.6)"/>
    <path d="M 234.71060048103539,112.40733592776135 C 291.42873706831125,159.67244975049124 310.3347825974032,225.84360910231305 234.71060048103539,301.4677912186809 C 159.08641836466757,225.84360910231305 177.99246389375955,159.67244975049124 234.71060048103539,112.40733592776135 Z" fill="url(#leaf6)" opacity="0.23" transform="rotate(24.4 234.7 206.9)"/>
    <path d="M 1584.461742638631,508.40069724842976 C 1629.0051548058561,545.5202073877839 1643.8529588615977,597.4875215828798 1584.461742638631,656.8787378058465 C 1525.0705264156643,597.4875215828798 1539.9183304714059,545.5202073877839 1584.461742638631,508.40069724842976 Z" fill="url(#leaf7)" opacity="0.38" transform="rotate(67.4 1584.5 582.6)"/>
    <path d="M 403.591469815584,206.95021307704968 C 450.013039155513,245.63485419365722 465.48689560215604,299.7933517569078 403.591469815584,361.68877754347983 C 341.69604402901194,299.7933517569078 357.16990047565497,245.63485419365722 403.591469815584,206.95021307704968 Z" fill="url(#leaf8)" opacity="0.21" transform="rotate(316.3 403.6 284.3)"/>
    <path d="M 1015.902910245127,402.79285509729357 C 1059.5257564476126,439.1452269326983 1074.0667051817745,490.0385475022648 1015.902910245127,548.2023424389123 C 957.7391153084795,490.0385475022648 972.2800640426415,439.1452269326983 1015.902910245127,402.79285509729357 Z" fill="url(#leaf9)" opacity="0.26" transform="rotate(61.2 1015.9 475.5)"/>
    <path d="M 975.7278519567532,292.3305617980549 C 1035.2432747634343,341.9267474702892 1055.0817490323282,411.36140741141725 975.7278519567532,490.7153044869922 C 896.3739548811782,411.36140741141725 916.212429150072,341.9267474702892 975.7278519567532,292.3305617980549 Z" fill="url(#leaf10)" opacity="0.36" transform="rotate(179.1 975.7 391.5)"/>
    <path d="M 205.13216484740383,456.42233865510354 C 255.456685629947,498.3594393072229 272.2315258907947,557.07138022019 205.13216484740383,624.1707412635809 C 138.0328038040129,557.07138022019 154.80764406486065,498.3594393072229 205.13216484740383,456.42233865510354 Z" fill="url(#leaf11)" opacity="0.35" transform="rotate(131.8 205.1 540.3)"/>
    <path d="M 1739.0248325025964,139.65691246533456 C 1768.6942832087254,164.38145472044206 1778.5841001107683,198.99581387759258 1739.0248325025964,238.5550814857646 C 1699.4655648944245,198.99581387759258 1709.3553817964673,164.38145472044206 1739.0248325025964,139.65691246533456 Z" fill="url(#leaf12)" opacity="0.23" transform="rotate(294.3 1739.0 189.1)"/>
    <path d="M 1144.6081447832078,346.2620244447887 C 1190.1122643125525,384.1821240525761 1205.2803041556676,437.2702635034784 1144.6081447832078,497.9424228759382 C 1083.935985410748,437.2702635034784 1099.104025253863,384.1821240525761 1144.6081447832078,346.2620244447887 Z" fill="url(#leaf13)" opacity="0.23" transform="rotate(31.4 1144.6 422.1)"/>
    <path d="M 1046.5680045188153,1.4927041450910536 C 1101.536092267233,47.299443935439136 1119.8587881833723,111.42887964192646 1046.5680045188153,184.71966330648337 C 973.2772208542584,111.42887964192646 991.5999167703976,47.299443935439136 1046.5680045188153,1.4927041450910536 Z" fill="url(#leaf14)" opacity="0.31" transform="rotate(333.0 1046.6 93.1)"/>
    <path d="M 1217.6578088994554,302.26883430729924 C 1261.1385904712865,338.5028189504918 1275.6321843285637,389.2303974509615 1217.6578088994554,447.20477288006964 C 1159.6834334703472,389.2303974509615 1174.1770273276243,338.5028189504918 1217.6578088994554,302.26883430729924 Z" fill="url(#leaf15)" opacity="0.29" transform="rotate(351.2 1217.7 374.7)"/>
    <path d="M 262.5356291178224,924.1345449089897 C 314.3008148718219,967.2721997039893 331.5558767898217,1027.6649164169887 262.5356291178224,1096.685164088988 C 193.5153814458231,1027.6649164169887 210.77044336382292,967.2721997039893 262.5356291178224,924.1345449089897 Z" fill="url(#leaf16)" opacity="0.24" transform="rotate(125.1 262.5 1010.4)"/>
    <path d="M 1251.5121441654871,70.98801557114015 C 1299.07679311156,110.6252230262008 1314.9316760935842,166.1173134632857 1251.5121441654871,229.53684539138274 C 1188.09261223739,166.1173134632857 1203.9474952194143,110.6252230262008 1251.5121441654871,70.98801557114015 Z" fill="url(#leaf17)" opacity="0.32" transform="rotate(214.8 1251.5 150.3)"/>
    <path d="M 292.27382814713667,710.5935692369908 C 344.40639327069596,754.0373735066236 361.7839149785491,814.8586994841095 292.27382814713667,884.3687863155219 C 222.76374131572425,814.8586994841095 240.14126302357738,754.0373735066236 292.27382814713667,710.5935692369908 Z" fill="url(#leaf18)" opacity="0.26" transform="rotate(329.3 292.3 797.5)"/>
    <path d="M 1285.1520326405357,579.3794146650183 C 1331.1561073417715,617.7161435827147 1346.4907989088501,671.3875640674898 1285.1520326405357,732.7263303358042 C 1223.8132663722213,671.3875640674898 1239.1479579392999,617.7161435827147 1285.1520326405357,579.3794146650183 Z" fill="url(#leaf19)" opacity="0.27" transform="rotate(285.5 1285.2 656.1)"/>
    <path d="M 1492.7969391415083,39.72777287854039 C 1522.4192293724382,64.41301473764864 1532.2933261160815,98.9723533404002 1492.7969391415083,138.4687403149734 C 1453.3005521669352,98.9723533404002 1463.1746489105785,64.41301473764864 1492.7969391415083,39.72777287854039 Z" fill="url(#leaf0)" opacity="0.29" transform="rotate(275.8 1492.8 89.1)"/>
    <path d="M 595.9534901346801,522.4110207829821 C 648.5357461302196,566.2295674459317 666.0631647953994,627.5755327740611 595.9534901346801,697.6852074347804 C 525.8438154739608,627.5755327740611 543.3712341391406,566.2295674459317 595.9534901346801,522.4110207829821 Z" fill="url(#leaf1)" opacity="0.27" transform="rotate(24.8 596.0 610.0)"/>
    <path d="M 1533.9593690433803,130.26664185531934 C 1586.2743986059747,173.86249982414805 1603.7127417935062,234.89670098050823 1533.9593690433803,304.6500737306342 C 1464.2059962932544,234.89670098050823 1481.644339480786,173.86249982414805 1533.9593690433803,130.26664185531934 Z" fill="url(#leaf2)" opacity="0.30" transform="rotate(160.5 1534.0 217.5)"/>
    <path d="M 1050.5713462116792,655.4229034146433 C 1095.4523837807928,692.8237680555713 1110.4127296371641,745.1849785528706 1050.5713462116792,805.0263619783555 C 990.7299627861943,745.1849785528706 1005.6903086425655,692.8237680555713 1050.5713462116792,655.4229034146433 Z" fill="url(#leaf3)" opacity="0.34" transform="rotate(231.9 1050.6 730.2)"/>
    <path d="M 1665.9247075153135,824.2460141484053 C 1706.160948086722,857.7762146245791 1719.5730282771915,904.7184952912224 1665.9247075153135,958.3668160531006 C 1612.2763867534354,904.7184952912224 1625.6884669439048,857.7762146245791 1665.9247075153135,824.2460141484053 Z" fill="url(#leaf4)" opacity="0.22" transform="rotate(180.3 1665.9 891.3)"/>
    <path d="M 1416.0875994995563,716.4856130372347 C 1452.1387987540584,746.5282790826531 1464.155865172226,788.5880115462389 1416.0875994995563,836.6562772189085 C 1368.0193338268866,788.5880115462389 1380.0364002450542,746.5282790826531 1416.0875994995563,716.4856130372347 Z" fill="url(#leaf5)" opacity="0.29" transform="rotate(155.9 1416.1 776.6)"/>
    <path d="M 1292.3024619557973,219.79602696989338 C 1339.6630076819524,259.26314840835596 1355.4498562573374,314.51711842220357 1292.3024619557973,377.6645127237437 C 1229.1550676542572,314.51711842220357 1244.9419162296422,259.26314840835596 1292.3024619557973,219.79602696989338 Z" fill="url(#leaf6)" opacity="0.33" transform="rotate(78.2 1292.3 298.7)"/>
    <path d="M 543.9812333544569,36.1837198796759 C 568.0080107541138,56.20603437938995 576.0169365539994,84.2372746789896 543.9812333544569,116.27297787853209 C 511.9455301549144,84.2372746789896 519.9544559548,56.20603437938995 543.9812333544569,36.1837198796759 Z" fill="url(#leaf7)" opacity="0.23" transform="rotate(200.5 544.0 76.2)"/>
    <path d="M 1607.8291214045585,242.76564123717424 C 1634.3986427379023,264.9069090149608 1643.255149849017,295.90468390386195 1607.8291214045585,331.3307123483204 C 1572.4030929601,295.90468390386195 1581.2596000712147,264.9069090149608 1607.8291214045585,242.76564123717424 Z" fill="url(#leaf8)" opacity="0.31" transform="rotate(5.8 1607.8 287.0)"/>
    <path d="M 922.8325132490174,954.4662062779717 C 958.6560996495937,984.3191949451185 970.5972951164524,1026.1133790791241 922.8325132490174,1073.878160946559 C 875.0677313815825,1026.1133790791241 887.0089268484412,984.3191949451185 922.8325132490174,954.4662062779717 Z" fill="url(#leaf9)" opacity="0.31" transform="rotate(54.6 922.8 1014.2)"/>
    <path d="M 69.43444085706395,262.6999987776461 C 115.83773095523938,301.3694071927923 131.30549432129786,355.50657897399697 69.43444085706395,417.3776324382309 C 7.5633873928300375,355.50657897399697 23.031150758888515,301.3694071927923 69.43444085706395,262.6999987776461 Z" fill="url(#leaf10)" opacity="0.31" transform="rotate(55.3 69.4 340.0)"/>
    <path d="M 466.0539676448144,175.79653453262515 C 524.9223053216704,224.85348259667182 544.5450845472891,293.53320988633715 466.0539676448144,372.0243267888118 C 387.5628507423397,293.53320988633715 407.1856299679584,224.85348259667182 466.0539676448144,175.79653453262515 Z" fill="url(#leaf11)" opacity="0.26" transform="rotate(216.4 466.1 273.9)"/>
    <path d="M 1170.959204479086,88.37212328315192 C 1201.3382731360412,113.68801383061441 1211.464629355026,149.1302605970619 1170.959204479086,189.63568547300187 C 1130.4537796031461,149.1302605970619 1140.580135822131,113.68801383061441 1170.959204479086,88.37212328315192 Z" fill="url(#leaf12)" opacity="0.34" transform="rotate(322.0 1171.0 139.0)"/>
    <path d="M 672.4128665091954,369.43902866916153 C 703.8839015194392,395.66489117769805 714.3742465228538,432.3810986896491 672.4128665091954,474.3424787033075 C 630.451486495537,432.3810986896491 640.9418314989516,395.66489117769805 672.4128665091954,369.43902866916153 Z" fill="url(#leaf13)" opacity="0.31" transform="rotate(16.9 672.4 421.9)"/>
    <path d="M 1177.0023461638193,406.61464949700644 C 1235.0423757381593,454.98134080895636 1254.3890522629392,522.6947086456863 1177.0023461638193,600.0814147448062 C 1099.6156400646994,522.6947086456863 1118.9623165894793,454.98134080895636 1177.0023461638193,406.61464949700644 Z" fill="url(#leaf14)" opacity="0.28" transform="rotate(224.9 1177.0 503.3)"/>
    <path d="M 1288.3471355061918,84.56629046231325 C 1346.394349814175,132.93896905229934 1365.7434212501696,200.6607190782799 1288.3471355061918,278.0570048222577 C 1210.950849762214,200.6607190782799 1230.2999211982085,132.93896905229934 1288.3471355061918,84.56629046231325 Z" fill="url(#leaf15)" opacity="0.36" transform="rotate(359.0 1288.3 181.3)"/>
    <path d="M 1787.9665456292314,519.7186859518845 C 1815.8447184176905,542.9504966089337 1825.13744268051,575.4750315288026 1787.9665456292314,612.6459285800813 C 1750.7956485779528,575.4750315288026 1760.0883728407723,542.9504966089337 1787.9665456292314,519.7186859518845 Z" fill="url(#leaf16)" opacity="0.27" transform="rotate(52.3 1788.0 566.2)"/>
    <path d="M 782.3034678581565,387.5567416008155 C 813.3263013466766,413.4091028412489 823.66724584285,449.6024085778557 782.3034678581565,490.9661865625492 C 740.9396898734631,449.6024085778557 751.2806343696365,413.4091028412489 782.3034678581565,387.5567416008155 Z" fill="url(#leaf17)" opacity="0.25" transform="rotate(212.9 782.3 439.3)"/>
    <path d="M 1312.2856138156128,20.783002926805565 C 1367.5464086720121,66.83366530713829 1385.9666736241452,131.30459263960412 1312.2856138156128,204.98565244813648 C 1238.6045540070804,131.30459263960412 1257.0248189592135,66.83366530713829 1312.2856138156128,20.783002926805565 Z" fill="url(#leaf18)" opacity="0.23" transform="rotate(221.7 1312.3 112.9)"/>
    <path d="M 529.3635926962452,110.72206149951649 C 577.5999380188873,150.91901593505162 593.6787197931014,207.19475214480084 529.3635926962452,271.5098792416571 C 465.0484655993889,207.19475214480084 481.127247373603,150.91901593505162 529.3635926962452,110.72206149951649 Z" fill="url(#leaf19)" opacity="0.31" transform="rotate(33.0 529.4 191.1)"/>
    <path d="M 1012.7034734985785,528.1736164513281 C 1064.6263637986333,571.4426917013739 1081.9339938986516,632.0193970514379 1012.7034734985785,701.249917451511 C 943.4729530985054,632.0193970514379 960.7805831985237,571.4426917013739 1012.7034734985785,528.1736164513281 Z" fill="url(#leaf0)" opacity="0.22" transform="rotate(73.2 1012.7 614.7)"/>
    <path d="M 1708.0339640415461,370.60144357716405 C 1763.4373302221939,416.77091539437055 1781.9051189490765,481.40817593845964 1708.0339640415461,555.27933084599 C 1634.1628091340158,481.40817593845964 1652.6305978608984,416.77091539437055 1708.0339640415461,370.60144357716405 Z" fill="url(#leaf1)" opacity="0.37" transform="rotate(255.6 1708.0 462.9)"/>
    <path d="M 1806.5415094517055,397.4523323044254 C 1834.0897174908039,420.4091723370075 1843.2724535038367,452.5487483826223 1806.5415094517055,489.2796924347536 C 1769.8105653995742,452.5487483826223 1778.993301412607,420.4091723370075 1806.5415094517055,397.4523323044254 Z" fill="url(#leaf2)" opacity="0.37" transform="rotate(6.9 1806.5 443.4)"/>
    <path d="M 1025.4312393266891,212.02165674414803 C 1062.2279932181787,242.6856183203892 1074.4935778486752,285.6151645271269 1025.4312393266891,334.67750304911283 C 976.3689008047032,285.6151645271269 988.6344854351997,242.6856183203892 1025.4312393266891,212.02165674414803 Z" fill="url(#leaf3)" opacity="0.24" transform="rotate(236.6 1025.4 273.3)"/>
    <path d="M 1757.1030787428097,152.04177123444634 C 1794.2272996576598,182.97862199682152 1806.60203996261,226.2902130641467 1757.1030787428097,275.789174283947 C 1707.6041175230093,226.2902130641467 1719.9788578279595,182.97862199682152 1757.1030787428097,152.04177123444634 Z" fill="url(#leaf4)" opacity="0.26" transform="rotate(91.5 1757.1 213.9)"/>
    <path d="M 1368.8929826251049,178.19484757549057 C 1416.981799380592,218.26886153839666 1433.0114049657545,274.37248108646514 1368.8929826251049,338.49090342711486 C 1304.7745602844552,274.37248108646514 1320.8041658696177,218.26886153839666 1368.8929826251049,178.19484757549057 Z" fill="url(#leaf5)" opacity="0.36" transform="rotate(187.0 1368.9 258.3)"/>
    <path d="M 449.9752313937416,935.0625978194233 C 503.8882541293922,979.9901167657989 521.8592617079424,1042.8886432907245 449.9752313937416,1114.7726736049253 C 378.0912010795407,1042.8886432907245 396.062208658091,979.9901167657989 449.9752313937416,935.0625978194233 Z" fill="url(#leaf6)" opacity="0.37" transform="rotate(140.2 450.0 1024.9)"/>
    <path d="M 949.9268830429,817.1544999512184 C 988.2555337754196,849.095042228318 1001.0317506862594,893.8118014162575 949.9268830429,944.9166690596169 C 898.8220153995406,893.8118014162575 911.5982323103805,849.095042228318 949.9268830429,817.1544999512184 Z" fill="url(#leaf7)" opacity="0.34" transform="rotate(205.6 949.9 881.0)"/>
    <path d="M 1458.332691624471,711.8253764833177 C 1509.8047964815328,754.7187971975359 1526.96216476722,814.7695861974413 1458.332691624471,883.3990593401903 C 1389.703218481722,814.7695861974413 1406.8605867674091,754.7187971975359 1458.332691624471,711.8253764833177 Z" fill="url(#leaf8)" opacity="0.28" transform="rotate(228.5 1458.3 797.6)"/>
    <path d="M 1142.3150759213588,582.9093772094908 C 1195.5845298266895,627.3005887972664 1213.3410144617997,689.4482850201523 1142.3150759213588,760.4742235605933 C 1071.289137380918,689.4482850201523 1089.0456220160281,627.3005887972664 1142.3150759213588,582.9093772094908 Z" fill="url(#leaf9)" opacity="0.38" transform="rotate(335.0 1142.3 671.7)"/>
    <path d="M 1250.8217612471922,230.5786913486746 C 1300.7519403665551,272.18717394814365 1317.3953334063426,330.43904958740035 1250.8217612471922,397.01262174655085 C 1184.2481890880417,330.43904958740035 1200.8915821278292,272.18717394814365 1250.8217612471922,230.5786913486746 Z" fill="url(#leaf10)" opacity="0.25" transform="rotate(321.1 1250.8 313.8)"/>
    <path d="M 710.8497123968036,791.7876850920952 C 744.703572951323,819.9992355541948 755.988193136163,859.4954062011342 710.8497123968036,904.6338869404935 C 665.7112316574443,859.4954062011342 676.9958518422842,819.9992355541948 710.8497123968036,791.7876850920952 Z" fill="url(#leaf11)" opacity="0.23" transform="rotate(135.0 710.8 848.2)"/>
    <path d="M 240.55739996900365,874.377366124265 C 271.3168642050654,900.0102529876497 281.57001895041924,935.8962945963883 240.55739996900365,976.9089135778039 C 199.54478098758807,935.8962945963883 209.79793573294197,900.0102529876497 240.55739996900365,874.377366124265 Z" fill="url(#leaf12)" opacity="0.36" transform="rotate(52.0 240.6 925.6)"/>
    <path d="M 1245.9380910324967,280.2561332432757 C 1286.9653541795096,314.4455191991199 1300.6411085618472,362.3106595373016 1245.9380910324967,417.01367706665224 C 1191.2350735031462,362.3106595373016 1204.9108278854837,314.4455191991199 1245.9380910324967,280.2561332432757 Z" fill="url(#leaf13)" opacity="0.30" transform="rotate(316.3 1245.9 348.6)"/>
    <path d="M 1253.3032998727929,483.6990537155697 C 1312.349774468189,532.904449211733 1332.0319326666543,601.7920029063617 1253.3032998727929,680.5206357002231 C 1174.5746670789315,601.7920029063617 1194.2568252773967,532.904449211733 1253.3032998727929,483.6990537155697 Z" fill="url(#leaf14)" opacity="0.35" transform="rotate(261.1 1253.3 582.1)"/>
    <path d="M 1156.7547892080795,697.408500481286 C 1210.8174826622892,742.4607450264608 1228.838380480359,805.5338873897055 1156.7547892080795,877.6174786619852 C 1084.6711979358,805.5338873897055 1102.6920957538698,742.4607450264608 1156.7547892080795,697.408500481286 Z" fill="url(#leaf15)" opacity="0.22" transform="rotate(342.4 1156.8 787.5)"/>
    <path d="M 978.4887547437656,60.54771806254213 C 1010.7511586933063,87.43305468715931 1021.5052933431531,125.07252596162337 978.4887547437656,168.08906456101084 C 935.4722161443782,125.07252596162337 946.226350794225,87.43305468715931 978.4887547437656,60.54771806254213 Z" fill="url(#leaf16)" opacity="0.29" transform="rotate(309.8 978.5 114.3)"/>
    <path d="M 858.3139788115155,242.3183858264224 C 909.935893589787,285.33664814164865 927.1431985158775,345.5622153829654 858.3139788115155,414.3914350873274 C 789.4847591071535,345.5622153829654 806.692064033244,285.33664814164865 858.3139788115155,242.3183858264224 Z" fill="url(#leaf17)" opacity="0.33" transform="rotate(80.0 858.3 328.4)"/>
    <path d="M 868.1994671077355,55.58718991653831 C 913.1626416623326,93.05650204536921 928.1503665138649,145.51353902573248 868.1994671077355,205.46443843186194 C 808.248567701606,145.51353902573248 823.2362925531384,93.05650204536921 868.1994671077355,55.58718991653831 Z" fill="url(#leaf18)" opacity="0.26" transform="rotate(124.8 868.2 130.5)"/>
    <path d="M 1858.0266414401829,426.81807468660276 C 1894.733986505347,457.407528907573 1906.9697681937353,500.2327648169313 1858.0266414401829,549.1758915704836 C 1809.0835146866305,500.2327648169313 1821.3192963750187,457.407528907573 1858.0266414401829,426.81807468660276 Z" fill="url(#leaf19)" opacity="0.39" transform="rotate(42.7 1858.0 488.0)"/>
    <path d="M 192.17107456784348,824.1181790364993 C 229.70339114567724,855.3951095180275 242.21416333828853,899.1828121921669 192.17107456784348,949.225900962612 C 142.12798579739842,899.1828121921669 154.6387579900097,855.3951095180275 192.17107456784348,824.1181790364993 Z" fill="url(#leaf0)" opacity="0.34" transform="rotate(344.7 192.2 886.7)"/>
    <path d="M 1505.5569736044822,-21.53206072379494 C 1552.5338532369365,17.615338969916863 1568.1928131144211,72.42169854111339 1505.5569736044822,135.0575380510523 C 1442.9211340945433,72.42169854111339 1458.580093972028,17.615338969916863 1505.5569736044822,-21.53206072379494 Z" fill="url(#leaf1)" opacity="0.30" transform="rotate(15.6 1505.6 56.8)"/>
    <path d="M 235.90249328935596,550.703853165986 C 264.30752626245777,574.3747139769041 273.7758705868251,607.5139191121896 235.90249328935596,645.3872964096586 C 198.02911599188687,607.5139191121896 207.49746031625415,574.3747139769041 235.90249328935596,550.703853165986 Z" fill="url(#leaf2)" opacity="0.32" transform="rotate(279.9 235.9 598.0)"/>
    <path d="M 1290.3326935725422,101.6399348661539 C 1342.0258070496388,144.71752943040104 1359.2568448753377,205.02616182034703 1290.3326935725422,273.95031312314245 C 1221.4085422697467,205.02616182034703 1238.6395800954456,144.71752943040104 1290.3326935725422,101.6399348661539 Z" fill="url(#leaf3)" opacity="0.34" transform="rotate(68.0 1290.3 187.8)"/>
    <path d="M 1440.7892100933977,811.0239222434562 C 1490.6919350849294,852.609526403066 1507.3261767487734,910.8293722265197 1440.7892100933977,977.3663388818953 C 1374.252243438022,910.8293722265197 1390.8864851018661,852.609526403066 1440.7892100933977,811.0239222434562 Z" fill="url(#leaf4)" opacity="0.26" transform="rotate(270.0 1440.8 894.2)"/>
    <path d="M 1342.355008358895,870.0208970312591 C 1382.0976223231635,903.1397420014827 1395.3451603112528,949.5061249597958 1342.355008358895,1002.4962769121536 C 1289.3648564065372,949.5061249597958 1302.6123943946266,903.1397420014827 1342.355008358895,870.0208970312591 Z" fill="url(#leaf5)" opacity="0.37" transform="rotate(101.1 1342.4 936.3)"/>
    <path d="M 1399.5208279561216,784.7672163420741 C 1427.0078105516568,807.6730351716868 1436.1701380835018,839.7411815331446 1399.5208279561216,876.390491660525 C 1362.8715178287414,839.7411815331446 1372.0338453605864,807.6730351716868 1399.5208279561216,784.7672163420741 Z" fill="url(#leaf6)" opacity="0.21" transform="rotate(352.8 1399.5 830.6)"/>
    <path d="M 870.0569637504195,314.5629464137565 C 902.5153313780893,341.6115861034812 913.3347872539791,379.4796816690959 870.0569637504195,422.7575051726555 C 826.7791402468599,379.4796816690959 837.5985961227498,341.6115861034812 870.0569637504195,314.5629464137565 Z" fill="url(#leaf7)" opacity="0.23" transform="rotate(330.5 870.1 368.7)"/>
    <path d="M 1033.8413849313256,105.65435116772986 C 1061.6753980258572,128.84936207983964 1070.9534023907013,161.32237735679337 1033.8413849313256,198.43439481616903 C 996.7293674719499,161.32237735679337 1006.0073718367938,128.84936207983964 1033.8413849313256,105.65435116772986 Z" fill="url(#leaf8)" opacity="0.30" transform="rotate(64.9 1033.8 152.0)"/>
    <path d="M 53.9581133402738,510.066412631455 C 100.12743786111793,548.5408497321584 115.5172127013993,602.4050616731432 53.9581133402738,663.9641610342687 C -7.6009860208517,602.4050616731432 7.788788819429676,548.5408497321584 53.9581133402738,510.066412631455 Z" fill="url(#leaf9)" opacity="0.30" transform="rotate(270.1 54.0 587.0)"/>
    <path d="M 1249.8222418055323,859.3725893970187 C 1296.4585578942567,898.2361861376226 1312.0039965904982,952.6452215744678 1249.8222418055323,1014.8269763594338 C 1187.6404870205663,952.6452215744678 1203.1859257168078,898.2361861376226 1249.8222418055323,859.3725893970187 Z" fill="url(#leaf10)" opacity="0.20" transform="rotate(317.4 1249.8 937.1)"/>
    <path d="M 524.6813543351652,617.7423014848719 C 579.5333761370541,663.4523196531126 597.8173834043505,727.4463450886497 524.6813543351652,800.5823741578349 C 451.54532526597995,727.4463450886497 469.8293325332763,663.4523196531126 524.6813543351652,617.7423014848719 Z" fill="url(#leaf11)" opacity="0.40" transform="rotate(144.1 524.7 709.2)"/>
    <path d="M 395.30509289164155,435.9761861649464 C 441.63163918114446,474.58164140619886 457.0738212776455,528.6292787439523 395.30509289164155,590.3980071299562 C 333.5363645056376,528.6292787439523 348.97854660213864,474.58164140619886 395.30509289164155,435.9761861649464 Z" fill="url(#leaf12)" opacity="0.31" transform="rotate(208.6 395.3 513.2)"/>
    <path d="M 845.870538208541,634.3607742170578 C 870.2045597221255,654.6391254783782 878.3159002266536,683.0288172442267 845.870538208541,715.4741792623394 C 813.4251761904284,683.0288172442267 821.5365166949565,654.6391254783782 845.870538208541,634.3607742170578 Z" fill="url(#leaf13)" opacity="0.25" transform="rotate(12.9 845.9 674.9)"/>
    <path d="M 1205.5077507197354,192.84672409001615 C 1244.3779968109418,225.23859583268805 1257.3347455080104,270.5872162724287 1205.5077507197354,322.41421106070374 C 1153.6807559314605,270.5872162724287 1166.637504628529,225.23859583268805 1205.5077507197354,192.84672409001615 Z" fill="url(#leaf14)" opacity="0.33" transform="rotate(358.9 1205.5 257.6)"/>
    <path d="M 234.5081976144938,-32.14494050538727 C 291.827236810968,15.620925491674512 310.9335832097927,82.493137887561 234.5081976144938,158.91852348285985 C 158.08281201919496,82.493137887561 177.18915841801967,15.620925491674512 234.5081976144938,-32.14494050538727 Z" fill="url(#leaf15)" opacity="0.40" transform="rotate(219.7 234.5 63.4)"/>
    <path d="M 933.0172775939164,-18.94893802685084 C 992.9756458472298,31.01636885091024 1012.9617685983342,100.96779847977575 933.0172775939164,180.91228948419348 C 853.0727865894987,100.96779847977575 873.0589093406031,31.01636885091024 933.0172775939164,-18.94893802685084 Z" fill="url(#leaf16)" opacity="0.23" transform="rotate(317.2 933.0 81.0)"/>
    <path d="M 146.13724786082435,535.3133718970552 C 191.6285883863182,573.2228223349666 206.79236856148282,626.2960529480428 146.13724786082435,686.9511736487012 C 85.48212716016587,626.2960529480428 100.64590733533049,573.2228223349666 146.13724786082435,535.3133718970552 Z" fill="url(#leaf17)" opacity="0.22" transform="rotate(80.7 146.1 611.1)"/>
    <path d="M 850.8567229816593,632.0832644662286 C 904.3768084955619,676.683335727814 922.2168370001962,739.1234354940337 850.8567229816593,810.4835495125704 C 779.4966089631225,739.1234354940337 797.3366374677568,676.683335727814 850.8567229816593,632.0832644662286 Z" fill="url(#leaf18)" opacity="0.23" transform="rotate(224.9 850.9 721.3)"/>
    <path d="M 1130.6499780343322,184.38019952022876 C 1185.384706052906,229.99247286904023 1203.6296153924307,293.8496555573763 1130.6499780343322,366.82929291547464 C 1057.6703406762338,293.8496555573763 1075.9152500157584,229.99247286904023 1130.6499780343322,184.38019952022876 Z" fill="url(#leaf19)" opacity="0.28" transform="rotate(343.0 1130.6 275.6)"/>
    <path d="M 1770.1933486277908,639.0916133456044 C 1804.2939546921632,667.5087850659147 1815.6608233802874,707.2928254743492 1770.1933486277908,752.7603002268459 C 1724.7258738752942,707.2928254743492 1736.0927425634184,667.5087850659147 1770.1933486277908,639.0916133456044 Z" fill="url(#leaf0)" opacity="0.22" transform="rotate(26.5 1770.2 695.9)"/>
    <path d="M 1293.8056734539587,80.59317480267873 C 1319.067824677202,101.64496748871488 1327.4885417516166,131.1174772491655 1293.8056734539587,164.8003455468233 C 1260.1228051563007,131.1174772491655 1268.5435222307153,101.64496748871488 1293.8056734539587,80.59317480267873 Z" fill="url(#leaf1)" opacity="0.31" transform="rotate(332.8 1293.8 122.7)"/>
    <path d="M 1286.3720229926664,812.7591962316171 C 1330.853264835862,849.8268977676136 1345.6803454502606,901.7216799180086 1286.3720229926664,961.0300023756029 C 1227.0637005350723,901.7216799180086 1241.8907811494707,849.8268977676136 1286.3720229926664,812.7591962316171 Z" fill="url(#leaf2)" opacity="0.32" transform="rotate(109.9 1286.4 886.9)"/>
    <path d="M 920.592269220644,852.5644147377384 C 979.4384998261902,901.6029402423602 999.0539100280389,970.2568759488307 920.592269220644,1048.7185167562257 C 842.130628413249,970.2568759488307 861.7460386150977,901.6029402423602 920.592269220644,852.5644147377384 Z" fill="url(#leaf3)" opacity="0.28" transform="rotate(298.4 920.6 950.6)"/>
    <path d="M 196.12828484390388,515.5353776140516 C 256.03997140536046,565.461783081932 276.0105335925126,635.3587507369647 196.12828484390388,715.2409994855734 C 116.24603609529512,635.3587507369647 136.2165982824473,565.461783081932 196.12828484390388,515.5353776140516 Z" fill="url(#leaf4)" opacity="0.36" transform="rotate(14.7 196.1 615.4)"/>
    <path d="M 1657.4997762155112,522.0851660701194 C 1703.968203866993,560.8088557796875 1719.45767975082,615.0220213730828 1657.4997762155112,676.9799249083917 C 1595.5418726802025,615.0220213730828 1611.0313485640295,560.8088557796875 1657.4997762155112,522.0851660701194 Z" fill="url(#leaf5)" opacity="0.37" transform="rotate(249.0 1657.5 599.5)"/>
    <path d="M 1292.8862586851594,535.6273610379592 C 1346.2690083395414,580.1129857499442 1364.0632582243354,642.3928603467232 1292.8862586851594,713.5698598858992 C 1221.7092591459834,642.3928603467232 1239.5035090307774,580.1129857499442 1292.8862586851594,535.6273610379592 Z" fill="url(#leaf6)" opacity="0.20" transform="rotate(28.5 1292.9 624.6)"/>
    <path d="M 1225.2999343485965,516.3844991929517 C 1251.1305378575344,537.9100021170667 1259.7407390271803,568.0457062108276 1225.2999343485965,602.4865108894115 C 1190.8591296700126,568.0457062108276 1199.4693308396586,537.9100021170667 1225.2999343485965,516.3844991929517 Z" fill="url(#leaf7)" opacity="0.25" transform="rotate(85.9 1225.3 559.4)"/>
    <path d="M 1640.3026503200697,915.3814133494517 C 1688.599261002336,955.6285889180072 1704.6981312297582,1011.9746347139846 1640.3026503200697,1076.3701156236732 C 1575.9071694103811,1011.9746347139846 1592.0060396378033,955.6285889180072 1640.3026503200697,915.3814133494517 Z" fill="url(#leaf8)" opacity="0.31" transform="rotate(283.4 1640.3 995.9)"/>
    <path d="M 1038.7184301541326,341.30365122459546 C 1083.5179964330657,378.6366231237064 1098.45118519271,430.9027837824617 1038.7184301541326,490.6355388210392 C 978.9856751155552,430.9027837824617 993.9188638751996,378.6366231237064 1038.7184301541326,341.30365122459546 Z" fill="url(#leaf9)" opacity="0.21" transform="rotate(67.0 1038.7 416.0)"/>
    <path d="M 299.8126485830845,657.7968397060736 C 329.8771442808055,682.8505861208411 339.8986428467125,717.9258311015155 299.8126485830845,758.0118253651435 C 259.72665431945654,717.9258311015155 269.74815288536354,682.8505861208411 299.8126485830845,657.7968397060736 Z" fill="url(#leaf10)" opacity="0.23" transform="rotate(238.2 299.8 707.9)"/>
    <path d="M 371.273878945893,409.4084572820055 C 412.7531176123659,443.97448950406624 426.5795305011902,492.3669346149513 371.273878945893,547.6725861702486 C 315.96822739059576,492.3669346149513 329.7946402794201,443.97448950406624 371.273878945893,409.4084572820055 Z" fill="url(#leaf11)" opacity="0.37" transform="rotate(294.4 371.3 478.5)"/>
    <path d="M 448.8268029162195,791.1185266702084 C 493.3793470155386,828.2456467529744 508.230195048645,880.2236148688467 448.8268029162195,939.6270070012722 C 389.423410783794,880.2236148688467 404.2742588169004,828.2456467529744 448.8268029162195,791.1185266702084 Z" fill="url(#leaf12)" opacity="0.31" transform="rotate(21.1 448.8 865.4)"/>
    <path d="M 1461.2559391437558,317.22913087420284 C 1492.4302263783902,343.20770356973145 1502.8216554566015,379.57770534347156 1461.2559391437558,421.1434216563174 C 1419.69022283091,379.57770534347156 1430.0816519091213,343.20770356973145 1461.2559391437558,317.22913087420284 Z" fill="url(#leaf13)" opacity="0.24" transform="rotate(232.4 1461.3 369.2)"/>
    <path d="M 407.73625760330145,895.0035285075469 C 433.0271945915305,916.079309331071 441.45750692094015,945.5854024840048 407.73625760330145,979.3066518016435 C 374.01500828566276,945.5854024840048 382.44532061507243,916.079309331071 407.73625760330145,895.0035285075469 Z" fill="url(#leaf14)" opacity="0.22" transform="rotate(286.0 407.7 937.2)"/>
    <path d="M 1022.6139793179726,670.5962167338652 C 1077.2580611998546,716.1329516354335 1095.4727551604822,779.8843804976294 1022.6139793179726,852.7431563401389 C 949.7552034754631,779.8843804976294 967.9698974360905,716.1329516354335 1022.6139793179726,670.5962167338652 Z" fill="url(#leaf15)" opacity="0.30" transform="rotate(190.5 1022.6 761.7)"/>
    <path d="M 1769.754185790927,400.0263152045734 C 1817.731079702177,440.00706013061506 1833.7233776725936,495.98010302707337 1769.754185790927,559.9492949087401 C 1705.7849939092605,495.98010302707337 1721.777291879677,440.00706013061506 1769.754185790927,400.0263152045734 Z" fill="url(#leaf16)" opacity="0.33" transform="rotate(4.3 1769.8 480.0)"/>
    <path d="M 595.2986947110245,778.8796370296 C 620.2852210047404,799.7017422743631 628.6140631026456,828.8526896170316 595.2986947110245,862.1680580086527 C 561.9833263194034,828.8526896170316 570.3121684173086,799.7017422743631 595.2986947110245,778.8796370296 Z" fill="url(#leaf17)" opacity="0.27" transform="rotate(181.1 595.3 820.5)"/>
    <path d="M 1396.5646557208815,920.4089920140577 C 1447.2201390677997,962.621894803156 1464.1053001834389,1021.7199587078937 1396.5646557208815,1089.260603170451 C 1329.0240112583242,1021.7199587078937 1345.9091723739634,962.621894803156 1396.5646557208815,920.4089920140577 Z" fill="url(#leaf18)" opacity="0.26" transform="rotate(356.9 1396.6 1004.8)"/>
    <path d="M 1567.9487854820552,675.8457931038056 C 1616.429695322405,716.2465513040971 1632.5899986025217,772.8076127845053 1567.9487854820552,837.4488259049717 C 1503.3075723615887,772.8076127845053 1519.4678756417054,716.2465513040971 1567.9487854820552,675.8457931038056 Z" fill="url(#leaf19)" opacity="0.22" transform="rotate(69.1 1567.9 756.6)"/>
    <path d="M 468.95526432336675,367.031830725854 C 503.74500173695674,396.0232785705123 515.3415808748201,436.61130555303396 468.95526432336675,482.9976221044873 C 422.56894777191343,436.61130555303396 434.16552690977676,396.0232785705123 468.95526432336675,367.031830725854 Z" fill="url(#leaf0)" opacity="0.34" transform="rotate(344.8 469.0 425.0)"/>
    <path d="M 1065.1870727197659,486.8146550439232 C 1108.5066275212866,522.9142840451906 1122.9464791217936,573.4537646469648 1065.1870727197659,631.2131710489925 C 1007.4276663177382,573.4537646469648 1021.8675179182451,522.9142840451906 1065.1870727197659,486.8146550439232 Z" fill="url(#leaf1)" opacity="0.28" transform="rotate(17.6 1065.2 559.0)"/>
    <path d="M 947.1627515625362,922.964417638799 C 996.9986961727091,964.4943714806096 1013.6106777094334,1022.6363068591447 947.1627515625362,1089.0842330060418 C 880.714825415639,1022.6363068591447 897.3268069523633,964.4943714806096 947.1627515625362,922.964417638799 Z" fill="url(#leaf2)" opacity="0.34" transform="rotate(341.4 947.2 1006.0)"/>
    <path d="M 163.80300612191496,532.9764230831389 C 200.764902147233,563.7780031042372 213.08553415567235,606.900215133775 163.80300612191496,656.1827431675323 C 114.52047808815757,606.900215133775 126.84111009659694,563.7780031042372 163.80300612191496,532.9764230831389 Z" fill="url(#leaf3)" opacity="0.27" transform="rotate(358.0 163.8 594.6)"/>
    <path d="M 965.3282892162982,738.7189339319889 C 1023.4456974565604,787.1501074655407 1042.8181668699813,854.9537504125133 965.3282892162982,932.4436280661962 C 887.8384115626153,854.9537504125133 907.210880976036,787.1501074655407 965.3282892162982,738.7189339319889 Z" fill="url(#leaf4)" opacity="0.27" transform="rotate(27.6 965.3 835.6)"/>
    <path d="M 352.70986855627814,411.889199531401 C 379.0671745247178,433.8536211717674 387.8529431808644,464.6038114682803 352.70986855627814,499.7468860928665 C 317.5667939316919,464.6038114682803 326.35256258783846,433.8536211717674 352.70986855627814,411.889199531401 Z" fill="url(#leaf5)" opacity="0.37" transform="rotate(43.2 352.7 455.8)"/>
    <path d="M 1869.0349471692034,669.0079158201406 C 1925.7161673797464,716.2422659955932 1944.6099074499275,782.3703562412268 1869.0349471692034,857.9453165219509 C 1793.4599868884793,782.3703562412268 1812.3537269586604,716.2422659955932 1869.0349471692034,669.0079158201406 Z" fill="url(#leaf6)" opacity="0.33" transform="rotate(138.3 1869.0 763.5)"/>
    <path d="M 1269.1829945878058,257.54322306896916 C 1318.3345334431654,298.50283878176896 1334.7183797282853,355.8463007796886 1269.1829945878058,421.38168592016825 C 1203.6476094473262,355.8463007796886 1220.0314557324461,298.50283878176896 1269.1829945878058,257.54322306896916 Z" fill="url(#leaf7)" opacity="0.27" transform="rotate(236.2 1269.2 339.5)"/>
    <path d="M 618.5651615826341,451.3844834676044 C 661.6720525527941,487.3068926094043 676.041016209514,537.5982654079243 618.5651615826341,595.0741200348042 C 561.0893069557542,537.5982654079243 575.4582706124742,487.3068926094043 618.5651615826341,451.3844834676044 Z" fill="url(#leaf8)" opacity="0.37" transform="rotate(313.1 618.6 523.2)"/>
    <path d="M 472.6541535520317,8.369146539747405 C 525.5783254817078,52.47262314781081 543.2197161249331,114.21749039909957 472.6541535520317,184.78305297200103 C 402.08859097913023,114.21749039909957 419.7299816223556,52.47262314781081 472.6541535520317,8.369146539747405 Z" fill="url(#leaf9)" opacity="0.36" transform="rotate(140.5 472.7 96.6)"/>
    <path d="M 959.4309478697421,677.7231100334261 C 1013.7908946432011,723.0230656779753 1031.9108769010209,786.4430035803441 959.4309478697421,858.9229326116229 C 886.9510188384635,786.4430035803441 905.0710010962831,723.0230656779753 959.4309478697421,677.7231100334261 Z" fill="url(#leaf10)" opacity="0.39" transform="rotate(89.2 959.4 768.3)"/>
    <path d="M 681.0847230454854,692.1934486058682 C 730.6068144771311,733.4618581322396 747.1141782876797,791.2376314691596 681.0847230454854,857.267086711354 C 615.055267803291,791.2376314691596 631.5626316138396,733.4618581322396 681.0847230454854,692.1934486058682 Z" fill="url(#leaf11)" opacity="0.22" transform="rotate(175.7 681.1 774.7)"/>
    <path d="M 1851.259085825908,686.6795460050679 C 1886.7338288460976,716.2418318552258 1898.5587431861607,757.6290320454469 1851.259085825908,804.9286894056996 C 1803.9594284656553,757.6290320454469 1815.7843428057183,716.2418318552258 1851.259085825908,686.6795460050679 Z" fill="url(#leaf12)" opacity="0.33" transform="rotate(196.8 1851.3 745.8)"/>
    <path d="M 1838.1640684683657,268.10047431530313 C 1879.1503524387144,302.2557109572605 1892.8124470954974,350.0730422560007 1838.1640684683657,404.7214208831324 C 1783.515689841234,350.0730422560007 1797.177784498017,302.2557109572605 1838.1640684683657,268.10047431530313 Z" fill="url(#leaf13)" opacity="0.37" transform="rotate(181.1 1838.2 336.4)"/>
    <path d="M 1069.36307268794,349.2495062213156 C 1117.4993858052492,389.3631004857398 1133.5448235110189,445.52213245593373 1069.36307268794,509.7038832790125 C 1005.1813218648613,445.52213245593373 1021.226759570631,389.3631004857398 1069.36307268794,349.2495062213156 Z" fill="url(#leaf14)" opacity="0.28" transform="rotate(326.0 1069.4 429.5)"/>
    <path d="M 315.726169513358,875.1052218277334 C 367.45884303161074,918.2157830929441 384.703067537695,978.5705688642389 315.726169513358,1047.5474668885759 C 246.74927148902103,978.5705688642389 263.99349599510526,918.2157830929441 315.726169513358,875.1052218277334 Z" fill="url(#leaf15)" opacity="0.33" transform="rotate(42.2 315.7 961.3)"/>
    <path d="M 537.0790977008586,336.97781464162773 C 566.1321929667298,361.18872736318707 575.8165580553535,395.08400517337014 537.0790977008586,433.8214655278651 C 498.34163734636365,395.08400517337014 508.0260024349874,361.18872736318707 537.0790977008586,336.97781464162773 Z" fill="url(#leaf16)" opacity="0.31" transform="rotate(139.5 537.1 385.4)"/>
    <path d="M 1190.4682722022528,498.92355776910614 C 1241.1403053248082,541.1502520379023 1258.0309830323267,600.2676240142168 1190.4682722022528,667.8303348442906 C 1122.905561372179,600.2676240142168 1139.7962390796974,541.1502520379023 1190.4682722022528,498.92355776910614 Z" fill="url(#leaf17)" opacity="0.21" transform="rotate(321.7 1190.5 583.4)"/>
    <path d="M 76.2264801807915,327.74311077439893 C 135.6412617737488,377.25542876853 155.44618897140126,446.5726739603135 76.2264801807915,525.7923827509233 C -2.99322860981826,446.5726739603135 16.811698587834186,377.25542876853 76.2264801807915,327.74311077439893 Z" fill="url(#leaf18)" opacity="0.28" transform="rotate(252.1 76.2 426.8)"/>
    <path d="M 1629.924351673825,785.7511442160971 C 1675.5939886177991,823.8091750027424 1690.8172009324574,877.0904181040457 1629.924351673825,937.9832673626781 C 1569.0315024151926,877.0904181040457 1584.2547147298508,823.8091750027424 1629.924351673825,785.7511442160971 Z" fill="url(#leaf19)" opacity="0.26" transform="rotate(78.0 1629.9 861.9)"/>
    <path d="M 1337.7435767636102,874.0909896139996 C 1378.5699829772293,908.1129947920156 1392.1787850484357,955.7438020412378 1337.7435767636102,1010.1790103260633 C 1283.3083684787848,955.7438020412378 1296.9171705499912,908.1129947920156 1337.7435767636102,874.0909896139996 Z" fill="url(#leaf0)" opacity="0.32" transform="rotate(282.9 1337.7 942.1)"/>
    <path d="M 1422.5283358596478,961.9919270063857 C 1461.8231319291544,994.7375903976414 1474.9213972856567,1040.5815191453992 1422.5283358596478,1092.974580571408 C 1370.1352744336389,1040.5815191453992 1383.233539790141,994.7375903976414 1422.5283358596478,961.9919270063857 Z" fill="url(#leaf1)" opacity="0.38" transform="rotate(343.1 1422.5 1027.5)"/>
    <path d="M 1699.2316200861146,138.91885724142958 C 1738.967048842101,172.03171453808488 1752.212191760763,218.38971475340227 1699.2316200861146,271.37028642805075 C 1646.2510484114662,218.38971475340227 1659.4961913301283,172.03171453808488 1699.2316200861146,138.91885724142958 Z" fill="url(#leaf2)" opacity="0.32" transform="rotate(104.5 1699.2 205.1)"/>
    <path d="M 312.2954576246022,783.2077424935983 C 370.58970077280287,831.7862784504322 390.0211151555364,899.7962287899996 312.2954576246022,977.5218863209338 C 234.569800093668,899.7962287899996 254.00121447640154,831.7862784504322 312.2954576246022,783.2077424935983 Z" fill="url(#leaf3)" opacity="0.34" transform="rotate(117.7 312.3 880.4)"/>
    <path d="M 604.0556619375735,736.2876107741487 C 636.3286298811803,763.1817507271544 647.0862858623826,800.8335466613622 604.0556619375735,843.8641705861713 C 561.0250380127644,800.8335466613622 571.7826939939667,763.1817507271544 604.0556619375735,736.2876107741487 Z" fill="url(#leaf4)" opacity="0.23" transform="rotate(35.9 604.1 790.1)"/>
    <path d="M 1601.0793255529038,216.06948529570764 C 1652.9720287294015,259.3134046094557 1670.2695964549007,319.85489164870296 1601.0793255529038,389.04516255069984 C 1531.889054650907,319.85489164870296 1549.1866223764061,259.3134046094557 1601.0793255529038,216.06948529570764 Z" fill="url(#leaf5)" opacity="0.28" transform="rotate(27.1 1601.1 302.6)"/>
    <path d="M 164.0007065109508,53.5295670390726 C 191.1426097536168,76.14781974129426 200.18991083450544,107.81337352440455 164.0007065109508,144.00257784795917 C 127.81150218739617,107.81337352440455 136.85880326828482,76.14781974129426 164.0007065109508,53.5295670390726 Z" fill="url(#leaf6)" opacity="0.34" transform="rotate(320.3 164.0 98.8)"/>
    <path d="M 1286.6665959328864,464.63147908754286 C 1311.5229351667626,485.34509511577306 1319.8083815780547,514.3441575552953 1286.6665959328864,547.4859432004636 C 1253.524810287718,514.3441575552953 1261.81025669901,485.34509511577306 1286.6665959328864,464.63147908754286 Z" fill="url(#leaf7)" opacity="0.21" transform="rotate(45.6 1286.7 506.1)"/>
    <path d="M 439.57272794262656,298.0136131716354 C 493.1392017884575,342.6523413764946 510.9946930704011,405.14656086329734 439.57272794262656,476.5685259910719 C 368.150762814852,405.14656086329734 386.0062540967956,342.6523413764946 439.57272794262656,298.0136131716354 Z" fill="url(#leaf8)" opacity="0.27" transform="rotate(238.8 439.6 387.3)"/>
    <path d="M 1611.2402279534692,37.244230706229274 C 1665.707805739195,82.63387886100072 1683.8636650011035,146.17938627768075 1611.2402279534692,218.80282332531507 C 1538.616790905835,146.17938627768075 1556.7726501677434,82.63387886100072 1611.2402279534692,37.244230706229274 Z" fill="url(#leaf9)" opacity="0.23" transform="rotate(221.6 1611.2 128.0)"/>
    <path d="M 50.45454591603875,326.4537573595915 C 86.35706594630625,356.37252405148115 98.3245726230621,398.25879742012654 50.45454591603875,446.1288241271499 C 2.58451920901539,398.25879742012654 14.552025885771236,356.37252405148115 50.45454591603875,326.4537573595915 Z" fill="url(#leaf10)" opacity="0.37" transform="rotate(47.4 50.5 386.3)"/>
    <path d="M 1365.0370189754897,219.3728198842811 C 1399.1817848293217,247.82679142914108 1410.5633734472656,287.662351591945 1365.0370189754897,333.188706063721 C 1319.5106645037138,287.662351591945 1330.8922531216576,247.82679142914108 1365.0370189754897,219.3728198842811 Z" fill="url(#leaf11)" opacity="0.34" transform="rotate(192.8 1365.0 276.3)"/>
    <path d="M 1593.5470230774163,782.855412548197 C 1637.6382776706587,819.5981247092324 1652.3353625350728,871.0379217346818 1593.5470230774163,929.8262611923384 C 1534.7586836197597,871.0379217346818 1549.4557684841739,819.5981247092324 1593.5470230774163,782.855412548197 Z" fill="url(#leaf12)" opacity="0.30" transform="rotate(348.1 1593.5 856.3)"/>
    <path d="M 1610.8342667136737,842.9208262887162 C 1655.1037368537081,879.8120514054116 1669.8602269003864,931.459766568785 1610.8342667136737,990.4857267554976 C 1551.8083065269611,931.459766568785 1566.5647965736393,879.8120514054116 1610.8342667136737,842.9208262887162 Z" fill="url(#leaf13)" opacity="0.30" transform="rotate(25.1 1610.8 916.7)"/>
    <path d="M 1691.1201343549508,890.6349596701551 C 1732.9203325651524,925.4684581786566 1746.8537319685531,974.2353560905586 1691.1201343549508,1029.9689537041609 C 1635.3865367413484,974.2353560905586 1649.3199361447491,925.4684581786566 1691.1201343549508,890.6349596701551 Z" fill="url(#leaf14)" opacity="0.25" transform="rotate(90.2 1691.1 960.3)"/>
    <path d="M 435.20201985519367,393.8223131662573 C 486.41701989111766,436.5014798628606 503.488686569759,496.2523132381053 435.20201985519367,564.5389799526706 C 366.9153531406283,496.2523132381053 383.9870198192697,436.5014798628606 435.20201985519367,393.8223131662573 Z" fill="url(#leaf15)" opacity="0.39" transform="rotate(245.7 435.2 479.2)"/>
    <path d="M 609.7805717871702,523.4017541318519 C 655.146573882172,561.2067558776868 670.2685745805059,614.1337583218556 609.7805717871702,674.6217611151912 C 549.2925689938345,614.1337583218556 564.4145696921684,561.2067558776868 609.7805717871702,523.4017541318519 Z" fill="url(#leaf16)" opacity="0.30" transform="rotate(184.4 609.8 599.0)"/>
    <path d="M 454.9273476780085,469.3771888156234 C 505.4545327797192,511.4831764003823 522.2969278136228,570.4315590190448 454.9273476780085,637.801139154659 C 387.55776754239423,570.4315590190448 404.4001625762978,511.4831764003823 454.9273476780085,469.3771888156234 Z" fill="url(#leaf17)" opacity="0.35" transform="rotate(319.9 454.9 553.6)"/>
    <path d="M 656.7993485040492,479.9147391310406 C 716.1527302742394,529.3758906061992 735.9371908643028,598.621502671421 656.7993485040492,677.7593450316746 C 577.6615061437957,598.621502671421 597.4459667338591,529.3758906061992 656.7993485040492,479.9147391310406 Z" fill="url(#leaf18)" opacity="0.34" transform="rotate(222.0 656.8 578.8)"/>
    <path d="M 77.73427956457088,651.2126078161263 C 132.92582093802838,697.2055589606742 151.32300139584754,761.5956905630413 77.73427956457088,835.184412394318 C 4.145557733294211,761.5956905630413 22.542738191113386,697.2055589606742 77.73427956457088,651.2126078161263 Z" fill="url(#leaf19)" opacity="0.40" transform="rotate(63.2 77.7 743.2)"/>
    <path d="M 277.4369164872495,616.966738466579 C 304.4324286754946,639.46299862345 313.430932738243,670.9577628430692 277.4369164872495,706.9517790940627 C 241.44290023625607,670.9577628430692 250.44140429900443,639.46299862345 277.4369164872495,616.966738466579 Z" fill="url(#leaf0)" opacity="0.22" transform="rotate(92.0 277.4 662.0)"/>
    <path d="M 1820.6605006375669,670.5852544800221 C 1845.8058764265384,691.539734304165 1854.1876683561957,720.8760060579651 1820.6605006375669,754.4031737765938 C 1787.133332918938,720.8760060579651 1795.5151248485954,691.539734304165 1820.6605006375669,670.5852544800221 Z" fill="url(#leaf1)" opacity="0.26" transform="rotate(334.5 1820.7 712.5)"/>
    <path d="M 1601.575685595488,572.4499587640362 C 1651.2065761552576,613.8090342305109 1667.7502063418476,671.7117398835754 1601.575685595488,737.8862606299349 C 1535.4011648491285,671.7117398835754 1551.9447950357185,613.8090342305109 1601.575685595488,572.4499587640362 Z" fill="url(#leaf2)" opacity="0.33" transform="rotate(123.4 1601.6 655.2)"/>
    <path d="M 281.17378311839127,371.9881546557271 C 315.84817769551097,400.8834834699935 327.40630922121755,441.3369438099665 281.17378311839127,487.5694699127927 C 234.94125701556501,441.3369438099665 246.49938854127157,400.8834834699935 281.17378311839127,371.9881546557271 Z" fill="url(#leaf3)" opacity="0.35" transform="rotate(95.5 281.2 429.8)"/>
    <path d="M 1636.5225266774803,65.83592957105374 C 1672.5857103860913,95.8885826615628 1684.6067716222947,137.96229698827545 1636.5225266774803,186.04654193308994 C 1588.438281732666,137.96229698827545 1600.4593429688694,95.8885826615628 1636.5225266774803,65.83592957105374 Z" fill="url(#leaf4)" opacity="0.25" transform="rotate(39.2 1636.5 125.9)"/>
    <path d="M 877.2332292695811,43.0215436092353 C 903.5735600921358,64.97181929469757 912.3536703663208,95.70220525434475 877.2332292695811,130.8226463510844 C 842.1127881728414,95.70220525434475 850.8928984470264,64.97181929469757 877.2332292695811,43.0215436092353 Z" fill="url(#leaf5)" opacity="0.39" transform="rotate(178.2 877.2 86.9)"/>
    <path d="M 167.1214485472931,943.1411369967705 C 200.2077126698223,970.7130237655448 211.23646737733208,1009.3136652418289 167.1214485472931,1053.4286840718678 C 123.00642971725416,1009.3136652418289 134.0351844247639,970.7130237655448 167.1214485472931,943.1411369967705 Z" fill="url(#leaf6)" opacity="0.33" transform="rotate(131.0 167.1 998.3)"/>
    <path d="M 1145.1100921047469,720.9412870768563 C 1190.362921069625,758.6519778809213 1205.447197391251,811.4469450066124 1145.1100921047469,871.7840502931165 C 1084.7729868182428,811.4469450066124 1099.8572631398688,758.6519778809213 1145.1100921047469,720.9412870768563 Z" fill="url(#leaf7)" opacity="0.24" transform="rotate(33.6 1145.1 796.4)"/>
    <path d="M 624.2814480532535,461.5156005637974 C 674.6196899101053,503.4641354445073 691.3991038623893,562.1920842775011 624.2814480532535,629.3097400866369 C 557.1637922441176,562.1920842775011 573.9432061964017,503.4641354445073 624.2814480532535,461.5156005637974 Z" fill="url(#leaf8)" opacity="0.22" transform="rotate(351.7 624.3 545.4)"/>
    <path d="M 190.89067228088567,457.75382313832847 C 221.8651093759993,483.5658540509232 232.18992174103718,519.7026973285558 190.89067228088567,561.0019467887073 C 149.59142282073415,519.7026973285558 159.91623518577202,483.5658540509232 190.89067228088567,457.75382313832847 Z" fill="url(#leaf9)" opacity="0.34" transform="rotate(277.1 190.9 509.4)"/>
    <path d="M 212.8112049469393,769.9621982536324 C 253.6469590573355,803.9919933456293 267.2588770941342,851.6337064744249 212.8112049469393,906.0813786216198 C 158.3635327997444,851.6337064744249 171.97545083654313,803.9919933456293 212.8112049469393,769.9621982536324 Z" fill="url(#leaf10)" opacity="0.36" transform="rotate(67.5 212.8 838.0)"/>
    <path d="M 447.0847215269867,42.498734607091166 C 504.8977064279272,90.67622202454156 524.1687013949073,158.12470440897212 447.0847215269867,235.20868427689274 C 370.0007416590661,158.12470440897212 389.2717366260462,90.67622202454156 447.0847215269867,42.498734607091166 Z" fill="url(#leaf11)" opacity="0.29" transform="rotate(102.7 447.1 138.9)"/>
    <path d="M 690.8469665007472,565.7130348546269 C 748.443172773743,613.7098734154567 767.6419081980748,680.9054474006185 690.8469665007472,757.7003890979462 C 614.0520248034195,680.9054474006185 633.2507602277514,613.7098734154567 690.8469665007472,565.7130348546269 Z" fill="url(#leaf12)" opacity="0.33" transform="rotate(192.2 690.8 661.7)"/>
    <path d="M 425.6258175059201,933.7497275078535 C 470.3712432029465,971.0375822553756 485.2863851019554,1023.2405789019065 425.6258175059201,1082.9011464979417 C 365.96524990988485,1023.2405789019065 380.8803918088937,971.0375822553756 425.6258175059201,933.7497275078535 Z" fill="url(#leaf13)" opacity="0.25" transform="rotate(282.7 425.6 1008.3)"/>
    <path d="M 832.660448927069,344.01805289692913 C 859.2174705273956,366.1489042305346 868.0698110608377,397.13209609758223 832.660448927069,432.54145823135093 C 797.2510867933003,397.13209609758223 806.1034273267423,366.1489042305346 832.660448927069,344.01805289692913 Z" fill="url(#leaf14)" opacity="0.38" transform="rotate(218.4 832.7 388.3)"/>
    <path d="M 974.8258821046182,925.8929404066649 C 1014.4758893192826,958.9346130855519 1027.6925583908373,1005.1929548359935 974.8258821046182,1058.0596311222127 C 921.9592058183991,1005.1929548359935 935.1758748899539,958.9346130855519 974.8258821046182,925.8929404066649 Z" fill="url(#leaf15)" opacity="0.22" transform="rotate(90.8 974.8 992.0)"/>
    <path d="M 1227.4864860200225,775.2038848013863 C 1282.9990335943344,821.4643411133128 1301.5032161191048,886.2289799500098 1227.4864860200225,960.2457100490922 C 1153.4697559209403,886.2289799500098 1171.9739384457107,821.4643411133128 1227.4864860200225,775.2038848013863 Z" fill="url(#leaf16)" opacity="0.30" transform="rotate(256.5 1227.5 867.7)"/>
    <path d="M 592.3483098355055,795.7753784167452 C 626.7576208791155,824.4498042864202 638.2273912269854,864.5940005039653 592.3483098355055,910.4730818954453 C 546.4692284440255,864.5940005039653 557.9389987918954,824.4498042864202 592.3483098355055,795.7753784167452 Z" fill="url(#leaf17)" opacity="0.33" transform="rotate(24.1 592.3 853.1)"/>
    <path d="M 134.63311327907797,336.4641019695341 C 177.0717121545751,371.82960103244835 191.21791177974083,421.34129972052835 134.63311327907797,477.9260982211912 C 78.04831477841512,421.34129972052835 92.19451440358084,371.82960103244835 134.63311327907797,336.4641019695341 Z" fill="url(#leaf18)" opacity="0.31" transform="rotate(108.2 134.6 407.2)"/>
    <path d="M 1130.7182533450305,432.3153795651798 C 1179.3626594111709,472.85238462029685 1195.5774614332176,529.6041916974607 1130.7182533450305,594.463399785648 C 1065.8590452568433,529.6041916974607 1082.07384727889,472.85238462029685 1130.7182533450305,432.3153795651798 Z" fill="url(#leaf19)" opacity="0.30" transform="rotate(194.6 1130.7 513.4)"/>
    <path d="M 367.08011064994133,336.1274834753015 C 396.80557048174506,360.8987000018046 406.7140570923463,395.578403138909 367.08011064994133,435.21234958131396 C 327.44616420753636,395.578403138909 337.3546508181376,360.8987000018046 367.08011064994133,336.1274834753015 Z" fill="url(#leaf0)" opacity="0.32" transform="rotate(95.5 367.1 385.7)"/>
    <path d="M 1348.386743383839,711.3062262226412 C 1400.2176887467342,754.4986806917204 1417.494670534366,814.9681169484314 1348.386743383839,884.0760440989583 C 1279.2788162333122,814.9681169484314 1296.555798020944,754.4986806917204 1348.386743383839,711.3062262226412 Z" fill="url(#leaf1)" opacity="0.37" transform="rotate(270.1 1348.4 797.7)"/>
    <path d="M 787.0573125786282,241.3967024755213 C 834.6755147325989,281.0785376038303 850.5482487839225,336.6331067834629 787.0573125786282,400.12404298875725 C 723.5663763733338,336.6331067834629 739.4391104246574,281.0785376038303 787.0573125786282,241.3967024755213 Z" fill="url(#leaf2)" opacity="0.30" transform="rotate(355.7 787.1 320.8)"/>
    <path d="M 1246.6598595100863,592.930038247152 C 1275.4132642355034,616.8912088516662 1284.997732477309,650.4368476979861 1246.6598595100863,688.7747206652089 C 1208.3219865428637,650.4368476979861 1217.9064547846692,616.8912088516662 1246.6598595100863,592.930038247152 Z" fill="url(#leaf3)" opacity="0.31" transform="rotate(337.6 1246.7 640.9)"/>
    <path d="M 203.48844214308386,119.1276179847407 C 232.8361269108649,143.58402195789154 242.61868850012522,177.82298752030272 203.48844214308386,216.95323387734408 C 164.3581957860425,177.82298752030272 174.14075737530283,143.58402195789154 203.48844214308386,119.1276179847407 Z" fill="url(#leaf4)" opacity="0.40" transform="rotate(237.0 203.5 168.0)"/>
    <path d="M 1326.1204539081477,379.3896210464028 C 1362.339426329581,409.57209806426386 1374.4124171367255,451.82756588926935 1326.1204539081477,500.11952911784704 C 1277.82849067957,451.82756588926935 1289.9014814867144,409.57209806426386 1326.1204539081477,379.3896210464028 Z" fill="url(#leaf5)" opacity="0.23" transform="rotate(154.4 1326.1 439.8)"/>
    <path d="M 1853.9191940719086,81.24499907255195 C 1880.0254524949364,103.00021442507509 1888.7275386359456,133.4575159186075 1853.9191940719086,168.26586048264454 C 1819.1108495078715,133.4575159186075 1827.8129356488807,103.00021442507509 1853.9191940719086,81.24499907255195 Z" fill="url(#leaf6)" opacity="0.24" transform="rotate(165.9 1853.9 124.8)"/>
    <path d="M 50.610127328692634,159.89522100675774 C 82.4256519599673,186.40815819948662 93.03082683705887,223.52627026930708 50.610127328692634,265.9469697776733 C 8.189427820326408,223.52627026930708 18.79460269741797,186.40815819948662 50.610127328692634,159.89522100675774 Z" fill="url(#leaf7)" opacity="0.33" transform="rotate(201.5 50.6 212.9)"/>
    <path d="M 453.56560977442825,500.5199928849394 C 491.09885177800146,531.7976945545838 503.6099324458592,575.5864768920859 453.56560977442825,625.6307995635168 C 403.5212871029973,575.5864768920859 416.03236777085505,531.7976945545838 453.56560977442825,500.5199928849394 Z" fill="url(#leaf8)" opacity="0.33" transform="rotate(68.6 453.6 563.1)"/>
    <path d="M 205.1016963821842,620.3814014826759 C 236.1614411748929,646.2645221432664 246.51468943912914,682.5008910680932 205.1016963821842,723.9138841250382 C 163.68870332523926,682.5008910680932 174.0419515894755,646.2645221432664 205.1016963821842,620.3814014826759 Z" fill="url(#leaf9)" opacity="0.21" transform="rotate(289.3 205.1 672.1)"/>
    <path d="M 339.36481800496983,308.37722798132427 C 389.02428948980827,349.76012088535634 405.5774466514211,407.6961709510012 339.36481800496983,473.90879959745246 C 273.15218935851857,407.6961709510012 289.7053465201314,349.76012088535634 339.36481800496983,308.37722798132427 Z" fill="url(#leaf10)" opacity="0.29" transform="rotate(336.8 339.4 391.1)"/>
    <path d="M 1164.9654047315928,730.3426093830869 C 1197.0105317246596,757.0468818773094 1207.6922407223487,794.4328633692207 1164.9654047315928,837.1596993599767 C 1122.2385687408369,794.4328633692207 1132.920277738526,757.0468818773094 1164.9654047315928,730.3426093830869 Z" fill="url(#leaf11)" opacity="0.32" transform="rotate(286.9 1165.0 783.8)"/>
    <path d="M 1508.0717665783802,153.18668693491378 C 1545.1394797443852,184.07644790658466 1557.4953841330537,227.32211326692394 1508.0717665783802,276.74573082159736 C 1458.6481490237068,227.32211326692394 1471.0040534123752,184.07644790658466 1508.0717665783802,153.18668693491378 Z" fill="url(#leaf12)" opacity="0.23" transform="rotate(98.3 1508.1 215.0)"/>
    <path d="M 1155.5272131971535,230.9717231711837 C 1180.9359246431331,252.14564937616666 1189.4054951251262,281.78914606314277 1155.5272131971535,315.66742799111546 C 1121.6489312691808,281.78914606314277 1130.1185017511739,252.14564937616666 1155.5272131971535,230.9717231711837 Z" fill="url(#leaf13)" opacity="0.26" transform="rotate(316.4 1155.5 273.3)"/>
    <path d="M 1599.3316565156244,677.3327259415787 C 1632.4992178110917,704.9723603544682 1643.5550715762474,743.6678485325134 1599.3316565156244,787.8912635931365 C 1555.1082414550015,743.6678485325134 1566.1640952201572,704.9723603544682 1599.3316565156244,677.3327259415787 Z" fill="url(#leaf14)" opacity="0.39" transform="rotate(45.3 1599.3 732.6)"/>
    <path d="M 1336.7933689123333,342.91329226710207 C 1381.5634130340836,380.2216623685606 1396.4867610746671,432.45338051060264 1336.7933689123333,492.1467726729363 C 1277.0999767499995,432.45338051060264 1292.023324790583,380.2216623685606 1336.7933689123333,342.91329226710207 Z" fill="url(#leaf15)" opacity="0.28" transform="rotate(16.0 1336.8 417.5)"/>
    <path d="M 415.06510414751875,921.611540321291 C 455.94665060726516,955.6794957044131 469.57383276051394,1003.3746332407839 415.06510414751875,1057.883361853779 C 360.55637553452357,1003.3746332407839 374.18355768777235,955.6794957044131 415.06510414751875,921.611540321291 Z" fill="url(#leaf16)" opacity="0.29" transform="rotate(91.1 415.1 989.7)"/>
    <path d="M 1564.4214756814083,717.5090550876434 C 1611.0476657292816,756.3642134608712 1626.5897290785724,810.7614351833898 1564.4214756814083,872.9296885805541 C 1502.2532222842442,810.7614351833898 1517.795285633535,756.3642134608712 1564.4214756814083,717.5090550876434 Z" fill="url(#leaf17)" opacity="0.33" transform="rotate(153.3 1564.4 795.2)"/>
    <path d="M 1056.1744825641556,943.7354202863683 C 1101.7059930629166,981.6783457020024 1116.8831632291703,1034.7984412838903 1056.1744825641556,1095.5071219489048 C 995.465801899141,1034.7984412838903 1010.6429720653946,981.6783457020024 1056.1744825641556,943.7354202863683 Z" fill="url(#leaf18)" opacity="0.35" transform="rotate(150.7 1056.2 1019.6)"/>
    <path d="M 728.7493124401968,289.6310054959912 C 773.3135372820088,326.7678595308345 788.1682788959462,378.7594551796152 728.7493124401968,438.17842163536454 C 669.3303459844475,378.7594551796152 684.1850875983848,326.7678595308345 728.7493124401968,289.6310054959912 Z" fill="url(#leaf19)" opacity="0.29" transform="rotate(23.9 728.7 363.9)"/>
    <path d="M 1261.9078098054479,453.08654016782253 C 1319.716772332696,501.26067560719616 1338.9864265084457,568.7044652223192 1261.9078098054479,645.783081925317 C 1184.82919310245,568.7044652223192 1204.0988472781996,501.26067560719616 1261.9078098054479,453.08654016782253 Z" fill="url(#leaf0)" opacity="0.23" transform="rotate(170.6 1261.9 549.4)"/>
    <path d="M 1401.9838859814167,250.7419720977902 C 1455.0788729004614,294.9877945303274 1472.7772018734763,356.9319459358795 1401.9838859814167,427.72526182793905 C 1331.1905700893572,356.9319459358795 1348.888899062372,294.9877945303274 1401.9838859814167,250.7419720977902 Z" fill="url(#leaf1)" opacity="0.24" transform="rotate(31.9 1402.0 339.2)"/>
    <path d="M 722.2200409358446,389.026847747591 C 780.541612380544,437.6281572848405 799.9821361954439,505.6699906369898 722.2200409358446,583.432085896589 C 644.4579456762453,505.6699906369898 663.8984694911452,437.6281572848405 722.2200409358446,389.026847747591 Z" fill="url(#leaf2)" opacity="0.39" transform="rotate(163.1 722.2 486.2)"/>
    <path d="M 929.239122888883,253.6697735474708 C 978.2297311112853,294.49528039947273 994.559933852086,351.6509899922754 929.239122888883,416.9718009554785 C 863.91831192568,351.6509899922754 880.2485146664807,294.49528039947273 929.239122888883,253.6697735474708 Z" fill="url(#leaf3)" opacity="0.21" transform="rotate(91.3 929.2 335.3)"/>
    <path d="M 790.8426361663805,580.1536648831897 C 838.1110108688058,619.5439771352108 853.8671357696142,674.6904142880402 790.8426361663805,737.7149138912738 C 727.8181365631469,674.6904142880402 743.5742614639553,619.5439771352108 790.8426361663805,580.1536648831897 Z" fill="url(#leaf4)" opacity="0.23" transform="rotate(105.2 790.8 658.9)"/>
    <path d="M 1518.4805714136016,143.05171065671126 C 1548.7914900742142,168.31080954055506 1558.8951296277517,203.67354797793635 1518.4805714136016,244.08810619208643 C 1478.0660131994516,203.67354797793635 1488.1696527529891,168.31080954055506 1518.4805714136016,143.05171065671126 Z" fill="url(#leaf5)" opacity="0.32" transform="rotate(101.6 1518.5 193.6)"/>
    <path d="M 868.5902148595609,842.6244523990774 C 895.3724291759642,864.9429643294135 904.2998339480986,896.188881031884 868.5902148595609,931.8985001204217 C 832.8805957710232,896.188881031884 841.8080005431576,864.9429643294135 868.5902148595609,842.6244523990774 Z" fill="url(#leaf6)" opacity="0.29" transform="rotate(272.6 868.6 887.3)"/>
    <path d="M 519.4517587195783,902.7872774178514 C 545.6271879933225,924.6001351459718 554.3523310845707,955.1381359653401 519.4517587195783,990.0387083303325 C 484.55118635458587,955.1381359653401 493.276329445834,924.6001351459718 519.4517587195783,902.7872774178514 Z" fill="url(#leaf7)" opacity="0.29" transform="rotate(74.7 519.5 946.4)"/>
    <path d="M 1187.1898305941602,564.0650799599072 C 1217.7305815489826,589.5157057555925 1227.9108318672568,625.146581869552 1187.1898305941602,665.8675831426486 C 1146.4688293210636,625.146581869552 1156.6490796393377,589.5157057555925 1187.1898305941602,564.0650799599072 Z" fill="url(#leaf8)" opacity="0.33" transform="rotate(254.5 1187.2 615.0)"/>
    <path d="M 676.0457365557355,808.2767888910964 C 732.6894908272267,855.4799174506724 751.570742251057,921.5642974340786 676.0457365557355,997.0893031294002 C 600.520730860414,921.5642974340786 619.4019822842444,855.4799174506724 676.0457365557355,808.2767888910964 Z" fill="url(#leaf9)" opacity="0.30" transform="rotate(282.0 676.0 902.7)"/>
    <path d="M 1068.788027090463,543.4731175141649 C 1118.9815026757724,585.3010138352562 1135.7126612042089,643.8600686847839 1068.788027090463,710.7847027985299 C 1001.863392976717,643.8600686847839 1018.5945515051535,585.3010138352562 1068.788027090463,543.4731175141649 Z" fill="url(#leaf10)" opacity="0.26" transform="rotate(296.1 1068.8 627.1)"/>
    <path d="M 1501.4260475893182,729.6598590864321 C 1536.5257356239479,758.9095991152902 1548.2256316354913,799.8592351556916 1501.4260475893182,846.6588192018646 C 1454.626463543145,799.8592351556916 1466.3263595546885,758.9095991152902 1501.4260475893182,729.6598590864321 Z" fill="url(#leaf11)" opacity="0.36" transform="rotate(263.3 1501.4 788.2)"/>
    <path d="M 1139.4375184465177,801.5931392512784 C 1180.4688164779739,835.7858876108253 1194.1459158217926,883.6557353141909 1139.4375184465177,938.3641326894658 C 1084.7291210712428,883.6557353141909 1098.4062204150616,835.7858876108253 1139.4375184465177,801.5931392512784 Z" fill="url(#leaf12)" opacity="0.21" transform="rotate(113.7 1139.4 870.0)"/>
  </g>

  <!-- Central star shape -->
  <polygon points="960.0,223.6 1053.0,412.0 1261.0,442.2 1110.5,588.9 1146.0,796.0 960.0,698.2 774.0,796.0 809.5,588.9 659.0,442.2 867.0,412.0" 
           fill="#00FA9A" 
           transform="rotate(145.4 960.0 540.0)"/>
</svg>