<?xml version="1.0" encoding="UTF-8"?>
<svg xmlns="http://www.w3.org/2000/svg" viewBox="0 0 1920 1080" width="1920" height="1080">
  <defs>
    <linearGradient id="bgGrad" x1="0%" y1="0%" x2="100%" y2="100%">
      <stop offset="0%" stop-color="#00FA9A"/>
      <stop offset="100%" stop-color="#DC143C"/>
    </linearGradient>
    <clipPath id="complexClip"><polygon points="1382.2,540.0 1329.7,584.2 1480.9,670.5 1270.5,666.9 1257.5,725.8 1211.8,785.3 1098.2,779.3 1019.0,855.9 920.4,752.2 790.8,832.9 682.7,810.1 626.0,748.7 604.9,685.1 503.3,654.4 465.1,599.2 543.5,540.0 446.8,478.6 623.2,455.6 599.2,392.6 698.4,376.6 735.7,321.4 842.5,336.6 910.2,273.4 996.1,346.7 1068.1,352.9 1158.6,346.5 1319.1,315.7 1297.7,402.0 1465.1,413.5 1331.9,495.5"/></clipPath>
    <radialGradient id="leaf0" cx="50%" cy="50%" r="70%">
      <stop offset="0%" stop-color="#45B7D1"/>
      <stop offset="50%" stop-color="#FFE66D"/>
      <stop offset="100%" stop-color="#FF4500"/>
    </radialGradient>
    <radialGradient id="leaf1" cx="50%" cy="50%" r="70%">
      <stop offset="0%" stop-color="#9370DB"/>
      <stop offset="50%" stop-color="#FFD700"/>
      <stop offset="100%" stop-color="#FFE66D"/>
    </radialGradient>
    <radialGradient id="leaf2" cx="50%" cy="50%" r="70%">
      <stop offset="0%" stop-color="#FF69B4"/>
      <stop offset="50%" stop-color="#FF1493"/>
      <stop offset="100%" stop-color="#FF6B6B"/>
    </radialGradient>
    <radialGradient id="leaf3" cx="50%" cy="50%" r="70%">
      <stop offset="0%" stop-color="#00CED1"/>
      <stop offset="50%" stop-color="#45B7D1"/>
      <stop offset="100%" stop-color="#FFD700"/>
    </radialGradient>
    <radialGradient id="leaf4" cx="50%" cy="50%" r="70%">
      <stop offset="0%" stop-color="#00FA9A"/>
      <stop offset="50%" stop-color="#45B7D1"/>
      <stop offset="100%" stop-color="#32CD32"/>
    </radialGradient>
    <radialGradient id="leaf5" cx="50%" cy="50%" r="70%">
      <stop offset="0%" stop-color="#DC143C"/>
      <stop offset="50%" stop-color="#FF1493"/>
      <stop offset="100%" stop-color="#45B7D1"/>
    </radialGradient>
    <radialGradient id="leaf6" cx="50%" cy="50%" r="70%">
      <stop offset="0%" stop-color="#FF4500"/>
      <stop offset="50%" stop-color="#32CD32"/>
      <stop offset="100%" stop-color="#FF6B6B"/>
    </radialGradient>
    <radialGradient id="leaf7" cx="50%" cy="50%" r="70%">
      <stop offset="0%" stop-color="#32CD32"/>
      <stop offset="50%" stop-color="#00FA9A"/>
      <stop offset="100%" stop-color="#DC143C"/>
    </radialGradient>
    <radialGradient id="leaf8" cx="50%" cy="50%" r="70%">
      <stop offset="0%" stop-color="#9370DB"/>
      <stop offset="50%" stop-color="#FF6B6B"/>
      <stop offset="100%" stop-color="#45B7D1"/>
    </radialGradient>
    <radialGradient id="leaf9" cx="50%" cy="50%" r="70%">
      <stop offset="0%" stop-color="#DC143C"/>
      <stop offset="50%" stop-color="#FF6B6B"/>
      <stop offset="100%" stop-color="#00CED1"/>
    </radialGradient>
    <radialGradient id="leaf10" cx="50%" cy="50%" r="70%">
      <stop offset="0%" stop-color="#FF4500"/>
      <stop offset="50%" stop-color="#96E6A1"/>
      <stop offset="100%" stop-color="#45B7D1"/>
    </radialGradient>
    <radialGradient id="leaf11" cx="50%" cy="50%" r="70%">
      <stop offset="0%" stop-color="#32CD32"/>
      <stop offset="50%" stop-color="#FF69B4"/>
      <stop offset="100%" stop-color="#FF6B6B"/>
    </radialGradient>
    <radialGradient id="leaf12" cx="50%" cy="50%" r="70%">
      <stop offset="0%" stop-color="#00FA9A"/>
      <stop offset="50%" stop-color="#FFD700"/>
      <stop offset="100%" stop-color="#7B68EE"/>
    </radialGradient>
    <radialGradient id="leaf13" cx="50%" cy="50%" r="70%">
      <stop offset="0%" stop-color="#FF69B4"/>
      <stop offset="50%" stop-color="#FF4500"/>
      <stop offset="100%" stop-color="#96E6A1"/>
    </radialGradient>
    <radialGradient id="leaf14" cx="50%" cy="50%" r="70%">
      <stop offset="0%" stop-color="#FF1493"/>
      <stop offset="50%" stop-color="#7B68EE"/>
      <stop offset="100%" stop-color="#FFE66D"/>
    </radialGradient>
    <radialGradient id="leaf15" cx="50%" cy="50%" r="70%">
      <stop offset="0%" stop-color="#FFE66D"/>
      <stop offset="50%" stop-color="#FF69B4"/>
      <stop offset="100%" stop-color="#00CED1"/>
    </radialGradient>
    <radialGradient id="leaf16" cx="50%" cy="50%" r="70%">
      <stop offset="0%" stop-color="#FF6B6B"/>
      <stop offset="50%" stop-color="#00CED1"/>
      <stop offset="100%" stop-color="#00FA9A"/>
    </radialGradient>
    <radialGradient id="leaf17" cx="50%" cy="50%" r="70%">
      <stop offset="0%" stop-color="#00FA9A"/>
      <stop offset="50%" stop-color="#FF4500"/>
      <stop offset="100%" stop-color="#FFD700"/>
    </radialGradient>
    <radialGradient id="leaf18" cx="50%" cy="50%" r="70%">
      <stop offset="0%" stop-color="#FFD700"/>
      <stop offset="50%" stop-color="#96E6A1"/>
      <stop offset="100%" stop-color="#FF4500"/>
    </radialGradient>
    <radialGradient id="leaf19" cx="50%" cy="50%" r="70%">
      <stop offset="0%" stop-color="#FF6B6B"/>
      <stop offset="50%" stop-color="#7B68EE"/>
      <stop offset="100%" stop-color="#DC143C"/>
    </radialGradient>
  </defs>

  <!-- Background -->
  <rect width="1920" height="1080" fill="url(#bgGrad)"/>
  
  <!-- Leaves with clip-path -->
  <g clip-path="url(#complexClip)">
    <path d="M 1864.0613900728204,-17.594491790051762 C 1919.0496533434068,28.229060935436877 1937.3790744336022,92.38203475112097 1864.0613900728204,165.6997191119028 C 1790.7437057120385,92.38203475112097 1809.073126802234,28.229060935436877 1864.0613900728204,-17.594491790051762 Z" fill="url(#leaf0)" opacity="0.31" transform="rotate(74.7 1864.1 74.1)"/>
    <path d="M 1053.3486200272487,418.89393003271766 C 1098.0836384886022,456.1731120838457 1112.9953113090535,508.3639669554249 1053.3486200272487,568.0106582372298 C 993.7019287454439,508.3639669554249 1008.613601565895,456.1731120838457 1053.3486200272487,418.89393003271766 Z" fill="url(#leaf1)" opacity="0.21" transform="rotate(57.5 1053.3 493.5)"/>
    <path d="M 656.8017800558011,269.59894450925106 C 690.5007335575624,297.6814057607188 701.7337180581495,336.99685151277356 656.8017800558011,381.92878951512193 C 611.8698420534528,336.99685151277356 623.1028265540399,297.6814057607188 656.8017800558011,269.59894450925106 Z" fill="url(#leaf2)" opacity="0.21" transform="rotate(342.7 656.8 325.8)"/>
    <path d="M 1115.9278648345335,375.0777437860538 C 1155.5065834429122,408.06000929303605 1168.699489645705,454.23518100281115 1115.9278648345335,507.00680581398274 C 1063.156240023362,454.23518100281115 1076.3491462261547,408.06000929303605 1115.9278648345335,375.0777437860538 Z" fill="url(#leaf3)" opacity="0.36" transform="rotate(172.3 1115.9 441.0)"/>
    <path d="M 1255.0279771345552,914.1158497658545 C 1306.0453682445468,956.6303423575143 1323.0511652812108,1016.150631985838 1255.0279771345552,1084.1738201324938 C 1187.0047889878995,1016.150631985838 1204.0105860245635,956.6303423575143 1255.0279771345552,914.1158497658545 Z" fill="url(#leaf4)" opacity="0.22" transform="rotate(328.3 1255.0 999.1)"/>
    <path d="M 244.52603704132753,22.480466082751583 C 269.4090337240201,43.21629665166206 277.7033659515843,72.24645944813675 244.52603704132753,105.42378835839352 C 211.34870813107074,72.24645944813675 219.64304035863495,43.21629665166206 244.52603704132753,22.480466082751583 Z" fill="url(#leaf5)" opacity="0.26" transform="rotate(69.0 244.5 64.0)"/>
    <path d="M 1538.2106799578855,670.1881803953535 C 1597.8527036781231,719.8898668288848 1617.7333782515357,789.4722278358288 1538.2106799578855,868.994926129479 C 1458.6879816642354,789.4722278358288 1478.568656237648,719.8898668288848 1538.2106799578855,670.1881803953535 Z" fill="url(#leaf6)" opacity="0.24" transform="rotate(41.3 1538.2 769.6)"/>
    <path d="M 1233.0135794759703,318.9848009972842 C 1284.1992570296693,361.6395322920332 1301.261149547569,421.3561561046819 1233.0135794759703,489.60372617628036 C 1164.7660094043717,421.3561561046819 1181.8279019222714,361.6395322920332 1233.0135794759703,318.9848009972842 Z" fill="url(#leaf7)" opacity="0.24" transform="rotate(140.1 1233.0 404.3)"/>
    <path d="M 741.1854656845134,78.56814045928039 C 767.0405091619405,100.11401002380296 775.6588569877495,130.27822741413456 741.1854656845134,164.7516187173707 C 706.7120743812773,130.27822741413456 715.3304222070863,100.11401002380296 741.1854656845134,78.56814045928039 Z" fill="url(#leaf8)" opacity="0.35" transform="rotate(12.2 741.2 121.7)"/>
    <path d="M 1855.73182008519,457.1511533035086 C 1907.2988570040156,500.12368406919666 1924.487869310291,560.2852271411599 1855.73182008519,629.0412763662607 C 1786.9757708600891,560.2852271411599 1804.1647831663645,500.12368406919666 1855.73182008519,457.1511533035086 Z" fill="url(#leaf9)" opacity="0.36" transform="rotate(253.0 1855.7 543.1)"/>
    <path d="M 644.2849257140574,564.4426416013591 C 689.6684026951153,602.2622057522407 704.796228355468,655.2095955634749 644.2849257140574,715.7208982048853 C 583.7736230726468,655.2095955634749 598.9014487329995,602.2622057522407 644.2849257140574,564.4426416013591 Z" fill="url(#leaf10)" opacity="0.34" transform="rotate(67.0 644.3 640.1)"/>
    <path d="M 1248.8530860126757,624.0263603916527 C 1273.4315934012748,644.508449882152 1281.6244291974747,673.1833751688511 1248.8530860126757,705.95471835365 C 1216.0817428278767,673.1833751688511 1224.2745786240766,644.508449882152 1248.8530860126757,624.0263603916527 Z" fill="url(#leaf11)" opacity="0.40" transform="rotate(153.0 1248.9 665.0)"/>
    <path d="M 358.86248042086316,237.78336164801252 C 398.5961109513518,270.89472042341976 411.84065446151476,317.25062270898985 358.86248042086316,370.22879674964145 C 305.88430638021157,317.25062270898985 319.1288498903745,270.89472042341976 358.86248042086316,237.78336164801252 Z" fill="url(#leaf12)" opacity="0.37" transform="rotate(321.1 358.9 304.0)"/>
    <path d="M 785.8115638375572,204.26843589620097 C 826.132866080849,237.8695210989442 839.5733001619463,284.91104038278473 785.8115638375572,338.6727767071739 C 732.049827513168,284.91104038278473 745.4902615942653,237.8695210989442 785.8115638375572,204.26843589620097 Z" fill="url(#leaf13)" opacity="0.38" transform="rotate(129.3 785.8 271.5)"/>
    <path d="M 1570.2864244749549,72.24881609934116 C 1608.2567645518893,103.89076616345328 1620.9135445775341,148.18949625321025 1570.2864244749549,198.81661635578965 C 1519.6593043723756,148.18949625321025 1532.3160843980204,103.89076616345328 1570.2864244749549,72.24881609934116 Z" fill="url(#leaf14)" opacity="0.25" transform="rotate(97.8 1570.3 135.5)"/>
    <path d="M 1184.6868462632024,388.1399548292819 C 1243.7650652701411,437.3718040017309 1263.4578049391207,506.2963928431594 1184.6868462632024,585.0673515190778 C 1105.915887587284,506.2963928431594 1125.6086272562636,437.3718040017309 1184.6868462632024,388.1399548292819 Z" fill="url(#leaf15)" opacity="0.30" transform="rotate(277.1 1184.7 486.6)"/>
    <path d="M 1249.8840812760516,958.5146376680589 C 1287.8358446544332,990.1411071500436 1300.4864324472271,1034.4181644248222 1249.8840812760516,1085.0205155959977 C 1199.281730104876,1034.4181644248222 1211.93231789767,990.1411071500436 1249.8840812760516,958.5146376680589 Z" fill="url(#leaf16)" opacity="0.21" transform="rotate(149.5 1249.9 1021.8)"/>
    <path d="M 563.1147636735334,100.83111332708411 C 604.9071541332298,135.6581053768311 618.8379509531286,184.41589424647688 563.1147636735334,240.13908152607206 C 507.3915763939382,184.41589424647688 521.322373213837,135.6581053768311 563.1147636735334,100.83111332708411 Z" fill="url(#leaf17)" opacity="0.27" transform="rotate(186.3 563.1 170.5)"/>
    <path d="M 354.43840765799564,493.55890180795035 C 383.8959611885084,518.1068630833777 393.7151456986793,552.4740088689758 354.43840765799564,591.7507469096595 C 315.161669617312,552.4740088689758 324.98085412748287,518.1068630833777 354.43840765799564,493.55890180795035 Z" fill="url(#leaf18)" opacity="0.39" transform="rotate(165.1 354.4 542.7)"/>
    <path d="M 228.86039640989978,152.2472237156685 C 288.2457935020508,201.7350546257943 308.04092586610113,271.01801789997046 228.86039640989978,350.1985473561718 C 149.67986695369845,271.01801789997046 169.4749993177488,201.7350546257943 228.86039640989978,152.2472237156685 Z" fill="url(#leaf19)" opacity="0.38" transform="rotate(332.3 228.9 251.2)"/>
    <path d="M 299.5856012494744,405.94517500342346 C 347.557150928417,445.9214664025423 363.5476674880646,501.8882743613087 299.5856012494744,565.8503405998989 C 235.6235350108842,501.8882743613087 251.61405157053176,445.9214664025423 299.5856012494744,405.94517500342346 Z" fill="url(#leaf0)" opacity="0.33" transform="rotate(308.8 299.6 485.9)"/>
    <path d="M 766.6460886726618,554.2456104150315 C 821.407216188421,599.8798833448308 839.6609253603407,663.7678654465498 766.6460886726618,736.7827021342287 C 693.6312519849829,663.7678654465498 711.8849611569026,599.8798833448308 766.6460886726618,554.2456104150315 Z" fill="url(#leaf1)" opacity="0.34" transform="rotate(95.5 766.6 645.5)"/>
    <path d="M 1761.244397545921,449.0386933574515 C 1819.6585103186255,497.7171206680387 1839.1298812428604,565.8669189028608 1761.244397545921,643.7524025998003 C 1683.3589138489815,565.8669189028608 1702.8302847732164,497.7171206680387 1761.244397545921,449.0386933574515 Z" fill="url(#leaf2)" opacity="0.28" transform="rotate(299.8 1761.2 546.4)"/>
    <path d="M 1441.778814353475,125.24226009518677 C 1482.3538011592063,159.05474909996298 1495.8787967611167,206.39223370664968 1441.778814353475,260.49221611429164 C 1387.678831945833,206.39223370664968 1401.2038275477435,159.05474909996298 1441.778814353475,125.24226009518677 Z" fill="url(#leaf3)" opacity="0.31" transform="rotate(188.9 1441.8 192.9)"/>
    <path d="M 636.0414865261502,465.8634354101844 C 689.0031303270747,509.9981385776215 706.6570115940495,571.7867230120335 636.0414865261502,642.4022480799329 C 565.4259614582508,571.7867230120335 583.0798427252256,509.9981385776215 636.0414865261502,465.8634354101844 Z" fill="url(#leaf4)" opacity="0.24" transform="rotate(5.8 636.0 554.1)"/>
    <path d="M 738.8115038649136,802.3527375195467 C 796.4544593180761,850.3885337305156 815.6687778024636,917.6386484258719 738.8115038649136,994.4959223634221 C 661.9542299273635,917.6386484258719 681.168548411751,850.3885337305156 738.8115038649136,802.3527375195467 Z" fill="url(#leaf5)" opacity="0.31" transform="rotate(253.7 738.8 898.4)"/>
    <path d="M 1206.8057733291682,30.914834643945625 C 1242.6137953384869,60.754852985044465 1254.5498026749265,102.53087866258284 1206.8057733291682,150.274908008341 C 1159.06174398341,102.53087866258284 1170.9977513198496,60.754852985044465 1206.8057733291682,30.914834643945625 Z" fill="url(#leaf6)" opacity="0.30" transform="rotate(80.3 1206.8 90.6)"/>
    <path d="M 368.2806938251429,645.6798132421048 C 397.0344680848625,669.6412917918711 406.619059504769,703.1873617615439 368.2806938251429,741.52572744117 C 329.94232814551685,703.1873617615439 339.5269195654233,669.6412917918711 368.2806938251429,645.6798132421048 Z" fill="url(#leaf7)" opacity="0.33" transform="rotate(282.5 368.3 693.6)"/>
    <path d="M 1311.6947547332531,858.4255868661494 C 1363.2070365530578,901.3524883826534 1380.3777971596594,961.4501505057589 1311.6947547332531,1030.1331929321652 C 1243.011712306847,961.4501505057589 1260.1824729134485,901.3524883826534 1311.6947547332531,858.4255868661494 Z" fill="url(#leaf8)" opacity="0.26" transform="rotate(231.2 1311.7 944.3)"/>
    <path d="M 427.7804283898235,-15.730938474924258 C 480.1784849313763,27.934108643036446 497.64450377856065,89.06517460818144 427.7804283898235,158.92924999691854 C 357.91635300108635,89.06517460818144 375.3823718482707,27.934108643036446 427.7804283898235,-15.730938474924258 Z" fill="url(#leaf9)" opacity="0.30" transform="rotate(24.2 427.8 71.6)"/>
    <path d="M 378.78161934057863,473.55343989007713 C 422.88995553368704,510.3103867176675 437.5927342647232,561.770112276294 378.78161934057863,620.5812272004385 C 319.97050441643404,561.770112276294 334.6732831474702,510.3103867176675 378.78161934057863,473.55343989007713 Z" fill="url(#leaf10)" opacity="0.28" transform="rotate(170.4 378.8 547.1)"/>
    <path d="M 80.77266584049637,92.90574728469633 C 135.9630510006519,138.89773491815924 154.35984605403706,203.28651760500736 80.77266584049637,276.87369781854807 C 7.185485626955682,203.28651760500736 25.582280680340865,138.89773491815924 80.77266584049637,92.90574728469633 Z" fill="url(#leaf11)" opacity="0.28" transform="rotate(195.1 80.8 184.9)"/>
    <path d="M 852.2769063490225,444.134872602663 C 883.7487623862264,470.3614193003329 894.2393810652943,507.07858467707075 852.2769063490225,549.0410593933426 C 810.3144316327507,507.07858467707075 820.8050503118186,470.3614193003329 852.2769063490225,444.134872602663 Z" fill="url(#leaf12)" opacity="0.36" transform="rotate(86.5 852.3 496.6)"/>
    <path d="M 1660.0300731273544,526.1378222998138 C 1703.506717560332,562.3683593272951 1717.9989323713244,613.0911111657689 1660.0300731273544,671.0599704097389 C 1602.0612138833844,613.0911111657689 1616.5534286943769,562.3683593272951 1660.0300731273544,526.1378222998138 Z" fill="url(#leaf13)" opacity="0.25" transform="rotate(195.4 1660.0 598.6)"/>
    <path d="M 107.21692566229922,567.6341347502589 C 165.1923183026148,615.946961950522 184.51744918272004,683.5849200308902 107.21692566229922,760.885443551311 C 29.916402141878393,683.5849200308902 49.241533021983614,615.946961950522 107.21692566229922,567.6341347502589 Z" fill="url(#leaf14)" opacity="0.24" transform="rotate(131.8 107.2 664.3)"/>
    <path d="M 338.8392898385265,447.3144775796607 C 385.0174462612658,485.79627459861007 400.4101650688455,539.6707904251392 338.8392898385265,601.2416656554583 C 277.2684146082075,539.6707904251392 292.6611334157872,485.79627459861007 338.8392898385265,447.3144775796607 Z" fill="url(#leaf15)" opacity="0.39" transform="rotate(97.3 338.8 524.3)"/>
    <path d="M 291.3730926008002,0.9153295964163775 C 324.63776573557266,28.635890542060086 335.7259901138301,67.44467586596127 291.3730926008002,111.79757337899122 C 247.02019508777025,67.44467586596127 258.1084194660277,28.635890542060086 291.3730926008002,0.9153295964163775 Z" fill="url(#leaf16)" opacity="0.21" transform="rotate(271.6 291.4 56.4)"/>
    <path d="M 509.8577832378192,366.989115761176 C 557.1254538434529,406.37884126587073 572.8813440453308,461.5244569724434 509.8577832378192,524.548017779955 C 446.8342224303076,461.5244569724434 462.59011263218554,406.37884126587073 509.8577832378192,366.989115761176 Z" fill="url(#leaf17)" opacity="0.22" transform="rotate(190.8 509.9 445.8)"/>
    <path d="M 1859.935801750658,686.0443046914713 C 1907.404332913992,725.6014139942497 1923.2271766351034,780.9813670181395 1859.935801750658,844.272741902585 C 1796.6444268662124,780.9813670181395 1812.4672705873238,725.6014139942497 1859.935801750658,686.0443046914713 Z" fill="url(#leaf18)" opacity="0.20" transform="rotate(89.4 1859.9 765.2)"/>
    <path d="M 905.8389331345069,375.4517144620568 C 930.1494913754614,395.71051299618557 938.2530107891129,424.0728309439658 905.8389331345069,456.4869085985718 C 873.4248554799009,424.0728309439658 881.5283748935524,395.71051299618557 905.8389331345069,375.4517144620568 Z" fill="url(#leaf19)" opacity="0.23" transform="rotate(358.4 905.8 416.0)"/>
    <path d="M 1075.626197863347,600.7655180805925 C 1106.532941353634,626.5211376558317 1116.8351891837297,662.5790050611664 1075.626197863347,703.787996381549 C 1034.4172065429643,662.5790050611664 1044.71945437306,626.5211376558317 1075.626197863347,600.7655180805925 Z" fill="url(#leaf0)" opacity="0.37" transform="rotate(55.3 1075.6 652.3)"/>
    <path d="M 170.72767235995428,642.6324393669885 C 214.38677717153786,679.0150267099748 228.93981210873238,729.9506489901556 170.72767235995428,788.1627887389337 C 112.51553261117618,729.9506489901556 127.06856754837071,679.0150267099748 170.72767235995428,642.6324393669885 Z" fill="url(#leaf1)" opacity="0.32" transform="rotate(304.2 170.7 715.4)"/>
    <path d="M 1633.5641374220309,620.8254540642623 C 1671.3131477211962,652.2829626468999 1683.8961511542511,696.3234746625927 1633.5641374220309,746.655488394813 C 1583.2321236898106,696.3234746625927 1595.8151271228655,652.2829626468999 1633.5641374220309,620.8254540642623 Z" fill="url(#leaf2)" opacity="0.33" transform="rotate(5.1 1633.6 683.7)"/>
    <path d="M 1343.1634245174446,0.2090932558844969 C 1389.4688501304688,38.796947933404695 1404.9039920014768,92.81994448193298 1343.1634245174446,154.5605119659653 C 1281.4228570334124,92.81994448193298 1296.8579989044204,38.796947933404695 1343.1634245174446,0.2090932558844969 Z" fill="url(#leaf3)" opacity="0.31" transform="rotate(30.9 1343.2 77.4)"/>
    <path d="M 1429.5239844086914,721.3701163352723 C 1459.6031988270015,746.4361283505307 1469.6296036331048,781.5285451718923 1429.5239844086914,821.6341643963058 C 1389.418365184278,781.5285451718923 1399.4447699903812,746.4361283505307 1429.5239844086914,721.3701163352723 Z" fill="url(#leaf4)" opacity="0.36" transform="rotate(56.9 1429.5 771.5)"/>
    <path d="M 1342.9146071440282,926.4880571288678 C 1367.18817776785,946.7160326487193 1375.2793679757906,975.0351983765113 1342.9146071440282,1007.3999592082736 C 1310.5498463122658,975.0351983765113 1318.6410365202064,946.7160326487193 1342.9146071440282,926.4880571288678 Z" fill="url(#leaf5)" opacity="0.38" transform="rotate(103.8 1342.9 966.9)"/>
    <path d="M 854.1436179275589,142.64602680431713 C 907.0715212985046,186.75261294677193 924.7141557554867,248.5018335462087 854.1436179275589,319.0723713741364 C 783.5730800996312,248.5018335462087 801.2157145566132,186.75261294677193 854.1436179275589,142.64602680431713 Z" fill="url(#leaf6)" opacity="0.37" transform="rotate(224.7 854.1 230.9)"/>
    <path d="M 1574.3523148715078,466.70695726091253 C 1626.6824123695294,510.3153718425972 1644.1257782022033,571.3671522569557 1574.3523148715078,641.1406155876512 C 1504.5788515408124,571.3671522569557 1522.0222173734862,510.3153718425972 1574.3523148715078,466.70695726091253 Z" fill="url(#leaf7)" opacity="0.31" transform="rotate(45.9 1574.4 553.9)"/>
    <path d="M 1471.6668435850531,437.45327101301507 C 1513.3151708178607,472.1602103736881 1527.19794656213,520.7499254786303 1471.6668435850531,576.2810284557071 C 1416.1357406079762,520.7499254786303 1430.0185163522456,472.1602103736881 1471.6668435850531,437.45327101301507 Z" fill="url(#leaf8)" opacity="0.39" transform="rotate(217.7 1471.7 506.9)"/>
    <path d="M 1038.7391719210023,691.1981728397623 C 1081.7099320631344,727.0071396248724 1096.0335187771784,777.1396931240265 1038.7391719210023,834.4340399802027 C 981.4448250648261,777.1396931240265 995.7684117788701,727.0071396248724 1038.7391719210023,691.1981728397623 Z" fill="url(#leaf9)" opacity="0.40" transform="rotate(295.3 1038.7 762.8)"/>
    <path d="M 1053.6091219969176,510.8929587175455 C 1095.4232467457741,545.7380626749259 1109.3612883287262,594.5212082152584 1053.6091219969176,650.2733745470671 C 997.856955665109,594.5212082152584 1011.7949972480611,545.7380626749259 1053.6091219969176,510.8929587175455 Z" fill="url(#leaf10)" opacity="0.32" transform="rotate(154.7 1053.6 580.6)"/>
    <path d="M 350.5324076571164,299.4084342387114 C 406.46160060979764,346.01609503261244 425.1046649273581,411.2668201440739 350.5324076571164,485.8390774143156 C 275.96015038687466,411.2668201440739 294.6032147044351,346.01609503261244 350.5324076571164,299.4084342387114 Z" fill="url(#leaf11)" opacity="0.32" transform="rotate(28.7 350.5 392.6)"/>
    <path d="M 565.623070979764,458.6458904483431 C 608.7548020384115,494.58899966388276 623.1320457246273,544.9093525656382 565.623070979764,602.4183273105016 C 508.11409623490056,544.9093525656382 522.4913399211164,494.58899966388276 565.623070979764,458.6458904483431 Z" fill="url(#leaf12)" opacity="0.29" transform="rotate(324.5 565.6 530.5)"/>
    <path d="M 472.06527857222693,294.8055939509341 C 522.5714186096094,336.8940439820862 539.4067986220703,395.81787402569904 472.06527857222693,463.15939407554237 C 404.7237585223836,395.81787402569904 421.55913853484446,336.8940439820862 472.06527857222693,294.8055939509341 Z" fill="url(#leaf13)" opacity="0.23" transform="rotate(313.5 472.1 379.0)"/>
    <path d="M 1521.7716064897209,67.70185423673858 C 1550.7918637671673,91.88540196794396 1560.4652828596495,125.74236879163149 1521.7716064897209,164.43604516156012 C 1483.0779301197922,125.74236879163149 1492.7513492122744,91.88540196794396 1521.7716064897209,67.70185423673858 Z" fill="url(#leaf14)" opacity="0.38" transform="rotate(316.7 1521.8 116.1)"/>
    <path d="M 289.7092863956699,42.02657112765661 C 334.31229904352466,79.19574833420224 349.1799699261429,131.23259642336612 289.7092863956699,190.70327995383911 C 230.2386028651969,131.23259642336612 245.10627374781515,79.19574833420224 289.7092863956699,42.02657112765661 Z" fill="url(#leaf15)" opacity="0.39" transform="rotate(261.2 289.7 116.4)"/>
    <path d="M 472.92713678236976,6.308474775020073 C 513.8075602451643,40.37549432734879 527.4343680660957,88.069321700609 472.92713678236976,142.57655298433494 C 418.4199054986438,88.069321700609 432.0467133195753,40.37549432734879 472.92713678236976,6.308474775020073 Z" fill="url(#leaf16)" opacity="0.29" transform="rotate(278.8 472.9 74.4)"/>
    <path d="M 1326.4906275659869,892.3673947210717 C 1379.8558921558506,936.8384485459583 1397.6443136858052,999.0979239007993 1326.4906275659869,1070.2516100206176 C 1255.3369414461686,999.0979239007993 1273.1253629761231,936.8384485459583 1326.4906275659869,892.3673947210717 Z" fill="url(#leaf17)" opacity="0.25" transform="rotate(144.4 1326.5 981.3)"/>
    <path d="M 971.5594581785871,388.7754919510531 C 1030.2108379414517,437.65164175344034 1049.7612978624068,506.0782514767825 971.5594581785871,584.2800911606021 C 893.3576184947674,506.0782514767825 912.9080784157223,437.65164175344034 971.5594581785871,388.7754919510531 Z" fill="url(#leaf18)" opacity="0.31" transform="rotate(30.5 971.6 486.5)"/>
    <path d="M 1074.8021682021274,509.18476724660934 C 1131.8885725352088,556.7567708575106 1150.9173739795692,623.3575759127722 1074.8021682021274,699.472781690214 C 998.6869624246856,623.3575759127722 1017.715763869046,556.7567708575106 1074.8021682021274,509.18476724660934 Z" fill="url(#leaf19)" opacity="0.30" transform="rotate(96.0 1074.8 604.3)"/>
    <path d="M 1682.6386841443687,323.0508543635834 C 1735.5029792075043,367.1044335828632 1753.1244108952162,428.7794444898548 1682.6386841443687,499.26517124070244 C 1612.152957393521,428.7794444898548 1629.774389081233,367.1044335828632 1682.6386841443687,323.0508543635834 Z" fill="url(#leaf0)" opacity="0.30" transform="rotate(60.1 1682.6 411.2)"/>
    <path d="M 666.2665342795723,212.40430202828222 C 723.6973617798421,260.2633249451738 742.8409709465989,327.265957028822 666.2665342795723,403.84039369584855 C 589.6920976125457,327.265957028822 608.8357067793024,260.2633249451738 666.2665342795723,212.40430202828222 Z" fill="url(#leaf1)" opacity="0.33" transform="rotate(350.9 666.3 308.1)"/>
    <path d="M 1418.019014663974,231.14861336570934 C 1452.8414002840284,260.167268049088 1464.44886215738,300.7933846058182 1418.019014663974,347.22323209922405 C 1371.589167170568,300.7933846058182 1383.1966290439198,260.167268049088 1418.019014663974,231.14861336570934 Z" fill="url(#leaf2)" opacity="0.28" transform="rotate(273.6 1418.0 289.2)"/>
    <path d="M 1202.8863005429398,3.006834550874686 C 1257.009951367655,48.10987690480401 1275.0511683092268,111.25413620030507 1202.8863005429398,183.419003966592 C 1130.7214327766528,111.25413620030507 1148.7626497182246,48.10987690480401 1202.8863005429398,3.006834550874686 Z" fill="url(#leaf3)" opacity="0.26" transform="rotate(73.6 1202.9 93.2)"/>
    <path d="M 952.7546380103582,131.1119023163714 C 976.8286085793706,151.17354445721497 984.853265435708,179.25984345439596 952.7546380103582,211.35847087974565 C 920.6560105850085,179.25984345439596 928.6806674413459,151.17354445721497 952.7546380103582,131.1119023163714 Z" fill="url(#leaf4)" opacity="0.39" transform="rotate(130.0 952.8 171.2)"/>
    <path d="M 204.03215108685572,782.6503454903985 C 232.25066086456727,806.1657703051582 241.65683079047113,839.0873650458217 204.03215108685572,876.712044749437 C 166.4074713832403,839.0873650458217 175.81364130914417,806.1657703051582 204.03215108685572,782.6503454903985 Z" fill="url(#leaf5)" opacity="0.25" transform="rotate(141.4 204.0 829.7)"/>
    <path d="M 347.3220607400342,780.4809735310552 C 406.35867204099674,829.6781496151906 426.03754247465093,898.5541961329802 347.3220607400342,977.2696778675969 C 268.6065790054175,898.5541961329802 288.28544943907167,829.6781496151906 347.3220607400342,780.4809735310552 Z" fill="url(#leaf6)" opacity="0.29" transform="rotate(174.6 347.3 878.9)"/>
    <path d="M 1040.898639518796,150.2444339822112 C 1094.5107652398199,194.92120541639775 1112.3814738134945,257.46868542425887 1040.898639518796,328.95151971895734 C 969.4158052240975,257.46868542425887 987.2865137977722,194.92120541639775 1040.898639518796,150.2444339822112 Z" fill="url(#leaf7)" opacity="0.37" transform="rotate(359.7 1040.9 239.6)"/>
    <path d="M 1770.7633811624378,474.1375746184217 C 1795.3282009210488,494.60825775059766 1803.5164741739193,523.267214135644 1770.7633811624378,556.0203071471255 C 1738.0102881509563,523.267214135644 1746.1985614038267,494.60825775059766 1770.7633811624378,474.1375746184217 Z" fill="url(#leaf8)" opacity="0.29" transform="rotate(62.2 1770.8 515.1)"/>
    <path d="M 916.3381246307644,806.9884153821909 C 948.4028491873992,833.7090191793866 959.0910907062774,871.1178644954605 916.3381246307644,913.8708305709736 C 873.5851585552513,871.1178644954605 884.2734000741295,833.7090191793866 916.3381246307644,806.9884153821909 Z" fill="url(#leaf9)" opacity="0.34" transform="rotate(257.6 916.3 860.4)"/>
    <path d="M 741.8346602869501,968.320651777977 C 770.7532187755049,992.4194505184394 780.3927382716898,1026.1577687550866 741.8346602869501,1064.7158467398265 C 703.2765823022104,1026.1577687550866 712.9161017983953,992.4194505184394 741.8346602869501,968.320651777977 Z" fill="url(#leaf10)" opacity="0.38" transform="rotate(130.1 741.8 1016.5)"/>
    <path d="M 708.5130454804212,547.644543707437 C 766.0723302038057,595.6106143102575 785.2587584449338,662.763113154206 708.5130454804212,739.5088261187187 C 631.7673325159085,662.763113154206 650.9537607570367,595.6106143102575 708.5130454804212,547.644543707437 Z" fill="url(#leaf11)" opacity="0.37" transform="rotate(118.1 708.5 643.6)"/>
    <path d="M 981.1183842022785,563.0726222406792 C 1015.609824092823,591.8154888161329 1027.1069707230045,632.0555020217681 981.1183842022785,678.044088542494 C 935.1297976815526,632.0555020217681 946.6269443117341,591.8154888161329 981.1183842022785,563.0726222406792 Z" fill="url(#leaf12)" opacity="0.27" transform="rotate(18.2 981.1 620.6)"/>
    <path d="M 883.2503142560032,254.38257173054123 C 927.1261291601154,290.94575081730136 941.7514007948193,342.1342015387655 883.2503142560032,400.63528807758166 C 824.7492277171871,342.1342015387655 839.374499351891,290.94575081730136 883.2503142560032,254.38257173054123 Z" fill="url(#leaf13)" opacity="0.22" transform="rotate(279.5 883.3 327.5)"/>
    <path d="M 559.2426421355789,328.6770131145008 C 596.8951512594027,360.05410405102066 609.4459876340106,403.9820313621485 559.2426421355789,454.1853768605803 C 509.03929663714706,403.9820313621485 521.590133011755,360.05410405102066 559.2426421355789,328.6770131145008 Z" fill="url(#leaf14)" opacity="0.36" transform="rotate(90.1 559.2 391.4)"/>
    <path d="M 218.1050655771709,355.0813169659001 C 247.2878613039399,379.4003134048742 257.01545987952954,413.44690841943805 218.1050655771709,452.3573027217967 C 179.19467127481224,413.44690841943805 188.9222698504019,379.4003134048742 218.1050655771709,355.0813169659001 Z" fill="url(#leaf15)" opacity="0.24" transform="rotate(340.2 218.1 403.7)"/>
    <path d="M 802.9051416089941,410.02231184709717 C 828.7940898489632,431.5964353804047 837.4237392622861,461.80020832703525 802.9051416089941,496.3188059803273 C 768.3865439557021,461.80020832703525 777.016193369025,431.5964353804047 802.9051416089941,410.02231184709717 Z" fill="url(#leaf16)" opacity="0.25" transform="rotate(280.2 802.9 453.2)"/>
    <path d="M 418.49080487012765,646.5439110385578 C 455.3695226070838,677.2761758193546 467.66242851940257,720.3013465124701 418.49080487012765,769.472970161745 C 369.3191812208527,720.3013465124701 381.6120871331715,677.2761758193546 418.49080487012765,646.5439110385578 Z" fill="url(#leaf17)" opacity="0.31" transform="rotate(287.9 418.5 708.0)"/>
    <path d="M 1107.757276982772,645.7570119241675 C 1149.080892567888,680.1933582450974 1162.85543109626,728.4042430943994 1107.757276982772,783.5023972078873 C 1052.6591228692841,728.4042430943994 1066.4336613976561,680.1933582450974 1107.757276982772,645.7570119241675 Z" fill="url(#leaf18)" opacity="0.32" transform="rotate(171.8 1107.8 714.6)"/>
    <path d="M 115.85182993988526,200.17554716976107 C 150.06943080559185,228.6902145578499 161.4752977608274,268.61074890117425 115.85182993988526,314.23421672211634 C 70.22836211894314,268.61074890117425 81.63422907417868,228.6902145578499 115.85182993988526,200.17554716976107 Z" fill="url(#leaf19)" opacity="0.37" transform="rotate(359.5 115.9 257.2)"/>
    <path d="M 141.53436068112237,56.28624375668029 C 186.17794480754486,93.48923052869904 201.0591395163524,145.5734120095253 141.53436068112237,205.09819084475532 C 82.00958184589236,145.5734120095253 96.89077655469987,93.48923052869904 141.53436068112237,56.28624375668029 Z" fill="url(#leaf0)" opacity="0.32" transform="rotate(353.9 141.5 130.7)"/>
    <path d="M 590.7596363662648,152.4019420658282 C 647.6424543970776,199.8042904248389 666.6033937406819,266.1675781274539 590.7596363662648,342.01133550187103 C 514.9158789918476,266.1675781274539 533.876818335452,199.8042904248389 590.7596363662648,152.4019420658282 Z" fill="url(#leaf1)" opacity="0.23" transform="rotate(240.1 590.8 247.2)"/>
    <path d="M 199.8794483548284,923.978159784088 C 234.65104408528452,952.954489559468 246.24157599543656,993.5213512450001 199.8794483548284,1039.8834788856084 C 153.51732071422026,993.5213512450001 165.1078526243723,952.954489559468 199.8794483548284,923.978159784088 Z" fill="url(#leaf2)" opacity="0.29" transform="rotate(110.4 199.9 981.9)"/>
    <path d="M 725.0298088813807,211.67561709328228 C 777.0748782553875,255.0465082382879 794.4232347133898,315.76575584129574 725.0298088813807,385.1591816733047 C 655.6363830493717,315.76575584129574 672.984739507374,255.0465082382879 725.0298088813807,211.67561709328228 Z" fill="url(#leaf3)" opacity="0.27" transform="rotate(329.7 725.0 298.4)"/>
    <path d="M 939.2281414147377,718.79309725998 C 983.734530340836,755.8817546983952 998.5699933162022,807.8058751121766 939.2281414147377,867.1477270136411 C 879.8862895132733,807.8058751121766 894.7217524886394,755.8817546983952 939.2281414147377,718.79309725998 Z" fill="url(#leaf4)" opacity="0.35" transform="rotate(42.6 939.2 793.0)"/>
    <path d="M 198.35420516565728,262.16071495390054 C 227.56292711217807,286.50131657600116 237.29916776101834,320.5781588469421 198.35420516565728,359.52312144230314 C 159.40924257029621,320.5781588469421 169.14548321913648,286.50131657600116 198.35420516565728,262.16071495390054 Z" fill="url(#leaf5)" opacity="0.40" transform="rotate(292.9 198.4 310.8)"/>
    <path d="M 1757.997032010148,905.8681554685575 C 1791.4658089663658,933.7588029320724 1802.622067951772,972.8057093809933 1757.997032010148,1017.4307453226172 C 1713.371996068524,972.8057093809933 1724.52825505393,933.7588029320724 1757.997032010148,905.8681554685575 Z" fill="url(#leaf6)" opacity="0.36" transform="rotate(184.9 1758.0 961.6)"/>
    <path d="M 1620.842835073927,686.0284745805538 C 1678.8033432222237,734.3288980374678 1698.1235126049894,801.9494908771472 1620.842835073927,879.2301684082095 C 1543.5621575428647,801.9494908771472 1562.8823269256304,734.3288980374678 1620.842835073927,686.0284745805538 Z" fill="url(#leaf7)" opacity="0.37" transform="rotate(58.2 1620.8 782.6)"/>
    <path d="M 837.4821217118708,599.3613525561271 C 896.0435734415721,648.1625623308782 915.5640573514725,716.4842560155297 837.4821217118708,794.5661916551313 C 759.4001860722692,716.4842560155297 778.9206699821696,648.1625623308782 837.4821217118708,599.3613525561271 Z" fill="url(#leaf8)" opacity="0.30" transform="rotate(57.3 837.5 697.0)"/>
    <path d="M 865.4522600154701,64.90147961211063 C 901.1354654197046,94.63748411563941 913.0298672211161,136.26789042057968 865.4522600154701,183.84549762622572 C 817.874652809824,136.26789042057968 829.7690546112356,94.63748411563941 865.4522600154701,64.90147961211063 Z" fill="url(#leaf9)" opacity="0.23" transform="rotate(264.1 865.5 124.4)"/>
    <path d="M 1788.0580422153519,339.0383004703681 C 1823.17250401426,368.30035196945823 1834.877324613896,409.26722406818436 1788.0580422153519,456.08650646672857 C 1741.2387598168077,409.26722406818436 1752.9435804164436,368.30035196945823 1788.0580422153519,339.0383004703681 Z" fill="url(#leaf10)" opacity="0.28" transform="rotate(263.9 1788.1 397.6)"/>
    <path d="M 950.1332872655857,402.62672695490073 C 989.9483819952293,435.80597256293703 1003.2200802384439,482.25691641418786 950.1332872655857,535.3437093870459 C 897.0464942927276,482.25691641418786 910.3181925359422,435.80597256293703 950.1332872655857,402.62672695490073 Z" fill="url(#leaf11)" opacity="0.22" transform="rotate(60.6 950.1 469.0)"/>
    <path d="M 178.88747083023222,940.5222672917181 C 202.99359761990945,960.6107062831159 211.02897321646853,988.7345208710726 178.88747083023222,1020.8760232573089 C 146.7459684439959,988.7345208710726 154.78134404055498,960.6107062831159 178.88747083023222,940.5222672917181 Z" fill="url(#leaf12)" opacity="0.21" transform="rotate(48.8 178.9 980.7)"/>
    <path d="M 105.97165411787796,156.49364728368766 C 158.54021630412146,200.3007824388906 176.06307036620262,261.63077165617466 105.97165411787796,331.7221879044993 C 35.88023786955331,261.63077165617466 53.40309193163447,200.3007824388906 105.97165411787796,156.49364728368766 Z" fill="url(#leaf13)" opacity="0.26" transform="rotate(170.8 106.0 244.1)"/>
    <path d="M 1018.8436020753281,949.4355593448696 C 1050.257037348043,975.6134220721322 1060.7281824389481,1012.2624298902996 1018.8436020753281,1054.1470102539195 C 976.9590217117081,1012.2624298902996 987.4301668026131,975.6134220721322 1018.8436020753281,949.4355593448696 Z" fill="url(#leaf14)" opacity="0.20" transform="rotate(66.5 1018.8 1001.8)"/>
    <path d="M 1297.7425887248962,268.2554825372475 C 1339.0168644338828,302.65071229473625 1352.7749563368782,350.8040339552205 1297.7425887248962,405.8364015672026 C 1242.7102211129143,350.8040339552205 1256.4683130159096,302.65071229473625 1297.7425887248962,268.2554825372475 Z" fill="url(#leaf15)" opacity="0.20" transform="rotate(12.2 1297.7 337.0)"/>
    <path d="M 101.68726056975623,154.6083655353255 C 141.71524451206662,187.96501882058416 155.05790582617007,234.66433341994627 101.68726056975623,288.03497867636014 C 48.31661531334239,234.66433341994627 61.659276627445855,187.96501882058416 101.68726056975623,154.6083655353255 Z" fill="url(#leaf16)" opacity="0.23" transform="rotate(174.1 101.7 221.3)"/>
    <path d="M 818.4995137305586,621.855448427859 C 868.1312325874263,663.2152141419153 884.6751388730489,721.1188861415944 818.4995137305586,787.2945112840847 C 752.3238885880684,721.1188861415944 768.867794873691,663.2152141419153 818.4995137305586,621.855448427859 Z" fill="url(#leaf17)" opacity="0.29" transform="rotate(38.9 818.5 704.6)"/>
    <path d="M 1440.4275344107357,362.25735167014716 C 1494.2387049136196,407.0999937558838 1512.1757617479143,469.8796926759151 1440.4275344107357,541.6279200130938 C 1368.679307073557,469.8796926759151 1386.6163639078518,407.0999937558838 1440.4275344107357,362.25735167014716 Z" fill="url(#leaf18)" opacity="0.37" transform="rotate(223.4 1440.4 451.9)"/>
    <path d="M 143.8126037699214,908.0372847739882 C 197.16202551958384,952.4951362320403 214.94516610280468,1014.7361282733132 143.8126037699214,1085.8686906061964 C 72.68004143703811,1014.7361282733132 90.46318202025894,952.4951362320403 143.8126037699214,908.0372847739882 Z" fill="url(#leaf19)" opacity="0.25" transform="rotate(165.8 143.8 997.0)"/>
    <path d="M 517.6726029707438,496.32662742781713 C 555.024441203306,527.4531592882856 567.4750539474933,571.0303038929414 517.6726029707438,620.8327548696909 C 467.8701519939943,571.0303038929414 480.3207647381817,527.4531592882856 517.6726029707438,496.32662742781713 Z" fill="url(#leaf0)" opacity="0.20" transform="rotate(145.6 517.7 558.6)"/>
    <path d="M 220.34012382684148,473.44381418040626 C 274.03057034581457,518.1858529462172 291.92738585213897,580.8247072183525 220.34012382684148,652.4119692436499 C 148.75286180154401,580.8247072183525 166.6496773078684,518.1858529462172 220.34012382684148,473.44381418040626 Z" fill="url(#leaf1)" opacity="0.26" transform="rotate(171.8 220.3 562.9)"/>
    <path d="M 779.0160959970689,396.4956233130769 C 805.1666529641385,418.2877541189683 813.8835052864949,448.79673724721613 779.0160959970689,483.66414653664225 C 744.1486867076428,448.79673724721613 752.8655390299992,418.2877541189683 779.0160959970689,396.4956233130769 Z" fill="url(#leaf2)" opacity="0.35" transform="rotate(323.8 779.0 440.1)"/>
    <path d="M 720.3169757041784,877.1967521191266 C 763.5702380460078,913.2411374039845 777.987992159951,963.7032768027855 720.3169757041784,1021.374293258558 C 662.6459592484058,963.7032768027855 677.063713362349,913.2411374039845 720.3169757041784,877.1967521191266 Z" fill="url(#leaf3)" opacity="0.30" transform="rotate(174.5 720.3 949.3)"/>
    <path d="M 1739.226946621983,48.626792109377945 C 1785.3460450029086,87.0593740934826 1800.7190777965504,140.86498887122912 1739.226946621983,202.35712004579653 C 1677.7348154474155,140.86498887122912 1693.1078482410574,87.0593740934826 1739.226946621983,48.626792109377945 Z" fill="url(#leaf4)" opacity="0.34" transform="rotate(256.0 1739.2 125.5)"/>
    <path d="M 890.4769680516055,775.3825332406795 C 938.1383777051337,815.1003746186199 954.0255142563099,870.7053525477362 890.4769680516055,934.2538987524406 C 826.9284218469011,870.7053525477362 842.8155583980772,815.1003746186199 890.4769680516055,775.3825332406795 Z" fill="url(#leaf5)" opacity="0.33" transform="rotate(265.5 890.5 854.8)"/>
    <path d="M 861.9325490854491,912.314061972862 C 894.8842791408766,939.7738370190516 905.8681891593525,978.2175220837171 861.9325490854491,1022.1531621576205 C 817.9969090115457,978.2175220837171 828.9808190300215,939.7738370190516 861.9325490854491,912.314061972862 Z" fill="url(#leaf6)" opacity="0.27" transform="rotate(99.0 861.9 967.2)"/>
    <path d="M 338.4648330747978,131.32057899922407 C 372.16119386730924,159.4008796596503 383.39331413147977,198.71330058424695 338.4648330747978,243.64178164092888 C 293.53635201811585,198.71330058424695 304.7684722822864,159.4008796596503 338.4648330747978,131.32057899922407 Z" fill="url(#leaf7)" opacity="0.32" transform="rotate(354.4 338.5 187.5)"/>
    <path d="M 1533.5187644489663,339.96416723193886 C 1570.1383411306624,370.48048113335227 1582.3448666912277,413.203320595331 1533.5187644489663,462.0294228375924 C 1484.6926622067049,413.203320595331 1496.8991877672702,370.48048113335227 1533.5187644489663,339.96416723193886 Z" fill="url(#leaf8)" opacity="0.25" transform="rotate(217.1 1533.5 401.0)"/>
    <path d="M 1615.9145186194373,562.5224820916659 C 1648.3512200118091,589.553066585309 1659.1634538092665,627.3958848764096 1615.9145186194373,670.6448200662386 C 1572.6655834296082,627.3958848764096 1583.4778172270655,589.553066585309 1615.9145186194373,562.5224820916659 Z" fill="url(#leaf9)" opacity="0.28" transform="rotate(348.1 1615.9 616.6)"/>
    <path d="M 1326.3195050036568,569.5152495620647 C 1365.8765062010596,602.479417226567 1379.0621732668606,648.6292519568702 1326.3195050036568,701.371920220074 C 1273.576836740453,648.6292519568702 1286.762503806254,602.479417226567 1326.3195050036568,569.5152495620647 Z" fill="url(#leaf10)" opacity="0.40" transform="rotate(330.5 1326.3 635.4)"/>
    <path d="M 425.12042965306455,187.36897319442485 C 451.53221308182685,209.3787927183934 460.3361408914143,240.19254005194944 425.12042965306455,275.4082512902992 C 389.9047184147148,240.19254005194944 398.70864622430224,209.3787927183934 425.12042965306455,187.36897319442485 Z" fill="url(#leaf11)" opacity="0.33" transform="rotate(307.1 425.1 231.4)"/>
    <path d="M 542.5100087594101,45.8961550243014 C 571.8215009999655,70.32239855809752 581.5919984134839,104.51913950541208 542.5100087594101,143.60112915948588 C 503.42801910533626,104.51913950541208 513.1985165188547,70.32239855809752 542.5100087594101,45.8961550243014 Z" fill="url(#leaf12)" opacity="0.26" transform="rotate(10.3 542.5 94.7)"/>
    <path d="M 166.98675008133358,585.5829957588548 C 222.5730507890916,631.90491301532 241.10181769167764,696.7555971743709 166.98675008133358,770.870664784715 C 92.87168247098954,696.7555971743709 111.40044937357555,631.90491301532 166.98675008133358,585.5829957588548 Z" fill="url(#leaf13)" opacity="0.33" transform="rotate(148.7 167.0 678.2)"/>
    <path d="M 1349.0266675152075,576.8119326275038 C 1388.2805161084575,609.5234731218787 1401.3651323062074,655.3196298140036 1349.0266675152075,707.6580946050036 C 1296.6882027242075,655.3196298140036 1309.7728189219574,609.5234731218787 1349.0266675152075,576.8119326275038 Z" fill="url(#leaf14)" opacity="0.40" transform="rotate(51.3 1349.0 642.2)"/>
    <path d="M 1248.4767523559267,168.91588207325097 C 1285.9771241146414,200.1661918721799 1298.477248034213,243.91662559068038 1248.4767523559267,293.91712126896664 C 1198.4762566776403,243.91662559068038 1210.976380597212,200.1661918721799 1248.4767523559267,168.91588207325097 Z" fill="url(#leaf15)" opacity="0.32" transform="rotate(52.1 1248.5 231.4)"/>
    <path d="M 1077.2367908314036,847.8996251360859 C 1130.5484920684494,892.3260428336241 1148.3190591474647,954.5230276101777 1077.2367908314036,1025.6052959262388 C 1006.1545225153425,954.5230276101777 1023.9250895943577,892.3260428336241 1077.2367908314036,847.8996251360859 Z" fill="url(#leaf16)" opacity="0.33" transform="rotate(205.7 1077.2 936.8)"/>
    <path d="M 1735.53159937604,654.1826419727633 C 1762.8274927490586,676.9292197836121 1771.926123873398,708.7744287188003 1735.53159937604,745.1689532161583 C 1699.1370748786821,708.7744287188003 1708.2357060030215,676.9292197836121 1735.53159937604,654.1826419727633 Z" fill="url(#leaf17)" opacity="0.30" transform="rotate(15.9 1735.5 699.7)"/>
    <path d="M 477.49065373022097,717.7893466088957 C 528.7051765574314,760.4681156315711 545.7766841665016,820.2183922633167 477.49065373022097,888.5044226995973 C 409.20462329394036,820.2183922633167 426.27613090301054,760.4681156315711 477.49065373022097,717.7893466088957 Z" fill="url(#leaf18)" opacity="0.33" transform="rotate(200.9 477.5 803.1)"/>
    <path d="M 906.7805097802126,-5.299268068630255 C 966.4269284459851,44.40608081951356 986.3090680012427,113.9935692629149 906.7805097802126,193.522127483945 C 827.2519515591824,113.9935692629149 847.13409111444,44.40608081951356 906.7805097802126,-5.299268068630255 Z" fill="url(#leaf19)" opacity="0.24" transform="rotate(20.5 906.8 94.1)"/>
    <path d="M 89.68119865323986,362.7573746210483 C 123.5760232742947,391.00306180526064 134.87429814797963,430.54702386315796 89.68119865323986,475.74012335789774 C 44.48809915850008,430.54702386315796 55.78637403218503,391.00306180526064 89.68119865323986,362.7573746210483 Z" fill="url(#leaf0)" opacity="0.34" transform="rotate(50.6 89.7 419.2)"/>
    <path d="M 896.5646190080126,314.28971598949 C 948.0124914646052,357.16294303665046 965.1617822834693,417.18546090267506 896.5646190080126,485.78262417813175 C 827.967455732556,417.18546090267506 845.1167465514201,357.16294303665046 896.5646190080126,314.28971598949 Z" fill="url(#leaf1)" opacity="0.35" transform="rotate(123.4 896.6 400.0)"/>
    <path d="M 130.79001962242592,630.2254247880431 C 179.92803686292112,671.1737724884558 196.30737594308619,728.5014592690336 130.79001962242592,794.0188155896939 C 65.27266330176566,728.5014592690336 81.65200238193071,671.1737724884558 130.79001962242592,630.2254247880431 Z" fill="url(#leaf2)" opacity="0.35" transform="rotate(52.8 130.8 712.1)"/>
    <path d="M 782.3707710437009,304.9162639507918 C 811.3089425423634,329.03140686634396 820.9549997085843,362.792606948117 782.3707710437009,401.3768356130004 C 743.7865423788174,362.792606948117 753.4325995450383,329.03140686634396 782.3707710437009,304.9162639507918 Z" fill="url(#leaf3)" opacity="0.39" transform="rotate(67.3 782.4 353.1)"/>
    <path d="M 1801.6041499983105,413.7965961360868 C 1827.0875517177005,435.0327642355785 1835.5820189574972,464.76339957486687 1801.6041499983105,498.7412685340536 C 1767.6262810391238,464.76339957486687 1776.1207482789205,435.0327642355785 1801.6041499983105,413.7965961360868 Z" fill="url(#leaf4)" opacity="0.31" transform="rotate(201.2 1801.6 456.3)"/>
    <path d="M 1010.7785214924468,373.87653576844093 C 1044.5817577028988,402.0458992771509 1055.8495031063826,441.4830081893449 1010.7785214924468,486.55398980328084 C 965.7075398785108,441.4830081893449 976.9752852819948,402.0458992771509 1010.7785214924468,373.87653576844093 Z" fill="url(#leaf5)" opacity="0.35" transform="rotate(157.3 1010.8 430.2)"/>
    <path d="M 469.44149725249326,476.0720905864601 C 512.5778996435663,512.0190925790209 526.9567004405907,562.3448953686062 469.44149725249326,619.8600985567035 C 411.92629406439585,562.3448953686062 426.30509486142023,512.0190925790209 469.44149725249326,476.0720905864601 Z" fill="url(#leaf6)" opacity="0.26" transform="rotate(204.5 469.4 548.0)"/>
    <path d="M 1552.6463394822688,782.4472739116411 C 1610.8273213066934,830.931425431995 1630.220981914835,898.8092375604904 1552.6463394822688,976.3838799930566 C 1475.0716970497026,898.8092375604904 1494.4653576578442,830.931425431995 1552.6463394822688,782.4472739116411 Z" fill="url(#leaf7)" opacity="0.28" transform="rotate(200.6 1552.6 879.4)"/>
    <path d="M 762.4243123014598,106.04351880891706 C 812.4925327259871,147.7670358293564 829.1819395341628,206.17995965797147 762.4243123014598,272.9375868906744 C 695.6666850687569,206.17995965797147 712.3560918769326,147.7670358293564 762.4243123014598,106.04351880891706 Z" fill="url(#leaf8)" opacity="0.31" transform="rotate(303.1 762.4 189.5)"/>
    <path d="M 87.94794478792684,937.1689890809477 C 115.47790648584322,960.1106238292114 124.65456038514868,992.2289124767805 87.94794478792684,1028.9355280740021 C 51.241329190705,992.2289124767805 60.417983090010466,960.1106238292114 87.94794478792684,937.1689890809477 Z" fill="url(#leaf9)" opacity="0.30" transform="rotate(246.7 87.9 983.1)"/>
    <path d="M 123.25753201588614,172.27314705621632 C 170.1409493775894,211.34266152430237 185.76875516482386,266.03998177962285 123.25753201588614,328.55120492856054 C 60.74630886694844,266.03998177962285 76.37411465418288,211.34266152430237 123.25753201588614,172.27314705621632 Z" fill="url(#leaf10)" opacity="0.23" transform="rotate(40.5 123.3 250.4)"/>
    <path d="M 1692.0812349744633,621.8395753002003 C 1732.2019100158207,655.273471167998 1745.5754683629398,702.0809253829149 1692.0812349744633,755.5751587713912 C 1638.5870015859869,702.0809253829149 1651.960559933106,655.273471167998 1692.0812349744633,621.8395753002003 Z" fill="url(#leaf11)" opacity="0.36" transform="rotate(231.7 1692.1 688.7)"/>
    <path d="M 1364.761129264404,24.405162967136647 C 1423.8844981171226,73.67463701106887 1443.5922877346954,142.651900672574 1364.761129264404,221.48305914286553 C 1285.9299707941125,142.651900672574 1305.6377604116853,73.67463701106887 1364.761129264404,24.405162967136647 Z" fill="url(#leaf12)" opacity="0.40" transform="rotate(229.6 1364.8 122.9)"/>
    <path d="M 1727.2726068506518,535.1345537322746 C 1783.677879193031,582.138947350924 1802.4796366404908,647.9450984170333 1727.2726068506518,723.1521282068724 C 1652.0655770608128,647.9450984170333 1670.8673345082725,582.138947350924 1727.2726068506518,535.1345537322746 Z" fill="url(#leaf13)" opacity="0.36" transform="rotate(93.9 1727.3 629.1)"/>
    <path d="M 1021.723910710588,856.4542810674935 C 1074.9598074146006,900.8175283208375 1092.7051063159383,962.9260744755189 1021.723910710588,1033.9072700808692 C 950.7427151052378,962.9260744755189 968.4880140065753,900.8175283208375 1021.723910710588,856.4542810674935 Z" fill="url(#leaf14)" opacity="0.37" transform="rotate(288.4 1021.7 945.2)"/>
    <path d="M 1293.6812982103543,822.8954643833267 C 1322.2764692686067,846.724773598537 1331.8081929546909,880.0858064998315 1293.6812982103543,918.2127012441681 C 1255.5544034660177,880.0858064998315 1265.0861271521019,846.724773598537 1293.6812982103543,822.8954643833267 Z" fill="url(#leaf15)" opacity="0.39" transform="rotate(97.4 1293.7 870.6)"/>
    <path d="M 1315.137287689694,796.2376086405717 C 1367.9688939263438,840.2639471711133 1385.5794293385604,901.9008211138715 1315.137287689694,972.342962762738 C 1244.6951460408275,901.9008211138715 1262.3056814530441,840.2639471711133 1315.137287689694,796.2376086405717 Z" fill="url(#leaf16)" opacity="0.29" transform="rotate(283.9 1315.1 884.3)"/>
    <path d="M 1195.4502356016112,306.56339271915147 C 1224.6426261294353,330.89038482567145 1234.3734229720433,364.9481737747995 1195.4502356016112,403.8713611452315 C 1156.5270482311792,364.9481737747995 1166.2578450737872,330.89038482567145 1195.4502356016112,306.56339271915147 Z" fill="url(#leaf17)" opacity="0.33" transform="rotate(176.4 1195.5 355.2)"/>
    <path d="M 592.4142169877751,743.3747457580245 C 627.2898074017712,772.4377377696878 638.9150042064365,813.1259265860166 592.4142169877751,859.6267138046779 C 545.9134297691138,813.1259265860166 557.5386265737791,772.4377377696878 592.4142169877751,743.3747457580245 Z" fill="url(#leaf18)" opacity="0.25" transform="rotate(199.5 592.4 801.5)"/>
    <path d="M 549.2847349405488,276.99214308186686 C 585.8631677418186,307.47417041625846 598.0559786755753,350.1490086844066 549.2847349405488,398.92025241943315 C 500.51349120552226,350.1490086844066 512.7063021392789,307.47417041625846 549.2847349405488,276.99214308186686 Z" fill="url(#leaf19)" opacity="0.36" transform="rotate(266.7 549.3 338.0)"/>
    <path d="M 532.9317700920865,609.57633876615 C 589.8993741586972,657.0493421549922 608.8885755142342,723.5115468993714 532.9317700920865,799.468352321519 C 456.97496466993886,723.5115468993714 475.9641660254758,657.0493421549922 532.9317700920865,609.57633876615 Z" fill="url(#leaf0)" opacity="0.27" transform="rotate(86.9 532.9 704.5)"/>
    <path d="M 894.1493942052132,681.8950627374875 C 922.344871478392,705.3912937984697 931.7433639027848,738.2860172838449 894.1493942052132,775.8799869814166 C 856.5554245076415,738.2860172838449 865.9539169320344,705.3912937984697 894.1493942052132,681.8950627374875 Z" fill="url(#leaf1)" opacity="0.40" transform="rotate(120.9 894.1 728.9)"/>
    <path d="M 274.6088552158511,226.08350986955736 C 305.4658051448942,251.7976348104266 315.75145512124186,287.7974097276435 274.6088552158511,328.94000963303426 C 233.46625531046035,287.7974097276435 243.75190528680804,251.7976348104266 274.6088552158511,226.08350986955736 Z" fill="url(#leaf2)" opacity="0.26" transform="rotate(338.0 274.6 277.5)"/>
    <path d="M 109.53456282069098,726.4079284281678 C 142.9410724864074,754.2466864829314 154.07657570831287,793.2209477596006 109.53456282069098,837.7629606472225 C 64.99254993306907,793.2209477596006 76.12805315497455,754.2466864829314 109.53456282069098,726.4079284281678 Z" fill="url(#leaf3)" opacity="0.24" transform="rotate(85.8 109.5 782.1)"/>
    <path d="M 1240.4601622483176,624.4165959132597 C 1294.1764771105097,669.1801916317531 1312.0819153979069,731.8492256376438 1240.4601622483176,803.4709787872332 C 1168.8384090987283,731.8492256376438 1186.7438473861255,669.1801916317531 1240.4601622483176,624.4165959132597 Z" fill="url(#leaf4)" opacity="0.39" transform="rotate(95.4 1240.5 713.9)"/>
    <path d="M 378.875790167262,317.1383357907498 C 410.53597080244754,343.5218196534044 421.08936434750944,380.4586970611209 378.875790167262,422.6722712413683 C 336.6622159870145,380.4586970611209 347.2156095320764,343.5218196534044 378.875790167262,317.1383357907498 Z" fill="url(#leaf5)" opacity="0.38" transform="rotate(67.5 378.9 369.9)"/>
    <path d="M 951.9459431338125,638.7178724605617 C 1002.4328980336606,680.7903348771018 1019.2618830002767,739.691782260258 951.9459431338125,807.0077221267222 C 884.6300032673483,739.691782260258 901.4589882339644,680.7903348771018 951.9459431338125,638.7178724605617 Z" fill="url(#leaf6)" opacity="0.24" transform="rotate(124.9 951.9 722.9)"/>
    <path d="M 71.3438210186463,886.9538275968497 C 102.49069736859566,912.9095578884742 112.87298948524545,949.2475802967484 71.3438210186463,990.7767487633477 C 29.814652552047143,949.2475802967484 40.19694466869693,912.9095578884742 71.3438210186463,886.9538275968497 Z" fill="url(#leaf7)" opacity="0.26" transform="rotate(228.2 71.3 938.9)"/>
    <path d="M 1171.0086784274106,831.134334433305 C 1221.542747926273,873.2460590156903 1238.387437759227,932.2024734310297 1171.0086784274106,999.5812327628462 C 1103.6299190955942,932.2024734310297 1120.4746089285482,873.2460590156903 1171.0086784274106,831.134334433305 Z" fill="url(#leaf8)" opacity="0.25" transform="rotate(269.7 1171.0 915.4)"/>
    <path d="M 58.22280087764513,51.207401286436834 C 99.15189814065616,85.31498233894604 112.79493056165984,133.0655958124589 58.22280087764513,187.63772549647362 C 3.6506711936304086,133.0655958124589 17.29370361463409,85.31498233894604 58.22280087764513,51.207401286436834 Z" fill="url(#leaf9)" opacity="0.24" transform="rotate(95.3 58.2 119.4)"/>
    <path d="M 1715.447250019687,501.72658219976495 C 1774.857181149395,551.2348581411883 1794.6604915259645,620.546444459181 1715.447250019687,699.7596859654583 C 1636.2340085134097,620.546444459181 1656.0373188899791,551.2348581411883 1715.447250019687,501.72658219976495 Z" fill="url(#leaf10)" opacity="0.35" transform="rotate(113.4 1715.4 600.7)"/>
    <path d="M 544.6274967857269,87.18894093545234 C 579.3378191175655,116.11420954531788 590.9079265615118,156.60958559912964 544.6274967857269,202.8900153749145 C 498.347067009942,156.60958559912964 509.9171744538882,116.11420954531788 544.6274967857269,87.18894093545234 Z" fill="url(#leaf11)" opacity="0.24" transform="rotate(63.3 544.6 145.0)"/>
    <path d="M 1325.4682591351855,733.6358203697354 C 1373.1315519244536,773.3552310274588 1389.019316187543,828.9624059482716 1325.4682591351855,892.513463000629 C 1261.917202082828,828.9624059482716 1277.8049663459174,773.3552310274588 1325.4682591351855,733.6358203697354 Z" fill="url(#leaf12)" opacity="0.22" transform="rotate(97.9 1325.5 813.1)"/>
    <path d="M 1501.3176284022593,214.44937027974672 C 1555.008596755198,259.1918439071955 1572.9055862061773,321.8313069856238 1501.3176284022593,393.4192647895419 C 1429.7296705983413,321.8313069856238 1447.6266600493207,259.1918439071955 1501.3176284022593,214.44937027974672 Z" fill="url(#leaf13)" opacity="0.36" transform="rotate(336.3 1501.3 303.9)"/>
    <path d="M 1087.9047869255,281.12534558793055 C 1144.569854552705,328.3462352772681 1163.4582104284402,394.4554808423407 1087.9047869255,470.00890434528077 C 1012.35136342256,394.4554808423407 1031.239719298295,328.3462352772681 1087.9047869255,281.12534558793055 Z" fill="url(#leaf14)" opacity="0.26" transform="rotate(196.0 1087.9 375.6)"/>
    <path d="M 1752.255659101991,790.2622312952989 C 1787.1602775999045,819.3494133768934 1798.7951504325422,860.0714682911258 1752.255659101991,906.6109596216771 C 1705.7161677714396,860.0714682911258 1717.3510406040773,819.3494133768934 1752.255659101991,790.2622312952989 Z" fill="url(#leaf15)" opacity="0.39" transform="rotate(310.5 1752.3 848.4)"/>
    <path d="M 1225.6575598417544,255.1686712685178 C 1261.0433052980343,284.6567924820844 1272.838553783461,325.94016218107777 1225.6575598417544,373.1211561227844 C 1178.4765659000477,325.94016218107777 1190.2718143854745,284.6567924820844 1225.6575598417544,255.1686712685178 Z" fill="url(#leaf16)" opacity="0.34" transform="rotate(208.2 1225.7 314.1)"/>
    <path d="M 893.9208102754401,740.6832981768265 C 950.4815836615294,787.8172759985675 969.3351747902259,853.8048449490051 893.9208102754401,929.2192094637909 C 818.5064457606543,853.8048449490051 837.3600368893508,787.8172759985675 893.9208102754401,740.6832981768265 Z" fill="url(#leaf17)" opacity="0.35" transform="rotate(50.0 893.9 835.0)"/>
    <path d="M 1659.0625248046542,57.95769926088741 C 1704.2855362919354,95.64354216695494 1719.3598734543623,148.4037222354495 1659.0625248046542,208.70107088515755 C 1598.7651761549462,148.4037222354495 1613.839513317373,95.64354216695494 1659.0625248046542,57.95769926088741 Z" fill="url(#leaf18)" opacity="0.38" transform="rotate(50.9 1659.1 133.3)"/>
    <path d="M 1103.255725033742,781.4472593694867 C 1141.5997372606103,813.4006028918768 1154.3810746695663,858.135283823223 1103.255725033742,909.2606334590472 C 1052.1303753979178,858.135283823223 1064.9117128068738,813.4006028918768 1103.255725033742,781.4472593694867 Z" fill="url(#leaf19)" opacity="0.22" transform="rotate(2.9 1103.3 845.4)"/>
    <path d="M 236.75167155722477,913.1603861642946 C 276.4036033194873,946.2036626328467 289.62091390690813,992.4642496888196 236.75167155722477,1045.333492038503 C 183.88242920754143,992.4642496888196 197.09973979496226,946.2036626328467 236.75167155722477,913.1603861642946 Z" fill="url(#leaf0)" opacity="0.36" transform="rotate(247.1 236.8 979.2)"/>
    <path d="M 1531.129428515302,403.1741552708959 C 1559.0051532577927,426.40392588963823 1568.2970615052898,458.9256047558776 1531.129428515302,496.0932377458654 C 1493.961795525314,458.9256047558776 1503.2537037728111,426.40392588963823 1531.129428515302,403.1741552708959 Z" fill="url(#leaf1)" opacity="0.34" transform="rotate(72.3 1531.1 449.6)"/>
    <path d="M 1301.1477386757208,107.4272386528129 C 1356.2381242793858,153.33589332253382 1374.6015861472742,217.60800986014308 1301.1477386757208,291.06185733169656 C 1227.6938912041674,217.60800986014308 1246.0573530720558,153.33589332253382 1301.1477386757208,107.4272386528129 Z" fill="url(#leaf2)" opacity="0.27" transform="rotate(200.1 1301.1 199.2)"/>
    <path d="M 231.27276386846188,369.9497058658973 C 268.604221725511,401.0592540801049 281.0480410111941,444.61262157999556 231.27276386846188,494.38789872272775 C 181.4974867257297,444.61262157999556 193.94130601141273,401.0592540801049 231.27276386846188,369.9497058658973 Z" fill="url(#leaf3)" opacity="0.28" transform="rotate(6.9 231.3 432.2)"/>
    <path d="M 669.5792880043294,12.341513987098864 C 697.1233684766039,35.294914380660956 706.3047286340288,67.42967493164788 669.5792880043294,104.15511556134722 C 632.85384737463,67.42967493164788 642.035207532055,35.294914380660956 669.5792880043294,12.341513987098864 Z" fill="url(#leaf4)" opacity="0.30" transform="rotate(221.2 669.6 58.2)"/>
    <path d="M 66.1120638414278,486.776142519665 C 104.25665589684019,518.563302565842 116.97151991531099,563.0653266304898 66.1120638414278,613.924782704373 C 15.252607767544603,563.0653266304898 27.96747178601541,518.563302565842 66.1120638414278,486.776142519665 Z" fill="url(#leaf5)" opacity="0.25" transform="rotate(215.7 66.1 550.4)"/>
    <path d="M 1170.955038442817,723.8444420302991 C 1209.3271299801272,755.8211849780574 1222.1178271592305,800.5886251049191 1170.955038442817,851.7514138213324 C 1119.7922497264037,800.5886251049191 1132.582946905507,755.8211849780574 1170.955038442817,723.8444420302991 Z" fill="url(#leaf6)" opacity="0.23" transform="rotate(337.5 1171.0 787.8)"/>
    <path d="M 76.74960344477407,837.0413138949427 C 121.38561639168717,874.2379913507036 136.26428737399155,926.3133397887689 76.74960344477407,985.8280237179863 C 17.23491951555659,926.3133397887689 32.11359049786096,874.2379913507036 76.74960344477407,837.0413138949427 Z" fill="url(#leaf7)" opacity="0.37" transform="rotate(123.0 76.7 911.4)"/>
    <path d="M 690.8753877505857,483.18215780310663 C 738.8103742845492,523.1279799147429 754.7887031292038,579.0521308710337 690.8753877505857,642.9654462496518 C 626.9620723719676,579.0521308710337 642.9404012166221,523.1279799147429 690.8753877505857,483.18215780310663 Z" fill="url(#leaf8)" opacity="0.37" transform="rotate(129.4 690.9 563.1)"/>
    <path d="M 1755.2890039278645,489.1167259279456 C 1787.0261202929228,515.5643228988274 1797.6051590812756,552.590958658062 1755.2890039278645,594.9071138114731 C 1712.9728487744535,552.590958658062 1723.5518875628063,515.5643228988274 1755.2890039278645,489.1167259279456 Z" fill="url(#leaf9)" opacity="0.37" transform="rotate(180.9 1755.3 542.0)"/>
    <path d="M 766.0020168409134,558.0485031923032 C 800.1216967141875,586.481569753365 811.4949233386121,626.2878629388513 766.0020168409134,671.78076943655 C 720.5091103432146,626.2878629388513 731.8823369676393,586.481569753365 766.0020168409134,558.0485031923032 Z" fill="url(#leaf10)" opacity="0.38" transform="rotate(213.2 766.0 614.9)"/>
    <path d="M 1105.420175814313,150.6237127450588 C 1161.520817625996,197.3742475881279 1180.2210315632237,262.8249963684246 1105.420175814313,337.6258521173351 C 1030.6193200654025,262.8249963684246 1049.3195340026302,197.3742475881279 1105.420175814313,150.6237127450588 Z" fill="url(#leaf11)" opacity="0.36" transform="rotate(352.9 1105.4 244.1)"/>
    <path d="M 828.3164420179334,171.94547946360353 C 864.354832755113,201.97747174458652 876.3676296675062,244.02226093796276 828.3164420179334,292.07344858753555 C 780.2652543683605,244.02226093796276 792.2780512807537,201.97747174458652 828.3164420179334,171.94547946360353 Z" fill="url(#leaf12)" opacity="0.29" transform="rotate(66.3 828.3 232.0)"/>
    <path d="M 1022.7257967553558,548.8339978171085 C 1051.1173288197563,572.4936078707757 1060.5811728412232,605.6170619459095 1022.7257967553558,643.472438031777 C 984.8704206694885,605.6170619459095 994.3342646909553,572.4936078707757 1022.7257967553558,548.8339978171085 Z" fill="url(#leaf13)" opacity="0.20" transform="rotate(41.2 1022.7 596.2)"/>
  </g>

  <!-- Central star shape -->
  <polygon points="960.0,218.3 1054.5,409.9 1265.9,440.6 1113.0,589.7 1149.1,800.2 960.0,700.8 770.9,800.2 807.0,589.7 654.1,440.6 865.5,409.9" 
           fill="#FF6B6B" 
           transform="rotate(129.0 960.0 540.0)"/>
</svg>