<?xml version="1.0" encoding="UTF-8"?>
<svg xmlns="http://www.w3.org/2000/svg" viewBox="0 0 1920 1080" width="1920" height="1080">
  <defs>
    <linearGradient id="bgGrad" x1="0%" y1="0%" x2="100%" y2="100%">
      <stop offset="0%" stop-color="#DC143C"/>
      <stop offset="100%" stop-color="#45B7D1"/>
    </linearGradient>
    <clipPath id="complexClip"><polygon points="1330.3,540.0 1513.3,606.2 1484.6,671.4 1351.8,700.1 1200.2,690.1 1163.9,738.6 1118.0,813.5 1014.4,831.3 915.3,779.0 809.0,801.5 708.2,785.3 652.1,732.4 532.8,714.6 499.2,655.4 612.6,581.5 529.0,540.0 411.2,474.4 481.9,420.3 579.1,384.3 654.0,348.8 692.8,279.6 851.9,352.8 905.8,250.1 1012.9,256.7 1134.7,237.6 1216.7,289.9 1259.6,352.9 1269.9,413.3 1293.5,456.5 1303.6,498.9"/></clipPath>
    <radialGradient id="leaf0" cx="50%" cy="50%" r="70%">
      <stop offset="0%" stop-color="#FF69B4"/>
      <stop offset="50%" stop-color="#4ECDC4"/>
      <stop offset="100%" stop-color="#45B7D1"/>
    </radialGradient>
    <radialGradient id="leaf1" cx="50%" cy="50%" r="70%">
      <stop offset="0%" stop-color="#DC143C"/>
      <stop offset="50%" stop-color="#4ECDC4"/>
      <stop offset="100%" stop-color="#00CED1"/>
    </radialGradient>
    <radialGradient id="leaf2" cx="50%" cy="50%" r="70%">
      <stop offset="0%" stop-color="#FFD700"/>
      <stop offset="50%" stop-color="#9370DB"/>
      <stop offset="100%" stop-color="#4ECDC4"/>
    </radialGradient>
    <radialGradient id="leaf3" cx="50%" cy="50%" r="70%">
      <stop offset="0%" stop-color="#7B68EE"/>
      <stop offset="50%" stop-color="#FF6B6B"/>
      <stop offset="100%" stop-color="#FF4500"/>
    </radialGradient>
    <radialGradient id="leaf4" cx="50%" cy="50%" r="70%">
      <stop offset="0%" stop-color="#00CED1"/>
      <stop offset="50%" stop-color="#4ECDC4"/>
      <stop offset="100%" stop-color="#FF69B4"/>
    </radialGradient>
    <radialGradient id="leaf5" cx="50%" cy="50%" r="70%">
      <stop offset="0%" stop-color="#00FA9A"/>
      <stop offset="50%" stop-color="#FFD700"/>
      <stop offset="100%" stop-color="#DC143C"/>
    </radialGradient>
    <radialGradient id="leaf6" cx="50%" cy="50%" r="70%">
      <stop offset="0%" stop-color="#7B68EE"/>
      <stop offset="50%" stop-color="#45B7D1"/>
      <stop offset="100%" stop-color="#00FA9A"/>
    </radialGradient>
    <radialGradient id="leaf7" cx="50%" cy="50%" r="70%">
      <stop offset="0%" stop-color="#00FA9A"/>
      <stop offset="50%" stop-color="#DC143C"/>
      <stop offset="100%" stop-color="#00CED1"/>
    </radialGradient>
    <radialGradient id="leaf8" cx="50%" cy="50%" r="70%">
      <stop offset="0%" stop-color="#FF4500"/>
      <stop offset="50%" stop-color="#9370DB"/>
      <stop offset="100%" stop-color="#00CED1"/>
    </radialGradient>
    <radialGradient id="leaf9" cx="50%" cy="50%" r="70%">
      <stop offset="0%" stop-color="#FFE66D"/>
      <stop offset="50%" stop-color="#7B68EE"/>
      <stop offset="100%" stop-color="#DC143C"/>
    </radialGradient>
    <radialGradient id="leaf10" cx="50%" cy="50%" r="70%">
      <stop offset="0%" stop-color="#00CED1"/>
      <stop offset="50%" stop-color="#FFE66D"/>
      <stop offset="100%" stop-color="#9370DB"/>
    </radialGradient>
    <radialGradient id="leaf11" cx="50%" cy="50%" r="70%">
      <stop offset="0%" stop-color="#FFE66D"/>
      <stop offset="50%" stop-color="#00CED1"/>
      <stop offset="100%" stop-color="#FF4500"/>
    </radialGradient>
    <radialGradient id="leaf12" cx="50%" cy="50%" r="70%">
      <stop offset="0%" stop-color="#DC143C"/>
      <stop offset="50%" stop-color="#FF4500"/>
      <stop offset="100%" stop-color="#00FA9A"/>
    </radialGradient>
    <radialGradient id="leaf13" cx="50%" cy="50%" r="70%">
      <stop offset="0%" stop-color="#FF69B4"/>
      <stop offset="50%" stop-color="#7B68EE"/>
      <stop offset="100%" stop-color="#00CED1"/>
    </radialGradient>
    <radialGradient id="leaf14" cx="50%" cy="50%" r="70%">
      <stop offset="0%" stop-color="#FF69B4"/>
      <stop offset="50%" stop-color="#00FA9A"/>
      <stop offset="100%" stop-color="#9370DB"/>
    </radialGradient>
    <radialGradient id="leaf15" cx="50%" cy="50%" r="70%">
      <stop offset="0%" stop-color="#FF69B4"/>
      <stop offset="50%" stop-color="#FFE66D"/>
      <stop offset="100%" stop-color="#FF1493"/>
    </radialGradient>
    <radialGradient id="leaf16" cx="50%" cy="50%" r="70%">
      <stop offset="0%" stop-color="#45B7D1"/>
      <stop offset="50%" stop-color="#FF69B4"/>
      <stop offset="100%" stop-color="#FF6B6B"/>
    </radialGradient>
    <radialGradient id="leaf17" cx="50%" cy="50%" r="70%">
      <stop offset="0%" stop-color="#DC143C"/>
      <stop offset="50%" stop-color="#FFD700"/>
      <stop offset="100%" stop-color="#00CED1"/>
    </radialGradient>
    <radialGradient id="leaf18" cx="50%" cy="50%" r="70%">
      <stop offset="0%" stop-color="#FF69B4"/>
      <stop offset="50%" stop-color="#FF1493"/>
      <stop offset="100%" stop-color="#4ECDC4"/>
    </radialGradient>
    <radialGradient id="leaf19" cx="50%" cy="50%" r="70%">
      <stop offset="0%" stop-color="#32CD32"/>
      <stop offset="50%" stop-color="#00CED1"/>
      <stop offset="100%" stop-color="#45B7D1"/>
    </radialGradient>
  </defs>

  <!-- Background -->
  <rect width="1920" height="1080" fill="url(#bgGrad)"/>
  
  <!-- Leaves with clip-path -->
  <g clip-path="url(#complexClip)">
    <path d="M 1134.1791020320602,541.5377830429942 C 1162.2331822988847,564.9161832653479 1171.584542387826,597.6459435766432 1134.1791020320602,635.0513839324091 C 1096.7736616762943,597.6459435766432 1106.1250217652357,564.9161832653479 1134.1791020320602,541.5377830429942 Z" fill="url(#leaf0)" opacity="0.27" transform="rotate(279.0 1134.2 588.3)"/>
    <path d="M 1573.6486402174355,26.77609751276694 C 1619.249863039667,64.7771165312931 1634.4502706470773,117.97854315722974 1573.6486402174355,178.7801735868716 C 1512.8470097877937,117.97854315722974 1528.047417395204,64.7771165312931 1573.6486402174355,26.77609751276694 Z" fill="url(#leaf1)" opacity="0.33" transform="rotate(244.5 1573.6 102.8)"/>
    <path d="M 83.62985258563697,625.9913952154444 C 139.41703358527178,672.4807127151402 158.01276058515003,737.565757214714 83.62985258563697,811.9486652142272 C 9.246944586123888,737.565757214714 27.84267158600216,672.4807127151402 83.62985258563697,625.9913952154444 Z" fill="url(#leaf2)" opacity="0.24" transform="rotate(12.5 83.6 719.0)"/>
    <path d="M 764.5499645762081,926.6061847659297 C 815.4838798496855,969.0511141604942 832.4618516075113,1028.4740153128846 764.5499645762081,1096.3859023441878 C 696.638077544905,1028.4740153128846 713.6160493027307,969.0511141604942 764.5499645762081,926.6061847659297 Z" fill="url(#leaf3)" opacity="0.34" transform="rotate(252.1 764.5 1011.5)"/>
    <path d="M 896.1883259892679,337.27521065215495 C 932.9885974544878,367.94210353983823 945.2553546095612,410.8757535825948 896.1883259892679,459.94278220288805 C 847.1212973689746,410.8757535825948 859.388054524048,367.94210353983823 896.1883259892679,337.27521065215495 Z" fill="url(#leaf4)" opacity="0.21" transform="rotate(155.4 896.2 398.6)"/>
    <path d="M 505.822062049306,602.6817485061466 C 562.1338690572438,649.6082543460948 580.904471393223,715.3053625220222 505.822062049306,790.3877718659393 C 430.7396527053889,715.3053625220222 449.51025504136817,649.6082543460948 505.822062049306,602.6817485061466 Z" fill="url(#leaf5)" opacity="0.31" transform="rotate(192.5 505.8 696.5)"/>
    <path d="M 92.07998749376952,356.8217692106316 C 145.72486712700203,401.5258355716587 163.6064936714129,464.11152847709667 92.07998749376952,535.6380346547401 C 20.553481316126152,464.11152847709667 38.435107860537,401.5258355716587 92.07998749376952,356.8217692106316 Z" fill="url(#leaf6)" opacity="0.33" transform="rotate(101.6 92.1 446.2)"/>
    <path d="M 1834.1265213829176,130.04994460828541 C 1890.4257915885278,176.96600311296055 1909.1922149903978,242.64848501950573 1834.1265213829176,317.7141786269859 C 1759.0608277754375,242.64848501950573 1777.8272511773075,176.96600311296055 1834.1265213829176,130.04994460828541 Z" fill="url(#leaf7)" opacity="0.26" transform="rotate(330.3 1834.1 223.9)"/>
    <path d="M 827.5767669358081,436.6712247214523 C 864.5437698114561,467.47706045115893 876.8661041033388,510.60523047274825 827.5767669358081,559.8945676402789 C 778.2874297682774,510.60523047274825 790.6097640601602,467.47706045115893 827.5767669358081,436.6712247214523 Z" fill="url(#leaf8)" opacity="0.26" transform="rotate(138.5 827.6 498.3)"/>
    <path d="M 121.69099497349647,597.1519295167652 C 177.9158320083517,644.0059603791447 196.65744435330345,709.6016035864757 121.69099497349647,784.5680529662827 C 46.7245455936895,709.6016035864757 65.46615793864123,644.0059603791447 121.69099497349647,597.1519295167652 Z" fill="url(#leaf9)" opacity="0.34" transform="rotate(250.8 121.7 690.9)"/>
    <path d="M 216.58849516596342,835.2379997697918 C 240.80674279806465,855.4198727965429 248.87949200876506,883.6744950339943 216.58849516596342,915.9654918767959 C 184.2974983231618,883.6744950339943 192.3702475338622,855.4198727965429 216.58849516596342,835.2379997697918 Z" fill="url(#leaf10)" opacity="0.33" transform="rotate(162.7 216.6 875.6)"/>
    <path d="M 650.6265788457745,175.02315314662562 C 680.4932582478028,199.9120526483159 690.4488180484789,234.75651195068227 650.6265788457745,274.57875115338675 C 610.8043396430701,234.75651195068227 620.7598994437461,199.9120526483159 650.6265788457745,175.02315314662562 Z" fill="url(#leaf11)" opacity="0.33" transform="rotate(17.7 650.6 224.8)"/>
    <path d="M 1331.875705853262,-18.082847042064586 C 1378.8834035621624,21.090234382019034 1394.5526361317957,75.9325483757361 1331.875705853262,138.60947865426988 C 1269.1987755747282,75.9325483757361 1284.8680081443615,21.090234382019034 1331.875705853262,-18.082847042064586 Z" fill="url(#leaf12)" opacity="0.38" transform="rotate(47.3 1331.9 60.3)"/>
    <path d="M 591.9800100568797,306.2953748344004 C 621.4257177718733,330.83346459689506 631.2409536768712,365.1867902643876 591.9800100568797,404.4477338843791 C 552.7190664368882,365.1867902643876 562.534302341886,330.83346459689506 591.9800100568797,306.2953748344004 Z" fill="url(#leaf13)" opacity="0.35" transform="rotate(157.4 592.0 355.4)"/>
    <path d="M 1145.2203076681806,363.64129935719154 C 1174.0359843146514,387.6543632292506 1183.641209863475,421.27265265013324 1145.2203076681806,459.6935548454277 C 1106.799405472886,421.27265265013324 1116.4046310217097,387.6543632292506 1145.2203076681806,363.64129935719154 Z" fill="url(#leaf14)" opacity="0.26" transform="rotate(56.0 1145.2 411.7)"/>
    <path d="M 1834.4003825387795,912.5408210452968 C 1874.7382750807046,946.1557314969011 1888.1842392613464,993.2166061291473 1834.4003825387795,1047.0004628517142 C 1780.6165258162125,993.2166061291473 1794.0624899968543,946.1557314969011 1834.4003825387795,912.5408210452968 Z" fill="url(#leaf15)" opacity="0.39" transform="rotate(49.2 1834.4 979.8)"/>
    <path d="M 452.439558665558,439.20093259138434 C 478.0437735739895,460.53777834841054 486.57851187679995,490.4093624082472 452.439558665558,524.5483156194891 C 418.3006054543161,490.4093624082472 426.83534375712657,460.53777834841054 452.439558665558,439.20093259138434 Z" fill="url(#leaf16)" opacity="0.37" transform="rotate(88.1 452.4 481.9)"/>
    <path d="M 1447.4154153729696,829.8992464184311 C 1498.9752918074496,872.865810113831 1516.1619172856097,933.0189992873909 1447.4154153729696,1001.7655012000308 C 1378.6689134603296,933.0189992873909 1395.8555389384896,872.865810113831 1447.4154153729696,829.8992464184311 Z" fill="url(#leaf17)" opacity="0.31" transform="rotate(310.1 1447.4 915.8)"/>
    <path d="M 1858.44548514059,399.65428264794014 C 1898.215958870071,432.7963440891742 1911.4727834465646,479.1952301069019 1858.44548514059,532.2225284128764 C 1805.4181868346157,479.1952301069019 1818.6750114111092,432.7963440891742 1858.44548514059,399.65428264794014 Z" fill="url(#leaf18)" opacity="0.23" transform="rotate(328.6 1858.4 465.9)"/>
    <path d="M 952.5754467812444,250.7251964921148 C 977.5601288463665,271.54576487971656 985.8883562014072,300.69456062235895 952.5754467812444,334.00747004252173 C 919.2625373610816,300.69456062235895 927.5907647161223,271.54576487971656 952.5754467812444,250.7251964921148 Z" fill="url(#leaf19)" opacity="0.23" transform="rotate(254.4 952.6 292.4)"/>
    <path d="M 1781.0554211661379,675.4061591576614 C 1825.4427592563748,712.3956075661921 1840.238538619787,764.1808353381351 1781.0554211661379,823.3639527917843 C 1721.8723037124887,764.1808353381351 1736.668083075901,712.3956075661921 1781.0554211661379,675.4061591576614 Z" fill="url(#leaf0)" opacity="0.30" transform="rotate(315.5 1781.1 749.4)"/>
    <path d="M 532.2007745653357,422.90547266358686 C 557.5464130918573,444.0268381023548 565.9949592673645,473.59674971663003 532.2007745653357,507.3909344186588 C 498.4065898633069,473.59674971663003 506.85513603881407,444.0268381023548 532.2007745653357,422.90547266358686 Z" fill="url(#leaf1)" opacity="0.35" transform="rotate(57.3 532.2 465.1)"/>
    <path d="M 50.86894486359759,323.5204949023491 C 103.64121704852077,367.49738838978516 121.23197444349518,429.0650392721955 50.86894486359759,499.42806885209313 C -19.494084716299994,429.0650392721955 -1.903327321325591,367.49738838978516 50.86894486359759,323.5204949023491 Z" fill="url(#leaf2)" opacity="0.35" transform="rotate(98.1 50.9 411.5)"/>
    <path d="M 1496.6090494107123,534.9345816113521 C 1525.551155816644,559.0530036162951 1535.1985246186211,592.8187944232154 1496.6090494107123,631.4082696311243 C 1458.0195742028034,592.8187944232154 1467.6669430047805,559.0530036162951 1496.6090494107123,534.9345816113521 Z" fill="url(#leaf3)" opacity="0.21" transform="rotate(267.5 1496.6 583.2)"/>
    <path d="M 1582.4963879586423,-2.157704738914518 C 1632.6693073754225,39.65306144173558 1649.3936138476824,98.18813409464572 1582.4963879586423,165.08535998368586 C 1515.5991620696022,98.18813409464572 1532.3234685418622,39.65306144173558 1582.4963879586423,-2.157704738914518 Z" fill="url(#leaf4)" opacity="0.39" transform="rotate(202.7 1582.5 81.5)"/>
    <path d="M 369.66789502802834,164.46894142687648 C 398.6618338552303,188.63055711621146 408.32648013096434,222.45681908128043 369.66789502802834,261.1154041842164 C 331.00930992509234,222.45681908128043 340.67395620082635,188.63055711621146 369.66789502802834,164.46894142687648 Z" fill="url(#leaf5)" opacity="0.39" transform="rotate(258.6 369.7 212.8)"/>
    <path d="M 705.2749163504468,957.109914405777 C 745.2713392019273,990.4402667820108 758.6034801524207,1037.102760108738 705.2749163504468,1090.4313239107119 C 651.9463525484729,1037.102760108738 665.2784934989663,990.4402667820108 705.2749163504468,957.109914405777 Z" fill="url(#leaf6)" opacity="0.21" transform="rotate(261.3 705.3 1023.8)"/>
    <path d="M 1864.1035992943257,39.71110965953712 C 1899.2910717600348,69.0340033809613 1911.0202292486044,110.08605459095514 1864.1035992943257,157.00268454523382 C 1817.186969340047,110.08605459095514 1828.9161268286166,69.0340033809613 1864.1035992943257,39.71110965953712 Z" fill="url(#leaf7)" opacity="0.22" transform="rotate(163.0 1864.1 98.4)"/>
    <path d="M 155.81969723264484,-13.25502053711567 C 208.69471240414208,30.807492105798694 226.31971746130785,92.49500980587881 155.81969723264484,162.9950300345418 C 85.31967700398185,92.49500980587881 102.9446820611476,30.807492105798694 155.81969723264484,-13.25502053711567 Z" fill="url(#leaf8)" opacity="0.39" transform="rotate(5.8 155.8 74.9)"/>
    <path d="M 1643.7661782252871,104.58309116510796 C 1684.5123700102338,138.53825098589684 1698.0944339385494,186.07547473500128 1643.7661782252871,240.40373044826347 C 1589.437922512025,186.07547473500128 1603.0199864403405,138.53825098589684 1643.7661782252871,104.58309116510796 Z" fill="url(#leaf9)" opacity="0.25" transform="rotate(354.9 1643.8 172.5)"/>
    <path d="M 683.0301842896198,159.80624117835276 C 711.0514848299907,183.1573249619952 720.3919183434476,215.84884225909457 683.0301842896198,253.21057631292246 C 645.668450235792,215.84884225909457 655.0088837492489,183.1573249619952 683.0301842896198,159.80624117835276 Z" fill="url(#leaf10)" opacity="0.35" transform="rotate(226.0 683.0 206.5)"/>
    <path d="M 1801.019093060993,827.3875823579592 C 1834.9980827005804,855.7034070576154 1846.3244125804429,895.345561637134 1801.019093060993,940.6508811565839 C 1755.7137735415433,895.345561637134 1767.0401034214058,855.7034070576154 1801.019093060993,827.3875823579592 Z" fill="url(#leaf11)" opacity="0.30" transform="rotate(230.1 1801.0 884.0)"/>
    <path d="M 305.38667447015865,58.66143361787053 C 336.9795835948642,84.98885788845851 347.5105533030994,121.84725186728168 305.38667447015865,163.97113070022246 C 263.2627956372179,121.84725186728168 273.7937653454531,84.98885788845851 305.38667447015865,58.66143361787053 Z" fill="url(#leaf12)" opacity="0.21" transform="rotate(325.8 305.4 111.3)"/>
    <path d="M 999.9225499222385,226.90666861015785 C 1040.1783374597273,260.45315822473185 1053.5969333055568,307.41824368513545 999.9225499222385,361.09262706845385 C 946.2481665389201,307.41824368513545 959.6667623847497,260.45315822473185 999.9225499222385,226.90666861015785 Z" fill="url(#leaf13)" opacity="0.22" transform="rotate(178.5 999.9 294.0)"/>
    <path d="M 1681.5335374836004,270.150982928802 C 1732.6280901886198,312.72977684965156 1749.6596077569595,372.3400883388408 1681.5335374836004,440.46615861220005 C 1613.4074672102413,372.3400883388408 1630.438984778581,312.72977684965156 1681.5335374836004,270.150982928802 Z" fill="url(#leaf14)" opacity="0.31" transform="rotate(346.6 1681.5 355.3)"/>
    <path d="M 974.1250339580391,502.2440293838489 C 1005.6987025501171,528.5554198772471 1016.2232587474764,565.3913665680047 974.1250339580391,607.489591357442 C 932.0268091686019,565.3913665680047 942.5513653659611,528.5554198772471 974.1250339580391,502.2440293838489 Z" fill="url(#leaf15)" opacity="0.33" transform="rotate(6.8 974.1 554.9)"/>
    <path d="M 115.04505891121354,560.0276402514787 C 142.06227360570338,582.5419858302203 151.0680118372,614.0620696404584 115.04505891121354,650.0850225664449 C 79.02210598522709,614.0620696404584 88.0278442167237,582.5419858302203 115.04505891121354,560.0276402514787 Z" fill="url(#leaf16)" opacity="0.31" transform="rotate(147.4 115.0 605.1)"/>
    <path d="M 1466.9542146962406,139.024785412642 C 1513.0034149363241,177.399118946045 1528.3531483496854,231.12318589280923 1466.9542146962406,292.5221195462541 C 1405.5552810427957,231.12318589280923 1420.905014456157,177.399118946045 1466.9542146962406,139.024785412642 Z" fill="url(#leaf17)" opacity="0.38" transform="rotate(84.9 1467.0 215.8)"/>
    <path d="M 1087.072507729563,73.82544219447794 C 1124.9273817783344,105.37117056845395 1137.5456731279246,149.53519029202036 1087.072507729563,200.00835569038196 C 1036.5993423312016,149.53519029202036 1049.2176336807918,105.37117056845395 1087.072507729563,73.82544219447794 Z" fill="url(#leaf18)" opacity="0.34" transform="rotate(198.8 1087.1 136.9)"/>
    <path d="M 1273.2652437514082,863.5337447252587 C 1316.9472805691262,899.935442073357 1331.5079595083655,950.8978183606946 1273.2652437514082,1009.1405341176519 C 1215.022527994451,950.8978183606946 1229.5832069336902,899.935442073357 1273.2652437514082,863.5337447252587 Z" fill="url(#leaf19)" opacity="0.30" transform="rotate(216.8 1273.3 936.3)"/>
    <path d="M 191.68971198711947,45.09669877379184 C 232.0754110027585,78.75144795349104 245.53731067463818,125.86809680506991 191.68971198711947,179.71569549258862 C 137.84211329960075,125.86809680506991 151.30401297148043,78.75144795349104 191.68971198711947,45.09669877379184 Z" fill="url(#leaf0)" opacity="0.25" transform="rotate(50.2 191.7 112.4)"/>
    <path d="M 1779.349329480783,204.2848745737234 C 1835.1884905547147,250.81750880199982 1853.801544246025,315.96319672158677 1779.349329480783,390.41541148682904 C 1704.8971147155407,315.96319672158677 1723.510168406851,250.81750880199982 1779.349329480783,204.2848745737234 Z" fill="url(#leaf1)" opacity="0.33" transform="rotate(245.1 1779.3 297.4)"/>
    <path d="M 387.9141098748634,860.3693218446588 C 440.48931475418334,904.1819925774254 458.01438304729004,965.5197316032986 387.9141098748634,1035.6200047757252 C 317.8138367024368,965.5197316032986 335.3389049955435,904.1819925774254 387.9141098748634,860.3693218446588 Z" fill="url(#leaf2)" opacity="0.24" transform="rotate(297.1 387.9 948.0)"/>
    <path d="M 1847.405359217377,257.88761864852677 C 1889.3731538349127,292.8607808298064 1903.3624187074245,341.8232078835979 1847.405359217377,397.7802673736453 C 1791.4482997273296,341.8232078835979 1805.4375645998414,292.8607808298064 1847.405359217377,257.88761864852677 Z" fill="url(#leaf3)" opacity="0.39" transform="rotate(71.9 1847.4 327.8)"/>
    <path d="M 103.10306786944224,619.8608564251017 C 159.67374670207832,667.0030887856317 178.53063964629035,733.0022140903739 103.10306786944224,808.4297858672219 C 27.67549609259413,733.0022140903739 46.532389036806165,667.0030887856317 103.10306786944224,619.8608564251017 Z" fill="url(#leaf4)" opacity="0.39" transform="rotate(102.4 103.1 714.1)"/>
    <path d="M 1212.999740290444,565.5511958244125 C 1249.5768257141638,596.032100344179 1261.7691875220703,638.7053666718522 1212.999740290444,687.4748139034785 C 1164.2302930588176,638.7053666718522 1176.422654866724,596.032100344179 1212.999740290444,565.5511958244125 Z" fill="url(#leaf5)" opacity="0.31" transform="rotate(304.1 1213.0 626.5)"/>
    <path d="M 537.0950683605665,382.22824189599544 C 578.9587104501016,417.1146103039414 592.91325781328,465.9555260750657 537.0950683605665,521.7737155277791 C 481.2768789078531,465.9555260750657 495.2314262710314,417.1146103039414 537.0950683605665,382.22824189599544 Z" fill="url(#leaf6)" opacity="0.21" transform="rotate(272.3 537.1 452.0)"/>
    <path d="M 636.899474092866,268.1700507278839 C 690.6976590936407,313.00187156186286 708.6303874272322,375.7664207294334 636.899474092866,447.4973340637997 C 565.1685607584997,375.7664207294334 583.1012890920912,313.00187156186286 636.899474092866,268.1700507278839 Z" fill="url(#leaf7)" opacity="0.26" transform="rotate(124.1 636.9 357.8)"/>
    <path d="M 1395.7492297912745,953.4770808747988 C 1436.9164056949555,987.783060794533 1450.6387976628491,1035.8114326821608 1395.7492297912745,1090.7010005537356 C 1340.8596619196999,1035.8114326821608 1354.5820538875935,987.783060794533 1395.7492297912745,953.4770808747988 Z" fill="url(#leaf8)" opacity="0.34" transform="rotate(332.2 1395.7 1022.1)"/>
    <path d="M 645.182821860789,903.7141513537039 C 698.329267998261,948.0028564682639 716.0447500440849,1010.0070436286479 645.182821860789,1080.8689718119438 C 574.320893677493,1010.0070436286479 592.036375723317,948.0028564682639 645.182821860789,903.7141513537039 Z" fill="url(#leaf9)" opacity="0.30" transform="rotate(127.1 645.2 992.3)"/>
    <path d="M 893.4406358388878,949.1782883948365 C 921.2002399469761,972.3112918182435 930.4534413163389,1004.6974966110131 893.4406358388878,1041.7103020884642 C 856.4278303614368,1004.6974966110131 865.6810317307995,972.3112918182435 893.4406358388878,949.1782883948365 Z" fill="url(#leaf10)" opacity="0.32" transform="rotate(359.9 893.4 995.4)"/>
    <path d="M 1084.8323867795984,172.48366765062784 C 1134.8534706370735,214.16790419852376 1151.527165256232,272.525835365578 1084.8323867795984,339.2206138422115 C 1018.137608302965,272.525835365578 1034.8113029221233,214.16790419852376 1084.8323867795984,172.48366765062784 Z" fill="url(#leaf11)" opacity="0.34" transform="rotate(106.8 1084.8 255.9)"/>
    <path d="M 766.3523080606176,311.72954086849995 C 825.5916087185932,361.0956247501463 845.3380422712518,430.20814218445116 766.3523080606176,509.19387639508534 C 687.3665738499834,430.20814218445116 707.113007402642,361.0956247501463 766.3523080606176,311.72954086849995 Z" fill="url(#leaf12)" opacity="0.39" transform="rotate(335.9 766.4 410.5)"/>
    <path d="M 586.8665175161742,438.3316409615242 C 622.572705920612,468.08679796522233 634.4747687220912,509.7440177703997 586.8665175161742,557.3522689763167 C 539.2582663102572,509.7440177703997 551.1603291117365,468.08679796522233 586.8665175161742,438.3316409615242 Z" fill="url(#leaf13)" opacity="0.39" transform="rotate(141.8 586.9 497.8)"/>
    <path d="M 1862.8184546356556,632.0086093806862 C 1912.318342090122,673.2585155927417 1928.8183045749442,731.0083842896192 1862.8184546356556,797.008234228908 C 1796.818604696367,731.0083842896192 1813.318567181189,673.2585155927417 1862.8184546356556,632.0086093806862 Z" fill="url(#leaf14)" opacity="0.24" transform="rotate(179.1 1862.8 714.5)"/>
    <path d="M 68.94730822479507,454.4458442832884 C 113.40276086238198,491.4920548146108 128.22124507491094,543.3567495584623 68.94730822479507,602.6306864085782 C 9.673371374679178,543.3567495584623 24.49185558720815,491.4920548146108 68.94730822479507,454.4458442832884 Z" fill="url(#leaf15)" opacity="0.39" transform="rotate(315.5 68.9 528.5)"/>
    <path d="M 421.6870151461096,457.69351455676616 C 450.3953133665093,481.6170964070992 459.9647461066425,515.1101109975655 421.6870151461096,553.3878419580984 C 383.4092841855767,515.1101109975655 392.97871692570993,481.6170964070992 421.6870151461096,457.69351455676616 Z" fill="url(#leaf16)" opacity="0.26" transform="rotate(357.4 421.7 505.5)"/>
    <path d="M 1602.9654363186437,711.9617149303767 C 1652.8185997799328,753.5060178147844 1669.436320933696,811.668041852955 1602.9654363186437,878.1389264680072 C 1536.4945517035915,811.668041852955 1553.1122728573546,753.5060178147844 1602.9654363186437,711.9617149303767 Z" fill="url(#leaf17)" opacity="0.37" transform="rotate(67.7 1603.0 795.1)"/>
    <path d="M 1213.3416189238797,72.27948387547329 C 1254.9656968890843,106.96621551314381 1268.8403895441525,155.52763980588253 1213.3416189238797,211.02641042615537 C 1157.8428483036068,155.52763980588253 1171.717540958675,106.96621551314381 1213.3416189238797,72.27948387547329 Z" fill="url(#leaf18)" opacity="0.38" transform="rotate(116.2 1213.3 141.7)"/>
    <path d="M 1067.9353955081215,547.6478164968 C 1094.7878110210208,570.0248294242161 1103.7386161919871,601.3526475225987 1067.9353955081215,637.1558682064644 C 1032.1321748242558,601.3526475225987 1041.082979995222,570.0248294242161 1067.9353955081215,547.6478164968 Z" fill="url(#leaf19)" opacity="0.23" transform="rotate(149.5 1067.9 592.4)"/>
    <path d="M 797.5162593288793,728.8309864615616 C 829.496296249879,755.4810172290613 840.156308556879,792.791060303561 797.5162593288793,835.4311095315608 C 754.8762101008796,792.791060303561 765.5362224078796,755.4810172290613 797.5162593288793,728.8309864615616 Z" fill="url(#leaf0)" opacity="0.31" transform="rotate(276.2 797.5 782.1)"/>
    <path d="M 262.15718182181104,232.3444269294838 C 292.11386540674965,257.3083299169327 302.09942660172925,292.2577940993611 262.15718182181104,332.2000388792793 C 222.21493704189285,292.2577940993611 232.2004982368724,257.3083299169327 262.15718182181104,232.3444269294838 Z" fill="url(#leaf1)" opacity="0.23" transform="rotate(140.3 262.2 282.3)"/>
    <path d="M 1299.420144295165,351.0083056109711 C 1354.6426061591383,397.02702383094885 1373.0500934471295,461.4532293389177 1299.420144295165,535.0831784908821 C 1225.7901951432007,461.4532293389177 1244.1976824311919,397.02702383094885 1299.420144295165,351.0083056109711 Z" fill="url(#leaf2)" opacity="0.27" transform="rotate(127.2 1299.4 443.0)"/>
    <path d="M 1163.1101003264243,520.386852862781 C 1210.2114252380265,559.6379569557829 1225.9118668752274,614.5895026859854 1163.1101003264243,677.3912692347884 C 1100.3083337776213,614.5895026859854 1116.0087754148221,559.6379569557829 1163.1101003264243,520.386852862781 Z" fill="url(#leaf3)" opacity="0.23" transform="rotate(43.7 1163.1 598.9)"/>
    <path d="M 977.1747728752613,724.2181297938814 C 1006.8406088863826,748.9396598031491 1016.7292208900897,783.5498018161239 977.1747728752613,823.1042498309523 C 937.6203248604329,783.5498018161239 947.50893686414,748.9396598031491 977.1747728752613,724.2181297938814 Z" fill="url(#leaf4)" opacity="0.35" transform="rotate(113.3 977.2 773.7)"/>
    <path d="M 1535.1049711462429,69.78552136623834 C 1564.9832777287077,94.68411018495908 1574.9427132561962,129.54213453116813 1535.1049711462429,169.3798766411213 C 1495.2672290362896,129.54213453116813 1505.226664563778,94.68411018495908 1535.1049711462429,69.78552136623834 Z" fill="url(#leaf5)" opacity="0.25" transform="rotate(67.9 1535.1 119.6)"/>
    <path d="M 1069.219683087721,828.2259465031998 C 1118.1007884210608,868.9602009476496 1134.3944901988407,925.9881571698793 1069.219683087721,991.162964280999 C 1004.0448759766014,925.9881571698793 1020.3385777543813,868.9602009476496 1069.219683087721,828.2259465031998 Z" fill="url(#leaf6)" opacity="0.22" transform="rotate(139.3 1069.2 909.7)"/>
    <path d="M 169.25755575897608,529.9555558672544 C 222.60059575018357,574.4080891932606 240.3816090805861,636.6416358496693 169.25755575897608,707.7656891712793 C 98.13350243736608,636.6416358496693 115.91451576776858,574.4080891932606 169.25755575897608,529.9555558672544 Z" fill="url(#leaf7)" opacity="0.27" transform="rotate(245.6 169.3 618.9)"/>
    <path d="M 995.4285338655368,116.41116387362074 C 1036.1037032884853,150.3071383927446 1049.662093096135,197.76150271951803 995.4285338655368,251.99506195011622 C 941.1949746349386,197.76150271951803 954.7533644425881,150.3071383927446 995.4285338655368,116.41116387362074 Z" fill="url(#leaf8)" opacity="0.31" transform="rotate(106.2 995.4 184.2)"/>
    <path d="M 947.4179937236391,426.26006739211164 C 974.0762863258857,448.47531122731704 982.9623838599679,479.5766525966047 947.4179937236391,515.1210427329333 C 911.8736035873104,479.5766525966047 920.7597011213926,448.47531122731704 947.4179937236391,426.26006739211164 Z" fill="url(#leaf9)" opacity="0.35" transform="rotate(32.1 947.4 470.7)"/>
    <path d="M 1812.150888320253,31.76365622985395 C 1865.2555874308387,76.01757215534204 1882.9571538010339,137.97305445102535 1812.150888320253,208.7793199318063 C 1741.344622839472,137.97305445102535 1759.0461892096673,76.01757215534204 1812.150888320253,31.76365622985395 Z" fill="url(#leaf10)" opacity="0.35" transform="rotate(60.3 1812.2 120.3)"/>
    <path d="M 192.5011318333395,330.25841183382687 C 225.66328390140913,357.8935385572182 236.71733459076566,396.5827159699661 192.5011318333395,440.7989187273923 C 148.28492907591337,396.5827159699661 159.3389797652699,357.8935385572182 192.5011318333395,330.25841183382687 Z" fill="url(#leaf11)" opacity="0.29" transform="rotate(303.4 192.5 385.5)"/>
    <path d="M 822.6977344184883,452.9908224645161 C 868.6185658963856,491.25818202943054 883.9255097223514,544.8324854203107 822.6977344184883,606.0602607241739 C 761.4699591146251,544.8324854203107 776.776902940591,491.25818202943054 822.6977344184883,452.9908224645161 Z" fill="url(#leaf12)" opacity="0.37" transform="rotate(110.4 822.7 529.5)"/>
    <path d="M 1692.0409839885767,941.4330558808982 C 1736.30510486321,978.3198232764262 1751.0598118214214,1029.961297630165 1692.0409839885767,1088.9801254630097 C 1633.022156155732,1029.961297630165 1647.7768631139434,978.3198232764262 1692.0409839885767,941.4330558808982 Z" fill="url(#leaf13)" opacity="0.36" transform="rotate(50.1 1692.0 1015.2)"/>
    <path d="M 1768.940664294249,161.09143437834115 C 1794.0423805781177,182.00953128156505 1802.4096193394073,211.2948669460785 1768.940664294249,244.76382199123674 C 1735.4717092490907,211.2948669460785 1743.8389480103804,182.00953128156505 1768.940664294249,161.09143437834115 Z" fill="url(#leaf14)" opacity="0.25" transform="rotate(341.4 1768.9 202.9)"/>
    <path d="M 1399.4274492781342,622.6577040799895 C 1434.0702254644932,651.5266842352885 1445.6178175266127,691.9432564527073 1399.4274492781342,738.1336247011858 C 1353.2370810296557,691.9432564527073 1364.7846730917752,651.5266842352885 1399.4274492781342,622.6577040799895 Z" fill="url(#leaf15)" opacity="0.26" transform="rotate(176.9 1399.4 680.4)"/>
    <path d="M 1187.0157275156107,576.0021235015431 C 1245.8416595765368,625.0237335523149 1265.4503035968453,693.6539876233952 1187.0157275156107,772.0885637046299 C 1108.5811514343761,693.6539876233952 1128.1897954546846,625.0237335523149 1187.0157275156107,576.0021235015431 Z" fill="url(#leaf16)" opacity="0.34" transform="rotate(71.5 1187.0 674.0)"/>
    <path d="M 789.7704480807939,707.173991359587 C 820.568198369039,732.8387832664579 830.8341151317874,768.7694919360772 789.7704480807939,809.8331589870706 C 748.7067810298005,768.7694919360772 758.9726977925488,732.8387832664579 789.7704480807939,707.173991359587 Z" fill="url(#leaf17)" opacity="0.21" transform="rotate(319.1 789.8 758.5)"/>
    <path d="M 418.0950365675863,79.41417886998336 C 451.50467842353197,107.25554708327141 462.6412257088472,146.2334625818747 418.0950365675863,190.7796517231356 C 373.54884742632544,146.2334625818747 384.68539471164064,107.25554708327141 418.0950365675863,79.41417886998336 Z" fill="url(#leaf18)" opacity="0.21" transform="rotate(224.8 418.1 135.1)"/>
    <path d="M 1772.4862976282304,716.8949710692349 C 1825.9475950239248,761.4460522323136 1843.7680274891563,823.8175658606236 1772.4862976282304,895.0992957215495 C 1701.2045677673045,823.8175658606236 1719.025000232536,761.4460522323136 1772.4862976282304,716.8949710692349 Z" fill="url(#leaf19)" opacity="0.36" transform="rotate(32.9 1772.5 806.0)"/>
    <path d="M 538.2678907066938,936.0421388487739 C 580.9215216893043,971.5868313342827 595.1393986835078,1021.3494008139949 538.2678907066938,1078.2209087908088 C 481.39638272987986,1021.3494008139949 495.61425972408335,971.5868313342827 538.2678907066938,936.0421388487739 Z" fill="url(#leaf0)" opacity="0.21" transform="rotate(148.4 538.3 1007.1)"/>
    <path d="M 104.9175986565806,157.62619149916532 C 164.3396298014008,207.14455078651548 184.14697351634086,276.47025378880573 104.9175986565806,355.699628648566 C 25.688223796820324,276.47025378880573 45.4955675117604,207.14455078651548 104.9175986565806,157.62619149916532 Z" fill="url(#leaf1)" opacity="0.30" transform="rotate(132.9 104.9 256.7)"/>
    <path d="M 1423.1269647588392,680.3587620219043 C 1458.1352377338203,709.5323228343885 1469.804662058814,750.3753079718664 1423.1269647588392,797.0530052718411 C 1376.4492674588644,750.3753079718664 1388.1186917838581,709.5323228343885 1423.1269647588392,680.3587620219043 Z" fill="url(#leaf2)" opacity="0.21" transform="rotate(222.7 1423.1 738.7)"/>
    <path d="M 384.1791941412788,504.418716535462 C 414.7176294796126,529.8674126507401 424.89710792572384,565.4955872121295 384.1791941412788,606.2135009965746 C 343.46128035683375,565.4955872121295 353.640758802945,529.8674126507401 384.1791941412788,504.418716535462 Z" fill="url(#leaf3)" opacity="0.32" transform="rotate(302.2 384.2 555.3)"/>
    <path d="M 1368.0506514650124,327.1186302658326 C 1405.483450888272,358.3126297852158 1417.9610506960255,401.9842291123522 1368.0506514650124,451.8946283433652 C 1318.1402522339993,401.9842291123522 1330.6178520417527,358.3126297852158 1368.0506514650124,327.1186302658326 Z" fill="url(#leaf4)" opacity="0.28" transform="rotate(131.5 1368.1 389.5)"/>
    <path d="M 405.4605921807611,811.9696580057489 C 459.94351519161035,857.3720938481233 478.10448952856007,920.9355040274473 405.4605921807611,993.5794013752463 C 332.8166948329622,920.9355040274473 350.9776691699119,857.3720938481233 405.4605921807611,811.9696580057489 Z" fill="url(#leaf5)" opacity="0.29" transform="rotate(42.8 405.5 902.8)"/>
    <path d="M 1100.0718228941585,494.4767919018316 C 1154.6676906196903,539.9733483397749 1172.8663131948676,603.6685273528955 1100.0718228941585,676.4630176536048 C 1027.2773325934493,603.6685273528955 1045.4759551686266,539.9733483397749 1100.0718228941585,494.4767919018316 Z" fill="url(#leaf6)" opacity="0.25" transform="rotate(206.3 1100.1 585.5)"/>
    <path d="M 1436.2244466928123,696.3332842831036 C 1476.3184279629882,729.7449353415834 1489.6830883863802,776.5212468234552 1436.2244466928123,829.9798885170229 C 1382.7658049992444,776.5212468234552 1396.1304654226365,729.7449353415834 1436.2244466928123,696.3332842831036 Z" fill="url(#leaf7)" opacity="0.38" transform="rotate(131.1 1436.2 763.2)"/>
    <path d="M 828.7645628782681,600.806342122777 C 857.6648303059003,624.8898983124706 867.2982527817778,658.6068769780416 828.7645628782681,697.1405668815513 C 790.2308729747583,658.6068769780416 799.8642954506358,624.8898983124706 828.7645628782681,600.806342122777 Z" fill="url(#leaf8)" opacity="0.40" transform="rotate(350.4 828.8 649.0)"/>
    <path d="M 1505.2257971258105,917.5463960708873 C 1546.6030555322918,952.0274447429551 1560.395475001119,1000.30091288385 1505.2257971258105,1055.4705907591583 C 1450.056119250502,1000.30091288385 1463.848538719329,952.0274447429551 1505.2257971258105,917.5463960708873 Z" fill="url(#leaf9)" opacity="0.36" transform="rotate(149.0 1505.2 986.5)"/>
    <path d="M 534.3466431148066,784.9623113020308 C 560.5091513163992,806.7644014700245 569.2299873835966,837.2873277052158 534.3466431148066,872.1706719740058 C 499.4632988460166,837.2873277052158 508.1841349132141,806.7644014700245 534.3466431148066,784.9623113020308 Z" fill="url(#leaf10)" opacity="0.39" transform="rotate(0.3 534.3 828.6)"/>
    <path d="M 608.2537673234049,522.4061518502822 C 654.6774777366333,561.0925771946391 670.152047874376,615.2535726767389 608.2537673234049,677.15185322771 C 546.3554867724338,615.2535726767389 561.8300569101765,561.0925771946391 608.2537673234049,522.4061518502822 Z" fill="url(#leaf11)" opacity="0.37" transform="rotate(2.6 608.3 599.8)"/>
    <path d="M 677.9101455986716,124.44923530343661 C 725.3009933773319,163.94160845232017 741.0979426368854,219.23093086075718 677.9101455986716,282.41872789897093 C 614.7223485604579,219.23093086075718 630.5192978200114,163.94160845232017 677.9101455986716,124.44923530343661 Z" fill="url(#leaf12)" opacity="0.21" transform="rotate(143.2 677.9 203.4)"/>
    <path d="M 1297.3988363853657,834.6547311820302 C 1324.4891474923534,857.2299904378533 1333.5192511946827,888.8353533960056 1297.3988363853657,924.9557682053226 C 1261.2784215760487,888.8353533960056 1270.308525278378,857.2299904378533 1297.3988363853657,834.6547311820302 Z" fill="url(#leaf13)" opacity="0.25" transform="rotate(173.3 1297.4 879.8)"/>
    <path d="M 1730.635852901258,325.05558339807504 C 1762.757359029512,351.82350517162007 1773.46452773893,389.29859565458304 1730.635852901258,432.12727049225504 C 1687.807178063586,389.29859565458304 1698.514346773004,351.82350517162007 1730.635852901258,325.05558339807504 Z" fill="url(#leaf14)" opacity="0.36" transform="rotate(304.7 1730.6 378.6)"/>
    <path d="M 290.44122587175514,549.7348081369928 C 341.16574994048733,592.0052448609363 358.0739246300647,651.1838562744572 290.44122587175514,718.8165550327667 C 222.80852711344556,651.1838562744572 239.71670180302297,592.0052448609363 290.44122587175514,549.7348081369928 Z" fill="url(#leaf15)" opacity="0.31" transform="rotate(285.3 290.4 634.3)"/>
    <path d="M 703.4126073523885,265.99423408005055 C 748.7347121375556,303.76265473435643 763.842080399278,356.6384436503847 703.4126073523885,417.0679166972742 C 642.983134305499,356.6384436503847 658.0905025672214,303.76265473435643 703.4126073523885,265.99423408005055 Z" fill="url(#leaf16)" opacity="0.20" transform="rotate(52.8 703.4 341.5)"/>
    <path d="M 1740.3904983509008,403.45597124123395 C 1782.846753290724,438.8361836910867 1796.9988382706651,488.3684811208805 1740.3904983509008,544.9768210406448 C 1683.7821584311364,488.3684811208805 1697.9342434110774,438.8361836910867 1740.3904983509008,403.45597124123395 Z" fill="url(#leaf17)" opacity="0.22" transform="rotate(54.8 1740.4 474.2)"/>
    <path d="M 1360.5690158423138,815.9003832355288 C 1405.8550892257408,853.6387777217179 1420.9504470202164,906.4725300023827 1360.5690158423138,966.8539611802853 C 1300.1875846644111,906.4725300023827 1315.2829424588867,853.6387777217179 1360.5690158423138,815.9003832355288 Z" fill="url(#leaf18)" opacity="0.28" transform="rotate(345.1 1360.6 891.4)"/>
    <path d="M 1627.4918988064055,212.05425449634333 C 1669.23234109317,246.83795640198025 1683.1458218554246,295.53513906987195 1627.4918988064055,351.189062118891 C 1571.8379757573864,295.53513906987195 1585.7514565196411,246.83795640198025 1627.4918988064055,212.05425449634333 Z" fill="url(#leaf19)" opacity="0.39" transform="rotate(136.9 1627.5 281.6)"/>
    <path d="M 388.06401419254945,677.8244066834637 C 431.20635347977895,713.7763560894883 445.5871332421888,764.1090852579227 388.06401419254945,821.6322043075621 C 330.5408951429101,764.1090852579227 344.92167490531995,713.7763560894883 388.06401419254945,677.8244066834637 Z" fill="url(#leaf0)" opacity="0.23" transform="rotate(303.5 388.1 749.7)"/>
    <path d="M 1746.6843961553514,413.42669335358704 C 1804.0317548066084,461.2161588963012 1823.147541023694,528.121410656101 1746.6843961553514,604.5845555244438 C 1670.2212512870087,528.121410656101 1689.3370375040943,461.2161588963012 1746.6843961553514,413.42669335358704 Z" fill="url(#leaf1)" opacity="0.33" transform="rotate(83.5 1746.7 509.0)"/>
    <path d="M 816.6791745293921,814.3914073344159 C 847.7524906975001,840.285837474506 858.1102627535362,876.538039670632 816.6791745293921,917.9691278947761 C 775.248086305248,876.538039670632 785.605858361284,840.285837474506 816.6791745293921,814.3914073344159 Z" fill="url(#leaf2)" opacity="0.33" transform="rotate(298.8 816.7 866.2)"/>
    <path d="M 214.77172859226062,505.7383910486707 C 247.0669829537306,532.6511030165624 257.8320677408873,570.3288997716106 214.77172859226062,613.3892389202373 C 171.71138944363398,570.3288997716106 182.47647423079064,532.6511030165624 214.77172859226062,505.7383910486707 Z" fill="url(#leaf3)" opacity="0.38" transform="rotate(165.9 214.8 559.6)"/>
    <path d="M 992.2986888321159,448.0256368127952 C 1026.527663738445,476.5497825680694 1037.9373220405546,516.4835866254534 992.2986888321159,562.1222198338922 C 946.6600556236771,516.4835866254534 958.0697139257868,476.5497825680694 992.2986888321159,448.0256368127952 Z" fill="url(#leaf4)" opacity="0.34" transform="rotate(277.0 992.3 505.1)"/>
    <path d="M 1334.449701277026,496.6105781249246 C 1388.185117341335,541.3900915118487 1406.0969226961045,604.0814102535425 1334.449701277026,675.7286316726211 C 1262.8024798579474,604.0814102535425 1280.714285212717,541.3900915118487 1334.449701277026,496.6105781249246 Z" fill="url(#leaf5)" opacity="0.29" transform="rotate(296.3 1334.4 586.2)"/>
    <path d="M 1620.3892341975773,446.5038634348287 C 1644.80544249201,466.85070368018927 1652.9441785901543,495.3362800236941 1620.3892341975773,527.891224416271 C 1587.8342898050003,495.3362800236941 1595.9730259031446,466.85070368018927 1620.3892341975773,446.5038634348287 Z" fill="url(#leaf6)" opacity="0.24" transform="rotate(237.5 1620.4 487.2)"/>
    <path d="M 213.6250819436828,468.1828015364699 C 240.59995943029898,490.6618661086501 249.59158525917104,522.1325565097023 213.6250819436828,558.0990598251906 C 177.65857862819456,522.1325565097023 186.65020445706662,490.6618661086501 213.6250819436828,468.1828015364699 Z" fill="url(#leaf7)" opacity="0.22" transform="rotate(354.2 213.6 513.1)"/>
    <path d="M 1433.9183355093928,901.2634150814712 C 1475.250782534671,935.7071209358696 1489.0282648764305,983.9283091320276 1433.9183355093928,1039.0382384990653 C 1378.8084061423551,983.9283091320276 1392.5858884841145,935.7071209358696 1433.9183355093928,901.2634150814712 Z" fill="url(#leaf8)" opacity="0.40" transform="rotate(285.0 1433.9 970.2)"/>
    <path d="M 1056.507285888004,278.08479413147705 C 1090.3833923536044,306.3148828528109 1101.675427842138,345.83700706267825 1056.507285888004,391.00514901681237 C 1011.3391439338698,345.83700706267825 1022.6311794224033,306.3148828528109 1056.507285888004,278.08479413147705 Z" fill="url(#leaf9)" opacity="0.30" transform="rotate(268.0 1056.5 334.5)"/>
    <path d="M 873.923417726166,871.3979703555513 C 933.3641170306851,920.9318864426505 953.1776834655248,990.2793689645894 873.923417726166,1069.533634703948 C 794.6691519868073,990.2793689645894 814.482718421647,920.9318864426505 873.923417726166,871.3979703555513 Z" fill="url(#leaf10)" opacity="0.35" transform="rotate(351.1 873.9 970.5)"/>
    <path d="M 1186.5356728767497,73.93727510966517 C 1234.6662853296107,114.04611882038273 1250.7098228138977,170.1985000153873 1186.5356728767497,234.37264995253543 C 1122.3615229396016,170.1985000153873 1138.4050604238887,114.04611882038273 1186.5356728767497,73.93727510966517 Z" fill="url(#leaf11)" opacity="0.31" transform="rotate(159.3 1186.5 154.2)"/>
    <path d="M 734.8835228498067,788.2880497498279 C 781.5257364648207,827.1565610956729 797.0731410031588,881.572476979856 734.8835228498067,943.762095133208 C 672.6939046964546,881.572476979856 688.2413092347927,827.1565610956729 734.8835228498067,788.2880497498279 Z" fill="url(#leaf12)" opacity="0.32" transform="rotate(338.0 734.9 866.0)"/>
    <path d="M 1464.9012672394263,165.92647109210102 C 1498.5038662491427,193.92863693353135 1509.7047325857147,233.13166911153385 1464.9012672394263,277.9351344578224 C 1420.0978018931378,233.13166911153385 1431.2986682297098,193.92863693353135 1464.9012672394263,165.92647109210102 Z" fill="url(#leaf13)" opacity="0.25" transform="rotate(310.3 1464.9 221.9)"/>
    <path d="M 1208.6530853982078,134.31261369384512 C 1250.8118698957996,169.44493410850492 1264.8647980616636,218.6301826890287 1208.6530853982078,274.84189535248436 C 1152.4413727347521,218.6301826890287 1166.494300900616,169.44493410850492 1208.6530853982078,134.31261369384512 Z" fill="url(#leaf14)" opacity="0.33" transform="rotate(223.2 1208.7 204.6)"/>
    <path d="M 326.80322359007044,861.840141935393 C 355.2206031492259,885.5212915680227 364.6930630022777,918.674901053704 326.80322359007044,956.5647404659113 C 288.9133841778632,918.674901053704 298.385844030915,885.5212915680227 326.80322359007044,861.840141935393 Z" fill="url(#leaf15)" opacity="0.26" transform="rotate(334.2 326.8 909.2)"/>
    <path d="M 650.322856571774,114.14214982443127 C 675.302736208553,134.9587161884138 683.629362754146,164.10190909798933 650.322856571774,197.4084152803614 C 617.016350389402,164.10190909798933 625.3429769349949,134.9587161884138 650.322856571774,114.14214982443127 Z" fill="url(#leaf16)" opacity="0.34" transform="rotate(311.9 650.3 155.8)"/>
    <path d="M 1664.5064607635438,5.582737148900463 C 1724.3388232826155,55.443039248126865 1744.2829441223062,125.24746218704382 1664.5064607635438,205.02394554580607 C 1584.7299774047815,125.24746218704382 1604.6740982444721,55.443039248126865 1664.5064607635438,5.582737148900463 Z" fill="url(#leaf17)" opacity="0.34" transform="rotate(335.0 1664.5 105.3)"/>
    <path d="M 1044.8789894473102,929.2834328086086 C 1098.5514058611739,974.0104464868284 1116.4422113324617,1036.628265636336 1044.8789894473102,1108.1914875214875 C 973.3157675621586,1036.628265636336 991.2065730334465,974.0104464868284 1044.8789894473102,929.2834328086086 Z" fill="url(#leaf18)" opacity="0.25" transform="rotate(150.9 1044.9 1018.7)"/>
    <path d="M 1402.731086619782,881.9724341933236 C 1456.6622945393774,926.9151074596531 1474.639363845909,989.8348500325143 1402.731086619782,1061.7431272586414 C 1330.822809393655,989.8348500325143 1348.7998787001866,926.9151074596531 1402.731086619782,881.9724341933236 Z" fill="url(#leaf19)" opacity="0.33" transform="rotate(230.8 1402.7 971.9)"/>
    <path d="M 870.5233960829635,548.6002374356526 C 897.1939680913274,570.8257141092892 906.084158760782,601.9413814523803 870.5233960829635,637.5021441301988 C 834.962633405145,601.9413814523803 843.8528240745995,570.8257141092892 870.5233960829635,548.6002374356526 Z" fill="url(#leaf0)" opacity="0.33" transform="rotate(86.8 870.5 593.1)"/>
    <path d="M 1047.3674922424452,157.80750806965582 C 1088.0873593212227,191.7407306353037 1101.6606483474818,239.24724222721068 1047.3674922424452,293.54039833224726 C 993.0743361374086,239.24724222721068 1006.6476251636678,191.7407306353037 1047.3674922424452,157.80750806965582 Z" fill="url(#leaf1)" opacity="0.38" transform="rotate(174.2 1047.4 225.7)"/>
    <path d="M 1225.2267784580672,331.03128599920746 C 1273.6564215694261,371.38932192533997 1289.7996359398792,427.8905722219255 1225.2267784580672,492.4634297037375 C 1160.6539209762552,427.8905722219255 1176.7971353467083,371.38932192533997 1225.2267784580672,331.03128599920746 Z" fill="url(#leaf2)" opacity="0.37" transform="rotate(98.5 1225.2 411.7)"/>
    <path d="M 616.5604904727485,921.2566080610077 C 676.4046566855754,971.1267465716969 696.3527120898511,1040.9449404866616 616.5604904727485,1120.7371621037644 C 536.7682688556458,1040.9449404866616 556.7163242599215,971.1267465716969 616.5604904727485,921.2566080610077 Z" fill="url(#leaf3)" opacity="0.34" transform="rotate(277.5 616.6 1021.0)"/>
    <path d="M 1656.3312193944685,857.9139965430745 C 1680.6731314116873,878.1989232240903 1688.7871020840937,906.5978205775123 1656.3312193944685,939.0537032671375 C 1623.8753367048432,906.5978205775123 1631.9893073772496,878.1989232240903 1656.3312193944685,857.9139965430745 Z" fill="url(#leaf4)" opacity="0.35" transform="rotate(67.6 1656.3 898.5)"/>
    <path d="M 1649.0256637496775,189.1201900644126 C 1677.3609010825273,212.73288784178752 1686.8059801934774,245.79066473011238 1649.0256637496775,283.57098117391223 C 1611.2453473058777,245.79066473011238 1620.6904264168277,212.73288784178752 1649.0256637496775,189.1201900644126 Z" fill="url(#leaf5)" opacity="0.30" transform="rotate(233.4 1649.0 236.3)"/>
    <path d="M 1203.1185437425843,512.137904364992 C 1234.5259651949586,538.3107555753038 1244.9951056790833,574.9527472697405 1203.1185437425843,616.8293092062395 C 1161.2419818060853,574.9527472697405 1171.71112229021,538.3107555753038 1203.1185437425843,512.137904364992 Z" fill="url(#leaf6)" opacity="0.31" transform="rotate(39.6 1203.1 564.5)"/>
    <path d="M 1418.7328165030356,877.5938690362128 C 1447.986216571489,901.9717024265908 1457.7373499276403,936.1006691731199 1418.7328165030356,975.1052025977245 C 1379.7282830784309,936.1006691731199 1389.4794164345822,901.9717024265908 1418.7328165030356,877.5938690362128 Z" fill="url(#leaf7)" opacity="0.21" transform="rotate(261.4 1418.7 926.3)"/>
    <path d="M 591.1656196325077,287.0608629961199 C 647.3401251529871,333.87295092985266 666.0649603264802,399.4098740370785 591.1656196325077,474.30921473105093 C 516.2662789385353,399.4098740370785 534.9911141120284,333.87295092985266 591.1656196325077,287.0608629961199 Z" fill="url(#leaf8)" opacity="0.39" transform="rotate(181.1 591.2 380.7)"/>
    <path d="M 1403.1279574552843,856.0964698562494 C 1459.644716635976,903.1937691734926 1478.4836363628733,969.129988217633 1403.1279574552843,1044.4856671252219 C 1327.7722785476954,969.129988217633 1346.6111982745927,903.1937691734926 1403.1279574552843,856.0964698562494 Z" fill="url(#leaf9)" opacity="0.36" transform="rotate(98.9 1403.1 950.3)"/>
    <path d="M 1276.3121733871415,857.2223238696921 C 1309.991070986901,885.2880718694917 1321.2173701868207,924.5801190692109 1276.3121733871415,969.4853158688901 C 1231.4069765874622,924.5801190692109 1242.633275787382,885.2880718694917 1276.3121733871415,857.2223238696921 Z" fill="url(#leaf10)" opacity="0.35" transform="rotate(69.6 1276.3 913.4)"/>
    <path d="M 282.08558583523967,253.3241226941085 C 316.5033243041343,282.00557141818734 327.97590379376584,322.1595996318977 282.08558583523967,368.0499175904239 C 236.1952678767135,322.1595996318977 247.66784736634503,282.00557141818734 282.08558583523967,253.3241226941085 Z" fill="url(#leaf11)" opacity="0.33" transform="rotate(168.1 282.1 310.7)"/>
    <path d="M 1852.6830166805114,59.00066526081336 C 1880.0357212703866,81.79458575237598 1889.1532894670115,113.70607444056365 1852.6830166805114,150.17634722706384 C 1816.2127438940113,113.70607444056365 1825.3303120906362,81.79458575237598 1852.6830166805114,59.00066526081336 Z" fill="url(#leaf12)" opacity="0.37" transform="rotate(272.0 1852.7 104.6)"/>
    <path d="M 94.49742918436235,917.3702004823003 C 146.0388044750529,960.3213465578758 163.21926290528307,1020.4529510636814 94.49742918436235,1089.1747847846023 C 25.775595463441604,1020.4529510636814 42.956053893671786,960.3213465578758 94.49742918436235,917.3702004823003 Z" fill="url(#leaf13)" opacity="0.28" transform="rotate(126.3 94.5 1003.3)"/>
    <path d="M 1120.8775679554562,161.33567740746378 C 1161.4684139466422,195.16138240011873 1174.9986959437042,242.5173693898356 1120.8775679554562,296.6384973780835 C 1066.7564399672083,242.5173693898356 1080.2867219642703,195.16138240011873 1120.8775679554562,161.33567740746378 Z" fill="url(#leaf14)" opacity="0.34" transform="rotate(200.0 1120.9 229.0)"/>
    <path d="M 834.3215692262248,669.0076033601217 C 884.3200128940663,710.672973083323 900.9861607833468,769.0044906958047 834.3215692262248,835.6690822529267 C 767.6569776691028,769.0044906958047 784.3231255583834,710.672973083323 834.3215692262248,669.0076033601217 Z" fill="url(#leaf15)" opacity="0.31" transform="rotate(29.0 834.3 752.3)"/>
    <path d="M 1652.4325764643074,230.89161624753734 C 1704.528202174471,274.3046376726738 1721.8934107445257,335.0828676678648 1652.4325764643074,404.5437019480831 C 1582.9717421840892,335.0828676678648 1600.3369507541438,274.3046376726738 1652.4325764643074,230.89161624753734 Z" fill="url(#leaf16)" opacity="0.25" transform="rotate(88.7 1652.4 317.7)"/>
    <path d="M 1248.3419071605242,365.982395723138 C 1285.3156272572792,396.7938291371004 1297.640200622864,439.92983591664773 1248.3419071605242,489.22812937898755 C 1199.0436136981843,439.92983591664773 1211.3681870637693,396.7938291371004 1248.3419071605242,365.982395723138 Z" fill="url(#leaf17)" opacity="0.30" transform="rotate(286.7 1248.3 427.6)"/>
    <path d="M 153.61935381496932,509.0131043746452 C 194.31691758425356,542.9277408490487 207.88277217401497,590.4082319132137 153.61935381496932,644.6716502722594 C 99.35593545592366,590.4082319132137 112.92179004568507,542.9277408490487 153.61935381496932,509.0131043746452 Z" fill="url(#leaf18)" opacity="0.22" transform="rotate(237.0 153.6 576.8)"/>
    <path d="M 1072.9372457965146,366.99621462345465 C 1121.361145469938,407.34946435130746 1137.502445361079,463.8440139703014 1072.9372457965146,528.4092135348659 C 1008.3720462319501,463.8440139703014 1024.5133461230912,407.34946435130746 1072.9372457965146,366.99621462345465 Z" fill="url(#leaf19)" opacity="0.34" transform="rotate(7.8 1072.9 447.7)"/>
    <path d="M 638.0356519243627,308.2468891465758 C 674.065461749697,338.2717306676877 686.0753983581417,380.30650879724436 638.0356519243627,428.34625523102335 C 589.9959054905837,380.30650879724436 602.0058420990284,338.2717306676877 638.0356519243627,308.2468891465758 Z" fill="url(#leaf0)" opacity="0.39" transform="rotate(341.1 638.0 368.3)"/>
    <path d="M 1320.5884835724826,278.4653475997016 C 1359.4116121276008,310.8179547289669 1372.352654979307,356.1116047099383 1320.5884835724826,407.8757761167628 C 1268.824312165658,356.1116047099383 1281.7653550173643,310.8179547289669 1320.5884835724826,278.4653475997016 Z" fill="url(#leaf1)" opacity="0.26" transform="rotate(211.6 1320.6 343.2)"/>
    <path d="M 1512.5677918736628,212.74566245356723 C 1541.5714341216412,236.91536432688258 1551.2393148709675,270.75294694952413 1512.5677918736628,309.4244699468287 C 1473.8962688763581,270.75294694952413 1483.5641496256844,236.91536432688258 1512.5677918736628,212.74566245356723 Z" fill="url(#leaf2)" opacity="0.21" transform="rotate(335.5 1512.6 261.1)"/>
    <path d="M 1490.4141394435387,737.945752006562 C 1548.8940690050238,786.6790266411329 1568.3873788588521,854.9056111295322 1490.4141394435387,932.8788505448457 C 1412.4409000282253,854.9056111295322 1431.9342098820537,786.6790266411329 1490.4141394435387,737.945752006562 Z" fill="url(#leaf3)" opacity="0.32" transform="rotate(277.1 1490.4 835.4)"/>
    <path d="M 1017.5252352425567,525.8799307927229 C 1071.0799680033738,570.5088747600704 1088.931545590313,632.989396314357 1017.5252352425567,704.3957066621131 C 946.1189248948007,632.989396314357 963.9705024817397,570.5088747600704 1017.5252352425567,525.8799307927229 Z" fill="url(#leaf4)" opacity="0.31" transform="rotate(195.3 1017.5 615.1)"/>
    <path d="M 312.9619252930899,669.1878958778921 C 358.2650233108202,706.940477559334 373.366055983397,759.7940919133528 312.9619252930899,820.1982226036598 C 252.55779460278282,759.7940919133528 267.6588272753596,706.940477559334 312.9619252930899,669.1878958778921 Z" fill="url(#leaf5)" opacity="0.28" transform="rotate(296.4 313.0 744.7)"/>
    <path d="M 977.316113104387,793.928964454077 C 1002.4843551590623,814.9024994996397 1010.8737691772873,844.2654485634275 977.316113104387,877.8231046363278 C 943.7584570314867,844.2654485634275 952.1478710497117,814.9024994996397 977.316113104387,793.928964454077 Z" fill="url(#leaf6)" opacity="0.28" transform="rotate(105.6 977.3 835.9)"/>
    <path d="M 1599.654704215721,695.5488173340188 C 1652.0010436283476,739.1707668445409 1669.4498234325565,800.241496159272 1599.654704215721,870.0366153761074 C 1529.8595849988856,800.241496159272 1547.3083648030945,739.1707668445409 1599.654704215721,695.5488173340188 Z" fill="url(#leaf7)" opacity="0.39" transform="rotate(49.2 1599.7 782.8)"/>
    <path d="M 209.35548442170415,330.48427407042607 C 238.09085118876013,354.4304130429727 247.6693067777788,387.95500760453797 209.35548442170415,426.2688299606126 C 171.0416620656295,387.95500760453797 180.62011765464817,354.4304130429727 209.35548442170415,330.48427407042607 Z" fill="url(#leaf8)" opacity="0.30" transform="rotate(270.7 209.4 378.4)"/>
    <path d="M 77.65243771725287,-6.114050955550709 C 117.3526728644219,26.969478333756825 130.58608458014493,73.28641933878737 77.65243771725287,126.22006620167943 C 24.718790854360805,73.28641933878737 37.95220257008383,26.969478333756825 77.65243771725287,-6.114050955550709 Z" fill="url(#leaf9)" opacity="0.23" transform="rotate(253.9 77.7 60.1)"/>
    <path d="M 427.77007061934404,358.3781512371507 C 460.16082249422436,385.37044446621763 470.9577397858511,423.15965498691133 427.77007061934404,466.34732415341847 C 384.58240145283696,423.15965498691133 395.3793187444637,385.37044446621763 427.77007061934404,358.3781512371507 Z" fill="url(#leaf10)" opacity="0.33" transform="rotate(224.3 427.8 412.4)"/>
    <path d="M 1274.4934014492994,675.7599356637751 C 1305.289494928689,701.4233468965997 1315.5548594218187,737.3521226225541 1274.4934014492994,778.4135805950735 C 1233.4319434767801,737.3521226225541 1243.6973079699098,701.4233468965997 1274.4934014492994,675.7599356637751 Z" fill="url(#leaf11)" opacity="0.25" transform="rotate(324.5 1274.5 727.1)"/>
    <path d="M 1578.2036554594983,721.3327666590577 C 1607.2715371816614,745.556001427527 1616.9608310890492,779.4685301033838 1578.2036554594983,818.2257057329347 C 1539.4464798299475,779.4685301033838 1549.1357737373353,745.556001427527 1578.2036554594983,721.3327666590577 Z" fill="url(#leaf12)" opacity="0.36" transform="rotate(181.1 1578.2 769.8)"/>
    <path d="M 1118.4923178960632,847.8601675618977 C 1144.1486559657233,869.2404492866143 1152.7007686556099,899.1728437012175 1118.4923178960632,933.3812944607641 C 1084.2838671365166,899.1728437012175 1092.8359798264032,869.2404492866143 1118.4923178960632,847.8601675618977 Z" fill="url(#leaf13)" opacity="0.23" transform="rotate(182.5 1118.5 890.6)"/>
    <path d="M 371.36862643833655,337.23854325209913 C 426.8830231427769,383.50054050579945 445.38782204425706,448.2673366609799 371.36862643833655,522.2865322669004 C 297.34943083241603,448.2673366609799 315.8542297338962,383.50054050579945 371.36862643833655,337.23854325209913 Z" fill="url(#leaf14)" opacity="0.32" transform="rotate(307.4 371.4 429.8)"/>
    <path d="M 590.5679360626759,91.28446415742008 C 636.5213727108033,129.5789946975263 651.8391849268459,183.191337453675 590.5679360626759,244.46258631784497 C 529.296687198506,183.191337453675 544.6144994145485,129.5789946975263 590.5679360626759,91.28446415742008 Z" fill="url(#leaf15)" opacity="0.30" transform="rotate(295.2 590.6 167.9)"/>
    <path d="M 1715.8025537746535,368.23835182214486 C 1752.7187133695438,399.0018181512202 1765.024099901174,442.0706710119257 1715.8025537746535,491.2922171384463 C 1666.581007648133,442.0706710119257 1678.886394179763,399.0018181512202 1715.8025537746535,368.23835182214486 Z" fill="url(#leaf16)" opacity="0.24" transform="rotate(183.6 1715.8 429.8)"/>
    <path d="M 1730.678983326815,699.0570452205828 C 1779.8150388321271,740.0037581416765 1796.1937240005645,797.3291562312074 1730.678983326815,862.8438969049572 C 1665.1642426530652,797.3291562312074 1681.5429278215026,740.0037581416765 1730.678983326815,699.0570452205828 Z" fill="url(#leaf17)" opacity="0.25" transform="rotate(34.1 1730.7 781.0)"/>
    <path d="M 1666.925716900385,410.0326065282419 C 1707.8300441761498,444.1195459247126 1721.4648199347382,491.8412610797717 1666.925716900385,546.3803641141249 C 1612.3866138660317,491.8412610797717 1626.02138962462,444.1195459247126 1666.925716900385,410.0326065282419 Z" fill="url(#leaf18)" opacity="0.20" transform="rotate(31.5 1666.9 478.2)"/>
  </g>

  <!-- Central star shape -->
  <polygon points="960.0,195.8 1061.2,400.8 1287.4,433.6 1123.7,593.2 1162.3,818.5 960.0,712.1 757.7,818.5 796.3,593.2 632.6,433.6 858.8,400.8" 
           fill="#FF69B4" 
           transform="rotate(263.0 960.0 540.0)"/>
</svg>