<?xml version="1.0" encoding="UTF-8"?>
<svg xmlns="http://www.w3.org/2000/svg" viewBox="0 0 1920 1080" width="1920" height="1080">
  <defs>
    <linearGradient id="bgGrad" x1="0%" y1="0%" x2="100%" y2="100%">
      <stop offset="0%" stop-color="#DC143C"/>
      <stop offset="100%" stop-color="#4ECDC4"/>
    </linearGradient>
    <clipPath id="complexClip"><polygon points="1495.0,540.0 1509.4,605.7 1373.7,643.6 1298.4,678.3 1316.1,762.4 1156.7,731.7 1099.4,781.3 1016.0,839.6 909.6,809.8 830.1,764.8 719.0,774.8 701.8,701.3 636.6,672.2 547.2,643.4 490.6,596.1 429.9,540.0 616.2,498.9 599.0,449.6 528.2,363.5 698.4,376.6 725.0,311.0 833.2,320.4 911.6,280.8 1019.8,220.2 1123.4,257.1 1192.4,313.5 1209.5,384.1 1338.6,385.3 1443.3,418.9 1402.9,487.0"/></clipPath>
    <radialGradient id="leaf0" cx="50%" cy="50%" r="70%">
      <stop offset="0%" stop-color="#7B68EE"/>
      <stop offset="50%" stop-color="#96E6A1"/>
      <stop offset="100%" stop-color="#FF6B6B"/>
    </radialGradient>
    <radialGradient id="leaf1" cx="50%" cy="50%" r="70%">
      <stop offset="0%" stop-color="#FF4500"/>
      <stop offset="50%" stop-color="#FF1493"/>
      <stop offset="100%" stop-color="#9370DB"/>
    </radialGradient>
    <radialGradient id="leaf2" cx="50%" cy="50%" r="70%">
      <stop offset="0%" stop-color="#9370DB"/>
      <stop offset="50%" stop-color="#7B68EE"/>
      <stop offset="100%" stop-color="#4ECDC4"/>
    </radialGradient>
    <radialGradient id="leaf3" cx="50%" cy="50%" r="70%">
      <stop offset="0%" stop-color="#32CD32"/>
      <stop offset="50%" stop-color="#FF4500"/>
      <stop offset="100%" stop-color="#96E6A1"/>
    </radialGradient>
    <radialGradient id="leaf4" cx="50%" cy="50%" r="70%">
      <stop offset="0%" stop-color="#DC143C"/>
      <stop offset="50%" stop-color="#FF1493"/>
      <stop offset="100%" stop-color="#FF4500"/>
    </radialGradient>
    <radialGradient id="leaf5" cx="50%" cy="50%" r="70%">
      <stop offset="0%" stop-color="#32CD32"/>
      <stop offset="50%" stop-color="#96E6A1"/>
      <stop offset="100%" stop-color="#9370DB"/>
    </radialGradient>
    <radialGradient id="leaf6" cx="50%" cy="50%" r="70%">
      <stop offset="0%" stop-color="#FF69B4"/>
      <stop offset="50%" stop-color="#32CD32"/>
      <stop offset="100%" stop-color="#4ECDC4"/>
    </radialGradient>
    <radialGradient id="leaf7" cx="50%" cy="50%" r="70%">
      <stop offset="0%" stop-color="#96E6A1"/>
      <stop offset="50%" stop-color="#FF1493"/>
      <stop offset="100%" stop-color="#7B68EE"/>
    </radialGradient>
    <radialGradient id="leaf8" cx="50%" cy="50%" r="70%">
      <stop offset="0%" stop-color="#DC143C"/>
      <stop offset="50%" stop-color="#96E6A1"/>
      <stop offset="100%" stop-color="#FFE66D"/>
    </radialGradient>
    <radialGradient id="leaf9" cx="50%" cy="50%" r="70%">
      <stop offset="0%" stop-color="#FF4500"/>
      <stop offset="50%" stop-color="#32CD32"/>
      <stop offset="100%" stop-color="#DC143C"/>
    </radialGradient>
    <radialGradient id="leaf10" cx="50%" cy="50%" r="70%">
      <stop offset="0%" stop-color="#4ECDC4"/>
      <stop offset="50%" stop-color="#96E6A1"/>
      <stop offset="100%" stop-color="#FF6B6B"/>
    </radialGradient>
    <radialGradient id="leaf11" cx="50%" cy="50%" r="70%">
      <stop offset="0%" stop-color="#7B68EE"/>
      <stop offset="50%" stop-color="#96E6A1"/>
      <stop offset="100%" stop-color="#FFE66D"/>
    </radialGradient>
    <radialGradient id="leaf12" cx="50%" cy="50%" r="70%">
      <stop offset="0%" stop-color="#FF1493"/>
      <stop offset="50%" stop-color="#4ECDC4"/>
      <stop offset="100%" stop-color="#9370DB"/>
    </radialGradient>
    <radialGradient id="leaf13" cx="50%" cy="50%" r="70%">
      <stop offset="0%" stop-color="#FF6B6B"/>
      <stop offset="50%" stop-color="#00FA9A"/>
      <stop offset="100%" stop-color="#FF1493"/>
    </radialGradient>
    <radialGradient id="leaf14" cx="50%" cy="50%" r="70%">
      <stop offset="0%" stop-color="#32CD32"/>
      <stop offset="50%" stop-color="#FF1493"/>
      <stop offset="100%" stop-color="#FF69B4"/>
    </radialGradient>
    <radialGradient id="leaf15" cx="50%" cy="50%" r="70%">
      <stop offset="0%" stop-color="#FF1493"/>
      <stop offset="50%" stop-color="#45B7D1"/>
      <stop offset="100%" stop-color="#00FA9A"/>
    </radialGradient>
    <radialGradient id="leaf16" cx="50%" cy="50%" r="70%">
      <stop offset="0%" stop-color="#FF69B4"/>
      <stop offset="50%" stop-color="#4ECDC4"/>
      <stop offset="100%" stop-color="#00CED1"/>
    </radialGradient>
    <radialGradient id="leaf17" cx="50%" cy="50%" r="70%">
      <stop offset="0%" stop-color="#FF1493"/>
      <stop offset="50%" stop-color="#45B7D1"/>
      <stop offset="100%" stop-color="#7B68EE"/>
    </radialGradient>
    <radialGradient id="leaf18" cx="50%" cy="50%" r="70%">
      <stop offset="0%" stop-color="#FFE66D"/>
      <stop offset="50%" stop-color="#9370DB"/>
      <stop offset="100%" stop-color="#45B7D1"/>
    </radialGradient>
    <radialGradient id="leaf19" cx="50%" cy="50%" r="70%">
      <stop offset="0%" stop-color="#32CD32"/>
      <stop offset="50%" stop-color="#96E6A1"/>
      <stop offset="100%" stop-color="#FF4500"/>
    </radialGradient>
  </defs>

  <!-- Background -->
  <rect width="1920" height="1080" fill="url(#bgGrad)"/>
  
  <!-- Leaves with clip-path -->
  <g clip-path="url(#complexClip)">
    <path d="M 458.81973322222234,780.9967368701072 C 513.1767185509533,826.2942246440497 531.2957136605303,889.7107075275691 458.81973322222234,962.186687965877 C 386.3437527839144,889.7107075275691 404.4627478934914,826.2942246440497 458.81973322222234,780.9967368701072 Z" fill="url(#leaf0)" opacity="0.36" transform="rotate(250.7 458.8 871.6)"/>
    <path d="M 1103.4815511815168,31.322921612151987 C 1142.1014902308268,63.5062041532437 1154.9748032472635,108.5627997107721 1103.4815511815168,160.05605177651884 C 1051.9882991157701,108.5627997107721 1064.8616121322068,63.5062041532437 1103.4815511815168,31.322921612151987 Z" fill="url(#leaf1)" opacity="0.37" transform="rotate(15.7 1103.5 95.7)"/>
    <path d="M 942.9521119798704,218.06406760443264 C 996.4725905663432,262.6644664264933 1014.3127500951675,325.1050247773782 942.9521119798704,396.4656628926753 C 871.5914738645733,325.1050247773782 889.4316333933976,262.6644664264933 942.9521119798704,218.06406760443264 Z" fill="url(#leaf2)" opacity="0.32" transform="rotate(265.5 943.0 307.3)"/>
    <path d="M 1744.2824589093793,276.15537836063646 C 1785.8233850524562,310.7728168132005 1799.6703604334818,359.2372306467902 1744.2824589093793,414.62513217089264 C 1688.8945573852768,359.2372306467902 1702.7415327663025,310.7728168132005 1744.2824589093793,276.15537836063646 Z" fill="url(#leaf3)" opacity="0.30" transform="rotate(173.2 1744.3 345.4)"/>
    <path d="M 1169.522808929798,264.07767398676526 C 1227.4720819889517,312.36873486939334 1246.7885063420028,379.9762201050726 1169.522808929798,457.24191751727756 C 1092.257111517593,379.9762201050726 1111.5735358706443,312.36873486939334 1169.522808929798,264.07767398676526 Z" fill="url(#leaf4)" opacity="0.36" transform="rotate(256.2 1169.5 360.7)"/>
    <path d="M 456.88370325363195,452.1386179000941 C 512.0954571701832,498.14841283055347 530.499375142367,562.5621257331966 456.88370325363195,636.1777976219315 C 383.26803136489696,562.5621257331966 401.6719493370807,498.14841283055347 456.88370325363195,452.1386179000941 Z" fill="url(#leaf5)" opacity="0.35" transform="rotate(275.6 456.9 544.2)"/>
    <path d="M 901.2723479249522,444.8783259126118 C 933.9159049170308,472.08129007267735 944.7970905810571,510.16543989676916 901.2723479249522,553.690182552874 C 857.7476052688473,510.16543989676916 868.6287909328736,472.08129007267735 901.2723479249522,444.8783259126118 Z" fill="url(#leaf6)" opacity="0.27" transform="rotate(191.0 901.3 499.3)"/>
    <path d="M 275.8830651898222,359.99607415100985 C 312.73913953753225,390.7094694407682 325.02449765343556,433.7082228464299 275.8830651898222,482.84965531004326 C 226.74163272620885,433.7082228464299 239.02699084211218,390.7094694407682 275.8830651898222,359.99607415100985 Z" fill="url(#leaf7)" opacity="0.31" transform="rotate(50.0 275.9 421.4)"/>
    <path d="M 1035.6794361123302,504.23232210245504 C 1082.5569388101953,543.2969076840094 1098.1827730428172,597.9873274981854 1035.6794361123302,660.4906644286724 C 973.1760991818433,597.9873274981854 988.801933414465,543.2969076840094 1035.6794361123302,504.23232210245504 Z" fill="url(#leaf8)" opacity="0.35" transform="rotate(19.3 1035.7 582.4)"/>
    <path d="M 881.8340018044605,80.30148902707523 C 936.9855009836788,126.26107167642378 955.3693340434182,190.60448738551176 881.8340018044605,264.1398196244694 C 808.2986695655028,190.60448738551176 826.6825026252423,126.26107167642378 881.8340018044605,80.30148902707523 Z" fill="url(#leaf9)" opacity="0.26" transform="rotate(230.4 881.8 172.2)"/>
    <path d="M 940.4620569501361,341.331563918395 C 984.7002085989778,378.19669029242976 999.4462591485917,429.8078672160784 940.4620569501361,488.792069414534 C 881.4778547516805,429.8078672160784 896.2239053012944,378.19669029242976 940.4620569501361,341.331563918395 Z" fill="url(#leaf10)" opacity="0.31" transform="rotate(322.1 940.5 415.1)"/>
    <path d="M 1082.9681702094417,444.7581361373035 C 1109.9631868285626,467.2539833199043 1118.961525701603,498.74816937554544 1082.9681702094417,534.7415248677067 C 1046.9748147172804,498.74816937554544 1055.9731535903209,467.2539833199043 1082.9681702094417,444.7581361373035 Z" fill="url(#leaf11)" opacity="0.29" transform="rotate(323.1 1083.0 489.7)"/>
    <path d="M 1808.6110115022932,943.6916206189458 C 1847.4522846948155,976.0593482793811 1860.3993757589897,1021.3741670039906 1808.6110115022932,1073.162531260687 C 1756.8226472455967,1021.3741670039906 1769.769738309771,976.0593482793811 1808.6110115022932,943.6916206189458 Z" fill="url(#leaf12)" opacity="0.35" transform="rotate(219.9 1808.6 1008.4)"/>
    <path d="M 1198.187586711062,154.82691313029616 C 1249.62828850885,197.69416462845268 1266.7751891081125,257.7083167258718 1198.187586711062,326.2959191229222 C 1129.5999843140116,257.7083167258718 1146.7468849132742,197.69416462845268 1198.187586711062,154.82691313029616 Z" fill="url(#leaf13)" opacity="0.34" transform="rotate(348.9 1198.2 240.6)"/>
    <path d="M 1130.078065214082,340.8755957063348 C 1172.4214894152647,376.1617825406536 1186.535964148992,425.5624441086999 1130.078065214082,482.02034304360996 C 1073.620166279172,425.5624441086999 1087.7346410128994,376.1617825406536 1130.078065214082,340.8755957063348 Z" fill="url(#leaf14)" opacity="0.26" transform="rotate(20.2 1130.1 411.4)"/>
    <path d="M 1173.8666605188023,880.5556022685377 C 1204.1988833053238,905.8324545906389 1214.3096242341642,941.2200478415806 1173.8666605188023,981.6630115569425 C 1133.4236968034404,941.2200478415806 1143.5344377322808,905.8324545906389 1173.8666605188023,880.5556022685377 Z" fill="url(#leaf15)" opacity="0.29" transform="rotate(184.2 1173.9 931.1)"/>
    <path d="M 909.6808036367767,382.54176955523803 C 968.4426087744208,431.50994050327483 988.0298771536355,500.0653798305263 909.6808036367767,578.4144533473851 C 831.3317301199178,500.0653798305263 850.9189984991325,431.50994050327483 909.6808036367767,382.54176955523803 Z" fill="url(#leaf16)" opacity="0.24" transform="rotate(302.7 909.7 480.5)"/>
    <path d="M 1147.2008364432743,384.46950283910707 C 1200.9853715365275,429.28994875015144 1218.9135499009453,492.03857302561363 1147.2008364432743,563.7512864832847 C 1075.4881229856032,492.03857302561363 1093.416301350021,429.28994875015144 1147.2008364432743,384.46950283910707 Z" fill="url(#leaf17)" opacity="0.34" transform="rotate(322.3 1147.2 474.1)"/>
    <path d="M 1100.6827688643143,788.3355677540984 C 1150.4148705638936,829.7789858370812 1166.9922377970868,887.7997711532572 1100.6827688643143,954.1092400860297 C 1034.3732999315419,887.7997711532572 1050.950667164735,829.7789858370812 1100.6827688643143,788.3355677540984 Z" fill="url(#leaf18)" opacity="0.34" transform="rotate(192.8 1100.7 871.2)"/>
    <path d="M 1208.7483198184993,22.57594147214614 C 1263.574894289924,68.26475353166681 1281.8504191137324,132.22909041499577 1208.7483198184993,205.33118971022884 C 1135.6462205232663,132.22909041499577 1153.9217453470746,68.26475353166681 1208.7483198184993,22.57594147214614 Z" fill="url(#leaf19)" opacity="0.28" transform="rotate(32.5 1208.7 114.0)"/>
    <path d="M 129.71213150254584,841.2392079994274 C 170.41802177084278,875.1607832230083 183.98665186027512,922.6509885360214 129.71213150254584,976.9255088937507 C 75.43761114481657,922.6509885360214 89.0062412342489,875.1607832230083 129.71213150254584,841.2392079994274 Z" fill="url(#leaf0)" opacity="0.29" transform="rotate(220.0 129.7 909.1)"/>
    <path d="M 1554.6818802764972,744.764936460288 C 1597.924639287677,780.8005689696047 1612.338892291404,831.250454482648 1554.6818802764972,888.9074664975547 C 1497.0248682615904,831.250454482648 1511.4391212653172,780.8005689696047 1554.6818802764972,744.764936460288 Z" fill="url(#leaf1)" opacity="0.36" transform="rotate(338.7 1554.7 816.8)"/>
    <path d="M 1127.551535535527,627.5580930970476 C 1159.6191498567246,654.281105031379 1170.308354630457,691.6933217394428 1127.551535535527,734.450140834373 C 1084.7947164405969,691.6933217394428 1095.4839212143293,654.281105031379 1127.551535535527,627.5580930970476 Z" fill="url(#leaf2)" opacity="0.36" transform="rotate(90.3 1127.6 681.0)"/>
    <path d="M 841.6014636236611,257.0798450918811 C 876.9428461919088,286.53099723208754 888.7233070479913,327.76261022837656 841.6014636236611,374.88445365270684 C 794.4796201993308,327.76261022837656 806.2600810554134,286.53099723208754 841.6014636236611,257.0798450918811 Z" fill="url(#leaf3)" opacity="0.27" transform="rotate(7.7 841.6 316.0)"/>
    <path d="M 65.78982016494649,20.420992983004012 C 108.82689876300114,56.28522514804955 123.17259162901935,106.4951501791133 65.78982016494649,163.87792164318614 C 8.40704870087363,106.4951501791133 22.75274156689185,56.28522514804955 65.78982016494649,20.420992983004012 Z" fill="url(#leaf4)" opacity="0.29" transform="rotate(263.7 65.8 92.1)"/>
    <path d="M 51.75150886163991,393.486862712189 C 88.026587105859,423.7160945823716 100.11827985393204,466.03701920062724 51.75150886163991,514.4037901929194 C 3.384737869347788,466.03701920062724 15.476430617420824,423.7160945823716 51.75150886163991,393.486862712189 Z" fill="url(#leaf5)" opacity="0.21" transform="rotate(242.8 51.8 453.9)"/>
    <path d="M 1601.7855247331295,71.41574525028454 C 1654.3121903007113,115.18796655660282 1671.8210788232386,176.4690763854484 1601.7855247331295,246.50463047555763 C 1531.7499706430203,176.4690763854484 1549.2588591655476,115.18796655660282 1601.7855247331295,71.41574525028454 Z" fill="url(#leaf6)" opacity="0.23" transform="rotate(120.9 1601.8 159.0)"/>
    <path d="M 952.111538514695,745.1141689579355 C 995.5224595815986,781.2899365136884 1009.9927666038998,831.9360110917427 952.111538514695,889.8172391809475 C 894.2303104254902,831.9360110917427 908.7006174477914,781.2899365136884 952.111538514695,745.1141689579355 Z" fill="url(#leaf7)" opacity="0.34" transform="rotate(305.0 952.1 817.5)"/>
    <path d="M 1832.6435775733369,536.4429572042075 C 1888.946491145143,583.3620518473792 1907.7141290024117,649.0487843478197 1832.6435775733369,724.1193357768946 C 1757.573026144262,649.0487843478197 1776.3406640015307,583.3620518473792 1832.6435775733369,536.4429572042075 Z" fill="url(#leaf8)" opacity="0.25" transform="rotate(214.5 1832.6 630.3)"/>
    <path d="M 1575.1345402232037,970.6635012402585 C 1608.9277963402399,998.8245480044553 1620.1922150459186,1038.250013474331 1575.1345402232037,1083.3076882970458 C 1530.0768654004887,1038.250013474331 1541.3412841061674,998.8245480044553 1575.1345402232037,970.6635012402585 Z" fill="url(#leaf9)" opacity="0.31" transform="rotate(156.4 1575.1 1027.0)"/>
    <path d="M 167.3546712640989,461.28563897188354 C 196.84314330202272,485.85936567015335 206.67263398133065,520.2625830477311 167.3546712640989,559.580545764963 C 128.03670854686715,520.2625830477311 137.86619922617507,485.85936567015335 167.3546712640989,461.28563897188354 Z" fill="url(#leaf10)" opacity="0.27" transform="rotate(261.8 167.4 510.4)"/>
    <path d="M 1400.2575155692427,814.5181515704378 C 1458.5231094070089,863.0728131019096 1477.9449740195976,931.04933924597 1400.2575155692427,1008.7367976963249 C 1322.570057118888,931.04933924597 1341.9919217314766,863.0728131019096 1400.2575155692427,814.5181515704378 Z" fill="url(#leaf11)" opacity="0.28" transform="rotate(110.0 1400.3 911.6)"/>
    <path d="M 1139.1168024229326,404.69696262171806 C 1164.664747377771,425.98691675075 1173.1807290293837,455.7928525313948 1139.1168024229326,489.85677913784593 C 1105.0528758164814,455.7928525313948 1113.5688574680942,425.98691675075 1139.1168024229326,404.69696262171806 Z" fill="url(#leaf12)" opacity="0.30" transform="rotate(63.2 1139.1 447.3)"/>
    <path d="M 1197.0345814553332,798.5484312270623 C 1229.5089954129444,825.6104428584051 1240.3338000654815,863.4972591422849 1197.0345814553332,906.7964777524332 C 1153.735362845185,863.4972591422849 1164.560167497722,825.6104428584051 1197.0345814553332,798.5484312270623 Z" fill="url(#leaf13)" opacity="0.25" transform="rotate(339.4 1197.0 852.7)"/>
    <path d="M 1131.6394203126442,967.5638873345016 C 1164.2832195179099,994.7670533388895 1175.164485919665,1032.8514857450327 1131.6394203126442,1076.3765513520534 C 1088.1143547056236,1032.8514857450327 1098.9956211073786,994.7670533388895 1131.6394203126442,967.5638873345016 Z" fill="url(#leaf14)" opacity="0.30" transform="rotate(211.0 1131.6 1022.0)"/>
    <path d="M 919.3053390154002,128.8699919308487 C 978.8304205890461,178.47422657555353 998.6721144469279,247.92015507814028 919.3053390154002,327.286930509668 C 839.9385635838726,247.92015507814028 859.7802574417544,178.47422657555353 919.3053390154002,128.8699919308487 Z" fill="url(#leaf15)" opacity="0.34" transform="rotate(218.2 919.3 228.1)"/>
    <path d="M 111.09923465244759,67.63739187703351 C 151.89987476382353,101.63792530318013 165.50008813428218,149.2386720997854 111.09923465244759,203.63952558161998 C 56.698381170613004,149.2386720997854 70.29859454107165,101.63792530318013 111.09923465244759,67.63739187703351 Z" fill="url(#leaf16)" opacity="0.28" transform="rotate(345.8 111.1 135.6)"/>
    <path d="M 597.6269580126465,570.6296645131474 C 633.3574424941511,600.4050682477346 645.2676039879859,642.0906334761565 597.6269580126465,689.731279451496 C 549.986312037307,642.0906334761565 561.8964735311419,600.4050682477346 597.6269580126465,570.6296645131474 Z" fill="url(#leaf17)" opacity="0.24" transform="rotate(88.3 597.6 630.2)"/>
    <path d="M 285.06001748180927,763.275463569844 C 329.54813846844655,800.3488977253751 344.37751213065894,852.2517055431185 285.06001748180927,911.5692001919682 C 225.74252283295957,852.2517055431185 240.57189649517198,800.3488977253751 285.06001748180927,763.275463569844 Z" fill="url(#leaf18)" opacity="0.22" transform="rotate(136.1 285.1 837.4)"/>
    <path d="M 602.2379315929113,354.080811213823 C 640.4415522464024,385.9171617583989 653.1760924642327,430.4880525208052 602.2379315929113,481.4262133921266 C 551.2997707215899,430.4880525208052 564.0343109394203,385.9171617583989 602.2379315929113,354.080811213823 Z" fill="url(#leaf19)" opacity="0.34" transform="rotate(124.8 602.2 417.8)"/>
    <path d="M 1480.1949470898303,632.5371809402905 C 1512.0624887423683,659.0934656507387 1522.6850026265474,696.2722642453663 1480.1949470898303,738.7623197820835 C 1437.7048915531132,696.2722642453663 1448.3274054372923,659.0934656507387 1480.1949470898303,632.5371809402905 Z" fill="url(#leaf0)" opacity="0.22" transform="rotate(311.5 1480.2 685.6)"/>
    <path d="M 796.2301545414437,577.4472723725343 C 843.182932841924,616.5745876229346 858.833858942084,671.3528289734949 796.2301545414437,733.9565333741353 C 733.6264501408033,671.3528289734949 749.2773762409633,616.5745876229346 796.2301545414437,577.4472723725343 Z" fill="url(#leaf1)" opacity="0.37" transform="rotate(22.3 796.2 655.7)"/>
    <path d="M 1233.7897134694913,397.6416281989433 C 1267.079293140283,425.3829445912697 1278.1758196972135,464.2207875405266 1233.7897134694913,508.6068937682488 C 1189.4036072417691,464.2207875405266 1200.5001337986996,425.3829445912697 1233.7897134694913,397.6416281989433 Z" fill="url(#leaf2)" opacity="0.28" transform="rotate(119.8 1233.8 453.1)"/>
    <path d="M 1799.7824284653313,773.5343450635704 C 1853.9035291998964,818.6352623423747 1871.943896111418,881.7765465327006 1799.7824284653313,953.9380141787875 C 1727.6209608192446,881.7765465327006 1745.6613277307663,818.6352623423747 1799.7824284653313,773.5343450635704 Z" fill="url(#leaf3)" opacity="0.21" transform="rotate(6.0 1799.8 863.7)"/>
    <path d="M 569.1023485030994,190.4498548983817 C 610.8409407384079,225.2320150944721 624.7538048168441,273.92703936899875 569.1023485030994,329.57849568274344 C 513.4508921893547,273.92703936899875 527.3637562677909,225.2320150944721 569.1023485030994,190.4498548983817 Z" fill="url(#leaf4)" opacity="0.37" transform="rotate(227.6 569.1 260.0)"/>
    <path d="M 771.3317717929851,968.3251508520498 C 807.7784621768183,998.6973928385773 819.9273589714293,1041.218531619716 771.3317717929851,1089.81411879816 C 722.736184614541,1041.218531619716 734.885081409152,998.6973928385773 771.3317717929851,968.3251508520498 Z" fill="url(#leaf5)" opacity="0.26" transform="rotate(208.4 771.3 1029.1)"/>
    <path d="M 1165.1853571254956,827.758123107151 C 1202.9230661486063,859.2062139597432 1215.5023024896432,903.2335411533724 1165.1853571254956,953.5504865175199 C 1114.868411761348,903.2335411533724 1127.4476481023848,859.2062139597432 1165.1853571254956,827.758123107151 Z" fill="url(#leaf6)" opacity="0.39" transform="rotate(258.5 1165.2 890.7)"/>
    <path d="M 190.0014760178343,684.4537905771306 C 241.70615095359955,727.5410196902683 258.9410425988546,787.863140448661 190.0014760178343,856.8027070296814 C 121.06190943681399,787.863140448661 138.29680108206907,727.5410196902683 190.0014760178343,684.4537905771306 Z" fill="url(#leaf7)" opacity="0.23" transform="rotate(321.0 190.0 770.6)"/>
    <path d="M 1260.442523011937,513.192818124583 C 1309.7838186695642,554.310564505939 1326.2309172221067,611.8754094398375 1260.442523011937,677.6638036500071 C 1194.6541288017675,611.8754094398375 1211.10122735431,554.310564505939 1260.442523011937,513.192818124583 Z" fill="url(#leaf8)" opacity="0.24" transform="rotate(80.3 1260.4 595.4)"/>
    <path d="M 676.9245662993497,756.3637366085826 C 722.2394659613105,794.1261529935499 737.3444325152974,846.9935359325042 676.9245662993497,907.4134021484518 C 616.5047000834021,846.9935359325042 631.609666637389,794.1261529935499 676.9245662993497,756.3637366085826 Z" fill="url(#leaf9)" opacity="0.28" transform="rotate(132.3 676.9 831.9)"/>
    <path d="M 721.8068843153433,394.78312109844535 C 758.4745635133479,425.33952043011584 770.6971232460161,468.1184794944546 721.8068843153433,517.0087184251274 C 672.9166453846705,468.1184794944546 685.1392051173386,425.33952043011584 721.8068843153433,394.78312109844535 Z" fill="url(#leaf10)" opacity="0.23" transform="rotate(178.2 721.8 455.9)"/>
    <path d="M 1175.5668052155952,109.39623443909232 C 1221.5221753801195,147.69237624286268 1236.8406321016278,201.30697476814115 1175.5668052155952,262.5808016541737 C 1114.2929783295626,201.30697476814115 1129.6114350510709,147.69237624286268 1175.5668052155952,109.39623443909232 Z" fill="url(#leaf11)" opacity="0.22" transform="rotate(153.8 1175.6 186.0)"/>
    <path d="M 768.1943782716403,178.78394914375448 C 803.8157764342417,208.46844761258902 815.6895758217755,250.02674546895736 768.1943782716403,297.52194301909265 C 720.6991807215051,250.02674546895736 732.5729801090389,208.46844761258902 768.1943782716403,178.78394914375448 Z" fill="url(#leaf12)" opacity="0.38" transform="rotate(26.5 768.2 238.2)"/>
    <path d="M 1507.1387099602464,647.5602239791793 C 1564.965018933183,695.7488147899599 1584.2404552574951,763.2128419250525 1507.1387099602464,840.3145872223014 C 1430.0369646629977,763.2128419250525 1449.3124009873097,695.7488147899599 1507.1387099602464,647.5602239791793 Z" fill="url(#leaf13)" opacity="0.26" transform="rotate(348.7 1507.1 743.9)"/>
    <path d="M 319.15896259728186,751.160043861091 C 370.7824301632187,794.1796001660383 387.9902526851977,854.4069789929647 319.15896259728186,923.2382690808804 C 250.32767250936604,854.4069789929647 267.535495031345,794.1796001660383 319.15896259728186,751.160043861091 Z" fill="url(#leaf14)" opacity="0.38" transform="rotate(18.3 319.2 837.2)"/>
    <path d="M 284.20135549916483,116.50271444976232 C 316.62379428763325,143.52141344015268 327.4312738837894,181.3475920266992 284.20135549916483,224.57751041132377 C 240.97143711454027,181.3475920266992 251.77891671069642,143.52141344015268 284.20135549916483,116.50271444976232 Z" fill="url(#leaf15)" opacity="0.38" transform="rotate(288.8 284.2 170.5)"/>
    <path d="M 1859.1427833922244,682.4945624800652 C 1886.424567497579,705.2293825678606 1895.518495532697,737.0581306907742 1859.1427833922244,773.4338428312468 C 1822.7670712517518,737.0581306907742 1831.8609992868699,705.2293825678606 1859.1427833922244,682.4945624800652 Z" fill="url(#leaf16)" opacity="0.24" transform="rotate(204.2 1859.1 728.0)"/>
    <path d="M 1424.3655976671155,893.8599967936079 C 1471.090489308207,932.7974064945175 1486.6654531885706,987.3097800757909 1424.3655976671155,1049.609635597246 C 1362.0657421456604,987.3097800757909 1377.640706026024,932.7974064945175 1424.3655976671155,893.8599967936079 Z" fill="url(#leaf17)" opacity="0.26" transform="rotate(349.3 1424.4 971.7)"/>
    <path d="M 105.78721231067192,219.07841586442333 C 149.4167850457064,255.43639314361874 163.9599759573846,306.3375613344923 105.78721231067192,364.510324981205 C 47.61444866395926,306.3375613344923 62.157639575637425,255.43639314361874 105.78721231067192,219.07841586442333 Z" fill="url(#leaf18)" opacity="0.29" transform="rotate(173.5 105.8 291.8)"/>
    <path d="M 255.7186623197113,30.79404257150685 C 300.8059631351596,68.36679325104706 315.8350634069757,120.96864420240334 255.7186623197113,181.08504528966768 C 195.60226123244698,120.96864420240334 210.63136150426305,68.36679325104706 255.7186623197113,30.79404257150685 Z" fill="url(#leaf19)" opacity="0.29" transform="rotate(263.1 255.7 105.9)"/>
    <path d="M 591.3229711162589,769.8904767582087 C 625.6811363454806,798.5222811158935 637.1338580885546,838.6068072166521 591.3229711162589,884.4176941889477 C 545.5120841439633,838.6068072166521 556.9648058870373,798.5222811158935 591.3229711162589,769.8904767582087 Z" fill="url(#leaf0)" opacity="0.28" transform="rotate(190.5 591.3 827.2)"/>
    <path d="M 525.10261299391,380.3737884572165 C 572.6293963630682,419.9794412648483 588.4716574861209,475.42735519553275 525.10261299391,538.7963996877436 C 461.7335685016992,475.42735519553275 477.5758296247519,419.9794412648483 525.10261299391,380.3737884572165 Z" fill="url(#leaf1)" opacity="0.23" transform="rotate(166.8 525.1 459.6)"/>
    <path d="M 1635.9087391780174,590.5929461854862 C 1674.5153067478604,622.765085827022 1687.3841626044748,667.8060813251722 1635.9087391780174,719.2815047516294 C 1584.43331575156,667.8060813251722 1597.3021716081744,622.765085827022 1635.9087391780174,590.5929461854862 Z" fill="url(#leaf2)" opacity="0.30" transform="rotate(244.2 1635.9 654.9)"/>
    <path d="M 207.35646273647075,717.8904786676336 C 231.4966765683557,738.0073235275377 239.54341451231733,766.1709063314034 207.35646273647075,798.3578581072501 C 175.16951096062417,766.1709063314034 183.2162489045858,738.0073235275377 207.35646273647075,717.8904786676336 Z" fill="url(#leaf3)" opacity="0.35" transform="rotate(28.4 207.4 758.1)"/>
    <path d="M 1384.705962724395,28.971652906971016 C 1438.594292497857,73.8785943848559 1456.5570690890108,136.74831245389475 1384.705962724395,208.59941881851057 C 1312.8548563597792,136.74831245389475 1330.817632950933,73.8785943848559 1384.705962724395,28.971652906971016 Z" fill="url(#leaf4)" opacity="0.36" transform="rotate(284.6 1384.7 118.8)"/>
    <path d="M 456.52206324220896,549.2272870765527 C 485.6223542632378,573.4775295940767 495.3224512702474,607.4278691186104 456.52206324220896,646.2282571466488 C 417.7216752141705,607.4278691186104 427.4217722211801,573.4775295940767 456.52206324220896,549.2272870765527 Z" fill="url(#leaf5)" opacity="0.21" transform="rotate(39.5 456.5 597.7)"/>
    <path d="M 456.86854996548254,445.5465057929831 C 496.7942133761912,478.81789196857363 510.1027678464274,525.3978326144004 456.86854996548254,578.6320504953452 C 403.6343320845377,525.3978326144004 416.9428865547739,478.81789196857363 456.86854996548254,445.5465057929831 Z" fill="url(#leaf6)" opacity="0.39" transform="rotate(270.2 456.9 512.1)"/>
    <path d="M 103.57304767371573,3.951255358956516 C 160.88439719145146,51.71071329040295 179.98818036403003,118.57395439442796 103.57304767371573,194.98908708474227 C 27.15791498340144,118.57395439442796 46.261698155980014,51.71071329040295 103.57304767371573,3.951255358956516 Z" fill="url(#leaf7)" opacity="0.36" transform="rotate(289.5 103.6 99.5)"/>
    <path d="M 323.3056492097761,92.16327217076096 C 368.19321799796114,129.5695794942485 383.1557409273562,181.9384097471311 323.3056492097761,241.78850146471117 C 263.455557492196,181.9384097471311 278.41808042159107,129.5695794942485 323.3056492097761,92.16327217076096 Z" fill="url(#leaf8)" opacity="0.37" transform="rotate(134.4 323.3 167.0)"/>
    <path d="M 1385.9292196239815,552.8935690481535 C 1435.1343712801236,593.8978620949384 1451.5360884988374,651.3038723604375 1385.9292196239815,716.9107412352935 C 1320.3223507491255,651.3038723604375 1336.7240679678393,593.8978620949384 1385.9292196239815,552.8935690481535 Z" fill="url(#leaf9)" opacity="0.27" transform="rotate(131.4 1385.9 634.9)"/>
    <path d="M 1303.3914641134627,703.2131995595998 C 1355.6858726049336,746.7918733024921 1373.1173421020906,807.8020165425415 1303.3914641134627,877.5278945311693 C 1233.6655861248348,807.8020165425415 1251.0970556219918,746.7918733024921 1303.3914641134627,703.2131995595998 Z" fill="url(#leaf10)" opacity="0.23" transform="rotate(153.0 1303.4 790.4)"/>
    <path d="M 1364.6093338847268,213.85708697751156 C 1407.7611795765658,249.8169583873775 1422.1451281405123,300.1607783611898 1364.6093338847268,357.69657261697523 C 1307.0735396289413,300.1607783611898 1321.4574881928877,249.8169583873775 1364.6093338847268,213.85708697751156 Z" fill="url(#leaf11)" opacity="0.26" transform="rotate(349.5 1364.6 285.8)"/>
    <path d="M 1699.2588791519022,477.6173973117863 C 1732.0997290307132,504.9847722107956 1743.046678990317,543.2990970694085 1699.2588791519022,587.0868969078233 C 1655.4710793134873,543.2990970694085 1666.4180292730912,504.9847722107956 1699.2588791519022,477.6173973117863 Z" fill="url(#leaf12)" opacity="0.28" transform="rotate(340.4 1699.3 532.4)"/>
    <path d="M 1670.020324338666,350.30796001605785 C 1698.5176814286153,374.05575759101566 1708.0168004585985,407.3026741959567 1670.020324338666,445.2991503158892 C 1632.0238482187333,407.3026741959567 1641.5229672487164,374.05575759101566 1670.020324338666,350.30796001605785 Z" fill="url(#leaf13)" opacity="0.27" transform="rotate(265.1 1670.0 397.8)"/>
    <path d="M 702.7233459128731,514.5467319491321 C 727.851242231642,535.4866455481061 736.2272076712317,564.8025245866698 702.7233459128731,598.3063863450283 C 669.2194841545146,564.8025245866698 677.5954495941043,535.4866455481061 702.7233459128731,514.5467319491321 Z" fill="url(#leaf14)" opacity="0.25" transform="rotate(12.9 702.7 556.4)"/>
    <path d="M 746.2829098886336,382.47386004549435 C 795.3886459857922,423.3953067931265 811.7572246848451,480.68533223981154 746.2829098886336,546.159647036023 C 680.8085950924221,480.68533223981154 697.1771737914751,423.3953067931265 746.2829098886336,382.47386004549435 Z" fill="url(#leaf15)" opacity="0.38" transform="rotate(104.2 746.3 464.3)"/>
    <path d="M 683.7420345267453,374.4449373095483 C 720.0494257150613,404.70109663314497 732.1518894445,447.0597196861803 683.7420345267453,495.4695746039349 C 635.3321796089907,447.0597196861803 647.4346433384294,404.70109663314497 683.7420345267453,374.4449373095483 Z" fill="url(#leaf16)" opacity="0.31" transform="rotate(73.8 683.7 435.0)"/>
    <path d="M 179.44031571264463,524.1620282044687 C 228.17413080582978,564.773540782123 244.41873583689147,621.6296583908389 179.44031571264463,686.6080785150857 C 114.46189558839778,621.6296583908389 130.7065006194595,564.773540782123 179.44031571264463,524.1620282044687 Z" fill="url(#leaf17)" opacity="0.24" transform="rotate(353.9 179.4 605.4)"/>
    <path d="M 524.9276204485643,588.1251839462439 C 572.8061696290239,628.0239749299601 588.7656860225104,683.882282307163 524.9276204485643,747.7203478811091 C 461.08955487461816,683.882282307163 477.0490712681047,628.0239749299601 524.9276204485643,588.1251839462439 Z" fill="url(#leaf18)" opacity="0.26" transform="rotate(36.3 524.9 667.9)"/>
    <path d="M 1638.021173076101,492.6481863531284 C 1683.474242828103,530.5257444797967 1698.6252660787702,583.5543258571323 1638.021173076101,644.1584188598016 C 1577.4170800734316,583.5543258571323 1592.568103324099,530.5257444797967 1638.021173076101,492.6481863531284 Z" fill="url(#leaf19)" opacity="0.40" transform="rotate(229.6 1638.0 568.4)"/>
    <path d="M 1089.4762122680565,221.1104366610234 C 1143.9706030294506,266.52242896218513 1162.1353999499154,330.09921818381156 1089.4762122680565,402.7584058656703 C 1016.8170245861978,330.09921818381156 1034.9818215066625,266.52242896218513 1089.4762122680565,221.1104366610234 Z" fill="url(#leaf0)" opacity="0.37" transform="rotate(11.3 1089.5 311.9)"/>
    <path d="M 942.6767222053635,865.8454517386845 C 969.9671711884803,888.5874925579484 979.0639875161859,920.426349704918 942.6767222053635,956.8136150157404 C 906.2894568945411,920.426349704918 915.3862732222467,888.5874925579484 942.6767222053635,865.8454517386845 Z" fill="url(#leaf1)" opacity="0.21" transform="rotate(50.0 942.7 911.3)"/>
    <path d="M 1768.0819942381847,641.153647550147 C 1820.9362833811945,685.1988885026551 1838.5543797621976,746.8622258361665 1768.0819942381847,817.3346113601796 C 1697.6096087141718,746.8622258361665 1715.227705095175,685.1988885026551 1768.0819942381847,641.153647550147 Z" fill="url(#leaf2)" opacity="0.34" transform="rotate(326.5 1768.1 729.2)"/>
    <path d="M 781.3282012916964,232.64688807071565 C 826.9496086411361,270.6647275285821 842.1567444242827,323.8897027695951 781.3282012916964,384.7182459021814 C 720.49965815911,323.8897027695951 735.7067939422566,270.6647275285821 781.3282012916964,232.64688807071565 Z" fill="url(#leaf3)" opacity="0.37" transform="rotate(328.0 781.3 308.7)"/>
    <path d="M 1655.5855803277016,348.0556208655539 C 1697.5254531918565,383.0055149190164 1711.5054108132415,431.9353665938639 1655.5855803277016,487.85519707940387 C 1599.6657498421616,431.9353665938639 1613.6457074635466,383.0055149190164 1655.5855803277016,348.0556208655539 Z" fill="url(#leaf4)" opacity="0.31" transform="rotate(316.5 1655.6 418.0)"/>
    <path d="M 1306.351929259794,270.5483264019945 C 1339.7536094153807,298.38305986498335 1350.8875028005762,337.3516867131678 1306.351929259794,381.88726025395 C 1261.8163557190117,337.3516867131678 1272.9502491042072,298.38305986498335 1306.351929259794,270.5483264019945 Z" fill="url(#leaf5)" opacity="0.31" transform="rotate(54.2 1306.4 326.2)"/>
    <path d="M 1375.8408564909437,0.48602304766579607 C 1416.276958626434,34.18277482724098 1429.755659338264,81.35822731864624 1375.8408564909437,135.27303016596653 C 1321.9260536436234,81.35822731864624 1335.4047543554534,34.18277482724098 1375.8408564909437,0.48602304766579607 Z" fill="url(#leaf6)" opacity="0.39" transform="rotate(15.4 1375.8 67.9)"/>
    <path d="M 1094.2754638454633,801.9742709319626 C 1128.7429243911076,830.6971547199995 1140.2320779063225,870.9091920232512 1094.2754638454633,916.8658060841103 C 1048.318849784604,870.9091920232512 1059.808003299819,830.6971547199995 1094.2754638454633,801.9742709319626 Z" fill="url(#leaf7)" opacity="0.30" transform="rotate(126.0 1094.3 859.4)"/>
    <path d="M 256.0125242861486,554.9667883673441 C 291.88867532166574,584.8635808969417 303.8473923335048,626.7190904383784 256.0125242861486,674.5539584857346 C 208.17765623879242,626.7190904383784 220.1363732506315,584.8635808969417 256.0125242861486,554.9667883673441 Z" fill="url(#leaf8)" opacity="0.39" transform="rotate(94.9 256.0 614.8)"/>
    <path d="M 1375.3094933886257,332.00803597934737 C 1400.7695823483411,353.2247767791102 1409.256278668246,382.92821389877815 1375.3094933886257,416.87499917839864 C 1341.3627081090053,382.92821389877815 1349.8494044289102,353.2247767791102 1375.3094933886257,332.00803597934737 Z" fill="url(#leaf9)" opacity="0.38" transform="rotate(77.7 1375.3 374.4)"/>
    <path d="M 1860.793230466717,168.71727881811438 C 1916.2572309108282,214.9372791882071 1934.7452310588653,279.6452797063369 1860.793230466717,353.59728029848526 C 1786.8412298745686,279.6452797063369 1805.3292300226058,214.9372791882071 1860.793230466717,168.71727881811438 Z" fill="url(#leaf10)" opacity="0.28" transform="rotate(9.2 1860.8 261.2)"/>
    <path d="M 475.67079788861093,823.4419716699583 C 515.4699637508553,856.6079432218286 528.7363523716034,903.0403033944469 475.67079788861093,956.1058578774393 C 422.60524340561847,903.0403033944469 435.8716320263666,856.6079432218286 475.67079788861093,823.4419716699583 Z" fill="url(#leaf11)" opacity="0.20" transform="rotate(340.6 475.7 889.8)"/>
    <path d="M 1833.8328482253746,789.9187452207129 C 1886.7961972315657,834.0548693925389 1904.450646900296,895.845443233095 1833.8328482253746,966.4632419080165 C 1763.2150495504532,895.845443233095 1780.8694992191836,834.0548693925389 1833.8328482253746,789.9187452207129 Z" fill="url(#leaf12)" opacity="0.21" transform="rotate(323.9 1833.8 878.2)"/>
    <path d="M 1285.8318827746637,255.3686241795499 C 1340.6385922291026,301.04088205824917 1358.9074953805825,364.9820430884281 1285.8318827746637,438.05765569434686 C 1212.7562701687448,364.9820430884281 1231.0251733202247,301.04088205824917 1285.8318827746637,255.3686241795499 Z" fill="url(#leaf13)" opacity="0.24" transform="rotate(268.9 1285.8 346.7)"/>
    <path d="M 105.23582624546285,849.3484853775192 C 148.69038597046196,885.5606184816851 163.17523921212833,936.2576048275173 105.23582624546285,994.1970177941828 C 47.29641327879737,936.2576048275173 61.78126652046374,885.5606184816851 105.23582624546285,849.3484853775192 Z" fill="url(#leaf14)" opacity="0.32" transform="rotate(313.6 105.2 921.8)"/>
    <path d="M 993.0783787915201,367.87587347315036 C 1033.4400572747506,401.5106055425091 1046.893950102494,448.59923043961135 993.0783787915201,502.4148017505853 C 939.2628074805461,448.59923043961135 952.7167003082897,401.5106055425091 993.0783787915201,367.87587347315036 Z" fill="url(#leaf15)" opacity="0.37" transform="rotate(353.4 993.1 435.1)"/>
    <path d="M 1812.8464928897843,826.7150545477265 C 1861.324130605627,867.1130859775955 1877.4833431775746,923.670329979412 1812.8464928897843,988.3071802672024 C 1748.209642601994,923.670329979412 1764.3688551739415,867.1130859775955 1812.8464928897843,826.7150545477265 Z" fill="url(#leaf16)" opacity="0.34" transform="rotate(302.7 1812.8 907.5)"/>
    <path d="M 116.75811895733867,857.5934972938745 C 176.149161897072,907.0860330769857 195.94617621031645,976.3755831733412 116.75811895733867,1055.563640426319 C 37.57006170436088,976.3755831733412 57.36707601760534,907.0860330769857 116.75811895733867,857.5934972938745 Z" fill="url(#leaf17)" opacity="0.20" transform="rotate(280.8 116.8 956.6)"/>
    <path d="M 1199.1276083242985,387.7946779761158 C 1240.7098808872965,422.44657177861404 1254.5706384082957,470.9592231021116 1199.1276083242985,526.4022531861089 C 1143.6845782403013,470.9592231021116 1157.5453357613005,422.44657177861404 1199.1276083242985,387.7946779761158 Z" fill="url(#leaf18)" opacity="0.37" transform="rotate(239.2 1199.1 457.1)"/>
    <path d="M 1203.2539001668626,85.66524029431616 C 1254.302945475606,128.2061113849356 1271.3192939118537,187.76333091180283 1203.2539001668626,255.82872465679395 C 1135.1885064218716,187.76333091180283 1152.2048548581192,128.2061113849356 1203.2539001668626,85.66524029431616 Z" fill="url(#leaf19)" opacity="0.21" transform="rotate(346.2 1203.3 170.7)"/>
    <path d="M 698.6331502317524,486.0207373658454 C 730.4312196654068,512.5191285605574 741.0305761432917,549.6168762331542 698.6331502317524,592.0143021446934 C 656.2357243202132,549.6168762331542 666.835080798098,512.5191285605574 698.6331502317524,486.0207373658454 Z" fill="url(#leaf0)" opacity="0.27" transform="rotate(74.5 698.6 539.0)"/>
    <path d="M 1415.3667104270899,919.8610162467388 C 1442.7758522267925,942.701967746491 1451.9122328266933,974.6792998461442 1415.3667104270899,1011.2248222457478 C 1378.8211880274864,974.6792998461442 1387.9575686273872,942.701967746491 1415.3667104270899,919.8610162467388 Z" fill="url(#leaf1)" opacity="0.32" transform="rotate(55.7 1415.4 965.5)"/>
    <path d="M 163.48656005148723,732.5580219041128 C 217.75222086881806,777.7794059185551 235.84077447459498,841.0893435387744 163.48656005148723,913.4435579618821 C 91.13234562837947,841.0893435387744 109.2208992341564,777.7794059185551 163.48656005148723,732.5580219041128 Z" fill="url(#leaf2)" opacity="0.32" transform="rotate(26.5 163.5 823.0)"/>
    <path d="M 963.6026765648594,751.2565226793663 C 1023.4560979666539,801.1343738475285 1043.4072384339188,870.9633654829555 963.6026765648594,950.767927352015 C 883.7981146957999,870.9633654829555 903.7492551630648,801.1343738475285 963.6026765648594,751.2565226793663 Z" fill="url(#leaf3)" opacity="0.36" transform="rotate(160.5 963.6 851.0)"/>
    <path d="M 933.5965009035574,679.5250808142683 C 970.685773803468,710.4328082308605 983.0488647701048,753.7036266140894 933.5965009035574,803.1559904806369 C 884.14413703701,753.7036266140894 896.5072280036468,710.4328082308605 933.5965009035574,679.5250808142683 Z" fill="url(#leaf4)" opacity="0.32" transform="rotate(196.6 933.6 741.3)"/>
    <path d="M 345.86704621571715,-22.797910966858296 C 398.9171425281894,21.410502626868563 416.60050796568015,83.30228165808617 345.86704621571715,154.03574340804914 C 275.13358446575415,83.30228165808617 292.8169499032449,21.410502626868563 345.86704621571715,-22.797910966858296 Z" fill="url(#leaf5)" opacity="0.21" transform="rotate(304.1 345.9 65.6)"/>
    <path d="M 1292.7841993359586,20.054649547844235 C 1318.7384866550658,41.68322231376679 1327.3899157614348,71.96322418605838 1292.7841993359586,106.56894061153447 C 1258.1784829104824,71.96322418605838 1266.8299120168515,41.68322231376679 1292.7841993359586,20.054649547844235 Z" fill="url(#leaf6)" opacity="0.27" transform="rotate(337.2 1292.8 63.3)"/>
    <path d="M 774.2050493001832,164.32256769509598 C 814.5940699516906,197.98008490468547 828.0570768355263,245.10060899811074 774.2050493001832,298.9526365334539 C 720.35302176484,245.10060899811074 733.8160286486758,197.98008490468547 774.2050493001832,164.32256769509598 Z" fill="url(#leaf7)" opacity="0.21" transform="rotate(164.7 774.2 231.6)"/>
    <path d="M 1804.2545825097031,839.772136007932 C 1841.3049594949962,870.6474501623429 1853.6550851567606,913.8728899785183 1804.2545825097031,963.2733926255758 C 1754.8540798626457,913.8728899785183 1767.20420552441,870.6474501623429 1804.2545825097031,839.772136007932 Z" fill="url(#leaf8)" opacity="0.36" transform="rotate(260.1 1804.3 901.5)"/>
    <path d="M 798.4756817051319,266.3603611676894 C 826.4380116693557,289.6623028045425 835.7587883240969,322.28502109613686 798.4756817051319,359.56812771510187 C 761.1925750861669,322.28502109613686 770.5133517409082,289.6623028045425 798.4756817051319,266.3603611676894 Z" fill="url(#leaf9)" opacity="0.37" transform="rotate(232.1 798.5 313.0)"/>
    <path d="M 652.3045781356636,761.9998301294834 C 699.4707831275635,801.3050009560666 715.1928514581969,856.3322401132832 652.3045781356636,919.2205134358164 C 589.4163048131304,856.3322401132832 605.1383731437637,801.3050009560666 652.3045781356636,761.9998301294834 Z" fill="url(#leaf10)" opacity="0.29" transform="rotate(90.2 652.3 840.6)"/>
    <path d="M 1747.1520277853058,637.9407428025654 C 1798.0283948519586,680.3377153581094 1814.9871838741763,739.6934769358711 1747.1520277853058,807.5286330247416 C 1679.3168716964353,739.6934769358711 1696.275660718653,680.3377153581094 1747.1520277853058,637.9407428025654 Z" fill="url(#leaf11)" opacity="0.31" transform="rotate(253.8 1747.2 722.7)"/>
    <path d="M 308.90458470090874,276.04647994795545 C 352.02220001192455,311.97782604046864 366.39473844892984,362.2817105699871 308.90458470090874,419.7718643180082 C 251.41443095288764,362.2817105699871 265.78696938989293,311.97782604046864 308.90458470090874,276.04647994795545 Z" fill="url(#leaf12)" opacity="0.32" transform="rotate(37.1 308.9 347.9)"/>
    <path d="M 466.26676086020905,352.1635783623401 C 500.55084145033163,380.7336455207756 511.9788683137059,420.73173954258533 466.26676086020905,466.44384699608213 C 420.5546534067122,420.73173954258533 431.98268027008646,380.7336455207756 466.26676086020905,352.1635783623401 Z" fill="url(#leaf13)" opacity="0.24" transform="rotate(53.0 466.3 409.3)"/>
    <path d="M 200.92934462291976,711.0061180243425 C 245.04988234505294,747.7732327927869 259.75672825243066,799.247193468609 200.92934462291976,858.0745770981199 C 142.10196099340882,799.247193468609 156.80880690078658,747.7732327927869 200.92934462291976,711.0061180243425 Z" fill="url(#leaf14)" opacity="0.22" transform="rotate(240.4 200.9 784.5)"/>
    <path d="M 167.40910405291658,267.91517854995453 C 198.4532647818076,293.7853124906971 208.80131835810462,330.0035000077366 167.40910405291658,371.39571431292467 C 126.01688974772853,330.0035000077366 136.36494332402555,293.7853124906971 167.40910405291658,267.91517854995453 Z" fill="url(#leaf15)" opacity="0.22" transform="rotate(245.1 167.4 319.7)"/>
    <path d="M 403.34721032937955,618.2052500445125 C 460.47405581909516,665.8109546192755 479.5163376490004,732.4589410239437 403.34721032937955,808.6280683435646 C 327.1780830097587,732.4589410239437 346.22036483966394,665.8109546192755 403.34721032937955,618.2052500445125 Z" fill="url(#leaf16)" opacity="0.35" transform="rotate(303.9 403.3 713.4)"/>
    <path d="M 56.655129479388805,854.7725036072032 C 99.12333111000106,890.1626716327135 113.27939832020513,939.7089068684278 56.655129479388805,996.3331757092441 C 0.030860638572470123,939.7089068684278 14.186927848776556,890.1626716327135 56.655129479388805,854.7725036072032 Z" fill="url(#leaf17)" opacity="0.34" transform="rotate(342.8 56.7 925.6)"/>
    <path d="M 185.11764858255225,858.9080146429011 C 240.28969435124975,904.8847194501491 258.68037627414895,969.2521061802961 185.11764858255225,1042.814833871893 C 111.55492089095556,969.2521061802961 129.94560281385475,904.8847194501491 185.11764858255225,858.9080146429011 Z" fill="url(#leaf18)" opacity="0.29" transform="rotate(98.0 185.1 950.9)"/>
    <path d="M 361.74238242957443,607.0037825106285 C 391.230990105336,631.5776222404298 401.06052599725655,665.9809978621516 361.74238242957443,705.2991414298338 C 322.4242388618923,665.9809978621516 332.2537747538129,631.5776222404298 361.74238242957443,607.0037825106285 Z" fill="url(#leaf19)" opacity="0.27" transform="rotate(162.4 361.7 656.2)"/>
    <path d="M 174.62683893327193,70.65924028042826 C 199.542904826495,91.42262852478083 207.84826012423605,120.49137206687443 174.62683893327193,153.71279325783854 C 141.4054177423078,120.49137206687443 149.71077304004885,91.42262852478083 174.62683893327193,70.65924028042826 Z" fill="url(#leaf0)" opacity="0.25" transform="rotate(321.0 174.6 112.2)"/>
    <path d="M 1807.5447902693852,476.79763161395636 C 1864.6000818705354,524.3437079482482 1883.6185124042522,590.9082148162566 1807.5447902693852,666.9819369511235 C 1731.4710681345182,590.9082148162566 1750.489498668235,524.3437079482482 1807.5447902693852,476.79763161395636 Z" fill="url(#leaf1)" opacity="0.29" transform="rotate(296.4 1807.5 571.9)"/>
    <path d="M 928.6527042251525,683.7847124034017 C 975.4498700651671,722.7823506034139 991.0489253451719,777.3790440834309 928.6527042251525,839.7752652034503 C 866.2564831051332,777.3790440834309 881.855538385138,722.7823506034139 928.6527042251525,683.7847124034017 Z" fill="url(#leaf2)" opacity="0.28" transform="rotate(46.9 928.7 761.8)"/>
    <path d="M 56.80732123720029,267.08525395995105 C 110.20866160087623,311.58637092968104 128.00910838876823,373.88793468730296 56.80732123720029,445.0897218388709 C -14.394465914367636,373.88793468730296 3.4059808735243564,311.58637092968104 56.80732123720029,267.08525395995105 Z" fill="url(#leaf3)" opacity="0.21" transform="rotate(319.5 56.8 356.1)"/>
    <path d="M 585.0723333813432,614.4311768009433 C 637.9868697540904,658.5266237782325 655.6250485450062,720.2602495464376 585.0723333813432,790.8129647101006 C 514.5196182176803,720.2602495464376 532.157797008596,658.5266237782325 585.0723333813432,614.4311768009433 Z" fill="url(#leaf4)" opacity="0.32" transform="rotate(66.7 585.1 702.6)"/>
    <path d="M 1690.0514334041814,-11.624763391718332 C 1730.49680504312,22.07971297406384 1743.9785955894329,69.26597988615887 1690.0514334041814,123.19314207141035 C 1636.1242712189298,69.26597988615887 1649.6060617652427,22.07971297406384 1690.0514334041814,-11.624763391718332 Z" fill="url(#leaf5)" opacity="0.36" transform="rotate(59.0 1690.1 55.8)"/>
    <path d="M 671.6233473229181,434.4361481776884 C 696.9938331264377,455.57821968062143 705.450661727611,485.1771197847276 671.6233473229181,519.0044341894204 C 637.7960329182253,485.1771197847276 646.2528615193985,455.57821968062143 671.6233473229181,434.4361481776884 Z" fill="url(#leaf6)" opacity="0.31" transform="rotate(99.2 671.6 476.7)"/>
    <path d="M 1789.50579972835,880.6542258421746 C 1848.1703260296824,929.541331093285 1867.7251681301266,997.9832784448395 1789.50579972835,1076.202646846616 C 1711.2864313265734,997.9832784448395 1730.8412734270175,929.541331093285 1789.50579972835,880.6542258421746 Z" fill="url(#leaf7)" opacity="0.38" transform="rotate(274.0 1789.5 978.4)"/>
    <path d="M 629.1108403506986,733.3110358373715 C 676.2278151744497,772.5751815238307 691.9334734490334,827.5449854848737 629.1108403506986,890.3676185832085 C 566.2882072523638,827.5449854848737 581.9938655269475,772.5751815238307 629.1108403506986,733.3110358373715 Z" fill="url(#leaf8)" opacity="0.40" transform="rotate(31.1 629.1 811.8)"/>
    <path d="M 578.164027277615,302.30818383983353 C 633.8542847132059,348.71673170282594 652.4177038584029,413.6886987110153 578.164027277615,487.94237529180316 C 503.9103506968271,413.6886987110153 522.4737698420241,348.71673170282594 578.164027277615,302.30818383983353 Z" fill="url(#leaf9)" opacity="0.21" transform="rotate(15.6 578.2 395.1)"/>
    <path d="M 1187.1933595993776,604.0184736419022 C 1230.9088895809514,640.4480819598805 1245.4807329081427,691.4495336050499 1187.1933595993776,749.736906913815 C 1128.9059862906124,691.4495336050499 1143.4778296178038,640.4480819598805 1187.1933595993776,604.0184736419022 Z" fill="url(#leaf10)" opacity="0.35" transform="rotate(143.9 1187.2 676.9)"/>
    <path d="M 1313.809721184542,59.933869952852234 C 1364.2213099069672,101.94352722153988 1381.0251728144422,160.7570473977026 1313.809721184542,227.97249902760282 C 1246.5942695546419,160.7570473977026 1263.3981324621168,101.94352722153988 1313.809721184542,59.933869952852234 Z" fill="url(#leaf11)" opacity="0.39" transform="rotate(269.6 1313.8 144.0)"/>
    <path d="M 1650.4537926999587,426.4652591645179 C 1696.3892435297223,464.7448015226542 1711.701060472977,518.336160824045 1650.4537926999587,579.5834285970632 C 1589.2065249269406,518.336160824045 1604.5183418701952,464.7448015226542 1650.4537926999587,426.4652591645179 Z" fill="url(#leaf12)" opacity="0.26" transform="rotate(31.4 1650.5 503.0)"/>
    <path d="M 1471.8675180525731,317.01315048319043 C 1527.5776356886322,363.4382485132397 1546.147674900652,428.4333857553087 1471.8675180525731,502.7135426033875 C 1397.5873612044943,428.4333857553087 1416.157400416514,363.4382485132397 1471.8675180525731,317.01315048319043 Z" fill="url(#leaf13)" opacity="0.31" transform="rotate(313.1 1471.9 409.9)"/>
    <path d="M 1278.936682388919,433.31006873815306 C 1326.6191990420625,473.0454992824392 1342.513371259777,528.6751020444398 1278.936682388919,592.2517909152976 C 1215.3599935180612,528.6751020444398 1231.2541657357756,473.0454992824392 1278.936682388919,433.31006873815306 Z" fill="url(#leaf14)" opacity="0.26" transform="rotate(287.8 1278.9 512.8)"/>
    <path d="M 427.10703737359455,114.24863420986563 C 486.96235895683697,164.12806886256763 506.9141328179178,233.95927737635043 427.10703737359455,313.7663728206736 C 347.2999419292713,233.95927737635043 367.25171579035214,164.12806886256763 427.10703737359455,114.24863420986563 Z" fill="url(#leaf15)" opacity="0.21" transform="rotate(171.7 427.1 214.0)"/>
    <path d="M 1345.6326858516525,-32.580264911616446 C 1400.0084396114864,12.732863221578448 1418.1336908647643,76.1712426080513 1345.6326858516525,148.67224762116314 C 1273.1316808385407,76.1712426080513 1291.2569320918185,12.732863221578448 1345.6326858516525,-32.580264911616446 Z" fill="url(#leaf16)" opacity="0.26" transform="rotate(236.2 1345.6 58.0)"/>
    <path d="M 1173.4027095636675,594.0996271251622 C 1203.7866158182967,619.41954900402 1213.91458456984,654.8674396344209 1173.4027095636675,695.3793146405933 C 1132.890834557495,654.8674396344209 1143.0188033090383,619.41954900402 1173.4027095636675,594.0996271251622 Z" fill="url(#leaf17)" opacity="0.38" transform="rotate(234.1 1173.4 644.7)"/>
    <path d="M 1241.0651015191324,641.7999536113152 C 1274.9374307185383,670.02689461082 1286.2282071183402,709.5446120101269 1241.0651015191324,754.7077176093346 C 1195.9019959199247,709.5446120101269 1207.1927723197266,670.02689461082 1241.0651015191324,641.7999536113152 Z" fill="url(#leaf18)" opacity="0.32" transform="rotate(252.2 1241.1 698.3)"/>
    <path d="M 144.17063359818295,443.7883784978077 C 178.8198205969073,472.66270099674466 190.3695495964821,513.0867524952564 144.17063359818295,559.2856684935556 C 97.97171759988379,513.0867524952564 109.52144659945859,472.66270099674466 144.17063359818295,443.7883784978077 Z" fill="url(#leaf19)" opacity="0.20" transform="rotate(186.0 144.2 501.5)"/>
    <path d="M 1622.8904760805287,610.1299228508971 C 1681.602318936366,659.0564585640947 1701.172933221645,727.5536085625714 1622.8904760805287,805.8360657036877 C 1544.6080189394124,727.5536085625714 1564.1786332246916,659.0564585640947 1622.8904760805287,610.1299228508971 Z" fill="url(#leaf0)" opacity="0.35" transform="rotate(341.0 1622.9 708.0)"/>
    <path d="M 252.02291803761617,592.8013665764855 C 284.90992320253383,620.2072042139168 295.87225825750636,658.5753769063208 252.02291803761617,702.424717126211 C 208.17357781772597,658.5753769063208 219.13591287269853,620.2072042139168 252.02291803761617,592.8013665764855 Z" fill="url(#leaf1)" opacity="0.28" transform="rotate(330.2 252.0 647.6)"/>
    <path d="M 451.1706672532748,921.5305854552093 C 497.58255218096855,960.2071562282875 513.0531804901998,1014.3543553105969 451.1706672532748,1076.236868547522 C 389.28815401634984,1014.3543553105969 404.7587823255811,960.2071562282875 451.1706672532748,921.5305854552093 Z" fill="url(#leaf2)" opacity="0.38" transform="rotate(222.1 451.2 998.9)"/>
    <path d="M 1031.1267873791396,85.81461674338067 C 1061.1991184773613,110.87489265856541 1071.2232288434352,145.95927893982406 1031.1267873791396,186.05572040411965 C 991.030345914844,145.95927893982406 1001.054456280918,110.87489265856541 1031.1267873791396,85.81461674338067 Z" fill="url(#leaf3)" opacity="0.39" transform="rotate(73.6 1031.1 135.9)"/>
    <path d="M 918.0254558698587,377.3472757573247 C 957.2637510729346,410.0458550932213 970.3431828072933,455.82386616347657 918.0254558698587,508.1415931009111 C 865.7077289324241,455.82386616347657 878.7871606667827,410.0458550932213 918.0254558698587,377.3472757573247 Z" fill="url(#leaf4)" opacity="0.26" transform="rotate(103.7 918.0 442.7)"/>
    <path d="M 953.4715145085084,25.871204774923385 C 995.798733575263,61.14388733055217 1009.9078065975145,110.52564290843247 953.4715145085084,166.9619349974385 C 897.0352224195024,110.52564290843247 911.1442954417539,61.14388733055217 953.4715145085084,25.871204774923385 Z" fill="url(#leaf5)" opacity="0.33" transform="rotate(241.2 953.5 96.4)"/>
    <path d="M 1750.9473706956321,278.09267932463104 C 1794.4568132451977,314.3505481159357 1808.9599607617195,365.1115644237621 1750.9473706956321,423.1241544898495 C 1692.9347806295448,365.1115644237621 1707.4379281460665,314.3505481159357 1750.9473706956321,278.09267932463104 Z" fill="url(#leaf6)" opacity="0.36" transform="rotate(92.4 1750.9 350.6)"/>
    <path d="M 1195.0312249890844,244.53311836315083 C 1246.1622630232735,287.142316724975 1263.205942368003,346.7951944315287 1195.0312249890844,414.96991181044734 C 1126.8565076101659,346.7951944315287 1143.9001869548954,287.142316724975 1195.0312249890844,244.53311836315083 Z" fill="url(#leaf7)" opacity="0.32" transform="rotate(230.5 1195.0 329.8)"/>
    <path d="M 975.4599881501293,904.738607581229 C 1019.7161590198278,941.6187499726443 1034.468215976394,993.250949320626 975.4599881501293,1052.2591771468906 C 916.4517603238646,993.250949320626 931.2038172804308,941.6187499726443 975.4599881501293,904.738607581229 Z" fill="url(#leaf8)" opacity="0.28" transform="rotate(168.8 975.5 978.5)"/>
    <path d="M 137.93099784064373,552.2721513011219 C 167.28022748037645,576.7298426675659 177.06330402695403,610.9706105805874 137.93099784064373,650.1029167668977 C 98.79869165433342,610.9706105805874 108.581768200911,576.7298426675659 137.93099784064373,552.2721513011219 Z" fill="url(#leaf9)" opacity="0.21" transform="rotate(165.7 137.9 601.2)"/>
    <path d="M 963.4946944180734,921.5501741953437 C 1015.5698216596802,964.9461135633494 1032.9281974068824,1025.7004286785573 963.4946944180734,1095.1339316673661 C 894.0611914292645,1025.7004286785573 911.4195671764667,964.9461135633494 963.4946944180734,921.5501741953437 Z" fill="url(#leaf10)" opacity="0.25" transform="rotate(83.9 963.5 1008.3)"/>
    <path d="M 1182.3803961146516,414.76797081493135 C 1215.856408867235,442.66464810875067 1227.0150797847625,481.7199963200977 1182.3803961146516,526.3546799902086 C 1137.7457124445407,481.7199963200977 1148.9043833620683,442.66464810875067 1182.3803961146516,414.76797081493135 Z" fill="url(#leaf11)" opacity="0.26" transform="rotate(244.3 1182.4 470.6)"/>
    <path d="M 1207.0119573628524,649.8322118269895 C 1248.2911351759149,684.2315266712081 1262.0508611136024,732.3905674531143 1207.0119573628524,787.4294712038642 C 1151.9730536121024,732.3905674531143 1165.73277954979,684.2315266712081 1207.0119573628524,649.8322118269895 Z" fill="url(#leaf12)" opacity="0.32" transform="rotate(208.8 1207.0 718.6)"/>
    <path d="M 592.2641212212446,34.33153259075579 C 630.5681455852271,66.25155289407446 643.3361537065546,110.93958131872061 592.2641212212446,162.0116138040305 C 541.1920887359347,110.93958131872061 553.9600968572622,66.25155289407446 592.2641212212446,34.33153259075579 Z" fill="url(#leaf13)" opacity="0.36" transform="rotate(84.5 592.3 98.2)"/>
    <path d="M 1783.8291263186522,806.0267122780097 C 1830.5019396240677,844.920723365856 1846.0595440592065,899.3723388888409 1783.8291263186522,961.6027566293951 C 1721.598708578098,899.3723388888409 1737.1563130132367,844.920723365856 1783.8291263186522,806.0267122780097 Z" fill="url(#leaf14)" opacity="0.23" transform="rotate(160.6 1783.8 883.8)"/>
    <path d="M 1409.039217228478,12.994355962338844 C 1451.2133556184267,48.13947128729616 1465.2714017484097,97.3426327422364 1409.039217228478,153.5748172621681 C 1352.8070327085463,97.3426327422364 1366.8650788385294,48.13947128729616 1409.039217228478,12.994355962338844 Z" fill="url(#leaf15)" opacity="0.26" transform="rotate(238.7 1409.0 83.3)"/>
    <path d="M 1313.5179512334998,352.4569752807092 C 1372.3370809770263,401.4729167336478 1391.9434575582018,470.095234767762 1313.5179512334998,548.5207410924639 C 1235.092444908798,470.095234767762 1254.6988214899734,401.4729167336478 1313.5179512334998,352.4569752807092 Z" fill="url(#leaf16)" opacity="0.32" transform="rotate(261.2 1313.5 450.5)"/>
    <path d="M 749.232432280609,647.013374109889 C 785.0029523732169,676.8221408537289 796.9264590707529,718.5544142951047 749.232432280609,766.2484410852486 C 701.5384054904652,718.5544142951047 713.4619121880012,676.8221408537289 749.232432280609,647.013374109889 Z" fill="url(#leaf17)" opacity="0.32" transform="rotate(73.4 749.2 706.6)"/>
    <path d="M 70.99009453870575,224.60497574943662 C 127.42435723625378,271.63352799739334 146.23577813543648,337.4735011445327 70.99009453870575,412.7191847412634 C -4.255589058024967,337.4735011445327 14.555831841157712,271.63352799739334 70.99009453870575,224.60497574943662 Z" fill="url(#leaf18)" opacity="0.23" transform="rotate(47.6 71.0 318.7)"/>
    <path d="M 491.5883559270223,940.9969272908185 C 525.6516913327757,969.3830401289464 537.0061364680269,1009.1235981023253 491.5883559270223,1054.5413786433298 C 446.17057538601773,1009.1235981023253 457.52502052126886,969.3830401289464 491.5883559270223,940.9969272908185 Z" fill="url(#leaf19)" opacity="0.31" transform="rotate(156.4 491.6 997.8)"/>
    <path d="M 1541.5378359377123,663.5039413701169 C 1593.0286713538017,706.4129708835246 1610.1922831591646,766.4856122022953 1541.5378359377123,835.1400594237476 C 1472.88338871626,766.4856122022953 1490.047000521623,706.4129708835246 1541.5378359377123,663.5039413701169 Z" fill="url(#leaf0)" opacity="0.32" transform="rotate(238.2 1541.5 749.3)"/>
    <path d="M 1738.3014241367262,631.801087424228 C 1784.3896682710854,670.2079575361939 1799.7524163158716,723.9775756929463 1738.3014241367262,785.4285678720919 C 1676.8504319575807,723.9775756929463 1692.213180002367,670.2079575361939 1738.3014241367262,631.801087424228 Z" fill="url(#leaf1)" opacity="0.31" transform="rotate(260.9 1738.3 708.6)"/>
    <path d="M 1420.620646239245,587.4594180431809 C 1471.1319534202655,629.5521740273647 1487.969055813939,688.482032405222 1420.620646239245,755.830441979916 C 1353.272236664551,688.482032405222 1370.1093390582244,629.5521740273647 1420.620646239245,587.4594180431809 Z" fill="url(#leaf2)" opacity="0.30" transform="rotate(66.6 1420.6 671.6)"/>
    <path d="M 1381.3042217609457,109.31766462199606 C 1431.4933573245276,151.1419442583144 1448.223069179055,209.69593574916004 1381.3042217609457,276.61478316726937 C 1314.3853743428363,209.69593574916004 1331.1150861973638,151.1419442583144 1381.3042217609457,109.31766462199606 Z" fill="url(#leaf3)" opacity="0.38" transform="rotate(177.5 1381.3 193.0)"/>
    <path d="M 1525.5712350052822,963.2965559899792 C 1557.486265112384,989.8924144125641 1568.1246084814181,1027.126616204183 1525.5712350052822,1069.6799896803188 C 1483.0178615291463,1027.126616204183 1493.6562048981805,989.8924144125641 1525.5712350052822,963.2965559899792 Z" fill="url(#leaf4)" opacity="0.25" transform="rotate(237.3 1525.6 1016.5)"/>
    <path d="M 1463.2703491679679,13.985066413129147 C 1512.8491072425336,55.300698141933836 1529.3753599340553,113.1425825622604 1463.2703491679679,179.2475933283479 C 1397.1653384018805,113.1425825622604 1413.6915910934022,55.300698141933836 1463.2703491679679,13.985066413129147 Z" fill="url(#leaf5)" opacity="0.24" transform="rotate(334.2 1463.3 96.6)"/>
    <path d="M 52.549588902545516,330.8530489112304 C 90.43004925623414,362.4200992059709 103.05686937413036,406.61396961860765 52.549588902545516,457.12125009019246 C 2.0423084309606736,406.61396961860765 14.66912854885689,362.4200992059709 52.549588902545516,330.8530489112304 Z" fill="url(#leaf6)" opacity="0.36" transform="rotate(260.9 52.5 394.0)"/>
    <path d="M 1019.2642753195904,66.56399428339313 C 1043.2978742163775,86.59199336404907 1051.3090738486399,114.6311920769674 1019.2642753195904,146.6759906060169 C 987.2194767905409,114.6311920769674 995.2306764228033,86.59199336404907 1019.2642753195904,66.56399428339313 Z" fill="url(#leaf7)" opacity="0.33" transform="rotate(219.5 1019.3 106.6)"/>
    <path d="M 1601.0843230241499,790.3678197637906 C 1656.8748959098125,836.8599638351762 1675.4717535383668,901.9489655351161 1601.0843230241499,976.3363960493331 C 1526.696892509933,901.9489655351161 1545.2937501384872,836.8599638351762 1601.0843230241499,790.3678197637906 Z" fill="url(#leaf8)" opacity="0.23" transform="rotate(182.5 1601.1 883.4)"/>
    <path d="M 658.1578841198634,529.3655067863007 C 717.9131695848206,579.1615780070983 737.8315980731397,648.876077716215 658.1578841198634,728.5497916694914 C 578.4841701665871,648.876077716215 598.4025986549062,579.1615780070983 658.1578841198634,529.3655067863007 Z" fill="url(#leaf9)" opacity="0.21" transform="rotate(259.7 658.2 629.0)"/>
    <path d="M 679.4762579120162,598.7750053456626 C 739.2540542094189,648.5898355934982 759.179986308553,718.3305979404679 679.4762579120162,798.0343263370047 C 599.7725295154794,718.3305979404679 619.6984616146135,648.5898355934982 679.4762579120162,598.7750053456626 Z" fill="url(#leaf10)" opacity="0.39" transform="rotate(342.4 679.5 698.4)"/>
    <path d="M 373.85561027908614,190.22533568409676 C 429.6525547762206,236.7227894317088 448.2515362752654,301.8192246783657 373.85561027908614,376.21515067454493 C 299.4596842829069,301.8192246783657 318.0586657819517,236.7227894317088 373.85561027908614,190.22533568409676 Z" fill="url(#leaf11)" opacity="0.26" transform="rotate(50.5 373.9 283.2)"/>
    <path d="M 108.01615039363679,418.91955469869947 C 162.64414122988583,464.44288039557364 180.8534715086355,528.1755363711975 108.01615039363679,601.0128574861963 C 35.17882927863808,528.1755363711975 53.38815955738776,464.44288039557364 108.01615039363679,418.91955469869947 Z" fill="url(#leaf12)" opacity="0.20" transform="rotate(347.5 108.0 510.0)"/>
    <path d="M 744.3046700694498,628.4326595949675 C 804.1067506905239,678.2677267791959 824.0407775642153,748.0368208371157 744.3046700694498,827.7729283318812 C 664.5685625746843,748.0368208371157 684.5025894483757,678.2677267791959 744.3046700694498,628.4326595949675 Z" fill="url(#leaf13)" opacity="0.38" transform="rotate(183.3 744.3 728.1)"/>
    <path d="M 452.66066960868545,251.43386641075887 C 495.3533580104262,287.0111067455428 509.58425414433975,336.8192432142403 452.66066960868545,393.7428277498946 C 395.73708507303115,336.8192432142403 409.9679812069447,287.0111067455428 452.66066960868545,251.43386641075887 Z" fill="url(#leaf14)" opacity="0.21" transform="rotate(249.5 452.7 322.6)"/>
    <path d="M 1847.4358498378792,817.6440868464122 C 1893.3415138358116,855.8988068446891 1908.6434018351224,909.4554148422769 1847.4358498378792,970.6629668395201 C 1786.228297840636,909.4554148422769 1801.5301858399469,855.8988068446891 1847.4358498378792,817.6440868464122 Z" fill="url(#leaf15)" opacity="0.38" transform="rotate(128.3 1847.4 894.2)"/>
    <path d="M 291.2704161467981,599.7797989108157 C 324.0863143908665,627.1263807808728 335.02494713888933,665.4115953989525 291.2704161467981,709.1661263910438 C 247.51588515470684,665.4115953989525 258.45451790272966,627.1263807808728 291.2704161467981,599.7797989108157 Z" fill="url(#leaf16)" opacity="0.38" transform="rotate(238.2 291.3 654.5)"/>
    <path d="M 1253.0367319552647,907.5221743877242 C 1278.6337470234478,928.8530202778767 1287.1660853795088,958.7162045240902 1253.0367319552647,992.8455579483342 C 1218.9073785310206,958.7162045240902 1227.4397168870817,928.8530202778767 1253.0367319552647,907.5221743877242 Z" fill="url(#leaf17)" opacity="0.21" transform="rotate(280.1 1253.0 950.2)"/>
    <path d="M 983.5026886530529,546.6185544768689 C 1023.7783350605854,580.1815931498126 1037.2035505297629,627.1698472919338 983.5026886530529,680.8707091686438 C 929.801826776343,627.1698472919338 943.2270422455205,580.1815931498126 983.5026886530529,546.6185544768689 Z" fill="url(#leaf18)" opacity="0.26" transform="rotate(164.2 983.5 613.7)"/>
    <path d="M 1541.9274402796216,752.3506867270252 C 1600.2201518532906,800.9279463717494 1619.6510557111803,868.9361098743633 1541.9274402796216,946.659725305922 C 1464.2038248480628,868.9361098743633 1483.6347287059525,800.9279463717494 1541.9274402796216,752.3506867270252 Z" fill="url(#leaf19)" opacity="0.20" transform="rotate(93.4 1541.9 849.5)"/>
    <path d="M 125.28670438379746,517.5636933038305 C 159.270025084263,545.8831272208852 170.59779865108487,585.5303347047617 125.28670438379746,630.8414289720491 C 79.97561011651004,585.5303347047617 91.3033836833319,545.8831272208852 125.28670438379746,517.5636933038305 Z" fill="url(#leaf0)" opacity="0.39" transform="rotate(333.0 125.3 574.2)"/>
    <path d="M 868.7495381094769,406.9207713521562 C 911.2769930637171,442.36031714735634 925.4528113817971,491.9756812606366 868.7495381094769,548.6789545329568 C 812.0462648371567,491.9756812606366 826.2220831552368,442.36031714735634 868.7495381094769,406.9207713521562 Z" fill="url(#leaf1)" opacity="0.38" transform="rotate(130.6 868.7 477.8)"/>
    <path d="M 867.5895292486923,831.5968764998189 C 903.9580240261758,861.9039554810552 916.0808556186704,904.333866054786 867.5895292486923,952.8251924247639 C 819.0982028787142,904.333866054786 831.2210344712088,861.9039554810552 867.5895292486923,831.5968764998189 Z" fill="url(#leaf2)" opacity="0.35" transform="rotate(178.8 867.6 892.2)"/>
    <path d="M 867.2077511910479,967.2515786153322 C 892.3859783999109,988.233434622718 900.7787208028652,1017.6080330330582 867.2077511910479,1051.1790026448755 C 833.6367815792306,1017.6080330330582 842.029523982185,988.233434622718 867.2077511910479,967.2515786153322 Z" fill="url(#leaf3)" opacity="0.34" transform="rotate(348.4 867.2 1009.2)"/>
    <path d="M 1822.9940274674689,471.25287092523956 C 1868.1523018592043,508.8847662516858 1883.205059989783,561.5694197087105 1822.9940274674689,621.7804522310245 C 1762.7829949451548,561.5694197087105 1777.8357530757335,508.8847662516858 1822.9940274674689,471.25287092523956 Z" fill="url(#leaf4)" opacity="0.29" transform="rotate(178.8 1823.0 546.5)"/>
    <path d="M 880.6381827975437,208.01063091724188 C 938.7546330338222,256.44100611414063 958.1267831125817,324.2435313897989 880.6381827975437,401.7321317048369 C 803.1495824825056,324.2435313897989 822.5217325612651,256.44100611414063 880.6381827975437,208.01063091724188 Z" fill="url(#leaf5)" opacity="0.20" transform="rotate(20.6 880.6 304.9)"/>
  </g>

  <!-- Central star shape -->
  <polygon points="960.0,279.9 1036.4,434.8 1207.4,459.6 1083.7,580.2 1112.9,750.4 960.0,670.0 807.1,750.4 836.3,580.2 712.6,459.6 883.6,434.8" 
           fill="#45B7D1" 
           transform="rotate(138.9 960.0 540.0)"/>
</svg>