<?xml version="1.0" encoding="UTF-8"?>
<svg xmlns="http://www.w3.org/2000/svg" viewBox="0 0 1920 1080" width="1920" height="1080">
  <defs>
    <linearGradient id="bgGrad" x1="0%" y1="0%" x2="100%" y2="100%">
      <stop offset="0%" stop-color="#FF1493"/>
      <stop offset="100%" stop-color="#96E6A1"/>
    </linearGradient>
    <clipPath id="complexClip"><polygon points="1350.4,540.0 1516.5,606.5 1330.2,632.7 1321.0,687.5 1264.7,730.3 1162.6,737.4 1079.7,747.2 1001.8,763.5 923.2,736.8 828.4,767.8 694.0,799.2 584.7,774.5 647.6,667.7 608.3,628.1 523.2,592.2 507.4,540.0 450.4,479.1 649.3,462.2 639.4,409.0 632.1,335.2 780.9,365.5 854.8,357.9 913.0,288.4 999.6,328.1 1070.1,349.4 1221.6,285.1 1192.8,394.6 1275.4,411.1 1427.2,423.0 1422.8,484.7"/></clipPath>
    <radialGradient id="leaf0" cx="50%" cy="50%" r="70%">
      <stop offset="0%" stop-color="#DC143C"/>
      <stop offset="50%" stop-color="#00FA9A"/>
      <stop offset="100%" stop-color="#32CD32"/>
    </radialGradient>
    <radialGradient id="leaf1" cx="50%" cy="50%" r="70%">
      <stop offset="0%" stop-color="#FF4500"/>
      <stop offset="50%" stop-color="#DC143C"/>
      <stop offset="100%" stop-color="#00CED1"/>
    </radialGradient>
    <radialGradient id="leaf2" cx="50%" cy="50%" r="70%">
      <stop offset="0%" stop-color="#FF69B4"/>
      <stop offset="50%" stop-color="#4ECDC4"/>
      <stop offset="100%" stop-color="#7B68EE"/>
    </radialGradient>
    <radialGradient id="leaf3" cx="50%" cy="50%" r="70%">
      <stop offset="0%" stop-color="#DC143C"/>
      <stop offset="50%" stop-color="#4ECDC4"/>
      <stop offset="100%" stop-color="#FF1493"/>
    </radialGradient>
    <radialGradient id="leaf4" cx="50%" cy="50%" r="70%">
      <stop offset="0%" stop-color="#DC143C"/>
      <stop offset="50%" stop-color="#FF4500"/>
      <stop offset="100%" stop-color="#32CD32"/>
    </radialGradient>
    <radialGradient id="leaf5" cx="50%" cy="50%" r="70%">
      <stop offset="0%" stop-color="#00CED1"/>
      <stop offset="50%" stop-color="#4ECDC4"/>
      <stop offset="100%" stop-color="#FF1493"/>
    </radialGradient>
    <radialGradient id="leaf6" cx="50%" cy="50%" r="70%">
      <stop offset="0%" stop-color="#96E6A1"/>
      <stop offset="50%" stop-color="#7B68EE"/>
      <stop offset="100%" stop-color="#FFD700"/>
    </radialGradient>
    <radialGradient id="leaf7" cx="50%" cy="50%" r="70%">
      <stop offset="0%" stop-color="#FF69B4"/>
      <stop offset="50%" stop-color="#32CD32"/>
      <stop offset="100%" stop-color="#FF1493"/>
    </radialGradient>
    <radialGradient id="leaf8" cx="50%" cy="50%" r="70%">
      <stop offset="0%" stop-color="#00CED1"/>
      <stop offset="50%" stop-color="#96E6A1"/>
      <stop offset="100%" stop-color="#DC143C"/>
    </radialGradient>
    <radialGradient id="leaf9" cx="50%" cy="50%" r="70%">
      <stop offset="0%" stop-color="#96E6A1"/>
      <stop offset="50%" stop-color="#FF69B4"/>
      <stop offset="100%" stop-color="#DC143C"/>
    </radialGradient>
    <radialGradient id="leaf10" cx="50%" cy="50%" r="70%">
      <stop offset="0%" stop-color="#45B7D1"/>
      <stop offset="50%" stop-color="#9370DB"/>
      <stop offset="100%" stop-color="#96E6A1"/>
    </radialGradient>
    <radialGradient id="leaf11" cx="50%" cy="50%" r="70%">
      <stop offset="0%" stop-color="#FFE66D"/>
      <stop offset="50%" stop-color="#9370DB"/>
      <stop offset="100%" stop-color="#96E6A1"/>
    </radialGradient>
    <radialGradient id="leaf12" cx="50%" cy="50%" r="70%">
      <stop offset="0%" stop-color="#45B7D1"/>
      <stop offset="50%" stop-color="#4ECDC4"/>
      <stop offset="100%" stop-color="#32CD32"/>
    </radialGradient>
    <radialGradient id="leaf13" cx="50%" cy="50%" r="70%">
      <stop offset="0%" stop-color="#FFE66D"/>
      <stop offset="50%" stop-color="#45B7D1"/>
      <stop offset="100%" stop-color="#FF4500"/>
    </radialGradient>
    <radialGradient id="leaf14" cx="50%" cy="50%" r="70%">
      <stop offset="0%" stop-color="#FFD700"/>
      <stop offset="50%" stop-color="#96E6A1"/>
      <stop offset="100%" stop-color="#FF4500"/>
    </radialGradient>
    <radialGradient id="leaf15" cx="50%" cy="50%" r="70%">
      <stop offset="0%" stop-color="#00CED1"/>
      <stop offset="50%" stop-color="#FF1493"/>
      <stop offset="100%" stop-color="#FFD700"/>
    </radialGradient>
    <radialGradient id="leaf16" cx="50%" cy="50%" r="70%">
      <stop offset="0%" stop-color="#4ECDC4"/>
      <stop offset="50%" stop-color="#FF1493"/>
      <stop offset="100%" stop-color="#00FA9A"/>
    </radialGradient>
    <radialGradient id="leaf17" cx="50%" cy="50%" r="70%">
      <stop offset="0%" stop-color="#00CED1"/>
      <stop offset="50%" stop-color="#7B68EE"/>
      <stop offset="100%" stop-color="#FF1493"/>
    </radialGradient>
    <radialGradient id="leaf18" cx="50%" cy="50%" r="70%">
      <stop offset="0%" stop-color="#FFE66D"/>
      <stop offset="50%" stop-color="#00FA9A"/>
      <stop offset="100%" stop-color="#00CED1"/>
    </radialGradient>
    <radialGradient id="leaf19" cx="50%" cy="50%" r="70%">
      <stop offset="0%" stop-color="#FF4500"/>
      <stop offset="50%" stop-color="#96E6A1"/>
      <stop offset="100%" stop-color="#9370DB"/>
    </radialGradient>
  </defs>

  <!-- Background -->
  <rect width="1920" height="1080" fill="url(#bgGrad)"/>
  
  <!-- Leaves with clip-path -->
  <g clip-path="url(#complexClip)">
    <path d="M 244.92728307005726,554.4239674246697 C 277.8971993822182,581.8988976848038 288.8871714862719,620.3638000489917 244.92728307005726,664.3236884652064 C 200.9673946538426,620.3638000489917 211.95736675789627,581.8988976848038 244.92728307005726,554.4239674246697 Z" fill="url(#leaf0)" opacity="0.33" transform="rotate(4.4 244.9 609.4)"/>
    <path d="M 1228.8439002320758,293.9988647964791 C 1287.2973652273192,342.7100856258486 1306.781853559067,410.9057947869658 1228.8439002320758,488.84374811395696 C 1150.9059469050846,410.9057947869658 1170.3904352368324,342.7100856258486 1228.8439002320758,293.9988647964791 Z" fill="url(#leaf1)" opacity="0.30" transform="rotate(220.8 1228.8 391.4)"/>
    <path d="M 153.10284188527493,820.7914987488178 C 187.16560609956696,849.1771355940612 198.5198608376643,888.9170271774019 153.10284188527493,934.3340461297913 C 107.68582293288554,888.9170271774019 119.0400776709829,849.1771355940612 153.10284188527493,820.7914987488178 Z" fill="url(#leaf2)" opacity="0.36" transform="rotate(99.3 153.1 877.6)"/>
    <path d="M 768.8930134876518,687.6013935892388 C 800.6421859836435,714.0590373358986 811.2252434823074,751.099738581222 768.8930134876518,793.4319685758776 C 726.5607834929963,751.099738581222 737.1438409916602,714.0590373358986 768.8930134876518,687.6013935892388 Z" fill="url(#leaf3)" opacity="0.22" transform="rotate(243.6 768.9 740.5)"/>
    <path d="M 1111.8648026603457,150.2490332394464 C 1165.6519067466816,195.0716199780597 1183.580941442127,257.82324141211825 1111.8648026603457,329.53938019389955 C 1040.1486638785645,257.82324141211825 1058.07769857401,195.0716199780597 1111.8648026603457,150.2490332394464 Z" fill="url(#leaf4)" opacity="0.30" transform="rotate(344.7 1111.9 239.9)"/>
    <path d="M 1135.6927857605158,532.0085524902171 C 1186.9913482812467,574.7573545908261 1204.0908691214902,634.6056775316788 1135.6927857605158,703.0037608926533 C 1067.2947023995414,634.6056775316788 1084.3942232397849,574.7573545908261 1135.6927857605158,532.0085524902171 Z" fill="url(#leaf5)" opacity="0.35" transform="rotate(269.2 1135.7 617.5)"/>
    <path d="M 81.33759894391716,561.8844612185766 C 138.05645313205036,609.1501730420209 156.9627378614281,675.322169594843 81.33759894391716,750.947308512354 C 5.712460026406205,675.322169594843 24.61874475578395,609.1501730420209 81.33759894391716,561.8844612185766 Z" fill="url(#leaf6)" opacity="0.36" transform="rotate(278.2 81.3 656.4)"/>
    <path d="M 675.1893199525672,654.2143206420408 C 729.5147031140708,699.4854732766271 747.6231641679053,762.8650869650479 675.1893199525672,835.298931180386 C 602.7554757372291,762.8650869650479 620.8639367910636,699.4854732766271 675.1893199525672,654.2143206420408 Z" fill="url(#leaf7)" opacity="0.31" transform="rotate(286.7 675.2 744.8)"/>
    <path d="M 307.0781080790549,200.84865896975887 C 360.95812774605304,245.748675358924 378.9181343017191,308.60869830375515 307.0781080790549,380.44872452641937 C 235.23808185639072,308.60869830375515 253.1980884120568,245.748675358924 307.0781080790549,200.84865896975887 Z" fill="url(#leaf8)" opacity="0.34" transform="rotate(44.6 307.1 290.6)"/>
    <path d="M 1686.3007759526479,954.8455507813472 C 1729.1602653502423,990.5617919460094 1743.4467618161073,1040.5645295765362 1686.3007759526479,1097.7105154399956 C 1629.1547900891885,1040.5645295765362 1643.4412865550535,990.5617919460094 1686.3007759526479,954.8455507813472 Z" fill="url(#leaf9)" opacity="0.24" transform="rotate(136.4 1686.3 1026.3)"/>
    <path d="M 577.1617892865337,678.1568958153506 C 636.0970040389019,727.2695747756575 655.7420756230247,796.0273253200871 577.1617892865337,874.6076116565781 C 498.5815029500427,796.0273253200871 518.2265745341655,727.2695747756575 577.1617892865337,678.1568958153506 Z" fill="url(#leaf10)" opacity="0.22" transform="rotate(220.5 577.2 776.4)"/>
    <path d="M 942.9657266956235,834.7501265638132 C 978.7617051998293,864.5801086506514 990.6936980345645,906.3420835722247 942.9657266956235,954.0700549111657 C 895.2377553566826,906.3420835722247 907.1697481914177,864.5801086506514 942.9657266956235,834.7501265638132 Z" fill="url(#leaf11)" opacity="0.35" transform="rotate(104.8 943.0 894.4)"/>
    <path d="M 1101.488276596656,507.57594968740125 C 1142.844145496462,542.0391737705728 1156.6294351297306,590.2876874870129 1101.488276596656,645.4288460200875 C 1046.3471180635815,590.2876874870129 1060.1324076968501,542.0391737705728 1101.488276596656,507.57594968740125 Z" fill="url(#leaf12)" opacity="0.37" transform="rotate(110.4 1101.5 576.5)"/>
    <path d="M 1162.6028014755254,105.35139685965225 C 1218.2357667655635,151.71220126801728 1236.7800885289096,216.61732743972834 1162.6028014755254,290.7946144931124 C 1088.4255144221413,216.61732743972834 1106.9698361854873,151.71220126801728 1162.6028014755254,105.35139685965225 Z" fill="url(#leaf13)" opacity="0.24" transform="rotate(272.6 1162.6 198.1)"/>
    <path d="M 207.44474897752636,689.0385307587508 C 235.42703672891207,712.3571038849055 244.754465979374,745.0031062615222 207.44474897752636,782.3128232633699 C 170.13503197567871,745.0031062615222 179.46246122614065,712.3571038849055 207.44474897752636,689.0385307587508 Z" fill="url(#leaf14)" opacity="0.26" transform="rotate(47.3 207.4 735.7)"/>
    <path d="M 1081.4978755671293,503.81950240739644 C 1109.442137744454,527.1063875551669 1118.756891803562,559.7080267620455 1081.4978755671293,596.9670429984783 C 1044.2388593306966,559.7080267620455 1053.5536133898047,527.1063875551669 1081.4978755671293,503.81950240739644 Z" fill="url(#leaf15)" opacity="0.38" transform="rotate(329.2 1081.5 550.4)"/>
    <path d="M 205.67066658458725,115.62112416154339 C 235.3143597652231,140.32420181207326 245.19559082543503,174.90851052281505 205.67066658458725,214.43343476366283 C 166.14574234373947,174.90851052281505 176.02697340395142,140.32420181207326 205.67066658458725,115.62112416154339 Z" fill="url(#leaf16)" opacity="0.30" transform="rotate(178.6 205.7 165.0)"/>
    <path d="M 911.172981183713,505.2664530935955 C 969.370948002887,553.7647587762406 988.770270275945,621.6623867319436 911.172981183713,699.2596758241756 C 833.575692091481,621.6623867319436 852.975014364539,553.7647587762406 911.172981183713,505.2664530935955 Z" fill="url(#leaf17)" opacity="0.27" transform="rotate(331.9 911.2 602.3)"/>
    <path d="M 1617.9824653614307,279.4458190639309 C 1643.0582656958618,300.34231934262345 1651.4168658073388,329.59741973279307 1617.9824653614307,363.0318201787012 C 1584.5480649155227,329.59741973279307 1592.9066650269997,300.34231934262345 1617.9824653614307,279.4458190639309 Z" fill="url(#leaf18)" opacity="0.39" transform="rotate(34.7 1618.0 321.2)"/>
    <path d="M 570.0115615837063,80.74530396705299 C 601.3485320010949,106.85944598154347 611.7941888068912,143.41924480183016 570.0115615837063,185.20187202501492 C 528.2289343605215,143.41924480183016 538.6745911663178,106.85944598154347 570.0115615837063,80.74530396705299 Z" fill="url(#leaf19)" opacity="0.24" transform="rotate(198.1 570.0 133.0)"/>
    <path d="M 1666.2983167647935,617.0527940318939 C 1714.5224815943914,657.2395980565589 1730.5972032042575,713.5011236910898 1666.2983167647935,777.8000101305538 C 1601.9994303253295,713.5011236910898 1618.0741519351957,657.2395980565589 1666.2983167647935,617.0527940318939 Z" fill="url(#leaf0)" opacity="0.23" transform="rotate(133.1 1666.3 697.4)"/>
    <path d="M 378.29633892503745,188.68948517602232 C 426.29861287823707,228.691380137022 442.2993708626369,284.6940330824215 378.29633892503745,348.697065020021 C 314.293306987438,284.6940330824215 330.2940649718378,228.691380137022 378.29633892503745,188.68948517602232 Z" fill="url(#leaf1)" opacity="0.39" transform="rotate(123.7 378.3 268.7)"/>
    <path d="M 1527.5372827903889,89.5914846884663 C 1561.5213140857081,117.91151076789903 1572.8493245174814,157.55954727910486 1527.5372827903889,202.87158900619724 C 1482.2252410632964,157.55954727910486 1493.5532514950696,117.91151076789903 1527.5372827903889,89.5914846884663 Z" fill="url(#leaf2)" opacity="0.27" transform="rotate(63.2 1527.5 146.2)"/>
    <path d="M 786.4969458121225,795.7678219848614 C 818.6522345755463,822.5638959543812 829.3706641633543,860.078399511709 786.4969458121225,902.9521178629408 C 743.6232274608907,860.078399511709 754.3416570486986,822.5638959543812 786.4969458121225,795.7678219848614 Z" fill="url(#leaf3)" opacity="0.22" transform="rotate(159.1 786.5 849.4)"/>
    <path d="M 1864.192230411116,35.466805157550255 C 1921.354884635239,83.10235034431928 1940.4091027099464,149.79211360579592 1864.192230411116,226.00898590462634 C 1787.9753581122857,149.79211360579592 1807.0295761869932,83.10235034431928 1864.192230411116,35.466805157550255 Z" fill="url(#leaf4)" opacity="0.29" transform="rotate(199.5 1864.2 130.7)"/>
    <path d="M 290.1191672377265,435.7065337581396 C 324.36105386405046,464.2414392800762 335.7750160728251,504.1903070107875 290.1191672377265,549.8461558458861 C 244.46331840262792,504.1903070107875 255.87728061140257,464.2414392800762 290.1191672377265,435.7065337581396 Z" fill="url(#leaf5)" opacity="0.38" transform="rotate(92.2 290.1 492.8)"/>
    <path d="M 480.36797744177505,840.4006019526055 C 521.1777527333581,874.4087480289247 534.7810111638858,922.0201525357717 480.36797744177505,976.4331862578824 C 425.9549437196643,922.0201525357717 439.55820215019196,874.4087480289247 480.36797744177505,840.4006019526055 Z" fill="url(#leaf6)" opacity="0.28" transform="rotate(8.5 480.4 908.4)"/>
    <path d="M 1491.171190096543,144.40638510522263 C 1548.1812518621468,191.91476990989253 1567.1846057840146,258.42650863643036 1491.171190096543,334.4399243239022 C 1415.1577744090712,258.42650863643036 1434.161128330939,191.91476990989253 1491.171190096543,144.40638510522263 Z" fill="url(#leaf7)" opacity="0.29" transform="rotate(97.2 1491.2 239.4)"/>
    <path d="M 51.9415544927286,890.2696589075102 C 88.60243981023058,920.8203966720953 100.82273491606458,963.5914295425142 51.9415544927286,1012.4726099658502 C 3.0603740693926156,963.5914295425142 15.280669175226613,920.8203966720953 51.9415544927286,890.2696589075102 Z" fill="url(#leaf8)" opacity="0.29" transform="rotate(64.1 51.9 951.4)"/>
    <path d="M 1116.035580075014,511.82773395837194 C 1162.9507287327706,550.9236911731691 1178.5891116186895,605.6580312738853 1116.035580075014,668.2115628175609 C 1053.4820485313385,605.6580312738853 1069.1204314172574,550.9236911731691 1116.035580075014,511.82773395837194 Z" fill="url(#leaf9)" opacity="0.35" transform="rotate(184.6 1116.0 590.0)"/>
    <path d="M 1111.3032013874933,52.614897572622944 C 1138.2498933334248,75.07047419423239 1147.2321239820685,106.5082814644856 1111.3032013874933,142.43720405906072 C 1075.3742787929182,106.5082814644856 1084.356509441562,75.07047419423239 1111.3032013874933,52.614897572622944 Z" fill="url(#leaf10)" opacity="0.20" transform="rotate(30.8 1111.3 97.5)"/>
    <path d="M 1861.1832550329532,282.53022722251893 C 1896.7624014927314,312.1795159390009 1908.6221169793243,353.6885201420757 1861.1832550329532,401.12738208844684 C 1813.744393086582,353.6885201420757 1825.604108573175,312.1795159390009 1861.1832550329532,282.53022722251893 Z" fill="url(#leaf11)" opacity="0.21" transform="rotate(136.2 1861.2 341.8)"/>
    <path d="M 494.0748220380057,865.8103344792269 C 546.2219655988262,909.2662874465772 563.6043467857663,970.1046216008677 494.0748220380057,1039.6341463486283 C 424.5452972902451,970.1046216008677 441.9276784771853,909.2662874465772 494.0748220380057,865.8103344792269 Z" fill="url(#leaf12)" opacity="0.37" transform="rotate(252.0 494.1 952.7)"/>
    <path d="M 291.3480167276462,775.8800440868289 C 331.6724308961846,809.4837225606109 345.1139022856974,856.5288724239057 291.3480167276462,910.2947579819569 C 237.58213116959502,856.5288724239057 251.02360255910781,809.4837225606109 291.3480167276462,775.8800440868289 Z" fill="url(#leaf13)" opacity="0.40" transform="rotate(230.9 291.3 843.1)"/>
    <path d="M 562.1771920134212,131.07940881915934 C 608.4406706666422,169.63230769684347 623.8618302177158,223.60636612560126 562.1771920134212,285.2910043298958 C 500.49255380912655,223.60636612560126 515.9137133602002,169.63230769684347 562.1771920134212,131.07940881915934 Z" fill="url(#leaf14)" opacity="0.38" transform="rotate(134.2 562.2 208.2)"/>
    <path d="M 326.84962067471133,414.1878991223157 C 359.4846832001781,441.3837845602047 370.3630373753337,479.45802417324927 326.84962067471133,522.9714408738716 C 283.33620397408896,479.45802417324927 294.21455814924457,441.3837845602047 326.84962067471133,414.1878991223157 Z" fill="url(#leaf15)" opacity="0.33" transform="rotate(17.2 326.8 468.6)"/>
    <path d="M 219.44035694673335,830.5300344210245 C 256.59636547241956,861.4933748590963 268.9817016476483,904.842051472397 219.44035694673335,954.3833961733119 C 169.89901224581837,904.842051472397 182.28434842104713,861.4933748590963 219.44035694673335,830.5300344210245 Z" fill="url(#leaf16)" opacity="0.37" transform="rotate(56.9 219.4 892.5)"/>
    <path d="M 639.0070931805518,83.18808454750479 C 666.5572678596083,106.14656344671849 675.7406594192937,138.28843390561767 639.0070931805518,175.0220001443596 C 602.2735269418099,138.28843390561767 611.4569185014954,106.14656344671849 639.0070931805518,83.18808454750479 Z" fill="url(#leaf17)" opacity="0.29" transform="rotate(128.0 639.0 129.1)"/>
    <path d="M 58.45534165476805,436.57286068668236 C 110.03897159060003,479.55921896654235 127.23351490254402,539.7401205583463 58.45534165476805,608.5182938061223 C -10.322831593007919,539.7401205583463 6.871711718936076,479.55921896654235 58.45534165476805,436.57286068668236 Z" fill="url(#leaf18)" opacity="0.37" transform="rotate(279.5 58.5 522.5)"/>
    <path d="M 361.7876994398186,887.1811360784588 C 414.9609157400646,931.4921496619972 432.68532117347996,993.5275686789508 361.7876994398186,1064.4251904126122 C 290.89007770615723,993.5275686789508 308.6144831395726,931.4921496619972 361.7876994398186,887.1811360784588 Z" fill="url(#leaf19)" opacity="0.28" transform="rotate(152.4 361.8 975.8)"/>
    <path d="M 1513.9118548899032,937.5736969226842 C 1566.6066764333941,981.4860482089266 1584.1716169478912,1042.9633400096661 1513.9118548899032,1113.223102067654 C 1443.6520928319153,1042.9633400096661 1461.2170333464123,981.4860482089266 1513.9118548899032,937.5736969226842 Z" fill="url(#leaf0)" opacity="0.29" transform="rotate(320.8 1513.9 1025.4)"/>
    <path d="M 705.9908778277163,194.23002774735232 C 744.6743343481231,226.46624151435802 757.5688198549254,271.59694078816597 705.9908778277163,323.1748828153751 C 654.4129358005072,271.59694078816597 667.3074213073095,226.46624151435802 705.9908778277163,194.23002774735232 Z" fill="url(#leaf1)" opacity="0.37" transform="rotate(133.0 706.0 258.7)"/>
    <path d="M 1545.881396357748,680.3379644806793 C 1584.4289371701739,712.4609151577008 1597.2781174409824,757.4330461055309 1545.881396357748,808.8297671887655 C 1494.4846752745134,757.4330461055309 1507.333855545322,712.4609151577008 1545.881396357748,680.3379644806793 Z" fill="url(#leaf2)" opacity="0.24" transform="rotate(89.2 1545.9 744.6)"/>
    <path d="M 1305.0284021805874,444.35043595656447 C 1342.4228971656305,475.5125151107671 1354.8877288273115,519.1394259266507 1305.0284021805874,568.9987525733748 C 1255.1690755338632,519.1394259266507 1267.6339071955442,475.5125151107671 1305.0284021805874,444.35043595656447 Z" fill="url(#leaf3)" opacity="0.26" transform="rotate(92.6 1305.0 506.7)"/>
    <path d="M 1231.3779403222275,132.493339178358 C 1286.5631933830068,178.48105006234078 1304.9582777366,242.8638452999167 1231.3779403222275,316.4441827142891 C 1157.797602907855,242.8638452999167 1176.192687261448,178.48105006234078 1231.3779403222275,132.493339178358 Z" fill="url(#leaf4)" opacity="0.38" transform="rotate(296.7 1231.4 224.5)"/>
    <path d="M 1087.4707830974282,253.72014516238974 C 1124.2132497907974,284.338867406864 1136.460738688587,327.20507854912796 1087.4707830974282,376.1950341402868 C 1038.4808275062694,327.20507854912796 1050.7283164040591,284.338867406864 1087.4707830974282,253.72014516238974 Z" fill="url(#leaf5)" opacity="0.24" transform="rotate(327.3 1087.5 315.0)"/>
    <path d="M 1825.2579777234776,223.8905688166962 C 1852.2798017016157,246.40875546514476 1861.2870763609953,277.9342167729728 1825.2579777234776,313.96331541049045 C 1789.2288790859598,277.9342167729728 1798.2361537453394,246.40875546514476 1825.2579777234776,223.8905688166962 Z" fill="url(#leaf6)" opacity="0.20" transform="rotate(290.5 1825.3 268.9)"/>
    <path d="M 1690.3926489230748,803.5212154326526 C 1746.7548584911283,850.4897234060305 1765.5422616804797,916.2456345687597 1690.3926489230748,991.3952473261644 C 1615.24303616567,916.2456345687597 1634.0304393550214,850.4897234060305 1690.3926489230748,803.5212154326526 Z" fill="url(#leaf7)" opacity="0.22" transform="rotate(41.1 1690.4 897.5)"/>
    <path d="M 722.9114647986455,212.4945057377943 C 769.4908030455096,251.31062094351432 785.0172491277975,305.6531822315224 722.9114647986455,367.7589665606745 C 660.8056804694935,305.6531822315224 676.3321265517815,251.31062094351432 722.9114647986455,212.4945057377943 Z" fill="url(#leaf8)" opacity="0.40" transform="rotate(206.3 722.9 290.1)"/>
    <path d="M 73.39604747111059,176.57600178442962 C 97.64723160881205,196.78532189918081 105.73095965471254,225.0783700598325 73.39604747111059,257.4132822434345 C 41.061135287508655,225.0783700598325 49.144863333409134,196.78532189918081 73.39604747111059,176.57600178442962 Z" fill="url(#leaf9)" opacity="0.35" transform="rotate(129.6 73.4 217.0)"/>
    <path d="M 253.98439921168932,551.3968371287674 C 312.9993191372448,600.5759370667303 332.67095911242995,669.4266769798783 253.98439921168932,748.1132368806188 C 175.2978393109487,669.4266769798783 194.96947928613386,600.5759370667303 253.98439921168932,551.3968371287674 Z" fill="url(#leaf10)" opacity="0.28" transform="rotate(139.4 254.0 649.8)"/>
    <path d="M 1087.5578359892713,473.5811860397305 C 1127.04303675109,506.4855200079128 1140.204770338363,552.551587563368 1087.5578359892713,605.1985219124597 C 1034.9109016401796,552.551587563368 1048.0726352274526,506.4855200079128 1087.5578359892713,473.5811860397305 Z" fill="url(#leaf11)" opacity="0.39" transform="rotate(190.8 1087.6 539.4)"/>
    <path d="M 1197.1139877130702,332.9019712165724 C 1254.9025142943433,381.0590767009667 1274.1653564881012,448.47902437911875 1197.1139877130702,525.5303931541497 C 1120.0626189380391,448.47902437911875 1139.325461131797,381.0590767009667 1197.1139877130702,332.9019712165724 Z" fill="url(#leaf12)" opacity="0.38" transform="rotate(349.6 1197.1 429.2)"/>
    <path d="M 179.2929037457283,355.2077915824825 C 216.40959137879494,386.138364610038 228.7818205898172,429.4411668486158 179.2929037457283,478.93008369270467 C 129.8039869016394,429.4411668486158 142.17621611266165,386.138364610038 179.2929037457283,355.2077915824825 Z" fill="url(#leaf13)" opacity="0.25" transform="rotate(341.3 179.3 417.1)"/>
    <path d="M 1091.5164421006118,83.65250799057262 C 1126.6582037456099,112.93730936140426 1138.3721242939425,153.93603128056856 1091.5164421006118,200.7917134738992 C 1044.660759907281,153.93603128056856 1056.3746804556138,112.93730936140426 1091.5164421006118,83.65250799057262 Z" fill="url(#leaf14)" opacity="0.39" transform="rotate(138.9 1091.5 142.2)"/>
    <path d="M 432.4530477436278,631.5521586591194 C 475.02588705125294,667.029524748807 489.216833487128,716.6978372743697 432.4530477436278,773.4616230178699 C 375.6892620001276,716.6978372743697 389.88020843600265,667.029524748807 432.4530477436278,631.5521586591194 Z" fill="url(#leaf15)" opacity="0.35" transform="rotate(237.5 432.5 702.5)"/>
    <path d="M 710.9169286939116,331.3124006624947 C 746.5360199887671,360.994976741541 758.4090504203856,402.5505832522058 710.9169286939116,450.0427049786798 C 663.4248069674376,402.5505832522058 675.2978373990561,360.994976741541 710.9169286939116,331.3124006624947 Z" fill="url(#leaf16)" opacity="0.23" transform="rotate(269.6 710.9 390.7)"/>
    <path d="M 752.1782888625822,587.9898808759341 C 798.2496544634215,626.3826855433001 813.6067763303679,680.1326120776125 752.1782888625822,741.5610995453982 C 690.7498013947966,680.1326120776125 706.106923261743,626.3826855433001 752.1782888625822,587.9898808759341 Z" fill="url(#leaf17)" opacity="0.38" transform="rotate(121.9 752.2 664.8)"/>
    <path d="M 1856.2280417125592,395.9115749661055 C 1912.1680847703726,442.5282775142833 1930.8147657896436,507.7916610817322 1856.2280417125592,582.3783851588166 C 1781.6413176354747,507.7916610817322 1800.2879986547457,442.5282775142833 1856.2280417125592,395.9115749661055 Z" fill="url(#leaf18)" opacity="0.24" transform="rotate(243.8 1856.2 489.1)"/>
    <path d="M 179.21040327691765,822.7183152204814 C 216.6043525283563,853.8799395966802 229.06900227883585,897.5062137233587 179.21040327691765,947.3648127252768 C 129.35180427499944,897.5062137233587 141.816454025479,853.8799395966802 179.21040327691765,822.7183152204814 Z" fill="url(#leaf19)" opacity="0.24" transform="rotate(209.6 179.2 885.0)"/>
    <path d="M 1097.9563339404403,385.35817430212927 C 1153.677661155004,431.79261364759907 1172.251436893192,496.80082873125673 1097.9563339404403,571.0959316840083 C 1023.6612309876887,496.80082873125673 1042.2350067258767,431.79261364759907 1097.9563339404403,385.35817430212927 Z" fill="url(#leaf0)" opacity="0.35" transform="rotate(141.7 1098.0 478.2)"/>
    <path d="M 1257.2208787169773,487.24072291899813 C 1284.3133550534644,509.8177865327375 1293.3441804989602,541.4256755919727 1257.2208787169773,577.5489773739556 C 1221.0975769349943,541.4256755919727 1230.1284023804901,509.8177865327375 1257.2208787169773,487.24072291899813 Z" fill="url(#leaf1)" opacity="0.26" transform="rotate(143.5 1257.2 532.4)"/>
    <path d="M 1029.5931963954527,118.97735991869553 C 1082.3968307408497,162.98038853985983 1099.9980421893156,224.58462860948987 1029.5931963954527,294.98947440335274 C 959.1883506015897,224.58462860948987 976.7895620500555,162.98038853985983 1029.5931963954527,118.97735991869553 Z" fill="url(#leaf2)" opacity="0.37" transform="rotate(159.6 1029.6 207.0)"/>
    <path d="M 1506.3879827040348,706.5446208649556 C 1564.1618664503665,754.6895239868985 1583.4198276991435,822.0923883576187 1506.3879827040348,899.1242333527274 C 1429.356137708926,822.0923883576187 1448.6140989577032,754.6895239868985 1506.3879827040348,706.5446208649556 Z" fill="url(#leaf3)" opacity="0.26" transform="rotate(340.4 1506.4 802.8)"/>
    <path d="M 539.84345654306,591.3662189672492 C 573.6625545935569,619.5488006759966 584.9355872770559,659.004415068243 539.84345654306,704.0965458022389 C 494.75132580906416,659.004415068243 506.0243584925631,619.5488006759966 539.84345654306,591.3662189672492 Z" fill="url(#leaf4)" opacity="0.31" transform="rotate(260.8 539.8 647.7)"/>
    <path d="M 1687.2974511650814,928.6518123356949 C 1727.9547495949553,962.5328943605897 1741.5071824049132,1009.9664091954426 1687.2974511650814,1064.1761404352744 C 1633.0877199252495,1009.9664091954426 1646.6401527352075,962.5328943605897 1687.2974511650814,928.6518123356949 Z" fill="url(#leaf5)" opacity="0.20" transform="rotate(252.6 1687.3 996.4)"/>
    <path d="M 1564.8780927244366,617.9806459148978 C 1590.5665137431135,639.3876634304618 1599.129320749339,669.3574879522515 1564.8780927244366,703.608715977154 C 1530.626864699534,669.3574879522515 1539.1896717057596,639.3876634304618 1564.8780927244366,617.9806459148978 Z" fill="url(#leaf6)" opacity="0.35" transform="rotate(1.1 1564.9 660.8)"/>
    <path d="M 333.3566035607344,144.23617312578648 C 372.0915507674697,176.5152957980659 385.0031998363815,221.70606753925708 333.3566035607344,273.35266381490413 C 281.71000728508733,221.70606753925708 294.62165635399913,176.5152957980659 333.3566035607344,144.23617312578648 Z" fill="url(#leaf7)" opacity="0.39" transform="rotate(319.0 333.4 208.8)"/>
    <path d="M 1145.2962496951816,268.6544654322337 C 1172.4890358823689,291.3151205882231 1181.5532979447646,323.0400378066083 1145.2962496951816,359.29708605619146 C 1109.0392014455986,323.0400378066083 1118.1034635079943,291.3151205882231 1145.2962496951816,268.6544654322337 Z" fill="url(#leaf8)" opacity="0.38" transform="rotate(132.5 1145.3 314.0)"/>
    <path d="M 1112.0091936217796,48.87242904826472 C 1171.2664025365668,98.25343647725413 1191.0188055081626,167.3868468778393 1112.0091936217796,246.39645876422236 C 1032.9995817353965,167.3868468778393 1052.7519847069923,98.25343647725413 1112.0091936217796,48.87242904826472 Z" fill="url(#leaf9)" opacity="0.23" transform="rotate(222.2 1112.0 147.6)"/>
    <path d="M 1585.1359706922447,498.04667238786936 C 1637.300560963605,541.5171642806696 1654.6887577207249,602.3758529305899 1585.1359706922447,671.9286399590701 C 1515.5831836637644,602.3758529305899 1532.9713804208843,541.5171642806696 1585.1359706922447,498.04667238786936 Z" fill="url(#leaf10)" opacity="0.31" transform="rotate(259.0 1585.1 585.0)"/>
    <path d="M 1079.2053542111612,28.725187508608457 C 1120.351464019836,63.013612349170764 1134.066833956061,111.01740712595799 1079.2053542111612,165.87888687085768 C 1024.3438744662615,111.01740712595799 1038.0592444024865,63.013612349170764 1079.2053542111612,28.725187508608457 Z" fill="url(#leaf11)" opacity="0.20" transform="rotate(8.0 1079.2 97.3)"/>
    <path d="M 1159.895058140413,454.46044763177446 C 1199.6490974781843,487.5888137465838 1212.900443924108,533.9685263073168 1159.895058140413,586.9739120910117 C 1106.8896723567182,533.9685263073168 1120.1410188026418,487.5888137465838 1159.895058140413,454.46044763177446 Z" fill="url(#leaf12)" opacity="0.38" transform="rotate(290.3 1159.9 520.7)"/>
    <path d="M 1512.1249761666388,-10.203942741671469 C 1563.7818403991644,32.843444118766456 1581.0007951433395,93.10978572337956 1512.1249761666388,161.98560470008022 C 1443.2491571899382,93.10978572337956 1460.4681119341133,32.843444118766456 1512.1249761666388,-10.203942741671469 Z" fill="url(#leaf13)" opacity="0.38" transform="rotate(36.9 1512.1 75.9)"/>
    <path d="M 1357.189332066245,413.3920930519727 C 1416.6611249615921,462.95192046476194 1436.485055926708,532.3356788426669 1357.189332066245,611.6314027031298 C 1277.8936082057821,532.3356788426669 1297.717539170898,462.95192046476194 1357.189332066245,413.3920930519727 Z" fill="url(#leaf14)" opacity="0.27" transform="rotate(162.1 1357.2 512.5)"/>
    <path d="M 1171.8379867081576,553.823487492314 C 1213.9924891109217,588.9522394946175 1228.043989911843,638.1324922978423 1171.8379867081576,694.3384955015277 C 1115.6319835044721,638.1324922978423 1129.6834843053934,588.9522394946175 1171.8379867081576,553.823487492314 Z" fill="url(#leaf15)" opacity="0.28" transform="rotate(297.4 1171.8 624.1)"/>
    <path d="M 1258.6405042784245,860.6632032853504 C 1315.9795079402645,908.4457063368839 1335.0925091608779,975.3412106090306 1258.6405042784245,1051.793215491484 C 1182.1884993959711,975.3412106090306 1201.3015006165845,908.4457063368839 1258.6405042784245,860.6632032853504 Z" fill="url(#leaf16)" opacity="0.35" transform="rotate(6.3 1258.6 956.2)"/>
    <path d="M 1649.190649808863,125.90404939610343 C 1680.593462812128,152.07306023215762 1691.0610671465497,188.70967540263348 1649.190649808863,230.58009274032017 C 1607.3202324711765,188.70967540263348 1617.787836805598,152.07306023215762 1649.190649808863,125.90404939610343 Z" fill="url(#leaf17)" opacity="0.29" transform="rotate(224.5 1649.2 178.2)"/>
    <path d="M 1522.7688604929237,21.74573223707577 C 1564.6302369752925,56.63021263904973 1578.584029136082,105.46848520181328 1522.7688604929237,161.2836538449716 C 1466.9536918497654,105.46848520181328 1480.907484010555,56.63021263904973 1522.7688604929237,21.74573223707577 Z" fill="url(#leaf18)" opacity="0.25" transform="rotate(348.4 1522.8 91.5)"/>
    <path d="M 375.7120728496764,-18.24348893258101 C 417.4061886709524,16.50160758514901 431.30422727804444,65.14474270997104 375.7120728496764,120.73689713833906 C 320.1199184213084,65.14474270997104 334.0179570284004,16.50160758514901 375.7120728496764,-18.24348893258101 Z" fill="url(#leaf19)" opacity="0.39" transform="rotate(265.3 375.7 51.2)"/>
    <path d="M 631.2085414475107,437.53896106173636 C 681.5588737214308,479.4975712900032 698.3423178127376,538.2396256095767 631.2085414475107,605.3734019748036 C 564.0747650822838,538.2396256095767 580.8582091735906,479.4975712900032 631.2085414475107,437.53896106173636 Z" fill="url(#leaf0)" opacity="0.24" transform="rotate(233.4 631.2 521.5)"/>
    <path d="M 100.46337476720666,607.9119603025889 C 158.57906613006728,656.3417031049727 177.95096325102082,724.1433430283101 100.46337476720666,801.6309315121242 C 22.97578628339251,724.1433430283101 42.34768340434605,656.3417031049727 100.46337476720666,607.9119603025889 Z" fill="url(#leaf1)" opacity="0.22" transform="rotate(149.2 100.5 704.8)"/>
    <path d="M 1235.3179294900115,193.8880254982701 C 1289.4522471898629,238.99995691481288 1307.4970197564799,302.15666089797276 1235.3179294900115,374.3357511644412 C 1163.138839223543,302.15666089797276 1181.18361179016,238.99995691481288 1235.3179294900115,193.8880254982701 Z" fill="url(#leaf2)" opacity="0.29" transform="rotate(26.8 1235.3 284.1)"/>
    <path d="M 413.26560999501015,792.1523865124685 C 457.9071018968313,829.3536297639861 472.78759919743834,881.4353703161108 413.26560999501015,940.957359518539 C 353.74362079258196,881.4353703161108 368.624118093189,829.3536297639861 413.26560999501015,792.1523865124685 Z" fill="url(#leaf3)" opacity="0.32" transform="rotate(281.3 413.3 866.6)"/>
    <path d="M 1657.4457769775634,550.5265472367564 C 1716.9242269070628,600.091922178006 1736.7503768835627,669.4834470957555 1657.4457769775634,748.7880470017549 C 1578.141177071564,669.4834470957555 1597.967327048064,600.091922178006 1657.4457769775634,550.5265472367564 Z" fill="url(#leaf4)" opacity="0.38" transform="rotate(346.0 1657.4 649.7)"/>
    <path d="M 769.8903688884459,31.659704314211183 C 823.2470660510364,76.12361861636994 841.0326317718999,138.3730986393922 769.8903688884459,209.5153615228462 C 698.7481060049919,138.3730986393922 716.5336717258554,76.12361861636994 769.8903688884459,31.659704314211183 Z" fill="url(#leaf5)" opacity="0.29" transform="rotate(15.8 769.9 120.6)"/>
    <path d="M 675.4351668267101,965.8389709410698 C 699.8116892244361,986.1527396058415 707.9371966903448,1014.5920157365218 675.4351668267101,1047.0940456001565 C 642.9331369630754,1014.5920157365218 651.058644428984,986.1527396058415 675.4351668267101,965.8389709410698 Z" fill="url(#leaf6)" opacity="0.31" transform="rotate(77.8 675.4 1006.5)"/>
    <path d="M 568.4614507758993,563.3962411782711 C 608.9458393324167,597.1332316420355 622.4406355179225,644.3650182913059 568.4614507758993,698.344203033329 C 514.482266033876,644.3650182913059 527.9770622193819,597.1332316420355 568.4614507758993,563.3962411782711 Z" fill="url(#leaf7)" opacity="0.39" transform="rotate(147.6 568.5 630.9)"/>
    <path d="M 410.6647855918434,703.6199025995701 C 446.5778137236217,733.5474260427187 458.5488231008812,775.4459588631267 410.6647855918434,823.3299963721646 C 362.7807480828056,775.4459588631267 374.75175746006505,733.5474260427187 410.6647855918434,703.6199025995701 Z" fill="url(#leaf8)" opacity="0.31" transform="rotate(234.2 410.7 763.5)"/>
    <path d="M 1771.9675242210421,708.9672654496595 C 1806.84469451763,738.0315740301494 1818.4704179498258,778.7216060428352 1771.9675242210421,825.224499771619 C 1725.4646304922585,778.7216060428352 1737.0903539244543,738.0315740301494 1771.9675242210421,708.9672654496595 Z" fill="url(#leaf9)" opacity="0.25" transform="rotate(140.0 1772.0 767.1)"/>
    <path d="M 553.415419267129,423.62731585485864 C 579.5576909490992,445.4125422565005 588.2717815097559,475.9118592187991 553.415419267129,510.7682214614261 C 518.5590570245021,475.9118592187991 527.2731475851588,445.4125422565005 553.415419267129,423.62731585485864 Z" fill="url(#leaf10)" opacity="0.39" transform="rotate(257.2 553.4 467.2)"/>
    <path d="M 743.5275705090452,148.1726480595005 C 779.687614658724,178.30601818423278 791.7409627086168,220.492736358858 743.5275705090452,268.70612855842967 C 695.3141783094735,220.492736358858 707.3675263593664,178.30601818423278 743.5275705090452,148.1726480595005 Z" fill="url(#leaf11)" opacity="0.30" transform="rotate(13.5 743.5 208.4)"/>
    <path d="M 468.28928865027973,88.6149648114221 C 511.96728706699315,125.01329682534995 526.5266198725643,175.97096164484893 468.28928865027973,234.20829286713348 C 410.05195742799515,175.97096164484893 424.6112902335663,125.01329682534995 468.28928865027973,88.6149648114221 Z" fill="url(#leaf12)" opacity="0.25" transform="rotate(68.8 468.3 161.4)"/>
    <path d="M 892.6376277438565,70.82098186733376 C 945.2502227233425,114.66481101690549 962.7877543831712,176.0461718263059 892.6376277438565,246.19629846562069 C 822.4875011045417,176.0461718263059 840.0250327643704,114.66481101690549 892.6376277438565,70.82098186733376 Z" fill="url(#leaf13)" opacity="0.38" transform="rotate(168.2 892.6 158.5)"/>
    <path d="M 440.24160900287205,137.58489610246133 C 476.7893609951234,168.0413560960041 488.97194499254056,210.68040008696403 440.24160900287205,259.4107360766325 C 391.51127301320355,210.68040008696403 403.6938570106207,168.0413560960041 440.24160900287205,137.58489610246133 Z" fill="url(#leaf14)" opacity="0.26" transform="rotate(1.3 440.2 198.5)"/>
    <path d="M 1823.1874098324286,450.85558200631436 C 1861.983012810849,483.185251154998 1874.9148804703225,528.4467879631552 1823.1874098324286,580.1742586010491 C 1771.4599391945346,528.4467879631552 1784.391806854008,483.185251154998 1823.1874098324286,450.85558200631436 Z" fill="url(#leaf15)" opacity="0.27" transform="rotate(19.8 1823.2 515.5)"/>
    <path d="M 360.8024733938258,504.129660366491 C 416.7319158244295,550.7375290586608 435.3750633012974,615.9885452276985 360.8024733938258,690.5611351351702 C 286.22988348635414,615.9885452276985 304.87303096322205,550.7375290586608 360.8024733938258,504.129660366491 Z" fill="url(#leaf16)" opacity="0.31" transform="rotate(124.4 360.8 597.3)"/>
    <path d="M 103.2372279492876,341.6296721752478 C 147.43918790404626,378.46463880421334 162.1731745556325,430.03359208476513 103.2372279492876,488.96953869111 C 44.3012813429427,430.03359208476513 59.03526799452893,378.46463880421334 103.2372279492876,341.6296721752478 Z" fill="url(#leaf17)" opacity="0.28" transform="rotate(190.3 103.2 415.3)"/>
    <path d="M 907.1014628716122,307.77913232891643 C 931.1671962383621,327.8339101345414 939.1891073606121,355.9105990624162 907.1014628716122,387.9982435514161 C 875.0138183826123,355.9105990624162 883.0357295048623,327.8339101345414 907.1014628716122,307.77913232891643 Z" fill="url(#leaf18)" opacity="0.28" transform="rotate(5.3 907.1 347.9)"/>
    <path d="M 1437.8577939082916,495.041681648382 C 1476.8886934636853,527.5674312778767 1489.898993315483,573.1034807591692 1437.8577939082916,625.1446801663607 C 1385.8165945011,573.1034807591692 1398.8268943528979,527.5674312778767 1437.8577939082916,495.041681648382 Z" fill="url(#leaf19)" opacity="0.27" transform="rotate(74.6 1437.9 560.1)"/>
    <path d="M 408.50027819205326,-10.095237336391065 C 449.76437705564166,24.29151171659928 463.5190766768378,72.43296039078577 408.50027819205326,127.45175887557032 C 353.4814797072687,72.43296039078577 367.23617932846486,24.29151171659928 408.50027819205326,-10.095237336391065 Z" fill="url(#leaf0)" opacity="0.39" transform="rotate(255.2 408.5 58.7)"/>
    <path d="M 845.3730674027822,700.4951552999166 C 903.1767965539174,748.6649295925292 922.4447062709625,816.102613602187 845.3730674027822,893.1742524703673 C 768.301428534602,816.102613602187 787.5693382516471,748.6649295925292 845.3730674027822,700.4951552999166 Z" fill="url(#leaf1)" opacity="0.24" transform="rotate(275.8 845.4 796.8)"/>
    <path d="M 1206.568712773183,165.23443074203806 C 1251.7321647063352,202.87064068633148 1266.7866486840526,255.56133460834224 1206.568712773183,315.7792705192117 C 1146.3507768623135,255.56133460834224 1161.405260840031,202.87064068633148 1206.568712773183,165.23443074203806 Z" fill="url(#leaf2)" opacity="0.28" transform="rotate(292.1 1206.6 240.5)"/>
    <path d="M 128.08678861482724,862.3239334309783 C 172.94466539240017,899.705497412289 187.8972909849245,952.0396869861241 128.08678861482724,1011.8501893562213 C 68.27628624472999,952.0396869861241 83.22891183725432,899.705497412289 128.08678861482724,862.3239334309783 Z" fill="url(#leaf3)" opacity="0.25" transform="rotate(176.7 128.1 937.1)"/>
    <path d="M 1615.3131700408126,904.4828532709794 C 1662.2924494852184,943.6322528079843 1677.9522093000205,998.4414121597912 1615.3131700408126,1061.080451418999 C 1552.6741307816046,998.4414121597912 1568.3338905964067,943.6322528079843 1615.3131700408126,904.4828532709794 Z" fill="url(#leaf4)" opacity="0.26" transform="rotate(75.9 1615.3 982.8)"/>
    <path d="M 497.6098686094771,29.47910125038151 C 526.2744316605589,53.366237126282996 535.8292860109194,86.80822735254506 497.6098686094771,125.02764475398743 C 459.39045120803473,86.80822735254506 468.9453055583953,53.366237126282996 497.6098686094771,29.47910125038151 Z" fill="url(#leaf5)" opacity="0.34" transform="rotate(335.9 497.6 77.3)"/>
    <path d="M 1709.2445104573576,741.5791811146145 C 1755.2378740667805,779.906984122467 1770.5689952699215,833.5659083334605 1709.2445104573576,894.8903931460244 C 1647.9200256447937,833.5659083334605 1663.2511468479347,779.906984122467 1709.2445104573576,741.5791811146145 Z" fill="url(#leaf6)" opacity="0.21" transform="rotate(322.2 1709.2 818.2)"/>
    <path d="M 898.5656681843246,588.0554427547389 C 952.1090446304802,632.6749231265352 969.9568367791987,695.14219564705 898.5656681843246,766.533364241924 C 827.1744995894505,695.14219564705 845.0222917381691,632.6749231265352 898.5656681843246,588.0554427547389 Z" fill="url(#leaf7)" opacity="0.35" transform="rotate(287.4 898.6 677.3)"/>
    <path d="M 1464.2206664729724,144.94317314829698 C 1516.150068380119,188.2176747375858 1533.4598690158346,248.80197696259015 1464.2206664729724,318.04117950545225 C 1394.9814639301103,248.80197696259015 1412.291264565826,188.2176747375858 1464.2206664729724,144.94317314829698 Z" fill="url(#leaf8)" opacity="0.23" transform="rotate(30.8 1464.2 231.5)"/>
    <path d="M 596.2349985946222,197.12005800545592 C 627.4485038476511,223.13131238297998 637.8530055986607,259.54706851151366 596.2349985946222,301.1650755155522 C 554.6169915905837,259.54706851151366 565.0214933415933,223.13131238297998 596.2349985946222,197.12005800545592 Z" fill="url(#leaf9)" opacity="0.33" transform="rotate(18.8 596.2 249.1)"/>
    <path d="M 425.13825299376094,711.8605833487406 C 450.1818680445573,732.7302625577375 458.5297397281561,761.9478134503333 425.13825299376094,795.3393001847285 C 391.7467662593658,761.9478134503333 400.0946379429646,732.7302625577375 425.13825299376094,711.8605833487406 Z" fill="url(#leaf10)" opacity="0.37" transform="rotate(134.0 425.1 753.6)"/>
    <path d="M 359.06681408765144,292.75873879841345 C 391.79735735587514,320.0341915219332 402.70753844528303,358.21982533486084 359.06681408765144,401.86054969249244 C 315.42608973001984,358.21982533486084 326.33627081942774,320.0341915219332 359.06681408765144,292.75873879841345 Z" fill="url(#leaf11)" opacity="0.28" transform="rotate(39.7 359.1 347.3)"/>
    <path d="M 1345.6336719106403,748.6655897945166 C 1391.6825697611796,787.0396713366328 1407.032202378026,840.7633854955952 1345.6336719106403,902.1619159629811 C 1284.2351414432544,840.7633854955952 1299.584774060101,787.0396713366328 1345.6336719106403,748.6655897945166 Z" fill="url(#leaf12)" opacity="0.39" transform="rotate(253.1 1345.6 825.4)"/>
    <path d="M 1696.6026650137464,443.95276639873055 C 1744.0781728301984,483.5156895791072 1759.9033421023491,538.9037820316345 1696.6026650137464,602.2044591202371 C 1633.3019879251437,538.9037820316345 1649.1271571972945,483.5156895791072 1696.6026650137464,443.95276639873055 Z" fill="url(#leaf13)" opacity="0.33" transform="rotate(70.9 1696.6 523.1)"/>
    <path d="M 912.9438371851248,549.5208268285494 C 970.8647842489195,597.788282715045 990.1717666035178,665.3627209561389 912.9438371851248,742.5906503745318 C 835.7159077667319,665.3627209561389 855.0228901213302,597.788282715045 912.9438371851248,549.5208268285494 Z" fill="url(#leaf14)" opacity="0.37" transform="rotate(224.3 912.9 646.1)"/>
    <path d="M 1718.4646674979306,270.7729796658763 C 1755.487669952903,301.6254817116866 1767.828670771227,344.81898457582093 1718.4646674979306,394.18298784911735 C 1669.100664224634,344.81898457582093 1681.4416650429582,301.6254817116866 1718.4646674979306,270.7729796658763 Z" fill="url(#leaf15)" opacity="0.34" transform="rotate(23.7 1718.5 332.5)"/>
    <path d="M 52.00200738182963,649.0165420631422 C 87.7476353889912,678.8045654024435 99.66284472471172,720.5077980774653 52.00200738182963,768.1686354203473 C 4.3411700389475385,720.5077980774653 16.256379374668064,678.8045654024435 52.00200738182963,649.0165420631422 Z" fill="url(#leaf16)" opacity="0.34" transform="rotate(194.5 52.0 708.6)"/>
    <path d="M 462.2856085820608,414.2176262849267 C 487.6307905084399,435.338611223576 496.07918448389955,464.90799013768486 462.2856085820608,498.70156603952364 C 428.492032680222,464.90799013768486 436.9404266556817,435.338611223576 462.2856085820608,414.2176262849267 Z" fill="url(#leaf17)" opacity="0.39" transform="rotate(149.3 462.3 456.5)"/>
    <path d="M 831.0766063032554,615.2820407042509 C 867.6323703467912,645.7451774071973 879.8176250279697,688.3935687913223 831.0766063032554,737.1345875160366 C 782.3355875785411,688.3935687913223 794.5208422597196,645.7451774071973 831.0766063032554,615.2820407042509 Z" fill="url(#leaf18)" opacity="0.39" transform="rotate(336.0 831.1 676.2)"/>
    <path d="M 1080.9946726226335,319.9846688056333 C 1114.4490549419158,347.86332073836866 1125.60051571501,386.89343344419814 1080.9946726226335,431.4992765365747 C 1036.388829530257,386.89343344419814 1047.5402903033512,347.86332073836866 1080.9946726226335,319.9846688056333 Z" fill="url(#leaf19)" opacity="0.27" transform="rotate(168.8 1081.0 375.7)"/>
    <path d="M 1380.705689424382,527.1084406660555 C 1412.630969570762,553.7128407880389 1423.2727296195553,590.9590009588156 1380.705689424382,633.5260411539891 C 1338.1386492292086,590.9590009588156 1348.7804092780018,553.7128407880389 1380.705689424382,527.1084406660555 Z" fill="url(#leaf0)" opacity="0.35" transform="rotate(33.8 1380.7 580.3)"/>
    <path d="M 842.4931077554622,275.19321834873057 C 886.7965950585786,312.1127911013275 901.5644241596174,363.8001929549633 842.4931077554622,422.8715093591184 C 783.4217913513071,363.8001929549633 798.1896204523458,312.1127911013275 842.4931077554622,275.19321834873057 Z" fill="url(#leaf1)" opacity="0.37" transform="rotate(102.3 842.5 349.0)"/>
    <path d="M 978.2711726379954,74.83367974313649 C 1011.6347951996426,102.63669854450909 1022.7560027201915,141.56092486643072 978.2711726379954,186.0457549486269 C 933.7863425557993,141.56092486643072 944.9075500763482,102.63669854450909 978.2711726379954,74.83367974313649 Z" fill="url(#leaf2)" opacity="0.37" transform="rotate(96.6 978.3 130.4)"/>
    <path d="M 716.7679091162639,901.2745953559291 C 747.2223244259264,926.653274780648 757.373796195814,962.1834259752542 716.7679091162639,1002.7893130548042 C 676.1620220367139,962.1834259752542 686.3134938066014,926.653274780648 716.7679091162639,901.2745953559291 Z" fill="url(#leaf3)" opacity="0.22" transform="rotate(356.5 716.8 952.0)"/>
    <path d="M 741.4379859811887,263.1474887958831 C 786.8313788226269,300.97531616374823 801.962509769773,353.93427447875945 741.4379859811887,414.4587982673437 C 680.9134621926045,353.93427447875945 696.0445931397505,300.97531616374823 741.4379859811887,263.1474887958831 Z" fill="url(#leaf4)" opacity="0.32" transform="rotate(15.3 741.4 338.8)"/>
    <path d="M 122.83639992237045,118.65237443717535 C 181.4234524105196,167.47491817729963 200.95246990656932,235.82647941347363 122.83639992237045,313.9425493976725 C 44.720329938171574,235.82647941347363 64.2493474342213,167.47491817729963 122.83639992237045,118.65237443717535 Z" fill="url(#leaf5)" opacity="0.25" transform="rotate(213.4 122.8 216.3)"/>
    <path d="M 73.35403356368894,101.381188734411 C 129.77319492228366,148.39715653323995 148.57958204181526,214.21951145160045 73.35403356368894,289.44505992972677 C -1.8715149144373697,214.21951145160045 16.93487220509421,148.39715653323995 73.35403356368894,101.381188734411 Z" fill="url(#leaf6)" opacity="0.26" transform="rotate(256.4 73.4 195.4)"/>
    <path d="M 679.7400829685109,559.039008302455 C 705.8922550407655,580.8324850293338 714.609645731517,611.3433524469641 679.7400829685109,646.2129152099702 C 644.8705202055048,611.3433524469641 653.5879108962564,580.8324850293338 679.7400829685109,559.039008302455 Z" fill="url(#leaf7)" opacity="0.21" transform="rotate(149.2 679.7 602.6)"/>
    <path d="M 807.3658741047036,42.730341714257776 C 863.0943010563789,89.17069750732053 881.670443373604,154.18719561760838 807.3658741047036,228.49176488650878 C 733.0613048358032,154.18719561760838 751.6374471530283,89.17069750732053 807.3658741047036,42.730341714257776 Z" fill="url(#leaf8)" opacity="0.28" transform="rotate(123.4 807.4 135.6)"/>
    <path d="M 1354.060798522785,138.67422751280594 C 1379.4084861213666,159.79730051162392 1387.8577153208937,189.3696027099691 1354.060798522785,223.16651950807784 C 1320.2638817246764,189.3696027099691 1328.7131109242034,159.79730051162392 1354.060798522785,138.67422751280594 Z" fill="url(#leaf9)" opacity="0.27" transform="rotate(347.5 1354.1 180.9)"/>
    <path d="M 94.1257379797498,721.4103112737396 C 148.21801224371768,766.4872064937127 166.24877033170696,829.5948598016753 94.1257379797498,901.7178921536324 C 22.002705627792622,829.5948598016753 40.03346371578193,766.4872064937127 94.1257379797498,721.4103112737396 Z" fill="url(#leaf10)" opacity="0.28" transform="rotate(11.3 94.1 811.6)"/>
    <path d="M 467.46679813671443,40.92623437014277 C 499.9788528820455,68.01961332458532 510.8162044638225,105.9503438608049 467.46679813671443,149.299750187913 C 424.1173918096064,105.9503438608049 434.9547433913834,68.01961332458532 467.46679813671443,40.92623437014277 Z" fill="url(#leaf11)" opacity="0.39" transform="rotate(122.5 467.5 95.1)"/>
    <path d="M 1327.869451296923,910.1132657139354 C 1359.3871469513233,936.3780120926023 1369.8930455027898,973.1486570227358 1327.869451296923,1015.1722512286027 C 1285.8458570910561,973.1486570227358 1296.3517556425227,936.3780120926023 1327.869451296923,910.1132657139354 Z" fill="url(#leaf12)" opacity="0.38" transform="rotate(73.2 1327.9 962.6)"/>
    <path d="M 794.3411280210308,402.3047838629145 C 842.0654765621116,442.07507431381515 857.9735927424719,497.75348094507603 794.3411280210308,561.385945666517 C 730.7086632995898,497.75348094507603 746.6167794799501,442.07507431381515 794.3411280210308,402.3047838629145 Z" fill="url(#leaf13)" opacity="0.32" transform="rotate(333.1 794.3 481.8)"/>
    <path d="M 1215.518990204844,812.3318707708858 C 1262.7294597666614,851.673928739067 1278.4662829539338,906.7528098945207 1215.518990204844,969.7001026436106 C 1152.571697455754,906.7528098945207 1168.3085206430264,851.673928739067 1215.518990204844,812.3318707708858 Z" fill="url(#leaf14)" opacity="0.23" transform="rotate(159.3 1215.5 891.0)"/>
    <path d="M 1422.3988411061323,352.07197775621177 C 1457.9338362545825,381.68447371325357 1469.7788346373993,423.1419680531122 1422.3988411061323,470.5219615843791 C 1375.0188475748653,423.1419680531122 1386.863845957682,381.68447371325357 1422.3988411061323,352.07197775621177 Z" fill="url(#leaf15)" opacity="0.24" transform="rotate(139.3 1422.4 411.3)"/>
    <path d="M 74.36151198893582,859.6941779647666 C 100.54877977683338,881.5169011213478 109.2778690394659,912.0687135405617 74.36151198893582,946.9850705910917 C 39.445154938405736,912.0687135405617 48.174244201038256,881.5169011213478 74.36151198893582,859.6941779647666 Z" fill="url(#leaf16)" opacity="0.21" transform="rotate(104.0 74.4 903.3)"/>
    <path d="M 1167.3391438285694,778.6708133218066 C 1205.6898664298399,810.6297488228653 1218.4734406302634,855.3722585243476 1167.3391438285694,906.5065553260416 C 1116.2048470268753,855.3722585243476 1128.9884212272989,810.6297488228653 1167.3391438285694,778.6708133218066 Z" fill="url(#leaf17)" opacity="0.34" transform="rotate(120.3 1167.3 842.6)"/>
    <path d="M 1579.9333579852291,68.99025823872313 C 1611.0340999867603,94.90754323999914 1621.4010139872707,131.1917422417856 1579.9333579852291,172.6593982438272 C 1538.4657019831875,131.1917422417856 1548.832615983698,94.90754323999914 1579.9333579852291,68.99025823872313 Z" fill="url(#leaf18)" opacity="0.36" transform="rotate(111.2 1579.9 120.8)"/>
    <path d="M 407.98880843719803,486.54986095034195 C 457.5500566435073,527.8509011222664 474.070472712277,585.6723573629604 407.98880843719803,651.7540216380394 C 341.90714416211904,585.6723573629604 358.4275602308888,527.8509011222664 407.98880843719803,486.54986095034195 Z" fill="url(#leaf19)" opacity="0.27" transform="rotate(236.6 408.0 569.2)"/>
    <path d="M 233.04847771424662,284.1652873560569 C 267.2359131120012,312.65481685418575 278.6317249112527,352.54015815156606 233.04847771424662,398.12340534857213 C 187.46523051724054,352.54015815156606 198.86104231649205,312.65481685418575 233.04847771424662,284.1652873560569 Z" fill="url(#leaf0)" opacity="0.21" transform="rotate(240.9 233.0 341.1)"/>
    <path d="M 1010.5312010877782,138.27628210426735 C 1049.5846186108772,170.82079670684985 1062.60242445191,216.38311715046535 1010.5312010877782,268.45434051459733 C 958.4599777236461,216.38311715046535 971.4777835646792,170.82079670684985 1010.5312010877782,138.27628210426735 Z" fill="url(#leaf1)" opacity="0.29" transform="rotate(226.7 1010.5 203.4)"/>
    <path d="M 621.837446672561,60.86542073887777 C 658.4296739689042,91.35894348583048 670.6270830676854,134.0498753315643 621.837446672561,182.8395117266886 C 573.0478102774366,134.0498753315643 585.2452193762177,91.35894348583048 621.837446672561,60.86542073887777 Z" fill="url(#leaf2)" opacity="0.39" transform="rotate(35.4 621.8 121.9)"/>
    <path d="M 745.4462638787144,911.7720799990318 C 780.6979223530832,941.1484620610058 792.4484751778729,982.2753969477694 745.4462638787144,1029.277608246928 C 698.4440525795559,982.2753969477694 710.1946054043456,941.1484620610058 745.4462638787144,911.7720799990318 Z" fill="url(#leaf3)" opacity="0.25" transform="rotate(100.4 745.4 970.5)"/>
    <path d="M 1719.1281598608564,489.85873973677826 C 1746.68838873465,512.8255971316064 1755.8751316925814,544.9791974843658 1719.1281598608564,581.7261693160908 C 1682.3811880291314,544.9791974843658 1691.5679309870627,512.8255971316064 1719.1281598608564,489.85873973677826 Z" fill="url(#leaf4)" opacity="0.33" transform="rotate(190.2 1719.1 535.8)"/>
    <path d="M 223.38238629869193,226.3999504849201 C 262.1324328828635,258.69165597172974 275.0491150775874,303.90004365326325 223.38238629869193,355.56677243215864 C 171.7156575197965,303.90004365326325 184.63233971452036,258.69165597172974 223.38238629869193,226.3999504849201 Z" fill="url(#leaf5)" opacity="0.29" transform="rotate(55.7 223.4 291.0)"/>
    <path d="M 1546.902090676782,307.2469596185413 C 1592.2640453366816,345.04858850179085 1607.3846968899813,397.9708689383402 1546.902090676782,458.4534751515394 C 1486.4194844635829,397.9708689383402 1501.5401360168826,345.04858850179085 1546.902090676782,307.2469596185413 Z" fill="url(#leaf6)" opacity="0.33" transform="rotate(6.5 1546.9 382.9)"/>
    <path d="M 875.726909418846,313.8139956371698 C 911.9271976107361,343.9809024637449 923.9939603413661,386.21457202095 875.726909418846,434.48162294347014 C 827.459858496326,386.21457202095 839.526621226956,343.9809024637449 875.726909418846,313.8139956371698 Z" fill="url(#leaf7)" opacity="0.37" transform="rotate(206.1 875.7 374.1)"/>
    <path d="M 968.8642906405998,160.85152250284364 C 1020.9748572464049,204.2769946743478 1038.3450461150064,265.0726557144536 968.8642906405998,334.5534111888603 C 899.3835351661932,265.0726557144536 916.7537240347948,204.2769946743478 968.8642906405998,160.85152250284364 Z" fill="url(#leaf8)" opacity="0.21" transform="rotate(318.5 968.9 247.7)"/>
    <path d="M 1114.9095068912984,829.2303885652132 C 1157.7919173297662,864.9657305972697 1172.0860541425889,914.995209442149 1114.9095068912984,972.1717566934394 C 1057.732959640008,914.995209442149 1072.0270964528306,864.9657305972697 1114.9095068912984,829.2303885652132 Z" fill="url(#leaf9)" opacity="0.32" transform="rotate(294.2 1114.9 900.7)"/>
    <path d="M 932.623909690192,-1.7422505633206242 C 974.5560501491742,33.20119981916457 988.5334303021683,82.12203035464384 932.623909690192,138.03155096662016 C 876.7143890782157,82.12203035464384 890.6917692312098,33.20119981916457 932.623909690192,-1.7422505633206242 Z" fill="url(#leaf10)" opacity="0.29" transform="rotate(336.4 932.6 68.1)"/>
    <path d="M 880.8995703267799,570.0763667266393 C 926.9179793992237,608.4250409536758 942.2574490900382,662.1131848715268 880.8995703267799,723.4710636347851 C 819.5416915635216,662.1131848715268 834.8811612543361,608.4250409536758 880.8995703267799,570.0763667266393 Z" fill="url(#leaf11)" opacity="0.40" transform="rotate(358.7 880.9 646.8)"/>
    <path d="M 1323.4282585475037,593.1633915431307 C 1355.5278238234846,619.9130292731147 1366.2276789154782,657.3625220950925 1323.4282585475037,700.1619424630669 C 1280.628838179529,657.3625220950925 1291.3286932715228,619.9130292731147 1323.4282585475037,593.1633915431307 Z" fill="url(#leaf12)" opacity="0.39" transform="rotate(349.9 1323.4 646.7)"/>
    <path d="M 1733.7399172241471,648.5993372130504 C 1764.1465124072529,673.9381665323051 1774.2820441349547,709.4125275792619 1733.7399172241471,749.9546544900695 C 1693.1977903133395,709.4125275792619 1703.3333220410414,673.9381665323051 1733.7399172241471,648.5993372130504 Z" fill="url(#leaf13)" opacity="0.26" transform="rotate(187.0 1733.7 699.3)"/>
    <path d="M 857.5537548661838,367.1473489482098 C 908.3379904318858,409.4675452529615 925.2660689537864,468.7158200796138 857.5537548661838,536.4281341672165 C 789.8414407785812,468.7158200796138 806.7695193004818,409.4675452529615 857.5537548661838,367.1473489482098 Z" fill="url(#leaf14)" opacity="0.30" transform="rotate(89.6 857.6 451.8)"/>
    <path d="M 691.1547075353506,588.1879671342881 C 739.7737775337625,628.7038587996315 755.9801341998998,685.4261071311121 691.1547075353506,750.2515337956613 C 626.3292808708013,685.4261071311121 642.5356375369386,628.7038587996315 691.1547075353506,588.1879671342881 Z" fill="url(#leaf15)" opacity="0.27" transform="rotate(146.6 691.2 669.2)"/>
    <path d="M 1143.4504288359044,233.63751683962275 C 1182.7202449333145,266.36236358746453 1195.8101836324513,312.177149034443 1143.4504288359044,364.5369038309898 C 1091.0906740393575,312.177149034443 1104.1806127384943,266.36236358746453 1143.4504288359044,233.63751683962275 Z" fill="url(#leaf16)" opacity="0.30" transform="rotate(147.7 1143.5 299.1)"/>
    <path d="M 181.59278484403592,208.18210456458246 C 209.69408855090333,231.59985765363865 219.0611897865258,264.3847119783173 181.59278484403592,301.85311692080717 C 144.12437990154604,264.3847119783173 153.4914811371685,231.59985765363865 181.59278484403592,208.18210456458246 Z" fill="url(#leaf17)" opacity="0.27" transform="rotate(27.1 181.6 255.0)"/>
    <path d="M 1247.721653134863,742.1926437337746 C 1306.975154928932,791.5705618954988 1326.7263221936219,860.6996473219128 1247.721653134863,939.7043163806717 C 1168.716984076104,860.6996473219128 1188.4681513407938,791.5705618954988 1247.721653134863,742.1926437337746 Z" fill="url(#leaf18)" opacity="0.21" transform="rotate(307.7 1247.7 840.9)"/>
    <path d="M 1256.8073832255682,236.36579356795738 C 1309.6284746413728,280.3833697477945 1327.2355051133075,342.0079763995664 1256.8073832255682,412.4360982873058 C 1186.379261337829,342.0079763995664 1203.9862918097635,280.3833697477945 1256.8073832255682,236.36579356795738 Z" fill="url(#leaf19)" opacity="0.40" transform="rotate(233.2 1256.8 324.4)"/>
    <path d="M 1726.7733402634592,456.7539456749461 C 1766.344585598244,489.7299834539335 1779.535000709839,535.8964363445158 1726.7733402634592,588.6580967908956 C 1674.0116798170793,535.8964363445158 1687.2020949286743,489.7299834539335 1726.7733402634592,456.7539456749461 Z" fill="url(#leaf0)" opacity="0.23" transform="rotate(328.3 1726.8 522.7)"/>
    <path d="M 434.4026214485733,790.1817029127911 C 471.7390820815133,821.2954201069077 484.18456895915995,864.8546241786711 434.4026214485733,914.6365716892577 C 384.6206739379867,864.8546241786711 397.06616081563334,821.2954201069077 434.4026214485733,790.1817029127911 Z" fill="url(#leaf1)" opacity="0.27" transform="rotate(49.8 434.4 852.4)"/>
    <path d="M 1724.2226602149103,43.7840253115179 C 1759.4107246393182,73.10741233185777 1771.1400794474541,114.16015416033359 1724.2226602149103,161.07757339287738 C 1677.3052409823665,114.16015416033359 1689.0345957905024,73.10741233185777 1724.2226602149103,43.7840253115179 Z" fill="url(#leaf2)" opacity="0.33" transform="rotate(4.7 1724.2 102.4)"/>
  </g>

  <!-- Central star shape -->
  <polygon points="960.0,226.9 1052.0,413.3 1257.8,443.2 1108.9,588.4 1144.1,793.3 960.0,696.6 775.9,793.3 811.1,588.4 662.2,443.2 868.0,413.3" 
           fill="#FF6B6B" 
           transform="rotate(117.1 960.0 540.0)"/>
</svg>