<?xml version="1.0" encoding="UTF-8"?>
<svg xmlns="http://www.w3.org/2000/svg" viewBox="0 0 1920 1080" width="1920" height="1080">
  <defs>
    <linearGradient id="bgGrad" x1="0%" y1="0%" x2="100%" y2="100%">
      <stop offset="0%" stop-color="#FFE66D"/>
      <stop offset="100%" stop-color="#96E6A1"/>
    </linearGradient>
    <clipPath id="complexClip"><polygon points="1504.9,540.0 1430.0,596.2 1349.1,637.4 1334.1,692.9 1214.6,699.1 1198.1,772.0 1110.7,801.0 1016.3,841.6 908.4,816.1 848.1,733.7 747.6,747.0 603.2,762.9 500.6,727.7 651.3,617.3 484.8,596.8 613.1,540.0 526.3,488.1 438.1,409.3 679.1,425.2 726.1,393.9 683.5,270.6 840.7,333.5 900.9,223.7 1014.6,247.8 1071.0,347.8 1215.1,291.5 1232.1,370.0 1338.3,385.4 1321.7,449.4 1315.0,497.6"/></clipPath>
    <radialGradient id="leaf0" cx="50%" cy="50%" r="70%">
      <stop offset="0%" stop-color="#45B7D1"/>
      <stop offset="50%" stop-color="#FF1493"/>
      <stop offset="100%" stop-color="#FF6B6B"/>
    </radialGradient>
    <radialGradient id="leaf1" cx="50%" cy="50%" r="70%">
      <stop offset="0%" stop-color="#FF1493"/>
      <stop offset="50%" stop-color="#9370DB"/>
      <stop offset="100%" stop-color="#96E6A1"/>
    </radialGradient>
    <radialGradient id="leaf2" cx="50%" cy="50%" r="70%">
      <stop offset="0%" stop-color="#FFE66D"/>
      <stop offset="50%" stop-color="#00CED1"/>
      <stop offset="100%" stop-color="#4ECDC4"/>
    </radialGradient>
    <radialGradient id="leaf3" cx="50%" cy="50%" r="70%">
      <stop offset="0%" stop-color="#FFD700"/>
      <stop offset="50%" stop-color="#FF4500"/>
      <stop offset="100%" stop-color="#32CD32"/>
    </radialGradient>
    <radialGradient id="leaf4" cx="50%" cy="50%" r="70%">
      <stop offset="0%" stop-color="#32CD32"/>
      <stop offset="50%" stop-color="#9370DB"/>
      <stop offset="100%" stop-color="#FF69B4"/>
    </radialGradient>
    <radialGradient id="leaf5" cx="50%" cy="50%" r="70%">
      <stop offset="0%" stop-color="#00FA9A"/>
      <stop offset="50%" stop-color="#FF6B6B"/>
      <stop offset="100%" stop-color="#DC143C"/>
    </radialGradient>
    <radialGradient id="leaf6" cx="50%" cy="50%" r="70%">
      <stop offset="0%" stop-color="#45B7D1"/>
      <stop offset="50%" stop-color="#7B68EE"/>
      <stop offset="100%" stop-color="#FF1493"/>
    </radialGradient>
    <radialGradient id="leaf7" cx="50%" cy="50%" r="70%">
      <stop offset="0%" stop-color="#FFD700"/>
      <stop offset="50%" stop-color="#FFE66D"/>
      <stop offset="100%" stop-color="#FF6B6B"/>
    </radialGradient>
    <radialGradient id="leaf8" cx="50%" cy="50%" r="70%">
      <stop offset="0%" stop-color="#DC143C"/>
      <stop offset="50%" stop-color="#00CED1"/>
      <stop offset="100%" stop-color="#32CD32"/>
    </radialGradient>
    <radialGradient id="leaf9" cx="50%" cy="50%" r="70%">
      <stop offset="0%" stop-color="#9370DB"/>
      <stop offset="50%" stop-color="#96E6A1"/>
      <stop offset="100%" stop-color="#FF1493"/>
    </radialGradient>
    <radialGradient id="leaf10" cx="50%" cy="50%" r="70%">
      <stop offset="0%" stop-color="#7B68EE"/>
      <stop offset="50%" stop-color="#FF4500"/>
      <stop offset="100%" stop-color="#FF1493"/>
    </radialGradient>
    <radialGradient id="leaf11" cx="50%" cy="50%" r="70%">
      <stop offset="0%" stop-color="#00CED1"/>
      <stop offset="50%" stop-color="#9370DB"/>
      <stop offset="100%" stop-color="#FF1493"/>
    </radialGradient>
    <radialGradient id="leaf12" cx="50%" cy="50%" r="70%">
      <stop offset="0%" stop-color="#DC143C"/>
      <stop offset="50%" stop-color="#FFD700"/>
      <stop offset="100%" stop-color="#FFE66D"/>
    </radialGradient>
    <radialGradient id="leaf13" cx="50%" cy="50%" r="70%">
      <stop offset="0%" stop-color="#FF1493"/>
      <stop offset="50%" stop-color="#9370DB"/>
      <stop offset="100%" stop-color="#32CD32"/>
    </radialGradient>
    <radialGradient id="leaf14" cx="50%" cy="50%" r="70%">
      <stop offset="0%" stop-color="#7B68EE"/>
      <stop offset="50%" stop-color="#FF1493"/>
      <stop offset="100%" stop-color="#32CD32"/>
    </radialGradient>
    <radialGradient id="leaf15" cx="50%" cy="50%" r="70%">
      <stop offset="0%" stop-color="#96E6A1"/>
      <stop offset="50%" stop-color="#DC143C"/>
      <stop offset="100%" stop-color="#7B68EE"/>
    </radialGradient>
    <radialGradient id="leaf16" cx="50%" cy="50%" r="70%">
      <stop offset="0%" stop-color="#FF6B6B"/>
      <stop offset="50%" stop-color="#4ECDC4"/>
      <stop offset="100%" stop-color="#FF69B4"/>
    </radialGradient>
    <radialGradient id="leaf17" cx="50%" cy="50%" r="70%">
      <stop offset="0%" stop-color="#00CED1"/>
      <stop offset="50%" stop-color="#9370DB"/>
      <stop offset="100%" stop-color="#FFD700"/>
    </radialGradient>
    <radialGradient id="leaf18" cx="50%" cy="50%" r="70%">
      <stop offset="0%" stop-color="#9370DB"/>
      <stop offset="50%" stop-color="#FFD700"/>
      <stop offset="100%" stop-color="#FF6B6B"/>
    </radialGradient>
    <radialGradient id="leaf19" cx="50%" cy="50%" r="70%">
      <stop offset="0%" stop-color="#96E6A1"/>
      <stop offset="50%" stop-color="#FFE66D"/>
      <stop offset="100%" stop-color="#FF6B6B"/>
    </radialGradient>
  </defs>

  <!-- Background -->
  <rect width="1920" height="1080" fill="url(#bgGrad)"/>
  
  <!-- Leaves with clip-path -->
  <g clip-path="url(#complexClip)">
    <path d="M 204.82053067758355,850.6778873291566 C 246.48920602219977,885.4017834496701 260.3787644704052,934.0152380183891 204.82053067758355,989.5734718112108 C 149.2622968847619,934.0152380183891 163.15185533296733,885.4017834496701 204.82053067758355,850.6778873291566 Z" fill="url(#leaf0)" opacity="0.37" transform="rotate(335.8 204.8 920.1)"/>
    <path d="M 806.7090271326947,30.52559481028429 C 842.9418556410163,60.71961856721895 855.0194651437902,102.99125182692748 806.7090271326947,151.30168983802292 C 758.3985891215992,102.99125182692748 770.4761986243731,60.71961856721895 806.7090271326947,30.52559481028429 Z" fill="url(#leaf1)" opacity="0.26" transform="rotate(93.4 806.7 90.9)"/>
    <path d="M 193.19856255283077,37.13257909622463 C 234.47322725142976,71.52813301172378 248.23144881762943,119.68190849342261 193.19856255283077,174.71479475822127 C 138.1656762880321,119.68190849342261 151.92389785423177,71.52813301172378 193.19856255283077,37.13257909622463 Z" fill="url(#leaf2)" opacity="0.32" transform="rotate(87.9 193.2 105.9)"/>
    <path d="M 1300.5971001166542,758.3658619630156 C 1356.0859784946506,804.6065939446793 1374.582271287316,869.3436187190084 1300.5971001166542,943.3287898896702 C 1226.6119289459925,869.3436187190084 1245.108221738658,804.6065939446793 1300.5971001166542,758.3658619630156 Z" fill="url(#leaf3)" opacity="0.21" transform="rotate(153.0 1300.6 850.8)"/>
    <path d="M 851.1918935506122,704.48394982648 C 905.5969782040484,749.8215203710101 923.7320064218603,813.2941191333523 851.1918935506122,885.8342320046004 C 778.6517806793642,813.2941191333523 796.7868088971761,749.8215203710101 851.1918935506122,704.48394982648 Z" fill="url(#leaf4)" opacity="0.21" transform="rotate(80.3 851.2 795.2)"/>
    <path d="M 903.4832633060086,454.95287233622093 C 940.9986006849368,486.21565348532783 953.5037131445796,529.9835470940775 903.4832633060086,580.0039969326485 C 853.4628134674375,529.9835470940775 865.9679259270803,486.21565348532783 903.4832633060086,454.95287233622093 Z" fill="url(#leaf5)" opacity="0.23" transform="rotate(323.5 903.5 517.5)"/>
    <path d="M 633.5781009778962,27.936878268626202 C 682.2465186822966,68.4938930222932 698.4693245837633,125.27371367742698 633.5781009778962,190.16493728329417 C 568.686877372029,125.27371367742698 584.9096832734957,68.4938930222932 633.5781009778962,27.936878268626202 Z" fill="url(#leaf6)" opacity="0.33" transform="rotate(186.6 633.6 109.1)"/>
    <path d="M 141.56600336568215,207.452040901315 C 174.7112995401352,235.07312104669253 185.7597315982862,273.7426332502211 141.56600336568215,317.93636148282513 C 97.37227513307809,273.7426332502211 108.42070719122911,235.07312104669253 141.56600336568215,207.452040901315 Z" fill="url(#leaf7)" opacity="0.31" transform="rotate(198.5 141.6 262.7)"/>
    <path d="M 1589.0150004096306,450.9051424428085 C 1642.9996036745513,495.89231183024236 1660.9944714295248,558.8743489726498 1589.0150004096306,630.853819992544 C 1517.0355293897364,558.8743489726498 1535.03039714471,495.89231183024236 1589.0150004096306,450.9051424428085 Z" fill="url(#leaf8)" opacity="0.20" transform="rotate(256.4 1589.0 540.9)"/>
    <path d="M 194.41773495520505,853.7086657476166 C 219.937881793463,874.9754547794981 228.44459740621565,904.7489594241324 194.41773495520505,938.775821875143 C 160.39087250419445,904.7489594241324 168.8975881169471,874.9754547794981 194.41773495520505,853.7086657476166 Z" fill="url(#leaf9)" opacity="0.36" transform="rotate(344.3 194.4 896.2)"/>
    <path d="M 1429.5905423784257,377.55675224248006 C 1467.7586073194004,409.3634730266257 1480.4812956330586,453.89288212442955 1429.5905423784257,504.78363537906256 C 1378.6997891237927,453.89288212442955 1391.4224774374509,409.3634730266257 1429.5905423784257,377.55675224248006 Z" fill="url(#leaf10)" opacity="0.30" transform="rotate(15.8 1429.6 441.2)"/>
    <path d="M 729.2068172698711,343.7558974432579 C 761.7008036055964,370.8342193896957 772.5321323841716,408.74387011470867 729.2068172698711,452.0691852290092 C 685.8815021555705,408.74387011470867 696.7128309341457,370.8342193896957 729.2068172698711,343.7558974432579 Z" fill="url(#leaf11)" opacity="0.30" transform="rotate(113.0 729.2 397.9)"/>
    <path d="M 1645.0871703514947,47.50021199041281 C 1701.9885747176952,94.91804896224653 1720.9557095064288,161.30302072281376 1645.0871703514947,237.1715598777477 C 1569.2186311965606,161.30302072281376 1588.1857659852942,94.91804896224653 1645.0871703514947,47.50021199041281 Z" fill="url(#leaf12)" opacity="0.31" transform="rotate(320.4 1645.1 142.3)"/>
    <path d="M 689.7552655066254,-25.71324778663795 C 735.6726007624463,12.551198259879456 750.9783791810532,66.12142272500382 689.7552655066254,127.34453639943168 C 628.5321518321975,66.12142272500382 643.8379302508044,12.551198259879456 689.7552655066254,-25.71324778663795 Z" fill="url(#leaf13)" opacity="0.21" transform="rotate(212.0 689.8 50.8)"/>
    <path d="M 1657.5402343560236,751.7112466866928 C 1701.0966468528306,788.0082571006985 1715.6154510184329,838.8240716803067 1657.5402343560236,896.899288342716 C 1599.4650176936143,838.8240716803067 1613.9838218592165,788.0082571006985 1657.5402343560236,751.7112466866928 Z" fill="url(#leaf14)" opacity="0.23" transform="rotate(159.1 1657.5 824.3)"/>
    <path d="M 324.6242287845943,411.9298329452724 C 349.6991937310254,432.82563706729826 358.0575153798357,462.0797628381345 324.6242287845943,495.5130494333759 C 291.19094218935294,462.0797628381345 299.54926383816326,432.82563706729826 324.6242287845943,411.9298329452724 Z" fill="url(#leaf15)" opacity="0.24" transform="rotate(68.9 324.6 453.7)"/>
    <path d="M 71.22962736780995,199.6267571028912 C 103.23852835823726,226.30084126158062 113.90816202171304,263.64455908374583 71.22962736780995,306.3230937376489 C 28.55109271390687,263.64455908374583 39.22072637738264,226.30084126158062 71.22962736780995,199.6267571028912 Z" fill="url(#leaf16)" opacity="0.26" transform="rotate(215.4 71.2 253.0)"/>
    <path d="M 50.82994870552969,882.6345166124466 C 86.43750662743874,912.3074815473708 98.30669260140843,953.8496324562648 50.82994870552969,1001.3263763521435 C 3.353204809650947,953.8496324562648 15.22239078362064,912.3074815473708 50.82994870552969,882.6345166124466 Z" fill="url(#leaf17)" opacity="0.37" transform="rotate(343.2 50.8 942.0)"/>
    <path d="M 694.7925954494987,586.3520890381576 C 749.4651285452095,631.9125332845833 767.6893062437798,695.6971552295794 694.7925954494987,768.5938660238605 C 621.8958846552175,695.6971552295794 640.1200623537878,631.9125332845833 694.7925954494987,586.3520890381576 Z" fill="url(#leaf18)" opacity="0.29" transform="rotate(193.4 694.8 677.5)"/>
    <path d="M 383.80349375503505,180.1260362012056 C 428.3188335928263,217.22215273269833 443.15728020542343,269.15671587678816 383.80349375503505,328.5105023271765 C 324.44970730464667,269.15671587678816 339.2881539172438,217.22215273269833 383.80349375503505,180.1260362012056 Z" fill="url(#leaf19)" opacity="0.26" transform="rotate(196.2 383.8 254.3)"/>
    <path d="M 1354.8654149447782,844.7081473346816 C 1411.002544167926,891.4890883539715 1429.714920575642,956.9824057809774 1354.8654149447782,1031.8319114118412 C 1280.0159093139143,956.9824057809774 1298.7282857216303,891.4890883539715 1354.8654149447782,844.7081473346816 Z" fill="url(#leaf0)" opacity="0.25" transform="rotate(270.3 1354.9 938.3)"/>
    <path d="M 198.67471093370625,940.6673810657437 C 234.64858343201985,970.6456081476717 246.63987426479105,1012.615126062371 198.67471093370625,1060.5802893934558 C 150.70954760262146,1012.615126062371 162.70083843539265,970.6456081476717 198.67471093370625,940.6673810657437 Z" fill="url(#leaf1)" opacity="0.27" transform="rotate(12.1 198.7 1000.6)"/>
    <path d="M 1392.5498997543225,22.489524310097494 C 1445.277813876873,66.4294527455563 1462.8537852510567,127.94535255519864 1392.5498997543225,198.24923805193274 C 1322.2460142575883,127.94535255519864 1339.821985631772,66.4294527455563 1392.5498997543225,22.489524310097494 Z" fill="url(#leaf2)" opacity="0.39" transform="rotate(194.8 1392.5 110.4)"/>
    <path d="M 1277.3661184986101,838.6165550182495 C 1305.3080459837133,861.9014945891688 1314.6220218120811,894.5004099884558 1277.3661184986101,931.7563133019266 C 1240.1102151851392,894.5004099884558 1249.424191013507,861.9014945891688 1277.3661184986101,838.6165550182495 Z" fill="url(#leaf3)" opacity="0.35" transform="rotate(125.2 1277.4 885.2)"/>
    <path d="M 1200.6835445049142,726.5592395269523 C 1246.0685095086458,764.3800436967286 1261.1968311765565,817.3291695344157 1200.6835445049142,877.8424562060579 C 1140.1702578332718,817.3291695344157 1155.2985795011825,764.3800436967286 1200.6835445049142,726.5592395269523 Z" fill="url(#leaf4)" opacity="0.21" transform="rotate(115.6 1200.7 802.2)"/>
    <path d="M 1261.7516939566951,205.94801653177325 C 1315.488123547246,250.7283745238989 1333.4002667440961,313.4208757128748 1261.7516939566951,385.0694485002759 C 1190.1031211692941,313.4208757128748 1208.0152643661443,250.7283745238989 1261.7516939566951,205.94801653177325 Z" fill="url(#leaf5)" opacity="0.33" transform="rotate(39.9 1261.8 295.5)"/>
    <path d="M 715.7750068681995,2.279247413873833 C 753.0930595643434,33.377624660660416 765.532410463058,76.91535280616164 715.7750068681995,126.67275640102017 C 666.017603273341,76.91535280616164 678.4569541720556,33.377624660660416 715.7750068681995,2.279247413873833 Z" fill="url(#leaf6)" opacity="0.21" transform="rotate(325.7 715.8 64.5)"/>
    <path d="M 172.04238238412148,387.36368967491364 C 218.82119540880439,426.3460338621494 234.4141330836987,480.92131572427945 172.04238238412148,543.2930664238567 C 109.67063168454428,480.92131572427945 125.26356935943858,426.3460338621494 172.04238238412148,387.36368967491364 Z" fill="url(#leaf7)" opacity="0.29" transform="rotate(248.9 172.0 465.3)"/>
    <path d="M 686.3825207075511,771.8177277053034 C 717.9685011121198,798.1393780424439 728.4971612469761,834.9896885144409 686.3825207075511,877.1043290538659 C 644.267880168126,834.9896885144409 654.7965403029823,798.1393780424439 686.3825207075511,771.8177277053034 Z" fill="url(#leaf8)" opacity="0.24" transform="rotate(43.5 686.4 824.5)"/>
    <path d="M 565.353548303194,553.4677307307593 C 620.7926877103266,599.6670135700365 639.2724008460375,664.3460095450246 565.353548303194,738.2648620878681 C 491.43469576035045,664.3460095450246 509.91440889606133,599.6670135700365 565.353548303194,553.4677307307593 Z" fill="url(#leaf9)" opacity="0.27" transform="rotate(31.9 565.4 645.9)"/>
    <path d="M 1284.815679829675,180.28758275349412 C 1342.7256480997034,228.5458896451845 1362.0289708563796,296.10751929355104 1284.815679829675,373.32081032025565 C 1207.6023888029704,296.10751929355104 1226.9057115596465,228.5458896451845 1284.815679829675,180.28758275349412 Z" fill="url(#leaf10)" opacity="0.30" transform="rotate(190.2 1284.8 276.8)"/>
    <path d="M 448.917055708284,18.289104321022677 C 490.4783232047619,52.923493901420954 504.33207903692124,101.41163931397854 448.917055708284,156.8266626426158 C 393.5020323796468,101.41163931397854 407.3557882118061,52.923493901420954 448.917055708284,18.289104321022677 Z" fill="url(#leaf11)" opacity="0.22" transform="rotate(83.5 448.9 87.6)"/>
    <path d="M 835.84065483239,955.3449970274185 C 876.589896503722,989.3026984201952 890.1729770608327,1036.8434803700825 835.84065483239,1091.1758025985253 C 781.5083326039472,1036.8434803700825 795.091413161058,989.3026984201952 835.84065483239,955.3449970274185 Z" fill="url(#leaf12)" opacity="0.31" transform="rotate(16.3 835.8 1023.3)"/>
    <path d="M 915.4062096588044,25.048540842845853 C 960.7712841679466,62.85276960046434 975.892975670994,115.77868986113023 915.4062096588044,176.2654558733198 C 854.9194436466148,115.77868986113023 870.0411351496622,62.85276960046434 915.4062096588044,25.048540842845853 Z" fill="url(#leaf13)" opacity="0.25" transform="rotate(151.9 915.4 100.7)"/>
    <path d="M 302.01679191448295,-11.517665111507824 C 345.8174473376124,24.982881074433386 360.4176658119889,76.08364573475109 302.01679191448295,134.48451963225702 C 243.61591801697702,76.08364573475109 258.2161364913535,24.982881074433386 302.01679191448295,-11.517665111507824 Z" fill="url(#leaf14)" opacity="0.30" transform="rotate(29.0 302.0 61.5)"/>
    <path d="M 1267.1965674754722,238.60332043381226 C 1308.3780210236582,272.9211983906339 1322.105172206387,320.96622753018426 1267.1965674754722,375.8748322610989 C 1212.2879627445575,320.96622753018426 1226.0151139272862,272.9211983906339 1267.1965674754722,238.60332043381226 Z" fill="url(#leaf15)" opacity="0.26" transform="rotate(272.4 1267.2 307.2)"/>
    <path d="M 1192.717957179436,305.1907927861888 C 1250.6534992454822,353.4704111745606 1269.965346600831,421.06187691828114 1192.717957179436,498.309266339676 C 1115.4705677580412,421.06187691828114 1134.78241511339,353.4704111745606 1192.717957179436,305.1907927861888 Z" fill="url(#leaf16)" opacity="0.35" transform="rotate(296.5 1192.7 401.8)"/>
    <path d="M 1129.3014255887051,673.4140858162383 C 1181.6852931879553,717.0673088156135 1199.1465823877054,778.1818210147388 1129.3014255887051,848.0269778137391 C 1059.4562687897048,778.1818210147388 1076.917557989455,717.0673088156135 1129.3014255887051,673.4140858162383 Z" fill="url(#leaf17)" opacity="0.29" transform="rotate(245.6 1129.3 760.7)"/>
    <path d="M 862.459107329866,421.09776105786824 C 889.7065419466498,443.8039565718547 898.7890201522443,475.5926302914358 862.459107329866,511.92254311381413 C 826.1291945074877,475.5926302914358 835.2116727130822,443.8039565718547 862.459107329866,421.09776105786824 Z" fill="url(#leaf18)" opacity="0.29" transform="rotate(101.3 862.5 466.5)"/>
    <path d="M 1317.9119925960688,742.7348589290277 C 1376.9927668049743,791.9688374364491 1396.686358207943,860.8964073468389 1317.9119925960688,939.6707729587131 C 1239.1376269841946,860.8964073468389 1258.8312183871633,791.9688374364491 1317.9119925960688,742.7348589290277 Z" fill="url(#leaf19)" opacity="0.27" transform="rotate(320.5 1317.9 841.2)"/>
    <path d="M 1301.196308222514,562.7510441674499 C 1355.7347572866613,608.199751720906 1373.9142403080439,671.8279422957445 1301.196308222514,744.5458743812742 C 1228.4783761369843,671.8279422957445 1246.6578591583668,608.199751720906 1301.196308222514,562.7510441674499 Z" fill="url(#leaf0)" opacity="0.28" transform="rotate(258.7 1301.2 653.6)"/>
    <path d="M 306.0037355548713,285.0087956993831 C 363.98384364479654,333.32555244098745 383.3105463414383,400.96901187923356 306.0037355548713,478.27582266580055 C 228.6969247683043,400.96901187923356 248.02362746494606,333.32555244098745 306.0037355548713,285.0087956993831 Z" fill="url(#leaf1)" opacity="0.40" transform="rotate(0.9 306.0 381.6)"/>
    <path d="M 1531.4775924916364,519.4387551300033 C 1576.580995495691,557.0249243000487 1591.6154631637091,609.6455611381125 1531.4775924916364,669.7834318101852 C 1471.3397218195637,609.6455611381125 1486.3741894875818,557.0249243000487 1531.4775924916364,519.4387551300033 Z" fill="url(#leaf2)" opacity="0.32" transform="rotate(169.1 1531.5 594.6)"/>
    <path d="M 1635.56138473056,34.11561705463551 C 1692.9228551578299,81.91684241069379 1712.0433453002531,148.8385579091754 1635.56138473056,225.32051847886868 C 1559.0794241608667,148.8385579091754 1578.19991430329,81.91684241069379 1635.56138473056,34.11561705463551 Z" fill="url(#leaf3)" opacity="0.37" transform="rotate(27.2 1635.6 129.7)"/>
    <path d="M 510.901379627968,736.6716725890966 C 559.4818562216251,777.1554030838109 575.6753484195109,833.8326257764109 510.901379627968,898.6065945679537 C 446.1274108364252,833.8326257764109 462.3209030343109,777.1554030838109 510.901379627968,736.6716725890966 Z" fill="url(#leaf4)" opacity="0.27" transform="rotate(38.7 510.9 817.6)"/>
    <path d="M 1068.4717138428537,773.2782774818339 C 1109.3615354083597,807.3531287864222 1122.991475930195,855.0579206128459 1068.4717138428537,909.5776827001872 C 1013.9519517555124,855.0579206128459 1027.5818922773476,807.3531287864222 1068.4717138428537,773.2782774818339 Z" fill="url(#leaf5)" opacity="0.22" transform="rotate(104.7 1068.5 841.4)"/>
    <path d="M 514.063925752442,100.56689443521107 C 552.1418230955633,132.29847555447878 564.8344555432703,176.7226891214536 514.063925752442,227.49321891228198 C 463.29339596161356,176.7226891214536 475.9860284093207,132.29847555447878 514.063925752442,100.56689443521107 Z" fill="url(#leaf6)" opacity="0.32" transform="rotate(274.9 514.1 164.0)"/>
    <path d="M 70.65169005518175,55.39187021059354 C 111.37001490855363,89.32380758840344 124.9427898596776,136.82851991733733 70.65169005518175,191.11961972183317 C 16.36059025068589,136.82851991733733 29.933365201809856,89.32380758840344 70.65169005518175,55.39187021059354 Z" fill="url(#leaf7)" opacity="0.22" transform="rotate(121.3 70.7 123.3)"/>
    <path d="M 1523.268753788888,504.7135725353651 C 1578.6366868272346,550.8535167339871 1597.0926645066834,615.449438612058 1523.268753788888,689.2733493298533 C 1449.4448430710927,615.449438612058 1467.9008207505415,550.8535167339871 1523.268753788888,504.7135725353651 Z" fill="url(#leaf8)" opacity="0.39" transform="rotate(199.8 1523.3 597.0)"/>
    <path d="M 828.4599920291113,653.0455529661053 C 884.1878912808208,699.4854690091967 902.7638576980574,764.5013514695245 828.4599920291113,838.8052171384707 C 754.1561263601651,764.5013514695245 772.7320927774017,699.4854690091967 828.4599920291113,653.0455529661053 Z" fill="url(#leaf9)" opacity="0.35" transform="rotate(217.8 828.5 745.9)"/>
    <path d="M 1598.5109865616625,301.236037027237 C 1634.9868494784193,331.63258945786777 1647.1454704506718,374.1877628607508 1598.5109865616625,422.82224674976 C 1549.8765026726533,374.1877628607508 1562.0351236449058,331.63258945786777 1598.5109865616625,301.236037027237 Z" fill="url(#leaf10)" opacity="0.39" transform="rotate(319.3 1598.5 362.0)"/>
    <path d="M 502.5354567598152,578.0254668928325 C 550.1911797879569,617.7385694162839 566.0764207973375,673.3369129491159 502.5354567598152,736.8778769866382 C 438.99449272229293,673.3369129491159 454.87973373167347,617.7385694162839 502.5354567598152,578.0254668928325 Z" fill="url(#leaf11)" opacity="0.35" transform="rotate(275.9 502.5 657.5)"/>
    <path d="M 458.3611317978777,709.6720611583295 C 489.5674732753454,735.6773457228859 499.969587101168,772.0847441132648 458.3611317978777,813.6931994165551 C 416.75267649458743,772.0847441132648 427.15479032041003,735.6773457228859 458.3611317978777,709.6720611583295 Z" fill="url(#leaf12)" opacity="0.35" transform="rotate(102.8 458.4 761.7)"/>
    <path d="M 978.4984411488718,731.7944529138499 C 1037.1111122106736,780.6383454653513 1056.6486692312742,849.0197950374534 978.4984411488718,927.1700231198556 C 900.3482130664695,849.0197950374534 919.8857700870701,780.6383454653513 978.4984411488718,731.7944529138499 Z" fill="url(#leaf13)" opacity="0.22" transform="rotate(161.7 978.5 829.5)"/>
    <path d="M 322.4024919916961,201.10170832973793 C 373.37600111118115,243.57963259597545 390.36717081767614,303.04872656870805 322.4024919916961,371.0134053946881 C 254.43781316571602,303.04872656870805 271.428982872211,243.57963259597545 322.4024919916961,201.10170832973793 Z" fill="url(#leaf14)" opacity="0.39" transform="rotate(238.7 322.4 286.1)"/>
    <path d="M 1815.45768161649,133.49689179823247 C 1857.8219902345013,168.8004823132419 1871.943426440505,218.22550903425508 1815.45768161649,274.71125385827014 C 1758.971936792475,218.22550903425508 1773.0933729984786,168.8004823132419 1815.45768161649,133.49689179823247 Z" fill="url(#leaf15)" opacity="0.27" transform="rotate(333.1 1815.5 204.1)"/>
    <path d="M 1107.912543554661,100.91824580138513 C 1142.409583743335,129.66577929194676 1153.9085971395596,169.91232617873303 1107.912543554661,215.90837976363161 C 1061.9164899697623,169.91232617873303 1073.415503365987,129.66577929194676 1107.912543554661,100.91824580138513 Z" fill="url(#leaf16)" opacity="0.28" transform="rotate(251.7 1107.9 158.4)"/>
    <path d="M 578.9082548547972,764.9626544086163 C 626.8497878228035,804.913931881955 642.830298812139,860.8457203446291 578.9082548547972,924.7677643019708 C 514.9862108974554,860.8457203446291 530.9667218867909,804.913931881955 578.9082548547972,764.9626544086163 Z" fill="url(#leaf17)" opacity="0.36" transform="rotate(32.9 578.9 844.9)"/>
    <path d="M 1401.5661453018838,719.5531523938747 C 1457.1841220574784,765.9014663568702 1475.7234476426765,830.7891059050638 1401.5661453018838,904.9464082458566 C 1327.408842961091,830.7891059050638 1345.9481685462893,765.9014663568702 1401.5661453018838,719.5531523938747 Z" fill="url(#leaf18)" opacity="0.25" transform="rotate(41.3 1401.6 812.2)"/>
    <path d="M 615.9235564238531,921.8975759364632 C 664.0605023166546,962.0116975137978 680.1061509475885,1018.1714677220662 615.9235564238531,1082.3540622458015 C 551.7409619001178,1018.1714677220662 567.7866105310517,962.0116975137978 615.9235564238531,921.8975759364632 Z" fill="url(#leaf19)" opacity="0.34" transform="rotate(117.3 615.9 1002.1)"/>
    <path d="M 635.5756266227415,841.6373866859369 C 662.5777873999407,864.139187333603 671.5785076590072,895.6417082403353 635.5756266227415,931.644589276601 C 599.5727455864759,895.6417082403353 608.5734658455424,864.139187333603 635.5756266227415,841.6373866859369 Z" fill="url(#leaf0)" opacity="0.26" transform="rotate(335.8 635.6 886.6)"/>
    <path d="M 1153.6656645540675,851.2871544171281 C 1194.8820765958008,885.6341644519058 1208.6208806097118,933.7199785005945 1153.6656645540675,988.6751945562388 C 1098.7104484984231,933.7199785005945 1112.4492525123342,885.6341644519058 1153.6656645540675,851.2871544171281 Z" fill="url(#leaf1)" opacity="0.37" transform="rotate(209.1 1153.7 920.0)"/>
    <path d="M 79.8101472154242,248.7130368985275 C 129.4136195294802,290.04926382690746 145.94811030083218,347.9199815266395 79.8101472154242,414.0579446120475 C 13.672184130016191,347.9199815266395 30.206674901368196,290.04926382690746 79.8101472154242,248.7130368985275 Z" fill="url(#leaf2)" opacity="0.31" transform="rotate(94.8 79.8 331.4)"/>
    <path d="M 1225.8773431863342,177.89780789981717 C 1280.7720688592713,223.6434126272647 1299.0703107502502,287.6872592456912 1225.8773431863342,360.8802268096073 C 1152.6843756224182,287.6872592456912 1170.9826175133971,223.6434126272647 1225.8773431863342,177.89780789981717 Z" fill="url(#leaf3)" opacity="0.30" transform="rotate(308.9 1225.9 269.4)"/>
    <path d="M 518.7793274125336,683.8847338432614 C 564.2640794007409,721.7886938334341 579.4256633968099,774.854237819676 518.7793274125336,835.5005738039523 C 458.1329914282572,774.854237819676 473.2945754243263,721.7886938334341 518.7793274125336,683.8847338432614 Z" fill="url(#leaf4)" opacity="0.31" transform="rotate(61.2 518.8 759.7)"/>
    <path d="M 826.8995935126948,300.78017450014903 C 862.1494296487361,330.15503794685014 873.8993750274166,371.2798467722318 826.8995935126948,418.2796282869536 C 779.899811997973,371.2798467722318 791.6497573766534,330.15503794685014 826.8995935126948,300.78017450014903 Z" fill="url(#leaf5)" opacity="0.35" transform="rotate(5.6 826.9 359.5)"/>
    <path d="M 86.38959887674724,839.3242061667822 C 137.22500464407946,881.6870443062257 154.1701398998569,940.9950177014466 86.38959887674724,1008.7755587245563 C 18.609057853637594,940.9950177014466 35.55419310941502,881.6870443062257 86.38959887674724,839.3242061667822 Z" fill="url(#leaf6)" opacity="0.39" transform="rotate(326.3 86.4 924.0)"/>
    <path d="M 326.53837307324875,948.8501688027607 C 371.2489779954457,986.1090062379247 386.1525129695114,1038.2713786471545 326.53837307324875,1097.8855185434172 C 266.9242331769861,1038.2713786471545 281.82776815105177,986.1090062379247 326.53837307324875,948.8501688027607 Z" fill="url(#leaf7)" opacity="0.29" transform="rotate(277.6 326.5 1023.4)"/>
    <path d="M 942.22289955489,216.13556727611638 C 979.0495037866679,246.82440413593125 991.3250385305937,289.7887757396721 942.22289955489,338.89091471537586 C 893.1207605791863,289.7887757396721 905.3962953231121,246.82440413593125 942.22289955489,216.13556727611638 Z" fill="url(#leaf8)" opacity="0.22" transform="rotate(37.9 942.2 277.5)"/>
    <path d="M 1481.6397367815493,665.9865410386761 C 1511.8886430271257,691.1939629099898 1521.9716117756511,726.4843535298288 1481.6397367815493,766.8162285239306 C 1441.3078617874476,726.4843535298288 1451.390830535973,691.1939629099898 1481.6397367815493,665.9865410386761 Z" fill="url(#leaf9)" opacity="0.28" transform="rotate(331.9 1481.6 716.4)"/>
    <path d="M 1228.000760107091,537.4480932229359 C 1254.2434906601306,559.3170353504687 1262.9910675111437,589.9335543290148 1228.000760107091,624.9238617330674 C 1193.0104527030385,589.9335543290148 1201.7580295540515,559.3170353504687 1228.000760107091,537.4480932229359 Z" fill="url(#leaf10)" opacity="0.25" transform="rotate(74.8 1228.0 581.2)"/>
    <path d="M 68.6032370008153,654.1150670705765 C 116.85274207019262,694.3229879617243 132.93591042665173,750.6140772093311 68.6032370008153,814.9467506351675 C 4.2705635749788655,750.6140772093311 20.353731931437984,694.3229879617243 68.6032370008153,654.1150670705765 Z" fill="url(#leaf11)" opacity="0.21" transform="rotate(224.8 68.6 734.5)"/>
    <path d="M 982.90784060969,295.4060971174071 C 1019.4590603794062,325.86544692550393 1031.642800302645,368.50853665683945 982.90784060969,417.2434963497944 C 934.172880916735,368.50853665683945 946.3566208399737,325.86544692550393 982.90784060969,295.4060971174071 Z" fill="url(#leaf12)" opacity="0.27" transform="rotate(353.7 982.9 356.3)"/>
    <path d="M 1119.939880390277,123.08419017742972 C 1160.2215922719017,156.65228341211701 1173.6488295657766,203.64761394067924 1119.939880390277,257.3565631161789 C 1066.2309312147775,203.64761394067924 1079.6581685086524,156.65228341211701 1119.939880390277,123.08419017742972 Z" fill="url(#leaf13)" opacity="0.21" transform="rotate(207.7 1119.9 190.2)"/>
    <path d="M 476.977770178206,196.30019230134198 C 504.3710234521666,219.1279033629758 513.5021078768201,251.0866988492631 476.977770178206,287.6110365478771 C 440.4534324795919,251.0866988492631 449.58451690424545,219.1279033629758 476.977770178206,196.30019230134198 Z" fill="url(#leaf14)" opacity="0.23" transform="rotate(55.8 477.0 242.0)"/>
    <path d="M 1417.1826960680874,79.94111584680279 C 1465.9576749577516,120.58693158818966 1482.2160012543063,177.49107362613125 1417.1826960680874,242.52437881235022 C 1352.1493908818684,177.49107362613125 1368.4077171784231,120.58693158818966 1417.1826960680874,79.94111584680279 Z" fill="url(#leaf15)" opacity="0.30" transform="rotate(42.4 1417.2 161.2)"/>
    <path d="M 323.4283290574516,430.3608362374915 C 359.50045052252267,460.42093745838406 371.5244910108797,502.5050791676336 323.4283290574516,550.6012411210617 C 275.33216710402354,502.5050791676336 287.35620759238054,460.42093745838406 323.4283290574516,430.3608362374915 Z" fill="url(#leaf16)" opacity="0.31" transform="rotate(45.6 323.4 490.5)"/>
    <path d="M 1138.9276800360392,309.2395662584688 C 1164.7161500196191,330.7299579114522 1173.3123066808125,360.8165062256288 1138.9276800360392,395.20113287040215 C 1104.5430533912659,360.8165062256288 1113.1392100524592,330.7299579114522 1138.9276800360392,309.2395662584688 Z" fill="url(#leaf17)" opacity="0.33" transform="rotate(114.1 1138.9 352.2)"/>
    <path d="M 785.6956299042996,247.24826093516344 C 837.706058957159,290.5902851458796 855.0428686414455,351.2691190408822 785.6956299042996,420.61635777802803 C 716.3483911671537,351.2691190408822 733.6852008514402,290.5902851458796 785.6956299042996,247.24826093516344 Z" fill="url(#leaf18)" opacity="0.22" transform="rotate(316.2 785.7 333.9)"/>
    <path d="M 1248.4116702587462,764.165940971463 C 1296.2179053733123,804.0044702336014 1312.1533170781677,859.7784112005952 1248.4116702587462,923.5200580200167 C 1184.6700234393247,859.7784112005952 1200.60543514418,804.0044702336014 1248.4116702587462,764.165940971463 Z" fill="url(#leaf19)" opacity="0.23" transform="rotate(286.8 1248.4 843.8)"/>
    <path d="M 1527.5450570139672,676.6042965588215 C 1572.3494239517734,713.9412690069934 1587.2842129310422,766.213030434434 1527.5450570139672,825.952186351509 C 1467.805901096892,766.213030434434 1482.740690076161,713.9412690069934 1527.5450570139672,676.6042965588215 Z" fill="url(#leaf0)" opacity="0.28" transform="rotate(7.8 1527.5 751.3)"/>
    <path d="M 127.84640893103388,636.331416048587 C 177.88961312463167,678.0340862099184 194.57068118916428,736.4178244357826 127.84640893103388,803.1420966939129 C 61.12213667290348,736.4178244357826 77.80320473743609,678.0340862099184 127.84640893103388,636.331416048587 Z" fill="url(#leaf1)" opacity="0.35" transform="rotate(8.5 127.8 719.7)"/>
    <path d="M 507.8618415206974,342.2354265345797 C 533.4704035993079,363.57589493342175 542.0065909588448,393.45255069180064 507.8618415206974,427.59730012994794 C 473.7170920825501,393.45255069180064 482.2532794420869,363.57589493342175 507.8618415206974,342.2354265345797 Z" fill="url(#leaf2)" opacity="0.23" transform="rotate(11.3 507.9 384.9)"/>
    <path d="M 428.287943461026,633.6476855644773 C 465.28172543146354,664.4758372065086 477.6129860882761,707.6352495053525 428.287943461026,756.9602921326025 C 378.96290083377585,707.6352495053525 391.2941614905884,664.4758372065086 428.287943461026,633.6476855644773 Z" fill="url(#leaf3)" opacity="0.32" transform="rotate(199.9 428.3 695.3)"/>
    <path d="M 395.3477990440655,-8.758976850563592 C 431.62251365819026,21.4699519945404 443.71408519623185,63.79045237768599 395.3477990440655,112.15673852985236 C 346.9815128918991,63.79045237768599 359.0730844299407,21.4699519945404 395.3477990440655,-8.758976850563592 Z" fill="url(#leaf4)" opacity="0.32" transform="rotate(269.8 395.3 51.7)"/>
    <path d="M 1668.7423611797394,124.15395384219732 C 1727.8702952604237,173.42723224276762 1747.579606620652,242.40982200356598 1668.7423611797394,321.24706744447843 C 1589.905115738827,242.40982200356598 1609.614427099055,173.42723224276762 1668.7423611797394,124.15395384219732 Z" fill="url(#leaf5)" opacity="0.23" transform="rotate(44.0 1668.7 222.7)"/>
    <path d="M 1452.713128399895,524.844794254452 C 1504.0089196028455,567.5912869235775 1521.1075166704957,627.4363766603532 1452.713128399895,695.8307649309539 C 1384.3187401292942,627.4363766603532 1401.4173371969443,567.5912869235775 1452.713128399895,524.844794254452 Z" fill="url(#leaf6)" opacity="0.27" transform="rotate(26.8 1452.7 610.3)"/>
    <path d="M 808.752242765993,54.726266818983696 C 836.6685690173767,77.9898720284702 845.9740111011714,110.55891932175132 808.752242765993,147.78068765692973 C 771.5304744308145,110.55891932175132 780.8359165146092,77.9898720284702 808.752242765993,54.726266818983696 Z" fill="url(#leaf7)" opacity="0.24" transform="rotate(76.7 808.8 101.3)"/>
    <path d="M 1320.5446123320191,626.1000155891707 C 1366.0363288289298,664.0097793365962 1381.2002343279,717.0834485829919 1320.5446123320191,777.7390705788728 C 1259.8889903361382,717.0834485829919 1275.0528958351085,664.0097793365962 1320.5446123320191,626.1000155891707 Z" fill="url(#leaf8)" opacity="0.26" transform="rotate(163.0 1320.5 701.9)"/>
    <path d="M 616.386909746363,351.4981095756274 C 657.8312637047613,386.03507120762595 671.6460483575607,434.3868174924239 616.386909746363,489.64595610362164 C 561.1277711351653,434.3868174924239 574.9425557879647,386.03507120762595 616.386909746363,351.4981095756274 Z" fill="url(#leaf9)" opacity="0.30" transform="rotate(34.0 616.4 420.6)"/>
    <path d="M 892.0145398008686,481.75587640304724 C 950.3039312770195,530.3303692998396 969.7337284357365,598.3346593553489 892.0145398008686,676.0538479902166 C 814.2953511660008,598.3346593553489 833.7251483247178,530.3303692998396 892.0145398008686,481.75587640304724 Z" fill="url(#leaf10)" opacity="0.22" transform="rotate(266.4 892.0 578.9)"/>
    <path d="M 1859.1868503118662,15.399591760696339 C 1911.9633085889425,59.379973658259814 1929.5554613479678,120.95250831484869 1859.1868503118662,191.32111935095026 C 1788.8182392757647,120.95250831484869 1806.41039203479,59.379973658259814 1859.1868503118662,15.399591760696339 Z" fill="url(#leaf11)" opacity="0.28" transform="rotate(65.0 1859.2 103.4)"/>
    <path d="M 371.91995390791374,378.6591979365444 C 429.0208981425021,426.2433181320347 448.0545462206983,492.86108640572115 371.91995390791374,568.9956787185057 C 295.7853615951292,492.86108640572115 314.81900967332535,426.2433181320347 371.91995390791374,378.6591979365444 Z" fill="url(#leaf12)" opacity="0.20" transform="rotate(239.3 371.9 473.8)"/>
    <path d="M 149.48510768475973,309.3066966913736 C 174.64667938138004,330.2746731052239 183.03386994692013,359.6298400846142 149.48510768475973,393.17860234677465 C 115.93634542259932,359.6298400846142 124.32353598813941,330.2746731052239 149.48510768475973,309.3066966913736 Z" fill="url(#leaf13)" opacity="0.30" transform="rotate(337.7 149.5 351.2)"/>
    <path d="M 1821.9402096076974,475.0248124207615 C 1873.403275743554,517.9107008673087 1890.5576311221728,577.9509446924748 1821.9402096076974,646.5683662069503 C 1753.322788093222,577.9509446924748 1770.4771434718407,517.9107008673087 1821.9402096076974,475.0248124207615 Z" fill="url(#leaf14)" opacity="0.24" transform="rotate(111.7 1821.9 560.8)"/>
    <path d="M 922.5450982933575,972.1869537646302 C 955.482606639669,999.6348773865566 966.4617760884396,1038.0619704572534 922.5450982933575,1081.9786482523355 C 878.6284204982753,1038.0619704572534 889.6075899470459,999.6348773865566 922.5450982933575,972.1869537646302 Z" fill="url(#leaf15)" opacity="0.26" transform="rotate(80.6 922.5 1027.1)"/>
    <path d="M 1797.2890721057677,342.64562254693146 C 1844.0924804945641,381.6484628709285 1859.6936166241628,436.2524393245243 1797.2890721057677,498.65698384291954 C 1734.8845275873725,436.2524393245243 1750.4856637169712,381.6484628709285 1797.2890721057677,342.64562254693146 Z" fill="url(#leaf16)" opacity="0.23" transform="rotate(349.8 1797.3 420.7)"/>
    <path d="M 1310.952955425558,608.2650037155838 C 1344.7556789449054,636.4339399817067 1356.0232534513543,675.8704507542785 1310.952955425558,720.940748780075 C 1265.8826573997617,675.8704507542785 1277.1502319062106,636.4339399817067 1310.952955425558,608.2650037155838 Z" fill="url(#leaf17)" opacity="0.39" transform="rotate(335.3 1311.0 664.6)"/>
    <path d="M 1188.7132720281559,832.4758186566597 C 1231.1781996388988,867.8632583322789 1245.3331755091465,917.4056738781456 1188.7132720281559,974.0255773591363 C 1132.0933685471653,917.4056738781456 1146.248344417413,867.8632583322789 1188.7132720281559,832.4758186566597 Z" fill="url(#leaf18)" opacity="0.39" transform="rotate(336.6 1188.7 903.3)"/>
    <path d="M 1171.6972698332465,38.853084893026704 C 1229.7554263833872,87.23488201814395 1249.1081452334342,154.9693979933081 1171.6972698332465,232.38027339349568 C 1094.2863944330588,154.9693979933081 1113.6391132831059,87.23488201814395 1171.6972698332465,38.853084893026704 Z" fill="url(#leaf19)" opacity="0.37" transform="rotate(130.5 1171.7 135.6)"/>
    <path d="M 1830.884960648702,828.9749814783323 C 1870.2291890459637,861.7618384760505 1883.343931845051,907.663438272856 1830.884960648702,960.1224094692051 C 1778.425989452353,907.663438272856 1791.5407322514402,861.7618384760505 1830.884960648702,828.9749814783323 Z" fill="url(#leaf0)" opacity="0.39" transform="rotate(281.7 1830.9 894.5)"/>
    <path d="M 1298.1111282976995,222.30157241135134 C 1345.12712573747,261.4815702778268 1360.7991248840601,316.3335672908924 1298.1111282976995,379.02156387725313 C 1235.4231317113388,316.3335672908924 1251.095130857929,261.4815702778268 1298.1111282976995,222.30157241135134 Z" fill="url(#leaf1)" opacity="0.34" transform="rotate(88.9 1298.1 300.7)"/>
    <path d="M 1063.0498809466446,97.2611717167168 C 1108.299693381462,134.9693487457313 1123.382964193068,187.76079658635163 1063.0498809466446,248.09387983277483 C 1002.7167977002214,187.76079658635163 1017.8000685118272,134.9693487457313 1063.0498809466446,97.2611717167168 Z" fill="url(#leaf2)" opacity="0.24" transform="rotate(340.2 1063.0 172.7)"/>
    <path d="M 355.24675225895294,455.20140622511684 C 407.73715085384407,498.94340505419274 425.23395038547443,560.182203414899 355.24675225895294,630.1694015414206 C 285.25955413243145,560.182203414899 302.7563536640618,498.94340505419274 355.24675225895294,455.20140622511684 Z" fill="url(#leaf3)" opacity="0.36" transform="rotate(76.5 355.2 542.7)"/>
    <path d="M 1866.530464942988,29.5881373703276 C 1897.3661898264909,55.284574773246725 1907.6447647876585,91.2595871373335 1866.530464942988,132.37388698200408 C 1825.4161650983174,91.2595871373335 1835.694740059485,55.284574773246725 1866.530464942988,29.5881373703276 Z" fill="url(#leaf4)" opacity="0.40" transform="rotate(358.6 1866.5 81.0)"/>
    <path d="M 709.730139397745,357.04994036090875 C 748.4797566655822,389.34128808410634 761.3962957548612,434.54917489658294 709.730139397745,486.2153312536991 C 658.0639830406288,434.54917489658294 670.9805221299079,389.34128808410634 709.730139397745,357.04994036090875 Z" fill="url(#leaf5)" opacity="0.28" transform="rotate(231.2 709.7 421.6)"/>
    <path d="M 1589.8470754066602,908.0921472221403 C 1629.0899227045977,940.7945199704214 1642.1708718039101,986.577841818015 1589.8470754066602,1038.901638215265 C 1537.5232790094103,986.577841818015 1550.6042281087227,940.7945199704214 1589.8470754066602,908.0921472221403 Z" fill="url(#leaf6)" opacity="0.24" transform="rotate(28.2 1589.8 973.5)"/>
    <path d="M 1001.611359014103,773.3450113568975 C 1031.3188538792901,798.101257077887 1041.221352167686,832.7600010872721 1001.611359014103,872.3699942408551 C 962.00136586052,832.7600010872721 971.9038641489157,798.101257077887 1001.611359014103,773.3450113568975 Z" fill="url(#leaf7)" opacity="0.26" transform="rotate(360.0 1001.6 822.9)"/>
    <path d="M 487.44393863439586,279.30458411576944 C 537.9073482539592,321.3574254654055 554.7284847938137,380.23140335489603 487.44393863439586,447.5159495143138 C 420.1593924749781,380.23140335489603 436.98052901483254,321.3574254654055 487.44393863439586,279.30458411576944 Z" fill="url(#leaf8)" opacity="0.25" transform="rotate(15.5 487.4 363.4)"/>
    <path d="M 1523.0439054436254,10.118194922106397 C 1576.7496276099985,54.872963394083946 1594.6515349987894,117.52963925485251 1523.0439054436254,189.1372688100166 C 1451.4362758884613,117.52963925485251 1469.3381832772523,54.872963394083946 1523.0439054436254,10.118194922106397 Z" fill="url(#leaf9)" opacity="0.31" transform="rotate(56.1 1523.0 99.6)"/>
    <path d="M 1281.6584726223978,69.71291642448818 C 1319.9041967336498,101.58435318386478 1332.6527714374004,146.20436464699202 1281.6584726223978,197.19866346199456 C 1230.6641738073952,146.20436464699202 1243.4127485111458,101.58435318386478 1281.6584726223978,69.71291642448818 Z" fill="url(#leaf10)" opacity="0.23" transform="rotate(303.7 1281.7 133.5)"/>
    <path d="M 828.4332997402812,348.43546529650337 C 873.5967931775887,386.07170982759294 888.6512909900244,438.76245217111835 828.4332997402812,498.98044342086166 C 768.215308490538,438.76245217111835 783.2698063029737,386.07170982759294 828.4332997402812,348.43546529650337 Z" fill="url(#leaf11)" opacity="0.27" transform="rotate(233.8 828.4 423.7)"/>
    <path d="M 708.2046491573211,-11.01084306725464 C 748.3849908644977,22.47277502205914 761.7784381002232,69.34984034709844 708.2046491573211,122.92362929000048 C 654.630860214419,69.34984034709844 668.0243074501445,22.47277502205914 708.2046491573211,-11.01084306725464 Z" fill="url(#leaf12)" opacity="0.38" transform="rotate(32.3 708.2 56.0)"/>
    <path d="M 995.6681007121837,326.37644676616947 C 1046.1357169944777,368.4327936680812 1062.9582557552424,427.3116793307576 995.6681007121837,494.60183437381636 C 928.3779456691249,427.3116793307576 945.2004844298896,368.4327936680812 995.6681007121837,326.37644676616947 Z" fill="url(#leaf13)" opacity="0.24" transform="rotate(249.1 995.7 410.5)"/>
    <path d="M 838.1033856447424,415.1488793743638 C 894.3327654164168,462.0066958507591 913.0758920069749,527.6076389177125 838.1033856447424,602.580145279945 C 763.1308792825099,527.6076389177125 781.874005873068,462.0066958507591 838.1033856447424,415.1488793743638 Z" fill="url(#leaf14)" opacity="0.24" transform="rotate(81.0 838.1 508.9)"/>
    <path d="M 1057.1008726786636,113.46932483599906 C 1094.9908794296468,145.04433046181842 1107.6208816799744,189.2493383379655 1057.1008726786636,239.76934733927644 C 1006.5808636773526,189.2493383379655 1019.2108659276804,145.04433046181842 1057.1008726786636,113.46932483599906 Z" fill="url(#leaf15)" opacity="0.27" transform="rotate(117.1 1057.1 176.6)"/>
    <path d="M 1319.638470960491,465.6043605794444 C 1369.7624911251028,507.3743773832875 1386.47049784664,565.8524009086677 1319.638470960491,632.6844277948165 C 1252.8064440743422,565.8524009086677 1269.5144507958794,507.3743773832875 1319.638470960491,465.6043605794444 Z" fill="url(#leaf16)" opacity="0.32" transform="rotate(266.5 1319.6 549.1)"/>
    <path d="M 1547.4706324836316,588.9452935922402 C 1595.4515095132567,628.9293577835946 1611.4451351897985,684.9070476514905 1547.4706324836316,748.8815503576575 C 1483.4961297774646,684.9070476514905 1499.4897554540064,628.9293577835946 1547.4706324836316,588.9452935922402 Z" fill="url(#leaf17)" opacity="0.39" transform="rotate(350.8 1547.5 668.9)"/>
    <path d="M 543.6459057375457,410.8051553450385 C 593.1457771422389,452.0550481822828 609.6457342771366,509.80489815442485 543.6459057375457,575.8047266940157 C 477.6460771979548,509.80489815442485 494.14603433285254,452.0550481822828 543.6459057375457,410.8051553450385 Z" fill="url(#leaf18)" opacity="0.36" transform="rotate(228.7 543.6 493.3)"/>
    <path d="M 116.53820719766614,826.1483246496527 C 171.0353602863305,871.5626188902064 189.20107798255196,935.1426308269815 116.53820719766614,1007.8055016118674 C 43.8753364127803,935.1426308269815 62.04105410900177,871.5626188902064 116.53820719766614,826.1483246496527 Z" fill="url(#leaf19)" opacity="0.32" transform="rotate(39.2 116.5 917.0)"/>
    <path d="M 1037.3745091288665,785.9795940629895 C 1090.9444427490687,830.621205413158 1108.8010872891361,893.119461303394 1037.3745091288665,964.5460394636636 C 965.9479309685969,893.119461303394 983.8045755086642,830.621205413158 1037.3745091288665,785.9795940629895 Z" fill="url(#leaf0)" opacity="0.36" transform="rotate(42.9 1037.4 875.3)"/>
    <path d="M 1208.9309814762714,393.7203533009667 C 1241.8633098081434,421.1639602441934 1252.840752585434,459.58500996471076 1208.9309814762714,503.4947810738735 C 1165.0212103671088,459.58500996471076 1175.9986531443994,421.1639602441934 1208.9309814762714,393.7203533009667 Z" fill="url(#leaf1)" opacity="0.24" transform="rotate(318.1 1208.9 448.6)"/>
    <path d="M 1795.067520363208,183.95351027284272 C 1843.397730071896,224.2286850300828 1859.507799974792,280.6139296902189 1795.067520363208,345.05420930180304 C 1730.6272407516237,280.6139296902189 1746.73731065452,224.2286850300828 1795.067520363208,183.95351027284272 Z" fill="url(#leaf2)" opacity="0.28" transform="rotate(304.8 1795.1 264.5)"/>
    <path d="M 355.22133814872996,737.9842951759806 C 396.1002367627043,772.0500440209593 409.7265363006958,819.7420924039294 355.22133814872996,874.2472905558952 C 300.7161399967641,819.7420924039294 314.3424395347556,772.0500440209593 355.22133814872996,737.9842951759806 Z" fill="url(#leaf3)" opacity="0.24" transform="rotate(338.9 355.2 806.1)"/>
    <path d="M 851.9483283687097,885.199271117699 C 904.3465625531014,928.8644662713588 921.8126406145653,989.9957394864825 851.9483283687097,1059.8600517323382 C 782.084016122854,989.9957394864825 799.5500941843179,928.8644662713588 851.9483283687097,885.199271117699 Z" fill="url(#leaf4)" opacity="0.40" transform="rotate(26.0 851.9 972.5)"/>
    <path d="M 689.2118693475127,672.2758612028906 C 720.8666445721531,698.6548405567576 731.4182363136998,735.5854116521713 689.2118693475127,777.7917786183584 C 647.0055023813255,735.5854116521713 657.5570941228723,698.6548405567576 689.2118693475127,672.2758612028906 Z" fill="url(#leaf5)" opacity="0.31" transform="rotate(353.0 689.2 725.0)"/>
    <path d="M 687.5476689900676,393.3645557918148 C 735.035254970013,432.937544108436 750.8644502966615,488.33972775170577 687.5476689900676,551.6565090582997 C 624.2308876834736,488.33972775170577 640.0600830101221,432.937544108436 687.5476689900676,393.3645557918148 Z" fill="url(#leaf6)" opacity="0.33" transform="rotate(225.0 687.5 472.5)"/>
    <path d="M 1072.375090590467,692.4565449416153 C 1114.9252286186806,727.9149932984602 1129.1086079614186,777.5568209980429 1072.375090590467,834.2903383689946 C 1015.6415732195152,777.5568209980429 1029.8249525622532,727.9149932984602 1072.375090590467,692.4565449416153 Z" fill="url(#leaf7)" opacity="0.35" transform="rotate(346.9 1072.4 763.4)"/>
    <path d="M 257.82602916438873,147.03718880050562 C 314.30341535254104,194.10167729063255 333.12921074859185,259.99196117681026 257.82602916438873,335.2951427610134 C 182.5228475801856,259.99196117681026 201.34864297623642,194.10167729063255 257.82602916438873,147.03718880050562 Z" fill="url(#leaf8)" opacity="0.24" transform="rotate(245.3 257.8 241.2)"/>
    <path d="M 1307.0980281188213,174.76870842834222 C 1350.769395777245,211.16151481036212 1365.3265183300532,262.11144374519 1307.0980281188213,320.3399339564218 C 1248.8695379075893,262.11144374519 1263.4266604603974,211.16151481036212 1307.0980281188213,174.76870842834222 Z" fill="url(#leaf9)" opacity="0.33" transform="rotate(140.1 1307.1 247.6)"/>
    <path d="M 1503.0272384760663,182.97174051422974 C 1559.4145647356834,229.96117906391072 1578.2103401555557,295.7463930334641 1503.0272384760663,370.92949471295367 C 1427.8441367965768,295.7463930334641 1446.6399122164491,229.96117906391072 1503.0272384760663,182.97174051422974 Z" fill="url(#leaf10)" opacity="0.28" transform="rotate(341.7 1503.0 277.0)"/>
    <path d="M 260.0192597083026,342.98150793957143 C 294.15286973405875,371.42618296103484 305.53073974264413,411.2487279910836 260.0192597083026,456.7602080254251 C 214.50777967396115,411.2487279910836 225.88564968254653,371.42618296103484 260.0192597083026,342.98150793957143 Z" fill="url(#leaf11)" opacity="0.25" transform="rotate(323.8 260.0 399.9)"/>
    <path d="M 90.51646631291098,374.7157997407602 C 139.15981209096847,415.2519212224747 155.3742606836543,472.0024912968751 90.51646631291098,536.8602856676184 C 25.658671942167658,472.0024912968751 41.87312053485349,415.2519212224747 90.51646631291098,374.7157997407602 Z" fill="url(#leaf12)" opacity="0.31" transform="rotate(26.1 90.5 455.8)"/>
    <path d="M 576.0603825545334,116.02842937732062 C 608.6913210395074,143.22087811479904 619.5683005344988,181.29030634726882 576.0603825545334,224.79822432723432 C 532.5524645745679,181.29030634726882 543.4294440695593,143.22087811479904 576.0603825545334,116.02842937732062 Z" fill="url(#leaf13)" opacity="0.31" transform="rotate(34.0 576.1 170.4)"/>
    <path d="M 299.0729968067201,2.007297278490711 C 348.7299720426722,43.3881099751175 365.2822971213229,101.321247750395 299.0729968067201,167.53054806499787 C 232.8636964921172,101.321247750395 249.41602157076795,43.3881099751175 299.0729968067201,2.007297278490711 Z" fill="url(#leaf14)" opacity="0.23" transform="rotate(288.6 299.1 84.8)"/>
    <path d="M 1416.030522328437,127.29333047727408 C 1475.0401719992726,176.4680385363038 1494.7100552228844,245.3126298189454 1416.030522328437,323.99216271339293 C 1337.3509894339895,245.3126298189454 1357.0208726576013,176.4680385363038 1416.030522328437,127.29333047727408 Z" fill="url(#leaf15)" opacity="0.28" transform="rotate(123.8 1416.0 225.6)"/>
    <path d="M 1483.2291358770863,659.217780637871 C 1517.5076028778724,687.7831698051928 1528.933758544801,727.7747146394432 1483.2291358770863,773.4793373071581 C 1437.5245132093714,727.7747146394432 1448.9506688763001,687.7831698051928 1483.2291358770863,659.217780637871 Z" fill="url(#leaf16)" opacity="0.28" transform="rotate(344.7 1483.2 716.3)"/>
    <path d="M 867.2290648303754,717.1318199838457 C 891.6249952126154,737.4617619690458 899.7569720066955,765.923680748326 867.2290648303754,798.4515879246461 C 834.7011576540552,765.923680748326 842.8331344481353,737.4617619690458 867.2290648303754,717.1318199838457 Z" fill="url(#leaf17)" opacity="0.25" transform="rotate(251.1 867.2 757.8)"/>
    <path d="M 599.5431090759296,413.73118021821887 C 652.5768549769724,457.9259684690879 670.25477027732,519.7986720203045 599.5431090759296,590.5103332216949 C 528.8314478745392,519.7986720203045 546.5093631748867,457.9259684690879 599.5431090759296,413.73118021821887 Z" fill="url(#leaf18)" opacity="0.36" transform="rotate(353.0 599.5 502.1)"/>
    <path d="M 404.1927436756825,329.43553467660945 C 445.0450821244889,363.4791500506148 458.6625282740911,411.1402115742223 404.1927436756825,465.6099961726309 C 349.7229590772739,411.1402115742223 363.3404052268761,363.4791500506148 404.1927436756825,329.43553467660945 Z" fill="url(#leaf19)" opacity="0.40" transform="rotate(140.1 404.2 397.5)"/>
    <path d="M 1757.604684218957,854.5306521152022 C 1806.3382659476342,895.1419702224333 1822.5827931905267,951.9978155725569 1757.604684218957,1016.9759245441267 C 1692.626575247387,951.9978155725569 1708.8711024902796,895.1419702224333 1757.604684218957,854.5306521152022 Z" fill="url(#leaf0)" opacity="0.27" transform="rotate(302.2 1757.6 935.8)"/>
    <path d="M 705.3212082604626,937.7490912176734 C 743.3218513400018,969.4162937839559 755.9887323665148,1013.7503773767515 705.3212082604626,1064.4179014828037 C 654.6536841544105,1013.7503773767515 667.3205651809235,969.4162937839559 705.3212082604626,937.7490912176734 Z" fill="url(#leaf1)" opacity="0.39" transform="rotate(359.7 705.3 1001.1)"/>
    <path d="M 761.6544145314198,851.982949462371 C 801.2123894967506,884.9479286001467 814.3983811518608,931.0988993930326 761.6544145314198,983.8428660134738 C 708.9104479109787,931.0988993930326 722.096439566089,884.9479286001467 761.6544145314198,851.982949462371 Z" fill="url(#leaf2)" opacity="0.27" transform="rotate(201.7 761.7 917.9)"/>
    <path d="M 1662.5219454005087,607.3037730053726 C 1699.3755376240185,638.0150998582974 1711.6600683651884,681.0109574523921 1662.5219454005087,730.1490804170718 C 1613.383822435829,681.0109574523921 1625.6683531769988,638.0150998582974 1662.5219454005087,607.3037730053726 Z" fill="url(#leaf3)" opacity="0.22" transform="rotate(219.5 1662.5 668.7)"/>
    <path d="M 932.9584778298229,771.7221144065568 C 987.151437456424,816.882914095391 1005.2157573319577,880.1080336597589 932.9584778298229,952.3653131618937 C 860.7011983276881,880.1080336597589 878.7655182032217,816.882914095391 932.9584778298229,771.7221144065568 Z" fill="url(#leaf4)" opacity="0.33" transform="rotate(129.7 933.0 862.0)"/>
    <path d="M 829.6835983699182,712.7385365747966 C 878.741083351458,753.6197740594132 895.0935783453046,810.8535065378765 829.6835983699182,876.2634865132629 C 764.2736183945317,810.8535065378765 780.6261133883784,753.6197740594132 829.6835983699182,712.7385365747966 Z" fill="url(#leaf5)" opacity="0.26" transform="rotate(161.1 829.7 794.5)"/>
    <path d="M 1058.8091466941362,650.2548383756252 C 1093.3741936314066,679.059044156684 1104.89587594383,719.3849322501662 1058.8091466941362,765.4716614998601 C 1012.7224174444422,719.3849322501662 1024.2440997568658,679.059044156684 1058.8091466941362,650.2548383756252 Z" fill="url(#leaf6)" opacity="0.30" transform="rotate(136.8 1058.8 707.9)"/>
    <path d="M 734.6869258130356,940.7831835823197 C 762.8545542236639,964.2562072578432 772.2437636938732,997.1184404035761 734.6869258130356,1034.6752782844137 C 697.130087932198,997.1184404035761 706.5192974024073,964.2562072578432 734.6869258130356,940.7831835823197 Z" fill="url(#leaf7)" opacity="0.37" transform="rotate(269.7 734.7 987.7)"/>
    <path d="M 827.493454298922,41.48768449503929 C 861.2993192755868,69.65923864226 872.567940934475,109.09941444836896 827.493454298922,154.1739010839221 C 782.4189676633689,109.09941444836896 793.6875893222572,69.65923864226 827.493454298922,41.48768449503929 Z" fill="url(#leaf8)" opacity="0.21" transform="rotate(107.3 827.5 97.8)"/>
    <path d="M 1347.9786737296063,205.6332553040532 C 1392.8931083144962,243.06195079146138 1407.8645865094593,295.46212447383283 1347.9786737296063,355.34803725368596 C 1288.0927609497533,295.46212447383283 1303.0642391447163,243.06195079146138 1347.9786737296063,205.6332553040532 Z" fill="url(#leaf9)" opacity="0.29" transform="rotate(190.3 1348.0 280.5)"/>
    <path d="M 1791.8649980615562,62.353053864473964 C 1818.4325925234734,84.4927159160717 1827.2884573441127,115.48824278830854 1791.8649980615562,150.91170207086492 C 1756.4415387789998,115.48824278830854 1765.297403599639,84.4927159160717 1791.8649980615562,62.353053864473964 Z" fill="url(#leaf10)" opacity="0.21" transform="rotate(28.4 1791.9 106.6)"/>
    <path d="M 1807.8927984914394,727.6633690752058 C 1864.882461357301,775.1547547967573 1883.8790156459218,841.6426948069293 1807.8927984914394,917.6289119614116 C 1731.906581336957,841.6426948069293 1750.9031356255778,775.1547547967573 1807.8927984914394,727.6633690752058 Z" fill="url(#leaf11)" opacity="0.26" transform="rotate(339.2 1807.9 822.6)"/>
    <path d="M 346.8689889131692,414.9290787898252 C 386.047951846505,447.5782145676051 399.10760615761694,493.2870046564969 346.8689889131692,545.5256219009447 C 294.6303716687214,493.2870046564969 307.69002597983336,447.5782145676051 346.8689889131692,414.9290787898252 Z" fill="url(#leaf12)" opacity="0.28" transform="rotate(301.2 346.9 480.2)"/>
    <path d="M 751.1601835577612,406.3315903803795 C 778.7273986200385,429.30426959894385 787.9164703074641,461.46602050493385 751.1601835577612,498.22230725463675 C 714.4038968080583,461.46602050493385 723.592968495484,429.30426959894385 751.1601835577612,406.3315903803795 Z" fill="url(#leaf13)" opacity="0.34" transform="rotate(77.1 751.2 452.3)"/>
    <path d="M 972.0512007040185,609.1012006887194 C 1026.4367706466032,654.4225089742066 1044.565293960798,717.8723405738888 972.0512007040185,790.3864338306684 C 899.5371074472389,717.8723405738888 917.6656307614337,654.4225089742066 972.0512007040185,609.1012006887194 Z" fill="url(#leaf14)" opacity="0.38" transform="rotate(359.7 972.1 699.7)"/>
    <path d="M 440.10679368544845,737.0945532480957 C 497.8154895943746,785.1851331722008 517.0517215640166,852.511945065948 440.10679368544845,929.4568729445161 C 363.1618658068803,852.511945065948 382.3980977765223,785.1851331722008 440.10679368544845,737.0945532480957 Z" fill="url(#leaf15)" opacity="0.22" transform="rotate(348.8 440.1 833.3)"/>
    <path d="M 559.5567271837156,481.03529962043245 C 584.0038057800592,501.4078651173854 592.1528319788404,529.9294568131197 559.5567271837156,562.5255616082445 C 526.9606223885908,529.9294568131197 535.1096485873719,501.4078651173854 559.5567271837156,481.03529962043245 Z" fill="url(#leaf16)" opacity="0.30" transform="rotate(301.7 559.6 521.8)"/>
    <path d="M 1605.2475034335591,517.5633502205283 C 1637.59259873613,544.517596306004 1648.3742971703202,582.2535408256699 1605.2475034335591,625.380334562431 C 1562.120709696798,582.2535408256699 1572.9024081309883,544.517596306004 1605.2475034335591,517.5633502205283 Z" fill="url(#leaf17)" opacity="0.22" transform="rotate(274.5 1605.2 571.5)"/>
    <path d="M 526.1675548487708,356.6612921145521 C 575.2438450683204,397.55820063084343 591.602608474837,454.8138725536513 526.1675548487708,520.2489261797175 C 460.7325012227046,454.8138725536513 477.0912646292212,397.55820063084343 526.1675548487708,356.6612921145521 Z" fill="url(#leaf18)" opacity="0.36" transform="rotate(54.4 526.2 438.5)"/>
    <path d="M 1723.0675057938493,793.249740131293 C 1757.150793426312,821.6524798250122 1768.5118893037998,861.4163153962188 1723.0675057938493,906.8606989061693 C 1677.6231222838987,861.4163153962188 1688.9842181613865,821.6524798250122 1723.0675057938493,793.249740131293 Z" fill="url(#leaf19)" opacity="0.25" transform="rotate(73.1 1723.1 850.1)"/>
    <path d="M 300.58878632264157,234.77710148208894 C 341.05605029360714,268.4998214578936 354.54513828392896,315.7116294240201 300.58878632264157,369.6679813853075 C 246.63243436135414,315.7116294240201 260.121522351676,268.4998214578936 300.58878632264157,234.77710148208894 Z" fill="url(#leaf0)" opacity="0.22" transform="rotate(60.1 300.6 302.2)"/>
    <path d="M 937.0430119638883,467.7153027544879 C 964.9869066783552,491.00188168321034 974.3015382498442,523.6030921834218 937.0430119638883,560.8616184693777 C 899.7844856779324,523.6030921834218 909.0991172494213,491.00188168321034 937.0430119638883,467.7153027544879 Z" fill="url(#leaf1)" opacity="0.38" transform="rotate(70.4 937.0 514.3)"/>
    <path d="M 958.266652158514,671.3574480128855 C 990.102398416143,697.8872365609096 1000.7143138353526,735.0289405281435 958.266652158514,777.4766022049821 C 915.8189904816754,735.0289405281435 926.430905900885,697.8872365609096 958.266652158514,671.3574480128855 Z" fill="url(#leaf2)" opacity="0.22" transform="rotate(151.6 958.3 724.4)"/>
    <path d="M 218.89837855832752,841.7204980790771 C 263.81156596958306,879.1481542551232 278.78262844000153,931.546872901588 218.89837855832752,991.431122783262 C 159.01412867665348,931.546872901588 173.985191147072,879.1481542551232 218.89837855832752,841.7204980790771 Z" fill="url(#leaf3)" opacity="0.32" transform="rotate(168.7 218.9 916.6)"/>
    <path d="M 512.9829111838314,687.3568902408203 C 563.9283432717062,729.811416980716 580.9101539676645,789.2477544165699 512.9829111838314,857.1749972004029 C 445.05566839999835,789.2477544165699 462.03747909595666,729.811416980716 512.9829111838314,687.3568902408203 Z" fill="url(#leaf4)" opacity="0.26" transform="rotate(97.8 513.0 772.3)"/>
    <path d="M 590.1545676572536,657.8447838611062 C 617.9667595971924,681.0216104777219 627.2374902438388,713.469167740984 590.1545676572536,750.5520903275692 C 553.0716450706683,713.469167740984 562.3423757173147,681.0216104777219 590.1545676572536,657.8447838611062 Z" fill="url(#leaf5)" opacity="0.36" transform="rotate(318.0 590.2 704.2)"/>
    <path d="M 1824.5491780125758,395.4600635834346 C 1864.5800685790816,428.81913905552267 1877.9236987679167,475.521844716446 1824.5491780125758,528.896365471787 C 1771.174657257235,475.521844716446 1784.51828744607,428.81913905552267 1824.5491780125758,395.4600635834346 Z" fill="url(#leaf6)" opacity="0.32" transform="rotate(251.9 1824.5 462.2)"/>
    <path d="M 546.3354787030473,371.47720121532916 C 570.7529378852008,391.8250838671238 578.8920909459187,420.3121195796362 546.3354787030473,452.8687318225076 C 513.778866460176,420.3121195796362 521.9180195208938,391.8250838671238 546.3354787030473,371.47720121532916 Z" fill="url(#leaf7)" opacity="0.22" transform="rotate(18.8 546.3 412.2)"/>
    <path d="M 1607.409649266733,37.01890197734211 C 1646.7602234306153,69.81104711391077 1659.8770814852428,115.7200503051069 1607.409649266733,168.18748252361672 C 1554.942217048223,115.7200503051069 1568.0590751028506,69.81104711391077 1607.409649266733,37.01890197734211 Z" fill="url(#leaf8)" opacity="0.20" transform="rotate(321.4 1607.4 102.6)"/>
    <path d="M 1640.4088319751295,608.7573305093791 C 1671.2850378351013,634.4875020593555 1681.5771064550918,670.5097422293226 1640.4088319751295,711.6780167092849 C 1599.2405574951672,670.5097422293226 1609.5326261151577,634.4875020593555 1640.4088319751295,608.7573305093791 Z" fill="url(#leaf9)" opacity="0.22" transform="rotate(169.5 1640.4 660.2)"/>
    <path d="M 1753.8967985964211,27.49955456019792 C 1790.348534553139,57.876001190796025 1802.499113205378,100.40302647363337 1753.8967985964211,149.00534108259035 C 1705.2944839874642,100.40302647363337 1717.4450626397033,57.876001190796025 1753.8967985964211,27.49955456019792 Z" fill="url(#leaf10)" opacity="0.39" transform="rotate(165.7 1753.9 88.3)"/>
    <path d="M 601.0006733338342,932.1551113606102 C 652.5422697515875,975.106441708738 669.7228018908386,1035.2383041961168 601.0006733338342,1103.960432753121 C 532.2785447768299,1035.2383041961168 549.459076916081,975.106441708738 601.0006733338342,932.1551113606102 Z" fill="url(#leaf11)" opacity="0.37" transform="rotate(59.2 601.0 1018.1)"/>
    <path d="M 1273.805089052039,784.2559750616906 C 1310.9890940042471,815.2426458551976 1323.38376232165,858.6239849661072 1273.805089052039,908.2026582357182 C 1224.226415782428,858.6239849661072 1236.6210840998308,815.2426458551976 1273.805089052039,784.2559750616906 Z" fill="url(#leaf12)" opacity="0.31" transform="rotate(234.7 1273.8 846.2)"/>
    <path d="M 1023.7484243578803,775.0093180702324 C 1060.9513517242453,806.0117575422034 1073.3523275130337,849.4151728029628 1023.7484243578803,899.0190759581164 C 974.1445212027267,849.4151728029628 986.545496991515,806.0117575422034 1023.7484243578803,775.0093180702324 Z" fill="url(#leaf13)" opacity="0.39" transform="rotate(188.0 1023.7 837.0)"/>
    <path d="M 224.0562748950493,916.9099628719664 C 271.13138859390136,956.1392242876765 286.8230931601854,1011.0601902696706 224.0562748950493,1073.8270085348067 C 161.28945662991322,1011.0601902696706 176.98116119619726,956.1392242876765 224.0562748950493,916.9099628719664 Z" fill="url(#leaf14)" opacity="0.23" transform="rotate(47.8 224.1 995.4)"/>
    <path d="M 589.8830110889816,80.56470652588075 C 622.4595681554028,107.71183741456512 633.3184205108765,145.71782065872324 589.8830110889816,189.15323008061824 C 546.4476016670866,145.71782065872324 557.3064540225603,107.71183741456512 589.8830110889816,80.56470652588075 Z" fill="url(#leaf15)" opacity="0.40" transform="rotate(326.4 589.9 134.9)"/>
    <path d="M 373.80395131460796,446.15846225250465 C 407.59363308183185,474.3165303918579 418.85686033757315,513.7378257869525 373.80395131460796,558.7907348099177 C 328.75104229164276,513.7378257869525 340.01426954738406,474.3165303918579 373.80395131460796,446.15846225250465 Z" fill="url(#leaf16)" opacity="0.31" transform="rotate(45.2 373.8 502.5)"/>
    <path d="M 908.2678492907696,889.4167276894927 C 953.8334097254668,927.3880280517404 969.0219298703659,980.5478485588872 908.2678492907696,1041.3019291384835 C 847.5137687111734,980.5478485588872 862.7022888560724,927.3880280517404 908.2678492907696,889.4167276894927 Z" fill="url(#leaf17)" opacity="0.36" transform="rotate(263.7 908.3 965.4)"/>
    <path d="M 653.6418736259617,492.0923563190119 C 677.8712886387664,512.2835354963491 685.9477603097013,540.5511863446212 653.6418736259617,572.8570730283607 C 621.3359869422221,540.5511863446212 629.412458613157,512.2835354963491 653.6418736259617,492.0923563190119 Z" fill="url(#leaf18)" opacity="0.31" transform="rotate(158.3 653.6 532.5)"/>
    <path d="M 488.72249064080995,-35.67717393241633 C 544.9178471260674,11.152289805298238 563.6496326211533,76.71353903809863 488.72249064080995,151.64068101844194 C 413.79534866046663,76.71353903809863 432.52713415555246,11.152289805298238 488.72249064080995,-35.67717393241633 Z" fill="url(#leaf19)" opacity="0.27" transform="rotate(233.8 488.7 58.0)"/>
    <path d="M 1245.7636095543635,502.92132518742045 C 1278.2522273192815,529.9951733248522 1289.0817665742543,567.8985607172566 1245.7636095543635,611.2167177371474 C 1202.4454525344727,567.8985607172566 1213.2749917894455,529.9951733248522 1245.7636095543635,502.92132518742045 Z" fill="url(#leaf0)" opacity="0.25" transform="rotate(121.6 1245.8 557.1)"/>
    <path d="M 1364.7451491851702,422.67183576058073 C 1407.3722387337828,458.1944103844245 1421.5812685833203,507.92601485780574 1364.7451491851702,564.7621342559557 C 1307.9090297870202,507.92601485780574 1322.1180596365577,458.1944103844245 1364.7451491851702,422.67183576058073 Z" fill="url(#leaf1)" opacity="0.30" transform="rotate(150.1 1364.7 493.7)"/>
  </g>

  <!-- Central star shape -->
  <polygon points="960.0,337.6 1019.5,458.1 1152.5,477.4 1056.3,571.3 1079.0,703.8 960.0,641.2 841.0,703.8 863.7,571.3 767.5,477.4 900.5,458.1" 
           fill="#FFD700" 
           transform="rotate(259.1 960.0 540.0)"/>
</svg>