<?xml version="1.0" encoding="UTF-8"?>
<svg xmlns="http://www.w3.org/2000/svg" viewBox="0 0 1920 1080" width="1920" height="1080">
  <defs>
    <linearGradient id="bgGrad" x1="0%" y1="0%" x2="100%" y2="100%">
      <stop offset="0%" stop-color="#9370DB"/>
      <stop offset="100%" stop-color="#4ECDC4"/>
    </linearGradient>
    <clipPath id="complexClip"><polygon points="1384.9,540.0 1356.6,587.4 1362.2,640.7 1355.7,701.7 1287.5,744.6 1144.0,719.3 1077.8,743.9 998.1,744.1 911.4,800.0 818.1,785.6 726.0,768.0 679.0,715.6 504.8,726.0 612.8,627.0 565.1,587.2 478.8,540.0 506.8,485.8 610.8,452.5 571.8,381.3 637.7,338.6 681.0,268.1 831.8,318.0 907.4,258.7 1017.3,233.4 1081.2,330.2 1156.2,348.9 1217.5,379.1 1290.8,404.8 1445.0,418.5 1501.4,475.3"/></clipPath>
    <radialGradient id="leaf0" cx="50%" cy="50%" r="70%">
      <stop offset="0%" stop-color="#00CED1"/>
      <stop offset="50%" stop-color="#FF1493"/>
      <stop offset="100%" stop-color="#96E6A1"/>
    </radialGradient>
    <radialGradient id="leaf1" cx="50%" cy="50%" r="70%">
      <stop offset="0%" stop-color="#4ECDC4"/>
      <stop offset="50%" stop-color="#96E6A1"/>
      <stop offset="100%" stop-color="#FFD700"/>
    </radialGradient>
    <radialGradient id="leaf2" cx="50%" cy="50%" r="70%">
      <stop offset="0%" stop-color="#4ECDC4"/>
      <stop offset="50%" stop-color="#32CD32"/>
      <stop offset="100%" stop-color="#FF6B6B"/>
    </radialGradient>
    <radialGradient id="leaf3" cx="50%" cy="50%" r="70%">
      <stop offset="0%" stop-color="#FFE66D"/>
      <stop offset="50%" stop-color="#FFD700"/>
      <stop offset="100%" stop-color="#4ECDC4"/>
    </radialGradient>
    <radialGradient id="leaf4" cx="50%" cy="50%" r="70%">
      <stop offset="0%" stop-color="#32CD32"/>
      <stop offset="50%" stop-color="#96E6A1"/>
      <stop offset="100%" stop-color="#FF4500"/>
    </radialGradient>
    <radialGradient id="leaf5" cx="50%" cy="50%" r="70%">
      <stop offset="0%" stop-color="#00CED1"/>
      <stop offset="50%" stop-color="#FF1493"/>
      <stop offset="100%" stop-color="#FF69B4"/>
    </radialGradient>
    <radialGradient id="leaf6" cx="50%" cy="50%" r="70%">
      <stop offset="0%" stop-color="#FFD700"/>
      <stop offset="50%" stop-color="#FF69B4"/>
      <stop offset="100%" stop-color="#32CD32"/>
    </radialGradient>
    <radialGradient id="leaf7" cx="50%" cy="50%" r="70%">
      <stop offset="0%" stop-color="#32CD32"/>
      <stop offset="50%" stop-color="#FFD700"/>
      <stop offset="100%" stop-color="#FFE66D"/>
    </radialGradient>
    <radialGradient id="leaf8" cx="50%" cy="50%" r="70%">
      <stop offset="0%" stop-color="#FFE66D"/>
      <stop offset="50%" stop-color="#FF69B4"/>
      <stop offset="100%" stop-color="#9370DB"/>
    </radialGradient>
    <radialGradient id="leaf9" cx="50%" cy="50%" r="70%">
      <stop offset="0%" stop-color="#7B68EE"/>
      <stop offset="50%" stop-color="#FF4500"/>
      <stop offset="100%" stop-color="#32CD32"/>
    </radialGradient>
    <radialGradient id="leaf10" cx="50%" cy="50%" r="70%">
      <stop offset="0%" stop-color="#00FA9A"/>
      <stop offset="50%" stop-color="#96E6A1"/>
      <stop offset="100%" stop-color="#7B68EE"/>
    </radialGradient>
    <radialGradient id="leaf11" cx="50%" cy="50%" r="70%">
      <stop offset="0%" stop-color="#96E6A1"/>
      <stop offset="50%" stop-color="#FF6B6B"/>
      <stop offset="100%" stop-color="#32CD32"/>
    </radialGradient>
    <radialGradient id="leaf12" cx="50%" cy="50%" r="70%">
      <stop offset="0%" stop-color="#FFD700"/>
      <stop offset="50%" stop-color="#45B7D1"/>
      <stop offset="100%" stop-color="#FF1493"/>
    </radialGradient>
    <radialGradient id="leaf13" cx="50%" cy="50%" r="70%">
      <stop offset="0%" stop-color="#9370DB"/>
      <stop offset="50%" stop-color="#FFD700"/>
      <stop offset="100%" stop-color="#45B7D1"/>
    </radialGradient>
    <radialGradient id="leaf14" cx="50%" cy="50%" r="70%">
      <stop offset="0%" stop-color="#FFD700"/>
      <stop offset="50%" stop-color="#96E6A1"/>
      <stop offset="100%" stop-color="#FF1493"/>
    </radialGradient>
    <radialGradient id="leaf15" cx="50%" cy="50%" r="70%">
      <stop offset="0%" stop-color="#4ECDC4"/>
      <stop offset="50%" stop-color="#00CED1"/>
      <stop offset="100%" stop-color="#DC143C"/>
    </radialGradient>
    <radialGradient id="leaf16" cx="50%" cy="50%" r="70%">
      <stop offset="0%" stop-color="#FF69B4"/>
      <stop offset="50%" stop-color="#9370DB"/>
      <stop offset="100%" stop-color="#96E6A1"/>
    </radialGradient>
    <radialGradient id="leaf17" cx="50%" cy="50%" r="70%">
      <stop offset="0%" stop-color="#96E6A1"/>
      <stop offset="50%" stop-color="#45B7D1"/>
      <stop offset="100%" stop-color="#FFE66D"/>
    </radialGradient>
    <radialGradient id="leaf18" cx="50%" cy="50%" r="70%">
      <stop offset="0%" stop-color="#00FA9A"/>
      <stop offset="50%" stop-color="#FF6B6B"/>
      <stop offset="100%" stop-color="#9370DB"/>
    </radialGradient>
    <radialGradient id="leaf19" cx="50%" cy="50%" r="70%">
      <stop offset="0%" stop-color="#32CD32"/>
      <stop offset="50%" stop-color="#00FA9A"/>
      <stop offset="100%" stop-color="#96E6A1"/>
    </radialGradient>
  </defs>

  <!-- Background -->
  <rect width="1920" height="1080" fill="url(#bgGrad)"/>
  
  <!-- Leaves with clip-path -->
  <g clip-path="url(#complexClip)">
    <path d="M 583.930300119013,809.7087195335405 C 620.9242503027673,840.5370113533356 633.2555670306854,883.696619901049 583.930300119013,933.0218868127213 C 534.6050332073407,883.696619901049 546.9363499352588,840.5370113533356 583.930300119013,809.7087195335405 Z" fill="url(#leaf0)" opacity="0.33" transform="rotate(353.4 583.9 871.4)"/>
    <path d="M 902.2050312209926,330.1267185312453 C 944.4006242084006,365.28971268741856 958.4658218708698,414.51790450606114 902.2050312209926,470.7786951559384 C 845.9442405711154,414.51790450606114 860.0094382335847,365.28971268741856 902.2050312209926,330.1267185312453 Z" fill="url(#leaf1)" opacity="0.39" transform="rotate(37.5 902.2 400.5)"/>
    <path d="M 1841.2682630411018,317.3082014329574 C 1867.9495158179154,339.5425787469688 1876.84326674352,370.6707069865847 1841.2682630411018,406.245710689003 C 1805.6932593386837,370.6707069865847 1814.5870102642882,339.5425787469688 1841.2682630411018,317.3082014329574 Z" fill="url(#leaf2)" opacity="0.37" transform="rotate(239.2 1841.3 361.8)"/>
    <path d="M 1584.1834556574254,500.1776835377857 C 1643.1174845192597,549.289374255981 1662.7621608065378,618.0457412614543 1584.1834556574254,696.6244464105666 C 1505.604750508313,618.0457412614543 1525.249426795591,549.289374255981 1584.1834556574254,500.1776835377857 Z" fill="url(#leaf3)" opacity="0.29" transform="rotate(52.7 1584.2 598.4)"/>
    <path d="M 688.7640134279326,333.9418328396338 C 743.1145244015855,379.23392531767786 761.2313613928031,442.64285478693967 688.7640134279326,515.1102027518102 C 616.296665463062,442.64285478693967 634.4135024542796,379.23392531767786 688.7640134279326,333.9418328396338 Z" fill="url(#leaf4)" opacity="0.27" transform="rotate(47.5 688.8 424.5)"/>
    <path d="M 818.2003614244177,824.9314359971515 C 868.5166605160435,866.8616852401731 885.2887602132522,925.5640341804033 818.2003614244177,992.6524329692377 C 751.1119626355832,925.5640341804033 767.8840623327918,866.8616852401731 818.2003614244177,824.9314359971515 Z" fill="url(#leaf5)" opacity="0.26" transform="rotate(208.2 818.2 908.8)"/>
    <path d="M 727.9665796943215,299.73893712940173 C 780.1050580634326,343.18766910366094 797.4845508531362,404.01589386762384 727.9665796943215,473.53386502643855 C 658.4486085355068,404.01589386762384 675.8281013252104,343.18766910366094 727.9665796943215,299.73893712940173 Z" fill="url(#leaf6)" opacity="0.31" transform="rotate(201.4 728.0 386.6)"/>
    <path d="M 1489.497043775797,528.8278804380909 C 1531.6151232114546,563.9262799678057 1545.6544830233406,613.0640393094063 1489.497043775797,669.2214785569499 C 1433.3396045282534,613.0640393094063 1447.3789643401394,563.9262799678057 1489.497043775797,528.8278804380909 Z" fill="url(#leaf7)" opacity="0.33" transform="rotate(206.7 1489.5 599.0)"/>
    <path d="M 184.77117246906442,221.88811433828158 C 222.31534150103917,253.1749218649272 234.83006451169743,296.9764524022311 184.77117246906442,347.03534444486405 C 134.71228042643142,296.9764524022311 147.22700343708968,253.1749218649272 184.77117246906442,221.88811433828158 Z" fill="url(#leaf8)" opacity="0.33" transform="rotate(305.3 184.8 284.5)"/>
    <path d="M 1455.5231350235292,-35.26793375661244 C 1509.7598880382875,9.929360422352715 1527.8388057098734,73.20557227290394 1455.5231350235292,145.52124295924818 C 1383.207464337185,73.20557227290394 1401.286382008771,9.929360422352715 1455.5231350235292,-35.26793375661244 Z" fill="url(#leaf9)" opacity="0.22" transform="rotate(204.1 1455.5 55.1)"/>
    <path d="M 827.1709587386954,381.79016782381973 C 875.5066618515099,422.06992041783184 891.6185628891147,478.4615740494488 827.1709587386954,542.9091781998682 C 762.723354588276,478.4615740494488 778.8352556258809,422.06992041783184 827.1709587386954,381.79016782381973 Z" fill="url(#leaf10)" opacity="0.38" transform="rotate(314.4 827.2 462.3)"/>
    <path d="M 732.8568724062161,860.8036297943315 C 783.4103099391046,902.931494405072 800.2614557834008,961.9105048601087 732.8568724062161,1029.3150882372936 C 665.4522890290314,961.9105048601087 682.3034348733275,902.931494405072 732.8568724062161,860.8036297943315 Z" fill="url(#leaf11)" opacity="0.31" transform="rotate(25.9 732.9 945.1)"/>
    <path d="M 174.39674213574608,728.5912119201743 C 226.50411041534812,772.0140188198427 243.8732331752155,832.8059484793783 174.39674213574608,902.2824395188478 C 104.92025109627669,832.8059484793783 122.28937385614404,772.0140188198427 174.39674213574608,728.5912119201743 Z" fill="url(#leaf12)" opacity="0.25" transform="rotate(116.0 174.4 815.4)"/>
    <path d="M 340.8032718088738,704.6247094425776 C 391.1424932804148,746.5740606688618 407.9222337709285,805.3031523856596 340.8032718088738,872.4221143477143 C 273.6843098468191,805.3031523856596 290.46405033733276,746.5740606688618 340.8032718088738,704.6247094425776 Z" fill="url(#leaf13)" opacity="0.22" transform="rotate(314.3 340.8 788.5)"/>
    <path d="M 315.9698349394133,604.9853473143683 C 365.12739331769524,645.9499792962699 381.5132461104559,703.3004640709321 315.9698349394133,768.8438752419747 C 250.42642376837074,703.3004640709321 266.8122765611314,645.9499792962699 315.9698349394133,604.9853473143683 Z" fill="url(#leaf14)" opacity="0.23" transform="rotate(164.3 316.0 686.9)"/>
    <path d="M 736.5435968293363,52.85957497559484 C 776.0047588040162,85.7438766211615 789.1584794622429,131.78189892495485 736.5435968293363,184.39678155786152 C 683.9287141964296,131.78189892495485 697.0824348546563,85.7438766211615 736.5435968293363,52.85957497559484 Z" fill="url(#leaf15)" opacity="0.30" transform="rotate(189.8 736.5 118.6)"/>
    <path d="M 613.8854332576434,816.2828057263487 C 664.247513536837,858.2512059590099 681.0348736299014,917.0069662847358 613.8854332576434,984.1564066569938 C 546.7359928853854,917.0069662847358 563.5233529784498,858.2512059590099 613.8854332576434,816.2828057263487 Z" fill="url(#leaf16)" opacity="0.32" transform="rotate(319.9 613.9 900.2)"/>
    <path d="M 1522.7034869801953,902.3431551575297 C 1573.7294723459404,944.864809628984 1590.7381341345222,1004.3951258890198 1522.7034869801953,1072.4297730433466 C 1454.6688398258684,1004.3951258890198 1471.6775016144502,944.864809628984 1522.7034869801953,902.3431551575297 Z" fill="url(#leaf17)" opacity="0.30" transform="rotate(315.7 1522.7 987.4)"/>
    <path d="M 155.62222417269368,276.16313867042714 C 181.48053301195284,297.71172936980975 190.0999692917059,327.8797563489455 155.62222417269368,362.35750146795766 C 121.14447905368147,327.8797563489455 129.7639153334345,297.71172936980975 155.62222417269368,276.16313867042714 Z" fill="url(#leaf18)" opacity="0.25" transform="rotate(131.4 155.6 319.3)"/>
    <path d="M 1867.6020919056884,205.1780449568642 C 1924.1713022089557,252.3190535429203 1943.027705643378,318.3164655633988 1867.6020919056884,393.7420793010886 C 1792.1764781679988,318.3164655633988 1811.0328816024212,252.3190535429203 1867.6020919056884,205.1780449568642 Z" fill="url(#leaf19)" opacity="0.25" transform="rotate(345.4 1867.6 299.5)"/>
    <path d="M 1245.7152460382238,914.3515214504393 C 1274.9422877077182,938.7073895083514 1284.684634930883,972.8056047894283 1245.7152460382238,1011.7749936820876 C 1206.7458571455645,972.8056047894283 1216.4882043687294,938.7073895083514 1245.7152460382238,914.3515214504393 Z" fill="url(#leaf0)" opacity="0.30" transform="rotate(268.2 1245.7 963.1)"/>
    <path d="M 131.67004854420574,721.3882940255914 C 171.44271811879523,754.5321853377493 184.70027464365842,800.9336331747704 131.67004854420574,853.9638592742231 C 78.63982244475308,800.9336331747704 91.89737896961626,754.5321853377493 131.67004854420574,721.3882940255914 Z" fill="url(#leaf1)" opacity="0.21" transform="rotate(226.5 131.7 787.7)"/>
    <path d="M 649.8353915625165,904.6066953306379 C 678.3738944508956,928.3887810709537 687.886728747022,961.6837011073959 649.8353915625165,999.7350382919012 C 611.7840543780111,961.6837011073959 621.2968886741374,928.3887810709537 649.8353915625165,904.6066953306379 Z" fill="url(#leaf2)" opacity="0.35" transform="rotate(246.5 649.8 952.2)"/>
    <path d="M 455.09351990705426,383.02846063639527 C 491.2425770858947,413.15267495209565 503.29226281217484,455.32657499407617 455.09351990705426,503.5253178991968 C 406.8947770019337,455.32657499407617 418.9444627282138,413.15267495209565 455.09351990705426,383.02846063639527 Z" fill="url(#leaf3)" opacity="0.40" transform="rotate(220.3 455.1 443.3)"/>
    <path d="M 776.2670549031494,533.1109607792112 C 809.6196452874251,560.9047860994409 820.7371754155171,599.8161415477625 776.2670549031494,644.2862620601302 C 731.7969343907818,599.8161415477625 742.9144645188737,560.9047860994409 776.2670549031494,533.1109607792112 Z" fill="url(#leaf4)" opacity="0.34" transform="rotate(257.7 776.3 588.7)"/>
    <path d="M 1216.752874267291,155.18072421841066 C 1256.849806874589,188.5948347244924 1270.2154510770217,235.3745894330068 1216.752874267291,288.83716624273757 C 1163.2902974575602,235.3745894330068 1176.655941659993,188.5948347244924 1216.752874267291,155.18072421841066 Z" fill="url(#leaf5)" opacity="0.32" transform="rotate(171.4 1216.8 222.0)"/>
    <path d="M 880.0142828782708,935.0630746224875 C 924.3423288883362,972.0031129642088 939.1183442250247,1023.7191666426183 880.0142828782708,1082.823227989372 C 820.910221531517,1023.7191666426183 835.6862368682055,972.0031129642088 880.0142828782708,935.0630746224875 Z" fill="url(#leaf6)" opacity="0.20" transform="rotate(78.2 880.0 1008.9)"/>
    <path d="M 196.15724864650818,612.1518690932486 C 241.70396924072173,650.1074695884265 256.88620943879295,703.2453102816758 196.15724864650818,763.9742710739605 C 135.4282878542234,703.2453102816758 150.61052805229463,650.1074695884265 196.15724864650818,612.1518690932486 Z" fill="url(#leaf7)" opacity="0.40" transform="rotate(292.7 196.2 688.1)"/>
    <path d="M 768.2419537823754,239.01114059795856 C 827.4319857818624,288.3361672641977 847.1619964483581,357.39120459693254 768.2419537823754,436.3112472629152 C 689.3219111163927,357.39120459693254 709.0519217828884,288.3361672641977 768.2419537823754,239.01114059795856 Z" fill="url(#leaf8)" opacity="0.28" transform="rotate(40.0 768.2 337.7)"/>
    <path d="M 288.1047271972266,164.96455522805215 C 337.44398612022536,206.0806043305511 353.89040576122494,263.64307307404965 288.1047271972266,329.42875163804797 C 222.3190486332283,263.64307307404965 238.76546827422789,206.0806043305511 288.1047271972266,164.96455522805215 Z" fill="url(#leaf9)" opacity="0.29" transform="rotate(177.5 288.1 247.2)"/>
    <path d="M 835.5237130785147,404.6289067958884 C 875.3183085065606,437.79106965259336 888.5831736492426,484.21809765198026 835.5237130785147,537.2775582227082 C 782.4642525077868,484.21809765198026 795.7291176504688,437.79106965259336 835.5237130785147,404.6289067958884 Z" fill="url(#leaf10)" opacity="0.26" transform="rotate(36.4 835.5 471.0)"/>
    <path d="M 525.2060507883097,750.2432527991758 C 557.4233071434392,777.0909664284504 568.162392595149,814.6777655094348 525.2060507883097,857.6341073162743 C 482.2497089814703,814.6777655094348 492.98879443318015,777.0909664284504 525.2060507883097,750.2432527991758 Z" fill="url(#leaf11)" opacity="0.38" transform="rotate(247.7 525.2 803.9)"/>
    <path d="M 116.83638854205695,774.6864735762997 C 165.73221542066088,815.4329959751362 182.03082438019553,872.4781273335075 116.83638854205695,937.6725631716461 C 51.64195270391838,872.4781273335075 67.94056166345302,815.4329959751362 116.83638854205695,774.6864735762997 Z" fill="url(#leaf12)" opacity="0.27" transform="rotate(321.4 116.8 856.2)"/>
    <path d="M 377.51146407667926,720.0364447104307 C 424.73944130993743,759.3930924048126 440.48210038769014,814.4923991769471 377.51146407667926,877.463035487958 C 314.5408277656684,814.4923991769471 330.2834868434211,759.3930924048126 377.51146407667926,720.0364447104307 Z" fill="url(#leaf13)" opacity="0.20" transform="rotate(343.6 377.5 798.7)"/>
    <path d="M 50.01167962867671,386.7473297004125 C 97.12228386462229,426.00616656370045 112.82581860993749,480.9685381723036 50.01167962867671,543.7826771535644 C -12.802459352584066,480.9685381723036 2.90107539273113,426.00616656370045 50.01167962867671,386.7473297004125 Z" fill="url(#leaf14)" opacity="0.23" transform="rotate(287.2 50.0 465.3)"/>
    <path d="M 959.3774740139061,332.5709744965396 C 1010.8950493443276,375.50228727189085 1028.067574454468,435.6061251573826 959.3774740139061,504.29622559794467 C 890.6873735733441,435.6061251573826 907.8598986834845,375.50228727189085 959.3774740139061,332.5709744965396 Z" fill="url(#leaf15)" opacity="0.30" transform="rotate(151.0 959.4 418.4)"/>
    <path d="M 1694.3419811034446,201.18198710130798 C 1751.992996286593,249.2244997539317 1771.2100013476424,316.4840174676049 1694.3419811034446,393.35203771180284 C 1617.4739608592467,316.4840174676049 1636.690965920296,249.2244997539317 1694.3419811034446,201.18198710130798 Z" fill="url(#leaf16)" opacity="0.39" transform="rotate(224.0 1694.3 297.3)"/>
    <path d="M 468.1903975295766,74.1297533550079 C 518.0673843166516,115.6939090109037 534.6930465790099,173.88372692915777 468.1903975295766,240.38637597859105 C 401.68774848014334,173.88372692915777 418.3134107425017,115.6939090109037 468.1903975295766,74.1297533550079 Z" fill="url(#leaf17)" opacity="0.39" transform="rotate(288.1 468.2 157.3)"/>
    <path d="M 169.90930163090258,375.1488566980166 C 224.12545640992704,420.32898568053696 242.1975080029352,483.5811662560655 169.90930163090258,555.8693726280982 C 97.62109525886994,483.5811662560655 115.69314685187811,420.32898568053696 169.90930163090258,375.1488566980166 Z" fill="url(#leaf18)" opacity="0.26" transform="rotate(48.1 169.9 465.5)"/>
    <path d="M 986.4958299239022,48.520177019653104 C 1017.1954679062314,74.10320867159415 1027.4286805670079,109.9194529843116 986.4958299239022,150.85230362741726 C 945.5629792807965,109.9194529843116 955.7961919415729,74.10320867159415 986.4958299239022,48.520177019653104 Z" fill="url(#leaf19)" opacity="0.26" transform="rotate(332.6 986.5 99.7)"/>
    <path d="M 533.8135883843834,944.7370992995433 C 584.2260686255946,986.7474995005527 601.0302287059984,1045.562059781966 533.8135883843834,1112.7787001035808 C 466.5969480627683,1045.562059781966 483.40110814317205,986.7474995005527 533.8135883843834,944.7370992995433 Z" fill="url(#leaf0)" opacity="0.36" transform="rotate(31.3 533.8 1028.8)"/>
    <path d="M 1824.001520714434,122.3338130938816 C 1851.201609139498,145.00055344810164 1860.268305281186,176.73398994400972 1824.001520714434,213.0007745107618 C 1787.734736147682,176.73398994400972 1796.80143228937,145.00055344810164 1824.001520714434,122.3338130938816 Z" fill="url(#leaf1)" opacity="0.37" transform="rotate(137.3 1824.0 167.7)"/>
    <path d="M 1057.712757961452,897.4033234215545 C 1101.097898425057,933.5576071412254 1115.5596119129254,984.1736043487647 1057.712757961452,1042.0204583002383 C 999.8659040099786,984.1736043487647 1014.327617497847,933.5576071412254 1057.712757961452,897.4033234215545 Z" fill="url(#leaf2)" opacity="0.36" transform="rotate(87.4 1057.7 969.7)"/>
    <path d="M 966.5971624141854,498.5362874852319 C 1017.19263597485,540.6991821191191 1034.0577938284048,599.7272346065611 966.5971624141854,667.1878660207806 C 899.1365309999659,599.7272346065611 916.0016888535208,540.6991821191191 966.5971624141854,498.5362874852319 Z" fill="url(#leaf3)" opacity="0.23" transform="rotate(215.4 966.6 582.9)"/>
    <path d="M 1169.7773632414553,870.1243330823584 C 1216.421884355953,908.9947673444398 1231.9700580607855,963.4133753113538 1169.7773632414553,1025.606070130684 C 1107.584668422125,963.4133753113538 1123.1328421269577,908.9947673444398 1169.7773632414553,870.1243330823584 Z" fill="url(#leaf4)" opacity="0.35" transform="rotate(114.7 1169.8 947.9)"/>
    <path d="M 1087.827014052531,365.72174533045137 C 1132.827086504788,403.2218057073323 1147.8271106555405,455.72189023496554 1087.827014052531,515.7219868379749 C 1027.8269174495215,455.72189023496554 1042.826941600274,403.2218057073323 1087.827014052531,365.72174533045137 Z" fill="url(#leaf5)" opacity="0.34" transform="rotate(283.0 1087.8 440.7)"/>
    <path d="M 802.1769391445587,456.0073801683386 C 842.551698042737,489.6530125834872 856.0099510087964,536.7568979646953 802.1769391445587,590.5899098289331 C 748.3439272803209,536.7568979646953 761.8021802463803,489.6530125834872 802.1769391445587,456.0073801683386 Z" fill="url(#leaf6)" opacity="0.36" transform="rotate(132.9 802.2 523.3)"/>
    <path d="M 666.6104724456987,941.268493092478 C 692.1970596406267,962.5906490882512 700.725922038936,992.4416674823339 666.6104724456987,1026.557117075571 C 632.4950228524615,992.4416674823339 641.0238852507708,962.5906490882512 666.6104724456987,941.268493092478 Z" fill="url(#leaf7)" opacity="0.33" transform="rotate(111.5 666.6 983.9)"/>
    <path d="M 970.1998361528514,419.3139500552558 C 1025.8623371699027,465.6993675694654 1044.4165041755866,530.6389520893587 970.1998361528514,604.8556201120939 C 895.9831681301162,530.6389520893587 914.5373351357999,465.6993675694654 970.1998361528514,419.3139500552558 Z" fill="url(#leaf8)" opacity="0.35" transform="rotate(153.3 970.2 512.1)"/>
    <path d="M 1772.675037478859,367.90488262094857 C 1831.1177336246772,416.60712940913044 1850.59863233995,484.79027491258506 1772.675037478859,562.713869773676 C 1694.751442617768,484.79027491258506 1714.2323413330407,416.60712940913044 1772.675037478859,367.90488262094857 Z" fill="url(#leaf9)" opacity="0.37" transform="rotate(284.1 1772.7 465.3)"/>
    <path d="M 554.072702356365,466.7194668125994 C 587.1183742336141,494.257526710307 598.133598192697,532.8108105670976 554.072702356365,576.8717064034297 C 510.01180652003285,532.8108105670976 521.0270304791159,494.257526710307 554.072702356365,466.7194668125994 Z" fill="url(#leaf10)" opacity="0.40" transform="rotate(350.9 554.1 521.8)"/>
    <path d="M 82.5221357944183,362.11306183315503 C 130.7349612260595,402.29041635952274 146.8059030366066,458.53871269643747 82.5221357944183,522.8224799386257 C 18.23836855223003,458.53871269643747 34.3093103627771,402.29041635952274 82.5221357944183,362.11306183315503 Z" fill="url(#leaf11)" opacity="0.37" transform="rotate(166.3 82.5 442.5)"/>
    <path d="M 871.0485352497438,181.149743954266 C 914.2477395709809,217.14908088863018 928.6474743447266,267.54815259674 871.0485352497438,325.1470916917227 C 813.4495961547611,267.54815259674 827.8493309285068,217.14908088863018 871.0485352497438,181.149743954266 Z" fill="url(#leaf12)" opacity="0.28" transform="rotate(77.5 871.0 253.1)"/>
    <path d="M 153.28875382645361,-0.9218036959801879 C 193.80478890347354,32.84155886820309 207.31013392914684,80.11026645805967 153.28875382645361,134.13164656075293 C 99.26737372376037,80.11026645805967 112.7727187494337,32.84155886820309 153.28875382645361,-0.9218036959801879 Z" fill="url(#leaf13)" opacity="0.37" transform="rotate(17.9 153.3 66.6)"/>
    <path d="M 400.9904349362606,532.8240466644207 C 430.80526280756817,557.6697365571771 440.7435387646707,592.4537024070358 400.9904349362606,632.2068062354459 C 361.23733110785054,592.4537024070358 371.17560706495306,557.6697365571771 400.9904349362606,532.8240466644207 Z" fill="url(#leaf14)" opacity="0.26" transform="rotate(131.5 401.0 582.5)"/>
    <path d="M 835.8891365449556,662.245405979204 C 887.2251014318158,705.025376718254 904.3370897274359,764.9173357529244 835.8891365449556,833.3652889354046 C 767.4411833624753,764.9173357529244 784.5531716580954,705.025376718254 835.8891365449556,662.245405979204 Z" fill="url(#leaf15)" opacity="0.36" transform="rotate(247.8 835.9 747.8)"/>
    <path d="M 722.9492791294568,244.07955820279523 C 753.3191588731935,269.3877913225758 763.4424521211057,304.8193176902686 722.9492791294568,345.3124906819175 C 682.456106137808,304.8193176902686 692.5793993857202,269.3877913225758 722.9492791294568,244.07955820279523 Z" fill="url(#leaf16)" opacity="0.32" transform="rotate(33.9 722.9 294.7)"/>
    <path d="M 633.1164931990852,184.86112134560364 C 673.4514274096065,218.473566521038 686.8964054797802,265.53098976664614 633.1164931990852,319.31090204734113 C 579.3365809183902,265.53098976664614 592.7815589885639,218.473566521038 633.1164931990852,184.86112134560364 Z" fill="url(#leaf17)" opacity="0.38" transform="rotate(183.2 633.1 252.1)"/>
    <path d="M 1505.3942078984664,-22.455847027853878 C 1562.419297856261,25.065061270308192 1581.4276611755258,91.59433288773509 1505.3942078984664,167.6277861647944 C 1429.360754621407,91.59433288773509 1448.369117940672,25.065061270308192 1505.3942078984664,-22.455847027853878 Z" fill="url(#leaf18)" opacity="0.36" transform="rotate(318.4 1505.4 72.6)"/>
    <path d="M 1412.7647993893822,374.80396507081184 C 1448.3773671926765,404.48110490689044 1460.248223127108,446.02910067740055 1412.7647993893822,493.51252441512634 C 1365.2813756516564,446.02910067740055 1377.152231586088,404.48110490689044 1412.7647993893822,374.80396507081184 Z" fill="url(#leaf19)" opacity="0.29" transform="rotate(189.6 1412.8 434.2)"/>
    <path d="M 1738.17392312141,502.7126117242775 C 1789.3335259000723,545.3456140398293 1806.386726826293,605.0318172816019 1738.17392312141,673.2446209864848 C 1669.9611194165273,605.0318172816019 1687.0143203427479,545.3456140398293 1738.17392312141,502.7126117242775 Z" fill="url(#leaf0)" opacity="0.39" transform="rotate(81.4 1738.2 588.0)"/>
    <path d="M 1709.1208383635715,963.4926200837853 C 1744.6750232222826,993.1211074660446 1756.5264181751863,1034.6009898012076 1709.1208383635715,1082.0065696128227 C 1661.7152585519566,1034.6009898012076 1673.5666535048604,993.1211074660446 1709.1208383635715,963.4926200837853 Z" fill="url(#leaf1)" opacity="0.23" transform="rotate(58.9 1709.1 1022.7)"/>
    <path d="M 930.8512800510306,176.5608947076525 C 954.9368483141997,196.63220159362677 962.9653710685894,224.73203123399077 930.8512800510306,256.8461222515496 C 898.7371890334717,224.73203123399077 906.7657117878615,196.63220159362677 930.8512800510306,176.5608947076525 Z" fill="url(#leaf2)" opacity="0.32" transform="rotate(133.8 930.9 216.7)"/>
    <path d="M 1799.521447758721,500.29292700758117 C 1841.2000286544267,535.0250777540025 1855.092888952995,583.6500887989922 1799.521447758721,639.2215299932662 C 1743.950006564447,583.6500887989922 1757.8428668630154,535.0250777540025 1799.521447758721,500.29292700758117 Z" fill="url(#leaf3)" opacity="0.34" transform="rotate(230.2 1799.5 569.8)"/>
    <path d="M 1429.8014771076928,937.2463069818042 C 1457.516278739896,960.3419750086401 1466.7545459506305,992.6759102462106 1429.8014771076928,1029.6289790891483 C 1392.848408264755,992.6759102462106 1402.0866754754895,960.3419750086401 1429.8014771076928,937.2463069818042 Z" fill="url(#leaf4)" opacity="0.30" transform="rotate(156.3 1429.8 983.4)"/>
    <path d="M 712.6608885456144,561.5407762514646 C 747.0746002206461,590.2188693139909 758.5458374456566,630.3681996015279 712.6608885456144,676.25314850157 C 666.7759396455722,630.3681996015279 678.2471768705827,590.2188693139909 712.6608885456144,561.5407762514646 Z" fill="url(#leaf5)" opacity="0.30" transform="rotate(95.4 712.7 618.9)"/>
    <path d="M 863.6145820113946,906.7585171212285 C 900.0160175927631,937.0930467723688 912.1498294532192,979.5613882839654 863.6145820113946,1028.09663572579 C 815.07933456957,979.5613882839654 827.2131464300262,937.0930467723688 863.6145820113946,906.7585171212285 Z" fill="url(#leaf6)" opacity="0.23" transform="rotate(85.4 863.6 967.4)"/>
    <path d="M 565.5770846326442,516.2096105294651 C 605.0102238458182,549.0705598737768 618.1546035835429,595.0758889558132 565.5770846326442,647.653407906712 C 512.9995656817455,595.0758889558132 526.1439454194701,549.0705598737768 565.5770846326442,516.2096105294651 Z" fill="url(#leaf7)" opacity="0.40" transform="rotate(270.2 565.6 581.9)"/>
    <path d="M 750.7170948475488,262.10285391435497 C 784.3055615641197,290.0932428448308 795.50171713631,329.2797873474969 750.7170948475488,374.0644096362582 C 705.9324725587875,329.2797873474969 717.1286281309779,290.0932428448308 750.7170948475488,262.10285391435497 Z" fill="url(#leaf8)" opacity="0.31" transform="rotate(246.1 750.7 318.1)"/>
    <path d="M 1586.7332486257546,965.7689956080283 C 1618.2269141290556,992.0137168607791 1628.7248026301559,1028.7563266146303 1586.7332486257546,1070.7478806190315 C 1544.7416946213534,1028.7563266146303 1555.2395831224537,992.0137168607791 1586.7332486257546,965.7689956080283 Z" fill="url(#leaf9)" opacity="0.34" transform="rotate(230.1 1586.7 1018.3)"/>
    <path d="M 129.3436315758967,753.2645206378388 C 160.97372760839977,779.622933998258 171.51709295256745,816.5247127028449 129.3436315758967,858.6981740795156 C 87.17017019922594,816.5247127028449 97.71353554339362,779.622933998258 129.3436315758967,753.2645206378388 Z" fill="url(#leaf10)" opacity="0.28" transform="rotate(98.3 129.3 806.0)"/>
    <path d="M 118.4846233292804,817.2084789966134 C 156.36874986018074,848.7785844390303 168.99679203714751,892.9767320584141 118.4846233292804,943.4889007662812 C 67.97245462141328,892.9767320584141 80.60049679838005,848.7785844390303 118.4846233292804,817.2084789966134 Z" fill="url(#leaf11)" opacity="0.31" transform="rotate(38.3 118.5 880.3)"/>
    <path d="M 1197.0851540987794,424.77108098378267 C 1250.593557096653,469.3614168153441 1268.4296914292777,531.7878869795302 1197.0851540987794,603.1324243100285 C 1125.7406167682811,531.7878869795302 1143.5767511009058,469.3614168153441 1197.0851540987794,424.77108098378267 Z" fill="url(#leaf12)" opacity="0.34" transform="rotate(325.8 1197.1 514.0)"/>
    <path d="M 589.4937207019627,743.4521357855829 C 639.2163215752264,784.8876365133026 655.7905218663143,842.8973375321102 589.4937207019627,909.1941386964618 C 523.1969195376112,842.8973375321102 539.771119828699,784.8876365133026 589.4937207019627,743.4521357855829 Z" fill="url(#leaf13)" opacity="0.26" transform="rotate(69.7 589.5 826.3)"/>
    <path d="M 1333.4495449832323,217.33200752923864 C 1381.8233214109714,257.6434878856878 1397.947913553551,314.07956038471673 1333.4495449832323,378.5779289550355 C 1268.9511764129136,314.07956038471673 1285.0757685554931,257.6434878856878 1333.4495449832323,217.33200752923864 Z" fill="url(#leaf14)" opacity="0.23" transform="rotate(36.3 1333.4 298.0)"/>
    <path d="M 462.8681566768448,667.6648621963036 C 507.8855249563236,705.1793357625359 522.8913143828165,757.6995987552611 462.8681566768448,817.7227564612328 C 402.8449989708731,757.6995987552611 417.85078839736605,705.1793357625359 462.8681566768448,667.6648621963036 Z" fill="url(#leaf15)" opacity="0.38" transform="rotate(189.9 462.9 742.7)"/>
    <path d="M 1356.6716340821995,-0.5677054697394226 C 1392.9764451796923,29.686303778171336 1405.0780488788566,72.0419167252464 1356.6716340821995,120.44833152190361 C 1308.2652192855423,72.0419167252464 1320.3668229847067,29.686303778171336 1356.6716340821995,-0.5677054697394226 Z" fill="url(#leaf16)" opacity="0.31" transform="rotate(168.8 1356.7 59.9)"/>
    <path d="M 223.0375949926712,-10.24999554601699 C 270.87127810867224,29.61140705065054 286.81583914733926,85.41737068598509 223.0375949926712,149.19561484065315 C 159.25935083800314,85.41737068598509 175.20391187667016,29.61140705065054 223.0375949926712,-10.24999554601699 Z" fill="url(#leaf17)" opacity="0.22" transform="rotate(224.3 223.0 69.5)"/>
    <path d="M 1343.575225332409,436.0569860547619 C 1375.3819061117958,462.5625533709177 1385.9841330382583,499.67034761353585 1343.575225332409,542.0792553193851 C 1301.1663176265597,499.67034761353585 1311.7685445530221,462.5625533709177 1343.575225332409,436.0569860547619 Z" fill="url(#leaf18)" opacity="0.26" transform="rotate(226.9 1343.6 489.1)"/>
    <path d="M 1428.400339161124,5.86473866414498 C 1470.4854380976735,40.9356544446029 1484.5138044098567,90.034936537244 1428.400339161124,146.14840178597666 C 1372.2868739123915,90.034936537244 1386.3152402245746,40.9356544446029 1428.400339161124,5.86473866414498 Z" fill="url(#leaf19)" opacity="0.23" transform="rotate(81.6 1428.4 76.0)"/>
    <path d="M 1524.16807497969,818.2510487632055 C 1582.8278622165647,867.1342047939345 1602.3811246288562,935.570623236955 1524.16807497969,1013.7836728861214 C 1445.9550253305235,935.570623236955 1465.5082877428151,867.1342047939345 1524.16807497969,818.2510487632055 Z" fill="url(#leaf0)" opacity="0.36" transform="rotate(328.4 1524.2 916.0)"/>
    <path d="M 996.924892545723,232.68112558124628 C 1029.4226871961378,259.76262112325867 1040.2552854129428,297.676714882076 996.924892545723,341.0071077492958 C 953.5944996785031,297.676714882076 964.4270978953081,259.76262112325867 996.924892545723,232.68112558124628 Z" fill="url(#leaf1)" opacity="0.32" transform="rotate(146.8 996.9 286.8)"/>
    <path d="M 169.27511144747174,852.0125741446946 C 209.1104838322076,885.208717798641 222.38894129378622,931.6833189141662 169.27511144747174,984.7971487604807 C 116.16128160115727,931.6833189141662 129.4397390627359,885.208717798641 169.27511144747174,852.0125741446946 Z" fill="url(#leaf2)" opacity="0.40" transform="rotate(99.2 169.3 918.4)"/>
    <path d="M 675.859766035125,218.02229004036127 C 717.451648571594,252.6821921540854 731.3156094170836,301.2060551132992 675.859766035125,356.66189849525784 C 620.4039226531663,301.2060551132992 634.2678834986559,252.6821921540854 675.859766035125,218.02229004036127 Z" fill="url(#leaf3)" opacity="0.31" transform="rotate(21.5 675.9 287.3)"/>
    <path d="M 523.9102661461827,7.060683038654545 C 562.8379696895242,39.50043599143917 575.8138708706381,84.91609012533765 523.9102661461827,136.81969484979305 C 472.0066614217273,84.91609012533765 484.9825626028412,39.50043599143917 523.9102661461827,7.060683038654545 Z" fill="url(#leaf4)" opacity="0.33" transform="rotate(105.2 523.9 71.9)"/>
    <path d="M 947.9393549095424,178.94787159946713 C 996.2494336179503,219.2062705231404 1012.3527931874197,275.568029016283 947.9393549095424,339.9814672941602 C 883.5259166316652,275.568029016283 899.6292762011345,219.2062705231404 947.9393549095424,178.94787159946713 Z" fill="url(#leaf5)" opacity="0.36" transform="rotate(226.7 947.9 259.5)"/>
    <path d="M 1534.6253970656683,321.1870587771979 C 1590.594410466089,367.82790327754833 1609.250748266229,433.125085578039 1534.6253970656683,507.7504367785997 C 1460.0000458651075,433.125085578039 1478.6563836652476,367.82790327754833 1534.6253970656683,321.1870587771979 Z" fill="url(#leaf6)" opacity="0.32" transform="rotate(334.1 1534.6 414.5)"/>
    <path d="M 1614.7475512646201,482.3021253352546 C 1665.555804167476,524.6423360876345 1682.491888468428,583.9186311409663 1614.7475512646201,651.6629683447742 C 1547.0032140608123,583.9186311409663 1563.9392983617643,524.6423360876345 1614.7475512646201,482.3021253352546 Z" fill="url(#leaf7)" opacity="0.32" transform="rotate(178.2 1614.7 567.0)"/>
    <path d="M 1864.4482264394992,588.3226896940869 C 1903.912994573852,621.2099964727142 1917.0679172853029,667.2522259627925 1864.4482264394992,719.8719168085963 C 1811.8285355936955,667.2522259627925 1824.9834583051463,621.2099964727142 1864.4482264394992,588.3226896940869 Z" fill="url(#leaf8)" opacity="0.36" transform="rotate(2.7 1864.4 654.1)"/>
    <path d="M 783.379397363194,789.53720655409 C 814.5661368107919,815.5261560937549 824.9617166266579,851.9106854492858 783.379397363194,893.4930047127497 C 741.7970780997301,851.9106854492858 752.1926579155961,815.5261560937549 783.379397363194,789.53720655409 Z" fill="url(#leaf9)" opacity="0.37" transform="rotate(319.4 783.4 841.5)"/>
    <path d="M 688.4628559063485,201.98199871218856 C 719.560366198692,227.8965906224748 729.9262029628065,264.1770192968755 688.4628559063485,305.6403663533335 C 646.9995088498905,264.1770192968755 657.365345614005,227.8965906224748 688.4628559063485,201.98199871218856 Z" fill="url(#leaf10)" opacity="0.23" transform="rotate(307.7 688.5 253.8)"/>
    <path d="M 355.3995331740679,851.2108332257965 C 380.3764734721298,872.0249501408481 388.7021202381505,901.1647138219204 355.3995331740679,934.4673008860029 C 322.09694610998537,901.1647138219204 330.42259287600604,872.0249501408481 355.3995331740679,851.2108332257965 Z" fill="url(#leaf11)" opacity="0.29" transform="rotate(148.0 355.4 892.8)"/>
    <path d="M 228.31879576134637,207.17455403010533 C 252.77138900581363,227.55171506716138 260.922253420636,256.0797405190399 228.31879576134637,288.6831981783296 C 195.71533810205668,256.0797405190399 203.8662025168791,227.55171506716138 228.31879576134637,207.17455403010533 Z" fill="url(#leaf12)" opacity="0.21" transform="rotate(39.1 228.3 247.9)"/>
    <path d="M 1838.1625760586892,366.1335216913484 C 1888.4279314291098,408.02131783336563 1905.1830498859167,466.66423243218975 1838.1625760586892,533.6847062594173 C 1771.1421022314616,466.66423243218975 1787.8972206882686,408.02131783336563 1838.1625760586892,366.1335216913484 Z" fill="url(#leaf13)" opacity="0.34" transform="rotate(40.9 1838.2 449.9)"/>
    <path d="M 986.4312071345453,-7.142316149968337 C 1036.2421509345272,34.36680368335 1052.8457988678547,92.47957144999567 986.4312071345453,158.894163183305 C 920.016615401236,92.47957144999567 936.6202633345632,34.36680368335 986.4312071345453,-7.142316149968337 Z" fill="url(#leaf14)" opacity="0.35" transform="rotate(307.8 986.4 75.9)"/>
    <path d="M 469.70502115803566,97.17191082768201 C 514.3345371417627,134.36317414745457 529.2110424696717,186.43094279513613 469.70502115803566,245.9369641067722 C 410.1989998463996,186.43094279513613 425.0755051743086,134.36317414745457 469.70502115803566,97.17191082768201 Z" fill="url(#leaf15)" opacity="0.38" transform="rotate(348.6 469.7 171.6)"/>
    <path d="M 686.8379773535343,15.470203733033983 C 738.8486101074024,58.81239769459071 756.185487692025,119.49146924077013 686.8379773535343,188.83897957926087 C 617.4904670150435,119.49146924077013 634.8273445996662,58.81239769459071 686.8379773535343,15.470203733033983 Z" fill="url(#leaf16)" opacity="0.36" transform="rotate(240.3 686.8 102.2)"/>
    <path d="M 621.9374015629714,151.8638511896021 C 665.1012285038337,187.8337069736539 679.4891708174544,238.19150507132645 621.9374015629714,295.74327432580935 C 564.3856323084885,238.19150507132645 578.7735746221092,187.8337069736539 621.9374015629714,151.8638511896021 Z" fill="url(#leaf17)" opacity="0.32" transform="rotate(186.2 621.9 223.8)"/>
    <path d="M 970.7227317417846,161.13053233111438 C 1011.2633399298117,194.9143724878036 1024.7768759924875,242.2117487071685 970.7227317417846,296.2658929578713 C 916.6685874910819,242.2117487071685 930.1821235537576,194.9143724878036 970.7227317417846,161.13053233111438 Z" fill="url(#leaf18)" opacity="0.20" transform="rotate(127.1 970.7 228.7)"/>
    <path d="M 1325.5348510218366,931.7996266346421 C 1362.4496933776718,962.5619952645047 1374.7546408296168,1005.6293113463124 1325.5348510218366,1054.8491011540928 C 1276.3150612140564,1005.6293113463124 1288.6200086660015,962.5619952645047 1325.5348510218366,931.7996266346421 Z" fill="url(#leaf19)" opacity="0.31" transform="rotate(6.0 1325.5 993.3)"/>
    <path d="M 441.62592604758373,572.149736971141 C 496.46139498362453,617.8459610845083 514.7398846289715,681.8206748432225 441.62592604758373,754.9346334246102 C 368.511967466196,681.8206748432225 386.79045711154293,617.8459610845083 441.62592604758373,572.149736971141 Z" fill="url(#leaf0)" opacity="0.22" transform="rotate(336.4 441.6 663.5)"/>
    <path d="M 655.4655554642354,7.358841594517003 C 700.4163819279211,44.817863647588325 715.3999907491495,97.26049452188818 655.4655554642354,157.1949298068023 C 595.5311201793213,97.26049452188818 610.5147290005498,44.817863647588325 655.4655554642354,7.358841594517003 Z" fill="url(#leaf1)" opacity="0.21" transform="rotate(353.4 655.5 82.3)"/>
    <path d="M 1552.9660042021894,854.0056388856134 C 1606.9831687384585,899.0199426658376 1624.9888902505481,962.0399679581514 1552.9660042021894,1034.0628540065102 C 1480.9431181538307,962.0399679581514 1498.9488396659203,899.0199426658376 1552.9660042021894,854.0056388856134 Z" fill="url(#leaf2)" opacity="0.30" transform="rotate(258.3 1553.0 944.0)"/>
    <path d="M 1805.0884258716103,873.7401901214695 C 1838.4728580771412,901.5605502927453 1849.6010021456516,940.5090545325314 1805.0884258716103,985.0216308065727 C 1760.575849597569,940.5090545325314 1771.7039936660794,901.5605502927453 1805.0884258716103,873.7401901214695 Z" fill="url(#leaf3)" opacity="0.21" transform="rotate(281.3 1805.1 929.4)"/>
    <path d="M 103.69659070073817,675.2196531201571 C 135.44629291391874,701.6777382978075 146.02952698497893,738.7190575465181 103.69659070073817,781.0519938307589 C 61.36365441649742,738.7190575465181 71.94688848755762,701.6777382978075 103.69659070073817,675.2196531201571 Z" fill="url(#leaf4)" opacity="0.37" transform="rotate(203.5 103.7 728.1)"/>
    <path d="M 1740.1011808259098,513.235873836981 C 1789.3046660005814,554.2387781492074 1805.7058277254719,611.6428441863243 1740.1011808259098,677.2474910858864 C 1674.4965339263476,611.6428441863243 1690.897695651238,554.2387781492074 1740.1011808259098,513.235873836981 Z" fill="url(#leaf5)" opacity="0.39" transform="rotate(105.6 1740.1 595.2)"/>
    <path d="M 203.32679680872567,428.9456623746912 C 250.77019047769232,468.48182376549676 266.58465503401453,523.8324497126246 203.32679680872567,587.0903079379134 C 140.0689385834368,523.8324497126246 155.88340313975903,468.48182376549676 203.32679680872567,428.9456623746912 Z" fill="url(#leaf6)" opacity="0.24" transform="rotate(354.7 203.3 508.0)"/>
    <path d="M 123.92847888499966,261.60223653435327 C 159.491429326651,291.23802856906275 171.34574614053477,332.72813741765594 123.92847888499966,380.1454046731911 C 76.51121162946455,332.72813741765594 88.36552844334832,291.23802856906275 123.92847888499966,261.60223653435327 Z" fill="url(#leaf7)" opacity="0.23" transform="rotate(259.9 123.9 320.9)"/>
    <path d="M 89.51656746130621,278.0664361336403 C 144.57159762959702,323.9456279405493 162.92327435236064,388.17649647022193 89.51656746130621,461.58320336127633 C 16.109860570251783,388.17649647022193 34.4615372930154,323.9456279405493 89.51656746130621,278.0664361336403 Z" fill="url(#leaf8)" opacity="0.32" transform="rotate(5.0 89.5 369.8)"/>
    <path d="M 1018.0620969190805,72.57103654177676 C 1053.5074587835045,102.10883809546337 1065.322579404979,143.4617602706246 1018.0620969190805,190.72224275652314 C 970.801614433182,143.4617602706246 982.6167350546566,102.10883809546337 1018.0620969190805,72.57103654177676 Z" fill="url(#leaf9)" opacity="0.36" transform="rotate(47.3 1018.1 131.6)"/>
    <path d="M 496.67644828264065,881.7557500176761 C 533.4030428628658,912.361245501197 545.6452410562742,955.2089391781263 496.67644828264065,1004.1777319517598 C 447.7076555090071,955.2089391781263 459.9498537024155,912.361245501197 496.67644828264065,881.7557500176761 Z" fill="url(#leaf10)" opacity="0.38" transform="rotate(249.8 496.7 943.0)"/>
    <path d="M 1802.8372841849373,194.58649256564462 C 1829.7482606801495,217.01230631165475 1838.7185861785536,248.4084455560689 1802.8372841849373,284.2897475496851 C 1766.955982191321,248.4084455560689 1775.926307689725,217.01230631165475 1802.8372841849373,194.58649256564462 Z" fill="url(#leaf11)" opacity="0.36" transform="rotate(76.4 1802.8 239.4)"/>
    <path d="M 727.5842268826018,982.0304989556548 C 755.0427197063213,1004.9125763087544 764.1955506475612,1036.947484603094 727.5842268826018,1073.5588083680532 C 690.9729031176424,1036.947484603094 700.1257340588822,1004.9125763087544 727.5842268826018,982.0304989556548 Z" fill="url(#leaf12)" opacity="0.25" transform="rotate(175.0 727.6 1027.8)"/>
    <path d="M 1641.2276164561365,611.6539985434079 C 1681.0010150210005,644.7984973474613 1694.258814542622,691.2007956731361 1641.2276164561365,744.2319937596217 C 1588.196418369651,691.2007956731361 1601.4542178912725,644.7984973474613 1641.2276164561365,611.6539985434079 Z" fill="url(#leaf13)" opacity="0.23" transform="rotate(169.0 1641.2 677.9)"/>
    <path d="M 1299.9735635792745,610.3601748731427 C 1345.5003913303826,648.2991979990661 1360.6760005807519,701.4138303753588 1299.9735635792745,762.1162673768362 C 1239.271126577797,701.4138303753588 1254.4467358281663,648.2991979990661 1299.9735635792745,610.3601748731427 Z" fill="url(#leaf14)" opacity="0.28" transform="rotate(299.3 1300.0 686.2)"/>
    <path d="M 1348.7745089719601,318.6497695210834 C 1380.140348473941,344.7879691060675 1390.5956283079347,381.38144852504524 1348.7745089719601,423.2025678610198 C 1306.9533896359856,381.38144852504524 1317.4086694699793,344.7879691060675 1348.7745089719601,318.6497695210834 Z" fill="url(#leaf15)" opacity="0.30" transform="rotate(67.5 1348.8 370.9)"/>
    <path d="M 447.2029375666604,496.18289305427584 C 480.99984157097856,524.3469797245409 492.26547623908465,563.7767010629121 447.2029375666604,608.8392397353364 C 402.14039889423617,563.7767010629121 413.40603356234226,524.3469797245409 447.2029375666604,496.18289305427584 Z" fill="url(#leaf16)" opacity="0.37" transform="rotate(172.3 447.2 552.5)"/>
    <path d="M 819.0195648458922,449.0386500836147 C 872.0918712541464,493.2655720904932 889.7826400568978,555.1832629001232 819.0195648458922,625.9463381111287 C 748.2564896348866,555.1832629001232 765.947258437638,493.2655720904932 819.0195648458922,449.0386500836147 Z" fill="url(#leaf17)" opacity="0.28" transform="rotate(334.8 819.0 537.5)"/>
    <path d="M 1397.0446396690734,301.49650765936605 C 1434.046251867697,332.3311844915524 1446.3801226005714,375.49973205661325 1397.0446396690734,424.83521498811143 C 1347.7091567375753,375.49973205661325 1360.0430274704497,332.3311844915524 1397.0446396690734,301.49650765936605 Z" fill="url(#leaf18)" opacity="0.21" transform="rotate(32.3 1397.0 363.2)"/>
    <path d="M 1343.264803202381,941.762447941308 C 1383.0030105360408,974.8776207193579 1396.249079647261,1021.2388626086278 1343.264803202381,1074.2231390535076 C 1290.280526757501,1021.2388626086278 1303.5265958687212,974.8776207193579 1343.264803202381,941.762447941308 Z" fill="url(#leaf19)" opacity="0.34" transform="rotate(175.1 1343.3 1008.0)"/>
    <path d="M 248.56290583607242,662.6433173673898 C 283.85378985913985,692.0523873866126 295.617417866829,733.2250854135247 248.56290583607242,780.2795974442812 C 201.50839380531585,733.2250854135247 213.27202181300498,692.0523873866126 248.56290583607242,662.6433173673898 Z" fill="url(#leaf0)" opacity="0.24" transform="rotate(201.8 248.6 721.5)"/>
    <path d="M 218.24605985421175,934.4027761334925 C 246.43882058148552,957.8967434062206 255.83640749057676,990.78829758804 218.24605985421175,1028.378645224405 C 180.65571221784674,990.78829758804 190.053299126938,957.8967434062206 218.24605985421175,934.4027761334925 Z" fill="url(#leaf1)" opacity="0.33" transform="rotate(189.0 218.2 981.4)"/>
    <path d="M 855.1421028305051,-7.7721209170067596 C 907.6362941214786,35.97303849213779 925.1343578851364,97.21626166494016 855.1421028305051,167.20851671957143 C 785.1498477758738,97.21626166494016 802.6479115395316,35.97303849213779 855.1421028305051,-7.7721209170067596 Z" fill="url(#leaf2)" opacity="0.28" transform="rotate(268.8 855.1 79.7)"/>
    <path d="M 1666.6455971074508,549.2472059912525 C 1698.7137409240356,575.9706591717397 1709.4031221962305,613.383493624422 1666.6455971074508,656.1410187132017 C 1623.8880720186712,613.383493624422 1634.577453290866,575.9706591717397 1666.6455971074508,549.2472059912525 Z" fill="url(#leaf3)" opacity="0.26" transform="rotate(23.2 1666.6 602.7)"/>
    <path d="M 1845.8668459480707,58.10624414695456 C 1876.0945754716577,83.29601874994366 1886.1704853128533,118.56170319412838 1845.8668459480707,158.86534255891092 C 1805.563206583288,118.56170319412838 1815.6391164244837,83.29601874994366 1845.8668459480707,58.10624414695456 Z" fill="url(#leaf4)" opacity="0.31" transform="rotate(203.4 1845.9 108.5)"/>
    <path d="M 328.62340968712283,699.3107236312219 C 360.47374415686454,725.8526690226732 371.0905223134451,763.0113925707053 328.62340968712283,805.4785051970275 C 286.15629706080057,763.0113925707053 296.7730752173811,725.8526690226732 328.62340968712283,699.3107236312219 Z" fill="url(#leaf5)" opacity="0.21" transform="rotate(278.8 328.6 752.4)"/>
    <path d="M 864.4997575628455,398.30095224287857 C 910.1332017600339,436.3288224072022 925.3443498257634,489.5678406372553 864.4997575628455,550.4124329001731 C 803.6551652999276,489.5678406372553 818.8663133656571,436.3288224072022 864.4997575628455,398.30095224287857 Z" fill="url(#leaf6)" opacity="0.36" transform="rotate(166.0 864.5 474.4)"/>
    <path d="M 905.7863703158669,519.6145284842909 C 944.742517630894,552.0779845801468 957.7279000692363,597.5268231143451 905.7863703158669,649.4683528677145 C 853.8448405624974,597.5268231143451 866.8302230008397,552.0779845801468 905.7863703158669,519.6145284842909 Z" fill="url(#leaf7)" opacity="0.37" transform="rotate(85.9 905.8 584.5)"/>
    <path d="M 241.70460710491918,210.15639840659878 C 297.7198492169617,256.83576683330085 316.39159658764254,322.18688263068384 241.70460710491918,396.8738721134072 C 167.01761762219581,322.18688263068384 185.68936499287665,256.83576683330085 241.70460710491918,210.15639840659878 Z" fill="url(#leaf8)" opacity="0.35" transform="rotate(139.6 241.7 303.5)"/>
    <path d="M 826.030414137767,20.510534521158263 C 865.4579114567388,53.366782286968075 878.6004105630627,99.36552915910181 826.030414137767,151.9355255843975 C 773.4604177124713,99.36552915910181 786.6029168187953,53.366782286968075 826.030414137767,20.510534521158263 Z" fill="url(#leaf9)" opacity="0.24" transform="rotate(158.8 826.0 86.2)"/>
    <path d="M 824.4695968225815,46.4933781012423 C 870.2326925778075,84.62929123059727 885.4870578295495,138.01956961169424 824.4695968225815,199.0370306186622 C 763.4521358156135,138.01956961169424 778.7065010673555,84.62929123059727 824.4695968225815,46.4933781012423 Z" fill="url(#leaf10)" opacity="0.37" transform="rotate(45.5 824.5 122.8)"/>
    <path d="M 1570.2532626725908,951.4385639393795 C 1609.8983312613236,984.4761210966568 1623.1133541242345,1030.7287011168453 1570.2532626725908,1083.588792568489 C 1517.3931712209471,1030.7287011168453 1530.608194083858,984.4761210966568 1570.2532626725908,951.4385639393795 Z" fill="url(#leaf11)" opacity="0.25" transform="rotate(233.0 1570.3 1017.5)"/>
    <path d="M 1773.7694519330796,402.3933304233678 C 1812.1579533015072,434.3837482303907 1824.9541204243164,479.17033316022287 1773.7694519330796,530.3550016514596 C 1722.5847834418428,479.17033316022287 1735.380950564652,434.3837482303907 1773.7694519330796,402.3933304233678 Z" fill="url(#leaf12)" opacity="0.24" transform="rotate(315.0 1773.8 466.4)"/>
    <path d="M 1733.5284169911256,193.26807413563458 C 1779.4332908563001,231.52213568994665 1794.734915478025,285.07782186598354 1733.5284169911256,346.2843203528828 C 1672.3219185042262,285.07782186598354 1687.623543125951,231.52213568994665 1733.5284169911256,193.26807413563458 Z" fill="url(#leaf13)" opacity="0.39" transform="rotate(61.7 1733.5 269.8)"/>
    <path d="M 1579.5863300903718,321.8190222991183 C 1621.676859676274,356.89446362070345 1635.707036204908,406.00008147092274 1579.5863300903718,462.1207875854591 C 1523.4656239758356,406.00008147092274 1537.4958005044696,356.89446362070345 1579.5863300903718,321.8190222991183 Z" fill="url(#leaf14)" opacity="0.28" transform="rotate(250.7 1579.6 392.0)"/>
    <path d="M 362.0787571201072,477.39471119508124 C 394.86781223317075,504.7189237893009 405.79749727085857,542.9728214212083 362.0787571201072,586.6915615719597 C 318.3600169693558,542.9728214212083 329.2897020070436,504.7189237893009 362.0787571201072,477.39471119508124 Z" fill="url(#leaf15)" opacity="0.20" transform="rotate(276.2 362.1 532.0)"/>
    <path d="M 869.6226686059318,877.0283917394428 C 917.0914684015498,916.5857249024577 932.9144016667559,971.9659913306788 869.6226686059318,1035.257724391503 C 806.3309355451078,971.9659913306788 822.1538688103138,916.5857249024577 869.6226686059318,877.0283917394428 Z" fill="url(#leaf16)" opacity="0.30" transform="rotate(76.8 869.6 956.1)"/>
    <path d="M 1411.844336737532,834.5011572336924 C 1446.9484188134563,863.7545589636293 1458.649779505431,904.7093213855408 1411.844336737532,951.5147641534396 C 1365.0388939696331,904.7093213855408 1376.7402546616079,863.7545589636293 1411.844336737532,834.5011572336924 Z" fill="url(#leaf17)" opacity="0.39" transform="rotate(156.0 1411.8 893.0)"/>
    <path d="M 940.1361299481117,50.76237222639938 C 989.6892665595419,92.05665273592457 1006.206978763352,149.86864544925984 940.1361299481117,215.93949426450015 C 874.0652811328714,149.86864544925984 890.5829933366815,92.05665273592457 940.1361299481117,50.76237222639938 Z" fill="url(#leaf18)" opacity="0.23" transform="rotate(159.0 940.1 133.4)"/>
    <path d="M 1100.1137237105672,886.5356735300013 C 1146.3302398740773,925.0494369995931 1161.735745261914,978.9687058570215 1100.1137237105672,1040.5907274083684 C 1038.4917021592205,978.9687058570215 1053.8972075470572,925.0494369995931 1100.1137237105672,886.5356735300013 Z" fill="url(#leaf19)" opacity="0.26" transform="rotate(240.5 1100.1 963.6)"/>
    <path d="M 1712.6876252352383,229.30521933507484 C 1767.1066393555311,274.65439776865213 1785.246310728962,338.1432475756603 1712.6876252352383,410.7019330693839 C 1640.1289397415146,338.1432475756603 1658.2686111149455,274.65439776865213 1712.6876252352383,229.30521933507484 Z" fill="url(#leaf0)" opacity="0.34" transform="rotate(359.8 1712.7 320.0)"/>
    <path d="M 339.9217321054371,281.3695104897167 C 382.82430439288163,317.1216540625871 397.1251618220298,367.17465506460564 339.9217321054371,424.3780847811983 C 282.71830238884445,367.17465506460564 297.0191598179926,317.1216540625871 339.9217321054371,281.3695104897167 Z" fill="url(#leaf1)" opacity="0.31" transform="rotate(83.6 339.9 352.9)"/>
    <path d="M 288.7321048907884,485.3164930165475 C 340.0260597813848,528.0614554253779 357.124044744917,587.9044027977403 288.7321048907884,656.2963426518689 C 220.34016503665978,587.9044027977403 237.43815000019194,528.0614554253779 288.7321048907884,485.3164930165475 Z" fill="url(#leaf2)" opacity="0.30" transform="rotate(193.6 288.7 570.8)"/>
    <path d="M 1702.8914713902027,287.05203555467324 C 1746.8912602216362,323.71852624753456 1761.5578564987807,375.0516132175403 1702.8914713902027,433.7179983261184 C 1644.2250862816247,375.0516132175403 1658.8916825587692,323.71852624753456 1702.8914713902027,287.05203555467324 Z" fill="url(#leaf3)" opacity="0.36" transform="rotate(55.7 1702.9 360.4)"/>
    <path d="M 1483.7636524800498,66.19235853474373 C 1536.6411684668558,110.25695519041533 1554.2670071291243,171.94739050835557 1483.7636524800498,242.4507451574301 C 1413.2602978309753,171.94739050835557 1430.8861364932438,110.25695519041533 1483.7636524800498,66.19235853474373 Z" fill="url(#leaf4)" opacity="0.31" transform="rotate(198.0 1483.8 154.3)"/>
    <path d="M 1566.8299691769848,152.38625010563524 C 1603.4086192955854,182.86845853780235 1615.6015026684522,225.5435503428363 1566.8299691769848,274.31508383430366 C 1518.0584356855175,225.5435503428363 1530.2513190583843,182.86845853780235 1566.8299691769848,152.38625010563524 Z" fill="url(#leaf5)" opacity="0.37" transform="rotate(175.9 1566.8 213.4)"/>
    <path d="M 990.0024408483816,139.06516181055707 C 1041.197628747221,181.7278183929231 1058.2626913801673,241.4555376082355 990.0024408483816,309.7157881400211 C 921.7421903165961,241.4555376082355 938.8072529495424,181.7278183929231 990.0024408483816,139.06516181055707 Z" fill="url(#leaf6)" opacity="0.23" transform="rotate(65.1 990.0 224.4)"/>
    <path d="M 259.6785372431652,474.86581279375935 C 315.0463370505685,521.0056459665955 333.50227031970303,585.601412408566 259.6785372431652,659.4251454851038 C 185.85480416662736,585.601412408566 204.31073743576184,521.0056459665955 259.6785372431652,474.86581279375935 Z" fill="url(#leaf7)" opacity="0.34" transform="rotate(195.5 259.7 567.1)"/>
    <path d="M 1782.3224428404474,788.1572352872555 C 1831.3407035795908,829.0057859032084 1847.680123825972,886.1937567655426 1782.3224428404474,951.5514377510673 C 1716.9647618549227,886.1937567655426 1733.304182101304,829.0057859032084 1782.3224428404474,788.1572352872555 Z" fill="url(#leaf8)" opacity="0.26" transform="rotate(11.9 1782.3 869.9)"/>
    <path d="M 693.5604723408626,926.9688432008843 C 726.7982196617033,954.6669659682515 737.8774687686503,993.4443378425657 693.5604723408626,1037.7613342703532 C 649.2434759130749,993.4443378425657 660.3227250200218,954.6669659682515 693.5604723408626,926.9688432008843 Z" fill="url(#leaf9)" opacity="0.25" transform="rotate(23.9 693.6 982.4)"/>
    <path d="M 1184.718075656186,4.09952063269391 C 1232.6890511301735,44.075333527683505 1248.6793762881694,100.04147158066894 1184.718075656186,164.0027722126523 C 1120.7567750242029,100.04147158066894 1136.7471001821987,44.075333527683505 1184.718075656186,4.09952063269391 Z" fill="url(#leaf10)" opacity="0.34" transform="rotate(170.5 1184.7 84.1)"/>
    <path d="M 237.34161767490946,6.721556259524064 C 292.63310350068525,52.79779444767057 311.0635987759439,117.30452791107568 237.34161767490946,191.02650901211007 C 163.61963657387503,117.30452791107568 182.05013184913366,52.79779444767057 237.34161767490946,6.721556259524064 Z" fill="url(#leaf11)" opacity="0.33" transform="rotate(324.9 237.3 98.9)"/>
    <path d="M 196.79961096985124,458.20877507510977 C 239.18706439747956,493.5316529314667 253.3162155400223,542.9836819303664 196.79961096985124,599.5002865005374 C 140.28300639968018,542.9836819303664 154.41215754222293,493.5316529314667 196.79961096985124,458.20877507510977 Z" fill="url(#leaf12)" opacity="0.31" transform="rotate(340.3 196.8 528.9)"/>
    <path d="M 1068.4973307699934,63.210412148929976 C 1118.9389325335117,105.24508028519527 1135.752799788018,164.09361567596667 1068.4973307699934,231.34908469399116 C 1001.2418617519689,164.09361567596667 1018.055729006475,105.24508028519527 1068.4973307699934,63.210412148929976 Z" fill="url(#leaf13)" opacity="0.25" transform="rotate(109.7 1068.5 147.3)"/>
    <path d="M 540.5183305956663,535.7769401188966 C 598.8509303113244,584.3874398819452 618.2951302165438,652.442139550213 540.5183305956663,730.2189391710906 C 462.7415309747887,652.442139550213 482.1857308800081,584.3874398819452 540.5183305956663,535.7769401188966 Z" fill="url(#leaf14)" opacity="0.38" transform="rotate(117.1 540.5 633.0)"/>
    <path d="M 771.9504215590705,195.29835627207143 C 829.4542506039767,243.21821380949322 848.6221936189454,310.30601436188374 771.9504215590705,386.9777864217586 C 695.2786494991956,310.30601436188374 714.4465925141643,243.21821380949322 771.9504215590705,195.29835627207143 Z" fill="url(#leaf15)" opacity="0.31" transform="rotate(89.7 772.0 291.1)"/>
    <path d="M 1494.285624526234,24.456722418348846 C 1548.3706688090376,69.52759265401849 1566.3990169033054,132.626810983956 1494.285624526234,204.74020336102745 C 1422.1722321491625,132.626810983956 1440.2005802434303,69.52759265401849 1494.285624526234,24.456722418348846 Z" fill="url(#leaf16)" opacity="0.39" transform="rotate(234.4 1494.3 114.6)"/>
    <path d="M 58.412074215942845,288.2627250932502 C 112.84026037020982,333.6195468884727 130.9829890882988,397.1190974017842 58.412074215942845,469.69001227414014 C -14.158840656413112,397.1190974017842 3.983888061675877,333.6195468884727 58.412074215942845,288.2627250932502 Z" fill="url(#leaf17)" opacity="0.31" transform="rotate(306.0 58.4 379.0)"/>
    <path d="M 1596.264280777751,588.4237550299247 C 1640.0170359790063,624.8843843643041 1654.6012877127582,675.9292654324353 1596.264280777751,734.2662723674423 C 1537.927273842744,675.9292654324353 1552.5115255764958,624.8843843643041 1596.264280777751,588.4237550299247 Z" fill="url(#leaf18)" opacity="0.38" transform="rotate(259.6 1596.3 661.3)"/>
    <path d="M 1681.6333893583421,9.702375696096738 C 1735.6710446135692,54.73375507545258 1753.6835963653116,117.77768620655075 1681.6333893583421,189.8278932135201 C 1609.5831823513727,117.77768620655075 1627.595734103115,54.73375507545258 1681.6333893583421,9.702375696096738 Z" fill="url(#leaf19)" opacity="0.39" transform="rotate(84.7 1681.6 99.8)"/>
    <path d="M 726.182103709277,54.7651395683468 C 763.1018956543734,85.53163285592706 775.4084929694054,128.6047234585394 726.182103709277,177.83111271866784 C 676.9557144491487,128.6047234585394 689.2623117641807,85.53163285592706 726.182103709277,54.7651395683468 Z" fill="url(#leaf0)" opacity="0.37" transform="rotate(106.9 726.2 116.3)"/>
    <path d="M 1512.2543733934829,687.2490830655516 C 1542.0372251641604,712.0681262077829 1551.964842421053,746.8147866069066 1512.2543733934829,786.5252556344766 C 1472.5439043659128,746.8147866069066 1482.4715216228053,712.0681262077829 1512.2543733934829,687.2490830655516 Z" fill="url(#leaf1)" opacity="0.33" transform="rotate(161.5 1512.3 736.9)"/>
    <path d="M 1437.3684691513913,427.1696573667443 C 1474.000395684819,457.6962628112675 1486.2110378626285,500.4335104336 1437.3684691513913,549.2760791448371 C 1388.5259004401541,500.4335104336 1400.7365426179636,457.6962628112675 1437.3684691513913,427.1696573667443 Z" fill="url(#leaf2)" opacity="0.31" transform="rotate(198.2 1437.4 488.2)"/>
    <path d="M 1633.583809525237,879.0663056563895 C 1692.2893563290236,927.9875946595452 1711.857871930286,996.4773992639629 1633.583809525237,1074.7514616690116 C 1555.3097471201881,996.4773992639629 1574.8782627214505,927.9875946595452 1633.583809525237,879.0663056563895 Z" fill="url(#leaf3)" opacity="0.21" transform="rotate(127.1 1633.6 976.9)"/>
    <path d="M 1711.736181270789,705.8211144750082 C 1767.7867068101784,752.5298857578327 1786.4702153233081,817.922165553787 1711.736181270789,892.656199606306 C 1637.00214721827,817.922165553787 1655.6856557313997,752.5298857578327 1711.736181270789,705.8211144750082 Z" fill="url(#leaf4)" opacity="0.34" transform="rotate(280.9 1711.7 799.2)"/>
    <path d="M 1168.8069102369234,25.28366125744361 C 1227.2755993079659,74.00756881664572 1246.7651623316467,142.22103939952865 1168.8069102369234,220.17929149425203 C 1090.8486581422,142.22103939952865 1110.338221165881,74.00756881664572 1168.8069102369234,25.28366125744361 Z" fill="url(#leaf5)" opacity="0.24" transform="rotate(202.5 1168.8 122.7)"/>
    <path d="M 1568.49023944506,373.7025642144865 C 1614.1109177307403,411.71979611922006 1629.3178104926337,464.94392078584707 1568.49023944506,525.7714918334208 C 1507.6626683974864,464.94392078584707 1522.8695611593798,411.71979611922006 1568.49023944506,373.7025642144865 Z" fill="url(#leaf6)" opacity="0.34" transform="rotate(345.5 1568.5 449.7)"/>
    <path d="M 582.9824474843116,432.495853089857 C 629.859437546742,471.5600114752157 645.4851009008854,526.2498332147178 582.9824474843116,588.7524866312917 C 520.4797940677378,526.2498332147178 536.1054574218812,471.5600114752157 582.9824474843116,432.495853089857 Z" fill="url(#leaf7)" opacity="0.35" transform="rotate(111.7 583.0 510.6)"/>
    <path d="M 551.6469481410729,876.0755021953889 C 605.979133382674,921.3523232300565 624.0898617965411,984.7398726785912 551.6469481410729,1057.1827863340593 C 479.2040344856048,984.7398726785912 497.3147628994718,921.3523232300565 551.6469481410729,876.0755021953889 Z" fill="url(#leaf8)" opacity="0.35" transform="rotate(351.6 551.6 966.6)"/>
    <path d="M 919.2266838679983,693.415565544764 C 944.1703381187941,714.2019440870938 952.4848895357261,743.3028740463557 919.2266838679983,776.5610797140833 C 885.9684782002705,743.3028740463557 894.2830296172025,714.2019440870938 919.2266838679983,693.415565544764 Z" fill="url(#leaf9)" opacity="0.36" transform="rotate(112.1 919.2 735.0)"/>
    <path d="M 1403.0452247069145,667.1664090326155 C 1449.4884669177247,705.8691108749573 1464.9695476546615,760.0528934542359 1403.0452247069145,821.9772164019828 C 1341.1209017591675,760.0528934542359 1356.6019824961043,705.8691108749573 1403.0452247069145,667.1664090326155 Z" fill="url(#leaf10)" opacity="0.22" transform="rotate(336.2 1403.0 744.6)"/>
    <path d="M 873.5647245793718,-37.524082456288724 C 932.6162333421959,11.685508179398 952.3000695964706,80.57893506935942 873.5647245793718,159.31428008645815 C 794.8293795622731,80.57893506935942 814.5132158165478,11.685508179398 873.5647245793718,-37.524082456288724 Z" fill="url(#leaf11)" opacity="0.38" transform="rotate(297.5 873.6 60.9)"/>
    <path d="M 274.30925958181484,771.3406342163406 C 317.9172663238155,807.6806398346746 332.4532685711491,858.5566477003421 274.30925958181484,916.7006566896763 C 216.1652505924806,858.5566477003421 230.70125283981417,807.6806398346746 274.30925958181484,771.3406342163406 Z" fill="url(#leaf12)" opacity="0.37" transform="rotate(156.9 274.3 844.0)"/>
    <path d="M 99.90334803960846,479.98171132654835 C 126.6657319421621,502.28369791200976 135.58652657634667,533.5064791316556 99.90334803960846,569.1896576683938 C 64.22016950287026,533.5064791316556 73.14096413705482,502.28369791200976 99.90334803960846,479.98171132654835 Z" fill="url(#leaf13)" opacity="0.40" transform="rotate(37.5 99.9 524.6)"/>
    <path d="M 859.1399697221386,913.0667719864883 C 890.8900308644188,939.5251562717219 901.4733845785123,976.5668942710488 859.1399697221386,1018.9003091274225 C 816.806554865765,976.5668942710488 827.3899085798585,939.5251562717219 859.1399697221386,913.0667719864883 Z" fill="url(#leaf14)" opacity="0.24" transform="rotate(35.7 859.1 966.0)"/>
    <path d="M 758.7035321424562,158.41305072665563 C 802.8260792653406,195.18183999572597 817.5335949729688,246.65814497242448 758.7035321424562,305.48820780293704 C 699.8734693119436,246.65814497242448 714.5809850195718,195.18183999572597 758.7035321424562,158.41305072665563 Z" fill="url(#leaf15)" opacity="0.30" transform="rotate(46.4 758.7 232.0)"/>
    <path d="M 1582.2568896086657,559.6382058895198 C 1607.505138544639,580.6784133361642 1615.9212215232967,610.1347037614664 1582.2568896086657,643.7990356760976 C 1548.5925576940347,610.1347037614664 1557.0086406726923,580.6784133361642 1582.2568896086657,559.6382058895198 Z" fill="url(#leaf16)" opacity="0.35" transform="rotate(138.8 1582.3 601.7)"/>
    <path d="M 840.5474962073832,293.3257069833537 C 894.6809114232673,338.4368863299237 912.7253831618953,401.5925374151217 840.5474962073832,473.7704243696337 C 768.3696092528712,401.5925374151217 786.4140809914992,338.4368863299237 840.5474962073832,293.3257069833537 Z" fill="url(#leaf17)" opacity="0.38" transform="rotate(179.7 840.5 383.5)"/>
    <path d="M 1502.4775829985745,603.9342861763399 C 1538.6170065133035,634.0504724386142 1550.6634810182134,676.2131332057982 1502.4775829985745,724.3990312254369 C 1454.2916849789356,676.2131332057982 1466.3381594838454,634.0504724386142 1502.4775829985745,603.9342861763399 Z" fill="url(#leaf18)" opacity="0.22" transform="rotate(287.0 1502.5 664.2)"/>
    <path d="M 1157.1715896576316,814.4070451707457 C 1209.2142698484888,857.7759453297933 1226.5618299121077,918.49240555246 1157.1715896576316,987.8826458069361 C 1087.7813494031554,918.49240555246 1105.1289094667743,857.7759453297933 1157.1715896576316,814.4070451707457 Z" fill="url(#leaf19)" opacity="0.31" transform="rotate(328.4 1157.2 901.1)"/>
    <path d="M 745.2592005765157,190.4359846422085 C 778.642225113949,218.25517175673627 789.7698999597602,257.2020337170752 745.2592005765157,301.71273310031967 C 700.7485011932712,257.2020337170752 711.8761760390823,218.25517175673627 745.2592005765157,190.4359846422085 Z" fill="url(#leaf0)" opacity="0.37" transform="rotate(191.5 745.3 246.1)"/>
    <path d="M 485.6272981534231,595.3419106084917 C 544.8673867859632,644.7086511356084 564.6140829968099,713.822087873572 485.6272981534231,792.8088727169587 C 406.6405133100363,713.822087873572 426.387209520883,644.7086511356084 485.6272981534231,595.3419106084917 Z" fill="url(#leaf1)" opacity="0.29" transform="rotate(342.0 485.6 694.1)"/>
    <path d="M 949.8933793909347,174.67510057228668 C 1008.6526603125341,223.64116800695282 1028.2390872864005,292.19366241548545 949.8933793909347,370.53937031095126 C 871.5476714954689,292.19366241548545 891.1340984693353,223.64116800695282 949.8933793909347,174.67510057228668 Z" fill="url(#leaf2)" opacity="0.21" transform="rotate(354.5 949.9 272.6)"/>
    <path d="M 1545.3111996584744,855.7917937361555 C 1603.023873778519,903.8856888361926 1622.2614318185338,971.2171419762445 1545.3111996584744,1048.167374136304 C 1468.360967498415,971.2171419762445 1487.5985255384298,903.8856888361926 1545.3111996584744,855.7917937361555 Z" fill="url(#leaf3)" opacity="0.21" transform="rotate(296.1 1545.3 952.0)"/>
  </g>

  <!-- Central star shape -->
  <polygon points="960.0,243.2 1047.2,420.0 1242.2,448.3 1101.1,585.9 1134.4,780.1 960.0,688.4 785.6,780.1 818.9,585.9 677.8,448.3 872.8,420.0" 
           fill="#FF69B4" 
           transform="rotate(97.6 960.0 540.0)"/>
</svg>