<?xml version="1.0" encoding="UTF-8"?>
<svg xmlns="http://www.w3.org/2000/svg" viewBox="0 0 1920 1080" width="1920" height="1080">
  <defs>
    <linearGradient id="bgGrad" x1="0%" y1="0%" x2="100%" y2="100%">
      <stop offset="0%" stop-color="#45B7D1"/>
      <stop offset="100%" stop-color="#FFD700"/>
    </linearGradient>
    <clipPath id="complexClip"><polygon points="1333.9,540.0 1323.0,583.4 1293.8,623.6 1250.4,658.7 1285.2,743.2 1218.1,791.5 1116.3,810.6 1009.8,806.5 914.6,782.8 852.2,726.6 750.4,744.2 724.2,687.3 658.1,663.4 619.6,625.3 477.3,597.7 604.5,540.0 504.3,485.5 458.3,414.4 646.2,411.7 680.6,365.4 773.6,358.4 787.0,240.5 907.1,256.6 1005.2,298.1 1114.7,272.2 1158.1,347.0 1198.9,390.8 1412.4,355.1 1458.1,415.3 1325.5,496.3"/></clipPath>
    <radialGradient id="leaf0" cx="50%" cy="50%" r="70%">
      <stop offset="0%" stop-color="#FF69B4"/>
      <stop offset="50%" stop-color="#FF1493"/>
      <stop offset="100%" stop-color="#45B7D1"/>
    </radialGradient>
    <radialGradient id="leaf1" cx="50%" cy="50%" r="70%">
      <stop offset="0%" stop-color="#96E6A1"/>
      <stop offset="50%" stop-color="#32CD32"/>
      <stop offset="100%" stop-color="#45B7D1"/>
    </radialGradient>
    <radialGradient id="leaf2" cx="50%" cy="50%" r="70%">
      <stop offset="0%" stop-color="#FF4500"/>
      <stop offset="50%" stop-color="#FF6B6B"/>
      <stop offset="100%" stop-color="#9370DB"/>
    </radialGradient>
    <radialGradient id="leaf3" cx="50%" cy="50%" r="70%">
      <stop offset="0%" stop-color="#4ECDC4"/>
      <stop offset="50%" stop-color="#00FA9A"/>
      <stop offset="100%" stop-color="#FF1493"/>
    </radialGradient>
    <radialGradient id="leaf4" cx="50%" cy="50%" r="70%">
      <stop offset="0%" stop-color="#96E6A1"/>
      <stop offset="50%" stop-color="#7B68EE"/>
      <stop offset="100%" stop-color="#DC143C"/>
    </radialGradient>
    <radialGradient id="leaf5" cx="50%" cy="50%" r="70%">
      <stop offset="0%" stop-color="#00CED1"/>
      <stop offset="50%" stop-color="#32CD32"/>
      <stop offset="100%" stop-color="#45B7D1"/>
    </radialGradient>
    <radialGradient id="leaf6" cx="50%" cy="50%" r="70%">
      <stop offset="0%" stop-color="#7B68EE"/>
      <stop offset="50%" stop-color="#00FA9A"/>
      <stop offset="100%" stop-color="#FFE66D"/>
    </radialGradient>
    <radialGradient id="leaf7" cx="50%" cy="50%" r="70%">
      <stop offset="0%" stop-color="#FFD700"/>
      <stop offset="50%" stop-color="#45B7D1"/>
      <stop offset="100%" stop-color="#4ECDC4"/>
    </radialGradient>
    <radialGradient id="leaf8" cx="50%" cy="50%" r="70%">
      <stop offset="0%" stop-color="#FF4500"/>
      <stop offset="50%" stop-color="#32CD32"/>
      <stop offset="100%" stop-color="#DC143C"/>
    </radialGradient>
    <radialGradient id="leaf9" cx="50%" cy="50%" r="70%">
      <stop offset="0%" stop-color="#45B7D1"/>
      <stop offset="50%" stop-color="#7B68EE"/>
      <stop offset="100%" stop-color="#32CD32"/>
    </radialGradient>
    <radialGradient id="leaf10" cx="50%" cy="50%" r="70%">
      <stop offset="0%" stop-color="#9370DB"/>
      <stop offset="50%" stop-color="#45B7D1"/>
      <stop offset="100%" stop-color="#00CED1"/>
    </radialGradient>
    <radialGradient id="leaf11" cx="50%" cy="50%" r="70%">
      <stop offset="0%" stop-color="#96E6A1"/>
      <stop offset="50%" stop-color="#32CD32"/>
      <stop offset="100%" stop-color="#9370DB"/>
    </radialGradient>
    <radialGradient id="leaf12" cx="50%" cy="50%" r="70%">
      <stop offset="0%" stop-color="#00CED1"/>
      <stop offset="50%" stop-color="#FF1493"/>
      <stop offset="100%" stop-color="#96E6A1"/>
    </radialGradient>
    <radialGradient id="leaf13" cx="50%" cy="50%" r="70%">
      <stop offset="0%" stop-color="#00CED1"/>
      <stop offset="50%" stop-color="#45B7D1"/>
      <stop offset="100%" stop-color="#9370DB"/>
    </radialGradient>
    <radialGradient id="leaf14" cx="50%" cy="50%" r="70%">
      <stop offset="0%" stop-color="#DC143C"/>
      <stop offset="50%" stop-color="#FF69B4"/>
      <stop offset="100%" stop-color="#FFE66D"/>
    </radialGradient>
    <radialGradient id="leaf15" cx="50%" cy="50%" r="70%">
      <stop offset="0%" stop-color="#DC143C"/>
      <stop offset="50%" stop-color="#00CED1"/>
      <stop offset="100%" stop-color="#4ECDC4"/>
    </radialGradient>
    <radialGradient id="leaf16" cx="50%" cy="50%" r="70%">
      <stop offset="0%" stop-color="#9370DB"/>
      <stop offset="50%" stop-color="#FFD700"/>
      <stop offset="100%" stop-color="#FF1493"/>
    </radialGradient>
    <radialGradient id="leaf17" cx="50%" cy="50%" r="70%">
      <stop offset="0%" stop-color="#DC143C"/>
      <stop offset="50%" stop-color="#FF6B6B"/>
      <stop offset="100%" stop-color="#45B7D1"/>
    </radialGradient>
    <radialGradient id="leaf18" cx="50%" cy="50%" r="70%">
      <stop offset="0%" stop-color="#7B68EE"/>
      <stop offset="50%" stop-color="#FF4500"/>
      <stop offset="100%" stop-color="#96E6A1"/>
    </radialGradient>
    <radialGradient id="leaf19" cx="50%" cy="50%" r="70%">
      <stop offset="0%" stop-color="#00CED1"/>
      <stop offset="50%" stop-color="#96E6A1"/>
      <stop offset="100%" stop-color="#45B7D1"/>
    </radialGradient>
  </defs>

  <!-- Background -->
  <rect width="1920" height="1080" fill="url(#bgGrad)"/>
  
  <!-- Leaves with clip-path -->
  <g clip-path="url(#complexClip)">
    <path d="M 386.7622169362113,806.6333535833351 C 434.22855501157477,846.1886353128045 450.0506677033626,901.5660297340619 386.7622169362113,964.8544805012132 C 323.47376616906,901.5660297340619 339.29587886084784,846.1886353128045 386.7622169362113,806.6333535833351 Z" fill="url(#leaf0)" opacity="0.29" transform="rotate(137.5 386.8 885.7)"/>
    <path d="M 404.9876890547371,7.37764989544317 C 435.2343283231862,32.583182619150776 445.31654141266927,67.87092843234143 404.9876890547371,108.19978079027359 C 364.6588366968049,67.87092843234143 374.74104978628793,32.583182619150776 404.9876890547371,7.37764989544317 Z" fill="url(#leaf1)" opacity="0.27" transform="rotate(48.4 405.0 57.8)"/>
    <path d="M 1019.9372190871109,211.98682786111368 C 1066.7624031550602,251.00781458440474 1082.3707978443765,305.6371959970122 1019.9372190871109,368.0707747542779 C 957.5036403298452,305.6371959970122 973.1120350191616,251.00781458440474 1019.9372190871109,211.98682786111368 Z" fill="url(#leaf2)" opacity="0.34" transform="rotate(338.1 1019.9 290.0)"/>
    <path d="M 544.7593135624636,539.1451219622414 C 593.1475248506597,579.4686313690715 609.2769286133916,635.9215445386336 544.7593135624636,700.4391595895617 C 480.24169851153556,635.9215445386336 496.37110227426757,579.4686313690715 544.7593135624636,539.1451219622414 Z" fill="url(#leaf3)" opacity="0.29" transform="rotate(130.1 544.8 619.8)"/>
    <path d="M 95.95022438917128,183.44727849154978 C 149.86152780638412,228.37336467256046 167.83196227878838,291.26988532597545 95.95022438917128,363.1516232155925 C 24.068486499554183,291.26988532597545 42.038920971958454,228.37336467256046 95.95022438917128,183.44727849154978 Z" fill="url(#leaf4)" opacity="0.33" transform="rotate(233.6 96.0 273.3)"/>
    <path d="M 1395.3030453736749,15.244823249696026 C 1440.2283905245527,52.68261087542757 1455.2035055748454,105.09551355145173 1395.3030453736749,164.9959737526222 C 1335.4025851725044,105.09551355145173 1350.377700222797,52.68261087542757 1395.3030453736749,15.244823249696026 Z" fill="url(#leaf5)" opacity="0.33" transform="rotate(3.1 1395.3 90.1)"/>
    <path d="M 887.5614518419288,639.6565053333632 C 929.8616284713293,674.9066525245302 943.9616873477961,724.256858592164 887.5614518419288,780.6570940980312 C 831.1612163360616,724.256858592164 845.2612752125284,674.9066525245302 887.5614518419288,639.6565053333632 Z" fill="url(#leaf6)" opacity="0.39" transform="rotate(54.9 887.6 710.2)"/>
    <path d="M 1119.9887848005785,241.4380074634106 C 1166.2319277073475,279.9739598857181 1181.6463086762706,333.9242932769486 1119.9887848005785,395.5818171526406 C 1058.3312609248865,333.9242932769486 1073.7456418938095,279.9739598857181 1119.9887848005785,241.4380074634106 Z" fill="url(#leaf7)" opacity="0.35" transform="rotate(208.2 1120.0 318.5)"/>
    <path d="M 137.40064356209086,812.8213444163359 C 193.56999075807352,859.6291337463215 212.29310649006777,925.1600388083012 137.40064356209086,1000.0525017362781 C 62.50818063411397,925.1600388083012 81.23129636610821,859.6291337463215 137.40064356209086,812.8213444163359 Z" fill="url(#leaf8)" opacity="0.23" transform="rotate(77.2 137.4 906.4)"/>
    <path d="M 700.8161754989313,657.0653397965631 C 733.2645096680545,684.1056182708325 744.0806210577623,721.9620081348096 700.8161754989313,765.2264536936406 C 657.5517299401004,721.9620081348096 668.3678413298081,684.1056182708325 700.8161754989313,657.0653397965631 Z" fill="url(#leaf9)" opacity="0.37" transform="rotate(44.5 700.8 711.1)"/>
    <path d="M 338.8164981794085,857.7809811291622 C 364.3007146724429,879.0178282066909 372.7954535034543,908.7494141152309 338.8164981794085,942.7283694392768 C 304.83754285536264,908.7494141152309 313.3322816863741,879.0178282066909 338.8164981794085,857.7809811291622 Z" fill="url(#leaf10)" opacity="0.34" transform="rotate(116.5 338.8 900.3)"/>
    <path d="M 865.2163295617607,946.8296806220521 C 912.6314704653649,986.3422980417223 928.436517433233,1041.6599624292605 865.2163295617607,1104.8801503007328 C 801.9961416902885,1041.6599624292605 817.8011886581565,986.3422980417223 865.2163295617607,946.8296806220521 Z" fill="url(#leaf11)" opacity="0.36" transform="rotate(296.3 865.2 1025.9)"/>
    <path d="M 508.37064154821405,531.3862272764853 C 566.7911457530134,580.0699807804849 586.2646471546133,648.2272356860842 508.37064154821405,726.1212412924834 C 430.47663594181483,648.2272356860842 449.9501373434146,580.0699807804849 508.37064154821405,531.3862272764853 Z" fill="url(#leaf12)" opacity="0.24" transform="rotate(216.9 508.4 628.8)"/>
    <path d="M 805.3527466794666,354.91958992116287 C 832.0438517593765,377.1621774877545 840.9408867860132,408.3018000809828 805.3527466794666,443.88994018752936 C 769.76460657292,408.3018000809828 778.6616415995567,377.1621774877545 805.3527466794666,354.91958992116287 Z" fill="url(#leaf13)" opacity="0.29" transform="rotate(339.2 805.4 399.4)"/>
    <path d="M 796.3844871868739,498.37141841320465 C 841.0149419105609,535.5634640162771 855.8917601517898,587.6323278605785 796.3844871868739,647.1396008254943 C 736.8772142219581,587.6323278605785 751.754032463187,535.5634640162771 796.3844871868739,498.37141841320465 Z" fill="url(#leaf14)" opacity="0.33" transform="rotate(281.2 796.4 572.8)"/>
    <path d="M 87.88854197979119,884.7048205364464 C 134.40560294473812,923.4690380072354 149.9112899330538,977.7389424663403 87.88854197979119,1039.761690419603 C 25.865794026528576,977.7389424663403 41.371481014844235,923.4690380072354 87.88854197979119,884.7048205364464 Z" fill="url(#leaf15)" opacity="0.31" transform="rotate(285.0 87.9 962.2)"/>
    <path d="M 1683.9395069995544,359.4344486086387 C 1715.2110035876276,385.4940290986997 1725.634835783652,421.9774417847851 1683.9395069995544,463.6727705688827 C 1642.2441782154567,421.9774417847851 1652.6680104114812,385.4940290986997 1683.9395069995544,359.4344486086387 Z" fill="url(#leaf16)" opacity="0.37" transform="rotate(354.0 1683.9 411.6)"/>
    <path d="M 827.6033499185431,495.9328781308195 C 884.3553258825795,543.2261914341831 903.2726512039249,609.436830058892 827.6033499185431,685.1061313442738 C 751.9340486331614,609.436830058892 770.8513739545068,543.2261914341831 827.6033499185431,495.9328781308195 Z" fill="url(#leaf17)" opacity="0.33" transform="rotate(72.6 827.6 590.5)"/>
    <path d="M 1335.1175396535878,863.6519840894691 C 1384.5745033066669,904.8661204670351 1401.0601578576932,962.5659113956275 1335.1175396535878,1028.508529599733 C 1269.1749214494823,962.5659113956275 1285.6605760005086,904.8661204670351 1335.1175396535878,863.6519840894691 Z" fill="url(#leaf18)" opacity="0.35" transform="rotate(118.1 1335.1 946.1)"/>
    <path d="M 741.7174076820125,941.3711851395412 C 784.6847325504594,977.1772891965804 799.0071741732751,1027.3058348764353 741.7174076820125,1084.5956013676978 C 684.42764119075,1027.3058348764353 698.7500828135657,977.1772891965804 741.7174076820125,941.3711851395412 Z" fill="url(#leaf19)" opacity="0.32" transform="rotate(76.2 741.7 1013.0)"/>
    <path d="M 215.65683060364768,189.8890356408097 C 258.2458273116875,225.3798662308429 272.4421595477008,275.0670290568894 215.65683060364768,331.8523580009425 C 158.87150165959457,275.0670290568894 173.06783389560783,225.3798662308429 215.65683060364768,189.8890356408097 Z" fill="url(#leaf0)" opacity="0.20" transform="rotate(113.9 215.7 260.9)"/>
    <path d="M 1727.0208625841954,645.1081334051397 C 1765.6379842805156,677.2890681520732 1778.510358179289,722.3423767977802 1727.0208625841954,773.8318723928738 C 1675.5313669891018,722.3423767977802 1688.403740887875,677.2890681520732 1727.0208625841954,645.1081334051397 Z" fill="url(#leaf1)" opacity="0.40" transform="rotate(145.5 1727.0 709.5)"/>
    <path d="M 507.910435829815,870.826728193384 C 539.2411823190643,896.9356836010917 549.6847644821473,933.4882211718825 507.910435829815,975.2625498242148 C 466.13610717748264,933.4882211718825 476.5796893405658,896.9356836010917 507.910435829815,870.826728193384 Z" fill="url(#leaf2)" opacity="0.26" transform="rotate(67.6 507.9 923.0)"/>
    <path d="M 181.42572307123712,591.8384359142776 C 218.46076160946166,622.7009680294647 230.8057744555365,665.9085129907266 181.42572307123712,715.288564375026 C 132.04567168693774,665.9085129907266 144.39068453301257,622.7009680294647 181.42572307123712,591.8384359142776 Z" fill="url(#leaf3)" opacity="0.30" transform="rotate(17.8 181.4 653.6)"/>
    <path d="M 253.6987385930404,165.65852568946787 C 304.83884400687265,208.27528020099473 321.88554581148344,267.9387365171324 253.6987385930404,336.1255437355754 C 185.51193137459737,267.9387365171324 202.55863317920813,208.27528020099473 253.6987385930404,165.65852568946787 Z" fill="url(#leaf4)" opacity="0.39" transform="rotate(135.0 253.7 250.9)"/>
    <path d="M 1710.1536191924183,578.9516694852746 C 1765.5443784522515,625.1106355351355 1784.0079648721958,689.7331880049409 1710.1536191924183,763.5875336847184 C 1636.2992735126409,689.7331880049409 1654.7628599325851,625.1106355351355 1710.1536191924183,578.9516694852746 Z" fill="url(#leaf5)" opacity="0.39" transform="rotate(115.8 1710.2 671.3)"/>
    <path d="M 507.2404061701001,42.42077996430254 C 564.5589886100795,90.18626533095207 583.6651827567393,157.0579448442614 507.2404061701001,233.48272143090065 C 430.8156295834608,157.0579448442614 449.92182373012065,90.18626533095207 507.2404061701001,42.42077996430254 Z" fill="url(#leaf6)" opacity="0.21" transform="rotate(233.0 507.2 138.0)"/>
    <path d="M 669.3193133725068,507.0140842725304 C 708.1248196616755,539.3520061801709 721.0599884247316,584.6250968508676 669.3193133725068,636.3657719030924 C 617.578638320282,584.6250968508676 630.5138070833382,539.3520061801709 669.3193133725068,507.0140842725304 Z" fill="url(#leaf7)" opacity="0.39" transform="rotate(353.4 669.3 571.7)"/>
    <path d="M 688.8237187633443,533.6680153413362 C 731.0514664915588,568.8578051148482 745.1273824009636,618.1235107977651 688.8237187633443,674.4271744353845 C 632.5200551257251,618.1235107977651 646.5959710351299,568.8578051148482 688.8237187633443,533.6680153413362 Z" fill="url(#leaf8)" opacity="0.30" transform="rotate(156.0 688.8 604.0)"/>
    <path d="M 1077.0300744850306,663.3148844453888 C 1115.6658064256335,695.5113277292246 1128.5443837391679,740.5863483265948 1077.0300744850306,792.1006575807321 C 1025.5157652308933,740.5863483265948 1038.3943425444277,695.5113277292246 1077.0300744850306,663.3148844453888 Z" fill="url(#leaf9)" opacity="0.29" transform="rotate(158.3 1077.0 727.7)"/>
    <path d="M 1315.2443655935622,412.31241826944637 C 1356.3562744521328,446.57234231825515 1370.0602440716561,494.5362359865874 1315.2443655935622,549.3521144646816 C 1260.4284871154682,494.5362359865874 1274.1324567349916,446.57234231825515 1315.2443655935622,412.31241826944637 Z" fill="url(#leaf10)" opacity="0.23" transform="rotate(340.4 1315.2 480.8)"/>
    <path d="M 409.87893253144745,85.98474551932361 C 447.0005344327835,116.919413770437 459.37440173322886,160.22794932199577 409.87893253144745,209.72341852377718 C 360.38346332966603,160.22794932199577 372.75733063011137,116.919413770437 409.87893253144745,85.98474551932361 Z" fill="url(#leaf11)" opacity="0.36" transform="rotate(246.7 409.9 147.9)"/>
    <path d="M 1125.8931355257619,42.1005134570906 C 1155.613170072527,66.86720891272824 1165.5198482547821,101.54058255062095 1125.8931355257619,141.16729527964117 C 1086.2664227967416,101.54058255062095 1096.1731009789967,66.86720891272824 1125.8931355257619,42.1005134570906 Z" fill="url(#leaf12)" opacity="0.36" transform="rotate(295.4 1125.9 91.6)"/>
    <path d="M 1845.360489719488,405.9382111141682 C 1900.802447053972,452.13984222623816 1919.2830994987999,516.8221257831361 1845.360489719488,590.7447355624481 C 1771.4378799401761,516.8221257831361 1789.918532385004,452.13984222623816 1845.360489719488,405.9382111141682 Z" fill="url(#leaf13)" opacity="0.34" transform="rotate(202.5 1845.4 498.3)"/>
    <path d="M 1112.6629981435922,490.0182246871732 C 1165.7110155955831,534.2249058971656 1183.39368807958,596.114259591155 1112.6629981435922,666.844949527143 C 1041.9323082076044,596.114259591155 1059.6149806916012,534.2249058971656 1112.6629981435922,490.0182246871732 Z" fill="url(#leaf14)" opacity="0.40" transform="rotate(3.7 1112.7 578.4)"/>
    <path d="M 1867.8793187711672,612.5957020088458 C 1898.1604143119193,637.8299482928061 1908.2541128255034,673.1578930903503 1867.8793187711672,713.5326871446866 C 1827.504524716831,673.1578930903503 1837.598223230415,637.8299482928061 1867.8793187711672,612.5957020088458 Z" fill="url(#leaf15)" opacity="0.34" transform="rotate(106.6 1867.9 663.1)"/>
    <path d="M 1296.869341835888,916.4956953411664 C 1343.1815313271106,955.089186583852 1358.618927824185,1009.1200743236118 1296.869341835888,1070.8696603119085 C 1235.119755847591,1009.1200743236118 1250.5571523446654,955.089186583852 1296.869341835888,916.4956953411664 Z" fill="url(#leaf16)" opacity="0.39" transform="rotate(78.8 1296.9 993.7)"/>
    <path d="M 1561.7091238824878,358.4320208663277 C 1611.8539963612147,400.2194145986002 1628.5689538541237,458.7217658237817 1561.7091238824878,525.5815957954178 C 1494.8492939108519,458.7217658237817 1511.5642514037609,400.2194145986002 1561.7091238824878,358.4320208663277 Z" fill="url(#leaf17)" opacity="0.26" transform="rotate(286.1 1561.7 442.0)"/>
    <path d="M 1495.5224071283164,543.0312226206927 C 1520.0465074400981,563.4679728805108 1528.2212075440254,592.0794232442563 1495.5224071283164,624.7782236599653 C 1462.8236067126074,592.0794232442563 1470.9983068165348,563.4679728805108 1495.5224071283164,543.0312226206927 Z" fill="url(#leaf18)" opacity="0.25" transform="rotate(318.6 1495.5 583.9)"/>
    <path d="M 1446.0046714235284,709.6333381090781 C 1473.0420221350905,732.1644637020464 1482.0544723722778,763.7080395322021 1446.0046714235284,799.7578404809515 C 1409.954870474779,763.7080395322021 1418.9673207119663,732.1644637020464 1446.0046714235284,709.6333381090781 Z" fill="url(#leaf19)" opacity="0.39" transform="rotate(256.4 1446.0 754.7)"/>
    <path d="M 1764.1758780833597,396.30408517031566 C 1812.3563022010867,436.45443860175476 1828.4164435736623,492.6649334057695 1764.1758780833597,556.905498896072 C 1699.9353125930572,492.6649334057695 1715.9954539656328,436.45443860175476 1764.1758780833597,396.30408517031566 Z" fill="url(#leaf0)" opacity="0.22" transform="rotate(85.2 1764.2 476.6)"/>
    <path d="M 1441.225576002647,5.085219519030893 C 1471.0583116803068,29.94583258374749 1481.0025569061934,64.75069087435072 1441.225576002647,104.52767177789727 C 1401.4485950991004,64.75069087435072 1411.392840324987,29.94583258374749 1441.225576002647,5.085219519030893 Z" fill="url(#leaf1)" opacity="0.35" transform="rotate(43.3 1441.2 54.8)"/>
    <path d="M 1081.281147819596,313.88687567074567 C 1116.1303293022027,342.9278602395845 1127.7467231297383,383.5852386359589 1081.281147819596,430.050813946101 C 1034.815572509454,383.5852386359589 1046.4319663369895,342.9278602395845 1081.281147819596,313.88687567074567 Z" fill="url(#leaf2)" opacity="0.31" transform="rotate(149.1 1081.3 372.0)"/>
    <path d="M 368.19489270210033,242.29266578355438 C 424.5053264702208,289.2180272569881 443.2754710595942,354.9135333197952 368.19489270210033,429.9941116772891 C 293.11431434460644,354.9135333197952 311.8844589339799,289.2180272569881 368.19489270210033,242.29266578355438 Z" fill="url(#leaf3)" opacity="0.29" transform="rotate(87.4 368.2 336.1)"/>
    <path d="M 99.7756107886462,667.422969470705 C 137.22346772226086,698.6295169153839 149.70608670013243,742.3186833379343 99.7756107886462,792.2491592494206 C 49.84513487715998,742.3186833379343 62.32775385503154,698.6295169153839 99.7756107886462,667.422969470705 Z" fill="url(#leaf4)" opacity="0.35" transform="rotate(295.7 99.8 729.8)"/>
    <path d="M 560.0582314058263,645.9481479546337 C 588.7226079076496,669.8351283728198 598.2774000749241,703.2769009582803 560.0582314058263,741.4960696273781 C 521.8390627367285,703.2769009582803 531.393854904003,669.8351283728198 560.0582314058263,645.9481479546337 Z" fill="url(#leaf5)" opacity="0.39" transform="rotate(200.1 560.1 693.7)"/>
    <path d="M 383.35953088636916,484.01093753896225 C 435.92222623316866,527.8131836612952 453.4431246821018,589.1363282325613 383.35953088636916,659.2199220282939 C 313.2759370906365,589.1363282325613 330.79683553956966,527.8131836612952 383.35953088636916,484.01093753896225 Z" fill="url(#leaf6)" opacity="0.36" transform="rotate(313.3 383.4 571.6)"/>
    <path d="M 1697.188554964414,323.6467717787356 C 1728.6694530109028,349.880853484143 1739.1630856930658,386.60856787171343 1697.188554964414,428.5830986003653 C 1655.214024235762,386.60856787171343 1665.707656917925,349.880853484143 1697.188554964414,323.6467717787356 Z" fill="url(#leaf7)" opacity="0.32" transform="rotate(245.8 1697.2 376.1)"/>
    <path d="M 248.6514689150414,876.730736862334 C 290.38751358145805,911.5107740843479 304.2995284702636,960.2028261951673 248.6514689150414,1015.8508857503896 C 193.0034093598192,960.2028261951673 206.91542424862473,911.5107740843479 248.6514689150414,876.730736862334 Z" fill="url(#leaf8)" opacity="0.34" transform="rotate(264.6 248.7 946.3)"/>
    <path d="M 1395.4212748629286,337.26223554611715 C 1426.84634779334,363.44979632146 1437.3213721034772,400.11238140693996 1395.4212748629286,442.0124786474885 C 1353.52117762238,400.11238140693996 1363.9962019325171,363.44979632146 1395.4212748629286,337.26223554611715 Z" fill="url(#leaf9)" opacity="0.39" transform="rotate(331.7 1395.4 389.6)"/>
    <path d="M 1085.909238184288,757.7869524729288 C 1120.574392576751,786.6745811333147 1132.1294440409056,827.1172612578553 1085.909238184288,873.3374671144729 C 1039.6890323276702,827.1172612578553 1051.2440837918248,786.6745811333147 1085.909238184288,757.7869524729288 Z" fill="url(#leaf10)" opacity="0.27" transform="rotate(311.6 1085.9 815.6)"/>
    <path d="M 440.81322407477194,187.591067576262 C 465.29004908244633,207.988421749324 473.44899075167115,236.54471759161083 440.81322407477194,269.18048426851004 C 408.17745739787273,236.54471759161083 416.33639906709755,207.988421749324 440.81322407477194,187.591067576262 Z" fill="url(#leaf11)" opacity="0.40" transform="rotate(348.5 440.8 228.4)"/>
    <path d="M 1444.1182850262767,937.0556209255785 C 1483.270973683868,969.6828614735714 1496.3218699030654,1015.3609982407614 1444.1182850262767,1067.56458311755 C 1391.914700149488,1015.3609982407614 1404.9655963686853,969.6828614735714 1444.1182850262767,937.0556209255785 Z" fill="url(#leaf12)" opacity="0.36" transform="rotate(191.9 1444.1 1002.3)"/>
    <path d="M 1722.7311008526442,-11.518233078552882 C 1781.7955810241363,37.70216706435711 1801.4837410813002,106.6107272644311 1722.7311008526442,185.36336749308708 C 1643.9784606239882,106.6107272644311 1663.6666206811522,37.70216706435711 1722.7311008526442,-11.518233078552882 Z" fill="url(#leaf13)" opacity="0.32" transform="rotate(222.9 1722.7 86.9)"/>
    <path d="M 1472.9197947465723,944.5481619720827 C 1506.0999051666897,972.1982539888472 1517.1599419733955,1010.9083828123175 1472.9197947465723,1055.1485300391407 C 1428.679647519749,1010.9083828123175 1439.7396843264548,972.1982539888472 1472.9197947465723,944.5481619720827 Z" fill="url(#leaf14)" opacity="0.29" transform="rotate(291.9 1472.9 999.8)"/>
    <path d="M 318.30504274896623,202.82463208456483 C 344.3348601538204,224.51614658860996 353.01146595543844,254.88426689427314 318.30504274896623,289.59069010074535 C 283.598619542494,254.88426689427314 292.2752253441121,224.51614658860996 318.30504274896623,202.82463208456483 Z" fill="url(#leaf15)" opacity="0.26" transform="rotate(6.8 318.3 246.2)"/>
    <path d="M 538.6643362923382,344.038345028889 C 581.0197293445431,379.33450590572636 595.1381936952779,428.7491311332986 538.6643362923382,485.2229885362383 C 482.19047888939855,428.7491311332986 496.3089432401335,379.33450590572636 538.6643362923382,344.038345028889 Z" fill="url(#leaf16)" opacity="0.33" transform="rotate(305.4 538.7 414.6)"/>
    <path d="M 720.1331202077198,883.7926127918239 C 750.6929294889602,909.2591205261909 760.879532582707,944.9122313543048 720.1331202077198,985.6586437292921 C 679.3867078327326,944.9122313543048 689.5733109264794,909.2591205261909 720.1331202077198,883.7926127918239 Z" fill="url(#leaf17)" opacity="0.34" transform="rotate(170.1 720.1 934.7)"/>
    <path d="M 1831.748385186184,501.75389690660404 C 1878.719980234893,540.8968927805282 1894.3771785844626,595.6970870040223 1831.748385186184,658.325880402301 C 1769.1195917879052,595.6970870040223 1784.7767901374748,540.8968927805282 1831.748385186184,501.75389690660404 Z" fill="url(#leaf18)" opacity="0.21" transform="rotate(246.7 1831.7 580.0)"/>
    <path d="M 1268.6019902867713,848.3009809151422 C 1318.1106735152582,889.5582169388812 1334.6135679247539,947.3183473721159 1268.6019902867713,1013.3299250100983 C 1202.5904126487887,947.3183473721159 1219.0933070582844,889.5582169388812 1268.6019902867713,848.3009809151422 Z" fill="url(#leaf19)" opacity="0.25" transform="rotate(153.3 1268.6 930.8)"/>
    <path d="M 1540.2085565702516,788.3925215863491 C 1583.7036216123518,824.6384091214326 1598.2019766263852,875.3826516705495 1540.2085565702516,933.3760717266831 C 1482.215136514118,875.3826516705495 1496.7134915281515,824.6384091214326 1540.2085565702516,788.3925215863491 Z" fill="url(#leaf0)" opacity="0.29" transform="rotate(190.8 1540.2 860.9)"/>
    <path d="M 739.6793395246441,385.0756552394161 C 783.8294661331698,421.86742741318756 798.5461750026784,473.3759084564675 739.6793395246441,532.2427439345017 C 680.8125040466098,473.3759084564675 695.5292129161184,421.86742741318756 739.6793395246441,385.0756552394161 Z" fill="url(#leaf1)" opacity="0.23" transform="rotate(140.5 739.7 458.7)"/>
    <path d="M 1343.659022350859,717.1920556541559 C 1386.191078032925,752.6354353892108 1400.3684299269469,802.2561670182877 1343.659022350859,858.9655745943755 C 1286.9496147747711,802.2561670182877 1301.126966668793,752.6354353892108 1343.659022350859,717.1920556541559 Z" fill="url(#leaf2)" opacity="0.21" transform="rotate(114.6 1343.7 788.1)"/>
    <path d="M 1580.1113998593785,141.03567200071475 C 1605.3871443311386,162.09879239384816 1613.8123924883919,191.5871609442349 1580.1113998593785,225.28815357324837 C 1546.410407230365,191.5871609442349 1554.8356553876183,162.09879239384816 1580.1113998593785,141.03567200071475 Z" fill="url(#leaf3)" opacity="0.39" transform="rotate(71.4 1580.1 183.2)"/>
    <path d="M 762.0629125179836,842.7512998598481 C 800.428261486934,874.7224240006402 813.2167111432509,919.4819977977492 762.0629125179836,970.6357964230165 C 710.9091138927163,919.4819977977492 723.6975635490331,874.7224240006402 762.0629125179836,842.7512998598481 Z" fill="url(#leaf4)" opacity="0.26" transform="rotate(211.3 762.1 906.7)"/>
    <path d="M 1335.7958842037553,822.8434833326853 C 1363.5490950148203,845.9711590085727 1372.8001652851754,878.3499049548152 1335.7958842037553,915.3541860362352 C 1298.7916031223353,878.3499049548152 1308.0426733926904,845.9711590085727 1335.7958842037553,822.8434833326853 Z" fill="url(#leaf5)" opacity="0.21" transform="rotate(325.2 1335.8 869.1)"/>
    <path d="M 983.6663204120732,227.20431276704548 C 1011.4329398515285,250.34316229992498 1020.6884796646804,282.7375516459563 983.6663204120732,319.7597108985634 C 946.6441611594661,282.7375516459563 955.8997009726179,250.34316229992498 983.6663204120732,227.20431276704548 Z" fill="url(#leaf6)" opacity="0.38" transform="rotate(108.6 983.7 273.5)"/>
    <path d="M 1585.1051573342795,610.4056562739819 C 1610.3720508376616,631.4614008601336 1618.7943486721222,660.939443280746 1585.1051573342795,694.6286346185888 C 1551.4159659964369,660.939443280746 1559.8382638308974,631.4614008601336 1585.1051573342795,610.4056562739819 Z" fill="url(#leaf7)" opacity="0.25" transform="rotate(114.5 1585.1 652.5)"/>
    <path d="M 1592.412645136843,449.98376084178136 C 1630.47969428747,481.70630180063733 1643.1687106710124,526.1178591430356 1592.412645136843,576.8739246772051 C 1541.6565796026734,526.1178591430356 1554.3455959862158,481.70630180063733 1592.412645136843,449.98376084178136 Z" fill="url(#leaf8)" opacity="0.39" transform="rotate(186.7 1592.4 513.4)"/>
    <path d="M 461.75707291336306,763.8920731121923 C 485.98577608993884,784.0826590926721 494.06201048213075,812.3494794653438 461.75707291336306,844.6544170341115 C 429.4521353445954,812.3494794653438 437.5283697367873,784.0826590926721 461.75707291336306,763.8920731121923 Z" fill="url(#leaf9)" opacity="0.24" transform="rotate(277.9 461.8 804.3)"/>
    <path d="M 1062.4980350003239,633.7752978557133 C 1099.8427377198968,664.8958834553574 1112.2909719597544,708.4647032948591 1062.4980350003239,758.2576402542896 C 1012.7050980408933,708.4647032948591 1025.1533322807509,664.8958834553574 1062.4980350003239,633.7752978557133 Z" fill="url(#leaf10)" opacity="0.31" transform="rotate(115.9 1062.5 696.0)"/>
    <path d="M 1668.7792293485631,253.26542672613152 C 1715.853777235299,292.49421663174485 1731.5452931975444,347.4145224996035 1668.7792293485631,410.1805863485848 C 1606.0131654995819,347.4145224996035 1621.7046814618272,292.49421663174485 1668.7792293485631,253.26542672613152 Z" fill="url(#leaf11)" opacity="0.31" transform="rotate(333.9 1668.8 331.7)"/>
    <path d="M 1384.4811539501625,504.26100615403357 C 1408.5447913719036,524.3140373388179 1416.5660038458172,552.3882809975158 1384.4811539501625,584.4731308931707 C 1352.3963040545077,552.3882809975158 1360.4175165284214,524.3140373388179 1384.4811539501625,504.26100615403357 Z" fill="url(#leaf12)" opacity="0.21" transform="rotate(174.1 1384.5 544.4)"/>
    <path d="M 1122.29730707917,364.9212783002419 C 1151.4346548868632,389.20240147331964 1161.1471041560944,423.1959739156285 1122.29730707917,462.04577099255283 C 1083.4475100022455,423.1959739156285 1093.1599592714767,389.20240147331964 1122.29730707917,364.9212783002419 Z" fill="url(#leaf13)" opacity="0.32" transform="rotate(169.9 1122.3 413.5)"/>
    <path d="M 1388.8994112022137,463.20234666223615 C 1431.2709293530643,498.51194512127825 1445.394768736681,547.9453829639373 1388.8994112022137,604.4407404984047 C 1332.4040536677464,547.9453829639373 1346.5278930513632,498.51194512127825 1388.8994112022137,463.20234666223615 Z" fill="url(#leaf14)" opacity="0.22" transform="rotate(163.7 1388.9 533.8)"/>
    <path d="M 349.72562380909727,36.79186171194357 C 392.54026094395147,72.47072599098873 406.8118066555695,122.42113598165194 349.72562380909727,179.5073188281242 C 292.63944096262503,122.42113598165194 306.9109866742431,72.47072599098873 349.72562380909727,36.79186171194357 Z" fill="url(#leaf15)" opacity="0.38" transform="rotate(313.6 349.7 108.1)"/>
    <path d="M 235.0361613452677,378.08152029938606 C 273.0824912702767,409.78679523689357 285.7646012452797,454.1741801494041 235.0361613452677,504.9026200494161 C 184.30772144525565,454.1741801494041 196.98983142025867,409.78679523689357 235.0361613452677,378.08152029938606 Z" fill="url(#leaf16)" opacity="0.36" transform="rotate(12.4 235.0 441.5)"/>
    <path d="M 1869.017031440082,838.2287963310755 C 1897.0759207382175,861.6112040795218 1906.428883837596,894.3465749273465 1869.017031440082,931.7584273248606 C 1831.6051790425681,894.3465749273465 1840.9581421419466,861.6112040795218 1869.017031440082,838.2287963310755 Z" fill="url(#leaf17)" opacity="0.38" transform="rotate(126.5 1869.0 885.0)"/>
    <path d="M 411.5917180213666,412.2721106268741 C 467.7756432812492,459.0920483434429 486.50361836787675,524.6399611466393 411.5917180213666,599.5518614931494 C 336.67981767485645,524.6399611466393 355.407792761484,459.0920483434429 411.5917180213666,412.2721106268741 Z" fill="url(#leaf18)" opacity="0.31" transform="rotate(321.3 411.6 505.9)"/>
    <path d="M 1619.1348087954543,645.0109036354837 C 1658.4474802031716,677.7714631419148 1671.5517040057439,723.6362464509182 1619.1348087954543,776.0531416612079 C 1566.7179135851648,723.6362464509182 1579.822137387737,677.7714631419148 1619.1348087954543,645.0109036354837 Z" fill="url(#leaf19)" opacity="0.24" transform="rotate(322.8 1619.1 710.5)"/>
    <path d="M 1238.5050102204104,729.4054235522369 C 1293.667152432385,775.3738753955491 1312.0545331697099,839.7297079761861 1238.5050102204104,913.2792309254855 C 1164.955487271111,839.7297079761861 1183.342868008436,775.3738753955491 1238.5050102204104,729.4054235522369 Z" fill="url(#leaf0)" opacity="0.29" transform="rotate(330.1 1238.5 821.3)"/>
    <path d="M 367.22449667391163,276.13873579815487 C 426.133444128738,325.22952534384353 445.7697599470135,393.9566307078077 367.22449667391163,472.50189398090953 C 288.6792334008098,393.9566307078077 308.31554921908526,325.22952534384353 367.22449667391163,276.13873579815487 Z" fill="url(#leaf1)" opacity="0.32" transform="rotate(314.4 367.2 374.3)"/>
    <path d="M 1780.9927154933393,908.1660317270542 C 1814.4311615483387,936.0314034395536 1825.5773102333385,975.0429238370529 1780.9927154933393,1019.627518577052 C 1736.4081207533402,975.0429238370529 1747.55426943834,936.0314034395536 1780.9927154933393,908.1660317270542 Z" fill="url(#leaf2)" opacity="0.34" transform="rotate(280.1 1781.0 963.9)"/>
    <path d="M 613.0911149265422,876.1636195420389 C 655.2313193179333,911.2804565348648 669.2780541150636,960.444028324821 613.0911149265422,1016.6309675133424 C 556.9041757380209,960.444028324821 570.9509105351511,911.2804565348648 613.0911149265422,876.1636195420389 Z" fill="url(#leaf3)" opacity="0.29" transform="rotate(15.8 613.1 946.4)"/>
    <path d="M 363.5338591630779,459.5283360850829 C 394.91940844118807,485.68296048350805 405.3812582005581,522.2994346413032 363.5338591630779,564.1468336787833 C 321.68646012559776,522.2994346413032 332.1483098849678,485.68296048350805 363.5338591630779,459.5283360850829 Z" fill="url(#leaf4)" opacity="0.20" transform="rotate(3.5 363.5 511.8)"/>
    <path d="M 993.0610495526468,442.2902279714475 C 1052.4100544398596,491.7477320441249 1072.1930560689307,560.9882377458733 993.0610495526468,640.1202442621571 C 913.9290430363628,560.9882377458733 933.7120446654338,491.7477320441249 993.0610495526468,442.2902279714475 Z" fill="url(#leaf5)" opacity="0.33" transform="rotate(98.3 993.1 541.2)"/>
    <path d="M 1841.30794844125,824.1113701095426 C 1875.7276964689515,852.7944934659606 1887.2009458115187,892.9508661649458 1841.30794844125,938.8438635352145 C 1795.414951070981,892.9508661649458 1806.8882004135482,852.7944934659606 1841.30794844125,824.1113701095426 Z" fill="url(#leaf6)" opacity="0.33" transform="rotate(184.6 1841.3 881.5)"/>
    <path d="M 420.9192549367218,244.59886128675532 C 458.3984511638325,275.8315248093475 470.89151657286936,319.55725374097665 420.9192549367218,369.5295153771242 C 370.94699330057426,319.55725374097665 383.44005870961115,275.8315248093475 420.9192549367218,244.59886128675532 Z" fill="url(#leaf7)" opacity="0.28" transform="rotate(51.7 420.9 307.1)"/>
    <path d="M 957.9904271263398,844.2675183120396 C 991.4893104603469,872.1832544237121 1002.6556049050159,911.2652849800537 957.9904271263398,955.9304627587298 C 913.3252493476637,911.2652849800537 924.4915437923327,872.1832544237121 957.9904271263398,844.2675183120396 Z" fill="url(#leaf8)" opacity="0.30" transform="rotate(176.7 958.0 900.1)"/>
    <path d="M 485.6325216651638,600.5056373951373 C 520.3825809932504,629.4640201685429 531.9659341026126,670.0057560513105 485.6325216651638,716.3391684887594 C 439.299109227715,670.0057560513105 450.8824623370772,629.4640201685429 485.6325216651638,600.5056373951373 Z" fill="url(#leaf9)" opacity="0.32" transform="rotate(263.5 485.6 658.4)"/>
    <path d="M 241.07291662612067,203.51265089298988 C 288.20570667796034,242.7899759361896 303.9166366952402,297.7782309966692 241.07291662612067,360.6219510657887 C 178.22919655700113,297.7782309966692 193.940126574281,242.7899759361896 241.07291662612067,203.51265089298988 Z" fill="url(#leaf10)" opacity="0.24" transform="rotate(160.7 241.1 282.1)"/>
    <path d="M 242.7683147545454,858.2457195580503 C 301.11499382358005,906.8679521155792 320.5638868465916,974.9390776961196 242.7683147545454,1052.7346497881658 C 164.97274266249923,974.9390776961196 184.42163568551078,906.8679521155792 242.7683147545454,858.2457195580503 Z" fill="url(#leaf11)" opacity="0.38" transform="rotate(45.3 242.8 955.5)"/>
    <path d="M 1429.6245979011258,96.20179756544331 C 1462.4841664763394,123.58477137812139 1473.4373560014108,161.9209347158707 1429.6245979011258,205.7336928161556 C 1385.8118398008407,161.9209347158707 1396.765029325912,123.58477137812139 1429.6245979011258,96.20179756544331 Z" fill="url(#leaf12)" opacity="0.22" transform="rotate(229.8 1429.6 151.0)"/>
    <path d="M 696.3126681485691,457.47567826876394 C 738.7924640247946,492.87550816561867 752.9523959835366,542.4352700212152 696.3126681485691,599.0749978561827 C 639.6729403136015,542.4352700212152 653.8328722723435,492.87550816561867 696.3126681485691,457.47567826876394 Z" fill="url(#leaf13)" opacity="0.27" transform="rotate(280.7 696.3 528.3)"/>
    <path d="M 782.4399579542857,390.7075172997129 C 832.3186268787267,432.2730747367471 848.9448498535403,490.46485514859495 782.4399579542857,556.9697470478496 C 715.935066055031,490.46485514859495 732.5612890298446,432.2730747367471 782.4399579542857,390.7075172997129 Z" fill="url(#leaf14)" opacity="0.31" transform="rotate(115.4 782.4 473.8)"/>
    <path d="M 1014.3638059882608,5.813497767814653 C 1064.0868094227446,47.249333963217794 1080.6611439009057,105.2595046367822 1014.3638059882608,171.55684254942722 C 948.0664680756157,105.2595046367822 964.640802553777,47.249333963217794 1014.3638059882608,5.813497767814653 Z" fill="url(#leaf15)" opacity="0.22" transform="rotate(147.5 1014.4 88.7)"/>
    <path d="M 130.5465696349553,604.8163839816738 C 187.29672599047473,652.1081809446067 206.2134447756479,718.3166966927128 130.5465696349553,793.9835718334053 C 54.87969449426268,718.3166966927128 73.79641327943584,652.1081809446067 130.5465696349553,604.8163839816738 Z" fill="url(#leaf16)" opacity="0.37" transform="rotate(233.9 130.5 699.4)"/>
    <path d="M 1276.586197967887,858.7992772765439 C 1328.013647225784,901.6554849914579 1345.1561303117496,961.6541757923377 1276.586197967887,1030.2241081362004 C 1208.0162656240245,961.6541757923377 1225.15874870999,901.6554849914579 1276.586197967887,858.7992772765439 Z" fill="url(#leaf17)" opacity="0.36" transform="rotate(159.7 1276.6 944.5)"/>
    <path d="M 177.86227473365267,506.6572674075515 C 217.74224881472676,539.8905791417799 231.03557350841814,586.4172155696997 177.86227473365267,639.5905143444652 C 124.6889759588872,586.4172155696997 137.98230065257857,539.8905791417799 177.86227473365267,506.6572674075515 Z" fill="url(#leaf18)" opacity="0.21" transform="rotate(191.7 177.9 573.1)"/>
    <path d="M 994.4211069916264,442.46643217214114 C 1036.4860552960874,477.520555759192 1050.5077047309078,526.5963287810632 994.4211069916264,582.6829265203446 C 938.334509252345,526.5963287810632 952.3561586871654,477.520555759192 994.4211069916264,442.46643217214114 Z" fill="url(#leaf19)" opacity="0.22" transform="rotate(307.2 994.4 512.6)"/>
    <path d="M 878.3886965453217,26.428073138410582 C 932.4021396358698,71.43927571386732 950.4066206660525,134.45495931950674 878.3886965453217,206.4728834402375 C 806.370772424591,134.45495931950674 824.3752534547737,71.43927571386732 878.3886965453217,26.428073138410582 Z" fill="url(#leaf0)" opacity="0.37" transform="rotate(138.9 878.4 116.5)"/>
    <path d="M 1749.4657711642,787.1993197689833 C 1779.6563949433944,812.3581729183118 1789.7199362031258,847.5805673273718 1749.4657711642,887.8347323662974 C 1709.2116061252743,847.5805673273718 1719.2751473850058,812.3581729183118 1749.4657711642,787.1993197689833 Z" fill="url(#leaf1)" opacity="0.20" transform="rotate(150.3 1749.5 837.5)"/>
    <path d="M 147.39239157590396,847.0331777655393 C 200.88237720187746,891.6081657871839 218.7123724105353,954.0131490174863 147.39239157590396,1025.3331298521177 C 76.07241074127262,954.0131490174863 93.90240594993045,891.6081657871839 147.39239157590396,847.0331777655393 Z" fill="url(#leaf2)" opacity="0.33" transform="rotate(58.9 147.4 936.2)"/>
    <path d="M 619.1248984467311,680.6023205264127 C 666.3953490454235,719.9943626919895 682.1521659116542,775.1432217237973 619.1248984467311,838.1704891887204 C 556.097630981808,775.1432217237973 571.8544478480387,719.9943626919895 619.1248984467311,680.6023205264127 Z" fill="url(#leaf3)" opacity="0.28" transform="rotate(221.3 619.1 759.4)"/>
    <path d="M 1020.6967127463333,841.0547947152262 C 1046.258977420931,862.3566819440575 1054.7797323124635,892.1793240644214 1020.6967127463333,926.2623436305515 C 986.6136931802032,892.1793240644214 995.1344480717357,862.3566819440575 1020.6967127463333,841.0547947152262 Z" fill="url(#leaf4)" opacity="0.37" transform="rotate(158.2 1020.7 883.7)"/>
    <path d="M 741.2342395572138,726.6152986469388 C 797.9552788763879,773.8828314129171 816.8622919827792,840.0573772852869 741.2342395572138,915.6854297108523 C 665.6061871316483,840.0573772852869 684.5132002380396,773.8828314129171 741.2342395572138,726.6152986469388 Z" fill="url(#leaf5)" opacity="0.34" transform="rotate(237.7 741.2 821.2)"/>
    <path d="M 1491.0603280461353,26.6986684783771 C 1519.8859168617587,50.719992491396695 1529.4944464669666,84.34984610962412 1491.0603280461353,122.78396453045548 C 1452.626209625304,84.34984610962412 1462.2347392305119,50.719992491396695 1491.0603280461353,26.6986684783771 Z" fill="url(#leaf6)" opacity="0.36" transform="rotate(23.4 1491.1 74.7)"/>
    <path d="M 1807.5239318388892,151.74117043985015 C 1865.734143129388,200.24967984859924 1885.1375468928877,268.161593020848 1807.5239318388892,345.77520807484655 C 1729.9103167848907,268.161593020848 1749.3137205483904,200.24967984859924 1807.5239318388892,151.74117043985015 Z" fill="url(#leaf7)" opacity="0.33" transform="rotate(87.6 1807.5 248.8)"/>
    <path d="M 1061.98234659458,642.1823922656441 C 1121.9379009307318,692.1453542124375 1141.9230857094492,762.0935009379481 1061.98234659458,842.0342400528174 C 982.0416074797106,762.0935009379481 1002.0267922584279,692.1453542124375 1061.98234659458,642.1823922656441 Z" fill="url(#leaf8)" opacity="0.30" transform="rotate(174.4 1062.0 742.1)"/>
    <path d="M 1607.5630896472699,113.22915351486732 C 1639.5921888737664,139.92006953694775 1650.2685552825985,177.28735196786033 1607.5630896472699,219.992817603189 C 1564.8576240119412,177.28735196786033 1575.5339904207733,139.92006953694775 1607.5630896472699,113.22915351486732 Z" fill="url(#leaf9)" opacity="0.24" transform="rotate(135.8 1607.6 166.6)"/>
    <path d="M 1544.590156853865,216.44085353274855 C 1583.4779719229252,248.8473660902988 1596.4405769459454,294.2164836708692 1544.590156853865,346.06690376294966 C 1492.7397367617846,294.2164836708692 1505.7023417848047,248.8473660902988 1544.590156853865,216.44085353274855 Z" fill="url(#leaf10)" opacity="0.25" transform="rotate(299.1 1544.6 281.3)"/>
    <path d="M 766.0262225602853,549.3423239465973 C 803.8976866733137,580.9018773741209 816.5215080443231,625.0852521726541 766.0262225602853,675.580537656692 C 715.5309370762475,625.0852521726541 728.1547584472569,580.9018773741209 766.0262225602853,549.3423239465973 Z" fill="url(#leaf11)" opacity="0.32" transform="rotate(236.2 766.0 612.5)"/>
    <path d="M 786.4546551445652,674.4084023006375 C 832.6199073671431,712.8794458194525 848.0083247746691,766.7389067457933 786.4546551445652,828.2925763758973 C 724.9009855144614,766.7389067457933 740.2894029219873,712.8794458194525 786.4546551445652,674.4084023006375 Z" fill="url(#leaf12)" opacity="0.31" transform="rotate(179.7 786.5 751.4)"/>
    <path d="M 815.9288960821575,435.1758870408065 C 861.4395245595801,473.101410771992 876.6097340520543,526.1971439956517 815.9288960821575,586.8779819655484 C 755.2480581122608,526.1971439956517 770.4182676047349,473.101410771992 815.9288960821575,435.1758870408065 Z" fill="url(#leaf13)" opacity="0.30" transform="rotate(273.0 815.9 511.0)"/>
    <path d="M 806.7407327351495,767.5094004028163 C 836.4323835939382,792.25244278514 846.3296005468677,826.8927021203934 806.7407327351495,866.4815699321116 C 767.1518649234314,826.8927021203934 777.0490818763609,792.25244278514 806.7407327351495,767.5094004028163 Z" fill="url(#leaf14)" opacity="0.35" transform="rotate(200.9 806.7 817.0)"/>
    <path d="M 1000.9707087970413,646.2670278322187 C 1047.8426946815396,685.3270160693005 1063.4666899763722,740.0109996012151 1000.9707087970413,802.506980780546 C 938.4747276177104,740.0109996012151 954.0987229125432,685.3270160693005 1000.9707087970413,646.2670278322187 Z" fill="url(#leaf15)" opacity="0.20" transform="rotate(209.9 1001.0 724.4)"/>
    <path d="M 1264.6597745650581,306.4667285067219 C 1323.7918399520975,355.7434496625881 1343.502528414444,424.7308592808007 1264.6597745650581,503.5736131301866 C 1185.8170207156722,424.7308592808007 1205.5277091780188,355.7434496625881 1264.6597745650581,306.4667285067219 Z" fill="url(#leaf16)" opacity="0.32" transform="rotate(333.8 1264.7 405.0)"/>
    <path d="M 805.4526353155918,358.48899164792874 C 859.2039925747877,403.28178936392527 877.1211116611863,465.99170616632045 805.4526353155918,537.660182511915 C 733.7841589699973,465.99170616632045 751.701278056396,403.28178936392527 805.4526353155918,358.48899164792874 Z" fill="url(#leaf17)" opacity="0.38" transform="rotate(314.8 805.5 448.1)"/>
    <path d="M 907.8458416967444,758.6299339290822 C 950.7159467732456,794.3550214928332 965.005981798746,844.3701440820846 907.8458416967444,901.5302841840862 C 850.6857015947428,844.3701440820846 864.9757366202432,794.3550214928332 907.8458416967444,758.6299339290822 Z" fill="url(#leaf18)" opacity="0.35" transform="rotate(42.4 907.8 830.1)"/>
    <path d="M 167.77978605065175,283.06722803751177 C 215.9007812482609,323.16805736885277 231.9411129807973,379.3092184327301 167.77978605065175,443.47054536287567 C 103.6184591205062,379.3092184327301 119.65879085304259,323.16805736885277 167.77978605065175,283.06722803751177 Z" fill="url(#leaf19)" opacity="0.35" transform="rotate(115.3 167.8 363.3)"/>
    <path d="M 717.6844908486971,454.61113471089175 C 747.4323779229494,479.401040606102 757.3483402810335,514.1069088593964 717.6844908486971,553.7707582917328 C 678.0206414163607,514.1069088593964 687.9366037744448,479.401040606102 717.6844908486971,454.61113471089175 Z" fill="url(#leaf0)" opacity="0.24" transform="rotate(354.5 717.7 504.2)"/>
    <path d="M 976.8636482697492,865.7377790479993 C 1003.5937357558139,888.0128519530532 1012.5037649178354,919.1979540201287 976.8636482697492,954.8380706682149 C 941.223531621663,919.1979540201287 950.1335607836845,888.0128519530532 976.8636482697492,865.7377790479993 Z" fill="url(#leaf1)" opacity="0.33" transform="rotate(110.4 976.9 910.3)"/>
    <path d="M 325.07589420348944,377.91514022129473 C 351.7432544639699,400.1379404383618 360.6323745507967,431.2498607422557 325.07589420348944,466.806341089563 C 289.51941385618215,431.2498607422557 298.408533943009,400.1379404383618 325.07589420348944,377.91514022129473 Z" fill="url(#leaf2)" opacity="0.30" transform="rotate(108.6 325.1 422.4)"/>
    <path d="M 1690.434562411942,947.7335268775082 C 1716.2548300399183,969.2504165674886 1724.8615859159106,999.3740621334612 1690.434562411942,1033.8010856374299 C 1656.0075389079732,999.3740621334612 1664.6142947839655,969.2504165674886 1690.434562411942,947.7335268775082 Z" fill="url(#leaf3)" opacity="0.34" transform="rotate(87.0 1690.4 990.8)"/>
    <path d="M 80.17439677878176,833.0355370542413 C 105.4821666170921,854.1253452528332 113.91808989652888,883.651076730862 80.17439677878176,917.394769848609 C 46.43070366103463,883.651076730862 54.86662694047141,854.1253452528332 80.17439677878176,833.0355370542413 Z" fill="url(#leaf4)" opacity="0.25" transform="rotate(164.4 80.2 875.2)"/>
    <path d="M 172.52798191924538,241.70496807253164 C 208.1624315532066,271.4003427674993 220.0405814311937,312.9738673404541 172.52798191924538,360.4864668524024 C 125.01538240729708,312.9738673404541 136.89353228528415,271.4003427674993 172.52798191924538,241.70496807253164 Z" fill="url(#leaf5)" opacity="0.33" transform="rotate(274.4 172.5 301.1)"/>
    <path d="M 1223.2885768874105,143.6837154795215 C 1253.9795903246322,169.25956001053967 1264.2099281370397,205.06574235396513 1223.2885768874105,245.98709360359422 C 1182.3672256377813,205.06574235396513 1192.5975634501888,169.25956001053967 1223.2885768874105,143.6837154795215 Z" fill="url(#leaf6)" opacity="0.31" transform="rotate(351.6 1223.3 194.8)"/>
    <path d="M 585.2166231742068,1.9603347348631246 C 642.4684654881622,49.670203329825966 661.5524129261473,116.46401936277394 585.2166231742068,192.7998091147145 C 508.8808334222663,116.46401936277394 527.9647808602514,49.670203329825966 585.2166231742068,1.9603347348631246 Z" fill="url(#leaf7)" opacity="0.32" transform="rotate(350.1 585.2 97.4)"/>
    <path d="M 623.9164268380126,-28.50228664765848 C 681.404820796013,19.4047083173419 700.5676187820133,86.47450126834244 623.9164268380126,163.12569321234304 C 547.265234894012,86.47450126834244 566.4280328800122,19.4047083173419 623.9164268380126,-28.50228664765848 Z" fill="url(#leaf8)" opacity="0.31" transform="rotate(0.5 623.9 67.3)"/>
    <path d="M 1109.7794058049308,646.4354588877833 C 1159.7496582881881,688.0773359571645 1176.4064091159407,746.3759638542981 1109.7794058049308,813.002967165308 C 1043.1524024939208,746.3759638542981 1059.8091533216734,688.0773359571645 1109.7794058049308,646.4354588877833 Z" fill="url(#leaf9)" opacity="0.32" transform="rotate(131.5 1109.8 729.7)"/>
    <path d="M 1812.4323364542145,741.902718978763 C 1837.0775855244983,762.4404265373329 1845.2926685479265,791.1932171193308 1812.4323364542145,824.0535492130427 C 1779.5720043605024,791.1932171193308 1787.7870873839306,762.4404265373329 1812.4323364542145,741.902718978763 Z" fill="url(#leaf10)" opacity="0.24" transform="rotate(165.8 1812.4 783.0)"/>
    <path d="M 789.9097644770358,728.039229273857 C 827.9531860902625,759.7420806182126 840.6343266280047,804.1260725003106 789.9097644770358,854.8506346512795 C 739.1852023260668,804.1260725003106 751.866342863809,759.7420806182126 789.9097644770358,728.039229273857 Z" fill="url(#leaf11)" opacity="0.27" transform="rotate(145.9 789.9 791.4)"/>
    <path d="M 309.04041178112567,194.62255380533284 C 345.9585558999047,225.38767390431536 358.26460393949776,268.4588420428909 309.04041178112567,317.683034201263 C 259.8162196227536,268.4588420428909 272.12226766234664,225.38767390431536 309.04041178112567,194.62255380533284 Z" fill="url(#leaf12)" opacity="0.33" transform="rotate(71.2 309.0 256.2)"/>
    <path d="M 276.5916710758819,744.4572646448892 C 328.8105013387663,787.9729565306261 346.21677809306107,848.894925170658 276.5916710758819,918.5200321878372 C 206.9665640587027,848.894925170658 224.37284081299748,787.9729565306261 276.5916710758819,744.4572646448892 Z" fill="url(#leaf13)" opacity="0.21" transform="rotate(138.2 276.6 831.5)"/>
    <path d="M 1217.7479383657403,577.3530111173689 C 1266.6354648066645,618.0926164848056 1282.931306953639,675.128063999217 1217.7479383657403,740.3114325871159 C 1152.5645697778416,675.128063999217 1168.8604119248162,618.0926164848056 1217.7479383657403,577.3530111173689 Z" fill="url(#leaf14)" opacity="0.34" transform="rotate(133.4 1217.7 658.8)"/>
    <path d="M 1451.912594832137,14.035741742540893 C 1504.177867512178,57.59013564257489 1521.5996250721914,118.5662871026225 1451.912594832137,188.2533173426769 C 1382.2255645920827,118.5662871026225 1399.6473221520962,57.59013564257489 1451.912594832137,14.035741742540893 Z" fill="url(#leaf15)" opacity="0.36" transform="rotate(212.7 1451.9 101.1)"/>
    <path d="M 648.8118479539013,98.28256143117243 C 691.8875202087678,134.17895497689454 706.2460776270567,184.4339059409055 648.8118479539013,241.86813561406086 C 591.3776182807459,184.4339059409055 605.7361756990348,134.17895497689454 648.8118479539013,98.28256143117243 Z" fill="url(#leaf16)" opacity="0.34" transform="rotate(139.7 648.8 170.1)"/>
    <path d="M 295.57531147527175,402.6063937110074 C 346.8335250455505,445.32157168623974 363.91959623564344,505.12282085156494 295.57531147527175,573.4671056119366 C 227.23102671490005,505.12282085156494 244.31709790499298,445.32157168623974 295.57531147527175,402.6063937110074 Z" fill="url(#leaf17)" opacity="0.29" transform="rotate(49.1 295.6 488.0)"/>
    <path d="M 137.0507586518062,91.800722081717 C 173.86396571076548,122.47839463084973 186.1350347304186,165.42713619963556 137.0507586518062,214.51141227824795 C 87.96648257319382,165.42713619963556 100.23755159284693,122.47839463084973 137.0507586518062,91.800722081717 Z" fill="url(#leaf18)" opacity="0.25" transform="rotate(71.8 137.1 153.2)"/>
    <path d="M 1648.5642433389057,96.95462838023428 C 1675.107386627931,119.0739144544219 1683.9551010576058,150.04091495828456 1648.5642433389057,185.43177267698474 C 1613.1733856202056,150.04091495828456 1622.0211000498805,119.0739144544219 1648.5642433389057,96.95462838023428 Z" fill="url(#leaf19)" opacity="0.26" transform="rotate(110.2 1648.6 141.2)"/>
    <path d="M 1792.0100184536261,718.7040891535735 C 1831.8157102136345,751.8754989535805 1845.0842741336373,798.3154726735902 1792.0100184536261,851.3897283536014 C 1738.935762773615,798.3154726735902 1752.2043266936178,751.8754989535805 1792.0100184536261,718.7040891535735 Z" fill="url(#leaf0)" opacity="0.31" transform="rotate(52.3 1792.0 785.0)"/>
    <path d="M 1565.0915162390581,713.9029427151407 C 1624.4566406953118,763.3738797620188 1644.245015514063,832.6331916276479 1565.0915162390581,911.7866909026526 C 1485.9380169640533,832.6331916276479 1505.7263917828045,763.3738797620188 1565.0915162390581,713.9029427151407 Z" fill="url(#leaf1)" opacity="0.20" transform="rotate(251.4 1565.1 812.8)"/>
    <path d="M 1569.3374504228643,76.38070567706312 C 1596.5609208134533,99.06693100255393 1605.6354109436495,130.82764645824105 1569.3374504228643,167.12560697902632 C 1533.0394899020791,130.82764645824105 1542.1139800322753,99.06693100255393 1569.3374504228643,76.38070567706312 Z" fill="url(#leaf2)" opacity="0.21" transform="rotate(102.3 1569.3 121.8)"/>
    <path d="M 170.52552219147245,514.4151394005995 C 198.3203109156144,537.5774633373844 207.5852404903284,570.0047168488834 170.52552219147245,607.0644351477393 C 133.4658038926165,570.0047168488834 142.73073346733048,537.5774633373844 170.52552219147245,514.4151394005995 Z" fill="url(#leaf3)" opacity="0.24" transform="rotate(115.8 170.5 560.7)"/>
    <path d="M 1665.5065577570958,334.4051439449451 C 1699.325026633629,362.58720134205606 1710.5978495924735,402.0420816980115 1665.5065577570958,447.13337353338903 C 1620.4152659217182,402.0420816980115 1631.6880888805626,362.58720134205606 1665.5065577570958,334.4051439449451 Z" fill="url(#leaf4)" opacity="0.40" transform="rotate(103.9 1665.5 390.8)"/>
    <path d="M 892.8969312059005,221.26055640319686 C 922.1254213667347,245.61763153722532 931.868251420346,279.71753672486517 892.8969312059005,318.6888569393107 C 853.925610991455,279.71753672486517 863.6684410450663,245.61763153722532 892.8969312059005,221.26055640319686 Z" fill="url(#leaf5)" opacity="0.22" transform="rotate(8.1 892.9 270.0)"/>
    <path d="M 1327.7054321681405,615.5577772521126 C 1352.7466195954448,636.425433441533 1361.0936820712132,665.6401521067214 1327.7054321681405,699.028402009794 C 1294.317182265068,665.6401521067214 1302.6642447408362,636.425433441533 1327.7054321681405,615.5577772521126 Z" fill="url(#leaf6)" opacity="0.26" transform="rotate(59.9 1327.7 657.3)"/>
    <path d="M 529.299443947316,-31.66262377296659 C 582.7456030050497,12.875842108478125 600.5609893576276,75.22969434250072 529.299443947316,146.49123975281228 C 458.0378985370045,75.22969434250072 475.85328488958237,12.875842108478125 529.299443947316,-31.66262377296659 Z" fill="url(#leaf7)" opacity="0.35" transform="rotate(336.0 529.3 57.4)"/>
    <path d="M 1283.166020406963,839.7987809069247 C 1310.3396034135644,862.4434334124257 1319.397464415765,894.1459469201274 1283.166020406963,930.3773909289292 C 1246.9345763981612,894.1459469201274 1255.9924374003617,862.4434334124257 1283.166020406963,839.7987809069247 Z" fill="url(#leaf8)" opacity="0.28" transform="rotate(239.6 1283.2 885.1)"/>
    <path d="M 1750.9805803197507,668.6582186187062 C 1810.2591483290703,718.0570252931391 1830.0186709988434,787.2153546373453 1750.9805803197507,866.2534453164379 C 1671.942489640658,787.2153546373453 1691.7020123104312,718.0570252931391 1750.9805803197507,668.6582186187062 Z" fill="url(#leaf9)" opacity="0.25" transform="rotate(288.9 1751.0 767.5)"/>
    <path d="M 230.03896771825333,549.7310845503175 C 283.9591070464402,594.6645339904733 301.9324868225025,657.5713632066912 230.03896771825333,729.4648823109403 C 158.1454486140042,657.5713632066912 176.11882839006648,594.6645339904733 230.03896771825333,549.7310845503175 Z" fill="url(#leaf10)" opacity="0.20" transform="rotate(28.9 230.0 639.6)"/>
    <path d="M 101.74762133179274,305.592531310745 C 155.0569589345428,350.0169793130367 172.8267381354595,412.2112065162451 101.74762133179274,483.29032331991186 C 30.668504528126007,412.2112065162451 48.43828372904269,350.0169793130367 101.74762133179274,305.592531310745 Z" fill="url(#leaf11)" opacity="0.35" transform="rotate(73.2 101.7 394.4)"/>
  </g>

  <!-- Central star shape -->
  <polygon points="960.0,285.2 1034.9,436.9 1202.4,461.3 1081.2,579.4 1109.8,746.2 960.0,667.4 810.2,746.2 838.8,579.4 717.6,461.3 885.1,436.9" 
           fill="#FF4500" 
           transform="rotate(267.1 960.0 540.0)"/>
</svg>