<?xml version="1.0" encoding="UTF-8"?>
<svg xmlns="http://www.w3.org/2000/svg" viewBox="0 0 1920 1080" width="1920" height="1080">
  <defs>
    <linearGradient id="bgGrad" x1="0%" y1="0%" x2="100%" y2="100%">
      <stop offset="0%" stop-color="#FFD700"/>
      <stop offset="100%" stop-color="#9370DB"/>
    </linearGradient>
    <clipPath id="complexClip"><polygon points="1522.9,540.0 1583.0,584.3 1397.5,603.2 1389.4,635.6 1417.3,681.4 1462.2,745.2 1403.1,774.1 1274.1,753.6 1234.1,783.0 1198.4,825.0 1105.1,791.1 1057.9,828.6 997.2,872.1 925.6,848.0 842.4,886.8 791.9,831.1 675.3,880.4 635.2,827.9 695.7,719.7 477.3,795.0 422.1,759.8 381.5,718.9 536.8,634.3 584.6,594.2 388.3,580.6 375.5,540.0 359.8,497.4 493.6,472.6 494.6,436.3 424.6,374.4 574.9,382.6 518.1,306.6 672.9,344.8 706.1,314.9 737.6,274.1 833.3,320.7 857.1,236.5 923.0,209.5 991.3,259.7 1032.0,327.6 1108.4,283.2 1198.1,255.3 1318.9,221.9 1376.5,256.8 1400.9,307.1 1414.3,354.3 1508.4,370.4 1556.4,407.2 1469.7,466.4 1583.4,495.7"/></clipPath>
    <radialGradient id="leaf0" cx="50%" cy="50%" r="70%">
      <stop offset="0%" stop-color="#DC143C"/>
      <stop offset="50%" stop-color="#32CD32"/>
      <stop offset="100%" stop-color="#00FA9A"/>
    </radialGradient>
    <radialGradient id="leaf1" cx="50%" cy="50%" r="70%">
      <stop offset="0%" stop-color="#96E6A1"/>
      <stop offset="50%" stop-color="#FF6B6B"/>
      <stop offset="100%" stop-color="#FFE66D"/>
    </radialGradient>
    <radialGradient id="leaf2" cx="50%" cy="50%" r="70%">
      <stop offset="0%" stop-color="#9370DB"/>
      <stop offset="50%" stop-color="#32CD32"/>
      <stop offset="100%" stop-color="#FF1493"/>
    </radialGradient>
    <radialGradient id="leaf3" cx="50%" cy="50%" r="70%">
      <stop offset="0%" stop-color="#00FA9A"/>
      <stop offset="50%" stop-color="#FF6B6B"/>
      <stop offset="100%" stop-color="#4ECDC4"/>
    </radialGradient>
    <radialGradient id="leaf4" cx="50%" cy="50%" r="70%">
      <stop offset="0%" stop-color="#96E6A1"/>
      <stop offset="50%" stop-color="#7B68EE"/>
      <stop offset="100%" stop-color="#FFD700"/>
    </radialGradient>
    <radialGradient id="leaf5" cx="50%" cy="50%" r="70%">
      <stop offset="0%" stop-color="#FF69B4"/>
      <stop offset="50%" stop-color="#9370DB"/>
      <stop offset="100%" stop-color="#FF4500"/>
    </radialGradient>
    <radialGradient id="leaf6" cx="50%" cy="50%" r="70%">
      <stop offset="0%" stop-color="#9370DB"/>
      <stop offset="50%" stop-color="#32CD32"/>
      <stop offset="100%" stop-color="#FF6B6B"/>
    </radialGradient>
    <radialGradient id="leaf7" cx="50%" cy="50%" r="70%">
      <stop offset="0%" stop-color="#7B68EE"/>
      <stop offset="50%" stop-color="#FFE66D"/>
      <stop offset="100%" stop-color="#FF4500"/>
    </radialGradient>
    <radialGradient id="leaf8" cx="50%" cy="50%" r="70%">
      <stop offset="0%" stop-color="#45B7D1"/>
      <stop offset="50%" stop-color="#FFD700"/>
      <stop offset="100%" stop-color="#00FA9A"/>
    </radialGradient>
    <radialGradient id="leaf9" cx="50%" cy="50%" r="70%">
      <stop offset="0%" stop-color="#9370DB"/>
      <stop offset="50%" stop-color="#DC143C"/>
      <stop offset="100%" stop-color="#FF1493"/>
    </radialGradient>
    <radialGradient id="leaf10" cx="50%" cy="50%" r="70%">
      <stop offset="0%" stop-color="#96E6A1"/>
      <stop offset="50%" stop-color="#FF69B4"/>
      <stop offset="100%" stop-color="#DC143C"/>
    </radialGradient>
    <radialGradient id="leaf11" cx="50%" cy="50%" r="70%">
      <stop offset="0%" stop-color="#7B68EE"/>
      <stop offset="50%" stop-color="#FF1493"/>
      <stop offset="100%" stop-color="#00CED1"/>
    </radialGradient>
    <radialGradient id="leaf12" cx="50%" cy="50%" r="70%">
      <stop offset="0%" stop-color="#45B7D1"/>
      <stop offset="50%" stop-color="#32CD32"/>
      <stop offset="100%" stop-color="#FFE66D"/>
    </radialGradient>
    <radialGradient id="leaf13" cx="50%" cy="50%" r="70%">
      <stop offset="0%" stop-color="#7B68EE"/>
      <stop offset="50%" stop-color="#DC143C"/>
      <stop offset="100%" stop-color="#FFE66D"/>
    </radialGradient>
    <radialGradient id="leaf14" cx="50%" cy="50%" r="70%">
      <stop offset="0%" stop-color="#7B68EE"/>
      <stop offset="50%" stop-color="#FF69B4"/>
      <stop offset="100%" stop-color="#FF6B6B"/>
    </radialGradient>
    <radialGradient id="leaf15" cx="50%" cy="50%" r="70%">
      <stop offset="0%" stop-color="#DC143C"/>
      <stop offset="50%" stop-color="#FF1493"/>
      <stop offset="100%" stop-color="#FF4500"/>
    </radialGradient>
    <radialGradient id="leaf16" cx="50%" cy="50%" r="70%">
      <stop offset="0%" stop-color="#9370DB"/>
      <stop offset="50%" stop-color="#FF6B6B"/>
      <stop offset="100%" stop-color="#45B7D1"/>
    </radialGradient>
    <radialGradient id="leaf17" cx="50%" cy="50%" r="70%">
      <stop offset="0%" stop-color="#9370DB"/>
      <stop offset="50%" stop-color="#7B68EE"/>
      <stop offset="100%" stop-color="#FFE66D"/>
    </radialGradient>
    <radialGradient id="leaf18" cx="50%" cy="50%" r="70%">
      <stop offset="0%" stop-color="#FF1493"/>
      <stop offset="50%" stop-color="#32CD32"/>
      <stop offset="100%" stop-color="#FFE66D"/>
    </radialGradient>
    <radialGradient id="leaf19" cx="50%" cy="50%" r="70%">
      <stop offset="0%" stop-color="#9370DB"/>
      <stop offset="50%" stop-color="#4ECDC4"/>
      <stop offset="100%" stop-color="#00FA9A"/>
    </radialGradient>
    <radialGradient id="leaf20" cx="50%" cy="50%" r="70%">
      <stop offset="0%" stop-color="#FF6B6B"/>
      <stop offset="50%" stop-color="#DC143C"/>
      <stop offset="100%" stop-color="#FFE66D"/>
    </radialGradient>
    <radialGradient id="leaf21" cx="50%" cy="50%" r="70%">
      <stop offset="0%" stop-color="#FF6B6B"/>
      <stop offset="50%" stop-color="#00CED1"/>
      <stop offset="100%" stop-color="#FF69B4"/>
    </radialGradient>
    <radialGradient id="leaf22" cx="50%" cy="50%" r="70%">
      <stop offset="0%" stop-color="#FF69B4"/>
      <stop offset="50%" stop-color="#32CD32"/>
      <stop offset="100%" stop-color="#7B68EE"/>
    </radialGradient>
    <radialGradient id="leaf23" cx="50%" cy="50%" r="70%">
      <stop offset="0%" stop-color="#32CD32"/>
      <stop offset="50%" stop-color="#FFD700"/>
      <stop offset="100%" stop-color="#FFE66D"/>
    </radialGradient>
    <radialGradient id="leaf24" cx="50%" cy="50%" r="70%">
      <stop offset="0%" stop-color="#7B68EE"/>
      <stop offset="50%" stop-color="#4ECDC4"/>
      <stop offset="100%" stop-color="#FFE66D"/>
    </radialGradient>
    <radialGradient id="leaf25" cx="50%" cy="50%" r="70%">
      <stop offset="0%" stop-color="#4ECDC4"/>
      <stop offset="50%" stop-color="#7B68EE"/>
      <stop offset="100%" stop-color="#00FA9A"/>
    </radialGradient>
    <radialGradient id="leaf26" cx="50%" cy="50%" r="70%">
      <stop offset="0%" stop-color="#FF4500"/>
      <stop offset="50%" stop-color="#FF1493"/>
      <stop offset="100%" stop-color="#FFD700"/>
    </radialGradient>
    <radialGradient id="leaf27" cx="50%" cy="50%" r="70%">
      <stop offset="0%" stop-color="#32CD32"/>
      <stop offset="50%" stop-color="#9370DB"/>
      <stop offset="100%" stop-color="#FF1493"/>
    </radialGradient>
    <radialGradient id="leaf28" cx="50%" cy="50%" r="70%">
      <stop offset="0%" stop-color="#FFE66D"/>
      <stop offset="50%" stop-color="#FF69B4"/>
      <stop offset="100%" stop-color="#00FA9A"/>
    </radialGradient>
    <radialGradient id="leaf29" cx="50%" cy="50%" r="70%">
      <stop offset="0%" stop-color="#7B68EE"/>
      <stop offset="50%" stop-color="#4ECDC4"/>
      <stop offset="100%" stop-color="#FFE66D"/>
    </radialGradient>
  </defs>

  <!-- Scaled content -->
  <g transform="translate(960.0,540.0) scale(3.0) translate(-960.0,-540.0)">
    <!-- Background -->
    <rect width="1920" height="1080" fill="url(#bgGrad)"/>
    
    <!-- Leaves with clip-path -->
    <g clip-path="url(#complexClip)">
    <path d="M 600.3706941666629,521.7292327080429 C 634.7677225100052,550.3934229941615 646.2333986244527,590.5232893947275 600.3706941666629,636.3859938525172 C 554.5079897088732,590.5232893947275 565.9736658233206,550.3934229941615 600.3706941666629,521.7292327080429 Z" fill="url(#leaf0)" opacity="0.16" transform="rotate(117.2 600.4 579.1)"/>
    <path d="M 370.3906537708266,56.395682708704136 C 391.6196657417979,74.08652601784691 398.69600306545505,98.8537066506468 370.3906537708266,127.15905594527524 C 342.08530447619813,98.8537066506468 349.16164179985526,74.08652601784691 370.3906537708266,56.395682708704136 Z" fill="url(#leaf1)" opacity="0.21" transform="rotate(19.8 370.4 91.8)"/>
    <path d="M 891.145837053664,627.1234723452751 C 928.3975435635314,658.1665611034979 940.8147790668205,701.6268853650098 891.145837053664,751.2958273781662 C 841.4768950405074,701.6268853650098 853.8941305437966,658.1665611034979 891.145837053664,627.1234723452751 Z" fill="url(#leaf2)" opacity="0.22" transform="rotate(51.0 891.1 689.2)"/>
    <path d="M 1762.7715772878018,139.0602421380584 C 1802.0883464082574,171.82421640510478 1815.193936115076,217.69378037896968 1762.7715772878018,270.1161392062439 C 1710.3492184605277,217.69378037896968 1723.4548081673463,171.82421640510478 1762.7715772878018,139.0602421380584 Z" fill="url(#leaf3)" opacity="0.16" transform="rotate(23.2 1762.8 204.6)"/>
    <path d="M 685.980280267034,794.4967331134424 C 726.3077417061697,828.1029509793888 739.7502288525484,875.1516559917138 685.980280267034,928.9216045772282 C 632.2103316815196,875.1516559917138 645.6528188278983,828.1029509793888 685.980280267034,794.4967331134424 Z" fill="url(#leaf4)" opacity="0.21" transform="rotate(7.9 686.0 861.7)"/>
    <path d="M 686.0491436104157,801.273694229431 C 714.9460902057169,825.3544830588487 724.578405737484,859.0675874200334 686.0491436104157,897.5968495471017 C 647.5198814833475,859.0675874200334 657.1521970151146,825.3544830588487 686.0491436104157,801.273694229431 Z" fill="url(#leaf5)" opacity="0.19" transform="rotate(126.3 686.0 849.4)"/>
    <path d="M 432.1148164394824,573.3446762611833 C 457.8326040144718,594.7761659070078 466.40519987280163,624.7802514111621 432.1148164394824,659.0706348444813 C 397.8244330061632,624.7802514111621 406.397028864493,594.7761659070078 432.1148164394824,573.3446762611833 Z" fill="url(#leaf6)" opacity="0.25" transform="rotate(41.3 432.1 616.2)"/>
    <path d="M 875.8344432402739,498.4124881058427 C 896.2096715965146,515.3918450693766 903.001414381928,539.162944818324 875.8344432402739,566.3299159599782 C 848.6674720986198,539.162944818324 855.4592148840333,515.3918450693766 875.8344432402739,498.4124881058427 Z" fill="url(#leaf7)" opacity="0.20" transform="rotate(168.2 875.8 532.4)"/>
    <path d="M 1419.0897761398346,521.5729408036805 C 1449.3275165193902,546.7710577866435 1459.4067633125755,582.0484215627918 1419.0897761398346,622.3654087355326 C 1378.7727889670937,582.0484215627918 1388.852035760279,546.7710577866435 1419.0897761398346,521.5729408036805 Z" fill="url(#leaf8)" opacity="0.22" transform="rotate(259.7 1419.1 572.0)"/>
    <path d="M 664.2458888306285,868.0880503704329 C 699.526524680627,897.4885802454316 711.2867366306265,938.6493220704299 664.2458888306285,985.6901698704278 C 617.2050410306305,938.6493220704299 628.96525298063,897.4885802454316 664.2458888306285,868.0880503704329 Z" fill="url(#leaf9)" opacity="0.17" transform="rotate(333.1 664.2 926.9)"/>
    <path d="M 1100.2673895509743,334.2391876226025 C 1129.6829146761834,358.75212522694346 1139.4880897179198,393.0702378730208 1100.2673895509743,432.2909380399663 C 1061.0466893840287,393.0702378730208 1070.8518644257651,358.75212522694346 1100.2673895509743,334.2391876226025 Z" fill="url(#leaf10)" opacity="0.18" transform="rotate(324.7 1100.3 383.3)"/>
    <path d="M 119.55254380186122,324.86650954780566 C 155.88544216292095,355.1439248486888 167.9964082832742,397.53230626992513 119.55254380186122,445.97617075133815 C 71.10867932044825,397.53230626992513 83.21964544080149,355.1439248486888 119.55254380186122,324.86650954780566 Z" fill="url(#leaf11)" opacity="0.16" transform="rotate(267.3 119.6 385.4)"/>
    <path d="M 1721.2548849211669,413.21414741014485 C 1763.1845774228336,448.15555782820053 1777.1611415900559,497.0735324134784 1721.2548849211669,552.9797890823675 C 1665.3486282522779,497.0735324134784 1679.3251924195001,448.15555782820053 1721.2548849211669,413.21414741014485 Z" fill="url(#leaf12)" opacity="0.21" transform="rotate(149.0 1721.3 483.1)"/>
    <path d="M 944.6771807178018,700.9327167494971 C 988.3717821676828,737.344884624398 1002.9366493176432,788.3219196492593 944.6771807178018,846.5813882491007 C 886.4177121179604,788.3219196492593 900.9825792679208,737.344884624398 944.6771807178018,700.9327167494971 Z" fill="url(#leaf13)" opacity="0.21" transform="rotate(268.8 944.7 773.8)"/>
    <path d="M 1784.9357773268102,491.5530185990738 C 1826.6673010545242,526.3292883721687 1840.577808963762,575.0160660545015 1784.9357773268102,630.6580976914532 C 1729.2937456898585,575.0160660545015 1743.2042535990963,526.3292883721687 1784.9357773268102,491.5530185990738 Z" fill="url(#leaf14)" opacity="0.17" transform="rotate(352.5 1784.9 561.1)"/>
    <path d="M 501.25814087528477,326.1669818808847 C 521.8135622755336,343.29649971442535 528.6653694089499,367.27782468138236 501.25814087528477,394.68505321504745 C 473.8509123416197,367.27782468138236 480.70271947503596,343.29649971442535 501.25814087528477,326.1669818808847 Z" fill="url(#leaf15)" opacity="0.16" transform="rotate(244.7 501.3 360.4)"/>
    <path d="M 1262.1375783968822,533.8944356145599 C 1298.9066172357966,564.5353013136552 1311.1629635154345,607.4325132923885 1262.1375783968822,656.4578984109409 C 1213.1121932783299,607.4325132923885 1225.3685395579678,564.5353013136552 1262.1375783968822,533.8944356145599 Z" fill="url(#leaf16)" opacity="0.20" transform="rotate(21.5 1262.1 595.2)"/>
    <path d="M 1814.2404573892427,445.14068400455983 C 1833.6194480249912,461.2898428676836 1840.0791115702407,483.8986652760568 1814.2404573892427,509.7373194570548 C 1788.4018032082447,483.8986652760568 1794.8614667534941,461.2898428676836 1814.2404573892427,445.14068400455983 Z" fill="url(#leaf17)" opacity="0.20" transform="rotate(7.0 1814.2 477.4)"/>
    <path d="M 1667.6073982434812,373.0881244665201 C 1693.648530727955,394.78906820358173 1702.3289082227798,425.17038943546794 1667.6073982434812,459.89189941476644 C 1632.8858882641825,425.17038943546794 1641.5662657590074,394.78906820358173 1667.6073982434812,373.0881244665201 Z" fill="url(#leaf18)" opacity="0.22" transform="rotate(324.8 1667.6 416.5)"/>
    <path d="M 1532.6030070253955,797.2959986343744 C 1558.1810506178172,818.6110349613924 1566.7070651486245,848.4520858192177 1532.6030070253955,882.5561439424466 C 1498.4989489021666,848.4520858192177 1507.024963432974,818.6110349613924 1532.6030070253955,797.2959986343744 Z" fill="url(#leaf19)" opacity="0.18" transform="rotate(285.5 1532.6 839.9)"/>
    <path d="M 1282.993517551719,147.8582354703097 C 1310.973754991693,171.17510000362154 1320.300500805018,203.81871035025813 1282.993517551719,241.12569360355707 C 1245.68653429842,203.81871035025813 1255.0132801117447,171.17510000362154 1282.993517551719,147.8582354703097 Z" fill="url(#leaf20)" opacity="0.23" transform="rotate(345.6 1283.0 194.5)"/>
    <path d="M 1772.2853599248765,779.4566011096241 C 1813.1377676564434,813.5002742192631 1826.755236900299,861.1614165727577 1772.2853599248765,915.6312935481802 C 1717.815482949454,861.1614165727577 1731.4329521933096,813.5002742192631 1772.2853599248765,779.4566011096241 Z" fill="url(#leaf21)" opacity="0.25" transform="rotate(240.9 1772.3 847.5)"/>
    <path d="M 1119.390330312224,511.915926627476 C 1154.896010629089,541.5039935581967 1166.7312374013773,582.927287261206 1119.390330312224,630.2681943503592 C 1072.0494232230708,582.927287261206 1083.884649995359,541.5039935581967 1119.390330312224,511.915926627476 Z" fill="url(#leaf22)" opacity="0.18" transform="rotate(190.6 1119.4 571.1)"/>
    <path d="M 1289.3219069347376,397.77895258672885 C 1334.6791534533786,435.5766580189296 1349.798235626259,488.49344562401075 1289.3219069347376,548.969774315532 C 1228.8455782432163,488.49344562401075 1243.9646604160966,435.5766580189296 1289.3219069347376,397.77895258672885 Z" fill="url(#leaf23)" opacity="0.24" transform="rotate(39.9 1289.3 473.4)"/>
    <path d="M 356.92555534848515,176.90138352624993 C 376.598405077217,193.2954249668598 383.156021653461,216.24708298371365 356.92555534848515,242.47754928868946 C 330.6950890435093,216.24708298371365 337.25270561975327,193.2954249668598 356.92555534848515,176.90138352624993 Z" fill="url(#leaf24)" opacity="0.23" transform="rotate(146.1 356.9 209.7)"/>
    <path d="M 741.8545648168587,659.8845397620107 C 777.823694868874,689.8588148053569 789.8134048862124,731.8227998660415 741.8545648168587,779.7816399353953 C 693.8957247475049,731.8227998660415 705.8854347648434,689.8588148053569 741.8545648168587,659.8845397620107 Z" fill="url(#leaf25)" opacity="0.18" transform="rotate(188.6 741.9 719.8)"/>
    <path d="M 1749.274466864876,758.7194710115896 C 1795.6673056327706,797.380169984835 1811.1315852220687,851.5051485473786 1749.274466864876,913.3622669045712 C 1687.4173485076835,851.5051485473786 1702.8816280969816,797.380169984835 1749.274466864876,758.7194710115896 Z" fill="url(#leaf26)" opacity="0.17" transform="rotate(66.3 1749.3 836.0)"/>
    <path d="M 808.3189913558714,416.38374031719843 C 855.5987260175496,455.7835192019303 871.3586375714423,510.9432096405548 808.3189913558714,573.9828558561258 C 745.2793451403005,510.9432096405548 761.0392566941932,455.7835192019303 808.3189913558714,416.38374031719843 Z" fill="url(#leaf27)" opacity="0.23" transform="rotate(333.9 808.3 495.2)"/>
    <path d="M 1624.2387243856485,355.49166129008427 C 1663.638452878322,388.32476836731195 1676.771695709213,434.2911182754308 1624.2387243856485,486.8240895989951 C 1571.705753062084,434.2911182754308 1584.8389958929752,388.32476836731195 1624.2387243856485,355.49166129008427 Z" fill="url(#leaf28)" opacity="0.23" transform="rotate(239.2 1624.2 421.2)"/>
    <path d="M 338.135560423082,902.4675081152931 C 372.5727661237604,931.165179532525 384.0518346906532,971.3419195166499 338.135560423082,1017.2581937842211 C 292.21928615551076,971.3419195166499 303.69835472240356,931.165179532525 338.135560423082,902.4675081152931 Z" fill="url(#leaf29)" opacity="0.19" transform="rotate(163.7 338.1 959.9)"/>
    <path d="M 1692.6186034934442,674.6461581600078 C 1712.0814247631854,690.865175884792 1718.5690318530992,713.57180069949 1692.6186034934442,739.5222290591449 C 1666.6681751337892,713.57180069949 1673.155782223703,690.865175884792 1692.6186034934442,674.6461581600078 Z" fill="url(#leaf0)" opacity="0.21" transform="rotate(107.9 1692.6 707.1)"/>
    <path d="M 646.9554761985087,380.75068586971827 C 688.7022643873831,415.5396760271136 702.6178604503413,464.2442622474672 646.9554761985087,519.9066464992998 C 591.2930919466761,464.2442622474672 605.2086880096342,415.5396760271136 646.9554761985087,380.75068586971827 Z" fill="url(#leaf1)" opacity="0.24" transform="rotate(218.2 647.0 450.3)"/>
    <path d="M 369.14831343854803,572.63169165234 C 403.0093933328823,600.8492582309519 414.2964199643271,640.3538514410086 369.14831343854803,685.5019579667877 C 324.000206912769,640.3538514410086 335.28723354421373,600.8492582309519 369.14831343854803,572.63169165234 Z" fill="url(#leaf2)" opacity="0.15" transform="rotate(51.7 369.1 629.1)"/>
    <path d="M 325.80227675720766,324.9262970547376 C 363.4166663358863,356.27162170363647 375.9547961954459,400.1550762120949 325.80227675720766,450.30759565033316 C 275.6497573189694,400.1550762120949 288.187887178529,356.27162170363647 325.80227675720766,324.9262970547376 Z" fill="url(#leaf3)" opacity="0.24" transform="rotate(30.7 325.8 387.6)"/>
    <path d="M 1654.7661963744224,240.72734284535107 C 1676.074827549203,258.4845354910017 1683.1777046074633,283.3446051949125 1654.7661963744224,311.7561134279535 C 1626.3546881413815,283.3446051949125 1633.4575651996417,258.4845354910017 1654.7661963744224,240.72734284535107 Z" fill="url(#leaf4)" opacity="0.19" transform="rotate(254.0 1654.8 276.2)"/>
    <path d="M 1032.5570893598165,787.6492034052658 C 1065.0222775187312,814.7035268710281 1075.8440069050362,852.5795797230952 1032.5570893598165,895.8664972683148 C 989.2701718145969,852.5795797230952 1000.0919012009018,814.7035268710281 1032.5570893598165,787.6492034052658 Z" fill="url(#leaf5)" opacity="0.20" transform="rotate(234.2 1032.6 841.8)"/>
    <path d="M 277.2006507508577,916.6650832562868 C 318.1676157051122,950.8042207181655 331.82327068986376,998.5990131647959 277.2006507508577,1053.2216331038019 C 222.57803081185162,998.5990131647959 236.23368579660314,950.8042207181655 277.2006507508577,916.6650832562868 Z" fill="url(#leaf6)" opacity="0.19" transform="rotate(6.8 277.2 984.9)"/>
    <path d="M 551.3359368506807,957.2533255504623 C 572.3187125065429,974.7389719303475 579.3129710584969,999.2188768621867 551.3359368506807,1027.195911070003 C 523.3589026428645,999.2188768621867 530.3531611948185,974.7389719303475 551.3359368506807,957.2533255504623 Z" fill="url(#leaf7)" opacity="0.17" transform="rotate(19.5 551.3 992.2)"/>
    <path d="M 1669.1144509928242,860.401412945751 C 1687.4325537483244,875.6664985753343 1693.5385880001577,897.0376184567513 1669.1144509928242,921.4617554640847 C 1644.6903139854908,897.0376184567513 1650.796348237324,875.6664985753343 1669.1144509928242,860.401412945751 Z" fill="url(#leaf8)" opacity="0.16" transform="rotate(37.4 1669.1 890.9)"/>
    <path d="M 385.677904800503,717.2398638192087 C 409.96210203548617,737.4766948483614 418.05683444714725,765.8082582891751 385.677904800503,798.1871879358193 C 353.2989751538587,765.8082582891751 361.3937075655198,737.4766948483614 385.677904800503,717.2398638192087 Z" fill="url(#leaf9)" opacity="0.19" transform="rotate(4.3 385.7 757.7)"/>
    <path d="M 131.3088177999295,904.8515716417903 C 172.31413141449843,939.0226663205978 185.9825692860214,986.8621988709282 131.3088177999295,1041.53595035702 C 76.6350663138376,986.8621988709282 90.30350418536058,939.0226663205978 131.3088177999295,904.8515716417903 Z" fill="url(#leaf10)" opacity="0.21" transform="rotate(184.3 131.3 973.2)"/>
    <path d="M 1727.77874570058,516.8462178190272 C 1750.0113081181062,535.3733531669658 1757.4221622572816,561.3113426540797 1727.77874570058,590.9547592107814 C 1698.1353291438784,561.3113426540797 1705.5461832830538,535.3733531669658 1727.77874570058,516.8462178190272 Z" fill="url(#leaf11)" opacity="0.22" transform="rotate(4.6 1727.8 553.9)"/>
    <path d="M 1134.372921776275,327.0337586448194 C 1161.5700038186114,349.6979936800998 1170.6356978327237,381.42792272949237 1134.372921776275,417.690698785941 C 1098.1101457198263,381.42792272949237 1107.1758397339386,349.6979936800998 1134.372921776275,327.0337586448194 Z" fill="url(#leaf12)" opacity="0.17" transform="rotate(194.3 1134.4 372.4)"/>
    <path d="M 295.15716090448626,578.1818581427762 C 323.1045201409206,601.4713241731381 332.4203065530654,634.0765766156449 295.15716090448626,671.339722264224 C 257.8940152559071,634.0765766156449 267.2098016680519,601.4713241731381 295.15716090448626,578.1818581427762 Z" fill="url(#leaf13)" opacity="0.21" transform="rotate(227.7 295.2 624.8)"/>
    <path d="M 1737.8134216453298,852.225775169315 C 1758.467400899615,869.437424547886 1765.3520606510433,893.5337336778855 1737.8134216453298,921.072372683599 C 1710.2747826396162,893.5337336778855 1717.1594423910444,869.437424547886 1737.8134216453298,852.225775169315 Z" fill="url(#leaf14)" opacity="0.24" transform="rotate(280.6 1737.8 886.6)"/>
    <path d="M 1249.8149291899526,544.1533611954571 C 1281.0047405644973,570.1448706742444 1291.4013443560123,606.5329839445467 1249.8149291899526,648.1193991106063 C 1208.228514023893,606.5329839445467 1218.625117815408,570.1448706742444 1249.8149291899526,544.1533611954571 Z" fill="url(#leaf15)" opacity="0.18" transform="rotate(37.5 1249.8 596.1)"/>
    <path d="M 161.31576497375826,330.6912279461642 C 196.7682708086046,360.23498280853613 208.58577275355339,401.59623961585686 161.31576497375826,448.86624739565195 C 114.04575719396314,401.59623961585686 125.86325913891193,360.23498280853613 161.31576497375826,330.6912279461642 Z" fill="url(#leaf16)" opacity="0.25" transform="rotate(243.0 161.3 389.8)"/>
    <path d="M 894.384896134609,490.6960354658678 C 924.884186440667,516.1121107209162 935.0506165426864,551.6946160779839 894.384896134609,592.3603364860613 C 853.7191757265316,551.6946160779839 863.885605828551,516.1121107209162 894.384896134609,490.6960354658678 Z" fill="url(#leaf17)" opacity="0.21" transform="rotate(66.6 894.4 541.5)"/>
    <path d="M 1020.8902838310918,372.67462340251336 C 1039.9104019489005,388.5247218340207 1046.2504413215036,410.7148596381309 1020.8902838310918,436.07501712854264 C 995.5301263406801,410.7148596381309 1001.870165713283,388.5247218340207 1020.8902838310918,372.67462340251336 Z" fill="url(#leaf18)" opacity="0.23" transform="rotate(90.8 1020.9 404.4)"/>
    <path d="M 1815.7512427394392,542.084645722842 C 1840.900461313911,563.042327868235 1849.2835341720681,592.3830828717853 1815.7512427394392,625.9153743044142 C 1782.2189513068104,592.3830828717853 1790.6020241649676,563.042327868235 1815.7512427394392,542.084645722842 Z" fill="url(#leaf19)" opacity="0.22" transform="rotate(268.8 1815.8 584.0)"/>
    <path d="M 345.9555198995218,-6.7091234457542015 C 381.5919885474729,22.987933760871712 393.47081143012326,64.563813850148 345.9555198995218,112.07910538074945 C 298.4402283689203,64.563813850148 310.31905125157067,22.987933760871712 345.9555198995218,-6.7091234457542015 Z" fill="url(#leaf20)" opacity="0.22" transform="rotate(44.6 346.0 52.7)"/>
    <path d="M 1724.6169490028394,458.8042009502555 C 1766.008887168145,493.2974827546768 1779.8061998899134,541.5880772808666 1724.6169490028394,596.7773281679406 C 1669.4276981157655,541.5880772808666 1683.2250108375338,493.2974827546768 1724.6169490028394,458.8042009502555 Z" fill="url(#leaf21)" opacity="0.23" transform="rotate(237.4 1724.6 527.8)"/>
    <path d="M 1252.7530282282228,31.942520093113828 C 1280.6852742103156,55.21939174485793 1289.9960228710133,87.80701205729967 1252.7530282282228,125.05000670009024 C 1215.5100335854322,87.80701205729967 1224.82078224613,55.21939174485793 1252.7530282282228,31.942520093113828 Z" fill="url(#leaf22)" opacity="0.16" transform="rotate(151.9 1252.8 78.5)"/>
    <path d="M 1745.6722901411129,473.68064922240524 C 1764.3188232379152,489.2194268030739 1770.5343342701826,510.97371541600995 1745.6722901411129,535.8357595450798 C 1720.810246012043,510.97371541600995 1727.0257570443105,489.2194268030739 1745.6722901411129,473.68064922240524 Z" fill="url(#leaf23)" opacity="0.18" transform="rotate(108.4 1745.7 504.8)"/>
    <path d="M 1782.5551870804793,336.40929356665004 C 1814.9589203949213,363.4124046620183 1825.7601648330685,401.2167601955338 1782.5551870804793,444.421737948123 C 1739.35020932789,401.2167601955338 1750.1514537660373,363.4124046620183 1782.5551870804793,336.40929356665004 Z" fill="url(#leaf24)" opacity="0.23" transform="rotate(18.7 1782.6 390.4)"/>
    <path d="M 1580.3863927170194,378.01516408675377 C 1598.6872824589977,393.2659055384023 1604.787579039657,414.6169435707103 1580.3863927170194,439.01812989334803 C 1555.9852063943817,414.6169435707103 1562.085502975041,393.2659055384023 1580.3863927170194,378.01516408675377 Z" fill="url(#leaf25)" opacity="0.17" transform="rotate(202.7 1580.4 408.5)"/>
    <path d="M 884.530073397908,214.7695919082321 C 931.3962216345931,253.8247154388029 947.0182710468214,308.50188838160204 884.530073397908,370.9900860305154 C 822.0418757489947,308.50188838160204 837.663925161223,253.8247154388029 884.530073397908,214.7695919082321 Z" fill="url(#leaf26)" opacity="0.18" transform="rotate(13.1 884.5 292.9)"/>
    <path d="M 1112.8392204458967,559.4637996635006 C 1141.297171765667,583.1787590966425 1150.7831555389234,616.379702303041 1112.8392204458967,654.3236373960679 C 1074.89528535287,616.379702303041 1084.3812691261264,583.1787590966425 1112.8392204458967,559.4637996635006 Z" fill="url(#leaf27)" opacity="0.22" transform="rotate(245.8 1112.8 606.9)"/>
    <path d="M 321.0295030664849,503.7383118714351 C 345.3580250221888,524.0120801678551 353.4675323407568,552.395355782843 321.0295030664849,584.8333850571149 C 288.591473792213,552.395355782843 296.70098111078096,524.0120801678551 321.0295030664849,503.7383118714351 Z" fill="url(#leaf28)" opacity="0.20" transform="rotate(260.9 321.0 544.3)"/>
    <path d="M 868.5891347972204,471.09676837491816 C 903.741864014939,500.3907093896837 915.4594404208452,541.4022268103555 868.5891347972204,588.2725324339804 C 821.7188291735955,541.4022268103555 833.4364055795018,500.3907093896837 868.5891347972204,471.09676837491816 Z" fill="url(#leaf29)" opacity="0.25" transform="rotate(248.0 868.6 529.7)"/>
    <path d="M 1575.4944582141368,156.80824774599154 C 1607.5592610531367,183.5289167784914 1618.2475286661365,220.9378534239912 1575.4944582141368,263.690923875991 C 1532.741387762137,220.9378534239912 1543.429655375137,183.5289167784914 1575.4944582141368,156.80824774599154 Z" fill="url(#leaf0)" opacity="0.22" transform="rotate(104.7 1575.5 210.2)"/>
    <path d="M 818.4677039561391,469.865447352102 C 863.273458091166,507.20357579795785 878.2087094695083,559.476955622156 818.4677039561391,619.2179611355253 C 758.7266984427698,559.476955622156 773.6619498211121,507.20357579795785 818.4677039561391,469.865447352102 Z" fill="url(#leaf1)" opacity="0.22" transform="rotate(165.0 818.5 544.5)"/>
    <path d="M 1078.2370221644514,98.45966986403675 C 1122.2072453545782,135.1015225224757 1136.8639864179538,186.40011624429025 1078.2370221644514,245.02708049779255 C 1019.6100579109491,186.40011624429025 1034.2667989743247,135.1015225224757 1078.2370221644514,98.45966986403675 Z" fill="url(#leaf2)" opacity="0.24" transform="rotate(280.9 1078.2 171.7)"/>
    <path d="M 535.6596892353127,300.42174644079824 C 560.181944652885,320.8569592887752 568.3560297920758,349.4662572759429 535.6596892353127,382.162597832706 C 502.9633486785496,349.4662572759429 511.13743381774043,320.8569592887752 535.6596892353127,300.42174644079824 Z" fill="url(#leaf3)" opacity="0.22" transform="rotate(21.7 535.7 341.3)"/>
    <path d="M 607.9959011316921,304.4528244326326 C 653.3252126018419,342.2272506577575 668.4349830918919,395.1114473729323 607.9959011316921,455.5505293331321 C 547.5568191714923,395.1114473729323 562.6665896615423,342.2272506577575 607.9959011316921,304.4528244326326 Z" fill="url(#leaf4)" opacity="0.22" transform="rotate(245.6 608.0 380.0)"/>
    <path d="M 127.41919175738265,764.6552512196854 C 152.4710204904262,785.5317751638884 160.82163006810742,814.7589086857726 127.41919175738265,848.1613469964973 C 94.01675344665789,814.7589086857726 102.36736302433908,785.5317751638884 127.41919175738265,764.6552512196854 Z" fill="url(#leaf5)" opacity="0.25" transform="rotate(281.3 127.4 806.4)"/>
    <path d="M 1694.9042911269953,953.7575010911613 C 1733.2990143425566,985.7531037707956 1746.0972554144103,1030.5469475222837 1694.9042911269953,1081.739911809699 C 1643.7113268395804,1030.5469475222837 1656.509567911434,985.7531037707956 1694.9042911269953,953.7575010911613 Z" fill="url(#leaf6)" opacity="0.17" transform="rotate(96.7 1694.9 1017.7)"/>
    <path d="M 1188.375015007987,229.15607205204782 C 1210.9695748397894,247.98487191188312 1218.5010947837236,274.34519171565256 1188.375015007987,304.471271491389 C 1158.2489352322505,274.34519171565256 1165.7804551761847,247.98487191188312 1188.375015007987,229.15607205204782 Z" fill="url(#leaf7)" opacity="0.22" transform="rotate(108.4 1188.4 266.8)"/>
    <path d="M 438.6157650385661,327.19255423673224 C 468.53824265848056,352.12795225332763 478.5124018651187,387.0375094765611 438.6157650385661,426.9341463031137 C 398.7191282120135,387.0375094765611 408.69328741865166,352.12795225332763 438.6157650385661,327.19255423673224 Z" fill="url(#leaf8)" opacity="0.20" transform="rotate(244.3 438.6 377.1)"/>
    <path d="M 347.8931298195053,166.21669313181616 C 379.38345824022974,192.45863348241986 389.8802343804712,229.19734997326503 347.8931298195053,271.18445453423095 C 305.9060252585394,229.19734997326503 316.40280139878087,192.45863348241986 347.8931298195053,166.21669313181616 Z" fill="url(#leaf9)" opacity="0.24" transform="rotate(330.7 347.9 218.7)"/>
    <path d="M 347.6383095775839,25.546061132417194 C 394.30457958341486,64.43461947060963 409.86000291869186,118.87860114407906 347.6383095775839,181.10029448518696 C 285.416616236476,118.87860114407906 300.972039571753,64.43461947060963 347.6383095775839,25.546061132417194 Z" fill="url(#leaf10)" opacity="0.20" transform="rotate(2.8 347.6 103.3)"/>
    <path d="M 1529.664784068927,233.6850820999569 C 1567.6619987038507,265.34942762906 1580.327736915492,309.6795113698044 1529.664784068927,360.34246421636936 C 1479.001831222362,309.6795113698044 1491.6675694340033,265.34942762906 1529.664784068927,233.6850820999569 Z" fill="url(#leaf11)" opacity="0.22" transform="rotate(118.6 1529.7 297.0)"/>
    <path d="M 867.8858812822372,221.45389668576652 C 886.0090464322531,236.55653431077974 892.0501014822584,257.7002269857982 867.8858812822372,281.8644471858194 C 843.721661082216,257.7002269857982 849.7627161322213,236.55653431077974 867.8858812822372,221.45389668576652 Z" fill="url(#leaf12)" opacity="0.16" transform="rotate(93.3 867.9 251.7)"/>
    <path d="M 1311.7680588382984,659.5984115186781 C 1348.4661101363326,690.1801209337066 1360.698793902344,732.9945141147466 1311.7680588382984,781.9252491787923 C 1262.8373237742528,732.9945141147466 1275.0700075402642,690.1801209337066 1311.7680588382984,659.5984115186781 Z" fill="url(#leaf13)" opacity="0.22" transform="rotate(231.1 1311.8 720.8)"/>
    <path d="M 1001.7923027249284,22.545543031621307 C 1036.8803521994319,51.785584260374115 1048.576368690933,92.72164198062805 1001.7923027249284,139.50570794663253 C 955.0082367589239,92.72164198062805 966.704253250425,51.785584260374115 1001.7923027249284,22.545543031621307 Z" fill="url(#leaf14)" opacity="0.23" transform="rotate(244.6 1001.8 81.0)"/>
    <path d="M 205.97871804666383,457.8022620687991 C 234.02675200369873,481.17562369966157 243.3760966560437,513.898329982869 205.97871804666383,551.2957085922488 C 168.58133943728396,513.898329982869 177.93068408962893,481.17562369966157 205.97871804666383,457.8022620687991 Z" fill="url(#leaf15)" opacity="0.23" transform="rotate(37.1 206.0 504.5)"/>
    <path d="M 1042.2382590919094,527.5041098363969 C 1087.5008051047896,565.2228981804636 1102.5883204424163,618.029201862157 1042.2382590919094,678.3792632126639 C 981.8881977414027,618.029201862157 996.9757130790293,565.2228981804636 1042.2382590919094,527.5041098363969 Z" fill="url(#leaf16)" opacity="0.21" transform="rotate(280.8 1042.2 602.9)"/>
    <path d="M 1711.259699002849,644.7205142876223 C 1749.5620468518991,676.6391374951642 1762.3294961349156,721.3252099857226 1711.259699002849,772.3950071177894 C 1660.1899018707823,721.3252099857226 1672.9573511537988,676.6391374951642 1711.259699002849,644.7205142876223 Z" fill="url(#leaf17)" opacity="0.23" transform="rotate(342.9 1711.3 708.6)"/>
    <path d="M 1580.0550912337667,538.4051185719444 C 1608.2201356736405,561.875988938506 1617.608483820265,594.7352074516921 1580.0550912337667,632.2886000381906 C 1542.5016986472683,594.7352074516921 1551.890046793893,561.875988938506 1580.0550912337667,538.4051185719444 Z" fill="url(#leaf18)" opacity="0.15" transform="rotate(118.4 1580.1 585.3)"/>
    <path d="M 179.2944306153564,821.3059300987312 C 206.57352422338226,844.0385081054195 215.66655542605756,875.864117314783 179.2944306153564,912.2362421254842 C 142.92230580465522,875.864117314783 152.01533700733052,844.0385081054195 179.2944306153564,821.3059300987312 Z" fill="url(#leaf19)" opacity="0.21" transform="rotate(177.3 179.3 866.8)"/>
    <path d="M 1237.6134899341341,524.1162093372498 C 1282.809204172674,561.779304536033 1297.8744422521872,614.5076378143295 1237.6134899341341,674.7685901323828 C 1177.352537616081,614.5076378143295 1192.4177756955942,561.779304536033 1237.6134899341341,524.1162093372498 Z" fill="url(#leaf20)" opacity="0.25" transform="rotate(290.6 1237.6 599.4)"/>
    <path d="M 1207.589063040964,509.89853586175497 C 1255.006129631859,549.4127580208342 1270.8118184954908,604.7326690435452 1207.589063040964,667.955424498072 C 1144.3663075864372,604.7326690435452 1160.171996450069,549.4127580208342 1207.589063040964,509.89853586175497 Z" fill="url(#leaf21)" opacity="0.16" transform="rotate(300.2 1207.6 588.9)"/>
    <path d="M 721.4861998583115,496.38872452665805 C 754.594152506771,523.978685067041 765.6301367229242,562.6046298235773 721.4861998583115,606.7485666881901 C 677.3422629936987,562.6046298235773 688.3782472098519,523.978685067041 721.4861998583115,496.38872452665805 Z" fill="url(#leaf22)" opacity="0.17" transform="rotate(110.0 721.5 551.6)"/>
    <path d="M 394.21047538519775,790.6610251451079 C 420.15614020482064,812.2824124947937 428.80469514469496,842.5523547843537 394.21047538519775,877.1465745438509 C 359.61625562570055,842.5523547843537 368.26481056557486,812.2824124947937 394.21047538519775,790.6610251451079 Z" fill="url(#leaf23)" opacity="0.16" transform="rotate(16.4 394.2 833.9)"/>
    <path d="M 91.38701752341737,30.589056704286385 C 124.5086831406217,58.190444718623326 135.54923834635647,96.83238793869505 91.38701752341737,140.99460876163417 C 47.22479670047826,96.83238793869505 58.26535190621304,58.190444718623326 91.38701752341737,30.589056704286385 Z" fill="url(#leaf24)" opacity="0.19" transform="rotate(335.4 91.4 85.8)"/>
    <path d="M 1022.9872858469173,685.7595997795652 C 1042.0826341249387,701.6723900112497 1048.4477502176126,723.9502963356081 1022.9872858469173,749.4107607063033 C 997.526821476222,723.9502963356081 1003.8919375688959,701.6723900112497 1022.9872858469173,685.7595997795652 Z" fill="url(#leaf25)" opacity="0.19" transform="rotate(279.7 1023.0 717.6)"/>
    <path d="M 1097.7410704655856,771.0417664097135 C 1137.512058452253,804.184256398603 1150.769054447809,850.5837423830484 1097.7410704655856,903.6117263652716 C 1044.7130864833623,850.5837423830484 1057.9700824789181,804.184256398603 1097.7410704655856,771.0417664097135 Z" fill="url(#leaf26)" opacity="0.18" transform="rotate(114.8 1097.7 837.3)"/>
    <path d="M 164.3132253950186,243.36172319136656 C 195.29628680462565,269.1809410327058 205.62397394116135,305.3278460105807 164.3132253950186,346.6385945567234 C 123.00247684887587,305.3278460105807 133.33016398541156,269.1809410327058 164.3132253950186,243.36172319136656 Z" fill="url(#leaf27)" opacity="0.22" transform="rotate(21.7 164.3 295.0)"/>
    <path d="M 1625.694597893903,874.6588399850401 C 1666.466279952264,908.6352417003409 1680.0568406383843,956.202204101762 1625.694597893903,1010.5644468462434 C 1571.3323551494216,956.202204101762 1584.922915835542,908.6352417003409 1625.694597893903,874.6588399850401 Z" fill="url(#leaf28)" opacity="0.15" transform="rotate(295.6 1625.7 942.6)"/>
    <path d="M 592.9537996948397,489.1096800260726 C 612.6209597150183,505.4989800428881 619.1766797217444,528.4440000664298 592.9537996948397,554.6668800933345 C 566.730919667935,528.4440000664298 573.2866396746612,505.4989800428881 592.9537996948397,489.1096800260726 Z" fill="url(#leaf29)" opacity="0.21" transform="rotate(202.1 593.0 521.9)"/>
    <path d="M 634.1093202785613,281.288675104708 C 666.4720753801782,308.25763768938873 677.2596604140505,346.0141853079418 634.1093202785613,389.164525443431 C 590.9589801430722,346.0141853079418 601.7465651769444,308.25763768938873 634.1093202785613,281.288675104708 Z" fill="url(#leaf0)" opacity="0.22" transform="rotate(68.9 634.1 335.2)"/>
    <path d="M 776.3198577954912,172.7566588796547 C 814.150217441629,204.28195858476957 826.760337323675,248.41737817193038 776.3198577954912,298.85785770011415 C 725.8793782673074,248.41737817193038 738.4894981493534,204.28195858476957 776.3198577954912,172.7566588796547 Z" fill="url(#leaf1)" opacity="0.19" transform="rotate(68.0 776.3 235.8)"/>
    <path d="M 462.46773062154443,315.48036452004266 C 502.9748767021939,349.2363195872506 516.4772587290771,396.4946566813416 462.46773062154443,450.5041847888743 C 408.45820251401176,396.4946566813416 421.96058454089496,349.2363195872506 462.46773062154443,315.48036452004266 Z" fill="url(#leaf2)" opacity="0.22" transform="rotate(257.0 462.5 383.0)"/>
    <path d="M 1184.5606884922306,957.188330187135 C 1217.5570278732735,984.6852796713372 1228.5558076669543,1023.1810089492204 1184.5606884922306,1067.1761281239442 C 1140.565569317507,1023.1810089492204 1151.5643491111878,984.6852796713372 1184.5606884922306,957.188330187135 Z" fill="url(#leaf3)" opacity="0.15" transform="rotate(272.6 1184.6 1012.2)"/>
    <path d="M 1415.947188723331,100.3124623694689 C 1440.679618214456,120.92282027873966 1448.9237613781643,149.77732135171874 1415.947188723331,182.75389400655195 C 1382.9706160684977,149.77732135171874 1391.214759232206,120.92282027873966 1415.947188723331,100.3124623694689 Z" fill="url(#leaf4)" opacity="0.16" transform="rotate(240.8 1415.9 141.5)"/>
    <path d="M 385.69731094644646,704.0267952199952 C 405.3901822917587,720.4375213410887 411.9544727401962,743.4125379106197 385.69731094644646,769.6696997043694 C 359.44014915269673,743.4125379106197 366.0044396011342,720.4375213410887 385.69731094644646,704.0267952199952 Z" fill="url(#leaf5)" opacity="0.23" transform="rotate(338.1 385.7 736.8)"/>
    <path d="M 1682.1726267801955,969.8450383284844 C 1705.8320737667743,989.5612441506333 1713.7185560956339,1017.163932301642 1682.1726267801955,1048.7098616170804 C 1650.6266974647572,1017.163932301642 1658.5131797936167,989.5612441506333 1682.1726267801955,969.8450383284844 Z" fill="url(#leaf6)" opacity="0.16" transform="rotate(63.8 1682.2 1009.3)"/>
    <path d="M 1641.3401178737108,797.6557385956783 C 1666.8068264392014,818.8779957335871 1675.295729294365,848.5891557266596 1641.3401178737108,882.5447671473137 C 1607.3845064530567,848.5891557266596 1615.8734093082203,818.8779957335871 1641.3401178737108,797.6557385956783 Z" fill="url(#leaf7)" opacity="0.21" transform="rotate(107.0 1641.3 840.1)"/>
    <path d="M 1796.780229467436,261.50704513710895 C 1826.5523317206714,286.31713034813856 1836.4763658050833,321.05124964358 1796.780229467436,360.7473859812273 C 1757.0840931297885,321.05124964358 1767.0081272142004,286.31713034813856 1796.780229467436,261.50704513710895 Z" fill="url(#leaf8)" opacity="0.16" transform="rotate(152.7 1796.8 311.1)"/>
    <path d="M 547.1357059197328,491.6345475817486 C 570.1544604557487,510.8168430284285 577.8273786344206,537.6720566537803 547.1357059197328,568.3637293684681 C 516.444033205045,537.6720566537803 524.1169513837169,510.8168430284285 547.1357059197328,491.6345475817486 Z" fill="url(#leaf9)" opacity="0.19" transform="rotate(255.3 547.1 530.0)"/>
    <path d="M 109.48418059709715,105.2111024063413 C 128.02151818343913,120.65888372829295 134.2006307122198,142.28577757902525 109.48418059709715,167.0022276941479 C 84.76773048197451,142.28577757902525 90.94684301075517,120.65888372829295 109.48418059709715,105.2111024063413 Z" fill="url(#leaf10)" opacity="0.17" transform="rotate(343.6 109.5 136.1)"/>
    <path d="M 1820.9053420060163,346.26177006350656 C 1854.5967422537149,374.33793693658873 1865.8272090029477,413.64457055890375 1820.9053420060163,458.56643755583525 C 1775.983475009085,413.64457055890375 1787.2139417583178,374.33793693658873 1820.9053420060163,346.26177006350656 Z" fill="url(#leaf11)" opacity="0.16" transform="rotate(318.9 1820.9 402.4)"/>
    <path d="M 678.4920120679258,862.0439903704763 C 705.9764463748771,884.9476856262692 715.1379244771942,917.012858984379 678.4920120679258,953.6587713936475 C 641.8460996586573,917.012858984379 651.0075777609744,884.9476856262692 678.4920120679258,862.0439903704763 Z" fill="url(#leaf12)" opacity="0.18" transform="rotate(227.9 678.5 907.9)"/>
    <path d="M 166.2520466897143,493.81674504710173 C 207.13681438480893,527.8873847930139 220.7650702831738,575.586280437291 166.2520466897143,630.0993040307505 C 111.73902309625478,575.586280437291 125.36727899461965,527.8873847930139 166.2520466897143,493.81674504710173 Z" fill="url(#leaf13)" opacity="0.19" transform="rotate(324.3 166.3 562.0)"/>
    <path d="M 310.23446383161763,944.5559900750741 C 330.471664731203,961.4203241580619 337.21739836439815,985.030391874245 310.23446383161763,1012.0133264070255 C 283.2515292988371,985.030391874245 289.99726293203224,961.4203241580619 310.23446383161763,944.5559900750741 Z" fill="url(#leaf14)" opacity="0.24" transform="rotate(100.7 310.2 978.3)"/>
    <path d="M 1574.504362709064,467.30734273301164 C 1599.5947180127291,488.2159721527325 1607.9581697806175,517.4880533403417 1574.504362709064,550.941860411895 C 1541.0505556375106,517.4880533403417 1549.414007405399,488.2159721527325 1574.504362709064,467.30734273301164 Z" fill="url(#leaf15)" opacity="0.24" transform="rotate(205.4 1574.5 509.1)"/>
    <path d="M 255.732633637248,106.35578656006493 C 297.51980257144936,141.17842733856608 311.44885888284983,189.9301244284677 255.732633637248,245.64634967406954 C 200.01640839164617,189.9301244284677 213.9454647030466,141.17842733856608 255.732633637248,106.35578656006493 Z" fill="url(#leaf16)" opacity="0.19" transform="rotate(262.5 255.7 176.0)"/>
    <path d="M 995.0418496182965,569.6845213933865 C 1030.2397518820496,599.0161066131807 1041.9723859699673,640.0803259208925 995.0418496182965,687.0108622725633 C 948.1113132666258,640.0803259208925 959.8439473545435,599.0161066131807 995.0418496182965,569.6845213933865 Z" fill="url(#leaf17)" opacity="0.17" transform="rotate(104.7 995.0 628.3)"/>
    <path d="M 1438.763810249914,140.54676850995367 C 1478.6037821388366,173.7467450840557 1491.8837727684772,220.22671228779856 1438.763810249914,273.3466748063618 C 1385.643847731351,220.22671228779856 1398.9238383609916,173.7467450840557 1438.763810249914,140.54676850995367 Z" fill="url(#leaf18)" opacity="0.20" transform="rotate(7.1 1438.8 206.9)"/>
    <path d="M 1813.1514159447192,707.7935737844333 C 1836.2580989693265,727.0491429716059 1843.9603266441954,754.0069398336476 1813.1514159447192,784.8158505331238 C 1782.342505245243,754.0069398336476 1790.044732920112,727.0491429716059 1813.1514159447192,707.7935737844333 Z" fill="url(#leaf19)" opacity="0.23" transform="rotate(291.2 1813.2 746.3)"/>
    <path d="M 1425.652622984796,70.03970550904447 C 1452.972660984094,92.80640384179296 1462.0793403171936,124.67978150764084 1425.652622984796,161.10649884003843 C 1389.2259056523983,124.67978150764084 1398.3325849854978,92.80640384179296 1425.652622984796,70.03970550904447 Z" fill="url(#leaf20)" opacity="0.19" transform="rotate(217.4 1425.7 115.6)"/>
    <path d="M 542.9845232746729,393.97692474874253 C 566.6599489025076,413.7064461052714 574.5517574451192,441.3277760044119 542.9845232746729,472.8950101748581 C 511.4172891042267,441.3277760044119 519.3090976468383,413.7064461052714 542.9845232746729,393.97692474874253 Z" fill="url(#leaf21)" opacity="0.23" transform="rotate(12.1 543.0 433.4)"/>
    <path d="M 1858.7874976832352,183.4593186436228 C 1899.7626506517713,217.60527945073613 1913.4210349746165,265.40962458069487 1858.7874976832352,320.0431618720762 C 1804.1539603918538,265.40962458069487 1817.812344714699,217.60527945073613 1858.7874976832352,183.4593186436228 Z" fill="url(#leaf22)" opacity="0.22" transform="rotate(303.5 1858.8 251.8)"/>
    <path d="M 804.6209220840703,329.74031835436654 C 837.9981888419276,357.5547073192476 849.12394442788,396.494851870081 804.6209220840703,440.99787421389067 C 760.1178997402607,396.494851870081 771.2436553262131,357.5547073192476 804.6209220840703,329.74031835436654 Z" fill="url(#leaf23)" opacity="0.21" transform="rotate(232.7 804.6 385.4)"/>
    <path d="M 1211.4064173049817,558.2756038465192 C 1237.5819523990829,580.0885497582701 1246.3071307637833,610.6266740347215 1211.4064173049817,645.5273874935232 C 1176.50570384618,610.6266740347215 1185.2308822108805,580.0885497582701 1211.4064173049817,558.2756038465192 Z" fill="url(#leaf24)" opacity="0.19" transform="rotate(68.4 1211.4 601.9)"/>
    <path d="M 753.5754180841361,932.9178037750527 C 785.7005360546201,959.6887354171226 796.4089087114481,997.1680397160206 753.5754180841361,1040.0015303433327 C 710.7419274568241,997.1680397160206 721.4503001136521,959.6887354171226 753.5754180841361,932.9178037750527 Z" fill="url(#leaf25)" opacity="0.16" transform="rotate(178.2 753.6 986.5)"/>
    <path d="M 1869.2505331535492,710.2716558383291 C 1902.6470064786736,738.1020502759327 1913.779164253715,777.0646024885779 1869.2505331535492,821.5932335887436 C 1824.7219020533835,777.0646024885779 1835.8540598284249,738.1020502759327 1869.2505331535492,710.2716558383291 Z" fill="url(#leaf26)" opacity="0.18" transform="rotate(140.7 1869.3 765.9)"/>
    <path d="M 710.7092578994651,339.6537407701427 C 748.8876980604462,371.46910757096026 761.6138447807732,416.0106210921049 710.7092578994651,466.915207973413 C 659.804671018157,416.0106210921049 672.5308177384841,371.46910757096026 710.7092578994651,339.6537407701427 Z" fill="url(#leaf27)" opacity="0.19" transform="rotate(195.5 710.7 403.3)"/>
    <path d="M 314.4885836015186,187.63605158260378 C 357.53492776652996,223.5080050534466 371.8837091548671,273.7287399126265 314.4885836015186,331.12386546597503 C 257.0934580481701,273.7287399126265 271.44223943650724,223.5080050534466 314.4885836015186,187.63605158260378 Z" fill="url(#leaf28)" opacity="0.17" transform="rotate(289.1 314.5 259.4)"/>
    <path d="M 1180.633875636022,449.6293965626411 C 1216.043846998849,479.13770603166364 1227.847170786458,520.4493392882952 1180.633875636022,567.6626344387313 C 1133.4205804855858,520.4493392882952 1145.2239042731949,479.13770603166364 1180.633875636022,449.6293965626411 Z" fill="url(#leaf29)" opacity="0.21" transform="rotate(16.7 1180.6 508.6)"/>
    <path d="M 191.5933869221996,425.9358872956949 C 238.00373882594258,464.61118054881405 253.47385612719023,518.7565911031809 191.5933869221996,580.6370603081715 C 129.712917717209,518.7565911031809 145.18303501845665,464.61118054881405 191.5933869221996,425.9358872956949 Z" fill="url(#leaf0)" opacity="0.21" transform="rotate(36.8 191.6 503.3)"/>
    <path d="M 1376.9677685504719,900.4101083337279 C 1417.9834427364192,934.5898368220172 1431.655334131735,982.4414567056223 1376.9677685504719,1037.1290222868852 C 1322.2802029692089,982.4414567056223 1335.9520943645246,934.5898368220172 1376.9677685504719,900.4101083337279 Z" fill="url(#leaf1)" opacity="0.24" transform="rotate(112.1 1377.0 968.8)"/>
    <path d="M 278.1639138419529,584.0278136571883 C 301.3409183533185,603.3419840833263 309.06658652377376,630.3818226799197 278.1639138419529,661.2844953617405 C 247.26124116013202,630.3818226799197 254.98690933058722,603.3419840833263 278.1639138419529,584.0278136571883 Z" fill="url(#leaf2)" opacity="0.22" transform="rotate(122.2 278.2 622.7)"/>
    <path d="M 1605.2402987769235,261.2119182436728 C 1625.556180244051,278.14181946627906 1632.3281407330935,301.8436811779278 1605.2402987769235,328.9315231340978 C 1578.1524568207535,301.8436811779278 1584.9244173097961,278.14181946627906 1605.2402987769235,261.2119182436728 Z" fill="url(#leaf3)" opacity="0.17" transform="rotate(211.5 1605.2 295.1)"/>
    <path d="M 430.2902474682934,13.321883748822898 C 476.147161851308,51.53597906800174 491.4327999789795,105.03571251485211 430.2902474682934,166.17826502553825 C 369.14769495760726,105.03571251485211 384.4333330852788,51.53597906800174 430.2902474682934,13.321883748822898 Z" fill="url(#leaf4)" opacity="0.22" transform="rotate(28.1 430.3 89.8)"/>
    <path d="M 395.9972604739171,88.9783302082707 C 436.19869957591607,122.47952945993653 449.5991792765824,169.38120841226868 395.9972604739171,222.983127214934 C 342.3953416712518,169.38120841226868 355.7958213719181,122.47952945993653 395.9972604739171,88.9783302082707 Z" fill="url(#leaf5)" opacity="0.21" transform="rotate(26.4 396.0 156.0)"/>
    <path d="M 249.04253134763425,906.0670694958349 C 285.1283461051471,936.1385817937623 297.1569510243181,978.2386990108607 249.04253134763425,1026.3531186875446 C 200.92811167095041,978.2386990108607 212.95671659012137,936.1385817937623 249.04253134763425,906.0670694958349 Z" fill="url(#leaf6)" opacity="0.25" transform="rotate(50.0 249.0 966.2)"/>
    <path d="M 1690.4999723680644,404.92285373993735 C 1729.5731830579907,437.4838626482092 1742.5975866212993,483.06927511978984 1690.4999723680644,535.1668893730248 C 1638.4023581148294,483.06927511978984 1651.426761678138,437.4838626482092 1690.4999723680644,404.92285373993735 Z" fill="url(#leaf7)" opacity="0.18" transform="rotate(239.1 1690.5 470.0)"/>
    <path d="M 691.9866565499574,719.9695959273786 C 719.6527025349715,743.0246342482236 728.8747178633095,775.3016878974066 691.9866565499574,812.1897492107587 C 655.0985952366053,775.3016878974066 664.3206105649433,743.0246342482236 691.9866565499574,719.9695959273786 Z" fill="url(#leaf8)" opacity="0.24" transform="rotate(80.4 692.0 766.1)"/>
    <path d="M 1233.233064038134,541.1631924820016 C 1261.3840852419175,564.6223768184879 1270.767758976512,597.4652348895686 1233.233064038134,634.9999298279466 C 1195.698369099756,597.4652348895686 1205.0820428343504,564.6223768184879 1233.233064038134,541.1631924820016 Z" fill="url(#leaf9)" opacity="0.19" transform="rotate(114.7 1233.2 588.1)"/>
    <path d="M 681.1602612848758,311.2116640403831 C 699.5385361326034,326.5268930801561 705.6646277485127,347.96821373583845 681.1602612848758,372.4725801994754 C 656.6558948212389,347.96821373583845 662.7819864371481,326.5268930801561 681.1602612848758,311.2116640403831 Z" fill="url(#leaf10)" opacity="0.23" transform="rotate(307.4 681.2 341.8)"/>
    <path d="M 278.5450629854528,503.3513886074321 C 308.6326183434668,528.4243514057772 318.6618034628048,563.5264993234601 278.5450629854528,603.6432398008122 C 238.42832250810073,563.5264993234601 248.45750762743873,528.4243514057772 278.5450629854528,503.3513886074321 Z" fill="url(#leaf11)" opacity="0.17" transform="rotate(117.5 278.5 553.5)"/>
    <path d="M 1192.202065928415,512.3253280371796 C 1232.5828192837878,545.9759558333234 1246.0430704022453,593.0868347479249 1192.202065928415,646.927839221755 C 1138.3610614545848,593.0868347479249 1151.8213125730424,545.9759558333234 1192.202065928415,512.3253280371796 Z" fill="url(#leaf12)" opacity="0.19" transform="rotate(65.1 1192.2 579.6)"/>
    <path d="M 1711.8645643436107,152.94777439956908 C 1750.324323414745,184.9975736255144 1763.1442431051232,229.86729254183783 1711.8645643436107,281.1469713033503 C 1660.5848855820982,229.86729254183783 1673.4048052724763,184.9975736255144 1711.8645643436107,152.94777439956908 Z" fill="url(#leaf13)" opacity="0.19" transform="rotate(322.1 1711.9 217.0)"/>
    <path d="M 431.8040199638282,425.39405631426496 C 474.4843835653903,460.9610259822334 488.7111714325777,510.7547835173893 431.8040199638282,567.6619349861388 C 374.89686849507865,510.7547835173893 389.12365636226605,460.9610259822334 431.8040199638282,425.39405631426496 Z" fill="url(#leaf14)" opacity="0.19" transform="rotate(71.5 431.8 496.5)"/>
    <path d="M 1310.054234675663,101.72864993607357 C 1357.6867655515794,141.4224256660037 1373.5642758435513,196.9937116879059 1310.054234675663,260.5037528557941 C 1246.544193507775,196.9937116879059 1262.4217037997469,141.4224256660037 1310.054234675663,101.72864993607357 Z" fill="url(#leaf15)" opacity="0.23" transform="rotate(346.1 1310.1 181.1)"/>
    <path d="M 468.92356996146196,588.5777179196093 C 490.040995402213,606.1755724535685 497.0801372157967,630.8125688011114 468.92356996146196,658.9691360554461 C 440.76700270712723,630.8125688011114 447.8061445207109,606.1755724535685 468.92356996146196,588.5777179196093 Z" fill="url(#leaf16)" opacity="0.23" transform="rotate(154.7 468.9 623.8)"/>
    <path d="M 664.518682955853,835.2799904936916 C 684.4183031502953,851.8630073223935 691.051509881776,875.0792308825761 664.518682955853,901.6120578084991 C 637.98585602993,875.0792308825761 644.6190627614108,851.8630073223935 664.518682955853,835.2799904936916 Z" fill="url(#leaf17)" opacity="0.23" transform="rotate(311.1 664.5 868.4)"/>
    <path d="M 232.72590569758702,309.22034416637297 C 258.6320752833833,330.8088188212032 267.26746514531544,361.0326833379655 232.72590569758702,395.5742427856939 C 198.18434624985863,361.0326833379655 206.81973611179075,330.8088188212032 232.72590569758702,309.22034416637297 Z" fill="url(#leaf18)" opacity="0.18" transform="rotate(114.2 232.7 352.4)"/>
    <path d="M 1805.99424875458,649.1265898772813 C 1845.227744292044,681.8211694918346 1858.3055761378653,727.5935809522093 1805.99424875458,779.9049083354946 C 1753.6829213712947,727.5935809522093 1766.760753217116,681.8211694918346 1805.99424875458,649.1265898772813 Z" fill="url(#leaf19)" opacity="0.18" transform="rotate(320.4 1806.0 714.5)"/>
    <path d="M 1732.3771628482245,789.9364489570146 C 1776.1235091761575,826.3917375636254 1790.7056246188017,877.4291416128805 1732.3771628482245,935.7576033834578 C 1674.0487010776474,877.4291416128805 1688.6308165202915,826.3917375636254 1732.3771628482245,789.9364489570146 Z" fill="url(#leaf20)" opacity="0.23" transform="rotate(289.2 1732.4 862.8)"/>
    <path d="M 561.1325689115904,85.68996353932883 C 583.7460744379505,104.53455147796222 591.2839096134038,130.916974592049 561.1325689115904,161.06831529386244 C 530.981228209777,130.916974592049 538.5190633852303,104.53455147796222 561.1325689115904,85.68996353932883 Z" fill="url(#leaf21)" opacity="0.16" transform="rotate(206.2 561.1 123.4)"/>
    <path d="M 432.5958965536472,53.87052753937333 C 455.97134225013787,73.35006561978221 463.76315748230144,100.62141893235464 432.5958965536472,131.78867986100886 C 401.428635624993,100.62141893235464 409.22045085715655,73.35006561978221 432.5958965536472,53.87052753937333 Z" fill="url(#leaf22)" opacity="0.23" transform="rotate(330.0 432.6 92.8)"/>
    <path d="M 652.0150034957273,349.1597649009386 C 692.0005553798985,382.48105813774794 705.3290726746222,429.130868669281 652.0150034957273,482.444937848176 C 598.7009343168324,429.130868669281 612.0294516115562,382.48105813774794 652.0150034957273,349.1597649009386 Z" fill="url(#leaf23)" opacity="0.18" transform="rotate(198.4 652.0 415.8)"/>
    <path d="M 1234.9359392115982,320.05075176701536 C 1267.7280398659946,347.37750231234565 1278.6587400841267,385.6349530758081 1234.9359392115982,429.35775394833655 C 1191.2131383390697,385.6349530758081 1202.143838557202,347.37750231234565 1234.9359392115982,320.05075176701536 Z" fill="url(#leaf24)" opacity="0.16" transform="rotate(248.1 1234.9 374.7)"/>
    <path d="M 246.0925607399482,78.92340017858677 C 287.2251678293422,113.20057275308177 300.9360368591402,161.18861435737477 246.0925607399482,216.03209047656676 C 191.2490846207562,161.18861435737477 204.9599536505542,113.20057275308177 246.0925607399482,78.92340017858677 Z" fill="url(#leaf25)" opacity="0.17" transform="rotate(168.4 246.1 147.5)"/>
    <path d="M 631.1067333727052,594.8323577885815 C 654.6334090448929,614.4379208487378 662.4756342689554,641.8857091329568 631.1067333727052,673.254610029207 C 599.737832476455,641.8857091329568 607.5800577005175,614.4379208487378 631.1067333727052,594.8323577885815 Z" fill="url(#leaf26)" opacity="0.23" transform="rotate(158.5 631.1 634.0)"/>
    <path d="M 1018.3001164543357,722.7530504260337 C 1043.788759670116,743.9935864391839 1052.284974075376,773.7303368575941 1018.3001164543357,807.7151944786344 C 984.3152588332954,773.7303368575941 992.8114732385554,743.9935864391839 1018.3001164543357,722.7530504260337 Z" fill="url(#leaf27)" opacity="0.16" transform="rotate(82.0 1018.3 765.2)"/>
    <path d="M 208.75585925600626,521.2411703585988 C 247.27124042599343,553.3373213335881 260.1097008159892,598.2719326985731 208.75585925600626,649.625774258556 C 157.40201769602336,598.2719326985731 170.2404780860191,553.3373213335881 208.75585925600626,521.2411703585988 Z" fill="url(#leaf28)" opacity="0.18" transform="rotate(112.9 208.8 585.4)"/>
    <path d="M 539.147751912501,796.6258931193321 C 576.0382930806819,827.3680107594828 588.3351401367422,870.4069754556938 539.147751912501,919.5943636799349 C 489.96036368825986,870.4069754556938 502.25721074432016,827.3680107594828 539.147751912501,796.6258931193321 Z" fill="url(#leaf29)" opacity="0.15" transform="rotate(41.1 539.1 858.1)"/>
    <path d="M 343.20249543260854,61.268168819113924 C 384.9312344942781,96.04211803717187 398.8408141815013,144.725646942453 343.20249543260854,200.36396569134573 C 287.5641766837158,144.725646942453 301.473756370939,96.04211803717187 343.20249543260854,61.268168819113924 Z" fill="url(#leaf0)" opacity="0.23" transform="rotate(229.0 343.2 130.8)"/>
    <path d="M 581.8998910846684,940.3918593390637 C 615.2174048306284,968.1564541273636 626.3232427459484,1007.0268868309836 581.8998910846684,1051.4502384922637 C 537.4765394233884,1007.0268868309836 548.5823773387084,968.1564541273636 581.8998910846684,940.3918593390637 Z" fill="url(#leaf1)" opacity="0.22" transform="rotate(183.9 581.9 995.9)"/>
    <path d="M 1106.0983195654446,906.7402496127747 C 1144.3951176319706,938.6542480015465 1157.1607169874794,983.3338457458269 1106.0983195654446,1034.3962431678617 C 1055.0359221434098,983.3338457458269 1067.8015214989186,938.6542480015465 1106.0983195654446,906.7402496127747 Z" fill="url(#leaf2)" opacity="0.23" transform="rotate(24.6 1106.1 970.6)"/>
    <path d="M 1567.5932141057176,114.02218724942321 C 1612.1320031980085,151.13784482633224 1626.978266228772,203.09976543400484 1567.5932141057176,262.4848175570593 C 1508.2081619826631,203.09976543400484 1523.0544250134267,151.13784482633224 1567.5932141057176,114.02218724942321 Z" fill="url(#leaf3)" opacity="0.24" transform="rotate(210.2 1567.6 188.3)"/>
    <path d="M 188.76316404221967,378.1023487854977 C 223.16588043035625,406.77127910894484 234.6334525597351,446.9077815617709 188.76316404221967,492.7780700792863 C 142.89287552470424,446.9077815617709 154.3604476540831,406.77127910894484 188.76316404221967,378.1023487854977 Z" fill="url(#leaf4)" opacity="0.24" transform="rotate(260.1 188.8 435.4)"/>
    <path d="M 426.74416491539904,425.5617813337774 C 472.8322888963645,463.9685513179152 488.19499689001964,517.7380292957083 426.74416491539904,579.1888612703289 C 365.29333294077844,517.7380292957083 380.6560409344336,463.9685513179152 426.74416491539904,425.5617813337774 Z" fill="url(#leaf5)" opacity="0.15" transform="rotate(153.3 426.7 502.4)"/>
    <path d="M 1639.5540297287198,763.4275682648422 C 1679.5654894515121,796.7704513671691 1692.902642692443,843.4504877104267 1639.5540297287198,896.7991006741497 C 1586.2054167649967,843.4504877104267 1599.5425700059275,796.7704513671691 1639.5540297287198,763.4275682648422 Z" fill="url(#leaf6)" opacity="0.17" transform="rotate(301.6 1639.6 830.1)"/>
    <path d="M 443.2267261653628,468.26983609856575 C 468.5851701850235,489.4018727816163 477.03798485824376,518.9867241378871 443.2267261653628,552.7979828307681 C 409.4154674724818,518.9867241378871 417.86828214570204,489.4018727816163 443.2267261653628,468.26983609856575 Z" fill="url(#leaf7)" opacity="0.18" transform="rotate(324.6 443.2 510.5)"/>
    <path d="M 793.8091825128778,184.1411903330528 C 833.3189727130423,217.06601549985655 846.4889027797637,263.1607707333818 793.8091825128778,315.8404910002678 C 741.1294622459918,263.1607707333818 754.2993923127133,217.06601549985655 793.8091825128778,184.1411903330528 Z" fill="url(#leaf8)" opacity="0.15" transform="rotate(263.4 793.8 250.0)"/>
    <path d="M 217.74692735695396,885.6793903559173 C 247.86161316417795,910.7749618619374 257.89984176658595,945.9087619703654 217.74692735695396,986.0616763799974 C 177.59401294732197,945.9087619703654 187.63224154972997,910.7749618619374 217.74692735695396,885.6793903559173 Z" fill="url(#leaf9)" opacity="0.15" transform="rotate(9.7 217.7 935.9)"/>
    <path d="M 752.0130028621153,957.877068908759 C 789.3429865823774,988.9853886756441 801.7863144891314,1032.5370363492832 752.0130028621153,1082.3103479762995 C 702.2396912350991,1032.5370363492832 714.6830191418532,988.9853886756441 752.0130028621153,957.877068908759 Z" fill="url(#leaf10)" opacity="0.22" transform="rotate(303.9 752.0 1020.1)"/>
    <path d="M 88.24073402204243,120.75053553993365 C 106.27214327602637,135.7767099182536 112.28261302735436,156.81335404790153 88.24073402204243,180.85523305321345 C 64.1988550167305,156.81335404790153 70.2093247680585,135.7767099182536 88.24073402204243,120.75053553993365 Z" fill="url(#leaf11)" opacity="0.17" transform="rotate(71.8 88.2 150.8)"/>
    <path d="M 444.9861178038909,208.7427962817423 C 485.4881874021283,242.49452094694013 498.98887726820743,289.7469354782171 444.9861178038909,343.7496949425336 C 390.9833583395744,289.7469354782171 404.48404820565355,242.49452094694013 444.9861178038909,208.7427962817423 Z" fill="url(#leaf12)" opacity="0.23" transform="rotate(108.0 445.0 276.2)"/>
    <path d="M 1624.0958770298955,773.0007476250382 C 1651.7188334461127,796.0198779718859 1660.9264855848517,828.2466604574726 1624.0958770298955,865.0772690124288 C 1587.2652684749394,828.2466604574726 1596.4729206136783,796.0198779718859 1624.0958770298955,773.0007476250382 Z" fill="url(#leaf13)" opacity="0.24" transform="rotate(116.6 1624.1 819.0)"/>
    <path d="M 103.1310475409818,82.29381987785962 C 130.71561058574054,105.28095574849189 139.91046493399344,137.46294596737707 103.1310475409818,174.2423633603887 C 66.35163014797016,137.46294596737707 75.54648449622307,105.28095574849189 103.1310475409818,82.29381987785962 Z" fill="url(#leaf14)" opacity="0.17" transform="rotate(299.5 103.1 128.3)"/>
    <path d="M 1305.4412788741718,299.7615596077335 C 1339.3673446056441,328.0332810506271 1350.6760331828016,367.61369107067816 1305.4412788741718,412.8484453793079 C 1260.206524565542,367.61369107067816 1271.5152131426994,328.0332810506271 1305.4412788741718,299.7615596077335 Z" fill="url(#leaf15)" opacity="0.18" transform="rotate(272.9 1305.4 356.3)"/>
    <path d="M 1000.490394668222,190.67523959582857 C 1029.0019801904564,214.43489419769043 1038.5058420312012,247.69841064029706 1000.490394668222,285.7138580032761 C 962.4749473052431,247.69841064029706 971.9788091459878,214.43489419769043 1000.490394668222,190.67523959582857 Z" fill="url(#leaf16)" opacity="0.18" transform="rotate(230.0 1000.5 238.2)"/>
    <path d="M 1640.584131766529,303.8820881113968 C 1673.539404757519,331.34481560388826 1684.5244957545153,369.79263409337636 1640.584131766529,413.7329980813628 C 1596.6437677785427,369.79263409337636 1607.6288587755391,331.34481560388826 1640.584131766529,303.8820881113968 Z" fill="url(#leaf17)" opacity="0.15" transform="rotate(155.2 1640.6 358.8)"/>
    <path d="M 840.7183438208607,897.3252821253027 C 861.3393893037727,914.509486694396 868.2130711314101,938.5673730911267 840.7183438208607,966.0621004016759 C 813.2236165103113,938.5673730911267 820.0972983379487,914.509486694396 840.7183438208607,897.3252821253027 Z" fill="url(#leaf18)" opacity="0.15" transform="rotate(327.2 840.7 931.7)"/>
    <path d="M 1697.1079448268738,27.09586533128876 C 1715.9708982182522,42.81499315743743 1722.2585493487118,64.82177211404556 1697.1079448268738,89.97237663588342 C 1671.9573403050358,64.82177211404556 1678.2449914354954,42.81499315743743 1697.1079448268738,27.09586533128876 Z" fill="url(#leaf19)" opacity="0.22" transform="rotate(226.3 1697.1 58.5)"/>
    <path d="M 1417.866163438162,563.0245497415465 C 1447.2922584341577,587.5462955715429 1457.1009567661565,621.8767397335381 1417.866163438162,661.1115330615326 C 1378.6313701101674,621.8767397335381 1388.4400684421662,587.5462955715429 1417.866163438162,563.0245497415465 Z" fill="url(#leaf20)" opacity="0.23" transform="rotate(49.7 1417.9 612.1)"/>
    <path d="M 1003.5667533752338,115.05049541344698 C 1024.2718900744717,132.30477599614514 1031.173602307551,156.46076881192255 1003.5667533752338,184.0676177442396 C 975.9599044429168,156.46076881192255 982.8616166759961,132.30477599614514 1003.5667533752338,115.05049541344698 Z" fill="url(#leaf21)" opacity="0.20" transform="rotate(114.4 1003.6 149.6)"/>
    <path d="M 1164.689027399645,782.8560811313253 C 1196.8211610693472,809.6328591894103 1207.5318722925813,847.1203484707295 1164.689027399645,889.9631933636656 C 1121.8461825067088,847.1203484707295 1132.5568937299429,809.6328591894103 1164.689027399645,782.8560811313253 Z" fill="url(#leaf22)" opacity="0.16" transform="rotate(29.5 1164.7 836.4)"/>
    <path d="M 1103.9176378538,514.479066920691 C 1124.0359806227839,531.244352561511 1130.7420948791118,554.7157524586589 1103.9176378538,581.5402094839709 C 1077.0931808284881,554.7157524586589 1083.799295084816,531.244352561511 1103.9176378538,514.479066920691 Z" fill="url(#leaf23)" opacity="0.24" transform="rotate(14.9 1103.9 548.0)"/>
    <path d="M 739.9817930336072,675.3735510495148 C 785.0618091672412,712.9402311608765 800.0884812117858,765.5335833167827 739.9817930336072,825.6402714949613 C 679.8751048554286,765.5335833167827 694.9017768999732,712.9402311608765 739.9817930336072,675.3735510495148 Z" fill="url(#leaf24)" opacity="0.23" transform="rotate(251.3 740.0 750.5)"/>
    <path d="M 262.352048136662,630.1589472284517 C 281.6365938000925,646.2294019479771 288.0647756879027,668.7280385553127 262.352048136662,694.4407661065533 C 236.63932058542133,668.7280385553127 243.0675024732315,646.2294019479771 262.352048136662,630.1589472284517 Z" fill="url(#leaf25)" opacity="0.15" transform="rotate(238.3 262.4 662.3)"/>
    <path d="M 1819.1558458306915,717.5682666637789 C 1841.1029747147593,735.8575407338353 1848.4186843427817,761.4625244319143 1819.1558458306915,790.7253629440046 C 1789.8930073186013,761.4625244319143 1797.2087169466238,735.8575407338353 1819.1558458306915,717.5682666637789 Z" fill="url(#leaf26)" opacity="0.15" transform="rotate(250.1 1819.2 754.1)"/>
    <path d="M 1431.1093880459482,633.2652619884714 C 1460.3558624957545,657.6373240299766 1470.1046873123569,691.7582108880841 1431.1093880459482,730.7535101544927 C 1392.1140887795395,691.7582108880841 1401.8629135961419,657.6373240299766 1431.1093880459482,633.2652619884714 Z" fill="url(#leaf27)" opacity="0.20" transform="rotate(129.6 1431.1 682.0)"/>
    <path d="M 1094.6198629544701,267.50898571783466 C 1115.9656635472554,285.2971528784891 1123.080930411517,310.2005869034052 1094.6198629544701,338.6616543604523 C 1066.1587954974232,310.2005869034052 1073.2740623616849,285.2971528784891 1094.6198629544701,267.50898571783466 Z" fill="url(#leaf28)" opacity="0.23" transform="rotate(255.1 1094.6 303.1)"/>
    <path d="M 1579.8222770396887,120.3676095780816 C 1604.0909611243017,140.59151298192577 1612.1805224858394,168.90497774730764 1579.8222770396887,201.26322319345832 C 1547.464031593538,168.90497774730764 1555.5535929550758,140.59151298192577 1579.8222770396887,120.3676095780816 Z" fill="url(#leaf29)" opacity="0.23" transform="rotate(182.7 1579.8 160.8)"/>
    <path d="M 156.66559325200762,433.1114993990697 C 180.57432121831016,453.0354393709885 188.5438972070777,480.92895533167484 156.66559325200762,512.8072592867449 C 124.78728929693756,480.92895533167484 132.7568652857051,453.0354393709885 156.66559325200762,433.1114993990697 Z" fill="url(#leaf0)" opacity="0.23" transform="rotate(212.1 156.7 473.0)"/>
    <path d="M 1165.8558174262319,925.908000764858 C 1202.924212446653,956.7983299485421 1215.2803441201265,1000.0447908057 1165.8558174262319,1049.4693174995948 C 1116.4312907323372,1000.0447908057 1128.7874224058107,956.7983299485421 1165.8558174262319,925.908000764858 Z" fill="url(#leaf1)" opacity="0.20" transform="rotate(360.0 1165.9 987.7)"/>
    <path d="M 420.2361272183641,902.2177322235012 C 453.22078256341996,929.7049450110477 464.2156676784386,968.1870429136129 420.2361272183641,1012.1665833736873 C 376.25658675828964,968.1870429136129 387.2514718733083,929.7049450110477 420.2361272183641,902.2177322235012 Z" fill="url(#leaf2)" opacity="0.16" transform="rotate(53.4 420.2 957.2)"/>
    <path d="M 311.0939004962007,661.0850991125302 C 352.26753064036046,695.3964575659966 365.99207402174704,743.4323594008496 311.0939004962007,798.3305329263959 C 256.1957269706544,743.4323594008496 269.920270352041,695.3964575659966 311.0939004962007,661.0850991125302 Z" fill="url(#leaf3)" opacity="0.21" transform="rotate(184.5 311.1 729.7)"/>
    <path d="M 1354.4518713765474,603.3460297443893 C 1391.5848799322714,634.290203540826 1403.9625494508462,677.6120468558375 1354.4518713765474,727.1227249301363 C 1304.9411933022486,677.6120468558375 1317.3188628208234,634.290203540826 1354.4518713765474,603.3460297443893 Z" fill="url(#leaf4)" opacity="0.17" transform="rotate(283.9 1354.5 665.2)"/>
    <path d="M 972.7623319373331,72.91316541882776 C 1014.593331861689,107.7723320224576 1028.536998503141,156.57516526753938 972.7623319373331,212.34983183334714 C 916.9876653715254,156.57516526753938 930.9313320129772,107.7723320224576 972.7623319373331,72.91316541882776 Z" fill="url(#leaf5)" opacity="0.19" transform="rotate(158.3 972.8 142.6)"/>
    <path d="M 801.7190428715402,300.7949295996002 C 849.2813971307385,340.4302248155988 865.1355152171379,395.9196381179969 801.7190428715402,459.33611046359465 C 738.3025705259424,395.9196381179969 754.1566886123419,340.4302248155988 801.7190428715402,300.7949295996002 Z" fill="url(#leaf6)" opacity="0.16" transform="rotate(342.1 801.7 380.1)"/>
    <path d="M 709.8172546788013,869.1835860174536 C 751.76984591187,904.1440787116776 765.7540429895595,953.088768483591 709.8172546788013,1009.0255567943492 C 653.8804663680431,953.088768483591 667.8646634457326,904.1440787116776 709.8172546788013,869.1835860174536 Z" fill="url(#leaf7)" opacity="0.17" transform="rotate(206.8 709.8 939.1)"/>
    <path d="M 1550.7009837047333,349.4360321325246 C 1588.886867263469,381.2576017648042 1601.6154951163808,425.8077992499957 1550.7009837047333,476.72231066164306 C 1499.7864722930858,425.8077992499957 1512.5151001459976,381.2576017648042 1550.7009837047333,349.4360321325246 Z" fill="url(#leaf8)" opacity="0.15" transform="rotate(249.9 1550.7 413.1)"/>
    <path d="M 1584.786614671135,670.668511241217 C 1621.3222495193113,701.114873614697 1633.5007944687034,743.7397809375692 1584.786614671135,792.4539607351373 C 1536.0724348735669,743.7397809375692 1548.250979822959,701.114873614697 1584.786614671135,670.668511241217 Z" fill="url(#leaf9)" opacity="0.25" transform="rotate(292.8 1584.8 731.6)"/>
    <path d="M 1404.551199644707,-1.0945447295008677 C 1446.2990640578505,33.69534228145215 1460.2150188622318,82.40118409678638 1404.551199644707,138.06500331431118 C 1348.887380427182,82.40118409678638 1362.8033352315633,33.69534228145215 1404.551199644707,-1.0945447295008677 Z" fill="url(#leaf10)" opacity="0.22" transform="rotate(209.2 1404.6 68.5)"/>
    <path d="M 1512.8733637524108,513.5951621195406 C 1546.0978238196967,541.2822121756122 1557.1726438421254,580.0440822541125 1512.8733637524108,624.343362343827 C 1468.5740836626962,580.0440822541125 1479.6489036851249,541.2822121756122 1512.8733637524108,513.5951621195406 Z" fill="url(#leaf11)" opacity="0.18" transform="rotate(138.2 1512.9 569.0)"/>
    <path d="M 643.787100680888,738.976490811466 C 675.7159477620748,765.5838633791217 686.3588967891371,802.8341849738397 643.787100680888,845.4059810820888 C 601.2153045726388,802.8341849738397 611.8582535997011,765.5838633791217 643.787100680888,738.976490811466 Z" fill="url(#leaf12)" opacity="0.17" transform="rotate(182.4 643.8 792.2)"/>
    <path d="M 1549.0848243711507,599.0133692717208 C 1589.55794394272,632.740968914695 1603.0489837999096,679.9596084148592 1549.0848243711507,733.9237678436181 C 1495.1206649423918,679.9596084148592 1508.6117047995815,632.740968914695 1549.0848243711507,599.0133692717208 Z" fill="url(#leaf13)" opacity="0.18" transform="rotate(164.9 1549.1 666.5)"/>
    <path d="M 1826.4819664184595,839.7481470498641 C 1851.2556188357887,860.3928573976384 1859.5135029748985,889.2954518845225 1826.4819664184595,922.3269884409616 C 1793.4504298620204,889.2954518845225 1801.7083140011302,860.3928573976384 1826.4819664184595,839.7481470498641 Z" fill="url(#leaf14)" opacity="0.19" transform="rotate(137.6 1826.5 881.0)"/>
    <path d="M 1213.9358814352447,518.5065555336992 C 1245.7688334360444,545.0340155343656 1256.379817436311,582.1724595352985 1213.9358814352447,624.6163955363647 C 1171.4919454341784,582.1724595352985 1182.102929434445,545.0340155343656 1213.9358814352447,518.5065555336992 Z" fill="url(#leaf15)" opacity="0.23" transform="rotate(265.0 1213.9 571.6)"/>
    <path d="M 1282.3784957640498,481.3766134189709 C 1329.5635314395151,520.6974764818588 1345.2918766646703,575.7466847699018 1282.3784957640498,638.6600656705223 C 1219.4651148634293,575.7466847699018 1235.1934600885845,520.6974764818588 1282.3784957640498,481.3766134189709 Z" fill="url(#leaf16)" opacity="0.19" transform="rotate(254.2 1282.4 560.0)"/>
    <path d="M 1523.5789943867119,715.751415248627 C 1562.6542500700027,748.3141283180362 1575.6793352977666,793.9019266152089 1523.5789943867119,846.0022675262636 C 1471.4786534756572,793.9019266152089 1484.503738703421,748.3141283180362 1523.5789943867119,715.751415248627 Z" fill="url(#leaf17)" opacity="0.19" transform="rotate(213.9 1523.6 780.9)"/>
    <path d="M 423.0300932260023,501.07051014644856 C 463.68251980469563,534.9475322953597 477.23332866426006,582.3753633038352 423.0300932260023,636.578598742093 C 368.82685778774453,582.3753633038352 382.37766664730896,534.9475322953597 423.0300932260023,501.07051014644856 Z" fill="url(#leaf18)" opacity="0.16" transform="rotate(136.4 423.0 568.8)"/>
    <path d="M 1553.2076076060732,857.709523580254 C 1580.7744498922866,880.6818921520984 1589.9633973210243,912.8432081526807 1553.2076076060732,949.5989978676319 C 1516.4518178911221,912.8432081526807 1525.6407653198598,880.6818921520984 1553.2076076060732,857.709523580254 Z" fill="url(#leaf19)" opacity="0.17" transform="rotate(340.7 1553.2 903.7)"/>
    <path d="M 119.38617512642054,209.9420776983003 C 138.24910995169282,225.66119005269385 144.53675489345025,247.66794734884485 119.38617512642054,272.81852711587453 C 94.23559535939083,247.66794734884485 100.52324030114826,225.66119005269385 119.38617512642054,209.9420776983003 Z" fill="url(#leaf20)" opacity="0.16" transform="rotate(95.5 119.4 241.4)"/>
    <path d="M 992.8704888898517,953.7542387950391 C 1028.2183367428606,983.2107786725466 1040.0009526938636,1024.449934501057 992.8704888898517,1071.580398305069 C 945.7400250858398,1024.449934501057 957.5226410368427,983.2107786725466 992.8704888898517,953.7542387950391 Z" fill="url(#leaf21)" opacity="0.23" transform="rotate(150.1 992.9 1012.7)"/>
    <path d="M 1278.8743350246912,511.2391797545807 C 1306.7388180627265,534.4595822862767 1316.0269790754048,566.9681458306512 1278.8743350246912,604.1207898813649 C 1241.7216909739775,566.9681458306512 1251.0098519866558,534.4595822862767 1278.8743350246912,511.2391797545807 Z" fill="url(#leaf22)" opacity="0.22" transform="rotate(87.1 1278.9 557.7)"/>
    <path d="M 498.605147140296,443.9053657338698 C 519.4733478090327,461.29553295781704 526.4294146986116,485.64176707134317 498.605147140296,513.4660346296587 C 470.78087958198046,485.64176707134317 477.73694647155935,461.29553295781704 498.605147140296,443.9053657338698 Z" fill="url(#leaf23)" opacity="0.20" transform="rotate(154.5 498.6 478.7)"/>
    <path d="M 1181.0018303849909,506.44761006375944 C 1211.7496924364698,532.0708284399919 1221.998979786963,567.9433341667175 1181.0018303849909,608.9404835686896 C 1140.0046809830187,567.9433341667175 1150.253968333512,532.0708284399919 1181.0018303849909,506.44761006375944 Z" fill="url(#leaf24)" opacity="0.16" transform="rotate(114.2 1181.0 557.7)"/>
    <path d="M 1783.7374014172783,820.6079955874336 C 1821.2234024630939,851.8463297922799 1833.7187361450324,895.5799976790646 1783.7374014172783,945.5613324068186 C 1733.7560666895242,895.5799976790646 1746.2514003714628,851.8463297922799 1783.7374014172783,820.6079955874336 Z" fill="url(#leaf25)" opacity="0.20" transform="rotate(41.8 1783.7 883.1)"/>
    <path d="M 1424.7600685595858,495.43369863599355 C 1455.5907171016713,521.1259057543982 1465.8675999490333,557.0949957201648 1424.7600685595858,598.2025271096122 C 1383.6525371701382,557.0949957201648 1393.9294200175002,521.1259057543982 1424.7600685595858,495.43369863599355 Z" fill="url(#leaf26)" opacity="0.19" transform="rotate(316.4 1424.8 546.8)"/>
    <path d="M 1496.8686483285321,330.32290206634195 C 1536.078516237891,362.9977919908077 1549.1484722076773,408.7426378850597 1496.8686483285321,461.0224617642049 C 1444.588824449387,408.7426378850597 1457.6587804191731,362.9977919908077 1496.8686483285321,330.32290206634195 Z" fill="url(#leaf27)" opacity="0.17" transform="rotate(68.8 1496.9 395.7)"/>
    <path d="M 1863.6068025781974,262.83854838296867 C 1910.7127422980482,302.09349814951094 1926.414722204665,357.05042782267003 1863.6068025781974,419.8583474491376 C 1800.7988829517299,357.05042782267003 1816.5008628583466,302.09349814951094 1863.6068025781974,262.83854838296867 Z" fill="url(#leaf28)" opacity="0.17" transform="rotate(6.4 1863.6 341.3)"/>
    <path d="M 979.0707461189526,241.63240329799453 C 999.1262864555418,258.34535357848563 1005.8114665677383,281.7434839711732 979.0707461189526,308.4842044199589 C 952.3300256701668,281.7434839711732 959.0152057823633,258.34535357848563 979.0707461189526,241.63240329799453 Z" fill="url(#leaf29)" opacity="0.22" transform="rotate(278.2 979.1 275.1)"/>
    <path d="M 1660.3127430780396,375.09563676008247 C 1678.8189580711107,390.51748258764167 1684.9876964021344,412.10806674622455 1660.3127430780396,436.78302007031925 C 1635.6377897539448,412.10806674622455 1641.8065280849685,390.51748258764167 1660.3127430780396,375.09563676008247 Z" fill="url(#leaf0)" opacity="0.21" transform="rotate(135.0 1660.3 405.9)"/>
    <path d="M 787.9638107945566,67.38245042885184 C 834.0076039158765,105.75227802995181 849.3555349563165,159.47003667149178 787.9638107945566,220.86176083325176 C 726.5720866327966,159.47003667149178 741.9200176732367,105.75227802995181 787.9638107945566,67.38245042885184 Z" fill="url(#leaf1)" opacity="0.15" transform="rotate(159.0 788.0 144.1)"/>
    <path d="M 1049.263323390457,414.5584609748406 C 1074.4435248230586,435.5419621686754 1082.8369253005926,464.9188638400442 1049.263323390457,498.4924657501799 C 1015.6897214803212,464.9188638400442 1024.0831219578552,435.5419621686754 1049.263323390457,414.5584609748406 Z" fill="url(#leaf2)" opacity="0.16" transform="rotate(208.7 1049.3 456.5)"/>
    <path d="M 1866.186127350698,846.0666495045256 C 1907.0524417350694,880.1219114915017 1920.6745465298598,927.7992782732684 1866.186127350698,982.2876974524303 C 1811.697708171536,927.7992782732684 1825.3198129663265,880.1219114915017 1866.186127350698,846.0666495045256 Z" fill="url(#leaf3)" opacity="0.19" transform="rotate(120.7 1866.2 914.2)"/>
    <path d="M 1750.3442301685482,530.9085372340297 C 1783.9001384776686,558.8717941582968 1795.0854412473755,598.0203538522707 1750.3442301685482,642.761564931098 C 1705.6030190897209,598.0203538522707 1716.7883218594277,558.8717941582968 1750.3442301685482,530.9085372340297 Z" fill="url(#leaf4)" opacity="0.16" transform="rotate(268.1 1750.3 586.8)"/>
    <path d="M 1197.9917102659817,368.82298606736873 C 1225.0350911992177,391.35913684506545 1234.0495515102964,422.90974793384083 1197.9917102659817,458.9675891781556 C 1161.933869021667,422.90974793384083 1170.9483293327457,391.35913684506545 1197.9917102659817,368.82298606736873 Z" fill="url(#leaf5)" opacity="0.24" transform="rotate(176.6 1198.0 413.9)"/>
    <path d="M 304.5512566479613,236.21286713622683 C 345.8221200461688,270.6052533013997 359.5790745122379,318.7545939326418 304.5512566479613,373.7824117969185 C 249.52343878368464,318.7545939326418 263.2803932497538,270.6052533013997 304.5512566479613,236.21286713622683 Z" fill="url(#leaf6)" opacity="0.19" transform="rotate(156.2 304.6 305.0)"/>
    <path d="M 1486.525276315572,787.1604317467944 C 1512.820104211653,809.0727883268619 1521.5850468436797,839.7500875389562 1486.525276315572,874.809858067064 C 1451.4655057874643,839.7500875389562 1460.230448419491,809.0727883268619 1486.525276315572,787.1604317467944 Z" fill="url(#leaf7)" opacity="0.20" transform="rotate(167.8 1486.5 831.0)"/>
    <path d="M 510.25521235806275,279.72618289211147 C 550.1895562979989,313.0048028420583 563.5010042779777,359.59487077198384 510.25521235806275,412.8406626918988 C 457.0094204381478,359.59487077198384 470.32086841812657,313.0048028420583 510.25521235806275,279.72618289211147 Z" fill="url(#leaf8)" opacity="0.24" transform="rotate(92.9 510.3 346.3)"/>
    <path d="M 1643.215936717599,232.28124815006643 C 1681.2459304338345,263.9729095802626 1693.922595005913,308.34123558253725 1643.215936717599,359.0478938708511 C 1592.5092784292851,308.34123558253725 1605.1859430013637,263.9729095802626 1643.215936717599,232.28124815006643 Z" fill="url(#leaf9)" opacity="0.20" transform="rotate(0.4 1643.2 295.7)"/>
    <path d="M 941.1324566801399,237.4385109206211 C 965.5237264151306,257.76456903311333 973.6541496601274,286.22105039060244 941.1324566801399,318.74274337059 C 908.6107637001523,286.22105039060244 916.7411869451491,257.76456903311333 941.1324566801399,237.4385109206211 Z" fill="url(#leaf10)" opacity="0.16" transform="rotate(14.3 941.1 278.1)"/>
    <path d="M 1024.516267785695,463.31610244581725 C 1058.578877310451,491.701610383114 1069.9330804853696,531.4413214953294 1024.516267785695,576.8581341950041 C 979.0994550860202,531.4413214953294 990.4536582609388,491.701610383114 1024.516267785695,463.31610244581725 Z" fill="url(#leaf11)" opacity="0.17" transform="rotate(216.6 1024.5 520.1)"/>
    <path d="M 1498.2699618656886,157.24694548535427 C 1542.7281203069315,194.29541085305675 1557.5475064540126,246.1632623678402 1498.2699618656886,305.4408069561641 C 1438.9924172773647,246.1632623678402 1453.8118034244458,194.29541085305675 1498.2699618656886,157.24694548535427 Z" fill="url(#leaf12)" opacity="0.18" transform="rotate(99.7 1498.3 231.3)"/>
    <path d="M 455.8905344592848,544.3064357840767 C 488.9071518925881,571.8202836451627 499.9126910370225,610.3396706506833 455.8905344592848,654.3618272284209 C 411.86837788154713,610.3396706506833 422.87391702598154,571.8202836451627 455.8905344592848,544.3064357840767 Z" fill="url(#leaf13)" opacity="0.22" transform="rotate(246.0 455.9 599.3)"/>
    <path d="M 157.0429816113217,14.41827777084255 C 204.88692242570576,54.288228449495946 220.83490269716714,110.1061593996107 157.0429816113217,173.89808048545615 C 93.25106052547625,110.1061593996107 109.19904079693762,54.288228449495946 157.0429816113217,14.41827777084255 Z" fill="url(#leaf14)" opacity="0.19" transform="rotate(307.6 157.0 94.2)"/>
    <path d="M 1637.695420624555,986.8276577741891 C 1662.7369767561556,1007.6956212171895 1671.0841621333557,1036.9107700373902 1637.695420624555,1070.2995115461908 C 1604.3066791157544,1036.9107700373902 1612.6538644929544,1007.6956212171895 1637.695420624555,986.8276577741891 Z" fill="url(#leaf15)" opacity="0.22" transform="rotate(229.9 1637.7 1028.6)"/>
    <path d="M 1109.7792515292854,267.82243028980014 C 1156.4389983830108,306.7055526679047 1171.9922473342526,361.1419239972511 1109.7792515292854,423.3549198022185 C 1047.5662557243181,361.1419239972511 1063.11950467556,306.7055526679047 1109.7792515292854,267.82243028980014 Z" fill="url(#leaf16)" opacity="0.20" transform="rotate(124.5 1109.8 345.6)"/>
    <path d="M 1702.8283628768143,778.2614402688425 C 1745.2701995502491,813.629637496705 1759.4174784413942,863.1451136157124 1702.8283628768143,919.7342291802922 C 1646.2392473122343,863.1451136157124 1660.3865262033794,813.629637496705 1702.8283628768143,778.2614402688425 Z" fill="url(#leaf17)" opacity="0.23" transform="rotate(323.6 1702.8 849.0)"/>
    <path d="M 1686.0013841155394,878.2116493724918 C 1708.81199573025,897.2204923847505 1716.4155329351534,923.8328726019129 1686.0013841155394,954.2470214215268 C 1655.5872352959254,923.8328726019129 1663.1907725008289,897.2204923847505 1686.0013841155394,878.2116493724918 Z" fill="url(#leaf18)" opacity="0.15" transform="rotate(240.8 1686.0 916.2)"/>
    <path d="M 298.40083723435055,290.3802105726862 C 326.0249782365249,313.40032807449813 335.23302523724965,345.6284925770349 298.40083723435055,382.460680579934 C 261.56864923145145,345.6284925770349 270.7766962321762,313.40032807449813 298.40083723435055,290.3802105726862 Z" fill="url(#leaf19)" opacity="0.21" transform="rotate(142.1 298.4 336.4)"/>
    <path d="M 1231.0077263584303,77.3337510039463 C 1277.1846954229084,115.81455855767793 1292.577018444401,169.6876891329022 1231.0077263584303,231.2569812188728 C 1169.4384342724597,169.6876891329022 1184.8307572939523,115.81455855767793 1231.0077263584303,77.3337510039463 Z" fill="url(#leaf20)" opacity="0.20" transform="rotate(176.8 1231.0 154.3)"/>
    <path d="M 164.94650650117174,765.0297469065482 C 185.45723679783273,782.1220221537658 192.29414689671975,806.0512074998702 164.94650650117174,833.3988478954183 C 137.59886610562373,806.0512074998702 144.43577620451074,782.1220221537658 164.94650650117174,765.0297469065482 Z" fill="url(#leaf21)" opacity="0.16" transform="rotate(266.0 164.9 799.2)"/>
    <path d="M 780.6519907513166,-6.734014886458169 C 826.3602828457571,31.356228525575602 841.5963802105706,84.68256930242288 780.6519907513166,145.62695876167692 C 719.7076012920626,84.68256930242288 734.9436986568761,31.356228525575602 780.6519907513166,-6.734014886458169 Z" fill="url(#leaf22)" opacity="0.18" transform="rotate(264.6 780.7 69.4)"/>
    <path d="M 785.6851442132032,982.6022073934744 C 806.2900511402732,999.7729631660327 813.1583534492966,1023.8120212476143 785.6851442132032,1051.2852304837077 C 758.2119349771099,1023.8120212476143 765.0802372861332,999.7729631660327 785.6851442132032,982.6022073934744 Z" fill="url(#leaf23)" opacity="0.16" transform="rotate(205.6 785.7 1016.9)"/>
    <path d="M 605.2182274832868,207.67510682517576 C 627.2182025613472,226.00841939022612 634.5515275873673,251.67505698129662 605.2182274832868,281.0083570853772 C 575.8849273792063,251.67505698129662 583.2182524052264,226.00841939022612 605.2182274832868,207.67510682517576 Z" fill="url(#leaf24)" opacity="0.19" transform="rotate(150.2 605.2 244.3)"/>
    <path d="M 1563.9277505665225,330.6764313486205 C 1599.2297271032446,360.0947451292223 1610.9970526154855,401.28038442206486 1563.9277505665225,448.3496864710277 C 1516.8584485175595,401.28038442206486 1528.6257740298004,360.0947451292223 1563.9277505665225,330.6764313486205 Z" fill="url(#leaf25)" opacity="0.22" transform="rotate(333.0 1563.9 389.5)"/>
    <path d="M 577.6184884959974,402.23891699752653 C 622.8009015817598,439.8909279023285 637.8617059436806,492.6037431690512 577.6184884959974,552.8469606167343 C 517.3752710483143,492.6037431690512 532.436075410235,439.8909279023285 577.6184884959974,402.23891699752653 Z" fill="url(#leaf26)" opacity="0.24" transform="rotate(62.7 577.6 477.5)"/>
    <path d="M 724.7217193375769,906.6220185232427 C 772.0546065878372,946.0660912317928 787.8322356712573,1001.2877930237631 724.7217193375769,1064.3983093574436 C 661.6112030038965,1001.2877930237631 677.3888320873167,946.0660912317928 724.7217193375769,906.6220185232427 Z" fill="url(#leaf27)" opacity="0.22" transform="rotate(246.4 724.7 985.5)"/>
    <path d="M 1391.0980754756656,686.3676091171296 C 1435.6338856021746,723.4807842225538 1450.4791556443442,775.4392293701476 1391.0980754756656,834.8203095388262 C 1331.716995306987,775.4392293701476 1346.5622653491566,723.4807842225538 1391.0980754756656,686.3676091171296 Z" fill="url(#leaf28)" opacity="0.24" transform="rotate(249.2 1391.1 760.6)"/>
    <path d="M 348.7177251421882,110.29104071219656 C 393.32411381991517,147.46303127696905 408.1929100458242,199.5038180676505 348.7177251421882,258.9790029712865 C 289.24254023855224,199.5038180676505 304.11133646446126,147.46303127696905 348.7177251421882,110.29104071219656 Z" fill="url(#leaf29)" opacity="0.20" transform="rotate(350.0 348.7 184.6)"/>
    <path d="M 1812.0060055070985,62.92444299699687 C 1832.0203073665139,79.60302787984293 1838.6917413196522,102.9530467158274 1812.0060055070985,129.63878252838109 C 1785.3202696945448,102.9530467158274 1791.9917036476832,79.60302787984293 1812.0060055070985,62.92444299699687 Z" fill="url(#leaf0)" opacity="0.17" transform="rotate(130.6 1812.0 96.3)"/>
    <path d="M 1384.2700200856211,749.1231697602434 C 1402.4937656098894,764.3096243638001 1408.5683474513119,785.5706608087796 1384.2700200856211,809.8689881744704 C 1359.9716927199304,785.5706608087796 1366.046274561353,764.3096243638001 1384.2700200856211,749.1231697602434 Z" fill="url(#leaf1)" opacity="0.22" transform="rotate(293.7 1384.3 779.5)"/>
    <path d="M 1749.468644478973,789.5604245656557 C 1768.7706052557646,805.6453918796487 1775.204592181362,828.164346119239 1749.468644478973,853.9002938216279 C 1723.732696776584,828.164346119239 1730.1666837021812,805.6453918796487 1749.468644478973,789.5604245656557 Z" fill="url(#leaf2)" opacity="0.24" transform="rotate(239.2 1749.5 821.7)"/>
    <path d="M 1781.4338169723162,477.11891830313033 C 1802.930437742237,495.03276894473106 1810.0959779988773,520.112159842972 1781.4338169723162,548.7743208695331 C 1752.7716559457551,520.112159842972 1759.9371962023954,495.03276894473106 1781.4338169723162,477.11891830313033 Z" fill="url(#leaf3)" opacity="0.15" transform="rotate(191.4 1781.4 512.9)"/>
    <path d="M 1571.0066804299809,197.55574088365717 C 1601.331097359434,222.82608832486804 1611.4392363359182,258.20457474256324 1571.0066804299809,298.63713064850066 C 1530.5741245240436,258.20457474256324 1540.6822635005278,222.82608832486804 1571.0066804299809,197.55574088365717 Z" fill="url(#leaf4)" opacity="0.15" transform="rotate(285.0 1571.0 248.1)"/>
    <path d="M 1491.7848718420732,55.57736193744043 C 1515.2333695062846,75.1177766576165 1523.049535394355,102.474357265863 1491.7848718420732,133.73902081814472 C 1460.5202082897915,102.474357265863 1468.336374177862,75.1177766576165 1491.7848718420732,55.57736193744043 Z" fill="url(#leaf5)" opacity="0.22" transform="rotate(49.6 1491.8 94.7)"/>
    <path d="M 758.5868101679519,291.65437124139044 C 780.4212476543951,309.8497358134265 787.6993934832095,335.323246214277 758.5868101679519,364.43582952953466 C 729.4742268526942,335.323246214277 736.7523726815086,309.8497358134265 758.5868101679519,291.65437124139044 Z" fill="url(#leaf6)" opacity="0.18" transform="rotate(317.2 758.6 328.0)"/>
    <path d="M 103.93032868032668,219.56805778900534 C 140.291044270998,249.86865411456478 152.41128280122177,292.289488970348 103.93032868032668,340.770443091243 C 55.4493745594316,292.289488970348 67.56961308965538,249.86865411456478 103.93032868032668,219.56805778900534 Z" fill="url(#leaf7)" opacity="0.24" transform="rotate(204.6 103.9 280.2)"/>
    <path d="M 1428.1967419792627,79.127721279055 C 1471.4191679588944,115.14640959541475 1485.8266432854384,165.57257323831843 1428.1967419792627,223.20247454449407 C 1370.566840673087,165.57257323831843 1384.974315999631,115.14640959541475 1428.1967419792627,79.127721279055 Z" fill="url(#leaf8)" opacity="0.24" transform="rotate(91.7 1428.2 151.2)"/>
    <path d="M 1801.0408110398598,332.49964763615765 C 1837.3114100278005,362.7251467927749 1849.4016096904475,405.04084561203916 1801.0408110398598,453.40164426262686 C 1752.6800123892722,405.04084561203916 1764.770212051919,362.7251467927749 1801.0408110398598,332.49964763615765 Z" fill="url(#leaf9)" opacity="0.19" transform="rotate(306.2 1801.0 393.0)"/>
    <path d="M 479.7446898413852,127.35268810330025 C 505.65436736096893,148.9440860362867 514.2909265341635,179.17204314246777 479.7446898413852,213.7182798352461 C 445.19845314860686,179.17204314246777 453.83501232180146,148.9440860362867 479.7446898413852,127.35268810330025 Z" fill="url(#leaf10)" opacity="0.23" transform="rotate(157.5 479.7 170.5)"/>
    <path d="M 1040.6411726349559,223.5602930108052 C 1065.636260525712,244.38953291976875 1073.9679564892976,273.55046879231776 1040.6411726349559,306.87725264665943 C 1007.3143887806142,273.55046879231776 1015.6460847441996,244.38953291976875 1040.6411726349559,223.5602930108052 Z" fill="url(#leaf11)" opacity="0.20" transform="rotate(358.2 1040.6 265.2)"/>
    <path d="M 1387.7704170711347,668.1124247327273 C 1430.9010185041836,704.0545925936013 1445.2778856485334,754.373627598825 1387.7704170711347,811.8810961762235 C 1330.262948493736,754.373627598825 1344.6398156380858,704.0545925936013 1387.7704170711347,668.1124247327273 Z" fill="url(#leaf12)" opacity="0.17" transform="rotate(149.6 1387.8 740.0)"/>
    <path d="M 956.8427966826227,435.20248823312176 C 990.6109553327207,463.3426204415367 1001.8670082160867,502.7388055333177 956.8427966826227,547.7630170667816 C 911.8185851491588,502.7388055333177 923.0746380325248,463.3426204415367 956.8427966826227,435.20248823312176 Z" fill="url(#leaf13)" opacity="0.22" transform="rotate(283.6 956.8 491.5)"/>
    <path d="M 207.849250243696,242.8765279627899 C 249.62501847078386,277.6896681520298 263.55027454647984,326.4280644169657 207.849250243696,382.1290887197495 C 152.14822594091214,326.4280644169657 166.07348201660812,277.6896681520298 207.849250243696,242.8765279627899 Z" fill="url(#leaf14)" opacity="0.24" transform="rotate(52.7 207.8 312.5)"/>
    </g>

    <!-- Text with SOLID fill only (ThorVG compatible) -->
    <text x="820.0" y="918.5"
          font-family="Arial, Helvetica, sans-serif"
          font-size="1080px"
          font-weight="bold"
          fill="#96E6A1"
          text-anchor="middle"
          transform="rotate(13.0 960.0 540.0)">
      U
    </text>
  </g>

  <!-- Frame counter -->
  <text x="960.0" y="1050.0"
        font-family="monospace"
        font-size="24px"
        fill="#FFFFFF"
        text-anchor="middle"
        opacity="0.7">
    Frame 00066 - Compatible
  </text>
</svg>