<?xml version="1.0" encoding="UTF-8"?>
<svg xmlns="http://www.w3.org/2000/svg" viewBox="0 0 1920 1080" width="1920" height="1080">
  <defs>
    <linearGradient id="bgGrad" x1="0%" y1="0%" x2="100%" y2="100%">
      <stop offset="0%" stop-color="#00CED1"/>
      <stop offset="100%" stop-color="#45B7D1"/>
    </linearGradient>
    <clipPath id="complexClip"><polygon points="1622.8,540.0 1543.0,581.4 1566.0,627.5 1485.9,657.1 1485.3,702.4 1387.8,714.8 1438.1,792.6 1360.7,812.5 1297.9,839.5 1226.5,858.5 1143.8,858.2 1059.8,834.3 997.5,874.9 918.9,907.6 870.0,805.4 759.9,886.4 769.1,768.2 643.2,820.8 559.0,812.7 662.0,697.4 506.3,725.4 471.5,691.1 430.4,657.9 431.5,616.3 342.1,583.9 484.6,540.0 452.8,504.0 440.9,465.0 473.5,431.6 401.0,367.1 583.9,386.3 537.0,316.6 560.3,268.2 731.8,337.7 747.3,285.7 783.2,233.9 861.5,249.6 919.4,176.8 991.6,257.2 1061.3,241.3 1156.2,200.4 1238.4,207.2 1174.7,349.7 1256.1,338.7 1263.4,379.7 1401.6,359.5 1314.0,430.5 1571.6,403.8 1499.2,462.1 1551.1,498.0"/></clipPath>
    <radialGradient id="leaf0" cx="50%" cy="50%" r="70%">
      <stop offset="0%" stop-color="#9370DB"/>
      <stop offset="50%" stop-color="#00FA9A"/>
      <stop offset="100%" stop-color="#FF4500"/>
    </radialGradient>
    <radialGradient id="leaf1" cx="50%" cy="50%" r="70%">
      <stop offset="0%" stop-color="#32CD32"/>
      <stop offset="50%" stop-color="#FF69B4"/>
      <stop offset="100%" stop-color="#7B68EE"/>
    </radialGradient>
    <radialGradient id="leaf2" cx="50%" cy="50%" r="70%">
      <stop offset="0%" stop-color="#FFD700"/>
      <stop offset="50%" stop-color="#00CED1"/>
      <stop offset="100%" stop-color="#FF1493"/>
    </radialGradient>
    <radialGradient id="leaf3" cx="50%" cy="50%" r="70%">
      <stop offset="0%" stop-color="#00CED1"/>
      <stop offset="50%" stop-color="#9370DB"/>
      <stop offset="100%" stop-color="#7B68EE"/>
    </radialGradient>
    <radialGradient id="leaf4" cx="50%" cy="50%" r="70%">
      <stop offset="0%" stop-color="#00FA9A"/>
      <stop offset="50%" stop-color="#FF69B4"/>
      <stop offset="100%" stop-color="#FF6B6B"/>
    </radialGradient>
    <radialGradient id="leaf5" cx="50%" cy="50%" r="70%">
      <stop offset="0%" stop-color="#DC143C"/>
      <stop offset="50%" stop-color="#FFD700"/>
      <stop offset="100%" stop-color="#00FA9A"/>
    </radialGradient>
    <radialGradient id="leaf6" cx="50%" cy="50%" r="70%">
      <stop offset="0%" stop-color="#7B68EE"/>
      <stop offset="50%" stop-color="#FF4500"/>
      <stop offset="100%" stop-color="#9370DB"/>
    </radialGradient>
    <radialGradient id="leaf7" cx="50%" cy="50%" r="70%">
      <stop offset="0%" stop-color="#FFE66D"/>
      <stop offset="50%" stop-color="#FF69B4"/>
      <stop offset="100%" stop-color="#45B7D1"/>
    </radialGradient>
    <radialGradient id="leaf8" cx="50%" cy="50%" r="70%">
      <stop offset="0%" stop-color="#32CD32"/>
      <stop offset="50%" stop-color="#FF6B6B"/>
      <stop offset="100%" stop-color="#FF69B4"/>
    </radialGradient>
    <radialGradient id="leaf9" cx="50%" cy="50%" r="70%">
      <stop offset="0%" stop-color="#32CD32"/>
      <stop offset="50%" stop-color="#FF69B4"/>
      <stop offset="100%" stop-color="#FF6B6B"/>
    </radialGradient>
    <radialGradient id="leaf10" cx="50%" cy="50%" r="70%">
      <stop offset="0%" stop-color="#FF6B6B"/>
      <stop offset="50%" stop-color="#32CD32"/>
      <stop offset="100%" stop-color="#FFE66D"/>
    </radialGradient>
    <radialGradient id="leaf11" cx="50%" cy="50%" r="70%">
      <stop offset="0%" stop-color="#7B68EE"/>
      <stop offset="50%" stop-color="#FF4500"/>
      <stop offset="100%" stop-color="#9370DB"/>
    </radialGradient>
    <radialGradient id="leaf12" cx="50%" cy="50%" r="70%">
      <stop offset="0%" stop-color="#45B7D1"/>
      <stop offset="50%" stop-color="#4ECDC4"/>
      <stop offset="100%" stop-color="#FF6B6B"/>
    </radialGradient>
    <radialGradient id="leaf13" cx="50%" cy="50%" r="70%">
      <stop offset="0%" stop-color="#7B68EE"/>
      <stop offset="50%" stop-color="#DC143C"/>
      <stop offset="100%" stop-color="#00CED1"/>
    </radialGradient>
    <radialGradient id="leaf14" cx="50%" cy="50%" r="70%">
      <stop offset="0%" stop-color="#FF69B4"/>
      <stop offset="50%" stop-color="#00CED1"/>
      <stop offset="100%" stop-color="#9370DB"/>
    </radialGradient>
    <radialGradient id="leaf15" cx="50%" cy="50%" r="70%">
      <stop offset="0%" stop-color="#4ECDC4"/>
      <stop offset="50%" stop-color="#7B68EE"/>
      <stop offset="100%" stop-color="#96E6A1"/>
    </radialGradient>
    <radialGradient id="leaf16" cx="50%" cy="50%" r="70%">
      <stop offset="0%" stop-color="#7B68EE"/>
      <stop offset="50%" stop-color="#32CD32"/>
      <stop offset="100%" stop-color="#FF1493"/>
    </radialGradient>
    <radialGradient id="leaf17" cx="50%" cy="50%" r="70%">
      <stop offset="0%" stop-color="#00FA9A"/>
      <stop offset="50%" stop-color="#45B7D1"/>
      <stop offset="100%" stop-color="#4ECDC4"/>
    </radialGradient>
    <radialGradient id="leaf18" cx="50%" cy="50%" r="70%">
      <stop offset="0%" stop-color="#00CED1"/>
      <stop offset="50%" stop-color="#FF69B4"/>
      <stop offset="100%" stop-color="#9370DB"/>
    </radialGradient>
    <radialGradient id="leaf19" cx="50%" cy="50%" r="70%">
      <stop offset="0%" stop-color="#DC143C"/>
      <stop offset="50%" stop-color="#4ECDC4"/>
      <stop offset="100%" stop-color="#FFE66D"/>
    </radialGradient>
    <radialGradient id="leaf20" cx="50%" cy="50%" r="70%">
      <stop offset="0%" stop-color="#FFE66D"/>
      <stop offset="50%" stop-color="#4ECDC4"/>
      <stop offset="100%" stop-color="#00FA9A"/>
    </radialGradient>
    <radialGradient id="leaf21" cx="50%" cy="50%" r="70%">
      <stop offset="0%" stop-color="#FF6B6B"/>
      <stop offset="50%" stop-color="#FF1493"/>
      <stop offset="100%" stop-color="#96E6A1"/>
    </radialGradient>
    <radialGradient id="leaf22" cx="50%" cy="50%" r="70%">
      <stop offset="0%" stop-color="#FF69B4"/>
      <stop offset="50%" stop-color="#FF6B6B"/>
      <stop offset="100%" stop-color="#FFD700"/>
    </radialGradient>
    <radialGradient id="leaf23" cx="50%" cy="50%" r="70%">
      <stop offset="0%" stop-color="#FF6B6B"/>
      <stop offset="50%" stop-color="#FF69B4"/>
      <stop offset="100%" stop-color="#FFE66D"/>
    </radialGradient>
    <radialGradient id="leaf24" cx="50%" cy="50%" r="70%">
      <stop offset="0%" stop-color="#9370DB"/>
      <stop offset="50%" stop-color="#FFD700"/>
      <stop offset="100%" stop-color="#00CED1"/>
    </radialGradient>
    <radialGradient id="leaf25" cx="50%" cy="50%" r="70%">
      <stop offset="0%" stop-color="#7B68EE"/>
      <stop offset="50%" stop-color="#45B7D1"/>
      <stop offset="100%" stop-color="#4ECDC4"/>
    </radialGradient>
    <radialGradient id="leaf26" cx="50%" cy="50%" r="70%">
      <stop offset="0%" stop-color="#7B68EE"/>
      <stop offset="50%" stop-color="#4ECDC4"/>
      <stop offset="100%" stop-color="#96E6A1"/>
    </radialGradient>
    <radialGradient id="leaf27" cx="50%" cy="50%" r="70%">
      <stop offset="0%" stop-color="#FF6B6B"/>
      <stop offset="50%" stop-color="#FFD700"/>
      <stop offset="100%" stop-color="#DC143C"/>
    </radialGradient>
    <radialGradient id="leaf28" cx="50%" cy="50%" r="70%">
      <stop offset="0%" stop-color="#FF6B6B"/>
      <stop offset="50%" stop-color="#00FA9A"/>
      <stop offset="100%" stop-color="#FFE66D"/>
    </radialGradient>
    <radialGradient id="leaf29" cx="50%" cy="50%" r="70%">
      <stop offset="0%" stop-color="#9370DB"/>
      <stop offset="50%" stop-color="#FF69B4"/>
      <stop offset="100%" stop-color="#00FA9A"/>
    </radialGradient>
  </defs>

  <!-- Scaled content -->
  <g transform="translate(960.0,540.0) scale(3.0) translate(-960.0,-540.0)">
    <!-- Background -->
    <rect width="1920" height="1080" fill="url(#bgGrad)"/>
    
    <!-- Leaves with clip-path -->
    <g clip-path="url(#complexClip)">
    <path d="M 826.3740666858587,743.1667431474201 C 854.390395103941,766.5136834958221 863.7291712433018,799.1993999835848 826.3740666858587,836.554504541028 C 789.0189621284155,799.1993999835848 798.3577382677763,766.5136834958221 826.3740666858587,743.1667431474201 Z" fill="url(#leaf0)" opacity="0.18" transform="rotate(111.3 826.4 789.9)"/>
    <path d="M 1524.8207158275234,584.0127911112294 C 1546.401556623851,601.9968251081692 1553.595170222627,627.174472703885 1524.8207158275234,655.9489270989887 C 1496.0462614324197,627.174472703885 1503.2398750311957,601.9968251081692 1524.8207158275234,584.0127911112294 Z" fill="url(#leaf1)" opacity="0.15" transform="rotate(127.8 1524.8 620.0)"/>
    <path d="M 441.06068144943487,186.29221710351226 C 478.0204008814912,217.09198329689252 490.3403073588433,260.21165596762484 441.06068144943487,309.49128187703326 C 391.78105554002644,260.21165596762484 404.10096201737855,217.09198329689252 441.06068144943487,186.29221710351226 Z" fill="url(#leaf2)" opacity="0.17" transform="rotate(344.1 441.1 247.9)"/>
    <path d="M 262.64056714151974,201.18080011724757 C 292.2059238581089,225.81859738107192 302.0610427636387,260.31151355042596 262.64056714151974,299.7319891725449 C 223.2200915194008,260.31151355042596 233.07521042493053,225.81859738107192 262.64056714151974,201.18080011724757 Z" fill="url(#leaf3)" opacity="0.20" transform="rotate(107.2 262.6 250.5)"/>
    <path d="M 1308.4796130324075,819.5800724361128 C 1333.273390986209,840.2415540642806 1341.5379836374761,869.1676283437158 1308.4796130324075,902.2259989487844 C 1275.421242427339,869.1676283437158 1283.685835078606,840.2415540642806 1308.4796130324075,819.5800724361128 Z" fill="url(#leaf4)" opacity="0.19" transform="rotate(160.3 1308.5 860.9)"/>
    <path d="M 1081.5382473460252,144.86118456526805 C 1115.6118126449453,173.25582231436812 1126.9696677445852,213.0083151631082 1081.5382473460252,258.4397355616683 C 1036.1068269474652,213.0083151631082 1047.464682047105,173.25582231436812 1081.5382473460252,144.86118456526805 Z" fill="url(#leaf5)" opacity="0.24" transform="rotate(83.0 1081.5 201.7)"/>
    <path d="M 1115.3334531109847,48.03479663025604 C 1155.9046338616427,81.84411392247097 1169.4283607785285,129.17715813157187 1115.3334531109847,183.27206579911575 C 1061.238545443441,129.17715813157187 1074.7622723603267,81.84411392247097 1115.3334531109847,48.03479663025604 Z" fill="url(#leaf6)" opacity="0.24" transform="rotate(315.0 1115.3 115.7)"/>
    <path d="M 1204.7239274347012,821.1815602211707 C 1235.2552060478652,846.6242923988073 1245.4322989189197,882.2441174474984 1204.7239274347012,922.952488931717 C 1164.0155559504826,882.2441174474984 1174.1926488215372,846.6242923988073 1204.7239274347012,821.1815602211707 Z" fill="url(#leaf7)" opacity="0.16" transform="rotate(135.9 1204.7 872.1)"/>
    <path d="M 1380.0547477172504,101.03967596516367 C 1411.0018514248573,126.82892905483595 1421.317552660726,162.93388338037715 1380.0547477172504,204.1966883238528 C 1338.7919427737747,162.93388338037715 1349.1076440096435,126.82892905483595 1380.0547477172504,101.03967596516367 Z" fill="url(#leaf8)" opacity="0.18" transform="rotate(354.7 1380.1 152.6)"/>
    <path d="M 536.7167292560041,544.1791334255475 C 564.016458636883,566.9289079096134 573.1163684305093,598.7785921873054 536.7167292560041,635.1782313618106 C 500.3170900814989,598.7785921873054 509.4169998751252,566.9289079096134 536.7167292560041,544.1791334255475 Z" fill="url(#leaf9)" opacity="0.21" transform="rotate(9.5 536.7 589.7)"/>
    <path d="M 776.1222931228989,681.08302774857 C 801.7419850256084,702.4327710008279 810.2818823265117,732.322411553989 776.1222931228989,766.4820007576018 C 741.9627039192861,732.322411553989 750.5026012201894,702.4327710008279 776.1222931228989,681.08302774857 Z" fill="url(#leaf10)" opacity="0.22" transform="rotate(265.4 776.1 723.8)"/>
    <path d="M 1049.9502934407533,243.7888555335941 C 1091.962525972556,278.79904931009634 1105.9666034831569,327.8133205971995 1049.9502934407533,383.8296306396031 C 993.9339833983497,327.8133205971995 1007.9380609089505,278.79904931009634 1049.9502934407533,243.7888555335941 Z" fill="url(#leaf11)" opacity="0.22" transform="rotate(314.6 1050.0 313.8)"/>
    <path d="M 1010.4937963768336,762.0920289533669 C 1039.244716122233,786.0511287411998 1048.8283560373661,819.5938684441658 1010.4937963768336,857.9284281046982 C 972.1592367163012,819.5938684441658 981.7428766314342,786.0511287411998 1010.4937963768336,762.0920289533669 Z" fill="url(#leaf12)" opacity="0.24" transform="rotate(107.1 1010.5 810.0)"/>
    <path d="M 896.8121056656429,267.29084881712913 C 918.2559895860124,285.1607520841038 925.4039508928024,310.17861665786836 896.8121056656429,338.7704618850279 C 868.2202604384834,310.17861665786836 875.3682217452733,285.1607520841038 896.8121056656429,267.29084881712913 Z" fill="url(#leaf13)" opacity="0.17" transform="rotate(307.8 896.8 303.0)"/>
    <path d="M 791.2500857331697,247.18079977210692 C 819.084676248503,270.37629186821806 828.3628730869475,302.8499808027736 791.2500857331697,339.96276815655136 C 754.137298379392,302.8499808027736 763.4154952178365,270.37629186821806 791.2500857331697,247.18079977210692 Z" fill="url(#leaf14)" opacity="0.23" transform="rotate(236.2 791.3 293.6)"/>
    <path d="M 161.44969251451658,203.15980895020255 C 185.15284094093363,222.91243263888342 193.05389041640598,250.56610580303663 161.44969251451658,282.170303704926 C 129.8454946126272,250.56610580303663 137.74654408809954,222.91243263888342 161.44969251451658,203.15980895020255 Z" fill="url(#leaf15)" opacity="0.23" transform="rotate(199.1 161.4 242.7)"/>
    <path d="M 335.5474560613898,788.5837649260923 C 378.83829743443596,824.6594660702974 393.268577892118,875.1654476721847 335.5474560613898,932.8865695029128 C 277.82633423066164,875.1654476721847 292.2566146883437,824.6594660702974 335.5474560613898,788.5837649260923 Z" fill="url(#leaf16)" opacity="0.18" transform="rotate(45.6 335.5 860.7)"/>
    <path d="M 1744.4374318991602,17.251075724065288 C 1788.1243284235377,53.656822827713285 1802.686627264997,104.62486877282048 1744.4374318991602,162.87406413865727 C 1686.1882365333233,104.62486877282048 1700.7505353747827,53.656822827713285 1744.4374318991602,17.251075724065288 Z" fill="url(#leaf17)" opacity="0.20" transform="rotate(327.1 1744.4 90.1)"/>
    <path d="M 1132.7344034220484,971.1012531835494 C 1160.3301697277502,994.0977251049676 1169.5287584963176,1026.292785794953 1132.7344034220484,1063.087140869222 C 1095.9400483477793,1026.292785794953 1105.1386371163467,994.0977251049676 1132.7344034220484,971.1012531835494 Z" fill="url(#leaf18)" opacity="0.19" transform="rotate(239.3 1132.7 1017.1)"/>
    <path d="M 1326.9202829637202,327.6175056320746 C 1354.7802127649754,350.83411379978725 1364.0668560320605,383.33736523458504 1326.9202829637202,420.4839383029253 C 1289.7737098953799,383.33736523458504 1299.060353162465,350.83411379978725 1326.9202829637202,327.6175056320746 Z" fill="url(#leaf19)" opacity="0.19" transform="rotate(354.3 1326.9 374.1)"/>
    <path d="M 368.6287331673674,951.9123782531236 C 400.988537922958,978.8788822161158 411.7751395081549,1016.6319877643049 368.6287331673674,1059.7783941050923 C 325.4823268265799,1016.6319877643049 336.26892841177676,978.8788822161158 368.6287331673674,951.9123782531236 Z" fill="url(#leaf20)" opacity="0.18" transform="rotate(75.5 368.6 1005.8)"/>
    <path d="M 1488.8086608712576,890.0735554494853 C 1519.5858348908857,915.7212004658419 1529.8448928974283,951.6279034887413 1488.8086608712576,992.6641355149119 C 1447.772428845087,951.6279034887413 1458.0314868516296,915.7212004658419 1488.8086608712576,890.0735554494853 Z" fill="url(#leaf21)" opacity="0.18" transform="rotate(34.8 1488.8 941.4)"/>
    <path d="M 1239.6322612951533,139.62982842808435 C 1283.7551563735622,176.39890766009185 1298.4627880663652,227.87561858490233 1239.6322612951533,286.7061453561143 C 1180.8017345239414,227.87561858490233 1195.5093662167444,176.39890766009185 1239.6322612951533,139.62982842808435 Z" fill="url(#leaf22)" opacity="0.24" transform="rotate(54.0 1239.6 213.2)"/>
    <path d="M 1413.0817073240623,886.3089992296821 C 1449.7485539380993,916.8647047413796 1461.9708361427784,959.6426924577562 1413.0817073240623,1008.5318212764723 C 1364.1925785053463,959.6426924577562 1376.4148607100253,916.8647047413796 1413.0817073240623,886.3089992296821 Z" fill="url(#leaf23)" opacity="0.21" transform="rotate(328.4 1413.1 947.4)"/>
    <path d="M 362.82705366588243,643.9758866439771 C 381.95278213273394,659.9139936996867 388.3280249550178,682.2273435776801 362.82705366588243,707.7283148668154 C 337.3260823767471,682.2273435776801 343.7013251990309,659.9139936996867 362.82705366588243,643.9758866439771 Z" fill="url(#leaf24)" opacity="0.19" transform="rotate(204.2 362.8 675.9)"/>
    <path d="M 913.198965628558,423.65268090571794 C 938.0100501902876,444.3285847071593 946.2804117108642,473.27485002917723 913.198965628558,506.3562961114834 C 880.1175195462517,473.27485002917723 888.3878810668283,444.3285847071593 913.198965628558,423.65268090571794 Z" fill="url(#leaf25)" opacity="0.20" transform="rotate(165.7 913.2 465.0)"/>
    <path d="M 1742.1801231742725,866.8307637609399 C 1770.5805986222374,890.4978266342441 1780.0474237715591,923.6317146568698 1742.1801231742725,961.4990152541565 C 1704.3128225769858,923.6317146568698 1713.7796477263075,890.4978266342441 1742.1801231742725,866.8307637609399 Z" fill="url(#leaf26)" opacity="0.24" transform="rotate(353.4 1742.2 914.2)"/>
    <path d="M 1320.230382784767,823.9080518259645 C 1357.8024035423464,855.2180691239473 1370.3264104615394,899.0520933411232 1320.230382784767,949.1481210178956 C 1270.1343551079947,899.0520933411232 1282.6583620271876,855.2180691239473 1320.230382784767,823.9080518259645 Z" fill="url(#leaf27)" opacity="0.16" transform="rotate(219.4 1320.2 886.5)"/>
    <path d="M 1192.233312581337,193.48482027320335 C 1213.0700903280315,210.84880172878204 1220.015682910263,235.15837576659223 1192.233312581337,262.94074609551814 C 1164.450942252411,235.15837576659223 1171.3965348346426,210.84880172878204 1192.233312581337,193.48482027320335 Z" fill="url(#leaf28)" opacity="0.15" transform="rotate(84.6 1192.2 228.2)"/>
    <path d="M 1847.4718737096873,841.146827088089 C 1886.5471037897205,873.7095188214502 1899.572180483065,919.2972872481556 1847.4718737096873,971.3975940215333 C 1795.3715669363096,919.2972872481556 1808.3966436296541,873.7095188214502 1847.4718737096873,841.146827088089 Z" fill="url(#leaf29)" opacity="0.18" transform="rotate(130.4 1847.5 906.3)"/>
    <path d="M 1587.5184903077054,75.81320874704824 C 1625.806179070817,107.7196160496413 1638.5687419918543,152.38858627327159 1587.5184903077054,203.4388379574205 C 1536.4682386235565,152.38858627327159 1549.2308015445938,107.7196160496413 1587.5184903077054,75.81320874704824 Z" fill="url(#leaf0)" opacity="0.16" transform="rotate(247.7 1587.5 139.6)"/>
    <path d="M 834.0585561369727,849.689720916092 C 860.0246400965113,871.3281242157077 868.6800014163576,901.6218888351696 834.0585561369727,936.2433341145545 C 799.4371108575878,901.6218888351696 808.092472177434,871.3281242157077 834.0585561369727,849.689720916092 Z" fill="url(#leaf1)" opacity="0.23" transform="rotate(97.0 834.1 893.0)"/>
    <path d="M 1789.3538686814643,973.196773012585 C 1809.7471056454174,990.1911371492126 1816.5448513000683,1013.9832469404912 1789.3538686814643,1041.1742295590952 C 1762.1628860628603,1013.9832469404912 1768.9606317175112,990.1911371492126 1789.3538686814643,973.196773012585 Z" fill="url(#leaf2)" opacity="0.18" transform="rotate(46.6 1789.4 1007.2)"/>
    <path d="M 1472.2690410669707,126.0338297958327 C 1516.7737345768353,163.12107438738659 1531.608632413457,215.04321681556203 1472.2690410669707,274.38280816204826 C 1412.9294497204844,215.04321681556203 1427.764347557106,163.12107438738659 1472.2690410669707,126.0338297958327 Z" fill="url(#leaf3)" opacity="0.21" transform="rotate(5.4 1472.3 200.2)"/>
    <path d="M 1212.7172455524642,695.4920032939774 C 1244.2436756502807,721.7640283754911 1254.7524856828861,758.5448634896104 1212.7172455524642,800.5801036200323 C 1170.6820054220423,758.5448634896104 1181.1908154546477,721.7640283754911 1212.7172455524642,695.4920032939774 Z" fill="url(#leaf4)" opacity="0.17" transform="rotate(71.7 1212.7 748.0)"/>
    <path d="M 1693.7867329932144,462.5259832965114 C 1724.8928663250347,488.4477610730283 1735.2615774356414,524.738249960152 1693.7867329932144,566.2130944025789 C 1652.3118885507874,524.738249960152 1662.6805996613941,488.4477610730283 1693.7867329932144,462.5259832965114 Z" fill="url(#leaf5)" opacity="0.16" transform="rotate(57.2 1693.8 514.4)"/>
    <path d="M 433.6241793287041,467.94963715205824 C 475.48321836378307,502.83216968129074 489.43623137547604,551.6677152222162 433.6241793287041,607.4797672689882 C 377.81212728193213,551.6677152222162 391.7651402936251,502.83216968129074 433.6241793287041,467.94963715205824 Z" fill="url(#leaf6)" opacity="0.21" transform="rotate(125.1 433.6 537.7)"/>
    <path d="M 559.3728111821367,221.34673653902323 C 582.1530819584524,240.33029551928627 589.7465055505576,266.90727809165446 559.3728111821367,297.2809724600753 C 528.9991168137159,266.90727809165446 536.5925404058211,240.33029551928627 559.3728111821367,221.34673653902323 Z" fill="url(#leaf7)" opacity="0.18" transform="rotate(141.0 559.4 259.3)"/>
    <path d="M 1781.053812316162,804.9217086322265 C 1823.561945385923,840.3451528570272 1837.7313230758434,889.9379747717484 1781.053812316162,946.6154855314296 C 1724.3763015564807,889.9379747717484 1738.545679246401,840.3451528570272 1781.053812316162,804.9217086322265 Z" fill="url(#leaf8)" opacity="0.25" transform="rotate(328.4 1781.1 875.8)"/>
    <path d="M 1446.9607255049068,388.6541390742834 C 1470.971821684914,408.66338589095614 1478.9755204115831,436.6763314342979 1446.9607255049068,468.69112634097417 C 1414.9459305982305,436.6763314342979 1422.9496293248997,408.66338589095614 1446.9607255049068,388.6541390742834 Z" fill="url(#leaf9)" opacity="0.17" transform="rotate(226.1 1447.0 428.7)"/>
    <path d="M 1196.2736752327426,917.7120878386116 C 1242.3716757217428,956.127088246112 1257.7376758847429,1009.9080888166122 1196.2736752327426,1071.3720894686126 C 1134.8096745807422,1009.9080888166122 1150.1756747437423,956.127088246112 1196.2736752327426,917.7120878386116 Z" fill="url(#leaf10)" opacity="0.25" transform="rotate(41.8 1196.3 994.5)"/>
    <path d="M 1673.668939381414,180.31016821868917 C 1700.4509361803073,202.6284988844335 1709.378268446605,233.87416181647552 1673.668939381414,269.5834908816664 C 1637.959610316223,233.87416181647552 1646.8869425825208,202.6284988844335 1673.668939381414,180.31016821868917 Z" fill="url(#leaf11)" opacity="0.15" transform="rotate(236.8 1673.7 224.9)"/>
    <path d="M 216.77579456408765,348.11124516708367 C 251.65308791737434,377.17565629482255 263.2788523684699,417.86583187365704 216.77579456408765,464.3688896780393 C 170.27273675970537,417.86583187365704 181.89850121080096,377.17565629482255 216.77579456408765,348.11124516708367 Z" fill="url(#leaf12)" opacity="0.22" transform="rotate(281.6 216.8 406.2)"/>
    <path d="M 1131.1657972383393,941.8980247686079 C 1174.539007619035,978.0423667525208 1188.9967444126,1028.644445529999 1131.1657972383393,1086.4753927042598 C 1073.3348500640786,1028.644445529999 1087.7925868576438,978.0423667525208 1131.1657972383393,941.8980247686079 Z" fill="url(#leaf13)" opacity="0.16" transform="rotate(77.2 1131.2 1014.2)"/>
    <path d="M 303.6568103570378,144.90687204440823 C 348.53468944666514,182.3051046190977 363.49398247654096,234.66263022366297 303.6568103570378,294.49980234316615 C 243.81963823753463,234.66263022366297 258.7789312674104,182.3051046190977 303.6568103570378,144.90687204440823 Z" fill="url(#leaf14)" opacity="0.19" transform="rotate(46.8 303.7 219.7)"/>
    <path d="M 1635.6956563225685,192.8763069390534 C 1658.574063198232,211.9416460021062 1666.200198823453,238.63312069038017 1635.6956563225685,269.13766319126466 C 1605.191113821684,238.63312069038017 1612.8172494469052,211.9416460021062 1635.6956563225685,192.8763069390534 Z" fill="url(#leaf15)" opacity="0.18" transform="rotate(101.0 1635.7 231.0)"/>
    <path d="M 612.0431893641259,507.04297895326573 C 655.1263879487582,542.9456444404593 669.4874541436355,593.2093761225303 612.0431893641259,650.65364090204 C 554.5989245846162,593.2093761225303 568.9599907794935,542.9456444404593 612.0431893641259,507.04297895326573 Z" fill="url(#leaf16)" opacity="0.21" transform="rotate(323.8 612.0 578.8)"/>
    <path d="M 635.939448317999,561.3645073368597 C 655.3291763815266,577.5226140564661 661.7924190693691,600.1439634639149 635.939448317999,625.996934215285 C 610.0864775666289,600.1439634639149 616.5497202544714,577.5226140564661 635.939448317999,561.3645073368597 Z" fill="url(#leaf17)" opacity="0.18" transform="rotate(170.1 635.9 593.7)"/>
    <path d="M 1802.9996507435005,814.7941574793268 C 1845.5382217667186,850.2429666653419 1859.7177454411246,899.871299525763 1802.9996507435005,956.5893942233871 C 1746.2815560458764,899.871299525763 1760.4610797202824,850.2429666653419 1802.9996507435005,814.7941574793268 Z" fill="url(#leaf18)" opacity="0.17" transform="rotate(307.5 1803.0 885.7)"/>
    <path d="M 497.1695679196188,-2.817703687623336 C 540.8984826496644,33.623058587414604 555.4747875596795,84.64012577246773 497.1695679196188,142.9453454125284 C 438.8643482795581,84.64012577246773 453.4406531895733,33.623058587414604 497.1695679196188,-2.817703687623336 Z" fill="url(#leaf19)" opacity="0.22" transform="rotate(340.3 497.2 70.1)"/>
    <path d="M 680.5585986314088,750.8512130137036 C 727.3407060145447,789.8363024996502 742.9347418089234,844.4154277799754 680.5585986314088,906.7915709574899 C 618.1824554538942,844.4154277799754 633.7764912482729,789.8363024996502 680.5585986314088,750.8512130137036 Z" fill="url(#leaf20)" opacity="0.18" transform="rotate(251.6 680.6 828.8)"/>
    <path d="M 867.3753954129132,778.5853478569667 C 910.5788310367471,814.5882108768283 924.9799762446918,864.9922191046345 867.3753954129132,922.596799936413 C 809.7708145811347,864.9922191046345 824.1719597890793,814.5882108768283 867.3753954129132,778.5853478569667 Z" fill="url(#leaf21)" opacity="0.17" transform="rotate(123.3 867.4 850.6)"/>
    <path d="M 1605.12971619038,498.0011046194179 C 1642.48802608619,529.133029532593 1654.9407960514602,572.7177244110383 1605.12971619038,622.5288042721186 C 1555.3186363292996,572.7177244110383 1567.7714062945697,529.133029532593 1605.12971619038,498.0011046194179 Z" fill="url(#leaf22)" opacity="0.15" transform="rotate(82.7 1605.1 560.3)"/>
    <path d="M 1617.7134678521547,770.0555159469526 C 1649.4316328457244,796.4873201082605 1660.0043545102476,833.4918459340918 1617.7134678521547,875.7827325921845 C 1575.4225811940619,833.4918459340918 1585.995302858585,796.4873201082605 1617.7134678521547,770.0555159469526 Z" fill="url(#leaf23)" opacity="0.23" transform="rotate(285.1 1617.7 822.9)"/>
    <path d="M 288.58040380567115,194.06941284278219 C 310.97733715785085,212.73352396959862 318.44298160857744,238.86327954714164 288.58040380567115,268.72585735004793 C 258.71782600276487,238.86327954714164 266.18347045349145,212.73352396959862 288.58040380567115,194.06941284278219 Z" fill="url(#leaf24)" opacity="0.23" transform="rotate(220.4 288.6 231.4)"/>
    <path d="M 338.1560489597865,350.99123839599656 C 357.8716002163139,367.4208644431027 364.44345063515635,390.4223409090513 338.1560489597865,416.70974258442106 C 311.8686472844167,390.4223409090513 318.44049770325915,367.4208644431027 338.1560489597865,350.99123839599656 Z" fill="url(#leaf25)" opacity="0.16" transform="rotate(78.9 338.2 383.9)"/>
    <path d="M 107.38309661542405,307.91496575039264 C 150.8989868464841,344.17820760960933 165.40428359017076,394.9467462125127 107.38309661542405,452.9679331872594 C 49.36190964067734,394.9467462125127 63.867206384364025,344.17820760960933 107.38309661542405,307.91496575039264 Z" fill="url(#leaf26)" opacity="0.17" transform="rotate(323.2 107.4 380.4)"/>
    <path d="M 982.1059829260952,237.37817648156405 C 1000.1841062976987,252.44327929123364 1006.2101474215665,273.534423224771 982.1059829260952,297.6385877202423 C 958.0018184306239,273.534423224771 964.0278595544917,252.44327929123364 982.1059829260952,237.37817648156405 Z" fill="url(#leaf27)" opacity="0.15" transform="rotate(181.9 982.1 267.5)"/>
    <path d="M 686.9697541880835,92.20702975863529 C 724.4174176947911,123.41341601422498 736.899972197027,167.10235677205054 686.9697541880835,217.03257478099405 C 637.03953617914,167.10235677205054 649.5220906813759,123.41341601422498 686.9697541880835,92.20702975863529 Z" fill="url(#leaf28)" opacity="0.20" transform="rotate(318.3 687.0 154.6)"/>
    <path d="M 1801.6161501735553,851.5093509158402 C 1840.081546111869,883.5638475311016 1852.9033447579736,928.4401427924676 1801.6161501735553,979.7273373768859 C 1750.328955589137,928.4401427924676 1763.1507542352415,883.5638475311016 1801.6161501735553,851.5093509158402 Z" fill="url(#leaf29)" opacity="0.18" transform="rotate(36.9 1801.6 915.6)"/>
    <path d="M 1824.2535904247923,173.75466692699013 C 1845.3279683214867,191.3166485075688 1852.3527609537182,215.90342272037896 1824.2535904247923,244.00259324930482 C 1796.1544198958663,215.90342272037896 1803.1792125280979,191.3166485075688 1824.2535904247923,173.75466692699013 Z" fill="url(#leaf0)" opacity="0.20" transform="rotate(301.5 1824.3 208.9)"/>
    <path d="M 870.1443402099534,155.1306612102211 C 890.5752889852669,172.1564518563157 897.3856052437047,195.99255876084814 870.1443402099534,223.23382379459952 C 842.903075176202,195.99255876084814 849.7133914346399,172.1564518563157 870.1443402099534,155.1306612102211 Z" fill="url(#leaf1)" opacity="0.22" transform="rotate(230.7 870.1 189.2)"/>
    <path d="M 837.3342659758446,532.5511099196998 C 883.9395402570982,571.3888384874111 899.4746316841828,625.761658482207 837.3342659758446,687.9020241905451 C 775.1939002675064,625.761658482207 790.728991694591,571.3888384874111 837.3342659758446,532.5511099196998 Z" fill="url(#leaf2)" opacity="0.19" transform="rotate(316.4 837.3 610.2)"/>
    <path d="M 513.0415411298461,697.5330344512141 C 533.2455870158682,714.3697393562326 539.9802689778757,737.9411262232584 513.0415411298461,764.8798540712879 C 486.1028132818166,737.9411262232584 492.837495243824,714.3697393562326 513.0415411298461,697.5330344512141 Z" fill="url(#leaf3)" opacity="0.24" transform="rotate(68.2 513.0 731.2)"/>
    <path d="M 1018.7212394798846,313.0515982228152 C 1058.4109049900371,346.1263194812757 1071.6407934934214,392.4309292431204 1018.7212394798846,445.3504832566572 C 965.8016854663479,392.4309292431204 979.031573969732,346.1263194812757 1018.7212394798846,313.0515982228152 Z" fill="url(#leaf4)" opacity="0.20" transform="rotate(87.6 1018.7 379.2)"/>
    <path d="M 1732.0989892911132,826.5631828641449 C 1762.4518988632226,851.8572741742361 1772.569535387259,887.2690020083637 1732.0989892911132,927.7395481045096 C 1691.6284431949673,887.2690020083637 1701.7460797190038,851.8572741742361 1732.0989892911132,826.5631828641449 Z" fill="url(#leaf5)" opacity="0.22" transform="rotate(358.7 1732.1 877.2)"/>
    <path d="M 963.7623356620227,208.50159647564112 C 1011.1560967617932,247.99639739211648 1026.9540171283832,303.28911867518195 963.7623356620227,366.48080014154255 C 900.5706541956621,303.28911867518195 916.3685745622522,247.99639739211648 963.7623356620227,208.50159647564112 Z" fill="url(#leaf6)" opacity="0.24" transform="rotate(186.9 963.8 287.5)"/>
    <path d="M 1600.8852154116717,830.7684914721523 C 1623.6898517046222,849.7723550496112 1631.2913971356058,876.3777640580537 1600.8852154116717,906.7839457819879 C 1570.4790336877375,876.3777640580537 1578.080579118721,849.7723550496112 1600.8852154116717,830.7684914721523 Z" fill="url(#leaf7)" opacity="0.15" transform="rotate(353.4 1600.9 868.8)"/>
    <path d="M 1465.4224722064832,670.7488763670041 C 1502.621081814595,701.7477177070973 1515.0206183506325,745.1460955832279 1465.4224722064832,794.744241727377 C 1415.824326062334,745.1460955832279 1428.2238625983714,701.7477177070973 1465.4224722064832,670.7488763670041 Z" fill="url(#leaf8)" opacity="0.20" transform="rotate(232.0 1465.4 732.7)"/>
    <path d="M 1631.765111134388,462.5752936027427 C 1671.5719495350472,495.74765893662544 1684.8408956686003,542.1889704040613 1631.765111134388,595.2647549382737 C 1578.6893266001757,542.1889704040613 1591.9582727337288,495.74765893662544 1631.765111134388,462.5752936027427 Z" fill="url(#leaf9)" opacity="0.17" transform="rotate(300.6 1631.8 528.9)"/>
    <path d="M 156.43230791926135,168.6640200813653 C 200.3602178110436,205.2706116578505 215.00285444163768,256.5198398649298 156.43230791926135,315.0903863873061 C 97.861761396885,256.5198398649298 112.50439802747908,205.2706116578505 156.43230791926135,168.6640200813653 Z" fill="url(#leaf10)" opacity="0.15" transform="rotate(356.5 156.4 241.9)"/>
    <path d="M 1199.487116048908,941.8789969105424 C 1240.5126440356598,976.0669368995023 1254.187820031244,1023.9300528840461 1199.487116048908,1078.630756866382 C 1144.7864120665722,1023.9300528840461 1158.4615880621564,976.0669368995023 1199.487116048908,941.8789969105424 Z" fill="url(#leaf11)" opacity="0.24" transform="rotate(72.2 1199.5 1010.3)"/>
    <path d="M 324.69582294612485,281.61280341263983 C 350.16050250948246,302.8333697154378 358.64872903060166,332.54216253935505 324.69582294612485,366.49506862383186 C 290.74291686164804,332.54216253935505 299.23114338276724,302.8333697154378 324.69582294612485,281.61280341263983 Z" fill="url(#leaf12)" opacity="0.18" transform="rotate(216.1 324.7 324.1)"/>
    <path d="M 510.8845918159883,177.88418186213093 C 541.0303891310479,203.00567962468057 551.0789882360677,238.1757764922501 510.8845918159883,278.3701729123295 C 470.69019539590886,238.1757764922501 480.73879450092875,203.00567962468057 510.8845918159883,177.88418186213093 Z" fill="url(#leaf13)" opacity="0.19" transform="rotate(186.0 510.9 228.1)"/>
    <path d="M 666.4325956671148,362.9313770718599 C 692.8217816480619,384.92236538931587 701.6181769750443,415.7097490337541 666.4325956671148,450.89533034168363 C 631.2470143591853,415.7097490337541 640.0434096861677,384.92236538931587 666.4325956671148,362.9313770718599 Z" fill="url(#leaf14)" opacity="0.24" transform="rotate(214.2 666.4 406.9)"/>
    <path d="M 1380.1182412967082,127.19832081449925 C 1419.3592150725958,159.8991322944055 1432.4395396645582,205.68026836627425 1380.1182412967082,258.00156673412425 C 1327.7969429288582,205.68026836627425 1340.8772675208206,159.8991322944055 1380.1182412967082,127.19832081449925 Z" fill="url(#leaf15)" opacity="0.17" transform="rotate(317.0 1380.1 192.6)"/>
    <path d="M 277.39541438818014,679.1993008795242 C 309.01426115408964,705.5483398511155 319.5538767427262,742.4369944113432 277.39541438818014,784.5954567658893 C 235.23695203363414,742.4369944113432 245.77656762227065,705.5483398511155 277.39541438818014,679.1993008795242 Z" fill="url(#leaf16)" opacity="0.22" transform="rotate(217.6 277.4 731.9)"/>
    <path d="M 1684.9077938252954,596.7287502242277 C 1721.0747941615225,626.8679171710836 1733.1304609402648,669.0627508966818 1684.9077938252954,717.2854180116512 C 1636.685126710326,669.0627508966818 1648.7407934890682,626.8679171710836 1684.9077938252954,596.7287502242277 Z" fill="url(#leaf17)" opacity="0.19" transform="rotate(42.8 1684.9 657.0)"/>
    <path d="M 935.0540672560855,401.5323765401035 C 957.5640113282212,420.29066326688314 965.067326018933,446.55226468437473 935.0540672560855,476.56552344722223 C 905.040808493238,446.55226468437473 912.5441231839499,420.29066326688314 935.0540672560855,401.5323765401035 Z" fill="url(#leaf18)" opacity="0.17" transform="rotate(221.0 935.1 439.0)"/>
    <path d="M 1004.8936404219722,302.26907669931705 C 1039.5225997923037,331.12654284125995 1051.065586249081,371.52699543998006 1004.8936404219722,417.69894126708874 C 958.7216945948635,371.52699543998006 970.2646810516408,331.12654284125995 1004.8936404219722,302.26907669931705 Z" fill="url(#leaf19)" opacity="0.25" transform="rotate(176.2 1004.9 360.0)"/>
    <path d="M 707.430918352382,587.8031765177161 C 753.9389029366055,626.5598303379023 769.44156446468,680.819145686163 707.430918352382,742.829791798461 C 645.420272240084,680.819145686163 660.9229337681586,626.5598303379023 707.430918352382,587.8031765177161 Z" fill="url(#leaf20)" opacity="0.18" transform="rotate(85.7 707.4 665.3)"/>
    <path d="M 1496.4195855460832,776.9649666131868 C 1534.8643948023569,809.0023076600814 1547.6793312211148,853.854585125734 1496.4195855460832,905.1143308007656 C 1445.1598398710516,853.854585125734 1457.9747762898096,809.0023076600814 1496.4195855460832,776.9649666131868 Z" fill="url(#leaf21)" opacity="0.22" transform="rotate(168.5 1496.4 841.0)"/>
    <path d="M 811.426190277026,879.2894137655975 C 850.6685458484552,911.9913767417886 863.7493310389317,957.774124908456 811.426190277026,1010.0972656703617 C 759.1030495151202,957.774124908456 772.1838347055967,911.9913767417886 811.426190277026,879.2894137655975 Z" fill="url(#leaf22)" opacity="0.16" transform="rotate(188.5 811.4 944.7)"/>
    <path d="M 796.9305435879589,845.18897121657 C 844.3388872652351,884.6959242809668 860.1416684909939,940.0056585711224 796.9305435879589,1003.2167834741572 C 733.719418684924,940.0056585711224 749.5221999106827,884.6959242809668 796.9305435879589,845.18897121657 Z" fill="url(#leaf23)" opacity="0.21" transform="rotate(322.2 796.9 924.2)"/>
    <path d="M 625.9944443167176,379.45213420475375 C 648.9078129784658,398.54660808954395 656.545602532382,425.27887152825025 625.9944443167176,455.83002974391457 C 595.4432861010532,425.27887152825025 603.0810756549694,398.54660808954395 625.9944443167176,379.45213420475375 Z" fill="url(#leaf24)" opacity="0.21" transform="rotate(234.3 626.0 417.6)"/>
    <path d="M 459.57422202665606,39.284898704122305 C 497.33610322499516,70.75313303607156 509.92339695777486,114.8086611008005 459.57422202665606,165.15783603191932 C 409.22504709553726,114.8086611008005 421.81234082831696,70.75313303607156 459.57422202665606,39.284898704122305 Z" fill="url(#leaf25)" opacity="0.20" transform="rotate(300.0 459.6 102.2)"/>
    <path d="M 832.0343398195524,504.7008778805919 C 864.7936629095025,532.0003137888835 875.7134372728191,570.219524060492 832.0343398195524,613.8986215137586 C 788.3552423662858,570.219524060492 799.2750167296024,532.0003137888835 832.0343398195524,504.7008778805919 Z" fill="url(#leaf26)" opacity="0.22" transform="rotate(29.5 832.0 559.3)"/>
    <path d="M 560.5018938160836,857.5031054003117 C 579.6206800963727,873.4354273005525 585.993608856469,895.7406779608898 560.5018938160836,921.2323930012752 C 535.0101787756981,895.7406779608898 541.3831075357945,873.4354273005525 560.5018938160836,857.5031054003117 Z" fill="url(#leaf27)" opacity="0.18" transform="rotate(211.7 560.5 889.4)"/>
    <path d="M 1082.5429629290668,616.3779611539601 C 1114.4353331770446,642.9549363606083 1125.066123259704,680.1627016499158 1082.5429629290668,722.685861980553 C 1040.0198025984296,680.1627016499158 1050.650592681089,642.9549363606083 1082.5429629290668,616.3779611539601 Z" fill="url(#leaf28)" opacity="0.20" transform="rotate(35.9 1082.5 669.5)"/>
    <path d="M 107.67890610108685,454.9008225537337 C 130.34104146148158,473.78593535406264 137.89508658161316,500.2250932745232 107.67890610108685,530.4412737550495 C 77.46272562056053,500.2250932745232 85.01677074069212,473.78593535406264 107.67890610108685,454.9008225537337 Z" fill="url(#leaf29)" opacity="0.22" transform="rotate(353.5 107.7 492.7)"/>
    <path d="M 517.1455981918833,186.0370517551762 C 560.5646153633276,222.2195660647131 575.0376210871423,272.87508609806474 517.1455981918833,330.76710899332375 C 459.2535752966243,272.87508609806474 473.7265810204391,222.2195660647131 517.1455981918833,186.0370517551762 Z" fill="url(#leaf0)" opacity="0.24" transform="rotate(60.7 517.1 258.4)"/>
    <path d="M 520.6437412917273,406.430260456841 C 567.1325953664879,445.1709721858081 582.6288800580747,499.40796860636215 520.6437412917273,561.3931073727096 C 458.65860252537993,499.40796860636215 474.1548872169668,445.1709721858081 520.6437412917273,406.430260456841 Z" fill="url(#leaf1)" opacity="0.23" transform="rotate(152.4 520.6 483.9)"/>
    <path d="M 884.5452262547211,345.7096038478985 C 909.5323202495829,366.53218217694996 917.8613515812034,395.683791837622 884.5452262547211,428.9999171641043 C 851.2291009282388,395.683791837622 859.5581322598593,366.53218217694996 884.5452262547211,345.7096038478985 Z" fill="url(#leaf2)" opacity="0.20" transform="rotate(307.0 884.5 387.4)"/>
    <path d="M 1352.4809889861267,347.9844134570161 C 1393.7237670560319,382.353395181937 1407.4713597460002,430.46996959682633 1352.4809889861267,485.4603403566998 C 1297.4906182262532,430.46996959682633 1311.2382109162215,382.353395181937 1352.4809889861267,347.9844134570161 Z" fill="url(#leaf3)" opacity="0.23" transform="rotate(62.2 1352.5 416.7)"/>
    <path d="M 1435.164787076798,384.54055207354526 C 1473.9972008958573,416.9008969227615 1486.9413388355438,462.2053797116642 1435.164787076798,513.9819314704101 C 1383.388235318052,462.2053797116642 1396.3323732577385,416.9008969227615 1435.164787076798,384.54055207354526 Z" fill="url(#leaf4)" opacity="0.16" transform="rotate(214.4 1435.2 449.3)"/>
    <path d="M 327.86269915264967,472.253381291992 C 368.7729158721475,506.3452285582402 382.40965477864677,554.0738147309877 327.86269915264967,608.6207703569847 C 273.31574352665257,554.0738147309877 286.95248243315183,506.3452285582402 327.86269915264967,472.253381291992 Z" fill="url(#leaf5)" opacity="0.17" transform="rotate(12.3 327.9 540.4)"/>
    <path d="M 1647.4939507617598,153.08417203231295 C 1669.2441005862647,171.20929688606702 1676.4941505277664,196.58447168132275 1647.4939507617598,225.5846714473293 C 1618.4937509957533,196.58447168132275 1625.743800937255,171.20929688606702 1647.4939507617598,153.08417203231295 Z" fill="url(#leaf6)" opacity="0.18" transform="rotate(331.1 1647.5 189.3)"/>
    <path d="M 104.42102015443535,341.4660651783464 C 150.9727656647177,380.259186436915 166.49001416814517,434.5695561989111 104.42102015443535,496.6385502126209 C 42.35202614072555,434.5695561989111 57.869274644153,380.259186436915 104.42102015443535,341.4660651783464 Z" fill="url(#leaf7)" opacity="0.19" transform="rotate(84.2 104.4 419.1)"/>
    <path d="M 1554.083062111055,965.1778456597223 C 1588.0294173079228,993.4664749904455 1599.344869040212,1033.070556053458 1554.083062111055,1078.332362982615 C 1508.8212551818979,1033.070556053458 1520.136706914187,993.4664749904455 1554.083062111055,965.1778456597223 Z" fill="url(#leaf8)" opacity="0.21" transform="rotate(283.2 1554.1 1021.8)"/>
    <path d="M 256.0167000880566,448.2740557633715 C 302.5357335115353,487.0399169496037 318.0420779860282,541.3121226103287 256.0167000880566,603.3375005083003 C 193.99132219008507,541.3121226103287 209.49766666457796,487.0399169496037 256.0167000880566,448.2740557633715 Z" fill="url(#leaf9)" opacity="0.19" transform="rotate(237.0 256.0 525.8)"/>
    <path d="M 1842.7504956022972,152.80507792039975 C 1890.6888162814173,192.7536784863332 1906.6682565077906,248.68171927864 1842.7504956022972,312.5994801841335 C 1778.8327346968038,248.68171927864 1794.812174923177,192.7536784863332 1842.7504956022972,152.80507792039975 Z" fill="url(#leaf10)" opacity="0.21" transform="rotate(103.7 1842.8 232.7)"/>
    <path d="M 1784.9182076050113,173.34051836891246 C 1823.0779422382193,205.14029722991913 1835.797853782622,249.6599876353285 1784.9182076050113,300.5396338129392 C 1734.0385614274005,249.6599876353285 1746.7584729718033,205.14029722991913 1784.9182076050113,173.34051836891246 Z" fill="url(#leaf11)" opacity="0.24" transform="rotate(22.0 1784.9 236.9)"/>
    <path d="M 1652.916226364946,729.2449362019853 C 1684.8185616786905,755.8302156301056 1695.4526734499386,793.0496068294742 1652.916226364946,835.5860539144668 C 1610.3797792799533,793.0496068294742 1621.0138910512014,755.8302156301056 1652.916226364946,729.2449362019853 Z" fill="url(#leaf12)" opacity="0.19" transform="rotate(304.2 1652.9 782.4)"/>
    <path d="M 742.061771310405,722.4462377555012 C 762.061362043764,739.1125633666338 768.727892288217,762.4454192222194 742.061771310405,789.1115402000314 C 715.3956503325929,762.4454192222194 722.062180577046,739.1125633666338 742.061771310405,722.4462377555012 Z" fill="url(#leaf13)" opacity="0.23" transform="rotate(162.8 742.1 755.8)"/>
    <path d="M 661.4305602804251,711.4119402275188 C 694.3288483120674,738.8271802538874 705.2949443226149,777.2085162908035 661.4305602804251,821.0729003329933 C 617.5661762382352,777.2085162908035 628.5322722487828,738.8271802538874 661.4305602804251,711.4119402275188 Z" fill="url(#leaf14)" opacity="0.18" transform="rotate(28.8 661.4 766.2)"/>
    <path d="M 572.9372033899825,411.36092053788803 C 594.9775458569526,429.7278725936965 602.3243266792759,455.4416054718282 572.9372033899825,484.8287287611217 C 543.5500801006891,455.4416054718282 550.8968609230125,429.7278725936965 572.9372033899825,411.36092053788803 Z" fill="url(#leaf15)" opacity="0.23" transform="rotate(3.8 572.9 448.1)"/>
    <path d="M 1855.1200222136833,902.5700721125706 C 1884.543067520034,927.0892765345294 1894.3507492888173,961.4161627252716 1855.1200222136833,1000.6468898004057 C 1815.8892951385494,961.4161627252716 1825.6969769073328,927.0892765345294 1855.1200222136833,902.5700721125706 Z" fill="url(#leaf16)" opacity="0.24" transform="rotate(161.4 1855.1 951.6)"/>
    <path d="M 1430.2620574969153,322.92085675010946 C 1473.5086424258648,358.959677524234 1487.9241707355145,409.4140266080083 1430.2620574969153,467.0761398466076 C 1372.599944258316,409.4140266080083 1387.0154725679658,358.959677524234 1430.2620574969153,322.92085675010946 Z" fill="url(#leaf17)" opacity="0.18" transform="rotate(135.5 1430.3 395.0)"/>
    <path d="M 1130.9544001254878,882.8262077774416 C 1150.520073982924,899.1309359919717 1157.041965268736,921.957555492314 1130.9544001254878,948.0451206355622 C 1104.8668349822397,921.957555492314 1111.3887262680516,899.1309359919717 1130.9544001254878,882.8262077774416 Z" fill="url(#leaf18)" opacity="0.20" transform="rotate(97.4 1131.0 915.4)"/>
    <path d="M 1114.974350976678,103.74341788442467 C 1146.158726014827,129.73039708288212 1156.5535176942099,166.1121679607226 1114.974350976678,207.69133467825452 C 1073.395184259146,166.1121679607226 1083.7899759385289,129.73039708288212 1114.974350976678,103.74341788442467 Z" fill="url(#leaf19)" opacity="0.21" transform="rotate(78.2 1115.0 155.7)"/>
    <path d="M 1010.8222134954348,75.83982616236835 C 1030.6833885733615,92.39080539397393 1037.3037802660037,115.56217631822174 1010.8222134954348,142.04374308879068 C 984.3406467248658,115.56217631822174 990.9610384175081,92.39080539397393 1010.8222134954348,75.83982616236835 Z" fill="url(#leaf20)" opacity="0.19" transform="rotate(52.9 1010.8 108.9)"/>
    <path d="M 580.4298793081617,612.2890927878295 C 617.9051626505179,643.5184955731264 630.3969237646367,687.239659472542 580.4298793081617,737.2067039290171 C 530.4628348516868,687.239659472542 542.9545959658055,643.5184955731264 580.4298793081617,612.2890927878295 Z" fill="url(#leaf21)" opacity="0.19" transform="rotate(260.6 580.4 674.7)"/>
    <path d="M 498.5561400529163,204.7446260978362 C 527.3887838141203,228.77182923217282 536.999665067855,262.4099136202441 498.5561400529163,300.85343863518267 C 460.1126150379777,262.4099136202441 469.72349629171237,228.77182923217282 498.5561400529163,204.7446260978362 Z" fill="url(#leaf22)" opacity="0.18" transform="rotate(333.4 498.6 252.8)"/>
    <path d="M 1354.2038747350637,4.2451222862064455 C 1387.5534051130653,32.03639760120773 1398.6699152390656,70.94418304220953 1354.2038747350637,115.4102235462116 C 1309.7378342310617,70.94418304220953 1320.854344357062,32.03639760120773 1354.2038747350637,4.2451222862064455 Z" fill="url(#leaf23)" opacity="0.21" transform="rotate(334.8 1354.2 59.8)"/>
    <path d="M 93.74719325120212,288.61651893226764 C 125.41148397864316,315.0034278718018 135.96624755445686,351.94510038714975 93.74719325120212,394.1641546904045 C 51.52813894794738,351.94510038714975 62.08290252376107,315.0034278718018 93.74719325120212,288.61651893226764 Z" fill="url(#leaf24)" opacity="0.16" transform="rotate(188.8 93.7 341.4)"/>
    <path d="M 1063.7765413698596,331.71416761090165 C 1101.9850735344123,363.5546110813623 1114.7212509225967,408.13123194000724 1063.7765413698596,459.0759414927443 C 1012.8318318171225,408.13123194000724 1025.568009205307,363.5546110813623 1063.7765413698596,331.71416761090165 Z" fill="url(#leaf25)" opacity="0.16" transform="rotate(238.8 1063.8 395.4)"/>
    <path d="M 1546.6761979037756,606.4157838081567 C 1587.9162165411733,640.7824660059881 1601.6628894203059,688.8958210829521 1546.6761979037756,743.8825125994824 C 1491.6895063872453,688.8958210829521 1505.4361792663778,640.7824660059881 1546.6761979037756,606.4157838081567 Z" fill="url(#leaf26)" opacity="0.17" transform="rotate(7.5 1546.7 675.1)"/>
    <path d="M 131.2602218213323,837.4381383732159 C 166.8961675872985,867.1347598448543 178.7748161759539,908.7100299051483 131.2602218213323,956.2246242597698 C 83.74562746671069,908.7100299051483 95.6242760553661,867.1347598448543 131.2602218213323,837.4381383732159 Z" fill="url(#leaf27)" opacity="0.22" transform="rotate(123.3 131.3 896.8)"/>
    <path d="M 1164.819922083088,472.12244294940757 C 1190.9832548461534,493.9252202519622 1199.7043657671752,524.4491084755385 1164.819922083088,559.3335521596258 C 1129.9354783990007,524.4491084755385 1138.6565893200225,493.9252202519622 1164.819922083088,472.12244294940757 Z" fill="url(#leaf28)" opacity="0.24" transform="rotate(4.3 1164.8 515.7)"/>
    <path d="M 345.70058047264195,484.79305545295654 C 385.25040990389533,517.7512466456676 398.4336863809798,563.8927143154632 345.70058047264195,616.625820223801 C 292.9674745643041,563.8927143154632 306.15075104138856,517.7512466456676 345.70058047264195,484.79305545295654 Z" fill="url(#leaf29)" opacity="0.23" transform="rotate(4.6 345.7 550.7)"/>
    <path d="M 240.65563913726896,367.756234796893 C 262.7780489148632,386.1915762782215 270.15218550739456,412.0010543520814 240.65563913726896,441.497600722207 C 211.15909276714336,412.0010543520814 218.53322935967475,386.1915762782215 240.65563913726896,367.756234796893 Z" fill="url(#leaf0)" opacity="0.19" transform="rotate(119.3 240.7 404.6)"/>
    <path d="M 531.5347148364033,362.49967824053795 C 559.8469710793828,386.0932251096876 569.2843898270427,419.124190726497 531.5347148364033,456.87386571713637 C 493.78503984576395,419.124190726497 503.22245859342377,386.0932251096876 531.5347148364033,362.49967824053795 Z" fill="url(#leaf1)" opacity="0.20" transform="rotate(198.0 531.5 409.7)"/>
    <path d="M 920.0657697953678,52.06944036021578 C 942.5716068381095,70.82430456250046 950.0735525190233,97.08111444569899 920.0657697953678,127.08889716935447 C 890.0579870717123,97.08111444569899 897.5599327526262,70.82430456250046 920.0657697953678,52.06944036021578 Z" fill="url(#leaf2)" opacity="0.20" transform="rotate(38.2 920.1 89.6)"/>
    <path d="M 1750.6047680816869,133.5147003420593 C 1793.349073468999,169.13495483148608 1807.5971752647697,219.00331111668353 1750.6047680816869,275.99571829976634 C 1693.612360898604,219.00331111668353 1707.8604626943747,169.13495483148608 1750.6047680816869,133.5147003420593 Z" fill="url(#leaf3)" opacity="0.19" transform="rotate(76.4 1750.6 204.8)"/>
    <path d="M 1366.484466319377,28.845877215587798 C 1404.575781748572,60.58864007325032 1417.272886891637,105.02850807397786 1366.484466319377,155.8169286462379 C 1315.6960457471168,105.02850807397786 1328.393150890182,60.58864007325032 1366.484466319377,28.845877215587798 Z" fill="url(#leaf4)" opacity="0.24" transform="rotate(202.9 1366.5 92.3)"/>
    <path d="M 989.1255103182884,629.1061752341656 C 1014.8479579362274,650.5415482491147 1023.4221071422071,680.5510704700436 989.1255103182884,714.8476672939622 C 954.8289134943698,680.5510704700436 963.4030627003494,650.5415482491147 989.1255103182884,629.1061752341656 Z" fill="url(#leaf5)" opacity="0.19" transform="rotate(354.6 989.1 672.0)"/>
    <path d="M 943.8298033287031,259.97416120286493 C 987.5377469532276,296.39744755663537 1002.1070614947357,347.39004845191397 943.8298033287031,405.6673066179467 C 885.5525451626704,347.39004845191397 900.1218597041785,296.39744755663537 943.8298033287031,259.97416120286493 Z" fill="url(#leaf6)" opacity="0.21" transform="rotate(313.9 943.8 332.8)"/>
    <path d="M 1217.7954426031672,493.11879183396405 C 1254.0250597390368,523.3101394471886 1266.1015987843266,565.578026105703 1217.7954426031672,613.8841822868624 C 1169.4892864220078,565.578026105703 1181.5658254672976,523.3101394471886 1217.7954426031672,493.11879183396405 Z" fill="url(#leaf7)" opacity="0.24" transform="rotate(12.2 1217.8 553.5)"/>
    <path d="M 122.61340256341546,416.56964642140895 C 142.22160418650475,432.90981444065005 148.75767139420117,455.7860496675875 122.61340256341546,481.93031849837325 C 96.46913373262976,455.7860496675875 103.00520094032618,432.90981444065005 122.61340256341546,416.56964642140895 Z" fill="url(#leaf8)" opacity="0.21" transform="rotate(121.1 122.6 449.2)"/>
    <path d="M 124.51823897514103,30.489383454954428 C 143.81449764165725,46.56959901038462 150.24658386382936,69.0819007879869 124.51823897514103,94.81024567667521 C 98.78989408645272,69.0819007879869 105.2219803086248,46.56959901038462 124.51823897514103,30.489383454954428 Z" fill="url(#leaf9)" opacity="0.18" transform="rotate(94.4 124.5 62.6)"/>
    <path d="M 1489.1916236939148,28.8439145572968 C 1526.378910691297,59.83332038844856 1538.7746730237577,103.21848855206103 1489.1916236939148,152.80153788190387 C 1439.608574364072,103.21848855206103 1452.0043366965326,59.83332038844856 1489.1916236939148,28.8439145572968 Z" fill="url(#leaf10)" opacity="0.20" transform="rotate(60.7 1489.2 90.8)"/>
    <path d="M 1364.565123477088,374.5510397603672 C 1403.4238008208526,406.93327088017105 1416.376693268774,452.2683944478964 1364.565123477088,504.0799642395825 C 1312.753553685402,452.2683944478964 1325.7064461333234,406.93327088017105 1364.565123477088,374.5510397603672 Z" fill="url(#leaf11)" opacity="0.21" transform="rotate(253.1 1364.6 439.3)"/>
    <path d="M 1849.9542928561834,577.9758985930823 C 1896.2912240611452,616.5900079305503 1911.7368677961324,670.6497610030057 1849.9542928561834,732.4323359429545 C 1788.1717179162345,670.6497610030057 1803.6173616512217,616.5900079305503 1849.9542928561834,577.9758985930823 Z" fill="url(#leaf12)" opacity="0.22" transform="rotate(71.8 1850.0 655.2)"/>
    <path d="M 1259.4041718981382,628.1913423117528 C 1285.3686608788187,649.8284164623198 1294.0234905390455,680.1203202731136 1259.4041718981382,714.7396389140208 C 1224.784853257231,680.1203202731136 1233.4396829174577,649.8284164623198 1259.4041718981382,628.1913423117528 Z" fill="url(#leaf13)" opacity="0.23" transform="rotate(318.9 1259.4 671.5)"/>
    <path d="M 1527.977529269099,254.68641764410222 C 1559.1662087962732,280.67698391674736 1569.5624353053313,317.0637766984505 1527.977529269099,358.64868273468267 C 1486.3926232328668,317.0637766984505 1496.7888497419249,280.67698391674736 1527.977529269099,254.68641764410222 Z" fill="url(#leaf14)" opacity="0.18" transform="rotate(257.6 1528.0 306.7)"/>
    <path d="M 1214.1049474053573,264.0001299558883 C 1250.750352774546,294.5379677635456 1262.965487897609,337.29094069426577 1214.1049474053573,386.1514811865174 C 1165.2444069131056,337.29094069426577 1177.4595420361686,294.5379677635456 1214.1049474053573,264.0001299558883 Z" fill="url(#leaf15)" opacity="0.21" transform="rotate(61.5 1214.1 325.1)"/>
    <path d="M 1593.1628277284135,81.96709931051363 C 1640.4384167228545,121.36342347254788 1656.1969463876683,176.51827729939583 1593.1628277284135,239.55239595865066 C 1530.1287090691587,176.51827729939583 1545.8872387339725,121.36342347254788 1593.1628277284135,81.96709931051363 Z" fill="url(#leaf16)" opacity="0.23" transform="rotate(16.6 1593.2 160.8)"/>
    <path d="M 1541.6210575899086,788.0635287680853 C 1567.0214344437338,809.2305094796063 1575.4882267283422,838.8642824757359 1541.6210575899086,872.7314516141695 C 1507.753888451475,838.8642824757359 1516.2206807360833,809.2305094796063 1541.6210575899086,788.0635287680853 Z" fill="url(#leaf17)" opacity="0.16" transform="rotate(60.8 1541.6 830.4)"/>
    <path d="M 1031.2114509927346,631.4510777190114 C 1065.364372261381,659.9118454428835 1076.74867935093,699.7569202563045 1031.2114509927346,745.2941486144998 C 985.6742226345393,699.7569202563045 997.0585297240881,659.9118454428835 1031.2114509927346,631.4510777190114 Z" fill="url(#leaf18)" opacity="0.19" transform="rotate(166.5 1031.2 688.4)"/>
    <path d="M 60.25578951372489,146.53669338425635 C 101.23691267556758,180.68762935245857 114.89728706284848,228.4989397079417 60.25578951372489,283.1404372570653 C 5.614291964601307,228.4989397079417 19.274666351882203,180.68762935245857 60.25578951372489,146.53669338425635 Z" fill="url(#leaf19)" opacity="0.21" transform="rotate(238.6 60.3 214.8)"/>
    <path d="M 181.411207434311,214.5694970295939 C 221.41449294536065,247.90556828880193 234.74892144904385,294.5760680516932 181.411207434311,347.91378206642605 C 128.07349341957814,294.5760680516932 141.40792192326134,247.90556828880193 181.411207434311,214.5694970295939 Z" fill="url(#leaf20)" opacity="0.24" transform="rotate(199.1 181.4 281.2)"/>
    <path d="M 181.69953312333047,216.78526831713492 C 228.9425730147453,256.1544682266473 244.69025297855026,311.2713480999646 181.69953312333047,374.26206795518436 C 118.70881326811067,311.2713480999646 134.45649323191563,256.1544682266473 181.69953312333047,216.78526831713492 Z" fill="url(#leaf21)" opacity="0.16" transform="rotate(343.9 181.7 295.5)"/>
    <path d="M 734.314685898749,791.759008503681 C 753.9467666687272,808.1190758119961 760.4907935920533,831.0231700436374 734.314685898749,857.1992777369416 C 708.1385782054447,831.0231700436374 714.6826051287708,808.1190758119961 734.314685898749,791.759008503681 Z" fill="url(#leaf22)" opacity="0.21" transform="rotate(165.0 734.3 824.5)"/>
    <path d="M 1143.3598120602064,396.95938268512253 C 1169.5505305315664,418.78498141125596 1178.2807700220199,449.34081962784273 1143.3598120602064,484.2617775896562 C 1108.438854098393,449.34081962784273 1117.1690935888464,418.78498141125596 1143.3598120602064,396.95938268512253 Z" fill="url(#leaf23)" opacity="0.18" transform="rotate(261.6 1143.4 440.6)"/>
    <path d="M 567.0390134200451,128.57720006309827 C 593.6722020615284,150.771523931001 602.5499316086895,181.84357734606488 567.0390134200451,217.3544955347093 C 531.5280952314007,181.84357734606488 540.4058247785617,150.771523931001 567.0390134200451,128.57720006309827 Z" fill="url(#leaf24)" opacity="0.16" transform="rotate(287.2 567.0 173.0)"/>
    <path d="M 98.40150395635074,551.398403952338 C 130.73205978636682,578.3405338106846 141.50891172970552,616.0595156123701 98.40150395635074,659.1669233857249 C 55.29409618299594,616.0595156123701 66.07094812633466,578.3405338106846 98.40150395635074,551.398403952338 Z" fill="url(#leaf25)" opacity="0.20" transform="rotate(223.3 98.4 605.3)"/>
    <path d="M 1646.54923833126,686.4660156783308 C 1683.4352926909626,717.2043943114163 1695.7306441441967,760.2381243977359 1646.54923833126,809.4195302106726 C 1597.3678325183234,760.2381243977359 1609.6631839715576,717.2043943114163 1646.54923833126,686.4660156783308 Z" fill="url(#leaf26)" opacity="0.18" transform="rotate(155.0 1646.5 747.9)"/>
    <path d="M 310.31001671326345,174.55604509164223 C 341.77315992734174,200.77533110337413 352.2608743320345,237.48233151979883 310.31001671326345,279.4331891385699 C 268.3591590944924,237.48233151979883 278.84687349918516,200.77533110337413 310.31001671326345,174.55604509164223 Z" fill="url(#leaf27)" opacity="0.19" transform="rotate(351.2 310.3 227.0)"/>
    <path d="M 1642.9729530351303,255.67245450969494 C 1666.217789456675,275.04315152764883 1673.9660682638566,302.1621273527843 1642.9729530351303,333.1552425815105 C 1611.979837806404,302.1621273527843 1619.7281166135856,275.04315152764883 1642.9729530351303,255.67245450969494 Z" fill="url(#leaf28)" opacity="0.25" transform="rotate(64.0 1643.0 294.4)"/>
    <path d="M 1301.336281466447,467.01463516710805 C 1337.6520739486834,497.2777955689718 1349.757338109429,539.646220131581 1301.336281466447,588.067276774563 C 1252.915224823465,539.646220131581 1265.0204889842105,497.2777955689718 1301.336281466447,467.01463516710805 Z" fill="url(#leaf29)" opacity="0.23" transform="rotate(304.2 1301.3 527.5)"/>
    <path d="M 1211.575167410346,61.30541088664453 C 1246.9371529516134,90.77373217103396 1258.724481465369,132.02938196917916 1211.575167410346,179.17869602420222 C 1164.425853355323,132.02938196917916 1176.2131818690787,90.77373217103396 1211.575167410346,61.30541088664453 Z" fill="url(#leaf0)" opacity="0.21" transform="rotate(51.0 1211.6 120.2)"/>
    <path d="M 1142.5548781718833,181.2404097055858 C 1186.114558671079,217.5401434549157 1200.634452170811,268.3597707039776 1142.5548781718833,326.4393447029054 C 1084.4753041729555,268.3597707039776 1098.9951976726875,217.5401434549157 1142.5548781718833,181.2404097055858 Z" fill="url(#leaf1)" opacity="0.19" transform="rotate(81.0 1142.6 253.8)"/>
    <path d="M 458.0676218354659,374.04118733291386 C 487.02457160301964,398.17197880587526 496.6768881922042,431.9550868680213 458.0676218354659,470.56435322475954 C 419.4583554787276,431.9550868680213 429.11067206791216,398.17197880587526 458.0676218354659,374.04118733291386 Z" fill="url(#leaf2)" opacity="0.25" transform="rotate(159.9 458.1 422.3)"/>
    <path d="M 629.4741327804578,711.1181732403379 C 656.4553119270322,733.6024891958166 665.4490383092237,765.0805315334867 629.4741327804578,801.0554370622526 C 593.4992272516919,765.0805315334867 602.4929536338834,733.6024891958166 629.4741327804578,711.1181732403379 Z" fill="url(#leaf3)" opacity="0.21" transform="rotate(233.7 629.5 756.1)"/>
    <path d="M 1142.3560852178887,603.8683360857788 C 1176.3477660986302,632.19473681973 1187.6783263922107,671.8516978472619 1142.3560852178887,717.1739390215839 C 1097.0338440435667,671.8516978472619 1108.364404337147,632.19473681973 1142.3560852178887,603.8683360857788 Z" fill="url(#leaf4)" opacity="0.20" transform="rotate(152.4 1142.4 660.5)"/>
    <path d="M 345.71607687161276,219.89666865334397 C 377.83003055412,246.65829672210003 388.53468178162245,284.12457601835854 345.71607687161276,326.94318092836824 C 302.89747196160306,284.12457601835854 313.6021231891055,246.65829672210003 345.71607687161276,219.89666865334397 Z" fill="url(#leaf5)" opacity="0.25" transform="rotate(91.3 345.7 273.4)"/>
    <path d="M 1246.720956348231,336.91606957077005 C 1290.103138849847,373.0678883221166 1304.5638663503855,423.68043457400177 1246.720956348231,481.52334457615626 C 1188.8780463460766,423.68043457400177 1203.3387738466151,373.0678883221166 1246.720956348231,336.91606957077005 Z" fill="url(#leaf6)" opacity="0.23" transform="rotate(184.3 1246.7 409.2)"/>
    <path d="M 1069.080424852482,696.3424112272321 C 1097.075509714886,719.6716486125686 1106.4072046690205,752.3325809520397 1069.080424852482,789.6593607685782 C 1031.7536450359437,752.3325809520397 1041.0853399900782,719.6716486125686 1069.080424852482,696.3424112272321 Z" fill="url(#leaf7)" opacity="0.15" transform="rotate(235.3 1069.1 743.0)"/>
    <path d="M 1745.8837745623337,175.4158861550376 C 1779.0835507966676,203.08236635031597 1790.150142874779,241.81543862370566 1745.8837745623337,286.081806936151 C 1701.6174062498883,241.81543862370566 1712.6839983279997,203.08236635031597 1745.8837745623337,175.4158861550376 Z" fill="url(#leaf8)" opacity="0.20" transform="rotate(38.1 1745.9 230.7)"/>
    <path d="M 1194.218887362469,679.0298150645351 C 1240.2306039014834,717.3729121803802 1255.5678427478215,771.0532481425636 1194.218887362469,832.4022035279158 C 1132.8699319771167,771.0532481425636 1148.2071708234548,717.3729121803802 1194.218887362469,679.0298150645351 Z" fill="url(#leaf9)" opacity="0.24" transform="rotate(176.5 1194.2 755.7)"/>
    <path d="M 297.5313465079334,682.3436318909619 C 342.67521899110096,719.9635256269348 357.72317648549017,772.631376857297 297.5313465079334,832.8232068348539 C 237.3395165303766,772.631376857297 252.3874740247658,719.9635256269348 297.5313465079334,682.3436318909619 Z" fill="url(#leaf10)" opacity="0.17" transform="rotate(250.3 297.5 757.6)"/>
    <path d="M 892.0164937509633,211.0006841793919 C 916.3595488083228,231.28656339385816 924.4739004941092,259.6867942941109 892.0164937509633,292.1442010372569 C 859.5590870078173,259.6867942941109 867.6734386936038,231.28656339385816 892.0164937509633,211.0006841793919 Z" fill="url(#leaf11)" opacity="0.24" transform="rotate(150.1 892.0 251.6)"/>
    <path d="M 120.06605334049416,313.4510153804704 C 148.79058809233342,337.38812767366977 158.36543300961318,370.9000848841489 120.06605334049416,409.19946455326794 C 81.76667367137514,370.9000848841489 91.3415185886549,337.38812767366977 120.06605334049416,313.4510153804704 Z" fill="url(#leaf12)" opacity="0.15" transform="rotate(180.1 120.1 361.3)"/>
    <path d="M 222.9448805152124,192.9002769960802 C 252.22881189855462,217.3035531488654 261.9901223596687,251.46813976276468 222.9448805152124,290.513381607221 C 183.89963867075608,251.46813976276468 193.66094913187015,217.3035531488654 222.9448805152124,192.9002769960802 Z" fill="url(#leaf13)" opacity="0.19" transform="rotate(315.5 222.9 241.7)"/>
    <path d="M 1825.4465544982081,762.0694953221612 C 1872.8198568288637,801.5472472643743 1888.610957605749,856.8160999834724 1825.4465544982081,919.9805030910134 C 1762.2821513906672,856.8160999834724 1778.0732521675525,801.5472472643743 1825.4465544982081,762.0694953221612 Z" fill="url(#leaf14)" opacity="0.16" transform="rotate(354.1 1825.4 841.0)"/>
    <path d="M 844.860362905259,814.9600793203392 C 876.1303391521393,841.0183928594062 886.5536645677661,877.5000318140999 844.860362905259,919.193333476607 C 803.1670612427519,877.5000318140999 813.5903866583786,841.0183928594062 844.860362905259,814.9600793203392 Z" fill="url(#leaf15)" opacity="0.21" transform="rotate(161.7 844.9 867.1)"/>
    <path d="M 800.0398358670014,518.286574937306 C 845.5827604301986,556.2390120733036 860.7637352845977,609.3724240637004 800.0398358670014,670.0963234812965 C 739.3159364494052,609.3724240637004 754.4969113038043,556.2390120733036 800.0398358670014,518.286574937306 Z" fill="url(#leaf16)" opacity="0.24" transform="rotate(359.5 800.0 594.2)"/>
    <path d="M 967.6050182742233,329.049079067046 C 997.4565958993271,353.9253937546326 1007.4071217743618,388.75223431725374 967.6050182742233,428.55433781739225 C 927.8029147740848,388.75223431725374 937.7534406491195,353.9253937546326 967.6050182742233,329.049079067046 Z" fill="url(#leaf17)" opacity="0.17" transform="rotate(6.2 967.6 378.8)"/>
    <path d="M 860.3316681554636,138.81991687737278 C 894.3716622509088,167.18657862357708 905.7183269493905,206.89990506826314 860.3316681554636,252.28656386219004 C 814.9450093615367,206.89990506826314 826.2916740600184,167.18657862357708 860.3316681554636,138.81991687737278 Z" fill="url(#leaf18)" opacity="0.15" transform="rotate(327.1 860.3 195.6)"/>
    <path d="M 608.7088359039881,111.51361952884987 C 642.5021737056733,139.67473436358753 653.7666196395684,179.10029513222028 608.7088359039881,224.15807886780055 C 563.6510521684078,179.10029513222028 574.9154981023029,139.67473436358753 608.7088359039881,111.51361952884987 Z" fill="url(#leaf19)" opacity="0.24" transform="rotate(103.7 608.7 167.8)"/>
    <path d="M 1625.083204538489,221.43792941848352 C 1659.871942369931,250.4285442780184 1671.4681883137448,291.0154050813672 1625.083204538489,337.400388856623 C 1578.6982207632334,291.0154050813672 1590.2944667070471,250.4285442780184 1625.083204538489,221.43792941848352 Z" fill="url(#leaf20)" opacity="0.19" transform="rotate(316.0 1625.1 279.4)"/>
    <path d="M 946.2054413235046,822.3396265659222 C 971.6196515146918,843.5181350585782 980.0910549117541,873.1680469482966 946.2054413235046,907.0536605365461 C 912.3198277352551,873.1680469482966 920.7912311323174,843.5181350585782 946.2054413235046,822.3396265659222 Z" fill="url(#leaf21)" opacity="0.19" transform="rotate(187.0 946.2 864.7)"/>
    <path d="M 1841.4612108087258,660.4272171325155 C 1863.81815585102,679.0580046677608 1871.270470865118,705.141107217104 1841.4612108087258,734.9503672734965 C 1811.6519507523335,705.141107217104 1819.1042657664316,679.0580046677608 1841.4612108087258,660.4272171325155 Z" fill="url(#leaf22)" opacity="0.22" transform="rotate(295.6 1841.5 697.7)"/>
    <path d="M 1553.6685614206347,411.80196557775145 C 1578.34034702706,432.3617869164392 1586.5642755625352,461.14553679060214 1553.6685614206347,494.0412509325026 C 1520.7728472787342,461.14553679060214 1528.9967758142093,432.3617869164392 1553.6685614206347,411.80196557775145 Z" fill="url(#leaf23)" opacity="0.19" transform="rotate(283.7 1553.7 452.9)"/>
    <path d="M 1568.979082541044,199.96622452171118 C 1593.8101066603783,220.65874462115647 1602.0871147001565,249.6282727603799 1568.979082541044,282.7363049194924 C 1535.8710503819314,249.6282727603799 1544.1480584217095,220.65874462115647 1568.979082541044,199.96622452171118 Z" fill="url(#leaf24)" opacity="0.16" transform="rotate(278.9 1569.0 241.4)"/>
    <path d="M 1581.1558561014926,951.8000305156904 C 1611.1615131566043,976.8047447282834 1621.1633988416413,1011.8113446259135 1581.1558561014926,1051.8188873660622 C 1541.148313361344,1011.8113446259135 1551.150199046381,976.8047447282834 1581.1558561014926,951.8000305156904 Z" fill="url(#leaf25)" opacity="0.22" transform="rotate(277.1 1581.2 1001.8)"/>
    <path d="M 1845.5400607040026,901.4807049362056 C 1885.6398768701997,934.8972184080365 1899.006482258932,981.6803372685996 1845.5400607040026,1035.146758823529 C 1792.0736391490732,981.6803372685996 1805.4402445378055,934.8972184080365 1845.5400607040026,901.4807049362056 Z" fill="url(#leaf26)" opacity="0.18" transform="rotate(41.9 1845.5 968.3)"/>
    <path d="M 279.4268463838573,733.2138238523384 C 319.09676609435076,766.2720902777495 332.3200726645153,812.5536632733252 279.4268463838573,865.4468895539832 C 226.53362010319935,812.5536632733252 239.75692667336384,766.2720902777495 279.4268463838573,733.2138238523384 Z" fill="url(#leaf27)" opacity="0.16" transform="rotate(344.5 279.4 799.3)"/>
    <path d="M 1353.4659787618718,236.55830681507584 C 1380.2220927277938,258.8550684533442 1389.1407973831012,290.0705347469199 1353.4659787618718,325.74535336814927 C 1317.7911601406424,290.0705347469199 1326.70986479595,258.8550684533442 1353.4659787618718,236.55830681507584 Z" fill="url(#leaf28)" opacity="0.20" transform="rotate(63.6 1353.5 281.2)"/>
    <path d="M 306.92393990787843,172.6729315458283 C 336.28730436307467,197.1424019251585 346.0750925148067,231.39966045622077 306.92393990787843,270.55081306314906 C 267.77278730095014,231.39966045622077 277.5605754526822,197.1424019251585 306.92393990787843,172.6729315458283 Z" fill="url(#leaf29)" opacity="0.19" transform="rotate(68.3 306.9 221.6)"/>
    <path d="M 1293.6351352593447,610.2873533451035 C 1313.148793762901,626.5487354314004 1319.6533465974198,649.3146703522161 1293.6351352593447,675.3328816902912 C 1267.6169239212695,649.3146703522161 1274.1214767557883,626.5487354314004 1293.6351352593447,610.2873533451035 Z" fill="url(#leaf0)" opacity="0.25" transform="rotate(44.5 1293.6 642.8)"/>
    <path d="M 422.24546275140017,781.6933612324615 C 465.8923670106811,818.0657814485289 480.4413350971081,868.9871697510233 422.24546275140017,927.1830420967312 C 364.04959040569224,868.9871697510233 378.59855849211925,818.0657814485289 422.24546275140017,781.6933612324615 Z" fill="url(#leaf1)" opacity="0.22" transform="rotate(237.7 422.2 854.4)"/>
    <path d="M 1017.0052595418609,306.914822280211 C 1054.5350746983524,338.189668243954 1067.0450130838497,381.97445259319414 1017.0052595418609,432.01420613518286 C 966.9655059998722,381.97445259319414 979.4754443853694,338.189668243954 1017.0052595418609,306.914822280211 Z" fill="url(#leaf2)" opacity="0.16" transform="rotate(340.9 1017.0 369.5)"/>
    <path d="M 175.84165894739067,883.6207687316867 C 218.15628389327514,918.8829561865904 232.26115887523662,968.2500186234556 175.84165894739067,1024.6695185513015 C 119.42215901954471,968.2500186234556 133.5270340015062,918.8829561865904 175.84165894739067,883.6207687316867 Z" fill="url(#leaf3)" opacity="0.22" transform="rotate(151.9 175.8 954.1)"/>
    <path d="M 1203.2592531160462,836.1092755690286 C 1235.156949600816,862.6906893063367 1245.7895150957393,899.9046685385681 1203.2592531160462,942.4349305182611 C 1160.7289911363532,899.9046685385681 1171.3615566312765,862.6906893063367 1203.2592531160462,836.1092755690286 Z" fill="url(#leaf4)" opacity="0.24" transform="rotate(107.0 1203.3 889.3)"/>
    <path d="M 1253.2850066488163,362.4543193698009 C 1274.0950945789862,379.7960593116091 1281.0317905557094,404.0744952301406 1253.2850066488163,431.82127913703374 C 1225.5382227419232,404.0744952301406 1232.4749187186464,379.7960593116091 1253.2850066488163,362.4543193698009 Z" fill="url(#leaf5)" opacity="0.19" transform="rotate(54.9 1253.3 397.1)"/>
    <path d="M 1415.061819667757,269.0196198741423 C 1450.228418713526,298.32511907894985 1461.950618395449,339.3528179656804 1415.061819667757,386.24161669337246 C 1368.1730209400648,339.3528179656804 1379.8952206219878,298.32511907894985 1415.061819667757,269.0196198741423 Z" fill="url(#leaf6)" opacity="0.23" transform="rotate(12.0 1415.1 327.6)"/>
    <path d="M 895.4576354641414,432.72923657330847 C 919.6993963532781,452.9307039809223 927.7799833163236,481.2127583515818 895.4576354641414,513.535106203764 C 863.1352876119591,481.2127583515818 871.2158745750047,452.9307039809223 895.4576354641414,432.72923657330847 Z" fill="url(#leaf7)" opacity="0.21" transform="rotate(131.5 895.5 473.1)"/>
    <path d="M 870.370747703037,487.72216432809034 C 894.2286993090538,507.60379066643776 902.1813498443928,535.4380675401242 870.370747703037,567.24866968148 C 838.5601455616811,535.4380675401242 846.5127960970201,507.60379066643776 870.370747703037,487.72216432809034 Z" fill="url(#leaf8)" opacity="0.22" transform="rotate(182.9 870.4 527.5)"/>
    <path d="M 527.2767297859468,298.2837145641226 C 553.4557737174529,320.09958450704426 562.1821216946215,350.6418024271347 527.2767297859468,385.54719433580937 C 492.3713378772721,350.6418024271347 501.0976858544408,320.09958450704426 527.2767297859468,298.2837145641226 Z" fill="url(#leaf9)" opacity="0.20" transform="rotate(88.7 527.3 341.9)"/>
    <path d="M 325.2815676086431,430.62626313086855 C 349.02083807770646,450.4089885217547 356.93392823406094,478.10480406899524 325.2815676086431,509.75716469441306 C 293.6292069832253,478.10480406899524 301.5422971395798,450.4089885217547 325.2815676086431,430.62626313086855 Z" fill="url(#leaf10)" opacity="0.24" transform="rotate(178.0 325.3 470.2)"/>
    <path d="M 150.84209298293996,880.4320129970422 C 187.58988338200416,911.055171662929 199.8391468483589,953.9275937951705 150.84209298293996,1002.9246476605895 C 101.84503911752103,953.9275937951705 114.09430258387576,911.055171662929 150.84209298293996,880.4320129970422 Z" fill="url(#leaf11)" opacity="0.15" transform="rotate(79.5 150.8 941.7)"/>
    <path d="M 1446.5480195018454,415.7190501339318 C 1490.2740053558844,452.15737167896435 1504.8493339738975,503.17102184200996 1446.5480195018454,561.4723363140621 C 1388.2467050297932,503.17102184200996 1402.8220336478064,452.15737167896435 1446.5480195018454,415.7190501339318 Z" fill="url(#leaf12)" opacity="0.18" transform="rotate(175.2 1446.5 488.6)"/>
    <path d="M 1300.826922259391,656.963927884486 C 1343.5078779795776,692.5313909846415 1357.73486321964,742.3258393248592 1300.826922259391,799.2337802851081 C 1243.9189812991422,742.3258393248592 1258.1459665392044,692.5313909846415 1300.826922259391,656.963927884486 Z" fill="url(#leaf13)" opacity="0.22" transform="rotate(73.8 1300.8 728.1)"/>
    <path d="M 763.8632525752299,678.1043664668136 C 788.0534746501885,698.2628848626124 796.116882008508,726.4848106167308 763.8632525752299,758.7384400500089 C 731.6096231419518,726.4848106167308 739.6730305002714,698.2628848626124 763.8632525752299,678.1043664668136 Z" fill="url(#leaf14)" opacity="0.19" transform="rotate(218.6 763.9 718.4)"/>
    <path d="M 1556.8375766090367,461.86259524080583 C 1577.5805236139129,479.148384411536 1584.4948392822048,503.34848925055815 1556.8375766090367,531.0057519237264 C 1529.1803139358685,503.34848925055815 1536.0946296041604,479.148384411536 1556.8375766090367,461.86259524080583 Z" fill="url(#leaf15)" opacity="0.17" transform="rotate(173.4 1556.8 496.4)"/>
    <path d="M 549.6252294092969,359.0855676484797 C 583.5403536770037,387.348171204902 594.8453950995726,426.9158161838932 549.6252294092969,472.1359818741688 C 504.40506371902126,426.9158161838932 515.7101051415901,387.348171204902 549.6252294092969,359.0855676484797 Z" fill="url(#leaf16)" opacity="0.17" transform="rotate(318.2 549.6 415.6)"/>
    <path d="M 1663.4831756420685,167.60748115030623 C 1698.8849209696698,197.10893558997398 1710.685502745537,238.41097180550886 1663.4831756420685,285.6132989089773 C 1616.2808485386001,238.41097180550886 1628.0814303144673,197.10893558997398 1663.4831756420685,167.60748115030623 Z" fill="url(#leaf17)" opacity="0.21" transform="rotate(48.9 1663.5 226.6)"/>
    <path d="M 362.53595588038417,350.6021354746149 C 401.7295994088575,383.263505081676 414.7941472516819,428.9894225315615 362.53595588038417,481.24761390285926 C 310.2777645090864,428.9894225315615 323.34231235191083,383.263505081676 362.53595588038417,350.6021354746149 Z" fill="url(#leaf18)" opacity="0.24" transform="rotate(282.8 362.5 415.9)"/>
    <path d="M 381.444684110509,336.5831144900217 C 427.9255047649867,375.31713170208644 443.41911164981263,429.5447557989771 381.444684110509,491.5191833382807 C 319.47025657120537,429.5447557989771 334.9638634560313,375.31713170208644 381.444684110509,336.5831144900217 Z" fill="url(#leaf19)" opacity="0.21" transform="rotate(134.5 381.4 414.1)"/>
    <path d="M 612.6083100922607,741.8111741993273 C 649.8790976405713,772.8701638229195 662.3026934900082,816.3527492959486 612.6083100922607,866.0471326936961 C 562.9139266945132,816.3527492959486 575.3375225439501,772.8701638229195 612.6083100922607,741.8111741993273 Z" fill="url(#leaf20)" opacity="0.16" transform="rotate(280.1 612.6 803.9)"/>
    <path d="M 1307.0317224057942,822.8515530173265 C 1339.577834044801,849.9733127164989 1350.42653792447,887.9437762953402 1307.0317224057942,931.3385918140159 C 1263.6369068871184,887.9437762953402 1274.4856107667874,849.9733127164989 1307.0317224057942,822.8515530173265 Z" fill="url(#leaf21)" opacity="0.18" transform="rotate(206.5 1307.0 877.1)"/>
    <path d="M 927.1178349436644,889.4981719515556 C 975.071777792935,929.4597909926143 991.0564254093586,985.4060576500967 927.1178349436644,1049.3446481157907 C 863.1792444779703,985.4060576500967 879.1638920943939,929.4597909926143 927.1178349436644,889.4981719515556 Z" fill="url(#leaf22)" opacity="0.22" transform="rotate(225.5 927.1 969.4)"/>
    <path d="M 88.312547308601,557.2697544716509 C 125.19457607623457,588.0047784446789 137.48858566544575,631.0338120069181 88.312547308601,680.2098503637628 C 39.13650895175624,631.0338120069181 51.430518540967434,588.0047784446789 88.312547308601,557.2697544716509 Z" fill="url(#leaf23)" opacity="0.16" transform="rotate(357.3 88.3 618.7)"/>
    <path d="M 931.2951594553515,751.0108672642854 C 970.669383518873,783.8227206505533 983.7941248733802,829.7593153913283 931.2951594553515,882.258280809357 C 878.7961940373228,829.7593153913283 891.92093539183,783.8227206505533 931.2951594553515,751.0108672642854 Z" fill="url(#leaf24)" opacity="0.21" transform="rotate(266.4 931.3 816.6)"/>
    <path d="M 782.2686136936569,82.96027649886511 C 827.6923218106604,120.813366596368 842.8335578496615,173.80769273287203 782.2686136936569,234.37263688887666 C 721.7036695376523,173.80769273287203 736.8449055766534,120.813366596368 782.2686136936569,82.96027649886511 Z" fill="url(#leaf25)" opacity="0.19" transform="rotate(86.0 782.3 158.7)"/>
    <path d="M 209.4393132962077,809.8030487916767 C 253.35722776771019,846.4013108512621 267.99653259154434,897.6388777346817 209.4393132962077,956.1960970300183 C 150.88209400087104,897.6388777346817 165.52139882470522,846.4013108512621 209.4393132962077,809.8030487916767 Z" fill="url(#leaf26)" opacity="0.25" transform="rotate(106.5 209.4 883.0)"/>
    <path d="M 362.11144932057147,177.47236365522895 C 396.28210796218553,205.9479125232407 407.67232750939024,245.81368093845714 362.11144932057147,291.3745591272759 C 316.5505711317527,245.81368093845714 327.9407906789574,205.9479125232407 362.11144932057147,177.47236365522895 Z" fill="url(#leaf27)" opacity="0.16" transform="rotate(218.5 362.1 234.4)"/>
    <path d="M 534.5359373687679,529.3509374871014 C 578.0184499623317,565.5863646484045 592.512620826853,616.3159626742289 534.5359373687679,674.2926461323138 C 476.5592539106829,616.3159626742289 491.0534247752042,565.5863646484045 534.5359373687679,529.3509374871014 Z" fill="url(#leaf28)" opacity="0.25" transform="rotate(11.0 534.5 601.8)"/>
    <path d="M 537.0873720267873,278.00294446014345 C 569.8695520250873,305.3214277920601 580.796945357854,343.56730445674344 537.0873720267873,387.2768777878101 C 493.3777986957206,343.56730445674344 504.3051920284873,305.3214277920601 537.0873720267873,278.00294446014345 Z" fill="url(#leaf29)" opacity="0.17" transform="rotate(75.8 537.1 332.6)"/>
    <path d="M 638.5963285679286,932.1548930024605 C 659.4266448202569,949.5134898794007 666.370083571033,973.8155255071171 638.5963285679286,1001.5892805102214 C 610.8225735648242,973.8155255071171 617.7660123156003,949.5134898794007 638.5963285679286,932.1548930024605 Z" fill="url(#leaf0)" opacity="0.24" transform="rotate(206.6 638.6 966.9)"/>
    <path d="M 1636.4491874688438,944.2196120862138 C 1681.3506103277189,981.6374644686098 1696.3177512806774,1034.022457803964 1636.4491874688438,1093.8910216157976 C 1576.5806236570102,1034.022457803964 1591.5477646099687,981.6374644686098 1636.4491874688438,944.2196120862138 Z" fill="url(#leaf1)" opacity="0.17" transform="rotate(240.5 1636.4 1019.1)"/>
    <path d="M 925.2202577929918,66.43246916084712 C 969.2712592013277,103.14163700112701 983.9549263374396,154.53447197751885 925.2202577929918,213.26914052196668 C 866.485589248544,154.53447197751885 881.1692563846559,103.14163700112701 925.2202577929918,66.43246916084712 Z" fill="url(#leaf2)" opacity="0.16" transform="rotate(225.1 925.2 139.9)"/>
    <path d="M 480.3001477753339,477.8979153607977 C 505.9951608135332,499.31042622596374 514.5601651595996,529.2879414371962 480.3001477753339,563.5479588214619 C 446.04013039106826,529.2879414371962 454.6051347371347,499.31042622596374 480.3001477753339,477.8979153607977 Z" fill="url(#leaf3)" opacity="0.20" transform="rotate(6.7 480.3 520.7)"/>
    <path d="M 1635.7291557997153,891.1222457383088 C 1661.115604669288,912.277619796286 1669.5777542924786,941.895143477454 1635.7291557997153,975.7437419702175 C 1601.880557306952,941.895143477454 1610.3427069301426,912.277619796286 1635.7291557997153,891.1222457383088 Z" fill="url(#leaf4)" opacity="0.23" transform="rotate(342.7 1635.7 933.4)"/>
    <path d="M 733.183629216592,862.3681395237264 C 764.3586940166934,888.3473601904777 774.750382283394,924.7182691239294 733.183629216592,966.2850221907314 C 691.61687614979,924.7182691239294 702.0085644164905,888.3473601904777 733.183629216592,862.3681395237264 Z" fill="url(#leaf5)" opacity="0.18" transform="rotate(326.2 733.2 914.3)"/>
    <path d="M 729.7303504890633,442.0624046309155 C 754.5576903515804,462.75185451634644 762.8334703057528,491.71708435594974 729.7303504890633,524.8202041726393 C 696.6272306723738,491.71708435594974 704.9030106265462,462.75185451634644 729.7303504890633,442.0624046309155 Z" fill="url(#leaf6)" opacity="0.20" transform="rotate(148.3 729.7 483.4)"/>
    <path d="M 269.14661272260696,672.5046885724577 C 297.5037254983669,696.135615885591 306.95609642362024,729.2189141239777 269.14661272260696,767.028397824991 C 231.33712902159365,729.2189141239777 240.78949994684697,696.135615885591 269.14661272260696,672.5046885724577 Z" fill="url(#leaf7)" opacity="0.17" transform="rotate(60.9 269.1 719.8)"/>
    <path d="M 704.9616837334482,483.4455535371021 C 744.3824209005716,516.2961678430382 757.5226666229461,562.2870278713488 704.9616837334482,614.8480107608466 C 652.4007008439504,562.2870278713488 665.5409465663249,516.2961678430382 704.9616837334482,483.4455535371021 Z" fill="url(#leaf8)" opacity="0.24" transform="rotate(22.0 705.0 549.1)"/>
    <path d="M 329.67436335795577,506.1125040131554 C 350.0825637212884,523.119337649266 356.8852971757326,546.9289047398207 329.67436335795577,574.1398385575975 C 302.46342954017894,546.9289047398207 309.26616299462313,523.119337649266 329.67436335795577,506.1125040131554 Z" fill="url(#leaf9)" opacity="0.21" transform="rotate(276.9 329.7 540.1)"/>
    <path d="M 1706.4752081427293,181.0035557308545 C 1751.5369517192757,218.55500871130982 1766.5575329114579,271.1270428839473 1706.4752081427293,331.20936765267584 C 1646.3928833740008,271.1270428839473 1661.413464566183,218.55500871130982 1706.4752081427293,181.0035557308545 Z" fill="url(#leaf10)" opacity="0.19" transform="rotate(301.7 1706.5 256.1)"/>
    <path d="M 655.0707590436617,481.4829765417592 C 682.0114491423518,503.93355162400087 690.9916791752485,535.3643567391392 655.0707590436617,571.285276870726 C 619.149838912075,535.3643567391392 628.1300689449716,503.93355162400087 655.0707590436617,481.4829765417592 Z" fill="url(#leaf11)" opacity="0.16" transform="rotate(83.4 655.1 526.4)"/>
    <path d="M 646.5315282015854,130.1325447680065 C 675.1877322277954,154.01271478984825 684.7398002365321,187.44495282042666 646.5315282015854,225.65322485537345 C 608.3232561666387,187.44495282042666 617.8753241753753,154.01271478984825 646.5315282015854,130.1325447680065 Z" fill="url(#leaf12)" opacity="0.16" transform="rotate(5.8 646.5 177.9)"/>
    <path d="M 169.99058773352823,682.4058862985191 C 201.99319744681893,709.0747277262615 212.66073401791584,746.4111057251006 169.99058773352823,789.0812520094883 C 127.32044144914062,746.4111057251006 137.98797802023753,709.0747277262615 169.99058773352823,682.4058862985191 Z" fill="url(#leaf13)" opacity="0.16" transform="rotate(211.6 170.0 735.7)"/>
    <path d="M 893.3208173581885,549.7296815615962 C 930.7772483185136,580.9433740285338 943.2627253052887,624.6425434822463 893.3208173581885,674.5844514293465 C 843.3789094110883,624.6425434822463 855.8643863978634,580.9433740285338 893.3208173581885,549.7296815615962 Z" fill="url(#leaf14)" opacity="0.24" transform="rotate(235.5 893.3 612.2)"/>
    <path d="M 1136.7351285188197,992.9932380351441 C 1156.0631353848592,1009.0999104235103 1162.5058043402057,1031.6492517672232 1136.7351285188197,1057.4199275886092 C 1110.9644526974337,1031.6492517672232 1117.4071216527802,1009.0999104235103 1136.7351285188197,992.9932380351441 Z" fill="url(#leaf15)" opacity="0.23" transform="rotate(352.3 1136.7 1025.2)"/>
    <path d="M 753.096173116165,853.1960842791775 C 798.6939650861341,891.1942442541518 813.8932290761238,944.3916682191158 753.096173116165,1005.1887241790746 C 692.2991171562062,944.3916682191158 707.4983811461959,891.1942442541518 753.096173116165,853.1960842791775 Z" fill="url(#leaf16)" opacity="0.21" transform="rotate(21.8 753.1 929.2)"/>
    <path d="M 1247.5556740954971,984.0680773014775 C 1267.7401208734145,1000.8884496164087 1274.468269799387,1024.4369708573124 1247.5556740954971,1051.3495665612022 C 1220.6430783916073,1024.4369708573124 1227.3712273175797,1000.8884496164087 1247.5556740954971,984.0680773014775 Z" fill="url(#leaf17)" opacity="0.16" transform="rotate(13.1 1247.6 1017.7)"/>
    <path d="M 1528.4194992699659,504.52109732667145 C 1564.1860619221616,534.3265662035012 1576.1082494728935,576.0542226310628 1528.4194992699659,623.7429728339903 C 1480.7307490670382,576.0542226310628 1492.6529366177701,534.3265662035012 1528.4194992699659,504.52109732667145 Z" fill="url(#leaf18)" opacity="0.25" transform="rotate(66.6 1528.4 564.1)"/>
    <path d="M 416.51791782847454,57.51649041966883 C 461.32444181572026,94.85526040904027 476.25994981146886,147.12953839416028 416.51791782847454,206.8715703771546 C 356.7758858454802,147.12953839416028 371.7113938412288,94.85526040904027 416.51791782847454,57.51649041966883 Z" fill="url(#leaf19)" opacity="0.22" transform="rotate(190.4 416.5 132.2)"/>
    <path d="M 1256.1734464741733,386.1459737942832 C 1281.4457692871138,407.20624280506684 1289.869876891427,436.69061942016396 1256.1734464741733,470.3870498374178 C 1222.4770160569194,436.69061942016396 1230.9011236612328,407.20624280506684 1256.1734464741733,386.1459737942832 Z" fill="url(#leaf20)" opacity="0.25" transform="rotate(267.5 1256.2 428.3)"/>
    <path d="M 1736.0911535416185,965.0949340756672 C 1768.8577515315376,992.4004324005998 1779.7799508615105,1030.6281300555054 1736.0911535416185,1074.3169273753977 C 1692.4023562217264,1030.6281300555054 1703.3245555516994,992.4004324005998 1736.0911535416185,965.0949340756672 Z" fill="url(#leaf21)" opacity="0.18" transform="rotate(345.6 1736.1 1019.7)"/>
    <path d="M 1703.105487996587,709.4240794857562 C 1740.4033293305156,740.5056139306967 1752.8359431084916,784.0197621536132 1703.105487996587,833.7502172655179 C 1653.3750328846825,784.0197621536132 1665.8076466626585,740.5056139306967 1703.105487996587,709.4240794857562 Z" fill="url(#leaf22)" opacity="0.16" transform="rotate(261.0 1703.1 771.6)"/>
    <path d="M 1629.7171347180006,802.8828473760876 C 1671.0075962799424,837.2915653443724 1684.7710834672562,885.4637704999711 1629.7171347180006,940.5177192492268 C 1574.663185968745,885.4637704999711 1588.4266731560588,837.2915653443724 1629.7171347180006,802.8828473760876 Z" fill="url(#leaf23)" opacity="0.24" transform="rotate(163.8 1629.7 871.7)"/>
    <path d="M 1773.952403237137,857.2457127118413 C 1792.380520877738,872.6024774123421 1798.5232267579386,894.1019479930433 1773.952403237137,918.6727715138446 C 1749.3815797163356,894.1019479930433 1755.5242855965362,872.6024774123421 1773.952403237137,857.2457127118413 Z" fill="url(#leaf24)" opacity="0.16" transform="rotate(168.0 1774.0 888.0)"/>
    <path d="M 1145.6182942391415,70.23898504452373 C 1183.204254726504,101.56061878399234 1195.7329082222914,145.4109060192484 1145.6182942391415,195.52552000239817 C 1095.5036802559916,145.4109060192484 1108.032333751779,101.56061878399234 1145.6182942391415,70.23898504452373 Z" fill="url(#leaf25)" opacity="0.17" transform="rotate(185.1 1145.6 132.9)"/>
    <path d="M 1062.6198554695943,764.0121667685096 C 1098.8979553705738,794.2439166859925 1110.990655337567,836.5683665704687 1062.6198554695943,884.9391664384414 C 1014.2490556016215,836.5683665704687 1026.3417555686149,794.2439166859925 1062.6198554695943,764.0121667685096 Z" fill="url(#leaf26)" opacity="0.17" transform="rotate(179.8 1062.6 824.5)"/>
    <path d="M 1200.5245829495052,799.414404951303 C 1234.833961583246,828.0055538127538 1246.2704211278265,868.0331622187848 1200.5245829495052,913.779000397106 C 1154.778744771184,868.0331622187848 1166.2152043157644,828.0055538127538 1200.5245829495052,799.414404951303 Z" fill="url(#leaf27)" opacity="0.23" transform="rotate(189.0 1200.5 856.6)"/>
    <path d="M 477.1216894767293,131.1609874680319 C 503.0768772387342,152.79031060303603 511.7286064927359,183.0713629920418 477.1216894767293,217.6782800080484 C 442.51477246072267,183.0713629920418 451.16650171472435,152.79031060303603 477.1216894767293,131.1609874680319 Z" fill="url(#leaf28)" opacity="0.17" transform="rotate(180.9 477.1 174.4)"/>
    <path d="M 1380.4444041457884,913.5402713274666 C 1413.539493460005,941.119512422647 1424.5711898980771,979.7304499558994 1380.4444041457884,1023.857235708188 C 1336.3176183934997,979.7304499558994 1347.349314831572,941.119512422647 1380.4444041457884,913.5402713274666 Z" fill="url(#leaf29)" opacity="0.21" transform="rotate(162.3 1380.4 968.7)"/>
    <path d="M 631.177739597847,128.23618323983803 C 667.0729717703503,158.14887671692412 679.0380491611847,200.02664758484465 631.177739597847,247.8869571481824 C 583.3174300345092,200.02664758484465 595.2825074253437,158.14887671692412 631.177739597847,128.23618323983803 Z" fill="url(#leaf0)" opacity="0.23" transform="rotate(346.9 631.2 188.1)"/>
    <path d="M 603.3322389985616,579.107615639757 C 628.9468372358366,600.4531141708194 637.4850366482616,630.3368121143069 603.3322389985616,664.4896097640068 C 569.1794413488616,630.3368121143069 577.7176407612866,600.4531141708194 603.3322389985616,579.107615639757 Z" fill="url(#leaf1)" opacity="0.20" transform="rotate(31.7 603.3 621.8)"/>
    <path d="M 366.15786218518895,830.1692845371368 C 388.74899155639235,848.9952256798063 396.27936801346016,875.3515432795435 366.15786218518895,905.4730491078147 C 336.03635635691774,875.3515432795435 343.56673281398554,848.9952256798063 366.15786218518895,830.1692845371368 Z" fill="url(#leaf2)" opacity="0.16" transform="rotate(67.0 366.2 867.8)"/>
    <path d="M 1639.6183849816803,675.2877363677977 C 1659.8577546922982,692.1538777933126 1666.6042112625041,715.7664757890335 1639.6183849816803,742.7523020698574 C 1612.6325587008564,715.7664757890335 1619.3790152710624,692.1538777933126 1639.6183849816803,675.2877363677977 Z" fill="url(#leaf3)" opacity="0.23" transform="rotate(58.2 1639.6 709.0)"/>
    <path d="M 1002.2471141201719,573.9888945783052 C 1040.457122805066,605.8305684823839 1053.1937923666976,650.4089119480939 1002.2471141201719,701.3555901946197 C 951.3004358736462,650.4089119480939 964.0371054352776,605.8305684823839 1002.2471141201719,573.9888945783052 Z" fill="url(#leaf4)" opacity="0.16" transform="rotate(181.8 1002.2 637.7)"/>
    <path d="M 984.1854492627609,415.4171885328683 C 1002.2385879479974,430.4614707705654 1008.2563008430762,451.52346590334133 984.1854492627609,475.5943174836567 C 960.1145976824456,451.52346590334133 966.1323105775244,430.4614707705654 984.1854492627609,415.4171885328683 Z" fill="url(#leaf5)" opacity="0.22" transform="rotate(166.4 984.2 445.5)"/>
    <path d="M 417.96643996274236,544.5944857104914 C 446.5263984815576,568.3944511428375 456.04638465449597,601.7144027481219 417.96643996274236,639.7943474398755 C 379.88649527098875,601.7144027481219 389.40648144392713,568.3944511428375 417.96643996274236,544.5944857104914 Z" fill="url(#leaf6)" opacity="0.19" transform="rotate(126.3 418.0 592.2)"/>
    <path d="M 537.9189155617378,297.37027982707696 C 556.218202104073,312.619685279023 562.3179642848514,333.9688529117474 537.9189155617378,358.367901634861 C 513.5198668386241,333.9688529117474 519.6196290194025,312.619685279023 537.9189155617378,297.37027982707696 Z" fill="url(#leaf7)" opacity="0.23" transform="rotate(70.4 537.9 327.9)"/>
    </g>

    <!-- Text with SOLID fill only (ThorVG compatible) -->
    <text x="916.1" y="862.8"
          font-family="Arial, Helvetica, sans-serif"
          font-size="1080px"
          font-weight="bold"
          fill="#00FA9A"
          text-anchor="middle"
          transform="rotate(7.2 960.0 540.0)">
      I
    </text>
  </g>

  <!-- Frame counter -->
  <text x="960.0" y="1050.0"
        font-family="monospace"
        font-size="24px"
        fill="#FFFFFF"
        text-anchor="middle"
        opacity="0.7">
    Frame 00074 - Compatible
  </text>
</svg>