<?xml version="1.0" encoding="UTF-8"?>
<svg xmlns="http://www.w3.org/2000/svg" viewBox="0 0 1920 1080" width="1920" height="1080">
  <defs>
    <linearGradient id="bgGrad" x1="0%" y1="0%" x2="100%" y2="100%">
      <stop offset="0%" stop-color="#4ECDC4"/>
      <stop offset="100%" stop-color="#DC143C"/>
    </linearGradient>
    <clipPath id="complexClip"><polygon points="1356.0,540.0 1566.4,583.1 1553.2,625.7 1327.8,621.9 1297.9,644.5 1434.5,733.9 1369.9,756.5 1377.8,824.1 1210.5,762.1 1214.0,843.6 1155.6,878.6 1035.2,761.8 986.3,775.0 930.5,803.6 870.9,802.8 804.8,808.7 778.6,756.9 726.5,747.0 575.1,801.7 496.1,785.0 426.2,758.2 384.2,718.1 518.0,638.4 443.8,614.5 384.4,580.9 475.6,540.0 557.3,511.4 420.9,462.1 411.6,417.9 420.5,373.2 620.4,401.2 494.1,293.9 616.7,306.6 715.8,323.6 713.8,245.7 837.7,328.2 862.7,253.0 919.2,175.4 994.5,231.4 1047.3,282.6 1134.9,237.2 1226.7,221.2 1198.1,329.0 1211.4,369.0 1360.5,328.4 1492.9,322.2 1360.6,416.1 1351.0,452.9 1510.2,460.5 1386.3,509.7"/></clipPath>
    <radialGradient id="leaf0" cx="50%" cy="50%" r="70%">
      <stop offset="0%" stop-color="#4ECDC4"/>
      <stop offset="50%" stop-color="#7B68EE"/>
      <stop offset="100%" stop-color="#FFD700"/>
    </radialGradient>
    <radialGradient id="leaf1" cx="50%" cy="50%" r="70%">
      <stop offset="0%" stop-color="#9370DB"/>
      <stop offset="50%" stop-color="#4ECDC4"/>
      <stop offset="100%" stop-color="#00CED1"/>
    </radialGradient>
    <radialGradient id="leaf2" cx="50%" cy="50%" r="70%">
      <stop offset="0%" stop-color="#00CED1"/>
      <stop offset="50%" stop-color="#FFE66D"/>
      <stop offset="100%" stop-color="#FFD700"/>
    </radialGradient>
    <radialGradient id="leaf3" cx="50%" cy="50%" r="70%">
      <stop offset="0%" stop-color="#32CD32"/>
      <stop offset="50%" stop-color="#45B7D1"/>
      <stop offset="100%" stop-color="#FF1493"/>
    </radialGradient>
    <radialGradient id="leaf4" cx="50%" cy="50%" r="70%">
      <stop offset="0%" stop-color="#FFE66D"/>
      <stop offset="50%" stop-color="#FF69B4"/>
      <stop offset="100%" stop-color="#45B7D1"/>
    </radialGradient>
    <radialGradient id="leaf5" cx="50%" cy="50%" r="70%">
      <stop offset="0%" stop-color="#96E6A1"/>
      <stop offset="50%" stop-color="#9370DB"/>
      <stop offset="100%" stop-color="#FF69B4"/>
    </radialGradient>
    <radialGradient id="leaf6" cx="50%" cy="50%" r="70%">
      <stop offset="0%" stop-color="#FF6B6B"/>
      <stop offset="50%" stop-color="#9370DB"/>
      <stop offset="100%" stop-color="#45B7D1"/>
    </radialGradient>
    <radialGradient id="leaf7" cx="50%" cy="50%" r="70%">
      <stop offset="0%" stop-color="#FF1493"/>
      <stop offset="50%" stop-color="#4ECDC4"/>
      <stop offset="100%" stop-color="#96E6A1"/>
    </radialGradient>
    <radialGradient id="leaf8" cx="50%" cy="50%" r="70%">
      <stop offset="0%" stop-color="#4ECDC4"/>
      <stop offset="50%" stop-color="#FF6B6B"/>
      <stop offset="100%" stop-color="#FF1493"/>
    </radialGradient>
    <radialGradient id="leaf9" cx="50%" cy="50%" r="70%">
      <stop offset="0%" stop-color="#96E6A1"/>
      <stop offset="50%" stop-color="#FFD700"/>
      <stop offset="100%" stop-color="#FF69B4"/>
    </radialGradient>
    <radialGradient id="leaf10" cx="50%" cy="50%" r="70%">
      <stop offset="0%" stop-color="#FF69B4"/>
      <stop offset="50%" stop-color="#FFD700"/>
      <stop offset="100%" stop-color="#FF6B6B"/>
    </radialGradient>
    <radialGradient id="leaf11" cx="50%" cy="50%" r="70%">
      <stop offset="0%" stop-color="#00FA9A"/>
      <stop offset="50%" stop-color="#96E6A1"/>
      <stop offset="100%" stop-color="#7B68EE"/>
    </radialGradient>
    <radialGradient id="leaf12" cx="50%" cy="50%" r="70%">
      <stop offset="0%" stop-color="#00CED1"/>
      <stop offset="50%" stop-color="#00FA9A"/>
      <stop offset="100%" stop-color="#FFE66D"/>
    </radialGradient>
    <radialGradient id="leaf13" cx="50%" cy="50%" r="70%">
      <stop offset="0%" stop-color="#DC143C"/>
      <stop offset="50%" stop-color="#00FA9A"/>
      <stop offset="100%" stop-color="#00CED1"/>
    </radialGradient>
    <radialGradient id="leaf14" cx="50%" cy="50%" r="70%">
      <stop offset="0%" stop-color="#FFE66D"/>
      <stop offset="50%" stop-color="#7B68EE"/>
      <stop offset="100%" stop-color="#FF4500"/>
    </radialGradient>
    <radialGradient id="leaf15" cx="50%" cy="50%" r="70%">
      <stop offset="0%" stop-color="#FFD700"/>
      <stop offset="50%" stop-color="#00CED1"/>
      <stop offset="100%" stop-color="#45B7D1"/>
    </radialGradient>
    <radialGradient id="leaf16" cx="50%" cy="50%" r="70%">
      <stop offset="0%" stop-color="#00CED1"/>
      <stop offset="50%" stop-color="#FF69B4"/>
      <stop offset="100%" stop-color="#FF6B6B"/>
    </radialGradient>
    <radialGradient id="leaf17" cx="50%" cy="50%" r="70%">
      <stop offset="0%" stop-color="#00FA9A"/>
      <stop offset="50%" stop-color="#DC143C"/>
      <stop offset="100%" stop-color="#FFE66D"/>
    </radialGradient>
    <radialGradient id="leaf18" cx="50%" cy="50%" r="70%">
      <stop offset="0%" stop-color="#4ECDC4"/>
      <stop offset="50%" stop-color="#DC143C"/>
      <stop offset="100%" stop-color="#45B7D1"/>
    </radialGradient>
    <radialGradient id="leaf19" cx="50%" cy="50%" r="70%">
      <stop offset="0%" stop-color="#45B7D1"/>
      <stop offset="50%" stop-color="#00FA9A"/>
      <stop offset="100%" stop-color="#9370DB"/>
    </radialGradient>
    <radialGradient id="leaf20" cx="50%" cy="50%" r="70%">
      <stop offset="0%" stop-color="#96E6A1"/>
      <stop offset="50%" stop-color="#45B7D1"/>
      <stop offset="100%" stop-color="#9370DB"/>
    </radialGradient>
    <radialGradient id="leaf21" cx="50%" cy="50%" r="70%">
      <stop offset="0%" stop-color="#DC143C"/>
      <stop offset="50%" stop-color="#9370DB"/>
      <stop offset="100%" stop-color="#45B7D1"/>
    </radialGradient>
    <radialGradient id="leaf22" cx="50%" cy="50%" r="70%">
      <stop offset="0%" stop-color="#96E6A1"/>
      <stop offset="50%" stop-color="#7B68EE"/>
      <stop offset="100%" stop-color="#FF69B4"/>
    </radialGradient>
    <radialGradient id="leaf23" cx="50%" cy="50%" r="70%">
      <stop offset="0%" stop-color="#45B7D1"/>
      <stop offset="50%" stop-color="#FFD700"/>
      <stop offset="100%" stop-color="#FF69B4"/>
    </radialGradient>
    <radialGradient id="leaf24" cx="50%" cy="50%" r="70%">
      <stop offset="0%" stop-color="#4ECDC4"/>
      <stop offset="50%" stop-color="#DC143C"/>
      <stop offset="100%" stop-color="#45B7D1"/>
    </radialGradient>
    <radialGradient id="leaf25" cx="50%" cy="50%" r="70%">
      <stop offset="0%" stop-color="#DC143C"/>
      <stop offset="50%" stop-color="#FF1493"/>
      <stop offset="100%" stop-color="#4ECDC4"/>
    </radialGradient>
    <radialGradient id="leaf26" cx="50%" cy="50%" r="70%">
      <stop offset="0%" stop-color="#DC143C"/>
      <stop offset="50%" stop-color="#45B7D1"/>
      <stop offset="100%" stop-color="#00CED1"/>
    </radialGradient>
    <radialGradient id="leaf27" cx="50%" cy="50%" r="70%">
      <stop offset="0%" stop-color="#7B68EE"/>
      <stop offset="50%" stop-color="#32CD32"/>
      <stop offset="100%" stop-color="#00CED1"/>
    </radialGradient>
    <radialGradient id="leaf28" cx="50%" cy="50%" r="70%">
      <stop offset="0%" stop-color="#FF6B6B"/>
      <stop offset="50%" stop-color="#FF4500"/>
      <stop offset="100%" stop-color="#45B7D1"/>
    </radialGradient>
    <radialGradient id="leaf29" cx="50%" cy="50%" r="70%">
      <stop offset="0%" stop-color="#FFD700"/>
      <stop offset="50%" stop-color="#4ECDC4"/>
      <stop offset="100%" stop-color="#96E6A1"/>
    </radialGradient>
  </defs>

  <!-- Scaled content -->
  <g transform="translate(960.0,540.0) scale(3.0) translate(-960.0,-540.0)">
    <!-- Background -->
    <rect width="1920" height="1080" fill="url(#bgGrad)"/>
    
    <!-- Leaves with clip-path -->
    <g clip-path="url(#complexClip)">
    <path d="M 208.82828276727167,551.3729916992563 C 235.99472958983102,574.0116973847224 245.05021186401746,605.705885344375 208.82828276727167,641.9278144411207 C 172.6063536705259,605.705885344375 181.66183594471232,574.0116973847224 208.82828276727167,551.3729916992563 Z" fill="url(#leaf0)" opacity="0.23" transform="rotate(154.1 208.8 596.7)"/>
    <path d="M 531.6888823375837,327.51170445737444 C 554.8480868288169,346.81104153340215 562.567821659228,373.83011343984094 531.6888823375837,404.7090527614853 C 500.8099430159393,373.83011343984094 508.5296778463504,346.81104153340215 531.6888823375837,327.51170445737444 Z" fill="url(#leaf1)" opacity="0.18" transform="rotate(147.6 531.7 366.1)"/>
    <path d="M 485.95578651321586,352.29634681296073 C 512.3492320118899,374.2908847285224 521.1470471781146,405.0832378103088 485.95578651321586,440.2744984752075 C 450.76452584831713,405.0832378103088 459.5623410145418,374.2908847285224 485.95578651321586,352.29634681296073 Z" fill="url(#leaf2)" opacity="0.21" transform="rotate(164.9 486.0 396.3)"/>
    <path d="M 615.5400159250997,152.21283844342028 C 661.9747912550995,190.90848455175336 677.4530496984327,245.0823891034197 615.5400159250997,306.9954228767526 C 553.6269821517668,245.0823891034197 569.1052405951,190.90848455175336 615.5400159250997,152.21283844342028 Z" fill="url(#leaf3)" opacity="0.15" transform="rotate(42.1 615.5 229.6)"/>
    <path d="M 1364.079032974986,293.03226644888844 C 1389.3995589529309,314.1327047638427 1397.8397342789126,343.67331840477857 1364.079032974986,377.43401970870536 C 1330.3183316710592,343.67331840477857 1338.758506997041,314.1327047638427 1364.079032974986,293.03226644888844 Z" fill="url(#leaf4)" opacity="0.19" transform="rotate(282.1 1364.1 335.2)"/>
    <path d="M 153.09719749575098,118.62365939487125 C 185.9881064866904,146.03275022065412 196.95174281700358,184.40547737675013 153.09719749575098,228.26002269800273 C 109.24265217449837,184.40547737675013 120.20628850481154,146.03275022065412 153.09719749575098,118.62365939487125 Z" fill="url(#leaf5)" opacity="0.22" transform="rotate(198.0 153.1 173.4)"/>
    <path d="M 854.0091192726368,782.8462210801754 C 883.7568357721441,807.6359848297648 893.6727412719799,842.34165407919 854.0091192726368,882.0052760785331 C 814.3454972732936,842.34165407919 824.2614027731295,807.6359848297648 854.0091192726368,782.8462210801754 Z" fill="url(#leaf6)" opacity="0.21" transform="rotate(89.8 854.0 832.4)"/>
    <path d="M 1701.9430893889264,634.3328880632553 C 1745.1392937179776,670.3297250041313 1759.538028494328,720.7252967213578 1701.9430893889264,778.3202358267595 C 1644.3481502835248,720.7252967213578 1658.7468850598752,670.3297250041313 1701.9430893889264,634.3328880632553 Z" fill="url(#leaf7)" opacity="0.25" transform="rotate(29.3 1701.9 706.3)"/>
    <path d="M 849.2447789282969,86.60961738563003 C 875.0779256824194,108.13723968073208 883.6889746004601,138.27591089387494 849.2447789282969,172.72010656603823 C 814.8005832561337,138.27591089387494 823.4116321741744,108.13723968073208 849.2447789282969,86.60961738563003 Z" fill="url(#leaf8)" opacity="0.22" transform="rotate(298.5 849.2 129.7)"/>
    <path d="M 1624.3001407846932,154.8146996769739 C 1671.1830433316786,193.88378513279508 1686.8106775140072,248.58050477094477 1624.3001407846932,311.0910415002587 C 1561.7896040553792,248.58050477094477 1577.4172382377078,193.88378513279508 1624.3001407846932,154.8146996769739 Z" fill="url(#leaf9)" opacity="0.23" transform="rotate(123.0 1624.3 233.0)"/>
    <path d="M 1497.77115231886,942.6485482609984 C 1540.5179592193972,978.2708873447795 1554.7668948529097,1028.1421620620729 1497.77115231886,1085.1379045961223 C 1440.7754097848103,1028.1421620620729 1455.0243454183228,978.2708873447795 1497.77115231886,942.6485482609984 Z" fill="url(#leaf10)" opacity="0.20" transform="rotate(278.5 1497.8 1013.9)"/>
    <path d="M 465.59453789537207,611.0703512232183 C 497.8796580681294,637.9746180338494 508.6413647923818,675.6405915687329 465.59453789537207,718.6874184657427 C 422.54771099836233,675.6405915687329 433.30941772261474,637.9746180338494 465.59453789537207,611.0703512232183 Z" fill="url(#leaf11)" opacity="0.17" transform="rotate(211.1 465.6 664.9)"/>
    <path d="M 806.9275311575162,656.744388004715 C 832.3875373571798,677.961059837768 840.8742060904009,707.6644004040421 806.9275311575162,741.6110753369268 C 772.9808562246316,707.6644004040421 781.4675249578527,677.961059837768 806.9275311575162,656.744388004715 Z" fill="url(#leaf12)" opacity="0.21" transform="rotate(198.6 806.9 699.2)"/>
    <path d="M 929.5471850044232,100.77366675904989 C 974.9102583986191,138.57622792087983 990.0312828633512,191.49981354744176 929.5471850044232,251.98391140636966 C 869.0630871454953,191.49981354744176 884.1841116102273,138.57622792087983 929.5471850044232,100.77366675904989 Z" fill="url(#leaf13)" opacity="0.20" transform="rotate(329.9 929.5 176.4)"/>
    <path d="M 327.31604360784644,729.6063084044258 C 362.1029268828577,758.5953778002686 373.69855464119473,799.1800749544483 327.31604360784644,845.5625859877966 C 280.93353257449814,799.1800749544483 292.5291603328352,758.5953778002686 327.31604360784644,729.6063084044258 Z" fill="url(#leaf14)" opacity="0.18" transform="rotate(111.8 327.3 787.6)"/>
    <path d="M 1680.4329933470062,381.2571721987201 C 1715.7738927498538,410.7079217010931 1727.554192550803,451.93897100441524 1680.4329933470062,499.06017020821196 C 1633.3117941432095,451.93897100441524 1645.0920939441587,410.7079217010931 1680.4329933470062,381.2571721987201 Z" fill="url(#leaf15)" opacity="0.19" transform="rotate(147.3 1680.4 440.2)"/>
    <path d="M 1111.769929099278,374.4870094727544 C 1137.0665001977202,395.567485388123 1145.4986905638677,425.08015166963895 1111.769929099278,458.80891313422865 C 1078.0411676346882,425.08015166963895 1086.4733580008358,395.567485388123 1111.769929099278,374.4870094727544 Z" fill="url(#leaf16)" opacity="0.20" transform="rotate(28.8 1111.8 416.6)"/>
    <path d="M 263.804393480316,69.77109764819896 C 291.4832064981597,92.83677516306871 300.70947750410755,125.12872368388635 263.804393480316,162.03380770767797 C 226.89930945652438,125.12872368388635 236.12558046247227,92.83677516306871 263.804393480316,69.77109764819896 Z" fill="url(#leaf17)" opacity="0.18" transform="rotate(189.5 263.8 115.9)"/>
    <path d="M 1542.5135423386666,83.38267136414618 C 1560.6840821537628,98.52478787672639 1566.740928758795,119.7237509943387 1542.5135423386666,143.95113741446704 C 1518.2861559185383,119.7237509943387 1524.3430025235705,98.52478787672639 1542.5135423386666,83.38267136414618 Z" fill="url(#leaf18)" opacity="0.19" transform="rotate(174.4 1542.5 113.7)"/>
    <path d="M 425.4730341487362,436.6562313800913 C 454.9261101292092,461.2004613638188 464.74380212270023,495.56238334103733 425.4730341487362,534.8331513150014 C 386.20226617477215,495.56238334103733 396.0199581682632,461.2004613638188 425.4730341487362,436.6562313800913 Z" fill="url(#leaf19)" opacity="0.16" transform="rotate(261.2 425.5 485.7)"/>
    <path d="M 477.15601340109345,192.041342177599 C 521.3301323705346,228.85310798546664 536.0548386936816,280.38958011648134 477.15601340109345,339.2884054090695 C 418.25718810850526,280.38958011648134 432.9818944316523,228.85310798546664 477.15601340109345,192.041342177599 Z" fill="url(#leaf20)" opacity="0.18" transform="rotate(14.2 477.2 265.7)"/>
    <path d="M 702.8130354777385,880.3800992986947 C 723.7272375013896,897.8086009850707 730.6986381759399,922.208503345997 702.8130354777385,950.0941060441984 C 674.9274327795371,922.208503345997 681.8988334540874,897.8086009850707 702.8130354777385,880.3800992986947 Z" fill="url(#leaf21)" opacity="0.23" transform="rotate(236.6 702.8 915.2)"/>
    <path d="M 706.7855125564597,5.066775993910376 C 735.3705160860072,28.887612268533275 744.8988505958564,62.23678305300533 706.7855125564597,100.35012109240196 C 668.672174517063,62.23678305300533 678.2005090269122,28.887612268533275 706.7855125564597,5.066775993910376 Z" fill="url(#leaf22)" opacity="0.23" transform="rotate(195.8 706.8 52.7)"/>
    <path d="M 1372.672516672564,695.832619735146 C 1392.442859022813,712.3079050270203 1399.032973139563,735.3733044356444 1372.672516672564,761.7337609026433 C 1346.3120602055649,735.3733044356444 1352.9021743223147,712.3079050270203 1372.672516672564,695.832619735146 Z" fill="url(#leaf23)" opacity="0.23" transform="rotate(318.7 1372.7 728.8)"/>
    <path d="M 815.8703892327319,712.7929243365887 C 855.4474804261674,745.7738336644518 868.6398441573127,791.9471067234599 815.8703892327319,844.7165616480407 C 763.1009343081511,791.9471067234599 776.2932980392964,745.7738336644518 815.8703892327319,712.7929243365887 Z" fill="url(#leaf24)" opacity="0.25" transform="rotate(319.7 815.9 778.8)"/>
    <path d="M 1850.8315225739348,846.0804405885435 C 1879.567670345762,870.0272303983996 1889.1463862697044,903.5527361321981 1850.8315225739348,941.8675998279678 C 1812.5166588781651,903.5527361321981 1822.0953748021075,870.0272303983996 1850.8315225739348,846.0804405885435 Z" fill="url(#leaf25)" opacity="0.24" transform="rotate(316.8 1850.8 894.0)"/>
    <path d="M 1822.7773665035668,353.2603135363122 C 1859.5446275522731,383.8996977435675 1871.8003812351753,426.794835633725 1822.7773665035668,475.81785036533347 C 1773.7543517719582,426.794835633725 1786.0101054548604,383.8996977435675 1822.7773665035668,353.2603135363122 Z" fill="url(#leaf26)" opacity="0.22" transform="rotate(9.5 1822.8 414.5)"/>
    <path d="M 592.9492005993759,633.7804849220867 C 618.5713803602794,655.1323013895063 627.1121069472472,685.0248444438937 592.9492005993759,719.1877507917651 C 558.7862942515046,685.0248444438937 567.3270208384724,655.1323013895063 592.9492005993759,633.7804849220867 Z" fill="url(#leaf27)" opacity="0.21" transform="rotate(324.4 592.9 676.5)"/>
    <path d="M 984.3637677924653,728.8459008805763 C 1006.0790975912307,746.9420090462141 1013.3175408574859,772.2765604781072 984.3637677924653,801.2303335431278 C 955.4099947274447,772.2765604781072 962.6484379936999,746.9420090462141 984.3637677924653,728.8459008805763 Z" fill="url(#leaf28)" opacity="0.18" transform="rotate(228.8 984.4 765.0)"/>
    <path d="M 1432.4428080239454,858.4532905490018 C 1479.5690448183855,897.7251545443685 1495.277790416532,952.7057641378817 1432.4428080239454,1015.5407465304684 C 1369.6078256313588,952.7057641378817 1385.3165712295054,897.7251545443685 1432.4428080239454,858.4532905490018 Z" fill="url(#leaf29)" opacity="0.20" transform="rotate(228.7 1432.4 937.0)"/>
    <path d="M 823.4169672190038,379.7143096491453 C 859.000298747868,409.36708592319883 870.8614092574894,450.88097270687376 823.4169672190038,498.32541474535935 C 775.9725251805182,450.88097270687376 787.8336356901397,409.36708592319883 823.4169672190038,379.7143096491453 Z" fill="url(#leaf0)" opacity="0.20" transform="rotate(30.8 823.4 439.0)"/>
    <path d="M 1167.6074394738116,919.5604054270684 C 1202.4644888104858,948.6079465409636 1214.0835052560437,989.2745041004167 1167.6074394738116,1035.750569882649 C 1121.1313736915795,989.2745041004167 1132.7503901371374,948.6079465409636 1167.6074394738116,919.5604054270684 Z" fill="url(#leaf1)" opacity="0.22" transform="rotate(282.9 1167.6 977.7)"/>
    <path d="M 1120.6874524708867,393.88141997125604 C 1151.4096164617745,419.48322329699596 1161.6503377920706,455.32574795303185 1120.6874524708867,496.2886332742157 C 1079.7245671497028,455.32574795303185 1089.965288479999,419.48322329699596 1120.6874524708867,393.88141997125604 Z" fill="url(#leaf2)" opacity="0.15" transform="rotate(312.1 1120.7 445.1)"/>
    <path d="M 50.49003904230354,990.5356575501237 C 68.75552648449487,1005.7568970852832 74.84402229855864,1027.0666324345063 50.49003904230354,1051.4206156907615 C 26.13605578604844,1027.0666324345063 32.22455160011222,1005.7568970852832 50.49003904230354,990.5356575501237 Z" fill="url(#leaf3)" opacity="0.19" transform="rotate(163.8 50.5 1021.0)"/>
    <path d="M 1646.2984620819752,953.9451847645425 C 1675.531069748913,978.3056911536576 1685.2752723045592,1012.4104000984184 1646.2984620819752,1051.3872103210024 C 1607.3216518593913,1012.4104000984184 1617.0658544150374,978.3056911536576 1646.2984620819752,953.9451847645425 Z" fill="url(#leaf4)" opacity="0.24" transform="rotate(259.0 1646.3 1002.7)"/>
    <path d="M 892.6524763911372,319.7429022601984 C 924.894868943928,346.6115627208574 935.6423331281916,384.22768736578007 892.6524763911372,427.21754410283455 C 849.6626196540827,384.22768736578007 860.4100838383463,346.6115627208574 892.6524763911372,319.7429022601984 Z" fill="url(#leaf5)" opacity="0.20" transform="rotate(27.9 892.7 373.5)"/>
    <path d="M 320.665025594938,336.4501756024411 C 339.46608637303336,352.1177262508539 345.73310663239846,374.05229715863175 320.665025594938,399.1203781960922 C 295.59694455747757,374.05229715863175 301.86396481684267,352.1177262508539 320.665025594938,336.4501756024411 Z" fill="url(#leaf6)" opacity="0.23" transform="rotate(278.3 320.7 367.8)"/>
    <path d="M 1313.0850711980645,144.86917912799547 C 1337.026601705718,164.82045455103997 1345.0071118749356,192.75224014330232 1313.0850711980645,224.67428082017355 C 1281.1630305211934,192.75224014330232 1289.143540690411,164.82045455103997 1313.0850711980645,144.86917912799547 Z" fill="url(#leaf7)" opacity="0.23" transform="rotate(11.0 1313.1 184.8)"/>
    <path d="M 363.9422831726171,286.3205954791802 C 409.6017592865756,324.370158907479 424.82158465789513,377.63954770709717 363.9422831726171,438.51884919237517 C 303.0629816873391,377.63954770709717 318.28280705865865,324.370158907479 363.9422831726171,286.3205954791802 Z" fill="url(#leaf8)" opacity="0.22" transform="rotate(359.7 363.9 362.4)"/>
    <path d="M 1638.1397752713547,576.9354083500514 C 1681.6600323802884,613.2022892741629 1696.166784749933,663.9759225679189 1638.1397752713547,722.0029320464973 C 1580.1127657927764,663.9759225679189 1594.619518162421,613.2022892741629 1638.1397752713547,576.9354083500514 Z" fill="url(#leaf9)" opacity="0.20" transform="rotate(54.1 1638.1 649.5)"/>
    <path d="M 1627.9611345263024,809.1390249588748 C 1660.3716349710855,836.1477753295273 1671.1751351193466,873.9600258484409 1627.9611345263024,917.1740264414849 C 1584.7471339332583,873.9600258484409 1595.5506340815193,836.1477753295273 1627.9611345263024,809.1390249588748 Z" fill="url(#leaf10)" opacity="0.25" transform="rotate(237.0 1628.0 863.2)"/>
    <path d="M 760.3122950685805,163.1123525667956 C 790.7908091432456,188.51111429568323 800.9503138348007,224.06938071612586 760.3122950685805,264.70739948234603 C 719.6742763023603,224.06938071612586 729.8337809939154,188.51111429568323 760.3122950685805,163.1123525667956 Z" fill="url(#leaf11)" opacity="0.23" transform="rotate(173.1 760.3 213.9)"/>
    <path d="M 1657.5565753125118,184.70846624135726 C 1695.5848483790805,216.39869379683122 1708.2609394012702,260.7650123744948 1657.5565753125118,311.4693764632532 C 1606.8522112237533,260.7650123744948 1619.528302245943,216.39869379683122 1657.5565753125118,184.70846624135726 Z" fill="url(#leaf12)" opacity="0.16" transform="rotate(248.8 1657.6 248.1)"/>
    <path d="M 1497.3524320303757,80.23394725839154 C 1541.7327861312176,117.21757567575989 1556.526237498165,168.9946554600756 1497.3524320303757,228.16846092786494 C 1438.1786265625863,168.9946554600756 1452.9720779295337,117.21757567575989 1497.3524320303757,80.23394725839154 Z" fill="url(#leaf13)" opacity="0.20" transform="rotate(168.3 1497.4 154.2)"/>
    <path d="M 1607.4269526168284,558.1178682057736 C 1632.3115003446455,578.8549913122877 1640.606349587251,607.8869636614075 1607.4269526168284,641.0663606318302 C 1574.2475556464058,607.8869636614075 1582.5424048890113,578.8549913122877 1607.4269526168284,558.1178682057736 Z" fill="url(#leaf14)" opacity="0.24" transform="rotate(100.5 1607.4 599.6)"/>
    <path d="M 1357.0389113918518,483.54724511200527 C 1379.7474195432974,502.4710019048765 1387.3169222604458,528.9642614148962 1357.0389113918518,559.2422722834903 C 1326.7609005232578,528.9642614148962 1334.3304032404062,502.4710019048765 1357.0389113918518,483.54724511200527 Z" fill="url(#leaf15)" opacity="0.15" transform="rotate(42.7 1357.0 521.4)"/>
    <path d="M 853.8289671257436,311.73256857529367 C 890.6654461768394,342.4296344512068 902.9442725272047,385.4055266774853 853.8289671257436,434.5208320789464 C 804.7136617242825,385.4055266774853 816.9924880746478,342.4296344512068 853.8289671257436,311.73256857529367 Z" fill="url(#leaf16)" opacity="0.20" transform="rotate(356.1 853.8 373.1)"/>
    <path d="M 1050.6273608629924,150.536369463953 C 1092.7811154886986,185.66449831870818 1106.8323670306008,234.84387871536546 1050.6273608629924,291.04888488297377 C 994.4223546953841,234.84387871536546 1008.4736062372862,185.66449831870818 1050.6273608629924,150.536369463953 Z" fill="url(#leaf17)" opacity="0.19" transform="rotate(275.0 1050.6 220.8)"/>
    <path d="M 1485.257447953883,240.02940283638165 C 1521.528755197402,270.2554922059808 1533.6191909452416,312.5720173234195 1485.257447953883,360.93376031477806 C 1436.8957049625244,312.5720173234195 1448.986140710364,270.2554922059808 1485.257447953883,240.02940283638165 Z" fill="url(#leaf18)" opacity="0.16" transform="rotate(209.2 1485.3 300.5)"/>
    <path d="M 476.72175315726406,961.7357259305018 C 505.17944051034135,985.4504653913995 514.6653362947004,1018.6511006366562 476.72175315726406,1056.5946837740926 C 438.7781700198277,1018.6511006366562 448.26406580418677,985.4504653913995 476.72175315726406,961.7357259305018 Z" fill="url(#leaf19)" opacity="0.25" transform="rotate(251.6 476.7 1009.2)"/>
    <path d="M 956.0109985586101,81.05380224679736 C 987.6655263748063,107.43257542696082 998.2170356468716,144.36285787918965 956.0109985586101,186.56889496745117 C 913.8049614703486,144.36285787918965 924.356470742414,107.43257542696082 956.0109985586101,81.05380224679736 Z" fill="url(#leaf20)" opacity="0.20" transform="rotate(99.3 956.0 133.8)"/>
    <path d="M 1227.5720075772922,815.8696930109346 C 1251.8706403746096,836.1185536753658 1259.970184640382,864.4669586055694 1227.5720075772922,896.8651356686593 C 1195.1738305142023,864.4669586055694 1203.2733747799748,836.1185536753658 1227.5720075772922,815.8696930109346 Z" fill="url(#leaf21)" opacity="0.15" transform="rotate(25.0 1227.6 856.4)"/>
    <path d="M 1305.814543618407,843.1243969537528 C 1351.8591978143575,881.4949421170448 1367.2074158796743,935.2137053456537 1305.814543618407,996.606577606921 C 1244.4216713571398,935.2137053456537 1259.7698894224566,881.4949421170448 1305.814543618407,843.1243969537528 Z" fill="url(#leaf22)" opacity="0.22" transform="rotate(184.0 1305.8 919.9)"/>
    <path d="M 1821.749575827713,491.8268506475741 C 1843.7474705119487,510.1584295511039 1851.0801020733606,535.8226400160455 1821.749575827713,565.1531662616932 C 1792.4190495820653,535.8226400160455 1799.7516811434773,510.1584295511039 1821.749575827713,491.8268506475741 Z" fill="url(#leaf23)" opacity="0.22" transform="rotate(40.7 1821.7 528.5)"/>
    <path d="M 208.83262632637394,955.3994660157393 C 234.6783028924489,976.9375298208017 243.29352841447388,1007.0908191478892 208.83262632637394,1041.5517212359891 C 174.371724238274,1007.0908191478892 182.98694976029898,976.9375298208017 208.83262632637394,955.3994660157393 Z" fill="url(#leaf24)" opacity="0.16" transform="rotate(357.8 208.8 998.5)"/>
    <path d="M 545.4268158667179,235.17597365690645 C 573.5452174065663,258.6079749401134 582.918017919849,291.41277673660323 545.4268158667179,328.9039787897344 C 507.9356138135867,291.41277673660323 517.3084143268695,258.6079749401134 545.4268158667179,235.17597365690645 Z" fill="url(#leaf25)" opacity="0.17" transform="rotate(291.6 545.4 282.0)"/>
    <path d="M 415.6505336447876,779.7687638374691 C 441.46070714509926,801.2772417543955 450.0640983118698,831.3891108380924 415.6505336447876,865.8026755051746 C 381.2369689777053,831.3891108380924 389.8403601444759,801.2772417543955 415.6505336447876,779.7687638374691 Z" fill="url(#leaf26)" opacity="0.23" transform="rotate(204.4 415.7 822.8)"/>
    <path d="M 281.3519226454853,880.6867599823606 C 325.2395658815643,917.2597960124266 339.8687802935907,968.4620464545188 281.3519226454853,1026.9789041026243 C 222.83506499737985,968.4620464545188 237.4642794094062,917.2597960124266 281.3519226454853,880.6867599823606 Z" fill="url(#leaf27)" opacity="0.20" transform="rotate(337.1 281.4 953.8)"/>
    <path d="M 1706.9495499852778,950.0810854577911 C 1736.2397842336395,974.4896139980926 1746.00319564976,1008.6615539545146 1706.9495499852778,1047.7151996189968 C 1667.8959043207956,1008.6615539545146 1677.6593157369161,974.4896139980926 1706.9495499852778,950.0810854577911 Z" fill="url(#leaf28)" opacity="0.18" transform="rotate(280.5 1706.9 998.9)"/>
    <path d="M 875.1596791431125,622.1886425045082 C 897.8051612029619,641.0598775543828 905.3536552229118,667.479606624207 875.1596791431125,697.6735827040063 C 844.9657030633132,667.479606624207 852.5141970832631,641.0598775543828 875.1596791431125,622.1886425045082 Z" fill="url(#leaf29)" opacity="0.20" transform="rotate(233.7 875.2 659.9)"/>
    <path d="M 227.85596944027364,415.5663751465004 C 271.4145538875297,451.8651955192138 285.93408203661505,502.6835440410125 227.85596944027364,560.7616566373539 C 169.77785684393223,502.6835440410125 184.2973849930176,451.8651955192138 227.85596944027364,415.5663751465004 Z" fill="url(#leaf0)" opacity="0.21" transform="rotate(143.2 227.9 488.2)"/>
    <path d="M 129.69806087996142,297.08283957822425 C 161.43338318039795,323.5289414952547 172.01182394721013,360.55348417909727 129.69806087996142,402.867247246346 C 87.3842978127127,360.55348417909727 97.96273857952488,323.5289414952547 129.69806087996142,297.08283957822425 Z" fill="url(#leaf1)" opacity="0.17" transform="rotate(320.0 129.7 350.0)"/>
    <path d="M 629.0051983853505,476.4887523809257 C 653.437244206101,496.84879056488444 661.5812594796845,525.3528440224267 629.0051983853505,557.9289051167607 C 596.4291372910164,525.3528440224267 604.5731525645999,496.84879056488444 629.0051983853505,476.4887523809257 Z" fill="url(#leaf2)" opacity="0.17" transform="rotate(168.3 629.0 517.2)"/>
    <path d="M 492.82884124039566,516.5838631231093 C 516.2088414294044,536.0671966139499 524.0021748257407,563.3438635011269 492.82884124039566,594.5171970864719 C 461.65550765505066,563.3438635011269 469.44884105138686,536.0671966139499 492.82884124039566,516.5838631231093 Z" fill="url(#leaf3)" opacity="0.21" transform="rotate(355.5 492.8 555.6)"/>
    <path d="M 1684.7451019302353,776.1263469517443 C 1723.6316972344355,808.5318430385778 1736.593895669169,853.8995375601446 1684.7451019302353,905.7483312990781 C 1632.8963081913016,853.8995375601446 1645.858506626035,808.5318430385778 1684.7451019302353,776.1263469517443 Z" fill="url(#leaf4)" opacity="0.24" transform="rotate(90.3 1684.7 840.9)"/>
    <path d="M 430.4875920754747,672.3612627930819 C 462.36794952778274,698.9282273366719 472.9947353452187,736.121977697698 430.4875920754747,778.629120967442 C 387.9804488057307,736.121977697698 398.6072346231667,698.9282273366719 430.4875920754747,672.3612627930819 Z" fill="url(#leaf5)" opacity="0.17" transform="rotate(0.6 430.5 725.5)"/>
    <path d="M 1257.9932728826957,946.5944452953095 C 1296.9620958678877,979.0684644496362 1309.9517035296183,1024.5320912656935 1257.9932728826957,1076.490521912616 C 1206.034842235773,1024.5320912656935 1219.0244498975037,979.0684644496362 1257.9932728826957,946.5944452953095 Z" fill="url(#leaf6)" opacity="0.21" transform="rotate(159.8 1258.0 1011.5)"/>
    <path d="M 691.1923791830329,965.3644583113363 C 729.2704663960128,997.0961976554861 741.9631621336727,1041.520632737296 691.1923791830329,1092.2914156879358 C 640.4215962323932,1041.520632737296 653.114291970053,997.0961976554861 691.1923791830329,965.3644583113363 Z" fill="url(#leaf7)" opacity="0.23" transform="rotate(81.3 691.2 1028.8)"/>
    <path d="M 113.40077770901756,176.00857954331144 C 149.35664421298404,205.9718016299502 161.34193304763954,247.92031255124442 113.40077770901756,295.8614678898664 C 65.45962237039559,247.92031255124442 77.44491120505108,205.9718016299502 113.40077770901756,176.00857954331144 Z" fill="url(#leaf8)" opacity="0.21" transform="rotate(275.7 113.4 235.9)"/>
    <path d="M 1694.0527261950283,73.21016679584551 C 1739.5578181208994,111.13107673407147 1754.7261820961899,164.22035064758782 1694.0527261950283,224.89380654874935 C 1633.3792702938667,164.22035064758782 1648.5476342691572,111.13107673407147 1694.0527261950283,73.21016679584551 Z" fill="url(#leaf9)" opacity="0.16" transform="rotate(256.9 1694.1 149.1)"/>
    <path d="M 802.1237271030931,131.2697004702884 C 843.4918237433805,165.74311433719453 857.281189290143,214.00589375086315 802.1237271030931,269.16335593791297 C 746.9662649160432,214.00589375086315 760.7556304628057,165.74311433719453 802.1237271030931,131.2697004702884 Z" fill="url(#leaf10)" opacity="0.20" transform="rotate(181.6 802.1 200.2)"/>
    <path d="M 105.0179804785567,830.3892765121954 C 130.81040852935917,851.8829665545308 139.4078845462933,881.9741326138003 105.0179804785567,916.364036681537 C 70.62807641082007,881.9741326138003 79.22555242775422,851.8829665545308 105.0179804785567,830.3892765121954 Z" fill="url(#leaf11)" opacity="0.21" transform="rotate(146.3 105.0 873.4)"/>
    <path d="M 503.5340040890632,235.2634602880295 C 546.0199159069866,270.6683868029657 560.1818865129611,320.2352839238764 503.5340040890632,376.88316634777436 C 446.88612166516526,320.2352839238764 461.04809227113975,270.6683868029657 503.5340040890632,235.2634602880295 Z" fill="url(#leaf12)" opacity="0.20" transform="rotate(173.3 503.5 306.1)"/>
    <path d="M 1254.5002410933992,362.5379910926561 C 1297.1470297630062,398.07698165066205 1311.3626259862087,447.8315684318704 1254.5002410933992,504.69395332467985 C 1197.6378562005896,447.8315684318704 1211.853452423792,398.07698165066205 1254.5002410933992,362.5379910926561 Z" fill="url(#leaf13)" opacity="0.20" transform="rotate(264.3 1254.5 433.6)"/>
    <path d="M 1218.8394586312236,910.0950050524353 C 1239.1830075337584,927.0479624712144 1245.96419050127,950.782102857505 1218.8394586312236,977.9068347275514 C 1191.7147267611772,950.782102857505 1198.4959097286887,927.0479624712144 1218.8394586312236,910.0950050524353 Z" fill="url(#leaf14)" opacity="0.18" transform="rotate(247.7 1218.8 944.0)"/>
    <path d="M 619.1591871725011,868.9824370081943 C 664.8595847300377,907.0661016394748 680.0930505825498,960.3832321232675 619.1591871725011,1021.3170955333163 C 558.2253237624524,960.3832321232675 573.4587896149645,907.0661016394748 619.1591871725011,868.9824370081943 Z" fill="url(#leaf15)" opacity="0.19" transform="rotate(53.8 619.2 945.1)"/>
    <path d="M 298.2856220752493,953.3486447897192 C 335.3913165273596,984.2700568331445 347.7598813447297,1027.5600336939399 298.2856220752493,1077.0342929634203 C 248.81136280576888,1027.5600336939399 261.179927623139,984.2700568331445 298.2856220752493,953.3486447897192 Z" fill="url(#leaf16)" opacity="0.23" transform="rotate(286.0 298.3 1015.2)"/>
    <path d="M 1074.1543820542129,779.9658533711155 C 1114.749584982644,813.795189144808 1128.2813192921208,861.1562592279774 1074.1543820542129,915.2831964658855 C 1020.0274448163049,861.1562592279774 1033.5591791257818,813.795189144808 1074.1543820542129,779.9658533711155 Z" fill="url(#leaf17)" opacity="0.24" transform="rotate(327.3 1074.2 847.6)"/>
    <path d="M 953.1423754029847,478.98505043911285 C 988.6456560603384,508.57111765357433 1000.480082946123,549.9916117538203 953.1423754029847,597.3293192969586 C 905.8046678598464,549.9916117538203 917.639094745631,508.57111765357433 953.1423754029847,478.98505043911285 Z" fill="url(#leaf18)" opacity="0.17" transform="rotate(116.4 953.1 538.2)"/>
    <path d="M 276.81777347694697,821.6064969294342 C 311.3498385790717,850.3832178478715 322.86052694644656,890.6706271336836 276.81777347694697,936.7133806031833 C 230.77502000744738,890.6706271336836 242.2857083748223,850.3832178478715 276.81777347694697,821.6064969294342 Z" fill="url(#leaf19)" opacity="0.20" transform="rotate(73.2 276.8 879.2)"/>
    <path d="M 488.3382290350377,674.2684908363976 C 509.56684309423696,691.9590025523969 516.6430477806367,716.725718954796 488.3382290350377,745.0305377003949 C 460.0334102894388,716.725718954796 467.1096149758385,691.9590025523969 488.3382290350377,674.2684908363976 Z" fill="url(#leaf20)" opacity="0.18" transform="rotate(278.1 488.3 709.6)"/>
    <path d="M 1317.0143981252447,511.3984732844218 C 1352.8009109142554,541.2205672752641 1364.7297485105923,582.9714988624434 1317.0143981252447,630.686849247791 C 1269.299047739897,582.9714988624434 1281.227885336234,541.2205672752641 1317.0143981252447,511.3984732844218 Z" fill="url(#leaf21)" opacity="0.15" transform="rotate(134.3 1317.0 571.0)"/>
    <path d="M 1288.4840428964967,38.15546745063891 C 1328.162282598571,71.22066720236745 1341.3883624992623,117.51194685478741 1288.4840428964967,170.4162664575531 C 1235.5797232937311,117.51194685478741 1248.8058031944224,71.22066720236745 1288.4840428964967,38.15546745063891 Z" fill="url(#leaf22)" opacity="0.23" transform="rotate(189.7 1288.5 104.3)"/>
    <path d="M 1667.8648106445444,520.6491023669635 C 1686.6845978378894,536.3322583614178 1692.9578602356712,558.2886767536536 1667.8648106445444,583.3817263447804 C 1642.7717610534175,558.2886767536536 1649.0450234511993,536.3322583614178 1667.8648106445444,520.6491023669635 Z" fill="url(#leaf23)" opacity="0.22" transform="rotate(148.3 1667.9 552.0)"/>
    <path d="M 342.91878263848804,209.94680141324824 C 365.61079747992187,228.8568137811098 373.1748024270665,255.33083109611593 342.91878263848804,285.5868508846944 C 312.6627628499096,255.33083109611593 320.2267677970542,228.8568137811098 342.91878263848804,209.94680141324824 Z" fill="url(#leaf24)" opacity="0.21" transform="rotate(232.8 342.9 247.8)"/>
    <path d="M 1308.3811839876657,825.9757307396994 C 1340.2578754435567,852.5396402862752 1350.883439262187,889.7291136514813 1308.3811839876657,932.2313689260025 C 1265.8789287131444,889.7291136514813 1276.5044925317748,852.5396402862752 1308.3811839876657,825.9757307396994 Z" fill="url(#leaf25)" opacity="0.20" transform="rotate(295.6 1308.4 879.1)"/>
    <path d="M 1188.7378556100557,157.5859740035321 C 1234.697239662754,195.8854607141141 1250.017034346987,249.50474210892887 1188.7378556100557,310.78392084586005 C 1127.4586768731244,249.50474210892887 1142.7784715573573,195.8854607141141 1188.7378556100557,157.5859740035321 Z" fill="url(#leaf26)" opacity="0.23" transform="rotate(100.9 1188.7 234.2)"/>
    <path d="M 1495.097298485579,365.09057430728944 C 1542.1241174008585,404.27959007002244 1557.7997237059517,459.1442121378487 1495.097298485579,521.8466373582215 C 1432.3948732652061,459.1442121378487 1448.0704795702993,404.27959007002244 1495.097298485579,365.09057430728944 Z" fill="url(#leaf27)" opacity="0.24" transform="rotate(161.6 1495.1 443.5)"/>
    <path d="M 1405.3481203209517,872.8766580827872 C 1441.068958512758,902.6440232426257 1452.9759045766934,944.3183344663997 1405.3481203209517,991.9461187221415 C 1357.72033606521,944.3183344663997 1369.6272821291454,902.6440232426257 1405.3481203209517,872.8766580827872 Z" fill="url(#leaf28)" opacity="0.17" transform="rotate(147.0 1405.3 932.4)"/>
    <path d="M 1755.4793519599202,773.6205650248114 C 1791.6083525125848,803.7280654853653 1803.6513526968065,845.8785661301407 1755.4793519599202,894.0505668670269 C 1707.307351223034,845.8785661301407 1719.3503514072556,803.7280654853653 1755.4793519599202,773.6205650248114 Z" fill="url(#leaf29)" opacity="0.22" transform="rotate(1.0 1755.5 833.8)"/>
    <path d="M 85.95895121443729,727.1095175002258 C 128.5965980366139,762.6408898520397 142.80914697733942,812.3848111445791 85.95895121443729,869.2350069074812 C 29.10875545153516,812.3848111445791 43.3213043922607,762.6408898520397 85.95895121443729,727.1095175002258 Z" fill="url(#leaf0)" opacity="0.15" transform="rotate(264.1 86.0 798.2)"/>
    <path d="M 1517.7608449186757,390.4577015103852 C 1540.8813424565212,409.7247827919231 1548.5881749691364,436.69869658607615 1517.7608449186757,467.52602663653676 C 1486.933514868215,436.69869658607615 1494.6403473808302,409.7247827919231 1517.7608449186757,390.4577015103852 Z" fill="url(#leaf1)" opacity="0.20" transform="rotate(252.3 1517.8 429.0)"/>
    <path d="M 1441.1217593882673,350.7515640245744 C 1480.262298279951,383.36867976764415 1493.3091445771788,429.03264180794184 1441.1217593882673,481.2200269968535 C 1388.9343741993557,429.03264180794184 1401.9812204965835,383.36867976764415 1441.1217593882673,350.7515640245744 Z" fill="url(#leaf2)" opacity="0.19" transform="rotate(1.5 1441.1 416.0)"/>
    <path d="M 645.4177704849208,885.8301259835926 C 689.610782047967,922.6576356194644 704.3417859023157,974.2161491096849 645.4177704849208,1033.1401645270798 C 586.4937550675259,974.2161491096849 601.2247589218746,922.6576356194644 645.4177704849208,885.8301259835926 Z" fill="url(#leaf3)" opacity="0.25" transform="rotate(127.1 645.4 959.5)"/>
    <path d="M 450.9520816465746,709.8536327920013 C 497.5447891498178,748.680889044704 513.0756916508989,803.0390477984878 450.9520816465746,865.1626578028121 C 388.8284716422503,803.0390477984878 404.35937414333137,748.680889044704 450.9520816465746,709.8536327920013 Z" fill="url(#leaf4)" opacity="0.17" transform="rotate(155.5 451.0 787.5)"/>
    <path d="M 1851.2535274875318,573.5330032789964 C 1898.4955419242306,612.9013486429119 1914.2428800697967,668.0170321523938 1851.2535274875318,731.0063847346587 C 1788.2641749052668,668.0170321523938 1804.011513050833,612.9013486429119 1851.2535274875318,573.5330032789964 Z" fill="url(#leaf5)" opacity="0.18" transform="rotate(282.9 1851.3 652.3)"/>
    <path d="M 122.73846014541866,684.9493512877535 C 146.7855182680335,704.9885663899325 154.8012043089051,733.0434675329832 122.73846014541866,765.1062116964696 C 90.6757159819322,733.0434675329832 98.69140202280381,704.9885663899325 122.73846014541866,684.9493512877535 Z" fill="url(#leaf6)" opacity="0.21" transform="rotate(50.3 122.7 725.0)"/>
    <path d="M 590.8022948627328,15.311304540696568 C 628.2063039486385,46.48131211228472 640.6743069772738,90.11932271250814 590.8022948627328,139.99133482704917 C 540.9302827481918,90.11932271250814 553.398285776827,46.48131211228472 590.8022948627328,15.311304540696568 Z" fill="url(#leaf7)" opacity="0.20" transform="rotate(191.4 590.8 77.7)"/>
    <path d="M 431.6505173223316,816.7630907181056 C 453.7561586540643,835.1844584945495 461.1247057646418,860.9743733815709 431.6505173223316,890.4485618238812 C 402.1763288800214,860.9743733815709 409.54487599059894,835.1844584945495 431.6505173223316,816.7630907181056 Z" fill="url(#leaf8)" opacity="0.20" transform="rotate(240.6 431.7 853.6)"/>
    <path d="M 919.8115758417034,385.6892656674202 C 948.5366600845744,409.6268358698126 958.1116881655313,443.1394341531621 919.8115758417034,481.43954647698996 C 881.5114635178755,443.1394341531621 891.0864915988325,409.6268358698126 919.8115758417034,385.6892656674202 Z" fill="url(#leaf9)" opacity="0.18" transform="rotate(204.4 919.8 433.6)"/>
    <path d="M 1697.5740411792278,711.9083706040021 C 1734.8728591124932,742.9907188817232 1747.3057984235816,786.5060064705328 1697.5740411792278,836.2377637148866 C 1647.842283934874,786.5060064705328 1660.2752232459625,742.9907188817232 1697.5740411792278,711.9083706040021 Z" fill="url(#leaf10)" opacity="0.20" transform="rotate(243.3 1697.6 774.1)"/>
    <path d="M 169.51682155205654,582.9424428780451 C 214.75223818577834,620.6386234061465 229.83071039701895,673.4132761454887 169.51682155205654,733.727164990451 C 109.20293270709413,673.4132761454887 124.28140491833474,620.6386234061465 169.51682155205654,582.9424428780451 Z" fill="url(#leaf11)" opacity="0.15" transform="rotate(16.6 169.5 658.3)"/>
    <path d="M 1285.963242754552,266.8178675627237 C 1319.0754069794966,294.4113377501774 1330.112795054478,333.0421960126126 1285.963242754552,377.1917483125385 C 1241.813690454626,333.0421960126126 1252.8510785296075,294.4113377501774 1285.963242754552,266.8178675627237 Z" fill="url(#leaf12)" opacity="0.17" transform="rotate(178.0 1286.0 322.0)"/>
    <path d="M 1432.6743099535079,633.2987806972997 C 1465.477441732372,660.634723846353 1476.4118189919932,698.9050442550277 1432.6743099535079,742.6425532935132 C 1388.9368009150226,698.9050442550277 1399.8711781746438,660.634723846353 1432.6743099535079,633.2987806972997 Z" fill="url(#leaf13)" opacity="0.22" transform="rotate(161.1 1432.7 688.0)"/>
    <path d="M 888.9103818849298,795.9699464964299 C 928.2051298216657,828.7155697770431 941.303379133911,874.5594423699015 888.9103818849298,926.9524396188826 C 836.5173846359487,874.5594423699015 849.615633948194,828.7155697770431 888.9103818849298,795.9699464964299 Z" fill="url(#leaf14)" opacity="0.15" transform="rotate(115.7 888.9 861.5)"/>
    <path d="M 511.06049501825885,545.4509749803774 C 550.4463542327136,578.2725243257563 563.5749739708651,624.2226934092868 511.06049501825885,676.737172361893 C 458.54601606565257,624.2226934092868 471.67463580380416,578.2725243257563 511.06049501825885,545.4509749803774 Z" fill="url(#leaf15)" opacity="0.17" transform="rotate(325.1 511.1 611.1)"/>
    <path d="M 1213.2741745169642,554.8418054115851 C 1245.3590262376683,581.5791818455053 1256.0539768112365,619.0115088529934 1213.2741745169642,661.7913111472657 C 1170.494372222692,619.0115088529934 1181.18932279626,581.5791818455053 1213.2741745169642,554.8418054115851 Z" fill="url(#leaf16)" opacity="0.22" transform="rotate(260.8 1213.3 608.3)"/>
    <path d="M 532.2257995043933,363.2615205577787 C 576.0471729187368,399.77933173639826 590.6542973901846,450.9042673864657 532.2257995043933,509.332765272257 C 473.797301618602,450.9042673864657 488.4044260900498,399.77933173639826 532.2257995043933,363.2615205577787 Z" fill="url(#leaf17)" opacity="0.24" transform="rotate(6.2 532.2 436.3)"/>
    <path d="M 559.6992664254086,313.7024173749951 C 595.9932572283683,343.94740971079483 608.0912541626883,386.2903989809145 559.6992664254086,434.68238671819415 C 511.307278688129,386.2903989809145 523.4052756224489,343.94740971079483 559.6992664254086,313.7024173749951 Z" fill="url(#leaf18)" opacity="0.15" transform="rotate(137.0 559.7 374.2)"/>
    <path d="M 441.0719472956447,558.0156549915076 C 484.7803853553919,594.4393533746303 499.34986470864095,645.432531111002 441.0719472956447,703.7104485239983 C 382.79402988264843,645.432531111002 397.3635092358975,594.4393533746303 441.0719472956447,558.0156549915076 Z" fill="url(#leaf19)" opacity="0.19" transform="rotate(235.2 441.1 630.9)"/>
    <path d="M 273.3028693475687,522.1874219854016 C 310.4886627548801,553.1755831581611 322.8839272239839,596.5590088000245 273.3028693475687,646.1400666764397 C 223.72181147115344,596.5590088000245 236.11707594025725,553.1755831581611 273.3028693475687,522.1874219854016 Z" fill="url(#leaf20)" opacity="0.15" transform="rotate(67.8 273.3 584.2)"/>
    <path d="M 383.5338101368648,551.5307747502986 C 405.8713840562989,570.1454196831603 413.3172420294436,596.2059225891668 383.5338101368648,625.9893544817455 C 353.750378244286,596.2059225891668 361.19623621743074,570.1454196831603 383.5338101368648,551.5307747502986 Z" fill="url(#leaf21)" opacity="0.16" transform="rotate(162.9 383.5 588.8)"/>
    <path d="M 909.8053742708424,33.59514198269194 C 934.8029093027177,54.42642117592129 943.1354209800094,83.59021204644237 909.8053742708424,116.92025875560934 C 876.4753275616755,83.59021204644237 884.8078392389672,54.42642117592129 909.8053742708424,33.59514198269194 Z" fill="url(#leaf22)" opacity="0.22" transform="rotate(149.7 909.8 75.3)"/>
    <path d="M 1304.7028785595749,304.5479532979796 C 1344.9299821102477,338.0705395902069 1358.3390166271388,385.00216039932525 1304.7028785595749,438.63829846688907 C 1251.066740492011,385.00216039932525 1264.475775008902,338.0705395902069 1304.7028785595749,304.5479532979796 Z" fill="url(#leaf23)" opacity="0.24" transform="rotate(269.7 1304.7 371.6)"/>
    <path d="M 603.7174724647822,219.94945961120368 C 635.6627678188049,246.5705390728893 646.3111996034792,283.84005031924914 603.7174724647822,326.4337774579461 C 561.1237453260852,283.84005031924914 571.7721771107595,246.5705390728893 603.7174724647822,219.94945961120368 Z" fill="url(#leaf24)" opacity="0.17" transform="rotate(164.1 603.7 273.2)"/>
    <path d="M 1817.0943926431692,34.730674529211655 C 1850.7869419896188,62.80779898458628 1862.0177917717685,102.11577322211075 1817.0943926431692,147.03917235071015 C 1772.1709935145698,102.11577322211075 1783.4018432967196,62.80779898458628 1817.0943926431692,34.730674529211655 Z" fill="url(#leaf25)" opacity="0.24" transform="rotate(122.5 1817.1 90.9)"/>
    <path d="M 560.7972026946146,92.99004137683727 C 579.8036493466552,108.8287469202044 586.139131564002,131.00293468091837 560.7972026946146,156.34486355030577 C 535.4552738252272,131.00293468091837 541.790756042574,108.8287469202044 560.7972026946146,92.99004137683727 Z" fill="url(#leaf26)" opacity="0.21" transform="rotate(221.1 560.8 124.7)"/>
    <path d="M 1433.483106561266,373.2214855815042 C 1471.589688325638,404.9769703851477 1484.2918822470954,449.43464911024853 1433.483106561266,500.2434247960781 C 1382.6743308754365,449.43464911024853 1395.3765247968938,404.9769703851477 1433.483106561266,373.2214855815042 Z" fill="url(#leaf27)" opacity="0.19" transform="rotate(297.2 1433.5 436.7)"/>
    <path d="M 1148.2946223807749,411.8153628040115 C 1175.3166727070006,434.3337380758662 1184.3240228157424,465.8594634564629 1148.2946223807749,501.8888638914305 C 1112.2652219458073,465.8594634564629 1121.272572054549,434.3337380758662 1148.2946223807749,411.8153628040115 Z" fill="url(#leaf28)" opacity="0.21" transform="rotate(244.5 1148.3 456.9)"/>
    <path d="M 449.60606282179174,481.0673373712043 C 469.57950081504515,497.71186903224884 476.23731347946296,521.0142133577112 449.60606282179174,547.6454640153825 C 422.9748121641205,521.0142133577112 429.6326248285383,497.71186903224884 449.60606282179174,481.0673373712043 Z" fill="url(#leaf29)" opacity="0.19" transform="rotate(346.4 449.6 514.4)"/>
    <path d="M 245.22146944997965,593.1230358161114 C 263.6871784202464,608.511126624667 269.84241474366866,630.0544537566449 245.22146944997965,654.6753990503338 C 220.60052415629065,630.0544537566449 226.7557604797129,608.511126624667 245.22146944997965,593.1230358161114 Z" fill="url(#leaf0)" opacity="0.16" transform="rotate(184.8 245.2 623.9)"/>
    <path d="M 1348.1167436011197,686.5155462817609 C 1366.1695600104915,701.5595599562375 1372.1871654802824,722.6211791005048 1348.1167436011197,746.6916009796676 C 1324.046321721957,722.6211791005048 1330.0639271917478,701.5595599562375 1348.1167436011197,686.5155462817609 Z" fill="url(#leaf1)" opacity="0.18" transform="rotate(209.0 1348.1 716.6)"/>
    <path d="M 1770.1224172453653,-20.14984311588416 C 1818.0699148214685,19.806404864201788 1834.0524140135028,75.74515203632211 1770.1224172453653,139.67514880445964 C 1706.1924204772279,75.74515203632211 1722.1749196692622,19.806404864201788 1770.1224172453653,-20.14984311588416 Z" fill="url(#leaf2)" opacity="0.22" transform="rotate(93.1 1770.1 59.8)"/>
    <path d="M 1472.7831201272882,954.2640280677288 C 1504.1108753554988,980.3704907579045 1514.5534604315692,1016.9195385241503 1472.7831201272882,1058.6898788284313 C 1431.0127798230071,1016.9195385241503 1441.4553648990775,980.3704907579045 1472.7831201272882,954.2640280677288 Z" fill="url(#leaf3)" opacity="0.21" transform="rotate(121.1 1472.8 1006.5)"/>
    <path d="M 1048.6143985203662,386.99242493940716 C 1073.4265321530447,407.66920296663926 1081.6972433639376,436.6166922047642 1048.6143985203662,469.69953704833557 C 1015.5315536767948,436.6166922047642 1023.8022648876877,407.66920296663926 1048.6143985203662,386.99242493940716 Z" fill="url(#leaf4)" opacity="0.21" transform="rotate(350.5 1048.6 428.3)"/>
    <path d="M 1312.8553458272797,857.7872952691721 C 1359.1547280973473,896.3701138275617 1374.587855520703,950.3860598093071 1312.8553458272797,1012.1185695027305 C 1251.1228361338565,950.3860598093071 1266.5559635572122,896.3701138275617 1312.8553458272797,857.7872952691721 Z" fill="url(#leaf5)" opacity="0.23" transform="rotate(314.8 1312.9 935.0)"/>
    <path d="M 1218.1762643945274,433.66733582344654 C 1264.2787193661609,472.0860482998079 1279.6462043567055,525.8722457667137 1218.1762643945274,587.3421857288918 C 1156.7063244323492,525.8722457667137 1172.0738094228939,472.0860482998079 1218.1762643945274,433.66733582344654 Z" fill="url(#leaf6)" opacity="0.16" transform="rotate(90.3 1218.2 510.5)"/>
    <path d="M 1595.9749904055132,11.196661865211617 C 1620.9263543152933,31.989465123361807 1629.2434756185535,61.09938968477208 1595.9749904055132,94.36787489781238 C 1562.7065051924728,61.09938968477208 1571.023626495733,31.989465123361807 1595.9749904055132,11.196661865211617 Z" fill="url(#leaf7)" opacity="0.25" transform="rotate(56.7 1596.0 52.8)"/>
    <path d="M 973.8148984282706,334.57911928016784 C 1003.1768809926227,359.0474380837946 1012.9642085140734,393.3030844088721 973.8148984282706,432.45239449467493 C 934.6655883424677,393.3030844088721 944.4529158639184,359.0474380837946 973.8148984282706,334.57911928016784 Z" fill="url(#leaf8)" opacity="0.18" transform="rotate(339.0 973.8 383.5)"/>
    <path d="M 1800.4083993676081,300.80084307270056 C 1827.230947210587,323.15296627518285 1836.17179649158,354.44593875865814 1800.4083993676081,390.20933588262983 C 1764.6450022436363,354.44593875865814 1773.5858515246293,323.15296627518285 1800.4083993676081,300.80084307270056 Z" fill="url(#leaf9)" opacity="0.24" transform="rotate(278.3 1800.4 345.5)"/>
    <path d="M 818.0937022129142,524.9675212172375 C 851.3533236430796,552.6838724090421 862.4398641198014,591.4867640775684 818.0937022129142,635.8329259844558 C 773.747540306027,591.4867640775684 784.8340807827487,552.6838724090421 818.0937022129142,524.9675212172375 Z" fill="url(#leaf10)" opacity="0.17" transform="rotate(263.9 818.1 580.4)"/>
    <path d="M 600.8735427809406,934.9142631912586 C 645.5097643780383,972.1111145221732 660.3885049104042,1024.186706385454 600.8735427809406,1083.7016685149176 C 541.358580651477,1024.186706385454 556.2373211838429,972.1111145221732 600.8735427809406,934.9142631912586 Z" fill="url(#leaf11)" opacity="0.17" transform="rotate(111.2 600.9 1009.3)"/>
    <path d="M 1584.2443777359704,737.4718154874499 C 1628.9965143663137,774.7652626794027 1643.9138932430947,826.9760887481365 1584.2443777359704,886.6456042552609 C 1524.574862228846,826.9760887481365 1539.492241105627,774.7652626794027 1584.2443777359704,737.4718154874499 Z" fill="url(#leaf12)" opacity="0.21" transform="rotate(245.8 1584.2 812.1)"/>
    <path d="M 164.9168113644897,831.08315590565 C 196.33512006862847,857.2650798257656 206.80788963667473,893.9197733139275 164.9168113644897,935.8108515861126 C 123.02573309230465,893.9197733139275 133.4985026603509,857.2650798257656 164.9168113644897,831.08315590565 Z" fill="url(#leaf13)" opacity="0.23" transform="rotate(246.7 164.9 883.4)"/>
    <path d="M 650.6687410465153,299.4328807338306 C 669.9595166606282,315.50852707892477 676.3897751986659,338.01443196205656 650.6687410465153,363.7354661142072 C 624.9477068943646,338.01443196205656 631.3779654324023,315.50852707892477 650.6687410465153,299.4328807338306 Z" fill="url(#leaf14)" opacity="0.16" transform="rotate(341.7 650.7 331.6)"/>
    <path d="M 1553.3152547873817,625.2255678722526 C 1584.579026753141,651.2787111770521 1595.000284075061,687.7531118037714 1553.3152547873817,729.4381410914506 C 1511.6302254997024,687.7531118037714 1522.0514828216224,651.2787111770521 1553.3152547873817,625.2255678722526 Z" fill="url(#leaf15)" opacity="0.22" transform="rotate(348.9 1553.3 677.3)"/>
    <path d="M 461.47080884153917,573.8549510608799 C 497.65111281201393,604.0052043696088 509.71121413550554,646.2155590018294 461.47080884153917,694.4559642957958 C 413.2304035475728,646.2155590018294 425.2905048710644,604.0052043696088 461.47080884153917,573.8549510608799 Z" fill="url(#leaf16)" opacity="0.20" transform="rotate(53.7 461.5 634.2)"/>
    <path d="M 708.6662889165401,365.4432788413208 C 748.1426776008566,398.34026941158453 761.301473828962,444.3960562099537 708.6662889165401,497.03124112237566 C 656.0311040041182,444.3960562099537 669.1899002322236,398.34026941158453 708.6662889165401,365.4432788413208 Z" fill="url(#leaf17)" opacity="0.15" transform="rotate(89.3 708.7 431.2)"/>
    <path d="M 1614.0865957818964,720.6359937724295 C 1660.8647492976108,759.6177883688581 1676.4574671361822,814.1923008038581 1614.0865957818964,876.5631721581439 C 1551.7157244276107,814.1923008038581 1567.308442266182,759.6177883688581 1614.0865957818964,720.6359937724295 Z" fill="url(#leaf18)" opacity="0.15" transform="rotate(2.6 1614.1 798.6)"/>
    <path d="M 1262.1698862768865,476.52879308073256 C 1291.2019867666422,500.72221015552907 1300.8793535965608,534.5929940602441 1262.1698862768865,573.3024613799184 C 1223.4604189572121,534.5929940602441 1233.1377857871307,500.72221015552907 1262.1698862768865,476.52879308073256 Z" fill="url(#leaf19)" opacity="0.21" transform="rotate(255.0 1262.2 524.9)"/>
    <path d="M 400.25770843067835,332.434286610311 C 442.875340605984,367.94898008973234 457.08121799775256,417.66955096092227 400.25770843067835,474.4930605279965 C 343.43419886360414,417.66955096092227 357.6400762553727,367.94898008973234 400.25770843067835,332.434286610311 Z" fill="url(#leaf20)" opacity="0.24" transform="rotate(242.9 400.3 403.5)"/>
    <path d="M 299.9330590153511,126.32503287027271 C 322.0872866378885,144.7868892223872 329.4720291787343,170.63348811534752 299.9330590153511,200.17245827873074 C 270.39408885196787,170.63348811534752 277.7788313928137,144.7868892223872 299.9330590153511,126.32503287027271 Z" fill="url(#leaf21)" opacity="0.22" transform="rotate(233.9 299.9 163.2)"/>
    <path d="M 1570.9205667933002,902.6725775669147 C 1610.4739316783246,935.6337149711017 1623.6583866399992,981.7793073369634 1570.9205667933002,1034.5171271836625 C 1518.1827469466011,981.7793073369634 1531.3672019082758,935.6337149711017 1570.9205667933002,902.6725775669147 Z" fill="url(#leaf22)" opacity="0.19" transform="rotate(354.4 1570.9 968.6)"/>
    <path d="M 1176.8648487703056,489.1450161203926 C 1216.783627998615,522.410665477317 1230.0898877413847,568.9825745770112 1176.8648487703056,622.2076135480903 C 1123.6398097992264,568.9825745770112 1136.9460695419962,522.410665477317 1176.8648487703056,489.1450161203926 Z" fill="url(#leaf23)" opacity="0.20" transform="rotate(84.0 1176.9 555.7)"/>
    <path d="M 429.4224223198498,742.445312796995 C 460.2397887114254,768.1264514566413 470.51224417528385,804.0800455801461 429.4224223198498,845.1698674355803 C 388.3326004644157,804.0800455801461 398.60505592827417,768.1264514566413 429.4224223198498,742.445312796995 Z" fill="url(#leaf24)" opacity="0.24" transform="rotate(107.4 429.4 793.8)"/>
    <path d="M 393.7872490267993,755.4586815496591 C 437.99366799970494,792.2973640270806 452.7291409906735,843.8715194954705 393.7872490267993,902.8134114593447 C 334.84535706292513,843.8715194954705 349.5808300538937,792.2973640270806 393.7872490267993,755.4586815496591 Z" fill="url(#leaf25)" opacity="0.22" transform="rotate(326.0 393.8 829.1)"/>
    <path d="M 1700.4512528198497,895.7104189640006 C 1733.1535483183916,922.9623318794522 1744.0543134845723,961.1150099610843 1700.4512528198497,1004.7180706258068 C 1656.8481921551272,961.1150099610843 1667.748957321308,922.9623318794522 1700.4512528198497,895.7104189640006 Z" fill="url(#leaf26)" opacity="0.21" transform="rotate(46.4 1700.5 950.2)"/>
    <path d="M 1081.6777510150114,261.38192954229976 C 1125.9576297621963,298.2818284982872 1140.7175893445913,349.9416870366696 1081.6777510150114,408.98152536624946 C 1022.6379126854315,349.9416870366696 1037.3978722678264,298.2818284982872 1081.6777510150114,261.38192954229976 Z" fill="url(#leaf27)" opacity="0.24" transform="rotate(265.7 1081.7 335.2)"/>
    <path d="M 1094.3112201886754,902.2924795166989 C 1134.741248443767,935.9841697292754 1148.2179245287978,983.1525360268824 1094.3112201886754,1037.0592403670048 C 1040.404515848553,983.1525360268824 1053.8811919335838,935.9841697292754 1094.3112201886754,902.2924795166989 Z" fill="url(#leaf28)" opacity="0.15" transform="rotate(244.3 1094.3 969.7)"/>
    <path d="M 1580.761628981802,13.413178920871381 C 1610.6938354486604,38.35668430992001 1620.67123760428,73.2775918545881 1580.761628981802,113.18720047706591 C 1540.8520203593241,73.2775918545881 1550.8294225149436,38.35668430992001 1580.761628981802,13.413178920871381 Z" fill="url(#leaf29)" opacity="0.17" transform="rotate(180.6 1580.8 63.3)"/>
    <path d="M 1767.8844928991966,221.18135554276114 C 1789.694977450224,239.35675933528407 1796.9651389672333,264.80232464481617 1767.8844928991966,293.88297071285285 C 1738.80384683116,264.80232464481617 1746.0740083481692,239.35675933528407 1767.8844928991966,221.18135554276114 Z" fill="url(#leaf0)" opacity="0.18" transform="rotate(292.5 1767.9 257.5)"/>
    <path d="M 162.09840506747582,227.5035235572324 C 188.52072790859535,249.52212592483198 197.3281688556352,280.3481692394714 162.09840506747582,315.5779330276308 C 126.86864127931645,280.3481692394714 135.6760822263563,249.52212592483198 162.09840506747582,227.5035235572324 Z" fill="url(#leaf1)" opacity="0.20" transform="rotate(255.0 162.1 271.5)"/>
    <path d="M 475.4237310840709,534.4069549635218 C 505.40703010068444,559.3930374773664 515.4014631062223,594.3735529967489 475.4237310840709,634.3512850189003 C 435.44599906191945,594.3735529967489 445.4404320674573,559.3930374773664 475.4237310840709,534.4069549635218 Z" fill="url(#leaf2)" opacity="0.15" transform="rotate(196.7 475.4 584.4)"/>
    <path d="M 932.297940020034,64.3846944727869 C 975.8812058350024,100.70408265192728 990.4089611066586,151.55122610272377 932.297940020034,209.66224718934836 C 874.1869189334095,151.55122610272377 888.7146742050656,100.70408265192728 932.297940020034,64.3846944727869 Z" fill="url(#leaf3)" opacity="0.22" transform="rotate(175.0 932.3 137.0)"/>
    <path d="M 1530.089316985314,860.8871937061839 C 1571.8815373367122,895.7140439990158 1585.812277453845,944.4716344089802 1530.089316985314,1000.1945948775111 C 1474.3663565167833,944.4716344089802 1488.297096633916,895.7140439990158 1530.089316985314,860.8871937061839 Z" fill="url(#leaf4)" opacity="0.21" transform="rotate(306.9 1530.1 930.5)"/>
    <path d="M 522.2429898179862,739.4052831270949 C 549.0012744026402,761.7038536143066 557.9207025975248,792.9218522964029 522.2429898179862,828.5995650759417 C 486.56527703844756,792.9218522964029 495.4847052333322,761.7038536143066 522.2429898179862,739.4052831270949 Z" fill="url(#leaf5)" opacity="0.25" transform="rotate(277.4 522.2 784.0)"/>
    <path d="M 648.7041804136181,676.7393358249612 C 693.0306608451177,713.6780695178775 707.8061543222842,765.3922966879603 648.7041804136181,824.4942705966264 C 589.602206504952,765.3922966879603 604.3776999821185,713.6780695178775 648.7041804136181,676.7393358249612 Z" fill="url(#leaf6)" opacity="0.16" transform="rotate(77.0 648.7 750.6)"/>
    <path d="M 1147.8803266870225,843.8790132938188 C 1166.6298544459014,859.5036197595513 1172.8796970321944,881.3780688115766 1147.8803266870225,906.3774391567483 C 1122.8809563418506,881.3780688115766 1129.1307989281436,859.5036197595513 1147.8803266870225,843.8790132938188 Z" fill="url(#leaf7)" opacity="0.19" transform="rotate(232.5 1147.9 875.1)"/>
    <path d="M 1533.9226609381399,312.46882151287275 C 1568.6890364934245,341.4408011422766 1580.277828345186,382.0015726234419 1533.9226609381399,428.356740030488 C 1487.5674935310938,382.0015726234419 1499.1562853828552,341.4408011422766 1533.9226609381399,312.46882151287275 Z" fill="url(#leaf8)" opacity="0.16" transform="rotate(184.0 1533.9 370.4)"/>
    <path d="M 873.84783642417,489.1231512634213 C 914.4626062613373,522.968792794394 928.0008628737264,570.3526909377558 873.84783642417,624.5057173873122 C 819.6948099746137,570.3526909377558 833.2330665870028,522.968792794394 873.84783642417,489.1231512634213 Z" fill="url(#leaf9)" opacity="0.19" transform="rotate(100.4 873.8 556.8)"/>
    <path d="M 472.85837421457677,925.3132235174735 C 496.01984674166397,944.6144506233795 503.7403375840264,971.636168571648 472.85837421457677,1002.5181319410976 C 441.97641084512713,971.636168571648 449.69690168748957,944.6144506233795 472.85837421457677,925.3132235174735 Z" fill="url(#leaf10)" opacity="0.19" transform="rotate(98.7 472.9 963.9)"/>
    <path d="M 747.3626036600548,903.3320250510972 C 773.9769320452795,925.5106320387844 782.8483748403544,956.5606818215465 747.3626036600548,992.046453001846 C 711.8768324797552,956.5606818215465 720.7482752748301,925.5106320387844 747.3626036600548,903.3320250510972 Z" fill="url(#leaf11)" opacity="0.17" transform="rotate(78.8 747.4 947.7)"/>
    <path d="M 305.7605459805674,771.1402157823234 C 337.4070485354667,797.5123012447395 347.9558827204332,834.4332208921221 305.7605459805674,876.6285576319879 C 263.56520924070156,834.4332208921221 274.11404342566806,797.5123012447395 305.7605459805674,771.1402157823234 Z" fill="url(#leaf12)" opacity="0.21" transform="rotate(35.7 305.8 823.9)"/>
    <path d="M 1211.6748656532222,17.01190098495519 C 1241.7422909333368,42.06808871838403 1251.7647660267085,77.14675154518442 1211.6748656532222,117.23665191867056 C 1171.584965279736,77.14675154518442 1181.6074403731077,42.06808871838403 1211.6748656532222,17.01190098495519 Z" fill="url(#leaf13)" opacity="0.20" transform="rotate(35.4 1211.7 67.1)"/>
    <path d="M 1701.096532839282,808.9449912464306 C 1745.1772734415504,845.678941748321 1759.8708536423067,897.1064724509675 1701.096532839282,955.8807932539921 C 1642.3222120362573,897.1064724509675 1657.0157922370136,845.678941748321 1701.096532839282,808.9449912464306 Z" fill="url(#leaf14)" opacity="0.22" transform="rotate(165.5 1701.1 882.4)"/>
    <path d="M 1367.493564894321,5.638731452830214 C 1413.5660387210896,44.032459641804024 1428.923529996679,97.78367910636736 1367.493564894321,159.21364420872544 C 1306.063599791963,97.78367910636736 1321.4210910675524,44.032459641804024 1367.493564894321,5.638731452830214 Z" fill="url(#leaf15)" opacity="0.21" transform="rotate(344.2 1367.5 82.4)"/>
    <path d="M 326.00351860901696,3.808247843858254 C 367.65215073143446,38.51544127920617 381.53502810557364,87.10551208869326 326.00351860901696,142.63702158524993 C 270.4720091124603,87.10551208869326 284.35488648659947,38.51544127920617 326.00351860901696,3.808247843858254 Z" fill="url(#leaf16)" opacity="0.24" transform="rotate(252.1 326.0 73.2)"/>
    <path d="M 850.8792185973805,169.2240391163414 C 869.2801183305139,184.55812222728588 875.4137515748916,206.02583858260815 850.8792185973805,230.5603715601193 C 826.3446856198693,206.02583858260815 832.4783188642471,184.55812222728588 850.8792185973805,169.2240391163414 Z" fill="url(#leaf17)" opacity="0.23" transform="rotate(314.1 850.9 199.9)"/>
    <path d="M 1460.7633737120423,50.21341276839533 C 1507.8913775595802,89.48674930801023 1523.600712175426,144.4694204634711 1460.7633737120423,207.30675892685494 C 1397.9260352486585,144.4694204634711 1413.6353698645044,89.48674930801023 1460.7633737120423,50.21341276839533 Z" fill="url(#leaf18)" opacity="0.25" transform="rotate(319.9 1460.8 128.8)"/>
    <path d="M 1510.3658956585737,119.26861289620848 C 1546.300683697727,149.21426959550297 1558.2789463774448,191.13818897451523 1510.3658956585737,239.05123969338638 C 1462.4528449397026,191.13818897451523 1474.4311076194203,149.21426959550297 1510.3658956585737,119.26861289620848 Z" fill="url(#leaf19)" opacity="0.24" transform="rotate(191.0 1510.4 179.2)"/>
    <path d="M 1531.336607789436,808.281421700136 C 1562.2964799201877,834.0813151424293 1572.6164372971052,870.2011659616398 1531.336607789436,911.4809954693092 C 1490.0567782817666,870.2011659616398 1500.376735658684,834.0813151424293 1531.336607789436,808.281421700136 Z" fill="url(#leaf20)" opacity="0.23" transform="rotate(277.0 1531.3 859.9)"/>
    <path d="M 1467.285372636958,577.2355548030571 C 1488.909680537557,595.2558113868896 1496.1177831710902,620.4841706042552 1467.285372636958,649.3165811383872 C 1438.452962102826,620.4841706042552 1445.661064736359,595.2558113868896 1467.285372636958,577.2355548030571 Z" fill="url(#leaf21)" opacity="0.15" transform="rotate(225.3 1467.3 613.3)"/>
    <path d="M 1267.5433536434307,151.05155756074427 C 1292.5803608874699,171.91573026411015 1300.926029968816,201.1255720488224 1267.5433536434307,234.5082483742078 C 1234.1606773180454,201.1255720488224 1242.5063463993915,171.91573026411015 1267.5433536434307,151.05155756074427 Z" fill="url(#leaf22)" opacity="0.24" transform="rotate(281.3 1267.5 192.8)"/>
    <path d="M 1139.0368224467943,512.6670042991585 C 1167.4234003857275,536.3224859149362 1176.8855930320385,569.440160177025 1139.0368224467943,607.2889307622692 C 1101.18805186155,569.440160177025 1110.650244507861,536.3224859149362 1139.0368224467943,512.6670042991585 Z" fill="url(#leaf23)" opacity="0.17" transform="rotate(190.2 1139.0 560.0)"/>
    <path d="M 220.47607593342985,303.6550344650382 C 262.3904372582631,338.58366890239927 276.36189103320754,387.4837571147047 220.47607593342985,443.3695722144824 C 164.5902608336522,387.4837571147047 178.56171460859662,338.58366890239927 220.47607593342985,303.6550344650382 Z" fill="url(#leaf24)" opacity="0.20" transform="rotate(134.6 220.5 373.5)"/>
    <path d="M 452.858697696637,612.5240871878101 C 484.9828268698477,639.2941948321524 495.69086992758463,676.7723455342315 452.858697696637,719.6045177651791 C 410.0265254656894,676.7723455342315 420.73456852342633,639.2941948321524 452.858697696637,612.5240871878101 Z" fill="url(#leaf25)" opacity="0.19" transform="rotate(67.1 452.9 666.1)"/>
    <path d="M 601.7822416937198,436.72072886535636 C 635.459067699617,464.78475053693734 646.6846763682493,504.07438087715065 601.7822416937198,548.9768155516801 C 556.8798070191904,504.07438087715065 568.1054156878226,464.78475053693734 601.7822416937198,436.72072886535636 Z" fill="url(#leaf26)" opacity="0.25" transform="rotate(71.7 601.8 492.8)"/>
    <path d="M 1277.275360723062,612.0294682509553 C 1298.7922097675005,629.9601757879875 1305.9644927823135,655.0631663398325 1277.275360723062,683.752298399084 C 1248.5862286638105,655.0631663398325 1255.7585116786236,629.9601757879875 1277.275360723062,612.0294682509553 Z" fill="url(#leaf27)" opacity="0.20" transform="rotate(341.7 1277.3 647.9)"/>
    <path d="M 1111.4821304001969,206.12519933188213 C 1153.112727713835,240.817363759914 1166.9895934850479,289.3863939591586 1111.4821304001969,344.8938570440096 C 1055.9746673153459,289.3863939591586 1069.8515330865587,240.817363759914 1111.4821304001969,206.12519933188213 Z" fill="url(#leaf28)" opacity="0.15" transform="rotate(266.5 1111.5 275.5)"/>
    <path d="M 890.9459932503623,524.1482528213508 C 914.4015344603971,543.6945371630464 922.2200481970754,571.0593352414203 890.9459932503623,602.3333901881333 C 859.6719383036493,571.0593352414203 867.4904520403276,543.6945371630464 890.9459932503623,524.1482528213508 Z" fill="url(#leaf29)" opacity="0.17" transform="rotate(187.1 890.9 563.2)"/>
    <path d="M 497.05309591608614,776.5154382787829 C 515.5281792166378,791.9113410292426 521.6865403168216,813.4656048798862 497.05309591608614,838.0990492806217 C 472.41965151535067,813.4656048798862 478.57801261553453,791.9113410292426 497.05309591608614,776.5154382787829 Z" fill="url(#leaf0)" opacity="0.24" transform="rotate(172.0 497.1 807.3)"/>
    <path d="M 1214.5973849561378,50.01800998644498 C 1262.355579294699,89.81650526857928 1278.2749774075528,145.5343986635673 1214.5973849561378,209.21199111498217 C 1150.9197925047229,145.5343986635673 1166.8391906175766,89.81650526857928 1214.5973849561378,50.01800998644498 Z" fill="url(#leaf1)" opacity="0.21" transform="rotate(160.5 1214.6 129.6)"/>
    <path d="M 639.6844167397232,422.2403828197704 C 658.9208401775785,438.27073568464976 665.3329813235301,460.71322969548083 639.6844167397232,486.3617942792878 C 614.0358521559164,460.71322969548083 620.447993301868,438.27073568464976 639.6844167397232,422.2403828197704 Z" fill="url(#leaf2)" opacity="0.25" transform="rotate(24.4 639.7 454.3)"/>
    <path d="M 1297.4581844424258,183.13573595575028 C 1326.7221774668174,207.52239680940988 1336.4768418082813,241.6637220045333 1297.4581844424258,280.6823793703886 C 1258.4395270765704,241.6637220045333 1268.1941914180343,207.52239680940988 1297.4581844424258,183.13573595575028 Z" fill="url(#leaf3)" opacity="0.23" transform="rotate(270.6 1297.5 231.9)"/>
    <path d="M 93.84972261501434,593.6589235651345 C 120.7438289842941,616.0706788728676 129.70853110738736,647.447136303694 93.84972261501434,683.305944796067 C 57.990914122641335,647.447136303694 66.95561624573459,616.0706788728676 93.84972261501434,593.6589235651345 Z" fill="url(#leaf4)" opacity="0.21" transform="rotate(72.2 93.8 638.5)"/>
    <path d="M 1462.86036208063,377.8054277043431 C 1503.6095482787123,411.7630828694116 1517.1926103447397,459.3038001005076 1462.86036208063,513.6360483646173 C 1408.5281138165203,459.3038001005076 1422.1111758825477,411.7630828694116 1462.86036208063,377.8054277043431 Z" fill="url(#leaf5)" opacity="0.18" transform="rotate(31.3 1462.9 445.7)"/>
    <path d="M 576.169579032116,887.528305342444 C 621.1347899449089,924.9993144364381 636.1231935825065,977.4587271680299 576.169579032116,1037.4123417184203 C 516.2159644817255,977.4587271680299 531.204368119323,924.9993144364381 576.169579032116,887.528305342444 Z" fill="url(#leaf6)" opacity="0.19" transform="rotate(254.6 576.2 962.5)"/>
    <path d="M 1594.3594712686718,196.82970511428445 C 1642.261325945069,236.7479173446156 1658.2286108372016,292.63341446707915 1594.3594712686718,356.5025540356089 C 1530.490331700142,292.63341446707915 1546.4576165922745,236.7479173446156 1594.3594712686718,196.82970511428445 Z" fill="url(#leaf7)" opacity="0.20" transform="rotate(106.4 1594.4 276.7)"/>
    <path d="M 127.98698234364888,716.9587459835586 C 158.72381526056438,742.5727734143215 168.96942623286955,778.4324118173896 127.98698234364888,819.4148557066103 C 87.0045384544282,778.4324118173896 97.25014942673337,742.5727734143215 127.98698234364888,716.9587459835586 Z" fill="url(#leaf8)" opacity="0.16" transform="rotate(338.7 128.0 768.2)"/>
    <path d="M 126.28198032490522,889.9227382745353 C 158.1412803550692,916.4721549663385 168.76104703179053,953.6413383348631 126.28198032490522,996.1204050417484 C 83.80291361801991,953.6413383348631 94.42268029474126,916.4721549663385 126.28198032490522,889.9227382745353 Z" fill="url(#leaf9)" opacity="0.20" transform="rotate(311.4 126.3 943.0)"/>
    <path d="M 832.3167660878619,916.6672160338557 C 861.8358486845037,941.2664515310572 871.6755428833844,975.7053812271394 832.3167660878619,1015.0641580226619 C 792.9579892923393,975.7053812271394 802.79768349122,941.2664515310572 832.3167660878619,916.6672160338557 Z" fill="url(#leaf10)" opacity="0.18" transform="rotate(74.2 832.3 965.9)"/>
    <path d="M 457.7109655327434,386.1864389443846 C 494.0997368042774,416.51041500399623 506.2293272281221,458.9639814874526 457.7109655327434,507.4823431828313 C 409.1926038373647,458.9639814874526 421.32219426120935,416.51041500399623 457.7109655327434,386.1864389443846 Z" fill="url(#leaf11)" opacity="0.16" transform="rotate(4.4 457.7 446.8)"/>
    <path d="M 1547.6330836619422,700.4384106414522 C 1577.9879620646807,725.7341426437342 1588.1062548655934,761.1481674469292 1547.6330836619422,801.6213386505805 C 1507.159912458291,761.1481674469292 1517.2782052592038,725.7341426437342 1547.6330836619422,700.4384106414522 Z" fill="url(#leaf12)" opacity="0.16" transform="rotate(217.2 1547.6 751.0)"/>
    <path d="M 65.87153433842246,846.924207922975 C 95.80158414328594,871.8659160936945 105.77826741157375,906.784307532702 65.87153433842246,946.6910406058532 C 25.964801265271177,906.784307532702 35.941484533559,871.8659160936945 65.87153433842246,846.924207922975 Z" fill="url(#leaf13)" opacity="0.16" transform="rotate(219.3 65.9 896.8)"/>
    <path d="M 1215.1376181494495,457.81279598472713 C 1243.863989413972,481.7514387051625 1253.4394465021462,515.2655385137721 1215.1376181494495,553.5673668664688 C 1176.8357897967528,515.2655385137721 1186.411246884927,481.7514387051625 1215.1376181494495,457.81279598472713 Z" fill="url(#leaf14)" opacity="0.25" transform="rotate(64.6 1215.1 505.7)"/>
    <path d="M 1352.9490685731728,83.75571956882088 C 1381.1837789054075,107.28464484568312 1390.5953490161523,140.22514023329023 1352.9490685731728,177.8714206762698 C 1315.3027881301932,140.22514023329023 1324.714358240938,107.28464484568312 1352.9490685731728,83.75571956882088 Z" fill="url(#leaf15)" opacity="0.23" transform="rotate(185.7 1352.9 130.8)"/>
    <path d="M 858.2382650148063,828.8075834182006 C 890.1638914242494,855.4122720927364 900.8057668940637,892.6588362370868 858.2382650148063,935.2263381163442 C 815.6707631355489,892.6588362370868 826.3126386053632,855.4122720927364 858.2382650148063,828.8075834182006 Z" fill="url(#leaf16)" opacity="0.20" transform="rotate(166.0 858.2 882.0)"/>
    <path d="M 315.52068756686174,186.26208093288648 C 360.13324054252445,223.43920841260538 375.004091534412,275.48718688421184 315.52068756686174,334.9705908517621 C 256.0372835993115,275.48718688421184 270.90813459119903,223.43920841260538 315.52068756686174,186.26208093288648 Z" fill="url(#leaf17)" opacity="0.23" transform="rotate(64.6 315.5 260.6)"/>
    <path d="M 749.6623680677114,671.5430834060703 C 792.2421069614389,707.0261991508431 806.4353532593481,756.7025611935252 749.6623680677114,813.4755463851618 C 692.8893828760748,756.7025611935252 707.082629173984,707.0261991508431 749.6623680677114,671.5430834060703 Z" fill="url(#leaf18)" opacity="0.25" transform="rotate(253.2 749.7 742.5)"/>
    <path d="M 713.802237855934,872.3987707710578 C 756.38210709617,907.8819951379211 770.5753968429153,957.5585092515298 713.802237855934,1014.3316682385112 C 657.0290788689526,957.5585092515298 671.222368615698,907.8819951379211 713.802237855934,872.3987707710578 Z" fill="url(#leaf19)" opacity="0.17" transform="rotate(6.1 713.8 943.4)"/>
    <path d="M 1710.258453167027,158.14385208790108 C 1747.9664111850748,189.5671504362743 1760.5357305244243,233.55976812399678 1710.258453167027,283.83704548139394 C 1659.9811758096298,233.55976812399678 1672.5504951489793,189.5671504362743 1710.258453167027,158.14385208790108 Z" fill="url(#leaf20)" opacity="0.22" transform="rotate(27.5 1710.3 221.0)"/>
    <path d="M 1572.5797276135847,302.37851476641055 C 1594.2177385548812,320.41019055082415 1601.4304088686465,345.65453664900326 1572.5797276135847,374.5052179040651 C 1543.729046358523,345.65453664900326 1550.9417166722883,320.41019055082415 1572.5797276135847,302.37851476641055 Z" fill="url(#leaf21)" opacity="0.17" transform="rotate(5.7 1572.6 338.4)"/>
    <path d="M 1191.1160621143251,550.0232604692442 C 1212.052951946188,567.4706686624631 1219.0319152234756,591.8970401329698 1191.1160621143251,619.8128932421203 C 1163.2002090051747,591.8970401329698 1170.1791722824623,567.4706686624631 1191.1160621143251,550.0232604692442 Z" fill="url(#leaf22)" opacity="0.22" transform="rotate(139.9 1191.1 584.9)"/>
    <path d="M 1106.4706182013056,876.2032595287659 C 1147.165213004966,910.1154218651498 1160.7300779395196,957.592449136087 1106.4706182013056,1011.8519088743011 C 1052.2111584630916,957.592449136087 1065.776023397645,910.1154218651498 1106.4706182013056,876.2032595287659 Z" fill="url(#leaf23)" opacity="0.22" transform="rotate(52.0 1106.5 944.0)"/>
    </g>

    <!-- Text with SOLID fill only (ThorVG compatible) -->
    <text x="824.9" y="857.9"
          font-family="Arial, Helvetica, sans-serif"
          font-size="1080px"
          font-weight="bold"
          fill="#FF69B4"
          text-anchor="middle"
          transform="rotate(14.0 960.0 540.0)">
      V
    </text>
  </g>

  <!-- Frame counter -->
  <text x="960.0" y="1050.0"
        font-family="monospace"
        font-size="24px"
        fill="#FFFFFF"
        text-anchor="middle"
        opacity="0.7">
    Frame 00015 - Compatible
  </text>
</svg>