<?xml version="1.0" encoding="UTF-8"?>
<svg xmlns="http://www.w3.org/2000/svg" viewBox="0 0 1920 1080" width="1920" height="1080">
  <defs>
    <linearGradient id="bgGrad" x1="0%" y1="0%" x2="100%" y2="100%">
      <stop offset="0%" stop-color="#7B68EE"/>
      <stop offset="100%" stop-color="#FFD700"/>
    </linearGradient>
    <clipPath id="complexClip"><polygon points="1552.9,540.0 1459.4,575.5 1489.6,616.5 1548.9,671.2 1309.4,648.1 1473.2,749.7 1443.6,795.4 1223.2,718.9 1280.1,823.8 1131.0,744.4 1162.3,890.1 1033.9,757.9 994.6,849.3 933.6,776.2 883.5,765.7 813.3,794.0 685.4,868.2 714.1,758.0 677.7,731.9 522.3,771.2 504.8,726.0 605.4,649.7 428.8,658.3 425.9,617.1 553.2,568.9 470.3,540.0 331.1,495.3 501.2,473.7 397.0,414.6 452.9,383.2 527.6,363.3 657.2,380.1 703.8,365.8 646.1,261.8 689.4,216.5 753.8,182.9 854.8,229.9 919.3,176.1 994.5,231.3 1032.4,326.6 1165.0,185.1 1165.0,294.9 1184.7,340.9 1358.2,269.2 1249.2,387.2 1480.3,327.3 1531.9,363.2 1398.1,442.4 1420.2,473.5 1577.9,496.1"/></clipPath>
    <radialGradient id="leaf0" cx="50%" cy="50%" r="70%">
      <stop offset="0%" stop-color="#96E6A1"/>
      <stop offset="50%" stop-color="#FF69B4"/>
      <stop offset="100%" stop-color="#7B68EE"/>
    </radialGradient>
    <radialGradient id="leaf1" cx="50%" cy="50%" r="70%">
      <stop offset="0%" stop-color="#FF1493"/>
      <stop offset="50%" stop-color="#45B7D1"/>
      <stop offset="100%" stop-color="#00CED1"/>
    </radialGradient>
    <radialGradient id="leaf2" cx="50%" cy="50%" r="70%">
      <stop offset="0%" stop-color="#9370DB"/>
      <stop offset="50%" stop-color="#7B68EE"/>
      <stop offset="100%" stop-color="#FF4500"/>
    </radialGradient>
    <radialGradient id="leaf3" cx="50%" cy="50%" r="70%">
      <stop offset="0%" stop-color="#FF4500"/>
      <stop offset="50%" stop-color="#9370DB"/>
      <stop offset="100%" stop-color="#96E6A1"/>
    </radialGradient>
    <radialGradient id="leaf4" cx="50%" cy="50%" r="70%">
      <stop offset="0%" stop-color="#7B68EE"/>
      <stop offset="50%" stop-color="#FF6B6B"/>
      <stop offset="100%" stop-color="#9370DB"/>
    </radialGradient>
    <radialGradient id="leaf5" cx="50%" cy="50%" r="70%">
      <stop offset="0%" stop-color="#FF69B4"/>
      <stop offset="50%" stop-color="#4ECDC4"/>
      <stop offset="100%" stop-color="#96E6A1"/>
    </radialGradient>
    <radialGradient id="leaf6" cx="50%" cy="50%" r="70%">
      <stop offset="0%" stop-color="#9370DB"/>
      <stop offset="50%" stop-color="#45B7D1"/>
      <stop offset="100%" stop-color="#FFD700"/>
    </radialGradient>
    <radialGradient id="leaf7" cx="50%" cy="50%" r="70%">
      <stop offset="0%" stop-color="#7B68EE"/>
      <stop offset="50%" stop-color="#FF69B4"/>
      <stop offset="100%" stop-color="#45B7D1"/>
    </radialGradient>
    <radialGradient id="leaf8" cx="50%" cy="50%" r="70%">
      <stop offset="0%" stop-color="#DC143C"/>
      <stop offset="50%" stop-color="#FFD700"/>
      <stop offset="100%" stop-color="#FF4500"/>
    </radialGradient>
    <radialGradient id="leaf9" cx="50%" cy="50%" r="70%">
      <stop offset="0%" stop-color="#9370DB"/>
      <stop offset="50%" stop-color="#FF4500"/>
      <stop offset="100%" stop-color="#45B7D1"/>
    </radialGradient>
    <radialGradient id="leaf10" cx="50%" cy="50%" r="70%">
      <stop offset="0%" stop-color="#9370DB"/>
      <stop offset="50%" stop-color="#FF1493"/>
      <stop offset="100%" stop-color="#FF6B6B"/>
    </radialGradient>
    <radialGradient id="leaf11" cx="50%" cy="50%" r="70%">
      <stop offset="0%" stop-color="#FFD700"/>
      <stop offset="50%" stop-color="#9370DB"/>
      <stop offset="100%" stop-color="#96E6A1"/>
    </radialGradient>
    <radialGradient id="leaf12" cx="50%" cy="50%" r="70%">
      <stop offset="0%" stop-color="#00CED1"/>
      <stop offset="50%" stop-color="#FF6B6B"/>
      <stop offset="100%" stop-color="#FFE66D"/>
    </radialGradient>
    <radialGradient id="leaf13" cx="50%" cy="50%" r="70%">
      <stop offset="0%" stop-color="#45B7D1"/>
      <stop offset="50%" stop-color="#FF4500"/>
      <stop offset="100%" stop-color="#96E6A1"/>
    </radialGradient>
    <radialGradient id="leaf14" cx="50%" cy="50%" r="70%">
      <stop offset="0%" stop-color="#9370DB"/>
      <stop offset="50%" stop-color="#FFD700"/>
      <stop offset="100%" stop-color="#32CD32"/>
    </radialGradient>
    <radialGradient id="leaf15" cx="50%" cy="50%" r="70%">
      <stop offset="0%" stop-color="#9370DB"/>
      <stop offset="50%" stop-color="#45B7D1"/>
      <stop offset="100%" stop-color="#DC143C"/>
    </radialGradient>
    <radialGradient id="leaf16" cx="50%" cy="50%" r="70%">
      <stop offset="0%" stop-color="#FF69B4"/>
      <stop offset="50%" stop-color="#9370DB"/>
      <stop offset="100%" stop-color="#96E6A1"/>
    </radialGradient>
    <radialGradient id="leaf17" cx="50%" cy="50%" r="70%">
      <stop offset="0%" stop-color="#FFD700"/>
      <stop offset="50%" stop-color="#4ECDC4"/>
      <stop offset="100%" stop-color="#FFE66D"/>
    </radialGradient>
    <radialGradient id="leaf18" cx="50%" cy="50%" r="70%">
      <stop offset="0%" stop-color="#FF4500"/>
      <stop offset="50%" stop-color="#4ECDC4"/>
      <stop offset="100%" stop-color="#45B7D1"/>
    </radialGradient>
    <radialGradient id="leaf19" cx="50%" cy="50%" r="70%">
      <stop offset="0%" stop-color="#DC143C"/>
      <stop offset="50%" stop-color="#FF4500"/>
      <stop offset="100%" stop-color="#45B7D1"/>
    </radialGradient>
    <radialGradient id="leaf20" cx="50%" cy="50%" r="70%">
      <stop offset="0%" stop-color="#00FA9A"/>
      <stop offset="50%" stop-color="#FF4500"/>
      <stop offset="100%" stop-color="#DC143C"/>
    </radialGradient>
    <radialGradient id="leaf21" cx="50%" cy="50%" r="70%">
      <stop offset="0%" stop-color="#7B68EE"/>
      <stop offset="50%" stop-color="#96E6A1"/>
      <stop offset="100%" stop-color="#FF69B4"/>
    </radialGradient>
    <radialGradient id="leaf22" cx="50%" cy="50%" r="70%">
      <stop offset="0%" stop-color="#32CD32"/>
      <stop offset="50%" stop-color="#FFD700"/>
      <stop offset="100%" stop-color="#FFE66D"/>
    </radialGradient>
    <radialGradient id="leaf23" cx="50%" cy="50%" r="70%">
      <stop offset="0%" stop-color="#FFE66D"/>
      <stop offset="50%" stop-color="#00FA9A"/>
      <stop offset="100%" stop-color="#00CED1"/>
    </radialGradient>
    <radialGradient id="leaf24" cx="50%" cy="50%" r="70%">
      <stop offset="0%" stop-color="#FF69B4"/>
      <stop offset="50%" stop-color="#FFE66D"/>
      <stop offset="100%" stop-color="#7B68EE"/>
    </radialGradient>
    <radialGradient id="leaf25" cx="50%" cy="50%" r="70%">
      <stop offset="0%" stop-color="#96E6A1"/>
      <stop offset="50%" stop-color="#7B68EE"/>
      <stop offset="100%" stop-color="#FF6B6B"/>
    </radialGradient>
    <radialGradient id="leaf26" cx="50%" cy="50%" r="70%">
      <stop offset="0%" stop-color="#7B68EE"/>
      <stop offset="50%" stop-color="#FF6B6B"/>
      <stop offset="100%" stop-color="#FFD700"/>
    </radialGradient>
    <radialGradient id="leaf27" cx="50%" cy="50%" r="70%">
      <stop offset="0%" stop-color="#9370DB"/>
      <stop offset="50%" stop-color="#FFE66D"/>
      <stop offset="100%" stop-color="#96E6A1"/>
    </radialGradient>
    <radialGradient id="leaf28" cx="50%" cy="50%" r="70%">
      <stop offset="0%" stop-color="#7B68EE"/>
      <stop offset="50%" stop-color="#00CED1"/>
      <stop offset="100%" stop-color="#4ECDC4"/>
    </radialGradient>
    <radialGradient id="leaf29" cx="50%" cy="50%" r="70%">
      <stop offset="0%" stop-color="#32CD32"/>
      <stop offset="50%" stop-color="#9370DB"/>
      <stop offset="100%" stop-color="#DC143C"/>
    </radialGradient>
  </defs>

  <!-- Scaled content -->
  <g transform="translate(960.0,540.0) scale(3.0) translate(-960.0,-540.0)">
    <!-- Background -->
    <rect width="1920" height="1080" fill="url(#bgGrad)"/>
    
    <!-- Leaves with clip-path -->
    <g clip-path="url(#complexClip)">
    <path d="M 1089.6569980807444,553.2645219241831 C 1111.6475124475458,571.5899505631843 1118.9776839031463,597.2455506577858 1089.6569980807444,626.5662364801876 C 1060.3363122583426,597.2455506577858 1067.666483713943,571.5899505631843 1089.6569980807444,553.2645219241831 Z" fill="url(#leaf0)" opacity="0.19" transform="rotate(328.3 1089.7 589.9)"/>
    <path d="M 319.55791063053226,289.79930785225235 C 364.10467280357994,326.92160966312537 378.9535935279292,378.89283219834766 319.55791063053226,438.2885150957445 C 260.16222773313535,378.89283219834766 275.0111484574846,326.92160966312537 319.55791063053226,289.79930785225235 Z" fill="url(#leaf1)" opacity="0.23" transform="rotate(131.1 319.6 364.0)"/>
    <path d="M 1597.8447302843479,636.0352402854708 C 1624.2935514482097,658.075924588689 1633.1098251694968,688.9328826131945 1597.8447302843479,724.1979774983436 C 1562.5796353991989,688.9328826131945 1571.395909120486,658.075924588689 1597.8447302843479,636.0352402854708 Z" fill="url(#leaf2)" opacity="0.15" transform="rotate(329.7 1597.8 680.1)"/>
    <path d="M 1516.7171763744795,42.86882988839551 C 1557.2112724345066,76.61390993841796 1570.7093044545154,123.85702200844939 1516.7171763744795,177.84915008848532 C 1462.7250482944437,123.85702200844939 1476.2230803144525,76.61390993841796 1516.7171763744795,42.86882988839551 Z" fill="url(#leaf3)" opacity="0.24" transform="rotate(135.0 1516.7 110.4)"/>
    <path d="M 1568.1941195649417,102.38667582396367 C 1605.8179829757578,133.73989533297697 1618.359270779363,177.6344026455956 1568.1941195649417,227.79955386001689 C 1518.0289683505205,177.6344026455956 1530.5702561541257,133.73989533297697 1568.1941195649417,102.38667582396367 Z" fill="url(#leaf4)" opacity="0.24" transform="rotate(85.0 1568.2 165.1)"/>
    <path d="M 127.4097515674618,-10.21251989877338 C 165.8385462681369,21.811475685122545 178.64814450169527,66.64506950257685 127.4097515674618,117.88346243681032 C 76.17135863322832,66.64506950257685 88.9809568667867,21.811475685122545 127.4097515674618,-10.21251989877338 Z" fill="url(#leaf5)" opacity="0.23" transform="rotate(274.2 127.4 53.8)"/>
    <path d="M 728.0084043364463,405.30369766848474 C 772.5878700084766,442.45325239517655 787.4476918991533,494.46262901254505 728.0084043364463,553.901916575252 C 668.5691167737394,494.46262901254505 683.4289386644161,442.45325239517655 728.0084043364463,405.30369766848474 Z" fill="url(#leaf6)" opacity="0.16" transform="rotate(236.3 728.0 479.6)"/>
    <path d="M 1141.5026397962204,22.1533012868353 C 1189.44473225649,62.10504500372666 1205.4254297432465,118.03748620737456 1141.5026397962204,181.96027615440073 C 1077.5798498491943,118.03748620737456 1093.5605473359508,62.10504500372666 1141.5026397962204,22.1533012868353 Z" fill="url(#leaf7)" opacity="0.22" transform="rotate(269.6 1141.5 102.1)"/>
    <path d="M 1745.8000698040119,536.0369873570785 C 1767.936529148627,554.4840368109245 1775.3153489301653,580.3099060463088 1745.8000698040119,609.8251851724624 C 1716.2847906778584,580.3099060463088 1723.6636104593968,554.4840368109245 1745.8000698040119,536.0369873570785 Z" fill="url(#leaf8)" opacity="0.19" transform="rotate(37.0 1745.8 572.9)"/>
    <path d="M 1355.6686336041212,64.58929617529111 C 1398.8643331668056,100.5857124775282 1413.2628996877006,150.98069530066013 1355.6686336041212,208.5749613842395 C 1298.0743675205417,150.98069530066013 1312.4729340414367,100.5857124775282 1355.6686336041212,64.58929617529111 Z" fill="url(#leaf9)" opacity="0.21" transform="rotate(176.4 1355.7 136.6)"/>
    <path d="M 1449.4656719984357,571.5979346692368 C 1492.0384347482932,607.0752369607848 1506.2293556649124,656.743460168952 1449.4656719984357,713.5071438354287 C 1392.701988331959,656.743460168952 1406.8929092485782,607.0752369607848 1449.4656719984357,571.5979346692368 Z" fill="url(#leaf10)" opacity="0.23" transform="rotate(22.4 1449.5 642.6)"/>
    <path d="M 955.6443714008753,874.0427773572598 C 1002.1274906821855,912.7787100916847 1017.6218637759554,967.0090159198799 955.6443714008753,1028.98650829496 C 893.6668790257953,967.0090159198799 909.1612521195652,912.7787100916847 955.6443714008753,874.0427773572598 Z" fill="url(#leaf11)" opacity="0.23" transform="rotate(110.9 955.6 951.5)"/>
    <path d="M 1189.6680018607674,791.6135401298397 C 1236.999138197482,831.0561537437685 1252.7761836430534,886.2758128032688 1189.6680018607674,949.3839945855548 C 1126.5598200784814,886.2758128032688 1142.3368655240529,831.0561537437685 1189.6680018607674,791.6135401298397 Z" fill="url(#leaf12)" opacity="0.17" transform="rotate(319.4 1189.7 870.5)"/>
    <path d="M 1376.409902088744,725.4438537242066 C 1409.626253582501,753.1241466356707 1420.6983707470868,791.8765567117207 1376.409902088744,836.1650253700633 C 1332.1214334304013,791.8765567117207 1343.193550594987,753.1241466356707 1376.409902088744,725.4438537242066 Z" fill="url(#leaf13)" opacity="0.23" transform="rotate(170.1 1376.4 780.8)"/>
    <path d="M 407.27039491380606,667.0552032790122 C 455.27006441664275,707.0549278647095 471.26995425092167,763.0545422846856 407.27039491380606,827.0541016218012 C 343.27083557669044,763.0545422846856 359.27072541096936,707.0549278647095 407.27039491380606,667.0552032790122 Z" fill="url(#leaf14)" opacity="0.18" transform="rotate(280.8 407.3 747.1)"/>
    <path d="M 1380.7743876151928,394.7205920410764 C 1418.3748719197065,426.0543289615045 1430.9083666878778,469.92156065010386 1380.7743876151928,520.0555397227889 C 1330.6404085425079,469.92156065010386 1343.1739033106792,426.0543289615045 1380.7743876151928,394.7205920410764 Z" fill="url(#leaf15)" opacity="0.17" transform="rotate(78.3 1380.8 457.4)"/>
    <path d="M 636.8144128066831,740.8849890906658 C 681.453167213986,778.0839510967517 696.3327520164203,830.1624979052717 636.8144128066831,889.6808371150089 C 577.2960735969459,830.1624979052717 592.1756583993802,778.0839510967517 636.8144128066831,740.8849890906658 Z" fill="url(#leaf16)" opacity="0.18" transform="rotate(236.5 636.8 815.3)"/>
    <path d="M 1211.4838015763228,269.4808492149929 C 1248.6136848763417,300.4224186316754 1260.9903126430147,343.7406158150308 1211.4838015763228,393.2471268817228 C 1161.9772905096308,343.7406158150308 1174.3539182763038,300.4224186316754 1211.4838015763228,269.4808492149929 Z" fill="url(#leaf17)" opacity="0.25" transform="rotate(153.9 1211.5 331.4)"/>
    <path d="M 1861.099303091924,715.2137009151895 C 1898.7482940698933,746.5878600634974 1911.2979577292165,790.5116828711282 1861.099303091924,840.7103375084207 C 1810.9006484546314,790.5116828711282 1823.4503121139546,746.5878600634974 1861.099303091924,715.2137009151895 Z" fill="url(#leaf18)" opacity="0.22" transform="rotate(136.5 1861.1 778.0)"/>
    <path d="M 1071.6621981957876,783.7550435964041 C 1098.0432553099063,805.7392578581697 1106.8369410146124,836.5171578246415 1071.6621981957876,871.6919006434663 C 1036.4874553769628,836.5171578246415 1045.281141081669,805.7392578581697 1071.6621981957876,783.7550435964041 Z" fill="url(#leaf19)" opacity="0.16" transform="rotate(265.8 1071.7 827.7)"/>
    <path d="M 1231.5836245582564,415.0131237362756 C 1271.5863927433918,448.3487638905551 1284.9206488051036,495.0186601065465 1231.5836245582564,548.3556843533938 C 1178.246600311409,495.0186601065465 1191.580856373121,448.3487638905551 1231.5836245582564,415.0131237362756 Z" fill="url(#leaf20)" opacity="0.17" transform="rotate(319.6 1231.6 481.7)"/>
    <path d="M 1504.133120688688,863.0137891225905 C 1551.7974950746595,902.7341011109002 1567.6856198699834,958.3425378945336 1504.133120688688,1021.895037075829 C 1440.5806215073926,958.3425378945336 1456.4687463027165,902.7341011109002 1504.133120688688,863.0137891225905 Z" fill="url(#leaf21)" opacity="0.22" transform="rotate(96.4 1504.1 942.5)"/>
    <path d="M 1069.0207426935503,798.6682347318806 C 1108.2844305582828,831.3879746191575 1121.3723265131935,877.1956104613453 1069.0207426935503,929.5471942809884 C 1016.6691588739072,877.1956104613453 1029.757054828818,831.3879746191575 1069.0207426935503,798.6682347318806 Z" fill="url(#leaf22)" opacity="0.20" transform="rotate(93.8 1069.0 864.1)"/>
    <path d="M 1668.6550088817883,878.0025920178217 C 1711.4180902425396,913.6384931517811 1725.6724506961234,963.5287547393243 1668.6550088817883,1020.5461965536593 C 1611.6375670674531,963.5287547393243 1625.891927521037,913.6384931517811 1668.6550088817883,878.0025920178217 Z" fill="url(#leaf23)" opacity="0.16" transform="rotate(108.5 1668.7 949.3)"/>
    <path d="M 825.66777242199,106.31771004561439 C 872.0616627248617,144.9792852980075 887.5262928258189,199.10549065135785 825.66777242199,260.96401105518686 C 763.809252018161,199.10549065135785 779.2738821191183,144.9792852980075 825.66777242199,106.31771004561439 Z" fill="url(#leaf24)" opacity="0.21" transform="rotate(227.4 825.7 183.6)"/>
    <path d="M 408.65011657167815,346.73899318229627 C 428.1688724418866,363.0046230741367 434.6751243986228,385.77650492271323 408.65011657167815,411.8015127496579 C 382.6251087447335,385.77650492271323 389.1313607014697,363.0046230741367 408.65011657167815,346.73899318229627 Z" fill="url(#leaf25)" opacity="0.18" transform="rotate(257.1 408.7 379.3)"/>
    <path d="M 481.7350472210139,801.8964094862367 C 507.7680372130079,823.5905678128984 516.4457005436726,853.9623894702248 481.7350472210139,888.6730427928835 C 447.02439389835513,853.9623894702248 455.70205722901983,823.5905678128984 481.7350472210139,801.8964094862367 Z" fill="url(#leaf26)" opacity="0.18" transform="rotate(102.5 481.7 845.3)"/>
    <path d="M 1592.927336816369,513.0280544318725 C 1640.4929365461423,552.6660542066837 1656.3481364560669,608.1592538914194 1592.927336816369,671.5800535311173 C 1529.5065371766711,608.1592538914194 1545.3617370865957,552.6660542066837 1592.927336816369,513.0280544318725 Z" fill="url(#leaf27)" opacity="0.20" transform="rotate(139.6 1592.9 592.3)"/>
    <path d="M 1848.9568789365433,956.391258199383 C 1889.4189030401326,990.1096116190406 1902.9062444079957,1037.3153064065614 1848.9568789365433,1091.2646718780138 C 1795.0075134650908,1037.3153064065614 1808.494854832954,990.1096116190406 1848.9568789365433,956.391258199383 Z" fill="url(#leaf28)" opacity="0.17" transform="rotate(106.7 1849.0 1023.8)"/>
    <path d="M 679.0062017778482,51.221866261151916 C 698.4900568822678,67.45841218150159 704.9846752504077,90.18957646999112 679.0062017778482,116.1680499425506 C 653.0277283052887,90.18957646999112 659.5223466734286,67.45841218150159 679.0062017778482,51.221866261151916 Z" fill="url(#leaf29)" opacity="0.20" transform="rotate(204.2 679.0 83.7)"/>
    <path d="M 179.46070818757923,154.94293768240607 C 206.71871100674122,177.65794003170774 215.8047119464619,209.45894332073007 179.46070818757923,245.80294707961275 C 143.11670442869655,209.45894332073007 152.20270536841724,177.65794003170774 179.46070818757923,154.94293768240607 Z" fill="url(#leaf0)" opacity="0.23" transform="rotate(279.2 179.5 200.4)"/>
    <path d="M 514.2794054235628,323.9763920808588 C 532.3463017195521,339.0321389941832 538.368600484882,360.1101846728374 514.2794054235628,384.19937973415654 C 490.1902103622437,360.1101846728374 496.21250912757347,339.0321389941832 514.2794054235628,323.9763920808588 Z" fill="url(#leaf1)" opacity="0.22" transform="rotate(197.3 514.3 354.1)"/>
    <path d="M 1732.1886409278277,-27.733000148962084 C 1779.6729961718702,11.837295887740062 1795.501114586551,67.23571033912307 1732.1886409278277,130.5481839978465 C 1668.8761672691044,67.23571033912307 1684.7042856837852,11.837295887740062 1732.1886409278277,-27.733000148962084 Z" fill="url(#leaf2)" opacity="0.23" transform="rotate(322.5 1732.2 51.4)"/>
    <path d="M 654.5078772927828,342.3965739767157 C 694.6228420821407,375.8257113011805 707.9944970119266,422.6265035554313 654.5078772927828,476.11312327457506 C 601.0212575736391,422.6265035554313 614.392912503425,375.8257113011805 654.5078772927828,342.3965739767157 Z" fill="url(#leaf3)" opacity="0.20" transform="rotate(245.7 654.5 409.3)"/>
    <path d="M 1727.255953902934,799.0491638528094 C 1745.5800267081308,814.319224523807 1751.68805097653,835.6973094632033 1727.255953902934,860.1294065367993 C 1702.823856829338,835.6973094632033 1708.931881097737,814.319224523807 1727.255953902934,799.0491638528094 Z" fill="url(#leaf4)" opacity="0.19" transform="rotate(359.4 1727.3 829.6)"/>
    <path d="M 1128.8774156038571,554.8617240628322 C 1168.33594687313,587.7438334538931 1181.4887906295544,633.7787866013782 1128.8774156038571,686.3901616270756 C 1076.2660405781598,633.7787866013782 1089.4188843345842,587.7438334538931 1128.8774156038571,554.8617240628322 Z" fill="url(#leaf5)" opacity="0.24" transform="rotate(59.8 1128.9 620.6)"/>
    <path d="M 123.86030365329403,255.98275798552058 C 160.74897286114927,286.72331565873327 173.04519593043437,329.76009640123107 123.86030365329403,378.9449886783714 C 74.67541137615369,329.76009640123107 86.97163444543878,286.72331565873327 123.86030365329403,255.98275798552058 Z" fill="url(#leaf6)" opacity="0.22" transform="rotate(326.3 123.9 317.5)"/>
    <path d="M 1005.5512789848472,830.0292513063962 C 1046.6584029491848,864.2851879433443 1060.3607776039642,912.2434992350718 1005.5512789848472,967.0529978541888 C 950.7417803657302,912.2434992350718 964.4441550205094,864.2851879433443 1005.5512789848472,830.0292513063962 Z" fill="url(#leaf7)" opacity="0.17" transform="rotate(268.6 1005.6 898.5)"/>
    <path d="M 117.93220906401696,109.6403696398396 C 151.71286614175486,137.7909172046212 162.9730851676675,177.20168379531543 117.93220906401696,222.24255989896596 C 72.89133296036641,177.20168379531543 84.15155198627906,137.7909172046212 117.93220906401696,109.6403696398396 Z" fill="url(#leaf8)" opacity="0.20" transform="rotate(316.4 117.9 165.9)"/>
    <path d="M 243.79062504258007,477.0838073515888 C 270.33759452705937,499.2062819219882 279.1865843552191,530.1777463205474 243.79062504258007,565.5737056331864 C 208.39466572994104,530.1777463205474 217.24365555810078,499.2062819219882 243.79062504258007,477.0838073515888 Z" fill="url(#leaf9)" opacity="0.23" transform="rotate(237.7 243.8 521.3)"/>
    <path d="M 1850.890805304046,313.010906292414 C 1880.6400073129166,337.801907966473 1890.5564079825403,372.5093103101556 1850.890805304046,412.17491298865 C 1811.2252026255514,372.5093103101556 1821.1416032951752,337.801907966473 1850.890805304046,313.010906292414 Z" fill="url(#leaf10)" opacity="0.21" transform="rotate(320.9 1850.9 362.6)"/>
    <path d="M 809.5477675523638,884.8085328554049 C 841.3519665043807,911.3120319820856 851.953366155053,948.4169307594386 809.5477675523638,990.8225293621277 C 767.1421689496746,948.4169307594386 777.7435686003469,911.3120319820856 809.5477675523638,884.8085328554049 Z" fill="url(#leaf11)" opacity="0.22" transform="rotate(279.4 809.5 937.8)"/>
    <path d="M 887.9473423659306,515.179865931994 C 926.174386943174,547.0357364130302 938.9167351355885,591.6339550864809 887.9473423659306,642.6033478561388 C 836.9779495962727,591.6339550864809 849.7202977886872,547.0357364130302 887.9473423659306,515.179865931994 Z" fill="url(#leaf12)" opacity="0.23" transform="rotate(103.8 887.9 578.9)"/>
    <path d="M 1281.2809705894088,216.40029559380514 C 1315.8183175277015,245.1814180423824 1327.3307665071325,285.4749894703906 1281.2809705894088,331.5247853881142 C 1235.231174671685,285.4749894703906 1246.743623651116,245.1814180423824 1281.2809705894088,216.40029559380514 Z" fill="url(#leaf13)" opacity="0.23" transform="rotate(226.5 1281.3 274.0)"/>
    <path d="M 758.2934298676787,471.1190275076824 C 795.5580776772914,502.1729006823596 807.9796269471623,545.6483231269077 758.2934298676787,595.3345202063913 C 708.6072327881951,545.6483231269077 721.028782058066,502.1729006823596 758.2934298676787,471.1190275076824 Z" fill="url(#leaf14)" opacity="0.17" transform="rotate(131.7 758.3 533.2)"/>
    <path d="M 275.7909181484911,515.3894733252314 C 316.54030046896355,549.3472919256251 330.123427909121,596.8882379661762 275.7909181484911,651.2207477268062 C 221.45840838786114,596.8882379661762 235.04153582801862,549.3472919256251 275.7909181484911,515.3894733252314 Z" fill="url(#leaf15)" opacity="0.21" transform="rotate(155.6 275.8 583.3)"/>
    <path d="M 84.15279238811236,756.8475009239256 C 123.59080158224455,789.7125085857024 136.73680464695528,835.72351931219 84.15279238811236,888.3075315710329 C 31.56878012926944,835.72351931219 44.714783193980175,789.7125085857024 84.15279238811236,756.8475009239256 Z" fill="url(#leaf16)" opacity="0.15" transform="rotate(92.7 84.2 822.6)"/>
    <path d="M 514.9835685154733,304.03271344797736 C 534.1888626066948,320.0371251906619 540.5906273037687,342.4433016304203 514.9835685154733,368.0503604187156 C 489.37650972717796,342.4433016304203 495.7782744242518,320.0371251906619 514.9835685154733,304.03271344797736 Z" fill="url(#leaf17)" opacity="0.21" transform="rotate(134.8 515.0 336.0)"/>
    <path d="M 602.6411532815227,533.0932895191149 C 638.2999861386055,562.8089835666839 650.1862637576331,604.4109552332806 602.6411532815227,651.9560657093909 C 555.0960428054124,604.4109552332806 566.98232042444,562.8089835666839 602.6411532815227,533.0932895191149 Z" fill="url(#leaf18)" opacity="0.20" transform="rotate(208.2 602.6 592.5)"/>
    <path d="M 80.68163514263293,537.6185947290086 C 99.61169057404102,553.3936409218486 105.92170905117706,575.4787055918248 80.68163514263293,600.7187795003689 C 55.441561234088795,575.4787055918248 61.751579711224835,553.3936409218486 80.68163514263293,537.6185947290086 Z" fill="url(#leaf19)" opacity="0.23" transform="rotate(281.0 80.7 569.2)"/>
    <path d="M 1467.0411200493038,231.040206562992 C 1510.5266260303003,267.27812821382236 1525.0217946906323,318.0112185249849 1467.0411200493038,375.9918931663135 C 1409.0604454079753,318.0112185249849 1423.5556140683072,267.27812821382236 1467.0411200493038,231.040206562992 Z" fill="url(#leaf20)" opacity="0.24" transform="rotate(24.7 1467.0 303.5)"/>
    <path d="M 1109.1025001770668,585.404584558035 C 1148.6040588417477,618.3225501119357 1161.771245063308,664.4077018873968 1109.1025001770668,717.0764467736379 C 1056.4337552908255,664.4077018873968 1069.6009415123858,618.3225501119357 1109.1025001770668,585.404584558035 Z" fill="url(#leaf21)" opacity="0.18" transform="rotate(76.2 1109.1 651.2)"/>
    <path d="M 732.2519955331069,572.0751090519977 C 760.6734284075635,595.7596364473783 770.1472393657157,628.917974800911 732.2519955331069,666.8132186335199 C 694.3567517004981,628.917974800911 703.8305626586503,595.7596364473783 732.2519955331069,572.0751090519977 Z" fill="url(#leaf22)" opacity="0.24" transform="rotate(279.1 732.3 619.4)"/>
    <path d="M 1624.6025630006693,72.97152030242552 C 1642.8365002995465,88.16646805148984 1648.9144793991723,109.4393949001799 1624.6025630006693,133.75131129868282 C 1600.2906466021664,109.4393949001799 1606.368625701792,88.16646805148984 1624.6025630006693,72.97152030242552 Z" fill="url(#leaf23)" opacity="0.17" transform="rotate(158.5 1624.6 103.4)"/>
    <path d="M 831.4155755285376,798.9449027299181 C 875.4720355767759,835.6586194367834 890.1575222595219,887.0578228263946 831.4155755285376,945.799769557379 C 772.6736287975533,887.0578228263946 787.3591154802994,835.6586194367834 831.4155755285376,798.9449027299181 Z" fill="url(#leaf24)" opacity="0.22" transform="rotate(286.9 831.4 872.4)"/>
    <path d="M 1593.6409886189858,639.7517135914773 C 1621.5239635480816,662.9875260323904 1630.8182885244469,695.5176634496688 1593.6409886189858,732.6949633551299 C 1556.4636887135248,695.5176634496688 1565.75801368989,662.9875260323904 1593.6409886189858,639.7517135914773 Z" fill="url(#leaf25)" opacity="0.20" transform="rotate(209.7 1593.6 686.2)"/>
    <path d="M 383.72815879447603,375.87152305807393 C 413.63886298839236,400.7971098863375 423.6090977196978,435.69293144590654 383.72815879447603,475.5738703711283 C 343.8472198692543,435.69293144590654 353.8174546005597,400.7971098863375 383.72815879447603,375.87152305807393 Z" fill="url(#leaf26)" opacity="0.16" transform="rotate(95.4 383.7 425.7)"/>
    <path d="M 155.9310553560123,968.3476190349452 C 184.4162166177798,992.0852534197514 193.9112703717023,1025.3179415584802 155.9310553560123,1063.2981565741702 C 117.95084034032232,1025.3179415584802 127.44589409424482,992.0852534197514 155.9310553560123,968.3476190349452 Z" fill="url(#leaf27)" opacity="0.15" transform="rotate(113.9 155.9 1015.8)"/>
    <path d="M 830.2903224822379,27.187925988669534 C 861.1937595582018,52.94079021863947 871.4949052501898,88.99480014059739 830.2903224822379,130.1993829085493 C 789.085739714286,88.99480014059739 799.386885406274,52.94079021863947 830.2903224822379,27.187925988669534 Z" fill="url(#leaf28)" opacity="0.24" transform="rotate(291.7 830.3 78.7)"/>
    <path d="M 458.29607987573115,545.1363138824328 C 499.14172571335996,579.1743520804569 512.7569409925696,626.8276055576904 458.29607987573115,681.2884666745289 C 403.8352187588927,626.8276055576904 417.45043403810234,579.1743520804569 458.29607987573115,545.1363138824328 Z" fill="url(#leaf29)" opacity="0.23" transform="rotate(296.2 458.3 613.2)"/>
    <path d="M 1214.9318532886466,174.96912039734542 C 1259.8085058150625,212.36633083602533 1274.7673899905344,264.72242545017724 1214.9318532886466,324.5579621520651 C 1155.0963165867588,264.72242545017724 1170.0552007622307,212.36633083602533 1214.9318532886466,174.96912039734542 Z" fill="url(#leaf0)" opacity="0.18" transform="rotate(301.3 1214.9 249.8)"/>
    <path d="M 690.6925833714528,739.388057229051 C 723.9707252886293,767.1198421600315 735.0634392610215,805.9443410634041 690.6925833714528,850.3151969529728 C 646.3217274818841,805.9443410634041 657.4144414542762,767.1198421600315 690.6925833714528,739.388057229051 Z" fill="url(#leaf1)" opacity="0.24" transform="rotate(236.3 690.7 794.9)"/>
    <path d="M 1817.2283779099648,564.7573098179446 C 1858.859532894881,599.4499389720415 1872.7365845565198,648.0196197877773 1817.2283779099648,703.5278264343324 C 1761.7201712634098,648.0196197877773 1775.5972229250485,599.4499389720415 1817.2283779099648,564.7573098179446 Z" fill="url(#leaf2)" opacity="0.23" transform="rotate(111.4 1817.2 634.1)"/>
    <path d="M 641.2328084188956,275.6054589849683 C 684.164375400338,311.381764802837 698.4748977274855,361.4685929478531 641.2328084188956,418.71068225644296 C 583.9907191103057,361.4685929478531 598.3012414374532,311.381764802837 641.2328084188956,275.6054589849683 Z" fill="url(#leaf3)" opacity="0.16" transform="rotate(323.8 641.2 347.2)"/>
    <path d="M 1208.950081064472,744.4996638209554 C 1252.514299567879,780.8031792404613 1267.0357057356814,831.6281008277697 1208.950081064472,889.7137254989791 C 1150.8644563932626,831.6281008277697 1165.3858625610649,780.8031792404613 1208.950081064472,744.4996638209554 Z" fill="url(#leaf4)" opacity="0.18" transform="rotate(227.6 1209.0 817.1)"/>
    <path d="M 469.87284921490095,951.4363748896601 C 489.58817989601494,967.8658171239217 496.15995678971956,990.867036251888 469.87284921490095,1017.1541438267066 C 443.58574164008235,990.867036251888 450.15751853378697,967.8658171239217 469.87284921490095,951.4363748896601 Z" fill="url(#leaf5)" opacity="0.19" transform="rotate(190.1 469.9 984.3)"/>
    <path d="M 1176.1083118104023,638.7101882254158 C 1203.8011681232063,661.7875684860858 1213.0321202274743,694.0959008510238 1176.1083118104023,731.0197092680958 C 1139.1845033933303,694.0959008510238 1148.4154554975983,661.7875684860858 1176.1083118104023,638.7101882254158 Z" fill="url(#leaf6)" opacity="0.16" transform="rotate(278.1 1176.1 684.9)"/>
    <path d="M 1053.6082775953903,167.93856340676263 C 1095.4737521225322,202.8264588460476 1109.4289102982461,251.66951246104654 1053.6082775953903,307.49014516390247 C 997.7876448925343,251.66951246104654 1011.7428030682483,202.8264588460476 1053.6082775953903,167.93856340676263 Z" fill="url(#leaf7)" opacity="0.17" transform="rotate(357.1 1053.6 237.7)"/>
    <path d="M 1735.4653892113276,112.55331539536428 C 1756.756914849625,130.29625342727877 1763.8540900623907,155.13636667195902 1735.4653892113276,183.5250675230222 C 1707.0766883602646,155.13636667195902 1714.1738635730303,130.29625342727877 1735.4653892113276,112.55331539536428 Z" fill="url(#leaf8)" opacity="0.23" transform="rotate(84.1 1735.5 148.0)"/>
    <path d="M 1308.7118252471182,747.7964629919011 C 1351.6230583133292,783.5558238804102 1365.926802668733,833.6189291243231 1308.7118252471182,890.8339065459379 C 1251.4968478255034,833.6189291243231 1265.8005921809072,783.5558238804102 1308.7118252471182,747.7964629919011 Z" fill="url(#leaf9)" opacity="0.25" transform="rotate(113.6 1308.7 819.3)"/>
    <path d="M 1597.7592416039033,512.5190175213211 C 1634.014289777622,542.7315576660867 1646.0993058355284,585.0291138687586 1597.7592416039033,633.3691781003836 C 1549.4191773722782,585.0291138687586 1561.5041934301846,542.7315576660867 1597.7592416039033,512.5190175213211 Z" fill="url(#leaf10)" opacity="0.23" transform="rotate(65.5 1597.8 572.9)"/>
    <path d="M 1846.7237313917358,679.3827800506249 C 1875.8176483846512,703.6277108780544 1885.515620715623,737.5706140364556 1846.7237313917358,776.3625033603428 C 1807.9318420678485,737.5706140364556 1817.6298143988204,703.6277108780544 1846.7237313917358,679.3827800506249 Z" fill="url(#leaf11)" opacity="0.17" transform="rotate(11.4 1846.7 727.9)"/>
    <path d="M 799.2186223992948,417.3996028855103 C 821.7873764049168,436.20689789019536 829.3102944067908,462.5371108967544 799.2186223992948,492.6287829042505 C 769.1269503917987,462.5371108967544 776.6498683936727,436.20689789019536 799.2186223992948,417.3996028855103 Z" fill="url(#leaf12)" opacity="0.15" transform="rotate(267.4 799.2 455.0)"/>
    <path d="M 241.9212021746596,461.0684600210542 C 274.1786144167277,487.9496368894443 284.9310851640838,525.5832845051905 241.9212021746596,568.5931674946147 C 198.9113191852354,525.5832845051905 209.66378993259147,487.9496368894443 241.9212021746596,461.0684600210542 Z" fill="url(#leaf13)" opacity="0.19" transform="rotate(285.4 241.9 514.8)"/>
    <path d="M 1303.564403839826,572.1431862738357 C 1344.698739768767,606.4217995479534 1358.410185078414,654.411858131718 1303.564403839826,709.2576393703062 C 1248.7186226012377,654.411858131718 1262.4300679108849,606.4217995479534 1303.564403839826,572.1431862738357 Z" fill="url(#leaf14)" opacity="0.19" transform="rotate(33.5 1303.6 640.7)"/>
    <path d="M 278.80052910962513,151.63391848023042 C 326.4020273332673,191.3018336665989 342.2691934078147,246.83691492751478 278.80052910962513,310.3055792257044 C 215.33186481143554,246.83691492751478 231.19903088598295,191.3018336665989 278.80052910962513,151.63391848023042 Z" fill="url(#leaf15)" opacity="0.20" transform="rotate(340.8 278.8 231.0)"/>
    <path d="M 973.9218940802018,414.6777519150211 C 1011.3322029022785,445.85300926675166 1023.8023058429708,489.4983695591745 973.9218940802018,539.3787813219434 C 924.0414823174328,489.4983695591745 936.5115852581251,445.85300926675166 973.9218940802018,414.6777519150211 Z" fill="url(#leaf16)" opacity="0.16" transform="rotate(199.6 973.9 477.0)"/>
    <path d="M 560.0899970056139,751.0364924243486 C 592.9348925857237,778.4072387411067 603.8831911124269,816.7262835845679 560.0899970056139,860.5194776913809 C 516.2968028988009,816.7262835845679 527.2451014255041,778.4072387411067 560.0899970056139,751.0364924243486 Z" fill="url(#leaf17)" opacity="0.21" transform="rotate(217.5 560.1 805.8)"/>
    <path d="M 80.33832938949489,215.55761372777468 C 114.44622069091476,243.9808564789579 125.81551779138806,283.77339633061445 80.33832938949489,329.2505847325076 C 34.86114098760172,283.77339633061445 46.23043808807502,243.9808564789579 80.33832938949489,215.55761372777468 Z" fill="url(#leaf18)" opacity="0.17" transform="rotate(294.4 80.3 272.4)"/>
    <path d="M 1728.4979662701776,763.569716624233 C 1774.63333650432,802.0158584860184 1790.011793249034,855.8404570925177 1728.4979662701776,917.3542840713742 C 1666.984139291321,855.8404570925177 1682.3625960360353,802.0158584860184 1728.4979662701776,763.569716624233 Z" fill="url(#leaf19)" opacity="0.23" transform="rotate(236.4 1728.5 840.5)"/>
    <path d="M 919.62314855159,498.51296633998055 C 966.1502072431429,537.2855152496079 981.6592268069938,591.5670837230863 919.62314855159,653.60316197849 C 857.5870702961862,591.5670837230863 873.0960898600372,537.2855152496079 919.62314855159,498.51296633998055 Z" fill="url(#leaf20)" opacity="0.18" transform="rotate(152.0 919.6 576.1)"/>
    <path d="M 1428.6044307220793,645.4855291278056 C 1473.8515269348352,683.1914426384355 1488.9338923390872,735.9797215533174 1428.6044307220793,796.3091831703252 C 1368.2749691050715,735.9797215533174 1383.3573345093234,683.1914426384355 1428.6044307220793,645.4855291278056 Z" fill="url(#leaf21)" opacity="0.23" transform="rotate(101.5 1428.6 720.9)"/>
    <path d="M 1322.1430359029032,793.76755788255 C 1358.0271860430084,823.6710163326377 1369.9885694230436,865.5358581627605 1322.1430359029032,913.3813916829009 C 1274.2975023827628,865.5358581627605 1286.258885762798,823.6710163326377 1322.1430359029032,793.76755788255 Z" fill="url(#leaf22)" opacity="0.19" transform="rotate(262.9 1322.1 853.6)"/>
    <path d="M 750.6402901590815,392.71095895468306 C 790.0995667867977,425.59368947777995 803.2526589960365,471.6295122101156 750.6402901590815,524.2418810470706 C 698.0279213221264,471.6295122101156 711.1810135313652,425.59368947777995 750.6402901590815,392.71095895468306 Z" fill="url(#leaf23)" opacity="0.22" transform="rotate(274.3 750.6 458.5)"/>
    <path d="M 748.3608555070543,675.372558086049 C 772.7421026135362,695.6902640081172 780.8691849823635,724.1350522990127 748.3608555070543,756.6433817743219 C 715.8525260317451,724.1350522990127 723.9796084005725,695.6902640081172 748.3608555070543,675.372558086049 Z" fill="url(#leaf24)" opacity="0.15" transform="rotate(329.9 748.4 716.0)"/>
    <path d="M 1092.7376202966195,686.0413856039489 C 1118.5930534745148,707.5875799188617 1127.21153120048,737.7522519597396 1092.7376202966195,772.2261628636 C 1058.263709392759,737.7522519597396 1066.8821871187242,707.5875799188617 1092.7376202966195,686.0413856039489 Z" fill="url(#leaf25)" opacity="0.23" transform="rotate(172.4 1092.7 729.1)"/>
    <path d="M 745.110763763504,338.6303108490029 C 784.7523525696305,371.6649681874416 797.966215505006,417.9134884612558 745.110763763504,470.76894020275773 C 692.255312022002,417.9134884612558 705.4691749573775,371.6649681874416 745.110763763504,338.6303108490029 Z" fill="url(#leaf26)" opacity="0.18" transform="rotate(128.2 745.1 404.7)"/>
    <path d="M 1177.0164820437667,63.36830799332 C 1195.1293028559414,78.46232533679903 1201.1669097933332,99.59394961766967 1177.0164820437667,123.7443773672361 C 1152.8660542942002,99.59394961766967 1158.903661231592,78.46232533679903 1177.0164820437667,63.36830799332 Z" fill="url(#leaf27)" opacity="0.16" transform="rotate(156.9 1177.0 93.6)"/>
    <path d="M 404.52604077846263,26.234051032617657 C 424.609843644285,42.970553420802965 431.30444459955913,66.4016567642624 404.52604077846263,93.18006058535889 C 377.7476369573661,66.4016567642624 384.4422379126403,42.970553420802965 404.52604077846263,26.234051032617657 Z" fill="url(#leaf28)" opacity="0.24" transform="rotate(10.6 404.5 59.7)"/>
    <path d="M 1087.1180066579936,398.24185698821844 C 1114.655985269568,421.1901724978637 1123.8353114734261,453.31781421136714 1087.1180066579936,490.0351190267996 C 1050.4007018425611,453.31781421136714 1059.5800280464193,421.1901724978637 1087.1180066579936,398.24185698821844 Z" fill="url(#leaf29)" opacity="0.22" transform="rotate(28.1 1087.1 444.1)"/>
    <path d="M 97.97943202816076,587.3672214944293 C 131.5429999164151,615.3368614013078 142.73085587916657,654.4943572709379 97.97943202816076,699.2457811219438 C 53.22800817715494,654.4943572709379 64.4158641399064,615.3368614013078 97.97943202816076,587.3672214944293 Z" fill="url(#leaf0)" opacity="0.24" transform="rotate(265.3 98.0 643.3)"/>
    <path d="M 667.4056153262642,895.7970890627473 C 715.2047078638385,935.6296661773926 731.1377387096966,991.3952741378959 667.4056153262642,1055.1273975213282 C 603.6734919428318,991.3952741378959 619.6065227886899,935.6296661773926 667.4056153262642,895.7970890627473 Z" fill="url(#leaf1)" opacity="0.23" transform="rotate(116.9 667.4 975.5)"/>
    <path d="M 1734.5288669768263,307.81047449804794 C 1767.5684865868911,335.3434908397686 1778.5816931235795,373.8897137181775 1734.5288669768263,417.9425398649306 C 1690.476040830073,373.8897137181775 1701.4892473667614,335.3434908397686 1734.5288669768263,307.81047449804794 Z" fill="url(#leaf2)" opacity="0.20" transform="rotate(90.0 1734.5 362.9)"/>
    <path d="M 1416.8621221192427,782.0207284003965 C 1462.2872846200162,819.8750304843744 1477.4290054536075,872.8710534019435 1416.8621221192427,933.4379367363082 C 1356.295238784878,872.8710534019435 1371.4369596184692,819.8750304843744 1416.8621221192427,782.0207284003965 Z" fill="url(#leaf3)" opacity="0.15" transform="rotate(276.3 1416.9 857.7)"/>
    <path d="M 1038.3531042229451,487.2039085423905 C 1062.0288881528384,506.9337284839681 1069.9208161294694,534.5554764021769 1038.3531042229451,566.1231883087011 C 1006.7853923164209,534.5554764021769 1014.6773202930519,506.9337284839681 1038.3531042229451,487.2039085423905 Z" fill="url(#leaf4)" opacity="0.17" transform="rotate(173.2 1038.4 526.7)"/>
    <path d="M 310.32224093308616,887.8993513823044 C 346.73450318563926,918.2429032594321 358.8719239364903,960.7238758874106 310.32224093308616,1009.2735588908148 C 261.772557929682,960.7238758874106 273.9099786805331,918.2429032594321 310.32224093308616,887.8993513823044 Z" fill="url(#leaf5)" opacity="0.17" transform="rotate(333.4 310.3 948.6)"/>
    <path d="M 665.5334335787993,247.37015677124185 C 687.6100604906272,265.76734586443183 694.9689361279032,291.5234105948978 665.5334335787993,320.95891314400177 C 636.0979310296954,291.5234105948978 643.4568066669714,265.76734586443183 665.5334335787993,247.37015677124185 Z" fill="url(#leaf6)" opacity="0.18" transform="rotate(307.7 665.5 284.2)"/>
    <path d="M 1100.2612385834393,461.91390491057706 C 1134.7043755255474,490.6165190290004 1146.1854211729167,530.8001787947932 1100.2612385834393,576.7243613842707 C 1054.337055993962,530.8001787947932 1065.8181016413312,490.6165190290004 1100.2612385834393,461.91390491057706 Z" fill="url(#leaf7)" opacity="0.15" transform="rotate(116.8 1100.3 519.3)"/>
    <path d="M 75.01550308296247,169.81495225227192 C 110.665453338035,199.523244131499 122.54877008972585,241.11485276241697 75.01550308296247,288.64811976918037 C 27.482236076199094,241.11485276241697 39.36555282788994,199.523244131499 75.01550308296247,169.81495225227192 Z" fill="url(#leaf8)" opacity="0.17" transform="rotate(86.0 75.0 229.2)"/>
    <path d="M 1486.4390954866174,791.8744502142042 C 1524.8081125044678,823.8486310624129 1537.5977848437512,868.612484249905 1486.4390954866174,919.7711736070389 C 1435.2804061294835,868.612484249905 1448.070078468767,823.8486310624129 1486.4390954866174,791.8744502142042 Z" fill="url(#leaf9)" opacity="0.20" transform="rotate(15.5 1486.4 855.8)"/>
    <path d="M 1726.1162270829243,754.489805275051 C 1763.0335178236537,785.2542142256589 1775.3392814038968,828.3243867565099 1726.1162270829243,877.5474410774824 C 1676.8931727619517,828.3243867565099 1689.1989363421949,785.2542142256589 1726.1162270829243,754.489805275051 Z" fill="url(#leaf10)" opacity="0.17" transform="rotate(132.5 1726.1 816.0)"/>
    <path d="M 1734.0803732144127,867.1255809511867 C 1769.7105615407945,896.8174045565049 1781.5872909829216,938.3859576039503 1734.0803732144127,985.8928753724592 C 1686.5734554459038,938.3859576039503 1698.450184888031,896.8174045565049 1734.0803732144127,867.1255809511867 Z" fill="url(#leaf11)" opacity="0.23" transform="rotate(105.6 1734.1 926.5)"/>
    <path d="M 1207.3998380972325,51.59364800383257 C 1240.9470321533984,79.54964305063737 1252.1294301721202,118.68803611616411 1207.3998380972325,163.4176281910518 C 1162.6702460223448,118.68803611616411 1173.8526440410667,79.54964305063737 1207.3998380972325,51.59364800383257 Z" fill="url(#leaf12)" opacity="0.25" transform="rotate(9.7 1207.4 107.5)"/>
    <path d="M 775.5673895447931,684.0488521589045 C 814.0364543949484,716.1064062007006 826.8594760116669,760.9869818592151 775.5673895447931,812.2790683260889 C 724.2753030779193,760.9869818592151 737.0983246946378,716.1064062007006 775.5673895447931,684.0488521589045 Z" fill="url(#leaf13)" opacity="0.21" transform="rotate(324.2 775.6 748.2)"/>
    <path d="M 1288.6763062151417,437.8194647133696 C 1318.291806462041,462.4990482524524 1328.163639877674,497.0504652071682 1288.6763062151417,536.5377988697006 C 1249.1889725526094,497.0504652071682 1259.0608059682424,462.4990482524524 1288.6763062151417,437.8194647133696 Z" fill="url(#leaf14)" opacity="0.21" transform="rotate(281.0 1288.7 487.2)"/>
    <path d="M 977.4119008578642,493.66859223629024 C 1010.6490363071772,521.3662051107177 1021.7280814569482,560.1428631349162 977.4119008578642,604.4590437340001 C 933.0957202587803,560.1428631349162 944.1747654085513,521.3662051107177 977.4119008578642,493.66859223629024 Z" fill="url(#leaf15)" opacity="0.21" transform="rotate(249.0 977.4 549.1)"/>
    <path d="M 614.1621130106612,15.068834122507795 C 642.3825304120875,38.58584862369634 651.7893362125628,71.50966892536032 614.1621130106612,109.13689212726199 C 576.5348898087595,71.50966892536032 585.9416956092349,38.58584862369634 614.1621130106612,15.068834122507795 Z" fill="url(#leaf16)" opacity="0.24" transform="rotate(62.2 614.2 62.1)"/>
    <path d="M 849.0581980934705,237.56471401946962 C 870.9474666136787,255.80577111964305 878.243889453748,281.3432510598858 849.0581980934705,310.5289424201633 C 819.8725067331931,281.3432510598858 827.1689295732624,255.80577111964305 849.0581980934705,237.56471401946962 Z" fill="url(#leaf17)" opacity="0.21" transform="rotate(353.1 849.1 274.0)"/>
    <path d="M 1053.8122919500775,585.3343295642837 C 1076.3114864288955,604.083658296632 1083.811217921835,630.3327185219198 1053.8122919500775,660.3316444936772 C 1023.81336597832,630.3327185219198 1031.3130974712594,604.083658296632 1053.8122919500775,585.3343295642837 Z" fill="url(#leaf18)" opacity="0.16" transform="rotate(337.1 1053.8 622.8)"/>
    <path d="M 1340.7067269358593,492.4005921623018 C 1381.8731740751869,526.7059647784081 1395.5953231216295,574.733486440957 1340.7067269358593,629.6220826267272 C 1285.818130750089,574.733486440957 1299.5402797965316,526.7059647784081 1340.7067269358593,492.4005921623018 Z" fill="url(#leaf19)" opacity="0.19" transform="rotate(15.2 1340.7 561.0)"/>
    <path d="M 1302.088147357467,434.7647819108146 C 1342.7363397840218,468.6382755996101 1356.28573725954,516.0611667639238 1302.088147357467,570.2587566659967 C 1247.8905574553942,516.0611667639238 1261.4399549309123,468.6382755996101 1302.088147357467,434.7647819108146 Z" fill="url(#leaf20)" opacity="0.15" transform="rotate(180.2 1302.1 502.5)"/>
    <path d="M 1747.8145349432516,248.0745263728578 C 1782.9960989916408,277.3924964131822 1794.7232870077705,318.43765446963624 1747.8145349432516,365.3464065341552 C 1700.9057828787327,318.43765446963624 1712.6329708948624,277.3924964131822 1747.8145349432516,248.0745263728578 Z" fill="url(#leaf21)" opacity="0.17" transform="rotate(247.6 1747.8 306.7)"/>
    <path d="M 1586.554715108159,220.63027272391886 C 1605.8064144761488,236.67335553057717 1612.2236475988122,259.13367145989884 1586.554715108159,284.80260395055217 C 1560.8857826175056,259.13367145989884 1567.303015740169,236.67335553057717 1586.554715108159,220.63027272391886 Z" fill="url(#leaf22)" opacity="0.16" transform="rotate(174.5 1586.6 252.7)"/>
    <path d="M 1232.7708225803476,177.56953027507478 C 1278.9151537744785,216.02313960351717 1294.2965975058555,269.85819266333647 1232.7708225803476,331.38396758884426 C 1171.2450476548397,269.85819266333647 1186.6264913862167,216.02313960351717 1232.7708225803476,177.56953027507478 Z" fill="url(#leaf23)" opacity="0.17" transform="rotate(4.8 1232.8 254.5)"/>
    <path d="M 1579.1136727611645,179.7439086187038 C 1601.1349462638004,198.09496987090037 1608.475370764679,223.78645562397554 1579.1136727611645,253.14815362749005 C 1549.75197475765,223.78645562397554 1557.0923992585285,198.09496987090037 1579.1136727611645,179.7439086187038 Z" fill="url(#leaf24)" opacity="0.21" transform="rotate(229.9 1579.1 216.4)"/>
    <path d="M 1001.0542210500504,562.1058217497889 C 1020.9113260758343,578.6534092712755 1027.530361084429,601.8200318013567 1001.0542210500504,628.2961718357351 C 974.5780810156718,601.8200318013567 981.1971160242665,578.6534092712755 1001.0542210500504,562.1058217497889 Z" fill="url(#leaf25)" opacity="0.21" transform="rotate(10.5 1001.1 595.2)"/>
    <path d="M 815.2046707130614,762.6207198299014 C 846.9245125505313,789.0539213611263 857.4977931630212,826.0604035048411 815.2046707130614,868.353525954801 C 772.9115482631016,826.0604035048411 783.4848288755916,789.0539213611263 815.2046707130614,762.6207198299014 Z" fill="url(#leaf26)" opacity="0.15" transform="rotate(288.7 815.2 815.5)"/>
    <path d="M 1694.2472929420649,823.3034873230904 C 1730.2926546820624,853.3412887730885 1742.3077752620618,895.3942108030858 1694.2472929420649,943.4546931230827 C 1646.186810622068,895.3942108030858 1658.2019312020673,853.3412887730885 1694.2472929420649,823.3034873230904 Z" fill="url(#leaf27)" opacity="0.16" transform="rotate(67.0 1694.2 883.4)"/>
    <path d="M 1040.6683449952502,793.3062629229221 C 1067.85117663772,815.9586226249803 1076.9121205185434,847.6719262078619 1040.6683449952502,883.9157017311552 C 1004.4245694719569,847.6719262078619 1013.4855133527802,815.9586226249803 1040.6683449952502,793.3062629229221 Z" fill="url(#leaf28)" opacity="0.21" transform="rotate(246.2 1040.7 838.6)"/>
    <path d="M 718.7663627351357,193.04553082875952 C 753.4446790072589,221.94412772219556 765.0041177646333,262.40216337300603 718.7663627351357,308.63991840250367 C 672.528607705638,262.40216337300603 684.0880464630125,221.94412772219556 718.7663627351357,193.04553082875952 Z" fill="url(#leaf29)" opacity="0.23" transform="rotate(321.4 718.8 250.8)"/>
    <path d="M 1137.057234427119,567.8410701981622 C 1157.604818062196,584.9640565607264 1164.4540126072218,608.9362374683161 1137.057234427119,636.3330156484187 C 1109.6604562470163,608.9362374683161 1116.509650792042,584.9640565607264 1137.057234427119,567.8410701981622 Z" fill="url(#leaf0)" opacity="0.20" transform="rotate(336.6 1137.1 602.1)"/>
    <path d="M 496.0905656989988,810.0815438848017 C 518.3749484804993,828.6518628693854 525.8030760743327,854.6503094478026 496.0905656989988,884.3628198231365 C 466.37805532366485,854.6503094478026 473.8061829174983,828.6518628693854 496.0905656989988,810.0815438848017 Z" fill="url(#leaf1)" opacity="0.16" transform="rotate(76.8 496.1 847.2)"/>
    <path d="M 1062.844511789136,733.0822759968152 C 1084.0632792464037,750.7645822112048 1091.1362017321594,775.5198109113503 1062.844511789136,803.8115008543738 C 1034.5528218461127,775.5198109113503 1041.6257443318684,750.7645822112048 1062.844511789136,733.0822759968152 Z" fill="url(#leaf2)" opacity="0.24" transform="rotate(138.8 1062.8 768.4)"/>
    <path d="M 103.45030932238836,572.4747145698439 C 133.5659129358496,597.5710509143948 143.60444747367006,632.7059217967663 103.45030932238836,672.860059948048 C 63.29617117110668,632.7059217967663 73.3347057089271,597.5710509143948 103.45030932238836,572.4747145698439 Z" fill="url(#leaf3)" opacity="0.20" transform="rotate(159.0 103.5 622.7)"/>
    <path d="M 1749.950227368109,946.5329619537872 C 1769.621893151087,962.9260167729357 1776.1791150787465,985.8762935197435 1749.950227368109,1012.105181230381 C 1723.7213396574714,985.8762935197435 1730.2785615851308,962.9260167729357 1749.950227368109,946.5329619537872 Z" fill="url(#leaf4)" opacity="0.20" transform="rotate(124.6 1750.0 979.3)"/>
    <path d="M 1360.0850472498735,759.0790715340191 C 1399.3689961276718,791.8156955988511 1412.4636457536044,837.6469692896158 1360.0850472498735,890.0255677933468 C 1307.7064487461425,837.6469692896158 1320.801098372075,791.8156955988511 1360.0850472498735,759.0790715340191 Z" fill="url(#leaf5)" opacity="0.22" transform="rotate(14.0 1360.1 824.6)"/>
    <path d="M 717.7293619905621,430.6135568294238 C 741.7667665064289,450.6447272593128 749.7792346783845,478.6883658611574 717.7293619905621,510.7382385489798 C 685.6794893027397,478.6883658611574 693.6919574746953,450.6447272593128 717.7293619905621,430.6135568294238 Z" fill="url(#leaf6)" opacity="0.22" transform="rotate(311.8 717.7 470.7)"/>
    <path d="M 1366.4296682052984,296.04287987273557 C 1390.7703442200516,316.3267765516966 1398.8839028916361,344.724231902242 1366.4296682052984,377.1784665885796 C 1333.9754335189607,344.724231902242 1342.0889921905452,316.3267765516966 1366.4296682052984,296.04287987273557 Z" fill="url(#leaf7)" opacity="0.21" transform="rotate(260.4 1366.4 336.6)"/>
    <path d="M 365.2499034817977,565.8606927176937 C 388.4240945241817,585.1725185863471 396.14882487164306,612.2090748024618 365.2499034817977,643.1079961923073 C 334.3509820919523,612.2090748024618 342.0757124394136,585.1725185863471 365.2499034817977,565.8606927176937 Z" fill="url(#leaf8)" opacity="0.22" transform="rotate(323.5 365.2 604.5)"/>
    <path d="M 1063.085309382313,498.1573519086787 C 1083.209974473483,514.9279061513204 1089.9181961705397,538.4066820910186 1063.085309382313,565.2395688792453 C 1036.2524225940863,538.4066820910186 1042.960644291143,514.9279061513204 1063.085309382313,498.1573519086787 Z" fill="url(#leaf9)" opacity="0.17" transform="rotate(308.3 1063.1 531.7)"/>
    <path d="M 1321.6631817239017,478.6751384718495 C 1351.472407870352,503.516160260558 1361.4088165858354,538.2935907647501 1321.6631817239017,578.0392256266838 C 1281.917546861968,538.2935907647501 1291.8539555774514,503.516160260558 1321.6631817239017,478.6751384718495 Z" fill="url(#leaf10)" opacity="0.21" transform="rotate(188.0 1321.7 528.4)"/>
    <path d="M 851.0912250481867,856.9843624845081 C 889.1855892357429,888.7296659741382 901.883710631595,933.1730908596204 851.0912250481867,983.9655764430287 C 800.2987394647785,933.1730908596204 812.9968608606306,888.7296659741382 851.0912250481867,856.9843624845081 Z" fill="url(#leaf11)" opacity="0.20" transform="rotate(57.7 851.1 920.5)"/>
    <path d="M 1751.6615823578582,579.8605428403091 C 1779.377144630335,602.9568447340397 1788.615665387827,635.2916673852625 1751.6615823578582,672.2457504152314 C 1714.7074993278893,635.2916673852625 1723.9460200853814,602.9568447340397 1751.6615823578582,579.8605428403091 Z" fill="url(#leaf12)" opacity="0.16" transform="rotate(335.2 1751.7 626.1)"/>
    <path d="M 279.1355641304941,755.3524096064625 C 316.95378439813766,786.8675931628321 329.5598578206855,830.9888501417496 279.1355641304941,881.4131438319409 C 228.7112704403027,830.9888501417496 241.31734386285058,786.8675931628321 279.1355641304941,755.3524096064625 Z" fill="url(#leaf13)" opacity="0.21" transform="rotate(98.2 279.1 818.4)"/>
    <path d="M 699.6081816895968,111.10162181233454 C 726.9597910078732,133.8946295775649 736.0769941139654,165.80484044888738 699.6081816895968,202.2736528732559 C 663.1393692652282,165.80484044888738 672.2565723713204,133.8946295775649 699.6081816895968,111.10162181233454 Z" fill="url(#leaf14)" opacity="0.23" transform="rotate(168.1 699.6 156.7)"/>
    <path d="M 1244.3539315583753,297.9968800079884 C 1280.6066612961154,328.20748812277174 1292.6909045420286,370.5023394834684 1244.3539315583753,418.8393124671217 C 1196.016958574722,370.5023394834684 1208.1012018206352,328.20748812277174 1244.3539315583753,297.9968800079884 Z" fill="url(#leaf15)" opacity="0.20" transform="rotate(49.4 1244.4 358.4)"/>
    <path d="M 1145.5587911062858,839.363999420488 C 1165.4908631053268,855.9740594196888 1172.134887105007,879.22814341857 1145.5587911062858,905.8042394172912 C 1118.9826951075645,879.22814341857 1125.6267191072448,855.9740594196888 1145.5587911062858,839.363999420488 Z" fill="url(#leaf16)" opacity="0.16" transform="rotate(7.2 1145.6 872.6)"/>
    <path d="M 1136.889596303513,525.1853649920536 C 1167.0302953255848,550.3026141771136 1177.0771949996088,585.4667630361974 1136.889596303513,625.6543617322934 C 1096.701997607417,585.4667630361974 1106.748897281441,550.3026141771136 1136.889596303513,525.1853649920536 Z" fill="url(#leaf17)" opacity="0.21" transform="rotate(13.4 1136.9 575.4)"/>
    <path d="M 914.3011993749864,585.9120742179518 C 950.0871850295734,615.7337289301078 962.0158469144358,657.484045527126 914.3011993749864,705.1986930665755 C 866.586551835537,657.484045527126 878.5152137203993,615.7337289301078 914.3011993749864,585.9120742179518 Z" fill="url(#leaf18)" opacity="0.17" transform="rotate(24.6 914.3 645.6)"/>
    <path d="M 1058.2310206499901,85.68247286513193 C 1082.5388422527233,105.9389908674096 1090.6414494536343,134.29811607059835 1058.2310206499901,166.70854487424262 C 1025.820591846346,134.29811607059835 1033.923199047257,105.9389908674096 1058.2310206499901,85.68247286513193 Z" fill="url(#leaf19)" opacity="0.21" transform="rotate(166.3 1058.2 126.2)"/>
    <path d="M 1696.5029694971472,571.6655700843074 C 1739.2444379493081,607.2834604611082 1753.4915941000284,657.1485069886293 1696.5029694971472,714.1371315915104 C 1639.514344894266,657.1485069886293 1653.7615010449863,607.2834604611082 1696.5029694971472,571.6655700843074 Z" fill="url(#leaf20)" opacity="0.22" transform="rotate(146.1 1696.5 642.9)"/>
    <path d="M 907.8402190945244,121.05446704499877 C 941.2647015123116,148.9082023931548 952.4061956515741,187.90343188057324 907.8402190945244,232.46940843762286 C 863.2742425374747,187.90343188057324 874.4157366767372,148.9082023931548 907.8402190945244,121.05446704499877 Z" fill="url(#leaf21)" opacity="0.16" transform="rotate(210.8 907.8 176.8)"/>
    <path d="M 1096.1119982877683,905.693615869533 C 1138.178220747187,940.748801252382 1152.2002949003265,989.8260607883705 1096.1119982877683,1045.9143574009288 C 1040.02370167521,989.8260607883705 1054.0457758283496,940.748801252382 1096.1119982877683,905.693615869533 Z" fill="url(#leaf22)" opacity="0.18" transform="rotate(267.6 1096.1 975.8)"/>
    <path d="M 1390.0462663098106,749.5711080140279 C 1421.7852397716308,776.0202525655448 1432.3648975922374,813.0490549376683 1390.0462663098106,855.3676862200953 C 1347.7276350273837,813.0490549376683 1358.3072928479903,776.0202525655448 1390.0462663098106,749.5711080140279 Z" fill="url(#leaf23)" opacity="0.16" transform="rotate(146.9 1390.0 802.5)"/>
    <path d="M 1817.8066337826479,920.6394801877935 C 1861.9899985380202,957.4589508172705 1876.7177867898113,1009.0062096985384 1817.8066337826479,1067.9173627057019 C 1758.8954807754844,1009.0062096985384 1773.6232690272755,957.4589508172705 1817.8066337826479,920.6394801877935 Z" fill="url(#leaf24)" opacity="0.23" transform="rotate(184.8 1817.8 994.3)"/>
    <path d="M 1007.3468057476219,10.810973303001518 C 1041.9387352942015,39.637581258484545 1053.4693784763947,79.99483239616079 1007.3468057476219,126.11740512493363 C 961.2242330188491,79.99483239616079 972.7548762010423,39.637581258484545 1007.3468057476219,10.810973303001518 Z" fill="url(#leaf25)" opacity="0.25" transform="rotate(315.6 1007.3 68.5)"/>
    <path d="M 366.58077078614235,903.2875703044613 C 394.35663779482627,926.4341261450312 403.6152601310542,958.8393043218291 366.58077078614235,995.873793666741 C 329.5462814412305,958.8393043218291 338.80490377745843,926.4341261450312 366.58077078614235,903.2875703044613 Z" fill="url(#leaf26)" opacity="0.23" transform="rotate(57.9 366.6 949.6)"/>
    <path d="M 488.29769370081885,291.31451572460765 C 513.4877411573626,312.3062219383941 521.8844236428772,341.6946106376952 488.29769370081885,375.28134057975353 C 454.7109637587605,341.6946106376952 463.1076462442751,312.3062219383941 488.29769370081885,291.31451572460765 Z" fill="url(#leaf27)" opacity="0.25" transform="rotate(286.5 488.3 333.3)"/>
    <path d="M 1102.5290927302742,174.92434835039958 C 1139.0209725284117,205.33424818218074 1151.1849324611242,247.90810794667442 1102.5290927302742,296.5639476775243 C 1053.8732529994243,247.90810794667442 1066.0372129321368,205.33424818218074 1102.5290927302742,174.92434835039958 Z" fill="url(#leaf28)" opacity="0.22" transform="rotate(297.0 1102.5 235.7)"/>
    <path d="M 959.1288071971553,881.2662919224571 C 989.5995174803726,906.6585504918048 999.7564209081117,942.2077124888917 959.1288071971553,982.835326199848 C 918.5011934861989,942.2077124888917 928.658096913938,906.6585504918048 959.1288071971553,881.2662919224571 Z" fill="url(#leaf29)" opacity="0.17" transform="rotate(133.9 959.1 932.1)"/>
    <path d="M 680.4625330173726,475.4400156977116 C 726.7485317477651,514.011681306372 742.1771979912294,568.0120131584966 680.4625330173726,629.7266781323534 C 618.7478680435158,568.0120131584966 634.1765342869801,514.011681306372 680.4625330173726,475.4400156977116 Z" fill="url(#leaf0)" opacity="0.20" transform="rotate(332.7 680.5 552.6)"/>
    <path d="M 558.7298742726257,485.31814654852855 C 590.6666528019257,511.93212865627856 601.3122456450257,549.1917036071285 558.7298742726257,591.7740749795285 C 516.1475029002257,549.1917036071285 526.7930957433257,511.93212865627856 558.7298742726257,485.31814654852855 Z" fill="url(#leaf1)" opacity="0.24" transform="rotate(109.1 558.7 538.5)"/>
    <path d="M 1024.5329452109922,513.7528275007569 C 1046.9498151110288,532.433552417454 1054.4221050777078,558.5865673008301 1024.5329452109922,588.4757271675455 C 994.6437853442768,558.5865673008301 1002.1160753109557,532.433552417454 1024.5329452109922,513.7528275007569 Z" fill="url(#leaf2)" opacity="0.20" transform="rotate(89.4 1024.5 551.1)"/>
    <path d="M 521.8292351543964,740.2085956273681 C 564.9610787639451,776.1517986353253 579.338359967128,826.4722828464654 521.8292351543964,883.981407659197 C 464.3201103416649,826.4722828464654 478.6973915448478,776.1517986353253 521.8292351543964,740.2085956273681 Z" fill="url(#leaf3)" opacity="0.15" transform="rotate(335.5 521.8 812.1)"/>
    <path d="M 1656.0295093074521,320.6786944382372 C 1701.5439202262355,358.60737020389007 1716.7153905324967,411.7075162758041 1656.0295093074521,472.3933975008487 C 1595.3436280824076,411.7075162758041 1610.5150983886688,358.60737020389007 1656.0295093074521,320.6786944382372 Z" fill="url(#leaf4)" opacity="0.20" transform="rotate(164.2 1656.0 396.5)"/>
    <path d="M 989.3436672293496,105.7046284171219 C 1009.1921062667568,122.24499428162787 1015.8082526125592,145.4015064919362 989.3436672293496,171.86609187514574 C 962.8790818461401,145.4015064919362 969.4952281919425,122.24499428162787 989.3436672293496,105.7046284171219 Z" fill="url(#leaf5)" opacity="0.17" transform="rotate(244.4 989.3 138.8)"/>
    <path d="M 477.0570211886242,424.1453573381973 C 517.6589391342219,457.9802889595287 531.1929117827544,505.34919322939265 477.0570211886242,559.4850838235229 C 422.921130594494,505.34919322939265 436.45510324302654,457.9802889595287 477.0570211886242,424.1453573381973 Z" fill="url(#leaf6)" opacity="0.20" transform="rotate(66.5 477.1 491.8)"/>
    <path d="M 347.61991421935824,185.33650730308858 C 370.1298125873866,204.09475594311218 377.633112043396,230.35630403914524 347.61991421935824,260.369501863183 C 317.60671639532046,230.35630403914524 325.1100158513299,204.09475594311218 347.61991421935824,185.33650730308858 Z" fill="url(#leaf7)" opacity="0.20" transform="rotate(23.3 347.6 222.9)"/>
    <path d="M 796.8034832968887,489.89092547998905 C 819.2135644895312,508.56599314052454 826.6835915537454,534.7110878652742 796.8034832968887,564.591196122131 C 766.9233750400319,534.7110878652742 774.3934021042461,508.56599314052454 796.8034832968887,489.89092547998905 Z" fill="url(#leaf8)" opacity="0.24" transform="rotate(62.8 796.8 527.2)"/>
    <path d="M 1312.8777152244131,77.68075419880572 C 1339.781782207386,100.10081001794974 1348.7498045350435,131.4888881647514 1312.8777152244131,167.36097747538184 C 1277.0056259137828,131.4888881647514 1285.9736482414403,100.10081001794974 1312.8777152244131,77.68075419880572 Z" fill="url(#leaf9)" opacity="0.24" transform="rotate(335.7 1312.9 122.5)"/>
    <path d="M 513.0790153688603,299.152264018456 C 554.4521233310772,333.62985398697015 568.2431593184829,381.89847994288994 513.0790153688603,437.06262389251253 C 457.91487141923767,381.89847994288994 471.7059074066433,333.62985398697015 513.0790153688603,299.152264018456 Z" fill="url(#leaf10)" opacity="0.15" transform="rotate(157.0 513.1 368.1)"/>
    <path d="M 623.3734859868849,42.44832112371766 C 652.2942975445051,66.54899742173444 661.9345680637118,100.28994423895791 623.3734859868849,138.85102631578474 C 584.812403910058,100.28994423895791 594.4526744292648,66.54899742173444 623.3734859868849,42.44832112371766 Z" fill="url(#leaf11)" opacity="0.17" transform="rotate(53.8 623.4 90.6)"/>
    <path d="M 1274.2701797657433,502.11643809145374 C 1295.4805959779078,519.7917849349242 1302.550734715296,544.5372705157827 1274.2701797657433,572.8178254653353 C 1245.9896248161906,544.5372705157827 1253.0597635535787,519.7917849349242 1274.2701797657433,502.11643809145374 Z" fill="url(#leaf12)" opacity="0.19" transform="rotate(337.7 1274.3 537.5)"/>
    <path d="M 1802.9504628688646,745.0224304356592 C 1834.1399415000433,771.0136626283082 1844.536434377103,807.4013876980167 1802.9504628688646,848.9873592062551 C 1761.3644913606263,807.4013876980167 1771.760984237686,771.0136626283082 1802.9504628688646,745.0224304356592 Z" fill="url(#leaf13)" opacity="0.23" transform="rotate(171.6 1803.0 797.0)"/>
    <path d="M 917.3426718345293,829.8498669724711 C 963.2570537994317,868.1118519432231 978.5618477877324,921.6786309022759 917.3426718345293,982.8978068554791 C 856.1234958813261,921.6786309022759 871.4282898696268,868.1118519432231 917.3426718345293,829.8498669724711 Z" fill="url(#leaf14)" opacity="0.24" transform="rotate(335.0 917.3 906.4)"/>
    <path d="M 111.4901976441144,952.314432361507 C 133.70737846538194,970.8287497125632 141.11310540580445,996.748794004042 111.4901976441144,1026.371701765732 C 81.86728988242434,996.748794004042 89.27301682284687,970.8287497125632 111.4901976441144,952.314432361507 Z" fill="url(#leaf15)" opacity="0.18" transform="rotate(352.6 111.5 989.3)"/>
    <path d="M 792.5250824986284,425.4062477588143 C 831.5594641247804,457.93489911394096 844.570924666831,503.4750110111183 792.5250824986284,555.520853179321 C 740.4792403304258,503.4750110111183 753.4907008724764,457.93489911394096 792.5250824986284,425.4062477588143 Z" fill="url(#leaf16)" opacity="0.25" transform="rotate(337.7 792.5 490.5)"/>
    <path d="M 1858.8977333932503,838.7568072501058 C 1881.8595162975507,857.8916263370228 1889.5134439323176,884.6803730587067 1858.8977333932503,915.296083597774 C 1828.282022854183,884.6803730587067 1835.9359504889499,857.8916263370228 1858.8977333932503,838.7568072501058 Z" fill="url(#leaf17)" opacity="0.20" transform="rotate(281.4 1858.9 877.0)"/>
    <path d="M 702.5617455924646,865.6847425189611 C 728.947071497495,887.6725141064863 737.7421801325052,918.4553943290218 702.5617455924646,953.6358288690623 C 667.381311052424,918.4553943290218 676.1764196874342,887.6725141064863 702.5617455924646,865.6847425189611 Z" fill="url(#leaf18)" opacity="0.18" transform="rotate(267.9 702.6 909.7)"/>
    <path d="M 1139.3388815362027,278.4987983568319 C 1157.9911751422057,294.04237636183444 1164.2086063442068,315.80338556883805 1139.3388815362027,340.67311037684215 C 1114.4691567281986,315.80338556883805 1120.6865879301997,294.04237636183444 1139.3388815362027,278.4987983568319 Z" fill="url(#leaf19)" opacity="0.25" transform="rotate(135.0 1139.3 309.6)"/>
    <path d="M 977.8556134530793,127.30891868445025 C 1018.7961198459532,161.4260073451785 1032.4429553102445,209.1899314701981 977.8556134530793,263.77727332736333 C 923.268271595914,209.1899314701981 936.9151070602054,161.4260073451785 977.8556134530793,127.30891868445025 Z" fill="url(#leaf20)" opacity="0.17" transform="rotate(227.2 977.9 195.5)"/>
    <path d="M 510.24795461020693,777.9103762804986 C 541.7490606991546,804.1612980212882 552.2494293954704,840.9125884583938 510.24795461020693,882.9140632436573 C 468.2464798249434,840.9125884583938 478.74684852125927,804.1612980212882 510.24795461020693,777.9103762804986 Z" fill="url(#leaf21)" opacity="0.19" transform="rotate(308.7 510.2 830.4)"/>
    <path d="M 649.709851897288,746.4823953485908 C 694.6138448028025,783.9023894365197 709.5818424379742,836.29038115962 649.709851897288,896.1623717003062 C 589.8378613566018,836.29038115962 604.8058589917734,783.9023894365197 649.709851897288,746.4823953485908 Z" fill="url(#leaf22)" opacity="0.25" transform="rotate(279.3 649.7 821.3)"/>
    <path d="M 1362.1633434852201,35.18951792093395 C 1409.0710508236625,74.27927403630252 1424.70695326981,129.00493259781854 1362.1633434852201,191.54854238240824 C 1299.6197337006304,129.00493259781854 1315.2556361467778,74.27927403630252 1362.1633434852201,35.18951792093395 Z" fill="url(#leaf23)" opacity="0.18" transform="rotate(247.9 1362.2 113.4)"/>
    <path d="M 719.09701238467,839.9097747545553 C 737.173560098571,854.9735645161394 743.1990760032046,876.0628701823571 719.09701238467,900.1649338008916 C 694.9949487661355,876.0628701823571 701.0204646707691,854.9735645161394 719.09701238467,839.9097747545553 Z" fill="url(#leaf24)" opacity="0.16" transform="rotate(110.7 719.1 870.0)"/>
    <path d="M 401.30628301313175,903.6831706017526 C 448.8691196896845,943.3188678322132 464.72339858186876,998.808843954858 401.30628301313175,1062.225959523595 C 337.88916744439473,998.808843954858 353.743446336579,943.3188678322132 401.30628301313175,903.6831706017526 Z" fill="url(#leaf25)" opacity="0.24" transform="rotate(295.3 401.3 983.0)"/>
    <path d="M 269.5099231732713,887.6121837634574 C 317.25898574108294,927.4030692366338 333.17533993035346,983.1103088990807 269.5099231732713,1046.7757256561629 C 205.84450641618918,983.1103088990807 221.7608606054597,927.4030692366338 269.5099231732713,887.6121837634574 Z" fill="url(#leaf26)" opacity="0.20" transform="rotate(329.7 269.5 967.2)"/>
    <path d="M 1746.0263398637292,639.160647505071 C 1785.0164767813103,671.6524282697219 1798.0131890871708,717.1409213402331 1746.0263398637292,769.1277705636746 C 1694.0394906402876,717.1409213402331 1707.036202946148,671.6524282697219 1746.0263398637292,639.160647505071 Z" fill="url(#leaf27)" opacity="0.16" transform="rotate(5.6 1746.0 704.1)"/>
    <path d="M 1145.726309749309,775.3256459732148 C 1191.2504514366851,813.2624307126949 1206.4251653324773,866.3739293479671 1145.726309749309,927.0727849311353 C 1085.0274541661406,866.3739293479671 1100.2021680619328,813.2624307126949 1145.726309749309,775.3256459732148 Z" fill="url(#leaf28)" opacity="0.22" transform="rotate(175.1 1145.7 851.2)"/>
    <path d="M 1051.0509277853002,558.2652064877644 C 1083.8622454810002,585.6079712341809 1094.7993513795666,623.8878418791641 1051.0509277853002,667.6362654734304 C 1007.3025041910338,623.8878418791641 1018.2396100896004,585.6079712341809 1051.0509277853002,558.2652064877644 Z" fill="url(#leaf29)" opacity="0.16" transform="rotate(193.2 1051.1 613.0)"/>
    <path d="M 1320.4879446094328,484.0872927889494 C 1340.4965909150703,500.76116471031406 1347.1661396836162,524.1045854002246 1320.4879446094328,550.782780474408 C 1293.8097495352495,524.1045854002246 1300.4792983037953,500.76116471031406 1320.4879446094328,484.0872927889494 Z" fill="url(#leaf0)" opacity="0.15" transform="rotate(128.7 1320.5 517.4)"/>
    <path d="M 593.5135560519601,597.7496777454784 C 626.6776864864448,625.386453107549 637.7323966312731,664.0779386144478 593.5135560519601,708.2967791937607 C 549.2947154726471,664.0779386144478 560.3494256174754,625.386453107549 593.5135560519601,597.7496777454784 Z" fill="url(#leaf1)" opacity="0.17" transform="rotate(275.8 593.5 653.0)"/>
    <path d="M 189.50542180434883,773.8598633389449 C 231.63200514320982,808.9653494546624 245.67419958949682,858.1130300166669 189.50542180434883,914.2818078018149 C 133.33664401920083,858.1130300166669 147.37883846548783,808.9653494546624 189.50542180434883,773.8598633389449 Z" fill="url(#leaf2)" opacity="0.19" transform="rotate(79.8 189.5 844.1)"/>
    <path d="M 117.00779038482324,809.538662607797 C 154.02133382043223,840.3832821374713 166.3591816323019,883.565749479015 117.00779038482324,932.9171407264937 C 67.65639913734458,883.565749479015 79.99424694921424,840.3832821374713 117.00779038482324,809.538662607797 Z" fill="url(#leaf3)" opacity="0.18" transform="rotate(127.3 117.0 871.2)"/>
    <path d="M 1364.3110831144359,541.7991744593535 C 1408.6254886550767,578.7278457432208 1423.3969571686237,630.4279855406351 1364.3110831144359,689.5138595948229 C 1305.225209060248,630.4279855406351 1319.996677573795,578.7278457432208 1364.3110831144359,541.7991744593535 Z" fill="url(#leaf4)" opacity="0.25" transform="rotate(230.8 1364.3 615.7)"/>
    <path d="M 886.080012406009,741.5860274087041 C 925.0271455714987,774.0419717132789 938.0095232933287,819.4802937396837 886.080012406009,871.4098046270034 C 834.1505015186893,819.4802937396837 847.1328792405193,774.0419717132789 886.080012406009,741.5860274087041 Z" fill="url(#leaf5)" opacity="0.18" transform="rotate(7.0 886.1 806.5)"/>
    <path d="M 586.6905026487956,235.53476021244822 C 632.6049968317394,273.79683869823475 647.9098282260541,327.36374857833596 586.6905026487956,388.58307415559443 C 525.4711770715371,327.36374857833596 540.7760084658518,273.79683869823475 586.6905026487956,235.53476021244822 Z" fill="url(#leaf6)" opacity="0.24" transform="rotate(216.7 586.7 312.1)"/>
    <path d="M 814.2102654163564,57.24269045465482 C 847.0425472547774,84.60292532000575 857.9866412009179,122.90725413149706 814.2102654163564,166.68362991605855 C 770.4338896317948,122.90725413149706 781.3779835779353,84.60292532000575 814.2102654163564,57.24269045465482 Z" fill="url(#leaf7)" opacity="0.24" transform="rotate(100.8 814.2 112.0)"/>
    <path d="M 1075.2684892904615,698.5536160197362 C 1104.4675029668037,722.8861274166879 1114.2005075255845,756.9516433724206 1075.2684892904615,795.8836616075434 C 1036.3364710553385,756.9516433724206 1046.0694756141193,722.8861274166879 1075.2684892904615,698.5536160197362 Z" fill="url(#leaf8)" opacity="0.16" transform="rotate(222.5 1075.3 747.2)"/>
    <path d="M 663.4220168330837,297.6244676767588 C 704.9237890820052,332.2092778841934 718.757713164979,380.6280121746018 663.4220168330837,435.9637085064971 C 608.0863205011884,380.6280121746018 621.9202445841622,332.2092778841934 663.4220168330837,297.6244676767588 Z" fill="url(#leaf9)" opacity="0.18" transform="rotate(307.6 663.4 366.8)"/>
    <path d="M 364.98203184249246,306.6055579488167 C 407.613824948747,342.1320522040288 421.8244226508318,391.8691441613257 364.98203184249246,448.7115349696651 C 308.1396410341531,391.8691441613257 322.35023873623794,342.1320522040288 364.98203184249246,306.6055579488167 Z" fill="url(#leaf10)" opacity="0.17" transform="rotate(109.9 365.0 377.7)"/>
    <path d="M 381.15851275829664,46.92992913341723 C 425.0861211570986,83.53626946575218 439.7286572900326,134.7851459310211 381.15851275829664,193.35529046275704 C 322.5883682265607,134.7851459310211 337.2309043594947,83.53626946575218 381.15851275829664,46.92992913341723 Z" fill="url(#leaf11)" opacity="0.15" transform="rotate(51.6 381.2 120.1)"/>
    <path d="M 1834.6720598427423,372.75658261617036 C 1870.9963976701713,403.0268641390278 1883.1045102793141,445.4052582710282 1834.6720598427423,493.8377087076001 C 1786.2396094061705,445.4052582710282 1798.3477220153134,403.0268641390278 1834.6720598427423,372.75658261617036 Z" fill="url(#leaf12)" opacity="0.16" transform="rotate(256.0 1834.7 433.3)"/>
    <path d="M 340.18313638806796,493.4549174487443 C 368.7879459508729,517.2922587510817 378.3228824718078,550.6645365743541 340.18313638806796,588.8042826580939 C 302.0433903043281,550.6645365743541 311.57832682526305,517.2922587510817 340.18313638806796,493.4549174487443 Z" fill="url(#leaf13)" opacity="0.21" transform="rotate(6.8 340.2 541.1)"/>
    <path d="M 379.85527175620643,654.8455241831823 C 404.22884629237575,675.1568362966567 412.3533711377655,703.5926732555208 379.85527175620643,736.0907726370799 C 347.35717237464735,703.5926732555208 355.4816972200371,675.1568362966567 379.85527175620643,654.8455241831823 Z" fill="url(#leaf14)" opacity="0.24" transform="rotate(107.3 379.9 695.5)"/>
    <path d="M 1490.1223335318725,335.2923879259723 C 1510.8265159371838,352.54587326373166 1517.7279100722874,376.70075273659467 1490.1223335318725,404.3063292770096 C 1462.5167569914577,376.70075273659467 1469.4181511265613,352.54587326373166 1490.1223335318725,335.2923879259723 Z" fill="url(#leaf15)" opacity="0.18" transform="rotate(27.2 1490.1 369.8)"/>
    <path d="M 183.37077765498486,519.2985044590965 C 225.23567886093576,554.1859221307224 239.19064592958608,603.0283068709983 183.37077765498486,658.8481751455996 C 127.55090938038364,603.0283068709983 141.50587644903396,554.1859221307224 183.37077765498486,519.2985044590965 Z" fill="url(#leaf16)" opacity="0.16" transform="rotate(187.0 183.4 589.1)"/>
    <path d="M 1582.6161601663891,457.35360028379125 C 1623.204515995085,491.17723014103785 1636.7339679379836,538.5303119411831 1582.6161601663891,592.6481197127777 C 1528.4983523947947,538.5303119411831 1542.0278043376932,491.17723014103785 1582.6161601663891,457.35360028379125 Z" fill="url(#leaf17)" opacity="0.21" transform="rotate(227.2 1582.6 525.0)"/>
    <path d="M 1734.1332063073046,851.1188267047565 C 1764.1196795119552,876.1075543752986 1774.115170580172,911.0917731140577 1734.1332063073046,951.073737386925 C 1694.1512420344372,911.0917731140577 1704.146733102654,876.1075543752986 1734.1332063073046,851.1188267047565 Z" fill="url(#leaf18)" opacity="0.24" transform="rotate(25.3 1734.1 901.1)"/>
    <path d="M 890.7858376932585,127.07100462867444 C 931.943793588734,161.3693012082374 945.6631122205592,209.38691641962558 890.7858376932585,264.2641909469263 C 835.9085631659577,209.38691641962558 849.627881797783,161.3693012082374 890.7858376932585,127.07100462867444 Z" fill="url(#leaf19)" opacity="0.22" transform="rotate(105.6 890.8 195.7)"/>
    </g>

    <!-- Text with SOLID fill only (ThorVG compatible) -->
    <text x="812.1" y="887.1"
          font-family="Arial, Helvetica, sans-serif"
          font-size="1080px"
          font-weight="bold"
          fill="#96E6A1"
          text-anchor="middle"
          transform="rotate(-2.6 960.0 540.0)">
      6
    </text>
  </g>

  <!-- Frame counter -->
  <text x="960.0" y="1050.0"
        font-family="monospace"
        font-size="24px"
        fill="#FFFFFF"
        text-anchor="middle"
        opacity="0.7">
    Frame 00068 - Compatible
  </text>
</svg>