<?xml version="1.0" encoding="UTF-8"?>
<svg xmlns="http://www.w3.org/2000/svg" viewBox="0 0 1920 1080" width="1920" height="1080">
  <defs>
    <linearGradient id="bgGrad" x1="0%" y1="0%" x2="100%" y2="100%">
      <stop offset="0%" stop-color="#FF69B4"/>
      <stop offset="100%" stop-color="#FFE66D"/>
    </linearGradient>
    <clipPath id="complexClip"><polygon points="1627.2,540.0 1549.3,581.9 1421.0,606.6 1326.3,621.6 1444.2,689.7 1288.7,674.3 1328.5,734.7 1210.5,710.4 1272.1,816.6 1125.7,738.1 1117.0,811.8 1076.3,882.8 993.0,835.4 926.4,840.5 855.5,848.2 795.7,824.5 771.6,765.2 670.2,796.9 541.0,824.9 571.7,745.1 634.6,673.0 373.3,721.4 510.3,640.2 502.1,606.1 390.7,580.5 494.8,540.0 404.6,500.5 360.0,453.3 359.9,406.4 467.0,387.5 541.0,368.8 546.1,321.4 617.8,307.3 631.0,248.4 792.0,339.2 825.9,307.9 849.5,214.0 925.8,234.5 996.7,211.5 1078.9,189.5 1119.8,263.4 1198.9,254.4 1225.3,304.8 1357.6,269.6 1427.8,292.9 1437.1,345.0 1331.4,425.2 1356.6,451.7 1334.6,485.9 1568.9,496.7"/></clipPath>
    <radialGradient id="leaf0" cx="50%" cy="50%" r="70%">
      <stop offset="0%" stop-color="#FF69B4"/>
      <stop offset="50%" stop-color="#FF6B6B"/>
      <stop offset="100%" stop-color="#FF1493"/>
    </radialGradient>
    <radialGradient id="leaf1" cx="50%" cy="50%" r="70%">
      <stop offset="0%" stop-color="#9370DB"/>
      <stop offset="50%" stop-color="#00FA9A"/>
      <stop offset="100%" stop-color="#4ECDC4"/>
    </radialGradient>
    <radialGradient id="leaf2" cx="50%" cy="50%" r="70%">
      <stop offset="0%" stop-color="#00CED1"/>
      <stop offset="50%" stop-color="#7B68EE"/>
      <stop offset="100%" stop-color="#32CD32"/>
    </radialGradient>
    <radialGradient id="leaf3" cx="50%" cy="50%" r="70%">
      <stop offset="0%" stop-color="#FFD700"/>
      <stop offset="50%" stop-color="#FFE66D"/>
      <stop offset="100%" stop-color="#45B7D1"/>
    </radialGradient>
    <radialGradient id="leaf4" cx="50%" cy="50%" r="70%">
      <stop offset="0%" stop-color="#00FA9A"/>
      <stop offset="50%" stop-color="#FF6B6B"/>
      <stop offset="100%" stop-color="#9370DB"/>
    </radialGradient>
    <radialGradient id="leaf5" cx="50%" cy="50%" r="70%">
      <stop offset="0%" stop-color="#96E6A1"/>
      <stop offset="50%" stop-color="#4ECDC4"/>
      <stop offset="100%" stop-color="#45B7D1"/>
    </radialGradient>
    <radialGradient id="leaf6" cx="50%" cy="50%" r="70%">
      <stop offset="0%" stop-color="#DC143C"/>
      <stop offset="50%" stop-color="#FF69B4"/>
      <stop offset="100%" stop-color="#00FA9A"/>
    </radialGradient>
    <radialGradient id="leaf7" cx="50%" cy="50%" r="70%">
      <stop offset="0%" stop-color="#9370DB"/>
      <stop offset="50%" stop-color="#FFD700"/>
      <stop offset="100%" stop-color="#FFE66D"/>
    </radialGradient>
    <radialGradient id="leaf8" cx="50%" cy="50%" r="70%">
      <stop offset="0%" stop-color="#4ECDC4"/>
      <stop offset="50%" stop-color="#FFE66D"/>
      <stop offset="100%" stop-color="#FFD700"/>
    </radialGradient>
    <radialGradient id="leaf9" cx="50%" cy="50%" r="70%">
      <stop offset="0%" stop-color="#9370DB"/>
      <stop offset="50%" stop-color="#00CED1"/>
      <stop offset="100%" stop-color="#4ECDC4"/>
    </radialGradient>
    <radialGradient id="leaf10" cx="50%" cy="50%" r="70%">
      <stop offset="0%" stop-color="#FFD700"/>
      <stop offset="50%" stop-color="#45B7D1"/>
      <stop offset="100%" stop-color="#9370DB"/>
    </radialGradient>
    <radialGradient id="leaf11" cx="50%" cy="50%" r="70%">
      <stop offset="0%" stop-color="#4ECDC4"/>
      <stop offset="50%" stop-color="#FF4500"/>
      <stop offset="100%" stop-color="#9370DB"/>
    </radialGradient>
    <radialGradient id="leaf12" cx="50%" cy="50%" r="70%">
      <stop offset="0%" stop-color="#FFD700"/>
      <stop offset="50%" stop-color="#7B68EE"/>
      <stop offset="100%" stop-color="#32CD32"/>
    </radialGradient>
    <radialGradient id="leaf13" cx="50%" cy="50%" r="70%">
      <stop offset="0%" stop-color="#FF69B4"/>
      <stop offset="50%" stop-color="#00CED1"/>
      <stop offset="100%" stop-color="#45B7D1"/>
    </radialGradient>
    <radialGradient id="leaf14" cx="50%" cy="50%" r="70%">
      <stop offset="0%" stop-color="#32CD32"/>
      <stop offset="50%" stop-color="#FFE66D"/>
      <stop offset="100%" stop-color="#96E6A1"/>
    </radialGradient>
    <radialGradient id="leaf15" cx="50%" cy="50%" r="70%">
      <stop offset="0%" stop-color="#45B7D1"/>
      <stop offset="50%" stop-color="#00FA9A"/>
      <stop offset="100%" stop-color="#00CED1"/>
    </radialGradient>
    <radialGradient id="leaf16" cx="50%" cy="50%" r="70%">
      <stop offset="0%" stop-color="#FF1493"/>
      <stop offset="50%" stop-color="#7B68EE"/>
      <stop offset="100%" stop-color="#FF69B4"/>
    </radialGradient>
    <radialGradient id="leaf17" cx="50%" cy="50%" r="70%">
      <stop offset="0%" stop-color="#DC143C"/>
      <stop offset="50%" stop-color="#FF4500"/>
      <stop offset="100%" stop-color="#9370DB"/>
    </radialGradient>
    <radialGradient id="leaf18" cx="50%" cy="50%" r="70%">
      <stop offset="0%" stop-color="#7B68EE"/>
      <stop offset="50%" stop-color="#FF4500"/>
      <stop offset="100%" stop-color="#FF69B4"/>
    </radialGradient>
    <radialGradient id="leaf19" cx="50%" cy="50%" r="70%">
      <stop offset="0%" stop-color="#FF4500"/>
      <stop offset="50%" stop-color="#FF6B6B"/>
      <stop offset="100%" stop-color="#9370DB"/>
    </radialGradient>
    <radialGradient id="leaf20" cx="50%" cy="50%" r="70%">
      <stop offset="0%" stop-color="#FFD700"/>
      <stop offset="50%" stop-color="#00CED1"/>
      <stop offset="100%" stop-color="#32CD32"/>
    </radialGradient>
    <radialGradient id="leaf21" cx="50%" cy="50%" r="70%">
      <stop offset="0%" stop-color="#DC143C"/>
      <stop offset="50%" stop-color="#FF1493"/>
      <stop offset="100%" stop-color="#00CED1"/>
    </radialGradient>
    <radialGradient id="leaf22" cx="50%" cy="50%" r="70%">
      <stop offset="0%" stop-color="#7B68EE"/>
      <stop offset="50%" stop-color="#9370DB"/>
      <stop offset="100%" stop-color="#FFD700"/>
    </radialGradient>
    <radialGradient id="leaf23" cx="50%" cy="50%" r="70%">
      <stop offset="0%" stop-color="#DC143C"/>
      <stop offset="50%" stop-color="#7B68EE"/>
      <stop offset="100%" stop-color="#FFD700"/>
    </radialGradient>
    <radialGradient id="leaf24" cx="50%" cy="50%" r="70%">
      <stop offset="0%" stop-color="#32CD32"/>
      <stop offset="50%" stop-color="#FFE66D"/>
      <stop offset="100%" stop-color="#FFD700"/>
    </radialGradient>
    <radialGradient id="leaf25" cx="50%" cy="50%" r="70%">
      <stop offset="0%" stop-color="#FF6B6B"/>
      <stop offset="50%" stop-color="#FF4500"/>
      <stop offset="100%" stop-color="#4ECDC4"/>
    </radialGradient>
    <radialGradient id="leaf26" cx="50%" cy="50%" r="70%">
      <stop offset="0%" stop-color="#FF6B6B"/>
      <stop offset="50%" stop-color="#32CD32"/>
      <stop offset="100%" stop-color="#00CED1"/>
    </radialGradient>
    <radialGradient id="leaf27" cx="50%" cy="50%" r="70%">
      <stop offset="0%" stop-color="#FFD700"/>
      <stop offset="50%" stop-color="#FF1493"/>
      <stop offset="100%" stop-color="#00FA9A"/>
    </radialGradient>
    <radialGradient id="leaf28" cx="50%" cy="50%" r="70%">
      <stop offset="0%" stop-color="#7B68EE"/>
      <stop offset="50%" stop-color="#FF1493"/>
      <stop offset="100%" stop-color="#DC143C"/>
    </radialGradient>
    <radialGradient id="leaf29" cx="50%" cy="50%" r="70%">
      <stop offset="0%" stop-color="#FF69B4"/>
      <stop offset="50%" stop-color="#00FA9A"/>
      <stop offset="100%" stop-color="#32CD32"/>
    </radialGradient>
  </defs>

  <!-- Scaled content -->
  <g transform="translate(960.0,540.0) scale(3.0) translate(-960.0,-540.0)">
    <!-- Background -->
    <rect width="1920" height="1080" fill="url(#bgGrad)"/>
    
    <!-- Leaves with clip-path -->
    <g clip-path="url(#complexClip)">
    <path d="M 1118.1622991449528,379.74765006560176 C 1163.2611108262322,417.3299931333345 1178.2940480533252,469.94527342816036 1118.1622991449528,530.0770223365328 C 1058.0305502365804,469.94527342816036 1073.0634874636735,417.3299931333345 1118.1622991449528,379.74765006560176 Z" fill="url(#leaf0)" opacity="0.17" transform="rotate(281.7 1118.2 454.9)"/>
    <path d="M 873.0957941549134,490.44556271509 C 913.9061336158676,524.4541789325517 927.5095801028523,572.0662416369983 873.0957941549134,626.4800275849371 C 818.6820082069745,572.0662416369983 832.2854546939592,524.4541789325517 873.0957941549134,490.44556271509 Z" fill="url(#leaf1)" opacity="0.22" transform="rotate(296.1 873.1 558.5)"/>
    <path d="M 1446.0198887628508,306.5267813116972 C 1483.6081954780016,337.85037024098966 1496.1376310497187,381.70339474199903 1446.0198887628508,431.8211370288669 C 1395.9021464759828,381.70339474199903 1408.4315820477,337.85037024098966 1446.0198887628508,306.5267813116972 Z" fill="url(#leaf2)" opacity="0.17" transform="rotate(264.3 1446.0 369.2)"/>
    <path d="M 602.5990532905807,917.1963497897357 C 649.0148792105613,955.8762047230528 664.4868211838881,1010.0280016296966 602.5990532905807,1071.915769523004 C 540.7112853972734,1010.0280016296966 556.1832273706002,955.8762047230528 602.5990532905807,917.1963497897357 Z" fill="url(#leaf3)" opacity="0.23" transform="rotate(346.7 602.6 994.6)"/>
    <path d="M 1391.6216629957773,261.8453961047881 C 1417.0775270437557,283.0586161447701 1425.5628150597486,312.7571242007449 1391.6216629957773,346.69827626471607 C 1357.680510931806,312.7571242007449 1366.165798947799,283.0586161447701 1391.6216629957773,261.8453961047881 Z" fill="url(#leaf4)" opacity="0.25" transform="rotate(277.9 1391.6 304.3)"/>
    <path d="M 84.6260331040377,390.1363169396515 C 108.13522277641002,409.7273083332951 115.97161933386747,437.15469628439615 84.6260331040377,468.50028251422594 C 53.28044687420794,437.15469628439615 61.11684343166539,409.7273083332951 84.6260331040377,390.1363169396515 Z" fill="url(#leaf5)" opacity="0.21" transform="rotate(40.4 84.6 429.3)"/>
    <path d="M 807.5409905951543,367.72750509264915 C 840.0850932449281,394.8475906341273 850.9331274615193,432.8157103921967 807.5409905951543,476.20784725856174 C 764.1488537287893,432.8157103921967 774.9968879453805,394.8475906341273 807.5409905951543,367.72750509264915 Z" fill="url(#leaf6)" opacity="0.16" transform="rotate(68.4 807.5 422.0)"/>
    <path d="M 468.9769609273454,613.0250120928009 C 496.3920417783984,635.8709128020117 505.5304020620827,667.8551737949068 468.9769609273454,704.4086149296442 C 432.42351979260803,667.8551737949068 441.56188007629237,635.8709128020117 468.9769609273454,613.0250120928009 Z" fill="url(#leaf7)" opacity="0.17" transform="rotate(215.8 469.0 658.7)"/>
    <path d="M 1421.4429055754042,727.7372643267805 C 1467.965464145225,766.5060631349645 1483.4729836684987,820.7823814664222 1421.4429055754042,882.8124595595167 C 1359.4128274823097,820.7823814664222 1374.9203470055834,766.5060631349645 1421.4429055754042,727.7372643267805 Z" fill="url(#leaf8)" opacity="0.15" transform="rotate(100.3 1421.4 805.3)"/>
    <path d="M 1039.0854966499778,681.1222087917619 C 1061.3903963965884,699.7096252472707 1068.8253629787919,725.7320082849831 1039.0854966499778,755.4718746137972 C 1009.3456303211636,725.7320082849831 1016.7805969033672,699.7096252472707 1039.0854966499778,681.1222087917619 Z" fill="url(#leaf9)" opacity="0.20" transform="rotate(176.9 1039.1 718.3)"/>
    <path d="M 165.44307534182906,191.4646315936513 C 191.58879672978824,213.25273275028394 200.30403719244129,243.75607436956966 165.44307534182906,278.6170362201819 C 130.58211349121683,243.75607436956966 139.29735395386987,213.25273275028394 165.44307534182906,191.4646315936513 Z" fill="url(#leaf10)" opacity="0.18" transform="rotate(278.3 165.4 235.0)"/>
    <path d="M 1449.6667482357518,99.1197377629548 C 1495.8925582683858,137.64124612348309 1511.301161612597,191.5713578282227 1449.6667482357518,253.20577120506795 C 1388.0323348589066,191.5713578282227 1403.4409382031179,137.64124612348309 1449.6667482357518,99.1197377629548 Z" fill="url(#leaf11)" opacity="0.23" transform="rotate(265.6 1449.7 176.2)"/>
    <path d="M 1678.3326179439264,646.2840527540822 C 1724.935180621717,685.1195216522411 1740.4693681809808,739.4891781096637 1678.3326179439264,801.6259283467181 C 1616.195867706872,739.4891781096637 1631.7300552661357,685.1195216522411 1678.3326179439264,646.2840527540822 Z" fill="url(#leaf12)" opacity="0.22" transform="rotate(118.4 1678.3 724.0)"/>
    <path d="M 561.9274113517732,381.4019811013477 C 608.9495180923462,420.5870700518252 624.6235536725372,475.44619458249366 561.9274113517732,538.1423369032576 C 499.2312690310093,475.44619458249366 514.9053046112002,420.5870700518252 561.9274113517732,381.4019811013477 Z" fill="url(#leaf13)" opacity="0.23" transform="rotate(275.5 561.9 459.8)"/>
    <path d="M 742.0634573986861,629.5832857617498 C 766.8242222509507,650.2172564719704 775.0778105350389,679.1048154662791 742.0634573986861,712.1191686026319 C 709.0491042623332,679.1048154662791 717.3026925464214,650.2172564719704 742.0634573986861,629.5832857617498 Z" fill="url(#leaf14)" opacity="0.20" transform="rotate(144.4 742.1 670.9)"/>
    <path d="M 588.7413929678012,110.49650471180642 C 636.5924532509828,150.3723882811244 652.5428066787099,206.19862527816954 588.7413929678012,270.0000389890783 C 524.9399792568925,206.19862527816954 540.8903326846196,150.3723882811244 588.7413929678012,110.49650471180642 Z" fill="url(#leaf15)" opacity="0.20" transform="rotate(167.1 588.7 190.2)"/>
    <path d="M 1379.960804007355,425.2952392229648 C 1418.2532605528686,457.2056196775595 1431.0174127347066,501.8801523139922 1379.960804007355,552.9367610413437 C 1328.9041952800033,501.8801523139922 1341.6683474618412,457.2056196775595 1379.960804007355,425.2952392229648 Z" fill="url(#leaf16)" opacity="0.19" transform="rotate(75.5 1380.0 489.1)"/>
    <path d="M 1536.7238204730588,449.8985925356382 C 1581.7981431022608,487.4605280599733 1596.822917311995,540.0472377940424 1536.7238204730588,600.1463346329786 C 1476.6247236341226,540.0472377940424 1491.6494978438568,487.4605280599733 1536.7238204730588,449.8985925356382 Z" fill="url(#leaf17)" opacity="0.18" transform="rotate(242.8 1536.7 525.0)"/>
    <path d="M 306.95445175084654,479.150374761449 C 331.2760401911324,499.4183651283538 339.38323633789435,527.7935516420206 306.95445175084654,560.2223362290684 C 274.52566716379874,527.7935516420206 282.6328633105607,499.4183651283538 306.95445175084654,479.150374761449 Z" fill="url(#leaf18)" opacity="0.19" transform="rotate(88.9 307.0 519.7)"/>
    <path d="M 1414.9558238700138,359.6386351499218 C 1443.2653617863878,383.2299167469002 1452.701874425179,416.2577109826699 1414.9558238700138,454.0037615378353 C 1377.2097733148485,416.2577109826699 1386.6462859536398,383.2299167469002 1414.9558238700138,359.6386351499218 Z" fill="url(#leaf19)" opacity="0.25" transform="rotate(348.8 1415.0 406.8)"/>
    <path d="M 707.8962394382845,761.228802507845 C 733.1659079728212,782.2868596199589 741.5891308176667,811.7681395769183 707.8962394382845,845.4610309563005 C 674.2033480589023,811.7681395769183 682.6265709037478,782.2868596199589 707.8962394382845,761.228802507845 Z" fill="url(#leaf20)" opacity="0.20" transform="rotate(51.8 707.9 803.3)"/>
    <path d="M 1816.707175060254,569.920470834002 C 1844.8038548145755,593.33437062927 1854.1694147326828,626.1138303426452 1816.707175060254,663.5760700150739 C 1779.2449353878253,626.1138303426452 1788.6104953059325,593.33437062927 1816.707175060254,569.920470834002 Z" fill="url(#leaf21)" opacity="0.20" transform="rotate(145.0 1816.7 616.7)"/>
    <path d="M 676.8618658833689,241.3238503640973 C 707.1270734801152,266.5448566947192 717.215476012364,301.85426555758994 676.8618658833689,342.207875686585 C 636.5082557543737,301.85426555758994 646.5966582866225,266.5448566947192 676.8618658833689,241.3238503640973 Z" fill="url(#leaf22)" opacity="0.20" transform="rotate(30.5 676.9 291.8)"/>
    <path d="M 1393.4251718006847,254.08923390356392 C 1417.367357529789,274.04105534448416 1425.348086106157,301.9736053617725 1393.4251718006847,333.8965196672449 C 1361.5022574952122,301.9736053617725 1369.4829860715804,274.04105534448416 1393.4251718006847,254.08923390356392 Z" fill="url(#leaf23)" opacity="0.18" transform="rotate(83.7 1393.4 294.0)"/>
    <path d="M 785.0075192607723,763.459463515834 C 804.6303870229324,779.8118533176341 811.1713429436525,802.7051990401544 785.0075192607723,828.8690227230346 C 758.843695577892,802.7051990401544 765.3846514986121,779.8118533176341 785.0075192607723,763.459463515834 Z" fill="url(#leaf24)" opacity="0.20" transform="rotate(337.2 785.0 796.2)"/>
    <path d="M 713.1253259192512,299.298399806058 C 732.4234896851667,315.3802029443209 738.8562109404719,337.89472733788904 713.1253259192512,363.6256123591097 C 687.3944408980304,337.89472733788904 693.8271621533356,315.3802029443209 713.1253259192512,299.298399806058 Z" fill="url(#leaf25)" opacity="0.15" transform="rotate(8.3 713.1 331.5)"/>
    <path d="M 194.43008064476788,203.238489817836 C 214.7646793185206,220.1839887126299 221.54287887643815,243.9076871653414 194.43008064476788,271.02048539701167 C 167.31728241309762,243.9076871653414 174.09548197101518,220.1839887126299 194.43008064476788,203.238489817836 Z" fill="url(#leaf26)" opacity="0.24" transform="rotate(266.3 194.4 237.1)"/>
    <path d="M 177.482049580867,35.81726055817243 C 209.0192911084289,62.09829516447401 219.53170495094955,98.89174361329623 177.482049580867,140.94139898337878 C 135.43239421078445,98.89174361329623 145.9448080533051,62.09829516447401 177.482049580867,35.81726055817243 Z" fill="url(#leaf27)" opacity="0.17" transform="rotate(99.3 177.5 88.4)"/>
    <path d="M 978.5522282084276,816.3252960654683 C 1023.3543249686129,853.6603766989562 1038.288357222008,905.9294895858391 978.5522282084276,965.6656185994196 C 918.816099194847,905.9294895858391 933.7501314482422,853.6603766989562 978.5522282084276,816.3252960654683 Z" fill="url(#leaf28)" opacity="0.25" transform="rotate(260.1 978.6 891.0)"/>
    <path d="M 332.10871153641654,211.092929527528 C 365.41132677013957,238.84510888896386 376.5121985147139,277.69815999497405 332.10871153641654,322.1016469732714 C 287.7052245581192,277.69815999497405 298.8060963026935,238.84510888896386 332.10871153641654,211.092929527528 Z" fill="url(#leaf29)" opacity="0.16" transform="rotate(2.6 332.1 266.6)"/>
    <path d="M 1670.0946770813594,695.5107741147812 C 1689.1244065399833,711.3688819969677 1695.4676496928578,733.5702330320289 1670.0946770813594,758.9432056435274 C 1644.721704469861,733.5702330320289 1651.0649476227354,711.3688819969677 1670.0946770813594,695.5107741147812 Z" fill="url(#leaf0)" opacity="0.19" transform="rotate(89.3 1670.1 727.2)"/>
    <path d="M 1595.35240877047,649.9189245282339 C 1635.17542101132,683.1047680622756 1648.4497584249366,729.5649490099339 1595.35240877047,782.6622986644006 C 1542.2550591160034,729.5649490099339 1555.52939652962,683.1047680622756 1595.35240877047,649.9189245282339 Z" fill="url(#leaf1)" opacity="0.16" transform="rotate(50.4 1595.4 716.3)"/>
    <path d="M 527.4328036441188,400.72434703211536 C 573.0315175542245,438.7232752905368 588.231088857593,491.9217748523267 527.4328036441188,552.7200600658009 C 466.6345184306446,491.9217748523267 481.83408973401316,438.7232752905368 527.4328036441188,400.72434703211536 Z" fill="url(#leaf2)" opacity="0.25" transform="rotate(72.7 527.4 476.7)"/>
    <path d="M 159.71528023989993,254.44104967493033 C 192.96431786111188,282.1485810259403 204.04733040151586,320.9391249173542 159.71528023989993,365.27117507897015 C 115.38323007828399,320.9391249173542 126.46624261868797,282.1485810259403 159.71528023989993,254.44104967493033 Z" fill="url(#leaf3)" opacity="0.19" transform="rotate(350.6 159.7 309.9)"/>
    <path d="M 855.4152451756935,132.30145747602145 C 884.8334789696366,156.81665230430738 894.639556900951,191.1379250639077 855.4152451756935,230.36223678916517 C 816.190933450436,191.1379250639077 825.9970113817503,156.81665230430738 855.4152451756935,132.30145747602145 Z" fill="url(#leaf4)" opacity="0.16" transform="rotate(223.6 855.4 181.3)"/>
    <path d="M 147.22984011268306,778.0918120857853 C 182.6018529589855,807.568489457704 194.39252390775297,848.8358377783901 147.22984011268306,895.99852157346 C 100.06715631761315,848.8358377783901 111.85782726638064,807.568489457704 147.22984011268306,778.0918120857853 Z" fill="url(#leaf5)" opacity="0.16" transform="rotate(295.0 147.2 837.0)"/>
    <path d="M 1641.6831682547281,575.3316097721091 C 1678.1315753800754,605.7052823765653 1690.281044421858,648.2284240228039 1641.6831682547281,696.8263001899337 C 1593.0852920875982,648.2284240228039 1605.2347611293808,605.7052823765653 1641.6831682547281,575.3316097721091 Z" fill="url(#leaf6)" opacity="0.22" transform="rotate(226.0 1641.7 636.1)"/>
    <path d="M 161.28496092033603,741.6205085955215 C 185.8481440369249,762.0898278593455 194.03587174245453,790.7468748286992 161.28496092033603,823.4977856508177 C 128.53405009821753,790.7468748286992 136.72177780374716,762.0898278593455 161.28496092033603,741.6205085955215 Z" fill="url(#leaf7)" opacity="0.15" transform="rotate(73.9 161.3 782.6)"/>
    <path d="M 1849.6627959153932,93.67002286742894 C 1873.1627575994123,113.25332427077812 1880.996078160752,140.66994623546697 1849.6627959153932,172.00322848082567 C 1818.3295136700344,140.66994623546697 1826.162834231374,113.25332427077812 1849.6627959153932,93.67002286742894 Z" fill="url(#leaf8)" opacity="0.19" transform="rotate(70.3 1849.7 132.8)"/>
    <path d="M 108.31343284109062,401.27087199735394 C 128.70473575718475,418.2636244274324 135.50183672921614,442.0534778295422 108.31343284109062,469.2418817176677 C 81.1250289529651,442.0534778295422 87.92212992499648,418.2636244274324 108.31343284109062,401.27087199735394 Z" fill="url(#leaf9)" opacity="0.25" transform="rotate(121.3 108.3 435.3)"/>
    <path d="M 1817.6797067636708,901.5088183962677 C 1864.062767498787,940.1613690088645 1879.5237877438258,994.2749398665002 1817.6797067636708,1056.119020846655 C 1755.8356257835158,994.2749398665002 1771.2966460285545,940.1613690088645 1817.6797067636708,901.5088183962677 Z" fill="url(#leaf10)" opacity="0.25" transform="rotate(195.5 1817.7 978.8)"/>
    <path d="M 302.14036778492675,952.5076491650593 C 331.5553500996614,977.0201344273382 341.3603442045729,1011.3376137945286 302.14036778492675,1050.5575902141748 C 262.9203913652806,1011.3376137945286 272.7253854701921,977.0201344273382 302.14036778492675,952.5076491650593 Z" fill="url(#leaf11)" opacity="0.25" transform="rotate(75.4 302.1 1001.5)"/>
    <path d="M 448.6156685135487,481.91434793152285 C 490.59563561136105,516.8976538463664 504.5889579772985,565.8742821271476 448.6156685135487,621.8475715908974 C 392.64237904979893,565.8742821271476 406.6357014157364,516.8976538463664 448.6156685135487,481.91434793152285 Z" fill="url(#leaf12)" opacity="0.20" transform="rotate(146.9 448.6 551.9)"/>
    <path d="M 257.6466471425063,694.1624731081995 C 282.5156179703779,714.8866154647591 290.80527491300177,743.9004147639426 257.6466471425063,777.059042534438 C 224.48801937201085,743.9004147639426 232.77767631463473,714.8866154647591 257.6466471425063,694.1624731081995 Z" fill="url(#leaf13)" opacity="0.19" transform="rotate(224.7 257.6 735.6)"/>
    <path d="M 225.02422456042038,963.5847905186887 C 262.8333261949206,995.0923752141056 275.43636007308726,1039.2029937876891 225.02422456042038,1089.6151293003559 C 174.61208904775347,1039.2029937876891 187.2151229259202,995.0923752141056 225.02422456042038,963.5847905186887 Z" fill="url(#leaf14)" opacity="0.17" transform="rotate(319.2 225.0 1026.6)"/>
    <path d="M 364.1076687777989,374.72402774102466 C 411.1785987709987,413.9498027353578 426.86890876873196,468.86588772742425 364.1076687777989,531.6271277183573 C 301.34642878686583,468.86588772742425 317.0367387845991,413.9498027353578 364.1076687777989,374.72402774102466 Z" fill="url(#leaf15)" opacity="0.19" transform="rotate(87.6 364.1 453.2)"/>
    <path d="M 518.4912968154385,619.0529978303496 C 538.5018325270914,635.728444256727 545.1720110976423,659.0740692536554 518.4912968154385,685.7547835358591 C 491.81058253323476,659.0740692536554 498.4807611037857,635.728444256727 518.4912968154385,619.0529978303496 Z" fill="url(#leaf16)" opacity="0.16" transform="rotate(351.7 518.5 652.4)"/>
    <path d="M 1783.7428100606803,96.64932651613687 C 1816.102231914621,123.61551139442074 1826.8887058659345,161.36817022401817 1783.7428100606803,204.51406602927239 C 1740.596914255426,161.36817022401817 1751.3833882067397,123.61551139442074 1783.7428100606803,96.64932651613687 Z" fill="url(#leaf17)" opacity="0.24" transform="rotate(26.5 1783.7 150.6)"/>
    <path d="M 1713.1391373656995,904.5652736306733 C 1754.4249343173874,938.9701044237464 1768.1868666346165,987.1368675340489 1713.1391373656995,1042.1845968029659 C 1658.0914080967825,987.1368675340489 1671.8533404140117,938.9701044237464 1713.1391373656995,904.5652736306733 Z" fill="url(#leaf18)" opacity="0.24" transform="rotate(167.4 1713.1 973.4)"/>
    <path d="M 309.32975294858477,468.9318281792842 C 354.32850992750895,506.4307923283877 369.32809558715036,558.9293421371326 309.32975294858477,618.9276847756983 C 249.33141031001918,558.9293421371326 264.3309959696606,506.4307923283877 309.32975294858477,468.9318281792842 Z" fill="url(#leaf19)" opacity="0.19" transform="rotate(353.1 309.3 543.9)"/>
    <path d="M 1454.5139775015562,937.4388979579994 C 1498.5154389899446,974.1067825316564 1513.1825928194073,1025.4418209347764 1454.5139775015562,1084.1104362526276 C 1395.845362183705,1025.4418209347764 1410.5125160131677,974.1067825316564 1454.5139775015562,937.4388979579994 Z" fill="url(#leaf20)" opacity="0.23" transform="rotate(333.0 1454.5 1010.8)"/>
    <path d="M 108.02243412800536,65.92117718819664 C 147.37977974435825,98.71896520182403 160.4988949498092,144.6358684209024 108.02243412800536,197.11232924270627 C 55.54597330620151,144.6358684209024 68.66508851165247,98.71896520182403 108.02243412800536,65.92117718819664 Z" fill="url(#leaf21)" opacity="0.16" transform="rotate(131.7 108.0 131.5)"/>
    <path d="M 974.5288832856493,746.8189898694807 C 1005.8223285144295,772.8968608934642 1016.253476924023,809.4058803270412 974.5288832856493,851.1304739654149 C 932.8042896472756,809.4058803270412 943.235438056869,772.8968608934642 974.5288832856493,746.8189898694807 Z" fill="url(#leaf22)" opacity="0.21" transform="rotate(170.0 974.5 799.0)"/>
    <path d="M 1495.3624380568488,396.26364569889006 C 1520.5628189312847,417.2639630942535 1528.96294588943,446.6644074477622 1495.3624380568488,480.26491528034364 C 1461.7619302242674,446.6644074477622 1470.1620571824128,417.2639630942535 1495.3624380568488,396.26364569889006 Z" fill="url(#leaf23)" opacity="0.22" transform="rotate(334.0 1495.4 438.3)"/>
    <path d="M 1439.9223018754801,233.16405359796255 C 1477.631241075886,264.58816959830074 1490.2008874760213,308.5819319987742 1439.9223018754801,358.8605175993153 C 1389.643716274939,308.5819319987742 1402.2133626750742,264.58816959830074 1439.9223018754801,233.16405359796255 Z" fill="url(#leaf24)" opacity="0.22" transform="rotate(245.6 1439.9 296.0)"/>
    <path d="M 405.0497289165131,43.604849484133794 C 450.75118071934315,81.68939265315882 465.98499798695315,135.00775308979385 405.0497289165131,195.9430221602339 C 344.1144598460731,135.00775308979385 359.3482771136831,81.68939265315882 405.0497289165131,43.604849484133794 Z" fill="url(#leaf25)" opacity="0.25" transform="rotate(222.5 405.0 119.8)"/>
    <path d="M 1174.8249836642024,304.9572762718959 C 1206.6187674850814,331.4520961226286 1217.2166954253746,368.54484391365423 1174.8249836642024,410.9365556748264 C 1132.4332719030301,368.54484391365423 1143.0311998433233,331.4520961226286 1174.8249836642024,304.9572762718959 Z" fill="url(#leaf26)" opacity="0.17" transform="rotate(195.8 1174.8 357.9)"/>
    <path d="M 511.0290843502702,908.6215716397196 C 543.4242200135521,935.6175180257878 554.2225985679795,973.4118429662835 511.0290843502702,1016.6053571839927 C 467.8355701325609,973.4118429662835 478.6339486869882,935.6175180257878 511.0290843502702,908.6215716397196 Z" fill="url(#leaf27)" opacity="0.25" transform="rotate(29.0 511.0 962.6)"/>
    <path d="M 493.1270066629197,351.22957475908623 C 527.2043652700909,379.62737359839554 538.5634848058146,419.38429197342856 493.1270066629197,464.82077011632344 C 447.6905285200248,419.38429197342856 459.04964805574855,379.62737359839554 493.1270066629197,351.22957475908623 Z" fill="url(#leaf28)" opacity="0.19" transform="rotate(51.9 493.1 408.0)"/>
    <path d="M 53.004457087163686,769.3719570302503 C 76.53835663918102,788.9835399902648 84.3829898231868,816.4397561342851 53.004457087163686,847.8182888703082 C 21.625924351140572,816.4397561342851 29.47055753514635,788.9835399902648 53.004457087163686,769.3719570302503 Z" fill="url(#leaf29)" opacity="0.17" transform="rotate(190.1 53.0 808.6)"/>
    <path d="M 794.0188796935998,565.9487881639416 C 814.2498361205121,582.8079185197017 820.9934882628162,606.4107010177661 794.0188796935998,633.3853095869824 C 767.0442711243835,606.4107010177661 773.7879232666876,582.8079185197017 794.0188796935998,565.9487881639416 Z" fill="url(#leaf0)" opacity="0.19" transform="rotate(143.5 794.0 599.7)"/>
    <path d="M 185.8051403357955,360.9223972218661 C 225.37887234729516,393.9005072314492 238.57011635112838,440.0698612448654 185.8051403357955,492.8348372601983 C 133.04016432046262,440.0698612448654 146.23140832429584,393.9005072314492 185.8051403357955,360.9223972218661 Z" fill="url(#leaf1)" opacity="0.20" transform="rotate(31.8 185.8 426.9)"/>
    <path d="M 716.2314025931372,907.2728481626165 C 751.777491879945,936.8945892349564 763.626188308881,978.365026736232 716.2314025931372,1025.759812451976 C 668.8366168773935,978.365026736232 680.6853133063294,936.8945892349564 716.2314025931372,907.2728481626165 Z" fill="url(#leaf2)" opacity="0.22" transform="rotate(346.1 716.2 966.5)"/>
    <path d="M 123.26692809472912,812.4846278838825 C 154.74735387906475,838.7183160374955 165.24082914050996,875.4454794525536 123.26692809472912,917.4193804983345 C 81.2930270489483,875.4454794525536 91.78650231039352,838.7183160374955 123.26692809472912,812.4846278838825 Z" fill="url(#leaf3)" opacity="0.25" transform="rotate(83.8 123.3 865.0)"/>
    <path d="M 1629.921255388414,537.0844551528044 C 1663.7351767698415,565.2627229706607 1675.006483896984,604.7122979156595 1629.921255388414,649.7975264242295 C 1584.836026879844,604.7122979156595 1596.1073340069865,565.2627229706607 1629.921255388414,537.0844551528044 Z" fill="url(#leaf4)" opacity="0.20" transform="rotate(100.8 1629.9 593.4)"/>
    <path d="M 1083.436976062326,610.6151719085217 C 1127.0449959291795,646.955188464233 1141.581002551464,697.8312116422287 1083.436976062326,755.9752381313667 C 1025.292949573188,697.8312116422287 1039.8289561954725,646.955188464233 1083.436976062326,610.6151719085217 Z" fill="url(#leaf5)" opacity="0.21" transform="rotate(43.2 1083.4 683.3)"/>
    <path d="M 328.90352712379485,981.5760197647209 C 357.2484953576248,1005.1968266262459 366.6968181022348,1038.2659562323806 328.90352712379485,1076.0592472108206 C 291.1102361453549,1038.2659562323806 300.5585588899649,1005.1968266262459 328.90352712379485,981.5760197647209 Z" fill="url(#leaf6)" opacity="0.21" transform="rotate(100.2 328.9 1028.8)"/>
    <path d="M 719.1483916021909,35.6285189940463 C 756.2180257572435,66.51988078992346 768.5745704755943,109.76778730415147 719.1483916021909,159.1939661775549 C 669.7222127287876,109.76778730415147 682.0787574471384,66.51988078992346 719.1483916021909,35.6285189940463 Z" fill="url(#leaf7)" opacity="0.18" transform="rotate(19.0 719.1 97.4)"/>
    <path d="M 255.52731623138342,173.20070362769394 C 299.44785409218986,209.80115184503265 314.08803337912536,261.04177934930686 255.52731623138342,319.6024964970488 C 196.96659908364148,261.04177934930686 211.606778370577,209.80115184503265 255.52731623138342,173.20070362769394 Z" fill="url(#leaf8)" opacity="0.21" transform="rotate(154.2 255.5 246.4)"/>
    <path d="M 256.453429557223,880.1327623666808 C 299.39068102357805,915.9138052553101 313.7030981790297,966.007265299391 256.453429557223,1023.2569339211976 C 199.20376093541626,966.007265299391 213.51617809086795,915.9138052553101 256.453429557223,880.1327623666808 Z" fill="url(#leaf9)" opacity="0.23" transform="rotate(190.6 256.5 951.7)"/>
    <path d="M 538.2488203223656,31.070950559677584 C 571.5149221939814,58.7927021193574 582.6036228178533,97.60315430290915 538.2488203223656,141.95795679839685 C 493.8940178268779,97.60315430290915 504.98271845074987,58.7927021193574 538.2488203223656,31.070950559677584 Z" fill="url(#leaf10)" opacity="0.24" transform="rotate(81.3 538.2 86.5)"/>
    <path d="M 1780.941543283541,149.21991154429463 C 1805.7629966408244,169.90445600869754 1814.0368144265856,198.86281825886158 1780.941543283541,231.9580894019062 C 1747.8462721404965,198.86281825886158 1756.1200899262576,169.90445600869754 1780.941543283541,149.21991154429463 Z" fill="url(#leaf11)" opacity="0.24" transform="rotate(316.8 1780.9 190.6)"/>
    <path d="M 988.6674174654344,475.952221451253 C 1019.1435432694175,501.3489929545723 1029.302251870745,536.9044730592192 988.6674174654344,577.5393074645299 C 948.0325830601236,536.9044730592192 958.1912916614513,501.3489929545723 988.6674174654344,475.952221451253 Z" fill="url(#leaf12)" opacity="0.21" transform="rotate(274.7 988.7 526.7)"/>
    <path d="M 1360.2058424655893,719.0374605662987 C 1408.1865144662058,759.0213539001459 1424.1800717997446,814.9988045675319 1360.2058424655893,878.9730339016874 C 1296.231613131434,814.9988045675319 1312.2251704649727,759.0213539001459 1360.2058424655893,719.0374605662987 Z" fill="url(#leaf13)" opacity="0.15" transform="rotate(139.2 1360.2 799.0)"/>
    <path d="M 1837.8355406021972,121.87803736064703 C 1874.4546958349501,152.3940000546079 1886.6610809125345,195.11634782615306 1837.8355406021972,243.9418881364904 C 1789.0100002918598,195.11634782615306 1801.2163853694442,152.3940000546079 1837.8355406021972,121.87803736064703 Z" fill="url(#leaf14)" opacity="0.19" transform="rotate(298.3 1837.8 182.9)"/>
    <path d="M 688.5867121617744,704.1383019171886 C 730.1689687041215,738.7901823691445 744.0297208849039,787.3028150018829 688.5867121617744,842.7458237250124 C 633.1437034386448,787.3028150018829 647.0044556194272,738.7901823691445 688.5867121617744,704.1383019171886 Z" fill="url(#leaf15)" opacity="0.25" transform="rotate(8.8 688.6 773.4)"/>
    <path d="M 1207.659562506727,535.8763386136482 C 1241.1013433123312,563.7444892849849 1252.2486035808658,602.7599002248564 1207.659562506727,647.3489412989952 C 1163.0705214325883,602.7599002248564 1174.217781701123,563.7444892849849 1207.659562506727,535.8763386136482 Z" fill="url(#leaf16)" opacity="0.21" transform="rotate(345.6 1207.7 591.6)"/>
    <path d="M 1252.3380534903533,679.5398830561614 C 1296.4738401112684,716.3197052402572 1311.1857689849066,767.8114562979913 1252.3380534903533,826.6591717925446 C 1193.4903379958,767.8114562979913 1208.2022668694383,716.3197052402572 1252.3380534903533,679.5398830561614 Z" fill="url(#leaf17)" opacity="0.15" transform="rotate(171.6 1252.3 753.1)"/>
    <path d="M 883.2359231469112,892.9601701954864 C 916.390957822936,920.5893657588404 927.4426360482776,959.2702395475359 883.2359231469112,1003.4769524489022 C 839.0292102455448,959.2702395475359 850.0808884708864,920.5893657588404 883.2359231469112,892.9601701954864 Z" fill="url(#leaf18)" opacity="0.24" transform="rotate(313.6 883.2 948.2)"/>
    <path d="M 1401.8627468015172,109.98993696711997 C 1445.7981238253567,146.60275115365295 1460.44324949997,197.86069101479907 1401.8627468015172,256.4411937132518 C 1343.2822441030644,197.86069101479907 1357.9273697776778,146.60275115365295 1401.8627468015172,109.98993696711997 Z" fill="url(#leaf19)" opacity="0.21" transform="rotate(295.8 1401.9 183.2)"/>
    <path d="M 1279.799376267804,506.12815256041034 C 1308.206265460189,529.8005602207311 1317.6752285243172,562.94193094518 1279.799376267804,600.8177832016931 C 1241.923524011291,562.94193094518 1251.3924870754192,529.8005602207311 1279.799376267804,506.12815256041034 Z" fill="url(#leaf20)" opacity="0.22" transform="rotate(232.9 1279.8 553.5)"/>
    <path d="M 1782.799217022575,944.2478155693308 C 1812.1625929020647,968.7172954689054 1821.9503848618945,1002.97456732831 1782.799217022575,1042.1257351676295 C 1743.6480491832556,1002.97456732831 1753.4358411430853,968.7172954689054 1782.799217022575,944.2478155693308 Z" fill="url(#leaf21)" opacity="0.25" transform="rotate(107.6 1782.8 993.2)"/>
    <path d="M 830.2182145587659,493.49824470509407 C 849.4223652998594,509.50170365600536 855.823748880224,531.9065461872812 830.2182145587659,557.5120805087392 C 804.6126802373078,531.9065461872812 811.0140638176724,509.50170365600536 830.2182145587659,493.49824470509407 Z" fill="url(#leaf22)" opacity="0.22" transform="rotate(50.3 830.2 525.5)"/>
    <path d="M 249.8322099485767,348.73567141212993 C 272.0137792073583,367.22031246111464 279.4076356269522,393.09880992969323 249.8322099485767,422.6742356080688 C 220.25678427020117,393.09880992969323 227.65064068979504,367.22031246111464 249.8322099485767,348.73567141212993 Z" fill="url(#leaf23)" opacity="0.17" transform="rotate(162.2 249.8 385.7)"/>
    <path d="M 212.30705503986516,968.0396136915658 C 246.27068790653135,996.3426410804543 257.59189886208674,1035.9668794248983 212.30705503986516,1081.2517232471198 C 167.02221121764356,1035.9668794248983 178.34342217319897,996.3426410804543 212.30705503986516,968.0396136915658 Z" fill="url(#leaf24)" opacity="0.21" transform="rotate(219.0 212.3 1024.6)"/>
    <path d="M 637.2769214652886,12.415862507481876 C 684.0307233600163,51.377364086421565 699.6153239915922,105.92346629693714 637.2769214652886,168.26186882324063 C 574.9385189389851,105.92346629693714 590.523119570561,51.377364086421565 637.2769214652886,12.415862507481876 Z" fill="url(#leaf25)" opacity="0.17" transform="rotate(208.2 637.3 90.3)"/>
    <path d="M 1163.3331985405425,782.6702438270095 C 1183.9127477242037,799.819868146727 1190.7725974520906,823.8293421943315 1163.3331985405425,851.2687411058796 C 1135.8937996289944,823.8293421943315 1142.7536493568814,799.819868146727 1163.3331985405425,782.6702438270095 Z" fill="url(#leaf26)" opacity="0.15" transform="rotate(195.0 1163.3 817.0)"/>
    <path d="M 520.3199462499261,191.11856349254646 C 541.7448758310951,208.9726714768539 548.8865190248181,233.9684226548843 520.3199462499261,262.5349954297762 C 491.75337347503427,233.9684226548843 498.8950166687572,208.9726714768539 520.3199462499261,191.11856349254646 Z" fill="url(#leaf27)" opacity="0.19" transform="rotate(25.3 520.3 226.8)"/>
    <path d="M 1733.3789514551981,685.9890620138049 C 1780.954443033958,725.6353049961045 1796.8129402268776,781.1400451713241 1733.3789514551981,844.5740339430035 C 1669.9449626835187,781.1400451713241 1685.8034598764384,725.6353049961045 1733.3789514551981,685.9890620138049 Z" fill="url(#leaf28)" opacity="0.23" transform="rotate(141.8 1733.4 765.3)"/>
    <path d="M 482.4874774285632,665.9822963400482 C 521.9311364520918,698.8520121929887 535.079022793268,744.8696143871055 482.4874774285632,797.4611597518103 C 429.8959320638583,744.8696143871055 443.04381840503453,698.8520121929887 482.4874774285632,665.9822963400482 Z" fill="url(#leaf29)" opacity="0.24" transform="rotate(239.8 482.5 731.7)"/>
    <path d="M 388.59321636238514,393.5423795114876 C 414.94184972804374,415.4995739828698 423.7247275165966,446.2396462428048 388.59321636238514,481.37115739701625 C 353.46170520817367,446.2396462428048 362.24458299672654,415.4995739828698 388.59321636238514,393.5423795114876 Z" fill="url(#leaf0)" opacity="0.20" transform="rotate(293.3 388.6 437.5)"/>
    <path d="M 1493.465118621471,481.0202183130917 C 1512.821967602094,497.1509257969441 1519.2742505956348,519.7339162743375 1493.465118621471,545.5430482485015 C 1467.6559866473071,519.7339162743375 1474.108269640848,497.1509257969441 1493.465118621471,481.0202183130917 Z" fill="url(#leaf1)" opacity="0.25" transform="rotate(240.2 1493.5 513.3)"/>
    <path d="M 1173.6212011292334,75.4216682317532 C 1198.5950196422891,96.23318365929964 1206.9196258133077,125.36930525786465 1173.6212011292334,158.66772994193894 C 1140.3227764451592,125.36930525786465 1148.6473826161778,96.23318365929964 1173.6212011292334,75.4216682317532 Z" fill="url(#leaf2)" opacity="0.24" transform="rotate(38.6 1173.6 117.0)"/>
    <path d="M 590.9025801525875,419.7513014876641 C 626.2170635593221,449.180037659943 637.9885580282337,490.38026830113347 590.9025801525875,537.4662461767797 C 543.8166022769412,490.38026830113347 555.5880967458528,449.180037659943 590.9025801525875,419.7513014876641 Z" fill="url(#leaf3)" opacity="0.19" transform="rotate(299.3 590.9 478.6)"/>
    <path d="M 264.6095268962086,475.96908065365017 C 303.855099156696,508.6737242040563 316.93695657685845,554.460225174625 264.6095268962086,606.7876548552748 C 212.28209721555874,554.460225174625 225.3639546357212,508.6737242040563 264.6095268962086,475.96908065365017 Z" fill="url(#leaf4)" opacity="0.20" transform="rotate(297.2 264.6 541.4)"/>
    <path d="M 935.2030132032642,859.6597434784125 C 954.680609960476,875.8910741094223 961.1731422128798,898.6149369928361 935.2030132032642,924.5850660024518 C 909.2328841936485,898.6149369928361 915.7254164460523,875.8910741094223 935.2030132032642,859.6597434784125 Z" fill="url(#leaf5)" opacity="0.21" transform="rotate(152.8 935.2 892.1)"/>
    <path d="M 830.3295159450697,882.4735197998259 C 876.1181274460433,920.6306960506372 891.3809979463679,974.0507428017731 830.3295159450697,1035.1022248030713 C 769.2780339437716,974.0507428017731 784.5409044440961,920.6306960506372 830.3295159450697,882.4735197998259 Z" fill="url(#leaf6)" opacity="0.22" transform="rotate(108.7 830.3 958.8)"/>
    <path d="M 1326.5645841881094,441.29183061325404 C 1360.2819664390088,469.38964915567016 1371.521093855975,508.72659511505265 1326.5645841881094,553.6831047829183 C 1281.6080745202437,508.72659511505265 1292.84720193721,469.38964915567016 1326.5645841881094,441.29183061325404 Z" fill="url(#leaf7)" opacity="0.16" transform="rotate(23.1 1326.6 497.5)"/>
    <path d="M 457.457299183527,182.32340514701917 C 505.38679586154626,222.26465237870187 521.3632947542193,278.18239850305764 457.457299183527,342.08839407374995 C 393.5513036128347,278.18239850305764 409.5278025055078,222.26465237870187 457.457299183527,182.32340514701917 Z" fill="url(#leaf8)" opacity="0.16" transform="rotate(224.1 457.5 262.2)"/>
    <path d="M 1355.572863330122,509.5275501154657 C 1396.6655541895364,543.7714591649778 1410.3631178093412,591.7129318342946 1355.572863330122,646.503186313514 C 1300.7826088509025,591.7129318342946 1314.4801724707074,543.7714591649778 1355.572863330122,509.5275501154657 Z" fill="url(#leaf9)" opacity="0.16" transform="rotate(241.8 1355.6 578.0)"/>
    <path d="M 1336.745437517763,45.53710922208265 C 1380.3213254161271,81.85034913738605 1394.8466213822485,132.6888850188108 1336.745437517763,190.79006888329624 C 1278.6442536532777,132.6888850188108 1293.169549619399,81.85034913738605 1336.745437517763,45.53710922208265 Z" fill="url(#leaf10)" opacity="0.20" transform="rotate(152.9 1336.7 118.2)"/>
    <path d="M 1759.5577848286184,881.1964522975063 C 1799.4872168135203,914.4709789515912 1812.797027475154,961.0553162673099 1759.5577848286184,1014.2945589138455 C 1706.3185421820829,961.0553162673099 1719.6283528437166,914.4709789515912 1759.5577848286184,881.1964522975063 Z" fill="url(#leaf11)" opacity="0.18" transform="rotate(234.4 1759.6 947.7)"/>
    <path d="M 716.9798776789778,194.62389381579348 C 764.0738713984884,233.86888858205236 779.771869304992,288.81188125481475 716.9798776789778,351.60387288082893 C 654.1878860529636,288.81188125481475 669.8858839594672,233.86888858205236 716.9798776789778,194.62389381579348 Z" fill="url(#leaf12)" opacity="0.22" transform="rotate(250.3 717.0 273.1)"/>
    <path d="M 1719.0949997616776,46.67738736145991 C 1753.8831663060218,75.66752614841346 1765.4792218208033,116.25372045014842 1719.0949997616776,162.63794250927407 C 1672.710777702552,116.25372045014842 1684.3068332173334,75.66752614841346 1719.0949997616776,46.67738736145991 Z" fill="url(#leaf13)" opacity="0.24" transform="rotate(150.2 1719.1 104.7)"/>
    <path d="M 1390.0131843253912,190.98707342650832 C 1433.174204053317,226.95458986644644 1447.5612106292922,277.3091128823598 1390.0131843253912,334.8571391862607 C 1332.4651580214902,277.3091128823598 1346.8521645974654,226.95458986644644 1390.0131843253912,190.98707342650832 Z" fill="url(#leaf14)" opacity="0.25" transform="rotate(138.9 1390.0 262.9)"/>
    <path d="M 215.17725403114915,930.6492000598172 C 250.13998436251657,959.7848086692901 261.7942278063057,1000.574660722552 215.17725403114915,1047.1916344977085 C 168.56028025599258,1000.574660722552 180.21452369978172,959.7848086692901 215.17725403114915,930.6492000598172 Z" fill="url(#leaf15)" opacity="0.21" transform="rotate(333.9 215.2 988.9)"/>
    <path d="M 389.7981695947823,576.1105553831801 C 434.57360653889043,613.4234195032702 449.4987521869265,665.6614292713964 389.7981695947823,725.3620118635406 C 330.0975870026381,665.6614292713964 345.02273265067413,613.4234195032702 389.7981695947823,576.1105553831801 Z" fill="url(#leaf16)" opacity="0.18" transform="rotate(104.7 389.8 650.7)"/>
    <path d="M 1864.4789737753226,527.6322356428414 C 1889.7315818528184,548.6760757074212 1898.1491178786503,578.1374517978329 1864.4789737753226,611.8075959011605 C 1830.808829671995,578.1374517978329 1839.2263656978269,548.6760757074212 1864.4789737753226,527.6322356428414 Z" fill="url(#leaf17)" opacity="0.22" transform="rotate(78.4 1864.5 569.7)"/>
    <path d="M 624.7875959534028,439.70457006940376 C 661.2972703248863,470.12929871230665 673.4671617820475,512.7239188123706 624.7875959534028,561.4034846410152 C 576.1080301247582,512.7239188123706 588.2779215819194,470.12929871230665 624.7875959534028,439.70457006940376 Z" fill="url(#leaf18)" opacity="0.24" transform="rotate(213.6 624.8 500.6)"/>
    <path d="M 149.07835658433714,804.4639396762191 C 183.01358729724765,832.7432986036446 194.32533086821783,872.3344011020401 149.07835658433714,917.5813753859209 C 103.83138230045645,872.3344011020401 115.14312587142663,832.7432986036446 149.07835658433714,804.4639396762191 Z" fill="url(#leaf19)" opacity="0.20" transform="rotate(310.1 149.1 861.0)"/>
    <path d="M 1164.4994672944129,82.42075885235116 C 1183.116065936459,97.93459105405643 1189.3215988171412,119.65395613644378 1164.4994672944129,144.4760876591722 C 1139.6773357716845,119.65395613644378 1145.8828686523666,97.93459105405643 1164.4994672944129,82.42075885235116 Z" fill="url(#leaf20)" opacity="0.23" transform="rotate(269.5 1164.5 113.4)"/>
    <path d="M 192.82007390406844,446.57472330110687 C 217.34484293272723,467.0120308249892 225.51976594228017,495.62426135842446 192.82007390406844,528.3239533966362 C 160.1203818658567,495.62426135842446 168.29530487540964,467.0120308249892 192.82007390406844,446.57472330110687 Z" fill="url(#leaf21)" opacity="0.20" transform="rotate(345.6 192.8 487.4)"/>
    <path d="M 1391.4504302687399,477.3075783343304 C 1428.3362004034266,508.0457201132359 1440.6314571149887,551.0791186037036 1391.4504302687399,600.2601454499525 C 1342.269403422491,551.0791186037036 1354.5646601340532,508.0457201132359 1391.4504302687399,477.3075783343304 Z" fill="url(#leaf22)" opacity="0.19" transform="rotate(55.1 1391.5 538.8)"/>
    <path d="M 880.2253717916171,336.0145544181278 C 919.2848310800179,368.56410382512837 932.3046508428182,414.13347299492926 880.2253717916171,466.2127520461303 C 828.1460927404161,414.13347299492926 841.1659125032164,368.56410382512837 880.2253717916171,336.0145544181278 Z" fill="url(#leaf23)" opacity="0.19" transform="rotate(73.8 880.2 401.1)"/>
    <path d="M 1525.5862922481706,766.3389361463144 C 1560.570185420128,795.4921804562789 1572.2314831441138,836.306722490229 1525.5862922481706,882.9519133861722 C 1478.9411013522274,836.306722490229 1490.6023990762133,795.4921804562789 1525.5862922481706,766.3389361463144 Z" fill="url(#leaf24)" opacity="0.25" transform="rotate(258.7 1525.6 824.6)"/>
    <path d="M 501.5265654193139,971.1868984509647 C 527.5182825210655,992.8466627024244 536.1821882216494,1023.170332654468 501.5265654193139,1057.8259554568035 C 466.87094261697837,1023.170332654468 475.53484831756225,992.8466627024244 501.5265654193139,971.1868984509647 Z" fill="url(#leaf25)" opacity="0.16" transform="rotate(65.5 501.5 1014.5)"/>
    <path d="M 770.3018581734826,653.387243714773 C 811.7232899861517,687.9051035586639 825.530433923708,736.2301073401111 770.3018581734826,791.4586830903364 C 715.0732824232573,736.2301073401111 728.8804263608135,687.9051035586639 770.3018581734826,653.387243714773 Z" fill="url(#leaf26)" opacity="0.21" transform="rotate(139.8 770.3 722.4)"/>
    <path d="M 163.5237391416947,-7.8697003530748475 C 202.940209600773,24.977358362823722 216.07903308713242,70.96324056508172 163.5237391416947,123.51853451051943 C 110.968445196257,70.96324056508172 124.10726868261642,24.977358362823722 163.5237391416947,-7.8697003530748475 Z" fill="url(#leaf27)" opacity="0.18" transform="rotate(335.0 163.5 57.8)"/>
    <path d="M 912.8093654245558,555.7879899209651 C 954.687878778119,590.6867510489345 968.6473832293069,639.5450166280916 912.8093654245558,695.3830344328427 C 856.9713476198048,639.5450166280916 870.9308520709926,590.6867510489345 912.8093654245558,555.7879899209651 Z" fill="url(#leaf28)" opacity="0.23" transform="rotate(330.0 912.8 625.6)"/>
    <path d="M 534.1290783024449,619.4304434593182 C 557.9243224067684,639.2598135462545 565.8560704415429,667.0209316679652 534.1290783024449,698.7479238070632 C 502.4020861633469,667.0209316679652 510.3338341981214,639.2598135462545 534.1290783024449,619.4304434593182 Z" fill="url(#leaf29)" opacity="0.18" transform="rotate(108.0 534.1 659.1)"/>
    <path d="M 240.84593638026794,256.67732544941697 C 287.3331225721673,295.4166472759998 302.82885130280044,349.65169783321574 240.84593638026794,411.63461275574826 C 178.8630214577354,349.65169783321574 194.35875018836856,295.4166472759998 240.84593638026794,256.67732544941697 Z" fill="url(#leaf0)" opacity="0.18" transform="rotate(340.4 240.8 334.2)"/>
    <path d="M 1400.1903462100179,569.1881796323153 C 1420.6582310833423,586.2447503600857 1427.4808593744506,610.1239493789644 1400.1903462100179,637.4144625433971 C 1372.8998330455852,610.1239493789644 1379.7224613366934,586.2447503600857 1400.1903462100179,569.1881796323153 Z" fill="url(#leaf1)" opacity="0.21" transform="rotate(245.9 1400.2 603.3)"/>
    <path d="M 507.51777876119723,530.9471731278514 C 549.5649278985138,565.9864640756153 563.5806442776194,615.0414714024847 507.51777876119723,671.1043369189068 C 451.45491324477507,615.0414714024847 465.47062962388065,565.9864640756153 507.51777876119723,530.9471731278514 Z" fill="url(#leaf2)" opacity="0.20" transform="rotate(122.5 507.5 601.0)"/>
    <path d="M 259.5080019744088,81.75193988304443 C 292.6668228953089,109.38429065046118 303.7197632022756,148.06958172484462 259.5080019744088,192.28134295271144 C 215.29624074654197,148.06958172484462 226.3491810535087,109.38429065046118 259.5080019744088,81.75193988304443 Z" fill="url(#leaf3)" opacity="0.23" transform="rotate(268.8 259.5 137.0)"/>
    <path d="M 1226.174785872752,232.672579465252 C 1266.777868998631,266.5084820701513 1280.3122300405907,313.87874571701025 1226.174785872752,368.0161898848491 C 1172.0373417049132,313.87874571701025 1185.571702746873,266.5084820701513 1226.174785872752,232.672579465252 Z" fill="url(#leaf4)" opacity="0.19" transform="rotate(225.2 1226.2 300.3)"/>
    <path d="M 1346.811922606923,262.5908243235562 C 1384.7370448602437,294.1950928679901 1397.3787522780171,338.4410688301976 1346.811922606923,389.0078985012919 C 1296.2450929358288,338.4410688301976 1308.8868003536022,294.1950928679901 1346.811922606923,262.5908243235562 Z" fill="url(#leaf5)" opacity="0.21" transform="rotate(201.9 1346.8 325.8)"/>
    <path d="M 1847.9965725018858,285.83620317064845 C 1880.946867678087,313.29478248414955 1891.9302994034877,351.7367935230511 1847.9965725018858,395.67052042465286 C 1804.062845600284,351.7367935230511 1815.0462773256845,313.29478248414955 1847.9965725018858,285.83620317064845 Z" fill="url(#leaf6)" opacity="0.19" transform="rotate(184.1 1848.0 340.8)"/>
    <path d="M 635.014612644703,55.472200793409854 C 675.0070184666226,88.79920564500961 688.3378204072626,135.45701243724926 635.014612644703,188.78022019980887 C 581.6914048821434,135.45701243724926 595.0222068227833,88.79920564500961 635.014612644703,55.472200793409854 Z" fill="url(#leaf7)" opacity="0.18" transform="rotate(225.8 635.0 122.1)"/>
    <path d="M 1427.6635597992579,510.9854947908624 C 1461.2102711683763,538.9410875984611 1472.3925082914159,578.0789175290993 1427.6635597992579,622.8078660212572 C 1382.9346113070999,578.0789175290993 1394.1168484301395,538.9410875984611 1427.6635597992579,510.9854947908624 Z" fill="url(#leaf8)" opacity="0.18" transform="rotate(76.6 1427.7 566.9)"/>
    <path d="M 447.5688048551633,605.9625611974712 C 471.1865922333396,625.6440506792848 479.05918802606504,653.1981359538238 447.5688048551633,684.6885191247255 C 416.07842168426157,653.1981359538238 423.95101747698703,625.6440506792848 447.5688048551633,605.9625611974712 Z" fill="url(#leaf9)" opacity="0.20" transform="rotate(22.7 447.6 645.3)"/>
    <path d="M 1736.7510206341808,598.9069487482657 C 1773.7605678406978,629.7482380870298 1786.0970835762034,672.9260431612997 1736.7510206341808,722.2721061033224 C 1687.4049576921582,672.9260431612997 1699.7414734276638,629.7482380870298 1736.7510206341808,598.9069487482657 Z" fill="url(#leaf10)" opacity="0.16" transform="rotate(322.5 1736.8 660.6)"/>
    <path d="M 504.75651863607436,161.2348080096915 C 534.2930557542345,185.84858894149164 544.1385681269545,220.3078822460118 504.75651863607436,259.689931736892 C 465.37446914519415,220.3078822460118 475.2199815179142,185.84858894149164 504.75651863607436,161.2348080096915 Z" fill="url(#leaf11)" opacity="0.23" transform="rotate(335.8 504.8 210.5)"/>
    <path d="M 1782.7207607556438,19.030182040954642 C 1820.1256676833411,50.20093781403582 1832.5939699925736,93.83999589634946 1782.7207607556438,143.71320513327936 C 1732.847551518714,93.83999589634946 1745.3158538279465,50.20093781403582 1782.7207607556438,19.030182040954642 Z" fill="url(#leaf12)" opacity="0.19" transform="rotate(228.1 1782.7 81.4)"/>
    <path d="M 317.67229045724844,37.63977770115162 C 354.7104519971669,68.50491231775034 367.0565058438064,111.71610078098855 317.67229045724844,161.1003161675465 C 268.28807507069047,111.71610078098855 280.63412891733,68.50491231775034 317.67229045724844,37.63977770115162 Z" fill="url(#leaf13)" opacity="0.23" transform="rotate(134.1 317.7 99.4)"/>
    <path d="M 1523.1714333539169,390.10335509153543 C 1553.0671174524125,415.01642517361506 1563.0323454852444,449.89472328852656 1523.1714333539169,489.75563541985395 C 1483.3105212225894,449.89472328852656 1493.2757492554213,415.01642517361506 1523.1714333539169,390.10335509153543 Z" fill="url(#leaf14)" opacity="0.20" transform="rotate(160.1 1523.2 439.9)"/>
    <path d="M 822.9317508815612,368.1910729132653 C 842.6200773336194,384.5980116233138 849.1828528176388,407.56772581738176 822.9317508815612,433.81882775345935 C 796.6806489454837,407.56772581738176 803.2434244295031,384.5980116233138 822.9317508815612,368.1910729132653 Z" fill="url(#leaf15)" opacity="0.19" transform="rotate(343.6 822.9 401.0)"/>
    <path d="M 76.19866861314455,943.478316034253 C 111.27633518610827,972.7097048450561 122.96889071042952,1013.6336491801804 76.19866861314455,1060.4038712774654 C 29.428446515859576,1013.6336491801804 41.12100204018083,972.7097048450561 76.19866861314455,943.478316034253 Z" fill="url(#leaf16)" opacity="0.18" transform="rotate(209.7 76.2 1001.9)"/>
    <path d="M 274.1015737525297,663.857578162111 C 309.14288218044703,693.0586685187088 320.82331832308614,733.9401950179457 274.1015737525297,780.6619395885022 C 227.3798291819733,733.9401950179457 239.0602653246124,693.0586685187088 274.1015737525297,663.857578162111 Z" fill="url(#leaf17)" opacity="0.16" transform="rotate(317.9 274.1 722.3)"/>
    <path d="M 741.9031510933191,720.0272013701018 C 786.4070205070288,757.1137592148599 801.2416436449321,809.0349401975212 741.9031510933191,868.3734327491342 C 682.5646585417062,809.0349401975212 697.3992816796094,757.1137592148599 741.9031510933191,720.0272013701018 Z" fill="url(#leaf18)" opacity="0.18" transform="rotate(214.5 741.9 794.2)"/>
    <path d="M 396.6446693877242,257.60813977113867 C 437.8296323604944,291.92894224844713 451.5579533514178,339.97806571667905 396.6446693877242,394.8913496803726 C 341.73138542403063,339.97806571667905 355.45970641495404,291.92894224844713 396.6446693877242,257.60813977113867 Z" fill="url(#leaf19)" opacity="0.16" transform="rotate(153.7 396.6 326.2)"/>
    <path d="M 1178.4875518096508,802.5959178327743 C 1207.7446641144882,826.9768447534722 1217.4970348827674,861.1101424424493 1178.4875518096508,900.1196255155659 C 1139.4780687365342,861.1101424424493 1149.2304395048134,826.9768447534722 1178.4875518096508,802.5959178327743 Z" fill="url(#leaf20)" opacity="0.24" transform="rotate(176.4 1178.5 851.4)"/>
    <path d="M 1165.0251273232636,743.6112365375427 C 1185.941960263016,761.0419306540031 1192.9142379096002,785.4449024170474 1165.0251273232636,813.3340130033839 C 1137.136016736927,785.4449024170474 1144.1082943835113,761.0419306540031 1165.0251273232636,743.6112365375427 Z" fill="url(#leaf21)" opacity="0.19" transform="rotate(243.3 1165.0 778.5)"/>
    <path d="M 430.38803110121404,253.67142746495637 C 468.70471931569864,285.6020009770268 481.4769487205268,330.3048038939255 430.38803110121404,381.3937215132383 C 379.29911348190126,330.3048038939255 392.07134288672944,285.6020009770268 430.38803110121404,253.67142746495637 Z" fill="url(#leaf22)" opacity="0.23" transform="rotate(28.3 430.4 317.5)"/>
    <path d="M 1818.9164043804296,544.8872684155862 C 1843.4297892994264,565.3150891814166 1851.6009176057585,593.9140382535794 1818.9164043804296,626.5985514789082 C 1786.2318911551008,593.9140382535794 1794.403019461433,565.3150891814166 1818.9164043804296,544.8872684155862 Z" fill="url(#leaf23)" opacity="0.21" transform="rotate(71.1 1818.9 585.7)"/>
    <path d="M 1088.2136311255301,34.87449352177696 C 1120.6041042028792,61.86655441956776 1131.4009285619954,99.65543967647487 1088.2136311255301,142.84273711294014 C 1045.0263336890648,99.65543967647487 1055.823158048181,61.86655441956776 1088.2136311255301,34.87449352177696 Z" fill="url(#leaf24)" opacity="0.23" transform="rotate(44.2 1088.2 88.9)"/>
    <path d="M 1164.7604003566075,760.8663283472212 C 1202.8067512217442,792.571620734835 1215.4888681767898,836.9590300774944 1164.7604003566075,887.6874978976765 C 1114.0319325364253,836.9590300774944 1126.7140494914709,792.571620734835 1164.7604003566075,760.8663283472212 Z" fill="url(#leaf25)" opacity="0.22" transform="rotate(43.5 1164.8 824.3)"/>
    <path d="M 1851.913189818181,599.1841495717305 C 1898.7720580015825,638.2332063912316 1914.3916807293829,692.9018859385333 1851.913189818181,755.3803768497352 C 1789.4346989069793,692.9018859385333 1805.0543216347796,638.2332063912316 1851.913189818181,599.1841495717305 Z" fill="url(#leaf26)" opacity="0.23" transform="rotate(240.0 1851.9 677.3)"/>
    <path d="M 337.3365724406323,271.8145201264914 C 364.2659747636034,294.2556887289673 373.24244220459383,325.6733247724336 337.3365724406323,361.5791945363951 C 301.4307026766708,325.6733247724336 310.4071701176612,294.2556887289673 337.3365724406323,271.8145201264914 Z" fill="url(#leaf27)" opacity="0.22" transform="rotate(184.1 337.3 316.7)"/>
    <path d="M 1159.6135168980645,548.6234739587496 C 1178.1515503383241,564.0718351589659 1184.3308948184106,585.6995408392686 1159.6135168980645,610.4169187596146 C 1134.8961389777185,585.6995408392686 1141.075483457805,564.0718351589659 1159.6135168980645,548.6234739587496 Z" fill="url(#leaf28)" opacity="0.21" transform="rotate(9.7 1159.6 579.5)"/>
    <path d="M 365.63764671885474,176.957877764659 C 386.6922796961528,194.50340524574077 393.71049068858554,219.0671437192552 365.63764671885474,247.139987688986 C 337.56480274912394,219.0671437192552 344.58301374155667,194.50340524574077 365.63764671885474,176.957877764659 Z" fill="url(#leaf29)" opacity="0.20" transform="rotate(288.0 365.6 212.0)"/>
    <path d="M 1134.7148528194518,330.9994528549201 C 1168.0780526326191,358.8021193658928 1179.199119237008,397.72585248125455 1134.7148528194518,442.2101188988109 C 1090.2305864018956,397.72585248125455 1101.3516530062846,358.8021193658928 1134.7148528194518,330.9994528549201 Z" fill="url(#leaf0)" opacity="0.24" transform="rotate(340.7 1134.7 386.6)"/>
    <path d="M 1440.8765015205604,870.6806864806314 C 1467.8185571294127,893.1323994880083 1476.7992423323635,924.5647976983362 1440.8765015205604,960.4875385101394 C 1404.9537607087573,924.5647976983362 1413.934445911708,893.1323994880083 1440.8765015205604,870.6806864806314 Z" fill="url(#leaf1)" opacity="0.18" transform="rotate(20.6 1440.9 915.6)"/>
    <path d="M 282.7593186867944,311.7006730438787 C 306.42141339584373,331.4190853014197 314.30877829886015,359.02486246197725 282.7593186867944,390.574322074043 C 251.20985907472868,359.02486246197725 259.0972239777451,331.4190853014197 282.7593186867944,311.7006730438787 Z" fill="url(#leaf2)" opacity="0.24" transform="rotate(296.1 282.8 351.1)"/>
    <path d="M 1194.8248178188826,741.6149133706043 C 1237.9811906041937,777.5785573583637 1252.3666481992975,827.9276589412267 1194.8248178188826,885.4694893216416 C 1137.2829874384677,827.9276589412267 1151.6684450335715,777.5785573583637 1194.8248178188826,741.6149133706043 Z" fill="url(#leaf3)" opacity="0.20" transform="rotate(169.2 1194.8 813.5)"/>
    <path d="M 1649.8801492939529,379.3417431216784 C 1673.0003597617954,398.60858517821384 1680.7070965844096,425.5821640573634 1649.8801492939529,456.40911134782004 C 1619.0532020034962,425.5821640573634 1626.7599388261103,398.60858517821384 1649.8801492939529,379.3417431216784 Z" fill="url(#leaf4)" opacity="0.22" transform="rotate(8.7 1649.9 417.9)"/>
    <path d="M 1434.3643624879637,985.6382766862196 C 1453.2728293213786,1001.395332380732 1459.5756515991836,1023.4552103530493 1434.3643624879637,1048.6664994642692 C 1409.1530733767438,1023.4552103530493 1415.4558956545488,1001.395332380732 1434.3643624879637,985.6382766862196 Z" fill="url(#leaf5)" opacity="0.17" transform="rotate(119.3 1434.4 1017.2)"/>
    <path d="M 381.4858070101874,442.3092259262865 C 425.71854222243843,479.16983860316236 440.4627872931888,530.7746963507886 381.4858070101874,589.7516766337901 C 322.508826727186,530.7746963507886 337.25307179793634,479.16983860316236 381.4858070101874,442.3092259262865 Z" fill="url(#leaf6)" opacity="0.25" transform="rotate(112.5 381.5 516.0)"/>
    <path d="M 1627.7970824659403,255.446589602433 C 1672.7052399370607,292.87005416170007 1687.6746257607676,345.2629045446739 1627.7970824659403,405.1404478395012 C 1567.919539171113,345.2629045446739 1582.88892499482,292.87005416170007 1627.7970824659403,255.446589602433 Z" fill="url(#leaf7)" opacity="0.22" transform="rotate(115.2 1627.8 330.3)"/>
    <path d="M 799.1823659334256,848.1850692354218 C 843.98699246152,885.5222580088338 858.9218679708847,937.7943222916106 799.1823659334256,997.5338243290697 C 739.4428638959664,937.7943222916106 754.3777394053311,885.5222580088338 799.1823659334256,848.1850692354218 Z" fill="url(#leaf8)" opacity="0.15" transform="rotate(168.6 799.2 922.9)"/>
    <path d="M 1385.4628520724957,831.8458257098692 C 1415.773153922005,857.1044105844602 1425.8765878718414,892.4664294088875 1385.4628520724957,932.880165208233 C 1345.04911627315,892.4664294088875 1355.1525502229865,857.1044105844602 1385.4628520724957,831.8458257098692 Z" fill="url(#leaf9)" opacity="0.17" transform="rotate(176.6 1385.5 882.4)"/>
    <path d="M 830.4188650872062,249.53382341633622 C 850.6185767780303,266.36691649202294 857.3518140083049,289.9332467979844 830.4188650872062,316.8661957190832 C 803.4859161661075,289.9332467979844 810.2191533963821,266.36691649202294 830.4188650872062,249.53382341633622 Z" fill="url(#leaf10)" opacity="0.25" transform="rotate(275.1 830.4 283.2)"/>
    <path d="M 1193.822394222253,466.0513919813962 C 1231.0435283629758,497.06900376533184 1243.45057307655,540.4936602628417 1193.822394222253,590.1218391171386 C 1144.194215367956,540.4936602628417 1156.6012600815302,497.06900376533184 1193.822394222253,466.0513919813962 Z" fill="url(#leaf11)" opacity="0.23" transform="rotate(194.0 1193.8 528.1)"/>
    <path d="M 410.41276998994465,649.8921019012532 C 440.49834272706255,674.9634125155181 450.5268669727685,710.063247375489 410.41276998994465,750.1773443583129 C 370.2986730071208,710.063247375489 380.32719725282675,674.9634125155181 410.41276998994465,649.8921019012532 Z" fill="url(#leaf12)" opacity="0.16" transform="rotate(73.6 410.4 700.0)"/>
    <path d="M 1473.9446947279075,439.04541815094626 C 1499.9069350649645,460.68061843182704 1508.5610151773167,490.96989882506006 1473.9446947279075,525.5862192744693 C 1439.3283742784984,490.96989882506006 1447.9824543908505,460.68061843182704 1473.9446947279075,439.04541815094626 Z" fill="url(#leaf13)" opacity="0.18" transform="rotate(225.3 1473.9 482.3)"/>
    <path d="M 1456.3423932634942,713.5031496779652 C 1489.5521358415244,741.1779351596571 1500.6220500342013,779.9226348340256 1456.3423932634942,824.2022916047326 C 1412.062736492787,779.9226348340256 1423.132650685464,741.1779351596571 1456.3423932634942,713.5031496779652 Z" fill="url(#leaf14)" opacity="0.18" transform="rotate(339.1 1456.3 768.9)"/>
    <path d="M 164.9481120537163,308.0158284163715 C 199.21493974179032,336.5715181564332 210.637215637815,376.5494837925196 164.9481120537163,422.2385873766183 C 119.25900846961761,376.5494837925196 130.68128436564228,336.5715181564332 164.9481120537163,308.0158284163715 Z" fill="url(#leaf15)" opacity="0.24" transform="rotate(194.8 164.9 365.1)"/>
    <path d="M 134.44276412989979,441.9989302263008 C 176.1120268338455,476.72331581292224 190.0017810684941,525.3374556341922 134.44276412989979,580.8964725727866 C 78.88374719130547,525.3374556341922 92.77350142595407,476.72331581292224 134.44276412989979,441.9989302263008 Z" fill="url(#leaf16)" opacity="0.24" transform="rotate(41.1 134.4 511.4)"/>
    <path d="M 1859.163549551411,909.0523069560927 C 1901.0049525399038,943.9201427798366 1914.9520868694015,992.7351129330782 1859.163549551411,1048.5236502510686 C 1803.3750122334206,992.7351129330782 1817.3221465629183,943.9201427798366 1859.163549551411,909.0523069560927 Z" fill="url(#leaf17)" opacity="0.21" transform="rotate(281.9 1859.2 978.8)"/>
    <path d="M 1114.745200238875,436.209640536807 C 1142.0795651146875,458.98827793331753 1151.1910200732918,490.8783702884322 1114.745200238875,527.324190122849 C 1078.2993804044581,490.8783702884322 1087.4108353630625,458.98827793331753 1114.745200238875,436.209640536807 Z" fill="url(#leaf18)" opacity="0.22" transform="rotate(288.8 1114.7 481.8)"/>
    <path d="M 1028.1807933564558,141.11319869096513 C 1056.855697993741,165.0089525553695 1066.4139995395028,198.46300796553558 1028.1807933564558,236.69621414858256 C 989.9475871734088,198.46300796553558 999.5058887191706,165.0089525553695 1028.1807933564558,141.11319869096513 Z" fill="url(#leaf19)" opacity="0.23" transform="rotate(358.5 1028.2 188.9)"/>
    <path d="M 944.4425998540373,698.211161333081 C 978.4244336293856,726.5293561458712 989.7517115545016,766.1748288837775 944.4425998540373,811.483940584242 C 899.133488153573,766.1748288837775 910.4607660786891,726.5293561458712 944.4425998540373,698.211161333081 Z" fill="url(#leaf20)" opacity="0.17" transform="rotate(75.0 944.4 754.8)"/>
    <path d="M 1676.8392755945263,558.8447007385485 C 1723.1348607101754,597.4243550015894 1738.566722415392,651.4358709698469 1676.8392755945263,713.1633177907124 C 1615.1118287736606,651.4358709698469 1630.5436904788771,597.4243550015894 1676.8392755945263,558.8447007385485 Z" fill="url(#leaf21)" opacity="0.16" transform="rotate(288.3 1676.8 636.0)"/>
    <path d="M 1004.0646479396601,945.8052074344118 C 1027.8168903610492,965.5987427855695 1035.7343045015123,993.3096922771902 1004.0646479396601,1024.9793488390424 C 972.3949913778079,993.3096922771902 980.3124055182709,965.5987427855695 1004.0646479396601,945.8052074344118 Z" fill="url(#leaf22)" opacity="0.24" transform="rotate(120.3 1004.1 985.4)"/>
    <path d="M 600.9237418789653,754.0988737853088 C 627.4784192490245,776.2277715936914 636.3299783723775,807.208228525427 600.9237418789653,842.6144650188392 C 565.5175053855531,807.208228525427 574.3690645089061,776.2277715936914 600.9237418789653,754.0988737853088 Z" fill="url(#leaf23)" opacity="0.16" transform="rotate(306.5 600.9 798.4)"/>
    <path d="M 1861.3716179995006,247.16941547285 C 1901.127868982404,280.2996246252694 1914.3799526433716,326.68191743865657 1861.3716179995006,379.69025208252765 C 1808.3632833556296,326.68191743865657 1821.6153670165972,280.2996246252694 1861.3716179995006,247.16941547285 Z" fill="url(#leaf24)" opacity="0.20" transform="rotate(319.9 1861.4 313.4)"/>
    <path d="M 1178.2605345978213,661.9757650790021 C 1203.7207846172366,683.1926400951816 1212.2075346237084,712.8962651178327 1178.2605345978213,746.8432651437198 C 1144.3135345719343,712.8962651178327 1152.800284578406,683.1926400951816 1178.2605345978213,661.9757650790021 Z" fill="url(#leaf25)" opacity="0.23" transform="rotate(253.1 1178.3 704.4)"/>
    <path d="M 671.6370576409618,620.3302966569513 C 716.9521899692835,658.0929069305528 732.0572340787242,710.9605613135948 671.6370576409618,771.3807377513572 C 611.2168812031994,710.9605613135948 626.32192531264,658.0929069305528 671.6370576409618,620.3302966569513 Z" fill="url(#leaf26)" opacity="0.21" transform="rotate(206.6 671.6 695.9)"/>
    <path d="M 53.80753302611834,531.5440838966279 C 79.62545183260191,553.0590162353641 88.23142476809643,583.1799215095949 53.80753302611834,617.603813251573 C 19.383641284140253,583.1799215095949 27.989614219634777,553.0590162353641 53.80753302611834,531.5440838966279 Z" fill="url(#leaf27)" opacity="0.21" transform="rotate(136.9 53.8 574.6)"/>
    <path d="M 1607.9997979670445,314.9273736471691 C 1650.8387815307888,350.62652661695597 1665.1184427187036,400.60534077465763 1607.9997979670445,457.72398552631665 C 1550.8811532153854,400.60534077465763 1565.1608144033003,350.62652661695597 1607.9997979670445,314.9273736471691 Z" fill="url(#leaf28)" opacity="0.20" transform="rotate(264.2 1608.0 386.3)"/>
    <path d="M 912.0315524535372,250.62637719340697 C 950.7134376225468,282.86128150091497 963.60739934555,327.9901475314262 912.0315524535372,379.56599442343907 C 860.4557055615244,327.9901475314262 873.3496672845275,282.86128150091497 912.0315524535372,250.62637719340697 Z" fill="url(#leaf29)" opacity="0.22" transform="rotate(160.7 912.0 315.1)"/>
    <path d="M 1716.004780620939,80.995286792284 C 1745.7370471593988,105.77217557433374 1755.6478026722186,140.4598198692034 1716.004780620939,180.102841920483 C 1676.3617585696595,140.4598198692034 1686.2725140824793,105.77217557433374 1716.004780620939,80.995286792284 Z" fill="url(#leaf0)" opacity="0.19" transform="rotate(322.5 1716.0 130.5)"/>
    <path d="M 1789.1821402378728,261.35652010145895 C 1814.3477958075246,282.3278997428354 1822.736347664075,311.6878312407625 1789.1821402378728,345.24203866696485 C 1755.6279328116705,311.6878312407625 1764.016484668221,282.3278997428354 1789.1821402378728,261.35652010145895 Z" fill="url(#leaf1)" opacity="0.24" transform="rotate(329.8 1789.2 303.3)"/>
    <path d="M 686.6120505861783,586.8256987421562 C 732.4863568034424,625.0542872565429 747.7777922091971,678.5743111766843 686.6120505861783,739.7400527997031 C 625.4463089631595,678.5743111766843 640.7377443689142,625.0542872565429 686.6120505861783,586.8256987421562 Z" fill="url(#leaf2)" opacity="0.21" transform="rotate(253.9 686.6 663.3)"/>
    <path d="M 1402.239147293729,283.86910521627755 C 1427.4115413979587,304.84610030313553 1435.8023394327017,334.2138934247367 1402.239147293729,367.7770855637095 C 1368.6759551547564,334.2138934247367 1377.0667531894994,304.84610030313553 1402.239147293729,283.86910521627755 Z" fill="url(#leaf3)" opacity="0.16" transform="rotate(242.2 1402.2 325.8)"/>
    <path d="M 1111.0914137435284,135.7133612986538 C 1146.0050181499641,164.8080316373502 1157.6428862854427,205.5405701115252 1111.0914137435284,252.09204265343948 C 1064.539941201614,205.5405701115252 1076.1778093370926,164.8080316373502 1111.0914137435284,135.7133612986538 Z" fill="url(#leaf4)" opacity="0.22" transform="rotate(319.8 1111.1 193.9)"/>
    <path d="M 1454.0966505686456,454.5983025309894 C 1487.4565638898196,482.39823029863436 1498.5765349968776,521.3181291733373 1454.0966505686456,565.7980136015693 C 1409.6167661404136,521.3181291733373 1420.7367372474716,482.39823029863436 1454.0966505686456,454.5983025309894 Z" fill="url(#leaf5)" opacity="0.21" transform="rotate(278.9 1454.1 510.2)"/>
    <path d="M 1079.131763220451,747.4309897296365 C 1105.0462837761745,769.0264235260728 1113.6844572947489,799.2600308410836 1079.131763220451,833.8127249153816 C 1044.579069146153,799.2600308410836 1053.2172426647273,769.0264235260728 1079.131763220451,747.4309897296365 Z" fill="url(#leaf6)" opacity="0.22" transform="rotate(251.5 1079.1 790.6)"/>
    <path d="M 1518.4639609133824,489.07700010862436 C 1537.5489805866614,504.9811831696902 1543.9106538110877,527.2470394551824 1518.4639609133824,552.6937323528878 C 1493.017268015677,527.2470394551824 1499.3789412401034,504.9811831696902 1518.4639609133824,489.07700010862436 Z" fill="url(#leaf7)" opacity="0.21" transform="rotate(105.1 1518.5 520.9)"/>
    <path d="M 137.8579802806775,576.7782423825576 C 173.8909367294973,606.8057060899074 185.90192221243723,648.8441552801972 137.8579802806775,696.888097211957 C 89.81403834891778,648.8441552801972 101.82502383185772,606.8057060899074 137.8579802806775,576.7782423825576 Z" fill="url(#leaf8)" opacity="0.22" transform="rotate(222.3 137.9 636.8)"/>
    <path d="M 1555.274718479038,297.4028354487758 C 1589.1560123515385,325.6372470091929 1600.4497769757054,365.16542319377675 1555.274718479038,410.340481690444 C 1510.0996599823707,365.16542319377675 1521.3934246065376,325.6372470091929 1555.274718479038,297.4028354487758 Z" fill="url(#leaf9)" opacity="0.22" transform="rotate(100.5 1555.3 353.9)"/>
    <path d="M 186.7555743560106,597.2993811779615 C 221.14957084590102,625.9610449195369 232.61423634253117,666.0873741577424 186.7555743560106,711.946036144263 C 140.89691236949005,666.0873741577424 152.3615778661202,625.9610449195369 186.7555743560106,597.2993811779615 Z" fill="url(#leaf10)" opacity="0.21" transform="rotate(133.2 186.8 654.6)"/>
    <path d="M 1780.2354390037394,339.85849520753436 C 1822.0956980642582,374.7420444246334 1836.0491177510978,423.579013328572 1780.2354390037394,479.3926920759304 C 1724.421760256381,423.579013328572 1738.3751799432207,374.7420444246334 1780.2354390037394,339.85849520753436 Z" fill="url(#leaf11)" opacity="0.23" transform="rotate(213.2 1780.2 409.6)"/>
    <path d="M 1697.9767721149426,855.1403321260162 C 1730.2595738686477,882.0426669207704 1741.0205077865494,919.7059356334264 1697.9767721149426,962.7496713050331 C 1654.9330364433358,919.7059356334264 1665.6939703612375,882.0426669207704 1697.9767721149426,855.1403321260162 Z" fill="url(#leaf12)" opacity="0.24" transform="rotate(317.2 1698.0 908.9)"/>
    <path d="M 369.76911192341004,391.57751812272124 C 388.43718652484546,407.13424695725075 394.6598780586573,428.9136673255921 369.76911192341004,453.8044334608393 C 344.8783457881628,428.9136673255921 351.1010373219746,407.13424695725075 369.76911192341004,391.57751812272124 Z" fill="url(#leaf13)" opacity="0.17" transform="rotate(238.7 369.8 422.7)"/>
    <path d="M 1212.7265825833063,239.45063372920626 C 1249.1589145882838,269.8109104000208 1261.3030252566095,312.3152977391612 1212.7265825833063,360.89174041246457 C 1164.150139910003,312.3152977391612 1176.2942505783287,269.8109104000208 1212.7265825833063,239.45063372920626 Z" fill="url(#leaf14)" opacity="0.23" transform="rotate(215.5 1212.7 300.2)"/>
    <path d="M 238.64440749102215,750.8169709463511 C 280.2770188912359,785.5108137798626 294.1545560246405,834.0821937467786 238.64440749102215,889.5923422803969 C 183.13425895740383,834.0821937467786 197.01179609080842,785.5108137798626 238.64440749102215,750.8169709463511 Z" fill="url(#leaf15)" opacity="0.20" transform="rotate(270.5 238.6 820.2)"/>
    <path d="M 821.6076710845064,952.7609890776235 C 852.8291594747021,978.7788960694533 863.236322271434,1015.203965858015 821.6076710845064,1056.8326170449427 C 779.9790198975787,1015.203965858015 790.3861826943106,978.7788960694533 821.6076710845064,952.7609890776235 Z" fill="url(#leaf16)" opacity="0.20" transform="rotate(98.8 821.6 1004.8)"/>
    <path d="M 1324.6181515704395,236.33116654052333 C 1368.9689631343656,273.29017617712844 1383.7525669890076,325.03278966837553 1324.6181515704395,384.1672050869437 C 1265.4837361518714,325.03278966837553 1280.2673400065135,273.29017617712844 1324.6181515704395,236.33116654052333 Z" fill="url(#leaf17)" opacity="0.24" transform="rotate(47.7 1324.6 310.2)"/>
    <path d="M 443.3535187274552,503.8494109811562 C 465.1809362638797,522.0389255948434 472.45674210935454,547.5042460540052 443.3535187274552,576.6074694359046 C 414.25029534555586,547.5042460540052 421.5261011910307,522.0389255948434 443.3535187274552,503.8494109811562 Z" fill="url(#leaf18)" opacity="0.20" transform="rotate(301.2 443.4 540.2)"/>
    <path d="M 922.6694428077565,596.0215461282585 C 957.7962832612965,625.2939131728752 969.5052300791432,666.2752270353386 922.6694428077565,713.1110143067253 C 875.8336555363697,666.2752270353386 887.5426023542165,625.2939131728752 922.6694428077565,596.0215461282585 Z" fill="url(#leaf19)" opacity="0.20" transform="rotate(50.1 922.7 654.6)"/>
    <path d="M 859.7882154379954,118.725174710351 C 877.9820246926845,133.88668242259186 884.0466277775809,155.1127932197291 859.7882154379954,179.3712055593145 C 835.52980309841,155.1127932197291 841.5944061833063,133.88668242259186 859.7882154379954,118.725174710351 Z" fill="url(#leaf20)" opacity="0.18" transform="rotate(68.9 859.8 149.0)"/>
    <path d="M 1847.8654756569733,945.3646605804225 C 1882.2599960042837,974.026760869848 1893.724836120054,1014.1537012750435 1847.8654756569733,1060.0130617381242 C 1802.0061151938926,1014.1537012750435 1813.470955309663,974.026760869848 1847.8654756569733,945.3646605804225 Z" fill="url(#leaf21)" opacity="0.21" transform="rotate(291.2 1847.9 1002.7)"/>
    <path d="M 1754.946993787308,721.775407200415 C 1794.3470780303528,754.6088107362857 1807.4804394447012,800.5755756865047 1754.946993787308,853.1090213438979 C 1702.4135481299147,800.5755756865047 1715.5469095442631,754.6088107362857 1754.946993787308,721.775407200415 Z" fill="url(#leaf22)" opacity="0.19" transform="rotate(203.2 1754.9 787.4)"/>
    <path d="M 1512.969131601752,765.0638661504947 C 1535.9366861434012,784.2034949352023 1543.5925376572843,810.9989752337931 1512.969131601752,841.6223812893254 C 1482.3457255462197,810.9989752337931 1490.0015770601028,784.2034949352023 1512.969131601752,765.0638661504947 Z" fill="url(#leaf23)" opacity="0.21" transform="rotate(263.4 1513.0 803.3)"/>
    <path d="M 1087.6688307356565,12.828105352758499 C 1117.7546290676585,37.89960396276018 1127.7832285116592,72.99970201676254 1087.6688307356565,113.11409979276523 C 1047.5544329596537,72.99970201676254 1057.5830324036544,37.89960396276018 1087.6688307356565,12.828105352758499 Z" fill="url(#leaf24)" opacity="0.22" transform="rotate(321.2 1087.7 63.0)"/>
    <path d="M 662.3329523689962,395.4566194266089 C 699.4056438739357,426.35052901405845 711.7632077089156,469.6020024364879 662.3329523689962,519.0322577764073 C 612.9026970290768,469.6020024364879 625.2602608640567,426.35052901405845 662.3329523689962,395.4566194266089 Z" fill="url(#leaf25)" opacity="0.17" transform="rotate(339.6 662.3 457.2)"/>
    <path d="M 1789.1080847864948,372.91822421095856 C 1815.304824274255,394.7488404507587 1824.037070770175,425.31170318647884 1789.1080847864948,460.24068917015904 C 1754.1790988028147,425.31170318647884 1762.9113452987347,394.7488404507587 1789.1080847864948,372.91822421095856 Z" fill="url(#leaf26)" opacity="0.22" transform="rotate(53.7 1789.1 416.6)"/>
    <path d="M 298.6630117281153,10.070348871281936 C 341.99972555078335,46.18427705683865 356.44529682500604,96.74377651661806 298.6630117281153,154.5260616135088 C 240.88072663122455,96.74377651661806 255.32629790544723,46.18427705683865 298.6630117281153,10.070348871281936 Z" fill="url(#leaf27)" opacity="0.18" transform="rotate(265.1 298.7 82.3)"/>
    <path d="M 1653.3048302077232,347.8750720588528 C 1679.887510941129,370.02730600335764 1688.7484045189308,401.04043352566435 1653.3048302077232,436.4840078368721 C 1617.8612558965156,401.04043352566435 1626.7221494743173,370.02730600335764 1653.3048302077232,347.8750720588528 Z" fill="url(#leaf28)" opacity="0.19" transform="rotate(259.6 1653.3 392.2)"/>
    <path d="M 894.7791527086214,259.8830379671955 C 929.685535144633,288.9716899972052 941.3209959566369,329.69580283921874 894.7791527086214,376.2376460872342 C 848.2373094606058,329.69580283921874 859.8727702726097,288.9716899972052 894.7791527086214,259.8830379671955 Z" fill="url(#leaf29)" opacity="0.24" transform="rotate(288.0 894.8 318.1)"/>
    <path d="M 1422.4913681003252,540.7513554807616 C 1445.8401386801736,560.2086642973021 1453.6230622067899,587.4488966404587 1422.4913681003252,618.5805907469233 C 1391.3596739938605,587.4488966404587 1399.1425975204768,560.2086642973021 1422.4913681003252,540.7513554807616 Z" fill="url(#leaf0)" opacity="0.21" transform="rotate(56.2 1422.5 579.7)"/>
    <path d="M 592.2340847447465,741.7808820790875 C 633.1094365618889,775.8436752600395 646.7345538342697,823.5315857133722 592.2340847447465,878.0320548028955 C 537.7336156552233,823.5315857133722 551.3587329276041,775.8436752600395 592.2340847447465,741.7808820790875 Z" fill="url(#leaf1)" opacity="0.24" transform="rotate(263.7 592.2 809.9)"/>
    <path d="M 1549.826927154444,436.3353940110607 C 1589.7043277672883,469.5665611884308 1602.9967946382362,516.090195236749 1549.826927154444,569.2600627205412 C 1496.657059670652,516.090195236749 1509.9495265415999,469.5665611884308 1549.826927154444,436.3353940110607 Z" fill="url(#leaf2)" opacity="0.16" transform="rotate(288.2 1549.8 502.8)"/>
    <path d="M 785.7386924903367,800.615957679844 C 806.1268003000694,817.6060475212879 812.922836236647,841.3921732993094 785.7386924903367,868.5763170456197 C 758.5545487440264,841.3921732993094 765.350584680604,817.6060475212879 785.7386924903367,800.615957679844 Z" fill="url(#leaf3)" opacity="0.20" transform="rotate(107.3 785.7 834.6)"/>
    <path d="M 897.1203118601429,588.3026758591304 C 936.8330410654378,621.3966168635427 950.0706174672027,667.72813426972 897.1203118601429,720.6784398767797 C 844.1700062530831,667.72813426972 857.407582654848,621.3966168635427 897.1203118601429,588.3026758591304 Z" fill="url(#leaf4)" opacity="0.16" transform="rotate(11.6 897.1 654.5)"/>
    <path d="M 1829.1311019593338,593.0511635785415 C 1862.2705527466449,620.6673725679675 1873.3170363424153,659.3300651531638 1829.1311019593338,703.5159995362453 C 1784.9451675762523,659.3300651531638 1795.9916511720228,620.6673725679675 1829.1311019593338,593.0511635785415 Z" fill="url(#leaf5)" opacity="0.21" transform="rotate(31.0 1829.1 648.3)"/>
    <path d="M 767.8821876060281,151.69928437314599 C 797.0273958392693,175.98695790084702 806.7424652503497,209.98970083962845 767.8821876060281,248.8499784839501 C 729.0219099617065,209.98970083962845 738.7369793727869,175.98695790084702 767.8821876060281,151.69928437314599 Z" fill="url(#leaf6)" opacity="0.21" transform="rotate(354.0 767.9 200.3)"/>
    <path d="M 1058.2080338586575,209.40194219049107 C 1084.4138480987904,231.2401207239352 1093.149119512168,261.813570670757 1058.2080338586575,296.7546563242676 C 1023.2669482051468,261.813570670757 1032.0022196185246,231.2401207239352 1058.2080338586575,209.40194219049107 Z" fill="url(#leaf7)" opacity="0.17" transform="rotate(198.8 1058.2 253.1)"/>
    <path d="M 831.711289829444,413.74138684069396 C 858.0130272890826,435.65950139039285 866.7802731089622,466.3448617599713 831.711289829444,501.4138450394895 C 796.6423065499258,466.3448617599713 805.4095523698054,435.65950139039285 831.711289829444,413.74138684069396 Z" fill="url(#leaf8)" opacity="0.23" transform="rotate(332.4 831.7 457.6)"/>
    <path d="M 1773.4424782667538,-22.917902571921573 C 1819.8011241437268,15.714302325555927 1835.2540061027178,69.79938918202443 1773.4424782667538,131.6109170179884 C 1711.6309504307899,69.79938918202443 1727.0838323897808,15.714302325555927 1773.4424782667538,-22.917902571921573 Z" fill="url(#leaf9)" opacity="0.18" transform="rotate(155.0 1773.4 54.3)"/>
    <path d="M 399.00697941167005,422.05751752410197 C 425.81003595996845,444.39339798101736 434.7443881427346,475.6636306206988 399.00697941167005,511.4010393517634 C 363.2695706806055,475.6636306206988 372.20392286337164,444.39339798101736 399.00697941167005,422.05751752410197 Z" fill="url(#leaf10)" opacity="0.25" transform="rotate(271.7 399.0 466.7)"/>
    <path d="M 1450.8929502670617,560.8063914980589 C 1483.7581916799725,588.1940926754845 1494.7132721509427,626.5368743238803 1450.8929502670617,670.3571962077613 C 1407.0726283831807,626.5368743238803 1418.027708854151,588.1940926754845 1450.8929502670617,560.8063914980589 Z" fill="url(#leaf11)" opacity="0.23" transform="rotate(211.0 1450.9 615.6)"/>
    <path d="M 253.75474567430135,813.8987494655664 C 271.7976265557941,828.9344835334771 277.8119201829584,849.984511228552 253.75474567430135,874.041685737209 C 229.6975711656443,849.984511228552 235.71186479280857,828.9344835334771 253.75474567430135,813.8987494655664 Z" fill="url(#leaf12)" opacity="0.18" transform="rotate(125.8 253.8 844.0)"/>
    <path d="M 1670.627325141271,849.7432102192855 C 1713.908589223356,885.8109302876898 1728.335677250718,936.3057383834557 1670.627325141271,994.0140904929025 C 1612.9189730318242,936.3057383834557 1627.346061059186,885.8109302876898 1670.627325141271,849.7432102192855 Z" fill="url(#leaf13)" opacity="0.15" transform="rotate(151.0 1670.6 921.9)"/>
    <path d="M 1136.925487869972,3.7754533612554013 C 1168.4260693705673,30.025937945084895 1178.926263204099,66.77661636244619 1136.925487869972,108.77739169657337 C 1094.9247125358447,66.77661636244619 1105.4249063693765,30.025937945084895 1136.925487869972,3.7754533612554013 Z" fill="url(#leaf14)" opacity="0.24" transform="rotate(136.6 1136.9 56.3)"/>
    </g>

    <!-- Text with SOLID fill only (ThorVG compatible) -->
    <text x="871.4" y="863.1"
          font-family="Arial, Helvetica, sans-serif"
          font-size="1080px"
          font-weight="bold"
          fill="#FF4500"
          text-anchor="middle"
          transform="rotate(2.5 960.0 540.0)">
      A
    </text>
  </g>

  <!-- Frame counter -->
  <text x="960.0" y="1050.0"
        font-family="monospace"
        font-size="24px"
        fill="#FFFFFF"
        text-anchor="middle"
        opacity="0.7">
    Frame 00036 - Compatible
  </text>
</svg>