<?xml version="1.0" encoding="UTF-8"?>
<svg xmlns="http://www.w3.org/2000/svg" viewBox="0 0 1920 1080" width="1920" height="1080">
  <defs>
    <linearGradient id="bgGrad" x1="0%" y1="0%" x2="100%" y2="100%">
      <stop offset="0%" stop-color="#FFE66D"/>
      <stop offset="100%" stop-color="#32CD32"/>
    </linearGradient>
    <clipPath id="complexClip"><polygon points="1417.1,540.0 1387.8,570.4 1384.5,601.3 1473.5,654.4 1340.1,657.5 1365.1,705.6 1344.8,743.3 1212.9,711.9 1252.1,798.9 1175.4,797.5 1145.1,860.5 1046.5,795.0 988.2,792.2 935.6,758.5 862.5,827.4 840.8,746.3 769.0,768.4 618.9,842.4 625.2,767.7 564.0,749.2 564.7,701.6 448.2,698.3 385.6,667.9 528.2,602.4 517.8,571.4 466.2,540.0 368.8,498.0 413.4,461.1 393.3,413.8 374.8,359.0 428.7,322.9 565.5,331.6 696.2,360.6 603.1,223.7 784.5,330.2 774.0,218.0 858.3,240.2 920.2,184.2 990.3,268.7 1078.8,189.8 1157.8,197.6 1123.5,344.5 1191.9,334.5 1235.8,352.4 1336.7,341.0 1393.8,362.7 1354.7,417.9 1561.5,406.0 1602.2,447.2 1604.4,494.2"/></clipPath>
    <radialGradient id="leaf0" cx="50%" cy="50%" r="70%">
      <stop offset="0%" stop-color="#DC143C"/>
      <stop offset="50%" stop-color="#FFE66D"/>
      <stop offset="100%" stop-color="#FFD700"/>
    </radialGradient>
    <radialGradient id="leaf1" cx="50%" cy="50%" r="70%">
      <stop offset="0%" stop-color="#7B68EE"/>
      <stop offset="50%" stop-color="#00CED1"/>
      <stop offset="100%" stop-color="#32CD32"/>
    </radialGradient>
    <radialGradient id="leaf2" cx="50%" cy="50%" r="70%">
      <stop offset="0%" stop-color="#FF4500"/>
      <stop offset="50%" stop-color="#7B68EE"/>
      <stop offset="100%" stop-color="#00FA9A"/>
    </radialGradient>
    <radialGradient id="leaf3" cx="50%" cy="50%" r="70%">
      <stop offset="0%" stop-color="#DC143C"/>
      <stop offset="50%" stop-color="#00CED1"/>
      <stop offset="100%" stop-color="#FF6B6B"/>
    </radialGradient>
    <radialGradient id="leaf4" cx="50%" cy="50%" r="70%">
      <stop offset="0%" stop-color="#DC143C"/>
      <stop offset="50%" stop-color="#45B7D1"/>
      <stop offset="100%" stop-color="#FF6B6B"/>
    </radialGradient>
    <radialGradient id="leaf5" cx="50%" cy="50%" r="70%">
      <stop offset="0%" stop-color="#FFD700"/>
      <stop offset="50%" stop-color="#45B7D1"/>
      <stop offset="100%" stop-color="#FF6B6B"/>
    </radialGradient>
    <radialGradient id="leaf6" cx="50%" cy="50%" r="70%">
      <stop offset="0%" stop-color="#7B68EE"/>
      <stop offset="50%" stop-color="#00FA9A"/>
      <stop offset="100%" stop-color="#FF1493"/>
    </radialGradient>
    <radialGradient id="leaf7" cx="50%" cy="50%" r="70%">
      <stop offset="0%" stop-color="#96E6A1"/>
      <stop offset="50%" stop-color="#32CD32"/>
      <stop offset="100%" stop-color="#00CED1"/>
    </radialGradient>
    <radialGradient id="leaf8" cx="50%" cy="50%" r="70%">
      <stop offset="0%" stop-color="#4ECDC4"/>
      <stop offset="50%" stop-color="#FFE66D"/>
      <stop offset="100%" stop-color="#45B7D1"/>
    </radialGradient>
    <radialGradient id="leaf9" cx="50%" cy="50%" r="70%">
      <stop offset="0%" stop-color="#32CD32"/>
      <stop offset="50%" stop-color="#FF4500"/>
      <stop offset="100%" stop-color="#FF6B6B"/>
    </radialGradient>
    <radialGradient id="leaf10" cx="50%" cy="50%" r="70%">
      <stop offset="0%" stop-color="#00CED1"/>
      <stop offset="50%" stop-color="#FF69B4"/>
      <stop offset="100%" stop-color="#96E6A1"/>
    </radialGradient>
    <radialGradient id="leaf11" cx="50%" cy="50%" r="70%">
      <stop offset="0%" stop-color="#32CD32"/>
      <stop offset="50%" stop-color="#FFE66D"/>
      <stop offset="100%" stop-color="#00FA9A"/>
    </radialGradient>
    <radialGradient id="leaf12" cx="50%" cy="50%" r="70%">
      <stop offset="0%" stop-color="#FFD700"/>
      <stop offset="50%" stop-color="#FF69B4"/>
      <stop offset="100%" stop-color="#45B7D1"/>
    </radialGradient>
    <radialGradient id="leaf13" cx="50%" cy="50%" r="70%">
      <stop offset="0%" stop-color="#00CED1"/>
      <stop offset="50%" stop-color="#FF69B4"/>
      <stop offset="100%" stop-color="#7B68EE"/>
    </radialGradient>
    <radialGradient id="leaf14" cx="50%" cy="50%" r="70%">
      <stop offset="0%" stop-color="#32CD32"/>
      <stop offset="50%" stop-color="#45B7D1"/>
      <stop offset="100%" stop-color="#FF1493"/>
    </radialGradient>
    <radialGradient id="leaf15" cx="50%" cy="50%" r="70%">
      <stop offset="0%" stop-color="#FF6B6B"/>
      <stop offset="50%" stop-color="#FF1493"/>
      <stop offset="100%" stop-color="#4ECDC4"/>
    </radialGradient>
    <radialGradient id="leaf16" cx="50%" cy="50%" r="70%">
      <stop offset="0%" stop-color="#FFE66D"/>
      <stop offset="50%" stop-color="#00FA9A"/>
      <stop offset="100%" stop-color="#4ECDC4"/>
    </radialGradient>
    <radialGradient id="leaf17" cx="50%" cy="50%" r="70%">
      <stop offset="0%" stop-color="#FF4500"/>
      <stop offset="50%" stop-color="#32CD32"/>
      <stop offset="100%" stop-color="#9370DB"/>
    </radialGradient>
    <radialGradient id="leaf18" cx="50%" cy="50%" r="70%">
      <stop offset="0%" stop-color="#DC143C"/>
      <stop offset="50%" stop-color="#00FA9A"/>
      <stop offset="100%" stop-color="#45B7D1"/>
    </radialGradient>
    <radialGradient id="leaf19" cx="50%" cy="50%" r="70%">
      <stop offset="0%" stop-color="#00CED1"/>
      <stop offset="50%" stop-color="#FF6B6B"/>
      <stop offset="100%" stop-color="#7B68EE"/>
    </radialGradient>
    <radialGradient id="leaf20" cx="50%" cy="50%" r="70%">
      <stop offset="0%" stop-color="#4ECDC4"/>
      <stop offset="50%" stop-color="#DC143C"/>
      <stop offset="100%" stop-color="#32CD32"/>
    </radialGradient>
    <radialGradient id="leaf21" cx="50%" cy="50%" r="70%">
      <stop offset="0%" stop-color="#96E6A1"/>
      <stop offset="50%" stop-color="#DC143C"/>
      <stop offset="100%" stop-color="#FF1493"/>
    </radialGradient>
    <radialGradient id="leaf22" cx="50%" cy="50%" r="70%">
      <stop offset="0%" stop-color="#4ECDC4"/>
      <stop offset="50%" stop-color="#00CED1"/>
      <stop offset="100%" stop-color="#96E6A1"/>
    </radialGradient>
    <radialGradient id="leaf23" cx="50%" cy="50%" r="70%">
      <stop offset="0%" stop-color="#00CED1"/>
      <stop offset="50%" stop-color="#FFE66D"/>
      <stop offset="100%" stop-color="#FFD700"/>
    </radialGradient>
    <radialGradient id="leaf24" cx="50%" cy="50%" r="70%">
      <stop offset="0%" stop-color="#FF69B4"/>
      <stop offset="50%" stop-color="#00CED1"/>
      <stop offset="100%" stop-color="#FFE66D"/>
    </radialGradient>
    <radialGradient id="leaf25" cx="50%" cy="50%" r="70%">
      <stop offset="0%" stop-color="#00FA9A"/>
      <stop offset="50%" stop-color="#9370DB"/>
      <stop offset="100%" stop-color="#96E6A1"/>
    </radialGradient>
    <radialGradient id="leaf26" cx="50%" cy="50%" r="70%">
      <stop offset="0%" stop-color="#DC143C"/>
      <stop offset="50%" stop-color="#FF1493"/>
      <stop offset="100%" stop-color="#7B68EE"/>
    </radialGradient>
    <radialGradient id="leaf27" cx="50%" cy="50%" r="70%">
      <stop offset="0%" stop-color="#FF69B4"/>
      <stop offset="50%" stop-color="#7B68EE"/>
      <stop offset="100%" stop-color="#9370DB"/>
    </radialGradient>
    <radialGradient id="leaf28" cx="50%" cy="50%" r="70%">
      <stop offset="0%" stop-color="#96E6A1"/>
      <stop offset="50%" stop-color="#4ECDC4"/>
      <stop offset="100%" stop-color="#00CED1"/>
    </radialGradient>
    <radialGradient id="leaf29" cx="50%" cy="50%" r="70%">
      <stop offset="0%" stop-color="#DC143C"/>
      <stop offset="50%" stop-color="#FFE66D"/>
      <stop offset="100%" stop-color="#FF69B4"/>
    </radialGradient>
  </defs>

  <!-- Scaled content -->
  <g transform="translate(960.0,540.0) scale(3.0) translate(-960.0,-540.0)">
    <!-- Background -->
    <rect width="1920" height="1080" fill="url(#bgGrad)"/>
    
    <!-- Leaves with clip-path -->
    <g clip-path="url(#complexClip)">
    <path d="M 1439.8925597102245,724.4576886211041 C 1487.0455051524868,763.7518098229895 1502.763153633241,818.763579505629 1439.8925597102245,881.6341734286455 C 1377.021965787208,818.763579505629 1392.7396142679622,763.7518098229895 1439.8925597102245,724.4576886211041 Z" fill="url(#leaf0)" opacity="0.17" transform="rotate(227.3 1439.9 803.0)"/>
    <path d="M 1617.6753933538732,946.6561377993747 C 1647.206366976258,971.2652824846956 1657.0500248503865,1005.7180850441447 1617.6753933538732,1045.0927165406579 C 1578.30076185736,1005.7180850441447 1588.1444197314884,971.2652824846956 1617.6753933538732,946.6561377993747 Z" fill="url(#leaf1)" opacity="0.19" transform="rotate(125.7 1617.7 995.9)"/>
    <path d="M 1332.7261485978647,819.4255357379208 C 1376.6046112148927,855.9909212521106 1391.2307654205686,907.1824609719764 1332.7261485978647,965.6870777946802 C 1274.2215317751609,907.1824609719764 1288.8476859808368,855.9909212521106 1332.7261485978647,819.4255357379208 Z" fill="url(#leaf2)" opacity="0.15" transform="rotate(337.0 1332.7 892.6)"/>
    <path d="M 1313.9101114109144,17.0621886224736 C 1346.987024354318,44.62628274197654 1358.0126620021192,83.21601450928065 1313.9101114109144,127.31856510048536 C 1269.8075608197096,83.21601450928065 1280.8331984675108,44.62628274197654 1313.9101114109144,17.0621886224736 Z" fill="url(#leaf3)" opacity="0.21" transform="rotate(303.3 1313.9 72.2)"/>
    <path d="M 465.1891926762216,413.29519547573636 C 499.51063029899285,441.89639349471247 510.9511095065833,481.93807072127896 465.1891926762216,527.6999875516407 C 419.42727584585987,481.93807072127896 430.8677550534503,441.89639349471247 465.1891926762216,413.29519547573636 Z" fill="url(#leaf4)" opacity="0.19" transform="rotate(107.9 465.2 470.5)"/>
    <path d="M 842.9491585826204,816.2809051777027 C 872.2579046399507,840.704860225478 882.0274866590607,874.8983972923633 842.9491585826204,913.9767253688036 C 803.87083050618,874.8983972923633 813.6404125252901,840.704860225478 842.9491585826204,816.2809051777027 Z" fill="url(#leaf5)" opacity="0.18" transform="rotate(146.8 842.9 865.1)"/>
    <path d="M 1477.6896633148556,952.6524325111496 C 1508.4331343683357,978.2719917223831 1518.680958052829,1014.1393746181099 1477.6896633148556,1055.1306693560832 C 1436.698368576882,1014.1393746181099 1446.9461922613755,978.2719917223831 1477.6896633148556,952.6524325111496 Z" fill="url(#leaf6)" opacity="0.23" transform="rotate(359.4 1477.7 1003.9)"/>
    <path d="M 1131.6887159947466,747.3784885037644 C 1165.709969905081,775.729533429043 1177.0503878751924,815.4209963244332 1131.6887159947466,860.782668204879 C 1086.3270441143009,815.4209963244332 1097.6674620844124,775.729533429043 1131.6887159947466,747.3784885037644 Z" fill="url(#leaf7)" opacity="0.18" transform="rotate(245.4 1131.7 804.1)"/>
    <path d="M 1588.0190376070773,754.3565641796328 C 1623.0656675902442,783.5620891656051 1634.747877584633,824.4498241459664 1588.0190376070773,871.1786641235223 C 1541.2901976295216,824.4498241459664 1552.9724076239104,783.5620891656051 1588.0190376070773,754.3565641796328 Z" fill="url(#leaf8)" opacity="0.21" transform="rotate(278.4 1588.0 812.8)"/>
    <path d="M 197.182394420774,814.6205868209554 C 241.07296335720514,851.196060934648 255.7031530026822,902.4017246938176 197.182394420774,960.9224832757259 C 138.66163583886578,902.4017246938176 153.29182548434284,851.196060934648 197.182394420774,814.6205868209554 Z" fill="url(#leaf9)" opacity="0.23" transform="rotate(168.8 197.2 887.8)"/>
    <path d="M 1527.8716991592587,614.7373653460677 C 1549.20064970457,632.5114908004939 1556.3102998863405,657.3952664366905 1527.8716991592587,685.8338671637723 C 1499.4330984321768,657.3952664366905 1506.5427486139474,632.5114908004939 1527.8716991592587,614.7373653460677 Z" fill="url(#leaf10)" opacity="0.24" transform="rotate(310.3 1527.9 650.3)"/>
    <path d="M 702.2880591163173,414.483674807807 C 738.68806256722,444.81701101689254 750.8213970508541,487.28368170961227 702.2880591163173,535.8170196441491 C 653.7547211817805,487.28368170961227 665.8880556654146,444.81701101689254 702.2880591163173,414.483674807807 Z" fill="url(#leaf11)" opacity="0.18" transform="rotate(335.2 702.3 475.2)"/>
    <path d="M 67.63805808240782,930.9319838298039 C 86.55151960435911,946.6932017647633 92.85600677834289,968.7589068737065 67.63805808240782,993.9768555696415 C 42.42010938647276,968.7589068737065 48.72459656045653,946.6932017647633 67.63805808240782,930.9319838298039 Z" fill="url(#leaf12)" opacity="0.19" transform="rotate(95.9 67.6 962.5)"/>
    <path d="M 1293.5812426051766,207.8427887401946 C 1333.9217317129398,241.45986299666401 1347.3685614155277,288.52376695572116 1293.5812426051766,342.3110857660722 C 1239.7939237948256,288.52376695572116 1253.2407534974134,241.45986299666401 1293.5812426051766,207.8427887401946 Z" fill="url(#leaf13)" opacity="0.25" transform="rotate(335.2 1293.6 275.1)"/>
    <path d="M 1241.7265388962787,926.5490208485805 C 1269.7561458152095,949.9070266143563 1279.0993481215198,982.6082346864421 1241.7265388962787,1019.9810439116832 C 1204.3537296710376,982.6082346864421 1213.696931977348,949.9070266143563 1241.7265388962787,926.5490208485805 Z" fill="url(#leaf14)" opacity="0.18" transform="rotate(267.7 1241.7 973.3)"/>
    <path d="M 674.7001412942129,229.40671628636858 C 708.4923732557885,257.56690958768155 719.7564505763137,296.99118020951965 674.7001412942129,342.04748949162035 C 629.6438320121122,296.99118020951965 640.9079093326374,257.56690958768155 674.7001412942129,229.40671628636858 Z" fill="url(#leaf15)" opacity="0.17" transform="rotate(36.4 674.7 285.7)"/>
    <path d="M 1373.7216088860957,324.41955493669747 C 1411.2420463131934,355.6865861259455 1423.7488587888927,399.4604297908928 1373.7216088860957,449.4876796936897 C 1323.6943589832988,399.4604297908928 1336.201171458998,355.6865861259455 1373.7216088860957,324.41955493669747 Z" fill="url(#leaf16)" opacity="0.21" transform="rotate(323.9 1373.7 387.0)"/>
    <path d="M 1592.37235135356,72.57084987285913 C 1628.8946462365325,103.00609560866964 1641.0687445308567,145.61543963880436 1592.37235135356,194.31183281610117 C 1543.675958176263,145.61543963880436 1555.8500564705873,103.00609560866964 1592.37235135356,72.57084987285913 Z" fill="url(#leaf17)" opacity="0.23" transform="rotate(129.0 1592.4 133.4)"/>
    <path d="M 1232.4002681265056,701.2901391221202 C 1275.643380129742,737.3260657914838 1290.0577507974872,787.7763631285927 1232.4002681265056,845.4338457995744 C 1174.742785455524,787.7763631285927 1189.1571561232693,737.3260657914838 1232.4002681265056,701.2901391221202 Z" fill="url(#leaf18)" opacity="0.18" transform="rotate(116.4 1232.4 773.4)"/>
    <path d="M 1129.0937713874366,685.1427473670548 C 1147.424165857202,700.4180760918592 1153.5342973471238,721.8035363065854 1129.0937713874366,746.2440622662726 C 1104.6532454277494,721.8035363065854 1110.7633769176712,700.4180760918592 1129.0937713874366,685.1427473670548 Z" fill="url(#leaf19)" opacity="0.18" transform="rotate(150.4 1129.1 715.7)"/>
    <path d="M 495.17377550693095,879.6564719130165 C 540.9862385650655,917.833524461462 556.2570595844437,971.2813980292857 495.17377550693095,1032.3646821067985 C 434.0904914294182,971.2813980292857 449.36131244879635,917.833524461462 495.17377550693095,879.6564719130165 Z" fill="url(#leaf20)" opacity="0.16" transform="rotate(103.2 495.2 956.0)"/>
    <path d="M 1828.2549717974375,75.85363350125077 C 1863.0527539100815,104.85178526178743 1874.6520146142961,145.44919772653876 1828.2549717974375,191.8462405433974 C 1781.857928980579,145.44919772653876 1793.4571896847935,104.85178526178743 1828.2549717974375,75.85363350125077 Z" fill="url(#leaf21)" opacity="0.16" transform="rotate(73.0 1828.3 133.8)"/>
    <path d="M 1092.0389698446872,296.12712039672704 C 1113.681598014593,314.16264387164847 1120.8958074045615,339.41237673653853 1092.0389698446872,368.2692142964129 C 1063.182132284813,339.41237673653853 1070.3963416747815,314.16264387164847 1092.0389698446872,296.12712039672704 Z" fill="url(#leaf22)" opacity="0.21" transform="rotate(296.9 1092.0 332.2)"/>
    <path d="M 1313.1321055385733,916.2667637306452 C 1357.7127072029793,953.4172651176502 1372.5729077577814,1005.4279670594572 1313.1321055385733,1064.8687692786652 C 1253.6913033193653,1005.4279670594572 1268.5515038741673,953.4172651176502 1313.1321055385733,916.2667637306452 Z" fill="url(#leaf23)" opacity="0.19" transform="rotate(241.9 1313.1 990.6)"/>
    <path d="M 1602.3069504817872,294.4621886914989 C 1649.1211604979694,333.47403037165066 1664.72589717003,388.0906087238631 1602.3069504817872,450.5095554121059 C 1539.8880037935444,388.0906087238631 1555.492740465605,333.47403037165066 1602.3069504817872,294.4621886914989 Z" fill="url(#leaf24)" opacity="0.23" transform="rotate(1.5 1602.3 372.5)"/>
    <path d="M 105.7285878189468,62.32843630559245 C 150.52542330822888,99.65913254666084 165.45770180465624,151.9221072841566 105.7285878189468,211.65122126986603 C 45.999473833237374,151.9221072841566 60.93175232966473,99.65913254666084 105.7285878189468,62.32843630559245 Z" fill="url(#leaf25)" opacity="0.24" transform="rotate(305.9 105.7 137.0)"/>
    <path d="M 238.76482567744918,501.8812416986269 C 257.38682260008244,517.399572467488 263.5941549076269,539.1252355438935 238.76482567744918,563.9545647740712 C 213.9354964472715,539.1252355438935 220.14282875481592,517.399572467488 238.76482567744918,501.8812416986269 Z" fill="url(#leaf26)" opacity="0.17" transform="rotate(278.0 238.8 532.9)"/>
    <path d="M 973.6952983784247,939.7084094899838 C 1001.2087716269111,962.6363038637224 1010.3799293764066,994.7353559869566 973.6952983784247,1031.4199869849385 C 937.0106673804428,994.7353559869566 946.1818251299383,962.6363038637224 973.6952983784247,939.7084094899838 Z" fill="url(#leaf27)" opacity="0.19" transform="rotate(170.1 973.7 985.6)"/>
    <path d="M 204.5553312058273,-0.566370509611275 C 244.52602193907228,32.74253843475955 257.84958551682064,79.37501095687871 204.5553312058273,132.66926526787205 C 151.26107689483396,79.37501095687871 164.5846404725823,32.74253843475955 204.5553312058273,-0.566370509611275 Z" fill="url(#leaf28)" opacity="0.20" transform="rotate(255.3 204.6 66.1)"/>
    <path d="M 1045.9151029271504,862.2510871418187 C 1090.7227995378776,899.5908343174247 1105.6586984081198,951.8664803632729 1045.9151029271504,1011.6100758442424 C 986.171507446181,951.8664803632729 1001.1074063164233,899.5908343174247 1045.9151029271504,862.2510871418187 Z" fill="url(#leaf29)" opacity="0.23" transform="rotate(194.4 1045.9 936.9)"/>
    <path d="M 400.4943580233777,902.4752843561332 C 446.4264737155024,940.7520474329039 461.7371789462107,994.3395157403827 400.4943580233777,1055.5823366632158 C 339.2515371005447,994.3395157403827 354.56224233125295,940.7520474329039 400.4943580233777,902.4752843561332 Z" fill="url(#leaf0)" opacity="0.18" transform="rotate(276.8 400.5 979.0)"/>
    <path d="M 630.0071651559962,596.8328298856561 C 671.4151548313413,631.3394879484437 685.2178180564564,679.6488092363463 630.0071651559962,734.8594621368065 C 574.796512255536,679.6488092363463 588.5991754806511,631.3394879484437 630.0071651559962,596.8328298856561 Z" fill="url(#leaf1)" opacity="0.22" transform="rotate(282.6 630.0 665.8)"/>
    <path d="M 374.9126656555323,874.9836247564637 C 393.08636943880236,890.1283779091888 399.14427069989233,911.3310323230038 374.9126656555323,935.5626373673639 C 350.68106061117226,911.3310323230038 356.7389618722622,890.1283779091888 374.9126656555323,874.9836247564637 Z" fill="url(#leaf2)" opacity="0.16" transform="rotate(144.3 374.9 905.3)"/>
    <path d="M 949.0060825618797,34.300004876749185 C 985.7928033038885,64.95560549508984 998.0550435512247,107.87344636076676 949.0060825618797,156.92240735011183 C 899.9571215725347,107.87344636076676 912.2193618198709,64.95560549508984 949.0060825618797,34.300004876749185 Z" fill="url(#leaf3)" opacity="0.17" transform="rotate(171.7 949.0 95.6)"/>
    <path d="M 1856.6463149053104,603.7280690551873 C 1882.9752120327555,625.6688166613915 1891.751511075237,656.3858633100773 1856.6463149053104,691.4910594800039 C 1821.5411187353839,656.3858633100773 1830.3174177778653,625.6688166613915 1856.6463149053104,603.7280690551873 Z" fill="url(#leaf4)" opacity="0.18" transform="rotate(222.8 1856.6 647.6)"/>
    <path d="M 1690.9809387508883,500.8378502557831 C 1715.9876862399676,521.6768064966826 1724.3232687363275,550.851345233942 1690.9809387508883,584.1936752193811 C 1657.6386087654491,550.851345233942 1665.974191261809,521.6768064966826 1690.9809387508883,500.8378502557831 Z" fill="url(#leaf5)" opacity="0.23" transform="rotate(135.5 1691.0 542.5)"/>
    <path d="M 54.37846089014535,384.3948843867386 C 75.04384637128054,401.6160389543513 81.93230819832561,425.72565534900906 54.37846089014535,453.2795026571893 C 26.82461358196509,425.72565534900906 33.71307540901016,401.6160389543513 54.37846089014535,384.3948843867386 Z" fill="url(#leaf6)" opacity="0.25" transform="rotate(58.4 54.4 418.8)"/>
    <path d="M 328.82978761518785,0.8303392267329173 C 365.1374027167748,31.086685144722 377.2399410839704,73.44556942990673 328.82978761518785,121.85572289868925 C 280.4196341464053,73.44556942990673 292.52217251360094,31.086685144722 328.82978761518785,0.8303392267329173 Z" fill="url(#leaf7)" opacity="0.22" transform="rotate(2.5 328.8 61.3)"/>
    <path d="M 244.17033958692667,588.9850863386255 C 291.7930706651561,628.6706955704834 307.6673143578993,684.2305484950843 244.17033958692667,747.727523266057 C 180.67336481595407,684.2305484950843 196.54760850869724,628.6706955704834 244.17033958692667,588.9850863386255 Z" fill="url(#leaf8)" opacity="0.16" transform="rotate(15.7 244.2 668.4)"/>
    <path d="M 209.4497585149621,153.6046766800179 C 238.61485604466907,177.90892462144035 248.33655522123806,211.93487173943183 209.4497585149621,250.8216684457078 C 170.56296180868614,211.93487173943183 180.28466098525513,177.90892462144035 209.4497585149621,153.6046766800179 Z" fill="url(#leaf9)" opacity="0.23" transform="rotate(45.9 209.4 202.2)"/>
    <path d="M 998.6855810902746,409.76339812076674 C 1043.159593488607,446.8250751193772 1057.9842642880512,498.7114229174317 998.6855810902746,558.0101061152084 C 939.3868978924979,498.7114229174317 954.2115686919421,446.8250751193772 998.6855810902746,409.76339812076674 Z" fill="url(#leaf10)" opacity="0.24" transform="rotate(171.4 998.7 483.9)"/>
    <path d="M 1439.8988178306388,441.77721976763576 C 1479.3121433251608,474.62165767973744 1492.4499184900014,520.6038707566798 1439.8988178306388,573.1549714160425 C 1387.3477171712761,520.6038707566798 1400.4854923361167,474.62165767973744 1439.8988178306388,441.77721976763576 Z" fill="url(#leaf11)" opacity="0.18" transform="rotate(275.6 1439.9 507.5)"/>
    <path d="M 522.1802898753031,897.2687060961614 C 557.8002001629717,926.9519646692186 569.6735035921946,968.5085266714988 522.1802898753031,1016.0017403883903 C 474.6870761584115,968.5085266714988 486.5603795876344,926.9519646692186 522.1802898753031,897.2687060961614 Z" fill="url(#leaf12)" opacity="0.19" transform="rotate(157.5 522.2 956.6)"/>
    <path d="M 1154.723540590212,754.4494913823411 C 1177.5437488023022,773.466331559083 1185.150484872999,800.0899078065216 1154.723540590212,830.5168520893086 C 1124.296596307425,800.0899078065216 1131.9033323781218,773.466331559083 1154.723540590212,754.4494913823411 Z" fill="url(#leaf13)" opacity="0.23" transform="rotate(96.0 1154.7 792.5)"/>
    <path d="M 1394.2499053679437,192.51806527124052 C 1431.5696193562994,223.61782692820367 1444.0095240190847,267.15749324795206 1394.2499053679437,316.9171118990931 C 1344.4902867168028,267.15749324795206 1356.930191379588,223.61782692820367 1394.2499053679437,192.51806527124052 Z" fill="url(#leaf14)" opacity="0.23" transform="rotate(0.5 1394.2 254.7)"/>
    <path d="M 825.9959316456661,727.6768753575466 C 870.8356785909195,765.0433311452576 885.782260906004,817.3563692480533 825.9959316456661,877.142698508391 C 766.2096023853283,817.3563692480533 781.1561847004127,765.0433311452576 825.9959316456661,727.6768753575466 Z" fill="url(#leaf15)" opacity="0.16" transform="rotate(211.7 826.0 802.4)"/>
    <path d="M 451.04840515971495,917.7188279806079 C 471.13188457390453,934.4550608257659 477.8263777119677,957.8857868089871 451.04840515971495,984.6637593612398 C 424.27043260746217,957.8857868089871 430.96492574552536,934.4550608257659 451.04840515971495,917.7188279806079 Z" fill="url(#leaf16)" opacity="0.19" transform="rotate(305.6 451.0 951.2)"/>
    <path d="M 1138.725413096428,487.0081236145878 C 1173.3332639981704,515.8479993660399 1184.8692142987513,556.2238254180728 1138.725413096428,602.3676266203962 C 1092.5816118941045,556.2238254180728 1104.1175621946854,515.8479993660399 1138.725413096428,487.0081236145878 Z" fill="url(#leaf17)" opacity="0.18" transform="rotate(160.1 1138.7 544.7)"/>
    <path d="M 253.55543332236593,764.7136144306505 C 297.6160162345235,801.4307668574485 312.3028772052427,852.8347802549656 253.55543332236593,911.5822241378423 C 194.8079894394892,852.8347802549656 209.4948504102084,801.4307668574485 253.55543332236593,764.7136144306505 Z" fill="url(#leaf18)" opacity="0.19" transform="rotate(157.1 253.6 838.1)"/>
    <path d="M 1523.8360864417489,941.304981564785 C 1571.1805154822125,980.7586724318379 1586.9619918290336,1035.9938396457121 1523.8360864417489,1099.1197450329971 C 1460.710181054464,1035.9938396457121 1476.4916574012852,980.7586724318379 1523.8360864417489,941.304981564785 Z" fill="url(#leaf19)" opacity="0.23" transform="rotate(35.5 1523.8 1020.2)"/>
    <path d="M 479.1856497636861,383.365282980415 C 523.8684126775029,420.6009187419289 538.7626669821084,472.73080880804844 479.1856497636861,532.3078260264707 C 419.6086325452638,472.73080880804844 434.5028868498694,420.6009187419289 479.1856497636861,383.365282980415 Z" fill="url(#leaf20)" opacity="0.21" transform="rotate(86.2 479.2 457.8)"/>
    <path d="M 1381.8987024155692,413.7253658895188 C 1424.950755815397,449.60207705604205 1439.3014402820065,499.8294726891747 1381.8987024155692,557.2322105556119 C 1324.495964549132,499.8294726891747 1338.8466490157414,449.60207705604205 1381.8987024155692,413.7253658895188 Z" fill="url(#leaf21)" opacity="0.16" transform="rotate(251.4 1381.9 485.5)"/>
    <path d="M 664.7734922431914,60.21605079141164 C 695.1595027032871,85.53772617482468 705.2881728566523,120.98807171160296 664.7734922431914,161.50275232506382 C 624.2588116297305,120.98807171160296 634.3874817830957,85.53772617482468 664.7734922431914,60.21605079141164 Z" fill="url(#leaf22)" opacity="0.18" transform="rotate(234.8 664.8 110.9)"/>
    <path d="M 314.9456021653808,241.13881661604867 C 336.62730003248356,259.2068981719676 343.85453265485114,284.5022123502541 314.9456021653808,313.41114283972445 C 286.0366716759105,284.5022123502541 293.2639042982781,259.2068981719676 314.9456021653808,241.13881661604867 Z" fill="url(#leaf23)" opacity="0.16" transform="rotate(75.7 314.9 277.3)"/>
    <path d="M 1488.2519335232512,307.3635289214699 C 1518.7537722435395,332.7817278550434 1528.9210518169689,368.3672063620464 1488.2519335232512,409.036324655764 C 1447.5828152295335,368.3672063620464 1457.7500948029628,332.7817278550434 1488.2519335232512,307.3635289214699 Z" fill="url(#leaf24)" opacity="0.16" transform="rotate(67.5 1488.3 358.2)"/>
    <path d="M 1346.354121023139,863.4842720069538 C 1370.387707560802,883.5122607883397 1378.3989030733565,911.5514450822801 1346.354121023139,943.5962271324976 C 1314.3093389729215,911.5514450822801 1322.320534485476,883.5122607883397 1346.354121023139,863.4842720069538 Z" fill="url(#leaf25)" opacity="0.20" transform="rotate(325.1 1346.4 903.5)"/>
    <path d="M 193.01116042498796,69.13772427679316 C 224.84337889088624,95.66457299837506 235.454118379519,132.80216120858972 193.01116042498796,175.24511916312076 C 150.56820247045692,132.80216120858972 161.17894195908968,95.66457299837506 193.01116042498796,69.13772427679316 Z" fill="url(#leaf26)" opacity="0.19" transform="rotate(204.4 193.0 122.2)"/>
    <path d="M 965.9737378633063,606.7763485847561 C 1000.2997607309193,635.3813676411002 1011.7417683534569,675.428394319982 965.9737378633063,721.1964248101326 C 920.2057073731556,675.428394319982 931.6477149956933,635.3813676411002 965.9737378633063,606.7763485847561 Z" fill="url(#leaf27)" opacity="0.21" transform="rotate(65.0 966.0 664.0)"/>
    <path d="M 819.8255687592556,908.0001565011065 C 847.0675108563964,930.7017749153906 856.1481582221102,962.4840406953883 819.8255687592556,998.8066301582429 C 783.502979296401,962.4840406953883 792.5836266621147,930.7017749153906 819.8255687592556,908.0001565011065 Z" fill="url(#leaf28)" opacity="0.18" transform="rotate(12.1 819.8 953.4)"/>
    <path d="M 953.5152540272319,650.9488103435763 C 995.9291821310823,686.2937504301182 1010.0671581656991,735.776666551277 953.5152540272319,792.3285706897441 C 896.9633498887647,735.776666551277 911.1013259233815,686.2937504301182 953.5152540272319,650.9488103435763 Z" fill="url(#leaf29)" opacity="0.24" transform="rotate(134.0 953.5 721.6)"/>
    <path d="M 1126.6391989191218,696.4276974438658 C 1172.4456042757013,734.599701907682 1187.7144060612277,788.0405081570245 1126.6391989191218,849.1157152991304 C 1065.5639917770159,788.0405081570245 1080.8327935625423,734.599701907682 1126.6391989191218,696.4276974438658 Z" fill="url(#leaf0)" opacity="0.19" transform="rotate(264.5 1126.6 772.8)"/>
    <path d="M 1572.4930385782757,150.5720372482907 C 1614.4891422647083,185.56879032031796 1628.4878434935192,234.5642446211561 1572.4930385782757,290.5590495363997 C 1516.4982336630321,234.5642446211561 1530.496934891843,185.56879032031796 1572.4930385782757,150.5720372482907 Z" fill="url(#leaf1)" opacity="0.23" transform="rotate(271.9 1572.5 220.6)"/>
    <path d="M 510.6227692641287,437.669193174723 C 557.7680181571344,476.95690058556113 573.4831011214698,531.9596909607345 510.6227692641287,594.8200228180756 C 447.7624374067877,531.9596909607345 463.4775203711229,476.95690058556113 510.6227692641287,437.669193174723 Z" fill="url(#leaf2)" opacity="0.16" transform="rotate(332.6 510.6 516.2)"/>
    <path d="M 637.6238160711107,880.5336961397262 C 670.3442635539869,907.8007357087898 681.2510793816124,945.9745911054788 637.6238160711107,989.6018544159805 C 593.996552760609,945.9745911054788 604.9033685882345,907.8007357087898 637.6238160711107,880.5336961397262 Z" fill="url(#leaf3)" opacity="0.20" transform="rotate(130.3 637.6 935.1)"/>
    <path d="M 986.4010162675884,366.65256715068693 C 1014.0644044503172,389.7053906362943 1023.2855338445601,421.9793435161445 986.4010162675884,458.8638610931162 C 949.5164986906167,421.9793435161445 958.7376280848596,389.7053906362943 986.4010162675884,366.65256715068693 Z" fill="url(#leaf4)" opacity="0.17" transform="rotate(92.7 986.4 412.8)"/>
    <path d="M 665.3843912941434,246.16449625421387 C 711.7496047092591,284.80217410014365 727.2046758476309,338.8949230844453 665.3843912941434,400.71520763793285 C 603.5641067406558,338.8949230844453 619.0191778790277,284.80217410014365 665.3843912941434,246.16449625421387 Z" fill="url(#leaf5)" opacity="0.18" transform="rotate(274.7 665.4 323.4)"/>
    <path d="M 1051.8575068175246,874.6514869650109 C 1083.0706229641485,900.6624170871975 1093.474995013023,937.0777192582586 1051.8575068175246,978.6952074537571 C 1010.2400186220261,937.0777192582586 1020.6443906709007,900.6624170871975 1051.8575068175246,874.6514869650109 Z" fill="url(#leaf6)" opacity="0.21" transform="rotate(266.5 1051.9 926.7)"/>
    <path d="M 1373.012835582331,56.08999648952211 C 1405.5889503071965,83.23675876024328 1416.447655215485,121.24222593925293 1373.012835582331,164.67704557240683 C 1329.5780159491771,121.24222593925293 1340.4367208574656,83.23675876024328 1373.012835582331,56.08999648952211 Z" fill="url(#leaf7)" opacity="0.23" transform="rotate(301.4 1373.0 110.4)"/>
    <path d="M 1471.8876316105911,225.61401368266414 C 1493.8376692886075,243.90571174767769 1501.1543485146128,269.5140890386967 1471.8876316105911,298.7808059427184 C 1442.6209147065695,269.5140890386967 1449.9375939325748,243.90571174767769 1471.8876316105911,225.61401368266414 Z" fill="url(#leaf8)" opacity="0.17" transform="rotate(152.6 1471.9 262.2)"/>
    <path d="M 671.9019614591446,61.24168223123942 C 717.9568869287236,99.62078678922195 733.3085287519166,153.3515331703975 671.9019614591446,214.75810046316954 C 610.4953941663725,153.3515331703975 625.8470359895655,99.62078678922195 671.9019614591446,61.24168223123942 Z" fill="url(#leaf9)" opacity="0.17" transform="rotate(124.9 671.9 138.0)"/>
    <path d="M 1461.1290114379005,725.726915285892 C 1503.3757269820799,760.9325115727082 1517.4579654968065,810.2203463742509 1461.1290114379005,866.5493004331569 C 1404.8000573789946,810.2203463742509 1418.8822958937212,760.9325115727082 1461.1290114379005,725.726915285892 Z" fill="url(#leaf10)" opacity="0.24" transform="rotate(189.7 1461.1 796.1)"/>
    <path d="M 1847.1662211086586,179.21248789388835 C 1887.0473396439645,212.4467533399765 1900.3410458223996,258.9747249644999 1847.1662211086586,312.14954967824093 C 1793.9913963949177,258.9747249644999 1807.2851025733528,212.4467533399765 1847.1662211086586,179.21248789388835 Z" fill="url(#leaf11)" opacity="0.22" transform="rotate(175.2 1847.2 245.7)"/>
    <path d="M 1327.8589056348712,347.617457470827 C 1358.3135092034427,372.9962937779699 1368.4650437262999,408.52666460796996 1327.8589056348712,449.1328026993986 C 1287.2527675434426,408.52666460796996 1297.4043020662998,372.9962937779699 1327.8589056348712,347.617457470827 Z" fill="url(#leaf12)" opacity="0.20" transform="rotate(239.3 1327.9 398.4)"/>
    <path d="M 1307.2979554171213,736.3355932029497 C 1342.4069636024535,765.5931000240598 1354.1099663308978,806.5536095736142 1307.2979554171213,853.3656204873905 C 1260.4859445033449,806.5536095736142 1272.1889472317891,765.5931000240598 1307.2979554171213,736.3355932029497 Z" fill="url(#leaf13)" opacity="0.23" transform="rotate(250.5 1307.3 794.9)"/>
    <path d="M 1383.4029068068544,27.76532121959829 C 1425.6105343310007,62.938344156386876 1439.679743505716,112.1805762678909 1383.4029068068544,168.45741296675263 C 1327.1260701079927,112.1805762678909 1341.195279282708,62.938344156386876 1383.4029068068544,27.76532121959829 Z" fill="url(#leaf14)" opacity="0.24" transform="rotate(138.3 1383.4 98.1)"/>
    <path d="M 1340.6607380547503,49.8470677179518 C 1369.9551764806597,74.25909973954305 1379.7199892892963,108.43594456977078 1340.6607380547503,147.49519580431678 C 1301.6014868202042,108.43594456977078 1311.3662996288408,74.25909973954305 1340.6607380547503,49.8470677179518 Z" fill="url(#leaf15)" opacity="0.17" transform="rotate(118.2 1340.7 98.7)"/>
    <path d="M 930.9685949998795,413.13669045343175 C 960.4782749046286,437.728090374056 970.3148348728784,472.15605026293 930.9685949998795,511.50229013592883 C 891.6223551268807,472.15605026293 901.4589150951305,437.728090374056 930.9685949998795,413.13669045343175 Z" fill="url(#leaf16)" opacity="0.18" transform="rotate(100.6 931.0 462.3)"/>
    <path d="M 1218.5926446915512,158.78360889758858 C 1247.8275208392006,183.14600568729634 1257.5724795550836,217.2533611928872 1218.5926446915512,256.2331960564196 C 1179.6128098280187,217.2533611928872 1189.3577685439018,183.14600568729634 1218.5926446915512,158.78360889758858 Z" fill="url(#leaf17)" opacity="0.20" transform="rotate(63.2 1218.6 207.5)"/>
    <path d="M 594.160109099889,476.2219641402959 C 621.8011151647964,499.2561358610521 631.014783853099,531.5039762701108 594.160109099889,568.3586510233207 C 557.3054343466791,531.5039762701108 566.5191030349816,499.2561358610521 594.160109099889,476.2219641402959 Z" fill="url(#leaf18)" opacity="0.21" transform="rotate(286.7 594.2 522.3)"/>
    <path d="M 1252.0608669729866,538.3197861090655 C 1282.810892530511,563.9448074070025 1293.0609010496858,599.8198372241143 1252.0608669729866,640.8198713008135 C 1211.0608328962874,599.8198372241143 1221.3108414154622,563.9448074070025 1252.0608669729866,538.3197861090655 Z" fill="url(#leaf19)" opacity="0.17" transform="rotate(64.3 1252.1 589.6)"/>
    <path d="M 89.56055548369608,407.962882572827 C 113.12610231253787,427.6008382635285 120.98128458881847,455.0939762305106 89.56055548369608,486.514705335633 C 58.13982637857369,455.0939762305106 65.99500865485429,427.6008382635285 89.56055548369608,407.962882572827 Z" fill="url(#leaf20)" opacity="0.25" transform="rotate(263.1 89.6 447.2)"/>
    <path d="M 151.04070704858856,860.1673298161024 C 195.35957432828482,897.0997192158494 210.13253008818356,948.805064375495 151.04070704858856,1007.8968874150901 C 91.94888400899355,948.805064375495 106.7218397688923,897.0997192158494 151.04070704858856,860.1673298161024 Z" fill="url(#leaf21)" opacity="0.23" transform="rotate(305.5 151.0 934.0)"/>
    <path d="M 1245.723272983737,372.7486046897212 C 1286.1701992751514,406.45437659923334 1299.6525080389563,453.64245727255025 1245.723272983737,507.5716923277696 C 1191.7940379285176,453.64245727255025 1205.2763466923225,406.45437659923334 1245.723272983737,372.7486046897212 Z" fill="url(#leaf22)" opacity="0.25" transform="rotate(119.8 1245.7 440.2)"/>
    <path d="M 527.9723363646606,818.131972778034 C 563.8700278688099,848.0467156981584 575.8359250368596,889.9273557863326 527.9723363646606,937.7909444585316 C 480.1087476924615,889.9273557863326 492.0746448605113,848.0467156981584 527.9723363646606,818.131972778034 Z" fill="url(#leaf23)" opacity="0.20" transform="rotate(343.9 528.0 878.0)"/>
    <path d="M 504.6027954977865,589.2822649417807 C 527.6783313995172,608.511878193223 535.3701767000941,635.4333367452422 504.6027954977865,666.2007179475498 C 473.8354142954788,635.4333367452422 481.5272595960557,608.511878193223 504.6027954977865,589.2822649417807 Z" fill="url(#leaf24)" opacity="0.16" transform="rotate(287.6 504.6 627.7)"/>
    <path d="M 1660.0410498011229,921.482911988619 C 1706.824218621955,960.4688860059789 1722.4186082288988,1015.0492496302829 1660.0410498011229,1077.426808058059 C 1597.663491373347,1015.0492496302829 1613.2578809802908,960.4688860059789 1660.0410498011229,921.482911988619 Z" fill="url(#leaf25)" opacity="0.23" transform="rotate(139.4 1660.0 999.5)"/>
    <path d="M 1829.3359180397383,511.2526494493165 C 1852.811016138381,530.8152311981854 1860.6360488379285,558.2028456466019 1829.3359180397383,589.5029764447921 C 1798.0357872415482,558.2028456466019 1805.8608199410955,530.8152311981854 1829.3359180397383,511.2526494493165 Z" fill="url(#leaf26)" opacity="0.20" transform="rotate(125.5 1829.3 550.4)"/>
    <path d="M 136.5608586692652,460.4655864395029 C 183.31790274603625,499.4297898368121 198.90358410495995,553.979674593045 136.5608586692652,616.3224000287398 C 74.21813323357046,553.979674593045 89.80381459249415,499.4297898368121 136.5608586692652,460.4655864395029 Z" fill="url(#leaf27)" opacity="0.22" transform="rotate(169.1 136.6 538.4)"/>
    <path d="M 1615.6502347559972,101.56751454379994 C 1650.4498281135718,130.56717567511217 1662.0496925660968,171.16670125894925 1615.6502347559972,217.56615906904878 C 1569.2507769458975,171.16670125894925 1580.8506413984226,130.56717567511217 1615.6502347559972,101.56751454379994 Z" fill="url(#leaf28)" opacity="0.22" transform="rotate(234.5 1615.7 159.6)"/>
    <path d="M 1253.0325140472105,636.6569530910824 C 1295.4767998739894,672.0271912800649 1309.6248951495825,721.5455247446403 1253.0325140472105,778.1379058470122 C 1196.4401329448385,721.5455247446403 1210.5882282204316,672.0271912800649 1253.0325140472105,636.6569530910824 Z" fill="url(#leaf29)" opacity="0.22" transform="rotate(266.2 1253.0 707.4)"/>
    <path d="M 1453.6308706095679,64.17577209653749 C 1480.0181669475792,86.16518571154701 1488.8139323935832,116.95036477256033 1453.6308706095679,152.13342655657556 C 1418.4478088255526,116.95036477256033 1427.2435742715566,86.16518571154701 1453.6308706095679,64.17577209653749 Z" fill="url(#leaf0)" opacity="0.18" transform="rotate(350.5 1453.6 108.2)"/>
    <path d="M 379.0384573589423,108.15630856504454 C 423.52009479643897,145.2243397629584 438.3473072756045,197.11958344003784 379.0384573589423,256.42843335670005 C 319.7296074422801,197.11958344003784 334.55681992144565,145.2243397629584 379.0384573589423,108.15630856504454 Z" fill="url(#leaf1)" opacity="0.20" transform="rotate(33.5 379.0 182.3)"/>
    <path d="M 82.873380307882,512.4731957104375 C 108.88527216517522,534.1497722581818 117.55590278427297,564.4969794250239 82.873380307882,599.1795019014148 C 48.19085783149103,564.4969794250239 56.86148845058877,534.1497722581818 82.873380307882,512.4731957104375 Z" fill="url(#leaf2)" opacity="0.16" transform="rotate(138.2 82.9 555.8)"/>
    <path d="M 1694.6472868323767,318.7009983570938 C 1723.1232510610455,342.4309685476511 1732.6152391372684,375.65292681443134 1694.6472868323767,413.62087911932304 C 1656.679334527485,375.65292681443134 1666.171322603708,342.4309685476511 1694.6472868323767,318.7009983570938 Z" fill="url(#leaf3)" opacity="0.19" transform="rotate(69.5 1694.6 366.2)"/>
    <path d="M 1783.2145697580715,874.5056988066581 C 1809.7953165228398,896.6563211106318 1818.6555654444294,927.6671923361948 1783.2145697580715,963.1081880225527 C 1747.7735740717137,927.6671923361948 1756.6338229933033,896.6563211106318 1783.2145697580715,874.5056988066581 Z" fill="url(#leaf4)" opacity="0.18" transform="rotate(140.0 1783.2 918.8)"/>
    <path d="M 435.7051829492866,384.39930615691475 C 461.402725578037,405.8139250142068 469.96857312095386,435.7943914144156 435.7051829492866,470.05778158608285 C 401.44179277761936,435.7943914144156 410.0076403205362,405.8139250142068 435.7051829492866,384.39930615691475 Z" fill="url(#leaf5)" opacity="0.20" transform="rotate(131.3 435.7 427.2)"/>
    <path d="M 362.0369214215816,38.06286388135264 C 392.1263102833336,63.13735459947933 402.1561065705843,98.2416416048567 362.0369214215816,138.36082675385939 C 321.9177362725789,98.2416416048567 331.9475325598296,63.13735459947933 362.0369214215816,38.06286388135264 Z" fill="url(#leaf6)" opacity="0.18" transform="rotate(350.9 362.0 88.2)"/>
    <path d="M 244.32090934311603,757.3010238085834 C 268.2873436048356,777.2730523600164 276.27615502540874,805.2338923320225 244.32090934311603,837.1891380143153 C 212.3656636608233,805.2338923320225 220.3544750813965,777.2730523600164 244.32090934311603,757.3010238085834 Z" fill="url(#leaf7)" opacity="0.16" transform="rotate(198.4 244.3 797.2)"/>
    <path d="M 146.2349129998605,452.62477482199625 C 167.5699634144969,470.4039835008599 174.68164688604236,495.294875651269 146.2349129998605,523.7416095374509 C 117.78817911367865,495.294875651269 124.89986258522413,470.4039835008599 146.2349129998605,452.62477482199625 Z" fill="url(#leaf8)" opacity="0.20" transform="rotate(233.0 146.2 488.2)"/>
    <path d="M 1646.7780792164938,13.505804225944019 C 1672.44186187708,34.89228977643268 1680.9964560972755,64.83336954711682 1646.7780792164938,99.05174642789868 C 1612.559702335712,64.83336954711682 1621.1142965559075,34.89228977643268 1646.7780792164938,13.505804225944019 Z" fill="url(#leaf9)" opacity="0.23" transform="rotate(335.2 1646.8 56.3)"/>
    <path d="M 450.0954510178481,81.53713862898525 C 474.01553562226457,101.47054246599893 481.98889715707,129.3773078378181 450.0954510178481,161.27075397704002 C 418.2020048786262,129.3773078378181 426.1753664134317,101.47054246599893 450.0954510178481,81.53713862898525 Z" fill="url(#leaf10)" opacity="0.17" transform="rotate(328.4 450.1 121.4)"/>
    <path d="M 134.1171109539644,146.52821515555559 C 156.37384468070448,165.07549326117228 163.79275592295116,191.0416826090357 134.1171109539644,220.71732757802243 C 104.44146598497767,191.0416826090357 111.86037722722435,165.07549326117228 134.1171109539644,146.52821515555559 Z" fill="url(#leaf11)" opacity="0.24" transform="rotate(217.3 134.1 183.6)"/>
    <path d="M 1753.6904896102703,672.3700824146246 C 1774.8384707075336,689.9933999956774 1781.8877977399547,714.6660446091511 1753.6904896102703,742.8633527388355 C 1725.493181480586,714.6660446091511 1732.542508513007,689.9933999956774 1753.6904896102703,672.3700824146246 Z" fill="url(#leaf12)" opacity="0.23" transform="rotate(227.3 1753.7 707.6)"/>
    <path d="M 1004.1425717969864,433.3983340459499 C 1028.6949192175528,453.8586235630885 1036.879035024408,482.50302888708245 1004.1425717969864,515.2394921145042 C 971.4061085695647,482.50302888708245 979.5902243764202,453.8586235630885 1004.1425717969864,433.3983340459499 Z" fill="url(#leaf13)" opacity="0.24" transform="rotate(129.3 1004.1 474.3)"/>
    <path d="M 367.0185043338875,728.3573445179078 C 388.986300137798,746.6638410211665 396.30889873910155,772.2929361257288 367.0185043338875,801.5833305309428 C 337.72810992867346,772.2929361257288 345.050708529977,746.6638410211665 367.0185043338875,728.3573445179078 Z" fill="url(#leaf14)" opacity="0.19" transform="rotate(59.0 367.0 765.0)"/>
    <path d="M 706.7570378581702,588.5090012986424 C 731.7232122681061,609.3141466402557 740.0452704047515,638.4413501185143 706.7570378581702,671.7295826650956 C 673.4688053115889,638.4413501185143 681.7908634482343,609.3141466402557 706.7570378581702,588.5090012986424 Z" fill="url(#leaf15)" opacity="0.18" transform="rotate(108.7 706.8 630.1)"/>
    <path d="M 813.0865821557462,631.2977208720001 C 856.4940037450172,667.4705721963926 870.9631442747742,718.112564050542 813.0865821557462,775.98912616957 C 755.2100200367182,718.112564050542 769.6791605664753,667.4705721963926 813.0865821557462,631.2977208720001 Z" fill="url(#leaf16)" opacity="0.25" transform="rotate(109.1 813.1 703.6)"/>
    <path d="M 213.5348435505809,248.94925560071434 C 251.66196986029613,280.7218608588104 264.37101196353456,325.2035082201448 213.5348435505809,376.03967663309845 C 162.69867513762725,325.2035082201448 175.40771724086565,280.7218608588104 213.5348435505809,248.94925560071434 Z" fill="url(#leaf17)" opacity="0.21" transform="rotate(313.5 213.5 312.5)"/>
    <path d="M 311.67208723987426,972.6671164074277 C 338.1280046017485,994.7137142089895 346.94664372237327,1025.5789511311762 311.67208723987426,1060.8535076136752 C 276.39753075737525,1025.5789511311762 285.216169878,994.7137142089895 311.67208723987426,972.6671164074277 Z" fill="url(#leaf18)" opacity="0.21" transform="rotate(37.0 311.7 1016.8)"/>
    <path d="M 147.69043551559798,844.3665480418128 C 180.26151397322286,871.5091134231669 191.1185401257645,909.5087049570626 147.69043551559798,952.9368095672291 C 104.26233090543147,909.5087049570626 115.1193570579731,871.5091134231669 147.69043551559798,844.3665480418128 Z" fill="url(#leaf19)" opacity="0.21" transform="rotate(193.4 147.7 898.7)"/>
    <path d="M 918.1969530408364,115.94100084119357 C 951.6798578129597,143.84342148462957 962.8408260703341,182.90681038544 918.1969530408364,227.55068341493762 C 873.5530800113388,182.90681038544 884.7140482687132,143.84342148462957 918.1969530408364,115.94100084119357 Z" fill="url(#leaf20)" opacity="0.20" transform="rotate(239.9 918.2 171.7)"/>
    <path d="M 155.70690973674272,281.0241934474854 C 185.03989044923475,305.46834404122876 194.8175506867321,339.69015487246946 155.70690973674272,378.80079582245884 C 116.59626878675333,339.69015487246946 126.37392902425069,305.46834404122876 155.70690973674272,281.0241934474854 Z" fill="url(#leaf21)" opacity="0.19" transform="rotate(342.0 155.7 329.9)"/>
    <path d="M 1474.413648443607,26.02172002348331 C 1514.7249747007502,59.61449190443609 1528.1620834531313,106.64437253776998 1474.413648443607,160.39280754729444 C 1420.6652134340825,106.64437253776998 1434.1023221864637,59.61449190443609 1474.413648443607,26.02172002348331 Z" fill="url(#leaf22)" opacity="0.18" transform="rotate(204.4 1474.4 93.2)"/>
    <path d="M 708.7047628928476,178.2074908208588 C 746.5265669895493,209.72566090144358 759.1338350217833,253.85109901426225 708.7047628928476,304.28017114319783 C 658.2756907639119,253.85109901426225 670.8829587961459,209.72566090144358 708.7047628928476,178.2074908208588 Z" fill="url(#leaf23)" opacity="0.15" transform="rotate(321.9 708.7 241.2)"/>
    <path d="M 499.7515164296688,926.1671694369919 C 534.9658472017977,955.5124450804326 546.703957459174,996.5958309812497 499.7515164296688,1043.5482720107548 C 452.7990754001636,996.5958309812497 464.5371856575399,955.5124450804326 499.7515164296688,926.1671694369919 Z" fill="url(#leaf24)" opacity="0.20" transform="rotate(217.5 499.8 984.9)"/>
    <path d="M 266.52863909828125,382.50696605485024 C 304.055041564403,413.7789681099517 316.5638423864435,457.5597709870937 266.52863909828125,507.594974275256 C 216.49343581011894,457.5597709870937 229.0022366321595,413.7789681099517 266.52863909828125,382.50696605485024 Z" fill="url(#leaf25)" opacity="0.18" transform="rotate(244.7 266.5 445.1)"/>
    <path d="M 1070.7966490120634,254.69230992250343 C 1096.3084858091358,275.95217392006373 1104.81243140816,305.7159835166481 1070.7966490120634,339.73176591274455 C 1036.780866615967,305.7159835166481 1045.284812214991,275.95217392006373 1070.7966490120634,254.69230992250343 Z" fill="url(#leaf26)" opacity="0.18" transform="rotate(14.4 1070.8 297.2)"/>
    <path d="M 1407.2227408114754,260.93902279436946 C 1429.785143859523,279.741025334409 1437.3059448755387,306.06382889046444 1407.2227408114754,336.1470329545278 C 1377.1395367474122,306.06382889046444 1384.6603377634278,279.741025334409 1407.2227408114754,260.93902279436946 Z" fill="url(#leaf27)" opacity="0.24" transform="rotate(34.9 1407.2 298.5)"/>
    <path d="M 1555.1154904110188,652.6672464626483 C 1581.4336625925562,674.5990566139295 1590.2063866530686,705.3035908257232 1555.1154904110188,740.3944870677731 C 1520.0245941689689,705.3035908257232 1528.7973182294813,674.5990566139295 1555.1154904110188,652.6672464626483 Z" fill="url(#leaf28)" opacity="0.24" transform="rotate(244.3 1555.1 696.5)"/>
    <path d="M 964.2600332896285,637.4322877152935 C 1008.4727340903642,674.2762050492399 1023.2103010239427,725.8576893167649 964.2600332896285,784.8079570510791 C 905.3097655553142,725.8576893167649 920.0473324888928,674.2762050492399 964.2600332896285,637.4322877152935 Z" fill="url(#leaf29)" opacity="0.24" transform="rotate(346.5 964.3 711.1)"/>
    <path d="M 911.9906085610735,371.17624340261773 C 943.1268503430571,397.12311155427074 953.5055976037183,433.44872696658496 911.9906085610735,474.96371600922976 C 870.4756195184286,433.44872696658496 880.8543667790899,397.12311155427074 911.9906085610735,371.17624340261773 Z" fill="url(#leaf0)" opacity="0.19" transform="rotate(275.6 912.0 423.1)"/>
    <path d="M 837.452113906795,17.105943408325494 C 866.2419077017266,41.097438237435185 875.8385056333706,74.68553099818874 837.452113906795,113.07192272476425 C 799.0657221802195,74.68553099818874 808.6623201118634,41.097438237435185 837.452113906795,17.105943408325494 Z" fill="url(#leaf1)" opacity="0.16" transform="rotate(231.5 837.5 65.1)"/>
    <path d="M 1818.8218085022868,596.0187446692189 C 1862.9750342201078,632.8130994340696 1877.692776126048,684.3251961048608 1818.8218085022868,743.196163728622 C 1759.9508408785255,684.3251961048608 1774.6685827844658,632.8130994340696 1818.8218085022868,596.0187446692189 Z" fill="url(#leaf2)" opacity="0.22" transform="rotate(225.0 1818.8 669.6)"/>
    <path d="M 1361.7453849763353,25.04509231607092 C 1384.9062048704263,44.34577556114671 1392.6264781684565,71.36673210425282 1361.7453849763353,102.24782529637409 C 1330.8642917842142,71.36673210425282 1338.5845650822444,44.34577556114671 1361.7453849763353,25.04509231607092 Z" fill="url(#leaf3)" opacity="0.17" transform="rotate(338.2 1361.7 63.6)"/>
    <path d="M 1593.2623587956193,595.6472340486395 C 1623.4103609699805,620.7705691939406 1633.459695028101,655.9432383973619 1593.2623587956193,696.1405746298436 C 1553.0650225631377,655.9432383973619 1563.1143566212581,620.7705691939406 1593.2623587956193,595.6472340486395 Z" fill="url(#leaf4)" opacity="0.19" transform="rotate(79.0 1593.3 645.9)"/>
    <path d="M 1247.3130166522901,206.3765957406343 C 1270.654363434442,225.8277180590943 1278.434812361826,253.05928930493835 1247.3130166522901,284.1810850144744 C 1216.1912209427542,253.05928930493835 1223.9716698701382,225.8277180590943 1247.3130166522901,206.3765957406343 Z" fill="url(#leaf5)" opacity="0.19" transform="rotate(273.0 1247.3 245.3)"/>
    <path d="M 849.7078963382295,158.05836276346494 C 869.3964547028108,174.4654947339494 875.9593074910047,197.4354794926277 849.7078963382295,223.68689064540288 C 823.4564851854543,197.4354794926277 830.0193379736481,174.4654947339494 849.7078963382295,158.05836276346494 Z" fill="url(#leaf6)" opacity="0.18" transform="rotate(50.0 849.7 190.9)"/>
    <path d="M 1109.4405633934255,489.1076399520719 C 1134.3233655034448,509.8433083770881 1142.6176328734514,538.8732441721108 1109.4405633934255,572.0503136521368 C 1076.2634939133995,538.8732441721108 1084.557761283406,509.8433083770881 1109.4405633934255,489.1076399520719 Z" fill="url(#leaf7)" opacity="0.23" transform="rotate(89.5 1109.4 530.6)"/>
    <path d="M 569.1480629592032,205.52241365663173 C 588.1834786955237,221.38526010356546 594.5286172742972,243.59324512927265 569.1480629592032,268.9737994443666 C 543.7675086441093,243.59324512927265 550.1126472228827,221.38526010356546 569.1480629592032,205.52241365663173 Z" fill="url(#leaf8)" opacity="0.20" transform="rotate(296.4 569.1 237.2)"/>
    <path d="M 670.80988192489,616.0851699862721 C 716.1782093197438,653.8921094819837 731.3009851180284,706.8218247759797 670.80988192489,767.3129279691182 C 610.3187787317515,706.8218247759797 625.4415545300361,653.8921094819837 670.80988192489,616.0851699862721 Z" fill="url(#leaf9)" opacity="0.21" transform="rotate(53.2 670.8 691.7)"/>
    <path d="M 422.4848912723919,546.1526682780955 C 450.9350367369817,569.8611228319203 460.41841855851163,603.0529592072751 422.4848912723919,640.9864864933948 C 384.5513639862722,603.0529592072751 394.0347458078021,569.8611228319203 422.4848912723919,546.1526682780955 Z" fill="url(#leaf10)" opacity="0.15" transform="rotate(321.3 422.5 593.6)"/>
    <path d="M 603.2927992936018,596.1292148441754 C 640.5513858725612,627.1780369933083 652.9709147322144,670.6463880020943 603.2927992936018,720.324503440707 C 553.6146838549892,670.6463880020943 566.0342127146423,627.1780369933083 603.2927992936018,596.1292148441754 Z" fill="url(#leaf11)" opacity="0.17" transform="rotate(189.1 603.3 658.2)"/>
    <path d="M 1103.1946600904494,631.9138802299824 C 1143.0359278577725,665.1149367027518 1156.3163504468803,711.5964157646289 1103.1946600904494,764.7181061210599 C 1050.0729697340184,711.5964157646289 1063.3533923231262,665.1149367027518 1103.1946600904494,631.9138802299824 Z" fill="url(#leaf12)" opacity="0.18" transform="rotate(245.5 1103.2 698.3)"/>
    <path d="M 1440.1624906285258,211.16621160728835 C 1481.9638449931344,246.0006735777955 1495.8976297813372,294.7689203365055 1440.1624906285258,350.504059489317 C 1384.4273514757144,294.7689203365055 1398.3611362639172,246.0006735777955 1440.1624906285258,211.16621160728835 Z" fill="url(#leaf13)" opacity="0.19" transform="rotate(285.9 1440.2 280.8)"/>
    <path d="M 1289.2543975421331,813.074179951073 C 1310.2999386669067,830.6121308883843 1317.3151190418312,855.1652622006202 1289.2543975421331,883.2259837003184 C 1261.193676042435,855.1652622006202 1268.2088564173596,830.6121308883843 1289.2543975421331,813.074179951073 Z" fill="url(#leaf14)" opacity="0.16" transform="rotate(133.2 1289.3 848.2)"/>
    <path d="M 1689.3240530108667,392.6330296924324 C 1713.0482618103788,412.4032036920258 1720.956331410216,440.08144729145647 1689.3240530108667,471.71372569080586 C 1657.6917746115173,440.08144729145647 1665.5998442113546,412.4032036920258 1689.3240530108667,392.6330296924324 Z" fill="url(#leaf15)" opacity="0.19" transform="rotate(177.8 1689.3 432.2)"/>
    <path d="M 446.79663058396414,401.53994462551174 C 485.7124979427634,433.96983409117774 498.6844537290298,479.3716793431102 446.79663058396414,531.2595024881759 C 394.90880743889846,479.3716793431102 407.8807632251649,433.96983409117774 446.79663058396414,401.53994462551174 Z" fill="url(#leaf16)" opacity="0.18" transform="rotate(267.3 446.8 466.4)"/>
    <path d="M 319.13306733960144,144.0115083120356 C 350.6508163526535,170.27629915624567 361.15673269033755,207.0470063381398 319.13306733960144,249.07067168887593 C 277.10940198886533,207.0470063381398 287.61531832654936,170.27629915624567 319.13306733960144,144.0115083120356 Z" fill="url(#leaf17)" opacity="0.23" transform="rotate(20.9 319.1 196.5)"/>
    <path d="M 1636.5226466604918,-15.246738798130835 C 1677.36389760236,18.787636986759523 1690.9776479163163,66.43576308560603 1636.5226466604918,120.8907643414306 C 1582.0676454046672,66.43576308560603 1595.6813957186234,18.787636986759523 1636.5226466604918,-15.246738798130835 Z" fill="url(#leaf18)" opacity="0.24" transform="rotate(173.7 1636.5 52.8)"/>
    <path d="M 1083.9036929007043,207.34860895534968 C 1106.2568751249878,225.97626080891928 1113.7079358664157,252.05497340391676 1083.9036929007043,281.85921636962814 C 1054.099449934993,252.05497340391676 1061.5505106764208,225.97626080891928 1083.9036929007043,207.34860895534968 Z" fill="url(#leaf19)" opacity="0.22" transform="rotate(307.3 1083.9 244.6)"/>
    <path d="M 1124.626321088463,144.65762814467968 C 1145.0988155008138,161.71804015497193 1151.9229803049307,185.60261696938113 1124.626321088463,212.89927618584875 C 1097.3296618719955,185.60261696938113 1104.1538266761124,161.71804015497193 1124.626321088463,144.65762814467968 Z" fill="url(#leaf20)" opacity="0.17" transform="rotate(53.6 1124.6 178.8)"/>
    <path d="M 779.1369990003757,270.70845080103805 C 807.5522711363066,294.38784424764714 817.0240285149503,327.53899507289987 779.1369990003757,365.4260245874744 C 741.2499694858011,327.53899507289987 750.7217268644448,294.38784424764714 779.1369990003757,270.70845080103805 Z" fill="url(#leaf21)" opacity="0.25" transform="rotate(261.2 779.1 318.1)"/>
    <path d="M 566.6632328490518,560.6357402751362 C 602.1108816241549,590.175447587722 613.9267645491892,631.5310378253422 566.6632328490518,678.7945695254796 C 519.3997011489145,631.5310378253422 531.2155840739488,590.175447587722 566.6632328490518,560.6357402751362 Z" fill="url(#leaf22)" opacity="0.19" transform="rotate(293.8 566.7 619.7)"/>
    <path d="M 458.44127207381746,347.94102554579877 C 493.50445980957227,377.1603486589277 505.19218905482387,418.0674010173083 458.44127207381746,464.8183179983147 C 411.69035509281105,418.0674010173083 423.37808433806265,377.1603486589277 458.44127207381746,347.94102554579877 Z" fill="url(#leaf23)" opacity="0.22" transform="rotate(25.3 458.4 406.4)"/>
    <path d="M 1422.477205507032,73.03708035495913 C 1453.2715818859792,98.69906067074842 1463.536374012295,134.62583311285343 1422.477205507032,175.68500161811627 C 1381.418037001769,134.62583311285343 1391.682829128085,98.69906067074842 1422.477205507032,73.03708035495913 Z" fill="url(#leaf24)" opacity="0.19" transform="rotate(294.6 1422.5 124.4)"/>
    <path d="M 976.762595979687,935.5288436459642 C 1004.5900164592069,958.7183607122308 1013.8658232857136,991.183684605004 976.762595979687,1028.2869119110305 C 939.6593686736604,991.183684605004 948.9351755001671,958.7183607122308 976.762595979687,935.5288436459642 Z" fill="url(#leaf25)" opacity="0.18" transform="rotate(161.5 976.8 981.9)"/>
    <path d="M 1567.8461352780578,858.3393450614682 C 1601.6145132975666,886.4796600777257 1612.8706393040698,925.8761011004862 1567.8461352780578,970.9006051264981 C 1522.8216312520458,925.8761011004862 1534.077757258549,886.4796600777257 1567.8461352780578,858.3393450614682 Z" fill="url(#leaf26)" opacity="0.19" transform="rotate(237.6 1567.8 914.6)"/>
    <path d="M 1356.119001524064,243.87640759877195 C 1391.1925485474267,273.10436345157416 1402.8837308885477,314.0235016454973 1356.119001524064,360.7882310099808 C 1309.3542721595804,314.0235016454973 1321.0454545007015,273.10436345157416 1356.119001524064,243.87640759877195 Z" fill="url(#leaf27)" opacity="0.15" transform="rotate(320.3 1356.1 302.3)"/>
    <path d="M 1350.2721826976535,867.1247608909597 C 1369.6357114267944,883.2610348319104 1376.0902210031747,905.8518183492413 1350.2721826976535,931.6698566547624 C 1324.4541443921323,905.8518183492413 1330.9086539685127,883.2610348319104 1350.2721826976535,867.1247608909597 Z" fill="url(#leaf28)" opacity="0.22" transform="rotate(336.9 1350.3 899.4)"/>
    <path d="M 1653.5423956851623,739.2039358043953 C 1697.6441040517288,775.9553594432009 1712.3446735072512,827.4073525375286 1653.5423956851623,886.2096303596174 C 1594.7401178630735,827.4073525375286 1609.4406873185958,775.9553594432009 1653.5423956851623,739.2039358043953 Z" fill="url(#leaf29)" opacity="0.23" transform="rotate(26.7 1653.5 812.7)"/>
    <path d="M 413.9721531021377,371.05460376722283 C 443.5971535419247,395.742104133712 453.4721536885204,430.3046046467968 413.9721531021377,469.8046052331795 C 374.47215251575506,430.3046046467968 384.34715266235077,395.742104133712 413.9721531021377,371.05460376722283 Z" fill="url(#leaf0)" opacity="0.23" transform="rotate(125.3 414.0 420.4)"/>
    <path d="M 755.6057808179072,826.6232220987317 C 791.8342355243566,856.8136010207729 803.910387093173,899.0801315116305 755.6057808179072,947.3847377868963 C 707.3011745426414,899.0801315116305 719.3773261114578,856.8136010207729 755.6057808179072,826.6232220987317 Z" fill="url(#leaf1)" opacity="0.16" transform="rotate(226.3 755.6 887.0)"/>
    <path d="M 240.99068363740378,144.98962280057378 C 280.730532463303,178.10616348882314 293.97714873860275,224.46932045237222 240.99068363740378,277.45578555357116 C 188.00421853620483,224.46932045237222 201.25083481150457,178.10616348882314 240.99068363740378,144.98962280057378 Z" fill="url(#leaf2)" opacity="0.17" transform="rotate(321.7 241.0 211.2)"/>
    <path d="M 396.85280393731296,564.3152371191809 C 429.72754347660276,591.7108534019223 440.6857899896994,630.0647161977605 396.85280393731296,673.897702250147 C 353.0198178849265,630.0647161977605 363.97806439802315,591.7108534019223 396.85280393731296,564.3152371191809 Z" fill="url(#leaf3)" opacity="0.19" transform="rotate(15.7 396.9 619.1)"/>
    <path d="M 533.3680777295472,396.69018354933337 C 553.9673011244222,413.85620304506256 560.833708922714,437.8886303390835 533.3680777295472,465.35426153225023 C 505.9024465363804,437.8886303390835 512.7688543346721,413.85620304506256 533.3680777295472,396.69018354933337 Z" fill="url(#leaf4)" opacity="0.18" transform="rotate(353.9 533.4 431.0)"/>
    <path d="M 265.635268988936,307.0535478058025 C 296.6990959136492,332.94007024306353 307.0537048885536,369.18120165522896 265.635268988936,410.5996375548466 C 224.21683308931833,369.18120165522896 234.57144206422277,332.94007024306353 265.635268988936,307.0535478058025 Z" fill="url(#leaf5)" opacity="0.23" transform="rotate(205.6 265.6 358.8)"/>
    <path d="M 1089.3013584096943,860.2552961762478 C 1133.7837154110746,897.3239270107315 1148.611167744868,949.2200101790085 1089.3013584096943,1008.5298195141822 C 1029.9915490745207,949.2200101790085 1044.819001408314,897.3239270107315 1089.3013584096943,860.2552961762478 Z" fill="url(#leaf6)" opacity="0.17" transform="rotate(239.6 1089.3 934.4)"/>
    <path d="M 910.983639984839,640.2537891698181 C 957.0597133737397,678.650516993902 972.4184045033732,732.4059359476195 910.983639984839,793.8407004661536 C 849.5488754663048,732.4059359476195 864.9075665959383,678.650516993902 910.983639984839,640.2537891698181 Z" fill="url(#leaf7)" opacity="0.19" transform="rotate(58.4 911.0 717.0)"/>
    <path d="M 1535.9376041589082,880.034640919814 C 1578.319479643497,915.3528704903047 1592.4467714716934,964.7983918889917 1535.9376041589082,1021.3075592017768 C 1479.428436846123,964.7983918889917 1493.5557286743194,915.3528704903047 1535.9376041589082,880.034640919814 Z" fill="url(#leaf8)" opacity="0.21" transform="rotate(291.2 1535.9 950.7)"/>
    <path d="M 447.5251527188016,865.2876334947437 C 468.087466744781,882.4228951830598 474.9415714201075,906.4122615467024 447.5251527188016,933.8286802480084 C 420.10873401749575,906.4122615467024 426.96283869282223,882.4228951830598 447.5251527188016,865.2876334947437 Z" fill="url(#leaf9)" opacity="0.19" transform="rotate(201.5 447.5 899.6)"/>
    <path d="M 1751.4513244126583,142.01744570469825 C 1789.8695116865667,174.03260176628862 1802.6755741112029,218.85382025251513 1751.4513244126583,270.0780699510598 C 1700.2270747141138,218.85382025251513 1713.03313713875,174.03260176628862 1751.4513244126583,142.01744570469825 Z" fill="url(#leaf10)" opacity="0.21" transform="rotate(85.8 1751.5 206.0)"/>
    <path d="M 1799.7504704697878,277.0847678555968 C 1830.000692141827,302.2932859156294 1840.08409936584,337.58521119967503 1799.7504704697878,377.91884009572715 C 1759.4168415737356,337.58521119967503 1769.5002487977488,302.2932859156294 1799.7504704697878,277.0847678555968 Z" fill="url(#leaf11)" opacity="0.20" transform="rotate(312.5 1799.8 327.5)"/>
    <path d="M 1066.4068560146507,362.5492894966553 C 1085.458288739692,378.4254834341899 1091.808766314706,400.65215494673834 1066.4068560146507,426.0540652467937 C 1041.0049457145954,400.65215494673834 1047.3554232896092,378.4254834341899 1066.4068560146507,362.5492894966553 Z" fill="url(#leaf12)" opacity="0.25" transform="rotate(277.1 1066.4 394.3)"/>
    <path d="M 1393.8781801685413,434.6854625125573 C 1419.5383453698691,456.06893351366375 1428.0917337703115,486.0057929152127 1393.8781801685413,520.219346516983 C 1359.6646265667712,486.0057929152127 1368.2180149672135,456.06893351366375 1393.8781801685413,434.6854625125573 Z" fill="url(#leaf13)" opacity="0.23" transform="rotate(343.4 1393.9 477.5)"/>
    <path d="M 427.0454493446003,367.154746221676 C 449.33067638490155,385.7257687552604 456.7590853983353,411.7252003022785 427.0454493446003,441.4388363560135 C 397.3318132908653,411.7252003022785 404.760222304299,385.7257687552604 427.0454493446003,367.154746221676 Z" fill="url(#leaf14)" opacity="0.23" transform="rotate(92.9 427.0 404.3)"/>
    <path d="M 996.9428031625496,922.2503937633403 C 1025.0432664795205,945.6674465274829 1034.4100875851777,978.4513203972824 996.9428031625496,1015.9186048199106 C 959.4755187399215,978.4513203972824 968.8423398455785,945.6674465274829 996.9428031625496,922.2503937633403 Z" fill="url(#leaf15)" opacity="0.24" transform="rotate(97.3 996.9 969.1)"/>
    <path d="M 1431.9180949574966,274.1538096699825 C 1457.1457290544665,295.1768380841241 1465.554940420123,324.6090778639224 1431.9180949574966,358.245923326549 C 1398.28124949487,324.6090778639224 1406.6904608605266,295.1768380841241 1431.9180949574966,274.1538096699825 Z" fill="url(#leaf16)" opacity="0.24" transform="rotate(36.1 1431.9 316.2)"/>
    <path d="M 211.5744456486422,295.1210457504104 C 249.90276466250887,327.06131159529934 262.6788710004644,371.7776837781438 211.5744456486422,422.882109129966 C 160.47002029682,371.7776837781438 173.24612663477555,327.06131159529934 211.5744456486422,295.1210457504104 Z" fill="url(#leaf17)" opacity="0.24" transform="rotate(244.4 211.6 359.0)"/>
    <path d="M 779.156417478035,364.21867160408846 C 821.1953659643018,399.25112867597744 835.2083487930573,448.296568576622 779.156417478035,504.3484998916444 C 723.1044861630127,448.296568576622 737.1174689917682,399.25112867597744 779.156417478035,364.21867160408846 Z" fill="url(#leaf18)" opacity="0.22" transform="rotate(204.5 779.2 434.3)"/>
    <path d="M 364.2308203074014,355.2105907866882 C 397.19563006621587,382.6812655857002 408.18389998582063,421.14021030431707 364.2308203074014,465.0932899827363 C 320.2777406289822,421.14021030431707 331.26601054858696,382.6812655857002 364.2308203074014,355.2105907866882 Z" fill="url(#leaf19)" opacity="0.25" transform="rotate(298.0 364.2 410.2)"/>
    <path d="M 878.890205156687,168.89243373507946 C 906.9215643124334,192.25189969820144 916.2653506976822,224.95515204657218 878.890205156687,262.3302975875673 C 841.5150596156918,224.95515204657218 850.8588460009406,192.25189969820144 878.890205156687,168.89243373507946 Z" fill="url(#leaf20)" opacity="0.17" transform="rotate(279.6 878.9 215.6)"/>
    <path d="M 1633.5385126007318,947.7467342763921 C 1677.5586929683443,984.4302179160693 1692.2320864242151,1035.7870950116173 1633.5385126007318,1094.4806688351007 C 1574.8449387772484,1035.7870950116173 1589.5183322331193,984.4302179160693 1633.5385126007318,947.7467342763921 Z" fill="url(#leaf21)" opacity="0.17" transform="rotate(157.9 1633.5 1021.1)"/>
    <path d="M 871.9439670541335,486.34825069926273 C 912.479474263499,520.1278400404007 925.9913099999542,567.4192651179937 871.9439670541335,621.4666080638144 C 817.8966241083128,567.4192651179937 831.408459844768,520.1278400404007 871.9439670541335,486.34825069926273 Z" fill="url(#leaf22)" opacity="0.22" transform="rotate(84.4 871.9 553.9)"/>
    <path d="M 1466.3030972363451,446.75816838367643 C 1493.293563420401,469.2502235370563 1502.290385481753,500.7391007517881 1466.3030972363451,536.7263889971958 C 1430.3158089909373,500.7391007517881 1439.3126310522894,469.2502235370563 1466.3030972363451,446.75816838367643 Z" fill="url(#leaf23)" opacity="0.21" transform="rotate(17.0 1466.3 491.7)"/>
    <path d="M 1398.3674361445565,518.1245338051907 C 1445.6797533217677,557.5514647862001 1461.4505257141716,612.7491681596133 1398.3674361445565,675.8322577292284 C 1335.2843465749413,612.7491681596133 1351.0551189673452,557.5514647862001 1398.3674361445565,518.1245338051907 Z" fill="url(#leaf24)" opacity="0.22" transform="rotate(359.9 1398.4 597.0)"/>
    <path d="M 1314.0063468772257,430.13411251058534 C 1349.5719511254435,459.77211605076684 1361.427152541516,501.265321007021 1314.0063468772257,548.6861266713115 C 1266.5855412129354,501.265321007021 1278.440742629008,459.77211605076684 1314.0063468772257,430.13411251058534 Z" fill="url(#leaf25)" opacity="0.18" transform="rotate(325.3 1314.0 489.4)"/>
    <path d="M 1199.576386186914,700.11087905971 C 1242.5866350439846,735.9527531072688 1256.9233846630082,786.1313767738511 1199.576386186914,843.4783752499452 C 1142.22938771082,786.1313767738511 1156.5661373298435,735.9527531072688 1199.576386186914,700.11087905971 Z" fill="url(#leaf26)" opacity="0.22" transform="rotate(305.9 1199.6 771.8)"/>
    <path d="M 817.5792218157616,758.5392064323385 C 844.332177093535,780.833335830483 853.2498288527929,812.0451169878854 817.5792218157616,847.7157240249167 C 781.9086147787302,812.0451169878854 790.8262665379881,780.833335830483 817.5792218157616,758.5392064323385 Z" fill="url(#leaf27)" opacity="0.17" transform="rotate(69.9 817.6 803.1)"/>
    <path d="M 1178.2738674162983,-8.543635363304944 C 1222.83813082787,28.59325081300463 1237.6928852983938,80.58489145983803 1178.2738674162983,140.00390934193337 C 1118.854849534203,80.58489145983803 1133.7096040047268,28.59325081300463 1178.2738674162983,-8.543635363304944 Z" fill="url(#leaf28)" opacity="0.23" transform="rotate(108.5 1178.3 65.7)"/>
    <path d="M 622.9249964637603,248.68575623116914 C 653.1808852289149,273.89899686879795 663.2661814839664,309.1975337614784 622.9249964637603,349.5387187816845 C 582.5838114435542,309.1975337614784 592.6691076986057,273.89899686879795 622.9249964637603,248.68575623116914 Z" fill="url(#leaf29)" opacity="0.24" transform="rotate(45.6 622.9 299.1)"/>
    <path d="M 1413.3834137973404,483.98640571196444 C 1456.8696863361845,520.2249661610012 1471.3651105157994,570.9589507896528 1413.3834137973404,628.9406475081119 C 1355.4017170788813,570.9589507896528 1369.8971412584963,520.2249661610012 1413.3834137973404,483.98640571196444 Z" fill="url(#leaf0)" opacity="0.24" transform="rotate(118.1 1413.4 556.5)"/>
    <path d="M 464.45769120908705,589.3513445627389 C 505.18369639620784,623.2896822186729 518.7590314585814,670.8033549369804 464.45769120908705,725.1046951864748 C 410.15635095959266,670.8033549369804 423.73168602196625,623.2896822186729 464.45769120908705,589.3513445627389 Z" fill="url(#leaf1)" opacity="0.23" transform="rotate(350.8 464.5 657.2)"/>
    <path d="M 1485.19279068637,523.2006722316875 C 1514.6021953504003,547.7085094517128 1524.4053302384104,582.0194815597482 1485.19279068637,621.2320211117886 C 1445.9802511343296,582.0194815597482 1455.7833860223398,547.7085094517128 1485.19279068637,523.2006722316875 Z" fill="url(#leaf2)" opacity="0.24" transform="rotate(102.0 1485.2 572.2)"/>
    <path d="M 574.3256383897766,281.7848690016224 C 610.0347921033015,311.5424970962265 621.9378433411431,353.2031764286722 574.3256383897766,400.81538138003873 C 526.7134334384101,353.2031764286722 538.6164846762517,311.5424970962265 574.3256383897766,281.7848690016224 Z" fill="url(#leaf3)" opacity="0.17" transform="rotate(41.6 574.3 341.3)"/>
    <path d="M 1372.9484902980803,925.0362703243342 C 1418.3863548475479,962.9011574488903 1433.5323096973702,1015.9119994232691 1372.9484902980803,1076.4958188225592 C 1312.3646708987903,1015.9119994232691 1327.5106257486127,962.9011574488903 1372.9484902980803,925.0362703243342 Z" fill="url(#leaf4)" opacity="0.15" transform="rotate(319.4 1372.9 1000.8)"/>
    <path d="M 883.927419361483,813.3810213539722 C 922.4833309476287,845.5109476757603 935.335301476344,890.4928445262636 883.927419361483,941.9007266411246 C 832.519537246622,890.4928445262636 845.3715077753372,845.5109476757603 883.927419361483,813.3810213539722 Z" fill="url(#leaf5)" opacity="0.19" transform="rotate(205.9 883.9 877.6)"/>
    <path d="M 965.161616474121,798.4236441398419 C 989.7971416358323,818.953248441268 998.0089833564027,847.6946944632645 965.161616474121,880.5420613455461 C 932.3142495918394,847.6946944632645 940.5260913124098,818.953248441268 965.161616474121,798.4236441398419 Z" fill="url(#leaf6)" opacity="0.21" transform="rotate(16.1 965.2 839.5)"/>
    <path d="M 673.4960202909275,420.43609660320527 C 715.0112430929714,455.03211560490854 728.8496506936527,503.4665422072931 673.4960202909275,558.8201726100183 C 618.1423898882023,503.4665422072931 631.9807974888836,455.03211560490854 673.4960202909275,420.43609660320527 Z" fill="url(#leaf7)" opacity="0.15" transform="rotate(244.8 673.5 489.6)"/>
    <path d="M 1648.4908751942428,948.8907474146847 C 1684.8620883153253,979.2000916822535 1696.9858260223527,1021.6331736568497 1648.4908751942428,1070.1281244849597 C 1599.9959243661328,1021.6331736568497 1612.1196620731603,979.2000916822535 1648.4908751942428,948.8907474146847 Z" fill="url(#leaf8)" opacity="0.17" transform="rotate(138.1 1648.5 1009.5)"/>
    <path d="M 865.477822220506,821.0676137407784 C 908.7277275453964,857.1092015115204 923.1443626536932,907.567424390559 865.477822220506,965.2339648237462 C 807.8112817873189,907.567424390559 822.2279168956156,857.1092015115204 865.477822220506,821.0676137407784 Z" fill="url(#leaf9)" opacity="0.17" transform="rotate(78.1 865.5 893.2)"/>
    <path d="M 949.8364668877114,836.7807168787783 C 997.0068001751638,876.0893279516554 1012.7302446043146,931.1213834536833 949.8364668877114,994.0151611702865 C 886.9426891711081,931.1213834536833 902.666133600259,876.0893279516554 949.8364668877114,836.7807168787783 Z" fill="url(#leaf10)" opacity="0.18" transform="rotate(331.7 949.8 915.4)"/>
    <path d="M 1809.8710999773027,679.108218298371 C 1842.378317902186,706.1975665691069 1853.2140572104804,744.1226541481373 1809.8710999773027,787.4656113813148 C 1766.528142744125,744.1226541481373 1777.3638820524195,706.1975665691069 1809.8710999773027,679.108218298371 Z" fill="url(#leaf11)" opacity="0.21" transform="rotate(99.4 1809.9 733.3)"/>
    <path d="M 383.5291366243155,113.62666205787656 C 422.18263440777974,145.83791021076343 435.0671336689345,190.933657624805 383.5291366243155,242.47165466942397 C 331.99113957969655,190.933657624805 344.8756388408513,145.83791021076343 383.5291366243155,113.62666205787656 Z" fill="url(#leaf12)" opacity="0.19" transform="rotate(19.0 383.5 178.0)"/>
    <path d="M 221.56009715611265,36.62505121431691 C 248.47253168977346,59.0520799923676 257.44334320099375,90.44992028163857 221.56009715611265,126.33316632651967 C 185.67685111123154,90.44992028163857 194.64766262245183,59.0520799923676 221.56009715611265,36.62505121431691 Z" fill="url(#leaf13)" opacity="0.15" transform="rotate(69.9 221.6 81.5)"/>
    <path d="M 468.63758172063973,805.7574671331225 C 495.0748613989792,827.7885335317388 503.8872879584257,858.6320264898015 468.63758172063973,893.8817327275875 C 433.38787548285376,858.6320264898015 442.2003020423003,827.7885335317388 468.63758172063973,805.7574671331225 Z" fill="url(#leaf14)" opacity="0.20" transform="rotate(121.4 468.6 849.8)"/>
    <path d="M 1792.6373048807043,690.6281346239454 C 1813.9134072159993,708.358219903358 1821.0054413277644,733.1803392945357 1792.6373048807043,761.5484757415958 C 1764.2691684336442,733.1803392945357 1771.3612025454092,708.358219903358 1792.6373048807043,690.6281346239454 Z" fill="url(#leaf15)" opacity="0.19" transform="rotate(59.8 1792.6 726.1)"/>
    <path d="M 1554.1630594898156,226.33336249647652 C 1588.4441567268539,254.90094352734172 1599.8711891392,294.895556970553 1554.1630594898156,340.6036866199373 C 1508.4549298404313,294.895556970553 1519.8819622527774,254.90094352734172 1554.1630594898156,226.33336249647652 Z" fill="url(#leaf16)" opacity="0.24" transform="rotate(24.5 1554.2 283.5)"/>
    <path d="M 162.38491959477295,232.43254732526012 C 188.85185883738612,254.48833002743777 197.67417191825717,285.3664258104864 162.38491959477295,320.65567813397064 C 127.09566727128873,285.3664258104864 135.9179803521598,254.48833002743777 162.38491959477295,232.43254732526012 Z" fill="url(#leaf17)" opacity="0.22" transform="rotate(291.8 162.4 276.5)"/>
    <path d="M 178.44715762063854,683.1645418022059 C 203.1674743425886,703.7648057371642 211.40757991657193,732.605175246106 178.44715762063854,765.5655975420394 C 145.48673532470514,732.605175246106 153.72684089868847,703.7648057371642 178.44715762063854,683.1645418022059 Z" fill="url(#leaf18)" opacity="0.24" transform="rotate(310.0 178.4 724.4)"/>
    <path d="M 962.5685606591774,295.82090479127174 C 992.3458179021568,320.6352858270879 1002.2715703164832,355.3754192772305 962.5685606591774,395.07842893453636 C 922.8655510018715,355.3754192772305 932.7913034161979,320.6352858270879 962.5685606591774,295.82090479127174 Z" fill="url(#leaf19)" opacity="0.20" transform="rotate(250.1 962.6 345.4)"/>
    <path d="M 599.9226770092374,442.3205338328082 C 631.7013470518461,468.80275886831544 642.294237066049,505.8778739180256 599.9226770092374,548.2494339748372 C 557.5511169524258,505.8778739180256 568.1440069666287,468.80275886831544 599.9226770092374,442.3205338328082 Z" fill="url(#leaf20)" opacity="0.19" transform="rotate(225.4 599.9 495.3)"/>
    </g>

    <!-- Text with SOLID fill only (ThorVG compatible) -->
    <text x="845.4" y="926.3"
          font-family="Arial, Helvetica, sans-serif"
          font-size="1080px"
          font-weight="bold"
          fill="#FF69B4"
          text-anchor="middle"
          transform="rotate(2.8 960.0 540.0)">
      D
    </text>
  </g>

  <!-- Frame counter -->
  <text x="960.0" y="1050.0"
        font-family="monospace"
        font-size="24px"
        fill="#FFFFFF"
        text-anchor="middle"
        opacity="0.7">
    Frame 00016 - Compatible
  </text>
</svg>