<?xml version="1.0" encoding="UTF-8"?>
<svg xmlns="http://www.w3.org/2000/svg" viewBox="0 0 1920 1080" width="1920" height="1080">
  <defs>
    <linearGradient id="bgGrad" x1="0%" y1="0%" x2="100%" y2="100%">
      <stop offset="0%" stop-color="#32CD32"/>
      <stop offset="100%" stop-color="#FFD700"/>
    </linearGradient>
    <clipPath id="complexClip"><polygon points="1456.2,540.0 1558.1,582.5 1469.3,613.6 1526.5,666.2 1467.7,697.0 1316.1,685.5 1342.2,741.9 1349.8,805.0 1181.1,736.0 1238.9,873.4 1146.5,862.9 1047.5,797.9 997.1,871.7 918.8,908.2 853.1,855.3 762.6,881.7 790.5,742.6 677.6,790.3 636.5,759.9 506.8,779.4 469.5,740.4 563.7,662.6 357.9,674.1 486.1,608.4 532.1,570.4 550.1,540.0 429.0,502.3 571.1,483.8 555.0,449.8 414.0,371.2 504.4,353.8 663.5,383.4 570.6,275.2 669.1,282.1 743.4,281.1 797.4,258.5 840.0,186.0 930.0,272.1 1000.5,178.0 1083.0,177.2 1082.9,327.2 1168.8,290.4 1193.3,333.2 1280.3,322.2 1246.4,388.7 1360.6,376.3 1517.8,367.5 1381.7,446.1 1403.0,476.0 1396.9,509.0"/></clipPath>
    <radialGradient id="leaf0" cx="50%" cy="50%" r="70%">
      <stop offset="0%" stop-color="#FFD700"/>
      <stop offset="50%" stop-color="#9370DB"/>
      <stop offset="100%" stop-color="#FF6B6B"/>
    </radialGradient>
    <radialGradient id="leaf1" cx="50%" cy="50%" r="70%">
      <stop offset="0%" stop-color="#96E6A1"/>
      <stop offset="50%" stop-color="#FF6B6B"/>
      <stop offset="100%" stop-color="#00FA9A"/>
    </radialGradient>
    <radialGradient id="leaf2" cx="50%" cy="50%" r="70%">
      <stop offset="0%" stop-color="#DC143C"/>
      <stop offset="50%" stop-color="#FF69B4"/>
      <stop offset="100%" stop-color="#45B7D1"/>
    </radialGradient>
    <radialGradient id="leaf3" cx="50%" cy="50%" r="70%">
      <stop offset="0%" stop-color="#FF6B6B"/>
      <stop offset="50%" stop-color="#FF4500"/>
      <stop offset="100%" stop-color="#00CED1"/>
    </radialGradient>
    <radialGradient id="leaf4" cx="50%" cy="50%" r="70%">
      <stop offset="0%" stop-color="#FF1493"/>
      <stop offset="50%" stop-color="#FF69B4"/>
      <stop offset="100%" stop-color="#96E6A1"/>
    </radialGradient>
    <radialGradient id="leaf5" cx="50%" cy="50%" r="70%">
      <stop offset="0%" stop-color="#FFD700"/>
      <stop offset="50%" stop-color="#00FA9A"/>
      <stop offset="100%" stop-color="#32CD32"/>
    </radialGradient>
    <radialGradient id="leaf6" cx="50%" cy="50%" r="70%">
      <stop offset="0%" stop-color="#FFE66D"/>
      <stop offset="50%" stop-color="#32CD32"/>
      <stop offset="100%" stop-color="#00CED1"/>
    </radialGradient>
    <radialGradient id="leaf7" cx="50%" cy="50%" r="70%">
      <stop offset="0%" stop-color="#FF6B6B"/>
      <stop offset="50%" stop-color="#FF1493"/>
      <stop offset="100%" stop-color="#00FA9A"/>
    </radialGradient>
    <radialGradient id="leaf8" cx="50%" cy="50%" r="70%">
      <stop offset="0%" stop-color="#FF4500"/>
      <stop offset="50%" stop-color="#9370DB"/>
      <stop offset="100%" stop-color="#45B7D1"/>
    </radialGradient>
    <radialGradient id="leaf9" cx="50%" cy="50%" r="70%">
      <stop offset="0%" stop-color="#96E6A1"/>
      <stop offset="50%" stop-color="#32CD32"/>
      <stop offset="100%" stop-color="#4ECDC4"/>
    </radialGradient>
    <radialGradient id="leaf10" cx="50%" cy="50%" r="70%">
      <stop offset="0%" stop-color="#00FA9A"/>
      <stop offset="50%" stop-color="#9370DB"/>
      <stop offset="100%" stop-color="#4ECDC4"/>
    </radialGradient>
    <radialGradient id="leaf11" cx="50%" cy="50%" r="70%">
      <stop offset="0%" stop-color="#FFE66D"/>
      <stop offset="50%" stop-color="#FF6B6B"/>
      <stop offset="100%" stop-color="#DC143C"/>
    </radialGradient>
    <radialGradient id="leaf12" cx="50%" cy="50%" r="70%">
      <stop offset="0%" stop-color="#00FA9A"/>
      <stop offset="50%" stop-color="#7B68EE"/>
      <stop offset="100%" stop-color="#FF1493"/>
    </radialGradient>
    <radialGradient id="leaf13" cx="50%" cy="50%" r="70%">
      <stop offset="0%" stop-color="#32CD32"/>
      <stop offset="50%" stop-color="#FF6B6B"/>
      <stop offset="100%" stop-color="#96E6A1"/>
    </radialGradient>
    <radialGradient id="leaf14" cx="50%" cy="50%" r="70%">
      <stop offset="0%" stop-color="#00FA9A"/>
      <stop offset="50%" stop-color="#4ECDC4"/>
      <stop offset="100%" stop-color="#FFD700"/>
    </radialGradient>
    <radialGradient id="leaf15" cx="50%" cy="50%" r="70%">
      <stop offset="0%" stop-color="#96E6A1"/>
      <stop offset="50%" stop-color="#45B7D1"/>
      <stop offset="100%" stop-color="#DC143C"/>
    </radialGradient>
    <radialGradient id="leaf16" cx="50%" cy="50%" r="70%">
      <stop offset="0%" stop-color="#00FA9A"/>
      <stop offset="50%" stop-color="#7B68EE"/>
      <stop offset="100%" stop-color="#4ECDC4"/>
    </radialGradient>
    <radialGradient id="leaf17" cx="50%" cy="50%" r="70%">
      <stop offset="0%" stop-color="#DC143C"/>
      <stop offset="50%" stop-color="#96E6A1"/>
      <stop offset="100%" stop-color="#FFE66D"/>
    </radialGradient>
    <radialGradient id="leaf18" cx="50%" cy="50%" r="70%">
      <stop offset="0%" stop-color="#9370DB"/>
      <stop offset="50%" stop-color="#32CD32"/>
      <stop offset="100%" stop-color="#FF6B6B"/>
    </radialGradient>
    <radialGradient id="leaf19" cx="50%" cy="50%" r="70%">
      <stop offset="0%" stop-color="#00FA9A"/>
      <stop offset="50%" stop-color="#96E6A1"/>
      <stop offset="100%" stop-color="#FF4500"/>
    </radialGradient>
    <radialGradient id="leaf20" cx="50%" cy="50%" r="70%">
      <stop offset="0%" stop-color="#FF1493"/>
      <stop offset="50%" stop-color="#9370DB"/>
      <stop offset="100%" stop-color="#00CED1"/>
    </radialGradient>
    <radialGradient id="leaf21" cx="50%" cy="50%" r="70%">
      <stop offset="0%" stop-color="#FF6B6B"/>
      <stop offset="50%" stop-color="#FFE66D"/>
      <stop offset="100%" stop-color="#FF4500"/>
    </radialGradient>
    <radialGradient id="leaf22" cx="50%" cy="50%" r="70%">
      <stop offset="0%" stop-color="#4ECDC4"/>
      <stop offset="50%" stop-color="#45B7D1"/>
      <stop offset="100%" stop-color="#9370DB"/>
    </radialGradient>
    <radialGradient id="leaf23" cx="50%" cy="50%" r="70%">
      <stop offset="0%" stop-color="#32CD32"/>
      <stop offset="50%" stop-color="#9370DB"/>
      <stop offset="100%" stop-color="#00FA9A"/>
    </radialGradient>
    <radialGradient id="leaf24" cx="50%" cy="50%" r="70%">
      <stop offset="0%" stop-color="#00CED1"/>
      <stop offset="50%" stop-color="#FF69B4"/>
      <stop offset="100%" stop-color="#FF1493"/>
    </radialGradient>
    <radialGradient id="leaf25" cx="50%" cy="50%" r="70%">
      <stop offset="0%" stop-color="#FF1493"/>
      <stop offset="50%" stop-color="#00CED1"/>
      <stop offset="100%" stop-color="#4ECDC4"/>
    </radialGradient>
    <radialGradient id="leaf26" cx="50%" cy="50%" r="70%">
      <stop offset="0%" stop-color="#45B7D1"/>
      <stop offset="50%" stop-color="#DC143C"/>
      <stop offset="100%" stop-color="#00FA9A"/>
    </radialGradient>
    <radialGradient id="leaf27" cx="50%" cy="50%" r="70%">
      <stop offset="0%" stop-color="#96E6A1"/>
      <stop offset="50%" stop-color="#FF1493"/>
      <stop offset="100%" stop-color="#00FA9A"/>
    </radialGradient>
    <radialGradient id="leaf28" cx="50%" cy="50%" r="70%">
      <stop offset="0%" stop-color="#4ECDC4"/>
      <stop offset="50%" stop-color="#FF4500"/>
      <stop offset="100%" stop-color="#FF1493"/>
    </radialGradient>
    <radialGradient id="leaf29" cx="50%" cy="50%" r="70%">
      <stop offset="0%" stop-color="#00CED1"/>
      <stop offset="50%" stop-color="#7B68EE"/>
      <stop offset="100%" stop-color="#32CD32"/>
    </radialGradient>
  </defs>

  <!-- Scaled content -->
  <g transform="translate(960.0,540.0) scale(3.0) translate(-960.0,-540.0)">
    <!-- Background -->
    <rect width="1920" height="1080" fill="url(#bgGrad)"/>
    
    <!-- Leaves with clip-path -->
    <g clip-path="url(#complexClip)">
    <path d="M 1481.0587271381328,667.544549587442 C 1512.949682576089,694.1203457857389 1523.5800010554076,731.3264604633544 1481.0587271381328,773.8477343806293 C 1438.537453220858,731.3264604633544 1449.1677717001767,694.1203457857389 1481.0587271381328,667.544549587442 Z" fill="url(#leaf0)" opacity="0.16" transform="rotate(22.1 1481.1 720.7)"/>
    <path d="M 615.2010363819807,898.2989520439709 C 640.7671596311135,919.6040547515815 649.2892007141577,949.4311985422365 615.2010363819807,983.5193628744136 C 581.1128720498036,949.4311985422365 589.6349131328478,919.6040547515815 615.2010363819807,898.2989520439709 Z" fill="url(#leaf1)" opacity="0.24" transform="rotate(143.1 615.2 940.9)"/>
    <path d="M 1466.5371449876163,295.9487018622553 C 1491.8733924033904,317.06224137540033 1500.3188082086483,346.62119669380337 1466.5371449876163,380.40285991483546 C 1432.7554817665844,346.62119669380337 1441.2008975718422,317.06224137540033 1466.5371449876163,295.9487018622553 Z" fill="url(#leaf2)" opacity="0.18" transform="rotate(200.4 1466.5 338.2)"/>
    <path d="M 976.5619759618263,478.54221447641675 C 1023.1749865198176,517.3863899414096 1038.7126567058149,571.7682355923994 976.5619759618263,633.9189163363878 C 914.4112952178378,571.7682355923994 929.948965403835,517.3863899414096 976.5619759618263,478.54221447641675 Z" fill="url(#leaf3)" opacity="0.25" transform="rotate(329.6 976.6 556.2)"/>
    <path d="M 1103.10419382179,237.8450380735905 C 1147.3188825640739,274.69061202549375 1162.0571121448352,326.27441555815824 1103.10419382179,385.2273338812034 C 1044.1512754987448,326.27441555815824 1058.889505079506,274.69061202549375 1103.10419382179,237.8450380735905 Z" fill="url(#leaf4)" opacity="0.16" transform="rotate(350.0 1103.1 311.5)"/>
    <path d="M 635.5723462705555,677.0406303677387 C 673.5751164592529,708.7096055249865 686.2427065221519,753.0461707451334 635.5723462705555,803.71653099673 C 584.9019860189591,753.0461707451334 597.5695760818581,708.7096055249865 635.5723462705555,677.0406303677387 Z" fill="url(#leaf5)" opacity="0.24" transform="rotate(302.9 635.6 740.4)"/>
    <path d="M 1549.5309137973727,179.4996633742669 C 1593.2958767676187,215.97046584947188 1607.8841977577006,267.0295893147588 1549.5309137973727,325.3828732750868 C 1491.1776298370448,267.0295893147588 1505.7659508271267,215.97046584947188 1549.5309137973727,179.4996633742669 Z" fill="url(#leaf6)" opacity="0.18" transform="rotate(250.3 1549.5 252.4)"/>
    <path d="M 1632.3714942167126,574.9492207499184 C 1677.8531010624404,612.850559788025 1693.013636677683,665.9124344413742 1632.3714942167126,726.5545769023447 C 1571.729351755742,665.9124344413742 1586.8898873709848,612.850559788025 1632.3714942167126,574.9492207499184 Z" fill="url(#leaf7)" opacity="0.17" transform="rotate(162.1 1632.4 650.8)"/>
    <path d="M 1402.7225101226072,809.6651409060764 C 1422.8501917086073,826.4382088944097 1429.5594189039407,849.9205040780765 1402.7225101226072,876.7574128594099 C 1375.8856013412737,849.9205040780765 1382.594828536607,826.4382088944097 1402.7225101226072,809.6651409060764 Z" fill="url(#leaf8)" opacity="0.20" transform="rotate(338.0 1402.7 843.2)"/>
    <path d="M 1128.9967274039645,86.20074570366353 C 1168.8000648892087,119.37019360803356 1182.0678440509566,165.80742067415162 1128.9967274039645,218.87853732114365 C 1075.9256107569724,165.80742067415162 1089.1933899187204,119.37019360803356 1128.9967274039645,86.20074570366353 Z" fill="url(#leaf9)" opacity="0.24" transform="rotate(350.0 1129.0 152.5)"/>
    <path d="M 1092.6632346226806,106.5461015208894 C 1125.2312891380795,133.6861469503884 1136.0873073098792,171.68221055168704 1092.6632346226806,215.10628323888545 C 1049.2391619354821,171.68221055168704 1060.0951801072817,133.6861469503884 1092.6632346226806,106.5461015208894 Z" fill="url(#leaf10)" opacity="0.19" transform="rotate(321.0 1092.7 160.8)"/>
    <path d="M 984.4287079281534,786.0906527949725 C 1007.2373097578816,805.0978209864127 1014.8401770344577,831.7078564544289 984.4287079281534,862.1193255607333 C 954.017238821849,831.7078564544289 961.6201060984251,805.0978209864127 984.4287079281534,786.0906527949725 Z" fill="url(#leaf11)" opacity="0.19" transform="rotate(203.9 984.4 824.1)"/>
    <path d="M 446.2081031090876,299.21367211785434 C 474.45453084193514,322.7523618952273 483.87000675288436,355.7065275835495 446.2081031090876,393.36843122734626 C 408.5461994652908,355.7065275835495 417.96167537624,322.7523618952273 446.2081031090876,299.21367211785434 Z" fill="url(#leaf12)" opacity="0.19" transform="rotate(198.9 446.2 346.3)"/>
    <path d="M 923.7281843417938,551.8217117035687 C 959.3841443400073,581.5350117020798 971.2694643394117,623.1336316999955 923.7281843417938,670.6749116976133 C 876.186904344176,623.1336316999955 888.0722243435804,581.5350117020798 923.7281843417938,551.8217117035687 Z" fill="url(#leaf13)" opacity="0.16" transform="rotate(268.7 923.7 611.2)"/>
    <path d="M 1022.2171791084563,514.4652645199076 C 1067.1032573837797,551.8703297493437 1082.0652834755542,604.2374210705543 1022.2171791084563,664.0855254376522 C 962.3690747413584,604.2374210705543 977.331100833133,551.8703297493437 1022.2171791084563,514.4652645199076 Z" fill="url(#leaf14)" opacity="0.18" transform="rotate(208.6 1022.2 589.3)"/>
    <path d="M 288.44714197631174,59.558577759634886 C 327.9232963519808,92.45537307269245 341.08201447720387,138.51088651097302 288.44714197631174,191.14575901186512 C 235.81226947541964,138.51088651097302 248.97098760064267,92.45537307269245 288.44714197631174,59.558577759634886 Z" fill="url(#leaf15)" opacity="0.24" transform="rotate(1.5 288.4 125.4)"/>
    <path d="M 143.02402579688942,202.7640243010751 C 182.63288878304624,235.77141012287245 195.8358431117652,281.98175027338874 143.02402579688942,334.7935675882645 C 90.21220848201364,281.98175027338874 103.4151628107326,235.77141012287245 143.02402579688942,202.7640243010751 Z" fill="url(#leaf16)" opacity="0.17" transform="rotate(26.9 143.0 268.8)"/>
    <path d="M 1010.9068314383612,856.1286761147546 C 1029.3287110730494,871.4802424769947 1035.4693376179453,892.9724353841308 1010.9068314383612,917.5349415637149 C 986.3443252587771,892.9724353841308 992.4849518036731,871.4802424769947 1010.9068314383612,856.1286761147546 Z" fill="url(#leaf17)" opacity="0.23" transform="rotate(173.6 1010.9 886.8)"/>
    <path d="M 162.64772596941503,635.140756058204 C 210.08995764118748,674.6759491180144 225.9040348651116,730.0252194017489 162.64772596941503,793.2815282974454 C 99.39141707371844,730.0252194017489 115.20549429764259,674.6759491180144 162.64772596941503,635.140756058204 Z" fill="url(#leaf18)" opacity="0.16" transform="rotate(71.3 162.6 714.2)"/>
    <path d="M 1011.761584686618,959.1879868050164 C 1052.5413066485694,993.171088439976 1066.1345473025533,1040.7474307289194 1011.761584686618,1095.1203933448546 C 957.3886220706827,1040.7474307289194 970.9818627246666,993.171088439976 1011.761584686618,959.1879868050164 Z" fill="url(#leaf19)" opacity="0.21" transform="rotate(10.4 1011.8 1027.2)"/>
    <path d="M 483.7794673463671,777.5616773562067 C 519.6955835474494,807.491774190442 531.6676222811435,849.3939097583714 483.7794673463671,897.2820646931477 C 435.8913124115907,849.3939097583714 447.8633511452848,807.491774190442 483.7794673463671,777.5616773562067 Z" fill="url(#leaf20)" opacity="0.21" transform="rotate(214.2 483.8 837.4)"/>
    <path d="M 514.0770250761884,496.5286802157226 C 532.9644635140135,512.2682122472434 539.2602763266217,534.3035570913726 514.0770250761884,559.4868083418058 C 488.8937738257551,534.3035570913726 495.18958663836344,512.2682122472434 514.0770250761884,496.5286802157226 Z" fill="url(#leaf21)" opacity="0.19" transform="rotate(262.8 514.1 528.0)"/>
    <path d="M 1649.05765619662,723.5856920217332 C 1671.2191313723652,742.0535880015207 1678.60628976428,767.9086423732233 1649.05765619662,797.4572759408834 C 1619.5090226289599,767.9086423732233 1626.8961810208748,742.0535880015207 1649.05765619662,723.5856920217332 Z" fill="url(#leaf22)" opacity="0.17" transform="rotate(211.5 1649.1 760.5)"/>
    <path d="M 1831.5691467750275,470.82690307723686 C 1869.0363666928622,502.0495863420991 1881.525439998807,545.7613429129062 1831.5691467750275,595.7176361366859 C 1781.612853551248,545.7613429129062 1794.101926857193,502.0495863420991 1831.5691467750275,470.82690307723686 Z" fill="url(#leaf23)" opacity="0.19" transform="rotate(183.9 1831.6 533.3)"/>
    <path d="M 1617.6743282973582,487.9191325696574 C 1655.8383634560848,519.7224952019296 1668.5597085089937,564.2472028871107 1617.6743282973582,615.1325830987462 C 1566.7889480857227,564.2472028871107 1579.5102931386316,519.7224952019296 1617.6743282973582,487.9191325696574 Z" fill="url(#leaf24)" opacity="0.20" transform="rotate(202.8 1617.7 551.5)"/>
    <path d="M 959.0016229914662,942.5778939411937 C 983.4854342751967,962.9810700109691 991.6467047031068,991.5455165086547 959.0016229914662,1024.1905982202954 C 926.3565412798256,991.5455165086547 934.5178117077357,962.9810700109691 959.0016229914662,942.5778939411937 Z" fill="url(#leaf25)" opacity="0.25" transform="rotate(293.3 959.0 983.4)"/>
    <path d="M 269.21585490595294,913.0091141108882 C 289.4843133624373,929.8994961579585 296.24046618126545,953.5460310238569 269.21585490595294,980.5706422991694 C 242.19124363064043,953.5460310238569 248.94739644946856,929.8994961579585 269.21585490595294,913.0091141108882 Z" fill="url(#leaf26)" opacity="0.18" transform="rotate(219.5 269.2 946.8)"/>
    <path d="M 1066.455480401364,855.9504763372652 C 1095.4777470120082,880.1356985128022 1105.151835882223,913.9950095585538 1066.455480401364,952.6913650394129 C 1027.759124920505,913.9950095585538 1037.4332137907197,880.1356985128022 1066.455480401364,855.9504763372652 Z" fill="url(#leaf27)" opacity="0.24" transform="rotate(79.4 1066.5 904.3)"/>
    <path d="M 1700.4552734168067,621.6117059044793 C 1724.0142120634252,641.2441547766616 1731.8671916122983,668.7295831977167 1700.4552734168067,700.1415013932083 C 1669.043355221315,668.7295831977167 1676.896334770188,641.2441547766616 1700.4552734168067,621.6117059044793 Z" fill="url(#leaf28)" opacity="0.21" transform="rotate(78.6 1700.5 660.9)"/>
    <path d="M 820.0274032444801,932.2817905596277 C 846.8589975986428,954.6414525214299 855.8028623833636,985.9449792679529 820.0274032444801,1021.7204384068365 C 784.2519441055965,985.9449792679529 793.1958088903174,954.6414525214299 820.0274032444801,932.2817905596277 Z" fill="url(#leaf29)" opacity="0.24" transform="rotate(180.7 820.0 977.0)"/>
    <path d="M 965.1955501286996,651.4735426256614 C 984.5594487175583,667.6101247830437 991.0140815805112,690.2013398033789 965.1955501286996,716.0198712551905 C 939.3770186768879,690.2013398033789 945.8316515398408,667.6101247830437 965.1955501286996,651.4735426256614 Z" fill="url(#leaf0)" opacity="0.15" transform="rotate(74.3 965.2 683.7)"/>
    <path d="M 701.4436025886221,483.6623490171633 C 735.8041819338246,512.2961651381654 747.2577083822255,552.3835077075684 701.4436025886221,598.1976135011718 C 655.6294967950187,552.3835077075684 667.0830232434196,512.2961651381654 701.4436025886221,483.6623490171633 Z" fill="url(#leaf1)" opacity="0.19" transform="rotate(107.4 701.4 540.9)"/>
    <path d="M 304.6487343409955,122.94643672034186 C 343.02747915604107,154.9287240662132 355.8203940943896,199.70392635043305 304.6487343409955,250.87558610382717 C 253.47707458760135,199.70392635043305 266.2699895259499,154.9287240662132 304.6487343409955,122.94643672034186 Z" fill="url(#leaf2)" opacity="0.17" transform="rotate(337.4 304.6 186.9)"/>
    <path d="M 1632.9254368734394,817.1484443806978 C 1663.3422116653853,842.4957567073194 1673.481136596034,877.9819939645896 1632.9254368734394,918.5376936871842 C 1592.3697371508447,877.9819939645896 1602.5086620814934,842.4957567073194 1632.9254368734394,817.1484443806978 Z" fill="url(#leaf3)" opacity="0.23" transform="rotate(90.5 1632.9 867.8)"/>
    <path d="M 1539.4024258617092,850.7362711181652 C 1576.0201393861153,881.2510323885036 1588.2260438942506,923.9716981669775 1539.4024258617092,972.795316199519 C 1490.5788078291678,923.9716981669775 1502.784712337303,881.2510323885036 1539.4024258617092,850.7362711181652 Z" fill="url(#leaf4)" opacity="0.23" transform="rotate(78.5 1539.4 911.8)"/>
    <path d="M 260.35784863344264,537.5122038825563 C 301.235182929882,571.5766491295891 314.86096102869516,619.2668724754351 260.35784863344264,673.7699848706876 C 205.85473623819013,619.2668724754351 219.48051433700326,571.5766491295891 260.35784863344264,537.5122038825563 Z" fill="url(#leaf5)" opacity="0.25" transform="rotate(234.9 260.4 605.6)"/>
    <path d="M 1503.3441749966732,795.97236021947 C 1535.4298537378747,822.710425837138 1546.125079984942,860.1437177018732 1503.3441749966732,902.924622690142 C 1460.5632700084045,860.1437177018732 1471.2584962554718,822.710425837138 1503.3441749966732,795.97236021947 Z" fill="url(#leaf6)" opacity="0.16" transform="rotate(200.6 1503.3 849.4)"/>
    <path d="M 646.5834797872061,35.43856180671298 C 681.3938974313226,64.44724317681005 692.9973699793615,105.05939709494594 646.5834797872061,151.47328728710124 C 600.1695895950508,105.05939709494594 611.7730621430896,64.44724317681005 646.5834797872061,35.43856180671298 Z" fill="url(#leaf7)" opacity="0.19" transform="rotate(242.6 646.6 93.5)"/>
    <path d="M 1435.2193333039777,951.5181991777175 C 1458.6731251208496,971.0630256917773 1466.4910557264734,998.4257828114611 1435.2193333039777,1029.697505233957 C 1403.947610881482,998.4257828114611 1411.7655414871058,971.0630256917773 1435.2193333039777,951.5181991777175 Z" fill="url(#leaf8)" opacity="0.18" transform="rotate(82.7 1435.2 990.6)"/>
    <path d="M 829.635202765657,24.420920083022594 C 861.8957873282234,51.30474055182784 872.6493155157455,88.94208920815518 829.635202765657,131.95620195824358 C 786.6210900155686,88.94208920815518 797.3746182030907,51.30474055182784 829.635202765657,24.420920083022594 Z" fill="url(#leaf9)" opacity="0.21" transform="rotate(20.9 829.6 78.2)"/>
    <path d="M 1638.8706320268118,701.446832949038 C 1677.2075349678987,733.3942520666104 1689.9865026149275,778.1206388312117 1638.8706320268118,829.2365094193276 C 1587.754761438696,778.1206388312117 1600.5337290857249,733.3942520666104 1638.8706320268118,701.446832949038 Z" fill="url(#leaf10)" opacity="0.19" transform="rotate(12.3 1638.9 765.3)"/>
    <path d="M 864.853651542134,193.61379467731985 C 891.1491524440139,215.52671209555308 899.9143194113071,246.2047964810796 864.853651542134,281.2654643502528 C 829.7929836729609,246.2047964810796 838.5581506402541,215.52671209555308 864.853651542134,193.61379467731985 Z" fill="url(#leaf11)" opacity="0.24" transform="rotate(122.2 864.9 237.4)"/>
    <path d="M 1321.8181537876492,410.6825961639888 C 1355.9317148368752,439.11056370501046 1367.3029018532839,478.9097182624408 1321.8181537876492,524.3944663280754 C 1276.3334057220145,478.9097182624408 1287.7045927384231,439.11056370501046 1321.8181537876492,410.6825961639888 Z" fill="url(#leaf12)" opacity="0.20" transform="rotate(46.1 1321.8 467.5)"/>
    <path d="M 1657.929421510104,699.5836851681944 C 1698.1519568825438,733.1024646452275 1711.559468673357,780.0287559130741 1657.929421510104,833.6588030763272 C 1604.299374346851,780.0287559130741 1617.7068861376642,733.1024646452275 1657.929421510104,699.5836851681944 Z" fill="url(#leaf13)" opacity="0.25" transform="rotate(258.4 1657.9 766.6)"/>
    <path d="M 1617.93680454388,818.3694615307536 C 1644.356226063219,840.3856461302028 1653.1626999029986,871.2083045694316 1617.93680454388,906.4341999285502 C 1582.7109091847615,871.2083045694316 1591.517383024541,840.3856461302028 1617.93680454388,818.3694615307536 Z" fill="url(#leaf14)" opacity="0.18" transform="rotate(287.4 1617.9 862.4)"/>
    <path d="M 1248.6841086942718,506.0233356657912 C 1285.984583122644,537.1070643561012 1298.4180745987678,580.6242845225353 1248.6841086942718,630.3582504270313 C 1198.9501427897758,580.6242845225353 1211.3836342658997,537.1070643561012 1248.6841086942718,506.0233356657912 Z" fill="url(#leaf15)" opacity="0.16" transform="rotate(132.9 1248.7 568.2)"/>
    <path d="M 1592.7424213966688,183.09828246297195 C 1619.2605497830623,205.1967227849666 1628.0999259118603,236.1345392357591 1592.7424213966688,271.49204375095053 C 1557.3849168814772,236.1345392357591 1566.2242930102752,205.1967227849666 1592.7424213966688,183.09828246297195 Z" fill="url(#leaf16)" opacity="0.22" transform="rotate(40.5 1592.7 227.3)"/>
    <path d="M 1240.98812472003,343.254521363563 C 1288.4156632221207,382.77747011530516 1304.2248427228176,438.1095983677442 1240.98812472003,501.3463163705316 C 1177.7514067172426,438.1095983677442 1193.5605862179395,382.77747011530516 1240.98812472003,343.254521363563 Z" fill="url(#leaf17)" opacity="0.18" transform="rotate(327.1 1241.0 422.3)"/>
    <path d="M 253.2408568608029,672.6107925588664 C 272.69660916467524,688.82391947876 279.18185993263273,711.5222971666111 253.2408568608029,737.4633002384409 C 227.29985378897308,711.5222971666111 233.78510455693055,688.82391947876 253.2408568608029,672.6107925588664 Z" fill="url(#leaf18)" opacity="0.16" transform="rotate(124.6 253.2 705.0)"/>
    <path d="M 935.3506587017652,933.2592775685691 C 960.9779978667412,954.6153935393825 969.5204442550666,984.5139558985213 935.3506587017652,1018.6837414518227 C 901.1808731484637,984.5139558985213 909.7233195367891,954.6153935393825 935.3506587017652,933.2592775685691 Z" fill="url(#leaf19)" opacity="0.21" transform="rotate(170.2 935.4 976.0)"/>
    <path d="M 1856.7481121575734,43.06380642275908 C 1877.5501222704645,60.39881485016842 1884.4841256414284,84.66782664854149 1856.7481121575734,112.40384013239643 C 1829.0120986737184,84.66782664854149 1835.9461020446822,60.39881485016842 1856.7481121575734,43.06380642275908 Z" fill="url(#leaf20)" opacity="0.25" transform="rotate(268.8 1856.7 77.7)"/>
    <path d="M 561.5150895339236,48.68472087080815 C 585.6520197046098,68.79882934637989 593.6976630948384,96.95858121218032 561.5150895339236,129.1411547730951 C 529.3325159730089,96.95858121218032 537.3781593632375,68.79882934637989 561.5150895339236,48.68472087080815 Z" fill="url(#leaf21)" opacity="0.25" transform="rotate(140.5 561.5 88.9)"/>
    <path d="M 1438.778636647566,617.4822054727526 C 1483.785498495139,654.9879236790637 1498.7877857776634,707.495929167899 1438.778636647566,767.5050782979965 C 1378.7694875174684,707.495929167899 1393.7717747999927,654.9879236790637 1438.778636647566,617.4822054727526 Z" fill="url(#leaf22)" opacity="0.16" transform="rotate(178.1 1438.8 692.5)"/>
    <path d="M 139.08624029035317,624.6307759410464 C 159.3296973944443,641.500323527789 166.07751642914135,665.1176901492287 139.08624029035317,692.1089662880169 C 112.094964151565,665.1176901492287 118.84278318626204,641.500323527789 139.08624029035317,624.6307759410464 Z" fill="url(#leaf23)" opacity="0.18" transform="rotate(212.8 139.1 658.4)"/>
    <path d="M 282.6413868970168,517.8461141619255 C 318.0497493965794,547.3530829115609 329.85253689643366,588.6628391610507 282.6413868970168,635.8739891604675 C 235.43023689759994,588.6628391610507 247.23302439745416,547.3530829115609 282.6413868970168,517.8461141619255 Z" fill="url(#leaf24)" opacity="0.23" transform="rotate(152.1 282.6 576.9)"/>
    <path d="M 217.91435471650146,56.59587716452246 C 260.0615517809703,91.71854138491318 274.1106174691266,140.89027129346022 217.91435471650146,197.08653404608538 C 161.7180919638763,140.89027129346022 175.7671576520326,91.71854138491318 217.91435471650146,56.59587716452246 Z" fill="url(#leaf25)" opacity="0.17" transform="rotate(307.5 217.9 126.8)"/>
    <path d="M 340.39239484966714,287.8224300325171 C 360.66865061393025,304.7193098360697 367.4274025353513,328.3749415610434 340.39239484966714,355.4099492467276 C 313.357387163983,328.3749415610434 320.11613908540403,304.7193098360697 340.39239484966714,287.8224300325171 Z" fill="url(#leaf26)" opacity="0.20" transform="rotate(21.9 340.4 321.6)"/>
    <path d="M 1079.1524138256113,159.17193513873067 C 1116.6732981958305,190.43933878058 1129.1802596525702,234.213703879169 1079.1524138256113,284.24154970612784 C 1029.1245679986525,234.213703879169 1041.6315294553922,190.43933878058 1079.1524138256113,159.17193513873067 Z" fill="url(#leaf27)" opacity="0.20" transform="rotate(168.2 1079.2 221.7)"/>
    <path d="M 1079.6639665499265,384.2844163380849 C 1127.1182260160404,423.82963255984635 1142.9363125047448,479.19293527031243 1079.6639665499265,542.4652812251309 C 1016.3916205951082,479.19293527031243 1032.2097070838126,423.82963255984635 1079.6639665499265,384.2844163380849 Z" fill="url(#leaf28)" opacity="0.18" transform="rotate(241.7 1079.7 463.4)"/>
    <path d="M 466.50247010932475,912.2237567653367 C 512.6667560335037,950.6939950354858 528.0548513415634,1004.5523286136946 466.50247010932475,1066.1047098459333 C 404.95008887708605,1004.5523286136946 420.33818418514574,950.6939950354858 466.50247010932475,912.2237567653367 Z" fill="url(#leaf29)" opacity="0.25" transform="rotate(53.5 466.5 989.2)"/>
    <path d="M 1542.0331161262611,25.16008437162624 C 1588.481209974188,63.86682924489872 1603.9639079234971,118.0562720674802 1542.0331161262611,179.98706386471616 C 1480.1023243290251,118.0562720674802 1495.5850222783342,63.86682924489872 1542.0331161262611,25.16008437162624 Z" fill="url(#leaf0)" opacity="0.24" transform="rotate(337.7 1542.0 102.6)"/>
    <path d="M 621.4745625812363,560.91041180083 C 666.2374625351584,598.2128284290985 681.1584291864659,650.4362117086744 621.4745625812363,710.120078313904 C 561.7906959760068,650.4362117086744 576.7116626273142,598.2128284290985 621.4745625812363,560.91041180083 Z" fill="url(#leaf1)" opacity="0.20" transform="rotate(37.1 621.5 635.5)"/>
    <path d="M 129.17067970877366,731.8710808627931 C 161.05464734377702,758.4410538919626 171.68263655544482,795.6390161327998 129.17067970877366,838.150972979471 C 86.65872286210251,795.6390161327998 97.28671207377029,758.4410538919626 129.17067970877366,731.8710808627931 Z" fill="url(#leaf2)" opacity="0.18" transform="rotate(254.2 129.2 785.0)"/>
    <path d="M 1465.4380006197478,704.752605921709 C 1498.1931507928632,732.0485643993052 1509.1115341839015,770.2629062679398 1465.4380006197478,813.9364398320937 C 1421.764467055594,770.2629062679398 1432.6828504466323,732.0485643993052 1465.4380006197478,704.752605921709 Z" fill="url(#leaf3)" opacity="0.20" transform="rotate(98.8 1465.4 759.3)"/>
    <path d="M 481.9129741366617,665.2857698130479 C 502.02309116437505,682.0442006694757 508.7264635069462,705.5060038684746 481.9129741366617,732.3194932387592 C 455.09948476637726,705.5060038684746 461.8028571089484,682.0442006694757 481.9129741366617,665.2857698130479 Z" fill="url(#leaf4)" opacity="0.25" transform="rotate(282.5 481.9 698.8)"/>
    <path d="M 1000.1594671341492,30.416456754101816 C 1036.1158955734154,60.38014712015701 1048.1013717198375,102.3293136326343 1000.1594671341492,150.2712182183226 C 952.2175625484608,102.3293136326343 964.2030386948829,60.38014712015701 1000.1594671341492,30.416456754101816 Z" fill="url(#leaf5)" opacity="0.21" transform="rotate(202.8 1000.2 90.3)"/>
    <path d="M 1236.6971605212584,695.1118177173229 C 1256.257425630351,711.4120386415666 1262.7775140000485,734.232347935508 1236.6971605212584,760.312701414298 C 1210.6168070424683,734.232347935508 1217.1368954121658,711.4120386415666 1236.6971605212584,695.1118177173229 Z" fill="url(#leaf6)" opacity="0.22" transform="rotate(195.8 1236.7 727.7)"/>
    <path d="M 149.81048182386849,6.321580333444473 C 180.2121803365144,31.656329093982727 190.3460798407297,67.12497735873629 149.81048182386849,107.66057537559749 C 109.27488380700728,67.12497735873629 119.40878331122258,31.656329093982727 149.81048182386849,6.321580333444473 Z" fill="url(#leaf7)" opacity="0.16" transform="rotate(160.5 149.8 57.0)"/>
    <path d="M 948.5995232594763,967.9402903246446 C 973.3370614757891,988.5549055049053 981.5829075478935,1017.4153667572704 948.5995232594763,1050.3987510456875 C 915.6161389710592,1017.4153667572704 923.8619850431635,988.5549055049053 948.5995232594763,967.9402903246446 Z" fill="url(#leaf8)" opacity="0.17" transform="rotate(79.1 948.6 1009.2)"/>
    <path d="M 1148.838556744986,702.1127484850427 C 1179.2333382557754,727.4417330773672 1189.3649320927052,762.9023115066216 1148.838556744986,803.4286868543408 C 1108.3121813972666,762.9023115066216 1118.4437752341964,727.4417330773672 1148.838556744986,702.1127484850427 Z" fill="url(#leaf9)" opacity="0.16" transform="rotate(51.2 1148.8 752.8)"/>
    <path d="M 507.75782741356187,48.259141779731614 C 530.4527350056454,67.1715647731346 538.0177042030067,93.64895696389878 507.75782741356187,123.90883375334357 C 477.4979506241171,93.64895696389878 485.06291982147826,67.1715647731346 507.75782741356187,48.259141779731614 Z" fill="url(#leaf10)" opacity="0.19" transform="rotate(346.1 507.8 86.1)"/>
    <path d="M 1522.0100456654698,728.8487704315529 C 1569.032232951469,768.0339265032189 1584.7062953801355,822.8931450035515 1522.0100456654698,885.5893947182172 C 1459.313795950804,822.8931450035515 1474.9878583794705,768.0339265032189 1522.0100456654698,728.8487704315529 Z" fill="url(#leaf11)" opacity="0.16" transform="rotate(319.4 1522.0 807.2)"/>
    <path d="M 1044.097862846216,469.57052344375234 C 1083.8264402398574,502.67767127178683 1097.0692993710713,549.0276782310351 1044.097862846216,601.9991147558903 C 991.1264263213608,549.0276782310351 1004.3692854525746,502.67767127178683 1044.097862846216,469.57052344375234 Z" fill="url(#leaf12)" opacity="0.18" transform="rotate(264.6 1044.1 535.8)"/>
    <path d="M 732.7896603630365,716.6611808896587 C 779.8163444340469,755.8500842821672 795.4919057910503,810.7145490316792 732.7896603630365,873.4167944596929 C 670.0874149350228,810.7145490316792 685.7629762920262,755.8500842821672 732.7896603630365,716.6611808896587 Z" fill="url(#leaf13)" opacity="0.21" transform="rotate(344.8 732.8 795.0)"/>
    <path d="M 1724.8160889903584,659.9280968867827 C 1767.577522043753,695.5626244312783 1781.8313330615515,745.4509629935723 1724.8160889903584,802.4662070647653 C 1667.8008449191652,745.4509629935723 1682.0546559369636,695.5626244312783 1724.8160889903584,659.9280968867827 Z" fill="url(#leaf14)" opacity="0.21" transform="rotate(23.6 1724.8 731.2)"/>
    <path d="M 460.1669369106705,187.14606799254577 C 504.6020637857713,224.17534038846316 519.4137727441382,276.01632174274744 460.1669369106705,335.26315757621524 C 400.9201010772027,276.01632174274744 415.73181003556965,224.17534038846316 460.1669369106705,187.14606799254577 Z" fill="url(#leaf15)" opacity="0.23" transform="rotate(37.7 460.2 261.2)"/>
    <path d="M 1105.1262346245803,809.3239253064909 C 1135.0234482291655,834.2382699769785 1144.9891860973605,869.1183525156611 1105.1262346245803,908.9813039884413 C 1065.2632831518001,869.1183525156611 1075.2290210199951,834.2382699769785 1105.1262346245803,809.3239253064909 Z" fill="url(#leaf16)" opacity="0.16" transform="rotate(17.7 1105.1 859.2)"/>
    <path d="M 297.72995843250794,-1.466796847867684 C 337.8400663390917,31.95829307428548 351.210102307953,78.75341896529991 297.72995843250794,132.23356284074498 C 244.24981455706288,78.75341896529991 257.61985052592416,31.95829307428548 297.72995843250794,-1.466796847867684 Z" fill="url(#leaf17)" opacity="0.24" transform="rotate(38.4 297.7 65.4)"/>
    <path d="M 859.7020485745766,522.6700004904407 C 880.5020935184644,540.0033712770138 887.4354418330937,564.2700903782163 859.7020485745766,592.0034836367334 C 831.9686553160594,564.2700903782163 838.9020036306887,540.0033712770138 859.7020485745766,522.6700004904407 Z" fill="url(#leaf18)" opacity="0.18" transform="rotate(105.2 859.7 557.3)"/>
    <path d="M 1031.933427860624,162.4108585439906 C 1069.843172288587,194.0023122339597 1082.4797537645745,238.23034739991644 1031.933427860624,288.77667330386697 C 981.3871019566735,238.23034739991644 994.0236834326612,194.0023122339597 1031.933427860624,162.4108585439906 Z" fill="url(#leaf19)" opacity="0.17" transform="rotate(76.6 1031.9 225.6)"/>
    <path d="M 235.77729985176504,33.360926382894235 C 260.991409166257,54.37268414497086 269.39611227108765,83.78914501187813 235.77729985176504,117.40795743120074 C 202.15848743244243,83.78914501187813 210.56319053727307,54.37268414497086 235.77729985176504,33.360926382894235 Z" fill="url(#leaf20)" opacity="0.24" transform="rotate(226.2 235.8 75.4)"/>
    <path d="M 277.1380469048737,947.462786812434 C 302.14793419769677,968.3043595564533 310.48456329530444,997.4825613980802 277.1380469048737,1030.8290777885109 C 243.79153051444297,997.4825613980802 252.12815961205064,968.3043595564533 277.1380469048737,947.462786812434 Z" fill="url(#leaf21)" opacity="0.17" transform="rotate(84.2 277.1 989.1)"/>
    <path d="M 981.8928033729212,707.9184041167888 C 999.9593172335751,722.9738323340003 1005.9814885204597,744.0514318380965 981.8928033729212,768.140116985635 C 957.8041182253827,744.0514318380965 963.8262895122673,722.9738323340003 981.8928033729212,707.9184041167888 Z" fill="url(#leaf22)" opacity="0.24" transform="rotate(134.3 981.9 738.0)"/>
    <path d="M 1111.1243022359529,468.2554956054936 C 1150.1859490393108,500.8068679416252 1163.2064979737636,546.3787892122095 1111.1243022359529,598.4609849500201 C 1059.0421064981422,546.3787892122095 1072.062655432595,500.8068679416252 1111.1243022359529,468.2554956054936 Z" fill="url(#leaf23)" opacity="0.22" transform="rotate(190.6 1111.1 533.4)"/>
    <path d="M 272.6223715381568,151.3844606705379 C 314.54433834644635,186.31943301077916 328.5183272825429,235.22839428711697 272.6223715381568,291.124350031503 C 216.72641579377074,235.22839428711697 230.70040472986727,186.31943301077916 272.6223715381568,151.3844606705379 Z" fill="url(#leaf24)" opacity="0.23" transform="rotate(324.4 272.6 221.3)"/>
    <path d="M 1484.2874711136358,572.5886598175553 C 1522.4808173771173,604.4164483704565 1535.2119327982778,648.9753523445183 1484.2874711136358,699.8998140291603 C 1433.3630094289938,648.9753523445183 1446.0941248501542,604.4164483704565 1484.2874711136358,572.5886598175553 Z" fill="url(#leaf25)" opacity="0.20" transform="rotate(24.1 1484.3 636.2)"/>
    <path d="M 65.01760661771024,637.8087567385215 C 110.2282184359633,675.4842665870658 125.29842237538098,728.2299803750276 65.01760661771024,788.5107961326984 C 4.7367908600395054,728.2299803750276 19.806994799457193,675.4842665870658 65.01760661771024,637.8087567385215 Z" fill="url(#leaf26)" opacity="0.20" transform="rotate(118.1 65.0 713.2)"/>
    <path d="M 798.2073319293364,973.577439600816 C 819.2120601315223,991.0813797693042 826.2136361989177,1015.5868960051878 798.2073319293364,1043.593200274769 C 770.2010276597551,1015.5868960051878 777.2026037271505,991.0813797693042 798.2073319293364,973.577439600816 Z" fill="url(#leaf27)" opacity="0.24" transform="rotate(98.0 798.2 1008.6)"/>
    <path d="M 1503.8050761203863,6.863698191265094 C 1533.0440236484367,31.22948779797379 1542.7903394911202,65.34159324736596 1503.8050761203863,104.32685661809987 C 1464.8198127496523,65.34159324736596 1474.5661285923359,31.22948779797379 1503.8050761203863,6.863698191265094 Z" fill="url(#leaf28)" opacity="0.20" transform="rotate(21.8 1503.8 55.6)"/>
    <path d="M 255.984121594168,874.1420006162324 C 291.9484179966939,904.1122476183373 303.93651679753583,946.0705934212841 255.984121594168,994.0229886246519 C 208.03172639080015,946.0705934212841 220.0198251916421,904.1122476183373 255.984121594168,874.1420006162324 Z" fill="url(#leaf29)" opacity="0.17" transform="rotate(95.5 256.0 934.1)"/>
    <path d="M 753.8968201246906,921.2155114314721 C 798.1104476327029,958.0602010214823 812.8483234687069,1009.6427664474965 753.8968201246906,1068.5942697915127 C 694.9453167806744,1009.6427664474965 709.6831926166784,958.0602010214823 753.8968201246906,921.2155114314721 Z" fill="url(#leaf0)" opacity="0.21" transform="rotate(179.3 753.9 994.9)"/>
    <path d="M 1574.6197402395321,628.1812818906722 C 1612.0495075800482,659.3727546744356 1624.5260966935534,703.0408165717042 1574.6197402395321,752.9471730257255 C 1524.7133837855108,703.0408165717042 1537.189972899016,659.3727546744356 1574.6197402395321,628.1812818906722 Z" fill="url(#leaf1)" opacity="0.16" transform="rotate(301.9 1574.6 690.6)"/>
    <path d="M 1727.860641139926,106.10074480611385 C 1771.5376178435329,142.49822539245292 1786.0966100780686,193.45469821332762 1727.860641139926,251.69066715147014 C 1669.6246722017834,193.45469821332762 1684.183664436319,142.49822539245292 1727.860641139926,106.10074480611385 Z" fill="url(#leaf2)" opacity="0.23" transform="rotate(122.7 1727.9 178.9)"/>
    <path d="M 144.61320276906616,29.311944398054138 C 181.1388414991044,59.74997667308598 193.31405440911712,102.36322185813057 144.61320276906616,151.06407349818153 C 95.9123511290152,102.36322185813057 108.08756403902795,59.74997667308598 144.61320276906616,29.311944398054138 Z" fill="url(#leaf3)" opacity="0.21" transform="rotate(100.8 144.6 90.2)"/>
    <path d="M 566.1707684304052,800.4451239893558 C 588.0215327356641,818.6540942437382 595.3051208374171,844.1466525998735 566.1707684304052,873.2810050068854 C 537.0364160233934,844.1466525998735 544.3200041251464,818.6540942437382 566.1707684304052,800.4451239893558 Z" fill="url(#leaf4)" opacity="0.22" transform="rotate(243.4 566.2 836.9)"/>
    <path d="M 215.271815510562,613.178627620249 C 235.303465661806,629.8716694129524 241.98068237888734,653.2419279227371 215.271815510562,679.9507947910624 C 188.56294864223665,653.2419279227371 195.24016535931798,629.8716694129524 215.271815510562,613.178627620249 Z" fill="url(#leaf5)" opacity="0.17" transform="rotate(352.5 215.3 646.6)"/>
    <path d="M 544.0120664869889,627.5256820486254 C 585.6283452171331,662.2059143237456 599.5004381271812,710.7582395089138 544.0120664869889,766.246611149106 C 488.52369484679673,710.7582395089138 502.3957877568448,662.2059143237456 544.0120664869889,627.5256820486254 Z" fill="url(#leaf6)" opacity="0.19" transform="rotate(199.1 544.0 696.9)"/>
    <path d="M 1725.230362119071,119.63609711858832 C 1765.5704680506099,153.25285206153728 1779.0171700277895,200.3163089816658 1725.230362119071,254.10311689038411 C 1671.4435542103527,200.3163089816658 1684.8902561875323,153.25285206153728 1725.230362119071,119.63609711858832 Z" fill="url(#leaf7)" opacity="0.24" transform="rotate(282.7 1725.2 186.9)"/>
    <path d="M 521.906688672659,825.329090575302 C 554.054643482645,852.119052916957 564.770628419307,889.625000195274 521.906688672659,932.4889399419219 C 479.0427489260111,889.625000195274 489.75873386267307,852.119052916957 521.906688672659,825.329090575302 Z" fill="url(#leaf8)" opacity="0.19" transform="rotate(273.8 521.9 878.9)"/>
    <path d="M 1719.342321416111,839.4588467837785 C 1759.4211705986795,872.8578877692523 1772.780786992869,919.6165451489155 1719.342321416111,973.0550107256735 C 1665.903855839353,919.6165451489155 1679.2634722335424,872.8578877692523 1719.342321416111,839.4588467837785 Z" fill="url(#leaf9)" opacity="0.18" transform="rotate(230.2 1719.3 906.3)"/>
    <path d="M 218.2269695766741,606.1416249109662 C 245.96059776371422,629.2529817334996 255.2051404927276,661.6088812850464 218.2269695766741,698.5870522010999 C 181.2487986606206,661.6088812850464 190.49334138963397,629.2529817334996 218.2269695766741,606.1416249109662 Z" fill="url(#leaf10)" opacity="0.17" transform="rotate(351.5 218.2 652.4)"/>
    <path d="M 974.4357274566763,120.14355311724292 C 999.8826907530334,141.34935586420715 1008.3650118518191,171.0374797099571 974.4357274566763,204.9667641050999 C 940.5064430615336,171.0374797099571 948.9887641603192,141.34935586420715 974.4357274566763,120.14355311724292 Z" fill="url(#leaf11)" opacity="0.24" transform="rotate(98.7 974.4 162.6)"/>
    <path d="M 325.4529961374429,875.6106657091163 C 365.5387836300324,909.0154886196077 378.900712794229,955.7822406942955 325.4529961374429,1009.2299573510816 C 272.0052794806568,955.7822406942955 285.36720864485335,909.0154886196077 325.4529961374429,875.6106657091163 Z" fill="url(#leaf12)" opacity="0.24" transform="rotate(309.0 325.5 942.4)"/>
    <path d="M 957.4345385035916,159.1099768650321 C 979.7894115029928,177.73903769786648 987.2410358361266,203.81972286383458 957.4345385035916,233.6262201963696 C 927.6280411710567,203.81972286383458 935.0796655041904,177.73903769786648 957.4345385035916,159.1099768650321 Z" fill="url(#leaf13)" opacity="0.17" transform="rotate(1.9 957.4 196.4)"/>
    <path d="M 244.996419352645,924.6636870358051 C 263.65472564008394,940.2122756086709 269.8741610692303,961.980299610683 244.996419352645,986.8580413272683 C 220.11867763605974,961.980299610683 226.33811306520607,940.2122756086709 244.996419352645,924.6636870358051 Z" fill="url(#leaf14)" opacity="0.18" transform="rotate(20.3 245.0 955.8)"/>
    <path d="M 508.1629394676169,720.916795667488 C 538.7948882380111,746.4434196428165 549.0055378281426,782.1806932082765 508.1629394676169,823.023291568802 C 467.3203411070913,782.1806932082765 477.5309906972227,746.4434196428165 508.1629394676169,720.916795667488 Z" fill="url(#leaf15)" opacity="0.24" transform="rotate(254.2 508.2 772.0)"/>
    <path d="M 1189.9487710435305,963.7937391545919 C 1226.9442786206562,994.6233288021966 1239.276114479698,1037.784754308843 1189.9487710435305,1087.1120977450105 C 1140.621427607363,1037.784754308843 1152.953263466405,994.6233288021966 1189.9487710435305,963.7937391545919 Z" fill="url(#leaf16)" opacity="0.19" transform="rotate(295.8 1189.9 1025.5)"/>
    <path d="M 626.0972006987239,312.6869564235037 C 662.5950092765698,343.101796905042 674.7609454691851,385.68257357919566 626.0972006987239,434.34631834965694 C 577.4334559282627,385.68257357919566 589.599392120878,343.101796905042 626.0972006987239,312.6869564235037 Z" fill="url(#leaf17)" opacity="0.15" transform="rotate(219.9 626.1 373.5)"/>
    <path d="M 119.38121604897331,62.006738774162415 C 164.80234921258997,99.8576830771763 179.94272693379554,152.84900510139576 119.38121604897331,213.41051598621797 C 58.81970516415109,152.84900510139576 73.96008288535666,99.8576830771763 119.38121604897331,62.006738774162415 Z" fill="url(#leaf18)" opacity="0.21" transform="rotate(271.7 119.4 137.7)"/>
    <path d="M 1649.8455843793988,177.69626148814774 C 1680.8975377244835,203.57288927571832 1691.2481888395118,239.80016817831716 1649.8455843793988,281.20277263843013 C 1608.4429799192858,239.80016817831716 1618.793631034314,203.57288927571832 1649.8455843793988,177.69626148814774 Z" fill="url(#leaf19)" opacity="0.21" transform="rotate(47.3 1649.8 229.4)"/>
    <path d="M 87.17127465808068,630.9595955236838 C 124.73155283068138,662.2598273341844 137.25164555488163,706.0801518688852 87.17127465808068,756.1605227656861 C 37.09090376127972,706.0801518688852 49.610996485479966,662.2598273341844 87.17127465808068,630.9595955236838 Z" fill="url(#leaf20)" opacity="0.21" transform="rotate(288.9 87.2 693.6)"/>
    <path d="M 190.46384593119893,961.7611292142499 C 214.51789803499545,981.8061726340803 222.53591540292763,1009.869233421843 190.46384593119893,1041.9413028935717 C 158.39177645947024,1009.869233421843 166.4097938274024,981.8061726340803 190.46384593119893,961.7611292142499 Z" fill="url(#leaf21)" opacity="0.21" transform="rotate(95.9 190.5 1001.9)"/>
    <path d="M 670.8937185177898,791.6501451677354 C 701.7627504932794,817.3743384806435 712.0524278184427,853.3882091187147 670.8937185177898,894.5469184193676 C 629.735009217137,853.3882091187147 640.0246865423002,817.3743384806435 670.8937185177898,791.6501451677354 Z" fill="url(#leaf22)" opacity="0.19" transform="rotate(299.1 670.9 843.1)"/>
    <path d="M 537.3720035259017,104.12532238421863 C 574.30245013451,134.90069455805883 586.612599004046,177.9862156014351 537.3720035259017,227.22681107957942 C 488.1314080477574,177.9862156014351 500.4415569172935,134.90069455805883 537.3720035259017,104.12532238421863 Z" fill="url(#leaf23)" opacity="0.18" transform="rotate(104.9 537.4 165.7)"/>
    <path d="M 913.1749789999016,95.95631047865632 C 946.1164344017034,123.40752331349121 957.0969195356374,161.83922128226007 913.1749789999016,205.76116181799588 C 869.2530384641657,161.83922128226007 880.2335235980997,123.40752331349121 913.1749789999016,95.95631047865632 Z" fill="url(#leaf24)" opacity="0.17" transform="rotate(55.5 913.2 150.9)"/>
    <path d="M 617.9468986835149,234.62109810871198 C 648.3772171410762,259.9796968233465 658.5206566269301,295.48173502383486 617.9468986835149,336.0554929672501 C 577.3731407400996,295.48173502383486 587.5165802259535,259.9796968233465 617.9468986835149,234.62109810871198 Z" fill="url(#leaf25)" opacity="0.22" transform="rotate(215.6 617.9 285.3)"/>
    <path d="M 1387.0666701800583,357.220126605546 C 1414.849851108023,380.3727773788499 1424.1109114173444,412.78648846147524 1387.0666701800583,449.83072969876144 C 1350.0224289427722,412.78648846147524 1359.2834892520937,380.3727773788499 1387.0666701800583,357.220126605546 Z" fill="url(#leaf26)" opacity="0.17" transform="rotate(100.0 1387.1 403.5)"/>
    <path d="M 162.3101233853423,35.850308681781215 C 193.7239047834694,62.02845984688713 204.19516524951177,98.67787147803541 162.3101233853423,140.56291334220487 C 120.42508152117284,98.67787147803541 130.8963419872152,62.02845984688713 162.3101233853423,35.850308681781215 Z" fill="url(#leaf27)" opacity="0.24" transform="rotate(296.2 162.3 88.2)"/>
    <path d="M 959.1933375807735,530.0114935454018 C 985.0497017510785,551.5584636873226 993.6684898078468,581.7242218860118 959.1933375807735,616.1993741130851 C 924.7181853537002,581.7242218860118 933.3369734104684,551.5584636873226 959.1933375807735,530.0114935454018 Z" fill="url(#leaf28)" opacity="0.20" transform="rotate(96.5 959.2 573.1)"/>
    <path d="M 220.4971136167534,288.30172811058503 C 261.56929586854324,322.5285466537432 275.2600232858065,370.4460926141646 220.4971136167534,425.2090022832177 C 165.7342039477003,370.4460926141646 179.42493136496358,322.5285466537432 220.4971136167534,288.30172811058503 Z" fill="url(#leaf29)" opacity="0.22" transform="rotate(59.9 220.5 356.8)"/>
    <path d="M 923.080867935917,190.3330057967346 C 970.4452893168198,229.80335694748686 986.2334297771206,285.06184855854 923.080867935917,348.21441039974366 C 859.9283060947134,285.06184855854 875.7164465550143,229.80335694748686 923.080867935917,190.3330057967346 Z" fill="url(#leaf0)" opacity="0.19" transform="rotate(215.7 923.1 269.3)"/>
    <path d="M 761.9965355616033,796.6426771289432 C 802.5757381553866,830.4586792904292 816.102139019981,877.8010823165097 761.9965355616033,931.9066857748874 C 707.8909321032256,877.8010823165097 721.41733296782,830.4586792904292 761.9965355616033,796.6426771289432 Z" fill="url(#leaf1)" opacity="0.18" transform="rotate(120.0 762.0 864.3)"/>
    <path d="M 778.3476668971597,302.01339806990853 C 812.9174982633135,330.8215908750368 824.4407753853649,371.1530608022163 778.3476668971597,417.2461692904215 C 732.2545584089545,371.1530608022163 743.7778355310058,330.8215908750368 778.3476668971597,302.01339806990853 Z" fill="url(#leaf2)" opacity="0.19" transform="rotate(11.9 778.3 359.6)"/>
    <path d="M 170.2486223538985,29.152937796694303 C 216.54802136756075,67.73577030807951 231.98115437211482,121.7517358240188 170.2486223538985,183.4842678422351 C 108.51609033568216,121.7517358240188 123.94922334023624,67.73577030807951 170.2486223538985,29.152937796694303 Z" fill="url(#leaf3)" opacity="0.25" transform="rotate(238.9 170.2 106.3)"/>
    <path d="M 1033.6804020143984,422.5536448694311 C 1066.7683372432332,450.1269242267935 1077.7976489861783,488.72951532710084 1033.6804020143984,532.8467622988807 C 989.5631550426186,488.72951532710084 1000.5924667855635,450.1269242267935 1033.6804020143984,422.5536448694311 Z" fill="url(#leaf4)" opacity="0.17" transform="rotate(7.7 1033.7 477.7)"/>
    <path d="M 341.30263034621896,803.49893327609 C 361.6152804541234,820.4261416993438 368.3861638234249,844.124233491899 341.30263034621896,871.2077669691049 C 314.219096869013,844.124233491899 320.9899802383145,820.4261416993438 341.30263034621896,803.49893327609 Z" fill="url(#leaf5)" opacity="0.23" transform="rotate(59.7 341.3 837.4)"/>
    <path d="M 1308.5748338466503,706.7091556074552 C 1347.2430892189445,738.9327017510337 1360.132507676376,784.0456663520438 1308.5748338466503,835.6033401817695 C 1257.0171600169247,784.0456663520438 1269.9065784743561,738.9327017510337 1308.5748338466503,706.7091556074552 Z" fill="url(#leaf6)" opacity="0.25" transform="rotate(73.3 1308.6 771.2)"/>
    <path d="M 598.2045091369733,673.8179305654468 C 644.0816414360808,712.0488741480364 659.3740188691165,765.5721951636616 598.2045091369733,826.7417048958049 C 537.0349994048302,765.5721951636616 552.3273768378659,712.0488741480364 598.2045091369733,673.8179305654468 Z" fill="url(#leaf7)" opacity="0.24" transform="rotate(164.0 598.2 750.3)"/>
    <path d="M 1685.4169947005162,581.4305163399815 C 1721.3179838826345,611.3480073250801 1733.2849802766739,653.232494704218 1685.4169947005162,701.1004802803757 C 1637.5490091243585,653.232494704218 1649.5160055183978,611.3480073250801 1685.4169947005162,581.4305163399815 Z" fill="url(#leaf8)" opacity="0.24" transform="rotate(329.2 1685.4 641.3)"/>
    <path d="M 559.2202565466444,621.9485107827189 C 605.7675605781743,660.7379308089938 621.2833285886843,715.0431188457788 559.2202565466444,777.1061908878188 C 497.1571845046044,715.0431188457788 512.6729525151144,660.7379308089938 559.2202565466444,621.9485107827189 Z" fill="url(#leaf9)" opacity="0.25" transform="rotate(42.2 559.2 699.5)"/>
    <path d="M 1418.2243887607249,544.9138308192865 C 1445.3529125178268,567.5209339502047 1454.395753770194,599.1708783334904 1418.2243887607249,635.3422433429595 C 1382.0530237512558,599.1708783334904 1391.095865003623,567.5209339502047 1418.2243887607249,544.9138308192865 Z" fill="url(#leaf10)" opacity="0.25" transform="rotate(7.0 1418.2 590.1)"/>
    <path d="M 1326.9712266592462,586.293464138772 C 1345.0089431008976,601.3248945068149 1351.0215152481146,622.3688970220749 1326.9712266592462,646.4191856109434 C 1302.9209380703778,622.3688970220749 1308.9335102175949,601.3248945068149 1326.9712266592462,586.293464138772 Z" fill="url(#leaf11)" opacity="0.24" transform="rotate(34.2 1327.0 616.4)"/>
    <path d="M 585.5905139951813,775.507272055974 C 628.705263118476,811.4362296587195 643.0768461595742,861.7367703025634 585.5905139951813,919.2231024669563 C 528.1041818307883,861.7367703025634 542.4757648718866,811.4362296587195 585.5905139951813,775.507272055974 Z" fill="url(#leaf12)" opacity="0.18" transform="rotate(88.9 585.6 847.4)"/>
    <path d="M 693.0793784606569,760.9233690677801 C 717.6862009312218,781.4290544599174 725.8884750880768,810.1370140089099 693.0793784606569,842.9461106363298 C 660.270281833237,810.1370140089099 668.472555990092,781.4290544599174 693.0793784606569,760.9233690677801 Z" fill="url(#leaf13)" opacity="0.19" transform="rotate(218.7 693.1 801.9)"/>
    <path d="M 1246.8383857054403,285.82262072804326 C 1288.941300910374,320.90838339882123 1302.975605978685,370.02845113791045 1246.8383857054403,426.16567141115524 C 1190.7011654321955,370.02845113791045 1204.7354705005066,320.90838339882123 1246.8383857054403,285.82262072804326 Z" fill="url(#leaf14)" opacity="0.16" transform="rotate(13.1 1246.8 356.0)"/>
    <path d="M 1793.3105760575602,827.4956872951242 C 1826.722105327075,855.3386283530533 1837.8592817502467,894.3187458341539 1793.3105760575602,938.8674515268405 C 1748.7618703648736,894.3187458341539 1759.8990467880453,855.3386283530533 1793.3105760575602,827.4956872951242 Z" fill="url(#leaf15)" opacity="0.24" transform="rotate(136.9 1793.3 883.2)"/>
    <path d="M 811.2264891051113,373.4273546015623 C 843.8016599866357,400.57333033616595 854.6600502804772,438.5776963646111 811.2264891051113,482.01125753997695 C 767.7929279297455,438.5776963646111 778.6513182235869,400.57333033616595 811.2264891051113,373.4273546015623 Z" fill="url(#leaf16)" opacity="0.15" transform="rotate(192.4 811.2 427.7)"/>
    <path d="M 734.1316966815962,-3.27293575360774 C 770.2926464814572,26.861189079609773 782.3462964147442,69.04896384611429 734.1316966815962,117.26356357926231 C 685.9170969484481,69.04896384611429 697.9707468817352,26.861189079609773 734.1316966815962,-3.27293575360774 Z" fill="url(#leaf17)" opacity="0.21" transform="rotate(298.3 734.1 57.0)"/>
    <path d="M 85.32645557387664,270.9050713177695 C 105.23826627668137,287.49824690344013 111.87553651094962,310.728692723379 85.32645557387664,337.277773660452 C 58.777374636803664,310.728692723379 65.41464487107191,287.49824690344013 85.32645557387664,270.9050713177695 Z" fill="url(#leaf18)" opacity="0.15" transform="rotate(108.6 85.3 304.1)"/>
    <path d="M 722.3712997817981,739.7322543783737 C 765.6305840670292,775.7816579493996 780.0503454954396,826.2508229488358 722.3712997817981,883.9298686624772 C 664.6922540681567,826.2508229488358 679.1120154965671,775.7816579493996 722.3712997817981,739.7322543783737 Z" fill="url(#leaf19)" opacity="0.16" transform="rotate(264.0 722.4 811.8)"/>
    <path d="M 1040.5896674317542,927.4496945118835 C 1087.7165569539497,966.7221024470464 1103.4255201280148,1021.7034735562745 1040.5896674317542,1084.5393262525351 C 977.7538147354935,1021.7034735562745 993.4627779095587,966.7221024470464 1040.5896674317542,927.4496945118835 Z" fill="url(#leaf20)" opacity="0.24" transform="rotate(192.6 1040.6 1006.0)"/>
    <path d="M 1210.8236304905893,506.7999470010893 C 1256.4346839485615,544.8091582160662 1271.6383684345524,598.0220539170339 1210.8236304905893,658.836791860997 C 1150.0088925466262,598.0220539170339 1165.212577032617,544.8091582160662 1210.8236304905893,506.7999470010893 Z" fill="url(#leaf21)" opacity="0.20" transform="rotate(28.0 1210.8 582.8)"/>
    <path d="M 262.2020820338302,885.3224627920162 C 300.5539719720347,917.2823710738533 313.33793528476946,962.0262426684251 262.2020820338302,1013.1620959193643 C 211.06622878289096,962.0262426684251 223.85019209562577,917.2823710738533 262.2020820338302,885.3224627920162 Z" fill="url(#leaf22)" opacity="0.18" transform="rotate(149.5 262.2 949.2)"/>
    <path d="M 531.9258267670579,691.4928953099808 C 559.5051381511549,714.4756547967283 568.698241945854,746.651518078175 531.9258267670579,783.423933256971 C 495.15341158826175,746.651518078175 504.3465153829608,714.4756547967283 531.9258267670579,691.4928953099808 Z" fill="url(#leaf23)" opacity="0.23" transform="rotate(123.0 531.9 737.5)"/>
    <path d="M 1500.1645913598516,114.91764514562831 C 1532.9789312987184,142.26292842801737 1543.917044611674,180.5463250233621 1500.1645913598516,224.29877827518462 C 1456.412138108029,180.5463250233621 1467.3502514209847,142.26292842801737 1500.1645913598516,114.91764514562831 Z" fill="url(#leaf24)" opacity="0.23" transform="rotate(332.9 1500.2 169.6)"/>
    <path d="M 1203.0616140007055,158.72449185987398 C 1227.1730504453465,178.8173555637415 1235.2101959268937,206.94736474915607 1203.0616140007055,239.09594667534412 C 1170.9130320745173,206.94736474915607 1178.9501775560645,178.8173555637415 1203.0616140007055,158.72449185987398 Z" fill="url(#leaf25)" opacity="0.16" transform="rotate(16.1 1203.1 198.9)"/>
    <path d="M 1856.9082803030196,142.5548506184163 C 1893.3885054821938,172.95503826772813 1905.5485805419185,215.5153009767647 1856.9082803030196,264.15560121566364 C 1808.2679800641208,215.5153009767647 1820.4280551238455,172.95503826772813 1856.9082803030196,142.5548506184163 Z" fill="url(#leaf26)" opacity="0.21" transform="rotate(48.0 1856.9 203.4)"/>
    <path d="M 470.0879676006092,963.3807485112414 C 498.4701122918757,987.0325357539634 507.9308271889645,1020.1450378937743 470.0879676006092,1057.9878974821297 C 432.2451080122539,1020.1450378937743 441.7058229093427,987.0325357539634 470.0879676006092,963.3807485112414 Z" fill="url(#leaf27)" opacity="0.25" transform="rotate(44.7 470.1 1010.7)"/>
    <path d="M 1842.6854107593053,451.00023269555646 C 1887.7684934243327,488.5694682497459 1902.7961876460085,541.1663980256112 1842.6854107593053,601.2771749123144 C 1782.5746338726021,541.1663980256112 1797.602328094278,488.5694682497459 1842.6854107593053,451.00023269555646 Z" fill="url(#leaf28)" opacity="0.15" transform="rotate(8.6 1842.7 526.1)"/>
    <path d="M 923.4696962032549,142.8764800379867 C 952.8718861428864,167.37830498767968 962.6726161227637,201.68085991724985 923.4696962032549,240.8837798367586 C 884.2667762837461,201.68085991724985 894.0675062636234,167.37830498767968 923.4696962032549,142.8764800379867 Z" fill="url(#leaf29)" opacity="0.18" transform="rotate(48.6 923.5 191.9)"/>
    <path d="M 1535.3264921729403,490.74298192294015 C 1564.4875850068331,515.0438926178508 1574.2079492847975,549.0651675907259 1535.3264921729403,587.946624702583 C 1496.4450350610832,549.0651675907259 1506.1653993390476,515.0438926178508 1535.3264921729403,490.74298192294015 Z" fill="url(#leaf0)" opacity="0.22" transform="rotate(42.5 1535.3 539.3)"/>
    <path d="M 1651.7082585693302,637.6555169343856 C 1697.9476286226527,676.1883253121543 1713.3607519737602,730.1342570410307 1651.7082585693302,791.7867504454607 C 1590.0557651649,730.1342570410307 1605.4688885160076,676.1883253121543 1651.7082585693302,637.6555169343856 Z" fill="url(#leaf1)" opacity="0.25" transform="rotate(61.4 1651.7 714.7)"/>
    <path d="M 1249.995620867426,271.2501444094006 C 1296.8901936396956,310.3289550529586 1312.5217178971188,365.03928995393983 1249.995620867426,427.5653869836326 C 1187.469523837733,365.03928995393983 1203.1010480951563,310.3289550529586 1249.995620867426,271.2501444094006 Z" fill="url(#leaf2)" opacity="0.16" transform="rotate(359.3 1250.0 349.4)"/>
    <path d="M 1564.520172552069,550.3873805336834 C 1590.6063172011113,572.1258344078853 1599.301698750792,602.559669831768 1564.520172552069,637.3411960304911 C 1529.738646353346,602.559669831768 1538.4340279030266,572.1258344078853 1564.520172552069,550.3873805336834 Z" fill="url(#leaf3)" opacity="0.24" transform="rotate(176.5 1564.5 593.9)"/>
    <path d="M 687.357963051241,151.84203079380882 C 705.7940563800239,167.20544190112795 711.9394208229515,188.71421745137474 687.357963051241,213.29567522308537 C 662.7765052795304,188.71421745137474 668.921869722458,167.20544190112795 687.357963051241,151.84203079380882 Z" fill="url(#leaf4)" opacity="0.19" transform="rotate(39.0 687.4 182.6)"/>
    <path d="M 629.0327920805901,60.81930205323873 C 670.4252259721811,95.31299696289796 684.2227039360448,143.60416983642085 629.0327920805901,198.7940816918756 C 573.8428802251353,143.60416983642085 587.640358188999,95.31299696289796 629.0327920805901,60.81930205323873 Z" fill="url(#leaf5)" opacity="0.20" transform="rotate(333.9 629.0 129.8)"/>
    <path d="M 768.8927161456647,-11.262077968676273 C 808.999973004896,22.16063608068309 822.3690586246397,68.9524357497862 768.8927161456647,122.42877822876119 C 715.4163736666898,68.9524357497862 728.7854592864335,22.16063608068309 768.8927161456647,-11.262077968676273 Z" fill="url(#leaf6)" opacity="0.20" transform="rotate(151.8 768.9 55.6)"/>
    <path d="M 1595.9357747441306,447.13146873363354 C 1638.596061535092,482.6817077261015 1652.8161571320793,532.4520423155565 1595.9357747441306,589.3324247035051 C 1539.055392356182,532.4520423155565 1553.2754879531692,482.6817077261015 1595.9357747441306,447.13146873363354 Z" fill="url(#leaf7)" opacity="0.23" transform="rotate(172.5 1595.9 518.2)"/>
    <path d="M 1169.8378571432816,725.6174079136891 C 1191.898419900001,744.0012102109553 1199.2519408189075,769.738533427128 1169.8378571432816,799.1526171027539 C 1140.4237734676556,769.738533427128 1147.777294386562,744.0012102109553 1169.8378571432816,725.6174079136891 Z" fill="url(#leaf8)" opacity="0.19" transform="rotate(188.8 1169.8 762.4)"/>
    <path d="M 854.1130666374191,168.55262431354882 C 881.6187825818379,191.47405426723117 890.7873545633108,223.5640562023864 854.1130666374191,260.23834412827813 C 817.4387787115274,223.5640562023864 826.6073506930004,191.47405426723117 854.1130666374191,168.55262431354882 Z" fill="url(#leaf9)" opacity="0.19" transform="rotate(271.3 854.1 214.4)"/>
    <path d="M 1035.0906797893351,33.65110403673032 C 1072.120908425949,64.50962790057523 1084.464317971487,107.7115613099581 1035.0906797893351,157.08519949210995 C 985.7170416071833,107.7115613099581 998.0604511527213,64.50962790057523 1035.0906797893351,33.65110403673032 Z" fill="url(#leaf10)" opacity="0.22" transform="rotate(307.3 1035.1 95.4)"/>
    <path d="M 424.74153315627393,192.7053703873459 C 472.4322470357969,232.447631953615 488.3291516623045,288.08679814639174 424.74153315627393,351.6744166524223 C 361.15391465024334,288.08679814639174 377.050819276751,232.447631953615 424.74153315627393,192.7053703873459 Z" fill="url(#leaf11)" opacity="0.21" transform="rotate(140.6 424.7 272.2)"/>
    <path d="M 851.2683984446066,552.0886832542774 C 871.8221879828297,569.2168412027966 878.6734511622374,593.1962623307236 851.2683984446066,620.6013150483543 C 823.8633457269759,593.1962623307236 830.7146089063835,569.2168412027966 851.2683984446066,552.0886832542774 Z" fill="url(#leaf12)" opacity="0.15" transform="rotate(56.1 851.3 586.3)"/>
    <path d="M 629.3119207464647,948.9718144482905 C 651.6302063461736,967.5703857813812 659.0696348794099,993.6083856477084 629.3119207464647,1023.3660997806536 C 599.5542066135195,993.6083856477084 606.9936351467558,967.5703857813812 629.3119207464647,948.9718144482905 Z" fill="url(#leaf13)" opacity="0.23" transform="rotate(300.4 629.3 986.2)"/>
    <path d="M 1268.8931664803865,735.5965932787568 C 1307.5721075980503,767.8290442101433 1320.4650879706048,812.9544755140843 1268.8931664803865,864.5263970043026 C 1217.3212449901682,812.9544755140843 1230.2142253627228,767.8290442101433 1268.8931664803865,735.5965932787568 Z" fill="url(#leaf14)" opacity="0.15" transform="rotate(166.9 1268.9 800.1)"/>
    <path d="M 381.77154961082795,965.1749793451154 C 400.05558845746873,980.4116783839828 406.1502680730157,1001.7430570383971 381.77154961082795,1026.1217755005848 C 357.3928311486402,1001.7430570383971 363.48751076418716,980.4116783839828 381.77154961082795,965.1749793451154 Z" fill="url(#leaf15)" opacity="0.21" transform="rotate(267.5 381.8 995.6)"/>
    <path d="M 1364.4567723740024,4.152010292034191 C 1403.1401015912643,36.388117973085684 1416.0345446636848,81.51866872655778 1364.4567723740024,133.09644101624016 C 1312.87900008432,81.51866872655778 1325.7734431567405,36.388117973085684 1364.4567723740024,4.152010292034191 Z" fill="url(#leaf16)" opacity="0.23" transform="rotate(35.7 1364.5 68.6)"/>
    <path d="M 596.5718806325026,359.7359742855341 C 632.7146164280014,389.85492078178305 644.762195026501,432.02144587653163 596.5718806325026,480.21176027053 C 548.3815662385042,432.02144587653163 560.4291448370038,389.85492078178305 596.5718806325026,359.7359742855341 Z" fill="url(#leaf17)" opacity="0.24" transform="rotate(158.5 596.6 420.0)"/>
    <path d="M 467.06997490158017,155.07413207998502 C 510.11346181405156,190.94370450704452 524.4612907848754,241.16110590492784 467.06997490158017,298.55242178822306 C 409.6786590182849,241.16110590492784 424.0264879891088,190.94370450704452 467.06997490158017,155.07413207998502 Z" fill="url(#leaf18)" opacity="0.20" transform="rotate(207.3 467.1 226.8)"/>
    <path d="M 1580.1528692396184,748.991524890463 C 1603.1869876327828,768.1866235514333 1610.865027097171,795.0597616767918 1580.1528692396184,825.7719195343444 C 1549.440711382066,795.0597616767918 1557.118750846454,768.1866235514333 1580.1528692396184,748.991524890463 Z" fill="url(#leaf19)" opacity="0.20" transform="rotate(251.1 1580.2 787.4)"/>
    <path d="M 262.81055323528665,736.0370351535356 C 297.74436236537457,765.1485427619423 309.3889654087372,805.9046534137115 262.81055323528665,852.4830655871621 C 216.2321410618361,805.9046534137115 227.87674410519872,765.1485427619423 262.81055323528665,736.0370351535356 Z" fill="url(#leaf20)" opacity="0.18" transform="rotate(217.8 262.8 794.3)"/>
    <path d="M 1202.8756713563776,664.6975561668835 C 1233.0139053238938,689.8127511398137 1243.059983313066,724.974024101916 1202.8756713563776,765.1583360586044 C 1162.6913593996892,724.974024101916 1172.7374373888613,689.8127511398137 1202.8756713563776,664.6975561668835 Z" fill="url(#leaf21)" opacity="0.17" transform="rotate(209.3 1202.9 714.9)"/>
    <path d="M 1649.8824767831268,36.20752942028039 C 1679.7772864392352,61.119870800370734 1689.7422229912713,95.99714873249722 1649.8824767831268,135.85689494064178 C 1610.0227305749822,95.99714873249722 1619.9876671270183,61.119870800370734 1649.8824767831268,36.20752942028039 Z" fill="url(#leaf22)" opacity="0.24" transform="rotate(219.8 1649.9 86.0)"/>
    <path d="M 800.1856518223389,722.3053606256664 C 838.3641516473398,754.1207771465004 851.0903182556733,798.6623602756681 800.1856518223389,849.5670267090026 C 749.2809853890044,798.6623602756681 762.0071519973379,754.1207771465004 800.1856518223389,722.3053606256664 Z" fill="url(#leaf23)" opacity="0.20" transform="rotate(264.2 800.2 785.9)"/>
    <path d="M 362.9754743464955,-4.956540661078755 C 396.0812361913944,22.631594209670343 407.11649013969406,61.25498302871908 362.9754743464955,105.39599882191763 C 318.83445855329694,61.25498302871908 329.8697125015966,22.631594209670343 362.9754743464955,-4.956540661078755 Z" fill="url(#leaf24)" opacity="0.19" transform="rotate(32.8 363.0 50.2)"/>
    <path d="M 276.20491862694394,106.79738355545285 C 320.663786605057,143.8464402038804 335.483409264428,195.71511951167898 276.20491862694394,254.99361014916306 C 216.92642798945985,195.71511951167898 231.74605064883087,143.8464402038804 276.20491862694394,106.79738355545285 Z" fill="url(#leaf25)" opacity="0.21" transform="rotate(180.2 276.2 180.9)"/>
    <path d="M 1573.5711793802122,184.10105150618253 C 1615.1626319560282,218.76059531936255 1629.0264494813002,267.2839566578146 1573.5711793802122,322.73922675890265 C 1518.1159092791243,267.2839566578146 1531.9797268043963,218.76059531936255 1573.5711793802122,184.10105150618253 Z" fill="url(#leaf26)" opacity="0.21" transform="rotate(285.9 1573.6 253.4)"/>
    <path d="M 167.04736720569858,168.68768896991762 C 190.64052283519555,188.34865199449843 198.5049080450279,215.8740002289116 167.04736720569858,247.3315410682409 C 135.58982636636927,215.8740002289116 143.4542115762016,188.34865199449843 167.04736720569858,168.68768896991762 Z" fill="url(#leaf27)" opacity="0.19" transform="rotate(153.9 167.0 208.0)"/>
    <path d="M 1358.7835561375102,561.5053475283673 C 1390.9167607462848,588.2830180356794 1401.6278289492097,625.7717567459165 1358.7835561375102,668.616029557616 C 1315.9392833258107,625.7717567459165 1326.6503515287357,588.2830180356794 1358.7835561375102,561.5053475283673 Z" fill="url(#leaf28)" opacity="0.24" transform="rotate(161.5 1358.8 615.1)"/>
    <path d="M 77.25450144219425,591.0407837309529 C 96.71592751617439,607.258638792603 103.20306954083443,629.9636358789132 77.25450144219425,655.9122039775534 C 51.305933343554074,629.9636358789132 57.79307536821412,607.258638792603 77.25450144219425,591.0407837309529 Z" fill="url(#leaf29)" opacity="0.19" transform="rotate(162.2 77.3 623.5)"/>
    <path d="M 1327.659509427702,203.36907545127457 C 1366.7015682523215,235.90412447179077 1379.7155878605279,281.45319310051343 1327.659509427702,333.50927153333936 C 1275.6034309948761,281.45319310051343 1288.6174506030825,235.90412447179077 1327.659509427702,203.36907545127457 Z" fill="url(#leaf0)" opacity="0.20" transform="rotate(132.3 1327.7 268.4)"/>
    <path d="M 578.7915944628741,92.71125285554385 C 609.5983098790643,118.38351570236911 619.8672150177945,154.32468368792448 578.7915944628741,195.4003042428449 C 537.7159739079536,154.32468368792448 547.9848790466838,118.38351570236911 578.7915944628741,92.71125285554385 Z" fill="url(#leaf1)" opacity="0.18" transform="rotate(189.3 578.8 144.1)"/>
    <path d="M 1705.6490602551203,799.8494504702002 C 1739.761684657499,828.2766374721825 1751.132559458292,868.0746992749577 1705.6490602551203,913.5581984781294 C 1660.1655610519485,868.0746992749577 1671.5364358527415,828.2766374721825 1705.6490602551203,799.8494504702002 Z" fill="url(#leaf2)" opacity="0.18" transform="rotate(245.1 1705.6 856.7)"/>
    <path d="M 1611.8432086442067,460.1589207485542 C 1647.225928375363,489.6445205245178 1659.0201682857485,530.9243602108668 1611.8432086442067,578.1013198524086 C 1564.666249002665,530.9243602108668 1576.4604889130503,489.6445205245178 1611.8432086442067,460.1589207485542 Z" fill="url(#leaf3)" opacity="0.17" transform="rotate(132.0 1611.8 519.1)"/>
    <path d="M 809.0368129533989,206.95318654642807 C 851.369949705968,242.23080050690234 865.4809952901578,291.6194600515663 809.0368129533989,348.06364238832515 C 752.59263061664,291.6194600515663 766.7036762008298,242.23080050690234 809.0368129533989,206.95318654642807 Z" fill="url(#leaf4)" opacity="0.18" transform="rotate(311.4 809.0 277.5)"/>
    <path d="M 1548.820678216714,617.1237514130996 C 1589.8579736438744,651.3214976024 1603.5370721195945,699.1983422674203 1548.820678216714,753.9147361703008 C 1494.1042843138334,699.1983422674203 1507.7833827895536,651.3214976024 1548.820678216714,617.1237514130996 Z" fill="url(#leaf5)" opacity="0.22" transform="rotate(3.7 1548.8 685.5)"/>
    <path d="M 1322.3468324098296,325.99346533764407 C 1362.2093731143336,359.212249258064 1375.4968866825016,405.71854674665195 1322.3468324098296,458.8686010193239 C 1269.1967781371577,405.71854674665195 1282.4842917053256,359.212249258064 1322.3468324098296,325.99346533764407 Z" fill="url(#leaf6)" opacity="0.21" transform="rotate(96.1 1322.3 392.4)"/>
    <path d="M 945.0544255755648,155.52259024582625 C 981.3633013408221,185.77998671687402 993.4662599292412,228.14034177634088 945.0544255755648,276.55217613001724 C 896.6425912218883,228.14034177634088 908.7455498103075,185.77998671687402 945.0544255755648,155.52259024582625 Z" fill="url(#leaf7)" opacity="0.22" transform="rotate(128.2 945.1 216.0)"/>
    <path d="M 1240.4128960562134,362.83283581683355 C 1263.6519501341945,382.1987142151511 1271.3983014935216,409.31094397279566 1240.4128960562134,440.2963494101037 C 1209.4274906189053,409.31094397279566 1217.1738419782323,382.1987142151511 1240.4128960562134,362.83283581683355 Z" fill="url(#leaf8)" opacity="0.18" transform="rotate(7.6 1240.4 401.6)"/>
    <path d="M 532.2622449619257,508.107391847173 C 575.2937808439525,543.9670050821953 589.6376261379614,594.1704636112265 532.2622449619257,651.5458447872622 C 474.88686378589006,594.1704636112265 489.230709079899,543.9670050821953 532.2622449619257,508.107391847173 Z" fill="url(#leaf9)" opacity="0.23" transform="rotate(231.5 532.3 579.8)"/>
    <path d="M 544.3129574773811,197.27803847160757 C 588.4152086415537,234.02991444175137 603.1159590296112,285.48254079995274 544.3129574773811,344.2855423521828 C 485.509955925151,285.48254079995274 500.21070631320856,234.02991444175137 544.3129574773811,197.27803847160757 Z" fill="url(#leaf10)" opacity="0.17" transform="rotate(171.1 544.3 270.8)"/>
    <path d="M 1387.1968475735148,710.5083762185592 C 1407.6773486239479,727.5754604272533 1414.5041823074255,751.4693783194253 1387.1968475735148,778.776713053336 C 1359.889512839604,751.4693783194253 1366.7163465230817,727.5754604272533 1387.1968475735148,710.5083762185592 Z" fill="url(#leaf11)" opacity="0.21" transform="rotate(123.3 1387.2 744.6)"/>
    <path d="M 1347.3127915260663,252.6256445514852 C 1378.469393115601,278.58947920943064 1388.854926978779,314.9388477305543 1347.3127915260663,356.480983183267 C 1305.7706560733536,314.9388477305543 1316.1561899365317,278.58947920943064 1347.3127915260663,252.6256445514852 Z" fill="url(#leaf12)" opacity="0.20" transform="rotate(19.5 1347.3 304.6)"/>
    <path d="M 1150.63929662349,575.5452095561025 C 1172.11831104192,593.4443882381272 1179.2779825147297,618.503238392962 1150.63929662349,647.1419242842017 C 1122.0006107322504,618.503238392962 1129.1602822050602,593.4443882381272 1150.63929662349,575.5452095561025 Z" fill="url(#leaf13)" opacity="0.19" transform="rotate(326.0 1150.6 611.3)"/>
    <path d="M 581.8701868404297,651.3215901310593 C 604.6013688626927,670.2642418162784 612.1784295367802,696.7839541755851 581.8701868404297,727.0921968719356 C 551.5619441440792,696.7839541755851 559.1390048181668,670.2642418162784 581.8701868404297,651.3215901310593 Z" fill="url(#leaf14)" opacity="0.23" transform="rotate(188.7 581.9 689.2)"/>
    <path d="M 1825.2764867757705,739.5989240227167 C 1868.7817401170564,775.8533018071215 1883.2834912308183,826.6094307052882 1825.2764867757705,884.616435160336 C 1767.2694823207228,826.6094307052882 1781.7712334344847,775.8533018071215 1825.2764867757705,739.5989240227167 Z" fill="url(#leaf15)" opacity="0.17" transform="rotate(174.0 1825.3 812.1)"/>
    <path d="M 1497.888417446757,256.24868767298227 C 1519.9947441490574,274.6706265915659 1527.363519716491,300.4613410775831 1497.888417446757,329.9364433473169 C 1468.4133151770232,300.4613410775831 1475.7820907444568,274.6706265915659 1497.888417446757,256.24868767298227 Z" fill="url(#leaf16)" opacity="0.15" transform="rotate(328.4 1497.9 293.1)"/>
    <path d="M 1701.0353321743598,177.5695824442176 C 1720.0935143675179,193.45140093851586 1726.4462417652371,215.68594683053345 1701.0353321743598,241.09685642141068 C 1675.6244225834826,215.68594683053345 1681.9771499812018,193.45140093851586 1701.0353321743598,177.5695824442176 Z" fill="url(#leaf17)" opacity="0.17" transform="rotate(346.6 1701.0 209.3)"/>
    <path d="M 1439.8983918295476,201.36033945121488 C 1461.7853568341413,219.59947695504295 1469.0810118356726,245.13426946040227 1439.8983918295476,274.3168894665272 C 1410.7157718234225,245.13426946040227 1418.0114268249538,219.59947695504295 1439.8983918295476,201.36033945121488 Z" fill="url(#leaf18)" opacity="0.16" transform="rotate(157.8 1439.9 237.8)"/>
    <path d="M 688.4164199108955,472.57863329874084 C 732.2909730669202,509.14076092876144 746.9158241189284,560.3277396107902 688.4164199108955,618.8271438188231 C 629.9170157028625,560.3277396107902 644.5418667548707,509.14076092876144 688.4164199108955,472.57863329874084 Z" fill="url(#leaf19)" opacity="0.15" transform="rotate(281.7 688.4 545.7)"/>
    <path d="M 432.55869656063777,269.33989466461475 C 459.24902327680985,291.58183359475817 468.1457988488672,322.7205480969589 432.55869656063777,358.3076503851883 C 396.97159427240837,322.7205480969589 405.8683698444657,291.58183359475817 432.55869656063777,269.33989466461475 Z" fill="url(#leaf20)" opacity="0.18" transform="rotate(226.6 432.6 313.8)"/>
    <path d="M 1447.5637682538925,494.53873990840407 C 1475.7397263381977,518.0187049786584 1485.1317123662993,550.8906560770146 1447.5637682538925,588.4586001894215 C 1409.9958241414856,550.8906560770146 1419.3878101695873,518.0187049786584 1447.5637682538925,494.53873990840407 Z" fill="url(#leaf21)" opacity="0.22" transform="rotate(77.7 1447.6 541.5)"/>
    <path d="M 894.1697121553823,353.3721940771959 C 924.4626377274275,378.61629872056693 934.5602795847759,413.9580452212863 894.1697121553823,454.3486126506799 C 853.7791447259887,413.9580452212863 863.8767865833371,378.61629872056693 894.1697121553823,353.3721940771959 Z" fill="url(#leaf22)" opacity="0.20" transform="rotate(143.4 894.2 403.9)"/>
    <path d="M 987.4567638478185,937.9129093991107 C 1015.2692337715993,961.089967668928 1024.5400570795262,993.5378492466722 987.4567638478185,1030.6211424783799 C 950.3734706161108,993.5378492466722 959.6442939240377,961.089967668928 987.4567638478185,937.9129093991107 Z" fill="url(#leaf23)" opacity="0.21" transform="rotate(342.2 987.5 984.3)"/>
    <path d="M 277.0332078916804,636.870240299789 C 297.0610771576769,653.560131354786 303.73703357967577,676.925978831782 277.0332078916804,703.6298045197773 C 250.32938220368501,676.925978831782 257.00533862568386,653.560131354786 277.0332078916804,636.870240299789 Z" fill="url(#leaf24)" opacity="0.19" transform="rotate(101.7 277.0 670.3)"/>
    <path d="M 654.0742976140763,261.45915871721934 C 701.1492174666387,300.68825859435475 716.8408574174929,355.60899842234426 654.0742976140763,418.37555822576087 C 591.3077378106597,355.60899842234426 606.9993777615139,300.68825859435475 654.0742976140763,261.45915871721934 Z" fill="url(#leaf25)" opacity="0.19" transform="rotate(291.9 654.1 339.9)"/>
    <path d="M 1256.3192771928734,51.00489841012201 C 1279.3138752190866,70.16706343196634 1286.9787412278245,96.99409446254842 1256.3192771928734,127.65355849749936 C 1225.6598131579224,96.99409446254842 1233.3246791666602,70.16706343196634 1256.3192771928734,51.00489841012201 Z" fill="url(#leaf26)" opacity="0.22" transform="rotate(313.8 1256.3 89.3)"/>
    <path d="M 1008.9836777688473,769.4780376637921 C 1035.1472289879805,791.2809970130697 1043.8684127276917,821.8051401020587 1008.9836777688473,856.689875060903 C 974.0989428100029,821.8051401020587 982.820126549714,791.2809970130697 1008.9836777688473,769.4780376637921 Z" fill="url(#leaf27)" opacity="0.25" transform="rotate(144.3 1009.0 813.1)"/>
    <path d="M 191.77756462847236,78.04309176188485 C 238.10992414151193,116.65339135608448 253.55404397919176,170.70781078796398 191.77756462847236,232.48429013868338 C 130.00108527775296,170.70781078796398 145.4452051154328,116.65339135608448 191.77756462847236,78.04309176188485 Z" fill="url(#leaf28)" opacity="0.15" transform="rotate(78.6 191.8 155.3)"/>
    <path d="M 484.4007737153311,877.9831940751654 C 524.5619270381363,911.4508218441698 537.948978145738,958.3055007207757 484.4007737153311,1011.8537051511827 C 430.85256928492424,958.3055007207757 444.239620392526,911.4508218441698 484.4007737153311,877.9831940751654 Z" fill="url(#leaf29)" opacity="0.16" transform="rotate(260.7 484.4 944.9)"/>
    </g>

    <!-- Text with SOLID fill only (ThorVG compatible) -->
    <text x="1016.0" y="897.8"
          font-family="Arial, Helvetica, sans-serif"
          font-size="1080px"
          font-weight="bold"
          fill="#FF6B6B"
          text-anchor="middle"
          transform="rotate(6.4 960.0 540.0)">
      K
    </text>
  </g>

  <!-- Frame counter -->
  <text x="960.0" y="1050.0"
        font-family="monospace"
        font-size="24px"
        fill="#FFFFFF"
        text-anchor="middle"
        opacity="0.7">
    Frame 00006 - Compatible
  </text>
</svg>