<?xml version="1.0" encoding="UTF-8"?>
<svg xmlns="http://www.w3.org/2000/svg" viewBox="0 0 1920 1080" width="1920" height="1080">
  <defs>
    <linearGradient id="bgGrad" x1="0%" y1="0%" x2="100%" y2="100%">
      <stop offset="0%" stop-color="#00FA9A"/>
      <stop offset="100%" stop-color="#FF69B4"/>
    </linearGradient>
    <clipPath id="complexClip"><polygon points="1542.7,540.0 1546.5,581.7 1409.4,604.9 1467.7,653.1 1365.9,665.5 1472.0,749.2 1361.4,752.0 1291.2,765.2 1224.8,774.7 1206.7,834.9 1128.4,831.6 1057.2,826.5 990.9,816.0 933.9,773.2 849.9,864.6 785.9,841.5 766.8,770.9 613.8,846.9 714.7,706.8 485.2,790.8 539.4,711.9 463.2,693.6 424.0,659.4 481.4,609.1 575.6,567.3 444.0,540.0 538.0,510.0 403.3,459.6 469.0,430.7 416.9,372.1 625.5,403.3 648.1,375.2 573.8,277.4 649.5,264.8 719.6,252.7 795.9,256.0 887.0,324.6 935.3,319.0 985.7,310.0 1054.4,261.7 1134.8,237.4 1126.0,341.6 1244.2,288.1 1354.9,271.5 1280.1,370.9 1501.7,318.6 1328.4,426.1 1336.7,456.1 1336.1,485.7 1458.3,504.6"/></clipPath>
    <radialGradient id="leaf0" cx="50%" cy="50%" r="70%">
      <stop offset="0%" stop-color="#7B68EE"/>
      <stop offset="50%" stop-color="#FF69B4"/>
      <stop offset="100%" stop-color="#FFE66D"/>
    </radialGradient>
    <radialGradient id="leaf1" cx="50%" cy="50%" r="70%">
      <stop offset="0%" stop-color="#FFE66D"/>
      <stop offset="50%" stop-color="#FF4500"/>
      <stop offset="100%" stop-color="#FFD700"/>
    </radialGradient>
    <radialGradient id="leaf2" cx="50%" cy="50%" r="70%">
      <stop offset="0%" stop-color="#32CD32"/>
      <stop offset="50%" stop-color="#9370DB"/>
      <stop offset="100%" stop-color="#FF1493"/>
    </radialGradient>
    <radialGradient id="leaf3" cx="50%" cy="50%" r="70%">
      <stop offset="0%" stop-color="#FF69B4"/>
      <stop offset="50%" stop-color="#4ECDC4"/>
      <stop offset="100%" stop-color="#00FA9A"/>
    </radialGradient>
    <radialGradient id="leaf4" cx="50%" cy="50%" r="70%">
      <stop offset="0%" stop-color="#FFE66D"/>
      <stop offset="50%" stop-color="#00FA9A"/>
      <stop offset="100%" stop-color="#9370DB"/>
    </radialGradient>
    <radialGradient id="leaf5" cx="50%" cy="50%" r="70%">
      <stop offset="0%" stop-color="#7B68EE"/>
      <stop offset="50%" stop-color="#FF69B4"/>
      <stop offset="100%" stop-color="#FF1493"/>
    </radialGradient>
    <radialGradient id="leaf6" cx="50%" cy="50%" r="70%">
      <stop offset="0%" stop-color="#FF69B4"/>
      <stop offset="50%" stop-color="#00FA9A"/>
      <stop offset="100%" stop-color="#32CD32"/>
    </radialGradient>
    <radialGradient id="leaf7" cx="50%" cy="50%" r="70%">
      <stop offset="0%" stop-color="#FFE66D"/>
      <stop offset="50%" stop-color="#00FA9A"/>
      <stop offset="100%" stop-color="#7B68EE"/>
    </radialGradient>
    <radialGradient id="leaf8" cx="50%" cy="50%" r="70%">
      <stop offset="0%" stop-color="#4ECDC4"/>
      <stop offset="50%" stop-color="#DC143C"/>
      <stop offset="100%" stop-color="#7B68EE"/>
    </radialGradient>
    <radialGradient id="leaf9" cx="50%" cy="50%" r="70%">
      <stop offset="0%" stop-color="#45B7D1"/>
      <stop offset="50%" stop-color="#96E6A1"/>
      <stop offset="100%" stop-color="#FFE66D"/>
    </radialGradient>
    <radialGradient id="leaf10" cx="50%" cy="50%" r="70%">
      <stop offset="0%" stop-color="#32CD32"/>
      <stop offset="50%" stop-color="#9370DB"/>
      <stop offset="100%" stop-color="#FF1493"/>
    </radialGradient>
    <radialGradient id="leaf11" cx="50%" cy="50%" r="70%">
      <stop offset="0%" stop-color="#9370DB"/>
      <stop offset="50%" stop-color="#FF4500"/>
      <stop offset="100%" stop-color="#4ECDC4"/>
    </radialGradient>
    <radialGradient id="leaf12" cx="50%" cy="50%" r="70%">
      <stop offset="0%" stop-color="#DC143C"/>
      <stop offset="50%" stop-color="#FF6B6B"/>
      <stop offset="100%" stop-color="#96E6A1"/>
    </radialGradient>
    <radialGradient id="leaf13" cx="50%" cy="50%" r="70%">
      <stop offset="0%" stop-color="#00CED1"/>
      <stop offset="50%" stop-color="#FF1493"/>
      <stop offset="100%" stop-color="#FFE66D"/>
    </radialGradient>
    <radialGradient id="leaf14" cx="50%" cy="50%" r="70%">
      <stop offset="0%" stop-color="#00FA9A"/>
      <stop offset="50%" stop-color="#FF4500"/>
      <stop offset="100%" stop-color="#96E6A1"/>
    </radialGradient>
    <radialGradient id="leaf15" cx="50%" cy="50%" r="70%">
      <stop offset="0%" stop-color="#00FA9A"/>
      <stop offset="50%" stop-color="#7B68EE"/>
      <stop offset="100%" stop-color="#FF1493"/>
    </radialGradient>
    <radialGradient id="leaf16" cx="50%" cy="50%" r="70%">
      <stop offset="0%" stop-color="#FF69B4"/>
      <stop offset="50%" stop-color="#FF6B6B"/>
      <stop offset="100%" stop-color="#7B68EE"/>
    </radialGradient>
    <radialGradient id="leaf17" cx="50%" cy="50%" r="70%">
      <stop offset="0%" stop-color="#45B7D1"/>
      <stop offset="50%" stop-color="#FF1493"/>
      <stop offset="100%" stop-color="#4ECDC4"/>
    </radialGradient>
    <radialGradient id="leaf18" cx="50%" cy="50%" r="70%">
      <stop offset="0%" stop-color="#FF69B4"/>
      <stop offset="50%" stop-color="#7B68EE"/>
      <stop offset="100%" stop-color="#FFD700"/>
    </radialGradient>
    <radialGradient id="leaf19" cx="50%" cy="50%" r="70%">
      <stop offset="0%" stop-color="#FF4500"/>
      <stop offset="50%" stop-color="#96E6A1"/>
      <stop offset="100%" stop-color="#00FA9A"/>
    </radialGradient>
    <radialGradient id="leaf20" cx="50%" cy="50%" r="70%">
      <stop offset="0%" stop-color="#FF4500"/>
      <stop offset="50%" stop-color="#DC143C"/>
      <stop offset="100%" stop-color="#4ECDC4"/>
    </radialGradient>
    <radialGradient id="leaf21" cx="50%" cy="50%" r="70%">
      <stop offset="0%" stop-color="#45B7D1"/>
      <stop offset="50%" stop-color="#FF4500"/>
      <stop offset="100%" stop-color="#DC143C"/>
    </radialGradient>
    <radialGradient id="leaf22" cx="50%" cy="50%" r="70%">
      <stop offset="0%" stop-color="#00CED1"/>
      <stop offset="50%" stop-color="#FFE66D"/>
      <stop offset="100%" stop-color="#32CD32"/>
    </radialGradient>
    <radialGradient id="leaf23" cx="50%" cy="50%" r="70%">
      <stop offset="0%" stop-color="#FF1493"/>
      <stop offset="50%" stop-color="#FF69B4"/>
      <stop offset="100%" stop-color="#9370DB"/>
    </radialGradient>
    <radialGradient id="leaf24" cx="50%" cy="50%" r="70%">
      <stop offset="0%" stop-color="#00CED1"/>
      <stop offset="50%" stop-color="#FFD700"/>
      <stop offset="100%" stop-color="#00FA9A"/>
    </radialGradient>
    <radialGradient id="leaf25" cx="50%" cy="50%" r="70%">
      <stop offset="0%" stop-color="#96E6A1"/>
      <stop offset="50%" stop-color="#45B7D1"/>
      <stop offset="100%" stop-color="#00FA9A"/>
    </radialGradient>
    <radialGradient id="leaf26" cx="50%" cy="50%" r="70%">
      <stop offset="0%" stop-color="#32CD32"/>
      <stop offset="50%" stop-color="#FF1493"/>
      <stop offset="100%" stop-color="#96E6A1"/>
    </radialGradient>
    <radialGradient id="leaf27" cx="50%" cy="50%" r="70%">
      <stop offset="0%" stop-color="#FF69B4"/>
      <stop offset="50%" stop-color="#00CED1"/>
      <stop offset="100%" stop-color="#96E6A1"/>
    </radialGradient>
    <radialGradient id="leaf28" cx="50%" cy="50%" r="70%">
      <stop offset="0%" stop-color="#FF1493"/>
      <stop offset="50%" stop-color="#FF4500"/>
      <stop offset="100%" stop-color="#00CED1"/>
    </radialGradient>
    <radialGradient id="leaf29" cx="50%" cy="50%" r="70%">
      <stop offset="0%" stop-color="#FFE66D"/>
      <stop offset="50%" stop-color="#00FA9A"/>
      <stop offset="100%" stop-color="#9370DB"/>
    </radialGradient>
  </defs>

  <!-- Scaled content -->
  <g transform="translate(960.0,540.0) scale(3.0) translate(-960.0,-540.0)">
    <!-- Background -->
    <rect width="1920" height="1080" fill="url(#bgGrad)"/>
    
    <!-- Leaves with clip-path -->
    <g clip-path="url(#complexClip)">
    <path d="M 905.1993123765961,511.9881950885711 C 935.5105687906994,537.2475754336572 945.6143209287338,572.6107079167776 905.1993123765961,613.0257164689152 C 864.7843038244584,572.6107079167776 874.8880559624929,537.2475754336572 905.1993123765961,511.9881950885711 Z" fill="url(#leaf0)" opacity="0.19" transform="rotate(87.0 905.2 562.5)"/>
    <path d="M 814.0584964707475,812.127427813258 C 855.7616868834962,846.8800864905486 869.6627503544124,895.5338086387554 814.0584964707475,951.1380625224203 C 758.4542425870826,895.5338086387554 772.3553060579989,846.8800864905486 814.0584964707475,812.127427813258 Z" fill="url(#leaf1)" opacity="0.17" transform="rotate(95.9 814.1 881.6)"/>
    <path d="M 482.7382420304122,412.83932432618 C 523.3909447232209,446.7165765701872 536.9418456208238,494.1447297117973 482.7382420304122,548.3483333022089 C 428.53463844000066,494.1447297117973 442.08553933760356,446.7165765701872 482.7382420304122,412.83932432618 Z" fill="url(#leaf2)" opacity="0.25" transform="rotate(17.9 482.7 480.6)"/>
    <path d="M 268.92148114098075,279.57285401585057 C 311.52298733489414,315.07410917744505 325.72348939953196,364.7758664036774 268.92148114098075,421.5778746622286 C 212.11947288242953,364.7758664036774 226.31997494706732,315.07410917744505 268.92148114098075,279.57285401585057 Z" fill="url(#leaf3)" opacity="0.24" transform="rotate(167.7 268.9 350.6)"/>
    <path d="M 1614.595089774947,602.6361493413684 C 1642.3025874641437,625.7257307490323 1651.5384200272092,658.0511447197617 1614.595089774947,694.994474972024 C 1577.6517595226846,658.0511447197617 1586.8875920857502,625.7257307490323 1614.595089774947,602.6361493413684 Z" fill="url(#leaf4)" opacity="0.24" transform="rotate(97.3 1614.6 648.8)"/>
    <path d="M 1705.7595023078595,916.8598895312832 C 1727.992158910497,935.3871033668144 1735.4030444447094,961.3252027365581 1705.7595023078595,990.968744873408 C 1676.1159601710096,961.3252027365581 1683.526845705222,935.3871033668144 1705.7595023078595,916.8598895312832 Z" fill="url(#leaf5)" opacity="0.22" transform="rotate(21.6 1705.8 953.9)"/>
    <path d="M 757.6110584789812,905.8855053381125 C 789.0632877628876,932.0956964080344 799.5473641908563,968.7899639059252 757.6110584789812,1010.7262696178003 C 715.6747527671062,968.7899639059252 726.1588291950749,932.0956964080344 757.6110584789812,905.8855053381125 Z" fill="url(#leaf6)" opacity="0.17" transform="rotate(12.4 757.6 958.3)"/>
    <path d="M 979.2690469473728,927.8585003916543 C 998.2096376551701,943.6423259814854 1004.5231678911025,965.739681807249 979.2690469473728,990.9938027509787 C 954.014926003643,965.739681807249 960.3284562395754,943.6423259814854 979.2690469473728,927.8585003916543 Z" fill="url(#leaf7)" opacity="0.19" transform="rotate(13.6 979.3 959.4)"/>
    <path d="M 295.2816227328523,180.19914403110474 C 322.7917122676736,203.12421864345578 331.961742112614,235.21932310074723 295.2816227328523,271.8994424805089 C 258.60150335309066,235.21932310074723 267.7715331980311,203.12421864345578 295.2816227328523,180.19914403110474 Z" fill="url(#leaf8)" opacity="0.18" transform="rotate(299.5 295.3 226.0)"/>
    <path d="M 1472.5851211642507,581.2709132482919 C 1519.8699454710231,620.6749335039354 1535.6315535732804,675.8405618618365 1472.5851211642507,738.8869942708661 C 1409.538688755221,675.8405618618365 1425.3002968574783,620.6749335039354 1472.5851211642507,581.2709132482919 Z" fill="url(#leaf9)" opacity="0.21" transform="rotate(159.3 1472.6 660.1)"/>
    <path d="M 873.7750686417361,304.20339752201824 C 895.8037875650801,322.56066329147166 903.1466938728615,348.26083536870635 873.7750686417361,377.6324605998318 C 844.4034434106106,348.26083536870635 851.746349718392,322.56066329147166 873.7750686417361,304.20339752201824 Z" fill="url(#leaf10)" opacity="0.17" transform="rotate(41.0 873.8 340.9)"/>
    <path d="M 1774.299466663203,827.7284310205232 C 1817.5138176702433,863.7403901930569 1831.9186013392568,914.1571330346039 1774.299466663203,971.7762677106577 C 1716.6803319871492,914.1571330346039 1731.0851156561628,863.7403901930569 1774.299466663203,827.7284310205232 Z" fill="url(#leaf11)" opacity="0.17" transform="rotate(306.3 1774.3 899.8)"/>
    <path d="M 192.0718184331597,701.3592313272036 C 225.7202645014704,729.3996030507959 236.9364131909073,768.656123463825 192.0718184331597,813.5207182215727 C 147.2072236754121,768.656123463825 158.423372364849,729.3996030507959 192.0718184331597,701.3592313272036 Z" fill="url(#leaf12)" opacity="0.21" transform="rotate(256.8 192.1 757.4)"/>
    <path d="M 1637.5977092802482,494.2974544117364 C 1656.381265126951,509.950417617322 1662.6424504091851,531.8645661051418 1637.5977092802482,556.9093072340786 C 1612.5529681513112,531.8645661051418 1618.8141534335455,509.950417617322 1637.5977092802482,494.2974544117364 Z" fill="url(#leaf13)" opacity="0.18" transform="rotate(43.5 1637.6 525.6)"/>
    <path d="M 624.9771929852926,735.1835485314734 C 671.246426435627,773.7412430734188 686.6695042524051,827.7220154321421 624.9771929852926,889.4143266992546 C 563.2848817181801,827.7220154321421 578.7079595349583,773.7412430734188 624.9771929852926,735.1835485314734 Z" fill="url(#leaf14)" opacity="0.17" transform="rotate(327.5 625.0 812.3)"/>
    <path d="M 897.1739747984874,516.8083403102636 C 919.5369985348789,535.4441934239233 926.9913397803427,561.5343877830467 897.1739747984874,591.351752764902 C 867.356609816632,561.5343877830467 874.8109510620959,535.4441934239233 897.1739747984874,516.8083403102636 Z" fill="url(#leaf15)" opacity="0.20" transform="rotate(83.8 897.2 554.1)"/>
    <path d="M 1248.4200251548598,598.8060451455362 C 1281.4988069109174,626.3716966089177 1292.5250674962701,664.9636086576517 1248.4200251548598,709.0686509990619 C 1204.3149828134494,664.9636086576517 1215.3412433988021,626.3716966089177 1248.4200251548598,598.8060451455362 Z" fill="url(#leaf16)" opacity="0.23" transform="rotate(22.6 1248.4 653.9)"/>
    <path d="M 1364.8034002055338,652.8080412493616 C 1408.911663105292,689.5649269991602 1423.6144174052117,741.0245670488783 1364.8034002055338,799.8355842485562 C 1305.9923830058558,741.0245670488783 1320.6951373057755,689.5649269991602 1364.8034002055338,652.8080412493616 Z" fill="url(#leaf17)" opacity="0.19" transform="rotate(324.6 1364.8 726.3)"/>
    <path d="M 1529.1357490744,278.68776374146114 C 1559.571282574494,304.0507083248728 1569.7164604078587,339.5588307416491 1529.1357490744,380.1395420751078 C 1488.5550377409415,339.5588307416491 1498.7002155743062,304.0507083248728 1529.1357490744,278.68776374146114 Z" fill="url(#leaf18)" opacity="0.15" transform="rotate(271.9 1529.1 329.4)"/>
    <path d="M 1417.2298181916465,465.6417108022793 C 1440.115327625136,484.71296866352054 1447.7438307696325,511.4127296692583 1417.2298181916465,541.9267422472442 C 1386.7158056136605,511.4127296692583 1394.344308758157,484.71296866352054 1417.2298181916465,465.6417108022793 Z" fill="url(#leaf19)" opacity="0.21" transform="rotate(335.7 1417.2 503.8)"/>
    <path d="M 1641.2510867864166,169.4005526149926 C 1683.1573212904646,204.32241470169916 1697.1260661251472,253.21302162308837 1641.2510867864166,309.08800096181886 C 1585.376107447686,253.21302162308837 1599.3448522823687,204.32241470169916 1641.2510867864166,169.4005526149926 Z" fill="url(#leaf20)" opacity="0.16" transform="rotate(117.9 1641.3 239.2)"/>
    <path d="M 1146.6764402431897,480.04767990224536 C 1169.090160534147,498.7257801447096 1176.5614006311325,524.8751204841594 1146.6764402431897,554.7600808721022 C 1116.791479855247,524.8751204841594 1124.2627199522326,498.7257801447096 1146.6764402431897,480.04767990224536 Z" fill="url(#leaf21)" opacity="0.22" transform="rotate(223.8 1146.7 517.4)"/>
    <path d="M 1655.2727589467227,901.5499813494841 C 1680.5552587280717,922.618731167275 1688.982758655188,952.1149809121823 1655.2727589467227,985.8249806206477 C 1621.5627592382573,952.1149809121823 1629.9902591653736,922.618731167275 1655.2727589467227,901.5499813494841 Z" fill="url(#leaf22)" opacity="0.23" transform="rotate(319.9 1655.3 943.7)"/>
    <path d="M 238.68186763659526,48.76126222760672 C 284.7119100884218,87.11963093746216 300.055257572364,140.82134713125978 238.68186763659526,202.19473706702848 C 177.30847770082656,140.82134713125978 192.65182518476874,87.11963093746216 238.68186763659526,48.76126222760672 Z" fill="url(#leaf23)" opacity="0.15" transform="rotate(13.9 238.7 125.5)"/>
    <path d="M 1796.3994929356033,824.8903660489459 C 1817.5374225538976,842.5053073975245 1824.5833990933288,867.1662252855343 1796.3994929356033,895.3501314432599 C 1768.215586777878,867.1662252855343 1775.261563317309,842.5053073975245 1796.3994929356033,824.8903660489459 Z" fill="url(#leaf24)" opacity="0.21" transform="rotate(4.6 1796.4 860.1)"/>
    <path d="M 1028.217724695062,705.5080377023343 C 1049.3618633910787,723.1281532823481 1056.4099096230843,747.7963150943675 1028.217724695062,775.9885000223898 C 1000.0255397670398,747.7963150943675 1007.0735859990455,723.1281532823481 1028.217724695062,705.5080377023343 Z" fill="url(#leaf25)" opacity="0.17" transform="rotate(62.0 1028.2 740.7)"/>
    <path d="M 1720.0245881392054,927.0575171944612 C 1747.8329228985758,950.2311294939364 1757.1023678183658,982.6741867132017 1720.0245881392054,1019.7519663923621 C 1682.946808460045,982.6741867132017 1692.216253379835,950.2311294939364 1720.0245881392054,927.0575171944612 Z" fill="url(#leaf26)" opacity="0.22" transform="rotate(128.8 1720.0 973.4)"/>
    <path d="M 168.32755312964707,455.9214174283181 C 194.98070203148166,478.1323748465136 203.86508499875987,509.2277152319873 168.32755312964707,544.7652471011 C 132.79002126053427,509.2277152319873 141.6744042278125,478.1323748465136 168.32755312964707,455.9214174283181 Z" fill="url(#leaf27)" opacity="0.23" transform="rotate(347.2 168.3 500.3)"/>
    <path d="M 305.88011056057934,511.5747616835485 C 335.2282947758961,536.0315818629791 345.0110228476683,570.2711301141819 305.88011056057934,609.4020424012708 C 266.7491982734904,570.2711301141819 276.5319263452626,536.0315818629791 305.88011056057934,511.5747616835485 Z" fill="url(#leaf28)" opacity="0.19" transform="rotate(231.1 305.9 560.5)"/>
    <path d="M 1104.4688892407532,886.2292517258359 C 1125.6569736066672,903.8859886974308 1132.7196683953052,928.6054204576637 1104.4688892407532,956.8561996122157 C 1076.2181100862012,928.6054204576637 1083.2808048748393,903.8859886974308 1104.4688892407532,886.2292517258359 Z" fill="url(#leaf29)" opacity="0.19" transform="rotate(205.1 1104.5 921.5)"/>
    <path d="M 1436.9964200921722,205.38446730326655 C 1469.9705888172637,232.86294124084276 1480.9619783922942,271.33280475344947 1436.9964200921722,315.2983630535714 C 1393.0308617920502,271.33280475344947 1404.0222513670808,232.86294124084276 1436.9964200921722,205.38446730326655 Z" fill="url(#leaf0)" opacity="0.19" transform="rotate(45.9 1437.0 260.3)"/>
    <path d="M 1334.7366506147866,99.85212178119163 C 1368.552662500295,128.03213168578188 1379.824666462131,167.48414555220825 1334.7366506147866,212.57216139955267 C 1289.6486347674422,167.48414555220825 1300.9206387292784,128.03213168578188 1334.7366506147866,99.85212178119163 Z" fill="url(#leaf1)" opacity="0.24" transform="rotate(236.0 1334.7 156.2)"/>
    <path d="M 82.9799778332171,92.46752957667641 C 119.8477285425438,123.190655167782 132.13697877898605,166.2030309953298 82.9799778332171,215.36003194109875 C 33.82297688744816,166.2030309953298 46.112227123890406,123.190655167782 82.9799778332171,92.46752957667641 Z" fill="url(#leaf2)" opacity="0.19" transform="rotate(21.6 83.0 153.9)"/>
    <path d="M 1564.7648475262254,352.6745744277287 C 1600.616363849414,382.550838030386 1612.5668692904771,424.37760707410627 1564.7648475262254,472.1796288383579 C 1516.9628257619736,424.37760707410627 1528.9133312030367,382.550838030386 1564.7648475262254,352.6745744277287 Z" fill="url(#leaf3)" opacity="0.17" transform="rotate(227.6 1564.8 412.4)"/>
    <path d="M 1109.1061878541555,117.39045478450176 C 1127.8917630434164,133.04510077555247 1134.1536214398366,154.96160516302348 1109.1061878541555,180.00903874870465 C 1084.0587542684743,154.96160516302348 1090.3206126648945,133.04510077555247 1109.1061878541555,117.39045478450176 Z" fill="url(#leaf4)" opacity="0.19" transform="rotate(322.7 1109.1 148.7)"/>
    <path d="M 330.15914636715775,336.67667445916607 C 365.37059962530634,366.0195521742899 377.10775071135583,407.09958097546325 330.15914636715775,454.04818531966134 C 283.21054202295966,407.09958097546325 294.94769310900915,366.0195521742899 330.15914636715775,336.67667445916607 Z" fill="url(#leaf5)" opacity="0.24" transform="rotate(71.5 330.2 395.4)"/>
    <path d="M 317.51570328315296,115.81244353729117 C 344.34666193021417,138.17157574317554 353.29031481256794,169.47436083141363 317.51570328315296,205.2489723608286 C 281.741091753738,169.47436083141363 290.68474463609175,138.17157574317554 317.51570328315296,115.81244353729117 Z" fill="url(#leaf6)" opacity="0.17" transform="rotate(256.0 317.5 160.5)"/>
    <path d="M 1637.3421217840328,874.7765795428757 C 1683.2988774102294,913.0738758980395 1698.617795952295,966.690090795269 1637.3421217840328,1027.9657649635312 C 1576.0664476157706,966.690090795269 1591.3853661578362,913.0738758980395 1637.3421217840328,874.7765795428757 Z" fill="url(#leaf7)" opacity="0.22" transform="rotate(90.4 1637.3 951.4)"/>
    <path d="M 1850.1713240590864,526.3527003324881 C 1886.6602975753221,556.7601782626846 1898.8232887474007,599.3306473649598 1850.1713240590864,647.9826120532742 C 1801.519359370772,599.3306473649598 1813.6823505428506,556.7601782626846 1850.1713240590864,526.3527003324881 Z" fill="url(#leaf8)" opacity="0.16" transform="rotate(352.8 1850.2 587.2)"/>
    <path d="M 1515.1946356297997,395.15349238100026 C 1541.5380590610293,417.1063452403583 1550.3192002047724,447.8403392434595 1515.1946356297997,482.96490381843233 C 1480.070071054827,447.8403392434595 1488.85121219857,417.1063452403583 1515.1946356297997,395.15349238100026 Z" fill="url(#leaf9)" opacity="0.21" transform="rotate(95.3 1515.2 439.1)"/>
    <path d="M 682.9805855797265,522.6094482813785 C 708.0467365998961,543.4979074648531 716.402120273286,572.7417503217176 682.9805855797265,606.1632850152771 C 649.559050886167,572.7417503217176 657.9144345595569,543.4979074648531 682.9805855797265,522.6094482813785 Z" fill="url(#leaf10)" opacity="0.15" transform="rotate(180.2 683.0 564.4)"/>
    <path d="M 87.67999241524521,158.5778509806053 C 125.24916081168801,189.88549131097432 137.77221694383562,233.71618777349093 87.67999241524521,283.8084123020813 C 37.587767886654795,233.71618777349093 50.110824018802404,189.88549131097432 87.67999241524521,158.5778509806053 Z" fill="url(#leaf11)" opacity="0.20" transform="rotate(33.9 87.7 221.2)"/>
    <path d="M 1775.7966603587975,390.7717737351634 C 1817.0416789211931,425.1426225371598 1830.7900184419918,473.26181085995483 1775.7966603587975,528.2551689431491 C 1720.803302275603,473.26181085995483 1734.5516417964018,425.1426225371598 1775.7966603587975,390.7717737351634 Z" fill="url(#leaf12)" opacity="0.19" transform="rotate(119.5 1775.8 459.5)"/>
    <path d="M 691.6075475698378,697.8545623779751 C 715.3253139752179,717.6193677157919 723.2312361103446,745.2900951887353 691.6075475698378,776.9137837292421 C 659.983859029331,745.2900951887353 667.8897811644578,717.6193677157919 691.6075475698378,697.8545623779751 Z" fill="url(#leaf13)" opacity="0.24" transform="rotate(120.0 691.6 737.4)"/>
    <path d="M 439.5025469224908,948.1770521026015 C 461.5737574025372,966.56972750264 468.9308275625526,992.3194730626942 439.5025469224908,1021.747753702756 C 410.074266282429,992.3194730626942 417.43133644244443,966.56972750264 439.5025469224908,948.1770521026015 Z" fill="url(#leaf14)" opacity="0.19" transform="rotate(49.8 439.5 985.0)"/>
    <path d="M 1615.0872704759877,606.8180701177456 C 1653.3730371024221,638.7228756397743 1666.1349593112336,683.3896033706145 1615.0872704759877,734.4372922058604 C 1564.0395816407417,683.3896033706145 1576.8015038495532,638.7228756397743 1615.0872704759877,606.8180701177456 Z" fill="url(#leaf15)" opacity="0.23" transform="rotate(95.9 1615.1 670.6)"/>
    <path d="M 241.72066644063364,536.2964623303014 C 260.6248319907254,552.0499336220446 266.92622050742267,574.104793430485 241.72066644063364,599.310347497274 C 216.51511237384463,574.104793430485 222.81650089054187,552.0499336220446 241.72066644063364,536.2964623303014 Z" fill="url(#leaf16)" opacity="0.20" transform="rotate(193.2 241.7 567.8)"/>
    <path d="M 1642.6752768658669,663.0255685805595 C 1690.4403203200093,702.8297714590113 1706.36200147139,758.5556554888441 1642.6752768658669,822.2423800943671 C 1578.9885522603438,758.5556554888441 1594.9102334117244,702.8297714590113 1642.6752768658669,663.0255685805595 Z" fill="url(#leaf17)" opacity="0.17" transform="rotate(34.3 1642.7 742.6)"/>
    <path d="M 1410.469799609432,140.46580217719466 C 1456.4745748275006,178.80311485891866 1471.8094999001903,232.4753526133323 1410.469799609432,293.81505290409075 C 1349.1300993186735,232.4753526133323 1364.4650243913632,178.80311485891866 1410.469799609432,140.46580217719466 Z" fill="url(#leaf18)" opacity="0.22" transform="rotate(345.9 1410.5 217.1)"/>
    <path d="M 126.80503506765076,160.3392176273672 C 148.32839052606064,178.2753471760421 155.50284234553058,203.38592854418695 126.80503506765076,232.08373582206679 C 98.10722778977093,203.38592854418695 105.2816796092409,178.2753471760421 126.80503506765076,160.3392176273672 Z" fill="url(#leaf19)" opacity="0.17" transform="rotate(100.7 126.8 196.2)"/>
    <path d="M 1715.337077855094,977.7222753668241 C 1741.0282954826132,999.1316233897567 1749.5920346917862,1029.1047106218623 1715.337077855094,1063.3596674585544 C 1681.082121018402,1029.1047106218623 1689.645860227575,999.1316233897567 1715.337077855094,977.7222753668241 Z" fill="url(#leaf20)" opacity="0.21" transform="rotate(59.5 1715.3 1020.5)"/>
    <path d="M 347.79415777039065,437.98744570306957 C 384.2837561395254,468.3954443440152 396.4469555959036,510.96664244133905 347.79415777039065,559.6194402668519 C 299.1413599448777,510.96664244133905 311.3045594012559,468.3954443440152 347.79415777039065,437.98744570306957 Z" fill="url(#leaf21)" opacity="0.18" transform="rotate(28.9 347.8 498.8)"/>
    <path d="M 554.3211014028648,943.2600309684318 C 586.6696443684402,970.2171501064113 597.4524920236321,1007.9571168995827 554.3211014028648,1051.08850752035 C 511.1897107820975,1007.9571168995827 521.9725584372893,970.2171501064113 554.3211014028648,943.2600309684318 Z" fill="url(#leaf22)" opacity="0.18" transform="rotate(243.5 554.3 997.2)"/>
    <path d="M 1749.9276607569736,922.8969888534023 C 1779.4595075965851,947.506861219745 1789.3034565431221,981.960682532625 1749.9276607569736,1021.3364783187735 C 1710.5518649708251,981.960682532625 1720.3958139173621,947.506861219745 1749.9276607569736,922.8969888534023 Z" fill="url(#leaf23)" opacity="0.18" transform="rotate(358.3 1749.9 972.1)"/>
    <path d="M 922.8683109202636,910.8161569542007 C 962.9259362610761,944.1975114048778 976.2784780413471,990.9314076358257 922.8683109202636,1044.341574756909 C 869.4581437991802,990.9314076358257 882.8106855794512,944.1975114048778 922.8683109202636,910.8161569542007 Z" fill="url(#leaf24)" opacity="0.21" transform="rotate(279.7 922.9 977.6)"/>
    <path d="M 1157.2693156008422,778.3718253785469 C 1191.0408542885125,806.5147742849388 1202.2980338510695,845.9149027538875 1157.2693156008422,890.9436210041147 C 1112.240597350615,845.9149027538875 1123.497776913172,806.5147742849388 1157.2693156008422,778.3718253785469 Z" fill="url(#leaf25)" opacity="0.24" transform="rotate(23.4 1157.3 834.7)"/>
    <path d="M 1657.1451392463186,721.2535095843808 C 1687.2578003540023,746.347393840784 1697.2953540565636,781.4788317997483 1657.1451392463186,821.6290466099932 C 1616.9949244360737,781.4788317997483 1627.032478138635,746.347393840784 1657.1451392463186,721.2535095843808 Z" fill="url(#leaf26)" opacity="0.18" transform="rotate(325.9 1657.1 771.4)"/>
    <path d="M 1332.860437087713,476.1882380353412 C 1358.94462498459,497.92506128273874 1367.6393542835492,528.3566138290953 1332.860437087713,563.1355310249313 C 1298.081519891877,528.3566138290953 1306.776249190836,497.92506128273874 1332.860437087713,476.1882380353412 Z" fill="url(#leaf27)" opacity="0.16" transform="rotate(356.6 1332.9 519.7)"/>
    <path d="M 91.05529155572454,337.44488764713753 C 136.948249639709,375.6890193837912 152.2459023343705,429.23080381510647 91.05529155572454,490.4214145937524 C 29.86468077707859,429.23080381510647 45.162333471740084,375.6890193837912 91.05529155572454,337.44488764713753 Z" fill="url(#leaf28)" opacity="0.19" transform="rotate(168.4 91.1 413.9)"/>
    <path d="M 338.02066022395525,573.5525646325295 C 376.60307901513517,605.7045802918461 389.4638852788618,650.7174022148894 338.02066022395525,702.1606272697959 C 286.57743516904867,650.7174022148894 299.4382414327753,605.7045802918461 338.02066022395525,573.5525646325295 Z" fill="url(#leaf29)" opacity="0.24" transform="rotate(15.3 338.0 637.9)"/>
    <path d="M 1616.0736101891719,836.0035795755018 C 1635.652613406005,852.3194155895295 1642.1789478116161,875.1615860091683 1616.0736101891719,901.2669236316126 C 1589.9682725667276,875.1615860091683 1596.4946069723387,852.3194155895295 1616.0736101891719,836.0035795755018 Z" fill="url(#leaf0)" opacity="0.23" transform="rotate(98.4 1616.1 868.6)"/>
    <path d="M 192.61605036945613,546.0664911336988 C 239.88936282033063,585.4609181760942 255.64713363728882,640.6131160354479 192.61605036945613,703.6441993032805 C 129.58496710162345,640.6131160354479 145.34273791858163,585.4609181760942 192.61605036945613,546.0664911336988 Z" fill="url(#leaf1)" opacity="0.25" transform="rotate(348.1 192.6 624.9)"/>
    <path d="M 505.2911314293055,160.49739656646204 C 539.0346583366883,188.61700232261435 550.2825006391492,227.9844503812276 505.2911314293055,272.9758195910713 C 460.2997622194618,227.9844503812276 471.5476045219227,188.61700232261435 505.2911314293055,160.49739656646204 Z" fill="url(#leaf2)" opacity="0.20" transform="rotate(48.1 505.3 216.7)"/>
    <path d="M 74.91701514722956,806.6735233243874 C 122.47448184961002,846.3047455763711 138.32697075040352,901.7884567291483 74.91701514722956,965.1984123323223 C 11.507059544055615,901.7884567291483 27.359548444849104,846.3047455763711 74.91701514722956,806.6735233243874 Z" fill="url(#leaf3)" opacity="0.21" transform="rotate(254.4 74.9 885.9)"/>
    <path d="M 351.00417686630783,166.07392014366997 C 387.4802865049513,196.47067817587288 399.6389897178325,239.02613942095695 351.00417686630783,287.6609522724816 C 302.3693640147832,239.02613942095695 314.52806722766434,196.47067817587288 351.00417686630783,166.07392014366997 Z" fill="url(#leaf4)" opacity="0.19" transform="rotate(298.5 351.0 226.9)"/>
    <path d="M 1210.003014775171,527.3032940994024 C 1233.5775740945537,546.9487601988878 1241.4357605343478,574.4524127381675 1210.003014775171,605.8851584973443 C 1178.5702690159944,574.4524127381675 1186.4284554557885,546.9487601988878 1210.003014775171,527.3032940994024 Z" fill="url(#leaf5)" opacity="0.17" transform="rotate(347.2 1210.0 566.6)"/>
    <path d="M 229.23871434047823,278.19346658717876 C 267.60676710970245,310.1668438948656 280.39611803277717,354.9295721256272 229.23871434047823,406.0869758179262 C 178.08131064817925,354.9295721256272 190.870661571254,310.1668438948656 229.23871434047823,278.19346658717876 Z" fill="url(#leaf6)" opacity="0.15" transform="rotate(167.0 229.2 342.1)"/>
    <path d="M 1652.5865863698077,718.2011553937816 C 1685.268150376858,745.4357920663236 1696.162005045875,783.5642834078825 1652.5865863698077,827.1397020839497 C 1609.0111676937404,783.5642834078825 1619.9050223627573,745.4357920663236 1652.5865863698077,718.2011553937816 Z" fill="url(#leaf7)" opacity="0.18" transform="rotate(11.2 1652.6 772.7)"/>
    <path d="M 867.882162706308,708.0052011877764 C 904.4721221909638,738.4968340916563 916.6687753525158,781.185120157088 867.882162706308,829.9717328032958 C 819.0955500601002,781.185120157088 831.2922032216522,738.4968340916563 867.882162706308,708.0052011877764 Z" fill="url(#leaf8)" opacity="0.18" transform="rotate(159.8 867.9 769.0)"/>
    <path d="M 1485.3972276104096,830.3208174704403 C 1509.9046586027205,850.7436766306994 1518.0738022668243,879.3356794550622 1485.3972276104096,912.0122541114768 C 1452.7206529539949,879.3356794550622 1460.8897966180987,850.7436766306994 1485.3972276104096,830.3208174704403 Z" fill="url(#leaf9)" opacity="0.18" transform="rotate(159.5 1485.4 871.2)"/>
    <path d="M 219.2884291880031,56.01384379794521 C 247.48591123427897,79.5117455031751 256.8850719163709,112.40880789049696 219.2884291880031,150.00545061886478 C 181.69178645963527,112.40880789049696 191.09094714172724,79.5117455031751 219.2884291880031,56.01384379794521 Z" fill="url(#leaf10)" opacity="0.22" transform="rotate(326.7 219.3 103.0)"/>
    <path d="M 821.8612061912929,271.0634405524207 C 840.9849388181295,286.99988440811785 847.3595163604084,309.31090580609396 821.8612061912929,334.8092159752095 C 796.3628960221774,309.31090580609396 802.7374735644563,286.99988440811785 821.8612061912929,271.0634405524207 Z" fill="url(#leaf11)" opacity="0.20" transform="rotate(186.6 821.9 302.9)"/>
    <path d="M 73.84443710011773,173.733171164964 C 118.55001026554254,210.98781546948467 133.4518679873508,263.1443174958136 73.84443710011773,322.7517483830467 C 14.237006212884658,263.1443174958136 29.138863934692928,210.98781546948467 73.84443710011773,173.733171164964 Z" fill="url(#leaf12)" opacity="0.19" transform="rotate(227.2 73.8 248.2)"/>
    <path d="M 415.0284433327469,325.9267157521537 C 443.097710850159,349.3177720166638 452.454133355963,382.06525078697786 415.0284433327469,419.490940810194 C 377.60275330953084,382.06525078697786 386.95917581533485,349.3177720166638 415.0284433327469,325.9267157521537 Z" fill="url(#leaf13)" opacity="0.15" transform="rotate(291.5 415.0 372.7)"/>
    <path d="M 1706.3975468880294,745.2383073261094 C 1735.567317840251,769.5464497862939 1745.2905748243247,803.5778492305524 1706.3975468880294,842.4708771668477 C 1667.504518951734,803.5778492305524 1677.2277759358078,769.5464497862939 1706.3975468880294,745.2383073261094 Z" fill="url(#leaf14)" opacity="0.19" transform="rotate(159.7 1706.4 793.9)"/>
    <path d="M 1597.8507131737472,226.2206161717827 C 1635.194259060208,257.3402377438334 1647.6421076890283,300.90770794470444 1597.8507131737472,350.6991024599856 C 1548.059318658466,300.90770794470444 1560.5071672872864,257.3402377438334 1597.8507131737472,226.2206161717827 Z" fill="url(#leaf15)" opacity="0.22" transform="rotate(14.6 1597.9 288.5)"/>
    <path d="M 1029.007800820365,173.93229082416377 C 1068.146781716524,206.54810823762963 1081.1931086819104,252.21025261648185 1029.007800820365,304.3955604780272 C 976.8224929588196,252.21025261648185 989.8688199242059,206.54810823762963 1029.007800820365,173.93229082416377 Z" fill="url(#leaf16)" opacity="0.23" transform="rotate(73.9 1029.0 239.2)"/>
    <path d="M 433.68493781810173,610.0357796820862 C 479.319973690233,648.0649762421955 494.53165231427676,701.3058514263487 433.68493781810173,762.1525659225236 C 372.8382233219267,701.3058514263487 388.0499019459705,648.0649762421955 433.68493781810173,610.0357796820862 Z" fill="url(#leaf17)" opacity="0.16" transform="rotate(256.7 433.7 686.1)"/>
    <path d="M 797.2755884065111,874.3704142763509 C 825.015650090783,897.4871323465774 834.2623373188735,929.8505376448945 797.2755884065111,966.8372865572569 C 760.2888394941488,929.8505376448945 769.5355267222393,897.4871323465774 797.2755884065111,874.3704142763509 Z" fill="url(#leaf18)" opacity="0.25" transform="rotate(231.2 797.3 920.6)"/>
    <path d="M 733.0951878804347,341.6106347073312 C 778.528639513084,379.47184440120566 793.6731233906338,432.4775379726299 733.0951878804347,493.05547348282903 C 672.5172523702355,432.4775379726299 687.6617362477853,379.47184440120566 733.0951878804347,341.6106347073312 Z" fill="url(#leaf19)" opacity="0.19" transform="rotate(60.4 733.1 417.3)"/>
    <path d="M 1724.2232296927475,619.7547884407513 C 1746.6082145792407,638.4089425128291 1754.0698762080717,664.5247582137378 1724.2232296927475,694.3714047290621 C 1694.3765831774233,664.5247582137378 1701.8382448062544,638.4089425128291 1724.2232296927475,619.7547884407513 Z" fill="url(#leaf20)" opacity="0.22" transform="rotate(58.9 1724.2 657.1)"/>
    <path d="M 1852.700915713737,726.9779879401191 C 1888.8544773370584,757.1059559595534 1900.905664544832,799.2851111867616 1852.700915713737,847.4898600178566 C 1804.496166882642,799.2851111867616 1816.5473540904156,757.1059559595534 1852.700915713737,726.9779879401191 Z" fill="url(#leaf21)" opacity="0.23" transform="rotate(267.8 1852.7 787.2)"/>
    <path d="M 788.5581749546899,114.18000775053869 C 821.9523866360294,142.00851748498826 833.0837905298092,180.96843111321763 788.5581749546899,225.4940466883369 C 744.0325593795706,180.96843111321763 755.1639632733504,142.00851748498826 788.5581749546899,114.18000775053869 Z" fill="url(#leaf22)" opacity="0.21" transform="rotate(296.8 788.6 169.8)"/>
    <path d="M 584.9160934343147,245.23109114047722 C 628.8102518342259,281.8095564737366 643.4416379675298,333.0194079402998 584.9160934343147,391.54495247351485 C 526.3905489010996,333.0194079402998 541.0219350344034,281.8095564737366 584.9160934343147,245.23109114047722 Z" fill="url(#leaf23)" opacity="0.17" transform="rotate(68.5 584.9 318.4)"/>
    <path d="M 748.4642949372777,1.06936415016051 C 795.0997609226861,39.93225247133411 810.6449162511555,94.34029612097714 748.4642949372777,156.5209174348549 C 686.2836736234,94.34029612097714 701.8288289518694,39.93225247133411 748.4642949372777,1.06936415016051 Z" fill="url(#leaf24)" opacity="0.19" transform="rotate(41.6 748.5 78.8)"/>
    <path d="M 878.5338716466463,643.4806624404646 C 921.4078744051072,679.2089980725154 935.6992086579276,729.2286679573865 878.5338716466463,786.3940049686678 C 821.368534635365,729.2286679573865 835.6598688881853,679.2089980725154 878.5338716466463,643.4806624404646 Z" fill="url(#leaf25)" opacity="0.24" transform="rotate(172.2 878.5 714.9)"/>
    <path d="M 922.4369436663204,69.34283494166858 C 942.2047690885512,85.81602279352754 948.7940442292947,108.87848578613007 922.4369436663204,135.23558634910438 C 896.0798431033461,108.87848578613007 902.6691182440896,85.81602279352754 922.4369436663204,69.34283494166858 Z" fill="url(#leaf26)" opacity="0.17" transform="rotate(338.8 922.4 102.3)"/>
    <path d="M 731.0624328991631,353.4434343658602 C 770.1100751212971,385.98313621763845 783.1259558620084,431.5387188101281 731.0624328991631,483.60224177297334 C 678.9989099363179,431.5387188101281 692.0147906770292,385.98313621763845 731.0624328991631,353.4434343658602 Z" fill="url(#leaf27)" opacity="0.21" transform="rotate(336.7 731.1 418.5)"/>
    <path d="M 456.00352735336315,924.8970226022312 C 488.80253043678505,952.2295251717494 499.7355314645923,990.495028769075 456.00352735336315,1034.2270328803043 C 412.271523242134,990.495028769075 423.20452426994126,952.2295251717494 456.00352735336315,924.8970226022312 Z" fill="url(#leaf28)" opacity="0.19" transform="rotate(251.4 456.0 979.6)"/>
    <path d="M 1351.6931936857275,228.5848124155602 C 1378.107007328941,250.596323784905 1386.9116118766792,281.41243970198764 1351.6931936857275,316.6308578929393 C 1316.4747754947757,281.41243970198764 1325.2793800425138,250.596323784905 1351.6931936857275,228.5848124155602 Z" fill="url(#leaf29)" opacity="0.22" transform="rotate(141.7 1351.7 272.6)"/>
    <path d="M 1288.4238955937562,626.0956177607305 C 1328.8579767641043,659.7906854026871 1342.3360038208868,706.9637801014266 1288.4238955937562,760.8758883285572 C 1234.5117873666256,706.9637801014266 1247.9898144234082,659.7906854026871 1288.4238955937562,626.0956177607305 Z" fill="url(#leaf0)" opacity="0.19" transform="rotate(253.7 1288.4 693.5)"/>
    <path d="M 1467.108387543886,918.1224825387798 C 1495.2933539375924,941.6099545335352 1504.6883427354946,974.4924153261928 1467.108387543886,1012.0723705178015 C 1429.5284323522774,974.4924153261928 1438.9234211501796,941.6099545335352 1467.108387543886,918.1224825387798 Z" fill="url(#leaf1)" opacity="0.20" transform="rotate(54.9 1467.1 965.1)"/>
    <path d="M 305.7149486065041,247.20453098050444 C 328.35394526954616,266.07036153303955 335.9002774905602,292.48252430658863 305.7149486065041,322.66785319064473 C 275.529619722448,292.48252430658863 283.07595194346203,266.07036153303955 305.7149486065041,247.20453098050444 Z" fill="url(#leaf2)" opacity="0.18" transform="rotate(111.0 305.7 284.9)"/>
    <path d="M 224.89463670816727,134.98047190345167 C 243.1509239151762,150.1940445759591 249.2363529841792,171.49304631746958 224.89463670816727,195.83476259348149 C 200.55292043215533,171.49304631746958 206.63834950115833,150.1940445759591 224.89463670816727,134.98047190345167 Z" fill="url(#leaf3)" opacity="0.17" transform="rotate(150.2 224.9 165.4)"/>
    <path d="M 351.1042282422166,615.7327185982767 C 374.1474221825079,634.9353802151862 381.8284868292717,661.8191064788593 351.1042282422166,692.5433650659145 C 320.3799696551615,661.8191064788593 328.0610343019253,634.9353802151862 351.1042282422166,615.7327185982767 Z" fill="url(#leaf4)" opacity="0.17" transform="rotate(118.1 351.1 654.1)"/>
    <path d="M 665.923701179666,52.26246448075719 C 689.6615898624607,72.04403838308615 697.5742194233923,99.73824184634668 665.923701179666,131.38876009007302 C 634.2731829359396,99.73824184634668 642.1858124968712,72.04403838308615 665.923701179666,52.26246448075719 Z" fill="url(#leaf5)" opacity="0.23" transform="rotate(15.2 665.9 91.8)"/>
    <path d="M 931.4657231728773,577.4711746670392 C 955.6545306835039,597.628514259228 963.7174665203794,625.8487896882924 931.4657231728773,658.1005330357945 C 899.2139798253753,625.8487896882924 907.2769156622508,597.628514259228 931.4657231728773,577.4711746670392 Z" fill="url(#leaf6)" opacity="0.18" transform="rotate(117.2 931.5 617.8)"/>
    <path d="M 1485.740866711158,925.1795191423143 C 1516.4720364309592,950.7888272421485 1526.7157596708928,986.6418585819165 1485.740866711158,1027.6167515416512 C 1444.7659737514234,986.6418585819165 1455.009696991357,950.7888272421485 1485.740866711158,925.1795191423143 Z" fill="url(#leaf7)" opacity="0.19" transform="rotate(129.2 1485.7 976.4)"/>
    <path d="M 1629.6013454964332,222.59692619905726 C 1667.6100702671474,254.2708635079857 1680.2796451907186,298.6143757404855 1629.6013454964332,349.29267543477107 C 1578.9230458021477,298.6143757404855 1591.592620725719,254.2708635079857 1629.6013454964332,222.59692619905726 Z" fill="url(#leaf8)" opacity="0.22" transform="rotate(200.3 1629.6 285.9)"/>
    <path d="M 782.610833282992,379.5041379687795 C 806.0521288387392,399.03855093190225 813.8658940239884,426.3867290802741 782.610833282992,457.6417898212705 C 751.3557725419955,426.3867290802741 759.1695377272447,399.03855093190225 782.610833282992,379.5041379687795 Z" fill="url(#leaf9)" opacity="0.16" transform="rotate(168.0 782.6 418.6)"/>
    <path d="M 422.1021979651029,570.54910424851 C 444.5469411801781,589.2530569277394 452.02852225186984,615.4385906786605 422.1021979651029,645.3649149654275 C 392.17587367833596,615.4385906786605 399.6574547500277,589.2530569277394 422.1021979651029,570.54910424851 Z" fill="url(#leaf10)" opacity="0.20" transform="rotate(148.7 422.1 608.0)"/>
    <path d="M 1479.5665732194707,785.5190930056568 C 1505.2014868911176,806.8815210653627 1513.746458115,836.7889203489509 1479.5665732194707,870.9688052444802 C 1445.3866883239414,836.7889203489509 1453.9316595478238,806.8815210653627 1479.5665732194707,785.5190930056568 Z" fill="url(#leaf11)" opacity="0.16" transform="rotate(203.1 1479.6 828.2)"/>
    <path d="M 701.4406303499871,819.4731908801913 C 730.9170558942116,844.0368788337116 740.7425310756197,878.4260419686401 701.4406303499871,917.7279426942727 C 662.1387296243546,878.4260419686401 671.9642048057627,844.0368788337116 701.4406303499871,819.4731908801913 Z" fill="url(#leaf12)" opacity="0.16" transform="rotate(267.2 701.4 868.6)"/>
    <path d="M 881.4287407478035,144.99650751037834 C 924.0381432846764,180.50434295777234 938.241277463634,230.21531258412395 881.4287407478035,287.02784929995437 C 824.6162040319731,230.21531258412395 838.8193382109307,180.50434295777234 881.4287407478035,144.99650751037834 Z" fill="url(#leaf13)" opacity="0.20" transform="rotate(294.9 881.4 216.0)"/>
    <path d="M 441.18687431563814,608.0073756607229 C 473.1560305908006,634.6483392233583 483.81241601585475,671.9456882110479 441.18687431563814,714.5712299112646 C 398.5613326154215,671.9456882110479 409.2177180404757,634.6483392233583 441.18687431563814,608.0073756607229 Z" fill="url(#leaf14)" opacity="0.20" transform="rotate(93.0 441.2 661.3)"/>
    <path d="M 178.00675494128382,564.7460671170895 C 214.65053215730444,595.28254813044 226.86512456264464,638.0336215491308 178.00675494128382,686.8919911704916 C 129.148385319923,638.0336215491308 141.3629777252632,595.28254813044 178.00675494128382,564.7460671170895 Z" fill="url(#leaf15)" opacity="0.16" transform="rotate(22.6 178.0 625.8)"/>
    <path d="M 310.1146188752829,403.20930014739076 C 335.1822501501982,424.0989928764868 343.53812724183655,453.3445626972213 310.1146188752829,486.768071063775 C 276.6911105087292,453.3445626972213 285.0469876003676,424.0989928764868 310.1146188752829,403.20930014739076 Z" fill="url(#leaf16)" opacity="0.25" transform="rotate(281.1 310.1 445.0)"/>
    <path d="M 512.7790001496359,855.4909595503871 C 559.3833690735785,894.3279336536725 574.9181587148927,948.6996973982723 512.7790001496359,1010.8388559635291 C 450.63984158437904,948.6996973982723 466.17463122569325,894.3279336536725 512.7790001496359,855.4909595503871 Z" fill="url(#leaf17)" opacity="0.24" transform="rotate(155.2 512.8 933.2)"/>
    <path d="M 362.0461621193413,216.1589356896919 C 408.04689186613746,254.49287714535535 423.3804684484029,308.1603951832842 362.0461621193413,369.4947015123457 C 300.71185579027974,308.1603951832842 316.0454323725452,254.49287714535535 362.0461621193413,216.1589356896919 Z" fill="url(#leaf18)" opacity="0.17" transform="rotate(41.4 362.0 292.8)"/>
    <path d="M 897.6120434760771,572.5575302608419 C 929.7569901164028,599.3449857944465 940.4719723298447,636.8474235414931 897.6120434760771,679.7073523952605 C 854.7521146223096,636.8474235414931 865.4670968357515,599.3449857944465 897.6120434760771,572.5575302608419 Z" fill="url(#leaf19)" opacity="0.18" transform="rotate(67.2 897.6 626.1)"/>
    <path d="M 694.915212050319,114.71268028108672 C 732.6041828901058,146.12015598090898 745.1671731700346,190.09062196066014 694.915212050319,240.3425830803758 C 644.6632509306035,190.09062196066014 657.2262412105323,146.12015598090898 694.915212050319,114.71268028108672 Z" fill="url(#leaf20)" opacity="0.22" transform="rotate(213.3 694.9 177.5)"/>
    <path d="M 605.0790760503861,843.2281427396406 C 628.2709434360793,862.554698894385 636.001565897977,889.6118775110269 605.0790760503861,920.5343673586178 C 574.1565862027952,889.6118775110269 581.8872086646929,862.554698894385 605.0790760503861,843.2281427396406 Z" fill="url(#leaf21)" opacity="0.22" transform="rotate(157.2 605.1 881.9)"/>
    <path d="M 1796.954416262122,739.1897658665342 C 1833.646071884736,769.7661455520458 1845.8766237589407,812.573077111762 1796.954416262122,861.4952846085806 C 1748.0322087653035,812.573077111762 1760.262760639508,769.7661455520458 1796.954416262122,739.1897658665342 Z" fill="url(#leaf22)" opacity="0.22" transform="rotate(129.7 1797.0 800.3)"/>
    <path d="M 669.9369066773321,173.57603412430907 C 714.652160837199,210.83874592419812 729.5572455571546,263.0065424440428 669.9369066773321,322.6268813238653 C 610.3165677975096,263.0065424440428 625.2216525174653,210.83874592419812 669.9369066773321,173.57603412430907 Z" fill="url(#leaf23)" opacity="0.18" transform="rotate(249.5 669.9 248.1)"/>
    <path d="M 78.00406283977865,296.094493643584 C 99.51334949512771,314.0188991897082 106.6831117135774,339.1130669542821 78.00406283977865,367.7921158280808 C 49.32501396597991,339.1130669542821 56.4947761844296,314.0188991897082 78.00406283977865,296.094493643584 Z" fill="url(#leaf24)" opacity="0.24" transform="rotate(184.0 78.0 331.9)"/>
    <path d="M 582.8805065092466,48.811838163214844 C 624.7993446062663,83.74420324406464 638.7722906386063,132.64951435725433 582.8805065092466,188.541298486614 C 526.988722379887,132.64951435725433 540.9616684122269,83.74420324406464 582.8805065092466,48.811838163214844 Z" fill="url(#leaf25)" opacity="0.18" transform="rotate(167.9 582.9 118.7)"/>
    <path d="M 1437.8939360078577,380.5366044277081 C 1483.7607741127224,418.7589695150954 1499.0497201476774,472.27028063743757 1437.8939360078577,533.4260647772572 C 1376.7381518680381,472.27028063743757 1392.027097902993,418.7589695150954 1437.8939360078577,380.5366044277081 Z" fill="url(#leaf26)" opacity="0.17" transform="rotate(284.9 1437.9 457.0)"/>
    <path d="M 1057.0661455890781,252.1070172705266 C 1104.0879605416235,291.2918630643144 1119.7618988591385,346.1506471756172 1057.0661455890781,408.84640044567766 C 994.3703923190177,346.1506471756172 1010.0443306365328,291.2918630643144 1057.0661455890781,252.1070172705266 Z" fill="url(#leaf27)" opacity="0.20" transform="rotate(245.1 1057.1 330.5)"/>
    <path d="M 1494.6663945986033,350.64191885777973 C 1527.794410048033,378.2485983989709 1538.8370818645092,416.8979497566386 1494.6663945986033,461.0686370225445 C 1450.4957073326975,416.8979497566386 1461.5383791491738,378.2485983989709 1494.6663945986033,350.64191885777973 Z" fill="url(#leaf28)" opacity="0.15" transform="rotate(141.2 1494.7 405.9)"/>
    <path d="M 1369.897744865731,727.1381351081217 C 1402.267099893978,754.1125976316607 1413.0568849033934,791.8768451646154 1369.897744865731,835.0359852022779 C 1326.7386048280687,791.8768451646154 1337.5283898374842,754.1125976316607 1369.897744865731,727.1381351081217 Z" fill="url(#leaf29)" opacity="0.23" transform="rotate(210.2 1369.9 781.1)"/>
    <path d="M 619.4809784215929,496.22756146003854 C 666.5212474886625,535.4277856825966 682.2013371776858,590.3080995941779 619.4809784215929,653.0284583502707 C 556.7606196655,590.3080995941779 572.4407093545233,535.4277856825966 619.4809784215929,496.22756146003854 Z" fill="url(#leaf0)" opacity="0.23" transform="rotate(59.8 619.5 574.6)"/>
    <path d="M 395.66128939905946,828.8158419389464 C 442.4479078062542,867.8046906116087 458.0434472753191,922.3890787533359 395.66128939905946,984.7712366295956 C 333.2791315227998,922.3890787533359 348.8746709918647,867.8046906116087 395.66128939905946,828.8158419389464 Z" fill="url(#leaf1)" opacity="0.15" transform="rotate(281.4 395.7 906.8)"/>
    <path d="M 367.70479238955215,976.8345232163313 C 396.89761347800606,1001.1618741233762 406.628553840824,1035.220165393239 367.70479238955215,1074.1439268445108 C 328.7810309382803,1035.220165393239 338.51197130109824,1001.1618741233762 367.70479238955215,976.8345232163313 Z" fill="url(#leaf2)" opacity="0.23" transform="rotate(227.1 367.7 1025.5)"/>
    <path d="M 973.3087821994902,283.7381600574296 C 1014.3018431212263,317.8990441588762 1027.966196761805,365.7242819009016 973.3087821994902,420.38169646321626 C 918.6513676371756,365.7242819009016 932.3157212777542,317.8990441588762 973.3087821994902,283.7381600574296 Z" fill="url(#leaf3)" opacity="0.15" transform="rotate(236.3 973.3 352.1)"/>
    <path d="M 1640.6689272085837,608.4933277864419 C 1681.9950467993644,642.9317607787593 1695.7704199962914,691.1455669680035 1640.6689272085837,746.2470597557113 C 1585.567434420876,691.1455669680035 1599.342807617803,642.9317607787593 1640.6689272085837,608.4933277864419 Z" fill="url(#leaf4)" opacity="0.20" transform="rotate(7.3 1640.7 677.4)"/>
    <path d="M 1118.5886464381433,559.1191641881785 C 1162.7871984062992,595.9512908283084 1177.5200490623513,647.5162681244904 1118.5886464381433,706.4476707486983 C 1059.6572438139353,647.5162681244904 1074.3900944699874,595.9512908283084 1118.5886464381433,559.1191641881785 Z" fill="url(#leaf5)" opacity="0.21" transform="rotate(37.4 1118.6 632.8)"/>
    <path d="M 408.106749748279,366.8973061038781 C 449.7820632365109,401.626734010738 463.6738343992549,450.2479330803419 408.106749748279,505.81501773131777 C 352.53966509730316,450.2479330803419 366.4314362600471,401.626734010738 408.106749748279,366.8973061038781 Z" fill="url(#leaf6)" opacity="0.20" transform="rotate(139.3 408.1 436.4)"/>
    <path d="M 632.6295406160473,278.8569342950143 C 680.5419462460604,318.78393898669185 696.5127481227314,374.6817455550405 632.6295406160473,438.5649530617246 C 568.7463331093631,374.6817455550405 584.7171349860341,318.78393898669185 632.6295406160473,278.8569342950143 Z" fill="url(#leaf7)" opacity="0.20" transform="rotate(64.0 632.6 358.7)"/>
    <path d="M 266.6393789656237,288.8972578553973 C 310.8886783651631,325.7716740216802 325.6384448316763,377.39585665447623 266.6393789656237,436.39492252052884 C 207.64031309957107,377.39585665447623 222.39007956608424,325.7716740216802 266.6393789656237,288.8972578553973 Z" fill="url(#leaf8)" opacity="0.18" transform="rotate(278.4 266.6 362.6)"/>
    <path d="M 1479.6869657725272,508.93302435242447 C 1523.818676066335,545.7094495972643 1538.529246164271,597.1964449400401 1479.6869657725272,656.0387253317839 C 1420.8446853807834,597.1964449400401 1435.5552554787193,545.7094495972643 1479.6869657725272,508.93302435242447 Z" fill="url(#leaf9)" opacity="0.17" transform="rotate(117.6 1479.7 582.5)"/>
    <path d="M 1572.2682087553735,969.3650759206085 C 1594.732435858586,988.0852651732856 1602.2205115596569,1014.2935301270335 1572.2682087553735,1044.2458329313167 C 1542.3159059510901,1014.2935301270335 1549.803981652161,988.0852651732856 1572.2682087553735,969.3650759206085 Z" fill="url(#leaf10)" opacity="0.21" transform="rotate(168.5 1572.3 1006.8)"/>
    <path d="M 465.5967619725467,601.5365531532758 C 507.66708638241244,636.5951568281639 521.6905278523677,685.6772019730073 465.5967619725467,741.7709678528282 C 409.5029960927257,685.6772019730073 423.52643756268094,636.5951568281639 465.5967619725467,601.5365531532758 Z" fill="url(#leaf11)" opacity="0.25" transform="rotate(286.6 465.6 671.7)"/>
    <path d="M 1165.0820459760923,869.4611498367921 C 1187.098106164341,887.8078666603327 1194.4367928937575,913.4932702132896 1165.0820459760923,942.8480171309546 C 1135.7272990584272,913.4932702132896 1143.0659857878436,887.8078666603327 1165.0820459760923,869.4611498367921 Z" fill="url(#leaf12)" opacity="0.23" transform="rotate(141.7 1165.1 906.2)"/>
    <path d="M 1397.6207751820934,714.4413056722079 C 1424.2778365949193,736.6555235162296 1433.163523732528,767.7554284978597 1397.6207751820934,803.2981770482942 C 1362.078026631659,767.7554284978597 1370.9637137692675,736.6555235162296 1397.6207751820934,714.4413056722079 Z" fill="url(#leaf13)" opacity="0.24" transform="rotate(123.5 1397.6 758.9)"/>
    <path d="M 568.041410363506,633.3871362320485 C 588.9075229023898,650.775563347785 595.8628937486844,675.1193613098162 568.041410363506,702.9408446949947 C 540.2199269783275,675.1193613098162 547.1752978246221,650.775563347785 568.041410363506,633.3871362320485 Z" fill="url(#leaf14)" opacity="0.22" transform="rotate(325.9 568.0 668.2)"/>
    <path d="M 619.3626233598236,572.2060351286725 C 645.315835734514,593.8337121075813 653.9669065260775,624.1124598780534 619.3626233598236,658.7167430443073 C 584.7583401935697,624.1124598780534 593.4094109851331,593.8337121075813 619.3626233598236,572.2060351286725 Z" fill="url(#leaf15)" opacity="0.23" transform="rotate(23.0 619.4 615.5)"/>
    <path d="M 1364.084297675544,-15.54552601100518 C 1408.9121929136904,21.8110533541169 1423.8548246597393,74.11026446528781 1364.084297675544,133.88079144948313 C 1304.3137706913485,74.11026446528781 1319.2564024373974,21.8110533541169 1364.084297675544,-15.54552601100518 Z" fill="url(#leaf16)" opacity="0.22" transform="rotate(16.4 1364.1 59.2)"/>
    <path d="M 1203.819418604305,42.258463804056746 C 1249.876607495609,80.63945454681021 1265.2290037927105,134.37284158666506 1203.819418604305,195.78242677507063 C 1142.4098334158994,134.37284158666506 1157.7622297130008,80.63945454681021 1203.819418604305,42.258463804056746 Z" fill="url(#leaf17)" opacity="0.25" transform="rotate(291.4 1203.8 119.0)"/>
    <path d="M 669.3529868627643,438.94716550288763 C 700.2673944055167,464.70917178851465 710.5721969197675,500.77598058839243 669.3529868627643,541.9951906453956 C 628.133776805761,500.77598058839243 638.4385793200119,464.70917178851465 669.3529868627643,438.94716550288763 Z" fill="url(#leaf18)" opacity="0.21" transform="rotate(292.7 669.4 490.5)"/>
    <path d="M 1600.5243819199368,932.7297014577144 C 1641.082202060002,966.5278849077687 1654.6014754400235,1013.8453417378446 1600.5243819199368,1067.9224352579313 C 1546.44728839985,1013.8453417378446 1559.9665617798717,966.5278849077687 1600.5243819199368,932.7297014577144 Z" fill="url(#leaf19)" opacity="0.16" transform="rotate(292.3 1600.5 1000.3)"/>
    <path d="M 1073.6520989269284,487.31161043631414 C 1109.2943851166608,517.0135155944246 1121.175147179905,558.5961828157792 1073.6520989269284,606.1192310687559 C 1026.1290506739517,558.5961828157792 1038.009812737196,517.0135155944246 1073.6520989269284,487.31161043631414 Z" fill="url(#leaf20)" opacity="0.21" transform="rotate(184.1 1073.7 546.7)"/>
    <path d="M 329.42261453590135,412.057581966587 C 371.17596885762845,446.8520439013596 385.0937536315375,495.5642906100412 329.42261453590135,551.2354297056773 C 273.7514754402652,495.5642906100412 287.66926021417424,446.8520439013596 329.42261453590135,412.057581966587 Z" fill="url(#leaf21)" opacity="0.20" transform="rotate(64.9 329.4 481.6)"/>
    <path d="M 1249.0451668768358,172.74453472764708 C 1271.421791892123,191.3917222403865 1278.8806668972188,217.4977847582217 1249.0451668768358,247.33328477860482 C 1219.2096668564527,217.4977847582217 1226.6685418615484,191.3917222403865 1249.0451668768358,172.74453472764708 Z" fill="url(#leaf22)" opacity="0.17" transform="rotate(296.1 1249.0 210.0)"/>
    <path d="M 1864.4962887736199,227.7678144130797 C 1901.328347064987,258.46119632255215 1913.6056998287759,301.4319309958136 1864.4962887736199,350.54134205096955 C 1815.386877718464,301.4319309958136 1827.6642304822528,258.46119632255215 1864.4962887736199,227.7678144130797 Z" fill="url(#leaf23)" opacity="0.25" transform="rotate(289.0 1864.5 289.2)"/>
    <path d="M 161.48384204005347,429.84917136626007 C 200.75467011299938,462.5748614270483 213.84494613731468,508.3908275121519 161.48384204005347,560.7519316094131 C 109.12273794279227,508.3908275121519 122.21301396710757,462.5748614270483 161.48384204005347,429.84917136626007 Z" fill="url(#leaf24)" opacity="0.19" transform="rotate(90.9 161.5 495.3)"/>
    <path d="M 570.9825305962479,494.4655559803696 C 617.7959438774224,533.4767337146816 633.4004149711471,588.0923825427184 570.9825305962479,650.5102669176176 C 508.56464622134865,588.0923825427184 524.1691173150734,533.4767337146816 570.9825305962479,494.4655559803696 Z" fill="url(#leaf25)" opacity="0.19" transform="rotate(99.2 571.0 572.5)"/>
    <path d="M 1411.532889695303,63.26009740262958 C 1445.896650484967,91.89656472734958 1457.3512374148552,131.98761898195758 1411.532889695303,177.8059667015096 C 1365.714541975751,131.98761898195758 1377.1691289056391,91.89656472734958 1411.532889695303,63.26009740262958 Z" fill="url(#leaf26)" opacity="0.15" transform="rotate(267.5 1411.5 120.5)"/>
    <path d="M 1588.2794777184286,456.0631428362525 C 1616.5006723238182,479.58080500741056 1625.9077371922815,512.5055320470318 1588.2794777184286,550.1337915208846 C 1550.6512182445756,512.5055320470318 1560.058283113039,479.58080500741056 1588.2794777184286,456.0631428362525 Z" fill="url(#leaf27)" opacity="0.20" transform="rotate(214.1 1588.3 503.1)"/>
    <path d="M 151.3510107463684,720.3558632850555 C 195.00202603033915,756.7317093550312 209.55236445832944,807.6578938529971 151.3510107463684,865.8592475649581 C 93.14965703440734,807.6578938529971 107.69999546239761,756.7317093550312 151.3510107463684,720.3558632850555 Z" fill="url(#leaf28)" opacity="0.22" transform="rotate(35.0 151.4 793.1)"/>
    <path d="M 1692.2048945850377,525.0545853327097 C 1712.0845747821172,541.6209854969428 1718.7111348478104,564.813945726869 1692.2048945850377,591.3201859896418 C 1665.698654322265,564.813945726869 1672.325214387958,541.6209854969428 1692.2048945850377,525.0545853327097 Z" fill="url(#leaf29)" opacity="0.17" transform="rotate(201.7 1692.2 558.2)"/>
    <path d="M 1071.7389875035146,176.04584936651102 C 1113.0146282696066,210.44221667158763 1126.7731751916372,258.5971308986949 1071.7389875035146,313.63131858681754 C 1016.704799815392,258.5971308986949 1030.4633467374226,210.44221667158763 1071.7389875035146,176.04584936651102 Z" fill="url(#leaf0)" opacity="0.18" transform="rotate(214.8 1071.7 244.8)"/>
    <path d="M 1524.400150589277,849.8007595618151 C 1552.7807942059183,873.4512959090162 1562.2410087447986,906.5620467950977 1524.400150589277,944.4029049506194 C 1486.5592924337554,906.5620467950977 1496.0195069726358,873.4512959090162 1524.400150589277,849.8007595618151 Z" fill="url(#leaf1)" opacity="0.23" transform="rotate(19.3 1524.4 897.1)"/>
    <path d="M 825.7661580155749,459.20314247808176 C 859.0404605688715,486.9317279391623 870.1318947533038,525.751747584675 825.7661580155749,570.1174843224038 C 781.400421277846,525.751747584675 792.4918554622783,486.9317279391623 825.7661580155749,459.20314247808176 Z" fill="url(#leaf2)" opacity="0.20" transform="rotate(134.6 825.8 514.7)"/>
    <path d="M 1199.6545715048394,36.84811963356873 C 1229.123587832538,61.40563323998437 1238.9465932751045,95.78615228896626 1199.6545715048394,135.0781740592313 C 1160.3625497345743,95.78615228896626 1170.1855551771407,61.40563323998437 1199.6545715048394,36.84811963356873 Z" fill="url(#leaf3)" opacity="0.16" transform="rotate(352.5 1199.7 86.0)"/>
    <path d="M 1295.2704710758615,894.8051595109871 C 1339.9108196121947,932.0054499579314 1354.7909357909723,984.0858565836535 1295.2704710758615,1043.6063212987644 C 1235.7500063607506,984.0858565836535 1250.6301225395282,932.0054499579314 1295.2704710758615,894.8051595109871 Z" fill="url(#leaf4)" opacity="0.15" transform="rotate(315.5 1295.3 969.2)"/>
    <path d="M 1379.8070877263506,212.52250833936057 C 1398.7425368048227,228.30204923808733 1405.0543531643134,250.3934064963048 1379.8070877263506,275.64067193426763 C 1354.5598222883877,250.3934064963048 1360.8716386478784,228.30204923808733 1379.8070877263506,212.52250833936057 Z" fill="url(#leaf5)" opacity="0.16" transform="rotate(278.2 1379.8 244.1)"/>
    <path d="M 437.45076973601056,944.7840175346834 C 483.1680374483518,982.881740628301 498.4071266857989,1036.218552959366 437.45076973601056,1097.1749099091544 C 376.4944127862222,1036.218552959366 391.7335020236693,982.881740628301 437.45076973601056,944.7840175346834 Z" fill="url(#leaf6)" opacity="0.22" transform="rotate(112.0 437.5 1021.0)"/>
    <path d="M 1793.0370096322367,212.56903152658072 C 1824.4753586425406,238.76765570183392 1834.954808312642,275.4457295471884 1793.0370096322367,317.3635282275935 C 1751.1192109518315,275.4457295471884 1761.5986606219328,238.76765570183392 1793.0370096322367,212.56903152658072 Z" fill="url(#leaf7)" opacity="0.23" transform="rotate(245.0 1793.0 265.0)"/>
    <path d="M 1711.7659700961804,799.8317700688399 C 1757.3169829673034,837.7909474614423 1772.5006539243443,890.9337958110859 1711.7659700961804,951.6684796392499 C 1651.0312862680164,890.9337958110859 1666.2149572250573,837.7909474614423 1711.7659700961804,799.8317700688399 Z" fill="url(#leaf8)" opacity="0.18" transform="rotate(229.7 1711.8 875.8)"/>
    <path d="M 1067.5226684762167,600.1229119248818 C 1111.5916794772293,636.847087759059 1126.2813498109003,688.2609339269071 1067.5226684762167,747.0196152615907 C 1008.7639871415332,688.2609339269071 1023.4536574752041,636.847087759059 1067.5226684762167,600.1229119248818 Z" fill="url(#leaf9)" opacity="0.23" transform="rotate(132.8 1067.5 673.6)"/>
    <path d="M 319.9418526564418,599.1480683383256 C 338.54240206166935,614.6485261760153 344.7425851967452,636.3491671487807 319.9418526564418,661.1498996890841 C 295.14112011613844,636.3491671487807 301.3413032512143,614.6485261760153 319.9418526564418,599.1480683383256 Z" fill="url(#leaf10)" opacity="0.21" transform="rotate(270.0 319.9 630.1)"/>
    <path d="M 665.0997010636979,547.923573580008 C 693.7430460324167,571.7930277206069 703.2908276886563,605.2102635174456 665.0997010636979,643.4013901424039 C 626.9085744387395,605.2102635174456 636.4563560949791,571.7930277206069 665.0997010636979,547.923573580008 Z" fill="url(#leaf11)" opacity="0.16" transform="rotate(219.5 665.1 595.7)"/>
    <path d="M 1101.2308737629442,455.5386465662879 C 1133.107407802568,482.10242493264127 1143.7329191491094,519.291714645536 1101.2308737629442,561.7937600317013 C 1058.728828376779,519.291714645536 1069.3543397233202,482.10242493264127 1101.2308737629442,455.5386465662879 Z" fill="url(#leaf12)" opacity="0.20" transform="rotate(202.4 1101.2 508.7)"/>
    <path d="M 1865.5755110946868,692.5209197812031 C 1901.2007869173071,722.2086496333868 1913.0758788581807,763.771471426444 1865.5755110946868,811.2718391899379 C 1818.075143331193,763.771471426444 1829.9502352720665,722.2086496333868 1865.5755110946868,692.5209197812031 Z" fill="url(#leaf13)" opacity="0.21" transform="rotate(150.1 1865.6 751.9)"/>
    <path d="M 321.2433402549578,41.23591748406356 C 351.16515254185913,66.17076105648135 361.13908997082626,101.07954205786625 321.2433402549578,140.97529177373468 C 281.3475905390893,101.07954205786625 291.32152796805644,66.17076105648135 321.2433402549578,41.23591748406356 Z" fill="url(#leaf14)" opacity="0.23" transform="rotate(233.3 321.2 91.1)"/>
    <path d="M 1397.4631287769505,254.18909623316551 C 1422.5749163719372,275.11558589565436 1430.9455122369327,304.41267142313876 1397.4631287769505,337.8950548831209 C 1363.9807453169683,304.41267142313876 1372.3513411819638,275.11558589565436 1397.4631287769505,254.18909623316551 Z" fill="url(#leaf15)" opacity="0.17" transform="rotate(176.3 1397.5 296.0)"/>
    <path d="M 581.2306023010738,830.8678550942097 C 618.6344569238261,862.0377339465034 631.1024084647435,905.6755643397144 581.2306023010738,955.5473705033842 C 531.358796137404,905.6755643397144 543.8267476783215,862.0377339465034 581.2306023010738,830.8678550942097 Z" fill="url(#leaf16)" opacity="0.24" transform="rotate(288.2 581.2 893.2)"/>
    <path d="M 1316.2836108775027,874.7053933827192 C 1345.2182206387324,898.817568183744 1354.8630905591424,932.5746129051788 1316.2836108775027,971.1540925868185 C 1277.704131195863,932.5746129051788 1287.349001116273,898.817568183744 1316.2836108775027,874.7053933827192 Z" fill="url(#leaf17)" opacity="0.23" transform="rotate(100.7 1316.3 922.9)"/>
    <path d="M 338.0900049776031,598.6573172402553 C 364.1255523801673,620.3536067423922 372.804068181022,650.7284120453837 338.0900049776031,685.4424752488027 C 303.3759417741842,650.7284120453837 312.0544575750389,620.3536067423922 338.0900049776031,598.6573172402553 Z" fill="url(#leaf18)" opacity="0.18" transform="rotate(168.3 338.1 642.0)"/>
    <path d="M 1550.4651414561288,468.80545459394193 C 1578.8564523094592,492.4648803050506 1588.3202225939026,525.5880763006028 1550.4651414561288,563.4431574383766 C 1512.610060318355,525.5880763006028 1522.0738306027984,492.4648803050506 1550.4651414561288,468.80545459394193 Z" fill="url(#leaf19)" opacity="0.23" transform="rotate(124.9 1550.5 516.1)"/>
    <path d="M 950.1424566895897,35.765575541040164 C 983.0211702184722,63.16450348177559 993.9807413947664,101.52300259880519 950.1424566895897,145.36128730398187 C 906.3041719844131,101.52300259880519 917.2637431607072,63.16450348177559 950.1424566895897,35.765575541040164 Z" fill="url(#leaf20)" opacity="0.22" transform="rotate(63.3 950.1 90.6)"/>
    <path d="M 609.1952545572457,66.79547936502843 C 652.9342317814547,103.24462705186932 667.5138908561911,154.27343381344656 609.1952545572457,212.59207011239198 C 550.8766182583003,154.27343381344656 565.4562773330366,103.24462705186932 609.1952545572457,66.79547936502843 Z" fill="url(#leaf21)" opacity="0.21" transform="rotate(354.1 609.2 139.7)"/>
    <path d="M 1564.0777543708348,-3.507623673606261 C 1608.5532809976944,33.55531518211013 1623.378456539981,85.44342958011308 1564.0777543708348,144.74413174925928 C 1504.7770522016885,85.44342958011308 1519.6022277439752,33.55531518211013 1564.0777543708348,-3.507623673606261 Z" fill="url(#leaf22)" opacity="0.17" transform="rotate(107.8 1564.1 70.6)"/>
    <path d="M 761.9981960119412,772.4893731098124 C 789.2144658096871,795.1695979412673 798.2865557422691,826.9219127053043 761.9981960119412,863.2102724356322 C 725.7098362816133,826.9219127053043 734.7819262141953,795.1695979412673 761.9981960119412,772.4893731098124 Z" fill="url(#leaf23)" opacity="0.20" transform="rotate(19.6 762.0 817.8)"/>
    <path d="M 1688.2838953045853,303.048193566891 C 1719.535515851734,329.0912106895151 1729.9527227007839,365.55143466118886 1688.2838953045853,407.22026205738746 C 1646.6150679083867,365.55143466118886 1657.0322747574364,329.0912106895151 1688.2838953045853,303.048193566891 Z" fill="url(#leaf24)" opacity="0.18" transform="rotate(19.9 1688.3 355.1)"/>
    <path d="M 388.71960638971126,590.488119440876 C 418.5574960654453,615.3530275039877 428.50345929069,650.1638987923441 388.71960638971126,689.9477516933229 C 348.93575348873253,650.1638987923441 358.8817167139772,615.3530275039877 388.71960638971126,590.488119440876 Z" fill="url(#leaf25)" opacity="0.24" transform="rotate(307.1 388.7 640.2)"/>
    <path d="M 854.8315645698693,679.8432595115896 C 893.1174818630523,711.7481905892421 905.8794542941132,756.4150940979554 854.8315645698693,807.4629838221992 C 803.7836748456255,756.4150940979554 816.5456472766864,711.7481905892421 854.8315645698693,679.8432595115896 Z" fill="url(#leaf26)" opacity="0.18" transform="rotate(222.0 854.8 743.7)"/>
    <path d="M 1494.6468783484993,911.4352286881284 C 1528.1637830849309,939.3659826351549 1539.3360846637415,978.4690381609918 1494.6468783484993,1023.158244476234 C 1449.957672033257,978.4690381609918 1461.1299736120677,939.3659826351549 1494.6468783484993,911.4352286881284 Z" fill="url(#leaf27)" opacity="0.24" transform="rotate(111.3 1494.6 967.3)"/>
    <path d="M 344.5961453296786,571.28472843884 C 383.59818068631705,603.786424569372 396.59885913852986,649.2887991521169 344.5961453296786,701.2915129609681 C 292.5934315208274,649.2887991521169 305.5941099730402,603.786424569372 344.5961453296786,571.28472843884 Z" fill="url(#leaf28)" opacity="0.16" transform="rotate(291.2 344.6 636.3)"/>
    <path d="M 309.69959429955225,864.5898020730197 C 356.2115576892365,903.3497715644232 371.71554548579786,957.6137288523881 309.69959429955225,1019.6296800386338 C 247.68364311330663,957.6137288523881 263.187630909868,903.3497715644232 309.69959429955225,864.5898020730197 Z" fill="url(#leaf29)" opacity="0.20" transform="rotate(307.5 309.7 942.1)"/>
    <path d="M 834.6932188732701,238.9686628608608 C 864.1513050351456,263.5170679957571 873.9706670891042,297.88483518461186 834.6932188732701,337.16228340044586 C 795.415770657436,297.88483518461186 805.2351327113946,263.5170679957571 834.6932188732701,238.9686628608608 Z" fill="url(#leaf0)" opacity="0.24" transform="rotate(15.4 834.7 288.1)"/>
    <path d="M 950.9645797280723,582.617675112472 C 981.8695581095674,608.371823763718 992.1712175700657,644.4276318754622 950.9645797280723,685.6342697174556 C 909.7579418860789,644.4276318754622 920.0596013465772,608.371823763718 950.9645797280723,582.617675112472 Z" fill="url(#leaf1)" opacity="0.21" transform="rotate(94.5 951.0 634.1)"/>
    <path d="M 1329.404017969567,681.5736952273878 C 1348.5392303492815,697.5197055438166 1354.917634475853,719.8441199868171 1329.404017969567,745.3577364931032 C 1303.8904014632808,719.8441199868171 1310.2688055898523,697.5197055438166 1329.404017969567,681.5736952273878 Z" fill="url(#leaf2)" opacity="0.17" transform="rotate(124.6 1329.4 713.5)"/>
    <path d="M 1647.5144772093156,175.8111719338256 C 1694.3223861270362,214.81776269859284 1709.9250224329433,269.42698976926704 1647.5144772093156,331.8375349928947 C 1585.103931985688,269.42698976926704 1600.706568291595,214.81776269859284 1647.5144772093156,175.8111719338256 Z" fill="url(#leaf3)" opacity="0.22" transform="rotate(306.6 1647.5 253.8)"/>
    <path d="M 1792.7811597172165,677.8706591894493 C 1840.681548253719,717.7876496365348 1856.6483444325534,773.6714362624544 1792.7811597172165,837.5386209777912 C 1728.9139750018796,773.6714362624544 1744.880771180714,717.7876496365348 1792.7811597172165,677.8706591894493 Z" fill="url(#leaf4)" opacity="0.20" transform="rotate(53.1 1792.8 757.7)"/>
    <path d="M 498.0461766329396,667.1031375309901 C 542.874198058772,704.4598220525171 557.8168718673827,756.7591803826549 498.0461766329396,816.529875617098 C 438.2754813984965,756.7591803826549 453.21815520710726,704.4598220525171 498.0461766329396,667.1031375309901 Z" fill="url(#leaf5)" opacity="0.20" transform="rotate(105.8 498.0 741.8)"/>
    <path d="M 1243.4088291939706,844.9117827647398 C 1279.4614890667685,874.9556659920713 1291.479042357701,917.0171025103355 1243.4088291939706,965.087315674066 C 1195.3386160302402,917.0171025103355 1207.3561693211727,874.9556659920713 1243.4088291939706,844.9117827647398 Z" fill="url(#leaf6)" opacity="0.25" transform="rotate(40.2 1243.4 905.0)"/>
    <path d="M 555.9449223495485,465.55270274476 C 590.2093851870454,494.1064217760075 601.6308727995445,534.0816284197539 555.9449223495485,579.7675788697499 C 510.25897189955253,534.0816284197539 521.6804595120516,494.1064217760075 555.9449223495485,465.55270274476 Z" fill="url(#leaf7)" opacity="0.21" transform="rotate(171.8 555.9 522.7)"/>
    <path d="M 1079.3951194136532,573.1783748437244 C 1102.955978789659,592.8124243237293 1110.8095985816608,620.3000935957359 1079.3951194136532,651.7145727637435 C 1047.9806402456456,620.3000935957359 1055.8342600376475,592.8124243237293 1079.3951194136532,573.1783748437244 Z" fill="url(#leaf8)" opacity="0.16" transform="rotate(261.8 1079.4 612.4)"/>
    <path d="M 1035.771280734305,69.251918602603 C 1074.7383033551516,101.72443745330855 1087.727310895434,147.18596384429634 1035.771280734305,199.14199400542526 C 983.8152505731762,147.18596384429634 996.8042581134583,101.72443745330855 1035.771280734305,69.251918602603 Z" fill="url(#leaf9)" opacity="0.16" transform="rotate(151.5 1035.8 134.2)"/>
    <path d="M 662.7945415812458,956.4345495982645 C 695.7598449771932,983.9056357615541 706.7482794425091,1022.3651563901594 662.7945415812458,1066.3188942514228 C 618.8408037199824,1022.3651563901594 629.8292381852983,983.9056357615541 662.7945415812458,956.4345495982645 Z" fill="url(#leaf10)" opacity="0.18" transform="rotate(93.9 662.8 1011.4)"/>
    <path d="M 324.44566897135945,172.55783708248342 C 351.0766336390352,194.7503076388799 359.95362186159383,225.81976641783496 324.44566897135945,261.3277193080693 C 288.9377160811251,225.81976641783496 297.8147043036837,194.7503076388799 324.44566897135945,172.55783708248342 Z" fill="url(#leaf11)" opacity="0.25" transform="rotate(249.7 324.4 216.9)"/>
    <path d="M 1641.79029412121,912.2228236378818 C 1678.7806361651185,943.0481086744722 1691.1107501797546,986.2035077256987 1641.79029412121,1035.5239637842433 C 1592.4698380626655,986.2035077256987 1604.7999520773017,943.0481086744722 1641.79029412121,912.2228236378818 Z" fill="url(#leaf12)" opacity="0.24" transform="rotate(352.2 1641.8 973.9)"/>
    <path d="M 1683.1076186359526,-3.7755139890876563 C 1730.821890274526,35.98637904305678 1746.7266474873836,91.65302928805899 1683.1076186359526,155.27205813949007 C 1619.4885897845215,91.65302928805899 1635.3933469973792,35.98637904305678 1683.1076186359526,-3.7755139890876563 Z" fill="url(#leaf13)" opacity="0.19" transform="rotate(282.3 1683.1 75.7)"/>
    <path d="M 1168.7096247964505,213.97922677490183 C 1191.4440742059999,232.9246012828597 1199.022224009183,259.4481255940007 1168.7096247964505,289.76072480673326 C 1138.397025583718,259.4481255940007 1145.9751753869011,232.9246012828597 1168.7096247964505,213.97922677490183 Z" fill="url(#leaf14)" opacity="0.23" transform="rotate(226.4 1168.7 251.9)"/>
    <path d="M 1370.7999803499272,744.1703236946138 C 1407.5235085460583,774.7732638580563 1419.7646846114353,817.6173800868761 1370.7999803499272,866.5820843483842 C 1321.835276088419,817.6173800868761 1334.076452153796,774.7732638580563 1370.7999803499272,744.1703236946138 Z" fill="url(#leaf15)" opacity="0.18" transform="rotate(101.2 1370.8 805.4)"/>
    <path d="M 1061.393846426084,408.9583213706328 C 1093.2325026605488,435.4905348993534 1103.8453880720372,472.6356338395623 1061.393846426084,515.0871754855152 C 1018.9423047801312,472.6356338395623 1029.5551901916194,435.4905348993534 1061.393846426084,408.9583213706328 Z" fill="url(#leaf16)" opacity="0.19" transform="rotate(103.8 1061.4 462.0)"/>
    <path d="M 598.5652177103602,268.25627052393065 C 620.5703551109849,286.59388502445125 627.9054009111932,312.2665453251801 598.5652177103602,341.60672852601306 C 569.2250345095273,312.2665453251801 576.5600803097356,286.59388502445125 598.5652177103602,268.25627052393065 Z" fill="url(#leaf17)" opacity="0.23" transform="rotate(20.0 598.6 304.9)"/>
    <path d="M 464.90918901395054,274.73405860160796 C 491.3973003046129,296.8074846771599 500.2266707348337,327.71028118293265 464.90918901395054,363.0277629038158 C 429.5917072930674,327.71028118293265 438.4210777232882,296.8074846771599 464.90918901395054,274.73405860160796 Z" fill="url(#leaf18)" opacity="0.19" transform="rotate(8.3 464.9 318.9)"/>
    <path d="M 786.6354822098639,696.7984241795148 C 808.3235597824785,714.8718221566936 815.55291897335,740.174579324744 786.6354822098639,769.0920160882301 C 757.7180454463778,740.174579324744 764.9474046372493,714.8718221566936 786.6354822098639,696.7984241795148 Z" fill="url(#leaf19)" opacity="0.21" transform="rotate(242.6 786.6 732.9)"/>
    <path d="M 1670.2112047863866,135.88159748129584 C 1717.4763668775095,175.26923255723162 1733.2314209078838,230.41192166354168 1670.2112047863866,293.4321377850389 C 1607.1909886648893,230.41192166354168 1622.9460426952637,175.26923255723162 1670.2112047863866,135.88159748129584 Z" fill="url(#leaf20)" opacity="0.16" transform="rotate(273.8 1670.2 214.7)"/>
    <path d="M 1329.3278745841287,194.50364162406737 C 1351.6176574847761,213.07846070794017 1359.0475851183253,239.08320742536208 1329.3278745841287,268.80291795955856 C 1299.6081640499322,239.08320742536208 1307.0380916834813,213.07846070794017 1329.3278745841287,194.50364162406737 Z" fill="url(#leaf21)" opacity="0.21" transform="rotate(33.8 1329.3 231.7)"/>
    <path d="M 894.2649739272742,460.6354057597795 C 935.4543400389365,494.95987751949804 949.184128742824,543.014137983104 894.2649739272742,597.9332927986537 C 839.3458191117245,543.014137983104 853.075607815612,494.95987751949804 894.2649739272742,460.6354057597795 Z" fill="url(#leaf22)" opacity="0.19" transform="rotate(33.9 894.3 529.3)"/>
    <path d="M 58.27693182053241,582.5604461598766 C 103.32883985820288,620.1037028579353 118.34614253742637,672.6642622352175 58.27693182053241,732.7334729521115 C -1.7922788963615517,672.6642622352175 13.225023782861939,620.1037028579353 58.27693182053241,582.5604461598766 Z" fill="url(#leaf23)" opacity="0.21" transform="rotate(0.4 58.3 657.6)"/>
    <path d="M 798.8010695379547,41.229114454691725 C 828.425855202626,65.9164358419178 838.3007837575165,100.47868578403433 798.8010695379547,139.97840000359605 C 759.301355318393,100.47868578403433 769.1762838732834,65.9164358419178 798.8010695379547,41.229114454691725 Z" fill="url(#leaf24)" opacity="0.24" transform="rotate(44.5 798.8 90.6)"/>
    <path d="M 1654.606544517927,938.7900155465686 C 1691.2675802050292,969.3408786191537 1703.4879254340633,1012.112086920773 1654.606544517927,1060.9934678369093 C 1605.7251636017907,1012.112086920773 1617.9455088308248,969.3408786191537 1654.606544517927,938.7900155465686 Z" fill="url(#leaf25)" opacity="0.16" transform="rotate(274.7 1654.6 999.9)"/>
    <path d="M 1657.883870599019,287.6691798464764 C 1693.0144660276655,316.9446760370152 1704.724664503881,357.93037070376954 1657.883870599019,404.77116460863164 C 1611.043076694157,357.93037070376954 1622.7532751703725,316.9446760370152 1657.883870599019,287.6691798464764 Z" fill="url(#leaf26)" opacity="0.18" transform="rotate(304.4 1657.9 346.2)"/>
    <path d="M 631.4835649574321,892.9373471407873 C 655.8306450319251,913.2265805361982 663.9463383900895,941.6315072897734 631.4835649574321,974.0942807224308 C 599.0207915247747,941.6315072897734 607.1364848829392,913.2265805361982 631.4835649574321,892.9373471407873 Z" fill="url(#leaf27)" opacity="0.22" transform="rotate(281.4 631.5 933.5)"/>
    <path d="M 1786.7020039549502,566.3246678382286 C 1810.961159223964,586.5406305624066 1819.0475443136352,614.8429783762559 1786.7020039549502,647.1885187349408 C 1754.3564635962653,614.8429783762559 1762.4428486859365,586.5406305624066 1786.7020039549502,566.3246678382286 Z" fill="url(#leaf28)" opacity="0.22" transform="rotate(79.1 1786.7 606.8)"/>
    <path d="M 548.5426008496279,739.7240519755264 C 583.864513814005,769.1589794458408 595.6384848021307,810.3678779042808 548.5426008496279,857.4637618567838 C 501.446716897125,810.3678779042808 513.2206878852508,769.1589794458408 548.5426008496279,739.7240519755264 Z" fill="url(#leaf29)" opacity="0.19" transform="rotate(209.6 548.5 798.6)"/>
    <path d="M 497.8654878287998,593.2707621189134 C 541.3505638039452,629.5083254315344 555.8455891289937,680.2409140692041 497.8654878287998,738.221015369398 C 439.8853865286059,680.2409140692041 454.3804118536544,629.5083254315344 497.8654878287998,593.2707621189134 Z" fill="url(#leaf0)" opacity="0.21" transform="rotate(218.7 497.9 665.7)"/>
    <path d="M 417.66886229585674,647.2071458479386 C 456.6406246441636,679.6836144715277 469.6312120935993,725.1506705445524 417.66886229585674,777.1130203422949 C 365.7065124981142,725.1506705445524 378.6970999475499,679.6836144715277 417.66886229585674,647.2071458479386 Z" fill="url(#leaf1)" opacity="0.22" transform="rotate(200.2 417.7 712.2)"/>
    <path d="M 862.3861412082933,318.23543541014556 C 903.006593291963,352.0858121465369 916.5467439865196,399.47633957748485 862.3861412082933,453.6369423557111 C 808.2255384300671,399.47633957748485 821.7656891246237,352.0858121465369 862.3861412082933,318.23543541014556 Z" fill="url(#leaf2)" opacity="0.18" transform="rotate(310.6 862.4 385.9)"/>
    <path d="M 1435.099472848974,317.23053972290023 C 1457.9457750416645,336.2691248834755 1465.5612091058945,362.92314410828095 1435.099472848974,393.38488036520147 C 1404.6377365920537,362.92314410828095 1412.2531706562836,336.2691248834755 1435.099472848974,317.23053972290023 Z" fill="url(#leaf3)" opacity="0.19" transform="rotate(60.8 1435.1 355.3)"/>
    <path d="M 918.75158416779,642.6128727016543 C 966.0943847256384,682.0652064998612 981.8753182449211,737.298473817351 918.75158416779,800.4222078944821 C 855.627850090659,737.298473817351 871.4087836099417,682.0652064998612 918.75158416779,642.6128727016543 Z" fill="url(#leaf4)" opacity="0.16" transform="rotate(60.1 918.8 721.5)"/>
    <path d="M 1342.660304669474,431.832180376059 C 1368.7424937863525,453.5673379734578 1377.436556825312,483.99655860981613 1342.660304669474,518.7728107656542 C 1307.884052513636,483.99655860981613 1316.5781155525956,453.5673379734578 1342.660304669474,431.832180376059 Z" fill="url(#leaf5)" opacity="0.17" transform="rotate(123.1 1342.7 475.3)"/>
    <path d="M 756.6573295131327,351.3101162999617 C 791.1229916147042,380.03150138460467 802.6115456485614,420.24144050310485 756.6573295131327,466.1956566385336 C 710.703113377704,420.24144050310485 722.1916674115612,380.03150138460467 756.6573295131327,351.3101162999617 Z" fill="url(#leaf6)" opacity="0.19" transform="rotate(3.9 756.7 408.8)"/>
    <path d="M 430.661175659415,12.660185652582506 C 458.636102662727,35.972624822009166 467.9610783304976,68.61003965920649 430.661175659415,105.90994233028914 C 393.36127298833236,68.61003965920649 402.686248656103,35.972624822009166 430.661175659415,12.660185652582506 Z" fill="url(#leaf7)" opacity="0.19" transform="rotate(297.3 430.7 59.3)"/>
    <path d="M 1534.859183467903,277.1975619718136 C 1558.1335866097627,296.5928979233634 1565.8917209903825,323.746368255533 1534.859183467903,354.77890577801264 C 1503.8266459454235,323.746368255533 1511.5847803260433,296.5928979233634 1534.859183467903,277.1975619718136 Z" fill="url(#leaf8)" opacity="0.15" transform="rotate(317.1 1534.9 316.0)"/>
    <path d="M 1490.8350449325185,329.01273339260104 C 1522.3887918576006,355.3075224968362 1532.9067074992947,392.12022724276545 1490.8350449325185,434.19188980954175 C 1448.7633823657422,392.12022724276545 1459.2812980074364,355.3075224968362 1490.8350449325185,329.01273339260104 Z" fill="url(#leaf9)" opacity="0.23" transform="rotate(14.2 1490.8 381.6)"/>
    <path d="M 881.8326517073456,796.2529415701259 C 905.3432774101748,815.845129655817 913.1801526444513,843.2741929757843 881.8326517073456,874.62169391289 C 850.4851507702399,843.2741929757843 858.3220260045164,815.845129655817 881.8326517073456,796.2529415701259 Z" fill="url(#leaf10)" opacity="0.24" transform="rotate(275.7 881.8 835.4)"/>
    <path d="M 1267.0803351200755,374.07177762343656 C 1310.1273489269427,409.94428912915924 1324.4763535292318,460.165805237171 1267.0803351200755,517.5618236463273 C 1209.6843167109191,460.165805237171 1224.0333213132083,409.94428912915924 1267.0803351200755,374.07177762343656 Z" fill="url(#leaf11)" opacity="0.25" transform="rotate(33.2 1267.1 445.8)"/>
    </g>

    <!-- Text with SOLID fill only (ThorVG compatible) -->
    <text x="824.5" y="980.8"
          font-family="Arial, Helvetica, sans-serif"
          font-size="1080px"
          font-weight="bold"
          fill="#96E6A1"
          text-anchor="middle"
          transform="rotate(10.3 960.0 540.0)">
      A
    </text>
  </g>

  <!-- Frame counter -->
  <text x="960.0" y="1050.0"
        font-family="monospace"
        font-size="24px"
        fill="#FFFFFF"
        text-anchor="middle"
        opacity="0.7">
    Frame 00065 - Compatible
  </text>
</svg>