<?xml version="1.0" encoding="UTF-8"?>
<svg xmlns="http://www.w3.org/2000/svg" viewBox="0 0 1920 1080" width="1920" height="1080">
  <defs>
    <filter id="blur0" x="-50%" y="-50%" width="200%" height="200%">
      <feGaussianBlur in="SourceGraphic" stdDeviation="1"/>
    </filter>
    <filter id="blur1" x="-50%" y="-50%" width="200%" height="200%">
      <feGaussianBlur in="SourceGraphic" stdDeviation="3"/>
    </filter>
    <filter id="blur2" x="-50%" y="-50%" width="200%" height="200%">
      <feGaussianBlur in="SourceGraphic" stdDeviation="5"/>
    </filter>
    <filter id="blur3" x="-50%" y="-50%" width="200%" height="200%">
      <feGaussianBlur in="SourceGraphic" stdDeviation="7"/>
    </filter>
    <filter id="blur4" x="-50%" y="-50%" width="200%" height="200%">
      <feGaussianBlur in="SourceGraphic" stdDeviation="9"/>
    </filter>
    <filter id="shadow" x="-50%" y="-50%" width="200%" height="200%">
      <feGaussianBlur in="SourceAlpha" stdDeviation="3" result="blur"/>
      <feOffset in="blur" dx="4" dy="4" result="offsetBlur"/>
      <feMerge>
        <feMergeNode in="offsetBlur"/>
        <feMergeNode in="SourceGraphic"/>
      </feMerge>
    </filter>
    <linearGradient id="lgrad0" x1="0%" y1="0%" x2="82.8%" y2="12.3%">
      <stop offset="0%" stop-color="#FF6B6B"/>
      <stop offset="33%" stop-color="#4ECDC4"/>
      <stop offset="66%" stop-color="#45B7D1"/>
      <stop offset="100%" stop-color="#96E6A1"/>
    </linearGradient>
    <linearGradient id="lgrad1" x1="0%" y1="0%" x2="97.3%" y2="33.7%">
      <stop offset="0%" stop-color="#FFE66D"/>
      <stop offset="33%" stop-color="#FF6B6B"/>
      <stop offset="66%" stop-color="#C44D58"/>
      <stop offset="100%" stop-color="#8B0000"/>
    </linearGradient>
    <linearGradient id="lgrad2" x1="0%" y1="0%" x2="99.1%" y2="59.5%">
      <stop offset="0%" stop-color="#4169E1"/>
      <stop offset="33%" stop-color="#7B68EE"/>
      <stop offset="66%" stop-color="#9370DB"/>
      <stop offset="100%" stop-color="#FFD700"/>
    </linearGradient>
    <linearGradient id="lgrad3" x1="0%" y1="0%" x2="87.7%" y2="82.8%">
      <stop offset="0%" stop-color="#32CD32"/>
      <stop offset="33%" stop-color="#228B22"/>
      <stop offset="66%" stop-color="#006400"/>
      <stop offset="100%" stop-color="#ADFF2F"/>
    </linearGradient>
    <linearGradient id="lgrad4" x1="0%" y1="0%" x2="66.3%" y2="97.3%">
      <stop offset="0%" stop-color="#FF1493"/>
      <stop offset="33%" stop-color="#FF69B4"/>
      <stop offset="66%" stop-color="#FFB6C1"/>
      <stop offset="100%" stop-color="#FFC0CB"/>
    </linearGradient>
    <radialGradient id="rgrad0" cx="69.6%" cy="56.4%" r="60%">
      <stop offset="0%" stop-color="#FF6B6B" stop-opacity="1"/>
      <stop offset="50%" stop-color="#4ECDC4" stop-opacity="0.8"/>
      <stop offset="100%" stop-color="#45B7D1" stop-opacity="0.6"/>
    </radialGradient>
    <radialGradient id="rgrad1" cx="39.6%" cy="64.4%" r="60%">
      <stop offset="0%" stop-color="#FFE66D" stop-opacity="1"/>
      <stop offset="50%" stop-color="#FF6B6B" stop-opacity="0.8"/>
      <stop offset="100%" stop-color="#C44D58" stop-opacity="0.6"/>
    </radialGradient>
    <radialGradient id="rgrad2" cx="49.6%" cy="32.4%" r="60%">
      <stop offset="0%" stop-color="#4169E1" stop-opacity="1"/>
      <stop offset="50%" stop-color="#7B68EE" stop-opacity="0.8"/>
      <stop offset="100%" stop-color="#9370DB" stop-opacity="0.6"/>
    </radialGradient>
    <radialGradient id="rgrad3" cx="59.6%" cy="40.4%" r="60%">
      <stop offset="0%" stop-color="#32CD32" stop-opacity="1"/>
      <stop offset="50%" stop-color="#228B22" stop-opacity="0.8"/>
      <stop offset="100%" stop-color="#006400" stop-opacity="0.6"/>
    </radialGradient>
    <radialGradient id="rgrad4" cx="69.6%" cy="48.4%" r="60%">
      <stop offset="0%" stop-color="#FF1493" stop-opacity="1"/>
      <stop offset="50%" stop-color="#FF69B4" stop-opacity="0.8"/>
      <stop offset="100%" stop-color="#FFB6C1" stop-opacity="0.6"/>
    </radialGradient>
    <clipPath id="clipCircle">
      <circle cx="0" cy="0" r="50"/>
    </clipPath>
    <clipPath id="clipStar">
      <path d="M0.0,-50.0 L14.7,-20.2 L47.6,-15.5 L23.8,7.7 L29.4,40.5 L0.0,25.0 L-29.4,40.5 L-23.8,7.7 L-47.6,-15.5 L-14.7,-20.2Z"/>
    </clipPath>
    <clipPath id="clipHex">
      <path d="M39.0,22.5 L0.0,45.0 L-39.0,22.5 L-39.0,-22.5 L-0.0,-45.0 L39.0,-22.5Z"/>
    </clipPath>
    <clipPath id="clipRect">
      <rect x="-40" y="-30" width="80" height="60" rx="10"/>
    </clipPath>
    <clipPath id="clipDynamic">
      <circle cx="0" cy="0" r="32.0"/>
    </clipPath>
    <mask id="maskGradient" maskContentUnits="objectBoundingBox">
      <rect x="0" y="0" width="1" height="1" fill="url(#maskGrad)"/>
    </mask>
    <linearGradient id="maskGrad" x1="0%" y1="0%" x2="100%" y2="100%">
      <stop offset="0%" stop-color="white"/>
      <stop offset="100%" stop-color="black"/>
    </linearGradient>
    <mask id="maskCircleFade">
      <circle cx="0" cy="0" r="60" fill="white"/>
      <circle cx="0" cy="0" r="30" fill="black"/>
    </mask>
    <mask id="maskStripes">
      <rect x="-50" y="-50" width="100" height="100" fill="white"/>
      <rect x="-50" y="-40" width="100" height="10" fill="black"/>
      <rect x="-50" y="-20" width="100" height="10" fill="black"/>
      <rect x="-50" y="0" width="100" height="10" fill="black"/>
      <rect x="-50" y="20" width="100" height="10" fill="black"/>
      <rect x="-50" y="40" width="100" height="10" fill="black"/>
    </mask>
    <mask id="maskDynamic">
      <rect x="-60" y="-60" width="120" height="120" fill="white" fill-opacity="1.00"/>
      <circle cx="0" cy="0" r="25" fill="white"/>
    </mask>
  </defs>
  <rect width="1920" height="1080" fill="url(#lgrad0)"/>
  <g transform="translate(94.1, 75.5)">
      <g transform="translate(-0.98,-3.92) rotate(4.98) scale(1.000)">
        <g transform="translate(-3.21,-3.51) rotate(9.56) scale(0.980)">
        <g transform="translate(-4.66,-2.79) rotate(13.17) scale(0.960)">
        <g transform="translate(-4.96,-1.82) rotate(15.31) scale(0.940)" clip-path="url(#clipCircle)">
        <g transform="translate(-4.05,-0.69) rotate(15.56) scale(0.920)">
        <g transform="translate(-2.15,0.51) rotate(13.63) scale(0.900)">
        <g transform="translate(0.28,1.66) rotate(9.39) scale(0.880)">
        <path d="M0.0,-74.9 L22.0,-30.3 L71.3,-23.2 L35.6,11.6 L44.0,60.6 L0.0,37.5 L-44.0,60.6 L-35.6,11.6 L-71.3,-23.2 L-22.0,-30.3Z" fill="url(#lgrad0)" filter="url(#blur0)" opacity="0.90"/>
      </g>
      </g>
      </g>
      </g>
      </g>
      </g>
      </g>
  </g>
  <g transform="translate(300.7, 84.4)">
      <g transform="translate(-4.66,-1.46) rotate(4.98) scale(1.000)">
        <g transform="translate(-4.96,-0.29) rotate(9.56) scale(0.980)">
        <g transform="translate(-4.05,0.90) rotate(13.17) scale(0.960)">
        <g transform="translate(-2.15,2.01) rotate(15.31) scale(0.940)">
        <g transform="translate(0.28,2.94) rotate(15.56) scale(0.920)">
        <g transform="translate(2.64,3.61) rotate(13.63) scale(0.900)" mask="url(#maskCircleFade)">
        <g transform="translate(4.35,3.96) rotate(9.39) scale(0.880)">
        <rect x="-33.4" y="-33.4" width="66.8" height="66.8" rx="16.7" fill="url(#rgrad1)" filter="url(#shadow)" opacity="0.87"/>
        <circle cx="0" cy="0" r="22.3" fill="url(#rgrad2)" opacity="0.61"/>
      </g>
      </g>
      </g>
      </g>
      </g>
      </g>
      </g>
  </g>
  <g transform="translate(512.1, 100.7)">
      <g transform="translate(-4.05,2.35) rotate(4.98) scale(1.000)">
        <g transform="translate(-2.15,3.20) rotate(9.56) scale(0.980)">
        <g transform="translate(0.28,3.77) rotate(13.17) scale(0.960)">
        <g transform="translate(2.64,4.00) rotate(15.31) scale(0.940)">
        <g transform="translate(4.35,3.87) rotate(15.56) scale(0.920)">
        <g transform="translate(5.00,3.40) rotate(13.63) scale(0.900)">
        <g transform="translate(4.42,2.62) rotate(9.39) scale(0.880)">
        <path d="M27.2,15.7 L0.0,31.5 L-27.2,15.7 L-27.2,-15.7 L-0.0,-31.5 L27.2,-15.7Z" fill="url(#rgrad2)" filter="url(#blur2)" opacity="0.81"/>
        <ellipse cx="0" cy="0" rx="13.1" ry="8.7" fill="#FFFFFF" opacity="0.40"/>
      </g>
      </g>
      </g>
      </g>
      </g>
      </g>
      </g>
  </g>
  <g transform="translate(730.2, 116.6)">
      <g transform="translate(0.28,3.99) rotate(4.98) scale(1.000)">
        <g transform="translate(2.64,3.75) rotate(9.56) scale(0.980)">
        <g transform="translate(4.35,3.17) rotate(13.17) scale(0.960)">
        <g transform="translate(5.00,2.31) rotate(15.31) scale(0.940)" clip-path="url(#clipRect)">
        <g transform="translate(4.42,1.24) rotate(15.56) scale(0.920)">
        <g transform="translate(2.76,0.06) rotate(13.63) scale(0.900)">
        <g transform="translate(0.42,-1.13) rotate(9.39) scale(0.880)">
        <circle cx="0" cy="0" r="22.5" fill="url(#lgrad3)" filter="url(#shadow)" opacity="0.72"/>
        <text x="0" y="5" text-anchor="middle" font-family="Arial, sans-serif" font-size="14" fill="#FFFFFF" opacity="0.72">532</text>
      </g>
      </g>
      </g>
      </g>
      </g>
      </g>
      </g>
  </g>
  <g transform="translate(955.7, 124.7)">
      <g transform="translate(4.35,1.97) rotate(4.98) scale(1.000)">
        <g transform="translate(5.00,0.85) rotate(9.56) scale(0.980)">
        <g transform="translate(4.42,-0.34) rotate(13.17) scale(0.960)">
        <g transform="translate(2.76,-1.50) rotate(15.31) scale(0.940)">
        <g transform="translate(0.42,-2.53) rotate(15.56) scale(0.920)">
        <g transform="translate(-2.02,-3.33) rotate(13.63) scale(0.900)" mask="url(#maskGradient)">
        <g transform="translate(-3.96,-3.84) rotate(9.39) scale(0.880)">
        <path d="M0.0,-51.4 L15.1,-20.8 L48.9,-15.9 L24.4,7.9 L30.2,41.6 L0.0,25.7 L-30.2,41.6 L-24.4,7.9 L-48.9,-15.9 L-15.1,-20.8Z" fill="url(#rgrad4)" filter="url(#blur4)" opacity="0.61"/>
      </g>
      </g>
      </g>
      </g>
      </g>
      </g>
      </g>
  </g>
  <g transform="translate(1187.1, 121.2)">
      <g transform="translate(4.42,-1.87) rotate(4.98) scale(1.000)">
        <g transform="translate(2.76,-2.83) rotate(9.56) scale(0.980)">
        <g transform="translate(0.42,-3.54) rotate(13.17) scale(0.960)">
        <g transform="translate(-2.02,-3.93) rotate(15.31) scale(0.940)">
        <g transform="translate(-3.96,-3.97) rotate(15.56) scale(0.920)">
        <g transform="translate(-4.94,-3.66) rotate(13.63) scale(0.900)">
        <g transform="translate(-4.71,-3.02) rotate(9.39) scale(0.880)">
        <rect x="-32.8" y="-32.8" width="65.7" height="65.7" rx="16.4" fill="url(#rgrad0)" filter="url(#shadow)" opacity="0.49"/>
        <circle cx="0" cy="0" r="21.9" fill="url(#rgrad1)" opacity="0.34"/>
      </g>
      </g>
      </g>
      </g>
      </g>
      </g>
      </g>
  </g>
  <g transform="translate(1421.7, 107.7)">
      <g transform="translate(0.42,-3.99) rotate(4.98) scale(1.000)">
        <g transform="translate(-2.02,-3.91) rotate(9.56) scale(0.980)">
        <g transform="translate(-3.96,-3.48) rotate(13.17) scale(0.960)">
        <g transform="translate(-4.94,-2.74) rotate(15.31) scale(0.940)" clip-path="url(#clipStar)">
        <g transform="translate(-4.71,-1.76) rotate(15.56) scale(0.920)">
        <g transform="translate(-3.32,-0.62) rotate(13.63) scale(0.900)">
        <g transform="translate(-1.12,0.57) rotate(9.39) scale(0.880)">
        <path d="M38.8,22.4 L0.0,44.8 L-38.8,22.4 L-38.8,-22.4 L-0.0,-44.8 L38.8,-22.4Z" fill="url(#lgrad1)" filter="url(#blur1)" opacity="0.37"/>
        <ellipse cx="0" cy="0" rx="18.7" ry="12.5" fill="#FFFFFF" opacity="0.19"/>
      </g>
      </g>
      </g>
      </g>
      </g>
      </g>
      </g>
  </g>
  <g transform="translate(1655.8, 90.6)">
      <g transform="translate(-3.96,-2.44) rotate(4.98) scale(1.000)">
        <g transform="translate(-4.94,-1.39) rotate(9.56) scale(0.980)">
        <g transform="translate(-4.71,-0.22) rotate(13.17) scale(0.960)">
        <g transform="translate(-3.32,0.97) rotate(15.31) scale(0.940)">
        <g transform="translate(-1.12,2.07) rotate(15.56) scale(0.920)">
        <g transform="translate(1.35,2.99) rotate(13.63) scale(0.900)" mask="url(#maskDynamic)">
        <g transform="translate(3.49,3.64) rotate(9.39) scale(0.880)">
        <circle cx="0" cy="0" r="35.1" fill="url(#rgrad2)" filter="url(#shadow)" opacity="0.26"/>
        <text x="0" y="5" text-anchor="middle" font-family="Arial, sans-serif" font-size="14" fill="#FFFFFF" opacity="0.26">532</text>
      </g>
      </g>
      </g>
      </g>
      </g>
      </g>
      </g>
  </g>
  <g transform="translate(126.1, 357.9)">
      <g transform="translate(-4.71,1.35) rotate(4.98) scale(1.000)">
        <g transform="translate(-3.32,2.40) rotate(9.56) scale(0.980)">
        <g transform="translate(-1.12,3.24) rotate(13.17) scale(0.960)">
        <g transform="translate(1.35,3.79) rotate(15.31) scale(0.940)">
        <g transform="translate(3.49,4.00) rotate(15.56) scale(0.920)">
        <g transform="translate(4.78,3.85) rotate(13.63) scale(0.900)">
        <g transform="translate(4.90,3.36) rotate(9.39) scale(0.880)">
        <path d="M0.0,-56.4 L16.6,-22.8 L53.6,-17.4 L26.8,8.7 L33.1,45.6 L0.0,28.2 L-33.1,45.6 L-26.8,8.7 L-53.6,-17.4 L-16.6,-22.8Z" fill="url(#rgrad3)" filter="url(#blur3)" opacity="0.18"/>
      </g>
      </g>
      </g>
      </g>
      </g>
      </g>
      </g>
  </g>
  <g transform="translate(350.0, 355.6)">
      <g transform="translate(-1.12,3.90) rotate(4.98) scale(1.000)">
        <g transform="translate(1.35,3.99) rotate(9.56) scale(0.980)">
        <g transform="translate(3.49,3.72) rotate(13.17) scale(0.960)">
        <g transform="translate(4.78,3.13) rotate(15.31) scale(0.940)" clip-path="url(#clipDynamic)">
        <g transform="translate(4.90,2.25) rotate(15.56) scale(0.920)">
        <g transform="translate(3.82,1.17) rotate(13.63) scale(0.900)">
        <g transform="translate(1.80,-0.01) rotate(9.39) scale(0.880)">
        <rect x="-22.9" y="-22.9" width="45.8" height="45.8" rx="11.4" fill="url(#lgrad4)" filter="url(#shadow)" opacity="0.12"/>
        <circle cx="0" cy="0" r="15.3" fill="url(#rgrad0)" opacity="0.09"/>
      </g>
      </g>
      </g>
      </g>
      </g>
      </g>
      </g>
  </g>
  <g transform="translate(566.5, 364.8)">
      <g transform="translate(3.49,2.86) rotate(4.98) scale(1.000)">
        <g transform="translate(4.78,1.91) rotate(9.56) scale(0.980)">
        <g transform="translate(4.90,0.78) rotate(13.17) scale(0.960)">
        <g transform="translate(3.82,-0.41) rotate(15.31) scale(0.940)">
        <g transform="translate(1.80,-1.57) rotate(15.56) scale(0.920)">
        <g transform="translate(-0.66,-2.58) rotate(13.63) scale(0.900)" mask="url(#maskStripes)">
        <g transform="translate(-2.95,-3.37) rotate(9.39) scale(0.880)">
        <path d="M25.1,14.5 L0.0,29.0 L-25.1,14.5 L-25.1,-14.5 L-0.0,-29.0 L25.1,-14.5Z" fill="url(#rgrad0)" filter="url(#blur0)" opacity="0.10"/>
        <ellipse cx="0" cy="0" rx="12.1" ry="8.0" fill="#FFFFFF" opacity="0.05"/>
      </g>
      </g>
      </g>
      </g>
      </g>
      </g>
      </g>
  </g>
  <g transform="translate(776.6, 381.1)">
      <g transform="translate(4.90,-0.80) rotate(4.98) scale(1.000)">
        <g transform="translate(3.82,-1.93) rotate(9.56) scale(0.980)">
        <g transform="translate(1.80,-2.88) rotate(13.17) scale(0.960)">
        <g transform="translate(-0.66,-3.57) rotate(15.31) scale(0.940)">
        <g transform="translate(-2.95,-3.94) rotate(15.56) scale(0.920)">
        <g transform="translate(-4.53,-3.97) rotate(13.63) scale(0.900)">
        <g transform="translate(-4.99,-3.63) rotate(9.39) scale(0.880)">
        <circle cx="0" cy="0" r="30.8" fill="url(#rgrad1)" filter="url(#shadow)" opacity="0.11"/>
        <text x="0" y="5" text-anchor="middle" font-family="Arial, sans-serif" font-size="14" fill="#FFFFFF" opacity="0.11">532</text>
      </g>
      </g>
      </g>
      </g>
      </g>
      </g>
      </g>
  </g>
  <g transform="translate(982.5, 396.9)">
      <g transform="translate(1.80,-3.73) rotate(4.98) scale(1.000)">
        <g transform="translate(-0.66,-3.99) rotate(9.56) scale(0.980)">
        <g transform="translate(-2.95,-3.89) rotate(13.17) scale(0.960)">
        <g transform="translate(-4.53,-3.45) rotate(15.31) scale(0.940)" clip-path="url(#clipHex)">
        <g transform="translate(-4.99,-2.69) rotate(15.56) scale(0.920)">
        <g transform="translate(-4.23,-1.70) rotate(13.63) scale(0.900)">
        <g transform="translate(-2.44,-0.55) rotate(9.39) scale(0.880)">
        <path d="M0.0,-73.4 L21.6,-29.7 L69.8,-22.7 L34.9,11.3 L43.1,59.4 L0.0,36.7 L-43.1,59.4 L-34.9,11.3 L-69.8,-22.7 L-21.6,-29.7Z" fill="url(#lgrad2)" filter="url(#blur2)" opacity="0.16"/>
      </g>
      </g>
      </g>
      </g>
      </g>
      </g>
      </g>
  </g>
  <g transform="translate(1187.9, 404.8)">
      <g transform="translate(-2.95,-3.23) rotate(4.98) scale(1.000)">
        <g transform="translate(-4.53,-2.39) rotate(9.56) scale(0.980)">
        <g transform="translate(-4.99,-1.33) rotate(13.17) scale(0.960)">
        <g transform="translate(-4.23,-0.16) rotate(15.31) scale(0.940)">
        <g transform="translate(-2.44,1.03) rotate(15.56) scale(0.920)">
        <g transform="translate(-0.05,2.13) rotate(13.63) scale(0.900)" mask="url(#maskCircleFade)">
        <g transform="translate(2.35,3.03) rotate(9.39) scale(0.880)">
        <rect x="-36.5" y="-36.5" width="72.9" height="72.9" rx="18.2" fill="url(#rgrad3)" filter="url(#shadow)" opacity="0.24"/>
        <circle cx="0" cy="0" r="24.3" fill="url(#rgrad4)" opacity="0.17"/>
      </g>
      </g>
      </g>
      </g>
      </g>
      </g>
      </g>
  </g>
  <g transform="translate(1396.2, 401.0)">
      <g transform="translate(-4.99,0.24) rotate(4.98) scale(1.000)">
        <g transform="translate(-4.23,1.41) rotate(9.56) scale(0.980)">
        <g transform="translate(-2.44,2.46) rotate(13.17) scale(0.960)">
        <g transform="translate(-0.05,3.28) rotate(15.31) scale(0.940)">
        <g transform="translate(2.35,3.81) rotate(15.56) scale(0.920)">
        <g transform="translate(4.18,4.00) rotate(13.63) scale(0.900)">
        <g transform="translate(4.98,3.83) rotate(9.39) scale(0.880)">
        <path d="M31.5,18.2 L0.0,36.3 L-31.5,18.2 L-31.5,-18.2 L-0.0,-36.3 L31.5,-18.2Z" fill="url(#rgrad4)" filter="url(#blur4)" opacity="0.34"/>
        <ellipse cx="0" cy="0" rx="15.1" ry="10.1" fill="#FFFFFF" opacity="0.17"/>
      </g>
      </g>
      </g>
      </g>
      </g>
      </g>
      </g>
  </g>
  <g transform="translate(1610.4, 387.3)">
      <g transform="translate(-2.44,3.49) rotate(4.98) scale(1.000)">
        <g transform="translate(-0.05,3.91) rotate(9.56) scale(0.980)">
        <g transform="translate(2.35,3.98) rotate(13.17) scale(0.960)">
        <g transform="translate(4.18,3.70) rotate(15.31) scale(0.940)" clip-path="url(#clipCircle)">
        <g transform="translate(4.98,3.08) rotate(15.56) scale(0.920)">
        <g transform="translate(4.57,2.19) rotate(13.63) scale(0.900)">
        <g transform="translate(3.03,1.11) rotate(9.39) scale(0.880)">
        <circle cx="0" cy="0" r="23.8" fill="url(#lgrad0)" filter="url(#shadow)" opacity="0.45"/>
        <text x="0" y="5" text-anchor="middle" font-family="Arial, sans-serif" font-size="14" fill="#FFFFFF" opacity="0.45">532</text>
      </g>
      </g>
      </g>
      </g>
      </g>
      </g>
      </g>
  </g>
  <g transform="translate(71.8, 650.2)">
      <g transform="translate(2.35,3.53) rotate(4.98) scale(1.000)">
        <g transform="translate(4.18,2.81) rotate(9.56) scale(0.980)">
        <g transform="translate(4.98,1.85) rotate(13.17) scale(0.960)">
        <g transform="translate(4.57,0.72) rotate(15.31) scale(0.940)">
        <g transform="translate(3.03,-0.48) rotate(15.56) scale(0.920)">
        <g transform="translate(0.75,-1.63) rotate(13.63) scale(0.900)" mask="url(#maskGradient)">
        <g transform="translate(-1.71,-2.64) rotate(9.39) scale(0.880)">
        <path d="M0.0,-46.1 L13.6,-18.7 L43.9,-14.3 L21.9,7.1 L27.1,37.3 L0.0,23.1 L-27.1,37.3 L-21.9,7.1 L-43.9,-14.3 L-13.6,-18.7Z" fill="url(#rgrad1)" filter="url(#blur1)" opacity="0.57"/>
      </g>
      </g>
      </g>
      </g>
      </g>
      </g>
      </g>
  </g>
  <g transform="translate(300.1, 637.7)">
      <g transform="translate(4.98,0.32) rotate(4.98) scale(1.000)">
        <g transform="translate(4.57,-0.87) rotate(9.56) scale(0.980)">
        <g transform="translate(3.03,-1.99) rotate(13.17) scale(0.960)">
        <g transform="translate(0.75,-2.92) rotate(15.31) scale(0.940)">
        <g transform="translate(-1.71,-3.60) rotate(15.56) scale(0.920)">
        <g transform="translate(-3.75,-3.95) rotate(13.63) scale(0.900)">
        <g transform="translate(-4.88,-3.96) rotate(9.39) scale(0.880)">
        <rect x="-28.7" y="-28.7" width="57.3" height="57.3" rx="14.3" fill="url(#rgrad2)" filter="url(#shadow)" opacity="0.69"/>
        <circle cx="0" cy="0" r="19.1" fill="url(#rgrad3)" opacity="0.48"/>
      </g>
      </g>
      </g>
      </g>
      </g>
      </g>
      </g>
  </g>
  <g transform="translate(533.3, 635.7)">
      <g transform="translate(3.03,-3.18) rotate(4.98) scale(1.000)">
        <g transform="translate(0.75,-3.76) rotate(9.56) scale(0.980)">
        <g transform="translate(-1.71,-3.99) rotate(13.17) scale(0.960)">
        <g transform="translate(-3.75,-3.88) rotate(15.31) scale(0.940)" clip-path="url(#clipRect)">
        <g transform="translate(-4.88,-3.41) rotate(15.56) scale(0.920)">
        <g transform="translate(-4.81,-2.64) rotate(13.63) scale(0.900)">
        <g transform="translate(-3.56,-1.64) rotate(9.39) scale(0.880)">
        <path d="M36.9,21.3 L0.0,42.6 L-36.9,21.3 L-36.9,-21.3 L-0.0,-42.6 L36.9,-21.3Z" fill="url(#lgrad3)" filter="url(#blur3)" opacity="0.78"/>
        <ellipse cx="0" cy="0" rx="17.7" ry="11.8" fill="#FFFFFF" opacity="0.39"/>
      </g>
      </g>
      </g>
      </g>
      </g>
      </g>
      </g>
  </g>
  <g transform="translate(768.1, 645.1)">
      <g transform="translate(-1.71,-3.76) rotate(4.98) scale(1.000)">
        <g transform="translate(-3.75,-3.19) rotate(9.56) scale(0.980)">
        <g transform="translate(-4.88,-2.33) rotate(13.17) scale(0.960)">
        <g transform="translate(-4.81,-1.27) rotate(15.31) scale(0.940)">
        <g transform="translate(-3.56,-0.09) rotate(15.56) scale(0.920)">
        <g transform="translate(-1.44,1.10) rotate(13.63) scale(0.900)" mask="url(#maskDynamic)">
        <g transform="translate(1.03,2.18) rotate(9.39) scale(0.880)">
        <circle cx="0" cy="0" r="37.3" fill="url(#rgrad4)" filter="url(#shadow)" opacity="0.85"/>
        <text x="0" y="5" text-anchor="middle" font-family="Arial, sans-serif" font-size="14" fill="#FFFFFF" opacity="0.85">532</text>
      </g>
      </g>
      </g>
      </g>
      </g>
      </g>
      </g>
  </g>
  <g transform="translate(1001.0, 661.5)">
      <g transform="translate(-4.88,-0.88) rotate(4.98) scale(1.000)">
        <g transform="translate(-4.81,0.31) rotate(9.56) scale(0.980)">
        <g transform="translate(-3.56,1.48) rotate(13.17) scale(0.960)">
        <g transform="translate(-1.44,2.51) rotate(15.31) scale(0.940)">
        <g transform="translate(1.03,3.32) rotate(15.56) scale(0.920)">
        <g transform="translate(3.25,3.83) rotate(13.63) scale(0.900)">
        <g transform="translate(4.67,4.00) rotate(9.39) scale(0.880)">
        <path d="M0.0,-64.7 L19.0,-26.2 L61.6,-20.0 L30.8,10.0 L38.1,52.4 L0.0,32.4 L-38.1,52.4 L-30.8,10.0 L-61.6,-20.0 L-19.0,-26.2Z" fill="url(#rgrad0)" filter="url(#blur0)" opacity="0.89"/>
      </g>
      </g>
      </g>
      </g>
      </g>
      </g>
      </g>
  </g>
  <g transform="translate(1228.7, 677.2)">
      <g transform="translate(-3.56,2.81) rotate(4.98) scale(1.000)">
        <g transform="translate(-1.44,3.52) rotate(9.56) scale(0.980)">
        <g transform="translate(1.03,3.93) rotate(13.17) scale(0.960)">
        <g transform="translate(3.25,3.98) rotate(15.31) scale(0.940)" clip-path="url(#clipStar)">
        <g transform="translate(4.67,3.67) rotate(15.56) scale(0.920)">
        <g transform="translate(4.95,3.04) rotate(13.63) scale(0.900)">
        <g transform="translate(4.02,2.14) rotate(9.39) scale(0.880)">
        <rect x="-25.3" y="-25.3" width="50.6" height="50.6" rx="12.6" fill="url(#lgrad1)" filter="url(#shadow)" opacity="0.90"/>
        <circle cx="0" cy="0" r="16.9" fill="url(#rgrad2)" opacity="0.63"/>
      </g>
      </g>
      </g>
      </g>
      </g>
      </g>
      </g>
  </g>
  <g transform="translate(1449.4, 684.8)">
      <g transform="translate(1.03,3.91) rotate(4.98) scale(1.000)">
        <g transform="translate(3.25,3.50) rotate(9.56) scale(0.980)">
        <g transform="translate(4.67,2.77) rotate(13.17) scale(0.960)">
        <g transform="translate(4.95,1.79) rotate(15.31) scale(0.940)">
        <g transform="translate(4.02,0.65) rotate(15.56) scale(0.920)">
        <g transform="translate(2.11,-0.54) rotate(13.63) scale(0.900)" mask="url(#maskStripes)">
        <g transform="translate(-0.33,-1.69) rotate(9.39) scale(0.880)">
        <path d="M23.4,13.5 L0.0,27.1 L-23.4,13.5 L-23.4,-13.5 L-0.0,-27.1 L23.4,-13.5Z" fill="url(#rgrad2)" filter="url(#blur2)" opacity="0.87"/>
        <ellipse cx="0" cy="0" rx="11.3" ry="7.5" fill="#FFFFFF" opacity="0.43"/>
      </g>
      </g>
      </g>
      </g>
      </g>
      </g>
      </g>
  </g>
  <g transform="translate(1662.9, 680.8)">
      <g transform="translate(4.67,1.42) rotate(4.98) scale(1.000)">
        <g transform="translate(4.95,0.26) rotate(9.56) scale(0.980)">
        <g transform="translate(4.02,-0.94) rotate(13.17) scale(0.960)">
        <g transform="translate(2.11,-2.04) rotate(15.31) scale(0.940)">
        <g transform="translate(-0.33,-2.97) rotate(15.56) scale(0.920)">
        <g transform="translate(-2.68,-3.63) rotate(13.63) scale(0.900)">
        <g transform="translate(-4.37,-3.96) rotate(9.39) scale(0.880)">
        <circle cx="0" cy="0" r="26.7" fill="url(#rgrad3)" filter="url(#shadow)" opacity="0.80"/>
        <text x="0" y="5" text-anchor="middle" font-family="Arial, sans-serif" font-size="14" fill="#FFFFFF" opacity="0.80">532</text>
      </g>
      </g>
      </g>
      </g>
      </g>
      </g>
      </g>
  </g>
  <g transform="translate(110.8, 946.9)">
      <g transform="translate(4.02,-2.38) rotate(4.98) scale(1.000)">
        <g transform="translate(2.11,-3.22) rotate(9.56) scale(0.980)">
        <g transform="translate(-0.33,-3.78) rotate(13.17) scale(0.960)">
        <g transform="translate(-2.68,-4.00) rotate(15.31) scale(0.940)" clip-path="url(#clipDynamic)">
        <g transform="translate(-4.37,-3.86) rotate(15.56) scale(0.920)">
        <g transform="translate(-5.00,-3.38) rotate(13.63) scale(0.900)">
        <g transform="translate(-4.40,-2.59) rotate(9.39) scale(0.880)">
        <path d="M0.0,-67.7 L19.9,-27.4 L64.4,-20.9 L32.2,10.5 L39.8,54.8 L0.0,33.8 L-39.8,54.8 L-32.2,10.5 L-64.4,-20.9 L-19.9,-27.4Z" fill="url(#lgrad4)" filter="url(#blur4)" opacity="0.71"/>
      </g>
      </g>
      </g>
      </g>
      </g>
      </g>
      </g>
  </g>
  <g transform="translate(280.3, 221.6)" mask="url(#maskGradient)">
    <ellipse cx="0" cy="0" rx="200" ry="150" fill="url(#rgrad0)" filter="url(#blur3)" opacity="0.3"/>
  </g>
  <g transform="translate(706.9, 250.2)" mask="url(#maskCircleFade)">
    <ellipse cx="0" cy="0" rx="200" ry="150" fill="url(#rgrad1)" filter="url(#blur3)" opacity="0.3"/>
  </g>
  <g transform="translate(1219.0, 302.2)" mask="url(#maskStripes)">
    <ellipse cx="0" cy="0" rx="200" ry="150" fill="url(#rgrad2)" filter="url(#blur3)" opacity="0.3"/>
  </g>
</svg>