<?xml version="1.0" encoding="UTF-8"?>
<svg xmlns="http://www.w3.org/2000/svg" viewBox="0 0 1920 1080" width="1920" height="1080">
  <defs>
    <filter id="blur0" x="-50%" y="-50%" width="200%" height="200%">
      <feGaussianBlur in="SourceGraphic" stdDeviation="1"/>
    </filter>
    <filter id="blur1" x="-50%" y="-50%" width="200%" height="200%">
      <feGaussianBlur in="SourceGraphic" stdDeviation="3"/>
    </filter>
    <filter id="blur2" x="-50%" y="-50%" width="200%" height="200%">
      <feGaussianBlur in="SourceGraphic" stdDeviation="5"/>
    </filter>
    <filter id="blur3" x="-50%" y="-50%" width="200%" height="200%">
      <feGaussianBlur in="SourceGraphic" stdDeviation="7"/>
    </filter>
    <filter id="blur4" x="-50%" y="-50%" width="200%" height="200%">
      <feGaussianBlur in="SourceGraphic" stdDeviation="9"/>
    </filter>
    <filter id="shadow" x="-50%" y="-50%" width="200%" height="200%">
      <feGaussianBlur in="SourceAlpha" stdDeviation="3" result="blur"/>
      <feOffset in="blur" dx="4" dy="4" result="offsetBlur"/>
      <feMerge>
        <feMergeNode in="offsetBlur"/>
        <feMergeNode in="SourceGraphic"/>
      </feMerge>
    </filter>
    <linearGradient id="lgrad0" x1="0%" y1="0%" x2="93.9%" y2="26.1%">
      <stop offset="0%" stop-color="#FF6B6B"/>
      <stop offset="33%" stop-color="#4ECDC4"/>
      <stop offset="66%" stop-color="#45B7D1"/>
      <stop offset="100%" stop-color="#96E6A1"/>
    </linearGradient>
    <linearGradient id="lgrad1" x1="0%" y1="0%" x2="100.0%" y2="51.3%">
      <stop offset="0%" stop-color="#FFE66D"/>
      <stop offset="33%" stop-color="#FF6B6B"/>
      <stop offset="66%" stop-color="#C44D58"/>
      <stop offset="100%" stop-color="#8B0000"/>
    </linearGradient>
    <linearGradient id="lgrad2" x1="0%" y1="0%" x2="92.6%" y2="76.1%">
      <stop offset="0%" stop-color="#4169E1"/>
      <stop offset="33%" stop-color="#7B68EE"/>
      <stop offset="66%" stop-color="#9370DB"/>
      <stop offset="100%" stop-color="#FFD700"/>
    </linearGradient>
    <linearGradient id="lgrad3" x1="0%" y1="0%" x2="73.9%" y2="93.9%">
      <stop offset="0%" stop-color="#32CD32"/>
      <stop offset="33%" stop-color="#228B22"/>
      <stop offset="66%" stop-color="#006400"/>
      <stop offset="100%" stop-color="#ADFF2F"/>
    </linearGradient>
    <linearGradient id="lgrad4" x1="0%" y1="0%" x2="48.7%" y2="100.0%">
      <stop offset="0%" stop-color="#FF1493"/>
      <stop offset="33%" stop-color="#FF69B4"/>
      <stop offset="66%" stop-color="#FFB6C1"/>
      <stop offset="100%" stop-color="#FFC0CB"/>
    </linearGradient>
    <radialGradient id="rgrad0" cx="41.9%" cy="64.6%" r="60%">
      <stop offset="0%" stop-color="#FF6B6B" stop-opacity="1"/>
      <stop offset="50%" stop-color="#4ECDC4" stop-opacity="0.8"/>
      <stop offset="100%" stop-color="#45B7D1" stop-opacity="0.6"/>
    </radialGradient>
    <radialGradient id="rgrad1" cx="51.9%" cy="32.6%" r="60%">
      <stop offset="0%" stop-color="#FFE66D" stop-opacity="1"/>
      <stop offset="50%" stop-color="#FF6B6B" stop-opacity="0.8"/>
      <stop offset="100%" stop-color="#C44D58" stop-opacity="0.6"/>
    </radialGradient>
    <radialGradient id="rgrad2" cx="61.9%" cy="40.6%" r="60%">
      <stop offset="0%" stop-color="#4169E1" stop-opacity="1"/>
      <stop offset="50%" stop-color="#7B68EE" stop-opacity="0.8"/>
      <stop offset="100%" stop-color="#9370DB" stop-opacity="0.6"/>
    </radialGradient>
    <radialGradient id="rgrad3" cx="31.9%" cy="48.6%" r="60%">
      <stop offset="0%" stop-color="#32CD32" stop-opacity="1"/>
      <stop offset="50%" stop-color="#228B22" stop-opacity="0.8"/>
      <stop offset="100%" stop-color="#006400" stop-opacity="0.6"/>
    </radialGradient>
    <radialGradient id="rgrad4" cx="41.9%" cy="56.6%" r="60%">
      <stop offset="0%" stop-color="#FF1493" stop-opacity="1"/>
      <stop offset="50%" stop-color="#FF69B4" stop-opacity="0.8"/>
      <stop offset="100%" stop-color="#FFB6C1" stop-opacity="0.6"/>
    </radialGradient>
    <clipPath id="clipCircle">
      <circle cx="0" cy="0" r="50"/>
    </clipPath>
    <clipPath id="clipStar">
      <path d="M0.0,-50.0 L14.7,-20.2 L47.6,-15.5 L23.8,7.7 L29.4,40.5 L0.0,25.0 L-29.4,40.5 L-23.8,7.7 L-47.6,-15.5 L-14.7,-20.2Z"/>
    </clipPath>
    <clipPath id="clipHex">
      <path d="M39.0,22.5 L0.0,45.0 L-39.0,22.5 L-39.0,-22.5 L-0.0,-45.0 L39.0,-22.5Z"/>
    </clipPath>
    <clipPath id="clipRect">
      <rect x="-40" y="-30" width="80" height="60" rx="10"/>
    </clipPath>
    <clipPath id="clipDynamic">
      <circle cx="0" cy="0" r="28.4"/>
    </clipPath>
    <mask id="maskGradient" maskContentUnits="objectBoundingBox">
      <rect x="0" y="0" width="1" height="1" fill="url(#maskGrad)"/>
    </mask>
    <linearGradient id="maskGrad" x1="0%" y1="0%" x2="100%" y2="100%">
      <stop offset="0%" stop-color="white"/>
      <stop offset="100%" stop-color="black"/>
    </linearGradient>
    <mask id="maskCircleFade">
      <circle cx="0" cy="0" r="60" fill="white"/>
      <circle cx="0" cy="0" r="30" fill="black"/>
    </mask>
    <mask id="maskStripes">
      <rect x="-50" y="-50" width="100" height="100" fill="white"/>
      <rect x="-50" y="-40" width="100" height="10" fill="black"/>
      <rect x="-50" y="-20" width="100" height="10" fill="black"/>
      <rect x="-50" y="0" width="100" height="10" fill="black"/>
      <rect x="-50" y="20" width="100" height="10" fill="black"/>
      <rect x="-50" y="40" width="100" height="10" fill="black"/>
    </mask>
    <mask id="maskDynamic">
      <rect x="-60" y="-60" width="120" height="120" fill="white" fill-opacity="0.98"/>
      <circle cx="0" cy="0" r="25" fill="white"/>
    </mask>
  </defs>
  <rect width="1920" height="1080" fill="url(#lgrad0)"/>
  <g transform="translate(86.8, 77.6)">
      <g transform="translate(-2.20,-3.59) rotate(4.87) scale(1.000)">
        <g transform="translate(-4.08,-2.91) rotate(9.10) scale(0.980)">
        <g transform="translate(-4.97,-1.97) rotate(12.14) scale(0.960)">
        <g transform="translate(-4.63,-0.85) rotate(13.53) scale(0.940)" clip-path="url(#clipCircle)">
        <g transform="translate(-3.17,0.34) rotate(12.91) scale(0.920)">
        <g transform="translate(-0.92,1.50) rotate(10.08) scale(0.900)">
        <g transform="translate(1.55,2.53) rotate(4.98) scale(0.880)">
        <path d="M0.0,-74.6 L21.9,-30.2 L71.0,-23.1 L35.5,11.5 L43.9,60.4 L0.0,37.3 L-43.9,60.4 L-35.5,11.5 L-71.0,-23.1 L-21.9,-30.2Z" fill="url(#lgrad0)" filter="url(#blur0)" opacity="0.89"/>
      </g>
      </g>
      </g>
      </g>
      </g>
      </g>
      </g>
  </g>
  <g transform="translate(295.5, 89.9)">
      <g transform="translate(-4.97,-0.46) rotate(4.87) scale(1.000)">
        <g transform="translate(-4.63,0.74) rotate(9.10) scale(0.980)">
        <g transform="translate(-3.17,1.87) rotate(12.14) scale(0.960)">
        <g transform="translate(-0.92,2.83) rotate(13.53) scale(0.940)">
        <g transform="translate(1.55,3.54) rotate(12.91) scale(0.920)">
        <g transform="translate(3.64,3.93) rotate(10.08) scale(0.900)" mask="url(#maskCircleFade)">
        <g transform="translate(4.84,3.97) rotate(4.98) scale(0.880)">
        <rect x="-32.5" y="-32.5" width="65.0" height="65.0" rx="16.3" fill="url(#rgrad1)" filter="url(#shadow)" opacity="0.85"/>
        <circle cx="0" cy="0" r="21.7" fill="url(#rgrad2)" opacity="0.59"/>
      </g>
      </g>
      </g>
      </g>
      </g>
      </g>
      </g>
  </g>
  <g transform="translate(510.2, 107.0)">
      <g transform="translate(-3.17,3.10) rotate(4.87) scale(1.000)">
        <g transform="translate(-0.92,3.71) rotate(9.10) scale(0.980)">
        <g transform="translate(1.55,3.99) rotate(12.14) scale(0.960)">
        <g transform="translate(3.64,3.91) rotate(13.53) scale(0.940)">
        <g transform="translate(4.84,3.48) rotate(12.91) scale(0.920)">
        <g transform="translate(4.85,2.75) rotate(10.08) scale(0.900)">
        <g transform="translate(3.68,1.76) rotate(4.98) scale(0.880)">
        <path d="M26.4,15.3 L0.0,30.5 L-26.4,15.3 L-26.4,-15.3 L-0.0,-30.5 L26.4,-15.3Z" fill="url(#rgrad2)" filter="url(#blur2)" opacity="0.77"/>
        <ellipse cx="0" cy="0" rx="12.7" ry="8.5" fill="#FFFFFF" opacity="0.39"/>
      </g>
      </g>
      </g>
      </g>
      </g>
      </g>
      </g>
  </g>
  <g transform="translate(732.2, 120.8)">
      <g transform="translate(1.55,3.80) rotate(4.87) scale(1.000)">
        <g transform="translate(3.64,3.27) rotate(9.10) scale(0.980)">
        <g transform="translate(4.84,2.44) rotate(12.14) scale(0.960)">
        <g transform="translate(4.85,1.40) rotate(13.53) scale(0.940)" clip-path="url(#clipRect)">
        <g transform="translate(3.68,0.23) rotate(12.91) scale(0.920)">
        <g transform="translate(1.61,-0.96) rotate(10.08) scale(0.900)">
        <g transform="translate(-0.86,-2.07) rotate(4.98) scale(0.880)">
        <circle cx="0" cy="0" r="22.5" fill="url(#lgrad3)" filter="url(#shadow)" opacity="0.67"/>
        <text x="0" y="5" text-anchor="middle" font-family="Arial, sans-serif" font-size="14" fill="#FFFFFF" opacity="0.67">573</text>
      </g>
      </g>
      </g>
      </g>
      </g>
      </g>
      </g>
  </g>
  <g transform="translate(961.0, 124.8)">
      <g transform="translate(4.84,1.01) rotate(4.87) scale(1.000)">
        <g transform="translate(4.85,-0.17) rotate(9.10) scale(0.980)">
        <g transform="translate(3.68,-1.35) rotate(12.14) scale(0.960)">
        <g transform="translate(1.61,-2.40) rotate(13.53) scale(0.940)">
        <g transform="translate(-0.86,-3.24) rotate(12.91) scale(0.920)">
        <g transform="translate(-3.12,-3.79) rotate(10.08) scale(0.900)" mask="url(#maskGradient)">
        <g transform="translate(-4.61,-4.00) rotate(4.98) scale(0.880)">
        <path d="M0.0,-53.0 L15.6,-21.4 L50.4,-16.4 L25.2,8.2 L31.2,42.9 L0.0,26.5 L-31.2,42.9 L-25.2,8.2 L-50.4,-16.4 L-15.6,-21.4Z" fill="url(#rgrad4)" filter="url(#blur4)" opacity="0.56"/>
      </g>
      </g>
      </g>
      </g>
      </g>
      </g>
      </g>
  </g>
  <g transform="translate(1194.5, 117.2)">
      <g transform="translate(3.68,-2.71) rotate(4.87) scale(1.000)">
        <g transform="translate(1.61,-3.46) rotate(9.10) scale(0.980)">
        <g transform="translate(-0.86,-3.90) rotate(12.14) scale(0.960)">
        <g transform="translate(-3.12,-3.99) rotate(13.53) scale(0.940)">
        <g transform="translate(-4.61,-3.73) rotate(12.91) scale(0.920)">
        <g transform="translate(-4.97,-3.13) rotate(10.08) scale(0.900)">
        <g transform="translate(-4.12,-2.25) rotate(4.98) scale(0.880)">
        <rect x="-33.7" y="-33.7" width="67.4" height="67.4" rx="16.8" fill="url(#rgrad0)" filter="url(#shadow)" opacity="0.44"/>
        <circle cx="0" cy="0" r="22.5" fill="url(#rgrad1)" opacity="0.31"/>
      </g>
      </g>
      </g>
      </g>
      </g>
      </g>
      </g>
  </g>
  <g transform="translate(1429.3, 101.4)">
      <g transform="translate(-0.86,-3.94) rotate(4.87) scale(1.000)">
        <g transform="translate(-3.12,-3.56) rotate(9.10) scale(0.980)">
        <g transform="translate(-4.61,-2.86) rotate(12.14) scale(0.960)">
        <g transform="translate(-4.97,-1.91) rotate(13.53) scale(0.940)" clip-path="url(#clipStar)">
        <g transform="translate(-4.12,-0.79) rotate(12.91) scale(0.920)">
        <g transform="translate(-2.26,0.41) rotate(10.08) scale(0.900)">
        <g transform="translate(0.16,1.57) rotate(4.98) scale(0.880)">
        <path d="M39.0,22.5 L0.0,45.0 L-39.0,22.5 L-39.0,-22.5 L-0.0,-45.0 L39.0,-22.5Z" fill="url(#lgrad1)" filter="url(#blur1)" opacity="0.32"/>
        <ellipse cx="0" cy="0" rx="18.7" ry="12.5" fill="#FFFFFF" opacity="0.16"/>
      </g>
      </g>
      </g>
      </g>
      </g>
      </g>
      </g>
  </g>
  <g transform="translate(1661.8, 85.0)">
      <g transform="translate(-4.61,-1.55) rotate(4.87) scale(1.000)">
        <g transform="translate(-4.97,-0.39) rotate(9.10) scale(0.980)">
        <g transform="translate(-4.12,0.80) rotate(12.14) scale(0.960)">
        <g transform="translate(-2.26,1.92) rotate(13.53) scale(0.940)">
        <g transform="translate(0.16,2.88) rotate(12.91) scale(0.920)">
        <g transform="translate(2.53,3.57) rotate(10.08) scale(0.900)" mask="url(#maskDynamic)">
        <g transform="translate(4.29,3.94) rotate(4.98) scale(0.880)">
        <circle cx="0" cy="0" r="34.4" fill="url(#rgrad2)" filter="url(#shadow)" opacity="0.23"/>
        <text x="0" y="5" text-anchor="middle" font-family="Arial, sans-serif" font-size="14" fill="#FFFFFF" opacity="0.23">573</text>
      </g>
      </g>
      </g>
      </g>
      </g>
      </g>
      </g>
  </g>
  <g transform="translate(129.0, 355.6)">
      <g transform="translate(-4.12,2.27) rotate(4.87) scale(1.000)">
        <g transform="translate(-2.26,3.14) rotate(9.10) scale(0.980)">
        <g transform="translate(0.16,3.73) rotate(12.14) scale(0.960)">
        <g transform="translate(2.53,3.99) rotate(13.53) scale(0.940)">
        <g transform="translate(4.29,3.89) rotate(12.91) scale(0.920)">
        <g transform="translate(5.00,3.45) rotate(10.08) scale(0.900)">
        <g transform="translate(4.48,2.70) rotate(4.98) scale(0.880)">
        <path d="M0.0,-54.5 L16.0,-22.1 L51.9,-16.8 L25.9,8.4 L32.0,44.1 L0.0,27.3 L-32.0,44.1 L-25.9,8.4 L-51.9,-16.8 L-16.0,-22.1Z" fill="url(#rgrad3)" filter="url(#blur3)" opacity="0.15"/>
      </g>
      </g>
      </g>
      </g>
      </g>
      </g>
      </g>
  </g>
  <g transform="translate(349.1, 357.7)">
      <g transform="translate(0.16,4.00) rotate(4.87) scale(1.000)">
        <g transform="translate(2.53,3.78) rotate(9.10) scale(0.980)">
        <g transform="translate(4.29,3.23) rotate(12.14) scale(0.960)">
        <g transform="translate(5.00,2.39) rotate(13.53) scale(0.940)" clip-path="url(#clipDynamic)">
        <g transform="translate(4.48,1.33) rotate(12.91) scale(0.920)">
        <g transform="translate(2.87,0.16) rotate(10.08) scale(0.900)">
        <g transform="translate(0.55,-1.03) rotate(4.98) scale(0.880)">
        <rect x="-22.6" y="-22.6" width="45.3" height="45.3" rx="11.3" fill="url(#lgrad4)" filter="url(#shadow)" opacity="0.11"/>
        <circle cx="0" cy="0" r="15.1" fill="url(#rgrad0)" opacity="0.08"/>
      </g>
      </g>
      </g>
      </g>
      </g>
      </g>
      </g>
  </g>
  <g transform="translate(562.1, 370.3)">
      <g transform="translate(4.29,2.06) rotate(4.87) scale(1.000)">
        <g transform="translate(5.00,0.95) rotate(9.10) scale(0.980)">
        <g transform="translate(4.48,-0.24) rotate(12.14) scale(0.960)">
        <g transform="translate(2.87,-1.41) rotate(13.53) scale(0.940)">
        <g transform="translate(0.55,-2.45) rotate(12.91) scale(0.920)">
        <g transform="translate(-1.90,-3.28) rotate(10.08) scale(0.900)" mask="url(#maskStripes)">
        <g transform="translate(-3.88,-3.81) rotate(4.98) scale(0.880)">
        <path d="M25.8,14.9 L0.0,29.8 L-25.8,14.9 L-25.8,-14.9 L-0.0,-29.8 L25.8,-14.9Z" fill="url(#rgrad0)" filter="url(#blur0)" opacity="0.10"/>
        <ellipse cx="0" cy="0" rx="12.4" ry="8.3" fill="#FFFFFF" opacity="0.05"/>
      </g>
      </g>
      </g>
      </g>
      </g>
      </g>
      </g>
  </g>
  <g transform="translate(769.6, 387.4)">
      <g transform="translate(4.48,-1.78) rotate(4.87) scale(1.000)">
        <g transform="translate(2.87,-2.76) rotate(9.10) scale(0.980)">
        <g transform="translate(0.55,-3.49) rotate(12.14) scale(0.960)">
        <g transform="translate(-1.90,-3.91) rotate(13.53) scale(0.940)">
        <g transform="translate(-3.88,-3.98) rotate(12.91) scale(0.920)">
        <g transform="translate(-4.92,-3.70) rotate(10.08) scale(0.900)">
        <g transform="translate(-4.75,-3.09) rotate(4.98) scale(0.880)">
        <circle cx="0" cy="0" r="31.7" fill="url(#rgrad1)" filter="url(#shadow)" opacity="0.13"/>
        <text x="0" y="5" text-anchor="middle" font-family="Arial, sans-serif" font-size="14" fill="#FFFFFF" opacity="0.13">573</text>
      </g>
      </g>
      </g>
      </g>
      </g>
      </g>
      </g>
  </g>
  <g transform="translate(974.8, 401.1)">
      <g transform="translate(0.55,-3.98) rotate(4.87) scale(1.000)">
        <g transform="translate(-1.90,-3.93) rotate(9.10) scale(0.980)">
        <g transform="translate(-3.88,-3.53) rotate(12.14) scale(0.960)">
        <g transform="translate(-4.92,-2.82) rotate(13.53) scale(0.940)" clip-path="url(#clipHex)">
        <g transform="translate(-4.75,-1.85) rotate(12.91) scale(0.920)">
        <g transform="translate(-3.42,-0.72) rotate(10.08) scale(0.900)">
        <g transform="translate(-1.25,0.47) rotate(4.98) scale(0.880)">
        <path d="M0.0,-74.1 L21.8,-30.0 L70.5,-22.9 L35.3,11.5 L43.6,60.0 L0.0,37.1 L-43.6,60.0 L-35.3,11.5 L-70.5,-22.9 L-21.8,-30.0Z" fill="url(#lgrad2)" filter="url(#blur2)" opacity="0.19"/>
      </g>
      </g>
      </g>
      </g>
      </g>
      </g>
      </g>
  </g>
  <g transform="translate(1181.3, 404.8)">
      <g transform="translate(-3.88,-2.52) rotate(4.87) scale(1.000)">
        <g transform="translate(-4.92,-1.49) rotate(9.10) scale(0.980)">
        <g transform="translate(-4.75,-0.32) rotate(12.14) scale(0.960)">
        <g transform="translate(-3.42,0.87) rotate(13.53) scale(0.940)">
        <g transform="translate(-1.25,1.98) rotate(12.91) scale(0.920)">
        <g transform="translate(1.23,2.92) rotate(10.08) scale(0.900)" mask="url(#maskCircleFade)">
        <g transform="translate(3.40,3.60) rotate(4.98) scale(0.880)">
        <rect x="-35.9" y="-35.9" width="71.8" height="71.8" rx="18.0" fill="url(#rgrad3)" filter="url(#shadow)" opacity="0.28"/>
        <circle cx="0" cy="0" r="23.9" fill="url(#rgrad4)" opacity="0.20"/>
      </g>
      </g>
      </g>
      </g>
      </g>
      </g>
      </g>
  </g>
  <g transform="translate(1392.3, 396.8)">
      <g transform="translate(-4.75,1.25) rotate(4.87) scale(1.000)">
        <g transform="translate(-3.42,2.32) rotate(9.10) scale(0.980)">
        <g transform="translate(-1.25,3.18) rotate(12.14) scale(0.960)">
        <g transform="translate(1.23,3.75) rotate(13.53) scale(0.940)">
        <g transform="translate(3.40,3.99) rotate(12.91) scale(0.920)">
        <g transform="translate(4.74,3.88) rotate(10.08) scale(0.900)">
        <g transform="translate(4.92,3.41) rotate(4.98) scale(0.880)">
        <path d="M30.5,17.6 L0.0,35.2 L-30.5,17.6 L-30.5,-17.6 L-0.0,-35.2 L30.5,-17.6Z" fill="url(#rgrad4)" filter="url(#blur4)" opacity="0.39"/>
        <ellipse cx="0" cy="0" rx="14.7" ry="9.8" fill="#FFFFFF" opacity="0.19"/>
      </g>
      </g>
      </g>
      </g>
      </g>
      </g>
      </g>
  </g>
  <g transform="translate(1610.2, 381.0)">
      <g transform="translate(-1.25,3.87) rotate(4.87) scale(1.000)">
        <g transform="translate(1.23,4.00) rotate(9.10) scale(0.980)">
        <g transform="translate(3.40,3.76) rotate(12.14) scale(0.960)">
        <g transform="translate(4.74,3.19) rotate(13.53) scale(0.940)" clip-path="url(#clipCircle)">
        <g transform="translate(4.92,2.33) rotate(12.91) scale(0.920)">
        <g transform="translate(3.90,1.27) rotate(10.08) scale(0.900)">
        <g transform="translate(1.92,0.09) rotate(4.98) scale(0.880)">
        <circle cx="0" cy="0" r="23.3" fill="url(#lgrad0)" filter="url(#shadow)" opacity="0.51"/>
        <text x="0" y="5" text-anchor="middle" font-family="Arial, sans-serif" font-size="14" fill="#FFFFFF" opacity="0.51">573</text>
      </g>
      </g>
      </g>
      </g>
      </g>
      </g>
      </g>
  </g>
  <g transform="translate(75.3, 644.7)">
      <g transform="translate(3.40,2.93) rotate(4.87) scale(1.000)">
        <g transform="translate(4.74,2.00) rotate(9.10) scale(0.980)">
        <g transform="translate(4.92,0.88) rotate(12.14) scale(0.960)">
        <g transform="translate(3.90,-0.31) rotate(13.53) scale(0.940)">
        <g transform="translate(1.92,-1.47) rotate(12.91) scale(0.920)">
        <g transform="translate(-0.53,-2.51) rotate(10.08) scale(0.900)" mask="url(#maskGradient)">
        <g transform="translate(-2.85,-3.32) rotate(4.98) scale(0.880)">
        <path d="M0.0,-47.0 L13.8,-19.0 L44.7,-14.5 L22.3,7.3 L27.6,38.0 L0.0,23.5 L-27.6,38.0 L-22.3,7.3 L-44.7,-14.5 L-13.8,-19.0Z" fill="url(#rgrad1)" filter="url(#blur1)" opacity="0.62"/>
      </g>
      </g>
      </g>
      </g>
      </g>
      </g>
      </g>
  </g>
  <g transform="translate(306.4, 635.6)">
      <g transform="translate(4.92,-0.71) rotate(4.87) scale(1.000)">
        <g transform="translate(3.90,-1.84) rotate(9.10) scale(0.980)">
        <g transform="translate(1.92,-2.81) rotate(12.14) scale(0.960)">
        <g transform="translate(-0.53,-3.52) rotate(13.53) scale(0.940)">
        <g transform="translate(-2.85,-3.93) rotate(12.91) scale(0.920)">
        <g transform="translate(-4.47,-3.98) rotate(10.08) scale(0.900)">
        <g transform="translate(-5.00,-3.67) rotate(4.98) scale(0.880)">
        <rect x="-29.6" y="-29.6" width="59.2" height="59.2" rx="14.8" fill="url(#rgrad2)" filter="url(#shadow)" opacity="0.73"/>
        <circle cx="0" cy="0" r="19.7" fill="url(#rgrad3)" opacity="0.51"/>
      </g>
      </g>
      </g>
      </g>
      </g>
      </g>
      </g>
  </g>
  <g transform="translate(540.9, 637.9)">
      <g transform="translate(1.92,-3.69) rotate(4.87) scale(1.000)">
        <g transform="translate(-0.53,-3.98) rotate(9.10) scale(0.980)">
        <g transform="translate(-2.85,-3.92) rotate(12.14) scale(0.960)">
        <g transform="translate(-4.47,-3.50) rotate(13.53) scale(0.940)" clip-path="url(#clipRect)">
        <g transform="translate(-5.00,-2.77) rotate(12.91) scale(0.920)">
        <g transform="translate(-4.30,-1.79) rotate(10.08) scale(0.900)">
        <g transform="translate(-2.55,-0.65) rotate(4.98) scale(0.880)">
        <path d="M37.5,21.7 L0.0,43.3 L-37.5,21.7 L-37.5,-21.7 L-0.0,-43.3 L37.5,-21.7Z" fill="url(#lgrad3)" filter="url(#blur3)" opacity="0.82"/>
        <ellipse cx="0" cy="0" rx="18.0" ry="12.0" fill="#FFFFFF" opacity="0.41"/>
      </g>
      </g>
      </g>
      </g>
      </g>
      </g>
      </g>
  </g>
  <g transform="translate(775.2, 650.7)">
      <g transform="translate(-2.85,-3.29) rotate(4.87) scale(1.000)">
        <g transform="translate(-4.47,-2.47) rotate(9.10) scale(0.980)">
        <g transform="translate(-5.00,-1.43) rotate(12.14) scale(0.960)">
        <g transform="translate(-4.30,-0.26) rotate(13.53) scale(0.940)">
        <g transform="translate(-2.55,0.93) rotate(12.91) scale(0.920)">
        <g transform="translate(-0.18,2.04) rotate(10.08) scale(0.900)" mask="url(#maskDynamic)">
        <g transform="translate(2.24,2.97) rotate(4.98) scale(0.880)">
        <circle cx="0" cy="0" r="37.0" fill="url(#rgrad4)" filter="url(#shadow)" opacity="0.88"/>
        <text x="0" y="5" text-anchor="middle" font-family="Arial, sans-serif" font-size="14" fill="#FFFFFF" opacity="0.88">573</text>
      </g>
      </g>
      </g>
      </g>
      </g>
      </g>
      </g>
  </g>
  <g transform="translate(1005.7, 667.8)">
      <g transform="translate(-5.00,0.14) rotate(4.87) scale(1.000)">
        <g transform="translate(-4.30,1.32) rotate(9.10) scale(0.980)">
        <g transform="translate(-2.55,2.37) rotate(12.14) scale(0.960)">
        <g transform="translate(-0.18,3.22) rotate(13.53) scale(0.940)">
        <g transform="translate(2.24,3.78) rotate(12.91) scale(0.920)">
        <g transform="translate(4.11,4.00) rotate(10.08) scale(0.900)">
        <g transform="translate(4.97,3.86) rotate(4.98) scale(0.880)">
        <path d="M0.0,-62.9 L18.5,-25.4 L59.8,-19.4 L29.9,9.7 L37.0,50.9 L0.0,31.4 L-37.0,50.9 L-29.9,9.7 L-59.8,-19.4 L-18.5,-25.4Z" fill="url(#rgrad0)" filter="url(#blur0)" opacity="0.90"/>
      </g>
      </g>
      </g>
      </g>
      </g>
      </g>
      </g>
  </g>
  <g transform="translate(1230.0, 681.3)">
      <g transform="translate(-2.55,3.44) rotate(4.87) scale(1.000)">
        <g transform="translate(-0.18,3.89) rotate(9.10) scale(0.980)">
        <g transform="translate(2.24,3.99) rotate(12.14) scale(0.960)">
        <g transform="translate(4.11,3.74) rotate(13.53) scale(0.940)" clip-path="url(#clipStar)">
        <g transform="translate(4.97,3.15) rotate(12.91) scale(0.920)">
        <g transform="translate(4.62,2.28) rotate(10.08) scale(0.900)">
        <g transform="translate(3.13,1.20) rotate(4.98) scale(0.880)">
        <rect x="-24.6" y="-24.6" width="49.2" height="49.2" rx="12.3" fill="url(#lgrad1)" filter="url(#shadow)" opacity="0.89"/>
        <circle cx="0" cy="0" r="16.4" fill="url(#rgrad2)" opacity="0.62"/>
      </g>
      </g>
      </g>
      </g>
      </g>
      </g>
      </g>
  </g>
  <g transform="translate(1446.9, 684.7)">
      <g transform="translate(2.24,3.58) rotate(4.87) scale(1.000)">
        <g transform="translate(4.11,2.89) rotate(9.10) scale(0.980)">
        <g transform="translate(4.97,1.94) rotate(12.14) scale(0.960)">
        <g transform="translate(4.62,0.82) rotate(13.53) scale(0.940)">
        <g transform="translate(3.13,-0.38) rotate(12.91) scale(0.920)">
        <g transform="translate(0.88,-1.54) rotate(10.08) scale(0.900)" mask="url(#maskStripes)">
        <g transform="translate(-1.59,-2.56) rotate(4.98) scale(0.880)">
        <path d="M23.6,13.6 L0.0,27.3 L-23.6,13.6 L-23.6,-13.6 L-0.0,-27.3 L23.6,-13.6Z" fill="url(#rgrad2)" filter="url(#blur2)" opacity="0.84"/>
        <ellipse cx="0" cy="0" rx="11.4" ry="7.6" fill="#FFFFFF" opacity="0.42"/>
      </g>
      </g>
      </g>
      </g>
      </g>
      </g>
      </g>
  </g>
  <g transform="translate(1657.2, 676.5)">
      <g transform="translate(4.97,0.42) rotate(4.87) scale(1.000)">
        <g transform="translate(4.62,-0.77) rotate(9.10) scale(0.980)">
        <g transform="translate(3.13,-1.90) rotate(12.14) scale(0.960)">
        <g transform="translate(0.88,-2.85) rotate(13.53) scale(0.940)">
        <g transform="translate(-1.59,-3.55) rotate(12.91) scale(0.920)">
        <g transform="translate(-3.67,-3.94) rotate(10.08) scale(0.900)">
        <g transform="translate(-4.85,-3.97) rotate(4.98) scale(0.880)">
        <circle cx="0" cy="0" r="27.5" fill="url(#rgrad3)" filter="url(#shadow)" opacity="0.77"/>
        <text x="0" y="5" text-anchor="middle" font-family="Arial, sans-serif" font-size="14" fill="#FFFFFF" opacity="0.77">573</text>
      </g>
      </g>
      </g>
      </g>
      </g>
      </g>
      </g>
  </g>
  <g transform="translate(103.3, 940.6)">
      <g transform="translate(3.13,-3.12) rotate(4.87) scale(1.000)">
        <g transform="translate(0.88,-3.72) rotate(9.10) scale(0.980)">
        <g transform="translate(-1.59,-3.99) rotate(12.14) scale(0.960)">
        <g transform="translate(-3.67,-3.90) rotate(13.53) scale(0.940)" clip-path="url(#clipDynamic)">
        <g transform="translate(-4.85,-3.46) rotate(12.91) scale(0.920)">
        <g transform="translate(-4.84,-2.72) rotate(10.08) scale(0.900)">
        <g transform="translate(-3.65,-1.73) rotate(4.98) scale(0.880)">
        <path d="M0.0,-69.3 L20.4,-28.0 L65.9,-21.4 L32.9,10.7 L40.7,56.0 L0.0,34.6 L-40.7,56.0 L-32.9,10.7 L-65.9,-21.4 L-20.4,-28.0Z" fill="url(#lgrad4)" filter="url(#blur4)" opacity="0.67"/>
      </g>
      </g>
      </g>
      </g>
      </g>
      </g>
      </g>
  </g>
  <g transform="translate(256.0, 228.2)" mask="url(#maskGradient)">
    <ellipse cx="0" cy="0" rx="200" ry="150" fill="url(#rgrad0)" filter="url(#blur3)" opacity="0.3"/>
  </g>
  <g transform="translate(700.7, 267.8)" mask="url(#maskCircleFade)">
    <ellipse cx="0" cy="0" rx="200" ry="150" fill="url(#rgrad1)" filter="url(#blur3)" opacity="0.3"/>
  </g>
  <g transform="translate(1236.7, 322.5)" mask="url(#maskStripes)">
    <ellipse cx="0" cy="0" rx="200" ry="150" fill="url(#rgrad2)" filter="url(#blur3)" opacity="0.3"/>
  </g>
</svg>