<?xml version="1.0" encoding="UTF-8"?>
<svg xmlns="http://www.w3.org/2000/svg" viewBox="0 0 1920 1080" width="1920" height="1080">
  <defs>
    <filter id="blur0" x="-50%" y="-50%" width="200%" height="200%">
      <feGaussianBlur in="SourceGraphic" stdDeviation="1"/>
    </filter>
    <filter id="blur1" x="-50%" y="-50%" width="200%" height="200%">
      <feGaussianBlur in="SourceGraphic" stdDeviation="3"/>
    </filter>
    <filter id="blur2" x="-50%" y="-50%" width="200%" height="200%">
      <feGaussianBlur in="SourceGraphic" stdDeviation="5"/>
    </filter>
    <filter id="blur3" x="-50%" y="-50%" width="200%" height="200%">
      <feGaussianBlur in="SourceGraphic" stdDeviation="7"/>
    </filter>
    <filter id="blur4" x="-50%" y="-50%" width="200%" height="200%">
      <feGaussianBlur in="SourceGraphic" stdDeviation="9"/>
    </filter>
    <filter id="shadow" x="-50%" y="-50%" width="200%" height="200%">
      <feGaussianBlur in="SourceAlpha" stdDeviation="3" result="blur"/>
      <feOffset in="blur" dx="4" dy="4" result="offsetBlur"/>
      <feMerge>
        <feMergeNode in="offsetBlur"/>
        <feMergeNode in="SourceGraphic"/>
      </feMerge>
    </filter>
    <linearGradient id="lgrad0" x1="0%" y1="0%" x2="35.0%" y2="2.3%">
      <stop offset="0%" stop-color="#FF6B6B"/>
      <stop offset="33%" stop-color="#4ECDC4"/>
      <stop offset="66%" stop-color="#45B7D1"/>
      <stop offset="100%" stop-color="#96E6A1"/>
    </linearGradient>
    <linearGradient id="lgrad1" x1="0%" y1="0%" x2="60.8%" y2="1.2%">
      <stop offset="0%" stop-color="#FFE66D"/>
      <stop offset="33%" stop-color="#FF6B6B"/>
      <stop offset="66%" stop-color="#C44D58"/>
      <stop offset="100%" stop-color="#8B0000"/>
    </linearGradient>
    <linearGradient id="lgrad2" x1="0%" y1="0%" x2="83.8%" y2="13.1%">
      <stop offset="0%" stop-color="#4169E1"/>
      <stop offset="33%" stop-color="#7B68EE"/>
      <stop offset="66%" stop-color="#9370DB"/>
      <stop offset="100%" stop-color="#FFD700"/>
    </linearGradient>
    <linearGradient id="lgrad3" x1="0%" y1="0%" x2="97.7%" y2="35.0%">
      <stop offset="0%" stop-color="#32CD32"/>
      <stop offset="33%" stop-color="#228B22"/>
      <stop offset="66%" stop-color="#006400"/>
      <stop offset="100%" stop-color="#ADFF2F"/>
    </linearGradient>
    <linearGradient id="lgrad4" x1="0%" y1="0%" x2="98.8%" y2="60.8%">
      <stop offset="0%" stop-color="#FF1493"/>
      <stop offset="33%" stop-color="#FF69B4"/>
      <stop offset="66%" stop-color="#FFB6C1"/>
      <stop offset="100%" stop-color="#FFC0CB"/>
    </linearGradient>
    <radialGradient id="rgrad0" cx="34.5%" cy="33.0%" r="60%">
      <stop offset="0%" stop-color="#FF6B6B" stop-opacity="1"/>
      <stop offset="50%" stop-color="#4ECDC4" stop-opacity="0.8"/>
      <stop offset="100%" stop-color="#45B7D1" stop-opacity="0.6"/>
    </radialGradient>
    <radialGradient id="rgrad1" cx="44.5%" cy="41.0%" r="60%">
      <stop offset="0%" stop-color="#FFE66D" stop-opacity="1"/>
      <stop offset="50%" stop-color="#FF6B6B" stop-opacity="0.8"/>
      <stop offset="100%" stop-color="#C44D58" stop-opacity="0.6"/>
    </radialGradient>
    <radialGradient id="rgrad2" cx="54.5%" cy="49.0%" r="60%">
      <stop offset="0%" stop-color="#4169E1" stop-opacity="1"/>
      <stop offset="50%" stop-color="#7B68EE" stop-opacity="0.8"/>
      <stop offset="100%" stop-color="#9370DB" stop-opacity="0.6"/>
    </radialGradient>
    <radialGradient id="rgrad3" cx="64.5%" cy="57.0%" r="60%">
      <stop offset="0%" stop-color="#32CD32" stop-opacity="1"/>
      <stop offset="50%" stop-color="#228B22" stop-opacity="0.8"/>
      <stop offset="100%" stop-color="#006400" stop-opacity="0.6"/>
    </radialGradient>
    <radialGradient id="rgrad4" cx="34.5%" cy="65.0%" r="60%">
      <stop offset="0%" stop-color="#FF1493" stop-opacity="1"/>
      <stop offset="50%" stop-color="#FF69B4" stop-opacity="0.8"/>
      <stop offset="100%" stop-color="#FFB6C1" stop-opacity="0.6"/>
    </radialGradient>
    <clipPath id="clipCircle">
      <circle cx="0" cy="0" r="50"/>
    </clipPath>
    <clipPath id="clipStar">
      <path d="M0.0,-50.0 L14.7,-20.2 L47.6,-15.5 L23.8,7.7 L29.4,40.5 L0.0,25.0 L-29.4,40.5 L-23.8,7.7 L-47.6,-15.5 L-14.7,-20.2Z"/>
    </clipPath>
    <clipPath id="clipHex">
      <path d="M39.0,22.5 L0.0,45.0 L-39.0,22.5 L-39.0,-22.5 L-0.0,-45.0 L39.0,-22.5Z"/>
    </clipPath>
    <clipPath id="clipRect">
      <rect x="-40" y="-30" width="80" height="60" rx="10"/>
    </clipPath>
    <clipPath id="clipDynamic">
      <circle cx="0" cy="0" r="42.7"/>
    </clipPath>
    <mask id="maskGradient" maskContentUnits="objectBoundingBox">
      <rect x="0" y="0" width="1" height="1" fill="url(#maskGrad)"/>
    </mask>
    <linearGradient id="maskGrad" x1="0%" y1="0%" x2="100%" y2="100%">
      <stop offset="0%" stop-color="white"/>
      <stop offset="100%" stop-color="black"/>
    </linearGradient>
    <mask id="maskCircleFade">
      <circle cx="0" cy="0" r="60" fill="white"/>
      <circle cx="0" cy="0" r="30" fill="black"/>
    </mask>
    <mask id="maskStripes">
      <rect x="-50" y="-50" width="100" height="100" fill="white"/>
      <rect x="-50" y="-40" width="100" height="10" fill="black"/>
      <rect x="-50" y="-20" width="100" height="10" fill="black"/>
      <rect x="-50" y="0" width="100" height="10" fill="black"/>
      <rect x="-50" y="20" width="100" height="10" fill="black"/>
      <rect x="-50" y="40" width="100" height="10" fill="black"/>
    </mask>
    <mask id="maskDynamic">
      <rect x="-60" y="-60" width="120" height="120" fill="white" fill-opacity="0.97"/>
      <circle cx="0" cy="0" r="25" fill="white"/>
    </mask>
  </defs>
  <rect width="1920" height="1080" fill="url(#lgrad0)"/>
  <g transform="translate(115.4, 78.5)">
      <g transform="translate(2.56,-3.44) rotate(4.82) scale(1.000)">
        <g transform="translate(0.19,-3.89) rotate(9.98) scale(0.980)">
        <g transform="translate(-2.23,-3.99) rotate(14.87) scale(0.960)">
        <g transform="translate(-4.10,-3.74) rotate(18.91) scale(0.940)" clip-path="url(#clipCircle)">
        <g transform="translate(-4.97,-3.15) rotate(21.56) scale(0.920)">
        <g transform="translate(-4.62,-2.29) rotate(22.33) scale(0.900)">
        <g transform="translate(-3.14,-1.21) rotate(20.89) scale(0.880)">
        <path d="M0.0,-74.5 L21.9,-30.1 L70.8,-23.0 L35.4,11.5 L43.8,60.2 L0.0,37.2 L-43.8,60.2 L-35.4,11.5 L-70.8,-23.0 L-21.9,-30.1Z" fill="url(#lgrad0)" filter="url(#blur0)" opacity="0.89"/>
      </g>
      </g>
      </g>
      </g>
      </g>
      </g>
      </g>
  </g>
  <g transform="translate(321.1, 75.3)">
      <g transform="translate(-2.23,-3.58) rotate(4.82) scale(1.000)">
        <g transform="translate(-4.10,-2.89) rotate(9.98) scale(0.980)">
        <g transform="translate(-4.97,-1.95) rotate(14.87) scale(0.960)">
        <g transform="translate(-4.62,-0.83) rotate(18.91) scale(0.940)">
        <g transform="translate(-3.14,0.37) rotate(21.56) scale(0.920)">
        <g transform="translate(-0.89,1.53) rotate(22.33) scale(0.900)" mask="url(#maskCircleFade)">
        <g transform="translate(1.58,2.55) rotate(20.89) scale(0.880)">
        <rect x="-35.6" y="-35.6" width="71.2" height="71.2" rx="17.8" fill="url(#rgrad1)" filter="url(#shadow)" opacity="0.90"/>
        <circle cx="0" cy="0" r="23.7" fill="url(#rgrad2)" opacity="0.63"/>
      </g>
      </g>
      </g>
      </g>
      </g>
      </g>
      </g>
  </g>
  <g transform="translate(526.6, 83.7)">
      <g transform="translate(-4.97,-0.43) rotate(4.82) scale(1.000)">
        <g transform="translate(-4.62,0.76) rotate(9.98) scale(0.980)">
        <g transform="translate(-3.14,1.89) rotate(14.87) scale(0.960)">
        <g transform="translate(-0.89,2.85) rotate(18.91) scale(0.940)">
        <g transform="translate(1.58,3.55) rotate(21.56) scale(0.920)">
        <g transform="translate(3.66,3.94) rotate(22.33) scale(0.900)">
        <g transform="translate(4.84,3.97) rotate(20.89) scale(0.880)">
        <path d="M29.9,17.3 L0.0,34.6 L-29.9,17.3 L-29.9,-17.3 L-0.0,-34.6 L29.9,-17.3Z" fill="url(#rgrad2)" filter="url(#blur2)" opacity="0.88"/>
        <ellipse cx="0" cy="0" rx="14.4" ry="9.6" fill="#FFFFFF" opacity="0.44"/>
      </g>
      </g>
      </g>
      </g>
      </g>
      </g>
      </g>
  </g>
  <g transform="translate(735.4, 99.8)">
      <g transform="translate(-3.14,3.11) rotate(4.82) scale(1.000)">
        <g transform="translate(-0.89,3.72) rotate(9.98) scale(0.980)">
        <g transform="translate(1.58,3.99) rotate(14.87) scale(0.960)">
        <g transform="translate(3.66,3.90) rotate(18.91) scale(0.940)" clip-path="url(#clipRect)">
        <g transform="translate(4.84,3.47) rotate(21.56) scale(0.920)">
        <g transform="translate(4.84,2.73) rotate(22.33) scale(0.900)">
        <g transform="translate(3.66,1.74) rotate(20.89) scale(0.880)">
        <circle cx="0" cy="0" r="23.1" fill="url(#lgrad3)" filter="url(#shadow)" opacity="0.82"/>
        <text x="0" y="5" text-anchor="middle" font-family="Arial, sans-serif" font-size="14" fill="#FFFFFF" opacity="0.82">415</text>
      </g>
      </g>
      </g>
      </g>
      </g>
      </g>
      </g>
  </g>
  <g transform="translate(950.2, 115.9)">
      <g transform="translate(1.58,3.80) rotate(4.82) scale(1.000)">
        <g transform="translate(3.66,3.25) rotate(9.98) scale(0.980)">
        <g transform="translate(4.84,2.42) rotate(14.87) scale(0.960)">
        <g transform="translate(4.84,1.37) rotate(18.91) scale(0.940)">
        <g transform="translate(3.66,0.20) rotate(21.56) scale(0.920)">
        <g transform="translate(1.58,-0.99) rotate(22.33) scale(0.900)" mask="url(#maskGradient)">
        <g transform="translate(-0.89,-2.09) rotate(20.89) scale(0.880)">
        <path d="M0.0,-47.5 L14.0,-19.2 L45.2,-14.7 L22.6,7.3 L27.9,38.5 L0.0,23.8 L-27.9,38.5 L-22.6,7.3 L-45.2,-14.7 L-14.0,-19.2Z" fill="url(#rgrad4)" filter="url(#blur4)" opacity="0.74"/>
      </g>
      </g>
      </g>
      </g>
      </g>
      </g>
      </g>
  </g>
  <g transform="translate(1172.3, 124.6)">
      <g transform="translate(4.84,0.99) rotate(4.82) scale(1.000)">
        <g transform="translate(4.84,-0.20) rotate(9.98) scale(0.980)">
        <g transform="translate(3.66,-1.37) rotate(14.87) scale(0.960)">
        <g transform="translate(1.58,-2.42) rotate(18.91) scale(0.940)">
        <g transform="translate(-0.89,-3.25) rotate(21.56) scale(0.920)">
        <g transform="translate(-3.14,-3.80) rotate(22.33) scale(0.900)">
        <g transform="translate(-4.62,-4.00) rotate(20.89) scale(0.880)">
        <rect x="-30.1" y="-30.1" width="60.3" height="60.3" rx="15.1" fill="url(#rgrad0)" filter="url(#shadow)" opacity="0.63"/>
        <circle cx="0" cy="0" r="20.1" fill="url(#rgrad1)" opacity="0.44"/>
      </g>
      </g>
      </g>
      </g>
      </g>
      </g>
      </g>
  </g>
  <g transform="translate(1401.2, 121.7)">
      <g transform="translate(3.66,-2.73) rotate(4.82) scale(1.000)">
        <g transform="translate(1.58,-3.47) rotate(9.98) scale(0.980)">
        <g transform="translate(-0.89,-3.90) rotate(14.87) scale(0.960)">
        <g transform="translate(-3.14,-3.99) rotate(18.91) scale(0.940)" clip-path="url(#clipStar)">
        <g transform="translate(-4.62,-3.72) rotate(21.56) scale(0.920)">
        <g transform="translate(-4.97,-3.11) rotate(22.33) scale(0.900)">
        <g transform="translate(-4.10,-2.23) rotate(20.89) scale(0.880)">
        <path d="M37.8,21.8 L0.0,43.7 L-37.8,21.8 L-37.8,-21.8 L-0.0,-43.7 L37.8,-21.8Z" fill="url(#lgrad1)" filter="url(#blur1)" opacity="0.52"/>
        <ellipse cx="0" cy="0" rx="18.2" ry="12.1" fill="#FFFFFF" opacity="0.26"/>
      </g>
      </g>
      </g>
      </g>
      </g>
      </g>
      </g>
  </g>
  <g transform="translate(1634.6, 108.6)">
      <g transform="translate(-0.89,-3.94) rotate(4.82) scale(1.000)">
        <g transform="translate(-3.14,-3.55) rotate(9.98) scale(0.980)">
        <g transform="translate(-4.62,-2.85) rotate(14.87) scale(0.960)">
        <g transform="translate(-4.97,-1.89) rotate(18.91) scale(0.940)">
        <g transform="translate(-4.10,-0.76) rotate(21.56) scale(0.920)">
        <g transform="translate(-2.23,0.43) rotate(22.33) scale(0.900)" mask="url(#maskDynamic)">
        <g transform="translate(0.19,1.59) rotate(20.89) scale(0.880)">
        <circle cx="0" cy="0" r="36.8" fill="url(#rgrad2)" filter="url(#shadow)" opacity="0.40"/>
        <text x="0" y="5" text-anchor="middle" font-family="Arial, sans-serif" font-size="14" fill="#FFFFFF" opacity="0.40">415</text>
      </g>
      </g>
      </g>
      </g>
      </g>
      </g>
      </g>
  </g>
  <g transform="translate(109.5, 371.4)">
      <g transform="translate(-4.62,-1.53) rotate(4.82) scale(1.000)">
        <g transform="translate(-4.97,-0.37) rotate(9.98) scale(0.980)">
        <g transform="translate(-4.10,0.83) rotate(14.87) scale(0.960)">
        <g transform="translate(-2.23,1.95) rotate(18.91) scale(0.940)">
        <g transform="translate(0.19,2.89) rotate(21.56) scale(0.920)">
        <g transform="translate(2.56,3.58) rotate(22.33) scale(0.900)">
        <g transform="translate(4.31,3.95) rotate(20.89) scale(0.880)">
        <path d="M0.0,-61.8 L18.2,-25.0 L58.8,-19.1 L29.4,9.6 L36.3,50.0 L0.0,30.9 L-36.3,50.0 L-29.4,9.6 L-58.8,-19.1 L-18.2,-25.0Z" fill="url(#rgrad3)" filter="url(#blur3)" opacity="0.29"/>
      </g>
      </g>
      </g>
      </g>
      </g>
      </g>
      </g>
  </g>
  <g transform="translate(341.9, 358.3)">
      <g transform="translate(-4.10,2.29) rotate(4.82) scale(1.000)">
        <g transform="translate(-2.23,3.15) rotate(9.98) scale(0.980)">
        <g transform="translate(0.19,3.74) rotate(14.87) scale(0.960)">
        <g transform="translate(2.56,3.99) rotate(18.91) scale(0.940)" clip-path="url(#clipDynamic)">
        <g transform="translate(4.31,3.89) rotate(21.56) scale(0.920)">
        <g transform="translate(5.00,3.44) rotate(22.33) scale(0.900)">
        <g transform="translate(4.47,2.68) rotate(20.89) scale(0.880)">
        <rect x="-24.2" y="-24.2" width="48.5" height="48.5" rx="12.1" fill="url(#lgrad4)" filter="url(#shadow)" opacity="0.20"/>
        <circle cx="0" cy="0" r="16.2" fill="url(#rgrad0)" opacity="0.14"/>
      </g>
      </g>
      </g>
      </g>
      </g>
      </g>
      </g>
  </g>
  <g transform="translate(569.1, 355.4)">
      <g transform="translate(0.19,4.00) rotate(4.82) scale(1.000)">
        <g transform="translate(2.56,3.77) rotate(9.98) scale(0.980)">
        <g transform="translate(4.31,3.21) rotate(14.87) scale(0.960)">
        <g transform="translate(5.00,2.37) rotate(18.91) scale(0.940)">
        <g transform="translate(4.47,1.31) rotate(21.56) scale(0.920)">
        <g transform="translate(2.84,0.13) rotate(22.33) scale(0.900)" mask="url(#maskStripes)">
        <g transform="translate(0.52,-1.05) rotate(20.89) scale(0.880)">
        <path d="M23.7,13.7 L0.0,27.4 L-23.7,13.7 L-23.7,-13.7 L-0.0,-27.4 L23.7,-13.7Z" fill="url(#rgrad0)" filter="url(#blur0)" opacity="0.13"/>
        <ellipse cx="0" cy="0" rx="11.4" ry="7.6" fill="#FFFFFF" opacity="0.07"/>
      </g>
      </g>
      </g>
      </g>
      </g>
      </g>
      </g>
  </g>
  <g transform="translate(789.1, 364.1)">
      <g transform="translate(4.31,2.03) rotate(4.82) scale(1.000)">
        <g transform="translate(5.00,0.92) rotate(9.98) scale(0.980)">
        <g transform="translate(4.47,-0.27) rotate(14.87) scale(0.960)">
        <g transform="translate(2.84,-1.43) rotate(18.91) scale(0.940)">
        <g transform="translate(0.52,-2.47) rotate(21.56) scale(0.920)">
        <g transform="translate(-1.93,-3.29) rotate(22.33) scale(0.900)">
        <g transform="translate(-3.90,-3.82) rotate(20.89) scale(0.880)">
        <circle cx="0" cy="0" r="28.0" fill="url(#rgrad1)" filter="url(#shadow)" opacity="0.10"/>
        <text x="0" y="5" text-anchor="middle" font-family="Arial, sans-serif" font-size="14" fill="#FFFFFF" opacity="0.10">415</text>
      </g>
      </g>
      </g>
      </g>
      </g>
      </g>
      </g>
  </g>
  <g transform="translate(1002.0, 380.2)">
      <g transform="translate(4.47,-1.80) rotate(4.82) scale(1.000)">
        <g transform="translate(2.84,-2.77) rotate(9.98) scale(0.980)">
        <g transform="translate(0.52,-3.50) rotate(14.87) scale(0.960)">
        <g transform="translate(-1.93,-3.92) rotate(18.91) scale(0.940)" clip-path="url(#clipHex)">
        <g transform="translate(-3.90,-3.98) rotate(21.56) scale(0.920)">
        <g transform="translate(-4.92,-3.69) rotate(22.33) scale(0.900)">
        <g transform="translate(-4.74,-3.07) rotate(20.89) scale(0.880)">
        <path d="M0.0,-70.1 L20.6,-28.3 L66.6,-21.7 L33.3,10.8 L41.2,56.7 L0.0,35.0 L-41.2,56.7 L-33.3,10.8 L-66.6,-21.7 L-20.6,-28.3Z" fill="url(#lgrad2)" filter="url(#blur2)" opacity="0.11"/>
      </g>
      </g>
      </g>
      </g>
      </g>
      </g>
      </g>
  </g>
  <g transform="translate(1209.5, 396.3)">
      <g transform="translate(0.52,-3.98) rotate(4.82) scale(1.000)">
        <g transform="translate(-1.93,-3.92) rotate(9.98) scale(0.980)">
        <g transform="translate(-3.90,-3.52) rotate(14.87) scale(0.960)">
        <g transform="translate(-4.92,-2.80) rotate(18.91) scale(0.940)">
        <g transform="translate(-4.74,-1.83) rotate(21.56) scale(0.920)">
        <g transform="translate(-3.39,-0.70) rotate(22.33) scale(0.900)" mask="url(#maskCircleFade)">
        <g transform="translate(-1.22,0.50) rotate(20.89) scale(0.880)">
        <rect x="-37.4" y="-37.4" width="74.8" height="74.8" rx="18.7" fill="url(#rgrad3)" filter="url(#shadow)" opacity="0.15"/>
        <circle cx="0" cy="0" r="24.9" fill="url(#rgrad4)" opacity="0.10"/>
      </g>
      </g>
      </g>
      </g>
      </g>
      </g>
      </g>
  </g>
  <g transform="translate(1414.7, 404.7)">
      <g transform="translate(-3.90,-2.50) rotate(4.82) scale(1.000)">
        <g transform="translate(-4.92,-1.46) rotate(9.98) scale(0.980)">
        <g transform="translate(-4.74,-0.30) rotate(14.87) scale(0.960)">
        <g transform="translate(-3.39,0.89) rotate(18.91) scale(0.940)">
        <g transform="translate(-1.22,2.01) rotate(21.56) scale(0.920)">
        <g transform="translate(1.26,2.94) rotate(22.33) scale(0.900)">
        <g transform="translate(3.42,3.61) rotate(20.89) scale(0.880)">
        <path d="M34.3,19.8 L0.0,39.6 L-34.3,19.8 L-34.3,-19.8 L-0.0,-39.6 L34.3,-19.8Z" fill="url(#rgrad4)" filter="url(#blur4)" opacity="0.22"/>
        <ellipse cx="0" cy="0" rx="16.5" ry="11.0" fill="#FFFFFF" opacity="0.11"/>
      </g>
      </g>
      </g>
      </g>
      </g>
      </g>
      </g>
  </g>
  <g transform="translate(1621.2, 401.5)">
      <g transform="translate(-4.74,1.28) rotate(4.82) scale(1.000)">
        <g transform="translate(-3.39,2.34) rotate(9.98) scale(0.980)">
        <g transform="translate(-1.22,3.19) rotate(14.87) scale(0.960)">
        <g transform="translate(1.26,3.76) rotate(18.91) scale(0.940)" clip-path="url(#clipCircle)">
        <g transform="translate(3.42,4.00) rotate(21.56) scale(0.920)">
        <g transform="translate(4.75,3.87) rotate(22.33) scale(0.900)">
        <g transform="translate(4.92,3.40) rotate(20.89) scale(0.880)">
        <circle cx="0" cy="0" r="25.8" fill="url(#lgrad0)" filter="url(#shadow)" opacity="0.31"/>
        <text x="0" y="5" text-anchor="middle" font-family="Arial, sans-serif" font-size="14" fill="#FFFFFF" opacity="0.31">415</text>
      </g>
      </g>
      </g>
      </g>
      </g>
      </g>
      </g>
  </g>
  <g transform="translate(72.3, 668.2)">
      <g transform="translate(-1.22,3.88) rotate(4.82) scale(1.000)">
        <g transform="translate(1.26,3.99) rotate(9.98) scale(0.980)">
        <g transform="translate(3.42,3.75) rotate(14.87) scale(0.960)">
        <g transform="translate(4.75,3.17) rotate(18.91) scale(0.940)">
        <g transform="translate(4.92,2.31) rotate(21.56) scale(0.920)">
        <g transform="translate(3.88,1.25) rotate(22.33) scale(0.900)" mask="url(#maskGradient)">
        <g transform="translate(1.89,0.07) rotate(20.89) scale(0.880)">
        <path d="M0.0,-45.0 L13.2,-18.2 L42.8,-13.9 L21.4,7.0 L26.5,36.4 L0.0,22.5 L-26.5,36.4 L-21.4,7.0 L-42.8,-13.9 L-13.2,-18.2Z" fill="url(#rgrad1)" filter="url(#blur1)" opacity="0.43"/>
      </g>
      </g>
      </g>
      </g>
      </g>
      </g>
      </g>
  </g>
  <g transform="translate(290.2, 651.0)">
      <g transform="translate(3.42,2.92) rotate(4.82) scale(1.000)">
        <g transform="translate(4.75,1.98) rotate(9.98) scale(0.980)">
        <g transform="translate(4.92,0.86) rotate(14.87) scale(0.960)">
        <g transform="translate(3.88,-0.33) rotate(18.91) scale(0.940)">
        <g transform="translate(1.89,-1.50) rotate(21.56) scale(0.920)">
        <g transform="translate(-0.56,-2.53) rotate(22.33) scale(0.900)">
        <g transform="translate(-2.88,-3.33) rotate(20.89) scale(0.880)">
        <rect x="-26.1" y="-26.1" width="52.2" height="52.2" rx="13.0" fill="url(#rgrad2)" filter="url(#shadow)" opacity="0.55"/>
        <circle cx="0" cy="0" r="17.4" fill="url(#rgrad3)" opacity="0.38"/>
      </g>
      </g>
      </g>
      </g>
      </g>
      </g>
      </g>
  </g>
  <g transform="translate(515.4, 638.1)">
      <g transform="translate(4.92,-0.73) rotate(4.82) scale(1.000)">
        <g transform="translate(3.88,-1.86) rotate(9.98) scale(0.980)">
        <g transform="translate(1.89,-2.82) rotate(14.87) scale(0.960)">
        <g transform="translate(-0.56,-3.53) rotate(18.91) scale(0.940)" clip-path="url(#clipRect)">
        <g transform="translate(-2.88,-3.93) rotate(21.56) scale(0.920)">
        <g transform="translate(-4.48,-3.97) rotate(22.33) scale(0.900)">
        <g transform="translate(-5.00,-3.66) rotate(20.89) scale(0.880)">
        <path d="M34.6,20.0 L0.0,39.9 L-34.6,20.0 L-34.6,-20.0 L-0.0,-39.9 L34.6,-20.0Z" fill="url(#lgrad3)" filter="url(#blur3)" opacity="0.66"/>
        <ellipse cx="0" cy="0" rx="16.6" ry="11.1" fill="#FFFFFF" opacity="0.33"/>
      </g>
      </g>
      </g>
      </g>
      </g>
      </g>
      </g>
  </g>
  <g transform="translate(746.6, 635.5)">
      <g transform="translate(1.89,-3.70) rotate(4.82) scale(1.000)">
        <g transform="translate(-0.56,-3.98) rotate(9.98) scale(0.980)">
        <g transform="translate(-2.88,-3.91) rotate(14.87) scale(0.960)">
        <g transform="translate(-4.48,-3.49) rotate(18.91) scale(0.940)">
        <g transform="translate(-5.00,-2.75) rotate(21.56) scale(0.920)">
        <g transform="translate(-4.28,-1.77) rotate(22.33) scale(0.900)" mask="url(#maskDynamic)">
        <g transform="translate(-2.52,-0.63) rotate(20.89) scale(0.880)">
        <circle cx="0" cy="0" r="37.4" fill="url(#rgrad4)" filter="url(#shadow)" opacity="0.76"/>
        <text x="0" y="5" text-anchor="middle" font-family="Arial, sans-serif" font-size="14" fill="#FFFFFF" opacity="0.76">415</text>
      </g>
      </g>
      </g>
      </g>
      </g>
      </g>
      </g>
  </g>
  <g transform="translate(981.1, 644.4)">
      <g transform="translate(-2.88,-3.27) rotate(4.82) scale(1.000)">
        <g transform="translate(-4.48,-2.45) rotate(9.98) scale(0.980)">
        <g transform="translate(-5.00,-1.40) rotate(14.87) scale(0.960)">
        <g transform="translate(-4.28,-0.23) rotate(18.91) scale(0.940)">
        <g transform="translate(-2.52,0.96) rotate(21.56) scale(0.920)">
        <g transform="translate(-0.14,2.06) rotate(22.33) scale(0.900)">
        <g transform="translate(2.27,2.98) rotate(20.89) scale(0.880)">
        <path d="M0.0,-69.5 L20.4,-28.1 L66.1,-21.5 L33.1,10.7 L40.9,56.3 L0.0,34.8 L-40.9,56.3 L-33.1,10.7 L-66.1,-21.5 L-20.4,-28.1Z" fill="url(#rgrad0)" filter="url(#blur0)" opacity="0.84"/>
      </g>
      </g>
      </g>
      </g>
      </g>
      </g>
      </g>
  </g>
  <g transform="translate(1215.4, 660.6)">
      <g transform="translate(-5.00,0.17) rotate(4.82) scale(1.000)">
        <g transform="translate(-4.28,1.34) rotate(9.98) scale(0.980)">
        <g transform="translate(-2.52,2.39) rotate(14.87) scale(0.960)">
        <g transform="translate(-0.14,3.23) rotate(18.91) scale(0.940)" clip-path="url(#clipStar)">
        <g transform="translate(2.27,3.79) rotate(21.56) scale(0.920)">
        <g transform="translate(4.13,4.00) rotate(22.33) scale(0.900)">
        <g transform="translate(4.98,3.85) rotate(20.89) scale(0.880)">
        <rect x="-27.7" y="-27.7" width="55.4" height="55.4" rx="13.9" fill="url(#lgrad1)" filter="url(#shadow)" opacity="0.89"/>
        <circle cx="0" cy="0" r="18.5" fill="url(#rgrad2)" opacity="0.62"/>
      </g>
      </g>
      </g>
      </g>
      </g>
      </g>
      </g>
  </g>
  <g transform="translate(1445.8, 676.6)">
      <g transform="translate(-2.52,3.45) rotate(4.82) scale(1.000)">
        <g transform="translate(-0.14,3.90) rotate(9.98) scale(0.980)">
        <g transform="translate(2.27,3.99) rotate(14.87) scale(0.960)">
        <g transform="translate(4.13,3.73) rotate(18.91) scale(0.940)">
        <g transform="translate(4.98,3.13) rotate(21.56) scale(0.920)">
        <g transform="translate(4.60,2.26) rotate(22.33) scale(0.900)" mask="url(#maskStripes)">
        <g transform="translate(3.11,1.18) rotate(20.89) scale(0.880)">
        <path d="M23.6,13.7 L0.0,27.3 L-23.6,13.7 L-23.6,-13.7 L-0.0,-27.3 L23.6,-13.7Z" fill="url(#rgrad2)" filter="url(#blur2)" opacity="0.90"/>
        <ellipse cx="0" cy="0" rx="11.4" ry="7.6" fill="#FFFFFF" opacity="0.45"/>
      </g>
      </g>
      </g>
      </g>
      </g>
      </g>
      </g>
  </g>
  <g transform="translate(1670.0, 684.7)">
      <g transform="translate(2.27,3.56) rotate(4.82) scale(1.000)">
        <g transform="translate(4.13,2.87) rotate(9.98) scale(0.980)">
        <g transform="translate(4.98,1.92) rotate(14.87) scale(0.960)">
        <g transform="translate(4.60,0.79) rotate(18.91) scale(0.940)">
        <g transform="translate(3.11,-0.40) rotate(21.56) scale(0.920)">
        <g transform="translate(0.85,-1.56) rotate(22.33) scale(0.900)">
        <g transform="translate(-1.62,-2.58) rotate(20.89) scale(0.880)">
        <circle cx="0" cy="0" r="24.5" fill="url(#rgrad3)" filter="url(#shadow)" opacity="0.88"/>
        <text x="0" y="5" text-anchor="middle" font-family="Arial, sans-serif" font-size="14" fill="#FFFFFF" opacity="0.88">415</text>
      </g>
      </g>
      </g>
      </g>
      </g>
      </g>
      </g>
  </g>
  <g transform="translate(126.8, 961.3)">
      <g transform="translate(4.98,0.40) rotate(4.82) scale(1.000)">
        <g transform="translate(4.60,-0.80) rotate(9.98) scale(0.980)">
        <g transform="translate(3.11,-1.92) rotate(14.87) scale(0.960)">
        <g transform="translate(0.85,-2.87) rotate(18.91) scale(0.940)" clip-path="url(#clipDynamic)">
        <g transform="translate(-1.62,-3.57) rotate(21.56) scale(0.920)">
        <g transform="translate(-3.69,-3.94) rotate(22.33) scale(0.900)">
        <g transform="translate(-4.86,-3.97) rotate(20.89) scale(0.880)">
        <path d="M0.0,-62.5 L18.4,-25.3 L59.5,-19.3 L29.7,9.7 L36.8,50.6 L0.0,31.3 L-36.8,50.6 L-29.7,9.7 L-59.5,-19.3 L-18.4,-25.3Z" fill="url(#lgrad4)" filter="url(#blur4)" opacity="0.82"/>
      </g>
      </g>
      </g>
      </g>
      </g>
      </g>
      </g>
  </g>
  <g transform="translate(351.2, 231.3)" mask="url(#maskGradient)">
    <ellipse cx="0" cy="0" rx="200" ry="150" fill="url(#rgrad0)" filter="url(#blur3)" opacity="0.3"/>
  </g>
  <g transform="translate(755.4, 221.1)" mask="url(#maskCircleFade)">
    <ellipse cx="0" cy="0" rx="200" ry="150" fill="url(#rgrad1)" filter="url(#blur3)" opacity="0.3"/>
  </g>
  <g transform="translate(1200.6, 247.9)" mask="url(#maskStripes)">
    <ellipse cx="0" cy="0" rx="200" ry="150" fill="url(#rgrad2)" filter="url(#blur3)" opacity="0.3"/>
  </g>
</svg>