<?xml version="1.0" encoding="UTF-8"?>
<svg xmlns="http://www.w3.org/2000/svg" viewBox="0 0 1920 1080" width="1920" height="1080">
  <defs>
    <filter id="blur0" x="-50%" y="-50%" width="200%" height="200%">
      <feGaussianBlur in="SourceGraphic" stdDeviation="1"/>
    </filter>
    <filter id="blur1" x="-50%" y="-50%" width="200%" height="200%">
      <feGaussianBlur in="SourceGraphic" stdDeviation="3"/>
    </filter>
    <filter id="blur2" x="-50%" y="-50%" width="200%" height="200%">
      <feGaussianBlur in="SourceGraphic" stdDeviation="5"/>
    </filter>
    <filter id="blur3" x="-50%" y="-50%" width="200%" height="200%">
      <feGaussianBlur in="SourceGraphic" stdDeviation="7"/>
    </filter>
    <filter id="blur4" x="-50%" y="-50%" width="200%" height="200%">
      <feGaussianBlur in="SourceGraphic" stdDeviation="9"/>
    </filter>
    <filter id="shadow" x="-50%" y="-50%" width="200%" height="200%">
      <feGaussianBlur in="SourceAlpha" stdDeviation="3" result="blur"/>
      <feOffset in="blur" dx="4" dy="4" result="offsetBlur"/>
      <feMerge>
        <feMergeNode in="offsetBlur"/>
        <feMergeNode in="SourceGraphic"/>
      </feMerge>
    </filter>
    <linearGradient id="lgrad0" x1="0%" y1="0%" x2="5.9%" y2="73.5%">
      <stop offset="0%" stop-color="#FF6B6B"/>
      <stop offset="33%" stop-color="#4ECDC4"/>
      <stop offset="66%" stop-color="#45B7D1"/>
      <stop offset="100%" stop-color="#96E6A1"/>
    </linearGradient>
    <linearGradient id="lgrad1" x1="0%" y1="0%" x2="0.0%" y2="48.3%">
      <stop offset="0%" stop-color="#FFE66D"/>
      <stop offset="33%" stop-color="#FF6B6B"/>
      <stop offset="66%" stop-color="#C44D58"/>
      <stop offset="100%" stop-color="#8B0000"/>
    </linearGradient>
    <linearGradient id="lgrad2" x1="0%" y1="0%" x2="7.6%" y2="23.5%">
      <stop offset="0%" stop-color="#4169E1"/>
      <stop offset="33%" stop-color="#7B68EE"/>
      <stop offset="66%" stop-color="#9370DB"/>
      <stop offset="100%" stop-color="#FFD700"/>
    </linearGradient>
    <linearGradient id="lgrad3" x1="0%" y1="0%" x2="26.5%" y2="5.9%">
      <stop offset="0%" stop-color="#32CD32"/>
      <stop offset="33%" stop-color="#228B22"/>
      <stop offset="66%" stop-color="#006400"/>
      <stop offset="100%" stop-color="#ADFF2F"/>
    </linearGradient>
    <linearGradient id="lgrad4" x1="0%" y1="0%" x2="51.7%" y2="0.0%">
      <stop offset="0%" stop-color="#FF1493"/>
      <stop offset="33%" stop-color="#FF69B4"/>
      <stop offset="66%" stop-color="#FFB6C1"/>
      <stop offset="100%" stop-color="#FFC0CB"/>
    </linearGradient>
    <radialGradient id="rgrad0" cx="54.2%" cy="32.8%" r="60%">
      <stop offset="0%" stop-color="#FF6B6B" stop-opacity="1"/>
      <stop offset="50%" stop-color="#4ECDC4" stop-opacity="0.8"/>
      <stop offset="100%" stop-color="#45B7D1" stop-opacity="0.6"/>
    </radialGradient>
    <radialGradient id="rgrad1" cx="64.2%" cy="40.8%" r="60%">
      <stop offset="0%" stop-color="#FFE66D" stop-opacity="1"/>
      <stop offset="50%" stop-color="#FF6B6B" stop-opacity="0.8"/>
      <stop offset="100%" stop-color="#C44D58" stop-opacity="0.6"/>
    </radialGradient>
    <radialGradient id="rgrad2" cx="34.2%" cy="48.8%" r="60%">
      <stop offset="0%" stop-color="#4169E1" stop-opacity="1"/>
      <stop offset="50%" stop-color="#7B68EE" stop-opacity="0.8"/>
      <stop offset="100%" stop-color="#9370DB" stop-opacity="0.6"/>
    </radialGradient>
    <radialGradient id="rgrad3" cx="44.2%" cy="56.8%" r="60%">
      <stop offset="0%" stop-color="#32CD32" stop-opacity="1"/>
      <stop offset="50%" stop-color="#228B22" stop-opacity="0.8"/>
      <stop offset="100%" stop-color="#006400" stop-opacity="0.6"/>
    </radialGradient>
    <radialGradient id="rgrad4" cx="54.2%" cy="64.8%" r="60%">
      <stop offset="0%" stop-color="#FF1493" stop-opacity="1"/>
      <stop offset="50%" stop-color="#FF69B4" stop-opacity="0.8"/>
      <stop offset="100%" stop-color="#FFB6C1" stop-opacity="0.6"/>
    </radialGradient>
    <clipPath id="clipCircle">
      <circle cx="0" cy="0" r="50"/>
    </clipPath>
    <clipPath id="clipStar">
      <path d="M0.0,-50.0 L14.7,-20.2 L47.6,-15.5 L23.8,7.7 L29.4,40.5 L0.0,25.0 L-29.4,40.5 L-23.8,7.7 L-47.6,-15.5 L-14.7,-20.2Z"/>
    </clipPath>
    <clipPath id="clipHex">
      <path d="M39.0,22.5 L0.0,45.0 L-39.0,22.5 L-39.0,-22.5 L-0.0,-45.0 L39.0,-22.5Z"/>
    </clipPath>
    <clipPath id="clipRect">
      <rect x="-40" y="-30" width="80" height="60" rx="10"/>
    </clipPath>
    <clipPath id="clipDynamic">
      <circle cx="0" cy="0" r="49.6"/>
    </clipPath>
    <mask id="maskGradient" maskContentUnits="objectBoundingBox">
      <rect x="0" y="0" width="1" height="1" fill="url(#maskGrad)"/>
    </mask>
    <linearGradient id="maskGrad" x1="0%" y1="0%" x2="100%" y2="100%">
      <stop offset="0%" stop-color="white"/>
      <stop offset="100%" stop-color="black"/>
    </linearGradient>
    <mask id="maskCircleFade">
      <circle cx="0" cy="0" r="60" fill="white"/>
      <circle cx="0" cy="0" r="30" fill="black"/>
    </mask>
    <mask id="maskStripes">
      <rect x="-50" y="-50" width="100" height="100" fill="white"/>
      <rect x="-50" y="-40" width="100" height="10" fill="black"/>
      <rect x="-50" y="-20" width="100" height="10" fill="black"/>
      <rect x="-50" y="0" width="100" height="10" fill="black"/>
      <rect x="-50" y="20" width="100" height="10" fill="black"/>
      <rect x="-50" y="40" width="100" height="10" fill="black"/>
    </mask>
    <mask id="maskDynamic">
      <rect x="-60" y="-60" width="120" height="120" fill="white" fill-opacity="0.73"/>
      <circle cx="0" cy="0" r="25" fill="white"/>
    </mask>
  </defs>
  <rect width="1920" height="1080" fill="url(#lgrad0)"/>
  <g transform="translate(129.2, 105.7)">
      <g transform="translate(4.87,0.92) rotate(3.10) scale(1.000)">
        <g transform="translate(4.82,-0.28) rotate(7.64) scale(0.980)">
        <g transform="translate(3.59,-1.44) rotate(13.16) scale(0.960)">
        <g transform="translate(1.49,-2.48) rotate(19.10) scale(0.940)" clip-path="url(#clipCircle)">
        <g transform="translate(-0.98,-3.30) rotate(24.87) scale(0.920)">
        <g transform="translate(-3.21,-3.82) rotate(29.85) scale(0.900)">
        <g transform="translate(-4.66,-4.00) rotate(33.45) scale(0.880)">
        <path d="M0.0,-69.3 L20.4,-28.0 L65.9,-21.4 L33.0,10.7 L40.7,56.1 L0.0,34.7 L-40.7,56.1 L-33.0,10.7 L-65.9,-21.4 L-20.4,-28.0Z" fill="url(#lgrad0)" filter="url(#blur0)" opacity="0.75"/>
      </g>
      </g>
      </g>
      </g>
      </g>
      </g>
      </g>
  </g>
  <g transform="translate(348.9, 88.7)">
      <g transform="translate(3.59,-2.78) rotate(3.10) scale(1.000)">
        <g transform="translate(1.49,-3.51) rotate(7.64) scale(0.980)">
        <g transform="translate(-0.98,-3.92) rotate(13.16) scale(0.960)">
        <g transform="translate(-3.21,-3.98) rotate(19.10) scale(0.940)">
        <g transform="translate(-4.66,-3.69) rotate(24.87) scale(0.920)">
        <g transform="translate(-4.96,-3.06) rotate(29.85) scale(0.900)" mask="url(#maskCircleFade)">
        <g transform="translate(-4.05,-2.17) rotate(33.45) scale(0.880)">
        <rect x="-37.5" y="-37.5" width="74.9" height="74.9" rx="18.7" fill="url(#rgrad1)" filter="url(#shadow)" opacity="0.83"/>
        <circle cx="0" cy="0" r="25.0" fill="url(#rgrad2)" opacity="0.58"/>
      </g>
      </g>
      </g>
      </g>
      </g>
      </g>
      </g>
  </g>
  <g transform="translate(561.6, 77.0)">
      <g transform="translate(-0.98,-3.92) rotate(3.10) scale(1.000)">
        <g transform="translate(-3.21,-3.51) rotate(7.64) scale(0.980)">
        <g transform="translate(-4.66,-2.79) rotate(13.16) scale(0.960)">
        <g transform="translate(-4.96,-1.82) rotate(19.10) scale(0.940)">
        <g transform="translate(-4.05,-0.69) rotate(24.87) scale(0.920)">
        <g transform="translate(-2.15,0.51) rotate(29.85) scale(0.900)">
        <g transform="translate(0.28,1.66) rotate(33.45) scale(0.880)">
        <path d="M34.7,20.0 L0.0,40.1 L-34.7,20.0 L-34.7,-20.0 L-0.0,-40.1 L34.7,-20.0Z" fill="url(#rgrad2)" filter="url(#blur2)" opacity="0.88"/>
        <ellipse cx="0" cy="0" rx="16.7" ry="11.1" fill="#FFFFFF" opacity="0.44"/>
      </g>
      </g>
      </g>
      </g>
      </g>
      </g>
      </g>
  </g>
  <g transform="translate(768.9, 76.1)">
      <g transform="translate(-4.66,-1.46) rotate(3.10) scale(1.000)">
        <g transform="translate(-4.96,-0.29) rotate(7.64) scale(0.980)">
        <g transform="translate(-4.05,0.90) rotate(13.16) scale(0.960)">
        <g transform="translate(-2.15,2.01) rotate(19.10) scale(0.940)" clip-path="url(#clipRect)">
        <g transform="translate(0.28,2.94) rotate(24.87) scale(0.920)">
        <g transform="translate(2.64,3.61) rotate(29.85) scale(0.900)">
        <g transform="translate(4.35,3.96) rotate(33.45) scale(0.880)">
        <circle cx="0" cy="0" r="26.2" fill="url(#lgrad3)" filter="url(#shadow)" opacity="0.90"/>
        <text x="0" y="5" text-anchor="middle" font-family="Arial, sans-serif" font-size="14" fill="#FFFFFF" opacity="0.90">214</text>
      </g>
      </g>
      </g>
      </g>
      </g>
      </g>
      </g>
  </g>
  <g transform="translate(974.1, 86.5)">
      <g transform="translate(-4.05,2.35) rotate(3.10) scale(1.000)">
        <g transform="translate(-2.15,3.20) rotate(7.64) scale(0.980)">
        <g transform="translate(0.28,3.77) rotate(13.16) scale(0.960)">
        <g transform="translate(2.64,4.00) rotate(19.10) scale(0.940)">
        <g transform="translate(4.35,3.87) rotate(24.87) scale(0.920)">
        <g transform="translate(5.00,3.40) rotate(29.85) scale(0.900)" mask="url(#maskGradient)">
        <g transform="translate(4.42,2.62) rotate(33.45) scale(0.880)">
        <path d="M0.0,-45.0 L13.2,-18.2 L42.8,-13.9 L21.4,7.0 L26.5,36.4 L0.0,22.5 L-26.5,36.4 L-21.4,7.0 L-42.8,-13.9 L-13.2,-18.2Z" fill="url(#rgrad4)" filter="url(#blur4)" opacity="0.88"/>
      </g>
      </g>
      </g>
      </g>
      </g>
      </g>
      </g>
  </g>
  <g transform="translate(1180.7, 103.2)">
      <g transform="translate(0.28,3.99) rotate(3.10) scale(1.000)">
        <g transform="translate(2.64,3.75) rotate(7.64) scale(0.980)">
        <g transform="translate(4.35,3.17) rotate(13.16) scale(0.960)">
        <g transform="translate(5.00,2.31) rotate(19.10) scale(0.940)">
        <g transform="translate(4.42,1.24) rotate(24.87) scale(0.920)">
        <g transform="translate(2.76,0.06) rotate(29.85) scale(0.900)">
        <g transform="translate(0.43,-1.13) rotate(33.45) scale(0.880)">
        <rect x="-25.7" y="-25.7" width="51.4" height="51.4" rx="12.8" fill="url(#rgrad0)" filter="url(#shadow)" opacity="0.83"/>
        <circle cx="0" cy="0" r="17.1" fill="url(#rgrad1)" opacity="0.58"/>
      </g>
      </g>
      </g>
      </g>
      </g>
      </g>
      </g>
  </g>
  <g transform="translate(1392.1, 118.4)">
      <g transform="translate(4.35,1.97) rotate(3.10) scale(1.000)">
        <g transform="translate(5.00,0.85) rotate(7.64) scale(0.980)">
        <g transform="translate(4.42,-0.34) rotate(13.16) scale(0.960)">
        <g transform="translate(2.76,-1.50) rotate(19.10) scale(0.940)" clip-path="url(#clipStar)">
        <g transform="translate(0.43,-2.53) rotate(24.87) scale(0.920)">
        <g transform="translate(-2.02,-3.33) rotate(29.85) scale(0.900)">
        <g transform="translate(-3.96,-3.84) rotate(33.45) scale(0.880)">
        <path d="M34.1,19.7 L0.0,39.4 L-34.1,19.7 L-34.1,-19.7 L-0.0,-39.4 L34.1,-19.7Z" fill="url(#lgrad1)" filter="url(#blur1)" opacity="0.75"/>
        <ellipse cx="0" cy="0" rx="16.4" ry="10.9" fill="#FFFFFF" opacity="0.37"/>
      </g>
      </g>
      </g>
      </g>
      </g>
      </g>
      </g>
  </g>
  <g transform="translate(1610.2, 125.0)">
      <g transform="translate(4.42,-1.87) rotate(3.10) scale(1.000)">
        <g transform="translate(2.76,-2.83) rotate(7.64) scale(0.980)">
        <g transform="translate(0.43,-3.54) rotate(13.16) scale(0.960)">
        <g transform="translate(-2.02,-3.93) rotate(19.10) scale(0.940)">
        <g transform="translate(-3.96,-3.97) rotate(24.87) scale(0.920)">
        <g transform="translate(-4.94,-3.66) rotate(29.85) scale(0.900)" mask="url(#maskDynamic)">
        <g transform="translate(-4.71,-3.02) rotate(33.45) scale(0.880)">
        <circle cx="0" cy="0" r="37.4" fill="url(#rgrad2)" filter="url(#shadow)" opacity="0.65"/>
        <text x="0" y="5" text-anchor="middle" font-family="Arial, sans-serif" font-size="14" fill="#FFFFFF" opacity="0.65">214</text>
      </g>
      </g>
      </g>
      </g>
      </g>
      </g>
      </g>
  </g>
  <g transform="translate(75.7, 399.8)">
      <g transform="translate(0.43,-3.99) rotate(3.10) scale(1.000)">
        <g transform="translate(-2.02,-3.91) rotate(7.64) scale(0.980)">
        <g transform="translate(-3.96,-3.48) rotate(13.16) scale(0.960)">
        <g transform="translate(-4.94,-2.74) rotate(19.10) scale(0.940)">
        <g transform="translate(-4.71,-1.76) rotate(24.87) scale(0.920)">
        <g transform="translate(-3.32,-0.62) rotate(29.85) scale(0.900)">
        <g transform="translate(-1.12,0.57) rotate(33.45) scale(0.880)">
        <path d="M0.0,-70.3 L20.7,-28.4 L66.8,-21.7 L33.4,10.9 L41.3,56.9 L0.0,35.1 L-41.3,56.9 L-33.4,10.9 L-66.8,-21.7 L-20.7,-28.4Z" fill="url(#rgrad3)" filter="url(#blur3)" opacity="0.53"/>
      </g>
      </g>
      </g>
      </g>
      </g>
      </g>
      </g>
  </g>
  <g transform="translate(307.1, 385.3)">
      <g transform="translate(-3.96,-2.44) rotate(3.10) scale(1.000)">
        <g transform="translate(-4.94,-1.39) rotate(7.64) scale(0.980)">
        <g transform="translate(-4.71,-0.22) rotate(13.16) scale(0.960)">
        <g transform="translate(-3.32,0.97) rotate(19.10) scale(0.940)" clip-path="url(#clipDynamic)">
        <g transform="translate(-1.12,2.07) rotate(24.87) scale(0.920)">
        <g transform="translate(1.35,2.99) rotate(29.85) scale(0.900)">
        <g transform="translate(3.49,3.64) rotate(33.45) scale(0.880)">
        <rect x="-28.2" y="-28.2" width="56.4" height="56.4" rx="14.1" fill="url(#lgrad4)" filter="url(#shadow)" opacity="0.41"/>
        <circle cx="0" cy="0" r="18.8" fill="url(#rgrad0)" opacity="0.29"/>
      </g>
      </g>
      </g>
      </g>
      </g>
      </g>
      </g>
  </g>
  <g transform="translate(541.7, 368.3)">
      <g transform="translate(-4.71,1.35) rotate(3.10) scale(1.000)">
        <g transform="translate(-3.32,2.40) rotate(7.64) scale(0.980)">
        <g transform="translate(-1.12,3.24) rotate(13.16) scale(0.960)">
        <g transform="translate(1.35,3.79) rotate(19.10) scale(0.940)">
        <g transform="translate(3.49,4.00) rotate(24.87) scale(0.920)">
        <g transform="translate(4.78,3.85) rotate(29.85) scale(0.900)" mask="url(#maskStripes)">
        <g transform="translate(4.90,3.36) rotate(33.45) scale(0.880)">
        <path d="M23.8,13.7 L0.0,27.5 L-23.8,13.7 L-23.8,-13.7 L-0.0,-27.5 L23.8,-13.7Z" fill="url(#rgrad0)" filter="url(#blur0)" opacity="0.30"/>
        <ellipse cx="0" cy="0" rx="11.4" ry="7.6" fill="#FFFFFF" opacity="0.15"/>
      </g>
      </g>
      </g>
      </g>
      </g>
      </g>
      </g>
  </g>
  <g transform="translate(775.8, 356.8)">
      <g transform="translate(-1.12,3.90) rotate(3.10) scale(1.000)">
        <g transform="translate(1.35,3.99) rotate(7.64) scale(0.980)">
        <g transform="translate(3.49,3.72) rotate(13.16) scale(0.960)">
        <g transform="translate(4.78,3.13) rotate(19.10) scale(0.940)">
        <g transform="translate(4.90,2.25) rotate(24.87) scale(0.920)">
        <g transform="translate(3.82,1.17) rotate(29.85) scale(0.900)">
        <g transform="translate(1.80,-0.01) rotate(33.45) scale(0.880)">
        <circle cx="0" cy="0" r="24.1" fill="url(#rgrad1)" filter="url(#shadow)" opacity="0.21"/>
        <text x="0" y="5" text-anchor="middle" font-family="Arial, sans-serif" font-size="14" fill="#FFFFFF" opacity="0.21">214</text>
      </g>
      </g>
      </g>
      </g>
      </g>
      </g>
      </g>
  </g>
  <g transform="translate(1006.1, 356.2)">
      <g transform="translate(3.49,2.86) rotate(3.10) scale(1.000)">
        <g transform="translate(4.78,1.91) rotate(7.64) scale(0.980)">
        <g transform="translate(4.90,0.78) rotate(13.16) scale(0.960)">
        <g transform="translate(3.82,-0.41) rotate(19.10) scale(0.940)" clip-path="url(#clipHex)">
        <g transform="translate(1.80,-1.57) rotate(24.87) scale(0.920)">
        <g transform="translate(-0.66,-2.58) rotate(29.85) scale(0.900)">
        <g transform="translate(-2.95,-3.37) rotate(33.45) scale(0.880)">
        <path d="M0.0,-61.5 L18.1,-24.9 L58.5,-19.0 L29.3,9.5 L36.2,49.8 L0.0,30.8 L-36.2,49.8 L-29.3,9.5 L-58.5,-19.0 L-18.1,-24.9Z" fill="url(#lgrad2)" filter="url(#blur2)" opacity="0.14"/>
      </g>
      </g>
      </g>
      </g>
      </g>
      </g>
      </g>
  </g>
  <g transform="translate(1230.0, 366.8)">
      <g transform="translate(4.90,-0.80) rotate(3.10) scale(1.000)">
        <g transform="translate(3.82,-1.93) rotate(7.64) scale(0.980)">
        <g transform="translate(1.80,-2.88) rotate(13.16) scale(0.960)">
        <g transform="translate(-0.66,-3.57) rotate(19.10) scale(0.940)">
        <g transform="translate(-2.95,-3.94) rotate(24.87) scale(0.920)">
        <g transform="translate(-4.53,-3.97) rotate(29.85) scale(0.900)" mask="url(#maskCircleFade)">
        <g transform="translate(-4.99,-3.63) rotate(33.45) scale(0.880)">
        <rect x="-36.7" y="-36.7" width="73.4" height="73.4" rx="18.3" fill="url(#rgrad3)" filter="url(#shadow)" opacity="0.10"/>
        <circle cx="0" cy="0" r="24.5" fill="url(#rgrad4)" opacity="0.07"/>
      </g>
      </g>
      </g>
      </g>
      </g>
      </g>
      </g>
  </g>
  <g transform="translate(1446.5, 383.6)">
      <g transform="translate(1.80,-3.73) rotate(3.10) scale(1.000)">
        <g transform="translate(-0.66,-3.99) rotate(7.64) scale(0.980)">
        <g transform="translate(-2.95,-3.89) rotate(13.16) scale(0.960)">
        <g transform="translate(-4.53,-3.45) rotate(19.10) scale(0.940)">
        <g transform="translate(-4.99,-2.69) rotate(24.87) scale(0.920)">
        <g transform="translate(-4.23,-1.70) rotate(29.85) scale(0.900)">
        <g transform="translate(-2.44,-0.55) rotate(33.45) scale(0.880)">
        <path d="M37.9,21.9 L0.0,43.8 L-37.9,21.9 L-37.9,-21.9 L-0.0,-43.8 L37.9,-21.9Z" fill="url(#rgrad4)" filter="url(#blur4)" opacity="0.10"/>
        <ellipse cx="0" cy="0" rx="18.2" ry="12.2" fill="#FFFFFF" opacity="0.05"/>
      </g>
      </g>
      </g>
      </g>
      </g>
      </g>
      </g>
  </g>
  <g transform="translate(1656.6, 398.7)">
      <g transform="translate(-2.95,-3.23) rotate(3.10) scale(1.000)">
        <g transform="translate(-4.53,-2.39) rotate(7.64) scale(0.980)">
        <g transform="translate(-4.99,-1.33) rotate(13.16) scale(0.960)">
        <g transform="translate(-4.23,-0.16) rotate(19.10) scale(0.940)" clip-path="url(#clipCircle)">
        <g transform="translate(-2.44,1.03) rotate(24.87) scale(0.920)">
        <g transform="translate(-0.05,2.13) rotate(29.85) scale(0.900)">
        <g transform="translate(2.35,3.03) rotate(33.45) scale(0.880)">
        <circle cx="0" cy="0" r="30.3" fill="url(#lgrad0)" filter="url(#shadow)" opacity="0.14"/>
        <text x="0" y="5" text-anchor="middle" font-family="Arial, sans-serif" font-size="14" fill="#FFFFFF" opacity="0.14">214</text>
      </g>
      </g>
      </g>
      </g>
      </g>
      </g>
      </g>
  </g>
  <g transform="translate(102.6, 685.0)">
      <g transform="translate(-4.99,0.24) rotate(3.10) scale(1.000)">
        <g transform="translate(-4.23,1.41) rotate(7.64) scale(0.980)">
        <g transform="translate(-2.44,2.46) rotate(13.16) scale(0.960)">
        <g transform="translate(-0.05,3.28) rotate(19.10) scale(0.940)">
        <g transform="translate(2.35,3.81) rotate(24.87) scale(0.920)">
        <g transform="translate(4.18,4.00) rotate(29.85) scale(0.900)" mask="url(#maskGradient)">
        <g transform="translate(4.98,3.83) rotate(33.45) scale(0.880)">
        <path d="M0.0,-47.7 L14.0,-19.3 L45.4,-14.7 L22.7,7.4 L28.0,38.6 L0.0,23.8 L-28.0,38.6 L-22.7,7.4 L-45.4,-14.7 L-14.0,-19.3Z" fill="url(#rgrad1)" filter="url(#blur1)" opacity="0.21"/>
      </g>
      </g>
      </g>
      </g>
      </g>
      </g>
      </g>
  </g>
  <g transform="translate(307.9, 679.5)">
      <g transform="translate(-2.44,3.49) rotate(3.10) scale(1.000)">
        <g transform="translate(-0.05,3.91) rotate(7.64) scale(0.980)">
        <g transform="translate(2.35,3.98) rotate(13.16) scale(0.960)">
        <g transform="translate(4.18,3.70) rotate(19.10) scale(0.940)">
        <g transform="translate(4.98,3.08) rotate(24.87) scale(0.920)">
        <g transform="translate(4.57,2.19) rotate(29.85) scale(0.900)">
        <g transform="translate(3.03,1.11) rotate(33.45) scale(0.880)">
        <rect x="-23.1" y="-23.1" width="46.1" height="46.1" rx="11.5" fill="url(#rgrad2)" filter="url(#shadow)" opacity="0.30"/>
        <circle cx="0" cy="0" r="15.4" fill="url(#rgrad3)" opacity="0.21"/>
      </g>
      </g>
      </g>
      </g>
      </g>
      </g>
      </g>
  </g>
  <g transform="translate(516.2, 664.9)">
      <g transform="translate(2.35,3.53) rotate(3.10) scale(1.000)">
        <g transform="translate(4.18,2.82) rotate(7.64) scale(0.980)">
        <g transform="translate(4.98,1.85) rotate(13.16) scale(0.960)">
        <g transform="translate(4.57,0.72) rotate(19.10) scale(0.940)" clip-path="url(#clipRect)">
        <g transform="translate(3.03,-0.48) rotate(24.87) scale(0.920)">
        <g transform="translate(0.75,-1.63) rotate(29.85) scale(0.900)">
        <g transform="translate(-1.71,-2.64) rotate(33.45) scale(0.880)">
        <path d="M29.8,17.2 L0.0,34.4 L-29.8,17.2 L-29.8,-17.2 L-0.0,-34.4 L29.8,-17.2Z" fill="url(#lgrad3)" filter="url(#blur3)" opacity="0.42"/>
        <ellipse cx="0" cy="0" rx="14.3" ry="9.6" fill="#FFFFFF" opacity="0.21"/>
      </g>
      </g>
      </g>
      </g>
      </g>
      </g>
      </g>
  </g>
  <g transform="translate(730.4, 648.0)">
      <g transform="translate(4.98,0.32) rotate(3.10) scale(1.000)">
        <g transform="translate(4.57,-0.87) rotate(7.64) scale(0.980)">
        <g transform="translate(3.03,-1.99) rotate(13.16) scale(0.960)">
        <g transform="translate(0.75,-2.92) rotate(19.10) scale(0.940)">
        <g transform="translate(-1.71,-3.60) rotate(24.87) scale(0.920)">
        <g transform="translate(-3.75,-3.95) rotate(29.85) scale(0.900)" mask="url(#maskDynamic)">
        <g transform="translate(-4.88,-3.96) rotate(33.45) scale(0.880)">
        <circle cx="0" cy="0" r="35.5" fill="url(#rgrad4)" filter="url(#shadow)" opacity="0.53"/>
        <text x="0" y="5" text-anchor="middle" font-family="Arial, sans-serif" font-size="14" fill="#FFFFFF" opacity="0.53">214</text>
      </g>
      </g>
      </g>
      </g>
      </g>
      </g>
      </g>
  </g>
  <g transform="translate(951.8, 636.7)">
      <g transform="translate(3.03,-3.18) rotate(3.10) scale(1.000)">
        <g transform="translate(0.75,-3.76) rotate(7.64) scale(0.980)">
        <g transform="translate(-1.71,-3.99) rotate(13.16) scale(0.960)">
        <g transform="translate(-3.75,-3.88) rotate(19.10) scale(0.940)">
        <g transform="translate(-4.88,-3.41) rotate(24.87) scale(0.920)">
        <g transform="translate(-4.81,-2.64) rotate(29.85) scale(0.900)">
        <g transform="translate(-3.56,-1.64) rotate(33.45) scale(0.880)">
        <path d="M0.0,-74.5 L21.9,-30.2 L70.9,-23.0 L35.4,11.5 L43.8,60.3 L0.0,37.3 L-43.8,60.3 L-35.4,11.5 L-70.9,-23.0 L-21.9,-30.2Z" fill="url(#rgrad0)" filter="url(#blur0)" opacity="0.65"/>
      </g>
      </g>
      </g>
      </g>
      </g>
      </g>
      </g>
  </g>
  <g transform="translate(1180.1, 636.4)">
      <g transform="translate(-1.71,-3.76) rotate(3.10) scale(1.000)">
        <g transform="translate(-3.75,-3.19) rotate(7.64) scale(0.980)">
        <g transform="translate(-4.88,-2.33) rotate(13.16) scale(0.960)">
        <g transform="translate(-4.81,-1.27) rotate(19.10) scale(0.940)" clip-path="url(#clipStar)">
        <g transform="translate(-3.56,-0.09) rotate(24.87) scale(0.920)">
        <g transform="translate(-1.44,1.10) rotate(29.85) scale(0.900)">
        <g transform="translate(1.03,2.18) rotate(33.45) scale(0.880)">
        <rect x="-32.4" y="-32.4" width="64.7" height="64.7" rx="16.2" fill="url(#lgrad1)" filter="url(#shadow)" opacity="0.75"/>
        <circle cx="0" cy="0" r="21.6" fill="url(#rgrad2)" opacity="0.53"/>
      </g>
      </g>
      </g>
      </g>
      </g>
      </g>
      </g>
  </g>
  <g transform="translate(1413.3, 647.2)">
      <g transform="translate(-4.88,-0.88) rotate(3.10) scale(1.000)">
        <g transform="translate(-4.81,0.31) rotate(7.64) scale(0.980)">
        <g transform="translate(-3.56,1.48) rotate(13.16) scale(0.960)">
        <g transform="translate(-1.44,2.51) rotate(19.10) scale(0.940)">
        <g transform="translate(1.03,3.32) rotate(24.87) scale(0.920)">
        <g transform="translate(3.25,3.83) rotate(29.85) scale(0.900)" mask="url(#maskStripes)">
        <g transform="translate(4.67,4.00) rotate(33.45) scale(0.880)">
        <path d="M26.3,15.2 L0.0,30.4 L-26.3,15.2 L-26.3,-15.2 L-0.0,-30.4 L26.3,-15.2Z" fill="url(#rgrad2)" filter="url(#blur2)" opacity="0.83"/>
        <ellipse cx="0" cy="0" rx="12.6" ry="8.4" fill="#FFFFFF" opacity="0.42"/>
      </g>
      </g>
      </g>
      </g>
      </g>
      </g>
      </g>
  </g>
  <g transform="translate(1648.1, 664.0)">
      <g transform="translate(-3.56,2.81) rotate(3.10) scale(1.000)">
        <g transform="translate(-1.44,3.52) rotate(7.64) scale(0.980)">
        <g transform="translate(1.03,3.93) rotate(13.16) scale(0.960)">
        <g transform="translate(3.25,3.98) rotate(19.10) scale(0.940)">
        <g transform="translate(4.67,3.67) rotate(24.87) scale(0.920)">
        <g transform="translate(4.95,3.04) rotate(29.85) scale(0.900)">
        <g transform="translate(4.02,2.14) rotate(33.45) scale(0.880)">
        <circle cx="0" cy="0" r="22.5" fill="url(#rgrad3)" filter="url(#shadow)" opacity="0.88"/>
        <text x="0" y="5" text-anchor="middle" font-family="Arial, sans-serif" font-size="14" fill="#FFFFFF" opacity="0.88">214</text>
      </g>
      </g>
      </g>
      </g>
      </g>
      </g>
      </g>
  </g>
  <g transform="translate(121.0, 959.0)">
      <g transform="translate(1.03,3.91) rotate(3.10) scale(1.000)">
        <g transform="translate(3.25,3.50) rotate(7.64) scale(0.980)">
        <g transform="translate(4.67,2.77) rotate(13.16) scale(0.960)">
        <g transform="translate(4.95,1.79) rotate(19.10) scale(0.940)" clip-path="url(#clipDynamic)">
        <g transform="translate(4.02,0.65) rotate(24.87) scale(0.920)">
        <g transform="translate(2.11,-0.54) rotate(29.85) scale(0.900)">
        <g transform="translate(-0.33,-1.69) rotate(33.45) scale(0.880)">
        <path d="M0.0,-53.3 L15.7,-21.6 L50.7,-16.5 L25.3,8.2 L31.3,43.1 L0.0,26.7 L-31.3,43.1 L-25.3,8.2 L-50.7,-16.5 L-15.7,-21.6Z" fill="url(#lgrad4)" filter="url(#blur4)" opacity="0.90"/>
      </g>
      </g>
      </g>
      </g>
      </g>
      </g>
      </g>
  </g>
  <g transform="translate(397.3, 318.3)" mask="url(#maskGradient)">
    <ellipse cx="0" cy="0" rx="200" ry="150" fill="url(#rgrad0)" filter="url(#blur3)" opacity="0.3"/>
  </g>
  <g transform="translate(871.9, 263.9)" mask="url(#maskCircleFade)">
    <ellipse cx="0" cy="0" rx="200" ry="150" fill="url(#rgrad1)" filter="url(#blur3)" opacity="0.3"/>
  </g>
  <g transform="translate(1280.3, 226.4)" mask="url(#maskStripes)">
    <ellipse cx="0" cy="0" rx="200" ry="150" fill="url(#rgrad2)" filter="url(#blur3)" opacity="0.3"/>
  </g>
</svg>