<?xml version="1.0" encoding="UTF-8"?>
<svg xmlns="http://www.w3.org/2000/svg" viewBox="0 0 1920 1080" width="1920" height="1080">
  <defs>
    <filter id="blur0" x="-50%" y="-50%" width="200%" height="200%">
      <feGaussianBlur in="SourceGraphic" stdDeviation="1"/>
    </filter>
    <filter id="blur1" x="-50%" y="-50%" width="200%" height="200%">
      <feGaussianBlur in="SourceGraphic" stdDeviation="3"/>
    </filter>
    <filter id="blur2" x="-50%" y="-50%" width="200%" height="200%">
      <feGaussianBlur in="SourceGraphic" stdDeviation="5"/>
    </filter>
    <filter id="blur3" x="-50%" y="-50%" width="200%" height="200%">
      <feGaussianBlur in="SourceGraphic" stdDeviation="7"/>
    </filter>
    <filter id="blur4" x="-50%" y="-50%" width="200%" height="200%">
      <feGaussianBlur in="SourceGraphic" stdDeviation="9"/>
    </filter>
    <filter id="shadow" x="-50%" y="-50%" width="200%" height="200%">
      <feGaussianBlur in="SourceAlpha" stdDeviation="3" result="blur"/>
      <feOffset in="blur" dx="4" dy="4" result="offsetBlur"/>
      <feMerge>
        <feMergeNode in="offsetBlur"/>
        <feMergeNode in="SourceGraphic"/>
      </feMerge>
    </filter>
    <linearGradient id="lgrad0" x1="0%" y1="0%" x2="41.7%" y2="0.7%">
      <stop offset="0%" stop-color="#FF6B6B"/>
      <stop offset="33%" stop-color="#4ECDC4"/>
      <stop offset="66%" stop-color="#45B7D1"/>
      <stop offset="100%" stop-color="#96E6A1"/>
    </linearGradient>
    <linearGradient id="lgrad1" x1="0%" y1="0%" x2="67.5%" y2="3.2%">
      <stop offset="0%" stop-color="#FFE66D"/>
      <stop offset="33%" stop-color="#FF6B6B"/>
      <stop offset="66%" stop-color="#C44D58"/>
      <stop offset="100%" stop-color="#8B0000"/>
    </linearGradient>
    <linearGradient id="lgrad2" x1="0%" y1="0%" x2="88.6%" y2="18.2%">
      <stop offset="0%" stop-color="#4169E1"/>
      <stop offset="33%" stop-color="#7B68EE"/>
      <stop offset="66%" stop-color="#9370DB"/>
      <stop offset="100%" stop-color="#FFD700"/>
    </linearGradient>
    <linearGradient id="lgrad3" x1="0%" y1="0%" x2="99.3%" y2="41.7%">
      <stop offset="0%" stop-color="#32CD32"/>
      <stop offset="33%" stop-color="#228B22"/>
      <stop offset="66%" stop-color="#006400"/>
      <stop offset="100%" stop-color="#ADFF2F"/>
    </linearGradient>
    <linearGradient id="lgrad4" x1="0%" y1="0%" x2="96.8%" y2="67.5%">
      <stop offset="0%" stop-color="#FF1493"/>
      <stop offset="33%" stop-color="#FF69B4"/>
      <stop offset="66%" stop-color="#FFB6C1"/>
      <stop offset="100%" stop-color="#FFC0CB"/>
    </linearGradient>
    <radialGradient id="rgrad0" cx="39.3%" cy="36.2%" r="60%">
      <stop offset="0%" stop-color="#FF6B6B" stop-opacity="1"/>
      <stop offset="50%" stop-color="#4ECDC4" stop-opacity="0.8"/>
      <stop offset="100%" stop-color="#45B7D1" stop-opacity="0.6"/>
    </radialGradient>
    <radialGradient id="rgrad1" cx="49.3%" cy="44.2%" r="60%">
      <stop offset="0%" stop-color="#FFE66D" stop-opacity="1"/>
      <stop offset="50%" stop-color="#FF6B6B" stop-opacity="0.8"/>
      <stop offset="100%" stop-color="#C44D58" stop-opacity="0.6"/>
    </radialGradient>
    <radialGradient id="rgrad2" cx="59.3%" cy="52.2%" r="60%">
      <stop offset="0%" stop-color="#4169E1" stop-opacity="1"/>
      <stop offset="50%" stop-color="#7B68EE" stop-opacity="0.8"/>
      <stop offset="100%" stop-color="#9370DB" stop-opacity="0.6"/>
    </radialGradient>
    <radialGradient id="rgrad3" cx="69.3%" cy="60.2%" r="60%">
      <stop offset="0%" stop-color="#32CD32" stop-opacity="1"/>
      <stop offset="50%" stop-color="#228B22" stop-opacity="0.8"/>
      <stop offset="100%" stop-color="#006400" stop-opacity="0.6"/>
    </radialGradient>
    <radialGradient id="rgrad4" cx="39.3%" cy="68.2%" r="60%">
      <stop offset="0%" stop-color="#FF1493" stop-opacity="1"/>
      <stop offset="50%" stop-color="#FF69B4" stop-opacity="0.8"/>
      <stop offset="100%" stop-color="#FFB6C1" stop-opacity="0.6"/>
    </radialGradient>
    <clipPath id="clipCircle">
      <circle cx="0" cy="0" r="50"/>
    </clipPath>
    <clipPath id="clipStar">
      <path d="M0.0,-50.0 L14.7,-20.2 L47.6,-15.5 L23.8,7.7 L29.4,40.5 L0.0,25.0 L-29.4,40.5 L-23.8,7.7 L-47.6,-15.5 L-14.7,-20.2Z"/>
    </clipPath>
    <clipPath id="clipHex">
      <path d="M39.0,22.5 L0.0,45.0 L-39.0,22.5 L-39.0,-22.5 L-0.0,-45.0 L39.0,-22.5Z"/>
    </clipPath>
    <clipPath id="clipRect">
      <rect x="-40" y="-30" width="80" height="60" rx="10"/>
    </clipPath>
    <clipPath id="clipDynamic">
      <circle cx="0" cy="0" r="41.3"/>
    </clipPath>
    <mask id="maskGradient" maskContentUnits="objectBoundingBox">
      <rect x="0" y="0" width="1" height="1" fill="url(#maskGrad)"/>
    </mask>
    <linearGradient id="maskGrad" x1="0%" y1="0%" x2="100%" y2="100%">
      <stop offset="0%" stop-color="white"/>
      <stop offset="100%" stop-color="black"/>
    </linearGradient>
    <mask id="maskCircleFade">
      <circle cx="0" cy="0" r="60" fill="white"/>
      <circle cx="0" cy="0" r="30" fill="black"/>
    </mask>
    <mask id="maskStripes">
      <rect x="-50" y="-50" width="100" height="100" fill="white"/>
      <rect x="-50" y="-40" width="100" height="10" fill="black"/>
      <rect x="-50" y="-20" width="100" height="10" fill="black"/>
      <rect x="-50" y="0" width="100" height="10" fill="black"/>
      <rect x="-50" y="20" width="100" height="10" fill="black"/>
      <rect x="-50" y="40" width="100" height="10" fill="black"/>
    </mask>
    <mask id="maskDynamic">
      <rect x="-60" y="-60" width="120" height="120" fill="white" fill-opacity="0.98"/>
      <circle cx="0" cy="0" r="25" fill="white"/>
    </mask>
  </defs>
  <rect width="1920" height="1080" fill="url(#lgrad0)"/>
  <g transform="translate(112.7, 77.4)">
      <g transform="translate(2.12,-3.62) rotate(4.88) scale(1.000)">
        <g transform="translate(-0.31,-3.96) rotate(10.00) scale(0.980)">
        <g transform="translate(-2.67,-3.95) rotate(14.75) scale(0.960)">
        <g transform="translate(-4.37,-3.58) rotate(18.56) scale(0.940)" clip-path="url(#clipCircle)">
        <g transform="translate(-5.00,-2.89) rotate(20.89) scale(0.920)">
        <g transform="translate(-4.41,-1.95) rotate(21.30) scale(0.900)">
        <g transform="translate(-2.73,-0.83) rotate(19.45) scale(0.880)">
        <path d="M0.0,-74.6 L21.9,-30.2 L71.0,-23.1 L35.5,11.5 L43.9,60.4 L0.0,37.3 L-43.9,60.4 L-35.5,11.5 L-71.0,-23.1 L-21.9,-30.2Z" fill="url(#lgrad0)" filter="url(#blur0)" opacity="0.89"/>
      </g>
      </g>
      </g>
      </g>
      </g>
      </g>
      </g>
  </g>
  <g transform="translate(318.1, 75.9)">
      <g transform="translate(-2.67,-3.38) rotate(4.88) scale(1.000)">
        <g transform="translate(-4.37,-2.60) rotate(10.00) scale(0.980)">
        <g transform="translate(-5.00,-1.59) rotate(14.75) scale(0.960)">
        <g transform="translate(-4.41,-0.43) rotate(18.56) scale(0.940)">
        <g transform="translate(-2.73,0.76) rotate(20.89) scale(0.920)">
        <g transform="translate(-0.39,1.89) rotate(21.30) scale(0.900)" mask="url(#maskCircleFade)">
        <g transform="translate(2.04,2.85) rotate(19.45) scale(0.880)">
        <rect x="-35.3" y="-35.3" width="70.6" height="70.6" rx="17.7" fill="url(#rgrad1)" filter="url(#shadow)" opacity="0.90"/>
        <circle cx="0" cy="0" r="23.5" fill="url(#rgrad2)" opacity="0.63"/>
      </g>
      </g>
      </g>
      </g>
      </g>
      </g>
      </g>
  </g>
  <g transform="translate(524.0, 85.7)">
      <g transform="translate(-5.00,-0.03) rotate(4.88) scale(1.000)">
        <g transform="translate(-4.41,1.15) rotate(10.00) scale(0.980)">
        <g transform="translate(-2.73,2.23) rotate(14.75) scale(0.960)">
        <g transform="translate(-0.39,3.11) rotate(18.56) scale(0.940)">
        <g transform="translate(2.04,3.72) rotate(20.89) scale(0.920)">
        <g transform="translate(3.98,3.99) rotate(21.30) scale(0.900)">
        <g transform="translate(4.94,3.90) rotate(19.45) scale(0.880)">
        <path d="M29.5,17.1 L0.0,34.1 L-29.5,17.1 L-29.5,-17.1 L-0.0,-34.1 L29.5,-17.1Z" fill="url(#rgrad2)" filter="url(#blur2)" opacity="0.87"/>
        <ellipse cx="0" cy="0" rx="14.2" ry="9.5" fill="#FFFFFF" opacity="0.44"/>
      </g>
      </g>
      </g>
      </g>
      </g>
      </g>
      </g>
  </g>
  <g transform="translate(733.8, 102.3)">
      <g transform="translate(-2.73,3.35) rotate(4.88) scale(1.000)">
        <g transform="translate(-0.39,3.85) rotate(10.00) scale(0.980)">
        <g transform="translate(2.04,4.00) rotate(14.75) scale(0.960)">
        <g transform="translate(3.98,3.80) rotate(18.56) scale(0.940)" clip-path="url(#clipRect)">
        <g transform="translate(4.94,3.25) rotate(20.89) scale(0.920)">
        <g transform="translate(4.70,2.42) rotate(21.30) scale(0.900)">
        <g transform="translate(3.30,1.37) rotate(19.45) scale(0.880)">
        <circle cx="0" cy="0" r="23.0" fill="url(#lgrad3)" filter="url(#shadow)" opacity="0.81"/>
        <text x="0" y="5" text-anchor="middle" font-family="Arial, sans-serif" font-size="14" fill="#FFFFFF" opacity="0.81">431</text>
      </g>
      </g>
      </g>
      </g>
      </g>
      </g>
      </g>
  </g>
  <g transform="translate(950.0, 117.8)">
      <g transform="translate(2.04,3.65) rotate(4.88) scale(1.000)">
        <g transform="translate(3.98,3.00) rotate(10.00) scale(0.980)">
        <g transform="translate(4.94,2.09) rotate(14.75) scale(0.960)">
        <g transform="translate(4.70,0.99) rotate(18.56) scale(0.940)">
        <g transform="translate(3.30,-0.20) rotate(20.89) scale(0.920)">
        <g transform="translate(1.09,-1.37) rotate(21.30) scale(0.900)" mask="url(#maskGradient)">
        <g transform="translate(-1.38,-2.42) rotate(19.45) scale(0.880)">
        <path d="M0.0,-48.0 L14.1,-19.4 L45.6,-14.8 L22.8,7.4 L28.2,38.8 L0.0,24.0 L-28.2,38.8 L-22.8,7.4 L-45.6,-14.8 L-14.1,-19.4Z" fill="url(#rgrad4)" filter="url(#blur4)" opacity="0.72"/>
      </g>
      </g>
      </g>
      </g>
      </g>
      </g>
      </g>
  </g>
  <g transform="translate(1173.6, 124.9)">
      <g transform="translate(4.94,0.60) rotate(4.88) scale(1.000)">
        <g transform="translate(4.70,-0.60) rotate(10.00) scale(0.980)">
        <g transform="translate(3.30,-1.74) rotate(14.75) scale(0.960)">
        <g transform="translate(1.09,-2.73) rotate(18.56) scale(0.940)">
        <g transform="translate(-1.38,-3.47) rotate(20.89) scale(0.920)">
        <g transform="translate(-3.52,-3.90) rotate(21.30) scale(0.900)">
        <g transform="translate(-4.79,-3.99) rotate(19.45) scale(0.880)">
        <rect x="-30.5" y="-30.5" width="61.0" height="61.0" rx="15.3" fill="url(#rgrad0)" filter="url(#shadow)" opacity="0.61"/>
        <circle cx="0" cy="0" r="20.3" fill="url(#rgrad1)" opacity="0.43"/>
      </g>
      </g>
      </g>
      </g>
      </g>
      </g>
      </g>
  </g>
  <g transform="translate(1403.6, 120.3)">
      <g transform="translate(3.30,-3.01) rotate(4.88) scale(1.000)">
        <g transform="translate(1.09,-3.65) rotate(10.00) scale(0.980)">
        <g transform="translate(-1.38,-3.97) rotate(14.75) scale(0.960)">
        <g transform="translate(-3.52,-3.94) rotate(18.56) scale(0.940)" clip-path="url(#clipStar)">
        <g transform="translate(-4.79,-3.55) rotate(20.89) scale(0.920)">
        <g transform="translate(-4.89,-2.84) rotate(21.30) scale(0.900)">
        <g transform="translate(-3.80,-1.89) rotate(19.45) scale(0.880)">
        <path d="M38.0,21.9 L0.0,43.9 L-38.0,21.9 L-38.0,-21.9 L-0.0,-43.9 L38.0,-21.9Z" fill="url(#lgrad1)" filter="url(#blur1)" opacity="0.50"/>
        <ellipse cx="0" cy="0" rx="18.3" ry="12.2" fill="#FFFFFF" opacity="0.25"/>
      </g>
      </g>
      </g>
      </g>
      </g>
      </g>
      </g>
  </g>
  <g transform="translate(1637.6, 106.2)">
      <g transform="translate(-1.38,-3.84) rotate(4.88) scale(1.000)">
        <g transform="translate(-3.52,-3.35) rotate(10.00) scale(0.980)">
        <g transform="translate(-4.79,-2.55) rotate(14.75) scale(0.960)">
        <g transform="translate(-4.89,-1.52) rotate(18.56) scale(0.940)">
        <g transform="translate(-3.80,-0.36) rotate(20.89) scale(0.920)">
        <g transform="translate(-1.77,0.83) rotate(21.30) scale(0.900)" mask="url(#maskDynamic)">
        <g transform="translate(0.69,1.95) rotate(19.45) scale(0.880)">
        <circle cx="0" cy="0" r="36.6" fill="url(#rgrad2)" filter="url(#shadow)" opacity="0.38"/>
        <text x="0" y="5" text-anchor="middle" font-family="Arial, sans-serif" font-size="14" fill="#FFFFFF" opacity="0.38">431</text>
      </g>
      </g>
      </g>
      </g>
      </g>
      </g>
      </g>
  </g>
  <g transform="translate(112.3, 369.1)">
      <g transform="translate(-4.79,-1.15) rotate(4.88) scale(1.000)">
        <g transform="translate(-4.89,0.04) rotate(10.00) scale(0.980)">
        <g transform="translate(-3.80,1.22) rotate(14.75) scale(0.960)">
        <g transform="translate(-1.77,2.29) rotate(18.56) scale(0.940)">
        <g transform="translate(0.69,3.16) rotate(20.89) scale(0.920)">
        <g transform="translate(2.98,3.74) rotate(21.30) scale(0.900)">
        <g transform="translate(4.54,3.99) rotate(19.45) scale(0.880)">
        <path d="M0.0,-61.1 L18.0,-24.7 L58.1,-18.9 L29.0,9.4 L35.9,49.4 L0.0,30.5 L-35.9,49.4 L-29.0,9.4 L-58.1,-18.9 L-18.0,-24.7Z" fill="url(#rgrad3)" filter="url(#blur3)" opacity="0.27"/>
      </g>
      </g>
      </g>
      </g>
      </g>
      </g>
      </g>
  </g>
  <g transform="translate(343.9, 357.2)">
      <g transform="translate(-3.80,2.60) rotate(4.88) scale(1.000)">
        <g transform="translate(-1.77,3.38) rotate(10.00) scale(0.980)">
        <g transform="translate(0.69,3.86) rotate(14.75) scale(0.960)">
        <g transform="translate(2.98,4.00) rotate(18.56) scale(0.940)" clip-path="url(#clipDynamic)">
        <g transform="translate(4.54,3.77) rotate(20.89) scale(0.920)">
        <g transform="translate(4.99,3.21) rotate(21.30) scale(0.900)">
        <g transform="translate(4.22,2.37) rotate(19.45) scale(0.880)">
        <rect x="-24.0" y="-24.0" width="48.0" height="48.0" rx="12.0" fill="url(#lgrad4)" filter="url(#shadow)" opacity="0.18"/>
        <circle cx="0" cy="0" r="16.0" fill="url(#rgrad0)" opacity="0.13"/>
      </g>
      </g>
      </g>
      </g>
      </g>
      </g>
      </g>
  </g>
  <g transform="translate(569.7, 356.0)">
      <g transform="translate(0.69,3.96) rotate(4.88) scale(1.000)">
        <g transform="translate(2.98,3.62) rotate(10.00) scale(0.980)">
        <g transform="translate(4.54,2.96) rotate(14.75) scale(0.960)">
        <g transform="translate(4.99,2.03) rotate(18.56) scale(0.940)">
        <g transform="translate(4.22,0.92) rotate(20.89) scale(0.920)">
        <g transform="translate(2.41,-0.27) rotate(21.30) scale(0.900)" mask="url(#maskStripes)">
        <g transform="translate(0.02,-1.44) rotate(19.45) scale(0.880)">
        <path d="M23.9,13.8 L0.0,27.6 L-23.9,13.8 L-23.9,-13.8 L-0.0,-27.6 L23.9,-13.8Z" fill="url(#rgrad0)" filter="url(#blur0)" opacity="0.13"/>
        <ellipse cx="0" cy="0" rx="11.5" ry="7.7" fill="#FFFFFF" opacity="0.06"/>
      </g>
      </g>
      </g>
      </g>
      </g>
      </g>
      </g>
  </g>
  <g transform="translate(788.2, 366.1)">
      <g transform="translate(4.54,1.68) rotate(4.88) scale(1.000)">
        <g transform="translate(4.99,0.53) rotate(10.00) scale(0.980)">
        <g transform="translate(4.22,-0.67) rotate(14.75) scale(0.960)">
        <g transform="translate(2.41,-1.80) rotate(18.56) scale(0.940)">
        <g transform="translate(0.02,-2.78) rotate(20.89) scale(0.920)">
        <g transform="translate(-2.38,-3.50) rotate(21.30) scale(0.900)">
        <g transform="translate(-4.20,-3.92) rotate(19.45) scale(0.880)">
        <circle cx="0" cy="0" r="28.4" fill="url(#rgrad1)" filter="url(#shadow)" opacity="0.10"/>
        <text x="0" y="5" text-anchor="middle" font-family="Arial, sans-serif" font-size="14" fill="#FFFFFF" opacity="0.10">431</text>
      </g>
      </g>
      </g>
      </g>
      </g>
      </g>
      </g>
  </g>
  <g transform="translate(999.8, 382.7)">
      <g transform="translate(4.22,-2.15) rotate(4.88) scale(1.000)">
        <g transform="translate(2.41,-3.05) rotate(10.00) scale(0.980)">
        <g transform="translate(0.02,-3.68) rotate(14.75) scale(0.960)">
        <g transform="translate(-2.38,-3.98) rotate(18.56) scale(0.940)" clip-path="url(#clipHex)">
        <g transform="translate(-4.20,-3.92) rotate(20.89) scale(0.920)">
        <g transform="translate(-4.99,-3.52) rotate(21.30) scale(0.900)">
        <g transform="translate(-4.55,-2.80) rotate(19.45) scale(0.880)">
        <path d="M0.0,-70.6 L20.8,-28.6 L67.2,-21.8 L33.6,10.9 L41.5,57.1 L0.0,35.3 L-41.5,57.1 L-33.6,10.9 L-67.2,-21.8 L-20.8,-28.6Z" fill="url(#lgrad2)" filter="url(#blur2)" opacity="0.11"/>
      </g>
      </g>
      </g>
      </g>
      </g>
      </g>
      </g>
  </g>
  <g transform="translate(1206.6, 398.1)">
      <g transform="translate(0.02,-4.00) rotate(4.88) scale(1.000)">
        <g transform="translate(-2.38,-3.83) rotate(10.00) scale(0.980)">
        <g transform="translate(-4.20,-3.31) rotate(14.75) scale(0.960)">
        <g transform="translate(-4.99,-2.50) rotate(18.56) scale(0.940)">
        <g transform="translate(-4.55,-1.46) rotate(20.89) scale(0.920)">
        <g transform="translate(-3.01,-0.30) rotate(21.30) scale(0.900)" mask="url(#maskCircleFade)">
        <g transform="translate(-0.72,0.90) rotate(19.45) scale(0.880)">
        <rect x="-37.3" y="-37.3" width="74.7" height="74.7" rx="18.7" fill="url(#rgrad3)" filter="url(#shadow)" opacity="0.16"/>
        <circle cx="0" cy="0" r="24.9" fill="url(#rgrad4)" opacity="0.11"/>
      </g>
      </g>
      </g>
      </g>
      </g>
      </g>
      </g>
  </g>
  <g transform="translate(1411.7, 405.0)">
      <g transform="translate(-4.20,-2.17) rotate(4.88) scale(1.000)">
        <g transform="translate(-4.99,-1.08) rotate(10.00) scale(0.980)">
        <g transform="translate(-4.55,0.10) rotate(14.75) scale(0.960)">
        <g transform="translate(-3.01,1.28) rotate(18.56) scale(0.940)">
        <g transform="translate(-0.72,2.34) rotate(20.89) scale(0.920)">
        <g transform="translate(1.74,3.20) rotate(21.30) scale(0.900)">
        <g transform="translate(3.77,3.76) rotate(19.45) scale(0.880)">
        <path d="M33.9,19.6 L0.0,39.1 L-33.9,19.6 L-33.9,-19.6 L-0.0,-39.1 L33.9,-19.6Z" fill="url(#rgrad4)" filter="url(#blur4)" opacity="0.23"/>
        <ellipse cx="0" cy="0" rx="16.3" ry="10.9" fill="#FFFFFF" opacity="0.12"/>
      </g>
      </g>
      </g>
      </g>
      </g>
      </g>
      </g>
  </g>
  <g transform="translate(1618.9, 400.1)">
      <g transform="translate(-4.55,1.65) rotate(4.88) scale(1.000)">
        <g transform="translate(-3.01,2.65) rotate(10.00) scale(0.980)">
        <g transform="translate(-0.72,3.42) rotate(14.75) scale(0.960)">
        <g transform="translate(1.74,3.88) rotate(18.56) scale(0.940)" clip-path="url(#clipCircle)">
        <g transform="translate(3.77,3.99) rotate(20.89) scale(0.920)">
        <g transform="translate(4.88,3.75) rotate(21.30) scale(0.900)">
        <g transform="translate(4.80,3.17) rotate(19.45) scale(0.880)">
        <circle cx="0" cy="0" r="25.5" fill="url(#lgrad0)" filter="url(#shadow)" opacity="0.33"/>
        <text x="0" y="5" text-anchor="middle" font-family="Arial, sans-serif" font-size="14" fill="#FFFFFF" opacity="0.33">431</text>
      </g>
      </g>
      </g>
      </g>
      </g>
      </g>
      </g>
  </g>
  <g transform="translate(71.3, 665.8)">
      <g transform="translate(-0.72,3.96) rotate(4.88) scale(1.000)">
        <g transform="translate(1.74,3.95) rotate(10.00) scale(0.980)">
        <g transform="translate(3.77,3.59) rotate(14.75) scale(0.960)">
        <g transform="translate(4.88,2.91) rotate(18.56) scale(0.940)">
        <g transform="translate(4.80,1.97) rotate(20.89) scale(0.920)">
        <g transform="translate(3.54,0.86) rotate(21.30) scale(0.900)" mask="url(#maskGradient)">
        <g transform="translate(1.41,-0.34) rotate(19.45) scale(0.880)">
        <path d="M0.0,-45.0 L13.2,-18.2 L42.8,-13.9 L21.4,7.0 L26.5,36.4 L0.0,22.5 L-26.5,36.4 L-21.4,7.0 L-42.8,-13.9 L-13.2,-18.2Z" fill="url(#rgrad1)" filter="url(#blur1)" opacity="0.45"/>
      </g>
      </g>
      </g>
      </g>
      </g>
      </g>
      </g>
  </g>
  <g transform="translate(290.7, 648.7)">
      <g transform="translate(3.77,2.63) rotate(4.88) scale(1.000)">
        <g transform="translate(4.88,1.62) rotate(10.00) scale(0.980)">
        <g transform="translate(4.80,0.46) rotate(14.75) scale(0.960)">
        <g transform="translate(3.54,-0.73) rotate(18.56) scale(0.940)">
        <g transform="translate(1.41,-1.86) rotate(20.89) scale(0.920)">
        <g transform="translate(-1.06,-2.82) rotate(21.30) scale(0.900)">
        <g transform="translate(-3.27,-3.54) rotate(19.45) scale(0.880)">
        <rect x="-26.4" y="-26.4" width="52.8" height="52.8" rx="13.2" fill="url(#rgrad2)" filter="url(#shadow)" opacity="0.57"/>
        <circle cx="0" cy="0" r="17.6" fill="url(#rgrad3)" opacity="0.40"/>
      </g>
      </g>
      </g>
      </g>
      </g>
      </g>
      </g>
  </g>
  <g transform="translate(517.2, 637.0)">
      <g transform="translate(4.80,-1.12) rotate(4.88) scale(1.000)">
        <g transform="translate(3.54,-2.21) rotate(10.00) scale(0.980)">
        <g transform="translate(1.41,-3.09) rotate(14.75) scale(0.960)">
        <g transform="translate(-1.06,-3.70) rotate(18.56) scale(0.940)" clip-path="url(#clipRect)">
        <g transform="translate(-3.27,-3.98) rotate(20.89) scale(0.920)">
        <g transform="translate(-4.68,-3.91) rotate(21.30) scale(0.900)">
        <g transform="translate(-4.95,-3.48) rotate(19.45) scale(0.880)">
        <path d="M34.9,20.2 L0.0,40.3 L-34.9,20.2 L-34.9,-20.2 L-0.0,-40.3 L34.9,-20.2Z" fill="url(#lgrad3)" filter="url(#blur3)" opacity="0.68"/>
        <ellipse cx="0" cy="0" rx="16.8" ry="11.2" fill="#FFFFFF" opacity="0.34"/>
      </g>
      </g>
      </g>
      </g>
      </g>
      </g>
      </g>
  </g>
  <g transform="translate(749.4, 636.1)">
      <g transform="translate(1.41,-3.84) rotate(4.88) scale(1.000)">
        <g transform="translate(-1.06,-4.00) rotate(10.00) scale(0.980)">
        <g transform="translate(-3.27,-3.81) rotate(14.75) scale(0.960)">
        <g transform="translate(-4.68,-3.27) rotate(18.56) scale(0.940)">
        <g transform="translate(-4.95,-2.44) rotate(20.89) scale(0.920)">
        <g transform="translate(-4.00,-1.40) rotate(21.30) scale(0.900)" mask="url(#maskDynamic)">
        <g transform="translate(-2.08,-0.23) rotate(19.45) scale(0.880)">
        <circle cx="0" cy="0" r="37.5" fill="url(#rgrad4)" filter="url(#shadow)" opacity="0.78"/>
        <text x="0" y="5" text-anchor="middle" font-family="Arial, sans-serif" font-size="14" fill="#FFFFFF" opacity="0.78">431</text>
      </g>
      </g>
      </g>
      </g>
      </g>
      </g>
      </g>
  </g>
  <g transform="translate(984.1, 646.4)">
      <g transform="translate(-3.27,-3.02) rotate(4.88) scale(1.000)">
        <g transform="translate(-4.68,-2.12) rotate(10.00) scale(0.980)">
        <g transform="translate(-4.95,-1.02) rotate(14.75) scale(0.960)">
        <g transform="translate(-4.00,0.17) rotate(18.56) scale(0.940)">
        <g transform="translate(-2.08,1.34) rotate(20.89) scale(0.920)">
        <g transform="translate(0.36,2.40) rotate(21.30) scale(0.900)">
        <g transform="translate(2.71,3.24) rotate(19.45) scale(0.880)">
        <path d="M0.0,-68.9 L20.3,-27.9 L65.6,-21.3 L32.8,10.7 L40.5,55.8 L0.0,34.5 L-40.5,55.8 L-32.8,10.7 L-65.6,-21.3 L-20.3,-27.9Z" fill="url(#rgrad0)" filter="url(#blur0)" opacity="0.85"/>
      </g>
      </g>
      </g>
      </g>
      </g>
      </g>
      </g>
  </g>
  <g transform="translate(1217.9, 663.1)">
      <g transform="translate(-4.95,0.57) rotate(4.88) scale(1.000)">
        <g transform="translate(-4.00,1.71) rotate(10.00) scale(0.980)">
        <g transform="translate(-2.08,2.70) rotate(14.75) scale(0.960)">
        <g transform="translate(0.36,3.45) rotate(18.56) scale(0.940)" clip-path="url(#clipStar)">
        <g transform="translate(2.71,3.90) rotate(20.89) scale(0.920)">
        <g transform="translate(4.39,3.99) rotate(21.30) scale(0.900)">
        <g transform="translate(5.00,3.73) rotate(19.45) scale(0.880)">
        <rect x="-27.4" y="-27.4" width="54.7" height="54.7" rx="13.7" fill="url(#lgrad1)" filter="url(#shadow)" opacity="0.89"/>
        <circle cx="0" cy="0" r="18.2" fill="url(#rgrad2)" opacity="0.62"/>
      </g>
      </g>
      </g>
      </g>
      </g>
      </g>
      </g>
  </g>
  <g transform="translate(1447.2, 678.4)">
      <g transform="translate(-2.08,3.64) rotate(4.88) scale(1.000)">
        <g transform="translate(0.36,3.97) rotate(10.00) scale(0.980)">
        <g transform="translate(2.71,3.94) rotate(14.75) scale(0.960)">
        <g transform="translate(4.39,3.56) rotate(18.56) scale(0.940)">
        <g transform="translate(5.00,2.87) rotate(20.89) scale(0.920)">
        <g transform="translate(4.39,1.91) rotate(21.30) scale(0.900)" mask="url(#maskStripes)">
        <g transform="translate(2.70,0.79) rotate(19.45) scale(0.880)">
        <path d="M23.6,13.6 L0.0,27.2 L-23.6,13.6 L-23.6,-13.6 L-0.0,-27.2 L23.6,-13.6Z" fill="url(#rgrad2)" filter="url(#blur2)" opacity="0.90"/>
        <ellipse cx="0" cy="0" rx="11.3" ry="7.6" fill="#FFFFFF" opacity="0.45"/>
      </g>
      </g>
      </g>
      </g>
      </g>
      </g>
      </g>
  </g>
  <g transform="translate(1669.9, 685.0)">
      <g transform="translate(2.71,3.36) rotate(4.88) scale(1.000)">
        <g transform="translate(4.39,2.57) rotate(10.00) scale(0.980)">
        <g transform="translate(5.00,1.55) rotate(14.75) scale(0.960)">
        <g transform="translate(4.39,0.40) rotate(18.56) scale(0.940)">
        <g transform="translate(2.70,-0.80) rotate(20.89) scale(0.920)">
        <g transform="translate(0.35,-1.92) rotate(21.30) scale(0.900)">
        <g transform="translate(-2.08,-2.87) rotate(19.45) scale(0.880)">
        <circle cx="0" cy="0" r="24.7" fill="url(#rgrad3)" filter="url(#shadow)" opacity="0.87"/>
        <text x="0" y="5" text-anchor="middle" font-family="Arial, sans-serif" font-size="14" fill="#FFFFFF" opacity="0.87">431</text>
      </g>
      </g>
      </g>
      </g>
      </g>
      </g>
      </g>
  </g>
  <g transform="translate(125.3, 959.8)">
      <g transform="translate(5.00,-0.00) rotate(4.88) scale(1.000)">
        <g transform="translate(4.39,-1.19) rotate(10.00) scale(0.980)">
        <g transform="translate(2.70,-2.26) rotate(14.75) scale(0.960)">
        <g transform="translate(0.35,-3.14) rotate(18.56) scale(0.940)" clip-path="url(#clipDynamic)">
        <g transform="translate(-2.08,-3.73) rotate(20.89) scale(0.920)">
        <g transform="translate(-4.01,-3.99) rotate(21.30) scale(0.900)">
        <g transform="translate(-4.95,-3.89) rotate(19.45) scale(0.880)">
        <path d="M0.0,-63.3 L18.6,-25.6 L60.2,-19.6 L30.1,9.8 L37.2,51.2 L0.0,31.6 L-37.2,51.2 L-30.1,9.8 L-60.2,-19.6 L-18.6,-25.6Z" fill="url(#lgrad4)" filter="url(#blur4)" opacity="0.81"/>
      </g>
      </g>
      </g>
      </g>
      </g>
      </g>
      </g>
  </g>
  <g transform="translate(342.3, 227.5)" mask="url(#maskGradient)">
    <ellipse cx="0" cy="0" rx="200" ry="150" fill="url(#rgrad0)" filter="url(#blur3)" opacity="0.3"/>
  </g>
  <g transform="translate(746.6, 222.7)" mask="url(#maskCircleFade)">
    <ellipse cx="0" cy="0" rx="200" ry="150" fill="url(#rgrad1)" filter="url(#blur3)" opacity="0.3"/>
  </g>
  <g transform="translate(1200.0, 254.3)" mask="url(#maskStripes)">
    <ellipse cx="0" cy="0" rx="200" ry="150" fill="url(#rgrad2)" filter="url(#blur3)" opacity="0.3"/>
  </g>
</svg>