<?xml version="1.0" encoding="UTF-8"?>
<svg xmlns="http://www.w3.org/2000/svg" viewBox="0 0 1920 1080" width="1920" height="1080">
  <defs>
    <filter id="blur0" x="-50%" y="-50%" width="200%" height="200%">
      <feGaussianBlur in="SourceGraphic" stdDeviation="1"/>
    </filter>
    <filter id="blur1" x="-50%" y="-50%" width="200%" height="200%">
      <feGaussianBlur in="SourceGraphic" stdDeviation="3"/>
    </filter>
    <filter id="blur2" x="-50%" y="-50%" width="200%" height="200%">
      <feGaussianBlur in="SourceGraphic" stdDeviation="5"/>
    </filter>
    <filter id="blur3" x="-50%" y="-50%" width="200%" height="200%">
      <feGaussianBlur in="SourceGraphic" stdDeviation="7"/>
    </filter>
    <filter id="blur4" x="-50%" y="-50%" width="200%" height="200%">
      <feGaussianBlur in="SourceGraphic" stdDeviation="9"/>
    </filter>
    <filter id="shadow" x="-50%" y="-50%" width="200%" height="200%">
      <feGaussianBlur in="SourceAlpha" stdDeviation="3" result="blur"/>
      <feOffset in="blur" dx="4" dy="4" result="offsetBlur"/>
      <feMerge>
        <feMergeNode in="offsetBlur"/>
        <feMergeNode in="SourceGraphic"/>
      </feMerge>
    </filter>
    <linearGradient id="lgrad0" x1="0%" y1="0%" x2="13.4%" y2="84.1%">
      <stop offset="0%" stop-color="#FF6B6B"/>
      <stop offset="33%" stop-color="#4ECDC4"/>
      <stop offset="66%" stop-color="#45B7D1"/>
      <stop offset="100%" stop-color="#96E6A1"/>
    </linearGradient>
    <linearGradient id="lgrad1" x1="0%" y1="0%" x2="1.3%" y2="61.2%">
      <stop offset="0%" stop-color="#FFE66D"/>
      <stop offset="33%" stop-color="#FF6B6B"/>
      <stop offset="66%" stop-color="#C44D58"/>
      <stop offset="100%" stop-color="#8B0000"/>
    </linearGradient>
    <linearGradient id="lgrad2" x1="0%" y1="0%" x2="2.2%" y2="35.4%">
      <stop offset="0%" stop-color="#4169E1"/>
      <stop offset="33%" stop-color="#7B68EE"/>
      <stop offset="66%" stop-color="#9370DB"/>
      <stop offset="100%" stop-color="#FFD700"/>
    </linearGradient>
    <linearGradient id="lgrad3" x1="0%" y1="0%" x2="15.9%" y2="13.4%">
      <stop offset="0%" stop-color="#32CD32"/>
      <stop offset="33%" stop-color="#228B22"/>
      <stop offset="66%" stop-color="#006400"/>
      <stop offset="100%" stop-color="#ADFF2F"/>
    </linearGradient>
    <linearGradient id="lgrad4" x1="0%" y1="0%" x2="38.8%" y2="1.3%">
      <stop offset="0%" stop-color="#FF1493"/>
      <stop offset="33%" stop-color="#FF69B4"/>
      <stop offset="66%" stop-color="#FFB6C1"/>
      <stop offset="100%" stop-color="#FFC0CB"/>
    </linearGradient>
    <radialGradient id="rgrad0" cx="45.2%" cy="66.8%" r="60%">
      <stop offset="0%" stop-color="#FF6B6B" stop-opacity="1"/>
      <stop offset="50%" stop-color="#4ECDC4" stop-opacity="0.8"/>
      <stop offset="100%" stop-color="#45B7D1" stop-opacity="0.6"/>
    </radialGradient>
    <radialGradient id="rgrad1" cx="55.2%" cy="34.8%" r="60%">
      <stop offset="0%" stop-color="#FFE66D" stop-opacity="1"/>
      <stop offset="50%" stop-color="#FF6B6B" stop-opacity="0.8"/>
      <stop offset="100%" stop-color="#C44D58" stop-opacity="0.6"/>
    </radialGradient>
    <radialGradient id="rgrad2" cx="65.2%" cy="42.8%" r="60%">
      <stop offset="0%" stop-color="#4169E1" stop-opacity="1"/>
      <stop offset="50%" stop-color="#7B68EE" stop-opacity="0.8"/>
      <stop offset="100%" stop-color="#9370DB" stop-opacity="0.6"/>
    </radialGradient>
    <radialGradient id="rgrad3" cx="35.2%" cy="50.8%" r="60%">
      <stop offset="0%" stop-color="#32CD32" stop-opacity="1"/>
      <stop offset="50%" stop-color="#228B22" stop-opacity="0.8"/>
      <stop offset="100%" stop-color="#006400" stop-opacity="0.6"/>
    </radialGradient>
    <radialGradient id="rgrad4" cx="45.2%" cy="58.8%" r="60%">
      <stop offset="0%" stop-color="#FF1493" stop-opacity="1"/>
      <stop offset="50%" stop-color="#FF69B4" stop-opacity="0.8"/>
      <stop offset="100%" stop-color="#FFB6C1" stop-opacity="0.6"/>
    </radialGradient>
    <clipPath id="clipCircle">
      <circle cx="0" cy="0" r="50"/>
    </clipPath>
    <clipPath id="clipStar">
      <path d="M0.0,-50.0 L14.7,-20.2 L47.6,-15.5 L23.8,7.7 L29.4,40.5 L0.0,25.0 L-29.4,40.5 L-23.8,7.7 L-47.6,-15.5 L-14.7,-20.2Z"/>
    </clipPath>
    <clipPath id="clipHex">
      <path d="M39.0,22.5 L0.0,45.0 L-39.0,22.5 L-39.0,-22.5 L-0.0,-45.0 L39.0,-22.5Z"/>
    </clipPath>
    <clipPath id="clipRect">
      <rect x="-40" y="-30" width="80" height="60" rx="10"/>
    </clipPath>
    <clipPath id="clipDynamic">
      <circle cx="0" cy="0" r="48.7"/>
    </clipPath>
    <mask id="maskGradient" maskContentUnits="objectBoundingBox">
      <rect x="0" y="0" width="1" height="1" fill="url(#maskGrad)"/>
    </mask>
    <linearGradient id="maskGrad" x1="0%" y1="0%" x2="100%" y2="100%">
      <stop offset="0%" stop-color="white"/>
      <stop offset="100%" stop-color="black"/>
    </linearGradient>
    <mask id="maskCircleFade">
      <circle cx="0" cy="0" r="60" fill="white"/>
      <circle cx="0" cy="0" r="30" fill="black"/>
    </mask>
    <mask id="maskStripes">
      <rect x="-50" y="-50" width="100" height="100" fill="white"/>
      <rect x="-50" y="-40" width="100" height="10" fill="black"/>
      <rect x="-50" y="-20" width="100" height="10" fill="black"/>
      <rect x="-50" y="0" width="100" height="10" fill="black"/>
      <rect x="-50" y="20" width="100" height="10" fill="black"/>
      <rect x="-50" y="40" width="100" height="10" fill="black"/>
    </mask>
    <mask id="maskDynamic">
      <rect x="-60" y="-60" width="120" height="120" fill="white" fill-opacity="0.68"/>
      <circle cx="0" cy="0" r="25" fill="white"/>
    </mask>
  </defs>
  <rect width="1920" height="1080" fill="url(#lgrad0)"/>
  <g transform="translate(127.4, 110.2)">
      <g transform="translate(4.57,1.63) rotate(2.72) scale(1.000)">
        <g transform="translate(4.98,0.48) rotate(7.00) scale(0.980)">
        <g transform="translate(4.18,-0.72) rotate(12.42) scale(0.960)">
        <g transform="translate(2.36,-1.85) rotate(18.46) scale(0.940)" clip-path="url(#clipCircle)">
        <g transform="translate(-0.05,-2.81) rotate(24.52) scale(0.920)">
        <g transform="translate(-2.44,-3.53) rotate(30.00) scale(0.900)">
        <g transform="translate(-4.23,-3.93) rotate(34.27) scale(0.880)">
        <path d="M0.0,-68.2 L20.0,-27.6 L64.8,-21.1 L32.4,10.5 L40.1,55.1 L0.0,34.1 L-40.1,55.1 L-32.4,10.5 L-64.8,-21.1 L-20.0,-27.6Z" fill="url(#lgrad0)" filter="url(#blur0)" opacity="0.72"/>
      </g>
      </g>
      </g>
      </g>
      </g>
      </g>
      </g>
  </g>
  <g transform="translate(349.9, 93.1)">
      <g transform="translate(4.18,-2.19) rotate(2.72) scale(1.000)">
        <g transform="translate(2.36,-3.08) rotate(7.00) scale(0.980)">
        <g transform="translate(-0.05,-3.70) rotate(12.42) scale(0.960)">
        <g transform="translate(-2.44,-3.98) rotate(18.46) scale(0.940)">
        <g transform="translate(-4.23,-3.91) rotate(24.52) scale(0.920)">
        <g transform="translate(-4.99,-3.49) rotate(30.00) scale(0.900)" mask="url(#maskCircleFade)">
        <g transform="translate(-4.53,-2.76) rotate(34.27) scale(0.880)">
        <rect x="-37.5" y="-37.5" width="75.0" height="75.0" rx="18.7" fill="url(#rgrad1)" filter="url(#shadow)" opacity="0.81"/>
        <circle cx="0" cy="0" r="25.0" fill="url(#rgrad2)" opacity="0.56"/>
      </g>
      </g>
      </g>
      </g>
      </g>
      </g>
      </g>
  </g>
  <g transform="translate(565.1, 79.2)">
      <g transform="translate(-0.05,-4.00) rotate(2.72) scale(1.000)">
        <g transform="translate(-2.44,-3.81) rotate(7.00) scale(0.980)">
        <g transform="translate(-4.23,-3.28) rotate(12.42) scale(0.960)">
        <g transform="translate(-4.99,-2.46) rotate(18.46) scale(0.940)">
        <g transform="translate(-4.53,-1.41) rotate(24.52) scale(0.920)">
        <g transform="translate(-2.95,-0.25) rotate(30.00) scale(0.900)">
        <g transform="translate(-0.66,0.95) rotate(34.27) scale(0.880)">
        <path d="M35.4,20.4 L0.0,40.8 L-35.4,20.4 L-35.4,-20.4 L-0.0,-40.8 L35.4,-20.4Z" fill="url(#rgrad2)" filter="url(#blur2)" opacity="0.87"/>
        <ellipse cx="0" cy="0" rx="17.0" ry="11.3" fill="#FFFFFF" opacity="0.43"/>
      </g>
      </g>
      </g>
      </g>
      </g>
      </g>
      </g>
  </g>
  <g transform="translate(774.1, 75.1)">
      <g transform="translate(-4.23,-2.13) rotate(2.72) scale(1.000)">
        <g transform="translate(-4.99,-1.03) rotate(7.00) scale(0.980)">
        <g transform="translate(-4.53,0.15) rotate(12.42) scale(0.960)">
        <g transform="translate(-2.95,1.33) rotate(18.46) scale(0.940)" clip-path="url(#clipRect)">
        <g transform="translate(-0.66,2.38) rotate(24.52) scale(0.920)">
        <g transform="translate(1.80,3.23) rotate(30.00) scale(0.900)">
        <g transform="translate(3.81,3.78) rotate(34.27) scale(0.880)">
        <circle cx="0" cy="0" r="26.8" fill="url(#lgrad3)" filter="url(#shadow)" opacity="0.90"/>
        <text x="0" y="5" text-anchor="middle" font-family="Arial, sans-serif" font-size="14" fill="#FFFFFF" opacity="0.90">184</text>
      </g>
      </g>
      </g>
      </g>
      </g>
      </g>
      </g>
  </g>
  <g transform="translate(979.7, 82.8)">
      <g transform="translate(-4.53,1.70) rotate(2.72) scale(1.000)">
        <g transform="translate(-2.95,2.69) rotate(7.00) scale(0.980)">
        <g transform="translate(-0.66,3.45) rotate(12.42) scale(0.960)">
        <g transform="translate(1.80,3.89) rotate(18.46) scale(0.940)">
        <g transform="translate(3.81,3.99) rotate(24.52) scale(0.920)">
        <g transform="translate(4.90,3.73) rotate(30.00) scale(0.900)" mask="url(#maskGradient)">
        <g transform="translate(4.78,3.14) rotate(34.27) scale(0.880)">
        <path d="M0.0,-45.1 L13.3,-18.3 L42.9,-13.9 L21.5,7.0 L26.5,36.5 L0.0,22.6 L-26.5,36.5 L-21.5,7.0 L-42.9,-13.9 L-13.3,-18.3Z" fill="url(#rgrad4)" filter="url(#blur4)" opacity="0.89"/>
      </g>
      </g>
      </g>
      </g>
      </g>
      </g>
      </g>
  </g>
  <g transform="translate(1185.4, 98.5)">
      <g transform="translate(-0.66,3.97) rotate(2.72) scale(1.000)">
        <g transform="translate(1.80,3.94) rotate(7.00) scale(0.980)">
        <g transform="translate(3.81,3.57) rotate(12.42) scale(0.960)">
        <g transform="translate(4.90,2.88) rotate(18.46) scale(0.940)">
        <g transform="translate(4.78,1.93) rotate(24.52) scale(0.920)">
        <g transform="translate(3.49,0.81) rotate(30.00) scale(0.900)">
        <g transform="translate(1.35,-0.39) rotate(34.27) scale(0.880)">
        <rect x="-25.1" y="-25.1" width="50.2" height="50.2" rx="12.6" fill="url(#rgrad0)" filter="url(#shadow)" opacity="0.85"/>
        <circle cx="0" cy="0" r="16.7" fill="url(#rgrad1)" opacity="0.60"/>
      </g>
      </g>
      </g>
      </g>
      </g>
      </g>
      </g>
  </g>
  <g transform="translate(1394.6, 114.9)">
      <g transform="translate(3.81,2.59) rotate(2.72) scale(1.000)">
        <g transform="translate(4.90,1.57) rotate(7.00) scale(0.980)">
        <g transform="translate(4.78,0.41) rotate(12.42) scale(0.960)">
        <g transform="translate(3.49,-0.78) rotate(18.46) scale(0.940)" clip-path="url(#clipStar)">
        <g transform="translate(1.35,-1.91) rotate(24.52) scale(0.920)">
        <g transform="translate(-1.12,-2.86) rotate(30.00) scale(0.900)">
        <g transform="translate(-3.32,-3.56) rotate(34.27) scale(0.880)">
        <path d="M33.4,19.3 L0.0,38.6 L-33.4,19.3 L-33.4,-19.3 L-0.0,-38.6 L33.4,-19.3Z" fill="url(#lgrad1)" filter="url(#blur1)" opacity="0.78"/>
        <ellipse cx="0" cy="0" rx="16.1" ry="10.7" fill="#FFFFFF" opacity="0.39"/>
      </g>
      </g>
      </g>
      </g>
      </g>
      </g>
      </g>
  </g>
  <g transform="translate(1610.1, 124.3)">
      <g transform="translate(4.78,-1.17) rotate(2.72) scale(1.000)">
        <g transform="translate(3.49,-2.25) rotate(7.00) scale(0.980)">
        <g transform="translate(1.35,-3.13) rotate(12.42) scale(0.960)">
        <g transform="translate(-1.12,-3.72) rotate(18.46) scale(0.940)">
        <g transform="translate(-3.32,-3.99) rotate(24.52) scale(0.920)">
        <g transform="translate(-4.71,-3.90) rotate(30.00) scale(0.900)" mask="url(#maskDynamic)">
        <g transform="translate(-4.94,-3.46) rotate(34.27) scale(0.880)">
        <circle cx="0" cy="0" r="37.2" fill="url(#rgrad2)" filter="url(#shadow)" opacity="0.68"/>
        <text x="0" y="5" text-anchor="middle" font-family="Arial, sans-serif" font-size="14" fill="#FFFFFF" opacity="0.68">184</text>
      </g>
      </g>
      </g>
      </g>
      </g>
      </g>
      </g>
  </g>
  <g transform="translate(72.8, 402.3)">
      <g transform="translate(1.35,-3.85) rotate(2.72) scale(1.000)">
        <g transform="translate(-1.12,-4.00) rotate(7.00) scale(0.980)">
        <g transform="translate(-3.32,-3.79) rotate(12.42) scale(0.960)">
        <g transform="translate(-4.71,-3.24) rotate(18.46) scale(0.940)">
        <g transform="translate(-4.94,-2.40) rotate(24.52) scale(0.920)">
        <g transform="translate(-3.96,-1.35) rotate(30.00) scale(0.900)">
        <g transform="translate(-2.02,-0.18) rotate(34.27) scale(0.880)">
        <path d="M0.0,-71.3 L20.9,-28.8 L67.8,-22.0 L33.9,11.0 L41.9,57.7 L0.0,35.6 L-41.9,57.7 L-33.9,11.0 L-67.8,-22.0 L-20.9,-28.8Z" fill="url(#rgrad3)" filter="url(#blur3)" opacity="0.57"/>
      </g>
      </g>
      </g>
      </g>
      </g>
      </g>
      </g>
  </g>
  <g transform="translate(302.3, 389.8)">
      <g transform="translate(-3.32,-2.99) rotate(2.72) scale(1.000)">
        <g transform="translate(-4.71,-2.07) rotate(7.00) scale(0.980)">
        <g transform="translate(-4.94,-0.97) rotate(12.42) scale(0.960)">
        <g transform="translate(-3.96,0.22) rotate(18.46) scale(0.940)" clip-path="url(#clipDynamic)">
        <g transform="translate(-2.02,1.39) rotate(24.52) scale(0.920)">
        <g transform="translate(0.42,2.44) rotate(30.00) scale(0.900)">
        <g transform="translate(2.76,3.27) rotate(34.27) scale(0.880)">
        <rect x="-28.9" y="-28.9" width="57.7" height="57.7" rx="14.4" fill="url(#lgrad4)" filter="url(#shadow)" opacity="0.45"/>
        <circle cx="0" cy="0" r="19.2" fill="url(#rgrad0)" opacity="0.31"/>
      </g>
      </g>
      </g>
      </g>
      </g>
      </g>
      </g>
  </g>
  <g transform="translate(536.0, 372.7)">
      <g transform="translate(-4.94,0.62) rotate(2.72) scale(1.000)">
        <g transform="translate(-3.96,1.76) rotate(7.00) scale(0.980)">
        <g transform="translate(-2.02,2.74) rotate(12.42) scale(0.960)">
        <g transform="translate(0.42,3.48) rotate(18.46) scale(0.940)">
        <g transform="translate(2.76,3.91) rotate(24.52) scale(0.920)">
        <g transform="translate(4.42,3.99) rotate(30.00) scale(0.900)" mask="url(#maskStripes)">
        <g transform="translate(5.00,3.71) rotate(34.27) scale(0.880)">
        <path d="M24.1,13.9 L0.0,27.8 L-24.1,13.9 L-24.1,-13.9 L-0.0,-27.8 L24.1,-13.9Z" fill="url(#rgrad0)" filter="url(#blur0)" opacity="0.33"/>
        <ellipse cx="0" cy="0" rx="11.6" ry="7.7" fill="#FFFFFF" opacity="0.17"/>
      </g>
      </g>
      </g>
      </g>
      </g>
      </g>
      </g>
  </g>
  <g transform="translate(770.8, 359.0)">
      <g transform="translate(-2.02,3.66) rotate(2.72) scale(1.000)">
        <g transform="translate(0.42,3.97) rotate(7.00) scale(0.980)">
        <g transform="translate(2.76,3.93) rotate(12.42) scale(0.960)">
        <g transform="translate(4.42,3.54) rotate(18.46) scale(0.940)">
        <g transform="translate(5.00,2.83) rotate(24.52) scale(0.920)">
        <g transform="translate(4.35,1.87) rotate(30.00) scale(0.900)">
        <g transform="translate(2.64,0.74) rotate(34.27) scale(0.880)">
        <circle cx="0" cy="0" r="23.7" fill="url(#rgrad1)" filter="url(#shadow)" opacity="0.23"/>
        <text x="0" y="5" text-anchor="middle" font-family="Arial, sans-serif" font-size="14" fill="#FFFFFF" opacity="0.23">184</text>
      </g>
      </g>
      </g>
      </g>
      </g>
      </g>
      </g>
  </g>
  <g transform="translate(1002.9, 355.2)">
      <g transform="translate(2.76,3.34) rotate(2.72) scale(1.000)">
        <g transform="translate(4.42,2.53) rotate(7.00) scale(0.980)">
        <g transform="translate(5.00,1.51) rotate(12.42) scale(0.960)">
        <g transform="translate(4.35,0.34) rotate(18.46) scale(0.940)" clip-path="url(#clipHex)">
        <g transform="translate(2.64,-0.85) rotate(24.52) scale(0.920)">
        <g transform="translate(0.28,-1.97) rotate(30.00) scale(0.900)">
        <g transform="translate(-2.14,-2.91) rotate(34.27) scale(0.880)">
        <path d="M0.0,-60.1 L17.7,-24.3 L57.2,-18.6 L28.6,9.3 L35.3,48.7 L0.0,30.1 L-35.3,48.7 L-28.6,9.3 L-57.2,-18.6 L-17.7,-24.3Z" fill="url(#lgrad2)" filter="url(#blur2)" opacity="0.16"/>
      </g>
      </g>
      </g>
      </g>
      </g>
      </g>
      </g>
  </g>
  <g transform="translate(1229.4, 363.1)">
      <g transform="translate(5.00,-0.06) rotate(2.72) scale(1.000)">
        <g transform="translate(4.35,-1.23) rotate(7.00) scale(0.980)">
        <g transform="translate(2.64,-2.30) rotate(12.42) scale(0.960)">
        <g transform="translate(0.28,-3.17) rotate(18.46) scale(0.940)">
        <g transform="translate(-2.14,-3.75) rotate(24.52) scale(0.920)">
        <g transform="translate(-4.05,-3.99) rotate(30.00) scale(0.900)" mask="url(#maskCircleFade)">
        <g transform="translate(-4.96,-3.88) rotate(34.27) scale(0.880)">
        <rect x="-36.3" y="-36.3" width="72.7" height="72.7" rx="18.2" fill="url(#rgrad3)" filter="url(#shadow)" opacity="0.11"/>
        <circle cx="0" cy="0" r="24.2" fill="url(#rgrad4)" opacity="0.08"/>
      </g>
      </g>
      </g>
      </g>
      </g>
      </g>
      </g>
  </g>
  <g transform="translate(1448.7, 378.9)">
      <g transform="translate(2.64,-3.40) rotate(2.72) scale(1.000)">
        <g transform="translate(0.28,-3.87) rotate(7.00) scale(0.980)">
        <g transform="translate(-2.14,-4.00) rotate(12.42) scale(0.960)">
        <g transform="translate(-4.05,-3.77) rotate(18.46) scale(0.940)">
        <g transform="translate(-4.96,-3.20) rotate(24.52) scale(0.920)">
        <g transform="translate(-4.66,-2.35) rotate(30.00) scale(0.900)">
        <g transform="translate(-3.22,-1.29) rotate(34.27) scale(0.880)">
        <path d="M38.2,22.1 L0.0,44.1 L-38.2,22.1 L-38.2,-22.1 L-0.0,-44.1 L38.2,-22.1Z" fill="url(#rgrad4)" filter="url(#blur4)" opacity="0.10"/>
        <ellipse cx="0" cy="0" rx="18.4" ry="12.3" fill="#FFFFFF" opacity="0.05"/>
      </g>
      </g>
      </g>
      </g>
      </g>
      </g>
      </g>
  </g>
  <g transform="translate(1661.0, 395.2)">
      <g transform="translate(-2.14,-3.61) rotate(2.72) scale(1.000)">
        <g transform="translate(-4.05,-2.95) rotate(7.00) scale(0.980)">
        <g transform="translate(-4.96,-2.01) rotate(12.42) scale(0.960)">
        <g transform="translate(-4.66,-0.90) rotate(18.46) scale(0.940)" clip-path="url(#clipCircle)">
        <g transform="translate(-3.22,0.29) rotate(24.52) scale(0.920)">
        <g transform="translate(-0.99,1.45) rotate(30.00) scale(0.900)">
        <g transform="translate(1.48,2.49) rotate(34.27) scale(0.880)">
        <circle cx="0" cy="0" r="31.0" fill="url(#lgrad0)" filter="url(#shadow)" opacity="0.13"/>
        <text x="0" y="5" text-anchor="middle" font-family="Arial, sans-serif" font-size="14" fill="#FFFFFF" opacity="0.13">184</text>
      </g>
      </g>
      </g>
      </g>
      </g>
      </g>
      </g>
  </g>
  <g transform="translate(108.1, 684.4)">
      <g transform="translate(-4.96,-0.51) rotate(2.72) scale(1.000)">
        <g transform="translate(-4.66,0.69) rotate(7.00) scale(0.980)">
        <g transform="translate(-3.22,1.82) rotate(12.42) scale(0.960)">
        <g transform="translate(-0.99,2.79) rotate(18.46) scale(0.940)">
        <g transform="translate(1.48,3.51) rotate(24.52) scale(0.920)">
        <g transform="translate(3.59,3.92) rotate(30.00) scale(0.900)" mask="url(#maskGradient)">
        <g transform="translate(4.82,3.98) rotate(34.27) scale(0.880)">
        <path d="M0.0,-48.6 L14.3,-19.6 L46.2,-15.0 L23.1,7.5 L28.5,39.3 L0.0,24.3 L-28.5,39.3 L-23.1,7.5 L-46.2,-15.0 L-14.3,-19.6Z" fill="url(#rgrad1)" filter="url(#blur1)" opacity="0.18"/>
      </g>
      </g>
      </g>
      </g>
      </g>
      </g>
      </g>
  </g>
  <g transform="translate(313.3, 682.1)">
      <g transform="translate(-3.22,3.06) rotate(2.72) scale(1.000)">
        <g transform="translate(-0.99,3.69) rotate(7.00) scale(0.980)">
        <g transform="translate(1.48,3.98) rotate(12.42) scale(0.960)">
        <g transform="translate(3.59,3.92) rotate(18.46) scale(0.940)">
        <g transform="translate(4.82,3.51) rotate(24.52) scale(0.920)">
        <g transform="translate(4.87,2.78) rotate(30.00) scale(0.900)">
        <g transform="translate(3.72,1.81) rotate(34.27) scale(0.880)">
        <rect x="-22.8" y="-22.8" width="45.7" height="45.7" rx="11.4" fill="url(#rgrad2)" filter="url(#shadow)" opacity="0.27"/>
        <circle cx="0" cy="0" r="15.2" fill="url(#rgrad3)" opacity="0.19"/>
      </g>
      </g>
      </g>
      </g>
      </g>
      </g>
      </g>
  </g>
  <g transform="translate(520.1, 669.4)">
      <g transform="translate(1.48,3.82) rotate(2.72) scale(1.000)">
        <g transform="translate(3.59,3.30) rotate(7.00) scale(0.980)">
        <g transform="translate(4.82,2.48) rotate(12.42) scale(0.960)">
        <g transform="translate(4.87,1.44) rotate(18.46) scale(0.940)" clip-path="url(#clipRect)">
        <g transform="translate(3.72,0.28) rotate(24.52) scale(0.920)">
        <g transform="translate(1.67,-0.91) rotate(30.00) scale(0.900)">
        <g transform="translate(-0.80,-2.02) rotate(34.27) scale(0.880)">
        <path d="M29.1,16.8 L0.0,33.6 L-29.1,16.8 L-29.1,-16.8 L-0.0,-33.6 L29.1,-16.8Z" fill="url(#lgrad3)" filter="url(#blur3)" opacity="0.38"/>
        <ellipse cx="0" cy="0" rx="14.0" ry="9.3" fill="#FFFFFF" opacity="0.19"/>
      </g>
      </g>
      </g>
      </g>
      </g>
      </g>
      </g>
  </g>
  <g transform="translate(731.8, 652.3)">
      <g transform="translate(4.82,1.06) rotate(2.72) scale(1.000)">
        <g transform="translate(4.87,-0.12) rotate(7.00) scale(0.980)">
        <g transform="translate(3.72,-1.30) rotate(12.42) scale(0.960)">
        <g transform="translate(1.67,-2.36) rotate(18.46) scale(0.940)">
        <g transform="translate(-0.80,-3.21) rotate(24.52) scale(0.920)">
        <g transform="translate(-3.06,-3.77) rotate(30.00) scale(0.900)" mask="url(#maskDynamic)">
        <g transform="translate(-4.58,-4.00) rotate(34.27) scale(0.880)">
        <circle cx="0" cy="0" r="35.0" fill="url(#rgrad4)" filter="url(#shadow)" opacity="0.50"/>
        <text x="0" y="5" text-anchor="middle" font-family="Arial, sans-serif" font-size="14" fill="#FFFFFF" opacity="0.50">184</text>
      </g>
      </g>
      </g>
      </g>
      </g>
      </g>
      </g>
  </g>
  <g transform="translate(950.4, 638.8)">
      <g transform="translate(3.72,-2.67) rotate(2.72) scale(1.000)">
        <g transform="translate(1.67,-3.43) rotate(7.00) scale(0.980)">
        <g transform="translate(-0.80,-3.89) rotate(12.42) scale(0.960)">
        <g transform="translate(-3.06,-3.99) rotate(18.46) scale(0.940)">
        <g transform="translate(-4.58,-3.74) rotate(24.52) scale(0.920)">
        <g transform="translate(-4.98,-3.16) rotate(30.00) scale(0.900)">
        <g transform="translate(-4.16,-2.29) rotate(34.27) scale(0.880)">
        <path d="M0.0,-74.8 L22.0,-30.3 L71.2,-23.1 L35.6,11.6 L44.0,60.5 L0.0,37.4 L-44.0,60.5 L-35.6,11.6 L-71.2,-23.1 L-22.0,-30.3Z" fill="url(#rgrad0)" filter="url(#blur0)" opacity="0.62"/>
      </g>
      </g>
      </g>
      </g>
      </g>
      </g>
      </g>
  </g>
  <g transform="translate(1176.2, 635.3)">
      <g transform="translate(-0.80,-3.95) rotate(2.72) scale(1.000)">
        <g transform="translate(-3.06,-3.58) rotate(7.00) scale(0.980)">
        <g transform="translate(-4.58,-2.90) rotate(12.42) scale(0.960)">
        <g transform="translate(-4.98,-1.96) rotate(18.46) scale(0.940)" clip-path="url(#clipStar)">
        <g transform="translate(-4.16,-0.84) rotate(24.52) scale(0.920)">
        <g transform="translate(-2.32,0.36) rotate(30.00) scale(0.900)">
        <g transform="translate(0.09,1.52) rotate(34.27) scale(0.880)">
        <rect x="-33.0" y="-33.0" width="66.1" height="66.1" rx="16.5" fill="url(#lgrad1)" filter="url(#shadow)" opacity="0.72"/>
        <circle cx="0" cy="0" r="22.0" fill="url(#rgrad2)" opacity="0.51"/>
      </g>
      </g>
      </g>
      </g>
      </g>
      </g>
      </g>
  </g>
  <g transform="translate(1407.9, 643.4)">
      <g transform="translate(-4.58,-1.60) rotate(2.72) scale(1.000)">
        <g transform="translate(-4.98,-0.44) rotate(7.00) scale(0.980)">
        <g transform="translate(-4.16,0.75) rotate(12.42) scale(0.960)">
        <g transform="translate(-2.32,1.88) rotate(18.46) scale(0.940)">
        <g transform="translate(0.09,2.84) rotate(24.52) scale(0.920)">
        <g transform="translate(2.48,3.54) rotate(30.00) scale(0.900)" mask="url(#maskStripes)">
        <g transform="translate(4.26,3.93) rotate(34.27) scale(0.880)">
        <path d="M26.9,15.5 L0.0,31.0 L-26.9,15.5 L-26.9,-15.5 L-0.0,-31.0 L26.9,-15.5Z" fill="url(#rgrad2)" filter="url(#blur2)" opacity="0.81"/>
        <ellipse cx="0" cy="0" rx="12.9" ry="8.6" fill="#FFFFFF" opacity="0.41"/>
      </g>
      </g>
      </g>
      </g>
      </g>
      </g>
      </g>
  </g>
  <g transform="translate(1642.5, 659.3)">
      <g transform="translate(-4.16,2.22) rotate(2.72) scale(1.000)">
        <g transform="translate(-2.32,3.11) rotate(7.00) scale(0.980)">
        <g transform="translate(0.09,3.71) rotate(12.42) scale(0.960)">
        <g transform="translate(2.48,3.99) rotate(18.46) scale(0.940)">
        <g transform="translate(4.26,3.91) rotate(24.52) scale(0.920)">
        <g transform="translate(4.99,3.47) rotate(30.00) scale(0.900)">
        <g transform="translate(4.51,2.73) rotate(34.27) scale(0.880)">
        <circle cx="0" cy="0" r="22.5" fill="url(#rgrad3)" filter="url(#shadow)" opacity="0.87"/>
        <text x="0" y="5" text-anchor="middle" font-family="Arial, sans-serif" font-size="14" fill="#FFFFFF" opacity="0.87">184</text>
      </g>
      </g>
      </g>
      </g>
      </g>
      </g>
      </g>
  </g>
  <g transform="translate(116.6, 955.6)">
      <g transform="translate(0.09,4.00) rotate(2.72) scale(1.000)">
        <g transform="translate(2.48,3.80) rotate(7.00) scale(0.980)">
        <g transform="translate(4.26,3.26) rotate(12.42) scale(0.960)">
        <g transform="translate(4.99,2.43) rotate(18.46) scale(0.940)" clip-path="url(#clipDynamic)">
        <g transform="translate(4.51,1.38) rotate(24.52) scale(0.920)">
        <g transform="translate(2.92,0.21) rotate(30.00) scale(0.900)">
        <g transform="translate(0.62,-0.98) rotate(34.27) scale(0.880)">
        <path d="M0.0,-52.1 L15.3,-21.1 L49.5,-16.1 L24.8,8.0 L30.6,42.1 L0.0,26.0 L-30.6,42.1 L-24.8,8.0 L-49.5,-16.1 L-15.3,-21.1Z" fill="url(#lgrad4)" filter="url(#blur4)" opacity="0.90"/>
      </g>
      </g>
      </g>
      </g>
      </g>
      </g>
      </g>
  </g>
  <g transform="translate(391.3, 332.6)" mask="url(#maskGradient)">
    <ellipse cx="0" cy="0" rx="200" ry="150" fill="url(#rgrad0)" filter="url(#blur3)" opacity="0.3"/>
  </g>
  <g transform="translate(883.6, 277.9)" mask="url(#maskCircleFade)">
    <ellipse cx="0" cy="0" rx="200" ry="150" fill="url(#rgrad1)" filter="url(#blur3)" opacity="0.3"/>
  </g>
  <g transform="translate(1299.1, 233.6)" mask="url(#maskStripes)">
    <ellipse cx="0" cy="0" rx="200" ry="150" fill="url(#rgrad2)" filter="url(#blur3)" opacity="0.3"/>
  </g>
</svg>