<?xml version="1.0" encoding="UTF-8"?>
<svg xmlns="http://www.w3.org/2000/svg" viewBox="0 0 1920 1080" width="1920" height="1080">
  <defs>
    <filter id="blur0" x="-50%" y="-50%" width="200%" height="200%">
      <feGaussianBlur in="SourceGraphic" stdDeviation="1"/>
    </filter>
    <filter id="blur1" x="-50%" y="-50%" width="200%" height="200%">
      <feGaussianBlur in="SourceGraphic" stdDeviation="3"/>
    </filter>
    <filter id="blur2" x="-50%" y="-50%" width="200%" height="200%">
      <feGaussianBlur in="SourceGraphic" stdDeviation="5"/>
    </filter>
    <filter id="blur3" x="-50%" y="-50%" width="200%" height="200%">
      <feGaussianBlur in="SourceGraphic" stdDeviation="7"/>
    </filter>
    <filter id="blur4" x="-50%" y="-50%" width="200%" height="200%">
      <feGaussianBlur in="SourceGraphic" stdDeviation="9"/>
    </filter>
    <filter id="shadow" x="-50%" y="-50%" width="200%" height="200%">
      <feGaussianBlur in="SourceAlpha" stdDeviation="3" result="blur"/>
      <feOffset in="blur" dx="4" dy="4" result="offsetBlur"/>
      <feMerge>
        <feMergeNode in="offsetBlur"/>
        <feMergeNode in="SourceGraphic"/>
      </feMerge>
    </filter>
    <linearGradient id="lgrad0" x1="0%" y1="0%" x2="98.2%" y2="63.4%">
      <stop offset="0%" stop-color="#FF6B6B"/>
      <stop offset="33%" stop-color="#4ECDC4"/>
      <stop offset="66%" stop-color="#45B7D1"/>
      <stop offset="100%" stop-color="#96E6A1"/>
    </linearGradient>
    <linearGradient id="lgrad1" x1="0%" y1="0%" x2="85.0%" y2="85.7%">
      <stop offset="0%" stop-color="#FFE66D"/>
      <stop offset="33%" stop-color="#FF6B6B"/>
      <stop offset="66%" stop-color="#C44D58"/>
      <stop offset="100%" stop-color="#8B0000"/>
    </linearGradient>
    <linearGradient id="lgrad2" x1="0%" y1="0%" x2="62.5%" y2="98.4%">
      <stop offset="0%" stop-color="#4169E1"/>
      <stop offset="33%" stop-color="#7B68EE"/>
      <stop offset="66%" stop-color="#9370DB"/>
      <stop offset="100%" stop-color="#FFD700"/>
    </linearGradient>
    <linearGradient id="lgrad3" x1="0%" y1="0%" x2="36.6%" y2="98.2%">
      <stop offset="0%" stop-color="#32CD32"/>
      <stop offset="33%" stop-color="#228B22"/>
      <stop offset="66%" stop-color="#006400"/>
      <stop offset="100%" stop-color="#ADFF2F"/>
    </linearGradient>
    <linearGradient id="lgrad4" x1="0%" y1="0%" x2="14.3%" y2="85.0%">
      <stop offset="0%" stop-color="#FF1493"/>
      <stop offset="33%" stop-color="#FF69B4"/>
      <stop offset="66%" stop-color="#FFB6C1"/>
      <stop offset="100%" stop-color="#FFC0CB"/>
    </linearGradient>
    <radialGradient id="rgrad0" cx="68.3%" cy="42.2%" r="60%">
      <stop offset="0%" stop-color="#FF6B6B" stop-opacity="1"/>
      <stop offset="50%" stop-color="#4ECDC4" stop-opacity="0.8"/>
      <stop offset="100%" stop-color="#45B7D1" stop-opacity="0.6"/>
    </radialGradient>
    <radialGradient id="rgrad1" cx="38.3%" cy="50.2%" r="60%">
      <stop offset="0%" stop-color="#FFE66D" stop-opacity="1"/>
      <stop offset="50%" stop-color="#FF6B6B" stop-opacity="0.8"/>
      <stop offset="100%" stop-color="#C44D58" stop-opacity="0.6"/>
    </radialGradient>
    <radialGradient id="rgrad2" cx="48.3%" cy="58.2%" r="60%">
      <stop offset="0%" stop-color="#4169E1" stop-opacity="1"/>
      <stop offset="50%" stop-color="#7B68EE" stop-opacity="0.8"/>
      <stop offset="100%" stop-color="#9370DB" stop-opacity="0.6"/>
    </radialGradient>
    <radialGradient id="rgrad3" cx="58.3%" cy="66.2%" r="60%">
      <stop offset="0%" stop-color="#32CD32" stop-opacity="1"/>
      <stop offset="50%" stop-color="#228B22" stop-opacity="0.8"/>
      <stop offset="100%" stop-color="#006400" stop-opacity="0.6"/>
    </radialGradient>
    <radialGradient id="rgrad4" cx="68.3%" cy="34.2%" r="60%">
      <stop offset="0%" stop-color="#FF1493" stop-opacity="1"/>
      <stop offset="50%" stop-color="#FF69B4" stop-opacity="0.8"/>
      <stop offset="100%" stop-color="#FFB6C1" stop-opacity="0.6"/>
    </radialGradient>
    <clipPath id="clipCircle">
      <circle cx="0" cy="0" r="50"/>
    </clipPath>
    <clipPath id="clipStar">
      <path d="M0.0,-50.0 L14.7,-20.2 L47.6,-15.5 L23.8,7.7 L29.4,40.5 L0.0,25.0 L-29.4,40.5 L-23.8,7.7 L-47.6,-15.5 L-14.7,-20.2Z"/>
    </clipPath>
    <clipPath id="clipHex">
      <path d="M39.0,22.5 L0.0,45.0 L-39.0,22.5 L-39.0,-22.5 L-0.0,-45.0 L39.0,-22.5Z"/>
    </clipPath>
    <clipPath id="clipRect">
      <rect x="-40" y="-30" width="80" height="60" rx="10"/>
    </clipPath>
    <clipPath id="clipDynamic">
      <circle cx="0" cy="0" r="22.3"/>
    </clipPath>
    <mask id="maskGradient" maskContentUnits="objectBoundingBox">
      <rect x="0" y="0" width="1" height="1" fill="url(#maskGrad)"/>
    </mask>
    <linearGradient id="maskGrad" x1="0%" y1="0%" x2="100%" y2="100%">
      <stop offset="0%" stop-color="white"/>
      <stop offset="100%" stop-color="black"/>
    </linearGradient>
    <mask id="maskCircleFade">
      <circle cx="0" cy="0" r="60" fill="white"/>
      <circle cx="0" cy="0" r="30" fill="black"/>
    </mask>
    <mask id="maskStripes">
      <rect x="-50" y="-50" width="100" height="100" fill="white"/>
      <rect x="-50" y="-40" width="100" height="10" fill="black"/>
      <rect x="-50" y="-20" width="100" height="10" fill="black"/>
      <rect x="-50" y="0" width="100" height="10" fill="black"/>
      <rect x="-50" y="20" width="100" height="10" fill="black"/>
      <rect x="-50" y="40" width="100" height="10" fill="black"/>
    </mask>
    <mask id="maskDynamic">
      <rect x="-60" y="-60" width="120" height="120" fill="white" fill-opacity="0.91"/>
      <circle cx="0" cy="0" r="25" fill="white"/>
    </mask>
  </defs>
  <rect width="1920" height="1080" fill="url(#lgrad0)"/>
  <g transform="translate(74.6, 86.7)">
      <g transform="translate(-4.23,-2.13) rotate(4.38) scale(1.000)">
        <g transform="translate(-4.99,-1.03) rotate(7.62) scale(0.980)">
        <g transform="translate(-4.53,0.15) rotate(9.27) scale(0.960)">
        <g transform="translate(-2.95,1.33) rotate(8.99) scale(0.940)" clip-path="url(#clipCircle)">
        <g transform="translate(-0.66,2.38) rotate(6.57) scale(0.920)">
        <g transform="translate(1.80,3.23) rotate(1.98) scale(0.900)">
        <g transform="translate(3.81,3.78) rotate(-4.67) scale(0.880)">
        <path d="M0.0,-73.1 L21.5,-29.6 L69.6,-22.6 L34.8,11.3 L43.0,59.2 L0.0,36.6 L-43.0,59.2 L-34.8,11.3 L-69.6,-22.6 L-21.5,-29.6Z" fill="url(#lgrad0)" filter="url(#blur0)" opacity="0.85"/>
      </g>
      </g>
      </g>
      </g>
      </g>
      </g>
      </g>
  </g>
  <g transform="translate(290.1, 103.5)">
      <g transform="translate(-4.53,1.70) rotate(4.38) scale(1.000)">
        <g transform="translate(-2.95,2.69) rotate(7.62) scale(0.980)">
        <g transform="translate(-0.66,3.45) rotate(9.27) scale(0.960)">
        <g transform="translate(1.80,3.89) rotate(8.99) scale(0.940)">
        <g transform="translate(3.81,3.99) rotate(6.57) scale(0.920)">
        <g transform="translate(4.90,3.73) rotate(1.98) scale(0.900)" mask="url(#maskCircleFade)">
        <g transform="translate(4.78,3.14) rotate(-4.67) scale(0.880)">
        <rect x="-30.5" y="-30.5" width="61.0" height="61.0" rx="15.2" fill="url(#rgrad1)" filter="url(#shadow)" opacity="0.78"/>
        <circle cx="0" cy="0" r="20.3" fill="url(#rgrad2)" opacity="0.54"/>
      </g>
      </g>
      </g>
      </g>
      </g>
      </g>
      </g>
  </g>
  <g transform="translate(512.8, 118.6)">
      <g transform="translate(-0.66,3.97) rotate(4.38) scale(1.000)">
        <g transform="translate(1.80,3.94) rotate(7.62) scale(0.980)">
        <g transform="translate(3.81,3.57) rotate(9.27) scale(0.960)">
        <g transform="translate(4.90,2.88) rotate(8.99) scale(0.940)">
        <g transform="translate(4.78,1.93) rotate(6.57) scale(0.920)">
        <g transform="translate(3.49,0.81) rotate(1.98) scale(0.900)">
        <g transform="translate(1.35,-0.39) rotate(-4.67) scale(0.880)">
        <path d="M24.9,14.4 L0.0,28.8 L-24.9,14.4 L-24.9,-14.4 L-0.0,-28.8 L24.9,-14.4Z" fill="url(#rgrad2)" filter="url(#blur2)" opacity="0.68"/>
        <ellipse cx="0" cy="0" rx="12.0" ry="8.0" fill="#FFFFFF" opacity="0.34"/>
      </g>
      </g>
      </g>
      </g>
      </g>
      </g>
      </g>
  </g>
  <g transform="translate(742.3, 125.0)">
      <g transform="translate(3.81,2.59) rotate(4.38) scale(1.000)">
        <g transform="translate(4.90,1.57) rotate(7.62) scale(0.980)">
        <g transform="translate(4.78,0.41) rotate(9.27) scale(0.960)">
        <g transform="translate(3.49,-0.78) rotate(8.99) scale(0.940)" clip-path="url(#clipRect)">
        <g transform="translate(1.35,-1.91) rotate(6.57) scale(0.920)">
        <g transform="translate(-1.12,-2.86) rotate(1.98) scale(0.900)">
        <g transform="translate(-3.32,-3.56) rotate(-4.67) scale(0.880)">
        <circle cx="0" cy="0" r="23.0" fill="url(#lgrad3)" filter="url(#shadow)" opacity="0.57"/>
        <text x="0" y="5" text-anchor="middle" font-family="Arial, sans-serif" font-size="14" fill="#FFFFFF" opacity="0.57">661</text>
      </g>
      </g>
      </g>
      </g>
      </g>
      </g>
      </g>
  </g>
  <g transform="translate(976.0, 119.6)">
      <g transform="translate(4.78,-1.17) rotate(4.38) scale(1.000)">
        <g transform="translate(3.49,-2.25) rotate(7.62) scale(0.980)">
        <g transform="translate(1.35,-3.13) rotate(9.27) scale(0.960)">
        <g transform="translate(-1.12,-3.72) rotate(8.99) scale(0.940)">
        <g transform="translate(-3.32,-3.99) rotate(6.57) scale(0.920)">
        <g transform="translate(-4.71,-3.90) rotate(1.98) scale(0.900)" mask="url(#maskGradient)">
        <g transform="translate(-4.94,-3.46) rotate(-4.67) scale(0.880)">
        <path d="M0.0,-56.9 L16.7,-23.0 L54.1,-17.6 L27.1,8.8 L33.4,46.0 L0.0,28.5 L-33.4,46.0 L-27.1,8.8 L-54.1,-17.6 L-16.7,-23.0Z" fill="url(#rgrad4)" filter="url(#blur4)" opacity="0.45"/>
      </g>
      </g>
      </g>
      </g>
      </g>
      </g>
      </g>
  </g>
  <g transform="translate(1210.8, 105.0)">
      <g transform="translate(1.35,-3.85) rotate(4.38) scale(1.000)">
        <g transform="translate(-1.12,-4.00) rotate(7.62) scale(0.980)">
        <g transform="translate(-3.32,-3.79) rotate(9.27) scale(0.960)">
        <g transform="translate(-4.71,-3.24) rotate(8.99) scale(0.940)">
        <g transform="translate(-4.94,-2.40) rotate(6.57) scale(0.920)">
        <g transform="translate(-3.96,-1.35) rotate(1.98) scale(0.900)">
        <g transform="translate(-2.02,-0.18) rotate(-4.67) scale(0.880)">
        <rect x="-35.3" y="-35.3" width="70.7" height="70.7" rx="17.7" fill="url(#rgrad0)" filter="url(#shadow)" opacity="0.33"/>
        <circle cx="0" cy="0" r="23.6" fill="url(#rgrad1)" opacity="0.23"/>
      </g>
      </g>
      </g>
      </g>
      </g>
      </g>
      </g>
  </g>
  <g transform="translate(1442.9, 88.1)">
      <g transform="translate(-3.32,-2.99) rotate(4.38) scale(1.000)">
        <g transform="translate(-4.71,-2.07) rotate(7.62) scale(0.980)">
        <g transform="translate(-4.94,-0.97) rotate(9.27) scale(0.960)">
        <g transform="translate(-3.96,0.22) rotate(8.99) scale(0.940)" clip-path="url(#clipStar)">
        <g transform="translate(-2.02,1.39) rotate(6.57) scale(0.920)">
        <g transform="translate(0.42,2.44) rotate(1.98) scale(0.900)">
        <g transform="translate(2.76,3.27) rotate(-4.67) scale(0.880)">
        <path d="M38.8,22.4 L0.0,44.8 L-38.8,22.4 L-38.8,-22.4 L-0.0,-44.8 L38.8,-22.4Z" fill="url(#lgrad1)" filter="url(#blur1)" opacity="0.23"/>
        <ellipse cx="0" cy="0" rx="18.7" ry="12.4" fill="#FFFFFF" opacity="0.12"/>
      </g>
      </g>
      </g>
      </g>
      </g>
      </g>
      </g>
  </g>
  <g transform="translate(1669.4, 76.7)">
      <g transform="translate(-4.94,0.62) rotate(4.38) scale(1.000)">
        <g transform="translate(-3.96,1.76) rotate(7.62) scale(0.980)">
        <g transform="translate(-2.02,2.74) rotate(9.27) scale(0.960)">
        <g transform="translate(0.42,3.48) rotate(8.99) scale(0.940)">
        <g transform="translate(2.76,3.91) rotate(6.57) scale(0.920)">
        <g transform="translate(4.42,3.99) rotate(1.98) scale(0.900)" mask="url(#maskDynamic)">
        <g transform="translate(5.00,3.71) rotate(-4.67) scale(0.880)">
        <circle cx="0" cy="0" r="32.6" fill="url(#rgrad2)" filter="url(#shadow)" opacity="0.16"/>
        <text x="0" y="5" text-anchor="middle" font-family="Arial, sans-serif" font-size="14" fill="#FFFFFF" opacity="0.16">661</text>
      </g>
      </g>
      </g>
      </g>
      </g>
      </g>
      </g>
  </g>
  <g transform="translate(128.7, 356.3)">
      <g transform="translate(-2.02,3.66) rotate(4.38) scale(1.000)">
        <g transform="translate(0.42,3.97) rotate(7.62) scale(0.980)">
        <g transform="translate(2.76,3.93) rotate(9.27) scale(0.960)">
        <g transform="translate(4.42,3.54) rotate(8.99) scale(0.940)">
        <g transform="translate(5.00,2.83) rotate(6.57) scale(0.920)">
        <g transform="translate(4.35,1.87) rotate(1.98) scale(0.900)">
        <g transform="translate(2.64,0.74) rotate(-4.67) scale(0.880)">
        <path d="M0.0,-50.9 L15.0,-20.6 L48.4,-15.7 L24.2,7.9 L29.9,41.2 L0.0,25.5 L-29.9,41.2 L-24.2,7.9 L-48.4,-15.7 L-15.0,-20.6Z" fill="url(#rgrad3)" filter="url(#blur3)" opacity="0.11"/>
      </g>
      </g>
      </g>
      </g>
      </g>
      </g>
      </g>
  </g>
  <g transform="translate(341.0, 367.0)">
      <g transform="translate(2.76,3.34) rotate(4.38) scale(1.000)">
        <g transform="translate(4.42,2.53) rotate(7.62) scale(0.980)">
        <g transform="translate(5.00,1.51) rotate(9.27) scale(0.960)">
        <g transform="translate(4.35,0.34) rotate(8.99) scale(0.940)" clip-path="url(#clipDynamic)">
        <g transform="translate(2.64,-0.85) rotate(6.57) scale(0.920)">
        <g transform="translate(0.28,-1.97) rotate(1.98) scale(0.900)">
        <g transform="translate(-2.14,-2.91) rotate(-4.67) scale(0.880)">
        <rect x="-22.5" y="-22.5" width="45.0" height="45.0" rx="11.3" fill="url(#lgrad4)" filter="url(#shadow)" opacity="0.10"/>
        <circle cx="0" cy="0" r="15.0" fill="url(#rgrad0)" opacity="0.07"/>
      </g>
      </g>
      </g>
      </g>
      </g>
      </g>
      </g>
  </g>
  <g transform="translate(548.1, 383.9)">
      <g transform="translate(5.00,-0.06) rotate(4.38) scale(1.000)">
        <g transform="translate(4.35,-1.24) rotate(7.62) scale(0.980)">
        <g transform="translate(2.64,-2.30) rotate(9.27) scale(0.960)">
        <g transform="translate(0.28,-3.17) rotate(8.99) scale(0.940)">
        <g transform="translate(-2.14,-3.75) rotate(6.57) scale(0.920)">
        <g transform="translate(-4.05,-3.99) rotate(1.98) scale(0.900)" mask="url(#maskStripes)">
        <g transform="translate(-4.96,-3.88) rotate(-4.67) scale(0.880)">
        <path d="M27.5,15.9 L0.0,31.8 L-27.5,15.9 L-27.5,-15.9 L-0.0,-31.8 L27.5,-15.9Z" fill="url(#rgrad0)" filter="url(#blur0)" opacity="0.13"/>
        <ellipse cx="0" cy="0" rx="13.2" ry="8.8" fill="#FFFFFF" opacity="0.06"/>
      </g>
      </g>
      </g>
      </g>
      </g>
      </g>
      </g>
  </g>
  <g transform="translate(753.3, 398.9)">
      <g transform="translate(2.64,-3.40) rotate(4.38) scale(1.000)">
        <g transform="translate(0.28,-3.87) rotate(7.62) scale(0.980)">
        <g transform="translate(-2.14,-4.00) rotate(9.27) scale(0.960)">
        <g transform="translate(-4.05,-3.77) rotate(8.99) scale(0.940)">
        <g transform="translate(-4.96,-3.20) rotate(6.57) scale(0.920)">
        <g transform="translate(-4.66,-2.35) rotate(1.98) scale(0.900)">
        <g transform="translate(-3.22,-1.29) rotate(-4.67) scale(0.880)">
        <circle cx="0" cy="0" r="33.7" fill="url(#rgrad1)" filter="url(#shadow)" opacity="0.18"/>
        <text x="0" y="5" text-anchor="middle" font-family="Arial, sans-serif" font-size="14" fill="#FFFFFF" opacity="0.18">661</text>
      </g>
      </g>
      </g>
      </g>
      </g>
      </g>
      </g>
  </g>
  <g transform="translate(960.1, 405.0)">
      <g transform="translate(-2.14,-3.61) rotate(4.38) scale(1.000)">
        <g transform="translate(-4.05,-2.95) rotate(7.62) scale(0.980)">
        <g transform="translate(-4.96,-2.01) rotate(9.27) scale(0.960)">
        <g transform="translate(-4.66,-0.90) rotate(8.99) scale(0.940)" clip-path="url(#clipHex)">
        <g transform="translate(-3.22,0.29) rotate(6.57) scale(0.920)">
        <g transform="translate(-0.99,1.46) rotate(1.98) scale(0.900)">
        <g transform="translate(1.48,2.49) rotate(-4.67) scale(0.880)">
        <path d="M0.0,-75.0 L22.0,-30.3 L71.3,-23.2 L35.7,11.6 L44.1,60.7 L0.0,37.5 L-44.1,60.7 L-35.7,11.6 L-71.3,-23.2 L-22.0,-30.3Z" fill="url(#lgrad2)" filter="url(#blur2)" opacity="0.27"/>
      </g>
      </g>
      </g>
      </g>
      </g>
      </g>
      </g>
  </g>
  <g transform="translate(1171.8, 399.4)">
      <g transform="translate(-4.96,-0.51) rotate(4.38) scale(1.000)">
        <g transform="translate(-4.66,0.69) rotate(7.62) scale(0.980)">
        <g transform="translate(-3.22,1.82) rotate(9.27) scale(0.960)">
        <g transform="translate(-0.99,2.79) rotate(8.99) scale(0.940)">
        <g transform="translate(1.48,3.51) rotate(6.57) scale(0.920)">
        <g transform="translate(3.59,3.92) rotate(1.98) scale(0.900)" mask="url(#maskCircleFade)">
        <g transform="translate(4.82,3.98) rotate(-4.67) scale(0.880)">
        <rect x="-34.4" y="-34.4" width="68.9" height="68.9" rx="17.2" fill="url(#rgrad3)" filter="url(#shadow)" opacity="0.38"/>
        <circle cx="0" cy="0" r="23.0" fill="url(#rgrad4)" opacity="0.27"/>
      </g>
      </g>
      </g>
      </g>
      </g>
      </g>
      </g>
  </g>
  <g transform="translate(1390.4, 384.6)">
      <g transform="translate(-3.22,3.06) rotate(4.38) scale(1.000)">
        <g transform="translate(-0.99,3.69) rotate(7.62) scale(0.980)">
        <g transform="translate(1.48,3.98) rotate(9.27) scale(0.960)">
        <g transform="translate(3.59,3.92) rotate(8.99) scale(0.940)">
        <g transform="translate(4.82,3.51) rotate(6.57) scale(0.920)">
        <g transform="translate(4.87,2.78) rotate(1.98) scale(0.900)">
        <g transform="translate(3.72,1.81) rotate(-4.67) scale(0.880)">
        <path d="M28.4,16.4 L0.0,32.8 L-28.4,16.4 L-28.4,-16.4 L-0.0,-32.8 L28.4,-16.4Z" fill="url(#rgrad4)" filter="url(#blur4)" opacity="0.50"/>
        <ellipse cx="0" cy="0" rx="13.7" ry="9.1" fill="#FFFFFF" opacity="0.25"/>
      </g>
      </g>
      </g>
      </g>
      </g>
      </g>
      </g>
  </g>
  <g transform="translate(1616.2, 367.7)">
      <g transform="translate(1.48,3.82) rotate(4.38) scale(1.000)">
        <g transform="translate(3.59,3.30) rotate(7.62) scale(0.980)">
        <g transform="translate(4.82,2.48) rotate(9.27) scale(0.960)">
        <g transform="translate(4.87,1.44) rotate(8.99) scale(0.940)" clip-path="url(#clipCircle)">
        <g transform="translate(3.72,0.28) rotate(6.57) scale(0.920)">
        <g transform="translate(1.67,-0.91) rotate(1.98) scale(0.900)">
        <g transform="translate(-0.80,-2.02) rotate(-4.67) scale(0.880)">
        <circle cx="0" cy="0" r="22.7" fill="url(#lgrad0)" filter="url(#shadow)" opacity="0.62"/>
        <text x="0" y="5" text-anchor="middle" font-family="Arial, sans-serif" font-size="14" fill="#FFFFFF" opacity="0.62">661</text>
      </g>
      </g>
      </g>
      </g>
      </g>
      </g>
      </g>
  </g>
  <g transform="translate(87.9, 636.6)">
      <g transform="translate(4.82,1.06) rotate(4.38) scale(1.000)">
        <g transform="translate(4.87,-0.12) rotate(7.62) scale(0.980)">
        <g transform="translate(3.72,-1.30) rotate(9.27) scale(0.960)">
        <g transform="translate(1.67,-2.36) rotate(8.99) scale(0.940)">
        <g transform="translate(-0.80,-3.21) rotate(6.57) scale(0.920)">
        <g transform="translate(-3.07,-3.77) rotate(1.98) scale(0.900)" mask="url(#maskGradient)">
        <g transform="translate(-4.58,-4.00) rotate(-4.67) scale(0.880)">
        <path d="M0.0,-49.5 L14.6,-20.0 L47.1,-15.3 L23.5,7.7 L29.1,40.1 L0.0,24.8 L-29.1,40.1 L-23.5,7.7 L-47.1,-15.3 L-14.6,-20.0Z" fill="url(#rgrad1)" filter="url(#blur1)" opacity="0.72"/>
      </g>
      </g>
      </g>
      </g>
      </g>
      </g>
      </g>
  </g>
  <g transform="translate(322.5, 636.5)">
      <g transform="translate(3.72,-2.67) rotate(4.38) scale(1.000)">
        <g transform="translate(1.67,-3.43) rotate(7.62) scale(0.980)">
        <g transform="translate(-0.80,-3.89) rotate(9.27) scale(0.960)">
        <g transform="translate(-3.07,-3.99) rotate(8.99) scale(0.940)">
        <g transform="translate(-4.58,-3.74) rotate(6.57) scale(0.920)">
        <g transform="translate(-4.98,-3.16) rotate(1.98) scale(0.900)">
        <g transform="translate(-4.16,-2.29) rotate(-4.67) scale(0.880)">
        <rect x="-31.7" y="-31.7" width="63.4" height="63.4" rx="15.8" fill="url(#rgrad2)" filter="url(#shadow)" opacity="0.81"/>
        <circle cx="0" cy="0" r="21.1" fill="url(#rgrad3)" opacity="0.57"/>
      </g>
      </g>
      </g>
      </g>
      </g>
      </g>
      </g>
  </g>
  <g transform="translate(556.6, 647.4)">
      <g transform="translate(-0.80,-3.95) rotate(4.38) scale(1.000)">
        <g transform="translate(-3.07,-3.58) rotate(7.62) scale(0.980)">
        <g transform="translate(-4.58,-2.90) rotate(9.27) scale(0.960)">
        <g transform="translate(-4.98,-1.96) rotate(8.99) scale(0.940)" clip-path="url(#clipRect)">
        <g transform="translate(-4.16,-0.84) rotate(6.57) scale(0.920)">
        <g transform="translate(-2.32,0.36) rotate(1.98) scale(0.900)">
        <g transform="translate(0.09,1.52) rotate(-4.67) scale(0.880)">
        <path d="M38.5,22.2 L0.0,44.5 L-38.5,22.2 L-38.5,-22.2 L-0.0,-44.5 L38.5,-22.2Z" fill="url(#lgrad3)" filter="url(#blur3)" opacity="0.87"/>
        <ellipse cx="0" cy="0" rx="18.5" ry="12.4" fill="#FFFFFF" opacity="0.44"/>
      </g>
      </g>
      </g>
      </g>
      </g>
      </g>
      </g>
  </g>
  <g transform="translate(786.5, 664.3)">
      <g transform="translate(-4.58,-1.60) rotate(4.38) scale(1.000)">
        <g transform="translate(-4.98,-0.44) rotate(7.62) scale(0.980)">
        <g transform="translate(-4.16,0.75) rotate(9.27) scale(0.960)">
        <g transform="translate(-2.32,1.88) rotate(8.99) scale(0.940)">
        <g transform="translate(0.09,2.84) rotate(6.57) scale(0.920)">
        <g transform="translate(2.48,3.54) rotate(1.98) scale(0.900)" mask="url(#maskDynamic)">
        <g transform="translate(4.26,3.93) rotate(-4.67) scale(0.880)">
        <circle cx="0" cy="0" r="35.9" fill="url(#rgrad4)" filter="url(#shadow)" opacity="0.90"/>
        <text x="0" y="5" text-anchor="middle" font-family="Arial, sans-serif" font-size="14" fill="#FFFFFF" opacity="0.90">661</text>
      </g>
      </g>
      </g>
      </g>
      </g>
      </g>
      </g>
  </g>
  <g transform="translate(1010.0, 679.1)">
      <g transform="translate(-4.16,2.22) rotate(4.38) scale(1.000)">
        <g transform="translate(-2.32,3.11) rotate(7.62) scale(0.980)">
        <g transform="translate(0.09,3.71) rotate(9.27) scale(0.960)">
        <g transform="translate(2.48,3.99) rotate(8.99) scale(0.940)">
        <g transform="translate(4.26,3.91) rotate(6.57) scale(0.920)">
        <g transform="translate(4.99,3.47) rotate(1.98) scale(0.900)">
        <g transform="translate(4.51,2.73) rotate(-4.67) scale(0.880)">
        <path d="M0.0,-58.7 L17.3,-23.8 L55.9,-18.2 L27.9,9.1 L34.5,47.5 L0.0,29.4 L-34.5,47.5 L-27.9,9.1 L-55.9,-18.2 L-17.3,-23.8Z" fill="url(#rgrad0)" filter="url(#blur0)" opacity="0.89"/>
      </g>
      </g>
      </g>
      </g>
      </g>
      </g>
      </g>
  </g>
  <g transform="translate(1226.1, 685.0)">
      <g transform="translate(0.09,4.00) rotate(4.38) scale(1.000)">
        <g transform="translate(2.48,3.80) rotate(7.62) scale(0.980)">
        <g transform="translate(4.26,3.26) rotate(9.27) scale(0.960)">
        <g transform="translate(4.99,2.43) rotate(8.99) scale(0.940)" clip-path="url(#clipStar)">
        <g transform="translate(4.51,1.38) rotate(6.57) scale(0.920)">
        <g transform="translate(2.92,0.21) rotate(1.98) scale(0.900)">
        <g transform="translate(0.61,-0.98) rotate(-4.67) scale(0.880)">
        <rect x="-23.4" y="-23.4" width="46.7" height="46.7" rx="11.7" fill="url(#lgrad1)" filter="url(#shadow)" opacity="0.85"/>
        <circle cx="0" cy="0" r="15.6" fill="url(#rgrad2)" opacity="0.59"/>
      </g>
      </g>
      </g>
      </g>
      </g>
      </g>
      </g>
  </g>
  <g transform="translate(1435.9, 679.1)">
      <g transform="translate(4.26,2.10) rotate(4.38) scale(1.000)">
        <g transform="translate(4.99,1.00) rotate(7.62) scale(0.980)">
        <g transform="translate(4.51,-0.19) rotate(9.27) scale(0.960)">
        <g transform="translate(2.92,-1.36) rotate(8.99) scale(0.940)">
        <g transform="translate(0.61,-2.41) rotate(6.57) scale(0.920)">
        <g transform="translate(-1.84,-3.25) rotate(1.98) scale(0.900)" mask="url(#maskStripes)">
        <g transform="translate(-3.84,-3.79) rotate(-4.67) scale(0.880)">
        <path d="M24.4,14.1 L0.0,28.2 L-24.4,14.1 L-24.4,-14.1 L-0.0,-28.2 L24.4,-14.1Z" fill="url(#rgrad2)" filter="url(#blur2)" opacity="0.77"/>
        <ellipse cx="0" cy="0" rx="11.7" ry="7.8" fill="#FFFFFF" opacity="0.39"/>
      </g>
      </g>
      </g>
      </g>
      </g>
      </g>
      </g>
  </g>
  <g transform="translate(1641.7, 664.2)">
      <g transform="translate(4.51,-1.73) rotate(4.38) scale(1.000)">
        <g transform="translate(2.92,-2.72) rotate(7.62) scale(0.980)">
        <g transform="translate(0.61,-3.46) rotate(9.27) scale(0.960)">
        <g transform="translate(-1.84,-3.90) rotate(8.99) scale(0.940)">
        <g transform="translate(-3.84,-3.99) rotate(6.57) scale(0.920)">
        <g transform="translate(-4.91,-3.72) rotate(1.98) scale(0.900)">
        <g transform="translate(-4.77,-3.12) rotate(-4.67) scale(0.880)">
        <circle cx="0" cy="0" r="29.6" fill="url(#rgrad3)" filter="url(#shadow)" opacity="0.67"/>
        <text x="0" y="5" text-anchor="middle" font-family="Arial, sans-serif" font-size="14" fill="#FFFFFF" opacity="0.67">661</text>
      </g>
      </g>
      </g>
      </g>
      </g>
      </g>
      </g>
  </g>
  <g transform="translate(87.1, 927.3)">
      <g transform="translate(0.61,-3.97) rotate(4.38) scale(1.000)">
        <g transform="translate(-1.84,-3.94) rotate(7.62) scale(0.980)">
        <g transform="translate(-3.84,-3.55) rotate(9.27) scale(0.960)">
        <g transform="translate(-4.91,-2.85) rotate(8.99) scale(0.940)" clip-path="url(#clipDynamic)">
        <g transform="translate(-4.77,-1.90) rotate(6.57) scale(0.920)">
        <g transform="translate(-3.46,-0.77) rotate(1.98) scale(0.900)">
        <g transform="translate(-1.31,0.42) rotate(-4.67) scale(0.880)">
        <path d="M0.0,-72.1 L21.2,-29.2 L68.6,-22.3 L34.3,11.1 L42.4,58.4 L0.0,36.1 L-42.4,58.4 L-34.3,11.1 L-68.6,-22.3 L-21.2,-29.2Z" fill="url(#lgrad4)" filter="url(#blur4)" opacity="0.56"/>
      </g>
      </g>
      </g>
      </g>
      </g>
      </g>
      </g>
  </g>
  <g transform="translate(215.3, 257.4)" mask="url(#maskGradient)">
    <ellipse cx="0" cy="0" rx="200" ry="150" fill="url(#rgrad0)" filter="url(#blur3)" opacity="0.3"/>
  </g>
  <g transform="translate(709.5, 311.1)" mask="url(#maskCircleFade)">
    <ellipse cx="0" cy="0" rx="200" ry="150" fill="url(#rgrad1)" filter="url(#blur3)" opacity="0.3"/>
  </g>
  <g transform="translate(1286.8, 359.5)" mask="url(#maskStripes)">
    <ellipse cx="0" cy="0" rx="200" ry="150" fill="url(#rgrad2)" filter="url(#blur3)" opacity="0.3"/>
  </g>
</svg>