<?xml version="1.0" encoding="UTF-8"?>
<svg xmlns="http://www.w3.org/2000/svg" viewBox="0 0 1920 1080" width="1920" height="1080">
  <defs>
    <filter id="blur0" x="-50%" y="-50%" width="200%" height="200%">
      <feGaussianBlur in="SourceGraphic" stdDeviation="1"/>
    </filter>
    <filter id="blur1" x="-50%" y="-50%" width="200%" height="200%">
      <feGaussianBlur in="SourceGraphic" stdDeviation="3"/>
    </filter>
    <filter id="blur2" x="-50%" y="-50%" width="200%" height="200%">
      <feGaussianBlur in="SourceGraphic" stdDeviation="5"/>
    </filter>
    <filter id="blur3" x="-50%" y="-50%" width="200%" height="200%">
      <feGaussianBlur in="SourceGraphic" stdDeviation="7"/>
    </filter>
    <filter id="blur4" x="-50%" y="-50%" width="200%" height="200%">
      <feGaussianBlur in="SourceGraphic" stdDeviation="9"/>
    </filter>
    <filter id="shadow" x="-50%" y="-50%" width="200%" height="200%">
      <feGaussianBlur in="SourceAlpha" stdDeviation="3" result="blur"/>
      <feOffset in="blur" dx="4" dy="4" result="offsetBlur"/>
      <feMerge>
        <feMergeNode in="offsetBlur"/>
        <feMergeNode in="SourceGraphic"/>
      </feMerge>
    </filter>
    <linearGradient id="lgrad0" x1="0%" y1="0%" x2="28.5%" y2="95.1%">
      <stop offset="0%" stop-color="#FF6B6B"/>
      <stop offset="33%" stop-color="#4ECDC4"/>
      <stop offset="66%" stop-color="#45B7D1"/>
      <stop offset="100%" stop-color="#96E6A1"/>
    </linearGradient>
    <linearGradient id="lgrad1" x1="0%" y1="0%" x2="8.8%" y2="78.3%">
      <stop offset="0%" stop-color="#FFE66D"/>
      <stop offset="33%" stop-color="#FF6B6B"/>
      <stop offset="66%" stop-color="#C44D58"/>
      <stop offset="100%" stop-color="#8B0000"/>
    </linearGradient>
    <linearGradient id="lgrad2" x1="0%" y1="0%" x2="0.2%" y2="53.9%">
      <stop offset="0%" stop-color="#4169E1"/>
      <stop offset="33%" stop-color="#7B68EE"/>
      <stop offset="66%" stop-color="#9370DB"/>
      <stop offset="100%" stop-color="#FFD700"/>
    </linearGradient>
    <linearGradient id="lgrad3" x1="0%" y1="0%" x2="4.9%" y2="28.5%">
      <stop offset="0%" stop-color="#32CD32"/>
      <stop offset="33%" stop-color="#228B22"/>
      <stop offset="66%" stop-color="#006400"/>
      <stop offset="100%" stop-color="#ADFF2F"/>
    </linearGradient>
    <linearGradient id="lgrad4" x1="0%" y1="0%" x2="21.7%" y2="8.8%">
      <stop offset="0%" stop-color="#FF1493"/>
      <stop offset="33%" stop-color="#FF69B4"/>
      <stop offset="66%" stop-color="#FFB6C1"/>
      <stop offset="100%" stop-color="#FFC0CB"/>
    </linearGradient>
    <radialGradient id="rgrad0" cx="32.3%" cy="58.2%" r="60%">
      <stop offset="0%" stop-color="#FF6B6B" stop-opacity="1"/>
      <stop offset="50%" stop-color="#4ECDC4" stop-opacity="0.8"/>
      <stop offset="100%" stop-color="#45B7D1" stop-opacity="0.6"/>
    </radialGradient>
    <radialGradient id="rgrad1" cx="42.3%" cy="66.2%" r="60%">
      <stop offset="0%" stop-color="#FFE66D" stop-opacity="1"/>
      <stop offset="50%" stop-color="#FF6B6B" stop-opacity="0.8"/>
      <stop offset="100%" stop-color="#C44D58" stop-opacity="0.6"/>
    </radialGradient>
    <radialGradient id="rgrad2" cx="52.3%" cy="34.2%" r="60%">
      <stop offset="0%" stop-color="#4169E1" stop-opacity="1"/>
      <stop offset="50%" stop-color="#7B68EE" stop-opacity="0.8"/>
      <stop offset="100%" stop-color="#9370DB" stop-opacity="0.6"/>
    </radialGradient>
    <radialGradient id="rgrad3" cx="62.3%" cy="42.2%" r="60%">
      <stop offset="0%" stop-color="#32CD32" stop-opacity="1"/>
      <stop offset="50%" stop-color="#228B22" stop-opacity="0.8"/>
      <stop offset="100%" stop-color="#006400" stop-opacity="0.6"/>
    </radialGradient>
    <radialGradient id="rgrad4" cx="32.3%" cy="50.2%" r="60%">
      <stop offset="0%" stop-color="#FF1493" stop-opacity="1"/>
      <stop offset="50%" stop-color="#FF69B4" stop-opacity="0.8"/>
      <stop offset="100%" stop-color="#FFB6C1" stop-opacity="0.6"/>
    </radialGradient>
    <clipPath id="clipCircle">
      <circle cx="0" cy="0" r="50"/>
    </clipPath>
    <clipPath id="clipStar">
      <path d="M0.0,-50.0 L14.7,-20.2 L47.6,-15.5 L23.8,7.7 L29.4,40.5 L0.0,25.0 L-29.4,40.5 L-23.8,7.7 L-47.6,-15.5 L-14.7,-20.2Z"/>
    </clipPath>
    <clipPath id="clipHex">
      <path d="M39.0,22.5 L0.0,45.0 L-39.0,22.5 L-39.0,-22.5 L-0.0,-45.0 L39.0,-22.5Z"/>
    </clipPath>
    <clipPath id="clipRect">
      <rect x="-40" y="-30" width="80" height="60" rx="10"/>
    </clipPath>
    <clipPath id="clipDynamic">
      <circle cx="0" cy="0" r="46.6"/>
    </clipPath>
    <mask id="maskGradient" maskContentUnits="objectBoundingBox">
      <rect x="0" y="0" width="1" height="1" fill="url(#maskGrad)"/>
    </mask>
    <linearGradient id="maskGrad" x1="0%" y1="0%" x2="100%" y2="100%">
      <stop offset="0%" stop-color="white"/>
      <stop offset="100%" stop-color="black"/>
    </linearGradient>
    <mask id="maskCircleFade">
      <circle cx="0" cy="0" r="60" fill="white"/>
      <circle cx="0" cy="0" r="30" fill="black"/>
    </mask>
    <mask id="maskStripes">
      <rect x="-50" y="-50" width="100" height="100" fill="white"/>
      <rect x="-50" y="-40" width="100" height="10" fill="black"/>
      <rect x="-50" y="-20" width="100" height="10" fill="black"/>
      <rect x="-50" y="0" width="100" height="10" fill="black"/>
      <rect x="-50" y="20" width="100" height="10" fill="black"/>
      <rect x="-50" y="40" width="100" height="10" fill="black"/>
    </mask>
    <mask id="maskDynamic">
      <rect x="-60" y="-60" width="120" height="120" fill="white" fill-opacity="0.60"/>
      <circle cx="0" cy="0" r="25" fill="white"/>
    </mask>
  </defs>
  <rect width="1920" height="1080" fill="url(#lgrad0)"/>
  <g transform="translate(123.1, 115.9)">
      <g transform="translate(3.86,2.55) rotate(2.13) scale(1.000)">
        <g transform="translate(4.91,1.52) rotate(5.97) scale(0.980)">
        <g transform="translate(4.76,0.36) rotate(11.17) scale(0.960)">
        <g transform="translate(3.45,-0.83) rotate(17.25) scale(0.940)" clip-path="url(#clipCircle)">
        <g transform="translate(1.29,-1.95) rotate(23.65) scale(0.920)">
        <g transform="translate(-1.18,-2.90) rotate(29.74) scale(0.900)">
        <g transform="translate(-3.37,-3.58) rotate(34.92) scale(0.880)">
        <path d="M0.0,-66.4 L19.5,-26.9 L63.1,-20.5 L31.6,10.3 L39.0,53.7 L0.0,33.2 L-39.0,53.7 L-31.6,10.3 L-63.1,-20.5 L-19.5,-26.9Z" fill="url(#lgrad0)" filter="url(#blur0)" opacity="0.67"/>
      </g>
      </g>
      </g>
      </g>
      </g>
      </g>
      </g>
  </g>
  <g transform="translate(349.5, 99.8)">
      <g transform="translate(4.76,-1.22) rotate(2.13) scale(1.000)">
        <g transform="translate(3.45,-2.29) rotate(5.97) scale(0.980)">
        <g transform="translate(1.29,-3.16) rotate(11.17) scale(0.960)">
        <g transform="translate(-1.18,-3.74) rotate(17.25) scale(0.940)">
        <g transform="translate(-3.37,-3.99) rotate(23.65) scale(0.920)">
        <g transform="translate(-4.73,-3.89) rotate(29.74) scale(0.900)" mask="url(#maskCircleFade)">
        <g transform="translate(-4.93,-3.43) rotate(34.92) scale(0.880)">
        <rect x="-37.4" y="-37.4" width="74.9" height="74.9" rx="18.7" fill="url(#rgrad1)" filter="url(#shadow)" opacity="0.77"/>
        <circle cx="0" cy="0" r="25.0" fill="url(#rgrad2)" opacity="0.54"/>
      </g>
      </g>
      </g>
      </g>
      </g>
      </g>
      </g>
  </g>
  <g transform="translate(568.6, 83.7)">
      <g transform="translate(1.29,-3.86) rotate(2.13) scale(1.000)">
        <g transform="translate(-1.18,-4.00) rotate(5.97) scale(0.980)">
        <g transform="translate(-3.37,-3.77) rotate(11.17) scale(0.960)">
        <g transform="translate(-4.73,-3.21) rotate(17.25) scale(0.940)">
        <g transform="translate(-4.93,-2.36) rotate(23.65) scale(0.920)">
        <g transform="translate(-3.92,-1.30) rotate(29.74) scale(0.900)">
        <g transform="translate(-1.96,-0.13) rotate(34.92) scale(0.880)">
        <path d="M36.2,20.9 L0.0,41.8 L-36.2,20.9 L-36.2,-20.9 L-0.0,-41.8 L36.2,-20.9Z" fill="url(#rgrad2)" filter="url(#blur2)" opacity="0.85"/>
        <ellipse cx="0" cy="0" rx="17.4" ry="11.6" fill="#FFFFFF" opacity="0.42"/>
      </g>
      </g>
      </g>
      </g>
      </g>
      </g>
      </g>
  </g>
  <g transform="translate(780.7, 75.3)">
      <g transform="translate(-3.37,-2.96) rotate(2.13) scale(1.000)">
        <g transform="translate(-4.73,-2.03) rotate(5.97) scale(0.980)">
        <g transform="translate(-4.93,-0.92) rotate(11.17) scale(0.960)">
        <g transform="translate(-3.92,0.27) rotate(17.25) scale(0.940)" clip-path="url(#clipRect)">
        <g transform="translate(-1.96,1.44) rotate(23.65) scale(0.920)">
        <g transform="translate(0.49,2.48) rotate(29.74) scale(0.900)">
        <g transform="translate(2.81,3.30) rotate(34.92) scale(0.880)">
        <circle cx="0" cy="0" r="27.8" fill="url(#lgrad3)" filter="url(#shadow)" opacity="0.89"/>
        <text x="0" y="5" text-anchor="middle" font-family="Arial, sans-serif" font-size="14" fill="#FFFFFF" opacity="0.89">141</text>
      </g>
      </g>
      </g>
      </g>
      </g>
      </g>
      </g>
  </g>
  <g transform="translate(987.7, 78.5)">
      <g transform="translate(-4.93,0.67) rotate(2.13) scale(1.000)">
        <g transform="translate(-3.92,1.80) rotate(5.97) scale(0.980)">
        <g transform="translate(-1.96,2.78) rotate(11.17) scale(0.960)">
        <g transform="translate(0.49,3.51) rotate(17.25) scale(0.940)">
        <g transform="translate(2.81,3.92) rotate(23.65) scale(0.920)">
        <g transform="translate(4.45,3.98) rotate(29.74) scale(0.900)" mask="url(#maskGradient)">
        <g transform="translate(5.00,3.69) rotate(34.92) scale(0.880)">
        <path d="M0.0,-45.6 L13.4,-18.4 L43.3,-14.1 L21.7,7.0 L26.8,36.9 L0.0,22.8 L-26.8,36.9 L-21.7,7.0 L-43.3,-14.1 L-13.4,-18.4Z" fill="url(#rgrad4)" filter="url(#blur4)" opacity="0.90"/>
      </g>
      </g>
      </g>
      </g>
      </g>
      </g>
      </g>
  </g>
  <g transform="translate(1192.9, 91.9)">
      <g transform="translate(-1.96,3.68) rotate(2.13) scale(1.000)">
        <g transform="translate(0.49,3.98) rotate(5.97) scale(0.980)">
        <g transform="translate(2.81,3.92) rotate(11.17) scale(0.960)">
        <g transform="translate(4.45,3.52) rotate(17.25) scale(0.940)">
        <g transform="translate(5.00,2.79) rotate(23.65) scale(0.920)">
        <g transform="translate(4.32,1.82) rotate(29.74) scale(0.900)">
        <g transform="translate(2.59,0.69) rotate(34.92) scale(0.880)">
        <rect x="-24.4" y="-24.4" width="48.8" height="48.8" rx="12.2" fill="url(#rgrad0)" filter="url(#shadow)" opacity="0.87"/>
        <circle cx="0" cy="0" r="16.3" fill="url(#rgrad1)" opacity="0.61"/>
      </g>
      </g>
      </g>
      </g>
      </g>
      </g>
      </g>
  </g>
  <g transform="translate(1399.8, 109.0)">
      <g transform="translate(2.81,3.31) rotate(2.13) scale(1.000)">
        <g transform="translate(4.45,2.49) rotate(5.97) scale(0.980)">
        <g transform="translate(5.00,1.46) rotate(11.17) scale(0.960)">
        <g transform="translate(4.32,0.29) rotate(17.25) scale(0.940)" clip-path="url(#clipStar)">
        <g transform="translate(2.59,-0.90) rotate(23.65) scale(0.920)">
        <g transform="translate(0.22,-2.01) rotate(29.74) scale(0.900)">
        <g transform="translate(-2.20,-2.94) rotate(34.92) scale(0.880)">
        <path d="M32.4,18.7 L0.0,37.4 L-32.4,18.7 L-32.4,-18.7 L-0.0,-37.4 L32.4,-18.7Z" fill="url(#lgrad1)" filter="url(#blur1)" opacity="0.81"/>
        <ellipse cx="0" cy="0" rx="15.6" ry="10.4" fill="#FFFFFF" opacity="0.41"/>
      </g>
      </g>
      </g>
      </g>
      </g>
      </g>
      </g>
  </g>
  <g transform="translate(1611.6, 121.9)">
      <g transform="translate(5.00,-0.11) rotate(2.13) scale(1.000)">
        <g transform="translate(4.32,-1.28) rotate(5.97) scale(0.980)">
        <g transform="translate(2.59,-2.35) rotate(11.17) scale(0.960)">
        <g transform="translate(0.22,-3.20) rotate(17.25) scale(0.940)">
        <g transform="translate(-2.20,-3.77) rotate(23.65) scale(0.920)">
        <g transform="translate(-4.08,-4.00) rotate(29.74) scale(0.900)" mask="url(#maskDynamic)">
        <g transform="translate(-4.97,-3.87) rotate(34.92) scale(0.880)">
        <circle cx="0" cy="0" r="36.9" fill="url(#rgrad2)" filter="url(#shadow)" opacity="0.73"/>
        <text x="0" y="5" text-anchor="middle" font-family="Arial, sans-serif" font-size="14" fill="#FFFFFF" opacity="0.73">141</text>
      </g>
      </g>
      </g>
      </g>
      </g>
      </g>
      </g>
  </g>
  <g transform="translate(70.4, 404.5)">
      <g transform="translate(2.59,-3.42) rotate(2.13) scale(1.000)">
        <g transform="translate(0.22,-3.88) rotate(5.97) scale(0.980)">
        <g transform="translate(-2.20,-3.99) rotate(11.17) scale(0.960)">
        <g transform="translate(-4.08,-3.75) rotate(17.25) scale(0.940)">
        <g transform="translate(-4.97,-3.17) rotate(23.65) scale(0.920)">
        <g transform="translate(-4.63,-2.31) rotate(29.74) scale(0.900)">
        <g transform="translate(-3.17,-1.24) rotate(34.92) scale(0.880)">
        <path d="M0.0,-72.5 L21.3,-29.3 L68.9,-22.4 L34.5,11.2 L42.6,58.6 L0.0,36.2 L-42.6,58.6 L-34.5,11.2 L-68.9,-22.4 L-21.3,-29.3Z" fill="url(#rgrad3)" filter="url(#blur3)" opacity="0.62"/>
      </g>
      </g>
      </g>
      </g>
      </g>
      </g>
      </g>
  </g>
  <g transform="translate(296.5, 395.6)">
      <g transform="translate(-2.20,-3.59) rotate(2.13) scale(1.000)">
        <g transform="translate(-4.08,-2.91) rotate(5.97) scale(0.980)">
        <g transform="translate(-4.97,-1.97) rotate(11.17) scale(0.960)">
        <g transform="translate(-4.63,-0.85) rotate(17.25) scale(0.940)" clip-path="url(#clipDynamic)">
        <g transform="translate(-3.17,0.34) rotate(23.65) scale(0.920)">
        <g transform="translate(-0.92,1.50) rotate(29.74) scale(0.900)">
        <g transform="translate(1.55,2.53) rotate(34.92) scale(0.880)">
        <rect x="-29.9" y="-29.9" width="59.8" height="59.8" rx="14.9" fill="url(#lgrad4)" filter="url(#shadow)" opacity="0.50"/>
        <circle cx="0" cy="0" r="19.9" fill="url(#rgrad0)" opacity="0.35"/>
      </g>
      </g>
      </g>
      </g>
      </g>
      </g>
      </g>
  </g>
  <g transform="translate(528.2, 379.3)">
      <g transform="translate(-4.97,-0.46) rotate(2.13) scale(1.000)">
        <g transform="translate(-4.63,0.74) rotate(5.97) scale(0.980)">
        <g transform="translate(-3.17,1.86) rotate(11.17) scale(0.960)">
        <g transform="translate(-0.92,2.83) rotate(17.25) scale(0.940)">
        <g transform="translate(1.55,3.54) rotate(23.65) scale(0.920)">
        <g transform="translate(3.64,3.93) rotate(29.74) scale(0.900)" mask="url(#maskStripes)">
        <g transform="translate(4.84,3.97) rotate(34.92) scale(0.880)">
        <path d="M24.6,14.2 L0.0,28.4 L-24.6,14.2 L-24.6,-14.2 L-0.0,-28.4 L24.6,-14.2Z" fill="url(#rgrad0)" filter="url(#blur0)" opacity="0.38"/>
        <ellipse cx="0" cy="0" rx="11.8" ry="7.9" fill="#FFFFFF" opacity="0.19"/>
      </g>
      </g>
      </g>
      </g>
      </g>
      </g>
      </g>
  </g>
  <g transform="translate(762.9, 363.4)">
      <g transform="translate(-3.17,3.10) rotate(2.13) scale(1.000)">
        <g transform="translate(-0.92,3.71) rotate(5.97) scale(0.980)">
        <g transform="translate(1.55,3.99) rotate(11.17) scale(0.960)">
        <g transform="translate(3.64,3.91) rotate(17.25) scale(0.940)">
        <g transform="translate(4.84,3.48) rotate(23.65) scale(0.920)">
        <g transform="translate(4.85,2.75) rotate(29.74) scale(0.900)">
        <g transform="translate(3.68,1.76) rotate(34.92) scale(0.880)">
        <circle cx="0" cy="0" r="23.2" fill="url(#rgrad1)" filter="url(#shadow)" opacity="0.27"/>
        <text x="0" y="5" text-anchor="middle" font-family="Arial, sans-serif" font-size="14" fill="#FFFFFF" opacity="0.27">141</text>
      </g>
      </g>
      </g>
      </g>
      </g>
      </g>
      </g>
  </g>
  <g transform="translate(996.9, 355.3)">
      <g transform="translate(1.55,3.80) rotate(2.13) scale(1.000)">
        <g transform="translate(3.64,3.27) rotate(5.97) scale(0.980)">
        <g transform="translate(4.84,2.44) rotate(11.17) scale(0.960)">
        <g transform="translate(4.85,1.40) rotate(17.25) scale(0.940)" clip-path="url(#clipHex)">
        <g transform="translate(3.68,0.23) rotate(23.65) scale(0.920)">
        <g transform="translate(1.61,-0.96) rotate(29.74) scale(0.900)">
        <g transform="translate(-0.86,-2.07) rotate(34.92) scale(0.880)">
        <path d="M0.0,-58.1 L17.1,-23.5 L55.3,-18.0 L27.6,9.0 L34.2,47.0 L0.0,29.1 L-34.2,47.0 L-27.6,9.0 L-55.3,-18.0 L-17.1,-23.5Z" fill="url(#lgrad2)" filter="url(#blur2)" opacity="0.19"/>
      </g>
      </g>
      </g>
      </g>
      </g>
      </g>
      </g>
  </g>
  <g transform="translate(1226.7, 358.8)">
      <g transform="translate(4.84,1.02) rotate(2.13) scale(1.000)">
        <g transform="translate(4.85,-0.17) rotate(5.97) scale(0.980)">
        <g transform="translate(3.68,-1.35) rotate(11.17) scale(0.960)">
        <g transform="translate(1.61,-2.40) rotate(17.25) scale(0.940)">
        <g transform="translate(-0.86,-3.24) rotate(23.65) scale(0.920)">
        <g transform="translate(-3.11,-3.79) rotate(29.74) scale(0.900)" mask="url(#maskCircleFade)">
        <g transform="translate(-4.61,-4.00) rotate(34.92) scale(0.880)">
        <rect x="-35.8" y="-35.8" width="71.5" height="71.5" rx="17.9" fill="url(#rgrad3)" filter="url(#shadow)" opacity="0.13"/>
        <circle cx="0" cy="0" r="23.8" fill="url(#rgrad4)" opacity="0.09"/>
      </g>
      </g>
      </g>
      </g>
      </g>
      </g>
      </g>
  </g>
  <g transform="translate(1450.0, 372.3)">
      <g transform="translate(3.68,-2.71) rotate(2.13) scale(1.000)">
        <g transform="translate(1.61,-3.46) rotate(5.97) scale(0.980)">
        <g transform="translate(-0.86,-3.90) rotate(11.17) scale(0.960)">
        <g transform="translate(-3.11,-3.99) rotate(17.25) scale(0.940)">
        <g transform="translate(-4.61,-3.73) rotate(23.65) scale(0.920)">
        <g transform="translate(-4.97,-3.13) rotate(29.74) scale(0.900)">
        <g transform="translate(-4.12,-2.25) rotate(34.92) scale(0.880)">
        <path d="M38.6,22.3 L0.0,44.6 L-38.6,22.3 L-38.6,-22.3 L-0.0,-44.6 L38.6,-22.3Z" fill="url(#rgrad4)" filter="url(#blur4)" opacity="0.10"/>
        <ellipse cx="0" cy="0" rx="18.6" ry="12.4" fill="#FFFFFF" opacity="0.05"/>
      </g>
      </g>
      </g>
      </g>
      </g>
      </g>
      </g>
  </g>
  <g transform="translate(1665.9, 389.4)">
      <g transform="translate(-0.86,-3.94) rotate(2.13) scale(1.000)">
        <g transform="translate(-3.11,-3.56) rotate(5.97) scale(0.980)">
        <g transform="translate(-4.61,-2.86) rotate(11.17) scale(0.960)">
        <g transform="translate(-4.97,-1.91) rotate(17.25) scale(0.940)" clip-path="url(#clipCircle)">
        <g transform="translate(-4.12,-0.79) rotate(23.65) scale(0.920)">
        <g transform="translate(-2.26,0.41) rotate(29.74) scale(0.900)">
        <g transform="translate(0.15,1.56) rotate(34.92) scale(0.880)">
        <circle cx="0" cy="0" r="32.0" fill="url(#lgrad0)" filter="url(#shadow)" opacity="0.11"/>
        <text x="0" y="5" text-anchor="middle" font-family="Arial, sans-serif" font-size="14" fill="#FFFFFF" opacity="0.11">141</text>
      </g>
      </g>
      </g>
      </g>
      </g>
      </g>
      </g>
  </g>
  <g transform="translate(115.5, 682.1)">
      <g transform="translate(-4.61,-1.55) rotate(2.13) scale(1.000)">
        <g transform="translate(-4.97,-0.39) rotate(5.97) scale(0.980)">
        <g transform="translate(-4.12,0.80) rotate(11.17) scale(0.960)">
        <g transform="translate(-2.26,1.92) rotate(17.25) scale(0.940)">
        <g transform="translate(0.15,2.87) rotate(23.65) scale(0.920)">
        <g transform="translate(2.53,3.57) rotate(29.74) scale(0.900)" mask="url(#maskGradient)">
        <g transform="translate(4.29,3.94) rotate(34.92) scale(0.880)">
        <path d="M0.0,-50.0 L14.7,-20.2 L47.5,-15.4 L23.8,7.7 L29.4,40.4 L0.0,25.0 L-29.4,40.4 L-23.8,7.7 L-47.5,-15.4 L-14.7,-20.2Z" fill="url(#rgrad1)" filter="url(#blur1)" opacity="0.15"/>
      </g>
      </g>
      </g>
      </g>
      </g>
      </g>
      </g>
  </g>
  <g transform="translate(321.3, 684.4)">
      <g transform="translate(-4.12,2.26) rotate(2.13) scale(1.000)">
        <g transform="translate(-2.26,3.14) rotate(5.97) scale(0.980)">
        <g transform="translate(0.15,3.73) rotate(11.17) scale(0.960)">
        <g transform="translate(2.53,3.99) rotate(17.25) scale(0.940)">
        <g transform="translate(4.29,3.89) rotate(23.65) scale(0.920)">
        <g transform="translate(5.00,3.45) rotate(29.74) scale(0.900)">
        <g transform="translate(4.48,2.70) rotate(34.92) scale(0.880)">
        <rect x="-22.6" y="-22.6" width="45.2" height="45.2" rx="11.3" fill="url(#rgrad2)" filter="url(#shadow)" opacity="0.23"/>
        <circle cx="0" cy="0" r="15.1" fill="url(#rgrad3)" opacity="0.16"/>
      </g>
      </g>
      </g>
      </g>
      </g>
      </g>
      </g>
  </g>
  <g transform="translate(526.8, 675.3)">
      <g transform="translate(0.15,4.00) rotate(2.13) scale(1.000)">
        <g transform="translate(2.53,3.78) rotate(5.97) scale(0.980)">
        <g transform="translate(4.29,3.23) rotate(11.17) scale(0.960)">
        <g transform="translate(5.00,2.39) rotate(17.25) scale(0.940)" clip-path="url(#clipRect)">
        <g transform="translate(4.48,1.33) rotate(23.65) scale(0.920)">
        <g transform="translate(2.87,0.16) rotate(29.74) scale(0.900)">
        <g transform="translate(0.55,-1.03) rotate(34.92) scale(0.880)">
        <path d="M28.1,16.2 L0.0,32.4 L-28.1,16.2 L-28.1,-16.2 L-0.0,-32.4 L28.1,-16.2Z" fill="url(#lgrad3)" filter="url(#blur3)" opacity="0.33"/>
        <ellipse cx="0" cy="0" rx="13.5" ry="9.0" fill="#FFFFFF" opacity="0.16"/>
      </g>
      </g>
      </g>
      </g>
      </g>
      </g>
      </g>
  </g>
  <g transform="translate(735.5, 658.9)">
      <g transform="translate(4.29,2.06) rotate(2.13) scale(1.000)">
        <g transform="translate(5.00,0.95) rotate(5.97) scale(0.980)">
        <g transform="translate(4.48,-0.24) rotate(11.17) scale(0.960)">
        <g transform="translate(2.87,-1.41) rotate(17.25) scale(0.940)">
        <g transform="translate(0.55,-2.45) rotate(23.65) scale(0.920)">
        <g transform="translate(-1.90,-3.28) rotate(29.74) scale(0.900)" mask="url(#maskDynamic)">
        <g transform="translate(-3.88,-3.81) rotate(34.92) scale(0.880)">
        <circle cx="0" cy="0" r="34.2" fill="url(#rgrad4)" filter="url(#shadow)" opacity="0.44"/>
        <text x="0" y="5" text-anchor="middle" font-family="Arial, sans-serif" font-size="14" fill="#FFFFFF" opacity="0.44">141</text>
      </g>
      </g>
      </g>
      </g>
      </g>
      </g>
      </g>
  </g>
  <g transform="translate(950.2, 643.1)">
      <g transform="translate(4.48,-1.78) rotate(2.13) scale(1.000)">
        <g transform="translate(2.87,-2.76) rotate(5.97) scale(0.980)">
        <g transform="translate(0.55,-3.49) rotate(11.17) scale(0.960)">
        <g transform="translate(-1.90,-3.91) rotate(17.25) scale(0.940)">
        <g transform="translate(-3.88,-3.98) rotate(23.65) scale(0.920)">
        <g transform="translate(-4.92,-3.70) rotate(29.74) scale(0.900)">
        <g transform="translate(-4.75,-3.09) rotate(34.92) scale(0.880)">
        <path d="M0.0,-75.0 L22.0,-30.3 L71.3,-23.2 L35.7,11.6 L44.1,60.7 L0.0,37.5 L-44.1,60.7 L-35.7,11.6 L-71.3,-23.2 L-22.0,-30.3Z" fill="url(#rgrad0)" filter="url(#blur0)" opacity="0.56"/>
      </g>
      </g>
      </g>
      </g>
      </g>
      </g>
      </g>
  </g>
  <g transform="translate(1172.2, 635.2)">
      <g transform="translate(0.55,-3.98) rotate(2.13) scale(1.000)">
        <g transform="translate(-1.90,-3.93) rotate(5.97) scale(0.980)">
        <g transform="translate(-3.88,-3.53) rotate(11.17) scale(0.960)">
        <g transform="translate(-4.92,-2.82) rotate(17.25) scale(0.940)" clip-path="url(#clipStar)">
        <g transform="translate(-4.75,-1.85) rotate(23.65) scale(0.920)">
        <g transform="translate(-3.42,-0.72) rotate(29.74) scale(0.900)">
        <g transform="translate(-1.25,0.47) rotate(34.92) scale(0.880)">
        <rect x="-33.9" y="-33.9" width="67.9" height="67.9" rx="17.0" fill="url(#lgrad1)" filter="url(#shadow)" opacity="0.68"/>
        <circle cx="0" cy="0" r="22.6" fill="url(#rgrad2)" opacity="0.47"/>
      </g>
      </g>
      </g>
      </g>
      </g>
      </g>
      </g>
  </g>
  <g transform="translate(1401.0, 639.0)">
      <g transform="translate(-3.88,-2.52) rotate(2.13) scale(1.000)">
        <g transform="translate(-4.92,-1.49) rotate(5.97) scale(0.980)">
        <g transform="translate(-4.75,-0.33) rotate(11.17) scale(0.960)">
        <g transform="translate(-3.42,0.87) rotate(17.25) scale(0.940)">
        <g transform="translate(-1.25,1.98) rotate(23.65) scale(0.920)">
        <g transform="translate(1.23,2.92) rotate(29.74) scale(0.900)" mask="url(#maskStripes)">
        <g transform="translate(3.40,3.60) rotate(34.92) scale(0.880)">
        <path d="M27.8,16.0 L0.0,32.1 L-27.8,16.0 L-27.8,-16.0 L-0.0,-32.1 L27.8,-16.0Z" fill="url(#rgrad2)" filter="url(#blur2)" opacity="0.77"/>
        <ellipse cx="0" cy="0" rx="13.4" ry="8.9" fill="#FFFFFF" opacity="0.39"/>
      </g>
      </g>
      </g>
      </g>
      </g>
      </g>
      </g>
  </g>
  <g transform="translate(1634.5, 652.7)">
      <g transform="translate(-4.75,1.25) rotate(2.13) scale(1.000)">
        <g transform="translate(-3.42,2.32) rotate(5.97) scale(0.980)">
        <g transform="translate(-1.25,3.18) rotate(11.17) scale(0.960)">
        <g transform="translate(1.23,3.75) rotate(17.25) scale(0.940)">
        <g transform="translate(3.40,3.99) rotate(23.65) scale(0.920)">
        <g transform="translate(4.74,3.88) rotate(29.74) scale(0.900)">
        <g transform="translate(4.92,3.41) rotate(34.92) scale(0.880)">
        <circle cx="0" cy="0" r="22.6" fill="url(#rgrad3)" filter="url(#shadow)" opacity="0.85"/>
        <text x="0" y="5" text-anchor="middle" font-family="Arial, sans-serif" font-size="14" fill="#FFFFFF" opacity="0.85">141</text>
      </g>
      </g>
      </g>
      </g>
      </g>
      </g>
      </g>
  </g>
  <g transform="translate(109.3, 949.8)">
      <g transform="translate(-1.25,3.87) rotate(2.13) scale(1.000)">
        <g transform="translate(1.23,4.00) rotate(5.97) scale(0.980)">
        <g transform="translate(3.40,3.76) rotate(11.17) scale(0.960)">
        <g transform="translate(4.74,3.19) rotate(17.25) scale(0.940)" clip-path="url(#clipDynamic)">
        <g transform="translate(4.92,2.33) rotate(23.65) scale(0.920)">
        <g transform="translate(3.90,1.27) rotate(29.74) scale(0.900)">
        <g transform="translate(1.92,0.09) rotate(34.92) scale(0.880)">
        <path d="M0.0,-50.4 L14.8,-20.4 L48.0,-15.6 L24.0,7.8 L29.6,40.8 L0.0,25.2 L-29.6,40.8 L-24.0,7.8 L-48.0,-15.6 L-14.8,-20.4Z" fill="url(#lgrad4)" filter="url(#blur4)" opacity="0.89"/>
      </g>
      </g>
      </g>
      </g>
      </g>
      </g>
      </g>
  </g>
  <g transform="translate(377.1, 350.9)" mask="url(#maskGradient)">
    <ellipse cx="0" cy="0" rx="200" ry="150" fill="url(#rgrad0)" filter="url(#blur3)" opacity="0.3"/>
  </g>
  <g transform="translate(895.2, 299.2)" mask="url(#maskCircleFade)">
    <ellipse cx="0" cy="0" rx="200" ry="150" fill="url(#rgrad1)" filter="url(#blur3)" opacity="0.3"/>
  </g>
  <g transform="translate(1325.8, 247.9)" mask="url(#maskStripes)">
    <ellipse cx="0" cy="0" rx="200" ry="150" fill="url(#rgrad2)" filter="url(#blur3)" opacity="0.3"/>
  </g>
</svg>