<?xml version="1.0" encoding="UTF-8"?>
<svg xmlns="http://www.w3.org/2000/svg" viewBox="0 0 1920 1080" width="1920" height="1080">
  <defs>
    <filter id="blur0" x="-50%" y="-50%" width="200%" height="200%">
      <feGaussianBlur in="SourceGraphic" stdDeviation="1"/>
    </filter>
    <filter id="blur1" x="-50%" y="-50%" width="200%" height="200%">
      <feGaussianBlur in="SourceGraphic" stdDeviation="3"/>
    </filter>
    <filter id="blur2" x="-50%" y="-50%" width="200%" height="200%">
      <feGaussianBlur in="SourceGraphic" stdDeviation="5"/>
    </filter>
    <filter id="blur3" x="-50%" y="-50%" width="200%" height="200%">
      <feGaussianBlur in="SourceGraphic" stdDeviation="7"/>
    </filter>
    <filter id="blur4" x="-50%" y="-50%" width="200%" height="200%">
      <feGaussianBlur in="SourceGraphic" stdDeviation="9"/>
    </filter>
    <filter id="shadow" x="-50%" y="-50%" width="200%" height="200%">
      <feGaussianBlur in="SourceAlpha" stdDeviation="3" result="blur"/>
      <feOffset in="blur" dx="4" dy="4" result="offsetBlur"/>
      <feMerge>
        <feMergeNode in="offsetBlur"/>
        <feMergeNode in="SourceGraphic"/>
      </feMerge>
    </filter>
    <linearGradient id="lgrad0" x1="0%" y1="0%" x2="93.3%" y2="25.0%">
      <stop offset="0%" stop-color="#FF6B6B"/>
      <stop offset="33%" stop-color="#4ECDC4"/>
      <stop offset="66%" stop-color="#45B7D1"/>
      <stop offset="100%" stop-color="#96E6A1"/>
    </linearGradient>
    <linearGradient id="lgrad1" x1="0%" y1="0%" x2="100.0%" y2="50.0%">
      <stop offset="0%" stop-color="#FFE66D"/>
      <stop offset="33%" stop-color="#FF6B6B"/>
      <stop offset="66%" stop-color="#C44D58"/>
      <stop offset="100%" stop-color="#8B0000"/>
    </linearGradient>
    <linearGradient id="lgrad2" x1="0%" y1="0%" x2="93.3%" y2="75.0%">
      <stop offset="0%" stop-color="#4169E1"/>
      <stop offset="33%" stop-color="#7B68EE"/>
      <stop offset="66%" stop-color="#9370DB"/>
      <stop offset="100%" stop-color="#FFD700"/>
    </linearGradient>
    <linearGradient id="lgrad3" x1="0%" y1="0%" x2="75.0%" y2="93.3%">
      <stop offset="0%" stop-color="#32CD32"/>
      <stop offset="33%" stop-color="#228B22"/>
      <stop offset="66%" stop-color="#006400"/>
      <stop offset="100%" stop-color="#ADFF2F"/>
    </linearGradient>
    <linearGradient id="lgrad4" x1="0%" y1="0%" x2="50.0%" y2="100.0%">
      <stop offset="0%" stop-color="#FF1493"/>
      <stop offset="33%" stop-color="#FF69B4"/>
      <stop offset="66%" stop-color="#FFB6C1"/>
      <stop offset="100%" stop-color="#FFC0CB"/>
    </linearGradient>
    <radialGradient id="rgrad0" cx="41.0%" cy="64.0%" r="60%">
      <stop offset="0%" stop-color="#FF6B6B" stop-opacity="1"/>
      <stop offset="50%" stop-color="#4ECDC4" stop-opacity="0.8"/>
      <stop offset="100%" stop-color="#45B7D1" stop-opacity="0.6"/>
    </radialGradient>
    <radialGradient id="rgrad1" cx="51.0%" cy="32.0%" r="60%">
      <stop offset="0%" stop-color="#FFE66D" stop-opacity="1"/>
      <stop offset="50%" stop-color="#FF6B6B" stop-opacity="0.8"/>
      <stop offset="100%" stop-color="#C44D58" stop-opacity="0.6"/>
    </radialGradient>
    <radialGradient id="rgrad2" cx="61.0%" cy="40.0%" r="60%">
      <stop offset="0%" stop-color="#4169E1" stop-opacity="1"/>
      <stop offset="50%" stop-color="#7B68EE" stop-opacity="0.8"/>
      <stop offset="100%" stop-color="#9370DB" stop-opacity="0.6"/>
    </radialGradient>
    <radialGradient id="rgrad3" cx="31.0%" cy="48.0%" r="60%">
      <stop offset="0%" stop-color="#32CD32" stop-opacity="1"/>
      <stop offset="50%" stop-color="#228B22" stop-opacity="0.8"/>
      <stop offset="100%" stop-color="#006400" stop-opacity="0.6"/>
    </radialGradient>
    <radialGradient id="rgrad4" cx="41.0%" cy="56.0%" r="60%">
      <stop offset="0%" stop-color="#FF1493" stop-opacity="1"/>
      <stop offset="50%" stop-color="#FF69B4" stop-opacity="0.8"/>
      <stop offset="100%" stop-color="#FFB6C1" stop-opacity="0.6"/>
    </radialGradient>
    <clipPath id="clipCircle">
      <circle cx="0" cy="0" r="50"/>
    </clipPath>
    <clipPath id="clipStar">
      <path d="M0.0,-50.0 L14.7,-20.2 L47.6,-15.5 L23.8,7.7 L29.4,40.5 L0.0,25.0 L-29.4,40.5 L-23.8,7.7 L-47.6,-15.5 L-14.7,-20.2Z"/>
    </clipPath>
    <clipPath id="clipHex">
      <path d="M39.0,22.5 L0.0,45.0 L-39.0,22.5 L-39.0,-22.5 L-0.0,-45.0 L39.0,-22.5Z"/>
    </clipPath>
    <clipPath id="clipRect">
      <rect x="-40" y="-30" width="80" height="60" rx="10"/>
    </clipPath>
    <clipPath id="clipDynamic">
      <circle cx="0" cy="0" r="28.7"/>
    </clipPath>
    <mask id="maskGradient" maskContentUnits="objectBoundingBox">
      <rect x="0" y="0" width="1" height="1" fill="url(#maskGrad)"/>
    </mask>
    <linearGradient id="maskGrad" x1="0%" y1="0%" x2="100%" y2="100%">
      <stop offset="0%" stop-color="white"/>
      <stop offset="100%" stop-color="black"/>
    </linearGradient>
    <mask id="maskCircleFade">
      <circle cx="0" cy="0" r="60" fill="white"/>
      <circle cx="0" cy="0" r="30" fill="black"/>
    </mask>
    <mask id="maskStripes">
      <rect x="-50" y="-50" width="100" height="100" fill="white"/>
      <rect x="-50" y="-40" width="100" height="10" fill="black"/>
      <rect x="-50" y="-20" width="100" height="10" fill="black"/>
      <rect x="-50" y="0" width="100" height="10" fill="black"/>
      <rect x="-50" y="20" width="100" height="10" fill="black"/>
      <rect x="-50" y="40" width="100" height="10" fill="black"/>
    </mask>
    <mask id="maskDynamic">
      <rect x="-60" y="-60" width="120" height="120" fill="white" fill-opacity="0.98"/>
      <circle cx="0" cy="0" r="25" fill="white"/>
    </mask>
  </defs>
  <rect width="1920" height="1080" fill="url(#lgrad0)"/>
  <g transform="translate(87.3, 77.4)">
      <g transform="translate(-2.12,-3.62) rotate(4.88) scale(1.000)">
        <g transform="translate(-4.03,-2.96) rotate(9.14) scale(0.980)">
        <g transform="translate(-4.96,-2.03) rotate(12.22) scale(0.960)">
        <g transform="translate(-4.67,-0.93) rotate(13.67) scale(0.940)" clip-path="url(#clipCircle)">
        <g transform="translate(-3.24,0.27) rotate(13.11) scale(0.920)">
        <g transform="translate(-1.02,1.43) rotate(10.35) scale(0.900)">
        <g transform="translate(1.46,2.47) rotate(5.31) scale(0.880)">
        <path d="M0.0,-74.6 L21.9,-30.2 L71.0,-23.1 L35.5,11.5 L43.9,60.4 L0.0,37.3 L-43.9,60.4 L-35.5,11.5 L-71.0,-23.1 L-21.9,-30.2Z" fill="url(#lgrad0)" filter="url(#blur0)" opacity="0.89"/>
      </g>
      </g>
      </g>
      </g>
      </g>
      </g>
      </g>
  </g>
  <g transform="translate(295.8, 89.5)">
      <g transform="translate(-4.96,-0.53) rotate(4.88) scale(1.000)">
        <g transform="translate(-4.67,0.66) rotate(9.14) scale(0.980)">
        <g transform="translate(-3.24,1.80) rotate(12.22) scale(0.960)">
        <g transform="translate(-1.02,2.77) rotate(13.67) scale(0.940)">
        <g transform="translate(1.46,3.50) rotate(13.11) scale(0.920)">
        <g transform="translate(3.57,3.92) rotate(10.35) scale(0.900)" mask="url(#maskCircleFade)">
        <g transform="translate(4.81,3.98) rotate(5.31) scale(0.880)">
        <rect x="-32.6" y="-32.6" width="65.2" height="65.2" rx="16.3" fill="url(#rgrad1)" filter="url(#shadow)" opacity="0.85"/>
        <circle cx="0" cy="0" r="21.7" fill="url(#rgrad2)" opacity="0.59"/>
      </g>
      </g>
      </g>
      </g>
      </g>
      </g>
      </g>
  </g>
  <g transform="translate(510.3, 106.6)">
      <g transform="translate(-3.24,3.05) rotate(4.88) scale(1.000)">
        <g transform="translate(-1.02,3.68) rotate(9.14) scale(0.980)">
        <g transform="translate(1.46,3.98) rotate(12.22) scale(0.960)">
        <g transform="translate(3.57,3.92) rotate(13.67) scale(0.940)">
        <g transform="translate(4.81,3.52) rotate(13.11) scale(0.920)">
        <g transform="translate(4.87,2.80) rotate(10.35) scale(0.900)">
        <g transform="translate(3.74,1.83) rotate(5.31) scale(0.880)">
        <path d="M26.5,15.3 L0.0,30.6 L-26.5,15.3 L-26.5,-15.3 L-0.0,-30.6 L26.5,-15.3Z" fill="url(#rgrad2)" filter="url(#blur2)" opacity="0.77"/>
        <ellipse cx="0" cy="0" rx="12.7" ry="8.5" fill="#FFFFFF" opacity="0.39"/>
      </g>
      </g>
      </g>
      </g>
      </g>
      </g>
      </g>
  </g>
  <g transform="translate(732.0, 120.6)">
      <g transform="translate(1.46,3.83) rotate(4.88) scale(1.000)">
        <g transform="translate(3.57,3.31) rotate(9.14) scale(0.980)">
        <g transform="translate(4.81,2.50) rotate(12.22) scale(0.960)">
        <g transform="translate(4.87,1.47) rotate(13.67) scale(0.940)" clip-path="url(#clipRect)">
        <g transform="translate(3.74,0.30) rotate(13.11) scale(0.920)">
        <g transform="translate(1.70,-0.89) rotate(10.35) scale(0.900)">
        <g transform="translate(-0.77,-2.00) rotate(5.31) scale(0.880)">
        <circle cx="0" cy="0" r="22.5" fill="url(#lgrad3)" filter="url(#shadow)" opacity="0.67"/>
        <text x="0" y="5" text-anchor="middle" font-family="Arial, sans-serif" font-size="14" fill="#FFFFFF" opacity="0.67">570</text>
      </g>
      </g>
      </g>
      </g>
      </g>
      </g>
      </g>
  </g>
  <g transform="translate(960.6, 124.9)">
      <g transform="translate(4.81,1.09) rotate(4.88) scale(1.000)">
        <g transform="translate(4.87,-0.10) rotate(9.14) scale(0.980)">
        <g transform="translate(3.74,-1.28) rotate(12.22) scale(0.960)">
        <g transform="translate(1.70,-2.34) rotate(13.67) scale(0.940)">
        <g transform="translate(-0.77,-3.19) rotate(13.11) scale(0.920)">
        <g transform="translate(-3.04,-3.76) rotate(10.35) scale(0.900)" mask="url(#maskGradient)">
        <g transform="translate(-4.57,-4.00) rotate(5.31) scale(0.880)">
        <path d="M0.0,-52.9 L15.5,-21.4 L50.3,-16.3 L25.2,8.2 L31.1,42.8 L0.0,26.4 L-31.1,42.8 L-25.2,8.2 L-50.3,-16.3 L-15.5,-21.4Z" fill="url(#rgrad4)" filter="url(#blur4)" opacity="0.56"/>
      </g>
      </g>
      </g>
      </g>
      </g>
      </g>
      </g>
  </g>
  <g transform="translate(1193.9, 117.5)">
      <g transform="translate(3.74,-2.65) rotate(4.88) scale(1.000)">
        <g transform="translate(1.70,-3.42) rotate(9.14) scale(0.980)">
        <g transform="translate(-0.77,-3.88) rotate(12.22) scale(0.960)">
        <g transform="translate(-3.04,-3.99) rotate(13.67) scale(0.940)">
        <g transform="translate(-4.57,-3.75) rotate(13.11) scale(0.920)">
        <g transform="translate(-4.98,-3.17) rotate(10.35) scale(0.900)">
        <g transform="translate(-4.17,-2.31) rotate(5.31) scale(0.880)">
        <rect x="-33.6" y="-33.6" width="67.3" height="67.3" rx="16.8" fill="url(#rgrad0)" filter="url(#shadow)" opacity="0.44"/>
        <circle cx="0" cy="0" r="22.4" fill="url(#rgrad1)" opacity="0.31"/>
      </g>
      </g>
      </g>
      </g>
      </g>
      </g>
      </g>
  </g>
  <g transform="translate(1428.7, 101.9)">
      <g transform="translate(-0.77,-3.95) rotate(4.88) scale(1.000)">
        <g transform="translate(-3.04,-3.59) rotate(9.14) scale(0.980)">
        <g transform="translate(-4.57,-2.92) rotate(12.22) scale(0.960)">
        <g transform="translate(-4.98,-1.98) rotate(13.67) scale(0.940)" clip-path="url(#clipStar)">
        <g transform="translate(-4.17,-0.86) rotate(13.11) scale(0.920)">
        <g transform="translate(-2.34,0.33) rotate(10.35) scale(0.900)">
        <g transform="translate(0.06,1.50) rotate(5.31) scale(0.880)">
        <path d="M39.0,22.5 L0.0,45.0 L-39.0,22.5 L-39.0,-22.5 L-0.0,-45.0 L39.0,-22.5Z" fill="url(#lgrad1)" filter="url(#blur1)" opacity="0.33"/>
        <ellipse cx="0" cy="0" rx="18.7" ry="12.5" fill="#FFFFFF" opacity="0.16"/>
      </g>
      </g>
      </g>
      </g>
      </g>
      </g>
      </g>
  </g>
  <g transform="translate(1661.4, 85.4)">
      <g transform="translate(-4.57,-1.62) rotate(4.88) scale(1.000)">
        <g transform="translate(-4.98,-0.47) rotate(9.14) scale(0.980)">
        <g transform="translate(-4.17,0.73) rotate(12.22) scale(0.960)">
        <g transform="translate(-2.34,1.86) rotate(13.67) scale(0.940)">
        <g transform="translate(0.06,2.82) rotate(13.11) scale(0.920)">
        <g transform="translate(2.45,3.53) rotate(10.35) scale(0.900)" mask="url(#maskDynamic)">
        <g transform="translate(4.24,3.93) rotate(5.31) scale(0.880)">
        <circle cx="0" cy="0" r="34.5" fill="url(#rgrad2)" filter="url(#shadow)" opacity="0.23"/>
        <text x="0" y="5" text-anchor="middle" font-family="Arial, sans-serif" font-size="14" fill="#FFFFFF" opacity="0.23">570</text>
      </g>
      </g>
      </g>
      </g>
      </g>
      </g>
      </g>
  </g>
  <g transform="translate(128.9, 355.8)">
      <g transform="translate(-4.17,2.20) rotate(4.88) scale(1.000)">
        <g transform="translate(-2.34,3.09) rotate(9.14) scale(0.980)">
        <g transform="translate(0.06,3.70) rotate(12.22) scale(0.960)">
        <g transform="translate(2.45,3.98) rotate(13.67) scale(0.940)">
        <g transform="translate(4.24,3.91) rotate(13.11) scale(0.920)">
        <g transform="translate(4.99,3.49) rotate(10.35) scale(0.900)">
        <g transform="translate(4.52,2.75) rotate(5.31) scale(0.880)">
        <path d="M0.0,-54.7 L16.1,-22.1 L52.0,-16.9 L26.0,8.4 L32.1,44.2 L0.0,27.3 L-32.1,44.2 L-26.0,8.4 L-52.0,-16.9 L-16.1,-22.1Z" fill="url(#rgrad3)" filter="url(#blur3)" opacity="0.15"/>
      </g>
      </g>
      </g>
      </g>
      </g>
      </g>
      </g>
  </g>
  <g transform="translate(349.2, 357.5)">
      <g transform="translate(0.06,4.00) rotate(4.88) scale(1.000)">
        <g transform="translate(2.45,3.81) rotate(9.14) scale(0.980)">
        <g transform="translate(4.24,3.27) rotate(12.22) scale(0.960)">
        <g transform="translate(4.99,2.45) rotate(13.67) scale(0.940)" clip-path="url(#clipDynamic)">
        <g transform="translate(4.52,1.40) rotate(13.11) scale(0.920)">
        <g transform="translate(2.94,0.23) rotate(10.35) scale(0.900)">
        <g transform="translate(0.64,-0.96) rotate(5.31) scale(0.880)">
        <rect x="-22.7" y="-22.7" width="45.3" height="45.3" rx="11.3" fill="url(#lgrad4)" filter="url(#shadow)" opacity="0.11"/>
        <circle cx="0" cy="0" r="15.1" fill="url(#rgrad0)" opacity="0.08"/>
      </g>
      </g>
      </g>
      </g>
      </g>
      </g>
      </g>
  </g>
  <g transform="translate(562.5, 369.9)">
      <g transform="translate(4.24,2.12) rotate(4.88) scale(1.000)">
        <g transform="translate(4.99,1.02) rotate(9.14) scale(0.980)">
        <g transform="translate(4.52,-0.17) rotate(12.22) scale(0.960)">
        <g transform="translate(2.94,-1.34) rotate(13.67) scale(0.940)">
        <g transform="translate(0.64,-2.39) rotate(13.11) scale(0.920)">
        <g transform="translate(-1.81,-3.23) rotate(10.35) scale(0.900)" mask="url(#maskStripes)">
        <g transform="translate(-3.82,-3.79) rotate(5.31) scale(0.880)">
        <path d="M25.7,14.8 L0.0,29.7 L-25.7,14.8 L-25.7,-14.8 L-0.0,-29.7 L25.7,-14.8Z" fill="url(#rgrad0)" filter="url(#blur0)" opacity="0.10"/>
        <ellipse cx="0" cy="0" rx="12.4" ry="8.2" fill="#FFFFFF" opacity="0.05"/>
      </g>
      </g>
      </g>
      </g>
      </g>
      </g>
      </g>
  </g>
  <g transform="translate(770.2, 387.0)">
      <g transform="translate(4.52,-1.71) rotate(4.88) scale(1.000)">
        <g transform="translate(2.94,-2.70) rotate(9.14) scale(0.980)">
        <g transform="translate(0.64,-3.45) rotate(12.22) scale(0.960)">
        <g transform="translate(-1.81,-3.90) rotate(13.67) scale(0.940)">
        <g transform="translate(-3.82,-3.99) rotate(13.11) scale(0.920)">
        <g transform="translate(-4.90,-3.73) rotate(10.35) scale(0.900)">
        <g transform="translate(-4.78,-3.13) rotate(5.31) scale(0.880)">
        <circle cx="0" cy="0" r="31.7" fill="url(#rgrad1)" filter="url(#shadow)" opacity="0.13"/>
        <text x="0" y="5" text-anchor="middle" font-family="Arial, sans-serif" font-size="14" fill="#FFFFFF" opacity="0.13">570</text>
      </g>
      </g>
      </g>
      </g>
      </g>
      </g>
      </g>
  </g>
  <g transform="translate(975.4, 400.8)">
      <g transform="translate(0.64,-3.97) rotate(4.88) scale(1.000)">
        <g transform="translate(-1.81,-3.94) rotate(9.14) scale(0.980)">
        <g transform="translate(-3.82,-3.56) rotate(12.22) scale(0.960)">
        <g transform="translate(-4.90,-2.87) rotate(13.67) scale(0.940)" clip-path="url(#clipHex)">
        <g transform="translate(-4.78,-1.92) rotate(13.11) scale(0.920)">
        <g transform="translate(-3.48,-0.79) rotate(10.35) scale(0.900)">
        <g transform="translate(-1.34,0.40) rotate(5.31) scale(0.880)">
        <path d="M0.0,-74.1 L21.8,-30.0 L70.5,-22.9 L35.2,11.4 L43.6,59.9 L0.0,37.1 L-43.6,59.9 L-35.2,11.4 L-70.5,-22.9 L-21.8,-30.0Z" fill="url(#lgrad2)" filter="url(#blur2)" opacity="0.19"/>
      </g>
      </g>
      </g>
      </g>
      </g>
      </g>
      </g>
  </g>
  <g transform="translate(1181.8, 404.8)">
      <g transform="translate(-3.82,-2.58) rotate(4.88) scale(1.000)">
        <g transform="translate(-4.90,-1.56) rotate(9.14) scale(0.980)">
        <g transform="translate(-4.78,-0.40) rotate(12.22) scale(0.960)">
        <g transform="translate(-3.48,0.79) rotate(13.67) scale(0.940)">
        <g transform="translate(-1.34,1.92) rotate(13.11) scale(0.920)">
        <g transform="translate(1.14,2.87) rotate(10.35) scale(0.900)" mask="url(#maskCircleFade)">
        <g transform="translate(3.33,3.56) rotate(5.31) scale(0.880)">
        <rect x="-36.0" y="-36.0" width="71.9" height="71.9" rx="18.0" fill="url(#rgrad3)" filter="url(#shadow)" opacity="0.28"/>
        <circle cx="0" cy="0" r="24.0" fill="url(#rgrad4)" opacity="0.19"/>
      </g>
      </g>
      </g>
      </g>
      </g>
      </g>
      </g>
  </g>
  <g transform="translate(1392.6, 397.2)">
      <g transform="translate(-4.78,1.18) rotate(4.88) scale(1.000)">
        <g transform="translate(-3.48,2.26) rotate(9.14) scale(0.980)">
        <g transform="translate(-1.34,3.13) rotate(12.22) scale(0.960)">
        <g transform="translate(1.14,3.73) rotate(13.67) scale(0.940)">
        <g transform="translate(3.33,3.99) rotate(13.11) scale(0.920)">
        <g transform="translate(4.71,3.90) rotate(10.35) scale(0.900)">
        <g transform="translate(4.94,3.45) rotate(5.31) scale(0.880)">
        <path d="M30.5,17.6 L0.0,35.3 L-30.5,17.6 L-30.5,-17.6 L-0.0,-35.3 L30.5,-17.6Z" fill="url(#rgrad4)" filter="url(#blur4)" opacity="0.38"/>
        <ellipse cx="0" cy="0" rx="14.7" ry="9.8" fill="#FFFFFF" opacity="0.19"/>
      </g>
      </g>
      </g>
      </g>
      </g>
      </g>
      </g>
  </g>
  <g transform="translate(1610.1, 381.5)">
      <g transform="translate(-1.34,3.85) rotate(4.88) scale(1.000)">
        <g transform="translate(1.14,4.00) rotate(9.14) scale(0.980)">
        <g transform="translate(3.33,3.79) rotate(12.22) scale(0.960)">
        <g transform="translate(4.71,3.23) rotate(13.67) scale(0.940)" clip-path="url(#clipCircle)">
        <g transform="translate(4.94,2.39) rotate(13.11) scale(0.920)">
        <g transform="translate(3.95,1.34) rotate(10.35) scale(0.900)">
        <g transform="translate(2.00,0.17) rotate(5.31) scale(0.880)">
        <circle cx="0" cy="0" r="23.4" fill="url(#lgrad0)" filter="url(#shadow)" opacity="0.50"/>
        <text x="0" y="5" text-anchor="middle" font-family="Arial, sans-serif" font-size="14" fill="#FFFFFF" opacity="0.50">570</text>
      </g>
      </g>
      </g>
      </g>
      </g>
      </g>
      </g>
  </g>
  <g transform="translate(75.0, 645.0)">
      <g transform="translate(3.33,2.98) rotate(4.88) scale(1.000)">
        <g transform="translate(4.71,2.06) rotate(9.14) scale(0.980)">
        <g transform="translate(4.94,0.96) rotate(12.22) scale(0.960)">
        <g transform="translate(3.95,-0.23) rotate(13.67) scale(0.940)">
        <g transform="translate(2.00,-1.40) rotate(13.11) scale(0.920)">
        <g transform="translate(-0.44,-2.45) rotate(10.35) scale(0.900)" mask="url(#maskGradient)">
        <g transform="translate(-2.77,-3.27) rotate(5.31) scale(0.880)">
        <path d="M0.0,-46.9 L13.8,-19.0 L44.6,-14.5 L22.3,7.2 L27.6,38.0 L0.0,23.5 L-27.6,38.0 L-22.3,7.2 L-44.6,-14.5 L-13.8,-19.0Z" fill="url(#rgrad1)" filter="url(#blur1)" opacity="0.62"/>
      </g>
      </g>
      </g>
      </g>
      </g>
      </g>
      </g>
  </g>
  <g transform="translate(305.9, 635.7)">
      <g transform="translate(4.94,-0.63) rotate(4.88) scale(1.000)">
        <g transform="translate(3.95,-1.77) rotate(9.14) scale(0.980)">
        <g transform="translate(2.00,-2.75) rotate(12.22) scale(0.960)">
        <g transform="translate(-0.44,-3.49) rotate(13.67) scale(0.940)">
        <g transform="translate(-2.77,-3.91) rotate(13.11) scale(0.920)">
        <g transform="translate(-4.43,-3.98) rotate(10.35) scale(0.900)">
        <g transform="translate(-5.00,-3.70) rotate(5.31) scale(0.880)">
        <rect x="-29.5" y="-29.5" width="59.1" height="59.1" rx="14.8" fill="url(#rgrad2)" filter="url(#shadow)" opacity="0.73"/>
        <circle cx="0" cy="0" r="19.7" fill="url(#rgrad3)" opacity="0.51"/>
      </g>
      </g>
      </g>
      </g>
      </g>
      </g>
      </g>
  </g>
  <g transform="translate(540.4, 637.7)">
      <g transform="translate(2.00,-3.66) rotate(4.88) scale(1.000)">
        <g transform="translate(-0.44,-3.97) rotate(9.14) scale(0.980)">
        <g transform="translate(-2.77,-3.93) rotate(12.22) scale(0.960)">
        <g transform="translate(-4.43,-3.53) rotate(13.67) scale(0.940)" clip-path="url(#clipRect)">
        <g transform="translate(-5.00,-2.82) rotate(13.11) scale(0.920)">
        <g transform="translate(-4.35,-1.86) rotate(10.35) scale(0.900)">
        <g transform="translate(-2.63,-0.73) rotate(5.31) scale(0.880)">
        <path d="M37.5,21.6 L0.0,43.3 L-37.5,21.6 L-37.5,-21.6 L-0.0,-43.3 L37.5,-21.6Z" fill="url(#lgrad3)" filter="url(#blur3)" opacity="0.81"/>
        <ellipse cx="0" cy="0" rx="18.0" ry="12.0" fill="#FFFFFF" opacity="0.41"/>
      </g>
      </g>
      </g>
      </g>
      </g>
      </g>
      </g>
  </g>
  <g transform="translate(774.7, 650.3)">
      <g transform="translate(-2.77,-3.33) rotate(4.88) scale(1.000)">
        <g transform="translate(-4.43,-2.53) rotate(9.14) scale(0.980)">
        <g transform="translate(-5.00,-1.50) rotate(12.22) scale(0.960)">
        <g transform="translate(-4.35,-0.33) rotate(13.67) scale(0.940)">
        <g transform="translate(-2.63,0.86) rotate(13.11) scale(0.920)">
        <g transform="translate(-0.27,1.98) rotate(10.35) scale(0.900)" mask="url(#maskDynamic)">
        <g transform="translate(2.16,2.92) rotate(5.31) scale(0.880)">
        <circle cx="0" cy="0" r="37.0" fill="url(#rgrad4)" filter="url(#shadow)" opacity="0.87"/>
        <text x="0" y="5" text-anchor="middle" font-family="Arial, sans-serif" font-size="14" fill="#FFFFFF" opacity="0.87">570</text>
      </g>
      </g>
      </g>
      </g>
      </g>
      </g>
      </g>
  </g>
  <g transform="translate(1005.4, 667.4)">
      <g transform="translate(-5.00,0.07) rotate(4.88) scale(1.000)">
        <g transform="translate(-4.35,1.25) rotate(9.14) scale(0.980)">
        <g transform="translate(-2.63,2.31) rotate(12.22) scale(0.960)">
        <g transform="translate(-0.27,3.17) rotate(13.67) scale(0.940)">
        <g transform="translate(2.16,3.75) rotate(13.11) scale(0.920)">
        <g transform="translate(4.06,3.99) rotate(10.35) scale(0.900)">
        <g transform="translate(4.96,3.88) rotate(5.31) scale(0.880)">
        <path d="M0.0,-63.0 L18.5,-25.5 L59.9,-19.5 L30.0,9.7 L37.0,51.0 L0.0,31.5 L-37.0,51.0 L-30.0,9.7 L-59.9,-19.5 L-18.5,-25.5Z" fill="url(#rgrad0)" filter="url(#blur0)" opacity="0.90"/>
      </g>
      </g>
      </g>
      </g>
      </g>
      </g>
      </g>
  </g>
  <g transform="translate(1229.9, 681.0)">
      <g transform="translate(-2.63,3.40) rotate(4.88) scale(1.000)">
        <g transform="translate(-0.27,3.87) rotate(9.14) scale(0.980)">
        <g transform="translate(2.16,4.00) rotate(12.22) scale(0.960)">
        <g transform="translate(4.06,3.76) rotate(13.67) scale(0.940)" clip-path="url(#clipStar)">
        <g transform="translate(4.96,3.19) rotate(13.11) scale(0.920)">
        <g transform="translate(4.65,2.34) rotate(10.35) scale(0.900)">
        <g transform="translate(3.20,1.28) rotate(5.31) scale(0.880)">
        <rect x="-24.6" y="-24.6" width="49.3" height="49.3" rx="12.3" fill="url(#lgrad1)" filter="url(#shadow)" opacity="0.89"/>
        <circle cx="0" cy="0" r="16.4" fill="url(#rgrad2)" opacity="0.62"/>
      </g>
      </g>
      </g>
      </g>
      </g>
      </g>
      </g>
  </g>
  <g transform="translate(1447.1, 684.8)">
      <g transform="translate(2.16,3.61) rotate(4.88) scale(1.000)">
        <g transform="translate(4.06,2.94) rotate(9.14) scale(0.980)">
        <g transform="translate(4.96,2.00) rotate(12.22) scale(0.960)">
        <g transform="translate(4.65,0.89) rotate(13.67) scale(0.940)">
        <g transform="translate(3.20,-0.30) rotate(13.11) scale(0.920)">
        <g transform="translate(0.97,-1.47) rotate(10.35) scale(0.900)" mask="url(#maskStripes)">
        <g transform="translate(-1.50,-2.50) rotate(5.31) scale(0.880)">
        <path d="M23.6,13.6 L0.0,27.2 L-23.6,13.6 L-23.6,-13.6 L-0.0,-27.2 L23.6,-13.6Z" fill="url(#rgrad2)" filter="url(#blur2)" opacity="0.84"/>
        <ellipse cx="0" cy="0" rx="11.3" ry="7.6" fill="#FFFFFF" opacity="0.42"/>
      </g>
      </g>
      </g>
      </g>
      </g>
      </g>
      </g>
  </g>
  <g transform="translate(1657.7, 676.9)">
      <g transform="translate(4.96,0.50) rotate(4.88) scale(1.000)">
        <g transform="translate(4.65,-0.70) rotate(9.14) scale(0.980)">
        <g transform="translate(3.20,-1.83) rotate(12.22) scale(0.960)">
        <g transform="translate(0.97,-2.80) rotate(13.67) scale(0.940)">
        <g transform="translate(-1.50,-3.52) rotate(13.11) scale(0.920)">
        <g transform="translate(-3.60,-3.92) rotate(10.35) scale(0.900)">
        <g transform="translate(-4.82,-3.98) rotate(5.31) scale(0.880)">
        <circle cx="0" cy="0" r="27.5" fill="url(#rgrad3)" filter="url(#shadow)" opacity="0.77"/>
        <text x="0" y="5" text-anchor="middle" font-family="Arial, sans-serif" font-size="14" fill="#FFFFFF" opacity="0.77">570</text>
      </g>
      </g>
      </g>
      </g>
      </g>
      </g>
      </g>
  </g>
  <g transform="translate(103.9, 941.0)">
      <g transform="translate(3.20,-3.07) rotate(4.88) scale(1.000)">
        <g transform="translate(0.97,-3.69) rotate(9.14) scale(0.980)">
        <g transform="translate(-1.50,-3.98) rotate(12.22) scale(0.960)">
        <g transform="translate(-3.60,-3.92) rotate(13.67) scale(0.940)" clip-path="url(#clipDynamic)">
        <g transform="translate(-4.82,-3.50) rotate(13.11) scale(0.920)">
        <g transform="translate(-4.86,-2.77) rotate(10.35) scale(0.900)">
        <g transform="translate(-3.71,-1.80) rotate(5.31) scale(0.880)">
        <path d="M0.0,-69.2 L20.3,-28.0 L65.8,-21.4 L32.9,10.7 L40.6,55.9 L0.0,34.6 L-40.6,55.9 L-32.9,10.7 L-65.8,-21.4 L-20.3,-28.0Z" fill="url(#lgrad4)" filter="url(#blur4)" opacity="0.67"/>
      </g>
      </g>
      </g>
      </g>
      </g>
      </g>
      </g>
  </g>
  <g transform="translate(257.7, 227.5)" mask="url(#maskGradient)">
    <ellipse cx="0" cy="0" rx="200" ry="150" fill="url(#rgrad0)" filter="url(#blur3)" opacity="0.3"/>
  </g>
  <g transform="translate(700.9, 266.4)" mask="url(#maskCircleFade)">
    <ellipse cx="0" cy="0" rx="200" ry="150" fill="url(#rgrad1)" filter="url(#blur3)" opacity="0.3"/>
  </g>
  <g transform="translate(1235.2, 321.1)" mask="url(#maskStripes)">
    <ellipse cx="0" cy="0" rx="200" ry="150" fill="url(#rgrad2)" filter="url(#blur3)" opacity="0.3"/>
  </g>
</svg>