<?xml version="1.0" encoding="UTF-8"?>
<svg xmlns="http://www.w3.org/2000/svg" viewBox="0 0 1920 1080" width="1920" height="1080">
  <defs>
    <filter id="blur0" x="-50%" y="-50%" width="200%" height="200%">
      <feGaussianBlur in="SourceGraphic" stdDeviation="1"/>
    </filter>
    <filter id="blur1" x="-50%" y="-50%" width="200%" height="200%">
      <feGaussianBlur in="SourceGraphic" stdDeviation="3"/>
    </filter>
    <filter id="blur2" x="-50%" y="-50%" width="200%" height="200%">
      <feGaussianBlur in="SourceGraphic" stdDeviation="5"/>
    </filter>
    <filter id="blur3" x="-50%" y="-50%" width="200%" height="200%">
      <feGaussianBlur in="SourceGraphic" stdDeviation="7"/>
    </filter>
    <filter id="blur4" x="-50%" y="-50%" width="200%" height="200%">
      <feGaussianBlur in="SourceGraphic" stdDeviation="9"/>
    </filter>
    <filter id="shadow" x="-50%" y="-50%" width="200%" height="200%">
      <feGaussianBlur in="SourceAlpha" stdDeviation="3" result="blur"/>
      <feOffset in="blur" dx="4" dy="4" result="offsetBlur"/>
      <feMerge>
        <feMergeNode in="offsetBlur"/>
        <feMergeNode in="SourceGraphic"/>
      </feMerge>
    </filter>
    <linearGradient id="lgrad0" x1="0%" y1="0%" x2="45.2%" y2="99.8%">
      <stop offset="0%" stop-color="#FF6B6B"/>
      <stop offset="33%" stop-color="#4ECDC4"/>
      <stop offset="66%" stop-color="#45B7D1"/>
      <stop offset="100%" stop-color="#96E6A1"/>
    </linearGradient>
    <linearGradient id="lgrad1" x1="0%" y1="0%" x2="21.0%" y2="90.7%">
      <stop offset="0%" stop-color="#FFE66D"/>
      <stop offset="33%" stop-color="#FF6B6B"/>
      <stop offset="66%" stop-color="#C44D58"/>
      <stop offset="100%" stop-color="#8B0000"/>
    </linearGradient>
    <linearGradient id="lgrad2" x1="0%" y1="0%" x2="4.5%" y2="70.7%">
      <stop offset="0%" stop-color="#4169E1"/>
      <stop offset="33%" stop-color="#7B68EE"/>
      <stop offset="66%" stop-color="#9370DB"/>
      <stop offset="100%" stop-color="#FFD700"/>
    </linearGradient>
    <linearGradient id="lgrad3" x1="0%" y1="0%" x2="0.2%" y2="45.2%">
      <stop offset="0%" stop-color="#32CD32"/>
      <stop offset="33%" stop-color="#228B22"/>
      <stop offset="66%" stop-color="#006400"/>
      <stop offset="100%" stop-color="#ADFF2F"/>
    </linearGradient>
    <linearGradient id="lgrad4" x1="0%" y1="0%" x2="9.3%" y2="21.0%">
      <stop offset="0%" stop-color="#FF1493"/>
      <stop offset="33%" stop-color="#FF69B4"/>
      <stop offset="66%" stop-color="#FFB6C1"/>
      <stop offset="100%" stop-color="#FFC0CB"/>
    </linearGradient>
    <radialGradient id="rgrad0" cx="36.3%" cy="34.2%" r="60%">
      <stop offset="0%" stop-color="#FF6B6B" stop-opacity="1"/>
      <stop offset="50%" stop-color="#4ECDC4" stop-opacity="0.8"/>
      <stop offset="100%" stop-color="#45B7D1" stop-opacity="0.6"/>
    </radialGradient>
    <radialGradient id="rgrad1" cx="46.3%" cy="42.2%" r="60%">
      <stop offset="0%" stop-color="#FFE66D" stop-opacity="1"/>
      <stop offset="50%" stop-color="#FF6B6B" stop-opacity="0.8"/>
      <stop offset="100%" stop-color="#C44D58" stop-opacity="0.6"/>
    </radialGradient>
    <radialGradient id="rgrad2" cx="56.3%" cy="50.2%" r="60%">
      <stop offset="0%" stop-color="#4169E1" stop-opacity="1"/>
      <stop offset="50%" stop-color="#7B68EE" stop-opacity="0.8"/>
      <stop offset="100%" stop-color="#9370DB" stop-opacity="0.6"/>
    </radialGradient>
    <radialGradient id="rgrad3" cx="66.3%" cy="58.2%" r="60%">
      <stop offset="0%" stop-color="#32CD32" stop-opacity="1"/>
      <stop offset="50%" stop-color="#228B22" stop-opacity="0.8"/>
      <stop offset="100%" stop-color="#006400" stop-opacity="0.6"/>
    </radialGradient>
    <radialGradient id="rgrad4" cx="36.3%" cy="66.2%" r="60%">
      <stop offset="0%" stop-color="#FF1493" stop-opacity="1"/>
      <stop offset="50%" stop-color="#FF69B4" stop-opacity="0.8"/>
      <stop offset="100%" stop-color="#FFB6C1" stop-opacity="0.6"/>
    </radialGradient>
    <clipPath id="clipCircle">
      <circle cx="0" cy="0" r="50"/>
    </clipPath>
    <clipPath id="clipStar">
      <path d="M0.0,-50.0 L14.7,-20.2 L47.6,-15.5 L23.8,7.7 L29.4,40.5 L0.0,25.0 L-29.4,40.5 L-23.8,7.7 L-47.6,-15.5 L-14.7,-20.2Z"/>
    </clipPath>
    <clipPath id="clipHex">
      <path d="M39.0,22.5 L0.0,45.0 L-39.0,22.5 L-39.0,-22.5 L-0.0,-45.0 L39.0,-22.5Z"/>
    </clipPath>
    <clipPath id="clipRect">
      <rect x="-40" y="-30" width="80" height="60" rx="10"/>
    </clipPath>
    <clipPath id="clipDynamic">
      <circle cx="0" cy="0" r="21.5"/>
    </clipPath>
    <mask id="maskGradient" maskContentUnits="objectBoundingBox">
      <rect x="0" y="0" width="1" height="1" fill="url(#maskGrad)"/>
    </mask>
    <linearGradient id="maskGrad" x1="0%" y1="0%" x2="100%" y2="100%">
      <stop offset="0%" stop-color="white"/>
      <stop offset="100%" stop-color="black"/>
    </linearGradient>
    <mask id="maskCircleFade">
      <circle cx="0" cy="0" r="60" fill="white"/>
      <circle cx="0" cy="0" r="30" fill="black"/>
    </mask>
    <mask id="maskStripes">
      <rect x="-50" y="-50" width="100" height="100" fill="white"/>
      <rect x="-50" y="-40" width="100" height="10" fill="black"/>
      <rect x="-50" y="-20" width="100" height="10" fill="black"/>
      <rect x="-50" y="0" width="100" height="10" fill="black"/>
      <rect x="-50" y="20" width="100" height="10" fill="black"/>
      <rect x="-50" y="40" width="100" height="10" fill="black"/>
    </mask>
    <mask id="maskDynamic">
      <rect x="-60" y="-60" width="120" height="120" fill="white" fill-opacity="0.67"/>
      <circle cx="0" cy="0" r="25" fill="white"/>
    </mask>
  </defs>
  <rect width="1920" height="1080" fill="url(#lgrad0)"/>
  <g transform="translate(72.9, 110.8)">
      <g transform="translate(-4.51,1.72) rotate(2.67) scale(1.000)">
        <g transform="translate(-2.93,2.71) rotate(3.55) scale(0.980)">
        <g transform="translate(-0.63,3.46) rotate(2.43) scale(0.960)">
        <g transform="translate(1.83,3.90) rotate(-0.74) scale(0.940)" clip-path="url(#clipCircle)">
        <g transform="translate(3.84,3.99) rotate(-5.87) scale(0.920)">
        <g transform="translate(4.90,3.72) rotate(-12.70) scale(0.900)">
        <g transform="translate(4.77,3.12) rotate(-20.82) scale(0.880)">
        <path d="M0.0,-68.0 L20.0,-27.5 L64.7,-21.0 L32.3,10.5 L40.0,55.0 L0.0,34.0 L-40.0,55.0 L-32.3,10.5 L-64.7,-21.0 L-20.0,-27.5Z" fill="url(#lgrad0)" filter="url(#blur0)" opacity="0.71"/>
      </g>
      </g>
      </g>
      </g>
      </g>
      </g>
      </g>
  </g>
  <g transform="translate(302.4, 122.8)">
      <g transform="translate(-0.63,3.97) rotate(2.67) scale(1.000)">
        <g transform="translate(1.83,3.94) rotate(3.55) scale(0.980)">
        <g transform="translate(3.84,3.56) rotate(2.43) scale(0.960)">
        <g transform="translate(4.90,2.86) rotate(-0.74) scale(0.940)">
        <g transform="translate(4.77,1.91) rotate(-5.87) scale(0.920)">
        <g transform="translate(3.47,0.78) rotate(-12.70) scale(0.900)" mask="url(#maskCircleFade)">
        <g transform="translate(1.32,-0.41) rotate(-20.82) scale(0.880)">
        <rect x="-26.8" y="-26.8" width="53.7" height="53.7" rx="13.4" fill="url(#rgrad1)" filter="url(#shadow)" opacity="0.60"/>
        <circle cx="0" cy="0" r="17.9" fill="url(#rgrad2)" opacity="0.42"/>
      </g>
      </g>
      </g>
      </g>
      </g>
      </g>
      </g>
  </g>
  <g transform="translate(536.2, 124.1)">
      <g transform="translate(3.84,2.57) rotate(2.67) scale(1.000)">
        <g transform="translate(4.90,1.55) rotate(3.55) scale(0.980)">
        <g transform="translate(4.77,0.39) rotate(2.43) scale(0.960)">
        <g transform="translate(3.47,-0.81) rotate(-0.74) scale(0.940)">
        <g transform="translate(1.32,-1.93) rotate(-5.87) scale(0.920)">
        <g transform="translate(-1.15,-2.88) rotate(-12.70) scale(0.900)">
        <g transform="translate(-3.34,-3.57) rotate(-20.82) scale(0.880)">
        <path d="M23.5,13.5 L0.0,27.1 L-23.5,13.5 L-23.5,-13.5 L-0.0,-27.1 L23.5,-13.5Z" fill="url(#rgrad2)" filter="url(#blur2)" opacity="0.49"/>
        <ellipse cx="0" cy="0" rx="11.3" ry="7.5" fill="#FFFFFF" opacity="0.24"/>
      </g>
      </g>
      </g>
      </g>
      </g>
      </g>
      </g>
  </g>
  <g transform="translate(771.0, 114.0)">
      <g transform="translate(4.77,-1.20) rotate(2.67) scale(1.000)">
        <g transform="translate(3.47,-2.27) rotate(3.55) scale(0.980)">
        <g transform="translate(1.32,-3.14) rotate(2.43) scale(0.960)">
        <g transform="translate(-1.15,-3.73) rotate(-0.74) scale(0.940)" clip-path="url(#clipRect)">
        <g transform="translate(-3.34,-3.99) rotate(-5.87) scale(0.920)">
        <g transform="translate(-4.72,-3.89) rotate(-12.70) scale(0.900)">
        <g transform="translate(-4.93,-3.45) rotate(-20.82) scale(0.880)">
        <circle cx="0" cy="0" r="25.1" fill="url(#lgrad3)" filter="url(#shadow)" opacity="0.37"/>
        <text x="0" y="5" text-anchor="middle" font-family="Arial, sans-serif" font-size="14" fill="#FFFFFF" opacity="0.37">821</text>
      </g>
      </g>
      </g>
      </g>
      </g>
      </g>
      </g>
  </g>
  <g transform="translate(1003.0, 97.4)">
      <g transform="translate(1.32,-3.86) rotate(2.67) scale(1.000)">
        <g transform="translate(-1.15,-4.00) rotate(3.55) scale(0.980)">
        <g transform="translate(-3.34,-3.78) rotate(2.43) scale(0.960)">
        <g transform="translate(-4.72,-3.23) rotate(-0.74) scale(0.940)">
        <g transform="translate(-4.93,-2.38) rotate(-5.87) scale(0.920)">
        <g transform="translate(-3.94,-1.33) rotate(-12.70) scale(0.900)" mask="url(#maskGradient)">
        <g transform="translate(-1.99,-0.15) rotate(-20.82) scale(0.880)">
        <path d="M0.0,-64.4 L18.9,-26.0 L61.2,-19.9 L30.6,9.9 L37.8,52.1 L0.0,32.2 L-37.8,52.1 L-30.6,9.9 L-61.2,-19.9 L-18.9,-26.0Z" fill="url(#rgrad4)" filter="url(#blur4)" opacity="0.26"/>
      </g>
      </g>
      </g>
      </g>
      </g>
      </g>
      </g>
  </g>
  <g transform="translate(1229.4, 82.0)">
      <g transform="translate(-3.34,-2.97) rotate(2.67) scale(1.000)">
        <g transform="translate(-4.72,-2.05) rotate(3.55) scale(0.980)">
        <g transform="translate(-4.93,-0.94) rotate(2.43) scale(0.960)">
        <g transform="translate(-3.94,0.25) rotate(-0.74) scale(0.940)">
        <g transform="translate(-1.99,1.42) rotate(-5.87) scale(0.920)">
        <g transform="translate(0.45,2.46) rotate(-12.70) scale(0.900)">
        <g transform="translate(2.79,3.28) rotate(-20.82) scale(0.880)">
        <rect x="-37.2" y="-37.2" width="74.4" height="74.4" rx="18.6" fill="url(#rgrad0)" filter="url(#shadow)" opacity="0.18"/>
        <circle cx="0" cy="0" r="24.8" fill="url(#rgrad1)" opacity="0.12"/>
      </g>
      </g>
      </g>
      </g>
      </g>
      </g>
      </g>
  </g>
  <g transform="translate(1448.6, 75.1)">
      <g transform="translate(-4.93,0.64) rotate(2.67) scale(1.000)">
        <g transform="translate(-3.94,1.78) rotate(3.55) scale(0.980)">
        <g transform="translate(-1.99,2.76) rotate(2.43) scale(0.960)">
        <g transform="translate(0.45,3.49) rotate(-0.74) scale(0.940)" clip-path="url(#clipStar)">
        <g transform="translate(2.79,3.91) rotate(-5.87) scale(0.920)">
        <g transform="translate(4.44,3.98) rotate(-12.70) scale(0.900)">
        <g transform="translate(5.00,3.70) rotate(-20.82) scale(0.880)">
        <path d="M37.0,21.4 L0.0,42.7 L-37.0,21.4 L-37.0,-21.4 L-0.0,-42.7 L37.0,-21.4Z" fill="url(#lgrad1)" filter="url(#blur1)" opacity="0.12"/>
        <ellipse cx="0" cy="0" rx="17.8" ry="11.9" fill="#FFFFFF" opacity="0.06"/>
      </g>
      </g>
      </g>
      </g>
      </g>
      </g>
      </g>
  </g>
  <g transform="translate(1660.8, 79.8)">
      <g transform="translate(-1.99,3.67) rotate(2.67) scale(1.000)">
        <g transform="translate(0.45,3.98) rotate(3.55) scale(0.980)">
        <g transform="translate(2.79,3.93) rotate(2.43) scale(0.960)">
        <g transform="translate(4.44,3.53) rotate(-0.74) scale(0.940)">
        <g transform="translate(5.00,2.81) rotate(-5.87) scale(0.920)">
        <g transform="translate(4.34,1.85) rotate(-12.70) scale(0.900)" mask="url(#maskDynamic)">
        <g transform="translate(2.62,0.72) rotate(-20.82) scale(0.880)">
        <circle cx="0" cy="0" r="28.9" fill="url(#rgrad2)" filter="url(#shadow)" opacity="0.10"/>
        <text x="0" y="5" text-anchor="middle" font-family="Arial, sans-serif" font-size="14" fill="#FFFFFF" opacity="0.10">821</text>
      </g>
      </g>
      </g>
      </g>
      </g>
      </g>
      </g>
  </g>
  <g transform="translate(107.9, 374.1)">
      <g transform="translate(2.79,3.32) rotate(2.67) scale(1.000)">
        <g transform="translate(4.44,2.51) rotate(3.55) scale(0.980)">
        <g transform="translate(5.00,1.48) rotate(2.43) scale(0.960)">
        <g transform="translate(4.34,0.32) rotate(-0.74) scale(0.940)">
        <g transform="translate(2.62,-0.87) rotate(-5.87) scale(0.920)">
        <g transform="translate(0.25,-1.99) rotate(-12.70) scale(0.900)">
        <g transform="translate(-2.17,-2.93) rotate(-20.82) scale(0.880)">
        <path d="M0.0,-46.3 L13.6,-18.7 L44.0,-14.3 L22.0,7.2 L27.2,37.4 L0.0,23.1 L-27.2,37.4 L-22.0,7.2 L-44.0,-14.3 L-13.6,-18.7Z" fill="url(#rgrad3)" filter="url(#blur3)" opacity="0.11"/>
      </g>
      </g>
      </g>
      </g>
      </g>
      </g>
      </g>
  </g>
  <g transform="translate(313.1, 391.1)">
      <g transform="translate(5.00,-0.08) rotate(2.67) scale(1.000)">
        <g transform="translate(4.34,-1.26) rotate(3.55) scale(0.980)">
        <g transform="translate(2.62,-2.32) rotate(2.43) scale(0.960)">
        <g transform="translate(0.25,-3.18) rotate(-0.74) scale(0.940)" clip-path="url(#clipDynamic)">
        <g transform="translate(-2.17,-3.76) rotate(-5.87) scale(0.920)">
        <g transform="translate(-4.07,-3.99) rotate(-12.70) scale(0.900)">
        <g transform="translate(-4.96,-3.88) rotate(-20.82) scale(0.880)">
        <rect x="-23.7" y="-23.7" width="47.5" height="47.5" rx="11.9" fill="url(#lgrad4)" filter="url(#shadow)" opacity="0.16"/>
        <circle cx="0" cy="0" r="15.8" fill="url(#rgrad0)" opacity="0.11"/>
      </g>
      </g>
      </g>
      </g>
      </g>
      </g>
      </g>
  </g>
  <g transform="translate(519.9, 402.9)">
      <g transform="translate(2.62,-3.41) rotate(2.67) scale(1.000)">
        <g transform="translate(0.25,-3.88) rotate(3.55) scale(0.980)">
        <g transform="translate(-2.17,-4.00) rotate(2.43) scale(0.960)">
        <g transform="translate(-4.07,-3.76) rotate(-0.74) scale(0.940)">
        <g transform="translate(-4.96,-3.19) rotate(-5.87) scale(0.920)">
        <g transform="translate(-4.65,-2.33) rotate(-12.70) scale(0.900)" mask="url(#maskStripes)">
        <g transform="translate(-3.19,-1.26) rotate(-20.82) scale(0.880)">
        <path d="M31.3,18.1 L0.0,36.1 L-31.3,18.1 L-31.3,-18.1 L-0.0,-36.1 L31.3,-18.1Z" fill="url(#rgrad0)" filter="url(#blur0)" opacity="0.24"/>
        <ellipse cx="0" cy="0" rx="15.0" ry="10.0" fill="#FFFFFF" opacity="0.12"/>
      </g>
      </g>
      </g>
      </g>
      </g>
      </g>
      </g>
  </g>
  <g transform="translate(731.7, 403.9)">
      <g transform="translate(-2.17,-3.60) rotate(2.67) scale(1.000)">
        <g transform="translate(-4.07,-2.93) rotate(3.55) scale(0.980)">
        <g transform="translate(-4.96,-1.99) rotate(2.43) scale(0.960)">
        <g transform="translate(-4.65,-0.88) rotate(-0.74) scale(0.940)">
        <g transform="translate(-3.19,0.31) rotate(-5.87) scale(0.920)">
        <g transform="translate(-0.96,1.48) rotate(-12.70) scale(0.900)">
        <g transform="translate(1.51,2.51) rotate(-20.82) scale(0.880)">
        <circle cx="0" cy="0" r="36.4" fill="url(#rgrad1)" filter="url(#shadow)" opacity="0.34"/>
        <text x="0" y="5" text-anchor="middle" font-family="Arial, sans-serif" font-size="14" fill="#FFFFFF" opacity="0.34">821</text>
      </g>
      </g>
      </g>
      </g>
      </g>
      </g>
      </g>
  </g>
  <g transform="translate(950.4, 393.7)">
      <g transform="translate(-4.96,-0.48) rotate(2.67) scale(1.000)">
        <g transform="translate(-4.65,0.71) rotate(3.55) scale(0.980)">
        <g transform="translate(-3.19,1.84) rotate(2.43) scale(0.960)">
        <g transform="translate(-0.96,2.81) rotate(-0.74) scale(0.940)" clip-path="url(#clipHex)">
        <g transform="translate(1.51,3.53) rotate(-5.87) scale(0.920)">
        <g transform="translate(3.61,3.93) rotate(-12.70) scale(0.900)">
        <g transform="translate(4.83,3.98) rotate(-20.82) scale(0.880)">
        <path d="M0.0,-73.6 L21.6,-29.8 L70.0,-22.7 L35.0,11.4 L43.2,59.5 L0.0,36.8 L-43.2,59.5 L-35.0,11.4 L-70.0,-22.7 L-21.6,-29.8Z" fill="url(#lgrad2)" filter="url(#blur2)" opacity="0.46"/>
      </g>
      </g>
      </g>
      </g>
      </g>
      </g>
      </g>
  </g>
  <g transform="translate(1176.3, 377.0)">
      <g transform="translate(-3.19,3.08) rotate(2.67) scale(1.000)">
        <g transform="translate(-0.96,3.70) rotate(3.55) scale(0.980)">
        <g transform="translate(1.51,3.98) rotate(2.43) scale(0.960)">
        <g transform="translate(3.61,3.91) rotate(-0.74) scale(0.940)">
        <g transform="translate(4.83,3.50) rotate(-5.87) scale(0.920)">
        <g transform="translate(4.86,2.76) rotate(-12.70) scale(0.900)" mask="url(#maskCircleFade)">
        <g transform="translate(3.70,1.79) rotate(-20.82) scale(0.880)">
        <rect x="-31.0" y="-31.0" width="61.9" height="61.9" rx="15.5" fill="url(#rgrad3)" filter="url(#shadow)" opacity="0.58"/>
        <circle cx="0" cy="0" r="20.6" fill="url(#rgrad4)" opacity="0.40"/>
      </g>
      </g>
      </g>
      </g>
      </g>
      </g>
      </g>
  </g>
  <g transform="translate(1408.1, 361.7)">
      <g transform="translate(1.51,3.81) rotate(2.67) scale(1.000)">
        <g transform="translate(3.61,3.28) rotate(3.55) scale(0.980)">
        <g transform="translate(4.83,2.46) rotate(2.43) scale(0.960)">
        <g transform="translate(4.86,1.42) rotate(-0.74) scale(0.940)">
        <g transform="translate(3.70,0.25) rotate(-5.87) scale(0.920)">
        <g transform="translate(1.64,-0.94) rotate(-12.70) scale(0.900)">
        <g transform="translate(-0.83,-2.05) rotate(-20.82) scale(0.880)">
        <path d="M25.2,14.6 L0.0,29.1 L-25.2,14.6 L-25.2,-14.6 L-0.0,-29.1 L25.2,-14.6Z" fill="url(#rgrad4)" filter="url(#blur4)" opacity="0.69"/>
        <ellipse cx="0" cy="0" rx="12.1" ry="8.1" fill="#FFFFFF" opacity="0.35"/>
      </g>
      </g>
      </g>
      </g>
      </g>
      </g>
      </g>
  </g>
  <g transform="translate(1642.7, 355.0)">
      <g transform="translate(4.83,1.04) rotate(2.67) scale(1.000)">
        <g transform="translate(4.86,-0.15) rotate(3.55) scale(0.980)">
        <g transform="translate(3.70,-1.32) rotate(2.43) scale(0.960)">
        <g transform="translate(1.64,-2.38) rotate(-0.74) scale(0.940)" clip-path="url(#clipCircle)">
        <g transform="translate(-0.83,-3.22) rotate(-5.87) scale(0.920)">
        <g transform="translate(-3.09,-3.78) rotate(-12.70) scale(0.900)">
        <g transform="translate(-4.60,-4.00) rotate(-20.82) scale(0.880)">
        <circle cx="0" cy="0" r="22.8" fill="url(#lgrad0)" filter="url(#shadow)" opacity="0.79"/>
        <text x="0" y="5" text-anchor="middle" font-family="Arial, sans-serif" font-size="14" fill="#FFFFFF" opacity="0.79">821</text>
      </g>
      </g>
      </g>
      </g>
      </g>
      </g>
      </g>
  </g>
  <g transform="translate(116.7, 640.1)">
      <g transform="translate(3.70,-2.69) rotate(2.67) scale(1.000)">
        <g transform="translate(1.64,-3.44) rotate(3.55) scale(0.980)">
        <g transform="translate(-0.83,-3.89) rotate(2.43) scale(0.960)">
        <g transform="translate(-3.09,-3.99) rotate(-0.74) scale(0.940)">
        <g transform="translate(-4.60,-3.73) rotate(-5.87) scale(0.920)">
        <g transform="translate(-4.98,-3.14) rotate(-12.70) scale(0.900)" mask="url(#maskGradient)">
        <g transform="translate(-4.14,-2.27) rotate(-20.82) scale(0.880)">
        <path d="M0.0,-56.0 L16.5,-22.6 L53.2,-17.3 L26.6,8.7 L32.9,45.3 L0.0,28.0 L-32.9,45.3 L-26.6,8.7 L-53.2,-17.3 L-16.5,-22.6Z" fill="url(#rgrad1)" filter="url(#blur1)" opacity="0.86"/>
      </g>
      </g>
      </g>
      </g>
      </g>
      </g>
      </g>
  </g>
  <g transform="translate(346.6, 654.5)">
      <g transform="translate(-0.83,-3.94) rotate(2.67) scale(1.000)">
        <g transform="translate(-3.09,-3.57) rotate(3.55) scale(0.980)">
        <g transform="translate(-4.60,-2.88) rotate(2.43) scale(0.960)">
        <g transform="translate(-4.98,-1.93) rotate(-0.74) scale(0.940)">
        <g transform="translate(-4.14,-0.81) rotate(-5.87) scale(0.920)">
        <g transform="translate(-2.29,0.38) rotate(-12.70) scale(0.900)">
        <g transform="translate(0.12,1.54) rotate(-20.82) scale(0.880)">
        <rect x="-35.0" y="-35.0" width="70.0" height="70.0" rx="17.5" fill="url(#rgrad2)" filter="url(#shadow)" opacity="0.89"/>
        <circle cx="0" cy="0" r="23.3" fill="url(#rgrad3)" opacity="0.63"/>
      </g>
      </g>
      </g>
      </g>
      </g>
      </g>
      </g>
  </g>
  <g transform="translate(570.0, 671.5)">
      <g transform="translate(-4.60,-1.57) rotate(2.67) scale(1.000)">
        <g transform="translate(-4.98,-0.42) rotate(3.55) scale(0.980)">
        <g transform="translate(-4.14,0.78) rotate(2.43) scale(0.960)">
        <g transform="translate(-2.29,1.90) rotate(-0.74) scale(0.940)" clip-path="url(#clipRect)">
        <g transform="translate(0.12,2.86) rotate(-5.87) scale(0.920)">
        <g transform="translate(2.50,3.56) rotate(-12.70) scale(0.900)">
        <g transform="translate(4.27,3.94) rotate(-20.82) scale(0.880)">
        <path d="M38.9,22.4 L0.0,44.9 L-38.9,22.4 L-38.9,-22.4 L-0.0,-44.9 L38.9,-22.4Z" fill="url(#lgrad3)" filter="url(#blur3)" opacity="0.90"/>
        <ellipse cx="0" cy="0" rx="18.7" ry="12.5" fill="#FFFFFF" opacity="0.45"/>
      </g>
      </g>
      </g>
      </g>
      </g>
      </g>
      </g>
  </g>
  <g transform="translate(786.0, 683.1)">
      <g transform="translate(-4.14,2.24) rotate(2.67) scale(1.000)">
        <g transform="translate(-2.29,3.12) rotate(3.55) scale(0.980)">
        <g transform="translate(0.12,3.72) rotate(2.43) scale(0.960)">
        <g transform="translate(2.50,3.99) rotate(-0.74) scale(0.940)">
        <g transform="translate(4.27,3.90) rotate(-5.87) scale(0.920)">
        <g transform="translate(4.99,3.46) rotate(-12.70) scale(0.900)" mask="url(#maskDynamic)">
        <g transform="translate(4.49,2.72) rotate(-20.82) scale(0.880)">
        <circle cx="0" cy="0" r="33.0" fill="url(#rgrad4)" filter="url(#shadow)" opacity="0.86"/>
        <text x="0" y="5" text-anchor="middle" font-family="Arial, sans-serif" font-size="14" fill="#FFFFFF" opacity="0.86">821</text>
      </g>
      </g>
      </g>
      </g>
      </g>
      </g>
      </g>
  </g>
  <g transform="translate(995.7, 683.8)">
      <g transform="translate(0.12,4.00) rotate(2.67) scale(1.000)">
        <g transform="translate(2.50,3.79) rotate(3.55) scale(0.980)">
        <g transform="translate(4.27,3.24) rotate(2.43) scale(0.960)">
        <g transform="translate(4.99,2.41) rotate(-0.74) scale(0.940)">
        <g transform="translate(4.49,1.36) rotate(-5.87) scale(0.920)">
        <g transform="translate(2.89,0.18) rotate(-12.70) scale(0.900)">
        <g transform="translate(0.58,-1.00) rotate(-20.82) scale(0.880)">
        <path d="M0.0,-51.7 L15.2,-20.9 L49.2,-16.0 L24.6,8.0 L30.4,41.8 L0.0,25.8 L-30.4,41.8 L-24.6,8.0 L-49.2,-16.0 L-15.2,-20.9Z" fill="url(#rgrad0)" filter="url(#blur0)" opacity="0.80"/>
      </g>
      </g>
      </g>
      </g>
      </g>
      </g>
      </g>
  </g>
  <g transform="translate(1201.5, 673.3)">
      <g transform="translate(4.27,2.08) rotate(2.67) scale(1.000)">
        <g transform="translate(4.99,0.97) rotate(3.55) scale(0.980)">
        <g transform="translate(4.49,-0.22) rotate(2.43) scale(0.960)">
        <g transform="translate(2.89,-1.39) rotate(-0.74) scale(0.940)" clip-path="url(#clipStar)">
        <g transform="translate(0.58,-2.43) rotate(-5.87) scale(0.920)">
        <g transform="translate(-1.87,-3.26) rotate(-12.70) scale(0.900)">
        <g transform="translate(-3.86,-3.80) rotate(-20.82) scale(0.880)">
        <rect x="-22.5" y="-22.5" width="45.0" height="45.0" rx="11.3" fill="url(#lgrad1)" filter="url(#shadow)" opacity="0.71"/>
        <circle cx="0" cy="0" r="15.0" fill="url(#rgrad2)" opacity="0.50"/>
      </g>
      </g>
      </g>
      </g>
      </g>
      </g>
      </g>
  </g>
  <g transform="translate(1407.0, 656.6)">
      <g transform="translate(4.49,-1.75) rotate(2.67) scale(1.000)">
        <g transform="translate(2.89,-2.74) rotate(3.55) scale(0.980)">
        <g transform="translate(0.58,-3.48) rotate(2.43) scale(0.960)">
        <g transform="translate(-1.87,-3.91) rotate(-0.74) scale(0.940)">
        <g transform="translate(-3.86,-3.99) rotate(-5.87) scale(0.920)">
        <g transform="translate(-4.91,-3.71) rotate(-12.70) scale(0.900)" mask="url(#maskStripes)">
        <g transform="translate(-4.76,-3.10) rotate(-20.82) scale(0.880)">
        <path d="M27.1,15.6 L0.0,31.3 L-27.1,15.6 L-27.1,-15.6 L-0.0,-31.3 L27.1,-15.6Z" fill="url(#rgrad2)" filter="url(#blur2)" opacity="0.60"/>
        <ellipse cx="0" cy="0" rx="13.0" ry="8.7" fill="#FFFFFF" opacity="0.30"/>
      </g>
      </g>
      </g>
      </g>
      </g>
      </g>
      </g>
  </g>
  <g transform="translate(1615.6, 641.4)">
      <g transform="translate(0.58,-3.97) rotate(2.67) scale(1.000)">
        <g transform="translate(-1.87,-3.93) rotate(3.55) scale(0.980)">
        <g transform="translate(-3.86,-3.54) rotate(2.43) scale(0.960)">
        <g transform="translate(-4.91,-2.84) rotate(-0.74) scale(0.940)">
        <g transform="translate(-4.76,-1.87) rotate(-5.87) scale(0.920)">
        <g transform="translate(-3.44,-0.75) rotate(-12.70) scale(0.900)">
        <g transform="translate(-1.28,0.45) rotate(-20.82) scale(0.880)">
        <circle cx="0" cy="0" r="33.2" fill="url(#rgrad3)" filter="url(#shadow)" opacity="0.48"/>
        <text x="0" y="5" text-anchor="middle" font-family="Arial, sans-serif" font-size="14" fill="#FFFFFF" opacity="0.48">821</text>
      </g>
      </g>
      </g>
      </g>
      </g>
      </g>
      </g>
  </g>
  <g transform="translate(70.2, 915.0)">
      <g transform="translate(-3.86,-2.54) rotate(2.67) scale(1.000)">
        <g transform="translate(-4.91,-1.51) rotate(3.55) scale(0.980)">
        <g transform="translate(-4.76,-0.35) rotate(2.43) scale(0.960)">
        <g transform="translate(-3.44,0.84) rotate(-0.74) scale(0.940)" clip-path="url(#clipDynamic)">
        <g transform="translate(-1.28,1.96) rotate(-5.87) scale(0.920)">
        <g transform="translate(1.20,2.90) rotate(-12.70) scale(0.900)">
        <g transform="translate(3.38,3.59) rotate(-20.82) scale(0.880)">
        <path d="M0.0,-74.9 L22.0,-30.3 L71.2,-23.1 L35.6,11.6 L44.0,60.6 L0.0,37.4 L-44.0,60.6 L-35.6,11.6 L-71.2,-23.1 L-22.0,-30.3Z" fill="url(#lgrad4)" filter="url(#blur4)" opacity="0.36"/>
      </g>
      </g>
      </g>
      </g>
      </g>
      </g>
      </g>
  </g>
  <g transform="translate(209.7, 334.4)" mask="url(#maskGradient)">
    <ellipse cx="0" cy="0" rx="200" ry="150" fill="url(#rgrad0)" filter="url(#blur3)" opacity="0.3"/>
  </g>
  <g transform="translate(787.5, 372.9)" mask="url(#maskCircleFade)">
    <ellipse cx="0" cy="0" rx="200" ry="150" fill="url(#rgrad1)" filter="url(#blur3)" opacity="0.3"/>
  </g>
  <g transform="translate(1376.7, 377.0)" mask="url(#maskStripes)">
    <ellipse cx="0" cy="0" rx="200" ry="150" fill="url(#rgrad2)" filter="url(#blur3)" opacity="0.3"/>
  </g>
</svg>