<?xml version="1.0" encoding="UTF-8"?>
<svg xmlns="http://www.w3.org/2000/svg" viewBox="0 0 1920 1080" width="1920" height="1080">
  <defs>
    <filter id="blur0" x="-50%" y="-50%" width="200%" height="200%">
      <feGaussianBlur in="SourceGraphic" stdDeviation="1"/>
    </filter>
    <filter id="blur1" x="-50%" y="-50%" width="200%" height="200%">
      <feGaussianBlur in="SourceGraphic" stdDeviation="3"/>
    </filter>
    <filter id="blur2" x="-50%" y="-50%" width="200%" height="200%">
      <feGaussianBlur in="SourceGraphic" stdDeviation="5"/>
    </filter>
    <filter id="blur3" x="-50%" y="-50%" width="200%" height="200%">
      <feGaussianBlur in="SourceGraphic" stdDeviation="7"/>
    </filter>
    <filter id="blur4" x="-50%" y="-50%" width="200%" height="200%">
      <feGaussianBlur in="SourceGraphic" stdDeviation="9"/>
    </filter>
    <filter id="shadow" x="-50%" y="-50%" width="200%" height="200%">
      <feGaussianBlur in="SourceAlpha" stdDeviation="3" result="blur"/>
      <feOffset in="blur" dx="4" dy="4" result="offsetBlur"/>
      <feMerge>
        <feMergeNode in="offsetBlur"/>
        <feMergeNode in="SourceGraphic"/>
      </feMerge>
    </filter>
    <linearGradient id="lgrad0" x1="0%" y1="0%" x2="55.2%" y2="0.3%">
      <stop offset="0%" stop-color="#FF6B6B"/>
      <stop offset="33%" stop-color="#4ECDC4"/>
      <stop offset="66%" stop-color="#45B7D1"/>
      <stop offset="100%" stop-color="#96E6A1"/>
    </linearGradient>
    <linearGradient id="lgrad1" x1="0%" y1="0%" x2="79.4%" y2="9.5%">
      <stop offset="0%" stop-color="#FFE66D"/>
      <stop offset="33%" stop-color="#FF6B6B"/>
      <stop offset="66%" stop-color="#C44D58"/>
      <stop offset="100%" stop-color="#8B0000"/>
    </linearGradient>
    <linearGradient id="lgrad2" x1="0%" y1="0%" x2="95.7%" y2="29.7%">
      <stop offset="0%" stop-color="#4169E1"/>
      <stop offset="33%" stop-color="#7B68EE"/>
      <stop offset="66%" stop-color="#9370DB"/>
      <stop offset="100%" stop-color="#FFD700"/>
    </linearGradient>
    <linearGradient id="lgrad3" x1="0%" y1="0%" x2="99.7%" y2="55.2%">
      <stop offset="0%" stop-color="#32CD32"/>
      <stop offset="33%" stop-color="#228B22"/>
      <stop offset="66%" stop-color="#006400"/>
      <stop offset="100%" stop-color="#ADFF2F"/>
    </linearGradient>
    <linearGradient id="lgrad4" x1="0%" y1="0%" x2="90.5%" y2="79.4%">
      <stop offset="0%" stop-color="#FF1493"/>
      <stop offset="33%" stop-color="#FF69B4"/>
      <stop offset="66%" stop-color="#FFB6C1"/>
      <stop offset="100%" stop-color="#FFC0CB"/>
    </linearGradient>
    <radialGradient id="rgrad0" cx="48.6%" cy="42.4%" r="60%">
      <stop offset="0%" stop-color="#FF6B6B" stop-opacity="1"/>
      <stop offset="50%" stop-color="#4ECDC4" stop-opacity="0.8"/>
      <stop offset="100%" stop-color="#45B7D1" stop-opacity="0.6"/>
    </radialGradient>
    <radialGradient id="rgrad1" cx="58.6%" cy="50.4%" r="60%">
      <stop offset="0%" stop-color="#FFE66D" stop-opacity="1"/>
      <stop offset="50%" stop-color="#FF6B6B" stop-opacity="0.8"/>
      <stop offset="100%" stop-color="#C44D58" stop-opacity="0.6"/>
    </radialGradient>
    <radialGradient id="rgrad2" cx="68.6%" cy="58.4%" r="60%">
      <stop offset="0%" stop-color="#4169E1" stop-opacity="1"/>
      <stop offset="50%" stop-color="#7B68EE" stop-opacity="0.8"/>
      <stop offset="100%" stop-color="#9370DB" stop-opacity="0.6"/>
    </radialGradient>
    <radialGradient id="rgrad3" cx="38.6%" cy="66.4%" r="60%">
      <stop offset="0%" stop-color="#32CD32" stop-opacity="1"/>
      <stop offset="50%" stop-color="#228B22" stop-opacity="0.8"/>
      <stop offset="100%" stop-color="#006400" stop-opacity="0.6"/>
    </radialGradient>
    <radialGradient id="rgrad4" cx="48.6%" cy="34.4%" r="60%">
      <stop offset="0%" stop-color="#FF1493" stop-opacity="1"/>
      <stop offset="50%" stop-color="#FF69B4" stop-opacity="0.8"/>
      <stop offset="100%" stop-color="#FFB6C1" stop-opacity="0.6"/>
    </radialGradient>
    <clipPath id="clipCircle">
      <circle cx="0" cy="0" r="50"/>
    </clipPath>
    <clipPath id="clipStar">
      <path d="M0.0,-50.0 L14.7,-20.2 L47.6,-15.5 L23.8,7.7 L29.4,40.5 L0.0,25.0 L-29.4,40.5 L-23.8,7.7 L-47.6,-15.5 L-14.7,-20.2Z"/>
    </clipPath>
    <clipPath id="clipHex">
      <path d="M39.0,22.5 L0.0,45.0 L-39.0,22.5 L-39.0,-22.5 L-0.0,-45.0 L39.0,-22.5Z"/>
    </clipPath>
    <clipPath id="clipRect">
      <rect x="-40" y="-30" width="80" height="60" rx="10"/>
    </clipPath>
    <clipPath id="clipDynamic">
      <circle cx="0" cy="0" r="38.6"/>
    </clipPath>
    <mask id="maskGradient" maskContentUnits="objectBoundingBox">
      <rect x="0" y="0" width="1" height="1" fill="url(#maskGrad)"/>
    </mask>
    <linearGradient id="maskGrad" x1="0%" y1="0%" x2="100%" y2="100%">
      <stop offset="0%" stop-color="white"/>
      <stop offset="100%" stop-color="black"/>
    </linearGradient>
    <mask id="maskCircleFade">
      <circle cx="0" cy="0" r="60" fill="white"/>
      <circle cx="0" cy="0" r="30" fill="black"/>
    </mask>
    <mask id="maskStripes">
      <rect x="-50" y="-50" width="100" height="100" fill="white"/>
      <rect x="-50" y="-40" width="100" height="10" fill="black"/>
      <rect x="-50" y="-20" width="100" height="10" fill="black"/>
      <rect x="-50" y="0" width="100" height="10" fill="black"/>
      <rect x="-50" y="20" width="100" height="10" fill="black"/>
      <rect x="-50" y="40" width="100" height="10" fill="black"/>
    </mask>
    <mask id="maskDynamic">
      <rect x="-60" y="-60" width="120" height="120" fill="white" fill-opacity="0.99"/>
      <circle cx="0" cy="0" r="25" fill="white"/>
    </mask>
  </defs>
  <rect width="1920" height="1080" fill="url(#lgrad0)"/>
  <g transform="translate(107.2, 75.7)">
      <g transform="translate(1.20,-3.88) rotate(4.96) scale(1.000)">
        <g transform="translate(-1.28,-3.99) rotate(9.97) scale(0.980)">
        <g transform="translate(-3.44,-3.75) rotate(14.42) scale(0.960)">
        <g transform="translate(-4.76,-3.17) rotate(17.75) scale(0.940)" clip-path="url(#clipCircle)">
        <g transform="translate(-4.91,-2.30) rotate(19.46) scale(0.920)">
        <g transform="translate(-3.87,-1.23) rotate(19.14) scale(0.900)">
        <g transform="translate(-1.87,-0.05) rotate(16.53) scale(0.880)">
        <path d="M0.0,-74.9 L22.0,-30.3 L71.2,-23.1 L35.6,11.6 L44.0,60.6 L0.0,37.4 L-44.0,60.6 L-35.6,11.6 L-71.2,-23.1 L-22.0,-30.3Z" fill="url(#lgrad0)" filter="url(#blur0)" opacity="0.90"/>
      </g>
      </g>
      </g>
      </g>
      </g>
      </g>
      </g>
  </g>
  <g transform="translate(312.3, 77.6)">
      <g transform="translate(-3.44,-2.91) rotate(4.96) scale(1.000)">
        <g transform="translate(-4.76,-1.96) rotate(9.97) scale(0.980)">
        <g transform="translate(-4.91,-0.85) rotate(14.42) scale(0.960)">
        <g transform="translate(-3.87,0.35) rotate(17.75) scale(0.940)">
        <g transform="translate(-1.87,1.51) rotate(19.46) scale(0.920)">
        <g transform="translate(0.58,2.54) rotate(19.14) scale(0.900)" mask="url(#maskCircleFade)">
        <g transform="translate(2.89,3.34) rotate(16.53) scale(0.880)">
        <rect x="-34.8" y="-34.8" width="69.6" height="69.6" rx="17.4" fill="url(#rgrad1)" filter="url(#shadow)" opacity="0.89"/>
        <circle cx="0" cy="0" r="23.2" fill="url(#rgrad2)" opacity="0.63"/>
      </g>
      </g>
      </g>
      </g>
      </g>
      </g>
      </g>
  </g>
  <g transform="translate(519.4, 90.0)">
      <g transform="translate(-4.91,0.74) rotate(4.96) scale(1.000)">
        <g transform="translate(-3.87,1.87) rotate(9.97) scale(0.980)">
        <g transform="translate(-1.87,2.83) rotate(14.42) scale(0.960)">
        <g transform="translate(0.58,3.54) rotate(17.75) scale(0.940)">
        <g transform="translate(2.89,3.93) rotate(19.46) scale(0.920)">
        <g transform="translate(4.49,3.97) rotate(19.14) scale(0.900)">
        <g transform="translate(4.99,3.66) rotate(16.53) scale(0.880)">
        <path d="M28.8,16.6 L0.0,33.3 L-28.8,16.6 L-28.8,-16.6 L-0.0,-33.3 L28.8,-16.6Z" fill="url(#rgrad2)" filter="url(#blur2)" opacity="0.85"/>
        <ellipse cx="0" cy="0" rx="13.9" ry="9.2" fill="#FFFFFF" opacity="0.43"/>
      </g>
      </g>
      </g>
      </g>
      </g>
      </g>
      </g>
  </g>
  <g transform="translate(731.5, 107.1)">
      <g transform="translate(-1.87,3.71) rotate(4.96) scale(1.000)">
        <g transform="translate(0.58,3.99) rotate(9.97) scale(0.980)">
        <g transform="translate(2.89,3.91) rotate(14.42) scale(0.960)">
        <g transform="translate(4.49,3.48) rotate(17.75) scale(0.940)" clip-path="url(#clipRect)">
        <g transform="translate(4.99,2.74) rotate(19.46) scale(0.920)">
        <g transform="translate(4.27,1.76) rotate(19.14) scale(0.900)">
        <g transform="translate(2.51,0.62) rotate(16.53) scale(0.880)">
        <circle cx="0" cy="0" r="22.8" fill="url(#lgrad3)" filter="url(#shadow)" opacity="0.78"/>
        <text x="0" y="5" text-anchor="middle" font-family="Arial, sans-serif" font-size="14" fill="#FFFFFF" opacity="0.78">462</text>
      </g>
      </g>
      </g>
      </g>
      </g>
      </g>
      </g>
  </g>
  <g transform="translate(950.5, 120.9)">
      <g transform="translate(2.89,3.26) rotate(4.96) scale(1.000)">
        <g transform="translate(4.49,2.44) rotate(9.97) scale(0.980)">
        <g transform="translate(4.99,1.39) rotate(14.42) scale(0.960)">
        <g transform="translate(4.27,0.22) rotate(17.75) scale(0.940)">
        <g transform="translate(2.51,-0.97) rotate(19.46) scale(0.920)">
        <g transform="translate(0.13,-2.08) rotate(19.14) scale(0.900)" mask="url(#maskGradient)">
        <g transform="translate(-2.29,-2.99) rotate(16.53) scale(0.880)">
        <path d="M0.0,-48.9 L14.4,-19.8 L46.5,-15.1 L23.3,7.6 L28.7,39.6 L0.0,24.4 L-28.7,39.6 L-23.3,7.6 L-46.5,-15.1 L-14.4,-19.8Z" fill="url(#rgrad4)" filter="url(#blur4)" opacity="0.69"/>
      </g>
      </g>
      </g>
      </g>
      </g>
      </g>
      </g>
  </g>
  <g transform="translate(1176.8, 124.8)">
      <g transform="translate(4.99,-0.18) rotate(4.96) scale(1.000)">
        <g transform="translate(4.27,-1.35) rotate(9.97) scale(0.980)">
        <g transform="translate(2.51,-2.41) rotate(14.42) scale(0.960)">
        <g transform="translate(0.13,-3.24) rotate(17.75) scale(0.940)">
        <g transform="translate(-2.29,-3.79) rotate(19.46) scale(0.920)">
        <g transform="translate(-4.14,-4.00) rotate(19.14) scale(0.900)">
        <g transform="translate(-4.98,-3.85) rotate(16.53) scale(0.880)">
        <rect x="-31.2" y="-31.2" width="62.5" height="62.5" rx="15.6" fill="url(#rgrad0)" filter="url(#shadow)" opacity="0.58"/>
        <circle cx="0" cy="0" r="20.8" fill="url(#rgrad1)" opacity="0.40"/>
      </g>
      </g>
      </g>
      </g>
      </g>
      </g>
      </g>
  </g>
  <g transform="translate(1408.8, 117.1)">
      <g transform="translate(2.51,-3.46) rotate(4.96) scale(1.000)">
        <g transform="translate(0.13,-3.90) rotate(9.97) scale(0.980)">
        <g transform="translate(-2.29,-3.99) rotate(14.42) scale(0.960)">
        <g transform="translate(-4.14,-3.72) rotate(17.75) scale(0.940)" clip-path="url(#clipStar)">
        <g transform="translate(-4.98,-3.12) rotate(19.46) scale(0.920)">
        <g transform="translate(-4.60,-2.25) rotate(19.14) scale(0.900)">
        <g transform="translate(-3.09,-1.17) rotate(16.53) scale(0.880)">
        <path d="M38.3,22.1 L0.0,44.3 L-38.3,22.1 L-38.3,-22.1 L-0.0,-44.3 L38.3,-22.1Z" fill="url(#lgrad1)" filter="url(#blur1)" opacity="0.46"/>
        <ellipse cx="0" cy="0" rx="18.4" ry="12.3" fill="#FFFFFF" opacity="0.23"/>
      </g>
      </g>
      </g>
      </g>
      </g>
      </g>
      </g>
  </g>
  <g transform="translate(1643.5, 101.4)">
      <g transform="translate(-2.29,-3.56) rotate(4.96) scale(1.000)">
        <g transform="translate(-4.14,-2.86) rotate(9.97) scale(0.980)">
        <g transform="translate(-4.98,-1.90) rotate(14.42) scale(0.960)">
        <g transform="translate(-4.60,-0.78) rotate(17.75) scale(0.940)">
        <g transform="translate(-3.09,0.41) rotate(19.46) scale(0.920)">
        <g transform="translate(-0.83,1.57) rotate(19.14) scale(0.900)" mask="url(#maskDynamic)">
        <g transform="translate(1.63,2.59) rotate(16.53) scale(0.880)">
        <circle cx="0" cy="0" r="36.2" fill="url(#rgrad2)" filter="url(#shadow)" opacity="0.34"/>
        <text x="0" y="5" text-anchor="middle" font-family="Arial, sans-serif" font-size="14" fill="#FFFFFF" opacity="0.34">462</text>
      </g>
      </g>
      </g>
      </g>
      </g>
      </g>
      </g>
  </g>
  <g transform="translate(117.3, 365.0)">
      <g transform="translate(-4.98,-0.38) rotate(4.96) scale(1.000)">
        <g transform="translate(-4.60,0.81) rotate(9.97) scale(0.980)">
        <g transform="translate(-3.09,1.93) rotate(14.42) scale(0.960)">
        <g transform="translate(-0.83,2.88) rotate(17.75) scale(0.940)">
        <g transform="translate(1.63,3.57) rotate(19.46) scale(0.920)">
        <g transform="translate(3.70,3.94) rotate(19.14) scale(0.900)">
        <g transform="translate(4.86,3.96) rotate(16.53) scale(0.880)">
        <path d="M0.0,-59.6 L17.5,-24.1 L56.7,-18.4 L28.4,9.2 L35.0,48.2 L0.0,29.8 L-35.0,48.2 L-28.4,9.2 L-56.7,-18.4 L-17.5,-24.1Z" fill="url(#rgrad3)" filter="url(#blur3)" opacity="0.24"/>
      </g>
      </g>
      </g>
      </g>
      </g>
      </g>
      </g>
  </g>
  <g transform="translate(347.0, 355.6)">
      <g transform="translate(-3.09,3.14) rotate(4.96) scale(1.000)">
        <g transform="translate(-0.83,3.73) rotate(9.97) scale(0.980)">
        <g transform="translate(1.63,3.99) rotate(14.42) scale(0.960)">
        <g transform="translate(3.70,3.89) rotate(17.75) scale(0.940)" clip-path="url(#clipDynamic)">
        <g transform="translate(4.86,3.44) rotate(19.46) scale(0.920)">
        <g transform="translate(4.83,2.69) rotate(19.14) scale(0.900)">
        <g transform="translate(3.62,1.70) rotate(16.53) scale(0.880)">
        <rect x="-23.6" y="-23.6" width="47.2" height="47.2" rx="11.8" fill="url(#lgrad4)" filter="url(#shadow)" opacity="0.16"/>
        <circle cx="0" cy="0" r="15.7" fill="url(#rgrad0)" opacity="0.11"/>
      </g>
      </g>
      </g>
      </g>
      </g>
      </g>
      </g>
  </g>
  <g transform="translate(570.0, 357.8)">
      <g transform="translate(1.63,3.78) rotate(4.96) scale(1.000)">
        <g transform="translate(3.70,3.22) rotate(9.97) scale(0.980)">
        <g transform="translate(4.86,2.38) rotate(14.42) scale(0.960)">
        <g transform="translate(4.83,1.33) rotate(17.75) scale(0.940)">
        <g transform="translate(3.62,0.15) rotate(19.46) scale(0.920)">
        <g transform="translate(1.52,-1.04) rotate(19.14) scale(0.900)" mask="url(#maskStripes)">
        <g transform="translate(-0.95,-2.13) rotate(16.53) scale(0.880)">
        <path d="M24.2,14.0 L0.0,27.9 L-24.2,14.0 L-24.2,-14.0 L-0.0,-27.9 L24.2,-14.0Z" fill="url(#rgrad0)" filter="url(#blur0)" opacity="0.11"/>
        <ellipse cx="0" cy="0" rx="11.6" ry="7.8" fill="#FFFFFF" opacity="0.06"/>
      </g>
      </g>
      </g>
      </g>
      </g>
      </g>
      </g>
  </g>
  <g transform="translate(785.6, 370.4)">
      <g transform="translate(4.86,0.94) rotate(4.96) scale(1.000)">
        <g transform="translate(4.83,-0.25) rotate(9.97) scale(0.980)">
        <g transform="translate(3.62,-1.42) rotate(14.42) scale(0.960)">
        <g transform="translate(1.52,-2.46) rotate(17.75) scale(0.940)">
        <g transform="translate(-0.95,-3.28) rotate(19.46) scale(0.920)">
        <g transform="translate(-3.19,-3.81) rotate(19.14) scale(0.900)">
        <g transform="translate(-4.64,-4.00) rotate(16.53) scale(0.880)">
        <circle cx="0" cy="0" r="29.1" fill="url(#rgrad1)" filter="url(#shadow)" opacity="0.10"/>
        <text x="0" y="5" text-anchor="middle" font-family="Arial, sans-serif" font-size="14" fill="#FFFFFF" opacity="0.10">462</text>
      </g>
      </g>
      </g>
      </g>
      </g>
      </g>
      </g>
  </g>
  <g transform="translate(995.0, 387.5)">
      <g transform="translate(3.62,-2.76) rotate(4.96) scale(1.000)">
        <g transform="translate(1.52,-3.49) rotate(9.97) scale(0.980)">
        <g transform="translate(-0.95,-3.91) rotate(14.42) scale(0.960)">
        <g transform="translate(-3.19,-3.98) rotate(17.75) scale(0.940)" clip-path="url(#clipHex)">
        <g transform="translate(-4.64,-3.70) rotate(19.46) scale(0.920)">
        <g transform="translate(-4.96,-3.08) rotate(19.14) scale(0.900)">
        <g transform="translate(-4.07,-2.19) rotate(16.53) scale(0.880)">
        <path d="M0.0,-71.6 L21.0,-29.0 L68.1,-22.1 L34.0,11.1 L42.1,57.9 L0.0,35.8 L-42.1,57.9 L-34.0,11.1 L-68.1,-22.1 L-21.0,-29.0Z" fill="url(#lgrad2)" filter="url(#blur2)" opacity="0.12"/>
      </g>
      </g>
      </g>
      </g>
      </g>
      </g>
      </g>
  </g>
  <g transform="translate(1200.8, 401.1)">
      <g transform="translate(-0.95,-3.93) rotate(4.96) scale(1.000)">
        <g transform="translate(-3.19,-3.53) rotate(9.97) scale(0.980)">
        <g transform="translate(-4.64,-2.81) rotate(14.42) scale(0.960)">
        <g transform="translate(-4.96,-1.84) rotate(17.75) scale(0.940)">
        <g transform="translate(-4.07,-0.71) rotate(19.46) scale(0.920)">
        <g transform="translate(-2.18,0.48) rotate(19.14) scale(0.900)" mask="url(#maskCircleFade)">
        <g transform="translate(0.25,1.63) rotate(16.53) scale(0.880)">
        <rect x="-37.1" y="-37.1" width="74.3" height="74.3" rx="18.6" fill="url(#rgrad3)" filter="url(#shadow)" opacity="0.18"/>
        <circle cx="0" cy="0" r="24.8" fill="url(#rgrad4)" opacity="0.12"/>
      </g>
      </g>
      </g>
      </g>
      </g>
      </g>
      </g>
  </g>
  <g transform="translate(1406.3, 404.8)">
      <g transform="translate(-4.64,-1.48) rotate(4.96) scale(1.000)">
        <g transform="translate(-4.96,-0.32) rotate(9.97) scale(0.980)">
        <g transform="translate(-4.07,0.88) rotate(14.42) scale(0.960)">
        <g transform="translate(-2.18,1.99) rotate(17.75) scale(0.940)">
        <g transform="translate(0.25,2.93) rotate(19.46) scale(0.920)">
        <g transform="translate(2.61,3.60) rotate(19.14) scale(0.900)">
        <g transform="translate(4.34,3.96) rotate(16.53) scale(0.880)">
        <path d="M33.2,19.1 L0.0,38.3 L-33.2,19.1 L-33.2,-19.1 L-0.0,-38.3 L33.2,-19.1Z" fill="url(#rgrad4)" filter="url(#blur4)" opacity="0.26"/>
        <ellipse cx="0" cy="0" rx="16.0" ry="10.6" fill="#FFFFFF" opacity="0.13"/>
      </g>
      </g>
      </g>
      </g>
      </g>
      </g>
      </g>
  </g>
  <g transform="translate(1615.2, 396.8)">
      <g transform="translate(-4.07,2.33) rotate(4.96) scale(1.000)">
        <g transform="translate(-2.18,3.18) rotate(9.97) scale(0.980)">
        <g transform="translate(0.25,3.76) rotate(14.42) scale(0.960)">
        <g transform="translate(2.61,3.99) rotate(17.75) scale(0.940)" clip-path="url(#clipCircle)">
        <g transform="translate(4.34,3.88) rotate(19.46) scale(0.920)">
        <g transform="translate(5.00,3.41) rotate(19.14) scale(0.900)">
        <g transform="translate(4.44,2.64) rotate(16.53) scale(0.880)">
        <circle cx="0" cy="0" r="24.9" fill="url(#lgrad0)" filter="url(#shadow)" opacity="0.37"/>
        <text x="0" y="5" text-anchor="middle" font-family="Arial, sans-serif" font-size="14" fill="#FFFFFF" opacity="0.37">462</text>
      </g>
      </g>
      </g>
      </g>
      </g>
      </g>
      </g>
  </g>
  <g transform="translate(70.1, 660.9)">
      <g transform="translate(0.25,4.00) rotate(4.96) scale(1.000)">
        <g transform="translate(2.61,3.76) rotate(9.97) scale(0.980)">
        <g transform="translate(4.34,3.18) rotate(14.42) scale(0.960)">
        <g transform="translate(5.00,2.33) rotate(17.75) scale(0.940)">
        <g transform="translate(4.44,1.26) rotate(19.46) scale(0.920)">
        <g transform="translate(2.79,0.08) rotate(19.14) scale(0.900)" mask="url(#maskGradient)">
        <g transform="translate(0.46,-1.10) rotate(16.53) scale(0.880)">
        <path d="M0.0,-45.2 L13.3,-18.3 L43.0,-14.0 L21.5,7.0 L26.6,36.6 L0.0,22.6 L-26.6,36.6 L-21.5,7.0 L-43.0,-14.0 L-13.3,-18.3Z" fill="url(#rgrad1)" filter="url(#blur1)" opacity="0.49"/>
      </g>
      </g>
      </g>
      </g>
      </g>
      </g>
      </g>
  </g>
  <g transform="translate(292.4, 644.6)">
      <g transform="translate(4.34,1.99) rotate(4.96) scale(1.000)">
        <g transform="translate(5.00,0.88) rotate(9.97) scale(0.980)">
        <g transform="translate(4.44,-0.32) rotate(14.42) scale(0.960)">
        <g transform="translate(2.79,-1.48) rotate(17.75) scale(0.940)">
        <g transform="translate(0.46,-2.51) rotate(19.46) scale(0.920)">
        <g transform="translate(-1.99,-3.32) rotate(19.14) scale(0.900)">
        <g transform="translate(-3.94,-3.83) rotate(16.53) scale(0.880)">
        <rect x="-27.1" y="-27.1" width="54.2" height="54.2" rx="13.5" fill="url(#rgrad2)" filter="url(#shadow)" opacity="0.61"/>
        <circle cx="0" cy="0" r="18.1" fill="url(#rgrad3)" opacity="0.42"/>
      </g>
      </g>
      </g>
      </g>
      </g>
      </g>
      </g>
  </g>
  <g transform="translate(521.4, 635.5)">
      <g transform="translate(4.44,-1.84) rotate(4.96) scale(1.000)">
        <g transform="translate(2.79,-2.81) rotate(9.97) scale(0.980)">
        <g transform="translate(0.46,-3.53) rotate(14.42) scale(0.960)">
        <g transform="translate(-1.99,-3.93) rotate(17.75) scale(0.940)" clip-path="url(#clipRect)">
        <g transform="translate(-3.94,-3.98) rotate(19.46) scale(0.920)">
        <g transform="translate(-4.93,-3.67) rotate(19.14) scale(0.900)">
        <g transform="translate(-4.72,-3.04) rotate(16.53) scale(0.880)">
        <path d="M35.6,20.5 L0.0,41.1 L-35.6,20.5 L-35.6,-20.5 L-0.0,-41.1 L35.6,-20.5Z" fill="url(#lgrad3)" filter="url(#blur3)" opacity="0.71"/>
        <ellipse cx="0" cy="0" rx="17.1" ry="11.4" fill="#FFFFFF" opacity="0.36"/>
      </g>
      </g>
      </g>
      </g>
      </g>
      </g>
      </g>
  </g>
  <g transform="translate(755.0, 638.0)">
      <g transform="translate(0.46,-3.98) rotate(4.96) scale(1.000)">
        <g transform="translate(-1.99,-3.91) rotate(9.97) scale(0.980)">
        <g transform="translate(-3.94,-3.49) rotate(14.42) scale(0.960)">
        <g transform="translate(-4.93,-2.76) rotate(17.75) scale(0.940)">
        <g transform="translate(-4.72,-1.78) rotate(19.46) scale(0.920)">
        <g transform="translate(-3.35,-0.65) rotate(19.14) scale(0.900)" mask="url(#maskDynamic)">
        <g transform="translate(-1.16,0.55) rotate(16.53) scale(0.880)">
        <circle cx="0" cy="0" r="37.5" fill="url(#rgrad4)" filter="url(#shadow)" opacity="0.80"/>
        <text x="0" y="5" text-anchor="middle" font-family="Arial, sans-serif" font-size="14" fill="#FFFFFF" opacity="0.80">462</text>
      </g>
      </g>
      </g>
      </g>
      </g>
      </g>
      </g>
  </g>
  <g transform="translate(989.8, 650.7)">
      <g transform="translate(-3.94,-2.46) rotate(4.96) scale(1.000)">
        <g transform="translate(-4.93,-1.42) rotate(9.97) scale(0.980)">
        <g transform="translate(-4.72,-0.25) rotate(14.42) scale(0.960)">
        <g transform="translate(-3.35,0.94) rotate(17.75) scale(0.940)">
        <g transform="translate(-1.16,2.05) rotate(19.46) scale(0.920)">
        <g transform="translate(1.32,2.97) rotate(19.14) scale(0.900)">
        <g transform="translate(3.47,3.63) rotate(16.53) scale(0.880)">
        <path d="M0.0,-67.7 L19.9,-27.4 L64.4,-20.9 L32.2,10.5 L39.8,54.8 L0.0,33.9 L-39.8,54.8 L-32.2,10.5 L-64.4,-20.9 L-19.9,-27.4Z" fill="url(#rgrad0)" filter="url(#blur0)" opacity="0.87"/>
      </g>
      </g>
      </g>
      </g>
      </g>
      </g>
      </g>
  </g>
  <g transform="translate(1222.2, 667.9)">
      <g transform="translate(-4.72,1.32) rotate(4.96) scale(1.000)">
        <g transform="translate(-3.35,2.38) rotate(9.97) scale(0.980)">
        <g transform="translate(-1.16,3.22) rotate(14.42) scale(0.960)">
        <g transform="translate(1.32,3.78) rotate(17.75) scale(0.940)" clip-path="url(#clipStar)">
        <g transform="translate(3.47,4.00) rotate(19.46) scale(0.920)">
        <g transform="translate(4.77,3.86) rotate(19.14) scale(0.900)">
        <g transform="translate(4.90,3.37) rotate(16.53) scale(0.880)">
        <rect x="-26.7" y="-26.7" width="53.4" height="53.4" rx="13.3" fill="url(#lgrad1)" filter="url(#shadow)" opacity="0.90"/>
        <circle cx="0" cy="0" r="17.8" fill="url(#rgrad2)" opacity="0.63"/>
      </g>
      </g>
      </g>
      </g>
      </g>
      </g>
      </g>
  </g>
  <g transform="translate(1449.2, 681.3)">
      <g transform="translate(-1.16,3.89) rotate(4.96) scale(1.000)">
        <g transform="translate(1.32,3.99) rotate(9.97) scale(0.980)">
        <g transform="translate(3.47,3.73) rotate(14.42) scale(0.960)">
        <g transform="translate(4.77,3.14) rotate(17.75) scale(0.940)">
        <g transform="translate(4.90,2.27) rotate(19.46) scale(0.920)">
        <g transform="translate(3.84,1.20) rotate(19.14) scale(0.900)" mask="url(#maskStripes)">
        <g transform="translate(1.83,0.02) rotate(16.53) scale(0.880)">
        <path d="M23.4,13.5 L0.0,27.1 L-23.4,13.5 L-23.4,-13.5 L-0.0,-27.1 L23.4,-13.5Z" fill="url(#rgrad2)" filter="url(#blur2)" opacity="0.89"/>
        <ellipse cx="0" cy="0" rx="11.3" ry="7.5" fill="#FFFFFF" opacity="0.45"/>
      </g>
      </g>
      </g>
      </g>
      </g>
      </g>
      </g>
  </g>
  <g transform="translate(1669.0, 684.7)">
      <g transform="translate(3.47,2.88) rotate(4.96) scale(1.000)">
        <g transform="translate(4.77,1.93) rotate(9.97) scale(0.980)">
        <g transform="translate(4.90,0.81) rotate(14.42) scale(0.960)">
        <g transform="translate(3.84,-0.38) rotate(17.75) scale(0.940)">
        <g transform="translate(1.83,-1.54) rotate(19.46) scale(0.920)">
        <g transform="translate(-0.62,-2.56) rotate(19.14) scale(0.900)">
        <g transform="translate(-2.93,-3.36) rotate(16.53) scale(0.880)">
        <circle cx="0" cy="0" r="25.3" fill="url(#rgrad3)" filter="url(#shadow)" opacity="0.85"/>
        <text x="0" y="5" text-anchor="middle" font-family="Arial, sans-serif" font-size="14" fill="#FFFFFF" opacity="0.85">462</text>
      </g>
      </g>
      </g>
      </g>
      </g>
      </g>
      </g>
  </g>
  <g transform="translate(121.7, 956.5)">
      <g transform="translate(4.90,-0.78) rotate(4.96) scale(1.000)">
        <g transform="translate(3.84,-1.90) rotate(9.97) scale(0.980)">
        <g transform="translate(1.83,-2.86) rotate(14.42) scale(0.960)">
        <g transform="translate(-0.62,-3.56) rotate(17.75) scale(0.940)" clip-path="url(#clipDynamic)">
        <g transform="translate(-2.93,-3.94) rotate(19.46) scale(0.920)">
        <g transform="translate(-4.51,-3.97) rotate(19.14) scale(0.900)">
        <g transform="translate(-4.99,-3.64) rotate(16.53) scale(0.880)">
        <path d="M0.0,-64.7 L19.0,-26.2 L61.5,-20.0 L30.8,10.0 L38.0,52.3 L0.0,32.3 L-38.0,52.3 L-30.8,10.0 L-61.5,-20.0 L-19.0,-26.2Z" fill="url(#lgrad4)" filter="url(#blur4)" opacity="0.78"/>
      </g>
      </g>
      </g>
      </g>
      </g>
      </g>
      </g>
  </g>
  <g transform="translate(324.0, 222.3)" mask="url(#maskGradient)">
    <ellipse cx="0" cy="0" rx="200" ry="150" fill="url(#rgrad0)" filter="url(#blur3)" opacity="0.3"/>
  </g>
  <g transform="translate(731.3, 228.2)" mask="url(#maskCircleFade)">
    <ellipse cx="0" cy="0" rx="200" ry="150" fill="url(#rgrad1)" filter="url(#blur3)" opacity="0.3"/>
  </g>
  <g transform="translate(1201.7, 267.9)" mask="url(#maskStripes)">
    <ellipse cx="0" cy="0" rx="200" ry="150" fill="url(#rgrad2)" filter="url(#blur3)" opacity="0.3"/>
  </g>
</svg>