<?xml version="1.0" encoding="UTF-8"?>
<svg xmlns="http://www.w3.org/2000/svg" viewBox="0 0 1920 1080" width="1920" height="1080">
  <defs>
    <filter id="blur0" x="-50%" y="-50%" width="200%" height="200%">
      <feGaussianBlur in="SourceGraphic" stdDeviation="1"/>
    </filter>
    <filter id="blur1" x="-50%" y="-50%" width="200%" height="200%">
      <feGaussianBlur in="SourceGraphic" stdDeviation="3"/>
    </filter>
    <filter id="blur2" x="-50%" y="-50%" width="200%" height="200%">
      <feGaussianBlur in="SourceGraphic" stdDeviation="5"/>
    </filter>
    <filter id="blur3" x="-50%" y="-50%" width="200%" height="200%">
      <feGaussianBlur in="SourceGraphic" stdDeviation="7"/>
    </filter>
    <filter id="blur4" x="-50%" y="-50%" width="200%" height="200%">
      <feGaussianBlur in="SourceGraphic" stdDeviation="9"/>
    </filter>
    <filter id="shadow" x="-50%" y="-50%" width="200%" height="200%">
      <feGaussianBlur in="SourceAlpha" stdDeviation="3" result="blur"/>
      <feOffset in="blur" dx="4" dy="4" result="offsetBlur"/>
      <feMerge>
        <feMergeNode in="offsetBlur"/>
        <feMergeNode in="SourceGraphic"/>
      </feMerge>
    </filter>
    <linearGradient id="lgrad0" x1="0%" y1="0%" x2="11.7%" y2="82.1%">
      <stop offset="0%" stop-color="#FF6B6B"/>
      <stop offset="33%" stop-color="#4ECDC4"/>
      <stop offset="66%" stop-color="#45B7D1"/>
      <stop offset="100%" stop-color="#96E6A1"/>
    </linearGradient>
    <linearGradient id="lgrad1" x1="0%" y1="0%" x2="0.8%" y2="58.7%">
      <stop offset="0%" stop-color="#FFE66D"/>
      <stop offset="33%" stop-color="#FF6B6B"/>
      <stop offset="66%" stop-color="#C44D58"/>
      <stop offset="100%" stop-color="#8B0000"/>
    </linearGradient>
    <linearGradient id="lgrad2" x1="0%" y1="0%" x2="3.0%" y2="32.9%">
      <stop offset="0%" stop-color="#4169E1"/>
      <stop offset="33%" stop-color="#7B68EE"/>
      <stop offset="66%" stop-color="#9370DB"/>
      <stop offset="100%" stop-color="#FFD700"/>
    </linearGradient>
    <linearGradient id="lgrad3" x1="0%" y1="0%" x2="17.9%" y2="11.7%">
      <stop offset="0%" stop-color="#32CD32"/>
      <stop offset="33%" stop-color="#228B22"/>
      <stop offset="66%" stop-color="#006400"/>
      <stop offset="100%" stop-color="#ADFF2F"/>
    </linearGradient>
    <linearGradient id="lgrad4" x1="0%" y1="0%" x2="41.3%" y2="0.8%">
      <stop offset="0%" stop-color="#FF1493"/>
      <stop offset="33%" stop-color="#FF69B4"/>
      <stop offset="66%" stop-color="#FFB6C1"/>
      <stop offset="100%" stop-color="#FFC0CB"/>
    </linearGradient>
    <radialGradient id="rgrad0" cx="47.0%" cy="68.0%" r="60%">
      <stop offset="0%" stop-color="#FF6B6B" stop-opacity="1"/>
      <stop offset="50%" stop-color="#4ECDC4" stop-opacity="0.8"/>
      <stop offset="100%" stop-color="#45B7D1" stop-opacity="0.6"/>
    </radialGradient>
    <radialGradient id="rgrad1" cx="57.0%" cy="36.0%" r="60%">
      <stop offset="0%" stop-color="#FFE66D" stop-opacity="1"/>
      <stop offset="50%" stop-color="#FF6B6B" stop-opacity="0.8"/>
      <stop offset="100%" stop-color="#C44D58" stop-opacity="0.6"/>
    </radialGradient>
    <radialGradient id="rgrad2" cx="67.0%" cy="44.0%" r="60%">
      <stop offset="0%" stop-color="#4169E1" stop-opacity="1"/>
      <stop offset="50%" stop-color="#7B68EE" stop-opacity="0.8"/>
      <stop offset="100%" stop-color="#9370DB" stop-opacity="0.6"/>
    </radialGradient>
    <radialGradient id="rgrad3" cx="37.0%" cy="52.0%" r="60%">
      <stop offset="0%" stop-color="#32CD32" stop-opacity="1"/>
      <stop offset="50%" stop-color="#228B22" stop-opacity="0.8"/>
      <stop offset="100%" stop-color="#006400" stop-opacity="0.6"/>
    </radialGradient>
    <radialGradient id="rgrad4" cx="47.0%" cy="60.0%" r="60%">
      <stop offset="0%" stop-color="#FF1493" stop-opacity="1"/>
      <stop offset="50%" stop-color="#FF69B4" stop-opacity="0.8"/>
      <stop offset="100%" stop-color="#FFB6C1" stop-opacity="0.6"/>
    </radialGradient>
    <clipPath id="clipCircle">
      <circle cx="0" cy="0" r="50"/>
    </clipPath>
    <clipPath id="clipStar">
      <path d="M0.0,-50.0 L14.7,-20.2 L47.6,-15.5 L23.8,7.7 L29.4,40.5 L0.0,25.0 L-29.4,40.5 L-23.8,7.7 L-47.6,-15.5 L-14.7,-20.2Z"/>
    </clipPath>
    <clipPath id="clipHex">
      <path d="M39.0,22.5 L0.0,45.0 L-39.0,22.5 L-39.0,-22.5 L-0.0,-45.0 L39.0,-22.5Z"/>
    </clipPath>
    <clipPath id="clipRect">
      <rect x="-40" y="-30" width="80" height="60" rx="10"/>
    </clipPath>
    <clipPath id="clipDynamic">
      <circle cx="0" cy="0" r="48.9"/>
    </clipPath>
    <mask id="maskGradient" maskContentUnits="objectBoundingBox">
      <rect x="0" y="0" width="1" height="1" fill="url(#maskGrad)"/>
    </mask>
    <linearGradient id="maskGrad" x1="0%" y1="0%" x2="100%" y2="100%">
      <stop offset="0%" stop-color="white"/>
      <stop offset="100%" stop-color="black"/>
    </linearGradient>
    <mask id="maskCircleFade">
      <circle cx="0" cy="0" r="60" fill="white"/>
      <circle cx="0" cy="0" r="30" fill="black"/>
    </mask>
    <mask id="maskStripes">
      <rect x="-50" y="-50" width="100" height="100" fill="white"/>
      <rect x="-50" y="-40" width="100" height="10" fill="black"/>
      <rect x="-50" y="-20" width="100" height="10" fill="black"/>
      <rect x="-50" y="0" width="100" height="10" fill="black"/>
      <rect x="-50" y="20" width="100" height="10" fill="black"/>
      <rect x="-50" y="40" width="100" height="10" fill="black"/>
    </mask>
    <mask id="maskDynamic">
      <rect x="-60" y="-60" width="120" height="120" fill="white" fill-opacity="0.69"/>
      <circle cx="0" cy="0" r="25" fill="white"/>
    </mask>
  </defs>
  <rect width="1920" height="1080" fill="url(#lgrad0)"/>
  <g transform="translate(127.8, 109.3)">
      <g transform="translate(4.64,1.49) rotate(2.80) scale(1.000)">
        <g transform="translate(4.97,0.33) rotate(7.13) scale(0.980)">
        <g transform="translate(4.08,-0.86) rotate(12.58) scale(0.960)">
        <g transform="translate(2.19,-1.98) rotate(18.60) scale(0.940)" clip-path="url(#clipCircle)">
        <g transform="translate(-0.24,-2.92) rotate(24.61) scale(0.920)">
        <g transform="translate(-2.60,-3.60) rotate(29.99) scale(0.900)">
        <g transform="translate(-4.33,-3.95) rotate(34.13) scale(0.880)">
        <path d="M0.0,-68.4 L20.1,-27.7 L65.1,-21.1 L32.5,10.6 L40.2,55.3 L0.0,34.2 L-40.2,55.3 L-32.5,10.6 L-65.1,-21.1 L-20.1,-27.7Z" fill="url(#lgrad0)" filter="url(#blur0)" opacity="0.72"/>
      </g>
      </g>
      </g>
      </g>
      </g>
      </g>
      </g>
  </g>
  <g transform="translate(349.8, 92.2)">
      <g transform="translate(4.08,-2.32) rotate(2.80) scale(1.000)">
        <g transform="translate(2.19,-3.18) rotate(7.13) scale(0.980)">
        <g transform="translate(-0.24,-3.75) rotate(12.58) scale(0.960)">
        <g transform="translate(-2.60,-3.99) rotate(18.60) scale(0.940)">
        <g transform="translate(-4.33,-3.88) rotate(24.61) scale(0.920)">
        <g transform="translate(-5.00,-3.42) rotate(29.99) scale(0.900)" mask="url(#maskCircleFade)">
        <g transform="translate(-4.44,-2.65) rotate(34.13) scale(0.880)">
        <rect x="-37.5" y="-37.5" width="75.0" height="75.0" rx="18.7" fill="url(#rgrad1)" filter="url(#shadow)" opacity="0.81"/>
        <circle cx="0" cy="0" r="25.0" fill="url(#rgrad2)" opacity="0.57"/>
      </g>
      </g>
      </g>
      </g>
      </g>
      </g>
      </g>
  </g>
  <g transform="translate(564.5, 78.7)">
      <g transform="translate(-0.24,-4.00) rotate(2.80) scale(1.000)">
        <g transform="translate(-2.60,-3.76) rotate(7.13) scale(0.980)">
        <g transform="translate(-4.33,-3.19) rotate(12.58) scale(0.960)">
        <g transform="translate(-5.00,-2.34) rotate(18.60) scale(0.940)">
        <g transform="translate(-4.44,-1.27) rotate(24.61) scale(0.920)">
        <g transform="translate(-2.80,-0.09) rotate(29.99) scale(0.900)">
        <g transform="translate(-0.47,1.09) rotate(34.13) scale(0.880)">
        <path d="M35.2,20.3 L0.0,40.7 L-35.2,20.3 L-35.2,-20.3 L-0.0,-40.7 L35.2,-20.3Z" fill="url(#rgrad2)" filter="url(#blur2)" opacity="0.87"/>
        <ellipse cx="0" cy="0" rx="17.0" ry="11.3" fill="#FFFFFF" opacity="0.44"/>
      </g>
      </g>
      </g>
      </g>
      </g>
      </g>
      </g>
  </g>
  <g transform="translate(773.1, 75.3)">
      <g transform="translate(-4.33,-2.00) rotate(2.80) scale(1.000)">
        <g transform="translate(-5.00,-0.89) rotate(7.13) scale(0.980)">
        <g transform="translate(-4.44,0.30) rotate(12.58) scale(0.960)">
        <g transform="translate(-2.80,1.47) rotate(18.60) scale(0.940)" clip-path="url(#clipRect)">
        <g transform="translate(-0.47,2.50) rotate(24.61) scale(0.920)">
        <g transform="translate(1.97,3.31) rotate(29.99) scale(0.900)">
        <g transform="translate(3.93,3.83) rotate(34.13) scale(0.880)">
        <circle cx="0" cy="0" r="26.7" fill="url(#lgrad3)" filter="url(#shadow)" opacity="0.90"/>
        <text x="0" y="5" text-anchor="middle" font-family="Arial, sans-serif" font-size="14" fill="#FFFFFF" opacity="0.90">190</text>
      </g>
      </g>
      </g>
      </g>
      </g>
      </g>
      </g>
  </g>
  <g transform="translate(978.6, 83.4)">
      <g transform="translate(-4.44,1.83) rotate(2.80) scale(1.000)">
        <g transform="translate(-2.80,2.80) rotate(7.13) scale(0.980)">
        <g transform="translate(-0.47,3.52) rotate(12.58) scale(0.960)">
        <g transform="translate(1.97,3.92) rotate(18.60) scale(0.940)">
        <g transform="translate(3.93,3.98) rotate(24.61) scale(0.920)">
        <g transform="translate(4.93,3.68) rotate(29.99) scale(0.900)" mask="url(#maskGradient)">
        <g transform="translate(4.72,3.05) rotate(34.13) scale(0.880)">
        <path d="M0.0,-45.1 L13.3,-18.2 L42.9,-13.9 L21.4,7.0 L26.5,36.5 L0.0,22.6 L-26.5,36.5 L-21.4,7.0 L-42.9,-13.9 L-13.3,-18.2Z" fill="url(#rgrad4)" filter="url(#blur4)" opacity="0.89"/>
      </g>
      </g>
      </g>
      </g>
      </g>
      </g>
      </g>
  </g>
  <g transform="translate(1184.4, 99.4)">
      <g transform="translate(-0.47,3.98) rotate(2.80) scale(1.000)">
        <g transform="translate(1.97,3.92) rotate(7.13) scale(0.980)">
        <g transform="translate(3.93,3.50) rotate(12.58) scale(0.960)">
        <g transform="translate(4.93,2.77) rotate(18.60) scale(0.940)">
        <g transform="translate(4.72,1.79) rotate(24.61) scale(0.920)">
        <g transform="translate(3.36,0.66) rotate(29.99) scale(0.900)">
        <g transform="translate(1.17,-0.54) rotate(34.13) scale(0.880)">
        <rect x="-25.2" y="-25.2" width="50.5" height="50.5" rx="12.6" fill="url(#rgrad0)" filter="url(#shadow)" opacity="0.85"/>
        <circle cx="0" cy="0" r="16.8" fill="url(#rgrad1)" opacity="0.59"/>
      </g>
      </g>
      </g>
      </g>
      </g>
      </g>
      </g>
  </g>
  <g transform="translate(1394.0, 115.6)">
      <g transform="translate(3.93,2.47) rotate(2.80) scale(1.000)">
        <g transform="translate(4.93,1.43) rotate(7.13) scale(0.980)">
        <g transform="translate(4.72,0.26) rotate(12.58) scale(0.960)">
        <g transform="translate(3.36,-0.93) rotate(18.60) scale(0.940)" clip-path="url(#clipStar)">
        <g transform="translate(1.17,-2.04) rotate(24.61) scale(0.920)">
        <g transform="translate(-1.30,-2.96) rotate(29.99) scale(0.900)">
        <g transform="translate(-3.46,-3.63) rotate(34.13) scale(0.880)">
        <path d="M33.6,19.4 L0.0,38.8 L-33.6,19.4 L-33.6,-19.4 L-0.0,-38.8 L33.6,-19.4Z" fill="url(#lgrad1)" filter="url(#blur1)" opacity="0.77"/>
        <ellipse cx="0" cy="0" rx="16.1" ry="10.8" fill="#FFFFFF" opacity="0.39"/>
      </g>
      </g>
      </g>
      </g>
      </g>
      </g>
      </g>
  </g>
  <g transform="translate(1610.0, 124.5)">
      <g transform="translate(4.72,-1.31) rotate(2.80) scale(1.000)">
        <g transform="translate(3.36,-2.37) rotate(7.13) scale(0.980)">
        <g transform="translate(1.17,-3.22) rotate(12.58) scale(0.960)">
        <g transform="translate(-1.30,-3.78) rotate(18.60) scale(0.940)">
        <g transform="translate(-3.46,-4.00) rotate(24.61) scale(0.920)">
        <g transform="translate(-4.77,-3.86) rotate(29.99) scale(0.900)" mask="url(#maskDynamic)">
        <g transform="translate(-4.91,-3.38) rotate(34.13) scale(0.880)">
        <circle cx="0" cy="0" r="37.2" fill="url(#rgrad2)" filter="url(#shadow)" opacity="0.67"/>
        <text x="0" y="5" text-anchor="middle" font-family="Arial, sans-serif" font-size="14" fill="#FFFFFF" opacity="0.67">190</text>
      </g>
      </g>
      </g>
      </g>
      </g>
      </g>
      </g>
  </g>
  <g transform="translate(73.3, 401.9)">
      <g transform="translate(1.17,-3.89) rotate(2.80) scale(1.000)">
        <g transform="translate(-1.30,-3.99) rotate(7.13) scale(0.980)">
        <g transform="translate(-3.46,-3.74) rotate(12.58) scale(0.960)">
        <g transform="translate(-4.77,-3.15) rotate(18.60) scale(0.940)">
        <g transform="translate(-4.91,-2.28) rotate(24.61) scale(0.920)">
        <g transform="translate(-3.85,-1.21) rotate(29.99) scale(0.900)">
        <g transform="translate(-1.84,-0.03) rotate(34.13) scale(0.880)">
        <path d="M0.0,-71.1 L20.9,-28.7 L67.6,-22.0 L33.8,11.0 L41.8,57.5 L0.0,35.5 L-41.8,57.5 L-33.8,11.0 L-67.6,-22.0 L-20.9,-28.7Z" fill="url(#rgrad3)" filter="url(#blur3)" opacity="0.56"/>
      </g>
      </g>
      </g>
      </g>
      </g>
      </g>
      </g>
  </g>
  <g transform="translate(303.2, 388.9)">
      <g transform="translate(-3.46,-2.89) rotate(2.80) scale(1.000)">
        <g transform="translate(-4.77,-1.94) rotate(7.13) scale(0.980)">
        <g transform="translate(-4.91,-0.82) rotate(12.58) scale(0.960)">
        <g transform="translate(-3.85,0.37) rotate(18.60) scale(0.940)" clip-path="url(#clipDynamic)">
        <g transform="translate(-1.84,1.53) rotate(24.61) scale(0.920)">
        <g transform="translate(0.61,2.56) rotate(29.99) scale(0.900)">
        <g transform="translate(2.91,3.35) rotate(34.13) scale(0.880)">
        <rect x="-28.7" y="-28.7" width="57.5" height="57.5" rx="14.4" fill="url(#lgrad4)" filter="url(#shadow)" opacity="0.44"/>
        <circle cx="0" cy="0" r="19.2" fill="url(#rgrad0)" opacity="0.31"/>
      </g>
      </g>
      </g>
      </g>
      </g>
      </g>
      </g>
  </g>
  <g transform="translate(537.2, 371.8)">
      <g transform="translate(-4.91,0.77) rotate(2.80) scale(1.000)">
        <g transform="translate(-3.85,1.89) rotate(7.13) scale(0.980)">
        <g transform="translate(-1.84,2.85) rotate(12.58) scale(0.960)">
        <g transform="translate(0.61,3.55) rotate(18.60) scale(0.940)">
        <g transform="translate(2.91,3.94) rotate(24.61) scale(0.920)">
        <g transform="translate(4.51,3.97) rotate(29.99) scale(0.900)" mask="url(#maskStripes)">
        <g transform="translate(4.99,3.65) rotate(34.13) scale(0.880)">
        <path d="M24.0,13.9 L0.0,27.7 L-24.0,13.9 L-24.0,-13.9 L-0.0,-27.7 L24.0,-13.9Z" fill="url(#rgrad0)" filter="url(#blur0)" opacity="0.33"/>
        <ellipse cx="0" cy="0" rx="11.5" ry="7.7" fill="#FFFFFF" opacity="0.16"/>
      </g>
      </g>
      </g>
      </g>
      </g>
      </g>
      </g>
  </g>
  <g transform="translate(771.8, 358.5)">
      <g transform="translate(-1.84,3.72) rotate(2.80) scale(1.000)">
        <g transform="translate(0.61,3.99) rotate(7.13) scale(0.980)">
        <g transform="translate(2.91,3.90) rotate(12.58) scale(0.960)">
        <g transform="translate(4.51,3.47) rotate(18.60) scale(0.940)">
        <g transform="translate(4.99,2.72) rotate(24.61) scale(0.920)">
        <g transform="translate(4.26,1.73) rotate(29.99) scale(0.900)">
        <g transform="translate(2.48,0.59) rotate(34.13) scale(0.880)">
        <circle cx="0" cy="0" r="23.8" fill="url(#rgrad1)" filter="url(#shadow)" opacity="0.23"/>
        <text x="0" y="5" text-anchor="middle" font-family="Arial, sans-serif" font-size="14" fill="#FFFFFF" opacity="0.23">190</text>
      </g>
      </g>
      </g>
      </g>
      </g>
      </g>
      </g>
  </g>
  <g transform="translate(1003.6, 355.3)">
      <g transform="translate(2.91,3.25) rotate(2.80) scale(1.000)">
        <g transform="translate(4.51,2.42) rotate(7.13) scale(0.980)">
        <g transform="translate(4.99,1.37) rotate(12.58) scale(0.960)">
        <g transform="translate(4.26,0.19) rotate(18.60) scale(0.940)" clip-path="url(#clipHex)">
        <g transform="translate(2.48,-1.00) rotate(24.61) scale(0.920)">
        <g transform="translate(0.10,-2.10) rotate(29.99) scale(0.900)">
        <g transform="translate(-2.31,-3.01) rotate(34.13) scale(0.880)">
        <path d="M0.0,-60.4 L17.8,-24.4 L57.5,-18.7 L28.7,9.3 L35.5,48.9 L0.0,30.2 L-35.5,48.9 L-28.7,9.3 L-57.5,-18.7 L-17.8,-24.4Z" fill="url(#lgrad2)" filter="url(#blur2)" opacity="0.15"/>
      </g>
      </g>
      </g>
      </g>
      </g>
      </g>
      </g>
  </g>
  <g transform="translate(1229.6, 363.8)">
      <g transform="translate(4.99,-0.21) rotate(2.80) scale(1.000)">
        <g transform="translate(4.26,-1.38) rotate(7.13) scale(0.980)">
        <g transform="translate(2.48,-2.43) rotate(12.58) scale(0.960)">
        <g transform="translate(0.10,-3.26) rotate(18.60) scale(0.940)">
        <g transform="translate(-2.31,-3.80) rotate(24.61) scale(0.920)">
        <g transform="translate(-4.15,-4.00) rotate(29.99) scale(0.900)" mask="url(#maskCircleFade)">
        <g transform="translate(-4.98,-3.84) rotate(34.13) scale(0.880)">
        <rect x="-36.4" y="-36.4" width="72.8" height="72.8" rx="18.2" fill="url(#rgrad3)" filter="url(#shadow)" opacity="0.11"/>
        <circle cx="0" cy="0" r="24.3" fill="url(#rgrad4)" opacity="0.08"/>
      </g>
      </g>
      </g>
      </g>
      </g>
      </g>
      </g>
  </g>
  <g transform="translate(1448.3, 379.8)">
      <g transform="translate(2.48,-3.47) rotate(2.80) scale(1.000)">
        <g transform="translate(0.10,-3.90) rotate(7.13) scale(0.980)">
        <g transform="translate(-2.31,-3.99) rotate(12.58) scale(0.960)">
        <g transform="translate(-4.15,-3.71) rotate(18.60) scale(0.940)">
        <g transform="translate(-4.98,-3.11) rotate(24.61) scale(0.920)">
        <g transform="translate(-4.59,-2.23) rotate(29.99) scale(0.900)">
        <g transform="translate(-3.07,-1.14) rotate(34.13) scale(0.880)">
        <path d="M38.2,22.0 L0.0,44.1 L-38.2,22.0 L-38.2,-22.0 L-0.0,-44.1 L38.2,-22.0Z" fill="url(#rgrad4)" filter="url(#blur4)" opacity="0.10"/>
        <ellipse cx="0" cy="0" rx="18.4" ry="12.2" fill="#FFFFFF" opacity="0.05"/>
      </g>
      </g>
      </g>
      </g>
      </g>
      </g>
      </g>
  </g>
  <g transform="translate(1660.1, 396.0)">
      <g transform="translate(-2.31,-3.55) rotate(2.80) scale(1.000)">
        <g transform="translate(-4.15,-2.84) rotate(7.13) scale(0.980)">
        <g transform="translate(-4.98,-1.88) rotate(12.58) scale(0.960)">
        <g transform="translate(-4.59,-0.76) rotate(18.60) scale(0.940)" clip-path="url(#clipCircle)">
        <g transform="translate(-3.07,0.44) rotate(24.61) scale(0.920)">
        <g transform="translate(-0.80,1.59) rotate(29.99) scale(0.900)">
        <g transform="translate(1.66,2.61) rotate(34.13) scale(0.880)">
        <circle cx="0" cy="0" r="30.9" fill="url(#lgrad0)" filter="url(#shadow)" opacity="0.13"/>
        <text x="0" y="5" text-anchor="middle" font-family="Arial, sans-serif" font-size="14" fill="#FFFFFF" opacity="0.13">190</text>
      </g>
      </g>
      </g>
      </g>
      </g>
      </g>
      </g>
  </g>
  <g transform="translate(107.0, 684.6)">
      <g transform="translate(-4.98,-0.36) rotate(2.80) scale(1.000)">
        <g transform="translate(-4.59,0.83) rotate(7.13) scale(0.980)">
        <g transform="translate(-3.07,1.95) rotate(12.58) scale(0.960)">
        <g transform="translate(-0.80,2.90) rotate(18.60) scale(0.940)">
        <g transform="translate(1.66,3.58) rotate(24.61) scale(0.920)">
        <g transform="translate(3.72,3.95) rotate(29.99) scale(0.900)" mask="url(#maskGradient)">
        <g transform="translate(4.87,3.96) rotate(34.13) scale(0.880)">
        <path d="M0.0,-48.4 L14.2,-19.6 L46.0,-14.9 L23.0,7.5 L28.4,39.1 L0.0,24.2 L-28.4,39.1 L-23.0,7.5 L-46.0,-14.9 L-14.2,-19.6Z" fill="url(#rgrad1)" filter="url(#blur1)" opacity="0.19"/>
      </g>
      </g>
      </g>
      </g>
      </g>
      </g>
      </g>
  </g>
  <g transform="translate(312.2, 681.7)">
      <g transform="translate(-3.07,3.16) rotate(2.80) scale(1.000)">
        <g transform="translate(-0.80,3.74) rotate(7.13) scale(0.980)">
        <g transform="translate(1.66,3.99) rotate(12.58) scale(0.960)">
        <g transform="translate(3.72,3.89) rotate(18.60) scale(0.940)">
        <g transform="translate(4.87,3.43) rotate(24.61) scale(0.920)">
        <g transform="translate(4.82,2.67) rotate(29.99) scale(0.900)">
        <g transform="translate(3.60,1.67) rotate(34.13) scale(0.880)">
        <rect x="-22.9" y="-22.9" width="45.7" height="45.7" rx="11.4" fill="url(#rgrad2)" filter="url(#shadow)" opacity="0.28"/>
        <circle cx="0" cy="0" r="15.2" fill="url(#rgrad3)" opacity="0.19"/>
      </g>
      </g>
      </g>
      </g>
      </g>
      </g>
      </g>
  </g>
  <g transform="translate(519.2, 668.5)">
      <g transform="translate(1.66,3.77) rotate(2.80) scale(1.000)">
        <g transform="translate(3.72,3.21) rotate(7.13) scale(0.980)">
        <g transform="translate(4.87,2.36) rotate(12.58) scale(0.960)">
        <g transform="translate(4.82,1.30) rotate(18.60) scale(0.940)" clip-path="url(#clipRect)">
        <g transform="translate(3.60,0.13) rotate(24.61) scale(0.920)">
        <g transform="translate(1.49,-1.06) rotate(29.99) scale(0.900)">
        <g transform="translate(-0.98,-2.15) rotate(34.13) scale(0.880)">
        <path d="M29.2,16.9 L0.0,33.7 L-29.2,16.9 L-29.2,-16.9 L-0.0,-33.7 L29.2,-16.9Z" fill="url(#lgrad3)" filter="url(#blur3)" opacity="0.39"/>
        <ellipse cx="0" cy="0" rx="14.1" ry="9.4" fill="#FFFFFF" opacity="0.19"/>
      </g>
      </g>
      </g>
      </g>
      </g>
      </g>
      </g>
  </g>
  <g transform="translate(731.4, 651.4)">
      <g transform="translate(4.87,0.92) rotate(2.80) scale(1.000)">
        <g transform="translate(4.82,-0.27) rotate(7.13) scale(0.980)">
        <g transform="translate(3.60,-1.44) rotate(12.58) scale(0.960)">
        <g transform="translate(1.49,-2.48) rotate(18.60) scale(0.940)">
        <g transform="translate(-0.98,-3.30) rotate(24.61) scale(0.920)">
        <g transform="translate(-3.21,-3.82) rotate(29.99) scale(0.900)" mask="url(#maskDynamic)">
        <g transform="translate(-4.66,-4.00) rotate(34.13) scale(0.880)">
        <circle cx="0" cy="0" r="35.1" fill="url(#rgrad4)" filter="url(#shadow)" opacity="0.50"/>
        <text x="0" y="5" text-anchor="middle" font-family="Arial, sans-serif" font-size="14" fill="#FFFFFF" opacity="0.50">190</text>
      </g>
      </g>
      </g>
      </g>
      </g>
      </g>
      </g>
  </g>
  <g transform="translate(950.6, 638.3)">
      <g transform="translate(3.60,-2.78) rotate(2.80) scale(1.000)">
        <g transform="translate(1.49,-3.51) rotate(7.13) scale(0.980)">
        <g transform="translate(-0.98,-3.92) rotate(12.58) scale(0.960)">
        <g transform="translate(-3.21,-3.98) rotate(18.60) scale(0.940)">
        <g transform="translate(-4.66,-3.69) rotate(24.61) scale(0.920)">
        <g transform="translate(-4.96,-3.07) rotate(29.99) scale(0.900)">
        <g transform="translate(-4.05,-2.17) rotate(34.13) scale(0.880)">
        <path d="M0.0,-74.8 L22.0,-30.2 L71.1,-23.1 L35.6,11.6 L44.0,60.5 L0.0,37.4 L-44.0,60.5 L-35.6,11.6 L-71.1,-23.1 L-22.0,-30.2Z" fill="url(#rgrad0)" filter="url(#blur0)" opacity="0.62"/>
      </g>
      </g>
      </g>
      </g>
      </g>
      </g>
      </g>
  </g>
  <g transform="translate(1176.9, 635.4)">
      <g transform="translate(-0.98,-3.92) rotate(2.80) scale(1.000)">
        <g transform="translate(-3.21,-3.51) rotate(7.13) scale(0.980)">
        <g transform="translate(-4.66,-2.79) rotate(12.58) scale(0.960)">
        <g transform="translate(-4.96,-1.82) rotate(18.60) scale(0.940)" clip-path="url(#clipStar)">
        <g transform="translate(-4.05,-0.69) rotate(24.61) scale(0.920)">
        <g transform="translate(-2.15,0.51) rotate(29.99) scale(0.900)">
        <g transform="translate(0.28,1.66) rotate(34.13) scale(0.880)">
        <rect x="-32.9" y="-32.9" width="65.8" height="65.8" rx="16.4" fill="url(#lgrad1)" filter="url(#shadow)" opacity="0.73"/>
        <circle cx="0" cy="0" r="21.9" fill="url(#rgrad2)" opacity="0.51"/>
      </g>
      </g>
      </g>
      </g>
      </g>
      </g>
      </g>
  </g>
  <g transform="translate(1408.9, 644.1)">
      <g transform="translate(-4.66,-1.46) rotate(2.80) scale(1.000)">
        <g transform="translate(-4.96,-0.29) rotate(7.13) scale(0.980)">
        <g transform="translate(-4.05,0.90) rotate(12.58) scale(0.960)">
        <g transform="translate(-2.15,2.01) rotate(18.60) scale(0.940)">
        <g transform="translate(0.28,2.94) rotate(24.61) scale(0.920)">
        <g transform="translate(2.64,3.61) rotate(29.99) scale(0.900)" mask="url(#maskStripes)">
        <g transform="translate(4.35,3.96) rotate(34.13) scale(0.880)">
        <path d="M26.8,15.4 L0.0,30.9 L-26.8,15.4 L-26.8,-15.4 L-0.0,-30.9 L26.8,-15.4Z" fill="url(#rgrad2)" filter="url(#blur2)" opacity="0.82"/>
        <ellipse cx="0" cy="0" rx="12.9" ry="8.6" fill="#FFFFFF" opacity="0.41"/>
      </g>
      </g>
      </g>
      </g>
      </g>
      </g>
      </g>
  </g>
  <g transform="translate(1643.7, 660.2)">
      <g transform="translate(-4.05,2.35) rotate(2.80) scale(1.000)">
        <g transform="translate(-2.15,3.20) rotate(7.13) scale(0.980)">
        <g transform="translate(0.28,3.77) rotate(12.58) scale(0.960)">
        <g transform="translate(2.64,4.00) rotate(18.60) scale(0.940)">
        <g transform="translate(4.35,3.87) rotate(24.61) scale(0.920)">
        <g transform="translate(5.00,3.40) rotate(29.99) scale(0.900)">
        <g transform="translate(4.42,2.62) rotate(34.13) scale(0.880)">
        <circle cx="0" cy="0" r="22.5" fill="url(#rgrad3)" filter="url(#shadow)" opacity="0.87"/>
        <text x="0" y="5" text-anchor="middle" font-family="Arial, sans-serif" font-size="14" fill="#FFFFFF" opacity="0.87">190</text>
      </g>
      </g>
      </g>
      </g>
      </g>
      </g>
      </g>
  </g>
  <g transform="translate(117.5, 956.3)">
      <g transform="translate(0.28,3.99) rotate(2.80) scale(1.000)">
        <g transform="translate(2.64,3.75) rotate(7.13) scale(0.980)">
        <g transform="translate(4.35,3.17) rotate(12.58) scale(0.960)">
        <g transform="translate(5.00,2.31) rotate(18.60) scale(0.940)" clip-path="url(#clipDynamic)">
        <g transform="translate(4.42,1.24) rotate(24.61) scale(0.920)">
        <g transform="translate(2.76,0.06) rotate(29.99) scale(0.900)">
        <g transform="translate(0.43,-1.13) rotate(34.13) scale(0.880)">
        <path d="M0.0,-52.3 L15.4,-21.2 L49.7,-16.2 L24.9,8.1 L30.7,42.3 L0.0,26.2 L-30.7,42.3 L-24.9,8.1 L-49.7,-16.2 L-15.4,-21.2Z" fill="url(#lgrad4)" filter="url(#blur4)" opacity="0.90"/>
      </g>
      </g>
      </g>
      </g>
      </g>
      </g>
      </g>
  </g>
  <g transform="translate(392.8, 329.8)" mask="url(#maskGradient)">
    <ellipse cx="0" cy="0" rx="200" ry="150" fill="url(#rgrad0)" filter="url(#blur3)" opacity="0.3"/>
  </g>
  <g transform="translate(881.5, 275.0)" mask="url(#maskCircleFade)">
    <ellipse cx="0" cy="0" rx="200" ry="150" fill="url(#rgrad1)" filter="url(#blur3)" opacity="0.3"/>
  </g>
  <g transform="translate(1295.3, 231.9)" mask="url(#maskStripes)">
    <ellipse cx="0" cy="0" rx="200" ry="150" fill="url(#rgrad2)" filter="url(#blur3)" opacity="0.3"/>
  </g>
</svg>