<?xml version="1.0" encoding="UTF-8"?>
<svg xmlns="http://www.w3.org/2000/svg" viewBox="0 0 1920 1080" width="1920" height="1080">
  <defs>
    <filter id="blur0" x="-50%" y="-50%" width="200%" height="200%">
      <feGaussianBlur in="SourceGraphic" stdDeviation="1"/>
    </filter>
    <filter id="blur1" x="-50%" y="-50%" width="200%" height="200%">
      <feGaussianBlur in="SourceGraphic" stdDeviation="3"/>
    </filter>
    <filter id="blur2" x="-50%" y="-50%" width="200%" height="200%">
      <feGaussianBlur in="SourceGraphic" stdDeviation="5"/>
    </filter>
    <filter id="blur3" x="-50%" y="-50%" width="200%" height="200%">
      <feGaussianBlur in="SourceGraphic" stdDeviation="7"/>
    </filter>
    <filter id="blur4" x="-50%" y="-50%" width="200%" height="200%">
      <feGaussianBlur in="SourceGraphic" stdDeviation="9"/>
    </filter>
    <filter id="shadow" x="-50%" y="-50%" width="200%" height="200%">
      <feGaussianBlur in="SourceAlpha" stdDeviation="3" result="blur"/>
      <feOffset in="blur" dx="4" dy="4" result="offsetBlur"/>
      <feMerge>
        <feMergeNode in="offsetBlur"/>
        <feMergeNode in="SourceGraphic"/>
      </feMerge>
    </filter>
    <linearGradient id="lgrad0" x1="0%" y1="0%" x2="12.8%" y2="83.5%">
      <stop offset="0%" stop-color="#FF6B6B"/>
      <stop offset="33%" stop-color="#4ECDC4"/>
      <stop offset="66%" stop-color="#45B7D1"/>
      <stop offset="100%" stop-color="#96E6A1"/>
    </linearGradient>
    <linearGradient id="lgrad1" x1="0%" y1="0%" x2="1.1%" y2="60.4%">
      <stop offset="0%" stop-color="#FFE66D"/>
      <stop offset="33%" stop-color="#FF6B6B"/>
      <stop offset="66%" stop-color="#C44D58"/>
      <stop offset="100%" stop-color="#8B0000"/>
    </linearGradient>
    <linearGradient id="lgrad2" x1="0%" y1="0%" x2="2.4%" y2="34.5%">
      <stop offset="0%" stop-color="#4169E1"/>
      <stop offset="33%" stop-color="#7B68EE"/>
      <stop offset="66%" stop-color="#9370DB"/>
      <stop offset="100%" stop-color="#FFD700"/>
    </linearGradient>
    <linearGradient id="lgrad3" x1="0%" y1="0%" x2="16.5%" y2="12.8%">
      <stop offset="0%" stop-color="#32CD32"/>
      <stop offset="33%" stop-color="#228B22"/>
      <stop offset="66%" stop-color="#006400"/>
      <stop offset="100%" stop-color="#ADFF2F"/>
    </linearGradient>
    <linearGradient id="lgrad4" x1="0%" y1="0%" x2="39.6%" y2="1.1%">
      <stop offset="0%" stop-color="#FF1493"/>
      <stop offset="33%" stop-color="#FF69B4"/>
      <stop offset="66%" stop-color="#FFB6C1"/>
      <stop offset="100%" stop-color="#FFC0CB"/>
    </linearGradient>
    <radialGradient id="rgrad0" cx="61.8%" cy="51.2%" r="60%">
      <stop offset="0%" stop-color="#FF6B6B" stop-opacity="1"/>
      <stop offset="50%" stop-color="#4ECDC4" stop-opacity="0.8"/>
      <stop offset="100%" stop-color="#45B7D1" stop-opacity="0.6"/>
    </radialGradient>
    <radialGradient id="rgrad1" cx="31.8%" cy="59.2%" r="60%">
      <stop offset="0%" stop-color="#FFE66D" stop-opacity="1"/>
      <stop offset="50%" stop-color="#FF6B6B" stop-opacity="0.8"/>
      <stop offset="100%" stop-color="#C44D58" stop-opacity="0.6"/>
    </radialGradient>
    <radialGradient id="rgrad2" cx="41.8%" cy="67.2%" r="60%">
      <stop offset="0%" stop-color="#4169E1" stop-opacity="1"/>
      <stop offset="50%" stop-color="#7B68EE" stop-opacity="0.8"/>
      <stop offset="100%" stop-color="#9370DB" stop-opacity="0.6"/>
    </radialGradient>
    <radialGradient id="rgrad3" cx="51.8%" cy="35.2%" r="60%">
      <stop offset="0%" stop-color="#32CD32" stop-opacity="1"/>
      <stop offset="50%" stop-color="#228B22" stop-opacity="0.8"/>
      <stop offset="100%" stop-color="#006400" stop-opacity="0.6"/>
    </radialGradient>
    <radialGradient id="rgrad4" cx="61.8%" cy="43.2%" r="60%">
      <stop offset="0%" stop-color="#FF1493" stop-opacity="1"/>
      <stop offset="50%" stop-color="#FF69B4" stop-opacity="0.8"/>
      <stop offset="100%" stop-color="#FFB6C1" stop-opacity="0.6"/>
    </radialGradient>
    <clipPath id="clipCircle">
      <circle cx="0" cy="0" r="50"/>
    </clipPath>
    <clipPath id="clipStar">
      <path d="M0.0,-50.0 L14.7,-20.2 L47.6,-15.5 L23.8,7.7 L29.4,40.5 L0.0,25.0 L-29.4,40.5 L-23.8,7.7 L-47.6,-15.5 L-14.7,-20.2Z"/>
    </clipPath>
    <clipPath id="clipHex">
      <path d="M39.0,22.5 L0.0,45.0 L-39.0,22.5 L-39.0,-22.5 L-0.0,-45.0 L39.0,-22.5Z"/>
    </clipPath>
    <clipPath id="clipRect">
      <rect x="-40" y="-30" width="80" height="60" rx="10"/>
    </clipPath>
    <clipPath id="clipDynamic">
      <circle cx="0" cy="0" r="26.6"/>
    </clipPath>
    <mask id="maskGradient" maskContentUnits="objectBoundingBox">
      <rect x="0" y="0" width="1" height="1" fill="url(#maskGrad)"/>
    </mask>
    <linearGradient id="maskGrad" x1="0%" y1="0%" x2="100%" y2="100%">
      <stop offset="0%" stop-color="white"/>
      <stop offset="100%" stop-color="black"/>
    </linearGradient>
    <mask id="maskCircleFade">
      <circle cx="0" cy="0" r="60" fill="white"/>
      <circle cx="0" cy="0" r="30" fill="black"/>
    </mask>
    <mask id="maskStripes">
      <rect x="-50" y="-50" width="100" height="100" fill="white"/>
      <rect x="-50" y="-40" width="100" height="10" fill="black"/>
      <rect x="-50" y="-20" width="100" height="10" fill="black"/>
      <rect x="-50" y="0" width="100" height="10" fill="black"/>
      <rect x="-50" y="20" width="100" height="10" fill="black"/>
      <rect x="-50" y="40" width="100" height="10" fill="black"/>
    </mask>
    <mask id="maskDynamic">
      <rect x="-60" y="-60" width="120" height="120" fill="white" fill-opacity="0.50"/>
      <circle cx="0" cy="0" r="25" fill="white"/>
    </mask>
  </defs>
  <rect width="1920" height="1080" fill="url(#lgrad0)"/>
  <g transform="translate(83.3, 120.8)">
      <g transform="translate(-2.79,3.32) rotate(1.46) scale(1.000)">
        <g transform="translate(-0.46,3.83) rotate(0.95) scale(0.980)">
        <g transform="translate(1.99,4.00) rotate(-1.56) scale(0.960)">
        <g transform="translate(3.94,3.81) rotate(-5.99) scale(0.940)" clip-path="url(#clipCircle)">
        <g transform="translate(4.93,3.28) rotate(-12.08) scale(0.920)">
        <g transform="translate(4.72,2.46) rotate(-19.43) scale(0.900)">
        <g transform="translate(3.34,1.42) rotate(-27.51) scale(0.880)">
        <path d="M0.0,-64.4 L18.9,-26.0 L61.2,-19.9 L30.6,9.9 L37.8,52.1 L0.0,32.2 L-37.8,52.1 L-30.6,9.9 L-61.2,-19.9 L-18.9,-26.0Z" fill="url(#lgrad0)" filter="url(#blur0)" opacity="0.62"/>
      </g>
      </g>
      </g>
      </g>
      </g>
      </g>
      </g>
  </g>
  <g transform="translate(317.3, 124.9)">
      <g transform="translate(1.99,3.67) rotate(1.46) scale(1.000)">
        <g transform="translate(3.94,3.04) rotate(0.95) scale(0.980)">
        <g transform="translate(4.93,2.13) rotate(-1.56) scale(0.960)">
        <g transform="translate(4.72,1.04) rotate(-5.99) scale(0.940)">
        <g transform="translate(3.34,-0.15) rotate(-12.08) scale(0.920)">
        <g transform="translate(1.15,-1.33) rotate(-19.43) scale(0.900)" mask="url(#maskCircleFade)">
        <g transform="translate(-1.32,-2.38) rotate(-27.51) scale(0.880)">
        <rect x="-25.1" y="-25.1" width="50.3" height="50.3" rx="12.6" fill="url(#rgrad1)" filter="url(#shadow)" opacity="0.50"/>
        <circle cx="0" cy="0" r="16.8" fill="url(#rgrad2)" opacity="0.35"/>
      </g>
      </g>
      </g>
      </g>
      </g>
      </g>
      </g>
  </g>
  <g transform="translate(551.9, 117.3)">
      <g transform="translate(4.93,0.65) rotate(1.46) scale(1.000)">
        <g transform="translate(4.72,-0.55) rotate(0.95) scale(0.980)">
        <g transform="translate(3.34,-1.70) rotate(-1.56) scale(0.960)">
        <g transform="translate(1.15,-2.69) rotate(-5.99) scale(0.940)">
        <g transform="translate(-1.32,-3.45) rotate(-12.08) scale(0.920)">
        <g transform="translate(-3.47,-3.89) rotate(-19.43) scale(0.900)">
        <g transform="translate(-4.77,-3.99) rotate(-27.51) scale(0.880)">
        <path d="M23.5,13.5 L0.0,27.1 L-23.5,13.5 L-23.5,-13.5 L-0.0,-27.1 L23.5,-13.5Z" fill="url(#rgrad2)" filter="url(#blur2)" opacity="0.38"/>
        <ellipse cx="0" cy="0" rx="11.3" ry="7.5" fill="#FFFFFF" opacity="0.19"/>
      </g>
      </g>
      </g>
      </g>
      </g>
      </g>
      </g>
  </g>
  <g transform="translate(783.7, 101.5)">
      <g transform="translate(3.34,-2.97) rotate(1.46) scale(1.000)">
        <g transform="translate(1.15,-3.63) rotate(0.95) scale(0.980)">
        <g transform="translate(-1.32,-3.96) rotate(-1.56) scale(0.960)">
        <g transform="translate(-3.47,-3.94) rotate(-5.99) scale(0.940)" clip-path="url(#clipRect)">
        <g transform="translate(-4.77,-3.57) rotate(-12.08) scale(0.920)">
        <g transform="translate(-4.90,-2.88) rotate(-19.43) scale(0.900)">
        <g transform="translate(-3.84,-1.93) rotate(-27.51) scale(0.880)">
        <circle cx="0" cy="0" r="26.8" fill="url(#lgrad3)" filter="url(#shadow)" opacity="0.27"/>
        <text x="0" y="5" text-anchor="middle" font-family="Arial, sans-serif" font-size="14" fill="#FFFFFF" opacity="0.27">906</text>
      </g>
      </g>
      </g>
      </g>
      </g>
      </g>
      </g>
  </g>
  <g transform="translate(1009.6, 85.1)">
      <g transform="translate(-1.32,-3.86) rotate(1.46) scale(1.000)">
        <g transform="translate(-3.47,-3.37) rotate(0.95) scale(0.980)">
        <g transform="translate(-4.77,-2.59) rotate(-1.56) scale(0.960)">
        <g transform="translate(-4.90,-1.57) rotate(-5.99) scale(0.940)">
        <g transform="translate(-3.84,-0.41) rotate(-12.08) scale(0.920)">
        <g transform="translate(-1.83,0.78) rotate(-19.43) scale(0.900)" mask="url(#maskGradient)">
        <g transform="translate(0.63,1.91) rotate(-27.51) scale(0.880)">
        <path d="M0.0,-68.0 L20.0,-27.5 L64.7,-21.0 L32.3,10.5 L40.0,55.0 L0.0,34.0 L-40.0,55.0 L-32.3,10.5 L-64.7,-21.0 L-20.0,-27.5Z" fill="url(#rgrad4)" filter="url(#blur4)" opacity="0.19"/>
      </g>
      </g>
      </g>
      </g>
      </g>
      </g>
      </g>
  </g>
  <g transform="translate(1228.3, 75.7)">
      <g transform="translate(-4.77,-1.20) rotate(1.46) scale(1.000)">
        <g transform="translate(-4.90,-0.01) rotate(0.95) scale(0.980)">
        <g transform="translate(-3.84,1.17) rotate(-1.56) scale(0.960)">
        <g transform="translate(-1.83,2.25) rotate(-5.99) scale(0.940)">
        <g transform="translate(0.63,3.12) rotate(-12.08) scale(0.920)">
        <g transform="translate(2.93,3.72) rotate(-19.43) scale(0.900)">
        <g transform="translate(4.51,3.99) rotate(-27.51) scale(0.880)">
        <rect x="-37.5" y="-37.5" width="75.0" height="75.0" rx="18.7" fill="url(#rgrad0)" filter="url(#shadow)" opacity="0.13"/>
        <circle cx="0" cy="0" r="25.0" fill="url(#rgrad1)" opacity="0.09"/>
      </g>
      </g>
      </g>
      </g>
      </g>
      </g>
      </g>
  </g>
  <g transform="translate(1440.1, 77.7)">
      <g transform="translate(-3.84,2.57) rotate(1.46) scale(1.000)">
        <g transform="translate(-1.83,3.36) rotate(0.95) scale(0.980)">
        <g transform="translate(0.63,3.85) rotate(-1.56) scale(0.960)">
        <g transform="translate(2.93,4.00) rotate(-5.99) scale(0.940)" clip-path="url(#clipStar)">
        <g transform="translate(4.51,3.79) rotate(-12.08) scale(0.920)">
        <g transform="translate(4.99,3.24) rotate(-19.43) scale(0.900)">
        <g transform="translate(4.25,2.41) rotate(-27.51) scale(0.880)">
        <path d="M35.4,20.5 L0.0,40.9 L-35.4,20.5 L-35.4,-20.5 L-0.0,-40.9 L35.4,-20.5Z" fill="url(#lgrad1)" filter="url(#blur1)" opacity="0.10"/>
        <ellipse cx="0" cy="0" rx="17.1" ry="11.4" fill="#FFFFFF" opacity="0.05"/>
      </g>
      </g>
      </g>
      </g>
      </g>
      </g>
      </g>
  </g>
  <g transform="translate(1646.9, 90.2)">
      <g transform="translate(0.63,3.97) rotate(1.46) scale(1.000)">
        <g transform="translate(2.93,3.64) rotate(0.95) scale(0.980)">
        <g transform="translate(4.51,2.99) rotate(-1.56) scale(0.960)">
        <g transform="translate(4.99,2.07) rotate(-5.99) scale(0.940)">
        <g transform="translate(4.25,0.97) rotate(-12.08) scale(0.920)">
        <g transform="translate(2.47,-0.22) rotate(-19.43) scale(0.900)" mask="url(#maskDynamic)">
        <g transform="translate(0.08,-1.39) rotate(-27.51) scale(0.880)">
        <circle cx="0" cy="0" r="26.9" fill="url(#rgrad2)" filter="url(#shadow)" opacity="0.11"/>
        <text x="0" y="5" text-anchor="middle" font-family="Arial, sans-serif" font-size="14" fill="#FFFFFF" opacity="0.11">906</text>
      </g>
      </g>
      </g>
      </g>
      </g>
      </g>
      </g>
  </g>
  <g transform="translate(92.1, 387.3)">
      <g transform="translate(4.51,1.72) rotate(1.46) scale(1.000)">
        <g transform="translate(4.99,0.58) rotate(0.95) scale(0.980)">
        <g transform="translate(4.25,-0.62) rotate(-1.56) scale(0.960)">
        <g transform="translate(2.47,-1.76) rotate(-5.99) scale(0.940)">
        <g transform="translate(0.08,-2.74) rotate(-12.08) scale(0.920)">
        <g transform="translate(-2.33,-3.48) rotate(-19.43) scale(0.900)">
        <g transform="translate(-4.16,-3.91) rotate(-27.51) scale(0.880)">
        <path d="M0.0,-45.2 L13.3,-18.3 L43.0,-14.0 L21.5,7.0 L26.5,36.5 L0.0,22.6 L-26.5,36.5 L-21.5,7.0 L-43.0,-14.0 L-13.3,-18.3Z" fill="url(#rgrad3)" filter="url(#blur3)" opacity="0.16"/>
      </g>
      </g>
      </g>
      </g>
      </g>
      </g>
      </g>
  </g>
  <g transform="translate(299.2, 401.0)">
      <g transform="translate(4.25,-2.11) rotate(1.46) scale(1.000)">
        <g transform="translate(2.47,-3.02) rotate(0.95) scale(0.980)">
        <g transform="translate(0.08,-3.66) rotate(-1.56) scale(0.960)">
        <g transform="translate(-2.33,-3.97) rotate(-5.99) scale(0.940)" clip-path="url(#clipDynamic)">
        <g transform="translate(-4.16,-3.93) rotate(-12.08) scale(0.920)">
        <g transform="translate(-4.98,-3.54) rotate(-19.43) scale(0.900)">
        <g transform="translate(-4.58,-2.83) rotate(-27.51) scale(0.880)">
        <rect x="-25.1" y="-25.1" width="50.1" height="50.1" rx="12.5" fill="url(#lgrad4)" filter="url(#shadow)" opacity="0.23"/>
        <circle cx="0" cy="0" r="16.7" fill="url(#rgrad0)" opacity="0.16"/>
      </g>
      </g>
      </g>
      </g>
      </g>
      </g>
      </g>
  </g>
  <g transform="translate(511.4, 404.8)">
      <g transform="translate(0.08,-4.00) rotate(1.46) scale(1.000)">
        <g transform="translate(-2.33,-3.84) rotate(0.95) scale(0.980)">
        <g transform="translate(-4.16,-3.34) rotate(-1.56) scale(0.960)">
        <g transform="translate(-4.98,-2.54) rotate(-5.99) scale(0.940)">
        <g transform="translate(-4.58,-1.51) rotate(-12.08) scale(0.920)">
        <g transform="translate(-3.06,-0.35) rotate(-19.43) scale(0.900)" mask="url(#maskStripes)">
        <g transform="translate(-0.78,0.85) rotate(-27.51) scale(0.880)">
        <path d="M33.3,19.2 L0.0,38.5 L-33.3,19.2 L-33.3,-19.2 L-0.0,-38.5 L33.3,-19.2Z" fill="url(#rgrad0)" filter="url(#blur0)" opacity="0.33"/>
        <ellipse cx="0" cy="0" rx="16.0" ry="10.7" fill="#FFFFFF" opacity="0.17"/>
      </g>
      </g>
      </g>
      </g>
      </g>
      </g>
      </g>
  </g>
  <g transform="translate(730.6, 397.0)">
      <g transform="translate(-4.16,-2.21) rotate(1.46) scale(1.000)">
        <g transform="translate(-4.98,-1.13) rotate(0.95) scale(0.980)">
        <g transform="translate(-4.58,0.05) rotate(-1.56) scale(0.960)">
        <g transform="translate(-3.06,1.23) rotate(-5.99) scale(0.940)">
        <g transform="translate(-0.78,2.30) rotate(-12.08) scale(0.920)">
        <g transform="translate(1.68,3.17) rotate(-19.43) scale(0.900)">
        <g transform="translate(3.73,3.75) rotate(-27.51) scale(0.880)">
        <circle cx="0" cy="0" r="37.2" fill="url(#rgrad1)" filter="url(#shadow)" opacity="0.45"/>
        <text x="0" y="5" text-anchor="middle" font-family="Arial, sans-serif" font-size="14" fill="#FFFFFF" opacity="0.45">906</text>
      </g>
      </g>
      </g>
      </g>
      </g>
      </g>
      </g>
  </g>
  <g transform="translate(957.0, 381.1)">
      <g transform="translate(-4.58,1.61) rotate(1.46) scale(1.000)">
        <g transform="translate(-3.06,2.62) rotate(0.95) scale(0.980)">
        <g transform="translate(-0.78,3.39) rotate(-1.56) scale(0.960)">
        <g transform="translate(1.68,3.87) rotate(-5.99) scale(0.940)" clip-path="url(#clipHex)">
        <g transform="translate(3.73,4.00) rotate(-12.08) scale(0.920)">
        <g transform="translate(4.87,3.77) rotate(-19.43) scale(0.900)">
        <g transform="translate(4.82,3.20) rotate(-27.51) scale(0.880)">
        <path d="M0.0,-71.4 L21.0,-28.9 L67.9,-22.1 L33.9,11.0 L42.0,57.8 L0.0,35.7 L-42.0,57.8 L-33.9,11.0 L-67.9,-22.1 L-21.0,-28.9Z" fill="url(#lgrad2)" filter="url(#blur2)" opacity="0.56"/>
      </g>
      </g>
      </g>
      </g>
      </g>
      </g>
      </g>
  </g>
  <g transform="translate(1189.0, 364.8)">
      <g transform="translate(-0.78,3.95) rotate(1.46) scale(1.000)">
        <g transform="translate(1.68,3.96) rotate(0.95) scale(0.980)">
        <g transform="translate(3.73,3.61) rotate(-1.56) scale(0.960)">
        <g transform="translate(4.87,2.95) rotate(-5.99) scale(0.940)">
        <g transform="translate(4.82,2.02) rotate(-12.08) scale(0.920)">
        <g transform="translate(3.58,0.91) rotate(-19.43) scale(0.900)" mask="url(#maskCircleFade)">
        <g transform="translate(1.47,-0.29) rotate(-27.51) scale(0.880)">
        <rect x="-29.0" y="-29.0" width="57.9" height="57.9" rx="14.5" fill="url(#rgrad3)" filter="url(#shadow)" opacity="0.68"/>
        <circle cx="0" cy="0" r="19.3" fill="url(#rgrad4)" opacity="0.48"/>
      </g>
      </g>
      </g>
      </g>
      </g>
      </g>
      </g>
  </g>
  <g transform="translate(1423.8, 355.6)">
      <g transform="translate(3.73,2.66) rotate(1.46) scale(1.000)">
        <g transform="translate(4.87,1.66) rotate(0.95) scale(0.980)">
        <g transform="translate(4.82,0.51) rotate(-1.56) scale(0.960)">
        <g transform="translate(3.58,-0.68) rotate(-5.99) scale(0.940)">
        <g transform="translate(1.47,-1.82) rotate(-12.08) scale(0.920)">
        <g transform="translate(-1.00,-2.79) rotate(-19.43) scale(0.900)">
        <g transform="translate(-3.22,-3.51) rotate(-27.51) scale(0.880)">
        <path d="M24.1,13.9 L0.0,27.8 L-24.1,13.9 L-24.1,-13.9 L-0.0,-27.8 L24.1,-13.9Z" fill="url(#rgrad4)" filter="url(#blur4)" opacity="0.78"/>
        <ellipse cx="0" cy="0" rx="11.6" ry="7.7" fill="#FFFFFF" opacity="0.39"/>
      </g>
      </g>
      </g>
      </g>
      </g>
      </g>
      </g>
  </g>
  <g transform="translate(1657.6, 357.9)">
      <g transform="translate(4.82,-1.07) rotate(1.46) scale(1.000)">
        <g transform="translate(3.58,-2.16) rotate(0.95) scale(0.980)">
        <g transform="translate(1.47,-3.06) rotate(-1.56) scale(0.960)">
        <g transform="translate(-1.00,-3.69) rotate(-5.99) scale(0.940)" clip-path="url(#clipCircle)">
        <g transform="translate(-3.22,-3.98) rotate(-12.08) scale(0.920)">
        <g transform="translate(-4.66,-3.92) rotate(-19.43) scale(0.900)">
        <g transform="translate(-4.96,-3.51) rotate(-27.51) scale(0.880)">
        <circle cx="0" cy="0" r="23.7" fill="url(#lgrad0)" filter="url(#shadow)" opacity="0.85"/>
        <text x="0" y="5" text-anchor="middle" font-family="Arial, sans-serif" font-size="14" fill="#FFFFFF" opacity="0.85">906</text>
      </g>
      </g>
      </g>
      </g>
      </g>
      </g>
      </g>
  </g>
  <g transform="translate(127.1, 650.6)">
      <g transform="translate(1.47,-3.82) rotate(1.46) scale(1.000)">
        <g transform="translate(-1.00,-4.00) rotate(0.95) scale(0.980)">
        <g transform="translate(-3.22,-3.82) rotate(-1.56) scale(0.960)">
        <g transform="translate(-4.66,-3.30) rotate(-5.99) scale(0.940)">
        <g transform="translate(-4.96,-2.48) rotate(-12.08) scale(0.920)">
        <g transform="translate(-4.04,-1.45) rotate(-19.43) scale(0.900)" mask="url(#maskGradient)">
        <g transform="translate(-2.13,-0.28) rotate(-27.51) scale(0.880)">
        <path d="M0.0,-59.9 L17.6,-24.2 L57.0,-18.5 L28.5,9.3 L35.2,48.5 L0.0,30.0 L-35.2,48.5 L-28.5,9.3 L-57.0,-18.5 L-17.6,-24.2Z" fill="url(#rgrad1)" filter="url(#blur1)" opacity="0.89"/>
      </g>
      </g>
      </g>
      </g>
      </g>
      </g>
      </g>
  </g>
  <g transform="translate(350.0, 667.7)">
      <g transform="translate(-3.22,-3.06) rotate(1.46) scale(1.000)">
        <g transform="translate(-4.66,-2.16) rotate(0.95) scale(0.980)">
        <g transform="translate(-4.96,-1.07) rotate(-1.56) scale(0.960)">
        <g transform="translate(-4.04,0.12) rotate(-5.99) scale(0.940)">
        <g transform="translate(-2.13,1.30) rotate(-12.08) scale(0.920)">
        <g transform="translate(0.30,2.36) rotate(-19.43) scale(0.900)">
        <g transform="translate(2.65,3.21) rotate(-27.51) scale(0.880)">
        <rect x="-36.3" y="-36.3" width="72.6" height="72.6" rx="18.1" fill="url(#rgrad2)" filter="url(#shadow)" opacity="0.90"/>
        <circle cx="0" cy="0" r="24.2" fill="url(#rgrad3)" opacity="0.63"/>
      </g>
      </g>
      </g>
      </g>
      </g>
      </g>
      </g>
  </g>
  <g transform="translate(565.5, 681.2)">
      <g transform="translate(-4.96,0.52) rotate(1.46) scale(1.000)">
        <g transform="translate(-4.04,1.67) rotate(0.95) scale(0.980)">
        <g transform="translate(-2.13,2.67) rotate(-1.56) scale(0.960)">
        <g transform="translate(0.30,3.43) rotate(-5.99) scale(0.940)" clip-path="url(#clipRect)">
        <g transform="translate(2.65,3.88) rotate(-12.08) scale(0.920)">
        <g transform="translate(4.36,3.99) rotate(-19.43) scale(0.900)">
        <g transform="translate(5.00,3.74) rotate(-27.51) scale(0.880)">
        <path d="M38.3,22.1 L0.0,44.2 L-38.3,22.1 L-38.3,-22.1 L-0.0,-44.2 L38.3,-22.1Z" fill="url(#lgrad3)" filter="url(#blur3)" opacity="0.87"/>
        <ellipse cx="0" cy="0" rx="18.4" ry="12.3" fill="#FFFFFF" opacity="0.43"/>
      </g>
      </g>
      </g>
      </g>
      </g>
      </g>
      </g>
  </g>
  <g transform="translate(774.8, 684.7)">
      <g transform="translate(-2.13,3.62) rotate(1.46) scale(1.000)">
        <g transform="translate(0.30,3.96) rotate(0.95) scale(0.980)">
        <g transform="translate(2.65,3.95) rotate(-1.56) scale(0.960)">
        <g transform="translate(4.36,3.59) rotate(-5.99) scale(0.940)">
        <g transform="translate(5.00,2.90) rotate(-12.08) scale(0.920)">
        <g transform="translate(4.42,1.96) rotate(-19.43) scale(0.900)" mask="url(#maskDynamic)">
        <g transform="translate(2.75,0.84) rotate(-27.51) scale(0.880)">
        <circle cx="0" cy="0" r="31.1" fill="url(#rgrad4)" filter="url(#shadow)" opacity="0.81"/>
        <text x="0" y="5" text-anchor="middle" font-family="Arial, sans-serif" font-size="14" fill="#FFFFFF" opacity="0.81">906</text>
      </g>
      </g>
      </g>
      </g>
      </g>
      </g>
      </g>
  </g>
  <g transform="translate(980.5, 676.6)">
      <g transform="translate(2.65,3.39) rotate(1.46) scale(1.000)">
        <g transform="translate(4.36,2.61) rotate(0.95) scale(0.980)">
        <g transform="translate(5.00,1.60) rotate(-1.56) scale(0.960)">
        <g transform="translate(4.42,0.45) rotate(-5.99) scale(0.940)">
        <g transform="translate(2.75,-0.75) rotate(-12.08) scale(0.920)">
        <g transform="translate(0.41,-1.88) rotate(-19.43) scale(0.900)">
        <g transform="translate(-2.03,-2.84) rotate(-27.51) scale(0.880)">
        <path d="M0.0,-48.7 L14.3,-19.7 L46.3,-15.0 L23.2,7.5 L28.6,39.4 L0.0,24.3 L-28.6,39.4 L-23.2,7.5 L-46.3,-15.0 L-14.3,-19.7Z" fill="url(#rgrad0)" filter="url(#blur0)" opacity="0.72"/>
      </g>
      </g>
      </g>
      </g>
      </g>
      </g>
      </g>
  </g>
  <g transform="translate(1186.0, 660.7)">
      <g transform="translate(5.00,0.05) rotate(1.46) scale(1.000)">
        <g transform="translate(4.42,-1.14) rotate(0.95) scale(0.980)">
        <g transform="translate(2.75,-2.22) rotate(-1.56) scale(0.960)">
        <g transform="translate(0.41,-3.10) rotate(-5.99) scale(0.940)" clip-path="url(#clipStar)">
        <g transform="translate(-2.03,-3.71) rotate(-12.08) scale(0.920)">
        <g transform="translate(-3.97,-3.99) rotate(-19.43) scale(0.900)">
        <g transform="translate(-4.94,-3.91) rotate(-27.51) scale(0.880)">
        <rect x="-22.8" y="-22.8" width="45.6" height="45.6" rx="11.4" fill="url(#lgrad1)" filter="url(#shadow)" opacity="0.61"/>
        <circle cx="0" cy="0" r="15.2" fill="url(#rgrad2)" opacity="0.43"/>
      </g>
      </g>
      </g>
      </g>
      </g>
      </g>
      </g>
  </g>
  <g transform="translate(1395.0, 644.4)">
      <g transform="translate(2.75,-3.34) rotate(1.46) scale(1.000)">
        <g transform="translate(0.41,-3.84) rotate(0.95) scale(0.980)">
        <g transform="translate(-2.03,-4.00) rotate(-1.56) scale(0.960)">
        <g transform="translate(-3.97,-3.80) rotate(-5.99) scale(0.940)">
        <g transform="translate(-4.94,-3.26) rotate(-12.08) scale(0.920)">
        <g transform="translate(-4.70,-2.43) rotate(-19.43) scale(0.900)" mask="url(#maskStripes)">
        <g transform="translate(-3.31,-1.38) rotate(-27.51) scale(0.880)">
        <path d="M29.0,16.7 L0.0,33.5 L-29.0,16.7 L-29.0,-16.7 L-0.0,-33.5 L29.0,-16.7Z" fill="url(#rgrad2)" filter="url(#blur2)" opacity="0.49"/>
        <ellipse cx="0" cy="0" rx="13.9" ry="9.3" fill="#FFFFFF" opacity="0.25"/>
      </g>
      </g>
      </g>
      </g>
      </g>
      </g>
      </g>
  </g>
  <g transform="translate(1610.1, 635.5)">
      <g transform="translate(-2.03,-3.66) rotate(1.46) scale(1.000)">
        <g transform="translate(-3.97,-3.01) rotate(0.95) scale(0.980)">
        <g transform="translate(-4.94,-2.10) rotate(-1.56) scale(0.960)">
        <g transform="translate(-4.70,-1.00) rotate(-5.99) scale(0.940)">
        <g transform="translate(-3.31,0.19) rotate(-12.08) scale(0.920)">
        <g transform="translate(-1.11,1.36) rotate(-19.43) scale(0.900)">
        <g transform="translate(1.36,2.41) rotate(-27.51) scale(0.880)">
        <circle cx="0" cy="0" r="34.9" fill="url(#rgrad3)" filter="url(#shadow)" opacity="0.37"/>
        <text x="0" y="5" text-anchor="middle" font-family="Arial, sans-serif" font-size="14" fill="#FFFFFF" opacity="0.37">906</text>
      </g>
      </g>
      </g>
      </g>
      </g>
      </g>
      </g>
  </g>
  <g transform="translate(72.5, 918.1)">
      <g transform="translate(-4.94,-0.61) rotate(1.46) scale(1.000)">
        <g transform="translate(-4.70,0.59) rotate(0.95) scale(0.980)">
        <g transform="translate(-3.31,1.73) rotate(-1.56) scale(0.960)">
        <g transform="translate(-1.11,2.72) rotate(-5.99) scale(0.940)" clip-path="url(#clipDynamic)">
        <g transform="translate(1.36,3.46) rotate(-12.08) scale(0.920)">
        <g transform="translate(3.50,3.90) rotate(-19.43) scale(0.900)">
        <g transform="translate(4.78,3.99) rotate(-27.51) scale(0.880)">
        <path d="M0.0,-74.8 L22.0,-30.3 L71.2,-23.1 L35.6,11.6 L44.0,60.6 L0.0,37.4 L-44.0,60.6 L-35.6,11.6 L-71.2,-23.1 L-22.0,-30.3Z" fill="url(#lgrad4)" filter="url(#blur4)" opacity="0.27"/>
      </g>
      </g>
      </g>
      </g>
      </g>
      </g>
      </g>
  </g>
  <g transform="translate(244.3, 366.4)" mask="url(#maskGradient)">
    <ellipse cx="0" cy="0" rx="200" ry="150" fill="url(#rgrad0)" filter="url(#blur3)" opacity="0.3"/>
  </g>
  <g transform="translate(839.7, 379.5)" mask="url(#maskCircleFade)">
    <ellipse cx="0" cy="0" rx="200" ry="150" fill="url(#rgrad1)" filter="url(#blur3)" opacity="0.3"/>
  </g>
  <g transform="translate(1398.7, 355.2)" mask="url(#maskStripes)">
    <ellipse cx="0" cy="0" rx="200" ry="150" fill="url(#rgrad2)" filter="url(#blur3)" opacity="0.3"/>
  </g>
</svg>