<?xml version="1.0" encoding="UTF-8"?>
<svg xmlns="http://www.w3.org/2000/svg" viewBox="0 0 1920 1080" width="1920" height="1080">
  <defs>
    <filter id="blur0" x="-50%" y="-50%" width="200%" height="200%">
      <feGaussianBlur in="SourceGraphic" stdDeviation="1"/>
    </filter>
    <filter id="blur1" x="-50%" y="-50%" width="200%" height="200%">
      <feGaussianBlur in="SourceGraphic" stdDeviation="3"/>
    </filter>
    <filter id="blur2" x="-50%" y="-50%" width="200%" height="200%">
      <feGaussianBlur in="SourceGraphic" stdDeviation="5"/>
    </filter>
    <filter id="blur3" x="-50%" y="-50%" width="200%" height="200%">
      <feGaussianBlur in="SourceGraphic" stdDeviation="7"/>
    </filter>
    <filter id="blur4" x="-50%" y="-50%" width="200%" height="200%">
      <feGaussianBlur in="SourceGraphic" stdDeviation="9"/>
    </filter>
    <filter id="shadow" x="-50%" y="-50%" width="200%" height="200%">
      <feGaussianBlur in="SourceAlpha" stdDeviation="3" result="blur"/>
      <feOffset in="blur" dx="4" dy="4" result="offsetBlur"/>
      <feMerge>
        <feMergeNode in="offsetBlur"/>
        <feMergeNode in="SourceGraphic"/>
      </feMerge>
    </filter>
    <linearGradient id="lgrad0" x1="0%" y1="0%" x2="28.9%" y2="95.3%">
      <stop offset="0%" stop-color="#FF6B6B"/>
      <stop offset="33%" stop-color="#4ECDC4"/>
      <stop offset="66%" stop-color="#45B7D1"/>
      <stop offset="100%" stop-color="#96E6A1"/>
    </linearGradient>
    <linearGradient id="lgrad1" x1="0%" y1="0%" x2="9.0%" y2="78.7%">
      <stop offset="0%" stop-color="#FFE66D"/>
      <stop offset="33%" stop-color="#FF6B6B"/>
      <stop offset="66%" stop-color="#C44D58"/>
      <stop offset="100%" stop-color="#8B0000"/>
    </linearGradient>
    <linearGradient id="lgrad2" x1="0%" y1="0%" x2="0.2%" y2="54.4%">
      <stop offset="0%" stop-color="#4169E1"/>
      <stop offset="33%" stop-color="#7B68EE"/>
      <stop offset="66%" stop-color="#9370DB"/>
      <stop offset="100%" stop-color="#FFD700"/>
    </linearGradient>
    <linearGradient id="lgrad3" x1="0%" y1="0%" x2="4.7%" y2="28.9%">
      <stop offset="0%" stop-color="#32CD32"/>
      <stop offset="33%" stop-color="#228B22"/>
      <stop offset="66%" stop-color="#006400"/>
      <stop offset="100%" stop-color="#ADFF2F"/>
    </linearGradient>
    <linearGradient id="lgrad4" x1="0%" y1="0%" x2="21.3%" y2="9.0%">
      <stop offset="0%" stop-color="#FF1493"/>
      <stop offset="33%" stop-color="#FF69B4"/>
      <stop offset="66%" stop-color="#FFB6C1"/>
      <stop offset="100%" stop-color="#FFC0CB"/>
    </linearGradient>
    <radialGradient id="rgrad0" cx="48.0%" cy="42.0%" r="60%">
      <stop offset="0%" stop-color="#FF6B6B" stop-opacity="1"/>
      <stop offset="50%" stop-color="#4ECDC4" stop-opacity="0.8"/>
      <stop offset="100%" stop-color="#45B7D1" stop-opacity="0.6"/>
    </radialGradient>
    <radialGradient id="rgrad1" cx="58.0%" cy="50.0%" r="60%">
      <stop offset="0%" stop-color="#FFE66D" stop-opacity="1"/>
      <stop offset="50%" stop-color="#FF6B6B" stop-opacity="0.8"/>
      <stop offset="100%" stop-color="#C44D58" stop-opacity="0.6"/>
    </radialGradient>
    <radialGradient id="rgrad2" cx="68.0%" cy="58.0%" r="60%">
      <stop offset="0%" stop-color="#4169E1" stop-opacity="1"/>
      <stop offset="50%" stop-color="#7B68EE" stop-opacity="0.8"/>
      <stop offset="100%" stop-color="#9370DB" stop-opacity="0.6"/>
    </radialGradient>
    <radialGradient id="rgrad3" cx="38.0%" cy="66.0%" r="60%">
      <stop offset="0%" stop-color="#32CD32" stop-opacity="1"/>
      <stop offset="50%" stop-color="#228B22" stop-opacity="0.8"/>
      <stop offset="100%" stop-color="#006400" stop-opacity="0.6"/>
    </radialGradient>
    <radialGradient id="rgrad4" cx="48.0%" cy="34.0%" r="60%">
      <stop offset="0%" stop-color="#FF1493" stop-opacity="1"/>
      <stop offset="50%" stop-color="#FF69B4" stop-opacity="0.8"/>
      <stop offset="100%" stop-color="#FFB6C1" stop-opacity="0.6"/>
    </radialGradient>
    <clipPath id="clipCircle">
      <circle cx="0" cy="0" r="50"/>
    </clipPath>
    <clipPath id="clipStar">
      <path d="M0.0,-50.0 L14.7,-20.2 L47.6,-15.5 L23.8,7.7 L29.4,40.5 L0.0,25.0 L-29.4,40.5 L-23.8,7.7 L-47.6,-15.5 L-14.7,-20.2Z"/>
    </clipPath>
    <clipPath id="clipHex">
      <path d="M39.0,22.5 L0.0,45.0 L-39.0,22.5 L-39.0,-22.5 L-0.0,-45.0 L39.0,-22.5Z"/>
    </clipPath>
    <clipPath id="clipRect">
      <rect x="-40" y="-30" width="80" height="60" rx="10"/>
    </clipPath>
    <clipPath id="clipDynamic">
      <circle cx="0" cy="0" r="23.4"/>
    </clipPath>
    <mask id="maskGradient" maskContentUnits="objectBoundingBox">
      <rect x="0" y="0" width="1" height="1" fill="url(#maskGrad)"/>
    </mask>
    <linearGradient id="maskGrad" x1="0%" y1="0%" x2="100%" y2="100%">
      <stop offset="0%" stop-color="white"/>
      <stop offset="100%" stop-color="black"/>
    </linearGradient>
    <mask id="maskCircleFade">
      <circle cx="0" cy="0" r="60" fill="white"/>
      <circle cx="0" cy="0" r="30" fill="black"/>
    </mask>
    <mask id="maskStripes">
      <rect x="-50" y="-50" width="100" height="100" fill="white"/>
      <rect x="-50" y="-40" width="100" height="10" fill="black"/>
      <rect x="-50" y="-20" width="100" height="10" fill="black"/>
      <rect x="-50" y="0" width="100" height="10" fill="black"/>
      <rect x="-50" y="20" width="100" height="10" fill="black"/>
      <rect x="-50" y="40" width="100" height="10" fill="black"/>
    </mask>
    <mask id="maskDynamic">
      <rect x="-60" y="-60" width="120" height="120" fill="white" fill-opacity="0.60"/>
      <circle cx="0" cy="0" r="25" fill="white"/>
    </mask>
  </defs>
  <rect width="1920" height="1080" fill="url(#lgrad0)"/>
  <g transform="translate(76.9, 115.9)">
      <g transform="translate(-3.86,2.55) rotate(2.13) scale(1.000)">
        <g transform="translate(-1.86,3.34) rotate(2.38) scale(0.980)">
        <g transform="translate(0.60,3.84) rotate(0.60) scale(0.960)">
        <g transform="translate(2.90,4.00) rotate(-3.18) scale(0.940)" clip-path="url(#clipCircle)">
        <g transform="translate(4.50,3.80) rotate(-8.80) scale(0.920)">
        <g transform="translate(4.99,3.26) rotate(-15.93) scale(0.900)">
        <g transform="translate(4.27,2.42) rotate(-24.11) scale(0.880)">
        <path d="M0.0,-66.4 L19.5,-26.9 L63.1,-20.5 L31.6,10.3 L39.0,53.7 L0.0,33.2 L-39.0,53.7 L-31.6,10.3 L-63.1,-20.5 L-19.5,-26.9Z" fill="url(#lgrad0)" filter="url(#blur0)" opacity="0.67"/>
      </g>
      </g>
      </g>
      </g>
      </g>
      </g>
      </g>
  </g>
  <g transform="translate(308.9, 124.6)">
      <g transform="translate(0.60,3.97) rotate(2.13) scale(1.000)">
        <g transform="translate(2.90,3.65) rotate(2.38) scale(0.980)">
        <g transform="translate(4.50,3.01) rotate(0.60) scale(0.960)">
        <g transform="translate(4.99,2.10) rotate(-3.18) scale(0.940)">
        <g transform="translate(4.27,0.99) rotate(-8.80) scale(0.920)">
        <g transform="translate(2.49,-0.19) rotate(-15.93) scale(0.900)" mask="url(#maskCircleFade)">
        <g transform="translate(0.11,-1.37) rotate(-24.11) scale(0.880)">
        <rect x="-26.0" y="-26.0" width="52.0" height="52.0" rx="13.0" fill="url(#rgrad1)" filter="url(#shadow)" opacity="0.56"/>
        <circle cx="0" cy="0" r="17.3" fill="url(#rgrad2)" opacity="0.39"/>
      </g>
      </g>
      </g>
      </g>
      </g>
      </g>
      </g>
  </g>
  <g transform="translate(543.6, 121.7)">
      <g transform="translate(4.50,1.74) rotate(2.13) scale(1.000)">
        <g transform="translate(4.99,0.60) rotate(2.38) scale(0.980)">
        <g transform="translate(4.27,-0.59) rotate(0.60) scale(0.960)">
        <g transform="translate(2.49,-1.74) rotate(-3.18) scale(0.940)">
        <g transform="translate(0.11,-2.72) rotate(-8.80) scale(0.920)">
        <g transform="translate(-2.30,-3.47) rotate(-15.93) scale(0.900)">
        <g transform="translate(-4.15,-3.90) rotate(-24.11) scale(0.880)">
        <path d="M23.4,13.5 L0.0,27.0 L-23.4,13.5 L-23.4,-13.5 L-0.0,-27.0 L23.4,-13.5Z" fill="url(#rgrad2)" filter="url(#blur2)" opacity="0.44"/>
        <ellipse cx="0" cy="0" rx="11.3" ry="7.5" fill="#FFFFFF" opacity="0.22"/>
      </g>
      </g>
      </g>
      </g>
      </g>
      </g>
      </g>
  </g>
  <g transform="translate(777.4, 108.6)">
      <g transform="translate(4.27,-2.09) rotate(2.13) scale(1.000)">
        <g transform="translate(2.49,-3.00) rotate(2.38) scale(0.980)">
        <g transform="translate(0.11,-3.65) rotate(0.60) scale(0.960)">
        <g transform="translate(-2.30,-3.97) rotate(-3.18) scale(0.940)" clip-path="url(#clipRect)">
        <g transform="translate(-4.15,-3.94) rotate(-8.80) scale(0.920)">
        <g transform="translate(-4.98,-3.55) rotate(-15.93) scale(0.900)">
        <g transform="translate(-4.59,-2.85) rotate(-24.11) scale(0.880)">
        <circle cx="0" cy="0" r="25.9" fill="url(#lgrad3)" filter="url(#shadow)" opacity="0.32"/>
        <text x="0" y="5" text-anchor="middle" font-family="Arial, sans-serif" font-size="14" fill="#FFFFFF" opacity="0.32">860</text>
      </g>
      </g>
      </g>
      </g>
      </g>
      </g>
      </g>
  </g>
  <g transform="translate(1007.0, 91.5)">
      <g transform="translate(0.11,-4.00) rotate(2.13) scale(1.000)">
        <g transform="translate(-2.30,-3.85) rotate(2.38) scale(0.980)">
        <g transform="translate(-4.15,-3.35) rotate(0.60) scale(0.960)">
        <g transform="translate(-4.98,-2.56) rotate(-3.18) scale(0.940)">
        <g transform="translate(-4.59,-1.53) rotate(-8.80) scale(0.920)">
        <g transform="translate(-3.08,-0.37) rotate(-15.93) scale(0.900)" mask="url(#maskGradient)">
        <g transform="translate(-0.81,0.82) rotate(-24.11) scale(0.880)">
        <path d="M0.0,-66.1 L19.4,-26.7 L62.9,-20.4 L31.4,10.2 L38.8,53.5 L0.0,33.0 L-38.8,53.5 L-31.4,10.2 L-62.9,-20.4 L-19.4,-26.7Z" fill="url(#rgrad4)" filter="url(#blur4)" opacity="0.22"/>
      </g>
      </g>
      </g>
      </g>
      </g>
      </g>
      </g>
  </g>
  <g transform="translate(1230.0, 78.3)">
      <g transform="translate(-4.15,-2.24) rotate(2.13) scale(1.000)">
        <g transform="translate(-4.98,-1.15) rotate(2.38) scale(0.980)">
        <g transform="translate(-4.59,0.03) rotate(0.60) scale(0.960)">
        <g transform="translate(-3.08,1.21) rotate(-3.18) scale(0.940)">
        <g transform="translate(-0.81,2.28) rotate(-8.80) scale(0.920)">
        <g transform="translate(1.65,3.15) rotate(-15.93) scale(0.900)">
        <g transform="translate(3.71,3.74) rotate(-24.11) scale(0.880)">
        <rect x="-37.4" y="-37.4" width="74.8" height="74.8" rx="18.7" fill="url(#rgrad0)" filter="url(#shadow)" opacity="0.15"/>
        <circle cx="0" cy="0" r="24.9" fill="url(#rgrad1)" opacity="0.11"/>
      </g>
      </g>
      </g>
      </g>
      </g>
      </g>
      </g>
  </g>
  <g transform="translate(1445.6, 75.4)">
      <g transform="translate(-4.59,1.58) rotate(2.13) scale(1.000)">
        <g transform="translate(-3.08,2.60) rotate(2.38) scale(0.980)">
        <g transform="translate(-0.81,3.38) rotate(0.60) scale(0.960)">
        <g transform="translate(1.65,3.86) rotate(-3.18) scale(0.940)" clip-path="url(#clipStar)">
        <g transform="translate(3.71,4.00) rotate(-8.80) scale(0.920)">
        <g transform="translate(4.86,3.78) rotate(-15.93) scale(0.900)">
        <g transform="translate(4.82,3.22) rotate(-24.11) scale(0.880)">
        <path d="M36.3,21.0 L0.0,42.0 L-36.3,21.0 L-36.3,-21.0 L-0.0,-42.0 L36.3,-21.0Z" fill="url(#lgrad1)" filter="url(#blur1)" opacity="0.11"/>
        <ellipse cx="0" cy="0" rx="17.5" ry="11.7" fill="#FFFFFF" opacity="0.05"/>
      </g>
      </g>
      </g>
      </g>
      </g>
      </g>
      </g>
  </g>
  <g transform="translate(1655.0, 84.0)">
      <g transform="translate(-0.81,3.95) rotate(2.13) scale(1.000)">
        <g transform="translate(1.65,3.96) rotate(2.38) scale(0.980)">
        <g transform="translate(3.71,3.63) rotate(0.60) scale(0.960)">
        <g transform="translate(4.86,2.96) rotate(-3.18) scale(0.940)">
        <g transform="translate(4.82,2.04) rotate(-8.80) scale(0.920)">
        <g transform="translate(3.61,0.93) rotate(-15.93) scale(0.900)" mask="url(#maskDynamic)">
        <g transform="translate(1.50,-0.26) rotate(-24.11) scale(0.880)">
        <circle cx="0" cy="0" r="28.0" fill="url(#rgrad2)" filter="url(#shadow)" opacity="0.10"/>
        <text x="0" y="5" text-anchor="middle" font-family="Arial, sans-serif" font-size="14" fill="#FFFFFF" opacity="0.10">860</text>
      </g>
      </g>
      </g>
      </g>
      </g>
      </g>
      </g>
  </g>
  <g transform="translate(100.7, 380.2)">
      <g transform="translate(3.71,2.68) rotate(2.13) scale(1.000)">
        <g transform="translate(4.86,1.68) rotate(2.38) scale(0.980)">
        <g transform="translate(4.82,0.54) rotate(0.60) scale(0.960)">
        <g transform="translate(3.61,-0.66) rotate(-3.18) scale(0.940)">
        <g transform="translate(1.50,-1.80) rotate(-8.80) scale(0.920)">
        <g transform="translate(-0.97,-2.77) rotate(-15.93) scale(0.900)">
        <g transform="translate(-3.20,-3.50) rotate(-24.11) scale(0.880)">
        <path d="M0.0,-45.6 L13.4,-18.5 L43.4,-14.1 L21.7,7.1 L26.8,36.9 L0.0,22.8 L-26.8,36.9 L-21.7,7.1 L-43.4,-14.1 L-13.4,-18.5Z" fill="url(#rgrad3)" filter="url(#blur3)" opacity="0.13"/>
      </g>
      </g>
      </g>
      </g>
      </g>
      </g>
      </g>
  </g>
  <g transform="translate(306.2, 396.2)">
      <g transform="translate(4.82,-1.05) rotate(2.13) scale(1.000)">
        <g transform="translate(3.61,-2.14) rotate(2.38) scale(0.980)">
        <g transform="translate(1.50,-3.05) rotate(0.60) scale(0.960)">
        <g transform="translate(-0.97,-3.68) rotate(-3.18) scale(0.940)" clip-path="url(#clipDynamic)">
        <g transform="translate(-3.20,-3.98) rotate(-8.80) scale(0.920)">
        <g transform="translate(-4.65,-3.92) rotate(-15.93) scale(0.900)">
        <g transform="translate(-4.96,-3.52) rotate(-24.11) scale(0.880)">
        <rect x="-24.3" y="-24.3" width="48.6" height="48.6" rx="12.1" fill="url(#lgrad4)" filter="url(#shadow)" opacity="0.19"/>
        <circle cx="0" cy="0" r="16.2" fill="url(#rgrad0)" opacity="0.13"/>
      </g>
      </g>
      </g>
      </g>
      </g>
      </g>
      </g>
  </g>
  <g transform="translate(515.1, 404.7)">
      <g transform="translate(1.50,-3.82) rotate(2.13) scale(1.000)">
        <g transform="translate(-0.97,-4.00) rotate(2.38) scale(0.980)">
        <g transform="translate(-3.20,-3.83) rotate(0.60) scale(0.960)">
        <g transform="translate(-4.65,-3.31) rotate(-3.18) scale(0.940)">
        <g transform="translate(-4.96,-2.50) rotate(-8.80) scale(0.920)">
        <g transform="translate(-4.06,-1.47) rotate(-15.93) scale(0.900)" mask="url(#maskStripes)">
        <g transform="translate(-2.16,-0.30) rotate(-24.11) scale(0.880)">
        <path d="M32.2,18.6 L0.0,37.2 L-32.2,18.6 L-32.2,-18.6 L-0.0,-37.2 L32.2,-18.6Z" fill="url(#rgrad0)" filter="url(#blur0)" opacity="0.28"/>
        <ellipse cx="0" cy="0" rx="15.5" ry="10.3" fill="#FFFFFF" opacity="0.14"/>
      </g>
      </g>
      </g>
      </g>
      </g>
      </g>
      </g>
  </g>
  <g transform="translate(730.1, 401.5)">
      <g transform="translate(-3.20,-3.07) rotate(2.13) scale(1.000)">
        <g transform="translate(-4.65,-2.18) rotate(2.38) scale(0.980)">
        <g transform="translate(-4.96,-1.09) rotate(0.60) scale(0.960)">
        <g transform="translate(-4.06,0.10) rotate(-3.18) scale(0.940)">
        <g transform="translate(-2.16,1.27) rotate(-8.80) scale(0.920)">
        <g transform="translate(0.27,2.34) rotate(-15.93) scale(0.900)">
        <g transform="translate(2.63,3.19) rotate(-24.11) scale(0.880)">
        <circle cx="0" cy="0" r="36.8" fill="url(#rgrad1)" filter="url(#shadow)" opacity="0.39"/>
        <text x="0" y="5" text-anchor="middle" font-family="Arial, sans-serif" font-size="14" fill="#FFFFFF" opacity="0.39">860</text>
      </g>
      </g>
      </g>
      </g>
      </g>
      </g>
      </g>
  </g>
  <g transform="translate(952.5, 388.2)">
      <g transform="translate(-4.96,0.49) rotate(2.13) scale(1.000)">
        <g transform="translate(-4.06,1.65) rotate(2.38) scale(0.980)">
        <g transform="translate(-2.16,2.65) rotate(0.60) scale(0.960)">
        <g transform="translate(0.27,3.42) rotate(-3.18) scale(0.940)" clip-path="url(#clipHex)">
        <g transform="translate(2.63,3.88) rotate(-8.80) scale(0.920)">
        <g transform="translate(4.34,3.99) rotate(-15.93) scale(0.900)">
        <g transform="translate(5.00,3.75) rotate(-24.11) scale(0.880)">
        <path d="M0.0,-72.7 L21.4,-29.4 L69.1,-22.5 L34.6,11.2 L42.7,58.8 L0.0,36.3 L-42.7,58.8 L-34.6,11.2 L-69.1,-22.5 L-21.4,-29.4Z" fill="url(#lgrad2)" filter="url(#blur2)" opacity="0.51"/>
      </g>
      </g>
      </g>
      </g>
      </g>
      </g>
      </g>
  </g>
  <g transform="translate(1181.5, 371.1)">
      <g transform="translate(-2.16,3.61) rotate(2.13) scale(1.000)">
        <g transform="translate(0.27,3.96) rotate(2.38) scale(0.980)">
        <g transform="translate(2.63,3.95) rotate(0.60) scale(0.960)">
        <g transform="translate(4.34,3.60) rotate(-3.18) scale(0.940)">
        <g transform="translate(5.00,2.92) rotate(-8.80) scale(0.920)">
        <g transform="translate(4.43,1.98) rotate(-15.93) scale(0.900)" mask="url(#maskCircleFade)">
        <g transform="translate(2.78,0.86) rotate(-24.11) scale(0.880)">
        <rect x="-30.0" y="-30.0" width="60.1" height="60.1" rx="15.0" fill="url(#rgrad3)" filter="url(#shadow)" opacity="0.63"/>
        <circle cx="0" cy="0" r="20.0" fill="url(#rgrad4)" opacity="0.44"/>
      </g>
      </g>
      </g>
      </g>
      </g>
      </g>
      </g>
  </g>
  <g transform="translate(1415.1, 358.1)">
      <g transform="translate(2.63,3.40) rotate(2.13) scale(1.000)">
        <g transform="translate(4.34,2.63) rotate(2.38) scale(0.980)">
        <g transform="translate(5.00,1.62) rotate(0.60) scale(0.960)">
        <g transform="translate(4.43,0.47) rotate(-3.18) scale(0.940)">
        <g transform="translate(2.78,-0.73) rotate(-8.80) scale(0.920)">
        <g transform="translate(0.44,-1.86) rotate(-15.93) scale(0.900)">
        <g transform="translate(-2.00,-2.82) rotate(-24.11) scale(0.880)">
        <path d="M24.6,14.2 L0.0,28.5 L-24.6,14.2 L-24.6,-14.2 L-0.0,-28.5 L24.6,-14.2Z" fill="url(#rgrad4)" filter="url(#blur4)" opacity="0.73"/>
        <ellipse cx="0" cy="0" rx="11.9" ry="7.9" fill="#FFFFFF" opacity="0.37"/>
      </g>
      </g>
      </g>
      </g>
      </g>
      </g>
      </g>
  </g>
  <g transform="translate(1649.9, 355.5)">
      <g transform="translate(5.00,0.07) rotate(2.13) scale(1.000)">
        <g transform="translate(4.43,-1.11) rotate(2.38) scale(0.980)">
        <g transform="translate(2.78,-2.20) rotate(0.60) scale(0.960)">
        <g transform="translate(0.44,-3.09) rotate(-3.18) scale(0.940)" clip-path="url(#clipCircle)">
        <g transform="translate(-2.00,-3.70) rotate(-8.80) scale(0.920)">
        <g transform="translate(-3.95,-3.98) rotate(-15.93) scale(0.900)">
        <g transform="translate(-4.94,-3.91) rotate(-24.11) scale(0.880)">
        <circle cx="0" cy="0" r="23.2" fill="url(#lgrad0)" filter="url(#shadow)" opacity="0.82"/>
        <text x="0" y="5" text-anchor="middle" font-family="Arial, sans-serif" font-size="14" fill="#FFFFFF" opacity="0.82">860</text>
      </g>
      </g>
      </g>
      </g>
      </g>
      </g>
      </g>
  </g>
  <g transform="translate(122.3, 644.4)">
      <g transform="translate(2.78,-3.33) rotate(2.13) scale(1.000)">
        <g transform="translate(0.44,-3.83) rotate(2.38) scale(0.980)">
        <g transform="translate(-2.00,-4.00) rotate(0.60) scale(0.960)">
        <g transform="translate(-3.95,-3.81) rotate(-3.18) scale(0.940)">
        <g transform="translate(-4.94,-3.28) rotate(-8.80) scale(0.920)">
        <g transform="translate(-4.71,-2.45) rotate(-15.93) scale(0.900)" mask="url(#maskGradient)">
        <g transform="translate(-3.33,-1.41) rotate(-24.11) scale(0.880)">
        <path d="M0.0,-57.8 L17.0,-23.4 L55.0,-17.9 L27.5,8.9 L34.0,46.7 L0.0,28.9 L-34.0,46.7 L-27.5,8.9 L-55.0,-17.9 L-17.0,-23.4Z" fill="url(#rgrad1)" filter="url(#blur1)" opacity="0.88"/>
      </g>
      </g>
      </g>
      </g>
      </g>
      </g>
      </g>
  </g>
  <g transform="translate(349.2, 660.6)">
      <g transform="translate(-2.00,-3.67) rotate(2.13) scale(1.000)">
        <g transform="translate(-3.95,-3.03) rotate(2.38) scale(0.980)">
        <g transform="translate(-4.94,-2.12) rotate(0.60) scale(0.960)">
        <g transform="translate(-4.71,-1.03) rotate(-3.18) scale(0.940)">
        <g transform="translate(-3.33,0.16) rotate(-8.80) scale(0.920)">
        <g transform="translate(-1.14,1.34) rotate(-15.93) scale(0.900)">
        <g transform="translate(1.33,2.39) rotate(-24.11) scale(0.880)">
        <rect x="-35.6" y="-35.6" width="71.3" height="71.3" rx="17.8" fill="url(#rgrad2)" filter="url(#shadow)" opacity="0.90"/>
        <circle cx="0" cy="0" r="23.8" fill="url(#rgrad3)" opacity="0.63"/>
      </g>
      </g>
      </g>
      </g>
      </g>
      </g>
      </g>
  </g>
  <g transform="translate(568.9, 676.6)">
      <g transform="translate(-4.94,-0.63) rotate(2.13) scale(1.000)">
        <g transform="translate(-4.71,0.56) rotate(2.38) scale(0.980)">
        <g transform="translate(-3.33,1.71) rotate(0.60) scale(0.960)">
        <g transform="translate(-1.14,2.70) rotate(-3.18) scale(0.940)" clip-path="url(#clipRect)">
        <g transform="translate(1.33,3.45) rotate(-8.80) scale(0.920)">
        <g transform="translate(3.48,3.89) rotate(-15.93) scale(0.900)">
        <g transform="translate(4.78,3.99) rotate(-24.11) scale(0.880)">
        <path d="M38.7,22.3 L0.0,44.6 L-38.7,22.3 L-38.7,-22.3 L-0.0,-44.6 L38.7,-22.3Z" fill="url(#lgrad3)" filter="url(#blur3)" opacity="0.89"/>
        <ellipse cx="0" cy="0" rx="18.6" ry="12.4" fill="#FFFFFF" opacity="0.44"/>
      </g>
      </g>
      </g>
      </g>
      </g>
      </g>
      </g>
  </g>
  <g transform="translate(781.6, 684.7)">
      <g transform="translate(-3.33,2.98) rotate(2.13) scale(1.000)">
        <g transform="translate(-1.14,3.64) rotate(2.38) scale(0.980)">
        <g transform="translate(1.33,3.97) rotate(0.60) scale(0.960)">
        <g transform="translate(3.48,3.94) rotate(-3.18) scale(0.940)">
        <g transform="translate(4.78,3.57) rotate(-8.80) scale(0.920)">
        <g transform="translate(4.90,2.87) rotate(-15.93) scale(0.900)" mask="url(#maskDynamic)">
        <g transform="translate(3.83,1.92) rotate(-24.11) scale(0.880)">
        <circle cx="0" cy="0" r="32.1" fill="url(#rgrad4)" filter="url(#shadow)" opacity="0.84"/>
        <text x="0" y="5" text-anchor="middle" font-family="Arial, sans-serif" font-size="14" fill="#FFFFFF" opacity="0.84">860</text>
      </g>
      </g>
      </g>
      </g>
      </g>
      </g>
      </g>
  </g>
  <g transform="translate(989.0, 681.3)">
      <g transform="translate(1.33,3.86) rotate(2.13) scale(1.000)">
        <g transform="translate(3.48,3.37) rotate(2.38) scale(0.980)">
        <g transform="translate(4.78,2.58) rotate(0.60) scale(0.960)">
        <g transform="translate(4.90,1.56) rotate(-3.18) scale(0.940)">
        <g transform="translate(3.83,0.40) rotate(-8.80) scale(0.920)">
        <g transform="translate(1.82,-0.79) rotate(-15.93) scale(0.900)">
        <g transform="translate(-0.64,-1.91) rotate(-24.11) scale(0.880)">
        <path d="M0.0,-50.2 L14.8,-20.3 L47.8,-15.5 L23.9,7.8 L29.5,40.6 L0.0,25.1 L-29.5,40.6 L-23.9,7.8 L-47.8,-15.5 L-14.8,-20.3Z" fill="url(#rgrad0)" filter="url(#blur0)" opacity="0.76"/>
      </g>
      </g>
      </g>
      </g>
      </g>
      </g>
      </g>
  </g>
  <g transform="translate(1194.2, 667.8)">
      <g transform="translate(4.78,1.19) rotate(2.13) scale(1.000)">
        <g transform="translate(4.90,0.00) rotate(2.38) scale(0.980)">
        <g transform="translate(3.83,-1.18) rotate(0.60) scale(0.960)">
        <g transform="translate(1.82,-2.26) rotate(-3.18) scale(0.940)" clip-path="url(#clipStar)">
        <g transform="translate(-0.64,-3.13) rotate(-8.80) scale(0.920)">
        <g transform="translate(-2.94,-3.73) rotate(-15.93) scale(0.900)">
        <g transform="translate(-4.52,-3.99) rotate(-24.11) scale(0.880)">
        <rect x="-22.6" y="-22.6" width="45.1" height="45.1" rx="11.3" fill="url(#lgrad1)" filter="url(#shadow)" opacity="0.66"/>
        <circle cx="0" cy="0" r="15.0" fill="url(#rgrad2)" opacity="0.47"/>
      </g>
      </g>
      </g>
      </g>
      </g>
      </g>
      </g>
  </g>
  <g transform="translate(1400.8, 650.7)">
      <g transform="translate(3.83,-2.57) rotate(2.13) scale(1.000)">
        <g transform="translate(1.82,-3.36) rotate(2.38) scale(0.980)">
        <g transform="translate(-0.64,-3.85) rotate(0.60) scale(0.960)">
        <g transform="translate(-2.94,-4.00) rotate(-3.18) scale(0.940)">
        <g transform="translate(-4.52,-3.79) rotate(-8.80) scale(0.920)">
        <g transform="translate(-4.99,-3.24) rotate(-15.93) scale(0.900)" mask="url(#maskStripes)">
        <g transform="translate(-4.24,-2.40) rotate(-24.11) scale(0.880)">
        <path d="M27.9,16.1 L0.0,32.2 L-27.9,16.1 L-27.9,-16.1 L-0.0,-32.2 L27.9,-16.1Z" fill="url(#rgrad2)" filter="url(#blur2)" opacity="0.55"/>
        <ellipse cx="0" cy="0" rx="13.4" ry="9.0" fill="#FFFFFF" opacity="0.27"/>
      </g>
      </g>
      </g>
      </g>
      </g>
      </g>
      </g>
  </g>
  <g transform="translate(1612.1, 637.9)">
      <g transform="translate(-0.64,-3.97) rotate(2.13) scale(1.000)">
        <g transform="translate(-2.94,-3.64) rotate(2.38) scale(0.980)">
        <g transform="translate(-4.52,-2.99) rotate(0.60) scale(0.960)">
        <g transform="translate(-4.99,-2.07) rotate(-3.18) scale(0.940)">
        <g transform="translate(-4.24,-0.96) rotate(-8.80) scale(0.920)">
        <g transform="translate(-2.46,0.23) rotate(-15.93) scale(0.900)">
        <g transform="translate(-0.07,1.40) rotate(-24.11) scale(0.880)">
        <circle cx="0" cy="0" r="34.0" fill="url(#rgrad3)" filter="url(#shadow)" opacity="0.43"/>
        <text x="0" y="5" text-anchor="middle" font-family="Arial, sans-serif" font-size="14" fill="#FFFFFF" opacity="0.43">860</text>
      </g>
      </g>
      </g>
      </g>
      </g>
      </g>
      </g>
  </g>
  <g transform="translate(70.2, 915.6)">
      <g transform="translate(-4.52,-1.71) rotate(2.13) scale(1.000)">
        <g transform="translate(-4.99,-0.57) rotate(2.38) scale(0.980)">
        <g transform="translate(-4.24,0.63) rotate(0.60) scale(0.960)">
        <g transform="translate(-2.46,1.77) rotate(-3.18) scale(0.940)" clip-path="url(#clipDynamic)">
        <g transform="translate(-0.07,2.75) rotate(-8.80) scale(0.920)">
        <g transform="translate(2.34,3.48) rotate(-15.93) scale(0.900)">
        <g transform="translate(4.17,3.91) rotate(-24.11) scale(0.880)">
        <path d="M0.0,-75.0 L22.0,-30.3 L71.3,-23.2 L35.7,11.6 L44.1,60.7 L0.0,37.5 L-44.1,60.7 L-35.7,11.6 L-71.3,-23.2 L-22.0,-30.3Z" fill="url(#lgrad4)" filter="url(#blur4)" opacity="0.32"/>
      </g>
      </g>
      </g>
      </g>
      </g>
      </g>
      </g>
  </g>
  <g transform="translate(222.9, 350.9)" mask="url(#maskGradient)">
    <ellipse cx="0" cy="0" rx="200" ry="150" fill="url(#rgrad0)" filter="url(#blur3)" opacity="0.3"/>
  </g>
  <g transform="translate(811.9, 378.7)" mask="url(#maskCircleFade)">
    <ellipse cx="0" cy="0" rx="200" ry="150" fill="url(#rgrad1)" filter="url(#blur3)" opacity="0.3"/>
  </g>
  <g transform="translate(1390.0, 369.4)" mask="url(#maskStripes)">
    <ellipse cx="0" cy="0" rx="200" ry="150" fill="url(#rgrad2)" filter="url(#blur3)" opacity="0.3"/>
  </g>
</svg>