<?xml version="1.0" encoding="UTF-8"?>
<svg xmlns="http://www.w3.org/2000/svg" viewBox="0 0 1920 1080" width="1920" height="1080">
  <defs>
    <filter id="blur0" x="-50%" y="-50%" width="200%" height="200%">
      <feGaussianBlur in="SourceGraphic" stdDeviation="1"/>
    </filter>
    <filter id="blur1" x="-50%" y="-50%" width="200%" height="200%">
      <feGaussianBlur in="SourceGraphic" stdDeviation="3"/>
    </filter>
    <filter id="blur2" x="-50%" y="-50%" width="200%" height="200%">
      <feGaussianBlur in="SourceGraphic" stdDeviation="5"/>
    </filter>
    <filter id="blur3" x="-50%" y="-50%" width="200%" height="200%">
      <feGaussianBlur in="SourceGraphic" stdDeviation="7"/>
    </filter>
    <filter id="blur4" x="-50%" y="-50%" width="200%" height="200%">
      <feGaussianBlur in="SourceGraphic" stdDeviation="9"/>
    </filter>
    <filter id="shadow" x="-50%" y="-50%" width="200%" height="200%">
      <feGaussianBlur in="SourceAlpha" stdDeviation="3" result="blur"/>
      <feOffset in="blur" dx="4" dy="4" result="offsetBlur"/>
      <feMerge>
        <feMergeNode in="offsetBlur"/>
        <feMergeNode in="SourceGraphic"/>
      </feMerge>
    </filter>
    <linearGradient id="lgrad0" x1="0%" y1="0%" x2="21.0%" y2="90.7%">
      <stop offset="0%" stop-color="#FF6B6B"/>
      <stop offset="33%" stop-color="#4ECDC4"/>
      <stop offset="66%" stop-color="#45B7D1"/>
      <stop offset="100%" stop-color="#96E6A1"/>
    </linearGradient>
    <linearGradient id="lgrad1" x1="0%" y1="0%" x2="4.5%" y2="70.7%">
      <stop offset="0%" stop-color="#FFE66D"/>
      <stop offset="33%" stop-color="#FF6B6B"/>
      <stop offset="66%" stop-color="#C44D58"/>
      <stop offset="100%" stop-color="#8B0000"/>
    </linearGradient>
    <linearGradient id="lgrad2" x1="0%" y1="0%" x2="0.2%" y2="45.2%">
      <stop offset="0%" stop-color="#4169E1"/>
      <stop offset="33%" stop-color="#7B68EE"/>
      <stop offset="66%" stop-color="#9370DB"/>
      <stop offset="100%" stop-color="#FFD700"/>
    </linearGradient>
    <linearGradient id="lgrad3" x1="0%" y1="0%" x2="9.3%" y2="21.0%">
      <stop offset="0%" stop-color="#32CD32"/>
      <stop offset="33%" stop-color="#228B22"/>
      <stop offset="66%" stop-color="#006400"/>
      <stop offset="100%" stop-color="#ADFF2F"/>
    </linearGradient>
    <linearGradient id="lgrad4" x1="0%" y1="0%" x2="29.3%" y2="4.5%">
      <stop offset="0%" stop-color="#FF1493"/>
      <stop offset="33%" stop-color="#FF69B4"/>
      <stop offset="66%" stop-color="#FFB6C1"/>
      <stop offset="100%" stop-color="#FFC0CB"/>
    </linearGradient>
    <radialGradient id="rgrad0" cx="54.3%" cy="46.2%" r="60%">
      <stop offset="0%" stop-color="#FF6B6B" stop-opacity="1"/>
      <stop offset="50%" stop-color="#4ECDC4" stop-opacity="0.8"/>
      <stop offset="100%" stop-color="#45B7D1" stop-opacity="0.6"/>
    </radialGradient>
    <radialGradient id="rgrad1" cx="64.3%" cy="54.2%" r="60%">
      <stop offset="0%" stop-color="#FFE66D" stop-opacity="1"/>
      <stop offset="50%" stop-color="#FF6B6B" stop-opacity="0.8"/>
      <stop offset="100%" stop-color="#C44D58" stop-opacity="0.6"/>
    </radialGradient>
    <radialGradient id="rgrad2" cx="34.3%" cy="62.2%" r="60%">
      <stop offset="0%" stop-color="#4169E1" stop-opacity="1"/>
      <stop offset="50%" stop-color="#7B68EE" stop-opacity="0.8"/>
      <stop offset="100%" stop-color="#9370DB" stop-opacity="0.6"/>
    </radialGradient>
    <radialGradient id="rgrad3" cx="44.3%" cy="30.2%" r="60%">
      <stop offset="0%" stop-color="#32CD32" stop-opacity="1"/>
      <stop offset="50%" stop-color="#228B22" stop-opacity="0.8"/>
      <stop offset="100%" stop-color="#006400" stop-opacity="0.6"/>
    </radialGradient>
    <radialGradient id="rgrad4" cx="54.3%" cy="38.2%" r="60%">
      <stop offset="0%" stop-color="#FF1493" stop-opacity="1"/>
      <stop offset="50%" stop-color="#FF69B4" stop-opacity="0.8"/>
      <stop offset="100%" stop-color="#FFB6C1" stop-opacity="0.6"/>
    </radialGradient>
    <clipPath id="clipCircle">
      <circle cx="0" cy="0" r="50"/>
    </clipPath>
    <clipPath id="clipStar">
      <path d="M0.0,-50.0 L14.7,-20.2 L47.6,-15.5 L23.8,7.7 L29.4,40.5 L0.0,25.0 L-29.4,40.5 L-23.8,7.7 L-47.6,-15.5 L-14.7,-20.2Z"/>
    </clipPath>
    <clipPath id="clipHex">
      <path d="M39.0,22.5 L0.0,45.0 L-39.0,22.5 L-39.0,-22.5 L-0.0,-45.0 L39.0,-22.5Z"/>
    </clipPath>
    <clipPath id="clipRect">
      <rect x="-40" y="-30" width="80" height="60" rx="10"/>
    </clipPath>
    <clipPath id="clipDynamic">
      <circle cx="0" cy="0" r="24.8"/>
    </clipPath>
    <mask id="maskGradient" maskContentUnits="objectBoundingBox">
      <rect x="0" y="0" width="1" height="1" fill="url(#maskGrad)"/>
    </mask>
    <linearGradient id="maskGrad" x1="0%" y1="0%" x2="100%" y2="100%">
      <stop offset="0%" stop-color="white"/>
      <stop offset="100%" stop-color="black"/>
    </linearGradient>
    <mask id="maskCircleFade">
      <circle cx="0" cy="0" r="60" fill="white"/>
      <circle cx="0" cy="0" r="30" fill="black"/>
    </mask>
    <mask id="maskStripes">
      <rect x="-50" y="-50" width="100" height="100" fill="white"/>
      <rect x="-50" y="-40" width="100" height="10" fill="black"/>
      <rect x="-50" y="-20" width="100" height="10" fill="black"/>
      <rect x="-50" y="0" width="100" height="10" fill="black"/>
      <rect x="-50" y="20" width="100" height="10" fill="black"/>
      <rect x="-50" y="40" width="100" height="10" fill="black"/>
    </mask>
    <mask id="maskDynamic">
      <rect x="-60" y="-60" width="120" height="120" fill="white" fill-opacity="0.56"/>
      <circle cx="0" cy="0" r="25" fill="white"/>
    </mask>
  </defs>
  <rect width="1920" height="1080" fill="url(#lgrad0)"/>
  <g transform="translate(79.6, 118.3)">
      <g transform="translate(-3.40,2.93) rotate(1.83) scale(1.000)">
        <g transform="translate(-1.23,3.60) rotate(1.73) scale(0.980)">
        <g transform="translate(1.24,3.96) rotate(-0.39) scale(0.960)">
        <g transform="translate(3.41,3.95) rotate(-4.48) scale(0.940)" clip-path="url(#clipCircle)">
        <g transform="translate(4.75,3.60) rotate(-10.33) scale(0.920)">
        <g transform="translate(4.92,2.92) rotate(-17.57) scale(0.900)">
        <g transform="translate(3.89,1.98) rotate(-25.73) scale(0.880)">
        <path d="M0.0,-65.5 L19.2,-26.5 L62.3,-20.2 L31.1,10.1 L38.5,53.0 L0.0,32.7 L-38.5,53.0 L-31.1,10.1 L-62.3,-20.2 L-19.2,-26.5Z" fill="url(#lgrad0)" filter="url(#blur0)" opacity="0.65"/>
      </g>
      </g>
      </g>
      </g>
      </g>
      </g>
      </g>
  </g>
  <g transform="translate(312.6, 125.0)">
      <g transform="translate(1.24,3.87) rotate(1.83) scale(1.000)">
        <g transform="translate(3.41,3.41) rotate(1.73) scale(0.980)">
        <g transform="translate(4.75,2.64) rotate(-0.39) scale(0.960)">
        <g transform="translate(4.92,1.63) rotate(-4.48) scale(0.940)">
        <g transform="translate(3.89,0.48) rotate(-10.33) scale(0.920)">
        <g transform="translate(1.90,-0.72) rotate(-17.57) scale(0.900)" mask="url(#maskCircleFade)">
        <g transform="translate(-0.55,-1.85) rotate(-25.73) scale(0.880)">
        <rect x="-25.6" y="-25.6" width="51.2" height="51.2" rx="12.8" fill="url(#rgrad1)" filter="url(#shadow)" opacity="0.53"/>
        <circle cx="0" cy="0" r="17.1" fill="url(#rgrad2)" opacity="0.37"/>
      </g>
      </g>
      </g>
      </g>
      </g>
      </g>
      </g>
  </g>
  <g transform="translate(547.5, 119.9)">
      <g transform="translate(4.75,1.26) rotate(1.83) scale(1.000)">
        <g transform="translate(4.92,0.08) rotate(1.73) scale(0.980)">
        <g transform="translate(3.89,-1.11) rotate(-0.39) scale(0.960)">
        <g transform="translate(1.90,-2.19) rotate(-4.48) scale(0.940)">
        <g transform="translate(-0.55,-3.08) rotate(-10.33) scale(0.920)">
        <g transform="translate(-2.86,-3.70) rotate(-17.57) scale(0.900)">
        <g transform="translate(-4.48,-3.98) rotate(-25.73) scale(0.880)">
        <path d="M23.4,13.5 L0.0,27.0 L-23.4,13.5 L-23.4,-13.5 L-0.0,-27.0 L23.4,-13.5Z" fill="url(#rgrad2)" filter="url(#blur2)" opacity="0.41"/>
        <ellipse cx="0" cy="0" rx="11.3" ry="7.5" fill="#FFFFFF" opacity="0.21"/>
      </g>
      </g>
      </g>
      </g>
      </g>
      </g>
      </g>
  </g>
  <g transform="translate(780.5, 105.4)">
      <g transform="translate(3.89,-2.52) rotate(1.83) scale(1.000)">
        <g transform="translate(1.90,-3.32) rotate(1.73) scale(0.980)">
        <g transform="translate(-0.55,-3.83) rotate(-0.39) scale(0.960)">
        <g transform="translate(-2.86,-4.00) rotate(-4.48) scale(0.940)" clip-path="url(#clipRect)">
        <g transform="translate(-4.48,-3.81) rotate(-10.33) scale(0.920)">
        <g transform="translate(-5.00,-3.28) rotate(-17.57) scale(0.900)">
        <g transform="translate(-4.29,-2.46) rotate(-25.73) scale(0.880)">
        <circle cx="0" cy="0" r="26.3" fill="url(#lgrad3)" filter="url(#shadow)" opacity="0.30"/>
        <text x="0" y="5" text-anchor="middle" font-family="Arial, sans-serif" font-size="14" fill="#FFFFFF" opacity="0.30">881</text>
      </g>
      </g>
      </g>
      </g>
      </g>
      </g>
      </g>
  </g>
  <g transform="translate(1008.5, 88.4)">
      <g transform="translate(-0.55,-3.98) rotate(1.83) scale(1.000)">
        <g transform="translate(-2.86,-3.67) rotate(1.73) scale(0.980)">
        <g transform="translate(-4.48,-3.03) rotate(-0.39) scale(0.960)">
        <g transform="translate(-5.00,-2.13) rotate(-4.48) scale(0.940)">
        <g transform="translate(-4.29,-1.03) rotate(-10.33) scale(0.920)">
        <g transform="translate(-2.53,0.16) rotate(-17.57) scale(0.900)" mask="url(#maskGradient)">
        <g transform="translate(-0.16,1.33) rotate(-25.73) scale(0.880)">
        <path d="M0.0,-67.0 L19.7,-27.1 L63.7,-20.7 L31.9,10.3 L39.4,54.2 L0.0,33.5 L-39.4,54.2 L-31.9,10.3 L-63.7,-20.7 L-19.7,-27.1Z" fill="url(#rgrad4)" filter="url(#blur4)" opacity="0.21"/>
      </g>
      </g>
      </g>
      </g>
      </g>
      </g>
      </g>
  </g>
  <g transform="translate(1229.5, 76.9)">
      <g transform="translate(-4.48,-1.78) rotate(1.83) scale(1.000)">
        <g transform="translate(-5.00,-0.64) rotate(1.73) scale(0.980)">
        <g transform="translate(-4.29,0.55) rotate(-0.39) scale(0.960)">
        <g transform="translate(-2.53,1.70) rotate(-4.48) scale(0.940)">
        <g transform="translate(-0.16,2.69) rotate(-10.33) scale(0.920)">
        <g transform="translate(2.26,3.45) rotate(-17.57) scale(0.900)">
        <g transform="translate(4.12,3.89) rotate(-25.73) scale(0.880)">
        <rect x="-37.5" y="-37.5" width="74.9" height="74.9" rx="18.7" fill="url(#rgrad0)" filter="url(#shadow)" opacity="0.14"/>
        <circle cx="0" cy="0" r="25.0" fill="url(#rgrad1)" opacity="0.10"/>
      </g>
      </g>
      </g>
      </g>
      </g>
      </g>
      </g>
  </g>
  <g transform="translate(1443.3, 76.2)">
      <g transform="translate(-4.29,2.05) rotate(1.83) scale(1.000)">
        <g transform="translate(-2.53,2.98) rotate(1.73) scale(0.980)">
        <g transform="translate(-0.16,3.63) rotate(-0.39) scale(0.960)">
        <g transform="translate(2.26,3.97) rotate(-4.48) scale(0.940)" clip-path="url(#clipStar)">
        <g transform="translate(4.12,3.94) rotate(-10.33) scale(0.920)">
        <g transform="translate(4.97,3.57) rotate(-17.57) scale(0.900)">
        <g transform="translate(4.61,2.88) rotate(-25.73) scale(0.880)">
        <path d="M35.9,20.7 L0.0,41.5 L-35.9,20.7 L-35.9,-20.7 L-0.0,-41.5 L35.9,-20.7Z" fill="url(#lgrad1)" filter="url(#blur1)" opacity="0.10"/>
        <ellipse cx="0" cy="0" rx="17.3" ry="11.5" fill="#FFFFFF" opacity="0.05"/>
      </g>
      </g>
      </g>
      </g>
      </g>
      </g>
      </g>
  </g>
  <g transform="translate(1651.4, 86.7)">
      <g transform="translate(-0.16,4.00) rotate(1.83) scale(1.000)">
        <g transform="translate(2.26,3.86) rotate(1.73) scale(0.980)">
        <g transform="translate(4.12,3.37) rotate(-0.39) scale(0.960)">
        <g transform="translate(4.97,2.58) rotate(-4.48) scale(0.940)">
        <g transform="translate(4.61,1.57) rotate(-10.33) scale(0.920)">
        <g transform="translate(3.12,0.41) rotate(-17.57) scale(0.900)" mask="url(#maskDynamic)">
        <g transform="translate(0.86,-0.79) rotate(-25.73) scale(0.880)">
        <circle cx="0" cy="0" r="27.5" fill="url(#rgrad2)" filter="url(#shadow)" opacity="0.10"/>
        <text x="0" y="5" text-anchor="middle" font-family="Arial, sans-serif" font-size="14" fill="#FFFFFF" opacity="0.10">881</text>
      </g>
      </g>
      </g>
      </g>
      </g>
      </g>
      </g>
  </g>
  <g transform="translate(96.7, 383.5)">
      <g transform="translate(4.12,2.27) rotate(1.83) scale(1.000)">
        <g transform="translate(4.97,1.19) rotate(1.73) scale(0.980)">
        <g transform="translate(4.61,0.01) rotate(-0.39) scale(0.960)">
        <g transform="translate(3.12,-1.17) rotate(-4.48) scale(0.940)">
        <g transform="translate(0.86,-2.25) rotate(-10.33) scale(0.920)">
        <g transform="translate(-1.60,-3.13) rotate(-17.57) scale(0.900)">
        <g transform="translate(-3.68,-3.72) rotate(-25.73) scale(0.880)">
        <path d="M0.0,-45.4 L13.3,-18.4 L43.2,-14.0 L21.6,7.0 L26.7,36.7 L0.0,22.7 L-26.7,36.7 L-21.6,7.0 L-43.2,-14.0 L-13.3,-18.4Z" fill="url(#rgrad3)" filter="url(#blur3)" opacity="0.14"/>
      </g>
      </g>
      </g>
      </g>
      </g>
      </g>
      </g>
  </g>
  <g transform="translate(302.8, 398.6)">
      <g transform="translate(4.61,-1.55) rotate(1.83) scale(1.000)">
        <g transform="translate(3.12,-2.57) rotate(1.73) scale(0.980)">
        <g transform="translate(0.86,-3.36) rotate(-0.39) scale(0.960)">
        <g transform="translate(-1.60,-3.85) rotate(-4.48) scale(0.940)" clip-path="url(#clipDynamic)">
        <g transform="translate(-3.68,-4.00) rotate(-10.33) scale(0.920)">
        <g transform="translate(-4.85,-3.79) rotate(-17.57) scale(0.900)">
        <g transform="translate(-4.84,-3.24) rotate(-25.73) scale(0.880)">
        <rect x="-24.6" y="-24.6" width="49.3" height="49.3" rx="12.3" fill="url(#lgrad4)" filter="url(#shadow)" opacity="0.21"/>
        <circle cx="0" cy="0" r="16.4" fill="url(#rgrad0)" opacity="0.15"/>
      </g>
      </g>
      </g>
      </g>
      </g>
      </g>
      </g>
  </g>
  <g transform="translate(513.1, 405.0)">
      <g transform="translate(0.86,-3.94) rotate(1.83) scale(1.000)">
        <g transform="translate(-1.60,-3.97) rotate(1.73) scale(0.980)">
        <g transform="translate(-3.68,-3.64) rotate(-0.39) scale(0.960)">
        <g transform="translate(-4.85,-2.99) rotate(-4.48) scale(0.940)">
        <g transform="translate(-4.84,-2.07) rotate(-10.33) scale(0.920)">
        <g transform="translate(-3.64,-0.97) rotate(-17.57) scale(0.900)" mask="url(#maskStripes)">
        <g transform="translate(-1.55,0.22) rotate(-25.73) scale(0.880)">
        <path d="M32.7,18.9 L0.0,37.8 L-32.7,18.9 L-32.7,-18.9 L-0.0,-37.8 L32.7,-18.9Z" fill="url(#rgrad0)" filter="url(#blur0)" opacity="0.30"/>
        <ellipse cx="0" cy="0" rx="15.7" ry="10.5" fill="#FFFFFF" opacity="0.15"/>
      </g>
      </g>
      </g>
      </g>
      </g>
      </g>
      </g>
  </g>
  <g transform="translate(730.0, 399.6)">
      <g transform="translate(-3.68,-2.71) rotate(1.83) scale(1.000)">
        <g transform="translate(-4.85,-1.72) rotate(1.73) scale(0.980)">
        <g transform="translate(-4.84,-0.57) rotate(-0.39) scale(0.960)">
        <g transform="translate(-3.64,0.62) rotate(-4.48) scale(0.940)">
        <g transform="translate(-1.55,1.76) rotate(-10.33) scale(0.920)">
        <g transform="translate(0.92,2.74) rotate(-17.57) scale(0.900)">
        <g transform="translate(3.16,3.48) rotate(-25.73) scale(0.880)">
        <circle cx="0" cy="0" r="37.0" fill="url(#rgrad1)" filter="url(#shadow)" opacity="0.41"/>
        <text x="0" y="5" text-anchor="middle" font-family="Arial, sans-serif" font-size="14" fill="#FFFFFF" opacity="0.41">881</text>
      </g>
      </g>
      </g>
      </g>
      </g>
      </g>
      </g>
  </g>
  <g transform="translate(954.3, 385.0)">
      <g transform="translate(-4.84,1.01) rotate(1.83) scale(1.000)">
        <g transform="translate(-3.64,2.11) rotate(1.73) scale(0.980)">
        <g transform="translate(-1.55,3.02) rotate(-0.39) scale(0.960)">
        <g transform="translate(0.92,3.66) rotate(-4.48) scale(0.940)" clip-path="url(#clipHex)">
        <g transform="translate(3.16,3.97) rotate(-10.33) scale(0.920)">
        <g transform="translate(4.63,3.93) rotate(-17.57) scale(0.900)">
        <g transform="translate(4.97,3.54) rotate(-25.73) scale(0.880)">
        <path d="M0.0,-72.1 L21.2,-29.2 L68.6,-22.3 L34.3,11.1 L42.4,58.3 L0.0,36.1 L-42.4,58.3 L-34.3,11.1 L-68.6,-22.3 L-21.2,-29.2Z" fill="url(#lgrad2)" filter="url(#blur2)" opacity="0.53"/>
      </g>
      </g>
      </g>
      </g>
      </g>
      </g>
      </g>
  </g>
  <g transform="translate(1184.8, 368.1)">
      <g transform="translate(-1.55,3.80) rotate(1.83) scale(1.000)">
        <g transform="translate(0.92,4.00) rotate(1.73) scale(0.980)">
        <g transform="translate(3.16,3.84) rotate(-0.39) scale(0.960)">
        <g transform="translate(4.63,3.33) rotate(-4.48) scale(0.940)">
        <g transform="translate(4.97,2.53) rotate(-10.33) scale(0.920)">
        <g transform="translate(4.09,1.50) rotate(-17.57) scale(0.900)" mask="url(#maskCircleFade)">
        <g transform="translate(2.20,0.34) rotate(-25.73) scale(0.880)">
        <rect x="-29.6" y="-29.6" width="59.1" height="59.1" rx="14.8" fill="url(#rgrad3)" filter="url(#shadow)" opacity="0.65"/>
        <circle cx="0" cy="0" r="19.7" fill="url(#rgrad4)" opacity="0.45"/>
      </g>
      </g>
      </g>
      </g>
      </g>
      </g>
      </g>
  </g>
  <g transform="translate(1419.1, 356.7)">
      <g transform="translate(3.16,3.10) rotate(1.83) scale(1.000)">
        <g transform="translate(4.63,2.21) rotate(1.73) scale(0.980)">
        <g transform="translate(4.97,1.13) rotate(-0.39) scale(0.960)">
        <g transform="translate(4.09,-0.06) rotate(-4.48) scale(0.940)">
        <g transform="translate(2.20,-1.24) rotate(-10.33) scale(0.920)">
        <g transform="translate(-0.22,-2.31) rotate(-17.57) scale(0.900)">
        <g transform="translate(-2.59,-3.17) rotate(-25.73) scale(0.880)">
        <path d="M24.4,14.1 L0.0,28.2 L-24.4,14.1 L-24.4,-14.1 L-0.0,-28.2 L24.4,-14.1Z" fill="url(#rgrad4)" filter="url(#blur4)" opacity="0.75"/>
        <ellipse cx="0" cy="0" rx="11.7" ry="7.8" fill="#FFFFFF" opacity="0.38"/>
      </g>
      </g>
      </g>
      </g>
      </g>
      </g>
      </g>
  </g>
  <g transform="translate(1653.5, 356.3)">
      <g transform="translate(4.97,-0.46) rotate(1.83) scale(1.000)">
        <g transform="translate(4.09,-1.61) rotate(1.73) scale(0.980)">
        <g transform="translate(2.20,-2.62) rotate(-0.39) scale(0.960)">
        <g transform="translate(-0.22,-3.40) rotate(-4.48) scale(0.940)" clip-path="url(#clipCircle)">
        <g transform="translate(-2.59,-3.87) rotate(-10.33) scale(0.920)">
        <g transform="translate(-4.32,-4.00) rotate(-17.57) scale(0.900)">
        <g transform="translate(-5.00,-3.77) rotate(-25.73) scale(0.880)">
        <circle cx="0" cy="0" r="23.4" fill="url(#lgrad0)" filter="url(#shadow)" opacity="0.83"/>
        <text x="0" y="5" text-anchor="middle" font-family="Arial, sans-serif" font-size="14" fill="#FFFFFF" opacity="0.83">881</text>
      </g>
      </g>
      </g>
      </g>
      </g>
      </g>
      </g>
  </g>
  <g transform="translate(124.7, 647.1)">
      <g transform="translate(2.20,-3.59) rotate(1.83) scale(1.000)">
        <g transform="translate(-0.22,-3.95) rotate(1.73) scale(0.980)">
        <g transform="translate(-2.59,-3.96) rotate(-0.39) scale(0.960)">
        <g transform="translate(-4.32,-3.61) rotate(-4.48) scale(0.940)">
        <g transform="translate(-5.00,-2.94) rotate(-10.33) scale(0.920)">
        <g transform="translate(-4.45,-2.01) rotate(-17.57) scale(0.900)" mask="url(#maskGradient)">
        <g transform="translate(-2.81,-0.90) rotate(-25.73) scale(0.880)">
        <path d="M0.0,-58.8 L17.3,-23.8 L55.9,-18.2 L27.9,9.1 L34.5,47.5 L0.0,29.4 L-34.5,47.5 L-27.9,9.1 L-55.9,-18.2 L-17.3,-23.8Z" fill="url(#rgrad1)" filter="url(#blur1)" opacity="0.88"/>
      </g>
      </g>
      </g>
      </g>
      </g>
      </g>
      </g>
  </g>
  <g transform="translate(349.8, 663.9)">
      <g transform="translate(-2.59,-3.42) rotate(1.83) scale(1.000)">
        <g transform="translate(-4.32,-2.66) rotate(1.73) scale(0.980)">
        <g transform="translate(-5.00,-1.66) rotate(-0.39) scale(0.960)">
        <g transform="translate(-4.45,-0.51) rotate(-4.48) scale(0.940)">
        <g transform="translate(-2.81,0.69) rotate(-10.33) scale(0.920)">
        <g transform="translate(-0.49,1.82) rotate(-17.57) scale(0.900)">
        <g transform="translate(1.96,2.79) rotate(-25.73) scale(0.880)">
        <rect x="-36.0" y="-36.0" width="71.9" height="71.9" rx="18.0" fill="url(#rgrad2)" filter="url(#shadow)" opacity="0.90"/>
        <circle cx="0" cy="0" r="24.0" fill="url(#rgrad3)" opacity="0.63"/>
      </g>
      </g>
      </g>
      </g>
      </g>
      </g>
      </g>
  </g>
  <g transform="translate(567.7, 678.9)">
      <g transform="translate(-5.00,-0.11) rotate(1.83) scale(1.000)">
        <g transform="translate(-4.45,1.08) rotate(1.73) scale(0.980)">
        <g transform="translate(-2.81,2.17) rotate(-0.39) scale(0.960)">
        <g transform="translate(-0.49,3.06) rotate(-4.48) scale(0.940)" clip-path="url(#clipRect)">
        <g transform="translate(1.96,3.69) rotate(-10.33) scale(0.920)">
        <g transform="translate(3.92,3.98) rotate(-17.57) scale(0.900)">
        <g transform="translate(4.93,3.92) rotate(-25.73) scale(0.880)">
        <path d="M38.5,22.2 L0.0,44.5 L-38.5,22.2 L-38.5,-22.2 L-0.0,-44.5 L38.5,-22.2Z" fill="url(#lgrad3)" filter="url(#blur3)" opacity="0.88"/>
        <ellipse cx="0" cy="0" rx="18.5" ry="12.4" fill="#FFFFFF" opacity="0.44"/>
      </g>
      </g>
      </g>
      </g>
      </g>
      </g>
      </g>
  </g>
  <g transform="translate(778.7, 685.0)">
      <g transform="translate(-2.81,3.31) rotate(1.83) scale(1.000)">
        <g transform="translate(-0.49,3.82) rotate(1.73) scale(0.980)">
        <g transform="translate(1.96,4.00) rotate(-0.39) scale(0.960)">
        <g transform="translate(3.92,3.82) rotate(-4.48) scale(0.940)">
        <g transform="translate(4.93,3.30) rotate(-10.33) scale(0.920)">
        <g transform="translate(4.73,2.48) rotate(-17.57) scale(0.900)" mask="url(#maskDynamic)">
        <g transform="translate(3.37,1.44) rotate(-25.73) scale(0.880)">
        <circle cx="0" cy="0" r="31.7" fill="url(#rgrad4)" filter="url(#shadow)" opacity="0.83"/>
        <text x="0" y="5" text-anchor="middle" font-family="Arial, sans-serif" font-size="14" fill="#FFFFFF" opacity="0.83">881</text>
      </g>
      </g>
      </g>
      </g>
      </g>
      </g>
      </g>
  </g>
  <g transform="translate(985.2, 679.4)">
      <g transform="translate(1.96,3.68) rotate(1.83) scale(1.000)">
        <g transform="translate(3.92,3.05) rotate(1.73) scale(0.980)">
        <g transform="translate(4.93,2.15) rotate(-0.39) scale(0.960)">
        <g transform="translate(4.73,1.06) rotate(-4.48) scale(0.940)">
        <g transform="translate(3.37,-0.12) rotate(-10.33) scale(0.920)">
        <g transform="translate(1.19,-1.30) rotate(-17.57) scale(0.900)">
        <g transform="translate(-1.29,-2.36) rotate(-25.73) scale(0.880)">
        <path d="M0.0,-49.5 L14.5,-20.0 L47.1,-15.3 L23.5,7.6 L29.1,40.0 L0.0,24.7 L-29.1,40.0 L-23.5,7.6 L-47.1,-15.3 L-14.5,-20.0Z" fill="url(#rgrad0)" filter="url(#blur0)" opacity="0.74"/>
      </g>
      </g>
      </g>
      </g>
      </g>
      </g>
      </g>
  </g>
  <g transform="translate(1190.4, 664.6)">
      <g transform="translate(4.93,0.67) rotate(1.83) scale(1.000)">
        <g transform="translate(4.73,-0.52) rotate(1.73) scale(0.980)">
        <g transform="translate(3.37,-1.67) rotate(-0.39) scale(0.960)">
        <g transform="translate(1.19,-2.67) rotate(-4.48) scale(0.940)" clip-path="url(#clipStar)">
        <g transform="translate(-1.29,-3.43) rotate(-10.33) scale(0.920)">
        <g transform="translate(-3.45,-3.89) rotate(-17.57) scale(0.900)">
        <g transform="translate(-4.76,-3.99) rotate(-25.73) scale(0.880)">
        <rect x="-22.7" y="-22.7" width="45.3" height="45.3" rx="11.3" fill="url(#lgrad1)" filter="url(#shadow)" opacity="0.64"/>
        <circle cx="0" cy="0" r="15.1" fill="url(#rgrad2)" opacity="0.45"/>
      </g>
      </g>
      </g>
      </g>
      </g>
      </g>
      </g>
  </g>
  <g transform="translate(1397.9, 647.7)">
      <g transform="translate(3.37,-2.95) rotate(1.83) scale(1.000)">
        <g transform="translate(1.19,-3.62) rotate(1.73) scale(0.980)">
        <g transform="translate(-1.29,-3.96) rotate(-0.39) scale(0.960)">
        <g transform="translate(-3.45,-3.95) rotate(-4.48) scale(0.940)">
        <g transform="translate(-4.76,-3.58) rotate(-10.33) scale(0.920)">
        <g transform="translate(-4.91,-2.90) rotate(-17.57) scale(0.900)" mask="url(#maskStripes)">
        <g transform="translate(-3.86,-1.95) rotate(-25.73) scale(0.880)">
        <path d="M28.4,16.4 L0.0,32.8 L-28.4,16.4 L-28.4,-16.4 L-0.0,-32.8 L28.4,-16.4Z" fill="url(#rgrad2)" filter="url(#blur2)" opacity="0.52"/>
        <ellipse cx="0" cy="0" rx="13.7" ry="9.1" fill="#FFFFFF" opacity="0.26"/>
      </g>
      </g>
      </g>
      </g>
      </g>
      </g>
      </g>
  </g>
  <g transform="translate(1610.9, 636.6)">
      <g transform="translate(-1.29,-3.87) rotate(1.83) scale(1.000)">
        <g transform="translate(-3.45,-3.39) rotate(1.73) scale(0.980)">
        <g transform="translate(-4.76,-2.61) rotate(-0.39) scale(0.960)">
        <g transform="translate(-4.91,-1.60) rotate(-4.48) scale(0.940)">
        <g transform="translate(-3.86,-0.44) rotate(-10.33) scale(0.920)">
        <g transform="translate(-1.86,0.75) rotate(-17.57) scale(0.900)">
        <g transform="translate(0.59,1.88) rotate(-25.73) scale(0.880)">
        <circle cx="0" cy="0" r="34.4" fill="url(#rgrad3)" filter="url(#shadow)" opacity="0.40"/>
        <text x="0" y="5" text-anchor="middle" font-family="Arial, sans-serif" font-size="14" fill="#FFFFFF" opacity="0.40">881</text>
      </g>
      </g>
      </g>
      </g>
      </g>
      </g>
      </g>
  </g>
  <g transform="translate(71.0, 916.5)">
      <g transform="translate(-4.76,-1.22) rotate(1.83) scale(1.000)">
        <g transform="translate(-4.91,-0.04) rotate(1.73) scale(0.980)">
        <g transform="translate(-3.86,1.14) rotate(-0.39) scale(0.960)">
        <g transform="translate(-1.86,2.22) rotate(-4.48) scale(0.940)" clip-path="url(#clipDynamic)">
        <g transform="translate(0.59,3.11) rotate(-10.33) scale(0.920)">
        <g transform="translate(2.90,3.71) rotate(-17.57) scale(0.900)">
        <g transform="translate(4.50,3.99) rotate(-25.73) scale(0.880)">
        <path d="M0.0,-75.0 L22.0,-30.3 L71.3,-23.2 L35.7,11.6 L44.1,60.7 L0.0,37.5 L-44.1,60.7 L-35.7,11.6 L-71.3,-23.2 L-22.0,-30.3Z" fill="url(#lgrad4)" filter="url(#blur4)" opacity="0.29"/>
      </g>
      </g>
      </g>
      </g>
      </g>
      </g>
      </g>
  </g>
  <g transform="translate(231.9, 358.6)" mask="url(#maskGradient)">
    <ellipse cx="0" cy="0" rx="200" ry="150" fill="url(#rgrad0)" filter="url(#blur3)" opacity="0.3"/>
  </g>
  <g transform="translate(824.9, 379.9)" mask="url(#maskCircleFade)">
    <ellipse cx="0" cy="0" rx="200" ry="150" fill="url(#rgrad1)" filter="url(#blur3)" opacity="0.3"/>
  </g>
  <g transform="translate(1394.9, 363.6)" mask="url(#maskStripes)">
    <ellipse cx="0" cy="0" rx="200" ry="150" fill="url(#rgrad2)" filter="url(#blur3)" opacity="0.3"/>
  </g>
</svg>