<?xml version="1.0" encoding="UTF-8"?>
<svg xmlns="http://www.w3.org/2000/svg" viewBox="0 0 1920 1080" width="1920" height="1080">
  <defs>
    <filter id="blur0" x="-50%" y="-50%" width="200%" height="200%">
      <feGaussianBlur in="SourceGraphic" stdDeviation="1"/>
    </filter>
    <filter id="blur1" x="-50%" y="-50%" width="200%" height="200%">
      <feGaussianBlur in="SourceGraphic" stdDeviation="3"/>
    </filter>
    <filter id="blur2" x="-50%" y="-50%" width="200%" height="200%">
      <feGaussianBlur in="SourceGraphic" stdDeviation="5"/>
    </filter>
    <filter id="blur3" x="-50%" y="-50%" width="200%" height="200%">
      <feGaussianBlur in="SourceGraphic" stdDeviation="7"/>
    </filter>
    <filter id="blur4" x="-50%" y="-50%" width="200%" height="200%">
      <feGaussianBlur in="SourceGraphic" stdDeviation="9"/>
    </filter>
    <filter id="shadow" x="-50%" y="-50%" width="200%" height="200%">
      <feGaussianBlur in="SourceAlpha" stdDeviation="3" result="blur"/>
      <feOffset in="blur" dx="4" dy="4" result="offsetBlur"/>
      <feMerge>
        <feMergeNode in="offsetBlur"/>
        <feMergeNode in="SourceGraphic"/>
      </feMerge>
    </filter>
    <linearGradient id="lgrad0" x1="0%" y1="0%" x2="38.8%" y2="98.7%">
      <stop offset="0%" stop-color="#FF6B6B"/>
      <stop offset="33%" stop-color="#4ECDC4"/>
      <stop offset="66%" stop-color="#45B7D1"/>
      <stop offset="100%" stop-color="#96E6A1"/>
    </linearGradient>
    <linearGradient id="lgrad1" x1="0%" y1="0%" x2="15.9%" y2="86.6%">
      <stop offset="0%" stop-color="#FFE66D"/>
      <stop offset="33%" stop-color="#FF6B6B"/>
      <stop offset="66%" stop-color="#C44D58"/>
      <stop offset="100%" stop-color="#8B0000"/>
    </linearGradient>
    <linearGradient id="lgrad2" x1="0%" y1="0%" x2="2.2%" y2="64.6%">
      <stop offset="0%" stop-color="#4169E1"/>
      <stop offset="33%" stop-color="#7B68EE"/>
      <stop offset="66%" stop-color="#9370DB"/>
      <stop offset="100%" stop-color="#FFD700"/>
    </linearGradient>
    <linearGradient id="lgrad3" x1="0%" y1="0%" x2="1.3%" y2="38.8%">
      <stop offset="0%" stop-color="#32CD32"/>
      <stop offset="33%" stop-color="#228B22"/>
      <stop offset="66%" stop-color="#006400"/>
      <stop offset="100%" stop-color="#ADFF2F"/>
    </linearGradient>
    <linearGradient id="lgrad4" x1="0%" y1="0%" x2="13.4%" y2="15.9%">
      <stop offset="0%" stop-color="#FF1493"/>
      <stop offset="33%" stop-color="#FF69B4"/>
      <stop offset="66%" stop-color="#FFB6C1"/>
      <stop offset="100%" stop-color="#FFC0CB"/>
    </linearGradient>
    <radialGradient id="rgrad0" cx="40.8%" cy="37.2%" r="60%">
      <stop offset="0%" stop-color="#FF6B6B" stop-opacity="1"/>
      <stop offset="50%" stop-color="#4ECDC4" stop-opacity="0.8"/>
      <stop offset="100%" stop-color="#45B7D1" stop-opacity="0.6"/>
    </radialGradient>
    <radialGradient id="rgrad1" cx="50.8%" cy="45.2%" r="60%">
      <stop offset="0%" stop-color="#FFE66D" stop-opacity="1"/>
      <stop offset="50%" stop-color="#FF6B6B" stop-opacity="0.8"/>
      <stop offset="100%" stop-color="#C44D58" stop-opacity="0.6"/>
    </radialGradient>
    <radialGradient id="rgrad2" cx="60.8%" cy="53.2%" r="60%">
      <stop offset="0%" stop-color="#4169E1" stop-opacity="1"/>
      <stop offset="50%" stop-color="#7B68EE" stop-opacity="0.8"/>
      <stop offset="100%" stop-color="#9370DB" stop-opacity="0.6"/>
    </radialGradient>
    <radialGradient id="rgrad3" cx="30.8%" cy="61.2%" r="60%">
      <stop offset="0%" stop-color="#32CD32" stop-opacity="1"/>
      <stop offset="50%" stop-color="#228B22" stop-opacity="0.8"/>
      <stop offset="100%" stop-color="#006400" stop-opacity="0.6"/>
    </radialGradient>
    <radialGradient id="rgrad4" cx="40.8%" cy="69.2%" r="60%">
      <stop offset="0%" stop-color="#FF1493" stop-opacity="1"/>
      <stop offset="50%" stop-color="#FF69B4" stop-opacity="0.8"/>
      <stop offset="100%" stop-color="#FFB6C1" stop-opacity="0.6"/>
    </radialGradient>
    <clipPath id="clipCircle">
      <circle cx="0" cy="0" r="50"/>
    </clipPath>
    <clipPath id="clipStar">
      <path d="M0.0,-50.0 L14.7,-20.2 L47.6,-15.5 L23.8,7.7 L29.4,40.5 L0.0,25.0 L-29.4,40.5 L-23.8,7.7 L-47.6,-15.5 L-14.7,-20.2Z"/>
    </clipPath>
    <clipPath id="clipHex">
      <path d="M39.0,22.5 L0.0,45.0 L-39.0,22.5 L-39.0,-22.5 L-0.0,-45.0 L39.0,-22.5Z"/>
    </clipPath>
    <clipPath id="clipRect">
      <rect x="-40" y="-30" width="80" height="60" rx="10"/>
    </clipPath>
    <clipPath id="clipDynamic">
      <circle cx="0" cy="0" r="22.1"/>
    </clipPath>
    <mask id="maskGradient" maskContentUnits="objectBoundingBox">
      <rect x="0" y="0" width="1" height="1" fill="url(#maskGrad)"/>
    </mask>
    <linearGradient id="maskGrad" x1="0%" y1="0%" x2="100%" y2="100%">
      <stop offset="0%" stop-color="white"/>
      <stop offset="100%" stop-color="black"/>
    </linearGradient>
    <mask id="maskCircleFade">
      <circle cx="0" cy="0" r="60" fill="white"/>
      <circle cx="0" cy="0" r="30" fill="black"/>
    </mask>
    <mask id="maskStripes">
      <rect x="-50" y="-50" width="100" height="100" fill="white"/>
      <rect x="-50" y="-40" width="100" height="10" fill="black"/>
      <rect x="-50" y="-20" width="100" height="10" fill="black"/>
      <rect x="-50" y="0" width="100" height="10" fill="black"/>
      <rect x="-50" y="20" width="100" height="10" fill="black"/>
      <rect x="-50" y="40" width="100" height="10" fill="black"/>
    </mask>
    <mask id="maskDynamic">
      <rect x="-60" y="-60" width="120" height="120" fill="white" fill-opacity="0.65"/>
      <circle cx="0" cy="0" r="25" fill="white"/>
    </mask>
  </defs>
  <rect width="1920" height="1080" fill="url(#lgrad0)"/>
  <g transform="translate(74.3, 112.8)">
      <g transform="translate(-4.29,2.05) rotate(2.47) scale(1.000)">
        <g transform="translate(-2.53,2.98) rotate(3.11) scale(0.980)">
        <g transform="translate(-0.16,3.63) rotate(1.73) scale(0.960)">
        <g transform="translate(2.26,3.97) rotate(-1.68) scale(0.940)" clip-path="url(#clipCircle)">
        <g transform="translate(4.12,3.94) rotate(-7.01) scale(0.920)">
        <g transform="translate(4.97,3.57) rotate(-13.97) scale(0.900)">
        <g transform="translate(4.61,2.88) rotate(-22.12) scale(0.880)">
        <path d="M0.0,-67.4 L19.8,-27.3 L64.1,-20.8 L32.0,10.4 L39.6,54.5 L0.0,33.7 L-39.6,54.5 L-32.0,10.4 L-64.1,-20.8 L-19.8,-27.3Z" fill="url(#lgrad0)" filter="url(#blur0)" opacity="0.70"/>
      </g>
      </g>
      </g>
      </g>
      </g>
      </g>
      </g>
  </g>
  <g transform="translate(304.8, 123.6)">
      <g transform="translate(-0.16,4.00) rotate(2.47) scale(1.000)">
        <g transform="translate(2.26,3.86) rotate(3.11) scale(0.980)">
        <g transform="translate(4.12,3.37) rotate(1.73) scale(0.960)">
        <g transform="translate(4.97,2.58) rotate(-1.68) scale(0.940)">
        <g transform="translate(4.61,1.57) rotate(-7.01) scale(0.920)">
        <g transform="translate(3.12,0.41) rotate(-13.97) scale(0.900)" mask="url(#maskCircleFade)">
        <g transform="translate(0.86,-0.79) rotate(-22.12) scale(0.880)">
        <rect x="-26.5" y="-26.5" width="53.0" height="53.0" rx="13.3" fill="url(#rgrad1)" filter="url(#shadow)" opacity="0.59"/>
        <circle cx="0" cy="0" r="17.7" fill="url(#rgrad2)" opacity="0.41"/>
      </g>
      </g>
      </g>
      </g>
      </g>
      </g>
      </g>
  </g>
  <g transform="translate(539.1, 123.3)">
      <g transform="translate(4.12,2.27) rotate(2.47) scale(1.000)">
        <g transform="translate(4.97,1.19) rotate(3.11) scale(0.980)">
        <g transform="translate(4.61,0.01) rotate(1.73) scale(0.960)">
        <g transform="translate(3.12,-1.17) rotate(-1.68) scale(0.940)">
        <g transform="translate(0.86,-2.25) rotate(-7.01) scale(0.920)">
        <g transform="translate(-1.61,-3.13) rotate(-13.97) scale(0.900)">
        <g transform="translate(-3.68,-3.72) rotate(-22.12) scale(0.880)">
        <path d="M23.4,13.5 L0.0,27.0 L-23.4,13.5 L-23.4,-13.5 L-0.0,-27.0 L23.4,-13.5Z" fill="url(#rgrad2)" filter="url(#blur2)" opacity="0.47"/>
        <ellipse cx="0" cy="0" rx="11.3" ry="7.5" fill="#FFFFFF" opacity="0.23"/>
      </g>
      </g>
      </g>
      </g>
      </g>
      </g>
      </g>
  </g>
  <g transform="translate(773.5, 112.0)">
      <g transform="translate(4.61,-1.55) rotate(2.47) scale(1.000)">
        <g transform="translate(3.12,-2.57) rotate(3.11) scale(0.980)">
        <g transform="translate(0.86,-3.36) rotate(1.73) scale(0.960)">
        <g transform="translate(-1.61,-3.85) rotate(-1.68) scale(0.940)" clip-path="url(#clipRect)">
        <g transform="translate(-3.68,-4.00) rotate(-7.01) scale(0.920)">
        <g transform="translate(-4.85,-3.79) rotate(-13.97) scale(0.900)">
        <g transform="translate(-4.84,-3.24) rotate(-22.12) scale(0.880)">
        <circle cx="0" cy="0" r="25.4" fill="url(#lgrad3)" filter="url(#shadow)" opacity="0.35"/>
        <text x="0" y="5" text-anchor="middle" font-family="Arial, sans-serif" font-size="14" fill="#FFFFFF" opacity="0.35">836</text>
      </g>
      </g>
      </g>
      </g>
      </g>
      </g>
      </g>
  </g>
  <g transform="translate(1004.7, 95.1)">
      <g transform="translate(0.86,-3.94) rotate(2.47) scale(1.000)">
        <g transform="translate(-1.61,-3.97) rotate(3.11) scale(0.980)">
        <g transform="translate(-3.68,-3.64) rotate(1.73) scale(0.960)">
        <g transform="translate(-4.85,-2.99) rotate(-1.68) scale(0.940)">
        <g transform="translate(-4.84,-2.07) rotate(-7.01) scale(0.920)">
        <g transform="translate(-3.64,-0.97) rotate(-13.97) scale(0.900)" mask="url(#maskGradient)">
        <g transform="translate(-1.55,0.22) rotate(-22.12) scale(0.880)">
        <path d="M0.0,-65.0 L19.1,-26.3 L61.9,-20.1 L30.9,10.0 L38.2,52.6 L0.0,32.5 L-38.2,52.6 L-30.9,10.0 L-61.9,-20.1 L-19.1,-26.3Z" fill="url(#rgrad4)" filter="url(#blur4)" opacity="0.25"/>
      </g>
      </g>
      </g>
      </g>
      </g>
      </g>
      </g>
  </g>
  <g transform="translate(1229.8, 80.5)">
      <g transform="translate(-3.68,-2.71) rotate(2.47) scale(1.000)">
        <g transform="translate(-4.85,-1.72) rotate(3.11) scale(0.980)">
        <g transform="translate(-4.84,-0.57) rotate(1.73) scale(0.960)">
        <g transform="translate(-3.64,0.62) rotate(-1.68) scale(0.940)">
        <g transform="translate(-1.55,1.76) rotate(-7.01) scale(0.920)">
        <g transform="translate(0.92,2.74) rotate(-13.97) scale(0.900)">
        <g transform="translate(3.16,3.48) rotate(-22.12) scale(0.880)">
        <rect x="-37.3" y="-37.3" width="74.6" height="74.6" rx="18.7" fill="url(#rgrad0)" filter="url(#shadow)" opacity="0.17"/>
        <circle cx="0" cy="0" r="24.9" fill="url(#rgrad1)" opacity="0.12"/>
      </g>
      </g>
      </g>
      </g>
      </g>
      </g>
      </g>
  </g>
  <g transform="translate(1447.7, 75.0)">
      <g transform="translate(-4.84,1.01) rotate(2.47) scale(1.000)">
        <g transform="translate(-3.64,2.11) rotate(3.11) scale(0.980)">
        <g transform="translate(-1.55,3.02) rotate(1.73) scale(0.960)">
        <g transform="translate(0.92,3.66) rotate(-1.68) scale(0.940)" clip-path="url(#clipStar)">
        <g transform="translate(3.16,3.97) rotate(-7.01) scale(0.920)">
        <g transform="translate(4.63,3.93) rotate(-13.97) scale(0.900)">
        <g transform="translate(4.97,3.54) rotate(-22.12) scale(0.880)">
        <path d="M36.8,21.2 L0.0,42.4 L-36.8,21.2 L-36.8,-21.2 L-0.0,-42.4 L36.8,-21.2Z" fill="url(#lgrad1)" filter="url(#blur1)" opacity="0.12"/>
        <ellipse cx="0" cy="0" rx="17.7" ry="11.8" fill="#FFFFFF" opacity="0.06"/>
      </g>
      </g>
      </g>
      </g>
      </g>
      </g>
      </g>
  </g>
  <g transform="translate(1658.7, 81.3)">
      <g transform="translate(-1.55,3.80) rotate(2.47) scale(1.000)">
        <g transform="translate(0.92,4.00) rotate(3.11) scale(0.980)">
        <g transform="translate(3.16,3.84) rotate(1.73) scale(0.960)">
        <g transform="translate(4.63,3.33) rotate(-1.68) scale(0.940)">
        <g transform="translate(4.97,2.53) rotate(-7.01) scale(0.920)">
        <g transform="translate(4.09,1.50) rotate(-13.97) scale(0.900)" mask="url(#maskDynamic)">
        <g transform="translate(2.20,0.34) rotate(-22.12) scale(0.880)">
        <circle cx="0" cy="0" r="28.5" fill="url(#rgrad2)" filter="url(#shadow)" opacity="0.10"/>
        <text x="0" y="5" text-anchor="middle" font-family="Arial, sans-serif" font-size="14" fill="#FFFFFF" opacity="0.10">836</text>
      </g>
      </g>
      </g>
      </g>
      </g>
      </g>
      </g>
  </g>
  <g transform="translate(105.2, 376.4)">
      <g transform="translate(3.16,3.10) rotate(2.47) scale(1.000)">
        <g transform="translate(4.63,2.21) rotate(3.11) scale(0.980)">
        <g transform="translate(4.97,1.13) rotate(1.73) scale(0.960)">
        <g transform="translate(4.09,-0.06) rotate(-1.68) scale(0.940)">
        <g transform="translate(2.20,-1.24) rotate(-7.01) scale(0.920)">
        <g transform="translate(-0.22,-2.31) rotate(-13.97) scale(0.900)">
        <g transform="translate(-2.59,-3.17) rotate(-22.12) scale(0.880)">
        <path d="M0.0,-46.0 L13.5,-18.6 L43.8,-14.2 L21.9,7.1 L27.0,37.2 L0.0,23.0 L-27.0,37.2 L-21.9,7.1 L-43.8,-14.2 L-13.5,-18.6Z" fill="url(#rgrad3)" filter="url(#blur3)" opacity="0.12"/>
      </g>
      </g>
      </g>
      </g>
      </g>
      </g>
      </g>
  </g>
  <g transform="translate(310.4, 393.2)">
      <g transform="translate(4.97,-0.46) rotate(2.47) scale(1.000)">
        <g transform="translate(4.09,-1.61) rotate(3.11) scale(0.980)">
        <g transform="translate(2.20,-2.62) rotate(1.73) scale(0.960)">
        <g transform="translate(-0.22,-3.40) rotate(-1.68) scale(0.940)" clip-path="url(#clipDynamic)">
        <g transform="translate(-2.59,-3.87) rotate(-7.01) scale(0.920)">
        <g transform="translate(-4.32,-4.00) rotate(-13.97) scale(0.900)">
        <g transform="translate(-5.00,-3.77) rotate(-22.12) scale(0.880)">
        <rect x="-23.9" y="-23.9" width="47.9" height="47.9" rx="12.0" fill="url(#lgrad4)" filter="url(#shadow)" opacity="0.17"/>
        <circle cx="0" cy="0" r="16.0" fill="url(#rgrad0)" opacity="0.12"/>
      </g>
      </g>
      </g>
      </g>
      </g>
      </g>
      </g>
  </g>
  <g transform="translate(517.9, 403.8)">
      <g transform="translate(2.20,-3.59) rotate(2.47) scale(1.000)">
        <g transform="translate(-0.22,-3.95) rotate(3.11) scale(0.980)">
        <g transform="translate(-2.59,-3.96) rotate(1.73) scale(0.960)">
        <g transform="translate(-4.32,-3.61) rotate(-1.68) scale(0.940)">
        <g transform="translate(-5.00,-2.94) rotate(-7.01) scale(0.920)">
        <g transform="translate(-4.45,-2.01) rotate(-13.97) scale(0.900)" mask="url(#maskStripes)">
        <g transform="translate(-2.81,-0.90) rotate(-22.12) scale(0.880)">
        <path d="M31.6,18.3 L0.0,36.5 L-31.6,18.3 L-31.6,-18.3 L-0.0,-36.5 L31.6,-18.3Z" fill="url(#rgrad0)" filter="url(#blur0)" opacity="0.26"/>
        <ellipse cx="0" cy="0" rx="15.2" ry="10.1" fill="#FFFFFF" opacity="0.13"/>
      </g>
      </g>
      </g>
      </g>
      </g>
      </g>
      </g>
  </g>
  <g transform="translate(730.9, 403.2)">
      <g transform="translate(-2.59,-3.42) rotate(2.47) scale(1.000)">
        <g transform="translate(-4.32,-2.66) rotate(3.11) scale(0.980)">
        <g transform="translate(-5.00,-1.66) rotate(1.73) scale(0.960)">
        <g transform="translate(-4.45,-0.51) rotate(-1.68) scale(0.940)">
        <g transform="translate(-2.81,0.69) rotate(-7.01) scale(0.920)">
        <g transform="translate(-0.49,1.82) rotate(-13.97) scale(0.900)">
        <g transform="translate(1.96,2.79) rotate(-22.12) scale(0.880)">
        <circle cx="0" cy="0" r="36.5" fill="url(#rgrad1)" filter="url(#shadow)" opacity="0.36"/>
        <text x="0" y="5" text-anchor="middle" font-family="Arial, sans-serif" font-size="14" fill="#FFFFFF" opacity="0.36">836</text>
      </g>
      </g>
      </g>
      </g>
      </g>
      </g>
      </g>
  </g>
  <g transform="translate(951.0, 391.7)">
      <g transform="translate(-5.00,-0.11) rotate(2.47) scale(1.000)">
        <g transform="translate(-4.45,1.08) rotate(3.11) scale(0.980)">
        <g transform="translate(-2.81,2.17) rotate(1.73) scale(0.960)">
        <g transform="translate(-0.49,3.06) rotate(-1.68) scale(0.940)" clip-path="url(#clipHex)">
        <g transform="translate(1.96,3.69) rotate(-7.01) scale(0.920)">
        <g transform="translate(3.92,3.98) rotate(-13.97) scale(0.900)">
        <g transform="translate(4.93,3.92) rotate(-22.12) scale(0.880)">
        <path d="M0.0,-73.2 L21.5,-29.6 L69.7,-22.6 L34.8,11.3 L43.1,59.3 L0.0,36.6 L-43.1,59.3 L-34.8,11.3 L-69.7,-22.6 L-21.5,-29.6Z" fill="url(#lgrad2)" filter="url(#blur2)" opacity="0.48"/>
      </g>
      </g>
      </g>
      </g>
      </g>
      </g>
      </g>
  </g>
  <g transform="translate(1178.2, 374.7)">
      <g transform="translate(-2.81,3.31) rotate(2.47) scale(1.000)">
        <g transform="translate(-0.49,3.82) rotate(3.11) scale(0.980)">
        <g transform="translate(1.96,4.00) rotate(1.73) scale(0.960)">
        <g transform="translate(3.92,3.82) rotate(-1.68) scale(0.940)">
        <g transform="translate(4.93,3.30) rotate(-7.01) scale(0.920)">
        <g transform="translate(4.73,2.48) rotate(-13.97) scale(0.900)" mask="url(#maskCircleFade)">
        <g transform="translate(3.37,1.44) rotate(-22.12) scale(0.880)">
        <rect x="-30.6" y="-30.6" width="61.2" height="61.2" rx="15.3" fill="url(#rgrad3)" filter="url(#shadow)" opacity="0.60"/>
        <circle cx="0" cy="0" r="20.4" fill="url(#rgrad4)" opacity="0.42"/>
      </g>
      </g>
      </g>
      </g>
      </g>
      </g>
      </g>
  </g>
  <g transform="translate(1410.7, 360.2)">
      <g transform="translate(1.96,3.68) rotate(2.47) scale(1.000)">
        <g transform="translate(3.92,3.05) rotate(3.11) scale(0.980)">
        <g transform="translate(4.93,2.15) rotate(1.73) scale(0.960)">
        <g transform="translate(4.73,1.06) rotate(-1.68) scale(0.940)">
        <g transform="translate(3.37,-0.13) rotate(-7.01) scale(0.920)">
        <g transform="translate(1.19,-1.30) rotate(-13.97) scale(0.900)">
        <g transform="translate(-1.29,-2.36) rotate(-22.12) scale(0.880)">
        <path d="M25.0,14.4 L0.0,28.9 L-25.0,14.4 L-25.0,-14.4 L-0.0,-28.9 L25.0,-14.4Z" fill="url(#rgrad4)" filter="url(#blur4)" opacity="0.71"/>
        <ellipse cx="0" cy="0" rx="12.0" ry="8.0" fill="#FFFFFF" opacity="0.35"/>
      </g>
      </g>
      </g>
      </g>
      </g>
      </g>
      </g>
  </g>
  <g transform="translate(1645.5, 355.0)">
      <g transform="translate(4.93,0.67) rotate(2.47) scale(1.000)">
        <g transform="translate(4.73,-0.52) rotate(3.11) scale(0.980)">
        <g transform="translate(3.37,-1.67) rotate(1.73) scale(0.960)">
        <g transform="translate(1.19,-2.67) rotate(-1.68) scale(0.940)" clip-path="url(#clipCircle)">
        <g transform="translate(-1.29,-3.43) rotate(-7.01) scale(0.920)">
        <g transform="translate(-3.45,-3.89) rotate(-13.97) scale(0.900)">
        <g transform="translate(-4.76,-3.99) rotate(-22.12) scale(0.880)">
        <circle cx="0" cy="0" r="22.9" fill="url(#lgrad0)" filter="url(#shadow)" opacity="0.80"/>
        <text x="0" y="5" text-anchor="middle" font-family="Arial, sans-serif" font-size="14" fill="#FFFFFF" opacity="0.80">836</text>
      </g>
      </g>
      </g>
      </g>
      </g>
      </g>
      </g>
  </g>
  <g transform="translate(119.0, 641.6)">
      <g transform="translate(3.37,-2.96) rotate(2.47) scale(1.000)">
        <g transform="translate(1.19,-3.62) rotate(3.11) scale(0.980)">
        <g transform="translate(-1.29,-3.96) rotate(1.73) scale(0.960)">
        <g transform="translate(-3.45,-3.95) rotate(-1.68) scale(0.940)">
        <g transform="translate(-4.76,-3.58) rotate(-7.01) scale(0.920)">
        <g transform="translate(-4.91,-2.90) rotate(-13.97) scale(0.900)" mask="url(#maskGradient)">
        <g transform="translate(-3.86,-1.95) rotate(-22.12) scale(0.880)">
        <path d="M0.0,-56.7 L16.7,-22.9 L53.9,-17.5 L26.9,8.8 L33.3,45.8 L0.0,28.3 L-33.3,45.8 L-26.9,8.8 L-53.9,-17.5 L-16.7,-22.9Z" fill="url(#rgrad1)" filter="url(#blur1)" opacity="0.86"/>
      </g>
      </g>
      </g>
      </g>
      </g>
      </g>
      </g>
  </g>
  <g transform="translate(347.8, 656.8)">
      <g transform="translate(-1.29,-3.86) rotate(2.47) scale(1.000)">
        <g transform="translate(-3.45,-3.39) rotate(3.11) scale(0.980)">
        <g transform="translate(-4.76,-2.61) rotate(1.73) scale(0.960)">
        <g transform="translate(-4.91,-1.60) rotate(-1.68) scale(0.940)">
        <g transform="translate(-3.86,-0.44) rotate(-7.01) scale(0.920)">
        <g transform="translate(-1.86,0.75) rotate(-13.97) scale(0.900)">
        <g transform="translate(0.59,1.88) rotate(-22.12) scale(0.880)">
        <rect x="-35.3" y="-35.3" width="70.5" height="70.5" rx="17.6" fill="url(#rgrad2)" filter="url(#shadow)" opacity="0.90"/>
        <circle cx="0" cy="0" r="23.5" fill="url(#rgrad3)" opacity="0.63"/>
      </g>
      </g>
      </g>
      </g>
      </g>
      </g>
      </g>
  </g>
  <g transform="translate(569.8, 673.6)">
      <g transform="translate(-4.76,-1.22) rotate(2.47) scale(1.000)">
        <g transform="translate(-4.91,-0.04) rotate(3.11) scale(0.980)">
        <g transform="translate(-3.86,1.14) rotate(1.73) scale(0.960)">
        <g transform="translate(-1.86,2.22) rotate(-1.68) scale(0.940)" clip-path="url(#clipRect)">
        <g transform="translate(0.59,3.11) rotate(-7.01) scale(0.920)">
        <g transform="translate(2.90,3.71) rotate(-13.97) scale(0.900)">
        <g transform="translate(4.50,3.99) rotate(-22.12) scale(0.880)">
        <path d="M38.8,22.4 L0.0,44.8 L-38.8,22.4 L-38.8,-22.4 L-0.0,-44.8 L38.8,-22.4Z" fill="url(#lgrad3)" filter="url(#blur3)" opacity="0.89"/>
        <ellipse cx="0" cy="0" rx="18.7" ry="12.4" fill="#FFFFFF" opacity="0.45"/>
      </g>
      </g>
      </g>
      </g>
      </g>
      </g>
      </g>
  </g>
  <g transform="translate(784.5, 683.9)">
      <g transform="translate(-3.86,2.55) rotate(2.47) scale(1.000)">
        <g transform="translate(-1.86,3.34) rotate(3.11) scale(0.980)">
        <g transform="translate(0.59,3.84) rotate(1.73) scale(0.960)">
        <g transform="translate(2.90,4.00) rotate(-1.68) scale(0.940)">
        <g transform="translate(4.50,3.80) rotate(-7.01) scale(0.920)">
        <g transform="translate(4.99,3.26) rotate(-13.97) scale(0.900)" mask="url(#maskDynamic)">
        <g transform="translate(4.27,2.43) rotate(-22.12) scale(0.880)">
        <circle cx="0" cy="0" r="32.7" fill="url(#rgrad4)" filter="url(#shadow)" opacity="0.86"/>
        <text x="0" y="5" text-anchor="middle" font-family="Arial, sans-serif" font-size="14" fill="#FFFFFF" opacity="0.86">836</text>
      </g>
      </g>
      </g>
      </g>
      </g>
      </g>
      </g>
  </g>
  <g transform="translate(993.2, 683.0)">
      <g transform="translate(0.59,3.97) rotate(2.47) scale(1.000)">
        <g transform="translate(2.90,3.65) rotate(3.11) scale(0.980)">
        <g transform="translate(4.50,3.01) rotate(1.73) scale(0.960)">
        <g transform="translate(4.99,2.10) rotate(-1.68) scale(0.940)">
        <g transform="translate(4.27,1.00) rotate(-7.01) scale(0.920)">
        <g transform="translate(2.50,-0.19) rotate(-13.97) scale(0.900)">
        <g transform="translate(0.11,-1.36) rotate(-22.12) scale(0.880)">
        <path d="M0.0,-51.1 L15.0,-20.7 L48.6,-15.8 L24.3,7.9 L30.0,41.3 L0.0,25.6 L-30.0,41.3 L-24.3,7.9 L-48.6,-15.8 L-15.0,-20.7Z" fill="url(#rgrad0)" filter="url(#blur0)" opacity="0.79"/>
      </g>
      </g>
      </g>
      </g>
      </g>
      </g>
      </g>
  </g>
  <g transform="translate(1198.7, 671.3)">
      <g transform="translate(4.50,1.75) rotate(2.47) scale(1.000)">
        <g transform="translate(4.99,0.60) rotate(3.11) scale(0.980)">
        <g transform="translate(4.27,-0.59) rotate(1.73) scale(0.960)">
        <g transform="translate(2.50,-1.73) rotate(-1.68) scale(0.940)" clip-path="url(#clipStar)">
        <g transform="translate(0.11,-2.72) rotate(-7.01) scale(0.920)">
        <g transform="translate(-2.30,-3.47) rotate(-13.97) scale(0.900)">
        <g transform="translate(-4.15,-3.90) rotate(-22.12) scale(0.880)">
        <rect x="-22.5" y="-22.5" width="45.0" height="45.0" rx="11.3" fill="url(#lgrad1)" filter="url(#shadow)" opacity="0.69"/>
        <circle cx="0" cy="0" r="15.0" fill="url(#rgrad2)" opacity="0.48"/>
      </g>
      </g>
      </g>
      </g>
      </g>
      </g>
      </g>
  </g>
  <g transform="translate(1404.5, 654.3)">
      <g transform="translate(4.27,-2.08) rotate(2.47) scale(1.000)">
        <g transform="translate(2.50,-3.00) rotate(3.11) scale(0.980)">
        <g transform="translate(0.11,-3.65) rotate(1.73) scale(0.960)">
        <g transform="translate(-2.30,-3.97) rotate(-1.68) scale(0.940)">
        <g transform="translate(-4.15,-3.94) rotate(-7.01) scale(0.920)">
        <g transform="translate(-4.98,-3.55) rotate(-13.97) scale(0.900)" mask="url(#maskStripes)">
        <g transform="translate(-4.59,-2.85) rotate(-22.12) scale(0.880)">
        <path d="M27.4,15.8 L0.0,31.6 L-27.4,15.8 L-27.4,-15.8 L-0.0,-31.6 L27.4,-15.8Z" fill="url(#rgrad2)" filter="url(#blur2)" opacity="0.58"/>
        <ellipse cx="0" cy="0" rx="13.2" ry="8.8" fill="#FFFFFF" opacity="0.29"/>
      </g>
      </g>
      </g>
      </g>
      </g>
      </g>
      </g>
  </g>
  <g transform="translate(1614.1, 639.9)">
      <g transform="translate(0.11,-4.00) rotate(2.47) scale(1.000)">
        <g transform="translate(-2.30,-3.85) rotate(3.11) scale(0.980)">
        <g transform="translate(-4.15,-3.35) rotate(1.73) scale(0.960)">
        <g transform="translate(-4.98,-2.56) rotate(-1.68) scale(0.940)">
        <g transform="translate(-4.59,-1.53) rotate(-7.01) scale(0.920)">
        <g transform="translate(-3.08,-0.37) rotate(-13.97) scale(0.900)">
        <g transform="translate(-0.82,0.82) rotate(-22.12) scale(0.880)">
        <circle cx="0" cy="0" r="33.6" fill="url(#rgrad3)" filter="url(#shadow)" opacity="0.46"/>
        <text x="0" y="5" text-anchor="middle" font-family="Arial, sans-serif" font-size="14" fill="#FFFFFF" opacity="0.46">836</text>
      </g>
      </g>
      </g>
      </g>
      </g>
      </g>
      </g>
  </g>
  <g transform="translate(70.0, 915.0)">
      <g transform="translate(-4.15,-2.24) rotate(2.47) scale(1.000)">
        <g transform="translate(-4.98,-1.16) rotate(3.11) scale(0.980)">
        <g transform="translate(-4.59,0.03) rotate(1.73) scale(0.960)">
        <g transform="translate(-3.08,1.21) rotate(-1.68) scale(0.940)" clip-path="url(#clipDynamic)">
        <g transform="translate(-0.82,2.28) rotate(-7.01) scale(0.920)">
        <g transform="translate(1.65,3.15) rotate(-13.97) scale(0.900)">
        <g transform="translate(3.71,3.74) rotate(-22.12) scale(0.880)">
        <path d="M0.0,-75.0 L22.0,-30.3 L71.3,-23.2 L35.6,11.6 L44.1,60.6 L0.0,37.5 L-44.1,60.6 L-35.6,11.6 L-71.3,-23.2 L-22.0,-30.3Z" fill="url(#lgrad4)" filter="url(#blur4)" opacity="0.34"/>
      </g>
      </g>
      </g>
      </g>
      </g>
      </g>
      </g>
  </g>
  <g transform="translate(214.2, 341.1)" mask="url(#maskGradient)">
    <ellipse cx="0" cy="0" rx="200" ry="150" fill="url(#rgrad0)" filter="url(#blur3)" opacity="0.3"/>
  </g>
  <g transform="translate(796.9, 375.6)" mask="url(#maskCircleFade)">
    <ellipse cx="0" cy="0" rx="200" ry="150" fill="url(#rgrad1)" filter="url(#blur3)" opacity="0.3"/>
  </g>
  <g transform="translate(1382.4, 374.6)" mask="url(#maskStripes)">
    <ellipse cx="0" cy="0" rx="200" ry="150" fill="url(#rgrad2)" filter="url(#blur3)" opacity="0.3"/>
  </g>
</svg>