<?xml version="1.0" encoding="UTF-8"?>
<svg xmlns="http://www.w3.org/2000/svg" viewBox="0 0 1920 1080" width="1920" height="1080">
  <defs>
    <filter id="blur0" x="-50%" y="-50%" width="200%" height="200%">
      <feGaussianBlur in="SourceGraphic" stdDeviation="1"/>
    </filter>
    <filter id="blur1" x="-50%" y="-50%" width="200%" height="200%">
      <feGaussianBlur in="SourceGraphic" stdDeviation="3"/>
    </filter>
    <filter id="blur2" x="-50%" y="-50%" width="200%" height="200%">
      <feGaussianBlur in="SourceGraphic" stdDeviation="5"/>
    </filter>
    <filter id="blur3" x="-50%" y="-50%" width="200%" height="200%">
      <feGaussianBlur in="SourceGraphic" stdDeviation="7"/>
    </filter>
    <filter id="blur4" x="-50%" y="-50%" width="200%" height="200%">
      <feGaussianBlur in="SourceGraphic" stdDeviation="9"/>
    </filter>
    <filter id="shadow" x="-50%" y="-50%" width="200%" height="200%">
      <feGaussianBlur in="SourceAlpha" stdDeviation="3" result="blur"/>
      <feOffset in="blur" dx="4" dy="4" result="offsetBlur"/>
      <feMerge>
        <feMergeNode in="offsetBlur"/>
        <feMergeNode in="SourceGraphic"/>
      </feMerge>
    </filter>
    <linearGradient id="lgrad0" x1="0%" y1="0%" x2="80.4%" y2="89.7%">
      <stop offset="0%" stop-color="#FF6B6B"/>
      <stop offset="33%" stop-color="#4ECDC4"/>
      <stop offset="66%" stop-color="#45B7D1"/>
      <stop offset="100%" stop-color="#96E6A1"/>
    </linearGradient>
    <linearGradient id="lgrad1" x1="0%" y1="0%" x2="56.5%" y2="99.6%">
      <stop offset="0%" stop-color="#FFE66D"/>
      <stop offset="33%" stop-color="#FF6B6B"/>
      <stop offset="66%" stop-color="#C44D58"/>
      <stop offset="100%" stop-color="#8B0000"/>
    </linearGradient>
    <linearGradient id="lgrad2" x1="0%" y1="0%" x2="30.9%" y2="96.2%">
      <stop offset="0%" stop-color="#4169E1"/>
      <stop offset="33%" stop-color="#7B68EE"/>
      <stop offset="66%" stop-color="#9370DB"/>
      <stop offset="100%" stop-color="#FFD700"/>
    </linearGradient>
    <linearGradient id="lgrad3" x1="0%" y1="0%" x2="10.3%" y2="80.4%">
      <stop offset="0%" stop-color="#32CD32"/>
      <stop offset="33%" stop-color="#228B22"/>
      <stop offset="66%" stop-color="#006400"/>
      <stop offset="100%" stop-color="#ADFF2F"/>
    </linearGradient>
    <linearGradient id="lgrad4" x1="0%" y1="0%" x2="0.4%" y2="56.5%">
      <stop offset="0%" stop-color="#FF1493"/>
      <stop offset="33%" stop-color="#FF69B4"/>
      <stop offset="66%" stop-color="#FFB6C1"/>
      <stop offset="100%" stop-color="#FFC0CB"/>
    </linearGradient>
    <radialGradient id="rgrad0" cx="50.5%" cy="57.0%" r="60%">
      <stop offset="0%" stop-color="#FF6B6B" stop-opacity="1"/>
      <stop offset="50%" stop-color="#4ECDC4" stop-opacity="0.8"/>
      <stop offset="100%" stop-color="#45B7D1" stop-opacity="0.6"/>
    </radialGradient>
    <radialGradient id="rgrad1" cx="60.5%" cy="65.0%" r="60%">
      <stop offset="0%" stop-color="#FFE66D" stop-opacity="1"/>
      <stop offset="50%" stop-color="#FF6B6B" stop-opacity="0.8"/>
      <stop offset="100%" stop-color="#C44D58" stop-opacity="0.6"/>
    </radialGradient>
    <radialGradient id="rgrad2" cx="30.5%" cy="33.0%" r="60%">
      <stop offset="0%" stop-color="#4169E1" stop-opacity="1"/>
      <stop offset="50%" stop-color="#7B68EE" stop-opacity="0.8"/>
      <stop offset="100%" stop-color="#9370DB" stop-opacity="0.6"/>
    </radialGradient>
    <radialGradient id="rgrad3" cx="40.5%" cy="41.0%" r="60%">
      <stop offset="0%" stop-color="#32CD32" stop-opacity="1"/>
      <stop offset="50%" stop-color="#228B22" stop-opacity="0.8"/>
      <stop offset="100%" stop-color="#006400" stop-opacity="0.6"/>
    </radialGradient>
    <radialGradient id="rgrad4" cx="50.5%" cy="49.0%" r="60%">
      <stop offset="0%" stop-color="#FF1493" stop-opacity="1"/>
      <stop offset="50%" stop-color="#FF69B4" stop-opacity="0.8"/>
      <stop offset="100%" stop-color="#FFB6C1" stop-opacity="0.6"/>
    </radialGradient>
    <clipPath id="clipCircle">
      <circle cx="0" cy="0" r="50"/>
    </clipPath>
    <clipPath id="clipStar">
      <path d="M0.0,-50.0 L14.7,-20.2 L47.6,-15.5 L23.8,7.7 L29.4,40.5 L0.0,25.0 L-29.4,40.5 L-23.8,7.7 L-47.6,-15.5 L-14.7,-20.2Z"/>
    </clipPath>
    <clipPath id="clipHex">
      <path d="M39.0,22.5 L0.0,45.0 L-39.0,22.5 L-39.0,-22.5 L-0.0,-45.0 L39.0,-22.5Z"/>
    </clipPath>
    <clipPath id="clipRect">
      <rect x="-40" y="-30" width="80" height="60" rx="10"/>
    </clipPath>
    <clipPath id="clipDynamic">
      <circle cx="0" cy="0" r="20.1"/>
    </clipPath>
    <mask id="maskGradient" maskContentUnits="objectBoundingBox">
      <rect x="0" y="0" width="1" height="1" fill="url(#maskGrad)"/>
    </mask>
    <linearGradient id="maskGrad" x1="0%" y1="0%" x2="100%" y2="100%">
      <stop offset="0%" stop-color="white"/>
      <stop offset="100%" stop-color="black"/>
    </linearGradient>
    <mask id="maskCircleFade">
      <circle cx="0" cy="0" r="60" fill="white"/>
      <circle cx="0" cy="0" r="30" fill="black"/>
    </mask>
    <mask id="maskStripes">
      <rect x="-50" y="-50" width="100" height="100" fill="white"/>
      <rect x="-50" y="-40" width="100" height="10" fill="black"/>
      <rect x="-50" y="-20" width="100" height="10" fill="black"/>
      <rect x="-50" y="0" width="100" height="10" fill="black"/>
      <rect x="-50" y="20" width="100" height="10" fill="black"/>
      <rect x="-50" y="40" width="100" height="10" fill="black"/>
    </mask>
    <mask id="maskDynamic">
      <rect x="-60" y="-60" width="120" height="120" fill="white" fill-opacity="0.82"/>
      <circle cx="0" cy="0" r="25" fill="white"/>
    </mask>
  </defs>
  <rect width="1920" height="1080" fill="url(#lgrad0)"/>
  <g transform="translate(70.1, 97.6)">
      <g transform="translate(-4.98,-0.38) rotate(3.70) scale(1.000)">
        <g transform="translate(-4.60,0.81) rotate(5.92) scale(0.980)">
        <g transform="translate(-3.09,1.93) rotate(6.30) scale(0.960)">
        <g transform="translate(-0.83,2.88) rotate(4.62) scale(0.940)" clip-path="url(#clipCircle)">
        <g transform="translate(1.64,3.57) rotate(0.83) scale(0.920)">
        <g transform="translate(3.70,3.94) rotate(-4.98) scale(0.900)">
        <g transform="translate(4.86,3.96) rotate(-12.55) scale(0.880)">
        <path d="M0.0,-71.1 L20.9,-28.8 L67.6,-22.0 L33.8,11.0 L41.8,57.5 L0.0,35.6 L-41.8,57.5 L-33.8,11.0 L-67.6,-22.0 L-20.9,-28.8Z" fill="url(#lgrad0)" filter="url(#blur0)" opacity="0.80"/>
      </g>
      </g>
      </g>
      </g>
      </g>
      </g>
      </g>
  </g>
  <g transform="translate(292.4, 114.2)">
      <g transform="translate(-3.09,3.14) rotate(3.70) scale(1.000)">
        <g transform="translate(-0.83,3.73) rotate(5.92) scale(0.980)">
        <g transform="translate(1.64,3.99) rotate(6.30) scale(0.960)">
        <g transform="translate(3.70,3.89) rotate(4.62) scale(0.940)">
        <g transform="translate(4.86,3.44) rotate(0.83) scale(0.920)">
        <g transform="translate(4.83,2.69) rotate(-4.98) scale(0.900)" mask="url(#maskCircleFade)">
        <g transform="translate(3.62,1.69) rotate(-12.55) scale(0.880)">
        <rect x="-28.8" y="-28.8" width="57.5" height="57.5" rx="14.4" fill="url(#rgrad1)" filter="url(#shadow)" opacity="0.70"/>
        <circle cx="0" cy="0" r="19.2" fill="url(#rgrad2)" opacity="0.49"/>
      </g>
      </g>
      </g>
      </g>
      </g>
      </g>
      </g>
  </g>
  <g transform="translate(521.4, 124.1)">
      <g transform="translate(1.64,3.78) rotate(3.70) scale(1.000)">
        <g transform="translate(3.70,3.22) rotate(5.92) scale(0.980)">
        <g transform="translate(4.86,2.38) rotate(6.30) scale(0.960)">
        <g transform="translate(4.83,1.32) rotate(4.62) scale(0.940)">
        <g transform="translate(3.62,0.15) rotate(0.83) scale(0.920)">
        <g transform="translate(1.52,-1.04) rotate(-4.98) scale(0.900)">
        <g transform="translate(-0.95,-2.13) rotate(-12.55) scale(0.880)">
        <path d="M24.0,13.9 L0.0,27.7 L-24.0,13.9 L-24.0,-13.9 L-0.0,-27.7 L24.0,-13.9Z" fill="url(#rgrad2)" filter="url(#blur2)" opacity="0.59"/>
        <ellipse cx="0" cy="0" rx="11.6" ry="7.7" fill="#FFFFFF" opacity="0.30"/>
      </g>
      </g>
      </g>
      </g>
      </g>
      </g>
      </g>
  </g>
  <g transform="translate(755.0, 122.7)">
      <g transform="translate(4.86,0.94) rotate(3.70) scale(1.000)">
        <g transform="translate(4.83,-0.25) rotate(5.92) scale(0.980)">
        <g transform="translate(3.62,-1.42) rotate(6.30) scale(0.960)">
        <g transform="translate(1.52,-2.46) rotate(4.62) scale(0.940)" clip-path="url(#clipRect)">
        <g transform="translate(-0.95,-3.28) rotate(0.83) scale(0.920)">
        <g transform="translate(-3.19,-3.81) rotate(-4.98) scale(0.900)">
        <g transform="translate(-4.64,-4.00) rotate(-12.55) scale(0.880)">
        <circle cx="0" cy="0" r="23.8" fill="url(#lgrad3)" filter="url(#shadow)" opacity="0.47"/>
        <text x="0" y="5" text-anchor="middle" font-family="Arial, sans-serif" font-size="14" fill="#FFFFFF" opacity="0.47">735</text>
      </g>
      </g>
      </g>
      </g>
      </g>
      </g>
      </g>
  </g>
  <g transform="translate(989.8, 110.6)">
      <g transform="translate(3.62,-2.76) rotate(3.70) scale(1.000)">
        <g transform="translate(1.52,-3.49) rotate(5.92) scale(0.980)">
        <g transform="translate(-0.95,-3.91) rotate(6.30) scale(0.960)">
        <g transform="translate(-3.19,-3.98) rotate(4.62) scale(0.940)">
        <g transform="translate(-4.64,-3.70) rotate(0.83) scale(0.920)">
        <g transform="translate(-4.96,-3.08) rotate(-4.98) scale(0.900)" mask="url(#maskGradient)">
        <g transform="translate(-4.07,-2.19) rotate(-12.55) scale(0.880)">
        <path d="M0.0,-60.4 L17.7,-24.4 L57.4,-18.7 L28.7,9.3 L35.5,48.8 L0.0,30.2 L-35.5,48.8 L-28.7,9.3 L-57.4,-18.7 L-17.7,-24.4Z" fill="url(#rgrad4)" filter="url(#blur4)" opacity="0.36"/>
      </g>
      </g>
      </g>
      </g>
      </g>
      </g>
      </g>
  </g>
  <g transform="translate(1222.2, 93.5)">
      <g transform="translate(-0.95,-3.93) rotate(3.70) scale(1.000)">
        <g transform="translate(-3.19,-3.53) rotate(5.92) scale(0.980)">
        <g transform="translate(-4.64,-2.81) rotate(6.30) scale(0.960)">
        <g transform="translate(-4.96,-1.84) rotate(4.62) scale(0.940)">
        <g transform="translate(-4.07,-0.71) rotate(0.83) scale(0.920)">
        <g transform="translate(-2.17,0.48) rotate(-4.98) scale(0.900)">
        <g transform="translate(0.25,1.63) rotate(-12.55) scale(0.880)">
        <rect x="-36.4" y="-36.4" width="72.8" height="72.8" rx="18.2" fill="url(#rgrad0)" filter="url(#shadow)" opacity="0.25"/>
        <circle cx="0" cy="0" r="24.3" fill="url(#rgrad1)" opacity="0.18"/>
      </g>
      </g>
      </g>
      </g>
      </g>
      </g>
      </g>
  </g>
  <g transform="translate(1449.2, 79.5)">
      <g transform="translate(-4.64,-1.48) rotate(3.70) scale(1.000)">
        <g transform="translate(-4.96,-0.32) rotate(5.92) scale(0.980)">
        <g transform="translate(-4.07,0.88) rotate(6.30) scale(0.960)">
        <g transform="translate(-2.17,1.99) rotate(4.62) scale(0.940)" clip-path="url(#clipStar)">
        <g transform="translate(0.25,2.93) rotate(0.83) scale(0.920)">
        <g transform="translate(2.61,3.60) rotate(-4.98) scale(0.900)">
        <g transform="translate(4.34,3.96) rotate(-12.55) scale(0.880)">
        <path d="M38.2,22.0 L0.0,44.1 L-38.2,22.0 L-38.2,-22.0 L-0.0,-44.1 L38.2,-22.0Z" fill="url(#lgrad1)" filter="url(#blur1)" opacity="0.17"/>
        <ellipse cx="0" cy="0" rx="18.4" ry="12.2" fill="#FFFFFF" opacity="0.09"/>
      </g>
      </g>
      </g>
      </g>
      </g>
      </g>
      </g>
  </g>
  <g transform="translate(1669.0, 75.1)">
      <g transform="translate(-4.07,2.33) rotate(3.70) scale(1.000)">
        <g transform="translate(-2.17,3.18) rotate(5.92) scale(0.980)">
        <g transform="translate(0.25,3.76) rotate(6.30) scale(0.960)">
        <g transform="translate(2.61,4.00) rotate(4.62) scale(0.940)">
        <g transform="translate(4.34,3.88) rotate(0.83) scale(0.920)">
        <g transform="translate(5.00,3.41) rotate(-4.98) scale(0.900)" mask="url(#maskDynamic)">
        <g transform="translate(4.44,2.64) rotate(-12.55) scale(0.880)">
        <circle cx="0" cy="0" r="30.9" fill="url(#rgrad2)" filter="url(#shadow)" opacity="0.12"/>
        <text x="0" y="5" text-anchor="middle" font-family="Arial, sans-serif" font-size="14" fill="#FFFFFF" opacity="0.12">735</text>
      </g>
      </g>
      </g>
      </g>
      </g>
      </g>
      </g>
  </g>
  <g transform="translate(121.7, 362.4)">
      <g transform="translate(0.25,3.99) rotate(3.70) scale(1.000)">
        <g transform="translate(2.61,3.76) rotate(5.92) scale(0.980)">
        <g transform="translate(4.34,3.18) rotate(6.30) scale(0.960)">
        <g transform="translate(5.00,2.33) rotate(4.62) scale(0.940)">
        <g transform="translate(4.44,1.26) rotate(0.83) scale(0.920)">
        <g transform="translate(2.79,0.08) rotate(-4.98) scale(0.900)">
        <g transform="translate(0.46,-1.10) rotate(-12.55) scale(0.880)">
        <path d="M0.0,-48.4 L14.2,-19.6 L46.0,-15.0 L23.0,7.5 L28.5,39.2 L0.0,24.2 L-28.5,39.2 L-23.0,7.5 L-46.0,-15.0 L-14.2,-19.6Z" fill="url(#rgrad3)" filter="url(#blur3)" opacity="0.10"/>
      </g>
      </g>
      </g>
      </g>
      </g>
      </g>
      </g>
  </g>
  <g transform="translate(329.1, 378.0)">
      <g transform="translate(4.34,1.99) rotate(3.70) scale(1.000)">
        <g transform="translate(5.00,0.88) rotate(5.92) scale(0.980)">
        <g transform="translate(4.44,-0.32) rotate(6.30) scale(0.960)">
        <g transform="translate(2.79,-1.48) rotate(4.62) scale(0.940)" clip-path="url(#clipDynamic)">
        <g transform="translate(0.46,-2.51) rotate(0.83) scale(0.920)">
        <g transform="translate(-1.99,-3.32) rotate(-4.98) scale(0.900)">
        <g transform="translate(-3.94,-3.83) rotate(-12.55) scale(0.880)">
        <rect x="-22.9" y="-22.9" width="45.7" height="45.7" rx="11.4" fill="url(#lgrad4)" filter="url(#shadow)" opacity="0.12"/>
        <circle cx="0" cy="0" r="15.2" fill="url(#rgrad0)" opacity="0.08"/>
      </g>
      </g>
      </g>
      </g>
      </g>
      </g>
      </g>
  </g>
  <g transform="translate(534.3, 394.5)">
      <g transform="translate(4.44,-1.84) rotate(3.70) scale(1.000)">
        <g transform="translate(2.79,-2.81) rotate(5.92) scale(0.980)">
        <g transform="translate(0.46,-3.53) rotate(6.30) scale(0.960)">
        <g transform="translate(-1.99,-3.93) rotate(4.62) scale(0.940)">
        <g transform="translate(-3.94,-3.98) rotate(0.83) scale(0.920)">
        <g transform="translate(-4.93,-3.67) rotate(-4.98) scale(0.900)" mask="url(#maskStripes)">
        <g transform="translate(-4.72,-3.04) rotate(-12.55) scale(0.880)">
        <path d="M29.2,16.9 L0.0,33.7 L-29.2,16.9 L-29.2,-16.9 L-0.0,-33.7 L29.2,-16.9Z" fill="url(#rgrad0)" filter="url(#blur0)" opacity="0.17"/>
        <ellipse cx="0" cy="0" rx="14.0" ry="9.4" fill="#FFFFFF" opacity="0.08"/>
      </g>
      </g>
      </g>
      </g>
      </g>
      </g>
      </g>
  </g>
  <g transform="translate(740.9, 404.2)">
      <g transform="translate(0.46,-3.98) rotate(3.70) scale(1.000)">
        <g transform="translate(-1.99,-3.91) rotate(5.92) scale(0.980)">
        <g transform="translate(-3.94,-3.49) rotate(6.30) scale(0.960)">
        <g transform="translate(-4.93,-2.76) rotate(4.62) scale(0.940)">
        <g transform="translate(-4.72,-1.78) rotate(0.83) scale(0.920)">
        <g transform="translate(-3.35,-0.65) rotate(-4.98) scale(0.900)">
        <g transform="translate(-1.15,0.55) rotate(-12.55) scale(0.880)">
        <circle cx="0" cy="0" r="35.1" fill="url(#rgrad1)" filter="url(#shadow)" opacity="0.25"/>
        <text x="0" y="5" text-anchor="middle" font-family="Arial, sans-serif" font-size="14" fill="#FFFFFF" opacity="0.25">735</text>
      </g>
      </g>
      </g>
      </g>
      </g>
      </g>
      </g>
  </g>
  <g transform="translate(952.1, 402.5)">
      <g transform="translate(-3.94,-2.46) rotate(3.70) scale(1.000)">
        <g transform="translate(-4.93,-1.42) rotate(5.92) scale(0.980)">
        <g transform="translate(-4.72,-0.25) rotate(6.30) scale(0.960)">
        <g transform="translate(-3.35,0.94) rotate(4.62) scale(0.940)" clip-path="url(#clipHex)">
        <g transform="translate(-1.15,2.05) rotate(0.83) scale(0.920)">
        <g transform="translate(1.32,2.97) rotate(-4.98) scale(0.900)">
        <g transform="translate(3.47,3.63) rotate(-12.55) scale(0.880)">
        <path d="M0.0,-74.8 L22.0,-30.2 L71.1,-23.1 L35.6,11.6 L44.0,60.5 L0.0,37.4 L-44.0,60.5 L-35.6,11.6 L-71.1,-23.1 L-22.0,-30.2Z" fill="url(#lgrad2)" filter="url(#blur2)" opacity="0.35"/>
      </g>
      </g>
      </g>
      </g>
      </g>
      </g>
      </g>
  </g>
  <g transform="translate(1170.2, 390.2)">
      <g transform="translate(-4.72,1.33) rotate(3.70) scale(1.000)">
        <g transform="translate(-3.35,2.38) rotate(5.92) scale(0.980)">
        <g transform="translate(-1.15,3.22) rotate(6.30) scale(0.960)">
        <g transform="translate(1.32,3.78) rotate(4.62) scale(0.940)">
        <g transform="translate(3.47,4.00) rotate(0.83) scale(0.920)">
        <g transform="translate(4.77,3.86) rotate(-4.98) scale(0.900)" mask="url(#maskCircleFade)">
        <g transform="translate(4.90,3.37) rotate(-12.55) scale(0.880)">
        <rect x="-32.9" y="-32.9" width="65.8" height="65.8" rx="16.5" fill="url(#rgrad3)" filter="url(#shadow)" opacity="0.47"/>
        <circle cx="0" cy="0" r="21.9" fill="url(#rgrad4)" opacity="0.33"/>
      </g>
      </g>
      </g>
      </g>
      </g>
      </g>
      </g>
  </g>
  <g transform="translate(1395.6, 373.1)">
      <g transform="translate(-1.15,3.89) rotate(3.70) scale(1.000)">
        <g transform="translate(1.32,3.99) rotate(5.92) scale(0.980)">
        <g transform="translate(3.47,3.73) rotate(6.30) scale(0.960)">
        <g transform="translate(4.77,3.14) rotate(4.62) scale(0.940)">
        <g transform="translate(4.90,2.27) rotate(0.83) scale(0.920)">
        <g transform="translate(3.84,1.20) rotate(-4.98) scale(0.900)">
        <g transform="translate(1.83,0.02) rotate(-12.55) scale(0.880)">
        <path d="M26.8,15.5 L0.0,30.9 L-26.8,15.5 L-26.8,-15.5 L-0.0,-30.9 L26.8,-15.5Z" fill="url(#rgrad4)" filter="url(#blur4)" opacity="0.59"/>
        <ellipse cx="0" cy="0" rx="12.9" ry="8.6" fill="#FFFFFF" opacity="0.29"/>
      </g>
      </g>
      </g>
      </g>
      </g>
      </g>
      </g>
  </g>
  <g transform="translate(1627.0, 359.2)">
      <g transform="translate(3.47,2.88) rotate(3.70) scale(1.000)">
        <g transform="translate(4.77,1.93) rotate(5.92) scale(0.980)">
        <g transform="translate(4.90,0.81) rotate(6.30) scale(0.960)">
        <g transform="translate(3.84,-0.38) rotate(4.62) scale(0.940)" clip-path="url(#clipCircle)">
        <g transform="translate(1.83,-1.54) rotate(0.83) scale(0.920)">
        <g transform="translate(-0.62,-2.56) rotate(-4.98) scale(0.900)">
        <g transform="translate(-2.93,-3.36) rotate(-12.55) scale(0.880)">
        <circle cx="0" cy="0" r="22.5" fill="url(#lgrad0)" filter="url(#shadow)" opacity="0.70"/>
        <text x="0" y="5" text-anchor="middle" font-family="Arial, sans-serif" font-size="14" fill="#FFFFFF" opacity="0.70">735</text>
      </g>
      </g>
      </g>
      </g>
      </g>
      </g>
      </g>
  </g>
  <g transform="translate(101.5, 635.1)">
      <g transform="translate(4.90,-0.78) rotate(3.70) scale(1.000)">
        <g transform="translate(3.84,-1.90) rotate(5.92) scale(0.980)">
        <g transform="translate(1.83,-2.86) rotate(6.30) scale(0.960)">
        <g transform="translate(-0.62,-3.56) rotate(4.62) scale(0.940)">
        <g transform="translate(-2.93,-3.94) rotate(0.83) scale(0.920)">
        <g transform="translate(-4.51,-3.97) rotate(-4.98) scale(0.900)" mask="url(#maskGradient)">
        <g transform="translate(-4.99,-3.64) rotate(-12.55) scale(0.880)">
        <path d="M0.0,-52.3 L15.4,-21.1 L49.7,-16.2 L24.9,8.1 L30.7,42.3 L0.0,26.1 L-30.7,42.3 L-24.9,8.1 L-49.7,-16.2 L-15.4,-21.1Z" fill="url(#rgrad1)" filter="url(#blur1)" opacity="0.79"/>
      </g>
      </g>
      </g>
      </g>
      </g>
      </g>
      </g>
  </g>
  <g transform="translate(335.7, 642.7)">
      <g transform="translate(1.83,-3.72) rotate(3.70) scale(1.000)">
        <g transform="translate(-0.62,-3.99) rotate(5.92) scale(0.980)">
        <g transform="translate(-2.93,-3.90) rotate(6.30) scale(0.960)">
        <g transform="translate(-4.51,-3.46) rotate(4.62) scale(0.940)">
        <g transform="translate(-4.99,-2.71) rotate(0.83) scale(0.920)">
        <g transform="translate(-4.25,-1.72) rotate(-4.98) scale(0.900)">
        <g transform="translate(-2.47,-0.58) rotate(-12.55) scale(0.880)">
        <rect x="-33.3" y="-33.3" width="66.6" height="66.6" rx="16.7" fill="url(#rgrad2)" filter="url(#shadow)" opacity="0.86"/>
        <circle cx="0" cy="0" r="22.2" fill="url(#rgrad3)" opacity="0.60"/>
      </g>
      </g>
      </g>
      </g>
      </g>
      </g>
      </g>
  </g>
  <g transform="translate(566.0, 658.4)">
      <g transform="translate(-2.93,-3.24) rotate(3.70) scale(1.000)">
        <g transform="translate(-4.51,-2.41) rotate(5.92) scale(0.980)">
        <g transform="translate(-4.99,-1.35) rotate(6.30) scale(0.960)">
        <g transform="translate(-4.25,-0.18) rotate(4.62) scale(0.940)" clip-path="url(#clipRect)">
        <g transform="translate(-2.47,1.01) rotate(0.83) scale(0.920)">
        <g transform="translate(-0.08,2.11) rotate(-4.98) scale(0.900)">
        <g transform="translate(2.33,3.02) rotate(-12.55) scale(0.880)">
        <path d="M38.9,22.5 L0.0,44.9 L-38.9,22.5 L-38.9,-22.5 L-0.0,-44.9 L38.9,-22.5Z" fill="url(#lgrad3)" filter="url(#blur3)" opacity="0.90"/>
        <ellipse cx="0" cy="0" rx="18.7" ry="12.5" fill="#FFFFFF" opacity="0.45"/>
      </g>
      </g>
      </g>
      </g>
      </g>
      </g>
      </g>
  </g>
  <g transform="translate(790.0, 674.9)">
      <g transform="translate(-4.99,0.22) rotate(3.70) scale(1.000)">
        <g transform="translate(-4.25,1.39) rotate(5.92) scale(0.980)">
        <g transform="translate(-2.47,2.44) rotate(6.30) scale(0.960)">
        <g transform="translate(-0.08,3.26) rotate(4.62) scale(0.940)">
        <g transform="translate(2.33,3.80) rotate(0.83) scale(0.920)">
        <g transform="translate(4.16,4.00) rotate(-4.98) scale(0.900)" mask="url(#maskDynamic)">
        <g transform="translate(4.98,3.84) rotate(-12.55) scale(0.880)">
        <circle cx="0" cy="0" r="34.7" fill="url(#rgrad4)" filter="url(#shadow)" opacity="0.90"/>
        <text x="0" y="5" text-anchor="middle" font-family="Arial, sans-serif" font-size="14" fill="#FFFFFF" opacity="0.90">735</text>
      </g>
      </g>
      </g>
      </g>
      </g>
      </g>
      </g>
  </g>
  <g transform="translate(1006.6, 684.3)">
      <g transform="translate(-2.47,3.48) rotate(3.70) scale(1.000)">
        <g transform="translate(-0.08,3.91) rotate(5.92) scale(0.980)">
        <g transform="translate(2.33,3.99) rotate(6.30) scale(0.960)">
        <g transform="translate(4.16,3.71) rotate(4.62) scale(0.940)">
        <g transform="translate(4.98,3.10) rotate(0.83) scale(0.920)">
        <g transform="translate(4.58,2.22) rotate(-4.98) scale(0.900)">
        <g transform="translate(3.06,1.13) rotate(-12.55) scale(0.880)">
        <path d="M0.0,-55.3 L16.3,-22.4 L52.6,-17.1 L26.3,8.5 L32.5,44.8 L0.0,27.7 L-32.5,44.8 L-26.3,8.5 L-52.6,-17.1 L-16.3,-22.4Z" fill="url(#rgrad0)" filter="url(#blur0)" opacity="0.86"/>
      </g>
      </g>
      </g>
      </g>
      </g>
      </g>
      </g>
  </g>
  <g transform="translate(1216.7, 682.3)">
      <g transform="translate(2.33,3.54) rotate(3.70) scale(1.000)">
        <g transform="translate(4.16,2.83) rotate(5.92) scale(0.980)">
        <g transform="translate(4.98,1.87) rotate(6.30) scale(0.960)">
        <g transform="translate(4.58,0.74) rotate(4.62) scale(0.940)" clip-path="url(#clipStar)">
        <g transform="translate(3.06,-0.45) rotate(0.83) scale(0.920)">
        <g transform="translate(0.79,-1.61) rotate(-4.98) scale(0.900)">
        <g transform="translate(-1.68,-2.62) rotate(-12.55) scale(0.880)">
        <rect x="-22.7" y="-22.7" width="45.5" height="45.5" rx="11.4" fill="url(#lgrad1)" filter="url(#shadow)" opacity="0.79"/>
        <circle cx="0" cy="0" r="15.2" fill="url(#rgrad2)" opacity="0.55"/>
      </g>
      </g>
      </g>
      </g>
      </g>
      </g>
      </g>
  </g>
  <g transform="translate(1422.7, 669.8)">
      <g transform="translate(4.98,0.35) rotate(3.70) scale(1.000)">
        <g transform="translate(4.58,-0.85) rotate(5.92) scale(0.980)">
        <g transform="translate(3.06,-1.96) rotate(6.30) scale(0.960)">
        <g transform="translate(0.79,-2.91) rotate(4.62) scale(0.940)">
        <g transform="translate(-1.68,-3.59) rotate(0.83) scale(0.920)">
        <g transform="translate(-3.73,-3.95) rotate(-4.98) scale(0.900)" mask="url(#maskStripes)">
        <g transform="translate(-4.87,-3.96) rotate(-12.55) scale(0.880)">
        <path d="M25.5,14.7 L0.0,29.4 L-25.5,14.7 L-25.5,-14.7 L-0.0,-29.4 L25.5,-14.7Z" fill="url(#rgrad2)" filter="url(#blur2)" opacity="0.70"/>
        <ellipse cx="0" cy="0" rx="12.2" ry="8.2" fill="#FFFFFF" opacity="0.35"/>
      </g>
      </g>
      </g>
      </g>
      </g>
      </g>
      </g>
  </g>
  <g transform="translate(1628.1, 652.7)">
      <g transform="translate(3.06,-3.17) rotate(3.70) scale(1.000)">
        <g transform="translate(0.79,-3.75) rotate(5.92) scale(0.980)">
        <g transform="translate(-1.68,-3.99) rotate(6.30) scale(0.960)">
        <g transform="translate(-3.73,-3.88) rotate(4.62) scale(0.940)">
        <g transform="translate(-4.87,-3.43) rotate(0.83) scale(0.920)">
        <g transform="translate(-4.82,-2.66) rotate(-4.98) scale(0.900)">
        <g transform="translate(-3.58,-1.66) rotate(-12.55) scale(0.880)">
        <circle cx="0" cy="0" r="31.3" fill="url(#rgrad3)" filter="url(#shadow)" opacity="0.59"/>
        <text x="0" y="5" text-anchor="middle" font-family="Arial, sans-serif" font-size="14" fill="#FFFFFF" opacity="0.59">735</text>
      </g>
      </g>
      </g>
      </g>
      </g>
      </g>
      </g>
  </g>
  <g transform="translate(76.3, 919.0)">
      <g transform="translate(-1.68,-3.77) rotate(3.70) scale(1.000)">
        <g transform="translate(-3.73,-3.20) rotate(5.92) scale(0.980)">
        <g transform="translate(-4.87,-2.35) rotate(6.30) scale(0.960)">
        <g transform="translate(-4.82,-1.29) rotate(4.62) scale(0.940)" clip-path="url(#clipDynamic)">
        <g transform="translate(-3.58,-0.11) rotate(0.83) scale(0.920)">
        <g transform="translate(-1.47,1.07) rotate(-4.98) scale(0.900)">
        <g transform="translate(1.00,2.16) rotate(-12.55) scale(0.880)">
        <path d="M0.0,-73.8 L21.7,-29.9 L70.2,-22.8 L35.1,11.4 L43.4,59.7 L0.0,36.9 L-43.4,59.7 L-35.1,11.4 L-70.2,-22.8 L-21.7,-29.9Z" fill="url(#lgrad4)" filter="url(#blur4)" opacity="0.47"/>
      </g>
      </g>
      </g>
      </g>
      </g>
      </g>
      </g>
  </g>
  <g transform="translate(200.5, 292.3)" mask="url(#maskGradient)">
    <ellipse cx="0" cy="0" rx="200" ry="150" fill="url(#rgrad0)" filter="url(#blur3)" opacity="0.3"/>
  </g>
  <g transform="translate(738.2, 345.4)" mask="url(#maskCircleFade)">
    <ellipse cx="0" cy="0" rx="200" ry="150" fill="url(#rgrad1)" filter="url(#blur3)" opacity="0.3"/>
  </g>
  <g transform="translate(1332.7, 377.2)" mask="url(#maskStripes)">
    <ellipse cx="0" cy="0" rx="200" ry="150" fill="url(#rgrad2)" filter="url(#blur3)" opacity="0.3"/>
  </g>
</svg>