<?xml version="1.0" encoding="UTF-8"?>
<svg xmlns="http://www.w3.org/2000/svg" viewBox="0 0 1920 1080" width="1920" height="1080">
  <defs>
    <filter id="blur0" x="-50%" y="-50%" width="200%" height="200%">
      <feGaussianBlur in="SourceGraphic" stdDeviation="1"/>
    </filter>
    <filter id="blur1" x="-50%" y="-50%" width="200%" height="200%">
      <feGaussianBlur in="SourceGraphic" stdDeviation="3"/>
    </filter>
    <filter id="blur2" x="-50%" y="-50%" width="200%" height="200%">
      <feGaussianBlur in="SourceGraphic" stdDeviation="5"/>
    </filter>
    <filter id="blur3" x="-50%" y="-50%" width="200%" height="200%">
      <feGaussianBlur in="SourceGraphic" stdDeviation="7"/>
    </filter>
    <filter id="blur4" x="-50%" y="-50%" width="200%" height="200%">
      <feGaussianBlur in="SourceGraphic" stdDeviation="9"/>
    </filter>
    <filter id="shadow" x="-50%" y="-50%" width="200%" height="200%">
      <feGaussianBlur in="SourceAlpha" stdDeviation="3" result="blur"/>
      <feOffset in="blur" dx="4" dy="4" result="offsetBlur"/>
      <feMerge>
        <feMergeNode in="offsetBlur"/>
        <feMergeNode in="SourceGraphic"/>
      </feMerge>
    </filter>
    <linearGradient id="lgrad0" x1="0%" y1="0%" x2="76.5%" y2="92.4%">
      <stop offset="0%" stop-color="#FF6B6B"/>
      <stop offset="33%" stop-color="#4ECDC4"/>
      <stop offset="66%" stop-color="#45B7D1"/>
      <stop offset="100%" stop-color="#96E6A1"/>
    </linearGradient>
    <linearGradient id="lgrad1" x1="0%" y1="0%" x2="51.7%" y2="100.0%">
      <stop offset="0%" stop-color="#FFE66D"/>
      <stop offset="33%" stop-color="#FF6B6B"/>
      <stop offset="66%" stop-color="#C44D58"/>
      <stop offset="100%" stop-color="#8B0000"/>
    </linearGradient>
    <linearGradient id="lgrad2" x1="0%" y1="0%" x2="26.5%" y2="94.1%">
      <stop offset="0%" stop-color="#4169E1"/>
      <stop offset="33%" stop-color="#7B68EE"/>
      <stop offset="66%" stop-color="#9370DB"/>
      <stop offset="100%" stop-color="#FFD700"/>
    </linearGradient>
    <linearGradient id="lgrad3" x1="0%" y1="0%" x2="7.6%" y2="76.5%">
      <stop offset="0%" stop-color="#32CD32"/>
      <stop offset="33%" stop-color="#228B22"/>
      <stop offset="66%" stop-color="#006400"/>
      <stop offset="100%" stop-color="#ADFF2F"/>
    </linearGradient>
    <linearGradient id="lgrad4" x1="0%" y1="0%" x2="0.0%" y2="51.7%">
      <stop offset="0%" stop-color="#FF1493"/>
      <stop offset="33%" stop-color="#FF69B4"/>
      <stop offset="66%" stop-color="#FFB6C1"/>
      <stop offset="100%" stop-color="#FFC0CB"/>
    </linearGradient>
    <radialGradient id="rgrad0" cx="37.8%" cy="35.2%" r="60%">
      <stop offset="0%" stop-color="#FF6B6B" stop-opacity="1"/>
      <stop offset="50%" stop-color="#4ECDC4" stop-opacity="0.8"/>
      <stop offset="100%" stop-color="#45B7D1" stop-opacity="0.6"/>
    </radialGradient>
    <radialGradient id="rgrad1" cx="47.8%" cy="43.2%" r="60%">
      <stop offset="0%" stop-color="#FFE66D" stop-opacity="1"/>
      <stop offset="50%" stop-color="#FF6B6B" stop-opacity="0.8"/>
      <stop offset="100%" stop-color="#C44D58" stop-opacity="0.6"/>
    </radialGradient>
    <radialGradient id="rgrad2" cx="57.8%" cy="51.2%" r="60%">
      <stop offset="0%" stop-color="#4169E1" stop-opacity="1"/>
      <stop offset="50%" stop-color="#7B68EE" stop-opacity="0.8"/>
      <stop offset="100%" stop-color="#9370DB" stop-opacity="0.6"/>
    </radialGradient>
    <radialGradient id="rgrad3" cx="67.8%" cy="59.2%" r="60%">
      <stop offset="0%" stop-color="#32CD32" stop-opacity="1"/>
      <stop offset="50%" stop-color="#228B22" stop-opacity="0.8"/>
      <stop offset="100%" stop-color="#006400" stop-opacity="0.6"/>
    </radialGradient>
    <radialGradient id="rgrad4" cx="37.8%" cy="67.2%" r="60%">
      <stop offset="0%" stop-color="#FF1493" stop-opacity="1"/>
      <stop offset="50%" stop-color="#FF69B4" stop-opacity="0.8"/>
      <stop offset="100%" stop-color="#FFB6C1" stop-opacity="0.6"/>
    </radialGradient>
    <clipPath id="clipCircle">
      <circle cx="0" cy="0" r="50"/>
    </clipPath>
    <clipPath id="clipStar">
      <path d="M0.0,-50.0 L14.7,-20.2 L47.6,-15.5 L23.8,7.7 L29.4,40.5 L0.0,25.0 L-29.4,40.5 L-23.8,7.7 L-47.6,-15.5 L-14.7,-20.2Z"/>
    </clipPath>
    <clipPath id="clipHex">
      <path d="M39.0,22.5 L0.0,45.0 L-39.0,22.5 L-39.0,-22.5 L-0.0,-45.0 L39.0,-22.5Z"/>
    </clipPath>
    <clipPath id="clipRect">
      <rect x="-40" y="-30" width="80" height="60" rx="10"/>
    </clipPath>
    <clipPath id="clipDynamic">
      <circle cx="0" cy="0" r="37.3"/>
    </clipPath>
    <mask id="maskGradient" maskContentUnits="objectBoundingBox">
      <rect x="0" y="0" width="1" height="1" fill="url(#maskGrad)"/>
    </mask>
    <linearGradient id="maskGrad" x1="0%" y1="0%" x2="100%" y2="100%">
      <stop offset="0%" stop-color="white"/>
      <stop offset="100%" stop-color="black"/>
    </linearGradient>
    <mask id="maskCircleFade">
      <circle cx="0" cy="0" r="60" fill="white"/>
      <circle cx="0" cy="0" r="30" fill="black"/>
    </mask>
    <mask id="maskStripes">
      <rect x="-50" y="-50" width="100" height="100" fill="white"/>
      <rect x="-50" y="-40" width="100" height="10" fill="black"/>
      <rect x="-50" y="-20" width="100" height="10" fill="black"/>
      <rect x="-50" y="0" width="100" height="10" fill="black"/>
      <rect x="-50" y="20" width="100" height="10" fill="black"/>
      <rect x="-50" y="40" width="100" height="10" fill="black"/>
    </mask>
    <mask id="maskDynamic">
      <rect x="-60" y="-60" width="120" height="120" fill="white" fill-opacity="0.35"/>
      <circle cx="0" cy="0" r="25" fill="white"/>
    </mask>
  </defs>
  <rect width="1920" height="1080" fill="url(#lgrad0)"/>
  <g transform="translate(104.7, 124.7)">
      <g transform="translate(0.78,3.95) rotate(0.39) scale(1.000)">
        <g transform="translate(3.05,3.59) rotate(2.75) scale(0.980)">
        <g transform="translate(4.58,2.91) rotate(6.91) scale(0.960)">
        <g transform="translate(4.98,1.97) rotate(12.55) scale(0.940)" clip-path="url(#clipCircle)">
        <g transform="translate(4.16,0.85) rotate(19.25) scale(0.920)">
        <g transform="translate(2.33,-0.35) rotate(26.44) scale(0.900)">
        <g transform="translate(-0.08,-1.51) rotate(33.52) scale(0.880)">
        <path d="M0.0,-61.2 L18.0,-24.7 L58.2,-18.9 L29.1,9.5 L36.0,49.5 L0.0,30.6 L-36.0,49.5 L-29.1,9.5 L-58.2,-18.9 L-18.0,-24.7Z" fill="url(#lgrad0)" filter="url(#blur0)" opacity="0.53"/>
      </g>
      </g>
      </g>
      </g>
      </g>
      </g>
      </g>
  </g>
  <g transform="translate(338.3, 116.4)">
      <g transform="translate(4.58,1.61) rotate(0.39) scale(1.000)">
        <g transform="translate(4.98,0.45) rotate(2.75) scale(0.980)">
        <g transform="translate(4.16,-0.74) rotate(6.91) scale(0.960)">
        <g transform="translate(2.33,-1.87) rotate(12.55) scale(0.940)">
        <g transform="translate(-0.08,-2.83) rotate(19.25) scale(0.920)">
        <g transform="translate(-2.47,-3.54) rotate(26.44) scale(0.900)" mask="url(#maskCircleFade)">
        <g transform="translate(-4.25,-3.93) rotate(33.52) scale(0.880)">
        <rect x="-36.6" y="-36.6" width="73.2" height="73.2" rx="18.3" fill="url(#rgrad1)" filter="url(#shadow)" opacity="0.65"/>
        <circle cx="0" cy="0" r="24.4" fill="url(#rgrad2)" opacity="0.45"/>
      </g>
      </g>
      </g>
      </g>
      </g>
      </g>
      </g>
  </g>
  <g transform="translate(567.5, 100.3)">
      <g transform="translate(4.16,-2.21) rotate(0.39) scale(1.000)">
        <g transform="translate(2.33,-3.10) rotate(2.75) scale(0.980)">
        <g transform="translate(-0.08,-3.71) rotate(6.91) scale(0.960)">
        <g transform="translate(-2.47,-3.99) rotate(12.55) scale(0.940)">
        <g transform="translate(-4.25,-3.91) rotate(19.25) scale(0.920)">
        <g transform="translate(-4.99,-3.48) rotate(26.44) scale(0.900)">
        <g transform="translate(-4.51,-2.74) rotate(33.52) scale(0.880)">
        <path d="M38.0,21.9 L0.0,43.9 L-38.0,21.9 L-38.0,-21.9 L-0.0,-43.9 L38.0,-21.9Z" fill="url(#rgrad2)" filter="url(#blur2)" opacity="0.75"/>
        <ellipse cx="0" cy="0" rx="18.3" ry="12.2" fill="#FFFFFF" opacity="0.38"/>
      </g>
      </g>
      </g>
      </g>
      </g>
      </g>
      </g>
  </g>
  <g transform="translate(789.9, 84.2)">
      <g transform="translate(-0.08,-4.00) rotate(0.39) scale(1.000)">
        <g transform="translate(-2.47,-3.80) rotate(2.75) scale(0.980)">
        <g transform="translate(-4.25,-3.27) rotate(6.91) scale(0.960)">
        <g transform="translate(-4.99,-2.44) rotate(12.55) scale(0.940)" clip-path="url(#clipRect)">
        <g transform="translate(-4.51,-1.39) rotate(19.25) scale(0.920)">
        <g transform="translate(-2.93,-0.22) rotate(26.44) scale(0.900)">
        <g transform="translate(-0.63,0.97) rotate(33.52) scale(0.880)">
        <circle cx="0" cy="0" r="30.5" fill="url(#lgrad3)" filter="url(#shadow)" opacity="0.83"/>
        <text x="0" y="5" text-anchor="middle" font-family="Arial, sans-serif" font-size="14" fill="#FFFFFF" opacity="0.83">26</text>
      </g>
      </g>
      </g>
      </g>
      </g>
      </g>
      </g>
  </g>
  <g transform="translate(1005.0, 75.4)">
      <g transform="translate(-4.25,-2.11) rotate(0.39) scale(1.000)">
        <g transform="translate(-4.99,-1.01) rotate(2.75) scale(0.980)">
        <g transform="translate(-4.51,0.18) rotate(6.91) scale(0.960)">
        <g transform="translate(-2.93,1.35) rotate(12.55) scale(0.940)">
        <g transform="translate(-0.63,2.40) rotate(19.25) scale(0.920)">
        <g transform="translate(1.83,3.24) rotate(26.44) scale(0.900)" mask="url(#maskGradient)">
        <g transform="translate(3.83,3.79) rotate(33.52) scale(0.880)">
        <path d="M0.0,-47.9 L14.1,-19.4 L45.6,-14.8 L22.8,7.4 L28.2,38.8 L0.0,24.0 L-28.2,38.8 L-22.8,7.4 L-45.6,-14.8 L-14.1,-19.4Z" fill="url(#rgrad4)" filter="url(#blur4)" opacity="0.88"/>
      </g>
      </g>
      </g>
      </g>
      </g>
      </g>
      </g>
  </g>
  <g transform="translate(1214.0, 78.3)">
      <g transform="translate(-4.51,1.72) rotate(0.39) scale(1.000)">
        <g transform="translate(-2.93,2.71) rotate(2.75) scale(0.980)">
        <g transform="translate(-0.63,3.46) rotate(6.91) scale(0.960)">
        <g transform="translate(1.83,3.90) rotate(12.55) scale(0.940)">
        <g transform="translate(3.83,3.99) rotate(19.25) scale(0.920)">
        <g transform="translate(4.90,3.72) rotate(26.44) scale(0.900)">
        <g transform="translate(4.77,3.13) rotate(33.52) scale(0.880)">
        <rect x="-23.0" y="-23.0" width="46.0" height="46.0" rx="11.5" fill="url(#rgrad0)" filter="url(#shadow)" opacity="0.90"/>
        <circle cx="0" cy="0" r="15.3" fill="url(#rgrad1)" opacity="0.63"/>
      </g>
      </g>
      </g>
      </g>
      </g>
      </g>
      </g>
  </g>
  <g transform="translate(1419.5, 91.3)">
      <g transform="translate(-0.63,3.97) rotate(0.39) scale(1.000)">
        <g transform="translate(1.83,3.94) rotate(2.75) scale(0.980)">
        <g transform="translate(3.83,3.56) rotate(6.91) scale(0.960)">
        <g transform="translate(4.90,2.86) rotate(12.55) scale(0.940)" clip-path="url(#clipStar)">
        <g transform="translate(4.77,1.91) rotate(19.25) scale(0.920)">
        <g transform="translate(3.47,0.78) rotate(26.44) scale(0.900)">
        <g transform="translate(1.32,-0.41) rotate(33.52) scale(0.880)">
        <path d="M29.6,17.1 L0.0,34.2 L-29.6,17.1 L-29.6,-17.1 L-0.0,-34.2 L29.6,-17.1Z" fill="url(#lgrad1)" filter="url(#blur1)" opacity="0.88"/>
        <ellipse cx="0" cy="0" rx="14.2" ry="9.5" fill="#FFFFFF" opacity="0.44"/>
      </g>
      </g>
      </g>
      </g>
      </g>
      </g>
      </g>
  </g>
  <g transform="translate(1625.2, 108.5)">
      <g transform="translate(3.83,2.57) rotate(0.39) scale(1.000)">
        <g transform="translate(4.90,1.55) rotate(2.75) scale(0.980)">
        <g transform="translate(4.77,0.39) rotate(6.91) scale(0.960)">
        <g transform="translate(3.47,-0.81) rotate(12.55) scale(0.940)">
        <g transform="translate(1.32,-1.93) rotate(19.25) scale(0.920)">
        <g transform="translate(-1.15,-2.88) rotate(26.44) scale(0.900)" mask="url(#maskDynamic)">
        <g transform="translate(-3.34,-3.57) rotate(33.52) scale(0.880)">
        <circle cx="0" cy="0" r="35.4" fill="url(#rgrad2)" filter="url(#shadow)" opacity="0.83"/>
        <text x="0" y="5" text-anchor="middle" font-family="Arial, sans-serif" font-size="14" fill="#FFFFFF" opacity="0.83">26</text>
      </g>
      </g>
      </g>
      </g>
      </g>
      </g>
      </g>
  </g>
  <g transform="translate(74.5, 401.6)">
      <g transform="translate(4.77,-1.19) rotate(0.39) scale(1.000)">
        <g transform="translate(3.47,-2.27) rotate(2.75) scale(0.980)">
        <g transform="translate(1.32,-3.14) rotate(6.91) scale(0.960)">
        <g transform="translate(-1.15,-3.73) rotate(12.55) scale(0.940)">
        <g transform="translate(-3.34,-3.99) rotate(19.25) scale(0.920)">
        <g transform="translate(-4.72,-3.89) rotate(26.44) scale(0.900)">
        <g transform="translate(-4.93,-3.45) rotate(33.52) scale(0.880)">
        <path d="M0.0,-74.6 L21.9,-30.2 L71.0,-23.1 L35.5,11.5 L43.9,60.4 L0.0,37.3 L-43.9,60.4 L-35.5,11.5 L-71.0,-23.1 L-21.9,-30.2Z" fill="url(#rgrad3)" filter="url(#blur3)" opacity="0.75"/>
      </g>
      </g>
      </g>
      </g>
      </g>
      </g>
      </g>
  </g>
  <g transform="translate(290.0, 404.6)">
      <g transform="translate(1.32,-3.86) rotate(0.39) scale(1.000)">
        <g transform="translate(-1.15,-4.00) rotate(2.75) scale(0.980)">
        <g transform="translate(-3.34,-3.78) rotate(6.91) scale(0.960)">
        <g transform="translate(-4.72,-3.23) rotate(12.55) scale(0.940)" clip-path="url(#clipDynamic)">
        <g transform="translate(-4.93,-2.38) rotate(19.25) scale(0.920)">
        <g transform="translate(-3.94,-1.33) rotate(26.44) scale(0.900)">
        <g transform="translate(-1.99,-0.15) rotate(33.52) scale(0.880)">
        <rect x="-32.5" y="-32.5" width="65.1" height="65.1" rx="16.3" fill="url(#lgrad4)" filter="url(#shadow)" opacity="0.64"/>
        <circle cx="0" cy="0" r="21.7" fill="url(#rgrad0)" opacity="0.45"/>
      </g>
      </g>
      </g>
      </g>
      </g>
      </g>
      </g>
  </g>
  <g transform="translate(512.9, 396.0)">
      <g transform="translate(-3.34,-2.97) rotate(0.39) scale(1.000)">
        <g transform="translate(-4.72,-2.05) rotate(2.75) scale(0.980)">
        <g transform="translate(-4.93,-0.94) rotate(6.91) scale(0.960)">
        <g transform="translate(-3.94,0.25) rotate(12.55) scale(0.940)">
        <g transform="translate(-1.99,1.42) rotate(19.25) scale(0.920)">
        <g transform="translate(0.45,2.46) rotate(26.44) scale(0.900)" mask="url(#maskStripes)">
        <g transform="translate(2.79,3.28) rotate(33.52) scale(0.880)">
        <path d="M26.4,15.3 L0.0,30.5 L-26.4,15.3 L-26.4,-15.3 L-0.0,-30.5 L26.4,-15.3Z" fill="url(#rgrad0)" filter="url(#blur0)" opacity="0.53"/>
        <ellipse cx="0" cy="0" rx="12.7" ry="8.5" fill="#FFFFFF" opacity="0.26"/>
      </g>
      </g>
      </g>
      </g>
      </g>
      </g>
      </g>
  </g>
  <g transform="translate(742.4, 379.9)">
      <g transform="translate(-4.93,0.64) rotate(0.39) scale(1.000)">
        <g transform="translate(-3.94,1.78) rotate(2.75) scale(0.980)">
        <g transform="translate(-1.99,2.76) rotate(6.91) scale(0.960)">
        <g transform="translate(0.45,3.49) rotate(12.55) scale(0.940)">
        <g transform="translate(2.79,3.91) rotate(19.25) scale(0.920)">
        <g transform="translate(4.44,3.98) rotate(26.44) scale(0.900)">
        <g transform="translate(5.00,3.70) rotate(33.52) scale(0.880)">
        <circle cx="0" cy="0" r="22.5" fill="url(#rgrad1)" filter="url(#shadow)" opacity="0.41"/>
        <text x="0" y="5" text-anchor="middle" font-family="Arial, sans-serif" font-size="14" fill="#FFFFFF" opacity="0.41">26</text>
      </g>
      </g>
      </g>
      </g>
      </g>
      </g>
      </g>
  </g>
  <g transform="translate(976.2, 363.8)">
      <g transform="translate(-1.99,3.67) rotate(0.39) scale(1.000)">
        <g transform="translate(0.45,3.98) rotate(2.75) scale(0.980)">
        <g transform="translate(2.79,3.93) rotate(6.91) scale(0.960)">
        <g transform="translate(4.44,3.53) rotate(12.55) scale(0.940)" clip-path="url(#clipHex)">
        <g transform="translate(5.00,2.81) rotate(19.25) scale(0.920)">
        <g transform="translate(4.34,1.85) rotate(26.44) scale(0.900)">
        <g transform="translate(2.62,0.72) rotate(33.52) scale(0.880)">
        <path d="M0.0,-53.0 L15.6,-21.4 L50.4,-16.4 L25.2,8.2 L31.1,42.9 L0.0,26.5 L-31.1,42.9 L-25.2,8.2 L-50.4,-16.4 L-15.6,-21.4Z" fill="url(#lgrad2)" filter="url(#blur2)" opacity="0.30"/>
      </g>
      </g>
      </g>
      </g>
      </g>
      </g>
      </g>
  </g>
  <g transform="translate(1211.0, 355.4)">
      <g transform="translate(2.79,3.32) rotate(0.39) scale(1.000)">
        <g transform="translate(4.44,2.51) rotate(2.75) scale(0.980)">
        <g transform="translate(5.00,1.48) rotate(6.91) scale(0.960)">
        <g transform="translate(4.34,0.32) rotate(12.55) scale(0.940)">
        <g transform="translate(2.62,-0.87) rotate(19.25) scale(0.920)">
        <g transform="translate(0.25,-1.99) rotate(26.44) scale(0.900)" mask="url(#maskCircleFade)">
        <g transform="translate(-2.17,-2.92) rotate(33.52) scale(0.880)">
        <rect x="-33.7" y="-33.7" width="67.4" height="67.4" rx="16.8" fill="url(#rgrad3)" filter="url(#shadow)" opacity="0.20"/>
        <circle cx="0" cy="0" r="22.5" fill="url(#rgrad4)" opacity="0.14"/>
      </g>
      </g>
      </g>
      </g>
      </g>
      </g>
      </g>
  </g>
  <g transform="translate(1443.0, 358.5)">
      <g transform="translate(5.00,-0.08) rotate(0.39) scale(1.000)">
        <g transform="translate(4.34,-1.26) rotate(2.75) scale(0.980)">
        <g transform="translate(2.62,-2.32) rotate(6.91) scale(0.960)">
        <g transform="translate(0.25,-3.18) rotate(12.55) scale(0.940)">
        <g transform="translate(-2.17,-3.76) rotate(19.25) scale(0.920)">
        <g transform="translate(-4.06,-3.99) rotate(26.44) scale(0.900)">
        <g transform="translate(-4.96,-3.88) rotate(33.52) scale(0.880)">
        <path d="M39.0,22.5 L0.0,45.0 L-39.0,22.5 L-39.0,-22.5 L-0.0,-45.0 L39.0,-22.5Z" fill="url(#rgrad4)" filter="url(#blur4)" opacity="0.14"/>
        <ellipse cx="0" cy="0" rx="18.7" ry="12.5" fill="#FFFFFF" opacity="0.07"/>
      </g>
      </g>
      </g>
      </g>
      </g>
      </g>
      </g>
  </g>
  <g transform="translate(1669.4, 371.7)">
      <g transform="translate(2.62,-3.41) rotate(0.39) scale(1.000)">
        <g transform="translate(0.25,-3.87) rotate(2.75) scale(0.980)">
        <g transform="translate(-2.17,-4.00) rotate(6.91) scale(0.960)">
        <g transform="translate(-4.06,-3.76) rotate(12.55) scale(0.940)" clip-path="url(#clipCircle)">
        <g transform="translate(-4.96,-3.19) rotate(19.25) scale(0.920)">
        <g transform="translate(-4.65,-2.33) rotate(26.44) scale(0.900)">
        <g transform="translate(-3.19,-1.26) rotate(33.52) scale(0.880)">
        <circle cx="0" cy="0" r="34.4" fill="url(#lgrad0)" filter="url(#shadow)" opacity="0.10"/>
        <text x="0" y="5" text-anchor="middle" font-family="Arial, sans-serif" font-size="14" fill="#FFFFFF" opacity="0.10">26</text>
      </g>
      </g>
      </g>
      </g>
      </g>
      </g>
      </g>
  </g>
  <g transform="translate(128.6, 668.8)">
      <g transform="translate(-2.17,-3.60) rotate(0.39) scale(1.000)">
        <g transform="translate(-4.06,-2.93) rotate(2.75) scale(0.980)">
        <g transform="translate(-4.96,-1.99) rotate(6.91) scale(0.960)">
        <g transform="translate(-4.65,-0.88) rotate(12.55) scale(0.940)">
        <g transform="translate(-3.19,0.31) rotate(19.25) scale(0.920)">
        <g transform="translate(-0.96,1.48) rotate(26.44) scale(0.900)" mask="url(#maskGradient)">
        <g transform="translate(1.51,2.51) rotate(33.52) scale(0.880)">
        <path d="M0.0,-54.6 L16.0,-22.1 L51.9,-16.9 L25.9,8.4 L32.1,44.1 L0.0,27.3 L-32.1,44.1 L-25.9,8.4 L-51.9,-16.9 L-16.0,-22.1Z" fill="url(#rgrad1)" filter="url(#blur1)" opacity="0.11"/>
      </g>
      </g>
      </g>
      </g>
      </g>
      </g>
      </g>
  </g>
  <g transform="translate(340.8, 681.8)">
      <g transform="translate(-4.96,-0.48) rotate(0.39) scale(1.000)">
        <g transform="translate(-4.65,0.71) rotate(2.75) scale(0.980)">
        <g transform="translate(-3.19,1.84) rotate(6.91) scale(0.960)">
        <g transform="translate(-0.96,2.81) rotate(12.55) scale(0.940)">
        <g transform="translate(1.51,3.52) rotate(19.25) scale(0.920)">
        <g transform="translate(3.61,3.93) rotate(26.44) scale(0.900)">
        <g transform="translate(4.83,3.98) rotate(33.52) scale(0.880)">
        <rect x="-22.6" y="-22.6" width="45.3" height="45.3" rx="11.3" fill="url(#rgrad2)" filter="url(#shadow)" opacity="0.14"/>
        <circle cx="0" cy="0" r="15.1" fill="url(#rgrad3)" opacity="0.10"/>
      </g>
      </g>
      </g>
      </g>
      </g>
      </g>
      </g>
  </g>
  <g transform="translate(547.9, 684.5)">
      <g transform="translate(-3.19,3.08) rotate(0.39) scale(1.000)">
        <g transform="translate(-0.96,3.70) rotate(2.75) scale(0.980)">
        <g transform="translate(1.51,3.98) rotate(6.91) scale(0.960)">
        <g transform="translate(3.61,3.91) rotate(12.55) scale(0.940)" clip-path="url(#clipRect)">
        <g transform="translate(4.83,3.50) rotate(19.25) scale(0.920)">
        <g transform="translate(4.86,2.76) rotate(26.44) scale(0.900)">
        <g transform="translate(3.70,1.79) rotate(33.52) scale(0.880)">
        <path d="M25.7,14.9 L0.0,29.7 L-25.7,14.9 L-25.7,-14.9 L-0.0,-29.7 L25.7,-14.9Z" fill="url(#lgrad3)" filter="url(#blur3)" opacity="0.21"/>
        <ellipse cx="0" cy="0" rx="12.4" ry="8.3" fill="#FFFFFF" opacity="0.11"/>
      </g>
      </g>
      </g>
      </g>
      </g>
      </g>
      </g>
  </g>
  <g transform="translate(753.1, 675.7)">
      <g transform="translate(1.51,3.81) rotate(0.39) scale(1.000)">
        <g transform="translate(3.61,3.28) rotate(2.75) scale(0.980)">
        <g transform="translate(4.83,2.46) rotate(6.91) scale(0.960)">
        <g transform="translate(4.86,1.42) rotate(12.55) scale(0.940)">
        <g transform="translate(3.70,0.25) rotate(19.25) scale(0.920)">
        <g transform="translate(1.64,-0.94) rotate(26.44) scale(0.900)" mask="url(#maskDynamic)">
        <g transform="translate(-0.83,-2.05) rotate(33.52) scale(0.880)">
        <circle cx="0" cy="0" r="31.7" fill="url(#rgrad4)" filter="url(#shadow)" opacity="0.31"/>
        <text x="0" y="5" text-anchor="middle" font-family="Arial, sans-serif" font-size="14" fill="#FFFFFF" opacity="0.31">26</text>
      </g>
      </g>
      </g>
      </g>
      </g>
      </g>
      </g>
  </g>
  <g transform="translate(959.9, 659.5)">
      <g transform="translate(4.83,1.04) rotate(0.39) scale(1.000)">
        <g transform="translate(4.86,-0.15) rotate(2.75) scale(0.980)">
        <g transform="translate(3.70,-1.32) rotate(6.91) scale(0.960)">
        <g transform="translate(1.64,-2.38) rotate(12.55) scale(0.940)">
        <g transform="translate(-0.83,-3.22) rotate(19.25) scale(0.920)">
        <g transform="translate(-3.09,-3.78) rotate(26.44) scale(0.900)">
        <g transform="translate(-4.60,-4.00) rotate(33.52) scale(0.880)">
        <path d="M0.0,-74.1 L21.8,-30.0 L70.5,-22.9 L35.3,11.5 L43.6,60.0 L0.0,37.1 L-43.6,60.0 L-35.3,11.5 L-70.5,-22.9 L-21.8,-30.0Z" fill="url(#rgrad0)" filter="url(#blur0)" opacity="0.42"/>
      </g>
      </g>
      </g>
      </g>
      </g>
      </g>
      </g>
  </g>
  <g transform="translate(1171.7, 643.5)">
      <g transform="translate(3.70,-2.69) rotate(0.39) scale(1.000)">
        <g transform="translate(1.64,-3.44) rotate(2.75) scale(0.980)">
        <g transform="translate(-0.83,-3.89) rotate(6.91) scale(0.960)">
        <g transform="translate(-3.09,-3.99) rotate(12.55) scale(0.940)" clip-path="url(#clipStar)">
        <g transform="translate(-4.60,-3.73) rotate(19.25) scale(0.920)">
        <g transform="translate(-4.98,-3.14) rotate(26.44) scale(0.900)">
        <g transform="translate(-4.14,-2.27) rotate(33.52) scale(0.880)">
        <rect x="-35.9" y="-35.9" width="71.9" height="71.9" rx="18.0" fill="url(#lgrad1)" filter="url(#shadow)" opacity="0.54"/>
        <circle cx="0" cy="0" r="24.0" fill="url(#rgrad2)" opacity="0.38"/>
      </g>
      </g>
      </g>
      </g>
      </g>
      </g>
      </g>
  </g>
  <g transform="translate(1390.4, 635.3)">
      <g transform="translate(-0.83,-3.94) rotate(0.39) scale(1.000)">
        <g transform="translate(-3.09,-3.57) rotate(2.75) scale(0.980)">
        <g transform="translate(-4.60,-2.88) rotate(6.91) scale(0.960)">
        <g transform="translate(-4.98,-1.93) rotate(12.55) scale(0.940)">
        <g transform="translate(-4.14,-0.81) rotate(19.25) scale(0.920)">
        <g transform="translate(-2.29,0.38) rotate(26.44) scale(0.900)" mask="url(#maskStripes)">
        <g transform="translate(0.12,1.54) rotate(33.52) scale(0.880)">
        <path d="M30.5,17.6 L0.0,35.2 L-30.5,17.6 L-30.5,-17.6 L-0.0,-35.2 L30.5,-17.6Z" fill="url(#rgrad2)" filter="url(#blur2)" opacity="0.65"/>
        <ellipse cx="0" cy="0" rx="14.7" ry="9.8" fill="#FFFFFF" opacity="0.33"/>
      </g>
      </g>
      </g>
      </g>
      </g>
      </g>
      </g>
  </g>
  <g transform="translate(1616.3, 638.7)">
      <g transform="translate(-4.60,-1.58) rotate(0.39) scale(1.000)">
        <g transform="translate(-4.98,-0.42) rotate(2.75) scale(0.980)">
        <g transform="translate(-4.14,0.78) rotate(6.91) scale(0.960)">
        <g transform="translate(-2.29,1.90) rotate(12.55) scale(0.940)">
        <g transform="translate(0.12,2.86) rotate(19.25) scale(0.920)">
        <g transform="translate(2.50,3.56) rotate(26.44) scale(0.900)">
        <g transform="translate(4.27,3.94) rotate(33.52) scale(0.880)">
        <circle cx="0" cy="0" r="23.4" fill="url(#rgrad3)" filter="url(#shadow)" opacity="0.76"/>
        <text x="0" y="5" text-anchor="middle" font-family="Arial, sans-serif" font-size="14" fill="#FFFFFF" opacity="0.76">26</text>
      </g>
      </g>
      </g>
      </g>
      </g>
      </g>
      </g>
  </g>
  <g transform="translate(88.1, 932.1)">
      <g transform="translate(-4.14,2.24) rotate(0.39) scale(1.000)">
        <g transform="translate(-2.29,3.12) rotate(2.75) scale(0.980)">
        <g transform="translate(0.12,3.72) rotate(6.91) scale(0.960)">
        <g transform="translate(2.50,3.99) rotate(12.55) scale(0.940)" clip-path="url(#clipDynamic)">
        <g transform="translate(4.27,3.90) rotate(19.25) scale(0.920)">
        <g transform="translate(4.99,3.46) rotate(26.44) scale(0.900)">
        <g transform="translate(4.49,2.72) rotate(33.52) scale(0.880)">
        <path d="M0.0,-47.0 L13.8,-19.0 L44.7,-14.5 L22.3,7.3 L27.6,38.0 L0.0,23.5 L-27.6,38.0 L-22.3,7.3 L-44.7,-14.5 L-13.8,-19.0Z" fill="url(#lgrad4)" filter="url(#blur4)" opacity="0.84"/>
      </g>
      </g>
      </g>
      </g>
      </g>
      </g>
      </g>
  </g>
  <g transform="translate(315.7, 379.0)" mask="url(#maskGradient)">
    <ellipse cx="0" cy="0" rx="200" ry="150" fill="url(#rgrad0)" filter="url(#blur3)" opacity="0.3"/>
  </g>
  <g transform="translate(891.6, 352.4)" mask="url(#maskCircleFade)">
    <ellipse cx="0" cy="0" rx="200" ry="150" fill="url(#rgrad1)" filter="url(#blur3)" opacity="0.3"/>
  </g>
  <g transform="translate(1383.3, 301.1)" mask="url(#maskStripes)">
    <ellipse cx="0" cy="0" rx="200" ry="150" fill="url(#rgrad2)" filter="url(#blur3)" opacity="0.3"/>
  </g>
</svg>