<?xml version="1.0" encoding="UTF-8"?>
<svg xmlns="http://www.w3.org/2000/svg" viewBox="0 0 1920 1080" width="1920" height="1080">
  <defs>
    <filter id="blur0" x="-50%" y="-50%" width="200%" height="200%">
      <feGaussianBlur in="SourceGraphic" stdDeviation="1"/>
    </filter>
    <filter id="blur1" x="-50%" y="-50%" width="200%" height="200%">
      <feGaussianBlur in="SourceGraphic" stdDeviation="3"/>
    </filter>
    <filter id="blur2" x="-50%" y="-50%" width="200%" height="200%">
      <feGaussianBlur in="SourceGraphic" stdDeviation="5"/>
    </filter>
    <filter id="blur3" x="-50%" y="-50%" width="200%" height="200%">
      <feGaussianBlur in="SourceGraphic" stdDeviation="7"/>
    </filter>
    <filter id="blur4" x="-50%" y="-50%" width="200%" height="200%">
      <feGaussianBlur in="SourceGraphic" stdDeviation="9"/>
    </filter>
    <filter id="shadow" x="-50%" y="-50%" width="200%" height="200%">
      <feGaussianBlur in="SourceAlpha" stdDeviation="3" result="blur"/>
      <feOffset in="blur" dx="4" dy="4" result="offsetBlur"/>
      <feMerge>
        <feMergeNode in="offsetBlur"/>
        <feMergeNode in="SourceGraphic"/>
      </feMerge>
    </filter>
    <linearGradient id="lgrad0" x1="0%" y1="0%" x2="0.0%" y2="50.0%">
      <stop offset="0%" stop-color="#FF6B6B"/>
      <stop offset="33%" stop-color="#4ECDC4"/>
      <stop offset="66%" stop-color="#45B7D1"/>
      <stop offset="100%" stop-color="#96E6A1"/>
    </linearGradient>
    <linearGradient id="lgrad1" x1="0%" y1="0%" x2="6.7%" y2="25.0%">
      <stop offset="0%" stop-color="#FFE66D"/>
      <stop offset="33%" stop-color="#FF6B6B"/>
      <stop offset="66%" stop-color="#C44D58"/>
      <stop offset="100%" stop-color="#8B0000"/>
    </linearGradient>
    <linearGradient id="lgrad2" x1="0%" y1="0%" x2="25.0%" y2="6.7%">
      <stop offset="0%" stop-color="#4169E1"/>
      <stop offset="33%" stop-color="#7B68EE"/>
      <stop offset="66%" stop-color="#9370DB"/>
      <stop offset="100%" stop-color="#FFD700"/>
    </linearGradient>
    <linearGradient id="lgrad3" x1="0%" y1="0%" x2="50.0%" y2="0.0%">
      <stop offset="0%" stop-color="#32CD32"/>
      <stop offset="33%" stop-color="#228B22"/>
      <stop offset="66%" stop-color="#006400"/>
      <stop offset="100%" stop-color="#ADFF2F"/>
    </linearGradient>
    <linearGradient id="lgrad4" x1="0%" y1="0%" x2="75.0%" y2="6.7%">
      <stop offset="0%" stop-color="#FF1493"/>
      <stop offset="33%" stop-color="#FF69B4"/>
      <stop offset="66%" stop-color="#FFB6C1"/>
      <stop offset="100%" stop-color="#FFC0CB"/>
    </linearGradient>
    <radialGradient id="rgrad0" cx="31.0%" cy="44.0%" r="60%">
      <stop offset="0%" stop-color="#FF6B6B" stop-opacity="1"/>
      <stop offset="50%" stop-color="#4ECDC4" stop-opacity="0.8"/>
      <stop offset="100%" stop-color="#45B7D1" stop-opacity="0.6"/>
    </radialGradient>
    <radialGradient id="rgrad1" cx="41.0%" cy="52.0%" r="60%">
      <stop offset="0%" stop-color="#FFE66D" stop-opacity="1"/>
      <stop offset="50%" stop-color="#FF6B6B" stop-opacity="0.8"/>
      <stop offset="100%" stop-color="#C44D58" stop-opacity="0.6"/>
    </radialGradient>
    <radialGradient id="rgrad2" cx="51.0%" cy="60.0%" r="60%">
      <stop offset="0%" stop-color="#4169E1" stop-opacity="1"/>
      <stop offset="50%" stop-color="#7B68EE" stop-opacity="0.8"/>
      <stop offset="100%" stop-color="#9370DB" stop-opacity="0.6"/>
    </radialGradient>
    <radialGradient id="rgrad3" cx="61.0%" cy="68.0%" r="60%">
      <stop offset="0%" stop-color="#32CD32" stop-opacity="1"/>
      <stop offset="50%" stop-color="#228B22" stop-opacity="0.8"/>
      <stop offset="100%" stop-color="#006400" stop-opacity="0.6"/>
    </radialGradient>
    <radialGradient id="rgrad4" cx="31.0%" cy="36.0%" r="60%">
      <stop offset="0%" stop-color="#FF1493" stop-opacity="1"/>
      <stop offset="50%" stop-color="#FF69B4" stop-opacity="0.8"/>
      <stop offset="100%" stop-color="#FFB6C1" stop-opacity="0.6"/>
    </radialGradient>
    <clipPath id="clipCircle">
      <circle cx="0" cy="0" r="50"/>
    </clipPath>
    <clipPath id="clipStar">
      <path d="M0.0,-50.0 L14.7,-20.2 L47.6,-15.5 L23.8,7.7 L29.4,40.5 L0.0,25.0 L-29.4,40.5 L-23.8,7.7 L-47.6,-15.5 L-14.7,-20.2Z"/>
    </clipPath>
    <clipPath id="clipHex">
      <path d="M39.0,22.5 L0.0,45.0 L-39.0,22.5 L-39.0,-22.5 L-0.0,-45.0 L39.0,-22.5Z"/>
    </clipPath>
    <clipPath id="clipRect">
      <rect x="-40" y="-30" width="80" height="60" rx="10"/>
    </clipPath>
    <clipPath id="clipDynamic">
      <circle cx="0" cy="0" r="49.9"/>
    </clipPath>
    <mask id="maskGradient" maskContentUnits="objectBoundingBox">
      <rect x="0" y="0" width="1" height="1" fill="url(#maskGrad)"/>
    </mask>
    <linearGradient id="maskGrad" x1="0%" y1="0%" x2="100%" y2="100%">
      <stop offset="0%" stop-color="white"/>
      <stop offset="100%" stop-color="black"/>
    </linearGradient>
    <mask id="maskCircleFade">
      <circle cx="0" cy="0" r="60" fill="white"/>
      <circle cx="0" cy="0" r="30" fill="black"/>
    </mask>
    <mask id="maskStripes">
      <rect x="-50" y="-50" width="100" height="100" fill="white"/>
      <rect x="-50" y="-40" width="100" height="10" fill="black"/>
      <rect x="-50" y="-20" width="100" height="10" fill="black"/>
      <rect x="-50" y="0" width="100" height="10" fill="black"/>
      <rect x="-50" y="20" width="100" height="10" fill="black"/>
      <rect x="-50" y="40" width="100" height="10" fill="black"/>
    </mask>
    <mask id="maskDynamic">
      <rect x="-60" y="-60" width="120" height="120" fill="white" fill-opacity="0.82"/>
      <circle cx="0" cy="0" r="25" fill="white"/>
    </mask>
  </defs>
  <rect width="1920" height="1080" fill="url(#lgrad0)"/>
  <g transform="translate(129.8, 97.0)">
      <g transform="translate(4.96,-0.48) rotate(3.74) scale(1.000)">
        <g transform="translate(4.07,-1.63) rotate(8.65) scale(0.980)">
        <g transform="translate(2.17,-2.64) rotate(14.22) scale(0.960)">
        <g transform="translate(-0.25,-3.41) rotate(19.84) scale(0.940)" clip-path="url(#clipCircle)">
        <g transform="translate(-2.61,-3.88) rotate(24.93) scale(0.920)">
        <g transform="translate(-4.34,-3.99) rotate(28.87) scale(0.900)">
        <g transform="translate(-5.00,-3.76) rotate(31.12) scale(0.880)">
        <path d="M0.0,-71.2 L20.9,-28.8 L67.7,-22.0 L33.9,11.0 L41.9,57.6 L0.0,35.6 L-41.9,57.6 L-33.9,11.0 L-67.7,-22.0 L-20.9,-28.8Z" fill="url(#lgrad0)" filter="url(#blur0)" opacity="0.80"/>
      </g>
      </g>
      </g>
      </g>
      </g>
      </g>
      </g>
  </g>
  <g transform="translate(344.4, 81.7)">
      <g transform="translate(2.17,-3.60) rotate(3.74) scale(1.000)">
        <g transform="translate(-0.25,-3.96) rotate(8.65) scale(0.980)">
        <g transform="translate(-2.61,-3.95) rotate(14.22) scale(0.960)">
        <g transform="translate(-4.34,-3.60) rotate(19.84) scale(0.940)">
        <g transform="translate(-5.00,-2.93) rotate(24.93) scale(0.920)">
        <g transform="translate(-4.44,-1.99) rotate(28.87) scale(0.900)" mask="url(#maskCircleFade)">
        <g transform="translate(-2.79,-0.87) rotate(31.12) scale(0.880)">
        <rect x="-37.2" y="-37.2" width="74.4" height="74.4" rx="18.6" fill="url(#rgrad1)" filter="url(#shadow)" opacity="0.86"/>
        <circle cx="0" cy="0" r="24.8" fill="url(#rgrad2)" opacity="0.61"/>
      </g>
      </g>
      </g>
      </g>
      </g>
      </g>
      </g>
  </g>
  <g transform="translate(553.0, 75.0)">
      <g transform="translate(-2.61,-3.41) rotate(3.74) scale(1.000)">
        <g transform="translate(-4.34,-2.64) rotate(8.65) scale(0.980)">
        <g transform="translate(-5.00,-1.63) rotate(14.22) scale(0.960)">
        <g transform="translate(-4.44,-0.48) rotate(19.84) scale(0.940)">
        <g transform="translate(-2.79,0.71) rotate(24.93) scale(0.920)">
        <g transform="translate(-0.46,1.85) rotate(28.87) scale(0.900)">
        <g transform="translate(1.99,2.81) rotate(31.12) scale(0.880)">
        <path d="M33.4,19.3 L0.0,38.6 L-33.4,19.3 L-33.4,-19.3 L-0.0,-38.6 L33.4,-19.3Z" fill="url(#rgrad2)" filter="url(#blur2)" opacity="0.90"/>
        <ellipse cx="0" cy="0" rx="16.1" ry="10.7" fill="#FFFFFF" opacity="0.45"/>
      </g>
      </g>
      </g>
      </g>
      </g>
      </g>
      </g>
  </g>
  <g transform="translate(758.5, 80.1)">
      <g transform="translate(-5.00,-0.08) rotate(3.74) scale(1.000)">
        <g transform="translate(-4.44,1.10) rotate(8.65) scale(0.980)">
        <g transform="translate(-2.79,2.19) rotate(14.22) scale(0.960)">
        <g transform="translate(-0.46,3.08) rotate(19.84) scale(0.940)" clip-path="url(#clipRect)">
        <g transform="translate(1.99,3.70) rotate(24.93) scale(0.920)">
        <g transform="translate(3.94,3.98) rotate(28.87) scale(0.900)">
        <g transform="translate(4.93,3.91) rotate(31.12) scale(0.880)">
        <circle cx="0" cy="0" r="25.1" fill="url(#lgrad3)" filter="url(#shadow)" opacity="0.89"/>
        <text x="0" y="5" text-anchor="middle" font-family="Arial, sans-serif" font-size="14" fill="#FFFFFF" opacity="0.89">270</text>
      </g>
      </g>
      </g>
      </g>
      </g>
      </g>
      </g>
  </g>
  <g transform="translate(964.3, 94.5)">
      <g transform="translate(-2.79,3.32) rotate(3.74) scale(1.000)">
        <g transform="translate(-0.46,3.83) rotate(8.65) scale(0.980)">
        <g transform="translate(1.99,4.00) rotate(14.22) scale(0.960)">
        <g transform="translate(3.94,3.81) rotate(19.84) scale(0.940)">
        <g transform="translate(4.93,3.28) rotate(24.93) scale(0.920)">
        <g transform="translate(4.72,2.46) rotate(28.87) scale(0.900)" mask="url(#maskGradient)">
        <g transform="translate(3.35,1.42) rotate(31.12) scale(0.880)">
        <path d="M0.0,-45.1 L13.3,-18.3 L42.9,-13.9 L21.5,7.0 L26.5,36.5 L0.0,22.6 L-26.5,36.5 L-21.5,7.0 L-42.9,-13.9 L-13.3,-18.3Z" fill="url(#rgrad4)" filter="url(#blur4)" opacity="0.86"/>
      </g>
      </g>
      </g>
      </g>
      </g>
      </g>
      </g>
  </g>
  <g transform="translate(1174.0, 111.5)">
      <g transform="translate(1.99,3.67) rotate(3.74) scale(1.000)">
        <g transform="translate(3.94,3.04) rotate(8.65) scale(0.980)">
        <g transform="translate(4.93,2.13) rotate(14.22) scale(0.960)">
        <g transform="translate(4.72,1.04) rotate(19.84) scale(0.940)">
        <g transform="translate(3.35,-0.15) rotate(24.93) scale(0.920)">
        <g transform="translate(1.15,-1.33) rotate(28.87) scale(0.900)">
        <g transform="translate(-1.32,-2.38) rotate(31.12) scale(0.880)">
        <rect x="-26.8" y="-26.8" width="53.6" height="53.6" rx="13.4" fill="url(#rgrad0)" filter="url(#shadow)" opacity="0.79"/>
        <circle cx="0" cy="0" r="17.9" fill="url(#rgrad1)" opacity="0.55"/>
      </g>
      </g>
      </g>
      </g>
      </g>
      </g>
      </g>
  </g>
  <g transform="translate(1390.0, 123.1)">
      <g transform="translate(4.93,0.65) rotate(3.74) scale(1.000)">
        <g transform="translate(4.72,-0.55) rotate(8.65) scale(0.980)">
        <g transform="translate(3.35,-1.70) rotate(14.22) scale(0.960)">
        <g transform="translate(1.15,-2.69) rotate(19.84) scale(0.940)" clip-path="url(#clipStar)">
        <g transform="translate(-1.32,-3.45) rotate(24.93) scale(0.920)">
        <g transform="translate(-3.47,-3.89) rotate(28.87) scale(0.900)">
        <g transform="translate(-4.77,-3.99) rotate(31.12) scale(0.880)">
        <path d="M35.3,20.4 L0.0,40.8 L-35.3,20.4 L-35.3,-20.4 L-0.0,-40.8 L35.3,-20.4Z" fill="url(#lgrad1)" filter="url(#blur1)" opacity="0.69"/>
        <ellipse cx="0" cy="0" rx="17.0" ry="11.3" fill="#FFFFFF" opacity="0.35"/>
      </g>
      </g>
      </g>
      </g>
      </g>
      </g>
      </g>
  </g>
  <g transform="translate(1613.4, 123.8)">
      <g transform="translate(3.35,-2.97) rotate(3.74) scale(1.000)">
        <g transform="translate(1.15,-3.63) rotate(8.65) scale(0.980)">
        <g transform="translate(-1.32,-3.96) rotate(14.22) scale(0.960)">
        <g transform="translate(-3.47,-3.94) rotate(19.84) scale(0.940)">
        <g transform="translate(-4.77,-3.57) rotate(24.93) scale(0.920)">
        <g transform="translate(-4.90,-2.88) rotate(28.87) scale(0.900)" mask="url(#maskDynamic)">
        <g transform="translate(-3.84,-1.93) rotate(31.12) scale(0.880)">
        <circle cx="0" cy="0" r="37.5" fill="url(#rgrad2)" filter="url(#shadow)" opacity="0.58"/>
        <text x="0" y="5" text-anchor="middle" font-family="Arial, sans-serif" font-size="14" fill="#FFFFFF" opacity="0.58">270</text>
      </g>
      </g>
      </g>
      </g>
      </g>
      </g>
      </g>
  </g>
  <g transform="translate(83.3, 393.3)">
      <g transform="translate(-1.32,-3.86) rotate(3.74) scale(1.000)">
        <g transform="translate(-3.47,-3.37) rotate(8.65) scale(0.980)">
        <g transform="translate(-4.77,-2.59) rotate(14.22) scale(0.960)">
        <g transform="translate(-4.90,-1.57) rotate(19.84) scale(0.940)">
        <g transform="translate(-3.84,-0.41) rotate(24.93) scale(0.920)">
        <g transform="translate(-1.83,0.78) rotate(28.87) scale(0.900)">
        <g transform="translate(0.63,1.90) rotate(31.12) scale(0.880)">
        <path d="M0.0,-68.2 L20.0,-27.6 L64.9,-21.1 L32.4,10.5 L40.1,55.2 L0.0,34.1 L-40.1,55.2 L-32.4,10.5 L-64.9,-21.1 L-20.0,-27.6Z" fill="url(#rgrad3)" filter="url(#blur3)" opacity="0.46"/>
      </g>
      </g>
      </g>
      </g>
      </g>
      </g>
      </g>
  </g>
  <g transform="translate(317.3, 376.6)">
      <g transform="translate(-4.77,-1.20) rotate(3.74) scale(1.000)">
        <g transform="translate(-4.90,-0.01) rotate(8.65) scale(0.980)">
        <g transform="translate(-3.84,1.17) rotate(14.22) scale(0.960)">
        <g transform="translate(-1.83,2.25) rotate(19.84) scale(0.940)" clip-path="url(#clipDynamic)">
        <g transform="translate(0.63,3.12) rotate(24.93) scale(0.920)">
        <g transform="translate(2.93,3.72) rotate(28.87) scale(0.900)">
        <g transform="translate(4.51,3.99) rotate(31.12) scale(0.880)">
        <rect x="-26.9" y="-26.9" width="53.9" height="53.9" rx="13.5" fill="url(#lgrad4)" filter="url(#shadow)" opacity="0.34"/>
        <circle cx="0" cy="0" r="18.0" fill="url(#rgrad0)" opacity="0.24"/>
      </g>
      </g>
      </g>
      </g>
      </g>
      </g>
      </g>
  </g>
  <g transform="translate(551.9, 361.4)">
      <g transform="translate(-3.84,2.57) rotate(3.74) scale(1.000)">
        <g transform="translate(-1.83,3.36) rotate(8.65) scale(0.980)">
        <g transform="translate(0.63,3.85) rotate(14.22) scale(0.960)">
        <g transform="translate(2.93,4.00) rotate(19.84) scale(0.940)">
        <g transform="translate(4.51,3.79) rotate(24.93) scale(0.920)">
        <g transform="translate(4.99,3.24) rotate(28.87) scale(0.900)" mask="url(#maskStripes)">
        <g transform="translate(4.25,2.41) rotate(31.12) scale(0.880)">
        <path d="M23.5,13.6 L0.0,27.1 L-23.5,13.6 L-23.5,-13.6 L-0.0,-27.1 L23.5,-13.6Z" fill="url(#rgrad0)" filter="url(#blur0)" opacity="0.24"/>
        <ellipse cx="0" cy="0" rx="11.3" ry="7.5" fill="#FFFFFF" opacity="0.12"/>
      </g>
      </g>
      </g>
      </g>
      </g>
      </g>
      </g>
  </g>
  <g transform="translate(783.7, 355.0)">
      <g transform="translate(0.63,3.97) rotate(3.74) scale(1.000)">
        <g transform="translate(2.93,3.64) rotate(8.65) scale(0.980)">
        <g transform="translate(4.51,2.99) rotate(14.22) scale(0.960)">
        <g transform="translate(4.99,2.07) rotate(19.84) scale(0.940)">
        <g transform="translate(4.25,0.97) rotate(24.93) scale(0.920)">
        <g transform="translate(2.47,-0.22) rotate(28.87) scale(0.900)">
        <g transform="translate(0.08,-1.39) rotate(31.12) scale(0.880)">
        <circle cx="0" cy="0" r="25.1" fill="url(#rgrad1)" filter="url(#shadow)" opacity="0.16"/>
        <text x="0" y="5" text-anchor="middle" font-family="Arial, sans-serif" font-size="14" fill="#FFFFFF" opacity="0.16">270</text>
      </g>
      </g>
      </g>
      </g>
      </g>
      </g>
      </g>
  </g>
  <g transform="translate(1009.6, 360.4)">
      <g transform="translate(4.51,1.72) rotate(3.74) scale(1.000)">
        <g transform="translate(4.99,0.58) rotate(8.65) scale(0.980)">
        <g transform="translate(4.25,-0.62) rotate(14.22) scale(0.960)">
        <g transform="translate(2.47,-1.76) rotate(19.84) scale(0.940)" clip-path="url(#clipHex)">
        <g transform="translate(0.08,-2.74) rotate(24.93) scale(0.920)">
        <g transform="translate(-2.33,-3.48) rotate(28.87) scale(0.900)">
        <g transform="translate(-4.16,-3.91) rotate(31.12) scale(0.880)">
        <path d="M0.0,-64.1 L18.8,-25.9 L61.0,-19.8 L30.5,9.9 L37.7,51.9 L0.0,32.1 L-37.7,51.9 L-30.5,9.9 L-61.0,-19.8 L-18.8,-25.9Z" fill="url(#lgrad2)" filter="url(#blur2)" opacity="0.11"/>
      </g>
      </g>
      </g>
      </g>
      </g>
      </g>
      </g>
  </g>
  <g transform="translate(1228.3, 374.9)">
      <g transform="translate(4.25,-2.11) rotate(3.74) scale(1.000)">
        <g transform="translate(2.47,-3.02) rotate(8.65) scale(0.980)">
        <g transform="translate(0.08,-3.66) rotate(14.22) scale(0.960)">
        <g transform="translate(-2.33,-3.97) rotate(19.84) scale(0.940)">
        <g transform="translate(-4.16,-3.93) rotate(24.93) scale(0.920)">
        <g transform="translate(-4.98,-3.54) rotate(28.87) scale(0.900)" mask="url(#maskCircleFade)">
        <g transform="translate(-4.58,-2.83) rotate(31.12) scale(0.880)">
        <rect x="-37.2" y="-37.2" width="74.4" height="74.4" rx="18.6" fill="url(#rgrad3)" filter="url(#shadow)" opacity="0.10"/>
        <circle cx="0" cy="0" r="24.8" fill="url(#rgrad4)" opacity="0.07"/>
      </g>
      </g>
      </g>
      </g>
      </g>
      </g>
      </g>
  </g>
  <g transform="translate(1440.1, 391.9)">
      <g transform="translate(0.08,-4.00) rotate(3.74) scale(1.000)">
        <g transform="translate(-2.33,-3.84) rotate(8.65) scale(0.980)">
        <g transform="translate(-4.16,-3.34) rotate(14.22) scale(0.960)">
        <g transform="translate(-4.98,-2.54) rotate(19.84) scale(0.940)">
        <g transform="translate(-4.58,-1.51) rotate(24.93) scale(0.920)">
        <g transform="translate(-3.06,-0.35) rotate(28.87) scale(0.900)">
        <g transform="translate(-0.79,0.85) rotate(31.12) scale(0.880)">
        <path d="M37.1,21.4 L0.0,42.8 L-37.1,21.4 L-37.1,-21.4 L-0.0,-42.8 L37.1,-21.4Z" fill="url(#rgrad4)" filter="url(#blur4)" opacity="0.12"/>
        <ellipse cx="0" cy="0" rx="17.8" ry="11.9" fill="#FFFFFF" opacity="0.06"/>
      </g>
      </g>
      </g>
      </g>
      </g>
      </g>
      </g>
  </g>
  <g transform="translate(1646.9, 403.3)">
      <g transform="translate(-4.16,-2.22) rotate(3.74) scale(1.000)">
        <g transform="translate(-4.98,-1.13) rotate(8.65) scale(0.980)">
        <g transform="translate(-4.58,0.05) rotate(14.22) scale(0.960)">
        <g transform="translate(-3.06,1.23) rotate(19.84) scale(0.940)" clip-path="url(#clipCircle)">
        <g transform="translate(-0.79,2.30) rotate(24.93) scale(0.920)">
        <g transform="translate(1.68,3.17) rotate(28.87) scale(0.900)">
        <g transform="translate(3.73,3.75) rotate(31.12) scale(0.880)">
        <circle cx="0" cy="0" r="29.0" fill="url(#lgrad0)" filter="url(#shadow)" opacity="0.18"/>
        <text x="0" y="5" text-anchor="middle" font-family="Arial, sans-serif" font-size="14" fill="#FFFFFF" opacity="0.18">270</text>
      </g>
      </g>
      </g>
      </g>
      </g>
      </g>
      </g>
  </g>
  <g transform="translate(92.1, 683.7)">
      <g transform="translate(-4.58,1.61) rotate(3.74) scale(1.000)">
        <g transform="translate(-3.06,2.62) rotate(8.65) scale(0.980)">
        <g transform="translate(-0.79,3.39) rotate(14.22) scale(0.960)">
        <g transform="translate(1.68,3.87) rotate(19.84) scale(0.940)">
        <g transform="translate(3.73,4.00) rotate(24.93) scale(0.920)">
        <g transform="translate(4.87,3.77) rotate(28.87) scale(0.900)" mask="url(#maskGradient)">
        <g transform="translate(4.82,3.20) rotate(31.12) scale(0.880)">
        <path d="M0.0,-46.4 L13.6,-18.8 L44.1,-14.3 L22.1,7.2 L27.3,37.5 L0.0,23.2 L-27.3,37.5 L-22.1,7.2 L-44.1,-14.3 L-13.6,-18.8Z" fill="url(#rgrad1)" filter="url(#blur1)" opacity="0.26"/>
      </g>
      </g>
      </g>
      </g>
      </g>
      </g>
      </g>
  </g>
  <g transform="translate(299.2, 673.0)">
      <g transform="translate(-0.79,3.95) rotate(3.74) scale(1.000)">
        <g transform="translate(1.68,3.96) rotate(8.65) scale(0.980)">
        <g transform="translate(3.73,3.62) rotate(14.22) scale(0.960)">
        <g transform="translate(4.87,2.95) rotate(19.84) scale(0.940)">
        <g transform="translate(4.82,2.02) rotate(24.93) scale(0.920)">
        <g transform="translate(3.58,0.91) rotate(28.87) scale(0.900)">
        <g transform="translate(1.47,-0.29) rotate(31.12) scale(0.880)">
        <rect x="-23.7" y="-23.7" width="47.3" height="47.3" rx="11.8" fill="url(#rgrad2)" filter="url(#shadow)" opacity="0.37"/>
        <circle cx="0" cy="0" r="15.8" fill="url(#rgrad3)" opacity="0.26"/>
      </g>
      </g>
      </g>
      </g>
      </g>
      </g>
      </g>
  </g>
  <g transform="translate(511.4, 656.1)">
      <g transform="translate(3.73,2.66) rotate(3.74) scale(1.000)">
        <g transform="translate(4.87,1.66) rotate(8.65) scale(0.980)">
        <g transform="translate(4.82,0.51) rotate(14.22) scale(0.960)">
        <g transform="translate(3.58,-0.68) rotate(19.84) scale(0.940)" clip-path="url(#clipRect)">
        <g transform="translate(1.47,-1.82) rotate(24.93) scale(0.920)">
        <g transform="translate(-1.00,-2.79) rotate(28.87) scale(0.900)">
        <g transform="translate(-3.22,-3.51) rotate(31.12) scale(0.880)">
        <path d="M31.1,18.0 L0.0,36.0 L-31.1,18.0 L-31.1,-18.0 L-0.0,-36.0 L31.1,-18.0Z" fill="url(#lgrad3)" filter="url(#blur3)" opacity="0.49"/>
        <ellipse cx="0" cy="0" rx="15.0" ry="10.0" fill="#FFFFFF" opacity="0.24"/>
      </g>
      </g>
      </g>
      </g>
      </g>
      </g>
      </g>
  </g>
  <g transform="translate(730.6, 641.1)">
      <g transform="translate(4.82,-1.07) rotate(3.74) scale(1.000)">
        <g transform="translate(3.58,-2.16) rotate(8.65) scale(0.980)">
        <g transform="translate(1.47,-3.06) rotate(14.22) scale(0.960)">
        <g transform="translate(-1.00,-3.69) rotate(19.84) scale(0.940)">
        <g transform="translate(-3.22,-3.98) rotate(24.93) scale(0.920)">
        <g transform="translate(-4.66,-3.92) rotate(28.87) scale(0.900)" mask="url(#maskDynamic)">
        <g transform="translate(-4.96,-3.51) rotate(31.12) scale(0.880)">
        <circle cx="0" cy="0" r="36.3" fill="url(#rgrad4)" filter="url(#shadow)" opacity="0.60"/>
        <text x="0" y="5" text-anchor="middle" font-family="Arial, sans-serif" font-size="14" fill="#FFFFFF" opacity="0.60">270</text>
      </g>
      </g>
      </g>
      </g>
      </g>
      </g>
      </g>
  </g>
  <g transform="translate(957.0, 635.0)">
      <g transform="translate(1.47,-3.82) rotate(3.74) scale(1.000)">
        <g transform="translate(-1.00,-4.00) rotate(8.65) scale(0.980)">
        <g transform="translate(-3.22,-3.82) rotate(14.22) scale(0.960)">
        <g transform="translate(-4.66,-3.30) rotate(19.84) scale(0.940)">
        <g transform="translate(-4.96,-2.48) rotate(24.93) scale(0.920)">
        <g transform="translate(-4.04,-1.45) rotate(28.87) scale(0.900)">
        <g transform="translate(-2.13,-0.28) rotate(31.12) scale(0.880)">
        <path d="M0.0,-73.7 L21.6,-29.8 L70.1,-22.8 L35.0,11.4 L43.3,59.6 L0.0,36.8 L-43.3,59.6 L-35.0,11.4 L-70.1,-22.8 L-21.6,-29.8Z" fill="url(#rgrad0)" filter="url(#blur0)" opacity="0.71"/>
      </g>
      </g>
      </g>
      </g>
      </g>
      </g>
      </g>
  </g>
  <g transform="translate(1189.0, 640.6)">
      <g transform="translate(-3.22,-3.06) rotate(3.74) scale(1.000)">
        <g transform="translate(-4.66,-2.16) rotate(8.65) scale(0.980)">
        <g transform="translate(-4.96,-1.07) rotate(14.22) scale(0.960)">
        <g transform="translate(-4.04,0.12) rotate(19.84) scale(0.940)" clip-path="url(#clipStar)">
        <g transform="translate(-2.13,1.30) rotate(24.93) scale(0.920)">
        <g transform="translate(0.30,2.36) rotate(28.87) scale(0.900)">
        <g transform="translate(2.65,3.21) rotate(31.12) scale(0.880)">
        <rect x="-31.1" y="-31.1" width="62.2" height="62.2" rx="15.5" fill="url(#lgrad1)" filter="url(#shadow)" opacity="0.80"/>
        <circle cx="0" cy="0" r="20.7" fill="url(#rgrad2)" opacity="0.56"/>
      </g>
      </g>
      </g>
      </g>
      </g>
      </g>
      </g>
  </g>
  <g transform="translate(1423.8, 655.4)">
      <g transform="translate(-4.96,0.52) rotate(3.74) scale(1.000)">
        <g transform="translate(-4.04,1.67) rotate(8.65) scale(0.980)">
        <g transform="translate(-2.13,2.67) rotate(14.22) scale(0.960)">
        <g transform="translate(0.30,3.43) rotate(19.84) scale(0.940)">
        <g transform="translate(2.65,3.88) rotate(24.93) scale(0.920)">
        <g transform="translate(4.36,3.99) rotate(28.87) scale(0.900)" mask="url(#maskStripes)">
        <g transform="translate(5.00,3.74) rotate(31.12) scale(0.880)">
        <path d="M25.3,14.6 L0.0,29.2 L-25.3,14.6 L-25.3,-14.6 L-0.0,-29.2 L25.3,-14.6Z" fill="url(#rgrad2)" filter="url(#blur2)" opacity="0.87"/>
        <ellipse cx="0" cy="0" rx="12.2" ry="8.1" fill="#FFFFFF" opacity="0.43"/>
      </g>
      </g>
      </g>
      </g>
      </g>
      </g>
      </g>
  </g>
  <g transform="translate(1657.6, 672.3)">
      <g transform="translate(-2.13,3.62) rotate(3.74) scale(1.000)">
        <g transform="translate(0.30,3.96) rotate(8.65) scale(0.980)">
        <g transform="translate(2.65,3.95) rotate(14.22) scale(0.960)">
        <g transform="translate(4.36,3.59) rotate(19.84) scale(0.940)">
        <g transform="translate(5.00,2.90) rotate(24.93) scale(0.920)">
        <g transform="translate(4.42,1.96) rotate(28.87) scale(0.900)">
        <g transform="translate(2.75,0.84) rotate(31.12) scale(0.880)">
        <circle cx="0" cy="0" r="22.8" fill="url(#rgrad3)" filter="url(#shadow)" opacity="0.90"/>
        <text x="0" y="5" text-anchor="middle" font-family="Arial, sans-serif" font-size="14" fill="#FFFFFF" opacity="0.90">270</text>
      </g>
      </g>
      </g>
      </g>
      </g>
      </g>
      </g>
  </g>
  <g transform="translate(127.1, 963.4)">
      <g transform="translate(2.65,3.39) rotate(3.74) scale(1.000)">
        <g transform="translate(4.36,2.61) rotate(8.65) scale(0.980)">
        <g transform="translate(5.00,1.60) rotate(14.22) scale(0.960)">
        <g transform="translate(4.42,0.45) rotate(19.84) scale(0.940)" clip-path="url(#clipDynamic)">
        <g transform="translate(2.75,-0.75) rotate(24.93) scale(0.920)">
        <g transform="translate(0.41,-1.88) rotate(28.87) scale(0.900)">
        <g transform="translate(-2.03,-2.84) rotate(31.12) scale(0.880)">
        <path d="M0.0,-55.8 L16.4,-22.6 L53.0,-17.2 L26.5,8.6 L32.8,45.1 L0.0,27.9 L-32.8,45.1 L-26.5,8.6 L-53.0,-17.2 L-16.4,-22.6Z" fill="url(#lgrad4)" filter="url(#blur4)" opacity="0.89"/>
      </g>
      </g>
      </g>
      </g>
      </g>
      </g>
      </g>
  </g>
  <g transform="translate(399.3, 290.3)" mask="url(#maskGradient)">
    <ellipse cx="0" cy="0" rx="200" ry="150" fill="url(#rgrad0)" filter="url(#blur3)" opacity="0.3"/>
  </g>
  <g transform="translate(843.5, 241.4)" mask="url(#maskCircleFade)">
    <ellipse cx="0" cy="0" rx="200" ry="150" fill="url(#rgrad1)" filter="url(#blur3)" opacity="0.3"/>
  </g>
  <g transform="translate(1247.7, 220.1)" mask="url(#maskStripes)">
    <ellipse cx="0" cy="0" rx="200" ry="150" fill="url(#rgrad2)" filter="url(#blur3)" opacity="0.3"/>
  </g>
</svg>