<?xml version="1.0" encoding="UTF-8"?>
<svg xmlns="http://www.w3.org/2000/svg" viewBox="0 0 1920 1080" width="1920" height="1080">
  <defs>
    <filter id="blur0" x="-50%" y="-50%" width="200%" height="200%">
      <feGaussianBlur in="SourceGraphic" stdDeviation="1"/>
    </filter>
    <filter id="blur1" x="-50%" y="-50%" width="200%" height="200%">
      <feGaussianBlur in="SourceGraphic" stdDeviation="3"/>
    </filter>
    <filter id="blur2" x="-50%" y="-50%" width="200%" height="200%">
      <feGaussianBlur in="SourceGraphic" stdDeviation="5"/>
    </filter>
    <filter id="blur3" x="-50%" y="-50%" width="200%" height="200%">
      <feGaussianBlur in="SourceGraphic" stdDeviation="7"/>
    </filter>
    <filter id="blur4" x="-50%" y="-50%" width="200%" height="200%">
      <feGaussianBlur in="SourceGraphic" stdDeviation="9"/>
    </filter>
    <filter id="shadow" x="-50%" y="-50%" width="200%" height="200%">
      <feGaussianBlur in="SourceAlpha" stdDeviation="3" result="blur"/>
      <feOffset in="blur" dx="4" dy="4" result="offsetBlur"/>
      <feMerge>
        <feMergeNode in="offsetBlur"/>
        <feMergeNode in="SourceGraphic"/>
      </feMerge>
    </filter>
    <linearGradient id="lgrad0" x1="0%" y1="0%" x2="61.7%" y2="98.6%">
      <stop offset="0%" stop-color="#FF6B6B"/>
      <stop offset="33%" stop-color="#4ECDC4"/>
      <stop offset="66%" stop-color="#45B7D1"/>
      <stop offset="100%" stop-color="#96E6A1"/>
    </linearGradient>
    <linearGradient id="lgrad1" x1="0%" y1="0%" x2="35.8%" y2="97.9%">
      <stop offset="0%" stop-color="#FFE66D"/>
      <stop offset="33%" stop-color="#FF6B6B"/>
      <stop offset="66%" stop-color="#C44D58"/>
      <stop offset="100%" stop-color="#8B0000"/>
    </linearGradient>
    <linearGradient id="lgrad2" x1="0%" y1="0%" x2="13.7%" y2="84.4%">
      <stop offset="0%" stop-color="#4169E1"/>
      <stop offset="33%" stop-color="#7B68EE"/>
      <stop offset="66%" stop-color="#9370DB"/>
      <stop offset="100%" stop-color="#FFD700"/>
    </linearGradient>
    <linearGradient id="lgrad3" x1="0%" y1="0%" x2="1.4%" y2="61.7%">
      <stop offset="0%" stop-color="#32CD32"/>
      <stop offset="33%" stop-color="#228B22"/>
      <stop offset="66%" stop-color="#006400"/>
      <stop offset="100%" stop-color="#ADFF2F"/>
    </linearGradient>
    <linearGradient id="lgrad4" x1="0%" y1="0%" x2="2.1%" y2="35.8%">
      <stop offset="0%" stop-color="#FF1493"/>
      <stop offset="33%" stop-color="#FF69B4"/>
      <stop offset="66%" stop-color="#FFB6C1"/>
      <stop offset="100%" stop-color="#FFC0CB"/>
    </linearGradient>
    <radialGradient id="rgrad0" cx="64.9%" cy="66.6%" r="60%">
      <stop offset="0%" stop-color="#FF6B6B" stop-opacity="1"/>
      <stop offset="50%" stop-color="#4ECDC4" stop-opacity="0.8"/>
      <stop offset="100%" stop-color="#45B7D1" stop-opacity="0.6"/>
    </radialGradient>
    <radialGradient id="rgrad1" cx="34.9%" cy="34.6%" r="60%">
      <stop offset="0%" stop-color="#FFE66D" stop-opacity="1"/>
      <stop offset="50%" stop-color="#FF6B6B" stop-opacity="0.8"/>
      <stop offset="100%" stop-color="#C44D58" stop-opacity="0.6"/>
    </radialGradient>
    <radialGradient id="rgrad2" cx="44.9%" cy="42.6%" r="60%">
      <stop offset="0%" stop-color="#4169E1" stop-opacity="1"/>
      <stop offset="50%" stop-color="#7B68EE" stop-opacity="0.8"/>
      <stop offset="100%" stop-color="#9370DB" stop-opacity="0.6"/>
    </radialGradient>
    <radialGradient id="rgrad3" cx="54.9%" cy="50.6%" r="60%">
      <stop offset="0%" stop-color="#32CD32" stop-opacity="1"/>
      <stop offset="50%" stop-color="#228B22" stop-opacity="0.8"/>
      <stop offset="100%" stop-color="#006400" stop-opacity="0.6"/>
    </radialGradient>
    <radialGradient id="rgrad4" cx="64.9%" cy="58.6%" r="60%">
      <stop offset="0%" stop-color="#FF1493" stop-opacity="1"/>
      <stop offset="50%" stop-color="#FF69B4" stop-opacity="0.8"/>
      <stop offset="100%" stop-color="#FFB6C1" stop-opacity="0.6"/>
    </radialGradient>
    <clipPath id="clipCircle">
      <circle cx="0" cy="0" r="50"/>
    </clipPath>
    <clipPath id="clipStar">
      <path d="M0.0,-50.0 L14.7,-20.2 L47.6,-15.5 L23.8,7.7 L29.4,40.5 L0.0,25.0 L-29.4,40.5 L-23.8,7.7 L-47.6,-15.5 L-14.7,-20.2Z"/>
    </clipPath>
    <clipPath id="clipHex">
      <path d="M39.0,22.5 L0.0,45.0 L-39.0,22.5 L-39.0,-22.5 L-0.0,-45.0 L39.0,-22.5Z"/>
    </clipPath>
    <clipPath id="clipRect">
      <rect x="-40" y="-30" width="80" height="60" rx="10"/>
    </clipPath>
    <clipPath id="clipDynamic">
      <circle cx="0" cy="0" r="20.3"/>
    </clipPath>
    <mask id="maskGradient" maskContentUnits="objectBoundingBox">
      <rect x="0" y="0" width="1" height="1" fill="url(#maskGrad)"/>
    </mask>
    <linearGradient id="maskGrad" x1="0%" y1="0%" x2="100%" y2="100%">
      <stop offset="0%" stop-color="white"/>
      <stop offset="100%" stop-color="black"/>
    </linearGradient>
    <mask id="maskCircleFade">
      <circle cx="0" cy="0" r="60" fill="white"/>
      <circle cx="0" cy="0" r="30" fill="black"/>
    </mask>
    <mask id="maskStripes">
      <rect x="-50" y="-50" width="100" height="100" fill="white"/>
      <rect x="-50" y="-40" width="100" height="10" fill="black"/>
      <rect x="-50" y="-20" width="100" height="10" fill="black"/>
      <rect x="-50" y="0" width="100" height="10" fill="black"/>
      <rect x="-50" y="20" width="100" height="10" fill="black"/>
      <rect x="-50" y="40" width="100" height="10" fill="black"/>
    </mask>
    <mask id="maskDynamic">
      <rect x="-60" y="-60" width="120" height="120" fill="white" fill-opacity="0.74"/>
      <circle cx="0" cy="0" r="25" fill="white"/>
    </mask>
  </defs>
  <rect width="1920" height="1080" fill="url(#lgrad0)"/>
  <g transform="translate(70.6, 105.1)">
      <g transform="translate(-4.89,0.82) rotate(3.15) scale(1.000)">
        <g transform="translate(-3.80,1.94) rotate(4.64) scale(0.980)">
        <g transform="translate(-1.78,2.89) rotate(4.18) scale(0.960)">
        <g transform="translate(0.67,3.58) rotate(1.65) scale(0.940)" clip-path="url(#clipCircle)">
        <g transform="translate(2.97,3.95) rotate(-2.93) scale(0.920)">
        <g transform="translate(4.53,3.96) rotate(-9.37) scale(0.900)">
        <g transform="translate(4.99,3.63) rotate(-17.32) scale(0.880)">
        <path d="M0.0,-69.5 L20.4,-28.1 L66.1,-21.5 L33.0,10.7 L40.8,56.2 L0.0,34.7 L-40.8,56.2 L-33.0,10.7 L-66.1,-21.5 L-20.4,-28.1Z" fill="url(#lgrad0)" filter="url(#blur0)" opacity="0.75"/>
      </g>
      </g>
      </g>
      </g>
      </g>
      </g>
      </g>
  </g>
  <g transform="translate(297.2, 119.7)">
      <g transform="translate(-1.78,3.74) rotate(3.15) scale(1.000)">
        <g transform="translate(0.67,3.99) rotate(4.64) scale(0.980)">
        <g transform="translate(2.97,3.89) rotate(4.18) scale(0.960)">
        <g transform="translate(4.53,3.44) rotate(1.65) scale(0.940)">
        <g transform="translate(4.99,2.68) rotate(-2.93) scale(0.920)">
        <g transform="translate(4.22,1.69) rotate(-9.37) scale(0.900)" mask="url(#maskCircleFade)">
        <g transform="translate(2.43,0.54) rotate(-17.32) scale(0.880)">
        <rect x="-27.7" y="-27.7" width="55.3" height="55.3" rx="13.8" fill="url(#rgrad1)" filter="url(#shadow)" opacity="0.65"/>
        <circle cx="0" cy="0" r="18.4" fill="url(#rgrad2)" opacity="0.45"/>
      </g>
      </g>
      </g>
      </g>
      </g>
      </g>
      </g>
  </g>
  <g transform="translate(529.3, 125.0)">
      <g transform="translate(2.97,3.22) rotate(3.15) scale(1.000)">
        <g transform="translate(4.53,2.37) rotate(4.64) scale(0.980)">
        <g transform="translate(4.99,1.32) rotate(4.18) scale(0.960)">
        <g transform="translate(4.22,0.14) rotate(1.65) scale(0.940)">
        <g transform="translate(2.43,-1.05) rotate(-2.93) scale(0.920)">
        <g transform="translate(0.03,-2.14) rotate(-9.37) scale(0.900)">
        <g transform="translate(-2.37,-3.04) rotate(-17.32) scale(0.880)">
        <path d="M23.6,13.6 L0.0,27.3 L-23.6,13.6 L-23.6,-13.6 L-0.0,-27.3 L23.6,-13.6Z" fill="url(#rgrad2)" filter="url(#blur2)" opacity="0.53"/>
        <ellipse cx="0" cy="0" rx="11.4" ry="7.6" fill="#FFFFFF" opacity="0.27"/>
      </g>
      </g>
      </g>
      </g>
      </g>
      </g>
      </g>
  </g>
  <g transform="translate(764.0, 118.5)">
      <g transform="translate(4.99,-0.26) rotate(3.15) scale(1.000)">
        <g transform="translate(4.22,-1.43) rotate(4.64) scale(0.980)">
        <g transform="translate(2.43,-2.47) rotate(4.18) scale(0.960)">
        <g transform="translate(0.03,-3.29) rotate(1.65) scale(0.940)" clip-path="url(#clipRect)">
        <g transform="translate(-2.37,-3.81) rotate(-2.93) scale(0.920)">
        <g transform="translate(-4.19,-4.00) rotate(-9.37) scale(0.900)">
        <g transform="translate(-4.99,-3.83) rotate(-17.32) scale(0.880)">
        <circle cx="0" cy="0" r="24.5" fill="url(#lgrad3)" filter="url(#shadow)" opacity="0.41"/>
        <text x="0" y="5" text-anchor="middle" font-family="Arial, sans-serif" font-size="14" fill="#FFFFFF" opacity="0.41">783</text>
      </g>
      </g>
      </g>
      </g>
      </g>
      </g>
      </g>
  </g>
  <g transform="translate(997.8, 103.4)">
      <g transform="translate(2.43,-3.50) rotate(3.15) scale(1.000)">
        <g transform="translate(0.03,-3.92) rotate(4.64) scale(0.980)">
        <g transform="translate(-2.37,-3.98) rotate(4.18) scale(0.960)">
        <g transform="translate(-4.19,-3.69) rotate(1.65) scale(0.940)">
        <g transform="translate(-4.99,-3.08) rotate(-2.93) scale(0.920)">
        <g transform="translate(-4.56,-2.18) rotate(-9.37) scale(0.900)" mask="url(#maskGradient)">
        <g transform="translate(-3.02,-1.09) rotate(-17.32) scale(0.880)">
        <path d="M0.0,-62.6 L18.4,-25.3 L59.6,-19.4 L29.8,9.7 L36.8,50.7 L0.0,31.3 L-36.8,50.7 L-29.8,9.7 L-59.6,-19.4 L-18.4,-25.3Z" fill="url(#rgrad4)" filter="url(#blur4)" opacity="0.30"/>
      </g>
      </g>
      </g>
      </g>
      </g>
      </g>
      </g>
  </g>
  <g transform="translate(1227.2, 86.6)">
      <g transform="translate(-2.37,-3.52) rotate(3.15) scale(1.000)">
        <g transform="translate(-4.19,-2.81) rotate(4.64) scale(0.980)">
        <g transform="translate(-4.99,-1.84) rotate(4.18) scale(0.960)">
        <g transform="translate(-4.56,-0.71) rotate(1.65) scale(0.940)">
        <g transform="translate(-3.02,0.49) rotate(-2.93) scale(0.920)">
        <g transform="translate(-0.74,1.64) rotate(-9.37) scale(0.900)">
        <g transform="translate(1.72,2.65) rotate(-17.32) scale(0.880)">
        <rect x="-36.9" y="-36.9" width="73.8" height="73.8" rx="18.5" fill="url(#rgrad0)" filter="url(#shadow)" opacity="0.21"/>
        <circle cx="0" cy="0" r="24.6" fill="url(#rgrad1)" opacity="0.15"/>
      </g>
      </g>
      </g>
      </g>
      </g>
      </g>
      </g>
  </g>
  <g transform="translate(1449.9, 76.2)">
      <g transform="translate(-4.99,-0.31) rotate(3.15) scale(1.000)">
        <g transform="translate(-4.56,0.88) rotate(4.64) scale(0.980)">
        <g transform="translate(-3.02,2.00) rotate(4.18) scale(0.960)">
        <g transform="translate(-0.74,2.93) rotate(1.65) scale(0.940)" clip-path="url(#clipStar)">
        <g transform="translate(1.72,3.61) rotate(-2.93) scale(0.920)">
        <g transform="translate(3.76,3.96) rotate(-9.37) scale(0.900)">
        <g transform="translate(4.88,3.95) rotate(-17.32) scale(0.880)">
        <path d="M37.6,21.7 L0.0,43.4 L-37.6,21.7 L-37.6,-21.7 L-0.0,-43.4 L37.6,-21.7Z" fill="url(#lgrad1)" filter="url(#blur1)" opacity="0.14"/>
        <ellipse cx="0" cy="0" rx="18.1" ry="12.1" fill="#FFFFFF" opacity="0.07"/>
      </g>
      </g>
      </g>
      </g>
      </g>
      </g>
      </g>
  </g>
  <g transform="translate(1665.3, 76.9)">
      <g transform="translate(-3.02,3.19) rotate(3.15) scale(1.000)">
        <g transform="translate(-0.74,3.76) rotate(4.64) scale(0.980)">
        <g transform="translate(1.72,4.00) rotate(4.18) scale(0.960)">
        <g transform="translate(3.76,3.87) rotate(1.65) scale(0.940)">
        <g transform="translate(4.88,3.41) rotate(-2.93) scale(0.920)">
        <g transform="translate(4.80,2.63) rotate(-9.37) scale(0.900)" mask="url(#maskDynamic)">
        <g transform="translate(3.55,1.63) rotate(-17.32) scale(0.880)">
        <circle cx="0" cy="0" r="29.7" fill="url(#rgrad2)" filter="url(#shadow)" opacity="0.10"/>
        <text x="0" y="5" text-anchor="middle" font-family="Arial, sans-serif" font-size="14" fill="#FFFFFF" opacity="0.10">783</text>
      </g>
      </g>
      </g>
      </g>
      </g>
      </g>
      </g>
  </g>
  <g transform="translate(114.6, 368.5)">
      <g transform="translate(1.72,3.75) rotate(3.15) scale(1.000)">
        <g transform="translate(3.76,3.18) rotate(4.64) scale(0.980)">
        <g transform="translate(4.88,2.32) rotate(4.18) scale(0.960)">
        <g transform="translate(4.80,1.25) rotate(1.65) scale(0.940)">
        <g transform="translate(3.55,0.08) rotate(-2.93) scale(0.920)">
        <g transform="translate(1.43,-1.11) rotate(-9.37) scale(0.900)">
        <g transform="translate(-1.04,-2.20) rotate(-17.32) scale(0.880)">
        <path d="M0.0,-47.1 L13.8,-19.1 L44.8,-14.6 L22.4,7.3 L27.7,38.1 L0.0,23.6 L-27.7,38.1 L-22.4,7.3 L-44.8,-14.6 L-13.8,-19.1Z" fill="url(#rgrad3)" filter="url(#blur3)" opacity="0.10"/>
      </g>
      </g>
      </g>
      </g>
      </g>
      </g>
      </g>
  </g>
  <g transform="translate(320.2, 385.5)">
      <g transform="translate(4.88,0.87) rotate(3.15) scale(1.000)">
        <g transform="translate(4.80,-0.32) rotate(4.64) scale(0.980)">
        <g transform="translate(3.55,-1.49) rotate(4.18) scale(0.960)">
        <g transform="translate(1.43,-2.52) rotate(1.65) scale(0.940)" clip-path="url(#clipDynamic)">
        <g transform="translate(-1.04,-3.32) rotate(-2.93) scale(0.920)">
        <g transform="translate(-3.26,-3.83) rotate(-9.37) scale(0.900)">
        <g transform="translate(-4.68,-4.00) rotate(-17.32) scale(0.880)">
        <rect x="-23.3" y="-23.3" width="46.6" height="46.6" rx="11.6" fill="url(#lgrad4)" filter="url(#shadow)" opacity="0.14"/>
        <circle cx="0" cy="0" r="15.5" fill="url(#rgrad0)" opacity="0.10"/>
      </g>
      </g>
      </g>
      </g>
      </g>
      </g>
      </g>
  </g>
  <g transform="translate(525.8, 399.9)">
      <g transform="translate(3.55,-2.82) rotate(3.15) scale(1.000)">
        <g transform="translate(1.43,-3.53) rotate(4.64) scale(0.980)">
        <g transform="translate(-1.04,-3.93) rotate(4.18) scale(0.960)">
        <g transform="translate(-3.26,-3.98) rotate(1.65) scale(0.940)">
        <g transform="translate(-4.68,-3.67) rotate(-2.93) scale(0.920)">
        <g transform="translate(-4.95,-3.03) rotate(-9.37) scale(0.900)" mask="url(#maskStripes)">
        <g transform="translate(-4.01,-2.13) rotate(-17.32) scale(0.880)">
        <path d="M30.3,17.5 L0.0,35.0 L-30.3,17.5 L-30.3,-17.5 L-0.0,-35.0 L30.3,-17.5Z" fill="url(#rgrad0)" filter="url(#blur0)" opacity="0.21"/>
        <ellipse cx="0" cy="0" rx="14.6" ry="9.7" fill="#FFFFFF" opacity="0.10"/>
      </g>
      </g>
      </g>
      </g>
      </g>
      </g>
      </g>
  </g>
  <g transform="translate(734.9, 405.0)">
      <g transform="translate(-1.04,-3.91) rotate(3.15) scale(1.000)">
        <g transform="translate(-3.26,-3.49) rotate(4.64) scale(0.980)">
        <g transform="translate(-4.68,-2.76) rotate(4.18) scale(0.960)">
        <g transform="translate(-4.95,-1.78) rotate(1.65) scale(0.940)">
        <g transform="translate(-4.01,-0.64) rotate(-2.93) scale(0.920)">
        <g transform="translate(-2.09,0.56) rotate(-9.37) scale(0.900)">
        <g transform="translate(0.34,1.70) rotate(-17.32) scale(0.880)">
        <circle cx="0" cy="0" r="35.8" fill="url(#rgrad1)" filter="url(#shadow)" opacity="0.30"/>
        <text x="0" y="5" text-anchor="middle" font-family="Arial, sans-serif" font-size="14" fill="#FFFFFF" opacity="0.30">783</text>
      </g>
      </g>
      </g>
      </g>
      </g>
      </g>
      </g>
  </g>
  <g transform="translate(950.1, 398.3)">
      <g transform="translate(-4.68,-1.41) rotate(3.15) scale(1.000)">
        <g transform="translate(-4.95,-0.24) rotate(4.64) scale(0.980)">
        <g transform="translate(-4.01,0.95) rotate(4.18) scale(0.960)">
        <g transform="translate(-2.09,2.06) rotate(1.65) scale(0.940)" clip-path="url(#clipHex)">
        <g transform="translate(0.34,2.98) rotate(-2.93) scale(0.920)">
        <g transform="translate(2.69,3.63) rotate(-9.37) scale(0.900)">
        <g transform="translate(4.38,3.97) rotate(-17.32) scale(0.880)">
        <path d="M0.0,-74.2 L21.8,-30.0 L70.6,-22.9 L35.3,11.5 L43.6,60.1 L0.0,37.1 L-43.6,60.1 L-35.3,11.5 L-70.6,-22.9 L-21.8,-30.0Z" fill="url(#lgrad2)" filter="url(#blur2)" opacity="0.41"/>
      </g>
      </g>
      </g>
      </g>
      </g>
      </g>
      </g>
  </g>
  <g transform="translate(1172.6, 383.0)">
      <g transform="translate(-4.01,2.39) rotate(3.15) scale(1.000)">
        <g transform="translate(-2.09,3.23) rotate(4.64) scale(0.980)">
        <g transform="translate(0.34,3.78) rotate(4.18) scale(0.960)">
        <g transform="translate(2.69,4.00) rotate(1.65) scale(0.940)">
        <g transform="translate(4.38,3.86) rotate(-2.93) scale(0.920)">
        <g transform="translate(5.00,3.37) rotate(-9.37) scale(0.900)" mask="url(#maskCircleFade)">
        <g transform="translate(4.39,2.58) rotate(-17.32) scale(0.880)">
        <rect x="-31.8" y="-31.8" width="63.7" height="63.7" rx="15.9" fill="url(#rgrad3)" filter="url(#shadow)" opacity="0.53"/>
        <circle cx="0" cy="0" r="21.2" fill="url(#rgrad4)" opacity="0.37"/>
      </g>
      </g>
      </g>
      </g>
      </g>
      </g>
      </g>
  </g>
  <g transform="translate(1401.9, 366.3)">
      <g transform="translate(0.34,3.99) rotate(3.15) scale(1.000)">
        <g transform="translate(2.69,3.73) rotate(4.64) scale(0.980)">
        <g transform="translate(4.38,3.14) rotate(4.18) scale(0.960)">
        <g transform="translate(5.00,2.27) rotate(1.65) scale(0.940)">
        <g transform="translate(4.39,1.19) rotate(-2.93) scale(0.920)">
        <g transform="translate(2.71,0.01) rotate(-9.37) scale(0.900)">
        <g transform="translate(0.36,-1.17) rotate(-17.32) scale(0.880)">
        <path d="M25.9,14.9 L0.0,29.9 L-25.9,14.9 L-25.9,-14.9 L-0.0,-29.9 L25.9,-14.9Z" fill="url(#rgrad4)" filter="url(#blur4)" opacity="0.65"/>
        <ellipse cx="0" cy="0" rx="12.4" ry="8.3" fill="#FFFFFF" opacity="0.32"/>
      </g>
      </g>
      </g>
      </g>
      </g>
      </g>
      </g>
  </g>
  <g transform="translate(1635.6, 356.0)">
      <g transform="translate(4.38,1.92) rotate(3.15) scale(1.000)">
        <g transform="translate(5.00,0.80) rotate(4.64) scale(0.980)">
        <g transform="translate(4.39,-0.39) rotate(4.18) scale(0.960)">
        <g transform="translate(2.71,-1.55) rotate(1.65) scale(0.940)" clip-path="url(#clipCircle)">
        <g transform="translate(0.36,-2.57) rotate(-2.93) scale(0.920)">
        <g transform="translate(-2.07,-3.36) rotate(-9.37) scale(0.900)">
        <g transform="translate(-4.00,-3.85) rotate(-17.32) scale(0.880)">
        <circle cx="0" cy="0" r="22.6" fill="url(#lgrad0)" filter="url(#shadow)" opacity="0.75"/>
        <text x="0" y="5" text-anchor="middle" font-family="Arial, sans-serif" font-size="14" fill="#FFFFFF" opacity="0.75">783</text>
      </g>
      </g>
      </g>
      </g>
      </g>
      </g>
      </g>
  </g>
  <g transform="translate(110.3, 637.1)">
      <g transform="translate(4.39,-1.91) rotate(3.15) scale(1.000)">
        <g transform="translate(2.71,-2.86) rotate(4.64) scale(0.980)">
        <g transform="translate(0.36,-3.56) rotate(4.18) scale(0.960)">
        <g transform="translate(-2.07,-3.94) rotate(1.65) scale(0.940)">
        <g transform="translate(-4.00,-3.97) rotate(-2.93) scale(0.920)">
        <g transform="translate(-4.95,-3.64) rotate(-9.37) scale(0.900)" mask="url(#maskGradient)">
        <g transform="translate(-4.69,-2.99) rotate(-17.32) scale(0.880)">
        <path d="M0.0,-54.3 L16.0,-22.0 L51.6,-16.8 L25.8,8.4 L31.9,43.9 L0.0,27.1 L-31.9,43.9 L-25.8,8.4 L-51.6,-16.8 L-16.0,-22.0Z" fill="url(#rgrad1)" filter="url(#blur1)" opacity="0.83"/>
      </g>
      </g>
      </g>
      </g>
      </g>
      </g>
      </g>
  </g>
  <g transform="translate(342.6, 648.9)">
      <g transform="translate(0.36,-3.99) rotate(3.15) scale(1.000)">
        <g transform="translate(-2.07,-3.90) rotate(4.64) scale(0.980)">
        <g transform="translate(-4.00,-3.46) rotate(4.18) scale(0.960)">
        <g transform="translate(-4.95,-2.71) rotate(1.65) scale(0.940)">
        <g transform="translate(-4.69,-1.72) rotate(-2.93) scale(0.920)">
        <g transform="translate(-3.28,-0.57) rotate(-9.37) scale(0.900)">
        <g transform="translate(-1.06,0.62) rotate(-17.32) scale(0.880)">
        <rect x="-34.3" y="-34.3" width="68.6" height="68.6" rx="17.1" fill="url(#rgrad2)" filter="url(#shadow)" opacity="0.88"/>
        <circle cx="0" cy="0" r="22.9" fill="url(#rgrad3)" opacity="0.62"/>
      </g>
      </g>
      </g>
      </g>
      </g>
      </g>
      </g>
  </g>
  <g transform="translate(569.3, 665.9)">
      <g transform="translate(-4.00,-2.40) rotate(3.15) scale(1.000)">
        <g transform="translate(-4.95,-1.35) rotate(4.64) scale(0.980)">
        <g transform="translate(-4.69,-0.17) rotate(4.18) scale(0.960)">
        <g transform="translate(-3.28,1.01) rotate(1.65) scale(0.940)" clip-path="url(#clipRect)">
        <g transform="translate(-1.06,2.11) rotate(-2.93) scale(0.920)">
        <g transform="translate(1.41,3.02) rotate(-9.37) scale(0.900)">
        <g transform="translate(3.54,3.66) rotate(-17.32) scale(0.880)">
        <path d="M39.0,22.5 L0.0,45.0 L-39.0,22.5 L-39.0,-22.5 L-0.0,-45.0 L39.0,-22.5Z" fill="url(#lgrad3)" filter="url(#blur3)" opacity="0.90"/>
        <ellipse cx="0" cy="0" rx="18.7" ry="12.5" fill="#FFFFFF" opacity="0.45"/>
      </g>
      </g>
      </g>
      </g>
      </g>
      </g>
      </g>
  </g>
  <g transform="translate(788.8, 680.2)">
      <g transform="translate(-4.69,1.40) rotate(3.15) scale(1.000)">
        <g transform="translate(-3.28,2.44) rotate(4.64) scale(0.980)">
        <g transform="translate(-1.06,3.27) rotate(4.18) scale(0.960)">
        <g transform="translate(1.41,3.80) rotate(1.65) scale(0.940)">
        <g transform="translate(3.54,4.00) rotate(-2.93) scale(0.920)">
        <g transform="translate(4.80,3.84) rotate(-9.37) scale(0.900)" mask="url(#maskDynamic)">
        <g transform="translate(4.89,3.33) rotate(-17.32) scale(0.880)">
        <circle cx="0" cy="0" r="33.8" fill="url(#rgrad4)" filter="url(#shadow)" opacity="0.88"/>
        <text x="0" y="5" text-anchor="middle" font-family="Arial, sans-serif" font-size="14" fill="#FFFFFF" opacity="0.88">783</text>
      </g>
      </g>
      </g>
      </g>
      </g>
      </g>
      </g>
  </g>
  <g transform="translate(1001.3, 684.9)">
      <g transform="translate(-1.06,3.91) rotate(3.15) scale(1.000)">
        <g transform="translate(1.41,3.99) rotate(4.64) scale(0.980)">
        <g transform="translate(3.54,3.71) rotate(4.18) scale(0.960)">
        <g transform="translate(4.80,3.10) rotate(1.65) scale(0.940)">
        <g transform="translate(4.89,2.21) rotate(-2.93) scale(0.920)">
        <g transform="translate(3.78,1.13) rotate(-9.37) scale(0.900)">
        <g transform="translate(1.74,-0.06) rotate(-17.32) scale(0.880)">
        <path d="M0.0,-53.2 L15.6,-21.5 L50.6,-16.4 L25.3,8.2 L31.3,43.1 L0.0,26.6 L-31.3,43.1 L-25.3,8.2 L-50.6,-16.4 L-15.6,-21.5Z" fill="url(#rgrad0)" filter="url(#blur0)" opacity="0.83"/>
      </g>
      </g>
      </g>
      </g>
      </g>
      </g>
      </g>
  </g>
  <g transform="translate(1208.6, 678.0)">
      <g transform="translate(3.54,2.83) rotate(3.15) scale(1.000)">
        <g transform="translate(4.80,1.87) rotate(4.64) scale(0.980)">
        <g transform="translate(4.89,0.74) rotate(4.18) scale(0.960)">
        <g transform="translate(3.78,-0.46) rotate(1.65) scale(0.940)" clip-path="url(#clipStar)">
        <g transform="translate(1.74,-1.61) rotate(-2.93) scale(0.920)">
        <g transform="translate(-0.72,-2.62) rotate(-9.37) scale(0.900)">
        <g transform="translate(-3.00,-3.40) rotate(-17.32) scale(0.880)">
        <rect x="-22.5" y="-22.5" width="45.1" height="45.1" rx="11.3" fill="url(#lgrad1)" filter="url(#shadow)" opacity="0.75"/>
        <circle cx="0" cy="0" r="15.0" fill="url(#rgrad2)" opacity="0.52"/>
      </g>
      </g>
      </g>
      </g>
      </g>
      </g>
      </g>
  </g>
  <g transform="translate(1413.7, 662.5)">
      <g transform="translate(4.89,-0.85) rotate(3.15) scale(1.000)">
        <g transform="translate(3.78,-1.97) rotate(4.64) scale(0.980)">
        <g transform="translate(1.74,-2.91) rotate(4.18) scale(0.960)">
        <g transform="translate(-0.72,-3.59) rotate(1.65) scale(0.940)">
        <g transform="translate(-3.00,-3.95) rotate(-2.93) scale(0.920)">
        <g transform="translate(-4.55,-3.96) rotate(-9.37) scale(0.900)" mask="url(#maskStripes)">
        <g transform="translate(-4.99,-3.61) rotate(-17.32) scale(0.880)">
        <path d="M26.3,15.2 L0.0,30.4 L-26.3,15.2 L-26.3,-15.2 L-0.0,-30.4 L26.3,-15.2Z" fill="url(#rgrad2)" filter="url(#blur2)" opacity="0.64"/>
        <ellipse cx="0" cy="0" rx="12.7" ry="8.4" fill="#FFFFFF" opacity="0.32"/>
      </g>
      </g>
      </g>
      </g>
      </g>
      </g>
      </g>
  </g>
  <g transform="translate(1620.4, 645.9)">
      <g transform="translate(1.74,-3.75) rotate(3.15) scale(1.000)">
        <g transform="translate(-0.72,-3.99) rotate(4.64) scale(0.980)">
        <g transform="translate(-3.00,-3.88) rotate(4.18) scale(0.960)">
        <g transform="translate(-4.55,-3.42) rotate(1.65) scale(0.940)">
        <g transform="translate(-4.99,-2.66) rotate(-2.93) scale(0.920)">
        <g transform="translate(-4.20,-1.66) rotate(-9.37) scale(0.900)">
        <g transform="translate(-2.39,-0.51) rotate(-17.32) scale(0.880)">
        <circle cx="0" cy="0" r="32.4" fill="url(#rgrad3)" filter="url(#shadow)" opacity="0.53"/>
        <text x="0" y="5" text-anchor="middle" font-family="Arial, sans-serif" font-size="14" fill="#FFFFFF" opacity="0.53">783</text>
      </g>
      </g>
      </g>
      </g>
      </g>
      </g>
      </g>
  </g>
  <g transform="translate(71.9, 915.9)">
      <g transform="translate(-3.00,-3.20) rotate(3.15) scale(1.000)">
        <g transform="translate(-4.55,-2.35) rotate(4.64) scale(0.980)">
        <g transform="translate(-4.99,-1.28) rotate(4.18) scale(0.960)">
        <g transform="translate(-4.20,-0.11) rotate(1.65) scale(0.940)" clip-path="url(#clipDynamic)">
        <g transform="translate(-2.39,1.08) rotate(-2.93) scale(0.920)">
        <g transform="translate(0.01,2.17) rotate(-9.37) scale(0.900)">
        <g transform="translate(2.41,3.07) rotate(-17.32) scale(0.880)">
        <path d="M0.0,-74.6 L21.9,-30.2 L70.9,-23.0 L35.5,11.5 L43.8,60.3 L0.0,37.3 L-43.8,60.3 L-35.5,11.5 L-70.9,-23.0 L-21.9,-30.2Z" fill="url(#lgrad4)" filter="url(#blur4)" opacity="0.41"/>
      </g>
      </g>
      </g>
      </g>
      </g>
      </g>
      </g>
  </g>
  <g transform="translate(202.1, 316.4)" mask="url(#maskGradient)">
    <ellipse cx="0" cy="0" rx="200" ry="150" fill="url(#rgrad0)" filter="url(#blur3)" opacity="0.3"/>
  </g>
  <g transform="translate(764.3, 363.0)" mask="url(#maskCircleFade)">
    <ellipse cx="0" cy="0" rx="200" ry="150" fill="url(#rgrad1)" filter="url(#blur3)" opacity="0.3"/>
  </g>
  <g transform="translate(1359.3, 380.0)" mask="url(#maskStripes)">
    <ellipse cx="0" cy="0" rx="200" ry="150" fill="url(#rgrad2)" filter="url(#blur3)" opacity="0.3"/>
  </g>
</svg>