<?xml version="1.0" encoding="UTF-8"?>
<svg xmlns="http://www.w3.org/2000/svg" viewBox="0 0 1920 1080" width="1920" height="1080">
  <defs>
    <filter id="blur0" x="-50%" y="-50%" width="200%" height="200%">
      <feGaussianBlur in="SourceGraphic" stdDeviation="1"/>
    </filter>
    <filter id="blur1" x="-50%" y="-50%" width="200%" height="200%">
      <feGaussianBlur in="SourceGraphic" stdDeviation="3"/>
    </filter>
    <filter id="blur2" x="-50%" y="-50%" width="200%" height="200%">
      <feGaussianBlur in="SourceGraphic" stdDeviation="5"/>
    </filter>
    <filter id="blur3" x="-50%" y="-50%" width="200%" height="200%">
      <feGaussianBlur in="SourceGraphic" stdDeviation="7"/>
    </filter>
    <filter id="blur4" x="-50%" y="-50%" width="200%" height="200%">
      <feGaussianBlur in="SourceGraphic" stdDeviation="9"/>
    </filter>
    <filter id="shadow" x="-50%" y="-50%" width="200%" height="200%">
      <feGaussianBlur in="SourceAlpha" stdDeviation="3" result="blur"/>
      <feOffset in="blur" dx="4" dy="4" result="offsetBlur"/>
      <feMerge>
        <feMergeNode in="offsetBlur"/>
        <feMergeNode in="SourceGraphic"/>
      </feMerge>
    </filter>
    <linearGradient id="lgrad0" x1="0%" y1="0%" x2="79.0%" y2="90.7%">
      <stop offset="0%" stop-color="#FF6B6B"/>
      <stop offset="33%" stop-color="#4ECDC4"/>
      <stop offset="66%" stop-color="#45B7D1"/>
      <stop offset="100%" stop-color="#96E6A1"/>
    </linearGradient>
    <linearGradient id="lgrad1" x1="0%" y1="0%" x2="54.8%" y2="99.8%">
      <stop offset="0%" stop-color="#FFE66D"/>
      <stop offset="33%" stop-color="#FF6B6B"/>
      <stop offset="66%" stop-color="#C44D58"/>
      <stop offset="100%" stop-color="#8B0000"/>
    </linearGradient>
    <linearGradient id="lgrad2" x1="0%" y1="0%" x2="29.3%" y2="95.5%">
      <stop offset="0%" stop-color="#4169E1"/>
      <stop offset="33%" stop-color="#7B68EE"/>
      <stop offset="66%" stop-color="#9370DB"/>
      <stop offset="100%" stop-color="#FFD700"/>
    </linearGradient>
    <linearGradient id="lgrad3" x1="0%" y1="0%" x2="9.3%" y2="79.0%">
      <stop offset="0%" stop-color="#32CD32"/>
      <stop offset="33%" stop-color="#228B22"/>
      <stop offset="66%" stop-color="#006400"/>
      <stop offset="100%" stop-color="#ADFF2F"/>
    </linearGradient>
    <linearGradient id="lgrad4" x1="0%" y1="0%" x2="0.2%" y2="54.8%">
      <stop offset="0%" stop-color="#FF1493"/>
      <stop offset="33%" stop-color="#FF69B4"/>
      <stop offset="66%" stop-color="#FFB6C1"/>
      <stop offset="100%" stop-color="#FFC0CB"/>
    </linearGradient>
    <radialGradient id="rgrad0" cx="51.7%" cy="57.8%" r="60%">
      <stop offset="0%" stop-color="#FF6B6B" stop-opacity="1"/>
      <stop offset="50%" stop-color="#4ECDC4" stop-opacity="0.8"/>
      <stop offset="100%" stop-color="#45B7D1" stop-opacity="0.6"/>
    </radialGradient>
    <radialGradient id="rgrad1" cx="61.7%" cy="65.8%" r="60%">
      <stop offset="0%" stop-color="#FFE66D" stop-opacity="1"/>
      <stop offset="50%" stop-color="#FF6B6B" stop-opacity="0.8"/>
      <stop offset="100%" stop-color="#C44D58" stop-opacity="0.6"/>
    </radialGradient>
    <radialGradient id="rgrad2" cx="31.7%" cy="33.8%" r="60%">
      <stop offset="0%" stop-color="#4169E1" stop-opacity="1"/>
      <stop offset="50%" stop-color="#7B68EE" stop-opacity="0.8"/>
      <stop offset="100%" stop-color="#9370DB" stop-opacity="0.6"/>
    </radialGradient>
    <radialGradient id="rgrad3" cx="41.7%" cy="41.8%" r="60%">
      <stop offset="0%" stop-color="#32CD32" stop-opacity="1"/>
      <stop offset="50%" stop-color="#228B22" stop-opacity="0.8"/>
      <stop offset="100%" stop-color="#006400" stop-opacity="0.6"/>
    </radialGradient>
    <radialGradient id="rgrad4" cx="51.7%" cy="49.8%" r="60%">
      <stop offset="0%" stop-color="#FF1493" stop-opacity="1"/>
      <stop offset="50%" stop-color="#FF69B4" stop-opacity="0.8"/>
      <stop offset="100%" stop-color="#FFB6C1" stop-opacity="0.6"/>
    </radialGradient>
    <clipPath id="clipCircle">
      <circle cx="0" cy="0" r="50"/>
    </clipPath>
    <clipPath id="clipStar">
      <path d="M0.0,-50.0 L14.7,-20.2 L47.6,-15.5 L23.8,7.7 L29.4,40.5 L0.0,25.0 L-29.4,40.5 L-23.8,7.7 L-47.6,-15.5 L-14.7,-20.2Z"/>
    </clipPath>
    <clipPath id="clipHex">
      <path d="M39.0,22.5 L0.0,45.0 L-39.0,22.5 L-39.0,-22.5 L-0.0,-45.0 L39.0,-22.5Z"/>
    </clipPath>
    <clipPath id="clipRect">
      <rect x="-40" y="-30" width="80" height="60" rx="10"/>
    </clipPath>
    <clipPath id="clipDynamic">
      <circle cx="0" cy="0" r="20.0"/>
    </clipPath>
    <mask id="maskGradient" maskContentUnits="objectBoundingBox">
      <rect x="0" y="0" width="1" height="1" fill="url(#maskGrad)"/>
    </mask>
    <linearGradient id="maskGrad" x1="0%" y1="0%" x2="100%" y2="100%">
      <stop offset="0%" stop-color="white"/>
      <stop offset="100%" stop-color="black"/>
    </linearGradient>
    <mask id="maskCircleFade">
      <circle cx="0" cy="0" r="60" fill="white"/>
      <circle cx="0" cy="0" r="30" fill="black"/>
    </mask>
    <mask id="maskStripes">
      <rect x="-50" y="-50" width="100" height="100" fill="white"/>
      <rect x="-50" y="-40" width="100" height="10" fill="black"/>
      <rect x="-50" y="-20" width="100" height="10" fill="black"/>
      <rect x="-50" y="0" width="100" height="10" fill="black"/>
      <rect x="-50" y="20" width="100" height="10" fill="black"/>
      <rect x="-50" y="40" width="100" height="10" fill="black"/>
    </mask>
    <mask id="maskDynamic">
      <rect x="-60" y="-60" width="120" height="120" fill="white" fill-opacity="0.81"/>
      <circle cx="0" cy="0" r="25" fill="white"/>
    </mask>
  </defs>
  <rect width="1920" height="1080" fill="url(#lgrad0)"/>
  <g transform="translate(70.1, 98.2)">
      <g transform="translate(-4.99,-0.28) rotate(3.66) scale(1.000)">
        <g transform="translate(-4.55,0.91) rotate(5.82) scale(0.980)">
        <g transform="translate(-2.99,2.02) rotate(6.13) scale(0.960)">
        <g transform="translate(-0.71,2.95) rotate(4.38) scale(0.940)" clip-path="url(#clipCircle)">
        <g transform="translate(1.75,3.62) rotate(0.52) scale(0.920)">
        <g transform="translate(3.78,3.96) rotate(-5.35) scale(0.900)">
        <g transform="translate(4.89,3.95) rotate(-12.96) scale(0.880)">
        <path d="M0.0,-71.0 L20.9,-28.7 L67.5,-21.9 L33.8,11.0 L41.7,57.4 L0.0,35.5 L-41.7,57.4 L-33.8,11.0 L-67.5,-21.9 L-20.9,-28.7Z" fill="url(#lgrad0)" filter="url(#blur0)" opacity="0.79"/>
      </g>
      </g>
      </g>
      </g>
      </g>
      </g>
      </g>
  </g>
  <g transform="translate(292.7, 114.7)">
      <g transform="translate(-2.99,3.20) rotate(3.66) scale(1.000)">
        <g transform="translate(-0.71,3.77) rotate(5.82) scale(0.980)">
        <g transform="translate(1.75,4.00) rotate(6.13) scale(0.960)">
        <g transform="translate(3.78,3.87) rotate(4.38) scale(0.940)">
        <g transform="translate(4.89,3.39) rotate(0.52) scale(0.920)">
        <g transform="translate(4.79,2.61) rotate(-5.35) scale(0.900)" mask="url(#maskCircleFade)">
        <g transform="translate(3.53,1.60) rotate(-12.96) scale(0.880)">
        <rect x="-28.7" y="-28.7" width="57.3" height="57.3" rx="14.3" fill="url(#rgrad1)" filter="url(#shadow)" opacity="0.70"/>
        <circle cx="0" cy="0" r="19.1" fill="url(#rgrad2)" opacity="0.49"/>
      </g>
      </g>
      </g>
      </g>
      </g>
      </g>
      </g>
  </g>
  <g transform="translate(522.0, 124.3)">
      <g transform="translate(1.75,3.75) rotate(3.66) scale(1.000)">
        <g transform="translate(3.78,3.16) rotate(5.82) scale(0.980)">
        <g transform="translate(4.89,2.30) rotate(6.13) scale(0.960)">
        <g transform="translate(4.79,1.23) rotate(4.38) scale(0.940)">
        <g transform="translate(3.53,0.05) rotate(0.52) scale(0.920)">
        <g transform="translate(1.40,-1.13) rotate(-5.35) scale(0.900)">
        <g transform="translate(-1.08,-2.22) rotate(-12.96) scale(0.880)">
        <path d="M24.0,13.8 L0.0,27.7 L-24.0,13.8 L-24.0,-13.8 L-0.0,-27.7 L24.0,-13.8Z" fill="url(#rgrad2)" filter="url(#blur2)" opacity="0.59"/>
        <ellipse cx="0" cy="0" rx="11.5" ry="7.7" fill="#FFFFFF" opacity="0.29"/>
      </g>
      </g>
      </g>
      </g>
      </g>
      </g>
      </g>
  </g>
  <g transform="translate(755.8, 122.4)">
      <g transform="translate(4.89,0.84) rotate(3.66) scale(1.000)">
        <g transform="translate(4.79,-0.35) rotate(5.82) scale(0.980)">
        <g transform="translate(3.53,-1.51) rotate(6.13) scale(0.960)">
        <g transform="translate(1.40,-2.54) rotate(4.38) scale(0.940)" clip-path="url(#clipRect)">
        <g transform="translate(-1.08,-3.34) rotate(0.52) scale(0.920)">
        <g transform="translate(-3.29,-3.84) rotate(-5.35) scale(0.900)">
        <g transform="translate(-4.69,-4.00) rotate(-12.96) scale(0.880)">
        <circle cx="0" cy="0" r="23.8" fill="url(#lgrad3)" filter="url(#shadow)" opacity="0.47"/>
        <text x="0" y="5" text-anchor="middle" font-family="Arial, sans-serif" font-size="14" fill="#FFFFFF" opacity="0.47">739</text>
      </g>
      </g>
      </g>
      </g>
      </g>
      </g>
      </g>
  </g>
  <g transform="translate(990.5, 110.0)">
      <g transform="translate(3.53,-2.83) rotate(3.66) scale(1.000)">
        <g transform="translate(1.40,-3.54) rotate(5.82) scale(0.980)">
        <g transform="translate(-1.08,-3.93) rotate(6.13) scale(0.960)">
        <g transform="translate(-3.29,-3.97) rotate(4.38) scale(0.940)">
        <g transform="translate(-4.69,-3.66) rotate(0.52) scale(0.920)">
        <g transform="translate(-4.95,-3.02) rotate(-5.35) scale(0.900)" mask="url(#maskGradient)">
        <g transform="translate(-3.99,-2.10) rotate(-12.96) scale(0.880)">
        <path d="M0.0,-60.6 L17.8,-24.5 L57.6,-18.7 L28.8,9.4 L35.6,49.0 L0.0,30.3 L-35.6,49.0 L-28.8,9.4 L-57.6,-18.7 L-17.8,-24.5Z" fill="url(#rgrad4)" filter="url(#blur4)" opacity="0.35"/>
      </g>
      </g>
      </g>
      </g>
      </g>
      </g>
      </g>
  </g>
  <g transform="translate(1222.7, 92.9)">
      <g transform="translate(-1.08,-3.91) rotate(3.66) scale(1.000)">
        <g transform="translate(-3.29,-3.48) rotate(5.82) scale(0.980)">
        <g transform="translate(-4.69,-2.74) rotate(6.13) scale(0.960)">
        <g transform="translate(-4.95,-1.75) rotate(4.38) scale(0.940)">
        <g transform="translate(-3.99,-0.61) rotate(0.52) scale(0.920)">
        <g transform="translate(-2.06,0.58) rotate(-5.35) scale(0.900)">
        <g transform="translate(0.38,1.73) rotate(-12.96) scale(0.880)">
        <rect x="-36.5" y="-36.5" width="72.9" height="72.9" rx="18.2" fill="url(#rgrad0)" filter="url(#shadow)" opacity="0.25"/>
        <circle cx="0" cy="0" r="24.3" fill="url(#rgrad1)" opacity="0.17"/>
      </g>
      </g>
      </g>
      </g>
      </g>
      </g>
      </g>
  </g>
  <g transform="translate(1449.3, 79.1)">
      <g transform="translate(-4.69,-1.39) rotate(3.66) scale(1.000)">
        <g transform="translate(-4.95,-0.22) rotate(5.82) scale(0.980)">
        <g transform="translate(-3.99,0.97) rotate(6.13) scale(0.960)">
        <g transform="translate(-2.06,2.08) rotate(4.38) scale(0.940)" clip-path="url(#clipStar)">
        <g transform="translate(0.38,2.99) rotate(0.52) scale(0.920)">
        <g transform="translate(2.72,3.64) rotate(-5.35) scale(0.900)">
        <g transform="translate(4.40,3.97) rotate(-12.96) scale(0.880)">
        <path d="M38.1,22.0 L0.0,44.0 L-38.1,22.0 L-38.1,-22.0 L-0.0,-44.0 L38.1,-22.0Z" fill="url(#lgrad1)" filter="url(#blur1)" opacity="0.17"/>
        <ellipse cx="0" cy="0" rx="18.3" ry="12.2" fill="#FFFFFF" opacity="0.08"/>
      </g>
      </g>
      </g>
      </g>
      </g>
      </g>
      </g>
  </g>
  <g transform="translate(1668.8, 75.2)">
      <g transform="translate(-3.99,2.41) rotate(3.66) scale(1.000)">
        <g transform="translate(-2.06,3.24) rotate(5.82) scale(0.980)">
        <g transform="translate(0.38,3.79) rotate(6.13) scale(0.960)">
        <g transform="translate(2.72,4.00) rotate(4.38) scale(0.940)">
        <g transform="translate(4.40,3.85) rotate(0.52) scale(0.920)">
        <g transform="translate(5.00,3.36) rotate(-5.35) scale(0.900)" mask="url(#maskDynamic)">
        <g transform="translate(4.38,2.56) rotate(-12.96) scale(0.880)">
        <circle cx="0" cy="0" r="30.8" fill="url(#rgrad2)" filter="url(#shadow)" opacity="0.12"/>
        <text x="0" y="5" text-anchor="middle" font-family="Arial, sans-serif" font-size="14" fill="#FFFFFF" opacity="0.12">739</text>
      </g>
      </g>
      </g>
      </g>
      </g>
      </g>
      </g>
  </g>
  <g transform="translate(121.2, 362.9)">
      <g transform="translate(0.38,3.99) rotate(3.66) scale(1.000)">
        <g transform="translate(2.72,3.72) rotate(5.82) scale(0.980)">
        <g transform="translate(4.40,3.12) rotate(6.13) scale(0.960)">
        <g transform="translate(5.00,2.24) rotate(4.38) scale(0.940)">
        <g transform="translate(4.38,1.17) rotate(0.52) scale(0.920)">
        <g transform="translate(2.68,-0.02) rotate(-5.35) scale(0.900)">
        <g transform="translate(0.33,-1.20) rotate(-12.96) scale(0.880)">
        <path d="M0.0,-48.3 L14.2,-19.5 L45.9,-14.9 L23.0,7.5 L28.4,39.1 L0.0,24.1 L-28.4,39.1 L-23.0,7.5 L-45.9,-14.9 L-14.2,-19.5Z" fill="url(#rgrad3)" filter="url(#blur3)" opacity="0.10"/>
      </g>
      </g>
      </g>
      </g>
      </g>
      </g>
      </g>
  </g>
  <g transform="translate(328.4, 378.7)">
      <g transform="translate(4.40,1.90) rotate(3.66) scale(1.000)">
        <g transform="translate(5.00,0.78) rotate(5.82) scale(0.980)">
        <g transform="translate(4.38,-0.42) rotate(6.13) scale(0.960)">
        <g transform="translate(2.68,-1.57) rotate(4.38) scale(0.940)" clip-path="url(#clipDynamic)">
        <g transform="translate(0.33,-2.59) rotate(0.52) scale(0.920)">
        <g transform="translate(-2.10,-3.38) rotate(-5.35) scale(0.900)">
        <g transform="translate(-4.02,-3.86) rotate(-12.96) scale(0.880)">
        <rect x="-22.9" y="-22.9" width="45.8" height="45.8" rx="11.4" fill="url(#lgrad4)" filter="url(#shadow)" opacity="0.12"/>
        <circle cx="0" cy="0" r="15.3" fill="url(#rgrad0)" opacity="0.08"/>
      </g>
      </g>
      </g>
      </g>
      </g>
      </g>
      </g>
  </g>
  <g transform="translate(533.5, 395.1)">
      <g transform="translate(4.38,-1.93) rotate(3.66) scale(1.000)">
        <g transform="translate(2.68,-2.88) rotate(5.82) scale(0.980)">
        <g transform="translate(0.33,-3.57) rotate(6.13) scale(0.960)">
        <g transform="translate(-2.10,-3.94) rotate(4.38) scale(0.940)">
        <g transform="translate(-4.02,-3.96) rotate(0.52) scale(0.920)">
        <g transform="translate(-4.95,-3.63) rotate(-5.35) scale(0.900)" mask="url(#maskStripes)">
        <g transform="translate(-4.67,-2.97) rotate(-12.96) scale(0.880)">
        <path d="M29.3,16.9 L0.0,33.8 L-29.3,16.9 L-29.3,-16.9 L-0.0,-33.8 L29.3,-16.9Z" fill="url(#rgrad0)" filter="url(#blur0)" opacity="0.17"/>
        <ellipse cx="0" cy="0" rx="14.1" ry="9.4" fill="#FFFFFF" opacity="0.09"/>
      </g>
      </g>
      </g>
      </g>
      </g>
      </g>
      </g>
  </g>
  <g transform="translate(740.3, 404.4)">
      <g transform="translate(0.33,-3.99) rotate(3.66) scale(1.000)">
        <g transform="translate(-2.10,-3.89) rotate(5.82) scale(0.980)">
        <g transform="translate(-4.02,-3.44) rotate(6.13) scale(0.960)">
        <g transform="translate(-4.95,-2.69) rotate(4.38) scale(0.940)">
        <g transform="translate(-4.67,-1.69) rotate(0.52) scale(0.920)">
        <g transform="translate(-3.25,-0.55) rotate(-5.35) scale(0.900)">
        <g transform="translate(-1.03,0.65) rotate(-12.96) scale(0.880)">
        <circle cx="0" cy="0" r="35.1" fill="url(#rgrad1)" filter="url(#shadow)" opacity="0.25"/>
        <text x="0" y="5" text-anchor="middle" font-family="Arial, sans-serif" font-size="14" fill="#FFFFFF" opacity="0.25">739</text>
      </g>
      </g>
      </g>
      </g>
      </g>
      </g>
      </g>
  </g>
  <g transform="translate(951.9, 402.2)">
      <g transform="translate(-4.02,-2.38) rotate(3.66) scale(1.000)">
        <g transform="translate(-4.95,-1.32) rotate(5.82) scale(0.980)">
        <g transform="translate(-4.67,-0.15) rotate(6.13) scale(0.960)">
        <g transform="translate(-3.25,1.04) rotate(4.38) scale(0.940)" clip-path="url(#clipHex)">
        <g transform="translate(-1.03,2.13) rotate(0.52) scale(0.920)">
        <g transform="translate(1.44,3.04) rotate(-5.35) scale(0.900)">
        <g transform="translate(3.56,3.67) rotate(-12.96) scale(0.880)">
        <path d="M0.0,-74.7 L22.0,-30.2 L71.1,-23.1 L35.5,11.5 L43.9,60.5 L0.0,37.4 L-43.9,60.5 L-35.5,11.5 L-71.1,-23.1 L-22.0,-30.2Z" fill="url(#lgrad2)" filter="url(#blur2)" opacity="0.36"/>
      </g>
      </g>
      </g>
      </g>
      </g>
      </g>
      </g>
  </g>
  <g transform="translate(1170.3, 389.6)">
      <g transform="translate(-4.67,1.42) rotate(3.66) scale(1.000)">
        <g transform="translate(-3.25,2.46) rotate(5.82) scale(0.980)">
        <g transform="translate(-1.03,3.28) rotate(6.13) scale(0.960)">
        <g transform="translate(1.44,3.81) rotate(4.38) scale(0.940)">
        <g transform="translate(3.56,4.00) rotate(0.52) scale(0.920)">
        <g transform="translate(4.81,3.83) rotate(-5.35) scale(0.900)" mask="url(#maskCircleFade)">
        <g transform="translate(4.88,3.32) rotate(-12.96) scale(0.880)">
        <rect x="-32.8" y="-32.8" width="65.7" height="65.7" rx="16.4" fill="url(#rgrad3)" filter="url(#shadow)" opacity="0.48"/>
        <circle cx="0" cy="0" r="21.9" fill="url(#rgrad4)" opacity="0.33"/>
      </g>
      </g>
      </g>
      </g>
      </g>
      </g>
      </g>
  </g>
  <g transform="translate(1396.0, 372.5)">
      <g transform="translate(-1.03,3.91) rotate(3.66) scale(1.000)">
        <g transform="translate(1.44,3.98) rotate(5.82) scale(0.980)">
        <g transform="translate(3.56,3.70) rotate(6.13) scale(0.960)">
        <g transform="translate(4.81,3.08) rotate(4.38) scale(0.940)">
        <g transform="translate(4.88,2.19) rotate(0.52) scale(0.920)">
        <g transform="translate(3.75,1.10) rotate(-5.35) scale(0.900)">
        <g transform="translate(1.71,-0.09) rotate(-12.96) scale(0.880)">
        <path d="M26.7,15.4 L0.0,30.8 L-26.7,15.4 L-26.7,-15.4 L-0.0,-30.8 L26.7,-15.4Z" fill="url(#rgrad4)" filter="url(#blur4)" opacity="0.59"/>
        <ellipse cx="0" cy="0" rx="12.8" ry="8.6" fill="#FFFFFF" opacity="0.30"/>
      </g>
      </g>
      </g>
      </g>
      </g>
      </g>
      </g>
  </g>
  <g transform="translate(1627.6, 358.9)">
      <g transform="translate(3.56,2.81) rotate(3.66) scale(1.000)">
        <g transform="translate(4.81,1.84) rotate(5.82) scale(0.980)">
        <g transform="translate(4.88,0.71) rotate(6.13) scale(0.960)">
        <g transform="translate(3.75,-0.48) rotate(4.38) scale(0.940)" clip-path="url(#clipCircle)">
        <g transform="translate(1.71,-1.64) rotate(0.52) scale(0.920)">
        <g transform="translate(-0.75,-2.64) rotate(-5.35) scale(0.900)">
        <g transform="translate(-3.03,-3.41) rotate(-12.96) scale(0.880)">
        <circle cx="0" cy="0" r="22.5" fill="url(#lgrad0)" filter="url(#shadow)" opacity="0.70"/>
        <text x="0" y="5" text-anchor="middle" font-family="Arial, sans-serif" font-size="14" fill="#FFFFFF" opacity="0.70">739</text>
      </g>
      </g>
      </g>
      </g>
      </g>
      </g>
      </g>
  </g>
  <g transform="translate(102.3, 635.2)">
      <g transform="translate(4.88,-0.88) rotate(3.66) scale(1.000)">
        <g transform="translate(3.75,-1.99) rotate(5.82) scale(0.980)">
        <g transform="translate(1.71,-2.93) rotate(6.13) scale(0.960)">
        <g transform="translate(-0.75,-3.60) rotate(4.38) scale(0.940)">
        <g transform="translate(-3.03,-3.96) rotate(0.52) scale(0.920)">
        <g transform="translate(-4.56,-3.95) rotate(-5.35) scale(0.900)" mask="url(#maskGradient)">
        <g transform="translate(-4.98,-3.60) rotate(-12.96) scale(0.880)">
        <path d="M0.0,-52.4 L15.4,-21.2 L49.9,-16.2 L24.9,8.1 L30.8,42.4 L0.0,26.2 L-30.8,42.4 L-24.9,8.1 L-49.9,-16.2 L-15.4,-21.2Z" fill="url(#rgrad1)" filter="url(#blur1)" opacity="0.80"/>
      </g>
      </g>
      </g>
      </g>
      </g>
      </g>
      </g>
  </g>
  <g transform="translate(336.3, 643.2)">
      <g transform="translate(1.71,-3.76) rotate(3.66) scale(1.000)">
        <g transform="translate(-0.75,-4.00) rotate(5.82) scale(0.980)">
        <g transform="translate(-3.03,-3.88) rotate(6.13) scale(0.960)">
        <g transform="translate(-4.56,-3.41) rotate(4.38) scale(0.940)">
        <g transform="translate(-4.98,-2.64) rotate(0.52) scale(0.920)">
        <g transform="translate(-4.18,-1.63) rotate(-5.35) scale(0.900)">
        <g transform="translate(-2.36,-0.48) rotate(-12.96) scale(0.880)">
        <rect x="-33.4" y="-33.4" width="66.8" height="66.8" rx="16.7" fill="url(#rgrad2)" filter="url(#shadow)" opacity="0.86"/>
        <circle cx="0" cy="0" r="22.3" fill="url(#rgrad3)" opacity="0.60"/>
      </g>
      </g>
      </g>
      </g>
      </g>
      </g>
      </g>
  </g>
  <g transform="translate(566.4, 659.1)">
      <g transform="translate(-3.03,-3.18) rotate(3.66) scale(1.000)">
        <g transform="translate(-4.56,-2.33) rotate(5.82) scale(0.980)">
        <g transform="translate(-4.98,-1.26) rotate(6.13) scale(0.960)">
        <g transform="translate(-4.18,-0.08) rotate(4.38) scale(0.940)" clip-path="url(#clipRect)">
        <g transform="translate(-2.36,1.10) rotate(0.52) scale(0.920)">
        <g transform="translate(0.04,2.19) rotate(-5.35) scale(0.900)">
        <g transform="translate(2.44,3.08) rotate(-12.96) scale(0.880)">
        <path d="M38.9,22.5 L0.0,45.0 L-38.9,22.5 L-38.9,-22.5 L-0.0,-45.0 L38.9,-22.5Z" fill="url(#lgrad3)" filter="url(#blur3)" opacity="0.90"/>
        <ellipse cx="0" cy="0" rx="18.7" ry="12.5" fill="#FFFFFF" opacity="0.45"/>
      </g>
      </g>
      </g>
      </g>
      </g>
      </g>
      </g>
  </g>
  <g transform="translate(790.0, 675.4)">
      <g transform="translate(-4.98,0.32) rotate(3.66) scale(1.000)">
        <g transform="translate(-4.18,1.48) rotate(5.82) scale(0.980)">
        <g transform="translate(-2.36,2.51) rotate(6.13) scale(0.960)">
        <g transform="translate(0.04,3.32) rotate(4.38) scale(0.940)">
        <g transform="translate(2.44,3.83) rotate(0.52) scale(0.920)">
        <g transform="translate(4.23,4.00) rotate(-5.35) scale(0.900)" mask="url(#maskDynamic)">
        <g transform="translate(4.99,3.81) rotate(-12.96) scale(0.880)">
        <circle cx="0" cy="0" r="34.7" fill="url(#rgrad4)" filter="url(#shadow)" opacity="0.89"/>
        <text x="0" y="5" text-anchor="middle" font-family="Arial, sans-serif" font-size="14" fill="#FFFFFF" opacity="0.89">739</text>
      </g>
      </g>
      </g>
      </g>
      </g>
      </g>
      </g>
  </g>
  <g transform="translate(1006.3, 684.5)">
      <g transform="translate(-2.36,3.53) rotate(3.66) scale(1.000)">
        <g transform="translate(0.04,3.93) rotate(5.82) scale(0.980)">
        <g transform="translate(2.44,3.98) rotate(6.13) scale(0.960)">
        <g transform="translate(4.23,3.67) rotate(4.38) scale(0.940)">
        <g transform="translate(4.99,3.04) rotate(0.52) scale(0.920)">
        <g transform="translate(4.53,2.13) rotate(-5.35) scale(0.900)">
        <g transform="translate(2.96,1.04) rotate(-12.96) scale(0.880)">
        <path d="M0.0,-55.1 L16.2,-22.3 L52.4,-17.0 L26.2,8.5 L32.4,44.6 L0.0,27.6 L-32.4,44.6 L-26.2,8.5 L-52.4,-17.0 L-16.2,-22.3Z" fill="url(#rgrad0)" filter="url(#blur0)" opacity="0.86"/>
      </g>
      </g>
      </g>
      </g>
      </g>
      </g>
      </g>
  </g>
  <g transform="translate(1216.1, 682.0)">
      <g transform="translate(2.44,3.49) rotate(3.66) scale(1.000)">
        <g transform="translate(4.23,2.76) rotate(5.82) scale(0.980)">
        <g transform="translate(4.99,1.78) rotate(6.13) scale(0.960)">
        <g transform="translate(4.53,0.64) rotate(4.38) scale(0.940)" clip-path="url(#clipStar)">
        <g transform="translate(2.96,-0.55) rotate(0.52) scale(0.920)">
        <g transform="translate(0.66,-1.70) rotate(-5.35) scale(0.900)">
        <g transform="translate(-1.80,-2.69) rotate(-12.96) scale(0.880)">
        <rect x="-22.7" y="-22.7" width="45.4" height="45.4" rx="11.4" fill="url(#lgrad1)" filter="url(#shadow)" opacity="0.79"/>
        <circle cx="0" cy="0" r="15.1" fill="url(#rgrad2)" opacity="0.55"/>
      </g>
      </g>
      </g>
      </g>
      </g>
      </g>
      </g>
  </g>
  <g transform="translate(1422.0, 669.2)">
      <g transform="translate(4.99,0.25) rotate(3.66) scale(1.000)">
        <g transform="translate(4.53,-0.94) rotate(5.82) scale(0.980)">
        <g transform="translate(2.96,-2.05) rotate(6.13) scale(0.960)">
        <g transform="translate(0.66,-2.97) rotate(4.38) scale(0.940)">
        <g transform="translate(-1.80,-3.63) rotate(0.52) scale(0.920)">
        <g transform="translate(-3.81,-3.96) rotate(-5.35) scale(0.900)" mask="url(#maskStripes)">
        <g transform="translate(-4.90,-3.94) rotate(-12.96) scale(0.880)">
        <path d="M25.5,14.7 L0.0,29.5 L-25.5,14.7 L-25.5,-14.7 L-0.0,-29.5 L25.5,-14.7Z" fill="url(#rgrad2)" filter="url(#blur2)" opacity="0.69"/>
        <ellipse cx="0" cy="0" rx="12.3" ry="8.2" fill="#FFFFFF" opacity="0.35"/>
      </g>
      </g>
      </g>
      </g>
      </g>
      </g>
      </g>
  </g>
  <g transform="translate(1627.4, 652.1)">
      <g transform="translate(2.96,-3.23) rotate(3.66) scale(1.000)">
        <g transform="translate(0.66,-3.78) rotate(5.82) scale(0.980)">
        <g transform="translate(-1.80,-4.00) rotate(6.13) scale(0.960)">
        <g transform="translate(-3.81,-3.86) rotate(4.38) scale(0.940)">
        <g transform="translate(-4.90,-3.37) rotate(0.52) scale(0.920)">
        <g transform="translate(-4.78,-2.59) rotate(-5.35) scale(0.900)">
        <g transform="translate(-3.50,-1.57) rotate(-12.96) scale(0.880)">
        <circle cx="0" cy="0" r="31.4" fill="url(#rgrad3)" filter="url(#shadow)" opacity="0.58"/>
        <text x="0" y="5" text-anchor="middle" font-family="Arial, sans-serif" font-size="14" fill="#FFFFFF" opacity="0.58">739</text>
      </g>
      </g>
      </g>
      </g>
      </g>
      </g>
      </g>
  </g>
  <g transform="translate(75.9, 918.7)">
      <g transform="translate(-1.80,-3.73) rotate(3.66) scale(1.000)">
        <g transform="translate(-3.81,-3.14) rotate(5.82) scale(0.980)">
        <g transform="translate(-4.90,-2.27) rotate(6.13) scale(0.960)">
        <g transform="translate(-4.78,-1.20) rotate(4.38) scale(0.940)" clip-path="url(#clipDynamic)">
        <g transform="translate(-3.50,-0.01) rotate(0.52) scale(0.920)">
        <g transform="translate(-1.35,1.17) rotate(-5.35) scale(0.900)">
        <g transform="translate(1.12,2.25) rotate(-12.96) scale(0.880)">
        <path d="M0.0,-73.9 L21.7,-29.9 L70.3,-22.8 L35.1,11.4 L43.4,59.8 L0.0,37.0 L-43.4,59.8 L-35.1,11.4 L-70.3,-22.8 L-21.7,-29.9Z" fill="url(#lgrad4)" filter="url(#blur4)" opacity="0.46"/>
      </g>
      </g>
      </g>
      </g>
      </g>
      </g>
      </g>
  </g>
  <g transform="translate(200.3, 294.3)" mask="url(#maskGradient)">
    <ellipse cx="0" cy="0" rx="200" ry="150" fill="url(#rgrad0)" filter="url(#blur3)" opacity="0.3"/>
  </g>
  <g transform="translate(740.2, 347.1)" mask="url(#maskCircleFade)">
    <ellipse cx="0" cy="0" rx="200" ry="150" fill="url(#rgrad1)" filter="url(#blur3)" opacity="0.3"/>
  </g>
  <g transform="translate(1335.1, 377.7)" mask="url(#maskStripes)">
    <ellipse cx="0" cy="0" rx="200" ry="150" fill="url(#rgrad2)" filter="url(#blur3)" opacity="0.3"/>
  </g>
</svg>