<?xml version="1.0" encoding="UTF-8"?>
<svg xmlns="http://www.w3.org/2000/svg" viewBox="0 0 1920 1080" width="1920" height="1080">
  <defs>
    <filter id="blur0" x="-50%" y="-50%" width="200%" height="200%">
      <feGaussianBlur in="SourceGraphic" stdDeviation="1"/>
    </filter>
    <filter id="blur1" x="-50%" y="-50%" width="200%" height="200%">
      <feGaussianBlur in="SourceGraphic" stdDeviation="3"/>
    </filter>
    <filter id="blur2" x="-50%" y="-50%" width="200%" height="200%">
      <feGaussianBlur in="SourceGraphic" stdDeviation="5"/>
    </filter>
    <filter id="blur3" x="-50%" y="-50%" width="200%" height="200%">
      <feGaussianBlur in="SourceGraphic" stdDeviation="7"/>
    </filter>
    <filter id="blur4" x="-50%" y="-50%" width="200%" height="200%">
      <feGaussianBlur in="SourceGraphic" stdDeviation="9"/>
    </filter>
    <filter id="shadow" x="-50%" y="-50%" width="200%" height="200%">
      <feGaussianBlur in="SourceAlpha" stdDeviation="3" result="blur"/>
      <feOffset in="blur" dx="4" dy="4" result="offsetBlur"/>
      <feMerge>
        <feMergeNode in="offsetBlur"/>
        <feMergeNode in="SourceGraphic"/>
      </feMerge>
    </filter>
    <linearGradient id="lgrad0" x1="0%" y1="0%" x2="31.7%" y2="96.5%">
      <stop offset="0%" stop-color="#FF6B6B"/>
      <stop offset="33%" stop-color="#4ECDC4"/>
      <stop offset="66%" stop-color="#45B7D1"/>
      <stop offset="100%" stop-color="#96E6A1"/>
    </linearGradient>
    <linearGradient id="lgrad1" x1="0%" y1="0%" x2="10.9%" y2="81.1%">
      <stop offset="0%" stop-color="#FFE66D"/>
      <stop offset="33%" stop-color="#FF6B6B"/>
      <stop offset="66%" stop-color="#C44D58"/>
      <stop offset="100%" stop-color="#8B0000"/>
    </linearGradient>
    <linearGradient id="lgrad2" x1="0%" y1="0%" x2="0.5%" y2="57.4%">
      <stop offset="0%" stop-color="#4169E1"/>
      <stop offset="33%" stop-color="#7B68EE"/>
      <stop offset="66%" stop-color="#9370DB"/>
      <stop offset="100%" stop-color="#FFD700"/>
    </linearGradient>
    <linearGradient id="lgrad3" x1="0%" y1="0%" x2="3.5%" y2="31.7%">
      <stop offset="0%" stop-color="#32CD32"/>
      <stop offset="33%" stop-color="#228B22"/>
      <stop offset="66%" stop-color="#006400"/>
      <stop offset="100%" stop-color="#ADFF2F"/>
    </linearGradient>
    <linearGradient id="lgrad4" x1="0%" y1="0%" x2="18.9%" y2="10.9%">
      <stop offset="0%" stop-color="#FF1493"/>
      <stop offset="33%" stop-color="#FF69B4"/>
      <stop offset="66%" stop-color="#FFB6C1"/>
      <stop offset="100%" stop-color="#FFC0CB"/>
    </linearGradient>
    <radialGradient id="rgrad0" cx="69.9%" cy="56.6%" r="60%">
      <stop offset="0%" stop-color="#FF6B6B" stop-opacity="1"/>
      <stop offset="50%" stop-color="#4ECDC4" stop-opacity="0.8"/>
      <stop offset="100%" stop-color="#45B7D1" stop-opacity="0.6"/>
    </radialGradient>
    <radialGradient id="rgrad1" cx="39.9%" cy="64.6%" r="60%">
      <stop offset="0%" stop-color="#FFE66D" stop-opacity="1"/>
      <stop offset="50%" stop-color="#FF6B6B" stop-opacity="0.8"/>
      <stop offset="100%" stop-color="#C44D58" stop-opacity="0.6"/>
    </radialGradient>
    <radialGradient id="rgrad2" cx="49.9%" cy="32.6%" r="60%">
      <stop offset="0%" stop-color="#4169E1" stop-opacity="1"/>
      <stop offset="50%" stop-color="#7B68EE" stop-opacity="0.8"/>
      <stop offset="100%" stop-color="#9370DB" stop-opacity="0.6"/>
    </radialGradient>
    <radialGradient id="rgrad3" cx="59.9%" cy="40.6%" r="60%">
      <stop offset="0%" stop-color="#32CD32" stop-opacity="1"/>
      <stop offset="50%" stop-color="#228B22" stop-opacity="0.8"/>
      <stop offset="100%" stop-color="#006400" stop-opacity="0.6"/>
    </radialGradient>
    <radialGradient id="rgrad4" cx="69.9%" cy="48.6%" r="60%">
      <stop offset="0%" stop-color="#FF1493" stop-opacity="1"/>
      <stop offset="50%" stop-color="#FF69B4" stop-opacity="0.8"/>
      <stop offset="100%" stop-color="#FFB6C1" stop-opacity="0.6"/>
    </radialGradient>
    <clipPath id="clipCircle">
      <circle cx="0" cy="0" r="50"/>
    </clipPath>
    <clipPath id="clipStar">
      <path d="M0.0,-50.0 L14.7,-20.2 L47.6,-15.5 L23.8,7.7 L29.4,40.5 L0.0,25.0 L-29.4,40.5 L-23.8,7.7 L-47.6,-15.5 L-14.7,-20.2Z"/>
    </clipPath>
    <clipPath id="clipHex">
      <path d="M39.0,22.5 L0.0,45.0 L-39.0,22.5 L-39.0,-22.5 L-0.0,-45.0 L39.0,-22.5Z"/>
    </clipPath>
    <clipPath id="clipRect">
      <rect x="-40" y="-30" width="80" height="60" rx="10"/>
    </clipPath>
    <clipPath id="clipDynamic">
      <circle cx="0" cy="0" r="46.1"/>
    </clipPath>
    <mask id="maskGradient" maskContentUnits="objectBoundingBox">
      <rect x="0" y="0" width="1" height="1" fill="url(#maskGrad)"/>
    </mask>
    <linearGradient id="maskGrad" x1="0%" y1="0%" x2="100%" y2="100%">
      <stop offset="0%" stop-color="white"/>
      <stop offset="100%" stop-color="black"/>
    </linearGradient>
    <mask id="maskCircleFade">
      <circle cx="0" cy="0" r="60" fill="white"/>
      <circle cx="0" cy="0" r="30" fill="black"/>
    </mask>
    <mask id="maskStripes">
      <rect x="-50" y="-50" width="100" height="100" fill="white"/>
      <rect x="-50" y="-40" width="100" height="10" fill="black"/>
      <rect x="-50" y="-20" width="100" height="10" fill="black"/>
      <rect x="-50" y="0" width="100" height="10" fill="black"/>
      <rect x="-50" y="20" width="100" height="10" fill="black"/>
      <rect x="-50" y="40" width="100" height="10" fill="black"/>
    </mask>
    <mask id="maskDynamic">
      <rect x="-60" y="-60" width="120" height="120" fill="white" fill-opacity="0.58"/>
      <circle cx="0" cy="0" r="25" fill="white"/>
    </mask>
  </defs>
  <rect width="1920" height="1080" fill="url(#lgrad0)"/>
  <g transform="translate(122.1, 116.9)">
      <g transform="translate(3.69,2.70) rotate(2.02) scale(1.000)">
        <g transform="translate(4.86,1.71) rotate(5.77) scale(0.980)">
        <g transform="translate(4.83,0.56) rotate(10.92) scale(0.960)">
        <g transform="translate(3.63,-0.63) rotate(16.99) scale(0.940)" clip-path="url(#clipCircle)">
        <g transform="translate(1.53,-1.77) rotate(23.44) scale(0.920)">
        <g transform="translate(-0.94,-2.75) rotate(29.64) scale(0.900)">
        <g transform="translate(-3.18,-3.49) rotate(34.97) scale(0.880)">
        <path d="M0.0,-66.0 L19.4,-26.7 L62.8,-20.4 L31.4,10.2 L38.8,53.4 L0.0,33.0 L-38.8,53.4 L-31.4,10.2 L-62.8,-20.4 L-19.4,-26.7Z" fill="url(#lgrad0)" filter="url(#blur0)" opacity="0.66"/>
      </g>
      </g>
      </g>
      </g>
      </g>
      </g>
      </g>
  </g>
  <g transform="translate(349.1, 101.0)">
      <g transform="translate(4.83,-1.03) rotate(2.02) scale(1.000)">
        <g transform="translate(3.63,-2.12) rotate(5.77) scale(0.980)">
        <g transform="translate(1.53,-3.03) rotate(10.92) scale(0.960)">
        <g transform="translate(-0.94,-3.67) rotate(16.99) scale(0.940)">
        <g transform="translate(-3.18,-3.98) rotate(23.44) scale(0.920)">
        <g transform="translate(-4.64,-3.93) rotate(29.64) scale(0.900)" mask="url(#maskCircleFade)">
        <g transform="translate(-4.97,-3.53) rotate(34.97) scale(0.880)">
        <rect x="-37.4" y="-37.4" width="74.8" height="74.8" rx="18.7" fill="url(#rgrad1)" filter="url(#shadow)" opacity="0.76"/>
        <circle cx="0" cy="0" r="24.9" fill="url(#rgrad2)" opacity="0.53"/>
      </g>
      </g>
      </g>
      </g>
      </g>
      </g>
      </g>
  </g>
  <g transform="translate(569.0, 84.7)">
      <g transform="translate(1.53,-3.81) rotate(2.02) scale(1.000)">
        <g transform="translate(-0.94,-4.00) rotate(5.77) scale(0.980)">
        <g transform="translate(-3.18,-3.83) rotate(10.92) scale(0.960)">
        <g transform="translate(-4.64,-3.33) rotate(16.99) scale(0.940)">
        <g transform="translate(-4.97,-2.52) rotate(23.44) scale(0.920)">
        <g transform="translate(-4.08,-1.49) rotate(29.64) scale(0.900)">
        <g transform="translate(-2.19,-0.33) rotate(34.97) scale(0.880)">
        <path d="M36.4,21.0 L0.0,42.0 L-36.4,21.0 L-36.4,-21.0 L-0.0,-42.0 L36.4,-21.0Z" fill="url(#rgrad2)" filter="url(#blur2)" opacity="0.84"/>
        <ellipse cx="0" cy="0" rx="17.5" ry="11.7" fill="#FFFFFF" opacity="0.42"/>
      </g>
      </g>
      </g>
      </g>
      </g>
      </g>
      </g>
  </g>
  <g transform="translate(781.8, 75.6)">
      <g transform="translate(-3.18,-3.09) rotate(2.02) scale(1.000)">
        <g transform="translate(-4.64,-2.20) rotate(5.77) scale(0.980)">
        <g transform="translate(-4.97,-1.11) rotate(10.92) scale(0.960)">
        <g transform="translate(-4.08,0.07) rotate(16.99) scale(0.940)" clip-path="url(#clipRect)">
        <g transform="translate(-2.19,1.25) rotate(23.44) scale(0.920)">
        <g transform="translate(0.24,2.32) rotate(29.64) scale(0.900)">
        <g transform="translate(2.60,3.18) rotate(34.97) scale(0.880)">
        <circle cx="0" cy="0" r="28.0" fill="url(#lgrad3)" filter="url(#shadow)" opacity="0.89"/>
        <text x="0" y="5" text-anchor="middle" font-family="Arial, sans-serif" font-size="14" fill="#FFFFFF" opacity="0.89">133</text>
      </g>
      </g>
      </g>
      </g>
      </g>
      </g>
      </g>
  </g>
  <g transform="translate(989.2, 77.9)">
      <g transform="translate(-4.97,0.47) rotate(2.02) scale(1.000)">
        <g transform="translate(-4.08,1.62) rotate(5.77) scale(0.980)">
        <g transform="translate(-2.19,2.63) rotate(10.92) scale(0.960)">
        <g transform="translate(0.24,3.40) rotate(16.99) scale(0.940)">
        <g transform="translate(2.60,3.87) rotate(23.44) scale(0.920)">
        <g transform="translate(4.33,4.00) rotate(29.64) scale(0.900)" mask="url(#maskGradient)">
        <g transform="translate(5.00,3.76) rotate(34.97) scale(0.880)">
        <path d="M0.0,-45.7 L13.4,-18.5 L43.4,-14.1 L21.7,7.1 L26.8,36.9 L0.0,22.8 L-26.8,36.9 L-21.7,7.1 L-43.4,-14.1 L-13.4,-18.5Z" fill="url(#rgrad4)" filter="url(#blur4)" opacity="0.90"/>
      </g>
      </g>
      </g>
      </g>
      </g>
      </g>
      </g>
  </g>
  <g transform="translate(1194.4, 90.7)">
      <g transform="translate(-2.19,3.60) rotate(2.02) scale(1.000)">
        <g transform="translate(0.24,3.95) rotate(5.77) scale(0.980)">
        <g transform="translate(2.60,3.96) rotate(10.92) scale(0.960)">
        <g transform="translate(4.33,3.61) rotate(16.99) scale(0.940)">
        <g transform="translate(5.00,2.93) rotate(23.44) scale(0.920)">
        <g transform="translate(4.44,2.00) rotate(29.64) scale(0.900)">
        <g transform="translate(2.80,0.89) rotate(34.97) scale(0.880)">
        <rect x="-24.3" y="-24.3" width="48.6" height="48.6" rx="12.1" fill="url(#rgrad0)" filter="url(#shadow)" opacity="0.88"/>
        <circle cx="0" cy="0" r="16.2" fill="url(#rgrad1)" opacity="0.61"/>
      </g>
      </g>
      </g>
      </g>
      </g>
      </g>
      </g>
  </g>
  <g transform="translate(1400.9, 107.8)">
      <g transform="translate(2.60,3.42) rotate(2.02) scale(1.000)">
        <g transform="translate(4.33,2.65) rotate(5.77) scale(0.980)">
        <g transform="translate(5.00,1.64) rotate(10.92) scale(0.960)">
        <g transform="translate(4.44,0.49) rotate(16.99) scale(0.940)" clip-path="url(#clipStar)">
        <g transform="translate(2.80,-0.70) rotate(23.44) scale(0.920)">
        <g transform="translate(0.47,-1.83) rotate(29.64) scale(0.900)">
        <g transform="translate(-1.97,-2.80) rotate(34.97) scale(0.880)">
        <path d="M32.2,18.6 L0.0,37.2 L-32.2,18.6 L-32.2,-18.6 L-0.0,-37.2 L32.2,-18.6Z" fill="url(#lgrad1)" filter="url(#blur1)" opacity="0.82"/>
        <ellipse cx="0" cy="0" rx="15.5" ry="10.3" fill="#FFFFFF" opacity="0.41"/>
      </g>
      </g>
      </g>
      </g>
      </g>
      </g>
      </g>
  </g>
  <g transform="translate(1612.2, 121.3)">
      <g transform="translate(5.00,0.10) rotate(2.02) scale(1.000)">
        <g transform="translate(4.44,-1.09) rotate(5.77) scale(0.980)">
        <g transform="translate(2.80,-2.18) rotate(10.92) scale(0.960)">
        <g transform="translate(0.47,-3.07) rotate(16.99) scale(0.940)">
        <g transform="translate(-1.97,-3.69) rotate(23.44) scale(0.920)">
        <g transform="translate(-3.93,-3.98) rotate(29.64) scale(0.900)" mask="url(#maskDynamic)">
        <g transform="translate(-4.93,-3.92) rotate(34.97) scale(0.880)">
        <circle cx="0" cy="0" r="36.8" fill="url(#rgrad2)" filter="url(#shadow)" opacity="0.73"/>
        <text x="0" y="5" text-anchor="middle" font-family="Arial, sans-serif" font-size="14" fill="#FFFFFF" opacity="0.73">133</text>
      </g>
      </g>
      </g>
      </g>
      </g>
      </g>
      </g>
  </g>
  <g transform="translate(70.2, 404.7)">
      <g transform="translate(2.80,-3.31) rotate(2.02) scale(1.000)">
        <g transform="translate(0.47,-3.83) rotate(5.77) scale(0.980)">
        <g transform="translate(-1.97,-4.00) rotate(10.92) scale(0.960)">
        <g transform="translate(-3.93,-3.81) rotate(16.99) scale(0.940)">
        <g transform="translate(-4.93,-3.29) rotate(23.44) scale(0.920)">
        <g transform="translate(-4.72,-2.47) rotate(29.64) scale(0.900)">
        <g transform="translate(-3.36,-1.43) rotate(34.97) scale(0.880)">
        <path d="M0.0,-72.7 L21.4,-29.4 L69.1,-22.5 L34.6,11.2 L42.7,58.8 L0.0,36.3 L-42.7,58.8 L-34.6,11.2 L-69.1,-22.5 L-21.4,-29.4Z" fill="url(#rgrad3)" filter="url(#blur3)" opacity="0.63"/>
      </g>
      </g>
      </g>
      </g>
      </g>
      </g>
      </g>
  </g>
  <g transform="translate(295.5, 396.6)">
      <g transform="translate(-1.97,-3.68) rotate(2.02) scale(1.000)">
        <g transform="translate(-3.93,-3.05) rotate(5.77) scale(0.980)">
        <g transform="translate(-4.93,-2.14) rotate(10.92) scale(0.960)">
        <g transform="translate(-4.72,-1.05) rotate(16.99) scale(0.940)" clip-path="url(#clipDynamic)">
        <g transform="translate(-3.36,0.14) rotate(23.44) scale(0.920)">
        <g transform="translate(-1.17,1.31) rotate(29.64) scale(0.900)">
        <g transform="translate(1.30,2.37) rotate(34.97) scale(0.880)">
        <rect x="-30.1" y="-30.1" width="60.1" height="60.1" rx="15.0" fill="url(#lgrad4)" filter="url(#shadow)" opacity="0.51"/>
        <circle cx="0" cy="0" r="20.0" fill="url(#rgrad0)" opacity="0.36"/>
      </g>
      </g>
      </g>
      </g>
      </g>
      </g>
      </g>
  </g>
  <g transform="translate(526.9, 380.6)">
      <g transform="translate(-4.93,-0.66) rotate(2.02) scale(1.000)">
        <g transform="translate(-4.72,0.54) rotate(5.77) scale(0.980)">
        <g transform="translate(-3.36,1.68) rotate(10.92) scale(0.960)">
        <g transform="translate(-1.17,2.68) rotate(16.99) scale(0.940)">
        <g transform="translate(1.30,3.44) rotate(23.44) scale(0.920)">
        <g transform="translate(3.46,3.89) rotate(29.64) scale(0.900)" mask="url(#maskStripes)">
        <g transform="translate(4.77,3.99) rotate(34.97) scale(0.880)">
        <path d="M24.7,14.2 L0.0,28.5 L-24.7,14.2 L-24.7,-14.2 L-0.0,-28.5 L24.7,-14.2Z" fill="url(#rgrad0)" filter="url(#blur0)" opacity="0.39"/>
        <ellipse cx="0" cy="0" rx="11.9" ry="7.9" fill="#FFFFFF" opacity="0.20"/>
      </g>
      </g>
      </g>
      </g>
      </g>
      </g>
      </g>
  </g>
  <g transform="translate(761.4, 364.4)">
      <g transform="translate(-3.36,2.96) rotate(2.02) scale(1.000)">
        <g transform="translate(-1.17,3.63) rotate(5.77) scale(0.980)">
        <g transform="translate(1.30,3.96) rotate(10.92) scale(0.960)">
        <g transform="translate(3.46,3.95) rotate(16.99) scale(0.940)">
        <g transform="translate(4.77,3.58) rotate(23.44) scale(0.920)">
        <g transform="translate(4.91,2.89) rotate(29.64) scale(0.900)">
        <g transform="translate(3.85,1.94) rotate(34.97) scale(0.880)">
        <circle cx="0" cy="0" r="23.2" fill="url(#rgrad1)" filter="url(#shadow)" opacity="0.28"/>
        <text x="0" y="5" text-anchor="middle" font-family="Arial, sans-serif" font-size="14" fill="#FFFFFF" opacity="0.28">133</text>
      </g>
      </g>
      </g>
      </g>
      </g>
      </g>
      </g>
  </g>
  <g transform="translate(995.6, 355.5)">
      <g transform="translate(1.30,3.86) rotate(2.02) scale(1.000)">
        <g transform="translate(3.46,3.38) rotate(5.77) scale(0.980)">
        <g transform="translate(4.77,2.60) rotate(10.92) scale(0.960)">
        <g transform="translate(4.91,1.58) rotate(16.99) scale(0.940)" clip-path="url(#clipHex)">
        <g transform="translate(3.85,0.43) rotate(23.44) scale(0.920)">
        <g transform="translate(1.84,-0.77) rotate(29.64) scale(0.900)">
        <g transform="translate(-0.61,-1.89) rotate(34.97) scale(0.880)">
        <path d="M0.0,-57.7 L17.0,-23.4 L54.9,-17.8 L27.5,8.9 L33.9,46.7 L0.0,28.9 L-33.9,46.7 L-27.5,8.9 L-54.9,-17.8 L-17.0,-23.4Z" fill="url(#lgrad2)" filter="url(#blur2)" opacity="0.19"/>
      </g>
      </g>
      </g>
      </g>
      </g>
      </g>
      </g>
  </g>
  <g transform="translate(1226.0, 358.1)">
      <g transform="translate(4.77,1.21) rotate(2.02) scale(1.000)">
        <g transform="translate(4.91,0.03) rotate(5.77) scale(0.980)">
        <g transform="translate(3.85,-1.16) rotate(10.92) scale(0.960)">
        <g transform="translate(1.84,-2.24) rotate(16.99) scale(0.940)">
        <g transform="translate(-0.61,-3.12) rotate(23.44) scale(0.920)">
        <g transform="translate(-2.91,-3.72) rotate(29.64) scale(0.900)" mask="url(#maskCircleFade)">
        <g transform="translate(-4.51,-3.99) rotate(34.97) scale(0.880)">
        <rect x="-35.6" y="-35.6" width="71.3" height="71.3" rx="17.8" fill="url(#rgrad3)" filter="url(#shadow)" opacity="0.13"/>
        <circle cx="0" cy="0" r="23.8" fill="url(#rgrad4)" opacity="0.09"/>
      </g>
      </g>
      </g>
      </g>
      </g>
      </g>
      </g>
  </g>
  <g transform="translate(1450.0, 371.1)">
      <g transform="translate(3.85,-2.56) rotate(2.02) scale(1.000)">
        <g transform="translate(1.84,-3.35) rotate(5.77) scale(0.980)">
        <g transform="translate(-0.61,-3.85) rotate(10.92) scale(0.960)">
        <g transform="translate(-2.91,-4.00) rotate(16.99) scale(0.940)">
        <g transform="translate(-4.51,-3.79) rotate(23.44) scale(0.920)">
        <g transform="translate(-4.99,-3.25) rotate(29.64) scale(0.900)">
        <g transform="translate(-4.26,-2.42) rotate(34.97) scale(0.880)">
        <path d="M38.7,22.3 L0.0,44.7 L-38.7,22.3 L-38.7,-22.3 L-0.0,-44.7 L38.7,-22.3Z" fill="url(#rgrad4)" filter="url(#blur4)" opacity="0.10"/>
        <ellipse cx="0" cy="0" rx="18.6" ry="12.4" fill="#FFFFFF" opacity="0.05"/>
      </g>
      </g>
      </g>
      </g>
      </g>
      </g>
      </g>
  </g>
  <g transform="translate(1666.7, 388.2)">
      <g transform="translate(-0.61,-3.97) rotate(2.02) scale(1.000)">
        <g transform="translate(-2.91,-3.65) rotate(5.77) scale(0.980)">
        <g transform="translate(-4.51,-3.00) rotate(10.92) scale(0.960)">
        <g transform="translate(-4.99,-2.09) rotate(16.99) scale(0.940)" clip-path="url(#clipCircle)">
        <g transform="translate(-4.26,-0.98) rotate(23.44) scale(0.920)">
        <g transform="translate(-2.48,0.21) rotate(29.64) scale(0.900)">
        <g transform="translate(-0.10,1.38) rotate(34.97) scale(0.880)">
        <circle cx="0" cy="0" r="32.2" fill="url(#lgrad0)" filter="url(#shadow)" opacity="0.11"/>
        <text x="0" y="5" text-anchor="middle" font-family="Arial, sans-serif" font-size="14" fill="#FFFFFF" opacity="0.11">133</text>
      </g>
      </g>
      </g>
      </g>
      </g>
      </g>
      </g>
  </g>
  <g transform="translate(116.8, 681.5)">
      <g transform="translate(-4.51,-1.73) rotate(2.02) scale(1.000)">
        <g transform="translate(-4.99,-0.59) rotate(5.77) scale(0.980)">
        <g transform="translate(-4.26,0.60) rotate(10.92) scale(0.960)">
        <g transform="translate(-2.48,1.75) rotate(16.99) scale(0.940)">
        <g transform="translate(-0.10,2.73) rotate(23.44) scale(0.920)">
        <g transform="translate(2.31,3.47) rotate(29.64) scale(0.900)" mask="url(#maskGradient)">
        <g transform="translate(4.15,3.90) rotate(34.97) scale(0.880)">
        <path d="M0.0,-50.3 L14.8,-20.3 L47.8,-15.5 L23.9,7.8 L29.5,40.7 L0.0,25.1 L-29.5,40.7 L-23.9,7.8 L-47.8,-15.5 L-14.8,-20.3Z" fill="url(#rgrad1)" filter="url(#blur1)" opacity="0.15"/>
      </g>
      </g>
      </g>
      </g>
      </g>
      </g>
      </g>
  </g>
  <g transform="translate(322.8, 684.7)">
      <g transform="translate(-4.26,2.10) rotate(2.02) scale(1.000)">
        <g transform="translate(-2.48,3.01) rotate(5.77) scale(0.980)">
        <g transform="translate(-0.10,3.65) rotate(10.92) scale(0.960)">
        <g transform="translate(2.31,3.97) rotate(16.99) scale(0.940)">
        <g transform="translate(4.15,3.93) rotate(23.44) scale(0.920)">
        <g transform="translate(4.98,3.55) rotate(29.64) scale(0.900)">
        <g transform="translate(4.59,2.84) rotate(34.97) scale(0.880)">
        <rect x="-22.6" y="-22.6" width="45.1" height="45.1" rx="11.3" fill="url(#rgrad2)" filter="url(#shadow)" opacity="0.22"/>
        <circle cx="0" cy="0" r="15.0" fill="url(#rgrad3)" opacity="0.16"/>
      </g>
      </g>
      </g>
      </g>
      </g>
      </g>
      </g>
  </g>
  <g transform="translate(528.2, 676.2)">
      <g transform="translate(-0.10,4.00) rotate(2.02) scale(1.000)">
        <g transform="translate(2.31,3.84) rotate(5.77) scale(0.980)">
        <g transform="translate(4.15,3.34) rotate(10.92) scale(0.960)">
        <g transform="translate(4.98,2.55) rotate(16.99) scale(0.940)" clip-path="url(#clipRect)">
        <g transform="translate(4.59,1.52) rotate(23.44) scale(0.920)">
        <g transform="translate(3.07,0.36) rotate(29.64) scale(0.900)">
        <g transform="translate(0.80,-0.83) rotate(34.97) scale(0.880)">
        <path d="M27.9,16.1 L0.0,32.2 L-27.9,16.1 L-27.9,-16.1 L-0.0,-32.2 L27.9,-16.1Z" fill="url(#lgrad3)" filter="url(#blur3)" opacity="0.32"/>
        <ellipse cx="0" cy="0" rx="13.4" ry="8.9" fill="#FFFFFF" opacity="0.16"/>
      </g>
      </g>
      </g>
      </g>
      </g>
      </g>
      </g>
  </g>
  <g transform="translate(736.4, 660.2)">
      <g transform="translate(4.15,2.23) rotate(2.02) scale(1.000)">
        <g transform="translate(4.98,1.14) rotate(5.77) scale(0.980)">
        <g transform="translate(4.59,-0.04) rotate(10.92) scale(0.960)">
        <g transform="translate(3.07,-1.22) rotate(16.99) scale(0.940)">
        <g transform="translate(0.80,-2.29) rotate(23.44) scale(0.920)">
        <g transform="translate(-1.66,-3.16) rotate(29.64) scale(0.900)" mask="url(#maskDynamic)">
        <g transform="translate(-3.72,-3.74) rotate(34.97) scale(0.880)">
        <circle cx="0" cy="0" r="34.0" fill="url(#rgrad4)" filter="url(#shadow)" opacity="0.43"/>
        <text x="0" y="5" text-anchor="middle" font-family="Arial, sans-serif" font-size="14" fill="#FFFFFF" opacity="0.43">133</text>
      </g>
      </g>
      </g>
      </g>
      </g>
      </g>
      </g>
  </g>
  <g transform="translate(950.4, 644.0)">
      <g transform="translate(4.59,-1.59) rotate(2.02) scale(1.000)">
        <g transform="translate(3.07,-2.61) rotate(5.77) scale(0.980)">
        <g transform="translate(0.80,-3.39) rotate(10.92) scale(0.960)">
        <g transform="translate(-1.66,-3.86) rotate(16.99) scale(0.940)">
        <g transform="translate(-3.72,-4.00) rotate(23.44) scale(0.920)">
        <g transform="translate(-4.87,-3.77) rotate(29.64) scale(0.900)">
        <g transform="translate(-4.82,-3.21) rotate(34.97) scale(0.880)">
        <path d="M0.0,-75.0 L22.0,-30.3 L71.3,-23.2 L35.7,11.6 L44.1,60.7 L0.0,37.5 L-44.1,60.7 L-35.7,11.6 L-71.3,-23.2 L-22.0,-30.3Z" fill="url(#rgrad0)" filter="url(#blur0)" opacity="0.55"/>
      </g>
      </g>
      </g>
      </g>
      </g>
      </g>
      </g>
  </g>
  <g transform="translate(1171.7, 635.4)">
      <g transform="translate(0.80,-3.95) rotate(2.02) scale(1.000)">
        <g transform="translate(-1.66,-3.96) rotate(5.77) scale(0.980)">
        <g transform="translate(-3.72,-3.62) rotate(10.92) scale(0.960)">
        <g transform="translate(-4.87,-2.96) rotate(16.99) scale(0.940)" clip-path="url(#clipStar)">
        <g transform="translate(-4.82,-2.03) rotate(23.44) scale(0.920)">
        <g transform="translate(-3.60,-0.92) rotate(29.64) scale(0.900)">
        <g transform="translate(-1.49,0.27) rotate(34.97) scale(0.880)">
        <rect x="-34.1" y="-34.1" width="68.2" height="68.2" rx="17.0" fill="url(#lgrad1)" filter="url(#shadow)" opacity="0.67"/>
        <circle cx="0" cy="0" r="22.7" fill="url(#rgrad2)" opacity="0.47"/>
      </g>
      </g>
      </g>
      </g>
      </g>
      </g>
      </g>
  </g>
  <g transform="translate(1399.9, 638.3)">
      <g transform="translate(-3.72,-2.67) rotate(2.02) scale(1.000)">
        <g transform="translate(-4.87,-1.67) rotate(5.77) scale(0.980)">
        <g transform="translate(-4.82,-0.53) rotate(10.92) scale(0.960)">
        <g transform="translate(-3.60,0.67) rotate(16.99) scale(0.940)">
        <g transform="translate(-1.49,1.81) rotate(23.44) scale(0.920)">
        <g transform="translate(0.98,2.78) rotate(29.64) scale(0.900)" mask="url(#maskStripes)">
        <g transform="translate(3.21,3.51) rotate(34.97) scale(0.880)">
        <path d="M28.0,16.1 L0.0,32.3 L-28.0,16.1 L-28.0,-16.1 L-0.0,-32.3 L28.0,-16.1Z" fill="url(#rgrad2)" filter="url(#blur2)" opacity="0.77"/>
        <ellipse cx="0" cy="0" rx="13.5" ry="9.0" fill="#FFFFFF" opacity="0.38"/>
      </g>
      </g>
      </g>
      </g>
      </g>
      </g>
      </g>
  </g>
  <g transform="translate(1633.0, 651.5)">
      <g transform="translate(-4.82,1.06) rotate(2.02) scale(1.000)">
        <g transform="translate(-3.60,2.15) rotate(5.77) scale(0.980)">
        <g transform="translate(-1.49,3.05) rotate(10.92) scale(0.960)">
        <g transform="translate(0.98,3.68) rotate(16.99) scale(0.940)">
        <g transform="translate(3.21,3.98) rotate(23.44) scale(0.920)">
        <g transform="translate(4.66,3.92) rotate(29.64) scale(0.900)">
        <g transform="translate(4.96,3.52) rotate(34.97) scale(0.880)">
        <circle cx="0" cy="0" r="22.6" fill="url(#rgrad3)" filter="url(#shadow)" opacity="0.84"/>
        <text x="0" y="5" text-anchor="middle" font-family="Arial, sans-serif" font-size="14" fill="#FFFFFF" opacity="0.84">133</text>
      </g>
      </g>
      </g>
      </g>
      </g>
      </g>
      </g>
  </g>
  <g transform="translate(107.8, 948.6)">
      <g transform="translate(-1.49,3.82) rotate(2.02) scale(1.000)">
        <g transform="translate(0.98,4.00) rotate(5.77) scale(0.980)">
        <g transform="translate(3.21,3.82) rotate(10.92) scale(0.960)">
        <g transform="translate(4.66,3.31) rotate(16.99) scale(0.940)" clip-path="url(#clipDynamic)">
        <g transform="translate(4.96,2.49) rotate(23.44) scale(0.920)">
        <g transform="translate(4.05,1.46) rotate(29.64) scale(0.900)">
        <g transform="translate(2.15,0.29) rotate(34.97) scale(0.880)">
        <path d="M0.0,-50.1 L14.7,-20.3 L47.7,-15.5 L23.8,7.7 L29.5,40.6 L0.0,25.1 L-29.5,40.6 L-23.8,7.7 L-47.7,-15.5 L-14.7,-20.3Z" fill="url(#lgrad4)" filter="url(#blur4)" opacity="0.89"/>
      </g>
      </g>
      </g>
      </g>
      </g>
      </g>
      </g>
  </g>
  <g transform="translate(373.8, 354.0)" mask="url(#maskGradient)">
    <ellipse cx="0" cy="0" rx="200" ry="150" fill="url(#rgrad0)" filter="url(#blur3)" opacity="0.3"/>
  </g>
  <g transform="translate(896.7, 303.2)" mask="url(#maskCircleFade)">
    <ellipse cx="0" cy="0" rx="200" ry="150" fill="url(#rgrad1)" filter="url(#blur3)" opacity="0.3"/>
  </g>
  <g transform="translate(1330.6, 251.0)" mask="url(#maskStripes)">
    <ellipse cx="0" cy="0" rx="200" ry="150" fill="url(#rgrad2)" filter="url(#blur3)" opacity="0.3"/>
  </g>
</svg>