<?xml version="1.0" encoding="UTF-8"?>
<svg xmlns="http://www.w3.org/2000/svg" viewBox="0 0 1920 1080" width="1920" height="1080">
  <defs>
    <filter id="blur0" x="-50%" y="-50%" width="200%" height="200%">
      <feGaussianBlur in="SourceGraphic" stdDeviation="1"/>
    </filter>
    <filter id="blur1" x="-50%" y="-50%" width="200%" height="200%">
      <feGaussianBlur in="SourceGraphic" stdDeviation="3"/>
    </filter>
    <filter id="blur2" x="-50%" y="-50%" width="200%" height="200%">
      <feGaussianBlur in="SourceGraphic" stdDeviation="5"/>
    </filter>
    <filter id="blur3" x="-50%" y="-50%" width="200%" height="200%">
      <feGaussianBlur in="SourceGraphic" stdDeviation="7"/>
    </filter>
    <filter id="blur4" x="-50%" y="-50%" width="200%" height="200%">
      <feGaussianBlur in="SourceGraphic" stdDeviation="9"/>
    </filter>
    <filter id="shadow" x="-50%" y="-50%" width="200%" height="200%">
      <feGaussianBlur in="SourceAlpha" stdDeviation="3" result="blur"/>
      <feOffset in="blur" dx="4" dy="4" result="offsetBlur"/>
      <feMerge>
        <feMergeNode in="offsetBlur"/>
        <feMergeNode in="SourceGraphic"/>
      </feMerge>
    </filter>
    <linearGradient id="lgrad0" x1="0%" y1="0%" x2="9.3%" y2="79.0%">
      <stop offset="0%" stop-color="#FF6B6B"/>
      <stop offset="33%" stop-color="#4ECDC4"/>
      <stop offset="66%" stop-color="#45B7D1"/>
      <stop offset="100%" stop-color="#96E6A1"/>
    </linearGradient>
    <linearGradient id="lgrad1" x1="0%" y1="0%" x2="0.2%" y2="54.8%">
      <stop offset="0%" stop-color="#FFE66D"/>
      <stop offset="33%" stop-color="#FF6B6B"/>
      <stop offset="66%" stop-color="#C44D58"/>
      <stop offset="100%" stop-color="#8B0000"/>
    </linearGradient>
    <linearGradient id="lgrad2" x1="0%" y1="0%" x2="4.5%" y2="29.3%">
      <stop offset="0%" stop-color="#4169E1"/>
      <stop offset="33%" stop-color="#7B68EE"/>
      <stop offset="66%" stop-color="#9370DB"/>
      <stop offset="100%" stop-color="#FFD700"/>
    </linearGradient>
    <linearGradient id="lgrad3" x1="0%" y1="0%" x2="21.0%" y2="9.3%">
      <stop offset="0%" stop-color="#32CD32"/>
      <stop offset="33%" stop-color="#228B22"/>
      <stop offset="66%" stop-color="#006400"/>
      <stop offset="100%" stop-color="#ADFF2F"/>
    </linearGradient>
    <linearGradient id="lgrad4" x1="0%" y1="0%" x2="45.2%" y2="0.2%">
      <stop offset="0%" stop-color="#FF1493"/>
      <stop offset="33%" stop-color="#FF69B4"/>
      <stop offset="66%" stop-color="#FFB6C1"/>
      <stop offset="100%" stop-color="#FFC0CB"/>
    </linearGradient>
    <radialGradient id="rgrad0" cx="49.7%" cy="69.8%" r="60%">
      <stop offset="0%" stop-color="#FF6B6B" stop-opacity="1"/>
      <stop offset="50%" stop-color="#4ECDC4" stop-opacity="0.8"/>
      <stop offset="100%" stop-color="#45B7D1" stop-opacity="0.6"/>
    </radialGradient>
    <radialGradient id="rgrad1" cx="59.7%" cy="37.8%" r="60%">
      <stop offset="0%" stop-color="#FFE66D" stop-opacity="1"/>
      <stop offset="50%" stop-color="#FF6B6B" stop-opacity="0.8"/>
      <stop offset="100%" stop-color="#C44D58" stop-opacity="0.6"/>
    </radialGradient>
    <radialGradient id="rgrad2" cx="69.7%" cy="45.8%" r="60%">
      <stop offset="0%" stop-color="#4169E1" stop-opacity="1"/>
      <stop offset="50%" stop-color="#7B68EE" stop-opacity="0.8"/>
      <stop offset="100%" stop-color="#9370DB" stop-opacity="0.6"/>
    </radialGradient>
    <radialGradient id="rgrad3" cx="39.7%" cy="53.8%" r="60%">
      <stop offset="0%" stop-color="#32CD32" stop-opacity="1"/>
      <stop offset="50%" stop-color="#228B22" stop-opacity="0.8"/>
      <stop offset="100%" stop-color="#006400" stop-opacity="0.6"/>
    </radialGradient>
    <radialGradient id="rgrad4" cx="49.7%" cy="61.8%" r="60%">
      <stop offset="0%" stop-color="#FF1493" stop-opacity="1"/>
      <stop offset="50%" stop-color="#FF69B4" stop-opacity="0.8"/>
      <stop offset="100%" stop-color="#FFB6C1" stop-opacity="0.6"/>
    </radialGradient>
    <clipPath id="clipCircle">
      <circle cx="0" cy="0" r="50"/>
    </clipPath>
    <clipPath id="clipStar">
      <path d="M0.0,-50.0 L14.7,-20.2 L47.6,-15.5 L23.8,7.7 L29.4,40.5 L0.0,25.0 L-29.4,40.5 L-23.8,7.7 L-47.6,-15.5 L-14.7,-20.2Z"/>
    </clipPath>
    <clipPath id="clipHex">
      <path d="M39.0,22.5 L0.0,45.0 L-39.0,22.5 L-39.0,-22.5 L-0.0,-45.0 L39.0,-22.5Z"/>
    </clipPath>
    <clipPath id="clipRect">
      <rect x="-40" y="-30" width="80" height="60" rx="10"/>
    </clipPath>
    <clipPath id="clipDynamic">
      <circle cx="0" cy="0" r="49.2"/>
    </clipPath>
    <mask id="maskGradient" maskContentUnits="objectBoundingBox">
      <rect x="0" y="0" width="1" height="1" fill="url(#maskGrad)"/>
    </mask>
    <linearGradient id="maskGrad" x1="0%" y1="0%" x2="100%" y2="100%">
      <stop offset="0%" stop-color="white"/>
      <stop offset="100%" stop-color="black"/>
    </linearGradient>
    <mask id="maskCircleFade">
      <circle cx="0" cy="0" r="60" fill="white"/>
      <circle cx="0" cy="0" r="30" fill="black"/>
    </mask>
    <mask id="maskStripes">
      <rect x="-50" y="-50" width="100" height="100" fill="white"/>
      <rect x="-50" y="-40" width="100" height="10" fill="black"/>
      <rect x="-50" y="-20" width="100" height="10" fill="black"/>
      <rect x="-50" y="0" width="100" height="10" fill="black"/>
      <rect x="-50" y="20" width="100" height="10" fill="black"/>
      <rect x="-50" y="40" width="100" height="10" fill="black"/>
    </mask>
    <mask id="maskDynamic">
      <rect x="-60" y="-60" width="120" height="120" fill="white" fill-opacity="0.71"/>
      <circle cx="0" cy="0" r="25" fill="white"/>
    </mask>
  </defs>
  <rect width="1920" height="1080" fill="url(#lgrad0)"/>
  <g transform="translate(128.4, 108.0)">
      <g transform="translate(4.74,1.28) rotate(2.92) scale(1.000)">
        <g transform="translate(4.92,0.10) rotate(7.33) scale(0.980)">
        <g transform="translate(3.91,-1.08) rotate(12.80) scale(0.960)">
        <g transform="translate(1.93,-2.17) rotate(18.80) scale(0.940)" clip-path="url(#clipCircle)">
        <g transform="translate(-0.52,-3.07) rotate(24.73) scale(0.920)">
        <g transform="translate(-2.84,-3.69) rotate(29.96) scale(0.900)">
        <g transform="translate(-4.46,-3.98) rotate(33.90) scale(0.880)">
        <path d="M0.0,-68.7 L20.2,-27.8 L65.4,-21.2 L32.7,10.6 L40.4,55.6 L0.0,34.4 L-40.4,55.6 L-32.7,10.6 L-65.4,-21.2 L-20.2,-27.8Z" fill="url(#lgrad0)" filter="url(#blur0)" opacity="0.73"/>
      </g>
      </g>
      </g>
      </g>
      </g>
      </g>
      </g>
  </g>
  <g transform="translate(349.5, 90.9)">
      <g transform="translate(3.91,-2.50) rotate(2.92) scale(1.000)">
        <g transform="translate(1.93,-3.31) rotate(7.33) scale(0.980)">
        <g transform="translate(-0.52,-3.83) rotate(12.80) scale(0.960)">
        <g transform="translate(-2.84,-4.00) rotate(18.80) scale(0.940)">
        <g transform="translate(-4.46,-3.82) rotate(24.73) scale(0.920)">
        <g transform="translate(-5.00,-3.29) rotate(29.96) scale(0.900)" mask="url(#maskCircleFade)">
        <g transform="translate(-4.31,-2.47) rotate(33.90) scale(0.880)">
        <rect x="-37.5" y="-37.5" width="75.0" height="75.0" rx="18.7" fill="url(#rgrad1)" filter="url(#shadow)" opacity="0.82"/>
        <circle cx="0" cy="0" r="25.0" fill="url(#rgrad2)" opacity="0.57"/>
      </g>
      </g>
      </g>
      </g>
      </g>
      </g>
      </g>
  </g>
  <g transform="translate(563.4, 78.0)">
      <g transform="translate(-0.52,-3.98) rotate(2.92) scale(1.000)">
        <g transform="translate(-2.84,-3.68) rotate(7.33) scale(0.980)">
        <g transform="translate(-4.46,-3.05) rotate(12.80) scale(0.960)">
        <g transform="translate(-5.00,-2.15) rotate(18.80) scale(0.940)">
        <g transform="translate(-4.31,-1.06) rotate(24.73) scale(0.920)">
        <g transform="translate(-2.56,0.13) rotate(29.96) scale(0.900)">
        <g transform="translate(-0.19,1.31) rotate(33.90) scale(0.880)">
        <path d="M35.0,20.2 L0.0,40.5 L-35.0,20.2 L-35.0,-20.2 L-0.0,-40.5 L35.0,-20.2Z" fill="url(#rgrad2)" filter="url(#blur2)" opacity="0.88"/>
        <ellipse cx="0" cy="0" rx="16.9" ry="11.2" fill="#FFFFFF" opacity="0.44"/>
      </g>
      </g>
      </g>
      </g>
      </g>
      </g>
      </g>
  </g>
  <g transform="translate(771.6, 75.5)">
      <g transform="translate(-4.46,-1.80) rotate(2.92) scale(1.000)">
        <g transform="translate(-5.00,-0.67) rotate(7.33) scale(0.980)">
        <g transform="translate(-4.31,0.53) rotate(12.80) scale(0.960)">
        <g transform="translate(-2.56,1.68) rotate(18.80) scale(0.940)" clip-path="url(#clipRect)">
        <g transform="translate(-0.19,2.68) rotate(24.73) scale(0.920)">
        <g transform="translate(2.23,3.44) rotate(29.96) scale(0.900)">
        <g transform="translate(4.10,3.89) rotate(33.90) scale(0.880)">
        <circle cx="0" cy="0" r="26.5" fill="url(#lgrad3)" filter="url(#shadow)" opacity="0.90"/>
        <text x="0" y="5" text-anchor="middle" font-family="Arial, sans-serif" font-size="14" fill="#FFFFFF" opacity="0.90">199</text>
      </g>
      </g>
      </g>
      </g>
      </g>
      </g>
      </g>
  </g>
  <g transform="translate(976.9, 84.5)">
      <g transform="translate(-4.31,2.03) rotate(2.92) scale(1.000)">
        <g transform="translate(-2.56,2.96) rotate(7.33) scale(0.980)">
        <g transform="translate(-0.19,3.62) rotate(12.80) scale(0.960)">
        <g transform="translate(2.23,3.96) rotate(18.80) scale(0.940)">
        <g transform="translate(4.10,3.95) rotate(24.73) scale(0.920)">
        <g transform="translate(4.97,3.58) rotate(29.96) scale(0.900)" mask="url(#maskGradient)">
        <g transform="translate(4.62,2.89) rotate(33.90) scale(0.880)">
        <path d="M0.0,-45.1 L13.2,-18.2 L42.9,-13.9 L21.4,7.0 L26.5,36.5 L0.0,22.5 L-26.5,36.5 L-21.4,7.0 L-42.9,-13.9 L-13.2,-18.2Z" fill="url(#rgrad4)" filter="url(#blur4)" opacity="0.89"/>
      </g>
      </g>
      </g>
      </g>
      </g>
      </g>
      </g>
  </g>
  <g transform="translate(1183.0, 100.8)">
      <g transform="translate(-0.19,4.00) rotate(2.92) scale(1.000)">
        <g transform="translate(2.23,3.86) rotate(7.33) scale(0.980)">
        <g transform="translate(4.10,3.38) rotate(12.80) scale(0.960)">
        <g transform="translate(4.97,2.60) rotate(18.80) scale(0.940)">
        <g transform="translate(4.62,1.59) rotate(24.73) scale(0.920)">
        <g transform="translate(3.14,0.43) rotate(29.96) scale(0.900)">
        <g transform="translate(0.89,-0.76) rotate(33.90) scale(0.880)">
        <rect x="-25.4" y="-25.4" width="50.8" height="50.8" rx="12.7" fill="url(#rgrad0)" filter="url(#shadow)" opacity="0.84"/>
        <circle cx="0" cy="0" r="16.9" fill="url(#rgrad1)" opacity="0.59"/>
      </g>
      </g>
      </g>
      </g>
      </g>
      </g>
      </g>
  </g>
  <g transform="translate(1393.2, 116.7)">
      <g transform="translate(4.10,2.29) rotate(2.92) scale(1.000)">
        <g transform="translate(4.97,1.22) rotate(7.33) scale(0.980)">
        <g transform="translate(4.62,0.03) rotate(12.80) scale(0.960)">
        <g transform="translate(3.14,-1.15) rotate(18.80) scale(0.940)" clip-path="url(#clipStar)">
        <g transform="translate(0.89,-2.23) rotate(24.73) scale(0.920)">
        <g transform="translate(-1.58,-3.11) rotate(29.96) scale(0.900)">
        <g transform="translate(-3.66,-3.72) rotate(33.90) scale(0.880)">
        <path d="M33.8,19.5 L0.0,39.0 L-33.8,19.5 L-33.8,-19.5 L-0.0,-39.0 L33.8,-19.5Z" fill="url(#lgrad1)" filter="url(#blur1)" opacity="0.76"/>
        <ellipse cx="0" cy="0" rx="16.2" ry="10.8" fill="#FFFFFF" opacity="0.38"/>
      </g>
      </g>
      </g>
      </g>
      </g>
      </g>
      </g>
  </g>
  <g transform="translate(1610.0, 124.8)">
      <g transform="translate(4.62,-1.53) rotate(2.92) scale(1.000)">
        <g transform="translate(3.14,-2.55) rotate(7.33) scale(0.980)">
        <g transform="translate(0.89,-3.35) rotate(12.80) scale(0.960)">
        <g transform="translate(-1.58,-3.84) rotate(18.80) scale(0.940)">
        <g transform="translate(-3.66,-4.00) rotate(24.73) scale(0.920)">
        <g transform="translate(-4.84,-3.80) rotate(29.96) scale(0.900)" mask="url(#maskDynamic)">
        <g transform="translate(-4.84,-3.25) rotate(33.90) scale(0.880)">
        <circle cx="0" cy="0" r="37.3" fill="url(#rgrad2)" filter="url(#shadow)" opacity="0.66"/>
        <text x="0" y="5" text-anchor="middle" font-family="Arial, sans-serif" font-size="14" fill="#FFFFFF" opacity="0.66">199</text>
      </g>
      </g>
      </g>
      </g>
      </g>
      </g>
      </g>
  </g>
  <g transform="translate(74.2, 401.2)">
      <g transform="translate(0.89,-3.94) rotate(2.92) scale(1.000)">
        <g transform="translate(-1.58,-3.97) rotate(7.33) scale(0.980)">
        <g transform="translate(-3.66,-3.65) rotate(12.80) scale(0.960)">
        <g transform="translate(-4.84,-3.01) rotate(18.80) scale(0.940)">
        <g transform="translate(-4.84,-2.09) rotate(24.73) scale(0.920)">
        <g transform="translate(-3.66,-0.99) rotate(29.96) scale(0.900)">
        <g transform="translate(-1.58,0.20) rotate(33.90) scale(0.880)">
        <path d="M0.0,-70.8 L20.8,-28.6 L67.3,-21.9 L33.7,10.9 L41.6,57.3 L0.0,35.4 L-41.6,57.3 L-33.7,10.9 L-67.3,-21.9 L-20.8,-28.6Z" fill="url(#rgrad3)" filter="url(#blur3)" opacity="0.55"/>
      </g>
      </g>
      </g>
      </g>
      </g>
      </g>
      </g>
  </g>
  <g transform="translate(304.6, 387.6)">
      <g transform="translate(-3.66,-2.73) rotate(2.92) scale(1.000)">
        <g transform="translate(-4.84,-1.74) rotate(7.33) scale(0.980)">
        <g transform="translate(-4.84,-0.60) rotate(12.80) scale(0.960)">
        <g transform="translate(-3.66,0.60) rotate(18.80) scale(0.940)" clip-path="url(#clipDynamic)">
        <g transform="translate(-1.58,1.74) rotate(24.73) scale(0.920)">
        <g transform="translate(0.89,2.73) rotate(29.96) scale(0.900)">
        <g transform="translate(3.14,3.47) rotate(33.90) scale(0.880)">
        <rect x="-28.5" y="-28.5" width="57.1" height="57.1" rx="14.3" fill="url(#lgrad4)" filter="url(#shadow)" opacity="0.43"/>
        <circle cx="0" cy="0" r="19.0" fill="url(#rgrad0)" opacity="0.30"/>
      </g>
      </g>
      </g>
      </g>
      </g>
      </g>
      </g>
  </g>
  <g transform="translate(538.9, 370.5)">
      <g transform="translate(-4.84,0.99) rotate(2.92) scale(1.000)">
        <g transform="translate(-3.66,2.09) rotate(7.33) scale(0.980)">
        <g transform="translate(-1.58,3.00) rotate(12.80) scale(0.960)">
        <g transform="translate(0.89,3.65) rotate(18.80) scale(0.940)">
        <g transform="translate(3.14,3.97) rotate(24.73) scale(0.920)">
        <g transform="translate(4.62,3.94) rotate(29.96) scale(0.900)" mask="url(#maskStripes)">
        <g transform="translate(4.97,3.55) rotate(33.90) scale(0.880)">
        <path d="M23.9,13.8 L0.0,27.6 L-23.9,13.8 L-23.9,-13.8 L-0.0,-27.6 L23.9,-13.8Z" fill="url(#rgrad0)" filter="url(#blur0)" opacity="0.31"/>
        <ellipse cx="0" cy="0" rx="11.5" ry="7.7" fill="#FFFFFF" opacity="0.16"/>
      </g>
      </g>
      </g>
      </g>
      </g>
      </g>
      </g>
  </g>
  <g transform="translate(773.4, 357.8)">
      <g transform="translate(-1.58,3.80) rotate(2.92) scale(1.000)">
        <g transform="translate(0.89,4.00) rotate(7.33) scale(0.980)">
        <g transform="translate(3.14,3.85) rotate(12.80) scale(0.960)">
        <g transform="translate(4.62,3.35) rotate(18.80) scale(0.940)">
        <g transform="translate(4.97,2.55) rotate(24.73) scale(0.920)">
        <g transform="translate(4.10,1.53) rotate(29.96) scale(0.900)">
        <g transform="translate(2.23,0.37) rotate(33.90) scale(0.880)">
        <circle cx="0" cy="0" r="23.9" fill="url(#rgrad1)" filter="url(#shadow)" opacity="0.22"/>
        <text x="0" y="5" text-anchor="middle" font-family="Arial, sans-serif" font-size="14" fill="#FFFFFF" opacity="0.22">199</text>
      </g>
      </g>
      </g>
      </g>
      </g>
      </g>
      </g>
  </g>
  <g transform="translate(1004.6, 355.6)">
      <g transform="translate(3.14,3.11) rotate(2.92) scale(1.000)">
        <g transform="translate(4.62,2.23) rotate(7.33) scale(0.980)">
        <g transform="translate(4.97,1.15) rotate(12.80) scale(0.960)">
        <g transform="translate(4.10,-0.03) rotate(18.80) scale(0.940)" clip-path="url(#clipHex)">
        <g transform="translate(2.23,-1.21) rotate(24.73) scale(0.920)">
        <g transform="translate(-0.19,-2.29) rotate(29.96) scale(0.900)">
        <g transform="translate(-2.56,-3.15) rotate(33.90) scale(0.880)">
        <path d="M0.0,-60.8 L17.9,-24.6 L57.9,-18.8 L28.9,9.4 L35.8,49.2 L0.0,30.4 L-35.8,49.2 L-28.9,9.4 L-57.9,-18.8 L-17.9,-24.6Z" fill="url(#lgrad2)" filter="url(#blur2)" opacity="0.15"/>
      </g>
      </g>
      </g>
      </g>
      </g>
      </g>
      </g>
  </g>
  <g transform="translate(1229.8, 364.9)">
      <g transform="translate(4.97,-0.43) rotate(2.92) scale(1.000)">
        <g transform="translate(4.10,-1.59) rotate(7.33) scale(0.980)">
        <g transform="translate(2.23,-2.60) rotate(12.80) scale(0.960)">
        <g transform="translate(-0.19,-3.38) rotate(18.80) scale(0.940)">
        <g transform="translate(-2.56,-3.86) rotate(24.73) scale(0.920)">
        <g transform="translate(-4.31,-4.00) rotate(29.96) scale(0.900)" mask="url(#maskCircleFade)">
        <g transform="translate(-5.00,-3.77) rotate(33.90) scale(0.880)">
        <rect x="-36.5" y="-36.5" width="73.1" height="73.1" rx="18.3" fill="url(#rgrad3)" filter="url(#shadow)" opacity="0.11"/>
        <circle cx="0" cy="0" r="24.4" fill="url(#rgrad4)" opacity="0.08"/>
      </g>
      </g>
      </g>
      </g>
      </g>
      </g>
      </g>
  </g>
  <g transform="translate(1447.7, 381.2)">
      <g transform="translate(2.23,-3.58) rotate(2.92) scale(1.000)">
        <g transform="translate(-0.19,-3.95) rotate(7.33) scale(0.980)">
        <g transform="translate(-2.56,-3.96) rotate(12.80) scale(0.960)">
        <g transform="translate(-4.31,-3.62) rotate(18.80) scale(0.940)">
        <g transform="translate(-5.00,-2.96) rotate(24.73) scale(0.920)">
        <g transform="translate(-4.47,-2.03) rotate(29.96) scale(0.900)">
        <g transform="translate(-2.84,-0.93) rotate(33.90) scale(0.880)">
        <path d="M38.1,22.0 L0.0,44.0 L-38.1,22.0 L-38.1,-22.0 L-0.0,-44.0 L38.1,-22.0Z" fill="url(#rgrad4)" filter="url(#blur4)" opacity="0.10"/>
        <ellipse cx="0" cy="0" rx="18.3" ry="12.2" fill="#FFFFFF" opacity="0.05"/>
      </g>
      </g>
      </g>
      </g>
      </g>
      </g>
      </g>
  </g>
  <g transform="translate(1658.9, 397.0)">
      <g transform="translate(-2.56,-3.44) rotate(2.92) scale(1.000)">
        <g transform="translate(-4.31,-2.68) rotate(7.33) scale(0.980)">
        <g transform="translate(-5.00,-1.68) rotate(12.80) scale(0.960)">
        <g transform="translate(-4.47,-0.53) rotate(18.80) scale(0.940)" clip-path="url(#clipCircle)">
        <g transform="translate(-2.84,0.66) rotate(24.73) scale(0.920)">
        <g transform="translate(-0.52,1.80) rotate(29.96) scale(0.900)">
        <g transform="translate(1.93,2.77) rotate(33.90) scale(0.880)">
        <circle cx="0" cy="0" r="30.6" fill="url(#lgrad0)" filter="url(#shadow)" opacity="0.13"/>
        <text x="0" y="5" text-anchor="middle" font-family="Arial, sans-serif" font-size="14" fill="#FFFFFF" opacity="0.13">199</text>
      </g>
      </g>
      </g>
      </g>
      </g>
      </g>
      </g>
  </g>
  <g transform="translate(105.4, 684.8)">
      <g transform="translate(-5.00,-0.13) rotate(2.92) scale(1.000)">
        <g transform="translate(-4.47,1.05) rotate(7.33) scale(0.980)">
        <g transform="translate(-2.84,2.15) rotate(12.80) scale(0.960)">
        <g transform="translate(-0.52,3.05) rotate(18.80) scale(0.940)">
        <g transform="translate(1.93,3.68) rotate(24.73) scale(0.920)">
        <g transform="translate(3.90,3.98) rotate(29.96) scale(0.900)" mask="url(#maskGradient)">
        <g transform="translate(4.92,3.92) rotate(33.90) scale(0.880)">
        <path d="M0.0,-48.1 L14.1,-19.5 L45.8,-14.9 L22.9,7.4 L28.3,38.9 L0.0,24.1 L-28.3,38.9 L-22.9,7.4 L-45.8,-14.9 L-14.1,-19.5Z" fill="url(#rgrad1)" filter="url(#blur1)" opacity="0.20"/>
      </g>
      </g>
      </g>
      </g>
      </g>
      </g>
      </g>
  </g>
  <g transform="translate(310.5, 680.9)">
      <g transform="translate(-2.84,3.29) rotate(2.92) scale(1.000)">
        <g transform="translate(-0.52,3.82) rotate(7.33) scale(0.980)">
        <g transform="translate(1.93,4.00) rotate(12.80) scale(0.960)">
        <g transform="translate(3.90,3.83) rotate(18.80) scale(0.940)">
        <g transform="translate(4.92,3.31) rotate(24.73) scale(0.920)">
        <g transform="translate(4.74,2.50) rotate(29.96) scale(0.900)">
        <g transform="translate(3.39,1.47) rotate(33.90) scale(0.880)">
        <rect x="-22.9" y="-22.9" width="45.9" height="45.9" rx="11.5" fill="url(#rgrad2)" filter="url(#shadow)" opacity="0.29"/>
        <circle cx="0" cy="0" r="15.3" fill="url(#rgrad3)" opacity="0.20"/>
      </g>
      </g>
      </g>
      </g>
      </g>
      </g>
      </g>
  </g>
  <g transform="translate(518.1, 667.2)">
      <g transform="translate(1.93,3.69) rotate(2.92) scale(1.000)">
        <g transform="translate(3.90,3.07) rotate(7.33) scale(0.980)">
        <g transform="translate(4.92,2.18) rotate(12.80) scale(0.960)">
        <g transform="translate(4.74,1.09) rotate(18.80) scale(0.940)" clip-path="url(#clipRect)">
        <g transform="translate(3.39,-0.10) rotate(24.73) scale(0.920)">
        <g transform="translate(1.22,-1.28) rotate(29.96) scale(0.900)">
        <g transform="translate(-1.26,-2.34) rotate(33.90) scale(0.880)">
        <path d="M29.4,17.0 L0.0,34.0 L-29.4,17.0 L-29.4,-17.0 L-0.0,-34.0 L29.4,-17.0Z" fill="url(#lgrad3)" filter="url(#blur3)" opacity="0.40"/>
        <ellipse cx="0" cy="0" rx="14.2" ry="9.4" fill="#FFFFFF" opacity="0.20"/>
      </g>
      </g>
      </g>
      </g>
      </g>
      </g>
      </g>
  </g>
  <g transform="translate(730.9, 650.1)">
      <g transform="translate(4.92,0.70) rotate(2.92) scale(1.000)">
        <g transform="translate(4.74,-0.50) rotate(7.33) scale(0.980)">
        <g transform="translate(3.39,-1.65) rotate(12.80) scale(0.960)">
        <g transform="translate(1.22,-2.65) rotate(18.80) scale(0.940)">
        <g transform="translate(-1.26,-3.42) rotate(24.73) scale(0.920)">
        <g transform="translate(-3.42,-3.88) rotate(29.96) scale(0.900)" mask="url(#maskDynamic)">
        <g transform="translate(-4.75,-3.99) rotate(33.90) scale(0.880)">
        <circle cx="0" cy="0" r="35.2" fill="url(#rgrad4)" filter="url(#shadow)" opacity="0.52"/>
        <text x="0" y="5" text-anchor="middle" font-family="Arial, sans-serif" font-size="14" fill="#FFFFFF" opacity="0.52">199</text>
      </g>
      </g>
      </g>
      </g>
      </g>
      </g>
      </g>
  </g>
  <g transform="translate(950.9, 637.6)">
      <g transform="translate(3.39,-2.94) rotate(2.92) scale(1.000)">
        <g transform="translate(1.22,-3.61) rotate(7.33) scale(0.980)">
        <g transform="translate(-1.26,-3.96) rotate(12.80) scale(0.960)">
        <g transform="translate(-3.42,-3.95) rotate(18.80) scale(0.940)">
        <g transform="translate(-4.75,-3.59) rotate(24.73) scale(0.920)">
        <g transform="translate(-4.92,-2.92) rotate(29.96) scale(0.900)">
        <g transform="translate(-3.88,-1.98) rotate(33.90) scale(0.880)">
        <path d="M0.0,-74.7 L22.0,-30.2 L71.0,-23.1 L35.5,11.5 L43.9,60.4 L0.0,37.3 L-43.9,60.4 L-35.5,11.5 L-71.0,-23.1 L-22.0,-30.2Z" fill="url(#rgrad0)" filter="url(#blur0)" opacity="0.63"/>
      </g>
      </g>
      </g>
      </g>
      </g>
      </g>
      </g>
  </g>
  <g transform="translate(1178.0, 635.7)">
      <g transform="translate(-1.26,-3.87) rotate(2.92) scale(1.000)">
        <g transform="translate(-3.42,-3.40) rotate(7.33) scale(0.980)">
        <g transform="translate(-4.75,-2.63) rotate(12.80) scale(0.960)">
        <g transform="translate(-4.92,-1.62) rotate(18.80) scale(0.940)" clip-path="url(#clipStar)">
        <g transform="translate(-3.88,-0.47) rotate(24.73) scale(0.920)">
        <g transform="translate(-1.89,0.73) rotate(29.96) scale(0.900)">
        <g transform="translate(0.56,1.86) rotate(33.90) scale(0.880)">
        <rect x="-32.7" y="-32.7" width="65.4" height="65.4" rx="16.4" fill="url(#lgrad1)" filter="url(#shadow)" opacity="0.74"/>
        <circle cx="0" cy="0" r="21.8" fill="url(#rgrad2)" opacity="0.52"/>
      </g>
      </g>
      </g>
      </g>
      </g>
      </g>
      </g>
  </g>
  <g transform="translate(1410.5, 645.2)">
      <g transform="translate(-4.75,-1.25) rotate(2.92) scale(1.000)">
        <g transform="translate(-4.92,-0.07) rotate(7.33) scale(0.980)">
        <g transform="translate(-3.88,1.12) rotate(12.80) scale(0.960)">
        <g transform="translate(-1.89,2.20) rotate(18.80) scale(0.940)">
        <g transform="translate(0.56,3.09) rotate(24.73) scale(0.920)">
        <g transform="translate(2.87,3.70) rotate(29.96) scale(0.900)" mask="url(#maskStripes)">
        <g transform="translate(4.48,3.98) rotate(33.90) scale(0.880)">
        <path d="M26.6,15.3 L0.0,30.7 L-26.6,15.3 L-26.6,-15.3 L-0.0,-30.7 L26.6,-15.3Z" fill="url(#rgrad2)" filter="url(#blur2)" opacity="0.82"/>
        <ellipse cx="0" cy="0" rx="12.8" ry="8.5" fill="#FFFFFF" opacity="0.41"/>
      </g>
      </g>
      </g>
      </g>
      </g>
      </g>
      </g>
  </g>
  <g transform="translate(1645.3, 661.7)">
      <g transform="translate(-3.88,2.53) rotate(2.92) scale(1.000)">
        <g transform="translate(-1.89,3.33) rotate(7.33) scale(0.980)">
        <g transform="translate(0.56,3.84) rotate(12.80) scale(0.960)">
        <g transform="translate(2.87,4.00) rotate(18.80) scale(0.940)">
        <g transform="translate(4.48,3.81) rotate(24.73) scale(0.920)">
        <g transform="translate(5.00,3.27) rotate(29.96) scale(0.900)">
        <g transform="translate(4.28,2.45) rotate(33.90) scale(0.880)">
        <circle cx="0" cy="0" r="22.5" fill="url(#rgrad3)" filter="url(#shadow)" opacity="0.88"/>
        <text x="0" y="5" text-anchor="middle" font-family="Arial, sans-serif" font-size="14" fill="#FFFFFF" opacity="0.88">199</text>
      </g>
      </g>
      </g>
      </g>
      </g>
      </g>
      </g>
  </g>
  <g transform="translate(118.8, 957.3)">
      <g transform="translate(0.56,3.97) rotate(2.92) scale(1.000)">
        <g transform="translate(2.87,3.66) rotate(7.33) scale(0.980)">
        <g transform="translate(4.48,3.03) rotate(12.80) scale(0.960)">
        <g transform="translate(5.00,2.12) rotate(18.80) scale(0.940)" clip-path="url(#clipDynamic)">
        <g transform="translate(4.28,1.02) rotate(24.73) scale(0.920)">
        <g transform="translate(2.52,-0.17) rotate(29.96) scale(0.900)">
        <g transform="translate(0.15,-1.34) rotate(33.90) scale(0.880)">
        <path d="M0.0,-52.7 L15.5,-21.3 L50.1,-16.3 L25.0,8.1 L31.0,42.6 L0.0,26.3 L-31.0,42.6 L-25.0,8.1 L-50.1,-16.3 L-15.5,-21.3Z" fill="url(#lgrad4)" filter="url(#blur4)" opacity="0.90"/>
      </g>
      </g>
      </g>
      </g>
      </g>
      </g>
      </g>
  </g>
  <g transform="translate(394.7, 325.6)" mask="url(#maskGradient)">
    <ellipse cx="0" cy="0" rx="200" ry="150" fill="url(#rgrad0)" filter="url(#blur3)" opacity="0.3"/>
  </g>
  <g transform="translate(878.1, 270.7)" mask="url(#maskCircleFade)">
    <ellipse cx="0" cy="0" rx="200" ry="150" fill="url(#rgrad1)" filter="url(#blur3)" opacity="0.3"/>
  </g>
  <g transform="translate(1289.6, 229.7)" mask="url(#maskStripes)">
    <ellipse cx="0" cy="0" rx="200" ry="150" fill="url(#rgrad2)" filter="url(#blur3)" opacity="0.3"/>
  </g>
</svg>