<?xml version="1.0" encoding="UTF-8"?>
<svg xmlns="http://www.w3.org/2000/svg" viewBox="0 0 1920 1080" width="1920" height="1080">
  <defs>
    <filter id="blur0" x="-50%" y="-50%" width="200%" height="200%">
      <feGaussianBlur in="SourceGraphic" stdDeviation="1"/>
    </filter>
    <filter id="blur1" x="-50%" y="-50%" width="200%" height="200%">
      <feGaussianBlur in="SourceGraphic" stdDeviation="3"/>
    </filter>
    <filter id="blur2" x="-50%" y="-50%" width="200%" height="200%">
      <feGaussianBlur in="SourceGraphic" stdDeviation="5"/>
    </filter>
    <filter id="blur3" x="-50%" y="-50%" width="200%" height="200%">
      <feGaussianBlur in="SourceGraphic" stdDeviation="7"/>
    </filter>
    <filter id="blur4" x="-50%" y="-50%" width="200%" height="200%">
      <feGaussianBlur in="SourceGraphic" stdDeviation="9"/>
    </filter>
    <filter id="shadow" x="-50%" y="-50%" width="200%" height="200%">
      <feGaussianBlur in="SourceAlpha" stdDeviation="3" result="blur"/>
      <feOffset in="blur" dx="4" dy="4" result="offsetBlur"/>
      <feMerge>
        <feMergeNode in="offsetBlur"/>
        <feMergeNode in="SourceGraphic"/>
      </feMerge>
    </filter>
    <linearGradient id="lgrad0" x1="0%" y1="0%" x2="0.8%" y2="59.1%">
      <stop offset="0%" stop-color="#FF6B6B"/>
      <stop offset="33%" stop-color="#4ECDC4"/>
      <stop offset="66%" stop-color="#45B7D1"/>
      <stop offset="100%" stop-color="#96E6A1"/>
    </linearGradient>
    <linearGradient id="lgrad1" x1="0%" y1="0%" x2="2.9%" y2="33.3%">
      <stop offset="0%" stop-color="#FFE66D"/>
      <stop offset="33%" stop-color="#FF6B6B"/>
      <stop offset="66%" stop-color="#C44D58"/>
      <stop offset="100%" stop-color="#8B0000"/>
    </linearGradient>
    <linearGradient id="lgrad2" x1="0%" y1="0%" x2="17.5%" y2="12.0%">
      <stop offset="0%" stop-color="#4169E1"/>
      <stop offset="33%" stop-color="#7B68EE"/>
      <stop offset="66%" stop-color="#9370DB"/>
      <stop offset="100%" stop-color="#FFD700"/>
    </linearGradient>
    <linearGradient id="lgrad3" x1="0%" y1="0%" x2="40.9%" y2="0.8%">
      <stop offset="0%" stop-color="#32CD32"/>
      <stop offset="33%" stop-color="#228B22"/>
      <stop offset="66%" stop-color="#006400"/>
      <stop offset="100%" stop-color="#ADFF2F"/>
    </linearGradient>
    <linearGradient id="lgrad4" x1="0%" y1="0%" x2="66.7%" y2="2.9%">
      <stop offset="0%" stop-color="#FF1493"/>
      <stop offset="33%" stop-color="#FF69B4"/>
      <stop offset="66%" stop-color="#FFB6C1"/>
      <stop offset="100%" stop-color="#FFC0CB"/>
    </linearGradient>
    <radialGradient id="rgrad0" cx="64.7%" cy="39.8%" r="60%">
      <stop offset="0%" stop-color="#FF6B6B" stop-opacity="1"/>
      <stop offset="50%" stop-color="#4ECDC4" stop-opacity="0.8"/>
      <stop offset="100%" stop-color="#45B7D1" stop-opacity="0.6"/>
    </radialGradient>
    <radialGradient id="rgrad1" cx="34.7%" cy="47.8%" r="60%">
      <stop offset="0%" stop-color="#FFE66D" stop-opacity="1"/>
      <stop offset="50%" stop-color="#FF6B6B" stop-opacity="0.8"/>
      <stop offset="100%" stop-color="#C44D58" stop-opacity="0.6"/>
    </radialGradient>
    <radialGradient id="rgrad2" cx="44.7%" cy="55.8%" r="60%">
      <stop offset="0%" stop-color="#4169E1" stop-opacity="1"/>
      <stop offset="50%" stop-color="#7B68EE" stop-opacity="0.8"/>
      <stop offset="100%" stop-color="#9370DB" stop-opacity="0.6"/>
    </radialGradient>
    <radialGradient id="rgrad3" cx="54.7%" cy="63.8%" r="60%">
      <stop offset="0%" stop-color="#32CD32" stop-opacity="1"/>
      <stop offset="50%" stop-color="#228B22" stop-opacity="0.8"/>
      <stop offset="100%" stop-color="#006400" stop-opacity="0.6"/>
    </radialGradient>
    <radialGradient id="rgrad4" cx="64.7%" cy="31.8%" r="60%">
      <stop offset="0%" stop-color="#FF1493" stop-opacity="1"/>
      <stop offset="50%" stop-color="#FF69B4" stop-opacity="0.8"/>
      <stop offset="100%" stop-color="#FFB6C1" stop-opacity="0.6"/>
    </radialGradient>
    <clipPath id="clipCircle">
      <circle cx="0" cy="0" r="50"/>
    </clipPath>
    <clipPath id="clipStar">
      <path d="M0.0,-50.0 L14.7,-20.2 L47.6,-15.5 L23.8,7.7 L29.4,40.5 L0.0,25.0 L-29.4,40.5 L-23.8,7.7 L-47.6,-15.5 L-14.7,-20.2Z"/>
    </clipPath>
    <clipPath id="clipHex">
      <path d="M39.0,22.5 L0.0,45.0 L-39.0,22.5 L-39.0,-22.5 L-0.0,-45.0 L39.0,-22.5Z"/>
    </clipPath>
    <clipPath id="clipRect">
      <rect x="-40" y="-30" width="80" height="60" rx="10"/>
    </clipPath>
    <clipPath id="clipDynamic">
      <circle cx="0" cy="0" r="50.0"/>
    </clipPath>
    <mask id="maskGradient" maskContentUnits="objectBoundingBox">
      <rect x="0" y="0" width="1" height="1" fill="url(#maskGrad)"/>
    </mask>
    <linearGradient id="maskGrad" x1="0%" y1="0%" x2="100%" y2="100%">
      <stop offset="0%" stop-color="white"/>
      <stop offset="100%" stop-color="black"/>
    </linearGradient>
    <mask id="maskCircleFade">
      <circle cx="0" cy="0" r="60" fill="white"/>
      <circle cx="0" cy="0" r="30" fill="black"/>
    </mask>
    <mask id="maskStripes">
      <rect x="-50" y="-50" width="100" height="100" fill="white"/>
      <rect x="-50" y="-40" width="100" height="10" fill="black"/>
      <rect x="-50" y="-20" width="100" height="10" fill="black"/>
      <rect x="-50" y="0" width="100" height="10" fill="black"/>
      <rect x="-50" y="20" width="100" height="10" fill="black"/>
      <rect x="-50" y="40" width="100" height="10" fill="black"/>
    </mask>
    <mask id="maskDynamic">
      <rect x="-60" y="-60" width="120" height="120" fill="white" fill-opacity="0.79"/>
      <circle cx="0" cy="0" r="25" fill="white"/>
    </mask>
  </defs>
  <rect width="1920" height="1080" fill="url(#lgrad0)"/>
  <g transform="translate(130.0, 100.3)">
      <g transform="translate(5.00,0.04) rotate(3.52) scale(1.000)">
        <g transform="translate(4.41,-1.14) rotate(8.30) scale(0.980)">
        <g transform="translate(2.75,-2.22) rotate(13.87) scale(0.960)">
        <g transform="translate(0.41,-3.11) rotate(19.64) scale(0.940)" clip-path="url(#clipCircle)">
        <g transform="translate(-2.03,-3.71) rotate(25.00) scale(0.920)">
        <g transform="translate(-3.97,-3.99) rotate(29.35) scale(0.900)">
        <g transform="translate(-4.94,-3.91) rotate(32.11) scale(0.880)">
        <path d="M0.0,-70.5 L20.7,-28.5 L67.1,-21.8 L33.5,10.9 L41.5,57.1 L0.0,35.3 L-41.5,57.1 L-33.5,10.9 L-67.1,-21.8 L-20.7,-28.5Z" fill="url(#lgrad0)" filter="url(#blur0)" opacity="0.78"/>
      </g>
      </g>
      </g>
      </g>
      </g>
      </g>
      </g>
  </g>
  <g transform="translate(346.5, 84.1)">
      <g transform="translate(2.75,-3.34) rotate(3.52) scale(1.000)">
        <g transform="translate(0.41,-3.84) rotate(8.30) scale(0.980)">
        <g transform="translate(-2.03,-4.00) rotate(13.87) scale(0.960)">
        <g transform="translate(-3.97,-3.80) rotate(19.64) scale(0.940)">
        <g transform="translate(-4.94,-3.26) rotate(25.00) scale(0.920)">
        <g transform="translate(-4.70,-2.43) rotate(29.35) scale(0.900)" mask="url(#maskCircleFade)">
        <g transform="translate(-3.31,-1.38) rotate(32.11) scale(0.880)">
        <rect x="-37.3" y="-37.3" width="74.7" height="74.7" rx="18.7" fill="url(#rgrad1)" filter="url(#shadow)" opacity="0.85"/>
        <circle cx="0" cy="0" r="24.9" fill="url(#rgrad2)" opacity="0.60"/>
      </g>
      </g>
      </g>
      </g>
      </g>
      </g>
      </g>
  </g>
  <g transform="translate(556.5, 75.4)">
      <g transform="translate(-2.03,-3.66) rotate(3.52) scale(1.000)">
        <g transform="translate(-3.97,-3.01) rotate(8.30) scale(0.980)">
        <g transform="translate(-4.94,-2.10) rotate(13.87) scale(0.960)">
        <g transform="translate(-4.70,-1.00) rotate(19.64) scale(0.940)">
        <g transform="translate(-3.31,0.19) rotate(25.00) scale(0.920)">
        <g transform="translate(-1.11,1.36) rotate(29.35) scale(0.900)">
        <g transform="translate(1.37,2.41) rotate(32.11) scale(0.880)">
        <path d="M33.9,19.6 L0.0,39.2 L-33.9,19.6 L-33.9,-19.6 L-0.0,-39.2 L33.9,-19.6Z" fill="url(#rgrad2)" filter="url(#blur2)" opacity="0.89"/>
        <ellipse cx="0" cy="0" rx="16.3" ry="10.9" fill="#FFFFFF" opacity="0.45"/>
      </g>
      </g>
      </g>
      </g>
      </g>
      </g>
      </g>
  </g>
  <g transform="translate(762.5, 78.3)">
      <g transform="translate(-4.94,-0.61) rotate(3.52) scale(1.000)">
        <g transform="translate(-4.70,0.59) rotate(8.30) scale(0.980)">
        <g transform="translate(-3.31,1.73) rotate(13.87) scale(0.960)">
        <g transform="translate(-1.11,2.72) rotate(19.64) scale(0.940)" clip-path="url(#clipRect)">
        <g transform="translate(1.37,3.46) rotate(25.00) scale(0.920)">
        <g transform="translate(3.50,3.90) rotate(29.35) scale(0.900)">
        <g transform="translate(4.79,3.99) rotate(32.11) scale(0.880)">
        <circle cx="0" cy="0" r="25.5" fill="url(#lgrad3)" filter="url(#shadow)" opacity="0.90"/>
        <text x="0" y="5" text-anchor="middle" font-family="Arial, sans-serif" font-size="14" fill="#FFFFFF" opacity="0.90">249</text>
      </g>
      </g>
      </g>
      </g>
      </g>
      </g>
      </g>
  </g>
  <g transform="translate(967.8, 91.4)">
      <g transform="translate(-3.31,3.00) rotate(3.52) scale(1.000)">
        <g transform="translate(-1.11,3.65) rotate(8.30) scale(0.980)">
        <g transform="translate(1.37,3.97) rotate(13.87) scale(0.960)">
        <g transform="translate(3.50,3.94) rotate(19.64) scale(0.940)">
        <g transform="translate(4.79,3.55) rotate(25.00) scale(0.920)">
        <g transform="translate(4.89,2.85) rotate(29.35) scale(0.900)" mask="url(#maskGradient)">
        <g transform="translate(3.81,1.90) rotate(32.11) scale(0.880)">
        <path d="M0.0,-45.0 L13.2,-18.2 L42.8,-13.9 L21.4,7.0 L26.5,36.4 L0.0,22.5 L-26.5,36.4 L-21.4,7.0 L-42.8,-13.9 L-13.2,-18.2Z" fill="url(#rgrad4)" filter="url(#blur4)" opacity="0.87"/>
      </g>
      </g>
      </g>
      </g>
      </g>
      </g>
      </g>
  </g>
  <g transform="translate(1176.2, 108.5)">
      <g transform="translate(1.37,3.85) rotate(3.52) scale(1.000)">
        <g transform="translate(3.50,3.35) rotate(8.30) scale(0.980)">
        <g transform="translate(4.79,2.56) rotate(13.87) scale(0.960)">
        <g transform="translate(4.89,1.54) rotate(19.64) scale(0.940)">
        <g transform="translate(3.81,0.38) rotate(25.00) scale(0.920)">
        <g transform="translate(1.78,-0.82) rotate(29.35) scale(0.900)">
        <g transform="translate(-0.67,-1.94) rotate(32.11) scale(0.880)">
        <rect x="-26.4" y="-26.4" width="52.8" height="52.8" rx="13.2" fill="url(#rgrad0)" filter="url(#shadow)" opacity="0.80"/>
        <circle cx="0" cy="0" r="17.6" fill="url(#rgrad1)" opacity="0.56"/>
      </g>
      </g>
      </g>
      </g>
      </g>
      </g>
      </g>
  </g>
  <g transform="translate(1390.3, 121.7)">
      <g transform="translate(4.79,1.16) rotate(3.52) scale(1.000)">
        <g transform="translate(4.89,-0.02) rotate(8.30) scale(0.980)">
        <g transform="translate(3.81,-1.20) rotate(13.87) scale(0.960)">
        <g transform="translate(1.78,-2.28) rotate(19.64) scale(0.940)" clip-path="url(#clipStar)">
        <g transform="translate(-0.67,-3.15) rotate(25.00) scale(0.920)">
        <g transform="translate(-2.97,-3.74) rotate(29.35) scale(0.900)">
        <g transform="translate(-4.53,-3.99) rotate(32.11) scale(0.880)">
        <path d="M34.9,20.1 L0.0,40.3 L-34.9,20.1 L-34.9,-20.1 L-0.0,-40.3 L34.9,-20.1Z" fill="url(#lgrad1)" filter="url(#blur1)" opacity="0.71"/>
        <ellipse cx="0" cy="0" rx="16.8" ry="11.2" fill="#FFFFFF" opacity="0.36"/>
      </g>
      </g>
      </g>
      </g>
      </g>
      </g>
      </g>
  </g>
  <g transform="translate(1611.8, 124.6)">
      <g transform="translate(3.81,-2.59) rotate(3.52) scale(1.000)">
        <g transform="translate(1.78,-3.38) rotate(8.30) scale(0.980)">
        <g transform="translate(-0.67,-3.86) rotate(13.87) scale(0.960)">
        <g transform="translate(-2.97,-4.00) rotate(19.64) scale(0.940)">
        <g transform="translate(-4.53,-3.78) rotate(25.00) scale(0.920)">
        <g transform="translate(-4.99,-3.22) rotate(29.35) scale(0.900)" mask="url(#maskDynamic)">
        <g transform="translate(-4.23,-2.38) rotate(32.11) scale(0.880)">
        <circle cx="0" cy="0" r="37.5" fill="url(#rgrad2)" filter="url(#shadow)" opacity="0.60"/>
        <text x="0" y="5" text-anchor="middle" font-family="Arial, sans-serif" font-size="14" fill="#FFFFFF" opacity="0.60">249</text>
      </g>
      </g>
      </g>
      </g>
      </g>
      </g>
      </g>
  </g>
  <g transform="translate(80.1, 396.0)">
      <g transform="translate(-0.67,-3.96) rotate(3.52) scale(1.000)">
        <g transform="translate(-2.97,-3.63) rotate(8.30) scale(0.980)">
        <g transform="translate(-4.53,-2.97) rotate(13.87) scale(0.960)">
        <g transform="translate(-4.99,-2.04) rotate(19.64) scale(0.940)">
        <g transform="translate(-4.23,-0.93) rotate(25.00) scale(0.920)">
        <g transform="translate(-2.43,0.26) rotate(29.35) scale(0.900)">
        <g transform="translate(-0.03,1.42) rotate(32.11) scale(0.880)">
        <path d="M0.0,-69.0 L20.3,-27.9 L65.6,-21.3 L32.8,10.7 L40.6,55.8 L0.0,34.5 L-40.6,55.8 L-32.8,10.7 L-65.6,-21.3 L-20.3,-27.9Z" fill="url(#rgrad3)" filter="url(#blur3)" opacity="0.48"/>
      </g>
      </g>
      </g>
      </g>
      </g>
      </g>
      </g>
  </g>
  <g transform="translate(313.4, 379.9)">
      <g transform="translate(-4.53,-1.69) rotate(3.52) scale(1.000)">
        <g transform="translate(-4.99,-0.54) rotate(8.30) scale(0.980)">
        <g transform="translate(-4.23,0.65) rotate(13.87) scale(0.960)">
        <g transform="translate(-2.43,1.79) rotate(19.64) scale(0.940)" clip-path="url(#clipDynamic)">
        <g transform="translate(-0.03,2.77) rotate(25.00) scale(0.920)">
        <g transform="translate(2.37,3.50) rotate(29.35) scale(0.900)">
        <g transform="translate(4.19,3.91) rotate(32.11) scale(0.880)">
        <rect x="-27.4" y="-27.4" width="54.8" height="54.8" rx="13.7" fill="url(#lgrad4)" filter="url(#shadow)" opacity="0.37"/>
        <circle cx="0" cy="0" r="18.3" fill="url(#rgrad0)" opacity="0.26"/>
      </g>
      </g>
      </g>
      </g>
      </g>
      </g>
      </g>
  </g>
  <g transform="translate(548.2, 363.8)">
      <g transform="translate(-4.23,2.14) rotate(3.52) scale(1.000)">
        <g transform="translate(-2.43,3.04) rotate(8.30) scale(0.980)">
        <g transform="translate(-0.03,3.67) rotate(13.87) scale(0.960)">
        <g transform="translate(2.37,3.98) rotate(19.64) scale(0.940)">
        <g transform="translate(4.19,3.93) rotate(25.00) scale(0.920)">
        <g transform="translate(4.99,3.52) rotate(29.35) scale(0.900)" mask="url(#maskStripes)">
        <g transform="translate(4.56,2.81) rotate(32.11) scale(0.880)">
        <path d="M23.6,13.6 L0.0,27.2 L-23.6,13.6 L-23.6,-13.6 L-0.0,-27.2 L23.6,-13.6Z" fill="url(#rgrad0)" filter="url(#blur0)" opacity="0.26"/>
        <ellipse cx="0" cy="0" rx="11.3" ry="7.6" fill="#FFFFFF" opacity="0.13"/>
      </g>
      </g>
      </g>
      </g>
      </g>
      </g>
      </g>
  </g>
  <g transform="translate(781.0, 355.3)">
      <g transform="translate(-0.03,4.00) rotate(3.52) scale(1.000)">
        <g transform="translate(2.37,3.83) rotate(8.30) scale(0.980)">
        <g transform="translate(4.19,3.32) rotate(13.87) scale(0.960)">
        <g transform="translate(4.99,2.51) rotate(19.64) scale(0.940)">
        <g transform="translate(4.56,1.47) rotate(25.00) scale(0.920)">
        <g transform="translate(3.02,0.31) rotate(29.35) scale(0.900)">
        <g transform="translate(0.74,-0.88) rotate(32.11) scale(0.880)">
        <circle cx="0" cy="0" r="24.7" fill="url(#rgrad1)" filter="url(#shadow)" opacity="0.18"/>
        <text x="0" y="5" text-anchor="middle" font-family="Arial, sans-serif" font-size="14" fill="#FFFFFF" opacity="0.18">249</text>
      </g>
      </g>
      </g>
      </g>
      </g>
      </g>
      </g>
  </g>
  <g transform="translate(1008.7, 358.5)">
      <g transform="translate(4.19,2.18) rotate(3.52) scale(1.000)">
        <g transform="translate(4.99,1.10) rotate(8.30) scale(0.980)">
        <g transform="translate(4.56,-0.09) rotate(13.87) scale(0.960)">
        <g transform="translate(3.02,-1.27) rotate(19.64) scale(0.940)" clip-path="url(#clipHex)">
        <g transform="translate(0.74,-2.33) rotate(25.00) scale(0.920)">
        <g transform="translate(-1.72,-3.19) rotate(29.35) scale(0.900)">
        <g transform="translate(-3.76,-3.76) rotate(32.11) scale(0.880)">
        <path d="M0.0,-63.2 L18.6,-25.6 L60.1,-19.5 L30.0,9.8 L37.1,51.1 L0.0,31.6 L-37.1,51.1 L-30.0,9.8 L-60.1,-19.5 L-18.6,-25.6Z" fill="url(#lgrad2)" filter="url(#blur2)" opacity="0.12"/>
      </g>
      </g>
      </g>
      </g>
      </g>
      </g>
      </g>
  </g>
  <g transform="translate(1229.4, 371.8)">
      <g transform="translate(4.56,-1.64) rotate(3.52) scale(1.000)">
        <g transform="translate(3.02,-2.65) rotate(8.30) scale(0.980)">
        <g transform="translate(0.74,-3.41) rotate(13.87) scale(0.960)">
        <g transform="translate(-1.72,-3.88) rotate(19.64) scale(0.940)">
        <g transform="translate(-3.76,-3.99) rotate(25.00) scale(0.920)">
        <g transform="translate(-4.88,-3.75) rotate(29.35) scale(0.900)" mask="url(#maskCircleFade)">
        <g transform="translate(-4.80,-3.18) rotate(32.11) scale(0.880)">
        <rect x="-37.0" y="-37.0" width="74.1" height="74.1" rx="18.5" fill="url(#rgrad3)" filter="url(#shadow)" opacity="0.10"/>
        <circle cx="0" cy="0" r="24.7" fill="url(#rgrad4)" opacity="0.07"/>
      </g>
      </g>
      </g>
      </g>
      </g>
      </g>
      </g>
  </g>
  <g transform="translate(1442.8, 388.9)">
      <g transform="translate(0.74,-3.96) rotate(3.52) scale(1.000)">
        <g transform="translate(-1.72,-3.95) rotate(8.30) scale(0.980)">
        <g transform="translate(-3.76,-3.60) rotate(13.87) scale(0.960)">
        <g transform="translate(-4.88,-2.92) rotate(19.64) scale(0.940)">
        <g transform="translate(-4.80,-1.98) rotate(25.00) scale(0.920)">
        <g transform="translate(-3.55,-0.87) rotate(29.35) scale(0.900)">
        <g transform="translate(-1.43,0.32) rotate(32.11) scale(0.880)">
        <path d="M37.4,21.6 L0.0,43.2 L-37.4,21.6 L-37.4,-21.6 L-0.0,-43.2 L37.4,-21.6Z" fill="url(#rgrad4)" filter="url(#blur4)" opacity="0.11"/>
        <ellipse cx="0" cy="0" rx="18.0" ry="12.0" fill="#FFFFFF" opacity="0.06"/>
      </g>
      </g>
      </g>
      </g>
      </g>
      </g>
      </g>
  </g>
  <g transform="translate(1650.7, 401.9)">
      <g transform="translate(-3.76,-2.63) rotate(3.52) scale(1.000)">
        <g transform="translate(-4.88,-1.63) rotate(8.30) scale(0.980)">
        <g transform="translate(-4.80,-0.47) rotate(13.87) scale(0.960)">
        <g transform="translate(-3.55,0.72) rotate(19.64) scale(0.940)" clip-path="url(#clipCircle)">
        <g transform="translate(-1.43,1.85) rotate(25.00) scale(0.920)">
        <g transform="translate(1.04,2.82) rotate(29.35) scale(0.900)">
        <g transform="translate(3.26,3.53) rotate(32.11) scale(0.880)">
        <circle cx="0" cy="0" r="29.5" fill="url(#lgrad0)" filter="url(#shadow)" opacity="0.16"/>
        <text x="0" y="5" text-anchor="middle" font-family="Arial, sans-serif" font-size="14" fill="#FFFFFF" opacity="0.16">249</text>
      </g>
      </g>
      </g>
      </g>
      </g>
      </g>
      </g>
  </g>
  <g transform="translate(96.0, 684.5)">
      <g transform="translate(-4.80,1.11) rotate(3.52) scale(1.000)">
        <g transform="translate(-3.55,2.20) rotate(8.30) scale(0.980)">
        <g transform="translate(-1.43,3.09) rotate(13.87) scale(0.960)">
        <g transform="translate(1.04,3.70) rotate(19.64) scale(0.940)">
        <g transform="translate(3.26,3.98) rotate(25.00) scale(0.920)">
        <g transform="translate(4.68,3.91) rotate(29.35) scale(0.900)" mask="url(#maskGradient)">
        <g transform="translate(4.95,3.49) rotate(32.11) scale(0.880)">
        <path d="M0.0,-46.8 L13.8,-18.9 L44.5,-14.5 L22.3,7.2 L27.5,37.9 L0.0,23.4 L-27.5,37.9 L-22.3,7.2 L-44.5,-14.5 L-13.8,-18.9Z" fill="url(#rgrad1)" filter="url(#blur1)" opacity="0.24"/>
      </g>
      </g>
      </g>
      </g>
      </g>
      </g>
      </g>
  </g>
  <g transform="translate(302.2, 675.7)">
      <g transform="translate(-1.43,3.83) rotate(3.52) scale(1.000)">
        <g transform="translate(1.04,4.00) rotate(8.30) scale(0.980)">
        <g transform="translate(3.26,3.81) rotate(13.87) scale(0.960)">
        <g transform="translate(4.68,3.28) rotate(19.64) scale(0.940)">
        <g transform="translate(4.95,2.45) rotate(25.00) scale(0.920)">
        <g transform="translate(4.01,1.41) rotate(29.35) scale(0.900)">
        <g transform="translate(2.09,0.24) rotate(32.11) scale(0.880)">
        <rect x="-23.4" y="-23.4" width="46.8" height="46.8" rx="11.7" fill="url(#rgrad2)" filter="url(#shadow)" opacity="0.34"/>
        <circle cx="0" cy="0" r="15.6" fill="url(#rgrad3)" opacity="0.24"/>
      </g>
      </g>
      </g>
      </g>
      </g>
      </g>
      </g>
  </g>
  <g transform="translate(512.8, 659.4)">
      <g transform="translate(3.26,3.03) rotate(3.52) scale(1.000)">
        <g transform="translate(4.68,2.13) rotate(8.30) scale(0.980)">
        <g transform="translate(4.95,1.03) rotate(13.87) scale(0.960)">
        <g transform="translate(4.01,-0.16) rotate(19.64) scale(0.940)" clip-path="url(#clipRect)">
        <g transform="translate(2.09,-1.33) rotate(25.00) scale(0.920)">
        <g transform="translate(-0.34,-2.39) rotate(29.35) scale(0.900)">
        <g transform="translate(-2.69,-3.23) rotate(32.11) scale(0.880)">
        <path d="M30.6,17.7 L0.0,35.4 L-30.6,17.7 L-30.6,-17.7 L-0.0,-35.4 L30.6,-17.7Z" fill="url(#lgrad3)" filter="url(#blur3)" opacity="0.46"/>
        <ellipse cx="0" cy="0" rx="14.7" ry="9.8" fill="#FFFFFF" opacity="0.23"/>
      </g>
      </g>
      </g>
      </g>
      </g>
      </g>
      </g>
  </g>
  <g transform="translate(730.1, 643.5)">
      <g transform="translate(4.95,-0.56) rotate(3.52) scale(1.000)">
        <g transform="translate(4.01,-1.70) rotate(8.30) scale(0.980)">
        <g transform="translate(2.09,-2.70) rotate(13.87) scale(0.960)">
        <g transform="translate(-0.34,-3.45) rotate(19.64) scale(0.940)">
        <g transform="translate(-2.69,-3.89) rotate(25.00) scale(0.920)">
        <g transform="translate(-4.38,-3.99) rotate(29.35) scale(0.900)" mask="url(#maskDynamic)">
        <g transform="translate(-5.00,-3.73) rotate(32.11) scale(0.880)">
        <circle cx="0" cy="0" r="36.0" fill="url(#rgrad4)" filter="url(#shadow)" opacity="0.58"/>
        <text x="0" y="5" text-anchor="middle" font-family="Arial, sans-serif" font-size="14" fill="#FFFFFF" opacity="0.58">249</text>
      </g>
      </g>
      </g>
      </g>
      </g>
      </g>
      </g>
  </g>
  <g transform="translate(954.6, 635.3)">
      <g transform="translate(2.09,-3.63) rotate(3.52) scale(1.000)">
        <g transform="translate(-0.34,-3.97) rotate(8.30) scale(0.980)">
        <g transform="translate(-2.69,-3.94) rotate(13.87) scale(0.960)">
        <g transform="translate(-4.38,-3.57) rotate(19.64) scale(0.940)">
        <g transform="translate(-5.00,-2.88) rotate(25.00) scale(0.920)">
        <g transform="translate(-4.39,-1.93) rotate(29.35) scale(0.900)">
        <g transform="translate(-2.71,-0.80) rotate(32.11) scale(0.880)">
        <path d="M0.0,-74.0 L21.8,-30.0 L70.4,-22.9 L35.2,11.4 L43.5,59.9 L0.0,37.0 L-43.5,59.9 L-35.2,11.4 L-70.4,-22.9 L-21.8,-30.0Z" fill="url(#rgrad0)" filter="url(#blur0)" opacity="0.69"/>
      </g>
      </g>
      </g>
      </g>
      </g>
      </g>
      </g>
  </g>
  <g transform="translate(1185.4, 638.7)">
      <g transform="translate(-2.69,-3.37) rotate(3.52) scale(1.000)">
        <g transform="translate(-4.38,-2.58) rotate(8.30) scale(0.980)">
        <g transform="translate(-5.00,-1.57) rotate(13.87) scale(0.960)">
        <g transform="translate(-4.39,-0.41) rotate(19.64) scale(0.940)" clip-path="url(#clipStar)">
        <g transform="translate(-2.71,0.79) rotate(25.00) scale(0.920)">
        <g transform="translate(-0.36,1.91) rotate(29.35) scale(0.900)">
        <g transform="translate(2.07,2.86) rotate(32.11) scale(0.880)">
        <rect x="-31.6" y="-31.6" width="63.1" height="63.1" rx="15.8" fill="url(#lgrad1)" filter="url(#shadow)" opacity="0.79"/>
        <circle cx="0" cy="0" r="21.0" fill="url(#rgrad2)" opacity="0.55"/>
      </g>
      </g>
      </g>
      </g>
      </g>
      </g>
      </g>
  </g>
  <g transform="translate(1419.8, 652.2)">
      <g transform="translate(-5.00,-0.01) rotate(3.52) scale(1.000)">
        <g transform="translate(-4.39,1.17) rotate(8.30) scale(0.980)">
        <g transform="translate(-2.71,2.25) rotate(13.87) scale(0.960)">
        <g transform="translate(-0.36,3.13) rotate(19.64) scale(0.940)">
        <g transform="translate(2.07,3.73) rotate(25.00) scale(0.920)">
        <g transform="translate(4.00,3.99) rotate(29.35) scale(0.900)" mask="url(#maskStripes)">
        <g transform="translate(4.95,3.90) rotate(32.11) scale(0.880)">
        <path d="M25.6,14.8 L0.0,29.6 L-25.6,14.8 L-25.6,-14.8 L-0.0,-29.6 L25.6,-14.8Z" fill="url(#rgrad2)" filter="url(#blur2)" opacity="0.86"/>
        <ellipse cx="0" cy="0" rx="12.3" ry="8.2" fill="#FFFFFF" opacity="0.43"/>
      </g>
      </g>
      </g>
      </g>
      </g>
      </g>
      </g>
  </g>
  <g transform="translate(1654.2, 669.3)">
      <g transform="translate(-2.71,3.36) rotate(3.52) scale(1.000)">
        <g transform="translate(-0.36,3.85) rotate(8.30) scale(0.980)">
        <g transform="translate(2.07,4.00) rotate(13.87) scale(0.960)">
        <g transform="translate(4.00,3.79) rotate(19.64) scale(0.940)">
        <g transform="translate(4.95,3.24) rotate(25.00) scale(0.920)">
        <g transform="translate(4.69,2.40) rotate(29.35) scale(0.900)">
        <g transform="translate(3.28,1.35) rotate(32.11) scale(0.880)">
        <circle cx="0" cy="0" r="22.7" fill="url(#rgrad3)" filter="url(#shadow)" opacity="0.89"/>
        <text x="0" y="5" text-anchor="middle" font-family="Arial, sans-serif" font-size="14" fill="#FFFFFF" opacity="0.89">249</text>
      </g>
      </g>
      </g>
      </g>
      </g>
      </g>
      </g>
  </g>
  <g transform="translate(125.1, 962.1)">
      <g transform="translate(2.07,3.64) rotate(3.52) scale(1.000)">
        <g transform="translate(4.00,2.99) rotate(8.30) scale(0.980)">
        <g transform="translate(4.95,2.07) rotate(13.87) scale(0.960)">
        <g transform="translate(4.69,0.97) rotate(19.64) scale(0.940)" clip-path="url(#clipDynamic)">
        <g transform="translate(3.28,-0.22) rotate(25.00) scale(0.920)">
        <g transform="translate(1.06,-1.40) rotate(29.35) scale(0.900)">
        <g transform="translate(-1.41,-2.44) rotate(32.11) scale(0.880)">
        <path d="M0.0,-54.8 L16.1,-22.2 L52.1,-16.9 L26.1,8.5 L32.2,44.3 L0.0,27.4 L-32.2,44.3 L-26.1,8.5 L-52.1,-16.9 L-16.1,-22.2Z" fill="url(#lgrad4)" filter="url(#blur4)" opacity="0.90"/>
      </g>
      </g>
      </g>
      </g>
      </g>
      </g>
      </g>
  </g>
  <g transform="translate(400.0, 300.9)" mask="url(#maskGradient)">
    <ellipse cx="0" cy="0" rx="200" ry="150" fill="url(#rgrad0)" filter="url(#blur3)" opacity="0.3"/>
  </g>
  <g transform="translate(855.0, 249.1)" mask="url(#maskCircleFade)">
    <ellipse cx="0" cy="0" rx="200" ry="150" fill="url(#rgrad1)" filter="url(#blur3)" opacity="0.3"/>
  </g>
  <g transform="translate(1259.4, 221.3)" mask="url(#maskStripes)">
    <ellipse cx="0" cy="0" rx="200" ry="150" fill="url(#rgrad2)" filter="url(#blur3)" opacity="0.3"/>
  </g>
</svg>