<?xml version="1.0" encoding="UTF-8"?>
<svg xmlns="http://www.w3.org/2000/svg" viewBox="0 0 1920 1080" width="1920" height="1080">
  <defs>
    <filter id="blur0" x="-50%" y="-50%" width="200%" height="200%">
      <feGaussianBlur in="SourceGraphic" stdDeviation="1"/>
    </filter>
    <filter id="blur1" x="-50%" y="-50%" width="200%" height="200%">
      <feGaussianBlur in="SourceGraphic" stdDeviation="3"/>
    </filter>
    <filter id="blur2" x="-50%" y="-50%" width="200%" height="200%">
      <feGaussianBlur in="SourceGraphic" stdDeviation="5"/>
    </filter>
    <filter id="blur3" x="-50%" y="-50%" width="200%" height="200%">
      <feGaussianBlur in="SourceGraphic" stdDeviation="7"/>
    </filter>
    <filter id="blur4" x="-50%" y="-50%" width="200%" height="200%">
      <feGaussianBlur in="SourceGraphic" stdDeviation="9"/>
    </filter>
    <filter id="shadow" x="-50%" y="-50%" width="200%" height="200%">
      <feGaussianBlur in="SourceAlpha" stdDeviation="3" result="blur"/>
      <feOffset in="blur" dx="4" dy="4" result="offsetBlur"/>
      <feMerge>
        <feMergeNode in="offsetBlur"/>
        <feMergeNode in="SourceGraphic"/>
      </feMerge>
    </filter>
    <linearGradient id="lgrad0" x1="0%" y1="0%" x2="46.5%" y2="99.9%">
      <stop offset="0%" stop-color="#FF6B6B"/>
      <stop offset="33%" stop-color="#4ECDC4"/>
      <stop offset="66%" stop-color="#45B7D1"/>
      <stop offset="100%" stop-color="#96E6A1"/>
    </linearGradient>
    <linearGradient id="lgrad1" x1="0%" y1="0%" x2="22.0%" y2="91.5%">
      <stop offset="0%" stop-color="#FFE66D"/>
      <stop offset="33%" stop-color="#FF6B6B"/>
      <stop offset="66%" stop-color="#C44D58"/>
      <stop offset="100%" stop-color="#8B0000"/>
    </linearGradient>
    <linearGradient id="lgrad2" x1="0%" y1="0%" x2="5.1%" y2="71.9%">
      <stop offset="0%" stop-color="#4169E1"/>
      <stop offset="33%" stop-color="#7B68EE"/>
      <stop offset="66%" stop-color="#9370DB"/>
      <stop offset="100%" stop-color="#FFD700"/>
    </linearGradient>
    <linearGradient id="lgrad3" x1="0%" y1="0%" x2="0.1%" y2="46.5%">
      <stop offset="0%" stop-color="#32CD32"/>
      <stop offset="33%" stop-color="#228B22"/>
      <stop offset="66%" stop-color="#006400"/>
      <stop offset="100%" stop-color="#ADFF2F"/>
    </linearGradient>
    <linearGradient id="lgrad4" x1="0%" y1="0%" x2="8.5%" y2="22.0%">
      <stop offset="0%" stop-color="#FF1493"/>
      <stop offset="33%" stop-color="#FF69B4"/>
      <stop offset="66%" stop-color="#FFB6C1"/>
      <stop offset="100%" stop-color="#FFC0CB"/>
    </linearGradient>
    <radialGradient id="rgrad0" cx="35.4%" cy="33.6%" r="60%">
      <stop offset="0%" stop-color="#FF6B6B" stop-opacity="1"/>
      <stop offset="50%" stop-color="#4ECDC4" stop-opacity="0.8"/>
      <stop offset="100%" stop-color="#45B7D1" stop-opacity="0.6"/>
    </radialGradient>
    <radialGradient id="rgrad1" cx="45.4%" cy="41.6%" r="60%">
      <stop offset="0%" stop-color="#FFE66D" stop-opacity="1"/>
      <stop offset="50%" stop-color="#FF6B6B" stop-opacity="0.8"/>
      <stop offset="100%" stop-color="#C44D58" stop-opacity="0.6"/>
    </radialGradient>
    <radialGradient id="rgrad2" cx="55.4%" cy="49.6%" r="60%">
      <stop offset="0%" stop-color="#4169E1" stop-opacity="1"/>
      <stop offset="50%" stop-color="#7B68EE" stop-opacity="0.8"/>
      <stop offset="100%" stop-color="#9370DB" stop-opacity="0.6"/>
    </radialGradient>
    <radialGradient id="rgrad3" cx="65.4%" cy="57.6%" r="60%">
      <stop offset="0%" stop-color="#32CD32" stop-opacity="1"/>
      <stop offset="50%" stop-color="#228B22" stop-opacity="0.8"/>
      <stop offset="100%" stop-color="#006400" stop-opacity="0.6"/>
    </radialGradient>
    <radialGradient id="rgrad4" cx="35.4%" cy="65.6%" r="60%">
      <stop offset="0%" stop-color="#FF1493" stop-opacity="1"/>
      <stop offset="50%" stop-color="#FF69B4" stop-opacity="0.8"/>
      <stop offset="100%" stop-color="#FFB6C1" stop-opacity="0.6"/>
    </radialGradient>
    <clipPath id="clipCircle">
      <circle cx="0" cy="0" r="50"/>
    </clipPath>
    <clipPath id="clipStar">
      <path d="M0.0,-50.0 L14.7,-20.2 L47.6,-15.5 L23.8,7.7 L29.4,40.5 L0.0,25.0 L-29.4,40.5 L-23.8,7.7 L-47.6,-15.5 L-14.7,-20.2Z"/>
    </clipPath>
    <clipPath id="clipHex">
      <path d="M39.0,22.5 L0.0,45.0 L-39.0,22.5 L-39.0,-22.5 L-0.0,-45.0 L39.0,-22.5Z"/>
    </clipPath>
    <clipPath id="clipRect">
      <rect x="-40" y="-30" width="80" height="60" rx="10"/>
    </clipPath>
    <clipPath id="clipDynamic">
      <circle cx="0" cy="0" r="21.3"/>
    </clipPath>
    <mask id="maskGradient" maskContentUnits="objectBoundingBox">
      <rect x="0" y="0" width="1" height="1" fill="url(#maskGrad)"/>
    </mask>
    <linearGradient id="maskGrad" x1="0%" y1="0%" x2="100%" y2="100%">
      <stop offset="0%" stop-color="white"/>
      <stop offset="100%" stop-color="black"/>
    </linearGradient>
    <mask id="maskCircleFade">
      <circle cx="0" cy="0" r="60" fill="white"/>
      <circle cx="0" cy="0" r="30" fill="black"/>
    </mask>
    <mask id="maskStripes">
      <rect x="-50" y="-50" width="100" height="100" fill="white"/>
      <rect x="-50" y="-40" width="100" height="10" fill="black"/>
      <rect x="-50" y="-20" width="100" height="10" fill="black"/>
      <rect x="-50" y="0" width="100" height="10" fill="black"/>
      <rect x="-50" y="20" width="100" height="10" fill="black"/>
      <rect x="-50" y="40" width="100" height="10" fill="black"/>
    </mask>
    <mask id="maskDynamic">
      <rect x="-60" y="-60" width="120" height="120" fill="white" fill-opacity="0.68"/>
      <circle cx="0" cy="0" r="25" fill="white"/>
    </mask>
  </defs>
  <rect width="1920" height="1080" fill="url(#lgrad0)"/>
  <g transform="translate(72.7, 110.3)">
      <g transform="translate(-4.55,1.65) rotate(2.71) scale(1.000)">
        <g transform="translate(-3.00,2.66) rotate(3.64) scale(0.980)">
        <g transform="translate(-0.72,3.42) rotate(2.57) scale(0.960)">
        <g transform="translate(1.74,3.88) rotate(-0.55) scale(0.940)" clip-path="url(#clipCircle)">
        <g transform="translate(3.77,3.99) rotate(-5.64) scale(0.920)">
        <g transform="translate(4.88,3.75) rotate(-12.44) scale(0.900)">
        <g transform="translate(4.80,3.17) rotate(-20.55) scale(0.880)">
        <path d="M0.0,-68.1 L20.0,-27.6 L64.8,-21.1 L32.4,10.5 L40.0,55.1 L0.0,34.1 L-40.0,55.1 L-32.4,10.5 L-64.8,-21.1 L-20.0,-27.6Z" fill="url(#lgrad0)" filter="url(#blur0)" opacity="0.72"/>
      </g>
      </g>
      </g>
      </g>
      </g>
      </g>
      </g>
  </g>
  <g transform="translate(302.0, 122.6)">
      <g transform="translate(-0.72,3.96) rotate(2.71) scale(1.000)">
        <g transform="translate(1.74,3.95) rotate(3.64) scale(0.980)">
        <g transform="translate(3.77,3.59) rotate(2.57) scale(0.960)">
        <g transform="translate(4.88,2.91) rotate(-0.55) scale(0.940)">
        <g transform="translate(4.80,1.97) rotate(-5.64) scale(0.920)">
        <g transform="translate(3.54,0.86) rotate(-12.44) scale(0.900)" mask="url(#maskCircleFade)">
        <g transform="translate(1.41,-0.34) rotate(-20.55) scale(0.880)">
        <rect x="-26.9" y="-26.9" width="53.8" height="53.8" rx="13.4" fill="url(#rgrad1)" filter="url(#shadow)" opacity="0.61"/>
        <circle cx="0" cy="0" r="17.9" fill="url(#rgrad2)" opacity="0.43"/>
      </g>
      </g>
      </g>
      </g>
      </g>
      </g>
      </g>
  </g>
  <g transform="translate(535.7, 124.2)">
      <g transform="translate(3.77,2.62) rotate(2.71) scale(1.000)">
        <g transform="translate(4.88,1.61) rotate(3.64) scale(0.980)">
        <g transform="translate(4.80,0.46) rotate(2.57) scale(0.960)">
        <g transform="translate(3.54,-0.73) rotate(-0.55) scale(0.940)">
        <g transform="translate(1.41,-1.86) rotate(-5.64) scale(0.920)">
        <g transform="translate(-1.06,-2.83) rotate(-12.44) scale(0.900)">
        <g transform="translate(-3.27,-3.54) rotate(-20.55) scale(0.880)">
        <path d="M23.5,13.5 L0.0,27.1 L-23.5,13.5 L-23.5,-13.5 L-0.0,-27.1 L23.5,-13.5Z" fill="url(#rgrad2)" filter="url(#blur2)" opacity="0.49"/>
        <ellipse cx="0" cy="0" rx="11.3" ry="7.5" fill="#FFFFFF" opacity="0.24"/>
      </g>
      </g>
      </g>
      </g>
      </g>
      </g>
      </g>
  </g>
  <g transform="translate(770.4, 114.4)">
      <g transform="translate(4.80,-1.12) rotate(2.71) scale(1.000)">
        <g transform="translate(3.54,-2.21) rotate(3.64) scale(0.980)">
        <g transform="translate(1.41,-3.09) rotate(2.57) scale(0.960)">
        <g transform="translate(-1.06,-3.71) rotate(-0.55) scale(0.940)" clip-path="url(#clipRect)">
        <g transform="translate(-3.27,-3.99) rotate(-5.64) scale(0.920)">
        <g transform="translate(-4.68,-3.91) rotate(-12.44) scale(0.900)">
        <g transform="translate(-4.95,-3.48) rotate(-20.55) scale(0.880)">
        <circle cx="0" cy="0" r="25.1" fill="url(#lgrad3)" filter="url(#shadow)" opacity="0.37"/>
        <text x="0" y="5" text-anchor="middle" font-family="Arial, sans-serif" font-size="14" fill="#FFFFFF" opacity="0.37">818</text>
      </g>
      </g>
      </g>
      </g>
      </g>
      </g>
      </g>
  </g>
  <g transform="translate(1002.6, 97.9)">
      <g transform="translate(1.41,-3.84) rotate(2.71) scale(1.000)">
        <g transform="translate(-1.06,-4.00) rotate(3.64) scale(0.980)">
        <g transform="translate(-3.27,-3.80) rotate(2.57) scale(0.960)">
        <g transform="translate(-4.68,-3.27) rotate(-0.55) scale(0.940)">
        <g transform="translate(-4.95,-2.44) rotate(-5.64) scale(0.920)">
        <g transform="translate(-4.00,-1.40) rotate(-12.44) scale(0.900)" mask="url(#maskGradient)">
        <g transform="translate(-2.07,-0.23) rotate(-20.55) scale(0.880)">
        <path d="M0.0,-64.2 L18.9,-26.0 L61.1,-19.8 L30.5,9.9 L37.8,52.0 L0.0,32.1 L-37.8,52.0 L-30.5,9.9 L-61.1,-19.8 L-18.9,-26.0Z" fill="url(#rgrad4)" filter="url(#blur4)" opacity="0.27"/>
      </g>
      </g>
      </g>
      </g>
      </g>
      </g>
      </g>
  </g>
  <g transform="translate(1229.3, 82.3)">
      <g transform="translate(-3.27,-3.02) rotate(2.71) scale(1.000)">
        <g transform="translate(-4.68,-2.11) rotate(3.64) scale(0.980)">
        <g transform="translate(-4.95,-1.02) rotate(2.57) scale(0.960)">
        <g transform="translate(-4.00,0.17) rotate(-0.55) scale(0.940)">
        <g transform="translate(-2.07,1.34) rotate(-5.64) scale(0.920)">
        <g transform="translate(0.36,2.40) rotate(-12.44) scale(0.900)">
        <g transform="translate(2.71,3.24) rotate(-20.55) scale(0.880)">
        <rect x="-37.2" y="-37.2" width="74.4" height="74.4" rx="18.6" fill="url(#rgrad0)" filter="url(#shadow)" opacity="0.18"/>
        <circle cx="0" cy="0" r="24.8" fill="url(#rgrad1)" opacity="0.13"/>
      </g>
      </g>
      </g>
      </g>
      </g>
      </g>
      </g>
  </g>
  <g transform="translate(1448.8, 75.1)">
      <g transform="translate(-4.95,0.57) rotate(2.71) scale(1.000)">
        <g transform="translate(-4.00,1.71) rotate(3.64) scale(0.980)">
        <g transform="translate(-2.07,2.71) rotate(2.57) scale(0.960)">
        <g transform="translate(0.36,3.46) rotate(-0.55) scale(0.940)" clip-path="url(#clipStar)">
        <g transform="translate(2.71,3.90) rotate(-5.64) scale(0.920)">
        <g transform="translate(4.39,3.99) rotate(-12.44) scale(0.900)">
        <g transform="translate(5.00,3.73) rotate(-20.55) scale(0.880)">
        <path d="M37.1,21.4 L0.0,42.8 L-37.1,21.4 L-37.1,-21.4 L-0.0,-42.8 L37.1,-21.4Z" fill="url(#lgrad1)" filter="url(#blur1)" opacity="0.12"/>
        <ellipse cx="0" cy="0" rx="17.8" ry="11.9" fill="#FFFFFF" opacity="0.06"/>
      </g>
      </g>
      </g>
      </g>
      </g>
      </g>
      </g>
  </g>
  <g transform="translate(1661.2, 79.6)">
      <g transform="translate(-2.07,3.64) rotate(2.71) scale(1.000)">
        <g transform="translate(0.36,3.97) rotate(3.64) scale(0.980)">
        <g transform="translate(2.71,3.94) rotate(2.57) scale(0.960)">
        <g transform="translate(4.39,3.56) rotate(-0.55) scale(0.940)">
        <g transform="translate(5.00,2.87) rotate(-5.64) scale(0.920)">
        <g transform="translate(4.38,1.91) rotate(-12.44) scale(0.900)" mask="url(#maskDynamic)">
        <g transform="translate(2.70,0.79) rotate(-20.55) scale(0.880)">
        <circle cx="0" cy="0" r="28.9" fill="url(#rgrad2)" filter="url(#shadow)" opacity="0.10"/>
        <text x="0" y="5" text-anchor="middle" font-family="Arial, sans-serif" font-size="14" fill="#FFFFFF" opacity="0.10">818</text>
      </g>
      </g>
      </g>
      </g>
      </g>
      </g>
      </g>
  </g>
  <g transform="translate(108.5, 373.6)">
      <g transform="translate(2.71,3.36) rotate(2.71) scale(1.000)">
        <g transform="translate(4.39,2.57) rotate(3.64) scale(0.980)">
        <g transform="translate(5.00,1.55) rotate(2.57) scale(0.960)">
        <g transform="translate(4.38,0.39) rotate(-0.55) scale(0.940)">
        <g transform="translate(2.70,-0.80) rotate(-5.64) scale(0.920)">
        <g transform="translate(0.35,-1.92) rotate(-12.44) scale(0.900)">
        <g transform="translate(-2.09,-2.87) rotate(-20.55) scale(0.880)">
        <path d="M0.0,-46.3 L13.6,-18.7 L44.1,-14.3 L22.0,7.2 L27.2,37.5 L0.0,23.2 L-27.2,37.5 L-22.0,7.2 L-44.1,-14.3 L-13.6,-18.7Z" fill="url(#rgrad3)" filter="url(#blur3)" opacity="0.11"/>
      </g>
      </g>
      </g>
      </g>
      </g>
      </g>
      </g>
  </g>
  <g transform="translate(313.6, 390.7)">
      <g transform="translate(5.00,-0.01) rotate(2.71) scale(1.000)">
        <g transform="translate(4.38,-1.19) rotate(3.64) scale(0.980)">
        <g transform="translate(2.70,-2.26) rotate(2.57) scale(0.960)">
        <g transform="translate(0.35,-3.14) rotate(-0.55) scale(0.940)" clip-path="url(#clipDynamic)">
        <g transform="translate(-2.09,-3.73) rotate(-5.64) scale(0.920)">
        <g transform="translate(-4.01,-3.99) rotate(-12.44) scale(0.900)">
        <g transform="translate(-4.95,-3.89) rotate(-20.55) scale(0.880)">
        <rect x="-23.7" y="-23.7" width="47.4" height="47.4" rx="11.9" fill="url(#lgrad4)" filter="url(#shadow)" opacity="0.16"/>
        <circle cx="0" cy="0" r="15.8" fill="url(#rgrad0)" opacity="0.11"/>
      </g>
      </g>
      </g>
      </g>
      </g>
      </g>
      </g>
  </g>
  <g transform="translate(520.4, 402.7)">
      <g transform="translate(2.70,-3.37) rotate(2.71) scale(1.000)">
        <g transform="translate(0.35,-3.86) rotate(3.64) scale(0.980)">
        <g transform="translate(-2.09,-4.00) rotate(2.57) scale(0.960)">
        <g transform="translate(-4.01,-3.78) rotate(-0.55) scale(0.940)">
        <g transform="translate(-4.95,-3.23) rotate(-5.64) scale(0.920)">
        <g transform="translate(-4.68,-2.39) rotate(-12.44) scale(0.900)" mask="url(#maskStripes)">
        <g transform="translate(-3.26,-1.33) rotate(-20.55) scale(0.880)">
        <path d="M31.2,18.0 L0.0,36.0 L-31.2,18.0 L-31.2,-18.0 L-0.0,-36.0 L31.2,-18.0Z" fill="url(#rgrad0)" filter="url(#blur0)" opacity="0.24"/>
        <ellipse cx="0" cy="0" rx="15.0" ry="10.0" fill="#FFFFFF" opacity="0.12"/>
      </g>
      </g>
      </g>
      </g>
      </g>
      </g>
      </g>
  </g>
  <g transform="translate(731.9, 404.1)">
      <g transform="translate(-2.09,-3.63) rotate(2.71) scale(1.000)">
        <g transform="translate(-4.01,-2.98) rotate(3.64) scale(0.980)">
        <g transform="translate(-4.95,-2.06) rotate(2.57) scale(0.960)">
        <g transform="translate(-4.68,-0.95) rotate(-0.55) scale(0.940)">
        <g transform="translate(-3.26,0.24) rotate(-5.64) scale(0.920)">
        <g transform="translate(-1.05,1.41) rotate(-12.44) scale(0.900)">
        <g transform="translate(1.42,2.45) rotate(-20.55) scale(0.880)">
        <circle cx="0" cy="0" r="36.3" fill="url(#rgrad1)" filter="url(#shadow)" opacity="0.34"/>
        <text x="0" y="5" text-anchor="middle" font-family="Arial, sans-serif" font-size="14" fill="#FFFFFF" opacity="0.34">818</text>
      </g>
      </g>
      </g>
      </g>
      </g>
      </g>
      </g>
  </g>
  <g transform="translate(950.3, 394.1)">
      <g transform="translate(-4.95,-0.56) rotate(2.71) scale(1.000)">
        <g transform="translate(-4.68,0.64) rotate(3.64) scale(0.980)">
        <g transform="translate(-3.26,1.77) rotate(2.57) scale(0.960)">
        <g transform="translate(-1.05,2.75) rotate(-0.55) scale(0.940)" clip-path="url(#clipHex)">
        <g transform="translate(1.42,3.49) rotate(-5.64) scale(0.920)">
        <g transform="translate(3.55,3.91) rotate(-12.44) scale(0.900)">
        <g transform="translate(4.80,3.98) rotate(-20.55) scale(0.880)">
        <path d="M0.0,-73.6 L21.6,-29.8 L70.0,-22.8 L35.0,11.4 L43.3,59.6 L0.0,36.8 L-43.3,59.6 L-35.0,11.4 L-70.0,-22.8 L-21.6,-29.8Z" fill="url(#lgrad2)" filter="url(#blur2)" opacity="0.45"/>
      </g>
      </g>
      </g>
      </g>
      </g>
      </g>
      </g>
  </g>
  <g transform="translate(1176.0, 377.5)">
      <g transform="translate(-3.26,3.03) rotate(2.71) scale(1.000)">
        <g transform="translate(-1.05,3.67) rotate(3.64) scale(0.980)">
        <g transform="translate(1.42,3.98) rotate(2.57) scale(0.960)">
        <g transform="translate(3.55,3.93) rotate(-0.55) scale(0.940)">
        <g transform="translate(4.80,3.53) rotate(-5.64) scale(0.920)">
        <g transform="translate(4.88,2.82) rotate(-12.44) scale(0.900)" mask="url(#maskCircleFade)">
        <g transform="translate(3.77,1.85) rotate(-20.55) scale(0.880)">
        <rect x="-31.0" y="-31.0" width="62.1" height="62.1" rx="15.5" fill="url(#rgrad3)" filter="url(#shadow)" opacity="0.57"/>
        <circle cx="0" cy="0" r="20.7" fill="url(#rgrad4)" opacity="0.40"/>
      </g>
      </g>
      </g>
      </g>
      </g>
      </g>
      </g>
  </g>
  <g transform="translate(1407.6, 362.0)">
      <g transform="translate(1.42,3.83) rotate(2.71) scale(1.000)">
        <g transform="translate(3.55,3.33) rotate(3.64) scale(0.980)">
        <g transform="translate(4.80,2.52) rotate(2.57) scale(0.960)">
        <g transform="translate(4.88,1.49) rotate(-0.55) scale(0.940)">
        <g transform="translate(3.77,0.33) rotate(-5.64) scale(0.920)">
        <g transform="translate(1.73,-0.87) rotate(-12.44) scale(0.900)">
        <g transform="translate(-0.73,-1.98) rotate(-20.55) scale(0.880)">
        <path d="M25.3,14.6 L0.0,29.2 L-25.3,14.6 L-25.3,-14.6 L-0.0,-29.2 L25.3,-14.6Z" fill="url(#rgrad4)" filter="url(#blur4)" opacity="0.69"/>
        <ellipse cx="0" cy="0" rx="12.2" ry="8.1" fill="#FFFFFF" opacity="0.34"/>
      </g>
      </g>
      </g>
      </g>
      </g>
      </g>
      </g>
  </g>
  <g transform="translate(1642.2, 355.1)">
      <g transform="translate(4.80,1.11) rotate(2.71) scale(1.000)">
        <g transform="translate(4.88,-0.07) rotate(3.64) scale(0.980)">
        <g transform="translate(3.77,-1.25) rotate(2.57) scale(0.960)">
        <g transform="translate(1.73,-2.32) rotate(-0.55) scale(0.940)" clip-path="url(#clipCircle)">
        <g transform="translate(-0.73,-3.18) rotate(-5.64) scale(0.920)">
        <g transform="translate(-3.02,-3.75) rotate(-12.44) scale(0.900)">
        <g transform="translate(-4.56,-3.99) rotate(-20.55) scale(0.880)">
        <circle cx="0" cy="0" r="22.8" fill="url(#lgrad0)" filter="url(#shadow)" opacity="0.78"/>
        <text x="0" y="5" text-anchor="middle" font-family="Arial, sans-serif" font-size="14" fill="#FFFFFF" opacity="0.78">818</text>
      </g>
      </g>
      </g>
      </g>
      </g>
      </g>
      </g>
  </g>
  <g transform="translate(116.2, 639.8)">
      <g transform="translate(3.77,-2.63) rotate(2.71) scale(1.000)">
        <g transform="translate(1.73,-3.40) rotate(3.64) scale(0.980)">
        <g transform="translate(-0.73,-3.87) rotate(2.57) scale(0.960)">
        <g transform="translate(-3.02,-4.00) rotate(-0.55) scale(0.940)">
        <g transform="translate(-4.56,-3.76) rotate(-5.64) scale(0.920)">
        <g transform="translate(-4.99,-3.19) rotate(-12.44) scale(0.900)" mask="url(#maskGradient)">
        <g transform="translate(-4.19,-2.34) rotate(-20.55) scale(0.880)">
        <path d="M0.0,-55.9 L16.4,-22.6 L53.1,-17.3 L26.6,8.6 L32.8,45.2 L0.0,27.9 L-32.8,45.2 L-26.6,8.6 L-53.1,-17.3 L-16.4,-22.6Z" fill="url(#rgrad1)" filter="url(#blur1)" opacity="0.85"/>
      </g>
      </g>
      </g>
      </g>
      </g>
      </g>
      </g>
  </g>
  <g transform="translate(346.3, 654.1)">
      <g transform="translate(-0.73,-3.96) rotate(2.71) scale(1.000)">
        <g transform="translate(-3.02,-3.61) rotate(3.64) scale(0.980)">
        <g transform="translate(-4.56,-2.93) rotate(2.57) scale(0.960)">
        <g transform="translate(-4.99,-2.00) rotate(-0.55) scale(0.940)">
        <g transform="translate(-4.19,-0.89) rotate(-5.64) scale(0.920)">
        <g transform="translate(-2.37,0.31) rotate(-12.44) scale(0.900)">
        <g transform="translate(0.03,1.47) rotate(-20.55) scale(0.880)">
        <rect x="-34.9" y="-34.9" width="69.9" height="69.9" rx="17.5" fill="url(#rgrad2)" filter="url(#shadow)" opacity="0.89"/>
        <circle cx="0" cy="0" r="23.3" fill="url(#rgrad3)" opacity="0.63"/>
      </g>
      </g>
      </g>
      </g>
      </g>
      </g>
      </g>
  </g>
  <g transform="translate(570.0, 671.1)">
      <g transform="translate(-4.56,-1.64) rotate(2.71) scale(1.000)">
        <g transform="translate(-4.99,-0.49) rotate(3.64) scale(0.980)">
        <g transform="translate(-4.19,0.70) rotate(2.57) scale(0.960)">
        <g transform="translate(-2.37,1.83) rotate(-0.55) scale(0.940)" clip-path="url(#clipRect)">
        <g transform="translate(0.03,2.80) rotate(-5.64) scale(0.920)">
        <g transform="translate(2.42,3.52) rotate(-12.44) scale(0.900)">
        <g transform="translate(4.22,3.92) rotate(-20.55) scale(0.880)">
        <path d="M38.9,22.5 L0.0,44.9 L-38.9,22.5 L-38.9,-22.5 L-0.0,-44.9 L38.9,-22.5Z" fill="url(#lgrad3)" filter="url(#blur3)" opacity="0.90"/>
        <ellipse cx="0" cy="0" rx="18.7" ry="12.5" fill="#FFFFFF" opacity="0.45"/>
      </g>
      </g>
      </g>
      </g>
      </g>
      </g>
      </g>
  </g>
  <g transform="translate(786.3, 682.9)">
      <g transform="translate(-4.19,2.18) rotate(2.71) scale(1.000)">
        <g transform="translate(-2.37,3.07) rotate(3.64) scale(0.980)">
        <g transform="translate(0.03,3.69) rotate(2.57) scale(0.960)">
        <g transform="translate(2.42,3.98) rotate(-0.55) scale(0.940)">
        <g transform="translate(4.22,3.92) rotate(-5.64) scale(0.920)">
        <g transform="translate(4.99,3.50) rotate(-12.44) scale(0.900)" mask="url(#maskDynamic)">
        <g transform="translate(4.53,2.77) rotate(-20.55) scale(0.880)">
        <circle cx="0" cy="0" r="33.1" fill="url(#rgrad4)" filter="url(#shadow)" opacity="0.87"/>
        <text x="0" y="5" text-anchor="middle" font-family="Arial, sans-serif" font-size="14" fill="#FFFFFF" opacity="0.87">818</text>
      </g>
      </g>
      </g>
      </g>
      </g>
      </g>
      </g>
  </g>
  <g transform="translate(996.2, 684.0)">
      <g transform="translate(0.03,4.00) rotate(2.71) scale(1.000)">
        <g transform="translate(2.42,3.81) rotate(3.64) scale(0.980)">
        <g transform="translate(4.22,3.29) rotate(2.57) scale(0.960)">
        <g transform="translate(4.99,2.47) rotate(-0.55) scale(0.940)">
        <g transform="translate(4.53,1.43) rotate(-5.64) scale(0.920)">
        <g transform="translate(2.97,0.26) rotate(-12.44) scale(0.900)">
        <g transform="translate(0.68,-0.93) rotate(-20.55) scale(0.880)">
        <path d="M0.0,-51.8 L15.2,-21.0 L49.3,-16.0 L24.6,8.0 L30.4,41.9 L0.0,25.9 L-30.4,41.9 L-24.6,8.0 L-49.3,-16.0 L-15.2,-21.0Z" fill="url(#rgrad0)" filter="url(#blur0)" opacity="0.80"/>
      </g>
      </g>
      </g>
      </g>
      </g>
      </g>
      </g>
  </g>
  <g transform="translate(1202.1, 673.7)">
      <g transform="translate(4.22,2.14) rotate(2.71) scale(1.000)">
        <g transform="translate(4.99,1.05) rotate(3.64) scale(0.980)">
        <g transform="translate(4.53,-0.14) rotate(2.57) scale(0.960)">
        <g transform="translate(2.97,-1.31) rotate(-0.55) scale(0.940)" clip-path="url(#clipStar)">
        <g transform="translate(0.68,-2.37) rotate(-5.64) scale(0.920)">
        <g transform="translate(-1.78,-3.22) rotate(-12.44) scale(0.900)">
        <g transform="translate(-3.80,-3.78) rotate(-20.55) scale(0.880)">
        <rect x="-22.5" y="-22.5" width="45.0" height="45.0" rx="11.3" fill="url(#lgrad1)" filter="url(#shadow)" opacity="0.71"/>
        <circle cx="0" cy="0" r="15.0" fill="url(#rgrad2)" opacity="0.50"/>
      </g>
      </g>
      </g>
      </g>
      </g>
      </g>
      </g>
  </g>
  <g transform="translate(1407.5, 657.1)">
      <g transform="translate(4.53,-1.69) rotate(2.71) scale(1.000)">
        <g transform="translate(2.97,-2.68) rotate(3.64) scale(0.980)">
        <g transform="translate(0.68,-3.44) rotate(2.57) scale(0.960)">
        <g transform="translate(-1.78,-3.89) rotate(-0.55) scale(0.940)">
        <g transform="translate(-3.80,-3.99) rotate(-5.64) scale(0.920)">
        <g transform="translate(-4.89,-3.74) rotate(-12.44) scale(0.900)" mask="url(#maskStripes)">
        <g transform="translate(-4.79,-3.15) rotate(-20.55) scale(0.880)">
        <path d="M27.0,15.6 L0.0,31.2 L-27.0,15.6 L-27.0,-15.6 L-0.0,-31.2 L27.0,-15.6Z" fill="url(#rgrad2)" filter="url(#blur2)" opacity="0.60"/>
        <ellipse cx="0" cy="0" rx="13.0" ry="8.7" fill="#FFFFFF" opacity="0.30"/>
      </g>
      </g>
      </g>
      </g>
      </g>
      </g>
      </g>
  </g>
  <g transform="translate(1615.9, 641.8)">
      <g transform="translate(0.68,-3.96) rotate(2.71) scale(1.000)">
        <g transform="translate(-1.78,-3.95) rotate(3.64) scale(0.980)">
        <g transform="translate(-3.80,-3.58) rotate(2.57) scale(0.960)">
        <g transform="translate(-4.89,-2.89) rotate(-0.55) scale(0.940)">
        <g transform="translate(-4.79,-1.94) rotate(-5.64) scale(0.920)">
        <g transform="translate(-3.51,-0.82) rotate(-12.44) scale(0.900)">
        <g transform="translate(-1.37,0.37) rotate(-20.55) scale(0.880)">
        <circle cx="0" cy="0" r="33.2" fill="url(#rgrad3)" filter="url(#shadow)" opacity="0.48"/>
        <text x="0" y="5" text-anchor="middle" font-family="Arial, sans-serif" font-size="14" fill="#FFFFFF" opacity="0.48">818</text>
      </g>
      </g>
      </g>
      </g>
      </g>
      </g>
      </g>
  </g>
  <g transform="translate(70.3, 915.0)">
      <g transform="translate(-3.80,-2.60) rotate(2.71) scale(1.000)">
        <g transform="translate(-4.89,-1.58) rotate(3.64) scale(0.980)">
        <g transform="translate(-4.79,-0.43) rotate(2.57) scale(0.960)">
        <g transform="translate(-3.51,0.77) rotate(-0.55) scale(0.940)" clip-path="url(#clipDynamic)">
        <g transform="translate(-1.37,1.89) rotate(-5.64) scale(0.920)">
        <g transform="translate(1.10,2.85) rotate(-12.44) scale(0.900)">
        <g transform="translate(3.31,3.55) rotate(-20.55) scale(0.880)">
        <path d="M0.0,-74.9 L22.0,-30.3 L71.2,-23.1 L35.6,11.6 L44.0,60.6 L0.0,37.4 L-44.0,60.6 L-35.6,11.6 L-71.2,-23.1 L-22.0,-30.3Z" fill="url(#lgrad4)" filter="url(#blur4)" opacity="0.36"/>
      </g>
      </g>
      </g>
      </g>
      </g>
      </g>
      </g>
  </g>
  <g transform="translate(208.9, 333.1)" mask="url(#maskGradient)">
    <ellipse cx="0" cy="0" rx="200" ry="150" fill="url(#rgrad0)" filter="url(#blur3)" opacity="0.3"/>
  </g>
  <g transform="translate(785.6, 372.2)" mask="url(#maskCircleFade)">
    <ellipse cx="0" cy="0" rx="200" ry="150" fill="url(#rgrad1)" filter="url(#blur3)" opacity="0.3"/>
  </g>
  <g transform="translate(1375.5, 377.4)" mask="url(#maskStripes)">
    <ellipse cx="0" cy="0" rx="200" ry="150" fill="url(#rgrad2)" filter="url(#blur3)" opacity="0.3"/>
  </g>
</svg>