<?xml version="1.0" encoding="UTF-8"?>
<svg xmlns="http://www.w3.org/2000/svg" viewBox="0 0 1920 1080" width="1920" height="1080">
  <defs>
    <filter id="blur0" x="-50%" y="-50%" width="200%" height="200%">
      <feGaussianBlur in="SourceGraphic" stdDeviation="1"/>
    </filter>
    <filter id="blur1" x="-50%" y="-50%" width="200%" height="200%">
      <feGaussianBlur in="SourceGraphic" stdDeviation="3"/>
    </filter>
    <filter id="blur2" x="-50%" y="-50%" width="200%" height="200%">
      <feGaussianBlur in="SourceGraphic" stdDeviation="5"/>
    </filter>
    <filter id="blur3" x="-50%" y="-50%" width="200%" height="200%">
      <feGaussianBlur in="SourceGraphic" stdDeviation="7"/>
    </filter>
    <filter id="blur4" x="-50%" y="-50%" width="200%" height="200%">
      <feGaussianBlur in="SourceGraphic" stdDeviation="9"/>
    </filter>
    <filter id="shadow" x="-50%" y="-50%" width="200%" height="200%">
      <feGaussianBlur in="SourceAlpha" stdDeviation="3" result="blur"/>
      <feOffset in="blur" dx="4" dy="4" result="offsetBlur"/>
      <feMerge>
        <feMergeNode in="offsetBlur"/>
        <feMergeNode in="SourceGraphic"/>
      </feMerge>
    </filter>
    <linearGradient id="lgrad0" x1="0%" y1="0%" x2="65.9%" y2="97.4%">
      <stop offset="0%" stop-color="#FF6B6B"/>
      <stop offset="33%" stop-color="#4ECDC4"/>
      <stop offset="66%" stop-color="#45B7D1"/>
      <stop offset="100%" stop-color="#96E6A1"/>
    </linearGradient>
    <linearGradient id="lgrad1" x1="0%" y1="0%" x2="40.0%" y2="99.0%">
      <stop offset="0%" stop-color="#FFE66D"/>
      <stop offset="33%" stop-color="#FF6B6B"/>
      <stop offset="66%" stop-color="#C44D58"/>
      <stop offset="100%" stop-color="#8B0000"/>
    </linearGradient>
    <linearGradient id="lgrad2" x1="0%" y1="0%" x2="16.9%" y2="87.4%">
      <stop offset="0%" stop-color="#4169E1"/>
      <stop offset="33%" stop-color="#7B68EE"/>
      <stop offset="66%" stop-color="#9370DB"/>
      <stop offset="100%" stop-color="#FFD700"/>
    </linearGradient>
    <linearGradient id="lgrad3" x1="0%" y1="0%" x2="2.6%" y2="65.9%">
      <stop offset="0%" stop-color="#32CD32"/>
      <stop offset="33%" stop-color="#228B22"/>
      <stop offset="66%" stop-color="#006400"/>
      <stop offset="100%" stop-color="#ADFF2F"/>
    </linearGradient>
    <linearGradient id="lgrad4" x1="0%" y1="0%" x2="1.0%" y2="40.0%">
      <stop offset="0%" stop-color="#FF1493"/>
      <stop offset="33%" stop-color="#FF69B4"/>
      <stop offset="66%" stop-color="#FFB6C1"/>
      <stop offset="100%" stop-color="#FFC0CB"/>
    </linearGradient>
    <radialGradient id="rgrad0" cx="45.9%" cy="40.6%" r="60%">
      <stop offset="0%" stop-color="#FF6B6B" stop-opacity="1"/>
      <stop offset="50%" stop-color="#4ECDC4" stop-opacity="0.8"/>
      <stop offset="100%" stop-color="#45B7D1" stop-opacity="0.6"/>
    </radialGradient>
    <radialGradient id="rgrad1" cx="55.9%" cy="48.6%" r="60%">
      <stop offset="0%" stop-color="#FFE66D" stop-opacity="1"/>
      <stop offset="50%" stop-color="#FF6B6B" stop-opacity="0.8"/>
      <stop offset="100%" stop-color="#C44D58" stop-opacity="0.6"/>
    </radialGradient>
    <radialGradient id="rgrad2" cx="65.9%" cy="56.6%" r="60%">
      <stop offset="0%" stop-color="#4169E1" stop-opacity="1"/>
      <stop offset="50%" stop-color="#7B68EE" stop-opacity="0.8"/>
      <stop offset="100%" stop-color="#9370DB" stop-opacity="0.6"/>
    </radialGradient>
    <radialGradient id="rgrad3" cx="35.9%" cy="64.6%" r="60%">
      <stop offset="0%" stop-color="#32CD32" stop-opacity="1"/>
      <stop offset="50%" stop-color="#228B22" stop-opacity="0.8"/>
      <stop offset="100%" stop-color="#006400" stop-opacity="0.6"/>
    </radialGradient>
    <radialGradient id="rgrad4" cx="45.9%" cy="32.6%" r="60%">
      <stop offset="0%" stop-color="#FF1493" stop-opacity="1"/>
      <stop offset="50%" stop-color="#FF69B4" stop-opacity="0.8"/>
      <stop offset="100%" stop-color="#FFB6C1" stop-opacity="0.6"/>
    </radialGradient>
    <clipPath id="clipCircle">
      <circle cx="0" cy="0" r="50"/>
    </clipPath>
    <clipPath id="clipStar">
      <path d="M0.0,-50.0 L14.7,-20.2 L47.6,-15.5 L23.8,7.7 L29.4,40.5 L0.0,25.0 L-29.4,40.5 L-23.8,7.7 L-47.6,-15.5 L-14.7,-20.2Z"/>
    </clipPath>
    <clipPath id="clipHex">
      <path d="M39.0,22.5 L0.0,45.0 L-39.0,22.5 L-39.0,-22.5 L-0.0,-45.0 L39.0,-22.5Z"/>
    </clipPath>
    <clipPath id="clipRect">
      <rect x="-40" y="-30" width="80" height="60" rx="10"/>
    </clipPath>
    <clipPath id="clipDynamic">
      <circle cx="0" cy="0" r="39.8"/>
    </clipPath>
    <mask id="maskGradient" maskContentUnits="objectBoundingBox">
      <rect x="0" y="0" width="1" height="1" fill="url(#maskGrad)"/>
    </mask>
    <linearGradient id="maskGrad" x1="0%" y1="0%" x2="100%" y2="100%">
      <stop offset="0%" stop-color="white"/>
      <stop offset="100%" stop-color="black"/>
    </linearGradient>
    <mask id="maskCircleFade">
      <circle cx="0" cy="0" r="60" fill="white"/>
      <circle cx="0" cy="0" r="30" fill="black"/>
    </mask>
    <mask id="maskStripes">
      <rect x="-50" y="-50" width="100" height="100" fill="white"/>
      <rect x="-50" y="-40" width="100" height="10" fill="black"/>
      <rect x="-50" y="-20" width="100" height="10" fill="black"/>
      <rect x="-50" y="0" width="100" height="10" fill="black"/>
      <rect x="-50" y="20" width="100" height="10" fill="black"/>
      <rect x="-50" y="40" width="100" height="10" fill="black"/>
    </mask>
    <mask id="maskDynamic">
      <rect x="-60" y="-60" width="120" height="120" fill="white" fill-opacity="0.41"/>
      <circle cx="0" cy="0" r="25" fill="white"/>
    </mask>
  </defs>
  <rect width="1920" height="1080" fill="url(#lgrad0)"/>
  <g transform="translate(109.6, 123.7)">
      <g transform="translate(1.61,3.79) rotate(0.81) scale(1.000)">
        <g transform="translate(3.68,3.24) rotate(3.56) scale(0.980)">
        <g transform="translate(4.85,2.40) rotate(8.01) scale(0.960)">
        <g transform="translate(4.84,1.35) rotate(13.83) scale(0.940)" clip-path="url(#clipCircle)">
        <g transform="translate(3.64,0.17) rotate(20.53) scale(0.920)">
        <g transform="translate(1.55,-1.01) rotate(27.55) scale(0.900)">
        <g transform="translate(-0.92,-2.11) rotate(34.25) scale(0.880)">
        <path d="M0.0,-62.4 L18.4,-25.3 L59.4,-19.3 L29.7,9.6 L36.7,50.5 L0.0,31.2 L-36.7,50.5 L-29.7,9.6 L-59.4,-19.3 L-18.4,-25.3Z" fill="url(#lgrad0)" filter="url(#blur0)" opacity="0.57"/>
      </g>
      </g>
      </g>
      </g>
      </g>
      </g>
      </g>
  </g>
  <g transform="translate(342.1, 112.9)">
      <g transform="translate(4.85,0.97) rotate(0.81) scale(1.000)">
        <g transform="translate(4.84,-0.22) rotate(3.56) scale(0.980)">
        <g transform="translate(3.64,-1.40) rotate(8.01) scale(0.960)">
        <g transform="translate(1.55,-2.44) rotate(13.83) scale(0.940)">
        <g transform="translate(-0.92,-3.27) rotate(20.53) scale(0.920)">
        <g transform="translate(-3.17,-3.80) rotate(27.55) scale(0.900)" mask="url(#maskCircleFade)">
        <g transform="translate(-4.63,-4.00) rotate(34.25) scale(0.880)">
        <rect x="-36.9" y="-36.9" width="73.8" height="73.8" rx="18.4" fill="url(#rgrad1)" filter="url(#shadow)" opacity="0.68"/>
        <circle cx="0" cy="0" r="24.6" fill="url(#rgrad2)" opacity="0.48"/>
      </g>
      </g>
      </g>
      </g>
      </g>
      </g>
      </g>
  </g>
  <g transform="translate(569.1, 96.1)">
      <g transform="translate(3.64,-2.74) rotate(0.81) scale(1.000)">
        <g transform="translate(1.55,-3.48) rotate(3.56) scale(0.980)">
        <g transform="translate(-0.92,-3.91) rotate(8.01) scale(0.960)">
        <g transform="translate(-3.17,-3.99) rotate(13.83) scale(0.940)">
        <g transform="translate(-4.63,-3.71) rotate(20.53) scale(0.920)">
        <g transform="translate(-4.97,-3.10) rotate(27.55) scale(0.900)">
        <g transform="translate(-4.08,-2.21) rotate(34.25) scale(0.880)">
        <path d="M37.6,21.7 L0.0,43.5 L-37.6,21.7 L-37.6,-21.7 L-0.0,-43.5 L37.6,-21.7Z" fill="url(#rgrad2)" filter="url(#blur2)" opacity="0.78"/>
        <ellipse cx="0" cy="0" rx="18.1" ry="12.1" fill="#FFFFFF" opacity="0.39"/>
      </g>
      </g>
      </g>
      </g>
      </g>
      </g>
      </g>
  </g>
  <g transform="translate(789.0, 81.1)">
      <g transform="translate(-0.92,-3.93) rotate(0.81) scale(1.000)">
        <g transform="translate(-3.17,-3.54) rotate(3.56) scale(0.980)">
        <g transform="translate(-4.63,-2.83) rotate(8.01) scale(0.960)">
        <g transform="translate(-4.97,-1.87) rotate(13.83) scale(0.940)" clip-path="url(#clipRect)">
        <g transform="translate(-4.08,-0.74) rotate(20.53) scale(0.920)">
        <g transform="translate(-2.20,0.46) rotate(27.55) scale(0.900)">
        <g transform="translate(0.22,1.61) rotate(34.25) scale(0.880)">
        <circle cx="0" cy="0" r="29.8" fill="url(#lgrad3)" filter="url(#shadow)" opacity="0.85"/>
        <text x="0" y="5" text-anchor="middle" font-family="Arial, sans-serif" font-size="14" fill="#FFFFFF" opacity="0.85">53</text>
      </g>
      </g>
      </g>
      </g>
      </g>
      </g>
      </g>
  </g>
  <g transform="translate(1001.8, 75.0)">
      <g transform="translate(-4.63,-1.50) rotate(0.81) scale(1.000)">
        <g transform="translate(-4.97,-0.34) rotate(3.56) scale(0.980)">
        <g transform="translate(-4.08,0.85) rotate(8.01) scale(0.960)">
        <g transform="translate(-2.20,1.97) rotate(13.83) scale(0.940)">
        <g transform="translate(0.22,2.91) rotate(20.53) scale(0.920)">
        <g transform="translate(2.59,3.59) rotate(27.55) scale(0.900)" mask="url(#maskGradient)">
        <g transform="translate(4.32,3.95) rotate(34.25) scale(0.880)">
        <path d="M0.0,-47.2 L13.9,-19.1 L44.9,-14.6 L22.4,7.3 L27.7,38.2 L0.0,23.6 L-27.7,38.2 L-22.4,7.3 L-44.9,-14.6 L-13.9,-19.1Z" fill="url(#rgrad4)" filter="url(#blur4)" opacity="0.89"/>
      </g>
      </g>
      </g>
      </g>
      </g>
      </g>
      </g>
  </g>
  <g transform="translate(1209.3, 80.6)">
      <g transform="translate(-4.08,2.31) rotate(0.81) scale(1.000)">
        <g transform="translate(-2.20,3.17) rotate(3.56) scale(0.980)">
        <g transform="translate(0.22,3.75) rotate(8.01) scale(0.960)">
        <g transform="translate(2.59,3.99) rotate(13.83) scale(0.940)">
        <g transform="translate(4.32,3.88) rotate(20.53) scale(0.920)">
        <g transform="translate(5.00,3.42) rotate(27.55) scale(0.900)">
        <g transform="translate(4.45,2.66) rotate(34.25) scale(0.880)">
        <rect x="-23.3" y="-23.3" width="46.5" height="46.5" rx="11.6" fill="url(#rgrad0)" filter="url(#shadow)" opacity="0.90"/>
        <circle cx="0" cy="0" r="15.5" fill="url(#rgrad1)" opacity="0.63"/>
      </g>
      </g>
      </g>
      </g>
      </g>
      </g>
      </g>
  </g>
  <g transform="translate(1414.5, 95.4)">
      <g transform="translate(0.22,4.00) rotate(0.81) scale(1.000)">
        <g transform="translate(2.59,3.77) rotate(3.56) scale(0.980)">
        <g transform="translate(4.32,3.20) rotate(8.01) scale(0.960)">
        <g transform="translate(5.00,2.35) rotate(13.83) scale(0.940)" clip-path="url(#clipStar)">
        <g transform="translate(4.45,1.28) rotate(20.53) scale(0.920)">
        <g transform="translate(2.81,0.11) rotate(27.55) scale(0.900)">
        <g transform="translate(0.49,-1.08) rotate(34.25) scale(0.880)">
        <path d="M30.2,17.5 L0.0,34.9 L-30.2,17.5 L-30.2,-17.5 L-0.0,-34.9 L30.2,-17.5Z" fill="url(#lgrad1)" filter="url(#blur1)" opacity="0.87"/>
        <ellipse cx="0" cy="0" rx="14.6" ry="9.7" fill="#FFFFFF" opacity="0.43"/>
      </g>
      </g>
      </g>
      </g>
      </g>
      </g>
      </g>
  </g>
  <g transform="translate(1621.0, 112.3)">
      <g transform="translate(4.32,2.01) rotate(0.81) scale(1.000)">
        <g transform="translate(5.00,0.90) rotate(3.56) scale(0.980)">
        <g transform="translate(4.45,-0.29) rotate(8.01) scale(0.960)">
        <g transform="translate(2.81,-1.46) rotate(13.83) scale(0.940)">
        <g transform="translate(0.49,-2.49) rotate(20.53) scale(0.920)">
        <g transform="translate(-1.96,-3.31) rotate(27.55) scale(0.900)" mask="url(#maskDynamic)">
        <g transform="translate(-3.92,-3.82) rotate(34.25) scale(0.880)">
        <circle cx="0" cy="0" r="35.8" fill="url(#rgrad2)" filter="url(#shadow)" opacity="0.81"/>
        <text x="0" y="5" text-anchor="middle" font-family="Arial, sans-serif" font-size="14" fill="#FFFFFF" opacity="0.81">53</text>
      </g>
      </g>
      </g>
      </g>
      </g>
      </g>
      </g>
  </g>
  <g transform="translate(72.2, 403.4)">
      <g transform="translate(4.45,-1.82) rotate(0.81) scale(1.000)">
        <g transform="translate(2.81,-2.79) rotate(3.56) scale(0.980)">
        <g transform="translate(0.49,-3.51) rotate(8.01) scale(0.960)">
        <g transform="translate(-1.96,-3.92) rotate(13.83) scale(0.940)">
        <g transform="translate(-3.92,-3.98) rotate(20.53) scale(0.920)">
        <g transform="translate(-4.93,-3.68) rotate(27.55) scale(0.900)">
        <g transform="translate(-4.73,-3.05) rotate(34.25) scale(0.880)">
        <path d="M0.0,-74.3 L21.8,-30.0 L70.7,-23.0 L35.3,11.5 L43.7,60.1 L0.0,37.1 L-43.7,60.1 L-35.3,11.5 L-70.7,-23.0 L-21.8,-30.0Z" fill="url(#rgrad3)" filter="url(#blur3)" opacity="0.72"/>
      </g>
      </g>
      </g>
      </g>
      </g>
      </g>
      </g>
  </g>
  <g transform="translate(290.2, 403.5)">
      <g transform="translate(0.49,-3.98) rotate(0.81) scale(1.000)">
        <g transform="translate(-1.96,-3.92) rotate(3.56) scale(0.980)">
        <g transform="translate(-3.92,-3.51) rotate(8.01) scale(0.960)">
        <g transform="translate(-4.93,-2.78) rotate(13.83) scale(0.940)" clip-path="url(#clipDynamic)">
        <g transform="translate(-4.73,-1.81) rotate(20.53) scale(0.920)">
        <g transform="translate(-3.37,-0.67) rotate(27.55) scale(0.900)">
        <g transform="translate(-1.19,0.52) rotate(34.25) scale(0.880)">
        <rect x="-31.9" y="-31.9" width="63.9" height="63.9" rx="16.0" fill="url(#lgrad4)" filter="url(#shadow)" opacity="0.61"/>
        <circle cx="0" cy="0" r="21.3" fill="url(#rgrad0)" opacity="0.43"/>
      </g>
      </g>
      </g>
      </g>
      </g>
      </g>
      </g>
  </g>
  <g transform="translate(515.5, 392.6)">
      <g transform="translate(-3.92,-2.48) rotate(0.81) scale(1.000)">
        <g transform="translate(-4.93,-1.44) rotate(3.56) scale(0.980)">
        <g transform="translate(-4.73,-0.27) rotate(8.01) scale(0.960)">
        <g transform="translate(-3.37,0.92) rotate(13.83) scale(0.940)">
        <g transform="translate(-1.19,2.03) rotate(20.53) scale(0.920)">
        <g transform="translate(1.29,2.96) rotate(27.55) scale(0.900)" mask="url(#maskStripes)">
        <g transform="translate(3.45,3.62) rotate(34.25) scale(0.880)">
        <path d="M25.9,15.0 L0.0,29.9 L-25.9,15.0 L-25.9,-15.0 L-0.0,-29.9 L25.9,-15.0Z" fill="url(#rgrad0)" filter="url(#blur0)" opacity="0.49"/>
        <ellipse cx="0" cy="0" rx="12.5" ry="8.3" fill="#FFFFFF" opacity="0.25"/>
      </g>
      </g>
      </g>
      </g>
      </g>
      </g>
      </g>
  </g>
  <g transform="translate(746.8, 375.7)">
      <g transform="translate(-4.73,1.30) rotate(0.81) scale(1.000)">
        <g transform="translate(-3.37,2.36) rotate(3.56) scale(0.980)">
        <g transform="translate(-1.19,3.21) rotate(8.01) scale(0.960)">
        <g transform="translate(1.29,3.77) rotate(13.83) scale(0.940)">
        <g transform="translate(3.45,4.00) rotate(20.53) scale(0.920)">
        <g transform="translate(4.76,3.86) rotate(27.55) scale(0.900)">
        <g transform="translate(4.91,3.39) rotate(34.25) scale(0.880)">
        <circle cx="0" cy="0" r="22.6" fill="url(#rgrad1)" filter="url(#shadow)" opacity="0.37"/>
        <text x="0" y="5" text-anchor="middle" font-family="Arial, sans-serif" font-size="14" fill="#FFFFFF" opacity="0.37">53</text>
      </g>
      </g>
      </g>
      </g>
      </g>
      </g>
      </g>
  </g>
  <g transform="translate(981.3, 360.8)">
      <g transform="translate(-1.19,3.89) rotate(0.81) scale(1.000)">
        <g transform="translate(1.29,3.99) rotate(3.56) scale(0.980)">
        <g transform="translate(3.45,3.74) rotate(8.01) scale(0.960)">
        <g transform="translate(4.76,3.16) rotate(13.83) scale(0.940)" clip-path="url(#clipHex)">
        <g transform="translate(4.91,2.29) rotate(20.53) scale(0.920)">
        <g transform="translate(3.86,1.22) rotate(27.55) scale(0.900)">
        <g transform="translate(1.86,0.04) rotate(34.25) scale(0.880)">
        <path d="M0.0,-54.1 L15.9,-21.9 L51.5,-16.7 L25.7,8.4 L31.8,43.8 L0.0,27.1 L-31.8,43.8 L-25.7,8.4 L-51.5,-16.7 L-15.9,-21.9Z" fill="url(#lgrad2)" filter="url(#blur2)" opacity="0.27"/>
      </g>
      </g>
      </g>
      </g>
      </g>
      </g>
      </g>
  </g>
  <g transform="translate(1215.5, 355.0)">
      <g transform="translate(3.45,2.90) rotate(0.81) scale(1.000)">
        <g transform="translate(4.76,1.95) rotate(3.56) scale(0.980)">
        <g transform="translate(4.91,0.83) rotate(8.01) scale(0.960)">
        <g transform="translate(3.86,-0.36) rotate(13.83) scale(0.940)">
        <g transform="translate(1.86,-1.52) rotate(20.53) scale(0.920)">
        <g transform="translate(-0.59,-2.55) rotate(27.55) scale(0.900)" mask="url(#maskCircleFade)">
        <g transform="translate(-2.90,-3.34) rotate(34.25) scale(0.880)">
        <rect x="-34.2" y="-34.2" width="68.4" height="68.4" rx="17.1" fill="url(#rgrad3)" filter="url(#shadow)" opacity="0.18"/>
        <circle cx="0" cy="0" r="22.8" fill="url(#rgrad4)" opacity="0.13"/>
      </g>
      </g>
      </g>
      </g>
      </g>
      </g>
      </g>
  </g>
  <g transform="translate(1445.9, 360.9)">
      <g transform="translate(4.91,-0.75) rotate(0.81) scale(1.000)">
        <g transform="translate(3.86,-1.88) rotate(3.56) scale(0.980)">
        <g transform="translate(1.86,-2.84) rotate(8.01) scale(0.960)">
        <g transform="translate(-0.59,-3.55) rotate(13.83) scale(0.940)">
        <g transform="translate(-2.90,-3.93) rotate(20.53) scale(0.920)">
        <g transform="translate(-4.50,-3.97) rotate(27.55) scale(0.900)">
        <g transform="translate(-4.99,-3.65) rotate(34.25) scale(0.880)">
        <path d="M39.0,22.5 L0.0,45.0 L-39.0,22.5 L-39.0,-22.5 L-0.0,-45.0 L39.0,-22.5Z" fill="url(#rgrad4)" filter="url(#blur4)" opacity="0.12"/>
        <ellipse cx="0" cy="0" rx="18.7" ry="12.5" fill="#FFFFFF" opacity="0.06"/>
      </g>
      </g>
      </g>
      </g>
      </g>
      </g>
      </g>
  </g>
  <g transform="translate(1670.0, 375.8)">
      <g transform="translate(1.86,-3.71) rotate(0.81) scale(1.000)">
        <g transform="translate(-0.59,-3.99) rotate(3.56) scale(0.980)">
        <g transform="translate(-2.90,-3.90) rotate(8.01) scale(0.960)">
        <g transform="translate(-4.50,-3.47) rotate(13.83) scale(0.940)" clip-path="url(#clipCircle)">
        <g transform="translate(-4.99,-2.73) rotate(20.53) scale(0.920)">
        <g transform="translate(-4.27,-1.75) rotate(27.55) scale(0.900)">
        <g transform="translate(-2.50,-0.60) rotate(34.25) scale(0.880)">
        <circle cx="0" cy="0" r="33.9" fill="url(#lgrad0)" filter="url(#shadow)" opacity="0.10"/>
        <text x="0" y="5" text-anchor="middle" font-family="Arial, sans-serif" font-size="14" fill="#FFFFFF" opacity="0.10">53</text>
      </g>
      </g>
      </g>
      </g>
      </g>
      </g>
      </g>
  </g>
  <g transform="translate(126.7, 672.7)">
      <g transform="translate(-2.90,-3.26) rotate(0.81) scale(1.000)">
        <g transform="translate(-4.50,-2.43) rotate(3.56) scale(0.980)">
        <g transform="translate(-4.99,-1.38) rotate(8.01) scale(0.960)">
        <g transform="translate(-4.27,-0.21) rotate(13.83) scale(0.940)">
        <g transform="translate(-2.50,0.98) rotate(20.53) scale(0.920)">
        <g transform="translate(-0.11,2.08) rotate(27.55) scale(0.900)" mask="url(#maskGradient)">
        <g transform="translate(2.30,3.00) rotate(34.25) scale(0.880)">
        <path d="M0.0,-53.4 L15.7,-21.6 L50.8,-16.5 L25.4,8.3 L31.4,43.2 L0.0,26.7 L-31.4,43.2 L-25.4,8.3 L-50.8,-16.5 L-15.7,-21.6Z" fill="url(#rgrad1)" filter="url(#blur1)" opacity="0.11"/>
      </g>
      </g>
      </g>
      </g>
      </g>
      </g>
      </g>
  </g>
  <g transform="translate(336.9, 683.6)">
      <g transform="translate(-4.99,0.19) rotate(0.81) scale(1.000)">
        <g transform="translate(-4.27,1.37) rotate(3.56) scale(0.980)">
        <g transform="translate(-2.50,2.42) rotate(8.01) scale(0.960)">
        <g transform="translate(-0.11,3.25) rotate(13.83) scale(0.940)">
        <g transform="translate(2.30,3.79) rotate(20.53) scale(0.920)">
        <g transform="translate(4.15,4.00) rotate(27.55) scale(0.900)">
        <g transform="translate(4.98,3.85) rotate(34.25) scale(0.880)">
        <rect x="-22.5" y="-22.5" width="45.1" height="45.1" rx="11.3" fill="url(#rgrad2)" filter="url(#shadow)" opacity="0.16"/>
        <circle cx="0" cy="0" r="15.0" fill="url(#rgrad3)" opacity="0.11"/>
      </g>
      </g>
      </g>
      </g>
      </g>
      </g>
      </g>
  </g>
  <g transform="translate(542.9, 683.4)">
      <g transform="translate(-2.50,3.47) rotate(0.81) scale(1.000)">
        <g transform="translate(-0.11,3.90) rotate(3.56) scale(0.980)">
        <g transform="translate(2.30,3.99) rotate(8.01) scale(0.960)">
        <g transform="translate(4.15,3.72) rotate(13.83) scale(0.940)" clip-path="url(#clipRect)">
        <g transform="translate(4.98,3.12) rotate(20.53) scale(0.920)">
        <g transform="translate(4.59,2.24) rotate(27.55) scale(0.900)">
        <g transform="translate(3.08,1.16) rotate(34.25) scale(0.880)">
        <path d="M26.2,15.1 L0.0,30.3 L-26.2,15.1 L-26.2,-15.1 L-0.0,-30.3 L26.2,-15.1Z" fill="url(#lgrad3)" filter="url(#blur3)" opacity="0.24"/>
        <ellipse cx="0" cy="0" rx="12.6" ry="8.4" fill="#FFFFFF" opacity="0.12"/>
      </g>
      </g>
      </g>
      </g>
      </g>
      </g>
      </g>
  </g>
  <g transform="translate(748.3, 672.2)">
      <g transform="translate(2.30,3.55) rotate(0.81) scale(1.000)">
        <g transform="translate(4.15,2.85) rotate(3.56) scale(0.980)">
        <g transform="translate(4.98,1.89) rotate(8.01) scale(0.960)">
        <g transform="translate(4.59,0.77) rotate(13.83) scale(0.940)">
        <g transform="translate(3.08,-0.43) rotate(20.53) scale(0.920)">
        <g transform="translate(0.82,-1.58) rotate(27.55) scale(0.900)" mask="url(#maskDynamic)">
        <g transform="translate(-1.65,-2.60) rotate(34.25) scale(0.880)">
        <circle cx="0" cy="0" r="32.3" fill="url(#rgrad4)" filter="url(#shadow)" opacity="0.34"/>
        <text x="0" y="5" text-anchor="middle" font-family="Arial, sans-serif" font-size="14" fill="#FFFFFF" opacity="0.34">53</text>
      </g>
      </g>
      </g>
      </g>
      </g>
      </g>
      </g>
  </g>
  <g transform="translate(956.5, 655.3)">
      <g transform="translate(4.98,0.37) rotate(0.81) scale(1.000)">
        <g transform="translate(4.59,-0.82) rotate(3.56) scale(0.980)">
        <g transform="translate(3.08,-1.94) rotate(8.01) scale(0.960)">
        <g transform="translate(0.82,-2.89) rotate(13.83) scale(0.940)">
        <g transform="translate(-1.65,-3.58) rotate(20.53) scale(0.920)">
        <g transform="translate(-3.71,-3.95) rotate(27.55) scale(0.900)">
        <g transform="translate(-4.86,-3.96) rotate(34.25) scale(0.880)">
        <path d="M0.0,-74.5 L21.9,-30.1 L70.9,-23.0 L35.4,11.5 L43.8,60.3 L0.0,37.3 L-43.8,60.3 L-35.4,11.5 L-70.9,-23.0 L-21.9,-30.1Z" fill="url(#rgrad0)" filter="url(#blur0)" opacity="0.45"/>
      </g>
      </g>
      </g>
      </g>
      </g>
      </g>
      </g>
  </g>
  <g transform="translate(1170.4, 640.6)">
      <g transform="translate(3.08,-3.15) rotate(0.81) scale(1.000)">
        <g transform="translate(0.82,-3.74) rotate(3.56) scale(0.980)">
        <g transform="translate(-1.65,-3.99) rotate(8.01) scale(0.960)">
        <g transform="translate(-3.71,-3.89) rotate(13.83) scale(0.940)" clip-path="url(#clipStar)">
        <g transform="translate(-4.86,-3.44) rotate(20.53) scale(0.920)">
        <g transform="translate(-4.83,-2.68) rotate(27.55) scale(0.900)">
        <g transform="translate(-3.61,-1.69) rotate(34.25) scale(0.880)">
        <rect x="-35.5" y="-35.5" width="71.0" height="71.0" rx="17.8" fill="url(#lgrad1)" filter="url(#shadow)" opacity="0.57"/>
        <circle cx="0" cy="0" r="23.7" fill="url(#rgrad2)" opacity="0.40"/>
      </g>
      </g>
      </g>
      </g>
      </g>
      </g>
      </g>
  </g>
  <g transform="translate(1391.6, 635.0)">
      <g transform="translate(-1.65,-3.78) rotate(0.81) scale(1.000)">
        <g transform="translate(-3.71,-3.22) rotate(3.56) scale(0.980)">
        <g transform="translate(-4.86,-2.37) rotate(8.01) scale(0.960)">
        <g transform="translate(-4.83,-1.31) rotate(13.83) scale(0.940)">
        <g transform="translate(-3.61,-0.14) rotate(20.53) scale(0.920)">
        <g transform="translate(-1.50,1.05) rotate(27.55) scale(0.900)" mask="url(#maskStripes)">
        <g transform="translate(0.97,2.14) rotate(34.25) scale(0.880)">
        <path d="M29.8,17.2 L0.0,34.5 L-29.8,17.2 L-29.8,-17.2 L-0.0,-34.5 L29.8,-17.2Z" fill="url(#rgrad2)" filter="url(#blur2)" opacity="0.68"/>
        <ellipse cx="0" cy="0" rx="14.4" ry="9.6" fill="#FFFFFF" opacity="0.34"/>
      </g>
      </g>
      </g>
      </g>
      </g>
      </g>
      </g>
  </g>
  <g transform="translate(1619.8, 641.2)">
      <g transform="translate(-4.86,-0.93) rotate(0.81) scale(1.000)">
        <g transform="translate(-4.83,0.26) rotate(3.56) scale(0.980)">
        <g transform="translate(-3.61,1.43) rotate(8.01) scale(0.960)">
        <g transform="translate(-1.50,2.47) rotate(13.83) scale(0.940)">
        <g transform="translate(0.97,3.29) rotate(20.53) scale(0.920)">
        <g transform="translate(3.20,3.81) rotate(27.55) scale(0.900)">
        <g transform="translate(4.65,4.00) rotate(34.25) scale(0.880)">
        <circle cx="0" cy="0" r="23.1" fill="url(#rgrad3)" filter="url(#shadow)" opacity="0.78"/>
        <text x="0" y="5" text-anchor="middle" font-family="Arial, sans-serif" font-size="14" fill="#FFFFFF" opacity="0.78">53</text>
      </g>
      </g>
      </g>
      </g>
      </g>
      </g>
      </g>
  </g>
  <g transform="translate(92.9, 936.2)">
      <g transform="translate(-3.61,2.77) rotate(0.81) scale(1.000)">
        <g transform="translate(-1.50,3.50) rotate(3.56) scale(0.980)">
        <g transform="translate(0.97,3.92) rotate(8.01) scale(0.960)">
        <g transform="translate(3.20,3.98) rotate(13.83) scale(0.940)" clip-path="url(#clipDynamic)">
        <g transform="translate(4.65,3.69) rotate(20.53) scale(0.920)">
        <g transform="translate(4.96,3.07) rotate(27.55) scale(0.900)">
        <g transform="translate(4.06,2.18) rotate(34.25) scale(0.880)">
        <path d="M0.0,-47.6 L14.0,-19.3 L45.3,-14.7 L22.7,7.4 L28.0,38.5 L0.0,23.8 L-28.0,38.5 L-22.7,7.4 L-45.3,-14.7 L-14.0,-19.3Z" fill="url(#lgrad4)" filter="url(#blur4)" opacity="0.85"/>
      </g>
      </g>
      </g>
      </g>
      </g>
      </g>
      </g>
  </g>
  <g transform="translate(332.1, 375.8)" mask="url(#maskGradient)">
    <ellipse cx="0" cy="0" rx="200" ry="150" fill="url(#rgrad0)" filter="url(#blur3)" opacity="0.3"/>
  </g>
  <g transform="translate(897.0, 341.4)" mask="url(#maskCircleFade)">
    <ellipse cx="0" cy="0" rx="200" ry="150" fill="url(#rgrad1)" filter="url(#blur3)" opacity="0.3"/>
  </g>
  <g transform="translate(1372.7, 287.6)" mask="url(#maskStripes)">
    <ellipse cx="0" cy="0" rx="200" ry="150" fill="url(#rgrad2)" filter="url(#blur3)" opacity="0.3"/>
  </g>
</svg>