<?xml version="1.0" encoding="UTF-8"?>
<svg xmlns="http://www.w3.org/2000/svg" viewBox="0 0 1920 1080" width="1920" height="1080">
  <defs>
    <filter id="blur0" x="-50%" y="-50%" width="200%" height="200%">
      <feGaussianBlur in="SourceGraphic" stdDeviation="1"/>
    </filter>
    <filter id="blur1" x="-50%" y="-50%" width="200%" height="200%">
      <feGaussianBlur in="SourceGraphic" stdDeviation="3"/>
    </filter>
    <filter id="blur2" x="-50%" y="-50%" width="200%" height="200%">
      <feGaussianBlur in="SourceGraphic" stdDeviation="5"/>
    </filter>
    <filter id="blur3" x="-50%" y="-50%" width="200%" height="200%">
      <feGaussianBlur in="SourceGraphic" stdDeviation="7"/>
    </filter>
    <filter id="blur4" x="-50%" y="-50%" width="200%" height="200%">
      <feGaussianBlur in="SourceGraphic" stdDeviation="9"/>
    </filter>
    <filter id="shadow" x="-50%" y="-50%" width="200%" height="200%">
      <feGaussianBlur in="SourceAlpha" stdDeviation="3" result="blur"/>
      <feOffset in="blur" dx="4" dy="4" result="offsetBlur"/>
      <feMerge>
        <feMergeNode in="offsetBlur"/>
        <feMergeNode in="SourceGraphic"/>
      </feMerge>
    </filter>
    <linearGradient id="lgrad0" x1="0%" y1="0%" x2="92.4%" y2="23.5%">
      <stop offset="0%" stop-color="#FF6B6B"/>
      <stop offset="33%" stop-color="#4ECDC4"/>
      <stop offset="66%" stop-color="#45B7D1"/>
      <stop offset="100%" stop-color="#96E6A1"/>
    </linearGradient>
    <linearGradient id="lgrad1" x1="0%" y1="0%" x2="100.0%" y2="48.3%">
      <stop offset="0%" stop-color="#FFE66D"/>
      <stop offset="33%" stop-color="#FF6B6B"/>
      <stop offset="66%" stop-color="#C44D58"/>
      <stop offset="100%" stop-color="#8B0000"/>
    </linearGradient>
    <linearGradient id="lgrad2" x1="0%" y1="0%" x2="94.1%" y2="73.5%">
      <stop offset="0%" stop-color="#4169E1"/>
      <stop offset="33%" stop-color="#7B68EE"/>
      <stop offset="66%" stop-color="#9370DB"/>
      <stop offset="100%" stop-color="#FFD700"/>
    </linearGradient>
    <linearGradient id="lgrad3" x1="0%" y1="0%" x2="76.5%" y2="92.4%">
      <stop offset="0%" stop-color="#32CD32"/>
      <stop offset="33%" stop-color="#228B22"/>
      <stop offset="66%" stop-color="#006400"/>
      <stop offset="100%" stop-color="#ADFF2F"/>
    </linearGradient>
    <linearGradient id="lgrad4" x1="0%" y1="0%" x2="51.7%" y2="100.0%">
      <stop offset="0%" stop-color="#FF1493"/>
      <stop offset="33%" stop-color="#FF69B4"/>
      <stop offset="66%" stop-color="#FFB6C1"/>
      <stop offset="100%" stop-color="#FFC0CB"/>
    </linearGradient>
    <radialGradient id="rgrad0" cx="39.8%" cy="63.2%" r="60%">
      <stop offset="0%" stop-color="#FF6B6B" stop-opacity="1"/>
      <stop offset="50%" stop-color="#4ECDC4" stop-opacity="0.8"/>
      <stop offset="100%" stop-color="#45B7D1" stop-opacity="0.6"/>
    </radialGradient>
    <radialGradient id="rgrad1" cx="49.8%" cy="31.2%" r="60%">
      <stop offset="0%" stop-color="#FFE66D" stop-opacity="1"/>
      <stop offset="50%" stop-color="#FF6B6B" stop-opacity="0.8"/>
      <stop offset="100%" stop-color="#C44D58" stop-opacity="0.6"/>
    </radialGradient>
    <radialGradient id="rgrad2" cx="59.8%" cy="39.2%" r="60%">
      <stop offset="0%" stop-color="#4169E1" stop-opacity="1"/>
      <stop offset="50%" stop-color="#7B68EE" stop-opacity="0.8"/>
      <stop offset="100%" stop-color="#9370DB" stop-opacity="0.6"/>
    </radialGradient>
    <radialGradient id="rgrad3" cx="69.8%" cy="47.2%" r="60%">
      <stop offset="0%" stop-color="#32CD32" stop-opacity="1"/>
      <stop offset="50%" stop-color="#228B22" stop-opacity="0.8"/>
      <stop offset="100%" stop-color="#006400" stop-opacity="0.6"/>
    </radialGradient>
    <radialGradient id="rgrad4" cx="39.8%" cy="55.2%" r="60%">
      <stop offset="0%" stop-color="#FF1493" stop-opacity="1"/>
      <stop offset="50%" stop-color="#FF69B4" stop-opacity="0.8"/>
      <stop offset="100%" stop-color="#FFB6C1" stop-opacity="0.6"/>
    </radialGradient>
    <clipPath id="clipCircle">
      <circle cx="0" cy="0" r="50"/>
    </clipPath>
    <clipPath id="clipStar">
      <path d="M0.0,-50.0 L14.7,-20.2 L47.6,-15.5 L23.8,7.7 L29.4,40.5 L0.0,25.0 L-29.4,40.5 L-23.8,7.7 L-47.6,-15.5 L-14.7,-20.2Z"/>
    </clipPath>
    <clipPath id="clipHex">
      <path d="M39.0,22.5 L0.0,45.0 L-39.0,22.5 L-39.0,-22.5 L-0.0,-45.0 L39.0,-22.5Z"/>
    </clipPath>
    <clipPath id="clipRect">
      <rect x="-40" y="-30" width="80" height="60" rx="10"/>
    </clipPath>
    <clipPath id="clipDynamic">
      <circle cx="0" cy="0" r="29.0"/>
    </clipPath>
    <mask id="maskGradient" maskContentUnits="objectBoundingBox">
      <rect x="0" y="0" width="1" height="1" fill="url(#maskGrad)"/>
    </mask>
    <linearGradient id="maskGrad" x1="0%" y1="0%" x2="100%" y2="100%">
      <stop offset="0%" stop-color="white"/>
      <stop offset="100%" stop-color="black"/>
    </linearGradient>
    <mask id="maskCircleFade">
      <circle cx="0" cy="0" r="60" fill="white"/>
      <circle cx="0" cy="0" r="30" fill="black"/>
    </mask>
    <mask id="maskStripes">
      <rect x="-50" y="-50" width="100" height="100" fill="white"/>
      <rect x="-50" y="-40" width="100" height="10" fill="black"/>
      <rect x="-50" y="-20" width="100" height="10" fill="black"/>
      <rect x="-50" y="0" width="100" height="10" fill="black"/>
      <rect x="-50" y="20" width="100" height="10" fill="black"/>
      <rect x="-50" y="40" width="100" height="10" fill="black"/>
    </mask>
    <mask id="maskDynamic">
      <rect x="-60" y="-60" width="120" height="120" fill="white" fill-opacity="0.99"/>
      <circle cx="0" cy="0" r="25" fill="white"/>
    </mask>
  </defs>
  <rect width="1920" height="1080" fill="url(#lgrad0)"/>
  <g transform="translate(88.0, 77.1)">
      <g transform="translate(-2.00,-3.67) rotate(4.89) scale(1.000)">
        <g transform="translate(-3.95,-3.03) rotate(9.19) scale(0.980)">
        <g transform="translate(-4.94,-2.12) rotate(12.33) scale(0.960)">
        <g transform="translate(-4.71,-1.02) rotate(13.85) scale(0.940)" clip-path="url(#clipCircle)">
        <g transform="translate(-3.33,0.16) rotate(13.38) scale(0.920)">
        <g transform="translate(-1.14,1.34) rotate(10.70) scale(0.900)">
        <g transform="translate(1.34,2.39) rotate(5.74) scale(0.880)">
        <path d="M0.0,-74.7 L21.9,-30.2 L71.0,-23.1 L35.5,11.5 L43.9,60.4 L0.0,37.3 L-43.9,60.4 L-35.5,11.5 L-71.0,-23.1 L-21.9,-30.2Z" fill="url(#lgrad0)" filter="url(#blur0)" opacity="0.89"/>
      </g>
      </g>
      </g>
      </g>
      </g>
      </g>
      </g>
  </g>
  <g transform="translate(296.3, 88.9)">
      <g transform="translate(-4.94,-0.63) rotate(4.89) scale(1.000)">
        <g transform="translate(-4.71,0.56) rotate(9.19) scale(0.980)">
        <g transform="translate(-3.33,1.71) rotate(12.33) scale(0.960)">
        <g transform="translate(-1.14,2.70) rotate(13.85) scale(0.940)">
        <g transform="translate(1.34,3.45) rotate(13.38) scale(0.920)">
        <g transform="translate(3.48,3.90) rotate(10.70) scale(0.900)" mask="url(#maskCircleFade)">
        <g transform="translate(4.78,3.99) rotate(5.74) scale(0.880)">
        <rect x="-32.7" y="-32.7" width="65.4" height="65.4" rx="16.3" fill="url(#rgrad1)" filter="url(#shadow)" opacity="0.85"/>
        <circle cx="0" cy="0" r="21.8" fill="url(#rgrad2)" opacity="0.59"/>
      </g>
      </g>
      </g>
      </g>
      </g>
      </g>
      </g>
  </g>
  <g transform="translate(510.4, 106.0)">
      <g transform="translate(-3.33,2.98) rotate(4.89) scale(1.000)">
        <g transform="translate(-1.14,3.64) rotate(9.19) scale(0.980)">
        <g transform="translate(1.34,3.97) rotate(12.33) scale(0.960)">
        <g transform="translate(3.48,3.94) rotate(13.85) scale(0.940)">
        <g transform="translate(4.78,3.57) rotate(13.38) scale(0.920)">
        <g transform="translate(4.90,2.87) rotate(10.70) scale(0.900)">
        <g transform="translate(3.83,1.92) rotate(5.74) scale(0.880)">
        <path d="M26.6,15.3 L0.0,30.7 L-26.6,15.3 L-26.6,-15.3 L-0.0,-30.7 L26.6,-15.3Z" fill="url(#rgrad2)" filter="url(#blur2)" opacity="0.78"/>
        <ellipse cx="0" cy="0" rx="12.8" ry="8.5" fill="#FFFFFF" opacity="0.39"/>
      </g>
      </g>
      </g>
      </g>
      </g>
      </g>
      </g>
  </g>
  <g transform="translate(731.7, 120.2)">
      <g transform="translate(1.34,3.85) rotate(4.89) scale(1.000)">
        <g transform="translate(3.48,3.37) rotate(9.19) scale(0.980)">
        <g transform="translate(4.78,2.58) rotate(12.33) scale(0.960)">
        <g transform="translate(4.90,1.56) rotate(13.85) scale(0.940)" clip-path="url(#clipRect)">
        <g transform="translate(3.83,0.40) rotate(13.38) scale(0.920)">
        <g transform="translate(1.81,-0.79) rotate(10.70) scale(0.900)">
        <g transform="translate(-0.64,-1.92) rotate(5.74) scale(0.880)">
        <circle cx="0" cy="0" r="22.5" fill="url(#lgrad3)" filter="url(#shadow)" opacity="0.68"/>
        <text x="0" y="5" text-anchor="middle" font-family="Arial, sans-serif" font-size="14" fill="#FFFFFF" opacity="0.68">566</text>
      </g>
      </g>
      </g>
      </g>
      </g>
      </g>
      </g>
  </g>
  <g transform="translate(960.0, 124.9)">
      <g transform="translate(4.78,1.18) rotate(4.89) scale(1.000)">
        <g transform="translate(4.90,0.00) rotate(9.19) scale(0.980)">
        <g transform="translate(3.83,-1.18) rotate(12.33) scale(0.960)">
        <g transform="translate(1.81,-2.26) rotate(13.85) scale(0.940)">
        <g transform="translate(-0.64,-3.13) rotate(13.38) scale(0.920)">
        <g transform="translate(-2.94,-3.73) rotate(10.70) scale(0.900)" mask="url(#maskGradient)">
        <g transform="translate(-4.52,-3.99) rotate(5.74) scale(0.880)">
        <path d="M0.0,-52.7 L15.5,-21.3 L50.1,-16.3 L25.1,8.1 L31.0,42.7 L0.0,26.4 L-31.0,42.7 L-25.1,8.1 L-50.1,-16.3 L-15.5,-21.3Z" fill="url(#rgrad4)" filter="url(#blur4)" opacity="0.57"/>
      </g>
      </g>
      </g>
      </g>
      </g>
      </g>
      </g>
  </g>
  <g transform="translate(1193.2, 117.9)">
      <g transform="translate(3.83,-2.58) rotate(4.89) scale(1.000)">
        <g transform="translate(1.81,-3.36) rotate(9.19) scale(0.980)">
        <g transform="translate(-0.64,-3.85) rotate(12.33) scale(0.960)">
        <g transform="translate(-2.94,-4.00) rotate(13.85) scale(0.940)">
        <g transform="translate(-4.52,-3.79) rotate(13.38) scale(0.920)">
        <g transform="translate(-4.99,-3.23) rotate(10.70) scale(0.900)">
        <g transform="translate(-4.24,-2.40) rotate(5.74) scale(0.880)">
        <rect x="-33.6" y="-33.6" width="67.1" height="67.1" rx="16.8" fill="url(#rgrad0)" filter="url(#shadow)" opacity="0.45"/>
        <circle cx="0" cy="0" r="22.4" fill="url(#rgrad1)" opacity="0.31"/>
      </g>
      </g>
      </g>
      </g>
      </g>
      </g>
      </g>
  </g>
  <g transform="translate(1428.0, 102.5)">
      <g transform="translate(-0.64,-3.97) rotate(4.89) scale(1.000)">
        <g transform="translate(-2.94,-3.64) rotate(9.19) scale(0.980)">
        <g transform="translate(-4.52,-2.98) rotate(12.33) scale(0.960)">
        <g transform="translate(-4.99,-2.06) rotate(13.85) scale(0.940)" clip-path="url(#clipStar)">
        <g transform="translate(-4.24,-0.96) rotate(13.38) scale(0.920)">
        <g transform="translate(-2.45,0.23) rotate(10.70) scale(0.900)">
        <g transform="translate(-0.06,1.40) rotate(5.74) scale(0.880)">
        <path d="M38.9,22.5 L0.0,45.0 L-38.9,22.5 L-38.9,-22.5 L-0.0,-45.0 L38.9,-22.5Z" fill="url(#lgrad1)" filter="url(#blur1)" opacity="0.33"/>
        <ellipse cx="0" cy="0" rx="18.7" ry="12.5" fill="#FFFFFF" opacity="0.17"/>
      </g>
      </g>
      </g>
      </g>
      </g>
      </g>
      </g>
  </g>
  <g transform="translate(1660.9, 85.9)">
      <g transform="translate(-4.52,-1.71) rotate(4.89) scale(1.000)">
        <g transform="translate(-4.99,-0.57) rotate(9.19) scale(0.980)">
        <g transform="translate(-4.24,0.63) rotate(12.33) scale(0.960)">
        <g transform="translate(-2.45,1.77) rotate(13.85) scale(0.940)">
        <g transform="translate(-0.06,2.75) rotate(13.38) scale(0.920)">
        <g transform="translate(2.34,3.49) rotate(10.70) scale(0.900)" mask="url(#maskDynamic)">
        <g transform="translate(4.17,3.91) rotate(5.74) scale(0.880)">
        <circle cx="0" cy="0" r="34.5" fill="url(#rgrad2)" filter="url(#shadow)" opacity="0.23"/>
        <text x="0" y="5" text-anchor="middle" font-family="Arial, sans-serif" font-size="14" fill="#FFFFFF" opacity="0.23">566</text>
      </g>
      </g>
      </g>
      </g>
      </g>
      </g>
      </g>
  </g>
  <g transform="translate(128.7, 355.9)">
      <g transform="translate(-4.24,2.12) rotate(4.89) scale(1.000)">
        <g transform="translate(-2.45,3.03) rotate(9.19) scale(0.980)">
        <g transform="translate(-0.06,3.66) rotate(12.33) scale(0.960)">
        <g transform="translate(2.34,3.97) rotate(13.85) scale(0.940)">
        <g transform="translate(4.17,3.93) rotate(13.38) scale(0.920)">
        <g transform="translate(4.98,3.53) rotate(10.70) scale(0.900)">
        <g transform="translate(4.57,2.82) rotate(5.74) scale(0.880)">
        <path d="M0.0,-54.8 L16.1,-22.2 L52.1,-16.9 L26.1,8.5 L32.2,44.4 L0.0,27.4 L-32.2,44.4 L-26.1,8.5 L-52.1,-16.9 L-16.1,-22.2Z" fill="url(#rgrad3)" filter="url(#blur3)" opacity="0.16"/>
      </g>
      </g>
      </g>
      </g>
      </g>
      </g>
      </g>
  </g>
  <g transform="translate(349.4, 357.3)">
      <g transform="translate(-0.06,4.00) rotate(4.89) scale(1.000)">
        <g transform="translate(2.34,3.84) rotate(9.19) scale(0.980)">
        <g transform="translate(4.17,3.33) rotate(12.33) scale(0.960)">
        <g transform="translate(4.98,2.53) rotate(13.85) scale(0.940)" clip-path="url(#clipDynamic)">
        <g transform="translate(4.57,1.50) rotate(13.38) scale(0.920)">
        <g transform="translate(3.04,0.33) rotate(10.70) scale(0.900)">
        <g transform="translate(0.77,-0.86) rotate(5.74) scale(0.880)">
        <rect x="-22.7" y="-22.7" width="45.4" height="45.4" rx="11.3" fill="url(#lgrad4)" filter="url(#shadow)" opacity="0.11"/>
        <circle cx="0" cy="0" r="15.1" fill="url(#rgrad0)" opacity="0.08"/>
      </g>
      </g>
      </g>
      </g>
      </g>
      </g>
      </g>
  </g>
  <g transform="translate(563.0, 369.3)">
      <g transform="translate(4.17,2.20) rotate(4.89) scale(1.000)">
        <g transform="translate(4.98,1.12) rotate(9.19) scale(0.980)">
        <g transform="translate(4.57,-0.07) rotate(12.33) scale(0.960)">
        <g transform="translate(3.04,-1.24) rotate(13.85) scale(0.940)">
        <g transform="translate(0.77,-2.31) rotate(13.38) scale(0.920)">
        <g transform="translate(-1.69,-3.17) rotate(10.70) scale(0.900)" mask="url(#maskStripes)">
        <g transform="translate(-3.74,-3.75) rotate(5.74) scale(0.880)">
        <path d="M25.6,14.8 L0.0,29.6 L-25.6,14.8 L-25.6,-14.8 L-0.0,-29.6 L25.6,-14.8Z" fill="url(#rgrad0)" filter="url(#blur0)" opacity="0.10"/>
        <ellipse cx="0" cy="0" rx="12.3" ry="8.2" fill="#FFFFFF" opacity="0.05"/>
      </g>
      </g>
      </g>
      </g>
      </g>
      </g>
      </g>
  </g>
  <g transform="translate(770.9, 386.4)">
      <g transform="translate(4.57,-1.62) rotate(4.89) scale(1.000)">
        <g transform="translate(3.04,-2.63) rotate(9.19) scale(0.980)">
        <g transform="translate(0.77,-3.40) rotate(12.33) scale(0.960)">
        <g transform="translate(-1.69,-3.87) rotate(13.85) scale(0.940)">
        <g transform="translate(-3.74,-4.00) rotate(13.38) scale(0.920)">
        <g transform="translate(-4.87,-3.76) rotate(10.70) scale(0.900)">
        <g transform="translate(-4.81,-3.19) rotate(5.74) scale(0.880)">
        <circle cx="0" cy="0" r="31.6" fill="url(#rgrad1)" filter="url(#shadow)" opacity="0.13"/>
        <text x="0" y="5" text-anchor="middle" font-family="Arial, sans-serif" font-size="14" fill="#FFFFFF" opacity="0.13">566</text>
      </g>
      </g>
      </g>
      </g>
      </g>
      </g>
      </g>
  </g>
  <g transform="translate(976.1, 400.5)">
      <g transform="translate(0.77,-3.95) rotate(4.89) scale(1.000)">
        <g transform="translate(-1.69,-3.96) rotate(9.19) scale(0.980)">
        <g transform="translate(-3.74,-3.61) rotate(12.33) scale(0.960)">
        <g transform="translate(-4.87,-2.94) rotate(13.85) scale(0.940)" clip-path="url(#clipHex)">
        <g transform="translate(-4.81,-2.01) rotate(13.38) scale(0.920)">
        <g transform="translate(-3.57,-0.89) rotate(10.70) scale(0.900)">
        <g transform="translate(-1.46,0.30) rotate(5.74) scale(0.880)">
        <path d="M0.0,-74.0 L21.8,-29.9 L70.4,-22.9 L35.2,11.4 L43.5,59.9 L0.0,37.0 L-43.5,59.9 L-35.2,11.4 L-70.4,-22.9 L-21.8,-29.9Z" fill="url(#lgrad2)" filter="url(#blur2)" opacity="0.19"/>
      </g>
      </g>
      </g>
      </g>
      </g>
      </g>
      </g>
  </g>
  <g transform="translate(1182.4, 404.9)">
      <g transform="translate(-3.74,-2.65) rotate(4.89) scale(1.000)">
        <g transform="translate(-4.87,-1.65) rotate(9.19) scale(0.980)">
        <g transform="translate(-4.81,-0.50) rotate(12.33) scale(0.960)">
        <g transform="translate(-3.57,0.70) rotate(13.85) scale(0.940)">
        <g transform="translate(-1.46,1.83) rotate(13.38) scale(0.920)">
        <g transform="translate(1.01,2.80) rotate(10.70) scale(0.900)" mask="url(#maskCircleFade)">
        <g transform="translate(3.24,3.52) rotate(5.74) scale(0.880)">
        <rect x="-36.0" y="-36.0" width="72.0" height="72.0" rx="18.0" fill="url(#rgrad3)" filter="url(#shadow)" opacity="0.27"/>
        <circle cx="0" cy="0" r="24.0" fill="url(#rgrad4)" opacity="0.19"/>
      </g>
      </g>
      </g>
      </g>
      </g>
      </g>
      </g>
  </g>
  <g transform="translate(1392.9, 397.6)">
      <g transform="translate(-4.81,1.09) rotate(4.89) scale(1.000)">
        <g transform="translate(-3.57,2.17) rotate(9.19) scale(0.980)">
        <g transform="translate(-1.46,3.07) rotate(12.33) scale(0.960)">
        <g transform="translate(1.01,3.69) rotate(13.85) scale(0.940)">
        <g transform="translate(3.24,3.98) rotate(13.38) scale(0.920)">
        <g transform="translate(4.67,3.92) rotate(10.70) scale(0.900)">
        <g transform="translate(4.96,3.50) rotate(5.74) scale(0.880)">
        <path d="M30.6,17.7 L0.0,35.4 L-30.6,17.7 L-30.6,-17.7 L-0.0,-35.4 L30.6,-17.7Z" fill="url(#rgrad4)" filter="url(#blur4)" opacity="0.38"/>
        <ellipse cx="0" cy="0" rx="14.7" ry="9.8" fill="#FFFFFF" opacity="0.19"/>
      </g>
      </g>
      </g>
      </g>
      </g>
      </g>
      </g>
  </g>
  <g transform="translate(1610.1, 382.1)">
      <g transform="translate(-1.46,3.83) rotate(4.89) scale(1.000)">
        <g transform="translate(1.01,4.00) rotate(9.19) scale(0.980)">
        <g transform="translate(3.24,3.82) rotate(12.33) scale(0.960)">
        <g transform="translate(4.67,3.29) rotate(13.85) scale(0.940)" clip-path="url(#clipCircle)">
        <g transform="translate(4.96,2.47) rotate(13.38) scale(0.920)">
        <g transform="translate(4.03,1.43) rotate(10.70) scale(0.900)">
        <g transform="translate(2.12,0.27) rotate(5.74) scale(0.880)">
        <circle cx="0" cy="0" r="23.4" fill="url(#lgrad0)" filter="url(#shadow)" opacity="0.50"/>
        <text x="0" y="5" text-anchor="middle" font-family="Arial, sans-serif" font-size="14" fill="#FFFFFF" opacity="0.50">566</text>
      </g>
      </g>
      </g>
      </g>
      </g>
      </g>
      </g>
  </g>
  <g transform="translate(74.6, 645.5)">
      <g transform="translate(3.24,3.05) rotate(4.89) scale(1.000)">
        <g transform="translate(4.67,2.15) rotate(9.19) scale(0.980)">
        <g transform="translate(4.96,1.05) rotate(12.33) scale(0.960)">
        <g transform="translate(4.03,-0.13) rotate(13.85) scale(0.940)">
        <g transform="translate(2.12,-1.31) rotate(13.38) scale(0.920)">
        <g transform="translate(-0.31,-2.37) rotate(10.70) scale(0.900)" mask="url(#maskGradient)">
        <g transform="translate(-2.67,-3.21) rotate(5.74) scale(0.880)">
        <path d="M0.0,-46.8 L13.8,-18.9 L44.5,-14.5 L22.3,7.2 L27.5,37.9 L0.0,23.4 L-27.5,37.9 L-22.3,7.2 L-44.5,-14.5 L-13.8,-18.9Z" fill="url(#rgrad1)" filter="url(#blur1)" opacity="0.62"/>
      </g>
      </g>
      </g>
      </g>
      </g>
      </g>
      </g>
  </g>
  <g transform="translate(305.3, 635.8)">
      <g transform="translate(4.96,-0.53) rotate(4.89) scale(1.000)">
        <g transform="translate(4.03,-1.68) rotate(9.19) scale(0.980)">
        <g transform="translate(2.12,-2.68) rotate(12.33) scale(0.960)">
        <g transform="translate(-0.31,-3.44) rotate(13.85) scale(0.940)">
        <g transform="translate(-2.67,-3.89) rotate(13.38) scale(0.920)">
        <g transform="translate(-4.37,-3.99) rotate(10.70) scale(0.900)">
        <g transform="translate(-5.00,-3.74) rotate(5.74) scale(0.880)">
        <rect x="-29.5" y="-29.5" width="58.9" height="58.9" rx="14.7" fill="url(#rgrad2)" filter="url(#shadow)" opacity="0.72"/>
        <circle cx="0" cy="0" r="19.6" fill="url(#rgrad3)" opacity="0.51"/>
      </g>
      </g>
      </g>
      </g>
      </g>
      </g>
      </g>
  </g>
  <g transform="translate(539.6, 637.4)">
      <g transform="translate(2.12,-3.62) rotate(4.89) scale(1.000)">
        <g transform="translate(-0.31,-3.96) rotate(9.19) scale(0.980)">
        <g transform="translate(-2.67,-3.95) rotate(12.33) scale(0.960)">
        <g transform="translate(-4.37,-3.58) rotate(13.85) scale(0.940)" clip-path="url(#clipRect)">
        <g transform="translate(-5.00,-2.89) rotate(13.38) scale(0.920)">
        <g transform="translate(-4.41,-1.95) rotate(10.70) scale(0.900)">
        <g transform="translate(-2.74,-0.83) rotate(5.74) scale(0.880)">
        <path d="M37.4,21.6 L0.0,43.2 L-37.4,21.6 L-37.4,-21.6 L-0.0,-43.2 L37.4,-21.6Z" fill="url(#lgrad3)" filter="url(#blur3)" opacity="0.81"/>
        <ellipse cx="0" cy="0" rx="18.0" ry="12.0" fill="#FFFFFF" opacity="0.41"/>
      </g>
      </g>
      </g>
      </g>
      </g>
      </g>
      </g>
  </g>
  <g transform="translate(774.0, 649.7)">
      <g transform="translate(-2.67,-3.38) rotate(4.89) scale(1.000)">
        <g transform="translate(-4.37,-2.60) rotate(9.19) scale(0.980)">
        <g transform="translate(-5.00,-1.59) rotate(12.33) scale(0.960)">
        <g transform="translate(-4.41,-0.43) rotate(13.85) scale(0.940)">
        <g transform="translate(-2.74,0.76) rotate(13.38) scale(0.920)">
        <g transform="translate(-0.40,1.89) rotate(10.70) scale(0.900)" mask="url(#maskDynamic)">
        <g transform="translate(2.04,2.85) rotate(5.74) scale(0.880)">
        <circle cx="0" cy="0" r="37.0" fill="url(#rgrad4)" filter="url(#shadow)" opacity="0.87"/>
        <text x="0" y="5" text-anchor="middle" font-family="Arial, sans-serif" font-size="14" fill="#FFFFFF" opacity="0.87">566</text>
      </g>
      </g>
      </g>
      </g>
      </g>
      </g>
      </g>
  </g>
  <g transform="translate(1005.0, 666.8)">
      <g transform="translate(-5.00,-0.03) rotate(4.89) scale(1.000)">
        <g transform="translate(-4.41,1.15) rotate(9.19) scale(0.980)">
        <g transform="translate(-2.74,2.23) rotate(12.33) scale(0.960)">
        <g transform="translate(-0.40,3.11) rotate(13.85) scale(0.940)">
        <g transform="translate(2.04,3.72) rotate(13.38) scale(0.920)">
        <g transform="translate(3.98,3.99) rotate(10.70) scale(0.900)">
        <g transform="translate(4.94,3.90) rotate(5.74) scale(0.880)">
        <path d="M0.0,-63.2 L18.6,-25.6 L60.1,-19.5 L30.0,9.8 L37.1,51.1 L0.0,31.6 L-37.1,51.1 L-30.0,9.8 L-60.1,-19.5 L-18.6,-25.6Z" fill="url(#rgrad0)" filter="url(#blur0)" opacity="0.90"/>
      </g>
      </g>
      </g>
      </g>
      </g>
      </g>
      </g>
  </g>
  <g transform="translate(1229.9, 680.7)">
      <g transform="translate(-2.74,3.35) rotate(4.89) scale(1.000)">
        <g transform="translate(-0.40,3.85) rotate(9.19) scale(0.980)">
        <g transform="translate(2.04,4.00) rotate(12.33) scale(0.960)">
        <g transform="translate(3.98,3.80) rotate(13.85) scale(0.940)" clip-path="url(#clipStar)">
        <g transform="translate(4.94,3.25) rotate(13.38) scale(0.920)">
        <g transform="translate(4.70,2.42) rotate(10.70) scale(0.900)">
        <g transform="translate(3.30,1.37) rotate(5.74) scale(0.880)">
        <rect x="-24.7" y="-24.7" width="49.4" height="49.4" rx="12.3" fill="url(#lgrad1)" filter="url(#shadow)" opacity="0.89"/>
        <circle cx="0" cy="0" r="16.5" fill="url(#rgrad2)" opacity="0.62"/>
      </g>
      </g>
      </g>
      </g>
      </g>
      </g>
      </g>
  </g>
  <g transform="translate(1447.4, 684.9)">
      <g transform="translate(2.04,3.65) rotate(4.89) scale(1.000)">
        <g transform="translate(3.98,3.01) rotate(9.19) scale(0.980)">
        <g transform="translate(4.94,2.09) rotate(12.33) scale(0.960)">
        <g transform="translate(4.70,0.99) rotate(13.85) scale(0.940)">
        <g transform="translate(3.30,-0.20) rotate(13.38) scale(0.920)">
        <g transform="translate(1.09,-1.37) rotate(10.70) scale(0.900)" mask="url(#maskStripes)">
        <g transform="translate(-1.38,-2.42) rotate(5.74) scale(0.880)">
        <path d="M23.6,13.6 L0.0,27.2 L-23.6,13.6 L-23.6,-13.6 L-0.0,-27.2 L23.6,-13.6Z" fill="url(#rgrad2)" filter="url(#blur2)" opacity="0.85"/>
        <ellipse cx="0" cy="0" rx="11.3" ry="7.6" fill="#FFFFFF" opacity="0.42"/>
      </g>
      </g>
      </g>
      </g>
      </g>
      </g>
      </g>
  </g>
  <g transform="translate(1658.3, 677.3)">
      <g transform="translate(4.94,0.60) rotate(4.89) scale(1.000)">
        <g transform="translate(4.70,-0.60) rotate(9.19) scale(0.980)">
        <g transform="translate(3.30,-1.74) rotate(12.33) scale(0.960)">
        <g transform="translate(1.09,-2.73) rotate(13.85) scale(0.940)">
        <g transform="translate(-1.38,-3.47) rotate(13.38) scale(0.920)">
        <g transform="translate(-3.51,-3.90) rotate(10.70) scale(0.900)">
        <g transform="translate(-4.79,-3.99) rotate(5.74) scale(0.880)">
        <circle cx="0" cy="0" r="27.4" fill="url(#rgrad3)" filter="url(#shadow)" opacity="0.77"/>
        <text x="0" y="5" text-anchor="middle" font-family="Arial, sans-serif" font-size="14" fill="#FFFFFF" opacity="0.77">566</text>
      </g>
      </g>
      </g>
      </g>
      </g>
      </g>
      </g>
  </g>
  <g transform="translate(104.6, 941.7)">
      <g transform="translate(3.30,-3.01) rotate(4.89) scale(1.000)">
        <g transform="translate(1.09,-3.65) rotate(9.19) scale(0.980)">
        <g transform="translate(-1.38,-3.97) rotate(12.33) scale(0.960)">
        <g transform="translate(-3.51,-3.94) rotate(13.85) scale(0.940)" clip-path="url(#clipDynamic)">
        <g transform="translate(-4.79,-3.55) rotate(13.38) scale(0.920)">
        <g transform="translate(-4.89,-2.85) rotate(10.70) scale(0.900)">
        <g transform="translate(-3.80,-1.89) rotate(5.74) scale(0.880)">
        <path d="M0.0,-69.0 L20.3,-27.9 L65.6,-21.3 L32.8,10.7 L40.6,55.8 L0.0,34.5 L-40.6,55.8 L-32.8,10.7 L-65.6,-21.3 L-20.3,-27.9Z" fill="url(#lgrad4)" filter="url(#blur4)" opacity="0.67"/>
      </g>
      </g>
      </g>
      </g>
      </g>
      </g>
      </g>
  </g>
  <g transform="translate(260.0, 226.7)" mask="url(#maskGradient)">
    <ellipse cx="0" cy="0" rx="200" ry="150" fill="url(#rgrad0)" filter="url(#blur3)" opacity="0.3"/>
  </g>
  <g transform="translate(701.3, 264.6)" mask="url(#maskCircleFade)">
    <ellipse cx="0" cy="0" rx="200" ry="150" fill="url(#rgrad1)" filter="url(#blur3)" opacity="0.3"/>
  </g>
  <g transform="translate(1233.3, 319.1)" mask="url(#maskStripes)">
    <ellipse cx="0" cy="0" rx="200" ry="150" fill="url(#rgrad2)" filter="url(#blur3)" opacity="0.3"/>
  </g>
</svg>