<?xml version="1.0" encoding="UTF-8"?>
<svg xmlns="http://www.w3.org/2000/svg" viewBox="0 0 1920 1080" width="1920" height="1080">
  <defs>
    <filter id="blur0" x="-50%" y="-50%" width="200%" height="200%">
      <feGaussianBlur in="SourceGraphic" stdDeviation="1"/>
    </filter>
    <filter id="blur1" x="-50%" y="-50%" width="200%" height="200%">
      <feGaussianBlur in="SourceGraphic" stdDeviation="3"/>
    </filter>
    <filter id="blur2" x="-50%" y="-50%" width="200%" height="200%">
      <feGaussianBlur in="SourceGraphic" stdDeviation="5"/>
    </filter>
    <filter id="blur3" x="-50%" y="-50%" width="200%" height="200%">
      <feGaussianBlur in="SourceGraphic" stdDeviation="7"/>
    </filter>
    <filter id="blur4" x="-50%" y="-50%" width="200%" height="200%">
      <feGaussianBlur in="SourceGraphic" stdDeviation="9"/>
    </filter>
    <filter id="shadow" x="-50%" y="-50%" width="200%" height="200%">
      <feGaussianBlur in="SourceAlpha" stdDeviation="3" result="blur"/>
      <feOffset in="blur" dx="4" dy="4" result="offsetBlur"/>
      <feMerge>
        <feMergeNode in="offsetBlur"/>
        <feMergeNode in="SourceGraphic"/>
      </feMerge>
    </filter>
    <linearGradient id="lgrad0" x1="0%" y1="0%" x2="0.0%" y2="50.4%">
      <stop offset="0%" stop-color="#FF6B6B"/>
      <stop offset="33%" stop-color="#4ECDC4"/>
      <stop offset="66%" stop-color="#45B7D1"/>
      <stop offset="100%" stop-color="#96E6A1"/>
    </linearGradient>
    <linearGradient id="lgrad1" x1="0%" y1="0%" x2="6.5%" y2="25.4%">
      <stop offset="0%" stop-color="#FFE66D"/>
      <stop offset="33%" stop-color="#FF6B6B"/>
      <stop offset="66%" stop-color="#C44D58"/>
      <stop offset="100%" stop-color="#8B0000"/>
    </linearGradient>
    <linearGradient id="lgrad2" x1="0%" y1="0%" x2="24.6%" y2="6.9%">
      <stop offset="0%" stop-color="#4169E1"/>
      <stop offset="33%" stop-color="#7B68EE"/>
      <stop offset="66%" stop-color="#9370DB"/>
      <stop offset="100%" stop-color="#FFD700"/>
    </linearGradient>
    <linearGradient id="lgrad3" x1="0%" y1="0%" x2="49.6%" y2="0.0%">
      <stop offset="0%" stop-color="#32CD32"/>
      <stop offset="33%" stop-color="#228B22"/>
      <stop offset="66%" stop-color="#006400"/>
      <stop offset="100%" stop-color="#ADFF2F"/>
    </linearGradient>
    <linearGradient id="lgrad4" x1="0%" y1="0%" x2="74.6%" y2="6.5%">
      <stop offset="0%" stop-color="#FF1493"/>
      <stop offset="33%" stop-color="#FF69B4"/>
      <stop offset="66%" stop-color="#FFB6C1"/>
      <stop offset="100%" stop-color="#FFC0CB"/>
    </linearGradient>
    <radialGradient id="rgrad0" cx="46.7%" cy="67.8%" r="60%">
      <stop offset="0%" stop-color="#FF6B6B" stop-opacity="1"/>
      <stop offset="50%" stop-color="#4ECDC4" stop-opacity="0.8"/>
      <stop offset="100%" stop-color="#45B7D1" stop-opacity="0.6"/>
    </radialGradient>
    <radialGradient id="rgrad1" cx="56.7%" cy="35.8%" r="60%">
      <stop offset="0%" stop-color="#FFE66D" stop-opacity="1"/>
      <stop offset="50%" stop-color="#FF6B6B" stop-opacity="0.8"/>
      <stop offset="100%" stop-color="#C44D58" stop-opacity="0.6"/>
    </radialGradient>
    <radialGradient id="rgrad2" cx="66.7%" cy="43.8%" r="60%">
      <stop offset="0%" stop-color="#4169E1" stop-opacity="1"/>
      <stop offset="50%" stop-color="#7B68EE" stop-opacity="0.8"/>
      <stop offset="100%" stop-color="#9370DB" stop-opacity="0.6"/>
    </radialGradient>
    <radialGradient id="rgrad3" cx="36.7%" cy="51.8%" r="60%">
      <stop offset="0%" stop-color="#32CD32" stop-opacity="1"/>
      <stop offset="50%" stop-color="#228B22" stop-opacity="0.8"/>
      <stop offset="100%" stop-color="#006400" stop-opacity="0.6"/>
    </radialGradient>
    <radialGradient id="rgrad4" cx="46.7%" cy="59.8%" r="60%">
      <stop offset="0%" stop-color="#FF1493" stop-opacity="1"/>
      <stop offset="50%" stop-color="#FF69B4" stop-opacity="0.8"/>
      <stop offset="100%" stop-color="#FFB6C1" stop-opacity="0.6"/>
    </radialGradient>
    <clipPath id="clipCircle">
      <circle cx="0" cy="0" r="50"/>
    </clipPath>
    <clipPath id="clipStar">
      <path d="M0.0,-50.0 L14.7,-20.2 L47.6,-15.5 L23.8,7.7 L29.4,40.5 L0.0,25.0 L-29.4,40.5 L-23.8,7.7 L-47.6,-15.5 L-14.7,-20.2Z"/>
    </clipPath>
    <clipPath id="clipHex">
      <path d="M39.0,22.5 L0.0,45.0 L-39.0,22.5 L-39.0,-22.5 L-0.0,-45.0 L39.0,-22.5Z"/>
    </clipPath>
    <clipPath id="clipRect">
      <rect x="-40" y="-30" width="80" height="60" rx="10"/>
    </clipPath>
    <clipPath id="clipDynamic">
      <circle cx="0" cy="0" r="34.0"/>
    </clipPath>
    <mask id="maskGradient" maskContentUnits="objectBoundingBox">
      <rect x="0" y="0" width="1" height="1" fill="url(#maskGrad)"/>
    </mask>
    <linearGradient id="maskGrad" x1="0%" y1="0%" x2="100%" y2="100%">
      <stop offset="0%" stop-color="white"/>
      <stop offset="100%" stop-color="black"/>
    </linearGradient>
    <mask id="maskCircleFade">
      <circle cx="0" cy="0" r="60" fill="white"/>
      <circle cx="0" cy="0" r="30" fill="black"/>
    </mask>
    <mask id="maskStripes">
      <rect x="-50" y="-50" width="100" height="100" fill="white"/>
      <rect x="-50" y="-40" width="100" height="10" fill="black"/>
      <rect x="-50" y="-20" width="100" height="10" fill="black"/>
      <rect x="-50" y="0" width="100" height="10" fill="black"/>
      <rect x="-50" y="20" width="100" height="10" fill="black"/>
      <rect x="-50" y="40" width="100" height="10" fill="black"/>
    </mask>
    <mask id="maskDynamic">
      <rect x="-60" y="-60" width="120" height="120" fill="white" fill-opacity="0.32"/>
      <circle cx="0" cy="0" r="25" fill="white"/>
    </mask>
  </defs>
  <rect width="1920" height="1080" fill="url(#lgrad0)"/>
  <g transform="translate(97.9, 124.9)">
      <g transform="translate(-0.35,3.99) rotate(0.17) scale(1.000)">
        <g transform="translate(2.09,3.89) rotate(-1.65) scale(0.980)">
        <g transform="translate(4.01,3.45) rotate(-5.36) scale(0.960)">
        <g transform="translate(4.95,2.70) rotate(-10.72) scale(0.940)" clip-path="url(#clipCircle)">
        <g transform="translate(4.68,1.70) rotate(-17.32) scale(0.920)">
        <g transform="translate(3.26,0.56) rotate(-24.67) scale(0.900)">
        <g transform="translate(1.05,-0.64) rotate(-32.16) scale(0.880)">
        <path d="M0.0,-60.5 L17.8,-24.5 L57.6,-18.7 L28.8,9.4 L35.6,49.0 L0.0,30.3 L-35.6,49.0 L-28.8,9.4 L-57.6,-18.7 L-17.8,-24.5Z" fill="url(#lgrad0)" filter="url(#blur0)" opacity="0.51"/>
      </g>
      </g>
      </g>
      </g>
      </g>
      </g>
      </g>
  </g>
  <g transform="translate(332.5, 120.2)">
      <g transform="translate(4.01,2.39) rotate(0.17) scale(1.000)">
        <g transform="translate(4.95,1.33) rotate(-1.65) scale(0.980)">
        <g transform="translate(4.68,0.16) rotate(-5.36) scale(0.960)">
        <g transform="translate(3.26,-1.03) rotate(-10.72) scale(0.940)">
        <g transform="translate(1.05,-2.12) rotate(-17.32) scale(0.920)">
        <g transform="translate(-1.43,-3.03) rotate(-24.67) scale(0.900)" mask="url(#maskCircleFade)">
        <g transform="translate(-3.55,-3.67) rotate(-32.16) scale(0.880)">
        <rect x="-23.8" y="-23.8" width="47.7" height="47.7" rx="11.9" fill="url(#rgrad1)" filter="url(#shadow)" opacity="0.40"/>
        <circle cx="0" cy="0" r="15.9" fill="url(#rgrad2)" opacity="0.28"/>
      </g>
      </g>
      </g>
      </g>
      </g>
      </g>
      </g>
  </g>
  <g transform="translate(564.1, 105.9)">
      <g transform="translate(4.68,-1.41) rotate(0.17) scale(1.000)">
        <g transform="translate(3.26,-2.45) rotate(-1.65) scale(0.980)">
        <g transform="translate(1.05,-3.28) rotate(-5.36) scale(0.960)">
        <g transform="translate(-1.43,-3.81) rotate(-10.72) scale(0.940)">
        <g transform="translate(-3.55,-4.00) rotate(-17.32) scale(0.920)">
        <g transform="translate(-4.80,-3.83) rotate(-24.67) scale(0.900)">
        <g transform="translate(-4.88,-3.33) rotate(-32.16) scale(0.880)">
        <path d="M24.0,13.8 L0.0,27.7 L-24.0,13.8 L-24.0,-13.8 L-0.0,-27.7 L24.0,-13.8Z" fill="url(#rgrad2)" filter="url(#blur2)" opacity="0.29"/>
        <ellipse cx="0" cy="0" rx="11.5" ry="7.7" fill="#FFFFFF" opacity="0.14"/>
      </g>
      </g>
      </g>
      </g>
      </g>
      </g>
      </g>
  </g>
  <g transform="translate(789.7, 88.9)">
      <g transform="translate(1.05,-3.91) rotate(0.17) scale(1.000)">
        <g transform="translate(-1.43,-3.98) rotate(-1.65) scale(0.980)">
        <g transform="translate(-3.55,-3.70) rotate(-5.36) scale(0.960)">
        <g transform="translate(-4.80,-3.09) rotate(-10.72) scale(0.940)" clip-path="url(#clipRect)">
        <g transform="translate(-4.88,-2.20) rotate(-17.32) scale(0.920)">
        <g transform="translate(-3.76,-1.11) rotate(-24.67) scale(0.900)">
        <g transform="translate(-1.73,0.07) rotate(-32.16) scale(0.880)">
        <circle cx="0" cy="0" r="28.7" fill="url(#lgrad3)" filter="url(#shadow)" opacity="0.20"/>
        <text x="0" y="5" text-anchor="middle" font-family="Arial, sans-serif" font-size="14" fill="#FFFFFF" opacity="0.20">989</text>
      </g>
      </g>
      </g>
      </g>
      </g>
      </g>
      </g>
  </g>
  <g transform="translate(1008.1, 77.1)">
      <g transform="translate(-3.55,-2.82) rotate(0.17) scale(1.000)">
        <g transform="translate(-4.80,-1.85) rotate(-1.65) scale(0.980)">
        <g transform="translate(-4.88,-0.72) rotate(-5.36) scale(0.960)">
        <g transform="translate(-3.76,0.47) rotate(-10.72) scale(0.940)">
        <g transform="translate(-1.73,1.63) rotate(-17.32) scale(0.920)">
        <g transform="translate(0.74,2.63) rotate(-24.67) scale(0.900)" mask="url(#maskGradient)">
        <g transform="translate(3.02,3.41) rotate(-32.16) scale(0.880)">
        <path d="M0.0,-71.0 L20.9,-28.7 L67.5,-21.9 L33.8,11.0 L41.7,57.4 L0.0,35.5 L-41.7,57.4 L-33.8,11.0 L-67.5,-21.9 L-20.9,-28.7Z" fill="url(#rgrad4)" filter="url(#blur4)" opacity="0.13"/>
      </g>
      </g>
      </g>
      </g>
      </g>
      </g>
      </g>
  </g>
  <g transform="translate(1219.6, 76.0)">
      <g transform="translate(-4.88,0.87) rotate(0.17) scale(1.000)">
        <g transform="translate(-3.76,1.98) rotate(-1.65) scale(0.980)">
        <g transform="translate(-1.73,2.92) rotate(-5.36) scale(0.960)">
        <g transform="translate(0.74,3.60) rotate(-10.72) scale(0.940)">
        <g transform="translate(3.02,3.95) rotate(-17.32) scale(0.920)">
        <g transform="translate(4.56,3.96) rotate(-24.67) scale(0.900)">
        <g transform="translate(4.99,3.61) rotate(-32.16) scale(0.880)">
        <rect x="-37.3" y="-37.3" width="74.5" height="74.5" rx="18.6" fill="url(#rgrad0)" filter="url(#shadow)" opacity="0.10"/>
        <circle cx="0" cy="0" r="24.8" fill="url(#rgrad1)" opacity="0.07"/>
      </g>
      </g>
      </g>
      </g>
      </g>
      </g>
      </g>
  </g>
  <g transform="translate(1426.3, 86.3)">
      <g transform="translate(-1.73,3.75) rotate(0.17) scale(1.000)">
        <g transform="translate(0.74,3.99) rotate(-1.65) scale(0.980)">
        <g transform="translate(3.02,3.88) rotate(-5.36) scale(0.960)">
        <g transform="translate(4.56,3.42) rotate(-10.72) scale(0.940)" clip-path="url(#clipStar)">
        <g transform="translate(4.99,2.65) rotate(-17.32) scale(0.920)">
        <g transform="translate(4.19,1.64) rotate(-24.67) scale(0.900)">
        <g transform="translate(2.37,0.49) rotate(-32.16) scale(0.880)">
        <path d="M33.6,19.4 L0.0,38.8 L-33.6,19.4 L-33.6,-19.4 L-0.0,-38.8 L33.6,-19.4Z" fill="url(#lgrad1)" filter="url(#blur1)" opacity="0.11"/>
        <ellipse cx="0" cy="0" rx="16.2" ry="10.8" fill="#FFFFFF" opacity="0.05"/>
      </g>
      </g>
      </g>
      </g>
      </g>
      </g>
      </g>
  </g>
  <g transform="translate(1631.4, 103.0)">
      <g transform="translate(3.02,3.19) rotate(0.17) scale(1.000)">
        <g transform="translate(4.56,2.33) rotate(-1.65) scale(0.980)">
        <g transform="translate(4.99,1.27) rotate(-5.36) scale(0.960)">
        <g transform="translate(4.19,0.09) rotate(-10.72) scale(0.940)">
        <g transform="translate(2.37,-1.09) rotate(-17.32) scale(0.920)">
        <g transform="translate(-0.03,-2.18) rotate(-24.67) scale(0.900)" mask="url(#maskDynamic)">
        <g transform="translate(-2.42,-3.07) rotate(-32.16) scale(0.880)">
        <circle cx="0" cy="0" r="25.3" fill="url(#rgrad2)" filter="url(#shadow)" opacity="0.15"/>
        <text x="0" y="5" text-anchor="middle" font-family="Arial, sans-serif" font-size="14" fill="#FFFFFF" opacity="0.15">989</text>
      </g>
      </g>
      </g>
      </g>
      </g>
      </g>
      </g>
  </g>
  <g transform="translate(78.7, 398.3)">
      <g transform="translate(4.99,-0.31) rotate(0.17) scale(1.000)">
        <g transform="translate(4.19,-1.47) rotate(-1.65) scale(0.980)">
        <g transform="translate(2.37,-2.51) rotate(-5.36) scale(0.960)">
        <g transform="translate(-0.03,-3.31) rotate(-10.72) scale(0.940)">
        <g transform="translate(-2.42,-3.83) rotate(-17.32) scale(0.920)">
        <g transform="translate(-4.22,-4.00) rotate(-24.67) scale(0.900)">
        <g transform="translate(-4.99,-3.81) rotate(-32.16) scale(0.880)">
        <path d="M0.0,-45.1 L13.3,-18.2 L42.9,-13.9 L21.4,7.0 L26.5,36.5 L0.0,22.5 L-26.5,36.5 L-21.4,7.0 L-42.9,-13.9 L-13.3,-18.2Z" fill="url(#rgrad3)" filter="url(#blur3)" opacity="0.22"/>
      </g>
      </g>
      </g>
      </g>
      </g>
      </g>
      </g>
  </g>
  <g transform="translate(291.2, 405.0)">
      <g transform="translate(2.37,-3.52) rotate(0.17) scale(1.000)">
        <g transform="translate(-0.03,-3.92) rotate(-1.65) scale(0.980)">
        <g transform="translate(-2.42,-3.98) rotate(-5.36) scale(0.960)">
        <g transform="translate(-4.22,-3.67) rotate(-10.72) scale(0.940)" clip-path="url(#clipDynamic)">
        <g transform="translate(-4.99,-3.04) rotate(-17.32) scale(0.920)">
        <g transform="translate(-4.53,-2.14) rotate(-24.67) scale(0.900)">
        <g transform="translate(-2.97,-1.05) rotate(-32.16) scale(0.880)">
        <rect x="-26.7" y="-26.7" width="53.3" height="53.3" rx="13.3" fill="url(#lgrad4)" filter="url(#shadow)" opacity="0.32"/>
        <circle cx="0" cy="0" r="17.8" fill="url(#rgrad0)" opacity="0.22"/>
      </g>
      </g>
      </g>
      </g>
      </g>
      </g>
      </g>
  </g>
  <g transform="translate(510.7, 399.9)">
      <g transform="translate(-2.42,-3.50) rotate(0.17) scale(1.000)">
        <g transform="translate(-4.22,-2.77) rotate(-1.65) scale(0.980)">
        <g transform="translate(-4.99,-1.79) rotate(-5.36) scale(0.960)">
        <g transform="translate(-4.53,-0.66) rotate(-10.72) scale(0.940)">
        <g transform="translate(-2.97,0.54) rotate(-17.32) scale(0.920)">
        <g transform="translate(-0.68,1.69) rotate(-24.67) scale(0.900)" mask="url(#maskStripes)">
        <g transform="translate(1.78,2.68) rotate(-32.16) scale(0.880)">
        <path d="M35.2,20.3 L0.0,40.6 L-35.2,20.3 L-35.2,-20.3 L-0.0,-40.6 L35.2,-20.3Z" fill="url(#rgrad0)" filter="url(#blur0)" opacity="0.43"/>
        <ellipse cx="0" cy="0" rx="16.9" ry="11.3" fill="#FFFFFF" opacity="0.21"/>
      </g>
      </g>
      </g>
      </g>
      </g>
      </g>
      </g>
  </g>
  <g transform="translate(737.4, 385.5)">
      <g transform="translate(-4.99,-0.26) rotate(0.17) scale(1.000)">
        <g transform="translate(-4.53,0.93) rotate(-1.65) scale(0.980)">
        <g transform="translate(-2.97,2.04) rotate(-5.36) scale(0.960)">
        <g transform="translate(-0.68,2.97) rotate(-10.72) scale(0.940)">
        <g transform="translate(1.78,3.63) rotate(-17.32) scale(0.920)">
        <g transform="translate(3.80,3.96) rotate(-24.67) scale(0.900)">
        <g transform="translate(4.89,3.95) rotate(-32.16) scale(0.880)">
        <circle cx="0" cy="0" r="37.5" fill="url(#rgrad1)" filter="url(#shadow)" opacity="0.55"/>
        <text x="0" y="5" text-anchor="middle" font-family="Arial, sans-serif" font-size="14" fill="#FFFFFF" opacity="0.55">989</text>
      </g>
      </g>
      </g>
      </g>
      </g>
      </g>
      </g>
  </g>
  <g transform="translate(969.6, 368.5)">
      <g transform="translate(-2.97,3.22) rotate(0.17) scale(1.000)">
        <g transform="translate(-0.68,3.78) rotate(-1.65) scale(0.980)">
        <g transform="translate(1.78,4.00) rotate(-5.36) scale(0.960)">
        <g transform="translate(3.80,3.86) rotate(-10.72) scale(0.940)" clip-path="url(#clipHex)">
        <g transform="translate(4.89,3.38) rotate(-17.32) scale(0.920)">
        <g transform="translate(4.79,2.60) rotate(-24.67) scale(0.900)">
        <g transform="translate(3.51,1.58) rotate(-32.16) scale(0.880)">
        <path d="M0.0,-68.5 L20.1,-27.7 L65.1,-21.2 L32.6,10.6 L40.3,55.4 L0.0,34.2 L-40.3,55.4 L-32.6,10.6 L-65.1,-21.2 L-20.1,-27.7Z" fill="url(#lgrad2)" filter="url(#blur2)" opacity="0.66"/>
      </g>
      </g>
      </g>
      </g>
      </g>
      </g>
      </g>
  </g>
  <g transform="translate(1204.4, 356.9)">
      <g transform="translate(1.78,3.74) rotate(0.17) scale(1.000)">
        <g transform="translate(3.80,3.15) rotate(-1.65) scale(0.980)">
        <g transform="translate(4.89,2.28) rotate(-5.36) scale(0.960)">
        <g transform="translate(4.79,1.21) rotate(-10.72) scale(0.940)">
        <g transform="translate(3.51,0.03) rotate(-17.32) scale(0.920)">
        <g transform="translate(1.37,-1.16) rotate(-24.67) scale(0.900)" mask="url(#maskCircleFade)">
        <g transform="translate(-1.11,-2.24) rotate(-32.16) scale(0.880)">
        <rect x="-27.1" y="-27.1" width="54.2" height="54.2" rx="13.5" fill="url(#rgrad3)" filter="url(#shadow)" opacity="0.76"/>
        <circle cx="0" cy="0" r="18.1" fill="url(#rgrad4)" opacity="0.54"/>
      </g>
      </g>
      </g>
      </g>
      </g>
      </g>
      </g>
  </g>
  <g transform="translate(1438.1, 356.2)">
      <g transform="translate(4.89,0.82) rotate(0.17) scale(1.000)">
        <g transform="translate(4.79,-0.37) rotate(-1.65) scale(0.980)">
        <g transform="translate(3.51,-1.53) rotate(-5.36) scale(0.960)">
        <g transform="translate(1.37,-2.56) rotate(-10.72) scale(0.940)">
        <g transform="translate(-1.11,-3.35) rotate(-17.32) scale(0.920)">
        <g transform="translate(-3.31,-3.85) rotate(-24.67) scale(0.900)">
        <g transform="translate(-4.70,-4.00) rotate(-32.16) scale(0.880)">
        <path d="M23.5,13.6 L0.0,27.1 L-23.5,13.6 L-23.5,-13.6 L-0.0,-27.1 L23.5,-13.6Z" fill="url(#rgrad4)" filter="url(#blur4)" opacity="0.84"/>
        <ellipse cx="0" cy="0" rx="11.3" ry="7.5" fill="#FFFFFF" opacity="0.42"/>
      </g>
      </g>
      </g>
      </g>
      </g>
      </g>
      </g>
  </g>
  <g transform="translate(1667.4, 366.6)">
      <g transform="translate(3.51,-2.85) rotate(0.17) scale(1.000)">
        <g transform="translate(1.37,-3.55) rotate(-1.65) scale(0.980)">
        <g transform="translate(-1.11,-3.94) rotate(-5.36) scale(0.960)">
        <g transform="translate(-3.31,-3.97) rotate(-10.72) scale(0.940)" clip-path="url(#clipCircle)">
        <g transform="translate(-4.70,-3.65) rotate(-17.32) scale(0.920)">
        <g transform="translate(-4.94,-3.00) rotate(-24.67) scale(0.900)">
        <g transform="translate(-3.97,-2.08) rotate(-32.16) scale(0.880)">
        <circle cx="0" cy="0" r="24.9" fill="url(#lgrad0)" filter="url(#shadow)" opacity="0.89"/>
        <text x="0" y="5" text-anchor="middle" font-family="Arial, sans-serif" font-size="14" fill="#FFFFFF" opacity="0.89">989</text>
      </g>
      </g>
      </g>
      </g>
      </g>
      </g>
      </g>
  </g>
  <g transform="translate(129.9, 663.4)">
      <g transform="translate(-1.11,-3.90) rotate(0.17) scale(1.000)">
        <g transform="translate(-3.31,-3.47) rotate(-1.65) scale(0.980)">
        <g transform="translate(-4.70,-2.72) rotate(-5.36) scale(0.960)">
        <g transform="translate(-4.94,-1.73) rotate(-10.72) scale(0.940)">
        <g transform="translate(-3.97,-0.59) rotate(-17.32) scale(0.920)">
        <g transform="translate(-2.03,0.61) rotate(-24.67) scale(0.900)" mask="url(#maskGradient)">
        <g transform="translate(0.41,1.75) rotate(-32.16) scale(0.880)">
        <path d="M0.0,-63.8 L18.8,-25.8 L60.7,-19.7 L30.3,9.9 L37.5,51.6 L0.0,31.9 L-37.5,51.6 L-30.3,9.9 L-60.7,-19.7 L-18.8,-25.8Z" fill="url(#rgrad1)" filter="url(#blur1)" opacity="0.90"/>
      </g>
      </g>
      </g>
      </g>
      </g>
      </g>
      </g>
  </g>
  <g transform="translate(345.1, 678.5)">
      <g transform="translate(-4.70,-1.36) rotate(0.17) scale(1.000)">
        <g transform="translate(-4.94,-0.19) rotate(-1.65) scale(0.980)">
        <g transform="translate(-3.97,1.00) rotate(-5.36) scale(0.960)">
        <g transform="translate(-2.03,2.10) rotate(-10.72) scale(0.940)">
        <g transform="translate(0.41,3.01) rotate(-17.32) scale(0.920)">
        <g transform="translate(2.75,3.65) rotate(-24.67) scale(0.900)">
        <g transform="translate(4.41,3.97) rotate(-32.16) scale(0.880)">
        <rect x="-37.1" y="-37.1" width="74.3" height="74.3" rx="18.6" fill="url(#rgrad2)" filter="url(#shadow)" opacity="0.88"/>
        <circle cx="0" cy="0" r="24.8" fill="url(#rgrad3)" opacity="0.61"/>
      </g>
      </g>
      </g>
      </g>
      </g>
      </g>
      </g>
  </g>
  <g transform="translate(554.2, 685.0)">
      <g transform="translate(-3.97,2.43) rotate(0.17) scale(1.000)">
        <g transform="translate(-2.03,3.26) rotate(-1.65) scale(0.980)">
        <g transform="translate(0.41,3.80) rotate(-5.36) scale(0.960)">
        <g transform="translate(2.75,4.00) rotate(-10.72) scale(0.940)" clip-path="url(#clipRect)">
        <g transform="translate(4.41,3.84) rotate(-17.32) scale(0.920)">
        <g transform="translate(5.00,3.34) rotate(-24.67) scale(0.900)">
        <g transform="translate(4.36,2.54) rotate(-32.16) scale(0.880)">
        <path d="M37.2,21.5 L0.0,43.0 L-37.2,21.5 L-37.2,-21.5 L-0.0,-43.0 L37.2,-21.5Z" fill="url(#lgrad3)" filter="url(#blur3)" opacity="0.82"/>
        <ellipse cx="0" cy="0" rx="17.9" ry="11.9" fill="#FFFFFF" opacity="0.41"/>
      </g>
      </g>
      </g>
      </g>
      </g>
      </g>
      </g>
  </g>
  <g transform="translate(759.8, 679.7)">
      <g transform="translate(0.41,3.99) rotate(0.17) scale(1.000)">
        <g transform="translate(2.75,3.71) rotate(-1.65) scale(0.980)">
        <g transform="translate(4.41,3.11) rotate(-5.36) scale(0.960)">
        <g transform="translate(5.00,2.22) rotate(-10.72) scale(0.940)">
        <g transform="translate(4.36,1.14) rotate(-17.32) scale(0.920)">
        <g transform="translate(2.66,-0.04) rotate(-24.67) scale(0.900)" mask="url(#maskDynamic)">
        <g transform="translate(0.30,-1.22) rotate(-32.16) scale(0.880)">
        <circle cx="0" cy="0" r="29.1" fill="url(#rgrad4)" filter="url(#shadow)" opacity="0.73"/>
        <text x="0" y="5" text-anchor="middle" font-family="Arial, sans-serif" font-size="14" fill="#FFFFFF" opacity="0.73">989</text>
      </g>
      </g>
      </g>
      </g>
      </g>
      </g>
      </g>
  </g>
  <g transform="translate(965.5, 665.1)">
      <g transform="translate(4.41,1.88) rotate(0.17) scale(1.000)">
        <g transform="translate(5.00,0.75) rotate(-1.65) scale(0.980)">
        <g transform="translate(4.36,-0.44) rotate(-5.36) scale(0.960)">
        <g transform="translate(2.66,-1.60) rotate(-10.72) scale(0.940)">
        <g transform="translate(0.30,-2.61) rotate(-17.32) scale(0.920)">
        <g transform="translate(-2.13,-3.39) rotate(-24.67) scale(0.900)">
        <g transform="translate(-4.04,-3.87) rotate(-32.16) scale(0.880)">
        <path d="M0.0,-46.5 L13.7,-18.8 L44.2,-14.4 L22.1,7.2 L27.3,37.6 L0.0,23.3 L-27.3,37.6 L-22.1,7.2 L-44.2,-14.4 L-13.7,-18.8Z" fill="url(#rgrad0)" filter="url(#blur0)" opacity="0.62"/>
      </g>
      </g>
      </g>
      </g>
      </g>
      </g>
      </g>
  </g>
  <g transform="translate(1174.7, 648.2)">
      <g transform="translate(4.36,-1.95) rotate(0.17) scale(1.000)">
        <g transform="translate(2.66,-2.90) rotate(-1.65) scale(0.980)">
        <g transform="translate(0.30,-3.58) rotate(-5.36) scale(0.960)">
        <g transform="translate(-2.13,-3.95) rotate(-10.72) scale(0.940)" clip-path="url(#clipStar)">
        <g transform="translate(-4.04,-3.96) rotate(-17.32) scale(0.920)">
        <g transform="translate(-4.96,-3.62) rotate(-24.67) scale(0.900)">
        <g transform="translate(-4.66,-2.95) rotate(-32.16) scale(0.880)">
        <rect x="-23.6" y="-23.6" width="47.2" height="47.2" rx="11.8" fill="url(#lgrad1)" filter="url(#shadow)" opacity="0.51"/>
        <circle cx="0" cy="0" r="15.7" fill="url(#rgrad2)" opacity="0.35"/>
      </g>
      </g>
      </g>
      </g>
      </g>
      </g>
      </g>
  </g>
  <g transform="translate(1390.1, 636.8)">
      <g transform="translate(0.30,-3.99) rotate(0.17) scale(1.000)">
        <g transform="translate(-2.13,-3.89) rotate(-1.65) scale(0.980)">
        <g transform="translate(-4.04,-3.43) rotate(-5.36) scale(0.960)">
        <g transform="translate(-4.96,-2.67) rotate(-10.72) scale(0.940)">
        <g transform="translate(-4.66,-1.67) rotate(-17.32) scale(0.920)">
        <g transform="translate(-3.23,-0.52) rotate(-24.67) scale(0.900)" mask="url(#maskStripes)">
        <g transform="translate(-1.00,0.67) rotate(-32.16) scale(0.880)">
        <path d="M31.0,17.9 L0.0,35.8 L-31.0,17.9 L-31.0,-17.9 L-0.0,-35.8 L31.0,-17.9Z" fill="url(#rgrad2)" filter="url(#blur2)" opacity="0.39"/>
        <ellipse cx="0" cy="0" rx="14.9" ry="9.9" fill="#FFFFFF" opacity="0.19"/>
      </g>
      </g>
      </g>
      </g>
      </g>
      </g>
      </g>
  </g>
  <g transform="translate(1612.8, 636.3)">
      <g transform="translate(-4.04,-2.36) rotate(0.17) scale(1.000)">
        <g transform="translate(-4.96,-1.30) rotate(-1.65) scale(0.980)">
        <g transform="translate(-4.66,-0.12) rotate(-5.36) scale(0.960)">
        <g transform="translate(-3.23,1.06) rotate(-10.72) scale(0.940)">
        <g transform="translate(-1.00,2.15) rotate(-17.32) scale(0.920)">
        <g transform="translate(1.47,3.05) rotate(-24.67) scale(0.900)">
        <g transform="translate(3.58,3.68) rotate(-32.16) scale(0.880)">
        <circle cx="0" cy="0" r="36.2" fill="url(#rgrad3)" filter="url(#shadow)" opacity="0.28"/>
        <text x="0" y="5" text-anchor="middle" font-family="Arial, sans-serif" font-size="14" fill="#FFFFFF" opacity="0.28">989</text>
      </g>
      </g>
      </g>
      </g>
      </g>
      </g>
      </g>
  </g>
  <g transform="translate(82.2, 927.0)">
      <g transform="translate(-4.66,1.44) rotate(0.17) scale(1.000)">
        <g transform="translate(-3.23,2.48) rotate(-1.65) scale(0.980)">
        <g transform="translate(-1.00,3.30) rotate(-5.36) scale(0.960)">
        <g transform="translate(1.47,3.82) rotate(-10.72) scale(0.940)" clip-path="url(#clipDynamic)">
        <g transform="translate(3.58,4.00) rotate(-17.32) scale(0.920)">
        <g transform="translate(4.82,3.82) rotate(-24.67) scale(0.900)">
        <g transform="translate(4.87,3.31) rotate(-32.16) scale(0.880)">
        <path d="M0.0,-73.8 L21.7,-29.9 L70.2,-22.8 L35.1,11.4 L43.4,59.7 L0.0,36.9 L-43.4,59.7 L-35.1,11.4 L-70.2,-22.8 L-21.7,-29.9Z" fill="url(#lgrad4)" filter="url(#blur4)" opacity="0.19"/>
      </g>
      </g>
      </g>
      </g>
      </g>
      </g>
      </g>
  </g>
  <g transform="translate(293.1, 379.8)" mask="url(#maskGradient)">
    <ellipse cx="0" cy="0" rx="200" ry="150" fill="url(#rgrad0)" filter="url(#blur3)" opacity="0.3"/>
  </g>
  <g transform="translate(880.2, 364.6)" mask="url(#maskCircleFade)">
    <ellipse cx="0" cy="0" rx="200" ry="150" fill="url(#rgrad1)" filter="url(#blur3)" opacity="0.3"/>
  </g>
  <g transform="translate(1393.6, 319.0)" mask="url(#maskStripes)">
    <ellipse cx="0" cy="0" rx="200" ry="150" fill="url(#rgrad2)" filter="url(#blur3)" opacity="0.3"/>
  </g>
</svg>