<?xml version="1.0" encoding="UTF-8"?>
<svg xmlns="http://www.w3.org/2000/svg" viewBox="0 0 1920 1080" width="1920" height="1080">
  <defs>
    <filter id="blur0" x="-50%" y="-50%" width="200%" height="200%">
      <feGaussianBlur in="SourceGraphic" stdDeviation="1"/>
    </filter>
    <filter id="blur1" x="-50%" y="-50%" width="200%" height="200%">
      <feGaussianBlur in="SourceGraphic" stdDeviation="3"/>
    </filter>
    <filter id="blur2" x="-50%" y="-50%" width="200%" height="200%">
      <feGaussianBlur in="SourceGraphic" stdDeviation="5"/>
    </filter>
    <filter id="blur3" x="-50%" y="-50%" width="200%" height="200%">
      <feGaussianBlur in="SourceGraphic" stdDeviation="7"/>
    </filter>
    <filter id="blur4" x="-50%" y="-50%" width="200%" height="200%">
      <feGaussianBlur in="SourceGraphic" stdDeviation="9"/>
    </filter>
    <filter id="shadow" x="-50%" y="-50%" width="200%" height="200%">
      <feGaussianBlur in="SourceAlpha" stdDeviation="3" result="blur"/>
      <feOffset in="blur" dx="4" dy="4" result="offsetBlur"/>
      <feMerge>
        <feMergeNode in="offsetBlur"/>
        <feMergeNode in="SourceGraphic"/>
      </feMerge>
    </filter>
    <linearGradient id="lgrad0" x1="0%" y1="0%" x2="95.9%" y2="30.1%">
      <stop offset="0%" stop-color="#FF6B6B"/>
      <stop offset="33%" stop-color="#4ECDC4"/>
      <stop offset="66%" stop-color="#45B7D1"/>
      <stop offset="100%" stop-color="#96E6A1"/>
    </linearGradient>
    <linearGradient id="lgrad1" x1="0%" y1="0%" x2="99.7%" y2="55.7%">
      <stop offset="0%" stop-color="#FFE66D"/>
      <stop offset="33%" stop-color="#FF6B6B"/>
      <stop offset="66%" stop-color="#C44D58"/>
      <stop offset="100%" stop-color="#8B0000"/>
    </linearGradient>
    <linearGradient id="lgrad2" x1="0%" y1="0%" x2="90.2%" y2="79.7%">
      <stop offset="0%" stop-color="#4169E1"/>
      <stop offset="33%" stop-color="#7B68EE"/>
      <stop offset="66%" stop-color="#9370DB"/>
      <stop offset="100%" stop-color="#FFD700"/>
    </linearGradient>
    <linearGradient id="lgrad3" x1="0%" y1="0%" x2="69.9%" y2="95.9%">
      <stop offset="0%" stop-color="#32CD32"/>
      <stop offset="33%" stop-color="#228B22"/>
      <stop offset="66%" stop-color="#006400"/>
      <stop offset="100%" stop-color="#ADFF2F"/>
    </linearGradient>
    <linearGradient id="lgrad4" x1="0%" y1="0%" x2="44.3%" y2="99.7%">
      <stop offset="0%" stop-color="#FF1493"/>
      <stop offset="33%" stop-color="#FF69B4"/>
      <stop offset="66%" stop-color="#FFB6C1"/>
      <stop offset="100%" stop-color="#FFC0CB"/>
    </linearGradient>
    <radialGradient id="rgrad0" cx="44.9%" cy="66.6%" r="60%">
      <stop offset="0%" stop-color="#FF6B6B" stop-opacity="1"/>
      <stop offset="50%" stop-color="#4ECDC4" stop-opacity="0.8"/>
      <stop offset="100%" stop-color="#45B7D1" stop-opacity="0.6"/>
    </radialGradient>
    <radialGradient id="rgrad1" cx="54.9%" cy="34.6%" r="60%">
      <stop offset="0%" stop-color="#FFE66D" stop-opacity="1"/>
      <stop offset="50%" stop-color="#FF6B6B" stop-opacity="0.8"/>
      <stop offset="100%" stop-color="#C44D58" stop-opacity="0.6"/>
    </radialGradient>
    <radialGradient id="rgrad2" cx="64.9%" cy="42.6%" r="60%">
      <stop offset="0%" stop-color="#4169E1" stop-opacity="1"/>
      <stop offset="50%" stop-color="#7B68EE" stop-opacity="0.8"/>
      <stop offset="100%" stop-color="#9370DB" stop-opacity="0.6"/>
    </radialGradient>
    <radialGradient id="rgrad3" cx="34.9%" cy="50.6%" r="60%">
      <stop offset="0%" stop-color="#32CD32" stop-opacity="1"/>
      <stop offset="50%" stop-color="#228B22" stop-opacity="0.8"/>
      <stop offset="100%" stop-color="#006400" stop-opacity="0.6"/>
    </radialGradient>
    <radialGradient id="rgrad4" cx="44.9%" cy="58.6%" r="60%">
      <stop offset="0%" stop-color="#FF1493" stop-opacity="1"/>
      <stop offset="50%" stop-color="#FF69B4" stop-opacity="0.8"/>
      <stop offset="100%" stop-color="#FFB6C1" stop-opacity="0.6"/>
    </radialGradient>
    <clipPath id="clipCircle">
      <circle cx="0" cy="0" r="50"/>
    </clipPath>
    <clipPath id="clipStar">
      <path d="M0.0,-50.0 L14.7,-20.2 L47.6,-15.5 L23.8,7.7 L29.4,40.5 L0.0,25.0 L-29.4,40.5 L-23.8,7.7 L-47.6,-15.5 L-14.7,-20.2Z"/>
    </clipPath>
    <clipPath id="clipHex">
      <path d="M39.0,22.5 L0.0,45.0 L-39.0,22.5 L-39.0,-22.5 L-0.0,-45.0 L39.0,-22.5Z"/>
    </clipPath>
    <clipPath id="clipRect">
      <rect x="-40" y="-30" width="80" height="60" rx="10"/>
    </clipPath>
    <clipPath id="clipDynamic">
      <circle cx="0" cy="0" r="27.6"/>
    </clipPath>
    <mask id="maskGradient" maskContentUnits="objectBoundingBox">
      <rect x="0" y="0" width="1" height="1" fill="url(#maskGrad)"/>
    </mask>
    <linearGradient id="maskGrad" x1="0%" y1="0%" x2="100%" y2="100%">
      <stop offset="0%" stop-color="white"/>
      <stop offset="100%" stop-color="black"/>
    </linearGradient>
    <mask id="maskCircleFade">
      <circle cx="0" cy="0" r="60" fill="white"/>
      <circle cx="0" cy="0" r="30" fill="black"/>
    </mask>
    <mask id="maskStripes">
      <rect x="-50" y="-50" width="100" height="100" fill="white"/>
      <rect x="-50" y="-40" width="100" height="10" fill="black"/>
      <rect x="-50" y="-20" width="100" height="10" fill="black"/>
      <rect x="-50" y="0" width="100" height="10" fill="black"/>
      <rect x="-50" y="20" width="100" height="10" fill="black"/>
      <rect x="-50" y="40" width="100" height="10" fill="black"/>
    </mask>
    <mask id="maskDynamic">
      <rect x="-60" y="-60" width="120" height="120" fill="white" fill-opacity="0.98"/>
      <circle cx="0" cy="0" r="25" fill="white"/>
    </mask>
  </defs>
  <rect width="1920" height="1080" fill="url(#lgrad0)"/>
  <g transform="translate(85.1, 78.3)">
      <g transform="translate(-2.48,-3.47) rotate(4.83) scale(1.000)">
        <g transform="translate(-4.26,-2.73) rotate(8.96) scale(0.980)">
        <g transform="translate(-4.99,-1.75) rotate(11.86) scale(0.960)">
        <g transform="translate(-4.51,-0.61) rotate(13.06) scale(0.940)" clip-path="url(#clipCircle)">
        <g transform="translate(-2.92,0.59) rotate(12.23) scale(0.920)">
        <g transform="translate(-0.61,1.73) rotate(9.19) scale(0.900)">
        <g transform="translate(1.84,2.72) rotate(3.89) scale(0.880)">
        <path d="M0.0,-74.5 L21.9,-30.1 L70.9,-23.0 L35.4,11.5 L43.8,60.3 L0.0,37.2 L-43.8,60.3 L-35.4,11.5 L-70.9,-23.0 L-21.9,-30.1Z" fill="url(#lgrad0)" filter="url(#blur0)" opacity="0.89"/>
      </g>
      </g>
      </g>
      </g>
      </g>
      </g>
      </g>
  </g>
  <g transform="translate(294.5, 91.4)">
      <g transform="translate(-4.99,-0.21) rotate(4.83) scale(1.000)">
        <g transform="translate(-4.51,0.98) rotate(8.96) scale(0.980)">
        <g transform="translate(-2.92,2.08) rotate(11.86) scale(0.960)">
        <g transform="translate(-0.61,3.00) rotate(13.06) scale(0.940)">
        <g transform="translate(1.84,3.65) rotate(12.23) scale(0.920)">
        <g transform="translate(3.85,3.97) rotate(9.19) scale(0.900)" mask="url(#maskCircleFade)">
        <g transform="translate(4.91,3.94) rotate(3.89) scale(0.880)">
        <rect x="-32.3" y="-32.3" width="64.6" height="64.6" rx="16.1" fill="url(#rgrad1)" filter="url(#shadow)" opacity="0.84"/>
        <circle cx="0" cy="0" r="21.5" fill="url(#rgrad2)" opacity="0.59"/>
      </g>
      </g>
      </g>
      </g>
      </g>
      </g>
      </g>
  </g>
  <g transform="translate(510.0, 108.5)">
      <g transform="translate(-2.92,3.25) rotate(4.83) scale(1.000)">
        <g transform="translate(-0.61,3.79) rotate(8.96) scale(0.980)">
        <g transform="translate(1.84,4.00) rotate(11.86) scale(0.960)">
        <g transform="translate(3.85,3.85) rotate(13.06) scale(0.940)">
        <g transform="translate(4.91,3.35) rotate(12.23) scale(0.920)">
        <g transform="translate(4.77,2.56) rotate(9.19) scale(0.900)">
        <g transform="translate(3.46,1.53) rotate(3.89) scale(0.880)">
        <path d="M26.2,15.1 L0.0,30.3 L-26.2,15.1 L-26.2,-15.1 L-0.0,-30.3 L26.2,-15.1Z" fill="url(#rgrad2)" filter="url(#blur2)" opacity="0.76"/>
        <ellipse cx="0" cy="0" rx="12.6" ry="8.4" fill="#FFFFFF" opacity="0.38"/>
      </g>
      </g>
      </g>
      </g>
      </g>
      </g>
      </g>
  </g>
  <g transform="translate(733.0, 121.7)">
      <g transform="translate(1.84,3.72) rotate(4.83) scale(1.000)">
        <g transform="translate(3.85,3.12) rotate(8.96) scale(0.980)">
        <g transform="translate(4.91,2.24) rotate(11.86) scale(0.960)">
        <g transform="translate(4.77,1.16) rotate(13.06) scale(0.940)" clip-path="url(#clipRect)">
        <g transform="translate(3.46,-0.03) rotate(12.23) scale(0.920)">
        <g transform="translate(1.31,-1.21) rotate(9.19) scale(0.900)">
        <g transform="translate(-1.17,-2.28) rotate(3.89) scale(0.880)">
        <circle cx="0" cy="0" r="22.6" fill="url(#lgrad3)" filter="url(#shadow)" opacity="0.66"/>
        <text x="0" y="5" text-anchor="middle" font-family="Arial, sans-serif" font-size="14" fill="#FFFFFF" opacity="0.66">583</text>
      </g>
      </g>
      </g>
      </g>
      </g>
      </g>
      </g>
  </g>
  <g transform="translate(962.5, 124.6)">
      <g transform="translate(4.91,0.77) rotate(4.83) scale(1.000)">
        <g transform="translate(4.77,-0.43) rotate(8.96) scale(0.980)">
        <g transform="translate(3.46,-1.58) rotate(11.86) scale(0.960)">
        <g transform="translate(1.31,-2.60) rotate(13.06) scale(0.940)">
        <g transform="translate(-1.17,-3.38) rotate(12.23) scale(0.920)">
        <g transform="translate(-3.36,-3.86) rotate(9.19) scale(0.900)" mask="url(#maskGradient)">
        <g transform="translate(-4.72,-4.00) rotate(3.89) scale(0.880)">
        <path d="M0.0,-53.4 L15.7,-21.6 L50.8,-16.5 L25.4,8.3 L31.4,43.2 L0.0,26.7 L-31.4,43.2 L-25.4,8.3 L-50.8,-16.5 L-15.7,-21.6Z" fill="url(#rgrad4)" filter="url(#blur4)" opacity="0.54"/>
      </g>
      </g>
      </g>
      </g>
      </g>
      </g>
      </g>
  </g>
  <g transform="translate(1196.3, 116.0)">
      <g transform="translate(3.46,-2.89) rotate(4.83) scale(1.000)">
        <g transform="translate(1.31,-3.58) rotate(8.96) scale(0.980)">
        <g transform="translate(-1.17,-3.95) rotate(11.86) scale(0.960)">
        <g transform="translate(-3.36,-3.96) rotate(13.06) scale(0.940)">
        <g transform="translate(-4.72,-3.63) rotate(12.23) scale(0.920)">
        <g transform="translate(-4.93,-2.97) rotate(9.19) scale(0.900)">
        <g transform="translate(-3.93,-2.04) rotate(3.89) scale(0.880)">
        <rect x="-33.9" y="-33.9" width="67.8" height="67.8" rx="17.0" fill="url(#rgrad0)" filter="url(#shadow)" opacity="0.42"/>
        <circle cx="0" cy="0" r="22.6" fill="url(#rgrad1)" opacity="0.30"/>
      </g>
      </g>
      </g>
      </g>
      </g>
      </g>
      </g>
  </g>
  <g transform="translate(1431.1, 99.8)">
      <g transform="translate(-1.17,-3.89) rotate(4.83) scale(1.000)">
        <g transform="translate(-3.36,-3.44) rotate(8.96) scale(0.980)">
        <g transform="translate(-4.72,-2.68) rotate(11.86) scale(0.960)">
        <g transform="translate(-4.93,-1.69) rotate(13.06) scale(0.940)" clip-path="url(#clipStar)">
        <g transform="translate(-3.93,-0.54) rotate(12.23) scale(0.920)">
        <g transform="translate(-1.97,0.66) rotate(9.19) scale(0.900)">
        <g transform="translate(0.47,1.79) rotate(3.89) scale(0.880)">
        <path d="M39.0,22.5 L0.0,45.0 L-39.0,22.5 L-39.0,-22.5 L-0.0,-45.0 L39.0,-22.5Z" fill="url(#lgrad1)" filter="url(#blur1)" opacity="0.31"/>
        <ellipse cx="0" cy="0" rx="18.7" ry="12.5" fill="#FFFFFF" opacity="0.16"/>
      </g>
      </g>
      </g>
      </g>
      </g>
      </g>
      </g>
  </g>
  <g transform="translate(1663.1, 83.8)">
      <g transform="translate(-4.72,-1.32) rotate(4.83) scale(1.000)">
        <g transform="translate(-4.93,-0.14) rotate(8.96) scale(0.980)">
        <g transform="translate(-3.93,1.05) rotate(11.86) scale(0.960)">
        <g transform="translate(-1.97,2.14) rotate(13.06) scale(0.940)">
        <g transform="translate(0.47,3.04) rotate(12.23) scale(0.920)">
        <g transform="translate(2.80,3.67) rotate(9.19) scale(0.900)" mask="url(#maskDynamic)">
        <g transform="translate(4.44,3.98) rotate(3.89) scale(0.880)">
        <circle cx="0" cy="0" r="34.2" fill="url(#rgrad2)" filter="url(#shadow)" opacity="0.22"/>
        <text x="0" y="5" text-anchor="middle" font-family="Arial, sans-serif" font-size="14" fill="#FFFFFF" opacity="0.22">583</text>
      </g>
      </g>
      </g>
      </g>
      </g>
      </g>
      </g>
  </g>
  <g transform="translate(129.4, 355.3)">
      <g transform="translate(-3.93,2.47) rotate(4.83) scale(1.000)">
        <g transform="translate(-1.97,3.29) rotate(8.96) scale(0.980)">
        <g transform="translate(0.47,3.81) rotate(11.86) scale(0.960)">
        <g transform="translate(2.80,4.00) rotate(13.06) scale(0.940)">
        <g transform="translate(4.44,3.83) rotate(12.23) scale(0.920)">
        <g transform="translate(5.00,3.31) rotate(9.19) scale(0.900)">
        <g transform="translate(4.33,2.50) rotate(3.89) scale(0.880)">
        <path d="M0.0,-54.1 L15.9,-21.9 L51.4,-16.7 L25.7,8.4 L31.8,43.8 L0.0,27.0 L-31.8,43.8 L-25.7,8.4 L-51.4,-16.7 L-15.9,-21.9Z" fill="url(#rgrad3)" filter="url(#blur3)" opacity="0.15"/>
      </g>
      </g>
      </g>
      </g>
      </g>
      </g>
      </g>
  </g>
  <g transform="translate(348.6, 358.5)">
      <g transform="translate(0.47,3.98) rotate(4.83) scale(1.000)">
        <g transform="translate(2.80,3.69) rotate(8.96) scale(0.980)">
        <g transform="translate(4.44,3.07) rotate(11.86) scale(0.960)">
        <g transform="translate(5.00,2.18) rotate(13.06) scale(0.940)" clip-path="url(#clipDynamic)">
        <g transform="translate(4.33,1.09) rotate(12.23) scale(0.920)">
        <g transform="translate(2.60,-0.09) rotate(9.19) scale(0.900)">
        <g transform="translate(0.24,-1.27) rotate(3.89) scale(0.880)">
        <rect x="-22.6" y="-22.6" width="45.2" height="45.2" rx="11.3" fill="url(#lgrad4)" filter="url(#shadow)" opacity="0.11"/>
        <circle cx="0" cy="0" r="15.1" fill="url(#rgrad0)" opacity="0.07"/>
      </g>
      </g>
      </g>
      </g>
      </g>
      </g>
      </g>
  </g>
  <g transform="translate(560.8, 371.8)">
      <g transform="translate(4.44,1.84) rotate(4.83) scale(1.000)">
        <g transform="translate(5.00,0.70) rotate(8.96) scale(0.980)">
        <g transform="translate(4.33,-0.49) rotate(11.86) scale(0.960)">
        <g transform="translate(2.60,-1.64) rotate(13.06) scale(0.940)">
        <g transform="translate(0.24,-2.65) rotate(12.23) scale(0.920)">
        <g transform="translate(-2.19,-3.42) rotate(9.19) scale(0.900)" mask="url(#maskStripes)">
        <g transform="translate(-4.07,-3.88) rotate(3.89) scale(0.880)">
        <path d="M25.9,15.0 L0.0,30.0 L-25.9,15.0 L-25.9,-15.0 L-0.0,-30.0 L25.9,-15.0Z" fill="url(#rgrad0)" filter="url(#blur0)" opacity="0.10"/>
        <ellipse cx="0" cy="0" rx="12.5" ry="8.3" fill="#FFFFFF" opacity="0.05"/>
      </g>
      </g>
      </g>
      </g>
      </g>
      </g>
      </g>
  </g>
  <g transform="translate(767.8, 388.9)">
      <g transform="translate(4.33,-2.00) rotate(4.83) scale(1.000)">
        <g transform="translate(2.60,-2.93) rotate(8.96) scale(0.980)">
        <g transform="translate(0.24,-3.61) rotate(11.86) scale(0.960)">
        <g transform="translate(-2.19,-3.96) rotate(13.06) scale(0.940)">
        <g transform="translate(-4.07,-3.95) rotate(12.23) scale(0.920)">
        <g transform="translate(-4.97,-3.60) rotate(9.19) scale(0.900)">
        <g transform="translate(-4.64,-2.92) rotate(3.89) scale(0.880)">
        <circle cx="0" cy="0" r="32.0" fill="url(#rgrad1)" filter="url(#shadow)" opacity="0.13"/>
        <text x="0" y="5" text-anchor="middle" font-family="Arial, sans-serif" font-size="14" fill="#FFFFFF" opacity="0.13">583</text>
      </g>
      </g>
      </g>
      </g>
      </g>
      </g>
      </g>
  </g>
  <g transform="translate(973.0, 401.9)">
      <g transform="translate(0.24,-4.00) rotate(4.83) scale(1.000)">
        <g transform="translate(-2.19,-3.87) rotate(8.96) scale(0.980)">
        <g transform="translate(-4.07,-3.40) rotate(11.86) scale(0.960)">
        <g transform="translate(-4.97,-2.63) rotate(13.06) scale(0.940)" clip-path="url(#clipHex)">
        <g transform="translate(-4.64,-1.62) rotate(12.23) scale(0.920)">
        <g transform="translate(-3.18,-0.47) rotate(9.19) scale(0.900)">
        <g transform="translate(-0.94,0.72) rotate(3.89) scale(0.880)">
        <path d="M0.0,-74.3 L21.8,-30.1 L70.7,-23.0 L35.3,11.5 L43.7,60.1 L0.0,37.1 L-43.7,60.1 L-35.3,11.5 L-70.7,-23.0 L-21.8,-30.1Z" fill="url(#lgrad2)" filter="url(#blur2)" opacity="0.20"/>
      </g>
      </g>
      </g>
      </g>
      </g>
      </g>
      </g>
  </g>
  <g transform="translate(1179.9, 404.5)">
      <g transform="translate(-4.07,-2.32) rotate(4.83) scale(1.000)">
        <g transform="translate(-4.97,-1.25) rotate(8.96) scale(0.980)">
        <g transform="translate(-4.64,-0.07) rotate(11.86) scale(0.960)">
        <g transform="translate(-3.18,1.11) rotate(13.06) scale(0.940)">
        <g transform="translate(-0.94,2.20) rotate(12.23) scale(0.920)">
        <g transform="translate(1.53,3.09) rotate(9.19) scale(0.900)" mask="url(#maskCircleFade)">
        <g transform="translate(3.62,3.70) rotate(3.89) scale(0.880)">
        <rect x="-35.8" y="-35.8" width="71.5" height="71.5" rx="17.9" fill="url(#rgrad3)" filter="url(#shadow)" opacity="0.29"/>
        <circle cx="0" cy="0" r="23.8" fill="url(#rgrad4)" opacity="0.20"/>
      </g>
      </g>
      </g>
      </g>
      </g>
      </g>
      </g>
  </g>
  <g transform="translate(1391.7, 395.7)">
      <g transform="translate(-4.64,1.49) rotate(4.83) scale(1.000)">
        <g transform="translate(-3.18,2.52) rotate(8.96) scale(0.980)">
        <g transform="translate(-0.94,3.33) rotate(11.86) scale(0.960)">
        <g transform="translate(1.53,3.83) rotate(13.06) scale(0.940)">
        <g transform="translate(3.62,4.00) rotate(12.23) scale(0.920)">
        <g transform="translate(4.83,3.81) rotate(9.19) scale(0.900)">
        <g transform="translate(4.86,3.28) rotate(3.89) scale(0.880)">
        <path d="M30.2,17.5 L0.0,34.9 L-30.2,17.5 L-30.2,-17.5 L-0.0,-34.9 L30.2,-17.5Z" fill="url(#rgrad4)" filter="url(#blur4)" opacity="0.40"/>
        <ellipse cx="0" cy="0" rx="14.5" ry="9.7" fill="#FFFFFF" opacity="0.20"/>
      </g>
      </g>
      </g>
      </g>
      </g>
      </g>
      </g>
  </g>
  <g transform="translate(1610.4, 379.4)">
      <g transform="translate(-0.94,3.93) rotate(4.83) scale(1.000)">
        <g transform="translate(1.53,3.98) rotate(8.96) scale(0.980)">
        <g transform="translate(3.62,3.67) rotate(11.86) scale(0.960)">
        <g transform="translate(4.83,3.03) rotate(13.06) scale(0.940)" clip-path="url(#clipCircle)">
        <g transform="translate(4.86,2.12) rotate(12.23) scale(0.920)">
        <g transform="translate(3.69,1.03) rotate(9.19) scale(0.900)">
        <g transform="translate(1.62,-0.16) rotate(3.89) scale(0.880)">
        <circle cx="0" cy="0" r="23.2" fill="url(#lgrad0)" filter="url(#shadow)" opacity="0.52"/>
        <text x="0" y="5" text-anchor="middle" font-family="Arial, sans-serif" font-size="14" fill="#FFFFFF" opacity="0.52">583</text>
      </g>
      </g>
      </g>
      </g>
      </g>
      </g>
      </g>
  </g>
  <g transform="translate(76.4, 643.5)">
      <g transform="translate(3.62,2.76) rotate(4.83) scale(1.000)">
        <g transform="translate(4.83,1.78) rotate(8.96) scale(0.980)">
        <g transform="translate(4.86,0.64) rotate(11.86) scale(0.960)">
        <g transform="translate(3.69,-0.56) rotate(13.06) scale(0.940)">
        <g transform="translate(1.62,-1.70) rotate(12.23) scale(0.920)">
        <g transform="translate(-0.84,-2.70) rotate(9.19) scale(0.900)" mask="url(#maskGradient)">
        <g transform="translate(-3.10,-3.45) rotate(3.89) scale(0.880)">
        <path d="M0.0,-47.2 L13.9,-19.1 L44.9,-14.6 L22.5,7.3 L27.8,38.2 L0.0,23.6 L-27.8,38.2 L-22.5,7.3 L-44.9,-14.6 L-13.9,-19.1Z" fill="url(#rgrad1)" filter="url(#blur1)" opacity="0.64"/>
      </g>
      </g>
      </g>
      </g>
      </g>
      </g>
      </g>
  </g>
  <g transform="translate(308.2, 635.3)">
      <g transform="translate(4.86,-0.95) rotate(4.83) scale(1.000)">
        <g transform="translate(3.69,-2.06) rotate(8.96) scale(0.980)">
        <g transform="translate(1.62,-2.98) rotate(11.86) scale(0.960)">
        <g transform="translate(-0.84,-3.63) rotate(13.06) scale(0.940)">
        <g transform="translate(-3.10,-3.97) rotate(12.23) scale(0.920)">
        <g transform="translate(-4.60,-3.94) rotate(9.19) scale(0.900)">
        <g transform="translate(-4.98,-3.57) rotate(3.89) scale(0.880)">
        <rect x="-29.9" y="-29.9" width="59.7" height="59.7" rx="14.9" fill="url(#rgrad2)" filter="url(#shadow)" opacity="0.74"/>
        <circle cx="0" cy="0" r="19.9" fill="url(#rgrad3)" opacity="0.52"/>
      </g>
      </g>
      </g>
      </g>
      </g>
      </g>
      </g>
  </g>
  <g transform="translate(542.8, 638.7)">
      <g transform="translate(1.62,-3.78) rotate(4.83) scale(1.000)">
        <g transform="translate(-0.84,-4.00) rotate(8.96) scale(0.980)">
        <g transform="translate(-3.10,-3.86) rotate(11.86) scale(0.960)">
        <g transform="translate(-4.60,-3.37) rotate(13.06) scale(0.940)" clip-path="url(#clipRect)">
        <g transform="translate(-4.98,-2.58) rotate(12.23) scale(0.920)">
        <g transform="translate(-4.13,-1.56) rotate(9.19) scale(0.900)">
        <g transform="translate(-2.27,-0.41) rotate(3.89) scale(0.880)">
        <path d="M37.7,21.7 L0.0,43.5 L-37.7,21.7 L-37.7,-21.7 L-0.0,-43.5 L37.7,-21.7Z" fill="url(#lgrad3)" filter="url(#blur3)" opacity="0.82"/>
        <ellipse cx="0" cy="0" rx="18.1" ry="12.1" fill="#FFFFFF" opacity="0.41"/>
      </g>
      </g>
      </g>
      </g>
      </g>
      </g>
      </g>
  </g>
  <g transform="translate(776.8, 652.2)">
      <g transform="translate(-3.10,-3.14) rotate(4.83) scale(1.000)">
        <g transform="translate(-4.60,-2.26) rotate(8.96) scale(0.980)">
        <g transform="translate(-4.98,-1.19) rotate(11.86) scale(0.960)">
        <g transform="translate(-4.13,-0.01) rotate(13.06) scale(0.940)">
        <g transform="translate(-2.27,1.18) rotate(12.23) scale(0.920)">
        <g transform="translate(0.14,2.25) rotate(9.19) scale(0.900)" mask="url(#maskDynamic)">
        <g transform="translate(2.52,3.13) rotate(3.89) scale(0.880)">
        <circle cx="0" cy="0" r="36.9" fill="url(#rgrad4)" filter="url(#shadow)" opacity="0.88"/>
        <text x="0" y="5" text-anchor="middle" font-family="Arial, sans-serif" font-size="14" fill="#FFFFFF" opacity="0.88">583</text>
      </g>
      </g>
      </g>
      </g>
      </g>
      </g>
      </g>
  </g>
  <g transform="translate(1006.7, 669.3)">
      <g transform="translate(-4.98,0.39) rotate(4.83) scale(1.000)">
        <g transform="translate(-4.13,1.55) rotate(8.96) scale(0.980)">
        <g transform="translate(-2.27,2.57) rotate(11.86) scale(0.960)">
        <g transform="translate(0.14,3.36) rotate(13.06) scale(0.940)">
        <g transform="translate(2.52,3.85) rotate(12.23) scale(0.920)">
        <g transform="translate(4.28,4.00) rotate(9.19) scale(0.900)">
        <g transform="translate(5.00,3.79) rotate(3.89) scale(0.880)">
        <path d="M0.0,-62.4 L18.3,-25.2 L59.3,-19.3 L29.7,9.6 L36.7,50.5 L0.0,31.2 L-36.7,50.5 L-29.7,9.6 L-59.3,-19.3 L-18.3,-25.2Z" fill="url(#rgrad0)" filter="url(#blur0)" opacity="0.90"/>
      </g>
      </g>
      </g>
      </g>
      </g>
      </g>
      </g>
  </g>
  <g transform="translate(1230.0, 682.1)">
      <g transform="translate(-2.27,3.56) rotate(4.83) scale(1.000)">
        <g transform="translate(0.14,3.94) rotate(8.96) scale(0.980)">
        <g transform="translate(2.52,3.97) rotate(11.86) scale(0.960)">
        <g transform="translate(4.28,3.64) rotate(13.06) scale(0.940)" clip-path="url(#clipStar)">
        <g transform="translate(5.00,2.99) rotate(12.23) scale(0.920)">
        <g transform="translate(4.49,2.07) rotate(9.19) scale(0.900)">
        <g transform="translate(2.88,0.96) rotate(3.89) scale(0.880)">
        <rect x="-24.4" y="-24.4" width="48.8" height="48.8" rx="12.2" fill="url(#lgrad1)" filter="url(#shadow)" opacity="0.88"/>
        <circle cx="0" cy="0" r="16.3" fill="url(#rgrad2)" opacity="0.62"/>
      </g>
      </g>
      </g>
      </g>
      </g>
      </g>
      </g>
  </g>
  <g transform="translate(1446.0, 684.4)">
      <g transform="translate(2.52,3.46) rotate(4.83) scale(1.000)">
        <g transform="translate(4.28,2.71) rotate(8.96) scale(0.980)">
        <g transform="translate(5.00,1.71) rotate(11.86) scale(0.960)">
        <g transform="translate(4.49,0.57) rotate(13.06) scale(0.940)">
        <g transform="translate(2.88,-0.63) rotate(12.23) scale(0.920)">
        <g transform="translate(0.57,-1.76) rotate(9.19) scale(0.900)" mask="url(#maskStripes)">
        <g transform="translate(-1.88,-2.75) rotate(3.89) scale(0.880)">
        <path d="M23.7,13.7 L0.0,27.3 L-23.7,13.7 L-23.7,-13.7 L-0.0,-27.3 L23.7,-13.7Z" fill="url(#rgrad2)" filter="url(#blur2)" opacity="0.84"/>
        <ellipse cx="0" cy="0" rx="11.4" ry="7.6" fill="#FFFFFF" opacity="0.42"/>
      </g>
      </g>
      </g>
      </g>
      </g>
      </g>
      </g>
  </g>
  <g transform="translate(1655.6, 675.3)">
      <g transform="translate(5.00,0.17) rotate(4.83) scale(1.000)">
        <g transform="translate(4.49,-1.02) rotate(8.96) scale(0.980)">
        <g transform="translate(2.88,-2.11) rotate(11.86) scale(0.960)">
        <g transform="translate(0.57,-3.02) rotate(13.06) scale(0.940)">
        <g transform="translate(-1.88,-3.66) rotate(12.23) scale(0.920)">
        <g transform="translate(-3.87,-3.97) rotate(9.19) scale(0.900)">
        <g transform="translate(-4.91,-3.93) rotate(3.89) scale(0.880)">
        <circle cx="0" cy="0" r="27.8" fill="url(#rgrad3)" filter="url(#shadow)" opacity="0.76"/>
        <text x="0" y="5" text-anchor="middle" font-family="Arial, sans-serif" font-size="14" fill="#FFFFFF" opacity="0.76">583</text>
      </g>
      </g>
      </g>
      </g>
      </g>
      </g>
      </g>
  </g>
  <g transform="translate(101.4, 939.0)">
      <g transform="translate(2.88,-3.27) rotate(4.83) scale(1.000)">
        <g transform="translate(0.57,-3.80) rotate(8.96) scale(0.980)">
        <g transform="translate(-1.88,-4.00) rotate(11.86) scale(0.960)">
        <g transform="translate(-3.87,-3.84) rotate(13.06) scale(0.940)" clip-path="url(#clipDynamic)">
        <g transform="translate(-4.91,-3.33) rotate(12.23) scale(0.920)">
        <g transform="translate(-4.75,-2.53) rotate(9.19) scale(0.900)">
        <g transform="translate(-3.43,-1.50) rotate(3.89) scale(0.880)">
        <path d="M0.0,-69.6 L20.5,-28.2 L66.2,-21.5 L33.1,10.8 L40.9,56.3 L0.0,34.8 L-40.9,56.3 L-33.1,10.8 L-66.2,-21.5 L-20.5,-28.2Z" fill="url(#lgrad4)" filter="url(#blur4)" opacity="0.65"/>
      </g>
      </g>
      </g>
      </g>
      </g>
      </g>
      </g>
  </g>
  <g transform="translate(250.4, 230.5)" mask="url(#maskGradient)">
    <ellipse cx="0" cy="0" rx="200" ry="150" fill="url(#rgrad0)" filter="url(#blur3)" opacity="0.3"/>
  </g>
  <g transform="translate(700.1, 272.4)" mask="url(#maskCircleFade)">
    <ellipse cx="0" cy="0" rx="200" ry="150" fill="url(#rgrad1)" filter="url(#blur3)" opacity="0.3"/>
  </g>
  <g transform="translate(1241.7, 327.3)" mask="url(#maskStripes)">
    <ellipse cx="0" cy="0" rx="200" ry="150" fill="url(#rgrad2)" filter="url(#blur3)" opacity="0.3"/>
  </g>
</svg>