<?xml version="1.0" encoding="UTF-8"?>
<svg xmlns="http://www.w3.org/2000/svg" viewBox="0 0 1920 1080" width="1920" height="1080">
  <defs>
    <filter id="blur0" x="-50%" y="-50%" width="200%" height="200%">
      <feGaussianBlur in="SourceGraphic" stdDeviation="1"/>
    </filter>
    <filter id="blur1" x="-50%" y="-50%" width="200%" height="200%">
      <feGaussianBlur in="SourceGraphic" stdDeviation="3"/>
    </filter>
    <filter id="blur2" x="-50%" y="-50%" width="200%" height="200%">
      <feGaussianBlur in="SourceGraphic" stdDeviation="5"/>
    </filter>
    <filter id="blur3" x="-50%" y="-50%" width="200%" height="200%">
      <feGaussianBlur in="SourceGraphic" stdDeviation="7"/>
    </filter>
    <filter id="blur4" x="-50%" y="-50%" width="200%" height="200%">
      <feGaussianBlur in="SourceGraphic" stdDeviation="9"/>
    </filter>
    <filter id="shadow" x="-50%" y="-50%" width="200%" height="200%">
      <feGaussianBlur in="SourceAlpha" stdDeviation="3" result="blur"/>
      <feOffset in="blur" dx="4" dy="4" result="offsetBlur"/>
      <feMerge>
        <feMergeNode in="offsetBlur"/>
        <feMergeNode in="SourceGraphic"/>
      </feMerge>
    </filter>
    <linearGradient id="lgrad0" x1="0%" y1="0%" x2="4.0%" y2="69.5%">
      <stop offset="0%" stop-color="#FF6B6B"/>
      <stop offset="33%" stop-color="#4ECDC4"/>
      <stop offset="66%" stop-color="#45B7D1"/>
      <stop offset="100%" stop-color="#96E6A1"/>
    </linearGradient>
    <linearGradient id="lgrad1" x1="0%" y1="0%" x2="0.4%" y2="43.9%">
      <stop offset="0%" stop-color="#FFE66D"/>
      <stop offset="33%" stop-color="#FF6B6B"/>
      <stop offset="66%" stop-color="#C44D58"/>
      <stop offset="100%" stop-color="#8B0000"/>
    </linearGradient>
    <linearGradient id="lgrad2" x1="0%" y1="0%" x2="10.1%" y2="19.9%">
      <stop offset="0%" stop-color="#4169E1"/>
      <stop offset="33%" stop-color="#7B68EE"/>
      <stop offset="66%" stop-color="#9370DB"/>
      <stop offset="100%" stop-color="#FFD700"/>
    </linearGradient>
    <linearGradient id="lgrad3" x1="0%" y1="0%" x2="30.5%" y2="4.0%">
      <stop offset="0%" stop-color="#32CD32"/>
      <stop offset="33%" stop-color="#228B22"/>
      <stop offset="66%" stop-color="#006400"/>
      <stop offset="100%" stop-color="#ADFF2F"/>
    </linearGradient>
    <linearGradient id="lgrad4" x1="0%" y1="0%" x2="56.1%" y2="0.4%">
      <stop offset="0%" stop-color="#FF1493"/>
      <stop offset="33%" stop-color="#FF69B4"/>
      <stop offset="66%" stop-color="#FFB6C1"/>
      <stop offset="100%" stop-color="#FFC0CB"/>
    </linearGradient>
    <radialGradient id="rgrad0" cx="57.2%" cy="34.8%" r="60%">
      <stop offset="0%" stop-color="#FF6B6B" stop-opacity="1"/>
      <stop offset="50%" stop-color="#4ECDC4" stop-opacity="0.8"/>
      <stop offset="100%" stop-color="#45B7D1" stop-opacity="0.6"/>
    </radialGradient>
    <radialGradient id="rgrad1" cx="67.2%" cy="42.8%" r="60%">
      <stop offset="0%" stop-color="#FFE66D" stop-opacity="1"/>
      <stop offset="50%" stop-color="#FF6B6B" stop-opacity="0.8"/>
      <stop offset="100%" stop-color="#C44D58" stop-opacity="0.6"/>
    </radialGradient>
    <radialGradient id="rgrad2" cx="37.2%" cy="50.8%" r="60%">
      <stop offset="0%" stop-color="#4169E1" stop-opacity="1"/>
      <stop offset="50%" stop-color="#7B68EE" stop-opacity="0.8"/>
      <stop offset="100%" stop-color="#9370DB" stop-opacity="0.6"/>
    </radialGradient>
    <radialGradient id="rgrad3" cx="47.2%" cy="58.8%" r="60%">
      <stop offset="0%" stop-color="#32CD32" stop-opacity="1"/>
      <stop offset="50%" stop-color="#228B22" stop-opacity="0.8"/>
      <stop offset="100%" stop-color="#006400" stop-opacity="0.6"/>
    </radialGradient>
    <radialGradient id="rgrad4" cx="57.2%" cy="66.8%" r="60%">
      <stop offset="0%" stop-color="#FF1493" stop-opacity="1"/>
      <stop offset="50%" stop-color="#FF69B4" stop-opacity="0.8"/>
      <stop offset="100%" stop-color="#FFB6C1" stop-opacity="0.6"/>
    </radialGradient>
    <clipPath id="clipCircle">
      <circle cx="0" cy="0" r="50"/>
    </clipPath>
    <clipPath id="clipStar">
      <path d="M0.0,-50.0 L14.7,-20.2 L47.6,-15.5 L23.8,7.7 L29.4,40.5 L0.0,25.0 L-29.4,40.5 L-23.8,7.7 L-47.6,-15.5 L-14.7,-20.2Z"/>
    </clipPath>
    <clipPath id="clipHex">
      <path d="M39.0,22.5 L0.0,45.0 L-39.0,22.5 L-39.0,-22.5 L-0.0,-45.0 L39.0,-22.5Z"/>
    </clipPath>
    <clipPath id="clipRect">
      <rect x="-40" y="-30" width="80" height="60" rx="10"/>
    </clipPath>
    <clipPath id="clipDynamic">
      <circle cx="0" cy="0" r="49.8"/>
    </clipPath>
    <mask id="maskGradient" maskContentUnits="objectBoundingBox">
      <rect x="0" y="0" width="1" height="1" fill="url(#maskGrad)"/>
    </mask>
    <linearGradient id="maskGrad" x1="0%" y1="0%" x2="100%" y2="100%">
      <stop offset="0%" stop-color="white"/>
      <stop offset="100%" stop-color="black"/>
    </linearGradient>
    <mask id="maskCircleFade">
      <circle cx="0" cy="0" r="60" fill="white"/>
      <circle cx="0" cy="0" r="30" fill="black"/>
    </mask>
    <mask id="maskStripes">
      <rect x="-50" y="-50" width="100" height="100" fill="white"/>
      <rect x="-50" y="-40" width="100" height="10" fill="black"/>
      <rect x="-50" y="-20" width="100" height="10" fill="black"/>
      <rect x="-50" y="0" width="100" height="10" fill="black"/>
      <rect x="-50" y="20" width="100" height="10" fill="black"/>
      <rect x="-50" y="40" width="100" height="10" fill="black"/>
    </mask>
    <mask id="maskDynamic">
      <rect x="-60" y="-60" width="120" height="120" fill="white" fill-opacity="0.75"/>
      <circle cx="0" cy="0" r="25" fill="white"/>
    </mask>
  </defs>
  <rect width="1920" height="1080" fill="url(#lgrad0)"/>
  <g transform="translate(129.6, 104.2)">
      <g transform="translate(4.93,0.67) rotate(3.23) scale(1.000)">
        <g transform="translate(4.73,-0.53) rotate(7.84) scale(0.980)">
        <g transform="translate(3.37,-1.67) rotate(13.38) scale(0.960)">
        <g transform="translate(1.18,-2.67) rotate(19.28) scale(0.940)" clip-path="url(#clipCircle)">
        <g transform="translate(-1.29,-3.43) rotate(24.94) scale(0.920)">
        <g transform="translate(-3.45,-3.89) rotate(29.74) scale(0.900)">
        <g transform="translate(-4.76,-3.99) rotate(33.11) scale(0.880)">
        <path d="M0.0,-69.7 L20.5,-28.2 L66.3,-21.5 L33.1,10.8 L41.0,56.4 L0.0,34.8 L-41.0,56.4 L-33.1,10.8 L-66.3,-21.5 L-20.5,-28.2Z" fill="url(#lgrad0)" filter="url(#blur0)" opacity="0.76"/>
      </g>
      </g>
      </g>
      </g>
      </g>
      </g>
      </g>
  </g>
  <g transform="translate(348.4, 87.3)">
      <g transform="translate(3.37,-2.96) rotate(3.23) scale(1.000)">
        <g transform="translate(1.18,-3.62) rotate(7.84) scale(0.980)">
        <g transform="translate(-1.29,-3.96) rotate(13.38) scale(0.960)">
        <g transform="translate(-3.45,-3.95) rotate(19.28) scale(0.940)">
        <g transform="translate(-4.76,-3.58) rotate(24.94) scale(0.920)">
        <g transform="translate(-4.91,-2.90) rotate(29.74) scale(0.900)" mask="url(#maskCircleFade)">
        <g transform="translate(-3.86,-1.95) rotate(33.11) scale(0.880)">
        <rect x="-37.4" y="-37.4" width="74.9" height="74.9" rx="18.7" fill="url(#rgrad1)" filter="url(#shadow)" opacity="0.84"/>
        <circle cx="0" cy="0" r="25.0" fill="url(#rgrad2)" opacity="0.59"/>
      </g>
      </g>
      </g>
      </g>
      </g>
      </g>
      </g>
  </g>
  <g transform="translate(560.2, 76.4)">
      <g transform="translate(-1.29,-3.86) rotate(3.23) scale(1.000)">
        <g transform="translate(-3.45,-3.39) rotate(7.84) scale(0.980)">
        <g transform="translate(-4.76,-2.61) rotate(13.38) scale(0.960)">
        <g transform="translate(-4.91,-1.59) rotate(19.28) scale(0.940)">
        <g transform="translate(-3.86,-0.44) rotate(24.94) scale(0.920)">
        <g transform="translate(-1.86,0.76) rotate(29.74) scale(0.900)">
        <g transform="translate(0.60,1.88) rotate(33.11) scale(0.880)">
        <path d="M34.5,19.9 L0.0,39.8 L-34.5,19.9 L-34.5,-19.9 L-0.0,-39.8 L34.5,-19.9Z" fill="url(#rgrad2)" filter="url(#blur2)" opacity="0.89"/>
        <ellipse cx="0" cy="0" rx="16.6" ry="11.1" fill="#FFFFFF" opacity="0.44"/>
      </g>
      </g>
      </g>
      </g>
      </g>
      </g>
      </g>
  </g>
  <g transform="translate(767.1, 76.6)">
      <g transform="translate(-4.76,-1.22) rotate(3.23) scale(1.000)">
        <g transform="translate(-4.91,-0.04) rotate(7.84) scale(0.980)">
        <g transform="translate(-3.86,1.14) rotate(13.38) scale(0.960)">
        <g transform="translate(-1.86,2.23) rotate(19.28) scale(0.940)" clip-path="url(#clipRect)">
        <g transform="translate(0.60,3.11) rotate(24.94) scale(0.920)">
        <g transform="translate(2.90,3.71) rotate(29.74) scale(0.900)">
        <g transform="translate(4.50,3.99) rotate(33.11) scale(0.880)">
        <circle cx="0" cy="0" r="26.0" fill="url(#lgrad3)" filter="url(#shadow)" opacity="0.90"/>
        <text x="0" y="5" text-anchor="middle" font-family="Arial, sans-serif" font-size="14" fill="#FFFFFF" opacity="0.90">224</text>
      </g>
      </g>
      </g>
      </g>
      </g>
      </g>
      </g>
  </g>
  <g transform="translate(972.3, 87.8)">
      <g transform="translate(-3.86,2.55) rotate(3.23) scale(1.000)">
        <g transform="translate(-1.86,3.34) rotate(7.84) scale(0.980)">
        <g transform="translate(0.60,3.84) rotate(13.38) scale(0.960)">
        <g transform="translate(2.90,4.00) rotate(19.28) scale(0.940)">
        <g transform="translate(4.50,3.80) rotate(24.94) scale(0.920)">
        <g transform="translate(4.99,3.26) rotate(29.74) scale(0.900)" mask="url(#maskGradient)">
        <g transform="translate(4.27,2.43) rotate(33.11) scale(0.880)">
        <path d="M0.0,-45.0 L13.2,-18.2 L42.8,-13.9 L21.4,7.0 L26.5,36.4 L0.0,22.5 L-26.5,36.4 L-21.4,7.0 L-42.8,-13.9 L-13.2,-18.2Z" fill="url(#rgrad4)" filter="url(#blur4)" opacity="0.88"/>
      </g>
      </g>
      </g>
      </g>
      </g>
      </g>
      </g>
  </g>
  <g transform="translate(1179.3, 104.7)">
      <g transform="translate(0.60,3.97) rotate(3.23) scale(1.000)">
        <g transform="translate(2.90,3.65) rotate(7.84) scale(0.980)">
        <g transform="translate(4.50,3.01) rotate(13.38) scale(0.960)">
        <g transform="translate(4.99,2.10) rotate(19.28) scale(0.940)">
        <g transform="translate(4.27,1.00) rotate(24.94) scale(0.920)">
        <g transform="translate(2.49,-0.19) rotate(29.74) scale(0.900)">
        <g transform="translate(0.11,-1.37) rotate(33.11) scale(0.880)">
        <rect x="-25.9" y="-25.9" width="51.8" height="51.8" rx="12.9" fill="url(#rgrad0)" filter="url(#shadow)" opacity="0.82"/>
        <circle cx="0" cy="0" r="17.3" fill="url(#rgrad1)" opacity="0.58"/>
      </g>
      </g>
      </g>
      </g>
      </g>
      </g>
      </g>
  </g>
  <g transform="translate(1391.4, 119.4)">
      <g transform="translate(4.50,1.75) rotate(3.23) scale(1.000)">
        <g transform="translate(4.99,0.60) rotate(7.84) scale(0.980)">
        <g transform="translate(4.27,-0.59) rotate(13.38) scale(0.960)">
        <g transform="translate(2.49,-1.73) rotate(19.28) scale(0.940)" clip-path="url(#clipStar)">
        <g transform="translate(0.11,-2.72) rotate(24.94) scale(0.920)">
        <g transform="translate(-2.30,-3.47) rotate(29.74) scale(0.900)">
        <g transform="translate(-4.15,-3.90) rotate(33.11) scale(0.880)">
        <path d="M34.3,19.8 L0.0,39.7 L-34.3,19.8 L-34.3,-19.8 L-0.0,-39.7 L34.3,-19.8Z" fill="url(#lgrad1)" filter="url(#blur1)" opacity="0.74"/>
        <ellipse cx="0" cy="0" rx="16.5" ry="11.0" fill="#FFFFFF" opacity="0.37"/>
      </g>
      </g>
      </g>
      </g>
      </g>
      </g>
      </g>
  </g>
  <g transform="translate(1610.5, 125.0)">
      <g transform="translate(4.27,-2.09) rotate(3.23) scale(1.000)">
        <g transform="translate(2.49,-3.00) rotate(7.84) scale(0.980)">
        <g transform="translate(0.11,-3.65) rotate(13.38) scale(0.960)">
        <g transform="translate(-2.30,-3.97) rotate(19.28) scale(0.940)">
        <g transform="translate(-4.15,-3.94) rotate(24.94) scale(0.920)">
        <g transform="translate(-4.98,-3.55) rotate(29.74) scale(0.900)" mask="url(#maskDynamic)">
        <g transform="translate(-4.59,-2.85) rotate(33.11) scale(0.880)">
        <circle cx="0" cy="0" r="37.4" fill="url(#rgrad2)" filter="url(#shadow)" opacity="0.63"/>
        <text x="0" y="5" text-anchor="middle" font-family="Arial, sans-serif" font-size="14" fill="#FFFFFF" opacity="0.63">224</text>
      </g>
      </g>
      </g>
      </g>
      </g>
      </g>
      </g>
  </g>
  <g transform="translate(76.9, 398.8)">
      <g transform="translate(0.11,-4.00) rotate(3.23) scale(1.000)">
        <g transform="translate(-2.30,-3.85) rotate(7.84) scale(0.980)">
        <g transform="translate(-4.15,-3.35) rotate(13.38) scale(0.960)">
        <g transform="translate(-4.98,-2.56) rotate(19.28) scale(0.940)">
        <g transform="translate(-4.59,-1.53) rotate(24.94) scale(0.920)">
        <g transform="translate(-3.08,-0.37) rotate(29.74) scale(0.900)">
        <g transform="translate(-0.82,0.82) rotate(33.11) scale(0.880)">
        <path d="M0.0,-69.9 L20.6,-28.3 L66.5,-21.6 L33.3,10.8 L41.1,56.6 L0.0,35.0 L-41.1,56.6 L-33.3,10.8 L-66.5,-21.6 L-20.6,-28.3Z" fill="url(#rgrad3)" filter="url(#blur3)" opacity="0.52"/>
      </g>
      </g>
      </g>
      </g>
      </g>
      </g>
      </g>
  </g>
  <g transform="translate(308.9, 383.8)">
      <g transform="translate(-4.15,-2.24) rotate(3.23) scale(1.000)">
        <g transform="translate(-4.98,-1.16) rotate(7.84) scale(0.980)">
        <g transform="translate(-4.59,0.03) rotate(13.38) scale(0.960)">
        <g transform="translate(-3.08,1.21) rotate(19.28) scale(0.940)" clip-path="url(#clipDynamic)">
        <g transform="translate(-0.82,2.28) rotate(24.94) scale(0.920)">
        <g transform="translate(1.65,3.15) rotate(29.74) scale(0.900)">
        <g transform="translate(3.71,3.74) rotate(33.11) scale(0.880)">
        <rect x="-28.0" y="-28.0" width="55.9" height="55.9" rx="14.0" fill="url(#lgrad4)" filter="url(#shadow)" opacity="0.40"/>
        <circle cx="0" cy="0" r="18.6" fill="url(#rgrad0)" opacity="0.28"/>
      </g>
      </g>
      </g>
      </g>
      </g>
      </g>
      </g>
  </g>
  <g transform="translate(543.6, 367.0)">
      <g transform="translate(-4.59,1.58) rotate(3.23) scale(1.000)">
        <g transform="translate(-3.08,2.60) rotate(7.84) scale(0.980)">
        <g transform="translate(-0.82,3.38) rotate(13.38) scale(0.960)">
        <g transform="translate(1.65,3.86) rotate(19.28) scale(0.940)">
        <g transform="translate(3.71,4.00) rotate(24.94) scale(0.920)">
        <g transform="translate(4.86,3.78) rotate(29.74) scale(0.900)" mask="url(#maskStripes)">
        <g transform="translate(4.82,3.22) rotate(33.11) scale(0.880)">
        <path d="M23.7,13.7 L0.0,27.4 L-23.7,13.7 L-23.7,-13.7 L-0.0,-27.4 L23.7,-13.7Z" fill="url(#rgrad0)" filter="url(#blur0)" opacity="0.29"/>
        <ellipse cx="0" cy="0" rx="11.4" ry="7.6" fill="#FFFFFF" opacity="0.14"/>
      </g>
      </g>
      </g>
      </g>
      </g>
      </g>
      </g>
  </g>
  <g transform="translate(777.4, 356.3)">
      <g transform="translate(-0.82,3.95) rotate(3.23) scale(1.000)">
        <g transform="translate(1.65,3.96) rotate(7.84) scale(0.980)">
        <g transform="translate(3.71,3.63) rotate(13.38) scale(0.960)">
        <g transform="translate(4.86,2.96) rotate(19.28) scale(0.940)">
        <g transform="translate(4.82,2.04) rotate(24.94) scale(0.920)">
        <g transform="translate(3.61,0.93) rotate(29.74) scale(0.900)">
        <g transform="translate(1.50,-0.26) rotate(33.11) scale(0.880)">
        <circle cx="0" cy="0" r="24.3" fill="url(#rgrad1)" filter="url(#shadow)" opacity="0.20"/>
        <text x="0" y="5" text-anchor="middle" font-family="Arial, sans-serif" font-size="14" fill="#FFFFFF" opacity="0.20">224</text>
      </g>
      </g>
      </g>
      </g>
      </g>
      </g>
      </g>
  </g>
  <g transform="translate(1007.0, 356.8)">
      <g transform="translate(3.71,2.68) rotate(3.23) scale(1.000)">
        <g transform="translate(4.86,1.68) rotate(7.84) scale(0.980)">
        <g transform="translate(4.82,0.54) rotate(13.38) scale(0.960)">
        <g transform="translate(3.61,-0.66) rotate(19.28) scale(0.940)" clip-path="url(#clipHex)">
        <g transform="translate(1.50,-1.80) rotate(24.94) scale(0.920)">
        <g transform="translate(-0.97,-2.77) rotate(29.74) scale(0.900)">
        <g transform="translate(-3.20,-3.50) rotate(33.11) scale(0.880)">
        <path d="M0.0,-62.0 L18.2,-25.1 L59.0,-19.2 L29.5,9.6 L36.5,50.2 L0.0,31.0 L-36.5,50.2 L-29.5,9.6 L-59.0,-19.2 L-18.2,-25.1Z" fill="url(#lgrad2)" filter="url(#blur2)" opacity="0.13"/>
      </g>
      </g>
      </g>
      </g>
      </g>
      </g>
      </g>
  </g>
  <g transform="translate(1230.0, 368.2)">
      <g transform="translate(4.82,-1.05) rotate(3.23) scale(1.000)">
        <g transform="translate(3.61,-2.14) rotate(7.84) scale(0.980)">
        <g transform="translate(1.50,-3.05) rotate(13.38) scale(0.960)">
        <g transform="translate(-0.97,-3.68) rotate(19.28) scale(0.940)">
        <g transform="translate(-3.20,-3.98) rotate(24.94) scale(0.920)">
        <g transform="translate(-4.65,-3.92) rotate(29.74) scale(0.900)" mask="url(#maskCircleFade)">
        <g transform="translate(-4.96,-3.52) rotate(33.11) scale(0.880)">
        <rect x="-36.8" y="-36.8" width="73.6" height="73.6" rx="18.4" fill="url(#rgrad3)" filter="url(#shadow)" opacity="0.10"/>
        <circle cx="0" cy="0" r="24.5" fill="url(#rgrad4)" opacity="0.07"/>
      </g>
      </g>
      </g>
      </g>
      </g>
      </g>
      </g>
  </g>
  <g transform="translate(1445.6, 385.1)">
      <g transform="translate(1.50,-3.81) rotate(3.23) scale(1.000)">
        <g transform="translate(-0.97,-4.00) rotate(7.84) scale(0.980)">
        <g transform="translate(-3.20,-3.83) rotate(13.38) scale(0.960)">
        <g transform="translate(-4.65,-3.31) rotate(19.28) scale(0.940)">
        <g transform="translate(-4.96,-2.50) rotate(24.94) scale(0.920)">
        <g transform="translate(-4.06,-1.47) rotate(29.74) scale(0.900)">
        <g transform="translate(-2.16,-0.30) rotate(33.11) scale(0.880)">
        <path d="M37.8,21.8 L0.0,43.6 L-37.8,21.8 L-37.8,-21.8 L-0.0,-43.6 L37.8,-21.8Z" fill="url(#rgrad4)" filter="url(#blur4)" opacity="0.11"/>
        <ellipse cx="0" cy="0" rx="18.2" ry="12.1" fill="#FFFFFF" opacity="0.05"/>
      </g>
      </g>
      </g>
      </g>
      </g>
      </g>
      </g>
  </g>
  <g transform="translate(1655.0, 399.7)">
      <g transform="translate(-3.20,-3.07) rotate(3.23) scale(1.000)">
        <g transform="translate(-4.65,-2.18) rotate(7.84) scale(0.980)">
        <g transform="translate(-4.96,-1.09) rotate(13.38) scale(0.960)">
        <g transform="translate(-4.06,0.10) rotate(19.28) scale(0.940)" clip-path="url(#clipCircle)">
        <g transform="translate(-2.16,1.27) rotate(24.94) scale(0.920)">
        <g transform="translate(0.26,2.34) rotate(29.74) scale(0.900)">
        <g transform="translate(2.63,3.19) rotate(33.11) scale(0.880)">
        <circle cx="0" cy="0" r="30.1" fill="url(#lgrad0)" filter="url(#shadow)" opacity="0.15"/>
        <text x="0" y="5" text-anchor="middle" font-family="Arial, sans-serif" font-size="14" fill="#FFFFFF" opacity="0.15">224</text>
      </g>
      </g>
      </g>
      </g>
      </g>
      </g>
      </g>
  </g>
  <g transform="translate(100.7, 685.0)">
      <g transform="translate(-4.96,0.49) rotate(3.23) scale(1.000)">
        <g transform="translate(-4.06,1.64) rotate(7.84) scale(0.980)">
        <g transform="translate(-2.16,2.65) rotate(13.38) scale(0.960)">
        <g transform="translate(0.26,3.42) rotate(19.28) scale(0.940)">
        <g transform="translate(2.63,3.88) rotate(24.94) scale(0.920)">
        <g transform="translate(4.34,3.99) rotate(29.74) scale(0.900)" mask="url(#maskGradient)">
        <g transform="translate(5.00,3.75) rotate(33.11) scale(0.880)">
        <path d="M0.0,-47.4 L13.9,-19.2 L45.1,-14.7 L22.6,7.3 L27.9,38.4 L0.0,23.7 L-27.9,38.4 L-22.6,7.3 L-45.1,-14.7 L-13.9,-19.2Z" fill="url(#rgrad1)" filter="url(#blur1)" opacity="0.22"/>
      </g>
      </g>
      </g>
      </g>
      </g>
      </g>
      </g>
  </g>
  <g transform="translate(306.2, 678.5)">
      <g transform="translate(-2.16,3.61) rotate(3.23) scale(1.000)">
        <g transform="translate(0.26,3.96) rotate(7.84) scale(0.980)">
        <g transform="translate(2.63,3.95) rotate(13.38) scale(0.960)">
        <g transform="translate(4.34,3.60) rotate(19.28) scale(0.940)">
        <g transform="translate(5.00,2.92) rotate(24.94) scale(0.920)">
        <g transform="translate(4.43,1.98) rotate(29.74) scale(0.900)">
        <g transform="translate(2.78,0.86) rotate(33.11) scale(0.880)">
        <rect x="-23.2" y="-23.2" width="46.3" height="46.3" rx="11.6" fill="url(#rgrad2)" filter="url(#shadow)" opacity="0.31"/>
        <circle cx="0" cy="0" r="15.4" fill="url(#rgrad3)" opacity="0.22"/>
      </g>
      </g>
      </g>
      </g>
      </g>
      </g>
      </g>
  </g>
  <g transform="translate(515.1, 663.4)">
      <g transform="translate(2.63,3.40) rotate(3.23) scale(1.000)">
        <g transform="translate(4.34,2.63) rotate(7.84) scale(0.980)">
        <g transform="translate(5.00,1.62) rotate(13.38) scale(0.960)">
        <g transform="translate(4.43,0.47) rotate(19.28) scale(0.940)" clip-path="url(#clipRect)">
        <g transform="translate(2.78,-0.72) rotate(24.94) scale(0.920)">
        <g transform="translate(0.44,-1.85) rotate(29.74) scale(0.900)">
        <g transform="translate(-2.00,-2.82) rotate(33.11) scale(0.880)">
        <path d="M30.0,17.3 L0.0,34.7 L-30.0,17.3 L-30.0,-17.3 L-0.0,-34.7 L30.0,-17.3Z" fill="url(#lgrad3)" filter="url(#blur3)" opacity="0.43"/>
        <ellipse cx="0" cy="0" rx="14.4" ry="9.6" fill="#FFFFFF" opacity="0.21"/>
      </g>
      </g>
      </g>
      </g>
      </g>
      </g>
      </g>
  </g>
  <g transform="translate(730.1, 646.6)">
      <g transform="translate(5.00,0.07) rotate(3.23) scale(1.000)">
        <g transform="translate(4.43,-1.11) rotate(7.84) scale(0.980)">
        <g transform="translate(2.78,-2.20) rotate(13.38) scale(0.960)">
        <g transform="translate(0.44,-3.09) rotate(19.28) scale(0.940)">
        <g transform="translate(-2.00,-3.70) rotate(24.94) scale(0.920)">
        <g transform="translate(-3.95,-3.98) rotate(29.74) scale(0.900)" mask="url(#maskDynamic)">
        <g transform="translate(-4.94,-3.91) rotate(33.11) scale(0.880)">
        <circle cx="0" cy="0" r="35.6" fill="url(#rgrad4)" filter="url(#shadow)" opacity="0.55"/>
        <text x="0" y="5" text-anchor="middle" font-family="Arial, sans-serif" font-size="14" fill="#FFFFFF" opacity="0.55">224</text>
      </g>
      </g>
      </g>
      </g>
      </g>
      </g>
      </g>
  </g>
  <g transform="translate(952.5, 636.2)">
      <g transform="translate(2.78,-3.33) rotate(3.23) scale(1.000)">
        <g transform="translate(0.44,-3.83) rotate(7.84) scale(0.980)">
        <g transform="translate(-2.00,-4.00) rotate(13.38) scale(0.960)">
        <g transform="translate(-3.95,-3.81) rotate(19.28) scale(0.940)">
        <g transform="translate(-4.94,-3.28) rotate(24.94) scale(0.920)">
        <g transform="translate(-4.71,-2.45) rotate(29.74) scale(0.900)">
        <g transform="translate(-3.34,-1.41) rotate(33.11) scale(0.880)">
        <path d="M0.0,-74.4 L21.9,-30.1 L70.8,-23.0 L35.4,11.5 L43.7,60.2 L0.0,37.2 L-43.7,60.2 L-35.4,11.5 L-70.8,-23.0 L-21.9,-30.1Z" fill="url(#rgrad0)" filter="url(#blur0)" opacity="0.66"/>
      </g>
      </g>
      </g>
      </g>
      </g>
      </g>
      </g>
  </g>
  <g transform="translate(1181.5, 636.9)">
      <g transform="translate(-2.00,-3.67) rotate(3.23) scale(1.000)">
        <g transform="translate(-3.95,-3.03) rotate(7.84) scale(0.980)">
        <g transform="translate(-4.94,-2.12) rotate(13.38) scale(0.960)">
        <g transform="translate(-4.71,-1.03) rotate(19.28) scale(0.940)" clip-path="url(#clipStar)">
        <g transform="translate(-3.34,0.16) rotate(24.94) scale(0.920)">
        <g transform="translate(-1.14,1.34) rotate(29.74) scale(0.900)">
        <g transform="translate(1.33,2.39) rotate(33.11) scale(0.880)">
        <rect x="-32.1" y="-32.1" width="64.3" height="64.3" rx="16.1" fill="url(#lgrad1)" filter="url(#shadow)" opacity="0.76"/>
        <circle cx="0" cy="0" r="21.4" fill="url(#rgrad2)" opacity="0.53"/>
      </g>
      </g>
      </g>
      </g>
      </g>
      </g>
      </g>
  </g>
  <g transform="translate(1415.1, 648.5)">
      <g transform="translate(-4.94,-0.63) rotate(3.23) scale(1.000)">
        <g transform="translate(-4.71,0.56) rotate(7.84) scale(0.980)">
        <g transform="translate(-3.34,1.71) rotate(13.38) scale(0.960)">
        <g transform="translate(-1.14,2.70) rotate(19.28) scale(0.940)">
        <g transform="translate(1.33,3.45) rotate(24.94) scale(0.920)">
        <g transform="translate(3.48,3.89) rotate(29.74) scale(0.900)" mask="url(#maskStripes)">
        <g transform="translate(4.78,3.99) rotate(33.11) scale(0.880)">
        <path d="M26.1,15.1 L0.0,30.1 L-26.1,15.1 L-26.1,-15.1 L-0.0,-30.1 L26.1,-15.1Z" fill="url(#rgrad2)" filter="url(#blur2)" opacity="0.84"/>
        <ellipse cx="0" cy="0" rx="12.6" ry="8.4" fill="#FFFFFF" opacity="0.42"/>
      </g>
      </g>
      </g>
      </g>
      </g>
      </g>
      </g>
  </g>
  <g transform="translate(1649.9, 665.5)">
      <g transform="translate(-3.34,2.98) rotate(3.23) scale(1.000)">
        <g transform="translate(-1.14,3.64) rotate(7.84) scale(0.980)">
        <g transform="translate(1.33,3.97) rotate(13.38) scale(0.960)">
        <g transform="translate(3.48,3.94) rotate(19.28) scale(0.940)">
        <g transform="translate(4.78,3.57) rotate(24.94) scale(0.920)">
        <g transform="translate(4.90,2.87) rotate(29.74) scale(0.900)">
        <g transform="translate(3.83,1.92) rotate(33.11) scale(0.880)">
        <circle cx="0" cy="0" r="22.6" fill="url(#rgrad3)" filter="url(#shadow)" opacity="0.89"/>
        <text x="0" y="5" text-anchor="middle" font-family="Arial, sans-serif" font-size="14" fill="#FFFFFF" opacity="0.89">224</text>
      </g>
      </g>
      </g>
      </g>
      </g>
      </g>
      </g>
  </g>
  <g transform="translate(122.3, 959.9)">
      <g transform="translate(1.33,3.86) rotate(3.23) scale(1.000)">
        <g transform="translate(3.48,3.37) rotate(7.84) scale(0.980)">
        <g transform="translate(4.78,2.58) rotate(13.38) scale(0.960)">
        <g transform="translate(4.90,1.56) rotate(19.28) scale(0.940)" clip-path="url(#clipDynamic)">
        <g transform="translate(3.83,0.40) rotate(24.94) scale(0.920)">
        <g transform="translate(1.82,-0.79) rotate(29.74) scale(0.900)">
        <g transform="translate(-0.64,-1.91) rotate(33.11) scale(0.880)">
        <path d="M0.0,-53.7 L15.8,-21.7 L51.1,-16.6 L25.5,8.3 L31.6,43.5 L0.0,26.9 L-31.6,43.5 L-25.5,8.3 L-51.1,-16.6 L-15.8,-21.7Z" fill="url(#lgrad4)" filter="url(#blur4)" opacity="0.90"/>
      </g>
      </g>
      </g>
      </g>
      </g>
      </g>
      </g>
  </g>
  <g transform="translate(398.6, 313.4)" mask="url(#maskGradient)">
    <ellipse cx="0" cy="0" rx="200" ry="150" fill="url(#rgrad0)" filter="url(#blur3)" opacity="0.3"/>
  </g>
  <g transform="translate(867.4, 259.4)" mask="url(#maskCircleFade)">
    <ellipse cx="0" cy="0" rx="200" ry="150" fill="url(#rgrad1)" filter="url(#blur3)" opacity="0.3"/>
  </g>
  <g transform="translate(1274.2, 224.6)" mask="url(#maskStripes)">
    <ellipse cx="0" cy="0" rx="200" ry="150" fill="url(#rgrad2)" filter="url(#blur3)" opacity="0.3"/>
  </g>
</svg>