<?xml version="1.0" encoding="UTF-8"?>
<svg xmlns="http://www.w3.org/2000/svg" viewBox="0 0 1920 1080" width="1920" height="1080">
  <defs>
    <filter id="blur0" x="-50%" y="-50%" width="200%" height="200%">
      <feGaussianBlur in="SourceGraphic" stdDeviation="1"/>
    </filter>
    <filter id="blur1" x="-50%" y="-50%" width="200%" height="200%">
      <feGaussianBlur in="SourceGraphic" stdDeviation="3"/>
    </filter>
    <filter id="blur2" x="-50%" y="-50%" width="200%" height="200%">
      <feGaussianBlur in="SourceGraphic" stdDeviation="5"/>
    </filter>
    <filter id="blur3" x="-50%" y="-50%" width="200%" height="200%">
      <feGaussianBlur in="SourceGraphic" stdDeviation="7"/>
    </filter>
    <filter id="blur4" x="-50%" y="-50%" width="200%" height="200%">
      <feGaussianBlur in="SourceGraphic" stdDeviation="9"/>
    </filter>
    <filter id="shadow" x="-50%" y="-50%" width="200%" height="200%">
      <feGaussianBlur in="SourceAlpha" stdDeviation="3" result="blur"/>
      <feOffset in="blur" dx="4" dy="4" result="offsetBlur"/>
      <feMerge>
        <feMergeNode in="offsetBlur"/>
        <feMergeNode in="SourceGraphic"/>
      </feMerge>
    </filter>
    <linearGradient id="lgrad0" x1="0%" y1="0%" x2="1.5%" y2="37.9%">
      <stop offset="0%" stop-color="#FF6B6B"/>
      <stop offset="33%" stop-color="#4ECDC4"/>
      <stop offset="66%" stop-color="#45B7D1"/>
      <stop offset="100%" stop-color="#96E6A1"/>
    </linearGradient>
    <linearGradient id="lgrad1" x1="0%" y1="0%" x2="14.0%" y2="15.3%">
      <stop offset="0%" stop-color="#FFE66D"/>
      <stop offset="33%" stop-color="#FF6B6B"/>
      <stop offset="66%" stop-color="#C44D58"/>
      <stop offset="100%" stop-color="#8B0000"/>
    </linearGradient>
    <linearGradient id="lgrad2" x1="0%" y1="0%" x2="36.2%" y2="1.9%">
      <stop offset="0%" stop-color="#4169E1"/>
      <stop offset="33%" stop-color="#7B68EE"/>
      <stop offset="66%" stop-color="#9370DB"/>
      <stop offset="100%" stop-color="#FFD700"/>
    </linearGradient>
    <linearGradient id="lgrad3" x1="0%" y1="0%" x2="62.1%" y2="1.5%">
      <stop offset="0%" stop-color="#32CD32"/>
      <stop offset="33%" stop-color="#228B22"/>
      <stop offset="66%" stop-color="#006400"/>
      <stop offset="100%" stop-color="#ADFF2F"/>
    </linearGradient>
    <linearGradient id="lgrad4" x1="0%" y1="0%" x2="84.7%" y2="14.0%">
      <stop offset="0%" stop-color="#FF1493"/>
      <stop offset="33%" stop-color="#FF69B4"/>
      <stop offset="66%" stop-color="#FFB6C1"/>
      <stop offset="100%" stop-color="#FFC0CB"/>
    </linearGradient>
    <radialGradient id="rgrad0" cx="39.4%" cy="49.6%" r="60%">
      <stop offset="0%" stop-color="#FF6B6B" stop-opacity="1"/>
      <stop offset="50%" stop-color="#4ECDC4" stop-opacity="0.8"/>
      <stop offset="100%" stop-color="#45B7D1" stop-opacity="0.6"/>
    </radialGradient>
    <radialGradient id="rgrad1" cx="49.4%" cy="57.6%" r="60%">
      <stop offset="0%" stop-color="#FFE66D" stop-opacity="1"/>
      <stop offset="50%" stop-color="#FF6B6B" stop-opacity="0.8"/>
      <stop offset="100%" stop-color="#C44D58" stop-opacity="0.6"/>
    </radialGradient>
    <radialGradient id="rgrad2" cx="59.4%" cy="65.6%" r="60%">
      <stop offset="0%" stop-color="#4169E1" stop-opacity="1"/>
      <stop offset="50%" stop-color="#7B68EE" stop-opacity="0.8"/>
      <stop offset="100%" stop-color="#9370DB" stop-opacity="0.6"/>
    </radialGradient>
    <radialGradient id="rgrad3" cx="69.4%" cy="33.6%" r="60%">
      <stop offset="0%" stop-color="#32CD32" stop-opacity="1"/>
      <stop offset="50%" stop-color="#228B22" stop-opacity="0.8"/>
      <stop offset="100%" stop-color="#006400" stop-opacity="0.6"/>
    </radialGradient>
    <radialGradient id="rgrad4" cx="39.4%" cy="41.6%" r="60%">
      <stop offset="0%" stop-color="#FF1493" stop-opacity="1"/>
      <stop offset="50%" stop-color="#FF69B4" stop-opacity="0.8"/>
      <stop offset="100%" stop-color="#FFB6C1" stop-opacity="0.6"/>
    </radialGradient>
    <clipPath id="clipCircle">
      <circle cx="0" cy="0" r="50"/>
    </clipPath>
    <clipPath id="clipStar">
      <path d="M0.0,-50.0 L14.7,-20.2 L47.6,-15.5 L23.8,7.7 L29.4,40.5 L0.0,25.0 L-29.4,40.5 L-23.8,7.7 L-47.6,-15.5 L-14.7,-20.2Z"/>
    </clipPath>
    <clipPath id="clipHex">
      <path d="M39.0,22.5 L0.0,45.0 L-39.0,22.5 L-39.0,-22.5 L-0.0,-45.0 L39.0,-22.5Z"/>
    </clipPath>
    <clipPath id="clipRect">
      <rect x="-40" y="-30" width="80" height="60" rx="10"/>
    </clipPath>
    <clipPath id="clipDynamic">
      <circle cx="0" cy="0" r="49.3"/>
    </clipPath>
    <mask id="maskGradient" maskContentUnits="objectBoundingBox">
      <rect x="0" y="0" width="1" height="1" fill="url(#maskGrad)"/>
    </mask>
    <linearGradient id="maskGrad" x1="0%" y1="0%" x2="100%" y2="100%">
      <stop offset="0%" stop-color="white"/>
      <stop offset="100%" stop-color="black"/>
    </linearGradient>
    <mask id="maskCircleFade">
      <circle cx="0" cy="0" r="60" fill="white"/>
      <circle cx="0" cy="0" r="30" fill="black"/>
    </mask>
    <mask id="maskStripes">
      <rect x="-50" y="-50" width="100" height="100" fill="white"/>
      <rect x="-50" y="-40" width="100" height="10" fill="black"/>
      <rect x="-50" y="-20" width="100" height="10" fill="black"/>
      <rect x="-50" y="0" width="100" height="10" fill="black"/>
      <rect x="-50" y="20" width="100" height="10" fill="black"/>
      <rect x="-50" y="40" width="100" height="10" fill="black"/>
    </mask>
    <mask id="maskDynamic">
      <rect x="-60" y="-60" width="120" height="120" fill="white" fill-opacity="0.86"/>
      <circle cx="0" cy="0" r="25" fill="white"/>
    </mask>
  </defs>
  <rect width="1920" height="1080" fill="url(#lgrad0)"/>
  <g transform="translate(128.7, 92.7)">
      <g transform="translate(4.78,-1.17) rotate(4.02) scale(1.000)">
        <g transform="translate(3.49,-2.25) rotate(9.06) scale(0.980)">
        <g transform="translate(1.35,-3.13) rotate(14.58) scale(0.960)">
        <g transform="translate(-1.12,-3.72) rotate(19.99) scale(0.940)" clip-path="url(#clipCircle)">
        <g transform="translate(-3.32,-3.99) rotate(24.67) scale(0.920)">
        <g transform="translate(-4.71,-3.90) rotate(28.04) scale(0.900)">
        <g transform="translate(-4.94,-3.46) rotate(29.59) scale(0.880)">
        <path d="M0.0,-72.1 L21.2,-29.1 L68.5,-22.3 L34.3,11.1 L42.4,58.3 L0.0,36.0 L-42.4,58.3 L-34.3,11.1 L-68.5,-22.3 L-21.2,-29.1Z" fill="url(#lgrad0)" filter="url(#blur0)" opacity="0.82"/>
      </g>
      </g>
      </g>
      </g>
      </g>
      </g>
      </g>
  </g>
  <g transform="translate(341.0, 79.0)">
      <g transform="translate(1.35,-3.85) rotate(4.02) scale(1.000)">
        <g transform="translate(-1.12,-4.00) rotate(9.06) scale(0.980)">
        <g transform="translate(-3.32,-3.79) rotate(14.58) scale(0.960)">
        <g transform="translate(-4.71,-3.24) rotate(19.99) scale(0.940)">
        <g transform="translate(-4.94,-2.40) rotate(24.67) scale(0.920)">
        <g transform="translate(-3.96,-1.35) rotate(28.04) scale(0.900)" mask="url(#maskCircleFade)">
        <g transform="translate(-2.02,-0.18) rotate(29.59) scale(0.880)">
        <rect x="-37.0" y="-37.0" width="74.0" height="74.0" rx="18.5" fill="url(#rgrad1)" filter="url(#shadow)" opacity="0.88"/>
        <circle cx="0" cy="0" r="24.7" fill="url(#rgrad2)" opacity="0.61"/>
      </g>
      </g>
      </g>
      </g>
      </g>
      </g>
      </g>
  </g>
  <g transform="translate(548.1, 75.2)">
      <g transform="translate(-3.32,-2.99) rotate(4.02) scale(1.000)">
        <g transform="translate(-4.71,-2.07) rotate(9.06) scale(0.980)">
        <g transform="translate(-4.94,-0.97) rotate(14.58) scale(0.960)">
        <g transform="translate(-3.96,0.22) rotate(19.99) scale(0.940)">
        <g transform="translate(-2.02,1.39) rotate(24.67) scale(0.920)">
        <g transform="translate(0.42,2.44) rotate(28.04) scale(0.900)">
        <g transform="translate(2.76,3.27) rotate(29.59) scale(0.880)">
        <path d="M32.8,18.9 L0.0,37.9 L-32.8,18.9 L-32.8,-18.9 L-0.0,-37.9 L32.8,-18.9Z" fill="url(#rgrad2)" filter="url(#blur2)" opacity="0.90"/>
        <ellipse cx="0" cy="0" rx="15.8" ry="10.5" fill="#FFFFFF" opacity="0.45"/>
      </g>
      </g>
      </g>
      </g>
      </g>
      </g>
      </g>
  </g>
  <g transform="translate(753.3, 83.1)">
      <g transform="translate(-4.94,0.62) rotate(4.02) scale(1.000)">
        <g transform="translate(-3.96,1.76) rotate(9.06) scale(0.980)">
        <g transform="translate(-2.02,2.74) rotate(14.58) scale(0.960)">
        <g transform="translate(0.42,3.48) rotate(19.99) scale(0.940)" clip-path="url(#clipRect)">
        <g transform="translate(2.76,3.91) rotate(24.67) scale(0.920)">
        <g transform="translate(4.42,3.99) rotate(28.04) scale(0.900)">
        <g transform="translate(5.00,3.71) rotate(29.59) scale(0.880)">
        <circle cx="0" cy="0" r="24.7" fill="url(#lgrad3)" filter="url(#shadow)" opacity="0.89"/>
        <text x="0" y="5" text-anchor="middle" font-family="Arial, sans-serif" font-size="14" fill="#FFFFFF" opacity="0.89">298</text>
      </g>
      </g>
      </g>
      </g>
      </g>
      </g>
      </g>
  </g>
  <g transform="translate(960.1, 98.9)">
      <g transform="translate(-2.02,3.66) rotate(4.02) scale(1.000)">
        <g transform="translate(0.42,3.97) rotate(9.06) scale(0.980)">
        <g transform="translate(2.76,3.93) rotate(14.58) scale(0.960)">
        <g transform="translate(4.42,3.54) rotate(19.99) scale(0.940)">
        <g transform="translate(5.00,2.83) rotate(24.67) scale(0.920)">
        <g transform="translate(4.35,1.87) rotate(28.04) scale(0.900)" mask="url(#maskGradient)">
        <g transform="translate(2.64,0.74) rotate(29.59) scale(0.880)">
        <path d="M0.0,-45.4 L13.3,-18.4 L43.1,-14.0 L21.6,7.0 L26.7,36.7 L0.0,22.7 L-26.7,36.7 L-21.6,7.0 L-43.1,-14.0 L-13.3,-18.4Z" fill="url(#rgrad4)" filter="url(#blur4)" opacity="0.84"/>
      </g>
      </g>
      </g>
      </g>
      </g>
      </g>
      </g>
  </g>
  <g transform="translate(1171.8, 115.2)">
      <g transform="translate(2.76,3.34) rotate(4.02) scale(1.000)">
        <g transform="translate(4.42,2.53) rotate(9.06) scale(0.980)">
        <g transform="translate(5.00,1.51) rotate(14.58) scale(0.960)">
        <g transform="translate(4.35,0.34) rotate(19.99) scale(0.940)">
        <g transform="translate(2.64,-0.85) rotate(24.67) scale(0.920)">
        <g transform="translate(0.28,-1.97) rotate(28.04) scale(0.900)">
        <g transform="translate(-2.14,-2.91) rotate(29.59) scale(0.880)">
        <rect x="-27.4" y="-27.4" width="54.9" height="54.9" rx="13.7" fill="url(#rgrad0)" filter="url(#shadow)" opacity="0.76"/>
        <circle cx="0" cy="0" r="18.3" fill="url(#rgrad1)" opacity="0.53"/>
      </g>
      </g>
      </g>
      </g>
      </g>
      </g>
      </g>
  </g>
  <g transform="translate(1390.4, 124.4)">
      <g transform="translate(5.00,-0.06) rotate(4.02) scale(1.000)">
        <g transform="translate(4.35,-1.24) rotate(9.06) scale(0.980)">
        <g transform="translate(2.64,-2.30) rotate(14.58) scale(0.960)">
        <g transform="translate(0.28,-3.17) rotate(19.99) scale(0.940)" clip-path="url(#clipStar)">
        <g transform="translate(-2.14,-3.75) rotate(24.67) scale(0.920)">
        <g transform="translate(-4.05,-3.99) rotate(28.04) scale(0.900)">
        <g transform="translate(-4.96,-3.88) rotate(29.59) scale(0.880)">
        <path d="M35.9,20.7 L0.0,41.5 L-35.9,20.7 L-35.9,-20.7 L-0.0,-41.5 L35.9,-20.7Z" fill="url(#lgrad1)" filter="url(#blur1)" opacity="0.66"/>
        <ellipse cx="0" cy="0" rx="17.3" ry="11.5" fill="#FFFFFF" opacity="0.33"/>
      </g>
      </g>
      </g>
      </g>
      </g>
      </g>
      </g>
  </g>
  <g transform="translate(1616.2, 122.1)">
      <g transform="translate(2.64,-3.40) rotate(4.02) scale(1.000)">
        <g transform="translate(0.28,-3.87) rotate(9.06) scale(0.980)">
        <g transform="translate(-2.14,-4.00) rotate(14.58) scale(0.960)">
        <g transform="translate(-4.05,-3.77) rotate(19.99) scale(0.940)">
        <g transform="translate(-4.96,-3.20) rotate(24.67) scale(0.920)">
        <g transform="translate(-4.66,-2.35) rotate(28.04) scale(0.900)" mask="url(#maskDynamic)">
        <g transform="translate(-3.21,-1.29) rotate(29.59) scale(0.880)">
        <circle cx="0" cy="0" r="37.5" fill="url(#rgrad2)" filter="url(#shadow)" opacity="0.54"/>
        <text x="0" y="5" text-anchor="middle" font-family="Arial, sans-serif" font-size="14" fill="#FFFFFF" opacity="0.54">298</text>
      </g>
      </g>
      </g>
      </g>
      </g>
      </g>
      </g>
  </g>
  <g transform="translate(87.9, 389.4)">
      <g transform="translate(-2.14,-3.61) rotate(4.02) scale(1.000)">
        <g transform="translate(-4.05,-2.95) rotate(9.06) scale(0.980)">
        <g transform="translate(-4.96,-2.01) rotate(14.58) scale(0.960)">
        <g transform="translate(-4.66,-0.90) rotate(19.99) scale(0.940)">
        <g transform="translate(-3.21,0.29) rotate(24.67) scale(0.920)">
        <g transform="translate(-0.99,1.46) rotate(28.04) scale(0.900)">
        <g transform="translate(1.49,2.49) rotate(29.59) scale(0.880)">
        <path d="M0.0,-67.1 L19.7,-27.1 L63.8,-20.7 L31.9,10.4 L39.4,54.3 L0.0,33.5 L-39.4,54.3 L-31.9,10.4 L-63.8,-20.7 L-19.7,-27.1Z" fill="url(#rgrad3)" filter="url(#blur3)" opacity="0.42"/>
      </g>
      </g>
      </g>
      </g>
      </g>
      </g>
      </g>
  </g>
  <g transform="translate(322.5, 372.3)">
      <g transform="translate(-4.96,-0.51) rotate(4.02) scale(1.000)">
        <g transform="translate(-4.66,0.69) rotate(9.06) scale(0.980)">
        <g transform="translate(-3.21,1.82) rotate(14.58) scale(0.960)">
        <g transform="translate(-0.99,2.79) rotate(19.99) scale(0.940)" clip-path="url(#clipDynamic)">
        <g transform="translate(1.49,3.51) rotate(24.67) scale(0.920)">
        <g transform="translate(3.59,3.92) rotate(28.04) scale(0.900)">
        <g transform="translate(4.82,3.98) rotate(29.59) scale(0.880)">
        <rect x="-26.3" y="-26.3" width="52.7" height="52.7" rx="13.2" fill="url(#lgrad4)" filter="url(#shadow)" opacity="0.31"/>
        <circle cx="0" cy="0" r="17.6" fill="url(#rgrad0)" opacity="0.22"/>
      </g>
      </g>
      </g>
      </g>
      </g>
      </g>
      </g>
  </g>
  <g transform="translate(556.6, 358.8)">
      <g transform="translate(-3.21,3.06) rotate(4.02) scale(1.000)">
        <g transform="translate(-0.99,3.69) rotate(9.06) scale(0.980)">
        <g transform="translate(1.49,3.98) rotate(14.58) scale(0.960)">
        <g transform="translate(3.59,3.92) rotate(19.99) scale(0.940)">
        <g transform="translate(4.82,3.51) rotate(24.67) scale(0.920)">
        <g transform="translate(4.87,2.78) rotate(28.04) scale(0.900)" mask="url(#maskStripes)">
        <g transform="translate(3.72,1.81) rotate(29.59) scale(0.880)">
        <path d="M23.4,13.5 L0.0,27.0 L-23.4,13.5 L-23.4,-13.5 L-0.0,-27.0 L23.4,-13.5Z" fill="url(#rgrad0)" filter="url(#blur0)" opacity="0.22"/>
        <ellipse cx="0" cy="0" rx="11.3" ry="7.5" fill="#FFFFFF" opacity="0.11"/>
      </g>
      </g>
      </g>
      </g>
      </g>
      </g>
      </g>
  </g>
  <g transform="translate(786.5, 355.3)">
      <g transform="translate(1.49,3.82) rotate(4.02) scale(1.000)">
        <g transform="translate(3.59,3.30) rotate(9.06) scale(0.980)">
        <g transform="translate(4.82,2.48) rotate(14.58) scale(0.960)">
        <g transform="translate(4.87,1.44) rotate(19.99) scale(0.940)">
        <g transform="translate(3.72,0.28) rotate(24.67) scale(0.920)">
        <g transform="translate(1.67,-0.92) rotate(28.04) scale(0.900)">
        <g transform="translate(-0.80,-2.02) rotate(29.59) scale(0.880)">
        <circle cx="0" cy="0" r="25.6" fill="url(#rgrad1)" filter="url(#shadow)" opacity="0.14"/>
        <text x="0" y="5" text-anchor="middle" font-family="Arial, sans-serif" font-size="14" fill="#FFFFFF" opacity="0.14">298</text>
      </g>
      </g>
      </g>
      </g>
      </g>
      </g>
      </g>
  </g>
  <g transform="translate(1010.0, 363.4)">
      <g transform="translate(4.82,1.06) rotate(4.02) scale(1.000)">
        <g transform="translate(4.87,-0.12) rotate(9.06) scale(0.980)">
        <g transform="translate(3.72,-1.30) rotate(14.58) scale(0.960)">
        <g transform="translate(1.67,-2.36) rotate(19.99) scale(0.940)" clip-path="url(#clipHex)">
        <g transform="translate(-0.80,-3.21) rotate(24.67) scale(0.920)">
        <g transform="translate(-3.07,-3.77) rotate(28.04) scale(0.900)">
        <g transform="translate(-4.58,-4.00) rotate(29.59) scale(0.880)">
        <path d="M0.0,-65.4 L19.2,-26.5 L62.2,-20.2 L31.1,10.1 L38.4,52.9 L0.0,32.7 L-38.4,52.9 L-31.1,10.1 L-62.2,-20.2 L-19.2,-26.5Z" fill="url(#lgrad2)" filter="url(#blur2)" opacity="0.11"/>
      </g>
      </g>
      </g>
      </g>
      </g>
      </g>
      </g>
  </g>
  <g transform="translate(1226.1, 379.3)">
      <g transform="translate(3.72,-2.67) rotate(4.02) scale(1.000)">
        <g transform="translate(1.67,-3.43) rotate(9.06) scale(0.980)">
        <g transform="translate(-0.80,-3.89) rotate(14.58) scale(0.960)">
        <g transform="translate(-3.07,-3.99) rotate(19.99) scale(0.940)">
        <g transform="translate(-4.58,-3.74) rotate(24.67) scale(0.920)">
        <g transform="translate(-4.98,-3.16) rotate(28.04) scale(0.900)" mask="url(#maskCircleFade)">
        <g transform="translate(-4.16,-2.29) rotate(29.59) scale(0.880)">
        <rect x="-37.3" y="-37.3" width="74.7" height="74.7" rx="18.7" fill="url(#rgrad3)" filter="url(#shadow)" opacity="0.10"/>
        <circle cx="0" cy="0" r="24.9" fill="url(#rgrad4)" opacity="0.07"/>
      </g>
      </g>
      </g>
      </g>
      </g>
      </g>
      </g>
  </g>
  <g transform="translate(1435.9, 395.6)">
      <g transform="translate(-0.80,-3.95) rotate(4.02) scale(1.000)">
        <g transform="translate(-3.07,-3.58) rotate(9.06) scale(0.980)">
        <g transform="translate(-4.58,-2.90) rotate(14.58) scale(0.960)">
        <g transform="translate(-4.98,-1.96) rotate(19.99) scale(0.940)">
        <g transform="translate(-4.16,-0.84) rotate(24.67) scale(0.920)">
        <g transform="translate(-2.32,0.36) rotate(28.04) scale(0.900)">
        <g transform="translate(0.09,1.52) rotate(29.59) scale(0.880)">
        <path d="M36.6,21.1 L0.0,42.3 L-36.6,21.1 L-36.6,-21.1 L-0.0,-42.3 L36.6,-21.1Z" fill="url(#rgrad4)" filter="url(#blur4)" opacity="0.14"/>
        <ellipse cx="0" cy="0" rx="17.6" ry="11.7" fill="#FFFFFF" opacity="0.07"/>
      </g>
      </g>
      </g>
      </g>
      </g>
      </g>
      </g>
  </g>
  <g transform="translate(1641.7, 404.5)">
      <g transform="translate(-4.58,-1.60) rotate(4.02) scale(1.000)">
        <g transform="translate(-4.98,-0.44) rotate(9.06) scale(0.980)">
        <g transform="translate(-4.16,0.75) rotate(14.58) scale(0.960)">
        <g transform="translate(-2.32,1.88) rotate(19.99) scale(0.940)" clip-path="url(#clipCircle)">
        <g transform="translate(0.09,2.84) rotate(24.67) scale(0.920)">
        <g transform="translate(2.48,3.55) rotate(28.04) scale(0.900)">
        <g transform="translate(4.26,3.93) rotate(29.59) scale(0.880)">
        <circle cx="0" cy="0" r="28.3" fill="url(#lgrad0)" filter="url(#shadow)" opacity="0.20"/>
        <text x="0" y="5" text-anchor="middle" font-family="Arial, sans-serif" font-size="14" fill="#FFFFFF" opacity="0.20">298</text>
      </g>
      </g>
      </g>
      </g>
      </g>
      </g>
      </g>
  </g>
  <g transform="translate(87.1, 681.9)">
      <g transform="translate(-4.16,2.22) rotate(4.02) scale(1.000)">
        <g transform="translate(-2.32,3.11) rotate(9.06) scale(0.980)">
        <g transform="translate(0.09,3.71) rotate(14.58) scale(0.960)">
        <g transform="translate(2.48,3.99) rotate(19.99) scale(0.940)">
        <g transform="translate(4.26,3.90) rotate(24.67) scale(0.920)">
        <g transform="translate(4.99,3.47) rotate(28.04) scale(0.900)" mask="url(#maskGradient)">
        <g transform="translate(4.51,2.73) rotate(29.59) scale(0.880)">
        <path d="M0.0,-45.9 L13.5,-18.6 L43.6,-14.2 L21.8,7.1 L27.0,37.1 L0.0,22.9 L-27.0,37.1 L-21.8,7.1 L-43.6,-14.2 L-13.5,-18.6Z" fill="url(#rgrad1)" filter="url(#blur1)" opacity="0.29"/>
      </g>
      </g>
      </g>
      </g>
      </g>
      </g>
      </g>
  </g>
  <g transform="translate(295.7, 669.0)">
      <g transform="translate(0.09,4.00) rotate(4.02) scale(1.000)">
        <g transform="translate(2.48,3.80) rotate(9.06) scale(0.980)">
        <g transform="translate(4.26,3.26) rotate(14.58) scale(0.960)">
        <g transform="translate(4.99,2.43) rotate(19.99) scale(0.940)">
        <g transform="translate(4.51,1.38) rotate(24.67) scale(0.920)">
        <g transform="translate(2.92,0.21) rotate(28.04) scale(0.900)">
        <g transform="translate(0.61,-0.98) rotate(29.59) scale(0.880)">
        <rect x="-24.1" y="-24.1" width="48.1" height="48.1" rx="12.0" fill="url(#rgrad2)" filter="url(#shadow)" opacity="0.40"/>
        <circle cx="0" cy="0" r="16.0" fill="url(#rgrad3)" opacity="0.28"/>
      </g>
      </g>
      </g>
      </g>
      </g>
      </g>
      </g>
  </g>
  <g transform="translate(510.2, 651.9)">
      <g transform="translate(4.26,2.10) rotate(4.02) scale(1.000)">
        <g transform="translate(4.99,1.00) rotate(9.06) scale(0.980)">
        <g transform="translate(4.51,-0.19) rotate(14.58) scale(0.960)">
        <g transform="translate(2.92,-1.36) rotate(19.99) scale(0.940)" clip-path="url(#clipRect)">
        <g transform="translate(0.61,-2.41) rotate(24.67) scale(0.920)">
        <g transform="translate(-1.84,-3.25) rotate(28.04) scale(0.900)">
        <g transform="translate(-3.84,-3.79) rotate(29.59) scale(0.880)">
        <path d="M31.8,18.4 L0.0,36.8 L-31.8,18.4 L-31.8,-18.4 L-0.0,-36.8 L31.8,-18.4Z" fill="url(#lgrad3)" filter="url(#blur3)" opacity="0.52"/>
        <ellipse cx="0" cy="0" rx="15.3" ry="10.2" fill="#FFFFFF" opacity="0.26"/>
      </g>
      </g>
      </g>
      </g>
      </g>
      </g>
      </g>
  </g>
  <g transform="translate(732.1, 638.6)">
      <g transform="translate(4.51,-1.73) rotate(4.02) scale(1.000)">
        <g transform="translate(2.92,-2.72) rotate(9.06) scale(0.980)">
        <g transform="translate(0.61,-3.46) rotate(14.58) scale(0.960)">
        <g transform="translate(-1.84,-3.90) rotate(19.99) scale(0.940)">
        <g transform="translate(-3.84,-3.99) rotate(24.67) scale(0.920)">
        <g transform="translate(-4.91,-3.72) rotate(28.04) scale(0.900)" mask="url(#maskDynamic)">
        <g transform="translate(-4.77,-3.12) rotate(29.59) scale(0.880)">
        <circle cx="0" cy="0" r="36.6" fill="url(#rgrad4)" filter="url(#shadow)" opacity="0.64"/>
        <text x="0" y="5" text-anchor="middle" font-family="Arial, sans-serif" font-size="14" fill="#FFFFFF" opacity="0.64">298</text>
      </g>
      </g>
      </g>
      </g>
      </g>
      </g>
      </g>
  </g>
  <g transform="translate(960.7, 635.3)">
      <g transform="translate(0.61,-3.97) rotate(4.02) scale(1.000)">
        <g transform="translate(-1.84,-3.94) rotate(9.06) scale(0.980)">
        <g transform="translate(-3.84,-3.55) rotate(14.58) scale(0.960)">
        <g transform="translate(-4.91,-2.85) rotate(19.99) scale(0.940)">
        <g transform="translate(-4.77,-1.90) rotate(24.67) scale(0.920)">
        <g transform="translate(-3.46,-0.77) rotate(28.04) scale(0.900)">
        <g transform="translate(-1.31,0.42) rotate(29.59) scale(0.880)">
        <path d="M0.0,-73.1 L21.5,-29.6 L69.5,-22.6 L34.7,11.3 L42.9,59.1 L0.0,36.5 L-42.9,59.1 L-34.7,11.3 L-69.5,-22.6 L-21.5,-29.6Z" fill="url(#rgrad0)" filter="url(#blur0)" opacity="0.74"/>
      </g>
      </g>
      </g>
      </g>
      </g>
      </g>
      </g>
  </g>
  <g transform="translate(1194.1, 643.7)">
      <g transform="translate(-3.84,-2.56) rotate(4.02) scale(1.000)">
        <g transform="translate(-4.91,-1.54) rotate(9.06) scale(0.980)">
        <g transform="translate(-4.77,-0.38) rotate(14.58) scale(0.960)">
        <g transform="translate(-3.46,0.82) rotate(19.99) scale(0.940)" clip-path="url(#clipStar)">
        <g transform="translate(-1.31,1.94) rotate(24.67) scale(0.920)">
        <g transform="translate(1.17,2.89) rotate(28.04) scale(0.900)">
        <g transform="translate(3.35,3.58) rotate(29.59) scale(0.880)">
        <rect x="-30.4" y="-30.4" width="60.9" height="60.9" rx="15.2" fill="url(#lgrad1)" filter="url(#shadow)" opacity="0.83"/>
        <circle cx="0" cy="0" r="20.3" fill="url(#rgrad2)" opacity="0.58"/>
      </g>
      </g>
      </g>
      </g>
      </g>
      </g>
      </g>
  </g>
  <g transform="translate(1428.9, 659.7)">
      <g transform="translate(-4.77,1.21) rotate(4.02) scale(1.000)">
        <g transform="translate(-3.46,2.28) rotate(9.06) scale(0.980)">
        <g transform="translate(-1.31,3.15) rotate(14.58) scale(0.960)">
        <g transform="translate(1.17,3.74) rotate(19.99) scale(0.940)">
        <g transform="translate(3.35,3.99) rotate(24.67) scale(0.920)">
        <g transform="translate(4.72,3.89) rotate(28.04) scale(0.900)" mask="url(#maskStripes)">
        <g transform="translate(4.93,3.44) rotate(29.59) scale(0.880)">
        <path d="M24.9,14.4 L0.0,28.7 L-24.9,14.4 L-24.9,-14.4 L-0.0,-28.7 L24.9,-14.4Z" fill="url(#rgrad2)" filter="url(#blur2)" opacity="0.88"/>
        <ellipse cx="0" cy="0" rx="12.0" ry="8.0" fill="#FFFFFF" opacity="0.44"/>
      </g>
      </g>
      </g>
      </g>
      </g>
      </g>
      </g>
  </g>
  <g transform="translate(1661.6, 675.9)">
      <g transform="translate(-1.31,3.86) rotate(4.02) scale(1.000)">
        <g transform="translate(1.17,4.00) rotate(9.06) scale(0.980)">
        <g transform="translate(3.35,3.78) rotate(14.58) scale(0.960)">
        <g transform="translate(4.72,3.22) rotate(19.99) scale(0.940)">
        <g transform="translate(4.93,2.37) rotate(24.67) scale(0.920)">
        <g transform="translate(3.94,1.32) rotate(28.04) scale(0.900)">
        <g transform="translate(1.98,0.14) rotate(29.59) scale(0.880)">
        <circle cx="0" cy="0" r="23.0" fill="url(#rgrad3)" filter="url(#shadow)" opacity="0.90"/>
        <text x="0" y="5" text-anchor="middle" font-family="Arial, sans-serif" font-size="14" fill="#FFFFFF" opacity="0.90">298</text>
      </g>
      </g>
      </g>
      </g>
      </g>
      </g>
      </g>
  </g>
  <g transform="translate(128.9, 964.6)">
      <g transform="translate(3.35,2.97) rotate(4.02) scale(1.000)">
        <g transform="translate(4.72,2.04) rotate(9.06) scale(0.980)">
        <g transform="translate(4.93,0.93) rotate(14.58) scale(0.960)">
        <g transform="translate(3.94,-0.26) rotate(19.99) scale(0.940)" clip-path="url(#clipDynamic)">
        <g transform="translate(1.98,-1.43) rotate(24.67) scale(0.920)">
        <g transform="translate(-0.47,-2.47) rotate(28.04) scale(0.900)">
        <g transform="translate(-2.80,-3.29) rotate(29.59) scale(0.880)">
        <path d="M0.0,-57.0 L16.8,-23.1 L54.2,-17.6 L27.1,8.8 L33.5,46.1 L0.0,28.5 L-33.5,46.1 L-27.1,8.8 L-54.2,-17.6 L-16.8,-23.1Z" fill="url(#lgrad4)" filter="url(#blur4)" opacity="0.88"/>
      </g>
      </g>
      </g>
      </g>
      </g>
      </g>
      </g>
  </g>
  <g transform="translate(395.6, 276.6)" mask="url(#maskGradient)">
    <ellipse cx="0" cy="0" rx="200" ry="150" fill="url(#rgrad0)" filter="url(#blur3)" opacity="0.3"/>
  </g>
  <g transform="translate(827.0, 232.8)" mask="url(#maskCircleFade)">
    <ellipse cx="0" cy="0" rx="200" ry="150" fill="url(#rgrad1)" filter="url(#blur3)" opacity="0.3"/>
  </g>
  <g transform="translate(1233.6, 220.6)" mask="url(#maskStripes)">
    <ellipse cx="0" cy="0" rx="200" ry="150" fill="url(#rgrad2)" filter="url(#blur3)" opacity="0.3"/>
  </g>
</svg>