<?xml version="1.0" encoding="UTF-8"?>
<svg xmlns="http://www.w3.org/2000/svg" viewBox="0 0 1920 1080" width="1920" height="1080">
  <defs>
    <filter id="blur0" x="-50%" y="-50%" width="200%" height="200%">
      <feGaussianBlur in="SourceGraphic" stdDeviation="1"/>
    </filter>
    <filter id="blur1" x="-50%" y="-50%" width="200%" height="200%">
      <feGaussianBlur in="SourceGraphic" stdDeviation="3"/>
    </filter>
    <filter id="blur2" x="-50%" y="-50%" width="200%" height="200%">
      <feGaussianBlur in="SourceGraphic" stdDeviation="5"/>
    </filter>
    <filter id="blur3" x="-50%" y="-50%" width="200%" height="200%">
      <feGaussianBlur in="SourceGraphic" stdDeviation="7"/>
    </filter>
    <filter id="blur4" x="-50%" y="-50%" width="200%" height="200%">
      <feGaussianBlur in="SourceGraphic" stdDeviation="9"/>
    </filter>
    <filter id="shadow" x="-50%" y="-50%" width="200%" height="200%">
      <feGaussianBlur in="SourceAlpha" stdDeviation="3" result="blur"/>
      <feOffset in="blur" dx="4" dy="4" result="offsetBlur"/>
      <feMerge>
        <feMergeNode in="offsetBlur"/>
        <feMergeNode in="SourceGraphic"/>
      </feMerge>
    </filter>
    <linearGradient id="lgrad0" x1="0%" y1="0%" x2="8.1%" y2="77.2%">
      <stop offset="0%" stop-color="#FF6B6B"/>
      <stop offset="33%" stop-color="#4ECDC4"/>
      <stop offset="66%" stop-color="#45B7D1"/>
      <stop offset="100%" stop-color="#96E6A1"/>
    </linearGradient>
    <linearGradient id="lgrad1" x1="0%" y1="0%" x2="0.1%" y2="52.6%">
      <stop offset="0%" stop-color="#FFE66D"/>
      <stop offset="33%" stop-color="#FF6B6B"/>
      <stop offset="66%" stop-color="#C44D58"/>
      <stop offset="100%" stop-color="#8B0000"/>
    </linearGradient>
    <linearGradient id="lgrad2" x1="0%" y1="0%" x2="5.4%" y2="27.3%">
      <stop offset="0%" stop-color="#4169E1"/>
      <stop offset="33%" stop-color="#7B68EE"/>
      <stop offset="66%" stop-color="#9370DB"/>
      <stop offset="100%" stop-color="#FFD700"/>
    </linearGradient>
    <linearGradient id="lgrad3" x1="0%" y1="0%" x2="22.8%" y2="8.1%">
      <stop offset="0%" stop-color="#32CD32"/>
      <stop offset="33%" stop-color="#228B22"/>
      <stop offset="66%" stop-color="#006400"/>
      <stop offset="100%" stop-color="#ADFF2F"/>
    </linearGradient>
    <linearGradient id="lgrad4" x1="0%" y1="0%" x2="47.4%" y2="0.1%">
      <stop offset="0%" stop-color="#FF1493"/>
      <stop offset="33%" stop-color="#FF69B4"/>
      <stop offset="66%" stop-color="#FFB6C1"/>
      <stop offset="100%" stop-color="#FFC0CB"/>
    </linearGradient>
    <radialGradient id="rgrad0" cx="67.2%" cy="54.8%" r="60%">
      <stop offset="0%" stop-color="#FF6B6B" stop-opacity="1"/>
      <stop offset="50%" stop-color="#4ECDC4" stop-opacity="0.8"/>
      <stop offset="100%" stop-color="#45B7D1" stop-opacity="0.6"/>
    </radialGradient>
    <radialGradient id="rgrad1" cx="37.2%" cy="62.8%" r="60%">
      <stop offset="0%" stop-color="#FFE66D" stop-opacity="1"/>
      <stop offset="50%" stop-color="#FF6B6B" stop-opacity="0.8"/>
      <stop offset="100%" stop-color="#C44D58" stop-opacity="0.6"/>
    </radialGradient>
    <radialGradient id="rgrad2" cx="47.2%" cy="30.8%" r="60%">
      <stop offset="0%" stop-color="#4169E1" stop-opacity="1"/>
      <stop offset="50%" stop-color="#7B68EE" stop-opacity="0.8"/>
      <stop offset="100%" stop-color="#9370DB" stop-opacity="0.6"/>
    </radialGradient>
    <radialGradient id="rgrad3" cx="57.2%" cy="38.8%" r="60%">
      <stop offset="0%" stop-color="#32CD32" stop-opacity="1"/>
      <stop offset="50%" stop-color="#228B22" stop-opacity="0.8"/>
      <stop offset="100%" stop-color="#006400" stop-opacity="0.6"/>
    </radialGradient>
    <radialGradient id="rgrad4" cx="67.2%" cy="46.8%" r="60%">
      <stop offset="0%" stop-color="#FF1493" stop-opacity="1"/>
      <stop offset="50%" stop-color="#FF69B4" stop-opacity="0.8"/>
      <stop offset="100%" stop-color="#FFB6C1" stop-opacity="0.6"/>
    </radialGradient>
    <clipPath id="clipCircle">
      <circle cx="0" cy="0" r="50"/>
    </clipPath>
    <clipPath id="clipStar">
      <path d="M0.0,-50.0 L14.7,-20.2 L47.6,-15.5 L23.8,7.7 L29.4,40.5 L0.0,25.0 L-29.4,40.5 L-23.8,7.7 L-47.6,-15.5 L-14.7,-20.2Z"/>
    </clipPath>
    <clipPath id="clipHex">
      <path d="M39.0,22.5 L0.0,45.0 L-39.0,22.5 L-39.0,-22.5 L-0.0,-45.0 L39.0,-22.5Z"/>
    </clipPath>
    <clipPath id="clipRect">
      <rect x="-40" y="-30" width="80" height="60" rx="10"/>
    </clipPath>
    <clipPath id="clipDynamic">
      <circle cx="0" cy="0" r="28.1"/>
    </clipPath>
    <mask id="maskGradient" maskContentUnits="objectBoundingBox">
      <rect x="0" y="0" width="1" height="1" fill="url(#maskGrad)"/>
    </mask>
    <linearGradient id="maskGrad" x1="0%" y1="0%" x2="100%" y2="100%">
      <stop offset="0%" stop-color="white"/>
      <stop offset="100%" stop-color="black"/>
    </linearGradient>
    <mask id="maskCircleFade">
      <circle cx="0" cy="0" r="60" fill="white"/>
      <circle cx="0" cy="0" r="30" fill="black"/>
    </mask>
    <mask id="maskStripes">
      <rect x="-50" y="-50" width="100" height="100" fill="white"/>
      <rect x="-50" y="-40" width="100" height="10" fill="black"/>
      <rect x="-50" y="-20" width="100" height="10" fill="black"/>
      <rect x="-50" y="0" width="100" height="10" fill="black"/>
      <rect x="-50" y="20" width="100" height="10" fill="black"/>
      <rect x="-50" y="40" width="100" height="10" fill="black"/>
    </mask>
    <mask id="maskDynamic">
      <rect x="-60" y="-60" width="120" height="120" fill="white" fill-opacity="0.47"/>
      <circle cx="0" cy="0" r="25" fill="white"/>
    </mask>
  </defs>
  <rect width="1920" height="1080" fill="url(#lgrad0)"/>
  <g transform="translate(86.2, 122.2)">
      <g transform="translate(-2.30,3.55) rotate(1.18) scale(1.000)">
        <g transform="translate(0.11,3.94) rotate(0.39) scale(0.980)">
        <g transform="translate(2.49,3.97) rotate(-2.40) scale(0.960)">
        <g transform="translate(4.27,3.65) rotate(-7.06) scale(0.940)" clip-path="url(#clipCircle)">
        <g transform="translate(4.99,3.00) rotate(-13.30) scale(0.920)">
        <g transform="translate(4.50,2.09) rotate(-20.69) scale(0.900)">
        <g transform="translate(2.90,0.98) rotate(-28.69) scale(0.880)">
        <path d="M0.0,-63.6 L18.7,-25.7 L60.4,-19.6 L30.2,9.8 L37.4,51.4 L0.0,31.8 L-37.4,51.4 L-30.2,9.8 L-60.4,-19.6 L-18.7,-25.7Z" fill="url(#lgrad0)" filter="url(#blur0)" opacity="0.59"/>
      </g>
      </g>
      </g>
      </g>
      </g>
      </g>
      </g>
  </g>
  <g transform="translate(320.7, 124.4)">
      <g transform="translate(2.49,3.47) rotate(1.18) scale(1.000)">
        <g transform="translate(4.27,2.72) rotate(0.39) scale(0.980)">
        <g transform="translate(4.99,1.74) rotate(-2.40) scale(0.960)">
        <g transform="translate(4.50,0.59) rotate(-7.06) scale(0.940)">
        <g transform="translate(2.90,-0.60) rotate(-13.30) scale(0.920)">
        <g transform="translate(0.60,-1.74) rotate(-20.69) scale(0.900)" mask="url(#maskCircleFade)">
        <g transform="translate(-1.86,-2.73) rotate(-28.69) scale(0.880)">
        <rect x="-24.8" y="-24.8" width="49.7" height="49.7" rx="12.4" fill="url(#rgrad1)" filter="url(#shadow)" opacity="0.48"/>
        <circle cx="0" cy="0" r="16.6" fill="url(#rgrad2)" opacity="0.33"/>
      </g>
      </g>
      </g>
      </g>
      </g>
      </g>
      </g>
  </g>
  <g transform="translate(555.0, 115.1)">
      <g transform="translate(4.99,0.20) rotate(1.18) scale(1.000)">
        <g transform="translate(4.50,-0.99) rotate(0.39) scale(0.980)">
        <g transform="translate(2.90,-2.09) rotate(-2.40) scale(0.960)">
        <g transform="translate(0.60,-3.01) rotate(-7.06) scale(0.940)">
        <g transform="translate(-1.86,-3.65) rotate(-13.30) scale(0.920)">
        <g transform="translate(-3.85,-3.97) rotate(-20.69) scale(0.900)">
        <g transform="translate(-4.91,-3.94) rotate(-28.69) scale(0.880)">
        <path d="M23.5,13.6 L0.0,27.2 L-23.5,13.6 L-23.5,-13.6 L-0.0,-27.2 L23.5,-13.6Z" fill="url(#rgrad2)" filter="url(#blur2)" opacity="0.36"/>
        <ellipse cx="0" cy="0" rx="11.3" ry="7.5" fill="#FFFFFF" opacity="0.18"/>
      </g>
      </g>
      </g>
      </g>
      </g>
      </g>
      </g>
  </g>
  <g transform="translate(785.6, 98.7)">
      <g transform="translate(2.90,-3.26) rotate(1.18) scale(1.000)">
        <g transform="translate(0.60,-3.80) rotate(0.39) scale(0.980)">
        <g transform="translate(-1.86,-4.00) rotate(-2.40) scale(0.960)">
        <g transform="translate(-3.85,-3.84) rotate(-7.06) scale(0.940)" clip-path="url(#clipRect)">
        <g transform="translate(-4.91,-3.34) rotate(-13.30) scale(0.920)">
        <g transform="translate(-4.76,-2.55) rotate(-20.69) scale(0.900)">
        <g transform="translate(-3.45,-1.52) rotate(-28.69) scale(0.880)">
        <circle cx="0" cy="0" r="27.2" fill="url(#lgrad3)" filter="url(#shadow)" opacity="0.25"/>
        <text x="0" y="5" text-anchor="middle" font-family="Arial, sans-serif" font-size="14" fill="#FFFFFF" opacity="0.25">924</text>
      </g>
      </g>
      </g>
      </g>
      </g>
      </g>
      </g>
  </g>
  <g transform="translate(1010.0, 82.9)">
      <g transform="translate(-1.86,-3.71) rotate(1.18) scale(1.000)">
        <g transform="translate(-3.85,-3.11) rotate(0.39) scale(0.980)">
        <g transform="translate(-4.91,-2.23) rotate(-2.40) scale(0.960)">
        <g transform="translate(-4.76,-1.15) rotate(-7.06) scale(0.940)">
        <g transform="translate(-3.45,0.04) rotate(-13.30) scale(0.920)">
        <g transform="translate(-1.29,1.22) rotate(-20.69) scale(0.900)" mask="url(#maskGradient)">
        <g transform="translate(1.18,2.29) rotate(-28.69) scale(0.880)">
        <path d="M0.0,-68.7 L20.2,-27.8 L65.3,-21.2 L32.7,10.6 L40.4,55.6 L0.0,34.4 L-40.4,55.6 L-32.7,10.6 L-65.3,-21.2 L-20.2,-27.8Z" fill="url(#rgrad4)" filter="url(#blur4)" opacity="0.17"/>
      </g>
      </g>
      </g>
      </g>
      </g>
      </g>
      </g>
  </g>
  <g transform="translate(1227.0, 75.2)">
      <g transform="translate(-4.91,-0.76) rotate(1.18) scale(1.000)">
        <g transform="translate(-4.76,0.44) rotate(0.39) scale(0.980)">
        <g transform="translate(-3.45,1.59) rotate(-2.40) scale(0.960)">
        <g transform="translate(-1.29,2.61) rotate(-7.06) scale(0.940)">
        <g transform="translate(1.18,3.39) rotate(-13.30) scale(0.920)">
        <g transform="translate(3.37,3.86) rotate(-20.69) scale(0.900)">
        <g transform="translate(4.73,4.00) rotate(-28.69) scale(0.880)">
        <rect x="-37.5" y="-37.5" width="75.0" height="75.0" rx="18.7" fill="url(#rgrad0)" filter="url(#shadow)" opacity="0.12"/>
        <circle cx="0" cy="0" r="25.0" fill="url(#rgrad1)" opacity="0.08"/>
      </g>
      </g>
      </g>
      </g>
      </g>
      </g>
      </g>
  </g>
  <g transform="translate(1437.4, 79.1)">
      <g transform="translate(-3.45,2.90) rotate(1.18) scale(1.000)">
        <g transform="translate(-1.29,3.58) rotate(0.39) scale(0.980)">
        <g transform="translate(1.18,3.95) rotate(-2.40) scale(0.960)">
        <g transform="translate(3.37,3.96) rotate(-7.06) scale(0.940)" clip-path="url(#clipStar)">
        <g transform="translate(4.73,3.62) rotate(-13.30) scale(0.920)">
        <g transform="translate(4.93,2.96) rotate(-20.69) scale(0.900)">
        <g transform="translate(3.93,2.03) rotate(-28.69) scale(0.880)">
        <path d="M35.1,20.2 L0.0,40.5 L-35.1,20.2 L-35.1,-20.2 L-0.0,-40.5 L35.1,-20.2Z" fill="url(#lgrad1)" filter="url(#blur1)" opacity="0.10"/>
        <ellipse cx="0" cy="0" rx="16.9" ry="11.2" fill="#FFFFFF" opacity="0.05"/>
      </g>
      </g>
      </g>
      </g>
      </g>
      </g>
      </g>
  </g>
  <g transform="translate(1643.6, 92.8)">
      <g transform="translate(1.18,3.89) rotate(1.18) scale(1.000)">
        <g transform="translate(3.37,3.43) rotate(0.39) scale(0.980)">
        <g transform="translate(4.73,2.67) rotate(-2.40) scale(0.960)">
        <g transform="translate(4.93,1.67) rotate(-7.06) scale(0.940)">
        <g transform="translate(3.93,0.53) rotate(-13.30) scale(0.920)">
        <g transform="translate(1.96,-0.67) rotate(-20.69) scale(0.900)" mask="url(#maskDynamic)">
        <g transform="translate(-0.49,-1.80) rotate(-28.69) scale(0.880)">
        <circle cx="0" cy="0" r="26.6" fill="url(#rgrad2)" filter="url(#shadow)" opacity="0.12"/>
        <text x="0" y="5" text-anchor="middle" font-family="Arial, sans-serif" font-size="14" fill="#FFFFFF" opacity="0.12">924</text>
      </g>
      </g>
      </g>
      </g>
      </g>
      </g>
      </g>
  </g>
  <g transform="translate(88.9, 390.0)">
      <g transform="translate(4.73,1.30) rotate(1.18) scale(1.000)">
        <g transform="translate(4.93,0.13) rotate(0.39) scale(0.980)">
        <g transform="translate(3.93,-1.06) rotate(-2.40) scale(0.960)">
        <g transform="translate(1.96,-2.15) rotate(-7.06) scale(0.940)">
        <g transform="translate(-0.49,-3.05) rotate(-13.30) scale(0.920)">
        <g transform="translate(-2.81,-3.68) rotate(-20.69) scale(0.900)">
        <g transform="translate(-4.45,-3.98) rotate(-28.69) scale(0.880)">
        <path d="M0.0,-45.1 L13.2,-18.2 L42.9,-13.9 L21.4,7.0 L26.5,36.5 L0.0,22.5 L-26.5,36.5 L-21.4,7.0 L-42.9,-13.9 L-13.2,-18.2Z" fill="url(#rgrad3)" filter="url(#blur3)" opacity="0.17"/>
      </g>
      </g>
      </g>
      </g>
      </g>
      </g>
      </g>
  </g>
  <g transform="translate(296.9, 402.4)">
      <g transform="translate(3.93,-2.48) rotate(1.18) scale(1.000)">
        <g transform="translate(1.96,-3.30) rotate(0.39) scale(0.980)">
        <g transform="translate(-0.49,-3.82) rotate(-2.40) scale(0.960)">
        <g transform="translate(-2.81,-4.00) rotate(-7.06) scale(0.940)" clip-path="url(#clipDynamic)">
        <g transform="translate(-4.45,-3.82) rotate(-13.30) scale(0.920)">
        <g transform="translate(-5.00,-3.31) rotate(-20.69) scale(0.900)">
        <g transform="translate(-4.32,-2.50) rotate(-28.69) scale(0.880)">
        <rect x="-25.4" y="-25.4" width="50.8" height="50.8" rx="12.7" fill="url(#lgrad4)" filter="url(#shadow)" opacity="0.25"/>
        <circle cx="0" cy="0" r="16.9" fill="url(#rgrad0)" opacity="0.17"/>
      </g>
      </g>
      </g>
      </g>
      </g>
      </g>
      </g>
  </g>
  <g transform="translate(510.5, 404.3)">
      <g transform="translate(-0.49,-3.98) rotate(1.18) scale(1.000)">
        <g transform="translate(-2.81,-3.69) rotate(0.39) scale(0.980)">
        <g transform="translate(-4.45,-3.07) rotate(-2.40) scale(0.960)">
        <g transform="translate(-5.00,-2.17) rotate(-7.06) scale(0.940)">
        <g transform="translate(-4.32,-1.08) rotate(-13.30) scale(0.920)">
        <g transform="translate(-2.59,0.11) rotate(-20.69) scale(0.900)" mask="url(#maskStripes)">
        <g transform="translate(-0.22,1.28) rotate(-28.69) scale(0.880)">
        <path d="M33.7,19.5 L0.0,39.0 L-33.7,19.5 L-33.7,-19.5 L-0.0,-39.0 L33.7,-19.5Z" fill="url(#rgrad0)" filter="url(#blur0)" opacity="0.35"/>
        <ellipse cx="0" cy="0" rx="16.2" ry="10.8" fill="#FFFFFF" opacity="0.18"/>
      </g>
      </g>
      </g>
      </g>
      </g>
      </g>
      </g>
  </g>
  <g transform="translate(731.4, 394.8)">
      <g transform="translate(-4.45,-1.82) rotate(1.18) scale(1.000)">
        <g transform="translate(-5.00,-0.69) rotate(0.39) scale(0.980)">
        <g transform="translate(-4.32,0.50) rotate(-2.40) scale(0.960)">
        <g transform="translate(-2.59,1.65) rotate(-7.06) scale(0.940)">
        <g transform="translate(-0.22,2.66) rotate(-13.30) scale(0.920)">
        <g transform="translate(2.20,3.42) rotate(-20.69) scale(0.900)">
        <g transform="translate(4.08,3.88) rotate(-28.69) scale(0.880)">
        <circle cx="0" cy="0" r="37.3" fill="url(#rgrad1)" filter="url(#shadow)" opacity="0.47"/>
        <text x="0" y="5" text-anchor="middle" font-family="Arial, sans-serif" font-size="14" fill="#FFFFFF" opacity="0.47">924</text>
      </g>
      </g>
      </g>
      </g>
      </g>
      </g>
      </g>
  </g>
  <g transform="translate(959.3, 378.3)">
      <g transform="translate(-4.32,2.01) rotate(1.18) scale(1.000)">
        <g transform="translate(-2.59,2.94) rotate(0.39) scale(0.980)">
        <g transform="translate(-0.22,3.61) rotate(-2.40) scale(0.960)">
        <g transform="translate(2.20,3.96) rotate(-7.06) scale(0.940)" clip-path="url(#clipHex)">
        <g transform="translate(4.08,3.95) rotate(-13.30) scale(0.920)">
        <g transform="translate(4.97,3.59) rotate(-20.69) scale(0.900)">
        <g transform="translate(4.63,2.91) rotate(-28.69) scale(0.880)">
        <path d="M0.0,-70.8 L20.8,-28.6 L67.4,-21.9 L33.7,10.9 L41.6,57.3 L0.0,35.4 L-41.6,57.3 L-33.7,10.9 L-67.4,-21.9 L-20.8,-28.6Z" fill="url(#lgrad2)" filter="url(#blur2)" opacity="0.59"/>
      </g>
      </g>
      </g>
      </g>
      </g>
      </g>
      </g>
  </g>
  <g transform="translate(1192.3, 362.6)">
      <g transform="translate(-0.22,4.00) rotate(1.18) scale(1.000)">
        <g transform="translate(2.20,3.87) rotate(0.39) scale(0.980)">
        <g transform="translate(4.08,3.40) rotate(-2.40) scale(0.960)">
        <g transform="translate(4.97,2.62) rotate(-7.06) scale(0.940)">
        <g transform="translate(4.63,1.61) rotate(-13.30) scale(0.920)">
        <g transform="translate(3.17,0.46) rotate(-20.69) scale(0.900)" mask="url(#maskCircleFade)">
        <g transform="translate(0.92,-0.74) rotate(-28.69) scale(0.880)">
        <rect x="-28.5" y="-28.5" width="57.1" height="57.1" rx="14.3" fill="url(#rgrad3)" filter="url(#shadow)" opacity="0.70"/>
        <circle cx="0" cy="0" r="19.0" fill="url(#rgrad4)" opacity="0.49"/>
      </g>
      </g>
      </g>
      </g>
      </g>
      </g>
      </g>
  </g>
  <g transform="translate(1427.1, 355.1)">
      <g transform="translate(4.08,2.31) rotate(1.18) scale(1.000)">
        <g transform="translate(4.97,1.24) rotate(0.39) scale(0.980)">
        <g transform="translate(4.63,0.06) rotate(-2.40) scale(0.960)">
        <g transform="translate(3.17,-1.12) rotate(-7.06) scale(0.940)">
        <g transform="translate(0.92,-2.21) rotate(-13.30) scale(0.920)">
        <g transform="translate(-1.54,-3.10) rotate(-20.69) scale(0.900)">
        <g transform="translate(-3.64,-3.71) rotate(-28.69) scale(0.880)">
        <path d="M23.9,13.8 L0.0,27.6 L-23.9,13.8 L-23.9,-13.8 L-0.0,-27.6 L23.9,-13.8Z" fill="url(#rgrad4)" filter="url(#blur4)" opacity="0.79"/>
        <ellipse cx="0" cy="0" rx="11.5" ry="7.7" fill="#FFFFFF" opacity="0.40"/>
      </g>
      </g>
      </g>
      </g>
      </g>
      </g>
      </g>
  </g>
  <g transform="translate(1660.2, 359.3)">
      <g transform="translate(4.63,-1.50) rotate(1.18) scale(1.000)">
        <g transform="translate(3.17,-2.53) rotate(0.39) scale(0.980)">
        <g transform="translate(0.92,-3.33) rotate(-2.40) scale(0.960)">
        <g transform="translate(-1.54,-3.84) rotate(-7.06) scale(0.940)" clip-path="url(#clipCircle)">
        <g transform="translate(-3.64,-4.00) rotate(-13.30) scale(0.920)">
        <g transform="translate(-4.84,-3.80) rotate(-20.69) scale(0.900)">
        <g transform="translate(-4.85,-3.27) rotate(-28.69) scale(0.880)">
        <circle cx="0" cy="0" r="23.9" fill="url(#lgrad0)" filter="url(#shadow)" opacity="0.86"/>
        <text x="0" y="5" text-anchor="middle" font-family="Arial, sans-serif" font-size="14" fill="#FFFFFF" opacity="0.86">924</text>
      </g>
      </g>
      </g>
      </g>
      </g>
      </g>
      </g>
  </g>
  <g transform="translate(128.4, 653.2)">
      <g transform="translate(0.92,-3.93) rotate(1.18) scale(1.000)">
        <g transform="translate(-1.54,-3.97) rotate(0.39) scale(0.980)">
        <g transform="translate(-3.64,-3.66) rotate(-2.40) scale(0.960)">
        <g transform="translate(-4.84,-3.02) rotate(-7.06) scale(0.940)">
        <g transform="translate(-4.85,-2.11) rotate(-13.30) scale(0.920)">
        <g transform="translate(-3.68,-1.02) rotate(-20.69) scale(0.900)" mask="url(#maskGradient)">
        <g transform="translate(-1.61,0.17) rotate(-28.69) scale(0.880)">
        <path d="M0.0,-60.8 L17.9,-24.6 L57.8,-18.8 L28.9,9.4 L35.7,49.2 L0.0,30.4 L-35.7,49.2 L-28.9,9.4 L-57.8,-18.8 L-17.9,-24.6Z" fill="url(#rgrad1)" filter="url(#blur1)" opacity="0.90"/>
      </g>
      </g>
      </g>
      </g>
      </g>
      </g>
      </g>
  </g>
  <g transform="translate(349.6, 670.3)">
      <g transform="translate(-3.64,-2.75) rotate(1.18) scale(1.000)">
        <g transform="translate(-4.84,-1.76) rotate(0.39) scale(0.980)">
        <g transform="translate(-4.85,-0.62) rotate(-2.40) scale(0.960)">
        <g transform="translate(-3.68,0.57) rotate(-7.06) scale(0.940)">
        <g transform="translate(-1.61,1.72) rotate(-13.30) scale(0.920)">
        <g transform="translate(0.86,2.71) rotate(-20.69) scale(0.900)">
        <g transform="translate(3.11,3.46) rotate(-28.69) scale(0.880)">
        <rect x="-36.5" y="-36.5" width="73.0" height="73.0" rx="18.3" fill="url(#rgrad2)" filter="url(#shadow)" opacity="0.90"/>
        <circle cx="0" cy="0" r="24.3" fill="url(#rgrad3)" opacity="0.63"/>
      </g>
      </g>
      </g>
      </g>
      </g>
      </g>
      </g>
  </g>
  <g transform="translate(563.6, 682.6)">
      <g transform="translate(-4.85,0.96) rotate(1.18) scale(1.000)">
        <g transform="translate(-3.68,2.07) rotate(0.39) scale(0.980)">
        <g transform="translate(-1.61,2.99) rotate(-2.40) scale(0.960)">
        <g transform="translate(0.86,3.64) rotate(-7.06) scale(0.940)" clip-path="url(#clipRect)">
        <g transform="translate(3.11,3.97) rotate(-13.30) scale(0.920)">
        <g transform="translate(4.61,3.94) rotate(-20.69) scale(0.900)">
        <g transform="translate(4.97,3.56) rotate(-28.69) scale(0.880)">
        <path d="M38.1,22.0 L0.0,44.0 L-38.1,22.0 L-38.1,-22.0 L-0.0,-44.0 L38.1,-22.0Z" fill="url(#lgrad3)" filter="url(#blur3)" opacity="0.86"/>
        <ellipse cx="0" cy="0" rx="18.3" ry="12.2" fill="#FFFFFF" opacity="0.43"/>
      </g>
      </g>
      </g>
      </g>
      </g>
      </g>
      </g>
  </g>
  <g transform="translate(771.8, 684.2)">
      <g transform="translate(-1.61,3.79) rotate(1.18) scale(1.000)">
        <g transform="translate(0.86,4.00) rotate(0.39) scale(0.980)">
        <g transform="translate(3.11,3.85) rotate(-2.40) scale(0.960)">
        <g transform="translate(4.61,3.36) rotate(-7.06) scale(0.940)">
        <g transform="translate(4.97,2.57) rotate(-13.30) scale(0.920)">
        <g transform="translate(4.12,1.55) rotate(-20.69) scale(0.900)" mask="url(#maskDynamic)">
        <g transform="translate(2.26,0.39) rotate(-28.69) scale(0.880)">
        <circle cx="0" cy="0" r="30.7" fill="url(#rgrad4)" filter="url(#shadow)" opacity="0.79"/>
        <text x="0" y="5" text-anchor="middle" font-family="Arial, sans-serif" font-size="14" fill="#FFFFFF" opacity="0.79">924</text>
      </g>
      </g>
      </g>
      </g>
      </g>
      </g>
      </g>
  </g>
  <g transform="translate(977.1, 674.4)">
      <g transform="translate(3.11,3.13) rotate(1.18) scale(1.000)">
        <g transform="translate(4.61,2.25) rotate(0.39) scale(0.980)">
        <g transform="translate(4.97,1.18) rotate(-2.40) scale(0.960)">
        <g transform="translate(4.12,-0.01) rotate(-7.06) scale(0.940)">
        <g transform="translate(2.26,-1.19) rotate(-13.30) scale(0.920)">
        <g transform="translate(-0.15,-2.26) rotate(-20.69) scale(0.900)">
        <g transform="translate(-2.53,-3.14) rotate(-28.69) scale(0.880)">
        <path d="M0.0,-48.1 L14.1,-19.5 L45.8,-14.9 L22.9,7.4 L28.3,38.9 L0.0,24.1 L-28.3,38.9 L-22.9,7.4 L-45.8,-14.9 L-14.1,-19.5Z" fill="url(#rgrad0)" filter="url(#blur0)" opacity="0.70"/>
      </g>
      </g>
      </g>
      </g>
      </g>
      </g>
      </g>
  </g>
  <g transform="translate(1183.1, 657.9)">
      <g transform="translate(4.97,-0.41) rotate(1.18) scale(1.000)">
        <g transform="translate(4.12,-1.56) rotate(0.39) scale(0.980)">
        <g transform="translate(2.26,-2.58) rotate(-2.40) scale(0.960)">
        <g transform="translate(-0.15,-3.37) rotate(-7.06) scale(0.940)" clip-path="url(#clipStar)">
        <g transform="translate(-2.53,-3.86) rotate(-13.30) scale(0.920)">
        <g transform="translate(-4.29,-4.00) rotate(-20.69) scale(0.900)">
        <g transform="translate(-5.00,-3.78) rotate(-28.69) scale(0.880)">
        <rect x="-22.9" y="-22.9" width="45.9" height="45.9" rx="11.5" fill="url(#lgrad1)" filter="url(#shadow)" opacity="0.59"/>
        <circle cx="0" cy="0" r="15.3" fill="url(#rgrad2)" opacity="0.41"/>
      </g>
      </g>
      </g>
      </g>
      </g>
      </g>
      </g>
  </g>
  <g transform="translate(1393.3, 642.3)">
      <g transform="translate(2.26,-3.57) rotate(1.18) scale(1.000)">
        <g transform="translate(-0.15,-3.94) rotate(0.39) scale(0.980)">
        <g transform="translate(-2.53,-3.97) rotate(-2.40) scale(0.960)">
        <g transform="translate(-4.29,-3.63) rotate(-7.06) scale(0.940)">
        <g transform="translate(-5.00,-2.98) rotate(-13.30) scale(0.920)">
        <g transform="translate(-4.48,-2.06) rotate(-20.69) scale(0.900)" mask="url(#maskStripes)">
        <g transform="translate(-2.87,-0.95) rotate(-28.69) scale(0.880)">
        <path d="M29.4,17.0 L0.0,33.9 L-29.4,17.0 L-29.4,-17.0 L-0.0,-33.9 L29.4,-17.0Z" fill="url(#rgrad2)" filter="url(#blur2)" opacity="0.47"/>
        <ellipse cx="0" cy="0" rx="14.1" ry="9.4" fill="#FFFFFF" opacity="0.23"/>
      </g>
      </g>
      </g>
      </g>
      </g>
      </g>
      </g>
  </g>
  <g transform="translate(1610.0, 635.1)">
      <g transform="translate(-2.53,-3.45) rotate(1.18) scale(1.000)">
        <g transform="translate(-4.29,-2.70) rotate(0.39) scale(0.980)">
        <g transform="translate(-5.00,-1.70) rotate(-2.40) scale(0.960)">
        <g transform="translate(-4.48,-0.56) rotate(-7.06) scale(0.940)">
        <g transform="translate(-2.87,0.64) rotate(-13.30) scale(0.920)">
        <g transform="translate(-0.55,1.78) rotate(-20.69) scale(0.900)">
        <g transform="translate(1.90,2.76) rotate(-28.69) scale(0.880)">
        <circle cx="0" cy="0" r="35.2" fill="url(#rgrad3)" filter="url(#shadow)" opacity="0.35"/>
        <text x="0" y="5" text-anchor="middle" font-family="Arial, sans-serif" font-size="14" fill="#FFFFFF" opacity="0.35">924</text>
      </g>
      </g>
      </g>
      </g>
      </g>
      </g>
      </g>
  </g>
  <g transform="translate(74.1, 919.6)">
      <g transform="translate(-5.00,-0.16) rotate(1.18) scale(1.000)">
        <g transform="translate(-4.48,1.03) rotate(0.39) scale(0.980)">
        <g transform="translate(-2.87,2.12) rotate(-2.40) scale(0.960)">
        <g transform="translate(-0.55,3.03) rotate(-7.06) scale(0.940)" clip-path="url(#clipDynamic)">
        <g transform="translate(1.90,3.67) rotate(-13.30) scale(0.920)">
        <g transform="translate(3.88,3.98) rotate(-20.69) scale(0.900)">
        <g transform="translate(4.92,3.93) rotate(-28.69) scale(0.880)">
        <path d="M0.0,-74.7 L22.0,-30.2 L71.0,-23.1 L35.5,11.5 L43.9,60.4 L0.0,37.4 L-43.9,60.4 L-35.5,11.5 L-71.0,-23.1 L-22.0,-30.2Z" fill="url(#lgrad4)" filter="url(#blur4)" opacity="0.25"/>
      </g>
      </g>
      </g>
      </g>
      </g>
      </g>
      </g>
  </g>
  <g transform="translate(254.0, 371.0)" mask="url(#maskGradient)">
    <ellipse cx="0" cy="0" rx="200" ry="150" fill="url(#rgrad0)" filter="url(#blur3)" opacity="0.3"/>
  </g>
  <g transform="translate(849.9, 378.0)" mask="url(#maskCircleFade)">
    <ellipse cx="0" cy="0" rx="200" ry="150" fill="url(#rgrad1)" filter="url(#blur3)" opacity="0.3"/>
  </g>
  <g transform="translate(1399.9, 348.3)" mask="url(#maskStripes)">
    <ellipse cx="0" cy="0" rx="200" ry="150" fill="url(#rgrad2)" filter="url(#blur3)" opacity="0.3"/>
  </g>
</svg>