<?xml version="1.0" encoding="UTF-8"?>
<svg xmlns="http://www.w3.org/2000/svg" viewBox="0 0 1920 1080" width="1920" height="1080">
  <defs>
    <filter id="blur0" x="-50%" y="-50%" width="200%" height="200%">
      <feGaussianBlur in="SourceGraphic" stdDeviation="1"/>
    </filter>
    <filter id="blur1" x="-50%" y="-50%" width="200%" height="200%">
      <feGaussianBlur in="SourceGraphic" stdDeviation="3"/>
    </filter>
    <filter id="blur2" x="-50%" y="-50%" width="200%" height="200%">
      <feGaussianBlur in="SourceGraphic" stdDeviation="5"/>
    </filter>
    <filter id="blur3" x="-50%" y="-50%" width="200%" height="200%">
      <feGaussianBlur in="SourceGraphic" stdDeviation="7"/>
    </filter>
    <filter id="blur4" x="-50%" y="-50%" width="200%" height="200%">
      <feGaussianBlur in="SourceGraphic" stdDeviation="9"/>
    </filter>
    <filter id="shadow" x="-50%" y="-50%" width="200%" height="200%">
      <feGaussianBlur in="SourceAlpha" stdDeviation="3" result="blur"/>
      <feOffset in="blur" dx="4" dy="4" result="offsetBlur"/>
      <feMerge>
        <feMergeNode in="offsetBlur"/>
        <feMergeNode in="SourceGraphic"/>
      </feMerge>
    </filter>
    <linearGradient id="lgrad0" x1="0%" y1="0%" x2="69.9%" y2="4.1%">
      <stop offset="0%" stop-color="#FF6B6B"/>
      <stop offset="33%" stop-color="#4ECDC4"/>
      <stop offset="66%" stop-color="#45B7D1"/>
      <stop offset="100%" stop-color="#96E6A1"/>
    </linearGradient>
    <linearGradient id="lgrad1" x1="0%" y1="0%" x2="90.2%" y2="20.3%">
      <stop offset="0%" stop-color="#FFE66D"/>
      <stop offset="33%" stop-color="#FF6B6B"/>
      <stop offset="66%" stop-color="#C44D58"/>
      <stop offset="100%" stop-color="#8B0000"/>
    </linearGradient>
    <linearGradient id="lgrad2" x1="0%" y1="0%" x2="99.7%" y2="44.3%">
      <stop offset="0%" stop-color="#4169E1"/>
      <stop offset="33%" stop-color="#7B68EE"/>
      <stop offset="66%" stop-color="#9370DB"/>
      <stop offset="100%" stop-color="#FFD700"/>
    </linearGradient>
    <linearGradient id="lgrad3" x1="0%" y1="0%" x2="95.9%" y2="69.9%">
      <stop offset="0%" stop-color="#32CD32"/>
      <stop offset="33%" stop-color="#228B22"/>
      <stop offset="66%" stop-color="#006400"/>
      <stop offset="100%" stop-color="#ADFF2F"/>
    </linearGradient>
    <linearGradient id="lgrad4" x1="0%" y1="0%" x2="79.7%" y2="90.2%">
      <stop offset="0%" stop-color="#FF1493"/>
      <stop offset="33%" stop-color="#FF69B4"/>
      <stop offset="66%" stop-color="#FFB6C1"/>
      <stop offset="100%" stop-color="#FFC0CB"/>
    </linearGradient>
    <radialGradient id="rgrad0" cx="59.1%" cy="49.4%" r="60%">
      <stop offset="0%" stop-color="#FF6B6B" stop-opacity="1"/>
      <stop offset="50%" stop-color="#4ECDC4" stop-opacity="0.8"/>
      <stop offset="100%" stop-color="#45B7D1" stop-opacity="0.6"/>
    </radialGradient>
    <radialGradient id="rgrad1" cx="69.1%" cy="57.4%" r="60%">
      <stop offset="0%" stop-color="#FFE66D" stop-opacity="1"/>
      <stop offset="50%" stop-color="#FF6B6B" stop-opacity="0.8"/>
      <stop offset="100%" stop-color="#C44D58" stop-opacity="0.6"/>
    </radialGradient>
    <radialGradient id="rgrad2" cx="39.1%" cy="65.4%" r="60%">
      <stop offset="0%" stop-color="#4169E1" stop-opacity="1"/>
      <stop offset="50%" stop-color="#7B68EE" stop-opacity="0.8"/>
      <stop offset="100%" stop-color="#9370DB" stop-opacity="0.6"/>
    </radialGradient>
    <radialGradient id="rgrad3" cx="49.1%" cy="33.4%" r="60%">
      <stop offset="0%" stop-color="#32CD32" stop-opacity="1"/>
      <stop offset="50%" stop-color="#228B22" stop-opacity="0.8"/>
      <stop offset="100%" stop-color="#006400" stop-opacity="0.6"/>
    </radialGradient>
    <radialGradient id="rgrad4" cx="59.1%" cy="41.4%" r="60%">
      <stop offset="0%" stop-color="#FF1493" stop-opacity="1"/>
      <stop offset="50%" stop-color="#FF69B4" stop-opacity="0.8"/>
      <stop offset="100%" stop-color="#FFB6C1" stop-opacity="0.6"/>
    </radialGradient>
    <clipPath id="clipCircle">
      <circle cx="0" cy="0" r="50"/>
    </clipPath>
    <clipPath id="clipStar">
      <path d="M0.0,-50.0 L14.7,-20.2 L47.6,-15.5 L23.8,7.7 L29.4,40.5 L0.0,25.0 L-29.4,40.5 L-23.8,7.7 L-47.6,-15.5 L-14.7,-20.2Z"/>
    </clipPath>
    <clipPath id="clipHex">
      <path d="M39.0,22.5 L0.0,45.0 L-39.0,22.5 L-39.0,-22.5 L-0.0,-45.0 L39.0,-22.5Z"/>
    </clipPath>
    <clipPath id="clipRect">
      <rect x="-40" y="-30" width="80" height="60" rx="10"/>
    </clipPath>
    <clipPath id="clipDynamic">
      <circle cx="0" cy="0" r="35.3"/>
    </clipPath>
    <mask id="maskGradient" maskContentUnits="objectBoundingBox">
      <rect x="0" y="0" width="1" height="1" fill="url(#maskGrad)"/>
    </mask>
    <linearGradient id="maskGrad" x1="0%" y1="0%" x2="100%" y2="100%">
      <stop offset="0%" stop-color="white"/>
      <stop offset="100%" stop-color="black"/>
    </linearGradient>
    <mask id="maskCircleFade">
      <circle cx="0" cy="0" r="60" fill="white"/>
      <circle cx="0" cy="0" r="30" fill="black"/>
    </mask>
    <mask id="maskStripes">
      <rect x="-50" y="-50" width="100" height="100" fill="white"/>
      <rect x="-50" y="-40" width="100" height="10" fill="black"/>
      <rect x="-50" y="-20" width="100" height="10" fill="black"/>
      <rect x="-50" y="0" width="100" height="10" fill="black"/>
      <rect x="-50" y="20" width="100" height="10" fill="black"/>
      <rect x="-50" y="40" width="100" height="10" fill="black"/>
    </mask>
    <mask id="maskDynamic">
      <rect x="-60" y="-60" width="120" height="120" fill="white" fill-opacity="1.00"/>
      <circle cx="0" cy="0" r="25" fill="white"/>
    </mask>
  </defs>
  <rect width="1920" height="1080" fill="url(#lgrad0)"/>
  <g transform="translate(100.7, 75.0)">
      <g transform="translate(0.11,-4.00) rotate(5.00) scale(1.000)">
        <g transform="translate(-2.30,-3.85) rotate(9.82) scale(0.980)">
        <g transform="translate(-4.15,-3.35) rotate(13.88) scale(0.960)">
        <g transform="translate(-4.98,-2.55) rotate(16.63) scale(0.940)" clip-path="url(#clipCircle)">
        <g transform="translate(-4.59,-1.53) rotate(17.61) scale(0.920)">
        <g transform="translate(-3.08,-0.37) rotate(16.49) scale(0.900)">
        <g transform="translate(-0.81,0.82) rotate(13.04) scale(0.880)">
        <path d="M0.0,-75.0 L22.0,-30.3 L71.3,-23.2 L35.7,11.6 L44.1,60.7 L0.0,37.5 L-44.1,60.7 L-35.7,11.6 L-71.3,-23.2 L-22.0,-30.3Z" fill="url(#lgrad0)" filter="url(#blur0)" opacity="0.90"/>
      </g>
      </g>
      </g>
      </g>
      </g>
      </g>
      </g>
  </g>
  <g transform="translate(306.2, 80.5)">
      <g transform="translate(-4.15,-2.23) rotate(5.00) scale(1.000)">
        <g transform="translate(-4.98,-1.15) rotate(9.82) scale(0.980)">
        <g transform="translate(-4.59,0.03) rotate(13.88) scale(0.960)">
        <g transform="translate(-3.08,1.21) rotate(16.63) scale(0.940)">
        <g transform="translate(-0.81,2.28) rotate(17.61) scale(0.920)">
        <g transform="translate(1.65,3.15) rotate(16.49) scale(0.900)" mask="url(#maskCircleFade)">
        <g transform="translate(3.71,3.74) rotate(13.04) scale(0.880)">
        <rect x="-34.1" y="-34.1" width="68.2" height="68.2" rx="17.1" fill="url(#rgrad1)" filter="url(#shadow)" opacity="0.88"/>
        <circle cx="0" cy="0" r="22.7" fill="url(#rgrad2)" opacity="0.62"/>
      </g>
      </g>
      </g>
      </g>
      </g>
      </g>
      </g>
  </g>
  <g transform="translate(515.1, 95.2)">
      <g transform="translate(-4.59,1.58) rotate(5.00) scale(1.000)">
        <g transform="translate(-3.08,2.60) rotate(9.82) scale(0.980)">
        <g transform="translate(-0.81,3.38) rotate(13.88) scale(0.960)">
        <g transform="translate(1.65,3.86) rotate(16.63) scale(0.940)">
        <g transform="translate(3.71,4.00) rotate(17.61) scale(0.920)">
        <g transform="translate(4.86,3.78) rotate(16.49) scale(0.900)">
        <g transform="translate(4.82,3.22) rotate(13.04) scale(0.880)">
        <path d="M28.0,16.2 L0.0,32.3 L-28.0,16.2 L-28.0,-16.2 L-0.0,-32.3 L28.0,-16.2Z" fill="url(#rgrad2)" filter="url(#blur2)" opacity="0.83"/>
        <ellipse cx="0" cy="0" rx="13.5" ry="9.0" fill="#FFFFFF" opacity="0.42"/>
      </g>
      </g>
      </g>
      </g>
      </g>
      </g>
      </g>
  </g>
  <g transform="translate(730.1, 112.1)">
      <g transform="translate(-0.81,3.95) rotate(5.00) scale(1.000)">
        <g transform="translate(1.65,3.96) rotate(9.82) scale(0.980)">
        <g transform="translate(3.71,3.63) rotate(13.88) scale(0.960)">
        <g transform="translate(4.86,2.96) rotate(16.63) scale(0.940)" clip-path="url(#clipRect)">
        <g transform="translate(4.82,2.04) rotate(17.61) scale(0.920)">
        <g transform="translate(3.60,0.93) rotate(16.49) scale(0.900)">
        <g transform="translate(1.50,-0.26) rotate(13.04) scale(0.880)">
        <circle cx="0" cy="0" r="22.6" fill="url(#lgrad3)" filter="url(#shadow)" opacity="0.75"/>
        <text x="0" y="5" text-anchor="middle" font-family="Arial, sans-serif" font-size="14" fill="#FFFFFF" opacity="0.75">497</text>
      </g>
      </g>
      </g>
      </g>
      </g>
      </g>
      </g>
  </g>
  <g transform="translate(952.5, 123.4)">
      <g transform="translate(3.71,2.68) rotate(5.00) scale(1.000)">
        <g transform="translate(4.86,1.68) rotate(9.82) scale(0.980)">
        <g transform="translate(4.82,0.54) rotate(13.88) scale(0.960)">
        <g transform="translate(3.60,-0.66) rotate(16.63) scale(0.940)">
        <g transform="translate(1.50,-1.80) rotate(17.61) scale(0.920)">
        <g transform="translate(-0.97,-2.77) rotate(16.49) scale(0.900)" mask="url(#maskGradient)">
        <g transform="translate(-3.20,-3.50) rotate(13.04) scale(0.880)">
        <path d="M0.0,-50.1 L14.7,-20.3 L47.6,-15.5 L23.8,7.7 L29.4,40.5 L0.0,25.0 L-29.4,40.5 L-23.8,7.7 L-47.6,-15.5 L-14.7,-20.3Z" fill="url(#rgrad4)" filter="url(#blur4)" opacity="0.65"/>
      </g>
      </g>
      </g>
      </g>
      </g>
      </g>
      </g>
  </g>
  <g transform="translate(1181.5, 123.6)">
      <g transform="translate(4.82,-1.05) rotate(5.00) scale(1.000)">
        <g transform="translate(3.60,-2.14) rotate(9.82) scale(0.980)">
        <g transform="translate(1.50,-3.05) rotate(13.88) scale(0.960)">
        <g transform="translate(-0.97,-3.68) rotate(16.63) scale(0.940)">
        <g transform="translate(-3.20,-3.98) rotate(17.61) scale(0.920)">
        <g transform="translate(-4.65,-3.92) rotate(16.49) scale(0.900)">
        <g transform="translate(-4.96,-3.52) rotate(13.04) scale(0.880)">
        <rect x="-32.0" y="-32.0" width="64.1" height="64.1" rx="16.0" fill="url(#rgrad0)" filter="url(#shadow)" opacity="0.53"/>
        <circle cx="0" cy="0" r="21.4" fill="url(#rgrad1)" opacity="0.37"/>
      </g>
      </g>
      </g>
      </g>
      </g>
      </g>
      </g>
  </g>
  <g transform="translate(1415.1, 112.7)">
      <g transform="translate(1.50,-3.82) rotate(5.00) scale(1.000)">
        <g transform="translate(-0.97,-4.00) rotate(9.82) scale(0.980)">
        <g transform="translate(-3.20,-3.83) rotate(13.88) scale(0.960)">
        <g transform="translate(-4.65,-3.31) rotate(16.63) scale(0.940)" clip-path="url(#clipStar)">
        <g transform="translate(-4.96,-2.50) rotate(17.61) scale(0.920)">
        <g transform="translate(-4.06,-1.47) rotate(16.49) scale(0.900)">
        <g transform="translate(-2.16,-0.30) rotate(13.04) scale(0.880)">
        <path d="M38.6,22.3 L0.0,44.6 L-38.6,22.3 L-38.6,-22.3 L-0.0,-44.6 L38.6,-22.3Z" fill="url(#lgrad1)" filter="url(#blur1)" opacity="0.41"/>
        <ellipse cx="0" cy="0" rx="18.6" ry="12.4" fill="#FFFFFF" opacity="0.21"/>
      </g>
      </g>
      </g>
      </g>
      </g>
      </g>
      </g>
  </g>
  <g transform="translate(1649.9, 95.9)">
      <g transform="translate(-3.20,-3.07) rotate(5.00) scale(1.000)">
        <g transform="translate(-4.65,-2.18) rotate(9.82) scale(0.980)">
        <g transform="translate(-4.96,-1.09) rotate(13.88) scale(0.960)">
        <g transform="translate(-4.06,0.10) rotate(16.63) scale(0.940)">
        <g transform="translate(-2.16,1.27) rotate(17.61) scale(0.920)">
        <g transform="translate(0.27,2.34) rotate(16.49) scale(0.900)" mask="url(#maskDynamic)">
        <g transform="translate(2.63,3.19) rotate(13.04) scale(0.880)">
        <circle cx="0" cy="0" r="35.7" fill="url(#rgrad2)" filter="url(#shadow)" opacity="0.30"/>
        <text x="0" y="5" text-anchor="middle" font-family="Arial, sans-serif" font-size="14" fill="#FFFFFF" opacity="0.30">497</text>
      </g>
      </g>
      </g>
      </g>
      </g>
      </g>
      </g>
  </g>
  <g transform="translate(122.3, 361.0)">
      <g transform="translate(-4.96,0.49) rotate(5.00) scale(1.000)">
        <g transform="translate(-4.06,1.65) rotate(9.82) scale(0.980)">
        <g transform="translate(-2.16,2.65) rotate(13.88) scale(0.960)">
        <g transform="translate(0.27,3.42) rotate(16.63) scale(0.940)">
        <g transform="translate(2.63,3.88) rotate(17.61) scale(0.920)">
        <g transform="translate(4.35,3.99) rotate(16.49) scale(0.900)">
        <g transform="translate(5.00,3.75) rotate(13.04) scale(0.880)">
        <path d="M0.0,-58.0 L17.0,-23.5 L55.1,-17.9 L27.6,9.0 L34.1,46.9 L0.0,29.0 L-34.1,46.9 L-27.6,9.0 L-55.1,-17.9 L-17.0,-23.5Z" fill="url(#rgrad3)" filter="url(#blur3)" opacity="0.21"/>
      </g>
      </g>
      </g>
      </g>
      </g>
      </g>
      </g>
  </g>
  <g transform="translate(349.2, 355.0)">
      <g transform="translate(-2.16,3.61) rotate(5.00) scale(1.000)">
        <g transform="translate(0.27,3.96) rotate(9.82) scale(0.980)">
        <g transform="translate(2.63,3.95) rotate(13.88) scale(0.960)">
        <g transform="translate(4.35,3.60) rotate(16.63) scale(0.940)" clip-path="url(#clipDynamic)">
        <g transform="translate(5.00,2.92) rotate(17.61) scale(0.920)">
        <g transform="translate(4.43,1.98) rotate(16.49) scale(0.900)">
        <g transform="translate(2.78,0.86) rotate(13.04) scale(0.880)">
        <rect x="-23.2" y="-23.2" width="46.4" height="46.4" rx="11.6" fill="url(#lgrad4)" filter="url(#shadow)" opacity="0.14"/>
        <circle cx="0" cy="0" r="15.5" fill="url(#rgrad0)" opacity="0.10"/>
      </g>
      </g>
      </g>
      </g>
      </g>
      </g>
      </g>
  </g>
  <g transform="translate(568.9, 360.8)">
      <g transform="translate(2.63,3.40) rotate(5.00) scale(1.000)">
        <g transform="translate(4.35,2.63) rotate(9.82) scale(0.980)">
        <g transform="translate(5.00,1.62) rotate(13.88) scale(0.960)">
        <g transform="translate(4.43,0.47) rotate(16.63) scale(0.940)">
        <g transform="translate(2.78,-0.73) rotate(17.61) scale(0.920)">
        <g transform="translate(0.44,-1.86) rotate(16.49) scale(0.900)" mask="url(#maskStripes)">
        <g transform="translate(-2.00,-2.82) rotate(13.04) scale(0.880)">
        <path d="M24.6,14.2 L0.0,28.4 L-24.6,14.2 L-24.6,-14.2 L-0.0,-28.4 L24.6,-14.2Z" fill="url(#rgrad0)" filter="url(#blur0)" opacity="0.10"/>
        <ellipse cx="0" cy="0" rx="11.8" ry="7.9" fill="#FFFFFF" opacity="0.05"/>
      </g>
      </g>
      </g>
      </g>
      </g>
      </g>
      </g>
  </g>
  <g transform="translate(781.6, 375.6)">
      <g transform="translate(5.00,0.07) rotate(5.00) scale(1.000)">
        <g transform="translate(4.43,-1.11) rotate(9.82) scale(0.980)">
        <g transform="translate(2.78,-2.20) rotate(13.88) scale(0.960)">
        <g transform="translate(0.44,-3.09) rotate(16.63) scale(0.940)">
        <g transform="translate(-2.00,-3.70) rotate(17.61) scale(0.920)">
        <g transform="translate(-3.95,-3.98) rotate(16.49) scale(0.900)">
        <g transform="translate(-4.94,-3.91) rotate(13.04) scale(0.880)">
        <circle cx="0" cy="0" r="30.0" fill="url(#rgrad1)" filter="url(#shadow)" opacity="0.10"/>
        <text x="0" y="5" text-anchor="middle" font-family="Arial, sans-serif" font-size="14" fill="#FFFFFF" opacity="0.10">497</text>
      </g>
      </g>
      </g>
      </g>
      </g>
      </g>
      </g>
  </g>
  <g transform="translate(989.0, 392.5)">
      <g transform="translate(2.78,-3.33) rotate(5.00) scale(1.000)">
        <g transform="translate(0.44,-3.83) rotate(9.82) scale(0.980)">
        <g transform="translate(-2.00,-4.00) rotate(13.88) scale(0.960)">
        <g transform="translate(-3.95,-3.81) rotate(16.63) scale(0.940)" clip-path="url(#clipHex)">
        <g transform="translate(-4.94,-3.27) rotate(17.61) scale(0.920)">
        <g transform="translate(-4.71,-2.45) rotate(16.49) scale(0.900)">
        <g transform="translate(-3.33,-1.41) rotate(13.04) scale(0.880)">
        <path d="M0.0,-72.6 L21.3,-29.4 L69.0,-22.4 L34.5,11.2 L42.7,58.7 L0.0,36.3 L-42.7,58.7 L-34.5,11.2 L-69.0,-22.4 L-21.3,-29.4Z" fill="url(#lgrad2)" filter="url(#blur2)" opacity="0.14"/>
      </g>
      </g>
      </g>
      </g>
      </g>
      </g>
      </g>
  </g>
  <g transform="translate(1194.2, 403.5)">
      <g transform="translate(-2.00,-3.67) rotate(5.00) scale(1.000)">
        <g transform="translate(-3.95,-3.03) rotate(9.82) scale(0.980)">
        <g transform="translate(-4.94,-2.12) rotate(13.88) scale(0.960)">
        <g transform="translate(-4.71,-1.03) rotate(16.63) scale(0.940)">
        <g transform="translate(-3.33,0.16) rotate(17.61) scale(0.920)">
        <g transform="translate(-1.14,1.34) rotate(16.49) scale(0.900)" mask="url(#maskCircleFade)">
        <g transform="translate(1.33,2.39) rotate(13.04) scale(0.880)">
        <rect x="-36.8" y="-36.8" width="73.7" height="73.7" rx="18.4" fill="url(#rgrad3)" filter="url(#shadow)" opacity="0.21"/>
        <circle cx="0" cy="0" r="24.6" fill="url(#rgrad4)" opacity="0.14"/>
      </g>
      </g>
      </g>
      </g>
      </g>
      </g>
      </g>
  </g>
  <g transform="translate(1400.8, 403.5)">
      <g transform="translate(-4.94,-0.63) rotate(5.00) scale(1.000)">
        <g transform="translate(-4.71,0.56) rotate(9.82) scale(0.980)">
        <g transform="translate(-3.33,1.71) rotate(13.88) scale(0.960)">
        <g transform="translate(-1.14,2.70) rotate(16.63) scale(0.940)">
        <g transform="translate(1.33,3.45) rotate(17.61) scale(0.920)">
        <g transform="translate(3.48,3.89) rotate(16.49) scale(0.900)">
        <g transform="translate(4.78,3.99) rotate(13.04) scale(0.880)">
        <path d="M32.3,18.7 L0.0,37.3 L-32.3,18.7 L-32.3,-18.7 L-0.0,-37.3 L32.3,-18.7Z" fill="url(#rgrad4)" filter="url(#blur4)" opacity="0.30"/>
        <ellipse cx="0" cy="0" rx="15.6" ry="10.4" fill="#FFFFFF" opacity="0.15"/>
      </g>
      </g>
      </g>
      </g>
      </g>
      </g>
      </g>
  </g>
  <g transform="translate(1612.1, 392.4)">
      <g transform="translate(-3.33,2.98) rotate(5.00) scale(1.000)">
        <g transform="translate(-1.14,3.64) rotate(9.82) scale(0.980)">
        <g transform="translate(1.33,3.97) rotate(13.88) scale(0.960)">
        <g transform="translate(3.48,3.94) rotate(16.63) scale(0.940)" clip-path="url(#clipCircle)">
        <g transform="translate(4.78,3.57) rotate(17.61) scale(0.920)">
        <g transform="translate(4.90,2.87) rotate(16.49) scale(0.900)">
        <g transform="translate(3.83,1.92) rotate(13.04) scale(0.880)">
        <circle cx="0" cy="0" r="24.4" fill="url(#lgrad0)" filter="url(#shadow)" opacity="0.41"/>
        <text x="0" y="5" text-anchor="middle" font-family="Arial, sans-serif" font-size="14" fill="#FFFFFF" opacity="0.41">497</text>
      </g>
      </g>
      </g>
      </g>
      </g>
      </g>
      </g>
  </g>
  <g transform="translate(70.2, 655.5)">
      <g transform="translate(1.33,3.86) rotate(5.00) scale(1.000)">
        <g transform="translate(3.48,3.37) rotate(9.82) scale(0.980)">
        <g transform="translate(4.78,2.58) rotate(13.88) scale(0.960)">
        <g transform="translate(4.90,1.56) rotate(16.63) scale(0.940)">
        <g transform="translate(3.83,0.40) rotate(17.61) scale(0.920)">
        <g transform="translate(1.82,-0.79) rotate(16.49) scale(0.900)" mask="url(#maskGradient)">
        <g transform="translate(-0.64,-1.91) rotate(13.04) scale(0.880)">
        <path d="M0.0,-45.6 L13.4,-18.4 L43.4,-14.1 L21.7,7.0 L26.8,36.9 L0.0,22.8 L-26.8,36.9 L-21.7,7.0 L-43.4,-14.1 L-13.4,-18.4Z" fill="url(#rgrad1)" filter="url(#blur1)" opacity="0.53"/>
      </g>
      </g>
      </g>
      </g>
      </g>
      </g>
      </g>
  </g>
  <g transform="translate(295.7, 640.7)">
      <g transform="translate(4.78,1.19) rotate(5.00) scale(1.000)">
        <g transform="translate(4.90,0.00) rotate(9.82) scale(0.980)">
        <g transform="translate(3.83,-1.18) rotate(13.88) scale(0.960)">
        <g transform="translate(1.82,-2.26) rotate(16.63) scale(0.940)">
        <g transform="translate(-0.64,-3.13) rotate(17.61) scale(0.920)">
        <g transform="translate(-2.94,-3.73) rotate(16.49) scale(0.900)">
        <g transform="translate(-4.52,-3.99) rotate(13.04) scale(0.880)">
        <rect x="-27.9" y="-27.9" width="55.7" height="55.7" rx="13.9" fill="url(#rgrad2)" filter="url(#shadow)" opacity="0.65"/>
        <circle cx="0" cy="0" r="18.6" fill="url(#rgrad3)" opacity="0.45"/>
      </g>
      </g>
      </g>
      </g>
      </g>
      </g>
      </g>
  </g>
  <g transform="translate(527.0, 635.0)">
      <g transform="translate(3.83,-2.57) rotate(5.00) scale(1.000)">
        <g transform="translate(1.82,-3.36) rotate(9.82) scale(0.980)">
        <g transform="translate(-0.64,-3.85) rotate(13.88) scale(0.960)">
        <g transform="translate(-2.94,-4.00) rotate(16.63) scale(0.940)" clip-path="url(#clipRect)">
        <g transform="translate(-4.52,-3.79) rotate(17.61) scale(0.920)">
        <g transform="translate(-4.99,-3.24) rotate(16.49) scale(0.900)">
        <g transform="translate(-4.24,-2.40) rotate(13.04) scale(0.880)">
        <path d="M36.3,20.9 L0.0,41.9 L-36.3,20.9 L-36.3,-20.9 L-0.0,-41.9 L36.3,-20.9Z" fill="url(#lgrad3)" filter="url(#blur3)" opacity="0.75"/>
        <ellipse cx="0" cy="0" rx="17.4" ry="11.6" fill="#FFFFFF" opacity="0.38"/>
      </g>
      </g>
      </g>
      </g>
      </g>
      </g>
      </g>
  </g>
  <g transform="translate(761.6, 641.1)">
      <g transform="translate(-0.64,-3.97) rotate(5.00) scale(1.000)">
        <g transform="translate(-2.94,-3.64) rotate(9.82) scale(0.980)">
        <g transform="translate(-4.52,-2.98) rotate(13.88) scale(0.960)">
        <g transform="translate(-4.99,-2.06) rotate(16.63) scale(0.940)">
        <g transform="translate(-4.24,-0.96) rotate(17.61) scale(0.920)">
        <g transform="translate(-2.45,0.23) rotate(16.49) scale(0.900)" mask="url(#maskDynamic)">
        <g transform="translate(-0.07,1.40) rotate(13.04) scale(0.880)">
        <circle cx="0" cy="0" r="37.4" fill="url(#rgrad4)" filter="url(#shadow)" opacity="0.83"/>
        <text x="0" y="5" text-anchor="middle" font-family="Arial, sans-serif" font-size="14" fill="#FFFFFF" opacity="0.83">497</text>
      </g>
      </g>
      </g>
      </g>
      </g>
      </g>
      </g>
  </g>
  <g transform="translate(995.8, 656.0)">
      <g transform="translate(-4.52,-1.71) rotate(5.00) scale(1.000)">
        <g transform="translate(-4.99,-0.57) rotate(9.82) scale(0.980)">
        <g transform="translate(-4.24,0.63) rotate(13.88) scale(0.960)">
        <g transform="translate(-2.45,1.77) rotate(16.63) scale(0.940)">
        <g transform="translate(-0.07,2.75) rotate(17.61) scale(0.920)">
        <g transform="translate(2.34,3.48) rotate(16.49) scale(0.900)">
        <g transform="translate(4.17,3.91) rotate(13.04) scale(0.880)">
        <path d="M0.0,-66.3 L19.5,-26.8 L63.0,-20.5 L31.5,10.2 L39.0,53.6 L0.0,33.1 L-39.0,53.6 L-31.5,10.2 L-63.0,-20.5 L-19.5,-26.8Z" fill="url(#rgrad0)" filter="url(#blur0)" opacity="0.88"/>
      </g>
      </g>
      </g>
      </g>
      </g>
      </g>
      </g>
  </g>
  <g transform="translate(1226.1, 672.9)">
      <g transform="translate(-4.24,2.12) rotate(5.00) scale(1.000)">
        <g transform="translate(-2.45,3.03) rotate(9.82) scale(0.980)">
        <g transform="translate(-0.07,3.66) rotate(13.88) scale(0.960)">
        <g transform="translate(2.34,3.97) rotate(16.63) scale(0.940)" clip-path="url(#clipStar)">
        <g transform="translate(4.17,3.93) rotate(17.61) scale(0.920)">
        <g transform="translate(4.98,3.54) rotate(16.49) scale(0.900)">
        <g transform="translate(4.57,2.82) rotate(13.04) scale(0.880)">
        <rect x="-26.0" y="-26.0" width="51.9" height="51.9" rx="13.0" fill="url(#lgrad1)" filter="url(#shadow)" opacity="0.90"/>
        <circle cx="0" cy="0" r="17.3" fill="url(#rgrad2)" opacity="0.63"/>
      </g>
      </g>
      </g>
      </g>
      </g>
      </g>
      </g>
  </g>
  <g transform="translate(1450.0, 683.7)">
      <g transform="translate(-0.07,4.00) rotate(5.00) scale(1.000)">
        <g transform="translate(2.34,3.84) rotate(9.82) scale(0.980)">
        <g transform="translate(4.17,3.33) rotate(13.88) scale(0.960)">
        <g transform="translate(4.98,2.53) rotate(16.63) scale(0.940)">
        <g transform="translate(4.57,1.50) rotate(17.61) scale(0.920)">
        <g transform="translate(3.04,0.34) rotate(16.49) scale(0.900)" mask="url(#maskStripes)">
        <g transform="translate(0.77,-0.86) rotate(13.04) scale(0.880)">
        <path d="M23.4,13.5 L0.0,27.0 L-23.4,13.5 L-23.4,-13.5 L-0.0,-27.0 L23.4,-13.5Z" fill="url(#rgrad2)" filter="url(#blur2)" opacity="0.88"/>
        <ellipse cx="0" cy="0" rx="11.3" ry="7.5" fill="#FFFFFF" opacity="0.44"/>
      </g>
      </g>
      </g>
      </g>
      </g>
      </g>
      </g>
  </g>
  <g transform="translate(1666.6, 683.3)">
      <g transform="translate(4.17,2.21) rotate(5.00) scale(1.000)">
        <g transform="translate(4.98,1.12) rotate(9.82) scale(0.980)">
        <g transform="translate(4.57,-0.06) rotate(13.88) scale(0.960)">
        <g transform="translate(3.04,-1.24) rotate(16.63) scale(0.940)">
        <g transform="translate(0.77,-2.31) rotate(17.61) scale(0.920)">
        <g transform="translate(-1.69,-3.17) rotate(16.49) scale(0.900)">
        <g transform="translate(-3.74,-3.75) rotate(13.04) scale(0.880)">
        <circle cx="0" cy="0" r="25.9" fill="url(#rgrad3)" filter="url(#shadow)" opacity="0.83"/>
        <text x="0" y="5" text-anchor="middle" font-family="Arial, sans-serif" font-size="14" fill="#FFFFFF" opacity="0.83">497</text>
      </g>
      </g>
      </g>
      </g>
      </g>
      </g>
      </g>
  </g>
  <g transform="translate(116.7, 952.0)">
      <g transform="translate(4.57,-1.62) rotate(5.00) scale(1.000)">
        <g transform="translate(3.04,-2.63) rotate(9.82) scale(0.980)">
        <g transform="translate(0.77,-3.40) rotate(13.88) scale(0.960)">
        <g transform="translate(-1.69,-3.87) rotate(16.63) scale(0.940)" clip-path="url(#clipDynamic)">
        <g transform="translate(-3.74,-4.00) rotate(17.61) scale(0.920)">
        <g transform="translate(-4.87,-3.76) rotate(16.49) scale(0.900)">
        <g transform="translate(-4.81,-3.20) rotate(13.04) scale(0.880)">
        <path d="M0.0,-66.2 L19.5,-26.8 L63.0,-20.5 L31.5,10.2 L38.9,53.6 L0.0,33.1 L-38.9,53.6 L-31.5,10.2 L-63.0,-20.5 L-19.5,-26.8Z" fill="url(#lgrad4)" filter="url(#blur4)" opacity="0.75"/>
      </g>
      </g>
      </g>
      </g>
      </g>
      </g>
      </g>
  </g>
  <g transform="translate(302.2, 220.0)" mask="url(#maskGradient)">
    <ellipse cx="0" cy="0" rx="200" ry="150" fill="url(#rgrad0)" filter="url(#blur3)" opacity="0.3"/>
  </g>
  <g transform="translate(717.1, 237.7)" mask="url(#maskCircleFade)">
    <ellipse cx="0" cy="0" rx="200" ry="150" fill="url(#rgrad1)" filter="url(#blur3)" opacity="0.3"/>
  </g>
  <g transform="translate(1208.2, 284.7)" mask="url(#maskStripes)">
    <ellipse cx="0" cy="0" rx="200" ry="150" fill="url(#rgrad2)" filter="url(#blur3)" opacity="0.3"/>
  </g>
</svg>