<?xml version="1.0" encoding="UTF-8"?>
<svg xmlns="http://www.w3.org/2000/svg" viewBox="0 0 1920 1080" width="1920" height="1080">
  <defs>
    <filter id="blur0" x="-50%" y="-50%" width="200%" height="200%">
      <feGaussianBlur in="SourceGraphic" stdDeviation="1"/>
    </filter>
    <filter id="blur1" x="-50%" y="-50%" width="200%" height="200%">
      <feGaussianBlur in="SourceGraphic" stdDeviation="3"/>
    </filter>
    <filter id="blur2" x="-50%" y="-50%" width="200%" height="200%">
      <feGaussianBlur in="SourceGraphic" stdDeviation="5"/>
    </filter>
    <filter id="blur3" x="-50%" y="-50%" width="200%" height="200%">
      <feGaussianBlur in="SourceGraphic" stdDeviation="7"/>
    </filter>
    <filter id="blur4" x="-50%" y="-50%" width="200%" height="200%">
      <feGaussianBlur in="SourceGraphic" stdDeviation="9"/>
    </filter>
    <filter id="shadow" x="-50%" y="-50%" width="200%" height="200%">
      <feGaussianBlur in="SourceAlpha" stdDeviation="3" result="blur"/>
      <feOffset in="blur" dx="4" dy="4" result="offsetBlur"/>
      <feMerge>
        <feMergeNode in="offsetBlur"/>
        <feMergeNode in="SourceGraphic"/>
      </feMerge>
    </filter>
    <linearGradient id="lgrad0" x1="0%" y1="0%" x2="71.5%" y2="95.1%">
      <stop offset="0%" stop-color="#FF6B6B"/>
      <stop offset="33%" stop-color="#4ECDC4"/>
      <stop offset="66%" stop-color="#45B7D1"/>
      <stop offset="100%" stop-color="#96E6A1"/>
    </linearGradient>
    <linearGradient id="lgrad1" x1="0%" y1="0%" x2="46.1%" y2="99.8%">
      <stop offset="0%" stop-color="#FFE66D"/>
      <stop offset="33%" stop-color="#FF6B6B"/>
      <stop offset="66%" stop-color="#C44D58"/>
      <stop offset="100%" stop-color="#8B0000"/>
    </linearGradient>
    <linearGradient id="lgrad2" x1="0%" y1="0%" x2="21.7%" y2="91.2%">
      <stop offset="0%" stop-color="#4169E1"/>
      <stop offset="33%" stop-color="#7B68EE"/>
      <stop offset="66%" stop-color="#9370DB"/>
      <stop offset="100%" stop-color="#FFD700"/>
    </linearGradient>
    <linearGradient id="lgrad3" x1="0%" y1="0%" x2="4.9%" y2="71.5%">
      <stop offset="0%" stop-color="#32CD32"/>
      <stop offset="33%" stop-color="#228B22"/>
      <stop offset="66%" stop-color="#006400"/>
      <stop offset="100%" stop-color="#ADFF2F"/>
    </linearGradient>
    <linearGradient id="lgrad4" x1="0%" y1="0%" x2="0.2%" y2="46.1%">
      <stop offset="0%" stop-color="#FF1493"/>
      <stop offset="33%" stop-color="#FF69B4"/>
      <stop offset="66%" stop-color="#FFB6C1"/>
      <stop offset="100%" stop-color="#FFC0CB"/>
    </linearGradient>
    <radialGradient id="rgrad0" cx="41.7%" cy="37.8%" r="60%">
      <stop offset="0%" stop-color="#FF6B6B" stop-opacity="1"/>
      <stop offset="50%" stop-color="#4ECDC4" stop-opacity="0.8"/>
      <stop offset="100%" stop-color="#45B7D1" stop-opacity="0.6"/>
    </radialGradient>
    <radialGradient id="rgrad1" cx="51.7%" cy="45.8%" r="60%">
      <stop offset="0%" stop-color="#FFE66D" stop-opacity="1"/>
      <stop offset="50%" stop-color="#FF6B6B" stop-opacity="0.8"/>
      <stop offset="100%" stop-color="#C44D58" stop-opacity="0.6"/>
    </radialGradient>
    <radialGradient id="rgrad2" cx="61.7%" cy="53.8%" r="60%">
      <stop offset="0%" stop-color="#4169E1" stop-opacity="1"/>
      <stop offset="50%" stop-color="#7B68EE" stop-opacity="0.8"/>
      <stop offset="100%" stop-color="#9370DB" stop-opacity="0.6"/>
    </radialGradient>
    <radialGradient id="rgrad3" cx="31.7%" cy="61.8%" r="60%">
      <stop offset="0%" stop-color="#32CD32" stop-opacity="1"/>
      <stop offset="50%" stop-color="#228B22" stop-opacity="0.8"/>
      <stop offset="100%" stop-color="#006400" stop-opacity="0.6"/>
    </radialGradient>
    <radialGradient id="rgrad4" cx="41.7%" cy="69.8%" r="60%">
      <stop offset="0%" stop-color="#FF1493" stop-opacity="1"/>
      <stop offset="50%" stop-color="#FF69B4" stop-opacity="0.8"/>
      <stop offset="100%" stop-color="#FFB6C1" stop-opacity="0.6"/>
    </radialGradient>
    <clipPath id="clipCircle">
      <circle cx="0" cy="0" r="50"/>
    </clipPath>
    <clipPath id="clipStar">
      <path d="M0.0,-50.0 L14.7,-20.2 L47.6,-15.5 L23.8,7.7 L29.4,40.5 L0.0,25.0 L-29.4,40.5 L-23.8,7.7 L-47.6,-15.5 L-14.7,-20.2Z"/>
    </clipPath>
    <clipPath id="clipHex">
      <path d="M39.0,22.5 L0.0,45.0 L-39.0,22.5 L-39.0,-22.5 L-0.0,-45.0 L39.0,-22.5Z"/>
    </clipPath>
    <clipPath id="clipRect">
      <rect x="-40" y="-30" width="80" height="60" rx="10"/>
    </clipPath>
    <clipPath id="clipDynamic">
      <circle cx="0" cy="0" r="38.6"/>
    </clipPath>
    <mask id="maskGradient" maskContentUnits="objectBoundingBox">
      <rect x="0" y="0" width="1" height="1" fill="url(#maskGrad)"/>
    </mask>
    <linearGradient id="maskGrad" x1="0%" y1="0%" x2="100%" y2="100%">
      <stop offset="0%" stop-color="white"/>
      <stop offset="100%" stop-color="black"/>
    </linearGradient>
    <mask id="maskCircleFade">
      <circle cx="0" cy="0" r="60" fill="white"/>
      <circle cx="0" cy="0" r="30" fill="black"/>
    </mask>
    <mask id="maskStripes">
      <rect x="-50" y="-50" width="100" height="100" fill="white"/>
      <rect x="-50" y="-40" width="100" height="10" fill="black"/>
      <rect x="-50" y="-20" width="100" height="10" fill="black"/>
      <rect x="-50" y="0" width="100" height="10" fill="black"/>
      <rect x="-50" y="20" width="100" height="10" fill="black"/>
      <rect x="-50" y="40" width="100" height="10" fill="black"/>
    </mask>
    <mask id="maskDynamic">
      <rect x="-60" y="-60" width="120" height="120" fill="white" fill-opacity="0.38"/>
      <circle cx="0" cy="0" r="25" fill="white"/>
    </mask>
  </defs>
  <rect width="1920" height="1080" fill="url(#lgrad0)"/>
  <g transform="translate(107.1, 124.3)">
      <g transform="translate(1.18,3.89) rotate(0.60) scale(1.000)">
        <g transform="translate(3.37,3.43) rotate(3.14) scale(0.980)">
        <g transform="translate(4.73,2.67) rotate(7.45) scale(0.960)">
        <g transform="translate(4.93,1.67) rotate(13.18) scale(0.940)" clip-path="url(#clipCircle)">
        <g transform="translate(3.92,0.53) rotate(19.88) scale(0.920)">
        <g transform="translate(1.96,-0.67) rotate(27.00) scale(0.900)">
        <g transform="translate(-0.49,-1.81) rotate(33.90) scale(0.880)">
        <path d="M0.0,-61.8 L18.2,-25.0 L58.8,-19.1 L29.4,9.5 L36.3,50.0 L0.0,30.9 L-36.3,50.0 L-29.4,9.5 L-58.8,-19.1 L-18.2,-25.0Z" fill="url(#lgrad0)" filter="url(#blur0)" opacity="0.55"/>
      </g>
      </g>
      </g>
      </g>
      </g>
      </g>
      </g>
  </g>
  <g transform="translate(340.2, 114.8)">
      <g transform="translate(4.73,1.30) rotate(0.60) scale(1.000)">
        <g transform="translate(4.93,0.13) rotate(3.14) scale(0.980)">
        <g transform="translate(3.92,-1.06) rotate(7.45) scale(0.960)">
        <g transform="translate(1.96,-2.15) rotate(13.18) scale(0.940)">
        <g transform="translate(-0.49,-3.05) rotate(19.88) scale(0.920)">
        <g transform="translate(-2.81,-3.68) rotate(27.00) scale(0.900)" mask="url(#maskCircleFade)">
        <g transform="translate(-4.45,-3.98) rotate(33.90) scale(0.880)">
        <rect x="-36.7" y="-36.7" width="73.5" height="73.5" rx="18.4" fill="url(#rgrad1)" filter="url(#shadow)" opacity="0.66"/>
        <circle cx="0" cy="0" r="24.5" fill="url(#rgrad2)" opacity="0.46"/>
      </g>
      </g>
      </g>
      </g>
      </g>
      </g>
      </g>
  </g>
  <g transform="translate(568.4, 98.3)">
      <g transform="translate(3.92,-2.48) rotate(0.60) scale(1.000)">
        <g transform="translate(1.96,-3.30) rotate(3.14) scale(0.980)">
        <g transform="translate(-0.49,-3.82) rotate(7.45) scale(0.960)">
        <g transform="translate(-2.81,-4.00) rotate(13.18) scale(0.940)">
        <g transform="translate(-4.45,-3.82) rotate(19.88) scale(0.920)">
        <g transform="translate(-5.00,-3.31) rotate(27.00) scale(0.900)">
        <g transform="translate(-4.32,-2.49) rotate(33.90) scale(0.880)">
        <path d="M37.8,21.8 L0.0,43.7 L-37.8,21.8 L-37.8,-21.8 L-0.0,-43.7 L37.8,-21.8Z" fill="url(#rgrad2)" filter="url(#blur2)" opacity="0.76"/>
        <ellipse cx="0" cy="0" rx="18.2" ry="12.1" fill="#FFFFFF" opacity="0.38"/>
      </g>
      </g>
      </g>
      </g>
      </g>
      </g>
      </g>
  </g>
  <g transform="translate(789.6, 82.6)">
      <g transform="translate(-0.49,-3.98) rotate(0.60) scale(1.000)">
        <g transform="translate(-2.81,-3.69) rotate(3.14) scale(0.980)">
        <g transform="translate(-4.45,-3.07) rotate(7.45) scale(0.960)">
        <g transform="translate(-5.00,-2.17) rotate(13.18) scale(0.940)" clip-path="url(#clipRect)">
        <g transform="translate(-4.32,-1.08) rotate(19.88) scale(0.920)">
        <g transform="translate(-2.59,0.11) rotate(27.00) scale(0.900)">
        <g transform="translate(-0.22,1.28) rotate(33.90) scale(0.880)">
        <circle cx="0" cy="0" r="30.2" fill="url(#lgrad3)" filter="url(#shadow)" opacity="0.84"/>
        <text x="0" y="5" text-anchor="middle" font-family="Arial, sans-serif" font-size="14" fill="#FFFFFF" opacity="0.84">39</text>
      </g>
      </g>
      </g>
      </g>
      </g>
      </g>
      </g>
  </g>
  <g transform="translate(1003.5, 75.1)">
      <g transform="translate(-4.45,-1.82) rotate(0.60) scale(1.000)">
        <g transform="translate(-5.00,-0.69) rotate(3.14) scale(0.980)">
        <g transform="translate(-4.32,0.51) rotate(7.45) scale(0.960)">
        <g transform="translate(-2.59,1.66) rotate(13.18) scale(0.940)">
        <g transform="translate(-0.22,2.66) rotate(19.88) scale(0.920)">
        <g transform="translate(2.20,3.42) rotate(27.00) scale(0.900)" mask="url(#maskGradient)">
        <g transform="translate(4.08,3.88) rotate(33.90) scale(0.880)">
        <path d="M0.0,-47.6 L14.0,-19.2 L45.2,-14.7 L22.6,7.3 L28.0,38.5 L0.0,23.8 L-28.0,38.5 L-22.6,7.3 L-45.2,-14.7 L-14.0,-19.2Z" fill="url(#rgrad4)" filter="url(#blur4)" opacity="0.89"/>
      </g>
      </g>
      </g>
      </g>
      </g>
      </g>
      </g>
  </g>
  <g transform="translate(1211.8, 79.3)">
      <g transform="translate(-4.32,2.01) rotate(0.60) scale(1.000)">
        <g transform="translate(-2.59,2.94) rotate(3.14) scale(0.980)">
        <g transform="translate(-0.22,3.61) rotate(7.45) scale(0.960)">
        <g transform="translate(2.20,3.96) rotate(13.18) scale(0.940)">
        <g transform="translate(4.08,3.95) rotate(19.88) scale(0.920)">
        <g transform="translate(4.97,3.59) rotate(27.00) scale(0.900)">
        <g transform="translate(4.63,2.91) rotate(33.90) scale(0.880)">
        <rect x="-23.1" y="-23.1" width="46.2" height="46.2" rx="11.6" fill="url(#rgrad0)" filter="url(#shadow)" opacity="0.90"/>
        <circle cx="0" cy="0" r="15.4" fill="url(#rgrad1)" opacity="0.63"/>
      </g>
      </g>
      </g>
      </g>
      </g>
      </g>
      </g>
  </g>
  <g transform="translate(1417.1, 93.3)">
      <g transform="translate(-0.22,4.00) rotate(0.60) scale(1.000)">
        <g transform="translate(2.20,3.87) rotate(3.14) scale(0.980)">
        <g transform="translate(4.08,3.40) rotate(7.45) scale(0.960)">
        <g transform="translate(4.97,2.62) rotate(13.18) scale(0.940)" clip-path="url(#clipStar)">
        <g transform="translate(4.63,1.61) rotate(19.88) scale(0.920)">
        <g transform="translate(3.17,0.46) rotate(27.00) scale(0.900)">
        <g transform="translate(0.92,-0.74) rotate(33.90) scale(0.880)">
        <path d="M29.9,17.3 L0.0,34.5 L-29.9,17.3 L-29.9,-17.3 L-0.0,-34.5 L29.9,-17.3Z" fill="url(#lgrad1)" filter="url(#blur1)" opacity="0.88"/>
        <ellipse cx="0" cy="0" rx="14.4" ry="9.6" fill="#FFFFFF" opacity="0.44"/>
      </g>
      </g>
      </g>
      </g>
      </g>
      </g>
      </g>
  </g>
  <g transform="translate(1623.1, 110.3)">
      <g transform="translate(4.08,2.31) rotate(0.60) scale(1.000)">
        <g transform="translate(4.97,1.24) rotate(3.14) scale(0.980)">
        <g transform="translate(4.63,0.06) rotate(7.45) scale(0.960)">
        <g transform="translate(3.17,-1.12) rotate(13.18) scale(0.940)">
        <g transform="translate(0.92,-2.21) rotate(19.88) scale(0.920)">
        <g transform="translate(-1.55,-3.10) rotate(27.00) scale(0.900)" mask="url(#maskDynamic)">
        <g transform="translate(-3.64,-3.71) rotate(33.90) scale(0.880)">
        <circle cx="0" cy="0" r="35.6" fill="url(#rgrad2)" filter="url(#shadow)" opacity="0.82"/>
        <text x="0" y="5" text-anchor="middle" font-family="Arial, sans-serif" font-size="14" fill="#FFFFFF" opacity="0.82">39</text>
      </g>
      </g>
      </g>
      </g>
      </g>
      </g>
      </g>
  </g>
  <g transform="translate(73.3, 402.6)">
      <g transform="translate(4.63,-1.50) rotate(0.60) scale(1.000)">
        <g transform="translate(3.17,-2.53) rotate(3.14) scale(0.980)">
        <g transform="translate(0.92,-3.33) rotate(7.45) scale(0.960)">
        <g transform="translate(-1.55,-3.84) rotate(13.18) scale(0.940)">
        <g transform="translate(-3.64,-4.00) rotate(19.88) scale(0.920)">
        <g transform="translate(-4.84,-3.80) rotate(27.00) scale(0.900)">
        <g transform="translate(-4.85,-3.27) rotate(33.90) scale(0.880)">
        <path d="M0.0,-74.5 L21.9,-30.1 L70.8,-23.0 L35.4,11.5 L43.8,60.3 L0.0,37.2 L-43.8,60.3 L-35.4,11.5 L-70.8,-23.0 L-21.9,-30.1Z" fill="url(#rgrad3)" filter="url(#blur3)" opacity="0.73"/>
      </g>
      </g>
      </g>
      </g>
      </g>
      </g>
      </g>
  </g>
  <g transform="translate(290.0, 404.2)">
      <g transform="translate(0.92,-3.93) rotate(0.60) scale(1.000)">
        <g transform="translate(-1.55,-3.97) rotate(3.14) scale(0.980)">
        <g transform="translate(-3.64,-3.66) rotate(7.45) scale(0.960)">
        <g transform="translate(-4.84,-3.02) rotate(13.18) scale(0.940)" clip-path="url(#clipDynamic)">
        <g transform="translate(-4.85,-2.11) rotate(19.88) scale(0.920)">
        <g transform="translate(-3.68,-1.02) rotate(27.00) scale(0.900)">
        <g transform="translate(-1.61,0.17) rotate(33.90) scale(0.880)">
        <rect x="-32.3" y="-32.3" width="64.5" height="64.5" rx="16.1" fill="url(#lgrad4)" filter="url(#shadow)" opacity="0.63"/>
        <circle cx="0" cy="0" r="21.5" fill="url(#rgrad0)" opacity="0.44"/>
      </g>
      </g>
      </g>
      </g>
      </g>
      </g>
      </g>
  </g>
  <g transform="translate(514.1, 394.4)">
      <g transform="translate(-3.64,-2.75) rotate(0.60) scale(1.000)">
        <g transform="translate(-4.84,-1.76) rotate(3.14) scale(0.980)">
        <g transform="translate(-4.85,-0.62) rotate(7.45) scale(0.960)">
        <g transform="translate(-3.68,0.57) rotate(13.18) scale(0.940)">
        <g transform="translate(-1.61,1.72) rotate(19.88) scale(0.920)">
        <g transform="translate(0.86,2.71) rotate(27.00) scale(0.900)" mask="url(#maskStripes)">
        <g transform="translate(3.12,3.46) rotate(33.90) scale(0.880)">
        <path d="M26.2,15.1 L0.0,30.2 L-26.2,15.1 L-26.2,-15.1 L-0.0,-30.2 L26.2,-15.1Z" fill="url(#rgrad0)" filter="url(#blur0)" opacity="0.51"/>
        <ellipse cx="0" cy="0" rx="12.6" ry="8.4" fill="#FFFFFF" opacity="0.25"/>
      </g>
      </g>
      </g>
      </g>
      </g>
      </g>
      </g>
  </g>
  <g transform="translate(744.5, 377.9)">
      <g transform="translate(-4.85,0.96) rotate(0.60) scale(1.000)">
        <g transform="translate(-3.68,2.07) rotate(3.14) scale(0.980)">
        <g transform="translate(-1.61,2.99) rotate(7.45) scale(0.960)">
        <g transform="translate(0.86,3.64) rotate(13.18) scale(0.940)">
        <g transform="translate(3.12,3.97) rotate(19.88) scale(0.920)">
        <g transform="translate(4.61,3.94) rotate(27.00) scale(0.900)">
        <g transform="translate(4.97,3.56) rotate(33.90) scale(0.880)">
        <circle cx="0" cy="0" r="22.6" fill="url(#rgrad1)" filter="url(#shadow)" opacity="0.39"/>
        <text x="0" y="5" text-anchor="middle" font-family="Arial, sans-serif" font-size="14" fill="#FFFFFF" opacity="0.39">39</text>
      </g>
      </g>
      </g>
      </g>
      </g>
      </g>
      </g>
  </g>
  <g transform="translate(978.7, 362.3)">
      <g transform="translate(-1.61,3.79) rotate(0.60) scale(1.000)">
        <g transform="translate(0.86,4.00) rotate(3.14) scale(0.980)">
        <g transform="translate(3.12,3.85) rotate(7.45) scale(0.960)">
        <g transform="translate(4.61,3.36) rotate(13.18) scale(0.940)" clip-path="url(#clipHex)">
        <g transform="translate(4.97,2.57) rotate(19.88) scale(0.920)">
        <g transform="translate(4.12,1.55) rotate(27.00) scale(0.900)">
        <g transform="translate(2.26,0.39) rotate(33.90) scale(0.880)">
        <path d="M0.0,-53.5 L15.7,-21.6 L50.9,-16.5 L25.4,8.3 L31.5,43.3 L0.0,26.8 L-31.5,43.3 L-25.4,8.3 L-50.9,-16.5 L-15.7,-21.6Z" fill="url(#lgrad2)" filter="url(#blur2)" opacity="0.28"/>
      </g>
      </g>
      </g>
      </g>
      </g>
      </g>
      </g>
  </g>
  <g transform="translate(1213.2, 355.1)">
      <g transform="translate(3.12,3.13) rotate(0.60) scale(1.000)">
        <g transform="translate(4.61,2.25) rotate(3.14) scale(0.980)">
        <g transform="translate(4.97,1.18) rotate(7.45) scale(0.960)">
        <g transform="translate(4.12,-0.01) rotate(13.18) scale(0.940)">
        <g transform="translate(2.26,-1.19) rotate(19.88) scale(0.920)">
        <g transform="translate(-0.16,-2.26) rotate(27.00) scale(0.900)" mask="url(#maskCircleFade)">
        <g transform="translate(-2.53,-3.14) rotate(33.90) scale(0.880)">
        <rect x="-33.9" y="-33.9" width="67.9" height="67.9" rx="17.0" fill="url(#rgrad3)" filter="url(#shadow)" opacity="0.19"/>
        <circle cx="0" cy="0" r="22.6" fill="url(#rgrad4)" opacity="0.13"/>
      </g>
      </g>
      </g>
      </g>
      </g>
      </g>
      </g>
  </g>
  <g transform="translate(1444.5, 359.6)">
      <g transform="translate(4.97,-0.41) rotate(0.60) scale(1.000)">
        <g transform="translate(4.12,-1.56) rotate(3.14) scale(0.980)">
        <g transform="translate(2.26,-2.58) rotate(7.45) scale(0.960)">
        <g transform="translate(-0.16,-3.37) rotate(13.18) scale(0.940)">
        <g transform="translate(-2.53,-3.86) rotate(19.88) scale(0.920)">
        <g transform="translate(-4.29,-4.00) rotate(27.00) scale(0.900)">
        <g transform="translate(-5.00,-3.78) rotate(33.90) scale(0.880)">
        <path d="M39.0,22.5 L0.0,45.0 L-39.0,22.5 L-39.0,-22.5 L-0.0,-45.0 L39.0,-22.5Z" fill="url(#rgrad4)" filter="url(#blur4)" opacity="0.13"/>
        <ellipse cx="0" cy="0" rx="18.7" ry="12.5" fill="#FFFFFF" opacity="0.07"/>
      </g>
      </g>
      </g>
      </g>
      </g>
      </g>
      </g>
  </g>
  <g transform="translate(1669.8, 373.7)">
      <g transform="translate(2.26,-3.57) rotate(0.60) scale(1.000)">
        <g transform="translate(-0.16,-3.94) rotate(3.14) scale(0.980)">
        <g transform="translate(-2.53,-3.97) rotate(7.45) scale(0.960)">
        <g transform="translate(-4.29,-3.63) rotate(13.18) scale(0.940)" clip-path="url(#clipCircle)">
        <g transform="translate(-5.00,-2.98) rotate(19.88) scale(0.920)">
        <g transform="translate(-4.48,-2.06) rotate(27.00) scale(0.900)">
        <g transform="translate(-2.87,-0.95) rotate(33.90) scale(0.880)">
        <circle cx="0" cy="0" r="34.2" fill="url(#lgrad0)" filter="url(#shadow)" opacity="0.10"/>
        <text x="0" y="5" text-anchor="middle" font-family="Arial, sans-serif" font-size="14" fill="#FFFFFF" opacity="0.10">39</text>
      </g>
      </g>
      </g>
      </g>
      </g>
      </g>
      </g>
  </g>
  <g transform="translate(127.8, 670.7)">
      <g transform="translate(-2.53,-3.45) rotate(0.60) scale(1.000)">
        <g transform="translate(-4.29,-2.70) rotate(3.14) scale(0.980)">
        <g transform="translate(-5.00,-1.70) rotate(7.45) scale(0.960)">
        <g transform="translate(-4.48,-0.56) rotate(13.18) scale(0.940)">
        <g transform="translate(-2.87,0.64) rotate(19.88) scale(0.920)">
        <g transform="translate(-0.55,1.78) rotate(27.00) scale(0.900)" mask="url(#maskGradient)">
        <g transform="translate(1.90,2.76) rotate(33.90) scale(0.880)">
        <path d="M0.0,-54.0 L15.9,-21.8 L51.4,-16.7 L25.7,8.3 L31.7,43.7 L0.0,27.0 L-31.7,43.7 L-25.7,8.3 L-51.4,-16.7 L-15.9,-21.8Z" fill="url(#rgrad1)" filter="url(#blur1)" opacity="0.11"/>
      </g>
      </g>
      </g>
      </g>
      </g>
      </g>
      </g>
  </g>
  <g transform="translate(339.0, 682.8)">
      <g transform="translate(-5.00,-0.16) rotate(0.60) scale(1.000)">
        <g transform="translate(-4.48,1.03) rotate(3.14) scale(0.980)">
        <g transform="translate(-2.87,2.13) rotate(7.45) scale(0.960)">
        <g transform="translate(-0.55,3.03) rotate(13.18) scale(0.940)">
        <g transform="translate(1.90,3.67) rotate(19.88) scale(0.920)">
        <g transform="translate(3.88,3.98) rotate(27.00) scale(0.900)">
        <g transform="translate(4.92,3.93) rotate(33.90) scale(0.880)">
        <rect x="-22.6" y="-22.6" width="45.2" height="45.2" rx="11.3" fill="url(#rgrad2)" filter="url(#shadow)" opacity="0.15"/>
        <circle cx="0" cy="0" r="15.1" fill="url(#rgrad3)" opacity="0.11"/>
      </g>
      </g>
      </g>
      </g>
      </g>
      </g>
      </g>
  </g>
  <g transform="translate(545.5, 684.1)">
      <g transform="translate(-2.87,3.28) rotate(0.60) scale(1.000)">
        <g transform="translate(-0.55,3.81) rotate(3.14) scale(0.980)">
        <g transform="translate(1.90,4.00) rotate(7.45) scale(0.960)">
        <g transform="translate(3.88,3.83) rotate(13.18) scale(0.940)" clip-path="url(#clipRect)">
        <g transform="translate(4.92,3.32) rotate(19.88) scale(0.920)">
        <g transform="translate(4.75,2.52) rotate(27.00) scale(0.900)">
        <g transform="translate(3.42,1.49) rotate(33.90) scale(0.880)">
        <path d="M26.0,15.0 L0.0,30.0 L-26.0,15.0 L-26.0,-15.0 L-0.0,-30.0 L26.0,-15.0Z" fill="url(#lgrad3)" filter="url(#blur3)" opacity="0.22"/>
        <ellipse cx="0" cy="0" rx="12.5" ry="8.3" fill="#FFFFFF" opacity="0.11"/>
      </g>
      </g>
      </g>
      </g>
      </g>
      </g>
      </g>
  </g>
  <g transform="translate(750.7, 674.1)">
      <g transform="translate(1.90,3.70) rotate(0.60) scale(1.000)">
        <g transform="translate(3.88,3.09) rotate(3.14) scale(0.980)">
        <g transform="translate(4.92,2.20) rotate(7.45) scale(0.960)">
        <g transform="translate(4.75,1.11) rotate(13.18) scale(0.940)">
        <g transform="translate(3.42,-0.07) rotate(19.88) scale(0.920)">
        <g transform="translate(1.25,-1.25) rotate(27.00) scale(0.900)" mask="url(#maskDynamic)">
        <g transform="translate(-1.23,-2.32) rotate(33.90) scale(0.880)">
        <circle cx="0" cy="0" r="32.0" fill="url(#rgrad4)" filter="url(#shadow)" opacity="0.32"/>
        <text x="0" y="5" text-anchor="middle" font-family="Arial, sans-serif" font-size="14" fill="#FFFFFF" opacity="0.32">39</text>
      </g>
      </g>
      </g>
      </g>
      </g>
      </g>
      </g>
  </g>
  <g transform="translate(958.2, 657.5)">
      <g transform="translate(4.92,0.72) rotate(0.60) scale(1.000)">
        <g transform="translate(4.75,-0.47) rotate(3.14) scale(0.980)">
        <g transform="translate(3.42,-1.63) rotate(7.45) scale(0.960)">
        <g transform="translate(1.25,-2.63) rotate(13.18) scale(0.940)">
        <g transform="translate(-1.23,-3.41) rotate(19.88) scale(0.920)">
        <g transform="translate(-3.40,-3.87) rotate(27.00) scale(0.900)">
        <g transform="translate(-4.74,-4.00) rotate(33.90) scale(0.880)">
        <path d="M0.0,-74.3 L21.8,-30.1 L70.7,-23.0 L35.3,11.5 L43.7,60.1 L0.0,37.2 L-43.7,60.1 L-35.3,11.5 L-70.7,-23.0 L-21.8,-30.1Z" fill="url(#rgrad0)" filter="url(#blur0)" opacity="0.43"/>
      </g>
      </g>
      </g>
      </g>
      </g>
      </g>
      </g>
  </g>
  <g transform="translate(1171.0, 642.0)">
      <g transform="translate(3.42,-2.92) rotate(0.60) scale(1.000)">
        <g transform="translate(1.25,-3.60) rotate(3.14) scale(0.980)">
        <g transform="translate(-1.23,-3.95) rotate(7.45) scale(0.960)">
        <g transform="translate(-3.40,-3.96) rotate(13.18) scale(0.940)" clip-path="url(#clipStar)">
        <g transform="translate(-4.74,-3.61) rotate(19.88) scale(0.920)">
        <g transform="translate(-4.92,-2.93) rotate(27.00) scale(0.900)">
        <g transform="translate(-3.90,-2.00) rotate(33.90) scale(0.880)">
        <rect x="-35.7" y="-35.7" width="71.5" height="71.5" rx="17.9" fill="url(#lgrad1)" filter="url(#shadow)" opacity="0.55"/>
        <circle cx="0" cy="0" r="23.8" fill="url(#rgrad2)" opacity="0.39"/>
      </g>
      </g>
      </g>
      </g>
      </g>
      </g>
      </g>
  </g>
  <g transform="translate(1390.9, 635.1)">
      <g transform="translate(-1.23,-3.88) rotate(0.60) scale(1.000)">
        <g transform="translate(-3.40,-3.41) rotate(3.14) scale(0.980)">
        <g transform="translate(-4.74,-2.65) rotate(7.45) scale(0.960)">
        <g transform="translate(-4.92,-1.64) rotate(13.18) scale(0.940)">
        <g transform="translate(-3.90,-0.49) rotate(19.88) scale(0.920)">
        <g transform="translate(-1.92,0.70) rotate(27.00) scale(0.900)" mask="url(#maskStripes)">
        <g transform="translate(0.53,1.84) rotate(33.90) scale(0.880)">
        <path d="M30.2,17.4 L0.0,34.8 L-30.2,17.4 L-30.2,-17.4 L-0.0,-34.8 L30.2,-17.4Z" fill="url(#rgrad2)" filter="url(#blur2)" opacity="0.67"/>
        <ellipse cx="0" cy="0" rx="14.5" ry="9.7" fill="#FFFFFF" opacity="0.33"/>
      </g>
      </g>
      </g>
      </g>
      </g>
      </g>
      </g>
  </g>
  <g transform="translate(1617.9, 639.8)">
      <g transform="translate(-4.74,-1.27) rotate(0.60) scale(1.000)">
        <g transform="translate(-4.92,-0.09) rotate(3.14) scale(0.980)">
        <g transform="translate(-3.90,1.09) rotate(7.45) scale(0.960)">
        <g transform="translate(-1.92,2.18) rotate(13.18) scale(0.940)">
        <g transform="translate(0.53,3.08) rotate(19.88) scale(0.920)">
        <g transform="translate(2.85,3.69) rotate(27.00) scale(0.900)">
        <g transform="translate(4.47,3.98) rotate(33.90) scale(0.880)">
        <circle cx="0" cy="0" r="23.2" fill="url(#rgrad3)" filter="url(#shadow)" opacity="0.77"/>
        <text x="0" y="5" text-anchor="middle" font-family="Arial, sans-serif" font-size="14" fill="#FFFFFF" opacity="0.77">39</text>
      </g>
      </g>
      </g>
      </g>
      </g>
      </g>
      </g>
  </g>
  <g transform="translate(90.4, 934.1)">
      <g transform="translate(-3.90,2.51) rotate(0.60) scale(1.000)">
        <g transform="translate(-1.92,3.32) rotate(3.14) scale(0.980)">
        <g transform="translate(0.53,3.83) rotate(7.45) scale(0.960)">
        <g transform="translate(2.85,4.00) rotate(13.18) scale(0.940)" clip-path="url(#clipDynamic)">
        <g transform="translate(4.47,3.81) rotate(19.88) scale(0.920)">
        <g transform="translate(5.00,3.29) rotate(27.00) scale(0.900)">
        <g transform="translate(4.30,2.47) rotate(33.90) scale(0.880)">
        <path d="M0.0,-47.3 L13.9,-19.1 L45.0,-14.6 L22.5,7.3 L27.8,38.2 L0.0,23.6 L-27.8,38.2 L-22.5,7.3 L-45.0,-14.6 L-13.9,-19.1Z" fill="url(#lgrad4)" filter="url(#blur4)" opacity="0.84"/>
      </g>
      </g>
      </g>
      </g>
      </g>
      </g>
      </g>
  </g>
  <g transform="translate(323.7, 377.7)" mask="url(#maskGradient)">
    <ellipse cx="0" cy="0" rx="200" ry="150" fill="url(#rgrad0)" filter="url(#blur3)" opacity="0.3"/>
  </g>
  <g transform="translate(894.5, 347.2)" mask="url(#maskCircleFade)">
    <ellipse cx="0" cy="0" rx="200" ry="150" fill="url(#rgrad1)" filter="url(#blur3)" opacity="0.3"/>
  </g>
  <g transform="translate(1378.5, 294.5)" mask="url(#maskStripes)">
    <ellipse cx="0" cy="0" rx="200" ry="150" fill="url(#rgrad2)" filter="url(#blur3)" opacity="0.3"/>
  </g>
</svg>