<?xml version="1.0" encoding="UTF-8"?>
<svg xmlns="http://www.w3.org/2000/svg" viewBox="0 0 1920 1080" width="1920" height="1080">
  <defs>
    <filter id="blur0" x="-50%" y="-50%" width="200%" height="200%">
      <feGaussianBlur in="SourceGraphic" stdDeviation="1"/>
    </filter>
    <filter id="blur1" x="-50%" y="-50%" width="200%" height="200%">
      <feGaussianBlur in="SourceGraphic" stdDeviation="3"/>
    </filter>
    <filter id="blur2" x="-50%" y="-50%" width="200%" height="200%">
      <feGaussianBlur in="SourceGraphic" stdDeviation="5"/>
    </filter>
    <filter id="blur3" x="-50%" y="-50%" width="200%" height="200%">
      <feGaussianBlur in="SourceGraphic" stdDeviation="7"/>
    </filter>
    <filter id="blur4" x="-50%" y="-50%" width="200%" height="200%">
      <feGaussianBlur in="SourceGraphic" stdDeviation="9"/>
    </filter>
    <filter id="shadow" x="-50%" y="-50%" width="200%" height="200%">
      <feGaussianBlur in="SourceAlpha" stdDeviation="3" result="blur"/>
      <feOffset in="blur" dx="4" dy="4" result="offsetBlur"/>
      <feMerge>
        <feMergeNode in="offsetBlur"/>
        <feMergeNode in="SourceGraphic"/>
      </feMerge>
    </filter>
    <linearGradient id="lgrad0" x1="0%" y1="0%" x2="7.8%" y2="76.9%">
      <stop offset="0%" stop-color="#FF6B6B"/>
      <stop offset="33%" stop-color="#4ECDC4"/>
      <stop offset="66%" stop-color="#45B7D1"/>
      <stop offset="100%" stop-color="#96E6A1"/>
    </linearGradient>
    <linearGradient id="lgrad1" x1="0%" y1="0%" x2="0.0%" y2="52.2%">
      <stop offset="0%" stop-color="#FFE66D"/>
      <stop offset="33%" stop-color="#FF6B6B"/>
      <stop offset="66%" stop-color="#C44D58"/>
      <stop offset="100%" stop-color="#8B0000"/>
    </linearGradient>
    <linearGradient id="lgrad2" x1="0%" y1="0%" x2="5.6%" y2="26.9%">
      <stop offset="0%" stop-color="#4169E1"/>
      <stop offset="33%" stop-color="#7B68EE"/>
      <stop offset="66%" stop-color="#9370DB"/>
      <stop offset="100%" stop-color="#FFD700"/>
    </linearGradient>
    <linearGradient id="lgrad3" x1="0%" y1="0%" x2="23.1%" y2="7.8%">
      <stop offset="0%" stop-color="#32CD32"/>
      <stop offset="33%" stop-color="#228B22"/>
      <stop offset="66%" stop-color="#006400"/>
      <stop offset="100%" stop-color="#ADFF2F"/>
    </linearGradient>
    <linearGradient id="lgrad4" x1="0%" y1="0%" x2="47.8%" y2="0.0%">
      <stop offset="0%" stop-color="#FF1493"/>
      <stop offset="33%" stop-color="#FF69B4"/>
      <stop offset="66%" stop-color="#FFB6C1"/>
      <stop offset="100%" stop-color="#FFC0CB"/>
    </linearGradient>
    <radialGradient id="rgrad0" cx="67.5%" cy="55.0%" r="60%">
      <stop offset="0%" stop-color="#FF6B6B" stop-opacity="1"/>
      <stop offset="50%" stop-color="#4ECDC4" stop-opacity="0.8"/>
      <stop offset="100%" stop-color="#45B7D1" stop-opacity="0.6"/>
    </radialGradient>
    <radialGradient id="rgrad1" cx="37.5%" cy="63.0%" r="60%">
      <stop offset="0%" stop-color="#FFE66D" stop-opacity="1"/>
      <stop offset="50%" stop-color="#FF6B6B" stop-opacity="0.8"/>
      <stop offset="100%" stop-color="#C44D58" stop-opacity="0.6"/>
    </radialGradient>
    <radialGradient id="rgrad2" cx="47.5%" cy="31.0%" r="60%">
      <stop offset="0%" stop-color="#4169E1" stop-opacity="1"/>
      <stop offset="50%" stop-color="#7B68EE" stop-opacity="0.8"/>
      <stop offset="100%" stop-color="#9370DB" stop-opacity="0.6"/>
    </radialGradient>
    <radialGradient id="rgrad3" cx="57.5%" cy="39.0%" r="60%">
      <stop offset="0%" stop-color="#32CD32" stop-opacity="1"/>
      <stop offset="50%" stop-color="#228B22" stop-opacity="0.8"/>
      <stop offset="100%" stop-color="#006400" stop-opacity="0.6"/>
    </radialGradient>
    <radialGradient id="rgrad4" cx="67.5%" cy="47.0%" r="60%">
      <stop offset="0%" stop-color="#FF1493" stop-opacity="1"/>
      <stop offset="50%" stop-color="#FF69B4" stop-opacity="0.8"/>
      <stop offset="100%" stop-color="#FFB6C1" stop-opacity="0.6"/>
    </radialGradient>
    <clipPath id="clipCircle">
      <circle cx="0" cy="0" r="50"/>
    </clipPath>
    <clipPath id="clipStar">
      <path d="M0.0,-50.0 L14.7,-20.2 L47.6,-15.5 L23.8,7.7 L29.4,40.5 L0.0,25.0 L-29.4,40.5 L-23.8,7.7 L-47.6,-15.5 L-14.7,-20.2Z"/>
    </clipPath>
    <clipPath id="clipHex">
      <path d="M39.0,22.5 L0.0,45.0 L-39.0,22.5 L-39.0,-22.5 L-0.0,-45.0 L39.0,-22.5Z"/>
    </clipPath>
    <clipPath id="clipRect">
      <rect x="-40" y="-30" width="80" height="60" rx="10"/>
    </clipPath>
    <clipPath id="clipDynamic">
      <circle cx="0" cy="0" r="28.2"/>
    </clipPath>
    <mask id="maskGradient" maskContentUnits="objectBoundingBox">
      <rect x="0" y="0" width="1" height="1" fill="url(#maskGrad)"/>
    </mask>
    <linearGradient id="maskGrad" x1="0%" y1="0%" x2="100%" y2="100%">
      <stop offset="0%" stop-color="white"/>
      <stop offset="100%" stop-color="black"/>
    </linearGradient>
    <mask id="maskCircleFade">
      <circle cx="0" cy="0" r="60" fill="white"/>
      <circle cx="0" cy="0" r="30" fill="black"/>
    </mask>
    <mask id="maskStripes">
      <rect x="-50" y="-50" width="100" height="100" fill="white"/>
      <rect x="-50" y="-40" width="100" height="10" fill="black"/>
      <rect x="-50" y="-20" width="100" height="10" fill="black"/>
      <rect x="-50" y="0" width="100" height="10" fill="black"/>
      <rect x="-50" y="20" width="100" height="10" fill="black"/>
      <rect x="-50" y="40" width="100" height="10" fill="black"/>
    </mask>
    <mask id="maskDynamic">
      <rect x="-60" y="-60" width="120" height="120" fill="white" fill-opacity="0.46"/>
      <circle cx="0" cy="0" r="25" fill="white"/>
    </mask>
  </defs>
  <rect width="1920" height="1080" fill="url(#lgrad0)"/>
  <g transform="translate(86.4, 122.3)">
      <g transform="translate(-2.27,3.56) rotate(1.17) scale(1.000)">
        <g transform="translate(0.14,3.94) rotate(0.36) scale(0.980)">
        <g transform="translate(2.52,3.97) rotate(-2.45) scale(0.960)">
        <g transform="translate(4.28,3.64) rotate(-7.12) scale(0.940)" clip-path="url(#clipCircle)">
        <g transform="translate(5.00,2.99) rotate(-13.37) scale(0.920)">
        <g transform="translate(4.49,2.07) rotate(-20.76) scale(0.900)">
        <g transform="translate(2.88,0.96) rotate(-28.75) scale(0.880)">
        <path d="M0.0,-63.5 L18.7,-25.7 L60.4,-19.6 L30.2,9.8 L37.3,51.4 L0.0,31.8 L-37.3,51.4 L-30.2,9.8 L-60.4,-19.6 L-18.7,-25.7Z" fill="url(#lgrad0)" filter="url(#blur0)" opacity="0.59"/>
      </g>
      </g>
      </g>
      </g>
      </g>
      </g>
      </g>
  </g>
  <g transform="translate(320.8, 124.4)">
      <g transform="translate(2.52,3.45) rotate(1.17) scale(1.000)">
        <g transform="translate(4.28,2.70) rotate(0.36) scale(0.980)">
        <g transform="translate(5.00,1.71) rotate(-2.45) scale(0.960)">
        <g transform="translate(4.49,0.57) rotate(-7.12) scale(0.940)">
        <g transform="translate(2.88,-0.63) rotate(-13.37) scale(0.920)">
        <g transform="translate(0.57,-1.77) rotate(-20.76) scale(0.900)" mask="url(#maskCircleFade)">
        <g transform="translate(-1.89,-2.75) rotate(-28.75) scale(0.880)">
        <rect x="-24.8" y="-24.8" width="49.6" height="49.6" rx="12.4" fill="url(#rgrad1)" filter="url(#shadow)" opacity="0.47"/>
        <circle cx="0" cy="0" r="16.5" fill="url(#rgrad2)" opacity="0.33"/>
      </g>
      </g>
      </g>
      </g>
      </g>
      </g>
      </g>
  </g>
  <g transform="translate(555.1, 115.0)">
      <g transform="translate(5.00,0.17) rotate(1.17) scale(1.000)">
        <g transform="translate(4.49,-1.02) rotate(0.36) scale(0.980)">
        <g transform="translate(2.88,-2.12) rotate(-2.45) scale(0.960)">
        <g transform="translate(0.57,-3.02) rotate(-7.12) scale(0.940)">
        <g transform="translate(-1.89,-3.66) rotate(-13.37) scale(0.920)">
        <g transform="translate(-3.87,-3.97) rotate(-20.76) scale(0.900)">
        <g transform="translate(-4.92,-3.93) rotate(-28.75) scale(0.880)">
        <path d="M23.5,13.6 L0.0,27.2 L-23.5,13.6 L-23.5,-13.6 L-0.0,-27.2 L23.5,-13.6Z" fill="url(#rgrad2)" filter="url(#blur2)" opacity="0.36"/>
        <ellipse cx="0" cy="0" rx="11.3" ry="7.5" fill="#FFFFFF" opacity="0.18"/>
      </g>
      </g>
      </g>
      </g>
      </g>
      </g>
      </g>
  </g>
  <g transform="translate(785.7, 98.6)">
      <g transform="translate(2.88,-3.27) rotate(1.17) scale(1.000)">
        <g transform="translate(0.57,-3.81) rotate(0.36) scale(0.980)">
        <g transform="translate(-1.89,-4.00) rotate(-2.45) scale(0.960)">
        <g transform="translate(-3.87,-3.84) rotate(-7.12) scale(0.940)" clip-path="url(#clipRect)">
        <g transform="translate(-4.92,-3.33) rotate(-13.37) scale(0.920)">
        <g transform="translate(-4.75,-2.53) rotate(-20.76) scale(0.900)">
        <g transform="translate(-3.43,-1.50) rotate(-28.75) scale(0.880)">
        <circle cx="0" cy="0" r="27.2" fill="url(#lgrad3)" filter="url(#shadow)" opacity="0.25"/>
        <text x="0" y="5" text-anchor="middle" font-family="Arial, sans-serif" font-size="14" fill="#FFFFFF" opacity="0.25">925</text>
      </g>
      </g>
      </g>
      </g>
      </g>
      </g>
      </g>
  </g>
  <g transform="translate(1010.0, 82.8)">
      <g transform="translate(-1.89,-3.70) rotate(1.17) scale(1.000)">
        <g transform="translate(-3.87,-3.09) rotate(0.36) scale(0.980)">
        <g transform="translate(-4.92,-2.21) rotate(-2.45) scale(0.960)">
        <g transform="translate(-4.75,-1.12) rotate(-7.12) scale(0.940)">
        <g transform="translate(-3.43,0.06) rotate(-13.37) scale(0.920)">
        <g transform="translate(-1.26,1.24) rotate(-20.76) scale(0.900)" mask="url(#maskGradient)">
        <g transform="translate(1.21,2.31) rotate(-28.75) scale(0.880)">
        <path d="M0.0,-68.7 L20.2,-27.8 L65.4,-21.2 L32.7,10.6 L40.4,55.6 L0.0,34.4 L-40.4,55.6 L-32.7,10.6 L-65.4,-21.2 L-20.2,-27.8Z" fill="url(#rgrad4)" filter="url(#blur4)" opacity="0.17"/>
      </g>
      </g>
      </g>
      </g>
      </g>
      </g>
      </g>
  </g>
  <g transform="translate(1226.9, 75.2)">
      <g transform="translate(-4.92,-0.73) rotate(1.17) scale(1.000)">
        <g transform="translate(-4.75,0.46) rotate(0.36) scale(0.980)">
        <g transform="translate(-3.43,1.62) rotate(-2.45) scale(0.960)">
        <g transform="translate(-1.26,2.63) rotate(-7.12) scale(0.940)">
        <g transform="translate(1.21,3.40) rotate(-13.37) scale(0.920)">
        <g transform="translate(3.39,3.87) rotate(-20.76) scale(0.900)">
        <g transform="translate(4.74,4.00) rotate(-28.75) scale(0.880)">
        <rect x="-37.5" y="-37.5" width="75.0" height="75.0" rx="18.7" fill="url(#rgrad0)" filter="url(#shadow)" opacity="0.12"/>
        <circle cx="0" cy="0" r="25.0" fill="url(#rgrad1)" opacity="0.08"/>
      </g>
      </g>
      </g>
      </g>
      </g>
      </g>
      </g>
  </g>
  <g transform="translate(1437.3, 79.2)">
      <g transform="translate(-3.43,2.91) rotate(1.17) scale(1.000)">
        <g transform="translate(-1.26,3.59) rotate(0.36) scale(0.980)">
        <g transform="translate(1.21,3.95) rotate(-2.45) scale(0.960)">
        <g transform="translate(3.39,3.96) rotate(-7.12) scale(0.940)" clip-path="url(#clipStar)">
        <g transform="translate(4.74,3.61) rotate(-13.37) scale(0.920)">
        <g transform="translate(4.92,2.94) rotate(-20.76) scale(0.900)">
        <g transform="translate(3.91,2.01) rotate(-28.75) scale(0.880)">
        <path d="M35.0,20.2 L0.0,40.5 L-35.0,20.2 L-35.0,-20.2 L-0.0,-40.5 L35.0,-20.2Z" fill="url(#lgrad1)" filter="url(#blur1)" opacity="0.10"/>
        <ellipse cx="0" cy="0" rx="16.9" ry="11.2" fill="#FFFFFF" opacity="0.05"/>
      </g>
      </g>
      </g>
      </g>
      </g>
      </g>
      </g>
  </g>
  <g transform="translate(1643.4, 93.0)">
      <g transform="translate(1.21,3.88) rotate(1.17) scale(1.000)">
        <g transform="translate(3.39,3.42) rotate(0.36) scale(0.980)">
        <g transform="translate(4.74,2.65) rotate(-2.45) scale(0.960)">
        <g transform="translate(4.92,1.65) rotate(-7.12) scale(0.940)">
        <g transform="translate(3.91,0.50) rotate(-13.37) scale(0.920)">
        <g transform="translate(1.93,-0.69) rotate(-20.76) scale(0.900)" mask="url(#maskDynamic)">
        <g transform="translate(-0.52,-1.83) rotate(-28.75) scale(0.880)">
        <circle cx="0" cy="0" r="26.5" fill="url(#rgrad2)" filter="url(#shadow)" opacity="0.12"/>
        <text x="0" y="5" text-anchor="middle" font-family="Arial, sans-serif" font-size="14" fill="#FFFFFF" opacity="0.12">925</text>
      </g>
      </g>
      </g>
      </g>
      </g>
      </g>
      </g>
  </g>
  <g transform="translate(88.7, 390.1)">
      <g transform="translate(4.74,1.28) rotate(1.17) scale(1.000)">
        <g transform="translate(4.92,0.10) rotate(0.36) scale(0.980)">
        <g transform="translate(3.91,-1.08) rotate(-2.45) scale(0.960)">
        <g transform="translate(1.93,-2.17) rotate(-7.12) scale(0.940)">
        <g transform="translate(-0.52,-3.07) rotate(-13.37) scale(0.920)">
        <g transform="translate(-2.84,-3.69) rotate(-20.76) scale(0.900)">
        <g transform="translate(-4.46,-3.98) rotate(-28.75) scale(0.880)">
        <path d="M0.0,-45.1 L13.2,-18.2 L42.9,-13.9 L21.4,7.0 L26.5,36.5 L0.0,22.5 L-26.5,36.5 L-21.4,7.0 L-42.9,-13.9 L-13.2,-18.2Z" fill="url(#rgrad3)" filter="url(#blur3)" opacity="0.17"/>
      </g>
      </g>
      </g>
      </g>
      </g>
      </g>
      </g>
  </g>
  <g transform="translate(296.8, 402.5)">
      <g transform="translate(3.91,-2.50) rotate(1.17) scale(1.000)">
        <g transform="translate(1.93,-3.31) rotate(0.36) scale(0.980)">
        <g transform="translate(-0.52,-3.83) rotate(-2.45) scale(0.960)">
        <g transform="translate(-2.84,-4.00) rotate(-7.12) scale(0.940)" clip-path="url(#clipDynamic)">
        <g transform="translate(-4.46,-3.82) rotate(-13.37) scale(0.920)">
        <g transform="translate(-5.00,-3.29) rotate(-20.76) scale(0.900)">
        <g transform="translate(-4.31,-2.48) rotate(-28.75) scale(0.880)">
        <rect x="-25.4" y="-25.4" width="50.8" height="50.8" rx="12.7" fill="url(#lgrad4)" filter="url(#shadow)" opacity="0.25"/>
        <circle cx="0" cy="0" r="16.9" fill="url(#rgrad0)" opacity="0.17"/>
      </g>
      </g>
      </g>
      </g>
      </g>
      </g>
      </g>
  </g>
  <g transform="translate(510.5, 404.3)">
      <g transform="translate(-0.52,-3.98) rotate(1.17) scale(1.000)">
        <g transform="translate(-2.84,-3.68) rotate(0.36) scale(0.980)">
        <g transform="translate(-4.46,-3.05) rotate(-2.45) scale(0.960)">
        <g transform="translate(-5.00,-2.15) rotate(-7.12) scale(0.940)">
        <g transform="translate(-4.31,-1.06) rotate(-13.37) scale(0.920)">
        <g transform="translate(-2.56,0.13) rotate(-20.76) scale(0.900)" mask="url(#maskStripes)">
        <g transform="translate(-0.19,1.31) rotate(-28.75) scale(0.880)">
        <path d="M33.8,19.5 L0.0,39.0 L-33.8,19.5 L-33.8,-19.5 L-0.0,-39.0 L33.8,-19.5Z" fill="url(#rgrad0)" filter="url(#blur0)" opacity="0.35"/>
        <ellipse cx="0" cy="0" rx="16.2" ry="10.8" fill="#FFFFFF" opacity="0.18"/>
      </g>
      </g>
      </g>
      </g>
      </g>
      </g>
      </g>
  </g>
  <g transform="translate(731.5, 394.6)">
      <g transform="translate(-4.46,-1.80) rotate(1.17) scale(1.000)">
        <g transform="translate(-5.00,-0.67) rotate(0.36) scale(0.980)">
        <g transform="translate(-4.31,0.53) rotate(-2.45) scale(0.960)">
        <g transform="translate(-2.56,1.68) rotate(-7.12) scale(0.940)">
        <g transform="translate(-0.19,2.68) rotate(-13.37) scale(0.920)">
        <g transform="translate(2.23,3.43) rotate(-20.76) scale(0.900)">
        <g transform="translate(4.10,3.89) rotate(-28.75) scale(0.880)">
        <circle cx="0" cy="0" r="37.3" fill="url(#rgrad1)" filter="url(#shadow)" opacity="0.47"/>
        <text x="0" y="5" text-anchor="middle" font-family="Arial, sans-serif" font-size="14" fill="#FFFFFF" opacity="0.47">925</text>
      </g>
      </g>
      </g>
      </g>
      </g>
      </g>
      </g>
  </g>
  <g transform="translate(959.4, 378.1)">
      <g transform="translate(-4.31,2.03) rotate(1.17) scale(1.000)">
        <g transform="translate(-2.56,2.96) rotate(0.36) scale(0.980)">
        <g transform="translate(-0.19,3.62) rotate(-2.45) scale(0.960)">
        <g transform="translate(2.23,3.96) rotate(-7.12) scale(0.940)" clip-path="url(#clipHex)">
        <g transform="translate(4.10,3.95) rotate(-13.37) scale(0.920)">
        <g transform="translate(4.97,3.58) rotate(-20.76) scale(0.900)">
        <g transform="translate(4.62,2.89) rotate(-28.75) scale(0.880)">
        <path d="M0.0,-70.8 L20.8,-28.6 L67.3,-21.9 L33.7,10.9 L41.6,57.3 L0.0,35.4 L-41.6,57.3 L-33.7,10.9 L-67.3,-21.9 L-20.8,-28.6Z" fill="url(#lgrad2)" filter="url(#blur2)" opacity="0.59"/>
      </g>
      </g>
      </g>
      </g>
      </g>
      </g>
      </g>
  </g>
  <g transform="translate(1192.4, 362.5)">
      <g transform="translate(-0.19,4.00) rotate(1.17) scale(1.000)">
        <g transform="translate(2.23,3.86) rotate(0.36) scale(0.980)">
        <g transform="translate(4.10,3.38) rotate(-2.45) scale(0.960)">
        <g transform="translate(4.97,2.60) rotate(-7.12) scale(0.940)">
        <g transform="translate(4.62,1.59) rotate(-13.37) scale(0.920)">
        <g transform="translate(3.14,0.43) rotate(-20.76) scale(0.900)" mask="url(#maskCircleFade)">
        <g transform="translate(0.89,-0.76) rotate(-28.75) scale(0.880)">
        <rect x="-28.5" y="-28.5" width="57.1" height="57.1" rx="14.3" fill="url(#rgrad3)" filter="url(#shadow)" opacity="0.70"/>
        <circle cx="0" cy="0" r="19.0" fill="url(#rgrad4)" opacity="0.49"/>
      </g>
      </g>
      </g>
      </g>
      </g>
      </g>
      </g>
  </g>
  <g transform="translate(1427.3, 355.1)">
      <g transform="translate(4.10,2.29) rotate(1.17) scale(1.000)">
        <g transform="translate(4.97,1.22) rotate(0.36) scale(0.980)">
        <g transform="translate(4.62,0.04) rotate(-2.45) scale(0.960)">
        <g transform="translate(3.14,-1.15) rotate(-7.12) scale(0.940)">
        <g transform="translate(0.89,-2.23) rotate(-13.37) scale(0.920)">
        <g transform="translate(-1.57,-3.11) rotate(-20.76) scale(0.900)">
        <g transform="translate(-3.66,-3.72) rotate(-28.75) scale(0.880)">
        <path d="M23.9,13.8 L0.0,27.6 L-23.9,13.8 L-23.9,-13.8 L-0.0,-27.6 L23.9,-13.8Z" fill="url(#rgrad4)" filter="url(#blur4)" opacity="0.79"/>
        <ellipse cx="0" cy="0" rx="11.5" ry="7.7" fill="#FFFFFF" opacity="0.40"/>
      </g>
      </g>
      </g>
      </g>
      </g>
      </g>
      </g>
  </g>
  <g transform="translate(1660.3, 359.4)">
      <g transform="translate(4.62,-1.52) rotate(1.17) scale(1.000)">
        <g transform="translate(3.14,-2.55) rotate(0.36) scale(0.980)">
        <g transform="translate(0.89,-3.35) rotate(-2.45) scale(0.960)">
        <g transform="translate(-1.57,-3.84) rotate(-7.12) scale(0.940)" clip-path="url(#clipCircle)">
        <g transform="translate(-3.66,-4.00) rotate(-13.37) scale(0.920)">
        <g transform="translate(-4.84,-3.80) rotate(-20.76) scale(0.900)">
        <g transform="translate(-4.85,-3.25) rotate(-28.75) scale(0.880)">
        <circle cx="0" cy="0" r="23.9" fill="url(#lgrad0)" filter="url(#shadow)" opacity="0.86"/>
        <text x="0" y="5" text-anchor="middle" font-family="Arial, sans-serif" font-size="14" fill="#FFFFFF" opacity="0.86">925</text>
      </g>
      </g>
      </g>
      </g>
      </g>
      </g>
      </g>
  </g>
  <g transform="translate(128.4, 653.4)">
      <g transform="translate(0.89,-3.94) rotate(1.17) scale(1.000)">
        <g transform="translate(-1.57,-3.97) rotate(0.36) scale(0.980)">
        <g transform="translate(-3.66,-3.65) rotate(-2.45) scale(0.960)">
        <g transform="translate(-4.84,-3.01) rotate(-7.12) scale(0.940)">
        <g transform="translate(-4.85,-2.09) rotate(-13.37) scale(0.920)">
        <g transform="translate(-3.66,-0.99) rotate(-20.76) scale(0.900)" mask="url(#maskGradient)">
        <g transform="translate(-1.58,0.20) rotate(-28.75) scale(0.880)">
        <path d="M0.0,-60.8 L17.9,-24.6 L57.9,-18.8 L28.9,9.4 L35.8,49.2 L0.0,30.4 L-35.8,49.2 L-28.9,9.4 L-57.9,-18.8 L-17.9,-24.6Z" fill="url(#rgrad1)" filter="url(#blur1)" opacity="0.90"/>
      </g>
      </g>
      </g>
      </g>
      </g>
      </g>
      </g>
  </g>
  <g transform="translate(349.5, 670.5)">
      <g transform="translate(-3.66,-2.73) rotate(1.17) scale(1.000)">
        <g transform="translate(-4.84,-1.74) rotate(0.36) scale(0.980)">
        <g transform="translate(-4.85,-0.60) rotate(-2.45) scale(0.960)">
        <g transform="translate(-3.66,0.60) rotate(-7.12) scale(0.940)">
        <g transform="translate(-1.58,1.74) rotate(-13.37) scale(0.920)">
        <g transform="translate(0.89,2.73) rotate(-20.76) scale(0.900)">
        <g transform="translate(3.14,3.47) rotate(-28.75) scale(0.880)">
        <rect x="-36.5" y="-36.5" width="73.1" height="73.1" rx="18.3" fill="url(#rgrad2)" filter="url(#shadow)" opacity="0.90"/>
        <circle cx="0" cy="0" r="24.4" fill="url(#rgrad3)" opacity="0.63"/>
      </g>
      </g>
      </g>
      </g>
      </g>
      </g>
      </g>
  </g>
  <g transform="translate(563.4, 682.6)">
      <g transform="translate(-4.85,0.99) rotate(1.17) scale(1.000)">
        <g transform="translate(-3.66,2.09) rotate(0.36) scale(0.980)">
        <g transform="translate(-1.58,3.00) rotate(-2.45) scale(0.960)">
        <g transform="translate(0.89,3.65) rotate(-7.12) scale(0.940)" clip-path="url(#clipRect)">
        <g transform="translate(3.14,3.97) rotate(-13.37) scale(0.920)">
        <g transform="translate(4.62,3.94) rotate(-20.76) scale(0.900)">
        <g transform="translate(4.97,3.55) rotate(-28.75) scale(0.880)">
        <path d="M38.1,22.0 L0.0,44.0 L-38.1,22.0 L-38.1,-22.0 L-0.0,-44.0 L38.1,-22.0Z" fill="url(#lgrad3)" filter="url(#blur3)" opacity="0.86"/>
        <ellipse cx="0" cy="0" rx="18.3" ry="12.2" fill="#FFFFFF" opacity="0.43"/>
      </g>
      </g>
      </g>
      </g>
      </g>
      </g>
      </g>
  </g>
  <g transform="translate(771.6, 684.1)">
      <g transform="translate(-1.58,3.80) rotate(1.17) scale(1.000)">
        <g transform="translate(0.89,4.00) rotate(0.36) scale(0.980)">
        <g transform="translate(3.14,3.85) rotate(-2.45) scale(0.960)">
        <g transform="translate(4.62,3.35) rotate(-7.12) scale(0.940)">
        <g transform="translate(4.97,2.55) rotate(-13.37) scale(0.920)">
        <g transform="translate(4.10,1.53) rotate(-20.76) scale(0.900)" mask="url(#maskDynamic)">
        <g transform="translate(2.23,0.37) rotate(-28.75) scale(0.880)">
        <circle cx="0" cy="0" r="30.6" fill="url(#rgrad4)" filter="url(#shadow)" opacity="0.79"/>
        <text x="0" y="5" text-anchor="middle" font-family="Arial, sans-serif" font-size="14" fill="#FFFFFF" opacity="0.79">925</text>
      </g>
      </g>
      </g>
      </g>
      </g>
      </g>
      </g>
  </g>
  <g transform="translate(976.9, 674.3)">
      <g transform="translate(3.14,3.11) rotate(1.17) scale(1.000)">
        <g transform="translate(4.62,2.23) rotate(0.36) scale(0.980)">
        <g transform="translate(4.97,1.15) rotate(-2.45) scale(0.960)">
        <g transform="translate(4.10,-0.03) rotate(-7.12) scale(0.940)">
        <g transform="translate(2.23,-1.21) rotate(-13.37) scale(0.920)">
        <g transform="translate(-0.19,-2.28) rotate(-20.76) scale(0.900)">
        <g transform="translate(-2.56,-3.15) rotate(-28.75) scale(0.880)">
        <path d="M0.0,-48.1 L14.1,-19.5 L45.8,-14.9 L22.9,7.4 L28.3,38.9 L0.0,24.1 L-28.3,38.9 L-22.9,7.4 L-45.8,-14.9 L-14.1,-19.5Z" fill="url(#rgrad0)" filter="url(#blur0)" opacity="0.70"/>
      </g>
      </g>
      </g>
      </g>
      </g>
      </g>
      </g>
  </g>
  <g transform="translate(1183.0, 657.7)">
      <g transform="translate(4.97,-0.43) rotate(1.17) scale(1.000)">
        <g transform="translate(4.10,-1.59) rotate(0.36) scale(0.980)">
        <g transform="translate(2.23,-2.60) rotate(-2.45) scale(0.960)">
        <g transform="translate(-0.19,-3.38) rotate(-7.12) scale(0.940)" clip-path="url(#clipStar)">
        <g transform="translate(-2.56,-3.86) rotate(-13.37) scale(0.920)">
        <g transform="translate(-4.30,-4.00) rotate(-20.76) scale(0.900)">
        <g transform="translate(-5.00,-3.77) rotate(-28.75) scale(0.880)">
        <rect x="-22.9" y="-22.9" width="45.9" height="45.9" rx="11.5" fill="url(#lgrad1)" filter="url(#shadow)" opacity="0.59"/>
        <circle cx="0" cy="0" r="15.3" fill="url(#rgrad2)" opacity="0.41"/>
      </g>
      </g>
      </g>
      </g>
      </g>
      </g>
      </g>
  </g>
  <g transform="translate(1393.2, 642.2)">
      <g transform="translate(2.23,-3.58) rotate(1.17) scale(1.000)">
        <g transform="translate(-0.19,-3.95) rotate(0.36) scale(0.980)">
        <g transform="translate(-2.56,-3.96) rotate(-2.45) scale(0.960)">
        <g transform="translate(-4.30,-3.62) rotate(-7.12) scale(0.940)">
        <g transform="translate(-5.00,-2.96) rotate(-13.37) scale(0.920)">
        <g transform="translate(-4.47,-2.03) rotate(-20.76) scale(0.900)" mask="url(#maskStripes)">
        <g transform="translate(-2.84,-0.93) rotate(-28.75) scale(0.880)">
        <path d="M29.4,17.0 L0.0,34.0 L-29.4,17.0 L-29.4,-17.0 L-0.0,-34.0 L29.4,-17.0Z" fill="url(#rgrad2)" filter="url(#blur2)" opacity="0.47"/>
        <ellipse cx="0" cy="0" rx="14.2" ry="9.4" fill="#FFFFFF" opacity="0.23"/>
      </g>
      </g>
      </g>
      </g>
      </g>
      </g>
      </g>
  </g>
  <g transform="translate(1610.0, 635.1)">
      <g transform="translate(-2.56,-3.44) rotate(1.17) scale(1.000)">
        <g transform="translate(-4.30,-2.68) rotate(0.36) scale(0.980)">
        <g transform="translate(-5.00,-1.68) rotate(-2.45) scale(0.960)">
        <g transform="translate(-4.47,-0.53) rotate(-7.12) scale(0.940)">
        <g transform="translate(-2.84,0.66) rotate(-13.37) scale(0.920)">
        <g transform="translate(-0.52,1.80) rotate(-20.76) scale(0.900)">
        <g transform="translate(1.93,2.77) rotate(-28.75) scale(0.880)">
        <circle cx="0" cy="0" r="35.2" fill="url(#rgrad3)" filter="url(#shadow)" opacity="0.35"/>
        <text x="0" y="5" text-anchor="middle" font-family="Arial, sans-serif" font-size="14" fill="#FFFFFF" opacity="0.35">925</text>
      </g>
      </g>
      </g>
      </g>
      </g>
      </g>
      </g>
  </g>
  <g transform="translate(74.2, 919.7)">
      <g transform="translate(-5.00,-0.13) rotate(1.17) scale(1.000)">
        <g transform="translate(-4.47,1.05) rotate(0.36) scale(0.980)">
        <g transform="translate(-2.84,2.15) rotate(-2.45) scale(0.960)">
        <g transform="translate(-0.52,3.05) rotate(-7.12) scale(0.940)" clip-path="url(#clipDynamic)">
        <g transform="translate(1.93,3.68) rotate(-13.37) scale(0.920)">
        <g transform="translate(3.90,3.98) rotate(-20.76) scale(0.900)">
        <g transform="translate(4.92,3.92) rotate(-28.75) scale(0.880)">
        <path d="M0.0,-74.7 L22.0,-30.2 L71.0,-23.1 L35.5,11.5 L43.9,60.4 L0.0,37.3 L-43.9,60.4 L-35.5,11.5 L-71.0,-23.1 L-22.0,-30.2Z" fill="url(#lgrad4)" filter="url(#blur4)" opacity="0.25"/>
      </g>
      </g>
      </g>
      </g>
      </g>
      </g>
      </g>
  </g>
  <g transform="translate(254.6, 371.3)" mask="url(#maskGradient)">
    <ellipse cx="0" cy="0" rx="200" ry="150" fill="url(#rgrad0)" filter="url(#blur3)" opacity="0.3"/>
  </g>
  <g transform="translate(850.4, 377.9)" mask="url(#maskCircleFade)">
    <ellipse cx="0" cy="0" rx="200" ry="150" fill="url(#rgrad1)" filter="url(#blur3)" opacity="0.3"/>
  </g>
  <g transform="translate(1399.9, 347.9)" mask="url(#maskStripes)">
    <ellipse cx="0" cy="0" rx="200" ry="150" fill="url(#rgrad2)" filter="url(#blur3)" opacity="0.3"/>
  </g>
</svg>