<?xml version="1.0" encoding="UTF-8"?>
<svg xmlns="http://www.w3.org/2000/svg" viewBox="0 0 1920 1080" width="1920" height="1080">
  <defs>
    <filter id="blur0" x="-50%" y="-50%" width="200%" height="200%">
      <feGaussianBlur in="SourceGraphic" stdDeviation="1"/>
    </filter>
    <filter id="blur1" x="-50%" y="-50%" width="200%" height="200%">
      <feGaussianBlur in="SourceGraphic" stdDeviation="3"/>
    </filter>
    <filter id="blur2" x="-50%" y="-50%" width="200%" height="200%">
      <feGaussianBlur in="SourceGraphic" stdDeviation="5"/>
    </filter>
    <filter id="blur3" x="-50%" y="-50%" width="200%" height="200%">
      <feGaussianBlur in="SourceGraphic" stdDeviation="7"/>
    </filter>
    <filter id="blur4" x="-50%" y="-50%" width="200%" height="200%">
      <feGaussianBlur in="SourceGraphic" stdDeviation="9"/>
    </filter>
    <filter id="shadow" x="-50%" y="-50%" width="200%" height="200%">
      <feGaussianBlur in="SourceAlpha" stdDeviation="3" result="blur"/>
      <feOffset in="blur" dx="4" dy="4" result="offsetBlur"/>
      <feMerge>
        <feMergeNode in="offsetBlur"/>
        <feMergeNode in="SourceGraphic"/>
      </feMerge>
    </filter>
    <linearGradient id="lgrad0" x1="0%" y1="0%" x2="0.7%" y2="41.7%">
      <stop offset="0%" stop-color="#FF6B6B"/>
      <stop offset="33%" stop-color="#4ECDC4"/>
      <stop offset="66%" stop-color="#45B7D1"/>
      <stop offset="100%" stop-color="#96E6A1"/>
    </linearGradient>
    <linearGradient id="lgrad1" x1="0%" y1="0%" x2="11.4%" y2="18.2%">
      <stop offset="0%" stop-color="#FFE66D"/>
      <stop offset="33%" stop-color="#FF6B6B"/>
      <stop offset="66%" stop-color="#C44D58"/>
      <stop offset="100%" stop-color="#8B0000"/>
    </linearGradient>
    <linearGradient id="lgrad2" x1="0%" y1="0%" x2="32.5%" y2="3.2%">
      <stop offset="0%" stop-color="#4169E1"/>
      <stop offset="33%" stop-color="#7B68EE"/>
      <stop offset="66%" stop-color="#9370DB"/>
      <stop offset="100%" stop-color="#FFD700"/>
    </linearGradient>
    <linearGradient id="lgrad3" x1="0%" y1="0%" x2="58.3%" y2="0.7%">
      <stop offset="0%" stop-color="#32CD32"/>
      <stop offset="33%" stop-color="#228B22"/>
      <stop offset="66%" stop-color="#006400"/>
      <stop offset="100%" stop-color="#ADFF2F"/>
    </linearGradient>
    <linearGradient id="lgrad4" x1="0%" y1="0%" x2="81.8%" y2="11.4%">
      <stop offset="0%" stop-color="#FF1493"/>
      <stop offset="33%" stop-color="#FF69B4"/>
      <stop offset="66%" stop-color="#FFB6C1"/>
      <stop offset="100%" stop-color="#FFC0CB"/>
    </linearGradient>
    <radialGradient id="rgrad0" cx="36.7%" cy="47.8%" r="60%">
      <stop offset="0%" stop-color="#FF6B6B" stop-opacity="1"/>
      <stop offset="50%" stop-color="#4ECDC4" stop-opacity="0.8"/>
      <stop offset="100%" stop-color="#45B7D1" stop-opacity="0.6"/>
    </radialGradient>
    <radialGradient id="rgrad1" cx="46.7%" cy="55.8%" r="60%">
      <stop offset="0%" stop-color="#FFE66D" stop-opacity="1"/>
      <stop offset="50%" stop-color="#FF6B6B" stop-opacity="0.8"/>
      <stop offset="100%" stop-color="#C44D58" stop-opacity="0.6"/>
    </radialGradient>
    <radialGradient id="rgrad2" cx="56.7%" cy="63.8%" r="60%">
      <stop offset="0%" stop-color="#4169E1" stop-opacity="1"/>
      <stop offset="50%" stop-color="#7B68EE" stop-opacity="0.8"/>
      <stop offset="100%" stop-color="#9370DB" stop-opacity="0.6"/>
    </radialGradient>
    <radialGradient id="rgrad3" cx="66.7%" cy="31.8%" r="60%">
      <stop offset="0%" stop-color="#32CD32" stop-opacity="1"/>
      <stop offset="50%" stop-color="#228B22" stop-opacity="0.8"/>
      <stop offset="100%" stop-color="#006400" stop-opacity="0.6"/>
    </radialGradient>
    <radialGradient id="rgrad4" cx="36.7%" cy="39.8%" r="60%">
      <stop offset="0%" stop-color="#FF1493" stop-opacity="1"/>
      <stop offset="50%" stop-color="#FF69B4" stop-opacity="0.8"/>
      <stop offset="100%" stop-color="#FFB6C1" stop-opacity="0.6"/>
    </radialGradient>
    <clipPath id="clipCircle">
      <circle cx="0" cy="0" r="50"/>
    </clipPath>
    <clipPath id="clipStar">
      <path d="M0.0,-50.0 L14.7,-20.2 L47.6,-15.5 L23.8,7.7 L29.4,40.5 L0.0,25.0 L-29.4,40.5 L-23.8,7.7 L-47.6,-15.5 L-14.7,-20.2Z"/>
    </clipPath>
    <clipPath id="clipHex">
      <path d="M39.0,22.5 L0.0,45.0 L-39.0,22.5 L-39.0,-22.5 L-0.0,-45.0 L39.0,-22.5Z"/>
    </clipPath>
    <clipPath id="clipRect">
      <rect x="-40" y="-30" width="80" height="60" rx="10"/>
    </clipPath>
    <clipPath id="clipDynamic">
      <circle cx="0" cy="0" r="49.6"/>
    </clipPath>
    <mask id="maskGradient" maskContentUnits="objectBoundingBox">
      <rect x="0" y="0" width="1" height="1" fill="url(#maskGrad)"/>
    </mask>
    <linearGradient id="maskGrad" x1="0%" y1="0%" x2="100%" y2="100%">
      <stop offset="0%" stop-color="white"/>
      <stop offset="100%" stop-color="black"/>
    </linearGradient>
    <mask id="maskCircleFade">
      <circle cx="0" cy="0" r="60" fill="white"/>
      <circle cx="0" cy="0" r="30" fill="black"/>
    </mask>
    <mask id="maskStripes">
      <rect x="-50" y="-50" width="100" height="100" fill="white"/>
      <rect x="-50" y="-40" width="100" height="10" fill="black"/>
      <rect x="-50" y="-20" width="100" height="10" fill="black"/>
      <rect x="-50" y="0" width="100" height="10" fill="black"/>
      <rect x="-50" y="20" width="100" height="10" fill="black"/>
      <rect x="-50" y="40" width="100" height="10" fill="black"/>
    </mask>
    <mask id="maskDynamic">
      <rect x="-60" y="-60" width="120" height="120" fill="white" fill-opacity="0.85"/>
      <circle cx="0" cy="0" r="25" fill="white"/>
    </mask>
  </defs>
  <rect width="1920" height="1080" fill="url(#lgrad0)"/>
  <g transform="translate(129.1, 94.0)">
      <g transform="translate(4.86,-0.95) rotate(3.93) scale(1.000)">
        <g transform="translate(3.69,-2.06) rotate(8.94) scale(0.980)">
        <g transform="translate(1.62,-2.98) rotate(14.48) scale(0.960)">
        <g transform="translate(-0.84,-3.64) rotate(19.96) scale(0.940)" clip-path="url(#clipCircle)">
        <g transform="translate(-3.10,-3.97) rotate(24.77) scale(0.920)">
        <g transform="translate(-4.60,-3.94) rotate(28.33) scale(0.900)">
        <g transform="translate(-4.98,-3.57) rotate(30.11) scale(0.880)">
        <path d="M0.0,-71.8 L21.1,-29.0 L68.3,-22.2 L34.1,11.1 L42.2,58.1 L0.0,35.9 L-42.2,58.1 L-34.1,11.1 L-68.3,-22.2 L-21.1,-29.0Z" fill="url(#lgrad0)" filter="url(#blur0)" opacity="0.81"/>
      </g>
      </g>
      </g>
      </g>
      </g>
      </g>
      </g>
  </g>
  <g transform="translate(342.1, 79.8)">
      <g transform="translate(1.62,-3.78) rotate(3.93) scale(1.000)">
        <g transform="translate(-0.84,-4.00) rotate(8.94) scale(0.980)">
        <g transform="translate(-3.10,-3.86) rotate(14.48) scale(0.960)">
        <g transform="translate(-4.60,-3.37) rotate(19.96) scale(0.940)">
        <g transform="translate(-4.98,-2.58) rotate(24.77) scale(0.920)">
        <g transform="translate(-4.13,-1.56) rotate(28.33) scale(0.900)" mask="url(#maskCircleFade)">
        <g transform="translate(-2.27,-0.40) rotate(30.11) scale(0.880)">
        <rect x="-37.1" y="-37.1" width="74.2" height="74.2" rx="18.5" fill="url(#rgrad1)" filter="url(#shadow)" opacity="0.87"/>
        <circle cx="0" cy="0" r="24.7" fill="url(#rgrad2)" opacity="0.61"/>
      </g>
      </g>
      </g>
      </g>
      </g>
      </g>
      </g>
  </g>
  <g transform="translate(549.7, 75.1)">
      <g transform="translate(-3.10,-3.14) rotate(3.93) scale(1.000)">
        <g transform="translate(-4.60,-2.26) rotate(8.94) scale(0.980)">
        <g transform="translate(-4.98,-1.19) rotate(14.48) scale(0.960)">
        <g transform="translate(-4.13,-0.00) rotate(19.96) scale(0.940)">
        <g transform="translate(-2.27,1.18) rotate(24.77) scale(0.920)">
        <g transform="translate(0.14,2.26) rotate(28.33) scale(0.900)">
        <g transform="translate(2.52,3.13) rotate(30.11) scale(0.880)">
        <path d="M33.0,19.1 L0.0,38.1 L-33.0,19.1 L-33.0,-19.1 L-0.0,-38.1 L33.0,-19.1Z" fill="url(#rgrad2)" filter="url(#blur2)" opacity="0.90"/>
        <ellipse cx="0" cy="0" rx="15.9" ry="10.6" fill="#FFFFFF" opacity="0.45"/>
      </g>
      </g>
      </g>
      </g>
      </g>
      </g>
      </g>
  </g>
  <g transform="translate(754.9, 82.0)">
      <g transform="translate(-4.98,0.40) rotate(3.93) scale(1.000)">
        <g transform="translate(-4.13,1.55) rotate(8.94) scale(0.980)">
        <g transform="translate(-2.27,2.57) rotate(14.48) scale(0.960)">
        <g transform="translate(0.14,3.36) rotate(19.96) scale(0.940)" clip-path="url(#clipRect)">
        <g transform="translate(2.52,3.85) rotate(24.77) scale(0.920)">
        <g transform="translate(4.28,4.00) rotate(28.33) scale(0.900)">
        <g transform="translate(5.00,3.79) rotate(30.11) scale(0.880)">
        <circle cx="0" cy="0" r="24.8" fill="url(#lgrad3)" filter="url(#shadow)" opacity="0.89"/>
        <text x="0" y="5" text-anchor="middle" font-family="Arial, sans-serif" font-size="14" fill="#FFFFFF" opacity="0.89">289</text>
      </g>
      </g>
      </g>
      </g>
      </g>
      </g>
      </g>
  </g>
  <g transform="translate(961.4, 97.5)">
      <g transform="translate(-2.27,3.56) rotate(3.93) scale(1.000)">
        <g transform="translate(0.14,3.94) rotate(8.94) scale(0.980)">
        <g transform="translate(2.52,3.97) rotate(14.48) scale(0.960)">
        <g transform="translate(4.28,3.64) rotate(19.96) scale(0.940)">
        <g transform="translate(5.00,2.99) rotate(24.77) scale(0.920)">
        <g transform="translate(4.49,2.07) rotate(28.33) scale(0.900)" mask="url(#maskGradient)">
        <g transform="translate(2.88,0.96) rotate(30.11) scale(0.880)">
        <path d="M0.0,-45.3 L13.3,-18.3 L43.1,-14.0 L21.5,7.0 L26.6,36.6 L0.0,22.6 L-26.6,36.6 L-21.5,7.0 L-43.1,-14.0 L-13.3,-18.3Z" fill="url(#rgrad4)" filter="url(#blur4)" opacity="0.84"/>
      </g>
      </g>
      </g>
      </g>
      </g>
      </g>
      </g>
  </g>
  <g transform="translate(1172.4, 114.1)">
      <g transform="translate(2.52,3.45) rotate(3.93) scale(1.000)">
        <g transform="translate(4.28,2.70) rotate(8.94) scale(0.980)">
        <g transform="translate(5.00,1.71) rotate(14.48) scale(0.960)">
        <g transform="translate(4.49,0.57) rotate(19.96) scale(0.940)">
        <g transform="translate(2.88,-0.63) rotate(24.77) scale(0.920)">
        <g transform="translate(0.57,-1.77) rotate(28.33) scale(0.900)">
        <g transform="translate(-1.89,-2.75) rotate(30.11) scale(0.880)">
        <rect x="-27.2" y="-27.2" width="54.5" height="54.5" rx="13.6" fill="url(#rgrad0)" filter="url(#shadow)" opacity="0.77"/>
        <circle cx="0" cy="0" r="18.2" fill="url(#rgrad1)" opacity="0.54"/>
      </g>
      </g>
      </g>
      </g>
      </g>
      </g>
      </g>
  </g>
  <g transform="translate(1390.1, 124.1)">
      <g transform="translate(5.00,0.17) rotate(3.93) scale(1.000)">
        <g transform="translate(4.49,-1.02) rotate(8.94) scale(0.980)">
        <g transform="translate(2.88,-2.12) rotate(14.48) scale(0.960)">
        <g transform="translate(0.57,-3.02) rotate(19.96) scale(0.940)" clip-path="url(#clipStar)">
        <g transform="translate(-1.89,-3.66) rotate(24.77) scale(0.920)">
        <g transform="translate(-3.87,-3.97) rotate(28.33) scale(0.900)">
        <g transform="translate(-4.92,-3.93) rotate(30.11) scale(0.880)">
        <path d="M35.7,20.6 L0.0,41.2 L-35.7,20.6 L-35.7,-20.6 L-0.0,-41.2 L35.7,-20.6Z" fill="url(#lgrad1)" filter="url(#blur1)" opacity="0.67"/>
        <ellipse cx="0" cy="0" rx="17.2" ry="11.5" fill="#FFFFFF" opacity="0.33"/>
      </g>
      </g>
      </g>
      </g>
      </g>
      </g>
      </g>
  </g>
  <g transform="translate(1615.2, 122.7)">
      <g transform="translate(2.88,-3.27) rotate(3.93) scale(1.000)">
        <g transform="translate(0.57,-3.81) rotate(8.94) scale(0.980)">
        <g transform="translate(-1.89,-4.00) rotate(14.48) scale(0.960)">
        <g transform="translate(-3.87,-3.84) rotate(19.96) scale(0.940)">
        <g transform="translate(-4.92,-3.33) rotate(24.77) scale(0.920)">
        <g transform="translate(-4.75,-2.53) rotate(28.33) scale(0.900)" mask="url(#maskDynamic)">
        <g transform="translate(-3.43,-1.50) rotate(30.11) scale(0.880)">
        <circle cx="0" cy="0" r="37.5" fill="url(#rgrad2)" filter="url(#shadow)" opacity="0.55"/>
        <text x="0" y="5" text-anchor="middle" font-family="Arial, sans-serif" font-size="14" fill="#FFFFFF" opacity="0.55">289</text>
      </g>
      </g>
      </g>
      </g>
      </g>
      </g>
      </g>
  </g>
  <g transform="translate(86.4, 390.7)">
      <g transform="translate(-1.89,-3.70) rotate(3.93) scale(1.000)">
        <g transform="translate(-3.87,-3.09) rotate(8.94) scale(0.980)">
        <g transform="translate(-4.92,-2.21) rotate(14.48) scale(0.960)">
        <g transform="translate(-4.75,-1.12) rotate(19.96) scale(0.940)">
        <g transform="translate(-3.43,0.06) rotate(24.77) scale(0.920)">
        <g transform="translate(-1.26,1.24) rotate(28.33) scale(0.900)">
        <g transform="translate(1.21,2.31) rotate(30.11) scale(0.880)">
        <path d="M0.0,-67.4 L19.8,-27.3 L64.1,-20.8 L32.1,10.4 L39.6,54.6 L0.0,33.7 L-39.6,54.6 L-32.1,10.4 L-64.1,-20.8 L-19.8,-27.3Z" fill="url(#rgrad3)" filter="url(#blur3)" opacity="0.43"/>
      </g>
      </g>
      </g>
      </g>
      </g>
      </g>
      </g>
  </g>
  <g transform="translate(320.8, 373.6)">
      <g transform="translate(-4.92,-0.73) rotate(3.93) scale(1.000)">
        <g transform="translate(-4.75,0.46) rotate(8.94) scale(0.980)">
        <g transform="translate(-3.43,1.62) rotate(14.48) scale(0.960)">
        <g transform="translate(-1.26,2.62) rotate(19.96) scale(0.940)" clip-path="url(#clipDynamic)">
        <g transform="translate(1.21,3.40) rotate(24.77) scale(0.920)">
        <g transform="translate(3.39,3.87) rotate(28.33) scale(0.900)">
        <g transform="translate(4.74,4.00) rotate(30.11) scale(0.880)">
        <rect x="-26.5" y="-26.5" width="53.1" height="53.1" rx="13.3" fill="url(#lgrad4)" filter="url(#shadow)" opacity="0.32"/>
        <circle cx="0" cy="0" r="17.7" fill="url(#rgrad0)" opacity="0.22"/>
      </g>
      </g>
      </g>
      </g>
      </g>
      </g>
      </g>
  </g>
  <g transform="translate(555.1, 359.6)">
      <g transform="translate(-3.43,2.91) rotate(3.93) scale(1.000)">
        <g transform="translate(-1.26,3.59) rotate(8.94) scale(0.980)">
        <g transform="translate(1.21,3.95) rotate(14.48) scale(0.960)">
        <g transform="translate(3.39,3.96) rotate(19.96) scale(0.940)">
        <g transform="translate(4.74,3.61) rotate(24.77) scale(0.920)">
        <g transform="translate(4.92,2.94) rotate(28.33) scale(0.900)" mask="url(#maskStripes)">
        <g transform="translate(3.91,2.01) rotate(30.11) scale(0.880)">
        <path d="M23.4,13.5 L0.0,27.0 L-23.4,13.5 L-23.4,-13.5 L-0.0,-27.0 L23.4,-13.5Z" fill="url(#rgrad0)" filter="url(#blur0)" opacity="0.22"/>
        <ellipse cx="0" cy="0" rx="11.3" ry="7.5" fill="#FFFFFF" opacity="0.11"/>
      </g>
      </g>
      </g>
      </g>
      </g>
      </g>
      </g>
  </g>
  <g transform="translate(785.7, 355.1)">
      <g transform="translate(1.21,3.88) rotate(3.93) scale(1.000)">
        <g transform="translate(3.39,3.42) rotate(8.94) scale(0.980)">
        <g transform="translate(4.74,2.65) rotate(14.48) scale(0.960)">
        <g transform="translate(4.92,1.65) rotate(19.96) scale(0.940)">
        <g transform="translate(3.91,0.50) rotate(24.77) scale(0.920)">
        <g transform="translate(1.93,-0.69) rotate(28.33) scale(0.900)">
        <g transform="translate(-0.52,-1.83) rotate(30.11) scale(0.880)">
        <circle cx="0" cy="0" r="25.4" fill="url(#rgrad1)" filter="url(#shadow)" opacity="0.15"/>
        <text x="0" y="5" text-anchor="middle" font-family="Arial, sans-serif" font-size="14" fill="#FFFFFF" opacity="0.15">289</text>
      </g>
      </g>
      </g>
      </g>
      </g>
      </g>
      </g>
  </g>
  <g transform="translate(1010.0, 362.3)">
      <g transform="translate(4.74,1.28) rotate(3.93) scale(1.000)">
        <g transform="translate(4.92,0.10) rotate(8.94) scale(0.980)">
        <g transform="translate(3.91,-1.08) rotate(14.48) scale(0.960)">
        <g transform="translate(1.93,-2.17) rotate(19.96) scale(0.940)" clip-path="url(#clipHex)">
        <g transform="translate(-0.52,-3.07) rotate(24.77) scale(0.920)">
        <g transform="translate(-2.84,-3.69) rotate(28.33) scale(0.900)">
        <g transform="translate(-4.46,-3.98) rotate(30.11) scale(0.880)">
        <path d="M0.0,-65.0 L19.1,-26.3 L61.8,-20.1 L30.9,10.0 L38.2,52.6 L0.0,32.5 L-38.2,52.6 L-30.9,10.0 L-61.8,-20.1 L-19.1,-26.3Z" fill="url(#lgrad2)" filter="url(#blur2)" opacity="0.11"/>
      </g>
      </g>
      </g>
      </g>
      </g>
      </g>
      </g>
  </g>
  <g transform="translate(1226.9, 377.9)">
      <g transform="translate(3.91,-2.50) rotate(3.93) scale(1.000)">
        <g transform="translate(1.93,-3.31) rotate(8.94) scale(0.980)">
        <g transform="translate(-0.52,-3.83) rotate(14.48) scale(0.960)">
        <g transform="translate(-2.84,-4.00) rotate(19.96) scale(0.940)">
        <g transform="translate(-4.46,-3.82) rotate(24.77) scale(0.920)">
        <g transform="translate(-5.00,-3.29) rotate(28.33) scale(0.900)" mask="url(#maskCircleFade)">
        <g transform="translate(-4.31,-2.48) rotate(30.11) scale(0.880)">
        <rect x="-37.3" y="-37.3" width="74.6" height="74.6" rx="18.6" fill="url(#rgrad3)" filter="url(#shadow)" opacity="0.10"/>
        <circle cx="0" cy="0" r="24.9" fill="url(#rgrad4)" opacity="0.07"/>
      </g>
      </g>
      </g>
      </g>
      </g>
      </g>
      </g>
  </g>
  <g transform="translate(1437.3, 394.4)">
      <g transform="translate(-0.52,-3.98) rotate(3.93) scale(1.000)">
        <g transform="translate(-2.84,-3.68) rotate(8.94) scale(0.980)">
        <g transform="translate(-4.46,-3.05) rotate(14.48) scale(0.960)">
        <g transform="translate(-5.00,-2.15) rotate(19.96) scale(0.940)">
        <g transform="translate(-4.31,-1.06) rotate(24.77) scale(0.920)">
        <g transform="translate(-2.56,0.13) rotate(28.33) scale(0.900)">
        <g transform="translate(-0.19,1.31) rotate(30.11) scale(0.880)">
        <path d="M36.8,21.2 L0.0,42.5 L-36.8,21.2 L-36.8,-21.2 L-0.0,-42.5 L36.8,-21.2Z" fill="url(#rgrad4)" filter="url(#blur4)" opacity="0.13"/>
        <ellipse cx="0" cy="0" rx="17.7" ry="11.8" fill="#FFFFFF" opacity="0.07"/>
      </g>
      </g>
      </g>
      </g>
      </g>
      </g>
      </g>
  </g>
  <g transform="translate(1643.4, 404.2)">
      <g transform="translate(-4.46,-1.80) rotate(3.93) scale(1.000)">
        <g transform="translate(-5.00,-0.67) rotate(8.94) scale(0.980)">
        <g transform="translate(-4.31,0.53) rotate(14.48) scale(0.960)">
        <g transform="translate(-2.56,1.68) rotate(19.96) scale(0.940)" clip-path="url(#clipCircle)">
        <g transform="translate(-0.19,2.68) rotate(24.77) scale(0.920)">
        <g transform="translate(2.23,3.43) rotate(28.33) scale(0.900)">
        <g transform="translate(4.10,3.89) rotate(30.11) scale(0.880)">
        <circle cx="0" cy="0" r="28.5" fill="url(#lgrad0)" filter="url(#shadow)" opacity="0.19"/>
        <text x="0" y="5" text-anchor="middle" font-family="Arial, sans-serif" font-size="14" fill="#FFFFFF" opacity="0.19">289</text>
      </g>
      </g>
      </g>
      </g>
      </g>
      </g>
      </g>
  </g>
  <g transform="translate(88.7, 682.6)">
      <g transform="translate(-4.31,2.03) rotate(3.93) scale(1.000)">
        <g transform="translate(-2.56,2.96) rotate(8.94) scale(0.980)">
        <g transform="translate(-0.19,3.62) rotate(14.48) scale(0.960)">
        <g transform="translate(2.23,3.96) rotate(19.96) scale(0.940)">
        <g transform="translate(4.10,3.95) rotate(24.77) scale(0.920)">
        <g transform="translate(4.97,3.58) rotate(28.33) scale(0.900)" mask="url(#maskGradient)">
        <g transform="translate(4.62,2.89) rotate(30.11) scale(0.880)">
        <path d="M0.0,-46.0 L13.5,-18.6 L43.8,-14.2 L21.9,7.1 L27.1,37.2 L0.0,23.0 L-27.1,37.2 L-21.9,7.1 L-43.8,-14.2 L-13.5,-18.6Z" fill="url(#rgrad1)" filter="url(#blur1)" opacity="0.28"/>
      </g>
      </g>
      </g>
      </g>
      </g>
      </g>
      </g>
  </g>
  <g transform="translate(296.8, 670.3)">
      <g transform="translate(-0.19,4.00) rotate(3.93) scale(1.000)">
        <g transform="translate(2.23,3.86) rotate(8.94) scale(0.980)">
        <g transform="translate(4.10,3.39) rotate(14.48) scale(0.960)">
        <g transform="translate(4.97,2.60) rotate(19.96) scale(0.940)">
        <g transform="translate(4.62,1.59) rotate(24.77) scale(0.920)">
        <g transform="translate(3.14,0.44) rotate(28.33) scale(0.900)">
        <g transform="translate(0.89,-0.76) rotate(30.11) scale(0.880)">
        <rect x="-23.9" y="-23.9" width="47.9" height="47.9" rx="12.0" fill="url(#rgrad2)" filter="url(#shadow)" opacity="0.39"/>
        <circle cx="0" cy="0" r="16.0" fill="url(#rgrad3)" opacity="0.27"/>
      </g>
      </g>
      </g>
      </g>
      </g>
      </g>
      </g>
  </g>
  <g transform="translate(510.5, 653.2)">
      <g transform="translate(4.10,2.29) rotate(3.93) scale(1.000)">
        <g transform="translate(4.97,1.22) rotate(8.94) scale(0.980)">
        <g transform="translate(4.62,0.04) rotate(14.48) scale(0.960)">
        <g transform="translate(3.14,-1.15) rotate(19.96) scale(0.940)" clip-path="url(#clipRect)">
        <g transform="translate(0.89,-2.23) rotate(24.77) scale(0.920)">
        <g transform="translate(-1.57,-3.11) rotate(28.33) scale(0.900)">
        <g transform="translate(-3.66,-3.71) rotate(30.11) scale(0.880)">
        <path d="M31.6,18.3 L0.0,36.5 L-31.6,18.3 L-31.6,-18.3 L-0.0,-36.5 L31.6,-18.3Z" fill="url(#lgrad3)" filter="url(#blur3)" opacity="0.51"/>
        <ellipse cx="0" cy="0" rx="15.2" ry="10.1" fill="#FFFFFF" opacity="0.25"/>
      </g>
      </g>
      </g>
      </g>
      </g>
      </g>
      </g>
  </g>
  <g transform="translate(731.5, 639.3)">
      <g transform="translate(4.62,-1.52) rotate(3.93) scale(1.000)">
        <g transform="translate(3.14,-2.55) rotate(8.94) scale(0.980)">
        <g transform="translate(0.89,-3.35) rotate(14.48) scale(0.960)">
        <g transform="translate(-1.57,-3.84) rotate(19.96) scale(0.940)">
        <g transform="translate(-3.66,-4.00) rotate(24.77) scale(0.920)">
        <g transform="translate(-4.84,-3.80) rotate(28.33) scale(0.900)" mask="url(#maskDynamic)">
        <g transform="translate(-4.85,-3.26) rotate(30.11) scale(0.880)">
        <circle cx="0" cy="0" r="36.5" fill="url(#rgrad4)" filter="url(#shadow)" opacity="0.63"/>
        <text x="0" y="5" text-anchor="middle" font-family="Arial, sans-serif" font-size="14" fill="#FFFFFF" opacity="0.63">289</text>
      </g>
      </g>
      </g>
      </g>
      </g>
      </g>
      </g>
  </g>
  <g transform="translate(959.4, 635.1)">
      <g transform="translate(0.89,-3.94) rotate(3.93) scale(1.000)">
        <g transform="translate(-1.57,-3.97) rotate(8.94) scale(0.980)">
        <g transform="translate(-3.66,-3.65) rotate(14.48) scale(0.960)">
        <g transform="translate(-4.84,-3.01) rotate(19.96) scale(0.940)">
        <g transform="translate(-4.85,-2.09) rotate(24.77) scale(0.920)">
        <g transform="translate(-3.66,-0.99) rotate(28.33) scale(0.900)">
        <g transform="translate(-1.58,0.20) rotate(30.11) scale(0.880)">
        <path d="M0.0,-73.3 L21.5,-29.6 L69.7,-22.6 L34.8,11.3 L43.1,59.3 L0.0,36.6 L-43.1,59.3 L-34.8,11.3 L-69.7,-22.6 L-21.5,-29.6Z" fill="url(#rgrad0)" filter="url(#blur0)" opacity="0.73"/>
      </g>
      </g>
      </g>
      </g>
      </g>
      </g>
      </g>
  </g>
  <g transform="translate(1192.4, 642.6)">
      <g transform="translate(-3.66,-2.73) rotate(3.93) scale(1.000)">
        <g transform="translate(-4.84,-1.74) rotate(8.94) scale(0.980)">
        <g transform="translate(-4.85,-0.60) rotate(14.48) scale(0.960)">
        <g transform="translate(-3.66,0.60) rotate(19.96) scale(0.940)" clip-path="url(#clipStar)">
        <g transform="translate(-1.58,1.74) rotate(24.77) scale(0.920)">
        <g transform="translate(0.89,2.72) rotate(28.33) scale(0.900)">
        <g transform="translate(3.14,3.47) rotate(30.11) scale(0.880)">
        <rect x="-30.6" y="-30.6" width="61.3" height="61.3" rx="15.3" fill="url(#lgrad1)" filter="url(#shadow)" opacity="0.82"/>
        <circle cx="0" cy="0" r="20.4" fill="url(#rgrad2)" opacity="0.57"/>
      </g>
      </g>
      </g>
      </g>
      </g>
      </g>
      </g>
  </g>
  <g transform="translate(1427.3, 658.3)">
      <g transform="translate(-4.85,0.99) rotate(3.93) scale(1.000)">
        <g transform="translate(-3.66,2.09) rotate(8.94) scale(0.980)">
        <g transform="translate(-1.58,3.00) rotate(14.48) scale(0.960)">
        <g transform="translate(0.89,3.65) rotate(19.96) scale(0.940)">
        <g transform="translate(3.14,3.97) rotate(24.77) scale(0.920)">
        <g transform="translate(4.62,3.94) rotate(28.33) scale(0.900)" mask="url(#maskStripes)">
        <g transform="translate(4.97,3.55) rotate(30.11) scale(0.880)">
        <path d="M25.0,14.4 L0.0,28.9 L-25.0,14.4 L-25.0,-14.4 L-0.0,-28.9 L25.0,-14.4Z" fill="url(#rgrad2)" filter="url(#blur2)" opacity="0.88"/>
        <ellipse cx="0" cy="0" rx="12.0" ry="8.0" fill="#FFFFFF" opacity="0.44"/>
      </g>
      </g>
      </g>
      </g>
      </g>
      </g>
      </g>
  </g>
  <g transform="translate(1660.3, 674.8)">
      <g transform="translate(-1.58,3.80) rotate(3.93) scale(1.000)">
        <g transform="translate(0.89,4.00) rotate(8.94) scale(0.980)">
        <g transform="translate(3.14,3.85) rotate(14.48) scale(0.960)">
        <g transform="translate(4.62,3.35) rotate(19.96) scale(0.940)">
        <g transform="translate(4.97,2.55) rotate(24.77) scale(0.920)">
        <g transform="translate(4.10,1.53) rotate(28.33) scale(0.900)">
        <g transform="translate(2.23,0.37) rotate(30.11) scale(0.880)">
        <circle cx="0" cy="0" r="22.9" fill="url(#rgrad3)" filter="url(#shadow)" opacity="0.90"/>
        <text x="0" y="5" text-anchor="middle" font-family="Arial, sans-serif" font-size="14" fill="#FFFFFF" opacity="0.90">289</text>
      </g>
      </g>
      </g>
      </g>
      </g>
      </g>
      </g>
  </g>
  <g transform="translate(128.4, 964.3)">
      <g transform="translate(3.14,3.11) rotate(3.93) scale(1.000)">
        <g transform="translate(4.62,2.23) rotate(8.94) scale(0.980)">
        <g transform="translate(4.97,1.15) rotate(14.48) scale(0.960)">
        <g transform="translate(4.10,-0.03) rotate(19.96) scale(0.940)" clip-path="url(#clipDynamic)">
        <g transform="translate(2.23,-1.21) rotate(24.77) scale(0.920)">
        <g transform="translate(-0.19,-2.28) rotate(28.33) scale(0.900)">
        <g transform="translate(-2.56,-3.15) rotate(30.11) scale(0.880)">
        <path d="M0.0,-56.6 L16.6,-22.9 L53.9,-17.5 L26.9,8.7 L33.3,45.8 L0.0,28.3 L-33.3,45.8 L-26.9,8.7 L-53.9,-17.5 L-16.6,-22.9Z" fill="url(#lgrad4)" filter="url(#blur4)" opacity="0.89"/>
      </g>
      </g>
      </g>
      </g>
      </g>
      </g>
      </g>
  </g>
  <g transform="translate(397.1, 280.9)" mask="url(#maskGradient)">
    <ellipse cx="0" cy="0" rx="200" ry="150" fill="url(#rgrad0)" filter="url(#blur3)" opacity="0.3"/>
  </g>
  <g transform="translate(832.4, 235.4)" mask="url(#maskCircleFade)">
    <ellipse cx="0" cy="0" rx="200" ry="150" fill="url(#rgrad1)" filter="url(#blur3)" opacity="0.3"/>
  </g>
  <g transform="translate(1237.9, 220.2)" mask="url(#maskStripes)">
    <ellipse cx="0" cy="0" rx="200" ry="150" fill="url(#rgrad2)" filter="url(#blur3)" opacity="0.3"/>
  </g>
</svg>