<?xml version="1.0" encoding="UTF-8"?>
<svg xmlns="http://www.w3.org/2000/svg" viewBox="0 0 1920 1080" width="1920" height="1080">
  <defs>
    <filter id="blur0" x="-50%" y="-50%" width="200%" height="200%">
      <feGaussianBlur in="SourceGraphic" stdDeviation="1"/>
    </filter>
    <filter id="blur1" x="-50%" y="-50%" width="200%" height="200%">
      <feGaussianBlur in="SourceGraphic" stdDeviation="3"/>
    </filter>
    <filter id="blur2" x="-50%" y="-50%" width="200%" height="200%">
      <feGaussianBlur in="SourceGraphic" stdDeviation="5"/>
    </filter>
    <filter id="blur3" x="-50%" y="-50%" width="200%" height="200%">
      <feGaussianBlur in="SourceGraphic" stdDeviation="7"/>
    </filter>
    <filter id="blur4" x="-50%" y="-50%" width="200%" height="200%">
      <feGaussianBlur in="SourceGraphic" stdDeviation="9"/>
    </filter>
    <filter id="shadow" x="-50%" y="-50%" width="200%" height="200%">
      <feGaussianBlur in="SourceAlpha" stdDeviation="3" result="blur"/>
      <feOffset in="blur" dx="4" dy="4" result="offsetBlur"/>
      <feMerge>
        <feMergeNode in="offsetBlur"/>
        <feMergeNode in="SourceGraphic"/>
      </feMerge>
    </filter>
    <linearGradient id="lgrad0" x1="0%" y1="0%" x2="4.9%" y2="28.5%">
      <stop offset="0%" stop-color="#FF6B6B"/>
      <stop offset="33%" stop-color="#4ECDC4"/>
      <stop offset="66%" stop-color="#45B7D1"/>
      <stop offset="100%" stop-color="#96E6A1"/>
    </linearGradient>
    <linearGradient id="lgrad1" x1="0%" y1="0%" x2="21.7%" y2="8.8%">
      <stop offset="0%" stop-color="#FFE66D"/>
      <stop offset="33%" stop-color="#FF6B6B"/>
      <stop offset="66%" stop-color="#C44D58"/>
      <stop offset="100%" stop-color="#8B0000"/>
    </linearGradient>
    <linearGradient id="lgrad2" x1="0%" y1="0%" x2="46.1%" y2="0.2%">
      <stop offset="0%" stop-color="#4169E1"/>
      <stop offset="33%" stop-color="#7B68EE"/>
      <stop offset="66%" stop-color="#9370DB"/>
      <stop offset="100%" stop-color="#FFD700"/>
    </linearGradient>
    <linearGradient id="lgrad3" x1="0%" y1="0%" x2="71.5%" y2="4.9%">
      <stop offset="0%" stop-color="#32CD32"/>
      <stop offset="33%" stop-color="#228B22"/>
      <stop offset="66%" stop-color="#006400"/>
      <stop offset="100%" stop-color="#ADFF2F"/>
    </linearGradient>
    <linearGradient id="lgrad4" x1="0%" y1="0%" x2="91.2%" y2="21.7%">
      <stop offset="0%" stop-color="#FF1493"/>
      <stop offset="33%" stop-color="#FF69B4"/>
      <stop offset="66%" stop-color="#FFB6C1"/>
      <stop offset="100%" stop-color="#FFC0CB"/>
    </linearGradient>
    <radialGradient id="rgrad0" cx="46.3%" cy="54.2%" r="60%">
      <stop offset="0%" stop-color="#FF6B6B" stop-opacity="1"/>
      <stop offset="50%" stop-color="#4ECDC4" stop-opacity="0.8"/>
      <stop offset="100%" stop-color="#45B7D1" stop-opacity="0.6"/>
    </radialGradient>
    <radialGradient id="rgrad1" cx="56.3%" cy="62.2%" r="60%">
      <stop offset="0%" stop-color="#FFE66D" stop-opacity="1"/>
      <stop offset="50%" stop-color="#FF6B6B" stop-opacity="0.8"/>
      <stop offset="100%" stop-color="#C44D58" stop-opacity="0.6"/>
    </radialGradient>
    <radialGradient id="rgrad2" cx="66.3%" cy="30.2%" r="60%">
      <stop offset="0%" stop-color="#4169E1" stop-opacity="1"/>
      <stop offset="50%" stop-color="#7B68EE" stop-opacity="0.8"/>
      <stop offset="100%" stop-color="#9370DB" stop-opacity="0.6"/>
    </radialGradient>
    <radialGradient id="rgrad3" cx="36.3%" cy="38.2%" r="60%">
      <stop offset="0%" stop-color="#32CD32" stop-opacity="1"/>
      <stop offset="50%" stop-color="#228B22" stop-opacity="0.8"/>
      <stop offset="100%" stop-color="#006400" stop-opacity="0.6"/>
    </radialGradient>
    <radialGradient id="rgrad4" cx="46.3%" cy="46.2%" r="60%">
      <stop offset="0%" stop-color="#FF1493" stop-opacity="1"/>
      <stop offset="50%" stop-color="#FF69B4" stop-opacity="0.8"/>
      <stop offset="100%" stop-color="#FFB6C1" stop-opacity="0.6"/>
    </radialGradient>
    <clipPath id="clipCircle">
      <circle cx="0" cy="0" r="50"/>
    </clipPath>
    <clipPath id="clipStar">
      <path d="M0.0,-50.0 L14.7,-20.2 L47.6,-15.5 L23.8,7.7 L29.4,40.5 L0.0,25.0 L-29.4,40.5 L-23.8,7.7 L-47.6,-15.5 L-14.7,-20.2Z"/>
    </clipPath>
    <clipPath id="clipHex">
      <path d="M39.0,22.5 L0.0,45.0 L-39.0,22.5 L-39.0,-22.5 L-0.0,-45.0 L39.0,-22.5Z"/>
    </clipPath>
    <clipPath id="clipRect">
      <rect x="-40" y="-30" width="80" height="60" rx="10"/>
    </clipPath>
    <clipPath id="clipDynamic">
      <circle cx="0" cy="0" r="48.6"/>
    </clipPath>
    <mask id="maskGradient" maskContentUnits="objectBoundingBox">
      <rect x="0" y="0" width="1" height="1" fill="url(#maskGrad)"/>
    </mask>
    <linearGradient id="maskGrad" x1="0%" y1="0%" x2="100%" y2="100%">
      <stop offset="0%" stop-color="white"/>
      <stop offset="100%" stop-color="black"/>
    </linearGradient>
    <mask id="maskCircleFade">
      <circle cx="0" cy="0" r="60" fill="white"/>
      <circle cx="0" cy="0" r="30" fill="black"/>
    </mask>
    <mask id="maskStripes">
      <rect x="-50" y="-50" width="100" height="100" fill="white"/>
      <rect x="-50" y="-40" width="100" height="10" fill="black"/>
      <rect x="-50" y="-20" width="100" height="10" fill="black"/>
      <rect x="-50" y="0" width="100" height="10" fill="black"/>
      <rect x="-50" y="20" width="100" height="10" fill="black"/>
      <rect x="-50" y="40" width="100" height="10" fill="black"/>
    </mask>
    <mask id="maskDynamic">
      <rect x="-60" y="-60" width="120" height="120" fill="white" fill-opacity="0.89"/>
      <circle cx="0" cy="0" r="25" fill="white"/>
    </mask>
  </defs>
  <rect width="1920" height="1080" fill="url(#lgrad0)"/>
  <g transform="translate(127.1, 89.3)">
      <g transform="translate(4.52,-1.71) rotate(4.22) scale(1.000)">
        <g transform="translate(2.94,-2.70) rotate(9.34) scale(0.980)">
        <g transform="translate(0.64,-3.45) rotate(14.80) scale(0.960)">
        <g transform="translate(-1.81,-3.90) rotate(19.99) scale(0.940)" clip-path="url(#clipCircle)">
        <g transform="translate(-3.82,-3.99) rotate(24.31) scale(0.920)">
        <g transform="translate(-4.90,-3.73) rotate(27.20) scale(0.900)">
        <g transform="translate(-4.78,-3.13) rotate(28.17) scale(0.880)">
        <path d="M0.0,-72.7 L21.4,-29.4 L69.1,-22.5 L34.6,11.2 L42.7,58.8 L0.0,36.3 L-42.7,58.8 L-34.6,11.2 L-69.1,-22.5 L-21.4,-29.4Z" fill="url(#lgrad0)" filter="url(#blur0)" opacity="0.84"/>
      </g>
      </g>
      </g>
      </g>
      </g>
      </g>
      </g>
  </g>
  <g transform="translate(337.6, 77.3)">
      <g transform="translate(0.64,-3.97) rotate(4.22) scale(1.000)">
        <g transform="translate(-1.81,-3.94) rotate(9.34) scale(0.980)">
        <g transform="translate(-3.82,-3.56) rotate(14.80) scale(0.960)">
        <g transform="translate(-4.90,-2.87) rotate(19.99) scale(0.940)">
        <g transform="translate(-4.78,-1.92) rotate(24.31) scale(0.920)">
        <g transform="translate(-3.48,-0.79) rotate(27.20) scale(0.900)" mask="url(#maskCircleFade)">
        <g transform="translate(-1.34,0.40) rotate(28.17) scale(0.880)">
        <rect x="-36.8" y="-36.8" width="73.6" height="73.6" rx="18.4" fill="url(#rgrad1)" filter="url(#shadow)" opacity="0.89"/>
        <circle cx="0" cy="0" r="24.5" fill="url(#rgrad2)" opacity="0.62"/>
      </g>
      </g>
      </g>
      </g>
      </g>
      </g>
      </g>
  </g>
  <g transform="translate(543.9, 75.9)">
      <g transform="translate(-3.82,-2.58) rotate(4.22) scale(1.000)">
        <g transform="translate(-4.90,-1.56) rotate(9.34) scale(0.980)">
        <g transform="translate(-4.78,-0.40) rotate(14.80) scale(0.960)">
        <g transform="translate(-3.48,0.80) rotate(19.99) scale(0.940)">
        <g transform="translate(-1.34,1.92) rotate(24.31) scale(0.920)">
        <g transform="translate(1.14,2.87) rotate(27.20) scale(0.900)">
        <g transform="translate(3.33,3.57) rotate(28.17) scale(0.880)">
        <path d="M32.2,18.6 L0.0,37.2 L-32.2,18.6 L-32.2,-18.6 L-0.0,-37.2 L32.2,-18.6Z" fill="url(#rgrad2)" filter="url(#blur2)" opacity="0.90"/>
        <ellipse cx="0" cy="0" rx="15.5" ry="10.3" fill="#FFFFFF" opacity="0.45"/>
      </g>
      </g>
      </g>
      </g>
      </g>
      </g>
      </g>
  </g>
  <g transform="translate(749.1, 85.9)">
      <g transform="translate(-4.78,1.18) rotate(4.22) scale(1.000)">
        <g transform="translate(-3.48,2.26) rotate(9.34) scale(0.980)">
        <g transform="translate(-1.34,3.13) rotate(14.80) scale(0.960)">
        <g transform="translate(1.14,3.73) rotate(19.99) scale(0.940)" clip-path="url(#clipRect)">
        <g transform="translate(3.33,3.99) rotate(24.31) scale(0.920)">
        <g transform="translate(4.71,3.90) rotate(27.20) scale(0.900)">
        <g transform="translate(4.94,3.45) rotate(28.17) scale(0.880)">
        <circle cx="0" cy="0" r="24.3" fill="url(#lgrad3)" filter="url(#shadow)" opacity="0.88"/>
        <text x="0" y="5" text-anchor="middle" font-family="Arial, sans-serif" font-size="14" fill="#FFFFFF" opacity="0.88">321</text>
      </g>
      </g>
      </g>
      </g>
      </g>
      </g>
      </g>
  </g>
  <g transform="translate(957.1, 102.5)">
      <g transform="translate(-1.34,3.85) rotate(4.22) scale(1.000)">
        <g transform="translate(1.14,4.00) rotate(9.34) scale(0.980)">
        <g transform="translate(3.33,3.78) rotate(14.80) scale(0.960)">
        <g transform="translate(4.71,3.23) rotate(19.99) scale(0.940)">
        <g transform="translate(4.94,2.39) rotate(24.31) scale(0.920)">
        <g transform="translate(3.95,1.34) rotate(27.20) scale(0.900)" mask="url(#maskGradient)">
        <g transform="translate(2.00,0.17) rotate(28.17) scale(0.880)">
        <path d="M0.0,-45.6 L13.4,-18.5 L43.4,-14.1 L21.7,7.1 L26.8,36.9 L0.0,22.8 L-26.8,36.9 L-21.7,7.1 L-43.4,-14.1 L-13.4,-18.5Z" fill="url(#rgrad4)" filter="url(#blur4)" opacity="0.82"/>
      </g>
      </g>
      </g>
      </g>
      </g>
      </g>
      </g>
  </g>
  <g transform="translate(1170.6, 117.9)">
      <g transform="translate(3.33,2.98) rotate(4.22) scale(1.000)">
        <g transform="translate(4.71,2.06) rotate(9.34) scale(0.980)">
        <g transform="translate(4.94,0.96) rotate(14.80) scale(0.960)">
        <g transform="translate(3.95,-0.23) rotate(19.99) scale(0.940)">
        <g transform="translate(2.00,-1.40) rotate(24.31) scale(0.920)">
        <g transform="translate(-0.44,-2.45) rotate(27.20) scale(0.900)">
        <g transform="translate(-2.77,-3.27) rotate(28.17) scale(0.880)">
        <rect x="-27.9" y="-27.9" width="55.9" height="55.9" rx="14.0" fill="url(#rgrad0)" filter="url(#shadow)" opacity="0.74"/>
        <circle cx="0" cy="0" r="18.6" fill="url(#rgrad1)" opacity="0.52"/>
      </g>
      </g>
      </g>
      </g>
      </g>
      </g>
      </g>
  </g>
  <g transform="translate(1391.3, 124.9)">
      <g transform="translate(4.94,-0.63) rotate(4.22) scale(1.000)">
        <g transform="translate(3.95,-1.77) rotate(9.34) scale(0.980)">
        <g transform="translate(2.00,-2.75) rotate(14.80) scale(0.960)">
        <g transform="translate(-0.44,-3.49) rotate(19.99) scale(0.940)" clip-path="url(#clipStar)">
        <g transform="translate(-2.77,-3.91) rotate(24.31) scale(0.920)">
        <g transform="translate(-4.43,-3.98) rotate(27.20) scale(0.900)">
        <g transform="translate(-5.00,-3.70) rotate(28.17) scale(0.880)">
        <path d="M36.3,21.0 L0.0,42.0 L-36.3,21.0 L-36.3,-21.0 L-0.0,-42.0 L36.3,-21.0Z" fill="url(#lgrad1)" filter="url(#blur1)" opacity="0.63"/>
        <ellipse cx="0" cy="0" rx="17.5" ry="11.7" fill="#FFFFFF" opacity="0.32"/>
      </g>
      </g>
      </g>
      </g>
      </g>
      </g>
      </g>
  </g>
  <g transform="translate(1619.1, 120.2)">
      <g transform="translate(2.00,-3.67) rotate(4.22) scale(1.000)">
        <g transform="translate(-0.44,-3.97) rotate(9.34) scale(0.980)">
        <g transform="translate(-2.77,-3.93) rotate(14.80) scale(0.960)">
        <g transform="translate(-4.43,-3.53) rotate(19.99) scale(0.940)">
        <g transform="translate(-5.00,-2.82) rotate(24.31) scale(0.920)">
        <g transform="translate(-4.35,-1.86) rotate(27.20) scale(0.900)" mask="url(#maskDynamic)">
        <g transform="translate(-2.63,-0.73) rotate(28.17) scale(0.880)">
        <circle cx="0" cy="0" r="37.4" fill="url(#rgrad2)" filter="url(#shadow)" opacity="0.51"/>
        <text x="0" y="5" text-anchor="middle" font-family="Arial, sans-serif" font-size="14" fill="#FFFFFF" opacity="0.51">321</text>
      </g>
      </g>
      </g>
      </g>
      </g>
      </g>
      </g>
  </g>
  <g transform="translate(92.0, 386.0)">
      <g transform="translate(-2.77,-3.33) rotate(4.22) scale(1.000)">
        <g transform="translate(-4.43,-2.52) rotate(9.34) scale(0.980)">
        <g transform="translate(-5.00,-1.49) rotate(14.80) scale(0.960)">
        <g transform="translate(-4.35,-0.33) rotate(19.99) scale(0.940)">
        <g transform="translate(-2.63,0.86) rotate(24.31) scale(0.920)">
        <g transform="translate(-0.27,1.98) rotate(27.20) scale(0.900)">
        <g transform="translate(2.16,2.92) rotate(28.17) scale(0.880)">
        <path d="M0.0,-66.1 L19.4,-26.7 L62.9,-20.4 L31.4,10.2 L38.8,53.5 L0.0,33.0 L-38.8,53.5 L-31.4,10.2 L-62.9,-20.4 L-19.4,-26.7Z" fill="url(#rgrad3)" filter="url(#blur3)" opacity="0.40"/>
      </g>
      </g>
      </g>
      </g>
      </g>
      </g>
      </g>
  </g>
  <g transform="translate(326.8, 368.9)">
      <g transform="translate(-5.00,0.07) rotate(4.22) scale(1.000)">
        <g transform="translate(-4.35,1.25) rotate(9.34) scale(0.980)">
        <g transform="translate(-2.63,2.31) rotate(14.80) scale(0.960)">
        <g transform="translate(-0.27,3.18) rotate(19.99) scale(0.940)" clip-path="url(#clipDynamic)">
        <g transform="translate(2.16,3.75) rotate(24.31) scale(0.920)">
        <g transform="translate(4.06,3.99) rotate(27.20) scale(0.900)">
        <g transform="translate(4.96,3.88) rotate(28.17) scale(0.880)">
        <rect x="-25.9" y="-25.9" width="51.8" height="51.8" rx="12.9" fill="url(#lgrad4)" filter="url(#shadow)" opacity="0.29"/>
        <circle cx="0" cy="0" r="17.3" fill="url(#rgrad0)" opacity="0.20"/>
      </g>
      </g>
      </g>
      </g>
      </g>
      </g>
      </g>
  </g>
  <g transform="translate(560.0, 357.1)">
      <g transform="translate(-2.63,3.40) rotate(4.22) scale(1.000)">
        <g transform="translate(-0.27,3.87) rotate(9.34) scale(0.980)">
        <g transform="translate(2.16,4.00) rotate(14.80) scale(0.960)">
        <g transform="translate(4.06,3.76) rotate(19.99) scale(0.940)">
        <g transform="translate(4.96,3.19) rotate(24.31) scale(0.920)">
        <g transform="translate(4.65,2.34) rotate(27.20) scale(0.900)" mask="url(#maskStripes)">
        <g transform="translate(3.20,1.28) rotate(28.17) scale(0.880)">
        <path d="M23.4,13.5 L0.0,27.0 L-23.4,13.5 L-23.4,-13.5 L-0.0,-27.0 L23.4,-13.5Z" fill="url(#rgrad0)" filter="url(#blur0)" opacity="0.20"/>
        <ellipse cx="0" cy="0" rx="11.3" ry="7.5" fill="#FFFFFF" opacity="0.10"/>
      </g>
      </g>
      </g>
      </g>
      </g>
      </g>
      </g>
  </g>
  <g transform="translate(788.3, 356.0)">
      <g transform="translate(2.16,3.61) rotate(4.22) scale(1.000)">
        <g transform="translate(4.06,2.94) rotate(9.34) scale(0.980)">
        <g transform="translate(4.96,2.00) rotate(14.80) scale(0.960)">
        <g transform="translate(4.65,0.89) rotate(19.99) scale(0.940)">
        <g transform="translate(3.20,-0.30) rotate(24.31) scale(0.920)">
        <g transform="translate(0.97,-1.47) rotate(27.20) scale(0.900)">
        <g transform="translate(-1.50,-2.50) rotate(28.17) scale(0.880)">
        <circle cx="0" cy="0" r="26.0" fill="url(#rgrad1)" filter="url(#shadow)" opacity="0.13"/>
        <text x="0" y="5" text-anchor="middle" font-family="Arial, sans-serif" font-size="14" fill="#FFFFFF" opacity="0.13">321</text>
      </g>
      </g>
      </g>
      </g>
      </g>
      </g>
      </g>
  </g>
  <g transform="translate(1009.6, 366.2)">
      <g transform="translate(4.96,0.50) rotate(4.22) scale(1.000)">
        <g transform="translate(4.65,-0.70) rotate(9.34) scale(0.980)">
        <g transform="translate(3.20,-1.83) rotate(14.80) scale(0.960)">
        <g transform="translate(0.97,-2.80) rotate(19.99) scale(0.940)" clip-path="url(#clipHex)">
        <g transform="translate(-1.50,-3.52) rotate(24.31) scale(0.920)">
        <g transform="translate(-3.60,-3.92) rotate(27.20) scale(0.900)">
        <g transform="translate(-4.82,-3.98) rotate(28.17) scale(0.880)">
        <path d="M0.0,-66.4 L19.5,-26.9 L63.1,-20.5 L31.6,10.3 L39.0,53.7 L0.0,33.2 L-39.0,53.7 L-31.6,10.3 L-63.1,-20.5 L-19.5,-26.9Z" fill="url(#lgrad2)" filter="url(#blur2)" opacity="0.10"/>
      </g>
      </g>
      </g>
      </g>
      </g>
      </g>
      </g>
  </g>
  <g transform="translate(1223.7, 382.9)">
      <g transform="translate(3.20,-3.07) rotate(4.22) scale(1.000)">
        <g transform="translate(0.97,-3.69) rotate(9.34) scale(0.980)">
        <g transform="translate(-1.50,-3.98) rotate(14.80) scale(0.960)">
        <g transform="translate(-3.60,-3.92) rotate(19.99) scale(0.940)">
        <g transform="translate(-4.82,-3.50) rotate(24.31) scale(0.920)">
        <g transform="translate(-4.86,-2.77) rotate(27.20) scale(0.900)" mask="url(#maskCircleFade)">
        <g transform="translate(-3.71,-1.80) rotate(28.17) scale(0.880)">
        <rect x="-37.4" y="-37.4" width="74.9" height="74.9" rx="18.7" fill="url(#rgrad3)" filter="url(#shadow)" opacity="0.11"/>
        <circle cx="0" cy="0" r="25.0" fill="url(#rgrad4)" opacity="0.08"/>
      </g>
      </g>
      </g>
      </g>
      </g>
      </g>
      </g>
  </g>
  <g transform="translate(1432.0, 398.2)">
      <g transform="translate(-1.50,-3.82) rotate(4.22) scale(1.000)">
        <g transform="translate(-3.60,-3.29) rotate(9.34) scale(0.980)">
        <g transform="translate(-4.82,-2.47) rotate(14.80) scale(0.960)">
        <g transform="translate(-4.86,-1.43) rotate(19.99) scale(0.940)">
        <g transform="translate(-3.71,-0.26) rotate(24.31) scale(0.920)">
        <g transform="translate(-1.65,0.93) rotate(27.20) scale(0.900)">
        <g transform="translate(0.81,2.04) rotate(28.17) scale(0.880)">
        <path d="M36.2,20.9 L0.0,41.8 L-36.2,20.9 L-36.2,-20.9 L-0.0,-41.8 L36.2,-20.9Z" fill="url(#rgrad4)" filter="url(#blur4)" opacity="0.15"/>
        <ellipse cx="0" cy="0" rx="17.4" ry="11.6" fill="#FFFFFF" opacity="0.07"/>
      </g>
      </g>
      </g>
      </g>
      </g>
      </g>
      </g>
  </g>
  <g transform="translate(1637.4, 405.0)">
      <g transform="translate(-4.82,-1.05) rotate(4.22) scale(1.000)">
        <g transform="translate(-4.86,0.14) rotate(9.34) scale(0.980)">
        <g transform="translate(-3.71,1.31) rotate(14.80) scale(0.960)">
        <g transform="translate(-1.65,2.37) rotate(19.99) scale(0.940)" clip-path="url(#clipCircle)">
        <g transform="translate(0.81,3.22) rotate(24.31) scale(0.920)">
        <g transform="translate(3.08,3.78) rotate(27.20) scale(0.900)">
        <g transform="translate(4.59,4.00) rotate(28.17) scale(0.880)">
        <circle cx="0" cy="0" r="27.8" fill="url(#lgrad0)" filter="url(#shadow)" opacity="0.22"/>
        <text x="0" y="5" text-anchor="middle" font-family="Arial, sans-serif" font-size="14" fill="#FFFFFF" opacity="0.22">321</text>
      </g>
      </g>
      </g>
      </g>
      </g>
      </g>
      </g>
  </g>
  <g transform="translate(83.4, 680.0)">
      <g transform="translate(-3.71,2.68) rotate(4.22) scale(1.000)">
        <g transform="translate(-1.65,3.44) rotate(9.34) scale(0.980)">
        <g transform="translate(0.81,3.89) rotate(14.80) scale(0.960)">
        <g transform="translate(3.08,3.99) rotate(19.99) scale(0.940)">
        <g transform="translate(4.59,3.74) rotate(24.31) scale(0.920)">
        <g transform="translate(4.98,3.15) rotate(27.20) scale(0.900)" mask="url(#maskGradient)">
        <g transform="translate(4.15,2.28) rotate(28.17) scale(0.880)">
        <path d="M0.0,-45.6 L13.4,-18.4 L43.3,-14.1 L21.7,7.0 L26.8,36.9 L0.0,22.8 L-26.8,36.9 L-21.7,7.0 L-43.3,-14.1 L-13.4,-18.4Z" fill="url(#rgrad1)" filter="url(#blur1)" opacity="0.32"/>
      </g>
      </g>
      </g>
      </g>
      </g>
      </g>
      </g>
  </g>
  <g transform="translate(293.4, 665.6)">
      <g transform="translate(0.81,3.95) rotate(4.22) scale(1.000)">
        <g transform="translate(3.08,3.58) rotate(9.34) scale(0.980)">
        <g transform="translate(4.59,2.89) rotate(14.80) scale(0.960)">
        <g transform="translate(4.98,1.94) rotate(19.99) scale(0.940)">
        <g transform="translate(4.15,0.82) rotate(24.31) scale(0.920)">
        <g transform="translate(2.30,-0.37) rotate(27.20) scale(0.900)">
        <g transform="translate(-0.11,-1.53) rotate(28.17) scale(0.880)">
        <rect x="-24.4" y="-24.4" width="48.8" height="48.8" rx="12.2" fill="url(#rgrad2)" filter="url(#shadow)" opacity="0.43"/>
        <circle cx="0" cy="0" r="16.3" fill="url(#rgrad3)" opacity="0.30"/>
      </g>
      </g>
      </g>
      </g>
      </g>
      </g>
      </g>
  </g>
  <g transform="translate(510.0, 648.6)">
      <g transform="translate(4.59,1.59) rotate(4.22) scale(1.000)">
        <g transform="translate(4.98,0.43) rotate(9.34) scale(0.980)">
        <g transform="translate(4.15,-0.76) rotate(14.80) scale(0.960)">
        <g transform="translate(2.30,-1.89) rotate(19.99) scale(0.940)" clip-path="url(#clipRect)">
        <g transform="translate(-0.11,-2.85) rotate(24.31) scale(0.920)">
        <g transform="translate(-2.49,-3.55) rotate(27.20) scale(0.900)">
        <g transform="translate(-4.26,-3.94) rotate(28.17) scale(0.880)">
        <path d="M32.4,18.7 L0.0,37.4 L-32.4,18.7 L-32.4,-18.7 L-0.0,-37.4 L32.4,-18.7Z" fill="url(#lgrad3)" filter="url(#blur3)" opacity="0.55"/>
        <ellipse cx="0" cy="0" rx="15.6" ry="10.4" fill="#FFFFFF" opacity="0.27"/>
      </g>
      </g>
      </g>
      </g>
      </g>
      </g>
      </g>
  </g>
  <g transform="translate(733.9, 636.9)">
      <g transform="translate(4.15,-2.23) rotate(4.22) scale(1.000)">
        <g transform="translate(2.30,-3.11) rotate(9.34) scale(0.980)">
        <g transform="translate(-0.11,-3.72) rotate(14.80) scale(0.960)">
        <g transform="translate(-2.49,-3.99) rotate(19.99) scale(0.940)">
        <g transform="translate(-4.26,-3.90) rotate(24.31) scale(0.920)">
        <g transform="translate(-4.99,-3.47) rotate(27.20) scale(0.900)" mask="url(#maskDynamic)">
        <g transform="translate(-4.50,-2.72) rotate(28.17) scale(0.880)">
        <circle cx="0" cy="0" r="36.9" fill="url(#rgrad4)" filter="url(#shadow)" opacity="0.66"/>
        <text x="0" y="5" text-anchor="middle" font-family="Arial, sans-serif" font-size="14" fill="#FFFFFF" opacity="0.66">321</text>
      </g>
      </g>
      </g>
      </g>
      </g>
      </g>
      </g>
  </g>
  <g transform="translate(964.2, 636.2)">
      <g transform="translate(-0.11,-4.00) rotate(4.22) scale(1.000)">
        <g transform="translate(-2.49,-3.80) rotate(9.34) scale(0.980)">
        <g transform="translate(-4.26,-3.25) rotate(14.80) scale(0.960)">
        <g transform="translate(-4.99,-2.42) rotate(19.99) scale(0.940)">
        <g transform="translate(-4.50,-1.37) rotate(24.31) scale(0.920)">
        <g transform="translate(-2.91,-0.20) rotate(27.20) scale(0.900)">
        <g transform="translate(-0.60,0.99) rotate(28.17) scale(0.880)">
        <path d="M0.0,-72.5 L21.3,-29.3 L68.9,-22.4 L34.5,11.2 L42.6,58.7 L0.0,36.2 L-42.6,58.7 L-34.5,11.2 L-68.9,-22.4 L-21.3,-29.3Z" fill="url(#rgrad0)" filter="url(#blur0)" opacity="0.76"/>
      </g>
      </g>
      </g>
      </g>
      </g>
      </g>
      </g>
  </g>
  <g transform="translate(1198.4, 646.6)">
      <g transform="translate(-4.26,-2.09) rotate(4.22) scale(1.000)">
        <g transform="translate(-4.99,-0.99) rotate(9.34) scale(0.980)">
        <g transform="translate(-4.50,0.20) rotate(14.80) scale(0.960)">
        <g transform="translate(-2.91,1.37) rotate(19.99) scale(0.940)" clip-path="url(#clipStar)">
        <g transform="translate(-0.60,2.42) rotate(24.31) scale(0.920)">
        <g transform="translate(1.85,3.26) rotate(27.20) scale(0.900)">
        <g transform="translate(3.85,3.80) rotate(28.17) scale(0.880)">
        <rect x="-29.9" y="-29.9" width="59.8" height="59.8" rx="14.9" fill="url(#lgrad1)" filter="url(#shadow)" opacity="0.84"/>
        <circle cx="0" cy="0" r="19.9" fill="url(#rgrad2)" opacity="0.59"/>
      </g>
      </g>
      </g>
      </g>
      </g>
      </g>
      </g>
  </g>
  <g transform="translate(1432.9, 663.3)">
      <g transform="translate(-4.50,1.74) rotate(4.22) scale(1.000)">
        <g transform="translate(-2.91,2.73) rotate(9.34) scale(0.980)">
        <g transform="translate(-0.60,3.47) rotate(14.80) scale(0.960)">
        <g transform="translate(1.85,3.90) rotate(19.99) scale(0.940)">
        <g transform="translate(3.85,3.99) rotate(24.31) scale(0.920)">
        <g transform="translate(4.91,3.71) rotate(27.20) scale(0.900)" mask="url(#maskStripes)">
        <g transform="translate(4.76,3.11) rotate(28.17) scale(0.880)">
        <path d="M24.6,14.2 L0.0,28.4 L-24.6,14.2 L-24.6,-14.2 L-0.0,-28.4 L24.6,-14.2Z" fill="url(#rgrad2)" filter="url(#blur2)" opacity="0.89"/>
        <ellipse cx="0" cy="0" rx="11.8" ry="7.9" fill="#FFFFFF" opacity="0.44"/>
      </g>
      </g>
      </g>
      </g>
      </g>
      </g>
      </g>
  </g>
  <g transform="translate(1664.3, 678.5)">
      <g transform="translate(-0.60,3.97) rotate(4.22) scale(1.000)">
        <g transform="translate(1.85,3.94) rotate(9.34) scale(0.980)">
        <g transform="translate(3.85,3.55) rotate(14.80) scale(0.960)">
        <g transform="translate(4.91,2.84) rotate(19.99) scale(0.940)">
        <g transform="translate(4.76,1.89) rotate(24.31) scale(0.920)">
        <g transform="translate(3.45,0.76) rotate(27.20) scale(0.900)">
        <g transform="translate(1.29,-0.44) rotate(28.17) scale(0.880)">
        <circle cx="0" cy="0" r="23.2" fill="url(#rgrad3)" filter="url(#shadow)" opacity="0.90"/>
        <text x="0" y="5" text-anchor="middle" font-family="Arial, sans-serif" font-size="14" fill="#FFFFFF" opacity="0.90">321</text>
      </g>
      </g>
      </g>
      </g>
      </g>
      </g>
      </g>
  </g>
  <g transform="translate(129.8, 965.0)">
      <g transform="translate(3.85,2.55) rotate(4.22) scale(1.000)">
        <g transform="translate(4.91,1.52) rotate(9.34) scale(0.980)">
        <g transform="translate(4.76,0.36) rotate(14.80) scale(0.960)">
        <g transform="translate(3.45,-0.83) rotate(19.99) scale(0.940)" clip-path="url(#clipDynamic)">
        <g transform="translate(1.29,-1.95) rotate(24.31) scale(0.920)">
        <g transform="translate(-1.18,-2.89) rotate(27.20) scale(0.900)">
        <g transform="translate(-3.37,-3.58) rotate(28.17) scale(0.880)">
        <path d="M0.0,-58.1 L17.1,-23.5 L55.3,-18.0 L27.6,9.0 L34.2,47.0 L0.0,29.1 L-34.2,47.0 L-27.6,9.0 L-55.3,-18.0 L-17.1,-23.5Z" fill="url(#lgrad4)" filter="url(#blur4)" opacity="0.88"/>
      </g>
      </g>
      </g>
      </g>
      </g>
      </g>
      </g>
  </g>
  <g transform="translate(390.4, 265.8)" mask="url(#maskGradient)">
    <ellipse cx="0" cy="0" rx="200" ry="150" fill="url(#rgrad0)" filter="url(#blur3)" opacity="0.3"/>
  </g>
  <g transform="translate(812.9, 227.2)" mask="url(#maskCircleFade)">
    <ellipse cx="0" cy="0" rx="200" ry="150" fill="url(#rgrad1)" filter="url(#blur3)" opacity="0.3"/>
  </g>
  <g transform="translate(1223.5, 222.9)" mask="url(#maskStripes)">
    <ellipse cx="0" cy="0" rx="200" ry="150" fill="url(#rgrad2)" filter="url(#blur3)" opacity="0.3"/>
  </g>
</svg>