<?xml version="1.0" encoding="UTF-8"?>
<svg xmlns="http://www.w3.org/2000/svg" viewBox="0 0 1920 1080" width="1920" height="1080">
  <defs>
    <filter id="blur0" x="-50%" y="-50%" width="200%" height="200%">
      <feGaussianBlur in="SourceGraphic" stdDeviation="1"/>
    </filter>
    <filter id="blur1" x="-50%" y="-50%" width="200%" height="200%">
      <feGaussianBlur in="SourceGraphic" stdDeviation="3"/>
    </filter>
    <filter id="blur2" x="-50%" y="-50%" width="200%" height="200%">
      <feGaussianBlur in="SourceGraphic" stdDeviation="5"/>
    </filter>
    <filter id="blur3" x="-50%" y="-50%" width="200%" height="200%">
      <feGaussianBlur in="SourceGraphic" stdDeviation="7"/>
    </filter>
    <filter id="blur4" x="-50%" y="-50%" width="200%" height="200%">
      <feGaussianBlur in="SourceGraphic" stdDeviation="9"/>
    </filter>
    <filter id="shadow" x="-50%" y="-50%" width="200%" height="200%">
      <feGaussianBlur in="SourceAlpha" stdDeviation="3" result="blur"/>
      <feOffset in="blur" dx="4" dy="4" result="offsetBlur"/>
      <feMerge>
        <feMergeNode in="offsetBlur"/>
        <feMergeNode in="SourceGraphic"/>
      </feMerge>
    </filter>
    <linearGradient id="lgrad0" x1="0%" y1="0%" x2="83.1%" y2="87.4%">
      <stop offset="0%" stop-color="#FF6B6B"/>
      <stop offset="33%" stop-color="#4ECDC4"/>
      <stop offset="66%" stop-color="#45B7D1"/>
      <stop offset="100%" stop-color="#96E6A1"/>
    </linearGradient>
    <linearGradient id="lgrad1" x1="0%" y1="0%" x2="60.0%" y2="99.0%">
      <stop offset="0%" stop-color="#FFE66D"/>
      <stop offset="33%" stop-color="#FF6B6B"/>
      <stop offset="66%" stop-color="#C44D58"/>
      <stop offset="100%" stop-color="#8B0000"/>
    </linearGradient>
    <linearGradient id="lgrad2" x1="0%" y1="0%" x2="34.1%" y2="97.4%">
      <stop offset="0%" stop-color="#4169E1"/>
      <stop offset="33%" stop-color="#7B68EE"/>
      <stop offset="66%" stop-color="#9370DB"/>
      <stop offset="100%" stop-color="#FFD700"/>
    </linearGradient>
    <linearGradient id="lgrad3" x1="0%" y1="0%" x2="12.6%" y2="83.1%">
      <stop offset="0%" stop-color="#32CD32"/>
      <stop offset="33%" stop-color="#228B22"/>
      <stop offset="66%" stop-color="#006400"/>
      <stop offset="100%" stop-color="#ADFF2F"/>
    </linearGradient>
    <linearGradient id="lgrad4" x1="0%" y1="0%" x2="1.0%" y2="60.0%">
      <stop offset="0%" stop-color="#FF1493"/>
      <stop offset="33%" stop-color="#FF69B4"/>
      <stop offset="66%" stop-color="#FFB6C1"/>
      <stop offset="100%" stop-color="#FFC0CB"/>
    </linearGradient>
    <radialGradient id="rgrad0" cx="48.1%" cy="55.4%" r="60%">
      <stop offset="0%" stop-color="#FF6B6B" stop-opacity="1"/>
      <stop offset="50%" stop-color="#4ECDC4" stop-opacity="0.8"/>
      <stop offset="100%" stop-color="#45B7D1" stop-opacity="0.6"/>
    </radialGradient>
    <radialGradient id="rgrad1" cx="58.1%" cy="63.4%" r="60%">
      <stop offset="0%" stop-color="#FFE66D" stop-opacity="1"/>
      <stop offset="50%" stop-color="#FF6B6B" stop-opacity="0.8"/>
      <stop offset="100%" stop-color="#C44D58" stop-opacity="0.6"/>
    </radialGradient>
    <radialGradient id="rgrad2" cx="68.1%" cy="31.4%" r="60%">
      <stop offset="0%" stop-color="#4169E1" stop-opacity="1"/>
      <stop offset="50%" stop-color="#7B68EE" stop-opacity="0.8"/>
      <stop offset="100%" stop-color="#9370DB" stop-opacity="0.6"/>
    </radialGradient>
    <radialGradient id="rgrad3" cx="38.1%" cy="39.4%" r="60%">
      <stop offset="0%" stop-color="#32CD32" stop-opacity="1"/>
      <stop offset="50%" stop-color="#228B22" stop-opacity="0.8"/>
      <stop offset="100%" stop-color="#006400" stop-opacity="0.6"/>
    </radialGradient>
    <radialGradient id="rgrad4" cx="48.1%" cy="47.4%" r="60%">
      <stop offset="0%" stop-color="#FF1493" stop-opacity="1"/>
      <stop offset="50%" stop-color="#FF69B4" stop-opacity="0.8"/>
      <stop offset="100%" stop-color="#FFB6C1" stop-opacity="0.6"/>
    </radialGradient>
    <clipPath id="clipCircle">
      <circle cx="0" cy="0" r="50"/>
    </clipPath>
    <clipPath id="clipStar">
      <path d="M0.0,-50.0 L14.7,-20.2 L47.6,-15.5 L23.8,7.7 L29.4,40.5 L0.0,25.0 L-29.4,40.5 L-23.8,7.7 L-47.6,-15.5 L-14.7,-20.2Z"/>
    </clipPath>
    <clipPath id="clipHex">
      <path d="M39.0,22.5 L0.0,45.0 L-39.0,22.5 L-39.0,-22.5 L-0.0,-45.0 L39.0,-22.5Z"/>
    </clipPath>
    <clipPath id="clipRect">
      <rect x="-40" y="-30" width="80" height="60" rx="10"/>
    </clipPath>
    <clipPath id="clipDynamic">
      <circle cx="0" cy="0" r="20.2"/>
    </clipPath>
    <mask id="maskGradient" maskContentUnits="objectBoundingBox">
      <rect x="0" y="0" width="1" height="1" fill="url(#maskGrad)"/>
    </mask>
    <linearGradient id="maskGrad" x1="0%" y1="0%" x2="100%" y2="100%">
      <stop offset="0%" stop-color="white"/>
      <stop offset="100%" stop-color="black"/>
    </linearGradient>
    <mask id="maskCircleFade">
      <circle cx="0" cy="0" r="60" fill="white"/>
      <circle cx="0" cy="0" r="30" fill="black"/>
    </mask>
    <mask id="maskStripes">
      <rect x="-50" y="-50" width="100" height="100" fill="white"/>
      <rect x="-50" y="-40" width="100" height="10" fill="black"/>
      <rect x="-50" y="-20" width="100" height="10" fill="black"/>
      <rect x="-50" y="0" width="100" height="10" fill="black"/>
      <rect x="-50" y="20" width="100" height="10" fill="black"/>
      <rect x="-50" y="40" width="100" height="10" fill="black"/>
    </mask>
    <mask id="maskDynamic">
      <rect x="-60" y="-60" width="120" height="120" fill="white" fill-opacity="0.83"/>
      <circle cx="0" cy="0" r="25" fill="white"/>
    </mask>
  </defs>
  <rect width="1920" height="1080" fill="url(#lgrad0)"/>
  <g transform="translate(70.3, 96.4)">
      <g transform="translate(-4.95,-0.58) rotate(3.78) scale(1.000)">
        <g transform="translate(-4.69,0.61) rotate(6.12) scale(0.980)">
        <g transform="translate(-3.29,1.75) rotate(6.64) scale(0.960)">
        <g transform="translate(-1.08,2.74) rotate(5.11) scale(0.940)" clip-path="url(#clipCircle)">
        <g transform="translate(1.40,3.48) rotate(1.46) scale(0.920)">
        <g transform="translate(3.53,3.91) rotate(-4.23) scale(0.900)">
        <g transform="translate(4.79,3.99) rotate(-11.72) scale(0.880)">
        <path d="M0.0,-71.4 L21.0,-28.9 L67.9,-22.0 L33.9,11.0 L41.9,57.7 L0.0,35.7 L-41.9,57.7 L-33.9,11.0 L-67.9,-22.0 L-21.0,-28.9Z" fill="url(#lgrad0)" filter="url(#blur0)" opacity="0.80"/>
      </g>
      </g>
      </g>
      </g>
      </g>
      </g>
      </g>
  </g>
  <g transform="translate(291.9, 113.1)">
      <g transform="translate(-3.29,3.02) rotate(3.78) scale(1.000)">
        <g transform="translate(-1.08,3.66) rotate(6.12) scale(0.980)">
        <g transform="translate(1.40,3.97) rotate(6.64) scale(0.960)">
        <g transform="translate(3.53,3.93) rotate(5.11) scale(0.940)">
        <g transform="translate(4.79,3.54) rotate(1.46) scale(0.920)">
        <g transform="translate(4.89,2.84) rotate(-4.23) scale(0.900)" mask="url(#maskCircleFade)">
        <g transform="translate(3.78,1.87) rotate(-11.72) scale(0.880)">
        <rect x="-28.9" y="-28.9" width="57.9" height="57.9" rx="14.5" fill="url(#rgrad1)" filter="url(#shadow)" opacity="0.71"/>
        <circle cx="0" cy="0" r="19.3" fill="url(#rgrad2)" opacity="0.50"/>
      </g>
      </g>
      </g>
      </g>
      </g>
      </g>
      </g>
  </g>
  <g transform="translate(520.3, 123.8)">
      <g transform="translate(1.40,3.84) rotate(3.78) scale(1.000)">
        <g transform="translate(3.53,3.34) rotate(6.12) scale(0.980)">
        <g transform="translate(4.79,2.54) rotate(6.64) scale(0.960)">
        <g transform="translate(4.89,1.51) rotate(5.11) scale(0.940)">
        <g transform="translate(3.78,0.35) rotate(1.46) scale(0.920)">
        <g transform="translate(1.75,-0.84) rotate(-4.23) scale(0.900)">
        <g transform="translate(-0.70,-1.96) rotate(-11.72) scale(0.880)">
        <path d="M24.1,13.9 L0.0,27.8 L-24.1,13.9 L-24.1,-13.9 L-0.0,-27.8 L24.1,-13.9Z" fill="url(#rgrad2)" filter="url(#blur2)" opacity="0.60"/>
        <ellipse cx="0" cy="0" rx="11.6" ry="7.7" fill="#FFFFFF" opacity="0.30"/>
      </g>
      </g>
      </g>
      </g>
      </g>
      </g>
      </g>
  </g>
  <g transform="translate(753.5, 123.2)">
      <g transform="translate(4.79,1.14) rotate(3.78) scale(1.000)">
        <g transform="translate(4.89,-0.05) rotate(6.12) scale(0.980)">
        <g transform="translate(3.78,-1.23) rotate(6.64) scale(0.960)">
        <g transform="translate(1.75,-2.30) rotate(5.11) scale(0.940)" clip-path="url(#clipRect)">
        <g transform="translate(-0.70,-3.16) rotate(1.46) scale(0.920)">
        <g transform="translate(-2.99,-3.75) rotate(-4.23) scale(0.900)">
        <g transform="translate(-4.55,-3.99) rotate(-11.72) scale(0.880)">
        <circle cx="0" cy="0" r="23.7" fill="url(#lgrad3)" filter="url(#shadow)" opacity="0.48"/>
        <text x="0" y="5" text-anchor="middle" font-family="Arial, sans-serif" font-size="14" fill="#FFFFFF" opacity="0.48">727</text>
      </g>
      </g>
      </g>
      </g>
      </g>
      </g>
      </g>
  </g>
  <g transform="translate(988.4, 111.7)">
      <g transform="translate(3.78,-2.61) rotate(3.78) scale(1.000)">
        <g transform="translate(1.75,-3.39) rotate(6.12) scale(0.980)">
        <g transform="translate(-0.70,-3.87) rotate(6.64) scale(0.960)">
        <g transform="translate(-2.99,-4.00) rotate(5.11) scale(0.940)">
        <g transform="translate(-4.55,-3.77) rotate(1.46) scale(0.920)">
        <g transform="translate(-4.99,-3.21) rotate(-4.23) scale(0.900)" mask="url(#maskGradient)">
        <g transform="translate(-4.21,-2.35) rotate(-11.72) scale(0.880)">
        <path d="M0.0,-60.0 L17.6,-24.3 L57.1,-18.5 L28.5,9.3 L35.3,48.5 L0.0,30.0 L-35.3,48.5 L-28.5,9.3 L-57.1,-18.5 L-17.6,-24.3Z" fill="url(#rgrad4)" filter="url(#blur4)" opacity="0.37"/>
      </g>
      </g>
      </g>
      </g>
      </g>
      </g>
      </g>
  </g>
  <g transform="translate(1221.2, 94.7)">
      <g transform="translate(-0.70,-3.96) rotate(3.78) scale(1.000)">
        <g transform="translate(-2.99,-3.62) rotate(6.12) scale(0.980)">
        <g transform="translate(-4.55,-2.95) rotate(6.64) scale(0.960)">
        <g transform="translate(-4.99,-2.02) rotate(5.11) scale(0.940)">
        <g transform="translate(-4.21,-0.91) rotate(1.46) scale(0.920)">
        <g transform="translate(-2.40,0.28) rotate(-4.23) scale(0.900)">
        <g transform="translate(-0.00,1.45) rotate(-11.72) scale(0.880)">
        <rect x="-36.3" y="-36.3" width="72.6" height="72.6" rx="18.2" fill="url(#rgrad0)" filter="url(#shadow)" opacity="0.26"/>
        <circle cx="0" cy="0" r="24.2" fill="url(#rgrad1)" opacity="0.18"/>
      </g>
      </g>
      </g>
      </g>
      </g>
      </g>
      </g>
  </g>
  <g transform="translate(1448.8, 80.2)">
      <g transform="translate(-4.55,-1.67) rotate(3.78) scale(1.000)">
        <g transform="translate(-4.99,-0.52) rotate(6.12) scale(0.980)">
        <g transform="translate(-4.21,0.68) rotate(6.64) scale(0.960)">
        <g transform="translate(-2.40,1.81) rotate(5.11) scale(0.940)" clip-path="url(#clipStar)">
        <g transform="translate(-0.00,2.79) rotate(1.46) scale(0.920)">
        <g transform="translate(2.40,3.51) rotate(-4.23) scale(0.900)">
        <g transform="translate(4.21,3.92) rotate(-11.72) scale(0.880)">
        <path d="M38.3,22.1 L0.0,44.2 L-38.3,22.1 L-38.3,-22.1 L-0.0,-44.2 L38.3,-22.1Z" fill="url(#lgrad1)" filter="url(#blur1)" opacity="0.18"/>
        <ellipse cx="0" cy="0" rx="18.4" ry="12.3" fill="#FFFFFF" opacity="0.09"/>
      </g>
      </g>
      </g>
      </g>
      </g>
      </g>
      </g>
  </g>
  <g transform="translate(1669.3, 75.0)">
      <g transform="translate(-4.21,2.16) rotate(3.78) scale(1.000)">
        <g transform="translate(-2.40,3.06) rotate(6.12) scale(0.980)">
        <g transform="translate(-0.00,3.68) rotate(6.64) scale(0.960)">
        <g transform="translate(2.40,3.98) rotate(5.11) scale(0.940)">
        <g transform="translate(4.21,3.92) rotate(1.46) scale(0.920)">
        <g transform="translate(4.99,3.51) rotate(-4.23) scale(0.900)" mask="url(#maskDynamic)">
        <g transform="translate(4.55,2.79) rotate(-11.72) scale(0.880)">
        <circle cx="0" cy="0" r="31.1" fill="url(#rgrad2)" filter="url(#shadow)" opacity="0.12"/>
        <text x="0" y="5" text-anchor="middle" font-family="Arial, sans-serif" font-size="14" fill="#FFFFFF" opacity="0.12">727</text>
      </g>
      </g>
      </g>
      </g>
      </g>
      </g>
      </g>
  </g>
  <g transform="translate(122.7, 361.6)">
      <g transform="translate(-0.00,4.00) rotate(3.78) scale(1.000)">
        <g transform="translate(2.40,3.82) rotate(6.12) scale(0.980)">
        <g transform="translate(4.21,3.30) rotate(6.64) scale(0.960)">
        <g transform="translate(4.99,2.49) rotate(5.11) scale(0.940)">
        <g transform="translate(4.55,1.45) rotate(1.46) scale(0.920)">
        <g transform="translate(2.99,0.28) rotate(-4.23) scale(0.900)">
        <g transform="translate(0.71,-0.91) rotate(-11.72) scale(0.880)">
        <path d="M0.0,-48.6 L14.3,-19.7 L46.3,-15.0 L23.1,7.5 L28.6,39.4 L0.0,24.3 L-28.6,39.4 L-23.1,7.5 L-46.3,-15.0 L-14.3,-19.7Z" fill="url(#rgrad3)" filter="url(#blur3)" opacity="0.10"/>
      </g>
      </g>
      </g>
      </g>
      </g>
      </g>
      </g>
  </g>
  <g transform="translate(330.5, 376.8)">
      <g transform="translate(4.21,2.16) rotate(3.78) scale(1.000)">
        <g transform="translate(4.99,1.07) rotate(6.12) scale(0.980)">
        <g transform="translate(4.55,-0.12) rotate(6.64) scale(0.960)">
        <g transform="translate(2.99,-1.29) rotate(5.11) scale(0.940)" clip-path="url(#clipDynamic)">
        <g transform="translate(0.71,-2.35) rotate(1.46) scale(0.920)">
        <g transform="translate(-1.75,-3.20) rotate(-4.23) scale(0.900)">
        <g transform="translate(-3.78,-3.77) rotate(-11.72) scale(0.880)">
        <rect x="-22.8" y="-22.8" width="45.6" height="45.6" rx="11.4" fill="url(#lgrad4)" filter="url(#shadow)" opacity="0.11"/>
        <circle cx="0" cy="0" r="15.2" fill="url(#rgrad0)" opacity="0.08"/>
      </g>
      </g>
      </g>
      </g>
      </g>
      </g>
      </g>
  </g>
  <g transform="translate(535.8, 393.5)">
      <g transform="translate(4.55,-1.66) rotate(3.78) scale(1.000)">
        <g transform="translate(2.99,-2.66) rotate(6.12) scale(0.980)">
        <g transform="translate(0.71,-3.43) rotate(6.64) scale(0.960)">
        <g transform="translate(-1.75,-3.88) rotate(5.11) scale(0.940)">
        <g transform="translate(-3.78,-3.99) rotate(1.46) scale(0.920)">
        <g transform="translate(-4.89,-3.75) rotate(-4.23) scale(0.900)" mask="url(#maskStripes)">
        <g transform="translate(-4.79,-3.16) rotate(-11.72) scale(0.880)">
        <path d="M29.0,16.7 L0.0,33.5 L-29.0,16.7 L-29.0,-16.7 L-0.0,-33.5 L29.0,-16.7Z" fill="url(#rgrad0)" filter="url(#blur0)" opacity="0.16"/>
        <ellipse cx="0" cy="0" rx="14.0" ry="9.3" fill="#FFFFFF" opacity="0.08"/>
      </g>
      </g>
      </g>
      </g>
      </g>
      </g>
      </g>
  </g>
  <g transform="translate(742.1, 403.9)">
      <g transform="translate(0.71,-3.96) rotate(3.78) scale(1.000)">
        <g transform="translate(-1.75,-3.95) rotate(6.12) scale(0.980)">
        <g transform="translate(-3.78,-3.59) rotate(6.64) scale(0.960)">
        <g transform="translate(-4.89,-2.90) rotate(5.11) scale(0.940)">
        <g transform="translate(-4.79,-1.96) rotate(1.46) scale(0.920)">
        <g transform="translate(-3.53,-0.84) rotate(-4.23) scale(0.900)">
        <g transform="translate(-1.40,0.35) rotate(-11.72) scale(0.880)">
        <circle cx="0" cy="0" r="34.9" fill="url(#rgrad1)" filter="url(#shadow)" opacity="0.24"/>
        <text x="0" y="5" text-anchor="middle" font-family="Arial, sans-serif" font-size="14" fill="#FFFFFF" opacity="0.24">727</text>
      </g>
      </g>
      </g>
      </g>
      </g>
      </g>
      </g>
  </g>
  <g transform="translate(952.7, 403.0)">
      <g transform="translate(-3.78,-2.62) rotate(3.78) scale(1.000)">
        <g transform="translate(-4.89,-1.60) rotate(6.12) scale(0.980)">
        <g transform="translate(-4.79,-0.45) rotate(6.64) scale(0.960)">
        <g transform="translate(-3.53,0.75) rotate(5.11) scale(0.940)" clip-path="url(#clipHex)">
        <g transform="translate(-1.40,1.87) rotate(1.46) scale(0.920)">
        <g transform="translate(1.07,2.83) rotate(-4.23) scale(0.900)">
        <g transform="translate(3.28,3.54) rotate(-11.72) scale(0.880)">
        <path d="M0.0,-74.8 L22.0,-30.3 L71.2,-23.1 L35.6,11.6 L44.0,60.5 L0.0,37.4 L-44.0,60.5 L-35.6,11.6 L-71.2,-23.1 L-22.0,-30.3Z" fill="url(#lgrad2)" filter="url(#blur2)" opacity="0.34"/>
      </g>
      </g>
      </g>
      </g>
      </g>
      </g>
      </g>
  </g>
  <g transform="translate(1170.1, 391.3)">
      <g transform="translate(-4.79,1.13) rotate(3.78) scale(1.000)">
        <g transform="translate(-3.53,2.22) rotate(6.12) scale(0.980)">
        <g transform="translate(-1.40,3.10) rotate(6.64) scale(0.960)">
        <g transform="translate(1.07,3.71) rotate(5.11) scale(0.940)">
        <g transform="translate(3.28,3.99) rotate(1.46) scale(0.920)">
        <g transform="translate(4.69,3.91) rotate(-4.23) scale(0.900)" mask="url(#maskCircleFade)">
        <g transform="translate(4.95,3.48) rotate(-11.72) scale(0.880)">
        <rect x="-33.1" y="-33.1" width="66.2" height="66.2" rx="16.5" fill="url(#rgrad3)" filter="url(#shadow)" opacity="0.46"/>
        <circle cx="0" cy="0" r="22.1" fill="url(#rgrad4)" opacity="0.32"/>
      </g>
      </g>
      </g>
      </g>
      </g>
      </g>
      </g>
  </g>
  <g transform="translate(1394.8, 374.3)">
      <g transform="translate(-1.40,3.84) rotate(3.78) scale(1.000)">
        <g transform="translate(1.07,4.00) rotate(6.12) scale(0.980)">
        <g transform="translate(3.28,3.80) rotate(6.64) scale(0.960)">
        <g transform="translate(4.69,3.26) rotate(5.11) scale(0.940)">
        <g transform="translate(4.95,2.43) rotate(1.46) scale(0.920)">
        <g transform="translate(3.99,1.39) rotate(-4.23) scale(0.900)">
        <g transform="translate(2.06,0.22) rotate(-11.72) scale(0.880)">
        <path d="M26.9,15.6 L0.0,31.1 L-26.9,15.6 L-26.9,-15.6 L-0.0,-31.1 L26.9,-15.6Z" fill="url(#rgrad4)" filter="url(#blur4)" opacity="0.58"/>
        <ellipse cx="0" cy="0" rx="13.0" ry="8.6" fill="#FFFFFF" opacity="0.29"/>
      </g>
      </g>
      </g>
      </g>
      </g>
      </g>
      </g>
  </g>
  <g transform="translate(1625.6, 360.0)">
      <g transform="translate(3.28,3.02) rotate(3.78) scale(1.000)">
        <g transform="translate(4.69,2.11) rotate(6.12) scale(0.980)">
        <g transform="translate(4.95,1.01) rotate(6.64) scale(0.960)">
        <g transform="translate(3.99,-0.18) rotate(5.11) scale(0.940)" clip-path="url(#clipCircle)">
        <g transform="translate(2.06,-1.36) rotate(1.46) scale(0.920)">
        <g transform="translate(-0.37,-2.41) rotate(-4.23) scale(0.900)">
        <g transform="translate(-2.72,-3.24) rotate(-11.72) scale(0.880)">
        <circle cx="0" cy="0" r="22.5" fill="url(#lgrad0)" filter="url(#shadow)" opacity="0.69"/>
        <text x="0" y="5" text-anchor="middle" font-family="Arial, sans-serif" font-size="14" fill="#FFFFFF" opacity="0.69">727</text>
      </g>
      </g>
      </g>
      </g>
      </g>
      </g>
      </g>
  </g>
  <g transform="translate(100.0, 635.0)">
      <g transform="translate(4.95,-0.58) rotate(3.78) scale(1.000)">
        <g transform="translate(3.99,-1.72) rotate(6.12) scale(0.980)">
        <g transform="translate(2.06,-2.71) rotate(6.64) scale(0.960)">
        <g transform="translate(-0.37,-3.46) rotate(5.11) scale(0.940)">
        <g transform="translate(-2.72,-3.90) rotate(1.46) scale(0.920)">
        <g transform="translate(-4.40,-3.99) rotate(-4.23) scale(0.900)" mask="url(#maskGradient)">
        <g transform="translate(-5.00,-3.72) rotate(-11.72) scale(0.880)">
        <path d="M0.0,-52.0 L15.3,-21.0 L49.4,-16.1 L24.7,8.0 L30.5,42.0 L0.0,26.0 L-30.5,42.0 L-24.7,8.0 L-49.4,-16.1 L-15.3,-21.0Z" fill="url(#rgrad1)" filter="url(#blur1)" opacity="0.79"/>
      </g>
      </g>
      </g>
      </g>
      </g>
      </g>
      </g>
  </g>
  <g transform="translate(334.4, 641.8)">
      <g transform="translate(2.06,-3.64) rotate(3.78) scale(1.000)">
        <g transform="translate(-0.37,-3.97) rotate(6.12) scale(0.980)">
        <g transform="translate(-2.72,-3.94) rotate(6.64) scale(0.960)">
        <g transform="translate(-4.40,-3.56) rotate(5.11) scale(0.940)">
        <g transform="translate(-5.00,-2.86) rotate(1.46) scale(0.920)">
        <g transform="translate(-4.38,-1.90) rotate(-4.23) scale(0.900)">
        <g transform="translate(-2.68,-0.78) rotate(-11.72) scale(0.880)">
        <rect x="-33.2" y="-33.2" width="66.3" height="66.3" rx="16.6" fill="url(#rgrad2)" filter="url(#shadow)" opacity="0.86"/>
        <circle cx="0" cy="0" r="22.1" fill="url(#rgrad3)" opacity="0.60"/>
      </g>
      </g>
      </g>
      </g>
      </g>
      </g>
      </g>
  </g>
  <g transform="translate(565.2, 657.2)">
      <g transform="translate(-2.72,-3.36) rotate(3.78) scale(1.000)">
        <g transform="translate(-4.40,-2.56) rotate(6.12) scale(0.980)">
        <g transform="translate(-5.00,-1.54) rotate(6.64) scale(0.960)">
        <g transform="translate(-4.38,-0.38) rotate(5.11) scale(0.940)" clip-path="url(#clipRect)">
        <g transform="translate(-2.68,0.81) rotate(1.46) scale(0.920)">
        <g transform="translate(-0.33,1.93) rotate(-4.23) scale(0.900)">
        <g transform="translate(2.10,2.88) rotate(-11.72) scale(0.880)">
        <path d="M38.9,22.5 L0.0,44.9 L-38.9,22.5 L-38.9,-22.5 L-0.0,-44.9 L38.9,-22.5Z" fill="url(#lgrad3)" filter="url(#blur3)" opacity="0.89"/>
        <ellipse cx="0" cy="0" rx="18.7" ry="12.5" fill="#FFFFFF" opacity="0.45"/>
      </g>
      </g>
      </g>
      </g>
      </g>
      </g>
      </g>
  </g>
  <g transform="translate(789.9, 673.9)">
      <g transform="translate(-5.00,0.02) rotate(3.78) scale(1.000)">
        <g transform="translate(-4.38,1.20) rotate(6.12) scale(0.980)">
        <g transform="translate(-2.68,2.27) rotate(6.64) scale(0.960)">
        <g transform="translate(-0.33,3.14) rotate(5.11) scale(0.940)">
        <g transform="translate(2.10,3.73) rotate(1.46) scale(0.920)">
        <g transform="translate(4.02,3.99) rotate(-4.23) scale(0.900)" mask="url(#maskDynamic)">
        <g transform="translate(4.95,3.89) rotate(-11.72) scale(0.880)">
        <circle cx="0" cy="0" r="34.9" fill="url(#rgrad4)" filter="url(#shadow)" opacity="0.90"/>
        <text x="0" y="5" text-anchor="middle" font-family="Arial, sans-serif" font-size="14" fill="#FFFFFF" opacity="0.90">727</text>
      </g>
      </g>
      </g>
      </g>
      </g>
      </g>
      </g>
  </g>
  <g transform="translate(1007.3, 684.0)">
      <g transform="translate(-2.68,3.37) rotate(3.78) scale(1.000)">
        <g transform="translate(-0.33,3.86) rotate(6.12) scale(0.980)">
        <g transform="translate(2.10,4.00) rotate(6.64) scale(0.960)">
        <g transform="translate(4.02,3.78) rotate(5.11) scale(0.940)">
        <g transform="translate(4.95,3.22) rotate(1.46) scale(0.920)">
        <g transform="translate(4.67,2.38) rotate(-4.23) scale(0.900)">
        <g transform="translate(3.25,1.32) rotate(-11.72) scale(0.880)">
        <path d="M0.0,-55.7 L16.4,-22.5 L53.0,-17.2 L26.5,8.6 L32.7,45.0 L0.0,27.8 L-32.7,45.0 L-26.5,8.6 L-53.0,-17.2 L-16.4,-22.5Z" fill="url(#rgrad0)" filter="url(#blur0)" opacity="0.86"/>
      </g>
      </g>
      </g>
      </g>
      </g>
      </g>
      </g>
  </g>
  <g transform="translate(1218.0, 682.9)">
      <g transform="translate(2.10,3.63) rotate(3.78) scale(1.000)">
        <g transform="translate(4.02,2.97) rotate(6.12) scale(0.980)">
        <g transform="translate(4.95,2.05) rotate(6.64) scale(0.960)">
        <g transform="translate(4.67,0.94) rotate(5.11) scale(0.940)" clip-path="url(#clipStar)">
        <g transform="translate(3.25,-0.25) rotate(1.46) scale(0.920)">
        <g transform="translate(1.03,-1.42) rotate(-4.23) scale(0.900)">
        <g transform="translate(-1.44,-2.46) rotate(-11.72) scale(0.880)">
        <rect x="-22.8" y="-22.8" width="45.6" height="45.6" rx="11.4" fill="url(#lgrad1)" filter="url(#shadow)" opacity="0.80"/>
        <circle cx="0" cy="0" r="15.2" fill="url(#rgrad2)" opacity="0.56"/>
      </g>
      </g>
      </g>
      </g>
      </g>
      </g>
      </g>
  </g>
  <g transform="translate(1424.2, 671.0)">
      <g transform="translate(4.95,0.55) rotate(3.78) scale(1.000)">
        <g transform="translate(4.67,-0.65) rotate(6.12) scale(0.980)">
        <g transform="translate(3.25,-1.79) rotate(6.64) scale(0.960)">
        <g transform="translate(1.03,-2.76) rotate(5.11) scale(0.940)">
        <g transform="translate(-1.44,-3.49) rotate(1.46) scale(0.920)">
        <g transform="translate(-3.56,-3.91) rotate(-4.23) scale(0.900)" mask="url(#maskStripes)">
        <g transform="translate(-4.81,-3.98) rotate(-11.72) scale(0.880)">
        <path d="M25.3,14.6 L0.0,29.2 L-25.3,14.6 L-25.3,-14.6 L-0.0,-29.2 L25.3,-14.6Z" fill="url(#rgrad2)" filter="url(#blur2)" opacity="0.71"/>
        <ellipse cx="0" cy="0" rx="12.2" ry="8.1" fill="#FFFFFF" opacity="0.35"/>
      </g>
      </g>
      </g>
      </g>
      </g>
      </g>
      </g>
  </g>
  <g transform="translate(1629.5, 653.9)">
      <g transform="translate(3.25,-3.04) rotate(3.78) scale(1.000)">
        <g transform="translate(1.03,-3.67) rotate(6.12) scale(0.980)">
        <g transform="translate(-1.44,-3.98) rotate(6.64) scale(0.960)">
        <g transform="translate(-3.56,-3.93) rotate(5.11) scale(0.940)">
        <g transform="translate(-4.81,-3.53) rotate(1.46) scale(0.920)">
        <g transform="translate(-4.88,-2.81) rotate(-4.23) scale(0.900)">
        <g transform="translate(-3.76,-1.84) rotate(-11.72) scale(0.880)">
        <circle cx="0" cy="0" r="31.1" fill="url(#rgrad3)" filter="url(#shadow)" opacity="0.60"/>
        <text x="0" y="5" text-anchor="middle" font-family="Arial, sans-serif" font-size="14" fill="#FFFFFF" opacity="0.60">727</text>
      </g>
      </g>
      </g>
      </g>
      </g>
      </g>
      </g>
  </g>
  <g transform="translate(77.3, 919.7)">
      <g transform="translate(-1.44,-3.83) rotate(3.78) scale(1.000)">
        <g transform="translate(-3.56,-3.32) rotate(6.12) scale(0.980)">
        <g transform="translate(-4.81,-2.51) rotate(6.64) scale(0.960)">
        <g transform="translate(-4.88,-1.48) rotate(5.11) scale(0.940)" clip-path="url(#clipDynamic)">
        <g transform="translate(-3.76,-0.32) rotate(1.46) scale(0.920)">
        <g transform="translate(-1.71,0.88) rotate(-4.23) scale(0.900)">
        <g transform="translate(0.75,1.99) rotate(-11.72) scale(0.880)">
        <path d="M0.0,-73.7 L21.7,-29.8 L70.1,-22.8 L35.0,11.4 L43.3,59.6 L0.0,36.8 L-43.3,59.6 L-35.0,11.4 L-70.1,-22.8 L-21.7,-29.8Z" fill="url(#lgrad4)" filter="url(#blur4)" opacity="0.48"/>
      </g>
      </g>
      </g>
      </g>
      </g>
      </g>
      </g>
  </g>
  <g transform="translate(201.1, 288.3)" mask="url(#maskGradient)">
    <ellipse cx="0" cy="0" rx="200" ry="150" fill="url(#rgrad0)" filter="url(#blur3)" opacity="0.3"/>
  </g>
  <g transform="translate(734.3, 342.1)" mask="url(#maskCircleFade)">
    <ellipse cx="0" cy="0" rx="200" ry="150" fill="url(#rgrad1)" filter="url(#blur3)" opacity="0.3"/>
  </g>
  <g transform="translate(1327.9, 376.0)" mask="url(#maskStripes)">
    <ellipse cx="0" cy="0" rx="200" ry="150" fill="url(#rgrad2)" filter="url(#blur3)" opacity="0.3"/>
  </g>
</svg>