<?xml version="1.0" encoding="UTF-8"?>
<svg xmlns="http://www.w3.org/2000/svg" viewBox="0 0 1920 1080" width="1920" height="1080">
  <defs>
    <filter id="blur0" x="-50%" y="-50%" width="200%" height="200%">
      <feGaussianBlur in="SourceGraphic" stdDeviation="1"/>
    </filter>
    <filter id="blur1" x="-50%" y="-50%" width="200%" height="200%">
      <feGaussianBlur in="SourceGraphic" stdDeviation="3"/>
    </filter>
    <filter id="blur2" x="-50%" y="-50%" width="200%" height="200%">
      <feGaussianBlur in="SourceGraphic" stdDeviation="5"/>
    </filter>
    <filter id="blur3" x="-50%" y="-50%" width="200%" height="200%">
      <feGaussianBlur in="SourceGraphic" stdDeviation="7"/>
    </filter>
    <filter id="blur4" x="-50%" y="-50%" width="200%" height="200%">
      <feGaussianBlur in="SourceGraphic" stdDeviation="9"/>
    </filter>
    <filter id="shadow" x="-50%" y="-50%" width="200%" height="200%">
      <feGaussianBlur in="SourceAlpha" stdDeviation="3" result="blur"/>
      <feOffset in="blur" dx="4" dy="4" result="offsetBlur"/>
      <feMerge>
        <feMergeNode in="offsetBlur"/>
        <feMergeNode in="SourceGraphic"/>
      </feMerge>
    </filter>
    <linearGradient id="lgrad0" x1="0%" y1="0%" x2="51.3%" y2="0.0%">
      <stop offset="0%" stop-color="#FF6B6B"/>
      <stop offset="33%" stop-color="#4ECDC4"/>
      <stop offset="66%" stop-color="#45B7D1"/>
      <stop offset="100%" stop-color="#96E6A1"/>
    </linearGradient>
    <linearGradient id="lgrad1" x1="0%" y1="0%" x2="76.1%" y2="7.4%">
      <stop offset="0%" stop-color="#FFE66D"/>
      <stop offset="33%" stop-color="#FF6B6B"/>
      <stop offset="66%" stop-color="#C44D58"/>
      <stop offset="100%" stop-color="#8B0000"/>
    </linearGradient>
    <linearGradient id="lgrad2" x1="0%" y1="0%" x2="93.9%" y2="26.1%">
      <stop offset="0%" stop-color="#4169E1"/>
      <stop offset="33%" stop-color="#7B68EE"/>
      <stop offset="66%" stop-color="#9370DB"/>
      <stop offset="100%" stop-color="#FFD700"/>
    </linearGradient>
    <linearGradient id="lgrad3" x1="0%" y1="0%" x2="100.0%" y2="51.3%">
      <stop offset="0%" stop-color="#32CD32"/>
      <stop offset="33%" stop-color="#228B22"/>
      <stop offset="66%" stop-color="#006400"/>
      <stop offset="100%" stop-color="#ADFF2F"/>
    </linearGradient>
    <linearGradient id="lgrad4" x1="0%" y1="0%" x2="92.6%" y2="76.1%">
      <stop offset="0%" stop-color="#FF1493"/>
      <stop offset="33%" stop-color="#FF69B4"/>
      <stop offset="66%" stop-color="#FFB6C1"/>
      <stop offset="100%" stop-color="#FFC0CB"/>
    </linearGradient>
    <radialGradient id="rgrad0" cx="45.9%" cy="40.6%" r="60%">
      <stop offset="0%" stop-color="#FF6B6B" stop-opacity="1"/>
      <stop offset="50%" stop-color="#4ECDC4" stop-opacity="0.8"/>
      <stop offset="100%" stop-color="#45B7D1" stop-opacity="0.6"/>
    </radialGradient>
    <radialGradient id="rgrad1" cx="55.9%" cy="48.6%" r="60%">
      <stop offset="0%" stop-color="#FFE66D" stop-opacity="1"/>
      <stop offset="50%" stop-color="#FF6B6B" stop-opacity="0.8"/>
      <stop offset="100%" stop-color="#C44D58" stop-opacity="0.6"/>
    </radialGradient>
    <radialGradient id="rgrad2" cx="65.9%" cy="56.6%" r="60%">
      <stop offset="0%" stop-color="#4169E1" stop-opacity="1"/>
      <stop offset="50%" stop-color="#7B68EE" stop-opacity="0.8"/>
      <stop offset="100%" stop-color="#9370DB" stop-opacity="0.6"/>
    </radialGradient>
    <radialGradient id="rgrad3" cx="35.9%" cy="64.6%" r="60%">
      <stop offset="0%" stop-color="#32CD32" stop-opacity="1"/>
      <stop offset="50%" stop-color="#228B22" stop-opacity="0.8"/>
      <stop offset="100%" stop-color="#006400" stop-opacity="0.6"/>
    </radialGradient>
    <radialGradient id="rgrad4" cx="45.9%" cy="32.6%" r="60%">
      <stop offset="0%" stop-color="#FF1493" stop-opacity="1"/>
      <stop offset="50%" stop-color="#FF69B4" stop-opacity="0.8"/>
      <stop offset="100%" stop-color="#FFB6C1" stop-opacity="0.6"/>
    </radialGradient>
    <clipPath id="clipCircle">
      <circle cx="0" cy="0" r="50"/>
    </clipPath>
    <clipPath id="clipStar">
      <path d="M0.0,-50.0 L14.7,-20.2 L47.6,-15.5 L23.8,7.7 L29.4,40.5 L0.0,25.0 L-29.4,40.5 L-23.8,7.7 L-47.6,-15.5 L-14.7,-20.2Z"/>
    </clipPath>
    <clipPath id="clipHex">
      <path d="M39.0,22.5 L0.0,45.0 L-39.0,22.5 L-39.0,-22.5 L-0.0,-45.0 L39.0,-22.5Z"/>
    </clipPath>
    <clipPath id="clipRect">
      <rect x="-40" y="-30" width="80" height="60" rx="10"/>
    </clipPath>
    <clipPath id="clipDynamic">
      <circle cx="0" cy="0" r="39.4"/>
    </clipPath>
    <mask id="maskGradient" maskContentUnits="objectBoundingBox">
      <rect x="0" y="0" width="1" height="1" fill="url(#maskGrad)"/>
    </mask>
    <linearGradient id="maskGrad" x1="0%" y1="0%" x2="100%" y2="100%">
      <stop offset="0%" stop-color="white"/>
      <stop offset="100%" stop-color="black"/>
    </linearGradient>
    <mask id="maskCircleFade">
      <circle cx="0" cy="0" r="60" fill="white"/>
      <circle cx="0" cy="0" r="30" fill="black"/>
    </mask>
    <mask id="maskStripes">
      <rect x="-50" y="-50" width="100" height="100" fill="white"/>
      <rect x="-50" y="-40" width="100" height="10" fill="black"/>
      <rect x="-50" y="-20" width="100" height="10" fill="black"/>
      <rect x="-50" y="0" width="100" height="10" fill="black"/>
      <rect x="-50" y="20" width="100" height="10" fill="black"/>
      <rect x="-50" y="40" width="100" height="10" fill="black"/>
    </mask>
    <mask id="maskDynamic">
      <rect x="-60" y="-60" width="120" height="120" fill="white" fill-opacity="0.99"/>
      <circle cx="0" cy="0" r="25" fill="white"/>
    </mask>
  </defs>
  <rect width="1920" height="1080" fill="url(#lgrad0)"/>
  <g transform="translate(108.8, 76.1)">
      <g transform="translate(1.47,-3.82) rotate(4.94) scale(1.000)">
        <g transform="translate(-1.00,-4.00) rotate(9.99) scale(0.980)">
        <g transform="translate(-3.23,-3.82) rotate(14.53) scale(0.960)">
        <g transform="translate(-4.66,-3.30) rotate(18.00) scale(0.940)" clip-path="url(#clipCircle)">
        <g transform="translate(-4.96,-2.48) rotate(19.89) scale(0.920)">
        <g transform="translate(-4.04,-1.44) rotate(19.79) scale(0.900)">
        <g transform="translate(-2.13,-0.28) rotate(17.40) scale(0.880)">
        <path d="M0.0,-74.8 L22.0,-30.3 L71.2,-23.1 L35.6,11.6 L44.0,60.5 L0.0,37.4 L-44.0,60.5 L-35.6,11.6 L-71.2,-23.1 L-22.0,-30.3Z" fill="url(#lgrad0)" filter="url(#blur0)" opacity="0.90"/>
      </g>
      </g>
      </g>
      </g>
      </g>
      </g>
      </g>
  </g>
  <g transform="translate(314.0, 77.0)">
      <g transform="translate(-3.23,-3.06) rotate(4.94) scale(1.000)">
        <g transform="translate(-4.66,-2.16) rotate(9.99) scale(0.980)">
        <g transform="translate(-4.96,-1.07) rotate(14.53) scale(0.960)">
        <g transform="translate(-4.04,0.12) rotate(18.00) scale(0.940)">
        <g transform="translate(-2.13,1.30) rotate(19.89) scale(0.920)">
        <g transform="translate(0.30,2.36) rotate(19.79) scale(0.900)" mask="url(#maskCircleFade)">
        <g transform="translate(2.65,3.21) rotate(17.40) scale(0.880)">
        <rect x="-34.9" y="-34.9" width="69.9" height="69.9" rx="17.5" fill="url(#rgrad1)" filter="url(#shadow)" opacity="0.90"/>
        <circle cx="0" cy="0" r="23.3" fill="url(#rgrad2)" opacity="0.63"/>
      </g>
      </g>
      </g>
      </g>
      </g>
      </g>
      </g>
  </g>
  <g transform="translate(520.6, 88.7)">
      <g transform="translate(-4.96,0.52) rotate(4.94) scale(1.000)">
        <g transform="translate(-4.04,1.67) rotate(9.99) scale(0.980)">
        <g transform="translate(-2.13,2.67) rotate(14.53) scale(0.960)">
        <g transform="translate(0.30,3.43) rotate(18.00) scale(0.940)">
        <g transform="translate(2.65,3.89) rotate(19.89) scale(0.920)">
        <g transform="translate(4.36,3.99) rotate(19.79) scale(0.900)">
        <g transform="translate(5.00,3.74) rotate(17.40) scale(0.880)">
        <path d="M29.0,16.8 L0.0,33.5 L-29.0,16.8 L-29.0,-16.8 L-0.0,-33.5 L29.0,-16.8Z" fill="url(#rgrad2)" filter="url(#blur2)" opacity="0.86"/>
        <ellipse cx="0" cy="0" rx="14.0" ry="9.3" fill="#FFFFFF" opacity="0.43"/>
      </g>
      </g>
      </g>
      </g>
      </g>
      </g>
      </g>
  </g>
  <g transform="translate(732.0, 105.7)">
      <g transform="translate(-2.13,3.62) rotate(4.94) scale(1.000)">
        <g transform="translate(0.30,3.96) rotate(9.99) scale(0.980)">
        <g transform="translate(2.65,3.95) rotate(14.53) scale(0.960)">
        <g transform="translate(4.36,3.58) rotate(18.00) scale(0.940)" clip-path="url(#clipRect)">
        <g transform="translate(5.00,2.90) rotate(19.89) scale(0.920)">
        <g transform="translate(4.41,1.96) rotate(19.79) scale(0.900)">
        <g transform="translate(2.75,0.84) rotate(17.40) scale(0.880)">
        <circle cx="0" cy="0" r="22.8" fill="url(#lgrad3)" filter="url(#shadow)" opacity="0.79"/>
        <text x="0" y="5" text-anchor="middle" font-family="Arial, sans-serif" font-size="14" fill="#FFFFFF" opacity="0.79">453</text>
      </g>
      </g>
      </g>
      </g>
      </g>
      </g>
      </g>
  </g>
  <g transform="translate(950.3, 120.0)">
      <g transform="translate(2.65,3.39) rotate(4.94) scale(1.000)">
        <g transform="translate(4.36,2.61) rotate(9.99) scale(0.980)">
        <g transform="translate(5.00,1.60) rotate(14.53) scale(0.960)">
        <g transform="translate(4.41,0.44) rotate(18.00) scale(0.940)">
        <g transform="translate(2.75,-0.75) rotate(19.89) scale(0.920)">
        <g transform="translate(0.41,-1.88) rotate(19.79) scale(0.900)" mask="url(#maskGradient)">
        <g transform="translate(-2.03,-2.84) rotate(17.40) scale(0.880)">
        <path d="M0.0,-48.6 L14.3,-19.7 L46.2,-15.0 L23.1,7.5 L28.6,39.3 L0.0,24.3 L-28.6,39.3 L-23.1,7.5 L-46.2,-15.0 L-14.3,-19.7Z" fill="url(#rgrad4)" filter="url(#blur4)" opacity="0.70"/>
      </g>
      </g>
      </g>
      </g>
      </g>
      </g>
      </g>
  </g>
  <g transform="translate(1175.8, 125.0)">
      <g transform="translate(5.00,0.04) rotate(4.94) scale(1.000)">
        <g transform="translate(4.41,-1.14) rotate(9.99) scale(0.980)">
        <g transform="translate(2.75,-2.22) rotate(14.53) scale(0.960)">
        <g transform="translate(0.41,-3.11) rotate(18.00) scale(0.940)">
        <g transform="translate(-2.03,-3.71) rotate(19.89) scale(0.920)">
        <g transform="translate(-3.97,-3.99) rotate(19.79) scale(0.900)">
        <g transform="translate(-4.94,-3.91) rotate(17.40) scale(0.880)">
        <rect x="-31.0" y="-31.0" width="62.1" height="62.1" rx="15.5" fill="url(#rgrad0)" filter="url(#shadow)" opacity="0.59"/>
        <circle cx="0" cy="0" r="20.7" fill="url(#rgrad1)" opacity="0.41"/>
      </g>
      </g>
      </g>
      </g>
      </g>
      </g>
      </g>
  </g>
  <g transform="translate(1407.2, 118.1)">
      <g transform="translate(2.75,-3.34) rotate(4.94) scale(1.000)">
        <g transform="translate(0.41,-3.84) rotate(9.99) scale(0.980)">
        <g transform="translate(-2.03,-4.00) rotate(14.53) scale(0.960)">
        <g transform="translate(-3.97,-3.80) rotate(18.00) scale(0.940)" clip-path="url(#clipStar)">
        <g transform="translate(-4.94,-3.26) rotate(19.89) scale(0.920)">
        <g transform="translate(-4.70,-2.43) rotate(19.79) scale(0.900)">
        <g transform="translate(-3.31,-1.38) rotate(17.40) scale(0.880)">
        <path d="M38.3,22.1 L0.0,44.2 L-38.3,22.1 L-38.3,-22.1 L-0.0,-44.2 L38.3,-22.1Z" fill="url(#lgrad1)" filter="url(#blur1)" opacity="0.47"/>
        <ellipse cx="0" cy="0" rx="18.4" ry="12.3" fill="#FFFFFF" opacity="0.23"/>
      </g>
      </g>
      </g>
      </g>
      </g>
      </g>
      </g>
  </g>
  <g transform="translate(1641.8, 102.8)">
      <g transform="translate(-2.03,-3.66) rotate(4.94) scale(1.000)">
        <g transform="translate(-3.97,-3.01) rotate(9.99) scale(0.980)">
        <g transform="translate(-4.94,-2.10) rotate(14.53) scale(0.960)">
        <g transform="translate(-4.70,-1.00) rotate(18.00) scale(0.940)">
        <g transform="translate(-3.31,0.19) rotate(19.89) scale(0.920)">
        <g transform="translate(-1.11,1.36) rotate(19.79) scale(0.900)" mask="url(#maskDynamic)">
        <g transform="translate(1.36,2.41) rotate(17.40) scale(0.880)">
        <circle cx="0" cy="0" r="36.3" fill="url(#rgrad2)" filter="url(#shadow)" opacity="0.35"/>
        <text x="0" y="5" text-anchor="middle" font-family="Arial, sans-serif" font-size="14" fill="#FFFFFF" opacity="0.35">453</text>
      </g>
      </g>
      </g>
      </g>
      </g>
      </g>
      </g>
  </g>
  <g transform="translate(115.9, 366.1)">
      <g transform="translate(-4.94,-0.61) rotate(4.94) scale(1.000)">
        <g transform="translate(-4.70,0.59) rotate(9.99) scale(0.980)">
        <g transform="translate(-3.31,1.73) rotate(14.53) scale(0.960)">
        <g transform="translate(-1.11,2.72) rotate(18.00) scale(0.940)">
        <g transform="translate(1.36,3.46) rotate(19.89) scale(0.920)">
        <g transform="translate(3.50,3.90) rotate(19.79) scale(0.900)">
        <g transform="translate(4.78,3.99) rotate(17.40) scale(0.880)">
        <path d="M0.0,-60.1 L17.6,-24.3 L57.1,-18.6 L28.6,9.3 L35.3,48.6 L0.0,30.0 L-35.3,48.6 L-28.6,9.3 L-57.1,-18.6 L-17.6,-24.3Z" fill="url(#rgrad3)" filter="url(#blur3)" opacity="0.25"/>
      </g>
      </g>
      </g>
      </g>
      </g>
      </g>
      </g>
  </g>
  <g transform="translate(346.2, 356.0)">
      <g transform="translate(-3.31,3.00) rotate(4.94) scale(1.000)">
        <g transform="translate(-1.11,3.65) rotate(9.99) scale(0.980)">
        <g transform="translate(1.36,3.97) rotate(14.53) scale(0.960)">
        <g transform="translate(3.50,3.94) rotate(18.00) scale(0.940)" clip-path="url(#clipDynamic)">
        <g transform="translate(4.78,3.55) rotate(19.89) scale(0.920)">
        <g transform="translate(4.89,2.85) rotate(19.79) scale(0.900)">
        <g transform="translate(3.81,1.90) rotate(17.40) scale(0.880)">
        <rect x="-23.7" y="-23.7" width="47.4" height="47.4" rx="11.9" fill="url(#lgrad4)" filter="url(#shadow)" opacity="0.17"/>
        <circle cx="0" cy="0" r="15.8" fill="url(#rgrad0)" opacity="0.12"/>
      </g>
      </g>
      </g>
      </g>
      </g>
      </g>
      </g>
  </g>
  <g transform="translate(570.0, 357.2)">
      <g transform="translate(1.36,3.85) rotate(4.94) scale(1.000)">
        <g transform="translate(3.50,3.35) rotate(9.99) scale(0.980)">
        <g transform="translate(4.78,2.56) rotate(14.53) scale(0.960)">
        <g transform="translate(4.89,1.54) rotate(18.00) scale(0.940)">
        <g transform="translate(3.81,0.38) rotate(19.89) scale(0.920)">
        <g transform="translate(1.79,-0.82) rotate(19.79) scale(0.900)" mask="url(#maskStripes)">
        <g transform="translate(-0.67,-1.94) rotate(17.40) scale(0.880)">
        <path d="M24.1,13.9 L0.0,27.8 L-24.1,13.9 L-24.1,-13.9 L-0.0,-27.8 L24.1,-13.9Z" fill="url(#rgrad0)" filter="url(#blur0)" opacity="0.12"/>
        <ellipse cx="0" cy="0" rx="11.6" ry="7.7" fill="#FFFFFF" opacity="0.06"/>
      </g>
      </g>
      </g>
      </g>
      </g>
      </g>
      </g>
  </g>
  <g transform="translate(786.5, 369.1)">
      <g transform="translate(4.78,1.16) rotate(4.94) scale(1.000)">
        <g transform="translate(4.89,-0.02) rotate(9.99) scale(0.980)">
        <g transform="translate(3.81,-1.20) rotate(14.53) scale(0.960)">
        <g transform="translate(1.79,-2.28) rotate(18.00) scale(0.940)">
        <g transform="translate(-0.67,-3.15) rotate(19.89) scale(0.920)">
        <g transform="translate(-2.97,-3.74) rotate(19.79) scale(0.900)">
        <g transform="translate(-4.53,-3.99) rotate(17.40) scale(0.880)">
        <circle cx="0" cy="0" r="28.9" fill="url(#rgrad1)" filter="url(#shadow)" opacity="0.10"/>
        <text x="0" y="5" text-anchor="middle" font-family="Arial, sans-serif" font-size="14" fill="#FFFFFF" opacity="0.10">453</text>
      </g>
      </g>
      </g>
      </g>
      </g>
      </g>
      </g>
  </g>
  <g transform="translate(996.5, 386.1)">
      <g transform="translate(3.81,-2.59) rotate(4.94) scale(1.000)">
        <g transform="translate(1.79,-3.38) rotate(9.99) scale(0.980)">
        <g transform="translate(-0.67,-3.86) rotate(14.53) scale(0.960)">
        <g transform="translate(-2.97,-4.00) rotate(18.00) scale(0.940)" clip-path="url(#clipHex)">
        <g transform="translate(-4.53,-3.78) rotate(19.89) scale(0.920)">
        <g transform="translate(-4.99,-3.22) rotate(19.79) scale(0.900)">
        <g transform="translate(-4.23,-2.38) rotate(17.40) scale(0.880)">
        <path d="M0.0,-71.3 L21.0,-28.8 L67.8,-22.0 L33.9,11.0 L41.9,57.7 L0.0,35.7 L-41.9,57.7 L-33.9,11.0 L-67.8,-22.0 L-21.0,-28.8Z" fill="url(#lgrad2)" filter="url(#blur2)" opacity="0.12"/>
      </g>
      </g>
      </g>
      </g>
      </g>
      </g>
      </g>
  </g>
  <g transform="translate(1202.5, 400.3)">
      <g transform="translate(-0.67,-3.96) rotate(4.94) scale(1.000)">
        <g transform="translate(-2.97,-3.63) rotate(9.99) scale(0.980)">
        <g transform="translate(-4.53,-2.97) rotate(14.53) scale(0.960)">
        <g transform="translate(-4.99,-2.04) rotate(18.00) scale(0.940)">
        <g transform="translate(-4.23,-0.93) rotate(19.89) scale(0.920)">
        <g transform="translate(-2.43,0.26) rotate(19.79) scale(0.900)" mask="url(#maskCircleFade)">
        <g transform="translate(-0.03,1.42) rotate(17.40) scale(0.880)">
        <rect x="-37.2" y="-37.2" width="74.4" height="74.4" rx="18.6" fill="url(#rgrad3)" filter="url(#shadow)" opacity="0.17"/>
        <circle cx="0" cy="0" r="24.8" fill="url(#rgrad4)" opacity="0.12"/>
      </g>
      </g>
      </g>
      </g>
      </g>
      </g>
      </g>
  </g>
  <g transform="translate(1407.8, 404.9)">
      <g transform="translate(-4.53,-1.69) rotate(4.94) scale(1.000)">
        <g transform="translate(-4.99,-0.54) rotate(9.99) scale(0.980)">
        <g transform="translate(-4.23,0.65) rotate(14.53) scale(0.960)">
        <g transform="translate(-2.43,1.79) rotate(18.00) scale(0.940)">
        <g transform="translate(-0.03,2.77) rotate(19.89) scale(0.920)">
        <g transform="translate(2.37,3.50) rotate(19.79) scale(0.900)">
        <g transform="translate(4.19,3.91) rotate(17.40) scale(0.880)">
        <path d="M33.4,19.3 L0.0,38.5 L-33.4,19.3 L-33.4,-19.3 L-0.0,-38.5 L33.4,-19.3Z" fill="url(#rgrad4)" filter="url(#blur4)" opacity="0.25"/>
        <ellipse cx="0" cy="0" rx="16.1" ry="10.7" fill="#FFFFFF" opacity="0.13"/>
      </g>
      </g>
      </g>
      </g>
      </g>
      </g>
      </g>
  </g>
  <g transform="translate(1616.2, 397.8)">
      <g transform="translate(-4.23,2.14) rotate(4.94) scale(1.000)">
        <g transform="translate(-2.43,3.04) rotate(9.99) scale(0.980)">
        <g transform="translate(-0.03,3.67) rotate(14.53) scale(0.960)">
        <g transform="translate(2.37,3.98) rotate(18.00) scale(0.940)" clip-path="url(#clipCircle)">
        <g transform="translate(4.19,3.93) rotate(19.89) scale(0.920)">
        <g transform="translate(4.98,3.52) rotate(19.79) scale(0.900)">
        <g transform="translate(4.56,2.81) rotate(17.40) scale(0.880)">
        <circle cx="0" cy="0" r="25.1" fill="url(#lgrad0)" filter="url(#shadow)" opacity="0.36"/>
        <text x="0" y="5" text-anchor="middle" font-family="Arial, sans-serif" font-size="14" fill="#FFFFFF" opacity="0.36">453</text>
      </g>
      </g>
      </g>
      </g>
      </g>
      </g>
      </g>
  </g>
  <g transform="translate(70.3, 662.4)">
      <g transform="translate(-0.03,4.00) rotate(4.94) scale(1.000)">
        <g transform="translate(2.37,3.83) rotate(9.99) scale(0.980)">
        <g transform="translate(4.19,3.32) rotate(14.53) scale(0.960)">
        <g transform="translate(4.98,2.51) rotate(18.00) scale(0.940)">
        <g transform="translate(4.56,1.47) rotate(19.89) scale(0.920)">
        <g transform="translate(3.02,0.31) rotate(19.79) scale(0.900)" mask="url(#maskGradient)">
        <g transform="translate(0.74,-0.88) rotate(17.40) scale(0.880)">
        <path d="M0.0,-45.2 L13.3,-18.3 L42.9,-14.0 L21.5,7.0 L26.5,36.5 L0.0,22.6 L-26.5,36.5 L-21.5,7.0 L-42.9,-14.0 L-13.3,-18.3Z" fill="url(#rgrad1)" filter="url(#blur1)" opacity="0.48"/>
      </g>
      </g>
      </g>
      </g>
      </g>
      </g>
      </g>
  </g>
  <g transform="translate(291.8, 645.8)">
      <g transform="translate(4.19,2.18) rotate(4.94) scale(1.000)">
        <g transform="translate(4.98,1.10) rotate(9.99) scale(0.980)">
        <g transform="translate(4.56,-0.09) rotate(14.53) scale(0.960)">
        <g transform="translate(3.02,-1.27) rotate(18.00) scale(0.940)">
        <g transform="translate(0.74,-2.33) rotate(19.89) scale(0.920)">
        <g transform="translate(-1.72,-3.19) rotate(19.79) scale(0.900)">
        <g transform="translate(-3.76,-3.76) rotate(17.40) scale(0.880)">
        <rect x="-26.9" y="-26.9" width="53.8" height="53.8" rx="13.4" fill="url(#rgrad2)" filter="url(#shadow)" opacity="0.59"/>
        <circle cx="0" cy="0" r="17.9" fill="url(#rgrad3)" opacity="0.42"/>
      </g>
      </g>
      </g>
      </g>
      </g>
      </g>
      </g>
  </g>
  <g transform="translate(520.1, 635.9)">
      <g transform="translate(4.56,-1.64) rotate(4.94) scale(1.000)">
        <g transform="translate(3.02,-2.65) rotate(9.99) scale(0.980)">
        <g transform="translate(0.74,-3.41) rotate(14.53) scale(0.960)">
        <g transform="translate(-1.72,-3.88) rotate(18.00) scale(0.940)" clip-path="url(#clipRect)">
        <g transform="translate(-3.76,-3.99) rotate(19.89) scale(0.920)">
        <g transform="translate(-4.88,-3.76) rotate(19.79) scale(0.900)">
        <g transform="translate(-4.80,-3.18) rotate(17.40) scale(0.880)">
        <path d="M35.4,20.4 L0.0,40.9 L-35.4,20.4 L-35.4,-20.4 L-0.0,-40.9 L35.4,-20.4Z" fill="url(#lgrad3)" filter="url(#blur3)" opacity="0.71"/>
        <ellipse cx="0" cy="0" rx="17.0" ry="11.4" fill="#FFFFFF" opacity="0.35"/>
      </g>
      </g>
      </g>
      </g>
      </g>
      </g>
      </g>
  </g>
  <g transform="translate(753.3, 637.3)">
      <g transform="translate(0.74,-3.96) rotate(4.94) scale(1.000)">
        <g transform="translate(-1.72,-3.95) rotate(9.99) scale(0.980)">
        <g transform="translate(-3.76,-3.60) rotate(14.53) scale(0.960)">
        <g transform="translate(-4.88,-2.92) rotate(18.00) scale(0.940)">
        <g transform="translate(-4.80,-1.98) rotate(19.89) scale(0.920)">
        <g transform="translate(-3.55,-0.87) rotate(19.79) scale(0.900)" mask="url(#maskDynamic)">
        <g transform="translate(-1.43,0.32) rotate(17.40) scale(0.880)">
        <circle cx="0" cy="0" r="37.5" fill="url(#rgrad4)" filter="url(#shadow)" opacity="0.80"/>
        <text x="0" y="5" text-anchor="middle" font-family="Arial, sans-serif" font-size="14" fill="#FFFFFF" opacity="0.80">453</text>
      </g>
      </g>
      </g>
      </g>
      </g>
      </g>
      </g>
  </g>
  <g transform="translate(988.2, 649.4)">
      <g transform="translate(-3.76,-2.63) rotate(4.94) scale(1.000)">
        <g transform="translate(-4.88,-1.63) rotate(9.99) scale(0.980)">
        <g transform="translate(-4.80,-0.48) rotate(14.53) scale(0.960)">
        <g transform="translate(-3.55,0.72) rotate(18.00) scale(0.940)">
        <g transform="translate(-1.43,1.85) rotate(19.89) scale(0.920)">
        <g transform="translate(1.04,2.82) rotate(19.79) scale(0.900)">
        <g transform="translate(3.26,3.53) rotate(17.40) scale(0.880)">
        <path d="M0.0,-68.1 L20.0,-27.5 L64.8,-21.0 L32.4,10.5 L40.0,55.1 L0.0,34.0 L-40.0,55.1 L-32.4,10.5 L-64.8,-21.0 L-20.0,-27.5Z" fill="url(#rgrad0)" filter="url(#blur0)" opacity="0.86"/>
      </g>
      </g>
      </g>
      </g>
      </g>
      </g>
      </g>
  </g>
  <g transform="translate(1221.0, 666.5)">
      <g transform="translate(-4.80,1.11) rotate(4.94) scale(1.000)">
        <g transform="translate(-3.55,2.20) rotate(9.99) scale(0.980)">
        <g transform="translate(-1.43,3.09) rotate(14.53) scale(0.960)">
        <g transform="translate(1.04,3.70) rotate(18.00) scale(0.940)" clip-path="url(#clipStar)">
        <g transform="translate(3.26,3.98) rotate(19.89) scale(0.920)">
        <g transform="translate(4.68,3.91) rotate(19.79) scale(0.900)">
        <g transform="translate(4.95,3.49) rotate(17.40) scale(0.880)">
        <rect x="-26.9" y="-26.9" width="53.7" height="53.7" rx="13.4" fill="url(#lgrad1)" filter="url(#shadow)" opacity="0.90"/>
        <circle cx="0" cy="0" r="17.9" fill="url(#rgrad2)" opacity="0.63"/>
      </g>
      </g>
      </g>
      </g>
      </g>
      </g>
      </g>
  </g>
  <g transform="translate(1448.7, 680.5)">
      <g transform="translate(-1.43,3.83) rotate(4.94) scale(1.000)">
        <g transform="translate(1.04,4.00) rotate(9.99) scale(0.980)">
        <g transform="translate(3.26,3.81) rotate(14.53) scale(0.960)">
        <g transform="translate(4.68,3.28) rotate(18.00) scale(0.940)">
        <g transform="translate(4.95,2.45) rotate(19.89) scale(0.920)">
        <g transform="translate(4.01,1.41) rotate(19.79) scale(0.900)" mask="url(#maskStripes)">
        <g transform="translate(2.09,0.24) rotate(17.40) scale(0.880)">
        <path d="M23.5,13.5 L0.0,27.1 L-23.5,13.5 L-23.5,-13.5 L-0.0,-27.1 L23.5,-13.5Z" fill="url(#rgrad2)" filter="url(#blur2)" opacity="0.89"/>
        <ellipse cx="0" cy="0" rx="11.3" ry="7.5" fill="#FFFFFF" opacity="0.45"/>
      </g>
      </g>
      </g>
      </g>
      </g>
      </g>
      </g>
  </g>
  <g transform="translate(1669.4, 684.9)">
      <g transform="translate(3.26,3.03) rotate(4.94) scale(1.000)">
        <g transform="translate(4.68,2.13) rotate(9.99) scale(0.980)">
        <g transform="translate(4.95,1.03) rotate(14.53) scale(0.960)">
        <g transform="translate(4.01,-0.16) rotate(18.00) scale(0.940)">
        <g transform="translate(2.09,-1.33) rotate(19.89) scale(0.920)">
        <g transform="translate(-0.34,-2.39) rotate(19.79) scale(0.900)">
        <g transform="translate(-2.69,-3.23) rotate(17.40) scale(0.880)">
        <circle cx="0" cy="0" r="25.1" fill="url(#rgrad3)" filter="url(#shadow)" opacity="0.86"/>
        <text x="0" y="5" text-anchor="middle" font-family="Arial, sans-serif" font-size="14" fill="#FFFFFF" opacity="0.86">453</text>
      </g>
      </g>
      </g>
      </g>
      </g>
      </g>
      </g>
  </g>
  <g transform="translate(122.8, 957.5)">
      <g transform="translate(4.95,-0.56) rotate(4.94) scale(1.000)">
        <g transform="translate(4.01,-1.70) rotate(9.99) scale(0.980)">
        <g transform="translate(2.09,-2.70) rotate(14.53) scale(0.960)">
        <g transform="translate(-0.34,-3.45) rotate(18.00) scale(0.940)" clip-path="url(#clipDynamic)">
        <g transform="translate(-2.69,-3.89) rotate(19.89) scale(0.920)">
        <g transform="translate(-4.38,-3.99) rotate(19.79) scale(0.900)">
        <g transform="translate(-5.00,-3.73) rotate(17.40) scale(0.880)">
        <path d="M0.0,-64.3 L18.9,-26.0 L61.1,-19.9 L30.6,9.9 L37.8,52.0 L0.0,32.1 L-37.8,52.0 L-30.6,9.9 L-61.1,-19.9 L-18.9,-26.0Z" fill="url(#lgrad4)" filter="url(#blur4)" opacity="0.79"/>
      </g>
      </g>
      </g>
      </g>
      </g>
      </g>
      </g>
  </g>
  <g transform="translate(329.4, 223.5)" mask="url(#maskGradient)">
    <ellipse cx="0" cy="0" rx="200" ry="150" fill="url(#rgrad0)" filter="url(#blur3)" opacity="0.3"/>
  </g>
  <g transform="translate(735.5, 226.4)" mask="url(#maskCircleFade)">
    <ellipse cx="0" cy="0" rx="200" ry="150" fill="url(#rgrad1)" filter="url(#blur3)" opacity="0.3"/>
  </g>
  <g transform="translate(1200.8, 263.8)" mask="url(#maskStripes)">
    <ellipse cx="0" cy="0" rx="200" ry="150" fill="url(#rgrad2)" filter="url(#blur3)" opacity="0.3"/>
  </g>
</svg>