<?xml version="1.0" encoding="UTF-8"?>
<svg xmlns="http://www.w3.org/2000/svg" viewBox="0 0 1920 1080" width="1920" height="1080">
  <defs>
    <filter id="blur0" x="-50%" y="-50%" width="200%" height="200%">
      <feGaussianBlur in="SourceGraphic" stdDeviation="1"/>
    </filter>
    <filter id="blur1" x="-50%" y="-50%" width="200%" height="200%">
      <feGaussianBlur in="SourceGraphic" stdDeviation="3"/>
    </filter>
    <filter id="blur2" x="-50%" y="-50%" width="200%" height="200%">
      <feGaussianBlur in="SourceGraphic" stdDeviation="5"/>
    </filter>
    <filter id="blur3" x="-50%" y="-50%" width="200%" height="200%">
      <feGaussianBlur in="SourceGraphic" stdDeviation="7"/>
    </filter>
    <filter id="blur4" x="-50%" y="-50%" width="200%" height="200%">
      <feGaussianBlur in="SourceGraphic" stdDeviation="9"/>
    </filter>
    <filter id="shadow" x="-50%" y="-50%" width="200%" height="200%">
      <feGaussianBlur in="SourceAlpha" stdDeviation="3" result="blur"/>
      <feOffset in="blur" dx="4" dy="4" result="offsetBlur"/>
      <feMerge>
        <feMergeNode in="offsetBlur"/>
        <feMergeNode in="SourceGraphic"/>
      </feMerge>
    </filter>
    <linearGradient id="lgrad0" x1="0%" y1="0%" x2="57.8%" y2="99.4%">
      <stop offset="0%" stop-color="#FF6B6B"/>
      <stop offset="33%" stop-color="#4ECDC4"/>
      <stop offset="66%" stop-color="#45B7D1"/>
      <stop offset="100%" stop-color="#96E6A1"/>
    </linearGradient>
    <linearGradient id="lgrad1" x1="0%" y1="0%" x2="32.1%" y2="96.7%">
      <stop offset="0%" stop-color="#FFE66D"/>
      <stop offset="33%" stop-color="#FF6B6B"/>
      <stop offset="66%" stop-color="#C44D58"/>
      <stop offset="100%" stop-color="#8B0000"/>
    </linearGradient>
    <linearGradient id="lgrad2" x1="0%" y1="0%" x2="11.1%" y2="81.5%">
      <stop offset="0%" stop-color="#4169E1"/>
      <stop offset="33%" stop-color="#7B68EE"/>
      <stop offset="66%" stop-color="#9370DB"/>
      <stop offset="100%" stop-color="#FFD700"/>
    </linearGradient>
    <linearGradient id="lgrad3" x1="0%" y1="0%" x2="0.6%" y2="57.8%">
      <stop offset="0%" stop-color="#32CD32"/>
      <stop offset="33%" stop-color="#228B22"/>
      <stop offset="66%" stop-color="#006400"/>
      <stop offset="100%" stop-color="#ADFF2F"/>
    </linearGradient>
    <linearGradient id="lgrad4" x1="0%" y1="0%" x2="3.3%" y2="32.1%">
      <stop offset="0%" stop-color="#FF1493"/>
      <stop offset="33%" stop-color="#FF69B4"/>
      <stop offset="66%" stop-color="#FFB6C1"/>
      <stop offset="100%" stop-color="#FFC0CB"/>
    </linearGradient>
    <radialGradient id="rgrad0" cx="51.6%" cy="44.4%" r="60%">
      <stop offset="0%" stop-color="#FF6B6B" stop-opacity="1"/>
      <stop offset="50%" stop-color="#4ECDC4" stop-opacity="0.8"/>
      <stop offset="100%" stop-color="#45B7D1" stop-opacity="0.6"/>
    </radialGradient>
    <radialGradient id="rgrad1" cx="61.6%" cy="52.4%" r="60%">
      <stop offset="0%" stop-color="#FFE66D" stop-opacity="1"/>
      <stop offset="50%" stop-color="#FF6B6B" stop-opacity="0.8"/>
      <stop offset="100%" stop-color="#C44D58" stop-opacity="0.6"/>
    </radialGradient>
    <radialGradient id="rgrad2" cx="31.6%" cy="60.4%" r="60%">
      <stop offset="0%" stop-color="#4169E1" stop-opacity="1"/>
      <stop offset="50%" stop-color="#7B68EE" stop-opacity="0.8"/>
      <stop offset="100%" stop-color="#9370DB" stop-opacity="0.6"/>
    </radialGradient>
    <radialGradient id="rgrad3" cx="41.6%" cy="68.4%" r="60%">
      <stop offset="0%" stop-color="#32CD32" stop-opacity="1"/>
      <stop offset="50%" stop-color="#228B22" stop-opacity="0.8"/>
      <stop offset="100%" stop-color="#006400" stop-opacity="0.6"/>
    </radialGradient>
    <radialGradient id="rgrad4" cx="51.6%" cy="36.4%" r="60%">
      <stop offset="0%" stop-color="#FF1493" stop-opacity="1"/>
      <stop offset="50%" stop-color="#FF69B4" stop-opacity="0.8"/>
      <stop offset="100%" stop-color="#FFB6C1" stop-opacity="0.6"/>
    </radialGradient>
    <clipPath id="clipCircle">
      <circle cx="0" cy="0" r="50"/>
    </clipPath>
    <clipPath id="clipStar">
      <path d="M0.0,-50.0 L14.7,-20.2 L47.6,-15.5 L23.8,7.7 L29.4,40.5 L0.0,25.0 L-29.4,40.5 L-23.8,7.7 L-47.6,-15.5 L-14.7,-20.2Z"/>
    </clipPath>
    <clipPath id="clipHex">
      <path d="M39.0,22.5 L0.0,45.0 L-39.0,22.5 L-39.0,-22.5 L-0.0,-45.0 L39.0,-22.5Z"/>
    </clipPath>
    <clipPath id="clipRect">
      <rect x="-40" y="-30" width="80" height="60" rx="10"/>
    </clipPath>
    <clipPath id="clipDynamic">
      <circle cx="0" cy="0" r="41.5"/>
    </clipPath>
    <mask id="maskGradient" maskContentUnits="objectBoundingBox">
      <rect x="0" y="0" width="1" height="1" fill="url(#maskGrad)"/>
    </mask>
    <linearGradient id="maskGrad" x1="0%" y1="0%" x2="100%" y2="100%">
      <stop offset="0%" stop-color="white"/>
      <stop offset="100%" stop-color="black"/>
    </linearGradient>
    <mask id="maskCircleFade">
      <circle cx="0" cy="0" r="60" fill="white"/>
      <circle cx="0" cy="0" r="30" fill="black"/>
    </mask>
    <mask id="maskStripes">
      <rect x="-50" y="-50" width="100" height="100" fill="white"/>
      <rect x="-50" y="-40" width="100" height="10" fill="black"/>
      <rect x="-50" y="-20" width="100" height="10" fill="black"/>
      <rect x="-50" y="0" width="100" height="10" fill="black"/>
      <rect x="-50" y="20" width="100" height="10" fill="black"/>
      <rect x="-50" y="40" width="100" height="10" fill="black"/>
    </mask>
    <mask id="maskDynamic">
      <rect x="-60" y="-60" width="120" height="120" fill="white" fill-opacity="0.45"/>
      <circle cx="0" cy="0" r="25" fill="white"/>
    </mask>
  </defs>
  <rect width="1920" height="1080" fill="url(#lgrad0)"/>
  <g transform="translate(113.0, 122.5)">
      <g transform="translate(2.16,3.61) rotate(1.11) scale(1.000)">
        <g transform="translate(4.06,2.94) rotate(4.11) scale(0.980)">
        <g transform="translate(4.96,2.00) rotate(8.76) scale(0.960)">
        <g transform="translate(4.65,0.89) rotate(14.67) scale(0.940)" clip-path="url(#clipCircle)">
        <g transform="translate(3.20,-0.30) rotate(21.35) scale(0.920)">
        <g transform="translate(0.97,-1.47) rotate(28.21) scale(0.900)">
        <g transform="translate(-1.50,-2.50) rotate(34.62) scale(0.880)">
        <path d="M0.0,-63.3 L18.6,-25.6 L60.2,-19.6 L30.1,9.8 L37.2,51.2 L0.0,31.7 L-37.2,51.2 L-30.1,9.8 L-60.2,-19.6 L-18.6,-25.6Z" fill="url(#lgrad0)" filter="url(#blur0)" opacity="0.59"/>
      </g>
      </g>
      </g>
      </g>
      </g>
      </g>
      </g>
  </g>
  <g transform="translate(344.3, 110.3)">
      <g transform="translate(4.96,0.50) rotate(1.11) scale(1.000)">
        <g transform="translate(4.65,-0.70) rotate(4.11) scale(0.980)">
        <g transform="translate(3.20,-1.83) rotate(8.76) scale(0.960)">
        <g transform="translate(0.97,-2.80) rotate(14.67) scale(0.940)">
        <g transform="translate(-1.50,-3.52) rotate(21.35) scale(0.920)">
        <g transform="translate(-3.60,-3.92) rotate(28.21) scale(0.900)" mask="url(#maskCircleFade)">
        <g transform="translate(-4.82,-3.98) rotate(34.62) scale(0.880)">
        <rect x="-37.1" y="-37.1" width="74.1" height="74.1" rx="18.5" fill="url(#rgrad1)" filter="url(#shadow)" opacity="0.70"/>
        <circle cx="0" cy="0" r="24.7" fill="url(#rgrad2)" opacity="0.49"/>
      </g>
      </g>
      </g>
      </g>
      </g>
      </g>
      </g>
  </g>
  <g transform="translate(569.8, 93.2)">
      <g transform="translate(3.20,-3.07) rotate(1.11) scale(1.000)">
        <g transform="translate(0.97,-3.69) rotate(4.11) scale(0.980)">
        <g transform="translate(-1.50,-3.98) rotate(8.76) scale(0.960)">
        <g transform="translate(-3.60,-3.92) rotate(14.67) scale(0.940)">
        <g transform="translate(-4.82,-3.50) rotate(21.35) scale(0.920)">
        <g transform="translate(-4.86,-2.77) rotate(28.21) scale(0.900)">
        <g transform="translate(-3.71,-1.80) rotate(34.62) scale(0.880)">
        <path d="M37.4,21.6 L0.0,43.2 L-37.4,21.6 L-37.4,-21.6 L-0.0,-43.2 L37.4,-21.6Z" fill="url(#rgrad2)" filter="url(#blur2)" opacity="0.79"/>
        <ellipse cx="0" cy="0" rx="18.0" ry="12.0" fill="#FFFFFF" opacity="0.40"/>
      </g>
      </g>
      </g>
      </g>
      </g>
      </g>
      </g>
  </g>
  <g transform="translate(787.9, 79.3)">
      <g transform="translate(-1.50,-3.82) rotate(1.11) scale(1.000)">
        <g transform="translate(-3.60,-3.29) rotate(4.11) scale(0.980)">
        <g transform="translate(-4.82,-2.47) rotate(8.76) scale(0.960)">
        <g transform="translate(-4.86,-1.43) rotate(14.67) scale(0.940)" clip-path="url(#clipRect)">
        <g transform="translate(-3.71,-0.26) rotate(21.35) scale(0.920)">
        <g transform="translate(-1.65,0.93) rotate(28.21) scale(0.900)">
        <g transform="translate(0.81,2.04) rotate(34.62) scale(0.880)">
        <circle cx="0" cy="0" r="29.4" fill="url(#lgrad3)" filter="url(#shadow)" opacity="0.86"/>
        <text x="0" y="5" text-anchor="middle" font-family="Arial, sans-serif" font-size="14" fill="#FFFFFF" opacity="0.86">72</text>
      </g>
      </g>
      </g>
      </g>
      </g>
      </g>
      </g>
  </g>
  <g transform="translate(999.2, 75.1)">
      <g transform="translate(-4.82,-1.05) rotate(1.11) scale(1.000)">
        <g transform="translate(-4.86,0.14) rotate(4.11) scale(0.980)">
        <g transform="translate(-3.71,1.31) rotate(8.76) scale(0.960)">
        <g transform="translate(-1.65,2.37) rotate(14.67) scale(0.940)">
        <g transform="translate(0.81,3.22) rotate(21.35) scale(0.920)">
        <g transform="translate(3.08,3.78) rotate(28.21) scale(0.900)" mask="url(#maskGradient)">
        <g transform="translate(4.59,4.00) rotate(34.62) scale(0.880)">
        <path d="M0.0,-46.8 L13.7,-18.9 L44.5,-14.4 L22.2,7.2 L27.5,37.8 L0.0,23.4 L-27.5,37.8 L-22.2,7.2 L-44.5,-14.4 L-13.7,-18.9Z" fill="url(#rgrad4)" filter="url(#blur4)" opacity="0.90"/>
      </g>
      </g>
      </g>
      </g>
      </g>
      </g>
      </g>
  </g>
  <g transform="translate(1205.8, 82.7)">
      <g transform="translate(-3.71,2.68) rotate(1.11) scale(1.000)">
        <g transform="translate(-1.65,3.44) rotate(4.11) scale(0.980)">
        <g transform="translate(0.81,3.89) rotate(8.76) scale(0.960)">
        <g transform="translate(3.08,3.99) rotate(14.67) scale(0.940)">
        <g transform="translate(4.59,3.74) rotate(21.35) scale(0.920)">
        <g transform="translate(4.98,3.15) rotate(28.21) scale(0.900)">
        <g transform="translate(4.15,2.28) rotate(34.62) scale(0.880)">
        <rect x="-23.5" y="-23.5" width="46.9" height="46.9" rx="11.7" fill="url(#rgrad0)" filter="url(#shadow)" opacity="0.90"/>
        <circle cx="0" cy="0" r="15.6" fill="url(#rgrad1)" opacity="0.63"/>
      </g>
      </g>
      </g>
      </g>
      </g>
      </g>
      </g>
  </g>
  <g transform="translate(1411.0, 98.4)">
      <g transform="translate(0.81,3.95) rotate(1.11) scale(1.000)">
        <g transform="translate(3.08,3.58) rotate(4.11) scale(0.980)">
        <g transform="translate(4.59,2.89) rotate(8.76) scale(0.960)">
        <g transform="translate(4.98,1.94) rotate(14.67) scale(0.940)" clip-path="url(#clipStar)">
        <g transform="translate(4.15,0.82) rotate(21.35) scale(0.920)">
        <g transform="translate(2.30,-0.37) rotate(28.21) scale(0.900)">
        <g transform="translate(-0.11,-1.53) rotate(34.62) scale(0.880)">
        <path d="M30.7,17.7 L0.0,35.5 L-30.7,17.7 L-30.7,-17.7 L-0.0,-35.5 L30.7,-17.7Z" fill="url(#lgrad1)" filter="url(#blur1)" opacity="0.86"/>
        <ellipse cx="0" cy="0" rx="14.8" ry="9.9" fill="#FFFFFF" opacity="0.43"/>
      </g>
      </g>
      </g>
      </g>
      </g>
      </g>
      </g>
  </g>
  <g transform="translate(1618.4, 114.8)">
      <g transform="translate(4.59,1.59) rotate(1.11) scale(1.000)">
        <g transform="translate(4.98,0.43) rotate(4.11) scale(0.980)">
        <g transform="translate(4.15,-0.77) rotate(8.76) scale(0.960)">
        <g transform="translate(2.30,-1.89) rotate(14.67) scale(0.940)">
        <g transform="translate(-0.11,-2.85) rotate(21.35) scale(0.920)">
        <g transform="translate(-2.49,-3.55) rotate(28.21) scale(0.900)" mask="url(#maskDynamic)">
        <g transform="translate(-4.27,-3.94) rotate(34.62) scale(0.880)">
        <circle cx="0" cy="0" r="36.1" fill="url(#rgrad2)" filter="url(#shadow)" opacity="0.79"/>
        <text x="0" y="5" text-anchor="middle" font-family="Arial, sans-serif" font-size="14" fill="#FFFFFF" opacity="0.79">72</text>
      </g>
      </g>
      </g>
      </g>
      </g>
      </g>
      </g>
  </g>
  <g transform="translate(71.1, 404.3)">
      <g transform="translate(4.15,-2.23) rotate(1.11) scale(1.000)">
        <g transform="translate(2.30,-3.11) rotate(4.11) scale(0.980)">
        <g transform="translate(-0.11,-3.72) rotate(8.76) scale(0.960)">
        <g transform="translate(-2.49,-3.99) rotate(14.67) scale(0.940)">
        <g transform="translate(-4.27,-3.90) rotate(21.35) scale(0.920)">
        <g transform="translate(-4.99,-3.47) rotate(28.21) scale(0.900)">
        <g transform="translate(-4.50,-2.72) rotate(34.62) scale(0.880)">
        <path d="M0.0,-74.0 L21.7,-29.9 L70.4,-22.9 L35.2,11.4 L43.5,59.9 L0.0,37.0 L-43.5,59.9 L-35.2,11.4 L-70.4,-22.9 L-21.7,-29.9Z" fill="url(#rgrad3)" filter="url(#blur3)" opacity="0.70"/>
      </g>
      </g>
      </g>
      </g>
      </g>
      </g>
      </g>
  </g>
  <g transform="translate(290.8, 402.4)">
      <g transform="translate(-0.11,-4.00) rotate(1.11) scale(1.000)">
        <g transform="translate(-2.49,-3.79) rotate(4.11) scale(0.980)">
        <g transform="translate(-4.27,-3.25) rotate(8.76) scale(0.960)">
        <g transform="translate(-4.99,-2.42) rotate(14.67) scale(0.940)" clip-path="url(#clipDynamic)">
        <g transform="translate(-4.50,-1.37) rotate(21.35) scale(0.920)">
        <g transform="translate(-2.90,-0.20) rotate(28.21) scale(0.900)">
        <g transform="translate(-0.60,0.99) rotate(34.62) scale(0.880)">
        <rect x="-31.5" y="-31.5" width="63.0" height="63.0" rx="15.8" fill="url(#lgrad4)" filter="url(#shadow)" opacity="0.59"/>
        <circle cx="0" cy="0" r="21.0" fill="url(#rgrad0)" opacity="0.41"/>
      </g>
      </g>
      </g>
      </g>
      </g>
      </g>
      </g>
  </g>
  <g transform="translate(517.7, 389.9)">
      <g transform="translate(-4.27,-2.09) rotate(1.11) scale(1.000)">
        <g transform="translate(-4.99,-0.99) rotate(4.11) scale(0.980)">
        <g transform="translate(-4.50,0.20) rotate(8.76) scale(0.960)">
        <g transform="translate(-2.90,1.38) rotate(14.67) scale(0.940)">
        <g transform="translate(-0.60,2.42) rotate(21.35) scale(0.920)">
        <g transform="translate(1.86,3.26) rotate(28.21) scale(0.900)" mask="url(#maskStripes)">
        <g transform="translate(3.85,3.80) rotate(34.62) scale(0.880)">
        <path d="M25.6,14.8 L0.0,29.6 L-25.6,14.8 L-25.6,-14.8 L-0.0,-29.6 L25.6,-14.8Z" fill="url(#rgrad0)" filter="url(#blur0)" opacity="0.47"/>
        <ellipse cx="0" cy="0" rx="12.3" ry="8.2" fill="#FFFFFF" opacity="0.23"/>
      </g>
      </g>
      </g>
      </g>
      </g>
      </g>
      </g>
  </g>
  <g transform="translate(750.1, 372.8)">
      <g transform="translate(-4.50,1.74) rotate(1.11) scale(1.000)">
        <g transform="translate(-2.90,2.73) rotate(4.11) scale(0.980)">
        <g transform="translate(-0.60,3.47) rotate(8.76) scale(0.960)">
        <g transform="translate(1.86,3.90) rotate(14.67) scale(0.940)">
        <g transform="translate(3.85,3.99) rotate(21.35) scale(0.920)">
        <g transform="translate(4.91,3.71) rotate(28.21) scale(0.900)">
        <g transform="translate(4.76,3.11) rotate(34.62) scale(0.880)">
        <circle cx="0" cy="0" r="22.7" fill="url(#rgrad1)" filter="url(#shadow)" opacity="0.35"/>
        <text x="0" y="5" text-anchor="middle" font-family="Arial, sans-serif" font-size="14" fill="#FFFFFF" opacity="0.35">72</text>
      </g>
      </g>
      </g>
      </g>
      </g>
      </g>
      </g>
  </g>
  <g transform="translate(984.9, 359.1)">
      <g transform="translate(-0.60,3.97) rotate(1.11) scale(1.000)">
        <g transform="translate(1.86,3.94) rotate(4.11) scale(0.980)">
        <g transform="translate(3.85,3.55) rotate(8.76) scale(0.960)">
        <g transform="translate(4.91,2.84) rotate(14.67) scale(0.940)" clip-path="url(#clipHex)">
        <g transform="translate(4.76,1.88) rotate(21.35) scale(0.920)">
        <g transform="translate(3.45,0.76) rotate(28.21) scale(0.900)">
        <g transform="translate(1.29,-0.44) rotate(34.62) scale(0.880)">
        <path d="M0.0,-55.0 L16.2,-22.2 L52.3,-17.0 L26.1,8.5 L32.3,44.5 L0.0,27.5 L-32.3,44.5 L-26.1,8.5 L-52.3,-17.0 L-16.2,-22.2Z" fill="url(#lgrad2)" filter="url(#blur2)" opacity="0.25"/>
      </g>
      </g>
      </g>
      </g>
      </g>
      </g>
      </g>
  </g>
  <g transform="translate(1218.5, 355.2)">
      <g transform="translate(3.85,2.55) rotate(1.11) scale(1.000)">
        <g transform="translate(4.91,1.52) rotate(4.11) scale(0.980)">
        <g transform="translate(4.76,0.36) rotate(8.76) scale(0.960)">
        <g transform="translate(3.45,-0.83) rotate(14.67) scale(0.940)">
        <g transform="translate(1.29,-1.95) rotate(21.35) scale(0.920)">
        <g transform="translate(-1.18,-2.90) rotate(28.21) scale(0.900)" mask="url(#maskCircleFade)">
        <g transform="translate(-3.37,-3.58) rotate(34.62) scale(0.880)">
        <rect x="-34.6" y="-34.6" width="69.2" height="69.2" rx="17.3" fill="url(#rgrad3)" filter="url(#shadow)" opacity="0.17"/>
        <circle cx="0" cy="0" r="23.1" fill="url(#rgrad4)" opacity="0.12"/>
      </g>
      </g>
      </g>
      </g>
      </g>
      </g>
      </g>
  </g>
  <g transform="translate(1447.5, 363.0)">
      <g transform="translate(4.76,-1.22) rotate(1.11) scale(1.000)">
        <g transform="translate(3.45,-2.29) rotate(4.11) scale(0.980)">
        <g transform="translate(1.29,-3.16) rotate(8.76) scale(0.960)">
        <g transform="translate(-1.18,-3.74) rotate(14.67) scale(0.940)">
        <g transform="translate(-3.37,-3.99) rotate(21.35) scale(0.920)">
        <g transform="translate(-4.73,-3.89) rotate(28.21) scale(0.900)">
        <g transform="translate(-4.93,-3.43) rotate(34.62) scale(0.880)">
        <path d="M38.9,22.5 L0.0,45.0 L-38.9,22.5 L-38.9,-22.5 L-0.0,-45.0 L38.9,-22.5Z" fill="url(#rgrad4)" filter="url(#blur4)" opacity="0.12"/>
        <ellipse cx="0" cy="0" rx="18.7" ry="12.5" fill="#FFFFFF" opacity="0.06"/>
      </g>
      </g>
      </g>
      </g>
      </g>
      </g>
      </g>
  </g>
  <g transform="translate(1669.9, 378.8)">
      <g transform="translate(1.29,-3.86) rotate(1.11) scale(1.000)">
        <g transform="translate(-1.18,-4.00) rotate(4.11) scale(0.980)">
        <g transform="translate(-3.37,-3.77) rotate(8.76) scale(0.960)">
        <g transform="translate(-4.73,-3.21) rotate(14.67) scale(0.940)" clip-path="url(#clipCircle)">
        <g transform="translate(-4.93,-2.36) rotate(21.35) scale(0.920)">
        <g transform="translate(-3.93,-1.30) rotate(28.21) scale(0.900)">
        <g transform="translate(-1.96,-0.13) rotate(34.62) scale(0.880)">
        <circle cx="0" cy="0" r="33.5" fill="url(#lgrad0)" filter="url(#shadow)" opacity="0.10"/>
        <text x="0" y="5" text-anchor="middle" font-family="Arial, sans-serif" font-size="14" fill="#FFFFFF" opacity="0.10">72</text>
      </g>
      </g>
      </g>
      </g>
      </g>
      </g>
      </g>
  </g>
  <g transform="translate(124.9, 675.1)">
      <g transform="translate(-3.37,-2.96) rotate(1.11) scale(1.000)">
        <g transform="translate(-4.73,-2.03) rotate(4.11) scale(0.980)">
        <g transform="translate(-4.93,-0.92) rotate(8.76) scale(0.960)">
        <g transform="translate(-3.93,0.27) rotate(14.67) scale(0.940)">
        <g transform="translate(-1.96,1.44) rotate(21.35) scale(0.920)">
        <g transform="translate(0.48,2.48) rotate(28.21) scale(0.900)" mask="url(#maskGradient)">
        <g transform="translate(2.81,3.29) rotate(34.62) scale(0.880)">
        <path d="M0.0,-52.6 L15.5,-21.3 L50.0,-16.3 L25.0,8.1 L30.9,42.6 L0.0,26.3 L-30.9,42.6 L-25.0,8.1 L-50.0,-16.3 L-15.5,-21.3Z" fill="url(#rgrad1)" filter="url(#blur1)" opacity="0.12"/>
      </g>
      </g>
      </g>
      </g>
      </g>
      </g>
      </g>
  </g>
  <g transform="translate(333.8, 684.4)">
      <g transform="translate(-4.93,0.67) rotate(1.11) scale(1.000)">
        <g transform="translate(-3.93,1.80) rotate(4.11) scale(0.980)">
        <g transform="translate(-1.96,2.78) rotate(8.76) scale(0.960)">
        <g transform="translate(0.48,3.50) rotate(14.67) scale(0.940)">
        <g transform="translate(2.81,3.92) rotate(21.35) scale(0.920)">
        <g transform="translate(4.45,3.98) rotate(28.21) scale(0.900)">
        <g transform="translate(5.00,3.69) rotate(34.62) scale(0.880)">
        <rect x="-22.5" y="-22.5" width="45.0" height="45.0" rx="11.3" fill="url(#rgrad2)" filter="url(#shadow)" opacity="0.17"/>
        <circle cx="0" cy="0" r="15.0" fill="url(#rgrad3)" opacity="0.12"/>
      </g>
      </g>
      </g>
      </g>
      </g>
      </g>
      </g>
  </g>
  <g transform="translate(539.3, 682.2)">
      <g transform="translate(-1.96,3.68) rotate(1.11) scale(1.000)">
        <g transform="translate(0.48,3.98) rotate(4.11) scale(0.980)">
        <g transform="translate(2.81,3.92) rotate(8.76) scale(0.960)">
        <g transform="translate(4.45,3.52) rotate(14.67) scale(0.940)" clip-path="url(#clipRect)">
        <g transform="translate(5.00,2.80) rotate(21.35) scale(0.920)">
        <g transform="translate(4.32,1.83) rotate(28.21) scale(0.900)">
        <g transform="translate(2.59,0.69) rotate(34.62) scale(0.880)">
        <path d="M26.6,15.4 L0.0,30.7 L-26.6,15.4 L-26.6,-15.4 L-0.0,-30.7 L26.6,-15.4Z" fill="url(#lgrad3)" filter="url(#blur3)" opacity="0.25"/>
        <ellipse cx="0" cy="0" rx="12.8" ry="8.5" fill="#FFFFFF" opacity="0.13"/>
      </g>
      </g>
      </g>
      </g>
      </g>
      </g>
      </g>
  </g>
  <g transform="translate(745.0, 669.5)">
      <g transform="translate(2.81,3.31) rotate(1.11) scale(1.000)">
        <g transform="translate(4.45,2.50) rotate(4.11) scale(0.980)">
        <g transform="translate(5.00,1.46) rotate(8.76) scale(0.960)">
        <g transform="translate(4.32,0.29) rotate(14.67) scale(0.940)">
        <g transform="translate(2.59,-0.90) rotate(21.35) scale(0.920)">
        <g transform="translate(0.22,-2.01) rotate(28.21) scale(0.900)" mask="url(#maskDynamic)">
        <g transform="translate(-2.20,-2.94) rotate(34.62) scale(0.880)">
        <circle cx="0" cy="0" r="32.7" fill="url(#rgrad4)" filter="url(#shadow)" opacity="0.36"/>
        <text x="0" y="5" text-anchor="middle" font-family="Arial, sans-serif" font-size="14" fill="#FFFFFF" opacity="0.36">72</text>
      </g>
      </g>
      </g>
      </g>
      </g>
      </g>
      </g>
  </g>
  <g transform="translate(954.4, 652.4)">
      <g transform="translate(5.00,-0.10) rotate(1.11) scale(1.000)">
        <g transform="translate(4.32,-1.28) rotate(4.11) scale(0.980)">
        <g transform="translate(2.59,-2.34) rotate(8.76) scale(0.960)">
        <g transform="translate(0.22,-3.20) rotate(14.67) scale(0.940)">
        <g transform="translate(-2.20,-3.76) rotate(21.35) scale(0.920)">
        <g transform="translate(-4.08,-4.00) rotate(28.21) scale(0.900)">
        <g transform="translate(-4.97,-3.87) rotate(34.62) scale(0.880)">
        <path d="M0.0,-74.7 L22.0,-30.2 L71.1,-23.1 L35.5,11.5 L43.9,60.4 L0.0,37.4 L-43.9,60.4 L-35.5,11.5 L-71.1,-23.1 L-22.0,-30.2Z" fill="url(#rgrad0)" filter="url(#blur0)" opacity="0.48"/>
      </g>
      </g>
      </g>
      </g>
      </g>
      </g>
      </g>
  </g>
  <g transform="translate(1170.0, 638.8)">
      <g transform="translate(2.59,-3.42) rotate(1.11) scale(1.000)">
        <g transform="translate(0.22,-3.88) rotate(4.11) scale(0.980)">
        <g transform="translate(-2.20,-3.99) rotate(8.76) scale(0.960)">
        <g transform="translate(-4.08,-3.75) rotate(14.67) scale(0.940)" clip-path="url(#clipStar)">
        <g transform="translate(-4.97,-3.17) rotate(21.35) scale(0.920)">
        <g transform="translate(-4.63,-2.31) rotate(28.21) scale(0.900)">
        <g transform="translate(-3.17,-1.24) rotate(34.62) scale(0.880)">
        <rect x="-35.2" y="-35.2" width="70.4" height="70.4" rx="17.6" fill="url(#lgrad1)" filter="url(#shadow)" opacity="0.60"/>
        <circle cx="0" cy="0" r="23.5" fill="url(#rgrad2)" opacity="0.42"/>
      </g>
      </g>
      </g>
      </g>
      </g>
      </g>
      </g>
  </g>
  <g transform="translate(1393.0, 635.2)">
      <g transform="translate(-2.20,-3.59) rotate(1.11) scale(1.000)">
        <g transform="translate(-4.08,-2.91) rotate(4.11) scale(0.980)">
        <g transform="translate(-4.97,-1.97) rotate(8.76) scale(0.960)">
        <g transform="translate(-4.63,-0.85) rotate(14.67) scale(0.940)">
        <g transform="translate(-3.17,0.34) rotate(21.35) scale(0.920)">
        <g transform="translate(-0.93,1.50) rotate(28.21) scale(0.900)" mask="url(#maskStripes)">
        <g transform="translate(1.54,2.53) rotate(34.62) scale(0.880)">
        <path d="M29.4,17.0 L0.0,33.9 L-29.4,17.0 L-29.4,-17.0 L-0.0,-33.9 L29.4,-17.0Z" fill="url(#rgrad2)" filter="url(#blur2)" opacity="0.71"/>
        <ellipse cx="0" cy="0" rx="14.1" ry="9.4" fill="#FFFFFF" opacity="0.35"/>
      </g>
      </g>
      </g>
      </g>
      </g>
      </g>
      </g>
  </g>
  <g transform="translate(1622.6, 643.3)">
      <g transform="translate(-4.97,-0.46) rotate(1.11) scale(1.000)">
        <g transform="translate(-4.63,0.73) rotate(4.11) scale(0.980)">
        <g transform="translate(-3.17,1.86) rotate(8.76) scale(0.960)">
        <g transform="translate(-0.93,2.83) rotate(14.67) scale(0.940)">
        <g transform="translate(1.54,3.54) rotate(21.35) scale(0.920)">
        <g transform="translate(3.63,3.93) rotate(28.21) scale(0.900)">
        <g transform="translate(4.84,3.97) rotate(34.62) scale(0.880)">
        <circle cx="0" cy="0" r="22.9" fill="url(#rgrad3)" filter="url(#shadow)" opacity="0.80"/>
        <text x="0" y="5" text-anchor="middle" font-family="Arial, sans-serif" font-size="14" fill="#FFFFFF" opacity="0.80">72</text>
      </g>
      </g>
      </g>
      </g>
      </g>
      </g>
      </g>
  </g>
  <g transform="translate(96.4, 939.2)">
      <g transform="translate(-3.17,3.09) rotate(1.11) scale(1.000)">
        <g transform="translate(-0.93,3.71) rotate(4.11) scale(0.980)">
        <g transform="translate(1.54,3.99) rotate(8.76) scale(0.960)">
        <g transform="translate(3.63,3.91) rotate(14.67) scale(0.940)" clip-path="url(#clipDynamic)">
        <g transform="translate(4.84,3.48) rotate(21.35) scale(0.920)">
        <g transform="translate(4.85,2.75) rotate(28.21) scale(0.900)">
        <g transform="translate(3.68,1.76) rotate(34.62) scale(0.880)">
        <path d="M0.0,-48.2 L14.2,-19.5 L45.8,-14.9 L22.9,7.4 L28.3,39.0 L0.0,24.1 L-28.3,39.0 L-22.9,7.4 L-45.8,-14.9 L-14.2,-19.5Z" fill="url(#lgrad4)" filter="url(#blur4)" opacity="0.86"/>
      </g>
      </g>
      </g>
      </g>
      </g>
      </g>
      </g>
  </g>
  <g transform="translate(343.2, 372.2)" mask="url(#maskGradient)">
    <ellipse cx="0" cy="0" rx="200" ry="150" fill="url(#rgrad0)" filter="url(#blur3)" opacity="0.3"/>
  </g>
  <g transform="translate(899.2, 332.9)" mask="url(#maskCircleFade)">
    <ellipse cx="0" cy="0" rx="200" ry="150" fill="url(#rgrad1)" filter="url(#blur3)" opacity="0.3"/>
  </g>
  <g transform="translate(1364.0, 278.2)" mask="url(#maskStripes)">
    <ellipse cx="0" cy="0" rx="200" ry="150" fill="url(#rgrad2)" filter="url(#blur3)" opacity="0.3"/>
  </g>
</svg>