<?xml version="1.0" encoding="UTF-8"?>
<svg xmlns="http://www.w3.org/2000/svg" viewBox="0 0 1920 1080" width="1920" height="1080">
  <defs>
    <filter id="blur0" x="-50%" y="-50%" width="200%" height="200%">
      <feGaussianBlur in="SourceGraphic" stdDeviation="1"/>
    </filter>
    <filter id="blur1" x="-50%" y="-50%" width="200%" height="200%">
      <feGaussianBlur in="SourceGraphic" stdDeviation="3"/>
    </filter>
    <filter id="blur2" x="-50%" y="-50%" width="200%" height="200%">
      <feGaussianBlur in="SourceGraphic" stdDeviation="5"/>
    </filter>
    <filter id="blur3" x="-50%" y="-50%" width="200%" height="200%">
      <feGaussianBlur in="SourceGraphic" stdDeviation="7"/>
    </filter>
    <filter id="blur4" x="-50%" y="-50%" width="200%" height="200%">
      <feGaussianBlur in="SourceGraphic" stdDeviation="9"/>
    </filter>
    <filter id="shadow" x="-50%" y="-50%" width="200%" height="200%">
      <feGaussianBlur in="SourceAlpha" stdDeviation="3" result="blur"/>
      <feOffset in="blur" dx="4" dy="4" result="offsetBlur"/>
      <feMerge>
        <feMergeNode in="offsetBlur"/>
        <feMergeNode in="SourceGraphic"/>
      </feMerge>
    </filter>
    <linearGradient id="lgrad0" x1="0%" y1="0%" x2="16.9%" y2="87.4%">
      <stop offset="0%" stop-color="#FF6B6B"/>
      <stop offset="33%" stop-color="#4ECDC4"/>
      <stop offset="66%" stop-color="#45B7D1"/>
      <stop offset="100%" stop-color="#96E6A1"/>
    </linearGradient>
    <linearGradient id="lgrad1" x1="0%" y1="0%" x2="2.6%" y2="65.9%">
      <stop offset="0%" stop-color="#FFE66D"/>
      <stop offset="33%" stop-color="#FF6B6B"/>
      <stop offset="66%" stop-color="#C44D58"/>
      <stop offset="100%" stop-color="#8B0000"/>
    </linearGradient>
    <linearGradient id="lgrad2" x1="0%" y1="0%" x2="1.0%" y2="40.0%">
      <stop offset="0%" stop-color="#4169E1"/>
      <stop offset="33%" stop-color="#7B68EE"/>
      <stop offset="66%" stop-color="#9370DB"/>
      <stop offset="100%" stop-color="#FFD700"/>
    </linearGradient>
    <linearGradient id="lgrad3" x1="0%" y1="0%" x2="12.6%" y2="16.9%">
      <stop offset="0%" stop-color="#32CD32"/>
      <stop offset="33%" stop-color="#228B22"/>
      <stop offset="66%" stop-color="#006400"/>
      <stop offset="100%" stop-color="#ADFF2F"/>
    </linearGradient>
    <linearGradient id="lgrad4" x1="0%" y1="0%" x2="34.1%" y2="2.6%">
      <stop offset="0%" stop-color="#FF1493"/>
      <stop offset="33%" stop-color="#FF69B4"/>
      <stop offset="66%" stop-color="#FFB6C1"/>
      <stop offset="100%" stop-color="#FFC0CB"/>
    </linearGradient>
    <radialGradient id="rgrad0" cx="57.9%" cy="48.6%" r="60%">
      <stop offset="0%" stop-color="#FF6B6B" stop-opacity="1"/>
      <stop offset="50%" stop-color="#4ECDC4" stop-opacity="0.8"/>
      <stop offset="100%" stop-color="#45B7D1" stop-opacity="0.6"/>
    </radialGradient>
    <radialGradient id="rgrad1" cx="67.9%" cy="56.6%" r="60%">
      <stop offset="0%" stop-color="#FFE66D" stop-opacity="1"/>
      <stop offset="50%" stop-color="#FF6B6B" stop-opacity="0.8"/>
      <stop offset="100%" stop-color="#C44D58" stop-opacity="0.6"/>
    </radialGradient>
    <radialGradient id="rgrad2" cx="37.9%" cy="64.6%" r="60%">
      <stop offset="0%" stop-color="#4169E1" stop-opacity="1"/>
      <stop offset="50%" stop-color="#7B68EE" stop-opacity="0.8"/>
      <stop offset="100%" stop-color="#9370DB" stop-opacity="0.6"/>
    </radialGradient>
    <radialGradient id="rgrad3" cx="47.9%" cy="32.6%" r="60%">
      <stop offset="0%" stop-color="#32CD32" stop-opacity="1"/>
      <stop offset="50%" stop-color="#228B22" stop-opacity="0.8"/>
      <stop offset="100%" stop-color="#006400" stop-opacity="0.6"/>
    </radialGradient>
    <radialGradient id="rgrad4" cx="57.9%" cy="40.6%" r="60%">
      <stop offset="0%" stop-color="#FF1493" stop-opacity="1"/>
      <stop offset="50%" stop-color="#FF69B4" stop-opacity="0.8"/>
      <stop offset="100%" stop-color="#FFB6C1" stop-opacity="0.6"/>
    </radialGradient>
    <clipPath id="clipCircle">
      <circle cx="0" cy="0" r="50"/>
    </clipPath>
    <clipPath id="clipStar">
      <path d="M0.0,-50.0 L14.7,-20.2 L47.6,-15.5 L23.8,7.7 L29.4,40.5 L0.0,25.0 L-29.4,40.5 L-23.8,7.7 L-47.6,-15.5 L-14.7,-20.2Z"/>
    </clipPath>
    <clipPath id="clipHex">
      <path d="M39.0,22.5 L0.0,45.0 L-39.0,22.5 L-39.0,-22.5 L-0.0,-45.0 L39.0,-22.5Z"/>
    </clipPath>
    <clipPath id="clipRect">
      <rect x="-40" y="-30" width="80" height="60" rx="10"/>
    </clipPath>
    <clipPath id="clipDynamic">
      <circle cx="0" cy="0" r="25.7"/>
    </clipPath>
    <mask id="maskGradient" maskContentUnits="objectBoundingBox">
      <rect x="0" y="0" width="1" height="1" fill="url(#maskGrad)"/>
    </mask>
    <linearGradient id="maskGrad" x1="0%" y1="0%" x2="100%" y2="100%">
      <stop offset="0%" stop-color="white"/>
      <stop offset="100%" stop-color="black"/>
    </linearGradient>
    <mask id="maskCircleFade">
      <circle cx="0" cy="0" r="60" fill="white"/>
      <circle cx="0" cy="0" r="30" fill="black"/>
    </mask>
    <mask id="maskStripes">
      <rect x="-50" y="-50" width="100" height="100" fill="white"/>
      <rect x="-50" y="-40" width="100" height="10" fill="black"/>
      <rect x="-50" y="-20" width="100" height="10" fill="black"/>
      <rect x="-50" y="0" width="100" height="10" fill="black"/>
      <rect x="-50" y="20" width="100" height="10" fill="black"/>
      <rect x="-50" y="40" width="100" height="10" fill="black"/>
    </mask>
    <mask id="maskDynamic">
      <rect x="-60" y="-60" width="120" height="120" fill="white" fill-opacity="0.53"/>
      <circle cx="0" cy="0" r="25" fill="white"/>
    </mask>
  </defs>
  <rect width="1920" height="1080" fill="url(#lgrad0)"/>
  <g transform="translate(81.3, 119.5)">
      <g transform="translate(-3.12,3.13) rotate(1.65) scale(1.000)">
        <g transform="translate(-0.86,3.72) rotate(1.36) scale(0.980)">
        <g transform="translate(1.61,3.99) rotate(-0.95) scale(0.960)">
        <g transform="translate(3.68,3.90) rotate(-5.21) scale(0.940)" clip-path="url(#clipCircle)">
        <g transform="translate(4.85,3.46) rotate(-11.18) scale(0.920)">
        <g transform="translate(4.84,2.71) rotate(-18.48) scale(0.900)">
        <g transform="translate(3.64,1.72) rotate(-26.60) scale(0.880)">
        <path d="M0.0,-65.0 L19.1,-26.3 L61.8,-20.1 L30.9,10.0 L38.2,52.5 L0.0,32.5 L-38.2,52.5 L-30.9,10.0 L-61.8,-20.1 L-19.1,-26.3Z" fill="url(#lgrad0)" filter="url(#blur0)" opacity="0.63"/>
      </g>
      </g>
      </g>
      </g>
      </g>
      </g>
      </g>
  </g>
  <g transform="translate(314.8, 125.0)">
      <g transform="translate(1.61,3.79) rotate(1.65) scale(1.000)">
        <g transform="translate(3.68,3.24) rotate(1.36) scale(0.980)">
        <g transform="translate(4.85,2.40) rotate(-0.95) scale(0.960)">
        <g transform="translate(4.84,1.35) rotate(-5.21) scale(0.940)">
        <g transform="translate(3.64,0.18) rotate(-11.18) scale(0.920)">
        <g transform="translate(1.55,-1.01) rotate(-18.48) scale(0.900)" mask="url(#maskCircleFade)">
        <g transform="translate(-0.92,-2.11) rotate(-26.60) scale(0.880)">
        <rect x="-25.4" y="-25.4" width="50.8" height="50.8" rx="12.7" fill="url(#rgrad1)" filter="url(#shadow)" opacity="0.51"/>
        <circle cx="0" cy="0" r="16.9" fill="url(#rgrad2)" opacity="0.36"/>
      </g>
      </g>
      </g>
      </g>
      </g>
      </g>
      </g>
  </g>
  <g transform="translate(549.6, 118.7)">
      <g transform="translate(4.85,0.97) rotate(1.65) scale(1.000)">
        <g transform="translate(4.84,-0.22) rotate(1.36) scale(0.980)">
        <g transform="translate(3.64,-1.39) rotate(-0.95) scale(0.960)">
        <g transform="translate(1.55,-2.44) rotate(-5.21) scale(0.940)">
        <g transform="translate(-0.92,-3.27) rotate(-11.18) scale(0.920)">
        <g transform="translate(-3.17,-3.80) rotate(-18.48) scale(0.900)">
        <g transform="translate(-4.63,-4.00) rotate(-26.60) scale(0.880)">
        <path d="M23.4,13.5 L0.0,27.0 L-23.4,13.5 L-23.4,-13.5 L-0.0,-27.0 L23.4,-13.5Z" fill="url(#rgrad2)" filter="url(#blur2)" opacity="0.40"/>
        <ellipse cx="0" cy="0" rx="11.3" ry="7.5" fill="#FFFFFF" opacity="0.20"/>
      </g>
      </g>
      </g>
      </g>
      </g>
      </g>
      </g>
  </g>
  <g transform="translate(782.1, 103.6)">
      <g transform="translate(3.64,-2.74) rotate(1.65) scale(1.000)">
        <g transform="translate(1.55,-3.48) rotate(1.36) scale(0.980)">
        <g transform="translate(-0.92,-3.91) rotate(-0.95) scale(0.960)">
        <g transform="translate(-3.17,-3.99) rotate(-5.21) scale(0.940)" clip-path="url(#clipRect)">
        <g transform="translate(-4.63,-3.71) rotate(-11.18) scale(0.920)">
        <g transform="translate(-4.97,-3.10) rotate(-18.48) scale(0.900)">
        <g transform="translate(-4.08,-2.21) rotate(-26.60) scale(0.880)">
        <circle cx="0" cy="0" r="26.5" fill="url(#lgrad3)" filter="url(#shadow)" opacity="0.29"/>
        <text x="0" y="5" text-anchor="middle" font-family="Arial, sans-serif" font-size="14" fill="#FFFFFF" opacity="0.29">893</text>
      </g>
      </g>
      </g>
      </g>
      </g>
      </g>
      </g>
  </g>
  <g transform="translate(1009.1, 86.8)">
      <g transform="translate(-0.92,-3.93) rotate(1.65) scale(1.000)">
        <g transform="translate(-3.17,-3.54) rotate(1.36) scale(0.980)">
        <g transform="translate(-4.63,-2.83) rotate(-0.95) scale(0.960)">
        <g transform="translate(-4.97,-1.87) rotate(-5.21) scale(0.940)">
        <g transform="translate(-4.08,-0.74) rotate(-11.18) scale(0.920)">
        <g transform="translate(-2.20,0.46) rotate(-18.48) scale(0.900)" mask="url(#maskGradient)">
        <g transform="translate(0.22,1.61) rotate(-26.60) scale(0.880)">
        <path d="M0.0,-67.5 L19.8,-27.3 L64.2,-20.9 L32.1,10.4 L39.7,54.6 L0.0,33.7 L-39.7,54.6 L-32.1,10.4 L-64.2,-20.9 L-19.8,-27.3Z" fill="url(#rgrad4)" filter="url(#blur4)" opacity="0.20"/>
      </g>
      </g>
      </g>
      </g>
      </g>
      </g>
      </g>
  </g>
  <g transform="translate(1229.0, 76.2)">
      <g transform="translate(-4.63,-1.50) rotate(1.65) scale(1.000)">
        <g transform="translate(-4.97,-0.34) rotate(1.36) scale(0.980)">
        <g transform="translate(-4.08,0.85) rotate(-0.95) scale(0.960)">
        <g transform="translate(-2.20,1.97) rotate(-5.21) scale(0.940)">
        <g transform="translate(0.22,2.91) rotate(-11.18) scale(0.920)">
        <g transform="translate(2.59,3.59) rotate(-18.48) scale(0.900)">
        <g transform="translate(4.32,3.95) rotate(-26.60) scale(0.880)">
        <rect x="-37.5" y="-37.5" width="75.0" height="75.0" rx="18.7" fill="url(#rgrad0)" filter="url(#shadow)" opacity="0.13"/>
        <circle cx="0" cy="0" r="25.0" fill="url(#rgrad1)" opacity="0.09"/>
      </g>
      </g>
      </g>
      </g>
      </g>
      </g>
      </g>
  </g>
  <g transform="translate(1441.8, 76.8)">
      <g transform="translate(-4.08,2.31) rotate(1.65) scale(1.000)">
        <g transform="translate(-2.20,3.17) rotate(1.36) scale(0.980)">
        <g transform="translate(0.22,3.75) rotate(-0.95) scale(0.960)">
        <g transform="translate(2.59,3.99) rotate(-5.21) scale(0.940)" clip-path="url(#clipStar)">
        <g transform="translate(4.32,3.88) rotate(-11.18) scale(0.920)">
        <g transform="translate(5.00,3.42) rotate(-18.48) scale(0.900)">
        <g transform="translate(4.45,2.66) rotate(-26.60) scale(0.880)">
        <path d="M35.7,20.6 L0.0,41.2 L-35.7,20.6 L-35.7,-20.6 L-0.0,-41.2 L35.7,-20.6Z" fill="url(#lgrad1)" filter="url(#blur1)" opacity="0.10"/>
        <ellipse cx="0" cy="0" rx="17.2" ry="11.5" fill="#FFFFFF" opacity="0.05"/>
      </g>
      </g>
      </g>
      </g>
      </g>
      </g>
      </g>
  </g>
  <g transform="translate(1649.3, 88.3)">
      <g transform="translate(0.22,4.00) rotate(1.65) scale(1.000)">
        <g transform="translate(2.59,3.77) rotate(1.36) scale(0.980)">
        <g transform="translate(4.32,3.20) rotate(-0.95) scale(0.960)">
        <g transform="translate(5.00,2.35) rotate(-5.21) scale(0.940)">
        <g transform="translate(4.45,1.28) rotate(-11.18) scale(0.920)">
        <g transform="translate(2.81,0.11) rotate(-18.48) scale(0.900)" mask="url(#maskDynamic)">
        <g transform="translate(0.49,-1.08) rotate(-26.60) scale(0.880)">
        <circle cx="0" cy="0" r="27.2" fill="url(#rgrad2)" filter="url(#shadow)" opacity="0.11"/>
        <text x="0" y="5" text-anchor="middle" font-family="Arial, sans-serif" font-size="14" fill="#FFFFFF" opacity="0.11">893</text>
      </g>
      </g>
      </g>
      </g>
      </g>
      </g>
      </g>
  </g>
  <g transform="translate(94.5, 385.3)">
      <g transform="translate(4.32,2.01) rotate(1.65) scale(1.000)">
        <g transform="translate(5.00,0.90) rotate(1.36) scale(0.980)">
        <g transform="translate(4.45,-0.29) rotate(-0.95) scale(0.960)">
        <g transform="translate(2.81,-1.46) rotate(-5.21) scale(0.940)">
        <g transform="translate(0.49,-2.49) rotate(-11.18) scale(0.920)">
        <g transform="translate(-1.96,-3.31) rotate(-18.48) scale(0.900)">
        <g transform="translate(-3.92,-3.82) rotate(-26.60) scale(0.880)">
        <path d="M0.0,-45.3 L13.3,-18.3 L43.1,-14.0 L21.5,7.0 L26.6,36.6 L0.0,22.6 L-26.6,36.6 L-21.5,7.0 L-43.1,-14.0 L-13.3,-18.3Z" fill="url(#rgrad3)" filter="url(#blur3)" opacity="0.15"/>
      </g>
      </g>
      </g>
      </g>
      </g>
      </g>
      </g>
  </g>
  <g transform="translate(301.0, 399.8)">
      <g transform="translate(4.45,-1.82) rotate(1.65) scale(1.000)">
        <g transform="translate(2.81,-2.79) rotate(1.36) scale(0.980)">
        <g transform="translate(0.49,-3.51) rotate(-0.95) scale(0.960)">
        <g transform="translate(-1.96,-3.92) rotate(-5.21) scale(0.940)" clip-path="url(#clipDynamic)">
        <g transform="translate(-3.92,-3.98) rotate(-11.18) scale(0.920)">
        <g transform="translate(-4.93,-3.68) rotate(-18.48) scale(0.900)">
        <g transform="translate(-4.73,-3.05) rotate(-26.60) scale(0.880)">
        <rect x="-24.8" y="-24.8" width="49.7" height="49.7" rx="12.4" fill="url(#lgrad4)" filter="url(#shadow)" opacity="0.22"/>
        <circle cx="0" cy="0" r="16.6" fill="url(#rgrad0)" opacity="0.15"/>
      </g>
      </g>
      </g>
      </g>
      </g>
      </g>
      </g>
  </g>
  <g transform="translate(512.2, 405.0)">
      <g transform="translate(0.49,-3.98) rotate(1.65) scale(1.000)">
        <g transform="translate(-1.96,-3.92) rotate(1.36) scale(0.980)">
        <g transform="translate(-3.92,-3.51) rotate(-0.95) scale(0.960)">
        <g transform="translate(-4.93,-2.78) rotate(-5.21) scale(0.940)">
        <g transform="translate(-4.73,-1.81) rotate(-11.18) scale(0.920)">
        <g transform="translate(-3.37,-0.67) rotate(-18.48) scale(0.900)" mask="url(#maskStripes)">
        <g transform="translate(-1.19,0.52) rotate(-26.60) scale(0.880)">
        <path d="M33.0,19.1 L0.0,38.1 L-33.0,19.1 L-33.0,-19.1 L-0.0,-38.1 L33.0,-19.1Z" fill="url(#rgrad0)" filter="url(#blur0)" opacity="0.32"/>
        <ellipse cx="0" cy="0" rx="15.9" ry="10.6" fill="#FFFFFF" opacity="0.16"/>
      </g>
      </g>
      </g>
      </g>
      </g>
      </g>
      </g>
  </g>
  <g transform="translate(730.2, 398.4)">
      <g transform="translate(-3.92,-2.48) rotate(1.65) scale(1.000)">
        <g transform="translate(-4.93,-1.44) rotate(1.36) scale(0.980)">
        <g transform="translate(-4.73,-0.27) rotate(-0.95) scale(0.960)">
        <g transform="translate(-3.37,0.92) rotate(-5.21) scale(0.940)">
        <g transform="translate(-1.19,2.03) rotate(-11.18) scale(0.920)">
        <g transform="translate(1.29,2.96) rotate(-18.48) scale(0.900)">
        <g transform="translate(3.45,3.62) rotate(-26.60) scale(0.880)">
        <circle cx="0" cy="0" r="37.1" fill="url(#rgrad1)" filter="url(#shadow)" opacity="0.43"/>
        <text x="0" y="5" text-anchor="middle" font-family="Arial, sans-serif" font-size="14" fill="#FFFFFF" opacity="0.43">893</text>
      </g>
      </g>
      </g>
      </g>
      </g>
      </g>
      </g>
  </g>
  <g transform="translate(955.5, 383.2)">
      <g transform="translate(-4.73,1.30) rotate(1.65) scale(1.000)">
        <g transform="translate(-3.37,2.36) rotate(1.36) scale(0.980)">
        <g transform="translate(-1.19,3.21) rotate(-0.95) scale(0.960)">
        <g transform="translate(1.29,3.77) rotate(-5.21) scale(0.940)" clip-path="url(#clipHex)">
        <g transform="translate(3.45,4.00) rotate(-11.18) scale(0.920)">
        <g transform="translate(4.76,3.86) rotate(-18.48) scale(0.900)">
        <g transform="translate(4.91,3.39) rotate(-26.60) scale(0.880)">
        <path d="M0.0,-71.8 L21.1,-29.0 L68.3,-22.2 L34.1,11.1 L42.2,58.1 L0.0,35.9 L-42.2,58.1 L-34.1,11.1 L-68.3,-22.2 L-21.1,-29.0Z" fill="url(#lgrad2)" filter="url(#blur2)" opacity="0.55"/>
      </g>
      </g>
      </g>
      </g>
      </g>
      </g>
      </g>
  </g>
  <g transform="translate(1186.8, 366.4)">
      <g transform="translate(-1.19,3.89) rotate(1.65) scale(1.000)">
        <g transform="translate(1.29,3.99) rotate(1.36) scale(0.980)">
        <g transform="translate(3.45,3.74) rotate(-0.95) scale(0.960)">
        <g transform="translate(4.76,3.16) rotate(-5.21) scale(0.940)">
        <g transform="translate(4.91,2.29) rotate(-11.18) scale(0.920)">
        <g transform="translate(3.86,1.22) rotate(-18.48) scale(0.900)" mask="url(#maskCircleFade)">
        <g transform="translate(1.86,0.04) rotate(-26.60) scale(0.880)">
        <rect x="-29.3" y="-29.3" width="58.5" height="58.5" rx="14.6" fill="url(#rgrad3)" filter="url(#shadow)" opacity="0.66"/>
        <circle cx="0" cy="0" r="19.5" fill="url(#rgrad4)" opacity="0.46"/>
      </g>
      </g>
      </g>
      </g>
      </g>
      </g>
      </g>
  </g>
  <g transform="translate(1421.3, 356.1)">
      <g transform="translate(3.45,2.90) rotate(1.65) scale(1.000)">
        <g transform="translate(4.76,1.95) rotate(1.36) scale(0.980)">
        <g transform="translate(4.91,0.83) rotate(-0.95) scale(0.960)">
        <g transform="translate(3.86,-0.36) rotate(-5.21) scale(0.940)">
        <g transform="translate(1.86,-1.52) rotate(-11.18) scale(0.920)">
        <g transform="translate(-0.59,-2.55) rotate(-18.48) scale(0.900)">
        <g transform="translate(-2.90,-3.34) rotate(-26.60) scale(0.880)">
        <path d="M24.2,14.0 L0.0,28.0 L-24.2,14.0 L-24.2,-14.0 L-0.0,-28.0 L24.2,-14.0Z" fill="url(#rgrad4)" filter="url(#blur4)" opacity="0.76"/>
        <ellipse cx="0" cy="0" rx="11.7" ry="7.8" fill="#FFFFFF" opacity="0.38"/>
      </g>
      </g>
      </g>
      </g>
      </g>
      </g>
      </g>
  </g>
  <g transform="translate(1655.5, 357.0)">
      <g transform="translate(4.91,-0.75) rotate(1.65) scale(1.000)">
        <g transform="translate(3.86,-1.88) rotate(1.36) scale(0.980)">
        <g transform="translate(1.86,-2.84) rotate(-0.95) scale(0.960)">
        <g transform="translate(-0.59,-3.55) rotate(-5.21) scale(0.940)" clip-path="url(#clipCircle)">
        <g transform="translate(-2.90,-3.93) rotate(-11.18) scale(0.920)">
        <g transform="translate(-4.50,-3.97) rotate(-18.48) scale(0.900)">
        <g transform="translate(-4.99,-3.65) rotate(-26.60) scale(0.880)">
        <circle cx="0" cy="0" r="23.5" fill="url(#lgrad0)" filter="url(#shadow)" opacity="0.84"/>
        <text x="0" y="5" text-anchor="middle" font-family="Arial, sans-serif" font-size="14" fill="#FFFFFF" opacity="0.84">893</text>
      </g>
      </g>
      </g>
      </g>
      </g>
      </g>
      </g>
  </g>
  <g transform="translate(125.9, 648.7)">
      <g transform="translate(1.86,-3.71) rotate(1.65) scale(1.000)">
        <g transform="translate(-0.59,-3.99) rotate(1.36) scale(0.980)">
        <g transform="translate(-2.90,-3.90) rotate(-0.95) scale(0.960)">
        <g transform="translate(-4.50,-3.47) rotate(-5.21) scale(0.940)">
        <g transform="translate(-4.99,-2.73) rotate(-11.18) scale(0.920)">
        <g transform="translate(-4.27,-1.75) rotate(-18.48) scale(0.900)" mask="url(#maskGradient)">
        <g transform="translate(-2.50,-0.60) rotate(-26.60) scale(0.880)">
        <path d="M0.0,-59.3 L17.4,-24.0 L56.4,-18.3 L28.2,9.2 L34.9,48.0 L0.0,29.7 L-34.9,48.0 L-28.2,9.2 L-56.4,-18.3 L-17.4,-24.0Z" fill="url(#rgrad1)" filter="url(#blur1)" opacity="0.89"/>
      </g>
      </g>
      </g>
      </g>
      </g>
      </g>
      </g>
  </g>
  <g transform="translate(350.0, 665.7)">
      <g transform="translate(-2.90,-3.26) rotate(1.65) scale(1.000)">
        <g transform="translate(-4.50,-2.43) rotate(1.36) scale(0.980)">
        <g transform="translate(-4.99,-1.38) rotate(-0.95) scale(0.960)">
        <g transform="translate(-4.27,-0.21) rotate(-5.21) scale(0.940)">
        <g transform="translate(-2.50,0.98) rotate(-11.18) scale(0.920)">
        <g transform="translate(-0.11,2.08) rotate(-18.48) scale(0.900)">
        <g transform="translate(2.30,3.00) rotate(-26.60) scale(0.880)">
        <rect x="-36.1" y="-36.1" width="72.2" height="72.2" rx="18.1" fill="url(#rgrad2)" filter="url(#shadow)" opacity="0.90"/>
        <circle cx="0" cy="0" r="24.1" fill="url(#rgrad3)" opacity="0.63"/>
      </g>
      </g>
      </g>
      </g>
      </g>
      </g>
      </g>
  </g>
  <g transform="translate(566.7, 680.1)">
      <g transform="translate(-4.99,0.19) rotate(1.65) scale(1.000)">
        <g transform="translate(-4.27,1.37) rotate(1.36) scale(0.980)">
        <g transform="translate(-2.50,2.42) rotate(-0.95) scale(0.960)">
        <g transform="translate(-0.11,3.25) rotate(-5.21) scale(0.940)" clip-path="url(#clipRect)">
        <g transform="translate(2.30,3.79) rotate(-11.18) scale(0.920)">
        <g transform="translate(4.15,4.00) rotate(-18.48) scale(0.900)">
        <g transform="translate(4.98,3.85) rotate(-26.60) scale(0.880)">
        <path d="M38.4,22.2 L0.0,44.3 L-38.4,22.2 L-38.4,-22.2 L-0.0,-44.3 L38.4,-22.2Z" fill="url(#lgrad3)" filter="url(#blur3)" opacity="0.88"/>
        <ellipse cx="0" cy="0" rx="18.5" ry="12.3" fill="#FFFFFF" opacity="0.44"/>
      </g>
      </g>
      </g>
      </g>
      </g>
      </g>
      </g>
  </g>
  <g transform="translate(776.9, 685.0)">
      <g transform="translate(-2.50,3.47) rotate(1.65) scale(1.000)">
        <g transform="translate(-0.11,3.90) rotate(1.36) scale(0.980)">
        <g transform="translate(2.30,3.99) rotate(-0.95) scale(0.960)">
        <g transform="translate(4.15,3.72) rotate(-5.21) scale(0.940)">
        <g transform="translate(4.98,3.12) rotate(-11.18) scale(0.920)">
        <g transform="translate(4.59,2.24) rotate(-18.48) scale(0.900)" mask="url(#maskDynamic)">
        <g transform="translate(3.08,1.16) rotate(-26.60) scale(0.880)">
        <circle cx="0" cy="0" r="31.4" fill="url(#rgrad4)" filter="url(#shadow)" opacity="0.82"/>
        <text x="0" y="5" text-anchor="middle" font-family="Arial, sans-serif" font-size="14" fill="#FFFFFF" opacity="0.82">893</text>
      </g>
      </g>
      </g>
      </g>
      </g>
      </g>
      </g>
  </g>
  <g transform="translate(982.9, 678.1)">
      <g transform="translate(2.30,3.55) rotate(1.65) scale(1.000)">
        <g transform="translate(4.15,2.85) rotate(1.36) scale(0.980)">
        <g transform="translate(4.98,1.89) rotate(-0.95) scale(0.960)">
        <g transform="translate(4.59,0.77) rotate(-5.21) scale(0.940)">
        <g transform="translate(3.08,-0.43) rotate(-11.18) scale(0.920)">
        <g transform="translate(0.82,-1.58) rotate(-18.48) scale(0.900)">
        <g transform="translate(-1.65,-2.60) rotate(-26.60) scale(0.880)">
        <path d="M0.0,-49.1 L14.4,-19.9 L46.7,-15.2 L23.3,7.6 L28.9,39.7 L0.0,24.5 L-28.9,39.7 L-23.3,7.6 L-46.7,-15.2 L-14.4,-19.9Z" fill="url(#rgrad0)" filter="url(#blur0)" opacity="0.73"/>
      </g>
      </g>
      </g>
      </g>
      </g>
      </g>
      </g>
  </g>
  <g transform="translate(1188.3, 662.7)">
      <g transform="translate(4.98,0.37) rotate(1.65) scale(1.000)">
        <g transform="translate(4.59,-0.82) rotate(1.36) scale(0.980)">
        <g transform="translate(3.08,-1.94) rotate(-0.95) scale(0.960)">
        <g transform="translate(0.82,-2.89) rotate(-5.21) scale(0.940)" clip-path="url(#clipStar)">
        <g transform="translate(-1.65,-3.58) rotate(-11.18) scale(0.920)">
        <g transform="translate(-3.71,-3.95) rotate(-18.48) scale(0.900)">
        <g transform="translate(-4.86,-3.96) rotate(-26.60) scale(0.880)">
        <rect x="-22.7" y="-22.7" width="45.4" height="45.4" rx="11.4" fill="url(#lgrad1)" filter="url(#shadow)" opacity="0.63"/>
        <circle cx="0" cy="0" r="15.1" fill="url(#rgrad2)" opacity="0.44"/>
      </g>
      </g>
      </g>
      </g>
      </g>
      </g>
      </g>
  </g>
  <g transform="translate(1396.5, 646.1)">
      <g transform="translate(3.08,-3.15) rotate(1.65) scale(1.000)">
        <g transform="translate(0.82,-3.74) rotate(1.36) scale(0.980)">
        <g transform="translate(-1.65,-3.99) rotate(-0.95) scale(0.960)">
        <g transform="translate(-3.71,-3.89) rotate(-5.21) scale(0.940)">
        <g transform="translate(-4.86,-3.44) rotate(-11.18) scale(0.920)">
        <g transform="translate(-4.83,-2.68) rotate(-18.48) scale(0.900)" mask="url(#maskStripes)">
        <g transform="translate(-3.61,-1.69) rotate(-26.60) scale(0.880)">
        <path d="M28.7,16.6 L0.0,33.1 L-28.7,16.6 L-28.7,-16.6 L-0.0,-33.1 L28.7,-16.6Z" fill="url(#rgrad2)" filter="url(#blur2)" opacity="0.51"/>
        <ellipse cx="0" cy="0" rx="13.8" ry="9.2" fill="#FFFFFF" opacity="0.25"/>
      </g>
      </g>
      </g>
      </g>
      </g>
      </g>
      </g>
  </g>
  <g transform="translate(1610.4, 636.0)">
      <g transform="translate(-1.65,-3.78) rotate(1.65) scale(1.000)">
        <g transform="translate(-3.71,-3.22) rotate(1.36) scale(0.980)">
        <g transform="translate(-4.86,-2.37) rotate(-0.95) scale(0.960)">
        <g transform="translate(-4.83,-1.31) rotate(-5.21) scale(0.940)">
        <g transform="translate(-3.61,-0.14) rotate(-11.18) scale(0.920)">
        <g transform="translate(-1.50,1.05) rotate(-18.48) scale(0.900)">
        <g transform="translate(0.97,2.14) rotate(-26.60) scale(0.880)">
        <circle cx="0" cy="0" r="34.7" fill="url(#rgrad3)" filter="url(#shadow)" opacity="0.39"/>
        <text x="0" y="5" text-anchor="middle" font-family="Arial, sans-serif" font-size="14" fill="#FFFFFF" opacity="0.39">893</text>
      </g>
      </g>
      </g>
      </g>
      </g>
      </g>
      </g>
  </g>
  <g transform="translate(71.6, 917.2)">
      <g transform="translate(-4.86,-0.93) rotate(1.65) scale(1.000)">
        <g transform="translate(-4.83,0.26) rotate(1.36) scale(0.980)">
        <g transform="translate(-3.61,1.43) rotate(-0.95) scale(0.960)">
        <g transform="translate(-1.50,2.47) rotate(-5.21) scale(0.940)" clip-path="url(#clipDynamic)">
        <g transform="translate(0.97,3.29) rotate(-11.18) scale(0.920)">
        <g transform="translate(3.20,3.81) rotate(-18.48) scale(0.900)">
        <g transform="translate(4.65,4.00) rotate(-26.60) scale(0.880)">
        <path d="M0.0,-74.9 L22.0,-30.3 L71.3,-23.2 L35.6,11.6 L44.0,60.6 L0.0,37.5 L-44.0,60.6 L-35.6,11.6 L-71.3,-23.2 L-22.0,-30.3Z" fill="url(#lgrad4)" filter="url(#blur4)" opacity="0.28"/>
      </g>
      </g>
      </g>
      </g>
      </g>
      </g>
      </g>
  </g>
  <g transform="translate(237.7, 362.6)" mask="url(#maskGradient)">
    <ellipse cx="0" cy="0" rx="200" ry="150" fill="url(#rgrad0)" filter="url(#blur3)" opacity="0.3"/>
  </g>
  <g transform="translate(832.1, 380.0)" mask="url(#maskCircleFade)">
    <ellipse cx="0" cy="0" rx="200" ry="150" fill="url(#rgrad1)" filter="url(#blur3)" opacity="0.3"/>
  </g>
  <g transform="translate(1397.0, 359.8)" mask="url(#maskStripes)">
    <ellipse cx="0" cy="0" rx="200" ry="150" fill="url(#rgrad2)" filter="url(#blur3)" opacity="0.3"/>
  </g>
</svg>