<?xml version="1.0" encoding="UTF-8"?>
<svg xmlns="http://www.w3.org/2000/svg" viewBox="0 0 1920 1080" width="1920" height="1080">
  <defs>
    <filter id="blur0" x="-50%" y="-50%" width="200%" height="200%">
      <feGaussianBlur in="SourceGraphic" stdDeviation="1"/>
    </filter>
    <filter id="blur1" x="-50%" y="-50%" width="200%" height="200%">
      <feGaussianBlur in="SourceGraphic" stdDeviation="3"/>
    </filter>
    <filter id="blur2" x="-50%" y="-50%" width="200%" height="200%">
      <feGaussianBlur in="SourceGraphic" stdDeviation="5"/>
    </filter>
    <filter id="blur3" x="-50%" y="-50%" width="200%" height="200%">
      <feGaussianBlur in="SourceGraphic" stdDeviation="7"/>
    </filter>
    <filter id="blur4" x="-50%" y="-50%" width="200%" height="200%">
      <feGaussianBlur in="SourceGraphic" stdDeviation="9"/>
    </filter>
    <filter id="shadow" x="-50%" y="-50%" width="200%" height="200%">
      <feGaussianBlur in="SourceAlpha" stdDeviation="3" result="blur"/>
      <feOffset in="blur" dx="4" dy="4" result="offsetBlur"/>
      <feMerge>
        <feMergeNode in="offsetBlur"/>
        <feMergeNode in="SourceGraphic"/>
      </feMerge>
    </filter>
    <linearGradient id="lgrad0" x1="0%" y1="0%" x2="1.1%" y2="60.4%">
      <stop offset="0%" stop-color="#FF6B6B"/>
      <stop offset="33%" stop-color="#4ECDC4"/>
      <stop offset="66%" stop-color="#45B7D1"/>
      <stop offset="100%" stop-color="#96E6A1"/>
    </linearGradient>
    <linearGradient id="lgrad1" x1="0%" y1="0%" x2="2.4%" y2="34.5%">
      <stop offset="0%" stop-color="#FFE66D"/>
      <stop offset="33%" stop-color="#FF6B6B"/>
      <stop offset="66%" stop-color="#C44D58"/>
      <stop offset="100%" stop-color="#8B0000"/>
    </linearGradient>
    <linearGradient id="lgrad2" x1="0%" y1="0%" x2="16.5%" y2="12.8%">
      <stop offset="0%" stop-color="#4169E1"/>
      <stop offset="33%" stop-color="#7B68EE"/>
      <stop offset="66%" stop-color="#9370DB"/>
      <stop offset="100%" stop-color="#FFD700"/>
    </linearGradient>
    <linearGradient id="lgrad3" x1="0%" y1="0%" x2="39.6%" y2="1.1%">
      <stop offset="0%" stop-color="#32CD32"/>
      <stop offset="33%" stop-color="#228B22"/>
      <stop offset="66%" stop-color="#006400"/>
      <stop offset="100%" stop-color="#ADFF2F"/>
    </linearGradient>
    <linearGradient id="lgrad4" x1="0%" y1="0%" x2="65.5%" y2="2.4%">
      <stop offset="0%" stop-color="#FF1493"/>
      <stop offset="33%" stop-color="#FF69B4"/>
      <stop offset="66%" stop-color="#FFB6C1"/>
      <stop offset="100%" stop-color="#FFC0CB"/>
    </linearGradient>
    <radialGradient id="rgrad0" cx="63.8%" cy="39.2%" r="60%">
      <stop offset="0%" stop-color="#FF6B6B" stop-opacity="1"/>
      <stop offset="50%" stop-color="#4ECDC4" stop-opacity="0.8"/>
      <stop offset="100%" stop-color="#45B7D1" stop-opacity="0.6"/>
    </radialGradient>
    <radialGradient id="rgrad1" cx="33.8%" cy="47.2%" r="60%">
      <stop offset="0%" stop-color="#FFE66D" stop-opacity="1"/>
      <stop offset="50%" stop-color="#FF6B6B" stop-opacity="0.8"/>
      <stop offset="100%" stop-color="#C44D58" stop-opacity="0.6"/>
    </radialGradient>
    <radialGradient id="rgrad2" cx="43.8%" cy="55.2%" r="60%">
      <stop offset="0%" stop-color="#4169E1" stop-opacity="1"/>
      <stop offset="50%" stop-color="#7B68EE" stop-opacity="0.8"/>
      <stop offset="100%" stop-color="#9370DB" stop-opacity="0.6"/>
    </radialGradient>
    <radialGradient id="rgrad3" cx="53.8%" cy="63.2%" r="60%">
      <stop offset="0%" stop-color="#32CD32" stop-opacity="1"/>
      <stop offset="50%" stop-color="#228B22" stop-opacity="0.8"/>
      <stop offset="100%" stop-color="#006400" stop-opacity="0.6"/>
    </radialGradient>
    <radialGradient id="rgrad4" cx="63.8%" cy="31.2%" r="60%">
      <stop offset="0%" stop-color="#FF1493" stop-opacity="1"/>
      <stop offset="50%" stop-color="#FF69B4" stop-opacity="0.8"/>
      <stop offset="100%" stop-color="#FFB6C1" stop-opacity="0.6"/>
    </radialGradient>
    <clipPath id="clipCircle">
      <circle cx="0" cy="0" r="50"/>
    </clipPath>
    <clipPath id="clipStar">
      <path d="M0.0,-50.0 L14.7,-20.2 L47.6,-15.5 L23.8,7.7 L29.4,40.5 L0.0,25.0 L-29.4,40.5 L-23.8,7.7 L-47.6,-15.5 L-14.7,-20.2Z"/>
    </clipPath>
    <clipPath id="clipHex">
      <path d="M39.0,22.5 L0.0,45.0 L-39.0,22.5 L-39.0,-22.5 L-0.0,-45.0 L39.0,-22.5Z"/>
    </clipPath>
    <clipPath id="clipRect">
      <rect x="-40" y="-30" width="80" height="60" rx="10"/>
    </clipPath>
    <clipPath id="clipDynamic">
      <circle cx="0" cy="0" r="50.0"/>
    </clipPath>
    <mask id="maskGradient" maskContentUnits="objectBoundingBox">
      <rect x="0" y="0" width="1" height="1" fill="url(#maskGrad)"/>
    </mask>
    <linearGradient id="maskGrad" x1="0%" y1="0%" x2="100%" y2="100%">
      <stop offset="0%" stop-color="white"/>
      <stop offset="100%" stop-color="black"/>
    </linearGradient>
    <mask id="maskCircleFade">
      <circle cx="0" cy="0" r="60" fill="white"/>
      <circle cx="0" cy="0" r="30" fill="black"/>
    </mask>
    <mask id="maskStripes">
      <rect x="-50" y="-50" width="100" height="100" fill="white"/>
      <rect x="-50" y="-40" width="100" height="10" fill="black"/>
      <rect x="-50" y="-20" width="100" height="10" fill="black"/>
      <rect x="-50" y="0" width="100" height="10" fill="black"/>
      <rect x="-50" y="20" width="100" height="10" fill="black"/>
      <rect x="-50" y="40" width="100" height="10" fill="black"/>
    </mask>
    <mask id="maskDynamic">
      <rect x="-60" y="-60" width="120" height="120" fill="white" fill-opacity="0.79"/>
      <circle cx="0" cy="0" r="25" fill="white"/>
    </mask>
  </defs>
  <rect width="1920" height="1080" fill="url(#lgrad0)"/>
  <g transform="translate(130.0, 100.7)">
      <g transform="translate(5.00,0.12) rotate(3.48) scale(1.000)">
        <g transform="translate(4.46,-1.07) rotate(8.25) scale(0.980)">
        <g transform="translate(2.83,-2.16) rotate(13.81) scale(0.960)">
        <g transform="translate(0.50,-3.06) rotate(19.60) scale(0.940)" clip-path="url(#clipCircle)">
        <g transform="translate(-1.94,-3.68) rotate(25.00) scale(0.920)">
        <g transform="translate(-3.91,-3.98) rotate(29.40) scale(0.900)">
        <g transform="translate(-4.93,-3.92) rotate(32.24) scale(0.880)">
        <path d="M0.0,-70.4 L20.7,-28.5 L67.0,-21.8 L33.5,10.9 L41.4,57.0 L0.0,35.2 L-41.4,57.0 L-33.5,10.9 L-67.0,-21.8 L-20.7,-28.5Z" fill="url(#lgrad0)" filter="url(#blur0)" opacity="0.78"/>
      </g>
      </g>
      </g>
      </g>
      </g>
      </g>
      </g>
  </g>
  <g transform="translate(346.7, 84.5)">
      <g transform="translate(2.83,-3.30) rotate(3.48) scale(1.000)">
        <g transform="translate(0.50,-3.82) rotate(8.25) scale(0.980)">
        <g transform="translate(-1.94,-4.00) rotate(13.81) scale(0.960)">
        <g transform="translate(-3.91,-3.82) rotate(19.60) scale(0.940)">
        <g transform="translate(-4.93,-3.30) rotate(25.00) scale(0.920)">
        <g transform="translate(-4.73,-2.49) rotate(29.40) scale(0.900)" mask="url(#maskCircleFade)">
        <g transform="translate(-3.38,-1.45) rotate(32.24) scale(0.880)">
        <rect x="-37.4" y="-37.4" width="74.7" height="74.7" rx="18.7" fill="url(#rgrad1)" filter="url(#shadow)" opacity="0.85"/>
        <circle cx="0" cy="0" r="24.9" fill="url(#rgrad2)" opacity="0.60"/>
      </g>
      </g>
      </g>
      </g>
      </g>
      </g>
      </g>
  </g>
  <g transform="translate(557.0, 75.5)">
      <g transform="translate(-1.94,-3.69) rotate(3.48) scale(1.000)">
        <g transform="translate(-3.91,-3.06) rotate(8.25) scale(0.980)">
        <g transform="translate(-4.93,-2.16) rotate(13.81) scale(0.960)">
        <g transform="translate(-4.73,-1.07) rotate(19.60) scale(0.940)">
        <g transform="translate(-3.38,0.11) rotate(25.00) scale(0.920)">
        <g transform="translate(-1.20,1.29) rotate(29.40) scale(0.900)">
        <g transform="translate(1.27,2.35) rotate(32.24) scale(0.880)">
        <path d="M34.0,19.6 L0.0,39.3 L-34.0,19.6 L-34.0,-19.6 L-0.0,-39.3 L34.0,-19.6Z" fill="url(#rgrad2)" filter="url(#blur2)" opacity="0.89"/>
        <ellipse cx="0" cy="0" rx="16.4" ry="10.9" fill="#FFFFFF" opacity="0.45"/>
      </g>
      </g>
      </g>
      </g>
      </g>
      </g>
      </g>
  </g>
  <g transform="translate(763.0, 78.1)">
      <g transform="translate(-4.93,-0.68) rotate(3.48) scale(1.000)">
        <g transform="translate(-4.73,0.51) rotate(8.25) scale(0.980)">
        <g transform="translate(-3.38,1.66) rotate(13.81) scale(0.960)">
        <g transform="translate(-1.20,2.66) rotate(19.60) scale(0.940)" clip-path="url(#clipRect)">
        <g transform="translate(1.27,3.43) rotate(25.00) scale(0.920)">
        <g transform="translate(3.44,3.88) rotate(29.40) scale(0.900)">
        <g transform="translate(4.76,3.99) rotate(32.24) scale(0.880)">
        <circle cx="0" cy="0" r="25.6" fill="url(#lgrad3)" filter="url(#shadow)" opacity="0.90"/>
        <text x="0" y="5" text-anchor="middle" font-family="Arial, sans-serif" font-size="14" fill="#FFFFFF" opacity="0.90">246</text>
      </g>
      </g>
      </g>
      </g>
      </g>
      </g>
      </g>
  </g>
  <g transform="translate(968.3, 90.9)">
      <g transform="translate(-3.38,2.95) rotate(3.48) scale(1.000)">
        <g transform="translate(-1.20,3.62) rotate(8.25) scale(0.980)">
        <g transform="translate(1.27,3.96) rotate(13.81) scale(0.960)">
        <g transform="translate(3.44,3.95) rotate(19.60) scale(0.940)">
        <g transform="translate(4.76,3.59) rotate(25.00) scale(0.920)">
        <g transform="translate(4.91,2.91) rotate(29.40) scale(0.900)" mask="url(#maskGradient)">
        <g transform="translate(3.87,1.96) rotate(32.24) scale(0.880)">
        <path d="M0.0,-45.0 L13.2,-18.2 L42.8,-13.9 L21.4,7.0 L26.5,36.4 L0.0,22.5 L-26.5,36.4 L-21.4,7.0 L-42.8,-13.9 L-13.2,-18.2Z" fill="url(#rgrad4)" filter="url(#blur4)" opacity="0.87"/>
      </g>
      </g>
      </g>
      </g>
      </g>
      </g>
      </g>
  </g>
  <g transform="translate(1176.5, 108.1)">
      <g transform="translate(1.27,3.87) rotate(3.48) scale(1.000)">
        <g transform="translate(3.44,3.39) rotate(8.25) scale(0.980)">
        <g transform="translate(4.76,2.62) rotate(13.81) scale(0.960)">
        <g transform="translate(4.91,1.61) rotate(19.60) scale(0.940)">
        <g transform="translate(3.87,0.45) rotate(25.00) scale(0.920)">
        <g transform="translate(1.87,-0.74) rotate(29.40) scale(0.900)">
        <g transform="translate(-0.58,-1.87) rotate(32.24) scale(0.880)">
        <rect x="-26.3" y="-26.3" width="52.6" height="52.6" rx="13.2" fill="url(#rgrad0)" filter="url(#shadow)" opacity="0.81"/>
        <circle cx="0" cy="0" r="17.5" fill="url(#rgrad1)" opacity="0.56"/>
      </g>
      </g>
      </g>
      </g>
      </g>
      </g>
      </g>
  </g>
  <g transform="translate(1390.4, 121.4)">
      <g transform="translate(4.76,1.23) rotate(3.48) scale(1.000)">
        <g transform="translate(4.91,0.05) rotate(8.25) scale(0.980)">
        <g transform="translate(3.87,-1.13) rotate(13.81) scale(0.960)">
        <g transform="translate(1.87,-2.22) rotate(19.60) scale(0.940)" clip-path="url(#clipStar)">
        <g transform="translate(-0.58,-3.10) rotate(25.00) scale(0.920)">
        <g transform="translate(-2.89,-3.71) rotate(29.40) scale(0.900)">
        <g transform="translate(-4.49,-3.99) rotate(32.24) scale(0.880)">
        <path d="M34.8,20.1 L0.0,40.2 L-34.8,20.1 L-34.8,-20.1 L-0.0,-40.2 L34.8,-20.1Z" fill="url(#lgrad1)" filter="url(#blur1)" opacity="0.72"/>
        <ellipse cx="0" cy="0" rx="16.8" ry="11.2" fill="#FFFFFF" opacity="0.36"/>
      </g>
      </g>
      </g>
      </g>
      </g>
      </g>
      </g>
  </g>
  <g transform="translate(1611.6, 124.7)">
      <g transform="translate(3.87,-2.54) rotate(3.48) scale(1.000)">
        <g transform="translate(1.87,-3.34) rotate(8.25) scale(0.980)">
        <g transform="translate(-0.58,-3.84) rotate(13.81) scale(0.960)">
        <g transform="translate(-2.89,-4.00) rotate(19.60) scale(0.940)">
        <g transform="translate(-4.49,-3.80) rotate(25.00) scale(0.920)">
        <g transform="translate(-4.99,-3.26) rotate(29.40) scale(0.900)" mask="url(#maskDynamic)">
        <g transform="translate(-4.27,-2.44) rotate(32.24) scale(0.880)">
        <circle cx="0" cy="0" r="37.5" fill="url(#rgrad2)" filter="url(#shadow)" opacity="0.61"/>
        <text x="0" y="5" text-anchor="middle" font-family="Arial, sans-serif" font-size="14" fill="#FFFFFF" opacity="0.61">246</text>
      </g>
      </g>
      </g>
      </g>
      </g>
      </g>
      </g>
  </g>
  <g transform="translate(79.7, 396.4)">
      <g transform="translate(-0.58,-3.97) rotate(3.48) scale(1.000)">
        <g transform="translate(-2.89,-3.66) rotate(8.25) scale(0.980)">
        <g transform="translate(-4.49,-3.02) rotate(13.81) scale(0.960)">
        <g transform="translate(-4.99,-2.11) rotate(19.60) scale(0.940)">
        <g transform="translate(-4.27,-1.01) rotate(25.00) scale(0.920)">
        <g transform="translate(-2.51,0.18) rotate(29.40) scale(0.900)">
        <g transform="translate(-0.13,1.35) rotate(32.24) scale(0.880)">
        <path d="M0.0,-69.1 L20.3,-28.0 L65.7,-21.4 L32.9,10.7 L40.6,55.9 L0.0,34.6 L-40.6,55.9 L-32.9,10.7 L-65.7,-21.4 L-20.3,-28.0Z" fill="url(#rgrad3)" filter="url(#blur3)" opacity="0.49"/>
      </g>
      </g>
      </g>
      </g>
      </g>
      </g>
      </g>
  </g>
  <g transform="translate(312.8, 380.3)">
      <g transform="translate(-4.49,-1.76) rotate(3.48) scale(1.000)">
        <g transform="translate(-4.99,-0.62) rotate(8.25) scale(0.980)">
        <g transform="translate(-4.27,0.58) rotate(13.81) scale(0.960)">
        <g transform="translate(-2.51,1.72) rotate(19.60) scale(0.940)" clip-path="url(#clipDynamic)">
        <g transform="translate(-0.13,2.71) rotate(25.00) scale(0.920)">
        <g transform="translate(2.28,3.46) rotate(29.40) scale(0.900)">
        <g transform="translate(4.14,3.90) rotate(32.24) scale(0.880)">
        <rect x="-27.5" y="-27.5" width="54.9" height="54.9" rx="13.7" fill="url(#lgrad4)" filter="url(#shadow)" opacity="0.37"/>
        <circle cx="0" cy="0" r="18.3" fill="url(#rgrad0)" opacity="0.26"/>
      </g>
      </g>
      </g>
      </g>
      </g>
      </g>
      </g>
  </g>
  <g transform="translate(547.6, 364.1)">
      <g transform="translate(-4.27,2.07) rotate(3.48) scale(1.000)">
        <g transform="translate(-2.51,2.99) rotate(8.25) scale(0.980)">
        <g transform="translate(-0.13,3.64) rotate(13.81) scale(0.960)">
        <g transform="translate(2.28,3.97) rotate(19.60) scale(0.940)">
        <g transform="translate(4.14,3.94) rotate(25.00) scale(0.920)">
        <g transform="translate(4.98,3.56) rotate(29.40) scale(0.900)" mask="url(#maskStripes)">
        <g transform="translate(4.60,2.86) rotate(32.24) scale(0.880)">
        <path d="M23.6,13.6 L0.0,27.2 L-23.6,13.6 L-23.6,-13.6 L-0.0,-27.2 L23.6,-13.6Z" fill="url(#rgrad0)" filter="url(#blur0)" opacity="0.26"/>
        <ellipse cx="0" cy="0" rx="11.3" ry="7.6" fill="#FFFFFF" opacity="0.13"/>
      </g>
      </g>
      </g>
      </g>
      </g>
      </g>
      </g>
  </g>
  <g transform="translate(780.6, 355.4)">
      <g transform="translate(-0.13,4.00) rotate(3.48) scale(1.000)">
        <g transform="translate(2.28,3.85) rotate(8.25) scale(0.980)">
        <g transform="translate(4.14,3.36) rotate(13.81) scale(0.960)">
        <g transform="translate(4.98,2.57) rotate(19.60) scale(0.940)">
        <g transform="translate(4.60,1.54) rotate(25.00) scale(0.920)">
        <g transform="translate(3.09,0.38) rotate(29.40) scale(0.900)">
        <g transform="translate(0.83,-0.81) rotate(32.24) scale(0.880)">
        <circle cx="0" cy="0" r="24.6" fill="url(#rgrad1)" filter="url(#shadow)" opacity="0.18"/>
        <text x="0" y="5" text-anchor="middle" font-family="Arial, sans-serif" font-size="14" fill="#FFFFFF" opacity="0.18">246</text>
      </g>
      </g>
      </g>
      </g>
      </g>
      </g>
      </g>
  </g>
  <g transform="translate(1008.5, 358.3)">
      <g transform="translate(4.14,2.25) rotate(3.48) scale(1.000)">
        <g transform="translate(4.98,1.17) rotate(8.25) scale(0.980)">
        <g transform="translate(4.60,-0.02) rotate(13.81) scale(0.960)">
        <g transform="translate(3.09,-1.20) rotate(19.60) scale(0.940)" clip-path="url(#clipHex)">
        <g transform="translate(0.83,-2.27) rotate(25.00) scale(0.920)">
        <g transform="translate(-1.63,-3.14) rotate(29.40) scale(0.900)">
        <g transform="translate(-3.70,-3.73) rotate(32.24) scale(0.880)">
        <path d="M0.0,-63.0 L18.5,-25.5 L60.0,-19.5 L30.0,9.7 L37.1,51.0 L0.0,31.5 L-37.1,51.0 L-30.0,9.7 L-60.0,-19.5 L-18.5,-25.5Z" fill="url(#lgrad2)" filter="url(#blur2)" opacity="0.12"/>
      </g>
      </g>
      </g>
      </g>
      </g>
      </g>
      </g>
  </g>
  <g transform="translate(1229.5, 371.3)">
      <g transform="translate(4.60,-1.57) rotate(3.48) scale(1.000)">
        <g transform="translate(3.09,-2.59) rotate(8.25) scale(0.980)">
        <g transform="translate(0.83,-3.37) rotate(13.81) scale(0.960)">
        <g transform="translate(-1.63,-3.86) rotate(19.60) scale(0.940)">
        <g transform="translate(-3.70,-4.00) rotate(25.00) scale(0.920)">
        <g transform="translate(-4.86,-3.78) rotate(29.40) scale(0.900)" mask="url(#maskCircleFade)">
        <g transform="translate(-4.83,-3.23) rotate(32.24) scale(0.880)">
        <rect x="-37.0" y="-37.0" width="74.0" height="74.0" rx="18.5" fill="url(#rgrad3)" filter="url(#shadow)" opacity="0.10"/>
        <circle cx="0" cy="0" r="24.7" fill="url(#rgrad4)" opacity="0.07"/>
      </g>
      </g>
      </g>
      </g>
      </g>
      </g>
      </g>
  </g>
  <g transform="translate(1443.2, 388.5)">
      <g transform="translate(0.83,-3.94) rotate(3.48) scale(1.000)">
        <g transform="translate(-1.63,-3.96) rotate(8.25) scale(0.980)">
        <g transform="translate(-3.70,-3.63) rotate(13.81) scale(0.960)">
        <g transform="translate(-4.86,-2.97) rotate(19.60) scale(0.940)">
        <g transform="translate(-4.83,-2.05) rotate(25.00) scale(0.920)">
        <g transform="translate(-3.62,-0.94) rotate(29.40) scale(0.900)">
        <g transform="translate(-1.52,0.25) rotate(32.24) scale(0.880)">
        <path d="M37.5,21.6 L0.0,43.3 L-37.5,21.6 L-37.5,-21.6 L-0.0,-43.3 L37.5,-21.6Z" fill="url(#rgrad4)" filter="url(#blur4)" opacity="0.11"/>
        <ellipse cx="0" cy="0" rx="18.0" ry="12.0" fill="#FFFFFF" opacity="0.06"/>
      </g>
      </g>
      </g>
      </g>
      </g>
      </g>
      </g>
  </g>
  <g transform="translate(1651.2, 401.6)">
      <g transform="translate(-3.70,-2.69) rotate(3.48) scale(1.000)">
        <g transform="translate(-4.86,-1.70) rotate(8.25) scale(0.980)">
        <g transform="translate(-4.83,-0.55) rotate(13.81) scale(0.960)">
        <g transform="translate(-3.62,0.65) rotate(19.60) scale(0.940)" clip-path="url(#clipCircle)">
        <g transform="translate(-1.52,1.78) rotate(25.00) scale(0.920)">
        <g transform="translate(0.95,2.76) rotate(29.40) scale(0.900)">
        <g transform="translate(3.19,3.49) rotate(32.24) scale(0.880)">
        <circle cx="0" cy="0" r="29.5" fill="url(#lgrad0)" filter="url(#shadow)" opacity="0.16"/>
        <text x="0" y="5" text-anchor="middle" font-family="Arial, sans-serif" font-size="14" fill="#FFFFFF" opacity="0.16">246</text>
      </g>
      </g>
      </g>
      </g>
      </g>
      </g>
      </g>
  </g>
  <g transform="translate(96.5, 684.6)">
      <g transform="translate(-4.83,1.04) rotate(3.48) scale(1.000)">
        <g transform="translate(-3.62,2.13) rotate(8.25) scale(0.980)">
        <g transform="translate(-1.52,3.04) rotate(13.81) scale(0.960)">
        <g transform="translate(0.95,3.67) rotate(19.60) scale(0.940)">
        <g transform="translate(3.19,3.98) rotate(25.00) scale(0.920)">
        <g transform="translate(4.64,3.93) rotate(29.40) scale(0.900)" mask="url(#maskGradient)">
        <g transform="translate(4.96,3.53) rotate(32.24) scale(0.880)">
        <path d="M0.0,-46.9 L13.8,-19.0 L44.6,-14.5 L22.3,7.2 L27.6,37.9 L0.0,23.4 L-27.6,37.9 L-22.3,7.2 L-44.6,-14.5 L-13.8,-19.0Z" fill="url(#rgrad1)" filter="url(#blur1)" opacity="0.24"/>
      </g>
      </g>
      </g>
      </g>
      </g>
      </g>
      </g>
  </g>
  <g transform="translate(302.7, 676.0)">
      <g transform="translate(-1.52,3.81) rotate(3.48) scale(1.000)">
        <g transform="translate(0.95,4.00) rotate(8.25) scale(0.980)">
        <g transform="translate(3.19,3.83) rotate(13.81) scale(0.960)">
        <g transform="translate(4.64,3.32) rotate(19.60) scale(0.940)">
        <g transform="translate(4.96,2.51) rotate(25.00) scale(0.920)">
        <g transform="translate(4.07,1.48) rotate(29.40) scale(0.900)">
        <g transform="translate(2.18,0.32) rotate(32.24) scale(0.880)">
        <rect x="-23.4" y="-23.4" width="46.8" height="46.8" rx="11.7" fill="url(#rgrad2)" filter="url(#shadow)" opacity="0.34"/>
        <circle cx="0" cy="0" r="15.6" fill="url(#rgrad3)" opacity="0.24"/>
      </g>
      </g>
      </g>
      </g>
      </g>
      </g>
      </g>
  </g>
  <g transform="translate(513.0, 659.9)">
      <g transform="translate(3.19,3.08) rotate(3.48) scale(1.000)">
        <g transform="translate(4.64,2.19) rotate(8.25) scale(0.980)">
        <g transform="translate(4.96,1.10) rotate(13.81) scale(0.960)">
        <g transform="translate(4.07,-0.08) rotate(19.60) scale(0.940)" clip-path="url(#clipRect)">
        <g transform="translate(2.18,-1.26) rotate(25.00) scale(0.920)">
        <g transform="translate(-0.25,-2.33) rotate(29.40) scale(0.900)">
        <g transform="translate(-2.61,-3.18) rotate(32.24) scale(0.880)">
        <path d="M30.6,17.6 L0.0,35.3 L-30.6,17.6 L-30.6,-17.6 L-0.0,-35.3 L30.6,-17.6Z" fill="url(#lgrad3)" filter="url(#blur3)" opacity="0.46"/>
        <ellipse cx="0" cy="0" rx="14.7" ry="9.8" fill="#FFFFFF" opacity="0.23"/>
      </g>
      </g>
      </g>
      </g>
      </g>
      </g>
      </g>
  </g>
  <g transform="translate(730.0, 643.8)">
      <g transform="translate(4.96,-0.48) rotate(3.48) scale(1.000)">
        <g transform="translate(4.07,-1.63) rotate(8.25) scale(0.980)">
        <g transform="translate(2.18,-2.64) rotate(13.81) scale(0.960)">
        <g transform="translate(-0.25,-3.41) rotate(19.60) scale(0.940)">
        <g transform="translate(-2.61,-3.88) rotate(25.00) scale(0.920)">
        <g transform="translate(-4.34,-4.00) rotate(29.40) scale(0.900)" mask="url(#maskDynamic)">
        <g transform="translate(-5.00,-3.76) rotate(32.24) scale(0.880)">
        <circle cx="0" cy="0" r="36.0" fill="url(#rgrad4)" filter="url(#shadow)" opacity="0.57"/>
        <text x="0" y="5" text-anchor="middle" font-family="Arial, sans-serif" font-size="14" fill="#FFFFFF" opacity="0.57">246</text>
      </g>
      </g>
      </g>
      </g>
      </g>
      </g>
      </g>
  </g>
  <g transform="translate(954.4, 635.3)">
      <g transform="translate(2.18,-3.60) rotate(3.48) scale(1.000)">
        <g transform="translate(-0.25,-3.95) rotate(8.25) scale(0.980)">
        <g transform="translate(-2.61,-3.96) rotate(13.81) scale(0.960)">
        <g transform="translate(-4.34,-3.60) rotate(19.60) scale(0.940)">
        <g transform="translate(-5.00,-2.93) rotate(25.00) scale(0.920)">
        <g transform="translate(-4.44,-1.99) rotate(29.40) scale(0.900)">
        <g transform="translate(-2.79,-0.88) rotate(32.24) scale(0.880)">
        <path d="M0.0,-74.1 L21.8,-30.0 L70.5,-22.9 L35.2,11.4 L43.5,59.9 L0.0,37.0 L-43.5,59.9 L-35.2,11.4 L-70.5,-22.9 L-21.8,-30.0Z" fill="url(#rgrad0)" filter="url(#blur0)" opacity="0.69"/>
      </g>
      </g>
      </g>
      </g>
      </g>
      </g>
      </g>
  </g>
  <g transform="translate(1185.0, 638.5)">
      <g transform="translate(-2.61,-3.41) rotate(3.48) scale(1.000)">
        <g transform="translate(-4.34,-2.64) rotate(8.25) scale(0.980)">
        <g transform="translate(-5.00,-1.63) rotate(13.81) scale(0.960)">
        <g transform="translate(-4.44,-0.48) rotate(19.60) scale(0.940)" clip-path="url(#clipStar)">
        <g transform="translate(-2.79,0.71) rotate(25.00) scale(0.920)">
        <g transform="translate(-0.46,1.84) rotate(29.40) scale(0.900)">
        <g transform="translate(1.98,2.81) rotate(32.24) scale(0.880)">
        <rect x="-31.6" y="-31.6" width="63.3" height="63.3" rx="15.8" fill="url(#lgrad1)" filter="url(#shadow)" opacity="0.78"/>
        <circle cx="0" cy="0" r="21.1" fill="url(#rgrad2)" opacity="0.55"/>
      </g>
      </g>
      </g>
      </g>
      </g>
      </g>
      </g>
  </g>
  <g transform="translate(1419.2, 651.7)">
      <g transform="translate(-5.00,-0.08) rotate(3.48) scale(1.000)">
        <g transform="translate(-4.44,1.10) rotate(8.25) scale(0.980)">
        <g transform="translate(-2.79,2.19) rotate(13.81) scale(0.960)">
        <g transform="translate(-0.46,3.08) rotate(19.60) scale(0.940)">
        <g transform="translate(1.98,3.70) rotate(25.00) scale(0.920)">
        <g transform="translate(3.94,3.98) rotate(29.40) scale(0.900)" mask="url(#maskStripes)">
        <g transform="translate(4.93,3.91) rotate(32.24) scale(0.880)">
        <path d="M25.7,14.8 L0.0,29.7 L-25.7,14.8 L-25.7,-14.8 L-0.0,-29.7 L25.7,-14.8Z" fill="url(#rgrad2)" filter="url(#blur2)" opacity="0.85"/>
        <ellipse cx="0" cy="0" rx="12.4" ry="8.2" fill="#FFFFFF" opacity="0.43"/>
      </g>
      </g>
      </g>
      </g>
      </g>
      </g>
      </g>
  </g>
  <g transform="translate(1653.7, 668.9)">
      <g transform="translate(-2.79,3.32) rotate(3.48) scale(1.000)">
        <g transform="translate(-0.46,3.83) rotate(8.25) scale(0.980)">
        <g transform="translate(1.98,4.00) rotate(13.81) scale(0.960)">
        <g transform="translate(3.94,3.81) rotate(19.60) scale(0.940)">
        <g transform="translate(4.93,3.28) rotate(25.00) scale(0.920)">
        <g transform="translate(4.72,2.46) rotate(29.40) scale(0.900)">
        <g transform="translate(3.35,1.42) rotate(32.24) scale(0.880)">
        <circle cx="0" cy="0" r="22.7" fill="url(#rgrad3)" filter="url(#shadow)" opacity="0.89"/>
        <text x="0" y="5" text-anchor="middle" font-family="Arial, sans-serif" font-size="14" fill="#FFFFFF" opacity="0.89">246</text>
      </g>
      </g>
      </g>
      </g>
      </g>
      </g>
      </g>
  </g>
  <g transform="translate(124.8, 961.8)">
      <g transform="translate(1.98,3.67) rotate(3.48) scale(1.000)">
        <g transform="translate(3.94,3.04) rotate(8.25) scale(0.980)">
        <g transform="translate(4.93,2.13) rotate(13.81) scale(0.960)">
        <g transform="translate(4.72,1.04) rotate(19.60) scale(0.940)" clip-path="url(#clipDynamic)">
        <g transform="translate(3.35,-0.15) rotate(25.00) scale(0.920)">
        <g transform="translate(1.16,-1.32) rotate(29.40) scale(0.900)">
        <g transform="translate(-1.32,-2.38) rotate(32.24) scale(0.880)">
        <path d="M0.0,-54.7 L16.1,-22.1 L52.0,-16.9 L26.0,8.4 L32.1,44.2 L0.0,27.3 L-32.1,44.2 L-26.0,8.4 L-52.0,-16.9 L-16.1,-22.1Z" fill="url(#lgrad4)" filter="url(#blur4)" opacity="0.90"/>
      </g>
      </g>
      </g>
      </g>
      </g>
      </g>
      </g>
  </g>
  <g transform="translate(400.0, 302.4)" mask="url(#maskGradient)">
    <ellipse cx="0" cy="0" rx="200" ry="150" fill="url(#rgrad0)" filter="url(#blur3)" opacity="0.3"/>
  </g>
  <g transform="translate(856.5, 250.3)" mask="url(#maskCircleFade)">
    <ellipse cx="0" cy="0" rx="200" ry="150" fill="url(#rgrad1)" filter="url(#blur3)" opacity="0.3"/>
  </g>
  <g transform="translate(1261.1, 221.6)" mask="url(#maskStripes)">
    <ellipse cx="0" cy="0" rx="200" ry="150" fill="url(#rgrad2)" filter="url(#blur3)" opacity="0.3"/>
  </g>
</svg>