<?xml version="1.0" encoding="UTF-8"?>
<svg xmlns="http://www.w3.org/2000/svg" viewBox="0 0 1920 1080" width="1920" height="1080">
  <defs>
    <filter id="blur0" x="-50%" y="-50%" width="200%" height="200%">
      <feGaussianBlur in="SourceGraphic" stdDeviation="1"/>
    </filter>
    <filter id="blur1" x="-50%" y="-50%" width="200%" height="200%">
      <feGaussianBlur in="SourceGraphic" stdDeviation="3"/>
    </filter>
    <filter id="blur2" x="-50%" y="-50%" width="200%" height="200%">
      <feGaussianBlur in="SourceGraphic" stdDeviation="5"/>
    </filter>
    <filter id="blur3" x="-50%" y="-50%" width="200%" height="200%">
      <feGaussianBlur in="SourceGraphic" stdDeviation="7"/>
    </filter>
    <filter id="blur4" x="-50%" y="-50%" width="200%" height="200%">
      <feGaussianBlur in="SourceGraphic" stdDeviation="9"/>
    </filter>
    <filter id="shadow" x="-50%" y="-50%" width="200%" height="200%">
      <feGaussianBlur in="SourceAlpha" stdDeviation="3" result="blur"/>
      <feOffset in="blur" dx="4" dy="4" result="offsetBlur"/>
      <feMerge>
        <feMergeNode in="offsetBlur"/>
        <feMergeNode in="SourceGraphic"/>
      </feMerge>
    </filter>
    <linearGradient id="lgrad0" x1="0%" y1="0%" x2="0.2%" y2="46.1%">
      <stop offset="0%" stop-color="#FF6B6B"/>
      <stop offset="33%" stop-color="#4ECDC4"/>
      <stop offset="66%" stop-color="#45B7D1"/>
      <stop offset="100%" stop-color="#96E6A1"/>
    </linearGradient>
    <linearGradient id="lgrad1" x1="0%" y1="0%" x2="8.8%" y2="21.7%">
      <stop offset="0%" stop-color="#FFE66D"/>
      <stop offset="33%" stop-color="#FF6B6B"/>
      <stop offset="66%" stop-color="#C44D58"/>
      <stop offset="100%" stop-color="#8B0000"/>
    </linearGradient>
    <linearGradient id="lgrad2" x1="0%" y1="0%" x2="28.5%" y2="4.9%">
      <stop offset="0%" stop-color="#4169E1"/>
      <stop offset="33%" stop-color="#7B68EE"/>
      <stop offset="66%" stop-color="#9370DB"/>
      <stop offset="100%" stop-color="#FFD700"/>
    </linearGradient>
    <linearGradient id="lgrad3" x1="0%" y1="0%" x2="53.9%" y2="0.2%">
      <stop offset="0%" stop-color="#32CD32"/>
      <stop offset="33%" stop-color="#228B22"/>
      <stop offset="66%" stop-color="#006400"/>
      <stop offset="100%" stop-color="#ADFF2F"/>
    </linearGradient>
    <linearGradient id="lgrad4" x1="0%" y1="0%" x2="78.3%" y2="8.8%">
      <stop offset="0%" stop-color="#FF1493"/>
      <stop offset="33%" stop-color="#FF69B4"/>
      <stop offset="66%" stop-color="#FFB6C1"/>
      <stop offset="100%" stop-color="#FFC0CB"/>
    </linearGradient>
    <radialGradient id="rgrad0" cx="49.7%" cy="69.8%" r="60%">
      <stop offset="0%" stop-color="#FF6B6B" stop-opacity="1"/>
      <stop offset="50%" stop-color="#4ECDC4" stop-opacity="0.8"/>
      <stop offset="100%" stop-color="#45B7D1" stop-opacity="0.6"/>
    </radialGradient>
    <radialGradient id="rgrad1" cx="59.7%" cy="37.8%" r="60%">
      <stop offset="0%" stop-color="#FFE66D" stop-opacity="1"/>
      <stop offset="50%" stop-color="#FF6B6B" stop-opacity="0.8"/>
      <stop offset="100%" stop-color="#C44D58" stop-opacity="0.6"/>
    </radialGradient>
    <radialGradient id="rgrad2" cx="69.7%" cy="45.8%" r="60%">
      <stop offset="0%" stop-color="#4169E1" stop-opacity="1"/>
      <stop offset="50%" stop-color="#7B68EE" stop-opacity="0.8"/>
      <stop offset="100%" stop-color="#9370DB" stop-opacity="0.6"/>
    </radialGradient>
    <radialGradient id="rgrad3" cx="39.7%" cy="53.8%" r="60%">
      <stop offset="0%" stop-color="#32CD32" stop-opacity="1"/>
      <stop offset="50%" stop-color="#228B22" stop-opacity="0.8"/>
      <stop offset="100%" stop-color="#006400" stop-opacity="0.6"/>
    </radialGradient>
    <radialGradient id="rgrad4" cx="49.7%" cy="61.8%" r="60%">
      <stop offset="0%" stop-color="#FF1493" stop-opacity="1"/>
      <stop offset="50%" stop-color="#FF69B4" stop-opacity="0.8"/>
      <stop offset="100%" stop-color="#FFB6C1" stop-opacity="0.6"/>
    </radialGradient>
    <clipPath id="clipCircle">
      <circle cx="0" cy="0" r="50"/>
    </clipPath>
    <clipPath id="clipStar">
      <path d="M0.0,-50.0 L14.7,-20.2 L47.6,-15.5 L23.8,7.7 L29.4,40.5 L0.0,25.0 L-29.4,40.5 L-23.8,7.7 L-47.6,-15.5 L-14.7,-20.2Z"/>
    </clipPath>
    <clipPath id="clipHex">
      <path d="M39.0,22.5 L0.0,45.0 L-39.0,22.5 L-39.0,-22.5 L-0.0,-45.0 L39.0,-22.5Z"/>
    </clipPath>
    <clipPath id="clipRect">
      <rect x="-40" y="-30" width="80" height="60" rx="10"/>
    </clipPath>
    <clipPath id="clipDynamic">
      <circle cx="0" cy="0" r="34.9"/>
    </clipPath>
    <mask id="maskGradient" maskContentUnits="objectBoundingBox">
      <rect x="0" y="0" width="1" height="1" fill="url(#maskGrad)"/>
    </mask>
    <linearGradient id="maskGrad" x1="0%" y1="0%" x2="100%" y2="100%">
      <stop offset="0%" stop-color="white"/>
      <stop offset="100%" stop-color="black"/>
    </linearGradient>
    <mask id="maskCircleFade">
      <circle cx="0" cy="0" r="60" fill="white"/>
      <circle cx="0" cy="0" r="30" fill="black"/>
    </mask>
    <mask id="maskStripes">
      <rect x="-50" y="-50" width="100" height="100" fill="white"/>
      <rect x="-50" y="-40" width="100" height="10" fill="black"/>
      <rect x="-50" y="-20" width="100" height="10" fill="black"/>
      <rect x="-50" y="0" width="100" height="10" fill="black"/>
      <rect x="-50" y="20" width="100" height="10" fill="black"/>
      <rect x="-50" y="40" width="100" height="10" fill="black"/>
    </mask>
    <mask id="maskDynamic">
      <rect x="-60" y="-60" width="120" height="120" fill="white" fill-opacity="0.30"/>
      <circle cx="0" cy="0" r="25" fill="white"/>
    </mask>
  </defs>
  <rect width="1920" height="1080" fill="url(#lgrad0)"/>
  <g transform="translate(99.8, 125.0)">
      <g transform="translate(-0.03,4.00) rotate(0.02) scale(1.000)">
        <g transform="translate(2.37,3.83) rotate(-1.96) scale(0.980)">
        <g transform="translate(4.19,3.32) rotate(-5.80) scale(0.960)">
        <g transform="translate(4.99,2.51) rotate(-11.24) scale(0.940)" clip-path="url(#clipCircle)">
        <g transform="translate(4.56,1.47) rotate(-17.88) scale(0.920)">
        <g transform="translate(3.02,0.31) rotate(-25.19) scale(0.900)">
        <g transform="translate(0.74,-0.88) rotate(-32.58) scale(0.880)">
        <path d="M0.0,-60.0 L17.6,-24.3 L57.1,-18.6 L28.6,9.3 L35.3,48.6 L0.0,30.0 L-35.3,48.6 L-28.6,9.3 L-57.1,-18.6 L-17.6,-24.3Z" fill="url(#lgrad0)" filter="url(#blur0)" opacity="0.50"/>
      </g>
      </g>
      </g>
      </g>
      </g>
      </g>
      </g>
  </g>
  <g transform="translate(334.2, 119.2)">
      <g transform="translate(4.19,2.18) rotate(0.02) scale(1.000)">
        <g transform="translate(4.99,1.09) rotate(-1.96) scale(0.980)">
        <g transform="translate(4.56,-0.09) rotate(-5.80) scale(0.960)">
        <g transform="translate(3.02,-1.27) rotate(-11.24) scale(0.940)">
        <g transform="translate(0.74,-2.33) rotate(-17.88) scale(0.920)">
        <g transform="translate(-1.72,-3.19) rotate(-25.19) scale(0.900)" mask="url(#maskCircleFade)">
        <g transform="translate(-3.76,-3.76) rotate(-32.58) scale(0.880)">
        <rect x="-23.7" y="-23.7" width="47.4" height="47.4" rx="11.9" fill="url(#rgrad1)" filter="url(#shadow)" opacity="0.38"/>
        <circle cx="0" cy="0" r="15.8" fill="url(#rgrad2)" opacity="0.27"/>
      </g>
      </g>
      </g>
      </g>
      </g>
      </g>
      </g>
  </g>
  <g transform="translate(565.1, 104.4)">
      <g transform="translate(4.56,-1.64) rotate(0.02) scale(1.000)">
        <g transform="translate(3.02,-2.65) rotate(-1.96) scale(0.980)">
        <g transform="translate(0.74,-3.41) rotate(-5.80) scale(0.960)">
        <g transform="translate(-1.72,-3.88) rotate(-11.24) scale(0.940)">
        <g transform="translate(-3.76,-3.99) rotate(-17.88) scale(0.920)">
        <g transform="translate(-4.88,-3.75) rotate(-25.19) scale(0.900)">
        <g transform="translate(-4.80,-3.18) rotate(-32.58) scale(0.880)">
        <path d="M24.1,13.9 L0.0,27.8 L-24.1,13.9 L-24.1,-13.9 L-0.0,-27.8 L24.1,-13.9Z" fill="url(#rgrad2)" filter="url(#blur2)" opacity="0.28"/>
        <ellipse cx="0" cy="0" rx="11.6" ry="7.7" fill="#FFFFFF" opacity="0.14"/>
      </g>
      </g>
      </g>
      </g>
      </g>
      </g>
      </g>
  </g>
  <g transform="translate(789.9, 87.5)">
      <g transform="translate(0.74,-3.96) rotate(0.02) scale(1.000)">
        <g transform="translate(-1.72,-3.95) rotate(-1.96) scale(0.980)">
        <g transform="translate(-3.76,-3.60) rotate(-5.80) scale(0.960)">
        <g transform="translate(-4.88,-2.92) rotate(-11.24) scale(0.940)" clip-path="url(#clipRect)">
        <g transform="translate(-4.80,-1.98) rotate(-17.88) scale(0.920)">
        <g transform="translate(-3.55,-0.87) rotate(-25.19) scale(0.900)">
        <g transform="translate(-1.43,0.32) rotate(-32.58) scale(0.880)">
        <circle cx="0" cy="0" r="28.9" fill="url(#lgrad3)" filter="url(#shadow)" opacity="0.19"/>
        <text x="0" y="5" text-anchor="middle" font-family="Arial, sans-serif" font-size="14" fill="#FFFFFF" opacity="0.19">999</text>
      </g>
      </g>
      </g>
      </g>
      </g>
      </g>
      </g>
  </g>
  <g transform="translate(1007.4, 76.5)">
      <g transform="translate(-3.76,-2.63) rotate(0.02) scale(1.000)">
        <g transform="translate(-4.88,-1.63) rotate(-1.96) scale(0.980)">
        <g transform="translate(-4.80,-0.47) rotate(-5.80) scale(0.960)">
        <g transform="translate(-3.55,0.72) rotate(-11.24) scale(0.940)">
        <g transform="translate(-1.43,1.85) rotate(-17.88) scale(0.920)">
        <g transform="translate(1.04,2.82) rotate(-25.19) scale(0.900)" mask="url(#maskGradient)">
        <g transform="translate(3.26,3.53) rotate(-32.58) scale(0.880)">
        <path d="M0.0,-71.3 L21.0,-28.9 L67.8,-22.0 L33.9,11.0 L41.9,57.7 L0.0,35.7 L-41.9,57.7 L-33.9,11.0 L-67.8,-22.0 L-21.0,-28.9Z" fill="url(#rgrad4)" filter="url(#blur4)" opacity="0.13"/>
      </g>
      </g>
      </g>
      </g>
      </g>
      </g>
      </g>
  </g>
  <g transform="translate(1218.1, 76.5)">
      <g transform="translate(-4.80,1.11) rotate(0.02) scale(1.000)">
        <g transform="translate(-3.55,2.20) rotate(-1.96) scale(0.980)">
        <g transform="translate(-1.43,3.09) rotate(-5.80) scale(0.960)">
        <g transform="translate(1.04,3.70) rotate(-11.24) scale(0.940)">
        <g transform="translate(3.26,3.98) rotate(-17.88) scale(0.920)">
        <g transform="translate(4.68,3.91) rotate(-25.19) scale(0.900)">
        <g transform="translate(4.95,3.49) rotate(-32.58) scale(0.880)">
        <rect x="-37.2" y="-37.2" width="74.4" height="74.4" rx="18.6" fill="url(#rgrad0)" filter="url(#shadow)" opacity="0.10"/>
        <circle cx="0" cy="0" r="24.8" fill="url(#rgrad1)" opacity="0.07"/>
      </g>
      </g>
      </g>
      </g>
      </g>
      </g>
      </g>
  </g>
  <g transform="translate(1424.4, 87.6)">
      <g transform="translate(-1.43,3.83) rotate(0.02) scale(1.000)">
        <g transform="translate(1.04,4.00) rotate(-1.96) scale(0.980)">
        <g transform="translate(3.26,3.81) rotate(-5.80) scale(0.960)">
        <g transform="translate(4.68,3.28) rotate(-11.24) scale(0.940)" clip-path="url(#clipStar)">
        <g transform="translate(4.95,2.45) rotate(-17.88) scale(0.920)">
        <g transform="translate(4.01,1.41) rotate(-25.19) scale(0.900)">
        <g transform="translate(2.09,0.24) rotate(-32.58) scale(0.880)">
        <path d="M33.4,19.3 L0.0,38.5 L-33.4,19.3 L-33.4,-19.3 L-0.0,-38.5 L33.4,-19.3Z" fill="url(#lgrad1)" filter="url(#blur1)" opacity="0.11"/>
        <ellipse cx="0" cy="0" rx="16.1" ry="10.7" fill="#FFFFFF" opacity="0.06"/>
      </g>
      </g>
      </g>
      </g>
      </g>
      </g>
      </g>
  </g>
  <g transform="translate(1629.7, 104.5)">
      <g transform="translate(3.26,3.03) rotate(0.02) scale(1.000)">
        <g transform="translate(4.68,2.13) rotate(-1.96) scale(0.980)">
        <g transform="translate(4.95,1.03) rotate(-5.80) scale(0.960)">
        <g transform="translate(4.01,-0.16) rotate(-11.24) scale(0.940)">
        <g transform="translate(2.09,-1.33) rotate(-17.88) scale(0.920)">
        <g transform="translate(-0.34,-2.39) rotate(-25.19) scale(0.900)" mask="url(#maskDynamic)">
        <g transform="translate(-2.69,-3.23) rotate(-32.58) scale(0.880)">
        <circle cx="0" cy="0" r="25.1" fill="url(#rgrad2)" filter="url(#shadow)" opacity="0.15"/>
        <text x="0" y="5" text-anchor="middle" font-family="Arial, sans-serif" font-size="14" fill="#FFFFFF" opacity="0.15">999</text>
      </g>
      </g>
      </g>
      </g>
      </g>
      </g>
      </g>
  </g>
  <g transform="translate(77.4, 399.3)">
      <g transform="translate(4.95,-0.56) rotate(0.02) scale(1.000)">
        <g transform="translate(4.01,-1.70) rotate(-1.96) scale(0.980)">
        <g transform="translate(2.09,-2.70) rotate(-5.80) scale(0.960)">
        <g transform="translate(-0.34,-3.45) rotate(-11.24) scale(0.940)">
        <g transform="translate(-2.69,-3.89) rotate(-17.88) scale(0.920)">
        <g transform="translate(-4.38,-3.99) rotate(-25.19) scale(0.900)">
        <g transform="translate(-5.00,-3.73) rotate(-32.58) scale(0.880)">
        <path d="M0.0,-45.2 L13.3,-18.3 L42.9,-14.0 L21.5,7.0 L26.5,36.5 L0.0,22.6 L-26.5,36.5 L-21.5,7.0 L-42.9,-14.0 L-13.3,-18.3Z" fill="url(#rgrad3)" filter="url(#blur3)" opacity="0.23"/>
      </g>
      </g>
      </g>
      </g>
      </g>
      </g>
      </g>
  </g>
  <g transform="translate(290.7, 405.0)">
      <g transform="translate(2.09,-3.63) rotate(0.02) scale(1.000)">
        <g transform="translate(-0.34,-3.97) rotate(-1.96) scale(0.980)">
        <g transform="translate(-2.69,-3.94) rotate(-5.80) scale(0.960)">
        <g transform="translate(-4.38,-3.57) rotate(-11.24) scale(0.940)" clip-path="url(#clipDynamic)">
        <g transform="translate(-5.00,-2.87) rotate(-17.88) scale(0.920)">
        <g transform="translate(-4.39,-1.92) rotate(-25.19) scale(0.900)">
        <g transform="translate(-2.71,-0.80) rotate(-32.58) scale(0.880)">
        <rect x="-26.9" y="-26.9" width="53.8" height="53.8" rx="13.4" fill="url(#lgrad4)" filter="url(#shadow)" opacity="0.33"/>
        <circle cx="0" cy="0" r="17.9" fill="url(#rgrad0)" opacity="0.23"/>
      </g>
      </g>
      </g>
      </g>
      </g>
      </g>
      </g>
  </g>
  <g transform="translate(511.2, 399.0)">
      <g transform="translate(-2.69,-3.37) rotate(0.02) scale(1.000)">
        <g transform="translate(-4.38,-2.58) rotate(-1.96) scale(0.980)">
        <g transform="translate(-5.00,-1.56) rotate(-5.80) scale(0.960)">
        <g transform="translate(-4.39,-0.41) rotate(-11.24) scale(0.940)">
        <g transform="translate(-2.71,0.79) rotate(-17.88) scale(0.920)">
        <g transform="translate(-0.36,1.91) rotate(-25.19) scale(0.900)" mask="url(#maskStripes)">
        <g transform="translate(2.07,2.86) rotate(-32.58) scale(0.880)">
        <path d="M35.4,20.4 L0.0,40.9 L-35.4,20.4 L-35.4,-20.4 L-0.0,-40.9 L35.4,-20.4Z" fill="url(#rgrad0)" filter="url(#blur0)" opacity="0.44"/>
        <ellipse cx="0" cy="0" rx="17.0" ry="11.4" fill="#FFFFFF" opacity="0.22"/>
      </g>
      </g>
      </g>
      </g>
      </g>
      </g>
      </g>
  </g>
  <g transform="translate(738.7, 384.0)">
      <g transform="translate(-5.00,-0.01) rotate(0.02) scale(1.000)">
        <g transform="translate(-4.39,1.17) rotate(-1.96) scale(0.980)">
        <g transform="translate(-2.71,2.25) rotate(-5.80) scale(0.960)">
        <g transform="translate(-0.36,3.13) rotate(-11.24) scale(0.940)">
        <g transform="translate(2.07,3.73) rotate(-17.88) scale(0.920)">
        <g transform="translate(4.00,3.99) rotate(-25.19) scale(0.900)">
        <g transform="translate(4.95,3.90) rotate(-32.58) scale(0.880)">
        <circle cx="0" cy="0" r="37.5" fill="url(#rgrad1)" filter="url(#shadow)" opacity="0.56"/>
        <text x="0" y="5" text-anchor="middle" font-family="Arial, sans-serif" font-size="14" fill="#FFFFFF" opacity="0.56">999</text>
      </g>
      </g>
      </g>
      </g>
      </g>
      </g>
      </g>
  </g>
  <g transform="translate(971.4, 367.2)">
      <g transform="translate(-2.71,3.36) rotate(0.02) scale(1.000)">
        <g transform="translate(-0.36,3.85) rotate(-1.96) scale(0.980)">
        <g transform="translate(2.07,4.00) rotate(-5.80) scale(0.960)">
        <g transform="translate(4.00,3.79) rotate(-11.24) scale(0.940)" clip-path="url(#clipHex)">
        <g transform="translate(4.95,3.24) rotate(-17.88) scale(0.920)">
        <g transform="translate(4.69,2.40) rotate(-25.19) scale(0.900)">
        <g transform="translate(3.28,1.35) rotate(-32.58) scale(0.880)">
        <path d="M0.0,-68.1 L20.0,-27.5 L64.8,-21.0 L32.4,10.5 L40.0,55.1 L0.0,34.0 L-40.0,55.1 L-32.4,10.5 L-64.8,-21.0 L-20.0,-27.5Z" fill="url(#lgrad2)" filter="url(#blur2)" opacity="0.68"/>
      </g>
      </g>
      </g>
      </g>
      </g>
      </g>
      </g>
  </g>
  <g transform="translate(1206.3, 356.4)">
      <g transform="translate(2.07,3.64) rotate(0.02) scale(1.000)">
        <g transform="translate(4.00,2.99) rotate(-1.96) scale(0.980)">
        <g transform="translate(4.95,2.07) rotate(-5.80) scale(0.960)">
        <g transform="translate(4.69,0.96) rotate(-11.24) scale(0.940)">
        <g transform="translate(3.28,-0.23) rotate(-17.88) scale(0.920)">
        <g transform="translate(1.06,-1.40) rotate(-25.19) scale(0.900)" mask="url(#maskCircleFade)">
        <g transform="translate(-1.41,-2.44) rotate(-32.58) scale(0.880)">
        <rect x="-26.9" y="-26.9" width="53.7" height="53.7" rx="13.4" fill="url(#rgrad3)" filter="url(#shadow)" opacity="0.77"/>
        <circle cx="0" cy="0" r="17.9" fill="url(#rgrad4)" opacity="0.54"/>
      </g>
      </g>
      </g>
      </g>
      </g>
      </g>
      </g>
  </g>
  <g transform="translate(1439.6, 356.7)">
      <g transform="translate(4.95,0.57) rotate(0.02) scale(1.000)">
        <g transform="translate(4.69,-0.62) rotate(-1.96) scale(0.980)">
        <g transform="translate(3.28,-1.76) rotate(-5.80) scale(0.960)">
        <g transform="translate(1.06,-2.75) rotate(-11.24) scale(0.940)">
        <g transform="translate(-1.41,-3.48) rotate(-17.88) scale(0.920)">
        <g transform="translate(-3.54,-3.91) rotate(-25.19) scale(0.900)">
        <g transform="translate(-4.80,-3.99) rotate(-32.58) scale(0.880)">
        <path d="M23.5,13.5 L0.0,27.1 L-23.5,13.5 L-23.5,-13.5 L-0.0,-27.1 L23.5,-13.5Z" fill="url(#rgrad4)" filter="url(#blur4)" opacity="0.85"/>
        <ellipse cx="0" cy="0" rx="11.3" ry="7.5" fill="#FFFFFF" opacity="0.42"/>
      </g>
      </g>
      </g>
      </g>
      </g>
      </g>
      </g>
  </g>
  <g transform="translate(1668.1, 368.0)">
      <g transform="translate(3.28,-3.02) rotate(0.02) scale(1.000)">
        <g transform="translate(1.06,-3.66) rotate(-1.96) scale(0.980)">
        <g transform="translate(-1.41,-3.97) rotate(-5.80) scale(0.960)">
        <g transform="translate(-3.54,-3.93) rotate(-11.24) scale(0.940)" clip-path="url(#clipCircle)">
        <g transform="translate(-4.80,-3.54) rotate(-17.88) scale(0.920)">
        <g transform="translate(-4.88,-2.83) rotate(-25.19) scale(0.900)">
        <g transform="translate(-3.78,-1.87) rotate(-32.58) scale(0.880)">
        <circle cx="0" cy="0" r="25.1" fill="url(#lgrad0)" filter="url(#shadow)" opacity="0.89"/>
        <text x="0" y="5" text-anchor="middle" font-family="Arial, sans-serif" font-size="14" fill="#FFFFFF" opacity="0.89">999</text>
      </g>
      </g>
      </g>
      </g>
      </g>
      </g>
      </g>
  </g>
  <g transform="translate(129.7, 664.9)">
      <g transform="translate(-1.41,-3.84) rotate(0.02) scale(1.000)">
        <g transform="translate(-3.54,-3.33) rotate(-1.96) scale(0.980)">
        <g transform="translate(-4.80,-2.53) rotate(-5.80) scale(0.960)">
        <g transform="translate(-4.88,-1.50) rotate(-11.24) scale(0.940)">
        <g transform="translate(-3.78,-0.34) rotate(-17.88) scale(0.920)">
        <g transform="translate(-1.74,0.85) rotate(-25.19) scale(0.900)" mask="url(#maskGradient)">
        <g transform="translate(0.72,1.97) rotate(-32.58) scale(0.880)">
        <path d="M0.0,-64.3 L18.9,-26.0 L61.1,-19.9 L30.6,9.9 L37.8,52.0 L0.0,32.1 L-37.8,52.0 L-30.6,9.9 L-61.1,-19.9 L-18.9,-26.0Z" fill="url(#rgrad1)" filter="url(#blur1)" opacity="0.90"/>
      </g>
      </g>
      </g>
      </g>
      </g>
      </g>
      </g>
  </g>
  <g transform="translate(344.1, 679.6)">
      <g transform="translate(-4.80,-1.12) rotate(0.02) scale(1.000)">
        <g transform="translate(-4.88,0.06) rotate(-1.96) scale(0.980)">
        <g transform="translate(-3.78,1.24) rotate(-5.80) scale(0.960)">
        <g transform="translate(-1.74,2.31) rotate(-11.24) scale(0.940)">
        <g transform="translate(0.72,3.17) rotate(-17.88) scale(0.920)">
        <g transform="translate(3.00,3.75) rotate(-25.19) scale(0.900)">
        <g transform="translate(4.55,3.99) rotate(-32.58) scale(0.880)">
        <rect x="-37.2" y="-37.2" width="74.4" height="74.4" rx="18.6" fill="url(#rgrad2)" filter="url(#shadow)" opacity="0.87"/>
        <circle cx="0" cy="0" r="24.8" fill="url(#rgrad3)" opacity="0.61"/>
      </g>
      </g>
      </g>
      </g>
      </g>
      </g>
      </g>
  </g>
  <g transform="translate(552.5, 685.0)">
      <g transform="translate(-3.78,2.62) rotate(0.02) scale(1.000)">
        <g transform="translate(-1.74,3.40) rotate(-1.96) scale(0.980)">
        <g transform="translate(0.72,3.87) rotate(-5.80) scale(0.960)">
        <g transform="translate(3.00,4.00) rotate(-11.24) scale(0.940)" clip-path="url(#clipRect)">
        <g transform="translate(4.55,3.77) rotate(-17.88) scale(0.920)">
        <g transform="translate(4.99,3.20) rotate(-25.19) scale(0.900)">
        <g transform="translate(4.20,2.35) rotate(-32.58) scale(0.880)">
        <path d="M37.0,21.4 L0.0,42.8 L-37.0,21.4 L-37.0,-21.4 L-0.0,-42.8 L37.0,-21.4Z" fill="url(#lgrad3)" filter="url(#blur3)" opacity="0.81"/>
        <ellipse cx="0" cy="0" rx="17.8" ry="11.9" fill="#FFFFFF" opacity="0.40"/>
      </g>
      </g>
      </g>
      </g>
      </g>
      </g>
      </g>
  </g>
  <g transform="translate(757.9, 678.7)">
      <g transform="translate(0.72,3.96) rotate(0.02) scale(1.000)">
        <g transform="translate(3.00,3.61) rotate(-1.96) scale(0.980)">
        <g transform="translate(4.55,2.94) rotate(-5.80) scale(0.960)">
        <g transform="translate(4.99,2.01) rotate(-11.24) scale(0.940)">
        <g transform="translate(4.20,0.90) rotate(-17.88) scale(0.920)">
        <g transform="translate(2.39,-0.29) rotate(-25.19) scale(0.900)" mask="url(#maskDynamic)">
        <g transform="translate(-0.01,-1.46) rotate(-32.58) scale(0.880)">
        <circle cx="0" cy="0" r="28.9" fill="url(#rgrad4)" filter="url(#shadow)" opacity="0.72"/>
        <text x="0" y="5" text-anchor="middle" font-family="Arial, sans-serif" font-size="14" fill="#FFFFFF" opacity="0.72">999</text>
      </g>
      </g>
      </g>
      </g>
      </g>
      </g>
      </g>
  </g>
  <g transform="translate(963.8, 663.6)">
      <g transform="translate(4.55,1.66) rotate(0.02) scale(1.000)">
        <g transform="translate(4.99,0.51) rotate(-1.96) scale(0.980)">
        <g transform="translate(4.20,-0.69) rotate(-5.80) scale(0.960)">
        <g transform="translate(2.39,-1.82) rotate(-11.24) scale(0.940)">
        <g transform="translate(-0.01,-2.79) rotate(-17.88) scale(0.920)">
        <g transform="translate(-2.41,-3.52) rotate(-25.19) scale(0.900)">
        <g transform="translate(-4.21,-3.92) rotate(-32.58) scale(0.880)">
        <path d="M0.0,-46.3 L13.6,-18.7 L44.1,-14.3 L22.0,7.2 L27.2,37.5 L0.0,23.2 L-27.2,37.5 L-22.0,7.2 L-44.1,-14.3 L-13.6,-18.7Z" fill="url(#rgrad0)" filter="url(#blur0)" opacity="0.61"/>
      </g>
      </g>
      </g>
      </g>
      </g>
      </g>
      </g>
  </g>
  <g transform="translate(1173.7, 646.8)">
      <g transform="translate(4.20,-2.17) rotate(0.02) scale(1.000)">
        <g transform="translate(2.39,-3.07) rotate(-1.96) scale(0.980)">
        <g transform="translate(-0.01,-3.69) rotate(-5.80) scale(0.960)">
        <g transform="translate(-2.41,-3.98) rotate(-11.24) scale(0.940)" clip-path="url(#clipStar)">
        <g transform="translate(-4.21,-3.92) rotate(-17.88) scale(0.920)">
        <g transform="translate(-4.99,-3.51) rotate(-25.19) scale(0.900)">
        <g transform="translate(-4.54,-2.78) rotate(-32.58) scale(0.880)">
        <rect x="-23.7" y="-23.7" width="47.4" height="47.4" rx="11.9" fill="url(#lgrad1)" filter="url(#shadow)" opacity="0.49"/>
        <circle cx="0" cy="0" r="15.8" fill="url(#rgrad2)" opacity="0.35"/>
      </g>
      </g>
      </g>
      </g>
      </g>
      </g>
      </g>
  </g>
  <g transform="translate(1390.0, 636.2)">
      <g transform="translate(-0.01,-4.00) rotate(0.02) scale(1.000)">
        <g transform="translate(-2.41,-3.82) rotate(-1.96) scale(0.980)">
        <g transform="translate(-4.21,-3.30) rotate(-5.80) scale(0.960)">
        <g transform="translate(-4.99,-2.48) rotate(-11.24) scale(0.940)">
        <g transform="translate(-4.54,-1.44) rotate(-17.88) scale(0.920)">
        <g transform="translate(-2.98,-0.27) rotate(-25.19) scale(0.900)" mask="url(#maskStripes)">
        <g transform="translate(-0.69,0.92) rotate(-32.58) scale(0.880)">
        <path d="M31.2,18.0 L0.0,36.1 L-31.2,18.0 L-31.2,-18.0 L-0.0,-36.1 L31.2,-18.0Z" fill="url(#rgrad2)" filter="url(#blur2)" opacity="0.38"/>
        <ellipse cx="0" cy="0" rx="15.0" ry="10.0" fill="#FFFFFF" opacity="0.19"/>
      </g>
      </g>
      </g>
      </g>
      </g>
      </g>
      </g>
  </g>
  <g transform="translate(1613.6, 636.8)">
      <g transform="translate(-4.21,-2.15) rotate(0.02) scale(1.000)">
        <g transform="translate(-4.99,-1.06) rotate(-1.96) scale(0.980)">
        <g transform="translate(-4.54,0.13) rotate(-5.80) scale(0.960)">
        <g transform="translate(-2.98,1.30) rotate(-11.24) scale(0.940)">
        <g transform="translate(-0.69,2.36) rotate(-17.88) scale(0.920)">
        <g transform="translate(1.77,3.21) rotate(-25.19) scale(0.900)">
        <g transform="translate(3.79,3.77) rotate(-32.58) scale(0.880)">
        <circle cx="0" cy="0" r="36.3" fill="url(#rgrad3)" filter="url(#shadow)" opacity="0.27"/>
        <text x="0" y="5" text-anchor="middle" font-family="Arial, sans-serif" font-size="14" fill="#FFFFFF" opacity="0.27">999</text>
      </g>
      </g>
      </g>
      </g>
      </g>
      </g>
      </g>
  </g>
  <g transform="translate(83.7, 928.3)">
      <g transform="translate(-4.54,1.67) rotate(0.02) scale(1.000)">
        <g transform="translate(-2.98,2.67) rotate(-1.96) scale(0.980)">
        <g transform="translate(-0.69,3.43) rotate(-5.80) scale(0.960)">
        <g transform="translate(1.77,3.89) rotate(-11.24) scale(0.940)" clip-path="url(#clipDynamic)">
        <g transform="translate(3.79,3.99) rotate(-17.88) scale(0.920)">
        <g transform="translate(4.89,3.74) rotate(-25.19) scale(0.900)">
        <g transform="translate(4.79,3.16) rotate(-32.58) scale(0.880)">
        <path d="M0.0,-73.6 L21.6,-29.8 L70.0,-22.7 L35.0,11.4 L43.3,59.5 L0.0,36.8 L-43.3,59.5 L-35.0,11.4 L-70.0,-22.7 L-21.6,-29.8Z" fill="url(#lgrad4)" filter="url(#blur4)" opacity="0.18"/>
      </g>
      </g>
      </g>
      </g>
      </g>
      </g>
      </g>
  </g>
  <g transform="translate(299.4, 380.0)" mask="url(#maskGradient)">
    <ellipse cx="0" cy="0" rx="200" ry="150" fill="url(#rgrad0)" filter="url(#blur3)" opacity="0.3"/>
  </g>
  <g transform="translate(883.8, 361.5)" mask="url(#maskCircleFade)">
    <ellipse cx="0" cy="0" rx="200" ry="150" fill="url(#rgrad1)" filter="url(#blur3)" opacity="0.3"/>
  </g>
  <g transform="translate(1391.2, 314.1)" mask="url(#maskStripes)">
    <ellipse cx="0" cy="0" rx="200" ry="150" fill="url(#rgrad2)" filter="url(#blur3)" opacity="0.3"/>
  </g>
</svg>