<?xml version="1.0" encoding="UTF-8"?>
<svg xmlns="http://www.w3.org/2000/svg" viewBox="0 0 1920 1080" width="1920" height="1080">
  <defs>
    <filter id="blur0" x="-50%" y="-50%" width="200%" height="200%">
      <feGaussianBlur in="SourceGraphic" stdDeviation="1"/>
    </filter>
    <filter id="blur1" x="-50%" y="-50%" width="200%" height="200%">
      <feGaussianBlur in="SourceGraphic" stdDeviation="3"/>
    </filter>
    <filter id="blur2" x="-50%" y="-50%" width="200%" height="200%">
      <feGaussianBlur in="SourceGraphic" stdDeviation="5"/>
    </filter>
    <filter id="blur3" x="-50%" y="-50%" width="200%" height="200%">
      <feGaussianBlur in="SourceGraphic" stdDeviation="7"/>
    </filter>
    <filter id="blur4" x="-50%" y="-50%" width="200%" height="200%">
      <feGaussianBlur in="SourceGraphic" stdDeviation="9"/>
    </filter>
    <filter id="shadow" x="-50%" y="-50%" width="200%" height="200%">
      <feGaussianBlur in="SourceAlpha" stdDeviation="3" result="blur"/>
      <feOffset in="blur" dx="4" dy="4" result="offsetBlur"/>
      <feMerge>
        <feMergeNode in="offsetBlur"/>
        <feMergeNode in="SourceGraphic"/>
      </feMerge>
    </filter>
    <linearGradient id="lgrad0" x1="0%" y1="0%" x2="71.5%" y2="95.1%">
      <stop offset="0%" stop-color="#FF6B6B"/>
      <stop offset="33%" stop-color="#4ECDC4"/>
      <stop offset="66%" stop-color="#45B7D1"/>
      <stop offset="100%" stop-color="#96E6A1"/>
    </linearGradient>
    <linearGradient id="lgrad1" x1="0%" y1="0%" x2="46.1%" y2="99.8%">
      <stop offset="0%" stop-color="#FFE66D"/>
      <stop offset="33%" stop-color="#FF6B6B"/>
      <stop offset="66%" stop-color="#C44D58"/>
      <stop offset="100%" stop-color="#8B0000"/>
    </linearGradient>
    <linearGradient id="lgrad2" x1="0%" y1="0%" x2="21.7%" y2="91.2%">
      <stop offset="0%" stop-color="#4169E1"/>
      <stop offset="33%" stop-color="#7B68EE"/>
      <stop offset="66%" stop-color="#9370DB"/>
      <stop offset="100%" stop-color="#FFD700"/>
    </linearGradient>
    <linearGradient id="lgrad3" x1="0%" y1="0%" x2="4.9%" y2="71.5%">
      <stop offset="0%" stop-color="#32CD32"/>
      <stop offset="33%" stop-color="#228B22"/>
      <stop offset="66%" stop-color="#006400"/>
      <stop offset="100%" stop-color="#ADFF2F"/>
    </linearGradient>
    <linearGradient id="lgrad4" x1="0%" y1="0%" x2="0.2%" y2="46.1%">
      <stop offset="0%" stop-color="#FF1493"/>
      <stop offset="33%" stop-color="#FF69B4"/>
      <stop offset="66%" stop-color="#FFB6C1"/>
      <stop offset="100%" stop-color="#FFC0CB"/>
    </linearGradient>
    <radialGradient id="rgrad0" cx="57.7%" cy="61.8%" r="60%">
      <stop offset="0%" stop-color="#FF6B6B" stop-opacity="1"/>
      <stop offset="50%" stop-color="#4ECDC4" stop-opacity="0.8"/>
      <stop offset="100%" stop-color="#45B7D1" stop-opacity="0.6"/>
    </radialGradient>
    <radialGradient id="rgrad1" cx="67.7%" cy="69.8%" r="60%">
      <stop offset="0%" stop-color="#FFE66D" stop-opacity="1"/>
      <stop offset="50%" stop-color="#FF6B6B" stop-opacity="0.8"/>
      <stop offset="100%" stop-color="#C44D58" stop-opacity="0.6"/>
    </radialGradient>
    <radialGradient id="rgrad2" cx="37.7%" cy="37.8%" r="60%">
      <stop offset="0%" stop-color="#4169E1" stop-opacity="1"/>
      <stop offset="50%" stop-color="#7B68EE" stop-opacity="0.8"/>
      <stop offset="100%" stop-color="#9370DB" stop-opacity="0.6"/>
    </radialGradient>
    <radialGradient id="rgrad3" cx="47.7%" cy="45.8%" r="60%">
      <stop offset="0%" stop-color="#32CD32" stop-opacity="1"/>
      <stop offset="50%" stop-color="#228B22" stop-opacity="0.8"/>
      <stop offset="100%" stop-color="#006400" stop-opacity="0.6"/>
    </radialGradient>
    <radialGradient id="rgrad4" cx="57.7%" cy="53.8%" r="60%">
      <stop offset="0%" stop-color="#FF1493" stop-opacity="1"/>
      <stop offset="50%" stop-color="#FF69B4" stop-opacity="0.8"/>
      <stop offset="100%" stop-color="#FFB6C1" stop-opacity="0.6"/>
    </radialGradient>
    <clipPath id="clipCircle">
      <circle cx="0" cy="0" r="50"/>
    </clipPath>
    <clipPath id="clipStar">
      <path d="M0.0,-50.0 L14.7,-20.2 L47.6,-15.5 L23.8,7.7 L29.4,40.5 L0.0,25.0 L-29.4,40.5 L-23.8,7.7 L-47.6,-15.5 L-14.7,-20.2Z"/>
    </clipPath>
    <clipPath id="clipHex">
      <path d="M39.0,22.5 L0.0,45.0 L-39.0,22.5 L-39.0,-22.5 L-0.0,-45.0 L39.0,-22.5Z"/>
    </clipPath>
    <clipPath id="clipRect">
      <rect x="-40" y="-30" width="80" height="60" rx="10"/>
    </clipPath>
    <clipPath id="clipDynamic">
      <circle cx="0" cy="0" r="20.0"/>
    </clipPath>
    <mask id="maskGradient" maskContentUnits="objectBoundingBox">
      <rect x="0" y="0" width="1" height="1" fill="url(#maskGrad)"/>
    </mask>
    <linearGradient id="maskGrad" x1="0%" y1="0%" x2="100%" y2="100%">
      <stop offset="0%" stop-color="white"/>
      <stop offset="100%" stop-color="black"/>
    </linearGradient>
    <mask id="maskCircleFade">
      <circle cx="0" cy="0" r="60" fill="white"/>
      <circle cx="0" cy="0" r="30" fill="black"/>
    </mask>
    <mask id="maskStripes">
      <rect x="-50" y="-50" width="100" height="100" fill="white"/>
      <rect x="-50" y="-40" width="100" height="10" fill="black"/>
      <rect x="-50" y="-20" width="100" height="10" fill="black"/>
      <rect x="-50" y="0" width="100" height="10" fill="black"/>
      <rect x="-50" y="20" width="100" height="10" fill="black"/>
      <rect x="-50" y="40" width="100" height="10" fill="black"/>
    </mask>
    <mask id="maskDynamic">
      <rect x="-60" y="-60" width="120" height="120" fill="white" fill-opacity="0.78"/>
      <circle cx="0" cy="0" r="25" fill="white"/>
    </mask>
  </defs>
  <rect width="1920" height="1080" fill="url(#lgrad0)"/>
  <g transform="translate(70.0, 101.4)">
      <g transform="translate(-4.99,0.22) rotate(3.44) scale(1.000)">
        <g transform="translate(-4.25,1.39) rotate(5.29) scale(0.980)">
        <g transform="translate(-2.47,2.44) rotate(5.25) scale(0.960)">
        <g transform="translate(-0.08,3.27) rotate(3.14) scale(0.940)" clip-path="url(#clipCircle)">
        <g transform="translate(2.33,3.80) rotate(-1.05) scale(0.920)">
        <g transform="translate(4.16,4.00) rotate(-7.19) scale(0.900)">
        <g transform="translate(4.98,3.84) rotate(-14.97) scale(0.880)">
        <path d="M0.0,-70.3 L20.7,-28.4 L66.9,-21.7 L33.4,10.9 L41.3,56.9 L0.0,35.2 L-41.3,56.9 L-33.4,10.9 L-66.9,-21.7 L-20.7,-28.4Z" fill="url(#lgrad0)" filter="url(#blur0)" opacity="0.77"/>
      </g>
      </g>
      </g>
      </g>
      </g>
      </g>
      </g>
  </g>
  <g transform="translate(294.5, 117.1)">
      <g transform="translate(-2.47,3.48) rotate(3.44) scale(1.000)">
        <g transform="translate(-0.08,3.91) rotate(5.29) scale(0.980)">
        <g transform="translate(2.33,3.99) rotate(5.25) scale(0.960)">
        <g transform="translate(4.16,3.71) rotate(3.14) scale(0.940)">
        <g transform="translate(4.98,3.10) rotate(-1.05) scale(0.920)">
        <g transform="translate(4.58,2.21) rotate(-7.19) scale(0.900)" mask="url(#maskCircleFade)">
        <g transform="translate(3.06,1.13) rotate(-14.97) scale(0.880)">
        <rect x="-28.2" y="-28.2" width="56.4" height="56.4" rx="14.1" fill="url(#rgrad1)" filter="url(#shadow)" opacity="0.68"/>
        <circle cx="0" cy="0" r="18.8" fill="url(#rgrad2)" opacity="0.47"/>
      </g>
      </g>
      </g>
      </g>
      </g>
      </g>
      </g>
  </g>
  <g transform="translate(525.2, 124.8)">
      <g transform="translate(2.33,3.54) rotate(3.44) scale(1.000)">
        <g transform="translate(4.16,2.83) rotate(5.29) scale(0.980)">
        <g transform="translate(4.98,1.87) rotate(5.25) scale(0.960)">
        <g transform="translate(4.58,0.74) rotate(3.14) scale(0.940)">
        <g transform="translate(3.06,-0.45) rotate(-1.05) scale(0.920)">
        <g transform="translate(0.78,-1.61) rotate(-7.19) scale(0.900)">
        <g transform="translate(-1.68,-2.62) rotate(-14.97) scale(0.880)">
        <path d="M23.8,13.7 L0.0,27.5 L-23.8,13.7 L-23.8,-13.7 L-0.0,-27.5 L23.8,-13.7Z" fill="url(#rgrad2)" filter="url(#blur2)" opacity="0.56"/>
        <ellipse cx="0" cy="0" rx="11.5" ry="7.6" fill="#FFFFFF" opacity="0.28"/>
      </g>
      </g>
      </g>
      </g>
      </g>
      </g>
      </g>
  </g>
  <g transform="translate(759.5, 120.9)">
      <g transform="translate(4.98,0.35) rotate(3.44) scale(1.000)">
        <g transform="translate(4.58,-0.85) rotate(5.29) scale(0.980)">
        <g transform="translate(3.06,-1.96) rotate(5.25) scale(0.960)">
        <g transform="translate(0.78,-2.91) rotate(3.14) scale(0.940)" clip-path="url(#clipRect)">
        <g transform="translate(-1.68,-3.59) rotate(-1.05) scale(0.920)">
        <g transform="translate(-3.73,-3.95) rotate(-7.19) scale(0.900)">
        <g transform="translate(-4.87,-3.96) rotate(-14.97) scale(0.880)">
        <circle cx="0" cy="0" r="24.1" fill="url(#lgrad3)" filter="url(#shadow)" opacity="0.44"/>
        <text x="0" y="5" text-anchor="middle" font-family="Arial, sans-serif" font-size="14" fill="#FFFFFF" opacity="0.44">759</text>
      </g>
      </g>
      </g>
      </g>
      </g>
      </g>
      </g>
  </g>
  <g transform="translate(994.0, 107.1)">
      <g transform="translate(3.06,-3.17) rotate(3.44) scale(1.000)">
        <g transform="translate(0.78,-3.75) rotate(5.29) scale(0.980)">
        <g transform="translate(-1.68,-3.99) rotate(5.25) scale(0.960)">
        <g transform="translate(-3.73,-3.88) rotate(3.14) scale(0.940)">
        <g transform="translate(-4.87,-3.43) rotate(-1.05) scale(0.920)">
        <g transform="translate(-4.82,-2.66) rotate(-7.19) scale(0.900)" mask="url(#maskGradient)">
        <g transform="translate(-3.58,-1.66) rotate(-14.97) scale(0.880)">
        <path d="M0.0,-61.5 L18.1,-24.9 L58.5,-19.0 L29.2,9.5 L36.2,49.8 L0.0,30.8 L-36.2,49.8 L-29.2,9.5 L-58.5,-19.0 L-18.1,-24.9Z" fill="url(#rgrad4)" filter="url(#blur4)" opacity="0.33"/>
      </g>
      </g>
      </g>
      </g>
      </g>
      </g>
      </g>
  </g>
  <g transform="translate(1225.0, 90.0)">
      <g transform="translate(-1.68,-3.77) rotate(3.44) scale(1.000)">
        <g transform="translate(-3.73,-3.20) rotate(5.29) scale(0.980)">
        <g transform="translate(-4.87,-2.35) rotate(5.25) scale(0.960)">
        <g transform="translate(-4.82,-1.29) rotate(3.14) scale(0.940)">
        <g transform="translate(-3.58,-0.11) rotate(-1.05) scale(0.920)">
        <g transform="translate(-1.47,1.07) rotate(-7.19) scale(0.900)">
        <g transform="translate(1.00,2.16) rotate(-14.97) scale(0.880)">
        <rect x="-36.7" y="-36.7" width="73.4" height="73.4" rx="18.3" fill="url(#rgrad0)" filter="url(#shadow)" opacity="0.23"/>
        <circle cx="0" cy="0" r="24.5" fill="url(#rgrad1)" opacity="0.16"/>
      </g>
      </g>
      </g>
      </g>
      </g>
      </g>
      </g>
  </g>
  <g transform="translate(1449.9, 77.6)">
      <g transform="translate(-4.87,-0.90) rotate(3.44) scale(1.000)">
        <g transform="translate(-4.82,0.29) rotate(5.29) scale(0.980)">
        <g transform="translate(-3.58,1.45) rotate(5.25) scale(0.960)">
        <g transform="translate(-1.47,2.49) rotate(3.14) scale(0.940)" clip-path="url(#clipStar)">
        <g transform="translate(1.00,3.30) rotate(-1.05) scale(0.920)">
        <g transform="translate(3.23,3.82) rotate(-7.19) scale(0.900)">
        <g transform="translate(4.66,4.00) rotate(-14.97) scale(0.880)">
        <path d="M37.9,21.9 L0.0,43.8 L-37.9,21.9 L-37.9,-21.9 L-0.0,-43.8 L37.9,-21.9Z" fill="url(#lgrad1)" filter="url(#blur1)" opacity="0.15"/>
        <ellipse cx="0" cy="0" rx="18.2" ry="12.2" fill="#FFFFFF" opacity="0.08"/>
      </g>
      </g>
      </g>
      </g>
      </g>
      </g>
      </g>
  </g>
  <g transform="translate(1667.5, 75.7)">
      <g transform="translate(-3.58,2.79) rotate(3.44) scale(1.000)">
        <g transform="translate(-1.47,3.51) rotate(5.29) scale(0.980)">
        <g transform="translate(1.00,3.92) rotate(5.25) scale(0.960)">
        <g transform="translate(3.23,3.98) rotate(3.14) scale(0.940)">
        <g transform="translate(4.66,3.68) rotate(-1.05) scale(0.920)">
        <g transform="translate(4.96,3.06) rotate(-7.19) scale(0.900)" mask="url(#maskDynamic)">
        <g transform="translate(4.04,2.16) rotate(-14.97) scale(0.880)">
        <circle cx="0" cy="0" r="30.3" fill="url(#rgrad2)" filter="url(#shadow)" opacity="0.11"/>
        <text x="0" y="5" text-anchor="middle" font-family="Arial, sans-serif" font-size="14" fill="#FFFFFF" opacity="0.11">759</text>
      </g>
      </g>
      </g>
      </g>
      </g>
      </g>
      </g>
  </g>
  <g transform="translate(118.3, 365.3)">
      <g transform="translate(1.00,3.92) rotate(3.44) scale(1.000)">
        <g transform="translate(3.23,3.51) rotate(5.29) scale(0.980)">
        <g transform="translate(4.66,2.78) rotate(5.25) scale(0.960)">
        <g transform="translate(4.96,1.81) rotate(3.14) scale(0.940)">
        <g transform="translate(4.04,0.68) rotate(-1.05) scale(0.920)">
        <g transform="translate(2.13,-0.52) rotate(-7.19) scale(0.900)">
        <g transform="translate(-0.30,-1.67) rotate(-14.97) scale(0.880)">
        <path d="M0.0,-47.7 L14.0,-19.3 L45.4,-14.7 L22.7,7.4 L28.0,38.6 L0.0,23.9 L-28.0,38.6 L-22.7,7.4 L-45.4,-14.7 L-14.0,-19.3Z" fill="url(#rgrad3)" filter="url(#blur3)" opacity="0.10"/>
      </g>
      </g>
      </g>
      </g>
      </g>
      </g>
      </g>
  </g>
  <g transform="translate(324.7, 381.8)">
      <g transform="translate(4.66,1.45) rotate(3.44) scale(1.000)">
        <g transform="translate(4.96,0.28) rotate(5.29) scale(0.980)">
        <g transform="translate(4.04,-0.91) rotate(5.25) scale(0.960)">
        <g transform="translate(2.13,-2.02) rotate(3.14) scale(0.940)" clip-path="url(#clipDynamic)">
        <g transform="translate(-0.30,-2.95) rotate(-1.05) scale(0.920)">
        <g transform="translate(-2.65,-3.62) rotate(-7.19) scale(0.900)">
        <g transform="translate(-4.36,-3.96) rotate(-14.97) scale(0.880)">
        <rect x="-23.1" y="-23.1" width="46.1" height="46.1" rx="11.5" fill="url(#lgrad4)" filter="url(#shadow)" opacity="0.13"/>
        <circle cx="0" cy="0" r="15.4" fill="url(#rgrad0)" opacity="0.09"/>
      </g>
      </g>
      </g>
      </g>
      </g>
      </g>
      </g>
  </g>
  <g transform="translate(529.9, 397.4)">
      <g transform="translate(4.04,-2.36) rotate(3.44) scale(1.000)">
        <g transform="translate(2.13,-3.21) rotate(5.29) scale(0.980)">
        <g transform="translate(-0.30,-3.77) rotate(5.25) scale(0.960)">
        <g transform="translate(-2.65,-4.00) rotate(3.14) scale(0.940)">
        <g transform="translate(-4.36,-3.87) rotate(-1.05) scale(0.920)">
        <g transform="translate(-5.00,-3.39) rotate(-7.19) scale(0.900)" mask="url(#maskStripes)">
        <g transform="translate(-4.41,-2.61) rotate(-14.97) scale(0.880)">
        <path d="M29.8,17.2 L0.0,34.4 L-29.8,17.2 L-29.8,-17.2 L-0.0,-34.4 L29.8,-17.2Z" fill="url(#rgrad0)" filter="url(#blur0)" opacity="0.19"/>
        <ellipse cx="0" cy="0" rx="14.3" ry="9.5" fill="#FFFFFF" opacity="0.09"/>
      </g>
      </g>
      </g>
      </g>
      </g>
      </g>
      </g>
  </g>
  <g transform="translate(737.6, 404.9)">
      <g transform="translate(-0.30,-3.99) rotate(3.44) scale(1.000)">
        <g transform="translate(-2.65,-3.74) rotate(5.29) scale(0.980)">
        <g transform="translate(-4.36,-3.16) rotate(5.25) scale(0.960)">
        <g transform="translate(-5.00,-2.30) rotate(3.14) scale(0.940)">
        <g transform="translate(-4.41,-1.23) rotate(-1.05) scale(0.920)">
        <g transform="translate(-2.75,-0.05) rotate(-7.19) scale(0.900)">
        <g transform="translate(-0.41,1.14) rotate(-14.97) scale(0.880)">
        <circle cx="0" cy="0" r="35.5" fill="url(#rgrad1)" filter="url(#shadow)" opacity="0.27"/>
        <text x="0" y="5" text-anchor="middle" font-family="Arial, sans-serif" font-size="14" fill="#FFFFFF" opacity="0.27">759</text>
      </g>
      </g>
      </g>
      </g>
      </g>
      </g>
      </g>
  </g>
  <g transform="translate(950.8, 400.6)">
      <g transform="translate(-4.36,-1.96) rotate(3.44) scale(1.000)">
        <g transform="translate(-5.00,-0.84) rotate(5.29) scale(0.980)">
        <g transform="translate(-4.41,0.35) rotate(5.25) scale(0.960)">
        <g transform="translate(-2.75,1.52) rotate(3.14) scale(0.940)" clip-path="url(#clipHex)">
        <g transform="translate(-0.41,2.54) rotate(-1.05) scale(0.920)">
        <g transform="translate(2.03,3.34) rotate(-7.19) scale(0.900)">
        <g transform="translate(3.97,3.84) rotate(-14.97) scale(0.880)">
        <path d="M0.0,-74.5 L21.9,-30.2 L70.9,-23.0 L35.4,11.5 L43.8,60.3 L0.0,37.3 L-43.8,60.3 L-35.4,11.5 L-70.9,-23.0 L-21.9,-30.2Z" fill="url(#lgrad2)" filter="url(#blur2)" opacity="0.38"/>
      </g>
      </g>
      </g>
      </g>
      </g>
      </g>
      </g>
  </g>
  <g transform="translate(1171.1, 386.7)">
      <g transform="translate(-4.41,1.88) rotate(3.44) scale(1.000)">
        <g transform="translate(-2.75,2.84) rotate(5.29) scale(0.980)">
        <g transform="translate(-0.41,3.54) rotate(5.25) scale(0.960)">
        <g transform="translate(2.03,3.93) rotate(3.14) scale(0.940)">
        <g transform="translate(3.97,3.97) rotate(-1.05) scale(0.920)">
        <g transform="translate(4.94,3.66) rotate(-7.19) scale(0.900)" mask="url(#maskCircleFade)">
        <g transform="translate(4.70,3.01) rotate(-14.97) scale(0.880)">
        <rect x="-32.4" y="-32.4" width="64.8" height="64.8" rx="16.2" fill="url(#rgrad3)" filter="url(#shadow)" opacity="0.50"/>
        <circle cx="0" cy="0" r="21.6" fill="url(#rgrad4)" opacity="0.35"/>
      </g>
      </g>
      </g>
      </g>
      </g>
      </g>
      </g>
  </g>
  <g transform="translate(1398.5, 369.6)">
      <g transform="translate(-0.41,3.99) rotate(3.44) scale(1.000)">
        <g transform="translate(2.03,3.91) rotate(5.29) scale(0.980)">
        <g transform="translate(3.97,3.48) rotate(5.25) scale(0.960)">
        <g transform="translate(4.94,2.74) rotate(3.14) scale(0.940)">
        <g transform="translate(4.70,1.75) rotate(-1.05) scale(0.920)">
        <g transform="translate(3.31,0.61) rotate(-7.19) scale(0.900)">
        <g transform="translate(1.11,-0.59) rotate(-14.97) scale(0.880)">
        <path d="M26.3,15.2 L0.0,30.4 L-26.3,15.2 L-26.3,-15.2 L-0.0,-30.4 L26.3,-15.2Z" fill="url(#rgrad4)" filter="url(#blur4)" opacity="0.62"/>
        <ellipse cx="0" cy="0" rx="12.7" ry="8.4" fill="#FFFFFF" opacity="0.31"/>
      </g>
      </g>
      </g>
      </g>
      </g>
      </g>
      </g>
  </g>
  <g transform="translate(1631.2, 357.4)">
      <g transform="translate(3.97,2.43) rotate(3.44) scale(1.000)">
        <g transform="translate(4.94,1.38) rotate(5.29) scale(0.980)">
        <g transform="translate(4.70,0.21) rotate(5.25) scale(0.960)">
        <g transform="translate(3.31,-0.98) rotate(3.14) scale(0.940)" clip-path="url(#clipCircle)">
        <g transform="translate(1.11,-2.08) rotate(-1.05) scale(0.920)">
        <g transform="translate(-1.36,-3.00) rotate(-7.19) scale(0.900)">
        <g transform="translate(-3.50,-3.65) rotate(-14.97) scale(0.880)">
        <circle cx="0" cy="0" r="22.5" fill="url(#lgrad0)" filter="url(#shadow)" opacity="0.73"/>
        <text x="0" y="5" text-anchor="middle" font-family="Arial, sans-serif" font-size="14" fill="#FFFFFF" opacity="0.73">759</text>
      </g>
      </g>
      </g>
      </g>
      </g>
      </g>
      </g>
  </g>
  <g transform="translate(106.0, 635.8)">
      <g transform="translate(4.70,-1.36) rotate(3.44) scale(1.000)">
        <g transform="translate(3.31,-2.41) rotate(5.29) scale(0.980)">
        <g transform="translate(1.11,-3.25) rotate(5.25) scale(0.960)">
        <g transform="translate(-1.36,-3.79) rotate(3.14) scale(0.940)">
        <g transform="translate(-3.50,-4.00) rotate(-1.05) scale(0.920)">
        <g transform="translate(-4.78,-3.85) rotate(-7.19) scale(0.900)" mask="url(#maskGradient)">
        <g transform="translate(-4.89,-3.35) rotate(-14.97) scale(0.880)">
        <path d="M0.0,-53.3 L15.7,-21.5 L50.7,-16.5 L25.3,8.2 L31.3,43.1 L0.0,26.6 L-31.3,43.1 L-25.3,8.2 L-50.7,-16.5 L-15.7,-21.5Z" fill="url(#rgrad1)" filter="url(#blur1)" opacity="0.81"/>
      </g>
      </g>
      </g>
      </g>
      </g>
      </g>
      </g>
  </g>
  <g transform="translate(339.4, 645.7)">
      <g transform="translate(1.11,-3.90) rotate(3.44) scale(1.000)">
        <g transform="translate(-1.36,-3.99) rotate(5.29) scale(0.980)">
        <g transform="translate(-3.50,-3.72) rotate(5.25) scale(0.960)">
        <g transform="translate(-4.78,-3.12) rotate(3.14) scale(0.940)">
        <g transform="translate(-4.89,-2.24) rotate(-1.05) scale(0.920)">
        <g transform="translate(-3.81,-1.16) rotate(-7.19) scale(0.900)">
        <g transform="translate(-1.79,0.02) rotate(-14.97) scale(0.880)">
        <rect x="-33.8" y="-33.8" width="67.6" height="67.6" rx="16.9" fill="url(#rgrad2)" filter="url(#shadow)" opacity="0.87"/>
        <circle cx="0" cy="0" r="22.5" fill="url(#rgrad3)" opacity="0.61"/>
      </g>
      </g>
      </g>
      </g>
      </g>
      </g>
      </g>
  </g>
  <g transform="translate(568.0, 662.2)">
      <g transform="translate(-3.50,-2.85) rotate(3.44) scale(1.000)">
        <g transform="translate(-4.78,-1.90) rotate(5.29) scale(0.980)">
        <g transform="translate(-4.89,-0.77) rotate(5.25) scale(0.960)">
        <g transform="translate(-3.81,0.42) rotate(3.14) scale(0.940)" clip-path="url(#clipRect)">
        <g transform="translate(-1.79,1.58) rotate(-1.05) scale(0.920)">
        <g transform="translate(0.67,2.59) rotate(-7.19) scale(0.900)">
        <g transform="translate(2.96,3.38) rotate(-14.97) scale(0.880)">
        <path d="M39.0,22.5 L0.0,45.0 L-39.0,22.5 L-39.0,-22.5 L-0.0,-45.0 L39.0,-22.5Z" fill="url(#lgrad3)" filter="url(#blur3)" opacity="0.90"/>
        <ellipse cx="0" cy="0" rx="18.7" ry="12.5" fill="#FFFFFF" opacity="0.45"/>
      </g>
      </g>
      </g>
      </g>
      </g>
      </g>
      </g>
  </g>
  <g transform="translate(789.7, 677.7)">
      <g transform="translate(-4.89,0.82) rotate(3.44) scale(1.000)">
        <g transform="translate(-3.81,1.94) rotate(5.29) scale(0.980)">
        <g transform="translate(-1.79,2.88) rotate(5.25) scale(0.960)">
        <g transform="translate(0.67,3.57) rotate(3.14) scale(0.940)">
        <g transform="translate(2.96,3.95) rotate(-1.05) scale(0.920)">
        <g transform="translate(4.53,3.96) rotate(-7.19) scale(0.900)" mask="url(#maskDynamic)">
        <g transform="translate(4.99,3.63) rotate(-14.97) scale(0.880)">
        <circle cx="0" cy="0" r="34.3" fill="url(#rgrad4)" filter="url(#shadow)" opacity="0.89"/>
        <text x="0" y="5" text-anchor="middle" font-family="Arial, sans-serif" font-size="14" fill="#FFFFFF" opacity="0.89">759</text>
      </g>
      </g>
      </g>
      </g>
      </g>
      </g>
      </g>
  </g>
  <g transform="translate(1004.2, 684.9)">
      <g transform="translate(-1.79,3.74) rotate(3.44) scale(1.000)">
        <g transform="translate(0.67,3.99) rotate(5.29) scale(0.980)">
        <g transform="translate(2.96,3.89) rotate(5.25) scale(0.960)">
        <g transform="translate(4.53,3.44) rotate(3.14) scale(0.940)">
        <g transform="translate(4.99,2.69) rotate(-1.05) scale(0.920)">
        <g transform="translate(4.23,1.69) rotate(-7.19) scale(0.900)">
        <g transform="translate(2.43,0.54) rotate(-14.97) scale(0.880)">
        <path d="M0.0,-54.3 L15.9,-21.9 L51.6,-16.8 L25.8,8.4 L31.9,43.9 L0.0,27.1 L-31.9,43.9 L-25.8,8.4 L-51.6,-16.8 L-15.9,-21.9Z" fill="url(#rgrad0)" filter="url(#blur0)" opacity="0.85"/>
      </g>
      </g>
      </g>
      </g>
      </g>
      </g>
      </g>
  </g>
  <g transform="translate(1212.8, 680.4)">
      <g transform="translate(2.96,3.22) rotate(3.44) scale(1.000)">
        <g transform="translate(4.53,2.38) rotate(5.29) scale(0.980)">
        <g transform="translate(4.99,1.32) rotate(5.25) scale(0.960)">
        <g transform="translate(4.23,0.14) rotate(3.14) scale(0.940)" clip-path="url(#clipStar)">
        <g transform="translate(2.43,-1.04) rotate(-1.05) scale(0.920)">
        <g transform="translate(0.03,-2.14) rotate(-7.19) scale(0.900)">
        <g transform="translate(-2.37,-3.04) rotate(-14.97) scale(0.880)">
        <rect x="-22.6" y="-22.6" width="45.2" height="45.2" rx="11.3" fill="url(#lgrad1)" filter="url(#shadow)" opacity="0.77"/>
        <circle cx="0" cy="0" r="15.1" fill="url(#rgrad2)" opacity="0.54"/>
      </g>
      </g>
      </g>
      </g>
      </g>
      </g>
      </g>
  </g>
  <g transform="translate(1418.2, 666.3)">
      <g transform="translate(4.99,-0.26) rotate(3.44) scale(1.000)">
        <g transform="translate(4.23,-1.42) rotate(5.29) scale(0.980)">
        <g transform="translate(2.43,-2.46) rotate(5.25) scale(0.960)">
        <g transform="translate(0.03,-3.29) rotate(3.14) scale(0.940)">
        <g transform="translate(-2.37,-3.81) rotate(-1.05) scale(0.920)">
        <g transform="translate(-4.19,-4.00) rotate(-7.19) scale(0.900)" mask="url(#maskStripes)">
        <g transform="translate(-4.98,-3.83) rotate(-14.97) scale(0.880)">
        <path d="M25.9,14.9 L0.0,29.9 L-25.9,14.9 L-25.9,-14.9 L-0.0,-29.9 L25.9,-14.9Z" fill="url(#rgrad2)" filter="url(#blur2)" opacity="0.67"/>
        <ellipse cx="0" cy="0" rx="12.4" ry="8.3" fill="#FFFFFF" opacity="0.34"/>
      </g>
      </g>
      </g>
      </g>
      </g>
      </g>
      </g>
  </g>
  <g transform="translate(1624.1, 649.2)">
      <g transform="translate(2.43,-3.50) rotate(3.44) scale(1.000)">
        <g transform="translate(0.03,-3.91) rotate(5.29) scale(0.980)">
        <g transform="translate(-2.37,-3.98) rotate(5.25) scale(0.960)">
        <g transform="translate(-4.19,-3.69) rotate(3.14) scale(0.940)">
        <g transform="translate(-4.98,-3.08) rotate(-1.05) scale(0.920)">
        <g transform="translate(-4.56,-2.18) rotate(-7.19) scale(0.900)">
        <g transform="translate(-3.02,-1.10) rotate(-14.97) scale(0.880)">
        <circle cx="0" cy="0" r="31.9" fill="url(#rgrad3)" filter="url(#shadow)" opacity="0.56"/>
        <text x="0" y="5" text-anchor="middle" font-family="Arial, sans-serif" font-size="14" fill="#FFFFFF" opacity="0.56">759</text>
      </g>
      </g>
      </g>
      </g>
      </g>
      </g>
      </g>
  </g>
  <g transform="translate(73.8, 917.2)">
      <g transform="translate(-2.37,-3.52) rotate(3.44) scale(1.000)">
        <g transform="translate(-4.19,-2.81) rotate(5.29) scale(0.980)">
        <g transform="translate(-4.98,-1.84) rotate(5.25) scale(0.960)">
        <g transform="translate(-4.56,-0.71) rotate(3.14) scale(0.940)" clip-path="url(#clipDynamic)">
        <g transform="translate(-3.02,0.49) rotate(-1.05) scale(0.920)">
        <g transform="translate(-0.74,1.64) rotate(-7.19) scale(0.900)">
        <g transform="translate(1.72,2.64) rotate(-14.97) scale(0.880)">
        <path d="M0.0,-74.2 L21.8,-30.0 L70.6,-22.9 L35.3,11.5 L43.6,60.1 L0.0,37.1 L-43.6,60.1 L-35.3,11.5 L-70.6,-22.9 L-21.8,-30.0Z" fill="url(#lgrad4)" filter="url(#blur4)" opacity="0.44"/>
      </g>
      </g>
      </g>
      </g>
      </g>
      </g>
      </g>
  </g>
  <g transform="translate(200.2, 304.4)" mask="url(#maskGradient)">
    <ellipse cx="0" cy="0" rx="200" ry="150" fill="url(#rgrad0)" filter="url(#blur3)" opacity="0.3"/>
  </g>
  <g transform="translate(750.7, 354.8)" mask="url(#maskCircleFade)">
    <ellipse cx="0" cy="0" rx="200" ry="150" fill="url(#rgrad1)" filter="url(#blur3)" opacity="0.3"/>
  </g>
  <g transform="translate(1346.6, 379.5)" mask="url(#maskStripes)">
    <ellipse cx="0" cy="0" rx="200" ry="150" fill="url(#rgrad2)" filter="url(#blur3)" opacity="0.3"/>
  </g>
</svg>