<?xml version="1.0" encoding="UTF-8"?>
<svg xmlns="http://www.w3.org/2000/svg" viewBox="0 0 1920 1080" width="1920" height="1080">
  <defs>
    <filter id="blur0" x="-50%" y="-50%" width="200%" height="200%">
      <feGaussianBlur in="SourceGraphic" stdDeviation="1"/>
    </filter>
    <filter id="blur1" x="-50%" y="-50%" width="200%" height="200%">
      <feGaussianBlur in="SourceGraphic" stdDeviation="3"/>
    </filter>
    <filter id="blur2" x="-50%" y="-50%" width="200%" height="200%">
      <feGaussianBlur in="SourceGraphic" stdDeviation="5"/>
    </filter>
    <filter id="blur3" x="-50%" y="-50%" width="200%" height="200%">
      <feGaussianBlur in="SourceGraphic" stdDeviation="7"/>
    </filter>
    <filter id="blur4" x="-50%" y="-50%" width="200%" height="200%">
      <feGaussianBlur in="SourceGraphic" stdDeviation="9"/>
    </filter>
    <filter id="shadow" x="-50%" y="-50%" width="200%" height="200%">
      <feGaussianBlur in="SourceAlpha" stdDeviation="3" result="blur"/>
      <feOffset in="blur" dx="4" dy="4" result="offsetBlur"/>
      <feMerge>
        <feMergeNode in="offsetBlur"/>
        <feMergeNode in="SourceGraphic"/>
      </feMerge>
    </filter>
    <linearGradient id="lgrad0" x1="0%" y1="0%" x2="0.2%" y2="46.1%">
      <stop offset="0%" stop-color="#FF6B6B"/>
      <stop offset="33%" stop-color="#4ECDC4"/>
      <stop offset="66%" stop-color="#45B7D1"/>
      <stop offset="100%" stop-color="#96E6A1"/>
    </linearGradient>
    <linearGradient id="lgrad1" x1="0%" y1="0%" x2="8.8%" y2="21.7%">
      <stop offset="0%" stop-color="#FFE66D"/>
      <stop offset="33%" stop-color="#FF6B6B"/>
      <stop offset="66%" stop-color="#C44D58"/>
      <stop offset="100%" stop-color="#8B0000"/>
    </linearGradient>
    <linearGradient id="lgrad2" x1="0%" y1="0%" x2="28.5%" y2="4.9%">
      <stop offset="0%" stop-color="#4169E1"/>
      <stop offset="33%" stop-color="#7B68EE"/>
      <stop offset="66%" stop-color="#9370DB"/>
      <stop offset="100%" stop-color="#FFD700"/>
    </linearGradient>
    <linearGradient id="lgrad3" x1="0%" y1="0%" x2="53.9%" y2="0.2%">
      <stop offset="0%" stop-color="#32CD32"/>
      <stop offset="33%" stop-color="#228B22"/>
      <stop offset="66%" stop-color="#006400"/>
      <stop offset="100%" stop-color="#ADFF2F"/>
    </linearGradient>
    <linearGradient id="lgrad4" x1="0%" y1="0%" x2="78.3%" y2="8.8%">
      <stop offset="0%" stop-color="#FF1493"/>
      <stop offset="33%" stop-color="#FF69B4"/>
      <stop offset="66%" stop-color="#FFB6C1"/>
      <stop offset="100%" stop-color="#FFC0CB"/>
    </linearGradient>
    <radialGradient id="rgrad0" cx="33.7%" cy="45.8%" r="60%">
      <stop offset="0%" stop-color="#FF6B6B" stop-opacity="1"/>
      <stop offset="50%" stop-color="#4ECDC4" stop-opacity="0.8"/>
      <stop offset="100%" stop-color="#45B7D1" stop-opacity="0.6"/>
    </radialGradient>
    <radialGradient id="rgrad1" cx="43.7%" cy="53.8%" r="60%">
      <stop offset="0%" stop-color="#FFE66D" stop-opacity="1"/>
      <stop offset="50%" stop-color="#FF6B6B" stop-opacity="0.8"/>
      <stop offset="100%" stop-color="#C44D58" stop-opacity="0.6"/>
    </radialGradient>
    <radialGradient id="rgrad2" cx="53.7%" cy="61.8%" r="60%">
      <stop offset="0%" stop-color="#4169E1" stop-opacity="1"/>
      <stop offset="50%" stop-color="#7B68EE" stop-opacity="0.8"/>
      <stop offset="100%" stop-color="#9370DB" stop-opacity="0.6"/>
    </radialGradient>
    <radialGradient id="rgrad3" cx="63.7%" cy="69.8%" r="60%">
      <stop offset="0%" stop-color="#32CD32" stop-opacity="1"/>
      <stop offset="50%" stop-color="#228B22" stop-opacity="0.8"/>
      <stop offset="100%" stop-color="#006400" stop-opacity="0.6"/>
    </radialGradient>
    <radialGradient id="rgrad4" cx="33.7%" cy="37.8%" r="60%">
      <stop offset="0%" stop-color="#FF1493" stop-opacity="1"/>
      <stop offset="50%" stop-color="#FF69B4" stop-opacity="0.8"/>
      <stop offset="100%" stop-color="#FFB6C1" stop-opacity="0.6"/>
    </radialGradient>
    <clipPath id="clipCircle">
      <circle cx="0" cy="0" r="50"/>
    </clipPath>
    <clipPath id="clipStar">
      <path d="M0.0,-50.0 L14.7,-20.2 L47.6,-15.5 L23.8,7.7 L29.4,40.5 L0.0,25.0 L-29.4,40.5 L-23.8,7.7 L-47.6,-15.5 L-14.7,-20.2Z"/>
    </clipPath>
    <clipPath id="clipHex">
      <path d="M39.0,22.5 L0.0,45.0 L-39.0,22.5 L-39.0,-22.5 L-0.0,-45.0 L39.0,-22.5Z"/>
    </clipPath>
    <clipPath id="clipRect">
      <rect x="-40" y="-30" width="80" height="60" rx="10"/>
    </clipPath>
    <clipPath id="clipDynamic">
      <circle cx="0" cy="0" r="49.8"/>
    </clipPath>
    <mask id="maskGradient" maskContentUnits="objectBoundingBox">
      <rect x="0" y="0" width="1" height="1" fill="url(#maskGrad)"/>
    </mask>
    <linearGradient id="maskGrad" x1="0%" y1="0%" x2="100%" y2="100%">
      <stop offset="0%" stop-color="white"/>
      <stop offset="100%" stop-color="black"/>
    </linearGradient>
    <mask id="maskCircleFade">
      <circle cx="0" cy="0" r="60" fill="white"/>
      <circle cx="0" cy="0" r="30" fill="black"/>
    </mask>
    <mask id="maskStripes">
      <rect x="-50" y="-50" width="100" height="100" fill="white"/>
      <rect x="-50" y="-40" width="100" height="10" fill="black"/>
      <rect x="-50" y="-20" width="100" height="10" fill="black"/>
      <rect x="-50" y="0" width="100" height="10" fill="black"/>
      <rect x="-50" y="20" width="100" height="10" fill="black"/>
      <rect x="-50" y="40" width="100" height="10" fill="black"/>
    </mask>
    <mask id="maskDynamic">
      <rect x="-60" y="-60" width="120" height="120" fill="white" fill-opacity="0.84"/>
      <circle cx="0" cy="0" r="25" fill="white"/>
    </mask>
  </defs>
  <rect width="1920" height="1080" fill="url(#lgrad0)"/>
  <g transform="translate(129.5, 95.6)">
      <g transform="translate(4.92,-0.71) rotate(3.84) scale(1.000)">
        <g transform="translate(3.90,-1.84) rotate(8.79) scale(0.980)">
        <g transform="translate(1.92,-2.81) rotate(14.35) scale(0.960)">
        <g transform="translate(-0.53,-3.52) rotate(19.91) scale(0.940)" clip-path="url(#clipCircle)">
        <g transform="translate(-2.85,-3.93) rotate(24.87) scale(0.920)">
        <g transform="translate(-4.47,-3.98) rotate(28.63) scale(0.900)">
        <g transform="translate(-5.00,-3.67) rotate(30.66) scale(0.880)">
        <path d="M0.0,-71.5 L21.0,-28.9 L68.0,-22.1 L34.0,11.0 L42.0,57.8 L0.0,35.8 L-42.0,57.8 L-34.0,11.0 L-68.0,-22.1 L-21.0,-28.9Z" fill="url(#lgrad0)" filter="url(#blur0)" opacity="0.81"/>
      </g>
      </g>
      </g>
      </g>
      </g>
      </g>
      </g>
  </g>
  <g transform="translate(343.4, 80.8)">
      <g transform="translate(1.92,-3.69) rotate(3.84) scale(1.000)">
        <g transform="translate(-0.53,-3.98) rotate(8.79) scale(0.980)">
        <g transform="translate(-2.85,-3.91) rotate(14.35) scale(0.960)">
        <g transform="translate(-4.47,-3.50) rotate(19.91) scale(0.940)">
        <g transform="translate(-5.00,-2.77) rotate(24.87) scale(0.920)">
        <g transform="translate(-4.30,-1.79) rotate(28.63) scale(0.900)" mask="url(#maskCircleFade)">
        <g transform="translate(-2.55,-0.65) rotate(30.66) scale(0.880)">
        <rect x="-37.2" y="-37.2" width="74.3" height="74.3" rx="18.6" fill="url(#rgrad1)" filter="url(#shadow)" opacity="0.87"/>
        <circle cx="0" cy="0" r="24.8" fill="url(#rgrad2)" opacity="0.61"/>
      </g>
      </g>
      </g>
      </g>
      </g>
      </g>
      </g>
  </g>
  <g transform="translate(551.5, 75.0)">
      <g transform="translate(-2.85,-3.29) rotate(3.84) scale(1.000)">
        <g transform="translate(-4.47,-2.46) rotate(8.79) scale(0.980)">
        <g transform="translate(-5.00,-1.42) rotate(14.35) scale(0.960)">
        <g transform="translate(-4.30,-0.26) rotate(19.91) scale(0.940)">
        <g transform="translate(-2.55,0.94) rotate(24.87) scale(0.920)">
        <g transform="translate(-0.17,2.04) rotate(28.63) scale(0.900)">
        <g transform="translate(2.24,2.97) rotate(30.66) scale(0.880)">
        <path d="M33.2,19.2 L0.0,38.4 L-33.2,19.2 L-33.2,-19.2 L-0.0,-38.4 L33.2,-19.2Z" fill="url(#rgrad2)" filter="url(#blur2)" opacity="0.90"/>
        <ellipse cx="0" cy="0" rx="16.0" ry="10.7" fill="#FFFFFF" opacity="0.45"/>
      </g>
      </g>
      </g>
      </g>
      </g>
      </g>
      </g>
  </g>
  <g transform="translate(756.8, 81.0)">
      <g transform="translate(-5.00,0.14) rotate(3.84) scale(1.000)">
        <g transform="translate(-4.30,1.32) rotate(8.79) scale(0.980)">
        <g transform="translate(-2.55,2.38) rotate(14.35) scale(0.960)">
        <g transform="translate(-0.17,3.22) rotate(19.91) scale(0.940)" clip-path="url(#clipRect)">
        <g transform="translate(2.24,3.78) rotate(24.87) scale(0.920)">
        <g transform="translate(4.11,4.00) rotate(28.63) scale(0.900)">
        <g transform="translate(4.97,3.86) rotate(30.66) scale(0.880)">
        <circle cx="0" cy="0" r="25.0" fill="url(#lgrad3)" filter="url(#shadow)" opacity="0.89"/>
        <text x="0" y="5" text-anchor="middle" font-family="Arial, sans-serif" font-size="14" fill="#FFFFFF" opacity="0.89">279</text>
      </g>
      </g>
      </g>
      </g>
      </g>
      </g>
      </g>
  </g>
  <g transform="translate(962.9, 95.9)">
      <g transform="translate(-2.55,3.44) rotate(3.84) scale(1.000)">
        <g transform="translate(-0.17,3.89) rotate(8.79) scale(0.980)">
        <g transform="translate(2.24,3.99) rotate(14.35) scale(0.960)">
        <g transform="translate(4.11,3.74) rotate(19.91) scale(0.940)">
        <g transform="translate(4.97,3.15) rotate(24.87) scale(0.920)">
        <g transform="translate(4.62,2.28) rotate(28.63) scale(0.900)" mask="url(#maskGradient)">
        <g transform="translate(3.13,1.20) rotate(30.66) scale(0.880)">
        <path d="M0.0,-45.2 L13.3,-18.3 L43.0,-14.0 L21.5,7.0 L26.6,36.6 L0.0,22.6 L-26.6,36.6 L-21.5,7.0 L-43.0,-14.0 L-13.3,-18.3Z" fill="url(#rgrad4)" filter="url(#blur4)" opacity="0.85"/>
      </g>
      </g>
      </g>
      </g>
      </g>
      </g>
      </g>
  </g>
  <g transform="translate(1173.2, 112.8)">
      <g transform="translate(2.24,3.57) rotate(3.84) scale(1.000)">
        <g transform="translate(4.11,2.88) rotate(8.79) scale(0.980)">
        <g transform="translate(4.97,1.94) rotate(14.35) scale(0.960)">
        <g transform="translate(4.62,0.82) rotate(19.91) scale(0.940)">
        <g transform="translate(3.13,-0.38) rotate(24.87) scale(0.920)">
        <g transform="translate(0.88,-1.54) rotate(28.63) scale(0.900)">
        <g transform="translate(-1.59,-2.56) rotate(30.66) scale(0.880)">
        <rect x="-27.0" y="-27.0" width="54.0" height="54.0" rx="13.5" fill="url(#rgrad0)" filter="url(#shadow)" opacity="0.78"/>
        <circle cx="0" cy="0" r="18.0" fill="url(#rgrad1)" opacity="0.54"/>
      </g>
      </g>
      </g>
      </g>
      </g>
      </g>
      </g>
  </g>
  <g transform="translate(1390.0, 123.6)">
      <g transform="translate(4.97,0.42) rotate(3.84) scale(1.000)">
        <g transform="translate(4.62,-0.77) rotate(8.79) scale(0.980)">
        <g transform="translate(3.13,-1.90) rotate(14.35) scale(0.960)">
        <g transform="translate(0.88,-2.85) rotate(19.91) scale(0.940)" clip-path="url(#clipStar)">
        <g transform="translate(-1.59,-3.55) rotate(24.87) scale(0.920)">
        <g transform="translate(-3.67,-3.94) rotate(28.63) scale(0.900)">
        <g transform="translate(-4.85,-3.97) rotate(30.66) scale(0.880)">
        <path d="M35.5,20.5 L0.0,41.0 L-35.5,20.5 L-35.5,-20.5 L-0.0,-41.0 L35.5,-20.5Z" fill="url(#lgrad1)" filter="url(#blur1)" opacity="0.68"/>
        <ellipse cx="0" cy="0" rx="17.1" ry="11.4" fill="#FFFFFF" opacity="0.34"/>
      </g>
      </g>
      </g>
      </g>
      </g>
      </g>
      </g>
  </g>
  <g transform="translate(1614.2, 123.4)">
      <g transform="translate(3.13,-3.12) rotate(3.84) scale(1.000)">
        <g transform="translate(0.88,-3.72) rotate(8.79) scale(0.980)">
        <g transform="translate(-1.59,-3.99) rotate(14.35) scale(0.960)">
        <g transform="translate(-3.67,-3.90) rotate(19.91) scale(0.940)">
        <g transform="translate(-4.85,-3.46) rotate(24.87) scale(0.920)">
        <g transform="translate(-4.84,-2.72) rotate(28.63) scale(0.900)" mask="url(#maskDynamic)">
        <g transform="translate(-3.65,-1.73) rotate(30.66) scale(0.880)">
        <circle cx="0" cy="0" r="37.5" fill="url(#rgrad2)" filter="url(#shadow)" opacity="0.57"/>
        <text x="0" y="5" text-anchor="middle" font-family="Arial, sans-serif" font-size="14" fill="#FFFFFF" opacity="0.57">279</text>
      </g>
      </g>
      </g>
      </g>
      </g>
      </g>
      </g>
  </g>
  <g transform="translate(84.7, 392.1)">
      <g transform="translate(-1.59,-3.79) rotate(3.84) scale(1.000)">
        <g transform="translate(-3.67,-3.25) rotate(8.79) scale(0.980)">
        <g transform="translate(-4.85,-2.41) rotate(14.35) scale(0.960)">
        <g transform="translate(-4.84,-1.36) rotate(19.91) scale(0.940)">
        <g transform="translate(-3.65,-0.19) rotate(24.87) scale(0.920)">
        <g transform="translate(-1.56,1.00) rotate(28.63) scale(0.900)">
        <g transform="translate(0.91,2.10) rotate(30.66) scale(0.880)">
        <path d="M0.0,-67.8 L19.9,-27.4 L64.5,-21.0 L32.3,10.5 L39.9,54.9 L0.0,33.9 L-39.9,54.9 L-32.3,10.5 L-64.5,-21.0 L-19.9,-27.4Z" fill="url(#rgrad3)" filter="url(#blur3)" opacity="0.45"/>
      </g>
      </g>
      </g>
      </g>
      </g>
      </g>
      </g>
  </g>
  <g transform="translate(319.0, 375.2)">
      <g transform="translate(-4.85,-0.98) rotate(3.84) scale(1.000)">
        <g transform="translate(-4.84,0.21) rotate(8.79) scale(0.980)">
        <g transform="translate(-3.65,1.38) rotate(14.35) scale(0.960)">
        <g transform="translate(-1.56,2.43) rotate(19.91) scale(0.940)" clip-path="url(#clipDynamic)">
        <g transform="translate(0.91,3.26) rotate(24.87) scale(0.920)">
        <g transform="translate(3.15,3.80) rotate(28.63) scale(0.900)">
        <g transform="translate(4.63,4.00) rotate(30.66) scale(0.880)">
        <rect x="-26.7" y="-26.7" width="53.5" height="53.5" rx="13.4" fill="url(#lgrad4)" filter="url(#shadow)" opacity="0.33"/>
        <circle cx="0" cy="0" r="17.8" fill="url(#rgrad0)" opacity="0.23"/>
      </g>
      </g>
      </g>
      </g>
      </g>
      </g>
      </g>
  </g>
  <g transform="translate(553.5, 360.5)">
      <g transform="translate(-3.65,2.74) rotate(3.84) scale(1.000)">
        <g transform="translate(-1.56,3.48) rotate(8.79) scale(0.980)">
        <g transform="translate(0.91,3.91) rotate(14.35) scale(0.960)">
        <g transform="translate(3.15,3.99) rotate(19.91) scale(0.940)">
        <g transform="translate(4.63,3.71) rotate(24.87) scale(0.920)">
        <g transform="translate(4.97,3.10) rotate(28.63) scale(0.900)" mask="url(#maskStripes)">
        <g transform="translate(4.09,2.22) rotate(30.66) scale(0.880)">
        <path d="M23.4,13.5 L0.0,27.1 L-23.4,13.5 L-23.4,-13.5 L-0.0,-27.1 L23.4,-13.5Z" fill="url(#rgrad0)" filter="url(#blur0)" opacity="0.23"/>
        <ellipse cx="0" cy="0" rx="11.3" ry="7.5" fill="#FFFFFF" opacity="0.12"/>
      </g>
      </g>
      </g>
      </g>
      </g>
      </g>
      </g>
  </g>
  <g transform="translate(784.7, 355.0)">
      <g transform="translate(0.91,3.93) rotate(3.84) scale(1.000)">
        <g transform="translate(3.15,3.54) rotate(8.79) scale(0.980)">
        <g transform="translate(4.63,2.84) rotate(14.35) scale(0.960)">
        <g transform="translate(4.97,1.88) rotate(19.91) scale(0.940)">
        <g transform="translate(4.09,0.75) rotate(24.87) scale(0.920)">
        <g transform="translate(2.22,-0.44) rotate(28.63) scale(0.900)">
        <g transform="translate(-0.20,-1.60) rotate(30.66) scale(0.880)">
        <circle cx="0" cy="0" r="25.2" fill="url(#rgrad1)" filter="url(#shadow)" opacity="0.16"/>
        <text x="0" y="5" text-anchor="middle" font-family="Arial, sans-serif" font-size="14" fill="#FFFFFF" opacity="0.16">279</text>
      </g>
      </g>
      </g>
      </g>
      </g>
      </g>
      </g>
  </g>
  <g transform="translate(1009.8, 361.3)">
      <g transform="translate(4.63,1.52) rotate(3.84) scale(1.000)">
        <g transform="translate(4.97,0.35) rotate(8.79) scale(0.980)">
        <g transform="translate(4.09,-0.84) rotate(14.35) scale(0.960)">
        <g transform="translate(2.22,-1.96) rotate(19.91) scale(0.940)" clip-path="url(#clipHex)">
        <g transform="translate(-0.20,-2.90) rotate(24.87) scale(0.920)">
        <g transform="translate(-2.57,-3.59) rotate(28.63) scale(0.900)">
        <g transform="translate(-4.31,-3.95) rotate(30.66) scale(0.880)">
        <path d="M0.0,-64.5 L19.0,-26.1 L61.4,-19.9 L30.7,10.0 L37.9,52.2 L0.0,32.3 L-37.9,52.2 L-30.7,10.0 L-61.4,-19.9 L-19.0,-26.1Z" fill="url(#lgrad2)" filter="url(#blur2)" opacity="0.11"/>
      </g>
      </g>
      </g>
      </g>
      </g>
      </g>
      </g>
  </g>
  <g transform="translate(1227.7, 376.3)">
      <g transform="translate(4.09,-2.30) rotate(3.84) scale(1.000)">
        <g transform="translate(2.22,-3.16) rotate(8.79) scale(0.980)">
        <g transform="translate(-0.20,-3.74) rotate(14.35) scale(0.960)">
        <g transform="translate(-2.57,-3.99) rotate(19.91) scale(0.940)">
        <g transform="translate(-4.31,-3.88) rotate(24.87) scale(0.920)">
        <g transform="translate(-5.00,-3.43) rotate(28.63) scale(0.900)" mask="url(#maskCircleFade)">
        <g transform="translate(-4.46,-2.67) rotate(30.66) scale(0.880)">
        <rect x="-37.2" y="-37.2" width="74.5" height="74.5" rx="18.6" fill="url(#rgrad3)" filter="url(#shadow)" opacity="0.10"/>
        <circle cx="0" cy="0" r="24.8" fill="url(#rgrad4)" opacity="0.07"/>
      </g>
      </g>
      </g>
      </g>
      </g>
      </g>
      </g>
  </g>
  <g transform="translate(1438.8, 393.1)">
      <g transform="translate(-0.20,-4.00) rotate(3.84) scale(1.000)">
        <g transform="translate(-2.57,-3.77) rotate(8.79) scale(0.980)">
        <g transform="translate(-4.31,-3.21) rotate(14.35) scale(0.960)">
        <g transform="translate(-5.00,-2.36) rotate(19.91) scale(0.940)">
        <g transform="translate(-4.46,-1.30) rotate(24.87) scale(0.920)">
        <g transform="translate(-2.83,-0.12) rotate(28.63) scale(0.900)">
        <g transform="translate(-0.50,1.07) rotate(30.66) scale(0.880)">
        <path d="M36.9,21.3 L0.0,42.7 L-36.9,21.3 L-36.9,-21.3 L-0.0,-42.7 L36.9,-21.3Z" fill="url(#rgrad4)" filter="url(#blur4)" opacity="0.13"/>
        <ellipse cx="0" cy="0" rx="17.8" ry="11.9" fill="#FFFFFF" opacity="0.06"/>
      </g>
      </g>
      </g>
      </g>
      </g>
      </g>
      </g>
  </g>
  <g transform="translate(1645.3, 403.7)">
      <g transform="translate(-4.31,-2.02) rotate(3.84) scale(1.000)">
        <g transform="translate(-5.00,-0.91) rotate(8.79) scale(0.980)">
        <g transform="translate(-4.46,0.28) rotate(14.35) scale(0.960)">
        <g transform="translate(-2.83,1.45) rotate(19.91) scale(0.940)" clip-path="url(#clipCircle)">
        <g transform="translate(-0.50,2.48) rotate(24.87) scale(0.920)">
        <g transform="translate(1.94,3.30) rotate(28.63) scale(0.900)">
        <g transform="translate(3.91,3.82) rotate(30.66) scale(0.880)">
        <circle cx="0" cy="0" r="28.8" fill="url(#lgrad0)" filter="url(#shadow)" opacity="0.18"/>
        <text x="0" y="5" text-anchor="middle" font-family="Arial, sans-serif" font-size="14" fill="#FFFFFF" opacity="0.18">279</text>
      </g>
      </g>
      </g>
      </g>
      </g>
      </g>
      </g>
  </g>
  <g transform="translate(90.5, 683.2)">
      <g transform="translate(-4.46,1.81) rotate(3.84) scale(1.000)">
        <g transform="translate(-2.83,2.78) rotate(8.79) scale(0.980)">
        <g transform="translate(-0.50,3.51) rotate(14.35) scale(0.960)">
        <g transform="translate(1.94,3.92) rotate(19.91) scale(0.940)">
        <g transform="translate(3.91,3.98) rotate(24.87) scale(0.920)">
        <g transform="translate(4.93,3.69) rotate(28.63) scale(0.900)" mask="url(#maskGradient)">
        <g transform="translate(4.73,3.06) rotate(30.66) scale(0.880)">
        <path d="M0.0,-46.2 L13.6,-18.7 L43.9,-14.3 L22.0,7.1 L27.2,37.4 L0.0,23.1 L-27.2,37.4 L-22.0,7.1 L-43.9,-14.3 L-13.6,-18.7Z" fill="url(#rgrad1)" filter="url(#blur1)" opacity="0.27"/>
      </g>
      </g>
      </g>
      </g>
      </g>
      </g>
      </g>
  </g>
  <g transform="translate(298.0, 671.7)">
      <g transform="translate(-0.50,3.98) rotate(3.84) scale(1.000)">
        <g transform="translate(1.94,3.92) rotate(8.79) scale(0.980)">
        <g transform="translate(3.91,3.51) rotate(14.35) scale(0.960)">
        <g transform="translate(4.93,2.79) rotate(19.91) scale(0.940)">
        <g transform="translate(4.73,1.82) rotate(24.87) scale(0.920)">
        <g transform="translate(3.38,0.68) rotate(28.63) scale(0.900)">
        <g transform="translate(1.20,-0.51) rotate(30.66) scale(0.880)">
        <rect x="-23.8" y="-23.8" width="47.6" height="47.6" rx="11.9" fill="url(#rgrad2)" filter="url(#shadow)" opacity="0.38"/>
        <circle cx="0" cy="0" r="15.9" fill="url(#rgrad3)" opacity="0.26"/>
      </g>
      </g>
      </g>
      </g>
      </g>
      </g>
      </g>
  </g>
  <g transform="translate(510.9, 654.8)">
      <g transform="translate(3.91,2.49) rotate(3.84) scale(1.000)">
        <g transform="translate(4.93,1.45) rotate(8.79) scale(0.980)">
        <g transform="translate(4.73,0.29) rotate(14.35) scale(0.960)">
        <g transform="translate(3.38,-0.90) rotate(19.91) scale(0.940)" clip-path="url(#clipRect)">
        <g transform="translate(1.20,-2.02) rotate(24.87) scale(0.920)">
        <g transform="translate(-1.27,-2.95) rotate(28.63) scale(0.900)">
        <g transform="translate(-3.43,-3.61) rotate(30.66) scale(0.880)">
        <path d="M31.4,18.1 L0.0,36.2 L-31.4,18.1 L-31.4,-18.1 L-0.0,-36.2 L31.4,-18.1Z" fill="url(#lgrad3)" filter="url(#blur3)" opacity="0.50"/>
        <ellipse cx="0" cy="0" rx="15.1" ry="10.1" fill="#FFFFFF" opacity="0.25"/>
      </g>
      </g>
      </g>
      </g>
      </g>
      </g>
      </g>
  </g>
  <g transform="translate(731.0, 640.2)">
      <g transform="translate(4.73,-1.29) rotate(3.84) scale(1.000)">
        <g transform="translate(3.38,-2.35) rotate(8.79) scale(0.980)">
        <g transform="translate(1.20,-3.20) rotate(14.35) scale(0.960)">
        <g transform="translate(-1.27,-3.77) rotate(19.91) scale(0.940)">
        <g transform="translate(-3.43,-4.00) rotate(24.87) scale(0.920)">
        <g transform="translate(-4.76,-3.87) rotate(28.63) scale(0.900)" mask="url(#maskDynamic)">
        <g transform="translate(-4.91,-3.39) rotate(30.66) scale(0.880)">
        <circle cx="0" cy="0" r="36.4" fill="url(#rgrad4)" filter="url(#shadow)" opacity="0.61"/>
        <text x="0" y="5" text-anchor="middle" font-family="Arial, sans-serif" font-size="14" fill="#FFFFFF" opacity="0.61">279</text>
      </g>
      </g>
      </g>
      </g>
      </g>
      </g>
      </g>
  </g>
  <g transform="translate(958.1, 635.0)">
      <g transform="translate(1.20,-3.88) rotate(3.84) scale(1.000)">
        <g transform="translate(-1.27,-3.99) rotate(8.79) scale(0.980)">
        <g transform="translate(-3.43,-3.75) rotate(14.35) scale(0.960)">
        <g transform="translate(-4.76,-3.17) rotate(19.91) scale(0.940)">
        <g transform="translate(-4.91,-2.30) rotate(24.87) scale(0.920)">
        <g transform="translate(-3.87,-1.23) rotate(28.63) scale(0.900)">
        <g transform="translate(-1.87,-0.05) rotate(30.66) scale(0.880)">
        <path d="M0.0,-73.5 L21.6,-29.7 L69.9,-22.7 L34.9,11.4 L43.2,59.4 L0.0,36.7 L-43.2,59.4 L-34.9,11.4 L-69.9,-22.7 L-21.6,-29.7Z" fill="url(#rgrad0)" filter="url(#blur0)" opacity="0.72"/>
      </g>
      </g>
      </g>
      </g>
      </g>
      </g>
      </g>
  </g>
  <g transform="translate(1190.6, 641.5)">
      <g transform="translate(-3.43,-2.91) rotate(3.84) scale(1.000)">
        <g transform="translate(-4.76,-1.96) rotate(8.79) scale(0.980)">
        <g transform="translate(-4.91,-0.85) rotate(14.35) scale(0.960)">
        <g transform="translate(-3.87,0.35) rotate(19.91) scale(0.940)" clip-path="url(#clipStar)">
        <g transform="translate(-1.87,1.51) rotate(24.87) scale(0.920)">
        <g transform="translate(0.58,2.54) rotate(28.63) scale(0.900)">
        <g transform="translate(2.89,3.34) rotate(30.66) scale(0.880)">
        <rect x="-30.9" y="-30.9" width="61.7" height="61.7" rx="15.4" fill="url(#lgrad1)" filter="url(#shadow)" opacity="0.81"/>
        <circle cx="0" cy="0" r="20.6" fill="url(#rgrad2)" opacity="0.57"/>
      </g>
      </g>
      </g>
      </g>
      </g>
      </g>
      </g>
  </g>
  <g transform="translate(1425.4, 656.8)">
      <g transform="translate(-4.91,0.74) rotate(3.84) scale(1.000)">
        <g transform="translate(-3.87,1.87) rotate(8.79) scale(0.980)">
        <g transform="translate(-1.87,2.83) rotate(14.35) scale(0.960)">
        <g transform="translate(0.58,3.54) rotate(19.91) scale(0.940)">
        <g transform="translate(2.89,3.93) rotate(24.87) scale(0.920)">
        <g transform="translate(4.49,3.97) rotate(28.63) scale(0.900)" mask="url(#maskStripes)">
        <g transform="translate(4.99,3.66) rotate(30.66) scale(0.880)">
        <path d="M25.2,14.5 L0.0,29.0 L-25.2,14.5 L-25.2,-14.5 L-0.0,-29.0 L25.2,-14.5Z" fill="url(#rgrad2)" filter="url(#blur2)" opacity="0.87"/>
        <ellipse cx="0" cy="0" rx="12.1" ry="8.1" fill="#FFFFFF" opacity="0.44"/>
      </g>
      </g>
      </g>
      </g>
      </g>
      </g>
      </g>
  </g>
  <g transform="translate(1658.9, 673.5)">
      <g transform="translate(-1.87,3.71) rotate(3.84) scale(1.000)">
        <g transform="translate(0.58,3.99) rotate(8.79) scale(0.980)">
        <g transform="translate(2.89,3.91) rotate(14.35) scale(0.960)">
        <g transform="translate(4.49,3.48) rotate(19.91) scale(0.940)">
        <g transform="translate(4.99,2.74) rotate(24.87) scale(0.920)">
        <g transform="translate(4.28,1.76) rotate(28.63) scale(0.900)">
        <g transform="translate(2.51,0.62) rotate(30.66) scale(0.880)">
        <circle cx="0" cy="0" r="22.9" fill="url(#rgrad3)" filter="url(#shadow)" opacity="0.90"/>
        <text x="0" y="5" text-anchor="middle" font-family="Arial, sans-serif" font-size="14" fill="#FFFFFF" opacity="0.90">279</text>
      </g>
      </g>
      </g>
      </g>
      </g>
      </g>
      </g>
  </g>
  <g transform="translate(127.8, 963.9)">
      <g transform="translate(2.89,3.27) rotate(3.84) scale(1.000)">
        <g transform="translate(4.49,2.44) rotate(8.79) scale(0.980)">
        <g transform="translate(4.99,1.39) rotate(14.35) scale(0.960)">
        <g transform="translate(4.28,0.22) rotate(19.91) scale(0.940)" clip-path="url(#clipDynamic)">
        <g transform="translate(2.51,-0.97) rotate(24.87) scale(0.920)">
        <g transform="translate(0.13,-2.07) rotate(28.63) scale(0.900)">
        <g transform="translate(-2.28,-2.99) rotate(30.66) scale(0.880)">
        <path d="M0.0,-56.2 L16.5,-22.7 L53.4,-17.4 L26.7,8.7 L33.0,45.4 L0.0,28.1 L-33.0,45.4 L-26.7,8.7 L-53.4,-17.4 L-16.5,-22.7Z" fill="url(#lgrad4)" filter="url(#blur4)" opacity="0.89"/>
      </g>
      </g>
      </g>
      </g>
      </g>
      </g>
      </g>
  </g>
  <g transform="translate(398.4, 285.9)" mask="url(#maskGradient)">
    <ellipse cx="0" cy="0" rx="200" ry="150" fill="url(#rgrad0)" filter="url(#blur3)" opacity="0.3"/>
  </g>
  <g transform="translate(838.3, 238.5)" mask="url(#maskCircleFade)">
    <ellipse cx="0" cy="0" rx="200" ry="150" fill="url(#rgrad1)" filter="url(#blur3)" opacity="0.3"/>
  </g>
  <g transform="translate(1243.0, 220.0)" mask="url(#maskStripes)">
    <ellipse cx="0" cy="0" rx="200" ry="150" fill="url(#rgrad2)" filter="url(#blur3)" opacity="0.3"/>
  </g>
</svg>