<?xml version="1.0" encoding="UTF-8"?>
<svg xmlns="http://www.w3.org/2000/svg" viewBox="0 0 1920 1080" width="1920" height="1080">
  <defs>
    <filter id="blur0" x="-50%" y="-50%" width="200%" height="200%">
      <feGaussianBlur in="SourceGraphic" stdDeviation="1"/>
    </filter>
    <filter id="blur1" x="-50%" y="-50%" width="200%" height="200%">
      <feGaussianBlur in="SourceGraphic" stdDeviation="3"/>
    </filter>
    <filter id="blur2" x="-50%" y="-50%" width="200%" height="200%">
      <feGaussianBlur in="SourceGraphic" stdDeviation="5"/>
    </filter>
    <filter id="blur3" x="-50%" y="-50%" width="200%" height="200%">
      <feGaussianBlur in="SourceGraphic" stdDeviation="7"/>
    </filter>
    <filter id="blur4" x="-50%" y="-50%" width="200%" height="200%">
      <feGaussianBlur in="SourceGraphic" stdDeviation="9"/>
    </filter>
    <filter id="shadow" x="-50%" y="-50%" width="200%" height="200%">
      <feGaussianBlur in="SourceAlpha" stdDeviation="3" result="blur"/>
      <feOffset in="blur" dx="4" dy="4" result="offsetBlur"/>
      <feMerge>
        <feMergeNode in="offsetBlur"/>
        <feMergeNode in="SourceGraphic"/>
      </feMerge>
    </filter>
    <linearGradient id="lgrad0" x1="0%" y1="0%" x2="1.8%" y2="63.4%">
      <stop offset="0%" stop-color="#FF6B6B"/>
      <stop offset="33%" stop-color="#4ECDC4"/>
      <stop offset="66%" stop-color="#45B7D1"/>
      <stop offset="100%" stop-color="#96E6A1"/>
    </linearGradient>
    <linearGradient id="lgrad1" x1="0%" y1="0%" x2="1.6%" y2="37.5%">
      <stop offset="0%" stop-color="#FFE66D"/>
      <stop offset="33%" stop-color="#FF6B6B"/>
      <stop offset="66%" stop-color="#C44D58"/>
      <stop offset="100%" stop-color="#8B0000"/>
    </linearGradient>
    <linearGradient id="lgrad2" x1="0%" y1="0%" x2="14.3%" y2="15.0%">
      <stop offset="0%" stop-color="#4169E1"/>
      <stop offset="33%" stop-color="#7B68EE"/>
      <stop offset="66%" stop-color="#9370DB"/>
      <stop offset="100%" stop-color="#FFD700"/>
    </linearGradient>
    <linearGradient id="lgrad3" x1="0%" y1="0%" x2="36.6%" y2="1.8%">
      <stop offset="0%" stop-color="#32CD32"/>
      <stop offset="33%" stop-color="#228B22"/>
      <stop offset="66%" stop-color="#006400"/>
      <stop offset="100%" stop-color="#ADFF2F"/>
    </linearGradient>
    <linearGradient id="lgrad4" x1="0%" y1="0%" x2="62.5%" y2="1.6%">
      <stop offset="0%" stop-color="#FF1493"/>
      <stop offset="33%" stop-color="#FF69B4"/>
      <stop offset="66%" stop-color="#FFB6C1"/>
      <stop offset="100%" stop-color="#FFC0CB"/>
    </linearGradient>
    <radialGradient id="rgrad0" cx="37.7%" cy="61.8%" r="60%">
      <stop offset="0%" stop-color="#FF6B6B" stop-opacity="1"/>
      <stop offset="50%" stop-color="#4ECDC4" stop-opacity="0.8"/>
      <stop offset="100%" stop-color="#45B7D1" stop-opacity="0.6"/>
    </radialGradient>
    <radialGradient id="rgrad1" cx="47.7%" cy="69.8%" r="60%">
      <stop offset="0%" stop-color="#FFE66D" stop-opacity="1"/>
      <stop offset="50%" stop-color="#FF6B6B" stop-opacity="0.8"/>
      <stop offset="100%" stop-color="#C44D58" stop-opacity="0.6"/>
    </radialGradient>
    <radialGradient id="rgrad2" cx="57.7%" cy="37.8%" r="60%">
      <stop offset="0%" stop-color="#4169E1" stop-opacity="1"/>
      <stop offset="50%" stop-color="#7B68EE" stop-opacity="0.8"/>
      <stop offset="100%" stop-color="#9370DB" stop-opacity="0.6"/>
    </radialGradient>
    <radialGradient id="rgrad3" cx="67.7%" cy="45.8%" r="60%">
      <stop offset="0%" stop-color="#32CD32" stop-opacity="1"/>
      <stop offset="50%" stop-color="#228B22" stop-opacity="0.8"/>
      <stop offset="100%" stop-color="#006400" stop-opacity="0.6"/>
    </radialGradient>
    <radialGradient id="rgrad4" cx="37.7%" cy="53.8%" r="60%">
      <stop offset="0%" stop-color="#FF1493" stop-opacity="1"/>
      <stop offset="50%" stop-color="#FF69B4" stop-opacity="0.8"/>
      <stop offset="100%" stop-color="#FFB6C1" stop-opacity="0.6"/>
    </radialGradient>
    <clipPath id="clipCircle">
      <circle cx="0" cy="0" r="50"/>
    </clipPath>
    <clipPath id="clipStar">
      <path d="M0.0,-50.0 L14.7,-20.2 L47.6,-15.5 L23.8,7.7 L29.4,40.5 L0.0,25.0 L-29.4,40.5 L-23.8,7.7 L-47.6,-15.5 L-14.7,-20.2Z"/>
    </clipPath>
    <clipPath id="clipHex">
      <path d="M39.0,22.5 L0.0,45.0 L-39.0,22.5 L-39.0,-22.5 L-0.0,-45.0 L39.0,-22.5Z"/>
    </clipPath>
    <clipPath id="clipRect">
      <rect x="-40" y="-30" width="80" height="60" rx="10"/>
    </clipPath>
    <clipPath id="clipDynamic">
      <circle cx="0" cy="0" r="31.2"/>
    </clipPath>
    <mask id="maskGradient" maskContentUnits="objectBoundingBox">
      <rect x="0" y="0" width="1" height="1" fill="url(#maskGrad)"/>
    </mask>
    <linearGradient id="maskGrad" x1="0%" y1="0%" x2="100%" y2="100%">
      <stop offset="0%" stop-color="white"/>
      <stop offset="100%" stop-color="black"/>
    </linearGradient>
    <mask id="maskCircleFade">
      <circle cx="0" cy="0" r="60" fill="white"/>
      <circle cx="0" cy="0" r="30" fill="black"/>
    </mask>
    <mask id="maskStripes">
      <rect x="-50" y="-50" width="100" height="100" fill="white"/>
      <rect x="-50" y="-40" width="100" height="10" fill="black"/>
      <rect x="-50" y="-20" width="100" height="10" fill="black"/>
      <rect x="-50" y="0" width="100" height="10" fill="black"/>
      <rect x="-50" y="20" width="100" height="10" fill="black"/>
      <rect x="-50" y="40" width="100" height="10" fill="black"/>
    </mask>
    <mask id="maskDynamic">
      <rect x="-60" y="-60" width="120" height="120" fill="white" fill-opacity="0.39"/>
      <circle cx="0" cy="0" r="25" fill="white"/>
    </mask>
  </defs>
  <rect width="1920" height="1080" fill="url(#lgrad0)"/>
  <g transform="translate(92.3, 124.2)">
      <g transform="translate(-1.28,3.87) rotate(0.64) scale(1.000)">
        <g transform="translate(1.20,4.00) rotate(-0.71) scale(0.980)">
        <g transform="translate(3.38,3.77) rotate(-4.02) scale(0.960)">
        <g transform="translate(4.73,3.20) rotate(-9.08) scale(0.940)" clip-path="url(#clipCircle)">
        <g transform="translate(4.93,2.35) rotate(-15.55) scale(0.920)">
        <g transform="translate(3.91,1.29) rotate(-22.95) scale(0.900)">
        <g transform="translate(1.94,0.11) rotate(-30.72) scale(0.880)">
        <path d="M0.0,-61.9 L18.2,-25.1 L58.9,-19.1 L29.4,9.6 L36.4,50.1 L0.0,31.0 L-36.4,50.1 L-29.4,9.6 L-58.9,-19.1 L-18.2,-25.1Z" fill="url(#lgrad0)" filter="url(#blur0)" opacity="0.55"/>
      </g>
      </g>
      </g>
      </g>
      </g>
      </g>
      </g>
  </g>
  <g transform="translate(327.2, 122.6)">
      <g transform="translate(3.38,2.95) rotate(0.64) scale(1.000)">
        <g transform="translate(4.73,2.02) rotate(-0.71) scale(0.980)">
        <g transform="translate(4.93,0.91) rotate(-4.02) scale(0.960)">
        <g transform="translate(3.91,-0.29) rotate(-9.08) scale(0.940)">
        <g transform="translate(1.94,-1.45) rotate(-15.55) scale(0.920)">
        <g transform="translate(-0.50,-2.49) rotate(-22.95) scale(0.900)" mask="url(#maskCircleFade)">
        <g transform="translate(-2.83,-3.30) rotate(-30.72) scale(0.880)">
        <rect x="-24.3" y="-24.3" width="48.5" height="48.5" rx="12.1" fill="url(#rgrad1)" filter="url(#shadow)" opacity="0.43"/>
        <circle cx="0" cy="0" r="16.2" fill="url(#rgrad2)" opacity="0.30"/>
      </g>
      </g>
      </g>
      </g>
      </g>
      </g>
      </g>
  </g>
  <g transform="translate(560.3, 110.4)">
      <g transform="translate(4.93,-0.68) rotate(0.64) scale(1.000)">
        <g transform="translate(3.91,-1.82) rotate(-0.71) scale(0.980)">
        <g transform="translate(1.94,-2.79) rotate(-4.02) scale(0.960)">
        <g transform="translate(-0.50,-3.51) rotate(-9.08) scale(0.940)">
        <g transform="translate(-2.83,-3.92) rotate(-15.55) scale(0.920)">
        <g transform="translate(-4.46,-3.98) rotate(-22.95) scale(0.900)">
        <g transform="translate(-5.00,-3.68) rotate(-30.72) scale(0.880)">
        <path d="M23.7,13.7 L0.0,27.4 L-23.7,13.7 L-23.7,-13.7 L-0.0,-27.4 L23.7,-13.7Z" fill="url(#rgrad2)" filter="url(#blur2)" opacity="0.32"/>
        <ellipse cx="0" cy="0" rx="11.4" ry="7.6" fill="#FFFFFF" opacity="0.16"/>
      </g>
      </g>
      </g>
      </g>
      </g>
      </g>
      </g>
  </g>
  <g transform="translate(788.4, 93.3)">
      <g transform="translate(1.94,-3.69) rotate(0.64) scale(1.000)">
        <g transform="translate(-0.50,-3.98) rotate(-0.71) scale(0.980)">
        <g transform="translate(-2.83,-3.92) rotate(-4.02) scale(0.960)">
        <g transform="translate(-4.46,-3.51) rotate(-9.08) scale(0.940)" clip-path="url(#clipRect)">
        <g transform="translate(-5.00,-2.79) rotate(-15.55) scale(0.920)">
        <g transform="translate(-4.31,-1.81) rotate(-22.95) scale(0.900)">
        <g transform="translate(-2.58,-0.68) rotate(-30.72) scale(0.880)">
        <circle cx="0" cy="0" r="28.0" fill="url(#lgrad3)" filter="url(#shadow)" opacity="0.22"/>
        <text x="0" y="5" text-anchor="middle" font-family="Arial, sans-serif" font-size="14" fill="#FFFFFF" opacity="0.22">959</text>
      </g>
      </g>
      </g>
      </g>
      </g>
      </g>
      </g>
  </g>
  <g transform="translate(1009.6, 79.4)">
      <g transform="translate(-2.83,-3.30) rotate(0.64) scale(1.000)">
        <g transform="translate(-4.46,-2.48) rotate(-0.71) scale(0.980)">
        <g transform="translate(-5.00,-1.45) rotate(-4.02) scale(0.960)">
        <g transform="translate(-4.31,-0.28) rotate(-9.08) scale(0.940)">
        <g transform="translate(-2.58,0.91) rotate(-15.55) scale(0.920)">
        <g transform="translate(-0.21,2.02) rotate(-22.95) scale(0.900)" mask="url(#maskGradient)">
        <g transform="translate(2.22,2.95) rotate(-30.72) scale(0.880)">
        <path d="M0.0,-70.0 L20.6,-28.3 L66.6,-21.6 L33.3,10.8 L41.1,56.6 L0.0,35.0 L-41.1,56.6 L-33.3,10.8 L-66.6,-21.6 L-20.6,-28.3Z" fill="url(#rgrad4)" filter="url(#blur4)" opacity="0.15"/>
      </g>
      </g>
      </g>
      </g>
      </g>
      </g>
      </g>
  </g>
  <g transform="translate(1223.5, 75.1)">
      <g transform="translate(-5.00,0.12) rotate(0.64) scale(1.000)">
        <g transform="translate(-4.31,1.30) rotate(-0.71) scale(0.980)">
        <g transform="translate(-2.58,2.36) rotate(-4.02) scale(0.960)">
        <g transform="translate(-0.21,3.21) rotate(-9.08) scale(0.940)">
        <g transform="translate(2.22,3.77) rotate(-15.55) scale(0.920)">
        <g transform="translate(4.09,4.00) rotate(-22.95) scale(0.900)">
        <g transform="translate(4.97,3.87) rotate(-30.72) scale(0.880)">
        <rect x="-37.4" y="-37.4" width="74.8" height="74.8" rx="18.7" fill="url(#rgrad0)" filter="url(#shadow)" opacity="0.11"/>
        <circle cx="0" cy="0" r="24.9" fill="url(#rgrad1)" opacity="0.08"/>
      </g>
      </g>
      </g>
      </g>
      </g>
      </g>
      </g>
  </g>
  <g transform="translate(1431.7, 82.6)">
      <g transform="translate(-2.58,3.43) rotate(0.64) scale(1.000)">
        <g transform="translate(-0.21,3.88) rotate(-0.71) scale(0.980)">
        <g transform="translate(2.22,3.99) rotate(-4.02) scale(0.960)">
        <g transform="translate(4.09,3.75) rotate(-9.08) scale(0.940)" clip-path="url(#clipStar)">
        <g transform="translate(4.97,3.16) rotate(-15.55) scale(0.920)">
        <g transform="translate(4.63,2.30) rotate(-22.95) scale(0.900)">
        <g transform="translate(3.15,1.23) rotate(-30.72) scale(0.880)">
        <path d="M34.3,19.8 L0.0,39.6 L-34.3,19.8 L-34.3,-19.8 L-0.0,-39.6 L34.3,-19.8Z" fill="url(#lgrad1)" filter="url(#blur1)" opacity="0.10"/>
        <ellipse cx="0" cy="0" rx="16.5" ry="11.0" fill="#FFFFFF" opacity="0.05"/>
      </g>
      </g>
      </g>
      </g>
      </g>
      </g>
      </g>
  </g>
  <g transform="translate(1637.0, 98.2)">
      <g transform="translate(2.22,3.59) rotate(0.64) scale(1.000)">
        <g transform="translate(4.09,2.90) rotate(-0.71) scale(0.980)">
        <g transform="translate(4.97,1.96) rotate(-4.02) scale(0.960)">
        <g transform="translate(4.63,0.84) rotate(-9.08) scale(0.940)">
        <g transform="translate(3.15,-0.35) rotate(-15.55) scale(0.920)">
        <g transform="translate(0.91,-1.51) rotate(-22.95) scale(0.900)" mask="url(#maskDynamic)">
        <g transform="translate(-1.56,-2.54) rotate(-30.72) scale(0.880)">
        <circle cx="0" cy="0" r="25.8" fill="url(#rgrad2)" filter="url(#shadow)" opacity="0.13"/>
        <text x="0" y="5" text-anchor="middle" font-family="Arial, sans-serif" font-size="14" fill="#FFFFFF" opacity="0.13">959</text>
      </g>
      </g>
      </g>
      </g>
      </g>
      </g>
      </g>
  </g>
  <g transform="translate(83.0, 394.7)">
      <g transform="translate(4.97,0.45) rotate(0.64) scale(1.000)">
        <g transform="translate(4.63,-0.75) rotate(-0.71) scale(0.980)">
        <g transform="translate(3.15,-1.88) rotate(-4.02) scale(0.960)">
        <g transform="translate(0.91,-2.84) rotate(-9.08) scale(0.940)">
        <g transform="translate(-1.56,-3.54) rotate(-15.55) scale(0.920)">
        <g transform="translate(-3.65,-3.93) rotate(-22.95) scale(0.900)">
        <g transform="translate(-4.84,-3.97) rotate(-30.72) scale(0.880)">
        <path d="M0.0,-45.0 L13.2,-18.2 L42.8,-13.9 L21.4,7.0 L26.5,36.4 L0.0,22.5 L-26.5,36.4 L-21.4,7.0 L-42.8,-13.9 L-13.2,-18.2Z" fill="url(#rgrad3)" filter="url(#blur3)" opacity="0.19"/>
      </g>
      </g>
      </g>
      </g>
      </g>
      </g>
      </g>
  </g>
  <g transform="translate(293.3, 404.3)">
      <g transform="translate(3.15,-3.10) rotate(0.64) scale(1.000)">
        <g transform="translate(0.91,-3.71) rotate(-0.71) scale(0.980)">
        <g transform="translate(-1.56,-3.99) rotate(-4.02) scale(0.960)">
        <g transform="translate(-3.65,-3.91) rotate(-9.08) scale(0.940)" clip-path="url(#clipDynamic)">
        <g transform="translate(-4.84,-3.48) rotate(-15.55) scale(0.920)">
        <g transform="translate(-4.85,-2.74) rotate(-22.95) scale(0.900)">
        <g transform="translate(-3.67,-1.75) rotate(-30.72) scale(0.880)">
        <rect x="-26.1" y="-26.1" width="52.1" height="52.1" rx="13.0" fill="url(#lgrad4)" filter="url(#shadow)" opacity="0.28"/>
        <circle cx="0" cy="0" r="17.4" fill="url(#rgrad0)" opacity="0.20"/>
      </g>
      </g>
      </g>
      </g>
      </g>
      </g>
      </g>
  </g>
  <g transform="translate(510.0, 402.4)">
      <g transform="translate(-1.56,-3.80) rotate(0.64) scale(1.000)">
        <g transform="translate(-3.65,-3.26) rotate(-0.71) scale(0.980)">
        <g transform="translate(-4.84,-2.43) rotate(-4.02) scale(0.960)">
        <g transform="translate(-4.85,-1.38) rotate(-9.08) scale(0.940)">
        <g transform="translate(-3.67,-0.21) rotate(-15.55) scale(0.920)">
        <g transform="translate(-1.59,0.98) rotate(-22.95) scale(0.900)" mask="url(#maskStripes)">
        <g transform="translate(0.87,2.08) rotate(-30.72) scale(0.880)">
        <path d="M34.5,19.9 L0.0,39.9 L-34.5,19.9 L-34.5,-19.9 L-0.0,-39.9 L34.5,-19.9Z" fill="url(#rgrad0)" filter="url(#blur0)" opacity="0.39"/>
        <ellipse cx="0" cy="0" rx="16.6" ry="11.1" fill="#FFFFFF" opacity="0.20"/>
      </g>
      </g>
      </g>
      </g>
      </g>
      </g>
      </g>
  </g>
  <g transform="translate(734.1, 390.0)">
      <g transform="translate(-4.84,-1.00) rotate(0.64) scale(1.000)">
        <g transform="translate(-4.85,0.19) rotate(-0.71) scale(0.980)">
        <g transform="translate(-3.67,1.36) rotate(-4.02) scale(0.960)">
        <g transform="translate(-1.59,2.41) rotate(-9.08) scale(0.940)">
        <g transform="translate(0.87,3.25) rotate(-15.55) scale(0.920)">
        <g transform="translate(3.13,3.79) rotate(-22.95) scale(0.900)">
        <g transform="translate(4.61,4.00) rotate(-30.72) scale(0.880)">
        <circle cx="0" cy="0" r="37.4" fill="url(#rgrad1)" filter="url(#shadow)" opacity="0.51"/>
        <text x="0" y="5" text-anchor="middle" font-family="Arial, sans-serif" font-size="14" fill="#FFFFFF" opacity="0.51">959</text>
      </g>
      </g>
      </g>
      </g>
      </g>
      </g>
      </g>
  </g>
  <g transform="translate(964.5, 372.9)">
      <g transform="translate(-3.67,2.72) rotate(0.64) scale(1.000)">
        <g transform="translate(-1.59,3.46) rotate(-0.71) scale(0.980)">
        <g transform="translate(0.87,3.90) rotate(-4.02) scale(0.960)">
        <g transform="translate(3.13,3.99) rotate(-9.08) scale(0.940)" clip-path="url(#clipHex)">
        <g transform="translate(4.61,3.72) rotate(-15.55) scale(0.920)">
        <g transform="translate(4.97,3.12) rotate(-22.95) scale(0.900)">
        <g transform="translate(4.11,2.24) rotate(-30.72) scale(0.880)">
        <path d="M0.0,-69.6 L20.5,-28.2 L66.2,-21.5 L33.1,10.8 L40.9,56.3 L0.0,34.8 L-40.9,56.3 L-33.1,10.8 L-66.2,-21.5 L-20.5,-28.2Z" fill="url(#lgrad2)" filter="url(#blur2)" opacity="0.63"/>
      </g>
      </g>
      </g>
      </g>
      </g>
      </g>
      </g>
  </g>
  <g transform="translate(1198.8, 359.1)">
      <g transform="translate(0.87,3.94) rotate(0.64) scale(1.000)">
        <g transform="translate(3.13,3.56) rotate(-0.71) scale(0.980)">
        <g transform="translate(4.61,2.86) rotate(-4.02) scale(0.960)">
        <g transform="translate(4.97,1.90) rotate(-9.08) scale(0.940)">
        <g transform="translate(4.11,0.78) rotate(-15.55) scale(0.920)">
        <g transform="translate(2.25,-0.42) rotate(-22.95) scale(0.900)" mask="url(#maskCircleFade)">
        <g transform="translate(-0.17,-1.58) rotate(-30.72) scale(0.880)">
        <rect x="-27.7" y="-27.7" width="55.5" height="55.5" rx="13.9" fill="url(#rgrad3)" filter="url(#shadow)" opacity="0.74"/>
        <circle cx="0" cy="0" r="18.5" fill="url(#rgrad4)" opacity="0.51"/>
      </g>
      </g>
      </g>
      </g>
      </g>
      </g>
      </g>
  </g>
  <g transform="translate(1433.3, 355.2)">
      <g transform="translate(4.61,1.54) rotate(0.64) scale(1.000)">
        <g transform="translate(4.97,0.38) rotate(-0.71) scale(0.980)">
        <g transform="translate(4.11,-0.81) rotate(-4.02) scale(0.960)">
        <g transform="translate(2.25,-1.94) rotate(-9.08) scale(0.940)">
        <g transform="translate(-0.17,-2.88) rotate(-15.55) scale(0.920)">
        <g transform="translate(-2.55,-3.57) rotate(-22.95) scale(0.900)">
        <g transform="translate(-4.30,-3.95) rotate(-30.72) scale(0.880)">
        <path d="M23.7,13.7 L0.0,27.3 L-23.7,13.7 L-23.7,-13.7 L-0.0,-27.3 L23.7,-13.7Z" fill="url(#rgrad4)" filter="url(#blur4)" opacity="0.82"/>
        <ellipse cx="0" cy="0" rx="11.4" ry="7.6" fill="#FFFFFF" opacity="0.41"/>
      </g>
      </g>
      </g>
      </g>
      </g>
      </g>
      </g>
  </g>
  <g transform="translate(1664.6, 362.9)">
      <g transform="translate(4.11,-2.27) rotate(0.64) scale(1.000)">
        <g transform="translate(2.25,-3.15) rotate(-0.71) scale(0.980)">
        <g transform="translate(-0.17,-3.74) rotate(-4.02) scale(0.960)">
        <g transform="translate(-2.55,-3.99) rotate(-9.08) scale(0.940)" clip-path="url(#clipCircle)">
        <g transform="translate(-4.30,-3.89) rotate(-15.55) scale(0.920)">
        <g transform="translate(-5.00,-3.44) rotate(-22.95) scale(0.900)">
        <g transform="translate(-4.47,-2.69) rotate(-30.72) scale(0.880)">
        <circle cx="0" cy="0" r="24.4" fill="url(#lgrad0)" filter="url(#shadow)" opacity="0.88"/>
        <text x="0" y="5" text-anchor="middle" font-family="Arial, sans-serif" font-size="14" fill="#FFFFFF" opacity="0.88">959</text>
      </g>
      </g>
      </g>
      </g>
      </g>
      </g>
      </g>
  </g>
  <g transform="translate(129.8, 658.7)">
      <g transform="translate(-0.17,-4.00) rotate(0.64) scale(1.000)">
        <g transform="translate(-2.55,-3.78) rotate(-0.71) scale(0.980)">
        <g transform="translate(-4.30,-3.22) rotate(-4.02) scale(0.960)">
        <g transform="translate(-5.00,-2.38) rotate(-9.08) scale(0.940)">
        <g transform="translate(-4.47,-1.32) rotate(-15.55) scale(0.920)">
        <g transform="translate(-2.85,-0.15) rotate(-22.95) scale(0.900)" mask="url(#maskGradient)">
        <g transform="translate(-0.54,1.04) rotate(-30.72) scale(0.880)">
        <path d="M0.0,-62.4 L18.3,-25.3 L59.4,-19.3 L29.7,9.6 L36.7,50.5 L0.0,31.2 L-36.7,50.5 L-29.7,9.6 L-59.4,-19.3 L-18.3,-25.3Z" fill="url(#rgrad1)" filter="url(#blur1)" opacity="0.90"/>
      </g>
      </g>
      </g>
      </g>
      </g>
      </g>
      </g>
  </g>
  <g transform="translate(347.8, 675.1)">
      <g transform="translate(-4.30,-2.04) rotate(0.64) scale(1.000)">
        <g transform="translate(-5.00,-0.94) rotate(-0.71) scale(0.980)">
        <g transform="translate(-4.47,0.25) rotate(-4.02) scale(0.960)">
        <g transform="translate(-2.85,1.42) rotate(-9.08) scale(0.940)">
        <g transform="translate(-0.54,2.46) rotate(-15.55) scale(0.920)">
        <g transform="translate(1.91,3.28) rotate(-22.95) scale(0.900)">
        <g transform="translate(3.89,3.81) rotate(-30.72) scale(0.880)">
        <rect x="-36.9" y="-36.9" width="73.8" height="73.8" rx="18.4" fill="url(#rgrad2)" filter="url(#shadow)" opacity="0.89"/>
        <circle cx="0" cy="0" r="24.6" fill="url(#rgrad3)" opacity="0.62"/>
      </g>
      </g>
      </g>
      </g>
      </g>
      </g>
      </g>
  </g>
  <g transform="translate(558.9, 684.4)">
      <g transform="translate(-4.47,1.79) rotate(0.64) scale(1.000)">
        <g transform="translate(-2.85,2.77) rotate(-0.71) scale(0.980)">
        <g transform="translate(-0.54,3.50) rotate(-4.02) scale(0.960)">
        <g transform="translate(1.91,3.91) rotate(-9.08) scale(0.940)" clip-path="url(#clipRect)">
        <g transform="translate(3.89,3.98) rotate(-15.55) scale(0.920)">
        <g transform="translate(4.92,3.70) rotate(-22.95) scale(0.900)">
        <g transform="translate(4.74,3.08) rotate(-30.72) scale(0.880)">
        <path d="M37.6,21.7 L0.0,43.5 L-37.6,21.7 L-37.6,-21.7 L-0.0,-43.5 L37.6,-21.7Z" fill="url(#lgrad3)" filter="url(#blur3)" opacity="0.84"/>
        <ellipse cx="0" cy="0" rx="18.1" ry="12.1" fill="#FFFFFF" opacity="0.42"/>
      </g>
      </g>
      </g>
      </g>
      </g>
      </g>
      </g>
  </g>
  <g transform="translate(765.4, 682.2)">
      <g transform="translate(-0.54,3.98) rotate(0.64) scale(1.000)">
        <g transform="translate(1.91,3.93) rotate(-0.71) scale(0.980)">
        <g transform="translate(3.89,3.52) rotate(-4.02) scale(0.960)">
        <g transform="translate(4.92,2.81) rotate(-9.08) scale(0.940)">
        <g transform="translate(4.74,1.84) rotate(-15.55) scale(0.920)">
        <g transform="translate(3.40,0.71) rotate(-22.95) scale(0.900)" mask="url(#maskDynamic)">
        <g transform="translate(1.23,-0.49) rotate(-30.72) scale(0.880)">
        <circle cx="0" cy="0" r="29.8" fill="url(#rgrad4)" filter="url(#shadow)" opacity="0.76"/>
        <text x="0" y="5" text-anchor="middle" font-family="Arial, sans-serif" font-size="14" fill="#FFFFFF" opacity="0.76">959</text>
      </g>
      </g>
      </g>
      </g>
      </g>
      </g>
      </g>
  </g>
  <g transform="translate(970.6, 669.6)">
      <g transform="translate(3.89,2.51) rotate(0.64) scale(1.000)">
        <g transform="translate(4.92,1.48) rotate(-0.71) scale(0.980)">
        <g transform="translate(4.74,0.31) rotate(-4.02) scale(0.960)">
        <g transform="translate(3.40,-0.88) rotate(-9.08) scale(0.940)">
        <g transform="translate(1.23,-1.99) rotate(-15.55) scale(0.920)">
        <g transform="translate(-1.24,-2.93) rotate(-22.95) scale(0.900)">
        <g transform="translate(-3.41,-3.60) rotate(-30.72) scale(0.880)">
        <path d="M0.0,-47.2 L13.9,-19.1 L44.9,-14.6 L22.4,7.3 L27.7,38.2 L0.0,23.6 L-27.7,38.2 L-22.4,7.3 L-44.9,-14.6 L-13.9,-19.1Z" fill="url(#rgrad0)" filter="url(#blur0)" opacity="0.66"/>
      </g>
      </g>
      </g>
      </g>
      </g>
      </g>
      </g>
  </g>
  <g transform="translate(1178.1, 652.5)">
      <g transform="translate(4.74,-1.27) rotate(0.64) scale(1.000)">
        <g transform="translate(3.40,-2.33) rotate(-0.71) scale(0.980)">
        <g transform="translate(1.23,-3.19) rotate(-4.02) scale(0.960)">
        <g transform="translate(-1.24,-3.76) rotate(-9.08) scale(0.940)" clip-path="url(#clipStar)">
        <g transform="translate(-3.41,-4.00) rotate(-15.55) scale(0.920)">
        <g transform="translate(-4.75,-3.87) rotate(-22.95) scale(0.900)">
        <g transform="translate(-4.92,-3.41) rotate(-30.72) scale(0.880)">
        <rect x="-23.2" y="-23.2" width="46.5" height="46.5" rx="11.6" fill="url(#lgrad1)" filter="url(#shadow)" opacity="0.54"/>
        <circle cx="0" cy="0" r="15.5" fill="url(#rgrad2)" opacity="0.38"/>
      </g>
      </g>
      </g>
      </g>
      </g>
      </g>
      </g>
  </g>
  <g transform="translate(1391.0, 638.9)">
      <g transform="translate(1.23,-3.88) rotate(0.64) scale(1.000)">
        <g transform="translate(-1.24,-3.99) rotate(-0.71) scale(0.980)">
        <g transform="translate(-3.41,-3.76) rotate(-4.02) scale(0.960)">
        <g transform="translate(-4.75,-3.18) rotate(-9.08) scale(0.940)">
        <g transform="translate(-4.92,-2.32) rotate(-15.55) scale(0.920)">
        <g transform="translate(-3.89,-1.26) rotate(-22.95) scale(0.900)" mask="url(#maskStripes)">
        <g transform="translate(-1.90,-0.08) rotate(-30.72) scale(0.880)">
        <path d="M30.2,17.5 L0.0,34.9 L-30.2,17.5 L-30.2,-17.5 L-0.0,-34.9 L30.2,-17.5Z" fill="url(#rgrad2)" filter="url(#blur2)" opacity="0.43"/>
        <ellipse cx="0" cy="0" rx="14.6" ry="9.7" fill="#FFFFFF" opacity="0.21"/>
      </g>
      </g>
      </g>
      </g>
      </g>
      </g>
      </g>
  </g>
  <g transform="translate(1610.9, 635.2)">
      <g transform="translate(-3.41,-2.92) rotate(0.64) scale(1.000)">
        <g transform="translate(-4.75,-1.99) rotate(-0.71) scale(0.980)">
        <g transform="translate(-4.92,-0.87) rotate(-4.02) scale(0.960)">
        <g transform="translate(-3.89,0.32) rotate(-9.08) scale(0.940)">
        <g transform="translate(-1.90,1.48) rotate(-15.55) scale(0.920)">
        <g transform="translate(0.55,2.52) rotate(-22.95) scale(0.900)">
        <g transform="translate(2.86,3.32) rotate(-30.72) scale(0.880)">
        <circle cx="0" cy="0" r="35.8" fill="url(#rgrad3)" filter="url(#shadow)" opacity="0.31"/>
        <text x="0" y="5" text-anchor="middle" font-family="Arial, sans-serif" font-size="14" fill="#FFFFFF" opacity="0.31">959</text>
      </g>
      </g>
      </g>
      </g>
      </g>
      </g>
      </g>
  </g>
  <g transform="translate(78.0, 923.2)">
      <g transform="translate(-4.92,0.72) rotate(0.64) scale(1.000)">
        <g transform="translate(-3.89,1.85) rotate(-0.71) scale(0.980)">
        <g transform="translate(-1.90,2.81) rotate(-4.02) scale(0.960)">
        <g transform="translate(0.55,3.53) rotate(-9.08) scale(0.940)" clip-path="url(#clipDynamic)">
        <g transform="translate(2.86,3.93) rotate(-15.55) scale(0.920)">
        <g transform="translate(4.48,3.98) rotate(-22.95) scale(0.900)">
        <g transform="translate(5.00,3.67) rotate(-30.72) scale(0.880)">
        <path d="M0.0,-74.3 L21.8,-30.1 L70.7,-23.0 L35.3,11.5 L43.7,60.1 L0.0,37.1 L-43.7,60.1 L-35.3,11.5 L-70.7,-23.0 L-21.8,-30.1Z" fill="url(#lgrad4)" filter="url(#blur4)" opacity="0.22"/>
      </g>
      </g>
      </g>
      </g>
      </g>
      </g>
      </g>
  </g>
  <g transform="translate(274.5, 377.4)" mask="url(#maskGradient)">
    <ellipse cx="0" cy="0" rx="200" ry="150" fill="url(#rgrad0)" filter="url(#blur3)" opacity="0.3"/>
  </g>
  <g transform="translate(867.6, 372.3)" mask="url(#maskCircleFade)">
    <ellipse cx="0" cy="0" rx="200" ry="150" fill="url(#rgrad1)" filter="url(#blur3)" opacity="0.3"/>
  </g>
  <g transform="translate(1398.5, 333.3)" mask="url(#maskStripes)">
    <ellipse cx="0" cy="0" rx="200" ry="150" fill="url(#rgrad2)" filter="url(#blur3)" opacity="0.3"/>
  </g>
</svg>