<?xml version="1.0" encoding="UTF-8"?>
<svg xmlns="http://www.w3.org/2000/svg" viewBox="0 0 1920 1080" width="1920" height="1080">
  <defs>
    <filter id="blur0" x="-50%" y="-50%" width="200%" height="200%">
      <feGaussianBlur in="SourceGraphic" stdDeviation="1"/>
    </filter>
    <filter id="blur1" x="-50%" y="-50%" width="200%" height="200%">
      <feGaussianBlur in="SourceGraphic" stdDeviation="3"/>
    </filter>
    <filter id="blur2" x="-50%" y="-50%" width="200%" height="200%">
      <feGaussianBlur in="SourceGraphic" stdDeviation="5"/>
    </filter>
    <filter id="blur3" x="-50%" y="-50%" width="200%" height="200%">
      <feGaussianBlur in="SourceGraphic" stdDeviation="7"/>
    </filter>
    <filter id="blur4" x="-50%" y="-50%" width="200%" height="200%">
      <feGaussianBlur in="SourceGraphic" stdDeviation="9"/>
    </filter>
    <filter id="shadow" x="-50%" y="-50%" width="200%" height="200%">
      <feGaussianBlur in="SourceAlpha" stdDeviation="3" result="blur"/>
      <feOffset in="blur" dx="4" dy="4" result="offsetBlur"/>
      <feMerge>
        <feMergeNode in="offsetBlur"/>
        <feMergeNode in="SourceGraphic"/>
      </feMerge>
    </filter>
    <linearGradient id="lgrad0" x1="0%" y1="0%" x2="67.1%" y2="97.0%">
      <stop offset="0%" stop-color="#FF6B6B"/>
      <stop offset="33%" stop-color="#4ECDC4"/>
      <stop offset="66%" stop-color="#45B7D1"/>
      <stop offset="100%" stop-color="#96E6A1"/>
    </linearGradient>
    <linearGradient id="lgrad1" x1="0%" y1="0%" x2="41.3%" y2="99.2%">
      <stop offset="0%" stop-color="#FFE66D"/>
      <stop offset="33%" stop-color="#FF6B6B"/>
      <stop offset="66%" stop-color="#C44D58"/>
      <stop offset="100%" stop-color="#8B0000"/>
    </linearGradient>
    <linearGradient id="lgrad2" x1="0%" y1="0%" x2="17.9%" y2="88.3%">
      <stop offset="0%" stop-color="#4169E1"/>
      <stop offset="33%" stop-color="#7B68EE"/>
      <stop offset="66%" stop-color="#9370DB"/>
      <stop offset="100%" stop-color="#FFD700"/>
    </linearGradient>
    <linearGradient id="lgrad3" x1="0%" y1="0%" x2="3.0%" y2="67.1%">
      <stop offset="0%" stop-color="#32CD32"/>
      <stop offset="33%" stop-color="#228B22"/>
      <stop offset="66%" stop-color="#006400"/>
      <stop offset="100%" stop-color="#ADFF2F"/>
    </linearGradient>
    <linearGradient id="lgrad4" x1="0%" y1="0%" x2="0.8%" y2="41.3%">
      <stop offset="0%" stop-color="#FF1493"/>
      <stop offset="33%" stop-color="#FF69B4"/>
      <stop offset="66%" stop-color="#FFB6C1"/>
      <stop offset="100%" stop-color="#FFC0CB"/>
    </linearGradient>
    <radialGradient id="rgrad0" cx="61.0%" cy="64.0%" r="60%">
      <stop offset="0%" stop-color="#FF6B6B" stop-opacity="1"/>
      <stop offset="50%" stop-color="#4ECDC4" stop-opacity="0.8"/>
      <stop offset="100%" stop-color="#45B7D1" stop-opacity="0.6"/>
    </radialGradient>
    <radialGradient id="rgrad1" cx="31.0%" cy="32.0%" r="60%">
      <stop offset="0%" stop-color="#FFE66D" stop-opacity="1"/>
      <stop offset="50%" stop-color="#FF6B6B" stop-opacity="0.8"/>
      <stop offset="100%" stop-color="#C44D58" stop-opacity="0.6"/>
    </radialGradient>
    <radialGradient id="rgrad2" cx="41.0%" cy="40.0%" r="60%">
      <stop offset="0%" stop-color="#4169E1" stop-opacity="1"/>
      <stop offset="50%" stop-color="#7B68EE" stop-opacity="0.8"/>
      <stop offset="100%" stop-color="#9370DB" stop-opacity="0.6"/>
    </radialGradient>
    <radialGradient id="rgrad3" cx="51.0%" cy="48.0%" r="60%">
      <stop offset="0%" stop-color="#32CD32" stop-opacity="1"/>
      <stop offset="50%" stop-color="#228B22" stop-opacity="0.8"/>
      <stop offset="100%" stop-color="#006400" stop-opacity="0.6"/>
    </radialGradient>
    <radialGradient id="rgrad4" cx="61.0%" cy="56.0%" r="60%">
      <stop offset="0%" stop-color="#FF1493" stop-opacity="1"/>
      <stop offset="50%" stop-color="#FF69B4" stop-opacity="0.8"/>
      <stop offset="100%" stop-color="#FFB6C1" stop-opacity="0.6"/>
    </radialGradient>
    <clipPath id="clipCircle">
      <circle cx="0" cy="0" r="50"/>
    </clipPath>
    <clipPath id="clipStar">
      <path d="M0.0,-50.0 L14.7,-20.2 L47.6,-15.5 L23.8,7.7 L29.4,40.5 L0.0,25.0 L-29.4,40.5 L-23.8,7.7 L-47.6,-15.5 L-14.7,-20.2Z"/>
    </clipPath>
    <clipPath id="clipHex">
      <path d="M39.0,22.5 L0.0,45.0 L-39.0,22.5 L-39.0,-22.5 L-0.0,-45.0 L39.0,-22.5Z"/>
    </clipPath>
    <clipPath id="clipRect">
      <rect x="-40" y="-30" width="80" height="60" rx="10"/>
    </clipPath>
    <clipPath id="clipDynamic">
      <circle cx="0" cy="0" r="20.1"/>
    </clipPath>
    <mask id="maskGradient" maskContentUnits="objectBoundingBox">
      <rect x="0" y="0" width="1" height="1" fill="url(#maskGrad)"/>
    </mask>
    <linearGradient id="maskGrad" x1="0%" y1="0%" x2="100%" y2="100%">
      <stop offset="0%" stop-color="white"/>
      <stop offset="100%" stop-color="black"/>
    </linearGradient>
    <mask id="maskCircleFade">
      <circle cx="0" cy="0" r="60" fill="white"/>
      <circle cx="0" cy="0" r="30" fill="black"/>
    </mask>
    <mask id="maskStripes">
      <rect x="-50" y="-50" width="100" height="100" fill="white"/>
      <rect x="-50" y="-40" width="100" height="10" fill="black"/>
      <rect x="-50" y="-20" width="100" height="10" fill="black"/>
      <rect x="-50" y="0" width="100" height="10" fill="black"/>
      <rect x="-50" y="20" width="100" height="10" fill="black"/>
      <rect x="-50" y="40" width="100" height="10" fill="black"/>
    </mask>
    <mask id="maskDynamic">
      <rect x="-60" y="-60" width="120" height="120" fill="white" fill-opacity="0.76"/>
      <circle cx="0" cy="0" r="25" fill="white"/>
    </mask>
  </defs>
  <rect width="1920" height="1080" fill="url(#lgrad0)"/>
  <g transform="translate(70.2, 103.1)">
      <g transform="translate(-4.96,0.50) rotate(3.31) scale(1.000)">
        <g transform="translate(-4.06,1.65) rotate(5.00) scale(0.980)">
        <g transform="translate(-2.16,2.65) rotate(4.77) scale(0.960)">
        <g transform="translate(0.27,3.42) rotate(2.46) scale(0.940)" clip-path="url(#clipCircle)">
        <g transform="translate(2.63,3.88) rotate(-1.92) scale(0.920)">
        <g transform="translate(4.35,3.99) rotate(-8.20) scale(0.900)">
        <g transform="translate(5.00,3.75) rotate(-16.06) scale(0.880)">
        <path d="M0.0,-69.9 L20.6,-28.3 L66.5,-21.6 L33.3,10.8 L41.1,56.6 L0.0,35.0 L-41.1,56.6 L-33.3,10.8 L-66.5,-21.6 L-20.6,-28.3Z" fill="url(#lgrad0)" filter="url(#blur0)" opacity="0.76"/>
      </g>
      </g>
      </g>
      </g>
      </g>
      </g>
      </g>
  </g>
  <g transform="translate(295.7, 118.4)">
      <g transform="translate(-2.16,3.61) rotate(3.31) scale(1.000)">
        <g transform="translate(0.27,3.96) rotate(5.00) scale(0.980)">
        <g transform="translate(2.63,3.95) rotate(4.77) scale(0.960)">
        <g transform="translate(4.35,3.60) rotate(2.46) scale(0.940)">
        <g transform="translate(5.00,2.92) rotate(-1.92) scale(0.920)">
        <g transform="translate(4.43,1.98) rotate(-8.20) scale(0.900)" mask="url(#maskCircleFade)">
        <g transform="translate(2.77,0.86) rotate(-16.06) scale(0.880)">
        <rect x="-28.0" y="-28.0" width="55.9" height="55.9" rx="14.0" fill="url(#rgrad1)" filter="url(#shadow)" opacity="0.66"/>
        <circle cx="0" cy="0" r="18.6" fill="url(#rgrad2)" opacity="0.47"/>
      </g>
      </g>
      </g>
      </g>
      </g>
      </g>
      </g>
  </g>
  <g transform="translate(527.0, 125.0)">
      <g transform="translate(2.63,3.40) rotate(3.31) scale(1.000)">
        <g transform="translate(4.35,2.63) rotate(5.00) scale(0.980)">
        <g transform="translate(5.00,1.62) rotate(4.77) scale(0.960)">
        <g transform="translate(4.43,0.47) rotate(2.46) scale(0.940)">
        <g transform="translate(2.77,-0.73) rotate(-1.92) scale(0.920)">
        <g transform="translate(0.44,-1.86) rotate(-8.20) scale(0.900)">
        <g transform="translate(-2.00,-2.82) rotate(-16.06) scale(0.880)">
        <path d="M23.7,13.7 L0.0,27.4 L-23.7,13.7 L-23.7,-13.7 L-0.0,-27.4 L23.7,-13.7Z" fill="url(#rgrad2)" filter="url(#blur2)" opacity="0.55"/>
        <ellipse cx="0" cy="0" rx="11.4" ry="7.6" fill="#FFFFFF" opacity="0.27"/>
      </g>
      </g>
      </g>
      </g>
      </g>
      </g>
      </g>
  </g>
  <g transform="translate(761.6, 119.9)">
      <g transform="translate(5.00,0.07) rotate(3.31) scale(1.000)">
        <g transform="translate(4.43,-1.12) rotate(5.00) scale(0.980)">
        <g transform="translate(2.77,-2.20) rotate(4.77) scale(0.960)">
        <g transform="translate(0.44,-3.09) rotate(2.46) scale(0.940)" clip-path="url(#clipRect)">
        <g transform="translate(-2.00,-3.70) rotate(-1.92) scale(0.920)">
        <g transform="translate(-3.95,-3.98) rotate(-8.20) scale(0.900)">
        <g transform="translate(-4.94,-3.91) rotate(-16.06) scale(0.880)">
        <circle cx="0" cy="0" r="24.3" fill="url(#lgrad3)" filter="url(#shadow)" opacity="0.43"/>
        <text x="0" y="5" text-anchor="middle" font-family="Arial, sans-serif" font-size="14" fill="#FFFFFF" opacity="0.43">770</text>
      </g>
      </g>
      </g>
      </g>
      </g>
      </g>
      </g>
  </g>
  <g transform="translate(995.8, 105.4)">
      <g transform="translate(2.77,-3.33) rotate(3.31) scale(1.000)">
        <g transform="translate(0.44,-3.84) rotate(5.00) scale(0.980)">
        <g transform="translate(-2.00,-4.00) rotate(4.77) scale(0.960)">
        <g transform="translate(-3.95,-3.81) rotate(2.46) scale(0.940)">
        <g transform="translate(-4.94,-3.27) rotate(-1.92) scale(0.920)">
        <g transform="translate(-4.71,-2.45) rotate(-8.20) scale(0.900)" mask="url(#maskGradient)">
        <g transform="translate(-3.33,-1.41) rotate(-16.06) scale(0.880)">
        <path d="M0.0,-62.0 L18.2,-25.1 L59.0,-19.2 L29.5,9.6 L36.5,50.2 L0.0,31.0 L-36.5,50.2 L-29.5,9.6 L-59.0,-19.2 L-18.2,-25.1Z" fill="url(#rgrad4)" filter="url(#blur4)" opacity="0.32"/>
      </g>
      </g>
      </g>
      </g>
      </g>
      </g>
      </g>
  </g>
  <g transform="translate(1226.1, 88.4)">
      <g transform="translate(-2.00,-3.67) rotate(3.31) scale(1.000)">
        <g transform="translate(-3.95,-3.03) rotate(5.00) scale(0.980)">
        <g transform="translate(-4.94,-2.12) rotate(4.77) scale(0.960)">
        <g transform="translate(-4.71,-1.02) rotate(2.46) scale(0.940)">
        <g transform="translate(-3.33,0.16) rotate(-1.92) scale(0.920)">
        <g transform="translate(-1.14,1.34) rotate(-8.20) scale(0.900)">
        <g transform="translate(1.33,2.39) rotate(-16.06) scale(0.880)">
        <rect x="-36.8" y="-36.8" width="73.6" height="73.6" rx="18.4" fill="url(#rgrad0)" filter="url(#shadow)" opacity="0.22"/>
        <circle cx="0" cy="0" r="24.5" fill="url(#rgrad1)" opacity="0.15"/>
      </g>
      </g>
      </g>
      </g>
      </g>
      </g>
      </g>
  </g>
  <g transform="translate(1450.0, 76.9)">
      <g transform="translate(-4.94,-0.63) rotate(3.31) scale(1.000)">
        <g transform="translate(-4.71,0.56) rotate(5.00) scale(0.980)">
        <g transform="translate(-3.33,1.71) rotate(4.77) scale(0.960)">
        <g transform="translate(-1.14,2.70) rotate(2.46) scale(0.940)" clip-path="url(#clipStar)">
        <g transform="translate(1.33,3.45) rotate(-1.92) scale(0.920)">
        <g transform="translate(3.48,3.89) rotate(-8.20) scale(0.900)">
        <g transform="translate(4.78,3.99) rotate(-16.06) scale(0.880)">
        <path d="M37.8,21.8 L0.0,43.6 L-37.8,21.8 L-37.8,-21.8 L-0.0,-43.6 L37.8,-21.8Z" fill="url(#lgrad1)" filter="url(#blur1)" opacity="0.15"/>
        <ellipse cx="0" cy="0" rx="18.2" ry="12.1" fill="#FFFFFF" opacity="0.07"/>
      </g>
      </g>
      </g>
      </g>
      </g>
      </g>
      </g>
  </g>
  <g transform="translate(1666.6, 76.2)">
      <g transform="translate(-3.33,2.98) rotate(3.31) scale(1.000)">
        <g transform="translate(-1.14,3.64) rotate(5.00) scale(0.980)">
        <g transform="translate(1.33,3.97) rotate(4.77) scale(0.960)">
        <g transform="translate(3.48,3.94) rotate(2.46) scale(0.940)">
        <g transform="translate(4.78,3.57) rotate(-1.92) scale(0.920)">
        <g transform="translate(4.90,2.87) rotate(-8.20) scale(0.900)" mask="url(#maskDynamic)">
        <g transform="translate(3.83,1.92) rotate(-16.06) scale(0.880)">
        <circle cx="0" cy="0" r="30.0" fill="url(#rgrad2)" filter="url(#shadow)" opacity="0.11"/>
        <text x="0" y="5" text-anchor="middle" font-family="Arial, sans-serif" font-size="14" fill="#FFFFFF" opacity="0.11">770</text>
      </g>
      </g>
      </g>
      </g>
      </g>
      </g>
      </g>
  </g>
  <g transform="translate(116.6, 366.7)">
      <g transform="translate(1.33,3.85) rotate(3.31) scale(1.000)">
        <g transform="translate(3.48,3.37) rotate(5.00) scale(0.980)">
        <g transform="translate(4.78,2.58) rotate(4.77) scale(0.960)">
        <g transform="translate(4.90,1.56) rotate(2.46) scale(0.940)">
        <g transform="translate(3.83,0.40) rotate(-1.92) scale(0.920)">
        <g transform="translate(1.81,-0.79) rotate(-8.20) scale(0.900)">
        <g transform="translate(-0.64,-1.92) rotate(-16.06) scale(0.880)">
        <path d="M0.0,-47.4 L13.9,-19.2 L45.1,-14.7 L22.6,7.3 L27.9,38.4 L0.0,23.7 L-27.9,38.4 L-22.6,7.3 L-45.1,-14.7 L-13.9,-19.2Z" fill="url(#rgrad3)" filter="url(#blur3)" opacity="0.10"/>
      </g>
      </g>
      </g>
      </g>
      </g>
      </g>
      </g>
  </g>
  <g transform="translate(322.6, 383.5)">
      <g transform="translate(4.78,1.18) rotate(3.31) scale(1.000)">
        <g transform="translate(4.90,0.00) rotate(5.00) scale(0.980)">
        <g transform="translate(3.83,-1.18) rotate(4.77) scale(0.960)">
        <g transform="translate(1.81,-2.26) rotate(2.46) scale(0.940)" clip-path="url(#clipDynamic)">
        <g transform="translate(-0.64,-3.13) rotate(-1.92) scale(0.920)">
        <g transform="translate(-2.94,-3.73) rotate(-8.20) scale(0.900)">
        <g transform="translate(-4.52,-3.99) rotate(-16.06) scale(0.880)">
        <rect x="-23.2" y="-23.2" width="46.3" height="46.3" rx="11.6" fill="url(#lgrad4)" filter="url(#shadow)" opacity="0.13"/>
        <circle cx="0" cy="0" r="15.4" fill="url(#rgrad0)" opacity="0.09"/>
      </g>
      </g>
      </g>
      </g>
      </g>
      </g>
      </g>
  </g>
  <g transform="translate(528.0, 398.6)">
      <g transform="translate(3.83,-2.58) rotate(3.31) scale(1.000)">
        <g transform="translate(1.81,-3.36) rotate(5.00) scale(0.980)">
        <g transform="translate(-0.64,-3.85) rotate(4.77) scale(0.960)">
        <g transform="translate(-2.94,-4.00) rotate(2.46) scale(0.940)">
        <g transform="translate(-4.52,-3.79) rotate(-1.92) scale(0.920)">
        <g transform="translate(-4.99,-3.24) rotate(-8.20) scale(0.900)" mask="url(#maskStripes)">
        <g transform="translate(-4.24,-2.40) rotate(-16.06) scale(0.880)">
        <path d="M30.0,17.3 L0.0,34.7 L-30.0,17.3 L-30.0,-17.3 L-0.0,-34.7 L30.0,-17.3Z" fill="url(#rgrad0)" filter="url(#blur0)" opacity="0.20"/>
        <ellipse cx="0" cy="0" rx="14.4" ry="9.6" fill="#FFFFFF" opacity="0.10"/>
      </g>
      </g>
      </g>
      </g>
      </g>
      </g>
      </g>
  </g>
  <g transform="translate(736.3, 405.0)">
      <g transform="translate(-0.64,-3.97) rotate(3.31) scale(1.000)">
        <g transform="translate(-2.94,-3.64) rotate(5.00) scale(0.980)">
        <g transform="translate(-4.52,-2.98) rotate(4.77) scale(0.960)">
        <g transform="translate(-4.99,-2.06) rotate(2.46) scale(0.940)">
        <g transform="translate(-4.24,-0.96) rotate(-1.92) scale(0.920)">
        <g transform="translate(-2.45,0.23) rotate(-8.20) scale(0.900)">
        <g transform="translate(-0.06,1.40) rotate(-16.06) scale(0.880)">
        <circle cx="0" cy="0" r="35.6" fill="url(#rgrad1)" filter="url(#shadow)" opacity="0.29"/>
        <text x="0" y="5" text-anchor="middle" font-family="Arial, sans-serif" font-size="14" fill="#FFFFFF" opacity="0.29">770</text>
      </g>
      </g>
      </g>
      </g>
      </g>
      </g>
      </g>
  </g>
  <g transform="translate(950.4, 399.6)">
      <g transform="translate(-4.52,-1.71) rotate(3.31) scale(1.000)">
        <g transform="translate(-4.99,-0.57) rotate(5.00) scale(0.980)">
        <g transform="translate(-4.24,0.63) rotate(4.77) scale(0.960)">
        <g transform="translate(-2.45,1.77) rotate(2.46) scale(0.940)" clip-path="url(#clipHex)">
        <g transform="translate(-0.06,2.75) rotate(-1.92) scale(0.920)">
        <g transform="translate(2.34,3.49) rotate(-8.20) scale(0.900)">
        <g transform="translate(4.17,3.91) rotate(-16.06) scale(0.880)">
        <path d="M0.0,-74.4 L21.9,-30.1 L70.8,-23.0 L35.4,11.5 L43.7,60.2 L0.0,37.2 L-43.7,60.2 L-35.4,11.5 L-70.8,-23.0 L-21.9,-30.1Z" fill="url(#lgrad2)" filter="url(#blur2)" opacity="0.40"/>
      </g>
      </g>
      </g>
      </g>
      </g>
      </g>
      </g>
  </g>
  <g transform="translate(1171.7, 385.0)">
      <g transform="translate(-4.24,2.12) rotate(3.31) scale(1.000)">
        <g transform="translate(-2.45,3.03) rotate(5.00) scale(0.980)">
        <g transform="translate(-0.06,3.66) rotate(4.77) scale(0.960)">
        <g transform="translate(2.34,3.97) rotate(2.46) scale(0.940)">
        <g transform="translate(4.17,3.93) rotate(-1.92) scale(0.920)">
        <g transform="translate(4.98,3.53) rotate(-8.20) scale(0.900)" mask="url(#maskCircleFade)">
        <g transform="translate(4.57,2.82) rotate(-16.06) scale(0.880)">
        <rect x="-32.1" y="-32.1" width="64.3" height="64.3" rx="16.1" fill="url(#rgrad3)" filter="url(#shadow)" opacity="0.51"/>
        <circle cx="0" cy="0" r="21.4" fill="url(#rgrad4)" opacity="0.36"/>
      </g>
      </g>
      </g>
      </g>
      </g>
      </g>
      </g>
  </g>
  <g transform="translate(1400.0, 368.0)">
      <g transform="translate(-0.06,4.00) rotate(3.31) scale(1.000)">
        <g transform="translate(2.34,3.84) rotate(5.00) scale(0.980)">
        <g transform="translate(4.17,3.33) rotate(4.77) scale(0.960)">
        <g transform="translate(4.98,2.53) rotate(2.46) scale(0.940)">
        <g transform="translate(4.57,1.50) rotate(-1.92) scale(0.920)">
        <g transform="translate(3.04,0.33) rotate(-8.20) scale(0.900)">
        <g transform="translate(0.77,-0.86) rotate(-16.06) scale(0.880)">
        <path d="M26.1,15.1 L0.0,30.1 L-26.1,15.1 L-26.1,-15.1 L-0.0,-30.1 L26.1,-15.1Z" fill="url(#rgrad4)" filter="url(#blur4)" opacity="0.63"/>
        <ellipse cx="0" cy="0" rx="12.6" ry="8.4" fill="#FFFFFF" opacity="0.32"/>
      </g>
      </g>
      </g>
      </g>
      </g>
      </g>
      </g>
  </g>
  <g transform="translate(1633.2, 356.7)">
      <g transform="translate(4.17,2.20) rotate(3.31) scale(1.000)">
        <g transform="translate(4.98,1.12) rotate(5.00) scale(0.980)">
        <g transform="translate(4.57,-0.07) rotate(4.77) scale(0.960)">
        <g transform="translate(3.04,-1.24) rotate(2.46) scale(0.940)" clip-path="url(#clipCircle)">
        <g transform="translate(0.77,-2.31) rotate(-1.92) scale(0.920)">
        <g transform="translate(-1.69,-3.17) rotate(-8.20) scale(0.900)">
        <g transform="translate(-3.74,-3.75) rotate(-16.06) scale(0.880)">
        <circle cx="0" cy="0" r="22.6" fill="url(#lgrad0)" filter="url(#shadow)" opacity="0.74"/>
        <text x="0" y="5" text-anchor="middle" font-family="Arial, sans-serif" font-size="14" fill="#FFFFFF" opacity="0.74">770</text>
      </g>
      </g>
      </g>
      </g>
      </g>
      </g>
      </g>
  </g>
  <g transform="translate(108.0, 636.3)">
      <g transform="translate(4.57,-1.62) rotate(3.31) scale(1.000)">
        <g transform="translate(3.04,-2.63) rotate(5.00) scale(0.980)">
        <g transform="translate(0.77,-3.40) rotate(4.77) scale(0.960)">
        <g transform="translate(-1.69,-3.87) rotate(2.46) scale(0.940)">
        <g transform="translate(-3.74,-4.00) rotate(-1.92) scale(0.920)">
        <g transform="translate(-4.87,-3.76) rotate(-8.20) scale(0.900)" mask="url(#maskGradient)">
        <g transform="translate(-4.81,-3.20) rotate(-16.06) scale(0.880)">
        <path d="M0.0,-53.7 L15.8,-21.7 L51.1,-16.6 L25.6,8.3 L31.6,43.5 L0.0,26.9 L-31.6,43.5 L-25.6,8.3 L-51.1,-16.6 L-15.8,-21.7Z" fill="url(#rgrad1)" filter="url(#blur1)" opacity="0.82"/>
      </g>
      </g>
      </g>
      </g>
      </g>
      </g>
      </g>
  </g>
  <g transform="translate(340.9, 647.1)">
      <g transform="translate(0.77,-3.95) rotate(3.31) scale(1.000)">
        <g transform="translate(-1.69,-3.96) rotate(5.00) scale(0.980)">
        <g transform="translate(-3.74,-3.61) rotate(4.77) scale(0.960)">
        <g transform="translate(-4.87,-2.94) rotate(2.46) scale(0.940)">
        <g transform="translate(-4.81,-2.01) rotate(-1.92) scale(0.920)">
        <g transform="translate(-3.57,-0.89) rotate(-8.20) scale(0.900)">
        <g transform="translate(-1.46,0.30) rotate(-16.06) scale(0.880)">
        <rect x="-34.0" y="-34.0" width="68.1" height="68.1" rx="17.0" fill="url(#rgrad2)" filter="url(#shadow)" opacity="0.88"/>
        <circle cx="0" cy="0" r="22.7" fill="url(#rgrad3)" opacity="0.61"/>
      </g>
      </g>
      </g>
      </g>
      </g>
      </g>
      </g>
  </g>
  <g transform="translate(568.7, 663.9)">
      <g transform="translate(-3.74,-2.65) rotate(3.31) scale(1.000)">
        <g transform="translate(-4.87,-1.65) rotate(5.00) scale(0.980)">
        <g transform="translate(-4.81,-0.50) rotate(4.77) scale(0.960)">
        <g transform="translate(-3.57,0.70) rotate(2.46) scale(0.940)" clip-path="url(#clipRect)">
        <g transform="translate(-1.46,1.83) rotate(-1.92) scale(0.920)">
        <g transform="translate(1.01,2.80) rotate(-8.20) scale(0.900)">
        <g transform="translate(3.24,3.52) rotate(-16.06) scale(0.880)">
        <path d="M39.0,22.5 L0.0,45.0 L-39.0,22.5 L-39.0,-22.5 L-0.0,-45.0 L39.0,-22.5Z" fill="url(#lgrad3)" filter="url(#blur3)" opacity="0.90"/>
        <ellipse cx="0" cy="0" rx="18.7" ry="12.5" fill="#FFFFFF" opacity="0.45"/>
      </g>
      </g>
      </g>
      </g>
      </g>
      </g>
      </g>
  </g>
  <g transform="translate(789.4, 678.9)">
      <g transform="translate(-4.81,1.08) rotate(3.31) scale(1.000)">
        <g transform="translate(-3.57,2.17) rotate(5.00) scale(0.980)">
        <g transform="translate(-1.46,3.07) rotate(4.77) scale(0.960)">
        <g transform="translate(1.01,3.69) rotate(2.46) scale(0.940)">
        <g transform="translate(3.24,3.98) rotate(-1.92) scale(0.920)">
        <g transform="translate(4.67,3.92) rotate(-8.20) scale(0.900)" mask="url(#maskDynamic)">
        <g transform="translate(4.96,3.50) rotate(-16.06) scale(0.880)">
        <circle cx="0" cy="0" r="34.1" fill="url(#rgrad4)" filter="url(#shadow)" opacity="0.89"/>
        <text x="0" y="5" text-anchor="middle" font-family="Arial, sans-serif" font-size="14" fill="#FFFFFF" opacity="0.89">770</text>
      </g>
      </g>
      </g>
      </g>
      </g>
      </g>
      </g>
  </g>
  <g transform="translate(1003.0, 685.0)">
      <g transform="translate(-1.46,3.83) rotate(3.31) scale(1.000)">
        <g transform="translate(1.01,4.00) rotate(5.00) scale(0.980)">
        <g transform="translate(3.24,3.82) rotate(4.77) scale(0.960)">
        <g transform="translate(4.67,3.29) rotate(2.46) scale(0.940)">
        <g transform="translate(4.96,2.47) rotate(-1.92) scale(0.920)">
        <g transform="translate(4.03,1.44) rotate(-8.20) scale(0.900)">
        <g transform="translate(2.12,0.27) rotate(-16.06) scale(0.880)">
        <path d="M0.0,-53.8 L15.8,-21.8 L51.2,-16.6 L25.6,8.3 L31.6,43.5 L0.0,26.9 L-31.6,43.5 L-25.6,8.3 L-51.2,-16.6 L-15.8,-21.8Z" fill="url(#rgrad0)" filter="url(#blur0)" opacity="0.84"/>
      </g>
      </g>
      </g>
      </g>
      </g>
      </g>
      </g>
  </g>
  <g transform="translate(1210.9, 679.3)">
      <g transform="translate(3.24,3.05) rotate(3.31) scale(1.000)">
        <g transform="translate(4.67,2.15) rotate(5.00) scale(0.980)">
        <g transform="translate(4.96,1.06) rotate(4.77) scale(0.960)">
        <g transform="translate(4.03,-0.13) rotate(2.46) scale(0.940)" clip-path="url(#clipStar)">
        <g transform="translate(2.12,-1.31) rotate(-1.92) scale(0.920)">
        <g transform="translate(-0.31,-2.37) rotate(-8.20) scale(0.900)">
        <g transform="translate(-2.67,-3.21) rotate(-16.06) scale(0.880)">
        <rect x="-22.6" y="-22.6" width="45.2" height="45.2" rx="11.3" fill="url(#lgrad1)" filter="url(#shadow)" opacity="0.76"/>
        <circle cx="0" cy="0" r="15.1" fill="url(#rgrad2)" opacity="0.53"/>
      </g>
      </g>
      </g>
      </g>
      </g>
      </g>
      </g>
  </g>
  <g transform="translate(1416.2, 664.6)">
      <g transform="translate(4.96,-0.53) rotate(3.31) scale(1.000)">
        <g transform="translate(4.03,-1.68) rotate(5.00) scale(0.980)">
        <g transform="translate(2.12,-2.68) rotate(4.77) scale(0.960)">
        <g transform="translate(-0.31,-3.44) rotate(2.46) scale(0.940)">
        <g transform="translate(-2.67,-3.89) rotate(-1.92) scale(0.920)">
        <g transform="translate(-4.37,-3.99) rotate(-8.20) scale(0.900)" mask="url(#maskStripes)">
        <g transform="translate(-5.00,-3.74) rotate(-16.06) scale(0.880)">
        <path d="M26.1,15.1 L0.0,30.1 L-26.1,15.1 L-26.1,-15.1 L-0.0,-30.1 L26.1,-15.1Z" fill="url(#rgrad2)" filter="url(#blur2)" opacity="0.66"/>
        <ellipse cx="0" cy="0" rx="12.5" ry="8.4" fill="#FFFFFF" opacity="0.33"/>
      </g>
      </g>
      </g>
      </g>
      </g>
      </g>
      </g>
  </g>
  <g transform="translate(1622.4, 647.7)">
      <g transform="translate(2.12,-3.62) rotate(3.31) scale(1.000)">
        <g transform="translate(-0.31,-3.96) rotate(5.00) scale(0.980)">
        <g transform="translate(-2.67,-3.95) rotate(4.77) scale(0.960)">
        <g transform="translate(-4.37,-3.58) rotate(2.46) scale(0.940)">
        <g transform="translate(-5.00,-2.89) rotate(-1.92) scale(0.920)">
        <g transform="translate(-4.41,-1.95) rotate(-8.20) scale(0.900)">
        <g transform="translate(-2.74,-0.83) rotate(-16.06) scale(0.880)">
        <circle cx="0" cy="0" r="32.1" fill="url(#rgrad3)" filter="url(#shadow)" opacity="0.54"/>
        <text x="0" y="5" text-anchor="middle" font-family="Arial, sans-serif" font-size="14" fill="#FFFFFF" opacity="0.54">770</text>
      </g>
      </g>
      </g>
      </g>
      </g>
      </g>
      </g>
  </g>
  <g transform="translate(72.9, 916.6)">
      <g transform="translate(-2.67,-3.38) rotate(3.31) scale(1.000)">
        <g transform="translate(-4.37,-2.60) rotate(5.00) scale(0.980)">
        <g transform="translate(-5.00,-1.59) rotate(4.77) scale(0.960)">
        <g transform="translate(-4.41,-0.43) rotate(2.46) scale(0.940)" clip-path="url(#clipDynamic)">
        <g transform="translate(-2.74,0.76) rotate(-1.92) scale(0.920)">
        <g transform="translate(-0.40,1.89) rotate(-8.20) scale(0.900)">
        <g transform="translate(2.04,2.85) rotate(-16.06) scale(0.880)">
        <path d="M0.0,-74.4 L21.9,-30.1 L70.8,-23.0 L35.4,11.5 L43.7,60.2 L0.0,37.2 L-43.7,60.2 L-35.4,11.5 L-70.8,-23.0 L-21.9,-30.1Z" fill="url(#lgrad4)" filter="url(#blur4)" opacity="0.42"/>
      </g>
      </g>
      </g>
      </g>
      </g>
      </g>
      </g>
  </g>
  <g transform="translate(200.8, 309.9)" mask="url(#maskGradient)">
    <ellipse cx="0" cy="0" rx="200" ry="150" fill="url(#rgrad0)" filter="url(#blur3)" opacity="0.3"/>
  </g>
  <g transform="translate(756.8, 358.7)" mask="url(#maskCircleFade)">
    <ellipse cx="0" cy="0" rx="200" ry="150" fill="url(#rgrad1)" filter="url(#blur3)" opacity="0.3"/>
  </g>
  <g transform="translate(1352.6, 379.9)" mask="url(#maskStripes)">
    <ellipse cx="0" cy="0" rx="200" ry="150" fill="url(#rgrad2)" filter="url(#blur3)" opacity="0.3"/>
  </g>
</svg>