<?xml version="1.0" encoding="UTF-8"?>
<svg xmlns="http://www.w3.org/2000/svg" viewBox="0 0 1920 1080" width="1920" height="1080">
  <defs>
    <filter id="blur0" x="-50%" y="-50%" width="200%" height="200%">
      <feGaussianBlur in="SourceGraphic" stdDeviation="1"/>
    </filter>
    <filter id="blur1" x="-50%" y="-50%" width="200%" height="200%">
      <feGaussianBlur in="SourceGraphic" stdDeviation="3"/>
    </filter>
    <filter id="blur2" x="-50%" y="-50%" width="200%" height="200%">
      <feGaussianBlur in="SourceGraphic" stdDeviation="5"/>
    </filter>
    <filter id="blur3" x="-50%" y="-50%" width="200%" height="200%">
      <feGaussianBlur in="SourceGraphic" stdDeviation="7"/>
    </filter>
    <filter id="blur4" x="-50%" y="-50%" width="200%" height="200%">
      <feGaussianBlur in="SourceGraphic" stdDeviation="9"/>
    </filter>
    <filter id="shadow" x="-50%" y="-50%" width="200%" height="200%">
      <feGaussianBlur in="SourceAlpha" stdDeviation="3" result="blur"/>
      <feOffset in="blur" dx="4" dy="4" result="offsetBlur"/>
      <feMerge>
        <feMergeNode in="offsetBlur"/>
        <feMergeNode in="SourceGraphic"/>
      </feMerge>
    </filter>
    <linearGradient id="lgrad0" x1="0%" y1="0%" x2="59.1%" y2="99.2%">
      <stop offset="0%" stop-color="#FF6B6B"/>
      <stop offset="33%" stop-color="#4ECDC4"/>
      <stop offset="66%" stop-color="#45B7D1"/>
      <stop offset="100%" stop-color="#96E6A1"/>
    </linearGradient>
    <linearGradient id="lgrad1" x1="0%" y1="0%" x2="33.3%" y2="97.1%">
      <stop offset="0%" stop-color="#FFE66D"/>
      <stop offset="33%" stop-color="#FF6B6B"/>
      <stop offset="66%" stop-color="#C44D58"/>
      <stop offset="100%" stop-color="#8B0000"/>
    </linearGradient>
    <linearGradient id="lgrad2" x1="0%" y1="0%" x2="12.0%" y2="82.5%">
      <stop offset="0%" stop-color="#4169E1"/>
      <stop offset="33%" stop-color="#7B68EE"/>
      <stop offset="66%" stop-color="#9370DB"/>
      <stop offset="100%" stop-color="#FFD700"/>
    </linearGradient>
    <linearGradient id="lgrad3" x1="0%" y1="0%" x2="0.8%" y2="59.1%">
      <stop offset="0%" stop-color="#32CD32"/>
      <stop offset="33%" stop-color="#228B22"/>
      <stop offset="66%" stop-color="#006400"/>
      <stop offset="100%" stop-color="#ADFF2F"/>
    </linearGradient>
    <linearGradient id="lgrad4" x1="0%" y1="0%" x2="2.9%" y2="33.3%">
      <stop offset="0%" stop-color="#FF1493"/>
      <stop offset="33%" stop-color="#FF69B4"/>
      <stop offset="66%" stop-color="#FFB6C1"/>
      <stop offset="100%" stop-color="#FFC0CB"/>
    </linearGradient>
    <radialGradient id="rgrad0" cx="50.7%" cy="43.8%" r="60%">
      <stop offset="0%" stop-color="#FF6B6B" stop-opacity="1"/>
      <stop offset="50%" stop-color="#4ECDC4" stop-opacity="0.8"/>
      <stop offset="100%" stop-color="#45B7D1" stop-opacity="0.6"/>
    </radialGradient>
    <radialGradient id="rgrad1" cx="60.7%" cy="51.8%" r="60%">
      <stop offset="0%" stop-color="#FFE66D" stop-opacity="1"/>
      <stop offset="50%" stop-color="#FF6B6B" stop-opacity="0.8"/>
      <stop offset="100%" stop-color="#C44D58" stop-opacity="0.6"/>
    </radialGradient>
    <radialGradient id="rgrad2" cx="30.7%" cy="59.8%" r="60%">
      <stop offset="0%" stop-color="#4169E1" stop-opacity="1"/>
      <stop offset="50%" stop-color="#7B68EE" stop-opacity="0.8"/>
      <stop offset="100%" stop-color="#9370DB" stop-opacity="0.6"/>
    </radialGradient>
    <radialGradient id="rgrad3" cx="40.7%" cy="67.8%" r="60%">
      <stop offset="0%" stop-color="#32CD32" stop-opacity="1"/>
      <stop offset="50%" stop-color="#228B22" stop-opacity="0.8"/>
      <stop offset="100%" stop-color="#006400" stop-opacity="0.6"/>
    </radialGradient>
    <radialGradient id="rgrad4" cx="50.7%" cy="35.8%" r="60%">
      <stop offset="0%" stop-color="#FF1493" stop-opacity="1"/>
      <stop offset="50%" stop-color="#FF69B4" stop-opacity="0.8"/>
      <stop offset="100%" stop-color="#FFB6C1" stop-opacity="0.6"/>
    </radialGradient>
    <clipPath id="clipCircle">
      <circle cx="0" cy="0" r="50"/>
    </clipPath>
    <clipPath id="clipStar">
      <path d="M0.0,-50.0 L14.7,-20.2 L47.6,-15.5 L23.8,7.7 L29.4,40.5 L0.0,25.0 L-29.4,40.5 L-23.8,7.7 L-47.6,-15.5 L-14.7,-20.2Z"/>
    </clipPath>
    <clipPath id="clipHex">
      <path d="M39.0,22.5 L0.0,45.0 L-39.0,22.5 L-39.0,-22.5 L-0.0,-45.0 L39.0,-22.5Z"/>
    </clipPath>
    <clipPath id="clipRect">
      <rect x="-40" y="-30" width="80" height="60" rx="10"/>
    </clipPath>
    <clipPath id="clipDynamic">
      <circle cx="0" cy="0" r="41.2"/>
    </clipPath>
    <mask id="maskGradient" maskContentUnits="objectBoundingBox">
      <rect x="0" y="0" width="1" height="1" fill="url(#maskGrad)"/>
    </mask>
    <linearGradient id="maskGrad" x1="0%" y1="0%" x2="100%" y2="100%">
      <stop offset="0%" stop-color="white"/>
      <stop offset="100%" stop-color="black"/>
    </linearGradient>
    <mask id="maskCircleFade">
      <circle cx="0" cy="0" r="60" fill="white"/>
      <circle cx="0" cy="0" r="30" fill="black"/>
    </mask>
    <mask id="maskStripes">
      <rect x="-50" y="-50" width="100" height="100" fill="white"/>
      <rect x="-50" y="-40" width="100" height="10" fill="black"/>
      <rect x="-50" y="-20" width="100" height="10" fill="black"/>
      <rect x="-50" y="0" width="100" height="10" fill="black"/>
      <rect x="-50" y="20" width="100" height="10" fill="black"/>
      <rect x="-50" y="40" width="100" height="10" fill="black"/>
    </mask>
    <mask id="maskDynamic">
      <rect x="-60" y="-60" width="120" height="120" fill="white" fill-opacity="0.45"/>
      <circle cx="0" cy="0" r="25" fill="white"/>
    </mask>
  </defs>
  <rect width="1920" height="1080" fill="url(#lgrad0)"/>
  <g transform="translate(112.4, 122.7)">
      <g transform="translate(2.07,3.64) rotate(1.06) scale(1.000)">
        <g transform="translate(4.00,2.99) rotate(4.02) scale(0.980)">
        <g transform="translate(4.95,2.07) rotate(8.64) scale(0.960)">
        <g transform="translate(4.68,0.96) rotate(14.54) scale(0.940)" clip-path="url(#clipCircle)">
        <g transform="translate(3.27,-0.23) rotate(21.22) scale(0.920)">
        <g transform="translate(1.06,-1.40) rotate(28.11) scale(0.900)">
        <g transform="translate(-1.41,-2.44) rotate(34.57) scale(0.880)">
        <path d="M0.0,-63.2 L18.6,-25.6 L60.1,-19.5 L30.0,9.8 L37.1,51.1 L0.0,31.6 L-37.1,51.1 L-30.0,9.8 L-60.1,-19.5 L-18.6,-25.6Z" fill="url(#lgrad0)" filter="url(#blur0)" opacity="0.58"/>
      </g>
      </g>
      </g>
      </g>
      </g>
      </g>
      </g>
  </g>
  <g transform="translate(344.0, 110.7)">
      <g transform="translate(4.95,0.57) rotate(1.06) scale(1.000)">
        <g transform="translate(4.68,-0.62) rotate(4.02) scale(0.980)">
        <g transform="translate(3.27,-1.76) rotate(8.64) scale(0.960)">
        <g transform="translate(1.06,-2.75) rotate(14.54) scale(0.940)">
        <g transform="translate(-1.41,-3.48) rotate(21.22) scale(0.920)">
        <g transform="translate(-3.54,-3.91) rotate(28.11) scale(0.900)" mask="url(#maskCircleFade)">
        <g transform="translate(-4.80,-3.99) rotate(34.57) scale(0.880)">
        <rect x="-37.0" y="-37.0" width="74.1" height="74.1" rx="18.5" fill="url(#rgrad1)" filter="url(#shadow)" opacity="0.70"/>
        <circle cx="0" cy="0" r="24.7" fill="url(#rgrad2)" opacity="0.49"/>
      </g>
      </g>
      </g>
      </g>
      </g>
      </g>
      </g>
  </g>
  <g transform="translate(569.7, 93.6)">
      <g transform="translate(3.27,-3.02) rotate(1.06) scale(1.000)">
        <g transform="translate(1.06,-3.66) rotate(4.02) scale(0.980)">
        <g transform="translate(-1.41,-3.97) rotate(8.64) scale(0.960)">
        <g transform="translate(-3.54,-3.93) rotate(14.54) scale(0.940)">
        <g transform="translate(-4.80,-3.54) rotate(21.22) scale(0.920)">
        <g transform="translate(-4.88,-2.83) rotate(28.11) scale(0.900)">
        <g transform="translate(-3.77,-1.86) rotate(34.57) scale(0.880)">
        <path d="M37.4,21.6 L0.0,43.2 L-37.4,21.6 L-37.4,-21.6 L-0.0,-43.2 L37.4,-21.6Z" fill="url(#rgrad2)" filter="url(#blur2)" opacity="0.79"/>
        <ellipse cx="0" cy="0" rx="18.0" ry="12.0" fill="#FFFFFF" opacity="0.40"/>
      </g>
      </g>
      </g>
      </g>
      </g>
      </g>
      </g>
  </g>
  <g transform="translate(788.1, 79.6)">
      <g transform="translate(-1.41,-3.84) rotate(1.06) scale(1.000)">
        <g transform="translate(-3.54,-3.33) rotate(4.02) scale(0.980)">
        <g transform="translate(-4.80,-2.53) rotate(8.64) scale(0.960)">
        <g transform="translate(-4.88,-1.50) rotate(14.54) scale(0.940)" clip-path="url(#clipRect)">
        <g transform="translate(-3.77,-0.34) rotate(21.22) scale(0.920)">
        <g transform="translate(-1.74,0.85) rotate(28.11) scale(0.900)">
        <g transform="translate(0.72,1.97) rotate(34.57) scale(0.880)">
        <circle cx="0" cy="0" r="29.5" fill="url(#lgrad3)" filter="url(#shadow)" opacity="0.86"/>
        <text x="0" y="5" text-anchor="middle" font-family="Arial, sans-serif" font-size="14" fill="#FFFFFF" opacity="0.86">69</text>
      </g>
      </g>
      </g>
      </g>
      </g>
      </g>
      </g>
  </g>
  <g transform="translate(999.6, 75.1)">
      <g transform="translate(-4.80,-1.12) rotate(1.06) scale(1.000)">
        <g transform="translate(-4.88,0.06) rotate(4.02) scale(0.980)">
        <g transform="translate(-3.77,1.24) rotate(8.64) scale(0.960)">
        <g transform="translate(-1.74,2.31) rotate(14.54) scale(0.940)">
        <g transform="translate(0.72,3.17) rotate(21.22) scale(0.920)">
        <g transform="translate(3.00,3.75) rotate(28.11) scale(0.900)" mask="url(#maskGradient)">
        <g transform="translate(4.55,3.99) rotate(34.57) scale(0.880)">
        <path d="M0.0,-46.8 L13.8,-18.9 L44.5,-14.5 L22.3,7.2 L27.5,37.9 L0.0,23.4 L-27.5,37.9 L-22.3,7.2 L-44.5,-14.5 L-13.8,-18.9Z" fill="url(#rgrad4)" filter="url(#blur4)" opacity="0.90"/>
      </g>
      </g>
      </g>
      </g>
      </g>
      </g>
      </g>
  </g>
  <g transform="translate(1206.4, 82.3)">
      <g transform="translate(-3.77,2.62) rotate(1.06) scale(1.000)">
        <g transform="translate(-1.74,3.40) rotate(4.02) scale(0.980)">
        <g transform="translate(0.72,3.87) rotate(8.64) scale(0.960)">
        <g transform="translate(3.00,4.00) rotate(14.54) scale(0.940)">
        <g transform="translate(4.55,3.76) rotate(21.22) scale(0.920)">
        <g transform="translate(4.99,3.20) rotate(28.11) scale(0.900)">
        <g transform="translate(4.20,2.34) rotate(34.57) scale(0.880)">
        <rect x="-23.4" y="-23.4" width="46.8" height="46.8" rx="11.7" fill="url(#rgrad0)" filter="url(#shadow)" opacity="0.90"/>
        <circle cx="0" cy="0" r="15.6" fill="url(#rgrad1)" opacity="0.63"/>
      </g>
      </g>
      </g>
      </g>
      </g>
      </g>
      </g>
  </g>
  <g transform="translate(1411.5, 97.9)">
      <g transform="translate(0.72,3.96) rotate(1.06) scale(1.000)">
        <g transform="translate(3.00,3.61) rotate(4.02) scale(0.980)">
        <g transform="translate(4.55,2.94) rotate(8.64) scale(0.960)">
        <g transform="translate(4.99,2.01) rotate(14.54) scale(0.940)" clip-path="url(#clipStar)">
        <g transform="translate(4.20,0.90) rotate(21.22) scale(0.920)">
        <g transform="translate(2.38,-0.29) rotate(28.11) scale(0.900)">
        <g transform="translate(-0.01,-1.46) rotate(34.57) scale(0.880)">
        <path d="M30.6,17.7 L0.0,35.4 L-30.6,17.7 L-30.6,-17.7 L-0.0,-35.4 L30.6,-17.7Z" fill="url(#lgrad1)" filter="url(#blur1)" opacity="0.86"/>
        <ellipse cx="0" cy="0" rx="14.7" ry="9.8" fill="#FFFFFF" opacity="0.43"/>
      </g>
      </g>
      </g>
      </g>
      </g>
      </g>
      </g>
  </g>
  <g transform="translate(1618.8, 114.4)">
      <g transform="translate(4.55,1.65) rotate(1.06) scale(1.000)">
        <g transform="translate(4.99,0.50) rotate(4.02) scale(0.980)">
        <g transform="translate(4.20,-0.69) rotate(8.64) scale(0.960)">
        <g transform="translate(2.38,-1.82) rotate(14.54) scale(0.940)">
        <g transform="translate(-0.01,-2.80) rotate(21.22) scale(0.920)">
        <g transform="translate(-2.41,-3.52) rotate(28.11) scale(0.900)" mask="url(#maskDynamic)">
        <g transform="translate(-4.22,-3.92) rotate(34.57) scale(0.880)">
        <circle cx="0" cy="0" r="36.0" fill="url(#rgrad2)" filter="url(#shadow)" opacity="0.79"/>
        <text x="0" y="5" text-anchor="middle" font-family="Arial, sans-serif" font-size="14" fill="#FFFFFF" opacity="0.79">69</text>
      </g>
      </g>
      </g>
      </g>
      </g>
      </g>
      </g>
  </g>
  <g transform="translate(71.2, 404.2)">
      <g transform="translate(4.20,-2.17) rotate(1.06) scale(1.000)">
        <g transform="translate(2.38,-3.07) rotate(4.02) scale(0.980)">
        <g transform="translate(-0.01,-3.69) rotate(8.64) scale(0.960)">
        <g transform="translate(-2.41,-3.98) rotate(14.54) scale(0.940)">
        <g transform="translate(-4.22,-3.92) rotate(21.22) scale(0.920)">
        <g transform="translate(-4.99,-3.50) rotate(28.11) scale(0.900)">
        <g transform="translate(-4.54,-2.78) rotate(34.57) scale(0.880)">
        <path d="M0.0,-74.0 L21.8,-29.9 L70.4,-22.9 L35.2,11.4 L43.5,59.9 L0.0,37.0 L-43.5,59.9 L-35.2,11.4 L-70.4,-22.9 L-21.8,-29.9Z" fill="url(#rgrad3)" filter="url(#blur3)" opacity="0.70"/>
      </g>
      </g>
      </g>
      </g>
      </g>
      </g>
      </g>
  </g>
  <g transform="translate(290.7, 402.6)">
      <g transform="translate(-0.01,-4.00) rotate(1.06) scale(1.000)">
        <g transform="translate(-2.41,-3.82) rotate(4.02) scale(0.980)">
        <g transform="translate(-4.22,-3.29) rotate(8.64) scale(0.960)">
        <g transform="translate(-4.99,-2.48) rotate(14.54) scale(0.940)" clip-path="url(#clipDynamic)">
        <g transform="translate(-4.54,-1.44) rotate(21.22) scale(0.920)">
        <g transform="translate(-2.98,-0.27) rotate(28.11) scale(0.900)">
        <g transform="translate(-0.69,0.92) rotate(34.57) scale(0.880)">
        <rect x="-31.6" y="-31.6" width="63.1" height="63.1" rx="15.8" fill="url(#lgrad4)" filter="url(#shadow)" opacity="0.59"/>
        <circle cx="0" cy="0" r="21.0" fill="url(#rgrad0)" opacity="0.41"/>
      </g>
      </g>
      </g>
      </g>
      </g>
      </g>
      </g>
  </g>
  <g transform="translate(517.4, 390.3)">
      <g transform="translate(-4.22,-2.15) rotate(1.06) scale(1.000)">
        <g transform="translate(-4.99,-1.06) rotate(4.02) scale(0.980)">
        <g transform="translate(-4.54,0.13) rotate(8.64) scale(0.960)">
        <g transform="translate(-2.98,1.30) rotate(14.54) scale(0.940)">
        <g transform="translate(-0.69,2.36) rotate(21.22) scale(0.920)">
        <g transform="translate(1.77,3.21) rotate(28.11) scale(0.900)" mask="url(#maskStripes)">
        <g transform="translate(3.79,3.77) rotate(34.57) scale(0.880)">
        <path d="M25.6,14.8 L0.0,29.6 L-25.6,14.8 L-25.6,-14.8 L-0.0,-29.6 L25.6,-14.8Z" fill="url(#rgrad0)" filter="url(#blur0)" opacity="0.47"/>
        <ellipse cx="0" cy="0" rx="12.3" ry="8.2" fill="#FFFFFF" opacity="0.24"/>
      </g>
      </g>
      </g>
      </g>
      </g>
      </g>
      </g>
  </g>
  <g transform="translate(749.6, 373.2)">
      <g transform="translate(-4.54,1.68) rotate(1.06) scale(1.000)">
        <g transform="translate(-2.98,2.67) rotate(4.02) scale(0.980)">
        <g transform="translate(-0.69,3.43) rotate(8.64) scale(0.960)">
        <g transform="translate(1.77,3.89) rotate(14.54) scale(0.940)">
        <g transform="translate(3.79,3.99) rotate(21.22) scale(0.920)">
        <g transform="translate(4.89,3.74) rotate(28.11) scale(0.900)">
        <g transform="translate(4.79,3.16) rotate(34.57) scale(0.880)">
        <circle cx="0" cy="0" r="22.7" fill="url(#rgrad1)" filter="url(#shadow)" opacity="0.35"/>
        <text x="0" y="5" text-anchor="middle" font-family="Arial, sans-serif" font-size="14" fill="#FFFFFF" opacity="0.35">69</text>
      </g>
      </g>
      </g>
      </g>
      </g>
      </g>
      </g>
  </g>
  <g transform="translate(984.3, 359.3)">
      <g transform="translate(-0.69,3.96) rotate(1.06) scale(1.000)">
        <g transform="translate(1.77,3.95) rotate(4.02) scale(0.980)">
        <g transform="translate(3.79,3.58) rotate(8.64) scale(0.960)">
        <g transform="translate(4.89,2.90) rotate(14.54) scale(0.940)" clip-path="url(#clipHex)">
        <g transform="translate(4.79,1.95) rotate(21.22) scale(0.920)">
        <g transform="translate(3.52,0.83) rotate(28.11) scale(0.900)">
        <g transform="translate(1.38,-0.36) rotate(34.57) scale(0.880)">
        <path d="M0.0,-54.8 L16.1,-22.2 L52.1,-16.9 L26.1,8.5 L32.2,44.4 L0.0,27.4 L-32.2,44.4 L-26.1,8.5 L-52.1,-16.9 L-16.1,-22.2Z" fill="url(#lgrad2)" filter="url(#blur2)" opacity="0.25"/>
      </g>
      </g>
      </g>
      </g>
      </g>
      </g>
      </g>
  </g>
  <g transform="translate(1218.0, 355.1)">
      <g transform="translate(3.79,2.61) rotate(1.06) scale(1.000)">
        <g transform="translate(4.89,1.59) rotate(4.02) scale(0.980)">
        <g transform="translate(4.79,0.44) rotate(8.64) scale(0.960)">
        <g transform="translate(3.52,-0.76) rotate(14.54) scale(0.940)">
        <g transform="translate(1.38,-1.88) rotate(21.22) scale(0.920)">
        <g transform="translate(-1.09,-2.84) rotate(28.11) scale(0.900)" mask="url(#maskCircleFade)">
        <g transform="translate(-3.30,-3.55) rotate(34.57) scale(0.880)">
        <rect x="-34.5" y="-34.5" width="69.0" height="69.0" rx="17.3" fill="url(#rgrad3)" filter="url(#shadow)" opacity="0.17"/>
        <circle cx="0" cy="0" r="23.0" fill="url(#rgrad4)" opacity="0.12"/>
      </g>
      </g>
      </g>
      </g>
      </g>
      </g>
      </g>
  </g>
  <g transform="translate(1447.3, 362.6)">
      <g transform="translate(4.79,-1.15) rotate(1.06) scale(1.000)">
        <g transform="translate(3.52,-2.23) rotate(4.02) scale(0.980)">
        <g transform="translate(1.38,-3.11) rotate(8.64) scale(0.960)">
        <g transform="translate(-1.09,-3.71) rotate(14.54) scale(0.940)">
        <g transform="translate(-3.30,-3.99) rotate(21.22) scale(0.920)">
        <g transform="translate(-4.70,-3.90) rotate(28.11) scale(0.900)">
        <g transform="translate(-4.94,-3.47) rotate(34.57) scale(0.880)">
        <path d="M38.9,22.5 L0.0,45.0 L-38.9,22.5 L-38.9,-22.5 L-0.0,-45.0 L38.9,-22.5Z" fill="url(#rgrad4)" filter="url(#blur4)" opacity="0.12"/>
        <ellipse cx="0" cy="0" rx="18.7" ry="12.5" fill="#FFFFFF" opacity="0.06"/>
      </g>
      </g>
      </g>
      </g>
      </g>
      </g>
      </g>
  </g>
  <g transform="translate(1669.9, 378.3)">
      <g transform="translate(1.38,-3.84) rotate(1.06) scale(1.000)">
        <g transform="translate(-1.09,-4.00) rotate(4.02) scale(0.980)">
        <g transform="translate(-3.30,-3.80) rotate(8.64) scale(0.960)">
        <g transform="translate(-4.70,-3.26) rotate(14.54) scale(0.940)" clip-path="url(#clipCircle)">
        <g transform="translate(-4.94,-2.42) rotate(21.22) scale(0.920)">
        <g transform="translate(-3.98,-1.38) rotate(28.11) scale(0.900)">
        <g transform="translate(-2.05,-0.20) rotate(34.57) scale(0.880)">
        <circle cx="0" cy="0" r="33.6" fill="url(#lgrad0)" filter="url(#shadow)" opacity="0.10"/>
        <text x="0" y="5" text-anchor="middle" font-family="Arial, sans-serif" font-size="14" fill="#FFFFFF" opacity="0.10">69</text>
      </g>
      </g>
      </g>
      </g>
      </g>
      </g>
      </g>
  </g>
  <g transform="translate(125.2, 674.8)">
      <g transform="translate(-3.30,-3.01) rotate(1.06) scale(1.000)">
        <g transform="translate(-4.70,-2.09) rotate(4.02) scale(0.980)">
        <g transform="translate(-4.94,-0.99) rotate(8.64) scale(0.960)">
        <g transform="translate(-3.98,0.20) rotate(14.54) scale(0.940)">
        <g transform="translate(-2.05,1.37) rotate(21.22) scale(0.920)">
        <g transform="translate(0.39,2.42) rotate(28.11) scale(0.900)" mask="url(#maskGradient)">
        <g transform="translate(2.73,3.25) rotate(34.57) scale(0.880)">
        <path d="M0.0,-52.7 L15.5,-21.3 L50.2,-16.3 L25.1,8.1 L31.0,42.7 L0.0,26.4 L-31.0,42.7 L-25.1,8.1 L-50.2,-16.3 L-15.5,-21.3Z" fill="url(#rgrad1)" filter="url(#blur1)" opacity="0.12"/>
      </g>
      </g>
      </g>
      </g>
      </g>
      </g>
      </g>
  </g>
  <g transform="translate(334.3, 684.3)">
      <g transform="translate(-4.94,0.59) rotate(1.06) scale(1.000)">
        <g transform="translate(-3.98,1.74) rotate(4.02) scale(0.980)">
        <g transform="translate(-2.05,2.72) rotate(8.64) scale(0.960)">
        <g transform="translate(0.39,3.47) rotate(14.54) scale(0.940)">
        <g transform="translate(2.73,3.90) rotate(21.22) scale(0.920)">
        <g transform="translate(4.41,3.99) rotate(28.11) scale(0.900)">
        <g transform="translate(5.00,3.72) rotate(34.57) scale(0.880)">
        <rect x="-22.5" y="-22.5" width="45.0" height="45.0" rx="11.3" fill="url(#rgrad2)" filter="url(#shadow)" opacity="0.17"/>
        <circle cx="0" cy="0" r="15.0" fill="url(#rgrad3)" opacity="0.12"/>
      </g>
      </g>
      </g>
      </g>
      </g>
      </g>
      </g>
  </g>
  <g transform="translate(539.9, 682.4)">
      <g transform="translate(-2.05,3.65) rotate(1.06) scale(1.000)">
        <g transform="translate(0.39,3.97) rotate(4.02) scale(0.980)">
        <g transform="translate(2.73,3.94) rotate(8.64) scale(0.960)">
        <g transform="translate(4.41,3.55) rotate(14.54) scale(0.940)" clip-path="url(#clipRect)">
        <g transform="translate(5.00,2.85) rotate(21.22) scale(0.920)">
        <g transform="translate(4.37,1.89) rotate(28.11) scale(0.900)">
        <g transform="translate(2.67,0.77) rotate(34.57) scale(0.880)">
        <path d="M26.5,15.3 L0.0,30.7 L-26.5,15.3 L-26.5,-15.3 L-0.0,-30.7 L26.5,-15.3Z" fill="url(#lgrad3)" filter="url(#blur3)" opacity="0.25"/>
        <ellipse cx="0" cy="0" rx="12.8" ry="8.5" fill="#FFFFFF" opacity="0.13"/>
      </g>
      </g>
      </g>
      </g>
      </g>
      </g>
      </g>
  </g>
  <g transform="translate(745.5, 670.0)">
      <g transform="translate(2.73,3.35) rotate(1.06) scale(1.000)">
        <g transform="translate(4.41,2.55) rotate(4.02) scale(0.980)">
        <g transform="translate(5.00,1.53) rotate(8.64) scale(0.960)">
        <g transform="translate(4.37,0.37) rotate(14.54) scale(0.940)">
        <g transform="translate(2.67,-0.82) rotate(21.22) scale(0.920)">
        <g transform="translate(0.32,-1.94) rotate(28.11) scale(0.900)" mask="url(#maskDynamic)">
        <g transform="translate(-2.11,-2.89) rotate(34.57) scale(0.880)">
        <circle cx="0" cy="0" r="32.7" fill="url(#rgrad4)" filter="url(#shadow)" opacity="0.36"/>
        <text x="0" y="5" text-anchor="middle" font-family="Arial, sans-serif" font-size="14" fill="#FFFFFF" opacity="0.36">69</text>
      </g>
      </g>
      </g>
      </g>
      </g>
      </g>
      </g>
  </g>
  <g transform="translate(954.7, 652.8)">
      <g transform="translate(5.00,-0.03) rotate(1.06) scale(1.000)">
        <g transform="translate(4.37,-1.21) rotate(4.02) scale(0.980)">
        <g transform="translate(2.67,-2.28) rotate(8.64) scale(0.960)">
        <g transform="translate(0.32,-3.15) rotate(14.54) scale(0.940)">
        <g transform="translate(-2.11,-3.74) rotate(21.22) scale(0.920)">
        <g transform="translate(-4.03,-3.99) rotate(28.11) scale(0.900)">
        <g transform="translate(-4.96,-3.89) rotate(34.57) scale(0.880)">
        <path d="M0.0,-74.7 L21.9,-30.2 L71.0,-23.1 L35.5,11.5 L43.9,60.4 L0.0,37.3 L-43.9,60.4 L-35.5,11.5 L-71.0,-23.1 L-21.9,-30.2Z" fill="url(#rgrad0)" filter="url(#blur0)" opacity="0.47"/>
      </g>
      </g>
      </g>
      </g>
      </g>
      </g>
      </g>
  </g>
  <g transform="translate(1170.1, 639.1)">
      <g transform="translate(2.67,-3.38) rotate(1.06) scale(1.000)">
        <g transform="translate(0.32,-3.86) rotate(4.02) scale(0.980)">
        <g transform="translate(-2.11,-4.00) rotate(8.64) scale(0.960)">
        <g transform="translate(-4.03,-3.78) rotate(14.54) scale(0.940)" clip-path="url(#clipStar)">
        <g transform="translate(-4.96,-3.22) rotate(21.22) scale(0.920)">
        <g transform="translate(-4.67,-2.37) rotate(28.11) scale(0.900)">
        <g transform="translate(-3.24,-1.31) rotate(34.57) scale(0.880)">
        <rect x="-35.3" y="-35.3" width="70.5" height="70.5" rx="17.6" fill="url(#lgrad1)" filter="url(#shadow)" opacity="0.59"/>
        <circle cx="0" cy="0" r="23.5" fill="url(#rgrad2)" opacity="0.41"/>
      </g>
      </g>
      </g>
      </g>
      </g>
      </g>
      </g>
  </g>
  <g transform="translate(1392.8, 635.2)">
      <g transform="translate(-2.11,-3.62) rotate(1.06) scale(1.000)">
        <g transform="translate(-4.03,-2.96) rotate(4.02) scale(0.980)">
        <g transform="translate(-4.96,-2.04) rotate(8.64) scale(0.960)">
        <g transform="translate(-4.67,-0.93) rotate(14.54) scale(0.940)">
        <g transform="translate(-3.24,0.26) rotate(21.22) scale(0.920)">
        <g transform="translate(-1.02,1.43) rotate(28.11) scale(0.900)" mask="url(#maskStripes)">
        <g transform="translate(1.45,2.47) rotate(34.57) scale(0.880)">
        <path d="M29.5,17.0 L0.0,34.0 L-29.5,17.0 L-29.5,-17.0 L-0.0,-34.0 L29.5,-17.0Z" fill="url(#rgrad2)" filter="url(#blur2)" opacity="0.70"/>
        <ellipse cx="0" cy="0" rx="14.2" ry="9.4" fill="#FFFFFF" opacity="0.35"/>
      </g>
      </g>
      </g>
      </g>
      </g>
      </g>
      </g>
  </g>
  <g transform="translate(1622.1, 642.9)">
      <g transform="translate(-4.96,-0.54) rotate(1.06) scale(1.000)">
        <g transform="translate(-4.67,0.66) rotate(4.02) scale(0.980)">
        <g transform="translate(-3.24,1.80) rotate(8.64) scale(0.960)">
        <g transform="translate(-1.02,2.77) rotate(14.54) scale(0.940)">
        <g transform="translate(1.45,3.50) rotate(21.22) scale(0.920)">
        <g transform="translate(3.57,3.92) rotate(28.11) scale(0.900)">
        <g transform="translate(4.81,3.98) rotate(34.57) scale(0.880)">
        <circle cx="0" cy="0" r="22.9" fill="url(#rgrad3)" filter="url(#shadow)" opacity="0.80"/>
        <text x="0" y="5" text-anchor="middle" font-family="Arial, sans-serif" font-size="14" fill="#FFFFFF" opacity="0.80">69</text>
      </g>
      </g>
      </g>
      </g>
      </g>
      </g>
      </g>
  </g>
  <g transform="translate(95.9, 938.7)">
      <g transform="translate(-3.24,3.05) rotate(1.06) scale(1.000)">
        <g transform="translate(-1.02,3.68) rotate(4.02) scale(0.980)">
        <g transform="translate(1.45,3.98) rotate(8.64) scale(0.960)">
        <g transform="translate(3.57,3.92) rotate(14.54) scale(0.940)" clip-path="url(#clipDynamic)">
        <g transform="translate(4.81,3.52) rotate(21.22) scale(0.920)">
        <g transform="translate(4.87,2.80) rotate(28.11) scale(0.900)">
        <g transform="translate(3.75,1.83) rotate(34.57) scale(0.880)">
        <path d="M0.0,-48.1 L14.1,-19.4 L45.7,-14.9 L22.9,7.4 L28.3,38.9 L0.0,24.0 L-28.3,38.9 L-22.9,7.4 L-45.7,-14.9 L-14.1,-19.4Z" fill="url(#lgrad4)" filter="url(#blur4)" opacity="0.86"/>
      </g>
      </g>
      </g>
      </g>
      </g>
      </g>
      </g>
  </g>
  <g transform="translate(341.5, 372.8)" mask="url(#maskGradient)">
    <ellipse cx="0" cy="0" rx="200" ry="150" fill="url(#rgrad0)" filter="url(#blur3)" opacity="0.3"/>
  </g>
  <g transform="translate(899.0, 334.3)" mask="url(#maskCircleFade)">
    <ellipse cx="0" cy="0" rx="200" ry="150" fill="url(#rgrad1)" filter="url(#blur3)" opacity="0.3"/>
  </g>
  <g transform="translate(1365.5, 279.7)" mask="url(#maskStripes)">
    <ellipse cx="0" cy="0" rx="200" ry="150" fill="url(#rgrad2)" filter="url(#blur3)" opacity="0.3"/>
  </g>
</svg>