<?xml version="1.0" encoding="UTF-8"?>
<svg xmlns="http://www.w3.org/2000/svg" viewBox="0 0 1920 1080" width="1920" height="1080">
  <defs>
    <filter id="blur0" x="-50%" y="-50%" width="200%" height="200%">
      <feGaussianBlur in="SourceGraphic" stdDeviation="1"/>
    </filter>
    <filter id="blur1" x="-50%" y="-50%" width="200%" height="200%">
      <feGaussianBlur in="SourceGraphic" stdDeviation="3"/>
    </filter>
    <filter id="blur2" x="-50%" y="-50%" width="200%" height="200%">
      <feGaussianBlur in="SourceGraphic" stdDeviation="5"/>
    </filter>
    <filter id="blur3" x="-50%" y="-50%" width="200%" height="200%">
      <feGaussianBlur in="SourceGraphic" stdDeviation="7"/>
    </filter>
    <filter id="blur4" x="-50%" y="-50%" width="200%" height="200%">
      <feGaussianBlur in="SourceGraphic" stdDeviation="9"/>
    </filter>
    <filter id="shadow" x="-50%" y="-50%" width="200%" height="200%">
      <feGaussianBlur in="SourceAlpha" stdDeviation="3" result="blur"/>
      <feOffset in="blur" dx="4" dy="4" result="offsetBlur"/>
      <feMerge>
        <feMergeNode in="offsetBlur"/>
        <feMergeNode in="SourceGraphic"/>
      </feMerge>
    </filter>
    <linearGradient id="lgrad0" x1="0%" y1="0%" x2="46.1%" y2="0.2%">
      <stop offset="0%" stop-color="#FF6B6B"/>
      <stop offset="33%" stop-color="#4ECDC4"/>
      <stop offset="66%" stop-color="#45B7D1"/>
      <stop offset="100%" stop-color="#96E6A1"/>
    </linearGradient>
    <linearGradient id="lgrad1" x1="0%" y1="0%" x2="71.5%" y2="4.9%">
      <stop offset="0%" stop-color="#FFE66D"/>
      <stop offset="33%" stop-color="#FF6B6B"/>
      <stop offset="66%" stop-color="#C44D58"/>
      <stop offset="100%" stop-color="#8B0000"/>
    </linearGradient>
    <linearGradient id="lgrad2" x1="0%" y1="0%" x2="91.2%" y2="21.7%">
      <stop offset="0%" stop-color="#4169E1"/>
      <stop offset="33%" stop-color="#7B68EE"/>
      <stop offset="66%" stop-color="#9370DB"/>
      <stop offset="100%" stop-color="#FFD700"/>
    </linearGradient>
    <linearGradient id="lgrad3" x1="0%" y1="0%" x2="99.8%" y2="46.1%">
      <stop offset="0%" stop-color="#32CD32"/>
      <stop offset="33%" stop-color="#228B22"/>
      <stop offset="66%" stop-color="#006400"/>
      <stop offset="100%" stop-color="#ADFF2F"/>
    </linearGradient>
    <linearGradient id="lgrad4" x1="0%" y1="0%" x2="95.1%" y2="71.5%">
      <stop offset="0%" stop-color="#FF1493"/>
      <stop offset="33%" stop-color="#FF69B4"/>
      <stop offset="66%" stop-color="#FFB6C1"/>
      <stop offset="100%" stop-color="#FFC0CB"/>
    </linearGradient>
    <radialGradient id="rgrad0" cx="42.3%" cy="38.2%" r="60%">
      <stop offset="0%" stop-color="#FF6B6B" stop-opacity="1"/>
      <stop offset="50%" stop-color="#4ECDC4" stop-opacity="0.8"/>
      <stop offset="100%" stop-color="#45B7D1" stop-opacity="0.6"/>
    </radialGradient>
    <radialGradient id="rgrad1" cx="52.3%" cy="46.2%" r="60%">
      <stop offset="0%" stop-color="#FFE66D" stop-opacity="1"/>
      <stop offset="50%" stop-color="#FF6B6B" stop-opacity="0.8"/>
      <stop offset="100%" stop-color="#C44D58" stop-opacity="0.6"/>
    </radialGradient>
    <radialGradient id="rgrad2" cx="62.3%" cy="54.2%" r="60%">
      <stop offset="0%" stop-color="#4169E1" stop-opacity="1"/>
      <stop offset="50%" stop-color="#7B68EE" stop-opacity="0.8"/>
      <stop offset="100%" stop-color="#9370DB" stop-opacity="0.6"/>
    </radialGradient>
    <radialGradient id="rgrad3" cx="32.3%" cy="62.2%" r="60%">
      <stop offset="0%" stop-color="#32CD32" stop-opacity="1"/>
      <stop offset="50%" stop-color="#228B22" stop-opacity="0.8"/>
      <stop offset="100%" stop-color="#006400" stop-opacity="0.6"/>
    </radialGradient>
    <radialGradient id="rgrad4" cx="42.3%" cy="30.2%" r="60%">
      <stop offset="0%" stop-color="#FF1493" stop-opacity="1"/>
      <stop offset="50%" stop-color="#FF69B4" stop-opacity="0.8"/>
      <stop offset="100%" stop-color="#FFB6C1" stop-opacity="0.6"/>
    </radialGradient>
    <clipPath id="clipCircle">
      <circle cx="0" cy="0" r="50"/>
    </clipPath>
    <clipPath id="clipStar">
      <path d="M0.0,-50.0 L14.7,-20.2 L47.6,-15.5 L23.8,7.7 L29.4,40.5 L0.0,25.0 L-29.4,40.5 L-23.8,7.7 L-47.6,-15.5 L-14.7,-20.2Z"/>
    </clipPath>
    <clipPath id="clipHex">
      <path d="M39.0,22.5 L0.0,45.0 L-39.0,22.5 L-39.0,-22.5 L-0.0,-45.0 L39.0,-22.5Z"/>
    </clipPath>
    <clipPath id="clipRect">
      <rect x="-40" y="-30" width="80" height="60" rx="10"/>
    </clipPath>
    <clipPath id="clipDynamic">
      <circle cx="0" cy="0" r="40.5"/>
    </clipPath>
    <mask id="maskGradient" maskContentUnits="objectBoundingBox">
      <rect x="0" y="0" width="1" height="1" fill="url(#maskGrad)"/>
    </mask>
    <linearGradient id="maskGrad" x1="0%" y1="0%" x2="100%" y2="100%">
      <stop offset="0%" stop-color="white"/>
      <stop offset="100%" stop-color="black"/>
    </linearGradient>
    <mask id="maskCircleFade">
      <circle cx="0" cy="0" r="60" fill="white"/>
      <circle cx="0" cy="0" r="30" fill="black"/>
    </mask>
    <mask id="maskStripes">
      <rect x="-50" y="-50" width="100" height="100" fill="white"/>
      <rect x="-50" y="-40" width="100" height="10" fill="black"/>
      <rect x="-50" y="-20" width="100" height="10" fill="black"/>
      <rect x="-50" y="0" width="100" height="10" fill="black"/>
      <rect x="-50" y="20" width="100" height="10" fill="black"/>
      <rect x="-50" y="40" width="100" height="10" fill="black"/>
    </mask>
    <mask id="maskDynamic">
      <rect x="-60" y="-60" width="120" height="120" fill="white" fill-opacity="0.99"/>
      <circle cx="0" cy="0" r="25" fill="white"/>
    </mask>
  </defs>
  <rect width="1920" height="1080" fill="url(#lgrad0)"/>
  <g transform="translate(111.0, 76.7)">
      <g transform="translate(1.83,-3.72) rotate(4.91) scale(1.000)">
        <g transform="translate(-0.63,-3.99) rotate(10.00) scale(0.980)">
        <g transform="translate(-2.93,-3.90) rotate(14.66) scale(0.960)">
        <g transform="translate(-4.51,-3.46) rotate(18.32) scale(0.940)" clip-path="url(#clipCircle)">
        <g transform="translate(-4.99,-2.71) rotate(20.45) scale(0.920)">
        <g transform="translate(-4.25,-1.72) rotate(20.62) scale(0.900)">
        <g transform="translate(-2.47,-0.58) rotate(18.53) scale(0.880)">
        <path d="M0.0,-74.7 L22.0,-30.2 L71.1,-23.1 L35.5,11.5 L43.9,60.5 L0.0,37.4 L-43.9,60.5 L-35.5,11.5 L-71.1,-23.1 L-22.0,-30.2Z" fill="url(#lgrad0)" filter="url(#blur0)" opacity="0.89"/>
      </g>
      </g>
      </g>
      </g>
      </g>
      </g>
      </g>
  </g>
  <g transform="translate(316.2, 76.3)">
      <g transform="translate(-2.93,-3.24) rotate(4.91) scale(1.000)">
        <g transform="translate(-4.51,-2.40) rotate(10.00) scale(0.980)">
        <g transform="translate(-4.99,-1.35) rotate(14.66) scale(0.960)">
        <g transform="translate(-4.25,-0.18) rotate(18.32) scale(0.940)">
        <g transform="translate(-2.47,1.01) rotate(20.45) scale(0.920)">
        <g transform="translate(-0.08,2.11) rotate(20.62) scale(0.900)" mask="url(#maskCircleFade)">
        <g transform="translate(2.33,3.02) rotate(18.53) scale(0.880)">
        <rect x="-35.2" y="-35.2" width="70.3" height="70.3" rx="17.6" fill="url(#rgrad1)" filter="url(#shadow)" opacity="0.90"/>
        <circle cx="0" cy="0" r="23.4" fill="url(#rgrad2)" opacity="0.63"/>
      </g>
      </g>
      </g>
      </g>
      </g>
      </g>
      </g>
  </g>
  <g transform="translate(522.4, 87.0)">
      <g transform="translate(-4.99,0.22) rotate(4.91) scale(1.000)">
        <g transform="translate(-4.25,1.39) rotate(10.00) scale(0.980)">
        <g transform="translate(-2.47,2.44) rotate(14.66) scale(0.960)">
        <g transform="translate(-0.08,3.27) rotate(18.32) scale(0.940)">
        <g transform="translate(2.33,3.80) rotate(20.45) scale(0.920)">
        <g transform="translate(4.16,4.00) rotate(20.62) scale(0.900)">
        <g transform="translate(4.98,3.84) rotate(18.53) scale(0.880)">
        <path d="M29.3,16.9 L0.0,33.8 L-29.3,16.9 L-29.3,-16.9 L-0.0,-33.8 L29.3,-16.9Z" fill="url(#rgrad2)" filter="url(#blur2)" opacity="0.87"/>
        <ellipse cx="0" cy="0" rx="14.1" ry="9.4" fill="#FFFFFF" opacity="0.43"/>
      </g>
      </g>
      </g>
      </g>
      </g>
      </g>
      </g>
  </g>
  <g transform="translate(732.9, 103.9)">
      <g transform="translate(-2.47,3.48) rotate(4.91) scale(1.000)">
        <g transform="translate(-0.08,3.91) rotate(10.00) scale(0.980)">
        <g transform="translate(2.33,3.99) rotate(14.66) scale(0.960)">
        <g transform="translate(4.16,3.71) rotate(18.32) scale(0.940)" clip-path="url(#clipRect)">
        <g transform="translate(4.98,3.10) rotate(20.45) scale(0.920)">
        <g transform="translate(4.58,2.21) rotate(20.62) scale(0.900)">
        <g transform="translate(3.06,1.13) rotate(18.53) scale(0.880)">
        <circle cx="0" cy="0" r="22.9" fill="url(#lgrad3)" filter="url(#shadow)" opacity="0.80"/>
        <text x="0" y="5" text-anchor="middle" font-family="Arial, sans-serif" font-size="14" fill="#FFFFFF" opacity="0.80">441</text>
      </g>
      </g>
      </g>
      </g>
      </g>
      </g>
      </g>
  </g>
  <g transform="translate(950.0, 118.9)">
      <g transform="translate(2.33,3.54) rotate(4.91) scale(1.000)">
        <g transform="translate(4.16,2.83) rotate(10.00) scale(0.980)">
        <g transform="translate(4.98,1.87) rotate(14.66) scale(0.960)">
        <g transform="translate(4.58,0.74) rotate(18.32) scale(0.940)">
        <g transform="translate(3.06,-0.45) rotate(20.45) scale(0.920)">
        <g transform="translate(0.78,-1.61) rotate(20.62) scale(0.900)" mask="url(#maskGradient)">
        <g transform="translate(-1.68,-2.62) rotate(18.53) scale(0.880)">
        <path d="M0.0,-48.3 L14.2,-19.5 L45.9,-14.9 L22.9,7.5 L28.4,39.0 L0.0,24.1 L-28.4,39.0 L-22.9,7.5 L-45.9,-14.9 L-14.2,-19.5Z" fill="url(#rgrad4)" filter="url(#blur4)" opacity="0.71"/>
      </g>
      </g>
      </g>
      </g>
      </g>
      </g>
      </g>
  </g>
  <g transform="translate(1174.5, 125.0)">
      <g transform="translate(4.98,0.35) rotate(4.91) scale(1.000)">
        <g transform="translate(4.58,-0.85) rotate(10.00) scale(0.980)">
        <g transform="translate(3.06,-1.96) rotate(14.66) scale(0.960)">
        <g transform="translate(0.78,-2.91) rotate(18.32) scale(0.940)">
        <g transform="translate(-1.68,-3.59) rotate(20.45) scale(0.920)">
        <g transform="translate(-3.73,-3.95) rotate(20.62) scale(0.900)">
        <g transform="translate(-4.87,-3.96) rotate(18.53) scale(0.880)">
        <rect x="-30.8" y="-30.8" width="61.5" height="61.5" rx="15.4" fill="url(#rgrad0)" filter="url(#shadow)" opacity="0.60"/>
        <circle cx="0" cy="0" r="20.5" fill="url(#rgrad1)" opacity="0.42"/>
      </g>
      </g>
      </g>
      </g>
      </g>
      </g>
      </g>
  </g>
  <g transform="translate(1405.2, 119.4)">
      <g transform="translate(3.06,-3.17) rotate(4.91) scale(1.000)">
        <g transform="translate(0.78,-3.75) rotate(10.00) scale(0.980)">
        <g transform="translate(-1.68,-3.99) rotate(14.66) scale(0.960)">
        <g transform="translate(-3.73,-3.88) rotate(18.32) scale(0.940)" clip-path="url(#clipStar)">
        <g transform="translate(-4.87,-3.43) rotate(20.45) scale(0.920)">
        <g transform="translate(-4.82,-2.66) rotate(20.62) scale(0.900)">
        <g transform="translate(-3.58,-1.66) rotate(18.53) scale(0.880)">
        <path d="M38.1,22.0 L0.0,44.0 L-38.1,22.0 L-38.1,-22.0 L-0.0,-44.0 L38.1,-22.0Z" fill="url(#lgrad1)" filter="url(#blur1)" opacity="0.48"/>
        <ellipse cx="0" cy="0" rx="18.3" ry="12.2" fill="#FFFFFF" opacity="0.24"/>
      </g>
      </g>
      </g>
      </g>
      </g>
      </g>
      </g>
  </g>
  <g transform="translate(1639.5, 104.6)">
      <g transform="translate(-1.68,-3.77) rotate(4.91) scale(1.000)">
        <g transform="translate(-3.73,-3.20) rotate(10.00) scale(0.980)">
        <g transform="translate(-4.87,-2.35) rotate(14.66) scale(0.960)">
        <g transform="translate(-4.82,-1.29) rotate(18.32) scale(0.940)">
        <g transform="translate(-3.58,-0.11) rotate(20.45) scale(0.920)">
        <g transform="translate(-1.47,1.07) rotate(20.62) scale(0.900)" mask="url(#maskDynamic)">
        <g transform="translate(1.00,2.16) rotate(18.53) scale(0.880)">
        <circle cx="0" cy="0" r="36.5" fill="url(#rgrad2)" filter="url(#shadow)" opacity="0.37"/>
        <text x="0" y="5" text-anchor="middle" font-family="Arial, sans-serif" font-size="14" fill="#FFFFFF" opacity="0.37">441</text>
      </g>
      </g>
      </g>
      </g>
      </g>
      </g>
      </g>
  </g>
  <g transform="translate(114.0, 367.7)">
      <g transform="translate(-4.87,-0.90) rotate(4.91) scale(1.000)">
        <g transform="translate(-4.82,0.29) rotate(10.00) scale(0.980)">
        <g transform="translate(-3.58,1.45) rotate(14.66) scale(0.960)">
        <g transform="translate(-1.47,2.49) rotate(18.32) scale(0.940)">
        <g transform="translate(1.00,3.30) rotate(20.45) scale(0.920)">
        <g transform="translate(3.22,3.82) rotate(20.62) scale(0.900)">
        <g transform="translate(4.66,4.00) rotate(18.53) scale(0.880)">
        <path d="M0.0,-60.6 L17.8,-24.5 L57.6,-18.7 L28.8,9.4 L35.6,49.0 L0.0,30.3 L-35.6,49.0 L-28.8,9.4 L-57.6,-18.7 L-17.8,-24.5Z" fill="url(#rgrad3)" filter="url(#blur3)" opacity="0.26"/>
      </g>
      </g>
      </g>
      </g>
      </g>
      </g>
      </g>
  </g>
  <g transform="translate(345.0, 356.6)">
      <g transform="translate(-3.58,2.79) rotate(4.91) scale(1.000)">
        <g transform="translate(-1.47,3.51) rotate(10.00) scale(0.980)">
        <g transform="translate(1.00,3.92) rotate(14.66) scale(0.960)">
        <g transform="translate(3.22,3.98) rotate(18.32) scale(0.940)" clip-path="url(#clipDynamic)">
        <g transform="translate(4.66,3.68) rotate(20.45) scale(0.920)">
        <g transform="translate(4.96,3.06) rotate(20.62) scale(0.900)">
        <g transform="translate(4.04,2.16) rotate(18.53) scale(0.880)">
        <rect x="-23.9" y="-23.9" width="47.7" height="47.7" rx="11.9" fill="url(#lgrad4)" filter="url(#shadow)" opacity="0.18"/>
        <circle cx="0" cy="0" r="15.9" fill="url(#rgrad0)" opacity="0.12"/>
      </g>
      </g>
      </g>
      </g>
      </g>
      </g>
      </g>
  </g>
  <g transform="translate(569.9, 356.5)">
      <g transform="translate(1.00,3.92) rotate(4.91) scale(1.000)">
        <g transform="translate(3.22,3.51) rotate(10.00) scale(0.980)">
        <g transform="translate(4.66,2.78) rotate(14.66) scale(0.960)">
        <g transform="translate(4.96,1.81) rotate(18.32) scale(0.940)">
        <g transform="translate(4.04,0.68) rotate(20.45) scale(0.920)">
        <g transform="translate(2.13,-0.52) rotate(20.62) scale(0.900)" mask="url(#maskStripes)">
        <g transform="translate(-0.30,-1.67) rotate(18.53) scale(0.880)">
        <path d="M24.0,13.8 L0.0,27.7 L-24.0,13.8 L-24.0,-13.8 L-0.0,-27.7 L24.0,-13.8Z" fill="url(#rgrad0)" filter="url(#blur0)" opacity="0.12"/>
        <ellipse cx="0" cy="0" rx="11.5" ry="7.7" fill="#FFFFFF" opacity="0.06"/>
      </g>
      </g>
      </g>
      </g>
      </g>
      </g>
      </g>
  </g>
  <g transform="translate(787.5, 367.4)">
      <g transform="translate(4.66,1.45) rotate(4.91) scale(1.000)">
        <g transform="translate(4.96,0.28) rotate(10.00) scale(0.980)">
        <g transform="translate(4.04,-0.91) rotate(14.66) scale(0.960)">
        <g transform="translate(2.13,-2.02) rotate(18.32) scale(0.940)">
        <g transform="translate(-0.30,-2.95) rotate(20.45) scale(0.920)">
        <g transform="translate(-2.65,-3.62) rotate(20.62) scale(0.900)">
        <g transform="translate(-4.36,-3.96) rotate(18.53) scale(0.880)">
        <circle cx="0" cy="0" r="28.6" fill="url(#rgrad1)" filter="url(#shadow)" opacity="0.10"/>
        <text x="0" y="5" text-anchor="middle" font-family="Arial, sans-serif" font-size="14" fill="#FFFFFF" opacity="0.10">441</text>
      </g>
      </g>
      </g>
      </g>
      </g>
      </g>
      </g>
  </g>
  <g transform="translate(998.3, 384.3)">
      <g transform="translate(4.04,-2.36) rotate(4.91) scale(1.000)">
        <g transform="translate(2.13,-3.21) rotate(10.00) scale(0.980)">
        <g transform="translate(-0.30,-3.77) rotate(14.66) scale(0.960)">
        <g transform="translate(-2.65,-4.00) rotate(18.32) scale(0.940)" clip-path="url(#clipHex)">
        <g transform="translate(-4.36,-3.87) rotate(20.45) scale(0.920)">
        <g transform="translate(-5.00,-3.39) rotate(20.62) scale(0.900)">
        <g transform="translate(-4.41,-2.61) rotate(18.53) scale(0.880)">
        <path d="M0.0,-70.9 L20.8,-28.7 L67.5,-21.9 L33.7,11.0 L41.7,57.4 L0.0,35.5 L-41.7,57.4 L-33.7,11.0 L-67.5,-21.9 L-20.8,-28.7Z" fill="url(#lgrad2)" filter="url(#blur2)" opacity="0.11"/>
      </g>
      </g>
      </g>
      </g>
      </g>
      </g>
      </g>
  </g>
  <g transform="translate(1204.7, 399.1)">
      <g transform="translate(-0.30,-3.99) rotate(4.91) scale(1.000)">
        <g transform="translate(-2.65,-3.74) rotate(10.00) scale(0.980)">
        <g transform="translate(-4.36,-3.16) rotate(14.66) scale(0.960)">
        <g transform="translate(-5.00,-2.30) rotate(18.32) scale(0.940)">
        <g transform="translate(-4.41,-1.23) rotate(20.45) scale(0.920)">
        <g transform="translate(-2.75,-0.05) rotate(20.62) scale(0.900)" mask="url(#maskCircleFade)">
        <g transform="translate(-0.41,1.14) rotate(18.53) scale(0.880)">
        <rect x="-37.3" y="-37.3" width="74.5" height="74.5" rx="18.6" fill="url(#rgrad3)" filter="url(#shadow)" opacity="0.16"/>
        <circle cx="0" cy="0" r="24.8" fill="url(#rgrad4)" opacity="0.11"/>
      </g>
      </g>
      </g>
      </g>
      </g>
      </g>
      </g>
  </g>
  <g transform="translate(1409.9, 405.0)">
      <g transform="translate(-4.36,-1.96) rotate(4.91) scale(1.000)">
        <g transform="translate(-5.00,-0.84) rotate(10.00) scale(0.980)">
        <g transform="translate(-4.41,0.35) rotate(14.66) scale(0.960)">
        <g transform="translate(-2.75,1.52) rotate(18.32) scale(0.940)">
        <g transform="translate(-0.41,2.54) rotate(20.45) scale(0.920)">
        <g transform="translate(2.03,3.34) rotate(20.62) scale(0.900)">
        <g transform="translate(3.97,3.84) rotate(18.53) scale(0.880)">
        <path d="M33.7,19.4 L0.0,38.9 L-33.7,19.4 L-33.7,-19.4 L-0.0,-38.9 L33.7,-19.4Z" fill="url(#rgrad4)" filter="url(#blur4)" opacity="0.24"/>
        <ellipse cx="0" cy="0" rx="16.2" ry="10.8" fill="#FFFFFF" opacity="0.12"/>
      </g>
      </g>
      </g>
      </g>
      </g>
      </g>
      </g>
  </g>
  <g transform="translate(1617.6, 399.1)">
      <g transform="translate(-4.41,1.88) rotate(4.91) scale(1.000)">
        <g transform="translate(-2.75,2.84) rotate(10.00) scale(0.980)">
        <g transform="translate(-0.41,3.54) rotate(14.66) scale(0.960)">
        <g transform="translate(2.03,3.93) rotate(18.32) scale(0.940)" clip-path="url(#clipCircle)">
        <g transform="translate(3.97,3.97) rotate(20.45) scale(0.920)">
        <g transform="translate(4.94,3.66) rotate(20.62) scale(0.900)">
        <g transform="translate(4.70,3.01) rotate(18.53) scale(0.880)">
        <circle cx="0" cy="0" r="25.3" fill="url(#lgrad0)" filter="url(#shadow)" opacity="0.34"/>
        <text x="0" y="5" text-anchor="middle" font-family="Arial, sans-serif" font-size="14" fill="#FFFFFF" opacity="0.34">441</text>
      </g>
      </g>
      </g>
      </g>
      </g>
      </g>
      </g>
  </g>
  <g transform="translate(70.8, 664.2)">
      <g transform="translate(-0.41,3.99) rotate(4.91) scale(1.000)">
        <g transform="translate(2.03,3.91) rotate(10.00) scale(0.980)">
        <g transform="translate(3.97,3.48) rotate(14.66) scale(0.960)">
        <g transform="translate(4.94,2.74) rotate(18.32) scale(0.940)">
        <g transform="translate(4.70,1.75) rotate(20.45) scale(0.920)">
        <g transform="translate(3.31,0.61) rotate(20.62) scale(0.900)" mask="url(#maskGradient)">
        <g transform="translate(1.11,-0.59) rotate(18.53) scale(0.880)">
        <path d="M0.0,-45.1 L13.2,-18.2 L42.9,-13.9 L21.4,7.0 L26.5,36.5 L0.0,22.5 L-26.5,36.5 L-21.4,7.0 L-42.9,-13.9 L-13.2,-18.2Z" fill="url(#rgrad1)" filter="url(#blur1)" opacity="0.46"/>
      </g>
      </g>
      </g>
      </g>
      </g>
      </g>
      </g>
  </g>
  <g transform="translate(291.1, 647.4)">
      <g transform="translate(3.97,2.43) rotate(4.91) scale(1.000)">
        <g transform="translate(4.94,1.38) rotate(10.00) scale(0.980)">
        <g transform="translate(4.70,0.21) rotate(14.66) scale(0.960)">
        <g transform="translate(3.31,-0.98) rotate(18.32) scale(0.940)">
        <g transform="translate(1.11,-2.08) rotate(20.45) scale(0.920)">
        <g transform="translate(-1.36,-3.00) rotate(20.62) scale(0.900)">
        <g transform="translate(-3.50,-3.65) rotate(18.53) scale(0.880)">
        <rect x="-26.6" y="-26.6" width="53.3" height="53.3" rx="13.3" fill="url(#rgrad2)" filter="url(#shadow)" opacity="0.58"/>
        <circle cx="0" cy="0" r="17.8" fill="url(#rgrad3)" opacity="0.41"/>
      </g>
      </g>
      </g>
      </g>
      </g>
      </g>
      </g>
  </g>
  <g transform="translate(518.5, 636.4)">
      <g transform="translate(4.70,-1.36) rotate(4.91) scale(1.000)">
        <g transform="translate(3.31,-2.41) rotate(10.00) scale(0.980)">
        <g transform="translate(1.11,-3.25) rotate(14.66) scale(0.960)">
        <g transform="translate(-1.36,-3.79) rotate(18.32) scale(0.940)" clip-path="url(#clipRect)">
        <g transform="translate(-3.50,-4.00) rotate(20.45) scale(0.920)">
        <g transform="translate(-4.78,-3.85) rotate(20.62) scale(0.900)">
        <g transform="translate(-4.89,-3.35) rotate(18.53) scale(0.880)">
        <path d="M35.1,20.3 L0.0,40.6 L-35.1,20.3 L-35.1,-20.3 L-0.0,-40.6 L35.1,-20.3Z" fill="url(#lgrad3)" filter="url(#blur3)" opacity="0.69"/>
        <ellipse cx="0" cy="0" rx="16.9" ry="11.3" fill="#FFFFFF" opacity="0.35"/>
      </g>
      </g>
      </g>
      </g>
      </g>
      </g>
      </g>
  </g>
  <g transform="translate(751.2, 636.6)">
      <g transform="translate(1.11,-3.90) rotate(4.91) scale(1.000)">
        <g transform="translate(-1.36,-3.99) rotate(10.00) scale(0.980)">
        <g transform="translate(-3.50,-3.72) rotate(14.66) scale(0.960)">
        <g transform="translate(-4.78,-3.12) rotate(18.32) scale(0.940)">
        <g transform="translate(-4.89,-2.24) rotate(20.45) scale(0.920)">
        <g transform="translate(-3.81,-1.16) rotate(20.62) scale(0.900)" mask="url(#maskDynamic)">
        <g transform="translate(-1.79,0.02) rotate(18.53) scale(0.880)">
        <circle cx="0" cy="0" r="37.5" fill="url(#rgrad4)" filter="url(#shadow)" opacity="0.79"/>
        <text x="0" y="5" text-anchor="middle" font-family="Arial, sans-serif" font-size="14" fill="#FFFFFF" opacity="0.79">441</text>
      </g>
      </g>
      </g>
      </g>
      </g>
      </g>
      </g>
  </g>
  <g transform="translate(986.0, 647.8)">
      <g transform="translate(-3.50,-2.85) rotate(4.91) scale(1.000)">
        <g transform="translate(-4.78,-1.90) rotate(10.00) scale(0.980)">
        <g transform="translate(-4.89,-0.77) rotate(14.66) scale(0.960)">
        <g transform="translate(-3.81,0.42) rotate(18.32) scale(0.940)">
        <g transform="translate(-1.79,1.58) rotate(20.45) scale(0.920)">
        <g transform="translate(0.67,2.59) rotate(20.62) scale(0.900)">
        <g transform="translate(2.96,3.38) rotate(18.53) scale(0.880)">
        <path d="M0.0,-68.6 L20.1,-27.7 L65.2,-21.2 L32.6,10.6 L40.3,55.5 L0.0,34.3 L-40.3,55.5 L-32.6,10.6 L-65.2,-21.2 L-20.1,-27.7Z" fill="url(#rgrad0)" filter="url(#blur0)" opacity="0.86"/>
      </g>
      </g>
      </g>
      </g>
      </g>
      </g>
      </g>
  </g>
  <g transform="translate(1219.3, 664.7)">
      <g transform="translate(-4.89,0.82) rotate(4.91) scale(1.000)">
        <g transform="translate(-3.81,1.94) rotate(10.00) scale(0.980)">
        <g transform="translate(-1.79,2.88) rotate(14.66) scale(0.960)">
        <g transform="translate(0.67,3.57) rotate(18.32) scale(0.940)" clip-path="url(#clipStar)">
        <g transform="translate(2.96,3.95) rotate(20.45) scale(0.920)">
        <g transform="translate(4.53,3.96) rotate(20.62) scale(0.900)">
        <g transform="translate(4.99,3.63) rotate(18.53) scale(0.880)">
        <rect x="-27.1" y="-27.1" width="54.3" height="54.3" rx="13.6" fill="url(#lgrad1)" filter="url(#shadow)" opacity="0.89"/>
        <circle cx="0" cy="0" r="18.1" fill="url(#rgrad2)" opacity="0.63"/>
      </g>
      </g>
      </g>
      </g>
      </g>
      </g>
      </g>
  </g>
  <g transform="translate(1448.0, 679.4)">
      <g transform="translate(-1.79,3.74) rotate(4.91) scale(1.000)">
        <g transform="translate(0.67,3.99) rotate(10.00) scale(0.980)">
        <g transform="translate(2.96,3.89) rotate(14.66) scale(0.960)">
        <g transform="translate(4.53,3.44) rotate(18.32) scale(0.940)">
        <g transform="translate(4.99,2.69) rotate(20.45) scale(0.920)">
        <g transform="translate(4.23,1.69) rotate(20.62) scale(0.900)" mask="url(#maskStripes)">
        <g transform="translate(2.43,0.54) rotate(18.53) scale(0.880)">
        <path d="M23.5,13.6 L0.0,27.1 L-23.5,13.6 L-23.5,-13.6 L-0.0,-27.1 L23.5,-13.6Z" fill="url(#rgrad2)" filter="url(#blur2)" opacity="0.90"/>
        <ellipse cx="0" cy="0" rx="11.3" ry="7.5" fill="#FFFFFF" opacity="0.45"/>
      </g>
      </g>
      </g>
      </g>
      </g>
      </g>
      </g>
  </g>
  <g transform="translate(1669.7, 685.0)">
      <g transform="translate(2.96,3.22) rotate(4.91) scale(1.000)">
        <g transform="translate(4.53,2.38) rotate(10.00) scale(0.980)">
        <g transform="translate(4.99,1.32) rotate(14.66) scale(0.960)">
        <g transform="translate(4.23,0.14) rotate(18.32) scale(0.940)">
        <g transform="translate(2.43,-1.04) rotate(20.45) scale(0.920)">
        <g transform="translate(0.03,-2.14) rotate(20.62) scale(0.900)">
        <g transform="translate(-2.37,-3.04) rotate(18.53) scale(0.880)">
        <circle cx="0" cy="0" r="24.9" fill="url(#rgrad3)" filter="url(#shadow)" opacity="0.86"/>
        <text x="0" y="5" text-anchor="middle" font-family="Arial, sans-serif" font-size="14" fill="#FFFFFF" opacity="0.86">441</text>
      </g>
      </g>
      </g>
      </g>
      </g>
      </g>
      </g>
  </g>
  <g transform="translate(124.2, 958.8)">
      <g transform="translate(4.99,-0.26) rotate(4.91) scale(1.000)">
        <g transform="translate(4.23,-1.42) rotate(10.00) scale(0.980)">
        <g transform="translate(2.43,-2.46) rotate(14.66) scale(0.960)">
        <g transform="translate(0.03,-3.29) rotate(18.32) scale(0.940)" clip-path="url(#clipDynamic)">
        <g transform="translate(-2.37,-3.81) rotate(20.45) scale(0.920)">
        <g transform="translate(-4.19,-4.00) rotate(20.62) scale(0.900)">
        <g transform="translate(-4.98,-3.83) rotate(18.53) scale(0.880)">
        <path d="M0.0,-63.7 L18.7,-25.8 L60.6,-19.7 L30.3,9.8 L37.5,51.6 L0.0,31.9 L-37.5,51.6 L-30.3,9.8 L-60.6,-19.7 L-18.7,-25.8Z" fill="url(#lgrad4)" filter="url(#blur4)" opacity="0.80"/>
      </g>
      </g>
      </g>
      </g>
      </g>
      </g>
      </g>
  </g>
  <g transform="translate(336.6, 225.5)" mask="url(#maskGradient)">
    <ellipse cx="0" cy="0" rx="200" ry="150" fill="url(#rgrad0)" filter="url(#blur3)" opacity="0.3"/>
  </g>
  <g transform="translate(741.4, 224.2)" mask="url(#maskCircleFade)">
    <ellipse cx="0" cy="0" rx="200" ry="150" fill="url(#rgrad1)" filter="url(#blur3)" opacity="0.3"/>
  </g>
  <g transform="translate(1200.2, 258.5)" mask="url(#maskStripes)">
    <ellipse cx="0" cy="0" rx="200" ry="150" fill="url(#rgrad2)" filter="url(#blur3)" opacity="0.3"/>
  </g>
</svg>