<?xml version="1.0" encoding="UTF-8"?>
<svg xmlns="http://www.w3.org/2000/svg" viewBox="0 0 1920 1080" width="1920" height="1080">
  <defs>
    <filter id="blur0" x="-50%" y="-50%" width="200%" height="200%">
      <feGaussianBlur in="SourceGraphic" stdDeviation="1"/>
    </filter>
    <filter id="blur1" x="-50%" y="-50%" width="200%" height="200%">
      <feGaussianBlur in="SourceGraphic" stdDeviation="3"/>
    </filter>
    <filter id="blur2" x="-50%" y="-50%" width="200%" height="200%">
      <feGaussianBlur in="SourceGraphic" stdDeviation="5"/>
    </filter>
    <filter id="blur3" x="-50%" y="-50%" width="200%" height="200%">
      <feGaussianBlur in="SourceGraphic" stdDeviation="7"/>
    </filter>
    <filter id="blur4" x="-50%" y="-50%" width="200%" height="200%">
      <feGaussianBlur in="SourceGraphic" stdDeviation="9"/>
    </filter>
    <filter id="shadow" x="-50%" y="-50%" width="200%" height="200%">
      <feGaussianBlur in="SourceAlpha" stdDeviation="3" result="blur"/>
      <feOffset in="blur" dx="4" dy="4" result="offsetBlur"/>
      <feMerge>
        <feMergeNode in="offsetBlur"/>
        <feMergeNode in="SourceGraphic"/>
      </feMerge>
    </filter>
    <linearGradient id="lgrad0" x1="0%" y1="0%" x2="99.8%" y2="45.6%">
      <stop offset="0%" stop-color="#FF6B6B"/>
      <stop offset="33%" stop-color="#4ECDC4"/>
      <stop offset="66%" stop-color="#45B7D1"/>
      <stop offset="100%" stop-color="#96E6A1"/>
    </linearGradient>
    <linearGradient id="lgrad1" x1="0%" y1="0%" x2="95.3%" y2="71.1%">
      <stop offset="0%" stop-color="#FFE66D"/>
      <stop offset="33%" stop-color="#FF6B6B"/>
      <stop offset="66%" stop-color="#C44D58"/>
      <stop offset="100%" stop-color="#8B0000"/>
    </linearGradient>
    <linearGradient id="lgrad2" x1="0%" y1="0%" x2="78.7%" y2="91.0%">
      <stop offset="0%" stop-color="#4169E1"/>
      <stop offset="33%" stop-color="#7B68EE"/>
      <stop offset="66%" stop-color="#9370DB"/>
      <stop offset="100%" stop-color="#FFD700"/>
    </linearGradient>
    <linearGradient id="lgrad3" x1="0%" y1="0%" x2="54.4%" y2="99.8%">
      <stop offset="0%" stop-color="#32CD32"/>
      <stop offset="33%" stop-color="#228B22"/>
      <stop offset="66%" stop-color="#006400"/>
      <stop offset="100%" stop-color="#ADFF2F"/>
    </linearGradient>
    <linearGradient id="lgrad4" x1="0%" y1="0%" x2="28.9%" y2="95.3%">
      <stop offset="0%" stop-color="#FF1493"/>
      <stop offset="33%" stop-color="#FF69B4"/>
      <stop offset="66%" stop-color="#FFB6C1"/>
      <stop offset="100%" stop-color="#FFC0CB"/>
    </linearGradient>
    <radialGradient id="rgrad0" cx="56.0%" cy="34.0%" r="60%">
      <stop offset="0%" stop-color="#FF6B6B" stop-opacity="1"/>
      <stop offset="50%" stop-color="#4ECDC4" stop-opacity="0.8"/>
      <stop offset="100%" stop-color="#45B7D1" stop-opacity="0.6"/>
    </radialGradient>
    <radialGradient id="rgrad1" cx="66.0%" cy="42.0%" r="60%">
      <stop offset="0%" stop-color="#FFE66D" stop-opacity="1"/>
      <stop offset="50%" stop-color="#FF6B6B" stop-opacity="0.8"/>
      <stop offset="100%" stop-color="#C44D58" stop-opacity="0.6"/>
    </radialGradient>
    <radialGradient id="rgrad2" cx="36.0%" cy="50.0%" r="60%">
      <stop offset="0%" stop-color="#4169E1" stop-opacity="1"/>
      <stop offset="50%" stop-color="#7B68EE" stop-opacity="0.8"/>
      <stop offset="100%" stop-color="#9370DB" stop-opacity="0.6"/>
    </radialGradient>
    <radialGradient id="rgrad3" cx="46.0%" cy="58.0%" r="60%">
      <stop offset="0%" stop-color="#32CD32" stop-opacity="1"/>
      <stop offset="50%" stop-color="#228B22" stop-opacity="0.8"/>
      <stop offset="100%" stop-color="#006400" stop-opacity="0.6"/>
    </radialGradient>
    <radialGradient id="rgrad4" cx="56.0%" cy="66.0%" r="60%">
      <stop offset="0%" stop-color="#FF1493" stop-opacity="1"/>
      <stop offset="50%" stop-color="#FF69B4" stop-opacity="0.8"/>
      <stop offset="100%" stop-color="#FFB6C1" stop-opacity="0.6"/>
    </radialGradient>
    <clipPath id="clipCircle">
      <circle cx="0" cy="0" r="50"/>
    </clipPath>
    <clipPath id="clipStar">
      <path d="M0.0,-50.0 L14.7,-20.2 L47.6,-15.5 L23.8,7.7 L29.4,40.5 L0.0,25.0 L-29.4,40.5 L-23.8,7.7 L-47.6,-15.5 L-14.7,-20.2Z"/>
    </clipPath>
    <clipPath id="clipHex">
      <path d="M39.0,22.5 L0.0,45.0 L-39.0,22.5 L-39.0,-22.5 L-0.0,-45.0 L39.0,-22.5Z"/>
    </clipPath>
    <clipPath id="clipRect">
      <rect x="-40" y="-30" width="80" height="60" rx="10"/>
    </clipPath>
    <clipPath id="clipDynamic">
      <circle cx="0" cy="0" r="24.8"/>
    </clipPath>
    <mask id="maskGradient" maskContentUnits="objectBoundingBox">
      <rect x="0" y="0" width="1" height="1" fill="url(#maskGrad)"/>
    </mask>
    <linearGradient id="maskGrad" x1="0%" y1="0%" x2="100%" y2="100%">
      <stop offset="0%" stop-color="white"/>
      <stop offset="100%" stop-color="black"/>
    </linearGradient>
    <mask id="maskCircleFade">
      <circle cx="0" cy="0" r="60" fill="white"/>
      <circle cx="0" cy="0" r="30" fill="black"/>
    </mask>
    <mask id="maskStripes">
      <rect x="-50" y="-50" width="100" height="100" fill="white"/>
      <rect x="-50" y="-40" width="100" height="10" fill="black"/>
      <rect x="-50" y="-20" width="100" height="10" fill="black"/>
      <rect x="-50" y="0" width="100" height="10" fill="black"/>
      <rect x="-50" y="20" width="100" height="10" fill="black"/>
      <rect x="-50" y="40" width="100" height="10" fill="black"/>
    </mask>
    <mask id="maskDynamic">
      <rect x="-60" y="-60" width="120" height="120" fill="white" fill-opacity="0.95"/>
      <circle cx="0" cy="0" r="25" fill="white"/>
    </mask>
  </defs>
  <rect width="1920" height="1080" fill="url(#lgrad0)"/>
  <g transform="translate(79.5, 81.7)">
      <g transform="translate(-3.41,-2.92) rotate(4.65) scale(1.000)">
        <g transform="translate(-4.75,-1.98) rotate(8.39) scale(0.980)">
        <g transform="translate(-4.92,-0.87) rotate(10.71) scale(0.960)">
        <g transform="translate(-3.89,0.32) rotate(11.21) scale(0.940)" clip-path="url(#clipCircle)">
        <g transform="translate(-1.90,1.49) rotate(9.62) scale(0.920)">
        <g transform="translate(0.55,2.52) rotate(5.81) scale(0.900)">
        <g transform="translate(2.86,3.32) rotate(-0.17) scale(0.880)">
        <path d="M0.0,-74.0 L21.7,-29.9 L70.3,-22.9 L35.2,11.4 L43.5,59.8 L0.0,37.0 L-43.5,59.8 L-35.2,11.4 L-70.3,-22.9 L-21.7,-29.9Z" fill="url(#lgrad0)" filter="url(#blur0)" opacity="0.87"/>
      </g>
      </g>
      </g>
      </g>
      </g>
      </g>
      </g>
  </g>
  <g transform="translate(291.5, 97.0)">
      <g transform="translate(-4.92,0.72) rotate(4.65) scale(1.000)">
        <g transform="translate(-3.89,1.85) rotate(8.39) scale(0.980)">
        <g transform="translate(-1.90,2.82) rotate(10.71) scale(0.960)">
        <g transform="translate(0.55,3.53) rotate(11.21) scale(0.940)">
        <g transform="translate(2.86,3.93) rotate(9.62) scale(0.920)">
        <g transform="translate(4.48,3.98) rotate(5.81) scale(0.900)" mask="url(#maskCircleFade)">
        <g transform="translate(5.00,3.67) rotate(-0.17) scale(0.880)">
        <rect x="-31.5" y="-31.5" width="62.9" height="62.9" rx="15.7" fill="url(#rgrad1)" filter="url(#shadow)" opacity="0.81"/>
        <circle cx="0" cy="0" r="21.0" fill="url(#rgrad2)" opacity="0.57"/>
      </g>
      </g>
      </g>
      </g>
      </g>
      </g>
      </g>
  </g>
  <g transform="translate(510.5, 113.7)">
      <g transform="translate(-1.90,3.70) rotate(4.65) scale(1.000)">
        <g transform="translate(0.55,3.98) rotate(8.39) scale(0.980)">
        <g transform="translate(2.86,3.91) rotate(10.71) scale(0.960)">
        <g transform="translate(4.48,3.49) rotate(11.21) scale(0.940)">
        <g transform="translate(5.00,2.76) rotate(9.62) scale(0.920)">
        <g transform="translate(4.29,1.78) rotate(5.81) scale(0.900)">
        <g transform="translate(2.53,0.64) rotate(-0.17) scale(0.880)">
        <path d="M25.6,14.8 L0.0,29.5 L-25.6,14.8 L-25.6,-14.8 L-0.0,-29.5 L25.6,-14.8Z" fill="url(#rgrad2)" filter="url(#blur2)" opacity="0.72"/>
        <ellipse cx="0" cy="0" rx="12.3" ry="8.2" fill="#FFFFFF" opacity="0.36"/>
      </g>
      </g>
      </g>
      </g>
      </g>
      </g>
      </g>
  </g>
  <g transform="translate(736.7, 124.0)">
      <g transform="translate(2.86,3.28) rotate(4.65) scale(1.000)">
        <g transform="translate(4.48,2.45) rotate(8.39) scale(0.980)">
        <g transform="translate(5.00,1.41) rotate(10.71) scale(0.960)">
        <g transform="translate(4.29,0.24) rotate(11.21) scale(0.940)" clip-path="url(#clipRect)">
        <g transform="translate(2.53,-0.95) rotate(9.62) scale(0.920)">
        <g transform="translate(0.16,-2.05) rotate(5.81) scale(0.900)">
        <g transform="translate(-2.26,-2.98) rotate(-0.17) scale(0.880)">
        <circle cx="0" cy="0" r="22.7" fill="url(#lgrad3)" filter="url(#shadow)" opacity="0.62"/>
        <text x="0" y="5" text-anchor="middle" font-family="Arial, sans-serif" font-size="14" fill="#FFFFFF" opacity="0.62">620</text>
      </g>
      </g>
      </g>
      </g>
      </g>
      </g>
      </g>
  </g>
  <g transform="translate(968.6, 122.9)">
      <g transform="translate(5.00,-0.16) rotate(4.65) scale(1.000)">
        <g transform="translate(4.29,-1.33) rotate(8.39) scale(0.980)">
        <g transform="translate(2.53,-2.39) rotate(10.71) scale(0.960)">
        <g transform="translate(0.16,-3.23) rotate(11.21) scale(0.940)">
        <g transform="translate(-2.26,-3.78) rotate(9.62) scale(0.920)">
        <g transform="translate(-4.12,-4.00) rotate(5.81) scale(0.900)" mask="url(#maskGradient)">
        <g transform="translate(-4.97,-3.86) rotate(-0.17) scale(0.880)">
        <path d="M0.0,-55.0 L16.2,-22.3 L52.4,-17.0 L26.2,8.5 L32.4,44.5 L0.0,27.5 L-32.4,44.5 L-26.2,8.5 L-52.4,-17.0 L-16.2,-22.3Z" fill="url(#rgrad4)" filter="url(#blur4)" opacity="0.50"/>
      </g>
      </g>
      </g>
      </g>
      </g>
      </g>
      </g>
  </g>
  <g transform="translate(1203.3, 111.1)">
      <g transform="translate(2.53,-3.45) rotate(4.65) scale(1.000)">
        <g transform="translate(0.16,-3.89) rotate(8.39) scale(0.980)">
        <g transform="translate(-2.26,-3.99) rotate(10.71) scale(0.960)">
        <g transform="translate(-4.12,-3.73) rotate(11.21) scale(0.940)">
        <g transform="translate(-4.97,-3.14) rotate(9.62) scale(0.920)">
        <g transform="translate(-4.61,-2.27) rotate(5.81) scale(0.900)">
        <g transform="translate(-3.12,-1.19) rotate(-0.17) scale(0.880)">
        <rect x="-34.6" y="-34.6" width="69.2" height="69.2" rx="17.3" fill="url(#rgrad0)" filter="url(#shadow)" opacity="0.38"/>
        <circle cx="0" cy="0" r="23.1" fill="url(#rgrad1)" opacity="0.27"/>
      </g>
      </g>
      </g>
      </g>
      </g>
      </g>
      </g>
  </g>
  <g transform="translate(1437.2, 94.1)">
      <g transform="translate(-2.26,-3.57) rotate(4.65) scale(1.000)">
        <g transform="translate(-4.12,-2.88) rotate(8.39) scale(0.980)">
        <g transform="translate(-4.97,-1.93) rotate(10.71) scale(0.960)">
        <g transform="translate(-4.61,-0.80) rotate(11.21) scale(0.940)" clip-path="url(#clipStar)">
        <g transform="translate(-3.12,0.39) rotate(9.62) scale(0.920)">
        <g transform="translate(-0.86,1.55) rotate(5.81) scale(0.900)">
        <g transform="translate(1.61,2.57) rotate(-0.17) scale(0.880)">
        <path d="M38.9,22.5 L0.0,45.0 L-38.9,22.5 L-38.9,-22.5 L-0.0,-45.0 L38.9,-22.5Z" fill="url(#lgrad1)" filter="url(#blur1)" opacity="0.27"/>
        <ellipse cx="0" cy="0" rx="18.7" ry="12.5" fill="#FFFFFF" opacity="0.14"/>
      </g>
      </g>
      </g>
      </g>
      </g>
      </g>
      </g>
  </g>
  <g transform="translate(1666.9, 79.8)">
      <g transform="translate(-4.97,-0.41) rotate(4.65) scale(1.000)">
        <g transform="translate(-4.61,0.79) rotate(8.39) scale(0.980)">
        <g transform="translate(-3.12,1.91) rotate(10.71) scale(0.960)">
        <g transform="translate(-0.86,2.86) rotate(11.21) scale(0.940)">
        <g transform="translate(1.61,3.56) rotate(9.62) scale(0.920)">
        <g transform="translate(3.68,3.94) rotate(5.81) scale(0.900)" mask="url(#maskDynamic)">
        <g transform="translate(4.85,3.97) rotate(-0.17) scale(0.880)">
        <circle cx="0" cy="0" r="33.5" fill="url(#rgrad2)" filter="url(#shadow)" opacity="0.19"/>
        <text x="0" y="5" text-anchor="middle" font-family="Arial, sans-serif" font-size="14" fill="#FFFFFF" opacity="0.19">620</text>
      </g>
      </g>
      </g>
      </g>
      </g>
      </g>
      </g>
  </g>
  <g transform="translate(130.0, 355.1)">
      <g transform="translate(-3.12,3.13) rotate(4.65) scale(1.000)">
        <g transform="translate(-0.86,3.72) rotate(8.39) scale(0.980)">
        <g transform="translate(1.61,3.99) rotate(10.71) scale(0.960)">
        <g transform="translate(3.68,3.90) rotate(11.21) scale(0.940)">
        <g transform="translate(4.85,3.46) rotate(9.62) scale(0.920)">
        <g transform="translate(4.84,2.71) rotate(5.81) scale(0.900)">
        <g transform="translate(3.64,1.72) rotate(-0.17) scale(0.880)">
        <path d="M0.0,-52.5 L15.4,-21.2 L50.0,-16.2 L25.0,8.1 L30.9,42.5 L0.0,26.3 L-30.9,42.5 L-25.0,8.1 L-50.0,-16.2 L-15.4,-21.2Z" fill="url(#rgrad3)" filter="url(#blur3)" opacity="0.13"/>
      </g>
      </g>
      </g>
      </g>
      </g>
      </g>
      </g>
  </g>
  <g transform="translate(345.7, 362.0)">
      <g transform="translate(1.61,3.79) rotate(4.65) scale(1.000)">
        <g transform="translate(3.68,3.24) rotate(8.39) scale(0.980)">
        <g transform="translate(4.85,2.40) rotate(10.71) scale(0.960)">
        <g transform="translate(4.84,1.35) rotate(11.21) scale(0.940)" clip-path="url(#clipDynamic)">
        <g transform="translate(3.64,0.18) rotate(9.62) scale(0.920)">
        <g transform="translate(1.55,-1.01) rotate(5.81) scale(0.900)">
        <g transform="translate(-0.92,-2.11) rotate(-0.17) scale(0.880)">
        <rect x="-22.5" y="-22.5" width="45.0" height="45.0" rx="11.3" fill="url(#lgrad4)" filter="url(#shadow)" opacity="0.10"/>
        <circle cx="0" cy="0" r="15.0" fill="url(#rgrad0)" opacity="0.07"/>
      </g>
      </g>
      </g>
      </g>
      </g>
      </g>
      </g>
  </g>
  <g transform="translate(555.2, 377.4)">
      <g transform="translate(4.85,0.97) rotate(4.65) scale(1.000)">
        <g transform="translate(4.84,-0.22) rotate(8.39) scale(0.980)">
        <g transform="translate(3.64,-1.39) rotate(10.71) scale(0.960)">
        <g transform="translate(1.55,-2.44) rotate(11.21) scale(0.940)">
        <g transform="translate(-0.92,-3.27) rotate(9.62) scale(0.920)">
        <g transform="translate(-3.16,-3.80) rotate(5.81) scale(0.900)" mask="url(#maskStripes)">
        <g transform="translate(-4.63,-4.00) rotate(-0.17) scale(0.880)">
        <path d="M26.6,15.4 L0.0,30.8 L-26.6,15.4 L-26.6,-15.4 L-0.0,-30.8 L26.6,-15.4Z" fill="url(#rgrad0)" filter="url(#blur0)" opacity="0.11"/>
        <ellipse cx="0" cy="0" rx="12.8" ry="8.5" fill="#FFFFFF" opacity="0.06"/>
      </g>
      </g>
      </g>
      </g>
      </g>
      </g>
      </g>
  </g>
  <g transform="translate(760.9, 394.1)">
      <g transform="translate(3.64,-2.74) rotate(4.65) scale(1.000)">
        <g transform="translate(1.55,-3.48) rotate(8.39) scale(0.980)">
        <g transform="translate(-0.92,-3.91) rotate(10.71) scale(0.960)">
        <g transform="translate(-3.16,-3.99) rotate(11.21) scale(0.940)">
        <g transform="translate(-4.63,-3.71) rotate(9.62) scale(0.920)">
        <g transform="translate(-4.97,-3.10) rotate(5.81) scale(0.900)">
        <g transform="translate(-4.09,-2.21) rotate(-0.17) scale(0.880)">
        <circle cx="0" cy="0" r="32.8" fill="url(#rgrad1)" filter="url(#shadow)" opacity="0.16"/>
        <text x="0" y="5" text-anchor="middle" font-family="Arial, sans-serif" font-size="14" fill="#FFFFFF" opacity="0.16">620</text>
      </g>
      </g>
      </g>
      </g>
      </g>
      </g>
      </g>
  </g>
  <g transform="translate(966.5, 404.1)">
      <g transform="translate(-0.92,-3.93) rotate(4.65) scale(1.000)">
        <g transform="translate(-3.16,-3.54) rotate(8.39) scale(0.980)">
        <g transform="translate(-4.63,-2.83) rotate(10.71) scale(0.960)">
        <g transform="translate(-4.97,-1.87) rotate(11.21) scale(0.940)" clip-path="url(#clipHex)">
        <g transform="translate(-4.09,-0.74) rotate(9.62) scale(0.920)">
        <g transform="translate(-2.20,0.46) rotate(5.81) scale(0.900)">
        <g transform="translate(0.22,1.61) rotate(-0.17) scale(0.880)">
        <path d="M0.0,-74.7 L22.0,-30.2 L71.1,-23.1 L35.5,11.5 L43.9,60.5 L0.0,37.4 L-43.9,60.5 L-35.5,11.5 L-71.1,-23.1 L-22.0,-30.2Z" fill="url(#lgrad2)" filter="url(#blur2)" opacity="0.23"/>
      </g>
      </g>
      </g>
      </g>
      </g>
      </g>
      </g>
  </g>
  <g transform="translate(1175.3, 402.8)">
      <g transform="translate(-4.63,-1.50) rotate(4.65) scale(1.000)">
        <g transform="translate(-4.97,-0.34) rotate(8.39) scale(0.980)">
        <g transform="translate(-4.09,0.85) rotate(10.71) scale(0.960)">
        <g transform="translate(-2.20,1.97) rotate(11.21) scale(0.940)">
        <g transform="translate(0.22,2.91) rotate(9.62) scale(0.920)">
        <g transform="translate(2.59,3.59) rotate(5.81) scale(0.900)" mask="url(#maskCircleFade)">
        <g transform="translate(4.32,3.95) rotate(-0.17) scale(0.880)">
        <rect x="-35.2" y="-35.2" width="70.3" height="70.3" rx="17.6" fill="url(#rgrad3)" filter="url(#shadow)" opacity="0.33"/>
        <circle cx="0" cy="0" r="23.4" fill="url(#rgrad4)" opacity="0.23"/>
      </g>
      </g>
      </g>
      </g>
      </g>
      </g>
      </g>
  </g>
  <g transform="translate(1390.2, 390.7)">
      <g transform="translate(-4.09,2.31) rotate(4.65) scale(1.000)">
        <g transform="translate(-2.20,3.17) rotate(8.39) scale(0.980)">
        <g transform="translate(0.22,3.75) rotate(10.71) scale(0.960)">
        <g transform="translate(2.59,3.99) rotate(11.21) scale(0.940)">
        <g transform="translate(4.32,3.88) rotate(9.62) scale(0.920)">
        <g transform="translate(5.00,3.42) rotate(5.81) scale(0.900)">
        <g transform="translate(4.45,2.66) rotate(-0.17) scale(0.880)">
        <path d="M29.3,16.9 L0.0,33.9 L-29.3,16.9 L-29.3,-16.9 L-0.0,-33.9 L29.3,-16.9Z" fill="url(#rgrad4)" filter="url(#blur4)" opacity="0.45"/>
        <ellipse cx="0" cy="0" rx="14.1" ry="9.4" fill="#FFFFFF" opacity="0.22"/>
      </g>
      </g>
      </g>
      </g>
      </g>
      </g>
      </g>
  </g>
  <g transform="translate(1612.3, 373.7)">
      <g transform="translate(0.22,4.00) rotate(4.65) scale(1.000)">
        <g transform="translate(2.59,3.77) rotate(8.39) scale(0.980)">
        <g transform="translate(4.32,3.20) rotate(10.71) scale(0.960)">
        <g transform="translate(5.00,2.35) rotate(11.21) scale(0.940)" clip-path="url(#clipCircle)">
        <g transform="translate(4.45,1.29) rotate(9.62) scale(0.920)">
        <g transform="translate(2.81,0.11) rotate(5.81) scale(0.900)">
        <g transform="translate(0.49,-1.08) rotate(-0.17) scale(0.880)">
        <circle cx="0" cy="0" r="22.9" fill="url(#lgrad0)" filter="url(#shadow)" opacity="0.57"/>
        <text x="0" y="5" text-anchor="middle" font-family="Arial, sans-serif" font-size="14" fill="#FFFFFF" opacity="0.57">620</text>
      </g>
      </g>
      </g>
      </g>
      </g>
      </g>
      </g>
  </g>
  <g transform="translate(81.3, 639.6)">
      <g transform="translate(4.32,2.01) rotate(4.65) scale(1.000)">
        <g transform="translate(5.00,0.90) rotate(8.39) scale(0.980)">
        <g transform="translate(4.45,-0.29) rotate(10.71) scale(0.960)">
        <g transform="translate(2.81,-1.46) rotate(11.21) scale(0.940)">
        <g transform="translate(0.49,-2.49) rotate(9.62) scale(0.920)">
        <g transform="translate(-1.96,-3.31) rotate(5.81) scale(0.900)" mask="url(#maskGradient)">
        <g transform="translate(-3.92,-3.82) rotate(-0.17) scale(0.880)">
        <path d="M0.0,-48.2 L14.2,-19.5 L45.9,-14.9 L22.9,7.5 L28.3,39.0 L0.0,24.1 L-28.3,39.0 L-22.9,7.5 L-45.9,-14.9 L-14.2,-19.5Z" fill="url(#rgrad1)" filter="url(#blur1)" opacity="0.68"/>
      </g>
      </g>
      </g>
      </g>
      </g>
      </g>
      </g>
  </g>
  <g transform="translate(314.8, 635.1)">
      <g transform="translate(4.45,-1.82) rotate(4.65) scale(1.000)">
        <g transform="translate(2.81,-2.79) rotate(8.39) scale(0.980)">
        <g transform="translate(0.49,-3.51) rotate(10.71) scale(0.960)">
        <g transform="translate(-1.96,-3.92) rotate(11.21) scale(0.940)">
        <g transform="translate(-3.92,-3.98) rotate(9.62) scale(0.920)">
        <g transform="translate(-4.93,-3.68) rotate(5.81) scale(0.900)">
        <g transform="translate(-4.73,-3.05) rotate(-0.17) scale(0.880)">
        <rect x="-30.7" y="-30.7" width="61.5" height="61.5" rx="15.4" fill="url(#rgrad2)" filter="url(#shadow)" opacity="0.78"/>
        <circle cx="0" cy="0" r="20.5" fill="url(#rgrad3)" opacity="0.54"/>
      </g>
      </g>
      </g>
      </g>
      </g>
      </g>
      </g>
  </g>
  <g transform="translate(549.6, 642.3)">
      <g transform="translate(0.49,-3.98) rotate(4.65) scale(1.000)">
        <g transform="translate(-1.96,-3.92) rotate(8.39) scale(0.980)">
        <g transform="translate(-3.92,-3.51) rotate(10.71) scale(0.960)">
        <g transform="translate(-4.93,-2.78) rotate(11.21) scale(0.940)" clip-path="url(#clipRect)">
        <g transform="translate(-4.73,-1.81) rotate(9.62) scale(0.920)">
        <g transform="translate(-3.37,-0.67) rotate(5.81) scale(0.900)">
        <g transform="translate(-1.19,0.52) rotate(-0.17) scale(0.880)">
        <path d="M38.1,22.0 L0.0,44.0 L-38.1,22.0 L-38.1,-22.0 L-0.0,-44.0 L38.1,-22.0Z" fill="url(#lgrad3)" filter="url(#blur3)" opacity="0.85"/>
        <ellipse cx="0" cy="0" rx="18.3" ry="12.2" fill="#FFFFFF" opacity="0.42"/>
      </g>
      </g>
      </g>
      </g>
      </g>
      </g>
      </g>
  </g>
  <g transform="translate(782.1, 657.9)">
      <g transform="translate(-3.92,-2.48) rotate(4.65) scale(1.000)">
        <g transform="translate(-4.93,-1.44) rotate(8.39) scale(0.980)">
        <g transform="translate(-4.73,-0.27) rotate(10.71) scale(0.960)">
        <g transform="translate(-3.37,0.92) rotate(11.21) scale(0.940)">
        <g transform="translate(-1.19,2.03) rotate(9.62) scale(0.920)">
        <g transform="translate(1.29,2.96) rotate(5.81) scale(0.900)" mask="url(#maskDynamic)">
        <g transform="translate(3.45,3.62) rotate(-0.17) scale(0.880)">
        <circle cx="0" cy="0" r="36.5" fill="url(#rgrad4)" filter="url(#shadow)" opacity="0.89"/>
        <text x="0" y="5" text-anchor="middle" font-family="Arial, sans-serif" font-size="14" fill="#FFFFFF" opacity="0.89">620</text>
      </g>
      </g>
      </g>
      </g>
      </g>
      </g>
      </g>
  </g>
  <g transform="translate(1009.1, 674.4)">
      <g transform="translate(-4.73,1.30) rotate(4.65) scale(1.000)">
        <g transform="translate(-3.37,2.36) rotate(8.39) scale(0.980)">
        <g transform="translate(-1.19,3.21) rotate(10.71) scale(0.960)">
        <g transform="translate(1.29,3.77) rotate(11.21) scale(0.940)">
        <g transform="translate(3.45,4.00) rotate(9.62) scale(0.920)">
        <g transform="translate(4.76,3.87) rotate(5.81) scale(0.900)">
        <g transform="translate(4.91,3.39) rotate(-0.17) scale(0.880)">
        <path d="M0.0,-60.7 L17.8,-24.5 L57.7,-18.7 L28.8,9.4 L35.7,49.1 L0.0,30.3 L-35.7,49.1 L-28.8,9.4 L-57.7,-18.7 L-17.8,-24.5Z" fill="url(#rgrad0)" filter="url(#blur0)" opacity="0.90"/>
      </g>
      </g>
      </g>
      </g>
      </g>
      </g>
      </g>
  </g>
  <g transform="translate(1229.0, 684.2)">
      <g transform="translate(-1.19,3.89) rotate(4.65) scale(1.000)">
        <g transform="translate(1.29,3.99) rotate(8.39) scale(0.980)">
        <g transform="translate(3.45,3.74) rotate(10.71) scale(0.960)">
        <g transform="translate(4.76,3.16) rotate(11.21) scale(0.940)" clip-path="url(#clipStar)">
        <g transform="translate(4.91,2.29) rotate(9.62) scale(0.920)">
        <g transform="translate(3.86,1.22) rotate(5.81) scale(0.900)">
        <g transform="translate(1.86,0.04) rotate(-0.17) scale(0.880)">
        <rect x="-23.9" y="-23.9" width="47.8" height="47.8" rx="11.9" fill="url(#lgrad1)" filter="url(#shadow)" opacity="0.87"/>
        <circle cx="0" cy="0" r="15.9" fill="url(#rgrad2)" opacity="0.61"/>
      </g>
      </g>
      </g>
      </g>
      </g>
      </g>
      </g>
  </g>
  <g transform="translate(1441.8, 682.6)">
      <g transform="translate(3.45,2.90) rotate(4.65) scale(1.000)">
        <g transform="translate(4.76,1.95) rotate(8.39) scale(0.980)">
        <g transform="translate(4.91,0.84) rotate(10.71) scale(0.960)">
        <g transform="translate(3.86,-0.36) rotate(11.21) scale(0.940)">
        <g transform="translate(1.86,-1.52) rotate(9.62) scale(0.920)">
        <g transform="translate(-0.59,-2.55) rotate(5.81) scale(0.900)" mask="url(#maskStripes)">
        <g transform="translate(-2.90,-3.34) rotate(-0.17) scale(0.880)">
        <path d="M24.0,13.8 L0.0,27.7 L-24.0,13.8 L-24.0,-13.8 L-0.0,-27.7 L24.0,-13.8Z" fill="url(#rgrad2)" filter="url(#blur2)" opacity="0.81"/>
        <ellipse cx="0" cy="0" rx="11.5" ry="7.7" fill="#FFFFFF" opacity="0.40"/>
      </g>
      </g>
      </g>
      </g>
      </g>
      </g>
      </g>
  </g>
  <g transform="translate(1649.3, 670.4)">
      <g transform="translate(4.91,-0.75) rotate(4.65) scale(1.000)">
        <g transform="translate(3.86,-1.88) rotate(8.39) scale(0.980)">
        <g transform="translate(1.86,-2.84) rotate(10.71) scale(0.960)">
        <g transform="translate(-0.59,-3.55) rotate(11.21) scale(0.940)">
        <g transform="translate(-2.90,-3.93) rotate(9.62) scale(0.920)">
        <g transform="translate(-4.50,-3.97) rotate(5.81) scale(0.900)">
        <g transform="translate(-4.99,-3.65) rotate(-0.17) scale(0.880)">
        <circle cx="0" cy="0" r="28.6" fill="url(#rgrad3)" filter="url(#shadow)" opacity="0.72"/>
        <text x="0" y="5" text-anchor="middle" font-family="Arial, sans-serif" font-size="14" fill="#FFFFFF" opacity="0.72">620</text>
      </g>
      </g>
      </g>
      </g>
      </g>
      </g>
      </g>
  </g>
  <g transform="translate(94.5, 933.3)">
      <g transform="translate(1.86,-3.71) rotate(4.65) scale(1.000)">
        <g transform="translate(-0.59,-3.99) rotate(8.39) scale(0.980)">
        <g transform="translate(-2.90,-3.90) rotate(10.71) scale(0.960)">
        <g transform="translate(-4.50,-3.47) rotate(11.21) scale(0.940)" clip-path="url(#clipDynamic)">
        <g transform="translate(-4.99,-2.73) rotate(9.62) scale(0.920)">
        <g transform="translate(-4.27,-1.75) rotate(5.81) scale(0.900)">
        <g transform="translate(-2.50,-0.61) rotate(-0.17) scale(0.880)">
        <path d="M0.0,-70.9 L20.8,-28.7 L67.4,-21.9 L33.7,11.0 L41.7,57.4 L0.0,35.5 L-41.7,57.4 L-33.7,11.0 L-67.4,-21.9 L-20.8,-28.7Z" fill="url(#lgrad4)" filter="url(#blur4)" opacity="0.61"/>
      </g>
      </g>
      </g>
      </g>
      </g>
      </g>
      </g>
  </g>
  <g transform="translate(231.7, 241.6)" mask="url(#maskGradient)">
    <ellipse cx="0" cy="0" rx="200" ry="150" fill="url(#rgrad0)" filter="url(#blur3)" opacity="0.3"/>
  </g>
  <g transform="translate(701.6, 290.5)" mask="url(#maskCircleFade)">
    <ellipse cx="0" cy="0" rx="200" ry="150" fill="url(#rgrad1)" filter="url(#blur3)" opacity="0.3"/>
  </g>
  <g transform="translate(1262.0, 343.9)" mask="url(#maskStripes)">
    <ellipse cx="0" cy="0" rx="200" ry="150" fill="url(#rgrad2)" filter="url(#blur3)" opacity="0.3"/>
  </g>
</svg>