<?xml version="1.0" encoding="UTF-8"?>
<svg xmlns="http://www.w3.org/2000/svg" viewBox="0 0 1920 1080" width="1920" height="1080">
  <defs>
    <filter id="blur0" x="-50%" y="-50%" width="200%" height="200%">
      <feGaussianBlur in="SourceGraphic" stdDeviation="1"/>
    </filter>
    <filter id="blur1" x="-50%" y="-50%" width="200%" height="200%">
      <feGaussianBlur in="SourceGraphic" stdDeviation="3"/>
    </filter>
    <filter id="blur2" x="-50%" y="-50%" width="200%" height="200%">
      <feGaussianBlur in="SourceGraphic" stdDeviation="5"/>
    </filter>
    <filter id="blur3" x="-50%" y="-50%" width="200%" height="200%">
      <feGaussianBlur in="SourceGraphic" stdDeviation="7"/>
    </filter>
    <filter id="blur4" x="-50%" y="-50%" width="200%" height="200%">
      <feGaussianBlur in="SourceGraphic" stdDeviation="9"/>
    </filter>
    <filter id="shadow" x="-50%" y="-50%" width="200%" height="200%">
      <feGaussianBlur in="SourceAlpha" stdDeviation="3" result="blur"/>
      <feOffset in="blur" dx="4" dy="4" result="offsetBlur"/>
      <feMerge>
        <feMergeNode in="offsetBlur"/>
        <feMergeNode in="SourceGraphic"/>
      </feMerge>
    </filter>
    <linearGradient id="lgrad0" x1="0%" y1="0%" x2="12.3%" y2="82.8%">
      <stop offset="0%" stop-color="#FF6B6B"/>
      <stop offset="33%" stop-color="#4ECDC4"/>
      <stop offset="66%" stop-color="#45B7D1"/>
      <stop offset="100%" stop-color="#96E6A1"/>
    </linearGradient>
    <linearGradient id="lgrad1" x1="0%" y1="0%" x2="0.9%" y2="59.5%">
      <stop offset="0%" stop-color="#FFE66D"/>
      <stop offset="33%" stop-color="#FF6B6B"/>
      <stop offset="66%" stop-color="#C44D58"/>
      <stop offset="100%" stop-color="#8B0000"/>
    </linearGradient>
    <linearGradient id="lgrad2" x1="0%" y1="0%" x2="2.7%" y2="33.7%">
      <stop offset="0%" stop-color="#4169E1"/>
      <stop offset="33%" stop-color="#7B68EE"/>
      <stop offset="66%" stop-color="#9370DB"/>
      <stop offset="100%" stop-color="#FFD700"/>
    </linearGradient>
    <linearGradient id="lgrad3" x1="0%" y1="0%" x2="17.2%" y2="12.3%">
      <stop offset="0%" stop-color="#32CD32"/>
      <stop offset="33%" stop-color="#228B22"/>
      <stop offset="66%" stop-color="#006400"/>
      <stop offset="100%" stop-color="#ADFF2F"/>
    </linearGradient>
    <linearGradient id="lgrad4" x1="0%" y1="0%" x2="40.5%" y2="0.9%">
      <stop offset="0%" stop-color="#FF1493"/>
      <stop offset="33%" stop-color="#FF69B4"/>
      <stop offset="66%" stop-color="#FFB6C1"/>
      <stop offset="100%" stop-color="#FFC0CB"/>
    </linearGradient>
    <radialGradient id="rgrad0" cx="46.4%" cy="67.6%" r="60%">
      <stop offset="0%" stop-color="#FF6B6B" stop-opacity="1"/>
      <stop offset="50%" stop-color="#4ECDC4" stop-opacity="0.8"/>
      <stop offset="100%" stop-color="#45B7D1" stop-opacity="0.6"/>
    </radialGradient>
    <radialGradient id="rgrad1" cx="56.4%" cy="35.6%" r="60%">
      <stop offset="0%" stop-color="#FFE66D" stop-opacity="1"/>
      <stop offset="50%" stop-color="#FF6B6B" stop-opacity="0.8"/>
      <stop offset="100%" stop-color="#C44D58" stop-opacity="0.6"/>
    </radialGradient>
    <radialGradient id="rgrad2" cx="66.4%" cy="43.6%" r="60%">
      <stop offset="0%" stop-color="#4169E1" stop-opacity="1"/>
      <stop offset="50%" stop-color="#7B68EE" stop-opacity="0.8"/>
      <stop offset="100%" stop-color="#9370DB" stop-opacity="0.6"/>
    </radialGradient>
    <radialGradient id="rgrad3" cx="36.4%" cy="51.6%" r="60%">
      <stop offset="0%" stop-color="#32CD32" stop-opacity="1"/>
      <stop offset="50%" stop-color="#228B22" stop-opacity="0.8"/>
      <stop offset="100%" stop-color="#006400" stop-opacity="0.6"/>
    </radialGradient>
    <radialGradient id="rgrad4" cx="46.4%" cy="59.6%" r="60%">
      <stop offset="0%" stop-color="#FF1493" stop-opacity="1"/>
      <stop offset="50%" stop-color="#FF69B4" stop-opacity="0.8"/>
      <stop offset="100%" stop-color="#FFB6C1" stop-opacity="0.6"/>
    </radialGradient>
    <clipPath id="clipCircle">
      <circle cx="0" cy="0" r="50"/>
    </clipPath>
    <clipPath id="clipStar">
      <path d="M0.0,-50.0 L14.7,-20.2 L47.6,-15.5 L23.8,7.7 L29.4,40.5 L0.0,25.0 L-29.4,40.5 L-23.8,7.7 L-47.6,-15.5 L-14.7,-20.2Z"/>
    </clipPath>
    <clipPath id="clipHex">
      <path d="M39.0,22.5 L0.0,45.0 L-39.0,22.5 L-39.0,-22.5 L-0.0,-45.0 L39.0,-22.5Z"/>
    </clipPath>
    <clipPath id="clipRect">
      <rect x="-40" y="-30" width="80" height="60" rx="10"/>
    </clipPath>
    <clipPath id="clipDynamic">
      <circle cx="0" cy="0" r="48.8"/>
    </clipPath>
    <mask id="maskGradient" maskContentUnits="objectBoundingBox">
      <rect x="0" y="0" width="1" height="1" fill="url(#maskGrad)"/>
    </mask>
    <linearGradient id="maskGrad" x1="0%" y1="0%" x2="100%" y2="100%">
      <stop offset="0%" stop-color="white"/>
      <stop offset="100%" stop-color="black"/>
    </linearGradient>
    <mask id="maskCircleFade">
      <circle cx="0" cy="0" r="60" fill="white"/>
      <circle cx="0" cy="0" r="30" fill="black"/>
    </mask>
    <mask id="maskStripes">
      <rect x="-50" y="-50" width="100" height="100" fill="white"/>
      <rect x="-50" y="-40" width="100" height="10" fill="black"/>
      <rect x="-50" y="-20" width="100" height="10" fill="black"/>
      <rect x="-50" y="0" width="100" height="10" fill="black"/>
      <rect x="-50" y="20" width="100" height="10" fill="black"/>
      <rect x="-50" y="40" width="100" height="10" fill="black"/>
    </mask>
    <mask id="maskDynamic">
      <rect x="-60" y="-60" width="120" height="120" fill="white" fill-opacity="0.69"/>
      <circle cx="0" cy="0" r="25" fill="white"/>
    </mask>
  </defs>
  <rect width="1920" height="1080" fill="url(#lgrad0)"/>
  <g transform="translate(127.7, 109.6)">
      <g transform="translate(4.62,1.54) rotate(2.77) scale(1.000)">
        <g transform="translate(4.97,0.38) rotate(7.09) scale(0.980)">
        <g transform="translate(4.11,-0.82) rotate(12.52) scale(0.960)">
        <g transform="translate(2.24,-1.94) rotate(18.55) scale(0.940)" clip-path="url(#clipCircle)">
        <g transform="translate(-0.17,-2.88) rotate(24.58) scale(0.920)">
        <g transform="translate(-2.55,-3.57) rotate(30.00) scale(0.900)">
        <g transform="translate(-4.30,-3.95) rotate(34.18) scale(0.880)">
        <path d="M0.0,-68.3 L20.1,-27.6 L65.0,-21.1 L32.5,10.6 L40.2,55.3 L0.0,34.2 L-40.2,55.3 L-32.5,10.6 L-65.0,-21.1 L-20.1,-27.6Z" fill="url(#lgrad0)" filter="url(#blur0)" opacity="0.72"/>
      </g>
      </g>
      </g>
      </g>
      </g>
      </g>
      </g>
  </g>
  <g transform="translate(349.8, 92.5)">
      <g transform="translate(4.11,-2.28) rotate(2.77) scale(1.000)">
        <g transform="translate(2.24,-3.15) rotate(7.09) scale(0.980)">
        <g transform="translate(-0.17,-3.74) rotate(12.52) scale(0.960)">
        <g transform="translate(-2.55,-3.99) rotate(18.55) scale(0.940)">
        <g transform="translate(-4.30,-3.89) rotate(24.58) scale(0.920)">
        <g transform="translate(-5.00,-3.44) rotate(30.00) scale(0.900)" mask="url(#maskCircleFade)">
        <g transform="translate(-4.47,-2.69) rotate(34.18) scale(0.880)">
        <rect x="-37.5" y="-37.5" width="75.0" height="75.0" rx="18.7" fill="url(#rgrad1)" filter="url(#shadow)" opacity="0.81"/>
        <circle cx="0" cy="0" r="25.0" fill="url(#rgrad2)" opacity="0.57"/>
      </g>
      </g>
      </g>
      </g>
      </g>
      </g>
      </g>
  </g>
  <g transform="translate(564.7, 78.9)">
      <g transform="translate(-0.17,-4.00) rotate(2.77) scale(1.000)">
        <g transform="translate(-2.55,-3.78) rotate(7.09) scale(0.980)">
        <g transform="translate(-4.30,-3.22) rotate(12.52) scale(0.960)">
        <g transform="translate(-5.00,-2.38) rotate(18.55) scale(0.940)">
        <g transform="translate(-4.47,-1.32) rotate(24.58) scale(0.920)">
        <g transform="translate(-2.85,-0.14) rotate(30.00) scale(0.900)">
        <g transform="translate(-0.53,1.04) rotate(34.18) scale(0.880)">
        <path d="M35.3,20.4 L0.0,40.7 L-35.3,20.4 L-35.3,-20.4 L-0.0,-40.7 L35.3,-20.4Z" fill="url(#rgrad2)" filter="url(#blur2)" opacity="0.87"/>
        <ellipse cx="0" cy="0" rx="17.0" ry="11.3" fill="#FFFFFF" opacity="0.44"/>
      </g>
      </g>
      </g>
      </g>
      </g>
      </g>
      </g>
  </g>
  <g transform="translate(773.5, 75.2)">
      <g transform="translate(-4.30,-2.04) rotate(2.77) scale(1.000)">
        <g transform="translate(-5.00,-0.94) rotate(7.09) scale(0.980)">
        <g transform="translate(-4.47,0.25) rotate(12.52) scale(0.960)">
        <g transform="translate(-2.85,1.42) rotate(18.55) scale(0.940)" clip-path="url(#clipRect)">
        <g transform="translate(-0.53,2.46) rotate(24.58) scale(0.920)">
        <g transform="translate(1.91,3.29) rotate(30.00) scale(0.900)">
        <g transform="translate(3.89,3.81) rotate(34.18) scale(0.880)">
        <circle cx="0" cy="0" r="26.8" fill="url(#lgrad3)" filter="url(#shadow)" opacity="0.90"/>
        <text x="0" y="5" text-anchor="middle" font-family="Arial, sans-serif" font-size="14" fill="#FFFFFF" opacity="0.90">188</text>
      </g>
      </g>
      </g>
      </g>
      </g>
      </g>
      </g>
  </g>
  <g transform="translate(979.0, 83.2)">
      <g transform="translate(-4.47,1.79) rotate(2.77) scale(1.000)">
        <g transform="translate(-2.85,2.77) rotate(7.09) scale(0.980)">
        <g transform="translate(-0.53,3.50) rotate(12.52) scale(0.960)">
        <g transform="translate(1.91,3.91) rotate(18.55) scale(0.940)">
        <g transform="translate(3.89,3.98) rotate(24.58) scale(0.920)">
        <g transform="translate(4.92,3.70) rotate(30.00) scale(0.900)" mask="url(#maskGradient)">
        <g transform="translate(4.74,3.08) rotate(34.18) scale(0.880)">
        <path d="M0.0,-45.1 L13.3,-18.2 L42.9,-13.9 L21.5,7.0 L26.5,36.5 L0.0,22.6 L-26.5,36.5 L-21.5,7.0 L-42.9,-13.9 L-13.3,-18.2Z" fill="url(#rgrad4)" filter="url(#blur4)" opacity="0.89"/>
      </g>
      </g>
      </g>
      </g>
      </g>
      </g>
      </g>
  </g>
  <g transform="translate(1184.7, 99.1)">
      <g transform="translate(-0.53,3.98) rotate(2.77) scale(1.000)">
        <g transform="translate(1.91,3.93) rotate(7.09) scale(0.980)">
        <g transform="translate(3.89,3.52) rotate(12.52) scale(0.960)">
        <g transform="translate(4.92,2.81) rotate(18.55) scale(0.940)">
        <g transform="translate(4.74,1.84) rotate(24.58) scale(0.920)">
        <g transform="translate(3.40,0.71) rotate(30.00) scale(0.900)">
        <g transform="translate(1.23,-0.49) rotate(34.18) scale(0.880)">
        <rect x="-25.2" y="-25.2" width="50.4" height="50.4" rx="12.6" fill="url(#rgrad0)" filter="url(#shadow)" opacity="0.85"/>
        <circle cx="0" cy="0" r="16.8" fill="url(#rgrad1)" opacity="0.59"/>
      </g>
      </g>
      </g>
      </g>
      </g>
      </g>
      </g>
  </g>
  <g transform="translate(1394.2, 115.4)">
      <g transform="translate(3.89,2.51) rotate(2.77) scale(1.000)">
        <g transform="translate(4.92,1.48) rotate(7.09) scale(0.980)">
        <g transform="translate(4.74,0.31) rotate(12.52) scale(0.960)">
        <g transform="translate(3.40,-0.88) rotate(18.55) scale(0.940)" clip-path="url(#clipStar)">
        <g transform="translate(1.23,-1.99) rotate(24.58) scale(0.920)">
        <g transform="translate(-1.24,-2.93) rotate(30.00) scale(0.900)">
        <g transform="translate(-3.41,-3.60) rotate(34.18) scale(0.880)">
        <path d="M33.5,19.4 L0.0,38.7 L-33.5,19.4 L-33.5,-19.4 L-0.0,-38.7 L33.5,-19.4Z" fill="url(#lgrad1)" filter="url(#blur1)" opacity="0.77"/>
        <ellipse cx="0" cy="0" rx="16.1" ry="10.8" fill="#FFFFFF" opacity="0.39"/>
      </g>
      </g>
      </g>
      </g>
      </g>
      </g>
      </g>
  </g>
  <g transform="translate(1610.0, 124.5)">
      <g transform="translate(4.74,-1.27) rotate(2.77) scale(1.000)">
        <g transform="translate(3.40,-2.33) rotate(7.09) scale(0.980)">
        <g transform="translate(1.23,-3.19) rotate(12.52) scale(0.960)">
        <g transform="translate(-1.24,-3.76) rotate(18.55) scale(0.940)">
        <g transform="translate(-3.41,-4.00) rotate(24.58) scale(0.920)">
        <g transform="translate(-4.75,-3.87) rotate(30.00) scale(0.900)" mask="url(#maskDynamic)">
        <g transform="translate(-4.92,-3.41) rotate(34.18) scale(0.880)">
        <circle cx="0" cy="0" r="37.2" fill="url(#rgrad2)" filter="url(#shadow)" opacity="0.68"/>
        <text x="0" y="5" text-anchor="middle" font-family="Arial, sans-serif" font-size="14" fill="#FFFFFF" opacity="0.68">188</text>
      </g>
      </g>
      </g>
      </g>
      </g>
      </g>
      </g>
  </g>
  <g transform="translate(73.2, 402.0)">
      <g transform="translate(1.23,-3.88) rotate(2.77) scale(1.000)">
        <g transform="translate(-1.24,-3.99) rotate(7.09) scale(0.980)">
        <g transform="translate(-3.41,-3.76) rotate(12.52) scale(0.960)">
        <g transform="translate(-4.75,-3.18) rotate(18.55) scale(0.940)">
        <g transform="translate(-4.92,-2.32) rotate(24.58) scale(0.920)">
        <g transform="translate(-3.89,-1.26) rotate(30.00) scale(0.900)">
        <g transform="translate(-1.90,-0.08) rotate(34.18) scale(0.880)">
        <path d="M0.0,-71.1 L20.9,-28.8 L67.7,-22.0 L33.8,11.0 L41.8,57.6 L0.0,35.6 L-41.8,57.6 L-33.8,11.0 L-67.7,-22.0 L-20.9,-28.8Z" fill="url(#rgrad3)" filter="url(#blur3)" opacity="0.56"/>
      </g>
      </g>
      </g>
      </g>
      </g>
      </g>
      </g>
  </g>
  <g transform="translate(302.9, 389.2)">
      <g transform="translate(-3.41,-2.92) rotate(2.77) scale(1.000)">
        <g transform="translate(-4.75,-1.99) rotate(7.09) scale(0.980)">
        <g transform="translate(-4.92,-0.87) rotate(12.52) scale(0.960)">
        <g transform="translate(-3.89,0.32) rotate(18.55) scale(0.940)" clip-path="url(#clipDynamic)">
        <g transform="translate(-1.90,1.49) rotate(24.58) scale(0.920)">
        <g transform="translate(0.55,2.52) rotate(30.00) scale(0.900)">
        <g transform="translate(2.86,3.32) rotate(34.18) scale(0.880)">
        <rect x="-28.8" y="-28.8" width="57.6" height="57.6" rx="14.4" fill="url(#lgrad4)" filter="url(#shadow)" opacity="0.44"/>
        <circle cx="0" cy="0" r="19.2" fill="url(#rgrad0)" opacity="0.31"/>
      </g>
      </g>
      </g>
      </g>
      </g>
      </g>
      </g>
  </g>
  <g transform="translate(536.8, 372.1)">
      <g transform="translate(-4.92,0.72) rotate(2.77) scale(1.000)">
        <g transform="translate(-3.89,1.85) rotate(7.09) scale(0.980)">
        <g transform="translate(-1.90,2.81) rotate(12.52) scale(0.960)">
        <g transform="translate(0.55,3.53) rotate(18.55) scale(0.940)">
        <g transform="translate(2.86,3.93) rotate(24.58) scale(0.920)">
        <g transform="translate(4.48,3.98) rotate(30.00) scale(0.900)" mask="url(#maskStripes)">
        <g transform="translate(5.00,3.67) rotate(34.18) scale(0.880)">
        <path d="M24.0,13.9 L0.0,27.7 L-24.0,13.9 L-24.0,-13.9 L-0.0,-27.7 L24.0,-13.9Z" fill="url(#rgrad0)" filter="url(#blur0)" opacity="0.33"/>
        <ellipse cx="0" cy="0" rx="11.6" ry="7.7" fill="#FFFFFF" opacity="0.16"/>
      </g>
      </g>
      </g>
      </g>
      </g>
      </g>
      </g>
  </g>
  <g transform="translate(771.5, 358.7)">
      <g transform="translate(-1.90,3.70) rotate(2.77) scale(1.000)">
        <g transform="translate(0.55,3.98) rotate(7.09) scale(0.980)">
        <g transform="translate(2.86,3.91) rotate(12.52) scale(0.960)">
        <g transform="translate(4.48,3.49) rotate(18.55) scale(0.940)">
        <g transform="translate(5.00,2.76) rotate(24.58) scale(0.920)">
        <g transform="translate(4.29,1.78) rotate(30.00) scale(0.900)">
        <g transform="translate(2.54,0.64) rotate(34.18) scale(0.880)">
        <circle cx="0" cy="0" r="23.8" fill="url(#rgrad1)" filter="url(#shadow)" opacity="0.23"/>
        <text x="0" y="5" text-anchor="middle" font-family="Arial, sans-serif" font-size="14" fill="#FFFFFF" opacity="0.23">188</text>
      </g>
      </g>
      </g>
      </g>
      </g>
      </g>
      </g>
  </g>
  <g transform="translate(1003.4, 355.3)">
      <g transform="translate(2.86,3.28) rotate(2.77) scale(1.000)">
        <g transform="translate(4.48,2.46) rotate(7.09) scale(0.980)">
        <g transform="translate(5.00,1.41) rotate(12.52) scale(0.960)">
        <g transform="translate(4.29,0.24) rotate(18.55) scale(0.940)" clip-path="url(#clipHex)">
        <g transform="translate(2.54,-0.95) rotate(24.58) scale(0.920)">
        <g transform="translate(0.16,-2.05) rotate(30.00) scale(0.900)">
        <g transform="translate(-2.26,-2.98) rotate(34.18) scale(0.880)">
        <path d="M0.0,-60.3 L17.7,-24.4 L57.4,-18.6 L28.7,9.3 L35.5,48.8 L0.0,30.2 L-35.5,48.8 L-28.7,9.3 L-57.4,-18.6 L-17.7,-24.4Z" fill="url(#lgrad2)" filter="url(#blur2)" opacity="0.15"/>
      </g>
      </g>
      </g>
      </g>
      </g>
      </g>
      </g>
  </g>
  <g transform="translate(1229.5, 363.5)">
      <g transform="translate(5.00,-0.16) rotate(2.77) scale(1.000)">
        <g transform="translate(4.29,-1.33) rotate(7.09) scale(0.980)">
        <g transform="translate(2.54,-2.39) rotate(12.52) scale(0.960)">
        <g transform="translate(0.16,-3.23) rotate(18.55) scale(0.940)">
        <g transform="translate(-2.26,-3.78) rotate(24.58) scale(0.920)">
        <g transform="translate(-4.12,-4.00) rotate(30.00) scale(0.900)" mask="url(#maskCircleFade)">
        <g transform="translate(-4.97,-3.86) rotate(34.18) scale(0.880)">
        <rect x="-36.4" y="-36.4" width="72.8" height="72.8" rx="18.2" fill="url(#rgrad3)" filter="url(#shadow)" opacity="0.11"/>
        <circle cx="0" cy="0" r="24.3" fill="url(#rgrad4)" opacity="0.08"/>
      </g>
      </g>
      </g>
      </g>
      </g>
      </g>
      </g>
  </g>
  <g transform="translate(1448.5, 379.5)">
      <g transform="translate(2.54,-3.45) rotate(2.77) scale(1.000)">
        <g transform="translate(0.16,-3.89) rotate(7.09) scale(0.980)">
        <g transform="translate(-2.26,-3.99) rotate(12.52) scale(0.960)">
        <g transform="translate(-4.12,-3.73) rotate(18.55) scale(0.940)">
        <g transform="translate(-4.97,-3.14) rotate(24.58) scale(0.920)">
        <g transform="translate(-4.61,-2.27) rotate(30.00) scale(0.900)">
        <g transform="translate(-3.12,-1.19) rotate(34.18) scale(0.880)">
        <path d="M38.2,22.1 L0.0,44.1 L-38.2,22.1 L-38.2,-22.1 L-0.0,-44.1 L38.2,-22.1Z" fill="url(#rgrad4)" filter="url(#blur4)" opacity="0.10"/>
        <ellipse cx="0" cy="0" rx="18.4" ry="12.3" fill="#FFFFFF" opacity="0.05"/>
      </g>
      </g>
      </g>
      </g>
      </g>
      </g>
      </g>
  </g>
  <g transform="translate(1660.4, 395.7)">
      <g transform="translate(-2.26,-3.57) rotate(2.77) scale(1.000)">
        <g transform="translate(-4.12,-2.88) rotate(7.09) scale(0.980)">
        <g transform="translate(-4.97,-1.93) rotate(12.52) scale(0.960)">
        <g transform="translate(-4.61,-0.80) rotate(18.55) scale(0.940)" clip-path="url(#clipCircle)">
        <g transform="translate(-3.12,0.39) rotate(24.58) scale(0.920)">
        <g transform="translate(-0.86,1.55) rotate(30.00) scale(0.900)">
        <g transform="translate(1.60,2.57) rotate(34.18) scale(0.880)">
        <circle cx="0" cy="0" r="30.9" fill="url(#lgrad0)" filter="url(#shadow)" opacity="0.13"/>
        <text x="0" y="5" text-anchor="middle" font-family="Arial, sans-serif" font-size="14" fill="#FFFFFF" opacity="0.13">188</text>
      </g>
      </g>
      </g>
      </g>
      </g>
      </g>
      </g>
  </g>
  <g transform="translate(107.4, 684.5)">
      <g transform="translate(-4.97,-0.41) rotate(2.77) scale(1.000)">
        <g transform="translate(-4.61,0.78) rotate(7.09) scale(0.980)">
        <g transform="translate(-3.12,1.91) rotate(12.52) scale(0.960)">
        <g transform="translate(-0.86,2.86) rotate(18.55) scale(0.940)">
        <g transform="translate(1.60,3.56) rotate(24.58) scale(0.920)">
        <g transform="translate(3.68,3.94) rotate(30.00) scale(0.900)" mask="url(#maskGradient)">
        <g transform="translate(4.85,3.97) rotate(34.18) scale(0.880)">
        <path d="M0.0,-48.4 L14.2,-19.6 L46.1,-15.0 L23.0,7.5 L28.5,39.2 L0.0,24.2 L-28.5,39.2 L-23.0,7.5 L-46.1,-15.0 L-14.2,-19.6Z" fill="url(#rgrad1)" filter="url(#blur1)" opacity="0.19"/>
      </g>
      </g>
      </g>
      </g>
      </g>
      </g>
      </g>
  </g>
  <g transform="translate(312.5, 681.8)">
      <g transform="translate(-3.12,3.13) rotate(2.77) scale(1.000)">
        <g transform="translate(-0.86,3.72) rotate(7.09) scale(0.980)">
        <g transform="translate(1.60,3.99) rotate(12.52) scale(0.960)">
        <g transform="translate(3.68,3.90) rotate(18.55) scale(0.940)">
        <g transform="translate(4.85,3.46) rotate(24.58) scale(0.920)">
        <g transform="translate(4.84,2.71) rotate(30.00) scale(0.900)">
        <g transform="translate(3.64,1.72) rotate(34.18) scale(0.880)">
        <rect x="-22.9" y="-22.9" width="45.7" height="45.7" rx="11.4" fill="url(#rgrad2)" filter="url(#shadow)" opacity="0.28"/>
        <circle cx="0" cy="0" r="15.2" fill="url(#rgrad3)" opacity="0.19"/>
      </g>
      </g>
      </g>
      </g>
      </g>
      </g>
      </g>
  </g>
  <g transform="translate(519.5, 668.8)">
      <g transform="translate(1.60,3.79) rotate(2.77) scale(1.000)">
        <g transform="translate(3.68,3.24) rotate(7.09) scale(0.980)">
        <g transform="translate(4.85,2.40) rotate(12.52) scale(0.960)">
        <g transform="translate(4.84,1.35) rotate(18.55) scale(0.940)" clip-path="url(#clipRect)">
        <g transform="translate(3.64,0.18) rotate(24.58) scale(0.920)">
        <g transform="translate(1.55,-1.01) rotate(30.00) scale(0.900)">
        <g transform="translate(-0.92,-2.11) rotate(34.18) scale(0.880)">
        <path d="M29.2,16.8 L0.0,33.7 L-29.2,16.8 L-29.2,-16.8 L-0.0,-33.7 L29.2,-16.8Z" fill="url(#lgrad3)" filter="url(#blur3)" opacity="0.38"/>
        <ellipse cx="0" cy="0" rx="14.0" ry="9.4" fill="#FFFFFF" opacity="0.19"/>
      </g>
      </g>
      </g>
      </g>
      </g>
      </g>
      </g>
  </g>
  <g transform="translate(731.5, 651.7)">
      <g transform="translate(4.85,0.97) rotate(2.77) scale(1.000)">
        <g transform="translate(4.84,-0.22) rotate(7.09) scale(0.980)">
        <g transform="translate(3.64,-1.39) rotate(12.52) scale(0.960)">
        <g transform="translate(1.55,-2.44) rotate(18.55) scale(0.940)">
        <g transform="translate(-0.92,-3.27) rotate(24.58) scale(0.920)">
        <g transform="translate(-3.16,-3.80) rotate(30.00) scale(0.900)" mask="url(#maskDynamic)">
        <g transform="translate(-4.63,-4.00) rotate(34.18) scale(0.880)">
        <circle cx="0" cy="0" r="35.0" fill="url(#rgrad4)" filter="url(#shadow)" opacity="0.50"/>
        <text x="0" y="5" text-anchor="middle" font-family="Arial, sans-serif" font-size="14" fill="#FFFFFF" opacity="0.50">188</text>
      </g>
      </g>
      </g>
      </g>
      </g>
      </g>
      </g>
  </g>
  <g transform="translate(950.5, 638.5)">
      <g transform="translate(3.64,-2.74) rotate(2.77) scale(1.000)">
        <g transform="translate(1.55,-3.48) rotate(7.09) scale(0.980)">
        <g transform="translate(-0.92,-3.91) rotate(12.52) scale(0.960)">
        <g transform="translate(-3.16,-3.99) rotate(18.55) scale(0.940)">
        <g transform="translate(-4.63,-3.71) rotate(24.58) scale(0.920)">
        <g transform="translate(-4.97,-3.10) rotate(30.00) scale(0.900)">
        <g transform="translate(-4.09,-2.21) rotate(34.18) scale(0.880)">
        <path d="M0.0,-74.8 L22.0,-30.3 L71.1,-23.1 L35.6,11.6 L44.0,60.5 L0.0,37.4 L-44.0,60.5 L-35.6,11.6 L-71.1,-23.1 L-22.0,-30.3Z" fill="url(#rgrad0)" filter="url(#blur0)" opacity="0.62"/>
      </g>
      </g>
      </g>
      </g>
      </g>
      </g>
      </g>
  </g>
  <g transform="translate(1176.7, 635.4)">
      <g transform="translate(-0.92,-3.93) rotate(2.77) scale(1.000)">
        <g transform="translate(-3.16,-3.54) rotate(7.09) scale(0.980)">
        <g transform="translate(-4.63,-2.83) rotate(12.52) scale(0.960)">
        <g transform="translate(-4.97,-1.87) rotate(18.55) scale(0.940)" clip-path="url(#clipStar)">
        <g transform="translate(-4.09,-0.74) rotate(24.58) scale(0.920)">
        <g transform="translate(-2.20,0.46) rotate(30.00) scale(0.900)">
        <g transform="translate(0.22,1.61) rotate(34.18) scale(0.880)">
        <rect x="-32.9" y="-32.9" width="65.9" height="65.9" rx="16.5" fill="url(#lgrad1)" filter="url(#shadow)" opacity="0.73"/>
        <circle cx="0" cy="0" r="22.0" fill="url(#rgrad2)" opacity="0.51"/>
      </g>
      </g>
      </g>
      </g>
      </g>
      </g>
      </g>
  </g>
  <g transform="translate(1408.6, 643.8)">
      <g transform="translate(-4.63,-1.51) rotate(2.77) scale(1.000)">
        <g transform="translate(-4.97,-0.34) rotate(7.09) scale(0.980)">
        <g transform="translate(-4.09,0.85) rotate(12.52) scale(0.960)">
        <g transform="translate(-2.20,1.97) rotate(18.55) scale(0.940)">
        <g transform="translate(0.22,2.91) rotate(24.58) scale(0.920)">
        <g transform="translate(2.59,3.59) rotate(30.00) scale(0.900)" mask="url(#maskStripes)">
        <g transform="translate(4.32,3.95) rotate(34.18) scale(0.880)">
        <path d="M26.8,15.5 L0.0,30.9 L-26.8,15.5 L-26.8,-15.5 L-0.0,-30.9 L26.8,-15.5Z" fill="url(#rgrad2)" filter="url(#blur2)" opacity="0.81"/>
        <ellipse cx="0" cy="0" rx="12.9" ry="8.6" fill="#FFFFFF" opacity="0.41"/>
      </g>
      </g>
      </g>
      </g>
      </g>
      </g>
      </g>
  </g>
  <g transform="translate(1643.3, 659.9)">
      <g transform="translate(-4.09,2.31) rotate(2.77) scale(1.000)">
        <g transform="translate(-2.20,3.17) rotate(7.09) scale(0.980)">
        <g transform="translate(0.22,3.75) rotate(12.52) scale(0.960)">
        <g transform="translate(2.59,3.99) rotate(18.55) scale(0.940)">
        <g transform="translate(4.32,3.88) rotate(24.58) scale(0.920)">
        <g transform="translate(5.00,3.42) rotate(30.00) scale(0.900)">
        <g transform="translate(4.45,2.66) rotate(34.18) scale(0.880)">
        <circle cx="0" cy="0" r="22.5" fill="url(#rgrad3)" filter="url(#shadow)" opacity="0.87"/>
        <text x="0" y="5" text-anchor="middle" font-family="Arial, sans-serif" font-size="14" fill="#FFFFFF" opacity="0.87">188</text>
      </g>
      </g>
      </g>
      </g>
      </g>
      </g>
      </g>
  </g>
  <g transform="translate(117.2, 956.1)">
      <g transform="translate(0.22,4.00) rotate(2.77) scale(1.000)">
        <g transform="translate(2.59,3.77) rotate(7.09) scale(0.980)">
        <g transform="translate(4.32,3.20) rotate(12.52) scale(0.960)">
        <g transform="translate(5.00,2.35) rotate(18.55) scale(0.940)" clip-path="url(#clipDynamic)">
        <g transform="translate(4.45,1.29) rotate(24.58) scale(0.920)">
        <g transform="translate(2.82,0.11) rotate(30.00) scale(0.900)">
        <g transform="translate(0.49,-1.08) rotate(34.18) scale(0.880)">
        <path d="M0.0,-52.2 L15.3,-21.1 L49.7,-16.1 L24.8,8.1 L30.7,42.3 L0.0,26.1 L-30.7,42.3 L-24.8,8.1 L-49.7,-16.1 L-15.3,-21.1Z" fill="url(#lgrad4)" filter="url(#blur4)" opacity="0.90"/>
      </g>
      </g>
      </g>
      </g>
      </g>
      </g>
      </g>
  </g>
  <g transform="translate(392.3, 330.8)" mask="url(#maskGradient)">
    <ellipse cx="0" cy="0" rx="200" ry="150" fill="url(#rgrad0)" filter="url(#blur3)" opacity="0.3"/>
  </g>
  <g transform="translate(882.2, 276.0)" mask="url(#maskCircleFade)">
    <ellipse cx="0" cy="0" rx="200" ry="150" fill="url(#rgrad1)" filter="url(#blur3)" opacity="0.3"/>
  </g>
  <g transform="translate(1296.5, 232.5)" mask="url(#maskStripes)">
    <ellipse cx="0" cy="0" rx="200" ry="150" fill="url(#rgrad2)" filter="url(#blur3)" opacity="0.3"/>
  </g>
</svg>