<?xml version="1.0" encoding="UTF-8"?>
<svg xmlns="http://www.w3.org/2000/svg" viewBox="0 0 1920 1080" width="1920" height="1080">
  <defs>
    <filter id="blur0" x="-50%" y="-50%" width="200%" height="200%">
      <feGaussianBlur in="SourceGraphic" stdDeviation="1"/>
    </filter>
    <filter id="blur1" x="-50%" y="-50%" width="200%" height="200%">
      <feGaussianBlur in="SourceGraphic" stdDeviation="3"/>
    </filter>
    <filter id="blur2" x="-50%" y="-50%" width="200%" height="200%">
      <feGaussianBlur in="SourceGraphic" stdDeviation="5"/>
    </filter>
    <filter id="blur3" x="-50%" y="-50%" width="200%" height="200%">
      <feGaussianBlur in="SourceGraphic" stdDeviation="7"/>
    </filter>
    <filter id="blur4" x="-50%" y="-50%" width="200%" height="200%">
      <feGaussianBlur in="SourceGraphic" stdDeviation="9"/>
    </filter>
    <filter id="shadow" x="-50%" y="-50%" width="200%" height="200%">
      <feGaussianBlur in="SourceAlpha" stdDeviation="3" result="blur"/>
      <feOffset in="blur" dx="4" dy="4" result="offsetBlur"/>
      <feMerge>
        <feMergeNode in="offsetBlur"/>
        <feMergeNode in="SourceGraphic"/>
      </feMerge>
    </filter>
    <linearGradient id="lgrad0" x1="0%" y1="0%" x2="50.4%" y2="100.0%">
      <stop offset="0%" stop-color="#FF6B6B"/>
      <stop offset="33%" stop-color="#4ECDC4"/>
      <stop offset="66%" stop-color="#45B7D1"/>
      <stop offset="100%" stop-color="#96E6A1"/>
    </linearGradient>
    <linearGradient id="lgrad1" x1="0%" y1="0%" x2="25.4%" y2="93.5%">
      <stop offset="0%" stop-color="#FFE66D"/>
      <stop offset="33%" stop-color="#FF6B6B"/>
      <stop offset="66%" stop-color="#C44D58"/>
      <stop offset="100%" stop-color="#8B0000"/>
    </linearGradient>
    <linearGradient id="lgrad2" x1="0%" y1="0%" x2="6.9%" y2="75.4%">
      <stop offset="0%" stop-color="#4169E1"/>
      <stop offset="33%" stop-color="#7B68EE"/>
      <stop offset="66%" stop-color="#9370DB"/>
      <stop offset="100%" stop-color="#FFD700"/>
    </linearGradient>
    <linearGradient id="lgrad3" x1="0%" y1="0%" x2="0.0%" y2="50.4%">
      <stop offset="0%" stop-color="#32CD32"/>
      <stop offset="33%" stop-color="#228B22"/>
      <stop offset="66%" stop-color="#006400"/>
      <stop offset="100%" stop-color="#ADFF2F"/>
    </linearGradient>
    <linearGradient id="lgrad4" x1="0%" y1="0%" x2="6.5%" y2="25.4%">
      <stop offset="0%" stop-color="#FF1493"/>
      <stop offset="33%" stop-color="#FF69B4"/>
      <stop offset="66%" stop-color="#FFB6C1"/>
      <stop offset="100%" stop-color="#FFC0CB"/>
    </linearGradient>
    <radialGradient id="rgrad0" cx="32.7%" cy="31.8%" r="60%">
      <stop offset="0%" stop-color="#FF6B6B" stop-opacity="1"/>
      <stop offset="50%" stop-color="#4ECDC4" stop-opacity="0.8"/>
      <stop offset="100%" stop-color="#45B7D1" stop-opacity="0.6"/>
    </radialGradient>
    <radialGradient id="rgrad1" cx="42.7%" cy="39.8%" r="60%">
      <stop offset="0%" stop-color="#FFE66D" stop-opacity="1"/>
      <stop offset="50%" stop-color="#FF6B6B" stop-opacity="0.8"/>
      <stop offset="100%" stop-color="#C44D58" stop-opacity="0.6"/>
    </radialGradient>
    <radialGradient id="rgrad2" cx="52.7%" cy="47.8%" r="60%">
      <stop offset="0%" stop-color="#4169E1" stop-opacity="1"/>
      <stop offset="50%" stop-color="#7B68EE" stop-opacity="0.8"/>
      <stop offset="100%" stop-color="#9370DB" stop-opacity="0.6"/>
    </radialGradient>
    <radialGradient id="rgrad3" cx="62.7%" cy="55.8%" r="60%">
      <stop offset="0%" stop-color="#32CD32" stop-opacity="1"/>
      <stop offset="50%" stop-color="#228B22" stop-opacity="0.8"/>
      <stop offset="100%" stop-color="#006400" stop-opacity="0.6"/>
    </radialGradient>
    <radialGradient id="rgrad4" cx="32.7%" cy="63.8%" r="60%">
      <stop offset="0%" stop-color="#FF1493" stop-opacity="1"/>
      <stop offset="50%" stop-color="#FF69B4" stop-opacity="0.8"/>
      <stop offset="100%" stop-color="#FFB6C1" stop-opacity="0.6"/>
    </radialGradient>
    <clipPath id="clipCircle">
      <circle cx="0" cy="0" r="50"/>
    </clipPath>
    <clipPath id="clipStar">
      <path d="M0.0,-50.0 L14.7,-20.2 L47.6,-15.5 L23.8,7.7 L29.4,40.5 L0.0,25.0 L-29.4,40.5 L-23.8,7.7 L-47.6,-15.5 L-14.7,-20.2Z"/>
    </clipPath>
    <clipPath id="clipHex">
      <path d="M39.0,22.5 L0.0,45.0 L-39.0,22.5 L-39.0,-22.5 L-0.0,-45.0 L39.0,-22.5Z"/>
    </clipPath>
    <clipPath id="clipRect">
      <rect x="-40" y="-30" width="80" height="60" rx="10"/>
    </clipPath>
    <clipPath id="clipDynamic">
      <circle cx="0" cy="0" r="21.0"/>
    </clipPath>
    <mask id="maskGradient" maskContentUnits="objectBoundingBox">
      <rect x="0" y="0" width="1" height="1" fill="url(#maskGrad)"/>
    </mask>
    <linearGradient id="maskGrad" x1="0%" y1="0%" x2="100%" y2="100%">
      <stop offset="0%" stop-color="white"/>
      <stop offset="100%" stop-color="black"/>
    </linearGradient>
    <mask id="maskCircleFade">
      <circle cx="0" cy="0" r="60" fill="white"/>
      <circle cx="0" cy="0" r="30" fill="black"/>
    </mask>
    <mask id="maskStripes">
      <rect x="-50" y="-50" width="100" height="100" fill="white"/>
      <rect x="-50" y="-40" width="100" height="10" fill="black"/>
      <rect x="-50" y="-20" width="100" height="10" fill="black"/>
      <rect x="-50" y="0" width="100" height="10" fill="black"/>
      <rect x="-50" y="20" width="100" height="10" fill="black"/>
      <rect x="-50" y="40" width="100" height="10" fill="black"/>
    </mask>
    <mask id="maskDynamic">
      <rect x="-60" y="-60" width="120" height="120" fill="white" fill-opacity="0.70"/>
      <circle cx="0" cy="0" r="25" fill="white"/>
    </mask>
  </defs>
  <rect width="1920" height="1080" fill="url(#lgrad0)"/>
  <g transform="translate(72.0, 109.0)">
      <g transform="translate(-4.66,1.44) rotate(2.83) scale(1.000)">
        <g transform="translate(-3.23,2.48) rotate(3.90) scale(0.980)">
        <g transform="translate(-1.00,3.30) rotate(2.99) scale(0.960)">
        <g transform="translate(1.47,3.82) rotate(0.01) scale(0.940)" clip-path="url(#clipCircle)">
        <g transform="translate(3.58,4.00) rotate(-4.95) scale(0.920)">
        <g transform="translate(4.82,3.82) rotate(-11.66) scale(0.900)">
        <g transform="translate(4.87,3.30) rotate(-19.74) scale(0.880)">
        <path d="M0.0,-68.5 L20.1,-27.7 L65.1,-21.2 L32.6,10.6 L40.3,55.4 L0.0,34.2 L-40.3,55.4 L-32.6,10.6 L-65.1,-21.2 L-20.1,-27.7Z" fill="url(#lgrad0)" filter="url(#blur0)" opacity="0.73"/>
      </g>
      </g>
      </g>
      </g>
      </g>
      </g>
      </g>
  </g>
  <g transform="translate(300.6, 121.9)">
      <g transform="translate(-1.00,3.92) rotate(2.83) scale(1.000)">
        <g transform="translate(1.47,3.98) rotate(3.90) scale(0.980)">
        <g transform="translate(3.58,3.69) rotate(2.99) scale(0.960)">
        <g transform="translate(4.82,3.06) rotate(0.01) scale(0.940)">
        <g transform="translate(4.87,2.17) rotate(-4.95) scale(0.920)">
        <g transform="translate(3.73,1.07) rotate(-11.66) scale(0.900)" mask="url(#maskCircleFade)">
        <g transform="translate(1.68,-0.11) rotate(-19.74) scale(0.880)">
        <rect x="-27.1" y="-27.1" width="54.2" height="54.2" rx="13.5" fill="url(#rgrad1)" filter="url(#shadow)" opacity="0.62"/>
        <circle cx="0" cy="0" r="18.1" fill="url(#rgrad2)" opacity="0.43"/>
      </g>
      </g>
      </g>
      </g>
      </g>
      </g>
      </g>
  </g>
  <g transform="translate(534.0, 124.5)">
      <g transform="translate(3.58,2.79) rotate(2.83) scale(1.000)">
        <g transform="translate(4.82,1.82) rotate(3.90) scale(0.980)">
        <g transform="translate(4.87,0.68) rotate(2.99) scale(0.960)">
        <g transform="translate(3.73,-0.51) rotate(0.01) scale(0.940)">
        <g transform="translate(1.68,-1.66) rotate(-4.95) scale(0.920)">
        <g transform="translate(-0.78,-2.66) rotate(-11.66) scale(0.900)">
        <g transform="translate(-3.05,-3.42) rotate(-19.74) scale(0.880)">
        <path d="M23.5,13.6 L0.0,27.1 L-23.5,13.6 L-23.5,-13.6 L-0.0,-27.1 L23.5,-13.6Z" fill="url(#rgrad2)" filter="url(#blur2)" opacity="0.50"/>
        <ellipse cx="0" cy="0" rx="11.3" ry="7.5" fill="#FFFFFF" opacity="0.25"/>
      </g>
      </g>
      </g>
      </g>
      </g>
      </g>
      </g>
  </g>
  <g transform="translate(768.8, 115.6)">
      <g transform="translate(4.87,-0.90) rotate(2.83) scale(1.000)">
        <g transform="translate(3.73,-2.01) rotate(3.90) scale(0.980)">
        <g transform="translate(1.68,-2.95) rotate(2.99) scale(0.960)">
        <g transform="translate(-0.78,-3.61) rotate(0.01) scale(0.940)" clip-path="url(#clipRect)">
        <g transform="translate(-3.05,-3.96) rotate(-4.95) scale(0.920)">
        <g transform="translate(-4.58,-3.95) rotate(-11.66) scale(0.900)">
        <g transform="translate(-4.98,-3.59) rotate(-19.74) scale(0.880)">
        <circle cx="0" cy="0" r="24.9" fill="url(#lgrad3)" filter="url(#shadow)" opacity="0.38"/>
        <text x="0" y="5" text-anchor="middle" font-family="Arial, sans-serif" font-size="14" fill="#FFFFFF" opacity="0.38">809</text>
      </g>
      </g>
      </g>
      </g>
      </g>
      </g>
      </g>
  </g>
  <g transform="translate(1001.5, 99.3)">
      <g transform="translate(1.68,-3.77) rotate(2.83) scale(1.000)">
        <g transform="translate(-0.78,-4.00) rotate(3.90) scale(0.980)">
        <g transform="translate(-3.05,-3.87) rotate(2.99) scale(0.960)">
        <g transform="translate(-4.58,-3.40) rotate(0.01) scale(0.940)">
        <g transform="translate(-4.98,-2.62) rotate(-4.95) scale(0.920)">
        <g transform="translate(-4.16,-1.61) rotate(-11.66) scale(0.900)" mask="url(#maskGradient)">
        <g transform="translate(-2.33,-0.45) rotate(-19.74) scale(0.880)">
        <path d="M0.0,-63.8 L18.8,-25.8 L60.7,-19.7 L30.4,9.9 L37.5,51.6 L0.0,31.9 L-37.5,51.6 L-30.4,9.9 L-60.7,-19.7 L-18.8,-25.8Z" fill="url(#rgrad4)" filter="url(#blur4)" opacity="0.27"/>
      </g>
      </g>
      </g>
      </g>
      </g>
      </g>
      </g>
  </g>
  <g transform="translate(1228.9, 83.4)">
      <g transform="translate(-3.05,-3.17) rotate(2.83) scale(1.000)">
        <g transform="translate(-4.58,-2.30) rotate(3.90) scale(0.980)">
        <g transform="translate(-4.98,-1.23) rotate(2.99) scale(0.960)">
        <g transform="translate(-4.16,-0.05) rotate(0.01) scale(0.940)">
        <g transform="translate(-2.33,1.13) rotate(-4.95) scale(0.920)">
        <g transform="translate(0.08,2.21) rotate(-11.66) scale(0.900)">
        <g transform="translate(2.46,3.10) rotate(-19.74) scale(0.880)">
        <rect x="-37.1" y="-37.1" width="74.3" height="74.3" rx="18.6" fill="url(#rgrad0)" filter="url(#shadow)" opacity="0.19"/>
        <circle cx="0" cy="0" r="24.8" fill="url(#rgrad1)" opacity="0.13"/>
      </g>
      </g>
      </g>
      </g>
      </g>
      </g>
      </g>
  </g>
  <g transform="translate(1449.2, 75.3)">
      <g transform="translate(-4.98,0.34) rotate(2.83) scale(1.000)">
        <g transform="translate(-4.16,1.51) rotate(3.90) scale(0.980)">
        <g transform="translate(-2.33,2.53) rotate(2.99) scale(0.960)">
        <g transform="translate(0.08,3.34) rotate(0.01) scale(0.940)" clip-path="url(#clipStar)">
        <g transform="translate(2.46,3.84) rotate(-4.95) scale(0.920)">
        <g transform="translate(4.25,4.00) rotate(-11.66) scale(0.900)">
        <g transform="translate(4.99,3.80) rotate(-19.74) scale(0.880)">
        <path d="M37.2,21.5 L0.0,43.0 L-37.2,21.5 L-37.2,-21.5 L-0.0,-43.0 L37.2,-21.5Z" fill="url(#lgrad1)" filter="url(#blur1)" opacity="0.13"/>
        <ellipse cx="0" cy="0" rx="17.9" ry="11.9" fill="#FFFFFF" opacity="0.06"/>
      </g>
      </g>
      </g>
      </g>
      </g>
      </g>
      </g>
  </g>
  <g transform="translate(1662.4, 78.8)">
      <g transform="translate(-2.33,3.54) rotate(2.83) scale(1.000)">
        <g transform="translate(0.08,3.93) rotate(3.90) scale(0.980)">
        <g transform="translate(2.46,3.97) rotate(2.99) scale(0.960)">
        <g transform="translate(4.25,3.66) rotate(0.01) scale(0.940)">
        <g transform="translate(4.99,3.02) rotate(-4.95) scale(0.920)">
        <g transform="translate(4.51,2.11) rotate(-11.66) scale(0.900)" mask="url(#maskDynamic)">
        <g transform="translate(2.93,1.01) rotate(-19.74) scale(0.880)">
        <circle cx="0" cy="0" r="29.1" fill="url(#rgrad2)" filter="url(#shadow)" opacity="0.10"/>
        <text x="0" y="5" text-anchor="middle" font-family="Arial, sans-serif" font-size="14" fill="#FFFFFF" opacity="0.10">809</text>
      </g>
      </g>
      </g>
      </g>
      </g>
      </g>
      </g>
  </g>
  <g transform="translate(110.1, 372.3)">
      <g transform="translate(2.46,3.48) rotate(2.83) scale(1.000)">
        <g transform="translate(4.25,2.74) rotate(3.90) scale(0.980)">
        <g transform="translate(4.99,1.76) rotate(2.99) scale(0.960)">
        <g transform="translate(4.51,0.62) rotate(0.01) scale(0.940)">
        <g transform="translate(2.93,-0.58) rotate(-4.95) scale(0.920)">
        <g transform="translate(0.63,-1.72) rotate(-11.66) scale(0.900)">
        <g transform="translate(-1.83,-2.71) rotate(-19.74) scale(0.880)">
        <path d="M0.0,-46.5 L13.7,-18.8 L44.2,-14.4 L22.1,7.2 L27.3,37.6 L0.0,23.3 L-27.3,37.6 L-22.1,7.2 L-44.2,-14.4 L-13.7,-18.8Z" fill="url(#rgrad3)" filter="url(#blur3)" opacity="0.11"/>
      </g>
      </g>
      </g>
      </g>
      </g>
      </g>
      </g>
  </g>
  <g transform="translate(315.3, 389.4)">
      <g transform="translate(4.99,0.22) rotate(2.83) scale(1.000)">
        <g transform="translate(4.51,-0.97) rotate(3.90) scale(0.980)">
        <g transform="translate(2.93,-2.07) rotate(2.99) scale(0.960)">
        <g transform="translate(0.63,-2.99) rotate(0.01) scale(0.940)" clip-path="url(#clipDynamic)">
        <g transform="translate(-1.83,-3.64) rotate(-4.95) scale(0.920)">
        <g transform="translate(-3.83,-3.97) rotate(-11.66) scale(0.900)">
        <g transform="translate(-4.90,-3.94) rotate(-19.74) scale(0.880)">
        <rect x="-23.6" y="-23.6" width="47.2" height="47.2" rx="11.8" fill="url(#lgrad4)" filter="url(#shadow)" opacity="0.15"/>
        <circle cx="0" cy="0" r="15.7" fill="url(#rgrad0)" opacity="0.11"/>
      </g>
      </g>
      </g>
      </g>
      </g>
      </g>
      </g>
  </g>
  <g transform="translate(521.7, 402.1)">
      <g transform="translate(2.93,-3.24) rotate(2.83) scale(1.000)">
        <g transform="translate(0.63,-3.79) rotate(3.90) scale(0.980)">
        <g transform="translate(-1.83,-4.00) rotate(2.99) scale(0.960)">
        <g transform="translate(-3.83,-3.85) rotate(0.01) scale(0.940)">
        <g transform="translate(-4.90,-3.36) rotate(-4.95) scale(0.920)">
        <g transform="translate(-4.77,-2.57) rotate(-11.66) scale(0.900)" mask="url(#maskStripes)">
        <g transform="translate(-3.47,-1.55) rotate(-19.74) scale(0.880)">
        <path d="M31.0,17.9 L0.0,35.8 L-31.0,17.9 L-31.0,-17.9 L-0.0,-35.8 L31.0,-17.9Z" fill="url(#rgrad0)" filter="url(#blur0)" opacity="0.23"/>
        <ellipse cx="0" cy="0" rx="14.9" ry="9.9" fill="#FFFFFF" opacity="0.11"/>
      </g>
      </g>
      </g>
      </g>
      </g>
      </g>
      </g>
  </g>
  <g transform="translate(732.5, 404.4)">
      <g transform="translate(-1.83,-3.72) rotate(2.83) scale(1.000)">
        <g transform="translate(-3.83,-3.13) rotate(3.90) scale(0.980)">
        <g transform="translate(-4.90,-2.25) rotate(2.99) scale(0.960)">
        <g transform="translate(-4.77,-1.17) rotate(0.01) scale(0.940)">
        <g transform="translate(-3.47,0.01) rotate(-4.95) scale(0.920)">
        <g transform="translate(-1.32,1.19) rotate(-11.66) scale(0.900)">
        <g transform="translate(1.15,2.27) rotate(-19.74) scale(0.880)">
        <circle cx="0" cy="0" r="36.2" fill="url(#rgrad1)" filter="url(#shadow)" opacity="0.33"/>
        <text x="0" y="5" text-anchor="middle" font-family="Arial, sans-serif" font-size="14" fill="#FFFFFF" opacity="0.33">809</text>
      </g>
      </g>
      </g>
      </g>
      </g>
      </g>
      </g>
  </g>
  <g transform="translate(950.1, 395.2)">
      <g transform="translate(-4.90,-0.78) rotate(2.83) scale(1.000)">
        <g transform="translate(-4.77,0.41) rotate(3.90) scale(0.980)">
        <g transform="translate(-3.47,1.57) rotate(2.99) scale(0.960)">
        <g transform="translate(-1.32,2.59) rotate(0.01) scale(0.940)" clip-path="url(#clipHex)">
        <g transform="translate(1.15,3.37) rotate(-4.95) scale(0.920)">
        <g transform="translate(3.34,3.86) rotate(-11.66) scale(0.900)">
        <g transform="translate(4.72,4.00) rotate(-19.74) scale(0.880)">
        <path d="M0.0,-73.8 L21.7,-29.9 L70.2,-22.8 L35.1,11.4 L43.4,59.7 L0.0,36.9 L-43.4,59.7 L-35.1,11.4 L-70.2,-22.8 L-21.7,-29.9Z" fill="url(#lgrad2)" filter="url(#blur2)" opacity="0.44"/>
      </g>
      </g>
      </g>
      </g>
      </g>
      </g>
      </g>
  </g>
  <g transform="translate(1175.0, 378.9)">
      <g transform="translate(-3.47,2.88) rotate(2.83) scale(1.000)">
        <g transform="translate(-1.32,3.57) rotate(3.90) scale(0.980)">
        <g transform="translate(1.15,3.94) rotate(2.99) scale(0.960)">
        <g transform="translate(3.34,3.97) rotate(0.01) scale(0.940)">
        <g transform="translate(4.72,3.63) rotate(-4.95) scale(0.920)">
        <g transform="translate(4.93,2.97) rotate(-11.66) scale(0.900)" mask="url(#maskCircleFade)">
        <g transform="translate(3.95,2.05) rotate(-19.74) scale(0.880)">
        <rect x="-31.2" y="-31.2" width="62.5" height="62.5" rx="15.6" fill="url(#rgrad3)" filter="url(#shadow)" opacity="0.56"/>
        <circle cx="0" cy="0" r="20.8" fill="url(#rgrad4)" opacity="0.39"/>
      </g>
      </g>
      </g>
      </g>
      </g>
      </g>
      </g>
  </g>
  <g transform="translate(1406.0, 363.1)">
      <g transform="translate(1.15,3.89) rotate(2.83) scale(1.000)">
        <g transform="translate(3.34,3.45) rotate(3.90) scale(0.980)">
        <g transform="translate(4.72,2.69) rotate(2.99) scale(0.960)">
        <g transform="translate(4.93,1.70) rotate(0.01) scale(0.940)">
        <g transform="translate(3.95,0.55) rotate(-4.95) scale(0.920)">
        <g transform="translate(1.99,-0.64) rotate(-11.66) scale(0.900)">
        <g transform="translate(-0.45,-1.78) rotate(-19.74) scale(0.880)">
        <path d="M25.4,14.7 L0.0,29.3 L-25.4,14.7 L-25.4,-14.7 L-0.0,-29.3 L25.4,-14.7Z" fill="url(#rgrad4)" filter="url(#blur4)" opacity="0.68"/>
        <ellipse cx="0" cy="0" rx="12.2" ry="8.2" fill="#FFFFFF" opacity="0.34"/>
      </g>
      </g>
      </g>
      </g>
      </g>
      </g>
      </g>
  </g>
  <g transform="translate(1640.5, 355.2)">
      <g transform="translate(4.72,1.33) rotate(2.83) scale(1.000)">
        <g transform="translate(4.93,0.15) rotate(3.90) scale(0.980)">
        <g transform="translate(3.95,-1.03) rotate(2.99) scale(0.960)">
        <g transform="translate(1.99,-2.13) rotate(0.01) scale(0.940)" clip-path="url(#clipCircle)">
        <g transform="translate(-0.45,-3.04) rotate(-4.95) scale(0.920)">
        <g transform="translate(-2.78,-3.67) rotate(-11.66) scale(0.900)">
        <g transform="translate(-4.43,-3.98) rotate(-19.74) scale(0.880)">
        <circle cx="0" cy="0" r="22.8" fill="url(#lgrad0)" filter="url(#shadow)" opacity="0.77"/>
        <text x="0" y="5" text-anchor="middle" font-family="Arial, sans-serif" font-size="14" fill="#FFFFFF" opacity="0.77">809</text>
      </g>
      </g>
      </g>
      </g>
      </g>
      </g>
      </g>
  </g>
  <g transform="translate(114.8, 639.0)">
      <g transform="translate(3.95,-2.46) rotate(2.83) scale(1.000)">
        <g transform="translate(1.99,-3.28) rotate(3.90) scale(0.980)">
        <g transform="translate(-0.45,-3.81) rotate(2.99) scale(0.960)">
        <g transform="translate(-2.78,-4.00) rotate(0.01) scale(0.940)">
        <g transform="translate(-4.43,-3.83) rotate(-4.95) scale(0.920)">
        <g transform="translate(-5.00,-3.32) rotate(-11.66) scale(0.900)" mask="url(#maskGradient)">
        <g transform="translate(-4.34,-2.52) rotate(-19.74) scale(0.880)">
        <path d="M0.0,-55.4 L16.3,-22.4 L52.7,-17.1 L26.4,8.6 L32.6,44.9 L0.0,27.7 L-32.6,44.9 L-26.4,8.6 L-52.7,-17.1 L-16.3,-22.4Z" fill="url(#rgrad1)" filter="url(#blur1)" opacity="0.85"/>
      </g>
      </g>
      </g>
      </g>
      </g>
      </g>
      </g>
  </g>
  <g transform="translate(345.5, 652.7)">
      <g transform="translate(-0.45,-3.98) rotate(2.83) scale(1.000)">
        <g transform="translate(-2.78,-3.70) rotate(3.90) scale(0.980)">
        <g transform="translate(-4.43,-3.08) rotate(2.99) scale(0.960)">
        <g transform="translate(-5.00,-2.19) rotate(0.01) scale(0.940)">
        <g transform="translate(-4.34,-1.11) rotate(-4.95) scale(0.920)">
        <g transform="translate(-2.62,0.08) rotate(-11.66) scale(0.900)">
        <g transform="translate(-0.25,1.26) rotate(-19.74) scale(0.880)">
        <rect x="-34.8" y="-34.8" width="69.6" height="69.6" rx="17.4" fill="url(#rgrad2)" filter="url(#shadow)" opacity="0.89"/>
        <circle cx="0" cy="0" r="23.2" fill="url(#rgrad3)" opacity="0.62"/>
      </g>
      </g>
      </g>
      </g>
      </g>
      </g>
      </g>
  </g>
  <g transform="translate(570.0, 669.8)">
      <g transform="translate(-4.43,-1.85) rotate(2.83) scale(1.000)">
        <g transform="translate(-5.00,-0.72) rotate(3.90) scale(0.980)">
        <g transform="translate(-4.34,0.48) rotate(2.99) scale(0.960)">
        <g transform="translate(-2.62,1.63) rotate(0.01) scale(0.940)" clip-path="url(#clipRect)">
        <g transform="translate(-0.25,2.64) rotate(-4.95) scale(0.920)">
        <g transform="translate(2.17,3.41) rotate(-11.66) scale(0.900)">
        <g transform="translate(4.06,3.87) rotate(-19.74) scale(0.880)">
        <path d="M38.9,22.5 L0.0,44.9 L-38.9,22.5 L-38.9,-22.5 L-0.0,-44.9 L38.9,-22.5Z" fill="url(#lgrad3)" filter="url(#blur3)" opacity="0.90"/>
        <ellipse cx="0" cy="0" rx="18.7" ry="12.5" fill="#FFFFFF" opacity="0.45"/>
      </g>
      </g>
      </g>
      </g>
      </g>
      </g>
      </g>
  </g>
  <g transform="translate(787.1, 682.3)">
      <g transform="translate(-4.34,1.99) rotate(2.83) scale(1.000)">
        <g transform="translate(-2.62,2.92) rotate(3.90) scale(0.980)">
        <g transform="translate(-0.25,3.60) rotate(2.99) scale(0.960)">
        <g transform="translate(2.17,3.95) rotate(0.01) scale(0.940)">
        <g transform="translate(4.06,3.96) rotate(-4.95) scale(0.920)">
        <g transform="translate(4.96,3.60) rotate(-11.66) scale(0.900)" mask="url(#maskDynamic)">
        <g transform="translate(4.65,2.93) rotate(-19.74) scale(0.880)">
        <circle cx="0" cy="0" r="33.3" fill="url(#rgrad4)" filter="url(#shadow)" opacity="0.87"/>
        <text x="0" y="5" text-anchor="middle" font-family="Arial, sans-serif" font-size="14" fill="#FFFFFF" opacity="0.87">809</text>
      </g>
      </g>
      </g>
      </g>
      </g>
      </g>
      </g>
  </g>
  <g transform="translate(997.6, 684.3)">
      <g transform="translate(-0.25,3.99) rotate(2.83) scale(1.000)">
        <g transform="translate(2.17,3.88) rotate(3.90) scale(0.980)">
        <g transform="translate(4.06,3.41) rotate(2.99) scale(0.960)">
        <g transform="translate(4.96,2.64) rotate(0.01) scale(0.940)">
        <g transform="translate(4.65,1.64) rotate(-4.95) scale(0.920)">
        <g transform="translate(3.19,0.49) rotate(-11.66) scale(0.900)">
        <g transform="translate(0.96,-0.71) rotate(-19.74) scale(0.880)">
        <path d="M0.0,-52.2 L15.3,-21.1 L49.6,-16.1 L24.8,8.1 L30.7,42.2 L0.0,26.1 L-30.7,42.2 L-24.8,8.1 L-49.6,-16.1 L-15.3,-21.1Z" fill="url(#rgrad0)" filter="url(#blur0)" opacity="0.81"/>
      </g>
      </g>
      </g>
      </g>
      </g>
      </g>
      </g>
  </g>
  <g transform="translate(1203.8, 674.9)">
      <g transform="translate(4.06,2.33) rotate(2.83) scale(1.000)">
        <g transform="translate(4.96,1.26) rotate(3.90) scale(0.980)">
        <g transform="translate(4.65,0.09) rotate(2.99) scale(0.960)">
        <g transform="translate(3.19,-1.10) rotate(0.01) scale(0.940)" clip-path="url(#clipStar)">
        <g transform="translate(0.96,-2.19) rotate(-4.95) scale(0.920)">
        <g transform="translate(-1.51,-3.08) rotate(-11.66) scale(0.900)">
        <g transform="translate(-3.61,-3.70) rotate(-19.74) scale(0.880)">
        <rect x="-22.5" y="-22.5" width="45.0" height="45.0" rx="11.3" fill="url(#lgrad1)" filter="url(#shadow)" opacity="0.72"/>
        <circle cx="0" cy="0" r="15.0" fill="url(#rgrad2)" opacity="0.50"/>
      </g>
      </g>
      </g>
      </g>
      </g>
      </g>
      </g>
  </g>
  <g transform="translate(1409.0, 658.5)">
      <g transform="translate(4.65,-1.48) rotate(2.83) scale(1.000)">
        <g transform="translate(3.19,-2.51) rotate(3.90) scale(0.980)">
        <g transform="translate(0.96,-3.32) rotate(2.99) scale(0.960)">
        <g transform="translate(-1.51,-3.83) rotate(0.01) scale(0.940)">
        <g transform="translate(-3.61,-4.00) rotate(-4.95) scale(0.920)">
        <g transform="translate(-4.83,-3.81) rotate(-11.66) scale(0.900)" mask="url(#maskStripes)">
        <g transform="translate(-4.86,-3.28) rotate(-19.74) scale(0.880)">
        <path d="M26.8,15.5 L0.0,31.0 L-26.8,15.5 L-26.8,-15.5 L-0.0,-31.0 L26.8,-15.5Z" fill="url(#rgrad2)" filter="url(#blur2)" opacity="0.61"/>
        <ellipse cx="0" cy="0" rx="12.9" ry="8.6" fill="#FFFFFF" opacity="0.31"/>
      </g>
      </g>
      </g>
      </g>
      </g>
      </g>
      </g>
  </g>
  <g transform="translate(1617.0, 642.7)">
      <g transform="translate(0.96,-3.93) rotate(2.83) scale(1.000)">
        <g transform="translate(-1.51,-3.98) rotate(3.90) scale(0.980)">
        <g transform="translate(-3.61,-3.67) rotate(2.99) scale(0.960)">
        <g transform="translate(-4.83,-3.04) rotate(0.01) scale(0.940)">
        <g transform="translate(-4.86,-2.14) rotate(-4.95) scale(0.920)">
        <g transform="translate(-3.70,-1.04) rotate(-11.66) scale(0.900)">
        <g transform="translate(-1.64,0.15) rotate(-19.74) scale(0.880)">
        <circle cx="0" cy="0" r="33.0" fill="url(#rgrad3)" filter="url(#shadow)" opacity="0.49"/>
        <text x="0" y="5" text-anchor="middle" font-family="Arial, sans-serif" font-size="14" fill="#FFFFFF" opacity="0.49">809</text>
      </g>
      </g>
      </g>
      </g>
      </g>
      </g>
      </g>
  </g>
  <g transform="translate(70.6, 915.1)">
      <g transform="translate(-3.61,-2.77) rotate(2.83) scale(1.000)">
        <g transform="translate(-4.83,-1.79) rotate(3.90) scale(0.980)">
        <g transform="translate(-4.86,-0.65) rotate(2.99) scale(0.960)">
        <g transform="translate(-3.70,0.55) rotate(0.01) scale(0.940)" clip-path="url(#clipDynamic)">
        <g transform="translate(-1.64,1.69) rotate(-4.95) scale(0.920)">
        <g transform="translate(0.83,2.69) rotate(-11.66) scale(0.900)">
        <g transform="translate(3.09,3.44) rotate(-19.74) scale(0.880)">
        <path d="M0.0,-74.8 L22.0,-30.3 L71.1,-23.1 L35.6,11.6 L44.0,60.5 L0.0,37.4 L-44.0,60.5 L-35.6,11.6 L-71.1,-23.1 L-22.0,-30.3Z" fill="url(#lgrad4)" filter="url(#blur4)" opacity="0.38"/>
      </g>
      </g>
      </g>
      </g>
      </g>
      </g>
      </g>
  </g>
  <g transform="translate(206.7, 328.9)" mask="url(#maskGradient)">
    <ellipse cx="0" cy="0" rx="200" ry="150" fill="url(#rgrad0)" filter="url(#blur3)" opacity="0.3"/>
  </g>
  <g transform="translate(780.0, 370.2)" mask="url(#maskCircleFade)">
    <ellipse cx="0" cy="0" rx="200" ry="150" fill="url(#rgrad1)" filter="url(#blur3)" opacity="0.3"/>
  </g>
  <g transform="translate(1371.6, 378.4)" mask="url(#maskStripes)">
    <ellipse cx="0" cy="0" rx="200" ry="150" fill="url(#rgrad2)" filter="url(#blur3)" opacity="0.3"/>
  </g>
</svg>