<?xml version="1.0" encoding="UTF-8"?>
<svg xmlns="http://www.w3.org/2000/svg" viewBox="0 0 1920 1080" width="1920" height="1080">
  <defs>
    <filter id="blur0" x="-50%" y="-50%" width="200%" height="200%">
      <feGaussianBlur in="SourceGraphic" stdDeviation="1"/>
    </filter>
    <filter id="blur1" x="-50%" y="-50%" width="200%" height="200%">
      <feGaussianBlur in="SourceGraphic" stdDeviation="3"/>
    </filter>
    <filter id="blur2" x="-50%" y="-50%" width="200%" height="200%">
      <feGaussianBlur in="SourceGraphic" stdDeviation="5"/>
    </filter>
    <filter id="blur3" x="-50%" y="-50%" width="200%" height="200%">
      <feGaussianBlur in="SourceGraphic" stdDeviation="7"/>
    </filter>
    <filter id="blur4" x="-50%" y="-50%" width="200%" height="200%">
      <feGaussianBlur in="SourceGraphic" stdDeviation="9"/>
    </filter>
    <filter id="shadow" x="-50%" y="-50%" width="200%" height="200%">
      <feGaussianBlur in="SourceAlpha" stdDeviation="3" result="blur"/>
      <feOffset in="blur" dx="4" dy="4" result="offsetBlur"/>
      <feMerge>
        <feMergeNode in="offsetBlur"/>
        <feMergeNode in="SourceGraphic"/>
      </feMerge>
    </filter>
    <linearGradient id="lgrad0" x1="0%" y1="0%" x2="30.5%" y2="96.0%">
      <stop offset="0%" stop-color="#FF6B6B"/>
      <stop offset="33%" stop-color="#4ECDC4"/>
      <stop offset="66%" stop-color="#45B7D1"/>
      <stop offset="100%" stop-color="#96E6A1"/>
    </linearGradient>
    <linearGradient id="lgrad1" x1="0%" y1="0%" x2="10.1%" y2="80.1%">
      <stop offset="0%" stop-color="#FFE66D"/>
      <stop offset="33%" stop-color="#FF6B6B"/>
      <stop offset="66%" stop-color="#C44D58"/>
      <stop offset="100%" stop-color="#8B0000"/>
    </linearGradient>
    <linearGradient id="lgrad2" x1="0%" y1="0%" x2="0.4%" y2="56.1%">
      <stop offset="0%" stop-color="#4169E1"/>
      <stop offset="33%" stop-color="#7B68EE"/>
      <stop offset="66%" stop-color="#9370DB"/>
      <stop offset="100%" stop-color="#FFD700"/>
    </linearGradient>
    <linearGradient id="lgrad3" x1="0%" y1="0%" x2="4.0%" y2="30.5%">
      <stop offset="0%" stop-color="#32CD32"/>
      <stop offset="33%" stop-color="#228B22"/>
      <stop offset="66%" stop-color="#006400"/>
      <stop offset="100%" stop-color="#ADFF2F"/>
    </linearGradient>
    <linearGradient id="lgrad4" x1="0%" y1="0%" x2="19.9%" y2="10.1%">
      <stop offset="0%" stop-color="#FF1493"/>
      <stop offset="33%" stop-color="#FF69B4"/>
      <stop offset="66%" stop-color="#FFB6C1"/>
      <stop offset="100%" stop-color="#FFC0CB"/>
    </linearGradient>
    <radialGradient id="rgrad0" cx="30.8%" cy="57.2%" r="60%">
      <stop offset="0%" stop-color="#FF6B6B" stop-opacity="1"/>
      <stop offset="50%" stop-color="#4ECDC4" stop-opacity="0.8"/>
      <stop offset="100%" stop-color="#45B7D1" stop-opacity="0.6"/>
    </radialGradient>
    <radialGradient id="rgrad1" cx="40.8%" cy="65.2%" r="60%">
      <stop offset="0%" stop-color="#FFE66D" stop-opacity="1"/>
      <stop offset="50%" stop-color="#FF6B6B" stop-opacity="0.8"/>
      <stop offset="100%" stop-color="#C44D58" stop-opacity="0.6"/>
    </radialGradient>
    <radialGradient id="rgrad2" cx="50.8%" cy="33.2%" r="60%">
      <stop offset="0%" stop-color="#4169E1" stop-opacity="1"/>
      <stop offset="50%" stop-color="#7B68EE" stop-opacity="0.8"/>
      <stop offset="100%" stop-color="#9370DB" stop-opacity="0.6"/>
    </radialGradient>
    <radialGradient id="rgrad3" cx="60.8%" cy="41.2%" r="60%">
      <stop offset="0%" stop-color="#32CD32" stop-opacity="1"/>
      <stop offset="50%" stop-color="#228B22" stop-opacity="0.8"/>
      <stop offset="100%" stop-color="#006400" stop-opacity="0.6"/>
    </radialGradient>
    <radialGradient id="rgrad4" cx="30.8%" cy="49.2%" r="60%">
      <stop offset="0%" stop-color="#FF1493" stop-opacity="1"/>
      <stop offset="50%" stop-color="#FF69B4" stop-opacity="0.8"/>
      <stop offset="100%" stop-color="#FFB6C1" stop-opacity="0.6"/>
    </radialGradient>
    <clipPath id="clipCircle">
      <circle cx="0" cy="0" r="50"/>
    </clipPath>
    <clipPath id="clipStar">
      <path d="M0.0,-50.0 L14.7,-20.2 L47.6,-15.5 L23.8,7.7 L29.4,40.5 L0.0,25.0 L-29.4,40.5 L-23.8,7.7 L-47.6,-15.5 L-14.7,-20.2Z"/>
    </clipPath>
    <clipPath id="clipHex">
      <path d="M39.0,22.5 L0.0,45.0 L-39.0,22.5 L-39.0,-22.5 L-0.0,-45.0 L39.0,-22.5Z"/>
    </clipPath>
    <clipPath id="clipRect">
      <rect x="-40" y="-30" width="80" height="60" rx="10"/>
    </clipPath>
    <clipPath id="clipDynamic">
      <circle cx="0" cy="0" r="46.3"/>
    </clipPath>
    <mask id="maskGradient" maskContentUnits="objectBoundingBox">
      <rect x="0" y="0" width="1" height="1" fill="url(#maskGrad)"/>
    </mask>
    <linearGradient id="maskGrad" x1="0%" y1="0%" x2="100%" y2="100%">
      <stop offset="0%" stop-color="white"/>
      <stop offset="100%" stop-color="black"/>
    </linearGradient>
    <mask id="maskCircleFade">
      <circle cx="0" cy="0" r="60" fill="white"/>
      <circle cx="0" cy="0" r="30" fill="black"/>
    </mask>
    <mask id="maskStripes">
      <rect x="-50" y="-50" width="100" height="100" fill="white"/>
      <rect x="-50" y="-40" width="100" height="10" fill="black"/>
      <rect x="-50" y="-20" width="100" height="10" fill="black"/>
      <rect x="-50" y="0" width="100" height="10" fill="black"/>
      <rect x="-50" y="20" width="100" height="10" fill="black"/>
      <rect x="-50" y="40" width="100" height="10" fill="black"/>
    </mask>
    <mask id="maskDynamic">
      <rect x="-60" y="-60" width="120" height="120" fill="white" fill-opacity="0.59"/>
      <circle cx="0" cy="0" r="25" fill="white"/>
    </mask>
  </defs>
  <rect width="1920" height="1080" fill="url(#lgrad0)"/>
  <g transform="translate(122.5, 116.5)">
      <g transform="translate(3.75,2.64) rotate(2.06) scale(1.000)">
        <g transform="translate(4.88,1.64) rotate(5.85) scale(0.980)">
        <g transform="translate(4.81,0.49) rotate(11.01) scale(0.960)">
        <g transform="translate(3.56,-0.71) rotate(17.09) scale(0.940)" clip-path="url(#clipCircle)">
        <g transform="translate(1.44,-1.84) rotate(23.52) scale(0.920)">
        <g transform="translate(-1.03,-2.81) rotate(29.68) scale(0.900)">
        <g transform="translate(-3.25,-3.52) rotate(34.95) scale(0.880)">
        <path d="M0.0,-66.2 L19.4,-26.8 L62.9,-20.5 L31.5,10.2 L38.9,53.5 L0.0,33.1 L-38.9,53.5 L-31.5,10.2 L-62.9,-20.5 L-19.4,-26.8Z" fill="url(#lgrad0)" filter="url(#blur0)" opacity="0.66"/>
      </g>
      </g>
      </g>
      </g>
      </g>
      </g>
      </g>
  </g>
  <g transform="translate(349.3, 100.5)">
      <g transform="translate(4.81,-1.10) rotate(2.06) scale(1.000)">
        <g transform="translate(3.56,-2.19) rotate(5.85) scale(0.980)">
        <g transform="translate(1.44,-3.08) rotate(11.01) scale(0.960)">
        <g transform="translate(-1.03,-3.70) rotate(17.09) scale(0.940)">
        <g transform="translate(-3.25,-3.98) rotate(23.52) scale(0.920)">
        <g transform="translate(-4.67,-3.91) rotate(29.68) scale(0.900)" mask="url(#maskCircleFade)">
        <g transform="translate(-4.95,-3.50) rotate(34.95) scale(0.880)">
        <rect x="-37.4" y="-37.4" width="74.8" height="74.8" rx="18.7" fill="url(#rgrad1)" filter="url(#shadow)" opacity="0.77"/>
        <circle cx="0" cy="0" r="24.9" fill="url(#rgrad2)" opacity="0.54"/>
      </g>
      </g>
      </g>
      </g>
      </g>
      </g>
      </g>
  </g>
  <g transform="translate(568.8, 84.3)">
      <g transform="translate(1.44,-3.83) rotate(2.06) scale(1.000)">
        <g transform="translate(-1.03,-4.00) rotate(5.85) scale(0.980)">
        <g transform="translate(-3.25,-3.81) rotate(11.01) scale(0.960)">
        <g transform="translate(-4.67,-3.28) rotate(17.09) scale(0.940)">
        <g transform="translate(-4.95,-2.46) rotate(23.52) scale(0.920)">
        <g transform="translate(-4.02,-1.42) rotate(29.68) scale(0.900)">
        <g transform="translate(-2.10,-0.25) rotate(34.95) scale(0.880)">
        <path d="M36.3,21.0 L0.0,41.9 L-36.3,21.0 L-36.3,-21.0 L-0.0,-41.9 L36.3,-21.0Z" fill="url(#rgrad2)" filter="url(#blur2)" opacity="0.84"/>
        <ellipse cx="0" cy="0" rx="17.5" ry="11.6" fill="#FFFFFF" opacity="0.42"/>
      </g>
      </g>
      </g>
      </g>
      </g>
      </g>
      </g>
  </g>
  <g transform="translate(781.4, 75.5)">
      <g transform="translate(-3.25,-3.04) rotate(2.06) scale(1.000)">
        <g transform="translate(-4.67,-2.14) rotate(5.85) scale(0.980)">
        <g transform="translate(-4.95,-1.04) rotate(11.01) scale(0.960)">
        <g transform="translate(-4.02,0.15) rotate(17.09) scale(0.940)" clip-path="url(#clipRect)">
        <g transform="translate(-2.10,1.32) rotate(23.52) scale(0.920)">
        <g transform="translate(0.33,2.38) rotate(29.68) scale(0.900)">
        <g transform="translate(2.68,3.22) rotate(34.95) scale(0.880)">
        <circle cx="0" cy="0" r="27.9" fill="url(#lgrad3)" filter="url(#shadow)" opacity="0.89"/>
        <text x="0" y="5" text-anchor="middle" font-family="Arial, sans-serif" font-size="14" fill="#FFFFFF" opacity="0.89">136</text>
      </g>
      </g>
      </g>
      </g>
      </g>
      </g>
      </g>
  </g>
  <g transform="translate(988.7, 78.2)">
      <g transform="translate(-4.95,0.55) rotate(2.06) scale(1.000)">
        <g transform="translate(-4.02,1.69) rotate(5.85) scale(0.980)">
        <g transform="translate(-2.10,2.69) rotate(11.01) scale(0.960)">
        <g transform="translate(0.33,3.44) rotate(17.09) scale(0.940)">
        <g transform="translate(2.68,3.89) rotate(23.52) scale(0.920)">
        <g transform="translate(4.38,3.99) rotate(29.68) scale(0.900)" mask="url(#maskGradient)">
        <g transform="translate(5.00,3.74) rotate(34.95) scale(0.880)">
        <path d="M0.0,-45.6 L13.4,-18.5 L43.4,-14.1 L21.7,7.0 L26.8,36.9 L0.0,22.8 L-26.8,36.9 L-21.7,7.0 L-43.4,-14.1 L-13.4,-18.5Z" fill="url(#rgrad4)" filter="url(#blur4)" opacity="0.90"/>
      </g>
      </g>
      </g>
      </g>
      </g>
      </g>
      </g>
  </g>
  <g transform="translate(1193.8, 91.1)">
      <g transform="translate(-2.10,3.63) rotate(2.06) scale(1.000)">
        <g transform="translate(0.33,3.96) rotate(5.85) scale(0.980)">
        <g transform="translate(2.68,3.95) rotate(11.01) scale(0.960)">
        <g transform="translate(4.38,3.57) rotate(17.09) scale(0.940)">
        <g transform="translate(5.00,2.88) rotate(23.52) scale(0.920)">
        <g transform="translate(4.40,1.93) rotate(29.68) scale(0.900)">
        <g transform="translate(2.72,0.81) rotate(34.95) scale(0.880)">
        <rect x="-24.3" y="-24.3" width="48.6" height="48.6" rx="12.2" fill="url(#rgrad0)" filter="url(#shadow)" opacity="0.88"/>
        <circle cx="0" cy="0" r="16.2" fill="url(#rgrad1)" opacity="0.61"/>
      </g>
      </g>
      </g>
      </g>
      </g>
      </g>
      </g>
  </g>
  <g transform="translate(1400.5, 108.3)">
      <g transform="translate(2.68,3.38) rotate(2.06) scale(1.000)">
        <g transform="translate(4.38,2.59) rotate(5.85) scale(0.980)">
        <g transform="translate(5.00,1.58) rotate(11.01) scale(0.960)">
        <g transform="translate(4.40,0.42) rotate(17.09) scale(0.940)" clip-path="url(#clipStar)">
        <g transform="translate(2.72,-0.78) rotate(23.52) scale(0.920)">
        <g transform="translate(0.38,-1.90) rotate(29.68) scale(0.900)">
        <g transform="translate(-2.06,-2.86) rotate(34.95) scale(0.880)">
        <path d="M32.3,18.6 L0.0,37.3 L-32.3,18.6 L-32.3,-18.6 L-0.0,-37.3 L32.3,-18.6Z" fill="url(#lgrad1)" filter="url(#blur1)" opacity="0.82"/>
        <ellipse cx="0" cy="0" rx="15.5" ry="10.4" fill="#FFFFFF" opacity="0.41"/>
      </g>
      </g>
      </g>
      </g>
      </g>
      </g>
      </g>
  </g>
  <g transform="translate(1612.0, 121.5)">
      <g transform="translate(5.00,0.02) rotate(2.06) scale(1.000)">
        <g transform="translate(4.40,-1.16) rotate(5.85) scale(0.980)">
        <g transform="translate(2.72,-2.24) rotate(11.01) scale(0.960)">
        <g transform="translate(0.38,-3.12) rotate(17.09) scale(0.940)">
        <g transform="translate(-2.06,-3.72) rotate(23.52) scale(0.920)">
        <g transform="translate(-3.99,-3.99) rotate(29.68) scale(0.900)" mask="url(#maskDynamic)">
        <g transform="translate(-4.95,-3.90) rotate(34.95) scale(0.880)">
        <circle cx="0" cy="0" r="36.8" fill="url(#rgrad2)" filter="url(#shadow)" opacity="0.73"/>
        <text x="0" y="5" text-anchor="middle" font-family="Arial, sans-serif" font-size="14" fill="#FFFFFF" opacity="0.73">136</text>
      </g>
      </g>
      </g>
      </g>
      </g>
      </g>
      </g>
  </g>
  <g transform="translate(70.3, 404.7)">
      <g transform="translate(2.72,-3.36) rotate(2.06) scale(1.000)">
        <g transform="translate(0.38,-3.85) rotate(5.85) scale(0.980)">
        <g transform="translate(-2.06,-4.00) rotate(11.01) scale(0.960)">
        <g transform="translate(-3.99,-3.79) rotate(17.09) scale(0.940)">
        <g transform="translate(-4.95,-3.25) rotate(23.52) scale(0.920)">
        <g transform="translate(-4.69,-2.41) rotate(29.68) scale(0.900)">
        <g transform="translate(-3.29,-1.36) rotate(34.95) scale(0.880)">
        <path d="M0.0,-72.6 L21.3,-29.4 L69.1,-22.4 L34.5,11.2 L42.7,58.8 L0.0,36.3 L-42.7,58.8 L-34.5,11.2 L-69.1,-22.4 L-21.3,-29.4Z" fill="url(#rgrad3)" filter="url(#blur3)" opacity="0.62"/>
      </g>
      </g>
      </g>
      </g>
      </g>
      </g>
      </g>
  </g>
  <g transform="translate(295.9, 396.2)">
      <g transform="translate(-2.06,-3.65) rotate(2.06) scale(1.000)">
        <g transform="translate(-3.99,-3.00) rotate(5.85) scale(0.980)">
        <g transform="translate(-4.95,-2.08) rotate(11.01) scale(0.960)">
        <g transform="translate(-4.69,-0.98) rotate(17.09) scale(0.940)" clip-path="url(#clipDynamic)">
        <g transform="translate(-3.29,0.21) rotate(23.52) scale(0.920)">
        <g transform="translate(-1.08,1.38) rotate(29.68) scale(0.900)">
        <g transform="translate(1.39,2.43) rotate(34.95) scale(0.880)">
        <rect x="-30.0" y="-30.0" width="60.0" height="60.0" rx="15.0" fill="url(#lgrad4)" filter="url(#shadow)" opacity="0.51"/>
        <circle cx="0" cy="0" r="20.0" fill="url(#rgrad0)" opacity="0.35"/>
      </g>
      </g>
      </g>
      </g>
      </g>
      </g>
      </g>
  </g>
  <g transform="translate(527.4, 380.1)">
      <g transform="translate(-4.95,-0.58) rotate(2.06) scale(1.000)">
        <g transform="translate(-4.69,0.61) rotate(5.85) scale(0.980)">
        <g transform="translate(-3.29,1.75) rotate(11.01) scale(0.960)">
        <g transform="translate(-1.08,2.74) rotate(17.09) scale(0.940)">
        <g transform="translate(1.39,3.48) rotate(23.52) scale(0.920)">
        <g transform="translate(3.53,3.91) rotate(29.68) scale(0.900)" mask="url(#maskStripes)">
        <g transform="translate(4.79,3.99) rotate(34.95) scale(0.880)">
        <path d="M24.6,14.2 L0.0,28.4 L-24.6,14.2 L-24.6,-14.2 L-0.0,-28.4 L24.6,-14.2Z" fill="url(#rgrad0)" filter="url(#blur0)" opacity="0.39"/>
        <ellipse cx="0" cy="0" rx="11.8" ry="7.9" fill="#FFFFFF" opacity="0.19"/>
      </g>
      </g>
      </g>
      </g>
      </g>
      </g>
      </g>
  </g>
  <g transform="translate(762.0, 364.0)">
      <g transform="translate(-3.29,3.01) rotate(2.06) scale(1.000)">
        <g transform="translate(-1.08,3.66) rotate(5.85) scale(0.980)">
        <g transform="translate(1.39,3.97) rotate(11.01) scale(0.960)">
        <g transform="translate(3.53,3.93) rotate(17.09) scale(0.940)">
        <g transform="translate(4.79,3.54) rotate(23.52) scale(0.920)">
        <g transform="translate(4.89,2.84) rotate(29.68) scale(0.900)">
        <g transform="translate(3.79,1.88) rotate(34.95) scale(0.880)">
        <circle cx="0" cy="0" r="23.2" fill="url(#rgrad1)" filter="url(#shadow)" opacity="0.28"/>
        <text x="0" y="5" text-anchor="middle" font-family="Arial, sans-serif" font-size="14" fill="#FFFFFF" opacity="0.28">136</text>
      </g>
      </g>
      </g>
      </g>
      </g>
      </g>
      </g>
  </g>
  <g transform="translate(996.1, 355.4)">
      <g transform="translate(1.39,3.84) rotate(2.06) scale(1.000)">
        <g transform="translate(3.53,3.34) rotate(5.85) scale(0.980)">
        <g transform="translate(4.79,2.54) rotate(11.01) scale(0.960)">
        <g transform="translate(4.89,1.51) rotate(17.09) scale(0.940)" clip-path="url(#clipHex)">
        <g transform="translate(3.79,0.35) rotate(23.52) scale(0.920)">
        <g transform="translate(1.76,-0.84) rotate(29.68) scale(0.900)">
        <g transform="translate(-0.70,-1.96) rotate(34.95) scale(0.880)">
        <path d="M0.0,-57.9 L17.0,-23.4 L55.0,-17.9 L27.5,8.9 L34.0,46.8 L0.0,28.9 L-34.0,46.8 L-27.5,8.9 L-55.0,-17.9 L-17.0,-23.4Z" fill="url(#lgrad2)" filter="url(#blur2)" opacity="0.19"/>
      </g>
      </g>
      </g>
      </g>
      </g>
      </g>
      </g>
  </g>
  <g transform="translate(1226.3, 358.4)">
      <g transform="translate(4.79,1.14) rotate(2.06) scale(1.000)">
        <g transform="translate(4.89,-0.05) rotate(5.85) scale(0.980)">
        <g transform="translate(3.79,-1.23) rotate(11.01) scale(0.960)">
        <g transform="translate(1.76,-2.30) rotate(17.09) scale(0.940)">
        <g transform="translate(-0.70,-3.16) rotate(23.52) scale(0.920)">
        <g transform="translate(-2.99,-3.75) rotate(29.68) scale(0.900)" mask="url(#maskCircleFade)">
        <g transform="translate(-4.55,-3.99) rotate(34.95) scale(0.880)">
        <rect x="-35.7" y="-35.7" width="71.3" height="71.3" rx="17.8" fill="url(#rgrad3)" filter="url(#shadow)" opacity="0.13"/>
        <circle cx="0" cy="0" r="23.8" fill="url(#rgrad4)" opacity="0.09"/>
      </g>
      </g>
      </g>
      </g>
      </g>
      </g>
      </g>
  </g>
  <g transform="translate(1450.0, 371.5)">
      <g transform="translate(3.79,-2.61) rotate(2.06) scale(1.000)">
        <g transform="translate(1.76,-3.39) rotate(5.85) scale(0.980)">
        <g transform="translate(-0.70,-3.87) rotate(11.01) scale(0.960)">
        <g transform="translate(-2.99,-4.00) rotate(17.09) scale(0.940)">
        <g transform="translate(-4.55,-3.77) rotate(23.52) scale(0.920)">
        <g transform="translate(-4.99,-3.21) rotate(29.68) scale(0.900)">
        <g transform="translate(-4.21,-2.36) rotate(34.95) scale(0.880)">
        <path d="M38.7,22.3 L0.0,44.6 L-38.7,22.3 L-38.7,-22.3 L-0.0,-44.6 L38.7,-22.3Z" fill="url(#rgrad4)" filter="url(#blur4)" opacity="0.10"/>
        <ellipse cx="0" cy="0" rx="18.6" ry="12.4" fill="#FFFFFF" opacity="0.05"/>
      </g>
      </g>
      </g>
      </g>
      </g>
      </g>
      </g>
  </g>
  <g transform="translate(1666.4, 388.7)">
      <g transform="translate(-0.70,-3.96) rotate(2.06) scale(1.000)">
        <g transform="translate(-2.99,-3.62) rotate(5.85) scale(0.980)">
        <g transform="translate(-4.55,-2.95) rotate(11.01) scale(0.960)">
        <g transform="translate(-4.99,-2.02) rotate(17.09) scale(0.940)" clip-path="url(#clipCircle)">
        <g transform="translate(-4.21,-0.91) rotate(23.52) scale(0.920)">
        <g transform="translate(-2.40,0.28) rotate(29.68) scale(0.900)">
        <g transform="translate(-0.00,1.45) rotate(34.95) scale(0.880)">
        <circle cx="0" cy="0" r="32.1" fill="url(#lgrad0)" filter="url(#shadow)" opacity="0.11"/>
        <text x="0" y="5" text-anchor="middle" font-family="Arial, sans-serif" font-size="14" fill="#FFFFFF" opacity="0.11">136</text>
      </g>
      </g>
      </g>
      </g>
      </g>
      </g>
      </g>
  </g>
  <g transform="translate(116.3, 681.7)">
      <g transform="translate(-4.55,-1.67) rotate(2.06) scale(1.000)">
        <g transform="translate(-4.99,-0.52) rotate(5.85) scale(0.980)">
        <g transform="translate(-4.21,0.68) rotate(11.01) scale(0.960)">
        <g transform="translate(-2.40,1.81) rotate(17.09) scale(0.940)">
        <g transform="translate(-0.00,2.79) rotate(23.52) scale(0.920)">
        <g transform="translate(2.40,3.51) rotate(29.68) scale(0.900)" mask="url(#maskGradient)">
        <g transform="translate(4.21,3.92) rotate(34.95) scale(0.880)">
        <path d="M0.0,-50.1 L14.7,-20.3 L47.7,-15.5 L23.8,7.7 L29.5,40.6 L0.0,25.1 L-29.5,40.6 L-23.8,7.7 L-47.7,-15.5 L-14.7,-20.3Z" fill="url(#rgrad1)" filter="url(#blur1)" opacity="0.15"/>
      </g>
      </g>
      </g>
      </g>
      </g>
      </g>
      </g>
  </g>
  <g transform="translate(322.3, 684.6)">
      <g transform="translate(-4.21,2.16) rotate(2.06) scale(1.000)">
        <g transform="translate(-2.40,3.06) rotate(5.85) scale(0.980)">
        <g transform="translate(-0.00,3.68) rotate(11.01) scale(0.960)">
        <g transform="translate(2.40,3.98) rotate(17.09) scale(0.940)">
        <g transform="translate(4.21,3.92) rotate(23.52) scale(0.920)">
        <g transform="translate(4.99,3.51) rotate(29.68) scale(0.900)">
        <g transform="translate(4.55,2.79) rotate(34.95) scale(0.880)">
        <rect x="-22.6" y="-22.6" width="45.2" height="45.2" rx="11.3" fill="url(#rgrad2)" filter="url(#shadow)" opacity="0.22"/>
        <circle cx="0" cy="0" r="15.1" fill="url(#rgrad3)" opacity="0.16"/>
      </g>
      </g>
      </g>
      </g>
      </g>
      </g>
      </g>
  </g>
  <g transform="translate(527.6, 675.9)">
      <g transform="translate(-0.00,4.00) rotate(2.06) scale(1.000)">
        <g transform="translate(2.40,3.82) rotate(5.85) scale(0.980)">
        <g transform="translate(4.21,3.30) rotate(11.01) scale(0.960)">
        <g transform="translate(4.99,2.49) rotate(17.09) scale(0.940)" clip-path="url(#clipRect)">
        <g transform="translate(4.55,1.45) rotate(23.52) scale(0.920)">
        <g transform="translate(2.99,0.28) rotate(29.68) scale(0.900)">
        <g transform="translate(0.71,-0.91) rotate(34.95) scale(0.880)">
        <path d="M28.0,16.1 L0.0,32.3 L-28.0,16.1 L-28.0,-16.1 L-0.0,-32.3 L28.0,-16.1Z" fill="url(#lgrad3)" filter="url(#blur3)" opacity="0.32"/>
        <ellipse cx="0" cy="0" rx="13.5" ry="9.0" fill="#FFFFFF" opacity="0.16"/>
      </g>
      </g>
      </g>
      </g>
      </g>
      </g>
      </g>
  </g>
  <g transform="translate(736.1, 659.7)">
      <g transform="translate(4.21,2.16) rotate(2.06) scale(1.000)">
        <g transform="translate(4.99,1.07) rotate(5.85) scale(0.980)">
        <g transform="translate(4.55,-0.11) rotate(11.01) scale(0.960)">
        <g transform="translate(2.99,-1.29) rotate(17.09) scale(0.940)">
        <g transform="translate(0.71,-2.35) rotate(23.52) scale(0.920)">
        <g transform="translate(-1.75,-3.20) rotate(29.68) scale(0.900)" mask="url(#maskDynamic)">
        <g transform="translate(-3.78,-3.77) rotate(34.95) scale(0.880)">
        <circle cx="0" cy="0" r="34.1" fill="url(#rgrad4)" filter="url(#shadow)" opacity="0.44"/>
        <text x="0" y="5" text-anchor="middle" font-family="Arial, sans-serif" font-size="14" fill="#FFFFFF" opacity="0.44">136</text>
      </g>
      </g>
      </g>
      </g>
      </g>
      </g>
      </g>
  </g>
  <g transform="translate(950.3, 643.7)">
      <g transform="translate(4.55,-1.66) rotate(2.06) scale(1.000)">
        <g transform="translate(2.99,-2.66) rotate(5.85) scale(0.980)">
        <g transform="translate(0.71,-3.43) rotate(11.01) scale(0.960)">
        <g transform="translate(-1.75,-3.88) rotate(17.09) scale(0.940)">
        <g transform="translate(-3.78,-3.99) rotate(23.52) scale(0.920)">
        <g transform="translate(-4.89,-3.75) rotate(29.68) scale(0.900)">
        <g transform="translate(-4.80,-3.17) rotate(34.95) scale(0.880)">
        <path d="M0.0,-75.0 L22.0,-30.3 L71.3,-23.2 L35.7,11.6 L44.1,60.7 L0.0,37.5 L-44.1,60.7 L-35.7,11.6 L-71.3,-23.2 L-22.0,-30.3Z" fill="url(#rgrad0)" filter="url(#blur0)" opacity="0.56"/>
      </g>
      </g>
      </g>
      </g>
      </g>
      </g>
      </g>
  </g>
  <g transform="translate(1171.9, 635.3)">
      <g transform="translate(0.71,-3.96) rotate(2.06) scale(1.000)">
        <g transform="translate(-1.75,-3.95) rotate(5.85) scale(0.980)">
        <g transform="translate(-3.78,-3.59) rotate(11.01) scale(0.960)">
        <g transform="translate(-4.89,-2.91) rotate(17.09) scale(0.940)" clip-path="url(#clipStar)">
        <g transform="translate(-4.80,-1.96) rotate(23.52) scale(0.920)">
        <g transform="translate(-3.53,-0.85) rotate(29.68) scale(0.900)">
        <g transform="translate(-1.40,0.35) rotate(34.95) scale(0.880)">
        <rect x="-34.0" y="-34.0" width="68.1" height="68.1" rx="17.0" fill="url(#lgrad1)" filter="url(#shadow)" opacity="0.67"/>
        <circle cx="0" cy="0" r="22.7" fill="url(#rgrad2)" opacity="0.47"/>
      </g>
      </g>
      </g>
      </g>
      </g>
      </g>
      </g>
  </g>
  <g transform="translate(1400.3, 638.6)">
      <g transform="translate(-3.78,-2.62) rotate(2.06) scale(1.000)">
        <g transform="translate(-4.89,-1.60) rotate(5.85) scale(0.980)">
        <g transform="translate(-4.80,-0.45) rotate(11.01) scale(0.960)">
        <g transform="translate(-3.53,0.74) rotate(17.09) scale(0.940)">
        <g transform="translate(-1.40,1.87) rotate(23.52) scale(0.920)">
        <g transform="translate(1.07,2.83) rotate(29.68) scale(0.900)" mask="url(#maskStripes)">
        <g transform="translate(3.28,3.54) rotate(34.95) scale(0.880)">
        <path d="M27.9,16.1 L0.0,32.2 L-27.9,16.1 L-27.9,-16.1 L-0.0,-32.2 L27.9,-16.1Z" fill="url(#rgrad2)" filter="url(#blur2)" opacity="0.77"/>
        <ellipse cx="0" cy="0" rx="13.4" ry="9.0" fill="#FFFFFF" opacity="0.39"/>
      </g>
      </g>
      </g>
      </g>
      </g>
      </g>
      </g>
  </g>
  <g transform="translate(1633.5, 651.9)">
      <g transform="translate(-4.80,1.13) rotate(2.06) scale(1.000)">
        <g transform="translate(-3.53,2.22) rotate(5.85) scale(0.980)">
        <g transform="translate(-1.40,3.10) rotate(11.01) scale(0.960)">
        <g transform="translate(1.07,3.71) rotate(17.09) scale(0.940)">
        <g transform="translate(3.28,3.99) rotate(23.52) scale(0.920)">
        <g transform="translate(4.69,3.91) rotate(29.68) scale(0.900)">
        <g transform="translate(4.95,3.48) rotate(34.95) scale(0.880)">
        <circle cx="0" cy="0" r="22.6" fill="url(#rgrad3)" filter="url(#shadow)" opacity="0.85"/>
        <text x="0" y="5" text-anchor="middle" font-family="Arial, sans-serif" font-size="14" fill="#FFFFFF" opacity="0.85">136</text>
      </g>
      </g>
      </g>
      </g>
      </g>
      </g>
      </g>
  </g>
  <g transform="translate(108.4, 949.0)">
      <g transform="translate(-1.40,3.84) rotate(2.06) scale(1.000)">
        <g transform="translate(1.07,4.00) rotate(5.85) scale(0.980)">
        <g transform="translate(3.28,3.80) rotate(11.01) scale(0.960)">
        <g transform="translate(4.69,3.26) rotate(17.09) scale(0.940)" clip-path="url(#clipDynamic)">
        <g transform="translate(4.95,2.43) rotate(23.52) scale(0.920)">
        <g transform="translate(3.99,1.39) rotate(29.68) scale(0.900)">
        <g transform="translate(2.06,0.22) rotate(34.95) scale(0.880)">
        <path d="M0.0,-50.2 L14.8,-20.3 L47.8,-15.5 L23.9,7.8 L29.5,40.6 L0.0,25.1 L-29.5,40.6 L-23.9,7.8 L-47.8,-15.5 L-14.8,-20.3Z" fill="url(#lgrad4)" filter="url(#blur4)" opacity="0.89"/>
      </g>
      </g>
      </g>
      </g>
      </g>
      </g>
      </g>
  </g>
  <g transform="translate(375.1, 352.9)" mask="url(#maskGradient)">
    <ellipse cx="0" cy="0" rx="200" ry="150" fill="url(#rgrad0)" filter="url(#blur3)" opacity="0.3"/>
  </g>
  <g transform="translate(896.2, 301.7)" mask="url(#maskCircleFade)">
    <ellipse cx="0" cy="0" rx="200" ry="150" fill="url(#rgrad1)" filter="url(#blur3)" opacity="0.3"/>
  </g>
  <g transform="translate(1328.8, 249.8)" mask="url(#maskStripes)">
    <ellipse cx="0" cy="0" rx="200" ry="150" fill="url(#rgrad2)" filter="url(#blur3)" opacity="0.3"/>
  </g>
</svg>