<?xml version="1.0" encoding="UTF-8"?>
<svg xmlns="http://www.w3.org/2000/svg" viewBox="0 0 1920 1080" width="1920" height="1080">
  <defs>
    <filter id="blur0" x="-50%" y="-50%" width="200%" height="200%">
      <feGaussianBlur in="SourceGraphic" stdDeviation="1"/>
    </filter>
    <filter id="blur1" x="-50%" y="-50%" width="200%" height="200%">
      <feGaussianBlur in="SourceGraphic" stdDeviation="3"/>
    </filter>
    <filter id="blur2" x="-50%" y="-50%" width="200%" height="200%">
      <feGaussianBlur in="SourceGraphic" stdDeviation="5"/>
    </filter>
    <filter id="blur3" x="-50%" y="-50%" width="200%" height="200%">
      <feGaussianBlur in="SourceGraphic" stdDeviation="7"/>
    </filter>
    <filter id="blur4" x="-50%" y="-50%" width="200%" height="200%">
      <feGaussianBlur in="SourceGraphic" stdDeviation="9"/>
    </filter>
    <filter id="shadow" x="-50%" y="-50%" width="200%" height="200%">
      <feGaussianBlur in="SourceAlpha" stdDeviation="3" result="blur"/>
      <feOffset in="blur" dx="4" dy="4" result="offsetBlur"/>
      <feMerge>
        <feMergeNode in="offsetBlur"/>
        <feMergeNode in="SourceGraphic"/>
      </feMerge>
    </filter>
    <linearGradient id="lgrad0" x1="0%" y1="0%" x2="71.5%" y2="4.9%">
      <stop offset="0%" stop-color="#FF6B6B"/>
      <stop offset="33%" stop-color="#4ECDC4"/>
      <stop offset="66%" stop-color="#45B7D1"/>
      <stop offset="100%" stop-color="#96E6A1"/>
    </linearGradient>
    <linearGradient id="lgrad1" x1="0%" y1="0%" x2="91.2%" y2="21.7%">
      <stop offset="0%" stop-color="#FFE66D"/>
      <stop offset="33%" stop-color="#FF6B6B"/>
      <stop offset="66%" stop-color="#C44D58"/>
      <stop offset="100%" stop-color="#8B0000"/>
    </linearGradient>
    <linearGradient id="lgrad2" x1="0%" y1="0%" x2="99.8%" y2="46.1%">
      <stop offset="0%" stop-color="#4169E1"/>
      <stop offset="33%" stop-color="#7B68EE"/>
      <stop offset="66%" stop-color="#9370DB"/>
      <stop offset="100%" stop-color="#FFD700"/>
    </linearGradient>
    <linearGradient id="lgrad3" x1="0%" y1="0%" x2="95.1%" y2="71.5%">
      <stop offset="0%" stop-color="#32CD32"/>
      <stop offset="33%" stop-color="#228B22"/>
      <stop offset="66%" stop-color="#006400"/>
      <stop offset="100%" stop-color="#ADFF2F"/>
    </linearGradient>
    <linearGradient id="lgrad4" x1="0%" y1="0%" x2="78.3%" y2="91.2%">
      <stop offset="0%" stop-color="#FF1493"/>
      <stop offset="33%" stop-color="#FF69B4"/>
      <stop offset="66%" stop-color="#FFB6C1"/>
      <stop offset="100%" stop-color="#FFC0CB"/>
    </linearGradient>
    <radialGradient id="rgrad0" cx="60.3%" cy="50.2%" r="60%">
      <stop offset="0%" stop-color="#FF6B6B" stop-opacity="1"/>
      <stop offset="50%" stop-color="#4ECDC4" stop-opacity="0.8"/>
      <stop offset="100%" stop-color="#45B7D1" stop-opacity="0.6"/>
    </radialGradient>
    <radialGradient id="rgrad1" cx="30.3%" cy="58.2%" r="60%">
      <stop offset="0%" stop-color="#FFE66D" stop-opacity="1"/>
      <stop offset="50%" stop-color="#FF6B6B" stop-opacity="0.8"/>
      <stop offset="100%" stop-color="#C44D58" stop-opacity="0.6"/>
    </radialGradient>
    <radialGradient id="rgrad2" cx="40.3%" cy="66.2%" r="60%">
      <stop offset="0%" stop-color="#4169E1" stop-opacity="1"/>
      <stop offset="50%" stop-color="#7B68EE" stop-opacity="0.8"/>
      <stop offset="100%" stop-color="#9370DB" stop-opacity="0.6"/>
    </radialGradient>
    <radialGradient id="rgrad3" cx="50.3%" cy="34.2%" r="60%">
      <stop offset="0%" stop-color="#32CD32" stop-opacity="1"/>
      <stop offset="50%" stop-color="#228B22" stop-opacity="0.8"/>
      <stop offset="100%" stop-color="#006400" stop-opacity="0.6"/>
    </radialGradient>
    <radialGradient id="rgrad4" cx="60.3%" cy="42.2%" r="60%">
      <stop offset="0%" stop-color="#FF1493" stop-opacity="1"/>
      <stop offset="50%" stop-color="#FF69B4" stop-opacity="0.8"/>
      <stop offset="100%" stop-color="#FFB6C1" stop-opacity="0.6"/>
    </radialGradient>
    <clipPath id="clipCircle">
      <circle cx="0" cy="0" r="50"/>
    </clipPath>
    <clipPath id="clipStar">
      <path d="M0.0,-50.0 L14.7,-20.2 L47.6,-15.5 L23.8,7.7 L29.4,40.5 L0.0,25.0 L-29.4,40.5 L-23.8,7.7 L-47.6,-15.5 L-14.7,-20.2Z"/>
    </clipPath>
    <clipPath id="clipHex">
      <path d="M39.0,22.5 L0.0,45.0 L-39.0,22.5 L-39.0,-22.5 L-0.0,-45.0 L39.0,-22.5Z"/>
    </clipPath>
    <clipPath id="clipRect">
      <rect x="-40" y="-30" width="80" height="60" rx="10"/>
    </clipPath>
    <clipPath id="clipDynamic">
      <circle cx="0" cy="0" r="35.0"/>
    </clipPath>
    <mask id="maskGradient" maskContentUnits="objectBoundingBox">
      <rect x="0" y="0" width="1" height="1" fill="url(#maskGrad)"/>
    </mask>
    <linearGradient id="maskGrad" x1="0%" y1="0%" x2="100%" y2="100%">
      <stop offset="0%" stop-color="white"/>
      <stop offset="100%" stop-color="black"/>
    </linearGradient>
    <mask id="maskCircleFade">
      <circle cx="0" cy="0" r="60" fill="white"/>
      <circle cx="0" cy="0" r="30" fill="black"/>
    </mask>
    <mask id="maskStripes">
      <rect x="-50" y="-50" width="100" height="100" fill="white"/>
      <rect x="-50" y="-40" width="100" height="10" fill="black"/>
      <rect x="-50" y="-20" width="100" height="10" fill="black"/>
      <rect x="-50" y="0" width="100" height="10" fill="black"/>
      <rect x="-50" y="20" width="100" height="10" fill="black"/>
      <rect x="-50" y="40" width="100" height="10" fill="black"/>
    </mask>
    <mask id="maskDynamic">
      <rect x="-60" y="-60" width="120" height="120" fill="white" fill-opacity="1.00"/>
      <circle cx="0" cy="0" r="25" fill="white"/>
    </mask>
  </defs>
  <rect width="1920" height="1080" fill="url(#lgrad0)"/>
  <g transform="translate(99.9, 75.0)">
      <g transform="translate(-0.02,-4.00) rotate(5.00) scale(1.000)">
        <g transform="translate(-2.41,-3.82) rotate(9.80) scale(0.980)">
        <g transform="translate(-4.22,-3.29) rotate(13.81) scale(0.960)">
        <g transform="translate(-4.99,-2.48) rotate(16.49) scale(0.940)" clip-path="url(#clipCircle)">
        <g transform="translate(-4.54,-1.44) rotate(17.39) scale(0.920)">
        <g transform="translate(-2.98,-0.27) rotate(16.17) scale(0.900)">
        <g transform="translate(-0.69,0.92) rotate(12.63) scale(0.880)">
        <path d="M0.0,-75.0 L22.0,-30.3 L71.3,-23.2 L35.7,11.6 L44.1,60.7 L0.0,37.5 L-44.1,60.7 L-35.7,11.6 L-71.3,-23.2 L-22.0,-30.3Z" fill="url(#lgrad0)" filter="url(#blur0)" opacity="0.90"/>
      </g>
      </g>
      </g>
      </g>
      </g>
      </g>
      </g>
  </g>
  <g transform="translate(305.5, 80.9)">
      <g transform="translate(-4.22,-2.15) rotate(5.00) scale(1.000)">
        <g transform="translate(-4.99,-1.06) rotate(9.80) scale(0.980)">
        <g transform="translate(-4.54,0.13) rotate(13.81) scale(0.960)">
        <g transform="translate(-2.98,1.31) rotate(16.49) scale(0.940)">
        <g transform="translate(-0.69,2.36) rotate(17.39) scale(0.920)">
        <g transform="translate(1.77,3.21) rotate(16.17) scale(0.900)" mask="url(#maskCircleFade)">
        <g transform="translate(3.79,3.77) rotate(12.63) scale(0.880)">
        <rect x="-34.0" y="-34.0" width="68.1" height="68.1" rx="17.0" fill="url(#rgrad1)" filter="url(#shadow)" opacity="0.88"/>
        <circle cx="0" cy="0" r="22.7" fill="url(#rgrad2)" opacity="0.62"/>
      </g>
      </g>
      </g>
      </g>
      </g>
      </g>
      </g>
  </g>
  <g transform="translate(514.7, 95.8)">
      <g transform="translate(-4.54,1.68) rotate(5.00) scale(1.000)">
        <g transform="translate(-2.98,2.67) rotate(9.80) scale(0.980)">
        <g transform="translate(-0.69,3.43) rotate(13.81) scale(0.960)">
        <g transform="translate(1.77,3.89) rotate(16.49) scale(0.940)">
        <g transform="translate(3.79,3.99) rotate(17.39) scale(0.920)">
        <g transform="translate(4.89,3.74) rotate(16.17) scale(0.900)">
        <g transform="translate(4.79,3.16) rotate(12.63) scale(0.880)">
        <path d="M27.9,16.1 L0.0,32.2 L-27.9,16.1 L-27.9,-16.1 L-0.0,-32.2 L27.9,-16.1Z" fill="url(#rgrad2)" filter="url(#blur2)" opacity="0.83"/>
        <ellipse cx="0" cy="0" rx="13.4" ry="9.0" fill="#FFFFFF" opacity="0.41"/>
      </g>
      </g>
      </g>
      </g>
      </g>
      </g>
      </g>
  </g>
  <g transform="translate(730.1, 112.7)">
      <g transform="translate(-0.69,3.96) rotate(5.00) scale(1.000)">
        <g transform="translate(1.77,3.95) rotate(9.80) scale(0.980)">
        <g transform="translate(3.79,3.58) rotate(13.81) scale(0.960)">
        <g transform="translate(4.89,2.90) rotate(16.49) scale(0.940)" clip-path="url(#clipRect)">
        <g transform="translate(4.79,1.95) rotate(17.39) scale(0.920)">
        <g transform="translate(3.52,0.83) rotate(16.17) scale(0.900)">
        <g transform="translate(1.38,-0.36) rotate(12.63) scale(0.880)">
        <circle cx="0" cy="0" r="22.6" fill="url(#lgrad3)" filter="url(#shadow)" opacity="0.75"/>
        <text x="0" y="5" text-anchor="middle" font-family="Arial, sans-serif" font-size="14" fill="#FFFFFF" opacity="0.75">501</text>
      </g>
      </g>
      </g>
      </g>
      </g>
      </g>
      </g>
  </g>
  <g transform="translate(952.8, 123.6)">
      <g transform="translate(3.79,2.61) rotate(5.00) scale(1.000)">
        <g transform="translate(4.89,1.59) rotate(9.80) scale(0.980)">
        <g transform="translate(4.79,0.44) rotate(13.81) scale(0.960)">
        <g transform="translate(3.52,-0.76) rotate(16.49) scale(0.940)">
        <g transform="translate(1.38,-1.89) rotate(17.39) scale(0.920)">
        <g transform="translate(-1.09,-2.84) rotate(16.17) scale(0.900)" mask="url(#maskGradient)">
        <g transform="translate(-3.30,-3.55) rotate(12.63) scale(0.880)">
        <path d="M0.0,-50.2 L14.8,-20.3 L47.8,-15.5 L23.9,7.8 L29.5,40.6 L0.0,25.1 L-29.5,40.6 L-23.9,7.8 L-47.8,-15.5 L-14.8,-20.3Z" fill="url(#rgrad4)" filter="url(#blur4)" opacity="0.64"/>
      </g>
      </g>
      </g>
      </g>
      </g>
      </g>
      </g>
  </g>
  <g transform="translate(1182.1, 123.4)">
      <g transform="translate(4.79,-1.15) rotate(5.00) scale(1.000)">
        <g transform="translate(3.52,-2.23) rotate(9.80) scale(0.980)">
        <g transform="translate(1.38,-3.11) rotate(13.81) scale(0.960)">
        <g transform="translate(-1.09,-3.71) rotate(16.49) scale(0.940)">
        <g transform="translate(-3.30,-3.99) rotate(17.39) scale(0.920)">
        <g transform="translate(-4.70,-3.90) rotate(16.17) scale(0.900)">
        <g transform="translate(-4.94,-3.47) rotate(12.63) scale(0.880)">
        <rect x="-32.1" y="-32.1" width="64.3" height="64.3" rx="16.1" fill="url(#rgrad0)" filter="url(#shadow)" opacity="0.53"/>
        <circle cx="0" cy="0" r="21.4" fill="url(#rgrad1)" opacity="0.37"/>
      </g>
      </g>
      </g>
      </g>
      </g>
      </g>
      </g>
  </g>
  <g transform="translate(1415.9, 112.2)">
      <g transform="translate(1.38,-3.84) rotate(5.00) scale(1.000)">
        <g transform="translate(-1.09,-4.00) rotate(9.80) scale(0.980)">
        <g transform="translate(-3.30,-3.80) rotate(13.81) scale(0.960)">
        <g transform="translate(-4.70,-3.26) rotate(16.49) scale(0.940)" clip-path="url(#clipStar)">
        <g transform="translate(-4.94,-2.42) rotate(17.39) scale(0.920)">
        <g transform="translate(-3.98,-1.37) rotate(16.17) scale(0.900)">
        <g transform="translate(-2.05,-0.20) rotate(12.63) scale(0.880)">
        <path d="M38.7,22.3 L0.0,44.6 L-38.7,22.3 L-38.7,-22.3 L-0.0,-44.6 L38.7,-22.3Z" fill="url(#lgrad1)" filter="url(#blur1)" opacity="0.41"/>
        <ellipse cx="0" cy="0" rx="18.6" ry="12.4" fill="#FFFFFF" opacity="0.20"/>
      </g>
      </g>
      </g>
      </g>
      </g>
      </g>
      </g>
  </g>
  <g transform="translate(1650.6, 95.3)">
      <g transform="translate(-3.30,-3.01) rotate(5.00) scale(1.000)">
        <g transform="translate(-4.70,-2.09) rotate(9.80) scale(0.980)">
        <g transform="translate(-4.94,-0.99) rotate(13.81) scale(0.960)">
        <g transform="translate(-3.98,0.20) rotate(16.49) scale(0.940)">
        <g transform="translate(-2.05,1.37) rotate(17.39) scale(0.920)">
        <g transform="translate(0.39,2.42) rotate(16.17) scale(0.900)" mask="url(#maskDynamic)">
        <g transform="translate(2.73,3.25) rotate(12.63) scale(0.880)">
        <circle cx="0" cy="0" r="35.6" fill="url(#rgrad2)" filter="url(#shadow)" opacity="0.30"/>
        <text x="0" y="5" text-anchor="middle" font-family="Arial, sans-serif" font-size="14" fill="#FFFFFF" opacity="0.30">501</text>
      </g>
      </g>
      </g>
      </g>
      </g>
      </g>
      </g>
  </g>
  <g transform="translate(122.8, 360.6)">
      <g transform="translate(-4.94,0.59) rotate(5.00) scale(1.000)">
        <g transform="translate(-3.98,1.74) rotate(9.80) scale(0.980)">
        <g transform="translate(-2.05,2.72) rotate(13.81) scale(0.960)">
        <g transform="translate(0.39,3.47) rotate(16.49) scale(0.940)">
        <g transform="translate(2.73,3.90) rotate(17.39) scale(0.920)">
        <g transform="translate(4.41,3.99) rotate(16.17) scale(0.900)">
        <g transform="translate(5.00,3.72) rotate(12.63) scale(0.880)">
        <path d="M0.0,-57.8 L17.0,-23.4 L55.0,-17.9 L27.5,8.9 L34.0,46.8 L0.0,28.9 L-34.0,46.8 L-27.5,8.9 L-55.0,-17.9 L-17.0,-23.4Z" fill="url(#rgrad3)" filter="url(#blur3)" opacity="0.20"/>
      </g>
      </g>
      </g>
      </g>
      </g>
      </g>
      </g>
  </g>
  <g transform="translate(349.3, 355.0)">
      <g transform="translate(-2.05,3.65) rotate(5.00) scale(1.000)">
        <g transform="translate(0.39,3.97) rotate(9.80) scale(0.980)">
        <g transform="translate(2.73,3.94) rotate(13.81) scale(0.960)">
        <g transform="translate(4.41,3.55) rotate(16.49) scale(0.940)" clip-path="url(#clipDynamic)">
        <g transform="translate(5.00,2.85) rotate(17.39) scale(0.920)">
        <g transform="translate(4.37,1.89) rotate(16.17) scale(0.900)">
        <g transform="translate(2.67,0.76) rotate(12.63) scale(0.880)">
        <rect x="-23.2" y="-23.2" width="46.3" height="46.3" rx="11.6" fill="url(#lgrad4)" filter="url(#shadow)" opacity="0.14"/>
        <circle cx="0" cy="0" r="15.4" fill="url(#rgrad0)" opacity="0.10"/>
      </g>
      </g>
      </g>
      </g>
      </g>
      </g>
      </g>
  </g>
  <g transform="translate(568.7, 361.2)">
      <g transform="translate(2.73,3.35) rotate(5.00) scale(1.000)">
        <g transform="translate(4.41,2.55) rotate(9.80) scale(0.980)">
        <g transform="translate(5.00,1.53) rotate(13.81) scale(0.960)">
        <g transform="translate(4.37,0.37) rotate(16.49) scale(0.940)">
        <g transform="translate(2.67,-0.82) rotate(17.39) scale(0.920)">
        <g transform="translate(0.32,-1.94) rotate(16.17) scale(0.900)" mask="url(#maskStripes)">
        <g transform="translate(-2.12,-2.89) rotate(12.63) scale(0.880)">
        <path d="M24.6,14.2 L0.0,28.5 L-24.6,14.2 L-24.6,-14.2 L-0.0,-28.5 L24.6,-14.2Z" fill="url(#rgrad0)" filter="url(#blur0)" opacity="0.10"/>
        <ellipse cx="0" cy="0" rx="11.9" ry="7.9" fill="#FFFFFF" opacity="0.05"/>
      </g>
      </g>
      </g>
      </g>
      </g>
      </g>
      </g>
  </g>
  <g transform="translate(781.1, 376.2)">
      <g transform="translate(5.00,-0.03) rotate(5.00) scale(1.000)">
        <g transform="translate(4.37,-1.21) rotate(9.80) scale(0.980)">
        <g transform="translate(2.67,-2.28) rotate(13.81) scale(0.960)">
        <g transform="translate(0.32,-3.15) rotate(16.49) scale(0.940)">
        <g transform="translate(-2.12,-3.74) rotate(17.39) scale(0.920)">
        <g transform="translate(-4.03,-3.99) rotate(16.17) scale(0.900)">
        <g transform="translate(-4.96,-3.89) rotate(12.63) scale(0.880)">
        <circle cx="0" cy="0" r="30.0" fill="url(#rgrad1)" filter="url(#shadow)" opacity="0.11"/>
        <text x="0" y="5" text-anchor="middle" font-family="Arial, sans-serif" font-size="14" fill="#FFFFFF" opacity="0.11">501</text>
      </g>
      </g>
      </g>
      </g>
      </g>
      </g>
      </g>
  </g>
  <g transform="translate(988.3, 393.0)">
      <g transform="translate(2.67,-3.38) rotate(5.00) scale(1.000)">
        <g transform="translate(0.32,-3.86) rotate(9.80) scale(0.980)">
        <g transform="translate(-2.12,-4.00) rotate(13.81) scale(0.960)">
        <g transform="translate(-4.03,-3.78) rotate(16.49) scale(0.940)" clip-path="url(#clipHex)">
        <g transform="translate(-4.96,-3.22) rotate(17.39) scale(0.920)">
        <g transform="translate(-4.67,-2.37) rotate(16.17) scale(0.900)">
        <g transform="translate(-3.24,-1.31) rotate(12.63) scale(0.880)">
        <path d="M0.0,-72.7 L21.4,-29.4 L69.1,-22.5 L34.6,11.2 L42.7,58.8 L0.0,36.3 L-42.7,58.8 L-34.6,11.2 L-69.1,-22.5 L-21.4,-29.4Z" fill="url(#lgrad2)" filter="url(#blur2)" opacity="0.14"/>
      </g>
      </g>
      </g>
      </g>
      </g>
      </g>
      </g>
  </g>
  <g transform="translate(1193.5, 403.7)">
      <g transform="translate(-2.12,-3.62) rotate(5.00) scale(1.000)">
        <g transform="translate(-4.03,-2.96) rotate(9.80) scale(0.980)">
        <g transform="translate(-4.96,-2.04) rotate(13.81) scale(0.960)">
        <g transform="translate(-4.67,-0.93) rotate(16.49) scale(0.940)">
        <g transform="translate(-3.24,0.26) rotate(17.39) scale(0.920)">
        <g transform="translate(-1.02,1.43) rotate(16.17) scale(0.900)" mask="url(#maskCircleFade)">
        <g transform="translate(1.45,2.47) rotate(12.63) scale(0.880)">
        <rect x="-36.8" y="-36.8" width="73.6" height="73.6" rx="18.4" fill="url(#rgrad3)" filter="url(#shadow)" opacity="0.21"/>
        <circle cx="0" cy="0" r="24.5" fill="url(#rgrad4)" opacity="0.15"/>
      </g>
      </g>
      </g>
      </g>
      </g>
      </g>
      </g>
  </g>
  <g transform="translate(1400.2, 403.2)">
      <g transform="translate(-4.96,-0.53) rotate(5.00) scale(1.000)">
        <g transform="translate(-4.67,0.66) rotate(9.80) scale(0.980)">
        <g transform="translate(-3.24,1.80) rotate(13.81) scale(0.960)">
        <g transform="translate(-1.02,2.77) rotate(16.49) scale(0.940)">
        <g transform="translate(1.45,3.50) rotate(17.39) scale(0.920)">
        <g transform="translate(3.57,3.92) rotate(16.17) scale(0.900)">
        <g transform="translate(4.81,3.98) rotate(12.63) scale(0.880)">
        <path d="M32.2,18.6 L0.0,37.2 L-32.2,18.6 L-32.2,-18.6 L-0.0,-37.2 L32.2,-18.6Z" fill="url(#rgrad4)" filter="url(#blur4)" opacity="0.30"/>
        <ellipse cx="0" cy="0" rx="15.5" ry="10.3" fill="#FFFFFF" opacity="0.15"/>
      </g>
      </g>
      </g>
      </g>
      </g>
      </g>
      </g>
  </g>
  <g transform="translate(1611.8, 391.8)">
      <g transform="translate(-3.24,3.05) rotate(5.00) scale(1.000)">
        <g transform="translate(-1.02,3.68) rotate(9.80) scale(0.980)">
        <g transform="translate(1.45,3.98) rotate(13.81) scale(0.960)">
        <g transform="translate(3.57,3.92) rotate(16.49) scale(0.940)" clip-path="url(#clipCircle)">
        <g transform="translate(4.81,3.52) rotate(17.39) scale(0.920)">
        <g transform="translate(4.87,2.80) rotate(16.17) scale(0.900)">
        <g transform="translate(3.74,1.83) rotate(12.63) scale(0.880)">
        <circle cx="0" cy="0" r="24.3" fill="url(#lgrad0)" filter="url(#shadow)" opacity="0.42"/>
        <text x="0" y="5" text-anchor="middle" font-family="Arial, sans-serif" font-size="14" fill="#FFFFFF" opacity="0.42">501</text>
      </g>
      </g>
      </g>
      </g>
      </g>
      </g>
      </g>
  </g>
  <g transform="translate(70.3, 654.8)">
      <g transform="translate(1.45,3.83) rotate(5.00) scale(1.000)">
        <g transform="translate(3.57,3.31) rotate(9.80) scale(0.980)">
        <g transform="translate(4.81,2.50) rotate(13.81) scale(0.960)">
        <g transform="translate(4.87,1.47) rotate(16.49) scale(0.940)">
        <g transform="translate(3.74,0.30) rotate(17.39) scale(0.920)">
        <g transform="translate(1.70,-0.89) rotate(16.17) scale(0.900)" mask="url(#maskGradient)">
        <g transform="translate(-0.76,-2.00) rotate(12.63) scale(0.880)">
        <path d="M0.0,-45.6 L13.4,-18.5 L43.4,-14.1 L21.7,7.1 L26.8,36.9 L0.0,22.8 L-26.8,36.9 L-21.7,7.1 L-43.4,-14.1 L-13.4,-18.5Z" fill="url(#rgrad1)" filter="url(#blur1)" opacity="0.54"/>
      </g>
      </g>
      </g>
      </g>
      </g>
      </g>
      </g>
  </g>
  <g transform="translate(296.1, 640.3)">
      <g transform="translate(4.81,1.09) rotate(5.00) scale(1.000)">
        <g transform="translate(4.87,-0.10) rotate(9.80) scale(0.980)">
        <g transform="translate(3.74,-1.27) rotate(13.81) scale(0.960)">
        <g transform="translate(1.70,-2.34) rotate(16.49) scale(0.940)">
        <g transform="translate(-0.76,-3.19) rotate(17.39) scale(0.920)">
        <g transform="translate(-3.04,-3.76) rotate(16.17) scale(0.900)">
        <g transform="translate(-4.57,-4.00) rotate(12.63) scale(0.880)">
        <rect x="-27.9" y="-27.9" width="55.9" height="55.9" rx="14.0" fill="url(#rgrad2)" filter="url(#shadow)" opacity="0.65"/>
        <circle cx="0" cy="0" r="18.6" fill="url(#rgrad3)" opacity="0.46"/>
      </g>
      </g>
      </g>
      </g>
      </g>
      </g>
      </g>
  </g>
  <g transform="translate(527.7, 635.0)">
      <g transform="translate(3.74,-2.65) rotate(5.00) scale(1.000)">
        <g transform="translate(1.70,-3.42) rotate(9.80) scale(0.980)">
        <g transform="translate(-0.76,-3.88) rotate(13.81) scale(0.960)">
        <g transform="translate(-3.04,-3.99) rotate(16.49) scale(0.940)" clip-path="url(#clipRect)">
        <g transform="translate(-4.57,-3.75) rotate(17.39) scale(0.920)">
        <g transform="translate(-4.98,-3.18) rotate(16.17) scale(0.900)">
        <g transform="translate(-4.17,-2.32) rotate(12.63) scale(0.880)">
        <path d="M36.3,21.0 L0.0,42.0 L-36.3,21.0 L-36.3,-21.0 L-0.0,-42.0 L36.3,-21.0Z" fill="url(#lgrad3)" filter="url(#blur3)" opacity="0.75"/>
        <ellipse cx="0" cy="0" rx="17.5" ry="11.7" fill="#FFFFFF" opacity="0.38"/>
      </g>
      </g>
      </g>
      </g>
      </g>
      </g>
      </g>
  </g>
  <g transform="translate(762.3, 641.5)">
      <g transform="translate(-0.76,-3.95) rotate(5.00) scale(1.000)">
        <g transform="translate(-3.04,-3.60) rotate(9.80) scale(0.980)">
        <g transform="translate(-4.57,-2.92) rotate(13.81) scale(0.960)">
        <g transform="translate(-4.98,-1.98) rotate(16.49) scale(0.940)">
        <g transform="translate(-4.17,-0.86) rotate(17.39) scale(0.920)">
        <g transform="translate(-2.34,0.33) rotate(16.17) scale(0.900)" mask="url(#maskDynamic)">
        <g transform="translate(0.06,1.49) rotate(12.63) scale(0.880)">
        <circle cx="0" cy="0" r="37.4" fill="url(#rgrad4)" filter="url(#shadow)" opacity="0.83"/>
        <text x="0" y="5" text-anchor="middle" font-family="Arial, sans-serif" font-size="14" fill="#FFFFFF" opacity="0.83">501</text>
      </g>
      </g>
      </g>
      </g>
      </g>
      </g>
      </g>
  </g>
  <g transform="translate(996.4, 656.7)">
      <g transform="translate(-4.57,-1.62) rotate(5.00) scale(1.000)">
        <g transform="translate(-4.98,-0.47) rotate(9.80) scale(0.980)">
        <g transform="translate(-4.17,0.73) rotate(13.81) scale(0.960)">
        <g transform="translate(-2.34,1.86) rotate(16.49) scale(0.940)">
        <g transform="translate(0.06,2.82) rotate(17.39) scale(0.920)">
        <g transform="translate(2.45,3.53) rotate(16.17) scale(0.900)">
        <g transform="translate(4.24,3.93) rotate(12.63) scale(0.880)">
        <path d="M0.0,-66.1 L19.4,-26.7 L62.9,-20.4 L31.4,10.2 L38.9,53.5 L0.0,33.0 L-38.9,53.5 L-31.4,10.2 L-62.9,-20.4 L-19.4,-26.7Z" fill="url(#rgrad0)" filter="url(#blur0)" opacity="0.88"/>
      </g>
      </g>
      </g>
      </g>
      </g>
      </g>
      </g>
  </g>
  <g transform="translate(1226.4, 673.4)">
      <g transform="translate(-4.17,2.20) rotate(5.00) scale(1.000)">
        <g transform="translate(-2.34,3.09) rotate(9.80) scale(0.980)">
        <g transform="translate(0.06,3.70) rotate(13.81) scale(0.960)">
        <g transform="translate(2.45,3.98) rotate(16.49) scale(0.940)" clip-path="url(#clipStar)">
        <g transform="translate(4.24,3.91) rotate(17.39) scale(0.920)">
        <g transform="translate(4.99,3.49) rotate(16.17) scale(0.900)">
        <g transform="translate(4.52,2.75) rotate(12.63) scale(0.880)">
        <rect x="-25.9" y="-25.9" width="51.8" height="51.8" rx="12.9" fill="url(#lgrad1)" filter="url(#shadow)" opacity="0.90"/>
        <circle cx="0" cy="0" r="17.3" fill="url(#rgrad2)" opacity="0.63"/>
      </g>
      </g>
      </g>
      </g>
      </g>
      </g>
      </g>
  </g>
  <g transform="translate(1450.0, 683.8)">
      <g transform="translate(0.06,4.00) rotate(5.00) scale(1.000)">
        <g transform="translate(2.45,3.81) rotate(9.80) scale(0.980)">
        <g transform="translate(4.24,3.27) rotate(13.81) scale(0.960)">
        <g transform="translate(4.99,2.45) rotate(16.49) scale(0.940)">
        <g transform="translate(4.52,1.40) rotate(17.39) scale(0.920)">
        <g transform="translate(2.94,0.24) rotate(16.17) scale(0.900)" mask="url(#maskStripes)">
        <g transform="translate(0.65,-0.96) rotate(12.63) scale(0.880)">
        <path d="M23.4,13.5 L0.0,27.0 L-23.4,13.5 L-23.4,-13.5 L-0.0,-27.0 L23.4,-13.5Z" fill="url(#rgrad2)" filter="url(#blur2)" opacity="0.88"/>
        <ellipse cx="0" cy="0" rx="11.3" ry="7.5" fill="#FFFFFF" opacity="0.44"/>
      </g>
      </g>
      </g>
      </g>
      </g>
      </g>
      </g>
  </g>
  <g transform="translate(1666.2, 683.1)">
      <g transform="translate(4.24,2.12) rotate(5.00) scale(1.000)">
        <g transform="translate(4.99,1.02) rotate(9.80) scale(0.980)">
        <g transform="translate(4.52,-0.16) rotate(13.81) scale(0.960)">
        <g transform="translate(2.94,-1.34) rotate(16.49) scale(0.940)">
        <g transform="translate(0.65,-2.39) rotate(17.39) scale(0.920)">
        <g transform="translate(-1.81,-3.23) rotate(16.17) scale(0.900)">
        <g transform="translate(-3.82,-3.78) rotate(12.63) scale(0.880)">
        <circle cx="0" cy="0" r="26.0" fill="url(#rgrad3)" filter="url(#shadow)" opacity="0.83"/>
        <text x="0" y="5" text-anchor="middle" font-family="Arial, sans-serif" font-size="14" fill="#FFFFFF" opacity="0.83">501</text>
      </g>
      </g>
      </g>
      </g>
      </g>
      </g>
      </g>
  </g>
  <g transform="translate(116.0, 951.4)">
      <g transform="translate(4.52,-1.71) rotate(5.00) scale(1.000)">
        <g transform="translate(2.94,-2.70) rotate(9.80) scale(0.980)">
        <g transform="translate(0.65,-3.45) rotate(13.81) scale(0.960)">
        <g transform="translate(-1.81,-3.90) rotate(16.49) scale(0.940)" clip-path="url(#clipDynamic)">
        <g transform="translate(-3.82,-3.99) rotate(17.39) scale(0.920)">
        <g transform="translate(-4.90,-3.73) rotate(16.17) scale(0.900)">
        <g transform="translate(-4.78,-3.13) rotate(12.63) scale(0.880)">
        <path d="M0.0,-66.4 L19.5,-26.9 L63.1,-20.5 L31.6,10.3 L39.0,53.7 L0.0,33.2 L-39.0,53.7 L-31.6,10.3 L-63.1,-20.5 L-19.5,-26.9Z" fill="url(#lgrad4)" filter="url(#blur4)" opacity="0.74"/>
      </g>
      </g>
      </g>
      </g>
      </g>
      </g>
      </g>
  </g>
  <g transform="translate(299.7, 220.0)" mask="url(#maskGradient)">
    <ellipse cx="0" cy="0" rx="200" ry="150" fill="url(#rgrad0)" filter="url(#blur3)" opacity="0.3"/>
  </g>
  <g transform="translate(715.7, 239.0)" mask="url(#maskCircleFade)">
    <ellipse cx="0" cy="0" rx="200" ry="150" fill="url(#rgrad1)" filter="url(#blur3)" opacity="0.3"/>
  </g>
  <g transform="translate(1209.2, 286.7)" mask="url(#maskStripes)">
    <ellipse cx="0" cy="0" rx="200" ry="150" fill="url(#rgrad2)" filter="url(#blur3)" opacity="0.3"/>
  </g>
</svg>