<?xml version="1.0" encoding="UTF-8"?>
<svg xmlns="http://www.w3.org/2000/svg" viewBox="0 0 1920 1080" width="1920" height="1080">
  <defs>
    <filter id="blur0" x="-50%" y="-50%" width="200%" height="200%">
      <feGaussianBlur in="SourceGraphic" stdDeviation="1"/>
    </filter>
    <filter id="blur1" x="-50%" y="-50%" width="200%" height="200%">
      <feGaussianBlur in="SourceGraphic" stdDeviation="3"/>
    </filter>
    <filter id="blur2" x="-50%" y="-50%" width="200%" height="200%">
      <feGaussianBlur in="SourceGraphic" stdDeviation="5"/>
    </filter>
    <filter id="blur3" x="-50%" y="-50%" width="200%" height="200%">
      <feGaussianBlur in="SourceGraphic" stdDeviation="7"/>
    </filter>
    <filter id="blur4" x="-50%" y="-50%" width="200%" height="200%">
      <feGaussianBlur in="SourceGraphic" stdDeviation="9"/>
    </filter>
    <filter id="shadow" x="-50%" y="-50%" width="200%" height="200%">
      <feGaussianBlur in="SourceAlpha" stdDeviation="3" result="blur"/>
      <feOffset in="blur" dx="4" dy="4" result="offsetBlur"/>
      <feMerge>
        <feMergeNode in="offsetBlur"/>
        <feMergeNode in="SourceGraphic"/>
      </feMerge>
    </filter>
    <linearGradient id="lgrad0" x1="0%" y1="0%" x2="65.9%" y2="97.4%">
      <stop offset="0%" stop-color="#FF6B6B"/>
      <stop offset="33%" stop-color="#4ECDC4"/>
      <stop offset="66%" stop-color="#45B7D1"/>
      <stop offset="100%" stop-color="#96E6A1"/>
    </linearGradient>
    <linearGradient id="lgrad1" x1="0%" y1="0%" x2="40.0%" y2="99.0%">
      <stop offset="0%" stop-color="#FFE66D"/>
      <stop offset="33%" stop-color="#FF6B6B"/>
      <stop offset="66%" stop-color="#C44D58"/>
      <stop offset="100%" stop-color="#8B0000"/>
    </linearGradient>
    <linearGradient id="lgrad2" x1="0%" y1="0%" x2="16.9%" y2="87.4%">
      <stop offset="0%" stop-color="#4169E1"/>
      <stop offset="33%" stop-color="#7B68EE"/>
      <stop offset="66%" stop-color="#9370DB"/>
      <stop offset="100%" stop-color="#FFD700"/>
    </linearGradient>
    <linearGradient id="lgrad3" x1="0%" y1="0%" x2="2.6%" y2="65.9%">
      <stop offset="0%" stop-color="#32CD32"/>
      <stop offset="33%" stop-color="#228B22"/>
      <stop offset="66%" stop-color="#006400"/>
      <stop offset="100%" stop-color="#ADFF2F"/>
    </linearGradient>
    <linearGradient id="lgrad4" x1="0%" y1="0%" x2="1.0%" y2="40.0%">
      <stop offset="0%" stop-color="#FF1493"/>
      <stop offset="33%" stop-color="#FF69B4"/>
      <stop offset="66%" stop-color="#FFB6C1"/>
      <stop offset="100%" stop-color="#FFC0CB"/>
    </linearGradient>
    <radialGradient id="rgrad0" cx="61.9%" cy="64.6%" r="60%">
      <stop offset="0%" stop-color="#FF6B6B" stop-opacity="1"/>
      <stop offset="50%" stop-color="#4ECDC4" stop-opacity="0.8"/>
      <stop offset="100%" stop-color="#45B7D1" stop-opacity="0.6"/>
    </radialGradient>
    <radialGradient id="rgrad1" cx="31.9%" cy="32.6%" r="60%">
      <stop offset="0%" stop-color="#FFE66D" stop-opacity="1"/>
      <stop offset="50%" stop-color="#FF6B6B" stop-opacity="0.8"/>
      <stop offset="100%" stop-color="#C44D58" stop-opacity="0.6"/>
    </radialGradient>
    <radialGradient id="rgrad2" cx="41.9%" cy="40.6%" r="60%">
      <stop offset="0%" stop-color="#4169E1" stop-opacity="1"/>
      <stop offset="50%" stop-color="#7B68EE" stop-opacity="0.8"/>
      <stop offset="100%" stop-color="#9370DB" stop-opacity="0.6"/>
    </radialGradient>
    <radialGradient id="rgrad3" cx="51.9%" cy="48.6%" r="60%">
      <stop offset="0%" stop-color="#32CD32" stop-opacity="1"/>
      <stop offset="50%" stop-color="#228B22" stop-opacity="0.8"/>
      <stop offset="100%" stop-color="#006400" stop-opacity="0.6"/>
    </radialGradient>
    <radialGradient id="rgrad4" cx="61.9%" cy="56.6%" r="60%">
      <stop offset="0%" stop-color="#FF1493" stop-opacity="1"/>
      <stop offset="50%" stop-color="#FF69B4" stop-opacity="0.8"/>
      <stop offset="100%" stop-color="#FFB6C1" stop-opacity="0.6"/>
    </radialGradient>
    <clipPath id="clipCircle">
      <circle cx="0" cy="0" r="50"/>
    </clipPath>
    <clipPath id="clipStar">
      <path d="M0.0,-50.0 L14.7,-20.2 L47.6,-15.5 L23.8,7.7 L29.4,40.5 L0.0,25.0 L-29.4,40.5 L-23.8,7.7 L-47.6,-15.5 L-14.7,-20.2Z"/>
    </clipPath>
    <clipPath id="clipHex">
      <path d="M39.0,22.5 L0.0,45.0 L-39.0,22.5 L-39.0,-22.5 L-0.0,-45.0 L39.0,-22.5Z"/>
    </clipPath>
    <clipPath id="clipRect">
      <rect x="-40" y="-30" width="80" height="60" rx="10"/>
    </clipPath>
    <clipPath id="clipDynamic">
      <circle cx="0" cy="0" r="20.2"/>
    </clipPath>
    <mask id="maskGradient" maskContentUnits="objectBoundingBox">
      <rect x="0" y="0" width="1" height="1" fill="url(#maskGrad)"/>
    </mask>
    <linearGradient id="maskGrad" x1="0%" y1="0%" x2="100%" y2="100%">
      <stop offset="0%" stop-color="white"/>
      <stop offset="100%" stop-color="black"/>
    </linearGradient>
    <mask id="maskCircleFade">
      <circle cx="0" cy="0" r="60" fill="white"/>
      <circle cx="0" cy="0" r="30" fill="black"/>
    </mask>
    <mask id="maskStripes">
      <rect x="-50" y="-50" width="100" height="100" fill="white"/>
      <rect x="-50" y="-40" width="100" height="10" fill="black"/>
      <rect x="-50" y="-20" width="100" height="10" fill="black"/>
      <rect x="-50" y="0" width="100" height="10" fill="black"/>
      <rect x="-50" y="20" width="100" height="10" fill="black"/>
      <rect x="-50" y="40" width="100" height="10" fill="black"/>
    </mask>
    <mask id="maskDynamic">
      <rect x="-60" y="-60" width="120" height="120" fill="white" fill-opacity="0.76"/>
      <circle cx="0" cy="0" r="25" fill="white"/>
    </mask>
  </defs>
  <rect width="1920" height="1080" fill="url(#lgrad0)"/>
  <g transform="translate(70.3, 103.6)">
      <g transform="translate(-4.95,0.57) rotate(3.27) scale(1.000)">
        <g transform="translate(-4.00,1.71) rotate(4.92) scale(0.980)">
        <g transform="translate(-2.07,2.71) rotate(4.63) scale(0.960)">
        <g transform="translate(0.36,3.46) rotate(2.27) scale(0.940)" clip-path="url(#clipCircle)">
        <g transform="translate(2.71,3.90) rotate(-2.15) scale(0.920)">
        <g transform="translate(4.39,3.99) rotate(-8.47) scale(0.900)">
        <g transform="translate(5.00,3.73) rotate(-16.35) scale(0.880)">
        <path d="M0.0,-69.8 L20.5,-28.2 L66.4,-21.6 L33.2,10.8 L41.0,56.5 L0.0,34.9 L-41.0,56.5 L-33.2,10.8 L-66.4,-21.6 L-20.5,-28.2Z" fill="url(#lgrad0)" filter="url(#blur0)" opacity="0.76"/>
      </g>
      </g>
      </g>
      </g>
      </g>
      </g>
      </g>
  </g>
  <g transform="translate(296.0, 118.7)">
      <g transform="translate(-2.07,3.64) rotate(3.27) scale(1.000)">
        <g transform="translate(0.36,3.97) rotate(4.92) scale(0.980)">
        <g transform="translate(2.71,3.94) rotate(4.63) scale(0.960)">
        <g transform="translate(4.39,3.56) rotate(2.27) scale(0.940)">
        <g transform="translate(5.00,2.87) rotate(-2.15) scale(0.920)">
        <g transform="translate(4.38,1.91) rotate(-8.47) scale(0.900)" mask="url(#maskCircleFade)">
        <g transform="translate(2.70,0.79) rotate(-16.35) scale(0.880)">
        <rect x="-27.9" y="-27.9" width="55.8" height="55.8" rx="13.9" fill="url(#rgrad1)" filter="url(#shadow)" opacity="0.66"/>
        <circle cx="0" cy="0" r="18.6" fill="url(#rgrad2)" opacity="0.46"/>
      </g>
      </g>
      </g>
      </g>
      </g>
      </g>
      </g>
  </g>
  <g transform="translate(527.6, 125.0)">
      <g transform="translate(2.71,3.36) rotate(3.27) scale(1.000)">
        <g transform="translate(4.39,2.57) rotate(4.92) scale(0.980)">
        <g transform="translate(5.00,1.55) rotate(4.63) scale(0.960)">
        <g transform="translate(4.38,0.39) rotate(2.27) scale(0.940)">
        <g transform="translate(2.70,-0.80) rotate(-2.15) scale(0.920)">
        <g transform="translate(0.35,-1.92) rotate(-8.47) scale(0.900)">
        <g transform="translate(-2.09,-2.87) rotate(-16.35) scale(0.880)">
        <path d="M23.7,13.7 L0.0,27.4 L-23.7,13.7 L-23.7,-13.7 L-0.0,-27.4 L23.7,-13.7Z" fill="url(#rgrad2)" filter="url(#blur2)" opacity="0.55"/>
        <ellipse cx="0" cy="0" rx="11.4" ry="7.6" fill="#FFFFFF" opacity="0.27"/>
      </g>
      </g>
      </g>
      </g>
      </g>
      </g>
      </g>
  </g>
  <g transform="translate(762.2, 119.6)">
      <g transform="translate(5.00,-0.01) rotate(3.27) scale(1.000)">
        <g transform="translate(4.38,-1.19) rotate(4.92) scale(0.980)">
        <g transform="translate(2.70,-2.26) rotate(4.63) scale(0.960)">
        <g transform="translate(0.35,-3.14) rotate(2.27) scale(0.940)" clip-path="url(#clipRect)">
        <g transform="translate(-2.09,-3.73) rotate(-2.15) scale(0.920)">
        <g transform="translate(-4.01,-3.99) rotate(-8.47) scale(0.900)">
        <g transform="translate(-4.95,-3.89) rotate(-16.35) scale(0.880)">
        <circle cx="0" cy="0" r="24.3" fill="url(#lgrad3)" filter="url(#shadow)" opacity="0.43"/>
        <text x="0" y="5" text-anchor="middle" font-family="Arial, sans-serif" font-size="14" fill="#FFFFFF" opacity="0.43">773</text>
      </g>
      </g>
      </g>
      </g>
      </g>
      </g>
      </g>
  </g>
  <g transform="translate(996.2, 104.9)">
      <g transform="translate(2.70,-3.37) rotate(3.27) scale(1.000)">
        <g transform="translate(0.35,-3.86) rotate(4.92) scale(0.980)">
        <g transform="translate(-2.09,-4.00) rotate(4.63) scale(0.960)">
        <g transform="translate(-4.01,-3.78) rotate(2.27) scale(0.940)">
        <g transform="translate(-4.95,-3.23) rotate(-2.15) scale(0.920)">
        <g transform="translate(-4.68,-2.39) rotate(-8.47) scale(0.900)" mask="url(#maskGradient)">
        <g transform="translate(-3.26,-1.33) rotate(-16.35) scale(0.880)">
        <path d="M0.0,-62.2 L18.3,-25.1 L59.1,-19.2 L29.6,9.6 L36.5,50.3 L0.0,31.1 L-36.5,50.3 L-29.6,9.6 L-59.1,-19.2 L-18.3,-25.1Z" fill="url(#rgrad4)" filter="url(#blur4)" opacity="0.31"/>
      </g>
      </g>
      </g>
      </g>
      </g>
      </g>
      </g>
  </g>
  <g transform="translate(1226.3, 88.0)">
      <g transform="translate(-2.09,-3.63) rotate(3.27) scale(1.000)">
        <g transform="translate(-4.01,-2.98) rotate(4.92) scale(0.980)">
        <g transform="translate(-4.95,-2.06) rotate(4.63) scale(0.960)">
        <g transform="translate(-4.68,-0.95) rotate(2.27) scale(0.940)">
        <g transform="translate(-3.26,0.24) rotate(-2.15) scale(0.920)">
        <g transform="translate(-1.05,1.41) rotate(-8.47) scale(0.900)">
        <g transform="translate(1.43,2.45) rotate(-16.35) scale(0.880)">
        <rect x="-36.8" y="-36.8" width="73.7" height="73.7" rx="18.4" fill="url(#rgrad0)" filter="url(#shadow)" opacity="0.22"/>
        <circle cx="0" cy="0" r="24.6" fill="url(#rgrad1)" opacity="0.15"/>
      </g>
      </g>
      </g>
      </g>
      </g>
      </g>
      </g>
  </g>
  <g transform="translate(1450.0, 76.7)">
      <g transform="translate(-4.95,-0.56) rotate(3.27) scale(1.000)">
        <g transform="translate(-4.68,0.64) rotate(4.92) scale(0.980)">
        <g transform="translate(-3.26,1.78) rotate(4.63) scale(0.960)">
        <g transform="translate(-1.05,2.76) rotate(2.27) scale(0.940)" clip-path="url(#clipStar)">
        <g transform="translate(1.43,3.49) rotate(-2.15) scale(0.920)">
        <g transform="translate(3.55,3.91) rotate(-8.47) scale(0.900)">
        <g transform="translate(4.80,3.98) rotate(-16.35) scale(0.880)">
        <path d="M37.7,21.8 L0.0,43.6 L-37.7,21.8 L-37.7,-21.8 L-0.0,-43.6 L37.7,-21.8Z" fill="url(#lgrad1)" filter="url(#blur1)" opacity="0.15"/>
        <ellipse cx="0" cy="0" rx="18.1" ry="12.1" fill="#FFFFFF" opacity="0.07"/>
      </g>
      </g>
      </g>
      </g>
      </g>
      </g>
      </g>
  </g>
  <g transform="translate(1666.3, 76.4)">
      <g transform="translate(-3.26,3.03) rotate(3.27) scale(1.000)">
        <g transform="translate(-1.05,3.67) rotate(4.92) scale(0.980)">
        <g transform="translate(1.43,3.98) rotate(4.63) scale(0.960)">
        <g transform="translate(3.55,3.93) rotate(2.27) scale(0.940)">
        <g transform="translate(4.80,3.53) rotate(-2.15) scale(0.920)">
        <g transform="translate(4.88,2.82) rotate(-8.47) scale(0.900)" mask="url(#maskDynamic)">
        <g transform="translate(3.76,1.85) rotate(-16.35) scale(0.880)">
        <circle cx="0" cy="0" r="30.0" fill="url(#rgrad2)" filter="url(#shadow)" opacity="0.11"/>
        <text x="0" y="5" text-anchor="middle" font-family="Arial, sans-serif" font-size="14" fill="#FFFFFF" opacity="0.11">773</text>
      </g>
      </g>
      </g>
      </g>
      </g>
      </g>
      </g>
  </g>
  <g transform="translate(116.2, 367.1)">
      <g transform="translate(1.43,3.83) rotate(3.27) scale(1.000)">
        <g transform="translate(3.55,3.33) rotate(4.92) scale(0.980)">
        <g transform="translate(4.80,2.52) rotate(4.63) scale(0.960)">
        <g transform="translate(4.88,1.49) rotate(2.27) scale(0.940)">
        <g transform="translate(3.76,0.33) rotate(-2.15) scale(0.920)">
        <g transform="translate(1.73,-0.87) rotate(-8.47) scale(0.900)">
        <g transform="translate(-0.73,-1.98) rotate(-16.35) scale(0.880)">
        <path d="M0.0,-47.4 L13.9,-19.2 L45.0,-14.6 L22.5,7.3 L27.8,38.3 L0.0,23.7 L-27.8,38.3 L-22.5,7.3 L-45.0,-14.6 L-13.9,-19.2Z" fill="url(#rgrad3)" filter="url(#blur3)" opacity="0.10"/>
      </g>
      </g>
      </g>
      </g>
      </g>
      </g>
      </g>
  </g>
  <g transform="translate(322.1, 384.0)">
      <g transform="translate(4.80,1.11) rotate(3.27) scale(1.000)">
        <g transform="translate(4.88,-0.07) rotate(4.92) scale(0.980)">
        <g transform="translate(3.76,-1.25) rotate(4.63) scale(0.960)">
        <g transform="translate(1.73,-2.32) rotate(2.27) scale(0.940)" clip-path="url(#clipDynamic)">
        <g transform="translate(-0.73,-3.18) rotate(-2.15) scale(0.920)">
        <g transform="translate(-3.02,-3.75) rotate(-8.47) scale(0.900)">
        <g transform="translate(-4.56,-3.99) rotate(-16.35) scale(0.880)">
        <rect x="-23.2" y="-23.2" width="46.4" height="46.4" rx="11.6" fill="url(#lgrad4)" filter="url(#shadow)" opacity="0.13"/>
        <circle cx="0" cy="0" r="15.5" fill="url(#rgrad0)" opacity="0.09"/>
      </g>
      </g>
      </g>
      </g>
      </g>
      </g>
      </g>
  </g>
  <g transform="translate(527.5, 398.9)">
      <g transform="translate(3.76,-2.63) rotate(3.27) scale(1.000)">
        <g transform="translate(1.73,-3.40) rotate(4.92) scale(0.980)">
        <g transform="translate(-0.73,-3.87) rotate(4.63) scale(0.960)">
        <g transform="translate(-3.02,-4.00) rotate(2.27) scale(0.940)">
        <g transform="translate(-4.56,-3.76) rotate(-2.15) scale(0.920)">
        <g transform="translate(-4.99,-3.19) rotate(-8.47) scale(0.900)" mask="url(#maskStripes)">
        <g transform="translate(-4.19,-2.33) rotate(-16.35) scale(0.880)">
        <path d="M30.1,17.4 L0.0,34.8 L-30.1,17.4 L-30.1,-17.4 L-0.0,-34.8 L30.1,-17.4Z" fill="url(#rgrad0)" filter="url(#blur0)" opacity="0.20"/>
        <ellipse cx="0" cy="0" rx="14.5" ry="9.7" fill="#FFFFFF" opacity="0.10"/>
      </g>
      </g>
      </g>
      </g>
      </g>
      </g>
      </g>
  </g>
  <g transform="translate(735.9, 405.0)">
      <g transform="translate(-0.73,-3.96) rotate(3.27) scale(1.000)">
        <g transform="translate(-3.02,-3.61) rotate(4.92) scale(0.980)">
        <g transform="translate(-4.56,-2.93) rotate(4.63) scale(0.960)">
        <g transform="translate(-4.99,-2.00) rotate(2.27) scale(0.940)">
        <g transform="translate(-4.19,-0.89) rotate(-2.15) scale(0.920)">
        <g transform="translate(-2.37,0.31) rotate(-8.47) scale(0.900)">
        <g transform="translate(0.03,1.47) rotate(-16.35) scale(0.880)">
        <circle cx="0" cy="0" r="35.7" fill="url(#rgrad1)" filter="url(#shadow)" opacity="0.29"/>
        <text x="0" y="5" text-anchor="middle" font-family="Arial, sans-serif" font-size="14" fill="#FFFFFF" opacity="0.29">773</text>
      </g>
      </g>
      </g>
      </g>
      </g>
      </g>
      </g>
  </g>
  <g transform="translate(950.3, 399.3)">
      <g transform="translate(-4.56,-1.64) rotate(3.27) scale(1.000)">
        <g transform="translate(-4.99,-0.49) rotate(4.92) scale(0.980)">
        <g transform="translate(-4.19,0.70) rotate(4.63) scale(0.960)">
        <g transform="translate(-2.37,1.84) rotate(2.27) scale(0.940)" clip-path="url(#clipHex)">
        <g transform="translate(0.03,2.80) rotate(-2.15) scale(0.920)">
        <g transform="translate(2.42,3.52) rotate(-8.47) scale(0.900)">
        <g transform="translate(4.22,3.92) rotate(-16.35) scale(0.880)">
        <path d="M0.0,-74.4 L21.9,-30.1 L70.7,-23.0 L35.4,11.5 L43.7,60.2 L0.0,37.2 L-43.7,60.2 L-35.4,11.5 L-70.7,-23.0 L-21.9,-30.1Z" fill="url(#lgrad2)" filter="url(#blur2)" opacity="0.40"/>
      </g>
      </g>
      </g>
      </g>
      </g>
      </g>
      </g>
  </g>
  <g transform="translate(1171.9, 384.5)">
      <g transform="translate(-4.19,2.18) rotate(3.27) scale(1.000)">
        <g transform="translate(-2.37,3.07) rotate(4.92) scale(0.980)">
        <g transform="translate(0.03,3.69) rotate(4.63) scale(0.960)">
        <g transform="translate(2.42,3.98) rotate(2.27) scale(0.940)">
        <g transform="translate(4.22,3.92) rotate(-2.15) scale(0.920)">
        <g transform="translate(4.99,3.50) rotate(-8.47) scale(0.900)" mask="url(#maskCircleFade)">
        <g transform="translate(4.53,2.77) rotate(-16.35) scale(0.880)">
        <rect x="-32.1" y="-32.1" width="64.1" height="64.1" rx="16.0" fill="url(#rgrad3)" filter="url(#shadow)" opacity="0.52"/>
        <circle cx="0" cy="0" r="21.4" fill="url(#rgrad4)" opacity="0.36"/>
      </g>
      </g>
      </g>
      </g>
      </g>
      </g>
      </g>
  </g>
  <g transform="translate(1400.4, 367.6)">
      <g transform="translate(0.03,4.00) rotate(3.27) scale(1.000)">
        <g transform="translate(2.42,3.81) rotate(4.92) scale(0.980)">
        <g transform="translate(4.22,3.29) rotate(4.63) scale(0.960)">
        <g transform="translate(4.99,2.47) rotate(2.27) scale(0.940)">
        <g transform="translate(4.53,1.43) rotate(-2.15) scale(0.920)">
        <g transform="translate(2.97,0.26) rotate(-8.47) scale(0.900)">
        <g transform="translate(0.68,-0.93) rotate(-16.35) scale(0.880)">
        <path d="M26.0,15.0 L0.0,30.1 L-26.0,15.0 L-26.0,-15.0 L-0.0,-30.1 L26.0,-15.0Z" fill="url(#rgrad4)" filter="url(#blur4)" opacity="0.64"/>
        <ellipse cx="0" cy="0" rx="12.5" ry="8.4" fill="#FFFFFF" opacity="0.32"/>
      </g>
      </g>
      </g>
      </g>
      </g>
      </g>
      </g>
  </g>
  <g transform="translate(1633.7, 356.5)">
      <g transform="translate(4.22,2.14) rotate(3.27) scale(1.000)">
        <g transform="translate(4.99,1.05) rotate(4.92) scale(0.980)">
        <g transform="translate(4.53,-0.14) rotate(4.63) scale(0.960)">
        <g transform="translate(2.97,-1.32) rotate(2.27) scale(0.940)" clip-path="url(#clipCircle)">
        <g transform="translate(0.68,-2.37) rotate(-2.15) scale(0.920)">
        <g transform="translate(-1.78,-3.22) rotate(-8.47) scale(0.900)">
        <g transform="translate(-3.80,-3.78) rotate(-16.35) scale(0.880)">
        <circle cx="0" cy="0" r="22.6" fill="url(#lgrad0)" filter="url(#shadow)" opacity="0.74"/>
        <text x="0" y="5" text-anchor="middle" font-family="Arial, sans-serif" font-size="14" fill="#FFFFFF" opacity="0.74">773</text>
      </g>
      </g>
      </g>
      </g>
      </g>
      </g>
      </g>
  </g>
  <g transform="translate(108.6, 636.5)">
      <g transform="translate(4.53,-1.69) rotate(3.27) scale(1.000)">
        <g transform="translate(2.97,-2.68) rotate(4.92) scale(0.980)">
        <g transform="translate(0.68,-3.44) rotate(4.63) scale(0.960)">
        <g transform="translate(-1.78,-3.89) rotate(2.27) scale(0.940)">
        <g transform="translate(-3.80,-3.99) rotate(-2.15) scale(0.920)">
        <g transform="translate(-4.89,-3.74) rotate(-8.47) scale(0.900)" mask="url(#maskGradient)">
        <g transform="translate(-4.79,-3.15) rotate(-16.35) scale(0.880)">
        <path d="M0.0,-53.9 L15.8,-21.8 L51.2,-16.6 L25.6,8.3 L31.7,43.6 L0.0,26.9 L-31.7,43.6 L-25.6,8.3 L-51.2,-16.6 L-15.8,-21.8Z" fill="url(#rgrad1)" filter="url(#blur1)" opacity="0.82"/>
      </g>
      </g>
      </g>
      </g>
      </g>
      </g>
      </g>
  </g>
  <g transform="translate(341.3, 647.5)">
      <g transform="translate(0.68,-3.96) rotate(3.27) scale(1.000)">
        <g transform="translate(-1.78,-3.95) rotate(4.92) scale(0.980)">
        <g transform="translate(-3.80,-3.58) rotate(4.63) scale(0.960)">
        <g transform="translate(-4.89,-2.89) rotate(2.27) scale(0.940)">
        <g transform="translate(-4.79,-1.94) rotate(-2.15) scale(0.920)">
        <g transform="translate(-3.51,-0.82) rotate(-8.47) scale(0.900)">
        <g transform="translate(-1.37,0.37) rotate(-16.35) scale(0.880)">
        <rect x="-34.1" y="-34.1" width="68.2" height="68.2" rx="17.0" fill="url(#rgrad2)" filter="url(#shadow)" opacity="0.88"/>
        <circle cx="0" cy="0" r="22.7" fill="url(#rgrad3)" opacity="0.62"/>
      </g>
      </g>
      </g>
      </g>
      </g>
      </g>
      </g>
  </g>
  <g transform="translate(568.8, 664.4)">
      <g transform="translate(-3.80,-2.60) rotate(3.27) scale(1.000)">
        <g transform="translate(-4.89,-1.58) rotate(4.92) scale(0.980)">
        <g transform="translate(-4.79,-0.43) rotate(4.63) scale(0.960)">
        <g transform="translate(-3.51,0.77) rotate(2.27) scale(0.940)" clip-path="url(#clipRect)">
        <g transform="translate(-1.37,1.89) rotate(-2.15) scale(0.920)">
        <g transform="translate(1.10,2.85) rotate(-8.47) scale(0.900)">
        <g transform="translate(3.31,3.55) rotate(-16.35) scale(0.880)">
        <path d="M39.0,22.5 L0.0,45.0 L-39.0,22.5 L-39.0,-22.5 L-0.0,-45.0 L39.0,-22.5Z" fill="url(#lgrad3)" filter="url(#blur3)" opacity="0.90"/>
        <ellipse cx="0" cy="0" rx="18.7" ry="12.5" fill="#FFFFFF" opacity="0.45"/>
      </g>
      </g>
      </g>
      </g>
      </g>
      </g>
      </g>
  </g>
  <g transform="translate(789.3, 679.2)">
      <g transform="translate(-4.79,1.16) rotate(3.27) scale(1.000)">
        <g transform="translate(-3.51,2.24) rotate(4.92) scale(0.980)">
        <g transform="translate(-1.37,3.12) rotate(4.63) scale(0.960)">
        <g transform="translate(1.10,3.72) rotate(2.27) scale(0.940)">
        <g transform="translate(3.31,3.99) rotate(-2.15) scale(0.920)">
        <g transform="translate(4.70,3.90) rotate(-8.47) scale(0.900)" mask="url(#maskDynamic)">
        <g transform="translate(4.94,3.47) rotate(-16.35) scale(0.880)">
        <circle cx="0" cy="0" r="34.0" fill="url(#rgrad4)" filter="url(#shadow)" opacity="0.89"/>
        <text x="0" y="5" text-anchor="middle" font-family="Arial, sans-serif" font-size="14" fill="#FFFFFF" opacity="0.89">773</text>
      </g>
      </g>
      </g>
      </g>
      </g>
      </g>
      </g>
  </g>
  <g transform="translate(1002.6, 685.0)">
      <g transform="translate(-1.37,3.85) rotate(3.27) scale(1.000)">
        <g transform="translate(1.10,4.00) rotate(4.92) scale(0.980)">
        <g transform="translate(3.31,3.79) rotate(4.63) scale(0.960)">
        <g transform="translate(4.70,3.25) rotate(2.27) scale(0.940)">
        <g transform="translate(4.94,2.41) rotate(-2.15) scale(0.920)">
        <g transform="translate(3.97,1.36) rotate(-8.47) scale(0.900)">
        <g transform="translate(2.03,0.19) rotate(-16.35) scale(0.880)">
        <path d="M0.0,-53.7 L15.8,-21.7 L51.0,-16.6 L25.5,8.3 L31.5,43.4 L0.0,26.8 L-31.5,43.4 L-25.5,8.3 L-51.0,-16.6 L-15.8,-21.7Z" fill="url(#rgrad0)" filter="url(#blur0)" opacity="0.84"/>
      </g>
      </g>
      </g>
      </g>
      </g>
      </g>
      </g>
  </g>
  <g transform="translate(1210.4, 679.0)">
      <g transform="translate(3.31,3.00) rotate(3.27) scale(1.000)">
        <g transform="translate(4.70,2.08) rotate(4.92) scale(0.980)">
        <g transform="translate(4.94,0.98) rotate(4.63) scale(0.960)">
        <g transform="translate(3.97,-0.21) rotate(2.27) scale(0.940)" clip-path="url(#clipStar)">
        <g transform="translate(2.03,-1.38) rotate(-2.15) scale(0.920)">
        <g transform="translate(-0.41,-2.43) rotate(-8.47) scale(0.900)">
        <g transform="translate(-2.74,-3.26) rotate(-16.35) scale(0.880)">
        <rect x="-22.6" y="-22.6" width="45.1" height="45.1" rx="11.3" fill="url(#lgrad1)" filter="url(#shadow)" opacity="0.76"/>
        <circle cx="0" cy="0" r="15.0" fill="url(#rgrad2)" opacity="0.53"/>
      </g>
      </g>
      </g>
      </g>
      </g>
      </g>
      </g>
  </g>
  <g transform="translate(1415.6, 664.1)">
      <g transform="translate(4.94,-0.61) rotate(3.27) scale(1.000)">
        <g transform="translate(3.97,-1.75) rotate(4.92) scale(0.980)">
        <g transform="translate(2.03,-2.73) rotate(4.63) scale(0.960)">
        <g transform="translate(-0.41,-3.47) rotate(2.27) scale(0.940)">
        <g transform="translate(-2.74,-3.90) rotate(-2.15) scale(0.920)">
        <g transform="translate(-4.41,-3.99) rotate(-8.47) scale(0.900)" mask="url(#maskStripes)">
        <g transform="translate(-5.00,-3.71) rotate(-16.35) scale(0.880)">
        <path d="M26.1,15.1 L0.0,30.2 L-26.1,15.1 L-26.1,-15.1 L-0.0,-30.2 L26.1,-15.1Z" fill="url(#rgrad2)" filter="url(#blur2)" opacity="0.65"/>
        <ellipse cx="0" cy="0" rx="12.6" ry="8.4" fill="#FFFFFF" opacity="0.33"/>
      </g>
      </g>
      </g>
      </g>
      </g>
      </g>
      </g>
  </g>
  <g transform="translate(1621.9, 647.3)">
      <g transform="translate(2.03,-3.65) rotate(3.27) scale(1.000)">
        <g transform="translate(-0.41,-3.97) rotate(4.92) scale(0.980)">
        <g transform="translate(-2.74,-3.93) rotate(4.63) scale(0.960)">
        <g transform="translate(-4.41,-3.55) rotate(2.27) scale(0.940)">
        <g transform="translate(-5.00,-2.84) rotate(-2.15) scale(0.920)">
        <g transform="translate(-4.36,-1.88) rotate(-8.47) scale(0.900)">
        <g transform="translate(-2.66,-0.75) rotate(-16.35) scale(0.880)">
        <circle cx="0" cy="0" r="32.2" fill="url(#rgrad3)" filter="url(#shadow)" opacity="0.54"/>
        <text x="0" y="5" text-anchor="middle" font-family="Arial, sans-serif" font-size="14" fill="#FFFFFF" opacity="0.54">773</text>
      </g>
      </g>
      </g>
      </g>
      </g>
      </g>
      </g>
  </g>
  <g transform="translate(72.6, 916.4)">
      <g transform="translate(-2.74,-3.34) rotate(3.27) scale(1.000)">
        <g transform="translate(-4.41,-2.55) rotate(4.92) scale(0.980)">
        <g transform="translate(-5.00,-1.52) rotate(4.63) scale(0.960)">
        <g transform="translate(-4.36,-0.36) rotate(2.27) scale(0.940)" clip-path="url(#clipDynamic)">
        <g transform="translate(-2.66,0.84) rotate(-2.15) scale(0.920)">
        <g transform="translate(-0.30,1.95) rotate(-8.47) scale(0.900)">
        <g transform="translate(2.13,2.90) rotate(-16.35) scale(0.880)">
        <path d="M0.0,-74.4 L21.9,-30.1 L70.8,-23.0 L35.4,11.5 L43.8,60.2 L0.0,37.2 L-43.8,60.2 L-35.4,11.5 L-70.8,-23.0 L-21.9,-30.1Z" fill="url(#lgrad4)" filter="url(#blur4)" opacity="0.42"/>
      </g>
      </g>
      </g>
      </g>
      </g>
      </g>
      </g>
  </g>
  <g transform="translate(201.0, 311.4)" mask="url(#maskGradient)">
    <ellipse cx="0" cy="0" rx="200" ry="150" fill="url(#rgrad0)" filter="url(#blur3)" opacity="0.3"/>
  </g>
  <g transform="translate(758.5, 359.7)" mask="url(#maskCircleFade)">
    <ellipse cx="0" cy="0" rx="200" ry="150" fill="url(#rgrad1)" filter="url(#blur3)" opacity="0.3"/>
  </g>
  <g transform="translate(1354.2, 380.0)" mask="url(#maskStripes)">
    <ellipse cx="0" cy="0" rx="200" ry="150" fill="url(#rgrad2)" filter="url(#blur3)" opacity="0.3"/>
  </g>
</svg>