<?xml version="1.0" encoding="UTF-8"?>
<svg xmlns="http://www.w3.org/2000/svg" viewBox="0 0 1920 1080" width="1920" height="1080">
  <defs>
    <filter id="blur0" x="-50%" y="-50%" width="200%" height="200%">
      <feGaussianBlur in="SourceGraphic" stdDeviation="1"/>
    </filter>
    <filter id="blur1" x="-50%" y="-50%" width="200%" height="200%">
      <feGaussianBlur in="SourceGraphic" stdDeviation="3"/>
    </filter>
    <filter id="blur2" x="-50%" y="-50%" width="200%" height="200%">
      <feGaussianBlur in="SourceGraphic" stdDeviation="5"/>
    </filter>
    <filter id="blur3" x="-50%" y="-50%" width="200%" height="200%">
      <feGaussianBlur in="SourceGraphic" stdDeviation="7"/>
    </filter>
    <filter id="blur4" x="-50%" y="-50%" width="200%" height="200%">
      <feGaussianBlur in="SourceGraphic" stdDeviation="9"/>
    </filter>
    <filter id="shadow" x="-50%" y="-50%" width="200%" height="200%">
      <feGaussianBlur in="SourceAlpha" stdDeviation="3" result="blur"/>
      <feOffset in="blur" dx="4" dy="4" result="offsetBlur"/>
      <feMerge>
        <feMergeNode in="offsetBlur"/>
        <feMergeNode in="SourceGraphic"/>
      </feMerge>
    </filter>
    <linearGradient id="lgrad0" x1="0%" y1="0%" x2="90.5%" y2="79.4%">
      <stop offset="0%" stop-color="#FF6B6B"/>
      <stop offset="33%" stop-color="#4ECDC4"/>
      <stop offset="66%" stop-color="#45B7D1"/>
      <stop offset="100%" stop-color="#96E6A1"/>
    </linearGradient>
    <linearGradient id="lgrad1" x1="0%" y1="0%" x2="70.3%" y2="95.7%">
      <stop offset="0%" stop-color="#FFE66D"/>
      <stop offset="33%" stop-color="#FF6B6B"/>
      <stop offset="66%" stop-color="#C44D58"/>
      <stop offset="100%" stop-color="#8B0000"/>
    </linearGradient>
    <linearGradient id="lgrad2" x1="0%" y1="0%" x2="44.8%" y2="99.7%">
      <stop offset="0%" stop-color="#4169E1"/>
      <stop offset="33%" stop-color="#7B68EE"/>
      <stop offset="66%" stop-color="#9370DB"/>
      <stop offset="100%" stop-color="#FFD700"/>
    </linearGradient>
    <linearGradient id="lgrad3" x1="0%" y1="0%" x2="20.6%" y2="90.5%">
      <stop offset="0%" stop-color="#32CD32"/>
      <stop offset="33%" stop-color="#228B22"/>
      <stop offset="66%" stop-color="#006400"/>
      <stop offset="100%" stop-color="#ADFF2F"/>
    </linearGradient>
    <linearGradient id="lgrad4" x1="0%" y1="0%" x2="4.3%" y2="70.3%">
      <stop offset="0%" stop-color="#FF1493"/>
      <stop offset="33%" stop-color="#FF69B4"/>
      <stop offset="66%" stop-color="#FFB6C1"/>
      <stop offset="100%" stop-color="#FFC0CB"/>
    </linearGradient>
    <radialGradient id="rgrad0" cx="40.6%" cy="50.4%" r="60%">
      <stop offset="0%" stop-color="#FF6B6B" stop-opacity="1"/>
      <stop offset="50%" stop-color="#4ECDC4" stop-opacity="0.8"/>
      <stop offset="100%" stop-color="#45B7D1" stop-opacity="0.6"/>
    </radialGradient>
    <radialGradient id="rgrad1" cx="50.6%" cy="58.4%" r="60%">
      <stop offset="0%" stop-color="#FFE66D" stop-opacity="1"/>
      <stop offset="50%" stop-color="#FF6B6B" stop-opacity="0.8"/>
      <stop offset="100%" stop-color="#C44D58" stop-opacity="0.6"/>
    </radialGradient>
    <radialGradient id="rgrad2" cx="60.6%" cy="66.4%" r="60%">
      <stop offset="0%" stop-color="#4169E1" stop-opacity="1"/>
      <stop offset="50%" stop-color="#7B68EE" stop-opacity="0.8"/>
      <stop offset="100%" stop-color="#9370DB" stop-opacity="0.6"/>
    </radialGradient>
    <radialGradient id="rgrad3" cx="30.6%" cy="34.4%" r="60%">
      <stop offset="0%" stop-color="#32CD32" stop-opacity="1"/>
      <stop offset="50%" stop-color="#228B22" stop-opacity="0.8"/>
      <stop offset="100%" stop-color="#006400" stop-opacity="0.6"/>
    </radialGradient>
    <radialGradient id="rgrad4" cx="40.6%" cy="42.4%" r="60%">
      <stop offset="0%" stop-color="#FF1493" stop-opacity="1"/>
      <stop offset="50%" stop-color="#FF69B4" stop-opacity="0.8"/>
      <stop offset="100%" stop-color="#FFB6C1" stop-opacity="0.6"/>
    </radialGradient>
    <clipPath id="clipCircle">
      <circle cx="0" cy="0" r="50"/>
    </clipPath>
    <clipPath id="clipStar">
      <path d="M0.0,-50.0 L14.7,-20.2 L47.6,-15.5 L23.8,7.7 L29.4,40.5 L0.0,25.0 L-29.4,40.5 L-23.8,7.7 L-47.6,-15.5 L-14.7,-20.2Z"/>
    </clipPath>
    <clipPath id="clipHex">
      <path d="M39.0,22.5 L0.0,45.0 L-39.0,22.5 L-39.0,-22.5 L-0.0,-45.0 L39.0,-22.5Z"/>
    </clipPath>
    <clipPath id="clipRect">
      <rect x="-40" y="-30" width="80" height="60" rx="10"/>
    </clipPath>
    <clipPath id="clipDynamic">
      <circle cx="0" cy="0" r="20.7"/>
    </clipPath>
    <mask id="maskGradient" maskContentUnits="objectBoundingBox">
      <rect x="0" y="0" width="1" height="1" fill="url(#maskGrad)"/>
    </mask>
    <linearGradient id="maskGrad" x1="0%" y1="0%" x2="100%" y2="100%">
      <stop offset="0%" stop-color="white"/>
      <stop offset="100%" stop-color="black"/>
    </linearGradient>
    <mask id="maskCircleFade">
      <circle cx="0" cy="0" r="60" fill="white"/>
      <circle cx="0" cy="0" r="30" fill="black"/>
    </mask>
    <mask id="maskStripes">
      <rect x="-50" y="-50" width="100" height="100" fill="white"/>
      <rect x="-50" y="-40" width="100" height="10" fill="black"/>
      <rect x="-50" y="-20" width="100" height="10" fill="black"/>
      <rect x="-50" y="0" width="100" height="10" fill="black"/>
      <rect x="-50" y="20" width="100" height="10" fill="black"/>
      <rect x="-50" y="40" width="100" height="10" fill="black"/>
    </mask>
    <mask id="maskDynamic">
      <rect x="-60" y="-60" width="120" height="120" fill="white" fill-opacity="0.86"/>
      <circle cx="0" cy="0" r="25" fill="white"/>
    </mask>
  </defs>
  <rect width="1920" height="1080" fill="url(#lgrad0)"/>
  <g transform="translate(71.4, 92.5)">
      <g transform="translate(-4.77,-1.20) rotate(4.03) scale(1.000)">
        <g transform="translate(-4.90,-0.01) rotate(6.72) scale(0.980)">
        <g transform="translate(-3.84,1.17) rotate(7.68) scale(0.960)">
        <g transform="translate(-1.83,2.25) rotate(6.62) scale(0.940)" clip-path="url(#clipCircle)">
        <g transform="translate(0.63,3.12) rotate(3.42) scale(0.920)">
        <g transform="translate(2.93,3.72) rotate(-1.88) scale(0.900)">
        <g transform="translate(4.51,3.99) rotate(-9.09) scale(0.880)">
        <path d="M0.0,-72.1 L21.2,-29.2 L68.6,-22.3 L34.3,11.1 L42.4,58.3 L0.0,36.0 L-42.4,58.3 L-34.3,11.1 L-68.6,-22.3 L-21.2,-29.2Z" fill="url(#lgrad0)" filter="url(#blur0)" opacity="0.82"/>
      </g>
      </g>
      </g>
      </g>
      </g>
      </g>
      </g>
  </g>
  <g transform="translate(290.6, 109.7)">
      <g transform="translate(-3.84,2.57) rotate(4.03) scale(1.000)">
        <g transform="translate(-1.83,3.36) rotate(6.72) scale(0.980)">
        <g transform="translate(0.63,3.85) rotate(7.68) scale(0.960)">
        <g transform="translate(2.93,4.00) rotate(6.62) scale(0.940)">
        <g transform="translate(4.51,3.79) rotate(3.42) scale(0.920)">
        <g transform="translate(4.99,3.24) rotate(-1.88) scale(0.900)" mask="url(#maskCircleFade)">
        <g transform="translate(4.25,2.40) rotate(-9.09) scale(0.880)">
        <rect x="-29.5" y="-29.5" width="59.1" height="59.1" rx="14.8" fill="url(#rgrad1)" filter="url(#shadow)" opacity="0.74"/>
        <circle cx="0" cy="0" r="19.7" fill="url(#rgrad2)" opacity="0.52"/>
      </g>
      </g>
      </g>
      </g>
      </g>
      </g>
      </g>
  </g>
  <g transform="translate(517.0, 122.2)">
      <g transform="translate(0.63,3.97) rotate(4.03) scale(1.000)">
        <g transform="translate(2.93,3.64) rotate(6.72) scale(0.980)">
        <g transform="translate(4.51,2.99) rotate(7.68) scale(0.960)">
        <g transform="translate(4.99,2.07) rotate(6.62) scale(0.940)">
        <g transform="translate(4.25,0.97) rotate(3.42) scale(0.920)">
        <g transform="translate(2.47,-0.22) rotate(-1.88) scale(0.900)">
        <g transform="translate(0.08,-1.39) rotate(-9.09) scale(0.880)">
        <path d="M24.4,14.1 L0.0,28.1 L-24.4,14.1 L-24.4,-14.1 L-0.0,-28.1 L24.4,-14.1Z" fill="url(#rgrad2)" filter="url(#blur2)" opacity="0.63"/>
        <ellipse cx="0" cy="0" rx="11.7" ry="7.8" fill="#FFFFFF" opacity="0.32"/>
      </g>
      </g>
      </g>
      </g>
      </g>
      </g>
      </g>
  </g>
  <g transform="translate(749.0, 124.4)">
      <g transform="translate(4.51,1.72) rotate(4.03) scale(1.000)">
        <g transform="translate(4.99,0.58) rotate(6.72) scale(0.980)">
        <g transform="translate(4.25,-0.62) rotate(7.68) scale(0.960)">
        <g transform="translate(2.47,-1.76) rotate(6.62) scale(0.940)" clip-path="url(#clipRect)">
        <g transform="translate(0.08,-2.74) rotate(3.42) scale(0.920)">
        <g transform="translate(-2.33,-3.48) rotate(-1.88) scale(0.900)">
        <g transform="translate(-4.16,-3.91) rotate(-9.09) scale(0.880)">
        <circle cx="0" cy="0" r="23.4" fill="url(#lgrad3)" filter="url(#shadow)" opacity="0.51"/>
        <text x="0" y="5" text-anchor="middle" font-family="Arial, sans-serif" font-size="14" fill="#FFFFFF" opacity="0.51">702</text>
      </g>
      </g>
      </g>
      </g>
      </g>
      </g>
      </g>
  </g>
  <g transform="translate(983.8, 115.0)">
      <g transform="translate(4.25,-2.11) rotate(4.03) scale(1.000)">
        <g transform="translate(2.47,-3.02) rotate(6.72) scale(0.980)">
        <g transform="translate(0.08,-3.66) rotate(7.68) scale(0.960)">
        <g transform="translate(-2.33,-3.97) rotate(6.62) scale(0.940)">
        <g transform="translate(-4.16,-3.93) rotate(3.42) scale(0.920)">
        <g transform="translate(-4.98,-3.54) rotate(-1.88) scale(0.900)" mask="url(#maskGradient)">
        <g transform="translate(-4.58,-2.83) rotate(-9.09) scale(0.880)">
        <path d="M0.0,-58.8 L17.3,-23.8 L55.9,-18.2 L28.0,9.1 L34.6,47.6 L0.0,29.4 L-34.6,47.6 L-28.0,9.1 L-55.9,-18.2 L-17.3,-23.8Z" fill="url(#rgrad4)" filter="url(#blur4)" opacity="0.40"/>
      </g>
      </g>
      </g>
      </g>
      </g>
      </g>
      </g>
  </g>
  <g transform="translate(1217.6, 98.6)">
      <g transform="translate(0.08,-4.00) rotate(4.03) scale(1.000)">
        <g transform="translate(-2.33,-3.84) rotate(6.72) scale(0.980)">
        <g transform="translate(-4.16,-3.34) rotate(7.68) scale(0.960)">
        <g transform="translate(-4.98,-2.54) rotate(6.62) scale(0.940)">
        <g transform="translate(-4.58,-1.51) rotate(3.42) scale(0.920)">
        <g transform="translate(-3.06,-0.35) rotate(-1.88) scale(0.900)">
        <g transform="translate(-0.78,0.85) rotate(-9.09) scale(0.880)">
        <rect x="-36.0" y="-36.0" width="71.9" height="71.9" rx="18.0" fill="url(#rgrad0)" filter="url(#shadow)" opacity="0.29"/>
        <circle cx="0" cy="0" r="24.0" fill="url(#rgrad1)" opacity="0.20"/>
      </g>
      </g>
      </g>
      </g>
      </g>
      </g>
      </g>
  </g>
  <g transform="translate(1447.1, 82.9)">
      <g transform="translate(-4.16,-2.21) rotate(4.03) scale(1.000)">
        <g transform="translate(-4.98,-1.13) rotate(6.72) scale(0.980)">
        <g transform="translate(-4.58,0.05) rotate(7.68) scale(0.960)">
        <g transform="translate(-3.06,1.23) rotate(6.62) scale(0.940)" clip-path="url(#clipStar)">
        <g transform="translate(-0.78,2.30) rotate(3.42) scale(0.920)">
        <g transform="translate(1.68,3.17) rotate(-1.88) scale(0.900)">
        <g transform="translate(3.73,3.75) rotate(-9.09) scale(0.880)">
        <path d="M38.5,22.2 L0.0,44.5 L-38.5,22.2 L-38.5,-22.2 L-0.0,-44.5 L38.5,-22.2Z" fill="url(#lgrad1)" filter="url(#blur1)" opacity="0.20"/>
        <ellipse cx="0" cy="0" rx="18.5" ry="12.3" fill="#FFFFFF" opacity="0.10"/>
      </g>
      </g>
      </g>
      </g>
      </g>
      </g>
      </g>
  </g>
  <g transform="translate(1670.0, 75.2)">
      <g transform="translate(-4.58,1.61) rotate(4.03) scale(1.000)">
        <g transform="translate(-3.06,2.62) rotate(6.72) scale(0.980)">
        <g transform="translate(-0.78,3.39) rotate(7.68) scale(0.960)">
        <g transform="translate(1.68,3.87) rotate(6.62) scale(0.940)">
        <g transform="translate(3.73,4.00) rotate(3.42) scale(0.920)">
        <g transform="translate(4.87,3.77) rotate(-1.88) scale(0.900)" mask="url(#maskDynamic)">
        <g transform="translate(4.82,3.20) rotate(-9.09) scale(0.880)">
        <circle cx="0" cy="0" r="31.6" fill="url(#rgrad2)" filter="url(#shadow)" opacity="0.13"/>
        <text x="0" y="5" text-anchor="middle" font-family="Arial, sans-serif" font-size="14" fill="#FFFFFF" opacity="0.13">702</text>
      </g>
      </g>
      </g>
      </g>
      </g>
      </g>
      </g>
  </g>
  <g transform="translate(125.5, 359.1)">
      <g transform="translate(-0.78,3.95) rotate(4.03) scale(1.000)">
        <g transform="translate(1.68,3.96) rotate(6.72) scale(0.980)">
        <g transform="translate(3.73,3.61) rotate(7.68) scale(0.960)">
        <g transform="translate(4.87,2.95) rotate(6.62) scale(0.940)">
        <g transform="translate(4.82,2.02) rotate(3.42) scale(0.920)">
        <g transform="translate(3.58,0.91) rotate(-1.88) scale(0.900)">
        <g transform="translate(1.47,-0.29) rotate(-9.09) scale(0.880)">
        <path d="M0.0,-49.5 L14.5,-20.0 L47.0,-15.3 L23.5,7.6 L29.1,40.0 L0.0,24.7 L-29.1,40.0 L-23.5,7.6 L-47.0,-15.3 L-14.5,-20.0Z" fill="url(#rgrad3)" filter="url(#blur3)" opacity="0.10"/>
      </g>
      </g>
      </g>
      </g>
      </g>
      </g>
      </g>
  </g>
  <g transform="translate(334.8, 372.9)">
      <g transform="translate(3.73,2.66) rotate(4.03) scale(1.000)">
        <g transform="translate(4.87,1.66) rotate(6.72) scale(0.980)">
        <g transform="translate(4.82,0.51) rotate(7.68) scale(0.960)">
        <g transform="translate(3.58,-0.68) rotate(6.62) scale(0.940)" clip-path="url(#clipDynamic)">
        <g transform="translate(1.47,-1.82) rotate(3.42) scale(0.920)">
        <g transform="translate(-1.00,-2.79) rotate(-1.88) scale(0.900)">
        <g transform="translate(-3.22,-3.51) rotate(-9.09) scale(0.880)">
        <rect x="-22.7" y="-22.7" width="45.3" height="45.3" rx="11.3" fill="url(#lgrad4)" filter="url(#shadow)" opacity="0.11"/>
        <circle cx="0" cy="0" r="15.1" fill="url(#rgrad0)" opacity="0.08"/>
      </g>
      </g>
      </g>
      </g>
      </g>
      </g>
      </g>
  </g>
  <g transform="translate(540.5, 390.0)">
      <g transform="translate(4.82,-1.07) rotate(4.03) scale(1.000)">
        <g transform="translate(3.58,-2.16) rotate(6.72) scale(0.980)">
        <g transform="translate(1.47,-3.06) rotate(7.68) scale(0.960)">
        <g transform="translate(-1.00,-3.69) rotate(6.62) scale(0.940)">
        <g transform="translate(-3.22,-3.98) rotate(3.42) scale(0.920)">
        <g transform="translate(-4.66,-3.92) rotate(-1.88) scale(0.900)" mask="url(#maskStripes)">
        <g transform="translate(-4.96,-3.51) rotate(-9.09) scale(0.880)">
        <path d="M28.4,16.4 L0.0,32.8 L-28.4,16.4 L-28.4,-16.4 L-0.0,-32.8 L28.4,-16.4Z" fill="url(#rgrad0)" filter="url(#blur0)" opacity="0.15"/>
        <ellipse cx="0" cy="0" rx="13.7" ry="9.1" fill="#FFFFFF" opacity="0.07"/>
      </g>
      </g>
      </g>
      </g>
      </g>
      </g>
      </g>
  </g>
  <g transform="translate(746.0, 402.4)">
      <g transform="translate(1.47,-3.82) rotate(4.03) scale(1.000)">
        <g transform="translate(-1.00,-4.00) rotate(6.72) scale(0.980)">
        <g transform="translate(-3.22,-3.82) rotate(7.68) scale(0.960)">
        <g transform="translate(-4.66,-3.30) rotate(6.62) scale(0.940)">
        <g transform="translate(-4.96,-2.48) rotate(3.42) scale(0.920)">
        <g transform="translate(-4.04,-1.45) rotate(-1.88) scale(0.900)">
        <g transform="translate(-2.13,-0.28) rotate(-9.09) scale(0.880)">
        <circle cx="0" cy="0" r="34.5" fill="url(#rgrad1)" filter="url(#shadow)" opacity="0.22"/>
        <text x="0" y="5" text-anchor="middle" font-family="Arial, sans-serif" font-size="14" fill="#FFFFFF" opacity="0.22">702</text>
      </g>
      </g>
      </g>
      </g>
      </g>
      </g>
      </g>
  </g>
  <g transform="translate(955.0, 404.3)">
      <g transform="translate(-3.22,-3.06) rotate(4.03) scale(1.000)">
        <g transform="translate(-4.66,-2.16) rotate(6.72) scale(0.980)">
        <g transform="translate(-4.96,-1.07) rotate(7.68) scale(0.960)">
        <g transform="translate(-4.04,0.12) rotate(6.62) scale(0.940)" clip-path="url(#clipHex)">
        <g transform="translate(-2.13,1.30) rotate(3.42) scale(0.920)">
        <g transform="translate(0.30,2.36) rotate(-1.88) scale(0.900)">
        <g transform="translate(2.65,3.21) rotate(-9.09) scale(0.880)">
        <path d="M0.0,-75.0 L22.0,-30.3 L71.3,-23.2 L35.6,11.6 L44.1,60.6 L0.0,37.5 L-44.1,60.6 L-35.6,11.6 L-71.3,-23.2 L-22.0,-30.3Z" fill="url(#lgrad2)" filter="url(#blur2)" opacity="0.32"/>
      </g>
      </g>
      </g>
      </g>
      </g>
      </g>
      </g>
  </g>
  <g transform="translate(1170.1, 394.7)">
      <g transform="translate(-4.96,0.52) rotate(4.03) scale(1.000)">
        <g transform="translate(-4.04,1.67) rotate(6.72) scale(0.980)">
        <g transform="translate(-2.13,2.67) rotate(7.68) scale(0.960)">
        <g transform="translate(0.30,3.43) rotate(6.62) scale(0.940)">
        <g transform="translate(2.65,3.88) rotate(3.42) scale(0.920)">
        <g transform="translate(4.36,3.99) rotate(-1.88) scale(0.900)" mask="url(#maskCircleFade)">
        <g transform="translate(5.00,3.74) rotate(-9.09) scale(0.880)">
        <rect x="-33.6" y="-33.6" width="67.2" height="67.2" rx="16.8" fill="url(#rgrad3)" filter="url(#shadow)" opacity="0.43"/>
        <circle cx="0" cy="0" r="22.4" fill="url(#rgrad4)" opacity="0.30"/>
      </g>
      </g>
      </g>
      </g>
      </g>
      </g>
      </g>
  </g>
  <g transform="translate(1392.5, 378.2)">
      <g transform="translate(-2.13,3.62) rotate(4.03) scale(1.000)">
        <g transform="translate(0.30,3.96) rotate(6.72) scale(0.980)">
        <g transform="translate(2.65,3.95) rotate(7.68) scale(0.960)">
        <g transform="translate(4.36,3.59) rotate(6.62) scale(0.940)">
        <g transform="translate(5.00,2.90) rotate(3.42) scale(0.920)">
        <g transform="translate(4.42,1.96) rotate(-1.88) scale(0.900)">
        <g transform="translate(2.75,0.84) rotate(-9.09) scale(0.880)">
        <path d="M27.5,15.9 L0.0,31.7 L-27.5,15.9 L-27.5,-15.9 L-0.0,-31.7 L27.5,-15.9Z" fill="url(#rgrad4)" filter="url(#blur4)" opacity="0.55"/>
        <ellipse cx="0" cy="0" rx="13.2" ry="8.8" fill="#FFFFFF" opacity="0.27"/>
      </g>
      </g>
      </g>
      </g>
      </g>
      </g>
      </g>
  </g>
  <g transform="translate(1621.7, 362.6)">
      <g transform="translate(2.65,3.39) rotate(4.03) scale(1.000)">
        <g transform="translate(4.36,2.61) rotate(6.72) scale(0.980)">
        <g transform="translate(5.00,1.60) rotate(7.68) scale(0.960)">
        <g transform="translate(4.42,0.44) rotate(6.62) scale(0.940)" clip-path="url(#clipCircle)">
        <g transform="translate(2.75,-0.75) rotate(3.42) scale(0.920)">
        <g transform="translate(0.41,-1.88) rotate(-1.88) scale(0.900)">
        <g transform="translate(-2.03,-2.84) rotate(-9.09) scale(0.880)">
        <circle cx="0" cy="0" r="22.5" fill="url(#lgrad0)" filter="url(#shadow)" opacity="0.66"/>
        <text x="0" y="5" text-anchor="middle" font-family="Arial, sans-serif" font-size="14" fill="#FFFFFF" opacity="0.66">702</text>
      </g>
      </g>
      </g>
      </g>
      </g>
      </g>
      </g>
  </g>
  <g transform="translate(95.3, 635.1)">
      <g transform="translate(5.00,0.05) rotate(4.03) scale(1.000)">
        <g transform="translate(4.42,-1.14) rotate(6.72) scale(0.980)">
        <g transform="translate(2.75,-2.22) rotate(7.68) scale(0.960)">
        <g transform="translate(0.41,-3.10) rotate(6.62) scale(0.940)">
        <g transform="translate(-2.03,-3.71) rotate(3.42) scale(0.920)">
        <g transform="translate(-3.97,-3.99) rotate(-1.88) scale(0.900)" mask="url(#maskGradient)">
        <g transform="translate(-4.94,-3.91) rotate(-9.09) scale(0.880)">
        <path d="M0.0,-51.0 L15.0,-20.6 L48.5,-15.8 L24.2,7.9 L30.0,41.2 L0.0,25.5 L-30.0,41.2 L-24.2,7.9 L-48.5,-15.8 L-15.0,-20.6Z" fill="url(#rgrad1)" filter="url(#blur1)" opacity="0.76"/>
      </g>
      </g>
      </g>
      </g>
      </g>
      </g>
      </g>
  </g>
  <g transform="translate(330.1, 639.4)">
      <g transform="translate(2.75,-3.34) rotate(4.03) scale(1.000)">
        <g transform="translate(0.41,-3.84) rotate(6.72) scale(0.980)">
        <g transform="translate(-2.03,-4.00) rotate(7.68) scale(0.960)">
        <g transform="translate(-3.97,-3.80) rotate(6.62) scale(0.940)">
        <g transform="translate(-4.94,-3.26) rotate(3.42) scale(0.920)">
        <g transform="translate(-4.70,-2.43) rotate(-1.88) scale(0.900)">
        <g transform="translate(-3.31,-1.38) rotate(-9.09) scale(0.880)">
        <rect x="-32.6" y="-32.6" width="65.2" height="65.2" rx="16.3" fill="url(#rgrad2)" filter="url(#shadow)" opacity="0.84"/>
        <circle cx="0" cy="0" r="21.7" fill="url(#rgrad3)" opacity="0.59"/>
      </g>
      </g>
      </g>
      </g>
      </g>
      </g>
      </g>
  </g>
  <g transform="translate(562.4, 653.3)">
      <g transform="translate(-2.03,-3.66) rotate(4.03) scale(1.000)">
        <g transform="translate(-3.97,-3.01) rotate(6.72) scale(0.980)">
        <g transform="translate(-4.94,-2.10) rotate(7.68) scale(0.960)">
        <g transform="translate(-4.70,-1.00) rotate(6.62) scale(0.940)" clip-path="url(#clipRect)">
        <g transform="translate(-3.31,0.19) rotate(3.42) scale(0.920)">
        <g transform="translate(-1.11,1.36) rotate(-1.88) scale(0.900)">
        <g transform="translate(1.36,2.41) rotate(-9.09) scale(0.880)">
        <path d="M38.8,22.4 L0.0,44.8 L-38.8,22.4 L-38.8,-22.4 L-0.0,-44.8 L38.8,-22.4Z" fill="url(#lgrad3)" filter="url(#blur3)" opacity="0.89"/>
        <ellipse cx="0" cy="0" rx="18.7" ry="12.4" fill="#FFFFFF" opacity="0.44"/>
      </g>
      </g>
      </g>
      </g>
      </g>
      </g>
      </g>
  </g>
  <g transform="translate(789.2, 670.4)">
      <g transform="translate(-4.94,-0.61) rotate(4.03) scale(1.000)">
        <g transform="translate(-4.70,0.59) rotate(6.72) scale(0.980)">
        <g transform="translate(-3.31,1.73) rotate(7.68) scale(0.960)">
        <g transform="translate(-1.11,2.72) rotate(6.62) scale(0.940)">
        <g transform="translate(1.36,3.46) rotate(3.42) scale(0.920)">
        <g transform="translate(3.50,3.90) rotate(-1.88) scale(0.900)" mask="url(#maskDynamic)">
        <g transform="translate(4.78,3.99) rotate(-9.09) scale(0.880)">
        <circle cx="0" cy="0" r="35.3" fill="url(#rgrad4)" filter="url(#shadow)" opacity="0.90"/>
        <text x="0" y="5" text-anchor="middle" font-family="Arial, sans-serif" font-size="14" fill="#FFFFFF" opacity="0.90">702</text>
      </g>
      </g>
      </g>
      </g>
      </g>
      </g>
      </g>
  </g>
  <g transform="translate(1008.9, 682.6)">
      <g transform="translate(-3.31,3.00) rotate(4.03) scale(1.000)">
        <g transform="translate(-1.11,3.65) rotate(6.72) scale(0.980)">
        <g transform="translate(1.36,3.97) rotate(7.68) scale(0.960)">
        <g transform="translate(3.50,3.94) rotate(6.62) scale(0.940)">
        <g transform="translate(4.78,3.56) rotate(3.42) scale(0.920)">
        <g transform="translate(4.89,2.85) rotate(-1.88) scale(0.900)">
        <g transform="translate(3.81,1.90) rotate(-9.09) scale(0.880)">
        <path d="M0.0,-56.8 L16.7,-23.0 L54.0,-17.6 L27.0,8.8 L33.4,46.0 L0.0,28.4 L-33.4,46.0 L-27.0,8.8 L-54.0,-17.6 L-16.7,-23.0Z" fill="url(#rgrad0)" filter="url(#blur0)" opacity="0.88"/>
      </g>
      </g>
      </g>
      </g>
      </g>
      </g>
      </g>
  </g>
  <g transform="translate(1221.5, 684.2)">
      <g transform="translate(1.36,3.85) rotate(4.03) scale(1.000)">
        <g transform="translate(3.50,3.35) rotate(6.72) scale(0.980)">
        <g transform="translate(4.78,2.56) rotate(7.68) scale(0.960)">
        <g transform="translate(4.89,1.54) rotate(6.62) scale(0.940)" clip-path="url(#clipStar)">
        <g transform="translate(3.81,0.38) rotate(3.42) scale(0.920)">
        <g transform="translate(1.79,-0.82) rotate(-1.88) scale(0.900)">
        <g transform="translate(-0.67,-1.94) rotate(-9.09) scale(0.880)">
        <rect x="-23.0" y="-23.0" width="45.9" height="45.9" rx="11.5" fill="url(#lgrad1)" filter="url(#shadow)" opacity="0.82"/>
        <circle cx="0" cy="0" r="15.3" fill="url(#rgrad2)" opacity="0.57"/>
      </g>
      </g>
      </g>
      </g>
      </g>
      </g>
      </g>
  </g>
  <g transform="translate(1428.8, 674.4)">
      <g transform="translate(4.78,1.16) rotate(4.03) scale(1.000)">
        <g transform="translate(4.89,-0.02) rotate(6.72) scale(0.980)">
        <g transform="translate(3.81,-1.20) rotate(7.68) scale(0.960)">
        <g transform="translate(1.79,-2.28) rotate(6.62) scale(0.940)">
        <g transform="translate(-0.67,-3.15) rotate(3.42) scale(0.920)">
        <g transform="translate(-2.96,-3.74) rotate(-1.88) scale(0.900)" mask="url(#maskStripes)">
        <g transform="translate(-4.53,-3.99) rotate(-9.09) scale(0.880)">
        <path d="M24.9,14.4 L0.0,28.8 L-24.9,14.4 L-24.9,-14.4 L-0.0,-28.8 L24.9,-14.4Z" fill="url(#rgrad2)" filter="url(#blur2)" opacity="0.73"/>
        <ellipse cx="0" cy="0" rx="12.0" ry="8.0" fill="#FFFFFF" opacity="0.37"/>
      </g>
      </g>
      </g>
      </g>
      </g>
      </g>
      </g>
  </g>
  <g transform="translate(1634.0, 657.8)">
      <g transform="translate(3.81,-2.59) rotate(4.03) scale(1.000)">
        <g transform="translate(1.79,-3.38) rotate(6.72) scale(0.980)">
        <g transform="translate(-0.67,-3.86) rotate(7.68) scale(0.960)">
        <g transform="translate(-2.96,-4.00) rotate(6.62) scale(0.940)">
        <g transform="translate(-4.53,-3.78) rotate(3.42) scale(0.920)">
        <g transform="translate(-4.99,-3.22) rotate(-1.88) scale(0.900)">
        <g transform="translate(-4.23,-2.38) rotate(-9.09) scale(0.880)">
        <circle cx="0" cy="0" r="30.5" fill="url(#rgrad3)" filter="url(#shadow)" opacity="0.63"/>
        <text x="0" y="5" text-anchor="middle" font-family="Arial, sans-serif" font-size="14" fill="#FFFFFF" opacity="0.63">702</text>
      </g>
      </g>
      </g>
      </g>
      </g>
      </g>
      </g>
  </g>
  <g transform="translate(80.7, 922.3)">
      <g transform="translate(-0.67,-3.96) rotate(4.03) scale(1.000)">
        <g transform="translate(-2.96,-3.63) rotate(6.72) scale(0.980)">
        <g transform="translate(-4.53,-2.97) rotate(7.68) scale(0.960)">
        <g transform="translate(-4.99,-2.04) rotate(6.62) scale(0.940)" clip-path="url(#clipDynamic)">
        <g transform="translate(-4.23,-0.94) rotate(3.42) scale(0.920)">
        <g transform="translate(-2.43,0.25) rotate(-1.88) scale(0.900)">
        <g transform="translate(-0.04,1.42) rotate(-9.09) scale(0.880)">
        <path d="M0.0,-73.2 L21.5,-29.6 L69.6,-22.6 L34.8,11.3 L43.0,59.2 L0.0,36.6 L-43.0,59.2 L-34.8,11.3 L-69.6,-22.6 L-21.5,-29.6Z" fill="url(#lgrad4)" filter="url(#blur4)" opacity="0.51"/>
      </g>
      </g>
      </g>
      </g>
      </g>
      </g>
      </g>
  </g>
  <g transform="translate(204.6, 276.1)" mask="url(#maskGradient)">
    <ellipse cx="0" cy="0" rx="200" ry="150" fill="url(#rgrad0)" filter="url(#blur3)" opacity="0.3"/>
  </g>
  <g transform="translate(723.3, 330.9)" mask="url(#maskCircleFade)">
    <ellipse cx="0" cy="0" rx="200" ry="150" fill="url(#rgrad1)" filter="url(#blur3)" opacity="0.3"/>
  </g>
  <g transform="translate(1312.5, 371.2)" mask="url(#maskStripes)">
    <ellipse cx="0" cy="0" rx="200" ry="150" fill="url(#rgrad2)" filter="url(#blur3)" opacity="0.3"/>
  </g>
</svg>