<?xml version="1.0" encoding="UTF-8"?>
<svg xmlns="http://www.w3.org/2000/svg" viewBox="0 0 1920 1080" width="1920" height="1080">
  <defs>
    <filter id="blur0" x="-50%" y="-50%" width="200%" height="200%">
      <feGaussianBlur in="SourceGraphic" stdDeviation="1"/>
    </filter>
    <filter id="blur1" x="-50%" y="-50%" width="200%" height="200%">
      <feGaussianBlur in="SourceGraphic" stdDeviation="3"/>
    </filter>
    <filter id="blur2" x="-50%" y="-50%" width="200%" height="200%">
      <feGaussianBlur in="SourceGraphic" stdDeviation="5"/>
    </filter>
    <filter id="blur3" x="-50%" y="-50%" width="200%" height="200%">
      <feGaussianBlur in="SourceGraphic" stdDeviation="7"/>
    </filter>
    <filter id="blur4" x="-50%" y="-50%" width="200%" height="200%">
      <feGaussianBlur in="SourceGraphic" stdDeviation="9"/>
    </filter>
    <filter id="shadow" x="-50%" y="-50%" width="200%" height="200%">
      <feGaussianBlur in="SourceAlpha" stdDeviation="3" result="blur"/>
      <feOffset in="blur" dx="4" dy="4" result="offsetBlur"/>
      <feMerge>
        <feMergeNode in="offsetBlur"/>
        <feMergeNode in="SourceGraphic"/>
      </feMerge>
    </filter>
    <linearGradient id="lgrad0" x1="0%" y1="0%" x2="67.5%" y2="3.2%">
      <stop offset="0%" stop-color="#FF6B6B"/>
      <stop offset="33%" stop-color="#4ECDC4"/>
      <stop offset="66%" stop-color="#45B7D1"/>
      <stop offset="100%" stop-color="#96E6A1"/>
    </linearGradient>
    <linearGradient id="lgrad1" x1="0%" y1="0%" x2="88.6%" y2="18.2%">
      <stop offset="0%" stop-color="#FFE66D"/>
      <stop offset="33%" stop-color="#FF6B6B"/>
      <stop offset="66%" stop-color="#C44D58"/>
      <stop offset="100%" stop-color="#8B0000"/>
    </linearGradient>
    <linearGradient id="lgrad2" x1="0%" y1="0%" x2="99.3%" y2="41.7%">
      <stop offset="0%" stop-color="#4169E1"/>
      <stop offset="33%" stop-color="#7B68EE"/>
      <stop offset="66%" stop-color="#9370DB"/>
      <stop offset="100%" stop-color="#FFD700"/>
    </linearGradient>
    <linearGradient id="lgrad3" x1="0%" y1="0%" x2="96.8%" y2="67.5%">
      <stop offset="0%" stop-color="#32CD32"/>
      <stop offset="33%" stop-color="#228B22"/>
      <stop offset="66%" stop-color="#006400"/>
      <stop offset="100%" stop-color="#ADFF2F"/>
    </linearGradient>
    <linearGradient id="lgrad4" x1="0%" y1="0%" x2="81.8%" y2="88.6%">
      <stop offset="0%" stop-color="#FF1493"/>
      <stop offset="33%" stop-color="#FF69B4"/>
      <stop offset="66%" stop-color="#FFB6C1"/>
      <stop offset="100%" stop-color="#FFC0CB"/>
    </linearGradient>
    <radialGradient id="rgrad0" cx="57.3%" cy="48.2%" r="60%">
      <stop offset="0%" stop-color="#FF6B6B" stop-opacity="1"/>
      <stop offset="50%" stop-color="#4ECDC4" stop-opacity="0.8"/>
      <stop offset="100%" stop-color="#45B7D1" stop-opacity="0.6"/>
    </radialGradient>
    <radialGradient id="rgrad1" cx="67.3%" cy="56.2%" r="60%">
      <stop offset="0%" stop-color="#FFE66D" stop-opacity="1"/>
      <stop offset="50%" stop-color="#FF6B6B" stop-opacity="0.8"/>
      <stop offset="100%" stop-color="#C44D58" stop-opacity="0.6"/>
    </radialGradient>
    <radialGradient id="rgrad2" cx="37.3%" cy="64.2%" r="60%">
      <stop offset="0%" stop-color="#4169E1" stop-opacity="1"/>
      <stop offset="50%" stop-color="#7B68EE" stop-opacity="0.8"/>
      <stop offset="100%" stop-color="#9370DB" stop-opacity="0.6"/>
    </radialGradient>
    <radialGradient id="rgrad3" cx="47.3%" cy="32.2%" r="60%">
      <stop offset="0%" stop-color="#32CD32" stop-opacity="1"/>
      <stop offset="50%" stop-color="#228B22" stop-opacity="0.8"/>
      <stop offset="100%" stop-color="#006400" stop-opacity="0.6"/>
    </radialGradient>
    <radialGradient id="rgrad4" cx="57.3%" cy="40.2%" r="60%">
      <stop offset="0%" stop-color="#FF1493" stop-opacity="1"/>
      <stop offset="50%" stop-color="#FF69B4" stop-opacity="0.8"/>
      <stop offset="100%" stop-color="#FFB6C1" stop-opacity="0.6"/>
    </radialGradient>
    <clipPath id="clipCircle">
      <circle cx="0" cy="0" r="50"/>
    </clipPath>
    <clipPath id="clipStar">
      <path d="M0.0,-50.0 L14.7,-20.2 L47.6,-15.5 L23.8,7.7 L29.4,40.5 L0.0,25.0 L-29.4,40.5 L-23.8,7.7 L-47.6,-15.5 L-14.7,-20.2Z"/>
    </clipPath>
    <clipPath id="clipHex">
      <path d="M39.0,22.5 L0.0,45.0 L-39.0,22.5 L-39.0,-22.5 L-0.0,-45.0 L39.0,-22.5Z"/>
    </clipPath>
    <clipPath id="clipRect">
      <rect x="-40" y="-30" width="80" height="60" rx="10"/>
    </clipPath>
    <clipPath id="clipDynamic">
      <circle cx="0" cy="0" r="35.9"/>
    </clipPath>
    <mask id="maskGradient" maskContentUnits="objectBoundingBox">
      <rect x="0" y="0" width="1" height="1" fill="url(#maskGrad)"/>
    </mask>
    <linearGradient id="maskGrad" x1="0%" y1="0%" x2="100%" y2="100%">
      <stop offset="0%" stop-color="white"/>
      <stop offset="100%" stop-color="black"/>
    </linearGradient>
    <mask id="maskCircleFade">
      <circle cx="0" cy="0" r="60" fill="white"/>
      <circle cx="0" cy="0" r="30" fill="black"/>
    </mask>
    <mask id="maskStripes">
      <rect x="-50" y="-50" width="100" height="100" fill="white"/>
      <rect x="-50" y="-40" width="100" height="10" fill="black"/>
      <rect x="-50" y="-20" width="100" height="10" fill="black"/>
      <rect x="-50" y="0" width="100" height="10" fill="black"/>
      <rect x="-50" y="20" width="100" height="10" fill="black"/>
      <rect x="-50" y="40" width="100" height="10" fill="black"/>
    </mask>
    <mask id="maskDynamic">
      <rect x="-60" y="-60" width="120" height="120" fill="white" fill-opacity="1.00"/>
      <circle cx="0" cy="0" r="25" fill="white"/>
    </mask>
  </defs>
  <rect width="1920" height="1080" fill="url(#lgrad0)"/>
  <g transform="translate(101.8, 75.0)">
      <g transform="translate(0.30,-3.99) rotate(5.00) scale(1.000)">
        <g transform="translate(-2.13,-3.89) rotate(9.86) scale(0.980)">
        <g transform="translate(-4.04,-3.43) rotate(13.98) scale(0.960)">
        <g transform="translate(-4.96,-2.67) rotate(16.84) scale(0.940)" clip-path="url(#clipCircle)">
        <g transform="translate(-4.66,-1.67) rotate(17.95) scale(0.920)">
        <g transform="translate(-3.23,-0.52) rotate(16.96) scale(0.900)">
        <g transform="translate(-1.00,0.67) rotate(13.65) scale(0.880)">
        <path d="M0.0,-75.0 L22.0,-30.3 L71.3,-23.2 L35.7,11.6 L44.1,60.7 L0.0,37.5 L-44.1,60.7 L-35.7,11.6 L-71.3,-23.2 L-22.0,-30.3Z" fill="url(#lgrad0)" filter="url(#blur0)" opacity="0.90"/>
      </g>
      </g>
      </g>
      </g>
      </g>
      </g>
      </g>
  </g>
  <g transform="translate(307.2, 80.0)">
      <g transform="translate(-4.04,-2.36) rotate(5.00) scale(1.000)">
        <g transform="translate(-4.96,-1.30) rotate(9.86) scale(0.980)">
        <g transform="translate(-4.66,-0.12) rotate(13.98) scale(0.960)">
        <g transform="translate(-3.23,1.06) rotate(16.84) scale(0.940)">
        <g transform="translate(-1.00,2.16) rotate(17.95) scale(0.920)">
        <g transform="translate(1.47,3.06) rotate(16.96) scale(0.900)" mask="url(#maskCircleFade)">
        <g transform="translate(3.58,3.68) rotate(13.65) scale(0.880)">
        <rect x="-34.2" y="-34.2" width="68.5" height="68.5" rx="17.1" fill="url(#rgrad1)" filter="url(#shadow)" opacity="0.89"/>
        <circle cx="0" cy="0" r="22.8" fill="url(#rgrad2)" opacity="0.62"/>
      </g>
      </g>
      </g>
      </g>
      </g>
      </g>
      </g>
  </g>
  <g transform="translate(515.8, 94.3)">
      <g transform="translate(-4.66,1.44) rotate(5.00) scale(1.000)">
        <g transform="translate(-3.23,2.48) rotate(9.86) scale(0.980)">
        <g transform="translate(-1.00,3.30) rotate(13.98) scale(0.960)">
        <g transform="translate(1.47,3.82) rotate(16.84) scale(0.940)">
        <g transform="translate(3.58,4.00) rotate(17.95) scale(0.920)">
        <g transform="translate(4.82,3.82) rotate(16.96) scale(0.900)">
        <g transform="translate(4.87,3.30) rotate(13.65) scale(0.880)">
        <path d="M28.1,16.3 L0.0,32.5 L-28.1,16.3 L-28.1,-16.3 L-0.0,-32.5 L28.1,-16.3Z" fill="url(#rgrad2)" filter="url(#blur2)" opacity="0.84"/>
        <ellipse cx="0" cy="0" rx="13.5" ry="9.0" fill="#FFFFFF" opacity="0.42"/>
      </g>
      </g>
      </g>
      </g>
      </g>
      </g>
      </g>
  </g>
  <g transform="translate(730.3, 111.3)">
      <g transform="translate(-1.00,3.92) rotate(5.00) scale(1.000)">
        <g transform="translate(1.47,3.98) rotate(9.86) scale(0.980)">
        <g transform="translate(3.58,3.69) rotate(13.98) scale(0.960)">
        <g transform="translate(4.82,3.06) rotate(16.84) scale(0.940)" clip-path="url(#clipRect)">
        <g transform="translate(4.87,2.17) rotate(17.95) scale(0.920)">
        <g transform="translate(3.73,1.08) rotate(16.96) scale(0.900)">
        <g transform="translate(1.68,-0.11) rotate(13.65) scale(0.880)">
        <circle cx="0" cy="0" r="22.6" fill="url(#lgrad3)" filter="url(#shadow)" opacity="0.76"/>
        <text x="0" y="5" text-anchor="middle" font-family="Arial, sans-serif" font-size="14" fill="#FFFFFF" opacity="0.76">491</text>
      </g>
      </g>
      </g>
      </g>
      </g>
      </g>
      </g>
  </g>
  <g transform="translate(952.0, 123.0)">
      <g transform="translate(3.58,2.79) rotate(5.00) scale(1.000)">
        <g transform="translate(4.82,1.82) rotate(9.86) scale(0.980)">
        <g transform="translate(4.87,0.69) rotate(13.98) scale(0.960)">
        <g transform="translate(3.73,-0.51) rotate(16.84) scale(0.940)">
        <g transform="translate(1.68,-1.66) rotate(17.95) scale(0.920)">
        <g transform="translate(-0.78,-2.66) rotate(16.96) scale(0.900)" mask="url(#maskGradient)">
        <g transform="translate(-3.05,-3.42) rotate(13.65) scale(0.880)">
        <path d="M0.0,-49.9 L14.7,-20.2 L47.4,-15.4 L23.7,7.7 L29.3,40.3 L0.0,24.9 L-29.3,40.3 L-23.7,7.7 L-47.4,-15.4 L-14.7,-20.2Z" fill="url(#rgrad4)" filter="url(#blur4)" opacity="0.66"/>
      </g>
      </g>
      </g>
      </g>
      </g>
      </g>
      </g>
  </g>
  <g transform="translate(1180.6, 123.9)">
      <g transform="translate(4.87,-0.90) rotate(5.00) scale(1.000)">
        <g transform="translate(3.73,-2.01) rotate(9.86) scale(0.980)">
        <g transform="translate(1.68,-2.95) rotate(13.98) scale(0.960)">
        <g transform="translate(-0.78,-3.61) rotate(16.84) scale(0.940)">
        <g transform="translate(-3.05,-3.96) rotate(17.95) scale(0.920)">
        <g transform="translate(-4.58,-3.95) rotate(16.96) scale(0.900)">
        <g transform="translate(-4.98,-3.59) rotate(13.65) scale(0.880)">
        <rect x="-31.9" y="-31.9" width="63.8" height="63.8" rx="16.0" fill="url(#rgrad0)" filter="url(#shadow)" opacity="0.54"/>
        <circle cx="0" cy="0" r="21.3" fill="url(#rgrad1)" opacity="0.38"/>
      </g>
      </g>
      </g>
      </g>
      </g>
      </g>
      </g>
  </g>
  <g transform="translate(1414.0, 113.5)">
      <g transform="translate(1.68,-3.77) rotate(5.00) scale(1.000)">
        <g transform="translate(-0.78,-4.00) rotate(9.86) scale(0.980)">
        <g transform="translate(-3.05,-3.87) rotate(13.98) scale(0.960)">
        <g transform="translate(-4.58,-3.40) rotate(16.84) scale(0.940)" clip-path="url(#clipStar)">
        <g transform="translate(-4.98,-2.62) rotate(17.95) scale(0.920)">
        <g transform="translate(-4.17,-1.61) rotate(16.96) scale(0.900)">
        <g transform="translate(-2.33,-0.45) rotate(13.65) scale(0.880)">
        <path d="M38.6,22.3 L0.0,44.6 L-38.6,22.3 L-38.6,-22.3 L-0.0,-44.6 L38.6,-22.3Z" fill="url(#lgrad1)" filter="url(#blur1)" opacity="0.42"/>
        <ellipse cx="0" cy="0" rx="18.6" ry="12.4" fill="#FFFFFF" opacity="0.21"/>
      </g>
      </g>
      </g>
      </g>
      </g>
      </g>
      </g>
  </g>
  <g transform="translate(1648.8, 96.8)">
      <g transform="translate(-3.05,-3.17) rotate(5.00) scale(1.000)">
        <g transform="translate(-4.58,-2.30) rotate(9.86) scale(0.980)">
        <g transform="translate(-4.98,-1.23) rotate(13.98) scale(0.960)">
        <g transform="translate(-4.17,-0.05) rotate(16.84) scale(0.940)">
        <g transform="translate(-2.33,1.13) rotate(17.95) scale(0.920)">
        <g transform="translate(0.08,2.21) rotate(16.96) scale(0.900)" mask="url(#maskDynamic)">
        <g transform="translate(2.46,3.10) rotate(13.65) scale(0.880)">
        <circle cx="0" cy="0" r="35.8" fill="url(#rgrad2)" filter="url(#shadow)" opacity="0.31"/>
        <text x="0" y="5" text-anchor="middle" font-family="Arial, sans-serif" font-size="14" fill="#FFFFFF" opacity="0.31">491</text>
      </g>
      </g>
      </g>
      </g>
      </g>
      </g>
      </g>
  </g>
  <g transform="translate(121.5, 361.6)">
      <g transform="translate(-4.98,0.34) rotate(5.00) scale(1.000)">
        <g transform="translate(-4.17,1.51) rotate(9.86) scale(0.980)">
        <g transform="translate(-2.33,2.53) rotate(13.98) scale(0.960)">
        <g transform="translate(0.08,3.34) rotate(16.84) scale(0.940)">
        <g transform="translate(2.46,3.84) rotate(17.95) scale(0.920)">
        <g transform="translate(4.25,4.00) rotate(16.96) scale(0.900)">
        <g transform="translate(4.99,3.80) rotate(13.65) scale(0.880)">
        <path d="M0.0,-58.3 L17.1,-23.6 L55.4,-18.0 L27.7,9.0 L34.2,47.1 L0.0,29.1 L-34.2,47.1 L-27.7,9.0 L-55.4,-18.0 L-17.1,-23.6Z" fill="url(#rgrad3)" filter="url(#blur3)" opacity="0.21"/>
      </g>
      </g>
      </g>
      </g>
      </g>
      </g>
      </g>
  </g>
  <g transform="translate(348.9, 355.0)">
      <g transform="translate(-2.33,3.54) rotate(5.00) scale(1.000)">
        <g transform="translate(0.08,3.93) rotate(9.86) scale(0.980)">
        <g transform="translate(2.46,3.97) rotate(13.98) scale(0.960)">
        <g transform="translate(4.25,3.66) rotate(16.84) scale(0.940)" clip-path="url(#clipDynamic)">
        <g transform="translate(4.99,3.02) rotate(17.95) scale(0.920)">
        <g transform="translate(4.51,2.11) rotate(16.96) scale(0.900)">
        <g transform="translate(2.93,1.01) rotate(13.65) scale(0.880)">
        <rect x="-23.3" y="-23.3" width="46.5" height="46.5" rx="11.6" fill="url(#lgrad4)" filter="url(#shadow)" opacity="0.14"/>
        <circle cx="0" cy="0" r="15.5" fill="url(#rgrad0)" opacity="0.10"/>
      </g>
      </g>
      </g>
      </g>
      </g>
      </g>
      </g>
  </g>
  <g transform="translate(569.2, 360.2)">
      <g transform="translate(2.46,3.48) rotate(5.00) scale(1.000)">
        <g transform="translate(4.25,2.74) rotate(9.86) scale(0.980)">
        <g transform="translate(4.99,1.76) rotate(13.98) scale(0.960)">
        <g transform="translate(4.51,0.62) rotate(16.84) scale(0.940)">
        <g transform="translate(2.93,-0.58) rotate(17.95) scale(0.920)">
        <g transform="translate(0.63,-1.72) rotate(16.96) scale(0.900)" mask="url(#maskStripes)">
        <g transform="translate(-1.83,-2.71) rotate(13.65) scale(0.880)">
        <path d="M24.5,14.2 L0.0,28.3 L-24.5,14.2 L-24.5,-14.2 L-0.0,-28.3 L24.5,-14.2Z" fill="url(#rgrad0)" filter="url(#blur0)" opacity="0.11"/>
        <ellipse cx="0" cy="0" rx="11.8" ry="7.9" fill="#FFFFFF" opacity="0.05"/>
      </g>
      </g>
      </g>
      </g>
      </g>
      </g>
      </g>
  </g>
  <g transform="translate(782.4, 374.7)">
      <g transform="translate(4.99,0.22) rotate(5.00) scale(1.000)">
        <g transform="translate(4.51,-0.97) rotate(9.86) scale(0.980)">
        <g transform="translate(2.93,-2.07) rotate(13.98) scale(0.960)">
        <g transform="translate(0.63,-2.99) rotate(16.84) scale(0.940)">
        <g transform="translate(-1.83,-3.64) rotate(17.95) scale(0.920)">
        <g transform="translate(-3.83,-3.97) rotate(16.96) scale(0.900)">
        <g transform="translate(-4.90,-3.94) rotate(13.65) scale(0.880)">
        <circle cx="0" cy="0" r="29.8" fill="url(#rgrad1)" filter="url(#shadow)" opacity="0.10"/>
        <text x="0" y="5" text-anchor="middle" font-family="Arial, sans-serif" font-size="14" fill="#FFFFFF" opacity="0.10">491</text>
      </g>
      </g>
      </g>
      </g>
      </g>
      </g>
      </g>
  </g>
  <g transform="translate(990.1, 391.7)">
      <g transform="translate(2.93,-3.24) rotate(5.00) scale(1.000)">
        <g transform="translate(0.63,-3.79) rotate(9.86) scale(0.980)">
        <g transform="translate(-1.83,-4.00) rotate(13.98) scale(0.960)">
        <g transform="translate(-3.83,-3.85) rotate(16.84) scale(0.940)" clip-path="url(#clipHex)">
        <g transform="translate(-4.90,-3.36) rotate(17.95) scale(0.920)">
        <g transform="translate(-4.77,-2.57) rotate(16.96) scale(0.900)">
        <g transform="translate(-3.47,-1.55) rotate(13.65) scale(0.880)">
        <path d="M0.0,-72.4 L21.3,-29.3 L68.9,-22.4 L34.4,11.2 L42.6,58.6 L0.0,36.2 L-42.6,58.6 L-34.4,11.2 L-68.9,-22.4 L-21.3,-29.3Z" fill="url(#lgrad2)" filter="url(#blur2)" opacity="0.14"/>
      </g>
      </g>
      </g>
      </g>
      </g>
      </g>
      </g>
  </g>
  <g transform="translate(1195.3, 403.2)">
      <g transform="translate(-1.83,-3.72) rotate(5.00) scale(1.000)">
        <g transform="translate(-3.83,-3.13) rotate(9.86) scale(0.980)">
        <g transform="translate(-4.90,-2.25) rotate(13.98) scale(0.960)">
        <g transform="translate(-4.77,-1.17) rotate(16.84) scale(0.940)">
        <g transform="translate(-3.47,0.01) rotate(17.95) scale(0.920)">
        <g transform="translate(-1.32,1.19) rotate(16.96) scale(0.900)" mask="url(#maskCircleFade)">
        <g transform="translate(1.15,2.27) rotate(13.65) scale(0.880)">
        <rect x="-36.9" y="-36.9" width="73.8" height="73.8" rx="18.4" fill="url(#rgrad3)" filter="url(#shadow)" opacity="0.20"/>
        <circle cx="0" cy="0" r="24.6" fill="url(#rgrad4)" opacity="0.14"/>
      </g>
      </g>
      </g>
      </g>
      </g>
      </g>
      </g>
  </g>
  <g transform="translate(1401.7, 403.8)">
      <g transform="translate(-4.90,-0.78) rotate(5.00) scale(1.000)">
        <g transform="translate(-4.77,0.41) rotate(9.86) scale(0.980)">
        <g transform="translate(-3.47,1.57) rotate(13.98) scale(0.960)">
        <g transform="translate(-1.32,2.59) rotate(16.84) scale(0.940)">
        <g transform="translate(1.15,3.37) rotate(17.95) scale(0.920)">
        <g transform="translate(3.34,3.86) rotate(16.96) scale(0.900)">
        <g transform="translate(4.72,4.00) rotate(13.65) scale(0.880)">
        <path d="M32.5,18.7 L0.0,37.5 L-32.5,18.7 L-32.5,-18.7 L-0.0,-37.5 L32.5,-18.7Z" fill="url(#rgrad4)" filter="url(#blur4)" opacity="0.29"/>
        <ellipse cx="0" cy="0" rx="15.6" ry="10.4" fill="#FFFFFF" opacity="0.15"/>
      </g>
      </g>
      </g>
      </g>
      </g>
      </g>
      </g>
  </g>
  <g transform="translate(1612.5, 393.2)">
      <g transform="translate(-3.47,2.88) rotate(5.00) scale(1.000)">
        <g transform="translate(-1.32,3.57) rotate(9.86) scale(0.980)">
        <g transform="translate(1.15,3.94) rotate(13.98) scale(0.960)">
        <g transform="translate(3.34,3.97) rotate(16.84) scale(0.940)" clip-path="url(#clipCircle)">
        <g transform="translate(4.72,3.63) rotate(17.95) scale(0.920)">
        <g transform="translate(4.93,2.97) rotate(16.96) scale(0.900)">
        <g transform="translate(3.95,2.05) rotate(13.65) scale(0.880)">
        <circle cx="0" cy="0" r="24.5" fill="url(#lgrad0)" filter="url(#shadow)" opacity="0.40"/>
        <text x="0" y="5" text-anchor="middle" font-family="Arial, sans-serif" font-size="14" fill="#FFFFFF" opacity="0.40">491</text>
      </g>
      </g>
      </g>
      </g>
      </g>
      </g>
      </g>
  </g>
  <g transform="translate(70.1, 656.4)">
      <g transform="translate(1.15,3.89) rotate(5.00) scale(1.000)">
        <g transform="translate(3.34,3.45) rotate(9.86) scale(0.980)">
        <g transform="translate(4.72,2.69) rotate(13.98) scale(0.960)">
        <g transform="translate(4.93,1.70) rotate(16.84) scale(0.940)">
        <g transform="translate(3.95,0.55) rotate(17.95) scale(0.920)">
        <g transform="translate(1.99,-0.64) rotate(16.96) scale(0.900)" mask="url(#maskGradient)">
        <g transform="translate(-0.45,-1.78) rotate(13.65) scale(0.880)">
        <path d="M0.0,-45.5 L13.4,-18.4 L43.3,-14.1 L21.6,7.0 L26.8,36.8 L0.0,22.8 L-26.8,36.8 L-21.6,7.0 L-43.3,-14.1 L-13.4,-18.4Z" fill="url(#rgrad1)" filter="url(#blur1)" opacity="0.52"/>
      </g>
      </g>
      </g>
      </g>
      </g>
      </g>
      </g>
  </g>
  <g transform="translate(295.0, 641.3)">
      <g transform="translate(4.72,1.33) rotate(5.00) scale(1.000)">
        <g transform="translate(4.93,0.15) rotate(9.86) scale(0.980)">
        <g transform="translate(3.95,-1.03) rotate(13.98) scale(0.960)">
        <g transform="translate(1.99,-2.13) rotate(16.84) scale(0.940)">
        <g transform="translate(-0.45,-3.04) rotate(17.95) scale(0.920)">
        <g transform="translate(-2.78,-3.67) rotate(16.96) scale(0.900)">
        <g transform="translate(-4.43,-3.98) rotate(13.65) scale(0.880)">
        <rect x="-27.7" y="-27.7" width="55.4" height="55.4" rx="13.9" fill="url(#rgrad2)" filter="url(#shadow)" opacity="0.64"/>
        <circle cx="0" cy="0" r="18.5" fill="url(#rgrad3)" opacity="0.45"/>
      </g>
      </g>
      </g>
      </g>
      </g>
      </g>
      </g>
  </g>
  <g transform="translate(526.0, 635.0)">
      <g transform="translate(3.95,-2.46) rotate(5.00) scale(1.000)">
        <g transform="translate(1.99,-3.28) rotate(9.86) scale(0.980)">
        <g transform="translate(-0.45,-3.81) rotate(13.98) scale(0.960)">
        <g transform="translate(-2.78,-4.00) rotate(16.84) scale(0.940)" clip-path="url(#clipRect)">
        <g transform="translate(-4.43,-3.83) rotate(17.95) scale(0.920)">
        <g transform="translate(-5.00,-3.32) rotate(16.96) scale(0.900)">
        <g transform="translate(-4.34,-2.52) rotate(13.65) scale(0.880)">
        <path d="M36.1,20.9 L0.0,41.7 L-36.1,20.9 L-36.1,-20.9 L-0.0,-41.7 L36.1,-20.9Z" fill="url(#lgrad3)" filter="url(#blur3)" opacity="0.74"/>
        <ellipse cx="0" cy="0" rx="17.4" ry="11.6" fill="#FFFFFF" opacity="0.37"/>
      </g>
      </g>
      </g>
      </g>
      </g>
      </g>
      </g>
  </g>
  <g transform="translate(760.5, 640.5)">
      <g transform="translate(-0.45,-3.98) rotate(5.00) scale(1.000)">
        <g transform="translate(-2.78,-3.70) rotate(9.86) scale(0.980)">
        <g transform="translate(-4.43,-3.08) rotate(13.98) scale(0.960)">
        <g transform="translate(-5.00,-2.19) rotate(16.84) scale(0.940)">
        <g transform="translate(-4.34,-1.11) rotate(17.95) scale(0.920)">
        <g transform="translate(-2.62,0.08) rotate(16.96) scale(0.900)" mask="url(#maskDynamic)">
        <g transform="translate(-0.25,1.26) rotate(13.65) scale(0.880)">
        <circle cx="0" cy="0" r="37.4" fill="url(#rgrad4)" filter="url(#shadow)" opacity="0.83"/>
        <text x="0" y="5" text-anchor="middle" font-family="Arial, sans-serif" font-size="14" fill="#FFFFFF" opacity="0.83">491</text>
      </g>
      </g>
      </g>
      </g>
      </g>
      </g>
      </g>
  </g>
  <g transform="translate(994.8, 655.1)">
      <g transform="translate(-4.43,-1.85) rotate(5.00) scale(1.000)">
        <g transform="translate(-5.00,-0.72) rotate(9.86) scale(0.980)">
        <g transform="translate(-4.34,0.48) rotate(13.98) scale(0.960)">
        <g transform="translate(-2.62,1.63) rotate(16.84) scale(0.940)">
        <g transform="translate(-0.25,2.64) rotate(17.95) scale(0.920)">
        <g transform="translate(2.17,3.41) rotate(16.96) scale(0.900)">
        <g transform="translate(4.06,3.87) rotate(13.65) scale(0.880)">
        <path d="M0.0,-66.5 L19.6,-26.9 L63.3,-20.6 L31.6,10.3 L39.1,53.8 L0.0,33.3 L-39.1,53.8 L-31.6,10.3 L-63.3,-20.6 L-19.6,-26.9Z" fill="url(#rgrad0)" filter="url(#blur0)" opacity="0.88"/>
      </g>
      </g>
      </g>
      </g>
      </g>
      </g>
      </g>
  </g>
  <g transform="translate(1225.5, 672.1)">
      <g transform="translate(-4.34,1.99) rotate(5.00) scale(1.000)">
        <g transform="translate(-2.62,2.92) rotate(9.86) scale(0.980)">
        <g transform="translate(-0.25,3.60) rotate(13.98) scale(0.960)">
        <g transform="translate(2.17,3.95) rotate(16.84) scale(0.940)" clip-path="url(#clipStar)">
        <g transform="translate(4.06,3.96) rotate(17.95) scale(0.920)">
        <g transform="translate(4.96,3.60) rotate(16.96) scale(0.900)">
        <g transform="translate(4.65,2.93) rotate(13.65) scale(0.880)">
        <rect x="-26.1" y="-26.1" width="52.2" height="52.2" rx="13.0" fill="url(#lgrad1)" filter="url(#shadow)" opacity="0.90"/>
        <circle cx="0" cy="0" r="17.4" fill="url(#rgrad2)" opacity="0.63"/>
      </g>
      </g>
      </g>
      </g>
      </g>
      </g>
      </g>
  </g>
  <g transform="translate(1450.0, 683.3)">
      <g transform="translate(-0.25,3.99) rotate(5.00) scale(1.000)">
        <g transform="translate(2.17,3.88) rotate(9.86) scale(0.980)">
        <g transform="translate(4.06,3.41) rotate(13.98) scale(0.960)">
        <g transform="translate(4.96,2.64) rotate(16.84) scale(0.940)">
        <g transform="translate(4.65,1.64) rotate(17.95) scale(0.920)">
        <g transform="translate(3.19,0.49) rotate(16.96) scale(0.900)" mask="url(#maskStripes)">
        <g transform="translate(0.96,-0.71) rotate(13.65) scale(0.880)">
        <path d="M23.4,13.5 L0.0,27.0 L-23.4,13.5 L-23.4,-13.5 L-0.0,-27.0 L23.4,-13.5Z" fill="url(#rgrad2)" filter="url(#blur2)" opacity="0.88"/>
        <ellipse cx="0" cy="0" rx="11.3" ry="7.5" fill="#FFFFFF" opacity="0.44"/>
      </g>
      </g>
      </g>
      </g>
      </g>
      </g>
      </g>
  </g>
  <g transform="translate(1667.1, 683.6)">
      <g transform="translate(4.06,2.33) rotate(5.00) scale(1.000)">
        <g transform="translate(4.96,1.26) rotate(9.86) scale(0.980)">
        <g transform="translate(4.65,0.09) rotate(13.98) scale(0.960)">
        <g transform="translate(3.19,-1.10) rotate(16.84) scale(0.940)">
        <g transform="translate(0.96,-2.19) rotate(17.95) scale(0.920)">
        <g transform="translate(-1.51,-3.08) rotate(16.96) scale(0.900)">
        <g transform="translate(-3.61,-3.70) rotate(13.65) scale(0.880)">
        <circle cx="0" cy="0" r="25.8" fill="url(#rgrad3)" filter="url(#shadow)" opacity="0.83"/>
        <text x="0" y="5" text-anchor="middle" font-family="Arial, sans-serif" font-size="14" fill="#FFFFFF" opacity="0.83">491</text>
      </g>
      </g>
      </g>
      </g>
      </g>
      </g>
      </g>
  </g>
  <g transform="translate(117.6, 952.8)">
      <g transform="translate(4.65,-1.48) rotate(5.00) scale(1.000)">
        <g transform="translate(3.19,-2.51) rotate(9.86) scale(0.980)">
        <g transform="translate(0.96,-3.32) rotate(13.98) scale(0.960)">
        <g transform="translate(-1.51,-3.83) rotate(16.84) scale(0.940)" clip-path="url(#clipDynamic)">
        <g transform="translate(-3.61,-4.00) rotate(17.95) scale(0.920)">
        <g transform="translate(-4.83,-3.81) rotate(16.96) scale(0.900)">
        <g transform="translate(-4.86,-3.28) rotate(13.65) scale(0.880)">
        <path d="M0.0,-66.0 L19.4,-26.7 L62.7,-20.4 L31.4,10.2 L38.8,53.4 L0.0,33.0 L-38.8,53.4 L-31.4,10.2 L-62.7,-20.4 L-19.4,-26.7Z" fill="url(#lgrad4)" filter="url(#blur4)" opacity="0.75"/>
      </g>
      </g>
      </g>
      </g>
      </g>
      </g>
      </g>
  </g>
  <g transform="translate(306.0, 220.1)" mask="url(#maskGradient)">
    <ellipse cx="0" cy="0" rx="200" ry="150" fill="url(#rgrad0)" filter="url(#blur3)" opacity="0.3"/>
  </g>
  <g transform="translate(719.2, 235.8)" mask="url(#maskCircleFade)">
    <ellipse cx="0" cy="0" rx="200" ry="150" fill="url(#rgrad1)" filter="url(#blur3)" opacity="0.3"/>
  </g>
  <g transform="translate(1206.7, 281.7)" mask="url(#maskStripes)">
    <ellipse cx="0" cy="0" rx="200" ry="150" fill="url(#rgrad2)" filter="url(#blur3)" opacity="0.3"/>
  </g>
</svg>