<?xml version="1.0" encoding="UTF-8"?>
<svg xmlns="http://www.w3.org/2000/svg" viewBox="0 0 1920 1080" width="1920" height="1080">
  <defs>
    <filter id="blur0" x="-50%" y="-50%" width="200%" height="200%">
      <feGaussianBlur in="SourceGraphic" stdDeviation="1"/>
    </filter>
    <filter id="blur1" x="-50%" y="-50%" width="200%" height="200%">
      <feGaussianBlur in="SourceGraphic" stdDeviation="3"/>
    </filter>
    <filter id="blur2" x="-50%" y="-50%" width="200%" height="200%">
      <feGaussianBlur in="SourceGraphic" stdDeviation="5"/>
    </filter>
    <filter id="blur3" x="-50%" y="-50%" width="200%" height="200%">
      <feGaussianBlur in="SourceGraphic" stdDeviation="7"/>
    </filter>
    <filter id="blur4" x="-50%" y="-50%" width="200%" height="200%">
      <feGaussianBlur in="SourceGraphic" stdDeviation="9"/>
    </filter>
    <filter id="shadow" x="-50%" y="-50%" width="200%" height="200%">
      <feGaussianBlur in="SourceAlpha" stdDeviation="3" result="blur"/>
      <feOffset in="blur" dx="4" dy="4" result="offsetBlur"/>
      <feMerge>
        <feMergeNode in="offsetBlur"/>
        <feMergeNode in="SourceGraphic"/>
      </feMerge>
    </filter>
    <linearGradient id="lgrad0" x1="0%" y1="0%" x2="59.1%" y2="99.2%">
      <stop offset="0%" stop-color="#FF6B6B"/>
      <stop offset="33%" stop-color="#4ECDC4"/>
      <stop offset="66%" stop-color="#45B7D1"/>
      <stop offset="100%" stop-color="#96E6A1"/>
    </linearGradient>
    <linearGradient id="lgrad1" x1="0%" y1="0%" x2="33.3%" y2="97.1%">
      <stop offset="0%" stop-color="#FFE66D"/>
      <stop offset="33%" stop-color="#FF6B6B"/>
      <stop offset="66%" stop-color="#C44D58"/>
      <stop offset="100%" stop-color="#8B0000"/>
    </linearGradient>
    <linearGradient id="lgrad2" x1="0%" y1="0%" x2="12.0%" y2="82.5%">
      <stop offset="0%" stop-color="#4169E1"/>
      <stop offset="33%" stop-color="#7B68EE"/>
      <stop offset="66%" stop-color="#9370DB"/>
      <stop offset="100%" stop-color="#FFD700"/>
    </linearGradient>
    <linearGradient id="lgrad3" x1="0%" y1="0%" x2="0.8%" y2="59.1%">
      <stop offset="0%" stop-color="#32CD32"/>
      <stop offset="33%" stop-color="#228B22"/>
      <stop offset="66%" stop-color="#006400"/>
      <stop offset="100%" stop-color="#ADFF2F"/>
    </linearGradient>
    <linearGradient id="lgrad4" x1="0%" y1="0%" x2="2.9%" y2="33.3%">
      <stop offset="0%" stop-color="#FF1493"/>
      <stop offset="33%" stop-color="#FF69B4"/>
      <stop offset="66%" stop-color="#FFB6C1"/>
      <stop offset="100%" stop-color="#FFC0CB"/>
    </linearGradient>
    <radialGradient id="rgrad0" cx="66.7%" cy="67.8%" r="60%">
      <stop offset="0%" stop-color="#FF6B6B" stop-opacity="1"/>
      <stop offset="50%" stop-color="#4ECDC4" stop-opacity="0.8"/>
      <stop offset="100%" stop-color="#45B7D1" stop-opacity="0.6"/>
    </radialGradient>
    <radialGradient id="rgrad1" cx="36.7%" cy="35.8%" r="60%">
      <stop offset="0%" stop-color="#FFE66D" stop-opacity="1"/>
      <stop offset="50%" stop-color="#FF6B6B" stop-opacity="0.8"/>
      <stop offset="100%" stop-color="#C44D58" stop-opacity="0.6"/>
    </radialGradient>
    <radialGradient id="rgrad2" cx="46.7%" cy="43.8%" r="60%">
      <stop offset="0%" stop-color="#4169E1" stop-opacity="1"/>
      <stop offset="50%" stop-color="#7B68EE" stop-opacity="0.8"/>
      <stop offset="100%" stop-color="#9370DB" stop-opacity="0.6"/>
    </radialGradient>
    <radialGradient id="rgrad3" cx="56.7%" cy="51.8%" r="60%">
      <stop offset="0%" stop-color="#32CD32" stop-opacity="1"/>
      <stop offset="50%" stop-color="#228B22" stop-opacity="0.8"/>
      <stop offset="100%" stop-color="#006400" stop-opacity="0.6"/>
    </radialGradient>
    <radialGradient id="rgrad4" cx="66.7%" cy="59.8%" r="60%">
      <stop offset="0%" stop-color="#FF1493" stop-opacity="1"/>
      <stop offset="50%" stop-color="#FF69B4" stop-opacity="0.8"/>
      <stop offset="100%" stop-color="#FFB6C1" stop-opacity="0.6"/>
    </radialGradient>
    <clipPath id="clipCircle">
      <circle cx="0" cy="0" r="50"/>
    </clipPath>
    <clipPath id="clipStar">
      <path d="M0.0,-50.0 L14.7,-20.2 L47.6,-15.5 L23.8,7.7 L29.4,40.5 L0.0,25.0 L-29.4,40.5 L-23.8,7.7 L-47.6,-15.5 L-14.7,-20.2Z"/>
    </clipPath>
    <clipPath id="clipHex">
      <path d="M39.0,22.5 L0.0,45.0 L-39.0,22.5 L-39.0,-22.5 L-0.0,-45.0 L39.0,-22.5Z"/>
    </clipPath>
    <clipPath id="clipRect">
      <rect x="-40" y="-30" width="80" height="60" rx="10"/>
    </clipPath>
    <clipPath id="clipDynamic">
      <circle cx="0" cy="0" r="20.4"/>
    </clipPath>
    <mask id="maskGradient" maskContentUnits="objectBoundingBox">
      <rect x="0" y="0" width="1" height="1" fill="url(#maskGrad)"/>
    </mask>
    <linearGradient id="maskGrad" x1="0%" y1="0%" x2="100%" y2="100%">
      <stop offset="0%" stop-color="white"/>
      <stop offset="100%" stop-color="black"/>
    </linearGradient>
    <mask id="maskCircleFade">
      <circle cx="0" cy="0" r="60" fill="white"/>
      <circle cx="0" cy="0" r="30" fill="black"/>
    </mask>
    <mask id="maskStripes">
      <rect x="-50" y="-50" width="100" height="100" fill="white"/>
      <rect x="-50" y="-40" width="100" height="10" fill="black"/>
      <rect x="-50" y="-20" width="100" height="10" fill="black"/>
      <rect x="-50" y="0" width="100" height="10" fill="black"/>
      <rect x="-50" y="20" width="100" height="10" fill="black"/>
      <rect x="-50" y="40" width="100" height="10" fill="black"/>
    </mask>
    <mask id="maskDynamic">
      <rect x="-60" y="-60" width="120" height="120" fill="white" fill-opacity="0.73"/>
      <circle cx="0" cy="0" r="25" fill="white"/>
    </mask>
  </defs>
  <rect width="1920" height="1080" fill="url(#lgrad0)"/>
  <g transform="translate(70.9, 106.0)">
      <g transform="translate(-4.85,0.97) rotate(3.08) scale(1.000)">
        <g transform="translate(-3.68,2.07) rotate(4.47) scale(0.980)">
        <g transform="translate(-1.61,2.99) rotate(3.91) scale(0.960)">
        <g transform="translate(0.86,3.64) rotate(1.27) scale(0.940)" clip-path="url(#clipCircle)">
        <g transform="translate(3.12,3.97) rotate(-3.40) scale(0.920)">
        <g transform="translate(4.61,3.94) rotate(-9.90) scale(0.900)">
        <g transform="translate(4.97,3.56) rotate(-17.89) scale(0.880)">
        <path d="M0.0,-69.2 L20.3,-28.0 L65.8,-21.4 L32.9,10.7 L40.7,56.0 L0.0,34.6 L-40.7,56.0 L-32.9,10.7 L-65.8,-21.4 L-20.3,-28.0Z" fill="url(#lgrad0)" filter="url(#blur0)" opacity="0.75"/>
      </g>
      </g>
      </g>
      </g>
      </g>
      </g>
      </g>
  </g>
  <g transform="translate(297.9, 120.2)">
      <g transform="translate(-1.61,3.79) rotate(3.08) scale(1.000)">
        <g transform="translate(0.86,4.00) rotate(4.47) scale(0.980)">
        <g transform="translate(3.12,3.85) rotate(3.91) scale(0.960)">
        <g transform="translate(4.61,3.36) rotate(1.27) scale(0.940)">
        <g transform="translate(4.97,2.57) rotate(-3.40) scale(0.920)">
        <g transform="translate(4.12,1.55) rotate(-9.90) scale(0.900)" mask="url(#maskCircleFade)">
        <g transform="translate(2.26,0.39) rotate(-17.89) scale(0.880)">
        <rect x="-27.5" y="-27.5" width="55.0" height="55.0" rx="13.8" fill="url(#rgrad1)" filter="url(#shadow)" opacity="0.64"/>
        <circle cx="0" cy="0" r="18.3" fill="url(#rgrad2)" opacity="0.45"/>
      </g>
      </g>
      </g>
      </g>
      </g>
      </g>
      </g>
  </g>
  <g transform="translate(530.4, 124.9)">
      <g transform="translate(3.12,3.13) rotate(3.08) scale(1.000)">
        <g transform="translate(4.61,2.25) rotate(4.47) scale(0.980)">
        <g transform="translate(4.97,1.17) rotate(3.91) scale(0.960)">
        <g transform="translate(4.12,-0.01) rotate(1.27) scale(0.940)">
        <g transform="translate(2.26,-1.19) rotate(-3.40) scale(0.920)">
        <g transform="translate(-0.16,-2.27) rotate(-9.90) scale(0.900)">
        <g transform="translate(-2.53,-3.14) rotate(-17.89) scale(0.880)">
        <path d="M23.6,13.6 L0.0,27.2 L-23.6,13.6 L-23.6,-13.6 L-0.0,-27.2 L23.6,-13.6Z" fill="url(#rgrad2)" filter="url(#blur2)" opacity="0.53"/>
        <ellipse cx="0" cy="0" rx="11.4" ry="7.6" fill="#FFFFFF" opacity="0.26"/>
      </g>
      </g>
      </g>
      </g>
      </g>
      </g>
      </g>
  </g>
  <g transform="translate(765.2, 117.9)">
      <g transform="translate(4.97,-0.41) rotate(3.08) scale(1.000)">
        <g transform="translate(4.12,-1.57) rotate(4.47) scale(0.980)">
        <g transform="translate(2.26,-2.58) rotate(3.91) scale(0.960)">
        <g transform="translate(-0.16,-3.37) rotate(1.27) scale(0.940)" clip-path="url(#clipRect)">
        <g transform="translate(-2.53,-3.86) rotate(-3.40) scale(0.920)">
        <g transform="translate(-4.29,-4.00) rotate(-9.90) scale(0.900)">
        <g transform="translate(-5.00,-3.78) rotate(-17.89) scale(0.880)">
        <circle cx="0" cy="0" r="24.6" fill="url(#lgrad3)" filter="url(#shadow)" opacity="0.41"/>
        <text x="0" y="5" text-anchor="middle" font-family="Arial, sans-serif" font-size="14" fill="#FFFFFF" opacity="0.41">789</text>
      </g>
      </g>
      </g>
      </g>
      </g>
      </g>
      </g>
  </g>
  <g transform="translate(998.7, 102.4)">
      <g transform="translate(2.26,-3.57) rotate(3.08) scale(1.000)">
        <g transform="translate(-0.16,-3.94) rotate(4.47) scale(0.980)">
        <g transform="translate(-2.53,-3.97) rotate(3.91) scale(0.960)">
        <g transform="translate(-4.29,-3.63) rotate(1.27) scale(0.940)">
        <g transform="translate(-5.00,-2.98) rotate(-3.40) scale(0.920)">
        <g transform="translate(-4.48,-2.05) rotate(-9.90) scale(0.900)" mask="url(#maskGradient)">
        <g transform="translate(-2.87,-0.95) rotate(-17.89) scale(0.880)">
        <path d="M0.0,-62.9 L18.5,-25.4 L59.8,-19.4 L29.9,9.7 L37.0,50.9 L0.0,31.5 L-37.0,50.9 L-29.9,9.7 L-59.8,-19.4 L-18.5,-25.4Z" fill="url(#rgrad4)" filter="url(#blur4)" opacity="0.30"/>
      </g>
      </g>
      </g>
      </g>
      </g>
      </g>
      </g>
  </g>
  <g transform="translate(1227.7, 85.8)">
      <g transform="translate(-2.53,-3.45) rotate(3.08) scale(1.000)">
        <g transform="translate(-4.29,-2.70) rotate(4.47) scale(0.980)">
        <g transform="translate(-5.00,-1.70) rotate(3.91) scale(0.960)">
        <g transform="translate(-4.48,-0.56) rotate(1.27) scale(0.940)">
        <g transform="translate(-2.87,0.64) rotate(-3.40) scale(0.920)">
        <g transform="translate(-0.55,1.78) rotate(-9.90) scale(0.900)">
        <g transform="translate(1.90,2.76) rotate(-17.89) scale(0.880)">
        <rect x="-37.0" y="-37.0" width="74.0" height="74.0" rx="18.5" fill="url(#rgrad0)" filter="url(#shadow)" opacity="0.20"/>
        <circle cx="0" cy="0" r="24.7" fill="url(#rgrad1)" opacity="0.14"/>
      </g>
      </g>
      </g>
      </g>
      </g>
      </g>
      </g>
  </g>
  <g transform="translate(1449.8, 75.9)">
      <g transform="translate(-5.00,-0.16) rotate(3.08) scale(1.000)">
        <g transform="translate(-4.48,1.03) rotate(4.47) scale(0.980)">
        <g transform="translate(-2.87,2.13) rotate(3.91) scale(0.960)">
        <g transform="translate(-0.55,3.03) rotate(1.27) scale(0.940)" clip-path="url(#clipStar)">
        <g transform="translate(1.90,3.67) rotate(-3.40) scale(0.920)">
        <g transform="translate(3.88,3.98) rotate(-9.90) scale(0.900)">
        <g transform="translate(4.92,3.93) rotate(-17.89) scale(0.880)">
        <path d="M37.5,21.7 L0.0,43.3 L-37.5,21.7 L-37.5,-21.7 L-0.0,-43.3 L37.5,-21.7Z" fill="url(#lgrad1)" filter="url(#blur1)" opacity="0.14"/>
        <ellipse cx="0" cy="0" rx="18.0" ry="12.0" fill="#FFFFFF" opacity="0.07"/>
      </g>
      </g>
      </g>
      </g>
      </g>
      </g>
      </g>
  </g>
  <g transform="translate(1664.7, 77.3)">
      <g transform="translate(-2.87,3.28) rotate(3.08) scale(1.000)">
        <g transform="translate(-0.55,3.81) rotate(4.47) scale(0.980)">
        <g transform="translate(1.90,4.00) rotate(3.91) scale(0.960)">
        <g transform="translate(3.88,3.83) rotate(1.27) scale(0.940)">
        <g transform="translate(4.92,3.32) rotate(-3.40) scale(0.920)">
        <g transform="translate(4.75,2.52) rotate(-9.90) scale(0.900)" mask="url(#maskDynamic)">
        <g transform="translate(3.41,1.49) rotate(-17.89) scale(0.880)">
        <circle cx="0" cy="0" r="29.6" fill="url(#rgrad2)" filter="url(#shadow)" opacity="0.10"/>
        <text x="0" y="5" text-anchor="middle" font-family="Arial, sans-serif" font-size="14" fill="#FFFFFF" opacity="0.10">789</text>
      </g>
      </g>
      </g>
      </g>
      </g>
      </g>
      </g>
  </g>
  <g transform="translate(113.6, 369.4)">
      <g transform="translate(1.90,3.70) rotate(3.08) scale(1.000)">
        <g transform="translate(3.88,3.09) rotate(4.47) scale(0.980)">
        <g transform="translate(4.92,2.20) rotate(3.91) scale(0.960)">
        <g transform="translate(4.75,1.11) rotate(1.27) scale(0.940)">
        <g transform="translate(3.41,-0.08) rotate(-3.40) scale(0.920)">
        <g transform="translate(1.25,-1.25) rotate(-9.90) scale(0.900)">
        <g transform="translate(-1.23,-2.32) rotate(-17.89) scale(0.880)">
        <path d="M0.0,-47.0 L13.8,-19.0 L44.7,-14.5 L22.3,7.3 L27.6,38.0 L0.0,23.5 L-27.6,38.0 L-22.3,7.3 L-44.7,-14.5 L-13.8,-19.0Z" fill="url(#rgrad3)" filter="url(#blur3)" opacity="0.11"/>
      </g>
      </g>
      </g>
      </g>
      </g>
      </g>
      </g>
  </g>
  <g transform="translate(319.1, 386.4)">
      <g transform="translate(4.92,0.72) rotate(3.08) scale(1.000)">
        <g transform="translate(4.75,-0.47) rotate(4.47) scale(0.980)">
        <g transform="translate(3.41,-1.63) rotate(3.91) scale(0.960)">
        <g transform="translate(1.25,-2.63) rotate(1.27) scale(0.940)" clip-path="url(#clipDynamic)">
        <g transform="translate(-1.23,-3.41) rotate(-3.40) scale(0.920)">
        <g transform="translate(-3.40,-3.87) rotate(-9.90) scale(0.900)">
        <g transform="translate(-4.74,-4.00) rotate(-17.89) scale(0.880)">
        <rect x="-23.4" y="-23.4" width="46.7" height="46.7" rx="11.7" fill="url(#lgrad4)" filter="url(#shadow)" opacity="0.14"/>
        <circle cx="0" cy="0" r="15.6" fill="url(#rgrad0)" opacity="0.10"/>
      </g>
      </g>
      </g>
      </g>
      </g>
      </g>
      </g>
  </g>
  <g transform="translate(524.8, 400.5)">
      <g transform="translate(3.41,-2.92) rotate(3.08) scale(1.000)">
        <g transform="translate(1.25,-3.60) rotate(4.47) scale(0.980)">
        <g transform="translate(-1.23,-3.95) rotate(3.91) scale(0.960)">
        <g transform="translate(-3.40,-3.96) rotate(1.27) scale(0.940)">
        <g transform="translate(-4.74,-3.61) rotate(-3.40) scale(0.920)">
        <g transform="translate(-4.92,-2.93) rotate(-9.90) scale(0.900)" mask="url(#maskStripes)">
        <g transform="translate(-3.90,-2.00) rotate(-17.89) scale(0.880)">
        <path d="M30.5,17.6 L0.0,35.2 L-30.5,17.6 L-30.5,-17.6 L-0.0,-35.2 L30.5,-17.6Z" fill="url(#rgrad0)" filter="url(#blur0)" opacity="0.21"/>
        <ellipse cx="0" cy="0" rx="14.7" ry="9.8" fill="#FFFFFF" opacity="0.11"/>
      </g>
      </g>
      </g>
      </g>
      </g>
      </g>
      </g>
  </g>
  <g transform="translate(734.3, 404.9)">
      <g transform="translate(-1.23,-3.88) rotate(3.08) scale(1.000)">
        <g transform="translate(-3.40,-3.41) rotate(4.47) scale(0.980)">
        <g transform="translate(-4.74,-2.65) rotate(3.91) scale(0.960)">
        <g transform="translate(-4.92,-1.64) rotate(1.27) scale(0.940)">
        <g transform="translate(-3.90,-0.49) rotate(-3.40) scale(0.920)">
        <g transform="translate(-1.92,0.71) rotate(-9.90) scale(0.900)">
        <g transform="translate(0.53,1.84) rotate(-17.89) scale(0.880)">
        <circle cx="0" cy="0" r="35.9" fill="url(#rgrad1)" filter="url(#shadow)" opacity="0.31"/>
        <text x="0" y="5" text-anchor="middle" font-family="Arial, sans-serif" font-size="14" fill="#FFFFFF" opacity="0.31">789</text>
      </g>
      </g>
      </g>
      </g>
      </g>
      </g>
      </g>
  </g>
  <g transform="translate(950.0, 397.6)">
      <g transform="translate(-4.74,-1.27) rotate(3.08) scale(1.000)">
        <g transform="translate(-4.92,-0.09) rotate(4.47) scale(0.980)">
        <g transform="translate(-3.90,1.10) rotate(3.91) scale(0.960)">
        <g transform="translate(-1.92,2.18) rotate(1.27) scale(0.940)" clip-path="url(#clipHex)">
        <g transform="translate(0.53,3.08) rotate(-3.40) scale(0.920)">
        <g transform="translate(2.85,3.69) rotate(-9.90) scale(0.900)">
        <g transform="translate(4.47,3.98) rotate(-17.89) scale(0.880)">
        <path d="M0.0,-74.1 L21.8,-30.0 L70.5,-22.9 L35.3,11.5 L43.6,60.0 L0.0,37.1 L-43.6,60.0 L-35.3,11.5 L-70.5,-22.9 L-21.8,-30.0Z" fill="url(#lgrad2)" filter="url(#blur2)" opacity="0.42"/>
      </g>
      </g>
      </g>
      </g>
      </g>
      </g>
      </g>
  </g>
  <g transform="translate(1173.1, 382.0)">
      <g transform="translate(-3.90,2.51) rotate(3.08) scale(1.000)">
        <g transform="translate(-1.92,3.32) rotate(4.47) scale(0.980)">
        <g transform="translate(0.53,3.83) rotate(3.91) scale(0.960)">
        <g transform="translate(2.85,4.00) rotate(1.27) scale(0.940)">
        <g transform="translate(4.47,3.81) rotate(-3.40) scale(0.920)">
        <g transform="translate(5.00,3.29) rotate(-9.90) scale(0.900)" mask="url(#maskCircleFade)">
        <g transform="translate(4.30,2.47) rotate(-17.89) scale(0.880)">
        <rect x="-31.7" y="-31.7" width="63.4" height="63.4" rx="15.9" fill="url(#rgrad3)" filter="url(#shadow)" opacity="0.54"/>
        <circle cx="0" cy="0" r="21.1" fill="url(#rgrad4)" opacity="0.38"/>
      </g>
      </g>
      </g>
      </g>
      </g>
      </g>
      </g>
  </g>
  <g transform="translate(1402.8, 365.5)">
      <g transform="translate(0.53,3.98) rotate(3.08) scale(1.000)">
        <g transform="translate(2.85,3.67) rotate(4.47) scale(0.980)">
        <g transform="translate(4.47,3.04) rotate(3.91) scale(0.960)">
        <g transform="translate(5.00,2.14) rotate(1.27) scale(0.940)">
        <g transform="translate(4.30,1.04) rotate(-3.40) scale(0.920)">
        <g transform="translate(2.55,-0.14) rotate(-9.90) scale(0.900)">
        <g transform="translate(0.18,-1.32) rotate(-17.89) scale(0.880)">
        <path d="M25.8,14.9 L0.0,29.7 L-25.8,14.9 L-25.8,-14.9 L-0.0,-29.7 L25.8,-14.9Z" fill="url(#rgrad4)" filter="url(#blur4)" opacity="0.65"/>
        <ellipse cx="0" cy="0" rx="12.4" ry="8.3" fill="#FFFFFF" opacity="0.33"/>
      </g>
      </g>
      </g>
      </g>
      </g>
      </g>
      </g>
  </g>
  <g transform="translate(1636.7, 355.8)">
      <g transform="translate(4.47,1.79) rotate(3.08) scale(1.000)">
        <g transform="translate(5.00,0.65) rotate(4.47) scale(0.980)">
        <g transform="translate(4.30,-0.54) rotate(3.91) scale(0.960)">
        <g transform="translate(2.55,-1.69) rotate(1.27) scale(0.940)" clip-path="url(#clipCircle)">
        <g transform="translate(0.18,-2.68) rotate(-3.40) scale(0.920)">
        <g transform="translate(-2.24,-3.44) rotate(-9.90) scale(0.900)">
        <g transform="translate(-4.11,-3.89) rotate(-17.89) scale(0.880)">
        <circle cx="0" cy="0" r="22.6" fill="url(#lgrad0)" filter="url(#shadow)" opacity="0.76"/>
        <text x="0" y="5" text-anchor="middle" font-family="Arial, sans-serif" font-size="14" fill="#FFFFFF" opacity="0.76">789</text>
      </g>
      </g>
      </g>
      </g>
      </g>
      </g>
      </g>
  </g>
  <g transform="translate(111.4, 637.5)">
      <g transform="translate(4.30,-2.04) rotate(3.08) scale(1.000)">
        <g transform="translate(2.55,-2.97) rotate(4.47) scale(0.980)">
        <g transform="translate(0.18,-3.63) rotate(3.91) scale(0.960)">
        <g transform="translate(-2.24,-3.96) rotate(1.27) scale(0.940)">
        <g transform="translate(-4.11,-3.95) rotate(-3.40) scale(0.920)">
        <g transform="translate(-4.97,-3.58) rotate(-9.90) scale(0.900)" mask="url(#maskGradient)">
        <g transform="translate(-4.62,-2.89) rotate(-17.89) scale(0.880)">
        <path d="M0.0,-54.6 L16.0,-22.1 L51.9,-16.9 L25.9,8.4 L32.1,44.1 L0.0,27.3 L-32.1,44.1 L-25.9,8.4 L-51.9,-16.9 L-16.0,-22.1Z" fill="url(#rgrad1)" filter="url(#blur1)" opacity="0.84"/>
      </g>
      </g>
      </g>
      </g>
      </g>
      </g>
      </g>
  </g>
  <g transform="translate(343.3, 649.7)">
      <g transform="translate(0.18,-4.00) rotate(3.08) scale(1.000)">
        <g transform="translate(-2.24,-3.86) rotate(4.47) scale(0.980)">
        <g transform="translate(-4.11,-3.38) rotate(3.91) scale(0.960)">
        <g transform="translate(-4.97,-2.59) rotate(1.27) scale(0.940)">
        <g transform="translate(-4.62,-1.58) rotate(-3.40) scale(0.920)">
        <g transform="translate(-3.13,-0.42) rotate(-9.90) scale(0.900)">
        <g transform="translate(-0.88,0.77) rotate(-17.89) scale(0.880)">
        <rect x="-34.4" y="-34.4" width="68.8" height="68.8" rx="17.2" fill="url(#rgrad2)" filter="url(#shadow)" opacity="0.88"/>
        <circle cx="0" cy="0" r="22.9" fill="url(#rgrad3)" opacity="0.62"/>
      </g>
      </g>
      </g>
      </g>
      </g>
      </g>
      </g>
  </g>
  <g transform="translate(569.5, 666.8)">
      <g transform="translate(-4.11,-2.28) rotate(3.08) scale(1.000)">
        <g transform="translate(-4.97,-1.20) rotate(4.47) scale(0.980)">
        <g transform="translate(-4.62,-0.02) rotate(3.91) scale(0.960)">
        <g transform="translate(-3.13,1.16) rotate(1.27) scale(0.940)" clip-path="url(#clipRect)">
        <g transform="translate(-0.88,2.24) rotate(-3.40) scale(0.920)">
        <g transform="translate(1.59,3.12) rotate(-9.90) scale(0.900)">
        <g transform="translate(3.67,3.72) rotate(-17.89) scale(0.880)">
        <path d="M39.0,22.5 L0.0,45.0 L-39.0,22.5 L-39.0,-22.5 L-0.0,-45.0 L39.0,-22.5Z" fill="url(#lgrad3)" filter="url(#blur3)" opacity="0.90"/>
        <ellipse cx="0" cy="0" rx="18.7" ry="12.5" fill="#FFFFFF" opacity="0.45"/>
      </g>
      </g>
      </g>
      </g>
      </g>
      </g>
      </g>
  </g>
  <g transform="translate(788.5, 680.7)">
      <g transform="translate(-4.62,1.54) rotate(3.08) scale(1.000)">
        <g transform="translate(-3.13,2.56) rotate(4.47) scale(0.980)">
        <g transform="translate(-0.88,3.35) rotate(3.91) scale(0.960)">
        <g transform="translate(1.59,3.85) rotate(1.27) scale(0.940)">
        <g transform="translate(3.67,4.00) rotate(-3.40) scale(0.920)">
        <g transform="translate(4.85,3.79) rotate(-9.90) scale(0.900)" mask="url(#maskDynamic)">
        <g transform="translate(4.84,3.25) rotate(-17.89) scale(0.880)">
        <circle cx="0" cy="0" r="33.7" fill="url(#rgrad4)" filter="url(#shadow)" opacity="0.88"/>
        <text x="0" y="5" text-anchor="middle" font-family="Arial, sans-serif" font-size="14" fill="#FFFFFF" opacity="0.88">789</text>
      </g>
      </g>
      </g>
      </g>
      </g>
      </g>
      </g>
  </g>
  <g transform="translate(1000.5, 684.9)">
      <g transform="translate(-0.88,3.94) rotate(3.08) scale(1.000)">
        <g transform="translate(1.59,3.97) rotate(4.47) scale(0.980)">
        <g transform="translate(3.67,3.65) rotate(3.91) scale(0.960)">
        <g transform="translate(4.85,3.00) rotate(1.27) scale(0.940)">
        <g transform="translate(4.84,2.08) rotate(-3.40) scale(0.920)">
        <g transform="translate(3.65,0.98) rotate(-9.90) scale(0.900)">
        <g transform="translate(1.56,-0.21) rotate(-17.89) scale(0.880)">
        <path d="M0.0,-53.0 L15.6,-21.4 L50.4,-16.4 L25.2,8.2 L31.1,42.9 L0.0,26.5 L-31.1,42.9 L-25.2,8.2 L-50.4,-16.4 L-15.6,-21.4Z" fill="url(#rgrad0)" filter="url(#blur0)" opacity="0.82"/>
      </g>
      </g>
      </g>
      </g>
      </g>
      </g>
      </g>
  </g>
  <g transform="translate(1207.5, 677.3)">
      <g transform="translate(3.67,2.72) rotate(3.08) scale(1.000)">
        <g transform="translate(4.85,1.73) rotate(4.47) scale(0.980)">
        <g transform="translate(4.84,0.59) rotate(3.91) scale(0.960)">
        <g transform="translate(3.65,-0.61) rotate(1.27) scale(0.940)" clip-path="url(#clipStar)">
        <g transform="translate(1.56,-1.75) rotate(-3.40) scale(0.920)">
        <g transform="translate(-0.90,-2.73) rotate(-9.90) scale(0.900)">
        <g transform="translate(-3.15,-3.47) rotate(-17.89) scale(0.880)">
        <rect x="-22.5" y="-22.5" width="45.1" height="45.1" rx="11.3" fill="url(#lgrad1)" filter="url(#shadow)" opacity="0.74"/>
        <circle cx="0" cy="0" r="15.0" fill="url(#rgrad2)" opacity="0.52"/>
      </g>
      </g>
      </g>
      </g>
      </g>
      </g>
      </g>
  </g>
  <g transform="translate(1412.6, 661.6)">
      <g transform="translate(4.84,-1.00) rotate(3.08) scale(1.000)">
        <g transform="translate(3.65,-2.10) rotate(4.47) scale(0.980)">
        <g transform="translate(1.56,-3.01) rotate(3.91) scale(0.960)">
        <g transform="translate(-0.90,-3.66) rotate(1.27) scale(0.940)">
        <g transform="translate(-3.15,-3.97) rotate(-3.40) scale(0.920)">
        <g transform="translate(-4.63,-3.93) rotate(-9.90) scale(0.900)" mask="url(#maskStripes)">
        <g transform="translate(-4.97,-3.54) rotate(-17.89) scale(0.880)">
        <path d="M26.4,15.3 L0.0,30.5 L-26.4,15.3 L-26.4,-15.3 L-0.0,-30.5 L26.4,-15.3Z" fill="url(#rgrad2)" filter="url(#blur2)" opacity="0.64"/>
        <ellipse cx="0" cy="0" rx="12.7" ry="8.5" fill="#FFFFFF" opacity="0.32"/>
      </g>
      </g>
      </g>
      </g>
      </g>
      </g>
      </g>
  </g>
  <g transform="translate(1619.6, 645.2)">
      <g transform="translate(1.56,-3.80) rotate(3.08) scale(1.000)">
        <g transform="translate(-0.90,-4.00) rotate(4.47) scale(0.980)">
        <g transform="translate(-3.15,-3.84) rotate(3.91) scale(0.960)">
        <g transform="translate(-4.63,-3.34) rotate(1.27) scale(0.940)">
        <g transform="translate(-4.97,-2.54) rotate(-3.40) scale(0.920)">
        <g transform="translate(-4.10,-1.52) rotate(-9.90) scale(0.900)">
        <g transform="translate(-2.22,-0.36) rotate(-17.89) scale(0.880)">
        <circle cx="0" cy="0" r="32.5" fill="url(#rgrad3)" filter="url(#shadow)" opacity="0.52"/>
        <text x="0" y="5" text-anchor="middle" font-family="Arial, sans-serif" font-size="14" fill="#FFFFFF" opacity="0.52">789</text>
      </g>
      </g>
      </g>
      </g>
      </g>
      </g>
      </g>
  </g>
  <g transform="translate(71.5, 915.7)">
      <g transform="translate(-3.15,-3.11) rotate(3.08) scale(1.000)">
        <g transform="translate(-4.63,-2.22) rotate(4.47) scale(0.980)">
        <g transform="translate(-4.97,-1.14) rotate(3.91) scale(0.960)">
        <g transform="translate(-4.10,0.04) rotate(1.27) scale(0.940)" clip-path="url(#clipDynamic)">
        <g transform="translate(-2.22,1.22) rotate(-3.40) scale(0.920)">
        <g transform="translate(0.20,2.29) rotate(-9.90) scale(0.900)">
        <g transform="translate(2.57,3.16) rotate(-17.89) scale(0.880)">
        <path d="M0.0,-74.6 L21.9,-30.2 L71.0,-23.1 L35.5,11.5 L43.9,60.4 L0.0,37.3 L-43.9,60.4 L-35.5,11.5 L-71.0,-23.1 L-21.9,-30.2Z" fill="url(#lgrad4)" filter="url(#blur4)" opacity="0.40"/>
      </g>
      </g>
      </g>
      </g>
      </g>
      </g>
      </g>
  </g>
  <g transform="translate(203.0, 319.3)" mask="url(#maskGradient)">
    <ellipse cx="0" cy="0" rx="200" ry="150" fill="url(#rgrad0)" filter="url(#blur3)" opacity="0.3"/>
  </g>
  <g transform="translate(767.9, 364.8)" mask="url(#maskCircleFade)">
    <ellipse cx="0" cy="0" rx="200" ry="150" fill="url(#rgrad1)" filter="url(#blur3)" opacity="0.3"/>
  </g>
  <g transform="translate(1362.3, 379.8)" mask="url(#maskStripes)">
    <ellipse cx="0" cy="0" rx="200" ry="150" fill="url(#rgrad2)" filter="url(#blur3)" opacity="0.3"/>
  </g>
</svg>