<?xml version="1.0" encoding="UTF-8"?>
<svg xmlns="http://www.w3.org/2000/svg" viewBox="0 0 1920 1080" width="1920" height="1080">
  <defs>
    <filter id="blur0" x="-50%" y="-50%" width="200%" height="200%">
      <feGaussianBlur in="SourceGraphic" stdDeviation="1"/>
    </filter>
    <filter id="blur1" x="-50%" y="-50%" width="200%" height="200%">
      <feGaussianBlur in="SourceGraphic" stdDeviation="3"/>
    </filter>
    <filter id="blur2" x="-50%" y="-50%" width="200%" height="200%">
      <feGaussianBlur in="SourceGraphic" stdDeviation="5"/>
    </filter>
    <filter id="blur3" x="-50%" y="-50%" width="200%" height="200%">
      <feGaussianBlur in="SourceGraphic" stdDeviation="7"/>
    </filter>
    <filter id="blur4" x="-50%" y="-50%" width="200%" height="200%">
      <feGaussianBlur in="SourceGraphic" stdDeviation="9"/>
    </filter>
    <filter id="shadow" x="-50%" y="-50%" width="200%" height="200%">
      <feGaussianBlur in="SourceAlpha" stdDeviation="3" result="blur"/>
      <feOffset in="blur" dx="4" dy="4" result="offsetBlur"/>
      <feMerge>
        <feMergeNode in="offsetBlur"/>
        <feMergeNode in="SourceGraphic"/>
      </feMerge>
    </filter>
    <linearGradient id="lgrad0" x1="0%" y1="0%" x2="94.9%" y2="71.9%">
      <stop offset="0%" stop-color="#FF6B6B"/>
      <stop offset="33%" stop-color="#4ECDC4"/>
      <stop offset="66%" stop-color="#45B7D1"/>
      <stop offset="100%" stop-color="#96E6A1"/>
    </linearGradient>
    <linearGradient id="lgrad1" x1="0%" y1="0%" x2="78.0%" y2="91.5%">
      <stop offset="0%" stop-color="#FFE66D"/>
      <stop offset="33%" stop-color="#FF6B6B"/>
      <stop offset="66%" stop-color="#C44D58"/>
      <stop offset="100%" stop-color="#8B0000"/>
    </linearGradient>
    <linearGradient id="lgrad2" x1="0%" y1="0%" x2="53.5%" y2="99.9%">
      <stop offset="0%" stop-color="#4169E1"/>
      <stop offset="33%" stop-color="#7B68EE"/>
      <stop offset="66%" stop-color="#9370DB"/>
      <stop offset="100%" stop-color="#FFD700"/>
    </linearGradient>
    <linearGradient id="lgrad3" x1="0%" y1="0%" x2="28.1%" y2="94.9%">
      <stop offset="0%" stop-color="#32CD32"/>
      <stop offset="33%" stop-color="#228B22"/>
      <stop offset="66%" stop-color="#006400"/>
      <stop offset="100%" stop-color="#ADFF2F"/>
    </linearGradient>
    <linearGradient id="lgrad4" x1="0%" y1="0%" x2="8.5%" y2="78.0%">
      <stop offset="0%" stop-color="#FF1493"/>
      <stop offset="33%" stop-color="#FF69B4"/>
      <stop offset="66%" stop-color="#FFB6C1"/>
      <stop offset="100%" stop-color="#FFC0CB"/>
    </linearGradient>
    <radialGradient id="rgrad0" cx="34.6%" cy="46.4%" r="60%">
      <stop offset="0%" stop-color="#FF6B6B" stop-opacity="1"/>
      <stop offset="50%" stop-color="#4ECDC4" stop-opacity="0.8"/>
      <stop offset="100%" stop-color="#45B7D1" stop-opacity="0.6"/>
    </radialGradient>
    <radialGradient id="rgrad1" cx="44.6%" cy="54.4%" r="60%">
      <stop offset="0%" stop-color="#FFE66D" stop-opacity="1"/>
      <stop offset="50%" stop-color="#FF6B6B" stop-opacity="0.8"/>
      <stop offset="100%" stop-color="#C44D58" stop-opacity="0.6"/>
    </radialGradient>
    <radialGradient id="rgrad2" cx="54.6%" cy="62.4%" r="60%">
      <stop offset="0%" stop-color="#4169E1" stop-opacity="1"/>
      <stop offset="50%" stop-color="#7B68EE" stop-opacity="0.8"/>
      <stop offset="100%" stop-color="#9370DB" stop-opacity="0.6"/>
    </radialGradient>
    <radialGradient id="rgrad3" cx="64.6%" cy="30.4%" r="60%">
      <stop offset="0%" stop-color="#32CD32" stop-opacity="1"/>
      <stop offset="50%" stop-color="#228B22" stop-opacity="0.8"/>
      <stop offset="100%" stop-color="#006400" stop-opacity="0.6"/>
    </radialGradient>
    <radialGradient id="rgrad4" cx="34.6%" cy="38.4%" r="60%">
      <stop offset="0%" stop-color="#FF1493" stop-opacity="1"/>
      <stop offset="50%" stop-color="#FF69B4" stop-opacity="0.8"/>
      <stop offset="100%" stop-color="#FFB6C1" stop-opacity="0.6"/>
    </radialGradient>
    <clipPath id="clipCircle">
      <circle cx="0" cy="0" r="50"/>
    </clipPath>
    <clipPath id="clipStar">
      <path d="M0.0,-50.0 L14.7,-20.2 L47.6,-15.5 L23.8,7.7 L29.4,40.5 L0.0,25.0 L-29.4,40.5 L-23.8,7.7 L-47.6,-15.5 L-14.7,-20.2Z"/>
    </clipPath>
    <clipPath id="clipHex">
      <path d="M39.0,22.5 L0.0,45.0 L-39.0,22.5 L-39.0,-22.5 L-0.0,-45.0 L39.0,-22.5Z"/>
    </clipPath>
    <clipPath id="clipRect">
      <rect x="-40" y="-30" width="80" height="60" rx="10"/>
    </clipPath>
    <clipPath id="clipDynamic">
      <circle cx="0" cy="0" r="21.4"/>
    </clipPath>
    <mask id="maskGradient" maskContentUnits="objectBoundingBox">
      <rect x="0" y="0" width="1" height="1" fill="url(#maskGrad)"/>
    </mask>
    <linearGradient id="maskGrad" x1="0%" y1="0%" x2="100%" y2="100%">
      <stop offset="0%" stop-color="white"/>
      <stop offset="100%" stop-color="black"/>
    </linearGradient>
    <mask id="maskCircleFade">
      <circle cx="0" cy="0" r="60" fill="white"/>
      <circle cx="0" cy="0" r="30" fill="black"/>
    </mask>
    <mask id="maskStripes">
      <rect x="-50" y="-50" width="100" height="100" fill="white"/>
      <rect x="-50" y="-40" width="100" height="10" fill="black"/>
      <rect x="-50" y="-20" width="100" height="10" fill="black"/>
      <rect x="-50" y="0" width="100" height="10" fill="black"/>
      <rect x="-50" y="20" width="100" height="10" fill="black"/>
      <rect x="-50" y="40" width="100" height="10" fill="black"/>
    </mask>
    <mask id="maskDynamic">
      <rect x="-60" y="-60" width="120" height="120" fill="white" fill-opacity="0.89"/>
      <circle cx="0" cy="0" r="25" fill="white"/>
    </mask>
  </defs>
  <rect width="1920" height="1080" fill="url(#lgrad0)"/>
  <g transform="translate(72.7, 89.6)">
      <g transform="translate(-4.55,-1.66) rotate(4.21) scale(1.000)">
        <g transform="translate(-4.99,-0.52) rotate(7.17) scale(0.980)">
        <g transform="translate(-4.21,0.68) rotate(8.47) scale(0.960)">
        <g transform="translate(-2.40,1.81) rotate(7.79) scale(0.940)" clip-path="url(#clipCircle)">
        <g transform="translate(-0.00,2.79) rotate(4.97) scale(0.920)">
        <g transform="translate(2.40,3.51) rotate(0.00) scale(0.900)">
        <g transform="translate(4.21,3.92) rotate(-6.95) scale(0.880)">
        <path d="M0.0,-72.6 L21.3,-29.4 L69.1,-22.4 L34.5,11.2 L42.7,58.8 L0.0,36.3 L-42.7,58.8 L-34.5,11.2 L-69.1,-22.4 L-21.3,-29.4Z" fill="url(#lgrad0)" filter="url(#blur0)" opacity="0.84"/>
      </g>
      </g>
      </g>
      </g>
      </g>
      </g>
      </g>
  </g>
  <g transform="translate(290.1, 106.7)">
      <g transform="translate(-4.21,2.16) rotate(4.21) scale(1.000)">
        <g transform="translate(-2.40,3.06) rotate(7.17) scale(0.980)">
        <g transform="translate(-0.00,3.68) rotate(8.47) scale(0.960)">
        <g transform="translate(2.40,3.98) rotate(7.79) scale(0.940)">
        <g transform="translate(4.21,3.92) rotate(4.97) scale(0.920)">
        <g transform="translate(4.99,3.51) rotate(0.00) scale(0.900)" mask="url(#maskCircleFade)">
        <g transform="translate(4.55,2.79) rotate(-6.95) scale(0.880)">
        <rect x="-30.0" y="-30.0" width="60.0" height="60.0" rx="15.0" fill="url(#rgrad1)" filter="url(#shadow)" opacity="0.76"/>
        <circle cx="0" cy="0" r="20.0" fill="url(#rgrad2)" opacity="0.53"/>
      </g>
      </g>
      </g>
      </g>
      </g>
      </g>
      </g>
  </g>
  <g transform="translate(514.8, 120.6)">
      <g transform="translate(-0.00,4.00) rotate(4.21) scale(1.000)">
        <g transform="translate(2.40,3.82) rotate(7.17) scale(0.980)">
        <g transform="translate(4.21,3.30) rotate(8.47) scale(0.960)">
        <g transform="translate(4.99,2.49) rotate(7.79) scale(0.940)">
        <g transform="translate(4.55,1.45) rotate(4.97) scale(0.920)">
        <g transform="translate(2.99,0.28) rotate(0.00) scale(0.900)">
        <g transform="translate(0.71,-0.91) rotate(-6.95) scale(0.880)">
        <path d="M24.6,14.2 L0.0,28.4 L-24.6,14.2 L-24.6,-14.2 L-0.0,-28.4 L24.6,-14.2Z" fill="url(#rgrad2)" filter="url(#blur2)" opacity="0.66"/>
        <ellipse cx="0" cy="0" rx="11.8" ry="7.9" fill="#FFFFFF" opacity="0.33"/>
      </g>
      </g>
      </g>
      </g>
      </g>
      </g>
      </g>
  </g>
  <g transform="translate(745.6, 124.9)">
      <g transform="translate(4.21,2.16) rotate(4.21) scale(1.000)">
        <g transform="translate(4.99,1.07) rotate(7.17) scale(0.980)">
        <g transform="translate(4.55,-0.12) rotate(8.47) scale(0.960)">
        <g transform="translate(2.99,-1.29) rotate(7.79) scale(0.940)" clip-path="url(#clipRect)">
        <g transform="translate(0.71,-2.35) rotate(4.97) scale(0.920)">
        <g transform="translate(-1.75,-3.20) rotate(0.00) scale(0.900)">
        <g transform="translate(-3.78,-3.77) rotate(-6.95) scale(0.880)">
        <circle cx="0" cy="0" r="23.2" fill="url(#lgrad3)" filter="url(#shadow)" opacity="0.54"/>
        <text x="0" y="5" text-anchor="middle" font-family="Arial, sans-serif" font-size="14" fill="#FFFFFF" opacity="0.54">682</text>
      </g>
      </g>
      </g>
      </g>
      </g>
      </g>
      </g>
  </g>
  <g transform="translate(980.0, 117.4)">
      <g transform="translate(4.55,-1.66) rotate(4.21) scale(1.000)">
        <g transform="translate(2.99,-2.66) rotate(7.17) scale(0.980)">
        <g transform="translate(0.71,-3.43) rotate(8.47) scale(0.960)">
        <g transform="translate(-1.75,-3.88) rotate(7.79) scale(0.940)">
        <g transform="translate(-3.78,-3.99) rotate(4.97) scale(0.920)">
        <g transform="translate(-4.89,-3.75) rotate(0.00) scale(0.900)" mask="url(#maskGradient)">
        <g transform="translate(-4.79,-3.16) rotate(-6.95) scale(0.880)">
        <path d="M0.0,-57.9 L17.0,-23.4 L55.0,-17.9 L27.5,8.9 L34.0,46.8 L0.0,28.9 L-34.0,46.8 L-27.5,8.9 L-55.0,-17.9 L-17.0,-23.4Z" fill="url(#rgrad4)" filter="url(#blur4)" opacity="0.42"/>
      </g>
      </g>
      </g>
      </g>
      </g>
      </g>
      </g>
  </g>
  <g transform="translate(1214.4, 101.8)">
      <g transform="translate(0.71,-3.96) rotate(4.21) scale(1.000)">
        <g transform="translate(-1.75,-3.95) rotate(7.17) scale(0.980)">
        <g transform="translate(-3.78,-3.59) rotate(8.47) scale(0.960)">
        <g transform="translate(-4.89,-2.90) rotate(7.79) scale(0.940)">
        <g transform="translate(-4.79,-1.96) rotate(4.97) scale(0.920)">
        <g transform="translate(-3.53,-0.84) rotate(0.00) scale(0.900)">
        <g transform="translate(-1.40,0.35) rotate(-6.95) scale(0.880)">
        <rect x="-35.7" y="-35.7" width="71.4" height="71.4" rx="17.8" fill="url(#rgrad0)" filter="url(#shadow)" opacity="0.31"/>
        <circle cx="0" cy="0" r="23.8" fill="url(#rgrad1)" opacity="0.22"/>
      </g>
      </g>
      </g>
      </g>
      </g>
      </g>
      </g>
  </g>
  <g transform="translate(1445.2, 85.3)">
      <g transform="translate(-3.78,-2.61) rotate(4.21) scale(1.000)">
        <g transform="translate(-4.89,-1.60) rotate(7.17) scale(0.980)">
        <g transform="translate(-4.79,-0.45) rotate(8.47) scale(0.960)">
        <g transform="translate(-3.53,0.75) rotate(7.79) scale(0.940)" clip-path="url(#clipStar)">
        <g transform="translate(-1.40,1.87) rotate(4.97) scale(0.920)">
        <g transform="translate(1.08,2.83) rotate(0.00) scale(0.900)">
        <g transform="translate(3.28,3.54) rotate(-6.95) scale(0.880)">
        <path d="M38.7,22.3 L0.0,44.6 L-38.7,22.3 L-38.7,-22.3 L-0.0,-44.6 L38.7,-22.3Z" fill="url(#lgrad1)" filter="url(#blur1)" opacity="0.21"/>
        <ellipse cx="0" cy="0" rx="18.6" ry="12.4" fill="#FFFFFF" opacity="0.11"/>
      </g>
      </g>
      </g>
      </g>
      </g>
      </g>
      </g>
  </g>
  <g transform="translate(1669.9, 75.7)">
      <g transform="translate(-4.79,1.13) rotate(4.21) scale(1.000)">
        <g transform="translate(-3.53,2.22) rotate(7.17) scale(0.980)">
        <g transform="translate(-1.40,3.10) rotate(8.47) scale(0.960)">
        <g transform="translate(1.08,3.71) rotate(7.79) scale(0.940)">
        <g transform="translate(3.28,3.99) rotate(4.97) scale(0.920)">
        <g transform="translate(4.69,3.91) rotate(0.00) scale(0.900)" mask="url(#maskDynamic)">
        <g transform="translate(4.95,3.48) rotate(-6.95) scale(0.880)">
        <circle cx="0" cy="0" r="32.1" fill="url(#rgrad2)" filter="url(#shadow)" opacity="0.14"/>
        <text x="0" y="5" text-anchor="middle" font-family="Arial, sans-serif" font-size="14" fill="#FFFFFF" opacity="0.14">682</text>
      </g>
      </g>
      </g>
      </g>
      </g>
      </g>
      </g>
  </g>
  <g transform="translate(127.3, 357.6)">
      <g transform="translate(-1.40,3.84) rotate(4.21) scale(1.000)">
        <g transform="translate(1.08,4.00) rotate(7.17) scale(0.980)">
        <g transform="translate(3.28,3.80) rotate(8.47) scale(0.960)">
        <g transform="translate(4.69,3.26) rotate(7.79) scale(0.940)">
        <g transform="translate(4.95,2.43) rotate(4.97) scale(0.920)">
        <g transform="translate(3.99,1.39) rotate(0.00) scale(0.900)">
        <g transform="translate(2.06,0.22) rotate(-6.95) scale(0.880)">
        <path d="M0.0,-50.1 L14.7,-20.3 L47.7,-15.5 L23.8,7.7 L29.5,40.6 L0.0,25.1 L-29.5,40.6 L-23.8,7.7 L-47.7,-15.5 L-14.7,-20.3Z" fill="url(#rgrad3)" filter="url(#blur3)" opacity="0.11"/>
      </g>
      </g>
      </g>
      </g>
      </g>
      </g>
      </g>
  </g>
  <g transform="translate(338.0, 370.0)">
      <g transform="translate(3.28,3.02) rotate(4.21) scale(1.000)">
        <g transform="translate(4.69,2.10) rotate(7.17) scale(0.980)">
        <g transform="translate(4.95,1.01) rotate(8.47) scale(0.960)">
        <g transform="translate(3.99,-0.18) rotate(7.79) scale(0.940)" clip-path="url(#clipDynamic)">
        <g transform="translate(2.06,-1.36) rotate(4.97) scale(0.920)">
        <g transform="translate(-0.38,-2.41) rotate(0.00) scale(0.900)">
        <g transform="translate(-2.72,-3.24) rotate(-6.95) scale(0.880)">
        <rect x="-22.6" y="-22.6" width="45.2" height="45.2" rx="11.3" fill="url(#lgrad4)" filter="url(#shadow)" opacity="0.10"/>
        <circle cx="0" cy="0" r="15.1" fill="url(#rgrad0)" opacity="0.07"/>
      </g>
      </g>
      </g>
      </g>
      </g>
      </g>
      </g>
  </g>
  <g transform="translate(544.2, 387.1)">
      <g transform="translate(4.95,-0.58) rotate(4.21) scale(1.000)">
        <g transform="translate(3.99,-1.73) rotate(7.17) scale(0.980)">
        <g transform="translate(2.06,-2.71) rotate(8.47) scale(0.960)">
        <g transform="translate(-0.38,-3.46) rotate(7.79) scale(0.940)">
        <g transform="translate(-2.72,-3.90) rotate(4.97) scale(0.920)">
        <g transform="translate(-4.40,-3.99) rotate(0.00) scale(0.900)" mask="url(#maskStripes)">
        <g transform="translate(-5.00,-3.72) rotate(-6.95) scale(0.880)">
        <path d="M28.0,16.1 L0.0,32.3 L-28.0,16.1 L-28.0,-16.1 L-0.0,-32.3 L28.0,-16.1Z" fill="url(#rgrad0)" filter="url(#blur0)" opacity="0.14"/>
        <ellipse cx="0" cy="0" rx="13.5" ry="9.0" fill="#FFFFFF" opacity="0.07"/>
      </g>
      </g>
      </g>
      </g>
      </g>
      </g>
      </g>
  </g>
  <g transform="translate(749.5, 400.9)">
      <g transform="translate(2.06,-3.64) rotate(4.21) scale(1.000)">
        <g transform="translate(-0.38,-3.97) rotate(7.17) scale(0.980)">
        <g transform="translate(-2.72,-3.94) rotate(8.47) scale(0.960)">
        <g transform="translate(-4.40,-3.56) rotate(7.79) scale(0.940)">
        <g transform="translate(-5.00,-2.86) rotate(4.97) scale(0.920)">
        <g transform="translate(-4.38,-1.90) rotate(0.00) scale(0.900)">
        <g transform="translate(-2.68,-0.78) rotate(-6.95) scale(0.880)">
        <circle cx="0" cy="0" r="34.1" fill="url(#rgrad1)" filter="url(#shadow)" opacity="0.20"/>
        <text x="0" y="5" text-anchor="middle" font-family="Arial, sans-serif" font-size="14" fill="#FFFFFF" opacity="0.20">682</text>
      </g>
      </g>
      </g>
      </g>
      </g>
      </g>
      </g>
  </g>
  <g transform="translate(957.3, 404.8)">
      <g transform="translate(-2.72,-3.36) rotate(4.21) scale(1.000)">
        <g transform="translate(-4.40,-2.56) rotate(7.17) scale(0.980)">
        <g transform="translate(-5.00,-1.54) rotate(8.47) scale(0.960)">
        <g transform="translate(-4.38,-0.38) rotate(7.79) scale(0.940)" clip-path="url(#clipHex)">
        <g transform="translate(-2.68,0.81) rotate(4.97) scale(0.920)">
        <g transform="translate(-0.33,1.93) rotate(0.00) scale(0.900)">
        <g transform="translate(2.10,2.88) rotate(-6.95) scale(0.880)">
        <path d="M0.0,-75.0 L22.0,-30.3 L71.3,-23.2 L35.7,11.6 L44.1,60.7 L0.0,37.5 L-44.1,60.7 L-35.7,11.6 L-71.3,-23.2 L-22.0,-30.3Z" fill="url(#lgrad2)" filter="url(#blur2)" opacity="0.29"/>
      </g>
      </g>
      </g>
      </g>
      </g>
      </g>
      </g>
  </g>
  <g transform="translate(1170.7, 397.1)">
      <g transform="translate(-5.00,0.02) rotate(4.21) scale(1.000)">
        <g transform="translate(-4.38,1.20) rotate(7.17) scale(0.980)">
        <g transform="translate(-2.68,2.27) rotate(8.47) scale(0.960)">
        <g transform="translate(-0.33,3.14) rotate(7.79) scale(0.940)">
        <g transform="translate(2.10,3.73) rotate(4.97) scale(0.920)">
        <g transform="translate(4.02,3.99) rotate(0.00) scale(0.900)" mask="url(#maskCircleFade)">
        <g transform="translate(4.95,3.89) rotate(-6.95) scale(0.880)">
        <rect x="-34.0" y="-34.0" width="68.0" height="68.0" rx="17.0" fill="url(#rgrad3)" filter="url(#shadow)" opacity="0.40"/>
        <circle cx="0" cy="0" r="22.7" fill="url(#rgrad4)" opacity="0.28"/>
      </g>
      </g>
      </g>
      </g>
      </g>
      </g>
      </g>
  </g>
  <g transform="translate(1391.2, 381.4)">
      <g transform="translate(-2.68,3.38) rotate(4.21) scale(1.000)">
        <g transform="translate(-0.33,3.86) rotate(7.17) scale(0.980)">
        <g transform="translate(2.10,4.00) rotate(8.47) scale(0.960)">
        <g transform="translate(4.02,3.78) rotate(7.79) scale(0.940)">
        <g transform="translate(4.95,3.22) rotate(4.97) scale(0.920)">
        <g transform="translate(4.67,2.38) rotate(0.00) scale(0.900)">
        <g transform="translate(3.25,1.32) rotate(-6.95) scale(0.880)">
        <path d="M27.9,16.1 L0.0,32.2 L-27.9,16.1 L-27.9,-16.1 L-0.0,-32.2 L27.9,-16.1Z" fill="url(#rgrad4)" filter="url(#blur4)" opacity="0.52"/>
        <ellipse cx="0" cy="0" rx="13.4" ry="8.9" fill="#FFFFFF" opacity="0.26"/>
      </g>
      </g>
      </g>
      </g>
      </g>
      </g>
      </g>
  </g>
  <g transform="translate(1618.8, 365.0)">
      <g transform="translate(2.10,3.63) rotate(4.21) scale(1.000)">
        <g transform="translate(4.02,2.97) rotate(7.17) scale(0.980)">
        <g transform="translate(4.95,2.05) rotate(8.47) scale(0.960)">
        <g transform="translate(4.67,0.94) rotate(7.79) scale(0.940)" clip-path="url(#clipCircle)">
        <g transform="translate(3.25,-0.25) rotate(4.97) scale(0.920)">
        <g transform="translate(1.03,-1.42) rotate(0.00) scale(0.900)">
        <g transform="translate(-1.44,-2.46) rotate(-6.95) scale(0.880)">
        <circle cx="0" cy="0" r="22.6" fill="url(#lgrad0)" filter="url(#shadow)" opacity="0.64"/>
        <text x="0" y="5" text-anchor="middle" font-family="Arial, sans-serif" font-size="14" fill="#FFFFFF" opacity="0.64">682</text>
      </g>
      </g>
      </g>
      </g>
      </g>
      </g>
      </g>
  </g>
  <g transform="translate(91.6, 635.6)">
      <g transform="translate(4.95,0.55) rotate(4.21) scale(1.000)">
        <g transform="translate(4.67,-0.65) rotate(7.17) scale(0.980)">
        <g transform="translate(3.25,-1.79) rotate(8.47) scale(0.960)">
        <g transform="translate(1.03,-2.76) rotate(7.79) scale(0.940)">
        <g transform="translate(-1.44,-3.49) rotate(4.97) scale(0.920)">
        <g transform="translate(-3.56,-3.91) rotate(0.00) scale(0.900)" mask="url(#maskGradient)">
        <g transform="translate(-4.81,-3.98) rotate(-6.95) scale(0.880)">
        <path d="M0.0,-50.2 L14.8,-20.3 L47.8,-15.5 L23.9,7.8 L29.5,40.6 L0.0,25.1 L-29.5,40.6 L-23.9,7.8 L-47.8,-15.5 L-14.8,-20.3Z" fill="url(#rgrad1)" filter="url(#blur1)" opacity="0.74"/>
      </g>
      </g>
      </g>
      </g>
      </g>
      </g>
      </g>
  </g>
  <g transform="translate(326.5, 637.8)">
      <g transform="translate(3.25,-3.04) rotate(4.21) scale(1.000)">
        <g transform="translate(1.03,-3.67) rotate(7.17) scale(0.980)">
        <g transform="translate(-1.44,-3.98) rotate(8.47) scale(0.960)">
        <g transform="translate(-3.56,-3.93) rotate(7.79) scale(0.940)">
        <g transform="translate(-4.81,-3.53) rotate(4.97) scale(0.920)">
        <g transform="translate(-4.88,-2.81) rotate(0.00) scale(0.900)">
        <g transform="translate(-3.76,-1.84) rotate(-6.95) scale(0.880)">
        <rect x="-32.2" y="-32.2" width="64.3" height="64.3" rx="16.1" fill="url(#rgrad2)" filter="url(#shadow)" opacity="0.83"/>
        <circle cx="0" cy="0" r="21.4" fill="url(#rgrad3)" opacity="0.58"/>
      </g>
      </g>
      </g>
      </g>
      </g>
      </g>
      </g>
  </g>
  <g transform="translate(559.7, 650.4)">
      <g transform="translate(-1.44,-3.83) rotate(4.21) scale(1.000)">
        <g transform="translate(-3.56,-3.32) rotate(7.17) scale(0.980)">
        <g transform="translate(-4.81,-2.51) rotate(8.47) scale(0.960)">
        <g transform="translate(-4.88,-1.48) rotate(7.79) scale(0.940)" clip-path="url(#clipRect)">
        <g transform="translate(-3.76,-0.31) rotate(4.97) scale(0.920)">
        <g transform="translate(-1.71,0.88) rotate(0.00) scale(0.900)">
        <g transform="translate(0.75,1.99) rotate(-6.95) scale(0.880)">
        <path d="M38.7,22.3 L0.0,44.7 L-38.7,22.3 L-38.7,-22.3 L-0.0,-44.7 L38.7,-22.3Z" fill="url(#lgrad3)" filter="url(#blur3)" opacity="0.88"/>
        <ellipse cx="0" cy="0" rx="18.6" ry="12.4" fill="#FFFFFF" opacity="0.44"/>
      </g>
      </g>
      </g>
      </g>
      </g>
      </g>
      </g>
  </g>
  <g transform="translate(788.1, 667.5)">
      <g transform="translate(-4.81,-1.10) rotate(4.21) scale(1.000)">
        <g transform="translate(-4.88,0.08) rotate(7.17) scale(0.980)">
        <g transform="translate(-3.76,1.26) rotate(8.47) scale(0.960)">
        <g transform="translate(-1.71,2.33) rotate(7.79) scale(0.940)">
        <g transform="translate(0.75,3.19) rotate(4.97) scale(0.920)">
        <g transform="translate(3.03,3.76) rotate(0.00) scale(0.900)" mask="url(#maskDynamic)">
        <g transform="translate(4.56,4.00) rotate(-6.95) scale(0.880)">
        <circle cx="0" cy="0" r="35.6" fill="url(#rgrad4)" filter="url(#shadow)" opacity="0.90"/>
        <text x="0" y="5" text-anchor="middle" font-family="Arial, sans-serif" font-size="14" fill="#FFFFFF" opacity="0.90">682</text>
      </g>
      </g>
      </g>
      </g>
      </g>
      </g>
      </g>
  </g>
  <g transform="translate(1009.7, 681.1)">
      <g transform="translate(-3.76,2.64) rotate(4.21) scale(1.000)">
        <g transform="translate(-1.71,3.41) rotate(7.17) scale(0.980)">
        <g transform="translate(0.75,3.88) rotate(8.47) scale(0.960)">
        <g transform="translate(3.03,3.99) rotate(7.79) scale(0.940)">
        <g transform="translate(4.56,3.76) rotate(4.97) scale(0.920)">
        <g transform="translate(4.98,3.18) rotate(0.00) scale(0.900)">
        <g transform="translate(4.18,2.33) rotate(-6.95) scale(0.880)">
        <path d="M0.0,-57.8 L17.0,-23.4 L54.9,-17.8 L27.5,8.9 L33.9,46.7 L0.0,28.9 L-33.9,46.7 L-27.5,8.9 L-54.9,-17.8 L-17.0,-23.4Z" fill="url(#rgrad0)" filter="url(#blur0)" opacity="0.88"/>
      </g>
      </g>
      </g>
      </g>
      </g>
      </g>
      </g>
  </g>
  <g transform="translate(1224.0, 684.8)">
      <g transform="translate(0.75,3.95) rotate(4.21) scale(1.000)">
        <g transform="translate(3.03,3.60) rotate(7.17) scale(0.980)">
        <g transform="translate(4.56,2.93) rotate(8.47) scale(0.960)">
        <g transform="translate(4.98,1.99) rotate(7.79) scale(0.940)" clip-path="url(#clipStar)">
        <g transform="translate(4.18,0.87) rotate(4.97) scale(0.920)">
        <g transform="translate(2.36,-0.32) rotate(0.00) scale(0.900)">
        <g transform="translate(-0.04,-1.48) rotate(-6.95) scale(0.880)">
        <rect x="-23.2" y="-23.2" width="46.3" height="46.3" rx="11.6" fill="url(#lgrad1)" filter="url(#shadow)" opacity="0.83"/>
        <circle cx="0" cy="0" r="15.4" fill="url(#rgrad2)" opacity="0.58"/>
      </g>
      </g>
      </g>
      </g>
      </g>
      </g>
      </g>
  </g>
  <g transform="translate(1432.4, 676.8)">
      <g transform="translate(4.56,1.63) rotate(4.21) scale(1.000)">
        <g transform="translate(4.98,0.48) rotate(7.17) scale(0.980)">
        <g transform="translate(4.18,-0.71) rotate(8.47) scale(0.960)">
        <g transform="translate(2.36,-1.85) rotate(7.79) scale(0.940)">
        <g transform="translate(-0.04,-2.81) rotate(4.97) scale(0.920)">
        <g transform="translate(-2.44,-3.53) rotate(0.00) scale(0.900)" mask="url(#maskStripes)">
        <g transform="translate(-4.23,-3.93) rotate(-6.95) scale(0.880)">
        <path d="M24.7,14.2 L0.0,28.5 L-24.7,14.2 L-24.7,-14.2 L-0.0,-28.5 L24.7,-14.2Z" fill="url(#rgrad2)" filter="url(#blur2)" opacity="0.75"/>
        <ellipse cx="0" cy="0" rx="11.9" ry="7.9" fill="#FFFFFF" opacity="0.38"/>
      </g>
      </g>
      </g>
      </g>
      </g>
      </g>
      </g>
  </g>
  <g transform="translate(1637.7, 660.9)">
      <g transform="translate(4.18,-2.19) rotate(4.21) scale(1.000)">
        <g transform="translate(2.36,-3.08) rotate(7.17) scale(0.980)">
        <g transform="translate(-0.04,-3.70) rotate(8.47) scale(0.960)">
        <g transform="translate(-2.44,-3.98) rotate(7.79) scale(0.940)">
        <g transform="translate(-4.23,-3.91) rotate(4.97) scale(0.920)">
        <g transform="translate(-4.99,-3.49) rotate(0.00) scale(0.900)">
        <g transform="translate(-4.53,-2.76) rotate(-6.95) scale(0.880)">
        <circle cx="0" cy="0" r="30.1" fill="url(#rgrad3)" filter="url(#shadow)" opacity="0.65"/>
        <text x="0" y="5" text-anchor="middle" font-family="Arial, sans-serif" font-size="14" fill="#FFFFFF" opacity="0.65">682</text>
      </g>
      </g>
      </g>
      </g>
      </g>
      </g>
      </g>
  </g>
  <g transform="translate(83.7, 924.6)">
      <g transform="translate(-0.04,-4.00) rotate(4.21) scale(1.000)">
        <g transform="translate(-2.44,-3.81) rotate(7.17) scale(0.980)">
        <g transform="translate(-4.23,-3.28) rotate(8.47) scale(0.960)">
        <g transform="translate(-4.99,-2.46) rotate(7.79) scale(0.940)" clip-path="url(#clipDynamic)">
        <g transform="translate(-4.53,-1.42) rotate(4.97) scale(0.920)">
        <g transform="translate(-2.96,-0.25) rotate(0.00) scale(0.900)">
        <g transform="translate(-0.66,0.94) rotate(-6.95) scale(0.880)">
        <path d="M0.0,-72.7 L21.4,-29.4 L69.1,-22.5 L34.6,11.2 L42.7,58.8 L0.0,36.3 L-42.7,58.8 L-34.6,11.2 L-69.1,-22.5 L-21.4,-29.4Z" fill="url(#lgrad4)" filter="url(#blur4)" opacity="0.53"/>
      </g>
      </g>
      </g>
      </g>
      </g>
      </g>
      </g>
  </g>
  <g transform="translate(209.1, 266.7)" mask="url(#maskGradient)">
    <ellipse cx="0" cy="0" rx="200" ry="150" fill="url(#rgrad0)" filter="url(#blur3)" opacity="0.3"/>
  </g>
  <g transform="translate(715.9, 321.4)" mask="url(#maskCircleFade)">
    <ellipse cx="0" cy="0" rx="200" ry="150" fill="url(#rgrad1)" filter="url(#blur3)" opacity="0.3"/>
  </g>
  <g transform="translate(1300.0, 366.0)" mask="url(#maskStripes)">
    <ellipse cx="0" cy="0" rx="200" ry="150" fill="url(#rgrad2)" filter="url(#blur3)" opacity="0.3"/>
  </g>
</svg>