<?xml version="1.0" encoding="UTF-8"?>
<svg xmlns="http://www.w3.org/2000/svg" viewBox="0 0 1920 1080" width="1920" height="1080">
  <defs>
    <filter id="blur0" x="-50%" y="-50%" width="200%" height="200%">
      <feGaussianBlur in="SourceGraphic" stdDeviation="1"/>
    </filter>
    <filter id="blur1" x="-50%" y="-50%" width="200%" height="200%">
      <feGaussianBlur in="SourceGraphic" stdDeviation="3"/>
    </filter>
    <filter id="blur2" x="-50%" y="-50%" width="200%" height="200%">
      <feGaussianBlur in="SourceGraphic" stdDeviation="5"/>
    </filter>
    <filter id="blur3" x="-50%" y="-50%" width="200%" height="200%">
      <feGaussianBlur in="SourceGraphic" stdDeviation="7"/>
    </filter>
    <filter id="blur4" x="-50%" y="-50%" width="200%" height="200%">
      <feGaussianBlur in="SourceGraphic" stdDeviation="9"/>
    </filter>
    <filter id="shadow" x="-50%" y="-50%" width="200%" height="200%">
      <feGaussianBlur in="SourceAlpha" stdDeviation="3" result="blur"/>
      <feOffset in="blur" dx="4" dy="4" result="offsetBlur"/>
      <feMerge>
        <feMergeNode in="offsetBlur"/>
        <feMergeNode in="SourceGraphic"/>
      </feMerge>
    </filter>
    <linearGradient id="lgrad0" x1="0%" y1="0%" x2="62.9%" y2="98.3%">
      <stop offset="0%" stop-color="#FF6B6B"/>
      <stop offset="33%" stop-color="#4ECDC4"/>
      <stop offset="66%" stop-color="#45B7D1"/>
      <stop offset="100%" stop-color="#96E6A1"/>
    </linearGradient>
    <linearGradient id="lgrad1" x1="0%" y1="0%" x2="37.1%" y2="98.3%">
      <stop offset="0%" stop-color="#FFE66D"/>
      <stop offset="33%" stop-color="#FF6B6B"/>
      <stop offset="66%" stop-color="#C44D58"/>
      <stop offset="100%" stop-color="#8B0000"/>
    </linearGradient>
    <linearGradient id="lgrad2" x1="0%" y1="0%" x2="14.6%" y2="85.4%">
      <stop offset="0%" stop-color="#4169E1"/>
      <stop offset="33%" stop-color="#7B68EE"/>
      <stop offset="66%" stop-color="#9370DB"/>
      <stop offset="100%" stop-color="#FFD700"/>
    </linearGradient>
    <linearGradient id="lgrad3" x1="0%" y1="0%" x2="1.7%" y2="62.9%">
      <stop offset="0%" stop-color="#32CD32"/>
      <stop offset="33%" stop-color="#228B22"/>
      <stop offset="66%" stop-color="#006400"/>
      <stop offset="100%" stop-color="#ADFF2F"/>
    </linearGradient>
    <linearGradient id="lgrad4" x1="0%" y1="0%" x2="1.7%" y2="37.1%">
      <stop offset="0%" stop-color="#FF1493"/>
      <stop offset="33%" stop-color="#FF69B4"/>
      <stop offset="66%" stop-color="#FFB6C1"/>
      <stop offset="100%" stop-color="#FFC0CB"/>
    </linearGradient>
    <radialGradient id="rgrad0" cx="48.0%" cy="42.0%" r="60%">
      <stop offset="0%" stop-color="#FF6B6B" stop-opacity="1"/>
      <stop offset="50%" stop-color="#4ECDC4" stop-opacity="0.8"/>
      <stop offset="100%" stop-color="#45B7D1" stop-opacity="0.6"/>
    </radialGradient>
    <radialGradient id="rgrad1" cx="58.0%" cy="50.0%" r="60%">
      <stop offset="0%" stop-color="#FFE66D" stop-opacity="1"/>
      <stop offset="50%" stop-color="#FF6B6B" stop-opacity="0.8"/>
      <stop offset="100%" stop-color="#C44D58" stop-opacity="0.6"/>
    </radialGradient>
    <radialGradient id="rgrad2" cx="68.0%" cy="58.0%" r="60%">
      <stop offset="0%" stop-color="#4169E1" stop-opacity="1"/>
      <stop offset="50%" stop-color="#7B68EE" stop-opacity="0.8"/>
      <stop offset="100%" stop-color="#9370DB" stop-opacity="0.6"/>
    </radialGradient>
    <radialGradient id="rgrad3" cx="38.0%" cy="66.0%" r="60%">
      <stop offset="0%" stop-color="#32CD32" stop-opacity="1"/>
      <stop offset="50%" stop-color="#228B22" stop-opacity="0.8"/>
      <stop offset="100%" stop-color="#006400" stop-opacity="0.6"/>
    </radialGradient>
    <radialGradient id="rgrad4" cx="48.0%" cy="34.0%" r="60%">
      <stop offset="0%" stop-color="#FF1493" stop-opacity="1"/>
      <stop offset="50%" stop-color="#FF69B4" stop-opacity="0.8"/>
      <stop offset="100%" stop-color="#FFB6C1" stop-opacity="0.6"/>
    </radialGradient>
    <clipPath id="clipCircle">
      <circle cx="0" cy="0" r="50"/>
    </clipPath>
    <clipPath id="clipStar">
      <path d="M0.0,-50.0 L14.7,-20.2 L47.6,-15.5 L23.8,7.7 L29.4,40.5 L0.0,25.0 L-29.4,40.5 L-23.8,7.7 L-47.6,-15.5 L-14.7,-20.2Z"/>
    </clipPath>
    <clipPath id="clipHex">
      <path d="M39.0,22.5 L0.0,45.0 L-39.0,22.5 L-39.0,-22.5 L-0.0,-45.0 L39.0,-22.5Z"/>
    </clipPath>
    <clipPath id="clipRect">
      <rect x="-40" y="-30" width="80" height="60" rx="10"/>
    </clipPath>
    <clipPath id="clipDynamic">
      <circle cx="0" cy="0" r="40.4"/>
    </clipPath>
    <mask id="maskGradient" maskContentUnits="objectBoundingBox">
      <rect x="0" y="0" width="1" height="1" fill="url(#maskGrad)"/>
    </mask>
    <linearGradient id="maskGrad" x1="0%" y1="0%" x2="100%" y2="100%">
      <stop offset="0%" stop-color="white"/>
      <stop offset="100%" stop-color="black"/>
    </linearGradient>
    <mask id="maskCircleFade">
      <circle cx="0" cy="0" r="60" fill="white"/>
      <circle cx="0" cy="0" r="30" fill="black"/>
    </mask>
    <mask id="maskStripes">
      <rect x="-50" y="-50" width="100" height="100" fill="white"/>
      <rect x="-50" y="-40" width="100" height="10" fill="black"/>
      <rect x="-50" y="-20" width="100" height="10" fill="black"/>
      <rect x="-50" y="0" width="100" height="10" fill="black"/>
      <rect x="-50" y="20" width="100" height="10" fill="black"/>
      <rect x="-50" y="40" width="100" height="10" fill="black"/>
    </mask>
    <mask id="maskDynamic">
      <rect x="-60" y="-60" width="120" height="120" fill="white" fill-opacity="0.43"/>
      <circle cx="0" cy="0" r="25" fill="white"/>
    </mask>
  </defs>
  <rect width="1920" height="1080" fill="url(#lgrad0)"/>
  <g transform="translate(110.9, 123.3)">
      <g transform="translate(1.81,3.73) rotate(0.92) scale(1.000)">
        <g transform="translate(3.83,3.13) rotate(3.76) scale(0.980)">
        <g transform="translate(4.90,2.26) rotate(8.29) scale(0.960)">
        <g transform="translate(4.78,1.18) rotate(14.14) scale(0.940)" clip-path="url(#clipCircle)">
        <g transform="translate(3.48,-0.00) rotate(20.84) scale(0.920)">
        <g transform="translate(1.34,-1.18) rotate(27.80) scale(0.900)">
        <g transform="translate(-1.14,-2.26) rotate(34.40) scale(0.880)">
        <path d="M0.0,-62.8 L18.4,-25.4 L59.7,-19.4 L29.8,9.7 L36.9,50.8 L0.0,31.4 L-36.9,50.8 L-29.8,9.7 L-59.7,-19.4 L-18.4,-25.4Z" fill="url(#lgrad0)" filter="url(#blur0)" opacity="0.57"/>
      </g>
      </g>
      </g>
      </g>
      </g>
      </g>
      </g>
  </g>
  <g transform="translate(343.0, 112.0)">
      <g transform="translate(4.90,0.79) rotate(0.92) scale(1.000)">
        <g transform="translate(4.78,-0.40) rotate(3.76) scale(0.980)">
        <g transform="translate(3.48,-1.56) rotate(8.29) scale(0.960)">
        <g transform="translate(1.34,-2.58) rotate(14.14) scale(0.940)">
        <g transform="translate(-1.14,-3.37) rotate(20.84) scale(0.920)">
        <g transform="translate(-3.33,-3.85) rotate(27.80) scale(0.900)" mask="url(#maskCircleFade)">
        <g transform="translate(-4.71,-4.00) rotate(34.40) scale(0.880)">
        <rect x="-37.0" y="-37.0" width="73.9" height="73.9" rx="18.5" fill="url(#rgrad1)" filter="url(#shadow)" opacity="0.69"/>
        <circle cx="0" cy="0" r="24.6" fill="url(#rgrad2)" opacity="0.48"/>
      </g>
      </g>
      </g>
      </g>
      </g>
      </g>
      </g>
  </g>
  <g transform="translate(569.4, 95.0)">
      <g transform="translate(3.48,-2.87) rotate(0.92) scale(1.000)">
        <g transform="translate(1.34,-3.57) rotate(3.76) scale(0.980)">
        <g transform="translate(-1.14,-3.94) rotate(8.29) scale(0.960)">
        <g transform="translate(-3.33,-3.97) rotate(14.14) scale(0.940)">
        <g transform="translate(-4.71,-3.64) rotate(20.84) scale(0.920)">
        <g transform="translate(-4.94,-2.98) rotate(27.80) scale(0.900)">
        <g transform="translate(-3.95,-2.06) rotate(34.40) scale(0.880)">
        <path d="M37.5,21.7 L0.0,43.4 L-37.5,21.7 L-37.5,-21.7 L-0.0,-43.4 L37.5,-21.7Z" fill="url(#rgrad2)" filter="url(#blur2)" opacity="0.78"/>
        <ellipse cx="0" cy="0" rx="18.1" ry="12.0" fill="#FFFFFF" opacity="0.39"/>
      </g>
      </g>
      </g>
      </g>
      </g>
      </g>
      </g>
  </g>
  <g transform="translate(788.7, 80.4)">
      <g transform="translate(-1.14,-3.90) rotate(0.92) scale(1.000)">
        <g transform="translate(-3.33,-3.45) rotate(3.76) scale(0.980)">
        <g transform="translate(-4.71,-2.70) rotate(8.29) scale(0.960)">
        <g transform="translate(-4.94,-1.71) rotate(14.14) scale(0.940)" clip-path="url(#clipRect)">
        <g transform="translate(-3.95,-0.56) rotate(20.84) scale(0.920)">
        <g transform="translate(-2.00,0.63) rotate(27.80) scale(0.900)">
        <g transform="translate(0.44,1.77) rotate(34.40) scale(0.880)">
        <circle cx="0" cy="0" r="29.7" fill="url(#lgrad3)" filter="url(#shadow)" opacity="0.85"/>
        <text x="0" y="5" text-anchor="middle" font-family="Arial, sans-serif" font-size="14" fill="#FFFFFF" opacity="0.85">60</text>
      </g>
      </g>
      </g>
      </g>
      </g>
      </g>
      </g>
  </g>
  <g transform="translate(1000.9, 75.0)">
      <g transform="translate(-4.71,-1.34) rotate(0.92) scale(1.000)">
        <g transform="translate(-4.94,-0.17) rotate(3.76) scale(0.980)">
        <g transform="translate(-3.95,1.02) rotate(8.29) scale(0.960)">
        <g transform="translate(-2.00,2.12) rotate(14.14) scale(0.940)">
        <g transform="translate(0.44,3.03) rotate(20.84) scale(0.920)">
        <g transform="translate(2.77,3.67) rotate(27.80) scale(0.900)" mask="url(#maskGradient)">
        <g transform="translate(4.43,3.97) rotate(34.40) scale(0.880)">
        <path d="M0.0,-47.0 L13.8,-19.0 L44.7,-14.5 L22.4,7.3 L27.6,38.1 L0.0,23.5 L-27.6,38.1 L-22.4,7.3 L-44.7,-14.5 L-13.8,-19.0Z" fill="url(#rgrad4)" filter="url(#blur4)" opacity="0.89"/>
      </g>
      </g>
      </g>
      </g>
      </g>
      </g>
      </g>
  </g>
  <g transform="translate(1208.0, 81.4)">
      <g transform="translate(-3.95,2.45) rotate(0.92) scale(1.000)">
        <g transform="translate(-2.00,3.27) rotate(3.76) scale(0.980)">
        <g transform="translate(0.44,3.81) rotate(8.29) scale(0.960)">
        <g transform="translate(2.77,4.00) rotate(14.14) scale(0.940)">
        <g transform="translate(4.43,3.84) rotate(20.84) scale(0.920)">
        <g transform="translate(5.00,3.33) rotate(27.80) scale(0.900)">
        <g transform="translate(4.35,2.52) rotate(34.40) scale(0.880)">
        <rect x="-23.3" y="-23.3" width="46.6" height="46.6" rx="11.7" fill="url(#rgrad0)" filter="url(#shadow)" opacity="0.90"/>
        <circle cx="0" cy="0" r="15.5" fill="url(#rgrad1)" opacity="0.63"/>
      </g>
      </g>
      </g>
      </g>
      </g>
      </g>
      </g>
  </g>
  <g transform="translate(1413.2, 96.5)">
      <g transform="translate(0.44,3.98) rotate(0.92) scale(1.000)">
        <g transform="translate(2.77,3.70) rotate(3.76) scale(0.980)">
        <g transform="translate(4.43,3.09) rotate(8.29) scale(0.960)">
        <g transform="translate(5.00,2.20) rotate(14.14) scale(0.940)" clip-path="url(#clipStar)">
        <g transform="translate(4.35,1.12) rotate(20.84) scale(0.920)">
        <g transform="translate(2.63,-0.07) rotate(27.80) scale(0.900)">
        <g transform="translate(0.27,-1.25) rotate(34.40) scale(0.880)">
        <path d="M30.4,17.6 L0.0,35.1 L-30.4,17.6 L-30.4,-17.6 L-0.0,-35.1 L30.4,-17.6Z" fill="url(#lgrad1)" filter="url(#blur1)" opacity="0.87"/>
        <ellipse cx="0" cy="0" rx="14.6" ry="9.8" fill="#FFFFFF" opacity="0.43"/>
      </g>
      </g>
      </g>
      </g>
      </g>
      </g>
      </g>
  </g>
  <g transform="translate(1620.0, 113.3)">
      <g transform="translate(4.43,1.86) rotate(0.92) scale(1.000)">
        <g transform="translate(5.00,0.73) rotate(3.76) scale(0.980)">
        <g transform="translate(4.35,-0.47) rotate(8.29) scale(0.960)">
        <g transform="translate(2.63,-1.62) rotate(14.14) scale(0.940)">
        <g transform="translate(0.27,-2.63) rotate(20.84) scale(0.920)">
        <g transform="translate(-2.16,-3.40) rotate(27.80) scale(0.900)" mask="url(#maskDynamic)">
        <g transform="translate(-4.06,-3.87) rotate(34.40) scale(0.880)">
        <circle cx="0" cy="0" r="35.9" fill="url(#rgrad2)" filter="url(#shadow)" opacity="0.80"/>
        <text x="0" y="5" text-anchor="middle" font-family="Arial, sans-serif" font-size="14" fill="#FFFFFF" opacity="0.80">60</text>
      </g>
      </g>
      </g>
      </g>
      </g>
      </g>
      </g>
  </g>
  <g transform="translate(71.7, 403.8)">
      <g transform="translate(4.35,-1.98) rotate(0.92) scale(1.000)">
        <g transform="translate(2.63,-2.92) rotate(3.76) scale(0.980)">
        <g transform="translate(0.27,-3.60) rotate(8.29) scale(0.960)">
        <g transform="translate(-2.16,-3.95) rotate(14.14) scale(0.940)">
        <g transform="translate(-4.06,-3.96) rotate(20.84) scale(0.920)">
        <g transform="translate(-4.96,-3.61) rotate(27.80) scale(0.900)">
        <g transform="translate(-4.65,-2.94) rotate(34.40) scale(0.880)">
        <path d="M0.0,-74.2 L21.8,-30.0 L70.6,-22.9 L35.3,11.5 L43.6,60.0 L0.0,37.1 L-43.6,60.0 L-35.3,11.5 L-70.6,-22.9 L-21.8,-30.0Z" fill="url(#rgrad3)" filter="url(#blur3)" opacity="0.71"/>
      </g>
      </g>
      </g>
      </g>
      </g>
      </g>
      </g>
  </g>
  <g transform="translate(290.4, 403.1)">
      <g transform="translate(0.27,-3.99) rotate(0.92) scale(1.000)">
        <g transform="translate(-2.16,-3.88) rotate(3.76) scale(0.980)">
        <g transform="translate(-4.06,-3.42) rotate(8.29) scale(0.960)">
        <g transform="translate(-4.96,-2.65) rotate(14.14) scale(0.940)" clip-path="url(#clipDynamic)">
        <g transform="translate(-4.65,-1.65) rotate(20.84) scale(0.920)">
        <g transform="translate(-3.20,-0.50) rotate(27.80) scale(0.900)">
        <g transform="translate(-0.97,0.70) rotate(34.40) scale(0.880)">
        <rect x="-31.8" y="-31.8" width="63.6" height="63.6" rx="15.9" fill="url(#lgrad4)" filter="url(#shadow)" opacity="0.60"/>
        <circle cx="0" cy="0" r="21.2" fill="url(#rgrad0)" opacity="0.42"/>
      </g>
      </g>
      </g>
      </g>
      </g>
      </g>
      </g>
  </g>
  <g transform="translate(516.3, 391.6)">
      <g transform="translate(-4.06,-2.34) rotate(0.92) scale(1.000)">
        <g transform="translate(-4.96,-1.28) rotate(3.76) scale(0.980)">
        <g transform="translate(-4.65,-0.10) rotate(8.29) scale(0.960)">
        <g transform="translate(-3.20,1.09) rotate(14.14) scale(0.940)">
        <g transform="translate(-0.97,2.18) rotate(20.84) scale(0.920)">
        <g transform="translate(1.50,3.07) rotate(27.80) scale(0.900)" mask="url(#maskStripes)">
        <g transform="translate(3.60,3.69) rotate(34.40) scale(0.880)">
        <path d="M25.8,14.9 L0.0,29.8 L-25.8,14.9 L-25.8,-14.9 L-0.0,-29.8 L25.8,-14.9Z" fill="url(#rgrad0)" filter="url(#blur0)" opacity="0.48"/>
        <ellipse cx="0" cy="0" rx="12.4" ry="8.3" fill="#FFFFFF" opacity="0.24"/>
      </g>
      </g>
      </g>
      </g>
      </g>
      </g>
      </g>
  </g>
  <g transform="translate(748.0, 374.6)">
      <g transform="translate(-4.65,1.47) rotate(0.92) scale(1.000)">
        <g transform="translate(-3.20,2.50) rotate(3.76) scale(0.980)">
        <g transform="translate(-0.97,3.31) rotate(8.29) scale(0.960)">
        <g transform="translate(1.50,3.83) rotate(14.14) scale(0.940)">
        <g transform="translate(3.60,4.00) rotate(20.84) scale(0.920)">
        <g transform="translate(4.82,3.82) rotate(27.80) scale(0.900)">
        <g transform="translate(4.86,3.29) rotate(34.40) scale(0.880)">
        <circle cx="0" cy="0" r="22.6" fill="url(#rgrad1)" filter="url(#shadow)" opacity="0.37"/>
        <text x="0" y="5" text-anchor="middle" font-family="Arial, sans-serif" font-size="14" fill="#FFFFFF" opacity="0.37">60</text>
      </g>
      </g>
      </g>
      </g>
      </g>
      </g>
      </g>
  </g>
  <g transform="translate(982.6, 360.2)">
      <g transform="translate(-0.97,3.92) rotate(0.92) scale(1.000)">
        <g transform="translate(1.50,3.98) rotate(3.76) scale(0.980)">
        <g transform="translate(3.60,3.68) rotate(8.29) scale(0.960)">
        <g transform="translate(4.82,3.05) rotate(14.14) scale(0.940)" clip-path="url(#clipHex)">
        <g transform="translate(4.86,2.15) rotate(20.84) scale(0.920)">
        <g transform="translate(3.71,1.05) rotate(27.80) scale(0.900)">
        <g transform="translate(1.65,-0.14) rotate(34.40) scale(0.880)">
        <path d="M0.0,-54.4 L16.0,-22.0 L51.8,-16.8 L25.9,8.4 L32.0,44.0 L0.0,27.2 L-32.0,44.0 L-25.9,8.4 L-51.8,-16.8 L-16.0,-22.0Z" fill="url(#lgrad2)" filter="url(#blur2)" opacity="0.26"/>
      </g>
      </g>
      </g>
      </g>
      </g>
      </g>
      </g>
  </g>
  <g transform="translate(1216.6, 355.0)">
      <g transform="translate(3.60,2.77) rotate(0.92) scale(1.000)">
        <g transform="translate(4.82,1.80) rotate(3.76) scale(0.980)">
        <g transform="translate(4.86,0.66) rotate(8.29) scale(0.960)">
        <g transform="translate(3.71,-0.53) rotate(14.14) scale(0.940)">
        <g transform="translate(1.65,-1.68) rotate(20.84) scale(0.920)">
        <g transform="translate(-0.81,-2.68) rotate(27.80) scale(0.900)" mask="url(#maskCircleFade)">
        <g transform="translate(-3.08,-3.44) rotate(34.40) scale(0.880)">
        <rect x="-34.4" y="-34.4" width="68.7" height="68.7" rx="17.2" fill="url(#rgrad3)" filter="url(#shadow)" opacity="0.18"/>
        <circle cx="0" cy="0" r="22.9" fill="url(#rgrad4)" opacity="0.12"/>
      </g>
      </g>
      </g>
      </g>
      </g>
      </g>
      </g>
  </g>
  <g transform="translate(1446.6, 361.6)">
      <g transform="translate(4.86,-0.93) rotate(0.92) scale(1.000)">
        <g transform="translate(3.71,-2.04) rotate(3.76) scale(0.980)">
        <g transform="translate(1.65,-2.96) rotate(8.29) scale(0.960)">
        <g transform="translate(-0.81,-3.62) rotate(14.14) scale(0.940)">
        <g transform="translate(-3.08,-3.96) rotate(20.84) scale(0.920)">
        <g transform="translate(-4.59,-3.95) rotate(27.80) scale(0.900)">
        <g transform="translate(-4.98,-3.58) rotate(34.40) scale(0.880)">
        <path d="M39.0,22.5 L0.0,45.0 L-39.0,22.5 L-39.0,-22.5 L-0.0,-45.0 L39.0,-22.5Z" fill="url(#rgrad4)" filter="url(#blur4)" opacity="0.12"/>
        <ellipse cx="0" cy="0" rx="18.7" ry="12.5" fill="#FFFFFF" opacity="0.06"/>
      </g>
      </g>
      </g>
      </g>
      </g>
      </g>
      </g>
  </g>
  <g transform="translate(1670.0, 376.9)">
      <g transform="translate(1.65,-3.78) rotate(0.92) scale(1.000)">
        <g transform="translate(-0.81,-4.00) rotate(3.76) scale(0.980)">
        <g transform="translate(-3.08,-3.86) rotate(8.29) scale(0.960)">
        <g transform="translate(-4.59,-3.38) rotate(14.14) scale(0.940)" clip-path="url(#clipCircle)">
        <g transform="translate(-4.98,-2.60) rotate(20.84) scale(0.920)">
        <g transform="translate(-4.15,-1.59) rotate(27.80) scale(0.900)">
        <g transform="translate(-2.30,-0.43) rotate(34.40) scale(0.880)">
        <circle cx="0" cy="0" r="33.7" fill="url(#lgrad0)" filter="url(#shadow)" opacity="0.10"/>
        <text x="0" y="5" text-anchor="middle" font-family="Arial, sans-serif" font-size="14" fill="#FFFFFF" opacity="0.10">60</text>
      </g>
      </g>
      </g>
      </g>
      </g>
      </g>
      </g>
  </g>
  <g transform="translate(126.1, 673.6)">
      <g transform="translate(-3.08,-3.15) rotate(0.92) scale(1.000)">
        <g transform="translate(-4.59,-2.28) rotate(3.76) scale(0.980)">
        <g transform="translate(-4.98,-1.21) rotate(8.29) scale(0.960)">
        <g transform="translate(-4.15,-0.03) rotate(14.14) scale(0.940)">
        <g transform="translate(-2.30,1.15) rotate(20.84) scale(0.920)">
        <g transform="translate(0.11,2.23) rotate(27.80) scale(0.900)" mask="url(#maskGradient)">
        <g transform="translate(2.49,3.11) rotate(34.40) scale(0.880)">
        <path d="M0.0,-53.1 L15.6,-21.5 L50.5,-16.4 L25.3,8.2 L31.2,43.0 L0.0,26.6 L-31.2,43.0 L-25.3,8.2 L-50.5,-16.4 L-15.6,-21.5Z" fill="url(#rgrad1)" filter="url(#blur1)" opacity="0.11"/>
      </g>
      </g>
      </g>
      </g>
      </g>
      </g>
      </g>
  </g>
  <g transform="translate(335.8, 683.9)">
      <g transform="translate(-4.98,0.37) rotate(0.92) scale(1.000)">
        <g transform="translate(-4.15,1.53) rotate(3.76) scale(0.980)">
        <g transform="translate(-2.30,2.55) rotate(8.29) scale(0.960)">
        <g transform="translate(0.11,3.35) rotate(14.14) scale(0.940)">
        <g transform="translate(2.49,3.85) rotate(20.84) scale(0.920)">
        <g transform="translate(4.26,4.00) rotate(27.80) scale(0.900)">
        <g transform="translate(4.99,3.80) rotate(34.40) scale(0.880)">
        <rect x="-22.5" y="-22.5" width="45.1" height="45.1" rx="11.3" fill="url(#rgrad2)" filter="url(#shadow)" opacity="0.16"/>
        <circle cx="0" cy="0" r="15.0" fill="url(#rgrad3)" opacity="0.11"/>
      </g>
      </g>
      </g>
      </g>
      </g>
      </g>
      </g>
  </g>
  <g transform="translate(541.6, 683.0)">
      <g transform="translate(-2.30,3.55) rotate(0.92) scale(1.000)">
        <g transform="translate(0.11,3.94) rotate(3.76) scale(0.980)">
        <g transform="translate(2.49,3.97) rotate(8.29) scale(0.960)">
        <g transform="translate(4.26,3.65) rotate(14.14) scale(0.940)" clip-path="url(#clipRect)">
        <g transform="translate(4.99,3.00) rotate(20.84) scale(0.920)">
        <g transform="translate(4.50,2.09) rotate(27.80) scale(0.900)">
        <g transform="translate(2.91,0.99) rotate(34.40) scale(0.880)">
        <path d="M26.4,15.2 L0.0,30.5 L-26.4,15.2 L-26.4,-15.2 L-0.0,-30.5 L26.4,-15.2Z" fill="url(#lgrad3)" filter="url(#blur3)" opacity="0.24"/>
        <ellipse cx="0" cy="0" rx="12.7" ry="8.5" fill="#FFFFFF" opacity="0.12"/>
      </g>
      </g>
      </g>
      </g>
      </g>
      </g>
      </g>
  </g>
  <g transform="translate(747.1, 671.2)">
      <g transform="translate(2.49,3.47) rotate(0.92) scale(1.000)">
        <g transform="translate(4.26,2.72) rotate(3.76) scale(0.980)">
        <g transform="translate(4.99,1.74) rotate(8.29) scale(0.960)">
        <g transform="translate(4.50,0.59) rotate(14.14) scale(0.940)">
        <g transform="translate(2.91,-0.60) rotate(20.84) scale(0.920)">
        <g transform="translate(0.60,-1.74) rotate(27.80) scale(0.900)" mask="url(#maskDynamic)">
        <g transform="translate(-1.85,-2.73) rotate(34.40) scale(0.880)">
        <circle cx="0" cy="0" r="32.5" fill="url(#rgrad4)" filter="url(#shadow)" opacity="0.35"/>
        <text x="0" y="5" text-anchor="middle" font-family="Arial, sans-serif" font-size="14" fill="#FFFFFF" opacity="0.35">60</text>
      </g>
      </g>
      </g>
      </g>
      </g>
      </g>
      </g>
  </g>
  <g transform="translate(955.7, 654.2)">
      <g transform="translate(4.99,0.20) rotate(0.92) scale(1.000)">
        <g transform="translate(4.50,-0.99) rotate(3.76) scale(0.980)">
        <g transform="translate(2.91,-2.09) rotate(8.29) scale(0.960)">
        <g transform="translate(0.60,-3.01) rotate(14.14) scale(0.940)">
        <g transform="translate(-1.85,-3.65) rotate(20.84) scale(0.920)">
        <g transform="translate(-3.85,-3.97) rotate(27.80) scale(0.900)">
        <g transform="translate(-4.91,-3.94) rotate(34.40) scale(0.880)">
        <path d="M0.0,-74.6 L21.9,-30.2 L70.9,-23.0 L35.5,11.5 L43.8,60.3 L0.0,37.3 L-43.8,60.3 L-35.5,11.5 L-70.9,-23.0 L-21.9,-30.2Z" fill="url(#rgrad0)" filter="url(#blur0)" opacity="0.46"/>
      </g>
      </g>
      </g>
      </g>
      </g>
      </g>
      </g>
  </g>
  <g transform="translate(1170.2, 639.9)">
      <g transform="translate(2.91,-3.26) rotate(0.92) scale(1.000)">
        <g transform="translate(0.60,-3.80) rotate(3.76) scale(0.980)">
        <g transform="translate(-1.85,-4.00) rotate(8.29) scale(0.960)">
        <g transform="translate(-3.85,-3.84) rotate(14.14) scale(0.940)" clip-path="url(#clipStar)">
        <g transform="translate(-4.91,-3.35) rotate(20.84) scale(0.920)">
        <g transform="translate(-4.76,-2.55) rotate(27.80) scale(0.900)">
        <g transform="translate(-3.45,-1.52) rotate(34.40) scale(0.880)">
        <rect x="-35.4" y="-35.4" width="70.8" height="70.8" rx="17.7" fill="url(#lgrad1)" filter="url(#shadow)" opacity="0.58"/>
        <circle cx="0" cy="0" r="23.6" fill="url(#rgrad2)" opacity="0.41"/>
      </g>
      </g>
      </g>
      </g>
      </g>
      </g>
      </g>
  </g>
  <g transform="translate(1392.1, 635.0)">
      <g transform="translate(-1.85,-3.71) rotate(0.92) scale(1.000)">
        <g transform="translate(-3.85,-3.11) rotate(3.76) scale(0.980)">
        <g transform="translate(-4.91,-2.23) rotate(8.29) scale(0.960)">
        <g transform="translate(-4.76,-1.15) rotate(14.14) scale(0.940)">
        <g transform="translate(-3.45,0.04) rotate(20.84) scale(0.920)">
        <g transform="translate(-1.29,1.22) rotate(27.80) scale(0.900)" mask="url(#maskStripes)">
        <g transform="translate(1.18,2.29) rotate(34.40) scale(0.880)">
        <path d="M29.7,17.1 L0.0,34.3 L-29.7,17.1 L-29.7,-17.1 L-0.0,-34.3 L29.7,-17.1Z" fill="url(#rgrad2)" filter="url(#blur2)" opacity="0.69"/>
        <ellipse cx="0" cy="0" rx="14.3" ry="9.5" fill="#FFFFFF" opacity="0.35"/>
      </g>
      </g>
      </g>
      </g>
      </g>
      </g>
      </g>
  </g>
  <g transform="translate(1620.8, 641.9)">
      <g transform="translate(-4.91,-0.76) rotate(0.92) scale(1.000)">
        <g transform="translate(-4.76,0.44) rotate(3.76) scale(0.980)">
        <g transform="translate(-3.45,1.59) rotate(8.29) scale(0.960)">
        <g transform="translate(-1.29,2.60) rotate(14.14) scale(0.940)">
        <g transform="translate(1.18,3.39) rotate(20.84) scale(0.920)">
        <g transform="translate(3.37,3.86) rotate(27.80) scale(0.900)">
        <g transform="translate(4.73,4.00) rotate(34.40) scale(0.880)">
        <circle cx="0" cy="0" r="23.0" fill="url(#rgrad3)" filter="url(#shadow)" opacity="0.79"/>
        <text x="0" y="5" text-anchor="middle" font-family="Arial, sans-serif" font-size="14" fill="#FFFFFF" opacity="0.79">60</text>
      </g>
      </g>
      </g>
      </g>
      </g>
      </g>
      </g>
  </g>
  <g transform="translate(94.2, 937.3)">
      <g transform="translate(-3.45,2.89) rotate(0.92) scale(1.000)">
        <g transform="translate(-1.29,3.58) rotate(3.76) scale(0.980)">
        <g transform="translate(1.18,3.95) rotate(8.29) scale(0.960)">
        <g transform="translate(3.37,3.96) rotate(14.14) scale(0.940)" clip-path="url(#clipDynamic)">
        <g transform="translate(4.73,3.62) rotate(20.84) scale(0.920)">
        <g transform="translate(4.93,2.96) rotate(27.80) scale(0.900)">
        <g transform="translate(3.93,2.03) rotate(34.40) scale(0.880)">
        <path d="M0.0,-47.8 L14.1,-19.3 L45.5,-14.8 L22.7,7.4 L28.1,38.7 L0.0,23.9 L-28.1,38.7 L-22.7,7.4 L-45.5,-14.8 L-14.1,-19.3Z" fill="url(#lgrad4)" filter="url(#blur4)" opacity="0.86"/>
      </g>
      </g>
      </g>
      </g>
      </g>
      </g>
      </g>
  </g>
  <g transform="translate(336.3, 374.6)" mask="url(#maskGradient)">
    <ellipse cx="0" cy="0" rx="200" ry="150" fill="url(#rgrad0)" filter="url(#blur3)" opacity="0.3"/>
  </g>
  <g transform="translate(898.0, 338.3)" mask="url(#maskCircleFade)">
    <ellipse cx="0" cy="0" rx="200" ry="150" fill="url(#rgrad1)" filter="url(#blur3)" opacity="0.3"/>
  </g>
  <g transform="translate(1369.7, 284.1)" mask="url(#maskStripes)">
    <ellipse cx="0" cy="0" rx="200" ry="150" fill="url(#rgrad2)" filter="url(#blur3)" opacity="0.3"/>
  </g>
</svg>