<?xml version="1.0" encoding="UTF-8"?>
<svg xmlns="http://www.w3.org/2000/svg" viewBox="0 0 1920 1080" width="1920" height="1080">
  <defs>
    <filter id="blur0" x="-50%" y="-50%" width="200%" height="200%">
      <feGaussianBlur in="SourceGraphic" stdDeviation="1"/>
    </filter>
    <filter id="blur1" x="-50%" y="-50%" width="200%" height="200%">
      <feGaussianBlur in="SourceGraphic" stdDeviation="3"/>
    </filter>
    <filter id="blur2" x="-50%" y="-50%" width="200%" height="200%">
      <feGaussianBlur in="SourceGraphic" stdDeviation="5"/>
    </filter>
    <filter id="blur3" x="-50%" y="-50%" width="200%" height="200%">
      <feGaussianBlur in="SourceGraphic" stdDeviation="7"/>
    </filter>
    <filter id="blur4" x="-50%" y="-50%" width="200%" height="200%">
      <feGaussianBlur in="SourceGraphic" stdDeviation="9"/>
    </filter>
    <filter id="shadow" x="-50%" y="-50%" width="200%" height="200%">
      <feGaussianBlur in="SourceAlpha" stdDeviation="3" result="blur"/>
      <feOffset in="blur" dx="4" dy="4" result="offsetBlur"/>
      <feMerge>
        <feMergeNode in="offsetBlur"/>
        <feMergeNode in="SourceGraphic"/>
      </feMerge>
    </filter>
    <linearGradient id="lgrad0" x1="0%" y1="0%" x2="52.2%" y2="0.0%">
      <stop offset="0%" stop-color="#FF6B6B"/>
      <stop offset="33%" stop-color="#4ECDC4"/>
      <stop offset="66%" stop-color="#45B7D1"/>
      <stop offset="100%" stop-color="#96E6A1"/>
    </linearGradient>
    <linearGradient id="lgrad1" x1="0%" y1="0%" x2="76.9%" y2="7.8%">
      <stop offset="0%" stop-color="#FFE66D"/>
      <stop offset="33%" stop-color="#FF6B6B"/>
      <stop offset="66%" stop-color="#C44D58"/>
      <stop offset="100%" stop-color="#8B0000"/>
    </linearGradient>
    <linearGradient id="lgrad2" x1="0%" y1="0%" x2="94.4%" y2="26.9%">
      <stop offset="0%" stop-color="#4169E1"/>
      <stop offset="33%" stop-color="#7B68EE"/>
      <stop offset="66%" stop-color="#9370DB"/>
      <stop offset="100%" stop-color="#FFD700"/>
    </linearGradient>
    <linearGradient id="lgrad3" x1="0%" y1="0%" x2="100.0%" y2="52.2%">
      <stop offset="0%" stop-color="#32CD32"/>
      <stop offset="33%" stop-color="#228B22"/>
      <stop offset="66%" stop-color="#006400"/>
      <stop offset="100%" stop-color="#ADFF2F"/>
    </linearGradient>
    <linearGradient id="lgrad4" x1="0%" y1="0%" x2="92.2%" y2="76.9%">
      <stop offset="0%" stop-color="#FF1493"/>
      <stop offset="33%" stop-color="#FF69B4"/>
      <stop offset="66%" stop-color="#FFB6C1"/>
      <stop offset="100%" stop-color="#FFC0CB"/>
    </linearGradient>
    <radialGradient id="rgrad0" cx="46.5%" cy="41.0%" r="60%">
      <stop offset="0%" stop-color="#FF6B6B" stop-opacity="1"/>
      <stop offset="50%" stop-color="#4ECDC4" stop-opacity="0.8"/>
      <stop offset="100%" stop-color="#45B7D1" stop-opacity="0.6"/>
    </radialGradient>
    <radialGradient id="rgrad1" cx="56.5%" cy="49.0%" r="60%">
      <stop offset="0%" stop-color="#FFE66D" stop-opacity="1"/>
      <stop offset="50%" stop-color="#FF6B6B" stop-opacity="0.8"/>
      <stop offset="100%" stop-color="#C44D58" stop-opacity="0.6"/>
    </radialGradient>
    <radialGradient id="rgrad2" cx="66.5%" cy="57.0%" r="60%">
      <stop offset="0%" stop-color="#4169E1" stop-opacity="1"/>
      <stop offset="50%" stop-color="#7B68EE" stop-opacity="0.8"/>
      <stop offset="100%" stop-color="#9370DB" stop-opacity="0.6"/>
    </radialGradient>
    <radialGradient id="rgrad3" cx="36.5%" cy="65.0%" r="60%">
      <stop offset="0%" stop-color="#32CD32" stop-opacity="1"/>
      <stop offset="50%" stop-color="#228B22" stop-opacity="0.8"/>
      <stop offset="100%" stop-color="#006400" stop-opacity="0.6"/>
    </radialGradient>
    <radialGradient id="rgrad4" cx="46.5%" cy="33.0%" r="60%">
      <stop offset="0%" stop-color="#FF1493" stop-opacity="1"/>
      <stop offset="50%" stop-color="#FF69B4" stop-opacity="0.8"/>
      <stop offset="100%" stop-color="#FFB6C1" stop-opacity="0.6"/>
    </radialGradient>
    <clipPath id="clipCircle">
      <circle cx="0" cy="0" r="50"/>
    </clipPath>
    <clipPath id="clipStar">
      <path d="M0.0,-50.0 L14.7,-20.2 L47.6,-15.5 L23.8,7.7 L29.4,40.5 L0.0,25.0 L-29.4,40.5 L-23.8,7.7 L-47.6,-15.5 L-14.7,-20.2Z"/>
    </clipPath>
    <clipPath id="clipHex">
      <path d="M39.0,22.5 L0.0,45.0 L-39.0,22.5 L-39.0,-22.5 L-0.0,-45.0 L39.0,-22.5Z"/>
    </clipPath>
    <clipPath id="clipRect">
      <rect x="-40" y="-30" width="80" height="60" rx="10"/>
    </clipPath>
    <clipPath id="clipDynamic">
      <circle cx="0" cy="0" r="39.2"/>
    </clipPath>
    <mask id="maskGradient" maskContentUnits="objectBoundingBox">
      <rect x="0" y="0" width="1" height="1" fill="url(#maskGrad)"/>
    </mask>
    <linearGradient id="maskGrad" x1="0%" y1="0%" x2="100%" y2="100%">
      <stop offset="0%" stop-color="white"/>
      <stop offset="100%" stop-color="black"/>
    </linearGradient>
    <mask id="maskCircleFade">
      <circle cx="0" cy="0" r="60" fill="white"/>
      <circle cx="0" cy="0" r="30" fill="black"/>
    </mask>
    <mask id="maskStripes">
      <rect x="-50" y="-50" width="100" height="100" fill="white"/>
      <rect x="-50" y="-40" width="100" height="10" fill="black"/>
      <rect x="-50" y="-20" width="100" height="10" fill="black"/>
      <rect x="-50" y="0" width="100" height="10" fill="black"/>
      <rect x="-50" y="20" width="100" height="10" fill="black"/>
      <rect x="-50" y="40" width="100" height="10" fill="black"/>
    </mask>
    <mask id="maskDynamic">
      <rect x="-60" y="-60" width="120" height="120" fill="white" fill-opacity="0.99"/>
      <circle cx="0" cy="0" r="25" fill="white"/>
    </mask>
  </defs>
  <rect width="1920" height="1080" fill="url(#lgrad0)"/>
  <g transform="translate(108.5, 76.0)">
      <g transform="translate(1.41,-3.84) rotate(4.95) scale(1.000)">
        <g transform="translate(-1.06,-4.00) rotate(9.98) scale(0.980)">
        <g transform="translate(-3.27,-3.80) rotate(14.51) scale(0.960)">
        <g transform="translate(-4.68,-3.27) rotate(17.95) scale(0.940)" clip-path="url(#clipCircle)">
        <g transform="translate(-4.95,-2.44) rotate(19.80) scale(0.920)">
        <g transform="translate(-4.00,-1.40) rotate(19.64) scale(0.900)">
        <g transform="translate(-2.07,-0.23) rotate(17.20) scale(0.880)">
        <path d="M0.0,-74.8 L22.0,-30.3 L71.2,-23.1 L35.6,11.6 L44.0,60.6 L0.0,37.4 L-44.0,60.6 L-35.6,11.6 L-71.2,-23.1 L-22.0,-30.3Z" fill="url(#lgrad0)" filter="url(#blur0)" opacity="0.90"/>
      </g>
      </g>
      </g>
      </g>
      </g>
      </g>
      </g>
  </g>
  <g transform="translate(313.6, 77.1)">
      <g transform="translate(-3.27,-3.02) rotate(4.95) scale(1.000)">
        <g transform="translate(-4.68,-2.11) rotate(9.98) scale(0.980)">
        <g transform="translate(-4.95,-1.02) rotate(14.51) scale(0.960)">
        <g transform="translate(-4.00,0.17) rotate(17.95) scale(0.940)">
        <g transform="translate(-2.07,1.35) rotate(19.80) scale(0.920)">
        <g transform="translate(0.36,2.40) rotate(19.64) scale(0.900)" mask="url(#maskCircleFade)">
        <g transform="translate(2.71,3.24) rotate(17.20) scale(0.880)">
        <rect x="-34.9" y="-34.9" width="69.8" height="69.8" rx="17.5" fill="url(#rgrad1)" filter="url(#shadow)" opacity="0.90"/>
        <circle cx="0" cy="0" r="23.3" fill="url(#rgrad2)" opacity="0.63"/>
      </g>
      </g>
      </g>
      </g>
      </g>
      </g>
      </g>
  </g>
  <g transform="translate(520.4, 89.0)">
      <g transform="translate(-4.95,0.57) rotate(4.95) scale(1.000)">
        <g transform="translate(-4.00,1.71) rotate(9.98) scale(0.980)">
        <g transform="translate(-2.07,2.71) rotate(14.51) scale(0.960)">
        <g transform="translate(0.36,3.46) rotate(17.95) scale(0.940)">
        <g transform="translate(2.71,3.90) rotate(19.80) scale(0.920)">
        <g transform="translate(4.39,3.99) rotate(19.64) scale(0.900)">
        <g transform="translate(5.00,3.73) rotate(17.20) scale(0.880)">
        <path d="M29.0,16.7 L0.0,33.5 L-29.0,16.7 L-29.0,-16.7 L-0.0,-33.5 L29.0,-16.7Z" fill="url(#rgrad2)" filter="url(#blur2)" opacity="0.86"/>
        <ellipse cx="0" cy="0" rx="13.9" ry="9.3" fill="#FFFFFF" opacity="0.43"/>
      </g>
      </g>
      </g>
      </g>
      </g>
      </g>
      </g>
  </g>
  <g transform="translate(731.9, 106.0)">
      <g transform="translate(-2.07,3.64) rotate(4.95) scale(1.000)">
        <g transform="translate(0.36,3.97) rotate(9.98) scale(0.980)">
        <g transform="translate(2.71,3.94) rotate(14.51) scale(0.960)">
        <g transform="translate(4.39,3.56) rotate(17.95) scale(0.940)" clip-path="url(#clipRect)">
        <g transform="translate(5.00,2.87) rotate(19.80) scale(0.920)">
        <g transform="translate(4.38,1.91) rotate(19.64) scale(0.900)">
        <g transform="translate(2.70,0.79) rotate(17.20) scale(0.880)">
        <circle cx="0" cy="0" r="22.8" fill="url(#lgrad3)" filter="url(#shadow)" opacity="0.79"/>
        <text x="0" y="5" text-anchor="middle" font-family="Arial, sans-serif" font-size="14" fill="#FFFFFF" opacity="0.79">455</text>
      </g>
      </g>
      </g>
      </g>
      </g>
      </g>
      </g>
  </g>
  <g transform="translate(950.3, 120.2)">
      <g transform="translate(2.71,3.36) rotate(4.95) scale(1.000)">
        <g transform="translate(4.39,2.57) rotate(9.98) scale(0.980)">
        <g transform="translate(5.00,1.55) rotate(14.51) scale(0.960)">
        <g transform="translate(4.38,0.39) rotate(17.95) scale(0.940)">
        <g transform="translate(2.70,-0.80) rotate(19.80) scale(0.920)">
        <g transform="translate(0.35,-1.92) rotate(19.64) scale(0.900)" mask="url(#maskGradient)">
        <g transform="translate(-2.09,-2.87) rotate(17.20) scale(0.880)">
        <path d="M0.0,-48.7 L14.3,-19.7 L46.3,-15.0 L23.1,7.5 L28.6,39.4 L0.0,24.3 L-28.6,39.4 L-23.1,7.5 L-46.3,-15.0 L-14.3,-19.7Z" fill="url(#rgrad4)" filter="url(#blur4)" opacity="0.70"/>
      </g>
      </g>
      </g>
      </g>
      </g>
      </g>
      </g>
  </g>
  <g transform="translate(1176.0, 124.9)">
      <g transform="translate(5.00,-0.01) rotate(4.95) scale(1.000)">
        <g transform="translate(4.38,-1.19) rotate(9.98) scale(0.980)">
        <g transform="translate(2.70,-2.26) rotate(14.51) scale(0.960)">
        <g transform="translate(0.35,-3.14) rotate(17.95) scale(0.940)">
        <g transform="translate(-2.09,-3.73) rotate(19.80) scale(0.920)">
        <g transform="translate(-4.01,-3.99) rotate(19.64) scale(0.900)">
        <g transform="translate(-4.95,-3.89) rotate(17.20) scale(0.880)">
        <rect x="-31.1" y="-31.1" width="62.2" height="62.2" rx="15.5" fill="url(#rgrad0)" filter="url(#shadow)" opacity="0.58"/>
        <circle cx="0" cy="0" r="20.7" fill="url(#rgrad1)" opacity="0.41"/>
      </g>
      </g>
      </g>
      </g>
      </g>
      </g>
      </g>
  </g>
  <g transform="translate(1407.6, 117.9)">
      <g transform="translate(2.70,-3.37) rotate(4.95) scale(1.000)">
        <g transform="translate(0.35,-3.86) rotate(9.98) scale(0.980)">
        <g transform="translate(-2.09,-4.00) rotate(14.51) scale(0.960)">
        <g transform="translate(-4.01,-3.78) rotate(17.95) scale(0.940)" clip-path="url(#clipStar)">
        <g transform="translate(-4.95,-3.23) rotate(19.80) scale(0.920)">
        <g transform="translate(-4.68,-2.39) rotate(19.64) scale(0.900)">
        <g transform="translate(-3.26,-1.33) rotate(17.20) scale(0.880)">
        <path d="M38.3,22.1 L0.0,44.2 L-38.3,22.1 L-38.3,-22.1 L-0.0,-44.2 L38.3,-22.1Z" fill="url(#lgrad1)" filter="url(#blur1)" opacity="0.47"/>
        <ellipse cx="0" cy="0" rx="18.4" ry="12.3" fill="#FFFFFF" opacity="0.23"/>
      </g>
      </g>
      </g>
      </g>
      </g>
      </g>
      </g>
  </g>
  <g transform="translate(1642.2, 102.5)">
      <g transform="translate(-2.09,-3.63) rotate(4.95) scale(1.000)">
        <g transform="translate(-4.01,-2.98) rotate(9.98) scale(0.980)">
        <g transform="translate(-4.95,-2.06) rotate(14.51) scale(0.960)">
        <g transform="translate(-4.68,-0.95) rotate(17.95) scale(0.940)">
        <g transform="translate(-3.26,0.24) rotate(19.80) scale(0.920)">
        <g transform="translate(-1.05,1.41) rotate(19.64) scale(0.900)" mask="url(#maskDynamic)">
        <g transform="translate(1.43,2.45) rotate(17.20) scale(0.880)">
        <circle cx="0" cy="0" r="36.3" fill="url(#rgrad2)" filter="url(#shadow)" opacity="0.35"/>
        <text x="0" y="5" text-anchor="middle" font-family="Arial, sans-serif" font-size="14" fill="#FFFFFF" opacity="0.35">455</text>
      </g>
      </g>
      </g>
      </g>
      </g>
      </g>
      </g>
  </g>
  <g transform="translate(116.2, 365.9)">
      <g transform="translate(-4.95,-0.56) rotate(4.95) scale(1.000)">
        <g transform="translate(-4.68,0.64) rotate(9.98) scale(0.980)">
        <g transform="translate(-3.26,1.78) rotate(14.51) scale(0.960)">
        <g transform="translate(-1.05,2.76) rotate(17.95) scale(0.940)">
        <g transform="translate(1.43,3.49) rotate(19.80) scale(0.920)">
        <g transform="translate(3.55,3.91) rotate(19.64) scale(0.900)">
        <g transform="translate(4.80,3.98) rotate(17.20) scale(0.880)">
        <path d="M0.0,-60.0 L17.6,-24.3 L57.0,-18.5 L28.5,9.3 L35.2,48.5 L0.0,30.0 L-35.2,48.5 L-28.5,9.3 L-57.0,-18.5 L-17.6,-24.3Z" fill="url(#rgrad3)" filter="url(#blur3)" opacity="0.25"/>
      </g>
      </g>
      </g>
      </g>
      </g>
      </g>
      </g>
  </g>
  <g transform="translate(346.3, 355.9)">
      <g transform="translate(-3.26,3.03) rotate(4.95) scale(1.000)">
        <g transform="translate(-1.05,3.67) rotate(9.98) scale(0.980)">
        <g transform="translate(1.43,3.98) rotate(14.51) scale(0.960)">
        <g transform="translate(3.55,3.93) rotate(17.95) scale(0.940)" clip-path="url(#clipDynamic)">
        <g transform="translate(4.80,3.53) rotate(19.80) scale(0.920)">
        <g transform="translate(4.88,2.82) rotate(19.64) scale(0.900)">
        <g transform="translate(3.76,1.85) rotate(17.20) scale(0.880)">
        <rect x="-23.7" y="-23.7" width="47.4" height="47.4" rx="11.8" fill="url(#lgrad4)" filter="url(#shadow)" opacity="0.17"/>
        <circle cx="0" cy="0" r="15.8" fill="url(#rgrad0)" opacity="0.12"/>
      </g>
      </g>
      </g>
      </g>
      </g>
      </g>
      </g>
  </g>
  <g transform="translate(570.0, 357.3)">
      <g transform="translate(1.43,3.83) rotate(4.95) scale(1.000)">
        <g transform="translate(3.55,3.33) rotate(9.98) scale(0.980)">
        <g transform="translate(4.80,2.52) rotate(14.51) scale(0.960)">
        <g transform="translate(4.88,1.49) rotate(17.95) scale(0.940)">
        <g transform="translate(3.76,0.33) rotate(19.80) scale(0.920)">
        <g transform="translate(1.73,-0.87) rotate(19.64) scale(0.900)" mask="url(#maskStripes)">
        <g transform="translate(-0.73,-1.98) rotate(17.20) scale(0.880)">
        <path d="M24.1,13.9 L0.0,27.8 L-24.1,13.9 L-24.1,-13.9 L-0.0,-27.8 L24.1,-13.9Z" fill="url(#rgrad0)" filter="url(#blur0)" opacity="0.12"/>
        <ellipse cx="0" cy="0" rx="11.6" ry="7.7" fill="#FFFFFF" opacity="0.06"/>
      </g>
      </g>
      </g>
      </g>
      </g>
      </g>
      </g>
  </g>
  <g transform="translate(786.3, 369.3)">
      <g transform="translate(4.80,1.11) rotate(4.95) scale(1.000)">
        <g transform="translate(4.88,-0.07) rotate(9.98) scale(0.980)">
        <g transform="translate(3.76,-1.25) rotate(14.51) scale(0.960)">
        <g transform="translate(1.73,-2.32) rotate(17.95) scale(0.940)">
        <g transform="translate(-0.73,-3.18) rotate(19.80) scale(0.920)">
        <g transform="translate(-3.02,-3.75) rotate(19.64) scale(0.900)">
        <g transform="translate(-4.56,-3.99) rotate(17.20) scale(0.880)">
        <circle cx="0" cy="0" r="29.0" fill="url(#rgrad1)" filter="url(#shadow)" opacity="0.10"/>
        <text x="0" y="5" text-anchor="middle" font-family="Arial, sans-serif" font-size="14" fill="#FFFFFF" opacity="0.10">455</text>
      </g>
      </g>
      </g>
      </g>
      </g>
      </g>
      </g>
  </g>
  <g transform="translate(996.2, 386.4)">
      <g transform="translate(3.76,-2.63) rotate(4.95) scale(1.000)">
        <g transform="translate(1.73,-3.40) rotate(9.98) scale(0.980)">
        <g transform="translate(-0.73,-3.87) rotate(14.51) scale(0.960)">
        <g transform="translate(-3.02,-4.00) rotate(17.95) scale(0.940)" clip-path="url(#clipHex)">
        <g transform="translate(-4.56,-3.76) rotate(19.80) scale(0.920)">
        <g transform="translate(-4.99,-3.19) rotate(19.64) scale(0.900)">
        <g transform="translate(-4.19,-2.33) rotate(17.20) scale(0.880)">
        <path d="M0.0,-71.4 L21.0,-28.9 L67.9,-22.1 L33.9,11.0 L42.0,57.7 L0.0,35.7 L-42.0,57.7 L-33.9,11.0 L-67.9,-22.1 L-21.0,-28.9Z" fill="url(#lgrad2)" filter="url(#blur2)" opacity="0.12"/>
      </g>
      </g>
      </g>
      </g>
      </g>
      </g>
      </g>
  </g>
  <g transform="translate(1202.1, 400.5)">
      <g transform="translate(-0.73,-3.96) rotate(4.95) scale(1.000)">
        <g transform="translate(-3.02,-3.61) rotate(9.98) scale(0.980)">
        <g transform="translate(-4.56,-2.93) rotate(14.51) scale(0.960)">
        <g transform="translate(-4.99,-2.00) rotate(17.95) scale(0.940)">
        <g transform="translate(-4.19,-0.89) rotate(19.80) scale(0.920)">
        <g transform="translate(-2.37,0.31) rotate(19.64) scale(0.900)" mask="url(#maskCircleFade)">
        <g transform="translate(0.03,1.47) rotate(17.20) scale(0.880)">
        <rect x="-37.2" y="-37.2" width="74.4" height="74.4" rx="18.6" fill="url(#rgrad3)" filter="url(#shadow)" opacity="0.17"/>
        <circle cx="0" cy="0" r="24.8" fill="url(#rgrad4)" opacity="0.12"/>
      </g>
      </g>
      </g>
      </g>
      </g>
      </g>
      </g>
  </g>
  <g transform="translate(1407.5, 404.9)">
      <g transform="translate(-4.56,-1.64) rotate(4.95) scale(1.000)">
        <g transform="translate(-4.99,-0.49) rotate(9.98) scale(0.980)">
        <g transform="translate(-4.19,0.70) rotate(14.51) scale(0.960)">
        <g transform="translate(-2.37,1.84) rotate(17.95) scale(0.940)">
        <g transform="translate(0.03,2.80) rotate(19.80) scale(0.920)">
        <g transform="translate(2.42,3.52) rotate(19.64) scale(0.900)">
        <g transform="translate(4.22,3.92) rotate(17.20) scale(0.880)">
        <path d="M33.3,19.2 L0.0,38.5 L-33.3,19.2 L-33.3,-19.2 L-0.0,-38.5 L33.3,-19.2Z" fill="url(#rgrad4)" filter="url(#blur4)" opacity="0.26"/>
        <ellipse cx="0" cy="0" rx="16.0" ry="10.7" fill="#FFFFFF" opacity="0.13"/>
      </g>
      </g>
      </g>
      </g>
      </g>
      </g>
      </g>
  </g>
  <g transform="translate(1615.9, 397.6)">
      <g transform="translate(-4.19,2.18) rotate(4.95) scale(1.000)">
        <g transform="translate(-2.37,3.07) rotate(9.98) scale(0.980)">
        <g transform="translate(0.03,3.69) rotate(14.51) scale(0.960)">
        <g transform="translate(2.42,3.98) rotate(17.95) scale(0.940)" clip-path="url(#clipCircle)">
        <g transform="translate(4.22,3.92) rotate(19.80) scale(0.920)">
        <g transform="translate(4.99,3.50) rotate(19.64) scale(0.900)">
        <g transform="translate(4.53,2.77) rotate(17.20) scale(0.880)">
        <circle cx="0" cy="0" r="25.1" fill="url(#lgrad0)" filter="url(#shadow)" opacity="0.36"/>
        <text x="0" y="5" text-anchor="middle" font-family="Arial, sans-serif" font-size="14" fill="#FFFFFF" opacity="0.36">455</text>
      </g>
      </g>
      </g>
      </g>
      </g>
      </g>
      </g>
  </g>
  <g transform="translate(70.3, 662.0)">
      <g transform="translate(0.03,4.00) rotate(4.95) scale(1.000)">
        <g transform="translate(2.42,3.81) rotate(9.98) scale(0.980)">
        <g transform="translate(4.22,3.29) rotate(14.51) scale(0.960)">
        <g transform="translate(4.99,2.47) rotate(17.95) scale(0.940)">
        <g transform="translate(4.53,1.43) rotate(19.80) scale(0.920)">
        <g transform="translate(2.97,0.26) rotate(19.64) scale(0.900)" mask="url(#maskGradient)">
        <g transform="translate(0.68,-0.93) rotate(17.20) scale(0.880)">
        <path d="M0.0,-45.2 L13.3,-18.3 L43.0,-14.0 L21.5,7.0 L26.5,36.5 L0.0,22.6 L-26.5,36.5 L-21.5,7.0 L-43.0,-14.0 L-13.3,-18.3Z" fill="url(#rgrad1)" filter="url(#blur1)" opacity="0.48"/>
      </g>
      </g>
      </g>
      </g>
      </g>
      </g>
      </g>
  </g>
  <g transform="translate(291.9, 645.5)">
      <g transform="translate(4.22,2.14) rotate(4.95) scale(1.000)">
        <g transform="translate(4.99,1.05) rotate(9.98) scale(0.980)">
        <g transform="translate(4.53,-0.14) rotate(14.51) scale(0.960)">
        <g transform="translate(2.97,-1.32) rotate(17.95) scale(0.940)">
        <g transform="translate(0.68,-2.37) rotate(19.80) scale(0.920)">
        <g transform="translate(-1.78,-3.22) rotate(19.64) scale(0.900)">
        <g transform="translate(-3.80,-3.78) rotate(17.20) scale(0.880)">
        <rect x="-26.9" y="-26.9" width="53.9" height="53.9" rx="13.5" fill="url(#rgrad2)" filter="url(#shadow)" opacity="0.60"/>
        <circle cx="0" cy="0" r="18.0" fill="url(#rgrad3)" opacity="0.42"/>
      </g>
      </g>
      </g>
      </g>
      </g>
      </g>
      </g>
  </g>
  <g transform="translate(520.4, 635.8)">
      <g transform="translate(4.53,-1.69) rotate(4.95) scale(1.000)">
        <g transform="translate(2.97,-2.68) rotate(9.98) scale(0.980)">
        <g transform="translate(0.68,-3.44) rotate(14.51) scale(0.960)">
        <g transform="translate(-1.78,-3.89) rotate(17.95) scale(0.940)" clip-path="url(#clipRect)">
        <g transform="translate(-3.80,-3.99) rotate(19.80) scale(0.920)">
        <g transform="translate(-4.89,-3.74) rotate(19.64) scale(0.900)">
        <g transform="translate(-4.79,-3.15) rotate(17.20) scale(0.880)">
        <path d="M35.4,20.5 L0.0,40.9 L-35.4,20.5 L-35.4,-20.5 L-0.0,-40.9 L35.4,-20.5Z" fill="url(#lgrad3)" filter="url(#blur3)" opacity="0.71"/>
        <ellipse cx="0" cy="0" rx="17.0" ry="11.4" fill="#FFFFFF" opacity="0.35"/>
      </g>
      </g>
      </g>
      </g>
      </g>
      </g>
      </g>
  </g>
  <g transform="translate(753.7, 637.5)">
      <g transform="translate(0.68,-3.96) rotate(4.95) scale(1.000)">
        <g transform="translate(-1.78,-3.95) rotate(9.98) scale(0.980)">
        <g transform="translate(-3.80,-3.58) rotate(14.51) scale(0.960)">
        <g transform="translate(-4.89,-2.89) rotate(17.95) scale(0.940)">
        <g transform="translate(-4.79,-1.94) rotate(19.80) scale(0.920)">
        <g transform="translate(-3.51,-0.82) rotate(19.64) scale(0.900)" mask="url(#maskDynamic)">
        <g transform="translate(-1.37,0.37) rotate(17.20) scale(0.880)">
        <circle cx="0" cy="0" r="37.5" fill="url(#rgrad4)" filter="url(#shadow)" opacity="0.80"/>
        <text x="0" y="5" text-anchor="middle" font-family="Arial, sans-serif" font-size="14" fill="#FFFFFF" opacity="0.80">455</text>
      </g>
      </g>
      </g>
      </g>
      </g>
      </g>
      </g>
  </g>
  <g transform="translate(988.6, 649.7)">
      <g transform="translate(-3.80,-2.60) rotate(4.95) scale(1.000)">
        <g transform="translate(-4.89,-1.58) rotate(9.98) scale(0.980)">
        <g transform="translate(-4.79,-0.43) rotate(14.51) scale(0.960)">
        <g transform="translate(-3.51,0.77) rotate(17.95) scale(0.940)">
        <g transform="translate(-1.37,1.89) rotate(19.80) scale(0.920)">
        <g transform="translate(1.10,2.85) rotate(19.64) scale(0.900)">
        <g transform="translate(3.31,3.55) rotate(17.20) scale(0.880)">
        <path d="M0.0,-68.0 L20.0,-27.5 L64.7,-21.0 L32.3,10.5 L40.0,55.0 L0.0,34.0 L-40.0,55.0 L-32.3,10.5 L-64.7,-21.0 L-20.0,-27.5Z" fill="url(#rgrad0)" filter="url(#blur0)" opacity="0.86"/>
      </g>
      </g>
      </g>
      </g>
      </g>
      </g>
      </g>
  </g>
  <g transform="translate(1221.3, 666.8)">
      <g transform="translate(-4.79,1.16) rotate(4.95) scale(1.000)">
        <g transform="translate(-3.51,2.24) rotate(9.98) scale(0.980)">
        <g transform="translate(-1.37,3.12) rotate(14.51) scale(0.960)">
        <g transform="translate(1.10,3.72) rotate(17.95) scale(0.940)" clip-path="url(#clipStar)">
        <g transform="translate(3.31,3.99) rotate(19.80) scale(0.920)">
        <g transform="translate(4.70,3.90) rotate(19.64) scale(0.900)">
        <g transform="translate(4.94,3.47) rotate(17.20) scale(0.880)">
        <rect x="-26.8" y="-26.8" width="53.7" height="53.7" rx="13.4" fill="url(#lgrad1)" filter="url(#shadow)" opacity="0.90"/>
        <circle cx="0" cy="0" r="17.9" fill="url(#rgrad2)" opacity="0.63"/>
      </g>
      </g>
      </g>
      </g>
      </g>
      </g>
      </g>
  </g>
  <g transform="translate(1448.8, 680.7)">
      <g transform="translate(-1.37,3.85) rotate(4.95) scale(1.000)">
        <g transform="translate(1.10,4.00) rotate(9.98) scale(0.980)">
        <g transform="translate(3.31,3.79) rotate(14.51) scale(0.960)">
        <g transform="translate(4.70,3.25) rotate(17.95) scale(0.940)">
        <g transform="translate(4.94,2.41) rotate(19.80) scale(0.920)">
        <g transform="translate(3.97,1.36) rotate(19.64) scale(0.900)" mask="url(#maskStripes)">
        <g transform="translate(2.03,0.19) rotate(17.20) scale(0.880)">
        <path d="M23.5,13.5 L0.0,27.1 L-23.5,13.5 L-23.5,-13.5 L-0.0,-27.1 L23.5,-13.5Z" fill="url(#rgrad2)" filter="url(#blur2)" opacity="0.89"/>
        <ellipse cx="0" cy="0" rx="11.3" ry="7.5" fill="#FFFFFF" opacity="0.45"/>
      </g>
      </g>
      </g>
      </g>
      </g>
      </g>
      </g>
  </g>
  <g transform="translate(1669.3, 684.9)">
      <g transform="translate(3.31,3.00) rotate(4.95) scale(1.000)">
        <g transform="translate(4.70,2.08) rotate(9.98) scale(0.980)">
        <g transform="translate(4.94,0.98) rotate(14.51) scale(0.960)">
        <g transform="translate(3.97,-0.21) rotate(17.95) scale(0.940)">
        <g transform="translate(2.03,-1.38) rotate(19.80) scale(0.920)">
        <g transform="translate(-0.40,-2.43) rotate(19.64) scale(0.900)">
        <g transform="translate(-2.74,-3.26) rotate(17.20) scale(0.880)">
        <circle cx="0" cy="0" r="25.1" fill="url(#rgrad3)" filter="url(#shadow)" opacity="0.86"/>
        <text x="0" y="5" text-anchor="middle" font-family="Arial, sans-serif" font-size="14" fill="#FFFFFF" opacity="0.86">455</text>
      </g>
      </g>
      </g>
      </g>
      </g>
      </g>
      </g>
  </g>
  <g transform="translate(122.6, 957.3)">
      <g transform="translate(4.94,-0.61) rotate(4.95) scale(1.000)">
        <g transform="translate(3.97,-1.75) rotate(9.98) scale(0.980)">
        <g transform="translate(2.03,-2.73) rotate(14.51) scale(0.960)">
        <g transform="translate(-0.40,-3.47) rotate(17.95) scale(0.940)" clip-path="url(#clipDynamic)">
        <g transform="translate(-2.74,-3.90) rotate(19.80) scale(0.920)">
        <g transform="translate(-4.41,-3.99) rotate(19.64) scale(0.900)">
        <g transform="translate(-5.00,-3.71) rotate(17.20) scale(0.880)">
        <path d="M0.0,-64.4 L18.9,-26.0 L61.2,-19.9 L30.6,9.9 L37.8,52.1 L0.0,32.2 L-37.8,52.1 L-30.6,9.9 L-61.2,-19.9 L-18.9,-26.0Z" fill="url(#lgrad4)" filter="url(#blur4)" opacity="0.79"/>
      </g>
      </g>
      </g>
      </g>
      </g>
      </g>
      </g>
  </g>
  <g transform="translate(328.2, 223.3)" mask="url(#maskGradient)">
    <ellipse cx="0" cy="0" rx="200" ry="150" fill="url(#rgrad0)" filter="url(#blur3)" opacity="0.3"/>
  </g>
  <g transform="translate(734.5, 226.8)" mask="url(#maskCircleFade)">
    <ellipse cx="0" cy="0" rx="200" ry="150" fill="url(#rgrad1)" filter="url(#blur3)" opacity="0.3"/>
  </g>
  <g transform="translate(1201.0, 264.7)" mask="url(#maskStripes)">
    <ellipse cx="0" cy="0" rx="200" ry="150" fill="url(#rgrad2)" filter="url(#blur3)" opacity="0.3"/>
  </g>
</svg>