<?xml version="1.0" encoding="UTF-8"?>
<svg xmlns="http://www.w3.org/2000/svg" viewBox="0 0 1920 1080" width="1920" height="1080">
  <defs>
    <filter id="blur0" x="-50%" y="-50%" width="200%" height="200%">
      <feGaussianBlur in="SourceGraphic" stdDeviation="1"/>
    </filter>
    <filter id="blur1" x="-50%" y="-50%" width="200%" height="200%">
      <feGaussianBlur in="SourceGraphic" stdDeviation="3"/>
    </filter>
    <filter id="blur2" x="-50%" y="-50%" width="200%" height="200%">
      <feGaussianBlur in="SourceGraphic" stdDeviation="5"/>
    </filter>
    <filter id="blur3" x="-50%" y="-50%" width="200%" height="200%">
      <feGaussianBlur in="SourceGraphic" stdDeviation="7"/>
    </filter>
    <filter id="blur4" x="-50%" y="-50%" width="200%" height="200%">
      <feGaussianBlur in="SourceGraphic" stdDeviation="9"/>
    </filter>
    <filter id="shadow" x="-50%" y="-50%" width="200%" height="200%">
      <feGaussianBlur in="SourceAlpha" stdDeviation="3" result="blur"/>
      <feOffset in="blur" dx="4" dy="4" result="offsetBlur"/>
      <feMerge>
        <feMergeNode in="offsetBlur"/>
        <feMergeNode in="SourceGraphic"/>
      </feMerge>
    </filter>
    <linearGradient id="lgrad0" x1="0%" y1="0%" x2="9.8%" y2="79.7%">
      <stop offset="0%" stop-color="#FF6B6B"/>
      <stop offset="33%" stop-color="#4ECDC4"/>
      <stop offset="66%" stop-color="#45B7D1"/>
      <stop offset="100%" stop-color="#96E6A1"/>
    </linearGradient>
    <linearGradient id="lgrad1" x1="0%" y1="0%" x2="0.3%" y2="55.7%">
      <stop offset="0%" stop-color="#FFE66D"/>
      <stop offset="33%" stop-color="#FF6B6B"/>
      <stop offset="66%" stop-color="#C44D58"/>
      <stop offset="100%" stop-color="#8B0000"/>
    </linearGradient>
    <linearGradient id="lgrad2" x1="0%" y1="0%" x2="4.1%" y2="30.1%">
      <stop offset="0%" stop-color="#4169E1"/>
      <stop offset="33%" stop-color="#7B68EE"/>
      <stop offset="66%" stop-color="#9370DB"/>
      <stop offset="100%" stop-color="#FFD700"/>
    </linearGradient>
    <linearGradient id="lgrad3" x1="0%" y1="0%" x2="20.3%" y2="9.8%">
      <stop offset="0%" stop-color="#32CD32"/>
      <stop offset="33%" stop-color="#228B22"/>
      <stop offset="66%" stop-color="#006400"/>
      <stop offset="100%" stop-color="#ADFF2F"/>
    </linearGradient>
    <linearGradient id="lgrad4" x1="0%" y1="0%" x2="44.3%" y2="0.3%">
      <stop offset="0%" stop-color="#FF1493"/>
      <stop offset="33%" stop-color="#FF69B4"/>
      <stop offset="66%" stop-color="#FFB6C1"/>
      <stop offset="100%" stop-color="#FFC0CB"/>
    </linearGradient>
    <radialGradient id="rgrad0" cx="49.1%" cy="69.4%" r="60%">
      <stop offset="0%" stop-color="#FF6B6B" stop-opacity="1"/>
      <stop offset="50%" stop-color="#4ECDC4" stop-opacity="0.8"/>
      <stop offset="100%" stop-color="#45B7D1" stop-opacity="0.6"/>
    </radialGradient>
    <radialGradient id="rgrad1" cx="59.1%" cy="37.4%" r="60%">
      <stop offset="0%" stop-color="#FFE66D" stop-opacity="1"/>
      <stop offset="50%" stop-color="#FF6B6B" stop-opacity="0.8"/>
      <stop offset="100%" stop-color="#C44D58" stop-opacity="0.6"/>
    </radialGradient>
    <radialGradient id="rgrad2" cx="69.1%" cy="45.4%" r="60%">
      <stop offset="0%" stop-color="#4169E1" stop-opacity="1"/>
      <stop offset="50%" stop-color="#7B68EE" stop-opacity="0.8"/>
      <stop offset="100%" stop-color="#9370DB" stop-opacity="0.6"/>
    </radialGradient>
    <radialGradient id="rgrad3" cx="39.1%" cy="53.4%" r="60%">
      <stop offset="0%" stop-color="#32CD32" stop-opacity="1"/>
      <stop offset="50%" stop-color="#228B22" stop-opacity="0.8"/>
      <stop offset="100%" stop-color="#006400" stop-opacity="0.6"/>
    </radialGradient>
    <radialGradient id="rgrad4" cx="49.1%" cy="61.4%" r="60%">
      <stop offset="0%" stop-color="#FF1493" stop-opacity="1"/>
      <stop offset="50%" stop-color="#FF69B4" stop-opacity="0.8"/>
      <stop offset="100%" stop-color="#FFB6C1" stop-opacity="0.6"/>
    </radialGradient>
    <clipPath id="clipCircle">
      <circle cx="0" cy="0" r="50"/>
    </clipPath>
    <clipPath id="clipStar">
      <path d="M0.0,-50.0 L14.7,-20.2 L47.6,-15.5 L23.8,7.7 L29.4,40.5 L0.0,25.0 L-29.4,40.5 L-23.8,7.7 L-47.6,-15.5 L-14.7,-20.2Z"/>
    </clipPath>
    <clipPath id="clipHex">
      <path d="M39.0,22.5 L0.0,45.0 L-39.0,22.5 L-39.0,-22.5 L-0.0,-45.0 L39.0,-22.5Z"/>
    </clipPath>
    <clipPath id="clipRect">
      <rect x="-40" y="-30" width="80" height="60" rx="10"/>
    </clipPath>
    <clipPath id="clipDynamic">
      <circle cx="0" cy="0" r="49.2"/>
    </clipPath>
    <mask id="maskGradient" maskContentUnits="objectBoundingBox">
      <rect x="0" y="0" width="1" height="1" fill="url(#maskGrad)"/>
    </mask>
    <linearGradient id="maskGrad" x1="0%" y1="0%" x2="100%" y2="100%">
      <stop offset="0%" stop-color="white"/>
      <stop offset="100%" stop-color="black"/>
    </linearGradient>
    <mask id="maskCircleFade">
      <circle cx="0" cy="0" r="60" fill="white"/>
      <circle cx="0" cy="0" r="30" fill="black"/>
    </mask>
    <mask id="maskStripes">
      <rect x="-50" y="-50" width="100" height="100" fill="white"/>
      <rect x="-50" y="-40" width="100" height="10" fill="black"/>
      <rect x="-50" y="-20" width="100" height="10" fill="black"/>
      <rect x="-50" y="0" width="100" height="10" fill="black"/>
      <rect x="-50" y="20" width="100" height="10" fill="black"/>
      <rect x="-50" y="40" width="100" height="10" fill="black"/>
    </mask>
    <mask id="maskDynamic">
      <rect x="-60" y="-60" width="120" height="120" fill="white" fill-opacity="0.70"/>
      <circle cx="0" cy="0" r="25" fill="white"/>
    </mask>
  </defs>
  <rect width="1920" height="1080" fill="url(#lgrad0)"/>
  <g transform="translate(128.3, 108.3)">
      <g transform="translate(4.72,1.33) rotate(2.89) scale(1.000)">
        <g transform="translate(4.93,0.15) rotate(7.29) scale(0.980)">
        <g transform="translate(3.94,-1.04) rotate(12.75) scale(0.960)">
        <g transform="translate(1.99,-2.13) rotate(18.76) scale(0.940)" clip-path="url(#clipCircle)">
        <g transform="translate(-0.46,-3.04) rotate(24.70) scale(0.920)">
        <g transform="translate(-2.79,-3.67) rotate(29.97) scale(0.900)">
        <g transform="translate(-4.44,-3.98) rotate(33.95) scale(0.880)">
        <path d="M0.0,-68.7 L20.2,-27.8 L65.3,-21.2 L32.7,10.6 L40.4,55.6 L0.0,34.3 L-40.4,55.6 L-32.7,10.6 L-65.3,-21.2 L-20.2,-27.8Z" fill="url(#lgrad0)" filter="url(#blur0)" opacity="0.73"/>
      </g>
      </g>
      </g>
      </g>
      </g>
      </g>
      </g>
  </g>
  <g transform="translate(349.6, 91.1)">
      <g transform="translate(3.94,-2.46) rotate(2.89) scale(1.000)">
        <g transform="translate(1.99,-3.28) rotate(7.29) scale(0.980)">
        <g transform="translate(-0.46,-3.81) rotate(12.75) scale(0.960)">
        <g transform="translate(-2.79,-4.00) rotate(18.76) scale(0.940)">
        <g transform="translate(-4.44,-3.83) rotate(24.70) scale(0.920)">
        <g transform="translate(-5.00,-3.32) rotate(29.97) scale(0.900)" mask="url(#maskCircleFade)">
        <g transform="translate(-4.34,-2.51) rotate(33.95) scale(0.880)">
        <rect x="-37.5" y="-37.5" width="75.0" height="75.0" rx="18.7" fill="url(#rgrad1)" filter="url(#shadow)" opacity="0.82"/>
        <circle cx="0" cy="0" r="25.0" fill="url(#rgrad2)" opacity="0.57"/>
      </g>
      </g>
      </g>
      </g>
      </g>
      </g>
      </g>
  </g>
  <g transform="translate(563.7, 78.2)">
      <g transform="translate(-0.46,-3.98) rotate(2.89) scale(1.000)">
        <g transform="translate(-2.79,-3.70) rotate(7.29) scale(0.980)">
        <g transform="translate(-4.44,-3.08) rotate(12.75) scale(0.960)">
        <g transform="translate(-5.00,-2.19) rotate(18.76) scale(0.940)">
        <g transform="translate(-4.34,-1.10) rotate(24.70) scale(0.920)">
        <g transform="translate(-2.62,0.08) rotate(29.97) scale(0.900)">
        <g transform="translate(-0.25,1.26) rotate(33.95) scale(0.880)">
        <path d="M35.1,20.3 L0.0,40.5 L-35.1,20.3 L-35.1,-20.3 L-0.0,-40.5 L35.1,-20.3Z" fill="url(#rgrad2)" filter="url(#blur2)" opacity="0.88"/>
        <ellipse cx="0" cy="0" rx="16.9" ry="11.3" fill="#FFFFFF" opacity="0.44"/>
      </g>
      </g>
      </g>
      </g>
      </g>
      </g>
      </g>
  </g>
  <g transform="translate(771.9, 75.5)">
      <g transform="translate(-4.44,-1.85) rotate(2.89) scale(1.000)">
        <g transform="translate(-5.00,-0.71) rotate(7.29) scale(0.980)">
        <g transform="translate(-4.34,0.48) rotate(12.75) scale(0.960)">
        <g transform="translate(-2.62,1.63) rotate(18.76) scale(0.940)" clip-path="url(#clipRect)">
        <g transform="translate(-0.25,2.64) rotate(24.70) scale(0.920)">
        <g transform="translate(2.17,3.41) rotate(29.97) scale(0.900)">
        <g transform="translate(4.07,3.88) rotate(33.95) scale(0.880)">
        <circle cx="0" cy="0" r="26.6" fill="url(#lgrad3)" filter="url(#shadow)" opacity="0.90"/>
        <text x="0" y="5" text-anchor="middle" font-family="Arial, sans-serif" font-size="14" fill="#FFFFFF" opacity="0.90">197</text>
      </g>
      </g>
      </g>
      </g>
      </g>
      </g>
      </g>
  </g>
  <g transform="translate(977.3, 84.3)">
      <g transform="translate(-4.34,1.99) rotate(2.89) scale(1.000)">
        <g transform="translate(-2.62,2.93) rotate(7.29) scale(0.980)">
        <g transform="translate(-0.25,3.60) rotate(12.75) scale(0.960)">
        <g transform="translate(2.17,3.95) rotate(18.76) scale(0.940)">
        <g transform="translate(4.07,3.96) rotate(24.70) scale(0.920)">
        <g transform="translate(4.96,3.60) rotate(29.97) scale(0.900)" mask="url(#maskGradient)">
        <g transform="translate(4.65,2.93) rotate(33.95) scale(0.880)">
        <path d="M0.0,-45.1 L13.2,-18.2 L42.9,-13.9 L21.4,7.0 L26.5,36.5 L0.0,22.5 L-26.5,36.5 L-21.4,7.0 L-42.9,-13.9 L-13.2,-18.2Z" fill="url(#rgrad4)" filter="url(#blur4)" opacity="0.89"/>
      </g>
      </g>
      </g>
      </g>
      </g>
      </g>
      </g>
  </g>
  <g transform="translate(1183.3, 100.5)">
      <g transform="translate(-0.25,3.99) rotate(2.89) scale(1.000)">
        <g transform="translate(2.17,3.88) rotate(7.29) scale(0.980)">
        <g transform="translate(4.07,3.41) rotate(12.75) scale(0.960)">
        <g transform="translate(4.96,2.64) rotate(18.76) scale(0.940)">
        <g transform="translate(4.65,1.64) rotate(24.70) scale(0.920)">
        <g transform="translate(3.19,0.48) rotate(29.97) scale(0.900)">
        <g transform="translate(0.95,-0.71) rotate(33.95) scale(0.880)">
        <rect x="-25.4" y="-25.4" width="50.7" height="50.7" rx="12.7" fill="url(#rgrad0)" filter="url(#shadow)" opacity="0.84"/>
        <circle cx="0" cy="0" r="16.9" fill="url(#rgrad1)" opacity="0.59"/>
      </g>
      </g>
      </g>
      </g>
      </g>
      </g>
      </g>
  </g>
  <g transform="translate(1393.4, 116.5)">
      <g transform="translate(4.07,2.33) rotate(2.89) scale(1.000)">
        <g transform="translate(4.96,1.26) rotate(7.29) scale(0.980)">
        <g transform="translate(4.65,0.08) rotate(12.75) scale(0.960)">
        <g transform="translate(3.19,-1.10) rotate(18.76) scale(0.940)" clip-path="url(#clipStar)">
        <g transform="translate(0.95,-2.19) rotate(24.70) scale(0.920)">
        <g transform="translate(-1.52,-3.08) rotate(29.97) scale(0.900)">
        <g transform="translate(-3.61,-3.70) rotate(33.95) scale(0.880)">
        <path d="M33.7,19.5 L0.0,38.9 L-33.7,19.5 L-33.7,-19.5 L-0.0,-38.9 L33.7,-19.5Z" fill="url(#lgrad1)" filter="url(#blur1)" opacity="0.77"/>
        <ellipse cx="0" cy="0" rx="16.2" ry="10.8" fill="#FFFFFF" opacity="0.38"/>
      </g>
      </g>
      </g>
      </g>
      </g>
      </g>
      </g>
  </g>
  <g transform="translate(1610.0, 124.7)">
      <g transform="translate(4.65,-1.48) rotate(2.89) scale(1.000)">
        <g transform="translate(3.19,-2.51) rotate(7.29) scale(0.980)">
        <g transform="translate(0.95,-3.32) rotate(12.75) scale(0.960)">
        <g transform="translate(-1.52,-3.83) rotate(18.76) scale(0.940)">
        <g transform="translate(-3.61,-4.00) rotate(24.70) scale(0.920)">
        <g transform="translate(-4.83,-3.81) rotate(29.97) scale(0.900)" mask="url(#maskDynamic)">
        <g transform="translate(-4.86,-3.28) rotate(33.95) scale(0.880)">
        <circle cx="0" cy="0" r="37.3" fill="url(#rgrad2)" filter="url(#shadow)" opacity="0.67"/>
        <text x="0" y="5" text-anchor="middle" font-family="Arial, sans-serif" font-size="14" fill="#FFFFFF" opacity="0.67">197</text>
      </g>
      </g>
      </g>
      </g>
      </g>
      </g>
      </g>
  </g>
  <g transform="translate(74.0, 401.3)">
      <g transform="translate(0.95,-3.93) rotate(2.89) scale(1.000)">
        <g transform="translate(-1.52,-3.98) rotate(7.29) scale(0.980)">
        <g transform="translate(-3.61,-3.67) rotate(12.75) scale(0.960)">
        <g transform="translate(-4.83,-3.04) rotate(18.76) scale(0.940)">
        <g transform="translate(-4.86,-2.13) rotate(24.70) scale(0.920)">
        <g transform="translate(-3.70,-1.04) rotate(29.97) scale(0.900)">
        <g transform="translate(-1.64,0.15) rotate(33.95) scale(0.880)">
        <path d="M0.0,-70.8 L20.8,-28.7 L67.4,-21.9 L33.7,10.9 L41.6,57.3 L0.0,35.4 L-41.6,57.3 L-33.7,10.9 L-67.4,-21.9 L-20.8,-28.7Z" fill="url(#rgrad3)" filter="url(#blur3)" opacity="0.55"/>
      </g>
      </g>
      </g>
      </g>
      </g>
      </g>
      </g>
  </g>
  <g transform="translate(304.3, 387.9)">
      <g transform="translate(-3.61,-2.76) rotate(2.89) scale(1.000)">
        <g transform="translate(-4.83,-1.79) rotate(7.29) scale(0.980)">
        <g transform="translate(-4.86,-0.65) rotate(12.75) scale(0.960)">
        <g transform="translate(-3.70,0.55) rotate(18.76) scale(0.940)" clip-path="url(#clipDynamic)">
        <g transform="translate(-1.64,1.69) rotate(24.70) scale(0.920)">
        <g transform="translate(0.83,2.69) rotate(29.97) scale(0.900)">
        <g transform="translate(3.09,3.44) rotate(33.95) scale(0.880)">
        <rect x="-28.6" y="-28.6" width="57.1" height="57.1" rx="14.3" fill="url(#lgrad4)" filter="url(#shadow)" opacity="0.43"/>
        <circle cx="0" cy="0" r="19.0" fill="url(#rgrad0)" opacity="0.30"/>
      </g>
      </g>
      </g>
      </g>
      </g>
      </g>
      </g>
  </g>
  <g transform="translate(538.5, 370.8)">
      <g transform="translate(-4.86,0.94) rotate(2.89) scale(1.000)">
        <g transform="translate(-3.70,2.05) rotate(7.29) scale(0.980)">
        <g transform="translate(-1.64,2.97) rotate(12.75) scale(0.960)">
        <g transform="translate(0.83,3.63) rotate(18.76) scale(0.940)">
        <g transform="translate(3.09,3.96) rotate(24.70) scale(0.920)">
        <g transform="translate(4.60,3.94) rotate(29.97) scale(0.900)" mask="url(#maskStripes)">
        <g transform="translate(4.98,3.57) rotate(33.95) scale(0.880)">
        <path d="M23.9,13.8 L0.0,27.6 L-23.9,13.8 L-23.9,-13.8 L-0.0,-27.6 L23.9,-13.8Z" fill="url(#rgrad0)" filter="url(#blur0)" opacity="0.32"/>
        <ellipse cx="0" cy="0" rx="11.5" ry="7.7" fill="#FFFFFF" opacity="0.16"/>
      </g>
      </g>
      </g>
      </g>
      </g>
      </g>
      </g>
  </g>
  <g transform="translate(773.0, 358.0)">
      <g transform="translate(-1.64,3.78) rotate(2.89) scale(1.000)">
        <g transform="translate(0.83,4.00) rotate(7.29) scale(0.980)">
        <g transform="translate(3.09,3.86) rotate(12.75) scale(0.960)">
        <g transform="translate(4.60,3.38) rotate(18.76) scale(0.940)">
        <g transform="translate(4.98,2.59) rotate(24.70) scale(0.920)">
        <g transform="translate(4.14,1.57) rotate(29.97) scale(0.900)">
        <g transform="translate(2.29,0.42) rotate(33.95) scale(0.880)">
        <circle cx="0" cy="0" r="23.9" fill="url(#rgrad1)" filter="url(#shadow)" opacity="0.22"/>
        <text x="0" y="5" text-anchor="middle" font-family="Arial, sans-serif" font-size="14" fill="#FFFFFF" opacity="0.22">197</text>
      </g>
      </g>
      </g>
      </g>
      </g>
      </g>
      </g>
  </g>
  <g transform="translate(1004.4, 355.5)">
      <g transform="translate(3.09,3.14) rotate(2.89) scale(1.000)">
        <g transform="translate(4.60,2.27) rotate(7.29) scale(0.980)">
        <g transform="translate(4.98,1.20) rotate(12.75) scale(0.960)">
        <g transform="translate(4.14,0.02) rotate(18.76) scale(0.940)" clip-path="url(#clipHex)">
        <g transform="translate(2.29,-1.17) rotate(24.70) scale(0.920)">
        <g transform="translate(-0.12,-2.24) rotate(29.97) scale(0.900)">
        <g transform="translate(-2.51,-3.12) rotate(33.95) scale(0.880)">
        <path d="M0.0,-60.7 L17.9,-24.6 L57.8,-18.8 L28.9,9.4 L35.7,49.1 L0.0,30.4 L-35.7,49.1 L-28.9,9.4 L-57.8,-18.8 L-17.9,-24.6Z" fill="url(#lgrad2)" filter="url(#blur2)" opacity="0.15"/>
      </g>
      </g>
      </g>
      </g>
      </g>
      </g>
      </g>
  </g>
  <g transform="translate(1229.8, 364.6)">
      <g transform="translate(4.98,-0.38) rotate(2.89) scale(1.000)">
        <g transform="translate(4.14,-1.54) rotate(7.29) scale(0.980)">
        <g transform="translate(2.29,-2.56) rotate(12.75) scale(0.960)">
        <g transform="translate(-0.12,-3.36) rotate(18.76) scale(0.940)">
        <g transform="translate(-2.51,-3.85) rotate(24.70) scale(0.920)">
        <g transform="translate(-4.27,-4.00) rotate(29.97) scale(0.900)" mask="url(#maskCircleFade)">
        <g transform="translate(-4.99,-3.79) rotate(33.95) scale(0.880)">
        <rect x="-36.5" y="-36.5" width="73.0" height="73.0" rx="18.3" fill="url(#rgrad3)" filter="url(#shadow)" opacity="0.11"/>
        <circle cx="0" cy="0" r="24.3" fill="url(#rgrad4)" opacity="0.08"/>
      </g>
      </g>
      </g>
      </g>
      </g>
      </g>
      </g>
  </g>
  <g transform="translate(1447.9, 380.9)">
      <g transform="translate(2.29,-3.56) rotate(2.89) scale(1.000)">
        <g transform="translate(-0.12,-3.94) rotate(7.29) scale(0.980)">
        <g transform="translate(-2.51,-3.97) rotate(12.75) scale(0.960)">
        <g transform="translate(-4.27,-3.64) rotate(18.76) scale(0.940)">
        <g transform="translate(-4.99,-2.99) rotate(24.70) scale(0.920)">
        <g transform="translate(-4.49,-2.08) rotate(29.97) scale(0.900)">
        <g transform="translate(-2.89,-0.97) rotate(33.95) scale(0.880)">
        <path d="M38.1,22.0 L0.0,44.0 L-38.1,22.0 L-38.1,-22.0 L-0.0,-44.0 L38.1,-22.0Z" fill="url(#rgrad4)" filter="url(#blur4)" opacity="0.10"/>
        <ellipse cx="0" cy="0" rx="18.3" ry="12.2" fill="#FFFFFF" opacity="0.05"/>
      </g>
      </g>
      </g>
      </g>
      </g>
      </g>
      </g>
  </g>
  <g transform="translate(1659.1, 396.8)">
      <g transform="translate(-2.51,-3.46) rotate(2.89) scale(1.000)">
        <g transform="translate(-4.27,-2.71) rotate(7.29) scale(0.980)">
        <g transform="translate(-4.99,-1.73) rotate(12.75) scale(0.960)">
        <g transform="translate(-4.49,-0.58) rotate(18.76) scale(0.940)" clip-path="url(#clipCircle)">
        <g transform="translate(-2.89,0.61) rotate(24.70) scale(0.920)">
        <g transform="translate(-0.58,1.75) rotate(29.97) scale(0.900)">
        <g transform="translate(1.87,2.74) rotate(33.95) scale(0.880)">
        <circle cx="0" cy="0" r="30.7" fill="url(#lgrad0)" filter="url(#shadow)" opacity="0.13"/>
        <text x="0" y="5" text-anchor="middle" font-family="Arial, sans-serif" font-size="14" fill="#FFFFFF" opacity="0.13">197</text>
      </g>
      </g>
      </g>
      </g>
      </g>
      </g>
      </g>
  </g>
  <g transform="translate(105.7, 684.8)">
      <g transform="translate(-4.99,-0.18) rotate(2.89) scale(1.000)">
        <g transform="translate(-4.49,1.01) rotate(7.29) scale(0.980)">
        <g transform="translate(-2.89,2.10) rotate(12.75) scale(0.960)">
        <g transform="translate(-0.58,3.02) rotate(18.76) scale(0.940)">
        <g transform="translate(1.87,3.66) rotate(24.70) scale(0.920)">
        <g transform="translate(3.86,3.97) rotate(29.97) scale(0.900)" mask="url(#maskGradient)">
        <g transform="translate(4.91,3.93) rotate(33.95) scale(0.880)">
        <path d="M0.0,-48.2 L14.2,-19.5 L45.8,-14.9 L22.9,7.4 L28.3,39.0 L0.0,24.1 L-28.3,39.0 L-22.9,7.4 L-45.8,-14.9 L-14.2,-19.5Z" fill="url(#rgrad1)" filter="url(#blur1)" opacity="0.20"/>
      </g>
      </g>
      </g>
      </g>
      </g>
      </g>
      </g>
  </g>
  <g transform="translate(310.9, 681.1)">
      <g transform="translate(-2.89,3.26) rotate(2.89) scale(1.000)">
        <g transform="translate(-0.58,3.80) rotate(7.29) scale(0.980)">
        <g transform="translate(1.87,4.00) rotate(12.75) scale(0.960)">
        <g transform="translate(3.86,3.84) rotate(18.76) scale(0.940)">
        <g transform="translate(4.91,3.34) rotate(24.70) scale(0.920)">
        <g transform="translate(4.76,2.54) rotate(29.97) scale(0.900)">
        <g transform="translate(3.44,1.51) rotate(33.95) scale(0.880)">
        <rect x="-22.9" y="-22.9" width="45.8" height="45.8" rx="11.5" fill="url(#rgrad2)" filter="url(#shadow)" opacity="0.29"/>
        <circle cx="0" cy="0" r="15.3" fill="url(#rgrad3)" opacity="0.20"/>
      </g>
      </g>
      </g>
      </g>
      </g>
      </g>
      </g>
  </g>
  <g transform="translate(518.3, 667.5)">
      <g transform="translate(1.87,3.71) rotate(2.89) scale(1.000)">
        <g transform="translate(3.86,3.10) rotate(7.29) scale(0.980)">
        <g transform="translate(4.91,2.22) rotate(12.75) scale(0.960)">
        <g transform="translate(4.76,1.13) rotate(18.76) scale(0.940)" clip-path="url(#clipRect)">
        <g transform="translate(3.44,-0.05) rotate(24.70) scale(0.920)">
        <g transform="translate(1.28,-1.23) rotate(29.97) scale(0.900)">
        <g transform="translate(-1.20,-2.30) rotate(33.95) scale(0.880)">
        <path d="M29.4,17.0 L0.0,33.9 L-29.4,17.0 L-29.4,-17.0 L-0.0,-33.9 L29.4,-17.0Z" fill="url(#lgrad3)" filter="url(#blur3)" opacity="0.39"/>
        <ellipse cx="0" cy="0" rx="14.1" ry="9.4" fill="#FFFFFF" opacity="0.20"/>
      </g>
      </g>
      </g>
      </g>
      </g>
      </g>
      </g>
  </g>
  <g transform="translate(731.0, 650.4)">
      <g transform="translate(4.91,0.75) rotate(2.89) scale(1.000)">
        <g transform="translate(4.76,-0.45) rotate(7.29) scale(0.980)">
        <g transform="translate(3.44,-1.60) rotate(12.75) scale(0.960)">
        <g transform="translate(1.28,-2.61) rotate(18.76) scale(0.940)">
        <g transform="translate(-1.20,-3.39) rotate(24.70) scale(0.920)">
        <g transform="translate(-3.38,-3.87) rotate(29.97) scale(0.900)" mask="url(#maskDynamic)">
        <g transform="translate(-4.73,-4.00) rotate(33.95) scale(0.880)">
        <circle cx="0" cy="0" r="35.2" fill="url(#rgrad4)" filter="url(#shadow)" opacity="0.51"/>
        <text x="0" y="5" text-anchor="middle" font-family="Arial, sans-serif" font-size="14" fill="#FFFFFF" opacity="0.51">197</text>
      </g>
      </g>
      </g>
      </g>
      </g>
      </g>
      </g>
  </g>
  <g transform="translate(950.8, 637.8)">
      <g transform="translate(3.44,-2.90) rotate(2.89) scale(1.000)">
        <g transform="translate(1.28,-3.59) rotate(7.29) scale(0.980)">
        <g transform="translate(-1.20,-3.95) rotate(12.75) scale(0.960)">
        <g transform="translate(-3.38,-3.96) rotate(18.76) scale(0.940)">
        <g transform="translate(-4.73,-3.62) rotate(24.70) scale(0.920)">
        <g transform="translate(-4.93,-2.95) rotate(29.97) scale(0.900)">
        <g transform="translate(-3.92,-2.02) rotate(33.95) scale(0.880)">
        <path d="M0.0,-74.7 L22.0,-30.2 L71.1,-23.1 L35.5,11.5 L43.9,60.4 L0.0,37.4 L-43.9,60.4 L-35.5,11.5 L-71.1,-23.1 L-22.0,-30.2Z" fill="url(#rgrad0)" filter="url(#blur0)" opacity="0.63"/>
      </g>
      </g>
      </g>
      </g>
      </g>
      </g>
      </g>
  </g>
  <g transform="translate(1177.8, 635.6)">
      <g transform="translate(-1.20,-3.88) rotate(2.89) scale(1.000)">
        <g transform="translate(-3.38,-3.43) rotate(7.29) scale(0.980)">
        <g transform="translate(-4.73,-2.67) rotate(12.75) scale(0.960)">
        <g transform="translate(-4.93,-1.66) rotate(18.76) scale(0.940)" clip-path="url(#clipStar)">
        <g transform="translate(-3.92,-0.52) rotate(24.70) scale(0.920)">
        <g transform="translate(-1.95,0.68) rotate(29.97) scale(0.900)">
        <g transform="translate(0.50,1.81) rotate(33.95) scale(0.880)">
        <rect x="-32.7" y="-32.7" width="65.5" height="65.5" rx="16.4" fill="url(#lgrad1)" filter="url(#shadow)" opacity="0.74"/>
        <circle cx="0" cy="0" r="21.8" fill="url(#rgrad2)" opacity="0.52"/>
      </g>
      </g>
      </g>
      </g>
      </g>
      </g>
      </g>
  </g>
  <g transform="translate(1410.2, 644.9)">
      <g transform="translate(-4.73,-1.29) rotate(2.89) scale(1.000)">
        <g transform="translate(-4.93,-0.12) rotate(7.29) scale(0.980)">
        <g transform="translate(-3.92,1.07) rotate(12.75) scale(0.960)">
        <g transform="translate(-1.95,2.16) rotate(18.76) scale(0.940)">
        <g transform="translate(0.50,3.06) rotate(24.70) scale(0.920)">
        <g transform="translate(2.82,3.68) rotate(29.97) scale(0.900)" mask="url(#maskStripes)">
        <g transform="translate(4.46,3.98) rotate(33.95) scale(0.880)">
        <path d="M26.6,15.4 L0.0,30.7 L-26.6,15.4 L-26.6,-15.4 L-0.0,-30.7 L26.6,-15.4Z" fill="url(#rgrad2)" filter="url(#blur2)" opacity="0.82"/>
        <ellipse cx="0" cy="0" rx="12.8" ry="8.5" fill="#FFFFFF" opacity="0.41"/>
      </g>
      </g>
      </g>
      </g>
      </g>
      </g>
      </g>
  </g>
  <g transform="translate(1645.0, 661.3)">
      <g transform="translate(-3.92,2.49) rotate(2.89) scale(1.000)">
        <g transform="translate(-1.95,3.30) rotate(7.29) scale(0.980)">
        <g transform="translate(0.50,3.82) rotate(12.75) scale(0.960)">
        <g transform="translate(2.82,4.00) rotate(18.76) scale(0.940)">
        <g transform="translate(4.46,3.82) rotate(24.70) scale(0.920)">
        <g transform="translate(5.00,3.30) rotate(29.97) scale(0.900)">
        <g transform="translate(4.32,2.49) rotate(33.95) scale(0.880)">
        <circle cx="0" cy="0" r="22.5" fill="url(#rgrad3)" filter="url(#shadow)" opacity="0.88"/>
        <text x="0" y="5" text-anchor="middle" font-family="Arial, sans-serif" font-size="14" fill="#FFFFFF" opacity="0.88">197</text>
      </g>
      </g>
      </g>
      </g>
      </g>
      </g>
      </g>
  </g>
  <g transform="translate(118.5, 957.1)">
      <g transform="translate(0.50,3.98) rotate(2.89) scale(1.000)">
        <g transform="translate(2.82,3.68) rotate(7.29) scale(0.980)">
        <g transform="translate(4.46,3.06) rotate(12.75) scale(0.960)">
        <g transform="translate(5.00,2.16) rotate(18.76) scale(0.940)" clip-path="url(#clipDynamic)">
        <g transform="translate(4.32,1.07) rotate(24.70) scale(0.920)">
        <g transform="translate(2.58,-0.12) rotate(29.97) scale(0.900)">
        <g transform="translate(0.21,-1.29) rotate(33.95) scale(0.880)">
        <path d="M0.0,-52.6 L15.5,-21.3 L50.0,-16.3 L25.0,8.1 L30.9,42.5 L0.0,26.3 L-30.9,42.5 L-25.0,8.1 L-50.0,-16.3 L-15.5,-21.3Z" fill="url(#lgrad4)" filter="url(#blur4)" opacity="0.90"/>
      </g>
      </g>
      </g>
      </g>
      </g>
      </g>
      </g>
  </g>
  <g transform="translate(394.3, 326.5)" mask="url(#maskGradient)">
    <ellipse cx="0" cy="0" rx="200" ry="150" fill="url(#rgrad0)" filter="url(#blur3)" opacity="0.3"/>
  </g>
  <g transform="translate(878.9, 271.7)" mask="url(#maskCircleFade)">
    <ellipse cx="0" cy="0" rx="200" ry="150" fill="url(#rgrad1)" filter="url(#blur3)" opacity="0.3"/>
  </g>
  <g transform="translate(1290.9, 230.1)" mask="url(#maskStripes)">
    <ellipse cx="0" cy="0" rx="200" ry="150" fill="url(#rgrad2)" filter="url(#blur3)" opacity="0.3"/>
  </g>
</svg>