<?xml version="1.0" encoding="UTF-8"?>
<svg xmlns="http://www.w3.org/2000/svg" viewBox="0 0 1920 1080" width="1920" height="1080">
  <defs>
    <filter id="blur0" x="-50%" y="-50%" width="200%" height="200%">
      <feGaussianBlur in="SourceGraphic" stdDeviation="1"/>
    </filter>
    <filter id="blur1" x="-50%" y="-50%" width="200%" height="200%">
      <feGaussianBlur in="SourceGraphic" stdDeviation="3"/>
    </filter>
    <filter id="blur2" x="-50%" y="-50%" width="200%" height="200%">
      <feGaussianBlur in="SourceGraphic" stdDeviation="5"/>
    </filter>
    <filter id="blur3" x="-50%" y="-50%" width="200%" height="200%">
      <feGaussianBlur in="SourceGraphic" stdDeviation="7"/>
    </filter>
    <filter id="blur4" x="-50%" y="-50%" width="200%" height="200%">
      <feGaussianBlur in="SourceGraphic" stdDeviation="9"/>
    </filter>
    <filter id="shadow" x="-50%" y="-50%" width="200%" height="200%">
      <feGaussianBlur in="SourceAlpha" stdDeviation="3" result="blur"/>
      <feOffset in="blur" dx="4" dy="4" result="offsetBlur"/>
      <feMerge>
        <feMergeNode in="offsetBlur"/>
        <feMergeNode in="SourceGraphic"/>
      </feMerge>
    </filter>
    <linearGradient id="lgrad0" x1="0%" y1="0%" x2="52.2%" y2="100.0%">
      <stop offset="0%" stop-color="#FF6B6B"/>
      <stop offset="33%" stop-color="#4ECDC4"/>
      <stop offset="66%" stop-color="#45B7D1"/>
      <stop offset="100%" stop-color="#96E6A1"/>
    </linearGradient>
    <linearGradient id="lgrad1" x1="0%" y1="0%" x2="26.9%" y2="94.4%">
      <stop offset="0%" stop-color="#FFE66D"/>
      <stop offset="33%" stop-color="#FF6B6B"/>
      <stop offset="66%" stop-color="#C44D58"/>
      <stop offset="100%" stop-color="#8B0000"/>
    </linearGradient>
    <linearGradient id="lgrad2" x1="0%" y1="0%" x2="7.8%" y2="76.9%">
      <stop offset="0%" stop-color="#4169E1"/>
      <stop offset="33%" stop-color="#7B68EE"/>
      <stop offset="66%" stop-color="#9370DB"/>
      <stop offset="100%" stop-color="#FFD700"/>
    </linearGradient>
    <linearGradient id="lgrad3" x1="0%" y1="0%" x2="0.0%" y2="52.2%">
      <stop offset="0%" stop-color="#32CD32"/>
      <stop offset="33%" stop-color="#228B22"/>
      <stop offset="66%" stop-color="#006400"/>
      <stop offset="100%" stop-color="#ADFF2F"/>
    </linearGradient>
    <linearGradient id="lgrad4" x1="0%" y1="0%" x2="5.6%" y2="26.9%">
      <stop offset="0%" stop-color="#FF1493"/>
      <stop offset="33%" stop-color="#FF69B4"/>
      <stop offset="66%" stop-color="#FFB6C1"/>
      <stop offset="100%" stop-color="#FFC0CB"/>
    </linearGradient>
    <radialGradient id="rgrad0" cx="31.5%" cy="31.0%" r="60%">
      <stop offset="0%" stop-color="#FF6B6B" stop-opacity="1"/>
      <stop offset="50%" stop-color="#4ECDC4" stop-opacity="0.8"/>
      <stop offset="100%" stop-color="#45B7D1" stop-opacity="0.6"/>
    </radialGradient>
    <radialGradient id="rgrad1" cx="41.5%" cy="39.0%" r="60%">
      <stop offset="0%" stop-color="#FFE66D" stop-opacity="1"/>
      <stop offset="50%" stop-color="#FF6B6B" stop-opacity="0.8"/>
      <stop offset="100%" stop-color="#C44D58" stop-opacity="0.6"/>
    </radialGradient>
    <radialGradient id="rgrad2" cx="51.5%" cy="47.0%" r="60%">
      <stop offset="0%" stop-color="#4169E1" stop-opacity="1"/>
      <stop offset="50%" stop-color="#7B68EE" stop-opacity="0.8"/>
      <stop offset="100%" stop-color="#9370DB" stop-opacity="0.6"/>
    </radialGradient>
    <radialGradient id="rgrad3" cx="61.5%" cy="55.0%" r="60%">
      <stop offset="0%" stop-color="#32CD32" stop-opacity="1"/>
      <stop offset="50%" stop-color="#228B22" stop-opacity="0.8"/>
      <stop offset="100%" stop-color="#006400" stop-opacity="0.6"/>
    </radialGradient>
    <radialGradient id="rgrad4" cx="31.5%" cy="63.0%" r="60%">
      <stop offset="0%" stop-color="#FF1493" stop-opacity="1"/>
      <stop offset="50%" stop-color="#FF69B4" stop-opacity="0.8"/>
      <stop offset="100%" stop-color="#FFB6C1" stop-opacity="0.6"/>
    </radialGradient>
    <clipPath id="clipCircle">
      <circle cx="0" cy="0" r="50"/>
    </clipPath>
    <clipPath id="clipStar">
      <path d="M0.0,-50.0 L14.7,-20.2 L47.6,-15.5 L23.8,7.7 L29.4,40.5 L0.0,25.0 L-29.4,40.5 L-23.8,7.7 L-47.6,-15.5 L-14.7,-20.2Z"/>
    </clipPath>
    <clipPath id="clipHex">
      <path d="M39.0,22.5 L0.0,45.0 L-39.0,22.5 L-39.0,-22.5 L-0.0,-45.0 L39.0,-22.5Z"/>
    </clipPath>
    <clipPath id="clipRect">
      <rect x="-40" y="-30" width="80" height="60" rx="10"/>
    </clipPath>
    <clipPath id="clipDynamic">
      <circle cx="0" cy="0" r="20.9"/>
    </clipPath>
    <mask id="maskGradient" maskContentUnits="objectBoundingBox">
      <rect x="0" y="0" width="1" height="1" fill="url(#maskGrad)"/>
    </mask>
    <linearGradient id="maskGrad" x1="0%" y1="0%" x2="100%" y2="100%">
      <stop offset="0%" stop-color="white"/>
      <stop offset="100%" stop-color="black"/>
    </linearGradient>
    <mask id="maskCircleFade">
      <circle cx="0" cy="0" r="60" fill="white"/>
      <circle cx="0" cy="0" r="30" fill="black"/>
    </mask>
    <mask id="maskStripes">
      <rect x="-50" y="-50" width="100" height="100" fill="white"/>
      <rect x="-50" y="-40" width="100" height="10" fill="black"/>
      <rect x="-50" y="-20" width="100" height="10" fill="black"/>
      <rect x="-50" y="0" width="100" height="10" fill="black"/>
      <rect x="-50" y="20" width="100" height="10" fill="black"/>
      <rect x="-50" y="40" width="100" height="10" fill="black"/>
    </mask>
    <mask id="maskDynamic">
      <rect x="-60" y="-60" width="120" height="120" fill="white" fill-opacity="0.70"/>
      <circle cx="0" cy="0" r="25" fill="white"/>
    </mask>
  </defs>
  <rect width="1920" height="1080" fill="url(#lgrad0)"/>
  <g transform="translate(71.8, 108.4)">
      <g transform="translate(-4.71,1.35) rotate(2.88) scale(1.000)">
        <g transform="translate(-3.32,2.40) rotate(4.02) scale(0.980)">
        <g transform="translate(-1.12,3.24) rotate(3.17) scale(0.960)">
        <g transform="translate(1.35,3.79) rotate(0.26) scale(0.940)" clip-path="url(#clipCircle)">
        <g transform="translate(3.49,4.00) rotate(-4.64) scale(0.920)">
        <g transform="translate(4.78,3.85) rotate(-11.32) scale(0.900)">
        <g transform="translate(4.90,3.36) rotate(-19.38) scale(0.880)">
        <path d="M0.0,-68.6 L20.2,-27.8 L65.3,-21.2 L32.6,10.6 L40.3,55.5 L0.0,34.3 L-40.3,55.5 L-32.6,10.6 L-65.3,-21.2 L-20.2,-27.8Z" fill="url(#lgrad0)" filter="url(#blur0)" opacity="0.73"/>
      </g>
      </g>
      </g>
      </g>
      </g>
      </g>
      </g>
  </g>
  <g transform="translate(300.1, 121.6)">
      <g transform="translate(-1.12,3.90) rotate(2.88) scale(1.000)">
        <g transform="translate(1.35,3.99) rotate(4.02) scale(0.980)">
        <g transform="translate(3.49,3.72) rotate(3.17) scale(0.960)">
        <g transform="translate(4.78,3.13) rotate(0.26) scale(0.940)">
        <g transform="translate(4.90,2.25) rotate(-4.64) scale(0.920)">
        <g transform="translate(3.82,1.17) rotate(-11.32) scale(0.900)" mask="url(#maskCircleFade)">
        <g transform="translate(1.80,-0.01) rotate(-19.38) scale(0.880)">
        <rect x="-27.2" y="-27.2" width="54.3" height="54.3" rx="13.6" fill="url(#rgrad1)" filter="url(#shadow)" opacity="0.62"/>
        <circle cx="0" cy="0" r="18.1" fill="url(#rgrad2)" opacity="0.44"/>
      </g>
      </g>
      </g>
      </g>
      </g>
      </g>
      </g>
  </g>
  <g transform="translate(533.3, 124.6)">
      <g transform="translate(3.49,2.86) rotate(2.88) scale(1.000)">
        <g transform="translate(4.78,1.91) rotate(4.02) scale(0.980)">
        <g transform="translate(4.90,0.78) rotate(3.17) scale(0.960)">
        <g transform="translate(3.82,-0.41) rotate(0.26) scale(0.940)">
        <g transform="translate(1.80,-1.57) rotate(-4.64) scale(0.920)">
        <g transform="translate(-0.66,-2.59) rotate(-11.32) scale(0.900)">
        <g transform="translate(-2.95,-3.37) rotate(-19.38) scale(0.880)">
        <path d="M23.5,13.6 L0.0,27.2 L-23.5,13.6 L-23.5,-13.6 L-0.0,-27.2 L23.5,-13.6Z" fill="url(#rgrad2)" filter="url(#blur2)" opacity="0.51"/>
        <ellipse cx="0" cy="0" rx="11.3" ry="7.5" fill="#FFFFFF" opacity="0.25"/>
      </g>
      </g>
      </g>
      </g>
      </g>
      </g>
      </g>
  </g>
  <g transform="translate(768.1, 116.1)">
      <g transform="translate(4.90,-0.81) rotate(2.88) scale(1.000)">
        <g transform="translate(3.82,-1.93) rotate(4.02) scale(0.980)">
        <g transform="translate(1.80,-2.88) rotate(3.17) scale(0.960)">
        <g transform="translate(-0.66,-3.57) rotate(0.26) scale(0.940)" clip-path="url(#clipRect)">
        <g transform="translate(-2.95,-3.94) rotate(-4.64) scale(0.920)">
        <g transform="translate(-4.53,-3.97) rotate(-11.32) scale(0.900)">
        <g transform="translate(-4.99,-3.63) rotate(-19.38) scale(0.880)">
        <circle cx="0" cy="0" r="24.9" fill="url(#lgrad3)" filter="url(#shadow)" opacity="0.39"/>
        <text x="0" y="5" text-anchor="middle" font-family="Arial, sans-serif" font-size="14" fill="#FFFFFF" opacity="0.39">805</text>
      </g>
      </g>
      </g>
      </g>
      </g>
      </g>
      </g>
  </g>
  <g transform="translate(1001.0, 99.9)">
      <g transform="translate(1.80,-3.73) rotate(2.88) scale(1.000)">
        <g transform="translate(-0.66,-3.99) rotate(4.02) scale(0.980)">
        <g transform="translate(-2.95,-3.89) rotate(3.17) scale(0.960)">
        <g transform="translate(-4.53,-3.45) rotate(0.26) scale(0.940)">
        <g transform="translate(-4.99,-2.69) rotate(-4.64) scale(0.920)">
        <g transform="translate(-4.23,-1.70) rotate(-11.32) scale(0.900)" mask="url(#maskGradient)">
        <g transform="translate(-2.44,-0.55) rotate(-19.38) scale(0.880)">
        <path d="M0.0,-63.6 L18.7,-25.7 L60.5,-19.7 L30.3,9.8 L37.4,51.5 L0.0,31.8 L-37.4,51.5 L-30.3,9.8 L-60.5,-19.7 L-18.7,-25.7Z" fill="url(#rgrad4)" filter="url(#blur4)" opacity="0.28"/>
      </g>
      </g>
      </g>
      </g>
      </g>
      </g>
      </g>
  </g>
  <g transform="translate(1228.7, 83.8)">
      <g transform="translate(-2.95,-3.23) rotate(2.88) scale(1.000)">
        <g transform="translate(-4.53,-2.39) rotate(4.02) scale(0.980)">
        <g transform="translate(-4.99,-1.33) rotate(3.17) scale(0.960)">
        <g transform="translate(-4.23,-0.16) rotate(0.26) scale(0.940)">
        <g transform="translate(-2.44,1.03) rotate(-4.64) scale(0.920)">
        <g transform="translate(-0.05,2.13) rotate(-11.32) scale(0.900)">
        <g transform="translate(2.35,3.03) rotate(-19.38) scale(0.880)">
        <rect x="-37.1" y="-37.1" width="74.2" height="74.2" rx="18.6" fill="url(#rgrad0)" filter="url(#shadow)" opacity="0.19"/>
        <circle cx="0" cy="0" r="24.7" fill="url(#rgrad1)" opacity="0.13"/>
      </g>
      </g>
      </g>
      </g>
      </g>
      </g>
      </g>
  </g>
  <g transform="translate(1449.4, 75.4)">
      <g transform="translate(-4.99,0.24) rotate(2.88) scale(1.000)">
        <g transform="translate(-4.23,1.41) rotate(4.02) scale(0.980)">
        <g transform="translate(-2.44,2.46) rotate(3.17) scale(0.960)">
        <g transform="translate(-0.05,3.28) rotate(0.26) scale(0.940)" clip-path="url(#clipStar)">
        <g transform="translate(2.35,3.81) rotate(-4.64) scale(0.920)">
        <g transform="translate(4.18,4.00) rotate(-11.32) scale(0.900)">
        <g transform="translate(4.98,3.83) rotate(-19.38) scale(0.880)">
        <path d="M37.3,21.5 L0.0,43.0 L-37.3,21.5 L-37.3,-21.5 L-0.0,-43.0 L37.3,-21.5Z" fill="url(#lgrad1)" filter="url(#blur1)" opacity="0.13"/>
        <ellipse cx="0" cy="0" rx="17.9" ry="12.0" fill="#FFFFFF" opacity="0.06"/>
      </g>
      </g>
      </g>
      </g>
      </g>
      </g>
      </g>
  </g>
  <g transform="translate(1662.9, 78.5)">
      <g transform="translate(-2.44,3.49) rotate(2.88) scale(1.000)">
        <g transform="translate(-0.05,3.91) rotate(4.02) scale(0.980)">
        <g transform="translate(2.35,3.98) rotate(3.17) scale(0.960)">
        <g transform="translate(4.18,3.70) rotate(0.26) scale(0.940)">
        <g transform="translate(4.98,3.08) rotate(-4.64) scale(0.920)">
        <g transform="translate(4.57,2.19) rotate(-11.32) scale(0.900)" mask="url(#maskDynamic)">
        <g transform="translate(3.03,1.11) rotate(-19.38) scale(0.880)">
        <circle cx="0" cy="0" r="29.2" fill="url(#rgrad2)" filter="url(#shadow)" opacity="0.10"/>
        <text x="0" y="5" text-anchor="middle" font-family="Arial, sans-serif" font-size="14" fill="#FFFFFF" opacity="0.10">805</text>
      </g>
      </g>
      </g>
      </g>
      </g>
      </g>
      </g>
  </g>
  <g transform="translate(110.8, 371.7)">
      <g transform="translate(2.35,3.53) rotate(2.88) scale(1.000)">
        <g transform="translate(4.18,2.81) rotate(4.02) scale(0.980)">
        <g transform="translate(4.98,1.85) rotate(3.17) scale(0.960)">
        <g transform="translate(4.57,0.72) rotate(0.26) scale(0.940)">
        <g transform="translate(3.03,-0.48) rotate(-4.64) scale(0.920)">
        <g transform="translate(0.75,-1.63) rotate(-11.32) scale(0.900)">
        <g transform="translate(-1.71,-2.64) rotate(-19.38) scale(0.880)">
        <path d="M0.0,-46.6 L13.7,-18.9 L44.3,-14.4 L22.2,7.2 L27.4,37.7 L0.0,23.3 L-27.4,37.7 L-22.2,7.2 L-44.3,-14.4 L-13.7,-18.9Z" fill="url(#rgrad3)" filter="url(#blur3)" opacity="0.11"/>
      </g>
      </g>
      </g>
      </g>
      </g>
      </g>
      </g>
  </g>
  <g transform="translate(316.1, 388.8)">
      <g transform="translate(4.98,0.32) rotate(2.88) scale(1.000)">
        <g transform="translate(4.57,-0.87) rotate(4.02) scale(0.980)">
        <g transform="translate(3.03,-1.99) rotate(3.17) scale(0.960)">
        <g transform="translate(0.75,-2.92) rotate(0.26) scale(0.940)" clip-path="url(#clipDynamic)">
        <g transform="translate(-1.71,-3.60) rotate(-4.64) scale(0.920)">
        <g transform="translate(-3.75,-3.95) rotate(-11.32) scale(0.900)">
        <g transform="translate(-4.88,-3.96) rotate(-19.38) scale(0.880)">
        <rect x="-23.5" y="-23.5" width="47.1" height="47.1" rx="11.8" fill="url(#lgrad4)" filter="url(#shadow)" opacity="0.15"/>
        <circle cx="0" cy="0" r="15.7" fill="url(#rgrad0)" opacity="0.11"/>
      </g>
      </g>
      </g>
      </g>
      </g>
      </g>
      </g>
  </g>
  <g transform="translate(522.3, 401.8)">
      <g transform="translate(3.03,-3.18) rotate(2.88) scale(1.000)">
        <g transform="translate(0.75,-3.76) rotate(4.02) scale(0.980)">
        <g transform="translate(-1.71,-3.99) rotate(3.17) scale(0.960)">
        <g transform="translate(-3.75,-3.88) rotate(0.26) scale(0.940)">
        <g transform="translate(-4.88,-3.41) rotate(-4.64) scale(0.920)">
        <g transform="translate(-4.81,-2.64) rotate(-11.32) scale(0.900)" mask="url(#maskStripes)">
        <g transform="translate(-3.56,-1.64) rotate(-19.38) scale(0.880)">
        <path d="M30.9,17.8 L0.0,35.7 L-30.9,17.8 L-30.9,-17.8 L-0.0,-35.7 L30.9,-17.8Z" fill="url(#rgrad0)" filter="url(#blur0)" opacity="0.23"/>
        <ellipse cx="0" cy="0" rx="14.9" ry="9.9" fill="#FFFFFF" opacity="0.11"/>
      </g>
      </g>
      </g>
      </g>
      </g>
      </g>
      </g>
  </g>
  <g transform="translate(732.8, 404.5)">
      <g transform="translate(-1.71,-3.76) rotate(2.88) scale(1.000)">
        <g transform="translate(-3.75,-3.19) rotate(4.02) scale(0.980)">
        <g transform="translate(-4.88,-2.33) rotate(3.17) scale(0.960)">
        <g transform="translate(-4.81,-1.27) rotate(0.26) scale(0.940)">
        <g transform="translate(-3.56,-0.09) rotate(-4.64) scale(0.920)">
        <g transform="translate(-1.44,1.10) rotate(-11.32) scale(0.900)">
        <g transform="translate(1.03,2.19) rotate(-19.38) scale(0.880)">
        <circle cx="0" cy="0" r="36.2" fill="url(#rgrad1)" filter="url(#shadow)" opacity="0.32"/>
        <text x="0" y="5" text-anchor="middle" font-family="Arial, sans-serif" font-size="14" fill="#FFFFFF" opacity="0.32">805</text>
      </g>
      </g>
      </g>
      </g>
      </g>
      </g>
      </g>
  </g>
  <g transform="translate(950.1, 395.7)">
      <g transform="translate(-4.88,-0.88) rotate(2.88) scale(1.000)">
        <g transform="translate(-4.81,0.31) rotate(4.02) scale(0.980)">
        <g transform="translate(-3.56,1.48) rotate(3.17) scale(0.960)">
        <g transform="translate(-1.44,2.51) rotate(0.26) scale(0.940)" clip-path="url(#clipHex)">
        <g transform="translate(1.03,3.32) rotate(-4.64) scale(0.920)">
        <g transform="translate(3.25,3.83) rotate(-11.32) scale(0.900)">
        <g transform="translate(4.67,4.00) rotate(-19.38) scale(0.880)">
        <path d="M0.0,-73.9 L21.7,-29.9 L70.3,-22.8 L35.1,11.4 L43.4,59.8 L0.0,36.9 L-43.4,59.8 L-35.1,11.4 L-70.3,-22.8 L-21.7,-29.9Z" fill="url(#lgrad2)" filter="url(#blur2)" opacity="0.44"/>
      </g>
      </g>
      </g>
      </g>
      </g>
      </g>
      </g>
  </g>
  <g transform="translate(1174.6, 379.5)">
      <g transform="translate(-3.56,2.81) rotate(2.88) scale(1.000)">
        <g transform="translate(-1.44,3.52) rotate(4.02) scale(0.980)">
        <g transform="translate(1.03,3.93) rotate(3.17) scale(0.960)">
        <g transform="translate(3.25,3.98) rotate(0.26) scale(0.940)">
        <g transform="translate(4.67,3.67) rotate(-4.64) scale(0.920)">
        <g transform="translate(4.95,3.04) rotate(-11.32) scale(0.900)" mask="url(#maskCircleFade)">
        <g transform="translate(4.02,2.14) rotate(-19.38) scale(0.880)">
        <rect x="-31.3" y="-31.3" width="62.7" height="62.7" rx="15.7" fill="url(#rgrad3)" filter="url(#shadow)" opacity="0.56"/>
        <circle cx="0" cy="0" r="20.9" fill="url(#rgrad4)" opacity="0.39"/>
      </g>
      </g>
      </g>
      </g>
      </g>
      </g>
      </g>
  </g>
  <g transform="translate(1405.4, 363.5)">
      <g transform="translate(1.03,3.91) rotate(2.88) scale(1.000)">
        <g transform="translate(3.25,3.50) rotate(4.02) scale(0.980)">
        <g transform="translate(4.67,2.77) rotate(3.17) scale(0.960)">
        <g transform="translate(4.95,1.79) rotate(0.26) scale(0.940)">
        <g transform="translate(4.02,0.65) rotate(-4.64) scale(0.920)">
        <g transform="translate(2.10,-0.54) rotate(-11.32) scale(0.900)">
        <g transform="translate(-0.33,-1.69) rotate(-19.38) scale(0.880)">
        <path d="M25.5,14.7 L0.0,29.4 L-25.5,14.7 L-25.5,-14.7 L-0.0,-29.4 L25.5,-14.7Z" fill="url(#rgrad4)" filter="url(#blur4)" opacity="0.67"/>
        <ellipse cx="0" cy="0" rx="12.3" ry="8.2" fill="#FFFFFF" opacity="0.34"/>
      </g>
      </g>
      </g>
      </g>
      </g>
      </g>
      </g>
  </g>
  <g transform="translate(1639.7, 355.3)">
      <g transform="translate(4.67,1.42) rotate(2.88) scale(1.000)">
        <g transform="translate(4.95,0.25) rotate(4.02) scale(0.980)">
        <g transform="translate(4.02,-0.94) rotate(3.17) scale(0.960)">
        <g transform="translate(2.10,-2.04) rotate(0.26) scale(0.940)" clip-path="url(#clipCircle)">
        <g transform="translate(-0.33,-2.97) rotate(-4.64) scale(0.920)">
        <g transform="translate(-2.68,-3.63) rotate(-11.32) scale(0.900)">
        <g transform="translate(-4.38,-3.96) rotate(-19.38) scale(0.880)">
        <circle cx="0" cy="0" r="22.7" fill="url(#lgrad0)" filter="url(#shadow)" opacity="0.77"/>
        <text x="0" y="5" text-anchor="middle" font-family="Arial, sans-serif" font-size="14" fill="#FFFFFF" opacity="0.77">805</text>
      </g>
      </g>
      </g>
      </g>
      </g>
      </g>
      </g>
  </g>
  <g transform="translate(114.1, 638.7)">
      <g transform="translate(4.02,-2.38) rotate(2.88) scale(1.000)">
        <g transform="translate(2.10,-3.22) rotate(4.02) scale(0.980)">
        <g transform="translate(-0.33,-3.78) rotate(3.17) scale(0.960)">
        <g transform="translate(-2.68,-4.00) rotate(0.26) scale(0.940)">
        <g transform="translate(-4.38,-3.86) rotate(-4.64) scale(0.920)">
        <g transform="translate(-5.00,-3.38) rotate(-11.32) scale(0.900)" mask="url(#maskGradient)">
        <g transform="translate(-4.40,-2.59) rotate(-19.38) scale(0.880)">
        <path d="M0.0,-55.3 L16.2,-22.4 L52.6,-17.1 L26.3,8.5 L32.5,44.7 L0.0,27.6 L-32.5,44.7 L-26.3,8.5 L-52.6,-17.1 L-16.2,-22.4Z" fill="url(#rgrad1)" filter="url(#blur1)" opacity="0.85"/>
      </g>
      </g>
      </g>
      </g>
      </g>
      </g>
      </g>
  </g>
  <g transform="translate(345.1, 652.1)">
      <g transform="translate(-0.33,-3.99) rotate(2.88) scale(1.000)">
        <g transform="translate(-2.68,-3.74) rotate(4.02) scale(0.980)">
        <g transform="translate(-4.38,-3.15) rotate(3.17) scale(0.960)">
        <g transform="translate(-5.00,-2.28) rotate(0.26) scale(0.940)">
        <g transform="translate(-4.40,-1.20) rotate(-4.64) scale(0.920)">
        <g transform="translate(-2.72,-0.02) rotate(-11.32) scale(0.900)">
        <g transform="translate(-0.38,1.16) rotate(-19.38) scale(0.880)">
        <rect x="-34.7" y="-34.7" width="69.4" height="69.4" rx="17.4" fill="url(#rgrad2)" filter="url(#shadow)" opacity="0.89"/>
        <circle cx="0" cy="0" r="23.1" fill="url(#rgrad3)" opacity="0.62"/>
      </g>
      </g>
      </g>
      </g>
      </g>
      </g>
      </g>
  </g>
  <g transform="translate(569.9, 669.2)">
      <g transform="translate(-4.38,-1.94) rotate(2.88) scale(1.000)">
        <g transform="translate(-5.00,-0.82) rotate(4.02) scale(0.980)">
        <g transform="translate(-4.40,0.38) rotate(3.17) scale(0.960)">
        <g transform="translate(-2.72,1.54) rotate(0.26) scale(0.940)" clip-path="url(#clipRect)">
        <g transform="translate(-0.38,2.56) rotate(-4.64) scale(0.920)">
        <g transform="translate(2.06,3.35) rotate(-11.32) scale(0.900)">
        <g transform="translate(3.99,3.85) rotate(-19.38) scale(0.880)">
        <path d="M38.9,22.5 L0.0,44.9 L-38.9,22.5 L-38.9,-22.5 L-0.0,-44.9 L38.9,-22.5Z" fill="url(#lgrad3)" filter="url(#blur3)" opacity="0.90"/>
        <ellipse cx="0" cy="0" rx="18.7" ry="12.5" fill="#FFFFFF" opacity="0.45"/>
      </g>
      </g>
      </g>
      </g>
      </g>
      </g>
      </g>
  </g>
  <g transform="translate(787.4, 682.0)">
      <g transform="translate(-4.40,1.90) rotate(2.88) scale(1.000)">
        <g transform="translate(-2.72,2.85) rotate(4.02) scale(0.980)">
        <g transform="translate(-0.38,3.56) rotate(3.17) scale(0.960)">
        <g transform="translate(2.06,3.94) rotate(0.26) scale(0.940)">
        <g transform="translate(3.99,3.97) rotate(-4.64) scale(0.920)">
        <g transform="translate(4.95,3.65) rotate(-11.32) scale(0.900)" mask="url(#maskDynamic)">
        <g transform="translate(4.69,3.00) rotate(-19.38) scale(0.880)">
        <circle cx="0" cy="0" r="33.3" fill="url(#rgrad4)" filter="url(#shadow)" opacity="0.87"/>
        <text x="0" y="5" text-anchor="middle" font-family="Arial, sans-serif" font-size="14" fill="#FFFFFF" opacity="0.87">805</text>
      </g>
      </g>
      </g>
      </g>
      </g>
      </g>
      </g>
  </g>
  <g transform="translate(998.2, 684.5)">
      <g transform="translate(-0.38,3.99) rotate(2.88) scale(1.000)">
        <g transform="translate(2.06,3.90) rotate(4.02) scale(0.980)">
        <g transform="translate(3.99,3.46) rotate(3.17) scale(0.960)">
        <g transform="translate(4.95,2.72) rotate(0.26) scale(0.940)">
        <g transform="translate(4.69,1.73) rotate(-4.64) scale(0.920)">
        <g transform="translate(3.29,0.59) rotate(-11.32) scale(0.900)">
        <g transform="translate(1.08,-0.61) rotate(-19.38) scale(0.880)">
        <path d="M0.0,-52.3 L15.4,-21.2 L49.8,-16.2 L24.9,8.1 L30.8,42.3 L0.0,26.2 L-30.8,42.3 L-24.9,8.1 L-49.8,-16.2 L-15.4,-21.2Z" fill="url(#rgrad0)" filter="url(#blur0)" opacity="0.81"/>
      </g>
      </g>
      </g>
      </g>
      </g>
      </g>
      </g>
  </g>
  <g transform="translate(1204.5, 675.4)">
      <g transform="translate(3.99,2.41) rotate(2.88) scale(1.000)">
        <g transform="translate(4.95,1.36) rotate(4.02) scale(0.980)">
        <g transform="translate(4.69,0.19) rotate(3.17) scale(0.960)">
        <g transform="translate(3.29,-1.00) rotate(0.26) scale(0.940)" clip-path="url(#clipStar)">
        <g transform="translate(1.08,-2.10) rotate(-4.64) scale(0.920)">
        <g transform="translate(-1.39,-3.01) rotate(-11.32) scale(0.900)">
        <g transform="translate(-3.52,-3.66) rotate(-19.38) scale(0.880)">
        <rect x="-22.5" y="-22.5" width="45.0" height="45.0" rx="11.3" fill="url(#lgrad1)" filter="url(#shadow)" opacity="0.72"/>
        <circle cx="0" cy="0" r="15.0" fill="url(#rgrad2)" opacity="0.51"/>
      </g>
      </g>
      </g>
      </g>
      </g>
      </g>
      </g>
  </g>
  <g transform="translate(1409.7, 659.1)">
      <g transform="translate(4.69,-1.38) rotate(2.88) scale(1.000)">
        <g transform="translate(3.29,-2.43) rotate(4.02) scale(0.980)">
        <g transform="translate(1.08,-3.26) rotate(3.17) scale(0.960)">
        <g transform="translate(-1.39,-3.80) rotate(0.26) scale(0.940)">
        <g transform="translate(-3.52,-4.00) rotate(-4.64) scale(0.920)">
        <g transform="translate(-4.79,-3.84) rotate(-11.32) scale(0.900)" mask="url(#maskStripes)">
        <g transform="translate(-4.89,-3.34) rotate(-19.38) scale(0.880)">
        <path d="M26.7,15.4 L0.0,30.9 L-26.7,15.4 L-26.7,-15.4 L-0.0,-30.9 L26.7,-15.4Z" fill="url(#rgrad2)" filter="url(#blur2)" opacity="0.62"/>
        <ellipse cx="0" cy="0" rx="12.9" ry="8.6" fill="#FFFFFF" opacity="0.31"/>
      </g>
      </g>
      </g>
      </g>
      </g>
      </g>
      </g>
  </g>
  <g transform="translate(1617.5, 643.2)">
      <g transform="translate(1.08,-3.91) rotate(2.88) scale(1.000)">
        <g transform="translate(-1.39,-3.99) rotate(4.02) scale(0.980)">
        <g transform="translate(-3.52,-3.71) rotate(3.17) scale(0.960)">
        <g transform="translate(-4.79,-3.10) rotate(0.26) scale(0.940)">
        <g transform="translate(-4.89,-2.22) rotate(-4.64) scale(0.920)">
        <g transform="translate(-3.79,-1.14) rotate(-11.32) scale(0.900)">
        <g transform="translate(-1.76,0.05) rotate(-19.38) scale(0.880)">
        <circle cx="0" cy="0" r="32.9" fill="url(#rgrad3)" filter="url(#shadow)" opacity="0.50"/>
        <text x="0" y="5" text-anchor="middle" font-family="Arial, sans-serif" font-size="14" fill="#FFFFFF" opacity="0.50">805</text>
      </g>
      </g>
      </g>
      </g>
      </g>
      </g>
      </g>
  </g>
  <g transform="translate(70.7, 915.2)">
      <g transform="translate(-3.52,-2.84) rotate(2.88) scale(1.000)">
        <g transform="translate(-4.79,-1.88) rotate(4.02) scale(0.980)">
        <g transform="translate(-4.89,-0.75) rotate(3.17) scale(0.960)">
        <g transform="translate(-3.79,0.45) rotate(0.26) scale(0.940)" clip-path="url(#clipDynamic)">
        <g transform="translate(-1.76,1.60) rotate(-4.64) scale(0.920)">
        <g transform="translate(0.70,2.61) rotate(-11.32) scale(0.900)">
        <g transform="translate(2.99,3.39) rotate(-19.38) scale(0.880)">
        <path d="M0.0,-74.8 L22.0,-30.2 L71.1,-23.1 L35.6,11.6 L43.9,60.5 L0.0,37.4 L-43.9,60.5 L-35.6,11.6 L-71.1,-23.1 L-22.0,-30.2Z" fill="url(#lgrad4)" filter="url(#blur4)" opacity="0.38"/>
      </g>
      </g>
      </g>
      </g>
      </g>
      </g>
      </g>
  </g>
  <g transform="translate(205.9, 327.0)" mask="url(#maskGradient)">
    <ellipse cx="0" cy="0" rx="200" ry="150" fill="url(#rgrad0)" filter="url(#blur3)" opacity="0.3"/>
  </g>
  <g transform="translate(777.5, 369.2)" mask="url(#maskCircleFade)">
    <ellipse cx="0" cy="0" rx="200" ry="150" fill="url(#rgrad1)" filter="url(#blur3)" opacity="0.3"/>
  </g>
  <g transform="translate(1369.9, 378.8)" mask="url(#maskStripes)">
    <ellipse cx="0" cy="0" rx="200" ry="150" fill="url(#rgrad2)" filter="url(#blur3)" opacity="0.3"/>
  </g>
</svg>