<?xml version="1.0" encoding="UTF-8"?>
<svg xmlns="http://www.w3.org/2000/svg" viewBox="0 0 1920 1080" width="1920" height="1080">
  <defs>
    <filter id="blur0" x="-50%" y="-50%" width="200%" height="200%">
      <feGaussianBlur in="SourceGraphic" stdDeviation="1"/>
    </filter>
    <filter id="blur1" x="-50%" y="-50%" width="200%" height="200%">
      <feGaussianBlur in="SourceGraphic" stdDeviation="3"/>
    </filter>
    <filter id="blur2" x="-50%" y="-50%" width="200%" height="200%">
      <feGaussianBlur in="SourceGraphic" stdDeviation="5"/>
    </filter>
    <filter id="blur3" x="-50%" y="-50%" width="200%" height="200%">
      <feGaussianBlur in="SourceGraphic" stdDeviation="7"/>
    </filter>
    <filter id="blur4" x="-50%" y="-50%" width="200%" height="200%">
      <feGaussianBlur in="SourceGraphic" stdDeviation="9"/>
    </filter>
    <filter id="shadow" x="-50%" y="-50%" width="200%" height="200%">
      <feGaussianBlur in="SourceAlpha" stdDeviation="3" result="blur"/>
      <feOffset in="blur" dx="4" dy="4" result="offsetBlur"/>
      <feMerge>
        <feMergeNode in="offsetBlur"/>
        <feMergeNode in="SourceGraphic"/>
      </feMerge>
    </filter>
    <linearGradient id="lgrad0" x1="0%" y1="0%" x2="0.6%" y2="57.8%">
      <stop offset="0%" stop-color="#FF6B6B"/>
      <stop offset="33%" stop-color="#4ECDC4"/>
      <stop offset="66%" stop-color="#45B7D1"/>
      <stop offset="100%" stop-color="#96E6A1"/>
    </linearGradient>
    <linearGradient id="lgrad1" x1="0%" y1="0%" x2="3.3%" y2="32.1%">
      <stop offset="0%" stop-color="#FFE66D"/>
      <stop offset="33%" stop-color="#FF6B6B"/>
      <stop offset="66%" stop-color="#C44D58"/>
      <stop offset="100%" stop-color="#8B0000"/>
    </linearGradient>
    <linearGradient id="lgrad2" x1="0%" y1="0%" x2="18.5%" y2="11.1%">
      <stop offset="0%" stop-color="#4169E1"/>
      <stop offset="33%" stop-color="#7B68EE"/>
      <stop offset="66%" stop-color="#9370DB"/>
      <stop offset="100%" stop-color="#FFD700"/>
    </linearGradient>
    <linearGradient id="lgrad3" x1="0%" y1="0%" x2="42.2%" y2="0.6%">
      <stop offset="0%" stop-color="#32CD32"/>
      <stop offset="33%" stop-color="#228B22"/>
      <stop offset="66%" stop-color="#006400"/>
      <stop offset="100%" stop-color="#ADFF2F"/>
    </linearGradient>
    <linearGradient id="lgrad4" x1="0%" y1="0%" x2="67.9%" y2="3.3%">
      <stop offset="0%" stop-color="#FF1493"/>
      <stop offset="33%" stop-color="#FF69B4"/>
      <stop offset="66%" stop-color="#FFB6C1"/>
      <stop offset="100%" stop-color="#FFC0CB"/>
    </linearGradient>
    <radialGradient id="rgrad0" cx="65.6%" cy="40.4%" r="60%">
      <stop offset="0%" stop-color="#FF6B6B" stop-opacity="1"/>
      <stop offset="50%" stop-color="#4ECDC4" stop-opacity="0.8"/>
      <stop offset="100%" stop-color="#45B7D1" stop-opacity="0.6"/>
    </radialGradient>
    <radialGradient id="rgrad1" cx="35.6%" cy="48.4%" r="60%">
      <stop offset="0%" stop-color="#FFE66D" stop-opacity="1"/>
      <stop offset="50%" stop-color="#FF6B6B" stop-opacity="0.8"/>
      <stop offset="100%" stop-color="#C44D58" stop-opacity="0.6"/>
    </radialGradient>
    <radialGradient id="rgrad2" cx="45.6%" cy="56.4%" r="60%">
      <stop offset="0%" stop-color="#4169E1" stop-opacity="1"/>
      <stop offset="50%" stop-color="#7B68EE" stop-opacity="0.8"/>
      <stop offset="100%" stop-color="#9370DB" stop-opacity="0.6"/>
    </radialGradient>
    <radialGradient id="rgrad3" cx="55.6%" cy="64.4%" r="60%">
      <stop offset="0%" stop-color="#32CD32" stop-opacity="1"/>
      <stop offset="50%" stop-color="#228B22" stop-opacity="0.8"/>
      <stop offset="100%" stop-color="#006400" stop-opacity="0.6"/>
    </radialGradient>
    <radialGradient id="rgrad4" cx="65.6%" cy="32.4%" r="60%">
      <stop offset="0%" stop-color="#FF1493" stop-opacity="1"/>
      <stop offset="50%" stop-color="#FF69B4" stop-opacity="0.8"/>
      <stop offset="100%" stop-color="#FFB6C1" stop-opacity="0.6"/>
    </radialGradient>
    <clipPath id="clipCircle">
      <circle cx="0" cy="0" r="50"/>
    </clipPath>
    <clipPath id="clipStar">
      <path d="M0.0,-50.0 L14.7,-20.2 L47.6,-15.5 L23.8,7.7 L29.4,40.5 L0.0,25.0 L-29.4,40.5 L-23.8,7.7 L-47.6,-15.5 L-14.7,-20.2Z"/>
    </clipPath>
    <clipPath id="clipHex">
      <path d="M39.0,22.5 L0.0,45.0 L-39.0,22.5 L-39.0,-22.5 L-0.0,-45.0 L39.0,-22.5Z"/>
    </clipPath>
    <clipPath id="clipRect">
      <rect x="-40" y="-30" width="80" height="60" rx="10"/>
    </clipPath>
    <clipPath id="clipDynamic">
      <circle cx="0" cy="0" r="50.0"/>
    </clipPath>
    <mask id="maskGradient" maskContentUnits="objectBoundingBox">
      <rect x="0" y="0" width="1" height="1" fill="url(#maskGrad)"/>
    </mask>
    <linearGradient id="maskGrad" x1="0%" y1="0%" x2="100%" y2="100%">
      <stop offset="0%" stop-color="white"/>
      <stop offset="100%" stop-color="black"/>
    </linearGradient>
    <mask id="maskCircleFade">
      <circle cx="0" cy="0" r="60" fill="white"/>
      <circle cx="0" cy="0" r="30" fill="black"/>
    </mask>
    <mask id="maskStripes">
      <rect x="-50" y="-50" width="100" height="100" fill="white"/>
      <rect x="-50" y="-40" width="100" height="10" fill="black"/>
      <rect x="-50" y="-20" width="100" height="10" fill="black"/>
      <rect x="-50" y="0" width="100" height="10" fill="black"/>
      <rect x="-50" y="20" width="100" height="10" fill="black"/>
      <rect x="-50" y="40" width="100" height="10" fill="black"/>
    </mask>
    <mask id="maskDynamic">
      <rect x="-60" y="-60" width="120" height="120" fill="white" fill-opacity="0.80"/>
      <circle cx="0" cy="0" r="25" fill="white"/>
    </mask>
  </defs>
  <rect width="1920" height="1080" fill="url(#lgrad0)"/>
  <g transform="translate(130.0, 99.8)">
      <g transform="translate(5.00,-0.03) rotate(3.55) scale(1.000)">
        <g transform="translate(4.37,-1.21) rotate(8.36) scale(0.980)">
        <g transform="translate(2.67,-2.28) rotate(13.92) scale(0.960)">
        <g transform="translate(0.31,-3.15) rotate(19.67) scale(0.940)" clip-path="url(#clipCircle)">
        <g transform="translate(-2.12,-3.74) rotate(25.00) scale(0.920)">
        <g transform="translate(-4.03,-3.99) rotate(29.29) scale(0.900)">
        <g transform="translate(-4.96,-3.89) rotate(31.98) scale(0.880)">
        <path d="M0.0,-70.6 L20.8,-28.6 L67.2,-21.8 L33.6,10.9 L41.5,57.2 L0.0,35.3 L-41.5,57.2 L-33.6,10.9 L-67.2,-21.8 L-20.8,-28.6Z" fill="url(#lgrad0)" filter="url(#blur0)" opacity="0.78"/>
      </g>
      </g>
      </g>
      </g>
      </g>
      </g>
      </g>
  </g>
  <g transform="translate(346.2, 83.7)">
      <g transform="translate(2.67,-3.38) rotate(3.55) scale(1.000)">
        <g transform="translate(0.31,-3.86) rotate(8.36) scale(0.980)">
        <g transform="translate(-2.12,-4.00) rotate(13.92) scale(0.960)">
        <g transform="translate(-4.03,-3.77) rotate(19.67) scale(0.940)">
        <g transform="translate(-4.96,-3.22) rotate(25.00) scale(0.920)">
        <g transform="translate(-4.67,-2.37) rotate(29.29) scale(0.900)" mask="url(#maskCircleFade)">
        <g transform="translate(-3.24,-1.31) rotate(31.98) scale(0.880)">
        <rect x="-37.3" y="-37.3" width="74.6" height="74.6" rx="18.7" fill="url(#rgrad1)" filter="url(#shadow)" opacity="0.85"/>
        <circle cx="0" cy="0" r="24.9" fill="url(#rgrad2)" opacity="0.60"/>
      </g>
      </g>
      </g>
      </g>
      </g>
      </g>
      </g>
  </g>
  <g transform="translate(556.0, 75.3)">
      <g transform="translate(-2.12,-3.62) rotate(3.55) scale(1.000)">
        <g transform="translate(-4.03,-2.96) rotate(8.36) scale(0.980)">
        <g transform="translate(-4.96,-2.03) rotate(13.92) scale(0.960)">
        <g transform="translate(-4.67,-0.93) rotate(19.67) scale(0.940)">
        <g transform="translate(-3.24,0.26) rotate(25.00) scale(0.920)">
        <g transform="translate(-1.02,1.43) rotate(29.29) scale(0.900)">
        <g transform="translate(1.46,2.47) rotate(31.98) scale(0.880)">
        <path d="M33.9,19.6 L0.0,39.1 L-33.9,19.6 L-33.9,-19.6 L-0.0,-39.1 L33.9,-19.6Z" fill="url(#rgrad2)" filter="url(#blur2)" opacity="0.89"/>
        <ellipse cx="0" cy="0" rx="16.3" ry="10.9" fill="#FFFFFF" opacity="0.45"/>
      </g>
      </g>
      </g>
      </g>
      </g>
      </g>
      </g>
  </g>
  <g transform="translate(761.9, 78.5)">
      <g transform="translate(-4.96,-0.53) rotate(3.55) scale(1.000)">
        <g transform="translate(-4.67,0.66) rotate(8.36) scale(0.980)">
        <g transform="translate(-3.24,1.80) rotate(13.92) scale(0.960)">
        <g transform="translate(-1.02,2.77) rotate(19.67) scale(0.940)" clip-path="url(#clipRect)">
        <g transform="translate(1.46,3.50) rotate(25.00) scale(0.920)">
        <g transform="translate(3.57,3.92) rotate(29.29) scale(0.900)">
        <g transform="translate(4.81,3.98) rotate(31.98) scale(0.880)">
        <circle cx="0" cy="0" r="25.5" fill="url(#lgrad3)" filter="url(#shadow)" opacity="0.90"/>
        <text x="0" y="5" text-anchor="middle" font-family="Arial, sans-serif" font-size="14" fill="#FFFFFF" opacity="0.90">252</text>
      </g>
      </g>
      </g>
      </g>
      </g>
      </g>
      </g>
  </g>
  <g transform="translate(967.3, 91.8)">
      <g transform="translate(-3.24,3.05) rotate(3.55) scale(1.000)">
        <g transform="translate(-1.02,3.68) rotate(8.36) scale(0.980)">
        <g transform="translate(1.46,3.98) rotate(13.92) scale(0.960)">
        <g transform="translate(3.57,3.92) rotate(19.67) scale(0.940)">
        <g transform="translate(4.81,3.52) rotate(25.00) scale(0.920)">
        <g transform="translate(4.87,2.80) rotate(29.29) scale(0.900)" mask="url(#maskGradient)">
        <g transform="translate(3.74,1.83) rotate(31.98) scale(0.880)">
        <path d="M0.0,-45.0 L13.2,-18.2 L42.8,-13.9 L21.4,7.0 L26.5,36.4 L0.0,22.5 L-26.5,36.4 L-21.4,7.0 L-42.8,-13.9 L-13.2,-18.2Z" fill="url(#rgrad4)" filter="url(#blur4)" opacity="0.87"/>
      </g>
      </g>
      </g>
      </g>
      </g>
      </g>
      </g>
  </g>
  <g transform="translate(1175.8, 109.0)">
      <g transform="translate(1.46,3.83) rotate(3.55) scale(1.000)">
        <g transform="translate(3.57,3.31) rotate(8.36) scale(0.980)">
        <g transform="translate(4.81,2.50) rotate(13.92) scale(0.960)">
        <g transform="translate(4.87,1.47) rotate(19.67) scale(0.940)">
        <g transform="translate(3.74,0.30) rotate(25.00) scale(0.920)">
        <g transform="translate(1.70,-0.89) rotate(29.29) scale(0.900)">
        <g transform="translate(-0.77,-2.00) rotate(31.98) scale(0.880)">
        <rect x="-26.4" y="-26.4" width="52.9" height="52.9" rx="13.2" fill="url(#rgrad0)" filter="url(#shadow)" opacity="0.80"/>
        <circle cx="0" cy="0" r="17.6" fill="url(#rgrad1)" opacity="0.56"/>
      </g>
      </g>
      </g>
      </g>
      </g>
      </g>
      </g>
  </g>
  <g transform="translate(1390.3, 121.9)">
      <g transform="translate(4.81,1.09) rotate(3.55) scale(1.000)">
        <g transform="translate(4.87,-0.10) rotate(8.36) scale(0.980)">
        <g transform="translate(3.74,-1.28) rotate(13.92) scale(0.960)">
        <g transform="translate(1.70,-2.34) rotate(19.67) scale(0.940)" clip-path="url(#clipStar)">
        <g transform="translate(-0.77,-3.19) rotate(25.00) scale(0.920)">
        <g transform="translate(-3.04,-3.76) rotate(29.29) scale(0.900)">
        <g transform="translate(-4.57,-4.00) rotate(31.98) scale(0.880)">
        <path d="M35.0,20.2 L0.0,40.4 L-35.0,20.2 L-35.0,-20.2 L-0.0,-40.4 L35.0,-20.2Z" fill="url(#lgrad1)" filter="url(#blur1)" opacity="0.71"/>
        <ellipse cx="0" cy="0" rx="16.8" ry="11.2" fill="#FFFFFF" opacity="0.35"/>
      </g>
      </g>
      </g>
      </g>
      </g>
      </g>
      </g>
  </g>
  <g transform="translate(1612.0, 124.5)">
      <g transform="translate(3.74,-2.65) rotate(3.55) scale(1.000)">
        <g transform="translate(1.70,-3.42) rotate(8.36) scale(0.980)">
        <g transform="translate(-0.77,-3.88) rotate(13.92) scale(0.960)">
        <g transform="translate(-3.04,-3.99) rotate(19.67) scale(0.940)">
        <g transform="translate(-4.57,-3.75) rotate(25.00) scale(0.920)">
        <g transform="translate(-4.98,-3.17) rotate(29.29) scale(0.900)" mask="url(#maskDynamic)">
        <g transform="translate(-4.17,-2.31) rotate(31.98) scale(0.880)">
        <circle cx="0" cy="0" r="37.5" fill="url(#rgrad2)" filter="url(#shadow)" opacity="0.60"/>
        <text x="0" y="5" text-anchor="middle" font-family="Arial, sans-serif" font-size="14" fill="#FFFFFF" opacity="0.60">252</text>
      </g>
      </g>
      </g>
      </g>
      </g>
      </g>
      </g>
  </g>
  <g transform="translate(80.6, 395.6)">
      <g transform="translate(-0.77,-3.95) rotate(3.55) scale(1.000)">
        <g transform="translate(-3.04,-3.60) rotate(8.36) scale(0.980)">
        <g transform="translate(-4.57,-2.92) rotate(13.92) scale(0.960)">
        <g transform="translate(-4.98,-1.98) rotate(19.67) scale(0.940)">
        <g transform="translate(-4.17,-0.86) rotate(25.00) scale(0.920)">
        <g transform="translate(-2.34,0.33) rotate(29.29) scale(0.900)">
        <g transform="translate(0.06,1.50) rotate(31.98) scale(0.880)">
        <path d="M0.0,-68.9 L20.3,-27.9 L65.5,-21.3 L32.8,10.6 L40.5,55.7 L0.0,34.5 L-40.5,55.7 L-32.8,10.6 L-65.5,-21.3 L-20.3,-27.9Z" fill="url(#rgrad3)" filter="url(#blur3)" opacity="0.48"/>
      </g>
      </g>
      </g>
      </g>
      </g>
      </g>
      </g>
  </g>
  <g transform="translate(313.9, 379.4)">
      <g transform="translate(-4.57,-1.62) rotate(3.55) scale(1.000)">
        <g transform="translate(-4.98,-0.47) rotate(8.36) scale(0.980)">
        <g transform="translate(-4.17,0.73) rotate(13.92) scale(0.960)">
        <g transform="translate(-2.34,1.86) rotate(19.67) scale(0.940)" clip-path="url(#clipDynamic)">
        <g transform="translate(0.06,2.82) rotate(25.00) scale(0.920)">
        <g transform="translate(2.45,3.53) rotate(29.29) scale(0.900)">
        <g transform="translate(4.24,3.93) rotate(31.98) scale(0.880)">
        <rect x="-27.3" y="-27.3" width="54.7" height="54.7" rx="13.7" fill="url(#lgrad4)" filter="url(#shadow)" opacity="0.36"/>
        <circle cx="0" cy="0" r="18.2" fill="url(#rgrad0)" opacity="0.25"/>
      </g>
      </g>
      </g>
      </g>
      </g>
      </g>
      </g>
  </g>
  <g transform="translate(548.7, 363.4)">
      <g transform="translate(-4.17,2.20) rotate(3.55) scale(1.000)">
        <g transform="translate(-2.34,3.09) rotate(8.36) scale(0.980)">
        <g transform="translate(0.06,3.70) rotate(13.92) scale(0.960)">
        <g transform="translate(2.45,3.98) rotate(19.67) scale(0.940)">
        <g transform="translate(4.24,3.91) rotate(25.00) scale(0.920)">
        <g transform="translate(4.99,3.49) rotate(29.29) scale(0.900)" mask="url(#maskStripes)">
        <g transform="translate(4.52,2.75) rotate(31.98) scale(0.880)">
        <path d="M23.5,13.6 L0.0,27.2 L-23.5,13.6 L-23.5,-13.6 L-0.0,-27.2 L23.5,-13.6Z" fill="url(#rgrad0)" filter="url(#blur0)" opacity="0.26"/>
        <ellipse cx="0" cy="0" rx="11.3" ry="7.6" fill="#FFFFFF" opacity="0.13"/>
      </g>
      </g>
      </g>
      </g>
      </g>
      </g>
      </g>
  </g>
  <g transform="translate(781.4, 355.3)">
      <g transform="translate(0.06,4.00) rotate(3.55) scale(1.000)">
        <g transform="translate(2.45,3.81) rotate(8.36) scale(0.980)">
        <g transform="translate(4.24,3.27) rotate(13.92) scale(0.960)">
        <g transform="translate(4.99,2.45) rotate(19.67) scale(0.940)">
        <g transform="translate(4.52,1.40) rotate(25.00) scale(0.920)">
        <g transform="translate(2.94,0.23) rotate(29.29) scale(0.900)">
        <g transform="translate(0.64,-0.96) rotate(31.98) scale(0.880)">
        <circle cx="0" cy="0" r="24.7" fill="url(#rgrad1)" filter="url(#shadow)" opacity="0.18"/>
        <text x="0" y="5" text-anchor="middle" font-family="Arial, sans-serif" font-size="14" fill="#FFFFFF" opacity="0.18">252</text>
      </g>
      </g>
      </g>
      </g>
      </g>
      </g>
      </g>
  </g>
  <g transform="translate(1008.9, 358.7)">
      <g transform="translate(4.24,2.12) rotate(3.55) scale(1.000)">
        <g transform="translate(4.99,1.02) rotate(8.36) scale(0.980)">
        <g transform="translate(4.52,-0.17) rotate(13.92) scale(0.960)">
        <g transform="translate(2.94,-1.34) rotate(19.67) scale(0.940)" clip-path="url(#clipHex)">
        <g transform="translate(0.64,-2.39) rotate(25.00) scale(0.920)">
        <g transform="translate(-1.81,-3.23) rotate(29.29) scale(0.900)">
        <g transform="translate(-3.82,-3.79) rotate(31.98) scale(0.880)">
        <path d="M0.0,-63.3 L18.6,-25.6 L60.2,-19.6 L30.1,9.8 L37.2,51.2 L0.0,31.7 L-37.2,51.2 L-30.1,9.8 L-60.2,-19.6 L-18.6,-25.6Z" fill="url(#lgrad2)" filter="url(#blur2)" opacity="0.12"/>
      </g>
      </g>
      </g>
      </g>
      </g>
      </g>
      </g>
  </g>
  <g transform="translate(1229.2, 372.2)">
      <g transform="translate(4.52,-1.71) rotate(3.55) scale(1.000)">
        <g transform="translate(2.94,-2.70) rotate(8.36) scale(0.980)">
        <g transform="translate(0.64,-3.45) rotate(13.92) scale(0.960)">
        <g transform="translate(-1.81,-3.90) rotate(19.67) scale(0.940)">
        <g transform="translate(-3.82,-3.99) rotate(25.00) scale(0.920)">
        <g transform="translate(-4.90,-3.73) rotate(29.29) scale(0.900)" mask="url(#maskCircleFade)">
        <g transform="translate(-4.78,-3.13) rotate(31.98) scale(0.880)">
        <rect x="-37.1" y="-37.1" width="74.1" height="74.1" rx="18.5" fill="url(#rgrad3)" filter="url(#shadow)" opacity="0.10"/>
        <circle cx="0" cy="0" r="24.7" fill="url(#rgrad4)" opacity="0.07"/>
      </g>
      </g>
      </g>
      </g>
      </g>
      </g>
      </g>
  </g>
  <g transform="translate(1442.5, 389.3)">
      <g transform="translate(0.64,-3.97) rotate(3.55) scale(1.000)">
        <g transform="translate(-1.81,-3.94) rotate(8.36) scale(0.980)">
        <g transform="translate(-3.82,-3.57) rotate(13.92) scale(0.960)">
        <g transform="translate(-4.90,-2.87) rotate(19.67) scale(0.940)">
        <g transform="translate(-4.78,-1.92) rotate(25.00) scale(0.920)">
        <g transform="translate(-3.48,-0.80) rotate(29.29) scale(0.900)">
        <g transform="translate(-1.34,0.40) rotate(31.98) scale(0.880)">
        <path d="M37.4,21.6 L0.0,43.2 L-37.4,21.6 L-37.4,-21.6 L-0.0,-43.2 L37.4,-21.6Z" fill="url(#rgrad4)" filter="url(#blur4)" opacity="0.12"/>
        <ellipse cx="0" cy="0" rx="18.0" ry="12.0" fill="#FFFFFF" opacity="0.06"/>
      </g>
      </g>
      </g>
      </g>
      </g>
      </g>
      </g>
  </g>
  <g transform="translate(1650.2, 402.1)">
      <g transform="translate(-3.82,-2.58) rotate(3.55) scale(1.000)">
        <g transform="translate(-4.90,-1.56) rotate(8.36) scale(0.980)">
        <g transform="translate(-4.78,-0.40) rotate(13.92) scale(0.960)">
        <g transform="translate(-3.48,0.79) rotate(19.67) scale(0.940)" clip-path="url(#clipCircle)">
        <g transform="translate(-1.34,1.92) rotate(25.00) scale(0.920)">
        <g transform="translate(1.14,2.87) rotate(29.29) scale(0.900)">
        <g transform="translate(3.33,3.56) rotate(31.98) scale(0.880)">
        <circle cx="0" cy="0" r="29.4" fill="url(#lgrad0)" filter="url(#shadow)" opacity="0.16"/>
        <text x="0" y="5" text-anchor="middle" font-family="Arial, sans-serif" font-size="14" fill="#FFFFFF" opacity="0.16">252</text>
      </g>
      </g>
      </g>
      </g>
      </g>
      </g>
      </g>
  </g>
  <g transform="translate(95.4, 684.4)">
      <g transform="translate(-4.78,1.18) rotate(3.55) scale(1.000)">
        <g transform="translate(-3.48,2.26) rotate(8.36) scale(0.980)">
        <g transform="translate(-1.34,3.13) rotate(13.92) scale(0.960)">
        <g transform="translate(1.14,3.73) rotate(19.67) scale(0.940)">
        <g transform="translate(3.33,3.99) rotate(25.00) scale(0.920)">
        <g transform="translate(4.71,3.90) rotate(29.29) scale(0.900)" mask="url(#maskGradient)">
        <g transform="translate(4.94,3.45) rotate(31.98) scale(0.880)">
        <path d="M0.0,-46.8 L13.7,-18.9 L44.5,-14.4 L22.2,7.2 L27.5,37.8 L0.0,23.4 L-27.5,37.8 L-22.2,7.2 L-44.5,-14.4 L-13.7,-18.9Z" fill="url(#rgrad1)" filter="url(#blur1)" opacity="0.24"/>
      </g>
      </g>
      </g>
      </g>
      </g>
      </g>
      </g>
  </g>
  <g transform="translate(301.8, 675.3)">
      <g transform="translate(-1.34,3.85) rotate(3.55) scale(1.000)">
        <g transform="translate(1.14,4.00) rotate(8.36) scale(0.980)">
        <g transform="translate(3.33,3.79) rotate(13.92) scale(0.960)">
        <g transform="translate(4.71,3.23) rotate(19.67) scale(0.940)">
        <g transform="translate(4.94,2.39) rotate(25.00) scale(0.920)">
        <g transform="translate(3.96,1.34) rotate(29.29) scale(0.900)">
        <g transform="translate(2.00,0.17) rotate(31.98) scale(0.880)">
        <rect x="-23.5" y="-23.5" width="46.9" height="46.9" rx="11.7" fill="url(#rgrad2)" filter="url(#shadow)" opacity="0.35"/>
        <circle cx="0" cy="0" r="15.6" fill="url(#rgrad3)" opacity="0.24"/>
      </g>
      </g>
      </g>
      </g>
      </g>
      </g>
      </g>
  </g>
  <g transform="translate(512.6, 659.0)">
      <g transform="translate(3.33,2.98) rotate(3.55) scale(1.000)">
        <g transform="translate(4.71,2.06) rotate(8.36) scale(0.980)">
        <g transform="translate(4.94,0.96) rotate(13.92) scale(0.960)">
        <g transform="translate(3.96,-0.23) rotate(19.67) scale(0.940)" clip-path="url(#clipRect)">
        <g transform="translate(2.00,-1.40) rotate(25.00) scale(0.920)">
        <g transform="translate(-0.44,-2.45) rotate(29.29) scale(0.900)">
        <g transform="translate(-2.77,-3.27) rotate(31.98) scale(0.880)">
        <path d="M30.7,17.7 L0.0,35.5 L-30.7,17.7 L-30.7,-17.7 L-0.0,-35.5 L30.7,-17.7Z" fill="url(#lgrad3)" filter="url(#blur3)" opacity="0.46"/>
        <ellipse cx="0" cy="0" rx="14.8" ry="9.8" fill="#FFFFFF" opacity="0.23"/>
      </g>
      </g>
      </g>
      </g>
      </g>
      </g>
      </g>
  </g>
  <g transform="translate(730.1, 643.1)">
      <g transform="translate(4.94,-0.63) rotate(3.55) scale(1.000)">
        <g transform="translate(3.96,-1.77) rotate(8.36) scale(0.980)">
        <g transform="translate(2.00,-2.75) rotate(13.92) scale(0.960)">
        <g transform="translate(-0.44,-3.49) rotate(19.67) scale(0.940)">
        <g transform="translate(-2.77,-3.91) rotate(25.00) scale(0.920)">
        <g transform="translate(-4.43,-3.98) rotate(29.29) scale(0.900)" mask="url(#maskDynamic)">
        <g transform="translate(-5.00,-3.70) rotate(31.98) scale(0.880)">
        <circle cx="0" cy="0" r="36.1" fill="url(#rgrad4)" filter="url(#shadow)" opacity="0.58"/>
        <text x="0" y="5" text-anchor="middle" font-family="Arial, sans-serif" font-size="14" fill="#FFFFFF" opacity="0.58">252</text>
      </g>
      </g>
      </g>
      </g>
      </g>
      </g>
      </g>
  </g>
  <g transform="translate(955.0, 635.2)">
      <g transform="translate(2.00,-3.66) rotate(3.55) scale(1.000)">
        <g transform="translate(-0.44,-3.97) rotate(8.36) scale(0.980)">
        <g transform="translate(-2.77,-3.93) rotate(13.92) scale(0.960)">
        <g transform="translate(-4.43,-3.53) rotate(19.67) scale(0.940)">
        <g transform="translate(-5.00,-2.82) rotate(25.00) scale(0.920)">
        <g transform="translate(-4.35,-1.86) rotate(29.29) scale(0.900)">
        <g transform="translate(-2.63,-0.73) rotate(31.98) scale(0.880)">
        <path d="M0.0,-74.0 L21.7,-29.9 L70.4,-22.9 L35.2,11.4 L43.5,59.9 L0.0,37.0 L-43.5,59.9 L-35.2,11.4 L-70.4,-22.9 L-21.7,-29.9Z" fill="url(#rgrad0)" filter="url(#blur0)" opacity="0.69"/>
      </g>
      </g>
      </g>
      </g>
      </g>
      </g>
      </g>
  </g>
  <g transform="translate(1185.9, 639.0)">
      <g transform="translate(-2.77,-3.33) rotate(3.55) scale(1.000)">
        <g transform="translate(-4.43,-2.53) rotate(8.36) scale(0.980)">
        <g transform="translate(-5.00,-1.50) rotate(13.92) scale(0.960)">
        <g transform="translate(-4.35,-0.33) rotate(19.67) scale(0.940)" clip-path="url(#clipStar)">
        <g transform="translate(-2.63,0.86) rotate(25.00) scale(0.920)">
        <g transform="translate(-0.27,1.98) rotate(29.29) scale(0.900)">
        <g transform="translate(2.16,2.92) rotate(31.98) scale(0.880)">
        <rect x="-31.5" y="-31.5" width="63.0" height="63.0" rx="15.8" fill="url(#lgrad1)" filter="url(#shadow)" opacity="0.79"/>
        <circle cx="0" cy="0" r="21.0" fill="url(#rgrad2)" opacity="0.55"/>
      </g>
      </g>
      </g>
      </g>
      </g>
      </g>
      </g>
  </g>
  <g transform="translate(1420.4, 652.6)">
      <g transform="translate(-5.00,0.07) rotate(3.55) scale(1.000)">
        <g transform="translate(-4.35,1.25) rotate(8.36) scale(0.980)">
        <g transform="translate(-2.63,2.31) rotate(13.92) scale(0.960)">
        <g transform="translate(-0.27,3.17) rotate(19.67) scale(0.940)">
        <g transform="translate(2.16,3.75) rotate(25.00) scale(0.920)">
        <g transform="translate(4.06,3.99) rotate(29.29) scale(0.900)" mask="url(#maskStripes)">
        <g transform="translate(4.96,3.88) rotate(31.98) scale(0.880)">
        <path d="M25.6,14.8 L0.0,29.6 L-25.6,14.8 L-25.6,-14.8 L-0.0,-29.6 L25.6,-14.8Z" fill="url(#rgrad2)" filter="url(#blur2)" opacity="0.86"/>
        <ellipse cx="0" cy="0" rx="12.3" ry="8.2" fill="#FFFFFF" opacity="0.43"/>
      </g>
      </g>
      </g>
      </g>
      </g>
      </g>
      </g>
  </g>
  <g transform="translate(1654.7, 669.7)">
      <g transform="translate(-2.63,3.40) rotate(3.55) scale(1.000)">
        <g transform="translate(-0.27,3.87) rotate(8.36) scale(0.980)">
        <g transform="translate(2.16,4.00) rotate(13.92) scale(0.960)">
        <g transform="translate(4.06,3.76) rotate(19.67) scale(0.940)">
        <g transform="translate(4.96,3.19) rotate(25.00) scale(0.920)">
        <g transform="translate(4.65,2.34) rotate(29.29) scale(0.900)">
        <g transform="translate(3.20,1.28) rotate(31.98) scale(0.880)">
        <circle cx="0" cy="0" r="22.7" fill="url(#rgrad3)" filter="url(#shadow)" opacity="0.89"/>
        <text x="0" y="5" text-anchor="middle" font-family="Arial, sans-serif" font-size="14" fill="#FFFFFF" opacity="0.89">252</text>
      </g>
      </g>
      </g>
      </g>
      </g>
      </g>
      </g>
  </g>
  <g transform="translate(125.4, 962.3)">
      <g transform="translate(2.16,3.61) rotate(3.55) scale(1.000)">
        <g transform="translate(4.06,2.94) rotate(8.36) scale(0.980)">
        <g transform="translate(4.96,2.00) rotate(13.92) scale(0.960)">
        <g transform="translate(4.65,0.89) rotate(19.67) scale(0.940)" clip-path="url(#clipDynamic)">
        <g transform="translate(3.20,-0.30) rotate(25.00) scale(0.920)">
        <g transform="translate(0.97,-1.47) rotate(29.29) scale(0.900)">
        <g transform="translate(-1.50,-2.50) rotate(31.98) scale(0.880)">
        <path d="M0.0,-54.9 L16.1,-22.2 L52.3,-17.0 L26.1,8.5 L32.3,44.5 L0.0,27.5 L-32.3,44.5 L-26.1,8.5 L-52.3,-17.0 L-16.1,-22.2Z" fill="url(#lgrad4)" filter="url(#blur4)" opacity="0.90"/>
      </g>
      </g>
      </g>
      </g>
      </g>
      </g>
      </g>
  </g>
  <g transform="translate(400.0, 299.4)" mask="url(#maskGradient)">
    <ellipse cx="0" cy="0" rx="200" ry="150" fill="url(#rgrad0)" filter="url(#blur3)" opacity="0.3"/>
  </g>
  <g transform="translate(853.4, 248.0)" mask="url(#maskCircleFade)">
    <ellipse cx="0" cy="0" rx="200" ry="150" fill="url(#rgrad1)" filter="url(#blur3)" opacity="0.3"/>
  </g>
  <g transform="translate(1257.7, 221.1)" mask="url(#maskStripes)">
    <ellipse cx="0" cy="0" rx="200" ry="150" fill="url(#rgrad2)" filter="url(#blur3)" opacity="0.3"/>
  </g>
</svg>