<?xml version="1.0" encoding="UTF-8"?>
<svg xmlns="http://www.w3.org/2000/svg" viewBox="0 0 1920 1080" width="1920" height="1080">
  <defs>
    <filter id="blur0" x="-50%" y="-50%" width="200%" height="200%">
      <feGaussianBlur in="SourceGraphic" stdDeviation="1"/>
    </filter>
    <filter id="blur1" x="-50%" y="-50%" width="200%" height="200%">
      <feGaussianBlur in="SourceGraphic" stdDeviation="3"/>
    </filter>
    <filter id="blur2" x="-50%" y="-50%" width="200%" height="200%">
      <feGaussianBlur in="SourceGraphic" stdDeviation="5"/>
    </filter>
    <filter id="blur3" x="-50%" y="-50%" width="200%" height="200%">
      <feGaussianBlur in="SourceGraphic" stdDeviation="7"/>
    </filter>
    <filter id="blur4" x="-50%" y="-50%" width="200%" height="200%">
      <feGaussianBlur in="SourceGraphic" stdDeviation="9"/>
    </filter>
    <filter id="shadow" x="-50%" y="-50%" width="200%" height="200%">
      <feGaussianBlur in="SourceAlpha" stdDeviation="3" result="blur"/>
      <feOffset in="blur" dx="4" dy="4" result="offsetBlur"/>
      <feMerge>
        <feMergeNode in="offsetBlur"/>
        <feMergeNode in="SourceGraphic"/>
      </feMerge>
    </filter>
    <linearGradient id="lgrad0" x1="0%" y1="0%" x2="24.6%" y2="93.1%">
      <stop offset="0%" stop-color="#FF6B6B"/>
      <stop offset="33%" stop-color="#4ECDC4"/>
      <stop offset="66%" stop-color="#45B7D1"/>
      <stop offset="100%" stop-color="#96E6A1"/>
    </linearGradient>
    <linearGradient id="lgrad1" x1="0%" y1="0%" x2="6.5%" y2="74.6%">
      <stop offset="0%" stop-color="#FFE66D"/>
      <stop offset="33%" stop-color="#FF6B6B"/>
      <stop offset="66%" stop-color="#C44D58"/>
      <stop offset="100%" stop-color="#8B0000"/>
    </linearGradient>
    <linearGradient id="lgrad2" x1="0%" y1="0%" x2="0.0%" y2="49.6%">
      <stop offset="0%" stop-color="#4169E1"/>
      <stop offset="33%" stop-color="#7B68EE"/>
      <stop offset="66%" stop-color="#9370DB"/>
      <stop offset="100%" stop-color="#FFD700"/>
    </linearGradient>
    <linearGradient id="lgrad3" x1="0%" y1="0%" x2="6.9%" y2="24.6%">
      <stop offset="0%" stop-color="#32CD32"/>
      <stop offset="33%" stop-color="#228B22"/>
      <stop offset="66%" stop-color="#006400"/>
      <stop offset="100%" stop-color="#ADFF2F"/>
    </linearGradient>
    <linearGradient id="lgrad4" x1="0%" y1="0%" x2="25.4%" y2="6.5%">
      <stop offset="0%" stop-color="#FF1493"/>
      <stop offset="33%" stop-color="#FF69B4"/>
      <stop offset="66%" stop-color="#FFB6C1"/>
      <stop offset="100%" stop-color="#FFC0CB"/>
    </linearGradient>
    <radialGradient id="rgrad0" cx="51.3%" cy="44.2%" r="60%">
      <stop offset="0%" stop-color="#FF6B6B" stop-opacity="1"/>
      <stop offset="50%" stop-color="#4ECDC4" stop-opacity="0.8"/>
      <stop offset="100%" stop-color="#45B7D1" stop-opacity="0.6"/>
    </radialGradient>
    <radialGradient id="rgrad1" cx="61.3%" cy="52.2%" r="60%">
      <stop offset="0%" stop-color="#FFE66D" stop-opacity="1"/>
      <stop offset="50%" stop-color="#FF6B6B" stop-opacity="0.8"/>
      <stop offset="100%" stop-color="#C44D58" stop-opacity="0.6"/>
    </radialGradient>
    <radialGradient id="rgrad2" cx="31.3%" cy="60.2%" r="60%">
      <stop offset="0%" stop-color="#4169E1" stop-opacity="1"/>
      <stop offset="50%" stop-color="#7B68EE" stop-opacity="0.8"/>
      <stop offset="100%" stop-color="#9370DB" stop-opacity="0.6"/>
    </radialGradient>
    <radialGradient id="rgrad3" cx="41.3%" cy="68.2%" r="60%">
      <stop offset="0%" stop-color="#32CD32" stop-opacity="1"/>
      <stop offset="50%" stop-color="#228B22" stop-opacity="0.8"/>
      <stop offset="100%" stop-color="#006400" stop-opacity="0.6"/>
    </radialGradient>
    <radialGradient id="rgrad4" cx="51.3%" cy="36.2%" r="60%">
      <stop offset="0%" stop-color="#FF1493" stop-opacity="1"/>
      <stop offset="50%" stop-color="#FF69B4" stop-opacity="0.8"/>
      <stop offset="100%" stop-color="#FFB6C1" stop-opacity="0.6"/>
    </radialGradient>
    <clipPath id="clipCircle">
      <circle cx="0" cy="0" r="50"/>
    </clipPath>
    <clipPath id="clipStar">
      <path d="M0.0,-50.0 L14.7,-20.2 L47.6,-15.5 L23.8,7.7 L29.4,40.5 L0.0,25.0 L-29.4,40.5 L-23.8,7.7 L-47.6,-15.5 L-14.7,-20.2Z"/>
    </clipPath>
    <clipPath id="clipHex">
      <path d="M39.0,22.5 L0.0,45.0 L-39.0,22.5 L-39.0,-22.5 L-0.0,-45.0 L39.0,-22.5Z"/>
    </clipPath>
    <clipPath id="clipRect">
      <rect x="-40" y="-30" width="80" height="60" rx="10"/>
    </clipPath>
    <clipPath id="clipDynamic">
      <circle cx="0" cy="0" r="24.1"/>
    </clipPath>
    <mask id="maskGradient" maskContentUnits="objectBoundingBox">
      <rect x="0" y="0" width="1" height="1" fill="url(#maskGrad)"/>
    </mask>
    <linearGradient id="maskGrad" x1="0%" y1="0%" x2="100%" y2="100%">
      <stop offset="0%" stop-color="white"/>
      <stop offset="100%" stop-color="black"/>
    </linearGradient>
    <mask id="maskCircleFade">
      <circle cx="0" cy="0" r="60" fill="white"/>
      <circle cx="0" cy="0" r="30" fill="black"/>
    </mask>
    <mask id="maskStripes">
      <rect x="-50" y="-50" width="100" height="100" fill="white"/>
      <rect x="-50" y="-40" width="100" height="10" fill="black"/>
      <rect x="-50" y="-20" width="100" height="10" fill="black"/>
      <rect x="-50" y="0" width="100" height="10" fill="black"/>
      <rect x="-50" y="20" width="100" height="10" fill="black"/>
      <rect x="-50" y="40" width="100" height="10" fill="black"/>
    </mask>
    <mask id="maskDynamic">
      <rect x="-60" y="-60" width="120" height="120" fill="white" fill-opacity="0.58"/>
      <circle cx="0" cy="0" r="25" fill="white"/>
    </mask>
  </defs>
  <rect width="1920" height="1080" fill="url(#lgrad0)"/>
  <g transform="translate(78.2, 117.2)">
      <g transform="translate(-3.63,2.75) rotate(1.97) scale(1.000)">
        <g transform="translate(-1.53,3.49) rotate(2.04) scale(0.980)">
        <g transform="translate(0.94,3.91) rotate(0.09) scale(0.960)">
        <g transform="translate(3.18,3.98) rotate(-3.86) scale(0.940)" clip-path="url(#clipCircle)">
        <g transform="translate(4.64,3.70) rotate(-9.60) scale(0.920)">
        <g transform="translate(4.97,3.09) rotate(-16.80) scale(0.900)">
        <g transform="translate(4.08,2.20) rotate(-24.97) scale(0.880)">
        <path d="M0.0,-65.9 L19.4,-26.7 L62.7,-20.4 L31.3,10.2 L38.7,53.3 L0.0,33.0 L-38.7,53.3 L-31.3,10.2 L-62.7,-20.4 L-19.4,-26.7Z" fill="url(#lgrad0)" filter="url(#blur0)" opacity="0.66"/>
      </g>
      </g>
      </g>
      </g>
      </g>
      </g>
      </g>
  </g>
  <g transform="translate(310.8, 124.8)">
      <g transform="translate(0.94,3.93) rotate(1.97) scale(1.000)">
        <g transform="translate(3.18,3.53) rotate(2.04) scale(0.980)">
        <g transform="translate(4.64,2.82) rotate(0.09) scale(0.960)">
        <g transform="translate(4.97,1.85) rotate(-3.86) scale(0.940)">
        <g transform="translate(4.08,0.72) rotate(-9.60) scale(0.920)">
        <g transform="translate(2.19,-0.47) rotate(-16.80) scale(0.900)" mask="url(#maskCircleFade)">
        <g transform="translate(-0.24,-1.62) rotate(-24.97) scale(0.880)">
        <rect x="-25.8" y="-25.8" width="51.6" height="51.6" rx="12.9" fill="url(#rgrad1)" filter="url(#shadow)" opacity="0.54"/>
        <circle cx="0" cy="0" r="17.2" fill="url(#rgrad2)" opacity="0.38"/>
      </g>
      </g>
      </g>
      </g>
      </g>
      </g>
      </g>
  </g>
  <g transform="translate(545.6, 120.8)">
      <g transform="translate(4.64,1.49) rotate(1.97) scale(1.000)">
        <g transform="translate(4.97,0.33) rotate(2.04) scale(0.980)">
        <g transform="translate(4.08,-0.86) rotate(0.09) scale(0.960)">
        <g transform="translate(2.19,-1.98) rotate(-3.86) scale(0.940)">
        <g transform="translate(-0.24,-2.92) rotate(-9.60) scale(0.920)">
        <g transform="translate(-2.60,-3.60) rotate(-16.80) scale(0.900)">
        <g transform="translate(-4.33,-3.95) rotate(-24.97) scale(0.880)">
        <path d="M23.4,13.5 L0.0,27.0 L-23.4,13.5 L-23.4,-13.5 L-0.0,-27.0 L23.4,-13.5Z" fill="url(#rgrad2)" filter="url(#blur2)" opacity="0.42"/>
        <ellipse cx="0" cy="0" rx="11.3" ry="7.5" fill="#FFFFFF" opacity="0.21"/>
      </g>
      </g>
      </g>
      </g>
      </g>
      </g>
      </g>
  </g>
  <g transform="translate(779.1, 107.0)">
      <g transform="translate(4.08,-2.32) rotate(1.97) scale(1.000)">
        <g transform="translate(2.19,-3.18) rotate(2.04) scale(0.980)">
        <g transform="translate(-0.24,-3.75) rotate(0.09) scale(0.960)">
        <g transform="translate(-2.60,-3.99) rotate(-3.86) scale(0.940)" clip-path="url(#clipRect)">
        <g transform="translate(-4.33,-3.88) rotate(-9.60) scale(0.920)">
        <g transform="translate(-5.00,-3.42) rotate(-16.80) scale(0.900)">
        <g transform="translate(-4.44,-2.65) rotate(-24.97) scale(0.880)">
        <circle cx="0" cy="0" r="26.1" fill="url(#lgrad3)" filter="url(#shadow)" opacity="0.31"/>
        <text x="0" y="5" text-anchor="middle" font-family="Arial, sans-serif" font-size="14" fill="#FFFFFF" opacity="0.31">871</text>
      </g>
      </g>
      </g>
      </g>
      </g>
      </g>
      </g>
  </g>
  <g transform="translate(1007.8, 89.9)">
      <g transform="translate(-0.24,-4.00) rotate(1.97) scale(1.000)">
        <g transform="translate(-2.60,-3.76) rotate(2.04) scale(0.980)">
        <g transform="translate(-4.33,-3.19) rotate(0.09) scale(0.960)">
        <g transform="translate(-5.00,-2.34) rotate(-3.86) scale(0.940)">
        <g transform="translate(-4.44,-1.27) rotate(-9.60) scale(0.920)">
        <g transform="translate(-2.80,-0.09) rotate(-16.80) scale(0.900)" mask="url(#maskGradient)">
        <g transform="translate(-0.47,1.09) rotate(-24.97) scale(0.880)">
        <path d="M0.0,-66.6 L19.6,-26.9 L63.3,-20.6 L31.7,10.3 L39.1,53.8 L0.0,33.3 L-39.1,53.8 L-31.7,10.3 L-63.3,-20.6 L-19.6,-26.9Z" fill="url(#rgrad4)" filter="url(#blur4)" opacity="0.21"/>
      </g>
      </g>
      </g>
      </g>
      </g>
      </g>
      </g>
  </g>
  <g transform="translate(1229.8, 77.5)">
      <g transform="translate(-4.33,-2.00) rotate(1.97) scale(1.000)">
        <g transform="translate(-5.00,-0.89) rotate(2.04) scale(0.980)">
        <g transform="translate(-4.44,0.30) rotate(0.09) scale(0.960)">
        <g transform="translate(-2.80,1.47) rotate(-3.86) scale(0.940)">
        <g transform="translate(-0.47,2.50) rotate(-9.60) scale(0.920)">
        <g transform="translate(1.97,3.31) rotate(-16.80) scale(0.900)">
        <g transform="translate(3.93,3.83) rotate(-24.97) scale(0.880)">
        <rect x="-37.4" y="-37.4" width="74.9" height="74.9" rx="18.7" fill="url(#rgrad0)" filter="url(#shadow)" opacity="0.14"/>
        <circle cx="0" cy="0" r="25.0" fill="url(#rgrad1)" opacity="0.10"/>
      </g>
      </g>
      </g>
      </g>
      </g>
      </g>
      </g>
  </g>
  <g transform="translate(1444.5, 75.8)">
      <g transform="translate(-4.44,1.83) rotate(1.97) scale(1.000)">
        <g transform="translate(-2.80,2.80) rotate(2.04) scale(0.980)">
        <g transform="translate(-0.47,3.52) rotate(0.09) scale(0.960)">
        <g transform="translate(1.97,3.92) rotate(-3.86) scale(0.940)" clip-path="url(#clipStar)">
        <g transform="translate(3.93,3.98) rotate(-9.60) scale(0.920)">
        <g transform="translate(4.93,3.68) rotate(-16.80) scale(0.900)">
        <g transform="translate(4.72,3.05) rotate(-24.97) scale(0.880)">
        <path d="M36.1,20.9 L0.0,41.7 L-36.1,20.9 L-36.1,-20.9 L-0.0,-41.7 L36.1,-20.9Z" fill="url(#lgrad1)" filter="url(#blur1)" opacity="0.11"/>
        <ellipse cx="0" cy="0" rx="17.4" ry="11.6" fill="#FFFFFF" opacity="0.05"/>
      </g>
      </g>
      </g>
      </g>
      </g>
      </g>
      </g>
  </g>
  <g transform="translate(1653.1, 85.4)">
      <g transform="translate(-0.47,3.98) rotate(1.97) scale(1.000)">
        <g transform="translate(1.97,3.92) rotate(2.04) scale(0.980)">
        <g transform="translate(3.93,3.50) rotate(0.09) scale(0.960)">
        <g transform="translate(4.93,2.77) rotate(-3.86) scale(0.940)">
        <g transform="translate(4.72,1.79) rotate(-9.60) scale(0.920)">
        <g transform="translate(3.36,0.66) rotate(-16.80) scale(0.900)" mask="url(#maskDynamic)">
        <g transform="translate(1.17,-0.54) rotate(-24.97) scale(0.880)">
        <circle cx="0" cy="0" r="27.7" fill="url(#rgrad2)" filter="url(#shadow)" opacity="0.10"/>
        <text x="0" y="5" text-anchor="middle" font-family="Arial, sans-serif" font-size="14" fill="#FFFFFF" opacity="0.10">871</text>
      </g>
      </g>
      </g>
      </g>
      </g>
      </g>
      </g>
  </g>
  <g transform="translate(98.6, 381.9)">
      <g transform="translate(3.93,2.47) rotate(1.97) scale(1.000)">
        <g transform="translate(4.93,1.43) rotate(2.04) scale(0.980)">
        <g transform="translate(4.72,0.26) rotate(0.09) scale(0.960)">
        <g transform="translate(3.36,-0.93) rotate(-3.86) scale(0.940)">
        <g transform="translate(1.17,-2.04) rotate(-9.60) scale(0.920)">
        <g transform="translate(-1.30,-2.96) rotate(-16.80) scale(0.900)">
        <g transform="translate(-3.46,-3.63) rotate(-24.97) scale(0.880)">
        <path d="M0.0,-45.5 L13.4,-18.4 L43.3,-14.1 L21.6,7.0 L26.7,36.8 L0.0,22.8 L-26.7,36.8 L-21.6,7.0 L-43.3,-14.1 L-13.4,-18.4Z" fill="url(#rgrad3)" filter="url(#blur3)" opacity="0.14"/>
      </g>
      </g>
      </g>
      </g>
      </g>
      </g>
      </g>
  </g>
  <g transform="translate(304.4, 397.5)">
      <g transform="translate(4.72,-1.31) rotate(1.97) scale(1.000)">
        <g transform="translate(3.36,-2.37) rotate(2.04) scale(0.980)">
        <g transform="translate(1.17,-3.22) rotate(0.09) scale(0.960)">
        <g transform="translate(-1.30,-3.78) rotate(-3.86) scale(0.940)" clip-path="url(#clipDynamic)">
        <g transform="translate(-3.46,-4.00) rotate(-9.60) scale(0.920)">
        <g transform="translate(-4.77,-3.86) rotate(-16.80) scale(0.900)">
        <g transform="translate(-4.91,-3.38) rotate(-24.97) scale(0.880)">
        <rect x="-24.5" y="-24.5" width="48.9" height="48.9" rx="12.2" fill="url(#lgrad4)" filter="url(#shadow)" opacity="0.20"/>
        <circle cx="0" cy="0" r="16.3" fill="url(#rgrad0)" opacity="0.14"/>
      </g>
      </g>
      </g>
      </g>
      </g>
      </g>
      </g>
  </g>
  <g transform="translate(514.0, 404.9)">
      <g transform="translate(1.17,-3.89) rotate(1.97) scale(1.000)">
        <g transform="translate(-1.30,-3.99) rotate(2.04) scale(0.980)">
        <g transform="translate(-3.46,-3.74) rotate(0.09) scale(0.960)">
        <g transform="translate(-4.77,-3.15) rotate(-3.86) scale(0.940)">
        <g transform="translate(-4.91,-2.28) rotate(-9.60) scale(0.920)">
        <g transform="translate(-3.85,-1.21) rotate(-16.80) scale(0.900)" mask="url(#maskStripes)">
        <g transform="translate(-1.84,-0.03) rotate(-24.97) scale(0.880)">
        <path d="M32.5,18.8 L0.0,37.5 L-32.5,18.8 L-32.5,-18.8 L-0.0,-37.5 L32.5,-18.8Z" fill="url(#rgrad0)" filter="url(#blur0)" opacity="0.29"/>
        <ellipse cx="0" cy="0" rx="15.6" ry="10.4" fill="#FFFFFF" opacity="0.15"/>
      </g>
      </g>
      </g>
      </g>
      </g>
      </g>
      </g>
  </g>
  <g transform="translate(730.0, 400.6)">
      <g transform="translate(-3.46,-2.89) rotate(1.97) scale(1.000)">
        <g transform="translate(-4.77,-1.94) rotate(2.04) scale(0.980)">
        <g transform="translate(-4.91,-0.82) rotate(0.09) scale(0.960)">
        <g transform="translate(-3.85,0.37) rotate(-3.86) scale(0.940)">
        <g transform="translate(-1.84,1.53) rotate(-9.60) scale(0.920)">
        <g transform="translate(0.61,2.56) rotate(-16.80) scale(0.900)">
        <g transform="translate(2.91,3.35) rotate(-24.97) scale(0.880)">
        <circle cx="0" cy="0" r="36.9" fill="url(#rgrad1)" filter="url(#shadow)" opacity="0.40"/>
        <text x="0" y="5" text-anchor="middle" font-family="Arial, sans-serif" font-size="14" fill="#FFFFFF" opacity="0.40">871</text>
      </g>
      </g>
      </g>
      </g>
      </g>
      </g>
      </g>
  </g>
  <g transform="translate(953.3, 386.6)">
      <g transform="translate(-4.91,0.77) rotate(1.97) scale(1.000)">
        <g transform="translate(-3.85,1.89) rotate(2.04) scale(0.980)">
        <g transform="translate(-1.84,2.85) rotate(0.09) scale(0.960)">
        <g transform="translate(0.61,3.55) rotate(-3.86) scale(0.940)" clip-path="url(#clipHex)">
        <g transform="translate(2.91,3.94) rotate(-9.60) scale(0.920)">
        <g transform="translate(4.51,3.97) rotate(-16.80) scale(0.900)">
        <g transform="translate(4.99,3.65) rotate(-24.97) scale(0.880)">
        <path d="M0.0,-72.4 L21.3,-29.3 L68.8,-22.4 L34.4,11.2 L42.6,58.6 L0.0,36.2 L-42.6,58.6 L-34.4,11.2 L-68.8,-22.4 L-21.3,-29.3Z" fill="url(#lgrad2)" filter="url(#blur2)" opacity="0.52"/>
      </g>
      </g>
      </g>
      </g>
      </g>
      </g>
      </g>
  </g>
  <g transform="translate(1183.2, 369.5)">
      <g transform="translate(-1.84,3.72) rotate(1.97) scale(1.000)">
        <g transform="translate(0.61,3.99) rotate(2.04) scale(0.980)">
        <g transform="translate(2.91,3.90) rotate(0.09) scale(0.960)">
        <g transform="translate(4.51,3.47) rotate(-3.86) scale(0.940)">
        <g transform="translate(4.99,2.72) rotate(-9.60) scale(0.920)">
        <g transform="translate(4.26,1.73) rotate(-16.80) scale(0.900)" mask="url(#maskCircleFade)">
        <g transform="translate(2.48,0.59) rotate(-24.97) scale(0.880)">
        <rect x="-29.8" y="-29.8" width="59.6" height="59.6" rx="14.9" fill="url(#rgrad3)" filter="url(#shadow)" opacity="0.64"/>
        <circle cx="0" cy="0" r="19.9" fill="url(#rgrad4)" opacity="0.45"/>
      </g>
      </g>
      </g>
      </g>
      </g>
      </g>
      </g>
  </g>
  <g transform="translate(1417.2, 357.3)">
      <g transform="translate(2.91,3.25) rotate(1.97) scale(1.000)">
        <g transform="translate(4.51,2.42) rotate(2.04) scale(0.980)">
        <g transform="translate(4.99,1.37) rotate(0.09) scale(0.960)">
        <g transform="translate(4.26,0.19) rotate(-3.86) scale(0.940)">
        <g transform="translate(2.48,-1.00) rotate(-9.60) scale(0.920)">
        <g transform="translate(0.10,-2.10) rotate(-16.80) scale(0.900)">
        <g transform="translate(-2.31,-3.01) rotate(-24.97) scale(0.880)">
        <path d="M24.5,14.1 L0.0,28.3 L-24.5,14.1 L-24.5,-14.1 L-0.0,-28.3 L24.5,-14.1Z" fill="url(#rgrad4)" filter="url(#blur4)" opacity="0.74"/>
        <ellipse cx="0" cy="0" rx="11.8" ry="7.9" fill="#FFFFFF" opacity="0.37"/>
      </g>
      </g>
      </g>
      </g>
      </g>
      </g>
      </g>
  </g>
  <g transform="translate(1651.8, 355.9)">
      <g transform="translate(4.99,-0.21) rotate(1.97) scale(1.000)">
        <g transform="translate(4.26,-1.38) rotate(2.04) scale(0.980)">
        <g transform="translate(2.48,-2.43) rotate(0.09) scale(0.960)">
        <g transform="translate(0.10,-3.26) rotate(-3.86) scale(0.940)" clip-path="url(#clipCircle)">
        <g transform="translate(-2.31,-3.80) rotate(-9.60) scale(0.920)">
        <g transform="translate(-4.15,-4.00) rotate(-16.80) scale(0.900)">
        <g transform="translate(-4.98,-3.84) rotate(-24.97) scale(0.880)">
        <circle cx="0" cy="0" r="23.3" fill="url(#lgrad0)" filter="url(#shadow)" opacity="0.83"/>
        <text x="0" y="5" text-anchor="middle" font-family="Arial, sans-serif" font-size="14" fill="#FFFFFF" opacity="0.83">871</text>
      </g>
      </g>
      </g>
      </g>
      </g>
      </g>
      </g>
  </g>
  <g transform="translate(123.6, 645.7)">
      <g transform="translate(2.48,-3.47) rotate(1.97) scale(1.000)">
        <g transform="translate(0.10,-3.90) rotate(2.04) scale(0.980)">
        <g transform="translate(-2.31,-3.99) rotate(0.09) scale(0.960)">
        <g transform="translate(-4.15,-3.71) rotate(-3.86) scale(0.940)">
        <g transform="translate(-4.98,-3.11) rotate(-9.60) scale(0.920)">
        <g transform="translate(-4.59,-2.23) rotate(-16.80) scale(0.900)" mask="url(#maskGradient)">
        <g transform="translate(-3.07,-1.14) rotate(-24.97) scale(0.880)">
        <path d="M0.0,-58.3 L17.1,-23.6 L55.4,-18.0 L27.7,9.0 L34.3,47.2 L0.0,29.1 L-34.3,47.2 L-27.7,9.0 L-55.4,-18.0 L-17.1,-23.6Z" fill="url(#rgrad1)" filter="url(#blur1)" opacity="0.88"/>
      </g>
      </g>
      </g>
      </g>
      </g>
      </g>
      </g>
  </g>
  <g transform="translate(349.6, 662.3)">
      <g transform="translate(-2.31,-3.55) rotate(1.97) scale(1.000)">
        <g transform="translate(-4.15,-2.84) rotate(2.04) scale(0.980)">
        <g transform="translate(-4.98,-1.88) rotate(0.09) scale(0.960)">
        <g transform="translate(-4.59,-0.76) rotate(-3.86) scale(0.940)">
        <g transform="translate(-3.07,0.44) rotate(-9.60) scale(0.920)">
        <g transform="translate(-0.80,1.59) rotate(-16.80) scale(0.900)">
        <g transform="translate(1.66,2.61) rotate(-24.97) scale(0.880)">
        <rect x="-35.8" y="-35.8" width="71.6" height="71.6" rx="17.9" fill="url(#rgrad2)" filter="url(#shadow)" opacity="0.90"/>
        <circle cx="0" cy="0" r="23.9" fill="url(#rgrad3)" opacity="0.63"/>
      </g>
      </g>
      </g>
      </g>
      </g>
      </g>
      </g>
  </g>
  <g transform="translate(568.3, 677.8)">
      <g transform="translate(-4.98,-0.36) rotate(1.97) scale(1.000)">
        <g transform="translate(-4.59,0.83) rotate(2.04) scale(0.980)">
        <g transform="translate(-3.07,1.95) rotate(0.09) scale(0.960)">
        <g transform="translate(-0.80,2.90) rotate(-3.86) scale(0.940)" clip-path="url(#clipRect)">
        <g transform="translate(1.66,3.58) rotate(-9.60) scale(0.920)">
        <g transform="translate(3.72,3.95) rotate(-16.80) scale(0.900)">
        <g transform="translate(4.87,3.96) rotate(-24.97) scale(0.880)">
        <path d="M38.6,22.3 L0.0,44.6 L-38.6,22.3 L-38.6,-22.3 L-0.0,-44.6 L38.6,-22.3Z" fill="url(#lgrad3)" filter="url(#blur3)" opacity="0.88"/>
        <ellipse cx="0" cy="0" rx="18.6" ry="12.4" fill="#FFFFFF" opacity="0.44"/>
      </g>
      </g>
      </g>
      </g>
      </g>
      </g>
      </g>
  </g>
  <g transform="translate(780.1, 684.9)">
      <g transform="translate(-3.07,3.16) rotate(1.97) scale(1.000)">
        <g transform="translate(-0.80,3.74) rotate(2.04) scale(0.980)">
        <g transform="translate(1.66,3.99) rotate(0.09) scale(0.960)">
        <g transform="translate(3.72,3.89) rotate(-3.86) scale(0.940)">
        <g transform="translate(4.87,3.43) rotate(-9.60) scale(0.920)">
        <g transform="translate(4.82,2.67) rotate(-16.80) scale(0.900)" mask="url(#maskDynamic)">
        <g transform="translate(3.60,1.67) rotate(-24.97) scale(0.880)">
        <circle cx="0" cy="0" r="31.9" fill="url(#rgrad4)" filter="url(#shadow)" opacity="0.83"/>
        <text x="0" y="5" text-anchor="middle" font-family="Arial, sans-serif" font-size="14" fill="#FFFFFF" opacity="0.83">871</text>
      </g>
      </g>
      </g>
      </g>
      </g>
      </g>
      </g>
  </g>
  <g transform="translate(987.0, 680.3)">
      <g transform="translate(1.66,3.77) rotate(1.97) scale(1.000)">
        <g transform="translate(3.72,3.21) rotate(2.04) scale(0.980)">
        <g transform="translate(4.87,2.36) rotate(0.09) scale(0.960)">
        <g transform="translate(4.82,1.30) rotate(-3.86) scale(0.940)">
        <g transform="translate(3.60,0.13) rotate(-9.60) scale(0.920)">
        <g transform="translate(1.49,-1.06) rotate(-16.80) scale(0.900)">
        <g transform="translate(-0.98,-2.15) rotate(-24.97) scale(0.880)">
        <path d="M0.0,-49.8 L14.6,-20.2 L47.4,-15.4 L23.7,7.7 L29.3,40.3 L0.0,24.9 L-29.3,40.3 L-23.7,7.7 L-47.4,-15.4 L-14.6,-20.2Z" fill="url(#rgrad0)" filter="url(#blur0)" opacity="0.75"/>
      </g>
      </g>
      </g>
      </g>
      </g>
      </g>
      </g>
  </g>
  <g transform="translate(1192.2, 666.1)">
      <g transform="translate(4.87,0.92) rotate(1.97) scale(1.000)">
        <g transform="translate(4.82,-0.27) rotate(2.04) scale(0.980)">
        <g transform="translate(3.60,-1.44) rotate(0.09) scale(0.960)">
        <g transform="translate(1.49,-2.48) rotate(-3.86) scale(0.940)" clip-path="url(#clipStar)">
        <g transform="translate(-0.98,-3.30) rotate(-9.60) scale(0.920)">
        <g transform="translate(-3.21,-3.82) rotate(-16.80) scale(0.900)">
        <g transform="translate(-4.66,-4.00) rotate(-24.97) scale(0.880)">
        <rect x="-22.6" y="-22.6" width="45.2" height="45.2" rx="11.3" fill="url(#lgrad1)" filter="url(#shadow)" opacity="0.65"/>
        <circle cx="0" cy="0" r="15.1" fill="url(#rgrad2)" opacity="0.46"/>
      </g>
      </g>
      </g>
      </g>
      </g>
      </g>
      </g>
  </g>
  <g transform="translate(1399.2, 649.1)">
      <g transform="translate(3.60,-2.78) rotate(1.97) scale(1.000)">
        <g transform="translate(1.49,-3.51) rotate(2.04) scale(0.980)">
        <g transform="translate(-0.98,-3.92) rotate(0.09) scale(0.960)">
        <g transform="translate(-3.21,-3.98) rotate(-3.86) scale(0.940)">
        <g transform="translate(-4.66,-3.69) rotate(-9.60) scale(0.920)">
        <g transform="translate(-4.96,-3.07) rotate(-16.80) scale(0.900)" mask="url(#maskStripes)">
        <g transform="translate(-4.05,-2.17) rotate(-24.97) scale(0.880)">
        <path d="M28.2,16.3 L0.0,32.5 L-28.2,16.3 L-28.2,-16.3 L-0.0,-32.5 L28.2,-16.3Z" fill="url(#rgrad2)" filter="url(#blur2)" opacity="0.54"/>
        <ellipse cx="0" cy="0" rx="13.6" ry="9.0" fill="#FFFFFF" opacity="0.27"/>
      </g>
      </g>
      </g>
      </g>
      </g>
      </g>
      </g>
  </g>
  <g transform="translate(1611.4, 637.2)">
      <g transform="translate(-0.98,-3.92) rotate(1.97) scale(1.000)">
        <g transform="translate(-3.21,-3.52) rotate(2.04) scale(0.980)">
        <g transform="translate(-4.66,-2.79) rotate(0.09) scale(0.960)">
        <g transform="translate(-4.96,-1.82) rotate(-3.86) scale(0.940)">
        <g transform="translate(-4.05,-0.69) rotate(-9.60) scale(0.920)">
        <g transform="translate(-2.15,0.51) rotate(-16.80) scale(0.900)">
        <g transform="translate(0.28,1.66) rotate(-24.97) scale(0.880)">
        <circle cx="0" cy="0" r="34.3" fill="url(#rgrad3)" filter="url(#shadow)" opacity="0.42"/>
        <text x="0" y="5" text-anchor="middle" font-family="Arial, sans-serif" font-size="14" fill="#FFFFFF" opacity="0.42">871</text>
      </g>
      </g>
      </g>
      </g>
      </g>
      </g>
      </g>
  </g>
  <g transform="translate(70.6, 916.0)">
      <g transform="translate(-4.66,-1.46) rotate(1.97) scale(1.000)">
        <g transform="translate(-4.96,-0.29) rotate(2.04) scale(0.980)">
        <g transform="translate(-4.05,0.90) rotate(0.09) scale(0.960)">
        <g transform="translate(-2.15,2.01) rotate(-3.86) scale(0.940)" clip-path="url(#clipDynamic)">
        <g transform="translate(0.28,2.94) rotate(-9.60) scale(0.920)">
        <g transform="translate(2.64,3.61) rotate(-16.80) scale(0.900)">
        <g transform="translate(4.35,3.96) rotate(-24.97) scale(0.880)">
        <path d="M0.0,-75.0 L22.0,-30.3 L71.3,-23.2 L35.7,11.6 L44.1,60.7 L0.0,37.5 L-44.1,60.7 L-35.7,11.6 L-71.3,-23.2 L-22.0,-30.3Z" fill="url(#lgrad4)" filter="url(#blur4)" opacity="0.30"/>
      </g>
      </g>
      </g>
      </g>
      </g>
      </g>
      </g>
  </g>
  <g transform="translate(227.5, 355.1)" mask="url(#maskGradient)">
    <ellipse cx="0" cy="0" rx="200" ry="150" fill="url(#rgrad0)" filter="url(#blur3)" opacity="0.3"/>
  </g>
  <g transform="translate(818.8, 379.5)" mask="url(#maskCircleFade)">
    <ellipse cx="0" cy="0" rx="200" ry="150" fill="url(#rgrad1)" filter="url(#blur3)" opacity="0.3"/>
  </g>
  <g transform="translate(1392.8, 366.5)" mask="url(#maskStripes)">
    <ellipse cx="0" cy="0" rx="200" ry="150" fill="url(#rgrad2)" filter="url(#blur3)" opacity="0.3"/>
  </g>
</svg>