<?xml version="1.0" encoding="UTF-8"?>
<svg xmlns="http://www.w3.org/2000/svg" viewBox="0 0 1920 1080" width="1920" height="1080">
  <defs>
    <filter id="blur0" x="-50%" y="-50%" width="200%" height="200%">
      <feGaussianBlur in="SourceGraphic" stdDeviation="1"/>
    </filter>
    <filter id="blur1" x="-50%" y="-50%" width="200%" height="200%">
      <feGaussianBlur in="SourceGraphic" stdDeviation="3"/>
    </filter>
    <filter id="blur2" x="-50%" y="-50%" width="200%" height="200%">
      <feGaussianBlur in="SourceGraphic" stdDeviation="5"/>
    </filter>
    <filter id="blur3" x="-50%" y="-50%" width="200%" height="200%">
      <feGaussianBlur in="SourceGraphic" stdDeviation="7"/>
    </filter>
    <filter id="blur4" x="-50%" y="-50%" width="200%" height="200%">
      <feGaussianBlur in="SourceGraphic" stdDeviation="9"/>
    </filter>
    <filter id="shadow" x="-50%" y="-50%" width="200%" height="200%">
      <feGaussianBlur in="SourceAlpha" stdDeviation="3" result="blur"/>
      <feOffset in="blur" dx="4" dy="4" result="offsetBlur"/>
      <feMerge>
        <feMergeNode in="offsetBlur"/>
        <feMergeNode in="SourceGraphic"/>
      </feMerge>
    </filter>
    <linearGradient id="lgrad0" x1="0%" y1="0%" x2="62.1%" y2="1.5%">
      <stop offset="0%" stop-color="#FF6B6B"/>
      <stop offset="33%" stop-color="#4ECDC4"/>
      <stop offset="66%" stop-color="#45B7D1"/>
      <stop offset="100%" stop-color="#96E6A1"/>
    </linearGradient>
    <linearGradient id="lgrad1" x1="0%" y1="0%" x2="84.7%" y2="14.0%">
      <stop offset="0%" stop-color="#FFE66D"/>
      <stop offset="33%" stop-color="#FF6B6B"/>
      <stop offset="66%" stop-color="#C44D58"/>
      <stop offset="100%" stop-color="#8B0000"/>
    </linearGradient>
    <linearGradient id="lgrad2" x1="0%" y1="0%" x2="98.1%" y2="36.2%">
      <stop offset="0%" stop-color="#4169E1"/>
      <stop offset="33%" stop-color="#7B68EE"/>
      <stop offset="66%" stop-color="#9370DB"/>
      <stop offset="100%" stop-color="#FFD700"/>
    </linearGradient>
    <linearGradient id="lgrad3" x1="0%" y1="0%" x2="98.5%" y2="62.1%">
      <stop offset="0%" stop-color="#32CD32"/>
      <stop offset="33%" stop-color="#228B22"/>
      <stop offset="66%" stop-color="#006400"/>
      <stop offset="100%" stop-color="#ADFF2F"/>
    </linearGradient>
    <linearGradient id="lgrad4" x1="0%" y1="0%" x2="86.0%" y2="84.7%">
      <stop offset="0%" stop-color="#FF1493"/>
      <stop offset="33%" stop-color="#FF69B4"/>
      <stop offset="66%" stop-color="#FFB6C1"/>
      <stop offset="100%" stop-color="#FFC0CB"/>
    </linearGradient>
    <radialGradient id="rgrad0" cx="53.4%" cy="45.6%" r="60%">
      <stop offset="0%" stop-color="#FF6B6B" stop-opacity="1"/>
      <stop offset="50%" stop-color="#4ECDC4" stop-opacity="0.8"/>
      <stop offset="100%" stop-color="#45B7D1" stop-opacity="0.6"/>
    </radialGradient>
    <radialGradient id="rgrad1" cx="63.4%" cy="53.6%" r="60%">
      <stop offset="0%" stop-color="#FFE66D" stop-opacity="1"/>
      <stop offset="50%" stop-color="#FF6B6B" stop-opacity="0.8"/>
      <stop offset="100%" stop-color="#C44D58" stop-opacity="0.6"/>
    </radialGradient>
    <radialGradient id="rgrad2" cx="33.4%" cy="61.6%" r="60%">
      <stop offset="0%" stop-color="#4169E1" stop-opacity="1"/>
      <stop offset="50%" stop-color="#7B68EE" stop-opacity="0.8"/>
      <stop offset="100%" stop-color="#9370DB" stop-opacity="0.6"/>
    </radialGradient>
    <radialGradient id="rgrad3" cx="43.4%" cy="69.6%" r="60%">
      <stop offset="0%" stop-color="#32CD32" stop-opacity="1"/>
      <stop offset="50%" stop-color="#228B22" stop-opacity="0.8"/>
      <stop offset="100%" stop-color="#006400" stop-opacity="0.6"/>
    </radialGradient>
    <radialGradient id="rgrad4" cx="53.4%" cy="37.6%" r="60%">
      <stop offset="0%" stop-color="#FF1493" stop-opacity="1"/>
      <stop offset="50%" stop-color="#FF69B4" stop-opacity="0.8"/>
      <stop offset="100%" stop-color="#FFB6C1" stop-opacity="0.6"/>
    </radialGradient>
    <clipPath id="clipCircle">
      <circle cx="0" cy="0" r="50"/>
    </clipPath>
    <clipPath id="clipStar">
      <path d="M0.0,-50.0 L14.7,-20.2 L47.6,-15.5 L23.8,7.7 L29.4,40.5 L0.0,25.0 L-29.4,40.5 L-23.8,7.7 L-47.6,-15.5 L-14.7,-20.2Z"/>
    </clipPath>
    <clipPath id="clipHex">
      <path d="M39.0,22.5 L0.0,45.0 L-39.0,22.5 L-39.0,-22.5 L-0.0,-45.0 L39.0,-22.5Z"/>
    </clipPath>
    <clipPath id="clipRect">
      <rect x="-40" y="-30" width="80" height="60" rx="10"/>
    </clipPath>
    <clipPath id="clipDynamic">
      <circle cx="0" cy="0" r="37.1"/>
    </clipPath>
    <mask id="maskGradient" maskContentUnits="objectBoundingBox">
      <rect x="0" y="0" width="1" height="1" fill="url(#maskGrad)"/>
    </mask>
    <linearGradient id="maskGrad" x1="0%" y1="0%" x2="100%" y2="100%">
      <stop offset="0%" stop-color="white"/>
      <stop offset="100%" stop-color="black"/>
    </linearGradient>
    <mask id="maskCircleFade">
      <circle cx="0" cy="0" r="60" fill="white"/>
      <circle cx="0" cy="0" r="30" fill="black"/>
    </mask>
    <mask id="maskStripes">
      <rect x="-50" y="-50" width="100" height="100" fill="white"/>
      <rect x="-50" y="-40" width="100" height="10" fill="black"/>
      <rect x="-50" y="-20" width="100" height="10" fill="black"/>
      <rect x="-50" y="0" width="100" height="10" fill="black"/>
      <rect x="-50" y="20" width="100" height="10" fill="black"/>
      <rect x="-50" y="40" width="100" height="10" fill="black"/>
    </mask>
    <mask id="maskDynamic">
      <rect x="-60" y="-60" width="120" height="120" fill="white" fill-opacity="1.00"/>
      <circle cx="0" cy="0" r="25" fill="white"/>
    </mask>
  </defs>
  <rect width="1920" height="1080" fill="url(#lgrad0)"/>
  <g transform="translate(104.2, 75.2)">
      <g transform="translate(0.71,-3.96) rotate(4.99) scale(1.000)">
        <g transform="translate(-1.75,-3.95) rotate(9.92) scale(0.980)">
        <g transform="translate(-3.78,-3.59) rotate(14.19) scale(0.960)">
        <g transform="translate(-4.89,-2.90) rotate(17.26) scale(0.940)" clip-path="url(#clipCircle)">
        <g transform="translate(-4.79,-1.96) rotate(18.64) scale(0.920)">
        <g transform="translate(-3.53,-0.84) rotate(17.95) scale(0.900)">
        <g transform="translate(-1.40,0.35) rotate(14.96) scale(0.880)">
        <path d="M0.0,-75.0 L22.0,-30.3 L71.3,-23.2 L35.6,11.6 L44.1,60.6 L0.0,37.5 L-44.1,60.6 L-35.6,11.6 L-71.3,-23.2 L-22.0,-30.3Z" fill="url(#lgrad0)" filter="url(#blur0)" opacity="0.90"/>
      </g>
      </g>
      </g>
      </g>
      </g>
      </g>
      </g>
  </g>
  <g transform="translate(309.5, 78.8)">
      <g transform="translate(-3.78,-2.61) rotate(4.99) scale(1.000)">
        <g transform="translate(-4.89,-1.60) rotate(9.92) scale(0.980)">
        <g transform="translate(-4.79,-0.45) rotate(14.19) scale(0.960)">
        <g transform="translate(-3.53,0.75) rotate(17.26) scale(0.940)">
        <g transform="translate(-1.40,1.87) rotate(18.64) scale(0.920)">
        <g transform="translate(1.08,2.83) rotate(17.95) scale(0.900)" mask="url(#maskCircleFade)">
        <g transform="translate(3.29,3.54) rotate(14.96) scale(0.880)">
        <rect x="-34.5" y="-34.5" width="69.0" height="69.0" rx="17.2" fill="url(#rgrad1)" filter="url(#shadow)" opacity="0.89"/>
        <circle cx="0" cy="0" r="23.0" fill="url(#rgrad2)" opacity="0.62"/>
      </g>
      </g>
      </g>
      </g>
      </g>
      </g>
      </g>
  </g>
  <g transform="translate(517.3, 92.3)">
      <g transform="translate(-4.79,1.13) rotate(4.99) scale(1.000)">
        <g transform="translate(-3.53,2.22) rotate(9.92) scale(0.980)">
        <g transform="translate(-1.40,3.10) rotate(14.19) scale(0.960)">
        <g transform="translate(1.08,3.71) rotate(17.26) scale(0.940)">
        <g transform="translate(3.29,3.99) rotate(18.64) scale(0.920)">
        <g transform="translate(4.69,3.91) rotate(17.95) scale(0.900)">
        <g transform="translate(4.95,3.48) rotate(14.96) scale(0.880)">
        <path d="M28.4,16.4 L0.0,32.8 L-28.4,16.4 L-28.4,-16.4 L-0.0,-32.8 L28.4,-16.4Z" fill="url(#rgrad2)" filter="url(#blur2)" opacity="0.85"/>
        <ellipse cx="0" cy="0" rx="13.7" ry="9.1" fill="#FFFFFF" opacity="0.42"/>
      </g>
      </g>
      </g>
      </g>
      </g>
      </g>
      </g>
  </g>
  <g transform="translate(730.7, 109.5)">
      <g transform="translate(-1.40,3.84) rotate(4.99) scale(1.000)">
        <g transform="translate(1.08,4.00) rotate(9.92) scale(0.980)">
        <g transform="translate(3.29,3.80) rotate(14.19) scale(0.960)">
        <g transform="translate(4.69,3.26) rotate(17.26) scale(0.940)" clip-path="url(#clipRect)">
        <g transform="translate(4.95,2.43) rotate(18.64) scale(0.920)">
        <g transform="translate(3.99,1.39) rotate(17.95) scale(0.900)">
        <g transform="translate(2.06,0.22) rotate(14.96) scale(0.880)">
        <circle cx="0" cy="0" r="22.7" fill="url(#lgrad3)" filter="url(#shadow)" opacity="0.77"/>
        <text x="0" y="5" text-anchor="middle" font-family="Arial, sans-serif" font-size="14" fill="#FFFFFF" opacity="0.77">478</text>
      </g>
      </g>
      </g>
      </g>
      </g>
      </g>
      </g>
  </g>
  <g transform="translate(951.2, 122.1)">
      <g transform="translate(3.29,3.02) rotate(4.99) scale(1.000)">
        <g transform="translate(4.69,2.10) rotate(9.92) scale(0.980)">
        <g transform="translate(4.95,1.00) rotate(14.19) scale(0.960)">
        <g transform="translate(3.99,-0.18) rotate(17.26) scale(0.940)">
        <g transform="translate(2.06,-1.36) rotate(18.64) scale(0.920)">
        <g transform="translate(-0.38,-2.41) rotate(17.95) scale(0.900)" mask="url(#maskGradient)">
        <g transform="translate(-2.72,-3.24) rotate(14.96) scale(0.880)">
        <path d="M0.0,-49.4 L14.5,-20.0 L47.0,-15.3 L23.5,7.6 L29.0,40.0 L0.0,24.7 L-29.0,40.0 L-23.5,7.6 L-47.0,-15.3 L-14.5,-20.0Z" fill="url(#rgrad4)" filter="url(#blur4)" opacity="0.67"/>
      </g>
      </g>
      </g>
      </g>
      </g>
      </g>
      </g>
  </g>
  <g transform="translate(1178.8, 124.4)">
      <g transform="translate(4.95,-0.58) rotate(4.99) scale(1.000)">
        <g transform="translate(3.99,-1.73) rotate(9.92) scale(0.980)">
        <g transform="translate(2.06,-2.72) rotate(14.19) scale(0.960)">
        <g transform="translate(-0.38,-3.46) rotate(17.26) scale(0.940)">
        <g transform="translate(-2.72,-3.90) rotate(18.64) scale(0.920)">
        <g transform="translate(-4.40,-3.99) rotate(17.95) scale(0.900)">
        <g transform="translate(-5.00,-3.72) rotate(14.96) scale(0.880)">
        <rect x="-31.6" y="-31.6" width="63.2" height="63.2" rx="15.8" fill="url(#rgrad0)" filter="url(#shadow)" opacity="0.56"/>
        <circle cx="0" cy="0" r="21.1" fill="url(#rgrad1)" opacity="0.39"/>
      </g>
      </g>
      </g>
      </g>
      </g>
      </g>
      </g>
  </g>
  <g transform="translate(1411.6, 115.2)">
      <g transform="translate(2.06,-3.64) rotate(4.99) scale(1.000)">
        <g transform="translate(-0.38,-3.97) rotate(9.92) scale(0.980)">
        <g transform="translate(-2.72,-3.94) rotate(14.19) scale(0.960)">
        <g transform="translate(-4.40,-3.56) rotate(17.26) scale(0.940)" clip-path="url(#clipStar)">
        <g transform="translate(-5.00,-2.86) rotate(18.64) scale(0.920)">
        <g transform="translate(-4.38,-1.90) rotate(17.95) scale(0.900)">
        <g transform="translate(-2.68,-0.78) rotate(14.96) scale(0.880)">
        <path d="M38.5,22.2 L0.0,44.4 L-38.5,22.2 L-38.5,-22.2 L-0.0,-44.4 L38.5,-22.2Z" fill="url(#lgrad1)" filter="url(#blur1)" opacity="0.44"/>
        <ellipse cx="0" cy="0" rx="18.5" ry="12.3" fill="#FFFFFF" opacity="0.22"/>
      </g>
      </g>
      </g>
      </g>
      </g>
      </g>
      </g>
  </g>
  <g transform="translate(1646.5, 98.8)">
      <g transform="translate(-2.72,-3.36) rotate(4.99) scale(1.000)">
        <g transform="translate(-4.40,-2.56) rotate(9.92) scale(0.980)">
        <g transform="translate(-5.00,-1.54) rotate(14.19) scale(0.960)">
        <g transform="translate(-4.38,-0.38) rotate(17.26) scale(0.940)">
        <g transform="translate(-2.68,0.81) rotate(18.64) scale(0.920)">
        <g transform="translate(-0.33,1.93) rotate(17.95) scale(0.900)" mask="url(#maskDynamic)">
        <g transform="translate(2.10,2.88) rotate(14.96) scale(0.880)">
        <circle cx="0" cy="0" r="36.0" fill="url(#rgrad2)" filter="url(#shadow)" opacity="0.32"/>
        <text x="0" y="5" text-anchor="middle" font-family="Arial, sans-serif" font-size="14" fill="#FFFFFF" opacity="0.32">478</text>
      </g>
      </g>
      </g>
      </g>
      </g>
      </g>
      </g>
  </g>
  <g transform="translate(119.7, 363.0)">
      <g transform="translate(-5.00,0.02) rotate(4.99) scale(1.000)">
        <g transform="translate(-4.38,1.20) rotate(9.92) scale(0.980)">
        <g transform="translate(-2.68,2.27) rotate(14.19) scale(0.960)">
        <g transform="translate(-0.33,3.14) rotate(17.26) scale(0.940)">
        <g transform="translate(2.10,3.73) rotate(18.64) scale(0.920)">
        <g transform="translate(4.02,3.99) rotate(17.95) scale(0.900)">
        <g transform="translate(4.95,3.89) rotate(14.96) scale(0.880)">
        <path d="M0.0,-58.9 L17.3,-23.8 L56.0,-18.2 L28.0,9.1 L34.6,47.6 L0.0,29.4 L-34.6,47.6 L-28.0,9.1 L-56.0,-18.2 L-17.3,-23.8Z" fill="url(#rgrad3)" filter="url(#blur3)" opacity="0.22"/>
      </g>
      </g>
      </g>
      </g>
      </g>
      </g>
      </g>
  </g>
  <g transform="translate(348.1, 355.2)">
      <g transform="translate(-2.68,3.38) rotate(4.99) scale(1.000)">
        <g transform="translate(-0.33,3.86) rotate(9.92) scale(0.980)">
        <g transform="translate(2.10,4.00) rotate(14.19) scale(0.960)">
        <g transform="translate(4.02,3.78) rotate(17.26) scale(0.940)" clip-path="url(#clipDynamic)">
        <g transform="translate(4.95,3.22) rotate(18.64) scale(0.920)">
        <g transform="translate(4.67,2.38) rotate(17.95) scale(0.900)">
        <g transform="translate(3.25,1.32) rotate(14.96) scale(0.880)">
        <rect x="-23.4" y="-23.4" width="46.8" height="46.8" rx="11.7" fill="url(#lgrad4)" filter="url(#shadow)" opacity="0.15"/>
        <circle cx="0" cy="0" r="15.6" fill="url(#rgrad0)" opacity="0.11"/>
      </g>
      </g>
      </g>
      </g>
      </g>
      </g>
      </g>
  </g>
  <g transform="translate(569.7, 359.0)">
      <g transform="translate(2.10,3.63) rotate(4.99) scale(1.000)">
        <g transform="translate(4.02,2.97) rotate(9.92) scale(0.980)">
        <g transform="translate(4.95,2.05) rotate(14.19) scale(0.960)">
        <g transform="translate(4.67,0.94) rotate(17.26) scale(0.940)">
        <g transform="translate(3.25,-0.25) rotate(18.64) scale(0.920)">
        <g transform="translate(1.03,-1.42) rotate(17.95) scale(0.900)" mask="url(#maskStripes)">
        <g transform="translate(-1.44,-2.46) rotate(14.96) scale(0.880)">
        <path d="M24.4,14.1 L0.0,28.1 L-24.4,14.1 L-24.4,-14.1 L-0.0,-28.1 L24.4,-14.1Z" fill="url(#rgrad0)" filter="url(#blur0)" opacity="0.11"/>
        <ellipse cx="0" cy="0" rx="11.7" ry="7.8" fill="#FFFFFF" opacity="0.05"/>
      </g>
      </g>
      </g>
      </g>
      </g>
      </g>
      </g>
  </g>
  <g transform="translate(784.0, 372.7)">
      <g transform="translate(4.95,0.55) rotate(4.99) scale(1.000)">
        <g transform="translate(4.67,-0.65) rotate(9.92) scale(0.980)">
        <g transform="translate(3.25,-1.79) rotate(14.19) scale(0.960)">
        <g transform="translate(1.03,-2.76) rotate(17.26) scale(0.940)">
        <g transform="translate(-1.44,-3.50) rotate(18.64) scale(0.920)">
        <g transform="translate(-3.56,-3.91) rotate(17.95) scale(0.900)">
        <g transform="translate(-4.81,-3.98) rotate(14.96) scale(0.880)">
        <circle cx="0" cy="0" r="29.5" fill="url(#rgrad1)" filter="url(#shadow)" opacity="0.10"/>
        <text x="0" y="5" text-anchor="middle" font-family="Arial, sans-serif" font-size="14" fill="#FFFFFF" opacity="0.10">478</text>
      </g>
      </g>
      </g>
      </g>
      </g>
      </g>
      </g>
  </g>
  <g transform="translate(992.4, 389.8)">
      <g transform="translate(3.25,-3.04) rotate(4.99) scale(1.000)">
        <g transform="translate(1.03,-3.67) rotate(9.92) scale(0.980)">
        <g transform="translate(-1.44,-3.98) rotate(14.19) scale(0.960)">
        <g transform="translate(-3.56,-3.93) rotate(17.26) scale(0.940)" clip-path="url(#clipHex)">
        <g transform="translate(-4.81,-3.53) rotate(18.64) scale(0.920)">
        <g transform="translate(-4.88,-2.81) rotate(17.95) scale(0.900)">
        <g transform="translate(-3.75,-1.84) rotate(14.96) scale(0.880)">
        <path d="M0.0,-72.1 L21.2,-29.1 L68.5,-22.3 L34.3,11.1 L42.4,58.3 L0.0,36.0 L-42.4,58.3 L-34.3,11.1 L-68.5,-22.3 L-21.2,-29.1Z" fill="url(#lgrad2)" filter="url(#blur2)" opacity="0.13"/>
      </g>
      </g>
      </g>
      </g>
      </g>
      </g>
      </g>
  </g>
  <g transform="translate(1197.7, 402.3)">
      <g transform="translate(-1.44,-3.83) rotate(4.99) scale(1.000)">
        <g transform="translate(-3.56,-3.32) rotate(9.92) scale(0.980)">
        <g transform="translate(-4.81,-2.51) rotate(14.19) scale(0.960)">
        <g transform="translate(-4.88,-1.48) rotate(17.26) scale(0.940)">
        <g transform="translate(-3.75,-0.31) rotate(18.64) scale(0.920)">
        <g transform="translate(-1.71,0.88) rotate(17.95) scale(0.900)" mask="url(#maskCircleFade)">
        <g transform="translate(0.75,1.99) rotate(14.96) scale(0.880)">
        <rect x="-37.0" y="-37.0" width="74.0" height="74.0" rx="18.5" fill="url(#rgrad3)" filter="url(#shadow)" opacity="0.19"/>
        <circle cx="0" cy="0" r="24.7" fill="url(#rgrad4)" opacity="0.13"/>
      </g>
      </g>
      </g>
      </g>
      </g>
      </g>
      </g>
  </g>
  <g transform="translate(1403.7, 404.3)">
      <g transform="translate(-4.81,-1.10) rotate(4.99) scale(1.000)">
        <g transform="translate(-4.88,0.09) rotate(9.92) scale(0.980)">
        <g transform="translate(-3.75,1.26) rotate(14.19) scale(0.960)">
        <g transform="translate(-1.71,2.33) rotate(17.26) scale(0.940)">
        <g transform="translate(0.75,3.19) rotate(18.64) scale(0.920)">
        <g transform="translate(3.03,3.76) rotate(17.95) scale(0.900)">
        <g transform="translate(4.56,4.00) rotate(14.96) scale(0.880)">
        <path d="M32.8,18.9 L0.0,37.9 L-32.8,18.9 L-32.8,-18.9 L-0.0,-37.9 L32.8,-18.9Z" fill="url(#rgrad4)" filter="url(#blur4)" opacity="0.28"/>
        <ellipse cx="0" cy="0" rx="15.8" ry="10.5" fill="#FFFFFF" opacity="0.14"/>
      </g>
      </g>
      </g>
      </g>
      </g>
      </g>
      </g>
  </g>
  <g transform="translate(1613.6, 394.9)">
      <g transform="translate(-3.75,2.64) rotate(4.99) scale(1.000)">
        <g transform="translate(-1.71,3.41) rotate(9.92) scale(0.980)">
        <g transform="translate(0.75,3.88) rotate(14.19) scale(0.960)">
        <g transform="translate(3.03,3.99) rotate(17.26) scale(0.940)" clip-path="url(#clipCircle)">
        <g transform="translate(4.56,3.76) rotate(18.64) scale(0.920)">
        <g transform="translate(4.98,3.18) rotate(17.95) scale(0.900)">
        <g transform="translate(4.18,2.33) rotate(14.96) scale(0.880)">
        <circle cx="0" cy="0" r="24.7" fill="url(#lgrad0)" filter="url(#shadow)" opacity="0.39"/>
        <text x="0" y="5" text-anchor="middle" font-family="Arial, sans-serif" font-size="14" fill="#FFFFFF" opacity="0.39">478</text>
      </g>
      </g>
      </g>
      </g>
      </g>
      </g>
      </g>
  </g>
  <g transform="translate(70.0, 658.4)">
      <g transform="translate(0.75,3.95) rotate(4.99) scale(1.000)">
        <g transform="translate(3.03,3.60) rotate(9.92) scale(0.980)">
        <g transform="translate(4.56,2.93) rotate(14.19) scale(0.960)">
        <g transform="translate(4.98,1.99) rotate(17.26) scale(0.940)">
        <g transform="translate(4.18,0.87) rotate(18.64) scale(0.920)">
        <g transform="translate(2.36,-0.32) rotate(17.95) scale(0.900)" mask="url(#maskGradient)">
        <g transform="translate(-0.04,-1.48) rotate(14.96) scale(0.880)">
        <path d="M0.0,-45.4 L13.3,-18.4 L43.1,-14.0 L21.6,7.0 L26.7,36.7 L0.0,22.7 L-26.7,36.7 L-21.6,7.0 L-43.1,-14.0 L-13.3,-18.4Z" fill="url(#rgrad1)" filter="url(#blur1)" opacity="0.51"/>
      </g>
      </g>
      </g>
      </g>
      </g>
      </g>
      </g>
  </g>
  <g transform="translate(293.7, 642.7)">
      <g transform="translate(4.56,1.63) rotate(4.99) scale(1.000)">
        <g transform="translate(4.98,0.48) rotate(9.92) scale(0.980)">
        <g transform="translate(4.18,-0.72) rotate(14.19) scale(0.960)">
        <g transform="translate(2.36,-1.85) rotate(17.26) scale(0.940)">
        <g transform="translate(-0.04,-2.81) rotate(18.64) scale(0.920)">
        <g transform="translate(-2.44,-3.53) rotate(17.95) scale(0.900)">
        <g transform="translate(-4.23,-3.93) rotate(14.96) scale(0.880)">
        <rect x="-27.4" y="-27.4" width="54.9" height="54.9" rx="13.7" fill="url(#rgrad2)" filter="url(#shadow)" opacity="0.62"/>
        <circle cx="0" cy="0" r="18.3" fill="url(#rgrad3)" opacity="0.44"/>
      </g>
      </g>
      </g>
      </g>
      </g>
      </g>
      </g>
  </g>
  <g transform="translate(523.9, 635.1)">
      <g transform="translate(4.18,-2.19) rotate(4.99) scale(1.000)">
        <g transform="translate(2.36,-3.08) rotate(9.92) scale(0.980)">
        <g transform="translate(-0.04,-3.70) rotate(14.19) scale(0.960)">
        <g transform="translate(-2.44,-3.98) rotate(17.26) scale(0.940)" clip-path="url(#clipRect)">
        <g transform="translate(-4.23,-3.91) rotate(18.64) scale(0.920)">
        <g transform="translate(-4.99,-3.49) rotate(17.95) scale(0.900)">
        <g transform="translate(-4.53,-2.76) rotate(14.96) scale(0.880)">
        <path d="M35.9,20.7 L0.0,41.5 L-35.9,20.7 L-35.9,-20.7 L-0.0,-41.5 L35.9,-20.7Z" fill="url(#lgrad3)" filter="url(#blur3)" opacity="0.73"/>
        <ellipse cx="0" cy="0" rx="17.3" ry="11.5" fill="#FFFFFF" opacity="0.37"/>
      </g>
      </g>
      </g>
      </g>
      </g>
      </g>
      </g>
  </g>
  <g transform="translate(758.0, 639.3)">
      <g transform="translate(-0.04,-4.00) rotate(4.99) scale(1.000)">
        <g transform="translate(-2.44,-3.81) rotate(9.92) scale(0.980)">
        <g transform="translate(-4.23,-3.28) rotate(14.19) scale(0.960)">
        <g transform="translate(-4.99,-2.46) rotate(17.26) scale(0.940)">
        <g transform="translate(-4.53,-1.42) rotate(18.64) scale(0.920)">
        <g transform="translate(-2.96,-0.25) rotate(17.95) scale(0.900)" mask="url(#maskDynamic)">
        <g transform="translate(-0.66,0.94) rotate(14.96) scale(0.880)">
        <circle cx="0" cy="0" r="37.5" fill="url(#rgrad4)" filter="url(#shadow)" opacity="0.82"/>
        <text x="0" y="5" text-anchor="middle" font-family="Arial, sans-serif" font-size="14" fill="#FFFFFF" opacity="0.82">478</text>
      </g>
      </g>
      </g>
      </g>
      </g>
      </g>
      </g>
  </g>
  <g transform="translate(992.6, 653.1)">
      <g transform="translate(-4.23,-2.13) rotate(4.99) scale(1.000)">
        <g transform="translate(-4.99,-1.04) rotate(9.92) scale(0.980)">
        <g transform="translate(-4.53,0.15) rotate(14.19) scale(0.960)">
        <g transform="translate(-2.96,1.33) rotate(17.26) scale(0.940)">
        <g transform="translate(-0.66,2.38) rotate(18.64) scale(0.920)">
        <g transform="translate(1.80,3.23) rotate(17.95) scale(0.900)">
        <g transform="translate(3.81,3.78) rotate(14.96) scale(0.880)">
        <path d="M0.0,-67.1 L19.7,-27.1 L63.8,-20.7 L31.9,10.4 L39.4,54.3 L0.0,33.5 L-39.4,54.3 L-31.9,10.4 L-63.8,-20.7 L-19.7,-27.1Z" fill="url(#rgrad0)" filter="url(#blur0)" opacity="0.88"/>
      </g>
      </g>
      </g>
      </g>
      </g>
      </g>
      </g>
  </g>
  <g transform="translate(1224.1, 670.2)">
      <g transform="translate(-4.53,1.70) rotate(4.99) scale(1.000)">
        <g transform="translate(-2.96,2.69) rotate(9.92) scale(0.980)">
        <g transform="translate(-0.66,3.45) rotate(14.19) scale(0.960)">
        <g transform="translate(1.80,3.89) rotate(17.26) scale(0.940)" clip-path="url(#clipStar)">
        <g transform="translate(3.81,3.99) rotate(18.64) scale(0.920)">
        <g transform="translate(4.90,3.73) rotate(17.95) scale(0.900)">
        <g transform="translate(4.78,3.14) rotate(14.96) scale(0.880)">
        <rect x="-26.3" y="-26.3" width="52.7" height="52.7" rx="13.2" fill="url(#lgrad1)" filter="url(#shadow)" opacity="0.90"/>
        <circle cx="0" cy="0" r="17.6" fill="url(#rgrad2)" opacity="0.63"/>
      </g>
      </g>
      </g>
      </g>
      </g>
      </g>
      </g>
  </g>
  <g transform="translate(1449.7, 682.5)">
      <g transform="translate(-0.66,3.96) rotate(4.99) scale(1.000)">
        <g transform="translate(1.80,3.94) rotate(9.92) scale(0.980)">
        <g transform="translate(3.81,3.57) rotate(14.19) scale(0.960)">
        <g transform="translate(4.90,2.88) rotate(17.26) scale(0.940)">
        <g transform="translate(4.78,1.93) rotate(18.64) scale(0.920)">
        <g transform="translate(3.50,0.81) rotate(17.95) scale(0.900)" mask="url(#maskStripes)">
        <g transform="translate(1.35,-0.39) rotate(14.96) scale(0.880)">
        <path d="M23.4,13.5 L0.0,27.0 L-23.4,13.5 L-23.4,-13.5 L-0.0,-27.0 L23.4,-13.5Z" fill="url(#rgrad2)" filter="url(#blur2)" opacity="0.89"/>
        <ellipse cx="0" cy="0" rx="11.3" ry="7.5" fill="#FFFFFF" opacity="0.44"/>
      </g>
      </g>
      </g>
      </g>
      </g>
      </g>
      </g>
  </g>
  <g transform="translate(1668.0, 684.2)">
      <g transform="translate(3.81,2.59) rotate(4.99) scale(1.000)">
        <g transform="translate(4.90,1.57) rotate(9.92) scale(0.980)">
        <g transform="translate(4.78,0.41) rotate(14.19) scale(0.960)">
        <g transform="translate(3.50,-0.78) rotate(17.26) scale(0.940)">
        <g transform="translate(1.35,-1.91) rotate(18.64) scale(0.920)">
        <g transform="translate(-1.12,-2.86) rotate(17.95) scale(0.900)">
        <g transform="translate(-3.32,-3.56) rotate(14.96) scale(0.880)">
        <circle cx="0" cy="0" r="25.6" fill="url(#rgrad3)" filter="url(#shadow)" opacity="0.84"/>
        <text x="0" y="5" text-anchor="middle" font-family="Arial, sans-serif" font-size="14" fill="#FFFFFF" opacity="0.84">478</text>
      </g>
      </g>
      </g>
      </g>
      </g>
      </g>
      </g>
  </g>
  <g transform="translate(119.5, 954.5)">
      <g transform="translate(4.78,-1.17) rotate(4.99) scale(1.000)">
        <g transform="translate(3.50,-2.25) rotate(9.92) scale(0.980)">
        <g transform="translate(1.35,-3.12) rotate(14.19) scale(0.960)">
        <g transform="translate(-1.12,-3.72) rotate(17.26) scale(0.940)" clip-path="url(#clipDynamic)">
        <g transform="translate(-3.32,-3.99) rotate(18.64) scale(0.920)">
        <g transform="translate(-4.71,-3.90) rotate(17.95) scale(0.900)">
        <g transform="translate(-4.94,-3.46) rotate(14.96) scale(0.880)">
        <path d="M0.0,-65.4 L19.2,-26.4 L62.2,-20.2 L31.1,10.1 L38.4,52.9 L0.0,32.7 L-38.4,52.9 L-31.1,10.1 L-62.2,-20.2 L-19.2,-26.4Z" fill="url(#lgrad4)" filter="url(#blur4)" opacity="0.77"/>
      </g>
      </g>
      </g>
      </g>
      </g>
      </g>
      </g>
  </g>
  <g transform="translate(314.1, 220.8)" mask="url(#maskGradient)">
    <ellipse cx="0" cy="0" rx="200" ry="150" fill="url(#rgrad0)" filter="url(#blur3)" opacity="0.3"/>
  </g>
  <g transform="translate(724.3, 232.2)" mask="url(#maskCircleFade)">
    <ellipse cx="0" cy="0" rx="200" ry="150" fill="url(#rgrad1)" filter="url(#blur3)" opacity="0.3"/>
  </g>
  <g transform="translate(1204.1, 275.4)" mask="url(#maskStripes)">
    <ellipse cx="0" cy="0" rx="200" ry="150" fill="url(#rgrad2)" filter="url(#blur3)" opacity="0.3"/>
  </g>
</svg>