<?xml version="1.0" encoding="UTF-8"?>
<svg xmlns="http://www.w3.org/2000/svg" viewBox="0 0 1920 1080" width="1920" height="1080">
  <defs>
    <filter id="blur0" x="-50%" y="-50%" width="200%" height="200%">
      <feGaussianBlur in="SourceGraphic" stdDeviation="1"/>
    </filter>
    <filter id="blur1" x="-50%" y="-50%" width="200%" height="200%">
      <feGaussianBlur in="SourceGraphic" stdDeviation="3"/>
    </filter>
    <filter id="blur2" x="-50%" y="-50%" width="200%" height="200%">
      <feGaussianBlur in="SourceGraphic" stdDeviation="5"/>
    </filter>
    <filter id="blur3" x="-50%" y="-50%" width="200%" height="200%">
      <feGaussianBlur in="SourceGraphic" stdDeviation="7"/>
    </filter>
    <filter id="blur4" x="-50%" y="-50%" width="200%" height="200%">
      <feGaussianBlur in="SourceGraphic" stdDeviation="9"/>
    </filter>
    <filter id="shadow" x="-50%" y="-50%" width="200%" height="200%">
      <feGaussianBlur in="SourceAlpha" stdDeviation="3" result="blur"/>
      <feOffset in="blur" dx="4" dy="4" result="offsetBlur"/>
      <feMerge>
        <feMergeNode in="offsetBlur"/>
        <feMergeNode in="SourceGraphic"/>
      </feMerge>
    </filter>
    <linearGradient id="lgrad0" x1="0%" y1="0%" x2="88.6%" y2="81.8%">
      <stop offset="0%" stop-color="#FF6B6B"/>
      <stop offset="33%" stop-color="#4ECDC4"/>
      <stop offset="66%" stop-color="#45B7D1"/>
      <stop offset="100%" stop-color="#96E6A1"/>
    </linearGradient>
    <linearGradient id="lgrad1" x1="0%" y1="0%" x2="67.5%" y2="96.8%">
      <stop offset="0%" stop-color="#FFE66D"/>
      <stop offset="33%" stop-color="#FF6B6B"/>
      <stop offset="66%" stop-color="#C44D58"/>
      <stop offset="100%" stop-color="#8B0000"/>
    </linearGradient>
    <linearGradient id="lgrad2" x1="0%" y1="0%" x2="41.7%" y2="99.3%">
      <stop offset="0%" stop-color="#4169E1"/>
      <stop offset="33%" stop-color="#7B68EE"/>
      <stop offset="66%" stop-color="#9370DB"/>
      <stop offset="100%" stop-color="#FFD700"/>
    </linearGradient>
    <linearGradient id="lgrad3" x1="0%" y1="0%" x2="18.2%" y2="88.6%">
      <stop offset="0%" stop-color="#32CD32"/>
      <stop offset="33%" stop-color="#228B22"/>
      <stop offset="66%" stop-color="#006400"/>
      <stop offset="100%" stop-color="#ADFF2F"/>
    </linearGradient>
    <linearGradient id="lgrad4" x1="0%" y1="0%" x2="3.2%" y2="67.5%">
      <stop offset="0%" stop-color="#FF1493"/>
      <stop offset="33%" stop-color="#FF69B4"/>
      <stop offset="66%" stop-color="#FFB6C1"/>
      <stop offset="100%" stop-color="#FFC0CB"/>
    </linearGradient>
    <radialGradient id="rgrad0" cx="42.7%" cy="51.8%" r="60%">
      <stop offset="0%" stop-color="#FF6B6B" stop-opacity="1"/>
      <stop offset="50%" stop-color="#4ECDC4" stop-opacity="0.8"/>
      <stop offset="100%" stop-color="#45B7D1" stop-opacity="0.6"/>
    </radialGradient>
    <radialGradient id="rgrad1" cx="52.7%" cy="59.8%" r="60%">
      <stop offset="0%" stop-color="#FFE66D" stop-opacity="1"/>
      <stop offset="50%" stop-color="#FF6B6B" stop-opacity="0.8"/>
      <stop offset="100%" stop-color="#C44D58" stop-opacity="0.6"/>
    </radialGradient>
    <radialGradient id="rgrad2" cx="62.7%" cy="67.8%" r="60%">
      <stop offset="0%" stop-color="#4169E1" stop-opacity="1"/>
      <stop offset="50%" stop-color="#7B68EE" stop-opacity="0.8"/>
      <stop offset="100%" stop-color="#9370DB" stop-opacity="0.6"/>
    </radialGradient>
    <radialGradient id="rgrad3" cx="32.7%" cy="35.8%" r="60%">
      <stop offset="0%" stop-color="#32CD32" stop-opacity="1"/>
      <stop offset="50%" stop-color="#228B22" stop-opacity="0.8"/>
      <stop offset="100%" stop-color="#006400" stop-opacity="0.6"/>
    </radialGradient>
    <radialGradient id="rgrad4" cx="42.7%" cy="43.8%" r="60%">
      <stop offset="0%" stop-color="#FF1493" stop-opacity="1"/>
      <stop offset="50%" stop-color="#FF69B4" stop-opacity="0.8"/>
      <stop offset="100%" stop-color="#FFB6C1" stop-opacity="0.6"/>
    </radialGradient>
    <clipPath id="clipCircle">
      <circle cx="0" cy="0" r="50"/>
    </clipPath>
    <clipPath id="clipStar">
      <path d="M0.0,-50.0 L14.7,-20.2 L47.6,-15.5 L23.8,7.7 L29.4,40.5 L0.0,25.0 L-29.4,40.5 L-23.8,7.7 L-47.6,-15.5 L-14.7,-20.2Z"/>
    </clipPath>
    <clipPath id="clipHex">
      <path d="M39.0,22.5 L0.0,45.0 L-39.0,22.5 L-39.0,-22.5 L-0.0,-45.0 L39.0,-22.5Z"/>
    </clipPath>
    <clipPath id="clipRect">
      <rect x="-40" y="-30" width="80" height="60" rx="10"/>
    </clipPath>
    <clipPath id="clipDynamic">
      <circle cx="0" cy="0" r="20.5"/>
    </clipPath>
    <mask id="maskGradient" maskContentUnits="objectBoundingBox">
      <rect x="0" y="0" width="1" height="1" fill="url(#maskGrad)"/>
    </mask>
    <linearGradient id="maskGrad" x1="0%" y1="0%" x2="100%" y2="100%">
      <stop offset="0%" stop-color="white"/>
      <stop offset="100%" stop-color="black"/>
    </linearGradient>
    <mask id="maskCircleFade">
      <circle cx="0" cy="0" r="60" fill="white"/>
      <circle cx="0" cy="0" r="30" fill="black"/>
    </mask>
    <mask id="maskStripes">
      <rect x="-50" y="-50" width="100" height="100" fill="white"/>
      <rect x="-50" y="-40" width="100" height="10" fill="black"/>
      <rect x="-50" y="-20" width="100" height="10" fill="black"/>
      <rect x="-50" y="0" width="100" height="10" fill="black"/>
      <rect x="-50" y="20" width="100" height="10" fill="black"/>
      <rect x="-50" y="40" width="100" height="10" fill="black"/>
    </mask>
    <mask id="maskDynamic">
      <rect x="-60" y="-60" width="120" height="120" fill="white" fill-opacity="0.85"/>
      <circle cx="0" cy="0" r="25" fill="white"/>
    </mask>
  </defs>
  <rect width="1920" height="1080" fill="url(#lgrad0)"/>
  <g transform="translate(71.0, 93.6)">
      <g transform="translate(-4.83,-1.03) rotate(3.96) scale(1.000)">
        <g transform="translate(-4.86,0.16) rotate(6.56) scale(0.980)">
        <g transform="translate(-3.69,1.34) rotate(7.39) scale(0.960)">
        <g transform="translate(-1.62,2.39) rotate(6.20) scale(0.940)" clip-path="url(#clipCircle)">
        <g transform="translate(0.84,3.23) rotate(2.87) scale(0.920)">
        <g transform="translate(3.10,3.78) rotate(-2.54) scale(0.900)">
        <g transform="translate(4.60,4.00) rotate(-9.84) scale(0.880)">
        <path d="M0.0,-71.9 L21.1,-29.1 L68.4,-22.2 L34.2,11.1 L42.3,58.2 L0.0,35.9 L-42.3,58.2 L-34.2,11.1 L-68.4,-22.2 L-21.1,-29.1Z" fill="url(#lgrad0)" filter="url(#blur0)" opacity="0.82"/>
      </g>
      </g>
      </g>
      </g>
      </g>
      </g>
      </g>
  </g>
  <g transform="translate(290.9, 110.7)">
      <g transform="translate(-3.69,2.70) rotate(3.96) scale(1.000)">
        <g transform="translate(-1.62,3.45) rotate(6.56) scale(0.980)">
        <g transform="translate(0.84,3.89) rotate(7.39) scale(0.960)">
        <g transform="translate(3.10,3.99) rotate(6.20) scale(0.940)">
        <g transform="translate(4.60,3.73) rotate(2.87) scale(0.920)">
        <g transform="translate(4.98,3.14) rotate(-2.54) scale(0.900)" mask="url(#maskCircleFade)">
        <g transform="translate(4.13,2.26) rotate(-9.84) scale(0.880)">
        <rect x="-29.4" y="-29.4" width="58.7" height="58.7" rx="14.7" fill="url(#rgrad1)" filter="url(#shadow)" opacity="0.73"/>
        <circle cx="0" cy="0" r="19.6" fill="url(#rgrad2)" opacity="0.51"/>
      </g>
      </g>
      </g>
      </g>
      </g>
      </g>
      </g>
  </g>
  <g transform="translate(517.9, 122.7)">
      <g transform="translate(0.84,3.94) rotate(3.96) scale(1.000)">
        <g transform="translate(3.10,3.57) rotate(6.56) scale(0.980)">
        <g transform="translate(4.60,2.87) rotate(7.39) scale(0.960)">
        <g transform="translate(4.98,1.92) rotate(6.20) scale(0.940)">
        <g transform="translate(4.13,0.80) rotate(2.87) scale(0.920)">
        <g transform="translate(2.27,-0.40) rotate(-2.54) scale(0.900)">
        <g transform="translate(-0.14,-1.55) rotate(-9.84) scale(0.880)">
        <path d="M24.3,14.0 L0.0,28.0 L-24.3,14.0 L-24.3,-14.0 L-0.0,-28.0 L24.3,-14.0Z" fill="url(#rgrad2)" filter="url(#blur2)" opacity="0.62"/>
        <ellipse cx="0" cy="0" rx="11.7" ry="7.8" fill="#FFFFFF" opacity="0.31"/>
      </g>
      </g>
      </g>
      </g>
      </g>
      </g>
      </g>
  </g>
  <g transform="translate(750.3, 124.1)">
      <g transform="translate(4.60,1.56) rotate(3.96) scale(1.000)">
        <g transform="translate(4.98,0.40) rotate(6.56) scale(0.980)">
        <g transform="translate(4.13,-0.79) rotate(7.39) scale(0.960)">
        <g transform="translate(2.27,-1.91) rotate(6.20) scale(0.940)" clip-path="url(#clipRect)">
        <g transform="translate(-0.14,-2.87) rotate(2.87) scale(0.920)">
        <g transform="translate(-2.52,-3.56) rotate(-2.54) scale(0.900)">
        <g transform="translate(-4.28,-3.94) rotate(-9.84) scale(0.880)">
        <circle cx="0" cy="0" r="23.5" fill="url(#lgrad3)" filter="url(#shadow)" opacity="0.51"/>
        <text x="0" y="5" text-anchor="middle" font-family="Arial, sans-serif" font-size="14" fill="#FFFFFF" opacity="0.51">709</text>
      </g>
      </g>
      </g>
      </g>
      </g>
      </g>
      </g>
  </g>
  <g transform="translate(985.1, 114.1)">
      <g transform="translate(4.13,-2.26) rotate(3.96) scale(1.000)">
        <g transform="translate(2.27,-3.13) rotate(6.56) scale(0.980)">
        <g transform="translate(-0.14,-3.73) rotate(7.39) scale(0.960)">
        <g transform="translate(-2.52,-3.99) rotate(6.20) scale(0.940)">
        <g transform="translate(-4.28,-3.90) rotate(2.87) scale(0.920)">
        <g transform="translate(-5.00,-3.45) rotate(-2.54) scale(0.900)" mask="url(#maskGradient)">
        <g transform="translate(-4.49,-2.70) rotate(-9.84) scale(0.880)">
        <path d="M0.0,-59.1 L17.4,-23.9 L56.3,-18.3 L28.1,9.1 L34.8,47.9 L0.0,29.6 L-34.8,47.9 L-28.1,9.1 L-56.3,-18.3 L-17.4,-23.9Z" fill="url(#rgrad4)" filter="url(#blur4)" opacity="0.39"/>
      </g>
      </g>
      </g>
      </g>
      </g>
      </g>
      </g>
  </g>
  <g transform="translate(1218.6, 97.5)">
      <g transform="translate(-0.14,-4.00) rotate(3.96) scale(1.000)">
        <g transform="translate(-2.52,-3.79) rotate(6.56) scale(0.980)">
        <g transform="translate(-4.28,-3.24) rotate(7.39) scale(0.960)">
        <g transform="translate(-5.00,-2.40) rotate(6.20) scale(0.940)">
        <g transform="translate(-4.49,-1.34) rotate(2.87) scale(0.920)">
        <g transform="translate(-2.88,-0.17) rotate(-2.54) scale(0.900)">
        <g transform="translate(-0.57,1.02) rotate(-9.84) scale(0.880)">
        <rect x="-36.1" y="-36.1" width="72.1" height="72.1" rx="18.0" fill="url(#rgrad0)" filter="url(#shadow)" opacity="0.28"/>
        <circle cx="0" cy="0" r="24.0" fill="url(#rgrad1)" opacity="0.20"/>
      </g>
      </g>
      </g>
      </g>
      </g>
      </g>
      </g>
  </g>
  <g transform="translate(1447.6, 82.1)">
      <g transform="translate(-4.28,-2.07) rotate(3.96) scale(1.000)">
        <g transform="translate(-5.00,-0.96) rotate(6.56) scale(0.980)">
        <g transform="translate(-4.49,0.23) rotate(7.39) scale(0.960)">
        <g transform="translate(-2.88,1.40) rotate(6.20) scale(0.940)" clip-path="url(#clipStar)">
        <g transform="translate(-0.57,2.44) rotate(2.87) scale(0.920)">
        <g transform="translate(1.89,3.27) rotate(-2.54) scale(0.900)">
        <g transform="translate(3.87,3.81) rotate(-9.84) scale(0.880)">
        <path d="M38.4,22.2 L0.0,44.4 L-38.4,22.2 L-38.4,-22.2 L-0.0,-44.4 L38.4,-22.2Z" fill="url(#lgrad1)" filter="url(#blur1)" opacity="0.19"/>
        <ellipse cx="0" cy="0" rx="18.5" ry="12.3" fill="#FFFFFF" opacity="0.10"/>
      </g>
      </g>
      </g>
      </g>
      </g>
      </g>
      </g>
  </g>
  <g transform="translate(1669.9, 75.1)">
      <g transform="translate(-4.49,1.77) rotate(3.96) scale(1.000)">
        <g transform="translate(-2.88,2.75) rotate(6.56) scale(0.980)">
        <g transform="translate(-0.57,3.48) rotate(7.39) scale(0.960)">
        <g transform="translate(1.89,3.91) rotate(6.20) scale(0.940)">
        <g transform="translate(3.87,3.99) rotate(2.87) scale(0.920)">
        <g transform="translate(4.92,3.70) rotate(-2.54) scale(0.900)" mask="url(#maskDynamic)">
        <g transform="translate(4.75,3.09) rotate(-9.84) scale(0.880)">
        <circle cx="0" cy="0" r="31.5" fill="url(#rgrad2)" filter="url(#shadow)" opacity="0.13"/>
        <text x="0" y="5" text-anchor="middle" font-family="Arial, sans-serif" font-size="14" fill="#FFFFFF" opacity="0.13">709</text>
      </g>
      </g>
      </g>
      </g>
      </g>
      </g>
      </g>
  </g>
  <g transform="translate(124.8, 359.8)">
      <g transform="translate(-0.57,3.97) rotate(3.96) scale(1.000)">
        <g transform="translate(1.89,3.93) rotate(6.56) scale(0.980)">
        <g transform="translate(3.87,3.54) rotate(7.39) scale(0.960)">
        <g transform="translate(4.92,2.83) rotate(6.20) scale(0.940)">
        <g transform="translate(4.75,1.86) rotate(2.87) scale(0.920)">
        <g transform="translate(3.43,0.73) rotate(-2.54) scale(0.900)">
        <g transform="translate(1.26,-0.46) rotate(-9.84) scale(0.880)">
        <path d="M0.0,-49.2 L14.5,-19.9 L46.8,-15.2 L23.4,7.6 L28.9,39.8 L0.0,24.6 L-28.9,39.8 L-23.4,7.6 L-46.8,-15.2 L-14.5,-19.9Z" fill="url(#rgrad3)" filter="url(#blur3)" opacity="0.10"/>
      </g>
      </g>
      </g>
      </g>
      </g>
      </g>
      </g>
  </g>
  <g transform="translate(333.6, 374.0)">
      <g transform="translate(3.87,2.53) rotate(3.96) scale(1.000)">
        <g transform="translate(4.92,1.50) rotate(6.56) scale(0.980)">
        <g transform="translate(4.75,0.34) rotate(7.39) scale(0.960)">
        <g transform="translate(3.43,-0.86) rotate(6.20) scale(0.940)" clip-path="url(#clipDynamic)">
        <g transform="translate(1.26,-1.97) rotate(2.87) scale(0.920)">
        <g transform="translate(-1.21,-2.91) rotate(-2.54) scale(0.900)">
        <g transform="translate(-3.39,-3.59) rotate(-9.84) scale(0.880)">
        <rect x="-22.7" y="-22.7" width="45.4" height="45.4" rx="11.3" fill="url(#lgrad4)" filter="url(#shadow)" opacity="0.11"/>
        <circle cx="0" cy="0" r="15.1" fill="url(#rgrad0)" opacity="0.08"/>
      </g>
      </g>
      </g>
      </g>
      </g>
      </g>
      </g>
  </g>
  <g transform="translate(539.2, 391.0)">
      <g transform="translate(4.75,-1.24) rotate(3.96) scale(1.000)">
        <g transform="translate(3.43,-2.31) rotate(6.56) scale(0.980)">
        <g transform="translate(1.26,-3.17) rotate(7.39) scale(0.960)">
        <g transform="translate(-1.21,-3.75) rotate(6.20) scale(0.940)">
        <g transform="translate(-3.39,-3.99) rotate(2.87) scale(0.920)">
        <g transform="translate(-4.74,-3.88) rotate(-2.54) scale(0.900)" mask="url(#maskStripes)">
        <g transform="translate(-4.92,-3.42) rotate(-9.84) scale(0.880)">
        <path d="M28.6,16.5 L0.0,33.0 L-28.6,16.5 L-28.6,-16.5 L-0.0,-33.0 L28.6,-16.5Z" fill="url(#rgrad0)" filter="url(#blur0)" opacity="0.15"/>
        <ellipse cx="0" cy="0" rx="13.7" ry="9.2" fill="#FFFFFF" opacity="0.08"/>
      </g>
      </g>
      </g>
      </g>
      </g>
      </g>
      </g>
  </g>
  <g transform="translate(744.9, 402.9)">
      <g transform="translate(1.26,-3.87) rotate(3.96) scale(1.000)">
        <g transform="translate(-1.21,-4.00) rotate(6.56) scale(0.980)">
        <g transform="translate(-3.39,-3.76) rotate(7.39) scale(0.960)">
        <g transform="translate(-4.74,-3.20) rotate(6.20) scale(0.940)">
        <g transform="translate(-4.92,-2.34) rotate(2.87) scale(0.920)">
        <g transform="translate(-3.91,-1.28) rotate(-2.54) scale(0.900)">
        <g transform="translate(-1.93,-0.10) rotate(-9.84) scale(0.880)">
        <circle cx="0" cy="0" r="34.6" fill="url(#rgrad1)" filter="url(#shadow)" opacity="0.23"/>
        <text x="0" y="5" text-anchor="middle" font-family="Arial, sans-serif" font-size="14" fill="#FFFFFF" opacity="0.23">709</text>
      </g>
      </g>
      </g>
      </g>
      </g>
      </g>
      </g>
  </g>
  <g transform="translate(954.3, 404.0)">
      <g transform="translate(-3.39,-2.94) rotate(3.96) scale(1.000)">
        <g transform="translate(-4.74,-2.01) rotate(6.56) scale(0.980)">
        <g transform="translate(-4.92,-0.90) rotate(7.39) scale(0.960)">
        <g transform="translate(-3.91,0.30) rotate(6.20) scale(0.940)" clip-path="url(#clipHex)">
        <g transform="translate(-1.93,1.46) rotate(2.87) scale(0.920)">
        <g transform="translate(0.52,2.50) rotate(-2.54) scale(0.900)">
        <g transform="translate(2.84,3.31) rotate(-9.84) scale(0.880)">
        <path d="M0.0,-74.9 L22.0,-30.3 L71.3,-23.2 L35.6,11.6 L44.0,60.6 L0.0,37.5 L-44.0,60.6 L-35.6,11.6 L-71.3,-23.2 L-22.0,-30.3Z" fill="url(#lgrad2)" filter="url(#blur2)" opacity="0.32"/>
      </g>
      </g>
      </g>
      </g>
      </g>
      </g>
      </g>
  </g>
  <g transform="translate(1170.0, 393.8)">
      <g transform="translate(-4.92,0.69) rotate(3.96) scale(1.000)">
        <g transform="translate(-3.91,1.83) rotate(6.56) scale(0.980)">
        <g transform="translate(-1.93,2.80) rotate(7.39) scale(0.960)">
        <g transform="translate(0.52,3.52) rotate(6.20) scale(0.940)">
        <g transform="translate(2.84,3.92) rotate(2.87) scale(0.920)">
        <g transform="translate(4.46,3.98) rotate(-2.54) scale(0.900)" mask="url(#maskCircleFade)">
        <g transform="translate(5.00,3.68) rotate(-9.84) scale(0.880)">
        <rect x="-33.5" y="-33.5" width="66.9" height="66.9" rx="16.7" fill="url(#rgrad3)" filter="url(#shadow)" opacity="0.44"/>
        <circle cx="0" cy="0" r="22.3" fill="url(#rgrad4)" opacity="0.31"/>
      </g>
      </g>
      </g>
      </g>
      </g>
      </g>
      </g>
  </g>
  <g transform="translate(1393.1, 377.1)">
      <g transform="translate(-1.93,3.69) rotate(3.96) scale(1.000)">
        <g transform="translate(0.52,3.98) rotate(6.56) scale(0.980)">
        <g transform="translate(2.84,3.92) rotate(7.39) scale(0.960)">
        <g transform="translate(4.46,3.50) rotate(6.20) scale(0.940)">
        <g transform="translate(5.00,2.78) rotate(2.87) scale(0.920)">
        <g transform="translate(4.31,1.80) rotate(-2.54) scale(0.900)">
        <g transform="translate(2.56,0.67) rotate(-9.84) scale(0.880)">
        <path d="M27.3,15.8 L0.0,31.5 L-27.3,15.8 L-27.3,-15.8 L-0.0,-31.5 L27.3,-15.8Z" fill="url(#rgrad4)" filter="url(#blur4)" opacity="0.56"/>
        <ellipse cx="0" cy="0" rx="13.1" ry="8.8" fill="#FFFFFF" opacity="0.28"/>
      </g>
      </g>
      </g>
      </g>
      </g>
      </g>
      </g>
  </g>
  <g transform="translate(1622.7, 361.8)">
      <g transform="translate(2.84,3.29) rotate(3.96) scale(1.000)">
        <g transform="translate(4.46,2.48) rotate(6.56) scale(0.980)">
        <g transform="translate(5.00,1.44) rotate(7.39) scale(0.960)">
        <g transform="translate(4.31,0.27) rotate(6.20) scale(0.940)" clip-path="url(#clipCircle)">
        <g transform="translate(2.56,-0.92) rotate(2.87) scale(0.920)">
        <g transform="translate(0.19,-2.03) rotate(-2.54) scale(0.900)">
        <g transform="translate(-2.23,-2.96) rotate(-9.84) scale(0.880)">
        <circle cx="0" cy="0" r="22.5" fill="url(#lgrad0)" filter="url(#shadow)" opacity="0.67"/>
        <text x="0" y="5" text-anchor="middle" font-family="Arial, sans-serif" font-size="14" fill="#FFFFFF" opacity="0.67">709</text>
      </g>
      </g>
      </g>
      </g>
      </g>
      </g>
      </g>
  </g>
  <g transform="translate(96.6, 635.0)">
      <g transform="translate(5.00,-0.13) rotate(3.96) scale(1.000)">
        <g transform="translate(4.31,-1.31) rotate(6.56) scale(0.980)">
        <g transform="translate(2.56,-2.36) rotate(7.39) scale(0.960)">
        <g transform="translate(0.19,-3.21) rotate(6.20) scale(0.940)">
        <g transform="translate(-2.23,-3.77) rotate(2.87) scale(0.920)">
        <g transform="translate(-4.10,-4.00) rotate(-2.54) scale(0.900)" mask="url(#maskGradient)">
        <g transform="translate(-4.97,-3.86) rotate(-9.84) scale(0.880)">
        <path d="M0.0,-51.2 L15.1,-20.7 L48.7,-15.8 L24.4,7.9 L30.1,41.5 L0.0,25.6 L-30.1,41.5 L-24.4,7.9 L-48.7,-15.8 L-15.1,-20.7Z" fill="url(#rgrad1)" filter="url(#blur1)" opacity="0.77"/>
      </g>
      </g>
      </g>
      </g>
      </g>
      </g>
      </g>
  </g>
  <g transform="translate(331.3, 640.0)">
      <g transform="translate(2.56,-3.43) rotate(3.96) scale(1.000)">
        <g transform="translate(0.19,-3.89) rotate(6.56) scale(0.980)">
        <g transform="translate(-2.23,-3.99) rotate(7.39) scale(0.960)">
        <g transform="translate(-4.10,-3.74) rotate(6.20) scale(0.940)">
        <g transform="translate(-4.97,-3.16) rotate(2.87) scale(0.920)">
        <g transform="translate(-4.62,-2.29) rotate(-2.54) scale(0.900)">
        <g transform="translate(-3.14,-1.22) rotate(-9.84) scale(0.880)">
        <rect x="-32.8" y="-32.8" width="65.5" height="65.5" rx="16.4" fill="url(#rgrad2)" filter="url(#shadow)" opacity="0.85"/>
        <circle cx="0" cy="0" r="21.8" fill="url(#rgrad3)" opacity="0.59"/>
      </g>
      </g>
      </g>
      </g>
      </g>
      </g>
      </g>
  </g>
  <g transform="translate(563.2, 654.4)">
      <g transform="translate(-2.23,-3.58) rotate(3.96) scale(1.000)">
        <g transform="translate(-4.10,-2.89) rotate(6.56) scale(0.980)">
        <g transform="translate(-4.97,-1.95) rotate(7.39) scale(0.960)">
        <g transform="translate(-4.62,-0.83) rotate(6.20) scale(0.940)" clip-path="url(#clipRect)">
        <g transform="translate(-3.14,0.36) rotate(2.87) scale(0.920)">
        <g transform="translate(-0.89,1.52) rotate(-2.54) scale(0.900)">
        <g transform="translate(1.57,2.55) rotate(-9.84) scale(0.880)">
        <path d="M38.8,22.4 L0.0,44.8 L-38.8,22.4 L-38.8,-22.4 L-0.0,-44.8 L38.8,-22.4Z" fill="url(#lgrad3)" filter="url(#blur3)" opacity="0.89"/>
        <ellipse cx="0" cy="0" rx="18.7" ry="12.5" fill="#FFFFFF" opacity="0.44"/>
      </g>
      </g>
      </g>
      </g>
      </g>
      </g>
      </g>
  </g>
  <g transform="translate(789.5, 671.4)">
      <g transform="translate(-4.97,-0.44) rotate(3.96) scale(1.000)">
        <g transform="translate(-4.62,0.76) rotate(6.56) scale(0.980)">
        <g transform="translate(-3.14,1.89) rotate(7.39) scale(0.960)">
        <g transform="translate(-0.89,2.84) rotate(6.20) scale(0.940)">
        <g transform="translate(1.57,3.55) rotate(2.87) scale(0.920)">
        <g transform="translate(3.66,3.94) rotate(-2.54) scale(0.900)" mask="url(#maskDynamic)">
        <g transform="translate(4.84,3.97) rotate(-9.84) scale(0.880)">
        <circle cx="0" cy="0" r="35.2" fill="url(#rgrad4)" filter="url(#shadow)" opacity="0.90"/>
        <text x="0" y="5" text-anchor="middle" font-family="Arial, sans-serif" font-size="14" fill="#FFFFFF" opacity="0.90">709</text>
      </g>
      </g>
      </g>
      </g>
      </g>
      </g>
      </g>
  </g>
  <g transform="translate(1008.5, 683.1)">
      <g transform="translate(-3.14,3.11) rotate(3.96) scale(1.000)">
        <g transform="translate(-0.89,3.71) rotate(6.56) scale(0.980)">
        <g transform="translate(1.57,3.99) rotate(7.39) scale(0.960)">
        <g transform="translate(3.66,3.90) rotate(6.20) scale(0.940)">
        <g transform="translate(4.84,3.47) rotate(2.87) scale(0.920)">
        <g transform="translate(4.85,2.73) rotate(-2.54) scale(0.900)">
        <g transform="translate(3.66,1.74) rotate(-9.84) scale(0.880)">
        <path d="M0.0,-56.5 L16.6,-22.9 L53.7,-17.5 L26.9,8.7 L33.2,45.7 L0.0,28.3 L-33.2,45.7 L-26.9,8.7 L-53.7,-17.5 L-16.6,-22.9Z" fill="url(#rgrad0)" filter="url(#blur0)" opacity="0.87"/>
      </g>
      </g>
      </g>
      </g>
      </g>
      </g>
      </g>
  </g>
  <g transform="translate(1220.6, 683.9)">
      <g transform="translate(1.57,3.80) rotate(3.96) scale(1.000)">
        <g transform="translate(3.66,3.26) rotate(6.56) scale(0.980)">
        <g transform="translate(4.84,2.42) rotate(7.39) scale(0.960)">
        <g transform="translate(4.85,1.37) rotate(6.20) scale(0.940)" clip-path="url(#clipStar)">
        <g transform="translate(3.66,0.20) rotate(2.87) scale(0.920)">
        <g transform="translate(1.58,-0.99) rotate(-2.54) scale(0.900)">
        <g transform="translate(-0.89,-2.09) rotate(-9.84) scale(0.880)">
        <rect x="-22.9" y="-22.9" width="45.8" height="45.8" rx="11.5" fill="url(#lgrad1)" filter="url(#shadow)" opacity="0.81"/>
        <circle cx="0" cy="0" r="15.3" fill="url(#rgrad2)" opacity="0.57"/>
      </g>
      </g>
      </g>
      </g>
      </g>
      </g>
      </g>
  </g>
  <g transform="translate(1427.6, 673.4)">
      <g transform="translate(4.84,0.99) rotate(3.96) scale(1.000)">
        <g transform="translate(4.85,-0.20) rotate(6.56) scale(0.980)">
        <g transform="translate(3.66,-1.37) rotate(7.39) scale(0.960)">
        <g transform="translate(1.58,-2.42) rotate(6.20) scale(0.940)">
        <g transform="translate(-0.89,-3.25) rotate(2.87) scale(0.920)">
        <g transform="translate(-3.14,-3.80) rotate(-2.54) scale(0.900)" mask="url(#maskStripes)">
        <g transform="translate(-4.62,-4.00) rotate(-9.84) scale(0.880)">
        <path d="M25.0,14.5 L0.0,28.9 L-25.0,14.5 L-25.0,-14.5 L-0.0,-28.9 L25.0,-14.5Z" fill="url(#rgrad2)" filter="url(#blur2)" opacity="0.73"/>
        <ellipse cx="0" cy="0" rx="12.0" ry="8.0" fill="#FFFFFF" opacity="0.36"/>
      </g>
      </g>
      </g>
      </g>
      </g>
      </g>
      </g>
  </g>
  <g transform="translate(1632.7, 656.7)">
      <g transform="translate(3.66,-2.72) rotate(3.96) scale(1.000)">
        <g transform="translate(1.58,-3.47) rotate(6.56) scale(0.980)">
        <g transform="translate(-0.89,-3.90) rotate(7.39) scale(0.960)">
        <g transform="translate(-3.14,-3.99) rotate(6.20) scale(0.940)">
        <g transform="translate(-4.62,-3.72) rotate(2.87) scale(0.920)">
        <g transform="translate(-4.97,-3.11) rotate(-2.54) scale(0.900)">
        <g transform="translate(-4.10,-2.23) rotate(-9.84) scale(0.880)">
        <circle cx="0" cy="0" r="30.7" fill="url(#rgrad3)" filter="url(#shadow)" opacity="0.62"/>
        <text x="0" y="5" text-anchor="middle" font-family="Arial, sans-serif" font-size="14" fill="#FFFFFF" opacity="0.62">709</text>
      </g>
      </g>
      </g>
      </g>
      </g>
      </g>
      </g>
  </g>
  <g transform="translate(79.7, 921.5)">
      <g transform="translate(-0.89,-3.94) rotate(3.96) scale(1.000)">
        <g transform="translate(-3.14,-3.55) rotate(6.56) scale(0.980)">
        <g transform="translate(-4.62,-2.85) rotate(7.39) scale(0.960)">
        <g transform="translate(-4.97,-1.89) rotate(6.20) scale(0.940)" clip-path="url(#clipDynamic)">
        <g transform="translate(-4.10,-0.76) rotate(2.87) scale(0.920)">
        <g transform="translate(-2.23,0.43) rotate(-2.54) scale(0.900)">
        <g transform="translate(0.19,1.59) rotate(-9.84) scale(0.880)">
        <path d="M0.0,-73.3 L21.5,-29.7 L69.7,-22.7 L34.9,11.3 L43.1,59.3 L0.0,36.7 L-43.1,59.3 L-34.9,11.3 L-69.7,-22.7 L-21.5,-29.7Z" fill="url(#lgrad4)" filter="url(#blur4)" opacity="0.50"/>
      </g>
      </g>
      </g>
      </g>
      </g>
      </g>
      </g>
  </g>
  <g transform="translate(203.3, 279.5)" mask="url(#maskGradient)">
    <ellipse cx="0" cy="0" rx="200" ry="150" fill="url(#rgrad0)" filter="url(#blur3)" opacity="0.3"/>
  </g>
  <g transform="translate(726.2, 334.1)" mask="url(#maskCircleFade)">
    <ellipse cx="0" cy="0" rx="200" ry="150" fill="url(#rgrad1)" filter="url(#blur3)" opacity="0.3"/>
  </g>
  <g transform="translate(1316.9, 372.7)" mask="url(#maskStripes)">
    <ellipse cx="0" cy="0" rx="200" ry="150" fill="url(#rgrad2)" filter="url(#blur3)" opacity="0.3"/>
  </g>
</svg>