<?xml version="1.0" encoding="UTF-8"?>
<svg xmlns="http://www.w3.org/2000/svg" viewBox="0 0 1920 1080" width="1920" height="1080">
  <defs>
    <filter id="blur0" x="-50%" y="-50%" width="200%" height="200%">
      <feGaussianBlur in="SourceGraphic" stdDeviation="1"/>
    </filter>
    <filter id="blur1" x="-50%" y="-50%" width="200%" height="200%">
      <feGaussianBlur in="SourceGraphic" stdDeviation="3"/>
    </filter>
    <filter id="blur2" x="-50%" y="-50%" width="200%" height="200%">
      <feGaussianBlur in="SourceGraphic" stdDeviation="5"/>
    </filter>
    <filter id="blur3" x="-50%" y="-50%" width="200%" height="200%">
      <feGaussianBlur in="SourceGraphic" stdDeviation="7"/>
    </filter>
    <filter id="blur4" x="-50%" y="-50%" width="200%" height="200%">
      <feGaussianBlur in="SourceGraphic" stdDeviation="9"/>
    </filter>
    <filter id="shadow" x="-50%" y="-50%" width="200%" height="200%">
      <feGaussianBlur in="SourceAlpha" stdDeviation="3" result="blur"/>
      <feOffset in="blur" dx="4" dy="4" result="offsetBlur"/>
      <feMerge>
        <feMergeNode in="offsetBlur"/>
        <feMergeNode in="SourceGraphic"/>
      </feMerge>
    </filter>
    <linearGradient id="lgrad0" x1="0%" y1="0%" x2="83.8%" y2="13.1%">
      <stop offset="0%" stop-color="#FF6B6B"/>
      <stop offset="33%" stop-color="#4ECDC4"/>
      <stop offset="66%" stop-color="#45B7D1"/>
      <stop offset="100%" stop-color="#96E6A1"/>
    </linearGradient>
    <linearGradient id="lgrad1" x1="0%" y1="0%" x2="97.7%" y2="35.0%">
      <stop offset="0%" stop-color="#FFE66D"/>
      <stop offset="33%" stop-color="#FF6B6B"/>
      <stop offset="66%" stop-color="#C44D58"/>
      <stop offset="100%" stop-color="#8B0000"/>
    </linearGradient>
    <linearGradient id="lgrad2" x1="0%" y1="0%" x2="98.8%" y2="60.8%">
      <stop offset="0%" stop-color="#4169E1"/>
      <stop offset="33%" stop-color="#7B68EE"/>
      <stop offset="66%" stop-color="#9370DB"/>
      <stop offset="100%" stop-color="#FFD700"/>
    </linearGradient>
    <linearGradient id="lgrad3" x1="0%" y1="0%" x2="86.9%" y2="83.8%">
      <stop offset="0%" stop-color="#32CD32"/>
      <stop offset="33%" stop-color="#228B22"/>
      <stop offset="66%" stop-color="#006400"/>
      <stop offset="100%" stop-color="#ADFF2F"/>
    </linearGradient>
    <linearGradient id="lgrad4" x1="0%" y1="0%" x2="65.0%" y2="97.7%">
      <stop offset="0%" stop-color="#FF1493"/>
      <stop offset="33%" stop-color="#FF69B4"/>
      <stop offset="66%" stop-color="#FFB6C1"/>
      <stop offset="100%" stop-color="#FFC0CB"/>
    </linearGradient>
    <radialGradient id="rgrad0" cx="30.5%" cy="57.0%" r="60%">
      <stop offset="0%" stop-color="#FF6B6B" stop-opacity="1"/>
      <stop offset="50%" stop-color="#4ECDC4" stop-opacity="0.8"/>
      <stop offset="100%" stop-color="#45B7D1" stop-opacity="0.6"/>
    </radialGradient>
    <radialGradient id="rgrad1" cx="40.5%" cy="65.0%" r="60%">
      <stop offset="0%" stop-color="#FFE66D" stop-opacity="1"/>
      <stop offset="50%" stop-color="#FF6B6B" stop-opacity="0.8"/>
      <stop offset="100%" stop-color="#C44D58" stop-opacity="0.6"/>
    </radialGradient>
    <radialGradient id="rgrad2" cx="50.5%" cy="33.0%" r="60%">
      <stop offset="0%" stop-color="#4169E1" stop-opacity="1"/>
      <stop offset="50%" stop-color="#7B68EE" stop-opacity="0.8"/>
      <stop offset="100%" stop-color="#9370DB" stop-opacity="0.6"/>
    </radialGradient>
    <radialGradient id="rgrad3" cx="60.5%" cy="41.0%" r="60%">
      <stop offset="0%" stop-color="#32CD32" stop-opacity="1"/>
      <stop offset="50%" stop-color="#228B22" stop-opacity="0.8"/>
      <stop offset="100%" stop-color="#006400" stop-opacity="0.6"/>
    </radialGradient>
    <radialGradient id="rgrad4" cx="30.5%" cy="49.0%" r="60%">
      <stop offset="0%" stop-color="#FF1493" stop-opacity="1"/>
      <stop offset="50%" stop-color="#FF69B4" stop-opacity="0.8"/>
      <stop offset="100%" stop-color="#FFB6C1" stop-opacity="0.6"/>
    </radialGradient>
    <clipPath id="clipCircle">
      <circle cx="0" cy="0" r="50"/>
    </clipPath>
    <clipPath id="clipStar">
      <path d="M0.0,-50.0 L14.7,-20.2 L47.6,-15.5 L23.8,7.7 L29.4,40.5 L0.0,25.0 L-29.4,40.5 L-23.8,7.7 L-47.6,-15.5 L-14.7,-20.2Z"/>
    </clipPath>
    <clipPath id="clipHex">
      <path d="M39.0,22.5 L0.0,45.0 L-39.0,22.5 L-39.0,-22.5 L-0.0,-45.0 L39.0,-22.5Z"/>
    </clipPath>
    <clipPath id="clipRect">
      <rect x="-40" y="-30" width="80" height="60" rx="10"/>
    </clipPath>
    <clipPath id="clipDynamic">
      <circle cx="0" cy="0" r="31.8"/>
    </clipPath>
    <mask id="maskGradient" maskContentUnits="objectBoundingBox">
      <rect x="0" y="0" width="1" height="1" fill="url(#maskGrad)"/>
    </mask>
    <linearGradient id="maskGrad" x1="0%" y1="0%" x2="100%" y2="100%">
      <stop offset="0%" stop-color="white"/>
      <stop offset="100%" stop-color="black"/>
    </linearGradient>
    <mask id="maskCircleFade">
      <circle cx="0" cy="0" r="60" fill="white"/>
      <circle cx="0" cy="0" r="30" fill="black"/>
    </mask>
    <mask id="maskStripes">
      <rect x="-50" y="-50" width="100" height="100" fill="white"/>
      <rect x="-50" y="-40" width="100" height="10" fill="black"/>
      <rect x="-50" y="-20" width="100" height="10" fill="black"/>
      <rect x="-50" y="0" width="100" height="10" fill="black"/>
      <rect x="-50" y="20" width="100" height="10" fill="black"/>
      <rect x="-50" y="40" width="100" height="10" fill="black"/>
    </mask>
    <mask id="maskDynamic">
      <rect x="-60" y="-60" width="120" height="120" fill="white" fill-opacity="1.00"/>
      <circle cx="0" cy="0" r="25" fill="white"/>
    </mask>
  </defs>
  <rect width="1920" height="1080" fill="url(#lgrad0)"/>
  <g transform="translate(93.5, 75.6)">
      <g transform="translate(-1.08,-3.91) rotate(4.97) scale(1.000)">
        <g transform="translate(-3.29,-3.48) rotate(9.53) scale(0.980)">
        <g transform="translate(-4.69,-2.74) rotate(13.10) scale(0.960)">
        <g transform="translate(-4.95,-1.75) rotate(15.19) scale(0.940)" clip-path="url(#clipCircle)">
        <g transform="translate(-3.99,-0.61) rotate(15.37) scale(0.920)">
        <g transform="translate(-2.06,0.58) rotate(13.38) scale(0.900)">
        <g transform="translate(0.38,1.73) rotate(9.08) scale(0.880)">
        <path d="M0.0,-74.9 L22.0,-30.3 L71.2,-23.1 L35.6,11.6 L44.0,60.6 L0.0,37.5 L-44.0,60.6 L-35.6,11.6 L-71.2,-23.1 L-22.0,-30.3Z" fill="url(#lgrad0)" filter="url(#blur0)" opacity="0.90"/>
      </g>
      </g>
      </g>
      </g>
      </g>
      </g>
      </g>
  </g>
  <g transform="translate(300.3, 84.8)">
      <g transform="translate(-4.69,-1.39) rotate(4.97) scale(1.000)">
        <g transform="translate(-4.95,-0.22) rotate(9.53) scale(0.980)">
        <g transform="translate(-3.99,0.97) rotate(13.10) scale(0.960)">
        <g transform="translate(-2.06,2.08) rotate(15.19) scale(0.940)">
        <g transform="translate(0.38,3.00) rotate(15.37) scale(0.920)">
        <g transform="translate(2.72,3.64) rotate(13.38) scale(0.900)" mask="url(#maskCircleFade)">
        <g transform="translate(4.40,3.97) rotate(9.08) scale(0.880)">
        <rect x="-33.3" y="-33.3" width="66.7" height="66.7" rx="16.7" fill="url(#rgrad1)" filter="url(#shadow)" opacity="0.87"/>
        <circle cx="0" cy="0" r="22.2" fill="url(#rgrad2)" opacity="0.61"/>
      </g>
      </g>
      </g>
      </g>
      </g>
      </g>
      </g>
  </g>
  <g transform="translate(511.9, 101.2)">
      <g transform="translate(-3.99,2.41) rotate(4.97) scale(1.000)">
        <g transform="translate(-2.06,3.24) rotate(9.53) scale(0.980)">
        <g transform="translate(0.38,3.79) rotate(13.10) scale(0.960)">
        <g transform="translate(2.72,4.00) rotate(15.19) scale(0.940)">
        <g transform="translate(4.40,3.85) rotate(15.37) scale(0.920)">
        <g transform="translate(5.00,3.36) rotate(13.38) scale(0.900)">
        <g transform="translate(4.38,2.56) rotate(9.08) scale(0.880)">
        <path d="M27.2,15.7 L0.0,31.4 L-27.2,15.7 L-27.2,-15.7 L-0.0,-31.4 L27.2,-15.7Z" fill="url(#rgrad2)" filter="url(#blur2)" opacity="0.80"/>
        <ellipse cx="0" cy="0" rx="13.1" ry="8.7" fill="#FFFFFF" opacity="0.40"/>
      </g>
      </g>
      </g>
      </g>
      </g>
      </g>
      </g>
  </g>
  <g transform="translate(730.3, 117.0)">
      <g transform="translate(0.38,3.99) rotate(4.97) scale(1.000)">
        <g transform="translate(2.72,3.72) rotate(9.53) scale(0.980)">
        <g transform="translate(4.40,3.12) rotate(13.10) scale(0.960)">
        <g transform="translate(5.00,2.24) rotate(15.19) scale(0.940)" clip-path="url(#clipRect)">
        <g transform="translate(4.38,1.16) rotate(15.37) scale(0.920)">
        <g transform="translate(2.68,-0.02) rotate(13.38) scale(0.900)">
        <g transform="translate(0.33,-1.20) rotate(9.08) scale(0.880)">
        <circle cx="0" cy="0" r="22.5" fill="url(#lgrad3)" filter="url(#shadow)" opacity="0.71"/>
        <text x="0" y="5" text-anchor="middle" font-family="Arial, sans-serif" font-size="14" fill="#FFFFFF" opacity="0.71">535</text>
      </g>
      </g>
      </g>
      </g>
      </g>
      </g>
      </g>
  </g>
  <g transform="translate(956.0, 124.8)">
      <g transform="translate(4.40,1.90) rotate(4.97) scale(1.000)">
        <g transform="translate(5.00,0.78) rotate(9.53) scale(0.980)">
        <g transform="translate(4.38,-0.42) rotate(13.10) scale(0.960)">
        <g transform="translate(2.68,-1.57) rotate(15.19) scale(0.940)">
        <g transform="translate(0.33,-2.59) rotate(15.37) scale(0.920)">
        <g transform="translate(-2.10,-3.38) rotate(13.38) scale(0.900)" mask="url(#maskGradient)">
        <g transform="translate(-4.02,-3.86) rotate(9.08) scale(0.880)">
        <path d="M0.0,-51.5 L15.1,-20.8 L49.0,-15.9 L24.5,8.0 L30.3,41.6 L0.0,25.7 L-30.3,41.6 L-24.5,8.0 L-49.0,-15.9 L-15.1,-20.8Z" fill="url(#rgrad4)" filter="url(#blur4)" opacity="0.60"/>
      </g>
      </g>
      </g>
      </g>
      </g>
      </g>
      </g>
  </g>
  <g transform="translate(1187.6, 121.0)">
      <g transform="translate(4.38,-1.93) rotate(4.97) scale(1.000)">
        <g transform="translate(2.68,-2.88) rotate(9.53) scale(0.980)">
        <g transform="translate(0.33,-3.57) rotate(13.10) scale(0.960)">
        <g transform="translate(-2.10,-3.94) rotate(15.19) scale(0.940)">
        <g transform="translate(-4.02,-3.96) rotate(15.37) scale(0.920)">
        <g transform="translate(-4.95,-3.63) rotate(13.38) scale(0.900)">
        <g transform="translate(-4.67,-2.97) rotate(9.08) scale(0.880)">
        <rect x="-32.9" y="-32.9" width="65.8" height="65.8" rx="16.4" fill="url(#rgrad0)" filter="url(#shadow)" opacity="0.48"/>
        <circle cx="0" cy="0" r="21.9" fill="url(#rgrad1)" opacity="0.34"/>
      </g>
      </g>
      </g>
      </g>
      </g>
      </g>
      </g>
  </g>
  <g transform="translate(1422.3, 107.3)">
      <g transform="translate(0.33,-3.99) rotate(4.97) scale(1.000)">
        <g transform="translate(-2.10,-3.89) rotate(9.53) scale(0.980)">
        <g transform="translate(-4.02,-3.44) rotate(13.10) scale(0.960)">
        <g transform="translate(-4.95,-2.69) rotate(15.19) scale(0.940)" clip-path="url(#clipStar)">
        <g transform="translate(-4.67,-1.69) rotate(15.37) scale(0.920)">
        <g transform="translate(-3.25,-0.55) rotate(13.38) scale(0.900)">
        <g transform="translate(-1.03,0.65) rotate(9.08) scale(0.880)">
        <path d="M38.9,22.4 L0.0,44.9 L-38.9,22.4 L-38.9,-22.4 L-0.0,-44.9 L38.9,-22.4Z" fill="url(#lgrad1)" filter="url(#blur1)" opacity="0.37"/>
        <ellipse cx="0" cy="0" rx="18.7" ry="12.5" fill="#FFFFFF" opacity="0.18"/>
      </g>
      </g>
      </g>
      </g>
      </g>
      </g>
      </g>
  </g>
  <g transform="translate(1656.3, 90.2)">
      <g transform="translate(-4.02,-2.38) rotate(4.97) scale(1.000)">
        <g transform="translate(-4.95,-1.32) rotate(9.53) scale(0.980)">
        <g transform="translate(-4.67,-0.15) rotate(13.10) scale(0.960)">
        <g transform="translate(-3.25,1.04) rotate(15.19) scale(0.940)">
        <g transform="translate(-1.03,2.13) rotate(15.37) scale(0.920)">
        <g transform="translate(1.44,3.04) rotate(13.38) scale(0.900)" mask="url(#maskDynamic)">
        <g transform="translate(3.56,3.67) rotate(9.08) scale(0.880)">
        <circle cx="0" cy="0" r="35.1" fill="url(#rgrad2)" filter="url(#shadow)" opacity="0.26"/>
        <text x="0" y="5" text-anchor="middle" font-family="Arial, sans-serif" font-size="14" fill="#FFFFFF" opacity="0.26">535</text>
      </g>
      </g>
      </g>
      </g>
      </g>
      </g>
      </g>
  </g>
  <g transform="translate(126.4, 357.7)">
      <g transform="translate(-4.67,1.42) rotate(4.97) scale(1.000)">
        <g transform="translate(-3.25,2.46) rotate(9.53) scale(0.980)">
        <g transform="translate(-1.03,3.28) rotate(13.10) scale(0.960)">
        <g transform="translate(1.44,3.81) rotate(15.19) scale(0.940)">
        <g transform="translate(3.56,4.00) rotate(15.37) scale(0.920)">
        <g transform="translate(4.81,3.83) rotate(13.38) scale(0.900)">
        <g transform="translate(4.88,3.32) rotate(9.08) scale(0.880)">
        <path d="M0.0,-56.2 L16.5,-22.7 L53.5,-17.4 L26.7,8.7 L33.0,45.5 L0.0,28.1 L-33.0,45.5 L-26.7,8.7 L-53.5,-17.4 L-16.5,-22.7Z" fill="url(#rgrad3)" filter="url(#blur3)" opacity="0.18"/>
      </g>
      </g>
      </g>
      </g>
      </g>
      </g>
      </g>
  </g>
  <g transform="translate(350.0, 355.7)">
      <g transform="translate(-1.03,3.91) rotate(4.97) scale(1.000)">
        <g transform="translate(1.44,3.98) rotate(9.53) scale(0.980)">
        <g transform="translate(3.56,3.70) rotate(13.10) scale(0.960)">
        <g transform="translate(4.81,3.08) rotate(15.19) scale(0.940)" clip-path="url(#clipDynamic)">
        <g transform="translate(4.88,2.19) rotate(15.37) scale(0.920)">
        <g transform="translate(3.75,1.10) rotate(13.38) scale(0.900)">
        <g transform="translate(1.71,-0.09) rotate(9.08) scale(0.880)">
        <rect x="-22.9" y="-22.9" width="45.7" height="45.7" rx="11.4" fill="url(#lgrad4)" filter="url(#shadow)" opacity="0.12"/>
        <circle cx="0" cy="0" r="15.2" fill="url(#rgrad0)" opacity="0.09"/>
      </g>
      </g>
      </g>
      </g>
      </g>
      </g>
      </g>
  </g>
  <g transform="translate(566.3, 365.1)">
      <g transform="translate(3.56,2.81) rotate(4.97) scale(1.000)">
        <g transform="translate(4.81,1.84) rotate(9.53) scale(0.980)">
        <g transform="translate(4.88,0.71) rotate(13.10) scale(0.960)">
        <g transform="translate(3.75,-0.48) rotate(15.19) scale(0.940)">
        <g transform="translate(1.71,-1.64) rotate(15.37) scale(0.920)">
        <g transform="translate(-0.75,-2.64) rotate(13.38) scale(0.900)" mask="url(#maskStripes)">
        <g transform="translate(-3.03,-3.41) rotate(9.08) scale(0.880)">
        <path d="M25.1,14.5 L0.0,29.0 L-25.1,14.5 L-25.1,-14.5 L-0.0,-29.0 L25.1,-14.5Z" fill="url(#rgrad0)" filter="url(#blur0)" opacity="0.10"/>
        <ellipse cx="0" cy="0" rx="12.1" ry="8.1" fill="#FFFFFF" opacity="0.05"/>
      </g>
      </g>
      </g>
      </g>
      </g>
      </g>
      </g>
  </g>
  <g transform="translate(776.1, 381.6)">
      <g transform="translate(4.88,-0.88) rotate(4.97) scale(1.000)">
        <g transform="translate(3.75,-1.99) rotate(9.53) scale(0.980)">
        <g transform="translate(1.71,-2.93) rotate(13.10) scale(0.960)">
        <g transform="translate(-0.75,-3.60) rotate(15.19) scale(0.940)">
        <g transform="translate(-3.03,-3.96) rotate(15.37) scale(0.920)">
        <g transform="translate(-4.57,-3.95) rotate(13.38) scale(0.900)">
        <g transform="translate(-4.98,-3.60) rotate(9.08) scale(0.880)">
        <circle cx="0" cy="0" r="30.8" fill="url(#rgrad1)" filter="url(#shadow)" opacity="0.11"/>
        <text x="0" y="5" text-anchor="middle" font-family="Arial, sans-serif" font-size="14" fill="#FFFFFF" opacity="0.11">535</text>
      </g>
      </g>
      </g>
      </g>
      </g>
      </g>
      </g>
  </g>
  <g transform="translate(982.0, 397.3)">
      <g transform="translate(1.71,-3.76) rotate(4.97) scale(1.000)">
        <g transform="translate(-0.75,-4.00) rotate(9.53) scale(0.980)">
        <g transform="translate(-3.03,-3.88) rotate(13.10) scale(0.960)">
        <g transform="translate(-4.57,-3.41) rotate(15.19) scale(0.940)" clip-path="url(#clipHex)">
        <g transform="translate(-4.98,-2.64) rotate(15.37) scale(0.920)">
        <g transform="translate(-4.18,-1.63) rotate(13.38) scale(0.900)">
        <g transform="translate(-2.36,-0.48) rotate(9.08) scale(0.880)">
        <path d="M0.0,-73.5 L21.6,-29.7 L69.9,-22.7 L34.9,11.3 L43.2,59.4 L0.0,36.7 L-43.2,59.4 L-34.9,11.3 L-69.9,-22.7 L-21.6,-29.7Z" fill="url(#lgrad2)" filter="url(#blur2)" opacity="0.16"/>
      </g>
      </g>
      </g>
      </g>
      </g>
      </g>
      </g>
  </g>
  <g transform="translate(1187.4, 404.9)">
      <g transform="translate(-3.03,-3.18) rotate(4.97) scale(1.000)">
        <g transform="translate(-4.57,-2.32) rotate(9.53) scale(0.980)">
        <g transform="translate(-4.98,-1.26) rotate(13.10) scale(0.960)">
        <g transform="translate(-4.18,-0.08) rotate(15.19) scale(0.940)">
        <g transform="translate(-2.36,1.10) rotate(15.37) scale(0.920)">
        <g transform="translate(0.05,2.19) rotate(13.38) scale(0.900)" mask="url(#maskCircleFade)">
        <g transform="translate(2.44,3.08) rotate(9.08) scale(0.880)">
        <rect x="-36.4" y="-36.4" width="72.8" height="72.8" rx="18.2" fill="url(#rgrad3)" filter="url(#shadow)" opacity="0.24"/>
        <circle cx="0" cy="0" r="24.3" fill="url(#rgrad4)" opacity="0.17"/>
      </g>
      </g>
      </g>
      </g>
      </g>
      </g>
      </g>
  </g>
  <g transform="translate(1395.9, 400.7)">
      <g transform="translate(-4.98,0.32) rotate(4.97) scale(1.000)">
        <g transform="translate(-4.18,1.48) rotate(9.53) scale(0.980)">
        <g transform="translate(-2.36,2.51) rotate(13.10) scale(0.960)">
        <g transform="translate(0.05,3.32) rotate(15.19) scale(0.940)">
        <g transform="translate(2.44,3.83) rotate(15.37) scale(0.920)">
        <g transform="translate(4.23,4.00) rotate(13.38) scale(0.900)">
        <g transform="translate(4.99,3.81) rotate(9.08) scale(0.880)">
        <path d="M31.4,18.1 L0.0,36.3 L-31.4,18.1 L-31.4,-18.1 L-0.0,-36.3 L31.4,-18.1Z" fill="url(#rgrad4)" filter="url(#blur4)" opacity="0.34"/>
        <ellipse cx="0" cy="0" rx="15.1" ry="10.1" fill="#FFFFFF" opacity="0.17"/>
      </g>
      </g>
      </g>
      </g>
      </g>
      </g>
      </g>
  </g>
  <g transform="translate(1610.3, 386.9)">
      <g transform="translate(-2.36,3.53) rotate(4.97) scale(1.000)">
        <g transform="translate(0.05,3.93) rotate(9.53) scale(0.980)">
        <g transform="translate(2.44,3.98) rotate(13.10) scale(0.960)">
        <g transform="translate(4.23,3.67) rotate(15.19) scale(0.940)" clip-path="url(#clipCircle)">
        <g transform="translate(4.99,3.04) rotate(15.37) scale(0.920)">
        <g transform="translate(4.53,2.13) rotate(13.38) scale(0.900)">
        <g transform="translate(2.96,1.04) rotate(9.08) scale(0.880)">
        <circle cx="0" cy="0" r="23.8" fill="url(#lgrad0)" filter="url(#shadow)" opacity="0.46"/>
        <text x="0" y="5" text-anchor="middle" font-family="Arial, sans-serif" font-size="14" fill="#FFFFFF" opacity="0.46">535</text>
      </g>
      </g>
      </g>
      </g>
      </g>
      </g>
      </g>
  </g>
  <g transform="translate(72.0, 649.8)">
      <g transform="translate(2.44,3.49) rotate(4.97) scale(1.000)">
        <g transform="translate(4.23,2.76) rotate(9.53) scale(0.980)">
        <g transform="translate(4.99,1.78) rotate(13.10) scale(0.960)">
        <g transform="translate(4.53,0.64) rotate(15.19) scale(0.940)">
        <g transform="translate(2.96,-0.55) rotate(15.37) scale(0.920)">
        <g transform="translate(0.66,-1.70) rotate(13.38) scale(0.900)" mask="url(#maskGradient)">
        <g transform="translate(-1.80,-2.69) rotate(9.08) scale(0.880)">
        <path d="M0.0,-46.2 L13.6,-18.7 L43.9,-14.3 L22.0,7.1 L27.1,37.4 L0.0,23.1 L-27.1,37.4 L-22.0,7.1 L-43.9,-14.3 L-13.6,-18.7Z" fill="url(#rgrad1)" filter="url(#blur1)" opacity="0.58"/>
      </g>
      </g>
      </g>
      </g>
      </g>
      </g>
      </g>
  </g>
  <g transform="translate(300.5, 637.5)">
      <g transform="translate(4.99,0.25) rotate(4.97) scale(1.000)">
        <g transform="translate(4.53,-0.94) rotate(9.53) scale(0.980)">
        <g transform="translate(2.96,-2.05) rotate(13.10) scale(0.960)">
        <g transform="translate(0.66,-2.97) rotate(15.19) scale(0.940)">
        <g transform="translate(-1.80,-3.63) rotate(15.37) scale(0.920)">
        <g transform="translate(-3.81,-3.96) rotate(13.38) scale(0.900)">
        <g transform="translate(-4.90,-3.94) rotate(9.08) scale(0.880)">
        <rect x="-28.7" y="-28.7" width="57.5" height="57.5" rx="14.4" fill="url(#rgrad2)" filter="url(#shadow)" opacity="0.69"/>
        <circle cx="0" cy="0" r="19.2" fill="url(#rgrad3)" opacity="0.48"/>
      </g>
      </g>
      </g>
      </g>
      </g>
      </g>
      </g>
  </g>
  <g transform="translate(533.8, 635.8)">
      <g transform="translate(2.96,-3.23) rotate(4.97) scale(1.000)">
        <g transform="translate(0.66,-3.78) rotate(9.53) scale(0.980)">
        <g transform="translate(-1.80,-4.00) rotate(13.10) scale(0.960)">
        <g transform="translate(-3.81,-3.86) rotate(15.19) scale(0.940)" clip-path="url(#clipRect)">
        <g transform="translate(-4.90,-3.37) rotate(15.37) scale(0.920)">
        <g transform="translate(-4.78,-2.59) rotate(13.38) scale(0.900)">
        <g transform="translate(-3.50,-1.57) rotate(9.08) scale(0.880)">
        <path d="M36.9,21.3 L0.0,42.6 L-36.9,21.3 L-36.9,-21.3 L-0.0,-42.6 L36.9,-21.3Z" fill="url(#lgrad3)" filter="url(#blur3)" opacity="0.79"/>
        <ellipse cx="0" cy="0" rx="17.8" ry="11.8" fill="#FFFFFF" opacity="0.39"/>
      </g>
      </g>
      </g>
      </g>
      </g>
      </g>
      </g>
  </g>
  <g transform="translate(768.6, 645.5)">
      <g transform="translate(-1.80,-3.73) rotate(4.97) scale(1.000)">
        <g transform="translate(-3.81,-3.14) rotate(9.53) scale(0.980)">
        <g transform="translate(-4.90,-2.27) rotate(13.10) scale(0.960)">
        <g transform="translate(-4.78,-1.19) rotate(15.19) scale(0.940)">
        <g transform="translate(-3.50,-0.01) rotate(15.37) scale(0.920)">
        <g transform="translate(-1.35,1.17) rotate(13.38) scale(0.900)" mask="url(#maskDynamic)">
        <g transform="translate(1.12,2.25) rotate(9.08) scale(0.880)">
        <circle cx="0" cy="0" r="37.2" fill="url(#rgrad4)" filter="url(#shadow)" opacity="0.86"/>
        <text x="0" y="5" text-anchor="middle" font-family="Arial, sans-serif" font-size="14" fill="#FFFFFF" opacity="0.86">535</text>
      </g>
      </g>
      </g>
      </g>
      </g>
      </g>
      </g>
  </g>
  <g transform="translate(1001.4, 662.0)">
      <g transform="translate(-4.90,-0.81) rotate(4.97) scale(1.000)">
        <g transform="translate(-4.78,0.39) rotate(9.53) scale(0.980)">
        <g transform="translate(-3.50,1.55) rotate(13.10) scale(0.960)">
        <g transform="translate(-1.35,2.57) rotate(15.19) scale(0.940)">
        <g transform="translate(1.12,3.36) rotate(15.37) scale(0.920)">
        <g transform="translate(3.32,3.85) rotate(13.38) scale(0.900)">
        <g transform="translate(4.71,4.00) rotate(9.08) scale(0.880)">
        <path d="M0.0,-64.6 L19.0,-26.1 L61.4,-20.0 L30.7,10.0 L38.0,52.3 L0.0,32.3 L-38.0,52.3 L-30.7,10.0 L-61.4,-20.0 L-19.0,-26.1Z" fill="url(#rgrad0)" filter="url(#blur0)" opacity="0.89"/>
      </g>
      </g>
      </g>
      </g>
      </g>
      </g>
      </g>
  </g>
  <g transform="translate(1228.8, 677.6)">
      <g transform="translate(-3.50,2.86) rotate(4.97) scale(1.000)">
        <g transform="translate(-1.35,3.56) rotate(9.53) scale(0.980)">
        <g transform="translate(1.12,3.94) rotate(13.10) scale(0.960)">
        <g transform="translate(3.32,3.97) rotate(15.19) scale(0.940)" clip-path="url(#clipStar)">
        <g transform="translate(4.71,3.64) rotate(15.37) scale(0.920)">
        <g transform="translate(4.94,2.99) rotate(13.38) scale(0.900)">
        <g transform="translate(3.97,2.07) rotate(9.08) scale(0.880)">
        <rect x="-25.2" y="-25.2" width="50.5" height="50.5" rx="12.6" fill="url(#lgrad1)" filter="url(#shadow)" opacity="0.90"/>
        <circle cx="0" cy="0" r="16.8" fill="url(#rgrad2)" opacity="0.63"/>
      </g>
      </g>
      </g>
      </g>
      </g>
      </g>
      </g>
  </g>
  <g transform="translate(1449.3, 684.9)">
      <g transform="translate(1.12,3.90) rotate(4.97) scale(1.000)">
        <g transform="translate(3.32,3.46) rotate(9.53) scale(0.980)">
        <g transform="translate(4.71,2.71) rotate(13.10) scale(0.960)">
        <g transform="translate(4.94,1.72) rotate(15.19) scale(0.940)">
        <g transform="translate(3.97,0.58) rotate(15.37) scale(0.920)">
        <g transform="translate(2.02,-0.62) rotate(13.38) scale(0.900)" mask="url(#maskStripes)">
        <g transform="translate(-0.42,-1.76) rotate(9.08) scale(0.880)">
        <path d="M23.4,13.5 L0.0,27.1 L-23.4,13.5 L-23.4,-13.5 L-0.0,-27.1 L23.4,-13.5Z" fill="url(#rgrad2)" filter="url(#blur2)" opacity="0.86"/>
        <ellipse cx="0" cy="0" rx="11.3" ry="7.5" fill="#FFFFFF" opacity="0.43"/>
      </g>
      </g>
      </g>
      </g>
      </g>
      </g>
      </g>
  </g>
  <g transform="translate(1662.5, 680.5)">
      <g transform="translate(4.71,1.35) rotate(4.97) scale(1.000)">
        <g transform="translate(4.94,0.18) rotate(9.53) scale(0.980)">
        <g transform="translate(3.97,-1.01) rotate(13.10) scale(0.960)">
        <g transform="translate(2.02,-2.11) rotate(15.19) scale(0.940)">
        <g transform="translate(-0.42,-3.02) rotate(15.37) scale(0.920)">
        <g transform="translate(-2.76,-3.66) rotate(13.38) scale(0.900)">
        <g transform="translate(-4.42,-3.97) rotate(9.08) scale(0.880)">
        <circle cx="0" cy="0" r="26.7" fill="url(#rgrad3)" filter="url(#shadow)" opacity="0.80"/>
        <text x="0" y="5" text-anchor="middle" font-family="Arial, sans-serif" font-size="14" fill="#FFFFFF" opacity="0.80">535</text>
      </g>
      </g>
      </g>
      </g>
      </g>
      </g>
      </g>
  </g>
  <g transform="translate(110.3, 946.5)">
      <g transform="translate(3.97,-2.44) rotate(4.97) scale(1.000)">
        <g transform="translate(2.02,-3.27) rotate(9.53) scale(0.980)">
        <g transform="translate(-0.42,-3.80) rotate(13.10) scale(0.960)">
        <g transform="translate(-2.76,-4.00) rotate(15.19) scale(0.940)" clip-path="url(#clipDynamic)">
        <g transform="translate(-4.42,-3.84) rotate(15.37) scale(0.920)">
        <g transform="translate(-5.00,-3.34) rotate(13.38) scale(0.900)">
        <g transform="translate(-4.36,-2.54) rotate(9.08) scale(0.880)">
        <path d="M0.0,-67.8 L19.9,-27.4 L64.5,-21.0 L32.2,10.5 L39.8,54.8 L0.0,33.9 L-39.8,54.8 L-32.2,10.5 L-64.5,-21.0 L-19.9,-27.4Z" fill="url(#lgrad4)" filter="url(#blur4)" opacity="0.71"/>
      </g>
      </g>
      </g>
      </g>
      </g>
      </g>
      </g>
  </g>
  <g transform="translate(278.5, 221.9)" mask="url(#maskGradient)">
    <ellipse cx="0" cy="0" rx="200" ry="150" fill="url(#rgrad0)" filter="url(#blur3)" opacity="0.3"/>
  </g>
  <g transform="translate(706.2, 251.3)" mask="url(#maskCircleFade)">
    <ellipse cx="0" cy="0" rx="200" ry="150" fill="url(#rgrad1)" filter="url(#blur3)" opacity="0.3"/>
  </g>
  <g transform="translate(1220.2, 303.7)" mask="url(#maskStripes)">
    <ellipse cx="0" cy="0" rx="200" ry="150" fill="url(#rgrad2)" filter="url(#blur3)" opacity="0.3"/>
  </g>
</svg>