<?xml version="1.0" encoding="UTF-8"?>
<svg xmlns="http://www.w3.org/2000/svg" viewBox="0 0 1920 1080" width="1920" height="1080">
  <defs>
    <filter id="blur0" x="-50%" y="-50%" width="200%" height="200%">
      <feGaussianBlur in="SourceGraphic" stdDeviation="1"/>
    </filter>
    <filter id="blur1" x="-50%" y="-50%" width="200%" height="200%">
      <feGaussianBlur in="SourceGraphic" stdDeviation="3"/>
    </filter>
    <filter id="blur2" x="-50%" y="-50%" width="200%" height="200%">
      <feGaussianBlur in="SourceGraphic" stdDeviation="5"/>
    </filter>
    <filter id="blur3" x="-50%" y="-50%" width="200%" height="200%">
      <feGaussianBlur in="SourceGraphic" stdDeviation="7"/>
    </filter>
    <filter id="blur4" x="-50%" y="-50%" width="200%" height="200%">
      <feGaussianBlur in="SourceGraphic" stdDeviation="9"/>
    </filter>
    <filter id="shadow" x="-50%" y="-50%" width="200%" height="200%">
      <feGaussianBlur in="SourceAlpha" stdDeviation="3" result="blur"/>
      <feOffset in="blur" dx="4" dy="4" result="offsetBlur"/>
      <feMerge>
        <feMergeNode in="offsetBlur"/>
        <feMergeNode in="SourceGraphic"/>
      </feMerge>
    </filter>
    <linearGradient id="lgrad0" x1="0%" y1="0%" x2="94.4%" y2="73.1%">
      <stop offset="0%" stop-color="#FF6B6B"/>
      <stop offset="33%" stop-color="#4ECDC4"/>
      <stop offset="66%" stop-color="#45B7D1"/>
      <stop offset="100%" stop-color="#96E6A1"/>
    </linearGradient>
    <linearGradient id="lgrad1" x1="0%" y1="0%" x2="76.9%" y2="92.2%">
      <stop offset="0%" stop-color="#FFE66D"/>
      <stop offset="33%" stop-color="#FF6B6B"/>
      <stop offset="66%" stop-color="#C44D58"/>
      <stop offset="100%" stop-color="#8B0000"/>
    </linearGradient>
    <linearGradient id="lgrad2" x1="0%" y1="0%" x2="52.2%" y2="100.0%">
      <stop offset="0%" stop-color="#4169E1"/>
      <stop offset="33%" stop-color="#7B68EE"/>
      <stop offset="66%" stop-color="#9370DB"/>
      <stop offset="100%" stop-color="#FFD700"/>
    </linearGradient>
    <linearGradient id="lgrad3" x1="0%" y1="0%" x2="26.9%" y2="94.4%">
      <stop offset="0%" stop-color="#32CD32"/>
      <stop offset="33%" stop-color="#228B22"/>
      <stop offset="66%" stop-color="#006400"/>
      <stop offset="100%" stop-color="#ADFF2F"/>
    </linearGradient>
    <linearGradient id="lgrad4" x1="0%" y1="0%" x2="7.8%" y2="76.9%">
      <stop offset="0%" stop-color="#FF1493"/>
      <stop offset="33%" stop-color="#FF69B4"/>
      <stop offset="66%" stop-color="#FFB6C1"/>
      <stop offset="100%" stop-color="#FFC0CB"/>
    </linearGradient>
    <radialGradient id="rgrad0" cx="35.5%" cy="47.0%" r="60%">
      <stop offset="0%" stop-color="#FF6B6B" stop-opacity="1"/>
      <stop offset="50%" stop-color="#4ECDC4" stop-opacity="0.8"/>
      <stop offset="100%" stop-color="#45B7D1" stop-opacity="0.6"/>
    </radialGradient>
    <radialGradient id="rgrad1" cx="45.5%" cy="55.0%" r="60%">
      <stop offset="0%" stop-color="#FFE66D" stop-opacity="1"/>
      <stop offset="50%" stop-color="#FF6B6B" stop-opacity="0.8"/>
      <stop offset="100%" stop-color="#C44D58" stop-opacity="0.6"/>
    </radialGradient>
    <radialGradient id="rgrad2" cx="55.5%" cy="63.0%" r="60%">
      <stop offset="0%" stop-color="#4169E1" stop-opacity="1"/>
      <stop offset="50%" stop-color="#7B68EE" stop-opacity="0.8"/>
      <stop offset="100%" stop-color="#9370DB" stop-opacity="0.6"/>
    </radialGradient>
    <radialGradient id="rgrad3" cx="65.5%" cy="31.0%" r="60%">
      <stop offset="0%" stop-color="#32CD32" stop-opacity="1"/>
      <stop offset="50%" stop-color="#228B22" stop-opacity="0.8"/>
      <stop offset="100%" stop-color="#006400" stop-opacity="0.6"/>
    </radialGradient>
    <radialGradient id="rgrad4" cx="35.5%" cy="39.0%" r="60%">
      <stop offset="0%" stop-color="#FF1493" stop-opacity="1"/>
      <stop offset="50%" stop-color="#FF69B4" stop-opacity="0.8"/>
      <stop offset="100%" stop-color="#FFB6C1" stop-opacity="0.6"/>
    </radialGradient>
    <clipPath id="clipCircle">
      <circle cx="0" cy="0" r="50"/>
    </clipPath>
    <clipPath id="clipStar">
      <path d="M0.0,-50.0 L14.7,-20.2 L47.6,-15.5 L23.8,7.7 L29.4,40.5 L0.0,25.0 L-29.4,40.5 L-23.8,7.7 L-47.6,-15.5 L-14.7,-20.2Z"/>
    </clipPath>
    <clipPath id="clipHex">
      <path d="M39.0,22.5 L0.0,45.0 L-39.0,22.5 L-39.0,-22.5 L-0.0,-45.0 L39.0,-22.5Z"/>
    </clipPath>
    <clipPath id="clipRect">
      <rect x="-40" y="-30" width="80" height="60" rx="10"/>
    </clipPath>
    <clipPath id="clipDynamic">
      <circle cx="0" cy="0" r="21.2"/>
    </clipPath>
    <mask id="maskGradient" maskContentUnits="objectBoundingBox">
      <rect x="0" y="0" width="1" height="1" fill="url(#maskGrad)"/>
    </mask>
    <linearGradient id="maskGrad" x1="0%" y1="0%" x2="100%" y2="100%">
      <stop offset="0%" stop-color="white"/>
      <stop offset="100%" stop-color="black"/>
    </linearGradient>
    <mask id="maskCircleFade">
      <circle cx="0" cy="0" r="60" fill="white"/>
      <circle cx="0" cy="0" r="30" fill="black"/>
    </mask>
    <mask id="maskStripes">
      <rect x="-50" y="-50" width="100" height="100" fill="white"/>
      <rect x="-50" y="-40" width="100" height="10" fill="black"/>
      <rect x="-50" y="-20" width="100" height="10" fill="black"/>
      <rect x="-50" y="0" width="100" height="10" fill="black"/>
      <rect x="-50" y="20" width="100" height="10" fill="black"/>
      <rect x="-50" y="40" width="100" height="10" fill="black"/>
    </mask>
    <mask id="maskDynamic">
      <rect x="-60" y="-60" width="120" height="120" fill="white" fill-opacity="0.89"/>
      <circle cx="0" cy="0" r="25" fill="white"/>
    </mask>
  </defs>
  <rect width="1920" height="1080" fill="url(#lgrad0)"/>
  <g transform="translate(72.5, 90.0)">
      <g transform="translate(-4.58,-1.60) rotate(4.18) scale(1.000)">
        <g transform="translate(-4.98,-0.44) rotate(7.11) scale(0.980)">
        <g transform="translate(-4.16,0.75) rotate(8.35) scale(0.960)">
        <g transform="translate(-2.31,1.88) rotate(7.61) scale(0.940)" clip-path="url(#clipCircle)">
        <g transform="translate(0.09,2.84) rotate(4.74) scale(0.920)">
        <g transform="translate(2.48,3.55) rotate(-0.28) scale(0.900)">
        <g transform="translate(4.26,3.93) rotate(-7.28) scale(0.880)">
        <path d="M0.0,-72.5 L21.3,-29.3 L69.0,-22.4 L34.5,11.2 L42.6,58.7 L0.0,36.3 L-42.6,58.7 L-34.5,11.2 L-69.0,-22.4 L-21.3,-29.3Z" fill="url(#lgrad0)" filter="url(#blur0)" opacity="0.83"/>
      </g>
      </g>
      </g>
      </g>
      </g>
      </g>
      </g>
  </g>
  <g transform="translate(290.1, 107.1)">
      <g transform="translate(-4.16,2.22) rotate(4.18) scale(1.000)">
        <g transform="translate(-2.31,3.11) rotate(7.11) scale(0.980)">
        <g transform="translate(0.09,3.71) rotate(8.35) scale(0.960)">
        <g transform="translate(2.48,3.99) rotate(7.61) scale(0.940)">
        <g transform="translate(4.26,3.90) rotate(4.74) scale(0.920)">
        <g transform="translate(4.99,3.47) rotate(-0.28) scale(0.900)" mask="url(#maskCircleFade)">
        <g transform="translate(4.51,2.73) rotate(-7.28) scale(0.880)">
        <rect x="-29.9" y="-29.9" width="59.9" height="59.9" rx="15.0" fill="url(#rgrad1)" filter="url(#shadow)" opacity="0.75"/>
        <circle cx="0" cy="0" r="20.0" fill="url(#rgrad2)" opacity="0.53"/>
      </g>
      </g>
      </g>
      </g>
      </g>
      </g>
      </g>
  </g>
  <g transform="translate(515.1, 120.9)">
      <g transform="translate(0.09,4.00) rotate(4.18) scale(1.000)">
        <g transform="translate(2.48,3.80) rotate(7.11) scale(0.980)">
        <g transform="translate(4.26,3.26) rotate(8.35) scale(0.960)">
        <g transform="translate(4.99,2.43) rotate(7.61) scale(0.940)">
        <g transform="translate(4.51,1.38) rotate(4.74) scale(0.920)">
        <g transform="translate(2.92,0.21) rotate(-0.28) scale(0.900)">
        <g transform="translate(0.61,-0.98) rotate(-7.28) scale(0.880)">
        <path d="M24.6,14.2 L0.0,28.4 L-24.6,14.2 L-24.6,-14.2 L-0.0,-28.4 L24.6,-14.2Z" fill="url(#rgrad2)" filter="url(#blur2)" opacity="0.65"/>
        <ellipse cx="0" cy="0" rx="11.8" ry="7.9" fill="#FFFFFF" opacity="0.33"/>
      </g>
      </g>
      </g>
      </g>
      </g>
      </g>
      </g>
  </g>
  <g transform="translate(746.1, 124.8)">
      <g transform="translate(4.26,2.10) rotate(4.18) scale(1.000)">
        <g transform="translate(4.99,1.00) rotate(7.11) scale(0.980)">
        <g transform="translate(4.51,-0.19) rotate(8.35) scale(0.960)">
        <g transform="translate(2.92,-1.36) rotate(7.61) scale(0.940)" clip-path="url(#clipRect)">
        <g transform="translate(0.61,-2.41) rotate(4.74) scale(0.920)">
        <g transform="translate(-1.84,-3.25) rotate(-0.28) scale(0.900)">
        <g transform="translate(-3.84,-3.79) rotate(-7.28) scale(0.880)">
        <circle cx="0" cy="0" r="23.2" fill="url(#lgrad3)" filter="url(#shadow)" opacity="0.54"/>
        <text x="0" y="5" text-anchor="middle" font-family="Arial, sans-serif" font-size="14" fill="#FFFFFF" opacity="0.54">685</text>
      </g>
      </g>
      </g>
      </g>
      </g>
      </g>
      </g>
  </g>
  <g transform="translate(980.6, 117.1)">
      <g transform="translate(4.51,-1.73) rotate(4.18) scale(1.000)">
        <g transform="translate(2.92,-2.72) rotate(7.11) scale(0.980)">
        <g transform="translate(0.61,-3.47) rotate(8.35) scale(0.960)">
        <g transform="translate(-1.84,-3.90) rotate(7.61) scale(0.940)">
        <g transform="translate(-3.84,-3.99) rotate(4.74) scale(0.920)">
        <g transform="translate(-4.91,-3.72) rotate(-0.28) scale(0.900)" mask="url(#maskGradient)">
        <g transform="translate(-4.77,-3.12) rotate(-7.28) scale(0.880)">
        <path d="M0.0,-58.0 L17.1,-23.5 L55.2,-17.9 L27.6,9.0 L34.1,46.9 L0.0,29.0 L-34.1,46.9 L-27.6,9.0 L-55.2,-17.9 L-17.1,-23.5Z" fill="url(#rgrad4)" filter="url(#blur4)" opacity="0.42"/>
      </g>
      </g>
      </g>
      </g>
      </g>
      </g>
      </g>
  </g>
  <g transform="translate(1214.9, 101.3)">
      <g transform="translate(0.61,-3.97) rotate(4.18) scale(1.000)">
        <g transform="translate(-1.84,-3.94) rotate(7.11) scale(0.980)">
        <g transform="translate(-3.84,-3.55) rotate(8.35) scale(0.960)">
        <g transform="translate(-4.91,-2.85) rotate(7.61) scale(0.940)">
        <g transform="translate(-4.77,-1.90) rotate(4.74) scale(0.920)">
        <g transform="translate(-3.46,-0.77) rotate(-0.28) scale(0.900)">
        <g transform="translate(-1.31,0.42) rotate(-7.28) scale(0.880)">
        <rect x="-35.7" y="-35.7" width="71.4" height="71.4" rx="17.9" fill="url(#rgrad0)" filter="url(#shadow)" opacity="0.30"/>
        <circle cx="0" cy="0" r="23.8" fill="url(#rgrad1)" opacity="0.21"/>
      </g>
      </g>
      </g>
      </g>
      </g>
      </g>
      </g>
  </g>
  <g transform="translate(1445.5, 84.9)">
      <g transform="translate(-3.84,-2.56) rotate(4.18) scale(1.000)">
        <g transform="translate(-4.91,-1.53) rotate(7.11) scale(0.980)">
        <g transform="translate(-4.77,-0.37) rotate(8.35) scale(0.960)">
        <g transform="translate(-3.46,0.82) rotate(7.61) scale(0.940)" clip-path="url(#clipStar)">
        <g transform="translate(-1.31,1.94) rotate(4.74) scale(0.920)">
        <g transform="translate(1.17,2.89) rotate(-0.28) scale(0.900)">
        <g transform="translate(3.36,3.58) rotate(-7.28) scale(0.880)">
        <path d="M38.6,22.3 L0.0,44.6 L-38.6,22.3 L-38.6,-22.3 L-0.0,-44.6 L38.6,-22.3Z" fill="url(#lgrad1)" filter="url(#blur1)" opacity="0.21"/>
        <ellipse cx="0" cy="0" rx="18.6" ry="12.4" fill="#FFFFFF" opacity="0.11"/>
      </g>
      </g>
      </g>
      </g>
      </g>
      </g>
      </g>
  </g>
  <g transform="translate(1670.0, 75.6)">
      <g transform="translate(-4.77,1.21) rotate(4.18) scale(1.000)">
        <g transform="translate(-3.46,2.28) rotate(7.11) scale(0.980)">
        <g transform="translate(-1.31,3.15) rotate(8.35) scale(0.960)">
        <g transform="translate(1.17,3.74) rotate(7.61) scale(0.940)">
        <g transform="translate(3.36,3.99) rotate(4.74) scale(0.920)">
        <g transform="translate(4.72,3.89) rotate(-0.28) scale(0.900)" mask="url(#maskDynamic)">
        <g transform="translate(4.93,3.44) rotate(-7.28) scale(0.880)">
        <circle cx="0" cy="0" r="32.0" fill="url(#rgrad2)" filter="url(#shadow)" opacity="0.14"/>
        <text x="0" y="5" text-anchor="middle" font-family="Arial, sans-serif" font-size="14" fill="#FFFFFF" opacity="0.14">685</text>
      </g>
      </g>
      </g>
      </g>
      </g>
      </g>
      </g>
  </g>
  <g transform="translate(127.0, 357.8)">
      <g transform="translate(-1.31,3.86) rotate(4.18) scale(1.000)">
        <g transform="translate(1.17,4.00) rotate(7.11) scale(0.980)">
        <g transform="translate(3.36,3.78) rotate(8.35) scale(0.960)">
        <g transform="translate(4.72,3.22) rotate(7.61) scale(0.940)">
        <g transform="translate(4.93,2.37) rotate(4.74) scale(0.920)">
        <g transform="translate(3.94,1.32) rotate(-0.28) scale(0.900)">
        <g transform="translate(1.97,0.14) rotate(-7.28) scale(0.880)">
        <path d="M0.0,-50.0 L14.7,-20.2 L47.6,-15.5 L23.8,7.7 L29.4,40.5 L0.0,25.0 L-29.4,40.5 L-23.8,7.7 L-47.6,-15.5 L-14.7,-20.2Z" fill="url(#rgrad3)" filter="url(#blur3)" opacity="0.11"/>
      </g>
      </g>
      </g>
      </g>
      </g>
      </g>
      </g>
  </g>
  <g transform="translate(337.5, 370.4)">
      <g transform="translate(3.36,2.97) rotate(4.18) scale(1.000)">
        <g transform="translate(4.72,2.04) rotate(7.11) scale(0.980)">
        <g transform="translate(4.93,0.93) rotate(8.35) scale(0.960)">
        <g transform="translate(3.94,-0.26) rotate(7.61) scale(0.940)" clip-path="url(#clipDynamic)">
        <g transform="translate(1.97,-1.43) rotate(4.74) scale(0.920)">
        <g transform="translate(-0.47,-2.47) rotate(-0.28) scale(0.900)">
        <g transform="translate(-2.80,-3.29) rotate(-7.28) scale(0.880)">
        <rect x="-22.6" y="-22.6" width="45.2" height="45.2" rx="11.3" fill="url(#lgrad4)" filter="url(#shadow)" opacity="0.10"/>
        <circle cx="0" cy="0" r="15.1" fill="url(#rgrad0)" opacity="0.07"/>
      </g>
      </g>
      </g>
      </g>
      </g>
      </g>
      </g>
  </g>
  <g transform="translate(543.7, 387.5)">
      <g transform="translate(4.93,-0.66) rotate(4.18) scale(1.000)">
        <g transform="translate(3.94,-1.79) rotate(7.11) scale(0.980)">
        <g transform="translate(1.97,-2.77) rotate(8.35) scale(0.960)">
        <g transform="translate(-0.47,-3.50) rotate(7.61) scale(0.940)">
        <g transform="translate(-2.80,-3.92) rotate(4.74) scale(0.920)">
        <g transform="translate(-4.44,-3.98) rotate(-0.28) scale(0.900)" mask="url(#maskStripes)">
        <g transform="translate(-5.00,-3.69) rotate(-7.28) scale(0.880)">
        <path d="M28.0,16.2 L0.0,32.4 L-28.0,16.2 L-28.0,-16.2 L-0.0,-32.4 L28.0,-16.2Z" fill="url(#rgrad0)" filter="url(#blur0)" opacity="0.14"/>
        <ellipse cx="0" cy="0" rx="13.5" ry="9.0" fill="#FFFFFF" opacity="0.07"/>
      </g>
      </g>
      </g>
      </g>
      </g>
      </g>
      </g>
  </g>
  <g transform="translate(748.9, 401.1)">
      <g transform="translate(1.97,-3.67) rotate(4.18) scale(1.000)">
        <g transform="translate(-0.47,-3.98) rotate(7.11) scale(0.980)">
        <g transform="translate(-2.80,-3.92) rotate(8.35) scale(0.960)">
        <g transform="translate(-4.44,-3.52) rotate(7.61) scale(0.940)">
        <g transform="translate(-5.00,-2.80) rotate(4.74) scale(0.920)">
        <g transform="translate(-4.33,-1.84) rotate(-0.28) scale(0.900)">
        <g transform="translate(-2.60,-0.70) rotate(-7.28) scale(0.880)">
        <circle cx="0" cy="0" r="34.1" fill="url(#rgrad1)" filter="url(#shadow)" opacity="0.20"/>
        <text x="0" y="5" text-anchor="middle" font-family="Arial, sans-serif" font-size="14" fill="#FFFFFF" opacity="0.20">685</text>
      </g>
      </g>
      </g>
      </g>
      </g>
      </g>
      </g>
  </g>
  <g transform="translate(956.9, 404.8)">
      <g transform="translate(-2.80,-3.31) rotate(4.18) scale(1.000)">
        <g transform="translate(-4.44,-2.51) rotate(7.11) scale(0.980)">
        <g transform="translate(-5.00,-1.47) rotate(8.35) scale(0.960)">
        <g transform="translate(-4.33,-0.31) rotate(7.61) scale(0.940)" clip-path="url(#clipHex)">
        <g transform="translate(-2.60,0.89) rotate(4.74) scale(0.920)">
        <g transform="translate(-0.24,2.00) rotate(-0.28) scale(0.900)">
        <g transform="translate(2.19,2.93) rotate(-7.28) scale(0.880)">
        <path d="M0.0,-75.0 L22.0,-30.3 L71.3,-23.2 L35.7,11.6 L44.1,60.7 L0.0,37.5 L-44.1,60.7 L-35.7,11.6 L-71.3,-23.2 L-22.0,-30.3Z" fill="url(#lgrad2)" filter="url(#blur2)" opacity="0.30"/>
      </g>
      </g>
      </g>
      </g>
      </g>
      </g>
      </g>
  </g>
  <g transform="translate(1170.6, 396.8)">
      <g transform="translate(-5.00,0.09) rotate(4.18) scale(1.000)">
        <g transform="translate(-4.33,1.27) rotate(7.11) scale(0.980)">
        <g transform="translate(-2.60,2.33) rotate(8.35) scale(0.960)">
        <g transform="translate(-0.24,3.19) rotate(7.61) scale(0.940)">
        <g transform="translate(2.19,3.76) rotate(4.74) scale(0.920)">
        <g transform="translate(4.07,4.00) rotate(-0.28) scale(0.900)" mask="url(#maskCircleFade)">
        <g transform="translate(4.97,3.87) rotate(-7.28) scale(0.880)">
        <rect x="-34.0" y="-34.0" width="67.9" height="67.9" rx="17.0" fill="url(#rgrad3)" filter="url(#shadow)" opacity="0.41"/>
        <circle cx="0" cy="0" r="22.6" fill="url(#rgrad4)" opacity="0.29"/>
      </g>
      </g>
      </g>
      </g>
      </g>
      </g>
      </g>
  </g>
  <g transform="translate(1391.4, 380.9)">
      <g transform="translate(-2.60,3.42) rotate(4.18) scale(1.000)">
        <g transform="translate(-0.24,3.88) rotate(7.11) scale(0.980)">
        <g transform="translate(2.19,3.99) rotate(8.35) scale(0.960)">
        <g transform="translate(4.07,3.75) rotate(7.61) scale(0.940)">
        <g transform="translate(4.97,3.18) rotate(4.74) scale(0.920)">
        <g transform="translate(4.64,2.32) rotate(-0.28) scale(0.900)">
        <g transform="translate(3.18,1.25) rotate(-7.28) scale(0.880)">
        <path d="M27.8,16.1 L0.0,32.1 L-27.8,16.1 L-27.8,-16.1 L-0.0,-32.1 L27.8,-16.1Z" fill="url(#rgrad4)" filter="url(#blur4)" opacity="0.53"/>
        <ellipse cx="0" cy="0" rx="13.4" ry="8.9" fill="#FFFFFF" opacity="0.26"/>
      </g>
      </g>
      </g>
      </g>
      </g>
      </g>
      </g>
  </g>
  <g transform="translate(1619.2, 364.6)">
      <g transform="translate(2.19,3.60) rotate(4.18) scale(1.000)">
        <g transform="translate(4.07,2.92) rotate(7.11) scale(0.980)">
        <g transform="translate(4.97,1.98) rotate(8.35) scale(0.960)">
        <g transform="translate(4.64,0.87) rotate(7.61) scale(0.940)" clip-path="url(#clipCircle)">
        <g transform="translate(3.18,-0.33) rotate(4.74) scale(0.920)">
        <g transform="translate(0.94,-1.49) rotate(-0.28) scale(0.900)">
        <g transform="translate(-1.53,-2.52) rotate(-7.28) scale(0.880)">
        <circle cx="0" cy="0" r="22.6" fill="url(#lgrad0)" filter="url(#shadow)" opacity="0.64"/>
        <text x="0" y="5" text-anchor="middle" font-family="Arial, sans-serif" font-size="14" fill="#FFFFFF" opacity="0.64">685</text>
      </g>
      </g>
      </g>
      </g>
      </g>
      </g>
      </g>
  </g>
  <g transform="translate(92.2, 635.5)">
      <g transform="translate(4.97,0.47) rotate(4.18) scale(1.000)">
        <g transform="translate(4.64,-0.72) rotate(7.11) scale(0.980)">
        <g transform="translate(3.18,-1.85) rotate(8.35) scale(0.960)">
        <g transform="translate(0.94,-2.82) rotate(7.61) scale(0.940)">
        <g transform="translate(-1.53,-3.53) rotate(4.74) scale(0.920)">
        <g transform="translate(-3.62,-3.93) rotate(-0.28) scale(0.900)" mask="url(#maskGradient)">
        <g transform="translate(-4.83,-3.98) rotate(-7.28) scale(0.880)">
        <path d="M0.0,-50.4 L14.8,-20.4 L47.9,-15.6 L23.9,7.8 L29.6,40.7 L0.0,25.2 L-29.6,40.7 L-23.9,7.8 L-47.9,-15.6 L-14.8,-20.4Z" fill="url(#rgrad1)" filter="url(#blur1)" opacity="0.75"/>
      </g>
      </g>
      </g>
      </g>
      </g>
      </g>
      </g>
  </g>
  <g transform="translate(327.0, 638.0)">
      <g transform="translate(3.18,-3.09) rotate(4.18) scale(1.000)">
        <g transform="translate(0.94,-3.70) rotate(7.11) scale(0.980)">
        <g transform="translate(-1.53,-3.98) rotate(8.35) scale(0.960)">
        <g transform="translate(-3.62,-3.91) rotate(7.61) scale(0.940)">
        <g transform="translate(-4.83,-3.49) rotate(4.74) scale(0.920)">
        <g transform="translate(-4.86,-2.76) rotate(-0.28) scale(0.900)">
        <g transform="translate(-3.69,-1.78) rotate(-7.28) scale(0.880)">
        <rect x="-32.2" y="-32.2" width="64.5" height="64.5" rx="16.1" fill="url(#rgrad2)" filter="url(#shadow)" opacity="0.83"/>
        <circle cx="0" cy="0" r="21.5" fill="url(#rgrad3)" opacity="0.58"/>
      </g>
      </g>
      </g>
      </g>
      </g>
      </g>
      </g>
  </g>
  <g transform="translate(560.1, 650.8)">
      <g transform="translate(-1.53,-3.81) rotate(4.18) scale(1.000)">
        <g transform="translate(-3.62,-3.28) rotate(7.11) scale(0.980)">
        <g transform="translate(-4.83,-2.45) rotate(8.35) scale(0.960)">
        <g transform="translate(-4.86,-1.41) rotate(7.61) scale(0.940)" clip-path="url(#clipRect)">
        <g transform="translate(-3.69,-0.24) rotate(4.74) scale(0.920)">
        <g transform="translate(-1.62,0.95) rotate(-0.28) scale(0.900)">
        <g transform="translate(0.84,2.06) rotate(-7.28) scale(0.880)">
        <path d="M38.7,22.3 L0.0,44.7 L-38.7,22.3 L-38.7,-22.3 L-0.0,-44.7 L38.7,-22.3Z" fill="url(#lgrad3)" filter="url(#blur3)" opacity="0.88"/>
        <ellipse cx="0" cy="0" rx="18.6" ry="12.4" fill="#FFFFFF" opacity="0.44"/>
      </g>
      </g>
      </g>
      </g>
      </g>
      </g>
      </g>
  </g>
  <g transform="translate(788.3, 667.9)">
      <g transform="translate(-4.83,-1.03) rotate(4.18) scale(1.000)">
        <g transform="translate(-4.86,0.16) rotate(7.11) scale(0.980)">
        <g transform="translate(-3.69,1.33) rotate(8.35) scale(0.960)">
        <g transform="translate(-1.62,2.39) rotate(7.61) scale(0.940)">
        <g transform="translate(0.84,3.23) rotate(4.74) scale(0.920)">
        <g transform="translate(3.10,3.78) rotate(-0.28) scale(0.900)" mask="url(#maskDynamic)">
        <g transform="translate(4.60,4.00) rotate(-7.28) scale(0.880)">
        <circle cx="0" cy="0" r="35.6" fill="url(#rgrad4)" filter="url(#shadow)" opacity="0.90"/>
        <text x="0" y="5" text-anchor="middle" font-family="Arial, sans-serif" font-size="14" fill="#FFFFFF" opacity="0.90">685</text>
      </g>
      </g>
      </g>
      </g>
      </g>
      </g>
      </g>
  </g>
  <g transform="translate(1009.6, 681.3)">
      <g transform="translate(-3.69,2.70) rotate(4.18) scale(1.000)">
        <g transform="translate(-1.62,3.45) rotate(7.11) scale(0.980)">
        <g transform="translate(0.84,3.89) rotate(8.35) scale(0.960)">
        <g transform="translate(3.10,3.99) rotate(7.61) scale(0.940)">
        <g transform="translate(4.60,3.73) rotate(4.74) scale(0.920)">
        <g transform="translate(4.98,3.14) rotate(-0.28) scale(0.900)">
        <g transform="translate(4.13,2.26) rotate(-7.28) scale(0.880)">
        <path d="M0.0,-57.6 L16.9,-23.3 L54.8,-17.8 L27.4,8.9 L33.9,46.6 L0.0,28.8 L-33.9,46.6 L-27.4,8.9 L-54.8,-17.8 L-16.9,-23.3Z" fill="url(#rgrad0)" filter="url(#blur0)" opacity="0.88"/>
      </g>
      </g>
      </g>
      </g>
      </g>
      </g>
      </g>
  </g>
  <g transform="translate(1223.6, 684.7)">
      <g transform="translate(0.84,3.94) rotate(4.18) scale(1.000)">
        <g transform="translate(3.10,3.57) rotate(7.11) scale(0.980)">
        <g transform="translate(4.60,2.87) rotate(8.35) scale(0.960)">
        <g transform="translate(4.98,1.92) rotate(7.61) scale(0.940)" clip-path="url(#clipStar)">
        <g transform="translate(4.13,0.80) rotate(4.74) scale(0.920)">
        <g transform="translate(2.27,-0.39) rotate(-0.28) scale(0.900)">
        <g transform="translate(-0.14,-1.55) rotate(-7.28) scale(0.880)">
        <rect x="-23.1" y="-23.1" width="46.2" height="46.2" rx="11.6" fill="url(#lgrad1)" filter="url(#shadow)" opacity="0.83"/>
        <circle cx="0" cy="0" r="15.4" fill="url(#rgrad2)" opacity="0.58"/>
      </g>
      </g>
      </g>
      </g>
      </g>
      </g>
      </g>
  </g>
  <g transform="translate(1431.8, 676.5)">
      <g transform="translate(4.60,1.56) rotate(4.18) scale(1.000)">
        <g transform="translate(4.98,0.41) rotate(7.11) scale(0.980)">
        <g transform="translate(4.13,-0.79) rotate(8.35) scale(0.960)">
        <g transform="translate(2.27,-1.91) rotate(7.61) scale(0.940)">
        <g transform="translate(-0.14,-2.87) rotate(4.74) scale(0.920)">
        <g transform="translate(-2.52,-3.56) rotate(-0.28) scale(0.900)" mask="url(#maskStripes)">
        <g transform="translate(-4.28,-3.94) rotate(-7.28) scale(0.880)">
        <path d="M24.7,14.3 L0.0,28.5 L-24.7,14.3 L-24.7,-14.3 L-0.0,-28.5 L24.7,-14.3Z" fill="url(#rgrad2)" filter="url(#blur2)" opacity="0.75"/>
        <ellipse cx="0" cy="0" rx="11.9" ry="7.9" fill="#FFFFFF" opacity="0.37"/>
      </g>
      </g>
      </g>
      </g>
      </g>
      </g>
      </g>
  </g>
  <g transform="translate(1637.2, 660.5)">
      <g transform="translate(4.13,-2.25) rotate(4.18) scale(1.000)">
        <g transform="translate(2.27,-3.13) rotate(7.11) scale(0.980)">
        <g transform="translate(-0.14,-3.73) rotate(8.35) scale(0.960)">
        <g transform="translate(-2.52,-3.99) rotate(7.61) scale(0.940)">
        <g transform="translate(-4.28,-3.90) rotate(4.74) scale(0.920)">
        <g transform="translate(-5.00,-3.46) rotate(-0.28) scale(0.900)">
        <g transform="translate(-4.49,-2.71) rotate(-7.28) scale(0.880)">
        <circle cx="0" cy="0" r="30.1" fill="url(#rgrad3)" filter="url(#shadow)" opacity="0.65"/>
        <text x="0" y="5" text-anchor="middle" font-family="Arial, sans-serif" font-size="14" fill="#FFFFFF" opacity="0.65">685</text>
      </g>
      </g>
      </g>
      </g>
      </g>
      </g>
      </g>
  </g>
  <g transform="translate(83.2, 924.2)">
      <g transform="translate(-0.14,-4.00) rotate(4.18) scale(1.000)">
        <g transform="translate(-2.52,-3.79) rotate(7.11) scale(0.980)">
        <g transform="translate(-4.28,-3.24) rotate(8.35) scale(0.960)">
        <g transform="translate(-5.00,-2.40) rotate(7.61) scale(0.940)" clip-path="url(#clipDynamic)">
        <g transform="translate(-4.49,-1.35) rotate(4.74) scale(0.920)">
        <g transform="translate(-2.88,-0.17) rotate(-0.28) scale(0.900)">
        <g transform="translate(-0.57,1.02) rotate(-7.28) scale(0.880)">
        <path d="M0.0,-72.8 L21.4,-29.4 L69.2,-22.5 L34.6,11.2 L42.8,58.9 L0.0,36.4 L-42.8,58.9 L-34.6,11.2 L-69.2,-22.5 L-21.4,-29.4Z" fill="url(#lgrad4)" filter="url(#blur4)" opacity="0.53"/>
      </g>
      </g>
      </g>
      </g>
      </g>
      </g>
      </g>
  </g>
  <g transform="translate(208.3, 268.1)" mask="url(#maskGradient)">
    <ellipse cx="0" cy="0" rx="200" ry="150" fill="url(#rgrad0)" filter="url(#blur3)" opacity="0.3"/>
  </g>
  <g transform="translate(716.9, 322.8)" mask="url(#maskCircleFade)">
    <ellipse cx="0" cy="0" rx="200" ry="150" fill="url(#rgrad1)" filter="url(#blur3)" opacity="0.3"/>
  </g>
  <g transform="translate(1301.9, 366.9)" mask="url(#maskStripes)">
    <ellipse cx="0" cy="0" rx="200" ry="150" fill="url(#rgrad2)" filter="url(#blur3)" opacity="0.3"/>
  </g>
</svg>