<?xml version="1.0" encoding="UTF-8"?>
<svg xmlns="http://www.w3.org/2000/svg" viewBox="0 0 1920 1080" width="1920" height="1080">
  <defs>
    <filter id="blur0" x="-50%" y="-50%" width="200%" height="200%">
      <feGaussianBlur in="SourceGraphic" stdDeviation="1"/>
    </filter>
    <filter id="blur1" x="-50%" y="-50%" width="200%" height="200%">
      <feGaussianBlur in="SourceGraphic" stdDeviation="3"/>
    </filter>
    <filter id="blur2" x="-50%" y="-50%" width="200%" height="200%">
      <feGaussianBlur in="SourceGraphic" stdDeviation="5"/>
    </filter>
    <filter id="blur3" x="-50%" y="-50%" width="200%" height="200%">
      <feGaussianBlur in="SourceGraphic" stdDeviation="7"/>
    </filter>
    <filter id="blur4" x="-50%" y="-50%" width="200%" height="200%">
      <feGaussianBlur in="SourceGraphic" stdDeviation="9"/>
    </filter>
    <filter id="shadow" x="-50%" y="-50%" width="200%" height="200%">
      <feGaussianBlur in="SourceAlpha" stdDeviation="3" result="blur"/>
      <feOffset in="blur" dx="4" dy="4" result="offsetBlur"/>
      <feMerge>
        <feMergeNode in="offsetBlur"/>
        <feMergeNode in="SourceGraphic"/>
      </feMerge>
    </filter>
    <linearGradient id="lgrad0" x1="0%" y1="0%" x2="97.0%" y2="67.1%">
      <stop offset="0%" stop-color="#FF6B6B"/>
      <stop offset="33%" stop-color="#4ECDC4"/>
      <stop offset="66%" stop-color="#45B7D1"/>
      <stop offset="100%" stop-color="#96E6A1"/>
    </linearGradient>
    <linearGradient id="lgrad1" x1="0%" y1="0%" x2="82.1%" y2="88.3%">
      <stop offset="0%" stop-color="#FFE66D"/>
      <stop offset="33%" stop-color="#FF6B6B"/>
      <stop offset="66%" stop-color="#C44D58"/>
      <stop offset="100%" stop-color="#8B0000"/>
    </linearGradient>
    <linearGradient id="lgrad2" x1="0%" y1="0%" x2="58.7%" y2="99.2%">
      <stop offset="0%" stop-color="#4169E1"/>
      <stop offset="33%" stop-color="#7B68EE"/>
      <stop offset="66%" stop-color="#9370DB"/>
      <stop offset="100%" stop-color="#FFD700"/>
    </linearGradient>
    <linearGradient id="lgrad3" x1="0%" y1="0%" x2="32.9%" y2="97.0%">
      <stop offset="0%" stop-color="#32CD32"/>
      <stop offset="33%" stop-color="#228B22"/>
      <stop offset="66%" stop-color="#006400"/>
      <stop offset="100%" stop-color="#ADFF2F"/>
    </linearGradient>
    <linearGradient id="lgrad4" x1="0%" y1="0%" x2="11.7%" y2="82.1%">
      <stop offset="0%" stop-color="#FF1493"/>
      <stop offset="33%" stop-color="#FF69B4"/>
      <stop offset="66%" stop-color="#FFB6C1"/>
      <stop offset="100%" stop-color="#FFC0CB"/>
    </linearGradient>
    <radialGradient id="rgrad0" cx="31.0%" cy="44.0%" r="60%">
      <stop offset="0%" stop-color="#FF6B6B" stop-opacity="1"/>
      <stop offset="50%" stop-color="#4ECDC4" stop-opacity="0.8"/>
      <stop offset="100%" stop-color="#45B7D1" stop-opacity="0.6"/>
    </radialGradient>
    <radialGradient id="rgrad1" cx="41.0%" cy="52.0%" r="60%">
      <stop offset="0%" stop-color="#FFE66D" stop-opacity="1"/>
      <stop offset="50%" stop-color="#FF6B6B" stop-opacity="0.8"/>
      <stop offset="100%" stop-color="#C44D58" stop-opacity="0.6"/>
    </radialGradient>
    <radialGradient id="rgrad2" cx="51.0%" cy="60.0%" r="60%">
      <stop offset="0%" stop-color="#4169E1" stop-opacity="1"/>
      <stop offset="50%" stop-color="#7B68EE" stop-opacity="0.8"/>
      <stop offset="100%" stop-color="#9370DB" stop-opacity="0.6"/>
    </radialGradient>
    <radialGradient id="rgrad3" cx="61.0%" cy="68.0%" r="60%">
      <stop offset="0%" stop-color="#32CD32" stop-opacity="1"/>
      <stop offset="50%" stop-color="#228B22" stop-opacity="0.8"/>
      <stop offset="100%" stop-color="#006400" stop-opacity="0.6"/>
    </radialGradient>
    <radialGradient id="rgrad4" cx="31.0%" cy="36.0%" r="60%">
      <stop offset="0%" stop-color="#FF1493" stop-opacity="1"/>
      <stop offset="50%" stop-color="#FF69B4" stop-opacity="0.8"/>
      <stop offset="100%" stop-color="#FFB6C1" stop-opacity="0.6"/>
    </radialGradient>
    <clipPath id="clipCircle">
      <circle cx="0" cy="0" r="50"/>
    </clipPath>
    <clipPath id="clipStar">
      <path d="M0.0,-50.0 L14.7,-20.2 L47.6,-15.5 L23.8,7.7 L29.4,40.5 L0.0,25.0 L-29.4,40.5 L-23.8,7.7 L-47.6,-15.5 L-14.7,-20.2Z"/>
    </clipPath>
    <clipPath id="clipHex">
      <path d="M39.0,22.5 L0.0,45.0 L-39.0,22.5 L-39.0,-22.5 L-0.0,-45.0 L39.0,-22.5Z"/>
    </clipPath>
    <clipPath id="clipRect">
      <rect x="-40" y="-30" width="80" height="60" rx="10"/>
    </clipPath>
    <clipPath id="clipDynamic">
      <circle cx="0" cy="0" r="21.9"/>
    </clipPath>
    <mask id="maskGradient" maskContentUnits="objectBoundingBox">
      <rect x="0" y="0" width="1" height="1" fill="url(#maskGrad)"/>
    </mask>
    <linearGradient id="maskGrad" x1="0%" y1="0%" x2="100%" y2="100%">
      <stop offset="0%" stop-color="white"/>
      <stop offset="100%" stop-color="black"/>
    </linearGradient>
    <mask id="maskCircleFade">
      <circle cx="0" cy="0" r="60" fill="white"/>
      <circle cx="0" cy="0" r="30" fill="black"/>
    </mask>
    <mask id="maskStripes">
      <rect x="-50" y="-50" width="100" height="100" fill="white"/>
      <rect x="-50" y="-40" width="100" height="10" fill="black"/>
      <rect x="-50" y="-20" width="100" height="10" fill="black"/>
      <rect x="-50" y="0" width="100" height="10" fill="black"/>
      <rect x="-50" y="20" width="100" height="10" fill="black"/>
      <rect x="-50" y="40" width="100" height="10" fill="black"/>
    </mask>
    <mask id="maskDynamic">
      <rect x="-60" y="-60" width="120" height="120" fill="white" fill-opacity="0.90"/>
      <circle cx="0" cy="0" r="25" fill="white"/>
    </mask>
  </defs>
  <rect width="1920" height="1080" fill="url(#lgrad0)"/>
  <g transform="translate(73.7, 87.9)">
      <g transform="translate(-4.38,-1.93) rotate(4.31) scale(1.000)">
        <g transform="translate(-5.00,-0.81) rotate(7.43) scale(0.980)">
        <g transform="translate(-4.40,0.38) rotate(8.93) scale(0.960)">
        <g transform="translate(-2.72,1.54) rotate(8.48) scale(0.940)" clip-path="url(#clipCircle)">
        <g transform="translate(-0.38,2.56) rotate(5.89) scale(0.920)">
        <g transform="translate(2.06,3.36) rotate(1.13) scale(0.900)">
        <g transform="translate(3.99,3.85) rotate(-5.65) scale(0.880)">
        <path d="M0.0,-72.9 L21.4,-29.5 L69.4,-22.5 L34.7,11.3 L42.9,59.0 L0.0,36.5 L-42.9,59.0 L-34.7,11.3 L-69.4,-22.5 L-21.4,-29.5Z" fill="url(#lgrad0)" filter="url(#blur0)" opacity="0.84"/>
      </g>
      </g>
      </g>
      </g>
      </g>
      </g>
      </g>
  </g>
  <g transform="translate(290.0, 104.9)">
      <g transform="translate(-4.40,1.90) rotate(4.31) scale(1.000)">
        <g transform="translate(-2.72,2.86) rotate(7.43) scale(0.980)">
        <g transform="translate(-0.38,3.56) rotate(8.93) scale(0.960)">
        <g transform="translate(2.06,3.94) rotate(8.48) scale(0.940)">
        <g transform="translate(3.99,3.97) rotate(5.89) scale(0.920)">
        <g transform="translate(4.95,3.65) rotate(1.13) scale(0.900)" mask="url(#maskCircleFade)">
        <g transform="translate(4.69,3.00) rotate(-5.65) scale(0.880)">
        <rect x="-30.3" y="-30.3" width="60.6" height="60.6" rx="15.1" fill="url(#rgrad1)" filter="url(#shadow)" opacity="0.77"/>
        <circle cx="0" cy="0" r="20.2" fill="url(#rgrad2)" opacity="0.54"/>
      </g>
      </g>
      </g>
      </g>
      </g>
      </g>
      </g>
  </g>
  <g transform="translate(513.6, 119.5)">
      <g transform="translate(-0.38,3.99) rotate(4.31) scale(1.000)">
        <g transform="translate(2.06,3.90) rotate(7.43) scale(0.980)">
        <g transform="translate(3.99,3.46) rotate(8.93) scale(0.960)">
        <g transform="translate(4.95,2.72) rotate(8.48) scale(0.940)">
        <g transform="translate(4.69,1.73) rotate(5.89) scale(0.920)">
        <g transform="translate(3.29,0.58) rotate(1.13) scale(0.900)">
        <g transform="translate(1.08,-0.61) rotate(-5.65) scale(0.880)">
        <path d="M24.8,14.3 L0.0,28.6 L-24.8,14.3 L-24.8,-14.3 L-0.0,-28.6 L24.8,-14.3Z" fill="url(#rgrad2)" filter="url(#blur2)" opacity="0.67"/>
        <ellipse cx="0" cy="0" rx="11.9" ry="7.9" fill="#FFFFFF" opacity="0.33"/>
      </g>
      </g>
      </g>
      </g>
      </g>
      </g>
      </g>
  </g>
  <g transform="translate(743.7, 125.0)">
      <g transform="translate(3.99,2.41) rotate(4.31) scale(1.000)">
        <g transform="translate(4.95,1.36) rotate(7.43) scale(0.980)">
        <g transform="translate(4.69,0.19) rotate(8.93) scale(0.960)">
        <g transform="translate(3.29,-1.00) rotate(8.48) scale(0.940)" clip-path="url(#clipRect)">
        <g transform="translate(1.08,-2.10) rotate(5.89) scale(0.920)">
        <g transform="translate(-1.40,-3.01) rotate(1.13) scale(0.900)">
        <g transform="translate(-3.53,-3.66) rotate(-5.65) scale(0.880)">
        <circle cx="0" cy="0" r="23.1" fill="url(#lgrad3)" filter="url(#shadow)" opacity="0.55"/>
        <text x="0" y="5" text-anchor="middle" font-family="Arial, sans-serif" font-size="14" fill="#FFFFFF" opacity="0.55">670</text>
      </g>
      </g>
      </g>
      </g>
      </g>
      </g>
      </g>
  </g>
  <g transform="translate(977.7, 118.7)">
      <g transform="translate(4.69,-1.39) rotate(4.31) scale(1.000)">
        <g transform="translate(3.29,-2.43) rotate(7.43) scale(0.980)">
        <g transform="translate(1.08,-3.26) rotate(8.93) scale(0.960)">
        <g transform="translate(-1.40,-3.80) rotate(8.48) scale(0.940)">
        <g transform="translate(-3.53,-4.00) rotate(5.89) scale(0.920)">
        <g transform="translate(-4.79,-3.84) rotate(1.13) scale(0.900)" mask="url(#maskGradient)">
        <g transform="translate(-4.89,-3.34) rotate(-5.65) scale(0.880)">
        <path d="M0.0,-57.3 L16.8,-23.2 L54.5,-17.7 L27.3,8.9 L33.7,46.4 L0.0,28.7 L-33.7,46.4 L-27.3,8.9 L-54.5,-17.7 L-16.8,-23.2Z" fill="url(#rgrad4)" filter="url(#blur4)" opacity="0.44"/>
      </g>
      </g>
      </g>
      </g>
      </g>
      </g>
      </g>
  </g>
  <g transform="translate(1212.4, 103.6)">
      <g transform="translate(1.08,-3.91) rotate(4.31) scale(1.000)">
        <g transform="translate(-1.40,-3.99) rotate(7.43) scale(0.980)">
        <g transform="translate(-3.53,-3.71) rotate(8.93) scale(0.960)">
        <g transform="translate(-4.79,-3.10) rotate(8.48) scale(0.940)">
        <g transform="translate(-4.89,-2.22) rotate(5.89) scale(0.920)">
        <g transform="translate(-3.79,-1.14) rotate(1.13) scale(0.900)">
        <g transform="translate(-1.76,0.05) rotate(-5.65) scale(0.880)">
        <rect x="-35.5" y="-35.5" width="71.0" height="71.0" rx="17.7" fill="url(#rgrad0)" filter="url(#shadow)" opacity="0.32"/>
        <circle cx="0" cy="0" r="23.7" fill="url(#rgrad1)" opacity="0.23"/>
      </g>
      </g>
      </g>
      </g>
      </g>
      </g>
      </g>
  </g>
  <g transform="translate(1443.9, 86.9)">
      <g transform="translate(-3.53,-2.84) rotate(4.31) scale(1.000)">
        <g transform="translate(-4.79,-1.88) rotate(7.43) scale(0.980)">
        <g transform="translate(-4.89,-0.75) rotate(8.93) scale(0.960)">
        <g transform="translate(-3.79,0.45) rotate(8.48) scale(0.940)" clip-path="url(#clipStar)">
        <g transform="translate(-1.76,1.60) rotate(5.89) scale(0.920)">
        <g transform="translate(0.70,2.61) rotate(1.13) scale(0.900)">
        <g transform="translate(2.99,3.39) rotate(-5.65) scale(0.880)">
        <path d="M38.7,22.4 L0.0,44.7 L-38.7,22.4 L-38.7,-22.4 L-0.0,-44.7 L38.7,-22.4Z" fill="url(#lgrad1)" filter="url(#blur1)" opacity="0.22"/>
        <ellipse cx="0" cy="0" rx="18.6" ry="12.4" fill="#FFFFFF" opacity="0.11"/>
      </g>
      </g>
      </g>
      </g>
      </g>
      </g>
      </g>
  </g>
  <g transform="translate(1669.7, 76.2)">
      <g transform="translate(-4.89,0.84) rotate(4.31) scale(1.000)">
        <g transform="translate(-3.79,1.96) rotate(7.43) scale(0.980)">
        <g transform="translate(-1.76,2.90) rotate(8.93) scale(0.960)">
        <g transform="translate(0.70,3.59) rotate(8.48) scale(0.940)">
        <g transform="translate(2.99,3.95) rotate(5.89) scale(0.920)">
        <g transform="translate(4.55,3.96) rotate(1.13) scale(0.900)" mask="url(#maskDynamic)">
        <g transform="translate(4.99,3.62) rotate(-5.65) scale(0.880)">
        <circle cx="0" cy="0" r="32.4" fill="url(#rgrad2)" filter="url(#shadow)" opacity="0.15"/>
        <text x="0" y="5" text-anchor="middle" font-family="Arial, sans-serif" font-size="14" fill="#FFFFFF" opacity="0.15">670</text>
      </g>
      </g>
      </g>
      </g>
      </g>
      </g>
      </g>
  </g>
  <g transform="translate(128.1, 356.8)">
      <g transform="translate(-1.76,3.75) rotate(4.31) scale(1.000)">
        <g transform="translate(0.70,3.99) rotate(7.43) scale(0.980)">
        <g transform="translate(2.99,3.88) rotate(8.93) scale(0.960)">
        <g transform="translate(4.55,3.43) rotate(8.48) scale(0.940)">
        <g transform="translate(4.99,2.67) rotate(5.89) scale(0.920)">
        <g transform="translate(4.21,1.67) rotate(1.13) scale(0.900)">
        <g transform="translate(2.40,0.52) rotate(-5.65) scale(0.880)">
        <path d="M0.0,-50.6 L14.9,-20.5 L48.1,-15.6 L24.1,7.8 L29.7,40.9 L0.0,25.3 L-29.7,40.9 L-24.1,7.8 L-48.1,-15.6 L-14.9,-20.5Z" fill="url(#rgrad3)" filter="url(#blur3)" opacity="0.11"/>
      </g>
      </g>
      </g>
      </g>
      </g>
      </g>
      </g>
  </g>
  <g transform="translate(339.7, 368.3)">
      <g transform="translate(2.99,3.21) rotate(4.31) scale(1.000)">
        <g transform="translate(4.55,2.35) rotate(7.43) scale(0.980)">
        <g transform="translate(4.99,1.29) rotate(8.93) scale(0.960)">
        <g transform="translate(4.21,0.12) rotate(8.48) scale(0.940)" clip-path="url(#clipDynamic)">
        <g transform="translate(2.40,-1.07) rotate(5.89) scale(0.920)">
        <g transform="translate(0.00,-2.16) rotate(1.13) scale(0.900)">
        <g transform="translate(-2.40,-3.06) rotate(-5.65) scale(0.880)">
        <rect x="-22.5" y="-22.5" width="45.1" height="45.1" rx="11.3" fill="url(#lgrad4)" filter="url(#shadow)" opacity="0.10"/>
        <circle cx="0" cy="0" r="15.0" fill="url(#rgrad0)" opacity="0.07"/>
      </g>
      </g>
      </g>
      </g>
      </g>
      </g>
      </g>
  </g>
  <g transform="translate(546.5, 385.3)">
      <g transform="translate(4.99,-0.28) rotate(4.31) scale(1.000)">
        <g transform="translate(4.21,-1.45) rotate(7.43) scale(0.980)">
        <g transform="translate(2.40,-2.49) rotate(8.93) scale(0.960)">
        <g transform="translate(0.00,-3.30) rotate(8.48) scale(0.940)">
        <g transform="translate(-2.40,-3.82) rotate(5.89) scale(0.920)">
        <g transform="translate(-4.21,-4.00) rotate(1.13) scale(0.900)" mask="url(#maskStripes)">
        <g transform="translate(-4.99,-3.82) rotate(-5.65) scale(0.880)">
        <path d="M27.7,16.0 L0.0,32.0 L-27.7,16.0 L-27.7,-16.0 L-0.0,-32.0 L27.7,-16.0Z" fill="url(#rgrad0)" filter="url(#blur0)" opacity="0.13"/>
        <ellipse cx="0" cy="0" rx="13.3" ry="8.9" fill="#FFFFFF" opacity="0.07"/>
      </g>
      </g>
      </g>
      </g>
      </g>
      </g>
      </g>
  </g>
  <g transform="translate(751.6, 399.8)">
      <g transform="translate(2.40,-3.51) rotate(4.31) scale(1.000)">
        <g transform="translate(0.00,-3.92) rotate(7.43) scale(0.980)">
        <g transform="translate(-2.40,-3.98) rotate(8.93) scale(0.960)">
        <g transform="translate(-4.21,-3.68) rotate(8.48) scale(0.940)">
        <g transform="translate(-4.99,-3.06) rotate(5.89) scale(0.920)">
        <g transform="translate(-4.55,-2.16) rotate(1.13) scale(0.900)">
        <g transform="translate(-2.99,-1.07) rotate(-5.65) scale(0.880)">
        <circle cx="0" cy="0" r="33.8" fill="url(#rgrad1)" filter="url(#shadow)" opacity="0.19"/>
        <text x="0" y="5" text-anchor="middle" font-family="Arial, sans-serif" font-size="14" fill="#FFFFFF" opacity="0.19">670</text>
      </g>
      </g>
      </g>
      </g>
      </g>
      </g>
      </g>
  </g>
  <g transform="translate(958.8, 405.0)">
      <g transform="translate(-2.40,-3.51) rotate(4.31) scale(1.000)">
        <g transform="translate(-4.21,-2.79) rotate(7.43) scale(0.980)">
        <g transform="translate(-4.99,-1.82) rotate(8.93) scale(0.960)">
        <g transform="translate(-4.55,-0.68) rotate(8.48) scale(0.940)" clip-path="url(#clipHex)">
        <g transform="translate(-2.99,0.51) rotate(5.89) scale(0.920)">
        <g transform="translate(-0.71,1.66) rotate(1.13) scale(0.900)">
        <g transform="translate(1.75,2.66) rotate(-5.65) scale(0.880)">
        <path d="M0.0,-75.0 L22.0,-30.3 L71.3,-23.2 L35.7,11.6 L44.1,60.7 L0.0,37.5 L-44.1,60.7 L-35.7,11.6 L-71.3,-23.2 L-22.0,-30.3Z" fill="url(#lgrad2)" filter="url(#blur2)" opacity="0.28"/>
      </g>
      </g>
      </g>
      </g>
      </g>
      </g>
      </g>
  </g>
  <g transform="translate(1171.2, 398.4)">
      <g transform="translate(-4.99,-0.28) rotate(4.31) scale(1.000)">
        <g transform="translate(-4.55,0.91) rotate(7.43) scale(0.980)">
        <g transform="translate(-2.99,2.02) rotate(8.93) scale(0.960)">
        <g transform="translate(-0.71,2.95) rotate(8.48) scale(0.940)">
        <g transform="translate(1.75,3.62) rotate(5.89) scale(0.920)">
        <g transform="translate(3.78,3.96) rotate(1.13) scale(0.900)" mask="url(#maskCircleFade)">
        <g transform="translate(4.89,3.95) rotate(-5.65) scale(0.880)">
        <rect x="-34.3" y="-34.3" width="68.5" height="68.5" rx="17.1" fill="url(#rgrad3)" filter="url(#shadow)" opacity="0.39"/>
        <circle cx="0" cy="0" r="22.8" fill="url(#rgrad4)" opacity="0.27"/>
      </g>
      </g>
      </g>
      </g>
      </g>
      </g>
      </g>
  </g>
  <g transform="translate(1390.7, 383.2)">
      <g transform="translate(-2.99,3.20) rotate(4.31) scale(1.000)">
        <g transform="translate(-0.71,3.77) rotate(7.43) scale(0.980)">
        <g transform="translate(1.75,4.00) rotate(8.93) scale(0.960)">
        <g transform="translate(3.78,3.87) rotate(8.48) scale(0.940)">
        <g transform="translate(4.89,3.39) rotate(5.89) scale(0.920)">
        <g transform="translate(4.80,2.62) rotate(1.13) scale(0.900)">
        <g transform="translate(3.53,1.60) rotate(-5.65) scale(0.880)">
        <path d="M28.2,16.3 L0.0,32.5 L-28.2,16.3 L-28.2,-16.3 L-0.0,-32.5 L28.2,-16.3Z" fill="url(#rgrad4)" filter="url(#blur4)" opacity="0.51"/>
        <ellipse cx="0" cy="0" rx="13.6" ry="9.0" fill="#FFFFFF" opacity="0.25"/>
      </g>
      </g>
      </g>
      </g>
      </g>
      </g>
      </g>
  </g>
  <g transform="translate(1617.3, 366.5)">
      <g transform="translate(1.75,3.75) rotate(4.31) scale(1.000)">
        <g transform="translate(3.78,3.16) rotate(7.43) scale(0.980)">
        <g transform="translate(4.89,2.30) rotate(8.93) scale(0.960)">
        <g transform="translate(4.80,1.23) rotate(8.48) scale(0.940)" clip-path="url(#clipCircle)">
        <g transform="translate(3.53,0.05) rotate(5.89) scale(0.920)">
        <g transform="translate(1.40,-1.13) rotate(1.13) scale(0.900)">
        <g transform="translate(-1.07,-2.22) rotate(-5.65) scale(0.880)">
        <circle cx="0" cy="0" r="22.6" fill="url(#lgrad0)" filter="url(#shadow)" opacity="0.63"/>
        <text x="0" y="5" text-anchor="middle" font-family="Arial, sans-serif" font-size="14" fill="#FFFFFF" opacity="0.63">670</text>
      </g>
      </g>
      </g>
      </g>
      </g>
      </g>
      </g>
  </g>
  <g transform="translate(89.5, 636.1)">
      <g transform="translate(4.89,0.84) rotate(4.31) scale(1.000)">
        <g transform="translate(4.80,-0.35) rotate(7.43) scale(0.980)">
        <g transform="translate(3.53,-1.51) rotate(8.93) scale(0.960)">
        <g transform="translate(1.40,-2.54) rotate(8.48) scale(0.940)">
        <g transform="translate(-1.07,-3.34) rotate(5.89) scale(0.920)">
        <g transform="translate(-3.28,-3.84) rotate(1.13) scale(0.900)" mask="url(#maskGradient)">
        <g transform="translate(-4.69,-4.00) rotate(-5.65) scale(0.880)">
        <path d="M0.0,-49.8 L14.6,-20.2 L47.4,-15.4 L23.7,7.7 L29.3,40.3 L0.0,24.9 L-29.3,40.3 L-23.7,7.7 L-47.4,-15.4 L-14.6,-20.2Z" fill="url(#rgrad1)" filter="url(#blur1)" opacity="0.73"/>
      </g>
      </g>
      </g>
      </g>
      </g>
      </g>
      </g>
  </g>
  <g transform="translate(324.2, 637.0)">
      <g transform="translate(3.53,-2.83) rotate(4.31) scale(1.000)">
        <g transform="translate(1.40,-3.54) rotate(7.43) scale(0.980)">
        <g transform="translate(-1.07,-3.93) rotate(8.93) scale(0.960)">
        <g transform="translate(-3.28,-3.97) rotate(8.48) scale(0.940)">
        <g transform="translate(-4.69,-3.66) rotate(5.89) scale(0.920)">
        <g transform="translate(-4.95,-3.02) rotate(1.13) scale(0.900)">
        <g transform="translate(-3.99,-2.11) rotate(-5.65) scale(0.880)">
        <rect x="-31.9" y="-31.9" width="63.8" height="63.8" rx="15.9" fill="url(#rgrad2)" filter="url(#shadow)" opacity="0.82"/>
        <circle cx="0" cy="0" r="21.3" fill="url(#rgrad3)" opacity="0.57"/>
      </g>
      </g>
      </g>
      </g>
      </g>
      </g>
      </g>
  </g>
  <g transform="translate(557.9, 648.7)">
      <g transform="translate(-1.07,-3.91) rotate(4.31) scale(1.000)">
        <g transform="translate(-3.28,-3.48) rotate(7.43) scale(0.980)">
        <g transform="translate(-4.69,-2.74) rotate(8.93) scale(0.960)">
        <g transform="translate(-4.95,-1.76) rotate(8.48) scale(0.940)" clip-path="url(#clipRect)">
        <g transform="translate(-3.99,-0.61) rotate(5.89) scale(0.920)">
        <g transform="translate(-2.06,0.58) rotate(1.13) scale(0.900)">
        <g transform="translate(0.37,1.72) rotate(-5.65) scale(0.880)">
        <path d="M38.6,22.3 L0.0,44.6 L-38.6,22.3 L-38.6,-22.3 L-0.0,-44.6 L38.6,-22.3Z" fill="url(#lgrad3)" filter="url(#blur3)" opacity="0.88"/>
        <ellipse cx="0" cy="0" rx="18.6" ry="12.4" fill="#FFFFFF" opacity="0.44"/>
      </g>
      </g>
      </g>
      </g>
      </g>
      </g>
      </g>
  </g>
  <g transform="translate(787.3, 665.7)">
      <g transform="translate(-4.69,-1.39) rotate(4.31) scale(1.000)">
        <g transform="translate(-4.95,-0.22) rotate(7.43) scale(0.980)">
        <g transform="translate(-3.99,0.97) rotate(8.93) scale(0.960)">
        <g transform="translate(-2.06,2.08) rotate(8.48) scale(0.940)">
        <g transform="translate(0.37,2.99) rotate(5.89) scale(0.920)">
        <g transform="translate(2.72,3.64) rotate(1.13) scale(0.900)" mask="url(#maskDynamic)">
        <g transform="translate(4.40,3.97) rotate(-5.65) scale(0.880)">
        <circle cx="0" cy="0" r="35.8" fill="url(#rgrad4)" filter="url(#shadow)" opacity="0.90"/>
        <text x="0" y="5" text-anchor="middle" font-family="Arial, sans-serif" font-size="14" fill="#FFFFFF" opacity="0.90">670</text>
      </g>
      </g>
      </g>
      </g>
      </g>
      </g>
      </g>
  </g>
  <g transform="translate(1009.9, 680.0)">
      <g transform="translate(-3.99,2.41) rotate(4.31) scale(1.000)">
        <g transform="translate(-2.06,3.24) rotate(7.43) scale(0.980)">
        <g transform="translate(0.37,3.79) rotate(8.93) scale(0.960)">
        <g transform="translate(2.72,4.00) rotate(8.48) scale(0.940)">
        <g transform="translate(4.40,3.85) rotate(5.89) scale(0.920)">
        <g transform="translate(5.00,3.36) rotate(1.13) scale(0.900)">
        <g transform="translate(4.38,2.56) rotate(-5.65) scale(0.880)">
        <path d="M0.0,-58.3 L17.1,-23.6 L55.5,-18.0 L27.7,9.0 L34.3,47.2 L0.0,29.2 L-34.3,47.2 L-27.7,9.0 L-55.5,-18.0 L-17.1,-23.6Z" fill="url(#rgrad0)" filter="url(#blur0)" opacity="0.89"/>
      </g>
      </g>
      </g>
      </g>
      </g>
      </g>
      </g>
  </g>
  <g transform="translate(1225.2, 685.0)">
      <g transform="translate(0.37,3.99) rotate(4.31) scale(1.000)">
        <g transform="translate(2.72,3.72) rotate(7.43) scale(0.980)">
        <g transform="translate(4.40,3.12) rotate(8.93) scale(0.960)">
        <g transform="translate(5.00,2.24) rotate(8.48) scale(0.940)" clip-path="url(#clipStar)">
        <g transform="translate(4.38,1.17) rotate(5.89) scale(0.920)">
        <g transform="translate(2.68,-0.02) rotate(1.13) scale(0.900)">
        <g transform="translate(0.33,-1.20) rotate(-5.65) scale(0.880)">
        <rect x="-23.3" y="-23.3" width="46.5" height="46.5" rx="11.6" fill="url(#lgrad1)" filter="url(#shadow)" opacity="0.84"/>
        <circle cx="0" cy="0" r="15.5" fill="url(#rgrad2)" opacity="0.59"/>
      </g>
      </g>
      </g>
      </g>
      </g>
      </g>
      </g>
  </g>
  <g transform="translate(1434.4, 678.2)">
      <g transform="translate(4.40,1.90) rotate(4.31) scale(1.000)">
        <g transform="translate(5.00,0.78) rotate(7.43) scale(0.980)">
        <g transform="translate(4.38,-0.42) rotate(8.93) scale(0.960)">
        <g transform="translate(2.68,-1.57) rotate(8.48) scale(0.940)">
        <g transform="translate(0.33,-2.59) rotate(5.89) scale(0.920)">
        <g transform="translate(-2.10,-3.37) rotate(1.13) scale(0.900)" mask="url(#maskStripes)">
        <g transform="translate(-4.02,-3.86) rotate(-5.65) scale(0.880)">
        <path d="M24.5,14.1 L0.0,28.3 L-24.5,14.1 L-24.5,-14.1 L-0.0,-28.3 L24.5,-14.1Z" fill="url(#rgrad2)" filter="url(#blur2)" opacity="0.76"/>
        <ellipse cx="0" cy="0" rx="11.8" ry="7.9" fill="#FFFFFF" opacity="0.38"/>
      </g>
      </g>
      </g>
      </g>
      </g>
      </g>
      </g>
  </g>
  <g transform="translate(1640.0, 662.8)">
      <g transform="translate(4.38,-1.93) rotate(4.31) scale(1.000)">
        <g transform="translate(2.68,-2.88) rotate(7.43) scale(0.980)">
        <g transform="translate(0.33,-3.57) rotate(8.93) scale(0.960)">
        <g transform="translate(-2.10,-3.94) rotate(8.48) scale(0.940)">
        <g transform="translate(-4.02,-3.96) rotate(5.89) scale(0.920)">
        <g transform="translate(-4.95,-3.63) rotate(1.13) scale(0.900)">
        <g transform="translate(-4.68,-2.97) rotate(-5.65) scale(0.880)">
        <circle cx="0" cy="0" r="29.8" fill="url(#rgrad3)" filter="url(#shadow)" opacity="0.66"/>
        <text x="0" y="5" text-anchor="middle" font-family="Arial, sans-serif" font-size="14" fill="#FFFFFF" opacity="0.66">670</text>
      </g>
      </g>
      </g>
      </g>
      </g>
      </g>
      </g>
  </g>
  <g transform="translate(85.6, 926.1)">
      <g transform="translate(0.33,-3.99) rotate(4.31) scale(1.000)">
        <g transform="translate(-2.10,-3.89) rotate(7.43) scale(0.980)">
        <g transform="translate(-4.02,-3.44) rotate(8.93) scale(0.960)">
        <g transform="translate(-4.95,-2.69) rotate(8.48) scale(0.940)" clip-path="url(#clipDynamic)">
        <g transform="translate(-4.68,-1.69) rotate(5.89) scale(0.920)">
        <g transform="translate(-3.25,-0.55) rotate(1.13) scale(0.900)">
        <g transform="translate(-1.03,0.65) rotate(-5.65) scale(0.880)">
        <path d="M0.0,-72.4 L21.3,-29.3 L68.8,-22.4 L34.4,11.2 L42.5,58.6 L0.0,36.2 L-42.5,58.6 L-34.4,11.2 L-68.8,-22.4 L-21.3,-29.3Z" fill="url(#lgrad4)" filter="url(#blur4)" opacity="0.55"/>
      </g>
      </g>
      </g>
      </g>
      </g>
      </g>
      </g>
  </g>
  <g transform="translate(212.5, 261.3)" mask="url(#maskGradient)">
    <ellipse cx="0" cy="0" rx="200" ry="150" fill="url(#rgrad0)" filter="url(#blur3)" opacity="0.3"/>
  </g>
  <g transform="translate(712.0, 315.5)" mask="url(#maskCircleFade)">
    <ellipse cx="0" cy="0" rx="200" ry="150" fill="url(#rgrad1)" filter="url(#blur3)" opacity="0.3"/>
  </g>
  <g transform="translate(1292.5, 362.4)" mask="url(#maskStripes)">
    <ellipse cx="0" cy="0" rx="200" ry="150" fill="url(#rgrad2)" filter="url(#blur3)" opacity="0.3"/>
  </g>
</svg>