<?xml version="1.0" encoding="UTF-8"?>
<svg xmlns="http://www.w3.org/2000/svg" viewBox="0 0 1920 1080" width="1920" height="1080">
  <defs>
    <filter id="blur0" x="-50%" y="-50%" width="200%" height="200%">
      <feGaussianBlur in="SourceGraphic" stdDeviation="1"/>
    </filter>
    <filter id="blur1" x="-50%" y="-50%" width="200%" height="200%">
      <feGaussianBlur in="SourceGraphic" stdDeviation="3"/>
    </filter>
    <filter id="blur2" x="-50%" y="-50%" width="200%" height="200%">
      <feGaussianBlur in="SourceGraphic" stdDeviation="5"/>
    </filter>
    <filter id="blur3" x="-50%" y="-50%" width="200%" height="200%">
      <feGaussianBlur in="SourceGraphic" stdDeviation="7"/>
    </filter>
    <filter id="blur4" x="-50%" y="-50%" width="200%" height="200%">
      <feGaussianBlur in="SourceGraphic" stdDeviation="9"/>
    </filter>
    <filter id="shadow" x="-50%" y="-50%" width="200%" height="200%">
      <feGaussianBlur in="SourceAlpha" stdDeviation="3" result="blur"/>
      <feOffset in="blur" dx="4" dy="4" result="offsetBlur"/>
      <feMerge>
        <feMergeNode in="offsetBlur"/>
        <feMergeNode in="SourceGraphic"/>
      </feMerge>
    </filter>
    <linearGradient id="lgrad0" x1="0%" y1="0%" x2="85.0%" y2="85.7%">
      <stop offset="0%" stop-color="#FF6B6B"/>
      <stop offset="33%" stop-color="#4ECDC4"/>
      <stop offset="66%" stop-color="#45B7D1"/>
      <stop offset="100%" stop-color="#96E6A1"/>
    </linearGradient>
    <linearGradient id="lgrad1" x1="0%" y1="0%" x2="62.5%" y2="98.4%">
      <stop offset="0%" stop-color="#FFE66D"/>
      <stop offset="33%" stop-color="#FF6B6B"/>
      <stop offset="66%" stop-color="#C44D58"/>
      <stop offset="100%" stop-color="#8B0000"/>
    </linearGradient>
    <linearGradient id="lgrad2" x1="0%" y1="0%" x2="36.6%" y2="98.2%">
      <stop offset="0%" stop-color="#4169E1"/>
      <stop offset="33%" stop-color="#7B68EE"/>
      <stop offset="66%" stop-color="#9370DB"/>
      <stop offset="100%" stop-color="#FFD700"/>
    </linearGradient>
    <linearGradient id="lgrad3" x1="0%" y1="0%" x2="14.3%" y2="85.0%">
      <stop offset="0%" stop-color="#32CD32"/>
      <stop offset="33%" stop-color="#228B22"/>
      <stop offset="66%" stop-color="#006400"/>
      <stop offset="100%" stop-color="#ADFF2F"/>
    </linearGradient>
    <linearGradient id="lgrad4" x1="0%" y1="0%" x2="1.6%" y2="62.5%">
      <stop offset="0%" stop-color="#FF1493"/>
      <stop offset="33%" stop-color="#FF69B4"/>
      <stop offset="66%" stop-color="#FFB6C1"/>
      <stop offset="100%" stop-color="#FFC0CB"/>
    </linearGradient>
    <radialGradient id="rgrad0" cx="46.3%" cy="54.2%" r="60%">
      <stop offset="0%" stop-color="#FF6B6B" stop-opacity="1"/>
      <stop offset="50%" stop-color="#4ECDC4" stop-opacity="0.8"/>
      <stop offset="100%" stop-color="#45B7D1" stop-opacity="0.6"/>
    </radialGradient>
    <radialGradient id="rgrad1" cx="56.3%" cy="62.2%" r="60%">
      <stop offset="0%" stop-color="#FFE66D" stop-opacity="1"/>
      <stop offset="50%" stop-color="#FF6B6B" stop-opacity="0.8"/>
      <stop offset="100%" stop-color="#C44D58" stop-opacity="0.6"/>
    </radialGradient>
    <radialGradient id="rgrad2" cx="66.3%" cy="30.2%" r="60%">
      <stop offset="0%" stop-color="#4169E1" stop-opacity="1"/>
      <stop offset="50%" stop-color="#7B68EE" stop-opacity="0.8"/>
      <stop offset="100%" stop-color="#9370DB" stop-opacity="0.6"/>
    </radialGradient>
    <radialGradient id="rgrad3" cx="36.3%" cy="38.2%" r="60%">
      <stop offset="0%" stop-color="#32CD32" stop-opacity="1"/>
      <stop offset="50%" stop-color="#228B22" stop-opacity="0.8"/>
      <stop offset="100%" stop-color="#006400" stop-opacity="0.6"/>
    </radialGradient>
    <radialGradient id="rgrad4" cx="46.3%" cy="46.2%" r="60%">
      <stop offset="0%" stop-color="#FF1493" stop-opacity="1"/>
      <stop offset="50%" stop-color="#FF69B4" stop-opacity="0.8"/>
      <stop offset="100%" stop-color="#FFB6C1" stop-opacity="0.6"/>
    </radialGradient>
    <clipPath id="clipCircle">
      <circle cx="0" cy="0" r="50"/>
    </clipPath>
    <clipPath id="clipStar">
      <path d="M0.0,-50.0 L14.7,-20.2 L47.6,-15.5 L23.8,7.7 L29.4,40.5 L0.0,25.0 L-29.4,40.5 L-23.8,7.7 L-47.6,-15.5 L-14.7,-20.2Z"/>
    </clipPath>
    <clipPath id="clipHex">
      <path d="M39.0,22.5 L0.0,45.0 L-39.0,22.5 L-39.0,-22.5 L-0.0,-45.0 L39.0,-22.5Z"/>
    </clipPath>
    <clipPath id="clipRect">
      <rect x="-40" y="-30" width="80" height="60" rx="10"/>
    </clipPath>
    <clipPath id="clipDynamic">
      <circle cx="0" cy="0" r="20.3"/>
    </clipPath>
    <mask id="maskGradient" maskContentUnits="objectBoundingBox">
      <rect x="0" y="0" width="1" height="1" fill="url(#maskGrad)"/>
    </mask>
    <linearGradient id="maskGrad" x1="0%" y1="0%" x2="100%" y2="100%">
      <stop offset="0%" stop-color="white"/>
      <stop offset="100%" stop-color="black"/>
    </linearGradient>
    <mask id="maskCircleFade">
      <circle cx="0" cy="0" r="60" fill="white"/>
      <circle cx="0" cy="0" r="30" fill="black"/>
    </mask>
    <mask id="maskStripes">
      <rect x="-50" y="-50" width="100" height="100" fill="white"/>
      <rect x="-50" y="-40" width="100" height="10" fill="black"/>
      <rect x="-50" y="-20" width="100" height="10" fill="black"/>
      <rect x="-50" y="0" width="100" height="10" fill="black"/>
      <rect x="-50" y="20" width="100" height="10" fill="black"/>
      <rect x="-50" y="40" width="100" height="10" fill="black"/>
    </mask>
    <mask id="maskDynamic">
      <rect x="-60" y="-60" width="120" height="120" fill="white" fill-opacity="0.84"/>
      <circle cx="0" cy="0" r="25" fill="white"/>
    </mask>
  </defs>
  <rect width="1920" height="1080" fill="url(#lgrad0)"/>
  <g transform="translate(70.5, 95.4)">
      <g transform="translate(-4.92,-0.73) rotate(3.85) scale(1.000)">
        <g transform="translate(-4.75,0.46) rotate(6.27) scale(0.980)">
        <g transform="translate(-3.43,1.62) rotate(6.89) scale(0.960)">
        <g transform="translate(-1.26,2.63) rotate(5.48) scale(0.940)" clip-path="url(#clipCircle)">
        <g transform="translate(1.21,3.40) rotate(1.93) scale(0.920)">
        <g transform="translate(3.39,3.87) rotate(-3.67) scale(0.900)">
        <g transform="translate(4.74,4.00) rotate(-11.10) scale(0.880)">
        <path d="M0.0,-71.5 L21.0,-28.9 L68.0,-22.1 L34.0,11.1 L42.0,57.9 L0.0,35.8 L-42.0,57.9 L-34.0,11.1 L-68.0,-22.1 L-21.0,-28.9Z" fill="url(#lgrad0)" filter="url(#blur0)" opacity="0.81"/>
      </g>
      </g>
      </g>
      </g>
      </g>
      </g>
      </g>
  </g>
  <g transform="translate(291.5, 112.3)">
      <g transform="translate(-3.43,2.91) rotate(3.85) scale(1.000)">
        <g transform="translate(-1.26,3.59) rotate(6.27) scale(0.980)">
        <g transform="translate(1.21,3.95) rotate(6.89) scale(0.960)">
        <g transform="translate(3.39,3.96) rotate(5.48) scale(0.940)">
        <g transform="translate(4.74,3.61) rotate(1.93) scale(0.920)">
        <g transform="translate(4.92,2.94) rotate(-3.67) scale(0.900)" mask="url(#maskCircleFade)">
        <g transform="translate(3.91,2.01) rotate(-11.10) scale(0.880)">
        <rect x="-29.1" y="-29.1" width="58.2" height="58.2" rx="14.5" fill="url(#rgrad1)" filter="url(#shadow)" opacity="0.72"/>
        <circle cx="0" cy="0" r="19.4" fill="url(#rgrad2)" opacity="0.50"/>
      </g>
      </g>
      </g>
      </g>
      </g>
      </g>
      </g>
  </g>
  <g transform="translate(519.4, 123.4)">
      <g transform="translate(1.21,3.88) rotate(3.85) scale(1.000)">
        <g transform="translate(3.39,3.42) rotate(6.27) scale(0.980)">
        <g transform="translate(4.74,2.65) rotate(6.89) scale(0.960)">
        <g transform="translate(4.92,1.65) rotate(5.48) scale(0.940)">
        <g transform="translate(3.91,0.50) rotate(1.93) scale(0.920)">
        <g transform="translate(1.93,-0.69) rotate(-3.67) scale(0.900)">
        <g transform="translate(-0.52,-1.83) rotate(-11.10) scale(0.880)">
        <path d="M24.2,13.9 L0.0,27.9 L-24.2,13.9 L-24.2,-13.9 L-0.0,-27.9 L24.2,-13.9Z" fill="url(#rgrad2)" filter="url(#blur2)" opacity="0.61"/>
        <ellipse cx="0" cy="0" rx="11.6" ry="7.7" fill="#FFFFFF" opacity="0.30"/>
      </g>
      </g>
      </g>
      </g>
      </g>
      </g>
      </g>
  </g>
  <g transform="translate(752.4, 123.5)">
      <g transform="translate(4.74,1.28) rotate(3.85) scale(1.000)">
        <g transform="translate(4.92,0.10) rotate(6.27) scale(0.980)">
        <g transform="translate(3.91,-1.08) rotate(6.89) scale(0.960)">
        <g transform="translate(1.93,-2.17) rotate(5.48) scale(0.940)" clip-path="url(#clipRect)">
        <g transform="translate(-0.52,-3.07) rotate(1.93) scale(0.920)">
        <g transform="translate(-2.84,-3.69) rotate(-3.67) scale(0.900)">
        <g transform="translate(-4.46,-3.98) rotate(-11.10) scale(0.880)">
        <circle cx="0" cy="0" r="23.6" fill="url(#lgrad3)" filter="url(#shadow)" opacity="0.49"/>
        <text x="0" y="5" text-anchor="middle" font-family="Arial, sans-serif" font-size="14" fill="#FFFFFF" opacity="0.49">721</text>
      </g>
      </g>
      </g>
      </g>
      </g>
      </g>
      </g>
  </g>
  <g transform="translate(987.3, 112.5)">
      <g transform="translate(3.91,-2.50) rotate(3.85) scale(1.000)">
        <g transform="translate(1.93,-3.31) rotate(6.27) scale(0.980)">
        <g transform="translate(-0.52,-3.83) rotate(6.89) scale(0.960)">
        <g transform="translate(-2.84,-4.00) rotate(5.48) scale(0.940)">
        <g transform="translate(-4.46,-3.82) rotate(1.93) scale(0.920)">
        <g transform="translate(-5.00,-3.29) rotate(-3.67) scale(0.900)" mask="url(#maskGradient)">
        <g transform="translate(-4.31,-2.48) rotate(-11.10) scale(0.880)">
        <path d="M0.0,-59.7 L17.5,-24.2 L56.8,-18.5 L28.4,9.2 L35.1,48.3 L0.0,29.9 L-35.1,48.3 L-28.4,9.2 L-56.8,-18.5 L-17.5,-24.2Z" fill="url(#rgrad4)" filter="url(#blur4)" opacity="0.37"/>
      </g>
      </g>
      </g>
      </g>
      </g>
      </g>
      </g>
  </g>
  <g transform="translate(1220.3, 95.7)">
      <g transform="translate(-0.52,-3.98) rotate(3.85) scale(1.000)">
        <g transform="translate(-2.84,-3.68) rotate(6.27) scale(0.980)">
        <g transform="translate(-4.46,-3.05) rotate(6.89) scale(0.960)">
        <g transform="translate(-5.00,-2.15) rotate(5.48) scale(0.940)">
        <g transform="translate(-4.31,-1.06) rotate(1.93) scale(0.920)">
        <g transform="translate(-2.56,0.13) rotate(-3.67) scale(0.900)">
        <g transform="translate(-0.19,1.31) rotate(-11.10) scale(0.880)">
        <rect x="-36.2" y="-36.2" width="72.5" height="72.5" rx="18.1" fill="url(#rgrad0)" filter="url(#shadow)" opacity="0.27"/>
        <circle cx="0" cy="0" r="24.2" fill="url(#rgrad1)" opacity="0.19"/>
      </g>
      </g>
      </g>
      </g>
      </g>
      </g>
      </g>
  </g>
  <g transform="translate(1448.4, 80.8)">
      <g transform="translate(-4.46,-1.80) rotate(3.85) scale(1.000)">
        <g transform="translate(-5.00,-0.67) rotate(6.27) scale(0.980)">
        <g transform="translate(-4.31,0.53) rotate(6.89) scale(0.960)">
        <g transform="translate(-2.56,1.68) rotate(5.48) scale(0.940)" clip-path="url(#clipStar)">
        <g transform="translate(-0.19,2.68) rotate(1.93) scale(0.920)">
        <g transform="translate(2.23,3.44) rotate(-3.67) scale(0.900)">
        <g transform="translate(4.10,3.89) rotate(-11.10) scale(0.880)">
        <path d="M38.3,22.1 L0.0,44.3 L-38.3,22.1 L-38.3,-22.1 L-0.0,-44.3 L38.3,-22.1Z" fill="url(#lgrad1)" filter="url(#blur1)" opacity="0.18"/>
        <ellipse cx="0" cy="0" rx="18.4" ry="12.3" fill="#FFFFFF" opacity="0.09"/>
      </g>
      </g>
      </g>
      </g>
      </g>
      </g>
      </g>
  </g>
  <g transform="translate(1669.5, 75.0)">
      <g transform="translate(-4.31,2.03) rotate(3.85) scale(1.000)">
        <g transform="translate(-2.56,2.96) rotate(6.27) scale(0.980)">
        <g transform="translate(-0.19,3.62) rotate(6.89) scale(0.960)">
        <g transform="translate(2.23,3.96) rotate(5.48) scale(0.940)">
        <g transform="translate(4.10,3.95) rotate(1.93) scale(0.920)">
        <g transform="translate(4.97,3.58) rotate(-3.67) scale(0.900)" mask="url(#maskDynamic)">
        <g transform="translate(4.62,2.89) rotate(-11.10) scale(0.880)">
        <circle cx="0" cy="0" r="31.2" fill="url(#rgrad2)" filter="url(#shadow)" opacity="0.12"/>
        <text x="0" y="5" text-anchor="middle" font-family="Arial, sans-serif" font-size="14" fill="#FFFFFF" opacity="0.12">721</text>
      </g>
      </g>
      </g>
      </g>
      </g>
      </g>
      </g>
  </g>
  <g transform="translate(123.4, 360.9)">
      <g transform="translate(-0.19,4.00) rotate(3.85) scale(1.000)">
        <g transform="translate(2.23,3.86) rotate(6.27) scale(0.980)">
        <g transform="translate(4.10,3.38) rotate(6.89) scale(0.960)">
        <g transform="translate(4.97,2.60) rotate(5.48) scale(0.940)">
        <g transform="translate(4.62,1.59) rotate(1.93) scale(0.920)">
        <g transform="translate(3.14,0.43) rotate(-3.67) scale(0.900)">
        <g transform="translate(0.89,-0.76) rotate(-11.10) scale(0.880)">
        <path d="M0.0,-48.8 L14.4,-19.8 L46.4,-15.1 L23.2,7.5 L28.7,39.5 L0.0,24.4 L-28.7,39.5 L-23.2,7.5 L-46.4,-15.1 L-14.4,-19.8Z" fill="url(#rgrad3)" filter="url(#blur3)" opacity="0.10"/>
      </g>
      </g>
      </g>
      </g>
      </g>
      </g>
      </g>
  </g>
  <g transform="translate(331.6, 375.8)">
      <g transform="translate(4.10,2.29) rotate(3.85) scale(1.000)">
        <g transform="translate(4.97,1.22) rotate(6.27) scale(0.980)">
        <g transform="translate(4.62,0.03) rotate(6.89) scale(0.960)">
        <g transform="translate(3.14,-1.15) rotate(5.48) scale(0.940)" clip-path="url(#clipDynamic)">
        <g transform="translate(0.89,-2.23) rotate(1.93) scale(0.920)">
        <g transform="translate(-1.58,-3.11) rotate(-3.67) scale(0.900)">
        <g transform="translate(-3.66,-3.72) rotate(-11.10) scale(0.880)">
        <rect x="-22.8" y="-22.8" width="45.5" height="45.5" rx="11.4" fill="url(#lgrad4)" filter="url(#shadow)" opacity="0.11"/>
        <circle cx="0" cy="0" r="15.2" fill="url(#rgrad0)" opacity="0.08"/>
      </g>
      </g>
      </g>
      </g>
      </g>
      </g>
      </g>
  </g>
  <g transform="translate(536.9, 392.7)">
      <g transform="translate(4.62,-1.53) rotate(3.85) scale(1.000)">
        <g transform="translate(3.14,-2.55) rotate(6.27) scale(0.980)">
        <g transform="translate(0.89,-3.35) rotate(6.89) scale(0.960)">
        <g transform="translate(-1.58,-3.84) rotate(5.48) scale(0.940)">
        <g transform="translate(-3.66,-4.00) rotate(1.93) scale(0.920)">
        <g transform="translate(-4.84,-3.80) rotate(-3.67) scale(0.900)" mask="url(#maskStripes)">
        <g transform="translate(-4.84,-3.25) rotate(-11.10) scale(0.880)">
        <path d="M28.9,16.7 L0.0,33.3 L-28.9,16.7 L-28.9,-16.7 L-0.0,-33.3 L28.9,-16.7Z" fill="url(#rgrad0)" filter="url(#blur0)" opacity="0.16"/>
        <ellipse cx="0" cy="0" rx="13.9" ry="9.3" fill="#FFFFFF" opacity="0.08"/>
      </g>
      </g>
      </g>
      </g>
      </g>
      </g>
      </g>
  </g>
  <g transform="translate(743.0, 403.6)">
      <g transform="translate(0.89,-3.94) rotate(3.85) scale(1.000)">
        <g transform="translate(-1.58,-3.97) rotate(6.27) scale(0.980)">
        <g transform="translate(-3.66,-3.65) rotate(6.89) scale(0.960)">
        <g transform="translate(-4.84,-3.01) rotate(5.48) scale(0.940)">
        <g transform="translate(-4.84,-2.09) rotate(1.93) scale(0.920)">
        <g transform="translate(-3.66,-0.99) rotate(-3.67) scale(0.900)">
        <g transform="translate(-1.58,0.20) rotate(-11.10) scale(0.880)">
        <circle cx="0" cy="0" r="34.8" fill="url(#rgrad1)" filter="url(#shadow)" opacity="0.24"/>
        <text x="0" y="5" text-anchor="middle" font-family="Arial, sans-serif" font-size="14" fill="#FFFFFF" opacity="0.24">721</text>
      </g>
      </g>
      </g>
      </g>
      </g>
      </g>
      </g>
  </g>
  <g transform="translate(953.2, 403.4)">
      <g transform="translate(-3.66,-2.73) rotate(3.85) scale(1.000)">
        <g transform="translate(-4.84,-1.74) rotate(6.27) scale(0.980)">
        <g transform="translate(-4.84,-0.60) rotate(6.89) scale(0.960)">
        <g transform="translate(-3.66,0.60) rotate(5.48) scale(0.940)" clip-path="url(#clipHex)">
        <g transform="translate(-1.58,1.74) rotate(1.93) scale(0.920)">
        <g transform="translate(0.89,2.73) rotate(-3.67) scale(0.900)">
        <g transform="translate(3.14,3.47) rotate(-11.10) scale(0.880)">
        <path d="M0.0,-74.9 L22.0,-30.3 L71.2,-23.1 L35.6,11.6 L44.0,60.6 L0.0,37.4 L-44.0,60.6 L-35.6,11.6 L-71.2,-23.1 L-22.0,-30.3Z" fill="url(#lgrad2)" filter="url(#blur2)" opacity="0.34"/>
      </g>
      </g>
      </g>
      </g>
      </g>
      </g>
      </g>
  </g>
  <g transform="translate(1170.0, 392.2)">
      <g transform="translate(-4.84,0.99) rotate(3.85) scale(1.000)">
        <g transform="translate(-3.66,2.09) rotate(6.27) scale(0.980)">
        <g transform="translate(-1.58,3.00) rotate(6.89) scale(0.960)">
        <g transform="translate(0.89,3.65) rotate(5.48) scale(0.940)">
        <g transform="translate(3.14,3.97) rotate(1.93) scale(0.920)">
        <g transform="translate(4.62,3.94) rotate(-3.67) scale(0.900)" mask="url(#maskCircleFade)">
        <g transform="translate(4.97,3.55) rotate(-11.10) scale(0.880)">
        <rect x="-33.2" y="-33.2" width="66.4" height="66.4" rx="16.6" fill="url(#rgrad3)" filter="url(#shadow)" opacity="0.45"/>
        <circle cx="0" cy="0" r="22.1" fill="url(#rgrad4)" opacity="0.32"/>
      </g>
      </g>
      </g>
      </g>
      </g>
      </g>
      </g>
  </g>
  <g transform="translate(1394.2, 375.2)">
      <g transform="translate(-1.58,3.80) rotate(3.85) scale(1.000)">
        <g transform="translate(0.89,4.00) rotate(6.27) scale(0.980)">
        <g transform="translate(3.14,3.85) rotate(6.89) scale(0.960)">
        <g transform="translate(4.62,3.35) rotate(5.48) scale(0.940)">
        <g transform="translate(4.97,2.55) rotate(1.93) scale(0.920)">
        <g transform="translate(4.10,1.53) rotate(-3.67) scale(0.900)">
        <g transform="translate(2.23,0.37) rotate(-11.10) scale(0.880)">
        <path d="M27.1,15.6 L0.0,31.2 L-27.1,15.6 L-27.1,-15.6 L-0.0,-31.2 L27.1,-15.6Z" fill="url(#rgrad4)" filter="url(#blur4)" opacity="0.57"/>
        <ellipse cx="0" cy="0" rx="13.0" ry="8.7" fill="#FFFFFF" opacity="0.29"/>
      </g>
      </g>
      </g>
      </g>
      </g>
      </g>
      </g>
  </g>
  <g transform="translate(1624.6, 360.6)">
      <g transform="translate(3.14,3.11) rotate(3.85) scale(1.000)">
        <g transform="translate(4.62,2.23) rotate(6.27) scale(0.980)">
        <g transform="translate(4.97,1.15) rotate(6.89) scale(0.960)">
        <g transform="translate(4.10,-0.03) rotate(5.48) scale(0.940)" clip-path="url(#clipCircle)">
        <g transform="translate(2.23,-1.21) rotate(1.93) scale(0.920)">
        <g transform="translate(-0.19,-2.29) rotate(-3.67) scale(0.900)">
        <g transform="translate(-2.56,-3.15) rotate(-11.10) scale(0.880)">
        <circle cx="0" cy="0" r="22.5" fill="url(#lgrad0)" filter="url(#shadow)" opacity="0.69"/>
        <text x="0" y="5" text-anchor="middle" font-family="Arial, sans-serif" font-size="14" fill="#FFFFFF" opacity="0.69">721</text>
      </g>
      </g>
      </g>
      </g>
      </g>
      </g>
      </g>
  </g>
  <g transform="translate(98.9, 635.0)">
      <g transform="translate(4.97,-0.43) rotate(3.85) scale(1.000)">
        <g transform="translate(4.10,-1.59) rotate(6.27) scale(0.980)">
        <g transform="translate(2.23,-2.60) rotate(6.89) scale(0.960)">
        <g transform="translate(-0.19,-3.38) rotate(5.48) scale(0.940)">
        <g transform="translate(-2.56,-3.86) rotate(1.93) scale(0.920)">
        <g transform="translate(-4.31,-4.00) rotate(-3.67) scale(0.900)" mask="url(#maskGradient)">
        <g transform="translate(-5.00,-3.77) rotate(-11.10) scale(0.880)">
        <path d="M0.0,-51.7 L15.2,-20.9 L49.2,-16.0 L24.6,8.0 L30.4,41.8 L0.0,25.9 L-30.4,41.8 L-24.6,8.0 L-49.2,-16.0 L-15.2,-20.9Z" fill="url(#rgrad1)" filter="url(#blur1)" opacity="0.78"/>
      </g>
      </g>
      </g>
      </g>
      </g>
      </g>
      </g>
  </g>
  <g transform="translate(333.4, 641.2)">
      <g transform="translate(2.23,-3.58) rotate(3.85) scale(1.000)">
        <g transform="translate(-0.19,-3.95) rotate(6.27) scale(0.980)">
        <g transform="translate(-2.56,-3.96) rotate(6.89) scale(0.960)">
        <g transform="translate(-4.31,-3.62) rotate(5.48) scale(0.940)">
        <g transform="translate(-5.00,-2.96) rotate(1.93) scale(0.920)">
        <g transform="translate(-4.47,-2.03) rotate(-3.67) scale(0.900)">
        <g transform="translate(-2.84,-0.93) rotate(-11.10) scale(0.880)">
        <rect x="-33.0" y="-33.0" width="66.0" height="66.0" rx="16.5" fill="url(#rgrad2)" filter="url(#shadow)" opacity="0.85"/>
        <circle cx="0" cy="0" r="22.0" fill="url(#rgrad3)" opacity="0.60"/>
      </g>
      </g>
      </g>
      </g>
      </g>
      </g>
      </g>
  </g>
  <g transform="translate(564.6, 656.3)">
      <g transform="translate(-2.56,-3.44) rotate(3.85) scale(1.000)">
        <g transform="translate(-4.31,-2.68) rotate(6.27) scale(0.980)">
        <g transform="translate(-5.00,-1.68) rotate(6.89) scale(0.960)">
        <g transform="translate(-4.47,-0.53) rotate(5.48) scale(0.940)" clip-path="url(#clipRect)">
        <g transform="translate(-2.84,0.66) rotate(1.93) scale(0.920)">
        <g transform="translate(-0.52,1.80) rotate(-3.67) scale(0.900)">
        <g transform="translate(1.93,2.77) rotate(-11.10) scale(0.880)">
        <path d="M38.9,22.4 L0.0,44.9 L-38.9,22.4 L-38.9,-22.4 L-0.0,-44.9 L38.9,-22.4Z" fill="url(#lgrad3)" filter="url(#blur3)" opacity="0.89"/>
        <ellipse cx="0" cy="0" rx="18.7" ry="12.5" fill="#FFFFFF" opacity="0.45"/>
      </g>
      </g>
      </g>
      </g>
      </g>
      </g>
      </g>
  </g>
  <g transform="translate(789.8, 673.1)">
      <g transform="translate(-5.00,-0.13) rotate(3.85) scale(1.000)">
        <g transform="translate(-4.47,1.05) rotate(6.27) scale(0.980)">
        <g transform="translate(-2.84,2.15) rotate(6.89) scale(0.960)">
        <g transform="translate(-0.52,3.05) rotate(5.48) scale(0.940)">
        <g transform="translate(1.93,3.68) rotate(1.93) scale(0.920)">
        <g transform="translate(3.90,3.98) rotate(-3.67) scale(0.900)" mask="url(#maskDynamic)">
        <g transform="translate(4.92,3.92) rotate(-11.10) scale(0.880)">
        <circle cx="0" cy="0" r="35.0" fill="url(#rgrad4)" filter="url(#shadow)" opacity="0.90"/>
        <text x="0" y="5" text-anchor="middle" font-family="Arial, sans-serif" font-size="14" fill="#FFFFFF" opacity="0.90">721</text>
      </g>
      </g>
      </g>
      </g>
      </g>
      </g>
      </g>
  </g>
  <g transform="translate(1007.7, 683.7)">
      <g transform="translate(-2.84,3.29) rotate(3.85) scale(1.000)">
        <g transform="translate(-0.52,3.82) rotate(6.27) scale(0.980)">
        <g transform="translate(1.93,4.00) rotate(6.89) scale(0.960)">
        <g transform="translate(3.90,3.83) rotate(5.48) scale(0.940)">
        <g transform="translate(4.92,3.31) rotate(1.93) scale(0.920)">
        <g transform="translate(4.74,2.50) rotate(-3.67) scale(0.900)">
        <g transform="translate(3.39,1.47) rotate(-11.10) scale(0.880)">
        <path d="M0.0,-56.0 L16.4,-22.6 L53.2,-17.3 L26.6,8.6 L32.9,45.3 L0.0,28.0 L-32.9,45.3 L-26.6,8.6 L-53.2,-17.3 L-16.4,-22.6Z" fill="url(#rgrad0)" filter="url(#blur0)" opacity="0.87"/>
      </g>
      </g>
      </g>
      </g>
      </g>
      </g>
      </g>
  </g>
  <g transform="translate(1218.9, 683.2)">
      <g transform="translate(1.93,3.69) rotate(3.85) scale(1.000)">
        <g transform="translate(3.90,3.07) rotate(6.27) scale(0.980)">
        <g transform="translate(4.92,2.18) rotate(6.89) scale(0.960)">
        <g transform="translate(4.74,1.09) rotate(5.48) scale(0.940)" clip-path="url(#clipStar)">
        <g transform="translate(3.39,-0.10) rotate(1.93) scale(0.920)">
        <g transform="translate(1.22,-1.28) rotate(-3.67) scale(0.900)">
        <g transform="translate(-1.26,-2.34) rotate(-11.10) scale(0.880)">
        <rect x="-22.8" y="-22.8" width="45.7" height="45.7" rx="11.4" fill="url(#lgrad1)" filter="url(#shadow)" opacity="0.80"/>
        <circle cx="0" cy="0" r="15.2" fill="url(#rgrad2)" opacity="0.56"/>
      </g>
      </g>
      </g>
      </g>
      </g>
      </g>
      </g>
  </g>
  <g transform="translate(1425.4, 671.8)">
      <g transform="translate(4.92,0.70) rotate(3.85) scale(1.000)">
        <g transform="translate(4.74,-0.50) rotate(6.27) scale(0.980)">
        <g transform="translate(3.39,-1.65) rotate(6.89) scale(0.960)">
        <g transform="translate(1.22,-2.65) rotate(5.48) scale(0.940)">
        <g transform="translate(-1.26,-3.42) rotate(1.93) scale(0.920)">
        <g transform="translate(-3.42,-3.88) rotate(-3.67) scale(0.900)" mask="url(#maskStripes)">
        <g transform="translate(-4.75,-3.99) rotate(-11.10) scale(0.880)">
        <path d="M25.2,14.6 L0.0,29.1 L-25.2,14.6 L-25.2,-14.6 L-0.0,-29.1 L25.2,-14.6Z" fill="url(#rgrad2)" filter="url(#blur2)" opacity="0.71"/>
        <ellipse cx="0" cy="0" rx="12.1" ry="8.1" fill="#FFFFFF" opacity="0.36"/>
      </g>
      </g>
      </g>
      </g>
      </g>
      </g>
      </g>
  </g>
  <g transform="translate(1630.5, 654.8)">
      <g transform="translate(3.39,-2.94) rotate(3.85) scale(1.000)">
        <g transform="translate(1.22,-3.61) rotate(6.27) scale(0.980)">
        <g transform="translate(-1.26,-3.96) rotate(6.89) scale(0.960)">
        <g transform="translate(-3.42,-3.95) rotate(5.48) scale(0.940)">
        <g transform="translate(-4.75,-3.59) rotate(1.93) scale(0.920)">
        <g transform="translate(-4.92,-2.92) rotate(-3.67) scale(0.900)">
        <g transform="translate(-3.88,-1.98) rotate(-11.10) scale(0.880)">
        <circle cx="0" cy="0" r="31.0" fill="url(#rgrad3)" filter="url(#shadow)" opacity="0.60"/>
        <text x="0" y="5" text-anchor="middle" font-family="Arial, sans-serif" font-size="14" fill="#FFFFFF" opacity="0.60">721</text>
      </g>
      </g>
      </g>
      </g>
      </g>
      </g>
      </g>
  </g>
  <g transform="translate(78.1, 920.3)">
      <g transform="translate(-1.26,-3.87) rotate(3.85) scale(1.000)">
        <g transform="translate(-3.42,-3.40) rotate(6.27) scale(0.980)">
        <g transform="translate(-4.75,-2.63) rotate(6.89) scale(0.960)">
        <g transform="translate(-4.92,-1.62) rotate(5.48) scale(0.940)" clip-path="url(#clipDynamic)">
        <g transform="translate(-3.88,-0.47) rotate(1.93) scale(0.920)">
        <g transform="translate(-1.89,0.73) rotate(-3.67) scale(0.900)">
        <g transform="translate(0.56,1.86) rotate(-11.10) scale(0.880)">
        <path d="M0.0,-73.6 L21.6,-29.8 L70.0,-22.7 L35.0,11.4 L43.2,59.5 L0.0,36.8 L-43.2,59.5 L-35.0,11.4 L-70.0,-22.7 L-21.6,-29.8Z" fill="url(#lgrad4)" filter="url(#blur4)" opacity="0.48"/>
      </g>
      </g>
      </g>
      </g>
      </g>
      </g>
      </g>
  </g>
  <g transform="translate(201.7, 285.4)" mask="url(#maskGradient)">
    <ellipse cx="0" cy="0" rx="200" ry="150" fill="url(#rgrad0)" filter="url(#blur3)" opacity="0.3"/>
  </g>
  <g transform="translate(731.5, 339.5)" mask="url(#maskCircleFade)">
    <ellipse cx="0" cy="0" rx="200" ry="150" fill="url(#rgrad1)" filter="url(#blur3)" opacity="0.3"/>
  </g>
  <g transform="translate(1324.3, 375.0)" mask="url(#maskStripes)">
    <ellipse cx="0" cy="0" rx="200" ry="150" fill="url(#rgrad2)" filter="url(#blur3)" opacity="0.3"/>
  </g>
</svg>