<?xml version="1.0" encoding="UTF-8"?>
<svg xmlns="http://www.w3.org/2000/svg" viewBox="0 0 1920 1080" width="1920" height="1080">
  <defs>
    <filter id="blur0" x="-50%" y="-50%" width="200%" height="200%">
      <feGaussianBlur in="SourceGraphic" stdDeviation="1"/>
    </filter>
    <filter id="blur1" x="-50%" y="-50%" width="200%" height="200%">
      <feGaussianBlur in="SourceGraphic" stdDeviation="3"/>
    </filter>
    <filter id="blur2" x="-50%" y="-50%" width="200%" height="200%">
      <feGaussianBlur in="SourceGraphic" stdDeviation="5"/>
    </filter>
    <filter id="blur3" x="-50%" y="-50%" width="200%" height="200%">
      <feGaussianBlur in="SourceGraphic" stdDeviation="7"/>
    </filter>
    <filter id="blur4" x="-50%" y="-50%" width="200%" height="200%">
      <feGaussianBlur in="SourceGraphic" stdDeviation="9"/>
    </filter>
    <filter id="shadow" x="-50%" y="-50%" width="200%" height="200%">
      <feGaussianBlur in="SourceAlpha" stdDeviation="3" result="blur"/>
      <feOffset in="blur" dx="4" dy="4" result="offsetBlur"/>
      <feMerge>
        <feMergeNode in="offsetBlur"/>
        <feMergeNode in="SourceGraphic"/>
      </feMerge>
    </filter>
    <linearGradient id="lgrad0" x1="0%" y1="0%" x2="49.6%" y2="0.0%">
      <stop offset="0%" stop-color="#FF6B6B"/>
      <stop offset="33%" stop-color="#4ECDC4"/>
      <stop offset="66%" stop-color="#45B7D1"/>
      <stop offset="100%" stop-color="#96E6A1"/>
    </linearGradient>
    <linearGradient id="lgrad1" x1="0%" y1="0%" x2="74.6%" y2="6.5%">
      <stop offset="0%" stop-color="#FFE66D"/>
      <stop offset="33%" stop-color="#FF6B6B"/>
      <stop offset="66%" stop-color="#C44D58"/>
      <stop offset="100%" stop-color="#8B0000"/>
    </linearGradient>
    <linearGradient id="lgrad2" x1="0%" y1="0%" x2="93.1%" y2="24.6%">
      <stop offset="0%" stop-color="#4169E1"/>
      <stop offset="33%" stop-color="#7B68EE"/>
      <stop offset="66%" stop-color="#9370DB"/>
      <stop offset="100%" stop-color="#FFD700"/>
    </linearGradient>
    <linearGradient id="lgrad3" x1="0%" y1="0%" x2="100.0%" y2="49.6%">
      <stop offset="0%" stop-color="#32CD32"/>
      <stop offset="33%" stop-color="#228B22"/>
      <stop offset="66%" stop-color="#006400"/>
      <stop offset="100%" stop-color="#ADFF2F"/>
    </linearGradient>
    <linearGradient id="lgrad4" x1="0%" y1="0%" x2="93.5%" y2="74.6%">
      <stop offset="0%" stop-color="#FF1493"/>
      <stop offset="33%" stop-color="#FF69B4"/>
      <stop offset="66%" stop-color="#FFB6C1"/>
      <stop offset="100%" stop-color="#FFC0CB"/>
    </linearGradient>
    <radialGradient id="rgrad0" cx="44.7%" cy="39.8%" r="60%">
      <stop offset="0%" stop-color="#FF6B6B" stop-opacity="1"/>
      <stop offset="50%" stop-color="#4ECDC4" stop-opacity="0.8"/>
      <stop offset="100%" stop-color="#45B7D1" stop-opacity="0.6"/>
    </radialGradient>
    <radialGradient id="rgrad1" cx="54.7%" cy="47.8%" r="60%">
      <stop offset="0%" stop-color="#FFE66D" stop-opacity="1"/>
      <stop offset="50%" stop-color="#FF6B6B" stop-opacity="0.8"/>
      <stop offset="100%" stop-color="#C44D58" stop-opacity="0.6"/>
    </radialGradient>
    <radialGradient id="rgrad2" cx="64.7%" cy="55.8%" r="60%">
      <stop offset="0%" stop-color="#4169E1" stop-opacity="1"/>
      <stop offset="50%" stop-color="#7B68EE" stop-opacity="0.8"/>
      <stop offset="100%" stop-color="#9370DB" stop-opacity="0.6"/>
    </radialGradient>
    <radialGradient id="rgrad3" cx="34.7%" cy="63.8%" r="60%">
      <stop offset="0%" stop-color="#32CD32" stop-opacity="1"/>
      <stop offset="50%" stop-color="#228B22" stop-opacity="0.8"/>
      <stop offset="100%" stop-color="#006400" stop-opacity="0.6"/>
    </radialGradient>
    <radialGradient id="rgrad4" cx="44.7%" cy="31.8%" r="60%">
      <stop offset="0%" stop-color="#FF1493" stop-opacity="1"/>
      <stop offset="50%" stop-color="#FF69B4" stop-opacity="0.8"/>
      <stop offset="100%" stop-color="#FFB6C1" stop-opacity="0.6"/>
    </radialGradient>
    <clipPath id="clipCircle">
      <circle cx="0" cy="0" r="50"/>
    </clipPath>
    <clipPath id="clipStar">
      <path d="M0.0,-50.0 L14.7,-20.2 L47.6,-15.5 L23.8,7.7 L29.4,40.5 L0.0,25.0 L-29.4,40.5 L-23.8,7.7 L-47.6,-15.5 L-14.7,-20.2Z"/>
    </clipPath>
    <clipPath id="clipHex">
      <path d="M39.0,22.5 L0.0,45.0 L-39.0,22.5 L-39.0,-22.5 L-0.0,-45.0 L39.0,-22.5Z"/>
    </clipPath>
    <clipPath id="clipRect">
      <rect x="-40" y="-30" width="80" height="60" rx="10"/>
    </clipPath>
    <clipPath id="clipDynamic">
      <circle cx="0" cy="0" r="39.8"/>
    </clipPath>
    <mask id="maskGradient" maskContentUnits="objectBoundingBox">
      <rect x="0" y="0" width="1" height="1" fill="url(#maskGrad)"/>
    </mask>
    <linearGradient id="maskGrad" x1="0%" y1="0%" x2="100%" y2="100%">
      <stop offset="0%" stop-color="white"/>
      <stop offset="100%" stop-color="black"/>
    </linearGradient>
    <mask id="maskCircleFade">
      <circle cx="0" cy="0" r="60" fill="white"/>
      <circle cx="0" cy="0" r="30" fill="black"/>
    </mask>
    <mask id="maskStripes">
      <rect x="-50" y="-50" width="100" height="100" fill="white"/>
      <rect x="-50" y="-40" width="100" height="10" fill="black"/>
      <rect x="-50" y="-20" width="100" height="10" fill="black"/>
      <rect x="-50" y="0" width="100" height="10" fill="black"/>
      <rect x="-50" y="20" width="100" height="10" fill="black"/>
      <rect x="-50" y="40" width="100" height="10" fill="black"/>
    </mask>
    <mask id="maskDynamic">
      <rect x="-60" y="-60" width="120" height="120" fill="white" fill-opacity="0.99"/>
      <circle cx="0" cy="0" r="25" fill="white"/>
    </mask>
  </defs>
  <rect width="1920" height="1080" fill="url(#lgrad0)"/>
  <g transform="translate(109.5, 76.3)">
      <g transform="translate(1.59,-3.79) rotate(4.93) scale(1.000)">
        <g transform="translate(-0.88,-4.00) rotate(9.99) scale(0.980)">
        <g transform="translate(-3.13,-3.85) rotate(14.58) scale(0.960)">
        <g transform="translate(-4.62,-3.35) rotate(18.11) scale(0.940)" clip-path="url(#clipCircle)">
        <g transform="translate(-4.97,-2.56) rotate(20.08) scale(0.920)">
        <g transform="translate(-4.11,-1.54) rotate(20.07) scale(0.900)">
        <g transform="translate(-2.24,-0.38) rotate(17.78) scale(0.880)">
        <path d="M0.0,-74.8 L22.0,-30.3 L71.1,-23.1 L35.6,11.6 L44.0,60.5 L0.0,37.4 L-44.0,60.5 L-35.6,11.6 L-71.1,-23.1 L-22.0,-30.3Z" fill="url(#lgrad0)" filter="url(#blur0)" opacity="0.89"/>
      </g>
      </g>
      </g>
      </g>
      </g>
      </g>
      </g>
  </g>
  <g transform="translate(314.7, 76.7)">
      <g transform="translate(-3.13,-3.12) rotate(4.93) scale(1.000)">
        <g transform="translate(-4.62,-2.24) rotate(9.99) scale(0.980)">
        <g transform="translate(-4.97,-1.16) rotate(14.58) scale(0.960)">
        <g transform="translate(-4.11,0.02) rotate(18.11) scale(0.940)">
        <g transform="translate(-2.24,1.20) rotate(20.08) scale(0.920)">
        <g transform="translate(0.17,2.28) rotate(20.07) scale(0.900)" mask="url(#maskCircleFade)">
        <g transform="translate(2.55,3.15) rotate(17.78) scale(0.880)">
        <rect x="-35.0" y="-35.0" width="70.0" height="70.0" rx="17.5" fill="url(#rgrad1)" filter="url(#shadow)" opacity="0.90"/>
        <circle cx="0" cy="0" r="23.3" fill="url(#rgrad2)" opacity="0.63"/>
      </g>
      </g>
      </g>
      </g>
      </g>
      </g>
      </g>
  </g>
  <g transform="translate(521.2, 88.1)">
      <g transform="translate(-4.97,0.42) rotate(4.93) scale(1.000)">
        <g transform="translate(-4.11,1.58) rotate(9.99) scale(0.980)">
        <g transform="translate(-2.24,2.59) rotate(14.58) scale(0.960)">
        <g transform="translate(0.17,3.38) rotate(18.11) scale(0.940)">
        <g transform="translate(2.55,3.86) rotate(20.08) scale(0.920)">
        <g transform="translate(4.30,4.00) rotate(20.07) scale(0.900)">
        <g transform="translate(5.00,3.78) rotate(17.78) scale(0.880)">
        <path d="M29.1,16.8 L0.0,33.6 L-29.1,16.8 L-29.1,-16.8 L-0.0,-33.6 L29.1,-16.8Z" fill="url(#rgrad2)" filter="url(#blur2)" opacity="0.86"/>
        <ellipse cx="0" cy="0" rx="14.0" ry="9.3" fill="#FFFFFF" opacity="0.43"/>
      </g>
      </g>
      </g>
      </g>
      </g>
      </g>
      </g>
  </g>
  <g transform="translate(732.3, 105.1)">
      <g transform="translate(-2.24,3.57) rotate(4.93) scale(1.000)">
        <g transform="translate(0.17,3.95) rotate(9.99) scale(0.980)">
        <g transform="translate(2.55,3.96) rotate(14.58) scale(0.960)">
        <g transform="translate(4.30,3.63) rotate(18.11) scale(0.940)" clip-path="url(#clipRect)">
        <g transform="translate(5.00,2.97) rotate(20.08) scale(0.920)">
        <g transform="translate(4.47,2.04) rotate(20.07) scale(0.900)">
        <g transform="translate(2.85,0.94) rotate(17.78) scale(0.880)">
        <circle cx="0" cy="0" r="22.8" fill="url(#lgrad3)" filter="url(#shadow)" opacity="0.80"/>
        <text x="0" y="5" text-anchor="middle" font-family="Arial, sans-serif" font-size="14" fill="#FFFFFF" opacity="0.80">449</text>
      </g>
      </g>
      </g>
      </g>
      </g>
      </g>
      </g>
  </g>
  <g transform="translate(950.2, 119.7)">
      <g transform="translate(2.55,3.44) rotate(4.93) scale(1.000)">
        <g transform="translate(4.30,2.69) rotate(9.99) scale(0.980)">
        <g transform="translate(5.00,1.69) rotate(14.58) scale(0.960)">
        <g transform="translate(4.47,0.54) rotate(18.11) scale(0.940)">
        <g transform="translate(2.85,-0.65) rotate(20.08) scale(0.920)">
        <g transform="translate(0.53,-1.79) rotate(20.07) scale(0.900)" mask="url(#maskGradient)">
        <g transform="translate(-1.91,-2.77) rotate(17.78) scale(0.880)">
        <path d="M0.0,-48.5 L14.3,-19.6 L46.1,-15.0 L23.1,7.5 L28.5,39.2 L0.0,24.2 L-28.5,39.2 L-23.1,7.5 L-46.1,-15.0 L-14.3,-19.6Z" fill="url(#rgrad4)" filter="url(#blur4)" opacity="0.70"/>
      </g>
      </g>
      </g>
      </g>
      </g>
      </g>
      </g>
  </g>
  <g transform="translate(1175.3, 125.0)">
      <g transform="translate(5.00,0.15) rotate(4.93) scale(1.000)">
        <g transform="translate(4.47,-1.04) rotate(9.99) scale(0.980)">
        <g transform="translate(2.85,-2.14) rotate(14.58) scale(0.960)">
        <g transform="translate(0.53,-3.04) rotate(18.11) scale(0.940)">
        <g transform="translate(-1.91,-3.67) rotate(20.08) scale(0.920)">
        <g transform="translate(-3.89,-3.98) rotate(20.07) scale(0.900)">
        <g transform="translate(-4.92,-3.93) rotate(17.78) scale(0.880)">
        <rect x="-30.9" y="-30.9" width="61.9" height="61.9" rx="15.5" fill="url(#rgrad0)" filter="url(#shadow)" opacity="0.59"/>
        <circle cx="0" cy="0" r="20.6" fill="url(#rgrad1)" opacity="0.41"/>
      </g>
      </g>
      </g>
      </g>
      </g>
      </g>
      </g>
  </g>
  <g transform="translate(1406.5, 118.6)">
      <g transform="translate(2.85,-3.29) rotate(4.93) scale(1.000)">
        <g transform="translate(0.53,-3.81) rotate(9.99) scale(0.980)">
        <g transform="translate(-1.91,-4.00) rotate(14.58) scale(0.960)">
        <g transform="translate(-3.89,-3.83) rotate(18.11) scale(0.940)" clip-path="url(#clipStar)">
        <g transform="translate(-4.92,-3.32) rotate(20.08) scale(0.920)">
        <g transform="translate(-4.74,-2.51) rotate(20.07) scale(0.900)">
        <g transform="translate(-3.40,-1.48) rotate(17.78) scale(0.880)">
        <path d="M38.2,22.1 L0.0,44.1 L-38.2,22.1 L-38.2,-22.1 L-0.0,-44.1 L38.2,-22.1Z" fill="url(#lgrad1)" filter="url(#blur1)" opacity="0.47"/>
        <ellipse cx="0" cy="0" rx="18.4" ry="12.3" fill="#FFFFFF" opacity="0.24"/>
      </g>
      </g>
      </g>
      </g>
      </g>
      </g>
      </g>
  </g>
  <g transform="translate(1641.0, 103.4)">
      <g transform="translate(-1.91,-3.70) rotate(4.93) scale(1.000)">
        <g transform="translate(-3.89,-3.08) rotate(9.99) scale(0.980)">
        <g transform="translate(-4.92,-2.19) rotate(14.58) scale(0.960)">
        <g transform="translate(-4.74,-1.10) rotate(18.11) scale(0.940)">
        <g transform="translate(-3.40,0.09) rotate(20.08) scale(0.920)">
        <g transform="translate(-1.23,1.27) rotate(20.07) scale(0.900)" mask="url(#maskDynamic)">
        <g transform="translate(1.24,2.33) rotate(17.78) scale(0.880)">
        <circle cx="0" cy="0" r="36.4" fill="url(#rgrad2)" filter="url(#shadow)" opacity="0.36"/>
        <text x="0" y="5" text-anchor="middle" font-family="Arial, sans-serif" font-size="14" fill="#FFFFFF" opacity="0.36">449</text>
      </g>
      </g>
      </g>
      </g>
      </g>
      </g>
      </g>
  </g>
  <g transform="translate(115.3, 366.6)">
      <g transform="translate(-4.92,-0.71) rotate(4.93) scale(1.000)">
        <g transform="translate(-4.74,0.49) rotate(9.99) scale(0.980)">
        <g transform="translate(-3.40,1.64) rotate(14.58) scale(0.960)">
        <g transform="translate(-1.23,2.64) rotate(18.11) scale(0.940)">
        <g transform="translate(1.24,3.41) rotate(20.08) scale(0.920)">
        <g transform="translate(3.41,3.88) rotate(20.07) scale(0.900)">
        <g transform="translate(4.75,3.99) rotate(17.78) scale(0.880)">
        <path d="M0.0,-60.2 L17.7,-24.4 L57.3,-18.6 L28.6,9.3 L35.4,48.7 L0.0,30.1 L-35.4,48.7 L-28.6,9.3 L-57.3,-18.6 L-17.7,-24.4Z" fill="url(#rgrad3)" filter="url(#blur3)" opacity="0.25"/>
      </g>
      </g>
      </g>
      </g>
      </g>
      </g>
      </g>
  </g>
  <g transform="translate(345.8, 356.2)">
      <g transform="translate(-3.40,2.93) rotate(4.93) scale(1.000)">
        <g transform="translate(-1.23,3.60) rotate(9.99) scale(0.980)">
        <g transform="translate(1.24,3.96) rotate(14.58) scale(0.960)">
        <g transform="translate(3.41,3.95) rotate(18.11) scale(0.940)" clip-path="url(#clipDynamic)">
        <g transform="translate(4.75,3.60) rotate(20.08) scale(0.920)">
        <g transform="translate(4.92,2.92) rotate(20.07) scale(0.900)">
        <g transform="translate(3.89,1.99) rotate(17.78) scale(0.880)">
        <rect x="-23.8" y="-23.8" width="47.5" height="47.5" rx="11.9" fill="url(#lgrad4)" filter="url(#shadow)" opacity="0.17"/>
        <circle cx="0" cy="0" r="15.8" fill="url(#rgrad0)" opacity="0.12"/>
      </g>
      </g>
      </g>
      </g>
      </g>
      </g>
      </g>
  </g>
  <g transform="translate(570.0, 356.9)">
      <g transform="translate(1.24,3.87) rotate(4.93) scale(1.000)">
        <g transform="translate(3.41,3.41) rotate(9.99) scale(0.980)">
        <g transform="translate(4.75,2.64) rotate(14.58) scale(0.960)">
        <g transform="translate(4.92,1.63) rotate(18.11) scale(0.940)">
        <g transform="translate(3.89,0.48) rotate(20.08) scale(0.920)">
        <g transform="translate(1.90,-0.72) rotate(20.07) scale(0.900)" mask="url(#maskStripes)">
        <g transform="translate(-0.55,-1.85) rotate(17.78) scale(0.880)">
        <path d="M24.0,13.9 L0.0,27.8 L-24.0,13.9 L-24.0,-13.9 L-0.0,-27.8 L24.0,-13.9Z" fill="url(#rgrad0)" filter="url(#blur0)" opacity="0.12"/>
        <ellipse cx="0" cy="0" rx="11.6" ry="7.7" fill="#FFFFFF" opacity="0.06"/>
      </g>
      </g>
      </g>
      </g>
      </g>
      </g>
      </g>
  </g>
  <g transform="translate(786.8, 368.5)">
      <g transform="translate(4.75,1.26) rotate(4.93) scale(1.000)">
        <g transform="translate(4.92,0.08) rotate(9.99) scale(0.980)">
        <g transform="translate(3.89,-1.11) rotate(14.58) scale(0.960)">
        <g transform="translate(1.90,-2.19) rotate(18.11) scale(0.940)">
        <g transform="translate(-0.55,-3.08) rotate(20.08) scale(0.920)">
        <g transform="translate(-2.86,-3.70) rotate(20.07) scale(0.900)">
        <g transform="translate(-4.48,-3.98) rotate(17.78) scale(0.880)">
        <circle cx="0" cy="0" r="28.8" fill="url(#rgrad1)" filter="url(#shadow)" opacity="0.10"/>
        <text x="0" y="5" text-anchor="middle" font-family="Arial, sans-serif" font-size="14" fill="#FFFFFF" opacity="0.10">449</text>
      </g>
      </g>
      </g>
      </g>
      </g>
      </g>
      </g>
  </g>
  <g transform="translate(997.1, 385.5)">
      <g transform="translate(3.89,-2.52) rotate(4.93) scale(1.000)">
        <g transform="translate(1.90,-3.32) rotate(9.99) scale(0.980)">
        <g transform="translate(-0.55,-3.83) rotate(14.58) scale(0.960)">
        <g transform="translate(-2.86,-4.00) rotate(18.11) scale(0.940)" clip-path="url(#clipHex)">
        <g transform="translate(-4.48,-3.81) rotate(20.08) scale(0.920)">
        <g transform="translate(-5.00,-3.28) rotate(20.07) scale(0.900)">
        <g transform="translate(-4.29,-2.46) rotate(17.78) scale(0.880)">
        <path d="M0.0,-71.2 L20.9,-28.8 L67.7,-22.0 L33.9,11.0 L41.8,57.6 L0.0,35.6 L-41.8,57.6 L-33.9,11.0 L-67.7,-22.0 L-20.9,-28.8Z" fill="url(#lgrad2)" filter="url(#blur2)" opacity="0.12"/>
      </g>
      </g>
      </g>
      </g>
      </g>
      </g>
      </g>
  </g>
  <g transform="translate(1203.2, 399.9)">
      <g transform="translate(-0.55,-3.98) rotate(4.93) scale(1.000)">
        <g transform="translate(-2.86,-3.67) rotate(9.99) scale(0.980)">
        <g transform="translate(-4.48,-3.03) rotate(14.58) scale(0.960)">
        <g transform="translate(-5.00,-2.13) rotate(18.11) scale(0.940)">
        <g transform="translate(-4.29,-1.03) rotate(20.08) scale(0.920)">
        <g transform="translate(-2.54,0.16) rotate(20.07) scale(0.900)" mask="url(#maskCircleFade)">
        <g transform="translate(-0.16,1.33) rotate(17.78) scale(0.880)">
        <rect x="-37.2" y="-37.2" width="74.4" height="74.4" rx="18.6" fill="url(#rgrad3)" filter="url(#shadow)" opacity="0.17"/>
        <circle cx="0" cy="0" r="24.8" fill="url(#rgrad4)" opacity="0.12"/>
      </g>
      </g>
      </g>
      </g>
      </g>
      </g>
      </g>
  </g>
  <g transform="translate(1408.5, 405.0)">
      <g transform="translate(-4.48,-1.78) rotate(4.93) scale(1.000)">
        <g transform="translate(-5.00,-0.64) rotate(9.99) scale(0.980)">
        <g transform="translate(-4.29,0.55) rotate(14.58) scale(0.960)">
        <g transform="translate(-2.54,1.70) rotate(18.11) scale(0.940)">
        <g transform="translate(-0.16,2.69) rotate(20.08) scale(0.920)">
        <g transform="translate(2.26,3.45) rotate(20.07) scale(0.900)">
        <g transform="translate(4.12,3.89) rotate(17.78) scale(0.880)">
        <path d="M33.5,19.3 L0.0,38.7 L-33.5,19.3 L-33.5,-19.3 L-0.0,-38.7 L33.5,-19.3Z" fill="url(#rgrad4)" filter="url(#blur4)" opacity="0.25"/>
        <ellipse cx="0" cy="0" rx="16.1" ry="10.7" fill="#FFFFFF" opacity="0.13"/>
      </g>
      </g>
      </g>
      </g>
      </g>
      </g>
      </g>
  </g>
  <g transform="translate(1616.6, 398.3)">
      <g transform="translate(-4.29,2.05) rotate(4.93) scale(1.000)">
        <g transform="translate(-2.54,2.98) rotate(9.99) scale(0.980)">
        <g transform="translate(-0.16,3.63) rotate(14.58) scale(0.960)">
        <g transform="translate(2.26,3.97) rotate(18.11) scale(0.940)" clip-path="url(#clipCircle)">
        <g transform="translate(4.12,3.94) rotate(20.08) scale(0.920)">
        <g transform="translate(4.97,3.57) rotate(20.07) scale(0.900)">
        <g transform="translate(4.61,2.88) rotate(17.78) scale(0.880)">
        <circle cx="0" cy="0" r="25.2" fill="url(#lgrad0)" filter="url(#shadow)" opacity="0.35"/>
        <text x="0" y="5" text-anchor="middle" font-family="Arial, sans-serif" font-size="14" fill="#FFFFFF" opacity="0.35">449</text>
      </g>
      </g>
      </g>
      </g>
      </g>
      </g>
      </g>
  </g>
  <g transform="translate(70.5, 663.0)">
      <g transform="translate(-0.16,4.00) rotate(4.93) scale(1.000)">
        <g transform="translate(2.26,3.86) rotate(9.99) scale(0.980)">
        <g transform="translate(4.12,3.37) rotate(14.58) scale(0.960)">
        <g transform="translate(4.97,2.59) rotate(18.11) scale(0.940)">
        <g transform="translate(4.61,1.57) rotate(20.08) scale(0.920)">
        <g transform="translate(3.12,0.41) rotate(20.07) scale(0.900)" mask="url(#maskGradient)">
        <g transform="translate(0.86,-0.78) rotate(17.78) scale(0.880)">
        <path d="M0.0,-45.1 L13.3,-18.3 L42.9,-13.9 L21.5,7.0 L26.5,36.5 L0.0,22.6 L-26.5,36.5 L-21.5,7.0 L-42.9,-13.9 L-13.3,-18.3Z" fill="url(#rgrad1)" filter="url(#blur1)" opacity="0.47"/>
      </g>
      </g>
      </g>
      </g>
      </g>
      </g>
      </g>
  </g>
  <g transform="translate(291.5, 646.3)">
      <g transform="translate(4.12,2.27) rotate(4.93) scale(1.000)">
        <g transform="translate(4.97,1.19) rotate(9.99) scale(0.980)">
        <g transform="translate(4.61,0.01) rotate(14.58) scale(0.960)">
        <g transform="translate(3.12,-1.17) rotate(18.11) scale(0.940)">
        <g transform="translate(0.86,-2.25) rotate(20.08) scale(0.920)">
        <g transform="translate(-1.60,-3.13) rotate(20.07) scale(0.900)">
        <g transform="translate(-3.68,-3.72) rotate(17.78) scale(0.880)">
        <rect x="-26.8" y="-26.8" width="53.6" height="53.6" rx="13.4" fill="url(#rgrad2)" filter="url(#shadow)" opacity="0.59"/>
        <circle cx="0" cy="0" r="17.9" fill="url(#rgrad3)" opacity="0.41"/>
      </g>
      </g>
      </g>
      </g>
      </g>
      </g>
      </g>
  </g>
  <g transform="translate(519.6, 636.0)">
      <g transform="translate(4.61,-1.55) rotate(4.93) scale(1.000)">
        <g transform="translate(3.12,-2.57) rotate(9.99) scale(0.980)">
        <g transform="translate(0.86,-3.36) rotate(14.58) scale(0.960)">
        <g transform="translate(-1.60,-3.85) rotate(18.11) scale(0.940)" clip-path="url(#clipRect)">
        <g transform="translate(-3.68,-4.00) rotate(20.08) scale(0.920)">
        <g transform="translate(-4.85,-3.79) rotate(20.07) scale(0.900)">
        <g transform="translate(-4.84,-3.24) rotate(17.78) scale(0.880)">
        <path d="M35.3,20.4 L0.0,40.8 L-35.3,20.4 L-35.3,-20.4 L-0.0,-40.8 L35.3,-20.4Z" fill="url(#lgrad3)" filter="url(#blur3)" opacity="0.70"/>
        <ellipse cx="0" cy="0" rx="17.0" ry="11.3" fill="#FFFFFF" opacity="0.35"/>
      </g>
      </g>
      </g>
      </g>
      </g>
      </g>
      </g>
  </g>
  <g transform="translate(752.6, 637.1)">
      <g transform="translate(0.86,-3.94) rotate(4.93) scale(1.000)">
        <g transform="translate(-1.60,-3.97) rotate(9.99) scale(0.980)">
        <g transform="translate(-3.68,-3.64) rotate(14.58) scale(0.960)">
        <g transform="translate(-4.85,-2.99) rotate(18.11) scale(0.940)">
        <g transform="translate(-4.84,-2.07) rotate(20.08) scale(0.920)">
        <g transform="translate(-3.64,-0.97) rotate(20.07) scale(0.900)" mask="url(#maskDynamic)">
        <g transform="translate(-1.55,0.22) rotate(17.78) scale(0.880)">
        <circle cx="0" cy="0" r="37.5" fill="url(#rgrad4)" filter="url(#shadow)" opacity="0.79"/>
        <text x="0" y="5" text-anchor="middle" font-family="Arial, sans-serif" font-size="14" fill="#FFFFFF" opacity="0.79">449</text>
      </g>
      </g>
      </g>
      </g>
      </g>
      </g>
      </g>
  </g>
  <g transform="translate(987.5, 648.9)">
      <g transform="translate(-3.68,-2.71) rotate(4.93) scale(1.000)">
        <g transform="translate(-4.85,-1.72) rotate(9.99) scale(0.980)">
        <g transform="translate(-4.84,-0.58) rotate(14.58) scale(0.960)">
        <g transform="translate(-3.64,0.62) rotate(18.11) scale(0.940)">
        <g transform="translate(-1.55,1.76) rotate(20.08) scale(0.920)">
        <g transform="translate(0.92,2.74) rotate(20.07) scale(0.900)">
        <g transform="translate(3.16,3.48) rotate(17.78) scale(0.880)">
        <path d="M0.0,-68.2 L20.1,-27.6 L64.9,-21.1 L32.5,10.5 L40.1,55.2 L0.0,34.1 L-40.1,55.2 L-32.5,10.5 L-64.9,-21.1 L-20.1,-27.6Z" fill="url(#rgrad0)" filter="url(#blur0)" opacity="0.86"/>
      </g>
      </g>
      </g>
      </g>
      </g>
      </g>
      </g>
  </g>
  <g transform="translate(1220.5, 665.9)">
      <g transform="translate(-4.84,1.01) rotate(4.93) scale(1.000)">
        <g transform="translate(-3.64,2.11) rotate(9.99) scale(0.980)">
        <g transform="translate(-1.55,3.02) rotate(14.58) scale(0.960)">
        <g transform="translate(0.92,3.66) rotate(18.11) scale(0.940)" clip-path="url(#clipStar)">
        <g transform="translate(3.16,3.97) rotate(20.08) scale(0.920)">
        <g transform="translate(4.63,3.93) rotate(20.07) scale(0.900)">
        <g transform="translate(4.97,3.54) rotate(17.78) scale(0.880)">
        <rect x="-27.0" y="-27.0" width="53.9" height="53.9" rx="13.5" fill="url(#lgrad1)" filter="url(#shadow)" opacity="0.90"/>
        <circle cx="0" cy="0" r="18.0" fill="url(#rgrad2)" opacity="0.63"/>
      </g>
      </g>
      </g>
      </g>
      </g>
      </g>
      </g>
  </g>
  <g transform="translate(1448.5, 680.2)">
      <g transform="translate(-1.55,3.80) rotate(4.93) scale(1.000)">
        <g transform="translate(0.92,4.00) rotate(9.99) scale(0.980)">
        <g transform="translate(3.16,3.84) rotate(14.58) scale(0.960)">
        <g transform="translate(4.63,3.33) rotate(18.11) scale(0.940)">
        <g transform="translate(4.97,2.53) rotate(20.08) scale(0.920)">
        <g transform="translate(4.09,1.51) rotate(20.07) scale(0.900)" mask="url(#maskStripes)">
        <g transform="translate(2.20,0.34) rotate(17.78) scale(0.880)">
        <path d="M23.5,13.6 L0.0,27.1 L-23.5,13.6 L-23.5,-13.6 L-0.0,-27.1 L23.5,-13.6Z" fill="url(#rgrad2)" filter="url(#blur2)" opacity="0.90"/>
        <ellipse cx="0" cy="0" rx="11.3" ry="7.5" fill="#FFFFFF" opacity="0.45"/>
      </g>
      </g>
      </g>
      </g>
      </g>
      </g>
      </g>
  </g>
  <g transform="translate(1669.5, 684.9)">
      <g transform="translate(3.16,3.10) rotate(4.93) scale(1.000)">
        <g transform="translate(4.63,2.21) rotate(9.99) scale(0.980)">
        <g transform="translate(4.97,1.13) rotate(14.58) scale(0.960)">
        <g transform="translate(4.09,-0.06) rotate(18.11) scale(0.940)">
        <g transform="translate(2.20,-1.24) rotate(20.08) scale(0.920)">
        <g transform="translate(-0.22,-2.31) rotate(20.07) scale(0.900)">
        <g transform="translate(-2.59,-3.17) rotate(17.78) scale(0.880)">
        <circle cx="0" cy="0" r="25.0" fill="url(#rgrad3)" filter="url(#shadow)" opacity="0.86"/>
        <text x="0" y="5" text-anchor="middle" font-family="Arial, sans-serif" font-size="14" fill="#FFFFFF" opacity="0.86">449</text>
      </g>
      </g>
      </g>
      </g>
      </g>
      </g>
      </g>
  </g>
  <g transform="translate(123.3, 958.0)">
      <g transform="translate(4.97,-0.46) rotate(4.93) scale(1.000)">
        <g transform="translate(4.09,-1.61) rotate(9.99) scale(0.980)">
        <g transform="translate(2.20,-2.62) rotate(14.58) scale(0.960)">
        <g transform="translate(-0.22,-3.40) rotate(18.11) scale(0.940)" clip-path="url(#clipDynamic)">
        <g transform="translate(-2.59,-3.87) rotate(20.08) scale(0.920)">
        <g transform="translate(-4.32,-4.00) rotate(20.07) scale(0.900)">
        <g transform="translate(-5.00,-3.77) rotate(17.78) scale(0.880)">
        <path d="M0.0,-64.1 L18.8,-25.9 L61.0,-19.8 L30.5,9.9 L37.7,51.8 L0.0,32.0 L-37.7,51.8 L-30.5,9.9 L-61.0,-19.8 L-18.8,-25.9Z" fill="url(#lgrad4)" filter="url(#blur4)" opacity="0.79"/>
      </g>
      </g>
      </g>
      </g>
      </g>
      </g>
      </g>
  </g>
  <g transform="translate(331.8, 224.2)" mask="url(#maskGradient)">
    <ellipse cx="0" cy="0" rx="200" ry="150" fill="url(#rgrad0)" filter="url(#blur3)" opacity="0.3"/>
  </g>
  <g transform="translate(737.4, 225.6)" mask="url(#maskCircleFade)">
    <ellipse cx="0" cy="0" rx="200" ry="150" fill="url(#rgrad1)" filter="url(#blur3)" opacity="0.3"/>
  </g>
  <g transform="translate(1200.6, 262.0)" mask="url(#maskStripes)">
    <ellipse cx="0" cy="0" rx="200" ry="150" fill="url(#rgrad2)" filter="url(#blur3)" opacity="0.3"/>
  </g>
</svg>