<?xml version="1.0" encoding="UTF-8"?>
<svg xmlns="http://www.w3.org/2000/svg" viewBox="0 0 1920 1080" width="1920" height="1080">
  <defs>
    <filter id="blur0" x="-50%" y="-50%" width="200%" height="200%">
      <feGaussianBlur in="SourceGraphic" stdDeviation="1"/>
    </filter>
    <filter id="blur1" x="-50%" y="-50%" width="200%" height="200%">
      <feGaussianBlur in="SourceGraphic" stdDeviation="3"/>
    </filter>
    <filter id="blur2" x="-50%" y="-50%" width="200%" height="200%">
      <feGaussianBlur in="SourceGraphic" stdDeviation="5"/>
    </filter>
    <filter id="blur3" x="-50%" y="-50%" width="200%" height="200%">
      <feGaussianBlur in="SourceGraphic" stdDeviation="7"/>
    </filter>
    <filter id="blur4" x="-50%" y="-50%" width="200%" height="200%">
      <feGaussianBlur in="SourceGraphic" stdDeviation="9"/>
    </filter>
    <filter id="shadow" x="-50%" y="-50%" width="200%" height="200%">
      <feGaussianBlur in="SourceAlpha" stdDeviation="3" result="blur"/>
      <feOffset in="blur" dx="4" dy="4" result="offsetBlur"/>
      <feMerge>
        <feMergeNode in="offsetBlur"/>
        <feMergeNode in="SourceGraphic"/>
      </feMerge>
    </filter>
    <linearGradient id="lgrad0" x1="0%" y1="0%" x2="32.9%" y2="3.0%">
      <stop offset="0%" stop-color="#FF6B6B"/>
      <stop offset="33%" stop-color="#4ECDC4"/>
      <stop offset="66%" stop-color="#45B7D1"/>
      <stop offset="100%" stop-color="#96E6A1"/>
    </linearGradient>
    <linearGradient id="lgrad1" x1="0%" y1="0%" x2="58.7%" y2="0.8%">
      <stop offset="0%" stop-color="#FFE66D"/>
      <stop offset="33%" stop-color="#FF6B6B"/>
      <stop offset="66%" stop-color="#C44D58"/>
      <stop offset="100%" stop-color="#8B0000"/>
    </linearGradient>
    <linearGradient id="lgrad2" x1="0%" y1="0%" x2="82.1%" y2="11.7%">
      <stop offset="0%" stop-color="#4169E1"/>
      <stop offset="33%" stop-color="#7B68EE"/>
      <stop offset="66%" stop-color="#9370DB"/>
      <stop offset="100%" stop-color="#FFD700"/>
    </linearGradient>
    <linearGradient id="lgrad3" x1="0%" y1="0%" x2="97.0%" y2="32.9%">
      <stop offset="0%" stop-color="#32CD32"/>
      <stop offset="33%" stop-color="#228B22"/>
      <stop offset="66%" stop-color="#006400"/>
      <stop offset="100%" stop-color="#ADFF2F"/>
    </linearGradient>
    <linearGradient id="lgrad4" x1="0%" y1="0%" x2="99.2%" y2="58.7%">
      <stop offset="0%" stop-color="#FF1493"/>
      <stop offset="33%" stop-color="#FF69B4"/>
      <stop offset="66%" stop-color="#FFB6C1"/>
      <stop offset="100%" stop-color="#FFC0CB"/>
    </linearGradient>
    <radialGradient id="rgrad0" cx="33.0%" cy="32.0%" r="60%">
      <stop offset="0%" stop-color="#FF6B6B" stop-opacity="1"/>
      <stop offset="50%" stop-color="#4ECDC4" stop-opacity="0.8"/>
      <stop offset="100%" stop-color="#45B7D1" stop-opacity="0.6"/>
    </radialGradient>
    <radialGradient id="rgrad1" cx="43.0%" cy="40.0%" r="60%">
      <stop offset="0%" stop-color="#FFE66D" stop-opacity="1"/>
      <stop offset="50%" stop-color="#FF6B6B" stop-opacity="0.8"/>
      <stop offset="100%" stop-color="#C44D58" stop-opacity="0.6"/>
    </radialGradient>
    <radialGradient id="rgrad2" cx="53.0%" cy="48.0%" r="60%">
      <stop offset="0%" stop-color="#4169E1" stop-opacity="1"/>
      <stop offset="50%" stop-color="#7B68EE" stop-opacity="0.8"/>
      <stop offset="100%" stop-color="#9370DB" stop-opacity="0.6"/>
    </radialGradient>
    <radialGradient id="rgrad3" cx="63.0%" cy="56.0%" r="60%">
      <stop offset="0%" stop-color="#32CD32" stop-opacity="1"/>
      <stop offset="50%" stop-color="#228B22" stop-opacity="0.8"/>
      <stop offset="100%" stop-color="#006400" stop-opacity="0.6"/>
    </radialGradient>
    <radialGradient id="rgrad4" cx="33.0%" cy="64.0%" r="60%">
      <stop offset="0%" stop-color="#FF1493" stop-opacity="1"/>
      <stop offset="50%" stop-color="#FF69B4" stop-opacity="0.8"/>
      <stop offset="100%" stop-color="#FFB6C1" stop-opacity="0.6"/>
    </radialGradient>
    <clipPath id="clipCircle">
      <circle cx="0" cy="0" r="50"/>
    </clipPath>
    <clipPath id="clipStar">
      <path d="M0.0,-50.0 L14.7,-20.2 L47.6,-15.5 L23.8,7.7 L29.4,40.5 L0.0,25.0 L-29.4,40.5 L-23.8,7.7 L-47.6,-15.5 L-14.7,-20.2Z"/>
    </clipPath>
    <clipPath id="clipHex">
      <path d="M39.0,22.5 L0.0,45.0 L-39.0,22.5 L-39.0,-22.5 L-0.0,-45.0 L39.0,-22.5Z"/>
    </clipPath>
    <clipPath id="clipRect">
      <rect x="-40" y="-30" width="80" height="60" rx="10"/>
    </clipPath>
    <clipPath id="clipDynamic">
      <circle cx="0" cy="0" r="43.1"/>
    </clipPath>
    <mask id="maskGradient" maskContentUnits="objectBoundingBox">
      <rect x="0" y="0" width="1" height="1" fill="url(#maskGrad)"/>
    </mask>
    <linearGradient id="maskGrad" x1="0%" y1="0%" x2="100%" y2="100%">
      <stop offset="0%" stop-color="white"/>
      <stop offset="100%" stop-color="black"/>
    </linearGradient>
    <mask id="maskCircleFade">
      <circle cx="0" cy="0" r="60" fill="white"/>
      <circle cx="0" cy="0" r="30" fill="black"/>
    </mask>
    <mask id="maskStripes">
      <rect x="-50" y="-50" width="100" height="100" fill="white"/>
      <rect x="-50" y="-40" width="100" height="10" fill="black"/>
      <rect x="-50" y="-20" width="100" height="10" fill="black"/>
      <rect x="-50" y="0" width="100" height="10" fill="black"/>
      <rect x="-50" y="20" width="100" height="10" fill="black"/>
      <rect x="-50" y="40" width="100" height="10" fill="black"/>
    </mask>
    <mask id="maskDynamic">
      <rect x="-60" y="-60" width="120" height="120" fill="white" fill-opacity="0.97"/>
      <circle cx="0" cy="0" r="25" fill="white"/>
    </mask>
  </defs>
  <rect width="1920" height="1080" fill="url(#lgrad0)"/>
  <g transform="translate(116.2, 78.9)">
      <g transform="translate(2.69,-3.37) rotate(4.80) scale(1.000)">
        <g transform="translate(0.35,-3.86) rotate(9.96) scale(0.980)">
        <g transform="translate(-2.09,-4.00) rotate(14.90) scale(0.960)">
        <g transform="translate(-4.01,-3.78) rotate(19.01) scale(0.940)" clip-path="url(#clipCircle)">
        <g transform="translate(-4.95,-3.23) rotate(21.75) scale(0.920)">
        <g transform="translate(-4.68,-2.39) rotate(22.64) scale(0.900)">
        <g transform="translate(-3.26,-1.33) rotate(21.33) scale(0.880)">
        <path d="M0.0,-74.4 L21.9,-30.1 L70.8,-23.0 L35.4,11.5 L43.7,60.2 L0.0,37.2 L-43.7,60.2 L-35.4,11.5 L-70.8,-23.0 L-21.9,-30.1Z" fill="url(#lgrad0)" filter="url(#blur0)" opacity="0.88"/>
      </g>
      </g>
      </g>
      </g>
      </g>
      </g>
      </g>
  </g>
  <g transform="translate(322.1, 75.2)">
      <g transform="translate(-2.09,-3.63) rotate(4.80) scale(1.000)">
        <g transform="translate(-4.01,-2.98) rotate(9.96) scale(0.980)">
        <g transform="translate(-4.95,-2.06) rotate(14.90) scale(0.960)">
        <g transform="translate(-4.68,-0.95) rotate(19.01) scale(0.940)">
        <g transform="translate(-3.26,0.24) rotate(21.75) scale(0.920)">
        <g transform="translate(-1.05,1.41) rotate(22.64) scale(0.900)" mask="url(#maskCircleFade)">
        <g transform="translate(1.43,2.45) rotate(21.33) scale(0.880)">
        <rect x="-35.7" y="-35.7" width="71.3" height="71.3" rx="17.8" fill="url(#rgrad1)" filter="url(#shadow)" opacity="0.90"/>
        <circle cx="0" cy="0" r="23.8" fill="url(#rgrad2)" opacity="0.63"/>
      </g>
      </g>
      </g>
      </g>
      </g>
      </g>
      </g>
  </g>
  <g transform="translate(527.5, 83.1)">
      <g transform="translate(-4.95,-0.56) rotate(4.80) scale(1.000)">
        <g transform="translate(-4.68,0.64) rotate(9.96) scale(0.980)">
        <g transform="translate(-3.26,1.78) rotate(14.90) scale(0.960)">
        <g transform="translate(-1.05,2.76) rotate(19.01) scale(0.940)">
        <g transform="translate(1.43,3.49) rotate(21.75) scale(0.920)">
        <g transform="translate(3.55,3.91) rotate(22.64) scale(0.900)">
        <g transform="translate(4.80,3.98) rotate(21.33) scale(0.880)">
        <path d="M30.1,17.4 L0.0,34.7 L-30.1,17.4 L-30.1,-17.4 L-0.0,-34.7 L30.1,-17.4Z" fill="url(#rgrad2)" filter="url(#blur2)" opacity="0.88"/>
        <ellipse cx="0" cy="0" rx="14.5" ry="9.6" fill="#FFFFFF" opacity="0.44"/>
      </g>
      </g>
      </g>
      </g>
      </g>
      </g>
      </g>
  </g>
  <g transform="translate(735.9, 99.0)">
      <g transform="translate(-3.26,3.03) rotate(4.80) scale(1.000)">
        <g transform="translate(-1.05,3.67) rotate(9.96) scale(0.980)">
        <g transform="translate(1.43,3.98) rotate(14.90) scale(0.960)">
        <g transform="translate(3.55,3.93) rotate(19.01) scale(0.940)" clip-path="url(#clipRect)">
        <g transform="translate(4.80,3.53) rotate(21.75) scale(0.920)">
        <g transform="translate(4.88,2.82) rotate(22.64) scale(0.900)">
        <g transform="translate(3.76,1.85) rotate(21.33) scale(0.880)">
        <circle cx="0" cy="0" r="23.2" fill="url(#lgrad3)" filter="url(#shadow)" opacity="0.83"/>
        <text x="0" y="5" text-anchor="middle" font-family="Arial, sans-serif" font-size="14" fill="#FFFFFF" opacity="0.83">410</text>
      </g>
      </g>
      </g>
      </g>
      </g>
      </g>
      </g>
  </g>
  <g transform="translate(950.3, 115.3)">
      <g transform="translate(1.43,3.83) rotate(4.80) scale(1.000)">
        <g transform="translate(3.55,3.33) rotate(9.96) scale(0.980)">
        <g transform="translate(4.80,2.52) rotate(14.90) scale(0.960)">
        <g transform="translate(4.88,1.49) rotate(19.01) scale(0.940)">
        <g transform="translate(3.76,0.33) rotate(21.75) scale(0.920)">
        <g transform="translate(1.73,-0.87) rotate(22.64) scale(0.900)" mask="url(#maskGradient)">
        <g transform="translate(-0.74,-1.98) rotate(21.33) scale(0.880)">
        <path d="M0.0,-47.4 L13.9,-19.2 L45.1,-14.6 L22.5,7.3 L27.9,38.3 L0.0,23.7 L-27.9,38.3 L-22.5,7.3 L-45.1,-14.6 L-13.9,-19.2Z" fill="url(#rgrad4)" filter="url(#blur4)" opacity="0.74"/>
      </g>
      </g>
      </g>
      </g>
      </g>
      </g>
      </g>
  </g>
  <g transform="translate(1171.9, 124.4)">
      <g transform="translate(4.80,1.11) rotate(4.80) scale(1.000)">
        <g transform="translate(4.88,-0.07) rotate(9.96) scale(0.980)">
        <g transform="translate(3.76,-1.25) rotate(14.90) scale(0.960)">
        <g transform="translate(1.73,-2.32) rotate(19.01) scale(0.940)">
        <g transform="translate(-0.74,-3.18) rotate(21.75) scale(0.920)">
        <g transform="translate(-3.02,-3.75) rotate(22.64) scale(0.900)">
        <g transform="translate(-4.56,-3.99) rotate(21.33) scale(0.880)">
        <rect x="-30.0" y="-30.0" width="60.0" height="60.0" rx="15.0" fill="url(#rgrad0)" filter="url(#shadow)" opacity="0.64"/>
        <circle cx="0" cy="0" r="20.0" fill="url(#rgrad1)" opacity="0.45"/>
      </g>
      </g>
      </g>
      </g>
      </g>
      </g>
      </g>
  </g>
  <g transform="translate(1400.4, 122.1)">
      <g transform="translate(3.76,-2.63) rotate(4.80) scale(1.000)">
        <g transform="translate(1.73,-3.41) rotate(9.96) scale(0.980)">
        <g transform="translate(-0.74,-3.87) rotate(14.90) scale(0.960)">
        <g transform="translate(-3.02,-4.00) rotate(19.01) scale(0.940)" clip-path="url(#clipStar)">
        <g transform="translate(-4.56,-3.76) rotate(21.75) scale(0.920)">
        <g transform="translate(-4.99,-3.19) rotate(22.64) scale(0.900)">
        <g transform="translate(-4.19,-2.33) rotate(21.33) scale(0.880)">
        <path d="M37.7,21.8 L0.0,43.6 L-37.7,21.8 L-37.7,-21.8 L-0.0,-43.6 L37.7,-21.8Z" fill="url(#lgrad1)" filter="url(#blur1)" opacity="0.52"/>
        <ellipse cx="0" cy="0" rx="18.2" ry="12.1" fill="#FFFFFF" opacity="0.26"/>
      </g>
      </g>
      </g>
      </g>
      </g>
      </g>
      </g>
  </g>
  <g transform="translate(1633.7, 109.3)">
      <g transform="translate(-0.74,-3.96) rotate(4.80) scale(1.000)">
        <g transform="translate(-3.02,-3.61) rotate(9.96) scale(0.980)">
        <g transform="translate(-4.56,-2.93) rotate(14.90) scale(0.960)">
        <g transform="translate(-4.99,-2.00) rotate(19.01) scale(0.940)">
        <g transform="translate(-4.19,-0.89) rotate(21.75) scale(0.920)">
        <g transform="translate(-2.37,0.31) rotate(22.64) scale(0.900)" mask="url(#maskDynamic)">
        <g transform="translate(0.03,1.47) rotate(21.33) scale(0.880)">
        <circle cx="0" cy="0" r="36.8" fill="url(#rgrad2)" filter="url(#shadow)" opacity="0.40"/>
        <text x="0" y="5" text-anchor="middle" font-family="Arial, sans-serif" font-size="14" fill="#FFFFFF" opacity="0.40">410</text>
      </g>
      </g>
      </g>
      </g>
      </g>
      </g>
      </g>
  </g>
  <g transform="translate(108.6, 372.2)">
      <g transform="translate(-4.56,-1.64) rotate(4.80) scale(1.000)">
        <g transform="translate(-4.99,-0.49) rotate(9.96) scale(0.980)">
        <g transform="translate(-4.19,0.70) rotate(14.90) scale(0.960)">
        <g transform="translate(-2.37,1.84) rotate(19.01) scale(0.940)">
        <g transform="translate(0.03,2.80) rotate(21.75) scale(0.920)">
        <g transform="translate(2.42,3.52) rotate(22.64) scale(0.900)">
        <g transform="translate(4.22,3.92) rotate(21.33) scale(0.880)">
        <path d="M0.0,-62.1 L18.2,-25.1 L59.0,-19.2 L29.5,9.6 L36.5,50.2 L0.0,31.0 L-36.5,50.2 L-29.5,9.6 L-59.0,-19.2 L-18.2,-25.1Z" fill="url(#rgrad3)" filter="url(#blur3)" opacity="0.29"/>
      </g>
      </g>
      </g>
      </g>
      </g>
      </g>
      </g>
  </g>
  <g transform="translate(341.3, 358.7)">
      <g transform="translate(-4.19,2.18) rotate(4.80) scale(1.000)">
        <g transform="translate(-2.37,3.07) rotate(9.96) scale(0.980)">
        <g transform="translate(0.03,3.69) rotate(14.90) scale(0.960)">
        <g transform="translate(2.42,3.98) rotate(19.01) scale(0.940)" clip-path="url(#clipDynamic)">
        <g transform="translate(4.22,3.92) rotate(21.75) scale(0.920)">
        <g transform="translate(4.99,3.50) rotate(22.64) scale(0.900)">
        <g transform="translate(4.53,2.77) rotate(21.33) scale(0.880)">
        <rect x="-24.3" y="-24.3" width="48.6" height="48.6" rx="12.2" fill="url(#lgrad4)" filter="url(#shadow)" opacity="0.20"/>
        <circle cx="0" cy="0" r="16.2" fill="url(#rgrad0)" opacity="0.14"/>
      </g>
      </g>
      </g>
      </g>
      </g>
      </g>
      </g>
  </g>
  <g transform="translate(568.8, 355.3)">
      <g transform="translate(0.03,4.00) rotate(4.80) scale(1.000)">
        <g transform="translate(2.42,3.81) rotate(9.96) scale(0.980)">
        <g transform="translate(4.22,3.29) rotate(14.90) scale(0.960)">
        <g transform="translate(4.99,2.47) rotate(19.01) scale(0.940)">
        <g transform="translate(4.53,1.43) rotate(21.75) scale(0.920)">
        <g transform="translate(2.97,0.26) rotate(22.64) scale(0.900)" mask="url(#maskStripes)">
        <g transform="translate(0.68,-0.93) rotate(21.33) scale(0.880)">
        <path d="M23.7,13.7 L0.0,27.4 L-23.7,13.7 L-23.7,-13.7 L-0.0,-27.4 L23.7,-13.7Z" fill="url(#rgrad0)" filter="url(#blur0)" opacity="0.14"/>
        <ellipse cx="0" cy="0" rx="11.4" ry="7.6" fill="#FFFFFF" opacity="0.07"/>
      </g>
      </g>
      </g>
      </g>
      </g>
      </g>
      </g>
  </g>
  <g transform="translate(789.3, 363.5)">
      <g transform="translate(4.22,2.14) rotate(4.80) scale(1.000)">
        <g transform="translate(4.99,1.05) rotate(9.96) scale(0.980)">
        <g transform="translate(4.53,-0.14) rotate(14.90) scale(0.960)">
        <g transform="translate(2.97,-1.32) rotate(19.01) scale(0.940)">
        <g transform="translate(0.68,-2.37) rotate(21.75) scale(0.920)">
        <g transform="translate(-1.78,-3.22) rotate(22.64) scale(0.900)">
        <g transform="translate(-3.80,-3.78) rotate(21.33) scale(0.880)">
        <circle cx="0" cy="0" r="27.9" fill="url(#rgrad1)" filter="url(#shadow)" opacity="0.10"/>
        <text x="0" y="5" text-anchor="middle" font-family="Arial, sans-serif" font-size="14" fill="#FFFFFF" opacity="0.10">410</text>
      </g>
      </g>
      </g>
      </g>
      </g>
      </g>
      </g>
  </g>
  <g transform="translate(1002.6, 379.4)">
      <g transform="translate(4.53,-1.69) rotate(4.80) scale(1.000)">
        <g transform="translate(2.97,-2.68) rotate(9.96) scale(0.980)">
        <g transform="translate(0.68,-3.44) rotate(14.90) scale(0.960)">
        <g transform="translate(-1.78,-3.89) rotate(19.01) scale(0.940)" clip-path="url(#clipHex)">
        <g transform="translate(-3.80,-3.99) rotate(21.75) scale(0.920)">
        <g transform="translate(-4.89,-3.74) rotate(22.64) scale(0.900)">
        <g transform="translate(-4.79,-3.15) rotate(21.33) scale(0.880)">
        <path d="M0.0,-69.9 L20.5,-28.3 L66.5,-21.6 L33.2,10.8 L41.1,56.5 L0.0,34.9 L-41.1,56.5 L-33.2,10.8 L-66.5,-21.6 L-20.5,-28.3Z" fill="url(#lgrad2)" filter="url(#blur2)" opacity="0.11"/>
      </g>
      </g>
      </g>
      </g>
      </g>
      </g>
      </g>
  </g>
  <g transform="translate(1210.4, 395.7)">
      <g transform="translate(0.68,-3.96) rotate(4.80) scale(1.000)">
        <g transform="translate(-1.78,-3.95) rotate(9.96) scale(0.980)">
        <g transform="translate(-3.80,-3.58) rotate(14.90) scale(0.960)">
        <g transform="translate(-4.89,-2.89) rotate(19.01) scale(0.940)">
        <g transform="translate(-4.79,-1.94) rotate(21.75) scale(0.920)">
        <g transform="translate(-3.51,-0.82) rotate(22.64) scale(0.900)" mask="url(#maskCircleFade)">
        <g transform="translate(-1.37,0.37) rotate(21.33) scale(0.880)">
        <rect x="-37.4" y="-37.4" width="74.8" height="74.8" rx="18.7" fill="url(#rgrad3)" filter="url(#shadow)" opacity="0.14"/>
        <circle cx="0" cy="0" r="24.9" fill="url(#rgrad4)" opacity="0.10"/>
      </g>
      </g>
      </g>
      </g>
      </g>
      </g>
      </g>
  </g>
  <g transform="translate(1415.6, 404.5)">
      <g transform="translate(-3.80,-2.60) rotate(4.80) scale(1.000)">
        <g transform="translate(-4.89,-1.58) rotate(9.96) scale(0.980)">
        <g transform="translate(-4.79,-0.42) rotate(14.90) scale(0.960)">
        <g transform="translate(-3.51,0.77) rotate(19.01) scale(0.940)">
        <g transform="translate(-1.37,1.90) rotate(21.75) scale(0.920)">
        <g transform="translate(1.10,2.85) rotate(22.64) scale(0.900)">
        <g transform="translate(3.31,3.55) rotate(21.33) scale(0.880)">
        <path d="M34.4,19.8 L0.0,39.7 L-34.4,19.8 L-34.4,-19.8 L-0.0,-39.7 L34.4,-19.8Z" fill="url(#rgrad4)" filter="url(#blur4)" opacity="0.21"/>
        <ellipse cx="0" cy="0" rx="16.5" ry="11.0" fill="#FFFFFF" opacity="0.11"/>
      </g>
      </g>
      </g>
      </g>
      </g>
      </g>
      </g>
  </g>
  <g transform="translate(1621.9, 401.9)">
      <g transform="translate(-4.79,1.16) rotate(4.80) scale(1.000)">
        <g transform="translate(-3.51,2.24) rotate(9.96) scale(0.980)">
        <g transform="translate(-1.37,3.12) rotate(14.90) scale(0.960)">
        <g transform="translate(1.10,3.72) rotate(19.01) scale(0.940)" clip-path="url(#clipCircle)">
        <g transform="translate(3.31,3.99) rotate(21.75) scale(0.920)">
        <g transform="translate(4.70,3.90) rotate(22.64) scale(0.900)">
        <g transform="translate(4.94,3.47) rotate(21.33) scale(0.880)">
        <circle cx="0" cy="0" r="25.9" fill="url(#lgrad0)" filter="url(#shadow)" opacity="0.31"/>
        <text x="0" y="5" text-anchor="middle" font-family="Arial, sans-serif" font-size="14" fill="#FFFFFF" opacity="0.31">410</text>
      </g>
      </g>
      </g>
      </g>
      </g>
      </g>
      </g>
  </g>
  <g transform="translate(72.6, 668.9)">
      <g transform="translate(-1.37,3.85) rotate(4.80) scale(1.000)">
        <g transform="translate(1.10,4.00) rotate(9.96) scale(0.980)">
        <g transform="translate(3.31,3.79) rotate(14.90) scale(0.960)">
        <g transform="translate(4.70,3.25) rotate(19.01) scale(0.940)">
        <g transform="translate(4.94,2.41) rotate(21.75) scale(0.920)">
        <g transform="translate(3.97,1.36) rotate(22.64) scale(0.900)" mask="url(#maskGradient)">
        <g transform="translate(2.03,0.19) rotate(21.33) scale(0.880)">
        <path d="M0.0,-45.0 L13.2,-18.2 L42.8,-13.9 L21.4,7.0 L26.5,36.4 L0.0,22.5 L-26.5,36.4 L-21.4,7.0 L-42.8,-13.9 L-13.2,-18.2Z" fill="url(#rgrad1)" filter="url(#blur1)" opacity="0.42"/>
      </g>
      </g>
      </g>
      </g>
      </g>
      </g>
      </g>
  </g>
  <g transform="translate(290.1, 651.8)">
      <g transform="translate(3.31,3.00) rotate(4.80) scale(1.000)">
        <g transform="translate(4.70,2.08) rotate(9.96) scale(0.980)">
        <g transform="translate(4.94,0.98) rotate(14.90) scale(0.960)">
        <g transform="translate(3.97,-0.21) rotate(19.01) scale(0.940)">
        <g transform="translate(2.03,-1.38) rotate(21.75) scale(0.920)">
        <g transform="translate(-0.41,-2.43) rotate(22.64) scale(0.900)">
        <g transform="translate(-2.75,-3.26) rotate(21.33) scale(0.880)">
        <rect x="-26.0" y="-26.0" width="52.0" height="52.0" rx="13.0" fill="url(#rgrad2)" filter="url(#shadow)" opacity="0.54"/>
        <circle cx="0" cy="0" r="17.3" fill="url(#rgrad3)" opacity="0.38"/>
      </g>
      </g>
      </g>
      </g>
      </g>
      </g>
      </g>
  </g>
  <g transform="translate(514.9, 638.5)">
      <g transform="translate(4.94,-0.61) rotate(4.80) scale(1.000)">
        <g transform="translate(3.97,-1.75) rotate(9.96) scale(0.980)">
        <g transform="translate(2.03,-2.73) rotate(14.90) scale(0.960)">
        <g transform="translate(-0.41,-3.47) rotate(19.01) scale(0.940)" clip-path="url(#clipRect)">
        <g transform="translate(-2.75,-3.90) rotate(21.75) scale(0.920)">
        <g transform="translate(-4.41,-3.99) rotate(22.64) scale(0.900)">
        <g transform="translate(-5.00,-3.71) rotate(21.33) scale(0.880)">
        <path d="M34.5,19.9 L0.0,39.8 L-34.5,19.9 L-34.5,-19.9 L-0.0,-39.8 L34.5,-19.9Z" fill="url(#lgrad3)" filter="url(#blur3)" opacity="0.66"/>
        <ellipse cx="0" cy="0" rx="16.6" ry="11.1" fill="#FFFFFF" opacity="0.33"/>
      </g>
      </g>
      </g>
      </g>
      </g>
      </g>
      </g>
  </g>
  <g transform="translate(745.8, 635.3)">
      <g transform="translate(2.03,-3.65) rotate(4.80) scale(1.000)">
        <g transform="translate(-0.41,-3.97) rotate(9.96) scale(0.980)">
        <g transform="translate(-2.75,-3.93) rotate(14.90) scale(0.960)">
        <g transform="translate(-4.41,-3.55) rotate(19.01) scale(0.940)">
        <g transform="translate(-5.00,-2.84) rotate(21.75) scale(0.920)">
        <g transform="translate(-4.36,-1.88) rotate(22.64) scale(0.900)" mask="url(#maskDynamic)">
        <g transform="translate(-2.66,-0.75) rotate(21.33) scale(0.880)">
        <circle cx="0" cy="0" r="37.4" fill="url(#rgrad4)" filter="url(#shadow)" opacity="0.76"/>
        <text x="0" y="5" text-anchor="middle" font-family="Arial, sans-serif" font-size="14" fill="#FFFFFF" opacity="0.76">410</text>
      </g>
      </g>
      </g>
      </g>
      </g>
      </g>
      </g>
  </g>
  <g transform="translate(980.2, 643.8)">
      <g transform="translate(-2.75,-3.34) rotate(4.80) scale(1.000)">
        <g transform="translate(-4.41,-2.54) rotate(9.96) scale(0.980)">
        <g transform="translate(-5.00,-1.52) rotate(14.90) scale(0.960)">
        <g transform="translate(-4.36,-0.36) rotate(19.01) scale(0.940)">
        <g transform="translate(-2.66,0.84) rotate(21.75) scale(0.920)">
        <g transform="translate(-0.30,1.95) rotate(22.64) scale(0.900)">
        <g transform="translate(2.13,2.90) rotate(21.33) scale(0.880)">
        <path d="M0.0,-69.7 L20.5,-28.2 L66.3,-21.5 L33.2,10.8 L41.0,56.4 L0.0,34.9 L-41.0,56.4 L-33.2,10.8 L-66.3,-21.5 L-20.5,-28.2Z" fill="url(#rgrad0)" filter="url(#blur0)" opacity="0.84"/>
      </g>
      </g>
      </g>
      </g>
      </g>
      </g>
      </g>
  </g>
  <g transform="translate(1214.5, 659.8)">
      <g transform="translate(-5.00,0.04) rotate(4.80) scale(1.000)">
        <g transform="translate(-4.36,1.22) rotate(9.96) scale(0.980)">
        <g transform="translate(-2.66,2.29) rotate(14.90) scale(0.960)">
        <g transform="translate(-0.30,3.16) rotate(19.01) scale(0.940)" clip-path="url(#clipStar)">
        <g transform="translate(2.13,3.74) rotate(21.75) scale(0.920)">
        <g transform="translate(4.04,3.99) rotate(22.64) scale(0.900)">
        <g transform="translate(4.96,3.89) rotate(21.33) scale(0.880)">
        <rect x="-27.8" y="-27.8" width="55.6" height="55.6" rx="13.9" fill="url(#lgrad1)" filter="url(#shadow)" opacity="0.89"/>
        <circle cx="0" cy="0" r="18.5" fill="url(#rgrad2)" opacity="0.62"/>
      </g>
      </g>
      </g>
      </g>
      </g>
      </g>
      </g>
  </g>
  <g transform="translate(1445.3, 676.0)">
      <g transform="translate(-2.66,3.39) rotate(4.80) scale(1.000)">
        <g transform="translate(-0.30,3.87) rotate(9.96) scale(0.980)">
        <g transform="translate(2.13,4.00) rotate(14.90) scale(0.960)">
        <g transform="translate(4.04,3.77) rotate(19.01) scale(0.940)">
        <g transform="translate(4.96,3.21) rotate(21.75) scale(0.920)">
        <g transform="translate(4.66,2.36) rotate(22.64) scale(0.900)" mask="url(#maskStripes)">
        <g transform="translate(3.23,1.30) rotate(21.33) scale(0.880)">
        <path d="M23.7,13.7 L0.0,27.3 L-23.7,13.7 L-23.7,-13.7 L-0.0,-27.3 L23.7,-13.7Z" fill="url(#rgrad2)" filter="url(#blur2)" opacity="0.90"/>
        <ellipse cx="0" cy="0" rx="11.4" ry="7.6" fill="#FFFFFF" opacity="0.45"/>
      </g>
      </g>
      </g>
      </g>
      </g>
      </g>
      </g>
  </g>
  <g transform="translate(1669.9, 684.6)">
      <g transform="translate(2.13,3.62) rotate(4.80) scale(1.000)">
        <g transform="translate(4.04,2.95) rotate(9.96) scale(0.980)">
        <g transform="translate(4.96,2.03) rotate(14.90) scale(0.960)">
        <g transform="translate(4.66,0.92) rotate(19.01) scale(0.940)">
        <g transform="translate(3.23,-0.28) rotate(21.75) scale(0.920)">
        <g transform="translate(1.00,-1.44) rotate(22.64) scale(0.900)">
        <g transform="translate(-1.47,-2.48) rotate(21.33) scale(0.880)">
        <circle cx="0" cy="0" r="24.4" fill="url(#rgrad3)" filter="url(#shadow)" opacity="0.88"/>
        <text x="0" y="5" text-anchor="middle" font-family="Arial, sans-serif" font-size="14" fill="#FFFFFF" opacity="0.88">410</text>
      </g>
      </g>
      </g>
      </g>
      </g>
      </g>
      </g>
  </g>
  <g transform="translate(127.2, 961.7)">
      <g transform="translate(4.96,0.52) rotate(4.80) scale(1.000)">
        <g transform="translate(4.66,-0.67) rotate(9.96) scale(0.980)">
        <g transform="translate(3.23,-1.81) rotate(14.90) scale(0.960)">
        <g transform="translate(1.00,-2.78) rotate(19.01) scale(0.940)" clip-path="url(#clipDynamic)">
        <g transform="translate(-1.47,-3.51) rotate(21.75) scale(0.920)">
        <g transform="translate(-3.58,-3.92) rotate(22.64) scale(0.900)">
        <g transform="translate(-4.82,-3.98) rotate(21.33) scale(0.880)">
        <path d="M0.0,-62.3 L18.3,-25.2 L59.2,-19.2 L29.6,9.6 L36.6,50.4 L0.0,31.1 L-36.6,50.4 L-29.6,9.6 L-59.2,-19.2 L-18.3,-25.2Z" fill="url(#lgrad4)" filter="url(#blur4)" opacity="0.82"/>
      </g>
      </g>
      </g>
      </g>
      </g>
      </g>
      </g>
  </g>
  <g transform="translate(353.9, 232.6)" mask="url(#maskGradient)">
    <ellipse cx="0" cy="0" rx="200" ry="150" fill="url(#rgrad0)" filter="url(#blur3)" opacity="0.3"/>
  </g>
  <g transform="translate(758.2, 220.7)" mask="url(#maskCircleFade)">
    <ellipse cx="0" cy="0" rx="200" ry="150" fill="url(#rgrad1)" filter="url(#blur3)" opacity="0.3"/>
  </g>
  <g transform="translate(1201.0, 246.1)" mask="url(#maskStripes)">
    <ellipse cx="0" cy="0" rx="200" ry="150" fill="url(#rgrad2)" filter="url(#blur3)" opacity="0.3"/>
  </g>
</svg>