<?xml version="1.0" encoding="UTF-8"?>
<svg xmlns="http://www.w3.org/2000/svg" viewBox="0 0 1920 1080" width="1920" height="1080">
  <defs>
    <filter id="blur0" x="-50%" y="-50%" width="200%" height="200%">
      <feGaussianBlur in="SourceGraphic" stdDeviation="1"/>
    </filter>
    <filter id="blur1" x="-50%" y="-50%" width="200%" height="200%">
      <feGaussianBlur in="SourceGraphic" stdDeviation="3"/>
    </filter>
    <filter id="blur2" x="-50%" y="-50%" width="200%" height="200%">
      <feGaussianBlur in="SourceGraphic" stdDeviation="5"/>
    </filter>
    <filter id="blur3" x="-50%" y="-50%" width="200%" height="200%">
      <feGaussianBlur in="SourceGraphic" stdDeviation="7"/>
    </filter>
    <filter id="blur4" x="-50%" y="-50%" width="200%" height="200%">
      <feGaussianBlur in="SourceGraphic" stdDeviation="9"/>
    </filter>
    <filter id="shadow" x="-50%" y="-50%" width="200%" height="200%">
      <feGaussianBlur in="SourceAlpha" stdDeviation="3" result="blur"/>
      <feOffset in="blur" dx="4" dy="4" result="offsetBlur"/>
      <feMerge>
        <feMergeNode in="offsetBlur"/>
        <feMergeNode in="SourceGraphic"/>
      </feMerge>
    </filter>
    <linearGradient id="lgrad0" x1="0%" y1="0%" x2="11.7%" y2="17.9%">
      <stop offset="0%" stop-color="#FF6B6B"/>
      <stop offset="33%" stop-color="#4ECDC4"/>
      <stop offset="66%" stop-color="#45B7D1"/>
      <stop offset="100%" stop-color="#96E6A1"/>
    </linearGradient>
    <linearGradient id="lgrad1" x1="0%" y1="0%" x2="32.9%" y2="3.0%">
      <stop offset="0%" stop-color="#FFE66D"/>
      <stop offset="33%" stop-color="#FF6B6B"/>
      <stop offset="66%" stop-color="#C44D58"/>
      <stop offset="100%" stop-color="#8B0000"/>
    </linearGradient>
    <linearGradient id="lgrad2" x1="0%" y1="0%" x2="58.7%" y2="0.8%">
      <stop offset="0%" stop-color="#4169E1"/>
      <stop offset="33%" stop-color="#7B68EE"/>
      <stop offset="66%" stop-color="#9370DB"/>
      <stop offset="100%" stop-color="#FFD700"/>
    </linearGradient>
    <linearGradient id="lgrad3" x1="0%" y1="0%" x2="82.1%" y2="11.7%">
      <stop offset="0%" stop-color="#32CD32"/>
      <stop offset="33%" stop-color="#228B22"/>
      <stop offset="66%" stop-color="#006400"/>
      <stop offset="100%" stop-color="#ADFF2F"/>
    </linearGradient>
    <linearGradient id="lgrad4" x1="0%" y1="0%" x2="97.0%" y2="32.9%">
      <stop offset="0%" stop-color="#FF1493"/>
      <stop offset="33%" stop-color="#FF69B4"/>
      <stop offset="66%" stop-color="#FFB6C1"/>
      <stop offset="100%" stop-color="#FFC0CB"/>
    </linearGradient>
    <radialGradient id="rgrad0" cx="55.0%" cy="60.0%" r="60%">
      <stop offset="0%" stop-color="#FF6B6B" stop-opacity="1"/>
      <stop offset="50%" stop-color="#4ECDC4" stop-opacity="0.8"/>
      <stop offset="100%" stop-color="#45B7D1" stop-opacity="0.6"/>
    </radialGradient>
    <radialGradient id="rgrad1" cx="65.0%" cy="68.0%" r="60%">
      <stop offset="0%" stop-color="#FFE66D" stop-opacity="1"/>
      <stop offset="50%" stop-color="#FF6B6B" stop-opacity="0.8"/>
      <stop offset="100%" stop-color="#C44D58" stop-opacity="0.6"/>
    </radialGradient>
    <radialGradient id="rgrad2" cx="35.0%" cy="36.0%" r="60%">
      <stop offset="0%" stop-color="#4169E1" stop-opacity="1"/>
      <stop offset="50%" stop-color="#7B68EE" stop-opacity="0.8"/>
      <stop offset="100%" stop-color="#9370DB" stop-opacity="0.6"/>
    </radialGradient>
    <radialGradient id="rgrad3" cx="45.0%" cy="44.0%" r="60%">
      <stop offset="0%" stop-color="#32CD32" stop-opacity="1"/>
      <stop offset="50%" stop-color="#228B22" stop-opacity="0.8"/>
      <stop offset="100%" stop-color="#006400" stop-opacity="0.6"/>
    </radialGradient>
    <radialGradient id="rgrad4" cx="55.0%" cy="52.0%" r="60%">
      <stop offset="0%" stop-color="#FF1493" stop-opacity="1"/>
      <stop offset="50%" stop-color="#FF69B4" stop-opacity="0.8"/>
      <stop offset="100%" stop-color="#FFB6C1" stop-opacity="0.6"/>
    </radialGradient>
    <clipPath id="clipCircle">
      <circle cx="0" cy="0" r="50"/>
    </clipPath>
    <clipPath id="clipStar">
      <path d="M0.0,-50.0 L14.7,-20.2 L47.6,-15.5 L23.8,7.7 L29.4,40.5 L0.0,25.0 L-29.4,40.5 L-23.8,7.7 L-47.6,-15.5 L-14.7,-20.2Z"/>
    </clipPath>
    <clipPath id="clipHex">
      <path d="M39.0,22.5 L0.0,45.0 L-39.0,22.5 L-39.0,-22.5 L-0.0,-45.0 L39.0,-22.5Z"/>
    </clipPath>
    <clipPath id="clipRect">
      <rect x="-40" y="-30" width="80" height="60" rx="10"/>
    </clipPath>
    <clipPath id="clipDynamic">
      <circle cx="0" cy="0" r="47.2"/>
    </clipPath>
    <mask id="maskGradient" maskContentUnits="objectBoundingBox">
      <rect x="0" y="0" width="1" height="1" fill="url(#maskGrad)"/>
    </mask>
    <linearGradient id="maskGrad" x1="0%" y1="0%" x2="100%" y2="100%">
      <stop offset="0%" stop-color="white"/>
      <stop offset="100%" stop-color="black"/>
    </linearGradient>
    <mask id="maskCircleFade">
      <circle cx="0" cy="0" r="60" fill="white"/>
      <circle cx="0" cy="0" r="30" fill="black"/>
    </mask>
    <mask id="maskStripes">
      <rect x="-50" y="-50" width="100" height="100" fill="white"/>
      <rect x="-50" y="-40" width="100" height="10" fill="black"/>
      <rect x="-50" y="-20" width="100" height="10" fill="black"/>
      <rect x="-50" y="0" width="100" height="10" fill="black"/>
      <rect x="-50" y="20" width="100" height="10" fill="black"/>
      <rect x="-50" y="40" width="100" height="10" fill="black"/>
    </mask>
    <mask id="maskDynamic">
      <rect x="-60" y="-60" width="120" height="120" fill="white" fill-opacity="0.92"/>
      <circle cx="0" cy="0" r="25" fill="white"/>
    </mask>
  </defs>
  <rect width="1920" height="1080" fill="url(#lgrad0)"/>
  <g transform="translate(124.3, 85.4)">
      <g transform="translate(4.06,-2.34) rotate(4.45) scale(1.000)">
        <g transform="translate(2.16,-3.19) rotate(9.63) scale(0.980)">
        <g transform="translate(-0.27,-3.76) rotate(14.96) scale(0.960)">
        <g transform="translate(-2.63,-4.00) rotate(19.84) scale(0.940)" clip-path="url(#clipCircle)">
        <g transform="translate(-4.35,-3.87) rotate(23.68) scale(0.920)">
        <g transform="translate(-5.00,-3.40) rotate(25.93) scale(0.900)">
        <g transform="translate(-4.43,-2.63) rotate(26.16) scale(0.880)">
        <path d="M0.0,-73.4 L21.6,-29.7 L69.8,-22.7 L34.9,11.3 L43.1,59.3 L0.0,36.7 L-43.1,59.3 L-34.9,11.3 L-69.8,-22.7 L-21.6,-29.7Z" fill="url(#lgrad0)" filter="url(#blur0)" opacity="0.86"/>
      </g>
      </g>
      </g>
      </g>
      </g>
      </g>
      </g>
  </g>
  <g transform="translate(333.0, 75.8)">
      <g transform="translate(-0.27,-3.99) rotate(4.45) scale(1.000)">
        <g transform="translate(-2.63,-3.75) rotate(9.63) scale(0.980)">
        <g transform="translate(-4.35,-3.18) rotate(14.96) scale(0.960)">
        <g transform="translate(-5.00,-2.32) rotate(19.84) scale(0.940)">
        <g transform="translate(-4.43,-1.25) rotate(23.68) scale(0.920)">
        <g transform="translate(-2.77,-0.07) rotate(25.93) scale(0.900)" mask="url(#maskCircleFade)">
        <g transform="translate(-0.44,1.12) rotate(26.16) scale(0.880)">
        <rect x="-36.5" y="-36.5" width="73.0" height="73.0" rx="18.2" fill="url(#rgrad1)" filter="url(#shadow)" opacity="0.89"/>
        <circle cx="0" cy="0" r="24.3" fill="url(#rgrad2)" opacity="0.63"/>
      </g>
      </g>
      </g>
      </g>
      </g>
      </g>
      </g>
  </g>
  <g transform="translate(538.4, 77.5)">
      <g transform="translate(-4.35,-1.98) rotate(4.45) scale(1.000)">
        <g transform="translate(-5.00,-0.86) rotate(9.63) scale(0.980)">
        <g transform="translate(-4.43,0.33) rotate(14.96) scale(0.960)">
        <g transform="translate(-2.77,1.49) rotate(19.84) scale(0.940)">
        <g transform="translate(-0.44,2.52) rotate(23.68) scale(0.920)">
        <g transform="translate(2.00,3.33) rotate(25.93) scale(0.900)">
        <g transform="translate(3.95,3.84) rotate(26.16) scale(0.880)">
        <path d="M31.5,18.2 L0.0,36.4 L-31.5,18.2 L-31.5,-18.2 L-0.0,-36.4 L31.5,-18.2Z" fill="url(#rgrad2)" filter="url(#blur2)" opacity="0.90"/>
        <ellipse cx="0" cy="0" rx="15.2" ry="10.1" fill="#FFFFFF" opacity="0.45"/>
      </g>
      </g>
      </g>
      </g>
      </g>
      </g>
      </g>
  </g>
  <g transform="translate(744.2, 89.9)">
      <g transform="translate(-4.43,1.86) rotate(4.45) scale(1.000)">
        <g transform="translate(-2.77,2.82) rotate(9.63) scale(0.980)">
        <g transform="translate(-0.44,3.53) rotate(14.96) scale(0.960)">
        <g transform="translate(2.00,3.93) rotate(19.84) scale(0.940)" clip-path="url(#clipRect)">
        <g transform="translate(3.95,3.98) rotate(23.68) scale(0.920)">
        <g transform="translate(4.94,3.67) rotate(25.93) scale(0.900)">
        <g transform="translate(4.71,3.03) rotate(26.16) scale(0.880)">
        <circle cx="0" cy="0" r="23.9" fill="url(#lgrad3)" filter="url(#shadow)" opacity="0.86"/>
        <text x="0" y="5" text-anchor="middle" font-family="Arial, sans-serif" font-size="14" fill="#FFFFFF" opacity="0.86">350</text>
      </g>
      </g>
      </g>
      </g>
      </g>
      </g>
      </g>
  </g>
  <g transform="translate(953.9, 107.0)">
      <g transform="translate(-0.44,3.98) rotate(4.45) scale(1.000)">
        <g transform="translate(2.00,3.91) rotate(9.63) scale(0.980)">
        <g transform="translate(3.95,3.49) rotate(14.96) scale(0.960)">
        <g transform="translate(4.94,2.75) rotate(19.84) scale(0.940)">
        <g transform="translate(4.71,1.77) rotate(23.68) scale(0.920)">
        <g transform="translate(3.33,0.63) rotate(25.93) scale(0.900)" mask="url(#maskGradient)">
        <g transform="translate(1.14,-0.56) rotate(26.16) scale(0.880)">
        <path d="M0.0,-46.1 L13.5,-18.6 L43.8,-14.2 L21.9,7.1 L27.1,37.3 L0.0,23.0 L-27.1,37.3 L-21.9,7.1 L-43.8,-14.2 L-13.5,-18.6Z" fill="url(#rgrad4)" filter="url(#blur4)" opacity="0.80"/>
      </g>
      </g>
      </g>
      </g>
      </g>
      </g>
      </g>
  </g>
  <g transform="translate(1170.0, 120.8)">
      <g transform="translate(3.95,2.45) rotate(4.45) scale(1.000)">
        <g transform="translate(4.94,1.41) rotate(9.63) scale(0.980)">
        <g transform="translate(4.71,0.24) rotate(14.96) scale(0.960)">
        <g transform="translate(3.33,-0.95) rotate(19.84) scale(0.940)">
        <g transform="translate(1.14,-2.06) rotate(23.68) scale(0.920)">
        <g transform="translate(-1.33,-2.98) rotate(25.93) scale(0.900)">
        <g transform="translate(-3.48,-3.64) rotate(26.16) scale(0.880)">
        <rect x="-28.6" y="-28.6" width="57.2" height="57.2" rx="14.3" fill="url(#rgrad0)" filter="url(#shadow)" opacity="0.71"/>
        <circle cx="0" cy="0" r="19.1" fill="url(#rgrad1)" opacity="0.49"/>
      </g>
      </g>
      </g>
      </g>
      </g>
      </g>
      </g>
  </g>
  <g transform="translate(1393.4, 124.8)">
      <g transform="translate(4.71,-1.34) rotate(4.45) scale(1.000)">
        <g transform="translate(3.33,-2.39) rotate(9.63) scale(0.980)">
        <g transform="translate(1.14,-3.23) rotate(14.96) scale(0.960)">
        <g transform="translate(-1.33,-3.78) rotate(19.84) scale(0.940)" clip-path="url(#clipStar)">
        <g transform="translate(-3.48,-4.00) rotate(23.68) scale(0.920)">
        <g transform="translate(-4.78,-3.85) rotate(25.93) scale(0.900)">
        <g transform="translate(-4.90,-3.37) rotate(26.16) scale(0.880)">
        <path d="M36.8,21.3 L0.0,42.5 L-36.8,21.3 L-36.8,-21.3 L-0.0,-42.5 L36.8,-21.3Z" fill="url(#lgrad1)" filter="url(#blur1)" opacity="0.60"/>
        <ellipse cx="0" cy="0" rx="17.7" ry="11.8" fill="#FFFFFF" opacity="0.30"/>
      </g>
      </g>
      </g>
      </g>
      </g>
      </g>
      </g>
  </g>
  <g transform="translate(1623.4, 117.2)">
      <g transform="translate(1.14,-3.89) rotate(4.45) scale(1.000)">
        <g transform="translate(-1.33,-3.99) rotate(9.63) scale(0.980)">
        <g transform="translate(-3.48,-3.73) rotate(14.96) scale(0.960)">
        <g transform="translate(-4.78,-3.13) rotate(19.84) scale(0.940)">
        <g transform="translate(-4.90,-2.26) rotate(23.68) scale(0.920)">
        <g transform="translate(-3.83,-1.18) rotate(25.93) scale(0.900)" mask="url(#maskDynamic)">
        <g transform="translate(-1.81,-0.00) rotate(26.16) scale(0.880)">
        <circle cx="0" cy="0" r="37.3" fill="url(#rgrad2)" filter="url(#shadow)" opacity="0.48"/>
        <text x="0" y="5" text-anchor="middle" font-family="Arial, sans-serif" font-size="14" fill="#FFFFFF" opacity="0.48">350</text>
      </g>
      </g>
      </g>
      </g>
      </g>
      </g>
      </g>
  </g>
  <g transform="translate(97.4, 381.5)">
      <g transform="translate(-3.48,-2.87) rotate(4.45) scale(1.000)">
        <g transform="translate(-4.78,-1.92) rotate(9.63) scale(0.980)">
        <g transform="translate(-4.90,-0.80) rotate(14.96) scale(0.960)">
        <g transform="translate(-3.83,0.40) rotate(19.84) scale(0.940)">
        <g transform="translate(-1.81,1.56) rotate(23.68) scale(0.920)">
        <g transform="translate(0.64,2.58) rotate(25.93) scale(0.900)">
        <g transform="translate(2.94,3.36) rotate(26.16) scale(0.880)">
        <path d="M0.0,-64.8 L19.1,-26.2 L61.6,-20.0 L30.8,10.0 L38.1,52.4 L0.0,32.4 L-38.1,52.4 L-30.8,10.0 L-61.6,-20.0 L-19.1,-26.2Z" fill="url(#rgrad3)" filter="url(#blur3)" opacity="0.36"/>
      </g>
      </g>
      </g>
      </g>
      </g>
      </g>
      </g>
  </g>
  <g transform="translate(332.0, 365.0)">
      <g transform="translate(-4.90,0.79) rotate(4.45) scale(1.000)">
        <g transform="translate(-3.83,1.92) rotate(9.63) scale(0.980)">
        <g transform="translate(-1.81,2.87) rotate(14.96) scale(0.960)">
        <g transform="translate(0.64,3.56) rotate(19.84) scale(0.940)" clip-path="url(#clipDynamic)">
        <g transform="translate(2.94,3.94) rotate(23.68) scale(0.920)">
        <g transform="translate(4.52,3.97) rotate(25.93) scale(0.900)">
        <g transform="translate(4.99,3.64) rotate(26.16) scale(0.880)">
        <rect x="-25.3" y="-25.3" width="50.7" height="50.7" rx="12.7" fill="url(#lgrad4)" filter="url(#shadow)" opacity="0.26"/>
        <circle cx="0" cy="0" r="16.9" fill="url(#rgrad0)" opacity="0.18"/>
      </g>
      </g>
      </g>
      </g>
      </g>
      </g>
      </g>
  </g>
  <g transform="translate(563.7, 355.7)">
      <g transform="translate(-1.81,3.73) rotate(4.45) scale(1.000)">
        <g transform="translate(0.64,3.99) rotate(9.63) scale(0.980)">
        <g transform="translate(2.94,3.90) rotate(14.96) scale(0.960)">
        <g transform="translate(4.52,3.45) rotate(19.84) scale(0.940)">
        <g transform="translate(4.99,2.70) rotate(23.68) scale(0.920)">
        <g transform="translate(4.24,1.71) rotate(25.93) scale(0.900)" mask="url(#maskStripes)">
        <g transform="translate(2.45,0.57) rotate(26.16) scale(0.880)">
        <path d="M23.4,13.5 L0.0,27.0 L-23.4,13.5 L-23.4,-13.5 L-0.0,-27.0 L23.4,-13.5Z" fill="url(#rgrad0)" filter="url(#blur0)" opacity="0.17"/>
        <ellipse cx="0" cy="0" rx="11.3" ry="7.5" fill="#FFFFFF" opacity="0.09"/>
      </g>
      </g>
      </g>
      </g>
      </g>
      </g>
      </g>
  </g>
  <g transform="translate(789.6, 357.7)">
      <g transform="translate(2.94,3.24) rotate(4.45) scale(1.000)">
        <g transform="translate(4.52,2.40) rotate(9.63) scale(0.980)">
        <g transform="translate(4.99,1.34) rotate(14.96) scale(0.960)">
        <g transform="translate(4.24,0.17) rotate(19.84) scale(0.940)">
        <g transform="translate(2.45,-1.02) rotate(23.68) scale(0.920)">
        <g transform="translate(0.06,-2.12) rotate(25.93) scale(0.900)">
        <g transform="translate(-2.34,-3.03) rotate(26.16) scale(0.880)">
        <circle cx="0" cy="0" r="26.6" fill="url(#rgrad1)" filter="url(#shadow)" opacity="0.12"/>
        <text x="0" y="5" text-anchor="middle" font-family="Arial, sans-serif" font-size="14" fill="#FFFFFF" opacity="0.12">350</text>
      </g>
      </g>
      </g>
      </g>
      </g>
      </g>
      </g>
  </g>
  <g transform="translate(1008.3, 370.3)">
      <g transform="translate(4.99,-0.23) rotate(4.45) scale(1.000)">
        <g transform="translate(4.24,-1.40) rotate(9.63) scale(0.980)">
        <g transform="translate(2.45,-2.45) rotate(14.96) scale(0.960)">
        <g transform="translate(0.06,-3.27) rotate(19.84) scale(0.940)" clip-path="url(#clipHex)">
        <g transform="translate(-2.34,-3.81) rotate(23.68) scale(0.920)">
        <g transform="translate(-4.17,-4.00) rotate(25.93) scale(0.900)">
        <g transform="translate(-4.98,-3.84) rotate(26.16) scale(0.880)">
        <path d="M0.0,-67.6 L19.9,-27.3 L64.3,-20.9 L32.1,10.4 L39.7,54.7 L0.0,33.8 L-39.7,54.7 L-32.1,10.4 L-64.3,-20.9 L-19.9,-27.3Z" fill="url(#lgrad2)" filter="url(#blur2)" opacity="0.10"/>
      </g>
      </g>
      </g>
      </g>
      </g>
      </g>
      </g>
  </g>
  <g transform="translate(1220.0, 387.4)">
      <g transform="translate(2.45,-3.49) rotate(4.45) scale(1.000)">
        <g transform="translate(0.06,-3.91) rotate(9.63) scale(0.980)">
        <g transform="translate(-2.34,-3.98) rotate(14.96) scale(0.960)">
        <g transform="translate(-4.17,-3.70) rotate(19.84) scale(0.940)">
        <g transform="translate(-4.98,-3.09) rotate(23.68) scale(0.920)">
        <g transform="translate(-4.57,-2.20) rotate(25.93) scale(0.900)" mask="url(#maskCircleFade)">
        <g transform="translate(-3.04,-1.12) rotate(26.16) scale(0.880)">
        <rect x="-37.5" y="-37.5" width="75.0" height="75.0" rx="18.7" fill="url(#rgrad3)" filter="url(#shadow)" opacity="0.12"/>
        <circle cx="0" cy="0" r="25.0" fill="url(#rgrad4)" opacity="0.08"/>
      </g>
      </g>
      </g>
      </g>
      </g>
      </g>
      </g>
  </g>
  <g transform="translate(1426.8, 401.0)">
      <g transform="translate(-2.34,-3.53) rotate(4.45) scale(1.000)">
        <g transform="translate(-4.17,-2.82) rotate(9.63) scale(0.980)">
        <g transform="translate(-4.98,-1.86) rotate(14.96) scale(0.960)">
        <g transform="translate(-4.57,-0.73) rotate(19.84) scale(0.940)">
        <g transform="translate(-3.04,0.46) rotate(23.68) scale(0.920)">
        <g transform="translate(-0.77,1.62) rotate(25.93) scale(0.900)">
        <g transform="translate(1.69,2.63) rotate(26.16) scale(0.880)">
        <path d="M35.6,20.6 L0.0,41.2 L-35.6,20.6 L-35.6,-20.6 L-0.0,-41.2 L35.6,-20.6Z" fill="url(#rgrad4)" filter="url(#blur4)" opacity="0.17"/>
        <ellipse cx="0" cy="0" rx="17.1" ry="11.4" fill="#FFFFFF" opacity="0.08"/>
      </g>
      </g>
      </g>
      </g>
      </g>
      </g>
      </g>
  </g>
  <g transform="translate(1632.0, 404.8)">
      <g transform="translate(-4.98,-0.33) rotate(4.45) scale(1.000)">
        <g transform="translate(-4.57,0.86) rotate(9.63) scale(0.980)">
        <g transform="translate(-3.04,1.97) rotate(14.96) scale(0.960)">
        <g transform="translate(-0.77,2.91) rotate(19.84) scale(0.940)" clip-path="url(#clipCircle)">
        <g transform="translate(1.69,3.59) rotate(23.68) scale(0.920)">
        <g transform="translate(3.74,3.95) rotate(25.93) scale(0.900)">
        <g transform="translate(4.87,3.96) rotate(26.16) scale(0.880)">
        <circle cx="0" cy="0" r="27.2" fill="url(#lgrad0)" filter="url(#shadow)" opacity="0.25"/>
        <text x="0" y="5" text-anchor="middle" font-family="Arial, sans-serif" font-size="14" fill="#FFFFFF" opacity="0.25">350</text>
      </g>
      </g>
      </g>
      </g>
      </g>
      </g>
      </g>
  </g>
  <g transform="translate(79.1, 676.9)">
      <g transform="translate(-3.04,3.17) rotate(4.45) scale(1.000)">
        <g transform="translate(-0.77,3.75) rotate(9.63) scale(0.980)">
        <g transform="translate(1.69,3.99) rotate(14.96) scale(0.960)">
        <g transform="translate(3.74,3.88) rotate(19.84) scale(0.940)">
        <g transform="translate(4.87,3.42) rotate(23.68) scale(0.920)">
        <g transform="translate(4.81,2.65) rotate(25.93) scale(0.900)" mask="url(#maskGradient)">
        <g transform="translate(3.57,1.65) rotate(26.16) scale(0.880)">
        <path d="M0.0,-45.2 L13.3,-18.3 L43.0,-14.0 L21.5,7.0 L26.6,36.6 L0.0,22.6 L-26.6,36.6 L-21.5,7.0 L-43.0,-14.0 L-13.3,-18.3Z" fill="url(#rgrad1)" filter="url(#blur1)" opacity="0.35"/>
      </g>
      </g>
      </g>
      </g>
      </g>
      </g>
      </g>
  </g>
  <g transform="translate(291.3, 661.1)">
      <g transform="translate(1.69,3.76) rotate(4.45) scale(1.000)">
        <g transform="translate(3.74,3.20) rotate(9.63) scale(0.980)">
        <g transform="translate(4.87,2.34) rotate(14.96) scale(0.960)">
        <g transform="translate(4.81,1.28) rotate(19.84) scale(0.940)">
        <g transform="translate(3.57,0.10) rotate(23.68) scale(0.920)">
        <g transform="translate(1.46,-1.08) rotate(25.93) scale(0.900)">
        <g transform="translate(-1.01,-2.17) rotate(26.16) scale(0.880)">
        <rect x="-24.9" y="-24.9" width="49.8" height="49.8" rx="12.4" fill="url(#rgrad2)" filter="url(#shadow)" opacity="0.47"/>
        <circle cx="0" cy="0" r="16.6" fill="url(#rgrad3)" opacity="0.33"/>
      </g>
      </g>
      </g>
      </g>
      </g>
      </g>
      </g>
  </g>
  <g transform="translate(510.6, 644.7)">
      <g transform="translate(4.87,0.89) rotate(4.45) scale(1.000)">
        <g transform="translate(4.81,-0.30) rotate(9.63) scale(0.980)">
        <g transform="translate(3.57,-1.46) rotate(14.96) scale(0.960)">
        <g transform="translate(1.46,-2.50) rotate(19.84) scale(0.940)" clip-path="url(#clipRect)">
        <g transform="translate(-1.01,-3.31) rotate(23.68) scale(0.920)">
        <g transform="translate(-3.24,-3.83) rotate(25.93) scale(0.900)">
        <g transform="translate(-4.67,-4.00) rotate(26.16) scale(0.880)">
        <path d="M33.1,19.1 L0.0,38.2 L-33.1,19.1 L-33.1,-19.1 L-0.0,-38.2 L33.1,-19.1Z" fill="url(#lgrad3)" filter="url(#blur3)" opacity="0.59"/>
        <ellipse cx="0" cy="0" rx="15.9" ry="10.6" fill="#FFFFFF" opacity="0.29"/>
      </g>
      </g>
      </g>
      </g>
      </g>
      </g>
      </g>
  </g>
  <g transform="translate(737.0, 635.6)">
      <g transform="translate(3.57,-2.80) rotate(4.45) scale(1.000)">
        <g transform="translate(1.46,-3.52) rotate(9.63) scale(0.980)">
        <g transform="translate(-1.01,-3.92) rotate(14.96) scale(0.960)">
        <g transform="translate(-3.24,-3.98) rotate(19.84) scale(0.940)">
        <g transform="translate(-4.67,-3.68) rotate(23.68) scale(0.920)">
        <g transform="translate(-4.96,-3.05) rotate(25.93) scale(0.900)" mask="url(#maskDynamic)">
        <g transform="translate(-4.03,-2.15) rotate(26.16) scale(0.880)">
        <circle cx="0" cy="0" r="37.1" fill="url(#rgrad4)" filter="url(#shadow)" opacity="0.70"/>
        <text x="0" y="5" text-anchor="middle" font-family="Arial, sans-serif" font-size="14" fill="#FFFFFF" opacity="0.70">350</text>
      </g>
      </g>
      </g>
      </g>
      </g>
      </g>
      </g>
  </g>
  <g transform="translate(969.1, 637.9)">
      <g transform="translate(-1.01,-3.92) rotate(4.45) scale(1.000)">
        <g transform="translate(-3.24,-3.50) rotate(9.63) scale(0.980)">
        <g transform="translate(-4.67,-2.78) rotate(14.96) scale(0.960)">
        <g transform="translate(-4.96,-1.80) rotate(19.84) scale(0.940)">
        <g transform="translate(-4.03,-0.66) rotate(23.68) scale(0.920)">
        <g transform="translate(-2.12,0.53) rotate(25.93) scale(0.900)">
        <g transform="translate(0.31,1.68) rotate(26.16) scale(0.880)">
        <path d="M0.0,-71.7 L21.1,-29.0 L68.2,-22.2 L34.1,11.1 L42.1,58.0 L0.0,35.8 L-42.1,58.0 L-34.1,11.1 L-68.2,-22.2 L-21.1,-29.0Z" fill="url(#rgrad0)" filter="url(#blur0)" opacity="0.79"/>
      </g>
      </g>
      </g>
      </g>
      </g>
      </g>
      </g>
  </g>
  <g transform="translate(1203.8, 650.6)">
      <g transform="translate(-4.67,-1.43) rotate(4.45) scale(1.000)">
        <g transform="translate(-4.96,-0.27) rotate(9.63) scale(0.980)">
        <g transform="translate(-4.03,0.92) rotate(14.96) scale(0.960)">
        <g transform="translate(-2.12,2.03) rotate(19.84) scale(0.940)" clip-path="url(#clipStar)">
        <g transform="translate(0.31,2.96) rotate(23.68) scale(0.920)">
        <g transform="translate(2.67,3.62) rotate(25.93) scale(0.900)">
        <g transform="translate(4.37,3.96) rotate(26.16) scale(0.880)">
        <rect x="-29.2" y="-29.2" width="58.4" height="58.4" rx="14.6" fill="url(#lgrad1)" filter="url(#shadow)" opacity="0.86"/>
        <circle cx="0" cy="0" r="19.5" fill="url(#rgrad2)" opacity="0.60"/>
      </g>
      </g>
      </g>
      </g>
      </g>
      </g>
      </g>
  </g>
  <g transform="translate(1437.6, 667.8)">
      <g transform="translate(-4.03,2.37) rotate(4.45) scale(1.000)">
        <g transform="translate(-2.12,3.21) rotate(9.63) scale(0.980)">
        <g transform="translate(0.31,3.77) rotate(14.96) scale(0.960)">
        <g transform="translate(2.67,4.00) rotate(19.84) scale(0.940)">
        <g transform="translate(4.37,3.86) rotate(23.68) scale(0.920)">
        <g transform="translate(5.00,3.38) rotate(25.93) scale(0.900)" mask="url(#maskStripes)">
        <g transform="translate(4.41,2.60) rotate(26.16) scale(0.880)">
        <path d="M24.2,14.0 L0.0,28.0 L-24.2,14.0 L-24.2,-14.0 L-0.0,-28.0 L24.2,-14.0Z" fill="url(#rgrad2)" filter="url(#blur2)" opacity="0.90"/>
        <ellipse cx="0" cy="0" rx="11.6" ry="7.8" fill="#FFFFFF" opacity="0.45"/>
      </g>
      </g>
      </g>
      </g>
      </g>
      </g>
      </g>
  </g>
  <g transform="translate(1667.1, 681.3)">
      <g transform="translate(0.31,3.99) rotate(4.45) scale(1.000)">
        <g transform="translate(2.67,3.74) rotate(9.63) scale(0.980)">
        <g transform="translate(4.37,3.15) rotate(14.96) scale(0.960)">
        <g transform="translate(5.00,2.29) rotate(19.84) scale(0.940)">
        <g transform="translate(4.41,1.21) rotate(23.68) scale(0.920)">
        <g transform="translate(2.74,0.03) rotate(25.93) scale(0.900)">
        <g transform="translate(0.40,-1.15) rotate(26.16) scale(0.880)">
        <circle cx="0" cy="0" r="23.6" fill="url(#rgrad3)" filter="url(#shadow)" opacity="0.90"/>
        <text x="0" y="5" text-anchor="middle" font-family="Arial, sans-serif" font-size="14" fill="#FFFFFF" opacity="0.90">350</text>
      </g>
      </g>
      </g>
      </g>
      </g>
      </g>
      </g>
  </g>
  <g transform="translate(129.9, 964.7)">
      <g transform="translate(4.37,1.95) rotate(4.45) scale(1.000)">
        <g transform="translate(5.00,0.83) rotate(9.63) scale(0.980)">
        <g transform="translate(4.41,-0.37) rotate(14.96) scale(0.960)">
        <g transform="translate(2.74,-1.53) rotate(19.84) scale(0.940)" clip-path="url(#clipDynamic)">
        <g transform="translate(0.40,-2.55) rotate(23.68) scale(0.920)">
        <g transform="translate(-2.04,-3.35) rotate(25.93) scale(0.900)">
        <g transform="translate(-3.98,-3.84) rotate(26.16) scale(0.880)">
        <path d="M0.0,-59.5 L17.5,-24.1 L56.6,-18.4 L28.3,9.2 L35.0,48.1 L0.0,29.7 L-35.0,48.1 L-28.3,9.2 L-56.6,-18.4 L-17.5,-24.1Z" fill="url(#lgrad4)" filter="url(#blur4)" opacity="0.86"/>
      </g>
      </g>
      </g>
      </g>
      </g>
      </g>
      </g>
  </g>
  <g transform="translate(381.1, 253.2)" mask="url(#maskGradient)">
    <ellipse cx="0" cy="0" rx="200" ry="150" fill="url(#rgrad0)" filter="url(#blur3)" opacity="0.3"/>
  </g>
  <g transform="translate(794.7, 222.4)" mask="url(#maskCircleFade)">
    <ellipse cx="0" cy="0" rx="200" ry="150" fill="url(#rgrad1)" filter="url(#blur3)" opacity="0.3"/>
  </g>
  <g transform="translate(1213.1, 228.1)" mask="url(#maskStripes)">
    <ellipse cx="0" cy="0" rx="200" ry="150" fill="url(#rgrad2)" filter="url(#blur3)" opacity="0.3"/>
  </g>
</svg>