<?xml version="1.0" encoding="UTF-8"?>
<svg xmlns="http://www.w3.org/2000/svg" viewBox="0 0 1920 1080" width="1920" height="1080">
  <defs>
    <filter id="blur0" x="-50%" y="-50%" width="200%" height="200%">
      <feGaussianBlur in="SourceGraphic" stdDeviation="1"/>
    </filter>
    <filter id="blur1" x="-50%" y="-50%" width="200%" height="200%">
      <feGaussianBlur in="SourceGraphic" stdDeviation="3"/>
    </filter>
    <filter id="blur2" x="-50%" y="-50%" width="200%" height="200%">
      <feGaussianBlur in="SourceGraphic" stdDeviation="5"/>
    </filter>
    <filter id="blur3" x="-50%" y="-50%" width="200%" height="200%">
      <feGaussianBlur in="SourceGraphic" stdDeviation="7"/>
    </filter>
    <filter id="blur4" x="-50%" y="-50%" width="200%" height="200%">
      <feGaussianBlur in="SourceGraphic" stdDeviation="9"/>
    </filter>
    <filter id="shadow" x="-50%" y="-50%" width="200%" height="200%">
      <feGaussianBlur in="SourceAlpha" stdDeviation="3" result="blur"/>
      <feOffset in="blur" dx="4" dy="4" result="offsetBlur"/>
      <feMerge>
        <feMergeNode in="offsetBlur"/>
        <feMergeNode in="SourceGraphic"/>
      </feMerge>
    </filter>
    <linearGradient id="lgrad0" x1="0%" y1="0%" x2="66.3%" y2="2.7%">
      <stop offset="0%" stop-color="#FF6B6B"/>
      <stop offset="33%" stop-color="#4ECDC4"/>
      <stop offset="66%" stop-color="#45B7D1"/>
      <stop offset="100%" stop-color="#96E6A1"/>
    </linearGradient>
    <linearGradient id="lgrad1" x1="0%" y1="0%" x2="87.7%" y2="17.2%">
      <stop offset="0%" stop-color="#FFE66D"/>
      <stop offset="33%" stop-color="#FF6B6B"/>
      <stop offset="66%" stop-color="#C44D58"/>
      <stop offset="100%" stop-color="#8B0000"/>
    </linearGradient>
    <linearGradient id="lgrad2" x1="0%" y1="0%" x2="99.1%" y2="40.5%">
      <stop offset="0%" stop-color="#4169E1"/>
      <stop offset="33%" stop-color="#7B68EE"/>
      <stop offset="66%" stop-color="#9370DB"/>
      <stop offset="100%" stop-color="#FFD700"/>
    </linearGradient>
    <linearGradient id="lgrad3" x1="0%" y1="0%" x2="97.3%" y2="66.3%">
      <stop offset="0%" stop-color="#32CD32"/>
      <stop offset="33%" stop-color="#228B22"/>
      <stop offset="66%" stop-color="#006400"/>
      <stop offset="100%" stop-color="#ADFF2F"/>
    </linearGradient>
    <linearGradient id="lgrad4" x1="0%" y1="0%" x2="82.8%" y2="87.7%">
      <stop offset="0%" stop-color="#FF1493"/>
      <stop offset="33%" stop-color="#FF69B4"/>
      <stop offset="66%" stop-color="#FFB6C1"/>
      <stop offset="100%" stop-color="#FFC0CB"/>
    </linearGradient>
    <radialGradient id="rgrad0" cx="56.4%" cy="47.6%" r="60%">
      <stop offset="0%" stop-color="#FF6B6B" stop-opacity="1"/>
      <stop offset="50%" stop-color="#4ECDC4" stop-opacity="0.8"/>
      <stop offset="100%" stop-color="#45B7D1" stop-opacity="0.6"/>
    </radialGradient>
    <radialGradient id="rgrad1" cx="66.4%" cy="55.6%" r="60%">
      <stop offset="0%" stop-color="#FFE66D" stop-opacity="1"/>
      <stop offset="50%" stop-color="#FF6B6B" stop-opacity="0.8"/>
      <stop offset="100%" stop-color="#C44D58" stop-opacity="0.6"/>
    </radialGradient>
    <radialGradient id="rgrad2" cx="36.4%" cy="63.6%" r="60%">
      <stop offset="0%" stop-color="#4169E1" stop-opacity="1"/>
      <stop offset="50%" stop-color="#7B68EE" stop-opacity="0.8"/>
      <stop offset="100%" stop-color="#9370DB" stop-opacity="0.6"/>
    </radialGradient>
    <radialGradient id="rgrad3" cx="46.4%" cy="31.6%" r="60%">
      <stop offset="0%" stop-color="#32CD32" stop-opacity="1"/>
      <stop offset="50%" stop-color="#228B22" stop-opacity="0.8"/>
      <stop offset="100%" stop-color="#006400" stop-opacity="0.6"/>
    </radialGradient>
    <radialGradient id="rgrad4" cx="56.4%" cy="39.6%" r="60%">
      <stop offset="0%" stop-color="#FF1493" stop-opacity="1"/>
      <stop offset="50%" stop-color="#FF69B4" stop-opacity="0.8"/>
      <stop offset="100%" stop-color="#FFB6C1" stop-opacity="0.6"/>
    </radialGradient>
    <clipPath id="clipCircle">
      <circle cx="0" cy="0" r="50"/>
    </clipPath>
    <clipPath id="clipStar">
      <path d="M0.0,-50.0 L14.7,-20.2 L47.6,-15.5 L23.8,7.7 L29.4,40.5 L0.0,25.0 L-29.4,40.5 L-23.8,7.7 L-47.6,-15.5 L-14.7,-20.2Z"/>
    </clipPath>
    <clipPath id="clipHex">
      <path d="M39.0,22.5 L0.0,45.0 L-39.0,22.5 L-39.0,-22.5 L-0.0,-45.0 L39.0,-22.5Z"/>
    </clipPath>
    <clipPath id="clipRect">
      <rect x="-40" y="-30" width="80" height="60" rx="10"/>
    </clipPath>
    <clipPath id="clipDynamic">
      <circle cx="0" cy="0" r="36.2"/>
    </clipPath>
    <mask id="maskGradient" maskContentUnits="objectBoundingBox">
      <rect x="0" y="0" width="1" height="1" fill="url(#maskGrad)"/>
    </mask>
    <linearGradient id="maskGrad" x1="0%" y1="0%" x2="100%" y2="100%">
      <stop offset="0%" stop-color="white"/>
      <stop offset="100%" stop-color="black"/>
    </linearGradient>
    <mask id="maskCircleFade">
      <circle cx="0" cy="0" r="60" fill="white"/>
      <circle cx="0" cy="0" r="30" fill="black"/>
    </mask>
    <mask id="maskStripes">
      <rect x="-50" y="-50" width="100" height="100" fill="white"/>
      <rect x="-50" y="-40" width="100" height="10" fill="black"/>
      <rect x="-50" y="-20" width="100" height="10" fill="black"/>
      <rect x="-50" y="0" width="100" height="10" fill="black"/>
      <rect x="-50" y="20" width="100" height="10" fill="black"/>
      <rect x="-50" y="40" width="100" height="10" fill="black"/>
    </mask>
    <mask id="maskDynamic">
      <rect x="-60" y="-60" width="120" height="120" fill="white" fill-opacity="1.00"/>
      <circle cx="0" cy="0" r="25" fill="white"/>
    </mask>
  </defs>
  <rect width="1920" height="1080" fill="url(#lgrad0)"/>
  <g transform="translate(102.4, 75.1)">
      <g transform="translate(0.39,-3.99) rotate(5.00) scale(1.000)">
        <g transform="translate(-2.05,-3.90) rotate(9.87) scale(0.980)">
        <g transform="translate(-3.98,-3.47) rotate(14.03) scale(0.960)">
        <g transform="translate(-4.94,-2.72) rotate(16.94) scale(0.940)" clip-path="url(#clipCircle)">
        <g transform="translate(-4.70,-1.74) rotate(18.11) scale(0.920)">
        <g transform="translate(-3.30,-0.60) rotate(17.19) scale(0.900)">
        <g transform="translate(-1.09,0.60) rotate(13.95) scale(0.880)">
        <path d="M0.0,-75.0 L22.0,-30.3 L71.3,-23.2 L35.7,11.6 L44.1,60.7 L0.0,37.5 L-44.1,60.7 L-35.7,11.6 L-71.3,-23.2 L-22.0,-30.3Z" fill="url(#lgrad0)" filter="url(#blur0)" opacity="0.90"/>
      </g>
      </g>
      </g>
      </g>
      </g>
      </g>
      </g>
  </g>
  <g transform="translate(307.7, 79.7)">
      <g transform="translate(-3.98,-2.42) rotate(5.00) scale(1.000)">
        <g transform="translate(-4.94,-1.37) rotate(9.87) scale(0.980)">
        <g transform="translate(-4.70,-0.20) rotate(14.03) scale(0.960)">
        <g transform="translate(-3.30,0.99) rotate(16.94) scale(0.940)">
        <g transform="translate(-1.09,2.09) rotate(18.11) scale(0.920)">
        <g transform="translate(1.38,3.01) rotate(17.19) scale(0.900)" mask="url(#maskCircleFade)">
        <g transform="translate(3.52,3.65) rotate(13.95) scale(0.880)">
        <rect x="-34.3" y="-34.3" width="68.6" height="68.6" rx="17.1" fill="url(#rgrad1)" filter="url(#shadow)" opacity="0.89"/>
        <circle cx="0" cy="0" r="22.9" fill="url(#rgrad2)" opacity="0.62"/>
      </g>
      </g>
      </g>
      </g>
      </g>
      </g>
      </g>
  </g>
  <g transform="translate(516.1, 93.8)">
      <g transform="translate(-4.70,1.37) rotate(5.00) scale(1.000)">
        <g transform="translate(-3.30,2.42) rotate(9.87) scale(0.980)">
        <g transform="translate(-1.09,3.26) rotate(14.03) scale(0.960)">
        <g transform="translate(1.38,3.80) rotate(16.94) scale(0.940)">
        <g transform="translate(3.52,4.00) rotate(18.11) scale(0.920)">
        <g transform="translate(4.79,3.84) rotate(17.19) scale(0.900)">
        <g transform="translate(4.89,3.35) rotate(13.95) scale(0.880)">
        <path d="M28.2,16.3 L0.0,32.6 L-28.2,16.3 L-28.2,-16.3 L-0.0,-32.6 L28.2,-16.3Z" fill="url(#rgrad2)" filter="url(#blur2)" opacity="0.84"/>
        <ellipse cx="0" cy="0" rx="13.6" ry="9.0" fill="#FFFFFF" opacity="0.42"/>
      </g>
      </g>
      </g>
      </g>
      </g>
      </g>
      </g>
  </g>
  <g transform="translate(730.3, 110.9)">
      <g transform="translate(-1.09,3.90) rotate(5.00) scale(1.000)">
        <g transform="translate(1.38,3.99) rotate(9.87) scale(0.980)">
        <g transform="translate(3.52,3.71) rotate(14.03) scale(0.960)">
        <g transform="translate(4.79,3.11) rotate(16.94) scale(0.940)" clip-path="url(#clipRect)">
        <g transform="translate(4.89,2.23) rotate(18.11) scale(0.920)">
        <g transform="translate(3.80,1.15) rotate(17.19) scale(0.900)">
        <g transform="translate(1.77,-0.04) rotate(13.95) scale(0.880)">
        <circle cx="0" cy="0" r="22.6" fill="url(#lgrad3)" filter="url(#shadow)" opacity="0.76"/>
        <text x="0" y="5" text-anchor="middle" font-family="Arial, sans-serif" font-size="14" fill="#FFFFFF" opacity="0.76">488</text>
      </g>
      </g>
      </g>
      </g>
      </g>
      </g>
      </g>
  </g>
  <g transform="translate(951.8, 122.8)">
      <g transform="translate(3.52,2.84) rotate(5.00) scale(1.000)">
        <g transform="translate(4.79,1.89) rotate(9.87) scale(0.980)">
        <g transform="translate(4.89,0.76) rotate(14.03) scale(0.960)">
        <g transform="translate(3.80,-0.44) rotate(16.94) scale(0.940)">
        <g transform="translate(1.77,-1.59) rotate(18.11) scale(0.920)">
        <g transform="translate(-0.69,-2.60) rotate(17.19) scale(0.900)" mask="url(#maskGradient)">
        <g transform="translate(-2.98,-3.39) rotate(13.95) scale(0.880)">
        <path d="M0.0,-49.8 L14.6,-20.1 L47.3,-15.4 L23.7,7.7 L29.2,40.3 L0.0,24.9 L-29.2,40.3 L-23.7,7.7 L-47.3,-15.4 L-14.6,-20.1Z" fill="url(#rgrad4)" filter="url(#blur4)" opacity="0.66"/>
      </g>
      </g>
      </g>
      </g>
      </g>
      </g>
      </g>
  </g>
  <g transform="translate(1180.2, 124.0)">
      <g transform="translate(4.89,-0.83) rotate(5.00) scale(1.000)">
        <g transform="translate(3.80,-1.95) rotate(9.87) scale(0.980)">
        <g transform="translate(1.77,-2.89) rotate(14.03) scale(0.960)">
        <g transform="translate(-0.69,-3.58) rotate(16.94) scale(0.940)">
        <g transform="translate(-2.98,-3.95) rotate(18.11) scale(0.920)">
        <g transform="translate(-4.54,-3.96) rotate(17.19) scale(0.900)">
        <g transform="translate(-4.99,-3.62) rotate(13.95) scale(0.880)">
        <rect x="-31.8" y="-31.8" width="63.7" height="63.7" rx="15.9" fill="url(#rgrad0)" filter="url(#shadow)" opacity="0.54"/>
        <circle cx="0" cy="0" r="21.2" fill="url(#rgrad1)" opacity="0.38"/>
      </g>
      </g>
      </g>
      </g>
      </g>
      </g>
      </g>
  </g>
  <g transform="translate(1413.4, 113.9)">
      <g transform="translate(1.77,-3.74) rotate(5.00) scale(1.000)">
        <g transform="translate(-0.69,-3.99) rotate(9.87) scale(0.980)">
        <g transform="translate(-2.98,-3.89) rotate(14.03) scale(0.960)">
        <g transform="translate(-4.54,-3.43) rotate(16.94) scale(0.940)" clip-path="url(#clipStar)">
        <g transform="translate(-4.99,-2.68) rotate(18.11) scale(0.920)">
        <g transform="translate(-4.22,-1.68) rotate(17.19) scale(0.900)">
        <g transform="translate(-2.41,-0.53) rotate(13.95) scale(0.880)">
        <path d="M38.6,22.3 L0.0,44.5 L-38.6,22.3 L-38.6,-22.3 L-0.0,-44.5 L38.6,-22.3Z" fill="url(#lgrad1)" filter="url(#blur1)" opacity="0.42"/>
        <ellipse cx="0" cy="0" rx="18.6" ry="12.4" fill="#FFFFFF" opacity="0.21"/>
      </g>
      </g>
      </g>
      </g>
      </g>
      </g>
      </g>
  </g>
  <g transform="translate(1648.3, 97.3)">
      <g transform="translate(-2.98,-3.21) rotate(5.00) scale(1.000)">
        <g transform="translate(-4.54,-2.36) rotate(9.87) scale(0.980)">
        <g transform="translate(-4.99,-1.31) rotate(14.03) scale(0.960)">
        <g transform="translate(-4.22,-0.13) rotate(16.94) scale(0.940)">
        <g transform="translate(-2.41,1.06) rotate(18.11) scale(0.920)">
        <g transform="translate(-0.02,2.15) rotate(17.19) scale(0.900)" mask="url(#maskDynamic)">
        <g transform="translate(2.38,3.05) rotate(13.95) scale(0.880)">
        <circle cx="0" cy="0" r="35.8" fill="url(#rgrad2)" filter="url(#shadow)" opacity="0.31"/>
        <text x="0" y="5" text-anchor="middle" font-family="Arial, sans-serif" font-size="14" fill="#FFFFFF" opacity="0.31">488</text>
      </g>
      </g>
      </g>
      </g>
      </g>
      </g>
      </g>
  </g>
  <g transform="translate(121.1, 361.9)">
      <g transform="translate(-4.99,0.27) rotate(5.00) scale(1.000)">
        <g transform="translate(-4.22,1.44) rotate(9.87) scale(0.980)">
        <g transform="translate(-2.41,2.48) rotate(14.03) scale(0.960)">
        <g transform="translate(-0.02,3.29) rotate(16.94) scale(0.940)">
        <g transform="translate(2.38,3.82) rotate(18.11) scale(0.920)">
        <g transform="translate(4.20,4.00) rotate(17.19) scale(0.900)">
        <g transform="translate(4.99,3.83) rotate(13.95) scale(0.880)">
        <path d="M0.0,-58.4 L17.2,-23.6 L55.5,-18.0 L27.8,9.0 L34.3,47.2 L0.0,29.2 L-34.3,47.2 L-27.8,9.0 L-55.5,-18.0 L-17.2,-23.6Z" fill="url(#rgrad3)" filter="url(#blur3)" opacity="0.22"/>
      </g>
      </g>
      </g>
      </g>
      </g>
      </g>
      </g>
  </g>
  <g transform="translate(348.7, 355.0)">
      <g transform="translate(-2.41,3.50) rotate(5.00) scale(1.000)">
        <g transform="translate(-0.02,3.92) rotate(9.87) scale(0.980)">
        <g transform="translate(2.38,3.98) rotate(14.03) scale(0.960)">
        <g transform="translate(4.20,3.69) rotate(16.94) scale(0.940)" clip-path="url(#clipDynamic)">
        <g transform="translate(4.99,3.07) rotate(18.11) scale(0.920)">
        <g transform="translate(4.55,2.17) rotate(17.19) scale(0.900)">
        <g transform="translate(3.01,1.08) rotate(13.95) scale(0.880)">
        <rect x="-23.3" y="-23.3" width="46.6" height="46.6" rx="11.6" fill="url(#lgrad4)" filter="url(#shadow)" opacity="0.15"/>
        <circle cx="0" cy="0" r="15.5" fill="url(#rgrad0)" opacity="0.10"/>
      </g>
      </g>
      </g>
      </g>
      </g>
      </g>
      </g>
  </g>
  <g transform="translate(569.3, 359.9)">
      <g transform="translate(2.38,3.52) rotate(5.00) scale(1.000)">
        <g transform="translate(4.20,2.80) rotate(9.87) scale(0.980)">
        <g transform="translate(4.99,1.83) rotate(14.03) scale(0.960)">
        <g transform="translate(4.55,0.69) rotate(16.94) scale(0.940)">
        <g transform="translate(3.01,-0.50) rotate(18.11) scale(0.920)">
        <g transform="translate(0.72,-1.65) rotate(17.19) scale(0.900)" mask="url(#maskStripes)">
        <g transform="translate(-1.74,-2.65) rotate(13.95) scale(0.880)">
        <path d="M24.5,14.1 L0.0,28.3 L-24.5,14.1 L-24.5,-14.1 L-0.0,-28.3 L24.5,-14.1Z" fill="url(#rgrad0)" filter="url(#blur0)" opacity="0.11"/>
        <ellipse cx="0" cy="0" rx="11.8" ry="7.9" fill="#FFFFFF" opacity="0.05"/>
      </g>
      </g>
      </g>
      </g>
      </g>
      </g>
      </g>
  </g>
  <g transform="translate(782.8, 374.2)">
      <g transform="translate(4.99,0.30) rotate(5.00) scale(1.000)">
        <g transform="translate(4.55,-0.90) rotate(9.87) scale(0.980)">
        <g transform="translate(3.01,-2.01) rotate(14.03) scale(0.960)">
        <g transform="translate(0.72,-2.94) rotate(16.94) scale(0.940)">
        <g transform="translate(-1.74,-3.61) rotate(18.11) scale(0.920)">
        <g transform="translate(-3.77,-3.96) rotate(17.19) scale(0.900)">
        <g transform="translate(-4.88,-3.95) rotate(13.95) scale(0.880)">
        <circle cx="0" cy="0" r="29.7" fill="url(#rgrad1)" filter="url(#shadow)" opacity="0.10"/>
        <text x="0" y="5" text-anchor="middle" font-family="Arial, sans-serif" font-size="14" fill="#FFFFFF" opacity="0.10">488</text>
      </g>
      </g>
      </g>
      </g>
      </g>
      </g>
      </g>
  </g>
  <g transform="translate(990.6, 391.3)">
      <g transform="translate(3.01,-3.20) rotate(5.00) scale(1.000)">
        <g transform="translate(0.72,-3.76) rotate(9.87) scale(0.980)">
        <g transform="translate(-1.74,-4.00) rotate(14.03) scale(0.960)">
        <g transform="translate(-3.77,-3.87) rotate(16.94) scale(0.940)" clip-path="url(#clipHex)">
        <g transform="translate(-4.88,-3.40) rotate(18.11) scale(0.920)">
        <g transform="translate(-4.80,-2.62) rotate(17.19) scale(0.900)">
        <g transform="translate(-3.54,-1.62) rotate(13.95) scale(0.880)">
        <path d="M0.0,-72.3 L21.3,-29.3 L68.8,-22.4 L34.4,11.2 L42.5,58.5 L0.0,36.2 L-42.5,58.5 L-34.4,11.2 L-68.8,-22.4 L-21.3,-29.3Z" fill="url(#lgrad2)" filter="url(#blur2)" opacity="0.13"/>
      </g>
      </g>
      </g>
      </g>
      </g>
      </g>
      </g>
  </g>
  <g transform="translate(1195.9, 403.0)">
      <g transform="translate(-1.74,-3.75) rotate(5.00) scale(1.000)">
        <g transform="translate(-3.77,-3.17) rotate(9.87) scale(0.980)">
        <g transform="translate(-4.88,-2.31) rotate(14.03) scale(0.960)">
        <g transform="translate(-4.80,-1.24) rotate(16.94) scale(0.940)">
        <g transform="translate(-3.54,-0.06) rotate(18.11) scale(0.920)">
        <g transform="translate(-1.41,1.12) rotate(17.19) scale(0.900)" mask="url(#maskCircleFade)">
        <g transform="translate(1.06,2.21) rotate(13.95) scale(0.880)">
        <rect x="-36.9" y="-36.9" width="73.8" height="73.8" rx="18.5" fill="url(#rgrad3)" filter="url(#shadow)" opacity="0.20"/>
        <circle cx="0" cy="0" r="24.6" fill="url(#rgrad4)" opacity="0.14"/>
      </g>
      </g>
      </g>
      </g>
      </g>
      </g>
      </g>
  </g>
  <g transform="translate(1402.1, 403.9)">
      <g transform="translate(-4.88,-0.86) rotate(5.00) scale(1.000)">
        <g transform="translate(-4.80,0.34) rotate(9.87) scale(0.980)">
        <g transform="translate(-3.54,1.50) rotate(14.03) scale(0.960)">
        <g transform="translate(-1.41,2.53) rotate(16.94) scale(0.940)">
        <g transform="translate(1.06,3.33) rotate(18.11) scale(0.920)">
        <g transform="translate(3.27,3.84) rotate(17.19) scale(0.900)">
        <g transform="translate(4.68,4.00) rotate(13.95) scale(0.880)">
        <path d="M32.5,18.8 L0.0,37.6 L-32.5,18.8 L-32.5,-18.8 L-0.0,-37.6 L32.5,-18.8Z" fill="url(#rgrad4)" filter="url(#blur4)" opacity="0.29"/>
        <ellipse cx="0" cy="0" rx="15.7" ry="10.4" fill="#FFFFFF" opacity="0.15"/>
      </g>
      </g>
      </g>
      </g>
      </g>
      </g>
      </g>
  </g>
  <g transform="translate(1612.8, 393.6)">
      <g transform="translate(-3.54,2.83) rotate(5.00) scale(1.000)">
        <g transform="translate(-1.41,3.54) rotate(9.87) scale(0.980)">
        <g transform="translate(1.06,3.93) rotate(14.03) scale(0.960)">
        <g transform="translate(3.27,3.97) rotate(16.94) scale(0.940)" clip-path="url(#clipCircle)">
        <g transform="translate(4.68,3.66) rotate(18.11) scale(0.920)">
        <g transform="translate(4.95,3.02) rotate(17.19) scale(0.900)">
        <g transform="translate(4.00,2.12) rotate(13.95) scale(0.880)">
        <circle cx="0" cy="0" r="24.5" fill="url(#lgrad0)" filter="url(#shadow)" opacity="0.40"/>
        <text x="0" y="5" text-anchor="middle" font-family="Arial, sans-serif" font-size="14" fill="#FFFFFF" opacity="0.40">488</text>
      </g>
      </g>
      </g>
      </g>
      </g>
      </g>
      </g>
  </g>
  <g transform="translate(70.1, 656.9)">
      <g transform="translate(1.06,3.91) rotate(5.00) scale(1.000)">
        <g transform="translate(3.27,3.48) rotate(9.87) scale(0.980)">
        <g transform="translate(4.68,2.75) rotate(14.03) scale(0.960)">
        <g transform="translate(4.95,1.77) rotate(16.94) scale(0.940)">
        <g transform="translate(4.00,0.63) rotate(18.11) scale(0.920)">
        <g transform="translate(2.08,-0.57) rotate(17.19) scale(0.900)" mask="url(#maskGradient)">
        <g transform="translate(-0.36,-1.71) rotate(13.95) scale(0.880)">
        <path d="M0.0,-45.5 L13.4,-18.4 L43.3,-14.1 L21.6,7.0 L26.7,36.8 L0.0,22.7 L-26.7,36.8 L-21.6,7.0 L-43.3,-14.1 L-13.4,-18.4Z" fill="url(#rgrad1)" filter="url(#blur1)" opacity="0.52"/>
      </g>
      </g>
      </g>
      </g>
      </g>
      </g>
      </g>
  </g>
  <g transform="translate(294.7, 641.6)">
      <g transform="translate(4.68,1.40) rotate(5.00) scale(1.000)">
        <g transform="translate(4.95,0.23) rotate(9.87) scale(0.980)">
        <g transform="translate(4.00,-0.96) rotate(14.03) scale(0.960)">
        <g transform="translate(2.08,-2.07) rotate(16.94) scale(0.940)">
        <g transform="translate(-0.36,-2.99) rotate(18.11) scale(0.920)">
        <g transform="translate(-2.71,-3.64) rotate(17.19) scale(0.900)">
        <g transform="translate(-4.39,-3.97) rotate(13.95) scale(0.880)">
        <rect x="-27.7" y="-27.7" width="55.3" height="55.3" rx="13.8" fill="url(#rgrad2)" filter="url(#shadow)" opacity="0.64"/>
        <circle cx="0" cy="0" r="18.4" fill="url(#rgrad3)" opacity="0.45"/>
      </g>
      </g>
      </g>
      </g>
      </g>
      </g>
      </g>
  </g>
  <g transform="translate(525.5, 635.0)">
      <g transform="translate(4.00,-2.40) rotate(5.00) scale(1.000)">
        <g transform="translate(2.08,-3.24) rotate(9.87) scale(0.980)">
        <g transform="translate(-0.36,-3.79) rotate(14.03) scale(0.960)">
        <g transform="translate(-2.71,-4.00) rotate(16.94) scale(0.940)" clip-path="url(#clipRect)">
        <g transform="translate(-4.39,-3.85) rotate(18.11) scale(0.920)">
        <g transform="translate(-5.00,-3.36) rotate(17.19) scale(0.900)">
        <g transform="translate(-4.39,-2.57) rotate(13.95) scale(0.880)">
        <path d="M36.1,20.8 L0.0,41.7 L-36.1,20.8 L-36.1,-20.8 L-0.0,-41.7 L36.1,-20.8Z" fill="url(#lgrad3)" filter="url(#blur3)" opacity="0.74"/>
        <ellipse cx="0" cy="0" rx="17.4" ry="11.6" fill="#FFFFFF" opacity="0.37"/>
      </g>
      </g>
      </g>
      </g>
      </g>
      </g>
      </g>
  </g>
  <g transform="translate(759.9, 640.2)">
      <g transform="translate(-0.36,-3.99) rotate(5.00) scale(1.000)">
        <g transform="translate(-2.71,-3.73) rotate(9.87) scale(0.980)">
        <g transform="translate(-4.39,-3.13) rotate(14.03) scale(0.960)">
        <g transform="translate(-5.00,-2.26) rotate(16.94) scale(0.940)">
        <g transform="translate(-4.39,-1.18) rotate(18.11) scale(0.920)">
        <g transform="translate(-2.70,0.00) rotate(17.19) scale(0.900)" mask="url(#maskDynamic)">
        <g transform="translate(-0.35,1.19) rotate(13.95) scale(0.880)">
        <circle cx="0" cy="0" r="37.5" fill="url(#rgrad4)" filter="url(#shadow)" opacity="0.82"/>
        <text x="0" y="5" text-anchor="middle" font-family="Arial, sans-serif" font-size="14" fill="#FFFFFF" opacity="0.82">488</text>
      </g>
      </g>
      </g>
      </g>
      </g>
      </g>
      </g>
  </g>
  <g transform="translate(994.3, 654.6)">
      <g transform="translate(-4.39,-1.91) rotate(5.00) scale(1.000)">
        <g transform="translate(-5.00,-0.79) rotate(9.87) scale(0.980)">
        <g transform="translate(-4.39,0.40) rotate(14.03) scale(0.960)">
        <g transform="translate(-2.70,1.56) rotate(16.94) scale(0.940)">
        <g transform="translate(-0.35,2.58) rotate(18.11) scale(0.920)">
        <g transform="translate(2.09,3.37) rotate(17.19) scale(0.900)">
        <g transform="translate(4.01,3.86) rotate(13.95) scale(0.880)">
        <path d="M0.0,-66.7 L19.6,-27.0 L63.4,-20.6 L31.7,10.3 L39.2,53.9 L0.0,33.3 L-39.2,53.9 L-31.7,10.3 L-63.4,-20.6 L-19.6,-27.0Z" fill="url(#rgrad0)" filter="url(#blur0)" opacity="0.88"/>
      </g>
      </g>
      </g>
      </g>
      </g>
      </g>
      </g>
  </g>
  <g transform="translate(1225.2, 671.6)">
      <g transform="translate(-4.39,1.92) rotate(5.00) scale(1.000)">
        <g transform="translate(-2.70,2.87) rotate(9.87) scale(0.980)">
        <g transform="translate(-0.35,3.57) rotate(14.03) scale(0.960)">
        <g transform="translate(2.09,3.94) rotate(16.94) scale(0.940)" clip-path="url(#clipStar)">
        <g transform="translate(4.01,3.97) rotate(18.11) scale(0.920)">
        <g transform="translate(4.95,3.64) rotate(17.19) scale(0.900)">
        <g transform="translate(4.68,2.98) rotate(13.95) scale(0.880)">
        <rect x="-26.1" y="-26.1" width="52.3" height="52.3" rx="13.1" fill="url(#lgrad1)" filter="url(#shadow)" opacity="0.90"/>
        <circle cx="0" cy="0" r="17.4" fill="url(#rgrad2)" opacity="0.63"/>
      </g>
      </g>
      </g>
      </g>
      </g>
      </g>
      </g>
  </g>
  <g transform="translate(1449.9, 683.2)">
      <g transform="translate(-0.35,3.99) rotate(5.00) scale(1.000)">
        <g transform="translate(2.09,3.89) rotate(9.87) scale(0.980)">
        <g transform="translate(4.01,3.45) rotate(14.03) scale(0.960)">
        <g transform="translate(4.95,2.70) rotate(16.94) scale(0.940)">
        <g transform="translate(4.68,1.71) rotate(18.11) scale(0.920)">
        <g transform="translate(3.26,0.56) rotate(17.19) scale(0.900)" mask="url(#maskStripes)">
        <g transform="translate(1.05,-0.64) rotate(13.95) scale(0.880)">
        <path d="M23.4,13.5 L0.0,27.0 L-23.4,13.5 L-23.4,-13.5 L-0.0,-27.0 L23.4,-13.5Z" fill="url(#rgrad2)" filter="url(#blur2)" opacity="0.88"/>
        <ellipse cx="0" cy="0" rx="11.3" ry="7.5" fill="#FFFFFF" opacity="0.44"/>
      </g>
      </g>
      </g>
      </g>
      </g>
      </g>
      </g>
  </g>
  <g transform="translate(1667.3, 683.8)">
      <g transform="translate(4.01,2.39) rotate(5.00) scale(1.000)">
        <g transform="translate(4.95,1.34) rotate(9.87) scale(0.980)">
        <g transform="translate(4.68,0.16) rotate(14.03) scale(0.960)">
        <g transform="translate(3.26,-1.03) rotate(16.94) scale(0.940)">
        <g transform="translate(1.05,-2.12) rotate(18.11) scale(0.920)">
        <g transform="translate(-1.42,-3.03) rotate(17.19) scale(0.900)">
        <g transform="translate(-3.55,-3.67) rotate(13.95) scale(0.880)">
        <circle cx="0" cy="0" r="25.8" fill="url(#rgrad3)" filter="url(#shadow)" opacity="0.84"/>
        <text x="0" y="5" text-anchor="middle" font-family="Arial, sans-serif" font-size="14" fill="#FFFFFF" opacity="0.84">488</text>
      </g>
      </g>
      </g>
      </g>
      </g>
      </g>
      </g>
  </g>
  <g transform="translate(118.0, 953.2)">
      <g transform="translate(4.68,-1.41) rotate(5.00) scale(1.000)">
        <g transform="translate(3.26,-2.45) rotate(9.87) scale(0.980)">
        <g transform="translate(1.05,-3.28) rotate(14.03) scale(0.960)">
        <g transform="translate(-1.42,-3.81) rotate(16.94) scale(0.940)" clip-path="url(#clipDynamic)">
        <g transform="translate(-3.55,-4.00) rotate(18.11) scale(0.920)">
        <g transform="translate(-4.80,-3.83) rotate(17.19) scale(0.900)">
        <g transform="translate(-4.88,-3.33) rotate(13.95) scale(0.880)">
        <path d="M0.0,-65.8 L19.3,-26.6 L62.6,-20.3 L31.3,10.2 L38.7,53.3 L0.0,32.9 L-38.7,53.3 L-31.3,10.2 L-62.6,-20.3 L-19.3,-26.6Z" fill="url(#lgrad4)" filter="url(#blur4)" opacity="0.76"/>
      </g>
      </g>
      </g>
      </g>
      </g>
      </g>
      </g>
  </g>
  <g transform="translate(307.9, 220.2)" mask="url(#maskGradient)">
    <ellipse cx="0" cy="0" rx="200" ry="150" fill="url(#rgrad0)" filter="url(#blur3)" opacity="0.3"/>
  </g>
  <g transform="translate(720.4, 235.0)" mask="url(#maskCircleFade)">
    <ellipse cx="0" cy="0" rx="200" ry="150" fill="url(#rgrad1)" filter="url(#blur3)" opacity="0.3"/>
  </g>
  <g transform="translate(1206.1, 280.3)" mask="url(#maskStripes)">
    <ellipse cx="0" cy="0" rx="200" ry="150" fill="url(#rgrad2)" filter="url(#blur3)" opacity="0.3"/>
  </g>
</svg>