<?xml version="1.0" encoding="UTF-8"?>
<svg xmlns="http://www.w3.org/2000/svg" viewBox="0 0 1920 1080" width="1920" height="1080">
  <defs>
    <filter id="blur0" x="-50%" y="-50%" width="200%" height="200%">
      <feGaussianBlur in="SourceGraphic" stdDeviation="1"/>
    </filter>
    <filter id="blur1" x="-50%" y="-50%" width="200%" height="200%">
      <feGaussianBlur in="SourceGraphic" stdDeviation="3"/>
    </filter>
    <filter id="blur2" x="-50%" y="-50%" width="200%" height="200%">
      <feGaussianBlur in="SourceGraphic" stdDeviation="5"/>
    </filter>
    <filter id="blur3" x="-50%" y="-50%" width="200%" height="200%">
      <feGaussianBlur in="SourceGraphic" stdDeviation="7"/>
    </filter>
    <filter id="blur4" x="-50%" y="-50%" width="200%" height="200%">
      <feGaussianBlur in="SourceGraphic" stdDeviation="9"/>
    </filter>
    <filter id="shadow" x="-50%" y="-50%" width="200%" height="200%">
      <feGaussianBlur in="SourceAlpha" stdDeviation="3" result="blur"/>
      <feOffset in="blur" dx="4" dy="4" result="offsetBlur"/>
      <feMerge>
        <feMergeNode in="offsetBlur"/>
        <feMergeNode in="SourceGraphic"/>
      </feMerge>
    </filter>
    <linearGradient id="lgrad0" x1="0%" y1="0%" x2="17.5%" y2="88.0%">
      <stop offset="0%" stop-color="#FF6B6B"/>
      <stop offset="33%" stop-color="#4ECDC4"/>
      <stop offset="66%" stop-color="#45B7D1"/>
      <stop offset="100%" stop-color="#96E6A1"/>
    </linearGradient>
    <linearGradient id="lgrad1" x1="0%" y1="0%" x2="2.9%" y2="66.7%">
      <stop offset="0%" stop-color="#FFE66D"/>
      <stop offset="33%" stop-color="#FF6B6B"/>
      <stop offset="66%" stop-color="#C44D58"/>
      <stop offset="100%" stop-color="#8B0000"/>
    </linearGradient>
    <linearGradient id="lgrad2" x1="0%" y1="0%" x2="0.8%" y2="40.9%">
      <stop offset="0%" stop-color="#4169E1"/>
      <stop offset="33%" stop-color="#7B68EE"/>
      <stop offset="66%" stop-color="#9370DB"/>
      <stop offset="100%" stop-color="#FFD700"/>
    </linearGradient>
    <linearGradient id="lgrad3" x1="0%" y1="0%" x2="12.0%" y2="17.5%">
      <stop offset="0%" stop-color="#32CD32"/>
      <stop offset="33%" stop-color="#228B22"/>
      <stop offset="66%" stop-color="#006400"/>
      <stop offset="100%" stop-color="#ADFF2F"/>
    </linearGradient>
    <linearGradient id="lgrad4" x1="0%" y1="0%" x2="33.3%" y2="2.9%">
      <stop offset="0%" stop-color="#FF1493"/>
      <stop offset="33%" stop-color="#FF69B4"/>
      <stop offset="66%" stop-color="#FFB6C1"/>
      <stop offset="100%" stop-color="#FFC0CB"/>
    </linearGradient>
    <radialGradient id="rgrad0" cx="57.3%" cy="48.2%" r="60%">
      <stop offset="0%" stop-color="#FF6B6B" stop-opacity="1"/>
      <stop offset="50%" stop-color="#4ECDC4" stop-opacity="0.8"/>
      <stop offset="100%" stop-color="#45B7D1" stop-opacity="0.6"/>
    </radialGradient>
    <radialGradient id="rgrad1" cx="67.3%" cy="56.2%" r="60%">
      <stop offset="0%" stop-color="#FFE66D" stop-opacity="1"/>
      <stop offset="50%" stop-color="#FF6B6B" stop-opacity="0.8"/>
      <stop offset="100%" stop-color="#C44D58" stop-opacity="0.6"/>
    </radialGradient>
    <radialGradient id="rgrad2" cx="37.3%" cy="64.2%" r="60%">
      <stop offset="0%" stop-color="#4169E1" stop-opacity="1"/>
      <stop offset="50%" stop-color="#7B68EE" stop-opacity="0.8"/>
      <stop offset="100%" stop-color="#9370DB" stop-opacity="0.6"/>
    </radialGradient>
    <radialGradient id="rgrad3" cx="47.3%" cy="32.2%" r="60%">
      <stop offset="0%" stop-color="#32CD32" stop-opacity="1"/>
      <stop offset="50%" stop-color="#228B22" stop-opacity="0.8"/>
      <stop offset="100%" stop-color="#006400" stop-opacity="0.6"/>
    </radialGradient>
    <radialGradient id="rgrad4" cx="57.3%" cy="40.2%" r="60%">
      <stop offset="0%" stop-color="#FF1493" stop-opacity="1"/>
      <stop offset="50%" stop-color="#FF69B4" stop-opacity="0.8"/>
      <stop offset="100%" stop-color="#FFB6C1" stop-opacity="0.6"/>
    </radialGradient>
    <clipPath id="clipCircle">
      <circle cx="0" cy="0" r="50"/>
    </clipPath>
    <clipPath id="clipStar">
      <path d="M0.0,-50.0 L14.7,-20.2 L47.6,-15.5 L23.8,7.7 L29.4,40.5 L0.0,25.0 L-29.4,40.5 L-23.8,7.7 L-47.6,-15.5 L-14.7,-20.2Z"/>
    </clipPath>
    <clipPath id="clipHex">
      <path d="M39.0,22.5 L0.0,45.0 L-39.0,22.5 L-39.0,-22.5 L-0.0,-45.0 L39.0,-22.5Z"/>
    </clipPath>
    <clipPath id="clipRect">
      <rect x="-40" y="-30" width="80" height="60" rx="10"/>
    </clipPath>
    <clipPath id="clipDynamic">
      <circle cx="0" cy="0" r="25.5"/>
    </clipPath>
    <mask id="maskGradient" maskContentUnits="objectBoundingBox">
      <rect x="0" y="0" width="1" height="1" fill="url(#maskGrad)"/>
    </mask>
    <linearGradient id="maskGrad" x1="0%" y1="0%" x2="100%" y2="100%">
      <stop offset="0%" stop-color="white"/>
      <stop offset="100%" stop-color="black"/>
    </linearGradient>
    <mask id="maskCircleFade">
      <circle cx="0" cy="0" r="60" fill="white"/>
      <circle cx="0" cy="0" r="30" fill="black"/>
    </mask>
    <mask id="maskStripes">
      <rect x="-50" y="-50" width="100" height="100" fill="white"/>
      <rect x="-50" y="-40" width="100" height="10" fill="black"/>
      <rect x="-50" y="-20" width="100" height="10" fill="black"/>
      <rect x="-50" y="0" width="100" height="10" fill="black"/>
      <rect x="-50" y="20" width="100" height="10" fill="black"/>
      <rect x="-50" y="40" width="100" height="10" fill="black"/>
    </mask>
    <mask id="maskDynamic">
      <rect x="-60" y="-60" width="120" height="120" fill="white" fill-opacity="0.54"/>
      <circle cx="0" cy="0" r="25" fill="white"/>
    </mask>
  </defs>
  <rect width="1920" height="1080" fill="url(#lgrad0)"/>
  <g transform="translate(81.0, 119.4)">
      <g transform="translate(-3.17,3.10) rotate(1.68) scale(1.000)">
        <g transform="translate(-0.92,3.71) rotate(1.42) scale(0.980)">
        <g transform="translate(1.55,3.99) rotate(-0.86) scale(0.960)">
        <g transform="translate(3.64,3.91) rotate(-5.09) scale(0.940)" clip-path="url(#clipCircle)">
        <g transform="translate(4.84,3.48) rotate(-11.04) scale(0.920)">
        <g transform="translate(4.85,2.75) rotate(-18.33) scale(0.900)">
        <g transform="translate(3.68,1.76) rotate(-26.46) scale(0.880)">
        <path d="M0.0,-65.0 L19.1,-26.3 L61.9,-20.1 L30.9,10.0 L38.2,52.6 L0.0,32.5 L-38.2,52.6 L-30.9,10.0 L-61.9,-20.1 L-19.1,-26.3Z" fill="url(#lgrad0)" filter="url(#blur0)" opacity="0.63"/>
      </g>
      </g>
      </g>
      </g>
      </g>
      </g>
      </g>
  </g>
  <g transform="translate(314.5, 125.0)">
      <g transform="translate(1.55,3.80) rotate(1.68) scale(1.000)">
        <g transform="translate(3.64,3.27) rotate(1.42) scale(0.980)">
        <g transform="translate(4.84,2.44) rotate(-0.86) scale(0.960)">
        <g transform="translate(4.85,1.40) rotate(-5.09) scale(0.940)">
        <g transform="translate(3.68,0.23) rotate(-11.04) scale(0.920)">
        <g transform="translate(1.61,-0.96) rotate(-18.33) scale(0.900)" mask="url(#maskCircleFade)">
        <g transform="translate(-0.86,-2.07) rotate(-26.46) scale(0.880)">
        <rect x="-25.4" y="-25.4" width="50.8" height="50.8" rx="12.7" fill="url(#rgrad1)" filter="url(#shadow)" opacity="0.52"/>
        <circle cx="0" cy="0" r="16.9" fill="url(#rgrad2)" opacity="0.36"/>
      </g>
      </g>
      </g>
      </g>
      </g>
      </g>
      </g>
  </g>
  <g transform="translate(549.3, 118.9)">
      <g transform="translate(4.84,1.01) rotate(1.68) scale(1.000)">
        <g transform="translate(4.85,-0.17) rotate(1.42) scale(0.980)">
        <g transform="translate(3.68,-1.35) rotate(-0.86) scale(0.960)">
        <g transform="translate(1.61,-2.40) rotate(-5.09) scale(0.940)">
        <g transform="translate(-0.86,-3.24) rotate(-11.04) scale(0.920)">
        <g transform="translate(-3.12,-3.79) rotate(-18.33) scale(0.900)">
        <g transform="translate(-4.61,-4.00) rotate(-26.46) scale(0.880)">
        <path d="M23.4,13.5 L0.0,27.0 L-23.4,13.5 L-23.4,-13.5 L-0.0,-27.0 L23.4,-13.5Z" fill="url(#rgrad2)" filter="url(#blur2)" opacity="0.40"/>
        <ellipse cx="0" cy="0" rx="11.3" ry="7.5" fill="#FFFFFF" opacity="0.20"/>
      </g>
      </g>
      </g>
      </g>
      </g>
      </g>
      </g>
  </g>
  <g transform="translate(781.8, 103.9)">
      <g transform="translate(3.68,-2.71) rotate(1.68) scale(1.000)">
        <g transform="translate(1.61,-3.46) rotate(1.42) scale(0.980)">
        <g transform="translate(-0.86,-3.90) rotate(-0.86) scale(0.960)">
        <g transform="translate(-3.12,-3.99) rotate(-5.09) scale(0.940)" clip-path="url(#clipRect)">
        <g transform="translate(-4.61,-3.73) rotate(-11.04) scale(0.920)">
        <g transform="translate(-4.97,-3.13) rotate(-18.33) scale(0.900)">
        <g transform="translate(-4.12,-2.25) rotate(-26.46) scale(0.880)">
        <circle cx="0" cy="0" r="26.5" fill="url(#lgrad3)" filter="url(#shadow)" opacity="0.29"/>
        <text x="0" y="5" text-anchor="middle" font-family="Arial, sans-serif" font-size="14" fill="#FFFFFF" opacity="0.29">891</text>
      </g>
      </g>
      </g>
      </g>
      </g>
      </g>
      </g>
  </g>
  <g transform="translate(1009.0, 87.1)">
      <g transform="translate(-0.86,-3.94) rotate(1.68) scale(1.000)">
        <g transform="translate(-3.12,-3.56) rotate(1.42) scale(0.980)">
        <g transform="translate(-4.61,-2.86) rotate(-0.86) scale(0.960)">
        <g transform="translate(-4.97,-1.91) rotate(-5.09) scale(0.940)">
        <g transform="translate(-4.12,-0.79) rotate(-11.04) scale(0.920)">
        <g transform="translate(-2.26,0.41) rotate(-18.33) scale(0.900)" mask="url(#maskGradient)">
        <g transform="translate(0.16,1.57) rotate(-26.46) scale(0.880)">
        <path d="M0.0,-67.4 L19.8,-27.3 L64.1,-20.8 L32.0,10.4 L39.6,54.5 L0.0,33.7 L-39.6,54.5 L-32.0,10.4 L-64.1,-20.8 L-19.8,-27.3Z" fill="url(#rgrad4)" filter="url(#blur4)" opacity="0.20"/>
      </g>
      </g>
      </g>
      </g>
      </g>
      </g>
      </g>
  </g>
  <g transform="translate(1229.1, 76.3)">
      <g transform="translate(-4.61,-1.55) rotate(1.68) scale(1.000)">
        <g transform="translate(-4.97,-0.39) rotate(1.42) scale(0.980)">
        <g transform="translate(-4.12,0.80) rotate(-0.86) scale(0.960)">
        <g transform="translate(-2.26,1.92) rotate(-5.09) scale(0.940)">
        <g transform="translate(0.16,2.88) rotate(-11.04) scale(0.920)">
        <g transform="translate(2.53,3.57) rotate(-18.33) scale(0.900)">
        <g transform="translate(4.29,3.94) rotate(-26.46) scale(0.880)">
        <rect x="-37.5" y="-37.5" width="75.0" height="75.0" rx="18.7" fill="url(#rgrad0)" filter="url(#shadow)" opacity="0.13"/>
        <circle cx="0" cy="0" r="25.0" fill="url(#rgrad1)" opacity="0.09"/>
      </g>
      </g>
      </g>
      </g>
      </g>
      </g>
      </g>
  </g>
  <g transform="translate(1442.1, 76.7)">
      <g transform="translate(-4.12,2.27) rotate(1.68) scale(1.000)">
        <g transform="translate(-2.26,3.14) rotate(1.42) scale(0.980)">
        <g transform="translate(0.16,3.73) rotate(-0.86) scale(0.960)">
        <g transform="translate(2.53,3.99) rotate(-5.09) scale(0.940)" clip-path="url(#clipStar)">
        <g transform="translate(4.29,3.89) rotate(-11.04) scale(0.920)">
        <g transform="translate(5.00,3.45) rotate(-18.33) scale(0.900)">
        <g transform="translate(4.48,2.70) rotate(-26.46) scale(0.880)">
        <path d="M35.7,20.6 L0.0,41.3 L-35.7,20.6 L-35.7,-20.6 L-0.0,-41.3 L35.7,-20.6Z" fill="url(#lgrad1)" filter="url(#blur1)" opacity="0.10"/>
        <ellipse cx="0" cy="0" rx="17.2" ry="11.5" fill="#FFFFFF" opacity="0.05"/>
      </g>
      </g>
      </g>
      </g>
      </g>
      </g>
      </g>
  </g>
  <g transform="translate(1649.6, 88.1)">
      <g transform="translate(0.16,4.00) rotate(1.68) scale(1.000)">
        <g transform="translate(2.53,3.78) rotate(1.42) scale(0.980)">
        <g transform="translate(4.29,3.23) rotate(-0.86) scale(0.960)">
        <g transform="translate(5.00,2.39) rotate(-5.09) scale(0.940)">
        <g transform="translate(4.48,1.33) rotate(-11.04) scale(0.920)">
        <g transform="translate(2.87,0.16) rotate(-18.33) scale(0.900)" mask="url(#maskDynamic)">
        <g transform="translate(0.55,-1.03) rotate(-26.46) scale(0.880)">
        <circle cx="0" cy="0" r="27.3" fill="url(#rgrad2)" filter="url(#shadow)" opacity="0.11"/>
        <text x="0" y="5" text-anchor="middle" font-family="Arial, sans-serif" font-size="14" fill="#FFFFFF" opacity="0.11">891</text>
      </g>
      </g>
      </g>
      </g>
      </g>
      </g>
      </g>
  </g>
  <g transform="translate(94.8, 385.0)">
      <g transform="translate(4.29,2.05) rotate(1.68) scale(1.000)">
        <g transform="translate(5.00,0.95) rotate(1.42) scale(0.980)">
        <g transform="translate(4.48,-0.24) rotate(-0.86) scale(0.960)">
        <g transform="translate(2.87,-1.41) rotate(-5.09) scale(0.940)">
        <g transform="translate(0.55,-2.45) rotate(-11.04) scale(0.920)">
        <g transform="translate(-1.90,-3.28) rotate(-18.33) scale(0.900)">
        <g transform="translate(-3.88,-3.81) rotate(-26.46) scale(0.880)">
        <path d="M0.0,-45.3 L13.3,-18.3 L43.1,-14.0 L21.5,7.0 L26.6,36.6 L0.0,22.6 L-26.6,36.6 L-21.5,7.0 L-43.1,-14.0 L-13.3,-18.3Z" fill="url(#rgrad3)" filter="url(#blur3)" opacity="0.15"/>
      </g>
      </g>
      </g>
      </g>
      </g>
      </g>
      </g>
  </g>
  <g transform="translate(301.3, 399.6)">
      <g transform="translate(4.48,-1.78) rotate(1.68) scale(1.000)">
        <g transform="translate(2.87,-2.76) rotate(1.42) scale(0.980)">
        <g transform="translate(0.55,-3.49) rotate(-0.86) scale(0.960)">
        <g transform="translate(-1.90,-3.91) rotate(-5.09) scale(0.940)" clip-path="url(#clipDynamic)">
        <g transform="translate(-3.88,-3.98) rotate(-11.04) scale(0.920)">
        <g transform="translate(-4.92,-3.70) rotate(-18.33) scale(0.900)">
        <g transform="translate(-4.75,-3.09) rotate(-26.46) scale(0.880)">
        <rect x="-24.8" y="-24.8" width="49.6" height="49.6" rx="12.4" fill="url(#lgrad4)" filter="url(#shadow)" opacity="0.22"/>
        <circle cx="0" cy="0" r="16.5" fill="url(#rgrad0)" opacity="0.15"/>
      </g>
      </g>
      </g>
      </g>
      </g>
      </g>
      </g>
  </g>
  <g transform="translate(512.3, 405.0)">
      <g transform="translate(0.55,-3.98) rotate(1.68) scale(1.000)">
        <g transform="translate(-1.90,-3.93) rotate(1.42) scale(0.980)">
        <g transform="translate(-3.88,-3.53) rotate(-0.86) scale(0.960)">
        <g transform="translate(-4.92,-2.82) rotate(-5.09) scale(0.940)">
        <g transform="translate(-4.75,-1.85) rotate(-11.04) scale(0.920)">
        <g transform="translate(-3.42,-0.72) rotate(-18.33) scale(0.900)" mask="url(#maskStripes)">
        <g transform="translate(-1.25,0.47) rotate(-26.46) scale(0.880)">
        <path d="M33.0,19.0 L0.0,38.1 L-33.0,19.0 L-33.0,-19.0 L-0.0,-38.1 L33.0,-19.0Z" fill="url(#rgrad0)" filter="url(#blur0)" opacity="0.31"/>
        <ellipse cx="0" cy="0" rx="15.9" ry="10.6" fill="#FFFFFF" opacity="0.16"/>
      </g>
      </g>
      </g>
      </g>
      </g>
      </g>
      </g>
  </g>
  <g transform="translate(730.2, 398.6)">
      <g transform="translate(-3.88,-2.52) rotate(1.68) scale(1.000)">
        <g transform="translate(-4.92,-1.49) rotate(1.42) scale(0.980)">
        <g transform="translate(-4.75,-0.32) rotate(-0.86) scale(0.960)">
        <g transform="translate(-3.42,0.87) rotate(-5.09) scale(0.940)">
        <g transform="translate(-1.25,1.98) rotate(-11.04) scale(0.920)">
        <g transform="translate(1.23,2.92) rotate(-18.33) scale(0.900)">
        <g transform="translate(3.40,3.60) rotate(-26.46) scale(0.880)">
        <circle cx="0" cy="0" r="37.1" fill="url(#rgrad1)" filter="url(#shadow)" opacity="0.43"/>
        <text x="0" y="5" text-anchor="middle" font-family="Arial, sans-serif" font-size="14" fill="#FFFFFF" opacity="0.43">891</text>
      </g>
      </g>
      </g>
      </g>
      </g>
      </g>
      </g>
  </g>
  <g transform="translate(955.3, 383.5)">
      <g transform="translate(-4.75,1.25) rotate(1.68) scale(1.000)">
        <g transform="translate(-3.42,2.32) rotate(1.42) scale(0.980)">
        <g transform="translate(-1.25,3.18) rotate(-0.86) scale(0.960)">
        <g transform="translate(1.23,3.75) rotate(-5.09) scale(0.940)" clip-path="url(#clipHex)">
        <g transform="translate(3.40,3.99) rotate(-11.04) scale(0.920)">
        <g transform="translate(4.74,3.88) rotate(-18.33) scale(0.900)">
        <g transform="translate(4.92,3.41) rotate(-26.46) scale(0.880)">
        <path d="M0.0,-71.8 L21.1,-29.1 L68.3,-22.2 L34.2,11.1 L42.2,58.1 L0.0,35.9 L-42.2,58.1 L-34.2,11.1 L-68.3,-22.2 L-21.1,-29.1Z" fill="url(#lgrad2)" filter="url(#blur2)" opacity="0.55"/>
      </g>
      </g>
      </g>
      </g>
      </g>
      </g>
      </g>
  </g>
  <g transform="translate(1186.4, 366.7)">
      <g transform="translate(-1.25,3.87) rotate(1.68) scale(1.000)">
        <g transform="translate(1.23,4.00) rotate(1.42) scale(0.980)">
        <g transform="translate(3.40,3.76) rotate(-0.86) scale(0.960)">
        <g transform="translate(4.74,3.19) rotate(-5.09) scale(0.940)">
        <g transform="translate(4.92,2.33) rotate(-11.04) scale(0.920)">
        <g transform="translate(3.90,1.27) rotate(-18.33) scale(0.900)" mask="url(#maskCircleFade)">
        <g transform="translate(1.92,0.09) rotate(-26.46) scale(0.880)">
        <rect x="-29.3" y="-29.3" width="58.6" height="58.6" rx="14.7" fill="url(#rgrad3)" filter="url(#shadow)" opacity="0.66"/>
        <circle cx="0" cy="0" r="19.5" fill="url(#rgrad4)" opacity="0.46"/>
      </g>
      </g>
      </g>
      </g>
      </g>
      </g>
      </g>
  </g>
  <g transform="translate(1420.9, 356.2)">
      <g transform="translate(3.40,2.93) rotate(1.68) scale(1.000)">
        <g transform="translate(4.74,2.00) rotate(1.42) scale(0.980)">
        <g transform="translate(4.92,0.88) rotate(-0.86) scale(0.960)">
        <g transform="translate(3.90,-0.31) rotate(-5.09) scale(0.940)">
        <g transform="translate(1.92,-1.47) rotate(-11.04) scale(0.920)">
        <g transform="translate(-0.53,-2.51) rotate(-18.33) scale(0.900)">
        <g transform="translate(-2.85,-3.32) rotate(-26.46) scale(0.880)">
        <path d="M24.3,14.0 L0.0,28.0 L-24.3,14.0 L-24.3,-14.0 L-0.0,-28.0 L24.3,-14.0Z" fill="url(#rgrad4)" filter="url(#blur4)" opacity="0.76"/>
        <ellipse cx="0" cy="0" rx="11.7" ry="7.8" fill="#FFFFFF" opacity="0.38"/>
      </g>
      </g>
      </g>
      </g>
      </g>
      </g>
      </g>
  </g>
  <g transform="translate(1655.2, 356.9)">
      <g transform="translate(4.92,-0.71) rotate(1.68) scale(1.000)">
        <g transform="translate(3.90,-1.84) rotate(1.42) scale(0.980)">
        <g transform="translate(1.92,-2.81) rotate(-0.86) scale(0.960)">
        <g transform="translate(-0.53,-3.52) rotate(-5.09) scale(0.940)" clip-path="url(#clipCircle)">
        <g transform="translate(-2.85,-3.93) rotate(-11.04) scale(0.920)">
        <g transform="translate(-4.47,-3.98) rotate(-18.33) scale(0.900)">
        <g transform="translate(-5.00,-3.67) rotate(-26.46) scale(0.880)">
        <circle cx="0" cy="0" r="23.5" fill="url(#lgrad0)" filter="url(#shadow)" opacity="0.84"/>
        <text x="0" y="5" text-anchor="middle" font-family="Arial, sans-serif" font-size="14" fill="#FFFFFF" opacity="0.84">891</text>
      </g>
      </g>
      </g>
      </g>
      </g>
      </g>
      </g>
  </g>
  <g transform="translate(125.7, 648.4)">
      <g transform="translate(1.92,-3.69) rotate(1.68) scale(1.000)">
        <g transform="translate(-0.53,-3.98) rotate(1.42) scale(0.980)">
        <g transform="translate(-2.85,-3.92) rotate(-0.86) scale(0.960)">
        <g transform="translate(-4.47,-3.50) rotate(-5.09) scale(0.940)">
        <g transform="translate(-5.00,-2.77) rotate(-11.04) scale(0.920)">
        <g transform="translate(-4.30,-1.79) rotate(-18.33) scale(0.900)" mask="url(#maskGradient)">
        <g transform="translate(-2.55,-0.65) rotate(-26.46) scale(0.880)">
        <path d="M0.0,-59.2 L17.4,-24.0 L56.3,-18.3 L28.2,9.2 L34.8,47.9 L0.0,29.6 L-34.8,47.9 L-28.2,9.2 L-56.3,-18.3 L-17.4,-24.0Z" fill="url(#rgrad1)" filter="url(#blur1)" opacity="0.89"/>
      </g>
      </g>
      </g>
      </g>
      </g>
      </g>
      </g>
  </g>
  <g transform="translate(350.0, 665.4)">
      <g transform="translate(-2.85,-3.29) rotate(1.68) scale(1.000)">
        <g transform="translate(-4.47,-2.47) rotate(1.42) scale(0.980)">
        <g transform="translate(-5.00,-1.43) rotate(-0.86) scale(0.960)">
        <g transform="translate(-4.30,-0.26) rotate(-5.09) scale(0.940)">
        <g transform="translate(-2.55,0.93) rotate(-11.04) scale(0.920)">
        <g transform="translate(-0.18,2.04) rotate(-18.33) scale(0.900)">
        <g transform="translate(2.24,2.97) rotate(-26.46) scale(0.880)">
        <rect x="-36.1" y="-36.1" width="72.2" height="72.2" rx="18.0" fill="url(#rgrad2)" filter="url(#shadow)" opacity="0.90"/>
        <circle cx="0" cy="0" r="24.1" fill="url(#rgrad3)" opacity="0.63"/>
      </g>
      </g>
      </g>
      </g>
      </g>
      </g>
      </g>
  </g>
  <g transform="translate(566.9, 679.9)">
      <g transform="translate(-5.00,0.14) rotate(1.68) scale(1.000)">
        <g transform="translate(-4.30,1.32) rotate(1.42) scale(0.980)">
        <g transform="translate(-2.55,2.37) rotate(-0.86) scale(0.960)">
        <g transform="translate(-0.18,3.22) rotate(-5.09) scale(0.940)" clip-path="url(#clipRect)">
        <g transform="translate(2.24,3.78) rotate(-11.04) scale(0.920)">
        <g transform="translate(4.11,4.00) rotate(-18.33) scale(0.900)">
        <g transform="translate(4.97,3.86) rotate(-26.46) scale(0.880)">
        <path d="M38.4,22.2 L0.0,44.4 L-38.4,22.2 L-38.4,-22.2 L-0.0,-44.4 L38.4,-22.2Z" fill="url(#lgrad3)" filter="url(#blur3)" opacity="0.88"/>
        <ellipse cx="0" cy="0" rx="18.5" ry="12.3" fill="#FFFFFF" opacity="0.44"/>
      </g>
      </g>
      </g>
      </g>
      </g>
      </g>
      </g>
  </g>
  <g transform="translate(777.2, 685.0)">
      <g transform="translate(-2.55,3.44) rotate(1.68) scale(1.000)">
        <g transform="translate(-0.18,3.89) rotate(1.42) scale(0.980)">
        <g transform="translate(2.24,3.99) rotate(-0.86) scale(0.960)">
        <g transform="translate(4.11,3.74) rotate(-5.09) scale(0.940)">
        <g transform="translate(4.97,3.15) rotate(-11.04) scale(0.920)">
        <g transform="translate(4.62,2.28) rotate(-18.33) scale(0.900)" mask="url(#maskDynamic)">
        <g transform="translate(3.13,1.20) rotate(-26.46) scale(0.880)">
        <circle cx="0" cy="0" r="31.4" fill="url(#rgrad4)" filter="url(#shadow)" opacity="0.82"/>
        <text x="0" y="5" text-anchor="middle" font-family="Arial, sans-serif" font-size="14" fill="#FFFFFF" opacity="0.82">891</text>
      </g>
      </g>
      </g>
      </g>
      </g>
      </g>
      </g>
  </g>
  <g transform="translate(983.3, 678.3)">
      <g transform="translate(2.24,3.58) rotate(1.68) scale(1.000)">
        <g transform="translate(4.11,2.89) rotate(1.42) scale(0.980)">
        <g transform="translate(4.97,1.94) rotate(-0.86) scale(0.960)">
        <g transform="translate(4.62,0.82) rotate(-5.09) scale(0.940)">
        <g transform="translate(3.13,-0.38) rotate(-11.04) scale(0.920)">
        <g transform="translate(0.88,-1.54) rotate(-18.33) scale(0.900)">
        <g transform="translate(-1.59,-2.56) rotate(-26.46) scale(0.880)">
        <path d="M0.0,-49.2 L14.4,-19.9 L46.8,-15.2 L23.4,7.6 L28.9,39.8 L0.0,24.6 L-28.9,39.8 L-23.4,7.6 L-46.8,-15.2 L-14.4,-19.9Z" fill="url(#rgrad0)" filter="url(#blur0)" opacity="0.73"/>
      </g>
      </g>
      </g>
      </g>
      </g>
      </g>
      </g>
  </g>
  <g transform="translate(1188.6, 663.1)">
      <g transform="translate(4.97,0.42) rotate(1.68) scale(1.000)">
        <g transform="translate(4.62,-0.77) rotate(1.42) scale(0.980)">
        <g transform="translate(3.13,-1.90) rotate(-0.86) scale(0.960)">
        <g transform="translate(0.88,-2.85) rotate(-5.09) scale(0.940)" clip-path="url(#clipStar)">
        <g transform="translate(-1.59,-3.55) rotate(-11.04) scale(0.920)">
        <g transform="translate(-3.67,-3.94) rotate(-18.33) scale(0.900)">
        <g transform="translate(-4.85,-3.97) rotate(-26.46) scale(0.880)">
        <rect x="-22.7" y="-22.7" width="45.4" height="45.4" rx="11.4" fill="url(#lgrad1)" filter="url(#shadow)" opacity="0.63"/>
        <circle cx="0" cy="0" r="15.1" fill="url(#rgrad2)" opacity="0.44"/>
      </g>
      </g>
      </g>
      </g>
      </g>
      </g>
      </g>
  </g>
  <g transform="translate(1396.7, 646.4)">
      <g transform="translate(3.13,-3.12) rotate(1.68) scale(1.000)">
        <g transform="translate(0.88,-3.72) rotate(1.42) scale(0.980)">
        <g transform="translate(-1.59,-3.99) rotate(-0.86) scale(0.960)">
        <g transform="translate(-3.67,-3.90) rotate(-5.09) scale(0.940)">
        <g transform="translate(-4.85,-3.46) rotate(-11.04) scale(0.920)">
        <g transform="translate(-4.84,-2.72) rotate(-18.33) scale(0.900)" mask="url(#maskStripes)">
        <g transform="translate(-3.65,-1.73) rotate(-26.46) scale(0.880)">
        <path d="M28.6,16.5 L0.0,33.1 L-28.6,16.5 L-28.6,-16.5 L-0.0,-33.1 L28.6,-16.5Z" fill="url(#rgrad2)" filter="url(#blur2)" opacity="0.51"/>
        <ellipse cx="0" cy="0" rx="13.8" ry="9.2" fill="#FFFFFF" opacity="0.26"/>
      </g>
      </g>
      </g>
      </g>
      </g>
      </g>
      </g>
  </g>
  <g transform="translate(1610.5, 636.1)">
      <g transform="translate(-1.59,-3.79) rotate(1.68) scale(1.000)">
        <g transform="translate(-3.67,-3.25) rotate(1.42) scale(0.980)">
        <g transform="translate(-4.85,-2.41) rotate(-0.86) scale(0.960)">
        <g transform="translate(-4.84,-1.36) rotate(-5.09) scale(0.940)">
        <g transform="translate(-3.65,-0.19) rotate(-11.04) scale(0.920)">
        <g transform="translate(-1.56,1.00) rotate(-18.33) scale(0.900)">
        <g transform="translate(0.90,2.10) rotate(-26.46) scale(0.880)">
        <circle cx="0" cy="0" r="34.6" fill="url(#rgrad3)" filter="url(#shadow)" opacity="0.39"/>
        <text x="0" y="5" text-anchor="middle" font-family="Arial, sans-serif" font-size="14" fill="#FFFFFF" opacity="0.39">891</text>
      </g>
      </g>
      </g>
      </g>
      </g>
      </g>
      </g>
  </g>
  <g transform="translate(71.5, 917.0)">
      <g transform="translate(-4.85,-0.98) rotate(1.68) scale(1.000)">
        <g transform="translate(-4.84,0.21) rotate(1.42) scale(0.980)">
        <g transform="translate(-3.65,1.38) rotate(-0.86) scale(0.960)">
        <g transform="translate(-1.56,2.43) rotate(-5.09) scale(0.940)" clip-path="url(#clipDynamic)">
        <g transform="translate(0.90,3.26) rotate(-11.04) scale(0.920)">
        <g transform="translate(3.15,3.80) rotate(-18.33) scale(0.900)">
        <g transform="translate(4.63,4.00) rotate(-26.46) scale(0.880)">
        <path d="M0.0,-74.9 L22.0,-30.3 L71.3,-23.2 L35.6,11.6 L44.0,60.6 L0.0,37.5 L-44.0,60.6 L-35.6,11.6 L-71.3,-23.2 L-22.0,-30.3Z" fill="url(#lgrad4)" filter="url(#blur4)" opacity="0.28"/>
      </g>
      </g>
      </g>
      </g>
      </g>
      </g>
      </g>
  </g>
  <g transform="translate(236.7, 361.9)" mask="url(#maskGradient)">
    <ellipse cx="0" cy="0" rx="200" ry="150" fill="url(#rgrad0)" filter="url(#blur3)" opacity="0.3"/>
  </g>
  <g transform="translate(830.9, 380.0)" mask="url(#maskCircleFade)">
    <ellipse cx="0" cy="0" rx="200" ry="150" fill="url(#rgrad1)" filter="url(#blur3)" opacity="0.3"/>
  </g>
  <g transform="translate(1396.7, 360.4)" mask="url(#maskStripes)">
    <ellipse cx="0" cy="0" rx="200" ry="150" fill="url(#rgrad2)" filter="url(#blur3)" opacity="0.3"/>
  </g>
</svg>