<?xml version="1.0" encoding="UTF-8"?>
<svg xmlns="http://www.w3.org/2000/svg" viewBox="0 0 1920 1080" width="1920" height="1080">
  <defs>
    <filter id="blur0" x="-50%" y="-50%" width="200%" height="200%">
      <feGaussianBlur in="SourceGraphic" stdDeviation="1"/>
    </filter>
    <filter id="blur1" x="-50%" y="-50%" width="200%" height="200%">
      <feGaussianBlur in="SourceGraphic" stdDeviation="3"/>
    </filter>
    <filter id="blur2" x="-50%" y="-50%" width="200%" height="200%">
      <feGaussianBlur in="SourceGraphic" stdDeviation="5"/>
    </filter>
    <filter id="blur3" x="-50%" y="-50%" width="200%" height="200%">
      <feGaussianBlur in="SourceGraphic" stdDeviation="7"/>
    </filter>
    <filter id="blur4" x="-50%" y="-50%" width="200%" height="200%">
      <feGaussianBlur in="SourceGraphic" stdDeviation="9"/>
    </filter>
    <filter id="shadow" x="-50%" y="-50%" width="200%" height="200%">
      <feGaussianBlur in="SourceAlpha" stdDeviation="3" result="blur"/>
      <feOffset in="blur" dx="4" dy="4" result="offsetBlur"/>
      <feMerge>
        <feMergeNode in="offsetBlur"/>
        <feMergeNode in="SourceGraphic"/>
      </feMerge>
    </filter>
    <linearGradient id="lgrad0" x1="0%" y1="0%" x2="20.3%" y2="90.2%">
      <stop offset="0%" stop-color="#FF6B6B"/>
      <stop offset="33%" stop-color="#4ECDC4"/>
      <stop offset="66%" stop-color="#45B7D1"/>
      <stop offset="100%" stop-color="#96E6A1"/>
    </linearGradient>
    <linearGradient id="lgrad1" x1="0%" y1="0%" x2="4.1%" y2="69.9%">
      <stop offset="0%" stop-color="#FFE66D"/>
      <stop offset="33%" stop-color="#FF6B6B"/>
      <stop offset="66%" stop-color="#C44D58"/>
      <stop offset="100%" stop-color="#8B0000"/>
    </linearGradient>
    <linearGradient id="lgrad2" x1="0%" y1="0%" x2="0.3%" y2="44.3%">
      <stop offset="0%" stop-color="#4169E1"/>
      <stop offset="33%" stop-color="#7B68EE"/>
      <stop offset="66%" stop-color="#9370DB"/>
      <stop offset="100%" stop-color="#FFD700"/>
    </linearGradient>
    <linearGradient id="lgrad3" x1="0%" y1="0%" x2="9.8%" y2="20.3%">
      <stop offset="0%" stop-color="#32CD32"/>
      <stop offset="33%" stop-color="#228B22"/>
      <stop offset="66%" stop-color="#006400"/>
      <stop offset="100%" stop-color="#ADFF2F"/>
    </linearGradient>
    <linearGradient id="lgrad4" x1="0%" y1="0%" x2="30.1%" y2="4.1%">
      <stop offset="0%" stop-color="#FF1493"/>
      <stop offset="33%" stop-color="#FF69B4"/>
      <stop offset="66%" stop-color="#FFB6C1"/>
      <stop offset="100%" stop-color="#FFC0CB"/>
    </linearGradient>
    <radialGradient id="rgrad0" cx="54.9%" cy="46.6%" r="60%">
      <stop offset="0%" stop-color="#FF6B6B" stop-opacity="1"/>
      <stop offset="50%" stop-color="#4ECDC4" stop-opacity="0.8"/>
      <stop offset="100%" stop-color="#45B7D1" stop-opacity="0.6"/>
    </radialGradient>
    <radialGradient id="rgrad1" cx="64.9%" cy="54.6%" r="60%">
      <stop offset="0%" stop-color="#FFE66D" stop-opacity="1"/>
      <stop offset="50%" stop-color="#FF6B6B" stop-opacity="0.8"/>
      <stop offset="100%" stop-color="#C44D58" stop-opacity="0.6"/>
    </radialGradient>
    <radialGradient id="rgrad2" cx="34.9%" cy="62.6%" r="60%">
      <stop offset="0%" stop-color="#4169E1" stop-opacity="1"/>
      <stop offset="50%" stop-color="#7B68EE" stop-opacity="0.8"/>
      <stop offset="100%" stop-color="#9370DB" stop-opacity="0.6"/>
    </radialGradient>
    <radialGradient id="rgrad3" cx="44.9%" cy="30.6%" r="60%">
      <stop offset="0%" stop-color="#32CD32" stop-opacity="1"/>
      <stop offset="50%" stop-color="#228B22" stop-opacity="0.8"/>
      <stop offset="100%" stop-color="#006400" stop-opacity="0.6"/>
    </radialGradient>
    <radialGradient id="rgrad4" cx="54.9%" cy="38.6%" r="60%">
      <stop offset="0%" stop-color="#FF1493" stop-opacity="1"/>
      <stop offset="50%" stop-color="#FF69B4" stop-opacity="0.8"/>
      <stop offset="100%" stop-color="#FFB6C1" stop-opacity="0.6"/>
    </radialGradient>
    <clipPath id="clipCircle">
      <circle cx="0" cy="0" r="50"/>
    </clipPath>
    <clipPath id="clipStar">
      <path d="M0.0,-50.0 L14.7,-20.2 L47.6,-15.5 L23.8,7.7 L29.4,40.5 L0.0,25.0 L-29.4,40.5 L-23.8,7.7 L-47.6,-15.5 L-14.7,-20.2Z"/>
    </clipPath>
    <clipPath id="clipHex">
      <path d="M39.0,22.5 L0.0,45.0 L-39.0,22.5 L-39.0,-22.5 L-0.0,-45.0 L39.0,-22.5Z"/>
    </clipPath>
    <clipPath id="clipRect">
      <rect x="-40" y="-30" width="80" height="60" rx="10"/>
    </clipPath>
    <clipPath id="clipDynamic">
      <circle cx="0" cy="0" r="24.9"/>
    </clipPath>
    <mask id="maskGradient" maskContentUnits="objectBoundingBox">
      <rect x="0" y="0" width="1" height="1" fill="url(#maskGrad)"/>
    </mask>
    <linearGradient id="maskGrad" x1="0%" y1="0%" x2="100%" y2="100%">
      <stop offset="0%" stop-color="white"/>
      <stop offset="100%" stop-color="black"/>
    </linearGradient>
    <mask id="maskCircleFade">
      <circle cx="0" cy="0" r="60" fill="white"/>
      <circle cx="0" cy="0" r="30" fill="black"/>
    </mask>
    <mask id="maskStripes">
      <rect x="-50" y="-50" width="100" height="100" fill="white"/>
      <rect x="-50" y="-40" width="100" height="10" fill="black"/>
      <rect x="-50" y="-20" width="100" height="10" fill="black"/>
      <rect x="-50" y="0" width="100" height="10" fill="black"/>
      <rect x="-50" y="20" width="100" height="10" fill="black"/>
      <rect x="-50" y="40" width="100" height="10" fill="black"/>
    </mask>
    <mask id="maskDynamic">
      <rect x="-60" y="-60" width="120" height="120" fill="white" fill-opacity="0.55"/>
      <circle cx="0" cy="0" r="25" fill="white"/>
    </mask>
  </defs>
  <rect width="1920" height="1080" fill="url(#lgrad0)"/>
  <g transform="translate(79.9, 118.5)">
      <g transform="translate(-3.36,2.96) rotate(1.80) scale(1.000)">
        <g transform="translate(-1.17,3.63) rotate(1.67) scale(0.980)">
        <g transform="translate(1.31,3.96) rotate(-0.48) scale(0.960)">
        <g transform="translate(3.46,3.95) rotate(-4.60) scale(0.940)" clip-path="url(#clipCircle)">
        <g transform="translate(4.77,3.58) rotate(-10.47) scale(0.920)">
        <g transform="translate(4.91,2.89) rotate(-17.72) scale(0.900)">
        <g transform="translate(3.85,1.94) rotate(-25.88) scale(0.880)">
        <path d="M0.0,-65.4 L19.2,-26.5 L62.2,-20.2 L31.1,10.1 L38.4,52.9 L0.0,32.7 L-38.4,52.9 L-31.1,10.1 L-62.2,-20.2 L-19.2,-26.5Z" fill="url(#lgrad0)" filter="url(#blur0)" opacity="0.64"/>
      </g>
      </g>
      </g>
      </g>
      </g>
      </g>
      </g>
  </g>
  <g transform="translate(313.0, 125.0)">
      <g transform="translate(1.31,3.86) rotate(1.80) scale(1.000)">
        <g transform="translate(3.46,3.38) rotate(1.67) scale(0.980)">
        <g transform="translate(4.77,2.60) rotate(-0.48) scale(0.960)">
        <g transform="translate(4.91,1.58) rotate(-4.60) scale(0.940)">
        <g transform="translate(3.85,0.43) rotate(-10.47) scale(0.920)">
        <g transform="translate(1.84,-0.77) rotate(-17.72) scale(0.900)" mask="url(#maskCircleFade)">
        <g transform="translate(-0.61,-1.89) rotate(-25.88) scale(0.880)">
        <rect x="-25.6" y="-25.6" width="51.1" height="51.1" rx="12.8" fill="url(#rgrad1)" filter="url(#shadow)" opacity="0.53"/>
        <circle cx="0" cy="0" r="17.0" fill="url(#rgrad2)" opacity="0.37"/>
      </g>
      </g>
      </g>
      </g>
      </g>
      </g>
      </g>
  </g>
  <g transform="translate(547.8, 119.7)">
      <g transform="translate(4.77,1.21) rotate(1.80) scale(1.000)">
        <g transform="translate(4.91,0.03) rotate(1.67) scale(0.980)">
        <g transform="translate(3.85,-1.16) rotate(-0.48) scale(0.960)">
        <g transform="translate(1.84,-2.24) rotate(-4.60) scale(0.940)">
        <g transform="translate(-0.61,-3.12) rotate(-10.47) scale(0.920)">
        <g transform="translate(-2.92,-3.72) rotate(-17.72) scale(0.900)">
        <g transform="translate(-4.51,-3.99) rotate(-25.88) scale(0.880)">
        <path d="M23.4,13.5 L0.0,27.0 L-23.4,13.5 L-23.4,-13.5 L-0.0,-27.0 L23.4,-13.5Z" fill="url(#rgrad2)" filter="url(#blur2)" opacity="0.41"/>
        <ellipse cx="0" cy="0" rx="11.3" ry="7.5" fill="#FFFFFF" opacity="0.20"/>
      </g>
      </g>
      </g>
      </g>
      </g>
      </g>
      </g>
  </g>
  <g transform="translate(780.8, 105.1)">
      <g transform="translate(3.85,-2.56) rotate(1.80) scale(1.000)">
        <g transform="translate(1.84,-3.35) rotate(1.67) scale(0.980)">
        <g transform="translate(-0.61,-3.85) rotate(-0.48) scale(0.960)">
        <g transform="translate(-2.92,-4.00) rotate(-4.60) scale(0.940)" clip-path="url(#clipRect)">
        <g transform="translate(-4.51,-3.79) rotate(-10.47) scale(0.920)">
        <g transform="translate(-4.99,-3.25) rotate(-17.72) scale(0.900)">
        <g transform="translate(-4.26,-2.42) rotate(-25.88) scale(0.880)">
        <circle cx="0" cy="0" r="26.3" fill="url(#lgrad3)" filter="url(#shadow)" opacity="0.30"/>
        <text x="0" y="5" text-anchor="middle" font-family="Arial, sans-serif" font-size="14" fill="#FFFFFF" opacity="0.30">883</text>
      </g>
      </g>
      </g>
      </g>
      </g>
      </g>
      </g>
  </g>
  <g transform="translate(1008.6, 88.2)">
      <g transform="translate(-0.61,-3.97) rotate(1.80) scale(1.000)">
        <g transform="translate(-2.92,-3.65) rotate(1.67) scale(0.980)">
        <g transform="translate(-4.51,-3.00) rotate(-0.48) scale(0.960)">
        <g transform="translate(-4.99,-2.08) rotate(-4.60) scale(0.940)">
        <g transform="translate(-4.26,-0.98) rotate(-10.47) scale(0.920)">
        <g transform="translate(-2.48,0.21) rotate(-17.72) scale(0.900)" mask="url(#maskGradient)">
        <g transform="translate(-0.10,1.38) rotate(-25.88) scale(0.880)">
        <path d="M0.0,-67.1 L19.7,-27.1 L63.8,-20.7 L31.9,10.4 L39.4,54.3 L0.0,33.5 L-39.4,54.3 L-31.9,10.4 L-63.8,-20.7 L-19.7,-27.1Z" fill="url(#rgrad4)" filter="url(#blur4)" opacity="0.20"/>
      </g>
      </g>
      </g>
      </g>
      </g>
      </g>
      </g>
  </g>
  <g transform="translate(1229.4, 76.8)">
      <g transform="translate(-4.51,-1.73) rotate(1.80) scale(1.000)">
        <g transform="translate(-4.99,-0.59) rotate(1.67) scale(0.980)">
        <g transform="translate(-4.26,0.60) rotate(-0.48) scale(0.960)">
        <g transform="translate(-2.48,1.75) rotate(-4.60) scale(0.940)">
        <g transform="translate(-0.10,2.73) rotate(-10.47) scale(0.920)">
        <g transform="translate(2.31,3.47) rotate(-17.72) scale(0.900)">
        <g transform="translate(4.16,3.90) rotate(-25.88) scale(0.880)">
        <rect x="-37.5" y="-37.5" width="75.0" height="75.0" rx="18.7" fill="url(#rgrad0)" filter="url(#shadow)" opacity="0.14"/>
        <circle cx="0" cy="0" r="25.0" fill="url(#rgrad1)" opacity="0.10"/>
      </g>
      </g>
      </g>
      </g>
      </g>
      </g>
      </g>
  </g>
  <g transform="translate(1443.1, 76.3)">
      <g transform="translate(-4.26,2.10) rotate(1.80) scale(1.000)">
        <g transform="translate(-2.48,3.01) rotate(1.67) scale(0.980)">
        <g transform="translate(-0.10,3.65) rotate(-0.48) scale(0.960)">
        <g transform="translate(2.31,3.97) rotate(-4.60) scale(0.940)" clip-path="url(#clipStar)">
        <g transform="translate(4.16,3.93) rotate(-10.47) scale(0.920)">
        <g transform="translate(4.98,3.55) rotate(-17.72) scale(0.900)">
        <g transform="translate(4.59,2.84) rotate(-25.88) scale(0.880)">
        <path d="M35.9,20.7 L0.0,41.5 L-35.9,20.7 L-35.9,-20.7 L-0.0,-41.5 L35.9,-20.7Z" fill="url(#lgrad1)" filter="url(#blur1)" opacity="0.10"/>
        <ellipse cx="0" cy="0" rx="17.3" ry="11.5" fill="#FFFFFF" opacity="0.05"/>
      </g>
      </g>
      </g>
      </g>
      </g>
      </g>
      </g>
  </g>
  <g transform="translate(1651.1, 87.0)">
      <g transform="translate(-0.10,4.00) rotate(1.80) scale(1.000)">
        <g transform="translate(2.31,3.84) rotate(1.67) scale(0.980)">
        <g transform="translate(4.16,3.34) rotate(-0.48) scale(0.960)">
        <g transform="translate(4.98,2.55) rotate(-4.60) scale(0.940)">
        <g transform="translate(4.59,1.52) rotate(-10.47) scale(0.920)">
        <g transform="translate(3.07,0.36) rotate(-17.72) scale(0.900)" mask="url(#maskDynamic)">
        <g transform="translate(0.80,-0.83) rotate(-25.88) scale(0.880)">
        <circle cx="0" cy="0" r="27.4" fill="url(#rgrad2)" filter="url(#shadow)" opacity="0.11"/>
        <text x="0" y="5" text-anchor="middle" font-family="Arial, sans-serif" font-size="14" fill="#FFFFFF" opacity="0.11">883</text>
      </g>
      </g>
      </g>
      </g>
      </g>
      </g>
      </g>
  </g>
  <g transform="translate(96.3, 383.8)">
      <g transform="translate(4.16,2.22) rotate(1.80) scale(1.000)">
        <g transform="translate(4.98,1.14) rotate(1.67) scale(0.980)">
        <g transform="translate(4.59,-0.04) rotate(-0.48) scale(0.960)">
        <g transform="translate(3.07,-1.22) rotate(-4.60) scale(0.940)">
        <g transform="translate(0.80,-2.29) rotate(-10.47) scale(0.920)">
        <g transform="translate(-1.66,-3.16) rotate(-17.72) scale(0.900)">
        <g transform="translate(-3.72,-3.74) rotate(-25.88) scale(0.880)">
        <path d="M0.0,-45.4 L13.3,-18.4 L43.1,-14.0 L21.6,7.0 L26.7,36.7 L0.0,22.7 L-26.7,36.7 L-21.6,7.0 L-43.1,-14.0 L-13.3,-18.4Z" fill="url(#rgrad3)" filter="url(#blur3)" opacity="0.14"/>
      </g>
      </g>
      </g>
      </g>
      </g>
      </g>
      </g>
  </g>
  <g transform="translate(302.5, 398.8)">
      <g transform="translate(4.59,-1.59) rotate(1.80) scale(1.000)">
        <g transform="translate(3.07,-2.61) rotate(1.67) scale(0.980)">
        <g transform="translate(0.80,-3.39) rotate(-0.48) scale(0.960)">
        <g transform="translate(-1.66,-3.86) rotate(-4.60) scale(0.940)" clip-path="url(#clipDynamic)">
        <g transform="translate(-3.72,-4.00) rotate(-10.47) scale(0.920)">
        <g transform="translate(-4.87,-3.77) rotate(-17.72) scale(0.900)">
        <g transform="translate(-4.82,-3.21) rotate(-25.88) scale(0.880)">
        <rect x="-24.7" y="-24.7" width="49.3" height="49.3" rx="12.3" fill="url(#lgrad4)" filter="url(#shadow)" opacity="0.21"/>
        <circle cx="0" cy="0" r="16.4" fill="url(#rgrad0)" opacity="0.15"/>
      </g>
      </g>
      </g>
      </g>
      </g>
      </g>
      </g>
  </g>
  <g transform="translate(513.0, 405.0)">
      <g transform="translate(0.80,-3.95) rotate(1.80) scale(1.000)">
        <g transform="translate(-1.66,-3.96) rotate(1.67) scale(0.980)">
        <g transform="translate(-3.72,-3.62) rotate(-0.48) scale(0.960)">
        <g transform="translate(-4.87,-2.96) rotate(-4.60) scale(0.940)">
        <g transform="translate(-4.82,-2.03) rotate(-10.47) scale(0.920)">
        <g transform="translate(-3.59,-0.92) rotate(-17.72) scale(0.900)" mask="url(#maskStripes)">
        <g transform="translate(-1.49,0.27) rotate(-25.88) scale(0.880)">
        <path d="M32.8,18.9 L0.0,37.9 L-32.8,18.9 L-32.8,-18.9 L-0.0,-37.9 L32.8,-18.9Z" fill="url(#rgrad0)" filter="url(#blur0)" opacity="0.30"/>
        <ellipse cx="0" cy="0" rx="15.8" ry="10.5" fill="#FFFFFF" opacity="0.15"/>
      </g>
      </g>
      </g>
      </g>
      </g>
      </g>
      </g>
  </g>
  <g transform="translate(730.0, 399.4)">
      <g transform="translate(-3.72,-2.67) rotate(1.80) scale(1.000)">
        <g transform="translate(-4.87,-1.67) rotate(1.67) scale(0.980)">
        <g transform="translate(-4.82,-0.52) rotate(-0.48) scale(0.960)">
        <g transform="translate(-3.59,0.67) rotate(-4.60) scale(0.940)">
        <g transform="translate(-1.49,1.81) rotate(-10.47) scale(0.920)">
        <g transform="translate(0.98,2.78) rotate(-17.72) scale(0.900)">
        <g transform="translate(3.21,3.51) rotate(-25.88) scale(0.880)">
        <circle cx="0" cy="0" r="37.0" fill="url(#rgrad1)" filter="url(#shadow)" opacity="0.42"/>
        <text x="0" y="5" text-anchor="middle" font-family="Arial, sans-serif" font-size="14" fill="#FFFFFF" opacity="0.42">883</text>
      </g>
      </g>
      </g>
      </g>
      </g>
      </g>
      </g>
  </g>
  <g transform="translate(954.5, 384.7)">
      <g transform="translate(-4.82,1.06) rotate(1.80) scale(1.000)">
        <g transform="translate(-3.59,2.15) rotate(1.67) scale(0.980)">
        <g transform="translate(-1.49,3.05) rotate(-0.48) scale(0.960)">
        <g transform="translate(0.98,3.68) rotate(-4.60) scale(0.940)" clip-path="url(#clipHex)">
        <g transform="translate(3.21,3.98) rotate(-10.47) scale(0.920)">
        <g transform="translate(4.66,3.92) rotate(-17.72) scale(0.900)">
        <g transform="translate(4.96,3.51) rotate(-25.88) scale(0.880)">
        <path d="M0.0,-72.1 L21.2,-29.2 L68.5,-22.3 L34.3,11.1 L42.4,58.3 L0.0,36.0 L-42.4,58.3 L-34.3,11.1 L-68.5,-22.3 L-21.2,-29.2Z" fill="url(#lgrad2)" filter="url(#blur2)" opacity="0.54"/>
      </g>
      </g>
      </g>
      </g>
      </g>
      </g>
      </g>
  </g>
  <g transform="translate(1185.1, 367.8)">
      <g transform="translate(-1.49,3.82) rotate(1.80) scale(1.000)">
        <g transform="translate(0.98,4.00) rotate(1.67) scale(0.980)">
        <g transform="translate(3.21,3.82) rotate(-0.48) scale(0.960)">
        <g transform="translate(4.66,3.31) rotate(-4.60) scale(0.940)">
        <g transform="translate(4.96,2.49) rotate(-10.47) scale(0.920)">
        <g transform="translate(4.05,1.46) rotate(-17.72) scale(0.900)" mask="url(#maskCircleFade)">
        <g transform="translate(2.15,0.29) rotate(-25.88) scale(0.880)">
        <rect x="-29.5" y="-29.5" width="59.0" height="59.0" rx="14.8" fill="url(#rgrad3)" filter="url(#shadow)" opacity="0.65"/>
        <circle cx="0" cy="0" r="19.7" fill="url(#rgrad4)" opacity="0.46"/>
      </g>
      </g>
      </g>
      </g>
      </g>
      </g>
      </g>
  </g>
  <g transform="translate(1419.4, 356.6)">
      <g transform="translate(3.21,3.07) rotate(1.80) scale(1.000)">
        <g transform="translate(4.66,2.17) rotate(1.67) scale(0.980)">
        <g transform="translate(4.96,1.08) rotate(-0.48) scale(0.960)">
        <g transform="translate(4.05,-0.11) rotate(-4.60) scale(0.940)">
        <g transform="translate(2.15,-1.28) rotate(-10.47) scale(0.920)">
        <g transform="translate(-0.28,-2.35) rotate(-17.72) scale(0.900)">
        <g transform="translate(-2.64,-3.20) rotate(-25.88) scale(0.880)">
        <path d="M24.4,14.1 L0.0,28.1 L-24.4,14.1 L-24.4,-14.1 L-0.0,-28.1 L24.4,-14.1Z" fill="url(#rgrad4)" filter="url(#blur4)" opacity="0.75"/>
        <ellipse cx="0" cy="0" rx="11.7" ry="7.8" fill="#FFFFFF" opacity="0.38"/>
      </g>
      </g>
      </g>
      </g>
      </g>
      </g>
      </g>
  </g>
  <g transform="translate(1653.9, 356.4)">
      <g transform="translate(4.96,-0.51) rotate(1.80) scale(1.000)">
        <g transform="translate(4.05,-1.66) rotate(1.67) scale(0.980)">
        <g transform="translate(2.15,-2.66) rotate(-0.48) scale(0.960)">
        <g transform="translate(-0.28,-3.42) rotate(-4.60) scale(0.940)" clip-path="url(#clipCircle)">
        <g transform="translate(-2.64,-3.88) rotate(-10.47) scale(0.920)">
        <g transform="translate(-4.35,-3.99) rotate(-17.72) scale(0.900)">
        <g transform="translate(-5.00,-3.75) rotate(-25.88) scale(0.880)">
        <circle cx="0" cy="0" r="23.4" fill="url(#lgrad0)" filter="url(#shadow)" opacity="0.83"/>
        <text x="0" y="5" text-anchor="middle" font-family="Arial, sans-serif" font-size="14" fill="#FFFFFF" opacity="0.83">883</text>
      </g>
      </g>
      </g>
      </g>
      </g>
      </g>
      </g>
  </g>
  <g transform="translate(124.9, 647.3)">
      <g transform="translate(2.15,-3.61) rotate(1.80) scale(1.000)">
        <g transform="translate(-0.28,-3.96) rotate(1.67) scale(0.980)">
        <g transform="translate(-2.64,-3.95) rotate(-0.48) scale(0.960)">
        <g transform="translate(-4.35,-3.59) rotate(-4.60) scale(0.940)">
        <g transform="translate(-5.00,-2.91) rotate(-10.47) scale(0.920)">
        <g transform="translate(-4.42,-1.97) rotate(-17.72) scale(0.900)" mask="url(#maskGradient)">
        <g transform="translate(-2.76,-0.85) rotate(-25.88) scale(0.880)">
        <path d="M0.0,-58.9 L17.3,-23.8 L56.0,-18.2 L28.0,9.1 L34.6,47.6 L0.0,29.4 L-34.6,47.6 L-28.0,9.1 L-56.0,-18.2 L-17.3,-23.8Z" fill="url(#rgrad1)" filter="url(#blur1)" opacity="0.88"/>
      </g>
      </g>
      </g>
      </g>
      </g>
      </g>
      </g>
  </g>
  <g transform="translate(349.9, 664.2)">
      <g transform="translate(-2.64,-3.40) rotate(1.80) scale(1.000)">
        <g transform="translate(-4.35,-2.62) rotate(1.67) scale(0.980)">
        <g transform="translate(-5.00,-1.61) rotate(-0.48) scale(0.960)">
        <g transform="translate(-4.42,-0.46) rotate(-4.60) scale(0.940)">
        <g transform="translate(-2.76,0.74) rotate(-10.47) scale(0.920)">
        <g transform="translate(-0.43,1.87) rotate(-17.72) scale(0.900)">
        <g transform="translate(2.01,2.83) rotate(-25.88) scale(0.880)">
        <rect x="-36.0" y="-36.0" width="72.0" height="72.0" rx="18.0" fill="url(#rgrad2)" filter="url(#shadow)" opacity="0.90"/>
        <circle cx="0" cy="0" r="24.0" fill="url(#rgrad3)" opacity="0.63"/>
      </g>
      </g>
      </g>
      </g>
      </g>
      </g>
      </g>
  </g>
  <g transform="translate(567.5, 679.1)">
      <g transform="translate(-5.00,-0.06) rotate(1.80) scale(1.000)">
        <g transform="translate(-4.42,1.13) rotate(1.67) scale(0.980)">
        <g transform="translate(-2.76,2.21) rotate(-0.48) scale(0.960)">
        <g transform="translate(-0.43,3.10) rotate(-4.60) scale(0.940)" clip-path="url(#clipRect)">
        <g transform="translate(2.01,3.71) rotate(-10.47) scale(0.920)">
        <g transform="translate(3.96,3.99) rotate(-17.72) scale(0.900)">
        <g transform="translate(4.94,3.91) rotate(-25.88) scale(0.880)">
        <path d="M38.5,22.2 L0.0,44.4 L-38.5,22.2 L-38.5,-22.2 L-0.0,-44.4 L38.5,-22.2Z" fill="url(#lgrad3)" filter="url(#blur3)" opacity="0.88"/>
        <ellipse cx="0" cy="0" rx="18.5" ry="12.3" fill="#FFFFFF" opacity="0.44"/>
      </g>
      </g>
      </g>
      </g>
      </g>
      </g>
      </g>
  </g>
  <g transform="translate(778.4, 685.0)">
      <g transform="translate(-2.76,3.33) rotate(1.80) scale(1.000)">
        <g transform="translate(-0.43,3.84) rotate(1.67) scale(0.980)">
        <g transform="translate(2.01,4.00) rotate(-0.48) scale(0.960)">
        <g transform="translate(3.96,3.80) rotate(-4.60) scale(0.940)">
        <g transform="translate(4.94,3.27) rotate(-10.47) scale(0.920)">
        <g transform="translate(4.71,2.44) rotate(-17.72) scale(0.900)" mask="url(#maskDynamic)">
        <g transform="translate(3.32,1.39) rotate(-25.88) scale(0.880)">
        <circle cx="0" cy="0" r="31.6" fill="url(#rgrad4)" filter="url(#shadow)" opacity="0.83"/>
        <text x="0" y="5" text-anchor="middle" font-family="Arial, sans-serif" font-size="14" fill="#FFFFFF" opacity="0.83">883</text>
      </g>
      </g>
      </g>
      </g>
      </g>
      </g>
      </g>
  </g>
  <g transform="translate(984.8, 679.2)">
      <g transform="translate(2.01,3.66) rotate(1.80) scale(1.000)">
        <g transform="translate(3.96,3.02) rotate(1.67) scale(0.980)">
        <g transform="translate(4.94,2.11) rotate(-0.48) scale(0.960)">
        <g transform="translate(4.71,1.01) rotate(-4.60) scale(0.940)">
        <g transform="translate(3.32,-0.18) rotate(-10.47) scale(0.920)">
        <g transform="translate(1.13,-1.35) rotate(-17.72) scale(0.900)">
        <g transform="translate(-1.35,-2.40) rotate(-25.88) scale(0.880)">
        <path d="M0.0,-49.4 L14.5,-20.0 L47.0,-15.3 L23.5,7.6 L29.1,40.0 L0.0,24.7 L-29.1,40.0 L-23.5,7.6 L-47.0,-15.3 L-14.5,-20.0Z" fill="url(#rgrad0)" filter="url(#blur0)" opacity="0.74"/>
      </g>
      </g>
      </g>
      </g>
      </g>
      </g>
      </g>
  </g>
  <g transform="translate(1190.0, 664.3)">
      <g transform="translate(4.94,0.62) rotate(1.80) scale(1.000)">
        <g transform="translate(4.71,-0.57) rotate(1.67) scale(0.980)">
        <g transform="translate(3.32,-1.72) rotate(-0.48) scale(0.960)">
        <g transform="translate(1.13,-2.71) rotate(-4.60) scale(0.940)" clip-path="url(#clipStar)">
        <g transform="translate(-1.35,-3.46) rotate(-10.47) scale(0.920)">
        <g transform="translate(-3.49,-3.90) rotate(-17.72) scale(0.900)">
        <g transform="translate(-4.78,-3.99) rotate(-25.88) scale(0.880)">
        <rect x="-22.7" y="-22.7" width="45.3" height="45.3" rx="11.3" fill="url(#lgrad1)" filter="url(#shadow)" opacity="0.64"/>
        <circle cx="0" cy="0" r="15.1" fill="url(#rgrad2)" opacity="0.45"/>
      </g>
      </g>
      </g>
      </g>
      </g>
      </g>
      </g>
  </g>
  <g transform="translate(1397.7, 647.4)">
      <g transform="translate(3.32,-2.99) rotate(1.80) scale(1.000)">
        <g transform="translate(1.13,-3.64) rotate(1.67) scale(0.980)">
        <g transform="translate(-1.35,-3.97) rotate(-0.48) scale(0.960)">
        <g transform="translate(-3.49,-3.94) rotate(-4.60) scale(0.940)">
        <g transform="translate(-4.78,-3.56) rotate(-10.47) scale(0.920)">
        <g transform="translate(-4.90,-2.86) rotate(-17.72) scale(0.900)" mask="url(#maskStripes)">
        <g transform="translate(-3.82,-1.91) rotate(-25.88) scale(0.880)">
        <path d="M28.4,16.4 L0.0,32.8 L-28.4,16.4 L-28.4,-16.4 L-0.0,-32.8 L28.4,-16.4Z" fill="url(#rgrad2)" filter="url(#blur2)" opacity="0.52"/>
        <ellipse cx="0" cy="0" rx="13.7" ry="9.1" fill="#FFFFFF" opacity="0.26"/>
      </g>
      </g>
      </g>
      </g>
      </g>
      </g>
      </g>
  </g>
  <g transform="translate(1610.8, 636.5)">
      <g transform="translate(-1.35,-3.85) rotate(1.80) scale(1.000)">
        <g transform="translate(-3.49,-3.36) rotate(1.67) scale(0.980)">
        <g transform="translate(-4.78,-2.57) rotate(-0.48) scale(0.960)">
        <g transform="translate(-4.90,-1.55) rotate(-4.60) scale(0.940)">
        <g transform="translate(-3.82,-0.39) rotate(-10.47) scale(0.920)">
        <g transform="translate(-1.80,0.80) rotate(-17.72) scale(0.900)">
        <g transform="translate(0.66,1.93) rotate(-25.88) scale(0.880)">
        <circle cx="0" cy="0" r="34.5" fill="url(#rgrad3)" filter="url(#shadow)" opacity="0.40"/>
        <text x="0" y="5" text-anchor="middle" font-family="Arial, sans-serif" font-size="14" fill="#FFFFFF" opacity="0.40">883</text>
      </g>
      </g>
      </g>
      </g>
      </g>
      </g>
      </g>
  </g>
  <g transform="translate(71.1, 916.6)">
      <g transform="translate(-4.78,-1.17) rotate(1.80) scale(1.000)">
        <g transform="translate(-4.90,0.01) rotate(1.67) scale(0.980)">
        <g transform="translate(-3.82,1.19) rotate(-0.48) scale(0.960)">
        <g transform="translate(-1.80,2.27) rotate(-4.60) scale(0.940)" clip-path="url(#clipDynamic)">
        <g transform="translate(0.66,3.14) rotate(-10.47) scale(0.920)">
        <g transform="translate(2.95,3.73) rotate(-17.72) scale(0.900)">
        <g transform="translate(4.53,3.99) rotate(-25.88) scale(0.880)">
        <path d="M0.0,-75.0 L22.0,-30.3 L71.3,-23.2 L35.6,11.6 L44.1,60.6 L0.0,37.5 L-44.1,60.6 L-35.6,11.6 L-71.3,-23.2 L-22.0,-30.3Z" fill="url(#lgrad4)" filter="url(#blur4)" opacity="0.29"/>
      </g>
      </g>
      </g>
      </g>
      </g>
      </g>
      </g>
  </g>
  <g transform="translate(232.9, 359.3)" mask="url(#maskGradient)">
    <ellipse cx="0" cy="0" rx="200" ry="150" fill="url(#rgrad0)" filter="url(#blur3)" opacity="0.3"/>
  </g>
  <g transform="translate(826.1, 379.9)" mask="url(#maskCircleFade)">
    <ellipse cx="0" cy="0" rx="200" ry="150" fill="url(#rgrad1)" filter="url(#blur3)" opacity="0.3"/>
  </g>
  <g transform="translate(1395.3, 363.0)" mask="url(#maskStripes)">
    <ellipse cx="0" cy="0" rx="200" ry="150" fill="url(#rgrad2)" filter="url(#blur3)" opacity="0.3"/>
  </g>
</svg>