<?xml version="1.0" encoding="UTF-8"?>
<svg xmlns="http://www.w3.org/2000/svg" viewBox="0 0 1920 1080" width="1920" height="1080">
  <defs>
    <filter id="blur0" x="-50%" y="-50%" width="200%" height="200%">
      <feGaussianBlur in="SourceGraphic" stdDeviation="1"/>
    </filter>
    <filter id="blur1" x="-50%" y="-50%" width="200%" height="200%">
      <feGaussianBlur in="SourceGraphic" stdDeviation="3"/>
    </filter>
    <filter id="blur2" x="-50%" y="-50%" width="200%" height="200%">
      <feGaussianBlur in="SourceGraphic" stdDeviation="5"/>
    </filter>
    <filter id="blur3" x="-50%" y="-50%" width="200%" height="200%">
      <feGaussianBlur in="SourceGraphic" stdDeviation="7"/>
    </filter>
    <filter id="blur4" x="-50%" y="-50%" width="200%" height="200%">
      <feGaussianBlur in="SourceGraphic" stdDeviation="9"/>
    </filter>
    <filter id="shadow" x="-50%" y="-50%" width="200%" height="200%">
      <feGaussianBlur in="SourceAlpha" stdDeviation="3" result="blur"/>
      <feOffset in="blur" dx="4" dy="4" result="offsetBlur"/>
      <feMerge>
        <feMergeNode in="offsetBlur"/>
        <feMergeNode in="SourceGraphic"/>
      </feMerge>
    </filter>
    <linearGradient id="lgrad0" x1="0%" y1="0%" x2="48.7%" y2="100.0%">
      <stop offset="0%" stop-color="#FF6B6B"/>
      <stop offset="33%" stop-color="#4ECDC4"/>
      <stop offset="66%" stop-color="#45B7D1"/>
      <stop offset="100%" stop-color="#96E6A1"/>
    </linearGradient>
    <linearGradient id="lgrad1" x1="0%" y1="0%" x2="23.9%" y2="92.6%">
      <stop offset="0%" stop-color="#FFE66D"/>
      <stop offset="33%" stop-color="#FF6B6B"/>
      <stop offset="66%" stop-color="#C44D58"/>
      <stop offset="100%" stop-color="#8B0000"/>
    </linearGradient>
    <linearGradient id="lgrad2" x1="0%" y1="0%" x2="6.1%" y2="73.9%">
      <stop offset="0%" stop-color="#4169E1"/>
      <stop offset="33%" stop-color="#7B68EE"/>
      <stop offset="66%" stop-color="#9370DB"/>
      <stop offset="100%" stop-color="#FFD700"/>
    </linearGradient>
    <linearGradient id="lgrad3" x1="0%" y1="0%" x2="0.0%" y2="48.7%">
      <stop offset="0%" stop-color="#32CD32"/>
      <stop offset="33%" stop-color="#228B22"/>
      <stop offset="66%" stop-color="#006400"/>
      <stop offset="100%" stop-color="#ADFF2F"/>
    </linearGradient>
    <linearGradient id="lgrad4" x1="0%" y1="0%" x2="7.4%" y2="23.9%">
      <stop offset="0%" stop-color="#FF1493"/>
      <stop offset="33%" stop-color="#FF69B4"/>
      <stop offset="66%" stop-color="#FFB6C1"/>
      <stop offset="100%" stop-color="#FFC0CB"/>
    </linearGradient>
    <radialGradient id="rgrad0" cx="57.9%" cy="48.6%" r="60%">
      <stop offset="0%" stop-color="#FF6B6B" stop-opacity="1"/>
      <stop offset="50%" stop-color="#4ECDC4" stop-opacity="0.8"/>
      <stop offset="100%" stop-color="#45B7D1" stop-opacity="0.6"/>
    </radialGradient>
    <radialGradient id="rgrad1" cx="67.9%" cy="56.6%" r="60%">
      <stop offset="0%" stop-color="#FFE66D" stop-opacity="1"/>
      <stop offset="50%" stop-color="#FF6B6B" stop-opacity="0.8"/>
      <stop offset="100%" stop-color="#C44D58" stop-opacity="0.6"/>
    </radialGradient>
    <radialGradient id="rgrad2" cx="37.9%" cy="64.6%" r="60%">
      <stop offset="0%" stop-color="#4169E1" stop-opacity="1"/>
      <stop offset="50%" stop-color="#7B68EE" stop-opacity="0.8"/>
      <stop offset="100%" stop-color="#9370DB" stop-opacity="0.6"/>
    </radialGradient>
    <radialGradient id="rgrad3" cx="47.9%" cy="32.6%" r="60%">
      <stop offset="0%" stop-color="#32CD32" stop-opacity="1"/>
      <stop offset="50%" stop-color="#228B22" stop-opacity="0.8"/>
      <stop offset="100%" stop-color="#006400" stop-opacity="0.6"/>
    </radialGradient>
    <radialGradient id="rgrad4" cx="57.9%" cy="40.6%" r="60%">
      <stop offset="0%" stop-color="#FF1493" stop-opacity="1"/>
      <stop offset="50%" stop-color="#FF69B4" stop-opacity="0.8"/>
      <stop offset="100%" stop-color="#FFB6C1" stop-opacity="0.6"/>
    </radialGradient>
    <clipPath id="clipCircle">
      <circle cx="0" cy="0" r="50"/>
    </clipPath>
    <clipPath id="clipStar">
      <path d="M0.0,-50.0 L14.7,-20.2 L47.6,-15.5 L23.8,7.7 L29.4,40.5 L0.0,25.0 L-29.4,40.5 L-23.8,7.7 L-47.6,-15.5 L-14.7,-20.2Z"/>
    </clipPath>
    <clipPath id="clipHex">
      <path d="M39.0,22.5 L0.0,45.0 L-39.0,22.5 L-39.0,-22.5 L-0.0,-45.0 L39.0,-22.5Z"/>
    </clipPath>
    <clipPath id="clipRect">
      <rect x="-40" y="-30" width="80" height="60" rx="10"/>
    </clipPath>
    <clipPath id="clipDynamic">
      <circle cx="0" cy="0" r="43.2"/>
    </clipPath>
    <mask id="maskGradient" maskContentUnits="objectBoundingBox">
      <rect x="0" y="0" width="1" height="1" fill="url(#maskGrad)"/>
    </mask>
    <linearGradient id="maskGrad" x1="0%" y1="0%" x2="100%" y2="100%">
      <stop offset="0%" stop-color="white"/>
      <stop offset="100%" stop-color="black"/>
    </linearGradient>
    <mask id="maskCircleFade">
      <circle cx="0" cy="0" r="60" fill="white"/>
      <circle cx="0" cy="0" r="30" fill="black"/>
    </mask>
    <mask id="maskStripes">
      <rect x="-50" y="-50" width="100" height="100" fill="white"/>
      <rect x="-50" y="-40" width="100" height="10" fill="black"/>
      <rect x="-50" y="-20" width="100" height="10" fill="black"/>
      <rect x="-50" y="0" width="100" height="10" fill="black"/>
      <rect x="-50" y="20" width="100" height="10" fill="black"/>
      <rect x="-50" y="40" width="100" height="10" fill="black"/>
    </mask>
    <mask id="maskDynamic">
      <rect x="-60" y="-60" width="120" height="120" fill="white" fill-opacity="0.50"/>
      <circle cx="0" cy="0" r="25" fill="white"/>
    </mask>
  </defs>
  <rect width="1920" height="1080" fill="url(#lgrad0)"/>
  <g transform="translate(116.4, 120.9)">
      <g transform="translate(2.73,3.35) rotate(1.43) scale(1.000)">
        <g transform="translate(4.41,2.55) rotate(4.70) scale(0.980)">
        <g transform="translate(5.00,1.53) rotate(9.54) scale(0.960)">
        <g transform="translate(4.37,0.37) rotate(15.53) scale(0.940)" clip-path="url(#clipCircle)">
        <g transform="translate(2.67,-0.83) rotate(22.16) scale(0.920)">
        <g transform="translate(0.31,-1.95) rotate(28.82) scale(0.900)">
        <g transform="translate(-2.12,-2.89) rotate(34.88) scale(0.880)">
        <path d="M0.0,-64.3 L18.9,-26.0 L61.1,-19.9 L30.6,9.9 L37.8,52.0 L0.0,32.1 L-37.8,52.0 L-30.6,9.9 L-61.1,-19.9 L-18.9,-26.0Z" fill="url(#lgrad0)" filter="url(#blur0)" opacity="0.61"/>
      </g>
      </g>
      </g>
      </g>
      </g>
      </g>
      </g>
  </g>
  <g transform="translate(346.4, 107.2)">
      <g transform="translate(5.00,-0.03) rotate(1.43) scale(1.000)">
        <g transform="translate(4.37,-1.21) rotate(4.70) scale(0.980)">
        <g transform="translate(2.67,-2.28) rotate(9.54) scale(0.960)">
        <g transform="translate(0.31,-3.15) rotate(15.53) scale(0.940)">
        <g transform="translate(-2.12,-3.74) rotate(22.16) scale(0.920)">
        <g transform="translate(-4.03,-3.99) rotate(28.82) scale(0.900)" mask="url(#maskCircleFade)">
        <g transform="translate(-4.96,-3.89) rotate(34.88) scale(0.880)">
        <rect x="-37.2" y="-37.2" width="74.4" height="74.4" rx="18.6" fill="url(#rgrad1)" filter="url(#shadow)" opacity="0.72"/>
        <circle cx="0" cy="0" r="24.8" fill="url(#rgrad2)" opacity="0.51"/>
      </g>
      </g>
      </g>
      </g>
      </g>
      </g>
      </g>
  </g>
  <g transform="translate(570.0, 90.1)">
      <g transform="translate(2.67,-3.38) rotate(1.43) scale(1.000)">
        <g transform="translate(0.31,-3.86) rotate(4.70) scale(0.980)">
        <g transform="translate(-2.12,-4.00) rotate(9.54) scale(0.960)">
        <g transform="translate(-4.03,-3.77) rotate(15.53) scale(0.940)">
        <g transform="translate(-4.96,-3.22) rotate(22.16) scale(0.920)">
        <g transform="translate(-4.67,-2.37) rotate(28.82) scale(0.900)">
        <g transform="translate(-3.24,-1.31) rotate(34.88) scale(0.880)">
        <path d="M37.0,21.4 L0.0,42.8 L-37.0,21.4 L-37.0,-21.4 L-0.0,-42.8 L37.0,-21.4Z" fill="url(#rgrad2)" filter="url(#blur2)" opacity="0.81"/>
        <ellipse cx="0" cy="0" rx="17.8" ry="11.9" fill="#FFFFFF" opacity="0.41"/>
      </g>
      </g>
      </g>
      </g>
      </g>
      </g>
      </g>
  </g>
  <g transform="translate(786.2, 77.6)">
      <g transform="translate(-2.12,-3.62) rotate(1.43) scale(1.000)">
        <g transform="translate(-4.03,-2.96) rotate(4.70) scale(0.980)">
        <g transform="translate(-4.96,-2.04) rotate(9.54) scale(0.960)">
        <g transform="translate(-4.67,-0.93) rotate(15.53) scale(0.940)" clip-path="url(#clipRect)">
        <g transform="translate(-3.24,0.26) rotate(22.16) scale(0.920)">
        <g transform="translate(-1.02,1.43) rotate(28.82) scale(0.900)">
        <g transform="translate(1.46,2.47) rotate(34.88) scale(0.880)">
        <circle cx="0" cy="0" r="28.9" fill="url(#lgrad3)" filter="url(#shadow)" opacity="0.87"/>
        <text x="0" y="5" text-anchor="middle" font-family="Arial, sans-serif" font-size="14" fill="#FFFFFF" opacity="0.87">93</text>
      </g>
      </g>
      </g>
      </g>
      </g>
      </g>
      </g>
  </g>
  <g transform="translate(996.0, 75.7)">
      <g transform="translate(-4.96,-0.53) rotate(1.43) scale(1.000)">
        <g transform="translate(-4.67,0.66) rotate(4.70) scale(0.980)">
        <g transform="translate(-3.24,1.80) rotate(9.54) scale(0.960)">
        <g transform="translate(-1.02,2.77) rotate(15.53) scale(0.940)">
        <g transform="translate(1.46,3.50) rotate(22.16) scale(0.920)">
        <g transform="translate(3.57,3.92) rotate(28.82) scale(0.900)" mask="url(#maskGradient)">
        <g transform="translate(4.81,3.98) rotate(34.88) scale(0.880)">
        <path d="M0.0,-46.3 L13.6,-18.7 L44.1,-14.3 L22.0,7.2 L27.2,37.5 L0.0,23.2 L-27.2,37.5 L-22.0,7.2 L-44.1,-14.3 L-13.6,-18.7Z" fill="url(#rgrad4)" filter="url(#blur4)" opacity="0.90"/>
      </g>
      </g>
      </g>
      </g>
      </g>
      </g>
      </g>
  </g>
  <g transform="translate(1201.9, 85.2)">
      <g transform="translate(-3.24,3.05) rotate(1.43) scale(1.000)">
        <g transform="translate(-1.02,3.68) rotate(4.70) scale(0.980)">
        <g transform="translate(1.46,3.98) rotate(9.54) scale(0.960)">
        <g transform="translate(3.57,3.92) rotate(15.53) scale(0.940)">
        <g transform="translate(4.81,3.52) rotate(22.16) scale(0.920)">
        <g transform="translate(4.87,2.80) rotate(28.82) scale(0.900)">
        <g transform="translate(3.74,1.83) rotate(34.88) scale(0.880)">
        <rect x="-23.7" y="-23.7" width="47.4" height="47.4" rx="11.9" fill="url(#rgrad0)" filter="url(#shadow)" opacity="0.89"/>
        <circle cx="0" cy="0" r="15.8" fill="url(#rgrad1)" opacity="0.62"/>
      </g>
      </g>
      </g>
      </g>
      </g>
      </g>
      </g>
  </g>
  <g transform="translate(1407.3, 101.7)">
      <g transform="translate(1.46,3.83) rotate(1.43) scale(1.000)">
        <g transform="translate(3.57,3.31) rotate(4.70) scale(0.980)">
        <g transform="translate(4.81,2.50) rotate(9.54) scale(0.960)">
        <g transform="translate(4.87,1.47) rotate(15.53) scale(0.940)" clip-path="url(#clipStar)">
        <g transform="translate(3.74,0.30) rotate(22.16) scale(0.920)">
        <g transform="translate(1.70,-0.89) rotate(28.82) scale(0.900)">
        <g transform="translate(-0.77,-2.00) rotate(34.88) scale(0.880)">
        <path d="M31.2,18.0 L0.0,36.1 L-31.2,18.0 L-31.2,-18.0 L-0.0,-36.1 L31.2,-18.0Z" fill="url(#lgrad1)" filter="url(#blur1)" opacity="0.85"/>
        <ellipse cx="0" cy="0" rx="15.0" ry="10.0" fill="#FFFFFF" opacity="0.42"/>
      </g>
      </g>
      </g>
      </g>
      </g>
      </g>
      </g>
  </g>
  <g transform="translate(1615.8, 117.3)">
      <g transform="translate(4.81,1.09) rotate(1.43) scale(1.000)">
        <g transform="translate(4.87,-0.10) rotate(4.70) scale(0.980)">
        <g transform="translate(3.74,-1.28) rotate(9.54) scale(0.960)">
        <g transform="translate(1.70,-2.34) rotate(15.53) scale(0.940)">
        <g transform="translate(-0.77,-3.19) rotate(22.16) scale(0.920)">
        <g transform="translate(-3.04,-3.76) rotate(28.82) scale(0.900)" mask="url(#maskDynamic)">
        <g transform="translate(-4.57,-4.00) rotate(34.88) scale(0.880)">
        <circle cx="0" cy="0" r="36.3" fill="url(#rgrad2)" filter="url(#shadow)" opacity="0.77"/>
        <text x="0" y="5" text-anchor="middle" font-family="Arial, sans-serif" font-size="14" fill="#FFFFFF" opacity="0.77">93</text>
      </g>
      </g>
      </g>
      </g>
      </g>
      </g>
      </g>
  </g>
  <g transform="translate(70.3, 404.9)">
      <g transform="translate(3.74,-2.65) rotate(1.43) scale(1.000)">
        <g transform="translate(1.70,-3.42) rotate(4.70) scale(0.980)">
        <g transform="translate(-0.77,-3.88) rotate(9.54) scale(0.960)">
        <g transform="translate(-3.04,-3.99) rotate(15.53) scale(0.940)">
        <g transform="translate(-4.57,-3.75) rotate(22.16) scale(0.920)">
        <g transform="translate(-4.98,-3.17) rotate(28.82) scale(0.900)">
        <g transform="translate(-4.17,-2.31) rotate(34.88) scale(0.880)">
        <path d="M0.0,-73.6 L21.6,-29.8 L70.0,-22.7 L35.0,11.4 L43.3,59.5 L0.0,36.8 L-43.3,59.5 L-35.0,11.4 L-70.0,-22.7 L-21.6,-29.8Z" fill="url(#rgrad3)" filter="url(#blur3)" opacity="0.67"/>
      </g>
      </g>
      </g>
      </g>
      </g>
      </g>
      </g>
  </g>
  <g transform="translate(292.0, 400.7)">
      <g transform="translate(-0.77,-3.95) rotate(1.43) scale(1.000)">
        <g transform="translate(-3.04,-3.60) rotate(4.70) scale(0.980)">
        <g transform="translate(-4.57,-2.92) rotate(9.54) scale(0.960)">
        <g transform="translate(-4.98,-1.98) rotate(15.53) scale(0.940)" clip-path="url(#clipDynamic)">
        <g transform="translate(-4.17,-0.86) rotate(22.16) scale(0.920)">
        <g transform="translate(-2.34,0.33) rotate(28.82) scale(0.900)">
        <g transform="translate(0.06,1.50) rotate(34.88) scale(0.880)">
        <rect x="-31.0" y="-31.0" width="62.0" height="62.0" rx="15.5" fill="url(#lgrad4)" filter="url(#shadow)" opacity="0.56"/>
        <circle cx="0" cy="0" r="20.7" fill="url(#rgrad0)" opacity="0.39"/>
      </g>
      </g>
      </g>
      </g>
      </g>
      </g>
      </g>
  </g>
  <g transform="translate(520.6, 386.8)">
      <g transform="translate(-4.57,-1.62) rotate(1.43) scale(1.000)">
        <g transform="translate(-4.98,-0.47) rotate(4.70) scale(0.980)">
        <g transform="translate(-4.17,0.73) rotate(9.54) scale(0.960)">
        <g transform="translate(-2.34,1.86) rotate(15.53) scale(0.940)">
        <g transform="translate(0.06,2.82) rotate(22.16) scale(0.920)">
        <g transform="translate(2.45,3.53) rotate(28.82) scale(0.900)" mask="url(#maskStripes)">
        <g transform="translate(4.24,3.93) rotate(34.88) scale(0.880)">
        <path d="M25.2,14.6 L0.0,29.2 L-25.2,14.6 L-25.2,-14.6 L-0.0,-29.2 L25.2,-14.6Z" fill="url(#rgrad0)" filter="url(#blur0)" opacity="0.44"/>
        <ellipse cx="0" cy="0" rx="12.1" ry="8.1" fill="#FFFFFF" opacity="0.22"/>
      </g>
      </g>
      </g>
      </g>
      </g>
      </g>
      </g>
  </g>
  <g transform="translate(753.9, 369.7)">
      <g transform="translate(-4.17,2.20) rotate(1.43) scale(1.000)">
        <g transform="translate(-2.34,3.09) rotate(4.70) scale(0.980)">
        <g transform="translate(0.06,3.70) rotate(9.54) scale(0.960)">
        <g transform="translate(2.45,3.98) rotate(15.53) scale(0.940)">
        <g transform="translate(4.24,3.91) rotate(22.16) scale(0.920)">
        <g transform="translate(4.99,3.49) rotate(28.82) scale(0.900)">
        <g transform="translate(4.52,2.75) rotate(34.88) scale(0.880)">
        <circle cx="0" cy="0" r="22.8" fill="url(#rgrad1)" filter="url(#shadow)" opacity="0.33"/>
        <text x="0" y="5" text-anchor="middle" font-family="Arial, sans-serif" font-size="14" fill="#FFFFFF" opacity="0.33">93</text>
      </g>
      </g>
      </g>
      </g>
      </g>
      </g>
      </g>
  </g>
  <g transform="translate(988.7, 357.4)">
      <g transform="translate(0.06,4.00) rotate(1.43) scale(1.000)">
        <g transform="translate(2.45,3.81) rotate(4.70) scale(0.980)">
        <g transform="translate(4.24,3.27) rotate(9.54) scale(0.960)">
        <g transform="translate(4.99,2.45) rotate(15.53) scale(0.940)" clip-path="url(#clipHex)">
        <g transform="translate(4.52,1.40) rotate(22.16) scale(0.920)">
        <g transform="translate(2.94,0.23) rotate(28.82) scale(0.900)">
        <g transform="translate(0.64,-0.96) rotate(34.88) scale(0.880)">
        <path d="M0.0,-55.9 L16.4,-22.6 L53.2,-17.3 L26.6,8.6 L32.9,45.2 L0.0,27.9 L-32.9,45.2 L-26.6,8.6 L-53.2,-17.3 L-16.4,-22.6Z" fill="url(#lgrad2)" filter="url(#blur2)" opacity="0.23"/>
      </g>
      </g>
      </g>
      </g>
      </g>
      </g>
      </g>
  </g>
  <g transform="translate(1221.4, 355.8)">
      <g transform="translate(4.24,2.12) rotate(1.43) scale(1.000)">
        <g transform="translate(4.99,1.02) rotate(4.70) scale(0.980)">
        <g transform="translate(4.52,-0.17) rotate(9.54) scale(0.960)">
        <g transform="translate(2.94,-1.34) rotate(15.53) scale(0.940)">
        <g transform="translate(0.64,-2.39) rotate(22.16) scale(0.920)">
        <g transform="translate(-1.81,-3.23) rotate(28.82) scale(0.900)" mask="url(#maskCircleFade)">
        <g transform="translate(-3.82,-3.79) rotate(34.88) scale(0.880)">
        <rect x="-35.0" y="-35.0" width="69.9" height="69.9" rx="17.5" fill="url(#rgrad3)" filter="url(#shadow)" opacity="0.15"/>
        <circle cx="0" cy="0" r="23.3" fill="url(#rgrad4)" opacity="0.11"/>
      </g>
      </g>
      </g>
      </g>
      </g>
      </g>
      </g>
  </g>
  <g transform="translate(1448.9, 365.5)">
      <g transform="translate(4.52,-1.71) rotate(1.43) scale(1.000)">
        <g transform="translate(2.94,-2.70) rotate(4.70) scale(0.980)">
        <g transform="translate(0.64,-3.45) rotate(9.54) scale(0.960)">
        <g transform="translate(-1.81,-3.90) rotate(15.53) scale(0.940)">
        <g transform="translate(-3.82,-3.99) rotate(22.16) scale(0.920)">
        <g transform="translate(-4.90,-3.73) rotate(28.82) scale(0.900)">
        <g transform="translate(-4.78,-3.13) rotate(34.88) scale(0.880)">
        <path d="M38.9,22.4 L0.0,44.9 L-38.9,22.4 L-38.9,-22.4 L-0.0,-44.9 L38.9,-22.4Z" fill="url(#rgrad4)" filter="url(#blur4)" opacity="0.11"/>
        <ellipse cx="0" cy="0" rx="18.7" ry="12.5" fill="#FFFFFF" opacity="0.05"/>
      </g>
      </g>
      </g>
      </g>
      </g>
      </g>
      </g>
  </g>
  <g transform="translate(1669.2, 382.1)">
      <g transform="translate(0.64,-3.97) rotate(1.43) scale(1.000)">
        <g transform="translate(-1.81,-3.94) rotate(4.70) scale(0.980)">
        <g transform="translate(-3.82,-3.57) rotate(9.54) scale(0.960)">
        <g transform="translate(-4.90,-2.87) rotate(15.53) scale(0.940)" clip-path="url(#clipCircle)">
        <g transform="translate(-4.78,-1.92) rotate(22.16) scale(0.920)">
        <g transform="translate(-3.48,-0.80) rotate(28.82) scale(0.900)">
        <g transform="translate(-1.34,0.40) rotate(34.88) scale(0.880)">
        <circle cx="0" cy="0" r="33.0" fill="url(#lgrad0)" filter="url(#shadow)" opacity="0.10"/>
        <text x="0" y="5" text-anchor="middle" font-family="Arial, sans-serif" font-size="14" fill="#FFFFFF" opacity="0.10">93</text>
      </g>
      </g>
      </g>
      </g>
      </g>
      </g>
      </g>
  </g>
  <g transform="translate(122.5, 677.6)">
      <g transform="translate(-3.82,-2.58) rotate(1.43) scale(1.000)">
        <g transform="translate(-4.90,-1.56) rotate(4.70) scale(0.980)">
        <g transform="translate(-4.78,-0.40) rotate(9.54) scale(0.960)">
        <g transform="translate(-3.48,0.79) rotate(15.53) scale(0.940)">
        <g transform="translate(-1.34,1.92) rotate(22.16) scale(0.920)">
        <g transform="translate(1.14,2.87) rotate(28.82) scale(0.900)" mask="url(#maskGradient)">
        <g transform="translate(3.33,3.56) rotate(34.88) scale(0.880)">
        <path d="M0.0,-51.8 L15.2,-20.9 L49.2,-16.0 L24.6,8.0 L30.4,41.9 L0.0,25.9 L-30.4,41.9 L-24.6,8.0 L-49.2,-16.0 L-15.2,-20.9Z" fill="url(#rgrad1)" filter="url(#blur1)" opacity="0.13"/>
      </g>
      </g>
      </g>
      </g>
      </g>
      </g>
      </g>
  </g>
  <g transform="translate(330.2, 684.9)">
      <g transform="translate(-4.78,1.18) rotate(1.43) scale(1.000)">
        <g transform="translate(-3.48,2.26) rotate(4.70) scale(0.980)">
        <g transform="translate(-1.34,3.13) rotate(9.54) scale(0.960)">
        <g transform="translate(1.14,3.73) rotate(15.53) scale(0.940)">
        <g transform="translate(3.33,3.99) rotate(22.16) scale(0.920)">
        <g transform="translate(4.71,3.90) rotate(28.82) scale(0.900)">
        <g transform="translate(4.94,3.45) rotate(34.88) scale(0.880)">
        <rect x="-22.5" y="-22.5" width="45.0" height="45.0" rx="11.3" fill="url(#rgrad2)" filter="url(#shadow)" opacity="0.19"/>
        <circle cx="0" cy="0" r="15.0" fill="url(#rgrad3)" opacity="0.13"/>
      </g>
      </g>
      </g>
      </g>
      </g>
      </g>
      </g>
  </g>
  <g transform="translate(535.4, 680.5)">
      <g transform="translate(-1.34,3.85) rotate(1.43) scale(1.000)">
        <g transform="translate(1.14,4.00) rotate(4.70) scale(0.980)">
        <g transform="translate(3.33,3.79) rotate(9.54) scale(0.960)">
        <g transform="translate(4.71,3.23) rotate(15.53) scale(0.940)" clip-path="url(#clipRect)">
        <g transform="translate(4.94,2.39) rotate(22.16) scale(0.920)">
        <g transform="translate(3.96,1.34) rotate(28.82) scale(0.900)">
        <g transform="translate(2.00,0.17) rotate(34.88) scale(0.880)">
        <path d="M27.0,15.6 L0.0,31.2 L-27.0,15.6 L-27.0,-15.6 L-0.0,-31.2 L27.0,-15.6Z" fill="url(#lgrad3)" filter="url(#blur3)" opacity="0.28"/>
        <ellipse cx="0" cy="0" rx="13.0" ry="8.7" fill="#FFFFFF" opacity="0.14"/>
      </g>
      </g>
      </g>
      </g>
      </g>
      </g>
      </g>
  </g>
  <g transform="translate(741.8, 666.4)">
      <g transform="translate(3.33,2.98) rotate(1.43) scale(1.000)">
        <g transform="translate(4.71,2.06) rotate(4.70) scale(0.980)">
        <g transform="translate(4.94,0.96) rotate(9.54) scale(0.960)">
        <g transform="translate(3.96,-0.23) rotate(15.53) scale(0.940)">
        <g transform="translate(2.00,-1.40) rotate(22.16) scale(0.920)">
        <g transform="translate(-0.44,-2.45) rotate(28.82) scale(0.900)" mask="url(#maskDynamic)">
        <g transform="translate(-2.77,-3.27) rotate(34.88) scale(0.880)">
        <circle cx="0" cy="0" r="33.2" fill="url(#rgrad4)" filter="url(#shadow)" opacity="0.38"/>
        <text x="0" y="5" text-anchor="middle" font-family="Arial, sans-serif" font-size="14" fill="#FFFFFF" opacity="0.38">93</text>
      </g>
      </g>
      </g>
      </g>
      </g>
      </g>
      </g>
  </g>
  <g transform="translate(952.6, 649.3)">
      <g transform="translate(4.94,-0.63) rotate(1.43) scale(1.000)">
        <g transform="translate(3.96,-1.77) rotate(4.70) scale(0.980)">
        <g transform="translate(2.00,-2.75) rotate(9.54) scale(0.960)">
        <g transform="translate(-0.44,-3.49) rotate(15.53) scale(0.940)">
        <g transform="translate(-2.77,-3.91) rotate(22.16) scale(0.920)">
        <g transform="translate(-4.43,-3.98) rotate(28.82) scale(0.900)">
        <g transform="translate(-5.00,-3.70) rotate(34.88) scale(0.880)">
        <path d="M0.0,-74.9 L22.0,-30.3 L71.2,-23.1 L35.6,11.6 L44.0,60.6 L0.0,37.4 L-44.0,60.6 L-35.6,11.6 L-71.2,-23.1 L-22.0,-30.3Z" fill="url(#rgrad0)" filter="url(#blur0)" opacity="0.50"/>
      </g>
      </g>
      </g>
      </g>
      </g>
      </g>
      </g>
  </g>
  <g transform="translate(1170.1, 637.3)">
      <g transform="translate(2.00,-3.66) rotate(1.43) scale(1.000)">
        <g transform="translate(-0.44,-3.97) rotate(4.70) scale(0.980)">
        <g transform="translate(-2.77,-3.93) rotate(9.54) scale(0.960)">
        <g transform="translate(-4.43,-3.53) rotate(15.53) scale(0.940)" clip-path="url(#clipStar)">
        <g transform="translate(-5.00,-2.82) rotate(22.16) scale(0.920)">
        <g transform="translate(-4.35,-1.86) rotate(28.82) scale(0.900)">
        <g transform="translate(-2.63,-0.73) rotate(34.88) scale(0.880)">
        <rect x="-34.8" y="-34.8" width="69.7" height="69.7" rx="17.4" fill="url(#lgrad1)" filter="url(#shadow)" opacity="0.62"/>
        <circle cx="0" cy="0" r="23.2" fill="url(#rgrad2)" opacity="0.43"/>
      </g>
      </g>
      </g>
      </g>
      </g>
      </g>
      </g>
  </g>
  <g transform="translate(1395.0, 635.9)">
      <g transform="translate(-2.77,-3.33) rotate(1.43) scale(1.000)">
        <g transform="translate(-4.43,-2.53) rotate(4.70) scale(0.980)">
        <g transform="translate(-5.00,-1.50) rotate(9.54) scale(0.960)">
        <g transform="translate(-4.35,-0.33) rotate(15.53) scale(0.940)">
        <g transform="translate(-2.63,0.86) rotate(22.16) scale(0.920)">
        <g transform="translate(-0.27,1.98) rotate(28.82) scale(0.900)" mask="url(#maskStripes)">
        <g transform="translate(2.16,2.92) rotate(34.88) scale(0.880)">
        <path d="M28.9,16.7 L0.0,33.4 L-28.9,16.7 L-28.9,-16.7 L-0.0,-33.4 L28.9,-16.7Z" fill="url(#rgrad2)" filter="url(#blur2)" opacity="0.73"/>
        <ellipse cx="0" cy="0" rx="13.9" ry="9.3" fill="#FFFFFF" opacity="0.36"/>
      </g>
      </g>
      </g>
      </g>
      </g>
      </g>
      </g>
  </g>
  <g transform="translate(1625.9, 645.9)">
      <g transform="translate(-5.00,0.07) rotate(1.43) scale(1.000)">
        <g transform="translate(-4.35,1.25) rotate(4.70) scale(0.980)">
        <g transform="translate(-2.63,2.31) rotate(9.54) scale(0.960)">
        <g transform="translate(-0.27,3.17) rotate(15.53) scale(0.940)">
        <g transform="translate(2.16,3.75) rotate(22.16) scale(0.920)">
        <g transform="translate(4.06,3.99) rotate(28.82) scale(0.900)">
        <g transform="translate(4.96,3.88) rotate(34.88) scale(0.880)">
        <circle cx="0" cy="0" r="22.8" fill="url(#rgrad3)" filter="url(#shadow)" opacity="0.81"/>
        <text x="0" y="5" text-anchor="middle" font-family="Arial, sans-serif" font-size="14" fill="#FFFFFF" opacity="0.81">93</text>
      </g>
      </g>
      </g>
      </g>
      </g>
      </g>
      </g>
  </g>
  <g transform="translate(100.4, 942.5)">
      <g transform="translate(-2.63,3.40) rotate(1.43) scale(1.000)">
        <g transform="translate(-0.27,3.87) rotate(4.70) scale(0.980)">
        <g transform="translate(2.16,4.00) rotate(9.54) scale(0.960)">
        <g transform="translate(4.06,3.76) rotate(15.53) scale(0.940)" clip-path="url(#clipDynamic)">
        <g transform="translate(4.96,3.19) rotate(22.16) scale(0.920)">
        <g transform="translate(4.65,2.34) rotate(28.82) scale(0.900)">
        <g transform="translate(3.20,1.28) rotate(34.88) scale(0.880)">
        <path d="M0.0,-48.8 L14.3,-19.7 L46.4,-15.1 L23.2,7.5 L28.7,39.5 L0.0,24.4 L-28.7,39.5 L-23.2,7.5 L-46.4,-15.1 L-14.3,-19.7Z" fill="url(#lgrad4)" filter="url(#blur4)" opacity="0.87"/>
      </g>
      </g>
      </g>
      </g>
      </g>
      </g>
      </g>
  </g>
  <g transform="translate(354.7, 367.0)" mask="url(#maskGradient)">
    <ellipse cx="0" cy="0" rx="200" ry="150" fill="url(#rgrad0)" filter="url(#blur3)" opacity="0.3"/>
  </g>
  <g transform="translate(900.0, 323.0)" mask="url(#maskCircleFade)">
    <ellipse cx="0" cy="0" rx="200" ry="150" fill="url(#rgrad1)" filter="url(#blur3)" opacity="0.3"/>
  </g>
  <g transform="translate(1353.4, 268.3)" mask="url(#maskStripes)">
    <ellipse cx="0" cy="0" rx="200" ry="150" fill="url(#rgrad2)" filter="url(#blur3)" opacity="0.3"/>
  </g>
</svg>