<?xml version="1.0" encoding="UTF-8"?>
<svg xmlns="http://www.w3.org/2000/svg" viewBox="0 0 1920 1080" width="1920" height="1080">
  <defs>
    <filter id="blur0" x="-50%" y="-50%" width="200%" height="200%">
      <feGaussianBlur in="SourceGraphic" stdDeviation="1"/>
    </filter>
    <filter id="blur1" x="-50%" y="-50%" width="200%" height="200%">
      <feGaussianBlur in="SourceGraphic" stdDeviation="3"/>
    </filter>
    <filter id="blur2" x="-50%" y="-50%" width="200%" height="200%">
      <feGaussianBlur in="SourceGraphic" stdDeviation="5"/>
    </filter>
    <filter id="blur3" x="-50%" y="-50%" width="200%" height="200%">
      <feGaussianBlur in="SourceGraphic" stdDeviation="7"/>
    </filter>
    <filter id="blur4" x="-50%" y="-50%" width="200%" height="200%">
      <feGaussianBlur in="SourceGraphic" stdDeviation="9"/>
    </filter>
    <filter id="shadow" x="-50%" y="-50%" width="200%" height="200%">
      <feGaussianBlur in="SourceAlpha" stdDeviation="3" result="blur"/>
      <feOffset in="blur" dx="4" dy="4" result="offsetBlur"/>
      <feMerge>
        <feMergeNode in="offsetBlur"/>
        <feMergeNode in="SourceGraphic"/>
      </feMerge>
    </filter>
    <linearGradient id="lgrad0" x1="0%" y1="0%" x2="23.1%" y2="7.8%">
      <stop offset="0%" stop-color="#FF6B6B"/>
      <stop offset="33%" stop-color="#4ECDC4"/>
      <stop offset="66%" stop-color="#45B7D1"/>
      <stop offset="100%" stop-color="#96E6A1"/>
    </linearGradient>
    <linearGradient id="lgrad1" x1="0%" y1="0%" x2="47.8%" y2="0.0%">
      <stop offset="0%" stop-color="#FFE66D"/>
      <stop offset="33%" stop-color="#FF6B6B"/>
      <stop offset="66%" stop-color="#C44D58"/>
      <stop offset="100%" stop-color="#8B0000"/>
    </linearGradient>
    <linearGradient id="lgrad2" x1="0%" y1="0%" x2="73.1%" y2="5.6%">
      <stop offset="0%" stop-color="#4169E1"/>
      <stop offset="33%" stop-color="#7B68EE"/>
      <stop offset="66%" stop-color="#9370DB"/>
      <stop offset="100%" stop-color="#FFD700"/>
    </linearGradient>
    <linearGradient id="lgrad3" x1="0%" y1="0%" x2="92.2%" y2="23.1%">
      <stop offset="0%" stop-color="#32CD32"/>
      <stop offset="33%" stop-color="#228B22"/>
      <stop offset="66%" stop-color="#006400"/>
      <stop offset="100%" stop-color="#ADFF2F"/>
    </linearGradient>
    <linearGradient id="lgrad4" x1="0%" y1="0%" x2="100.0%" y2="47.8%">
      <stop offset="0%" stop-color="#FF1493"/>
      <stop offset="33%" stop-color="#FF69B4"/>
      <stop offset="66%" stop-color="#FFB6C1"/>
      <stop offset="100%" stop-color="#FFC0CB"/>
    </linearGradient>
    <radialGradient id="rgrad0" cx="65.5%" cy="67.0%" r="60%">
      <stop offset="0%" stop-color="#FF6B6B" stop-opacity="1"/>
      <stop offset="50%" stop-color="#4ECDC4" stop-opacity="0.8"/>
      <stop offset="100%" stop-color="#45B7D1" stop-opacity="0.6"/>
    </radialGradient>
    <radialGradient id="rgrad1" cx="35.5%" cy="35.0%" r="60%">
      <stop offset="0%" stop-color="#FFE66D" stop-opacity="1"/>
      <stop offset="50%" stop-color="#FF6B6B" stop-opacity="0.8"/>
      <stop offset="100%" stop-color="#C44D58" stop-opacity="0.6"/>
    </radialGradient>
    <radialGradient id="rgrad2" cx="45.5%" cy="43.0%" r="60%">
      <stop offset="0%" stop-color="#4169E1" stop-opacity="1"/>
      <stop offset="50%" stop-color="#7B68EE" stop-opacity="0.8"/>
      <stop offset="100%" stop-color="#9370DB" stop-opacity="0.6"/>
    </radialGradient>
    <radialGradient id="rgrad3" cx="55.5%" cy="51.0%" r="60%">
      <stop offset="0%" stop-color="#32CD32" stop-opacity="1"/>
      <stop offset="50%" stop-color="#228B22" stop-opacity="0.8"/>
      <stop offset="100%" stop-color="#006400" stop-opacity="0.6"/>
    </radialGradient>
    <radialGradient id="rgrad4" cx="65.5%" cy="59.0%" r="60%">
      <stop offset="0%" stop-color="#FF1493" stop-opacity="1"/>
      <stop offset="50%" stop-color="#FF69B4" stop-opacity="0.8"/>
      <stop offset="100%" stop-color="#FFB6C1" stop-opacity="0.6"/>
    </radialGradient>
    <clipPath id="clipCircle">
      <circle cx="0" cy="0" r="50"/>
    </clipPath>
    <clipPath id="clipStar">
      <path d="M0.0,-50.0 L14.7,-20.2 L47.6,-15.5 L23.8,7.7 L29.4,40.5 L0.0,25.0 L-29.4,40.5 L-23.8,7.7 L-47.6,-15.5 L-14.7,-20.2Z"/>
    </clipPath>
    <clipPath id="clipHex">
      <path d="M39.0,22.5 L0.0,45.0 L-39.0,22.5 L-39.0,-22.5 L-0.0,-45.0 L39.0,-22.5Z"/>
    </clipPath>
    <clipPath id="clipRect">
      <rect x="-40" y="-30" width="80" height="60" rx="10"/>
    </clipPath>
    <clipPath id="clipDynamic">
      <circle cx="0" cy="0" r="45.0"/>
    </clipPath>
    <mask id="maskGradient" maskContentUnits="objectBoundingBox">
      <rect x="0" y="0" width="1" height="1" fill="url(#maskGrad)"/>
    </mask>
    <linearGradient id="maskGrad" x1="0%" y1="0%" x2="100%" y2="100%">
      <stop offset="0%" stop-color="white"/>
      <stop offset="100%" stop-color="black"/>
    </linearGradient>
    <mask id="maskCircleFade">
      <circle cx="0" cy="0" r="60" fill="white"/>
      <circle cx="0" cy="0" r="30" fill="black"/>
    </mask>
    <mask id="maskStripes">
      <rect x="-50" y="-50" width="100" height="100" fill="white"/>
      <rect x="-50" y="-40" width="100" height="10" fill="black"/>
      <rect x="-50" y="-20" width="100" height="10" fill="black"/>
      <rect x="-50" y="0" width="100" height="10" fill="black"/>
      <rect x="-50" y="20" width="100" height="10" fill="black"/>
      <rect x="-50" y="40" width="100" height="10" fill="black"/>
    </mask>
    <mask id="maskDynamic">
      <rect x="-60" y="-60" width="120" height="120" fill="white" fill-opacity="0.95"/>
      <circle cx="0" cy="0" r="25" fill="white"/>
    </mask>
  </defs>
  <rect width="1920" height="1080" fill="url(#lgrad0)"/>
  <g transform="translate(119.9, 81.3)">
      <g transform="translate(3.32,-2.99) rotate(4.67) scale(1.000)">
        <g transform="translate(1.12,-3.64) rotate(9.87) scale(0.980)">
        <g transform="translate(-1.35,-3.97) rotate(14.99) scale(0.960)">
        <g transform="translate(-3.49,-3.94) rotate(19.44) scale(0.940)" clip-path="url(#clipCircle)">
        <g transform="translate(-4.78,-3.56) rotate(22.65) scale(0.920)">
        <g transform="translate(-4.90,-2.86) rotate(24.12) scale(0.900)">
        <g transform="translate(-3.82,-1.91) rotate(23.44) scale(0.880)">
        <path d="M0.0,-74.0 L21.8,-29.9 L70.4,-22.9 L35.2,11.4 L43.5,59.9 L0.0,37.0 L-43.5,59.9 L-35.2,11.4 L-70.4,-22.9 L-21.8,-29.9Z" fill="url(#lgrad0)" filter="url(#blur0)" opacity="0.87"/>
      </g>
      </g>
      </g>
      </g>
      </g>
      </g>
      </g>
  </g>
  <g transform="translate(326.7, 75.0)">
      <g transform="translate(-1.35,-3.85) rotate(4.67) scale(1.000)">
        <g transform="translate(-3.49,-3.36) rotate(9.87) scale(0.980)">
        <g transform="translate(-4.78,-2.57) rotate(14.99) scale(0.960)">
        <g transform="translate(-4.90,-1.55) rotate(19.44) scale(0.940)">
        <g transform="translate(-3.82,-0.39) rotate(22.65) scale(0.920)">
        <g transform="translate(-1.80,0.81) rotate(24.12) scale(0.900)" mask="url(#maskCircleFade)">
        <g transform="translate(0.66,1.93) rotate(23.44) scale(0.880)">
        <rect x="-36.0" y="-36.0" width="72.1" height="72.1" rx="18.0" fill="url(#rgrad1)" filter="url(#shadow)" opacity="0.90"/>
        <circle cx="0" cy="0" r="24.0" fill="url(#rgrad2)" opacity="0.63"/>
      </g>
      </g>
      </g>
      </g>
      </g>
      </g>
      </g>
  </g>
  <g transform="translate(531.9, 80.5)">
      <g transform="translate(-4.78,-1.17) rotate(4.67) scale(1.000)">
        <g transform="translate(-4.90,0.01) rotate(9.87) scale(0.980)">
        <g transform="translate(-3.82,1.19) rotate(14.99) scale(0.960)">
        <g transform="translate(-1.80,2.27) rotate(19.44) scale(0.940)">
        <g transform="translate(0.66,3.14) rotate(22.65) scale(0.920)">
        <g transform="translate(2.95,3.73) rotate(24.12) scale(0.900)">
        <g transform="translate(4.53,3.99) rotate(23.44) scale(0.880)">
        <path d="M30.7,17.7 L0.0,35.4 L-30.7,17.7 L-30.7,-17.7 L-0.0,-35.4 L30.7,-17.7Z" fill="url(#rgrad2)" filter="url(#blur2)" opacity="0.89"/>
        <ellipse cx="0" cy="0" rx="14.8" ry="9.8" fill="#FFFFFF" opacity="0.44"/>
      </g>
      </g>
      </g>
      </g>
      </g>
      </g>
      </g>
  </g>
  <g transform="translate(739.0, 95.1)">
      <g transform="translate(-3.82,2.59) rotate(4.67) scale(1.000)">
        <g transform="translate(-1.80,3.37) rotate(9.87) scale(0.980)">
        <g transform="translate(0.66,3.86) rotate(14.99) scale(0.960)">
        <g transform="translate(2.95,4.00) rotate(19.44) scale(0.940)" clip-path="url(#clipRect)">
        <g transform="translate(4.53,3.78) rotate(22.65) scale(0.920)">
        <g transform="translate(4.99,3.23) rotate(24.12) scale(0.900)">
        <g transform="translate(4.23,2.39) rotate(23.44) scale(0.880)">
        <circle cx="0" cy="0" r="23.4" fill="url(#lgrad3)" filter="url(#shadow)" opacity="0.84"/>
        <text x="0" y="5" text-anchor="middle" font-family="Arial, sans-serif" font-size="14" fill="#FFFFFF" opacity="0.84">385</text>
      </g>
      </g>
      </g>
      </g>
      </g>
      </g>
      </g>
  </g>
  <g transform="translate(951.3, 112.0)">
      <g transform="translate(0.66,3.97) rotate(4.67) scale(1.000)">
        <g transform="translate(2.95,3.63) rotate(9.87) scale(0.980)">
        <g transform="translate(4.53,2.98) rotate(14.99) scale(0.960)">
        <g transform="translate(4.99,2.05) rotate(19.44) scale(0.940)">
        <g transform="translate(4.23,0.95) rotate(22.65) scale(0.920)">
        <g transform="translate(2.44,-0.24) rotate(24.12) scale(0.900)" mask="url(#maskGradient)">
        <g transform="translate(0.05,-1.41) rotate(23.44) scale(0.880)">
        <path d="M0.0,-46.8 L13.8,-18.9 L44.5,-14.5 L22.3,7.2 L27.5,37.9 L0.0,23.4 L-27.5,37.9 L-22.3,7.2 L-44.5,-14.5 L-13.8,-18.9Z" fill="url(#rgrad4)" filter="url(#blur4)" opacity="0.77"/>
      </g>
      </g>
      </g>
      </g>
      </g>
      </g>
      </g>
  </g>
  <g transform="translate(1170.6, 123.3)">
      <g transform="translate(4.53,1.70) rotate(4.67) scale(1.000)">
        <g transform="translate(4.99,0.55) rotate(9.87) scale(0.980)">
        <g transform="translate(4.23,-0.64) rotate(14.99) scale(0.960)">
        <g transform="translate(2.44,-1.78) rotate(19.44) scale(0.940)">
        <g transform="translate(0.05,-2.76) rotate(22.65) scale(0.920)">
        <g transform="translate(-2.35,-3.49) rotate(24.12) scale(0.900)">
        <g transform="translate(-4.18,-3.91) rotate(23.44) scale(0.880)">
        <rect x="-29.4" y="-29.4" width="58.9" height="58.9" rx="14.7" fill="url(#rgrad0)" filter="url(#shadow)" opacity="0.67"/>
        <circle cx="0" cy="0" r="19.6" fill="url(#rgrad1)" opacity="0.47"/>
      </g>
      </g>
      </g>
      </g>
      </g>
      </g>
      </g>
  </g>
  <g transform="translate(1397.1, 123.6)">
      <g transform="translate(4.23,-2.13) rotate(4.67) scale(1.000)">
        <g transform="translate(2.44,-3.03) rotate(9.87) scale(0.980)">
        <g transform="translate(0.05,-3.67) rotate(14.99) scale(0.960)">
        <g transform="translate(-2.35,-3.98) rotate(19.44) scale(0.940)" clip-path="url(#clipStar)">
        <g transform="translate(-4.18,-3.93) rotate(22.65) scale(0.920)">
        <g transform="translate(-4.98,-3.53) rotate(24.12) scale(0.900)">
        <g transform="translate(-4.57,-2.81) rotate(23.44) scale(0.880)">
        <path d="M37.4,21.6 L0.0,43.2 L-37.4,21.6 L-37.4,-21.6 L-0.0,-43.2 L37.4,-21.6Z" fill="url(#lgrad1)" filter="url(#blur1)" opacity="0.55"/>
        <ellipse cx="0" cy="0" rx="18.0" ry="12.0" fill="#FFFFFF" opacity="0.28"/>
      </g>
      </g>
      </g>
      </g>
      </g>
      </g>
      </g>
  </g>
  <g transform="translate(1629.2, 112.8)">
      <g transform="translate(0.05,-4.00) rotate(4.67) scale(1.000)">
        <g transform="translate(-2.35,-3.83) rotate(9.87) scale(0.980)">
        <g transform="translate(-4.18,-3.32) rotate(14.99) scale(0.960)">
        <g transform="translate(-4.98,-2.52) rotate(19.44) scale(0.940)">
        <g transform="translate(-4.57,-1.49) rotate(22.65) scale(0.920)">
        <g transform="translate(-3.03,-0.32) rotate(24.12) scale(0.900)" mask="url(#maskDynamic)">
        <g transform="translate(-0.75,0.87) rotate(23.44) scale(0.880)">
        <circle cx="0" cy="0" r="37.0" fill="url(#rgrad2)" filter="url(#shadow)" opacity="0.43"/>
        <text x="0" y="5" text-anchor="middle" font-family="Arial, sans-serif" font-size="14" fill="#FFFFFF" opacity="0.43">385</text>
      </g>
      </g>
      </g>
      </g>
      </g>
      </g>
      </g>
  </g>
  <g transform="translate(103.9, 376.0)">
      <g transform="translate(-4.18,-2.19) rotate(4.67) scale(1.000)">
        <g transform="translate(-4.98,-1.11) rotate(9.87) scale(0.980)">
        <g transform="translate(-4.57,0.08) rotate(14.99) scale(0.960)">
        <g transform="translate(-3.03,1.26) rotate(19.44) scale(0.940)">
        <g transform="translate(-0.75,2.32) rotate(22.65) scale(0.920)">
        <g transform="translate(1.71,3.18) rotate(24.12) scale(0.900)">
        <g transform="translate(3.75,3.76) rotate(23.44) scale(0.880)">
        <path d="M0.0,-63.2 L18.6,-25.6 L60.1,-19.5 L30.1,9.8 L37.2,51.2 L0.0,31.6 L-37.2,51.2 L-30.1,9.8 L-60.1,-19.5 L-18.6,-25.6Z" fill="url(#rgrad3)" filter="url(#blur3)" opacity="0.32"/>
      </g>
      </g>
      </g>
      </g>
      </g>
      </g>
      </g>
  </g>
  <g transform="translate(337.7, 361.0)">
      <g transform="translate(-4.57,1.63) rotate(4.67) scale(1.000)">
        <g transform="translate(-3.03,2.64) rotate(9.87) scale(0.980)">
        <g transform="translate(-0.75,3.41) rotate(14.99) scale(0.960)">
        <g transform="translate(1.71,3.87) rotate(19.44) scale(0.940)" clip-path="url(#clipDynamic)">
        <g transform="translate(3.75,4.00) rotate(22.65) scale(0.920)">
        <g transform="translate(4.88,3.76) rotate(24.12) scale(0.900)">
        <g transform="translate(4.81,3.19) rotate(23.44) scale(0.880)">
        <rect x="-24.7" y="-24.7" width="49.4" height="49.4" rx="12.4" fill="url(#lgrad4)" filter="url(#shadow)" opacity="0.22"/>
        <circle cx="0" cy="0" r="16.5" fill="url(#rgrad0)" opacity="0.16"/>
      </g>
      </g>
      </g>
      </g>
      </g>
      </g>
      </g>
  </g>
  <g transform="translate(567.2, 355.0)">
      <g transform="translate(-0.75,3.95) rotate(4.67) scale(1.000)">
        <g transform="translate(1.71,3.96) rotate(9.87) scale(0.980)">
        <g transform="translate(3.75,3.60) rotate(14.99) scale(0.960)">
        <g transform="translate(4.88,2.93) rotate(19.44) scale(0.940)">
        <g transform="translate(4.81,1.99) rotate(22.65) scale(0.920)">
        <g transform="translate(3.56,0.88) rotate(24.12) scale(0.900)" mask="url(#maskStripes)">
        <g transform="translate(1.44,-0.31) rotate(23.44) scale(0.880)">
        <path d="M23.6,13.6 L0.0,27.2 L-23.6,13.6 L-23.6,-13.6 L-0.0,-27.2 L23.6,-13.6Z" fill="url(#rgrad0)" filter="url(#blur0)" opacity="0.15"/>
        <ellipse cx="0" cy="0" rx="11.3" ry="7.6" fill="#FFFFFF" opacity="0.07"/>
      </g>
      </g>
      </g>
      </g>
      </g>
      </g>
      </g>
  </g>
  <g transform="translate(789.9, 360.7)">
      <g transform="translate(3.75,2.64) rotate(4.67) scale(1.000)">
        <g transform="translate(4.88,1.64) rotate(9.87) scale(0.980)">
        <g transform="translate(4.81,0.49) rotate(14.99) scale(0.960)">
        <g transform="translate(3.56,-0.71) rotate(19.44) scale(0.940)">
        <g transform="translate(1.44,-1.84) rotate(22.65) scale(0.920)">
        <g transform="translate(-1.03,-2.81) rotate(24.12) scale(0.900)">
        <g transform="translate(-3.25,-3.52) rotate(23.44) scale(0.880)">
        <circle cx="0" cy="0" r="27.4" fill="url(#rgrad1)" filter="url(#shadow)" opacity="0.11"/>
        <text x="0" y="5" text-anchor="middle" font-family="Arial, sans-serif" font-size="14" fill="#FFFFFF" opacity="0.11">385</text>
      </g>
      </g>
      </g>
      </g>
      </g>
      </g>
      </g>
  </g>
  <g transform="translate(1005.4, 375.5)">
      <g transform="translate(4.81,-1.10) rotate(4.67) scale(1.000)">
        <g transform="translate(3.56,-2.19) rotate(9.87) scale(0.980)">
        <g transform="translate(1.44,-3.08) rotate(14.99) scale(0.960)">
        <g transform="translate(-1.03,-3.70) rotate(19.44) scale(0.940)" clip-path="url(#clipHex)">
        <g transform="translate(-3.25,-3.98) rotate(22.65) scale(0.920)">
        <g transform="translate(-4.67,-3.91) rotate(24.12) scale(0.900)">
        <g transform="translate(-4.95,-3.50) rotate(23.44) scale(0.880)">
        <path d="M0.0,-69.0 L20.3,-27.9 L65.6,-21.3 L32.8,10.7 L40.5,55.8 L0.0,34.5 L-40.5,55.8 L-32.8,10.7 L-65.6,-21.3 L-20.3,-27.9Z" fill="url(#lgrad2)" filter="url(#blur2)" opacity="0.10"/>
      </g>
      </g>
      </g>
      </g>
      </g>
      </g>
      </g>
  </g>
  <g transform="translate(1214.6, 392.4)">
      <g transform="translate(1.44,-3.83) rotate(4.67) scale(1.000)">
        <g transform="translate(-1.03,-4.00) rotate(9.87) scale(0.980)">
        <g transform="translate(-3.25,-3.81) rotate(14.99) scale(0.960)">
        <g transform="translate(-4.67,-3.29) rotate(19.44) scale(0.940)">
        <g transform="translate(-4.95,-2.46) rotate(22.65) scale(0.920)">
        <g transform="translate(-4.02,-1.42) rotate(24.12) scale(0.900)" mask="url(#maskCircleFade)">
        <g transform="translate(-2.10,-0.25) rotate(23.44) scale(0.880)">
        <rect x="-37.5" y="-37.5" width="75.0" height="75.0" rx="18.7" fill="url(#rgrad3)" filter="url(#shadow)" opacity="0.13"/>
        <circle cx="0" cy="0" r="25.0" fill="url(#rgrad4)" opacity="0.09"/>
      </g>
      </g>
      </g>
      </g>
      </g>
      </g>
      </g>
  </g>
  <g transform="translate(1420.3, 403.5)">
      <g transform="translate(-3.25,-3.04) rotate(4.67) scale(1.000)">
        <g transform="translate(-4.67,-2.14) rotate(9.87) scale(0.980)">
        <g transform="translate(-4.95,-1.04) rotate(14.99) scale(0.960)">
        <g transform="translate(-4.02,0.15) rotate(19.44) scale(0.940)">
        <g transform="translate(-2.10,1.32) rotate(22.65) scale(0.920)">
        <g transform="translate(0.33,2.38) rotate(24.12) scale(0.900)">
        <g transform="translate(2.68,3.22) rotate(23.44) scale(0.880)">
        <path d="M34.9,20.2 L0.0,40.3 L-34.9,20.2 L-34.9,-20.2 L-0.0,-40.3 L34.9,-20.2Z" fill="url(#rgrad4)" filter="url(#blur4)" opacity="0.19"/>
        <ellipse cx="0" cy="0" rx="16.8" ry="11.2" fill="#FFFFFF" opacity="0.10"/>
      </g>
      </g>
      </g>
      </g>
      </g>
      </g>
      </g>
  </g>
  <g transform="translate(1625.9, 403.5)">
      <g transform="translate(-4.95,0.54) rotate(4.67) scale(1.000)">
        <g transform="translate(-4.02,1.69) rotate(9.87) scale(0.980)">
        <g transform="translate(-2.10,2.69) rotate(14.99) scale(0.960)">
        <g transform="translate(0.33,3.44) rotate(19.44) scale(0.940)" clip-path="url(#clipCircle)">
        <g transform="translate(2.68,3.89) rotate(22.65) scale(0.920)">
        <g transform="translate(4.38,3.99) rotate(24.12) scale(0.900)">
        <g transform="translate(5.00,3.74) rotate(23.44) scale(0.880)">
        <circle cx="0" cy="0" r="26.4" fill="url(#lgrad0)" filter="url(#shadow)" opacity="0.28"/>
        <text x="0" y="5" text-anchor="middle" font-family="Arial, sans-serif" font-size="14" fill="#FFFFFF" opacity="0.28">385</text>
      </g>
      </g>
      </g>
      </g>
      </g>
      </g>
      </g>
  </g>
  <g transform="translate(74.9, 672.5)">
      <g transform="translate(-2.10,3.63) rotate(4.67) scale(1.000)">
        <g transform="translate(0.33,3.96) rotate(9.87) scale(0.980)">
        <g transform="translate(2.68,3.95) rotate(14.99) scale(0.960)">
        <g transform="translate(4.38,3.57) rotate(19.44) scale(0.940)">
        <g transform="translate(5.00,2.88) rotate(22.65) scale(0.920)">
        <g transform="translate(4.40,1.94) rotate(24.12) scale(0.900)" mask="url(#maskGradient)">
        <g transform="translate(2.72,0.82) rotate(23.44) scale(0.880)">
        <path d="M0.0,-45.0 L13.2,-18.2 L42.8,-13.9 L21.4,7.0 L26.5,36.4 L0.0,22.5 L-26.5,36.4 L-21.4,7.0 L-42.8,-13.9 L-13.2,-18.2Z" fill="url(#rgrad1)" filter="url(#blur1)" opacity="0.39"/>
      </g>
      </g>
      </g>
      </g>
      </g>
      </g>
      </g>
  </g>
  <g transform="translate(290.1, 655.6)">
      <g transform="translate(2.68,3.38) rotate(4.67) scale(1.000)">
        <g transform="translate(4.38,2.59) rotate(9.87) scale(0.980)">
        <g transform="translate(5.00,1.58) rotate(14.99) scale(0.960)">
        <g transform="translate(4.40,0.42) rotate(19.44) scale(0.940)">
        <g transform="translate(2.72,-0.77) rotate(22.65) scale(0.920)">
        <g transform="translate(0.38,-1.90) rotate(24.12) scale(0.900)">
        <g transform="translate(-2.06,-2.85) rotate(23.44) scale(0.880)">
        <rect x="-25.5" y="-25.5" width="51.0" height="51.0" rx="12.8" fill="url(#rgrad2)" filter="url(#shadow)" opacity="0.51"/>
        <circle cx="0" cy="0" r="17.0" fill="url(#rgrad3)" opacity="0.36"/>
      </g>
      </g>
      </g>
      </g>
      </g>
      </g>
      </g>
  </g>
  <g transform="translate(512.6, 640.8)">
      <g transform="translate(5.00,0.02) rotate(4.67) scale(1.000)">
        <g transform="translate(4.40,-1.16) rotate(9.87) scale(0.980)">
        <g transform="translate(2.72,-2.24) rotate(14.99) scale(0.960)">
        <g transform="translate(0.38,-3.12) rotate(19.44) scale(0.940)" clip-path="url(#clipRect)">
        <g transform="translate(-2.06,-3.72) rotate(22.65) scale(0.920)">
        <g transform="translate(-3.99,-3.99) rotate(24.12) scale(0.900)">
        <g transform="translate(-4.95,-3.90) rotate(23.44) scale(0.880)">
        <path d="M33.9,19.6 L0.0,39.2 L-33.9,19.6 L-33.9,-19.6 L-0.0,-39.2 L33.9,-19.6Z" fill="url(#lgrad3)" filter="url(#blur3)" opacity="0.63"/>
        <ellipse cx="0" cy="0" rx="16.3" ry="10.9" fill="#FFFFFF" opacity="0.31"/>
      </g>
      </g>
      </g>
      </g>
      </g>
      </g>
      </g>
  </g>
  <g transform="translate(741.8, 635.0)">
      <g transform="translate(2.72,-3.35) rotate(4.67) scale(1.000)">
        <g transform="translate(0.38,-3.85) rotate(9.87) scale(0.980)">
        <g transform="translate(-2.06,-4.00) rotate(14.99) scale(0.960)">
        <g transform="translate(-3.99,-3.79) rotate(19.44) scale(0.940)">
        <g transform="translate(-4.95,-3.25) rotate(22.65) scale(0.920)">
        <g transform="translate(-4.69,-2.41) rotate(24.12) scale(0.900)" mask="url(#maskDynamic)">
        <g transform="translate(-3.29,-1.36) rotate(23.44) scale(0.880)">
        <circle cx="0" cy="0" r="37.3" fill="url(#rgrad4)" filter="url(#shadow)" opacity="0.73"/>
        <text x="0" y="5" text-anchor="middle" font-family="Arial, sans-serif" font-size="14" fill="#FFFFFF" opacity="0.73">385</text>
      </g>
      </g>
      </g>
      </g>
      </g>
      </g>
      </g>
  </g>
  <g transform="translate(975.5, 641.0)">
      <g transform="translate(-2.06,-3.65) rotate(4.67) scale(1.000)">
        <g transform="translate(-3.99,-3.00) rotate(9.87) scale(0.980)">
        <g transform="translate(-4.95,-2.08) rotate(14.99) scale(0.960)">
        <g transform="translate(-4.69,-0.98) rotate(19.44) scale(0.940)">
        <g transform="translate(-3.29,0.21) rotate(22.65) scale(0.920)">
        <g transform="translate(-1.08,1.38) rotate(24.12) scale(0.900)">
        <g transform="translate(1.39,2.43) rotate(23.44) scale(0.880)">
        <path d="M0.0,-70.6 L20.7,-28.6 L67.1,-21.8 L33.6,10.9 L41.5,57.1 L0.0,35.3 L-41.5,57.1 L-33.6,10.9 L-67.1,-21.8 L-20.7,-28.6Z" fill="url(#rgrad0)" filter="url(#blur0)" opacity="0.82"/>
      </g>
      </g>
      </g>
      </g>
      </g>
      </g>
      </g>
  </g>
  <g transform="translate(1210.3, 655.9)">
      <g transform="translate(-4.95,-0.59) rotate(4.67) scale(1.000)">
        <g transform="translate(-4.69,0.61) rotate(9.87) scale(0.980)">
        <g transform="translate(-3.29,1.75) rotate(14.99) scale(0.960)">
        <g transform="translate(-1.08,2.74) rotate(19.44) scale(0.940)" clip-path="url(#clipStar)">
        <g transform="translate(1.39,3.48) rotate(22.65) scale(0.920)">
        <g transform="translate(3.52,3.91) rotate(24.12) scale(0.900)">
        <g transform="translate(4.79,3.99) rotate(23.44) scale(0.880)">
        <rect x="-28.4" y="-28.4" width="56.8" height="56.8" rx="14.2" fill="url(#lgrad1)" filter="url(#shadow)" opacity="0.88"/>
        <circle cx="0" cy="0" r="18.9" fill="url(#rgrad2)" opacity="0.61"/>
      </g>
      </g>
      </g>
      </g>
      </g>
      </g>
      </g>
  </g>
  <g transform="translate(1442.5, 672.8)">
      <g transform="translate(-3.29,3.01) rotate(4.67) scale(1.000)">
        <g transform="translate(-1.08,3.66) rotate(9.87) scale(0.980)">
        <g transform="translate(1.39,3.97) rotate(14.99) scale(0.960)">
        <g transform="translate(3.52,3.93) rotate(19.44) scale(0.940)">
        <g transform="translate(4.79,3.54) rotate(22.65) scale(0.920)">
        <g transform="translate(4.89,2.84) rotate(24.12) scale(0.900)" mask="url(#maskStripes)">
        <g transform="translate(3.79,1.88) rotate(23.44) scale(0.880)">
        <path d="M23.9,13.8 L0.0,27.6 L-23.9,13.8 L-23.9,-13.8 L-0.0,-27.6 L23.9,-13.8Z" fill="url(#rgrad2)" filter="url(#blur2)" opacity="0.90"/>
        <ellipse cx="0" cy="0" rx="11.5" ry="7.7" fill="#FFFFFF" opacity="0.45"/>
      </g>
      </g>
      </g>
      </g>
      </g>
      </g>
      </g>
  </g>
  <g transform="translate(1669.3, 683.6)">
      <g transform="translate(1.39,3.84) rotate(4.67) scale(1.000)">
        <g transform="translate(3.52,3.34) rotate(9.87) scale(0.980)">
        <g transform="translate(4.79,2.54) rotate(14.99) scale(0.960)">
        <g transform="translate(4.89,1.51) rotate(19.44) scale(0.940)">
        <g transform="translate(3.79,0.35) rotate(22.65) scale(0.920)">
        <g transform="translate(1.76,-0.84) rotate(24.12) scale(0.900)">
        <g transform="translate(-0.70,-1.96) rotate(23.44) scale(0.880)">
        <circle cx="0" cy="0" r="24.0" fill="url(#rgrad3)" filter="url(#shadow)" opacity="0.89"/>
        <text x="0" y="5" text-anchor="middle" font-family="Arial, sans-serif" font-size="14" fill="#FFFFFF" opacity="0.89">385</text>
      </g>
      </g>
      </g>
      </g>
      </g>
      </g>
      </g>
  </g>
  <g transform="translate(128.8, 963.3)">
      <g transform="translate(4.79,1.14) rotate(4.67) scale(1.000)">
        <g transform="translate(4.89,-0.05) rotate(9.87) scale(0.980)">
        <g transform="translate(3.79,-1.23) rotate(14.99) scale(0.960)">
        <g transform="translate(1.76,-2.30) rotate(19.44) scale(0.940)" clip-path="url(#clipDynamic)">
        <g transform="translate(-0.70,-3.16) rotate(22.65) scale(0.920)">
        <g transform="translate(-2.99,-3.74) rotate(24.12) scale(0.900)">
        <g transform="translate(-4.54,-3.99) rotate(23.44) scale(0.880)">
        <path d="M0.0,-61.1 L18.0,-24.7 L58.1,-18.9 L29.1,9.4 L35.9,49.4 L0.0,30.6 L-35.9,49.4 L-29.1,9.4 L-58.1,-18.9 L-18.0,-24.7Z" fill="url(#lgrad4)" filter="url(#blur4)" opacity="0.84"/>
      </g>
      </g>
      </g>
      </g>
      </g>
      </g>
      </g>
  </g>
  <g transform="translate(366.4, 240.2)" mask="url(#maskGradient)">
    <ellipse cx="0" cy="0" rx="200" ry="150" fill="url(#rgrad0)" filter="url(#blur3)" opacity="0.3"/>
  </g>
  <g transform="translate(773.0, 220.0)" mask="url(#maskCircleFade)">
    <ellipse cx="0" cy="0" rx="200" ry="150" fill="url(#rgrad1)" filter="url(#blur3)" opacity="0.3"/>
  </g>
  <g transform="translate(1204.4, 237.5)" mask="url(#maskStripes)">
    <ellipse cx="0" cy="0" rx="200" ry="150" fill="url(#rgrad2)" filter="url(#blur3)" opacity="0.3"/>
  </g>
</svg>