<?xml version="1.0" encoding="UTF-8"?>
<svg xmlns="http://www.w3.org/2000/svg" viewBox="0 0 1920 1080" width="1920" height="1080">
  <defs>
    <filter id="blur0" x="-50%" y="-50%" width="200%" height="200%">
      <feGaussianBlur in="SourceGraphic" stdDeviation="1"/>
    </filter>
    <filter id="blur1" x="-50%" y="-50%" width="200%" height="200%">
      <feGaussianBlur in="SourceGraphic" stdDeviation="3"/>
    </filter>
    <filter id="blur2" x="-50%" y="-50%" width="200%" height="200%">
      <feGaussianBlur in="SourceGraphic" stdDeviation="5"/>
    </filter>
    <filter id="blur3" x="-50%" y="-50%" width="200%" height="200%">
      <feGaussianBlur in="SourceGraphic" stdDeviation="7"/>
    </filter>
    <filter id="blur4" x="-50%" y="-50%" width="200%" height="200%">
      <feGaussianBlur in="SourceGraphic" stdDeviation="9"/>
    </filter>
    <filter id="shadow" x="-50%" y="-50%" width="200%" height="200%">
      <feGaussianBlur in="SourceAlpha" stdDeviation="3" result="blur"/>
      <feOffset in="blur" dx="4" dy="4" result="offsetBlur"/>
      <feMerge>
        <feMergeNode in="offsetBlur"/>
        <feMergeNode in="SourceGraphic"/>
      </feMerge>
    </filter>
    <linearGradient id="lgrad0" x1="0%" y1="0%" x2="93.9%" y2="73.9%">
      <stop offset="0%" stop-color="#FF6B6B"/>
      <stop offset="33%" stop-color="#4ECDC4"/>
      <stop offset="66%" stop-color="#45B7D1"/>
      <stop offset="100%" stop-color="#96E6A1"/>
    </linearGradient>
    <linearGradient id="lgrad1" x1="0%" y1="0%" x2="76.1%" y2="92.6%">
      <stop offset="0%" stop-color="#FFE66D"/>
      <stop offset="33%" stop-color="#FF6B6B"/>
      <stop offset="66%" stop-color="#C44D58"/>
      <stop offset="100%" stop-color="#8B0000"/>
    </linearGradient>
    <linearGradient id="lgrad2" x1="0%" y1="0%" x2="51.3%" y2="100.0%">
      <stop offset="0%" stop-color="#4169E1"/>
      <stop offset="33%" stop-color="#7B68EE"/>
      <stop offset="66%" stop-color="#9370DB"/>
      <stop offset="100%" stop-color="#FFD700"/>
    </linearGradient>
    <linearGradient id="lgrad3" x1="0%" y1="0%" x2="26.1%" y2="93.9%">
      <stop offset="0%" stop-color="#32CD32"/>
      <stop offset="33%" stop-color="#228B22"/>
      <stop offset="66%" stop-color="#006400"/>
      <stop offset="100%" stop-color="#ADFF2F"/>
    </linearGradient>
    <linearGradient id="lgrad4" x1="0%" y1="0%" x2="7.4%" y2="76.1%">
      <stop offset="0%" stop-color="#FF1493"/>
      <stop offset="33%" stop-color="#FF69B4"/>
      <stop offset="66%" stop-color="#FFB6C1"/>
      <stop offset="100%" stop-color="#FFC0CB"/>
    </linearGradient>
    <radialGradient id="rgrad0" cx="36.1%" cy="47.4%" r="60%">
      <stop offset="0%" stop-color="#FF6B6B" stop-opacity="1"/>
      <stop offset="50%" stop-color="#4ECDC4" stop-opacity="0.8"/>
      <stop offset="100%" stop-color="#45B7D1" stop-opacity="0.6"/>
    </radialGradient>
    <radialGradient id="rgrad1" cx="46.1%" cy="55.4%" r="60%">
      <stop offset="0%" stop-color="#FFE66D" stop-opacity="1"/>
      <stop offset="50%" stop-color="#FF6B6B" stop-opacity="0.8"/>
      <stop offset="100%" stop-color="#C44D58" stop-opacity="0.6"/>
    </radialGradient>
    <radialGradient id="rgrad2" cx="56.1%" cy="63.4%" r="60%">
      <stop offset="0%" stop-color="#4169E1" stop-opacity="1"/>
      <stop offset="50%" stop-color="#7B68EE" stop-opacity="0.8"/>
      <stop offset="100%" stop-color="#9370DB" stop-opacity="0.6"/>
    </radialGradient>
    <radialGradient id="rgrad3" cx="66.1%" cy="31.4%" r="60%">
      <stop offset="0%" stop-color="#32CD32" stop-opacity="1"/>
      <stop offset="50%" stop-color="#228B22" stop-opacity="0.8"/>
      <stop offset="100%" stop-color="#006400" stop-opacity="0.6"/>
    </radialGradient>
    <radialGradient id="rgrad4" cx="36.1%" cy="39.4%" r="60%">
      <stop offset="0%" stop-color="#FF1493" stop-opacity="1"/>
      <stop offset="50%" stop-color="#FF69B4" stop-opacity="0.8"/>
      <stop offset="100%" stop-color="#FFB6C1" stop-opacity="0.6"/>
    </radialGradient>
    <clipPath id="clipCircle">
      <circle cx="0" cy="0" r="50"/>
    </clipPath>
    <clipPath id="clipStar">
      <path d="M0.0,-50.0 L14.7,-20.2 L47.6,-15.5 L23.8,7.7 L29.4,40.5 L0.0,25.0 L-29.4,40.5 L-23.8,7.7 L-47.6,-15.5 L-14.7,-20.2Z"/>
    </clipPath>
    <clipPath id="clipHex">
      <path d="M39.0,22.5 L0.0,45.0 L-39.0,22.5 L-39.0,-22.5 L-0.0,-45.0 L39.0,-22.5Z"/>
    </clipPath>
    <clipPath id="clipRect">
      <rect x="-40" y="-30" width="80" height="60" rx="10"/>
    </clipPath>
    <clipPath id="clipDynamic">
      <circle cx="0" cy="0" r="21.2"/>
    </clipPath>
    <mask id="maskGradient" maskContentUnits="objectBoundingBox">
      <rect x="0" y="0" width="1" height="1" fill="url(#maskGrad)"/>
    </mask>
    <linearGradient id="maskGrad" x1="0%" y1="0%" x2="100%" y2="100%">
      <stop offset="0%" stop-color="white"/>
      <stop offset="100%" stop-color="black"/>
    </linearGradient>
    <mask id="maskCircleFade">
      <circle cx="0" cy="0" r="60" fill="white"/>
      <circle cx="0" cy="0" r="30" fill="black"/>
    </mask>
    <mask id="maskStripes">
      <rect x="-50" y="-50" width="100" height="100" fill="white"/>
      <rect x="-50" y="-40" width="100" height="10" fill="black"/>
      <rect x="-50" y="-20" width="100" height="10" fill="black"/>
      <rect x="-50" y="0" width="100" height="10" fill="black"/>
      <rect x="-50" y="20" width="100" height="10" fill="black"/>
      <rect x="-50" y="40" width="100" height="10" fill="black"/>
    </mask>
    <mask id="maskDynamic">
      <rect x="-60" y="-60" width="120" height="120" fill="white" fill-opacity="0.88"/>
      <circle cx="0" cy="0" r="25" fill="white"/>
    </mask>
  </defs>
  <rect width="1920" height="1080" fill="url(#lgrad0)"/>
  <g transform="translate(72.3, 90.3)">
      <g transform="translate(-4.61,-1.55) rotate(4.16) scale(1.000)">
        <g transform="translate(-4.97,-0.39) rotate(7.06) scale(0.980)">
        <g transform="translate(-4.12,0.80) rotate(8.27) scale(0.960)">
        <g transform="translate(-2.26,1.93) rotate(7.50) scale(0.940)" clip-path="url(#clipCircle)">
        <g transform="translate(0.16,2.88) rotate(4.58) scale(0.920)">
        <g transform="translate(2.53,3.57) rotate(-0.47) scale(0.900)">
        <g transform="translate(4.29,3.94) rotate(-7.49) scale(0.880)">
        <path d="M0.0,-72.5 L21.3,-29.3 L68.9,-22.4 L34.5,11.2 L42.6,58.6 L0.0,36.2 L-42.6,58.6 L-34.5,11.2 L-68.9,-22.4 L-21.3,-29.3Z" fill="url(#lgrad0)" filter="url(#blur0)" opacity="0.83"/>
      </g>
      </g>
      </g>
      </g>
      </g>
      </g>
      </g>
  </g>
  <g transform="translate(290.2, 107.4)">
      <g transform="translate(-4.12,2.27) rotate(4.16) scale(1.000)">
        <g transform="translate(-2.26,3.14) rotate(7.06) scale(0.980)">
        <g transform="translate(0.16,3.73) rotate(8.27) scale(0.960)">
        <g transform="translate(2.53,3.99) rotate(7.50) scale(0.940)">
        <g transform="translate(4.29,3.89) rotate(4.58) scale(0.920)">
        <g transform="translate(5.00,3.45) rotate(-0.47) scale(0.900)" mask="url(#maskCircleFade)">
        <g transform="translate(4.48,2.70) rotate(-7.49) scale(0.880)">
        <rect x="-29.9" y="-29.9" width="59.8" height="59.8" rx="14.9" fill="url(#rgrad1)" filter="url(#shadow)" opacity="0.75"/>
        <circle cx="0" cy="0" r="19.9" fill="url(#rgrad2)" opacity="0.53"/>
      </g>
      </g>
      </g>
      </g>
      </g>
      </g>
      </g>
  </g>
  <g transform="translate(515.3, 121.1)">
      <g transform="translate(0.16,4.00) rotate(4.16) scale(1.000)">
        <g transform="translate(2.53,3.78) rotate(7.06) scale(0.980)">
        <g transform="translate(4.29,3.23) rotate(8.27) scale(0.960)">
        <g transform="translate(5.00,2.39) rotate(7.50) scale(0.940)">
        <g transform="translate(4.48,1.33) rotate(4.58) scale(0.920)">
        <g transform="translate(2.87,0.16) rotate(-0.47) scale(0.900)">
        <g transform="translate(0.55,-1.03) rotate(-7.49) scale(0.880)">
        <path d="M24.6,14.2 L0.0,28.4 L-24.6,14.2 L-24.6,-14.2 L-0.0,-28.4 L24.6,-14.2Z" fill="url(#rgrad2)" filter="url(#blur2)" opacity="0.65"/>
        <ellipse cx="0" cy="0" rx="11.8" ry="7.9" fill="#FFFFFF" opacity="0.32"/>
      </g>
      </g>
      </g>
      </g>
      </g>
      </g>
      </g>
  </g>
  <g transform="translate(746.5, 124.8)">
      <g transform="translate(4.29,2.05) rotate(4.16) scale(1.000)">
        <g transform="translate(5.00,0.95) rotate(7.06) scale(0.980)">
        <g transform="translate(4.48,-0.24) rotate(8.27) scale(0.960)">
        <g transform="translate(2.87,-1.41) rotate(7.50) scale(0.940)" clip-path="url(#clipRect)">
        <g transform="translate(0.55,-2.45) rotate(4.58) scale(0.920)">
        <g transform="translate(-1.90,-3.28) rotate(-0.47) scale(0.900)">
        <g transform="translate(-3.88,-3.81) rotate(-7.49) scale(0.880)">
        <circle cx="0" cy="0" r="23.2" fill="url(#lgrad3)" filter="url(#shadow)" opacity="0.53"/>
        <text x="0" y="5" text-anchor="middle" font-family="Arial, sans-serif" font-size="14" fill="#FFFFFF" opacity="0.53">687</text>
      </g>
      </g>
      </g>
      </g>
      </g>
      </g>
      </g>
  </g>
  <g transform="translate(980.9, 116.8)">
      <g transform="translate(4.48,-1.78) rotate(4.16) scale(1.000)">
        <g transform="translate(2.87,-2.76) rotate(7.06) scale(0.980)">
        <g transform="translate(0.55,-3.49) rotate(8.27) scale(0.960)">
        <g transform="translate(-1.90,-3.91) rotate(7.50) scale(0.940)">
        <g transform="translate(-3.88,-3.98) rotate(4.58) scale(0.920)">
        <g transform="translate(-4.92,-3.70) rotate(-0.47) scale(0.900)" mask="url(#maskGradient)">
        <g transform="translate(-4.75,-3.09) rotate(-7.49) scale(0.880)">
        <path d="M0.0,-58.1 L17.1,-23.5 L55.3,-18.0 L27.6,9.0 L34.2,47.0 L0.0,29.1 L-34.2,47.0 L-27.6,9.0 L-55.3,-18.0 L-17.1,-23.5Z" fill="url(#rgrad4)" filter="url(#blur4)" opacity="0.41"/>
      </g>
      </g>
      </g>
      </g>
      </g>
      </g>
      </g>
  </g>
  <g transform="translate(1215.2, 101.0)">
      <g transform="translate(0.55,-3.98) rotate(4.16) scale(1.000)">
        <g transform="translate(-1.90,-3.93) rotate(7.06) scale(0.980)">
        <g transform="translate(-3.88,-3.53) rotate(8.27) scale(0.960)">
        <g transform="translate(-4.92,-2.82) rotate(7.50) scale(0.940)">
        <g transform="translate(-4.75,-1.85) rotate(4.58) scale(0.920)">
        <g transform="translate(-3.41,-0.72) rotate(-0.47) scale(0.900)">
        <g transform="translate(-1.25,0.47) rotate(-7.49) scale(0.880)">
        <rect x="-35.8" y="-35.8" width="71.5" height="71.5" rx="17.9" fill="url(#rgrad0)" filter="url(#shadow)" opacity="0.30"/>
        <circle cx="0" cy="0" r="23.8" fill="url(#rgrad1)" opacity="0.21"/>
      </g>
      </g>
      </g>
      </g>
      </g>
      </g>
      </g>
  </g>
  <g transform="translate(1445.7, 84.7)">
      <g transform="translate(-3.88,-2.52) rotate(4.16) scale(1.000)">
        <g transform="translate(-4.92,-1.49) rotate(7.06) scale(0.980)">
        <g transform="translate(-4.75,-0.32) rotate(8.27) scale(0.960)">
        <g transform="translate(-3.41,0.87) rotate(7.50) scale(0.940)" clip-path="url(#clipStar)">
        <g transform="translate(-1.25,1.98) rotate(4.58) scale(0.920)">
        <g transform="translate(1.23,2.92) rotate(-0.47) scale(0.900)">
        <g transform="translate(3.40,3.60) rotate(-7.49) scale(0.880)">
        <path d="M38.6,22.3 L0.0,44.6 L-38.6,22.3 L-38.6,-22.3 L-0.0,-44.6 L38.6,-22.3Z" fill="url(#lgrad1)" filter="url(#blur1)" opacity="0.21"/>
        <ellipse cx="0" cy="0" rx="18.6" ry="12.4" fill="#FFFFFF" opacity="0.10"/>
      </g>
      </g>
      </g>
      </g>
      </g>
      </g>
      </g>
  </g>
  <g transform="translate(1670.0, 75.6)">
      <g transform="translate(-4.75,1.25) rotate(4.16) scale(1.000)">
        <g transform="translate(-3.41,2.32) rotate(7.06) scale(0.980)">
        <g transform="translate(-1.25,3.18) rotate(8.27) scale(0.960)">
        <g transform="translate(1.23,3.76) rotate(7.50) scale(0.940)">
        <g transform="translate(3.40,3.99) rotate(4.58) scale(0.920)">
        <g transform="translate(4.74,3.88) rotate(-0.47) scale(0.900)" mask="url(#maskDynamic)">
        <g transform="translate(4.92,3.41) rotate(-7.49) scale(0.880)">
        <circle cx="0" cy="0" r="32.0" fill="url(#rgrad2)" filter="url(#shadow)" opacity="0.14"/>
        <text x="0" y="5" text-anchor="middle" font-family="Arial, sans-serif" font-size="14" fill="#FFFFFF" opacity="0.14">687</text>
      </g>
      </g>
      </g>
      </g>
      </g>
      </g>
      </g>
  </g>
  <g transform="translate(126.9, 357.9)">
      <g transform="translate(-1.25,3.87) rotate(4.16) scale(1.000)">
        <g transform="translate(1.23,4.00) rotate(7.06) scale(0.980)">
        <g transform="translate(3.40,3.76) rotate(8.27) scale(0.960)">
        <g transform="translate(4.74,3.19) rotate(7.50) scale(0.940)">
        <g transform="translate(4.92,2.33) rotate(4.58) scale(0.920)">
        <g transform="translate(3.90,1.27) rotate(-0.47) scale(0.900)">
        <g transform="translate(1.92,0.09) rotate(-7.49) scale(0.880)">
        <path d="M0.0,-50.0 L14.7,-20.2 L47.5,-15.4 L23.8,7.7 L29.4,40.4 L0.0,25.0 L-29.4,40.4 L-23.8,7.7 L-47.5,-15.4 L-14.7,-20.2Z" fill="url(#rgrad3)" filter="url(#blur3)" opacity="0.10"/>
      </g>
      </g>
      </g>
      </g>
      </g>
      </g>
      </g>
  </g>
  <g transform="translate(337.2, 370.7)">
      <g transform="translate(3.40,2.93) rotate(4.16) scale(1.000)">
        <g transform="translate(4.74,2.00) rotate(7.06) scale(0.980)">
        <g transform="translate(4.92,0.88) rotate(8.27) scale(0.960)">
        <g transform="translate(3.90,-0.31) rotate(7.50) scale(0.940)" clip-path="url(#clipDynamic)">
        <g transform="translate(1.92,-1.47) rotate(4.58) scale(0.920)">
        <g transform="translate(-0.53,-2.51) rotate(-0.47) scale(0.900)">
        <g transform="translate(-2.85,-3.32) rotate(-7.49) scale(0.880)">
        <rect x="-22.6" y="-22.6" width="45.2" height="45.2" rx="11.3" fill="url(#lgrad4)" filter="url(#shadow)" opacity="0.10"/>
        <circle cx="0" cy="0" r="15.1" fill="url(#rgrad0)" opacity="0.07"/>
      </g>
      </g>
      </g>
      </g>
      </g>
      </g>
      </g>
  </g>
  <g transform="translate(543.3, 387.8)">
      <g transform="translate(4.92,-0.71) rotate(4.16) scale(1.000)">
        <g transform="translate(3.90,-1.84) rotate(7.06) scale(0.980)">
        <g transform="translate(1.92,-2.81) rotate(8.27) scale(0.960)">
        <g transform="translate(-0.53,-3.52) rotate(7.50) scale(0.940)">
        <g transform="translate(-2.85,-3.93) rotate(4.58) scale(0.920)">
        <g transform="translate(-4.47,-3.98) rotate(-0.47) scale(0.900)" mask="url(#maskStripes)">
        <g transform="translate(-5.00,-3.67) rotate(-7.49) scale(0.880)">
        <path d="M28.1,16.2 L0.0,32.4 L-28.1,16.2 L-28.1,-16.2 L-0.0,-32.4 L28.1,-16.2Z" fill="url(#rgrad0)" filter="url(#blur0)" opacity="0.14"/>
        <ellipse cx="0" cy="0" rx="13.5" ry="9.0" fill="#FFFFFF" opacity="0.07"/>
      </g>
      </g>
      </g>
      </g>
      </g>
      </g>
      </g>
  </g>
  <g transform="translate(748.6, 401.3)">
      <g transform="translate(1.92,-3.69) rotate(4.16) scale(1.000)">
        <g transform="translate(-0.53,-3.98) rotate(7.06) scale(0.980)">
        <g transform="translate(-2.85,-3.91) rotate(8.27) scale(0.960)">
        <g transform="translate(-4.47,-3.50) rotate(7.50) scale(0.940)">
        <g transform="translate(-5.00,-2.77) rotate(4.58) scale(0.920)">
        <g transform="translate(-4.30,-1.79) rotate(-0.47) scale(0.900)">
        <g transform="translate(-2.55,-0.65) rotate(-7.49) scale(0.880)">
        <circle cx="0" cy="0" r="34.2" fill="url(#rgrad1)" filter="url(#shadow)" opacity="0.21"/>
        <text x="0" y="5" text-anchor="middle" font-family="Arial, sans-serif" font-size="14" fill="#FFFFFF" opacity="0.21">687</text>
      </g>
      </g>
      </g>
      </g>
      </g>
      </g>
      </g>
  </g>
  <g transform="translate(956.7, 404.7)">
      <g transform="translate(-2.85,-3.29) rotate(4.16) scale(1.000)">
        <g transform="translate(-4.47,-2.47) rotate(7.06) scale(0.980)">
        <g transform="translate(-5.00,-1.42) rotate(8.27) scale(0.960)">
        <g transform="translate(-4.30,-0.26) rotate(7.50) scale(0.940)" clip-path="url(#clipHex)">
        <g transform="translate(-2.55,0.93) rotate(4.58) scale(0.920)">
        <g transform="translate(-0.17,2.04) rotate(-0.47) scale(0.900)">
        <g transform="translate(2.24,2.97) rotate(-7.49) scale(0.880)">
        <path d="M0.0,-75.0 L22.0,-30.3 L71.3,-23.2 L35.7,11.6 L44.1,60.7 L0.0,37.5 L-44.1,60.7 L-35.7,11.6 L-71.3,-23.2 L-22.0,-30.3Z" fill="url(#lgrad2)" filter="url(#blur2)" opacity="0.30"/>
      </g>
      </g>
      </g>
      </g>
      </g>
      </g>
      </g>
  </g>
  <g transform="translate(1170.5, 396.5)">
      <g transform="translate(-5.00,0.14) rotate(4.16) scale(1.000)">
        <g transform="translate(-4.30,1.32) rotate(7.06) scale(0.980)">
        <g transform="translate(-2.55,2.38) rotate(8.27) scale(0.960)">
        <g transform="translate(-0.17,3.22) rotate(7.50) scale(0.940)">
        <g transform="translate(2.24,3.78) rotate(4.58) scale(0.920)">
        <g transform="translate(4.11,4.00) rotate(-0.47) scale(0.900)" mask="url(#maskCircleFade)">
        <g transform="translate(4.97,3.86) rotate(-7.49) scale(0.880)">
        <rect x="-33.9" y="-33.9" width="67.8" height="67.8" rx="17.0" fill="url(#rgrad3)" filter="url(#shadow)" opacity="0.41"/>
        <circle cx="0" cy="0" r="22.6" fill="url(#rgrad4)" opacity="0.29"/>
      </g>
      </g>
      </g>
      </g>
      </g>
      </g>
      </g>
  </g>
  <g transform="translate(1391.5, 380.6)">
      <g transform="translate(-2.55,3.44) rotate(4.16) scale(1.000)">
        <g transform="translate(-0.17,3.89) rotate(7.06) scale(0.980)">
        <g transform="translate(2.24,3.99) rotate(8.27) scale(0.960)">
        <g transform="translate(4.11,3.74) rotate(7.50) scale(0.940)">
        <g transform="translate(4.97,3.15) rotate(4.58) scale(0.920)">
        <g transform="translate(4.62,2.28) rotate(-0.47) scale(0.900)">
        <g transform="translate(3.13,1.20) rotate(-7.49) scale(0.880)">
        <path d="M27.8,16.0 L0.0,32.1 L-27.8,16.0 L-27.8,-16.0 L-0.0,-32.1 L27.8,-16.0Z" fill="url(#rgrad4)" filter="url(#blur4)" opacity="0.53"/>
        <ellipse cx="0" cy="0" rx="13.4" ry="8.9" fill="#FFFFFF" opacity="0.26"/>
      </g>
      </g>
      </g>
      </g>
      </g>
      </g>
      </g>
  </g>
  <g transform="translate(1619.5, 364.3)">
      <g transform="translate(2.24,3.58) rotate(4.16) scale(1.000)">
        <g transform="translate(4.11,2.89) rotate(7.06) scale(0.980)">
        <g transform="translate(4.97,1.94) rotate(8.27) scale(0.960)">
        <g transform="translate(4.62,0.82) rotate(7.50) scale(0.940)" clip-path="url(#clipCircle)">
        <g transform="translate(3.13,-0.38) rotate(4.58) scale(0.920)">
        <g transform="translate(0.88,-1.54) rotate(-0.47) scale(0.900)">
        <g transform="translate(-1.59,-2.56) rotate(-7.49) scale(0.880)">
        <circle cx="0" cy="0" r="22.6" fill="url(#lgrad0)" filter="url(#shadow)" opacity="0.65"/>
        <text x="0" y="5" text-anchor="middle" font-family="Arial, sans-serif" font-size="14" fill="#FFFFFF" opacity="0.65">687</text>
      </g>
      </g>
      </g>
      </g>
      </g>
      </g>
      </g>
  </g>
  <g transform="translate(92.5, 635.5)">
      <g transform="translate(4.97,0.42) rotate(4.16) scale(1.000)">
        <g transform="translate(4.62,-0.77) rotate(7.06) scale(0.980)">
        <g transform="translate(3.13,-1.90) rotate(8.27) scale(0.960)">
        <g transform="translate(0.88,-2.85) rotate(7.50) scale(0.940)">
        <g transform="translate(-1.59,-3.55) rotate(4.58) scale(0.920)">
        <g transform="translate(-3.67,-3.94) rotate(-0.47) scale(0.900)" mask="url(#maskGradient)">
        <g transform="translate(-4.85,-3.97) rotate(-7.49) scale(0.880)">
        <path d="M0.0,-50.4 L14.8,-20.4 L48.0,-15.6 L24.0,7.8 L29.6,40.8 L0.0,25.2 L-29.6,40.8 L-24.0,7.8 L-48.0,-15.6 L-14.8,-20.4Z" fill="url(#rgrad1)" filter="url(#blur1)" opacity="0.75"/>
      </g>
      </g>
      </g>
      </g>
      </g>
      </g>
      </g>
  </g>
  <g transform="translate(327.4, 638.1)">
      <g transform="translate(3.13,-3.12) rotate(4.16) scale(1.000)">
        <g transform="translate(0.88,-3.72) rotate(7.06) scale(0.980)">
        <g transform="translate(-1.59,-3.99) rotate(8.27) scale(0.960)">
        <g transform="translate(-3.67,-3.90) rotate(7.50) scale(0.940)">
        <g transform="translate(-4.85,-3.46) rotate(4.58) scale(0.920)">
        <g transform="translate(-4.84,-2.72) rotate(-0.47) scale(0.900)">
        <g transform="translate(-3.65,-1.73) rotate(-7.49) scale(0.880)">
        <rect x="-32.3" y="-32.3" width="64.5" height="64.5" rx="16.1" fill="url(#rgrad2)" filter="url(#shadow)" opacity="0.83"/>
        <circle cx="0" cy="0" r="21.5" fill="url(#rgrad3)" opacity="0.58"/>
      </g>
      </g>
      </g>
      </g>
      </g>
      </g>
      </g>
  </g>
  <g transform="translate(560.4, 651.1)">
      <g transform="translate(-1.59,-3.79) rotate(4.16) scale(1.000)">
        <g transform="translate(-3.67,-3.25) rotate(7.06) scale(0.980)">
        <g transform="translate(-4.85,-2.41) rotate(8.27) scale(0.960)">
        <g transform="translate(-4.84,-1.36) rotate(7.50) scale(0.940)" clip-path="url(#clipRect)">
        <g transform="translate(-3.65,-0.19) rotate(4.58) scale(0.920)">
        <g transform="translate(-1.56,1.00) rotate(-0.47) scale(0.900)">
        <g transform="translate(0.90,2.10) rotate(-7.49) scale(0.880)">
        <path d="M38.7,22.3 L0.0,44.7 L-38.7,22.3 L-38.7,-22.3 L-0.0,-44.7 L38.7,-22.3Z" fill="url(#lgrad3)" filter="url(#blur3)" opacity="0.88"/>
        <ellipse cx="0" cy="0" rx="18.6" ry="12.4" fill="#FFFFFF" opacity="0.44"/>
      </g>
      </g>
      </g>
      </g>
      </g>
      </g>
      </g>
  </g>
  <g transform="translate(788.5, 668.2)">
      <g transform="translate(-4.85,-0.98) rotate(4.16) scale(1.000)">
        <g transform="translate(-4.84,0.21) rotate(7.06) scale(0.980)">
        <g transform="translate(-3.65,1.38) rotate(8.27) scale(0.960)">
        <g transform="translate(-1.56,2.43) rotate(7.50) scale(0.940)">
        <g transform="translate(0.90,3.26) rotate(4.58) scale(0.920)">
        <g transform="translate(3.15,3.80) rotate(-0.47) scale(0.900)" mask="url(#maskDynamic)">
        <g transform="translate(4.63,4.00) rotate(-7.49) scale(0.880)">
        <circle cx="0" cy="0" r="35.6" fill="url(#rgrad4)" filter="url(#shadow)" opacity="0.90"/>
        <text x="0" y="5" text-anchor="middle" font-family="Arial, sans-serif" font-size="14" fill="#FFFFFF" opacity="0.90">687</text>
      </g>
      </g>
      </g>
      </g>
      </g>
      </g>
      </g>
  </g>
  <g transform="translate(1009.5, 681.5)">
      <g transform="translate(-3.65,2.73) rotate(4.16) scale(1.000)">
        <g transform="translate(-1.56,3.47) rotate(7.06) scale(0.980)">
        <g transform="translate(0.90,3.91) rotate(8.27) scale(0.960)">
        <g transform="translate(3.15,3.99) rotate(7.50) scale(0.940)">
        <g transform="translate(4.63,3.71) rotate(4.58) scale(0.920)">
        <g transform="translate(4.97,3.11) rotate(-0.47) scale(0.900)">
        <g transform="translate(4.10,2.22) rotate(-7.49) scale(0.880)">
        <path d="M0.0,-57.5 L16.9,-23.3 L54.7,-17.8 L27.4,8.9 L33.8,46.5 L0.0,28.8 L-33.8,46.5 L-27.4,8.9 L-54.7,-17.8 L-16.9,-23.3Z" fill="url(#rgrad0)" filter="url(#blur0)" opacity="0.88"/>
      </g>
      </g>
      </g>
      </g>
      </g>
      </g>
      </g>
  </g>
  <g transform="translate(1223.4, 684.7)">
      <g transform="translate(0.90,3.93) rotate(4.16) scale(1.000)">
        <g transform="translate(3.15,3.54) rotate(7.06) scale(0.980)">
        <g transform="translate(4.63,2.84) rotate(8.27) scale(0.960)">
        <g transform="translate(4.97,1.88) rotate(7.50) scale(0.940)" clip-path="url(#clipStar)">
        <g transform="translate(4.10,0.75) rotate(4.58) scale(0.920)">
        <g transform="translate(2.22,-0.44) rotate(-0.47) scale(0.900)">
        <g transform="translate(-0.20,-1.60) rotate(-7.49) scale(0.880)">
        <rect x="-23.1" y="-23.1" width="46.2" height="46.2" rx="11.6" fill="url(#lgrad1)" filter="url(#shadow)" opacity="0.83"/>
        <circle cx="0" cy="0" r="15.4" fill="url(#rgrad2)" opacity="0.58"/>
      </g>
      </g>
      </g>
      </g>
      </g>
      </g>
      </g>
  </g>
  <g transform="translate(1431.5, 676.2)">
      <g transform="translate(4.63,1.52) rotate(4.16) scale(1.000)">
        <g transform="translate(4.97,0.36) rotate(7.06) scale(0.980)">
        <g transform="translate(4.10,-0.84) rotate(8.27) scale(0.960)">
        <g transform="translate(2.22,-1.96) rotate(7.50) scale(0.940)">
        <g transform="translate(-0.20,-2.90) rotate(4.58) scale(0.920)">
        <g transform="translate(-2.57,-3.58) rotate(-0.47) scale(0.900)" mask="url(#maskStripes)">
        <g transform="translate(-4.31,-3.95) rotate(-7.49) scale(0.880)">
        <path d="M24.7,14.3 L0.0,28.5 L-24.7,14.3 L-24.7,-14.3 L-0.0,-28.5 L24.7,-14.3Z" fill="url(#rgrad2)" filter="url(#blur2)" opacity="0.75"/>
        <ellipse cx="0" cy="0" rx="11.9" ry="7.9" fill="#FFFFFF" opacity="0.37"/>
      </g>
      </g>
      </g>
      </g>
      </g>
      </g>
      </g>
  </g>
  <g transform="translate(1636.8, 660.1)">
      <g transform="translate(4.10,-2.29) rotate(4.16) scale(1.000)">
        <g transform="translate(2.22,-3.16) rotate(7.06) scale(0.980)">
        <g transform="translate(-0.20,-3.74) rotate(8.27) scale(0.960)">
        <g transform="translate(-2.57,-3.99) rotate(7.50) scale(0.940)">
        <g transform="translate(-4.31,-3.89) rotate(4.58) scale(0.920)">
        <g transform="translate(-5.00,-3.43) rotate(-0.47) scale(0.900)">
        <g transform="translate(-4.46,-2.67) rotate(-7.49) scale(0.880)">
        <circle cx="0" cy="0" r="30.2" fill="url(#rgrad3)" filter="url(#shadow)" opacity="0.64"/>
        <text x="0" y="5" text-anchor="middle" font-family="Arial, sans-serif" font-size="14" fill="#FFFFFF" opacity="0.64">687</text>
      </g>
      </g>
      </g>
      </g>
      </g>
      </g>
      </g>
  </g>
  <g transform="translate(82.9, 924.0)">
      <g transform="translate(-0.20,-4.00) rotate(4.16) scale(1.000)">
        <g transform="translate(-2.57,-3.77) rotate(7.06) scale(0.980)">
        <g transform="translate(-4.31,-3.21) rotate(8.27) scale(0.960)">
        <g transform="translate(-5.00,-2.36) rotate(7.50) scale(0.940)" clip-path="url(#clipDynamic)">
        <g transform="translate(-4.46,-1.30) rotate(4.58) scale(0.920)">
        <g transform="translate(-2.83,-0.12) rotate(-0.47) scale(0.900)">
        <g transform="translate(-0.51,1.06) rotate(-7.49) scale(0.880)">
        <path d="M0.0,-72.8 L21.4,-29.5 L69.3,-22.5 L34.6,11.3 L42.8,58.9 L0.0,36.4 L-42.8,58.9 L-34.6,11.3 L-69.3,-22.5 L-21.4,-29.5Z" fill="url(#lgrad4)" filter="url(#blur4)" opacity="0.53"/>
      </g>
      </g>
      </g>
      </g>
      </g>
      </g>
      </g>
  </g>
  <g transform="translate(207.8, 269.0)" mask="url(#maskGradient)">
    <ellipse cx="0" cy="0" rx="200" ry="150" fill="url(#rgrad0)" filter="url(#blur3)" opacity="0.3"/>
  </g>
  <g transform="translate(717.6, 323.8)" mask="url(#maskCircleFade)">
    <ellipse cx="0" cy="0" rx="200" ry="150" fill="url(#rgrad1)" filter="url(#blur3)" opacity="0.3"/>
  </g>
  <g transform="translate(1303.1, 367.4)" mask="url(#maskStripes)">
    <ellipse cx="0" cy="0" rx="200" ry="150" fill="url(#rgrad2)" filter="url(#blur3)" opacity="0.3"/>
  </g>
</svg>