<?xml version="1.0" encoding="UTF-8"?>
<svg xmlns="http://www.w3.org/2000/svg" viewBox="0 0 1920 1080" width="1920" height="1080">
  <defs>
    <filter id="blur0" x="-50%" y="-50%" width="200%" height="200%">
      <feGaussianBlur in="SourceGraphic" stdDeviation="1"/>
    </filter>
    <filter id="blur1" x="-50%" y="-50%" width="200%" height="200%">
      <feGaussianBlur in="SourceGraphic" stdDeviation="3"/>
    </filter>
    <filter id="blur2" x="-50%" y="-50%" width="200%" height="200%">
      <feGaussianBlur in="SourceGraphic" stdDeviation="5"/>
    </filter>
    <filter id="blur3" x="-50%" y="-50%" width="200%" height="200%">
      <feGaussianBlur in="SourceGraphic" stdDeviation="7"/>
    </filter>
    <filter id="blur4" x="-50%" y="-50%" width="200%" height="200%">
      <feGaussianBlur in="SourceGraphic" stdDeviation="9"/>
    </filter>
    <filter id="shadow" x="-50%" y="-50%" width="200%" height="200%">
      <feGaussianBlur in="SourceAlpha" stdDeviation="3" result="blur"/>
      <feOffset in="blur" dx="4" dy="4" result="offsetBlur"/>
      <feMerge>
        <feMergeNode in="offsetBlur"/>
        <feMergeNode in="SourceGraphic"/>
      </feMerge>
    </filter>
    <linearGradient id="lgrad0" x1="0%" y1="0%" x2="46.9%" y2="99.9%">
      <stop offset="0%" stop-color="#FF6B6B"/>
      <stop offset="33%" stop-color="#4ECDC4"/>
      <stop offset="66%" stop-color="#45B7D1"/>
      <stop offset="100%" stop-color="#96E6A1"/>
    </linearGradient>
    <linearGradient id="lgrad1" x1="0%" y1="0%" x2="22.4%" y2="91.7%">
      <stop offset="0%" stop-color="#FFE66D"/>
      <stop offset="33%" stop-color="#FF6B6B"/>
      <stop offset="66%" stop-color="#C44D58"/>
      <stop offset="100%" stop-color="#8B0000"/>
    </linearGradient>
    <linearGradient id="lgrad2" x1="0%" y1="0%" x2="5.3%" y2="72.3%">
      <stop offset="0%" stop-color="#4169E1"/>
      <stop offset="33%" stop-color="#7B68EE"/>
      <stop offset="66%" stop-color="#9370DB"/>
      <stop offset="100%" stop-color="#FFD700"/>
    </linearGradient>
    <linearGradient id="lgrad3" x1="0%" y1="0%" x2="0.1%" y2="46.9%">
      <stop offset="0%" stop-color="#32CD32"/>
      <stop offset="33%" stop-color="#228B22"/>
      <stop offset="66%" stop-color="#006400"/>
      <stop offset="100%" stop-color="#ADFF2F"/>
    </linearGradient>
    <linearGradient id="lgrad4" x1="0%" y1="0%" x2="8.3%" y2="22.4%">
      <stop offset="0%" stop-color="#FF1493"/>
      <stop offset="33%" stop-color="#FF69B4"/>
      <stop offset="66%" stop-color="#FFB6C1"/>
      <stop offset="100%" stop-color="#FFC0CB"/>
    </linearGradient>
    <radialGradient id="rgrad0" cx="59.1%" cy="49.4%" r="60%">
      <stop offset="0%" stop-color="#FF6B6B" stop-opacity="1"/>
      <stop offset="50%" stop-color="#4ECDC4" stop-opacity="0.8"/>
      <stop offset="100%" stop-color="#45B7D1" stop-opacity="0.6"/>
    </radialGradient>
    <radialGradient id="rgrad1" cx="69.1%" cy="57.4%" r="60%">
      <stop offset="0%" stop-color="#FFE66D" stop-opacity="1"/>
      <stop offset="50%" stop-color="#FF6B6B" stop-opacity="0.8"/>
      <stop offset="100%" stop-color="#C44D58" stop-opacity="0.6"/>
    </radialGradient>
    <radialGradient id="rgrad2" cx="39.1%" cy="65.4%" r="60%">
      <stop offset="0%" stop-color="#4169E1" stop-opacity="1"/>
      <stop offset="50%" stop-color="#7B68EE" stop-opacity="0.8"/>
      <stop offset="100%" stop-color="#9370DB" stop-opacity="0.6"/>
    </radialGradient>
    <radialGradient id="rgrad3" cx="49.1%" cy="33.4%" r="60%">
      <stop offset="0%" stop-color="#32CD32" stop-opacity="1"/>
      <stop offset="50%" stop-color="#228B22" stop-opacity="0.8"/>
      <stop offset="100%" stop-color="#006400" stop-opacity="0.6"/>
    </radialGradient>
    <radialGradient id="rgrad4" cx="59.1%" cy="41.4%" r="60%">
      <stop offset="0%" stop-color="#FF1493" stop-opacity="1"/>
      <stop offset="50%" stop-color="#FF69B4" stop-opacity="0.8"/>
      <stop offset="100%" stop-color="#FFB6C1" stop-opacity="0.6"/>
    </radialGradient>
    <clipPath id="clipCircle">
      <circle cx="0" cy="0" r="50"/>
    </clipPath>
    <clipPath id="clipStar">
      <path d="M0.0,-50.0 L14.7,-20.2 L47.6,-15.5 L23.8,7.7 L29.4,40.5 L0.0,25.0 L-29.4,40.5 L-23.8,7.7 L-47.6,-15.5 L-14.7,-20.2Z"/>
    </clipPath>
    <clipPath id="clipHex">
      <path d="M39.0,22.5 L0.0,45.0 L-39.0,22.5 L-39.0,-22.5 L-0.0,-45.0 L39.0,-22.5Z"/>
    </clipPath>
    <clipPath id="clipRect">
      <rect x="-40" y="-30" width="80" height="60" rx="10"/>
    </clipPath>
    <clipPath id="clipDynamic">
      <circle cx="0" cy="0" r="43.5"/>
    </clipPath>
    <mask id="maskGradient" maskContentUnits="objectBoundingBox">
      <rect x="0" y="0" width="1" height="1" fill="url(#maskGrad)"/>
    </mask>
    <linearGradient id="maskGrad" x1="0%" y1="0%" x2="100%" y2="100%">
      <stop offset="0%" stop-color="white"/>
      <stop offset="100%" stop-color="black"/>
    </linearGradient>
    <mask id="maskCircleFade">
      <circle cx="0" cy="0" r="60" fill="white"/>
      <circle cx="0" cy="0" r="30" fill="black"/>
    </mask>
    <mask id="maskStripes">
      <rect x="-50" y="-50" width="100" height="100" fill="white"/>
      <rect x="-50" y="-40" width="100" height="10" fill="black"/>
      <rect x="-50" y="-20" width="100" height="10" fill="black"/>
      <rect x="-50" y="0" width="100" height="10" fill="black"/>
      <rect x="-50" y="20" width="100" height="10" fill="black"/>
      <rect x="-50" y="40" width="100" height="10" fill="black"/>
    </mask>
    <mask id="maskDynamic">
      <rect x="-60" y="-60" width="120" height="120" fill="white" fill-opacity="0.51"/>
      <circle cx="0" cy="0" r="25" fill="white"/>
    </mask>
  </defs>
  <rect width="1920" height="1080" fill="url(#lgrad0)"/>
  <g transform="translate(117.0, 120.6)">
      <g transform="translate(2.84,3.29) rotate(1.49) scale(1.000)">
        <g transform="translate(4.46,2.47) rotate(4.81) scale(0.980)">
        <g transform="translate(5.00,1.44) rotate(9.68) scale(0.960)">
        <g transform="translate(4.31,0.27) rotate(15.69) scale(0.940)" clip-path="url(#clipCircle)">
        <g transform="translate(2.56,-0.92) rotate(22.30) scale(0.920)">
        <g transform="translate(0.19,-2.03) rotate(28.92) scale(0.900)">
        <g transform="translate(-2.23,-2.96) rotate(34.92) scale(0.880)">
        <path d="M0.0,-64.5 L18.9,-26.1 L61.3,-19.9 L30.7,10.0 L37.9,52.1 L0.0,32.2 L-37.9,52.1 L-30.7,10.0 L-61.3,-19.9 L-18.9,-26.1Z" fill="url(#lgrad0)" filter="url(#blur0)" opacity="0.62"/>
      </g>
      </g>
      </g>
      </g>
      </g>
      </g>
      </g>
  </g>
  <g transform="translate(346.8, 106.6)">
      <g transform="translate(5.00,-0.13) rotate(1.49) scale(1.000)">
        <g transform="translate(4.31,-1.31) rotate(4.81) scale(0.980)">
        <g transform="translate(2.56,-2.37) rotate(9.68) scale(0.960)">
        <g transform="translate(0.19,-3.21) rotate(15.69) scale(0.940)">
        <g transform="translate(-2.23,-3.77) rotate(22.30) scale(0.920)">
        <g transform="translate(-4.10,-4.00) rotate(28.92) scale(0.900)" mask="url(#maskCircleFade)">
        <g transform="translate(-4.97,-3.86) rotate(34.92) scale(0.880)">
        <rect x="-37.2" y="-37.2" width="74.5" height="74.5" rx="18.6" fill="url(#rgrad1)" filter="url(#shadow)" opacity="0.73"/>
        <circle cx="0" cy="0" r="24.8" fill="url(#rgrad2)" opacity="0.51"/>
      </g>
      </g>
      </g>
      </g>
      </g>
      </g>
      </g>
  </g>
  <g transform="translate(570.0, 89.5)">
      <g transform="translate(2.56,-3.44) rotate(1.49) scale(1.000)">
        <g transform="translate(0.19,-3.89) rotate(4.81) scale(0.980)">
        <g transform="translate(-2.23,-3.99) rotate(9.68) scale(0.960)">
        <g transform="translate(-4.10,-3.74) rotate(15.69) scale(0.940)">
        <g transform="translate(-4.97,-3.15) rotate(22.30) scale(0.920)">
        <g transform="translate(-4.62,-2.29) rotate(28.92) scale(0.900)">
        <g transform="translate(-3.14,-1.21) rotate(34.92) scale(0.880)">
        <path d="M37.0,21.3 L0.0,42.7 L-37.0,21.3 L-37.0,-21.3 L-0.0,-42.7 L37.0,-21.3Z" fill="url(#rgrad2)" filter="url(#blur2)" opacity="0.81"/>
        <ellipse cx="0" cy="0" rx="17.8" ry="11.9" fill="#FFFFFF" opacity="0.41"/>
      </g>
      </g>
      </g>
      </g>
      </g>
      </g>
      </g>
  </g>
  <g transform="translate(785.8, 77.4)">
      <g transform="translate(-2.23,-3.58) rotate(1.49) scale(1.000)">
        <g transform="translate(-4.10,-2.89) rotate(4.81) scale(0.980)">
        <g transform="translate(-4.97,-1.95) rotate(9.68) scale(0.960)">
        <g transform="translate(-4.62,-0.83) rotate(15.69) scale(0.940)" clip-path="url(#clipRect)">
        <g transform="translate(-3.14,0.37) rotate(22.30) scale(0.920)">
        <g transform="translate(-0.89,1.53) rotate(28.92) scale(0.900)">
        <g transform="translate(1.58,2.55) rotate(34.92) scale(0.880)">
        <circle cx="0" cy="0" r="28.8" fill="url(#lgrad3)" filter="url(#shadow)" opacity="0.87"/>
        <text x="0" y="5" text-anchor="middle" font-family="Arial, sans-serif" font-size="14" fill="#FFFFFF" opacity="0.87">97</text>
      </g>
      </g>
      </g>
      </g>
      </g>
      </g>
      </g>
  </g>
  <g transform="translate(995.4, 75.9)">
      <g transform="translate(-4.97,-0.43) rotate(1.49) scale(1.000)">
        <g transform="translate(-4.62,0.76) rotate(4.81) scale(0.980)">
        <g transform="translate(-3.14,1.89) rotate(9.68) scale(0.960)">
        <g transform="translate(-0.89,2.85) rotate(15.69) scale(0.940)">
        <g transform="translate(1.58,3.55) rotate(22.30) scale(0.920)">
        <g transform="translate(3.66,3.94) rotate(28.92) scale(0.900)" mask="url(#maskGradient)">
        <g transform="translate(4.84,3.97) rotate(34.92) scale(0.880)">
        <path d="M0.0,-46.2 L13.6,-18.7 L44.0,-14.3 L22.0,7.1 L27.2,37.4 L0.0,23.1 L-27.2,37.4 L-22.0,7.1 L-44.0,-14.3 L-13.6,-18.7Z" fill="url(#rgrad4)" filter="url(#blur4)" opacity="0.90"/>
      </g>
      </g>
      </g>
      </g>
      </g>
      </g>
      </g>
  </g>
  <g transform="translate(1201.1, 85.7)">
      <g transform="translate(-3.14,3.11) rotate(1.49) scale(1.000)">
        <g transform="translate(-0.89,3.72) rotate(4.81) scale(0.980)">
        <g transform="translate(1.58,3.99) rotate(9.68) scale(0.960)">
        <g transform="translate(3.66,3.90) rotate(15.69) scale(0.940)">
        <g transform="translate(4.84,3.47) rotate(22.30) scale(0.920)">
        <g transform="translate(4.84,2.73) rotate(28.92) scale(0.900)">
        <g transform="translate(3.66,1.74) rotate(34.92) scale(0.880)">
        <rect x="-23.8" y="-23.8" width="47.5" height="47.5" rx="11.9" fill="url(#rgrad0)" filter="url(#shadow)" opacity="0.89"/>
        <circle cx="0" cy="0" r="15.8" fill="url(#rgrad1)" opacity="0.62"/>
      </g>
      </g>
      </g>
      </g>
      </g>
      </g>
      </g>
  </g>
  <g transform="translate(1406.6, 102.3)">
      <g transform="translate(1.58,3.80) rotate(1.49) scale(1.000)">
        <g transform="translate(3.66,3.25) rotate(4.81) scale(0.980)">
        <g transform="translate(4.84,2.42) rotate(9.68) scale(0.960)">
        <g transform="translate(4.84,1.37) rotate(15.69) scale(0.940)" clip-path="url(#clipStar)">
        <g transform="translate(3.66,0.20) rotate(22.30) scale(0.920)">
        <g transform="translate(1.58,-0.99) rotate(28.92) scale(0.900)">
        <g transform="translate(-0.89,-2.09) rotate(34.92) scale(0.880)">
        <path d="M31.3,18.1 L0.0,36.2 L-31.3,18.1 L-31.3,-18.1 L-0.0,-36.2 L31.3,-18.1Z" fill="url(#lgrad1)" filter="url(#blur1)" opacity="0.84"/>
        <ellipse cx="0" cy="0" rx="15.1" ry="10.0" fill="#FFFFFF" opacity="0.42"/>
      </g>
      </g>
      </g>
      </g>
      </g>
      </g>
      </g>
  </g>
  <g transform="translate(1615.4, 117.8)">
      <g transform="translate(4.84,0.99) rotate(1.49) scale(1.000)">
        <g transform="translate(4.84,-0.20) rotate(4.81) scale(0.980)">
        <g transform="translate(3.66,-1.37) rotate(9.68) scale(0.960)">
        <g transform="translate(1.58,-2.42) rotate(15.69) scale(0.940)">
        <g transform="translate(-0.89,-3.25) rotate(22.30) scale(0.920)">
        <g transform="translate(-3.14,-3.80) rotate(28.92) scale(0.900)" mask="url(#maskDynamic)">
        <g transform="translate(-4.62,-4.00) rotate(34.92) scale(0.880)">
        <circle cx="0" cy="0" r="36.4" fill="url(#rgrad2)" filter="url(#shadow)" opacity="0.77"/>
        <text x="0" y="5" text-anchor="middle" font-family="Arial, sans-serif" font-size="14" fill="#FFFFFF" opacity="0.77">97</text>
      </g>
      </g>
      </g>
      </g>
      </g>
      </g>
      </g>
  </g>
  <g transform="translate(70.2, 404.9)">
      <g transform="translate(3.66,-2.73) rotate(1.49) scale(1.000)">
        <g transform="translate(1.58,-3.47) rotate(4.81) scale(0.980)">
        <g transform="translate(-0.89,-3.90) rotate(9.68) scale(0.960)">
        <g transform="translate(-3.14,-3.99) rotate(15.69) scale(0.940)">
        <g transform="translate(-4.62,-3.72) rotate(22.30) scale(0.920)">
        <g transform="translate(-4.97,-3.11) rotate(28.92) scale(0.900)">
        <g transform="translate(-4.10,-2.23) rotate(34.92) scale(0.880)">
        <path d="M0.0,-73.5 L21.6,-29.7 L69.9,-22.7 L35.0,11.4 L43.2,59.5 L0.0,36.8 L-43.2,59.5 L-35.0,11.4 L-69.9,-22.7 L-21.6,-29.7Z" fill="url(#rgrad3)" filter="url(#blur3)" opacity="0.67"/>
      </g>
      </g>
      </g>
      </g>
      </g>
      </g>
      </g>
  </g>
  <g transform="translate(292.3, 400.3)">
      <g transform="translate(-0.89,-3.94) rotate(1.49) scale(1.000)">
        <g transform="translate(-3.14,-3.55) rotate(4.81) scale(0.980)">
        <g transform="translate(-4.62,-2.85) rotate(9.68) scale(0.960)">
        <g transform="translate(-4.97,-1.89) rotate(15.69) scale(0.940)" clip-path="url(#clipDynamic)">
        <g transform="translate(-4.10,-0.76) rotate(22.30) scale(0.920)">
        <g transform="translate(-2.23,0.43) rotate(28.92) scale(0.900)">
        <g transform="translate(0.19,1.59) rotate(34.92) scale(0.880)">
        <rect x="-30.9" y="-30.9" width="61.8" height="61.8" rx="15.5" fill="url(#lgrad4)" filter="url(#shadow)" opacity="0.56"/>
        <circle cx="0" cy="0" r="20.6" fill="url(#rgrad0)" opacity="0.39"/>
      </g>
      </g>
      </g>
      </g>
      </g>
      </g>
      </g>
  </g>
  <g transform="translate(521.2, 386.2)">
      <g transform="translate(-4.62,-1.53) rotate(1.49) scale(1.000)">
        <g transform="translate(-4.97,-0.37) rotate(4.81) scale(0.980)">
        <g transform="translate(-4.10,0.83) rotate(9.68) scale(0.960)">
        <g transform="translate(-2.23,1.95) rotate(15.69) scale(0.940)">
        <g transform="translate(0.19,2.89) rotate(22.30) scale(0.920)">
        <g transform="translate(2.56,3.58) rotate(28.92) scale(0.900)" mask="url(#maskStripes)">
        <g transform="translate(4.31,3.95) rotate(34.92) scale(0.880)">
        <path d="M25.2,14.5 L0.0,29.1 L-25.2,14.5 L-25.2,-14.5 L-0.0,-29.1 L25.2,-14.5Z" fill="url(#rgrad0)" filter="url(#blur0)" opacity="0.44"/>
        <ellipse cx="0" cy="0" rx="12.1" ry="8.1" fill="#FFFFFF" opacity="0.22"/>
      </g>
      </g>
      </g>
      </g>
      </g>
      </g>
      </g>
  </g>
  <g transform="translate(754.6, 369.1)">
      <g transform="translate(-4.10,2.29) rotate(1.49) scale(1.000)">
        <g transform="translate(-2.23,3.15) rotate(4.81) scale(0.980)">
        <g transform="translate(0.19,3.74) rotate(9.68) scale(0.960)">
        <g transform="translate(2.56,3.99) rotate(15.69) scale(0.940)">
        <g transform="translate(4.31,3.89) rotate(22.30) scale(0.920)">
        <g transform="translate(5.00,3.44) rotate(28.92) scale(0.900)">
        <g transform="translate(4.47,2.68) rotate(34.92) scale(0.880)">
        <circle cx="0" cy="0" r="22.8" fill="url(#rgrad1)" filter="url(#shadow)" opacity="0.32"/>
        <text x="0" y="5" text-anchor="middle" font-family="Arial, sans-serif" font-size="14" fill="#FFFFFF" opacity="0.32">97</text>
      </g>
      </g>
      </g>
      </g>
      </g>
      </g>
      </g>
  </g>
  <g transform="translate(989.5, 357.2)">
      <g transform="translate(0.19,4.00) rotate(1.49) scale(1.000)">
        <g transform="translate(2.56,3.77) rotate(4.81) scale(0.980)">
        <g transform="translate(4.31,3.21) rotate(9.68) scale(0.960)">
        <g transform="translate(5.00,2.37) rotate(15.69) scale(0.940)" clip-path="url(#clipHex)">
        <g transform="translate(4.47,1.31) rotate(22.30) scale(0.920)">
        <g transform="translate(2.84,0.13) rotate(28.92) scale(0.900)">
        <g transform="translate(0.52,-1.05) rotate(34.92) scale(0.880)">
        <path d="M0.0,-56.1 L16.5,-22.7 L53.3,-17.3 L26.7,8.7 L33.0,45.4 L0.0,28.0 L-33.0,45.4 L-26.7,8.7 L-53.3,-17.3 L-16.5,-22.7Z" fill="url(#lgrad2)" filter="url(#blur2)" opacity="0.22"/>
      </g>
      </g>
      </g>
      </g>
      </g>
      </g>
      </g>
  </g>
  <g transform="translate(1221.9, 356.0)">
      <g transform="translate(4.31,2.03) rotate(1.49) scale(1.000)">
        <g transform="translate(5.00,0.93) rotate(4.81) scale(0.980)">
        <g transform="translate(4.47,-0.27) rotate(9.68) scale(0.960)">
        <g transform="translate(2.84,-1.43) rotate(15.69) scale(0.940)">
        <g transform="translate(0.52,-2.47) rotate(22.30) scale(0.920)">
        <g transform="translate(-1.93,-3.29) rotate(28.92) scale(0.900)" mask="url(#maskCircleFade)">
        <g transform="translate(-3.90,-3.82) rotate(34.92) scale(0.880)">
        <rect x="-35.0" y="-35.0" width="70.1" height="70.1" rx="17.5" fill="url(#rgrad3)" filter="url(#shadow)" opacity="0.15"/>
        <circle cx="0" cy="0" r="23.4" fill="url(#rgrad4)" opacity="0.11"/>
      </g>
      </g>
      </g>
      </g>
      </g>
      </g>
      </g>
  </g>
  <g transform="translate(1449.1, 366.1)">
      <g transform="translate(4.47,-1.80) rotate(1.49) scale(1.000)">
        <g transform="translate(2.84,-2.77) rotate(4.81) scale(0.980)">
        <g transform="translate(0.52,-3.50) rotate(9.68) scale(0.960)">
        <g transform="translate(-1.93,-3.92) rotate(15.69) scale(0.940)">
        <g transform="translate(-3.90,-3.98) rotate(22.30) scale(0.920)">
        <g transform="translate(-4.92,-3.69) rotate(28.92) scale(0.900)">
        <g transform="translate(-4.74,-3.07) rotate(34.92) scale(0.880)">
        <path d="M38.9,22.4 L0.0,44.9 L-38.9,22.4 L-38.9,-22.4 L-0.0,-44.9 L38.9,-22.4Z" fill="url(#rgrad4)" filter="url(#blur4)" opacity="0.11"/>
        <ellipse cx="0" cy="0" rx="18.7" ry="12.5" fill="#FFFFFF" opacity="0.05"/>
      </g>
      </g>
      </g>
      </g>
      </g>
      </g>
      </g>
  </g>
  <g transform="translate(1669.1, 382.7)">
      <g transform="translate(0.52,-3.98) rotate(1.49) scale(1.000)">
        <g transform="translate(-1.93,-3.92) rotate(4.81) scale(0.980)">
        <g transform="translate(-3.90,-3.52) rotate(9.68) scale(0.960)">
        <g transform="translate(-4.92,-2.80) rotate(15.69) scale(0.940)" clip-path="url(#clipCircle)">
        <g transform="translate(-4.74,-1.83) rotate(22.30) scale(0.920)">
        <g transform="translate(-3.39,-0.70) rotate(28.92) scale(0.900)">
        <g transform="translate(-1.22,0.50) rotate(34.92) scale(0.880)">
        <circle cx="0" cy="0" r="33.0" fill="url(#lgrad0)" filter="url(#shadow)" opacity="0.10"/>
        <text x="0" y="5" text-anchor="middle" font-family="Arial, sans-serif" font-size="14" fill="#FFFFFF" opacity="0.10">97</text>
      </g>
      </g>
      </g>
      </g>
      </g>
      </g>
      </g>
  </g>
  <g transform="translate(122.0, 678.1)">
      <g transform="translate(-3.90,-2.50) rotate(1.49) scale(1.000)">
        <g transform="translate(-4.92,-1.46) rotate(4.81) scale(0.980)">
        <g transform="translate(-4.74,-0.30) rotate(9.68) scale(0.960)">
        <g transform="translate(-3.39,0.89) rotate(15.69) scale(0.940)">
        <g transform="translate(-1.22,2.00) rotate(22.30) scale(0.920)">
        <g transform="translate(1.26,2.94) rotate(28.92) scale(0.900)" mask="url(#maskGradient)">
        <g transform="translate(3.42,3.61) rotate(34.92) scale(0.880)">
        <path d="M0.0,-51.6 L15.2,-20.9 L49.1,-15.9 L24.5,8.0 L30.3,41.7 L0.0,25.8 L-30.3,41.7 L-24.5,8.0 L-49.1,-15.9 L-15.2,-20.9Z" fill="url(#rgrad1)" filter="url(#blur1)" opacity="0.13"/>
      </g>
      </g>
      </g>
      </g>
      </g>
      </g>
      </g>
  </g>
  <g transform="translate(329.5, 685.0)">
      <g transform="translate(-4.74,1.28) rotate(1.49) scale(1.000)">
        <g transform="translate(-3.39,2.34) rotate(4.81) scale(0.980)">
        <g transform="translate(-1.22,3.19) rotate(9.68) scale(0.960)">
        <g transform="translate(1.26,3.76) rotate(15.69) scale(0.940)">
        <g transform="translate(3.42,4.00) rotate(22.30) scale(0.920)">
        <g transform="translate(4.75,3.87) rotate(28.92) scale(0.900)">
        <g transform="translate(4.92,3.40) rotate(34.92) scale(0.880)">
        <rect x="-22.5" y="-22.5" width="45.0" height="45.0" rx="11.3" fill="url(#rgrad2)" filter="url(#shadow)" opacity="0.19"/>
        <circle cx="0" cy="0" r="15.0" fill="url(#rgrad3)" opacity="0.13"/>
      </g>
      </g>
      </g>
      </g>
      </g>
      </g>
      </g>
  </g>
  <g transform="translate(534.7, 680.1)">
      <g transform="translate(-1.22,3.88) rotate(1.49) scale(1.000)">
        <g transform="translate(1.26,3.99) rotate(4.81) scale(0.980)">
        <g transform="translate(3.42,3.75) rotate(9.68) scale(0.960)">
        <g transform="translate(4.75,3.17) rotate(15.69) scale(0.940)" clip-path="url(#clipRect)">
        <g transform="translate(4.92,2.31) rotate(22.30) scale(0.920)">
        <g transform="translate(3.88,1.25) rotate(28.92) scale(0.900)">
        <g transform="translate(1.89,0.07) rotate(34.92) scale(0.880)">
        <path d="M27.1,15.7 L0.0,31.3 L-27.1,15.7 L-27.1,-15.7 L-0.0,-31.3 L27.1,-15.7Z" fill="url(#lgrad3)" filter="url(#blur3)" opacity="0.28"/>
        <ellipse cx="0" cy="0" rx="13.0" ry="8.7" fill="#FFFFFF" opacity="0.14"/>
      </g>
      </g>
      </g>
      </g>
      </g>
      </g>
      </g>
  </g>
  <g transform="translate(741.2, 665.8)">
      <g transform="translate(3.42,2.92) rotate(1.49) scale(1.000)">
        <g transform="translate(4.75,1.98) rotate(4.81) scale(0.980)">
        <g transform="translate(4.92,0.86) rotate(9.68) scale(0.960)">
        <g transform="translate(3.88,-0.33) rotate(15.69) scale(0.940)">
        <g transform="translate(1.89,-1.50) rotate(22.30) scale(0.920)">
        <g transform="translate(-0.56,-2.53) rotate(28.92) scale(0.900)" mask="url(#maskDynamic)">
        <g transform="translate(-2.88,-3.33) rotate(34.92) scale(0.880)">
        <circle cx="0" cy="0" r="33.3" fill="url(#rgrad4)" filter="url(#shadow)" opacity="0.39"/>
        <text x="0" y="5" text-anchor="middle" font-family="Arial, sans-serif" font-size="14" fill="#FFFFFF" opacity="0.39">97</text>
      </g>
      </g>
      </g>
      </g>
      </g>
      </g>
      </g>
  </g>
  <g transform="translate(952.3, 648.8)">
      <g transform="translate(4.92,-0.73) rotate(1.49) scale(1.000)">
        <g transform="translate(3.88,-1.86) rotate(4.81) scale(0.980)">
        <g transform="translate(1.89,-2.82) rotate(9.68) scale(0.960)">
        <g transform="translate(-0.56,-3.53) rotate(15.69) scale(0.940)">
        <g transform="translate(-2.88,-3.93) rotate(22.30) scale(0.920)">
        <g transform="translate(-4.48,-3.97) rotate(28.92) scale(0.900)">
        <g transform="translate(-5.00,-3.66) rotate(34.92) scale(0.880)">
        <path d="M0.0,-74.9 L22.0,-30.3 L71.2,-23.1 L35.6,11.6 L44.0,60.6 L0.0,37.4 L-44.0,60.6 L-35.6,11.6 L-71.2,-23.1 L-22.0,-30.3Z" fill="url(#rgrad0)" filter="url(#blur0)" opacity="0.51"/>
      </g>
      </g>
      </g>
      </g>
      </g>
      </g>
      </g>
  </g>
  <g transform="translate(1170.2, 637.0)">
      <g transform="translate(1.89,-3.70) rotate(1.49) scale(1.000)">
        <g transform="translate(-0.56,-3.98) rotate(4.81) scale(0.980)">
        <g transform="translate(-2.88,-3.91) rotate(9.68) scale(0.960)">
        <g transform="translate(-4.48,-3.49) rotate(15.69) scale(0.940)" clip-path="url(#clipStar)">
        <g transform="translate(-5.00,-2.75) rotate(22.30) scale(0.920)">
        <g transform="translate(-4.28,-1.77) rotate(28.92) scale(0.900)">
        <g transform="translate(-2.52,-0.63) rotate(34.92) scale(0.880)">
        <rect x="-34.8" y="-34.8" width="69.5" height="69.5" rx="17.4" fill="url(#lgrad1)" filter="url(#shadow)" opacity="0.63"/>
        <circle cx="0" cy="0" r="23.2" fill="url(#rgrad2)" opacity="0.44"/>
      </g>
      </g>
      </g>
      </g>
      </g>
      </g>
      </g>
  </g>
  <g transform="translate(1395.4, 636.1)">
      <g transform="translate(-2.88,-3.27) rotate(1.49) scale(1.000)">
        <g transform="translate(-4.48,-2.45) rotate(4.81) scale(0.980)">
        <g transform="translate(-5.00,-1.40) rotate(9.68) scale(0.960)">
        <g transform="translate(-4.28,-0.23) rotate(15.69) scale(0.940)">
        <g transform="translate(-2.52,0.96) rotate(22.30) scale(0.920)">
        <g transform="translate(-0.14,2.06) rotate(28.92) scale(0.900)" mask="url(#maskStripes)">
        <g transform="translate(2.27,2.98) rotate(34.92) scale(0.880)">
        <path d="M28.8,16.6 L0.0,33.2 L-28.8,16.6 L-28.8,-16.6 L-0.0,-33.2 L28.8,-16.6Z" fill="url(#rgrad2)" filter="url(#blur2)" opacity="0.73"/>
        <ellipse cx="0" cy="0" rx="13.9" ry="9.2" fill="#FFFFFF" opacity="0.37"/>
      </g>
      </g>
      </g>
      </g>
      </g>
      </g>
      </g>
  </g>
  <g transform="translate(1626.6, 646.4)">
      <g transform="translate(-5.00,0.17) rotate(1.49) scale(1.000)">
        <g transform="translate(-4.28,1.34) rotate(4.81) scale(0.980)">
        <g transform="translate(-2.52,2.39) rotate(9.68) scale(0.960)">
        <g transform="translate(-0.14,3.23) rotate(15.69) scale(0.940)">
        <g transform="translate(2.27,3.79) rotate(22.30) scale(0.920)">
        <g transform="translate(4.13,4.00) rotate(28.92) scale(0.900)">
        <g transform="translate(4.98,3.85) rotate(34.92) scale(0.880)">
        <circle cx="0" cy="0" r="22.8" fill="url(#rgrad3)" filter="url(#shadow)" opacity="0.82"/>
        <text x="0" y="5" text-anchor="middle" font-family="Arial, sans-serif" font-size="14" fill="#FFFFFF" opacity="0.82">97</text>
      </g>
      </g>
      </g>
      </g>
      </g>
      </g>
      </g>
  </g>
  <g transform="translate(101.1, 943.1)">
      <g transform="translate(-2.52,3.45) rotate(1.49) scale(1.000)">
        <g transform="translate(-0.14,3.90) rotate(4.81) scale(0.980)">
        <g transform="translate(2.27,3.99) rotate(9.68) scale(0.960)">
        <g transform="translate(4.13,3.73) rotate(15.69) scale(0.940)" clip-path="url(#clipDynamic)">
        <g transform="translate(4.98,3.13) rotate(22.30) scale(0.920)">
        <g transform="translate(4.60,2.26) rotate(28.92) scale(0.900)">
        <g transform="translate(3.11,1.18) rotate(34.92) scale(0.880)">
        <path d="M0.0,-48.9 L14.4,-19.8 L46.5,-15.1 L23.3,7.6 L28.8,39.6 L0.0,24.5 L-28.8,39.6 L-23.3,7.6 L-46.5,-15.1 L-14.4,-19.8Z" fill="url(#lgrad4)" filter="url(#blur4)" opacity="0.88"/>
      </g>
      </g>
      </g>
      </g>
      </g>
      </g>
      </g>
  </g>
  <g transform="translate(356.8, 365.9)" mask="url(#maskGradient)">
    <ellipse cx="0" cy="0" rx="200" ry="150" fill="url(#rgrad0)" filter="url(#blur3)" opacity="0.3"/>
  </g>
  <g transform="translate(899.9, 321.1)" mask="url(#maskCircleFade)">
    <ellipse cx="0" cy="0" rx="200" ry="150" fill="url(#rgrad1)" filter="url(#blur3)" opacity="0.3"/>
  </g>
  <g transform="translate(1351.2, 266.4)" mask="url(#maskStripes)">
    <ellipse cx="0" cy="0" rx="200" ry="150" fill="url(#rgrad2)" filter="url(#blur3)" opacity="0.3"/>
  </g>
</svg>