<?xml version="1.0" encoding="UTF-8"?>
<svg xmlns="http://www.w3.org/2000/svg" viewBox="0 0 1920 1080" width="1920" height="1080">
  <defs>
    <filter id="blur0" x="-50%" y="-50%" width="200%" height="200%">
      <feGaussianBlur in="SourceGraphic" stdDeviation="1"/>
    </filter>
    <filter id="blur1" x="-50%" y="-50%" width="200%" height="200%">
      <feGaussianBlur in="SourceGraphic" stdDeviation="3"/>
    </filter>
    <filter id="blur2" x="-50%" y="-50%" width="200%" height="200%">
      <feGaussianBlur in="SourceGraphic" stdDeviation="5"/>
    </filter>
    <filter id="blur3" x="-50%" y="-50%" width="200%" height="200%">
      <feGaussianBlur in="SourceGraphic" stdDeviation="7"/>
    </filter>
    <filter id="blur4" x="-50%" y="-50%" width="200%" height="200%">
      <feGaussianBlur in="SourceGraphic" stdDeviation="9"/>
    </filter>
    <filter id="shadow" x="-50%" y="-50%" width="200%" height="200%">
      <feGaussianBlur in="SourceAlpha" stdDeviation="3" result="blur"/>
      <feOffset in="blur" dx="4" dy="4" result="offsetBlur"/>
      <feMerge>
        <feMergeNode in="offsetBlur"/>
        <feMergeNode in="SourceGraphic"/>
      </feMerge>
    </filter>
    <linearGradient id="lgrad0" x1="0%" y1="0%" x2="1.4%" y2="61.7%">
      <stop offset="0%" stop-color="#FF6B6B"/>
      <stop offset="33%" stop-color="#4ECDC4"/>
      <stop offset="66%" stop-color="#45B7D1"/>
      <stop offset="100%" stop-color="#96E6A1"/>
    </linearGradient>
    <linearGradient id="lgrad1" x1="0%" y1="0%" x2="2.1%" y2="35.8%">
      <stop offset="0%" stop-color="#FFE66D"/>
      <stop offset="33%" stop-color="#FF6B6B"/>
      <stop offset="66%" stop-color="#C44D58"/>
      <stop offset="100%" stop-color="#8B0000"/>
    </linearGradient>
    <linearGradient id="lgrad2" x1="0%" y1="0%" x2="15.6%" y2="13.7%">
      <stop offset="0%" stop-color="#4169E1"/>
      <stop offset="33%" stop-color="#7B68EE"/>
      <stop offset="66%" stop-color="#9370DB"/>
      <stop offset="100%" stop-color="#FFD700"/>
    </linearGradient>
    <linearGradient id="lgrad3" x1="0%" y1="0%" x2="38.3%" y2="1.4%">
      <stop offset="0%" stop-color="#32CD32"/>
      <stop offset="33%" stop-color="#228B22"/>
      <stop offset="66%" stop-color="#006400"/>
      <stop offset="100%" stop-color="#ADFF2F"/>
    </linearGradient>
    <linearGradient id="lgrad4" x1="0%" y1="0%" x2="64.2%" y2="2.1%">
      <stop offset="0%" stop-color="#FF1493"/>
      <stop offset="33%" stop-color="#FF69B4"/>
      <stop offset="66%" stop-color="#FFB6C1"/>
      <stop offset="100%" stop-color="#FFC0CB"/>
    </linearGradient>
    <radialGradient id="rgrad0" cx="38.9%" cy="62.6%" r="60%">
      <stop offset="0%" stop-color="#FF6B6B" stop-opacity="1"/>
      <stop offset="50%" stop-color="#4ECDC4" stop-opacity="0.8"/>
      <stop offset="100%" stop-color="#45B7D1" stop-opacity="0.6"/>
    </radialGradient>
    <radialGradient id="rgrad1" cx="48.9%" cy="30.6%" r="60%">
      <stop offset="0%" stop-color="#FFE66D" stop-opacity="1"/>
      <stop offset="50%" stop-color="#FF6B6B" stop-opacity="0.8"/>
      <stop offset="100%" stop-color="#C44D58" stop-opacity="0.6"/>
    </radialGradient>
    <radialGradient id="rgrad2" cx="58.9%" cy="38.6%" r="60%">
      <stop offset="0%" stop-color="#4169E1" stop-opacity="1"/>
      <stop offset="50%" stop-color="#7B68EE" stop-opacity="0.8"/>
      <stop offset="100%" stop-color="#9370DB" stop-opacity="0.6"/>
    </radialGradient>
    <radialGradient id="rgrad3" cx="68.9%" cy="46.6%" r="60%">
      <stop offset="0%" stop-color="#32CD32" stop-opacity="1"/>
      <stop offset="50%" stop-color="#228B22" stop-opacity="0.8"/>
      <stop offset="100%" stop-color="#006400" stop-opacity="0.6"/>
    </radialGradient>
    <radialGradient id="rgrad4" cx="38.9%" cy="54.6%" r="60%">
      <stop offset="0%" stop-color="#FF1493" stop-opacity="1"/>
      <stop offset="50%" stop-color="#FF69B4" stop-opacity="0.8"/>
      <stop offset="100%" stop-color="#FFB6C1" stop-opacity="0.6"/>
    </radialGradient>
    <clipPath id="clipCircle">
      <circle cx="0" cy="0" r="50"/>
    </clipPath>
    <clipPath id="clipStar">
      <path d="M0.0,-50.0 L14.7,-20.2 L47.6,-15.5 L23.8,7.7 L29.4,40.5 L0.0,25.0 L-29.4,40.5 L-23.8,7.7 L-47.6,-15.5 L-14.7,-20.2Z"/>
    </clipPath>
    <clipPath id="clipHex">
      <path d="M39.0,22.5 L0.0,45.0 L-39.0,22.5 L-39.0,-22.5 L-0.0,-45.0 L39.0,-22.5Z"/>
    </clipPath>
    <clipPath id="clipRect">
      <rect x="-40" y="-30" width="80" height="60" rx="10"/>
    </clipPath>
    <clipPath id="clipDynamic">
      <circle cx="0" cy="0" r="31.5"/>
    </clipPath>
    <mask id="maskGradient" maskContentUnits="objectBoundingBox">
      <rect x="0" y="0" width="1" height="1" fill="url(#maskGrad)"/>
    </mask>
    <linearGradient id="maskGrad" x1="0%" y1="0%" x2="100%" y2="100%">
      <stop offset="0%" stop-color="white"/>
      <stop offset="100%" stop-color="black"/>
    </linearGradient>
    <mask id="maskCircleFade">
      <circle cx="0" cy="0" r="60" fill="white"/>
      <circle cx="0" cy="0" r="30" fill="black"/>
    </mask>
    <mask id="maskStripes">
      <rect x="-50" y="-50" width="100" height="100" fill="white"/>
      <rect x="-50" y="-40" width="100" height="10" fill="black"/>
      <rect x="-50" y="-20" width="100" height="10" fill="black"/>
      <rect x="-50" y="0" width="100" height="10" fill="black"/>
      <rect x="-50" y="20" width="100" height="10" fill="black"/>
      <rect x="-50" y="40" width="100" height="10" fill="black"/>
    </mask>
    <mask id="maskDynamic">
      <rect x="-60" y="-60" width="120" height="120" fill="white" fill-opacity="0.38"/>
      <circle cx="0" cy="0" r="25" fill="white"/>
    </mask>
  </defs>
  <rect width="1920" height="1080" fill="url(#lgrad0)"/>
  <g transform="translate(93.1, 124.3)">
      <g transform="translate(-1.15,3.89) rotate(0.58) scale(1.000)">
        <g transform="translate(1.32,3.99) rotate(-0.84) scale(0.980)">
        <g transform="translate(3.47,3.73) rotate(-4.20) scale(0.960)">
        <g transform="translate(4.77,3.14) rotate(-9.30) scale(0.940)" clip-path="url(#clipCircle)">
        <g transform="translate(4.90,2.27) rotate(-15.79) scale(0.920)">
        <g transform="translate(3.84,1.20) rotate(-23.19) scale(0.900)">
        <g transform="translate(1.83,0.01) rotate(-30.93) scale(0.880)">
        <path d="M0.0,-61.7 L18.1,-25.0 L58.7,-19.1 L29.4,9.5 L36.3,49.9 L0.0,30.9 L-36.3,49.9 L-29.4,9.5 L-58.7,-19.1 L-18.1,-25.0Z" fill="url(#lgrad0)" filter="url(#blur0)" opacity="0.55"/>
      </g>
      </g>
      </g>
      </g>
      </g>
      </g>
      </g>
  </g>
  <g transform="translate(327.9, 122.3)">
      <g transform="translate(3.47,2.88) rotate(0.58) scale(1.000)">
        <g transform="translate(4.77,1.93) rotate(-0.84) scale(0.980)">
        <g transform="translate(4.90,0.81) rotate(-4.20) scale(0.960)">
        <g transform="translate(3.84,-0.39) rotate(-9.30) scale(0.940)">
        <g transform="translate(1.83,-1.54) rotate(-15.79) scale(0.920)">
        <g transform="translate(-0.63,-2.57) rotate(-23.19) scale(0.900)" mask="url(#maskCircleFade)">
        <g transform="translate(-2.93,-3.36) rotate(-30.93) scale(0.880)">
        <rect x="-24.2" y="-24.2" width="48.4" height="48.4" rx="12.1" fill="url(#rgrad1)" filter="url(#shadow)" opacity="0.43"/>
        <circle cx="0" cy="0" r="16.1" fill="url(#rgrad2)" opacity="0.30"/>
      </g>
      </g>
      </g>
      </g>
      </g>
      </g>
      </g>
  </g>
  <g transform="translate(560.8, 109.8)">
      <g transform="translate(4.90,-0.78) rotate(0.58) scale(1.000)">
        <g transform="translate(3.84,-1.91) rotate(-0.84) scale(0.980)">
        <g transform="translate(1.83,-2.86) rotate(-4.20) scale(0.960)">
        <g transform="translate(-0.63,-3.56) rotate(-9.30) scale(0.940)">
        <g transform="translate(-2.93,-3.94) rotate(-15.79) scale(0.920)">
        <g transform="translate(-4.51,-3.97) rotate(-23.19) scale(0.900)">
        <g transform="translate(-4.99,-3.64) rotate(-30.93) scale(0.880)">
        <path d="M23.8,13.7 L0.0,27.4 L-23.8,13.7 L-23.8,-13.7 L-0.0,-27.4 L23.8,-13.7Z" fill="url(#rgrad2)" filter="url(#blur2)" opacity="0.31"/>
        <ellipse cx="0" cy="0" rx="11.4" ry="7.6" fill="#FFFFFF" opacity="0.16"/>
      </g>
      </g>
      </g>
      </g>
      </g>
      </g>
      </g>
  </g>
  <g transform="translate(788.6, 92.7)">
      <g transform="translate(1.83,-3.72) rotate(0.58) scale(1.000)">
        <g transform="translate(-0.63,-3.99) rotate(-0.84) scale(0.980)">
        <g transform="translate(-2.93,-3.90) rotate(-4.20) scale(0.960)">
        <g transform="translate(-4.51,-3.46) rotate(-9.30) scale(0.940)" clip-path="url(#clipRect)">
        <g transform="translate(-4.99,-2.71) rotate(-15.79) scale(0.920)">
        <g transform="translate(-4.25,-1.72) rotate(-23.19) scale(0.900)">
        <g transform="translate(-2.47,-0.58) rotate(-30.93) scale(0.880)">
        <circle cx="0" cy="0" r="28.1" fill="url(#lgrad3)" filter="url(#shadow)" opacity="0.22"/>
        <text x="0" y="5" text-anchor="middle" font-family="Arial, sans-serif" font-size="14" fill="#FFFFFF" opacity="0.22">963</text>
      </g>
      </g>
      </g>
      </g>
      </g>
      </g>
      </g>
  </g>
  <g transform="translate(1009.4, 79.0)">
      <g transform="translate(-2.93,-3.24) rotate(0.58) scale(1.000)">
        <g transform="translate(-4.51,-2.41) rotate(-0.84) scale(0.980)">
        <g transform="translate(-4.99,-1.35) rotate(-4.20) scale(0.960)">
        <g transform="translate(-4.25,-0.18) rotate(-9.30) scale(0.940)">
        <g transform="translate(-2.47,1.01) rotate(-15.79) scale(0.920)">
        <g transform="translate(-0.08,2.11) rotate(-23.19) scale(0.900)" mask="url(#maskGradient)">
        <g transform="translate(2.33,3.02) rotate(-30.93) scale(0.880)">
        <path d="M0.0,-70.1 L20.6,-28.4 L66.7,-21.7 L33.4,10.8 L41.2,56.7 L0.0,35.1 L-41.2,56.7 L-33.4,10.8 L-66.7,-21.7 L-20.6,-28.4Z" fill="url(#rgrad4)" filter="url(#blur4)" opacity="0.15"/>
      </g>
      </g>
      </g>
      </g>
      </g>
      </g>
      </g>
  </g>
  <g transform="translate(1223.0, 75.2)">
      <g transform="translate(-4.99,0.22) rotate(0.58) scale(1.000)">
        <g transform="translate(-4.25,1.39) rotate(-0.84) scale(0.980)">
        <g transform="translate(-2.47,2.44) rotate(-4.20) scale(0.960)">
        <g transform="translate(-0.08,3.27) rotate(-9.30) scale(0.940)">
        <g transform="translate(2.33,3.80) rotate(-15.79) scale(0.920)">
        <g transform="translate(4.16,4.00) rotate(-23.19) scale(0.900)">
        <g transform="translate(4.98,3.84) rotate(-30.93) scale(0.880)">
        <rect x="-37.4" y="-37.4" width="74.8" height="74.8" rx="18.7" fill="url(#rgrad0)" filter="url(#shadow)" opacity="0.11"/>
        <circle cx="0" cy="0" r="24.9" fill="url(#rgrad1)" opacity="0.07"/>
      </g>
      </g>
      </g>
      </g>
      </g>
      </g>
      </g>
  </g>
  <g transform="translate(1431.0, 83.0)">
      <g transform="translate(-2.47,3.48) rotate(0.58) scale(1.000)">
        <g transform="translate(-0.08,3.91) rotate(-0.84) scale(0.980)">
        <g transform="translate(2.33,3.99) rotate(-4.20) scale(0.960)">
        <g transform="translate(4.16,3.71) rotate(-9.30) scale(0.940)" clip-path="url(#clipStar)">
        <g transform="translate(4.98,3.10) rotate(-15.79) scale(0.920)">
        <g transform="translate(4.58,2.21) rotate(-23.19) scale(0.900)">
        <g transform="translate(3.06,1.13) rotate(-30.93) scale(0.880)">
        <path d="M34.2,19.8 L0.0,39.5 L-34.2,19.8 L-34.2,-19.8 L-0.0,-39.5 L34.2,-19.8Z" fill="url(#lgrad1)" filter="url(#blur1)" opacity="0.10"/>
        <ellipse cx="0" cy="0" rx="16.5" ry="11.0" fill="#FFFFFF" opacity="0.05"/>
      </g>
      </g>
      </g>
      </g>
      </g>
      </g>
      </g>
  </g>
  <g transform="translate(1636.2, 98.9)">
      <g transform="translate(2.33,3.54) rotate(0.58) scale(1.000)">
        <g transform="translate(4.16,2.83) rotate(-0.84) scale(0.980)">
        <g transform="translate(4.98,1.87) rotate(-4.20) scale(0.960)">
        <g transform="translate(4.58,0.74) rotate(-9.30) scale(0.940)">
        <g transform="translate(3.06,-0.45) rotate(-15.79) scale(0.920)">
        <g transform="translate(0.78,-1.61) rotate(-23.19) scale(0.900)" mask="url(#maskDynamic)">
        <g transform="translate(-1.68,-2.62) rotate(-30.93) scale(0.880)">
        <circle cx="0" cy="0" r="25.8" fill="url(#rgrad2)" filter="url(#shadow)" opacity="0.13"/>
        <text x="0" y="5" text-anchor="middle" font-family="Arial, sans-serif" font-size="14" fill="#FFFFFF" opacity="0.13">963</text>
      </g>
      </g>
      </g>
      </g>
      </g>
      </g>
      </g>
  </g>
  <g transform="translate(82.4, 395.2)">
      <g transform="translate(4.98,0.35) rotate(0.58) scale(1.000)">
        <g transform="translate(4.58,-0.85) rotate(-0.84) scale(0.980)">
        <g transform="translate(3.06,-1.96) rotate(-4.20) scale(0.960)">
        <g transform="translate(0.78,-2.91) rotate(-9.30) scale(0.940)">
        <g transform="translate(-1.68,-3.59) rotate(-15.79) scale(0.920)">
        <g transform="translate(-3.73,-3.95) rotate(-23.19) scale(0.900)">
        <g transform="translate(-4.87,-3.96) rotate(-30.93) scale(0.880)">
        <path d="M0.0,-45.0 L13.2,-18.2 L42.8,-13.9 L21.4,7.0 L26.5,36.4 L0.0,22.5 L-26.5,36.4 L-21.4,7.0 L-42.8,-13.9 L-13.2,-18.2Z" fill="url(#rgrad3)" filter="url(#blur3)" opacity="0.20"/>
      </g>
      </g>
      </g>
      </g>
      </g>
      </g>
      </g>
  </g>
  <g transform="translate(292.9, 404.4)">
      <g transform="translate(3.06,-3.17) rotate(0.58) scale(1.000)">
        <g transform="translate(0.78,-3.75) rotate(-0.84) scale(0.980)">
        <g transform="translate(-1.68,-3.99) rotate(-4.20) scale(0.960)">
        <g transform="translate(-3.73,-3.88) rotate(-9.30) scale(0.940)" clip-path="url(#clipDynamic)">
        <g transform="translate(-4.87,-3.43) rotate(-15.79) scale(0.920)">
        <g transform="translate(-4.82,-2.66) rotate(-23.19) scale(0.900)">
        <g transform="translate(-3.58,-1.66) rotate(-30.93) scale(0.880)">
        <rect x="-26.1" y="-26.1" width="52.3" height="52.3" rx="13.1" fill="url(#lgrad4)" filter="url(#shadow)" opacity="0.29"/>
        <circle cx="0" cy="0" r="17.4" fill="url(#rgrad0)" opacity="0.20"/>
      </g>
      </g>
      </g>
      </g>
      </g>
      </g>
      </g>
  </g>
  <g transform="translate(510.0, 402.1)">
      <g transform="translate(-1.68,-3.77) rotate(0.58) scale(1.000)">
        <g transform="translate(-3.73,-3.20) rotate(-0.84) scale(0.980)">
        <g transform="translate(-4.87,-2.35) rotate(-4.20) scale(0.960)">
        <g transform="translate(-4.82,-1.29) rotate(-9.30) scale(0.940)">
        <g transform="translate(-3.58,-0.11) rotate(-15.79) scale(0.920)">
        <g transform="translate(-1.47,1.07) rotate(-23.19) scale(0.900)" mask="url(#maskStripes)">
        <g transform="translate(1.00,2.16) rotate(-30.93) scale(0.880)">
        <path d="M34.6,20.0 L0.0,40.0 L-34.6,20.0 L-34.6,-20.0 L-0.0,-40.0 L34.6,-20.0Z" fill="url(#rgrad0)" filter="url(#blur0)" opacity="0.40"/>
        <ellipse cx="0" cy="0" rx="16.7" ry="11.1" fill="#FFFFFF" opacity="0.20"/>
      </g>
      </g>
      </g>
      </g>
      </g>
      </g>
      </g>
  </g>
  <g transform="translate(734.5, 389.4)">
      <g transform="translate(-4.87,-0.91) rotate(0.58) scale(1.000)">
        <g transform="translate(-4.82,0.29) rotate(-0.84) scale(0.980)">
        <g transform="translate(-3.58,1.45) rotate(-4.20) scale(0.960)">
        <g transform="translate(-1.47,2.49) rotate(-9.30) scale(0.940)">
        <g transform="translate(1.00,3.30) rotate(-15.79) scale(0.920)">
        <g transform="translate(3.22,3.82) rotate(-23.19) scale(0.900)">
        <g transform="translate(4.66,4.00) rotate(-30.93) scale(0.880)">
        <circle cx="0" cy="0" r="37.5" fill="url(#rgrad1)" filter="url(#shadow)" opacity="0.52"/>
        <text x="0" y="5" text-anchor="middle" font-family="Arial, sans-serif" font-size="14" fill="#FFFFFF" opacity="0.52">963</text>
      </g>
      </g>
      </g>
      </g>
      </g>
      </g>
      </g>
  </g>
  <g transform="translate(965.2, 372.3)">
      <g transform="translate(-3.58,2.79) rotate(0.58) scale(1.000)">
        <g transform="translate(-1.47,3.51) rotate(-0.84) scale(0.980)">
        <g transform="translate(1.00,3.92) rotate(-4.20) scale(0.960)">
        <g transform="translate(3.22,3.98) rotate(-9.30) scale(0.940)" clip-path="url(#clipHex)">
        <g transform="translate(4.66,3.68) rotate(-15.79) scale(0.920)">
        <g transform="translate(4.96,3.06) rotate(-23.19) scale(0.900)">
        <g transform="translate(4.04,2.16) rotate(-30.93) scale(0.880)">
        <path d="M0.0,-69.5 L20.4,-28.1 L66.1,-21.5 L33.0,10.7 L40.8,56.2 L0.0,34.7 L-40.8,56.2 L-33.0,10.7 L-66.1,-21.5 L-20.4,-28.1Z" fill="url(#lgrad2)" filter="url(#blur2)" opacity="0.63"/>
      </g>
      </g>
      </g>
      </g>
      </g>
      </g>
      </g>
  </g>
  <g transform="translate(1199.5, 358.8)">
      <g transform="translate(1.00,3.92) rotate(0.58) scale(1.000)">
        <g transform="translate(3.22,3.51) rotate(-0.84) scale(0.980)">
        <g transform="translate(4.66,2.78) rotate(-4.20) scale(0.960)">
        <g transform="translate(4.96,1.81) rotate(-9.30) scale(0.940)">
        <g transform="translate(4.04,0.68) rotate(-15.79) scale(0.920)">
        <g transform="translate(2.13,-0.52) rotate(-23.19) scale(0.900)" mask="url(#maskCircleFade)">
        <g transform="translate(-0.30,-1.67) rotate(-30.93) scale(0.880)">
        <rect x="-27.7" y="-27.7" width="55.3" height="55.3" rx="13.8" fill="url(#rgrad3)" filter="url(#shadow)" opacity="0.74"/>
        <circle cx="0" cy="0" r="18.4" fill="url(#rgrad4)" opacity="0.52"/>
      </g>
      </g>
      </g>
      </g>
      </g>
      </g>
      </g>
  </g>
  <g transform="translate(1434.0, 355.3)">
      <g transform="translate(4.66,1.45) rotate(0.58) scale(1.000)">
        <g transform="translate(4.96,0.28) rotate(-0.84) scale(0.980)">
        <g transform="translate(4.04,-0.91) rotate(-4.20) scale(0.960)">
        <g transform="translate(2.13,-2.02) rotate(-9.30) scale(0.940)">
        <g transform="translate(-0.30,-2.95) rotate(-15.79) scale(0.920)">
        <g transform="translate(-2.65,-3.62) rotate(-23.19) scale(0.900)">
        <g transform="translate(-4.36,-3.96) rotate(-30.93) scale(0.880)">
        <path d="M23.6,13.6 L0.0,27.3 L-23.6,13.6 L-23.6,-13.6 L-0.0,-27.3 L23.6,-13.6Z" fill="url(#rgrad4)" filter="url(#blur4)" opacity="0.82"/>
        <ellipse cx="0" cy="0" rx="11.4" ry="7.6" fill="#FFFFFF" opacity="0.41"/>
      </g>
      </g>
      </g>
      </g>
      </g>
      </g>
      </g>
  </g>
  <g transform="translate(1665.0, 363.4)">
      <g transform="translate(4.04,-2.36) rotate(0.58) scale(1.000)">
        <g transform="translate(2.13,-3.21) rotate(-0.84) scale(0.980)">
        <g transform="translate(-0.30,-3.77) rotate(-4.20) scale(0.960)">
        <g transform="translate(-2.65,-4.00) rotate(-9.30) scale(0.940)" clip-path="url(#clipCircle)">
        <g transform="translate(-4.36,-3.87) rotate(-15.79) scale(0.920)">
        <g transform="translate(-5.00,-3.39) rotate(-23.19) scale(0.900)">
        <g transform="translate(-4.42,-2.61) rotate(-30.93) scale(0.880)">
        <circle cx="0" cy="0" r="24.5" fill="url(#lgrad0)" filter="url(#shadow)" opacity="0.88"/>
        <text x="0" y="5" text-anchor="middle" font-family="Arial, sans-serif" font-size="14" fill="#FFFFFF" opacity="0.88">963</text>
      </g>
      </g>
      </g>
      </g>
      </g>
      </g>
      </g>
  </g>
  <g transform="translate(129.9, 659.3)">
      <g transform="translate(-0.30,-3.99) rotate(0.58) scale(1.000)">
        <g transform="translate(-2.65,-3.74) rotate(-0.84) scale(0.980)">
        <g transform="translate(-4.36,-3.16) rotate(-4.20) scale(0.960)">
        <g transform="translate(-5.00,-2.30) rotate(-9.30) scale(0.940)">
        <g transform="translate(-4.42,-1.23) rotate(-15.79) scale(0.920)">
        <g transform="translate(-2.75,-0.05) rotate(-23.19) scale(0.900)" mask="url(#maskGradient)">
        <g transform="translate(-0.41,1.14) rotate(-30.93) scale(0.880)">
        <path d="M0.0,-62.6 L18.4,-25.3 L59.6,-19.4 L29.8,9.7 L36.8,50.7 L0.0,31.3 L-36.8,50.7 L-29.8,9.7 L-59.6,-19.4 L-18.4,-25.3Z" fill="url(#rgrad1)" filter="url(#blur1)" opacity="0.90"/>
      </g>
      </g>
      </g>
      </g>
      </g>
      </g>
      </g>
  </g>
  <g transform="translate(347.5, 675.6)">
      <g transform="translate(-4.36,-1.96) rotate(0.58) scale(1.000)">
        <g transform="translate(-5.00,-0.84) rotate(-0.84) scale(0.980)">
        <g transform="translate(-4.42,0.35) rotate(-4.20) scale(0.960)">
        <g transform="translate(-2.75,1.52) rotate(-9.30) scale(0.940)">
        <g transform="translate(-0.41,2.54) rotate(-15.79) scale(0.920)">
        <g transform="translate(2.03,3.34) rotate(-23.19) scale(0.900)">
        <g transform="translate(3.97,3.84) rotate(-30.93) scale(0.880)">
        <rect x="-36.9" y="-36.9" width="73.8" height="73.8" rx="18.5" fill="url(#rgrad2)" filter="url(#shadow)" opacity="0.89"/>
        <circle cx="0" cy="0" r="24.6" fill="url(#rgrad3)" opacity="0.62"/>
      </g>
      </g>
      </g>
      </g>
      </g>
      </g>
      </g>
  </g>
  <g transform="translate(558.3, 684.5)">
      <g transform="translate(-4.42,1.88) rotate(0.58) scale(1.000)">
        <g transform="translate(-2.75,2.84) rotate(-0.84) scale(0.980)">
        <g transform="translate(-0.41,3.54) rotate(-4.20) scale(0.960)">
        <g transform="translate(2.03,3.93) rotate(-9.30) scale(0.940)" clip-path="url(#clipRect)">
        <g transform="translate(3.97,3.97) rotate(-15.79) scale(0.920)">
        <g transform="translate(4.94,3.66) rotate(-23.19) scale(0.900)">
        <g transform="translate(4.70,3.01) rotate(-30.93) scale(0.880)">
        <path d="M37.6,21.7 L0.0,43.4 L-37.6,21.7 L-37.6,-21.7 L-0.0,-43.4 L37.6,-21.7Z" fill="url(#lgrad3)" filter="url(#blur3)" opacity="0.84"/>
        <ellipse cx="0" cy="0" rx="18.1" ry="12.1" fill="#FFFFFF" opacity="0.42"/>
      </g>
      </g>
      </g>
      </g>
      </g>
      </g>
      </g>
  </g>
  <g transform="translate(764.7, 681.9)">
      <g transform="translate(-0.41,3.99) rotate(0.58) scale(1.000)">
        <g transform="translate(2.03,3.91) rotate(-0.84) scale(0.980)">
        <g transform="translate(3.97,3.48) rotate(-4.20) scale(0.960)">
        <g transform="translate(4.94,2.74) rotate(-9.30) scale(0.940)">
        <g transform="translate(4.70,1.75) rotate(-15.79) scale(0.920)">
        <g transform="translate(3.31,0.61) rotate(-23.19) scale(0.900)" mask="url(#maskDynamic)">
        <g transform="translate(1.11,-0.59) rotate(-30.93) scale(0.880)">
        <circle cx="0" cy="0" r="29.7" fill="url(#rgrad4)" filter="url(#shadow)" opacity="0.76"/>
        <text x="0" y="5" text-anchor="middle" font-family="Arial, sans-serif" font-size="14" fill="#FFFFFF" opacity="0.76">963</text>
      </g>
      </g>
      </g>
      </g>
      </g>
      </g>
      </g>
  </g>
  <g transform="translate(969.9, 669.0)">
      <g transform="translate(3.97,2.43) rotate(0.58) scale(1.000)">
        <g transform="translate(4.94,1.38) rotate(-0.84) scale(0.980)">
        <g transform="translate(4.70,0.21) rotate(-4.20) scale(0.960)">
        <g transform="translate(3.31,-0.98) rotate(-9.30) scale(0.940)">
        <g transform="translate(1.11,-2.08) rotate(-15.79) scale(0.920)">
        <g transform="translate(-1.36,-3.00) rotate(-23.19) scale(0.900)">
        <g transform="translate(-3.50,-3.65) rotate(-30.93) scale(0.880)">
        <path d="M0.0,-47.1 L13.8,-19.1 L44.8,-14.6 L22.4,7.3 L27.7,38.1 L0.0,23.6 L-27.7,38.1 L-22.4,7.3 L-44.8,-14.6 L-13.8,-19.1Z" fill="url(#rgrad0)" filter="url(#blur0)" opacity="0.66"/>
      </g>
      </g>
      </g>
      </g>
      </g>
      </g>
      </g>
  </g>
  <g transform="translate(1177.6, 651.9)">
      <g transform="translate(4.70,-1.36) rotate(0.58) scale(1.000)">
        <g transform="translate(3.31,-2.41) rotate(-0.84) scale(0.980)">
        <g transform="translate(1.11,-3.25) rotate(-4.20) scale(0.960)">
        <g transform="translate(-1.36,-3.79) rotate(-9.30) scale(0.940)" clip-path="url(#clipStar)">
        <g transform="translate(-3.50,-4.00) rotate(-15.79) scale(0.920)">
        <g transform="translate(-4.78,-3.85) rotate(-23.19) scale(0.900)">
        <g transform="translate(-4.89,-3.35) rotate(-30.93) scale(0.880)">
        <rect x="-23.3" y="-23.3" width="46.6" height="46.6" rx="11.6" fill="url(#lgrad1)" filter="url(#shadow)" opacity="0.54"/>
        <circle cx="0" cy="0" r="15.5" fill="url(#rgrad2)" opacity="0.38"/>
      </g>
      </g>
      </g>
      </g>
      </g>
      </g>
      </g>
  </g>
  <g transform="translate(1390.8, 638.6)">
      <g transform="translate(1.11,-3.90) rotate(0.58) scale(1.000)">
        <g transform="translate(-1.36,-3.99) rotate(-0.84) scale(0.980)">
        <g transform="translate(-3.50,-3.72) rotate(-4.20) scale(0.960)">
        <g transform="translate(-4.78,-3.12) rotate(-9.30) scale(0.940)">
        <g transform="translate(-4.89,-2.24) rotate(-15.79) scale(0.920)">
        <g transform="translate(-3.81,-1.16) rotate(-23.19) scale(0.900)" mask="url(#maskStripes)">
        <g transform="translate(-1.79,0.02) rotate(-30.93) scale(0.880)">
        <path d="M30.3,17.5 L0.0,35.0 L-30.3,17.5 L-30.3,-17.5 L-0.0,-35.0 L30.3,-17.5Z" fill="url(#rgrad2)" filter="url(#blur2)" opacity="0.42"/>
        <ellipse cx="0" cy="0" rx="14.6" ry="9.7" fill="#FFFFFF" opacity="0.21"/>
      </g>
      </g>
      </g>
      </g>
      </g>
      </g>
      </g>
  </g>
  <g transform="translate(1611.1, 635.3)">
      <g transform="translate(-3.50,-2.85) rotate(0.58) scale(1.000)">
        <g transform="translate(-4.78,-1.90) rotate(-0.84) scale(0.980)">
        <g transform="translate(-4.89,-0.77) rotate(-4.20) scale(0.960)">
        <g transform="translate(-3.81,0.42) rotate(-9.30) scale(0.940)">
        <g transform="translate(-1.79,1.58) rotate(-15.79) scale(0.920)">
        <g transform="translate(0.67,2.59) rotate(-23.19) scale(0.900)">
        <g transform="translate(2.96,3.38) rotate(-30.93) scale(0.880)">
        <circle cx="0" cy="0" r="35.8" fill="url(#rgrad3)" filter="url(#shadow)" opacity="0.31"/>
        <text x="0" y="5" text-anchor="middle" font-family="Arial, sans-serif" font-size="14" fill="#FFFFFF" opacity="0.31">963</text>
      </g>
      </g>
      </g>
      </g>
      </g>
      </g>
      </g>
  </g>
  <g transform="translate(78.5, 923.7)">
      <g transform="translate(-4.89,0.82) rotate(0.58) scale(1.000)">
        <g transform="translate(-3.81,1.94) rotate(-0.84) scale(0.980)">
        <g transform="translate(-1.79,2.88) rotate(-4.20) scale(0.960)">
        <g transform="translate(0.67,3.57) rotate(-9.30) scale(0.940)" clip-path="url(#clipDynamic)">
        <g transform="translate(2.96,3.95) rotate(-15.79) scale(0.920)">
        <g transform="translate(4.53,3.96) rotate(-23.19) scale(0.900)">
        <g transform="translate(4.99,3.63) rotate(-30.93) scale(0.880)">
        <path d="M0.0,-74.2 L21.8,-30.0 L70.6,-22.9 L35.3,11.5 L43.6,60.1 L0.0,37.1 L-43.6,60.1 L-35.3,11.5 L-70.6,-22.9 L-21.8,-30.0Z" fill="url(#lgrad4)" filter="url(#blur4)" opacity="0.21"/>
      </g>
      </g>
      </g>
      </g>
      </g>
      </g>
      </g>
  </g>
  <g transform="translate(276.9, 377.8)" mask="url(#maskGradient)">
    <ellipse cx="0" cy="0" rx="200" ry="150" fill="url(#rgrad0)" filter="url(#blur3)" opacity="0.3"/>
  </g>
  <g transform="translate(869.4, 371.4)" mask="url(#maskCircleFade)">
    <ellipse cx="0" cy="0" rx="200" ry="150" fill="url(#rgrad1)" filter="url(#blur3)" opacity="0.3"/>
  </g>
  <g transform="translate(1398.1, 331.4)" mask="url(#maskStripes)">
    <ellipse cx="0" cy="0" rx="200" ry="150" fill="url(#rgrad2)" filter="url(#blur3)" opacity="0.3"/>
  </g>
</svg>