<?xml version="1.0" encoding="UTF-8"?>
<svg xmlns="http://www.w3.org/2000/svg" viewBox="0 0 1920 1080" width="1920" height="1080">
  <defs>
    <filter id="blur0" x="-50%" y="-50%" width="200%" height="200%">
      <feGaussianBlur in="SourceGraphic" stdDeviation="1"/>
    </filter>
    <filter id="blur1" x="-50%" y="-50%" width="200%" height="200%">
      <feGaussianBlur in="SourceGraphic" stdDeviation="3"/>
    </filter>
    <filter id="blur2" x="-50%" y="-50%" width="200%" height="200%">
      <feGaussianBlur in="SourceGraphic" stdDeviation="5"/>
    </filter>
    <filter id="blur3" x="-50%" y="-50%" width="200%" height="200%">
      <feGaussianBlur in="SourceGraphic" stdDeviation="7"/>
    </filter>
    <filter id="blur4" x="-50%" y="-50%" width="200%" height="200%">
      <feGaussianBlur in="SourceGraphic" stdDeviation="9"/>
    </filter>
    <filter id="shadow" x="-50%" y="-50%" width="200%" height="200%">
      <feGaussianBlur in="SourceAlpha" stdDeviation="3" result="blur"/>
      <feOffset in="blur" dx="4" dy="4" result="offsetBlur"/>
      <feMerge>
        <feMergeNode in="offsetBlur"/>
        <feMergeNode in="SourceGraphic"/>
      </feMerge>
    </filter>
    <linearGradient id="lgrad0" x1="0%" y1="0%" x2="0.6%" y2="42.2%">
      <stop offset="0%" stop-color="#FF6B6B"/>
      <stop offset="33%" stop-color="#4ECDC4"/>
      <stop offset="66%" stop-color="#45B7D1"/>
      <stop offset="100%" stop-color="#96E6A1"/>
    </linearGradient>
    <linearGradient id="lgrad1" x1="0%" y1="0%" x2="11.1%" y2="18.5%">
      <stop offset="0%" stop-color="#FFE66D"/>
      <stop offset="33%" stop-color="#FF6B6B"/>
      <stop offset="66%" stop-color="#C44D58"/>
      <stop offset="100%" stop-color="#8B0000"/>
    </linearGradient>
    <linearGradient id="lgrad2" x1="0%" y1="0%" x2="32.1%" y2="3.3%">
      <stop offset="0%" stop-color="#4169E1"/>
      <stop offset="33%" stop-color="#7B68EE"/>
      <stop offset="66%" stop-color="#9370DB"/>
      <stop offset="100%" stop-color="#FFD700"/>
    </linearGradient>
    <linearGradient id="lgrad3" x1="0%" y1="0%" x2="57.8%" y2="0.6%">
      <stop offset="0%" stop-color="#32CD32"/>
      <stop offset="33%" stop-color="#228B22"/>
      <stop offset="66%" stop-color="#006400"/>
      <stop offset="100%" stop-color="#ADFF2F"/>
    </linearGradient>
    <linearGradient id="lgrad4" x1="0%" y1="0%" x2="81.5%" y2="11.1%">
      <stop offset="0%" stop-color="#FF1493"/>
      <stop offset="33%" stop-color="#FF69B4"/>
      <stop offset="66%" stop-color="#FFB6C1"/>
      <stop offset="100%" stop-color="#FFC0CB"/>
    </linearGradient>
    <radialGradient id="rgrad0" cx="36.4%" cy="47.6%" r="60%">
      <stop offset="0%" stop-color="#FF6B6B" stop-opacity="1"/>
      <stop offset="50%" stop-color="#4ECDC4" stop-opacity="0.8"/>
      <stop offset="100%" stop-color="#45B7D1" stop-opacity="0.6"/>
    </radialGradient>
    <radialGradient id="rgrad1" cx="46.4%" cy="55.6%" r="60%">
      <stop offset="0%" stop-color="#FFE66D" stop-opacity="1"/>
      <stop offset="50%" stop-color="#FF6B6B" stop-opacity="0.8"/>
      <stop offset="100%" stop-color="#C44D58" stop-opacity="0.6"/>
    </radialGradient>
    <radialGradient id="rgrad2" cx="56.4%" cy="63.6%" r="60%">
      <stop offset="0%" stop-color="#4169E1" stop-opacity="1"/>
      <stop offset="50%" stop-color="#7B68EE" stop-opacity="0.8"/>
      <stop offset="100%" stop-color="#9370DB" stop-opacity="0.6"/>
    </radialGradient>
    <radialGradient id="rgrad3" cx="66.4%" cy="31.6%" r="60%">
      <stop offset="0%" stop-color="#32CD32" stop-opacity="1"/>
      <stop offset="50%" stop-color="#228B22" stop-opacity="0.8"/>
      <stop offset="100%" stop-color="#006400" stop-opacity="0.6"/>
    </radialGradient>
    <radialGradient id="rgrad4" cx="36.4%" cy="39.6%" r="60%">
      <stop offset="0%" stop-color="#FF1493" stop-opacity="1"/>
      <stop offset="50%" stop-color="#FF69B4" stop-opacity="0.8"/>
      <stop offset="100%" stop-color="#FFB6C1" stop-opacity="0.6"/>
    </radialGradient>
    <clipPath id="clipCircle">
      <circle cx="0" cy="0" r="50"/>
    </clipPath>
    <clipPath id="clipStar">
      <path d="M0.0,-50.0 L14.7,-20.2 L47.6,-15.5 L23.8,7.7 L29.4,40.5 L0.0,25.0 L-29.4,40.5 L-23.8,7.7 L-47.6,-15.5 L-14.7,-20.2Z"/>
    </clipPath>
    <clipPath id="clipHex">
      <path d="M39.0,22.5 L0.0,45.0 L-39.0,22.5 L-39.0,-22.5 L-0.0,-45.0 L39.0,-22.5Z"/>
    </clipPath>
    <clipPath id="clipRect">
      <rect x="-40" y="-30" width="80" height="60" rx="10"/>
    </clipPath>
    <clipPath id="clipDynamic">
      <circle cx="0" cy="0" r="49.6"/>
    </clipPath>
    <mask id="maskGradient" maskContentUnits="objectBoundingBox">
      <rect x="0" y="0" width="1" height="1" fill="url(#maskGrad)"/>
    </mask>
    <linearGradient id="maskGrad" x1="0%" y1="0%" x2="100%" y2="100%">
      <stop offset="0%" stop-color="white"/>
      <stop offset="100%" stop-color="black"/>
    </linearGradient>
    <mask id="maskCircleFade">
      <circle cx="0" cy="0" r="60" fill="white"/>
      <circle cx="0" cy="0" r="30" fill="black"/>
    </mask>
    <mask id="maskStripes">
      <rect x="-50" y="-50" width="100" height="100" fill="white"/>
      <rect x="-50" y="-40" width="100" height="10" fill="black"/>
      <rect x="-50" y="-20" width="100" height="10" fill="black"/>
      <rect x="-50" y="0" width="100" height="10" fill="black"/>
      <rect x="-50" y="20" width="100" height="10" fill="black"/>
      <rect x="-50" y="40" width="100" height="10" fill="black"/>
    </mask>
    <mask id="maskDynamic">
      <rect x="-60" y="-60" width="120" height="120" fill="white" fill-opacity="0.85"/>
      <circle cx="0" cy="0" r="25" fill="white"/>
    </mask>
  </defs>
  <rect width="1920" height="1080" fill="url(#lgrad0)"/>
  <g transform="translate(129.2, 94.2)">
      <g transform="translate(4.86,-0.93) rotate(3.92) scale(1.000)">
        <g transform="translate(3.71,-2.04) rotate(8.92) scale(0.980)">
        <g transform="translate(1.65,-2.96) rotate(14.46) scale(0.960)">
        <g transform="translate(-0.81,-3.62) rotate(19.95) scale(0.940)" clip-path="url(#clipCircle)">
        <g transform="translate(-3.08,-3.96) rotate(24.78) scale(0.920)">
        <g transform="translate(-4.59,-3.95) rotate(28.36) scale(0.900)">
        <g transform="translate(-4.98,-3.58) rotate(30.17) scale(0.880)">
        <path d="M0.0,-71.8 L21.1,-29.0 L68.3,-22.2 L34.1,11.1 L42.2,58.1 L0.0,35.9 L-42.2,58.1 L-34.1,11.1 L-68.3,-22.2 L-21.1,-29.0Z" fill="url(#lgrad0)" filter="url(#blur0)" opacity="0.81"/>
      </g>
      </g>
      </g>
      </g>
      </g>
      </g>
      </g>
  </g>
  <g transform="translate(342.3, 79.9)">
      <g transform="translate(1.65,-3.78) rotate(3.92) scale(1.000)">
        <g transform="translate(-0.81,-4.00) rotate(8.92) scale(0.980)">
        <g transform="translate(-3.08,-3.86) rotate(14.46) scale(0.960)">
        <g transform="translate(-4.59,-3.38) rotate(19.95) scale(0.940)">
        <g transform="translate(-4.98,-2.60) rotate(24.78) scale(0.920)">
        <g transform="translate(-4.15,-1.58) rotate(28.36) scale(0.900)" mask="url(#maskCircleFade)">
        <g transform="translate(-2.30,-0.43) rotate(30.17) scale(0.880)">
        <rect x="-37.1" y="-37.1" width="74.2" height="74.2" rx="18.5" fill="url(#rgrad1)" filter="url(#shadow)" opacity="0.87"/>
        <circle cx="0" cy="0" r="24.7" fill="url(#rgrad2)" opacity="0.61"/>
      </g>
      </g>
      </g>
      </g>
      </g>
      </g>
      </g>
  </g>
  <g transform="translate(549.9, 75.1)">
      <g transform="translate(-3.08,-3.15) rotate(3.92) scale(1.000)">
        <g transform="translate(-4.59,-2.28) rotate(8.92) scale(0.980)">
        <g transform="translate(-4.98,-1.21) rotate(14.46) scale(0.960)">
        <g transform="translate(-4.15,-0.03) rotate(19.95) scale(0.940)">
        <g transform="translate(-2.30,1.15) rotate(24.78) scale(0.920)">
        <g transform="translate(0.11,2.23) rotate(28.36) scale(0.900)">
        <g transform="translate(2.49,3.12) rotate(30.17) scale(0.880)">
        <path d="M33.0,19.1 L0.0,38.1 L-33.0,19.1 L-33.0,-19.1 L-0.0,-38.1 L33.0,-19.1Z" fill="url(#rgrad2)" filter="url(#blur2)" opacity="0.90"/>
        <ellipse cx="0" cy="0" rx="15.9" ry="10.6" fill="#FFFFFF" opacity="0.45"/>
      </g>
      </g>
      </g>
      </g>
      </g>
      </g>
      </g>
  </g>
  <g transform="translate(755.1, 81.9)">
      <g transform="translate(-4.98,0.37) rotate(3.92) scale(1.000)">
        <g transform="translate(-4.15,1.53) rotate(8.92) scale(0.980)">
        <g transform="translate(-2.30,2.55) rotate(14.46) scale(0.960)">
        <g transform="translate(0.11,3.35) rotate(19.95) scale(0.940)" clip-path="url(#clipRect)">
        <g transform="translate(2.49,3.85) rotate(24.78) scale(0.920)">
        <g transform="translate(4.27,4.00) rotate(28.36) scale(0.900)">
        <g transform="translate(4.99,3.79) rotate(30.17) scale(0.880)">
        <circle cx="0" cy="0" r="24.8" fill="url(#lgrad3)" filter="url(#shadow)" opacity="0.89"/>
        <text x="0" y="5" text-anchor="middle" font-family="Arial, sans-serif" font-size="14" fill="#FFFFFF" opacity="0.89">288</text>
      </g>
      </g>
      </g>
      </g>
      </g>
      </g>
      </g>
  </g>
  <g transform="translate(961.5, 97.3)">
      <g transform="translate(-2.30,3.55) rotate(3.92) scale(1.000)">
        <g transform="translate(0.11,3.94) rotate(8.92) scale(0.980)">
        <g transform="translate(2.49,3.97) rotate(14.46) scale(0.960)">
        <g transform="translate(4.27,3.65) rotate(19.95) scale(0.940)">
        <g transform="translate(4.99,3.00) rotate(24.78) scale(0.920)">
        <g transform="translate(4.50,2.09) rotate(28.36) scale(0.900)" mask="url(#maskGradient)">
        <g transform="translate(2.90,0.99) rotate(30.17) scale(0.880)">
        <path d="M0.0,-45.3 L13.3,-18.3 L43.1,-14.0 L21.5,7.0 L26.6,36.6 L0.0,22.6 L-26.6,36.6 L-21.5,7.0 L-43.1,-14.0 L-13.3,-18.3Z" fill="url(#rgrad4)" filter="url(#blur4)" opacity="0.84"/>
      </g>
      </g>
      </g>
      </g>
      </g>
      </g>
      </g>
  </g>
  <g transform="translate(1172.5, 114.0)">
      <g transform="translate(2.49,3.47) rotate(3.92) scale(1.000)">
        <g transform="translate(4.27,2.72) rotate(8.92) scale(0.980)">
        <g transform="translate(4.99,1.74) rotate(14.46) scale(0.960)">
        <g transform="translate(4.50,0.59) rotate(19.95) scale(0.940)">
        <g transform="translate(2.90,-0.60) rotate(24.78) scale(0.920)">
        <g transform="translate(0.60,-1.74) rotate(28.36) scale(0.900)">
        <g transform="translate(-1.86,-2.73) rotate(30.17) scale(0.880)">
        <rect x="-27.2" y="-27.2" width="54.4" height="54.4" rx="13.6" fill="url(#rgrad0)" filter="url(#shadow)" opacity="0.77"/>
        <circle cx="0" cy="0" r="18.1" fill="url(#rgrad1)" opacity="0.54"/>
      </g>
      </g>
      </g>
      </g>
      </g>
      </g>
      </g>
  </g>
  <g transform="translate(1390.1, 124.0)">
      <g transform="translate(4.99,0.20) rotate(3.92) scale(1.000)">
        <g transform="translate(4.50,-0.99) rotate(8.92) scale(0.980)">
        <g transform="translate(2.90,-2.09) rotate(14.46) scale(0.960)">
        <g transform="translate(0.60,-3.01) rotate(19.95) scale(0.940)" clip-path="url(#clipStar)">
        <g transform="translate(-1.86,-3.65) rotate(24.78) scale(0.920)">
        <g transform="translate(-3.85,-3.97) rotate(28.36) scale(0.900)">
        <g transform="translate(-4.91,-3.94) rotate(30.17) scale(0.880)">
        <path d="M35.7,20.6 L0.0,41.2 L-35.7,20.6 L-35.7,-20.6 L-0.0,-41.2 L35.7,-20.6Z" fill="url(#lgrad1)" filter="url(#blur1)" opacity="0.67"/>
        <ellipse cx="0" cy="0" rx="17.2" ry="11.5" fill="#FFFFFF" opacity="0.34"/>
      </g>
      </g>
      </g>
      </g>
      </g>
      </g>
      </g>
  </g>
  <g transform="translate(1615.1, 122.8)">
      <g transform="translate(2.90,-3.26) rotate(3.92) scale(1.000)">
        <g transform="translate(0.60,-3.80) rotate(8.92) scale(0.980)">
        <g transform="translate(-1.86,-4.00) rotate(14.46) scale(0.960)">
        <g transform="translate(-3.85,-3.84) rotate(19.95) scale(0.940)">
        <g transform="translate(-4.91,-3.35) rotate(24.78) scale(0.920)">
        <g transform="translate(-4.76,-2.55) rotate(28.36) scale(0.900)" mask="url(#maskDynamic)">
        <g transform="translate(-3.45,-1.52) rotate(30.17) scale(0.880)">
        <circle cx="0" cy="0" r="37.5" fill="url(#rgrad2)" filter="url(#shadow)" opacity="0.56"/>
        <text x="0" y="5" text-anchor="middle" font-family="Arial, sans-serif" font-size="14" fill="#FFFFFF" opacity="0.56">288</text>
      </g>
      </g>
      </g>
      </g>
      </g>
      </g>
      </g>
  </g>
  <g transform="translate(86.2, 390.8)">
      <g transform="translate(-1.86,-3.71) rotate(3.92) scale(1.000)">
        <g transform="translate(-3.85,-3.11) rotate(8.92) scale(0.980)">
        <g transform="translate(-4.91,-2.23) rotate(14.46) scale(0.960)">
        <g transform="translate(-4.76,-1.15) rotate(19.95) scale(0.940)">
        <g transform="translate(-3.45,0.04) rotate(24.78) scale(0.920)">
        <g transform="translate(-1.29,1.22) rotate(28.36) scale(0.900)">
        <g transform="translate(1.18,2.29) rotate(30.17) scale(0.880)">
        <path d="M0.0,-67.5 L19.8,-27.3 L64.2,-20.9 L32.1,10.4 L39.7,54.6 L0.0,33.7 L-39.7,54.6 L-32.1,10.4 L-64.2,-20.9 L-19.8,-27.3Z" fill="url(#rgrad3)" filter="url(#blur3)" opacity="0.44"/>
      </g>
      </g>
      </g>
      </g>
      </g>
      </g>
      </g>
  </g>
  <g transform="translate(320.7, 373.8)">
      <g transform="translate(-4.91,-0.76) rotate(3.92) scale(1.000)">
        <g transform="translate(-4.76,0.44) rotate(8.92) scale(0.980)">
        <g transform="translate(-3.45,1.59) rotate(14.46) scale(0.960)">
        <g transform="translate(-1.29,2.61) rotate(19.95) scale(0.940)" clip-path="url(#clipDynamic)">
        <g transform="translate(1.18,3.39) rotate(24.78) scale(0.920)">
        <g transform="translate(3.37,3.86) rotate(28.36) scale(0.900)">
        <g transform="translate(4.73,4.00) rotate(30.17) scale(0.880)">
        <rect x="-26.6" y="-26.6" width="53.1" height="53.1" rx="13.3" fill="url(#lgrad4)" filter="url(#shadow)" opacity="0.32"/>
        <circle cx="0" cy="0" r="17.7" fill="url(#rgrad0)" opacity="0.23"/>
      </g>
      </g>
      </g>
      </g>
      </g>
      </g>
      </g>
  </g>
  <g transform="translate(555.0, 359.6)">
      <g transform="translate(-3.45,2.90) rotate(3.92) scale(1.000)">
        <g transform="translate(-1.29,3.58) rotate(8.92) scale(0.980)">
        <g transform="translate(1.18,3.95) rotate(14.46) scale(0.960)">
        <g transform="translate(3.37,3.96) rotate(19.95) scale(0.940)">
        <g transform="translate(4.73,3.62) rotate(24.78) scale(0.920)">
        <g transform="translate(4.93,2.96) rotate(28.36) scale(0.900)" mask="url(#maskStripes)">
        <g transform="translate(3.93,2.03) rotate(30.17) scale(0.880)">
        <path d="M23.4,13.5 L0.0,27.0 L-23.4,13.5 L-23.4,-13.5 L-0.0,-27.0 L23.4,-13.5Z" fill="url(#rgrad0)" filter="url(#blur0)" opacity="0.22"/>
        <ellipse cx="0" cy="0" rx="11.3" ry="7.5" fill="#FFFFFF" opacity="0.11"/>
      </g>
      </g>
      </g>
      </g>
      </g>
      </g>
      </g>
  </g>
  <g transform="translate(785.6, 355.1)">
      <g transform="translate(1.18,3.89) rotate(3.92) scale(1.000)">
        <g transform="translate(3.37,3.43) rotate(8.92) scale(0.980)">
        <g transform="translate(4.73,2.67) rotate(14.46) scale(0.960)">
        <g transform="translate(4.93,1.68) rotate(19.95) scale(0.940)">
        <g transform="translate(3.93,0.53) rotate(24.78) scale(0.920)">
        <g transform="translate(1.96,-0.67) rotate(28.36) scale(0.900)">
        <g transform="translate(-0.48,-1.80) rotate(30.17) scale(0.880)">
        <circle cx="0" cy="0" r="25.4" fill="url(#rgrad1)" filter="url(#shadow)" opacity="0.15"/>
        <text x="0" y="5" text-anchor="middle" font-family="Arial, sans-serif" font-size="14" fill="#FFFFFF" opacity="0.15">288</text>
      </g>
      </g>
      </g>
      </g>
      </g>
      </g>
      </g>
  </g>
  <g transform="translate(1010.0, 362.2)">
      <g transform="translate(4.73,1.30) rotate(3.92) scale(1.000)">
        <g transform="translate(4.93,0.13) rotate(8.92) scale(0.980)">
        <g transform="translate(3.93,-1.06) rotate(14.46) scale(0.960)">
        <g transform="translate(1.96,-2.15) rotate(19.95) scale(0.940)" clip-path="url(#clipHex)">
        <g transform="translate(-0.48,-3.05) rotate(24.78) scale(0.920)">
        <g transform="translate(-2.81,-3.68) rotate(28.36) scale(0.900)">
        <g transform="translate(-4.45,-3.98) rotate(30.17) scale(0.880)">
        <path d="M0.0,-64.9 L19.1,-26.3 L61.8,-20.1 L30.9,10.0 L38.2,52.5 L0.0,32.5 L-38.2,52.5 L-30.9,10.0 L-61.8,-20.1 L-19.1,-26.3Z" fill="url(#lgrad2)" filter="url(#blur2)" opacity="0.11"/>
      </g>
      </g>
      </g>
      </g>
      </g>
      </g>
      </g>
  </g>
  <g transform="translate(1227.0, 377.7)">
      <g transform="translate(3.93,-2.48) rotate(3.92) scale(1.000)">
        <g transform="translate(1.96,-3.29) rotate(8.92) scale(0.980)">
        <g transform="translate(-0.48,-3.82) rotate(14.46) scale(0.960)">
        <g transform="translate(-2.81,-4.00) rotate(19.95) scale(0.940)">
        <g transform="translate(-4.45,-3.82) rotate(24.78) scale(0.920)">
        <g transform="translate(-5.00,-3.31) rotate(28.36) scale(0.900)" mask="url(#maskCircleFade)">
        <g transform="translate(-4.32,-2.50) rotate(30.17) scale(0.880)">
        <rect x="-37.3" y="-37.3" width="74.6" height="74.6" rx="18.6" fill="url(#rgrad3)" filter="url(#shadow)" opacity="0.10"/>
        <circle cx="0" cy="0" r="24.9" fill="url(#rgrad4)" opacity="0.07"/>
      </g>
      </g>
      </g>
      </g>
      </g>
      </g>
      </g>
  </g>
  <g transform="translate(1437.4, 394.3)">
      <g transform="translate(-0.48,-3.98) rotate(3.92) scale(1.000)">
        <g transform="translate(-2.81,-3.69) rotate(8.92) scale(0.980)">
        <g transform="translate(-4.45,-3.07) rotate(14.46) scale(0.960)">
        <g transform="translate(-5.00,-2.17) rotate(19.95) scale(0.940)">
        <g transform="translate(-4.32,-1.08) rotate(24.78) scale(0.920)">
        <g transform="translate(-2.59,0.11) rotate(28.36) scale(0.900)">
        <g transform="translate(-0.22,1.28) rotate(30.17) scale(0.880)">
        <path d="M36.8,21.2 L0.0,42.5 L-36.8,21.2 L-36.8,-21.2 L-0.0,-42.5 L36.8,-21.2Z" fill="url(#rgrad4)" filter="url(#blur4)" opacity="0.13"/>
        <ellipse cx="0" cy="0" rx="17.7" ry="11.8" fill="#FFFFFF" opacity="0.07"/>
      </g>
      </g>
      </g>
      </g>
      </g>
      </g>
      </g>
  </g>
  <g transform="translate(1643.6, 404.2)">
      <g transform="translate(-4.45,-1.82) rotate(3.92) scale(1.000)">
        <g transform="translate(-5.00,-0.69) rotate(8.92) scale(0.980)">
        <g transform="translate(-4.32,0.50) rotate(14.46) scale(0.960)">
        <g transform="translate(-2.59,1.65) rotate(19.95) scale(0.940)" clip-path="url(#clipCircle)">
        <g transform="translate(-0.22,2.66) rotate(24.78) scale(0.920)">
        <g transform="translate(2.20,3.42) rotate(28.36) scale(0.900)">
        <g transform="translate(4.08,3.88) rotate(30.17) scale(0.880)">
        <circle cx="0" cy="0" r="28.5" fill="url(#lgrad0)" filter="url(#shadow)" opacity="0.19"/>
        <text x="0" y="5" text-anchor="middle" font-family="Arial, sans-serif" font-size="14" fill="#FFFFFF" opacity="0.19">288</text>
      </g>
      </g>
      </g>
      </g>
      </g>
      </g>
      </g>
  </g>
  <g transform="translate(88.9, 682.6)">
      <g transform="translate(-4.32,2.01) rotate(3.92) scale(1.000)">
        <g transform="translate(-2.59,2.94) rotate(8.92) scale(0.980)">
        <g transform="translate(-0.22,3.61) rotate(14.46) scale(0.960)">
        <g transform="translate(2.20,3.96) rotate(19.95) scale(0.940)">
        <g transform="translate(4.08,3.95) rotate(24.78) scale(0.920)">
        <g transform="translate(4.97,3.59) rotate(28.36) scale(0.900)" mask="url(#maskGradient)">
        <g transform="translate(4.63,2.91) rotate(30.17) scale(0.880)">
        <path d="M0.0,-46.0 L13.5,-18.6 L43.8,-14.2 L21.9,7.1 L27.1,37.3 L0.0,23.0 L-27.1,37.3 L-21.9,7.1 L-43.8,-14.2 L-13.5,-18.6Z" fill="url(#rgrad1)" filter="url(#blur1)" opacity="0.28"/>
      </g>
      </g>
      </g>
      </g>
      </g>
      </g>
      </g>
  </g>
  <g transform="translate(296.9, 670.5)">
      <g transform="translate(-0.22,4.00) rotate(3.92) scale(1.000)">
        <g transform="translate(2.20,3.87) rotate(8.92) scale(0.980)">
        <g transform="translate(4.08,3.40) rotate(14.46) scale(0.960)">
        <g transform="translate(4.97,2.62) rotate(19.95) scale(0.940)">
        <g transform="translate(4.63,1.61) rotate(24.78) scale(0.920)">
        <g transform="translate(3.17,0.46) rotate(28.36) scale(0.900)">
        <g transform="translate(0.92,-0.73) rotate(30.17) scale(0.880)">
        <rect x="-23.9" y="-23.9" width="47.8" height="47.8" rx="12.0" fill="url(#rgrad2)" filter="url(#shadow)" opacity="0.39"/>
        <circle cx="0" cy="0" r="15.9" fill="url(#rgrad3)" opacity="0.27"/>
      </g>
      </g>
      </g>
      </g>
      </g>
      </g>
      </g>
  </g>
  <g transform="translate(510.5, 653.4)">
      <g transform="translate(4.08,2.31) rotate(3.92) scale(1.000)">
        <g transform="translate(4.97,1.24) rotate(8.92) scale(0.980)">
        <g transform="translate(4.63,0.06) rotate(14.46) scale(0.960)">
        <g transform="translate(3.17,-1.12) rotate(19.95) scale(0.940)" clip-path="url(#clipRect)">
        <g transform="translate(0.92,-2.21) rotate(24.78) scale(0.920)">
        <g transform="translate(-1.54,-3.09) rotate(28.36) scale(0.900)">
        <g transform="translate(-3.63,-3.71) rotate(30.17) scale(0.880)">
        <path d="M31.6,18.2 L0.0,36.5 L-31.6,18.2 L-31.6,-18.2 L-0.0,-36.5 L31.6,-18.2Z" fill="url(#lgrad3)" filter="url(#blur3)" opacity="0.51"/>
        <ellipse cx="0" cy="0" rx="15.2" ry="10.1" fill="#FFFFFF" opacity="0.25"/>
      </g>
      </g>
      </g>
      </g>
      </g>
      </g>
      </g>
  </g>
  <g transform="translate(731.4, 639.4)">
      <g transform="translate(4.63,-1.50) rotate(3.92) scale(1.000)">
        <g transform="translate(3.17,-2.53) rotate(8.92) scale(0.980)">
        <g transform="translate(0.92,-3.33) rotate(14.46) scale(0.960)">
        <g transform="translate(-1.54,-3.84) rotate(19.95) scale(0.940)">
        <g transform="translate(-3.63,-4.00) rotate(24.78) scale(0.920)">
        <g transform="translate(-4.84,-3.80) rotate(28.36) scale(0.900)" mask="url(#maskDynamic)">
        <g transform="translate(-4.85,-3.27) rotate(30.17) scale(0.880)">
        <circle cx="0" cy="0" r="36.5" fill="url(#rgrad4)" filter="url(#shadow)" opacity="0.63"/>
        <text x="0" y="5" text-anchor="middle" font-family="Arial, sans-serif" font-size="14" fill="#FFFFFF" opacity="0.63">288</text>
      </g>
      </g>
      </g>
      </g>
      </g>
      </g>
      </g>
  </g>
  <g transform="translate(959.3, 635.1)">
      <g transform="translate(0.92,-3.93) rotate(3.92) scale(1.000)">
        <g transform="translate(-1.54,-3.97) rotate(8.92) scale(0.980)">
        <g transform="translate(-3.63,-3.66) rotate(14.46) scale(0.960)">
        <g transform="translate(-4.84,-3.02) rotate(19.95) scale(0.940)">
        <g transform="translate(-4.85,-2.11) rotate(24.78) scale(0.920)">
        <g transform="translate(-3.68,-1.02) rotate(28.36) scale(0.900)">
        <g transform="translate(-1.61,0.17) rotate(30.17) scale(0.880)">
        <path d="M0.0,-73.3 L21.5,-29.6 L69.7,-22.6 L34.9,11.3 L43.1,59.3 L0.0,36.6 L-43.1,59.3 L-34.9,11.3 L-69.7,-22.6 L-21.5,-29.6Z" fill="url(#rgrad0)" filter="url(#blur0)" opacity="0.73"/>
      </g>
      </g>
      </g>
      </g>
      </g>
      </g>
      </g>
  </g>
  <g transform="translate(1192.3, 642.5)">
      <g transform="translate(-3.63,-2.75) rotate(3.92) scale(1.000)">
        <g transform="translate(-4.84,-1.76) rotate(8.92) scale(0.980)">
        <g transform="translate(-4.85,-0.62) rotate(14.46) scale(0.960)">
        <g transform="translate(-3.68,0.57) rotate(19.95) scale(0.940)" clip-path="url(#clipStar)">
        <g transform="translate(-1.61,1.72) rotate(24.78) scale(0.920)">
        <g transform="translate(0.86,2.71) rotate(28.36) scale(0.900)">
        <g transform="translate(3.11,3.46) rotate(30.17) scale(0.880)">
        <rect x="-30.7" y="-30.7" width="61.3" height="61.3" rx="15.3" fill="url(#lgrad1)" filter="url(#shadow)" opacity="0.82"/>
        <circle cx="0" cy="0" r="20.4" fill="url(#rgrad2)" opacity="0.57"/>
      </g>
      </g>
      </g>
      </g>
      </g>
      </g>
      </g>
  </g>
  <g transform="translate(1427.1, 658.2)">
      <g transform="translate(-4.85,0.96) rotate(3.92) scale(1.000)">
        <g transform="translate(-3.68,2.07) rotate(8.92) scale(0.980)">
        <g transform="translate(-1.61,2.99) rotate(14.46) scale(0.960)">
        <g transform="translate(0.86,3.64) rotate(19.95) scale(0.940)">
        <g transform="translate(3.11,3.97) rotate(24.78) scale(0.920)">
        <g transform="translate(4.61,3.94) rotate(28.36) scale(0.900)" mask="url(#maskStripes)">
        <g transform="translate(4.97,3.56) rotate(30.17) scale(0.880)">
        <path d="M25.0,14.4 L0.0,28.9 L-25.0,14.4 L-25.0,-14.4 L-0.0,-28.9 L25.0,-14.4Z" fill="url(#rgrad2)" filter="url(#blur2)" opacity="0.88"/>
        <ellipse cx="0" cy="0" rx="12.0" ry="8.0" fill="#FFFFFF" opacity="0.44"/>
      </g>
      </g>
      </g>
      </g>
      </g>
      </g>
      </g>
  </g>
  <g transform="translate(1660.2, 674.7)">
      <g transform="translate(-1.61,3.79) rotate(3.92) scale(1.000)">
        <g transform="translate(0.86,4.00) rotate(8.92) scale(0.980)">
        <g transform="translate(3.11,3.85) rotate(14.46) scale(0.960)">
        <g transform="translate(4.61,3.36) rotate(19.95) scale(0.940)">
        <g transform="translate(4.97,2.57) rotate(24.78) scale(0.920)">
        <g transform="translate(4.12,1.55) rotate(28.36) scale(0.900)">
        <g transform="translate(2.26,0.39) rotate(30.17) scale(0.880)">
        <circle cx="0" cy="0" r="22.9" fill="url(#rgrad3)" filter="url(#shadow)" opacity="0.90"/>
        <text x="0" y="5" text-anchor="middle" font-family="Arial, sans-serif" font-size="14" fill="#FFFFFF" opacity="0.90">288</text>
      </g>
      </g>
      </g>
      </g>
      </g>
      </g>
      </g>
  </g>
  <g transform="translate(128.4, 964.3)">
      <g transform="translate(3.11,3.13) rotate(3.92) scale(1.000)">
        <g transform="translate(4.61,2.25) rotate(8.92) scale(0.980)">
        <g transform="translate(4.97,1.18) rotate(14.46) scale(0.960)">
        <g transform="translate(4.12,-0.01) rotate(19.95) scale(0.940)" clip-path="url(#clipDynamic)">
        <g transform="translate(2.26,-1.19) rotate(24.78) scale(0.920)">
        <g transform="translate(-0.15,-2.26) rotate(28.36) scale(0.900)">
        <g transform="translate(-2.53,-3.14) rotate(30.17) scale(0.880)">
        <path d="M0.0,-56.6 L16.6,-22.9 L53.8,-17.5 L26.9,8.7 L33.3,45.8 L0.0,28.3 L-33.3,45.8 L-26.9,8.7 L-53.8,-17.5 L-16.6,-22.9Z" fill="url(#lgrad4)" filter="url(#blur4)" opacity="0.89"/>
      </g>
      </g>
      </g>
      </g>
      </g>
      </g>
      </g>
  </g>
  <g transform="translate(397.3, 281.4)" mask="url(#maskGradient)">
    <ellipse cx="0" cy="0" rx="200" ry="150" fill="url(#rgrad0)" filter="url(#blur3)" opacity="0.3"/>
  </g>
  <g transform="translate(833.0, 235.7)" mask="url(#maskCircleFade)">
    <ellipse cx="0" cy="0" rx="200" ry="150" fill="url(#rgrad1)" filter="url(#blur3)" opacity="0.3"/>
  </g>
  <g transform="translate(1238.4, 220.2)" mask="url(#maskStripes)">
    <ellipse cx="0" cy="0" rx="200" ry="150" fill="url(#rgrad2)" filter="url(#blur3)" opacity="0.3"/>
  </g>
</svg>