<?xml version="1.0" encoding="UTF-8"?>
<svg xmlns="http://www.w3.org/2000/svg" viewBox="0 0 1920 1080" width="1920" height="1080">
  <defs>
    <filter id="blur0" x="-50%" y="-50%" width="200%" height="200%">
      <feGaussianBlur in="SourceGraphic" stdDeviation="1"/>
    </filter>
    <filter id="blur1" x="-50%" y="-50%" width="200%" height="200%">
      <feGaussianBlur in="SourceGraphic" stdDeviation="3"/>
    </filter>
    <filter id="blur2" x="-50%" y="-50%" width="200%" height="200%">
      <feGaussianBlur in="SourceGraphic" stdDeviation="5"/>
    </filter>
    <filter id="blur3" x="-50%" y="-50%" width="200%" height="200%">
      <feGaussianBlur in="SourceGraphic" stdDeviation="7"/>
    </filter>
    <filter id="blur4" x="-50%" y="-50%" width="200%" height="200%">
      <feGaussianBlur in="SourceGraphic" stdDeviation="9"/>
    </filter>
    <filter id="shadow" x="-50%" y="-50%" width="200%" height="200%">
      <feGaussianBlur in="SourceAlpha" stdDeviation="3" result="blur"/>
      <feOffset in="blur" dx="4" dy="4" result="offsetBlur"/>
      <feMerge>
        <feMergeNode in="offsetBlur"/>
        <feMergeNode in="SourceGraphic"/>
      </feMerge>
    </filter>
    <linearGradient id="lgrad0" x1="0%" y1="0%" x2="40.0%" y2="99.0%">
      <stop offset="0%" stop-color="#FF6B6B"/>
      <stop offset="33%" stop-color="#4ECDC4"/>
      <stop offset="66%" stop-color="#45B7D1"/>
      <stop offset="100%" stop-color="#96E6A1"/>
    </linearGradient>
    <linearGradient id="lgrad1" x1="0%" y1="0%" x2="16.9%" y2="87.4%">
      <stop offset="0%" stop-color="#FFE66D"/>
      <stop offset="33%" stop-color="#FF6B6B"/>
      <stop offset="66%" stop-color="#C44D58"/>
      <stop offset="100%" stop-color="#8B0000"/>
    </linearGradient>
    <linearGradient id="lgrad2" x1="0%" y1="0%" x2="2.6%" y2="65.9%">
      <stop offset="0%" stop-color="#4169E1"/>
      <stop offset="33%" stop-color="#7B68EE"/>
      <stop offset="66%" stop-color="#9370DB"/>
      <stop offset="100%" stop-color="#FFD700"/>
    </linearGradient>
    <linearGradient id="lgrad3" x1="0%" y1="0%" x2="1.0%" y2="40.0%">
      <stop offset="0%" stop-color="#32CD32"/>
      <stop offset="33%" stop-color="#228B22"/>
      <stop offset="66%" stop-color="#006400"/>
      <stop offset="100%" stop-color="#ADFF2F"/>
    </linearGradient>
    <linearGradient id="lgrad4" x1="0%" y1="0%" x2="12.6%" y2="16.9%">
      <stop offset="0%" stop-color="#FF1493"/>
      <stop offset="33%" stop-color="#FF69B4"/>
      <stop offset="66%" stop-color="#FFB6C1"/>
      <stop offset="100%" stop-color="#FFC0CB"/>
    </linearGradient>
    <radialGradient id="rgrad0" cx="63.9%" cy="52.6%" r="60%">
      <stop offset="0%" stop-color="#FF6B6B" stop-opacity="1"/>
      <stop offset="50%" stop-color="#4ECDC4" stop-opacity="0.8"/>
      <stop offset="100%" stop-color="#45B7D1" stop-opacity="0.6"/>
    </radialGradient>
    <radialGradient id="rgrad1" cx="33.9%" cy="60.6%" r="60%">
      <stop offset="0%" stop-color="#FFE66D" stop-opacity="1"/>
      <stop offset="50%" stop-color="#FF6B6B" stop-opacity="0.8"/>
      <stop offset="100%" stop-color="#C44D58" stop-opacity="0.6"/>
    </radialGradient>
    <radialGradient id="rgrad2" cx="43.9%" cy="68.6%" r="60%">
      <stop offset="0%" stop-color="#4169E1" stop-opacity="1"/>
      <stop offset="50%" stop-color="#7B68EE" stop-opacity="0.8"/>
      <stop offset="100%" stop-color="#9370DB" stop-opacity="0.6"/>
    </radialGradient>
    <radialGradient id="rgrad3" cx="53.9%" cy="36.6%" r="60%">
      <stop offset="0%" stop-color="#32CD32" stop-opacity="1"/>
      <stop offset="50%" stop-color="#228B22" stop-opacity="0.8"/>
      <stop offset="100%" stop-color="#006400" stop-opacity="0.6"/>
    </radialGradient>
    <radialGradient id="rgrad4" cx="63.9%" cy="44.6%" r="60%">
      <stop offset="0%" stop-color="#FF1493" stop-opacity="1"/>
      <stop offset="50%" stop-color="#FF69B4" stop-opacity="0.8"/>
      <stop offset="100%" stop-color="#FFB6C1" stop-opacity="0.6"/>
    </radialGradient>
    <clipPath id="clipCircle">
      <circle cx="0" cy="0" r="50"/>
    </clipPath>
    <clipPath id="clipStar">
      <path d="M0.0,-50.0 L14.7,-20.2 L47.6,-15.5 L23.8,7.7 L29.4,40.5 L0.0,25.0 L-29.4,40.5 L-23.8,7.7 L-47.6,-15.5 L-14.7,-20.2Z"/>
    </clipPath>
    <clipPath id="clipHex">
      <path d="M39.0,22.5 L0.0,45.0 L-39.0,22.5 L-39.0,-22.5 L-0.0,-45.0 L39.0,-22.5Z"/>
    </clipPath>
    <clipPath id="clipRect">
      <rect x="-40" y="-30" width="80" height="60" rx="10"/>
    </clipPath>
    <clipPath id="clipDynamic">
      <circle cx="0" cy="0" r="44.7"/>
    </clipPath>
    <mask id="maskGradient" maskContentUnits="objectBoundingBox">
      <rect x="0" y="0" width="1" height="1" fill="url(#maskGrad)"/>
    </mask>
    <linearGradient id="maskGrad" x1="0%" y1="0%" x2="100%" y2="100%">
      <stop offset="0%" stop-color="white"/>
      <stop offset="100%" stop-color="black"/>
    </linearGradient>
    <mask id="maskCircleFade">
      <circle cx="0" cy="0" r="60" fill="white"/>
      <circle cx="0" cy="0" r="30" fill="black"/>
    </mask>
    <mask id="maskStripes">
      <rect x="-50" y="-50" width="100" height="100" fill="white"/>
      <rect x="-50" y="-40" width="100" height="10" fill="black"/>
      <rect x="-50" y="-20" width="100" height="10" fill="black"/>
      <rect x="-50" y="0" width="100" height="10" fill="black"/>
      <rect x="-50" y="20" width="100" height="10" fill="black"/>
      <rect x="-50" y="40" width="100" height="10" fill="black"/>
    </mask>
    <mask id="maskDynamic">
      <rect x="-60" y="-60" width="120" height="120" fill="white" fill-opacity="0.54"/>
      <circle cx="0" cy="0" r="25" fill="white"/>
    </mask>
  </defs>
  <rect width="1920" height="1080" fill="url(#lgrad0)"/>
  <g transform="translate(119.4, 119.0)">
      <g transform="translate(3.24,3.05) rotate(1.72) scale(1.000)">
        <g transform="translate(4.67,2.15) rotate(5.25) scale(0.980)">
        <g transform="translate(4.96,1.05) rotate(10.25) scale(0.960)">
        <g transform="translate(4.03,-0.13) rotate(16.29) scale(0.940)" clip-path="url(#clipCircle)">
        <g transform="translate(2.12,-1.31) rotate(22.84) scale(0.920)">
        <g transform="translate(-0.31,-2.37) rotate(29.29) scale(0.900)">
        <g transform="translate(-2.67,-3.22) rotate(34.99) scale(0.880)">
        <path d="M0.0,-65.2 L19.2,-26.4 L62.0,-20.1 L31.0,10.1 L38.3,52.7 L0.0,32.6 L-38.3,52.7 L-31.0,10.1 L-62.0,-20.1 L-19.2,-26.4Z" fill="url(#lgrad0)" filter="url(#blur0)" opacity="0.64"/>
      </g>
      </g>
      </g>
      </g>
      </g>
      </g>
      </g>
  </g>
  <g transform="translate(348.0, 104.1)">
      <g transform="translate(4.96,-0.53) rotate(1.72) scale(1.000)">
        <g transform="translate(4.03,-1.68) rotate(5.25) scale(0.980)">
        <g transform="translate(2.12,-2.68) rotate(10.25) scale(0.960)">
        <g transform="translate(-0.31,-3.44) rotate(16.29) scale(0.940)">
        <g transform="translate(-2.67,-3.89) rotate(22.84) scale(0.920)">
        <g transform="translate(-4.37,-3.99) rotate(29.29) scale(0.900)" mask="url(#maskCircleFade)">
        <g transform="translate(-5.00,-3.74) rotate(34.99) scale(0.880)">
        <rect x="-37.3" y="-37.3" width="74.6" height="74.6" rx="18.7" fill="url(#rgrad1)" filter="url(#shadow)" opacity="0.74"/>
        <circle cx="0" cy="0" r="24.9" fill="url(#rgrad2)" opacity="0.52"/>
      </g>
      </g>
      </g>
      </g>
      </g>
      </g>
      </g>
  </g>
  <g transform="translate(569.7, 87.3)">
      <g transform="translate(2.12,-3.62) rotate(1.72) scale(1.000)">
        <g transform="translate(-0.31,-3.96) rotate(5.25) scale(0.980)">
        <g transform="translate(-2.67,-3.95) rotate(10.25) scale(0.960)">
        <g transform="translate(-4.37,-3.58) rotate(16.29) scale(0.940)">
        <g transform="translate(-5.00,-2.89) rotate(22.84) scale(0.920)">
        <g transform="translate(-4.41,-1.95) rotate(29.29) scale(0.900)">
        <g transform="translate(-2.73,-0.83) rotate(34.99) scale(0.880)">
        <path d="M36.7,21.2 L0.0,42.4 L-36.7,21.2 L-36.7,-21.2 L-0.0,-42.4 L36.7,-21.2Z" fill="url(#rgrad2)" filter="url(#blur2)" opacity="0.83"/>
        <ellipse cx="0" cy="0" rx="17.7" ry="11.8" fill="#FFFFFF" opacity="0.41"/>
      </g>
      </g>
      </g>
      </g>
      </g>
      </g>
      </g>
  </g>
  <g transform="translate(784.2, 76.4)">
      <g transform="translate(-2.67,-3.38) rotate(1.72) scale(1.000)">
        <g transform="translate(-4.37,-2.60) rotate(5.25) scale(0.980)">
        <g transform="translate(-5.00,-1.59) rotate(10.25) scale(0.960)">
        <g transform="translate(-4.41,-0.43) rotate(16.29) scale(0.940)" clip-path="url(#clipRect)">
        <g transform="translate(-2.73,0.76) rotate(22.84) scale(0.920)">
        <g transform="translate(-0.39,1.89) rotate(29.29) scale(0.900)">
        <g transform="translate(2.04,2.85) rotate(34.99) scale(0.880)">
        <circle cx="0" cy="0" r="28.4" fill="url(#lgrad3)" filter="url(#shadow)" opacity="0.88"/>
        <text x="0" y="5" text-anchor="middle" font-family="Arial, sans-serif" font-size="14" fill="#FFFFFF" opacity="0.88">113</text>
      </g>
      </g>
      </g>
      </g>
      </g>
      </g>
      </g>
  </g>
  <g transform="translate(992.7, 76.6)">
      <g transform="translate(-5.00,-0.03) rotate(1.72) scale(1.000)">
        <g transform="translate(-4.41,1.15) rotate(5.25) scale(0.980)">
        <g transform="translate(-2.73,2.23) rotate(10.25) scale(0.960)">
        <g transform="translate(-0.39,3.11) rotate(16.29) scale(0.940)">
        <g transform="translate(2.04,3.72) rotate(22.84) scale(0.920)">
        <g transform="translate(3.98,3.99) rotate(29.29) scale(0.900)" mask="url(#maskGradient)">
        <g transform="translate(4.94,3.90) rotate(34.99) scale(0.880)">
        <path d="M0.0,-46.0 L13.5,-18.6 L43.7,-14.2 L21.9,7.1 L27.0,37.2 L0.0,23.0 L-27.0,37.2 L-21.9,7.1 L-43.7,-14.2 L-13.5,-18.6Z" fill="url(#rgrad4)" filter="url(#blur4)" opacity="0.90"/>
      </g>
      </g>
      </g>
      </g>
      </g>
      </g>
      </g>
  </g>
  <g transform="translate(1198.1, 87.8)">
      <g transform="translate(-2.73,3.35) rotate(1.72) scale(1.000)">
        <g transform="translate(-0.39,3.85) rotate(5.25) scale(0.980)">
        <g transform="translate(2.04,4.00) rotate(10.25) scale(0.960)">
        <g transform="translate(3.98,3.80) rotate(16.29) scale(0.940)">
        <g transform="translate(4.94,3.25) rotate(22.84) scale(0.920)">
        <g transform="translate(4.70,2.42) rotate(29.29) scale(0.900)">
        <g transform="translate(3.30,1.37) rotate(34.99) scale(0.880)">
        <rect x="-24.0" y="-24.0" width="48.0" height="48.0" rx="12.0" fill="url(#rgrad0)" filter="url(#shadow)" opacity="0.88"/>
        <circle cx="0" cy="0" r="16.0" fill="url(#rgrad1)" opacity="0.62"/>
      </g>
      </g>
      </g>
      </g>
      </g>
      </g>
      </g>
  </g>
  <g transform="translate(1404.0, 104.8)">
      <g transform="translate(2.04,3.65) rotate(1.72) scale(1.000)">
        <g transform="translate(3.98,3.00) rotate(5.25) scale(0.980)">
        <g transform="translate(4.94,2.09) rotate(10.25) scale(0.960)">
        <g transform="translate(4.70,0.99) rotate(16.29) scale(0.940)" clip-path="url(#clipStar)">
        <g transform="translate(3.30,-0.20) rotate(22.84) scale(0.920)">
        <g transform="translate(1.09,-1.37) rotate(29.29) scale(0.900)">
        <g transform="translate(-1.38,-2.42) rotate(34.99) scale(0.880)">
        <path d="M31.7,18.3 L0.0,36.6 L-31.7,18.3 L-31.7,-18.3 L-0.0,-36.6 L31.7,-18.3Z" fill="url(#lgrad1)" filter="url(#blur1)" opacity="0.83"/>
        <ellipse cx="0" cy="0" rx="15.3" ry="10.2" fill="#FFFFFF" opacity="0.42"/>
      </g>
      </g>
      </g>
      </g>
      </g>
      </g>
      </g>
  </g>
  <g transform="translate(1613.8, 119.5)">
      <g transform="translate(4.94,0.60) rotate(1.72) scale(1.000)">
        <g transform="translate(4.70,-0.60) rotate(5.25) scale(0.980)">
        <g transform="translate(3.30,-1.74) rotate(10.25) scale(0.960)">
        <g transform="translate(1.09,-2.73) rotate(16.29) scale(0.940)">
        <g transform="translate(-1.38,-3.47) rotate(22.84) scale(0.920)">
        <g transform="translate(-3.52,-3.90) rotate(29.29) scale(0.900)" mask="url(#maskDynamic)">
        <g transform="translate(-4.79,-3.99) rotate(34.99) scale(0.880)">
        <circle cx="0" cy="0" r="36.6" fill="url(#rgrad2)" filter="url(#shadow)" opacity="0.75"/>
        <text x="0" y="5" text-anchor="middle" font-family="Arial, sans-serif" font-size="14" fill="#FFFFFF" opacity="0.75">113</text>
      </g>
      </g>
      </g>
      </g>
      </g>
      </g>
      </g>
  </g>
  <g transform="translate(70.0, 405.0)">
      <g transform="translate(3.30,-3.01) rotate(1.72) scale(1.000)">
        <g transform="translate(1.09,-3.65) rotate(5.25) scale(0.980)">
        <g transform="translate(-1.38,-3.97) rotate(10.25) scale(0.960)">
        <g transform="translate(-3.52,-3.94) rotate(16.29) scale(0.940)">
        <g transform="translate(-4.79,-3.55) rotate(22.84) scale(0.920)">
        <g transform="translate(-4.89,-2.84) rotate(29.29) scale(0.900)">
        <g transform="translate(-3.80,-1.89) rotate(34.99) scale(0.880)">
        <path d="M0.0,-73.2 L21.5,-29.6 L69.6,-22.6 L34.8,11.3 L43.0,59.2 L0.0,36.6 L-43.0,59.2 L-34.8,11.3 L-69.6,-22.6 L-21.5,-29.6Z" fill="url(#rgrad3)" filter="url(#blur3)" opacity="0.65"/>
      </g>
      </g>
      </g>
      </g>
      </g>
      </g>
      </g>
  </g>
  <g transform="translate(293.6, 398.8)">
      <g transform="translate(-1.38,-3.84) rotate(1.72) scale(1.000)">
        <g transform="translate(-3.52,-3.35) rotate(5.25) scale(0.980)">
        <g transform="translate(-4.79,-2.55) rotate(10.25) scale(0.960)">
        <g transform="translate(-4.89,-1.53) rotate(16.29) scale(0.940)" clip-path="url(#clipDynamic)">
        <g transform="translate(-3.80,-0.36) rotate(22.84) scale(0.920)">
        <g transform="translate(-1.77,0.83) rotate(29.29) scale(0.900)">
        <g transform="translate(0.69,1.95) rotate(34.99) scale(0.880)">
        <rect x="-30.5" y="-30.5" width="61.1" height="61.1" rx="15.3" fill="url(#lgrad4)" filter="url(#shadow)" opacity="0.54"/>
        <circle cx="0" cy="0" r="20.4" fill="url(#rgrad0)" opacity="0.37"/>
      </g>
      </g>
      </g>
      </g>
      </g>
      </g>
      </g>
  </g>
  <g transform="translate(523.6, 383.7)">
      <g transform="translate(-4.79,-1.15) rotate(1.72) scale(1.000)">
        <g transform="translate(-4.89,0.04) rotate(5.25) scale(0.980)">
        <g transform="translate(-3.80,1.22) rotate(10.25) scale(0.960)">
        <g transform="translate(-1.77,2.29) rotate(16.29) scale(0.940)">
        <g transform="translate(0.69,3.16) rotate(22.84) scale(0.920)">
        <g transform="translate(2.98,3.74) rotate(29.29) scale(0.900)" mask="url(#maskStripes)">
        <g transform="translate(4.54,3.99) rotate(34.99) scale(0.880)">
        <path d="M24.9,14.4 L0.0,28.8 L-24.9,14.4 L-24.9,-14.4 L-0.0,-28.8 L24.9,-14.4Z" fill="url(#rgrad0)" filter="url(#blur0)" opacity="0.42"/>
        <ellipse cx="0" cy="0" rx="12.0" ry="8.0" fill="#FFFFFF" opacity="0.21"/>
      </g>
      </g>
      </g>
      </g>
      </g>
      </g>
      </g>
  </g>
  <g transform="translate(757.6, 366.9)">
      <g transform="translate(-3.80,2.60) rotate(1.72) scale(1.000)">
        <g transform="translate(-1.77,3.38) rotate(5.25) scale(0.980)">
        <g transform="translate(0.69,3.86) rotate(10.25) scale(0.960)">
        <g transform="translate(2.98,4.00) rotate(16.29) scale(0.940)">
        <g transform="translate(4.54,3.77) rotate(22.84) scale(0.920)">
        <g transform="translate(4.99,3.21) rotate(29.29) scale(0.900)">
        <g transform="translate(4.22,2.37) rotate(34.99) scale(0.880)">
        <circle cx="0" cy="0" r="23.0" fill="url(#rgrad1)" filter="url(#shadow)" opacity="0.30"/>
        <text x="0" y="5" text-anchor="middle" font-family="Arial, sans-serif" font-size="14" fill="#FFFFFF" opacity="0.30">113</text>
      </g>
      </g>
      </g>
      </g>
      </g>
      </g>
      </g>
  </g>
  <g transform="translate(992.3, 356.3)">
      <g transform="translate(0.69,3.96) rotate(1.72) scale(1.000)">
        <g transform="translate(2.98,3.62) rotate(5.25) scale(0.980)">
        <g transform="translate(4.54,2.96) rotate(10.25) scale(0.960)">
        <g transform="translate(4.99,2.03) rotate(16.29) scale(0.940)" clip-path="url(#clipHex)">
        <g transform="translate(4.22,0.92) rotate(22.84) scale(0.920)">
        <g transform="translate(2.41,-0.27) rotate(29.29) scale(0.900)">
        <g transform="translate(0.02,-1.44) rotate(34.99) scale(0.880)">
        <path d="M0.0,-56.8 L16.7,-23.0 L54.0,-17.6 L27.0,8.8 L33.4,46.0 L0.0,28.4 L-33.4,46.0 L-27.0,8.8 L-54.0,-17.6 L-16.7,-23.0Z" fill="url(#lgrad2)" filter="url(#blur2)" opacity="0.21"/>
      </g>
      </g>
      </g>
      </g>
      </g>
      </g>
      </g>
  </g>
  <g transform="translate(1223.9, 356.8)">
      <g transform="translate(4.54,1.68) rotate(1.72) scale(1.000)">
        <g transform="translate(4.99,0.53) rotate(5.25) scale(0.980)">
        <g transform="translate(4.22,-0.67) rotate(10.25) scale(0.960)">
        <g transform="translate(2.41,-1.80) rotate(16.29) scale(0.940)">
        <g transform="translate(0.02,-2.78) rotate(22.84) scale(0.920)">
        <g transform="translate(-2.38,-3.50) rotate(29.29) scale(0.900)" mask="url(#maskCircleFade)">
        <g transform="translate(-4.20,-3.92) rotate(34.99) scale(0.880)">
        <rect x="-35.3" y="-35.3" width="70.6" height="70.6" rx="17.7" fill="url(#rgrad3)" filter="url(#shadow)" opacity="0.14"/>
        <circle cx="0" cy="0" r="23.5" fill="url(#rgrad4)" opacity="0.10"/>
      </g>
      </g>
      </g>
      </g>
      </g>
      </g>
      </g>
  </g>
  <g transform="translate(1449.7, 368.2)">
      <g transform="translate(4.22,-2.15) rotate(1.72) scale(1.000)">
        <g transform="translate(2.41,-3.05) rotate(5.25) scale(0.980)">
        <g transform="translate(0.02,-3.68) rotate(10.25) scale(0.960)">
        <g transform="translate(-2.38,-3.98) rotate(16.29) scale(0.940)">
        <g transform="translate(-4.20,-3.92) rotate(22.84) scale(0.920)">
        <g transform="translate(-4.99,-3.52) rotate(29.29) scale(0.900)">
        <g transform="translate(-4.55,-2.80) rotate(34.99) scale(0.880)">
        <path d="M38.8,22.4 L0.0,44.8 L-38.8,22.4 L-38.8,-22.4 L-0.0,-44.8 L38.8,-22.4Z" fill="url(#rgrad4)" filter="url(#blur4)" opacity="0.11"/>
        <ellipse cx="0" cy="0" rx="18.7" ry="12.4" fill="#FFFFFF" opacity="0.05"/>
      </g>
      </g>
      </g>
      </g>
      </g>
      </g>
      </g>
  </g>
  <g transform="translate(1668.2, 385.2)">
      <g transform="translate(0.02,-4.00) rotate(1.72) scale(1.000)">
        <g transform="translate(-2.38,-3.83) rotate(5.25) scale(0.980)">
        <g transform="translate(-4.20,-3.31) rotate(10.25) scale(0.960)">
        <g transform="translate(-4.99,-2.50) rotate(16.29) scale(0.940)" clip-path="url(#clipCircle)">
        <g transform="translate(-4.55,-1.46) rotate(22.84) scale(0.920)">
        <g transform="translate(-3.01,-0.30) rotate(29.29) scale(0.900)">
        <g transform="translate(-0.72,0.90) rotate(34.99) scale(0.880)">
        <circle cx="0" cy="0" r="32.6" fill="url(#lgrad0)" filter="url(#shadow)" opacity="0.10"/>
        <text x="0" y="5" text-anchor="middle" font-family="Arial, sans-serif" font-size="14" fill="#FFFFFF" opacity="0.10">113</text>
      </g>
      </g>
      </g>
      </g>
      </g>
      </g>
      </g>
  </g>
  <g transform="translate(119.8, 679.7)">
      <g transform="translate(-4.20,-2.17) rotate(1.72) scale(1.000)">
        <g transform="translate(-4.99,-1.08) rotate(5.25) scale(0.980)">
        <g transform="translate(-4.55,0.10) rotate(10.25) scale(0.960)">
        <g transform="translate(-3.01,1.28) rotate(16.29) scale(0.940)">
        <g transform="translate(-0.72,2.34) rotate(22.84) scale(0.920)">
        <g transform="translate(1.74,3.20) rotate(29.29) scale(0.900)" mask="url(#maskGradient)">
        <g transform="translate(3.77,3.76) rotate(34.99) scale(0.880)">
        <path d="M0.0,-51.0 L15.0,-20.6 L48.5,-15.8 L24.2,7.9 L30.0,41.3 L0.0,25.5 L-30.0,41.3 L-24.2,7.9 L-48.5,-15.8 L-15.0,-20.6Z" fill="url(#rgrad1)" filter="url(#blur1)" opacity="0.14"/>
      </g>
      </g>
      </g>
      </g>
      </g>
      </g>
      </g>
  </g>
  <g transform="translate(326.6, 685.0)">
      <g transform="translate(-4.55,1.65) rotate(1.72) scale(1.000)">
        <g transform="translate(-3.01,2.65) rotate(5.25) scale(0.980)">
        <g transform="translate(-0.72,3.42) rotate(10.25) scale(0.960)">
        <g transform="translate(1.74,3.88) rotate(16.29) scale(0.940)">
        <g transform="translate(3.77,3.99) rotate(22.84) scale(0.920)">
        <g transform="translate(4.88,3.75) rotate(29.29) scale(0.900)">
        <g transform="translate(4.80,3.17) rotate(34.99) scale(0.880)">
        <rect x="-22.5" y="-22.5" width="45.0" height="45.0" rx="11.3" fill="url(#rgrad2)" filter="url(#shadow)" opacity="0.20"/>
        <circle cx="0" cy="0" r="15.0" fill="url(#rgrad3)" opacity="0.14"/>
      </g>
      </g>
      </g>
      </g>
      </g>
      </g>
      </g>
  </g>
  <g transform="translate(531.7, 678.5)">
      <g transform="translate(-0.72,3.96) rotate(1.72) scale(1.000)">
        <g transform="translate(1.74,3.95) rotate(5.25) scale(0.980)">
        <g transform="translate(3.77,3.59) rotate(10.25) scale(0.960)">
        <g transform="translate(4.88,2.91) rotate(16.29) scale(0.940)" clip-path="url(#clipRect)">
        <g transform="translate(4.80,1.97) rotate(22.84) scale(0.920)">
        <g transform="translate(3.54,0.86) rotate(29.29) scale(0.900)">
        <g transform="translate(1.41,-0.34) rotate(34.99) scale(0.880)">
        <path d="M27.5,15.9 L0.0,31.7 L-27.5,15.9 L-27.5,-15.9 L-0.0,-31.7 L27.5,-15.9Z" fill="url(#lgrad3)" filter="url(#blur3)" opacity="0.30"/>
        <ellipse cx="0" cy="0" rx="13.2" ry="8.8" fill="#FFFFFF" opacity="0.15"/>
      </g>
      </g>
      </g>
      </g>
      </g>
      </g>
      </g>
  </g>
  <g transform="translate(738.9, 663.3)">
      <g transform="translate(3.77,2.63) rotate(1.72) scale(1.000)">
        <g transform="translate(4.88,1.62) rotate(5.25) scale(0.980)">
        <g transform="translate(4.80,0.46) rotate(10.25) scale(0.960)">
        <g transform="translate(3.54,-0.73) rotate(16.29) scale(0.940)">
        <g transform="translate(1.41,-1.86) rotate(22.84) scale(0.920)">
        <g transform="translate(-1.06,-2.82) rotate(29.29) scale(0.900)" mask="url(#maskDynamic)">
        <g transform="translate(-3.27,-3.54) rotate(34.99) scale(0.880)">
        <circle cx="0" cy="0" r="33.6" fill="url(#rgrad4)" filter="url(#shadow)" opacity="0.41"/>
        <text x="0" y="5" text-anchor="middle" font-family="Arial, sans-serif" font-size="14" fill="#FFFFFF" opacity="0.41">113</text>
      </g>
      </g>
      </g>
      </g>
      </g>
      </g>
      </g>
  </g>
  <g transform="translate(951.3, 646.6)">
      <g transform="translate(4.80,-1.12) rotate(1.72) scale(1.000)">
        <g transform="translate(3.54,-2.21) rotate(5.25) scale(0.980)">
        <g transform="translate(1.41,-3.09) rotate(10.25) scale(0.960)">
        <g transform="translate(-1.06,-3.70) rotate(16.29) scale(0.940)">
        <g transform="translate(-3.27,-3.98) rotate(22.84) scale(0.920)">
        <g transform="translate(-4.68,-3.91) rotate(29.29) scale(0.900)">
        <g transform="translate(-4.95,-3.48) rotate(34.99) scale(0.880)">
        <path d="M0.0,-75.0 L22.0,-30.3 L71.3,-23.2 L35.6,11.6 L44.1,60.6 L0.0,37.5 L-44.1,60.6 L-35.6,11.6 L-71.3,-23.2 L-22.0,-30.3Z" fill="url(#rgrad0)" filter="url(#blur0)" opacity="0.53"/>
      </g>
      </g>
      </g>
      </g>
      </g>
      </g>
      </g>
  </g>
  <g transform="translate(1170.7, 636.1)">
      <g transform="translate(1.41,-3.84) rotate(1.72) scale(1.000)">
        <g transform="translate(-1.06,-4.00) rotate(5.25) scale(0.980)">
        <g transform="translate(-3.27,-3.81) rotate(10.25) scale(0.960)">
        <g transform="translate(-4.68,-3.27) rotate(16.29) scale(0.940)" clip-path="url(#clipStar)">
        <g transform="translate(-4.95,-2.44) rotate(22.84) scale(0.920)">
        <g transform="translate(-4.00,-1.40) rotate(29.29) scale(0.900)">
        <g transform="translate(-2.08,-0.23) rotate(34.99) scale(0.880)">
        <rect x="-34.5" y="-34.5" width="68.9" height="68.9" rx="17.2" fill="url(#lgrad1)" filter="url(#shadow)" opacity="0.64"/>
        <circle cx="0" cy="0" r="23.0" fill="url(#rgrad2)" opacity="0.45"/>
      </g>
      </g>
      </g>
      </g>
      </g>
      </g>
      </g>
  </g>
  <g transform="translate(1397.2, 636.9)">
      <g transform="translate(-3.27,-3.02) rotate(1.72) scale(1.000)">
        <g transform="translate(-4.68,-2.12) rotate(5.25) scale(0.980)">
        <g transform="translate(-4.95,-1.02) rotate(10.25) scale(0.960)">
        <g transform="translate(-4.00,0.17) rotate(16.29) scale(0.940)">
        <g transform="translate(-2.08,1.34) rotate(22.84) scale(0.920)">
        <g transform="translate(0.36,2.40) rotate(29.29) scale(0.900)" mask="url(#maskStripes)">
        <g transform="translate(2.71,3.24) rotate(34.99) scale(0.880)">
        <path d="M28.4,16.4 L0.0,32.8 L-28.4,16.4 L-28.4,-16.4 L-0.0,-32.8 L28.4,-16.4Z" fill="url(#rgrad2)" filter="url(#blur2)" opacity="0.75"/>
        <ellipse cx="0" cy="0" rx="13.7" ry="9.1" fill="#FFFFFF" opacity="0.37"/>
      </g>
      </g>
      </g>
      </g>
      </g>
      </g>
      </g>
  </g>
  <g transform="translate(1629.4, 648.6)">
      <g transform="translate(-4.95,0.57) rotate(1.72) scale(1.000)">
        <g transform="translate(-4.00,1.71) rotate(5.25) scale(0.980)">
        <g transform="translate(-2.08,2.70) rotate(10.25) scale(0.960)">
        <g transform="translate(0.36,3.45) rotate(16.29) scale(0.940)">
        <g transform="translate(2.71,3.90) rotate(22.84) scale(0.920)">
        <g transform="translate(4.39,3.99) rotate(29.29) scale(0.900)">
        <g transform="translate(5.00,3.73) rotate(34.99) scale(0.880)">
        <circle cx="0" cy="0" r="22.7" fill="url(#rgrad3)" filter="url(#shadow)" opacity="0.83"/>
        <text x="0" y="5" text-anchor="middle" font-family="Arial, sans-serif" font-size="14" fill="#FFFFFF" opacity="0.83">113</text>
      </g>
      </g>
      </g>
      </g>
      </g>
      </g>
      </g>
  </g>
  <g transform="translate(104.1, 945.6)">
      <g transform="translate(-2.08,3.64) rotate(1.72) scale(1.000)">
        <g transform="translate(0.36,3.97) rotate(5.25) scale(0.980)">
        <g transform="translate(2.71,3.94) rotate(10.25) scale(0.960)">
        <g transform="translate(4.39,3.56) rotate(16.29) scale(0.940)" clip-path="url(#clipDynamic)">
        <g transform="translate(5.00,2.87) rotate(22.84) scale(0.920)">
        <g transform="translate(4.39,1.91) rotate(29.29) scale(0.900)">
        <g transform="translate(2.70,0.79) rotate(34.99) scale(0.880)">
        <path d="M0.0,-49.4 L14.5,-20.0 L47.0,-15.3 L23.5,7.6 L29.1,40.0 L0.0,24.7 L-29.1,40.0 L-23.5,7.6 L-47.0,-15.3 L-14.5,-20.0Z" fill="url(#lgrad4)" filter="url(#blur4)" opacity="0.88"/>
      </g>
      </g>
      </g>
      </g>
      </g>
      </g>
      </g>
  </g>
  <g transform="translate(364.8, 361.0)" mask="url(#maskGradient)">
    <ellipse cx="0" cy="0" rx="200" ry="150" fill="url(#rgrad0)" filter="url(#blur3)" opacity="0.3"/>
  </g>
  <g transform="translate(899.1, 313.2)" mask="url(#maskCircleFade)">
    <ellipse cx="0" cy="0" rx="200" ry="150" fill="url(#rgrad1)" filter="url(#blur3)" opacity="0.3"/>
  </g>
  <g transform="translate(1342.3, 259.3)" mask="url(#maskStripes)">
    <ellipse cx="0" cy="0" rx="200" ry="150" fill="url(#rgrad2)" filter="url(#blur3)" opacity="0.3"/>
  </g>
</svg>