<?xml version="1.0" encoding="UTF-8"?>
<svg xmlns="http://www.w3.org/2000/svg" viewBox="0 0 1920 1080" width="1920" height="1080">
  <defs>
    <filter id="blur0" x="-50%" y="-50%" width="200%" height="200%">
      <feGaussianBlur in="SourceGraphic" stdDeviation="1"/>
    </filter>
    <filter id="blur1" x="-50%" y="-50%" width="200%" height="200%">
      <feGaussianBlur in="SourceGraphic" stdDeviation="3"/>
    </filter>
    <filter id="blur2" x="-50%" y="-50%" width="200%" height="200%">
      <feGaussianBlur in="SourceGraphic" stdDeviation="5"/>
    </filter>
    <filter id="blur3" x="-50%" y="-50%" width="200%" height="200%">
      <feGaussianBlur in="SourceGraphic" stdDeviation="7"/>
    </filter>
    <filter id="blur4" x="-50%" y="-50%" width="200%" height="200%">
      <feGaussianBlur in="SourceGraphic" stdDeviation="9"/>
    </filter>
    <filter id="shadow" x="-50%" y="-50%" width="200%" height="200%">
      <feGaussianBlur in="SourceAlpha" stdDeviation="3" result="blur"/>
      <feOffset in="blur" dx="4" dy="4" result="offsetBlur"/>
      <feMerge>
        <feMergeNode in="offsetBlur"/>
        <feMergeNode in="SourceGraphic"/>
      </feMerge>
    </filter>
    <linearGradient id="lgrad0" x1="0%" y1="0%" x2="2.9%" y2="66.7%">
      <stop offset="0%" stop-color="#FF6B6B"/>
      <stop offset="33%" stop-color="#4ECDC4"/>
      <stop offset="66%" stop-color="#45B7D1"/>
      <stop offset="100%" stop-color="#96E6A1"/>
    </linearGradient>
    <linearGradient id="lgrad1" x1="0%" y1="0%" x2="0.8%" y2="40.9%">
      <stop offset="0%" stop-color="#FFE66D"/>
      <stop offset="33%" stop-color="#FF6B6B"/>
      <stop offset="66%" stop-color="#C44D58"/>
      <stop offset="100%" stop-color="#8B0000"/>
    </linearGradient>
    <linearGradient id="lgrad2" x1="0%" y1="0%" x2="12.0%" y2="17.5%">
      <stop offset="0%" stop-color="#4169E1"/>
      <stop offset="33%" stop-color="#7B68EE"/>
      <stop offset="66%" stop-color="#9370DB"/>
      <stop offset="100%" stop-color="#FFD700"/>
    </linearGradient>
    <linearGradient id="lgrad3" x1="0%" y1="0%" x2="33.3%" y2="2.9%">
      <stop offset="0%" stop-color="#32CD32"/>
      <stop offset="33%" stop-color="#228B22"/>
      <stop offset="66%" stop-color="#006400"/>
      <stop offset="100%" stop-color="#ADFF2F"/>
    </linearGradient>
    <linearGradient id="lgrad4" x1="0%" y1="0%" x2="59.1%" y2="0.8%">
      <stop offset="0%" stop-color="#FF1493"/>
      <stop offset="33%" stop-color="#FF69B4"/>
      <stop offset="66%" stop-color="#FFB6C1"/>
      <stop offset="100%" stop-color="#FFC0CB"/>
    </linearGradient>
    <radialGradient id="rgrad0" cx="59.3%" cy="36.2%" r="60%">
      <stop offset="0%" stop-color="#FF6B6B" stop-opacity="1"/>
      <stop offset="50%" stop-color="#4ECDC4" stop-opacity="0.8"/>
      <stop offset="100%" stop-color="#45B7D1" stop-opacity="0.6"/>
    </radialGradient>
    <radialGradient id="rgrad1" cx="69.3%" cy="44.2%" r="60%">
      <stop offset="0%" stop-color="#FFE66D" stop-opacity="1"/>
      <stop offset="50%" stop-color="#FF6B6B" stop-opacity="0.8"/>
      <stop offset="100%" stop-color="#C44D58" stop-opacity="0.6"/>
    </radialGradient>
    <radialGradient id="rgrad2" cx="39.3%" cy="52.2%" r="60%">
      <stop offset="0%" stop-color="#4169E1" stop-opacity="1"/>
      <stop offset="50%" stop-color="#7B68EE" stop-opacity="0.8"/>
      <stop offset="100%" stop-color="#9370DB" stop-opacity="0.6"/>
    </radialGradient>
    <radialGradient id="rgrad3" cx="49.3%" cy="60.2%" r="60%">
      <stop offset="0%" stop-color="#32CD32" stop-opacity="1"/>
      <stop offset="50%" stop-color="#228B22" stop-opacity="0.8"/>
      <stop offset="100%" stop-color="#006400" stop-opacity="0.6"/>
    </radialGradient>
    <radialGradient id="rgrad4" cx="59.3%" cy="68.2%" r="60%">
      <stop offset="0%" stop-color="#FF1493" stop-opacity="1"/>
      <stop offset="50%" stop-color="#FF69B4" stop-opacity="0.8"/>
      <stop offset="100%" stop-color="#FFB6C1" stop-opacity="0.6"/>
    </radialGradient>
    <clipPath id="clipCircle">
      <circle cx="0" cy="0" r="50"/>
    </clipPath>
    <clipPath id="clipStar">
      <path d="M0.0,-50.0 L14.7,-20.2 L47.6,-15.5 L23.8,7.7 L29.4,40.5 L0.0,25.0 L-29.4,40.5 L-23.8,7.7 L-47.6,-15.5 L-14.7,-20.2Z"/>
    </clipPath>
    <clipPath id="clipHex">
      <path d="M39.0,22.5 L0.0,45.0 L-39.0,22.5 L-39.0,-22.5 L-0.0,-45.0 L39.0,-22.5Z"/>
    </clipPath>
    <clipPath id="clipRect">
      <rect x="-40" y="-30" width="80" height="60" rx="10"/>
    </clipPath>
    <clipPath id="clipDynamic">
      <circle cx="0" cy="0" r="49.9"/>
    </clipPath>
    <mask id="maskGradient" maskContentUnits="objectBoundingBox">
      <rect x="0" y="0" width="1" height="1" fill="url(#maskGrad)"/>
    </mask>
    <linearGradient id="maskGrad" x1="0%" y1="0%" x2="100%" y2="100%">
      <stop offset="0%" stop-color="white"/>
      <stop offset="100%" stop-color="black"/>
    </linearGradient>
    <mask id="maskCircleFade">
      <circle cx="0" cy="0" r="60" fill="white"/>
      <circle cx="0" cy="0" r="30" fill="black"/>
    </mask>
    <mask id="maskStripes">
      <rect x="-50" y="-50" width="100" height="100" fill="white"/>
      <rect x="-50" y="-40" width="100" height="10" fill="black"/>
      <rect x="-50" y="-20" width="100" height="10" fill="black"/>
      <rect x="-50" y="0" width="100" height="10" fill="black"/>
      <rect x="-50" y="20" width="100" height="10" fill="black"/>
      <rect x="-50" y="40" width="100" height="10" fill="black"/>
    </mask>
    <mask id="maskDynamic">
      <rect x="-60" y="-60" width="120" height="120" fill="white" fill-opacity="0.76"/>
      <circle cx="0" cy="0" r="25" fill="white"/>
    </mask>
  </defs>
  <rect width="1920" height="1080" fill="url(#lgrad0)"/>
  <g transform="translate(129.8, 103.1)">
      <g transform="translate(4.96,0.50) rotate(3.31) scale(1.000)">
        <g transform="translate(4.65,-0.70) rotate(7.98) scale(0.980)">
        <g transform="translate(3.20,-1.83) rotate(13.52) scale(0.960)">
        <g transform="translate(0.97,-2.80) rotate(19.39) scale(0.940)" clip-path="url(#clipCircle)">
        <g transform="translate(-1.50,-3.52) rotate(24.97) scale(0.920)">
        <g transform="translate(-3.60,-3.92) rotate(29.65) scale(0.900)">
        <g transform="translate(-4.82,-3.98) rotate(32.85) scale(0.880)">
        <path d="M0.0,-69.9 L20.6,-28.3 L66.5,-21.6 L33.3,10.8 L41.1,56.6 L0.0,35.0 L-41.1,56.6 L-33.3,10.8 L-66.5,-21.6 L-20.6,-28.3Z" fill="url(#lgrad0)" filter="url(#blur0)" opacity="0.76"/>
      </g>
      </g>
      </g>
      </g>
      </g>
      </g>
      </g>
  </g>
  <g transform="translate(347.9, 86.4)">
      <g transform="translate(3.20,-3.07) rotate(3.31) scale(1.000)">
        <g transform="translate(0.97,-3.69) rotate(7.98) scale(0.980)">
        <g transform="translate(-1.50,-3.98) rotate(13.52) scale(0.960)">
        <g transform="translate(-3.60,-3.92) rotate(19.39) scale(0.940)">
        <g transform="translate(-4.82,-3.50) rotate(24.97) scale(0.920)">
        <g transform="translate(-4.86,-2.77) rotate(29.65) scale(0.900)" mask="url(#maskCircleFade)">
        <g transform="translate(-3.71,-1.80) rotate(32.85) scale(0.880)">
        <rect x="-37.4" y="-37.4" width="74.8" height="74.8" rx="18.7" fill="url(#rgrad1)" filter="url(#shadow)" opacity="0.84"/>
        <circle cx="0" cy="0" r="24.9" fill="url(#rgrad2)" opacity="0.59"/>
      </g>
      </g>
      </g>
      </g>
      </g>
      </g>
      </g>
  </g>
  <g transform="translate(559.2, 76.1)">
      <g transform="translate(-1.50,-3.82) rotate(3.31) scale(1.000)">
        <g transform="translate(-3.60,-3.29) rotate(7.98) scale(0.980)">
        <g transform="translate(-4.82,-2.47) rotate(13.52) scale(0.960)">
        <g transform="translate(-4.86,-1.43) rotate(19.39) scale(0.940)">
        <g transform="translate(-3.71,-0.26) rotate(24.97) scale(0.920)">
        <g transform="translate(-1.65,0.93) rotate(29.65) scale(0.900)">
        <g transform="translate(0.81,2.04) rotate(32.85) scale(0.880)">
        <path d="M34.3,19.8 L0.0,39.7 L-34.3,19.8 L-34.3,-19.8 L-0.0,-39.7 L34.3,-19.8Z" fill="url(#rgrad2)" filter="url(#blur2)" opacity="0.89"/>
        <ellipse cx="0" cy="0" rx="16.5" ry="11.0" fill="#FFFFFF" opacity="0.44"/>
      </g>
      </g>
      </g>
      </g>
      </g>
      </g>
      </g>
  </g>
  <g transform="translate(765.8, 77.0)">
      <g transform="translate(-4.82,-1.05) rotate(3.31) scale(1.000)">
        <g transform="translate(-4.86,0.14) rotate(7.98) scale(0.980)">
        <g transform="translate(-3.71,1.31) rotate(13.52) scale(0.960)">
        <g transform="translate(-1.65,2.37) rotate(19.39) scale(0.940)" clip-path="url(#clipRect)">
        <g transform="translate(0.81,3.22) rotate(24.97) scale(0.920)">
        <g transform="translate(3.08,3.78) rotate(29.65) scale(0.900)">
        <g transform="translate(4.59,4.00) rotate(32.85) scale(0.880)">
        <circle cx="0" cy="0" r="25.9" fill="url(#lgrad3)" filter="url(#shadow)" opacity="0.90"/>
        <text x="0" y="5" text-anchor="middle" font-family="Arial, sans-serif" font-size="14" fill="#FFFFFF" opacity="0.90">231</text>
      </g>
      </g>
      </g>
      </g>
      </g>
      </g>
      </g>
  </g>
  <g transform="translate(971.0, 88.8)">
      <g transform="translate(-3.71,2.68) rotate(3.31) scale(1.000)">
        <g transform="translate(-1.65,3.44) rotate(7.98) scale(0.980)">
        <g transform="translate(0.81,3.89) rotate(13.52) scale(0.960)">
        <g transform="translate(3.08,3.99) rotate(19.39) scale(0.940)">
        <g transform="translate(4.59,3.74) rotate(24.97) scale(0.920)">
        <g transform="translate(4.98,3.15) rotate(29.65) scale(0.900)" mask="url(#maskGradient)">
        <g transform="translate(4.15,2.28) rotate(32.85) scale(0.880)">
        <path d="M0.0,-45.0 L13.2,-18.2 L42.8,-13.9 L21.4,7.0 L26.5,36.4 L0.0,22.5 L-26.5,36.4 L-21.4,7.0 L-42.8,-13.9 L-13.2,-18.2Z" fill="url(#rgrad4)" filter="url(#blur4)" opacity="0.88"/>
      </g>
      </g>
      </g>
      </g>
      </g>
      </g>
      </g>
  </g>
  <g transform="translate(1178.4, 105.8)">
      <g transform="translate(0.81,3.95) rotate(3.31) scale(1.000)">
        <g transform="translate(3.08,3.58) rotate(7.98) scale(0.980)">
        <g transform="translate(4.59,2.89) rotate(13.52) scale(0.960)">
        <g transform="translate(4.98,1.94) rotate(19.39) scale(0.940)">
        <g transform="translate(4.15,0.82) rotate(24.97) scale(0.920)">
        <g transform="translate(2.30,-0.37) rotate(29.65) scale(0.900)">
        <g transform="translate(-0.11,-1.53) rotate(32.85) scale(0.880)">
        <rect x="-26.0" y="-26.0" width="52.0" height="52.0" rx="13.0" fill="url(#rgrad0)" filter="url(#shadow)" opacity="0.82"/>
        <circle cx="0" cy="0" r="17.3" fill="url(#rgrad1)" opacity="0.57"/>
      </g>
      </g>
      </g>
      </g>
      </g>
      </g>
      </g>
  </g>
  <g transform="translate(1391.1, 120.1)">
      <g transform="translate(4.59,1.58) rotate(3.31) scale(1.000)">
        <g transform="translate(4.98,0.43) rotate(7.98) scale(0.980)">
        <g transform="translate(4.15,-0.77) rotate(13.52) scale(0.960)">
        <g transform="translate(2.30,-1.89) rotate(19.39) scale(0.940)" clip-path="url(#clipStar)">
        <g transform="translate(-0.11,-2.85) rotate(24.97) scale(0.920)">
        <g transform="translate(-2.49,-3.55) rotate(29.65) scale(0.900)">
        <g transform="translate(-4.27,-3.94) rotate(32.85) scale(0.880)">
        <path d="M34.5,19.9 L0.0,39.8 L-34.5,19.9 L-34.5,-19.9 L-0.0,-39.8 L34.5,-19.9Z" fill="url(#lgrad1)" filter="url(#blur1)" opacity="0.73"/>
        <ellipse cx="0" cy="0" rx="16.6" ry="11.1" fill="#FFFFFF" opacity="0.37"/>
      </g>
      </g>
      </g>
      </g>
      </g>
      </g>
      </g>
  </g>
  <g transform="translate(1610.8, 124.9)">
      <g transform="translate(4.15,-2.23) rotate(3.31) scale(1.000)">
        <g transform="translate(2.30,-3.11) rotate(7.98) scale(0.980)">
        <g transform="translate(-0.11,-3.72) rotate(13.52) scale(0.960)">
        <g transform="translate(-2.49,-3.99) rotate(19.39) scale(0.940)">
        <g transform="translate(-4.27,-3.90) rotate(24.97) scale(0.920)">
        <g transform="translate(-4.99,-3.47) rotate(29.65) scale(0.900)" mask="url(#maskDynamic)">
        <g transform="translate(-4.50,-2.72) rotate(32.85) scale(0.880)">
        <circle cx="0" cy="0" r="37.4" fill="url(#rgrad2)" filter="url(#shadow)" opacity="0.63"/>
        <text x="0" y="5" text-anchor="middle" font-family="Arial, sans-serif" font-size="14" fill="#FFFFFF" opacity="0.63">231</text>
      </g>
      </g>
      </g>
      </g>
      </g>
      </g>
      </g>
  </g>
  <g transform="translate(77.7, 398.1)">
      <g transform="translate(-0.11,-4.00) rotate(3.31) scale(1.000)">
        <g transform="translate(-2.49,-3.79) rotate(7.98) scale(0.980)">
        <g transform="translate(-4.27,-3.25) rotate(13.52) scale(0.960)">
        <g transform="translate(-4.99,-2.42) rotate(19.39) scale(0.940)">
        <g transform="translate(-4.50,-1.37) rotate(24.97) scale(0.920)">
        <g transform="translate(-2.90,-0.20) rotate(29.65) scale(0.900)">
        <g transform="translate(-0.60,0.99) rotate(32.85) scale(0.880)">
        <path d="M0.0,-69.7 L20.5,-28.2 L66.3,-21.5 L33.1,10.8 L41.0,56.4 L0.0,34.8 L-41.0,56.4 L-33.1,10.8 L-66.3,-21.5 L-20.5,-28.2Z" fill="url(#rgrad3)" filter="url(#blur3)" opacity="0.51"/>
      </g>
      </g>
      </g>
      </g>
      </g>
      </g>
      </g>
  </g>
  <g transform="translate(310.1, 382.7)">
      <g transform="translate(-4.27,-2.09) rotate(3.31) scale(1.000)">
        <g transform="translate(-4.99,-0.99) rotate(7.98) scale(0.980)">
        <g transform="translate(-4.50,0.20) rotate(13.52) scale(0.960)">
        <g transform="translate(-2.90,1.38) rotate(19.39) scale(0.940)" clip-path="url(#clipDynamic)">
        <g transform="translate(-0.60,2.42) rotate(24.97) scale(0.920)">
        <g transform="translate(1.86,3.26) rotate(29.65) scale(0.900)">
        <g transform="translate(3.85,3.80) rotate(32.85) scale(0.880)">
        <rect x="-27.8" y="-27.8" width="55.6" height="55.6" rx="13.9" fill="url(#lgrad4)" filter="url(#shadow)" opacity="0.39"/>
        <circle cx="0" cy="0" r="18.5" fill="url(#rgrad0)" opacity="0.27"/>
      </g>
      </g>
      </g>
      </g>
      </g>
      </g>
      </g>
  </g>
  <g transform="translate(544.9, 366.0)">
      <g transform="translate(-4.50,1.74) rotate(3.31) scale(1.000)">
        <g transform="translate(-2.90,2.73) rotate(7.98) scale(0.980)">
        <g transform="translate(-0.60,3.47) rotate(13.52) scale(0.960)">
        <g transform="translate(1.86,3.90) rotate(19.39) scale(0.940)">
        <g transform="translate(3.85,3.99) rotate(24.97) scale(0.920)">
        <g transform="translate(4.91,3.71) rotate(29.65) scale(0.900)" mask="url(#maskStripes)">
        <g transform="translate(4.76,3.11) rotate(32.85) scale(0.880)">
        <path d="M23.7,13.7 L0.0,27.3 L-23.7,13.7 L-23.7,-13.7 L-0.0,-27.3 L23.7,-13.7Z" fill="url(#rgrad0)" filter="url(#blur0)" opacity="0.28"/>
        <ellipse cx="0" cy="0" rx="11.4" ry="7.6" fill="#FFFFFF" opacity="0.14"/>
      </g>
      </g>
      </g>
      </g>
      </g>
      </g>
      </g>
  </g>
  <g transform="translate(778.5, 356.0)">
      <g transform="translate(-0.60,3.97) rotate(3.31) scale(1.000)">
        <g transform="translate(1.86,3.94) rotate(7.98) scale(0.980)">
        <g transform="translate(3.85,3.55) rotate(13.52) scale(0.960)">
        <g transform="translate(4.91,2.84) rotate(19.39) scale(0.940)">
        <g transform="translate(4.76,1.88) rotate(24.97) scale(0.920)">
        <g transform="translate(3.45,0.76) rotate(29.65) scale(0.900)">
        <g transform="translate(1.29,-0.44) rotate(32.85) scale(0.880)">
        <circle cx="0" cy="0" r="24.4" fill="url(#rgrad1)" filter="url(#shadow)" opacity="0.19"/>
        <text x="0" y="5" text-anchor="middle" font-family="Arial, sans-serif" font-size="14" fill="#FFFFFF" opacity="0.19">231</text>
      </g>
      </g>
      </g>
      </g>
      </g>
      </g>
      </g>
  </g>
  <g transform="translate(1007.5, 357.2)">
      <g transform="translate(3.85,2.55) rotate(3.31) scale(1.000)">
        <g transform="translate(4.91,1.52) rotate(7.98) scale(0.980)">
        <g transform="translate(4.76,0.36) rotate(13.52) scale(0.960)">
        <g transform="translate(3.45,-0.83) rotate(19.39) scale(0.940)" clip-path="url(#clipHex)">
        <g transform="translate(1.29,-1.95) rotate(24.97) scale(0.920)">
        <g transform="translate(-1.18,-2.90) rotate(29.65) scale(0.900)">
        <g transform="translate(-3.37,-3.58) rotate(32.85) scale(0.880)">
        <path d="M0.0,-62.3 L18.3,-25.2 L59.3,-19.3 L29.6,9.6 L36.6,50.4 L0.0,31.2 L-36.6,50.4 L-29.6,9.6 L-59.3,-19.3 L-18.3,-25.2Z" fill="url(#lgrad2)" filter="url(#blur2)" opacity="0.13"/>
      </g>
      </g>
      </g>
      </g>
      </g>
      </g>
      </g>
  </g>
  <g transform="translate(1229.9, 369.1)">
      <g transform="translate(4.76,-1.22) rotate(3.31) scale(1.000)">
        <g transform="translate(3.45,-2.29) rotate(7.98) scale(0.980)">
        <g transform="translate(1.29,-3.16) rotate(13.52) scale(0.960)">
        <g transform="translate(-1.18,-3.74) rotate(19.39) scale(0.940)">
        <g transform="translate(-3.37,-3.99) rotate(24.97) scale(0.920)">
        <g transform="translate(-4.73,-3.89) rotate(29.65) scale(0.900)" mask="url(#maskCircleFade)">
        <g transform="translate(-4.93,-3.43) rotate(32.85) scale(0.880)">
        <rect x="-36.9" y="-36.9" width="73.7" height="73.7" rx="18.4" fill="url(#rgrad3)" filter="url(#shadow)" opacity="0.10"/>
        <circle cx="0" cy="0" r="24.6" fill="url(#rgrad4)" opacity="0.07"/>
      </g>
      </g>
      </g>
      </g>
      </g>
      </g>
      </g>
  </g>
  <g transform="translate(1444.9, 386.2)">
      <g transform="translate(1.29,-3.86) rotate(3.31) scale(1.000)">
        <g transform="translate(-1.18,-4.00) rotate(7.98) scale(0.980)">
        <g transform="translate(-3.37,-3.77) rotate(13.52) scale(0.960)">
        <g transform="translate(-4.73,-3.21) rotate(19.39) scale(0.940)">
        <g transform="translate(-4.93,-2.36) rotate(24.97) scale(0.920)">
        <g transform="translate(-3.93,-1.30) rotate(29.65) scale(0.900)">
        <g transform="translate(-1.96,-0.13) rotate(32.85) scale(0.880)">
        <path d="M37.7,21.7 L0.0,43.5 L-37.7,21.7 L-37.7,-21.7 L-0.0,-43.5 L37.7,-21.7Z" fill="url(#rgrad4)" filter="url(#blur4)" opacity="0.11"/>
        <ellipse cx="0" cy="0" rx="18.1" ry="12.1" fill="#FFFFFF" opacity="0.05"/>
      </g>
      </g>
      </g>
      </g>
      </g>
      </g>
      </g>
  </g>
  <g transform="translate(1653.8, 400.3)">
      <g transform="translate(-3.37,-2.96) rotate(3.31) scale(1.000)">
        <g transform="translate(-4.73,-2.03) rotate(7.98) scale(0.980)">
        <g transform="translate(-4.93,-0.92) rotate(13.52) scale(0.960)">
        <g transform="translate(-3.93,0.27) rotate(19.39) scale(0.940)" clip-path="url(#clipCircle)">
        <g transform="translate(-1.96,1.44) rotate(24.97) scale(0.920)">
        <g transform="translate(0.48,2.48) rotate(29.65) scale(0.900)">
        <g transform="translate(2.81,3.29) rotate(32.85) scale(0.880)">
        <circle cx="0" cy="0" r="29.9" fill="url(#lgrad0)" filter="url(#shadow)" opacity="0.15"/>
        <text x="0" y="5" text-anchor="middle" font-family="Arial, sans-serif" font-size="14" fill="#FFFFFF" opacity="0.15">231</text>
      </g>
      </g>
      </g>
      </g>
      </g>
      </g>
      </g>
  </g>
  <g transform="translate(99.3, 684.9)">
      <g transform="translate(-4.93,0.67) rotate(3.31) scale(1.000)">
        <g transform="translate(-3.93,1.80) rotate(7.98) scale(0.980)">
        <g transform="translate(-1.96,2.78) rotate(13.52) scale(0.960)">
        <g transform="translate(0.48,3.50) rotate(19.39) scale(0.940)">
        <g transform="translate(2.81,3.92) rotate(24.97) scale(0.920)">
        <g transform="translate(4.45,3.98) rotate(29.65) scale(0.900)" mask="url(#maskGradient)">
        <g transform="translate(5.00,3.69) rotate(32.85) scale(0.880)">
        <path d="M0.0,-47.3 L13.9,-19.1 L44.9,-14.6 L22.5,7.3 L27.8,38.2 L0.0,23.6 L-27.8,38.2 L-22.5,7.3 L-44.9,-14.6 L-13.9,-19.1Z" fill="url(#rgrad1)" filter="url(#blur1)" opacity="0.22"/>
      </g>
      </g>
      </g>
      </g>
      </g>
      </g>
      </g>
  </g>
  <g transform="translate(305.0, 677.8)">
      <g transform="translate(-1.96,3.68) rotate(3.31) scale(1.000)">
        <g transform="translate(0.48,3.98) rotate(7.98) scale(0.980)">
        <g transform="translate(2.81,3.92) rotate(13.52) scale(0.960)">
        <g transform="translate(4.45,3.52) rotate(19.39) scale(0.940)">
        <g transform="translate(5.00,2.80) rotate(24.97) scale(0.920)">
        <g transform="translate(4.32,1.82) rotate(29.65) scale(0.900)">
        <g transform="translate(2.59,0.69) rotate(32.85) scale(0.880)">
        <rect x="-23.2" y="-23.2" width="46.5" height="46.5" rx="11.6" fill="url(#rgrad2)" filter="url(#shadow)" opacity="0.32"/>
        <circle cx="0" cy="0" r="15.5" fill="url(#rgrad3)" opacity="0.23"/>
      </g>
      </g>
      </g>
      </g>
      </g>
      </g>
      </g>
  </g>
  <g transform="translate(514.4, 662.3)">
      <g transform="translate(2.81,3.31) rotate(3.31) scale(1.000)">
        <g transform="translate(4.45,2.50) rotate(7.98) scale(0.980)">
        <g transform="translate(5.00,1.46) rotate(13.52) scale(0.960)">
        <g transform="translate(4.32,0.29) rotate(19.39) scale(0.940)" clip-path="url(#clipRect)">
        <g transform="translate(2.59,-0.90) rotate(24.97) scale(0.920)">
        <g transform="translate(0.22,-2.01) rotate(29.65) scale(0.900)">
        <g transform="translate(-2.20,-2.94) rotate(32.85) scale(0.880)">
        <path d="M30.2,17.4 L0.0,34.9 L-30.2,17.4 L-30.2,-17.4 L-0.0,-34.9 L30.2,-17.4Z" fill="url(#lgrad3)" filter="url(#blur3)" opacity="0.44"/>
        <ellipse cx="0" cy="0" rx="14.5" ry="9.7" fill="#FFFFFF" opacity="0.22"/>
      </g>
      </g>
      </g>
      </g>
      </g>
      </g>
      </g>
  </g>
  <g transform="translate(730.0, 645.7)">
      <g transform="translate(5.00,-0.10) rotate(3.31) scale(1.000)">
        <g transform="translate(4.32,-1.28) rotate(7.98) scale(0.980)">
        <g transform="translate(2.59,-2.34) rotate(13.52) scale(0.960)">
        <g transform="translate(0.22,-3.20) rotate(19.39) scale(0.940)">
        <g transform="translate(-2.20,-3.76) rotate(24.97) scale(0.920)">
        <g transform="translate(-4.08,-4.00) rotate(29.65) scale(0.900)" mask="url(#maskDynamic)">
        <g transform="translate(-4.97,-3.87) rotate(32.85) scale(0.880)">
        <circle cx="0" cy="0" r="35.8" fill="url(#rgrad4)" filter="url(#shadow)" opacity="0.56"/>
        <text x="0" y="5" text-anchor="middle" font-family="Arial, sans-serif" font-size="14" fill="#FFFFFF" opacity="0.56">231</text>
      </g>
      </g>
      </g>
      </g>
      </g>
      </g>
      </g>
  </g>
  <g transform="translate(953.0, 635.8)">
      <g transform="translate(2.59,-3.42) rotate(3.31) scale(1.000)">
        <g transform="translate(0.22,-3.88) rotate(7.98) scale(0.980)">
        <g transform="translate(-2.20,-3.99) rotate(13.52) scale(0.960)">
        <g transform="translate(-4.08,-3.75) rotate(19.39) scale(0.940)">
        <g transform="translate(-4.97,-3.17) rotate(24.97) scale(0.920)">
        <g transform="translate(-4.63,-2.31) rotate(29.65) scale(0.900)">
        <g transform="translate(-3.17,-1.24) rotate(32.85) scale(0.880)">
        <path d="M0.0,-74.3 L21.8,-30.1 L70.7,-23.0 L35.3,11.5 L43.7,60.1 L0.0,37.2 L-43.7,60.1 L-35.3,11.5 L-70.7,-23.0 L-21.8,-30.1Z" fill="url(#rgrad0)" filter="url(#blur0)" opacity="0.67"/>
      </g>
      </g>
      </g>
      </g>
      </g>
      </g>
      </g>
  </g>
  <g transform="translate(1182.6, 637.4)">
      <g transform="translate(-2.20,-3.59) rotate(3.31) scale(1.000)">
        <g transform="translate(-4.08,-2.91) rotate(7.98) scale(0.980)">
        <g transform="translate(-4.97,-1.97) rotate(13.52) scale(0.960)">
        <g transform="translate(-4.63,-0.85) rotate(19.39) scale(0.940)" clip-path="url(#clipStar)">
        <g transform="translate(-3.17,0.34) rotate(24.97) scale(0.920)">
        <g transform="translate(-0.93,1.50) rotate(29.65) scale(0.900)">
        <g transform="translate(1.54,2.53) rotate(32.85) scale(0.880)">
        <rect x="-32.0" y="-32.0" width="64.0" height="64.0" rx="16.0" fill="url(#lgrad1)" filter="url(#shadow)" opacity="0.77"/>
        <circle cx="0" cy="0" r="21.3" fill="url(#rgrad2)" opacity="0.54"/>
      </g>
      </g>
      </g>
      </g>
      </g>
      </g>
      </g>
  </g>
  <g transform="translate(1416.4, 649.5)">
      <g transform="translate(-4.97,-0.46) rotate(3.31) scale(1.000)">
        <g transform="translate(-4.63,0.73) rotate(7.98) scale(0.980)">
        <g transform="translate(-3.17,1.86) rotate(13.52) scale(0.960)">
        <g transform="translate(-0.93,2.83) rotate(19.39) scale(0.940)">
        <g transform="translate(1.54,3.54) rotate(24.97) scale(0.920)">
        <g transform="translate(3.63,3.93) rotate(29.65) scale(0.900)" mask="url(#maskStripes)">
        <g transform="translate(4.84,3.97) rotate(32.85) scale(0.880)">
        <path d="M26.0,15.0 L0.0,30.0 L-26.0,15.0 L-26.0,-15.0 L-0.0,-30.0 L26.0,-15.0Z" fill="url(#rgrad2)" filter="url(#blur2)" opacity="0.84"/>
        <ellipse cx="0" cy="0" rx="12.5" ry="8.3" fill="#FFFFFF" opacity="0.42"/>
      </g>
      </g>
      </g>
      </g>
      </g>
      </g>
      </g>
  </g>
  <g transform="translate(1651.1, 666.6)">
      <g transform="translate(-3.17,3.09) rotate(3.31) scale(1.000)">
        <g transform="translate(-0.93,3.71) rotate(7.98) scale(0.980)">
        <g transform="translate(1.54,3.99) rotate(13.52) scale(0.960)">
        <g transform="translate(3.63,3.91) rotate(19.39) scale(0.940)">
        <g transform="translate(4.84,3.48) rotate(24.97) scale(0.920)">
        <g transform="translate(4.85,2.75) rotate(29.65) scale(0.900)">
        <g transform="translate(3.68,1.76) rotate(32.85) scale(0.880)">
        <circle cx="0" cy="0" r="22.6" fill="url(#rgrad3)" filter="url(#shadow)" opacity="0.89"/>
        <text x="0" y="5" text-anchor="middle" font-family="Arial, sans-serif" font-size="14" fill="#FFFFFF" opacity="0.89">231</text>
      </g>
      </g>
      </g>
      </g>
      </g>
      </g>
      </g>
  </g>
  <g transform="translate(123.1, 960.6)">
      <g transform="translate(1.54,3.80) rotate(3.31) scale(1.000)">
        <g transform="translate(3.63,3.27) rotate(7.98) scale(0.980)">
        <g transform="translate(4.84,2.44) rotate(13.52) scale(0.960)">
        <g transform="translate(4.85,1.40) rotate(19.39) scale(0.940)" clip-path="url(#clipDynamic)">
        <g transform="translate(3.68,0.23) rotate(24.97) scale(0.920)">
        <g transform="translate(1.61,-0.96) rotate(29.65) scale(0.900)">
        <g transform="translate(-0.86,-2.07) rotate(32.85) scale(0.880)">
        <path d="M0.0,-54.0 L15.9,-21.9 L51.4,-16.7 L25.7,8.3 L31.8,43.7 L0.0,27.0 L-31.8,43.7 L-25.7,8.3 L-51.4,-16.7 L-15.9,-21.9Z" fill="url(#lgrad4)" filter="url(#blur4)" opacity="0.90"/>
      </g>
      </g>
      </g>
      </g>
      </g>
      </g>
      </g>
  </g>
  <g transform="translate(399.2, 309.9)" mask="url(#maskGradient)">
    <ellipse cx="0" cy="0" rx="200" ry="150" fill="url(#rgrad0)" filter="url(#blur3)" opacity="0.3"/>
  </g>
  <g transform="translate(864.0, 256.4)" mask="url(#maskCircleFade)">
    <ellipse cx="0" cy="0" rx="200" ry="150" fill="url(#rgrad1)" filter="url(#blur3)" opacity="0.3"/>
  </g>
  <g transform="translate(1270.0, 223.5)" mask="url(#maskStripes)">
    <ellipse cx="0" cy="0" rx="200" ry="150" fill="url(#rgrad2)" filter="url(#blur3)" opacity="0.3"/>
  </g>
</svg>