<?xml version="1.0" encoding="UTF-8"?>
<svg xmlns="http://www.w3.org/2000/svg" viewBox="0 0 1920 1080" width="1920" height="1080">
  <defs>
    <filter id="blur0" x="-50%" y="-50%" width="200%" height="200%">
      <feGaussianBlur in="SourceGraphic" stdDeviation="1"/>
    </filter>
    <filter id="blur1" x="-50%" y="-50%" width="200%" height="200%">
      <feGaussianBlur in="SourceGraphic" stdDeviation="3"/>
    </filter>
    <filter id="blur2" x="-50%" y="-50%" width="200%" height="200%">
      <feGaussianBlur in="SourceGraphic" stdDeviation="5"/>
    </filter>
    <filter id="blur3" x="-50%" y="-50%" width="200%" height="200%">
      <feGaussianBlur in="SourceGraphic" stdDeviation="7"/>
    </filter>
    <filter id="blur4" x="-50%" y="-50%" width="200%" height="200%">
      <feGaussianBlur in="SourceGraphic" stdDeviation="9"/>
    </filter>
    <filter id="shadow" x="-50%" y="-50%" width="200%" height="200%">
      <feGaussianBlur in="SourceAlpha" stdDeviation="3" result="blur"/>
      <feOffset in="blur" dx="4" dy="4" result="offsetBlur"/>
      <feMerge>
        <feMergeNode in="offsetBlur"/>
        <feMergeNode in="SourceGraphic"/>
      </feMerge>
    </filter>
    <linearGradient id="lgrad0" x1="0%" y1="0%" x2="46.1%" y2="99.8%">
      <stop offset="0%" stop-color="#FF6B6B"/>
      <stop offset="33%" stop-color="#4ECDC4"/>
      <stop offset="66%" stop-color="#45B7D1"/>
      <stop offset="100%" stop-color="#96E6A1"/>
    </linearGradient>
    <linearGradient id="lgrad1" x1="0%" y1="0%" x2="21.7%" y2="91.2%">
      <stop offset="0%" stop-color="#FFE66D"/>
      <stop offset="33%" stop-color="#FF6B6B"/>
      <stop offset="66%" stop-color="#C44D58"/>
      <stop offset="100%" stop-color="#8B0000"/>
    </linearGradient>
    <linearGradient id="lgrad2" x1="0%" y1="0%" x2="4.9%" y2="71.5%">
      <stop offset="0%" stop-color="#4169E1"/>
      <stop offset="33%" stop-color="#7B68EE"/>
      <stop offset="66%" stop-color="#9370DB"/>
      <stop offset="100%" stop-color="#FFD700"/>
    </linearGradient>
    <linearGradient id="lgrad3" x1="0%" y1="0%" x2="0.2%" y2="46.1%">
      <stop offset="0%" stop-color="#32CD32"/>
      <stop offset="33%" stop-color="#228B22"/>
      <stop offset="66%" stop-color="#006400"/>
      <stop offset="100%" stop-color="#ADFF2F"/>
    </linearGradient>
    <linearGradient id="lgrad4" x1="0%" y1="0%" x2="8.8%" y2="21.7%">
      <stop offset="0%" stop-color="#FF1493"/>
      <stop offset="33%" stop-color="#FF69B4"/>
      <stop offset="66%" stop-color="#FFB6C1"/>
      <stop offset="100%" stop-color="#FFC0CB"/>
    </linearGradient>
    <radialGradient id="rgrad0" cx="59.7%" cy="49.8%" r="60%">
      <stop offset="0%" stop-color="#FF6B6B" stop-opacity="1"/>
      <stop offset="50%" stop-color="#4ECDC4" stop-opacity="0.8"/>
      <stop offset="100%" stop-color="#45B7D1" stop-opacity="0.6"/>
    </radialGradient>
    <radialGradient id="rgrad1" cx="69.7%" cy="57.8%" r="60%">
      <stop offset="0%" stop-color="#FFE66D" stop-opacity="1"/>
      <stop offset="50%" stop-color="#FF6B6B" stop-opacity="0.8"/>
      <stop offset="100%" stop-color="#C44D58" stop-opacity="0.6"/>
    </radialGradient>
    <radialGradient id="rgrad2" cx="39.7%" cy="65.8%" r="60%">
      <stop offset="0%" stop-color="#4169E1" stop-opacity="1"/>
      <stop offset="50%" stop-color="#7B68EE" stop-opacity="0.8"/>
      <stop offset="100%" stop-color="#9370DB" stop-opacity="0.6"/>
    </radialGradient>
    <radialGradient id="rgrad3" cx="49.7%" cy="33.8%" r="60%">
      <stop offset="0%" stop-color="#32CD32" stop-opacity="1"/>
      <stop offset="50%" stop-color="#228B22" stop-opacity="0.8"/>
      <stop offset="100%" stop-color="#006400" stop-opacity="0.6"/>
    </radialGradient>
    <radialGradient id="rgrad4" cx="59.7%" cy="41.8%" r="60%">
      <stop offset="0%" stop-color="#FF1493" stop-opacity="1"/>
      <stop offset="50%" stop-color="#FF69B4" stop-opacity="0.8"/>
      <stop offset="100%" stop-color="#FFB6C1" stop-opacity="0.6"/>
    </radialGradient>
    <clipPath id="clipCircle">
      <circle cx="0" cy="0" r="50"/>
    </clipPath>
    <clipPath id="clipStar">
      <path d="M0.0,-50.0 L14.7,-20.2 L47.6,-15.5 L23.8,7.7 L29.4,40.5 L0.0,25.0 L-29.4,40.5 L-23.8,7.7 L-47.6,-15.5 L-14.7,-20.2Z"/>
    </clipPath>
    <clipPath id="clipHex">
      <path d="M39.0,22.5 L0.0,45.0 L-39.0,22.5 L-39.0,-22.5 L-0.0,-45.0 L39.0,-22.5Z"/>
    </clipPath>
    <clipPath id="clipRect">
      <rect x="-40" y="-30" width="80" height="60" rx="10"/>
    </clipPath>
    <clipPath id="clipDynamic">
      <circle cx="0" cy="0" r="43.7"/>
    </clipPath>
    <mask id="maskGradient" maskContentUnits="objectBoundingBox">
      <rect x="0" y="0" width="1" height="1" fill="url(#maskGrad)"/>
    </mask>
    <linearGradient id="maskGrad" x1="0%" y1="0%" x2="100%" y2="100%">
      <stop offset="0%" stop-color="white"/>
      <stop offset="100%" stop-color="black"/>
    </linearGradient>
    <mask id="maskCircleFade">
      <circle cx="0" cy="0" r="60" fill="white"/>
      <circle cx="0" cy="0" r="30" fill="black"/>
    </mask>
    <mask id="maskStripes">
      <rect x="-50" y="-50" width="100" height="100" fill="white"/>
      <rect x="-50" y="-40" width="100" height="10" fill="black"/>
      <rect x="-50" y="-20" width="100" height="10" fill="black"/>
      <rect x="-50" y="0" width="100" height="10" fill="black"/>
      <rect x="-50" y="20" width="100" height="10" fill="black"/>
      <rect x="-50" y="40" width="100" height="10" fill="black"/>
    </mask>
    <mask id="maskDynamic">
      <rect x="-60" y="-60" width="120" height="120" fill="white" fill-opacity="0.51"/>
      <circle cx="0" cy="0" r="25" fill="white"/>
    </mask>
  </defs>
  <rect width="1920" height="1080" fill="url(#lgrad0)"/>
  <g transform="translate(117.3, 120.4)">
      <g transform="translate(2.89,3.26) rotate(1.52) scale(1.000)">
        <g transform="translate(4.49,2.43) rotate(4.87) scale(0.980)">
        <g transform="translate(4.99,1.39) rotate(9.76) scale(0.960)">
        <g transform="translate(4.27,0.22) rotate(15.77) scale(0.940)" clip-path="url(#clipCircle)">
        <g transform="translate(2.51,-0.97) rotate(22.37) scale(0.920)">
        <g transform="translate(0.13,-2.08) rotate(28.97) scale(0.900)">
        <g transform="translate(-2.29,-2.99) rotate(34.93) scale(0.880)">
        <path d="M0.0,-64.5 L19.0,-26.1 L61.4,-19.9 L30.7,10.0 L37.9,52.2 L0.0,32.3 L-37.9,52.2 L-30.7,10.0 L-61.4,-19.9 L-19.0,-26.1Z" fill="url(#lgrad0)" filter="url(#blur0)" opacity="0.62"/>
      </g>
      </g>
      </g>
      </g>
      </g>
      </g>
      </g>
  </g>
  <g transform="translate(347.0, 106.3)">
      <g transform="translate(4.99,-0.18) rotate(1.52) scale(1.000)">
        <g transform="translate(4.27,-1.35) rotate(4.87) scale(0.980)">
        <g transform="translate(2.51,-2.41) rotate(9.76) scale(0.960)">
        <g transform="translate(0.13,-3.24) rotate(15.77) scale(0.940)">
        <g transform="translate(-2.29,-3.79) rotate(22.37) scale(0.920)">
        <g transform="translate(-4.14,-4.00) rotate(28.97) scale(0.900)" mask="url(#maskCircleFade)">
        <g transform="translate(-4.98,-3.85) rotate(34.93) scale(0.880)">
        <rect x="-37.2" y="-37.2" width="74.5" height="74.5" rx="18.6" fill="url(#rgrad1)" filter="url(#shadow)" opacity="0.73"/>
        <circle cx="0" cy="0" r="24.8" fill="url(#rgrad2)" opacity="0.51"/>
      </g>
      </g>
      </g>
      </g>
      </g>
      </g>
      </g>
  </g>
  <g transform="translate(570.0, 89.2)">
      <g transform="translate(2.51,-3.46) rotate(1.52) scale(1.000)">
        <g transform="translate(0.13,-3.90) rotate(4.87) scale(0.980)">
        <g transform="translate(-2.29,-3.99) rotate(9.76) scale(0.960)">
        <g transform="translate(-4.14,-3.72) rotate(15.77) scale(0.940)">
        <g transform="translate(-4.98,-3.12) rotate(22.37) scale(0.920)">
        <g transform="translate(-4.60,-2.25) rotate(28.97) scale(0.900)">
        <g transform="translate(-3.09,-1.17) rotate(34.93) scale(0.880)">
        <path d="M36.9,21.3 L0.0,42.7 L-36.9,21.3 L-36.9,-21.3 L-0.0,-42.7 L36.9,-21.3Z" fill="url(#rgrad2)" filter="url(#blur2)" opacity="0.82"/>
        <ellipse cx="0" cy="0" rx="17.8" ry="11.9" fill="#FFFFFF" opacity="0.41"/>
      </g>
      </g>
      </g>
      </g>
      </g>
      </g>
      </g>
  </g>
  <g transform="translate(785.6, 77.2)">
      <g transform="translate(-2.29,-3.56) rotate(1.52) scale(1.000)">
        <g transform="translate(-4.14,-2.86) rotate(4.87) scale(0.980)">
        <g transform="translate(-4.98,-1.90) rotate(9.76) scale(0.960)">
        <g transform="translate(-4.60,-0.78) rotate(15.77) scale(0.940)" clip-path="url(#clipRect)">
        <g transform="translate(-3.09,0.42) rotate(22.37) scale(0.920)">
        <g transform="translate(-0.83,1.57) rotate(28.97) scale(0.900)">
        <g transform="translate(1.64,2.59) rotate(34.93) scale(0.880)">
        <circle cx="0" cy="0" r="28.8" fill="url(#lgrad3)" filter="url(#shadow)" opacity="0.87"/>
        <text x="0" y="5" text-anchor="middle" font-family="Arial, sans-serif" font-size="14" fill="#FFFFFF" opacity="0.87">99</text>
      </g>
      </g>
      </g>
      </g>
      </g>
      </g>
      </g>
  </g>
  <g transform="translate(995.0, 75.9)">
      <g transform="translate(-4.98,-0.38) rotate(1.52) scale(1.000)">
        <g transform="translate(-4.60,0.81) rotate(4.87) scale(0.980)">
        <g transform="translate(-3.09,1.93) rotate(9.76) scale(0.960)">
        <g transform="translate(-0.83,2.88) rotate(15.77) scale(0.940)">
        <g transform="translate(1.64,3.57) rotate(22.37) scale(0.920)">
        <g transform="translate(3.70,3.94) rotate(28.97) scale(0.900)" mask="url(#maskGradient)">
        <g transform="translate(4.86,3.96) rotate(34.93) scale(0.880)">
        <path d="M0.0,-46.2 L13.6,-18.7 L43.9,-14.3 L22.0,7.1 L27.2,37.4 L0.0,23.1 L-27.2,37.4 L-22.0,7.1 L-43.9,-14.3 L-13.6,-18.7Z" fill="url(#rgrad4)" filter="url(#blur4)" opacity="0.90"/>
      </g>
      </g>
      </g>
      </g>
      </g>
      </g>
      </g>
  </g>
  <g transform="translate(1200.8, 86.0)">
      <g transform="translate(-3.09,3.14) rotate(1.52) scale(1.000)">
        <g transform="translate(-0.83,3.73) rotate(4.87) scale(0.980)">
        <g transform="translate(1.64,3.99) rotate(9.76) scale(0.960)">
        <g transform="translate(3.70,3.89) rotate(15.77) scale(0.940)">
        <g transform="translate(4.86,3.44) rotate(22.37) scale(0.920)">
        <g transform="translate(4.83,2.69) rotate(28.97) scale(0.900)">
        <g transform="translate(3.62,1.70) rotate(34.93) scale(0.880)">
        <rect x="-23.8" y="-23.8" width="47.6" height="47.6" rx="11.9" fill="url(#rgrad0)" filter="url(#shadow)" opacity="0.89"/>
        <circle cx="0" cy="0" r="15.9" fill="url(#rgrad1)" opacity="0.62"/>
      </g>
      </g>
      </g>
      </g>
      </g>
      </g>
      </g>
  </g>
  <g transform="translate(1406.3, 102.6)">
      <g transform="translate(1.64,3.78) rotate(1.52) scale(1.000)">
        <g transform="translate(3.70,3.22) rotate(4.87) scale(0.980)">
        <g transform="translate(4.86,2.38) rotate(9.76) scale(0.960)">
        <g transform="translate(4.83,1.32) rotate(15.77) scale(0.940)" clip-path="url(#clipStar)">
        <g transform="translate(3.62,0.15) rotate(22.37) scale(0.920)">
        <g transform="translate(1.52,-1.04) rotate(28.97) scale(0.900)">
        <g transform="translate(-0.95,-2.13) rotate(34.93) scale(0.880)">
        <path d="M31.4,18.1 L0.0,36.2 L-31.4,18.1 L-31.4,-18.1 L-0.0,-36.2 L31.4,-18.1Z" fill="url(#lgrad1)" filter="url(#blur1)" opacity="0.84"/>
        <ellipse cx="0" cy="0" rx="15.1" ry="10.1" fill="#FFFFFF" opacity="0.42"/>
      </g>
      </g>
      </g>
      </g>
      </g>
      </g>
      </g>
  </g>
  <g transform="translate(1615.2, 118.0)">
      <g transform="translate(4.86,0.94) rotate(1.52) scale(1.000)">
        <g transform="translate(4.83,-0.25) rotate(4.87) scale(0.980)">
        <g transform="translate(3.62,-1.42) rotate(9.76) scale(0.960)">
        <g transform="translate(1.52,-2.46) rotate(15.77) scale(0.940)">
        <g transform="translate(-0.95,-3.28) rotate(22.37) scale(0.920)">
        <g transform="translate(-3.19,-3.81) rotate(28.97) scale(0.900)" mask="url(#maskDynamic)">
        <g transform="translate(-4.64,-4.00) rotate(34.93) scale(0.880)">
        <circle cx="0" cy="0" r="36.4" fill="url(#rgrad2)" filter="url(#shadow)" opacity="0.77"/>
        <text x="0" y="5" text-anchor="middle" font-family="Arial, sans-serif" font-size="14" fill="#FFFFFF" opacity="0.77">99</text>
      </g>
      </g>
      </g>
      </g>
      </g>
      </g>
      </g>
  </g>
  <g transform="translate(70.1, 404.9)">
      <g transform="translate(3.62,-2.76) rotate(1.52) scale(1.000)">
        <g transform="translate(1.52,-3.49) rotate(4.87) scale(0.980)">
        <g transform="translate(-0.95,-3.91) rotate(9.76) scale(0.960)">
        <g transform="translate(-3.19,-3.98) rotate(15.77) scale(0.940)">
        <g transform="translate(-4.64,-3.70) rotate(22.37) scale(0.920)">
        <g transform="translate(-4.96,-3.08) rotate(28.97) scale(0.900)">
        <g transform="translate(-4.07,-2.19) rotate(34.93) scale(0.880)">
        <path d="M0.0,-73.5 L21.6,-29.7 L69.9,-22.7 L34.9,11.4 L43.2,59.4 L0.0,36.7 L-43.2,59.4 L-34.9,11.4 L-69.9,-22.7 L-21.6,-29.7Z" fill="url(#rgrad3)" filter="url(#blur3)" opacity="0.67"/>
      </g>
      </g>
      </g>
      </g>
      </g>
      </g>
      </g>
  </g>
  <g transform="translate(292.4, 400.2)">
      <g transform="translate(-0.95,-3.93) rotate(1.52) scale(1.000)">
        <g transform="translate(-3.19,-3.53) rotate(4.87) scale(0.980)">
        <g transform="translate(-4.64,-2.81) rotate(9.76) scale(0.960)">
        <g transform="translate(-4.96,-1.84) rotate(15.77) scale(0.940)" clip-path="url(#clipDynamic)">
        <g transform="translate(-4.07,-0.71) rotate(22.37) scale(0.920)">
        <g transform="translate(-2.17,0.48) rotate(28.97) scale(0.900)">
        <g transform="translate(0.25,1.63) rotate(34.93) scale(0.880)">
        <rect x="-30.9" y="-30.9" width="61.7" height="61.7" rx="15.4" fill="url(#lgrad4)" filter="url(#shadow)" opacity="0.55"/>
        <circle cx="0" cy="0" r="20.6" fill="url(#rgrad0)" opacity="0.39"/>
      </g>
      </g>
      </g>
      </g>
      </g>
      </g>
      </g>
  </g>
  <g transform="translate(521.4, 385.9)">
      <g transform="translate(-4.64,-1.48) rotate(1.52) scale(1.000)">
        <g transform="translate(-4.96,-0.32) rotate(4.87) scale(0.980)">
        <g transform="translate(-4.07,0.88) rotate(9.76) scale(0.960)">
        <g transform="translate(-2.17,1.99) rotate(15.77) scale(0.940)">
        <g transform="translate(0.25,2.93) rotate(22.37) scale(0.920)">
        <g transform="translate(2.61,3.60) rotate(28.97) scale(0.900)" mask="url(#maskStripes)">
        <g transform="translate(4.34,3.96) rotate(34.93) scale(0.880)">
        <path d="M25.2,14.5 L0.0,29.0 L-25.2,14.5 L-25.2,-14.5 L-0.0,-29.0 L25.2,-14.5Z" fill="url(#rgrad0)" filter="url(#blur0)" opacity="0.43"/>
        <ellipse cx="0" cy="0" rx="12.1" ry="8.1" fill="#FFFFFF" opacity="0.22"/>
      </g>
      </g>
      </g>
      </g>
      </g>
      </g>
      </g>
  </g>
  <g transform="translate(755.0, 368.8)">
      <g transform="translate(-4.07,2.33) rotate(1.52) scale(1.000)">
        <g transform="translate(-2.17,3.18) rotate(4.87) scale(0.980)">
        <g transform="translate(0.25,3.76) rotate(9.76) scale(0.960)">
        <g transform="translate(2.61,4.00) rotate(15.77) scale(0.940)">
        <g transform="translate(4.34,3.88) rotate(22.37) scale(0.920)">
        <g transform="translate(5.00,3.41) rotate(28.97) scale(0.900)">
        <g transform="translate(4.44,2.64) rotate(34.93) scale(0.880)">
        <circle cx="0" cy="0" r="22.9" fill="url(#rgrad1)" filter="url(#shadow)" opacity="0.32"/>
        <text x="0" y="5" text-anchor="middle" font-family="Arial, sans-serif" font-size="14" fill="#FFFFFF" opacity="0.32">99</text>
      </g>
      </g>
      </g>
      </g>
      </g>
      </g>
      </g>
  </g>
  <g transform="translate(989.8, 357.1)">
      <g transform="translate(0.25,4.00) rotate(1.52) scale(1.000)">
        <g transform="translate(2.61,3.76) rotate(4.87) scale(0.980)">
        <g transform="translate(4.34,3.18) rotate(9.76) scale(0.960)">
        <g transform="translate(5.00,2.33) rotate(15.77) scale(0.940)" clip-path="url(#clipHex)">
        <g transform="translate(4.44,1.26) rotate(22.37) scale(0.920)">
        <g transform="translate(2.79,0.08) rotate(28.97) scale(0.900)">
        <g transform="translate(0.46,-1.10) rotate(34.93) scale(0.880)">
        <path d="M0.0,-56.2 L16.5,-22.7 L53.4,-17.4 L26.7,8.7 L33.0,45.4 L0.0,28.1 L-33.0,45.4 L-26.7,8.7 L-53.4,-17.4 L-16.5,-22.7Z" fill="url(#lgrad2)" filter="url(#blur2)" opacity="0.22"/>
      </g>
      </g>
      </g>
      </g>
      </g>
      </g>
      </g>
  </g>
  <g transform="translate(1222.2, 356.1)">
      <g transform="translate(4.34,1.99) rotate(1.52) scale(1.000)">
        <g transform="translate(5.00,0.88) rotate(4.87) scale(0.980)">
        <g transform="translate(4.44,-0.32) rotate(9.76) scale(0.960)">
        <g transform="translate(2.79,-1.48) rotate(15.77) scale(0.940)">
        <g transform="translate(0.46,-2.51) rotate(22.37) scale(0.920)">
        <g transform="translate(-1.99,-3.32) rotate(28.97) scale(0.900)" mask="url(#maskCircleFade)">
        <g transform="translate(-3.94,-3.83) rotate(34.93) scale(0.880)">
        <rect x="-35.1" y="-35.1" width="70.1" height="70.1" rx="17.5" fill="url(#rgrad3)" filter="url(#shadow)" opacity="0.15"/>
        <circle cx="0" cy="0" r="23.4" fill="url(#rgrad4)" opacity="0.10"/>
      </g>
      </g>
      </g>
      </g>
      </g>
      </g>
      </g>
  </g>
  <g transform="translate(1449.2, 366.3)">
      <g transform="translate(4.44,-1.84) rotate(1.52) scale(1.000)">
        <g transform="translate(2.79,-2.81) rotate(4.87) scale(0.980)">
        <g transform="translate(0.46,-3.53) rotate(9.76) scale(0.960)">
        <g transform="translate(-1.99,-3.93) rotate(15.77) scale(0.940)">
        <g transform="translate(-3.94,-3.98) rotate(22.37) scale(0.920)">
        <g transform="translate(-4.93,-3.67) rotate(28.97) scale(0.900)">
        <g transform="translate(-4.72,-3.04) rotate(34.93) scale(0.880)">
        <path d="M38.9,22.4 L0.0,44.9 L-38.9,22.4 L-38.9,-22.4 L-0.0,-44.9 L38.9,-22.4Z" fill="url(#rgrad4)" filter="url(#blur4)" opacity="0.11"/>
        <ellipse cx="0" cy="0" rx="18.7" ry="12.5" fill="#FFFFFF" opacity="0.05"/>
      </g>
      </g>
      </g>
      </g>
      </g>
      </g>
      </g>
  </g>
  <g transform="translate(1669.0, 383.0)">
      <g transform="translate(0.46,-3.98) rotate(1.52) scale(1.000)">
        <g transform="translate(-1.99,-3.91) rotate(4.87) scale(0.980)">
        <g transform="translate(-3.94,-3.49) rotate(9.76) scale(0.960)">
        <g transform="translate(-4.93,-2.76) rotate(15.77) scale(0.940)" clip-path="url(#clipCircle)">
        <g transform="translate(-4.72,-1.78) rotate(22.37) scale(0.920)">
        <g transform="translate(-3.35,-0.65) rotate(28.97) scale(0.900)">
        <g transform="translate(-1.16,0.55) rotate(34.93) scale(0.880)">
        <circle cx="0" cy="0" r="32.9" fill="url(#lgrad0)" filter="url(#shadow)" opacity="0.10"/>
        <text x="0" y="5" text-anchor="middle" font-family="Arial, sans-serif" font-size="14" fill="#FFFFFF" opacity="0.10">99</text>
      </g>
      </g>
      </g>
      </g>
      </g>
      </g>
      </g>
  </g>
  <g transform="translate(121.7, 678.3)">
      <g transform="translate(-3.94,-2.46) rotate(1.52) scale(1.000)">
        <g transform="translate(-4.93,-1.42) rotate(4.87) scale(0.980)">
        <g transform="translate(-4.72,-0.25) rotate(9.76) scale(0.960)">
        <g transform="translate(-3.35,0.94) rotate(15.77) scale(0.940)">
        <g transform="translate(-1.16,2.05) rotate(22.37) scale(0.920)">
        <g transform="translate(1.32,2.97) rotate(28.97) scale(0.900)" mask="url(#maskGradient)">
        <g transform="translate(3.47,3.63) rotate(34.93) scale(0.880)">
        <path d="M0.0,-51.5 L15.1,-20.8 L49.0,-15.9 L24.5,8.0 L30.3,41.7 L0.0,25.8 L-30.3,41.7 L-24.5,8.0 L-49.0,-15.9 L-15.1,-20.8Z" fill="url(#rgrad1)" filter="url(#blur1)" opacity="0.13"/>
      </g>
      </g>
      </g>
      </g>
      </g>
      </g>
      </g>
  </g>
  <g transform="translate(329.1, 685.0)">
      <g transform="translate(-4.72,1.32) rotate(1.52) scale(1.000)">
        <g transform="translate(-3.35,2.38) rotate(4.87) scale(0.980)">
        <g transform="translate(-1.16,3.22) rotate(9.76) scale(0.960)">
        <g transform="translate(1.32,3.78) rotate(15.77) scale(0.940)">
        <g transform="translate(3.47,4.00) rotate(22.37) scale(0.920)">
        <g transform="translate(4.77,3.86) rotate(28.97) scale(0.900)">
        <g transform="translate(4.90,3.37) rotate(34.93) scale(0.880)">
        <rect x="-22.5" y="-22.5" width="45.0" height="45.0" rx="11.3" fill="url(#rgrad2)" filter="url(#shadow)" opacity="0.19"/>
        <circle cx="0" cy="0" r="15.0" fill="url(#rgrad3)" opacity="0.14"/>
      </g>
      </g>
      </g>
      </g>
      </g>
      </g>
      </g>
  </g>
  <g transform="translate(534.3, 679.9)">
      <g transform="translate(-1.16,3.89) rotate(1.52) scale(1.000)">
        <g transform="translate(1.32,3.99) rotate(4.87) scale(0.980)">
        <g transform="translate(3.47,3.73) rotate(9.76) scale(0.960)">
        <g transform="translate(4.77,3.14) rotate(15.77) scale(0.940)" clip-path="url(#clipRect)">
        <g transform="translate(4.90,2.27) rotate(22.37) scale(0.920)">
        <g transform="translate(3.84,1.20) rotate(28.97) scale(0.900)">
        <g transform="translate(1.83,0.02) rotate(34.93) scale(0.880)">
        <path d="M27.2,15.7 L0.0,31.4 L-27.2,15.7 L-27.2,-15.7 L-0.0,-31.4 L27.2,-15.7Z" fill="url(#lgrad3)" filter="url(#blur3)" opacity="0.28"/>
        <ellipse cx="0" cy="0" rx="13.1" ry="8.7" fill="#FFFFFF" opacity="0.14"/>
      </g>
      </g>
      </g>
      </g>
      </g>
      </g>
      </g>
  </g>
  <g transform="translate(740.9, 665.5)">
      <g transform="translate(3.47,2.88) rotate(1.52) scale(1.000)">
        <g transform="translate(4.77,1.93) rotate(4.87) scale(0.980)">
        <g transform="translate(4.90,0.81) rotate(9.76) scale(0.960)">
        <g transform="translate(3.84,-0.38) rotate(15.77) scale(0.940)">
        <g transform="translate(1.83,-1.54) rotate(22.37) scale(0.920)">
        <g transform="translate(-0.62,-2.56) rotate(28.97) scale(0.900)" mask="url(#maskDynamic)">
        <g transform="translate(-2.93,-3.36) rotate(34.93) scale(0.880)">
        <circle cx="0" cy="0" r="33.3" fill="url(#rgrad4)" filter="url(#shadow)" opacity="0.39"/>
        <text x="0" y="5" text-anchor="middle" font-family="Arial, sans-serif" font-size="14" fill="#FFFFFF" opacity="0.39">99</text>
      </g>
      </g>
      </g>
      </g>
      </g>
      </g>
      </g>
  </g>
  <g transform="translate(952.1, 648.5)">
      <g transform="translate(4.90,-0.78) rotate(1.52) scale(1.000)">
        <g transform="translate(3.84,-1.90) rotate(4.87) scale(0.980)">
        <g transform="translate(1.83,-2.86) rotate(9.76) scale(0.960)">
        <g transform="translate(-0.62,-3.56) rotate(15.77) scale(0.940)">
        <g transform="translate(-2.93,-3.94) rotate(22.37) scale(0.920)">
        <g transform="translate(-4.51,-3.97) rotate(28.97) scale(0.900)">
        <g transform="translate(-4.99,-3.64) rotate(34.93) scale(0.880)">
        <path d="M0.0,-74.9 L22.0,-30.3 L71.2,-23.1 L35.6,11.6 L44.0,60.6 L0.0,37.5 L-44.0,60.6 L-35.6,11.6 L-71.2,-23.1 L-22.0,-30.3Z" fill="url(#rgrad0)" filter="url(#blur0)" opacity="0.51"/>
      </g>
      </g>
      </g>
      </g>
      </g>
      </g>
      </g>
  </g>
  <g transform="translate(1170.2, 636.9)">
      <g transform="translate(1.83,-3.72) rotate(1.52) scale(1.000)">
        <g transform="translate(-0.62,-3.99) rotate(4.87) scale(0.980)">
        <g transform="translate(-2.93,-3.90) rotate(9.76) scale(0.960)">
        <g transform="translate(-4.51,-3.46) rotate(15.77) scale(0.940)" clip-path="url(#clipStar)">
        <g transform="translate(-4.99,-2.71) rotate(22.37) scale(0.920)">
        <g transform="translate(-4.25,-1.72) rotate(28.97) scale(0.900)">
        <g transform="translate(-2.47,-0.58) rotate(34.93) scale(0.880)">
        <rect x="-34.7" y="-34.7" width="69.5" height="69.5" rx="17.4" fill="url(#lgrad1)" filter="url(#shadow)" opacity="0.63"/>
        <circle cx="0" cy="0" r="23.2" fill="url(#rgrad2)" opacity="0.44"/>
      </g>
      </g>
      </g>
      </g>
      </g>
      </g>
      </g>
  </g>
  <g transform="translate(1395.6, 636.2)">
      <g transform="translate(-2.93,-3.24) rotate(1.52) scale(1.000)">
        <g transform="translate(-4.51,-2.41) rotate(4.87) scale(0.980)">
        <g transform="translate(-4.99,-1.35) rotate(9.76) scale(0.960)">
        <g transform="translate(-4.25,-0.18) rotate(15.77) scale(0.940)">
        <g transform="translate(-2.47,1.01) rotate(22.37) scale(0.920)">
        <g transform="translate(-0.08,2.11) rotate(28.97) scale(0.900)" mask="url(#maskStripes)">
        <g transform="translate(2.32,3.02) rotate(34.93) scale(0.880)">
        <path d="M28.7,16.6 L0.0,33.2 L-28.7,16.6 L-28.7,-16.6 L-0.0,-33.2 L28.7,-16.6Z" fill="url(#rgrad2)" filter="url(#blur2)" opacity="0.73"/>
        <ellipse cx="0" cy="0" rx="13.8" ry="9.2" fill="#FFFFFF" opacity="0.37"/>
      </g>
      </g>
      </g>
      </g>
      </g>
      </g>
      </g>
  </g>
  <g transform="translate(1627.0, 646.7)">
      <g transform="translate(-4.99,0.22) rotate(1.52) scale(1.000)">
        <g transform="translate(-4.25,1.39) rotate(4.87) scale(0.980)">
        <g transform="translate(-2.47,2.43) rotate(9.76) scale(0.960)">
        <g transform="translate(-0.08,3.26) rotate(15.77) scale(0.940)">
        <g transform="translate(2.32,3.80) rotate(22.37) scale(0.920)">
        <g transform="translate(4.16,4.00) rotate(28.97) scale(0.900)">
        <g transform="translate(4.98,3.84) rotate(34.93) scale(0.880)">
        <circle cx="0" cy="0" r="22.7" fill="url(#rgrad3)" filter="url(#shadow)" opacity="0.82"/>
        <text x="0" y="5" text-anchor="middle" font-family="Arial, sans-serif" font-size="14" fill="#FFFFFF" opacity="0.82">99</text>
      </g>
      </g>
      </g>
      </g>
      </g>
      </g>
      </g>
  </g>
  <g transform="translate(101.5, 943.4)">
      <g transform="translate(-2.47,3.48) rotate(1.52) scale(1.000)">
        <g transform="translate(-0.08,3.91) rotate(4.87) scale(0.980)">
        <g transform="translate(2.32,3.99) rotate(9.76) scale(0.960)">
        <g transform="translate(4.16,3.71) rotate(15.77) scale(0.940)" clip-path="url(#clipDynamic)">
        <g transform="translate(4.98,3.10) rotate(22.37) scale(0.920)">
        <g transform="translate(4.58,2.22) rotate(28.97) scale(0.900)">
        <g transform="translate(3.06,1.13) rotate(34.93) scale(0.880)">
        <path d="M0.0,-49.0 L14.4,-19.8 L46.6,-15.1 L23.3,7.6 L28.8,39.6 L0.0,24.5 L-28.8,39.6 L-23.3,7.6 L-46.6,-15.1 L-14.4,-19.8Z" fill="url(#lgrad4)" filter="url(#blur4)" opacity="0.88"/>
      </g>
      </g>
      </g>
      </g>
      </g>
      </g>
      </g>
  </g>
  <g transform="translate(357.8, 365.3)" mask="url(#maskGradient)">
    <ellipse cx="0" cy="0" rx="200" ry="150" fill="url(#rgrad0)" filter="url(#blur3)" opacity="0.3"/>
  </g>
  <g transform="translate(899.9, 320.1)" mask="url(#maskCircleFade)">
    <ellipse cx="0" cy="0" rx="200" ry="150" fill="url(#rgrad1)" filter="url(#blur3)" opacity="0.3"/>
  </g>
  <g transform="translate(1350.1, 265.5)" mask="url(#maskStripes)">
    <ellipse cx="0" cy="0" rx="200" ry="150" fill="url(#rgrad2)" filter="url(#blur3)" opacity="0.3"/>
  </g>
</svg>