<?xml version="1.0" encoding="UTF-8"?>
<svg xmlns="http://www.w3.org/2000/svg" viewBox="0 0 1920 1080" width="1920" height="1080">
  <defs>
    <filter id="blur0" x="-50%" y="-50%" width="200%" height="200%">
      <feGaussianBlur in="SourceGraphic" stdDeviation="1"/>
    </filter>
    <filter id="blur1" x="-50%" y="-50%" width="200%" height="200%">
      <feGaussianBlur in="SourceGraphic" stdDeviation="3"/>
    </filter>
    <filter id="blur2" x="-50%" y="-50%" width="200%" height="200%">
      <feGaussianBlur in="SourceGraphic" stdDeviation="5"/>
    </filter>
    <filter id="blur3" x="-50%" y="-50%" width="200%" height="200%">
      <feGaussianBlur in="SourceGraphic" stdDeviation="7"/>
    </filter>
    <filter id="blur4" x="-50%" y="-50%" width="200%" height="200%">
      <feGaussianBlur in="SourceGraphic" stdDeviation="9"/>
    </filter>
    <filter id="shadow" x="-50%" y="-50%" width="200%" height="200%">
      <feGaussianBlur in="SourceAlpha" stdDeviation="3" result="blur"/>
      <feOffset in="blur" dx="4" dy="4" result="offsetBlur"/>
      <feMerge>
        <feMergeNode in="offsetBlur"/>
        <feMergeNode in="SourceGraphic"/>
      </feMerge>
    </filter>
    <linearGradient id="lgrad0" x1="0%" y1="0%" x2="3.8%" y2="30.9%">
      <stop offset="0%" stop-color="#FF6B6B"/>
      <stop offset="33%" stop-color="#4ECDC4"/>
      <stop offset="66%" stop-color="#45B7D1"/>
      <stop offset="100%" stop-color="#96E6A1"/>
    </linearGradient>
    <linearGradient id="lgrad1" x1="0%" y1="0%" x2="19.6%" y2="10.3%">
      <stop offset="0%" stop-color="#FFE66D"/>
      <stop offset="33%" stop-color="#FF6B6B"/>
      <stop offset="66%" stop-color="#C44D58"/>
      <stop offset="100%" stop-color="#8B0000"/>
    </linearGradient>
    <linearGradient id="lgrad2" x1="0%" y1="0%" x2="43.5%" y2="0.4%">
      <stop offset="0%" stop-color="#4169E1"/>
      <stop offset="33%" stop-color="#7B68EE"/>
      <stop offset="66%" stop-color="#9370DB"/>
      <stop offset="100%" stop-color="#FFD700"/>
    </linearGradient>
    <linearGradient id="lgrad3" x1="0%" y1="0%" x2="69.1%" y2="3.8%">
      <stop offset="0%" stop-color="#32CD32"/>
      <stop offset="33%" stop-color="#228B22"/>
      <stop offset="66%" stop-color="#006400"/>
      <stop offset="100%" stop-color="#ADFF2F"/>
    </linearGradient>
    <linearGradient id="lgrad4" x1="0%" y1="0%" x2="89.7%" y2="19.6%">
      <stop offset="0%" stop-color="#FF1493"/>
      <stop offset="33%" stop-color="#FF69B4"/>
      <stop offset="66%" stop-color="#FFB6C1"/>
      <stop offset="100%" stop-color="#FFC0CB"/>
    </linearGradient>
    <radialGradient id="rgrad0" cx="44.5%" cy="53.0%" r="60%">
      <stop offset="0%" stop-color="#FF6B6B" stop-opacity="1"/>
      <stop offset="50%" stop-color="#4ECDC4" stop-opacity="0.8"/>
      <stop offset="100%" stop-color="#45B7D1" stop-opacity="0.6"/>
    </radialGradient>
    <radialGradient id="rgrad1" cx="54.5%" cy="61.0%" r="60%">
      <stop offset="0%" stop-color="#FFE66D" stop-opacity="1"/>
      <stop offset="50%" stop-color="#FF6B6B" stop-opacity="0.8"/>
      <stop offset="100%" stop-color="#C44D58" stop-opacity="0.6"/>
    </radialGradient>
    <radialGradient id="rgrad2" cx="64.5%" cy="69.0%" r="60%">
      <stop offset="0%" stop-color="#4169E1" stop-opacity="1"/>
      <stop offset="50%" stop-color="#7B68EE" stop-opacity="0.8"/>
      <stop offset="100%" stop-color="#9370DB" stop-opacity="0.6"/>
    </radialGradient>
    <radialGradient id="rgrad3" cx="34.5%" cy="37.0%" r="60%">
      <stop offset="0%" stop-color="#32CD32" stop-opacity="1"/>
      <stop offset="50%" stop-color="#228B22" stop-opacity="0.8"/>
      <stop offset="100%" stop-color="#006400" stop-opacity="0.6"/>
    </radialGradient>
    <radialGradient id="rgrad4" cx="44.5%" cy="45.0%" r="60%">
      <stop offset="0%" stop-color="#FF1493" stop-opacity="1"/>
      <stop offset="50%" stop-color="#FF69B4" stop-opacity="0.8"/>
      <stop offset="100%" stop-color="#FFB6C1" stop-opacity="0.6"/>
    </radialGradient>
    <clipPath id="clipCircle">
      <circle cx="0" cy="0" r="50"/>
    </clipPath>
    <clipPath id="clipStar">
      <path d="M0.0,-50.0 L14.7,-20.2 L47.6,-15.5 L23.8,7.7 L29.4,40.5 L0.0,25.0 L-29.4,40.5 L-23.8,7.7 L-47.6,-15.5 L-14.7,-20.2Z"/>
    </clipPath>
    <clipPath id="clipHex">
      <path d="M39.0,22.5 L0.0,45.0 L-39.0,22.5 L-39.0,-22.5 L-0.0,-45.0 L39.0,-22.5Z"/>
    </clipPath>
    <clipPath id="clipRect">
      <rect x="-40" y="-30" width="80" height="60" rx="10"/>
    </clipPath>
    <clipPath id="clipDynamic">
      <circle cx="0" cy="0" r="48.8"/>
    </clipPath>
    <mask id="maskGradient" maskContentUnits="objectBoundingBox">
      <rect x="0" y="0" width="1" height="1" fill="url(#maskGrad)"/>
    </mask>
    <linearGradient id="maskGrad" x1="0%" y1="0%" x2="100%" y2="100%">
      <stop offset="0%" stop-color="white"/>
      <stop offset="100%" stop-color="black"/>
    </linearGradient>
    <mask id="maskCircleFade">
      <circle cx="0" cy="0" r="60" fill="white"/>
      <circle cx="0" cy="0" r="30" fill="black"/>
    </mask>
    <mask id="maskStripes">
      <rect x="-50" y="-50" width="100" height="100" fill="white"/>
      <rect x="-50" y="-40" width="100" height="10" fill="black"/>
      <rect x="-50" y="-20" width="100" height="10" fill="black"/>
      <rect x="-50" y="0" width="100" height="10" fill="black"/>
      <rect x="-50" y="20" width="100" height="10" fill="black"/>
      <rect x="-50" y="40" width="100" height="10" fill="black"/>
    </mask>
    <mask id="maskDynamic">
      <rect x="-60" y="-60" width="120" height="120" fill="white" fill-opacity="0.88"/>
      <circle cx="0" cy="0" r="25" fill="white"/>
    </mask>
  </defs>
  <rect width="1920" height="1080" fill="url(#lgrad0)"/>
  <g transform="translate(127.6, 90.2)">
      <g transform="translate(4.60,-1.57) rotate(4.17) scale(1.000)">
        <g transform="translate(3.09,-2.59) rotate(9.27) scale(0.980)">
        <g transform="translate(0.83,-3.37) rotate(14.75) scale(0.960)">
        <g transform="translate(-1.64,-3.86) rotate(20.00) scale(0.940)" clip-path="url(#clipCircle)">
        <g transform="translate(-3.70,-4.00) rotate(24.42) scale(0.920)">
        <g transform="translate(-4.86,-3.78) rotate(27.43) scale(0.900)">
        <g transform="translate(-4.83,-3.22) rotate(28.55) scale(0.880)">
        <path d="M0.0,-72.5 L21.3,-29.3 L69.0,-22.4 L34.5,11.2 L42.6,58.7 L0.0,36.3 L-42.6,58.7 L-34.5,11.2 L-69.0,-22.4 L-21.3,-29.3Z" fill="url(#lgrad0)" filter="url(#blur0)" opacity="0.83"/>
      </g>
      </g>
      </g>
      </g>
      </g>
      </g>
      </g>
  </g>
  <g transform="translate(338.6, 77.7)">
      <g transform="translate(0.83,-3.94) rotate(4.17) scale(1.000)">
        <g transform="translate(-1.64,-3.96) rotate(9.27) scale(0.980)">
        <g transform="translate(-3.70,-3.63) rotate(14.75) scale(0.960)">
        <g transform="translate(-4.86,-2.97) rotate(20.00) scale(0.940)">
        <g transform="translate(-4.83,-2.05) rotate(24.42) scale(0.920)">
        <g transform="translate(-3.62,-0.94) rotate(27.43) scale(0.900)" mask="url(#maskCircleFade)">
        <g transform="translate(-1.52,0.25) rotate(28.55) scale(0.880)">
        <rect x="-36.9" y="-36.9" width="73.7" height="73.7" rx="18.4" fill="url(#rgrad1)" filter="url(#shadow)" opacity="0.88"/>
        <circle cx="0" cy="0" r="24.6" fill="url(#rgrad2)" opacity="0.62"/>
      </g>
      </g>
      </g>
      </g>
      </g>
      </g>
      </g>
  </g>
  <g transform="translate(545.0, 75.7)">
      <g transform="translate(-3.70,-2.69) rotate(4.17) scale(1.000)">
        <g transform="translate(-4.86,-1.69) rotate(9.27) scale(0.980)">
        <g transform="translate(-4.83,-0.55) rotate(14.75) scale(0.960)">
        <g transform="translate(-3.62,0.65) rotate(20.00) scale(0.940)">
        <g transform="translate(-1.52,1.78) rotate(24.42) scale(0.920)">
        <g transform="translate(0.95,2.76) rotate(27.43) scale(0.900)">
        <g transform="translate(3.19,3.49) rotate(28.55) scale(0.880)">
        <path d="M32.4,18.7 L0.0,37.4 L-32.4,18.7 L-32.4,-18.7 L-0.0,-37.4 L32.4,-18.7Z" fill="url(#rgrad2)" filter="url(#blur2)" opacity="0.90"/>
        <ellipse cx="0" cy="0" rx="15.6" ry="10.4" fill="#FFFFFF" opacity="0.45"/>
      </g>
      </g>
      </g>
      </g>
      </g>
      </g>
      </g>
  </g>
  <g transform="translate(750.2, 85.1)">
      <g transform="translate(-4.83,1.04) rotate(4.17) scale(1.000)">
        <g transform="translate(-3.62,2.13) rotate(9.27) scale(0.980)">
        <g transform="translate(-1.52,3.04) rotate(14.75) scale(0.960)">
        <g transform="translate(0.95,3.67) rotate(20.00) scale(0.940)" clip-path="url(#clipRect)">
        <g transform="translate(3.19,3.98) rotate(24.42) scale(0.920)">
        <g transform="translate(4.65,3.93) rotate(27.43) scale(0.900)">
        <g transform="translate(4.96,3.53) rotate(28.55) scale(0.880)">
        <circle cx="0" cy="0" r="24.4" fill="url(#lgrad3)" filter="url(#shadow)" opacity="0.88"/>
        <text x="0" y="5" text-anchor="middle" font-family="Arial, sans-serif" font-size="14" fill="#FFFFFF" opacity="0.88">315</text>
      </g>
      </g>
      </g>
      </g>
      </g>
      </g>
      </g>
  </g>
  <g transform="translate(957.8, 101.6)">
      <g transform="translate(-1.52,3.81) rotate(4.17) scale(1.000)">
        <g transform="translate(0.95,4.00) rotate(9.27) scale(0.980)">
        <g transform="translate(3.19,3.83) rotate(14.75) scale(0.960)">
        <g transform="translate(4.65,3.32) rotate(20.00) scale(0.940)">
        <g transform="translate(4.96,2.51) rotate(24.42) scale(0.920)">
        <g transform="translate(4.07,1.48) rotate(27.43) scale(0.900)" mask="url(#maskGradient)">
        <g transform="translate(2.17,0.32) rotate(28.55) scale(0.880)">
        <path d="M0.0,-45.6 L13.4,-18.4 L43.3,-14.1 L21.7,7.0 L26.8,36.9 L0.0,22.8 L-26.8,36.9 L-21.7,7.0 L-43.3,-14.1 L-13.4,-18.4Z" fill="url(#rgrad4)" filter="url(#blur4)" opacity="0.83"/>
      </g>
      </g>
      </g>
      </g>
      </g>
      </g>
      </g>
  </g>
  <g transform="translate(1170.8, 117.3)">
      <g transform="translate(3.19,3.08) rotate(4.17) scale(1.000)">
        <g transform="translate(4.65,2.19) rotate(9.27) scale(0.980)">
        <g transform="translate(4.96,1.10) rotate(14.75) scale(0.960)">
        <g transform="translate(4.07,-0.08) rotate(20.00) scale(0.940)">
        <g transform="translate(2.17,-1.26) rotate(24.42) scale(0.920)">
        <g transform="translate(-0.25,-2.33) rotate(27.43) scale(0.900)">
        <g transform="translate(-2.61,-3.18) rotate(28.55) scale(0.880)">
        <rect x="-27.8" y="-27.8" width="55.6" height="55.6" rx="13.9" fill="url(#rgrad0)" filter="url(#shadow)" opacity="0.74"/>
        <circle cx="0" cy="0" r="18.5" fill="url(#rgrad1)" opacity="0.52"/>
      </g>
      </g>
      </g>
      </g>
      </g>
      </g>
      </g>
  </g>
  <g transform="translate(1391.0, 124.9)">
      <g transform="translate(4.96,-0.48) rotate(4.17) scale(1.000)">
        <g transform="translate(4.07,-1.63) rotate(9.27) scale(0.980)">
        <g transform="translate(2.17,-2.64) rotate(14.75) scale(0.960)">
        <g transform="translate(-0.25,-3.41) rotate(20.00) scale(0.940)" clip-path="url(#clipStar)">
        <g transform="translate(-2.61,-3.88) rotate(24.42) scale(0.920)">
        <g transform="translate(-4.34,-3.99) rotate(27.43) scale(0.900)">
        <g transform="translate(-5.00,-3.76) rotate(28.55) scale(0.880)">
        <path d="M36.2,20.9 L0.0,41.8 L-36.2,20.9 L-36.2,-20.9 L-0.0,-41.8 L36.2,-20.9Z" fill="url(#lgrad1)" filter="url(#blur1)" opacity="0.64"/>
        <ellipse cx="0" cy="0" rx="17.4" ry="11.6" fill="#FFFFFF" opacity="0.32"/>
      </g>
      </g>
      </g>
      </g>
      </g>
      </g>
      </g>
  </g>
  <g transform="translate(1618.3, 120.7)">
      <g transform="translate(2.17,-3.60) rotate(4.17) scale(1.000)">
        <g transform="translate(-0.25,-3.96) rotate(9.27) scale(0.980)">
        <g transform="translate(-2.61,-3.96) rotate(14.75) scale(0.960)">
        <g transform="translate(-4.34,-3.60) rotate(20.00) scale(0.940)">
        <g transform="translate(-5.00,-2.93) rotate(24.42) scale(0.920)">
        <g transform="translate(-4.44,-1.99) rotate(27.43) scale(0.900)" mask="url(#maskDynamic)">
        <g transform="translate(-2.79,-0.88) rotate(28.55) scale(0.880)">
        <circle cx="0" cy="0" r="37.4" fill="url(#rgrad2)" filter="url(#shadow)" opacity="0.52"/>
        <text x="0" y="5" text-anchor="middle" font-family="Arial, sans-serif" font-size="14" fill="#FFFFFF" opacity="0.52">315</text>
      </g>
      </g>
      </g>
      </g>
      </g>
      </g>
      </g>
  </g>
  <g transform="translate(90.9, 386.9)">
      <g transform="translate(-2.61,-3.41) rotate(4.17) scale(1.000)">
        <g transform="translate(-4.34,-2.64) rotate(9.27) scale(0.980)">
        <g transform="translate(-5.00,-1.63) rotate(14.75) scale(0.960)">
        <g transform="translate(-4.44,-0.48) rotate(20.00) scale(0.940)">
        <g transform="translate(-2.79,0.71) rotate(24.42) scale(0.920)">
        <g transform="translate(-0.46,1.84) rotate(27.43) scale(0.900)">
        <g transform="translate(1.99,2.81) rotate(28.55) scale(0.880)">
        <path d="M0.0,-66.4 L19.5,-26.8 L63.1,-20.5 L31.6,10.3 L39.0,53.7 L0.0,33.2 L-39.0,53.7 L-31.6,10.3 L-63.1,-20.5 L-19.5,-26.8Z" fill="url(#rgrad3)" filter="url(#blur3)" opacity="0.40"/>
      </g>
      </g>
      </g>
      </g>
      </g>
      </g>
      </g>
  </g>
  <g transform="translate(325.7, 369.8)">
      <g transform="translate(-5.00,-0.08) rotate(4.17) scale(1.000)">
        <g transform="translate(-4.44,1.10) rotate(9.27) scale(0.980)">
        <g transform="translate(-2.79,2.19) rotate(14.75) scale(0.960)">
        <g transform="translate(-0.46,3.08) rotate(20.00) scale(0.940)" clip-path="url(#clipDynamic)">
        <g transform="translate(1.99,3.70) rotate(24.42) scale(0.920)">
        <g transform="translate(3.94,3.98) rotate(27.43) scale(0.900)">
        <g transform="translate(4.93,3.91) rotate(28.55) scale(0.880)">
        <rect x="-26.0" y="-26.0" width="52.0" height="52.0" rx="13.0" fill="url(#lgrad4)" filter="url(#shadow)" opacity="0.29"/>
        <circle cx="0" cy="0" r="17.3" fill="url(#rgrad0)" opacity="0.20"/>
      </g>
      </g>
      </g>
      </g>
      </g>
      </g>
      </g>
  </g>
  <g transform="translate(559.1, 357.5)">
      <g transform="translate(-2.79,3.32) rotate(4.17) scale(1.000)">
        <g transform="translate(-0.46,3.83) rotate(9.27) scale(0.980)">
        <g transform="translate(1.99,4.00) rotate(14.75) scale(0.960)">
        <g transform="translate(3.94,3.81) rotate(20.00) scale(0.940)">
        <g transform="translate(4.93,3.28) rotate(24.42) scale(0.920)">
        <g transform="translate(4.72,2.46) rotate(27.43) scale(0.900)" mask="url(#maskStripes)">
        <g transform="translate(3.35,1.42) rotate(28.55) scale(0.880)">
        <path d="M23.4,13.5 L0.0,27.0 L-23.4,13.5 L-23.4,-13.5 L-0.0,-27.0 L23.4,-13.5Z" fill="url(#rgrad0)" filter="url(#blur0)" opacity="0.20"/>
        <ellipse cx="0" cy="0" rx="11.3" ry="7.5" fill="#FFFFFF" opacity="0.10"/>
      </g>
      </g>
      </g>
      </g>
      </g>
      </g>
      </g>
  </g>
  <g transform="translate(787.9, 355.8)">
      <g transform="translate(1.99,3.67) rotate(4.17) scale(1.000)">
        <g transform="translate(3.94,3.04) rotate(9.27) scale(0.980)">
        <g transform="translate(4.93,2.13) rotate(14.75) scale(0.960)">
        <g transform="translate(4.72,1.04) rotate(20.00) scale(0.940)">
        <g transform="translate(3.35,-0.15) rotate(24.42) scale(0.920)">
        <g transform="translate(1.15,-1.33) rotate(27.43) scale(0.900)">
        <g transform="translate(-1.32,-2.38) rotate(28.55) scale(0.880)">
        <circle cx="0" cy="0" r="25.9" fill="url(#rgrad1)" filter="url(#shadow)" opacity="0.14"/>
        <text x="0" y="5" text-anchor="middle" font-family="Arial, sans-serif" font-size="14" fill="#FFFFFF" opacity="0.14">315</text>
      </g>
      </g>
      </g>
      </g>
      </g>
      </g>
      </g>
  </g>
  <g transform="translate(1009.8, 365.5)">
      <g transform="translate(4.93,0.65) rotate(4.17) scale(1.000)">
        <g transform="translate(4.72,-0.55) rotate(9.27) scale(0.980)">
        <g transform="translate(3.35,-1.70) rotate(14.75) scale(0.960)">
        <g transform="translate(1.15,-2.69) rotate(20.00) scale(0.940)" clip-path="url(#clipHex)">
        <g transform="translate(-1.32,-3.45) rotate(24.42) scale(0.920)">
        <g transform="translate(-3.47,-3.89) rotate(27.43) scale(0.900)">
        <g transform="translate(-4.77,-3.99) rotate(28.55) scale(0.880)">
        <path d="M0.0,-66.1 L19.4,-26.8 L62.9,-20.4 L31.4,10.2 L38.9,53.5 L0.0,33.1 L-38.9,53.5 L-31.4,10.2 L-62.9,-20.4 L-19.4,-26.8Z" fill="url(#lgrad2)" filter="url(#blur2)" opacity="0.10"/>
      </g>
      </g>
      </g>
      </g>
      </g>
      </g>
      </g>
  </g>
  <g transform="translate(1224.4, 382.0)">
      <g transform="translate(3.35,-2.97) rotate(4.17) scale(1.000)">
        <g transform="translate(1.15,-3.63) rotate(9.27) scale(0.980)">
        <g transform="translate(-1.32,-3.96) rotate(14.75) scale(0.960)">
        <g transform="translate(-3.47,-3.94) rotate(20.00) scale(0.940)">
        <g transform="translate(-4.77,-3.57) rotate(24.42) scale(0.920)">
        <g transform="translate(-4.90,-2.88) rotate(27.43) scale(0.900)" mask="url(#maskCircleFade)">
        <g transform="translate(-3.84,-1.93) rotate(28.55) scale(0.880)">
        <rect x="-37.4" y="-37.4" width="74.8" height="74.8" rx="18.7" fill="url(#rgrad3)" filter="url(#shadow)" opacity="0.11"/>
        <circle cx="0" cy="0" r="24.9" fill="url(#rgrad4)" opacity="0.07"/>
      </g>
      </g>
      </g>
      </g>
      </g>
      </g>
      </g>
  </g>
  <g transform="translate(1433.0, 397.6)">
      <g transform="translate(-1.32,-3.86) rotate(4.17) scale(1.000)">
        <g transform="translate(-3.47,-3.37) rotate(9.27) scale(0.980)">
        <g transform="translate(-4.77,-2.59) rotate(14.75) scale(0.960)">
        <g transform="translate(-4.90,-1.57) rotate(20.00) scale(0.940)">
        <g transform="translate(-3.84,-0.41) rotate(24.42) scale(0.920)">
        <g transform="translate(-1.83,0.78) rotate(27.43) scale(0.900)">
        <g transform="translate(0.63,1.90) rotate(28.55) scale(0.880)">
        <path d="M36.3,21.0 L0.0,41.9 L-36.3,21.0 L-36.3,-21.0 L-0.0,-41.9 L36.3,-21.0Z" fill="url(#rgrad4)" filter="url(#blur4)" opacity="0.14"/>
        <ellipse cx="0" cy="0" rx="17.5" ry="11.6" fill="#FFFFFF" opacity="0.07"/>
      </g>
      </g>
      </g>
      </g>
      </g>
      </g>
      </g>
  </g>
  <g transform="translate(1638.5, 404.9)">
      <g transform="translate(-4.77,-1.20) rotate(4.17) scale(1.000)">
        <g transform="translate(-4.90,-0.02) rotate(9.27) scale(0.980)">
        <g transform="translate(-3.84,1.17) rotate(14.75) scale(0.960)">
        <g transform="translate(-1.83,2.25) rotate(20.00) scale(0.940)" clip-path="url(#clipCircle)">
        <g transform="translate(0.63,3.12) rotate(24.42) scale(0.920)">
        <g transform="translate(2.93,3.72) rotate(27.43) scale(0.900)">
        <g transform="translate(4.51,3.99) rotate(28.55) scale(0.880)">
        <circle cx="0" cy="0" r="27.9" fill="url(#lgrad0)" filter="url(#shadow)" opacity="0.21"/>
        <text x="0" y="5" text-anchor="middle" font-family="Arial, sans-serif" font-size="14" fill="#FFFFFF" opacity="0.21">315</text>
      </g>
      </g>
      </g>
      </g>
      </g>
      </g>
      </g>
  </g>
  <g transform="translate(84.3, 680.5)">
      <g transform="translate(-3.84,2.57) rotate(4.17) scale(1.000)">
        <g transform="translate(-1.83,3.36) rotate(9.27) scale(0.980)">
        <g transform="translate(0.63,3.85) rotate(14.75) scale(0.960)">
        <g transform="translate(2.93,4.00) rotate(20.00) scale(0.940)">
        <g transform="translate(4.51,3.79) rotate(24.42) scale(0.920)">
        <g transform="translate(4.99,3.24) rotate(27.43) scale(0.900)" mask="url(#maskGradient)">
        <g transform="translate(4.25,2.41) rotate(28.55) scale(0.880)">
        <path d="M0.0,-45.6 L13.4,-18.5 L43.4,-14.1 L21.7,7.1 L26.8,36.9 L0.0,22.8 L-26.8,36.9 L-21.7,7.1 L-43.4,-14.1 L-13.4,-18.5Z" fill="url(#rgrad1)" filter="url(#blur1)" opacity="0.31"/>
      </g>
      </g>
      </g>
      </g>
      </g>
      </g>
      </g>
  </g>
  <g transform="translate(294.0, 666.5)">
      <g transform="translate(0.63,3.97) rotate(4.17) scale(1.000)">
        <g transform="translate(2.93,3.64) rotate(9.27) scale(0.980)">
        <g transform="translate(4.51,2.99) rotate(14.75) scale(0.960)">
        <g transform="translate(4.99,2.08) rotate(20.00) scale(0.940)">
        <g transform="translate(4.25,0.97) rotate(24.42) scale(0.920)">
        <g transform="translate(2.47,-0.22) rotate(27.43) scale(0.900)">
        <g transform="translate(0.08,-1.39) rotate(28.55) scale(0.880)">
        <rect x="-24.3" y="-24.3" width="48.6" height="48.6" rx="12.2" fill="url(#rgrad2)" filter="url(#shadow)" opacity="0.42"/>
        <circle cx="0" cy="0" r="16.2" fill="url(#rgrad3)" opacity="0.30"/>
      </g>
      </g>
      </g>
      </g>
      </g>
      </g>
      </g>
  </g>
  <g transform="translate(510.0, 649.4)">
      <g transform="translate(4.51,1.72) rotate(4.17) scale(1.000)">
        <g transform="translate(4.99,0.58) rotate(9.27) scale(0.980)">
        <g transform="translate(4.25,-0.62) rotate(14.75) scale(0.960)">
        <g transform="translate(2.47,-1.76) rotate(20.00) scale(0.940)" clip-path="url(#clipRect)">
        <g transform="translate(0.08,-2.74) rotate(24.42) scale(0.920)">
        <g transform="translate(-2.33,-3.48) rotate(27.43) scale(0.900)">
        <g transform="translate(-4.16,-3.91) rotate(28.55) scale(0.880)">
        <path d="M32.2,18.6 L0.0,37.2 L-32.2,18.6 L-32.2,-18.6 L-0.0,-37.2 L32.2,-18.6Z" fill="url(#lgrad3)" filter="url(#blur3)" opacity="0.54"/>
        <ellipse cx="0" cy="0" rx="15.5" ry="10.3" fill="#FFFFFF" opacity="0.27"/>
      </g>
      </g>
      </g>
      </g>
      </g>
      </g>
      </g>
  </g>
  <g transform="translate(733.4, 637.3)">
      <g transform="translate(4.25,-2.11) rotate(4.17) scale(1.000)">
        <g transform="translate(2.47,-3.02) rotate(9.27) scale(0.980)">
        <g transform="translate(0.08,-3.66) rotate(14.75) scale(0.960)">
        <g transform="translate(-2.33,-3.97) rotate(20.00) scale(0.940)">
        <g transform="translate(-4.16,-3.93) rotate(24.42) scale(0.920)">
        <g transform="translate(-4.98,-3.54) rotate(27.43) scale(0.900)" mask="url(#maskDynamic)">
        <g transform="translate(-4.58,-2.83) rotate(28.55) scale(0.880)">
        <circle cx="0" cy="0" r="36.8" fill="url(#rgrad4)" filter="url(#shadow)" opacity="0.66"/>
        <text x="0" y="5" text-anchor="middle" font-family="Arial, sans-serif" font-size="14" fill="#FFFFFF" opacity="0.66">315</text>
      </g>
      </g>
      </g>
      </g>
      </g>
      </g>
      </g>
  </g>
  <g transform="translate(963.3, 635.9)">
      <g transform="translate(0.08,-4.00) rotate(4.17) scale(1.000)">
        <g transform="translate(-2.33,-3.84) rotate(9.27) scale(0.980)">
        <g transform="translate(-4.16,-3.34) rotate(14.75) scale(0.960)">
        <g transform="translate(-4.98,-2.54) rotate(20.00) scale(0.940)">
        <g transform="translate(-4.58,-1.51) rotate(24.42) scale(0.920)">
        <g transform="translate(-3.06,-0.35) rotate(27.43) scale(0.900)">
        <g transform="translate(-0.79,0.85) rotate(28.55) scale(0.880)">
        <path d="M0.0,-72.7 L21.4,-29.4 L69.1,-22.5 L34.5,11.2 L42.7,58.8 L0.0,36.3 L-42.7,58.8 L-34.5,11.2 L-69.1,-22.5 L-21.4,-29.4Z" fill="url(#rgrad0)" filter="url(#blur0)" opacity="0.76"/>
      </g>
      </g>
      </g>
      </g>
      </g>
      </g>
      </g>
  </g>
  <g transform="translate(1197.3, 645.8)">
      <g transform="translate(-4.16,-2.22) rotate(4.17) scale(1.000)">
        <g transform="translate(-4.98,-1.13) rotate(9.27) scale(0.980)">
        <g transform="translate(-4.58,0.05) rotate(14.75) scale(0.960)">
        <g transform="translate(-3.06,1.23) rotate(20.00) scale(0.940)" clip-path="url(#clipStar)">
        <g transform="translate(-0.79,2.30) rotate(24.42) scale(0.920)">
        <g transform="translate(1.68,3.17) rotate(27.43) scale(0.900)">
        <g transform="translate(3.73,3.75) rotate(28.55) scale(0.880)">
        <rect x="-30.0" y="-30.0" width="60.1" height="60.1" rx="15.0" fill="url(#lgrad1)" filter="url(#shadow)" opacity="0.84"/>
        <circle cx="0" cy="0" r="20.0" fill="url(#rgrad2)" opacity="0.59"/>
      </g>
      </g>
      </g>
      </g>
      </g>
      </g>
      </g>
  </g>
  <g transform="translate(1431.9, 662.4)">
      <g transform="translate(-4.58,1.61) rotate(4.17) scale(1.000)">
        <g transform="translate(-3.06,2.62) rotate(9.27) scale(0.980)">
        <g transform="translate(-0.79,3.39) rotate(14.75) scale(0.960)">
        <g transform="translate(1.68,3.87) rotate(20.00) scale(0.940)">
        <g transform="translate(3.73,4.00) rotate(24.42) scale(0.920)">
        <g transform="translate(4.87,3.77) rotate(27.43) scale(0.900)" mask="url(#maskStripes)">
        <g transform="translate(4.82,3.20) rotate(28.55) scale(0.880)">
        <path d="M24.6,14.2 L0.0,28.4 L-24.6,14.2 L-24.6,-14.2 L-0.0,-28.4 L24.6,-14.2Z" fill="url(#rgrad2)" filter="url(#blur2)" opacity="0.89"/>
        <ellipse cx="0" cy="0" rx="11.9" ry="7.9" fill="#FFFFFF" opacity="0.44"/>
      </g>
      </g>
      </g>
      </g>
      </g>
      </g>
      </g>
  </g>
  <g transform="translate(1663.7, 677.9)">
      <g transform="translate(-0.79,3.95) rotate(4.17) scale(1.000)">
        <g transform="translate(1.68,3.96) rotate(9.27) scale(0.980)">
        <g transform="translate(3.73,3.62) rotate(14.75) scale(0.960)">
        <g transform="translate(4.87,2.95) rotate(20.00) scale(0.940)">
        <g transform="translate(4.82,2.02) rotate(24.42) scale(0.920)">
        <g transform="translate(3.58,0.91) rotate(27.43) scale(0.900)">
        <g transform="translate(1.47,-0.29) rotate(28.55) scale(0.880)">
        <circle cx="0" cy="0" r="23.2" fill="url(#rgrad3)" filter="url(#shadow)" opacity="0.90"/>
        <text x="0" y="5" text-anchor="middle" font-family="Arial, sans-serif" font-size="14" fill="#FFFFFF" opacity="0.90">315</text>
      </g>
      </g>
      </g>
      </g>
      </g>
      </g>
      </g>
  </g>
  <g transform="translate(129.6, 964.9)">
      <g transform="translate(3.73,2.66) rotate(4.17) scale(1.000)">
        <g transform="translate(4.87,1.66) rotate(9.27) scale(0.980)">
        <g transform="translate(4.82,0.51) rotate(14.75) scale(0.960)">
        <g transform="translate(3.58,-0.68) rotate(20.00) scale(0.940)" clip-path="url(#clipDynamic)">
        <g transform="translate(1.47,-1.82) rotate(24.42) scale(0.920)">
        <g transform="translate(-1.00,-2.79) rotate(27.43) scale(0.900)">
        <g transform="translate(-3.22,-3.51) rotate(28.55) scale(0.880)">
        <path d="M0.0,-57.8 L17.0,-23.4 L55.0,-17.9 L27.5,8.9 L34.0,46.8 L0.0,28.9 L-34.0,46.8 L-27.5,8.9 L-55.0,-17.9 L-17.0,-23.4Z" fill="url(#lgrad4)" filter="url(#blur4)" opacity="0.88"/>
      </g>
      </g>
      </g>
      </g>
      </g>
      </g>
      </g>
  </g>
  <g transform="translate(391.9, 268.5)" mask="url(#maskGradient)">
    <ellipse cx="0" cy="0" rx="200" ry="150" fill="url(#rgrad0)" filter="url(#blur3)" opacity="0.3"/>
  </g>
  <g transform="translate(816.6, 228.6)" mask="url(#maskCircleFade)">
    <ellipse cx="0" cy="0" rx="200" ry="150" fill="url(#rgrad1)" filter="url(#blur3)" opacity="0.3"/>
  </g>
  <g transform="translate(1226.0, 222.2)" mask="url(#maskStripes)">
    <ellipse cx="0" cy="0" rx="200" ry="150" fill="url(#rgrad2)" filter="url(#blur3)" opacity="0.3"/>
  </g>
</svg>