<?xml version="1.0" encoding="UTF-8"?>
<svg xmlns="http://www.w3.org/2000/svg" viewBox="0 0 1920 1080" width="1920" height="1080">
  <defs>
    <filter id="blur0" x="-50%" y="-50%" width="200%" height="200%">
      <feGaussianBlur in="SourceGraphic" stdDeviation="1"/>
    </filter>
    <filter id="blur1" x="-50%" y="-50%" width="200%" height="200%">
      <feGaussianBlur in="SourceGraphic" stdDeviation="3"/>
    </filter>
    <filter id="blur2" x="-50%" y="-50%" width="200%" height="200%">
      <feGaussianBlur in="SourceGraphic" stdDeviation="5"/>
    </filter>
    <filter id="blur3" x="-50%" y="-50%" width="200%" height="200%">
      <feGaussianBlur in="SourceGraphic" stdDeviation="7"/>
    </filter>
    <filter id="blur4" x="-50%" y="-50%" width="200%" height="200%">
      <feGaussianBlur in="SourceGraphic" stdDeviation="9"/>
    </filter>
    <filter id="shadow" x="-50%" y="-50%" width="200%" height="200%">
      <feGaussianBlur in="SourceAlpha" stdDeviation="3" result="blur"/>
      <feOffset in="blur" dx="4" dy="4" result="offsetBlur"/>
      <feMerge>
        <feMergeNode in="offsetBlur"/>
        <feMergeNode in="SourceGraphic"/>
      </feMerge>
    </filter>
    <linearGradient id="lgrad0" x1="0%" y1="0%" x2="73.1%" y2="94.4%">
      <stop offset="0%" stop-color="#FF6B6B"/>
      <stop offset="33%" stop-color="#4ECDC4"/>
      <stop offset="66%" stop-color="#45B7D1"/>
      <stop offset="100%" stop-color="#96E6A1"/>
    </linearGradient>
    <linearGradient id="lgrad1" x1="0%" y1="0%" x2="47.8%" y2="100.0%">
      <stop offset="0%" stop-color="#FFE66D"/>
      <stop offset="33%" stop-color="#FF6B6B"/>
      <stop offset="66%" stop-color="#C44D58"/>
      <stop offset="100%" stop-color="#8B0000"/>
    </linearGradient>
    <linearGradient id="lgrad2" x1="0%" y1="0%" x2="23.1%" y2="92.2%">
      <stop offset="0%" stop-color="#4169E1"/>
      <stop offset="33%" stop-color="#7B68EE"/>
      <stop offset="66%" stop-color="#9370DB"/>
      <stop offset="100%" stop-color="#FFD700"/>
    </linearGradient>
    <linearGradient id="lgrad3" x1="0%" y1="0%" x2="5.6%" y2="73.1%">
      <stop offset="0%" stop-color="#32CD32"/>
      <stop offset="33%" stop-color="#228B22"/>
      <stop offset="66%" stop-color="#006400"/>
      <stop offset="100%" stop-color="#ADFF2F"/>
    </linearGradient>
    <linearGradient id="lgrad4" x1="0%" y1="0%" x2="0.0%" y2="47.8%">
      <stop offset="0%" stop-color="#FF1493"/>
      <stop offset="33%" stop-color="#FF69B4"/>
      <stop offset="66%" stop-color="#FFB6C1"/>
      <stop offset="100%" stop-color="#FFC0CB"/>
    </linearGradient>
    <radialGradient id="rgrad0" cx="40.5%" cy="37.0%" r="60%">
      <stop offset="0%" stop-color="#FF6B6B" stop-opacity="1"/>
      <stop offset="50%" stop-color="#4ECDC4" stop-opacity="0.8"/>
      <stop offset="100%" stop-color="#45B7D1" stop-opacity="0.6"/>
    </radialGradient>
    <radialGradient id="rgrad1" cx="50.5%" cy="45.0%" r="60%">
      <stop offset="0%" stop-color="#FFE66D" stop-opacity="1"/>
      <stop offset="50%" stop-color="#FF6B6B" stop-opacity="0.8"/>
      <stop offset="100%" stop-color="#C44D58" stop-opacity="0.6"/>
    </radialGradient>
    <radialGradient id="rgrad2" cx="60.5%" cy="53.0%" r="60%">
      <stop offset="0%" stop-color="#4169E1" stop-opacity="1"/>
      <stop offset="50%" stop-color="#7B68EE" stop-opacity="0.8"/>
      <stop offset="100%" stop-color="#9370DB" stop-opacity="0.6"/>
    </radialGradient>
    <radialGradient id="rgrad3" cx="30.5%" cy="61.0%" r="60%">
      <stop offset="0%" stop-color="#32CD32" stop-opacity="1"/>
      <stop offset="50%" stop-color="#228B22" stop-opacity="0.8"/>
      <stop offset="100%" stop-color="#006400" stop-opacity="0.6"/>
    </radialGradient>
    <radialGradient id="rgrad4" cx="40.5%" cy="69.0%" r="60%">
      <stop offset="0%" stop-color="#FF1493" stop-opacity="1"/>
      <stop offset="50%" stop-color="#FF69B4" stop-opacity="0.8"/>
      <stop offset="100%" stop-color="#FFB6C1" stop-opacity="0.6"/>
    </radialGradient>
    <clipPath id="clipCircle">
      <circle cx="0" cy="0" r="50"/>
    </clipPath>
    <clipPath id="clipStar">
      <path d="M0.0,-50.0 L14.7,-20.2 L47.6,-15.5 L23.8,7.7 L29.4,40.5 L0.0,25.0 L-29.4,40.5 L-23.8,7.7 L-47.6,-15.5 L-14.7,-20.2Z"/>
    </clipPath>
    <clipPath id="clipHex">
      <path d="M39.0,22.5 L0.0,45.0 L-39.0,22.5 L-39.0,-22.5 L-0.0,-45.0 L39.0,-22.5Z"/>
    </clipPath>
    <clipPath id="clipRect">
      <rect x="-40" y="-30" width="80" height="60" rx="10"/>
    </clipPath>
    <clipPath id="clipDynamic">
      <circle cx="0" cy="0" r="38.2"/>
    </clipPath>
    <mask id="maskGradient" maskContentUnits="objectBoundingBox">
      <rect x="0" y="0" width="1" height="1" fill="url(#maskGrad)"/>
    </mask>
    <linearGradient id="maskGrad" x1="0%" y1="0%" x2="100%" y2="100%">
      <stop offset="0%" stop-color="white"/>
      <stop offset="100%" stop-color="black"/>
    </linearGradient>
    <mask id="maskCircleFade">
      <circle cx="0" cy="0" r="60" fill="white"/>
      <circle cx="0" cy="0" r="30" fill="black"/>
    </mask>
    <mask id="maskStripes">
      <rect x="-50" y="-50" width="100" height="100" fill="white"/>
      <rect x="-50" y="-40" width="100" height="10" fill="black"/>
      <rect x="-50" y="-20" width="100" height="10" fill="black"/>
      <rect x="-50" y="0" width="100" height="10" fill="black"/>
      <rect x="-50" y="20" width="100" height="10" fill="black"/>
      <rect x="-50" y="40" width="100" height="10" fill="black"/>
    </mask>
    <mask id="maskDynamic">
      <rect x="-60" y="-60" width="120" height="120" fill="white" fill-opacity="0.37"/>
      <circle cx="0" cy="0" r="25" fill="white"/>
    </mask>
  </defs>
  <rect width="1920" height="1080" fill="url(#lgrad0)"/>
  <g transform="translate(106.4, 124.4)">
      <g transform="translate(1.06,3.91) rotate(0.53) scale(1.000)">
        <g transform="translate(3.27,3.48) rotate(3.02) scale(0.980)">
        <g transform="translate(4.68,2.75) rotate(7.28) scale(0.960)">
        <g transform="translate(4.95,1.76) rotate(12.99) scale(0.940)" clip-path="url(#clipCircle)">
        <g transform="translate(4.00,0.63) rotate(19.69) scale(0.920)">
        <g transform="translate(2.07,-0.57) rotate(26.83) scale(0.900)">
        <g transform="translate(-0.36,-1.71) rotate(33.79) scale(0.880)">
        <path d="M0.0,-61.6 L18.1,-24.9 L58.6,-19.0 L29.3,9.5 L36.2,49.8 L0.0,30.8 L-36.2,49.8 L-29.3,9.5 L-58.6,-19.0 L-18.1,-24.9Z" fill="url(#lgrad0)" filter="url(#blur0)" opacity="0.54"/>
      </g>
      </g>
      </g>
      </g>
      </g>
      </g>
      </g>
  </g>
  <g transform="translate(339.6, 115.3)">
      <g transform="translate(4.68,1.40) rotate(0.53) scale(1.000)">
        <g transform="translate(4.95,0.23) rotate(3.02) scale(0.980)">
        <g transform="translate(4.00,-0.96) rotate(7.28) scale(0.960)">
        <g transform="translate(2.07,-2.07) rotate(12.99) scale(0.940)">
        <g transform="translate(-0.36,-2.99) rotate(19.69) scale(0.920)">
        <g transform="translate(-2.71,-3.64) rotate(26.83) scale(0.900)" mask="url(#maskCircleFade)">
        <g transform="translate(-4.39,-3.97) rotate(33.79) scale(0.880)">
        <rect x="-36.7" y="-36.7" width="73.4" height="73.4" rx="18.4" fill="url(#rgrad1)" filter="url(#shadow)" opacity="0.66"/>
        <circle cx="0" cy="0" r="24.5" fill="url(#rgrad2)" opacity="0.46"/>
      </g>
      </g>
      </g>
      </g>
      </g>
      </g>
      </g>
  </g>
  <g transform="translate(568.1, 98.9)">
      <g transform="translate(4.00,-2.40) rotate(0.53) scale(1.000)">
        <g transform="translate(2.07,-3.24) rotate(3.02) scale(0.980)">
        <g transform="translate(-0.36,-3.79) rotate(7.28) scale(0.960)">
        <g transform="translate(-2.71,-4.00) rotate(12.99) scale(0.940)">
        <g transform="translate(-4.39,-3.85) rotate(19.69) scale(0.920)">
        <g transform="translate(-5.00,-3.36) rotate(26.83) scale(0.900)">
        <g transform="translate(-4.38,-2.57) rotate(33.79) scale(0.880)">
        <path d="M37.9,21.9 L0.0,43.7 L-37.9,21.9 L-37.9,-21.9 L-0.0,-43.7 L37.9,-21.9Z" fill="url(#rgrad2)" filter="url(#blur2)" opacity="0.76"/>
        <ellipse cx="0" cy="0" rx="18.2" ry="12.1" fill="#FFFFFF" opacity="0.38"/>
      </g>
      </g>
      </g>
      </g>
      </g>
      </g>
      </g>
  </g>
  <g transform="translate(789.7, 83.1)">
      <g transform="translate(-0.36,-3.99) rotate(0.53) scale(1.000)">
        <g transform="translate(-2.71,-3.73) rotate(3.02) scale(0.980)">
        <g transform="translate(-4.39,-3.13) rotate(7.28) scale(0.960)">
        <g transform="translate(-5.00,-2.25) rotate(12.99) scale(0.940)" clip-path="url(#clipRect)">
        <g transform="translate(-4.38,-1.18) rotate(19.69) scale(0.920)">
        <g transform="translate(-2.70,0.01) rotate(26.83) scale(0.900)">
        <g transform="translate(-0.35,1.19) rotate(33.79) scale(0.880)">
        <circle cx="0" cy="0" r="30.3" fill="url(#lgrad3)" filter="url(#shadow)" opacity="0.84"/>
        <text x="0" y="5" text-anchor="middle" font-family="Arial, sans-serif" font-size="14" fill="#FFFFFF" opacity="0.84">35</text>
      </g>
      </g>
      </g>
      </g>
      </g>
      </g>
      </g>
  </g>
  <g transform="translate(1004.0, 75.2)">
      <g transform="translate(-4.39,-1.91) rotate(0.53) scale(1.000)">
        <g transform="translate(-5.00,-0.79) rotate(3.02) scale(0.980)">
        <g transform="translate(-4.38,0.41) rotate(7.28) scale(0.960)">
        <g transform="translate(-2.70,1.56) rotate(12.99) scale(0.940)">
        <g transform="translate(-0.35,2.58) rotate(19.69) scale(0.920)">
        <g transform="translate(2.09,3.37) rotate(26.83) scale(0.900)" mask="url(#maskGradient)">
        <g transform="translate(4.01,3.86) rotate(33.79) scale(0.880)">
        <path d="M0.0,-47.7 L14.0,-19.3 L45.3,-14.7 L22.7,7.4 L28.0,38.6 L0.0,23.8 L-28.0,38.6 L-22.7,7.4 L-45.3,-14.7 L-14.0,-19.3Z" fill="url(#rgrad4)" filter="url(#blur4)" opacity="0.89"/>
      </g>
      </g>
      </g>
      </g>
      </g>
      </g>
      </g>
  </g>
  <g transform="translate(1212.4, 79.0)">
      <g transform="translate(-4.38,1.92) rotate(0.53) scale(1.000)">
        <g transform="translate(-2.70,2.87) rotate(3.02) scale(0.980)">
        <g transform="translate(-0.35,3.57) rotate(7.28) scale(0.960)">
        <g transform="translate(2.09,3.94) rotate(12.99) scale(0.940)">
        <g transform="translate(4.01,3.97) rotate(19.69) scale(0.920)">
        <g transform="translate(4.95,3.63) rotate(26.83) scale(0.900)">
        <g transform="translate(4.68,2.98) rotate(33.79) scale(0.880)">
        <rect x="-23.1" y="-23.1" width="46.2" height="46.2" rx="11.5" fill="url(#rgrad0)" filter="url(#shadow)" opacity="0.90"/>
        <circle cx="0" cy="0" r="15.4" fill="url(#rgrad1)" opacity="0.63"/>
      </g>
      </g>
      </g>
      </g>
      </g>
      </g>
      </g>
  </g>
  <g transform="translate(1417.8, 92.6)">
      <g transform="translate(-0.35,3.99) rotate(0.53) scale(1.000)">
        <g transform="translate(2.09,3.89) rotate(3.02) scale(0.980)">
        <g transform="translate(4.01,3.45) rotate(7.28) scale(0.960)">
        <g transform="translate(4.95,2.70) rotate(12.99) scale(0.940)" clip-path="url(#clipStar)">
        <g transform="translate(4.68,1.70) rotate(19.69) scale(0.920)">
        <g transform="translate(3.26,0.56) rotate(26.83) scale(0.900)">
        <g transform="translate(1.05,-0.64) rotate(33.79) scale(0.880)">
        <path d="M29.8,17.2 L0.0,34.4 L-29.8,17.2 L-29.8,-17.2 L-0.0,-34.4 L29.8,-17.2Z" fill="url(#lgrad1)" filter="url(#blur1)" opacity="0.88"/>
        <ellipse cx="0" cy="0" rx="14.3" ry="9.6" fill="#FFFFFF" opacity="0.44"/>
      </g>
      </g>
      </g>
      </g>
      </g>
      </g>
      </g>
  </g>
  <g transform="translate(1623.8, 109.8)">
      <g transform="translate(4.01,2.39) rotate(0.53) scale(1.000)">
        <g transform="translate(4.95,1.33) rotate(3.02) scale(0.980)">
        <g transform="translate(4.68,0.16) rotate(7.28) scale(0.960)">
        <g transform="translate(3.26,-1.03) rotate(12.99) scale(0.940)">
        <g transform="translate(1.05,-2.12) rotate(19.69) scale(0.920)">
        <g transform="translate(-1.43,-3.03) rotate(26.83) scale(0.900)" mask="url(#maskDynamic)">
        <g transform="translate(-3.55,-3.67) rotate(33.79) scale(0.880)">
        <circle cx="0" cy="0" r="35.5" fill="url(#rgrad2)" filter="url(#shadow)" opacity="0.82"/>
        <text x="0" y="5" text-anchor="middle" font-family="Arial, sans-serif" font-size="14" fill="#FFFFFF" opacity="0.82">35</text>
      </g>
      </g>
      </g>
      </g>
      </g>
      </g>
      </g>
  </g>
  <g transform="translate(73.7, 402.3)">
      <g transform="translate(4.68,-1.41) rotate(0.53) scale(1.000)">
        <g transform="translate(3.26,-2.45) rotate(3.02) scale(0.980)">
        <g transform="translate(1.05,-3.28) rotate(7.28) scale(0.960)">
        <g transform="translate(-1.43,-3.81) rotate(12.99) scale(0.940)">
        <g transform="translate(-3.55,-4.00) rotate(19.69) scale(0.920)">
        <g transform="translate(-4.80,-3.83) rotate(26.83) scale(0.900)">
        <g transform="translate(-4.88,-3.33) rotate(33.79) scale(0.880)">
        <path d="M0.0,-74.5 L21.9,-30.1 L70.9,-23.0 L35.4,11.5 L43.8,60.3 L0.0,37.3 L-43.8,60.3 L-35.4,11.5 L-70.9,-23.0 L-21.9,-30.1Z" fill="url(#rgrad3)" filter="url(#blur3)" opacity="0.74"/>
      </g>
      </g>
      </g>
      </g>
      </g>
      </g>
      </g>
  </g>
  <g transform="translate(290.0, 404.3)">
      <g transform="translate(1.05,-3.91) rotate(0.53) scale(1.000)">
        <g transform="translate(-1.43,-3.98) rotate(3.02) scale(0.980)">
        <g transform="translate(-3.55,-3.70) rotate(7.28) scale(0.960)">
        <g transform="translate(-4.80,-3.09) rotate(12.99) scale(0.940)" clip-path="url(#clipDynamic)">
        <g transform="translate(-4.88,-2.20) rotate(19.69) scale(0.920)">
        <g transform="translate(-3.76,-1.11) rotate(26.83) scale(0.900)">
        <g transform="translate(-1.73,0.07) rotate(33.79) scale(0.880)">
        <rect x="-32.3" y="-32.3" width="64.7" height="64.7" rx="16.2" fill="url(#lgrad4)" filter="url(#shadow)" opacity="0.63"/>
        <circle cx="0" cy="0" r="21.6" fill="url(#rgrad0)" opacity="0.44"/>
      </g>
      </g>
      </g>
      </g>
      </g>
      </g>
      </g>
  </g>
  <g transform="translate(513.7, 394.9)">
      <g transform="translate(-3.55,-2.82) rotate(0.53) scale(1.000)">
        <g transform="translate(-4.80,-1.85) rotate(3.02) scale(0.980)">
        <g transform="translate(-4.88,-0.72) rotate(7.28) scale(0.960)">
        <g transform="translate(-3.76,0.47) rotate(12.99) scale(0.940)">
        <g transform="translate(-1.73,1.62) rotate(19.69) scale(0.920)">
        <g transform="translate(0.73,2.63) rotate(26.83) scale(0.900)" mask="url(#maskStripes)">
        <g transform="translate(3.02,3.40) rotate(33.79) scale(0.880)">
        <path d="M26.3,15.2 L0.0,30.3 L-26.3,15.2 L-26.3,-15.2 L-0.0,-30.3 L26.3,-15.2Z" fill="url(#rgrad0)" filter="url(#blur0)" opacity="0.51"/>
        <ellipse cx="0" cy="0" rx="12.6" ry="8.4" fill="#FFFFFF" opacity="0.26"/>
      </g>
      </g>
      </g>
      </g>
      </g>
      </g>
      </g>
  </g>
  <g transform="translate(743.8, 378.5)">
      <g transform="translate(-4.88,0.87) rotate(0.53) scale(1.000)">
        <g transform="translate(-3.76,1.98) rotate(3.02) scale(0.980)">
        <g transform="translate(-1.73,2.92) rotate(7.28) scale(0.960)">
        <g transform="translate(0.73,3.60) rotate(12.99) scale(0.940)">
        <g transform="translate(3.02,3.95) rotate(19.69) scale(0.920)">
        <g transform="translate(4.56,3.96) rotate(26.83) scale(0.900)">
        <g transform="translate(4.99,3.61) rotate(33.79) scale(0.880)">
        <circle cx="0" cy="0" r="22.5" fill="url(#rgrad1)" filter="url(#shadow)" opacity="0.40"/>
        <text x="0" y="5" text-anchor="middle" font-family="Arial, sans-serif" font-size="14" fill="#FFFFFF" opacity="0.40">35</text>
      </g>
      </g>
      </g>
      </g>
      </g>
      </g>
      </g>
  </g>
  <g transform="translate(977.9, 362.8)">
      <g transform="translate(-1.73,3.75) rotate(0.53) scale(1.000)">
        <g transform="translate(0.73,3.99) rotate(3.02) scale(0.980)">
        <g transform="translate(3.02,3.88) rotate(7.28) scale(0.960)">
        <g transform="translate(4.56,3.42) rotate(12.99) scale(0.940)" clip-path="url(#clipHex)">
        <g transform="translate(4.99,2.65) rotate(19.69) scale(0.920)">
        <g transform="translate(4.19,1.64) rotate(26.83) scale(0.900)">
        <g transform="translate(2.37,0.49) rotate(33.79) scale(0.880)">
        <path d="M0.0,-53.3 L15.7,-21.6 L50.7,-16.5 L25.4,8.2 L31.4,43.2 L0.0,26.7 L-31.4,43.2 L-25.4,8.2 L-50.7,-16.5 L-15.7,-21.6Z" fill="url(#lgrad2)" filter="url(#blur2)" opacity="0.29"/>
      </g>
      </g>
      </g>
      </g>
      </g>
      </g>
      </g>
  </g>
  <g transform="translate(1212.5, 355.2)">
      <g transform="translate(3.02,3.19) rotate(0.53) scale(1.000)">
        <g transform="translate(4.56,2.33) rotate(3.02) scale(0.980)">
        <g transform="translate(4.99,1.27) rotate(7.28) scale(0.960)">
        <g transform="translate(4.19,0.09) rotate(12.99) scale(0.940)">
        <g transform="translate(2.37,-1.09) rotate(19.69) scale(0.920)">
        <g transform="translate(-0.03,-2.18) rotate(26.83) scale(0.900)" mask="url(#maskCircleFade)">
        <g transform="translate(-2.42,-3.07) rotate(33.79) scale(0.880)">
        <rect x="-33.9" y="-33.9" width="67.7" height="67.7" rx="16.9" fill="url(#rgrad3)" filter="url(#shadow)" opacity="0.20"/>
        <circle cx="0" cy="0" r="22.6" fill="url(#rgrad4)" opacity="0.14"/>
      </g>
      </g>
      </g>
      </g>
      </g>
      </g>
      </g>
  </g>
  <g transform="translate(1444.1, 359.2)">
      <g transform="translate(4.99,-0.31) rotate(0.53) scale(1.000)">
        <g transform="translate(4.19,-1.47) rotate(3.02) scale(0.980)">
        <g transform="translate(2.37,-2.50) rotate(7.28) scale(0.960)">
        <g transform="translate(-0.03,-3.31) rotate(12.99) scale(0.940)">
        <g transform="translate(-2.42,-3.83) rotate(19.69) scale(0.920)">
        <g transform="translate(-4.22,-4.00) rotate(26.83) scale(0.900)">
        <g transform="translate(-4.99,-3.81) rotate(33.79) scale(0.880)">
        <path d="M39.0,22.5 L0.0,45.0 L-39.0,22.5 L-39.0,-22.5 L-0.0,-45.0 L39.0,-22.5Z" fill="url(#rgrad4)" filter="url(#blur4)" opacity="0.13"/>
        <ellipse cx="0" cy="0" rx="18.7" ry="12.5" fill="#FFFFFF" opacity="0.07"/>
      </g>
      </g>
      </g>
      </g>
      </g>
      </g>
      </g>
  </g>
  <g transform="translate(1669.7, 373.0)">
      <g transform="translate(2.37,-3.52) rotate(0.53) scale(1.000)">
        <g transform="translate(-0.03,-3.92) rotate(3.02) scale(0.980)">
        <g transform="translate(-2.42,-3.98) rotate(7.28) scale(0.960)">
        <g transform="translate(-4.22,-3.68) rotate(12.99) scale(0.940)" clip-path="url(#clipCircle)">
        <g transform="translate(-4.99,-3.04) rotate(19.69) scale(0.920)">
        <g transform="translate(-4.53,-2.14) rotate(26.83) scale(0.900)">
        <g transform="translate(-2.97,-1.05) rotate(33.79) scale(0.880)">
        <circle cx="0" cy="0" r="34.2" fill="url(#lgrad0)" filter="url(#shadow)" opacity="0.10"/>
        <text x="0" y="5" text-anchor="middle" font-family="Arial, sans-serif" font-size="14" fill="#FFFFFF" opacity="0.10">35</text>
      </g>
      </g>
      </g>
      </g>
      </g>
      </g>
      </g>
  </g>
  <g transform="translate(128.1, 670.2)">
      <g transform="translate(-2.42,-3.50) rotate(0.53) scale(1.000)">
        <g transform="translate(-4.22,-2.77) rotate(3.02) scale(0.980)">
        <g transform="translate(-4.99,-1.79) rotate(7.28) scale(0.960)">
        <g transform="translate(-4.53,-0.66) rotate(12.99) scale(0.940)">
        <g transform="translate(-2.97,0.54) rotate(19.69) scale(0.920)">
        <g transform="translate(-0.68,1.69) rotate(26.83) scale(0.900)" mask="url(#maskGradient)">
        <g transform="translate(1.78,2.68) rotate(33.79) scale(0.880)">
        <path d="M0.0,-54.2 L15.9,-21.9 L51.5,-16.7 L25.8,8.4 L31.8,43.8 L0.0,27.1 L-31.8,43.8 L-25.8,8.4 L-51.5,-16.7 L-15.9,-21.9Z" fill="url(#rgrad1)" filter="url(#blur1)" opacity="0.11"/>
      </g>
      </g>
      </g>
      </g>
      </g>
      </g>
      </g>
  </g>
  <g transform="translate(339.6, 682.5)">
      <g transform="translate(-4.99,-0.26) rotate(0.53) scale(1.000)">
        <g transform="translate(-4.53,0.93) rotate(3.02) scale(0.980)">
        <g transform="translate(-2.97,2.04) rotate(7.28) scale(0.960)">
        <g transform="translate(-0.68,2.97) rotate(12.99) scale(0.940)">
        <g transform="translate(1.78,3.63) rotate(19.69) scale(0.920)">
        <g transform="translate(3.80,3.96) rotate(26.83) scale(0.900)">
        <g transform="translate(4.89,3.95) rotate(33.79) scale(0.880)">
        <rect x="-22.6" y="-22.6" width="45.2" height="45.2" rx="11.3" fill="url(#rgrad2)" filter="url(#shadow)" opacity="0.15"/>
        <circle cx="0" cy="0" r="15.1" fill="url(#rgrad3)" opacity="0.10"/>
      </g>
      </g>
      </g>
      </g>
      </g>
      </g>
      </g>
  </g>
  <g transform="translate(546.3, 684.2)">
      <g transform="translate(-2.97,3.22) rotate(0.53) scale(1.000)">
        <g transform="translate(-0.68,3.78) rotate(3.02) scale(0.980)">
        <g transform="translate(1.78,4.00) rotate(7.28) scale(0.960)">
        <g transform="translate(3.80,3.86) rotate(12.99) scale(0.940)" clip-path="url(#clipRect)">
        <g transform="translate(4.89,3.38) rotate(19.69) scale(0.920)">
        <g transform="translate(4.79,2.60) rotate(26.83) scale(0.900)">
        <g transform="translate(3.51,1.58) rotate(33.79) scale(0.880)">
        <path d="M25.9,15.0 L0.0,29.9 L-25.9,15.0 L-25.9,-15.0 L-0.0,-29.9 L25.9,-15.0Z" fill="url(#lgrad3)" filter="url(#blur3)" opacity="0.22"/>
        <ellipse cx="0" cy="0" rx="12.5" ry="8.3" fill="#FFFFFF" opacity="0.11"/>
      </g>
      </g>
      </g>
      </g>
      </g>
      </g>
      </g>
  </g>
  <g transform="translate(751.4, 674.6)">
      <g transform="translate(1.78,3.74) rotate(0.53) scale(1.000)">
        <g transform="translate(3.80,3.15) rotate(3.02) scale(0.980)">
        <g transform="translate(4.89,2.28) rotate(7.28) scale(0.960)">
        <g transform="translate(4.79,1.21) rotate(12.99) scale(0.940)">
        <g transform="translate(3.51,0.03) rotate(19.69) scale(0.920)">
        <g transform="translate(1.37,-1.16) rotate(26.83) scale(0.900)" mask="url(#maskDynamic)">
        <g transform="translate(-1.10,-2.24) rotate(33.79) scale(0.880)">
        <circle cx="0" cy="0" r="31.9" fill="url(#rgrad4)" filter="url(#shadow)" opacity="0.32"/>
        <text x="0" y="5" text-anchor="middle" font-family="Arial, sans-serif" font-size="14" fill="#FFFFFF" opacity="0.32">35</text>
      </g>
      </g>
      </g>
      </g>
      </g>
      </g>
      </g>
  </g>
  <g transform="translate(958.7, 658.1)">
      <g transform="translate(4.89,0.82) rotate(0.53) scale(1.000)">
        <g transform="translate(4.79,-0.37) rotate(3.02) scale(0.980)">
        <g transform="translate(3.51,-1.53) rotate(7.28) scale(0.960)">
        <g transform="translate(1.37,-2.56) rotate(12.99) scale(0.940)">
        <g transform="translate(-1.10,-3.35) rotate(19.69) scale(0.920)">
        <g transform="translate(-3.31,-3.85) rotate(26.83) scale(0.900)">
        <g transform="translate(-4.70,-4.00) rotate(33.79) scale(0.880)">
        <path d="M0.0,-74.3 L21.8,-30.0 L70.6,-23.0 L35.3,11.5 L43.7,60.1 L0.0,37.1 L-43.7,60.1 L-35.3,11.5 L-70.6,-23.0 L-21.8,-30.0Z" fill="url(#rgrad0)" filter="url(#blur0)" opacity="0.43"/>
      </g>
      </g>
      </g>
      </g>
      </g>
      </g>
      </g>
  </g>
  <g transform="translate(1171.2, 642.5)">
      <g transform="translate(3.51,-2.85) rotate(0.53) scale(1.000)">
        <g transform="translate(1.37,-3.55) rotate(3.02) scale(0.980)">
        <g transform="translate(-1.10,-3.94) rotate(7.28) scale(0.960)">
        <g transform="translate(-3.31,-3.97) rotate(12.99) scale(0.940)" clip-path="url(#clipStar)">
        <g transform="translate(-4.70,-3.65) rotate(19.69) scale(0.920)">
        <g transform="translate(-4.94,-3.00) rotate(26.83) scale(0.900)">
        <g transform="translate(-3.97,-2.08) rotate(33.79) scale(0.880)">
        <rect x="-35.8" y="-35.8" width="71.6" height="71.6" rx="17.9" fill="url(#lgrad1)" filter="url(#shadow)" opacity="0.55"/>
        <circle cx="0" cy="0" r="23.9" fill="url(#rgrad2)" opacity="0.38"/>
      </g>
      </g>
      </g>
      </g>
      </g>
      </g>
      </g>
  </g>
  <g transform="translate(1390.7, 635.1)">
      <g transform="translate(-1.10,-3.90) rotate(0.53) scale(1.000)">
        <g transform="translate(-3.31,-3.47) rotate(3.02) scale(0.980)">
        <g transform="translate(-4.70,-2.72) rotate(7.28) scale(0.960)">
        <g transform="translate(-4.94,-1.73) rotate(12.99) scale(0.940)">
        <g transform="translate(-3.97,-0.59) rotate(19.69) scale(0.920)">
        <g transform="translate(-2.03,0.61) rotate(26.83) scale(0.900)" mask="url(#maskStripes)">
        <g transform="translate(0.41,1.75) rotate(33.79) scale(0.880)">
        <path d="M30.3,17.5 L0.0,35.0 L-30.3,17.5 L-30.3,-17.5 L-0.0,-35.0 L30.3,-17.5Z" fill="url(#rgrad2)" filter="url(#blur2)" opacity="0.66"/>
        <ellipse cx="0" cy="0" rx="14.6" ry="9.7" fill="#FFFFFF" opacity="0.33"/>
      </g>
      </g>
      </g>
      </g>
      </g>
      </g>
      </g>
  </g>
  <g transform="translate(1617.4, 639.4)">
      <g transform="translate(-4.70,-1.36) rotate(0.53) scale(1.000)">
        <g transform="translate(-4.94,-0.19) rotate(3.02) scale(0.980)">
        <g transform="translate(-3.97,1.00) rotate(7.28) scale(0.960)">
        <g transform="translate(-2.03,2.10) rotate(12.99) scale(0.940)">
        <g transform="translate(0.41,3.01) rotate(19.69) scale(0.920)">
        <g transform="translate(2.74,3.65) rotate(26.83) scale(0.900)">
        <g transform="translate(4.41,3.97) rotate(33.79) scale(0.880)">
        <circle cx="0" cy="0" r="23.3" fill="url(#rgrad3)" filter="url(#shadow)" opacity="0.76"/>
        <text x="0" y="5" text-anchor="middle" font-family="Arial, sans-serif" font-size="14" fill="#FFFFFF" opacity="0.76">35</text>
      </g>
      </g>
      </g>
      </g>
      </g>
      </g>
      </g>
  </g>
  <g transform="translate(89.6, 933.5)">
      <g transform="translate(-3.97,2.43) rotate(0.53) scale(1.000)">
        <g transform="translate(-2.03,3.26) rotate(3.02) scale(0.980)">
        <g transform="translate(0.41,3.80) rotate(7.28) scale(0.960)">
        <g transform="translate(2.74,4.00) rotate(12.99) scale(0.940)" clip-path="url(#clipDynamic)">
        <g transform="translate(4.41,3.84) rotate(19.69) scale(0.920)">
        <g transform="translate(5.00,3.34) rotate(26.83) scale(0.900)">
        <g transform="translate(4.36,2.55) rotate(33.79) scale(0.880)">
        <path d="M0.0,-47.2 L13.9,-19.1 L44.9,-14.6 L22.4,7.3 L27.7,38.2 L0.0,23.6 L-27.7,38.2 L-22.4,7.3 L-44.9,-14.6 L-13.9,-19.1Z" fill="url(#lgrad4)" filter="url(#blur4)" opacity="0.84"/>
      </g>
      </g>
      </g>
      </g>
      </g>
      </g>
      </g>
  </g>
  <g transform="translate(321.2, 378.2)" mask="url(#maskGradient)">
    <ellipse cx="0" cy="0" rx="200" ry="150" fill="url(#rgrad0)" filter="url(#blur3)" opacity="0.3"/>
  </g>
  <g transform="translate(893.7, 348.9)" mask="url(#maskCircleFade)">
    <ellipse cx="0" cy="0" rx="200" ry="150" fill="url(#rgrad1)" filter="url(#blur3)" opacity="0.3"/>
  </g>
  <g transform="translate(1380.0, 296.6)" mask="url(#maskStripes)">
    <ellipse cx="0" cy="0" rx="200" ry="150" fill="url(#rgrad2)" filter="url(#blur3)" opacity="0.3"/>
  </g>
</svg>