<?xml version="1.0" encoding="UTF-8"?>
<svg xmlns="http://www.w3.org/2000/svg" viewBox="0 0 1920 1080" width="1920" height="1080">
  <defs>
    <filter id="blur0" x="-50%" y="-50%" width="200%" height="200%">
      <feGaussianBlur in="SourceGraphic" stdDeviation="1"/>
    </filter>
    <filter id="blur1" x="-50%" y="-50%" width="200%" height="200%">
      <feGaussianBlur in="SourceGraphic" stdDeviation="3"/>
    </filter>
    <filter id="blur2" x="-50%" y="-50%" width="200%" height="200%">
      <feGaussianBlur in="SourceGraphic" stdDeviation="5"/>
    </filter>
    <filter id="blur3" x="-50%" y="-50%" width="200%" height="200%">
      <feGaussianBlur in="SourceGraphic" stdDeviation="7"/>
    </filter>
    <filter id="blur4" x="-50%" y="-50%" width="200%" height="200%">
      <feGaussianBlur in="SourceGraphic" stdDeviation="9"/>
    </filter>
    <filter id="shadow" x="-50%" y="-50%" width="200%" height="200%">
      <feGaussianBlur in="SourceAlpha" stdDeviation="3" result="blur"/>
      <feOffset in="blur" dx="4" dy="4" result="offsetBlur"/>
      <feMerge>
        <feMergeNode in="offsetBlur"/>
        <feMergeNode in="SourceGraphic"/>
      </feMerge>
    </filter>
    <linearGradient id="lgrad0" x1="0%" y1="0%" x2="95.3%" y2="28.9%">
      <stop offset="0%" stop-color="#FF6B6B"/>
      <stop offset="33%" stop-color="#4ECDC4"/>
      <stop offset="66%" stop-color="#45B7D1"/>
      <stop offset="100%" stop-color="#96E6A1"/>
    </linearGradient>
    <linearGradient id="lgrad1" x1="0%" y1="0%" x2="99.8%" y2="54.4%">
      <stop offset="0%" stop-color="#FFE66D"/>
      <stop offset="33%" stop-color="#FF6B6B"/>
      <stop offset="66%" stop-color="#C44D58"/>
      <stop offset="100%" stop-color="#8B0000"/>
    </linearGradient>
    <linearGradient id="lgrad2" x1="0%" y1="0%" x2="91.0%" y2="78.7%">
      <stop offset="0%" stop-color="#4169E1"/>
      <stop offset="33%" stop-color="#7B68EE"/>
      <stop offset="66%" stop-color="#9370DB"/>
      <stop offset="100%" stop-color="#FFD700"/>
    </linearGradient>
    <linearGradient id="lgrad3" x1="0%" y1="0%" x2="71.1%" y2="95.3%">
      <stop offset="0%" stop-color="#32CD32"/>
      <stop offset="33%" stop-color="#228B22"/>
      <stop offset="66%" stop-color="#006400"/>
      <stop offset="100%" stop-color="#ADFF2F"/>
    </linearGradient>
    <linearGradient id="lgrad4" x1="0%" y1="0%" x2="45.6%" y2="99.8%">
      <stop offset="0%" stop-color="#FF1493"/>
      <stop offset="33%" stop-color="#FF69B4"/>
      <stop offset="66%" stop-color="#FFB6C1"/>
      <stop offset="100%" stop-color="#FFC0CB"/>
    </linearGradient>
    <radialGradient id="rgrad0" cx="44.0%" cy="66.0%" r="60%">
      <stop offset="0%" stop-color="#FF6B6B" stop-opacity="1"/>
      <stop offset="50%" stop-color="#4ECDC4" stop-opacity="0.8"/>
      <stop offset="100%" stop-color="#45B7D1" stop-opacity="0.6"/>
    </radialGradient>
    <radialGradient id="rgrad1" cx="54.0%" cy="34.0%" r="60%">
      <stop offset="0%" stop-color="#FFE66D" stop-opacity="1"/>
      <stop offset="50%" stop-color="#FF6B6B" stop-opacity="0.8"/>
      <stop offset="100%" stop-color="#C44D58" stop-opacity="0.6"/>
    </radialGradient>
    <radialGradient id="rgrad2" cx="64.0%" cy="42.0%" r="60%">
      <stop offset="0%" stop-color="#4169E1" stop-opacity="1"/>
      <stop offset="50%" stop-color="#7B68EE" stop-opacity="0.8"/>
      <stop offset="100%" stop-color="#9370DB" stop-opacity="0.6"/>
    </radialGradient>
    <radialGradient id="rgrad3" cx="34.0%" cy="50.0%" r="60%">
      <stop offset="0%" stop-color="#32CD32" stop-opacity="1"/>
      <stop offset="50%" stop-color="#228B22" stop-opacity="0.8"/>
      <stop offset="100%" stop-color="#006400" stop-opacity="0.6"/>
    </radialGradient>
    <radialGradient id="rgrad4" cx="44.0%" cy="58.0%" r="60%">
      <stop offset="0%" stop-color="#FF1493" stop-opacity="1"/>
      <stop offset="50%" stop-color="#FF69B4" stop-opacity="0.8"/>
      <stop offset="100%" stop-color="#FFB6C1" stop-opacity="0.6"/>
    </radialGradient>
    <clipPath id="clipCircle">
      <circle cx="0" cy="0" r="50"/>
    </clipPath>
    <clipPath id="clipStar">
      <path d="M0.0,-50.0 L14.7,-20.2 L47.6,-15.5 L23.8,7.7 L29.4,40.5 L0.0,25.0 L-29.4,40.5 L-23.8,7.7 L-47.6,-15.5 L-14.7,-20.2Z"/>
    </clipPath>
    <clipPath id="clipHex">
      <path d="M39.0,22.5 L0.0,45.0 L-39.0,22.5 L-39.0,-22.5 L-0.0,-45.0 L39.0,-22.5Z"/>
    </clipPath>
    <clipPath id="clipRect">
      <rect x="-40" y="-30" width="80" height="60" rx="10"/>
    </clipPath>
    <clipPath id="clipDynamic">
      <circle cx="0" cy="0" r="27.8"/>
    </clipPath>
    <mask id="maskGradient" maskContentUnits="objectBoundingBox">
      <rect x="0" y="0" width="1" height="1" fill="url(#maskGrad)"/>
    </mask>
    <linearGradient id="maskGrad" x1="0%" y1="0%" x2="100%" y2="100%">
      <stop offset="0%" stop-color="white"/>
      <stop offset="100%" stop-color="black"/>
    </linearGradient>
    <mask id="maskCircleFade">
      <circle cx="0" cy="0" r="60" fill="white"/>
      <circle cx="0" cy="0" r="30" fill="black"/>
    </mask>
    <mask id="maskStripes">
      <rect x="-50" y="-50" width="100" height="100" fill="white"/>
      <rect x="-50" y="-40" width="100" height="10" fill="black"/>
      <rect x="-50" y="-20" width="100" height="10" fill="black"/>
      <rect x="-50" y="0" width="100" height="10" fill="black"/>
      <rect x="-50" y="20" width="100" height="10" fill="black"/>
      <rect x="-50" y="40" width="100" height="10" fill="black"/>
    </mask>
    <mask id="maskDynamic">
      <rect x="-60" y="-60" width="120" height="120" fill="white" fill-opacity="0.98"/>
      <circle cx="0" cy="0" r="25" fill="white"/>
    </mask>
  </defs>
  <rect width="1920" height="1080" fill="url(#lgrad0)"/>
  <g transform="translate(85.6, 78.1)">
      <g transform="translate(-2.40,-3.51) rotate(4.84) scale(1.000)">
        <g transform="translate(-4.21,-2.79) rotate(9.00) scale(0.980)">
        <g transform="translate(-4.99,-1.81) rotate(11.94) scale(0.960)">
        <g transform="translate(-4.55,-0.68) rotate(13.20) scale(0.940)" clip-path="url(#clipCircle)">
        <g transform="translate(-2.99,0.52) rotate(12.44) scale(0.920)">
        <g transform="translate(-0.71,1.66) rotate(9.46) scale(0.900)">
        <g transform="translate(1.75,2.67) rotate(4.22) scale(0.880)">
        <path d="M0.0,-74.5 L21.9,-30.1 L70.9,-23.0 L35.4,11.5 L43.8,60.3 L0.0,37.3 L-43.8,60.3 L-35.4,11.5 L-70.9,-23.0 L-21.9,-30.1Z" fill="url(#lgrad0)" filter="url(#blur0)" opacity="0.89"/>
      </g>
      </g>
      </g>
      </g>
      </g>
      </g>
      </g>
  </g>
  <g transform="translate(294.8, 90.9)">
      <g transform="translate(-4.99,-0.28) rotate(4.84) scale(1.000)">
        <g transform="translate(-4.55,0.91) rotate(9.00) scale(0.980)">
        <g transform="translate(-2.99,2.02) rotate(11.94) scale(0.960)">
        <g transform="translate(-0.71,2.95) rotate(13.20) scale(0.940)">
        <g transform="translate(1.75,3.62) rotate(12.44) scale(0.920)">
        <g transform="translate(3.78,3.96) rotate(9.46) scale(0.900)" mask="url(#maskCircleFade)">
        <g transform="translate(4.89,3.95) rotate(4.22) scale(0.880)">
        <rect x="-32.4" y="-32.4" width="64.7" height="64.7" rx="16.2" fill="url(#rgrad1)" filter="url(#shadow)" opacity="0.84"/>
        <circle cx="0" cy="0" r="21.6" fill="url(#rgrad2)" opacity="0.59"/>
      </g>
      </g>
      </g>
      </g>
      </g>
      </g>
      </g>
  </g>
  <g transform="translate(510.1, 108.1)">
      <g transform="translate(-2.99,3.20) rotate(4.84) scale(1.000)">
        <g transform="translate(-0.71,3.77) rotate(9.00) scale(0.980)">
        <g transform="translate(1.75,4.00) rotate(11.94) scale(0.960)">
        <g transform="translate(3.78,3.87) rotate(13.20) scale(0.940)">
        <g transform="translate(4.89,3.39) rotate(12.44) scale(0.920)">
        <g transform="translate(4.79,2.61) rotate(9.46) scale(0.900)">
        <g transform="translate(3.53,1.60) rotate(4.22) scale(0.880)">
        <path d="M26.3,15.2 L0.0,30.3 L-26.3,15.2 L-26.3,-15.2 L-0.0,-30.3 L26.3,-15.2Z" fill="url(#rgrad2)" filter="url(#blur2)" opacity="0.76"/>
        <ellipse cx="0" cy="0" rx="12.6" ry="8.4" fill="#FFFFFF" opacity="0.38"/>
      </g>
      </g>
      </g>
      </g>
      </g>
      </g>
      </g>
  </g>
  <g transform="translate(732.7, 121.4)">
      <g transform="translate(1.75,3.75) rotate(4.84) scale(1.000)">
        <g transform="translate(3.78,3.16) rotate(9.00) scale(0.980)">
        <g transform="translate(4.89,2.30) rotate(11.94) scale(0.960)">
        <g transform="translate(4.79,1.23) rotate(13.20) scale(0.940)" clip-path="url(#clipRect)">
        <g transform="translate(3.53,0.05) rotate(12.44) scale(0.920)">
        <g transform="translate(1.40,-1.13) rotate(9.46) scale(0.900)">
        <g transform="translate(-1.08,-2.22) rotate(4.22) scale(0.880)">
        <circle cx="0" cy="0" r="22.5" fill="url(#lgrad3)" filter="url(#shadow)" opacity="0.66"/>
        <text x="0" y="5" text-anchor="middle" font-family="Arial, sans-serif" font-size="14" fill="#FFFFFF" opacity="0.66">580</text>
      </g>
      </g>
      </g>
      </g>
      </g>
      </g>
      </g>
  </g>
  <g transform="translate(962.0, 124.7)">
      <g transform="translate(4.89,0.84) rotate(4.84) scale(1.000)">
        <g transform="translate(4.79,-0.35) rotate(9.00) scale(0.980)">
        <g transform="translate(3.53,-1.51) rotate(11.94) scale(0.960)">
        <g transform="translate(1.40,-2.54) rotate(13.20) scale(0.940)">
        <g transform="translate(-1.08,-3.34) rotate(12.44) scale(0.920)">
        <g transform="translate(-3.28,-3.84) rotate(9.46) scale(0.900)" mask="url(#maskGradient)">
        <g transform="translate(-4.69,-4.00) rotate(4.22) scale(0.880)">
        <path d="M0.0,-53.3 L15.7,-21.6 L50.7,-16.5 L25.3,8.2 L31.3,43.1 L0.0,26.7 L-31.3,43.1 L-25.3,8.2 L-50.7,-16.5 L-15.7,-21.6Z" fill="url(#rgrad4)" filter="url(#blur4)" opacity="0.55"/>
      </g>
      </g>
      </g>
      </g>
      </g>
      </g>
      </g>
  </g>
  <g transform="translate(1195.8, 116.3)">
      <g transform="translate(3.53,-2.83) rotate(4.84) scale(1.000)">
        <g transform="translate(1.40,-3.54) rotate(9.00) scale(0.980)">
        <g transform="translate(-1.08,-3.93) rotate(11.94) scale(0.960)">
        <g transform="translate(-3.28,-3.97) rotate(13.20) scale(0.940)">
        <g transform="translate(-4.69,-3.66) rotate(12.44) scale(0.920)">
        <g transform="translate(-4.95,-3.02) rotate(9.46) scale(0.900)">
        <g transform="translate(-3.99,-2.10) rotate(4.22) scale(0.880)">
        <rect x="-33.8" y="-33.8" width="67.7" height="67.7" rx="16.9" fill="url(#rgrad0)" filter="url(#shadow)" opacity="0.43"/>
        <circle cx="0" cy="0" r="22.6" fill="url(#rgrad1)" opacity="0.30"/>
      </g>
      </g>
      </g>
      </g>
      </g>
      </g>
      </g>
  </g>
  <g transform="translate(1430.5, 100.3)">
      <g transform="translate(-1.08,-3.91) rotate(4.84) scale(1.000)">
        <g transform="translate(-3.28,-3.48) rotate(9.00) scale(0.980)">
        <g transform="translate(-4.69,-2.74) rotate(11.94) scale(0.960)">
        <g transform="translate(-4.95,-1.75) rotate(13.20) scale(0.940)" clip-path="url(#clipStar)">
        <g transform="translate(-3.99,-0.61) rotate(12.44) scale(0.920)">
        <g transform="translate(-2.06,0.58) rotate(9.46) scale(0.900)">
        <g transform="translate(0.38,1.73) rotate(4.22) scale(0.880)">
        <path d="M39.0,22.5 L0.0,45.0 L-39.0,22.5 L-39.0,-22.5 L-0.0,-45.0 L39.0,-22.5Z" fill="url(#lgrad1)" filter="url(#blur1)" opacity="0.32"/>
        <ellipse cx="0" cy="0" rx="18.7" ry="12.5" fill="#FFFFFF" opacity="0.16"/>
      </g>
      </g>
      </g>
      </g>
      </g>
      </g>
      </g>
  </g>
  <g transform="translate(1662.7, 84.1)">
      <g transform="translate(-4.69,-1.39) rotate(4.84) scale(1.000)">
        <g transform="translate(-4.95,-0.22) rotate(9.00) scale(0.980)">
        <g transform="translate(-3.99,0.97) rotate(11.94) scale(0.960)">
        <g transform="translate(-2.06,2.08) rotate(13.20) scale(0.940)">
        <g transform="translate(0.38,2.99) rotate(12.44) scale(0.920)">
        <g transform="translate(2.72,3.64) rotate(9.46) scale(0.900)" mask="url(#maskDynamic)">
        <g transform="translate(4.40,3.97) rotate(4.22) scale(0.880)">
        <circle cx="0" cy="0" r="34.3" fill="url(#rgrad2)" filter="url(#shadow)" opacity="0.22"/>
        <text x="0" y="5" text-anchor="middle" font-family="Arial, sans-serif" font-size="14" fill="#FFFFFF" opacity="0.22">580</text>
      </g>
      </g>
      </g>
      </g>
      </g>
      </g>
      </g>
  </g>
  <g transform="translate(129.3, 355.4)">
      <g transform="translate(-3.99,2.41) rotate(4.84) scale(1.000)">
        <g transform="translate(-2.06,3.24) rotate(9.00) scale(0.980)">
        <g transform="translate(0.38,3.79) rotate(11.94) scale(0.960)">
        <g transform="translate(2.72,4.00) rotate(13.20) scale(0.940)">
        <g transform="translate(4.40,3.85) rotate(12.44) scale(0.920)">
        <g transform="translate(5.00,3.36) rotate(9.46) scale(0.900)">
        <g transform="translate(4.38,2.56) rotate(4.22) scale(0.880)">
        <path d="M0.0,-54.2 L15.9,-21.9 L51.6,-16.8 L25.8,8.4 L31.9,43.9 L0.0,27.1 L-31.9,43.9 L-25.8,8.4 L-51.6,-16.8 L-15.9,-21.9Z" fill="url(#rgrad3)" filter="url(#blur3)" opacity="0.15"/>
      </g>
      </g>
      </g>
      </g>
      </g>
      </g>
      </g>
  </g>
  <g transform="translate(348.8, 358.3)">
      <g transform="translate(0.38,3.99) rotate(4.84) scale(1.000)">
        <g transform="translate(2.72,3.72) rotate(9.00) scale(0.980)">
        <g transform="translate(4.40,3.12) rotate(11.94) scale(0.960)">
        <g transform="translate(5.00,2.24) rotate(13.20) scale(0.940)" clip-path="url(#clipDynamic)">
        <g transform="translate(4.38,1.17) rotate(12.44) scale(0.920)">
        <g transform="translate(2.68,-0.02) rotate(9.46) scale(0.900)">
        <g transform="translate(0.33,-1.20) rotate(4.22) scale(0.880)">
        <rect x="-22.6" y="-22.6" width="45.2" height="45.2" rx="11.3" fill="url(#lgrad4)" filter="url(#shadow)" opacity="0.11"/>
        <circle cx="0" cy="0" r="15.1" fill="url(#rgrad0)" opacity="0.08"/>
      </g>
      </g>
      </g>
      </g>
      </g>
      </g>
      </g>
  </g>
  <g transform="translate(561.2, 371.3)">
      <g transform="translate(4.40,1.90) rotate(4.84) scale(1.000)">
        <g transform="translate(5.00,0.78) rotate(9.00) scale(0.980)">
        <g transform="translate(4.38,-0.42) rotate(11.94) scale(0.960)">
        <g transform="translate(2.68,-1.57) rotate(13.20) scale(0.940)">
        <g transform="translate(0.33,-2.59) rotate(12.44) scale(0.920)">
        <g transform="translate(-2.10,-3.38) rotate(9.46) scale(0.900)" mask="url(#maskStripes)">
        <g transform="translate(-4.02,-3.86) rotate(4.22) scale(0.880)">
        <path d="M25.9,14.9 L0.0,29.9 L-25.9,14.9 L-25.9,-14.9 L-0.0,-29.9 L25.9,-14.9Z" fill="url(#rgrad0)" filter="url(#blur0)" opacity="0.10"/>
        <ellipse cx="0" cy="0" rx="12.5" ry="8.3" fill="#FFFFFF" opacity="0.05"/>
      </g>
      </g>
      </g>
      </g>
      </g>
      </g>
      </g>
  </g>
  <g transform="translate(768.4, 388.5)">
      <g transform="translate(4.38,-1.93) rotate(4.84) scale(1.000)">
        <g transform="translate(2.68,-2.88) rotate(9.00) scale(0.980)">
        <g transform="translate(0.33,-3.57) rotate(11.94) scale(0.960)">
        <g transform="translate(-2.10,-3.94) rotate(13.20) scale(0.940)">
        <g transform="translate(-4.02,-3.96) rotate(12.44) scale(0.920)">
        <g transform="translate(-4.95,-3.63) rotate(9.46) scale(0.900)">
        <g transform="translate(-4.67,-2.97) rotate(4.22) scale(0.880)">
        <circle cx="0" cy="0" r="31.9" fill="url(#rgrad1)" filter="url(#shadow)" opacity="0.13"/>
        <text x="0" y="5" text-anchor="middle" font-family="Arial, sans-serif" font-size="14" fill="#FFFFFF" opacity="0.13">580</text>
      </g>
      </g>
      </g>
      </g>
      </g>
      </g>
      </g>
  </g>
  <g transform="translate(973.5, 401.6)">
      <g transform="translate(0.33,-3.99) rotate(4.84) scale(1.000)">
        <g transform="translate(-2.10,-3.89) rotate(9.00) scale(0.980)">
        <g transform="translate(-4.02,-3.44) rotate(11.94) scale(0.960)">
        <g transform="translate(-4.95,-2.69) rotate(13.20) scale(0.940)" clip-path="url(#clipHex)">
        <g transform="translate(-4.67,-1.69) rotate(12.44) scale(0.920)">
        <g transform="translate(-3.25,-0.55) rotate(9.46) scale(0.900)">
        <g transform="translate(-1.03,0.65) rotate(4.22) scale(0.880)">
        <path d="M0.0,-74.3 L21.8,-30.0 L70.6,-22.9 L35.3,11.5 L43.6,60.1 L0.0,37.1 L-43.6,60.1 L-35.3,11.5 L-70.6,-22.9 L-21.8,-30.0Z" fill="url(#lgrad2)" filter="url(#blur2)" opacity="0.20"/>
      </g>
      </g>
      </g>
      </g>
      </g>
      </g>
      </g>
  </g>
  <g transform="translate(1180.3, 404.6)">
      <g transform="translate(-4.02,-2.38) rotate(4.84) scale(1.000)">
        <g transform="translate(-4.95,-1.32) rotate(9.00) scale(0.980)">
        <g transform="translate(-4.67,-0.15) rotate(11.94) scale(0.960)">
        <g transform="translate(-3.25,1.04) rotate(13.20) scale(0.940)">
        <g transform="translate(-1.03,2.13) rotate(12.44) scale(0.920)">
        <g transform="translate(1.44,3.04) rotate(9.46) scale(0.900)" mask="url(#maskCircleFade)">
        <g transform="translate(3.56,3.67) rotate(4.22) scale(0.880)">
        <rect x="-35.8" y="-35.8" width="71.6" height="71.6" rx="17.9" fill="url(#rgrad3)" filter="url(#shadow)" opacity="0.29"/>
        <circle cx="0" cy="0" r="23.9" fill="url(#rgrad4)" opacity="0.20"/>
      </g>
      </g>
      </g>
      </g>
      </g>
      </g>
      </g>
  </g>
  <g transform="translate(1391.9, 396.0)">
      <g transform="translate(-4.67,1.42) rotate(4.84) scale(1.000)">
        <g transform="translate(-3.25,2.46) rotate(9.00) scale(0.980)">
        <g transform="translate(-1.03,3.28) rotate(11.94) scale(0.960)">
        <g transform="translate(1.44,3.81) rotate(13.20) scale(0.940)">
        <g transform="translate(3.56,4.00) rotate(12.44) scale(0.920)">
        <g transform="translate(4.81,3.83) rotate(9.46) scale(0.900)">
        <g transform="translate(4.88,3.32) rotate(4.22) scale(0.880)">
        <path d="M30.3,17.5 L0.0,35.0 L-30.3,17.5 L-30.3,-17.5 L-0.0,-35.0 L30.3,-17.5Z" fill="url(#rgrad4)" filter="url(#blur4)" opacity="0.40"/>
        <ellipse cx="0" cy="0" rx="14.6" ry="9.7" fill="#FFFFFF" opacity="0.20"/>
      </g>
      </g>
      </g>
      </g>
      </g>
      </g>
      </g>
  </g>
  <g transform="translate(1610.3, 379.9)">
      <g transform="translate(-1.03,3.91) rotate(4.84) scale(1.000)">
        <g transform="translate(1.44,3.98) rotate(9.00) scale(0.980)">
        <g transform="translate(3.56,3.70) rotate(11.94) scale(0.960)">
        <g transform="translate(4.81,3.08) rotate(13.20) scale(0.940)" clip-path="url(#clipCircle)">
        <g transform="translate(4.88,2.19) rotate(12.44) scale(0.920)">
        <g transform="translate(3.75,1.10) rotate(9.46) scale(0.900)">
        <g transform="translate(1.71,-0.09) rotate(4.22) scale(0.880)">
        <circle cx="0" cy="0" r="23.3" fill="url(#lgrad0)" filter="url(#shadow)" opacity="0.52"/>
        <text x="0" y="5" text-anchor="middle" font-family="Arial, sans-serif" font-size="14" fill="#FFFFFF" opacity="0.52">580</text>
      </g>
      </g>
      </g>
      </g>
      </g>
      </g>
      </g>
  </g>
  <g transform="translate(76.0, 643.8)">
      <g transform="translate(3.56,2.81) rotate(4.84) scale(1.000)">
        <g transform="translate(4.81,1.84) rotate(9.00) scale(0.980)">
        <g transform="translate(4.88,0.71) rotate(11.94) scale(0.960)">
        <g transform="translate(3.75,-0.48) rotate(13.20) scale(0.940)">
        <g transform="translate(1.71,-1.64) rotate(12.44) scale(0.920)">
        <g transform="translate(-0.75,-2.64) rotate(9.46) scale(0.900)" mask="url(#maskGradient)">
        <g transform="translate(-3.03,-3.41) rotate(4.22) scale(0.880)">
        <path d="M0.0,-47.2 L13.9,-19.1 L44.8,-14.6 L22.4,7.3 L27.7,38.1 L0.0,23.6 L-27.7,38.1 L-22.4,7.3 L-44.8,-14.6 L-13.9,-19.1Z" fill="url(#rgrad1)" filter="url(#blur1)" opacity="0.63"/>
      </g>
      </g>
      </g>
      </g>
      </g>
      </g>
      </g>
  </g>
  <g transform="translate(307.6, 635.3)">
      <g transform="translate(4.88,-0.88) rotate(4.84) scale(1.000)">
        <g transform="translate(3.75,-1.99) rotate(9.00) scale(0.980)">
        <g transform="translate(1.71,-2.93) rotate(11.94) scale(0.960)">
        <g transform="translate(-0.75,-3.60) rotate(13.20) scale(0.940)">
        <g transform="translate(-3.03,-3.96) rotate(12.44) scale(0.920)">
        <g transform="translate(-4.56,-3.95) rotate(9.46) scale(0.900)">
        <g transform="translate(-4.98,-3.60) rotate(4.22) scale(0.880)">
        <rect x="-29.8" y="-29.8" width="59.6" height="59.6" rx="14.9" fill="url(#rgrad2)" filter="url(#shadow)" opacity="0.74"/>
        <circle cx="0" cy="0" r="19.9" fill="url(#rgrad3)" opacity="0.52"/>
      </g>
      </g>
      </g>
      </g>
      </g>
      </g>
      </g>
  </g>
  <g transform="translate(542.3, 638.5)">
      <g transform="translate(1.71,-3.76) rotate(4.84) scale(1.000)">
        <g transform="translate(-0.75,-4.00) rotate(9.00) scale(0.980)">
        <g transform="translate(-3.03,-3.88) rotate(11.94) scale(0.960)">
        <g transform="translate(-4.56,-3.41) rotate(13.20) scale(0.940)" clip-path="url(#clipRect)">
        <g transform="translate(-4.98,-2.64) rotate(12.44) scale(0.920)">
        <g transform="translate(-4.18,-1.63) rotate(9.46) scale(0.900)">
        <g transform="translate(-2.36,-0.48) rotate(4.22) scale(0.880)">
        <path d="M37.6,21.7 L0.0,43.4 L-37.6,21.7 L-37.6,-21.7 L-0.0,-43.4 L37.6,-21.7Z" fill="url(#lgrad3)" filter="url(#blur3)" opacity="0.82"/>
        <ellipse cx="0" cy="0" rx="18.1" ry="12.1" fill="#FFFFFF" opacity="0.41"/>
      </g>
      </g>
      </g>
      </g>
      </g>
      </g>
      </g>
  </g>
  <g transform="translate(776.3, 651.7)">
      <g transform="translate(-3.03,-3.18) rotate(4.84) scale(1.000)">
        <g transform="translate(-4.56,-2.33) rotate(9.00) scale(0.980)">
        <g transform="translate(-4.98,-1.26) rotate(11.94) scale(0.960)">
        <g transform="translate(-4.18,-0.08) rotate(13.20) scale(0.940)">
        <g transform="translate(-2.36,1.10) rotate(12.44) scale(0.920)">
        <g transform="translate(0.04,2.19) rotate(9.46) scale(0.900)" mask="url(#maskDynamic)">
        <g transform="translate(2.44,3.08) rotate(4.22) scale(0.880)">
        <circle cx="0" cy="0" r="36.9" fill="url(#rgrad4)" filter="url(#shadow)" opacity="0.88"/>
        <text x="0" y="5" text-anchor="middle" font-family="Arial, sans-serif" font-size="14" fill="#FFFFFF" opacity="0.88">580</text>
      </g>
      </g>
      </g>
      </g>
      </g>
      </g>
      </g>
  </g>
  <g transform="translate(1006.4, 668.9)">
      <g transform="translate(-4.98,0.32) rotate(4.84) scale(1.000)">
        <g transform="translate(-4.18,1.48) rotate(9.00) scale(0.980)">
        <g transform="translate(-2.36,2.51) rotate(11.94) scale(0.960)">
        <g transform="translate(0.04,3.32) rotate(13.20) scale(0.940)">
        <g transform="translate(2.44,3.83) rotate(12.44) scale(0.920)">
        <g transform="translate(4.23,4.00) rotate(9.46) scale(0.900)">
        <g transform="translate(4.99,3.81) rotate(4.22) scale(0.880)">
        <path d="M0.0,-62.5 L18.4,-25.3 L59.5,-19.3 L29.7,9.7 L36.8,50.6 L0.0,31.3 L-36.8,50.6 L-29.7,9.7 L-59.5,-19.3 L-18.4,-25.3Z" fill="url(#rgrad0)" filter="url(#blur0)" opacity="0.90"/>
      </g>
      </g>
      </g>
      </g>
      </g>
      </g>
      </g>
  </g>
  <g transform="translate(1230.0, 681.8)">
      <g transform="translate(-2.36,3.53) rotate(4.84) scale(1.000)">
        <g transform="translate(0.04,3.93) rotate(9.00) scale(0.980)">
        <g transform="translate(2.44,3.98) rotate(11.94) scale(0.960)">
        <g transform="translate(4.23,3.67) rotate(13.20) scale(0.940)" clip-path="url(#clipStar)">
        <g transform="translate(4.99,3.04) rotate(12.44) scale(0.920)">
        <g transform="translate(4.53,2.13) rotate(9.46) scale(0.900)">
        <g transform="translate(2.96,1.04) rotate(4.22) scale(0.880)">
        <rect x="-24.5" y="-24.5" width="48.9" height="48.9" rx="12.2" fill="url(#lgrad1)" filter="url(#shadow)" opacity="0.89"/>
        <circle cx="0" cy="0" r="16.3" fill="url(#rgrad2)" opacity="0.62"/>
      </g>
      </g>
      </g>
      </g>
      </g>
      </g>
      </g>
  </g>
  <g transform="translate(1446.3, 684.5)">
      <g transform="translate(2.44,3.49) rotate(4.84) scale(1.000)">
        <g transform="translate(4.23,2.76) rotate(9.00) scale(0.980)">
        <g transform="translate(4.99,1.78) rotate(11.94) scale(0.960)">
        <g transform="translate(4.53,0.64) rotate(13.20) scale(0.940)">
        <g transform="translate(2.96,-0.55) rotate(12.44) scale(0.920)">
        <g transform="translate(0.66,-1.70) rotate(9.46) scale(0.900)" mask="url(#maskStripes)">
        <g transform="translate(-1.80,-2.69) rotate(4.22) scale(0.880)">
        <path d="M23.6,13.6 L0.0,27.3 L-23.6,13.6 L-23.6,-13.6 L-0.0,-27.3 L23.6,-13.6Z" fill="url(#rgrad2)" filter="url(#blur2)" opacity="0.84"/>
        <ellipse cx="0" cy="0" rx="11.4" ry="7.6" fill="#FFFFFF" opacity="0.42"/>
      </g>
      </g>
      </g>
      </g>
      </g>
      </g>
      </g>
  </g>
  <g transform="translate(1656.1, 675.7)">
      <g transform="translate(4.99,0.25) rotate(4.84) scale(1.000)">
        <g transform="translate(4.53,-0.94) rotate(9.00) scale(0.980)">
        <g transform="translate(2.96,-2.05) rotate(11.94) scale(0.960)">
        <g transform="translate(0.66,-2.97) rotate(13.20) scale(0.940)">
        <g transform="translate(-1.80,-3.63) rotate(12.44) scale(0.920)">
        <g transform="translate(-3.81,-3.96) rotate(9.46) scale(0.900)">
        <g transform="translate(-4.90,-3.94) rotate(4.22) scale(0.880)">
        <circle cx="0" cy="0" r="27.7" fill="url(#rgrad3)" filter="url(#shadow)" opacity="0.76"/>
        <text x="0" y="5" text-anchor="middle" font-family="Arial, sans-serif" font-size="14" fill="#FFFFFF" opacity="0.76">580</text>
      </g>
      </g>
      </g>
      </g>
      </g>
      </g>
      </g>
  </g>
  <g transform="translate(102.0, 939.5)">
      <g transform="translate(2.96,-3.23) rotate(4.84) scale(1.000)">
        <g transform="translate(0.66,-3.78) rotate(9.00) scale(0.980)">
        <g transform="translate(-1.80,-4.00) rotate(11.94) scale(0.960)">
        <g transform="translate(-3.81,-3.86) rotate(13.20) scale(0.940)" clip-path="url(#clipDynamic)">
        <g transform="translate(-4.90,-3.37) rotate(12.44) scale(0.920)">
        <g transform="translate(-4.78,-2.59) rotate(9.46) scale(0.900)">
        <g transform="translate(-3.50,-1.57) rotate(4.22) scale(0.880)">
        <path d="M0.0,-69.5 L20.4,-28.1 L66.1,-21.5 L33.1,10.7 L40.9,56.2 L0.0,34.8 L-40.9,56.2 L-33.1,10.7 L-66.1,-21.5 L-20.4,-28.1Z" fill="url(#lgrad4)" filter="url(#blur4)" opacity="0.66"/>
      </g>
      </g>
      </g>
      </g>
      </g>
      </g>
      </g>
  </g>
  <g transform="translate(252.1, 229.8)" mask="url(#maskGradient)">
    <ellipse cx="0" cy="0" rx="200" ry="150" fill="url(#rgrad0)" filter="url(#blur3)" opacity="0.3"/>
  </g>
  <g transform="translate(700.3, 271.0)" mask="url(#maskCircleFade)">
    <ellipse cx="0" cy="0" rx="200" ry="150" fill="url(#rgrad1)" filter="url(#blur3)" opacity="0.3"/>
  </g>
  <g transform="translate(1240.2, 325.9)" mask="url(#maskStripes)">
    <ellipse cx="0" cy="0" rx="200" ry="150" fill="url(#rgrad2)" filter="url(#blur3)" opacity="0.3"/>
  </g>
</svg>