<?xml version="1.0" encoding="UTF-8"?>
<svg xmlns="http://www.w3.org/2000/svg" viewBox="0 0 1920 1080" width="1920" height="1080">
  <defs>
    <filter id="blur0" x="-50%" y="-50%" width="200%" height="200%">
      <feGaussianBlur in="SourceGraphic" stdDeviation="1"/>
    </filter>
    <filter id="blur1" x="-50%" y="-50%" width="200%" height="200%">
      <feGaussianBlur in="SourceGraphic" stdDeviation="3"/>
    </filter>
    <filter id="blur2" x="-50%" y="-50%" width="200%" height="200%">
      <feGaussianBlur in="SourceGraphic" stdDeviation="5"/>
    </filter>
    <filter id="blur3" x="-50%" y="-50%" width="200%" height="200%">
      <feGaussianBlur in="SourceGraphic" stdDeviation="7"/>
    </filter>
    <filter id="blur4" x="-50%" y="-50%" width="200%" height="200%">
      <feGaussianBlur in="SourceGraphic" stdDeviation="9"/>
    </filter>
    <filter id="shadow" x="-50%" y="-50%" width="200%" height="200%">
      <feGaussianBlur in="SourceAlpha" stdDeviation="3" result="blur"/>
      <feOffset in="blur" dx="4" dy="4" result="offsetBlur"/>
      <feMerge>
        <feMergeNode in="offsetBlur"/>
        <feMergeNode in="SourceGraphic"/>
      </feMerge>
    </filter>
    <linearGradient id="lgrad0" x1="0%" y1="0%" x2="87.2%" y2="83.5%">
      <stop offset="0%" stop-color="#FF6B6B"/>
      <stop offset="33%" stop-color="#4ECDC4"/>
      <stop offset="66%" stop-color="#45B7D1"/>
      <stop offset="100%" stop-color="#96E6A1"/>
    </linearGradient>
    <linearGradient id="lgrad1" x1="0%" y1="0%" x2="65.5%" y2="97.6%">
      <stop offset="0%" stop-color="#FFE66D"/>
      <stop offset="33%" stop-color="#FF6B6B"/>
      <stop offset="66%" stop-color="#C44D58"/>
      <stop offset="100%" stop-color="#8B0000"/>
    </linearGradient>
    <linearGradient id="lgrad2" x1="0%" y1="0%" x2="39.6%" y2="98.9%">
      <stop offset="0%" stop-color="#4169E1"/>
      <stop offset="33%" stop-color="#7B68EE"/>
      <stop offset="66%" stop-color="#9370DB"/>
      <stop offset="100%" stop-color="#FFD700"/>
    </linearGradient>
    <linearGradient id="lgrad3" x1="0%" y1="0%" x2="16.5%" y2="87.2%">
      <stop offset="0%" stop-color="#32CD32"/>
      <stop offset="33%" stop-color="#228B22"/>
      <stop offset="66%" stop-color="#006400"/>
      <stop offset="100%" stop-color="#ADFF2F"/>
    </linearGradient>
    <linearGradient id="lgrad4" x1="0%" y1="0%" x2="2.4%" y2="65.5%">
      <stop offset="0%" stop-color="#FF1493"/>
      <stop offset="33%" stop-color="#FF69B4"/>
      <stop offset="66%" stop-color="#FFB6C1"/>
      <stop offset="100%" stop-color="#FFC0CB"/>
    </linearGradient>
    <radialGradient id="rgrad0" cx="44.2%" cy="52.8%" r="60%">
      <stop offset="0%" stop-color="#FF6B6B" stop-opacity="1"/>
      <stop offset="50%" stop-color="#4ECDC4" stop-opacity="0.8"/>
      <stop offset="100%" stop-color="#45B7D1" stop-opacity="0.6"/>
    </radialGradient>
    <radialGradient id="rgrad1" cx="54.2%" cy="60.8%" r="60%">
      <stop offset="0%" stop-color="#FFE66D" stop-opacity="1"/>
      <stop offset="50%" stop-color="#FF6B6B" stop-opacity="0.8"/>
      <stop offset="100%" stop-color="#C44D58" stop-opacity="0.6"/>
    </radialGradient>
    <radialGradient id="rgrad2" cx="64.2%" cy="68.8%" r="60%">
      <stop offset="0%" stop-color="#4169E1" stop-opacity="1"/>
      <stop offset="50%" stop-color="#7B68EE" stop-opacity="0.8"/>
      <stop offset="100%" stop-color="#9370DB" stop-opacity="0.6"/>
    </radialGradient>
    <radialGradient id="rgrad3" cx="34.2%" cy="36.8%" r="60%">
      <stop offset="0%" stop-color="#32CD32" stop-opacity="1"/>
      <stop offset="50%" stop-color="#228B22" stop-opacity="0.8"/>
      <stop offset="100%" stop-color="#006400" stop-opacity="0.6"/>
    </radialGradient>
    <radialGradient id="rgrad4" cx="44.2%" cy="44.8%" r="60%">
      <stop offset="0%" stop-color="#FF1493" stop-opacity="1"/>
      <stop offset="50%" stop-color="#FF69B4" stop-opacity="0.8"/>
      <stop offset="100%" stop-color="#FFB6C1" stop-opacity="0.6"/>
    </radialGradient>
    <clipPath id="clipCircle">
      <circle cx="0" cy="0" r="50"/>
    </clipPath>
    <clipPath id="clipStar">
      <path d="M0.0,-50.0 L14.7,-20.2 L47.6,-15.5 L23.8,7.7 L29.4,40.5 L0.0,25.0 L-29.4,40.5 L-23.8,7.7 L-47.6,-15.5 L-14.7,-20.2Z"/>
    </clipPath>
    <clipPath id="clipHex">
      <path d="M39.0,22.5 L0.0,45.0 L-39.0,22.5 L-39.0,-22.5 L-0.0,-45.0 L39.0,-22.5Z"/>
    </clipPath>
    <clipPath id="clipRect">
      <rect x="-40" y="-30" width="80" height="60" rx="10"/>
    </clipPath>
    <clipPath id="clipDynamic">
      <circle cx="0" cy="0" r="20.4"/>
    </clipPath>
    <mask id="maskGradient" maskContentUnits="objectBoundingBox">
      <rect x="0" y="0" width="1" height="1" fill="url(#maskGrad)"/>
    </mask>
    <linearGradient id="maskGrad" x1="0%" y1="0%" x2="100%" y2="100%">
      <stop offset="0%" stop-color="white"/>
      <stop offset="100%" stop-color="black"/>
    </linearGradient>
    <mask id="maskCircleFade">
      <circle cx="0" cy="0" r="60" fill="white"/>
      <circle cx="0" cy="0" r="30" fill="black"/>
    </mask>
    <mask id="maskStripes">
      <rect x="-50" y="-50" width="100" height="100" fill="white"/>
      <rect x="-50" y="-40" width="100" height="10" fill="black"/>
      <rect x="-50" y="-20" width="100" height="10" fill="black"/>
      <rect x="-50" y="0" width="100" height="10" fill="black"/>
      <rect x="-50" y="20" width="100" height="10" fill="black"/>
      <rect x="-50" y="40" width="100" height="10" fill="black"/>
    </mask>
    <mask id="maskDynamic">
      <rect x="-60" y="-60" width="120" height="120" fill="white" fill-opacity="0.85"/>
      <circle cx="0" cy="0" r="25" fill="white"/>
    </mask>
  </defs>
  <rect width="1920" height="1080" fill="url(#lgrad0)"/>
  <g transform="translate(70.8, 94.3)">
      <g transform="translate(-4.87,-0.90) rotate(3.91) scale(1.000)">
        <g transform="translate(-4.82,0.29) rotate(6.44) scale(0.980)">
        <g transform="translate(-3.58,1.45) rotate(7.18) scale(0.960)">
        <g transform="translate(-1.47,2.49) rotate(5.90) scale(0.940)" clip-path="url(#clipCircle)">
        <g transform="translate(1.00,3.30) rotate(2.48) scale(0.920)">
        <g transform="translate(3.23,3.82) rotate(-3.01) scale(0.900)">
        <g transform="translate(4.66,4.00) rotate(-10.36) scale(0.880)">
        <path d="M0.0,-71.7 L21.1,-29.0 L68.2,-22.2 L34.1,11.1 L42.2,58.0 L0.0,35.9 L-42.2,58.0 L-34.1,11.1 L-68.2,-22.2 L-21.1,-29.0Z" fill="url(#lgrad0)" filter="url(#blur0)" opacity="0.81"/>
      </g>
      </g>
      </g>
      </g>
      </g>
      </g>
      </g>
  </g>
  <g transform="translate(291.1, 111.4)">
      <g transform="translate(-3.58,2.79) rotate(3.91) scale(1.000)">
        <g transform="translate(-1.47,3.51) rotate(6.44) scale(0.980)">
        <g transform="translate(1.00,3.92) rotate(7.18) scale(0.960)">
        <g transform="translate(3.23,3.98) rotate(5.90) scale(0.940)">
        <g transform="translate(4.66,3.68) rotate(2.48) scale(0.920)">
        <g transform="translate(4.96,3.06) rotate(-3.01) scale(0.900)" mask="url(#maskCircleFade)">
        <g transform="translate(4.04,2.16) rotate(-10.36) scale(0.880)">
        <rect x="-29.2" y="-29.2" width="58.5" height="58.5" rx="14.6" fill="url(#rgrad1)" filter="url(#shadow)" opacity="0.73"/>
        <circle cx="0" cy="0" r="19.5" fill="url(#rgrad2)" opacity="0.51"/>
      </g>
      </g>
      </g>
      </g>
      </g>
      </g>
      </g>
  </g>
  <g transform="translate(518.5, 123.0)">
      <g transform="translate(1.00,3.92) rotate(3.91) scale(1.000)">
        <g transform="translate(3.23,3.51) rotate(6.44) scale(0.980)">
        <g transform="translate(4.66,2.78) rotate(7.18) scale(0.960)">
        <g transform="translate(4.96,1.81) rotate(5.90) scale(0.940)">
        <g transform="translate(4.04,0.68) rotate(2.48) scale(0.920)">
        <g transform="translate(2.13,-0.52) rotate(-3.01) scale(0.900)">
        <g transform="translate(-0.30,-1.67) rotate(-10.36) scale(0.880)">
        <path d="M24.2,14.0 L0.0,28.0 L-24.2,14.0 L-24.2,-14.0 L-0.0,-28.0 L24.2,-14.0Z" fill="url(#rgrad2)" filter="url(#blur2)" opacity="0.62"/>
        <ellipse cx="0" cy="0" rx="11.7" ry="7.8" fill="#FFFFFF" opacity="0.31"/>
      </g>
      </g>
      </g>
      </g>
      </g>
      </g>
      </g>
  </g>
  <g transform="translate(751.2, 123.9)">
      <g transform="translate(4.66,1.44) rotate(3.91) scale(1.000)">
        <g transform="translate(4.96,0.28) rotate(6.44) scale(0.980)">
        <g transform="translate(4.04,-0.91) rotate(7.18) scale(0.960)">
        <g transform="translate(2.13,-2.02) rotate(5.90) scale(0.940)" clip-path="url(#clipRect)">
        <g transform="translate(-0.30,-2.95) rotate(2.48) scale(0.920)">
        <g transform="translate(-2.65,-3.62) rotate(-3.01) scale(0.900)">
        <g transform="translate(-4.36,-3.96) rotate(-10.36) scale(0.880)">
        <circle cx="0" cy="0" r="23.5" fill="url(#lgrad3)" filter="url(#shadow)" opacity="0.50"/>
        <text x="0" y="5" text-anchor="middle" font-family="Arial, sans-serif" font-size="14" fill="#FFFFFF" opacity="0.50">714</text>
      </g>
      </g>
      </g>
      </g>
      </g>
      </g>
      </g>
  </g>
  <g transform="translate(986.0, 113.5)">
      <g transform="translate(4.04,-2.36) rotate(3.91) scale(1.000)">
        <g transform="translate(2.13,-3.21) rotate(6.44) scale(0.980)">
        <g transform="translate(-0.30,-3.77) rotate(7.18) scale(0.960)">
        <g transform="translate(-2.65,-4.00) rotate(5.90) scale(0.940)">
        <g transform="translate(-4.36,-3.87) rotate(2.48) scale(0.920)">
        <g transform="translate(-5.00,-3.39) rotate(-3.01) scale(0.900)" mask="url(#maskGradient)">
        <g transform="translate(-4.41,-2.61) rotate(-10.36) scale(0.880)">
        <path d="M0.0,-59.4 L17.5,-24.0 L56.5,-18.4 L28.2,9.2 L34.9,48.0 L0.0,29.7 L-34.9,48.0 L-28.2,9.2 L-56.5,-18.4 L-17.5,-24.0Z" fill="url(#rgrad4)" filter="url(#blur4)" opacity="0.38"/>
      </g>
      </g>
      </g>
      </g>
      </g>
      </g>
      </g>
  </g>
  <g transform="translate(1219.4, 96.7)">
      <g transform="translate(-0.30,-3.99) rotate(3.91) scale(1.000)">
        <g transform="translate(-2.65,-3.74) rotate(6.44) scale(0.980)">
        <g transform="translate(-4.36,-3.16) rotate(7.18) scale(0.960)">
        <g transform="translate(-5.00,-2.30) rotate(5.90) scale(0.940)">
        <g transform="translate(-4.41,-1.22) rotate(2.48) scale(0.920)">
        <g transform="translate(-2.75,-0.04) rotate(-3.01) scale(0.900)">
        <g transform="translate(-0.41,1.14) rotate(-10.36) scale(0.880)">
        <rect x="-36.1" y="-36.1" width="72.3" height="72.3" rx="18.1" fill="url(#rgrad0)" filter="url(#shadow)" opacity="0.27"/>
        <circle cx="0" cy="0" r="24.1" fill="url(#rgrad1)" opacity="0.19"/>
      </g>
      </g>
      </g>
      </g>
      </g>
      </g>
      </g>
  </g>
  <g transform="translate(1448.0, 81.5)">
      <g transform="translate(-4.36,-1.96) rotate(3.91) scale(1.000)">
        <g transform="translate(-5.00,-0.84) rotate(6.44) scale(0.980)">
        <g transform="translate(-4.41,0.35) rotate(7.18) scale(0.960)">
        <g transform="translate(-2.75,1.52) rotate(5.90) scale(0.940)" clip-path="url(#clipStar)">
        <g transform="translate(-0.41,2.54) rotate(2.48) scale(0.920)">
        <g transform="translate(2.03,3.34) rotate(-3.01) scale(0.900)">
        <g transform="translate(3.97,3.84) rotate(-10.36) scale(0.880)">
        <path d="M38.4,22.2 L0.0,44.3 L-38.4,22.2 L-38.4,-22.2 L-0.0,-44.3 L38.4,-22.2Z" fill="url(#lgrad1)" filter="url(#blur1)" opacity="0.19"/>
        <ellipse cx="0" cy="0" rx="18.5" ry="12.3" fill="#FFFFFF" opacity="0.09"/>
      </g>
      </g>
      </g>
      </g>
      </g>
      </g>
      </g>
  </g>
  <g transform="translate(1669.7, 75.0)">
      <g transform="translate(-4.41,1.88) rotate(3.91) scale(1.000)">
        <g transform="translate(-2.75,2.84) rotate(6.44) scale(0.980)">
        <g transform="translate(-0.41,3.54) rotate(7.18) scale(0.960)">
        <g transform="translate(2.03,3.93) rotate(5.90) scale(0.940)">
        <g transform="translate(3.97,3.97) rotate(2.48) scale(0.920)">
        <g transform="translate(4.94,3.66) rotate(-3.01) scale(0.900)" mask="url(#maskDynamic)">
        <g transform="translate(4.70,3.01) rotate(-10.36) scale(0.880)">
        <circle cx="0" cy="0" r="31.4" fill="url(#rgrad2)" filter="url(#shadow)" opacity="0.13"/>
        <text x="0" y="5" text-anchor="middle" font-family="Arial, sans-serif" font-size="14" fill="#FFFFFF" opacity="0.13">714</text>
      </g>
      </g>
      </g>
      </g>
      </g>
      </g>
      </g>
  </g>
  <g transform="translate(124.2, 360.2)">
      <g transform="translate(-0.41,3.99) rotate(3.91) scale(1.000)">
        <g transform="translate(2.03,3.91) rotate(6.44) scale(0.980)">
        <g transform="translate(3.97,3.48) rotate(7.18) scale(0.960)">
        <g transform="translate(4.94,2.73) rotate(5.90) scale(0.940)">
        <g transform="translate(4.70,1.75) rotate(2.48) scale(0.920)">
        <g transform="translate(3.31,0.61) rotate(-3.01) scale(0.900)">
        <g transform="translate(1.11,-0.59) rotate(-10.36) scale(0.880)">
        <path d="M0.0,-49.1 L14.4,-19.8 L46.7,-15.2 L23.3,7.6 L28.8,39.7 L0.0,24.5 L-28.8,39.7 L-23.3,7.6 L-46.7,-15.2 L-14.4,-19.8Z" fill="url(#rgrad3)" filter="url(#blur3)" opacity="0.10"/>
      </g>
      </g>
      </g>
      </g>
      </g>
      </g>
      </g>
  </g>
  <g transform="translate(332.8, 374.8)">
      <g transform="translate(3.97,2.43) rotate(3.91) scale(1.000)">
        <g transform="translate(4.94,1.38) rotate(6.44) scale(0.980)">
        <g transform="translate(4.70,0.21) rotate(7.18) scale(0.960)">
        <g transform="translate(3.31,-0.98) rotate(5.90) scale(0.940)" clip-path="url(#clipDynamic)">
        <g transform="translate(1.11,-2.08) rotate(2.48) scale(0.920)">
        <g transform="translate(-1.36,-3.00) rotate(-3.01) scale(0.900)">
        <g transform="translate(-3.50,-3.65) rotate(-10.36) scale(0.880)">
        <rect x="-22.7" y="-22.7" width="45.5" height="45.5" rx="11.4" fill="url(#lgrad4)" filter="url(#shadow)" opacity="0.11"/>
        <circle cx="0" cy="0" r="15.2" fill="url(#rgrad0)" opacity="0.08"/>
      </g>
      </g>
      </g>
      </g>
      </g>
      </g>
      </g>
  </g>
  <g transform="translate(538.2, 391.7)">
      <g transform="translate(4.70,-1.36) rotate(3.91) scale(1.000)">
        <g transform="translate(3.31,-2.41) rotate(6.44) scale(0.980)">
        <g transform="translate(1.11,-3.25) rotate(7.18) scale(0.960)">
        <g transform="translate(-1.36,-3.79) rotate(5.90) scale(0.940)">
        <g transform="translate(-3.50,-4.00) rotate(2.48) scale(0.920)">
        <g transform="translate(-4.78,-3.85) rotate(-3.01) scale(0.900)" mask="url(#maskStripes)">
        <g transform="translate(-4.89,-3.35) rotate(-10.36) scale(0.880)">
        <path d="M28.7,16.6 L0.0,33.1 L-28.7,16.6 L-28.7,-16.6 L-0.0,-33.1 L28.7,-16.6Z" fill="url(#rgrad0)" filter="url(#blur0)" opacity="0.15"/>
        <ellipse cx="0" cy="0" rx="13.8" ry="9.2" fill="#FFFFFF" opacity="0.08"/>
      </g>
      </g>
      </g>
      </g>
      </g>
      </g>
      </g>
  </g>
  <g transform="translate(744.1, 403.2)">
      <g transform="translate(1.11,-3.90) rotate(3.91) scale(1.000)">
        <g transform="translate(-1.36,-3.99) rotate(6.44) scale(0.980)">
        <g transform="translate(-3.50,-3.72) rotate(7.18) scale(0.960)">
        <g transform="translate(-4.78,-3.12) rotate(5.90) scale(0.940)">
        <g transform="translate(-4.89,-2.24) rotate(2.48) scale(0.920)">
        <g transform="translate(-3.81,-1.16) rotate(-3.01) scale(0.900)">
        <g transform="translate(-1.79,0.02) rotate(-10.36) scale(0.880)">
        <circle cx="0" cy="0" r="34.7" fill="url(#rgrad1)" filter="url(#shadow)" opacity="0.23"/>
        <text x="0" y="5" text-anchor="middle" font-family="Arial, sans-serif" font-size="14" fill="#FFFFFF" opacity="0.23">714</text>
      </g>
      </g>
      </g>
      </g>
      </g>
      </g>
      </g>
  </g>
  <g transform="translate(953.8, 403.7)">
      <g transform="translate(-3.50,-2.85) rotate(3.91) scale(1.000)">
        <g transform="translate(-4.78,-1.90) rotate(6.44) scale(0.980)">
        <g transform="translate(-4.89,-0.77) rotate(7.18) scale(0.960)">
        <g transform="translate(-3.81,0.42) rotate(5.90) scale(0.940)" clip-path="url(#clipHex)">
        <g transform="translate(-1.79,1.58) rotate(2.48) scale(0.920)">
        <g transform="translate(0.67,2.59) rotate(-3.01) scale(0.900)">
        <g transform="translate(2.97,3.38) rotate(-10.36) scale(0.880)">
        <path d="M0.0,-74.9 L22.0,-30.3 L71.3,-23.2 L35.6,11.6 L44.0,60.6 L0.0,37.5 L-44.0,60.6 L-35.6,11.6 L-71.3,-23.2 L-22.0,-30.3Z" fill="url(#lgrad2)" filter="url(#blur2)" opacity="0.33"/>
      </g>
      </g>
      </g>
      </g>
      </g>
      </g>
      </g>
  </g>
  <g transform="translate(1170.0, 393.1)">
      <g transform="translate(-4.89,0.82) rotate(3.91) scale(1.000)">
        <g transform="translate(-3.81,1.94) rotate(6.44) scale(0.980)">
        <g transform="translate(-1.79,2.89) rotate(7.18) scale(0.960)">
        <g transform="translate(0.67,3.57) rotate(5.90) scale(0.940)">
        <g transform="translate(2.97,3.95) rotate(2.48) scale(0.920)">
        <g transform="translate(4.53,3.96) rotate(-3.01) scale(0.900)" mask="url(#maskCircleFade)">
        <g transform="translate(4.99,3.63) rotate(-10.36) scale(0.880)">
        <rect x="-33.4" y="-33.4" width="66.7" height="66.7" rx="16.7" fill="url(#rgrad3)" filter="url(#shadow)" opacity="0.44"/>
        <circle cx="0" cy="0" r="22.2" fill="url(#rgrad4)" opacity="0.31"/>
      </g>
      </g>
      </g>
      </g>
      </g>
      </g>
      </g>
  </g>
  <g transform="translate(1393.5, 376.3)">
      <g transform="translate(-1.79,3.74) rotate(3.91) scale(1.000)">
        <g transform="translate(0.67,3.99) rotate(6.44) scale(0.980)">
        <g transform="translate(2.97,3.89) rotate(7.18) scale(0.960)">
        <g transform="translate(4.53,3.44) rotate(5.90) scale(0.940)">
        <g transform="translate(4.99,2.69) rotate(2.48) scale(0.920)">
        <g transform="translate(4.23,1.69) rotate(-3.01) scale(0.900)">
        <g transform="translate(2.43,0.54) rotate(-10.36) scale(0.880)">
        <path d="M27.2,15.7 L0.0,31.4 L-27.2,15.7 L-27.2,-15.7 L-0.0,-31.4 L27.2,-15.7Z" fill="url(#rgrad4)" filter="url(#blur4)" opacity="0.56"/>
        <ellipse cx="0" cy="0" rx="13.1" ry="8.7" fill="#FFFFFF" opacity="0.28"/>
      </g>
      </g>
      </g>
      </g>
      </g>
      </g>
      </g>
  </g>
  <g transform="translate(1623.5, 361.3)">
      <g transform="translate(2.97,3.22) rotate(3.91) scale(1.000)">
        <g transform="translate(4.53,2.38) rotate(6.44) scale(0.980)">
        <g transform="translate(4.99,1.32) rotate(7.18) scale(0.960)">
        <g transform="translate(4.23,0.14) rotate(5.90) scale(0.940)" clip-path="url(#clipCircle)">
        <g transform="translate(2.43,-1.04) rotate(2.48) scale(0.920)">
        <g transform="translate(0.03,-2.14) rotate(-3.01) scale(0.900)">
        <g transform="translate(-2.37,-3.04) rotate(-10.36) scale(0.880)">
        <circle cx="0" cy="0" r="22.5" fill="url(#lgrad0)" filter="url(#shadow)" opacity="0.68"/>
        <text x="0" y="5" text-anchor="middle" font-family="Arial, sans-serif" font-size="14" fill="#FFFFFF" opacity="0.68">714</text>
      </g>
      </g>
      </g>
      </g>
      </g>
      </g>
      </g>
  </g>
  <g transform="translate(97.5, 635.0)">
      <g transform="translate(4.99,-0.26) rotate(3.91) scale(1.000)">
        <g transform="translate(4.23,-1.42) rotate(6.44) scale(0.980)">
        <g transform="translate(2.43,-2.47) rotate(7.18) scale(0.960)">
        <g transform="translate(0.03,-3.29) rotate(5.90) scale(0.940)">
        <g transform="translate(-2.37,-3.81) rotate(2.48) scale(0.920)">
        <g transform="translate(-4.19,-4.00) rotate(-3.01) scale(0.900)" mask="url(#maskGradient)">
        <g transform="translate(-4.98,-3.83) rotate(-10.36) scale(0.880)">
        <path d="M0.0,-51.4 L15.1,-20.8 L48.9,-15.9 L24.5,7.9 L30.2,41.6 L0.0,25.7 L-30.2,41.6 L-24.5,7.9 L-48.9,-15.9 L-15.1,-20.8Z" fill="url(#rgrad1)" filter="url(#blur1)" opacity="0.78"/>
      </g>
      </g>
      </g>
      </g>
      </g>
      </g>
      </g>
  </g>
  <g transform="translate(332.2, 640.5)">
      <g transform="translate(2.43,-3.50) rotate(3.91) scale(1.000)">
        <g transform="translate(0.03,-3.91) rotate(6.44) scale(0.980)">
        <g transform="translate(-2.37,-3.98) rotate(7.18) scale(0.960)">
        <g transform="translate(-4.19,-3.69) rotate(5.90) scale(0.940)">
        <g transform="translate(-4.98,-3.08) rotate(2.48) scale(0.920)">
        <g transform="translate(-4.56,-2.18) rotate(-3.01) scale(0.900)">
        <g transform="translate(-3.02,-1.10) rotate(-10.36) scale(0.880)">
        <rect x="-32.9" y="-32.9" width="65.7" height="65.7" rx="16.4" fill="url(#rgrad2)" filter="url(#shadow)" opacity="0.85"/>
        <circle cx="0" cy="0" r="21.9" fill="url(#rgrad3)" opacity="0.59"/>
      </g>
      </g>
      </g>
      </g>
      </g>
      </g>
      </g>
  </g>
  <g transform="translate(563.8, 655.2)">
      <g transform="translate(-2.37,-3.52) rotate(3.91) scale(1.000)">
        <g transform="translate(-4.19,-2.81) rotate(6.44) scale(0.980)">
        <g transform="translate(-4.98,-1.84) rotate(7.18) scale(0.960)">
        <g transform="translate(-4.56,-0.71) rotate(5.90) scale(0.940)" clip-path="url(#clipRect)">
        <g transform="translate(-3.02,0.49) rotate(2.48) scale(0.920)">
        <g transform="translate(-0.74,1.64) rotate(-3.01) scale(0.900)">
        <g transform="translate(1.72,2.64) rotate(-10.36) scale(0.880)">
        <path d="M38.8,22.4 L0.0,44.9 L-38.8,22.4 L-38.8,-22.4 L-0.0,-44.9 L38.8,-22.4Z" fill="url(#lgrad3)" filter="url(#blur3)" opacity="0.89"/>
        <ellipse cx="0" cy="0" rx="18.7" ry="12.5" fill="#FFFFFF" opacity="0.45"/>
      </g>
      </g>
      </g>
      </g>
      </g>
      </g>
      </g>
  </g>
  <g transform="translate(789.7, 672.1)">
      <g transform="translate(-4.98,-0.31) rotate(3.91) scale(1.000)">
        <g transform="translate(-4.56,0.88) rotate(6.44) scale(0.980)">
        <g transform="translate(-3.02,2.00) rotate(7.18) scale(0.960)">
        <g transform="translate(-0.74,2.93) rotate(5.90) scale(0.940)">
        <g transform="translate(1.72,3.60) rotate(2.48) scale(0.920)">
        <g transform="translate(3.76,3.96) rotate(-3.01) scale(0.900)" mask="url(#maskDynamic)">
        <g transform="translate(4.88,3.95) rotate(-10.36) scale(0.880)">
        <circle cx="0" cy="0" r="35.1" fill="url(#rgrad4)" filter="url(#shadow)" opacity="0.90"/>
        <text x="0" y="5" text-anchor="middle" font-family="Arial, sans-serif" font-size="14" fill="#FFFFFF" opacity="0.90">714</text>
      </g>
      </g>
      </g>
      </g>
      </g>
      </g>
      </g>
  </g>
  <g transform="translate(1008.2, 683.4)">
      <g transform="translate(-3.02,3.19) rotate(3.91) scale(1.000)">
        <g transform="translate(-0.74,3.76) rotate(6.44) scale(0.980)">
        <g transform="translate(1.72,4.00) rotate(7.18) scale(0.960)">
        <g transform="translate(3.76,3.87) rotate(5.90) scale(0.940)">
        <g transform="translate(4.88,3.41) rotate(2.48) scale(0.920)">
        <g transform="translate(4.80,2.63) rotate(-3.01) scale(0.900)">
        <g transform="translate(3.55,1.63) rotate(-10.36) scale(0.880)">
        <path d="M0.0,-56.3 L16.5,-22.8 L53.5,-17.4 L26.8,8.7 L33.1,45.5 L0.0,28.1 L-33.1,45.5 L-26.8,8.7 L-53.5,-17.4 L-16.5,-22.8Z" fill="url(#rgrad0)" filter="url(#blur0)" opacity="0.87"/>
      </g>
      </g>
      </g>
      </g>
      </g>
      </g>
      </g>
  </g>
  <g transform="translate(1219.9, 683.6)">
      <g transform="translate(1.72,3.76) rotate(3.91) scale(1.000)">
        <g transform="translate(3.76,3.18) rotate(6.44) scale(0.980)">
        <g transform="translate(4.88,2.32) rotate(7.18) scale(0.960)">
        <g transform="translate(4.80,1.26) rotate(5.90) scale(0.940)" clip-path="url(#clipStar)">
        <g transform="translate(3.55,0.08) rotate(2.48) scale(0.920)">
        <g transform="translate(1.43,-1.11) rotate(-3.01) scale(0.900)">
        <g transform="translate(-1.04,-2.19) rotate(-10.36) scale(0.880)">
        <rect x="-22.9" y="-22.9" width="45.8" height="45.8" rx="11.4" fill="url(#lgrad1)" filter="url(#shadow)" opacity="0.81"/>
        <circle cx="0" cy="0" r="15.3" fill="url(#rgrad2)" opacity="0.57"/>
      </g>
      </g>
      </g>
      </g>
      </g>
      </g>
      </g>
  </g>
  <g transform="translate(1426.7, 672.8)">
      <g transform="translate(4.88,0.87) rotate(3.91) scale(1.000)">
        <g transform="translate(4.80,-0.32) rotate(6.44) scale(0.980)">
        <g transform="translate(3.55,-1.49) rotate(7.18) scale(0.960)">
        <g transform="translate(1.43,-2.52) rotate(5.90) scale(0.940)">
        <g transform="translate(-1.04,-3.32) rotate(2.48) scale(0.920)">
        <g transform="translate(-3.26,-3.83) rotate(-3.01) scale(0.900)" mask="url(#maskStripes)">
        <g transform="translate(-4.68,-4.00) rotate(-10.36) scale(0.880)">
        <path d="M25.1,14.5 L0.0,29.0 L-25.1,14.5 L-25.1,-14.5 L-0.0,-29.0 L25.1,-14.5Z" fill="url(#rgrad2)" filter="url(#blur2)" opacity="0.72"/>
        <ellipse cx="0" cy="0" rx="12.1" ry="8.1" fill="#FFFFFF" opacity="0.36"/>
      </g>
      </g>
      </g>
      </g>
      </g>
      </g>
      </g>
  </g>
  <g transform="translate(1631.8, 655.9)">
      <g transform="translate(3.55,-2.82) rotate(3.91) scale(1.000)">
        <g transform="translate(1.43,-3.53) rotate(6.44) scale(0.980)">
        <g transform="translate(-1.04,-3.93) rotate(7.18) scale(0.960)">
        <g transform="translate(-3.26,-3.98) rotate(5.90) scale(0.940)">
        <g transform="translate(-4.68,-3.67) rotate(2.48) scale(0.920)">
        <g transform="translate(-4.95,-3.03) rotate(-3.01) scale(0.900)">
        <g transform="translate(-4.01,-2.13) rotate(-10.36) scale(0.880)">
        <circle cx="0" cy="0" r="30.8" fill="url(#rgrad3)" filter="url(#shadow)" opacity="0.61"/>
        <text x="0" y="5" text-anchor="middle" font-family="Arial, sans-serif" font-size="14" fill="#FFFFFF" opacity="0.61">714</text>
      </g>
      </g>
      </g>
      </g>
      </g>
      </g>
      </g>
  </g>
  <g transform="translate(79.0, 921.0)">
      <g transform="translate(-1.04,-3.91) rotate(3.91) scale(1.000)">
        <g transform="translate(-3.26,-3.49) rotate(6.44) scale(0.980)">
        <g transform="translate(-4.68,-2.76) rotate(7.18) scale(0.960)">
        <g transform="translate(-4.95,-1.78) rotate(5.90) scale(0.940)" clip-path="url(#clipDynamic)">
        <g transform="translate(-4.01,-0.64) rotate(2.48) scale(0.920)">
        <g transform="translate(-2.09,0.56) rotate(-3.01) scale(0.900)">
        <g transform="translate(0.34,1.70) rotate(-10.36) scale(0.880)">
        <path d="M0.0,-73.4 L21.6,-29.7 L69.8,-22.7 L34.9,11.3 L43.2,59.4 L0.0,36.7 L-43.2,59.4 L-34.9,11.3 L-69.8,-22.7 L-21.6,-29.7Z" fill="url(#lgrad4)" filter="url(#blur4)" opacity="0.49"/>
      </g>
      </g>
      </g>
      </g>
      </g>
      </g>
      </g>
  </g>
  <g transform="translate(202.6, 281.9)" mask="url(#maskGradient)">
    <ellipse cx="0" cy="0" rx="200" ry="150" fill="url(#rgrad0)" filter="url(#blur3)" opacity="0.3"/>
  </g>
  <g transform="translate(728.3, 336.4)" mask="url(#maskCircleFade)">
    <ellipse cx="0" cy="0" rx="200" ry="150" fill="url(#rgrad1)" filter="url(#blur3)" opacity="0.3"/>
  </g>
  <g transform="translate(1320.0, 373.7)" mask="url(#maskStripes)">
    <ellipse cx="0" cy="0" rx="200" ry="150" fill="url(#rgrad2)" filter="url(#blur3)" opacity="0.3"/>
  </g>
</svg>