<?xml version="1.0" encoding="UTF-8"?>
<svg xmlns="http://www.w3.org/2000/svg" viewBox="0 0 1920 1080" width="1920" height="1080">
  <defs>
    <filter id="blur0" x="-50%" y="-50%" width="200%" height="200%">
      <feGaussianBlur in="SourceGraphic" stdDeviation="1"/>
    </filter>
    <filter id="blur1" x="-50%" y="-50%" width="200%" height="200%">
      <feGaussianBlur in="SourceGraphic" stdDeviation="3"/>
    </filter>
    <filter id="blur2" x="-50%" y="-50%" width="200%" height="200%">
      <feGaussianBlur in="SourceGraphic" stdDeviation="5"/>
    </filter>
    <filter id="blur3" x="-50%" y="-50%" width="200%" height="200%">
      <feGaussianBlur in="SourceGraphic" stdDeviation="7"/>
    </filter>
    <filter id="blur4" x="-50%" y="-50%" width="200%" height="200%">
      <feGaussianBlur in="SourceGraphic" stdDeviation="9"/>
    </filter>
    <filter id="shadow" x="-50%" y="-50%" width="200%" height="200%">
      <feGaussianBlur in="SourceAlpha" stdDeviation="3" result="blur"/>
      <feOffset in="blur" dx="4" dy="4" result="offsetBlur"/>
      <feMerge>
        <feMergeNode in="offsetBlur"/>
        <feMergeNode in="SourceGraphic"/>
      </feMerge>
    </filter>
    <linearGradient id="lgrad0" x1="0%" y1="0%" x2="35.4%" y2="2.2%">
      <stop offset="0%" stop-color="#FF6B6B"/>
      <stop offset="33%" stop-color="#4ECDC4"/>
      <stop offset="66%" stop-color="#45B7D1"/>
      <stop offset="100%" stop-color="#96E6A1"/>
    </linearGradient>
    <linearGradient id="lgrad1" x1="0%" y1="0%" x2="61.2%" y2="1.3%">
      <stop offset="0%" stop-color="#FFE66D"/>
      <stop offset="33%" stop-color="#FF6B6B"/>
      <stop offset="66%" stop-color="#C44D58"/>
      <stop offset="100%" stop-color="#8B0000"/>
    </linearGradient>
    <linearGradient id="lgrad2" x1="0%" y1="0%" x2="84.1%" y2="13.4%">
      <stop offset="0%" stop-color="#4169E1"/>
      <stop offset="33%" stop-color="#7B68EE"/>
      <stop offset="66%" stop-color="#9370DB"/>
      <stop offset="100%" stop-color="#FFD700"/>
    </linearGradient>
    <linearGradient id="lgrad3" x1="0%" y1="0%" x2="97.8%" y2="35.4%">
      <stop offset="0%" stop-color="#32CD32"/>
      <stop offset="33%" stop-color="#228B22"/>
      <stop offset="66%" stop-color="#006400"/>
      <stop offset="100%" stop-color="#ADFF2F"/>
    </linearGradient>
    <linearGradient id="lgrad4" x1="0%" y1="0%" x2="98.7%" y2="61.2%">
      <stop offset="0%" stop-color="#FF1493"/>
      <stop offset="33%" stop-color="#FF69B4"/>
      <stop offset="66%" stop-color="#FFB6C1"/>
      <stop offset="100%" stop-color="#FFC0CB"/>
    </linearGradient>
    <radialGradient id="rgrad0" cx="34.8%" cy="33.2%" r="60%">
      <stop offset="0%" stop-color="#FF6B6B" stop-opacity="1"/>
      <stop offset="50%" stop-color="#4ECDC4" stop-opacity="0.8"/>
      <stop offset="100%" stop-color="#45B7D1" stop-opacity="0.6"/>
    </radialGradient>
    <radialGradient id="rgrad1" cx="44.8%" cy="41.2%" r="60%">
      <stop offset="0%" stop-color="#FFE66D" stop-opacity="1"/>
      <stop offset="50%" stop-color="#FF6B6B" stop-opacity="0.8"/>
      <stop offset="100%" stop-color="#C44D58" stop-opacity="0.6"/>
    </radialGradient>
    <radialGradient id="rgrad2" cx="54.8%" cy="49.2%" r="60%">
      <stop offset="0%" stop-color="#4169E1" stop-opacity="1"/>
      <stop offset="50%" stop-color="#7B68EE" stop-opacity="0.8"/>
      <stop offset="100%" stop-color="#9370DB" stop-opacity="0.6"/>
    </radialGradient>
    <radialGradient id="rgrad3" cx="64.8%" cy="57.2%" r="60%">
      <stop offset="0%" stop-color="#32CD32" stop-opacity="1"/>
      <stop offset="50%" stop-color="#228B22" stop-opacity="0.8"/>
      <stop offset="100%" stop-color="#006400" stop-opacity="0.6"/>
    </radialGradient>
    <radialGradient id="rgrad4" cx="34.8%" cy="65.2%" r="60%">
      <stop offset="0%" stop-color="#FF1493" stop-opacity="1"/>
      <stop offset="50%" stop-color="#FF69B4" stop-opacity="0.8"/>
      <stop offset="100%" stop-color="#FFB6C1" stop-opacity="0.6"/>
    </radialGradient>
    <clipPath id="clipCircle">
      <circle cx="0" cy="0" r="50"/>
    </clipPath>
    <clipPath id="clipStar">
      <path d="M0.0,-50.0 L14.7,-20.2 L47.6,-15.5 L23.8,7.7 L29.4,40.5 L0.0,25.0 L-29.4,40.5 L-23.8,7.7 L-47.6,-15.5 L-14.7,-20.2Z"/>
    </clipPath>
    <clipPath id="clipHex">
      <path d="M39.0,22.5 L0.0,45.0 L-39.0,22.5 L-39.0,-22.5 L-0.0,-45.0 L39.0,-22.5Z"/>
    </clipPath>
    <clipPath id="clipRect">
      <rect x="-40" y="-30" width="80" height="60" rx="10"/>
    </clipPath>
    <clipPath id="clipDynamic">
      <circle cx="0" cy="0" r="42.6"/>
    </clipPath>
    <mask id="maskGradient" maskContentUnits="objectBoundingBox">
      <rect x="0" y="0" width="1" height="1" fill="url(#maskGrad)"/>
    </mask>
    <linearGradient id="maskGrad" x1="0%" y1="0%" x2="100%" y2="100%">
      <stop offset="0%" stop-color="white"/>
      <stop offset="100%" stop-color="black"/>
    </linearGradient>
    <mask id="maskCircleFade">
      <circle cx="0" cy="0" r="60" fill="white"/>
      <circle cx="0" cy="0" r="30" fill="black"/>
    </mask>
    <mask id="maskStripes">
      <rect x="-50" y="-50" width="100" height="100" fill="white"/>
      <rect x="-50" y="-40" width="100" height="10" fill="black"/>
      <rect x="-50" y="-20" width="100" height="10" fill="black"/>
      <rect x="-50" y="0" width="100" height="10" fill="black"/>
      <rect x="-50" y="20" width="100" height="10" fill="black"/>
      <rect x="-50" y="40" width="100" height="10" fill="black"/>
    </mask>
    <mask id="maskDynamic">
      <rect x="-60" y="-60" width="120" height="120" fill="white" fill-opacity="0.98"/>
      <circle cx="0" cy="0" r="25" fill="white"/>
    </mask>
  </defs>
  <rect width="1920" height="1080" fill="url(#lgrad0)"/>
  <g transform="translate(115.2, 78.4)">
      <g transform="translate(2.53,-3.45) rotate(4.82) scale(1.000)">
        <g transform="translate(0.16,-3.89) rotate(9.98) scale(0.980)">
        <g transform="translate(-2.26,-3.99) rotate(14.86) scale(0.960)">
        <g transform="translate(-4.12,-3.73) rotate(18.89) scale(0.940)" clip-path="url(#clipCircle)">
        <g transform="translate(-4.97,-3.14) rotate(21.52) scale(0.920)">
        <g transform="translate(-4.61,-2.27) rotate(22.27) scale(0.900)">
        <g transform="translate(-3.12,-1.19) rotate(20.80) scale(0.880)">
        <path d="M0.0,-74.5 L21.9,-30.1 L70.8,-23.0 L35.4,11.5 L43.8,60.3 L0.0,37.2 L-43.8,60.3 L-35.4,11.5 L-70.8,-23.0 L-21.9,-30.1Z" fill="url(#lgrad0)" filter="url(#blur0)" opacity="0.89"/>
      </g>
      </g>
      </g>
      </g>
      </g>
      </g>
      </g>
  </g>
  <g transform="translate(320.9, 75.4)">
      <g transform="translate(-2.26,-3.57) rotate(4.82) scale(1.000)">
        <g transform="translate(-4.12,-2.88) rotate(9.98) scale(0.980)">
        <g transform="translate(-4.97,-1.93) rotate(14.86) scale(0.960)">
        <g transform="translate(-4.61,-0.80) rotate(18.89) scale(0.940)">
        <g transform="translate(-3.12,0.39) rotate(21.52) scale(0.920)">
        <g transform="translate(-0.86,1.55) rotate(22.27) scale(0.900)" mask="url(#maskCircleFade)">
        <g transform="translate(1.61,2.57) rotate(20.80) scale(0.880)">
        <rect x="-35.6" y="-35.6" width="71.1" height="71.1" rx="17.8" fill="url(#rgrad1)" filter="url(#shadow)" opacity="0.90"/>
        <circle cx="0" cy="0" r="23.7" fill="url(#rgrad2)" opacity="0.63"/>
      </g>
      </g>
      </g>
      </g>
      </g>
      </g>
      </g>
  </g>
  <g transform="translate(526.5, 83.9)">
      <g transform="translate(-4.97,-0.41) rotate(4.82) scale(1.000)">
        <g transform="translate(-4.61,0.79) rotate(9.98) scale(0.980)">
        <g transform="translate(-3.12,1.91) rotate(14.86) scale(0.960)">
        <g transform="translate(-0.86,2.86) rotate(18.89) scale(0.940)">
        <g transform="translate(1.61,3.56) rotate(21.52) scale(0.920)">
        <g transform="translate(3.68,3.94) rotate(22.27) scale(0.900)">
        <g transform="translate(4.85,3.97) rotate(20.80) scale(0.880)">
        <path d="M29.9,17.3 L0.0,34.5 L-29.9,17.3 L-29.9,-17.3 L-0.0,-34.5 L29.9,-17.3Z" fill="url(#rgrad2)" filter="url(#blur2)" opacity="0.88"/>
        <ellipse cx="0" cy="0" rx="14.4" ry="9.6" fill="#FFFFFF" opacity="0.44"/>
      </g>
      </g>
      </g>
      </g>
      </g>
      </g>
      </g>
  </g>
  <g transform="translate(735.3, 99.9)">
      <g transform="translate(-3.12,3.13) rotate(4.82) scale(1.000)">
        <g transform="translate(-0.86,3.72) rotate(9.98) scale(0.980)">
        <g transform="translate(1.61,3.99) rotate(14.86) scale(0.960)">
        <g transform="translate(3.68,3.90) rotate(18.89) scale(0.940)" clip-path="url(#clipRect)">
        <g transform="translate(4.85,3.46) rotate(21.52) scale(0.920)">
        <g transform="translate(4.84,2.71) rotate(22.27) scale(0.900)">
        <g transform="translate(3.64,1.72) rotate(20.80) scale(0.880)">
        <circle cx="0" cy="0" r="23.1" fill="url(#lgrad3)" filter="url(#shadow)" opacity="0.82"/>
        <text x="0" y="5" text-anchor="middle" font-family="Arial, sans-serif" font-size="14" fill="#FFFFFF" opacity="0.82">416</text>
      </g>
      </g>
      </g>
      </g>
      </g>
      </g>
      </g>
  </g>
  <g transform="translate(950.2, 116.1)">
      <g transform="translate(1.61,3.79) rotate(4.82) scale(1.000)">
        <g transform="translate(3.68,3.24) rotate(9.98) scale(0.980)">
        <g transform="translate(4.85,2.40) rotate(14.86) scale(0.960)">
        <g transform="translate(4.84,1.35) rotate(18.89) scale(0.940)">
        <g transform="translate(3.64,0.18) rotate(21.52) scale(0.920)">
        <g transform="translate(1.55,-1.01) rotate(22.27) scale(0.900)" mask="url(#maskGradient)">
        <g transform="translate(-0.92,-2.11) rotate(20.80) scale(0.880)">
        <path d="M0.0,-47.6 L14.0,-19.2 L45.2,-14.7 L22.6,7.3 L28.0,38.5 L0.0,23.8 L-28.0,38.5 L-22.6,7.3 L-45.2,-14.7 L-14.0,-19.2Z" fill="url(#rgrad4)" filter="url(#blur4)" opacity="0.74"/>
      </g>
      </g>
      </g>
      </g>
      </g>
      </g>
      </g>
  </g>
  <g transform="translate(1172.3, 124.6)">
      <g transform="translate(4.85,0.97) rotate(4.82) scale(1.000)">
        <g transform="translate(4.84,-0.22) rotate(9.98) scale(0.980)">
        <g transform="translate(3.64,-1.39) rotate(14.86) scale(0.960)">
        <g transform="translate(1.55,-2.44) rotate(18.89) scale(0.940)">
        <g transform="translate(-0.92,-3.27) rotate(21.52) scale(0.920)">
        <g transform="translate(-3.16,-3.80) rotate(22.27) scale(0.900)">
        <g transform="translate(-4.63,-4.00) rotate(20.80) scale(0.880)">
        <rect x="-30.2" y="-30.2" width="60.3" height="60.3" rx="15.1" fill="url(#rgrad0)" filter="url(#shadow)" opacity="0.63"/>
        <circle cx="0" cy="0" r="20.1" fill="url(#rgrad1)" opacity="0.44"/>
      </g>
      </g>
      </g>
      </g>
      </g>
      </g>
      </g>
  </g>
  <g transform="translate(1401.3, 121.6)">
      <g transform="translate(3.64,-2.74) rotate(4.82) scale(1.000)">
        <g transform="translate(1.55,-3.48) rotate(9.98) scale(0.980)">
        <g transform="translate(-0.92,-3.91) rotate(14.86) scale(0.960)">
        <g transform="translate(-3.16,-3.99) rotate(18.89) scale(0.940)" clip-path="url(#clipStar)">
        <g transform="translate(-4.63,-3.71) rotate(21.52) scale(0.920)">
        <g transform="translate(-4.97,-3.10) rotate(22.27) scale(0.900)">
        <g transform="translate(-4.09,-2.21) rotate(20.80) scale(0.880)">
        <path d="M37.8,21.8 L0.0,43.7 L-37.8,21.8 L-37.8,-21.8 L-0.0,-43.7 L37.8,-21.8Z" fill="url(#lgrad1)" filter="url(#blur1)" opacity="0.51"/>
        <ellipse cx="0" cy="0" rx="18.2" ry="12.1" fill="#FFFFFF" opacity="0.26"/>
      </g>
      </g>
      </g>
      </g>
      </g>
      </g>
      </g>
  </g>
  <g transform="translate(1634.8, 108.4)">
      <g transform="translate(-0.92,-3.93) rotate(4.82) scale(1.000)">
        <g transform="translate(-3.16,-3.54) rotate(9.98) scale(0.980)">
        <g transform="translate(-4.63,-2.83) rotate(14.86) scale(0.960)">
        <g transform="translate(-4.97,-1.87) rotate(18.89) scale(0.940)">
        <g transform="translate(-4.09,-0.74) rotate(21.52) scale(0.920)">
        <g transform="translate(-2.20,0.46) rotate(22.27) scale(0.900)" mask="url(#maskDynamic)">
        <g transform="translate(0.22,1.61) rotate(20.80) scale(0.880)">
        <circle cx="0" cy="0" r="36.7" fill="url(#rgrad2)" filter="url(#shadow)" opacity="0.40"/>
        <text x="0" y="5" text-anchor="middle" font-family="Arial, sans-serif" font-size="14" fill="#FFFFFF" opacity="0.40">416</text>
      </g>
      </g>
      </g>
      </g>
      </g>
      </g>
      </g>
  </g>
  <g transform="translate(109.6, 371.3)">
      <g transform="translate(-4.63,-1.50) rotate(4.82) scale(1.000)">
        <g transform="translate(-4.97,-0.34) rotate(9.98) scale(0.980)">
        <g transform="translate(-4.09,0.85) rotate(14.86) scale(0.960)">
        <g transform="translate(-2.20,1.97) rotate(18.89) scale(0.940)">
        <g transform="translate(0.22,2.91) rotate(21.52) scale(0.920)">
        <g transform="translate(2.59,3.59) rotate(22.27) scale(0.900)">
        <g transform="translate(4.32,3.95) rotate(20.80) scale(0.880)">
        <path d="M0.0,-61.8 L18.2,-25.0 L58.8,-19.1 L29.4,9.5 L36.3,50.0 L0.0,30.9 L-36.3,50.0 L-29.4,9.5 L-58.8,-19.1 L-18.2,-25.0Z" fill="url(#rgrad3)" filter="url(#blur3)" opacity="0.29"/>
      </g>
      </g>
      </g>
      </g>
      </g>
      </g>
      </g>
  </g>
  <g transform="translate(342.1, 358.2)">
      <g transform="translate(-4.09,2.31) rotate(4.82) scale(1.000)">
        <g transform="translate(-2.20,3.17) rotate(9.98) scale(0.980)">
        <g transform="translate(0.22,3.75) rotate(14.86) scale(0.960)">
        <g transform="translate(2.59,3.99) rotate(18.89) scale(0.940)" clip-path="url(#clipDynamic)">
        <g transform="translate(4.32,3.88) rotate(21.52) scale(0.920)">
        <g transform="translate(5.00,3.42) rotate(22.27) scale(0.900)">
        <g transform="translate(4.45,2.66) rotate(20.80) scale(0.880)">
        <rect x="-24.2" y="-24.2" width="48.4" height="48.4" rx="12.1" fill="url(#lgrad4)" filter="url(#shadow)" opacity="0.20"/>
        <circle cx="0" cy="0" r="16.1" fill="url(#rgrad0)" opacity="0.14"/>
      </g>
      </g>
      </g>
      </g>
      </g>
      </g>
      </g>
  </g>
  <g transform="translate(569.1, 355.4)">
      <g transform="translate(0.22,4.00) rotate(4.82) scale(1.000)">
        <g transform="translate(2.59,3.77) rotate(9.98) scale(0.980)">
        <g transform="translate(4.32,3.20) rotate(14.86) scale(0.960)">
        <g transform="translate(5.00,2.35) rotate(18.89) scale(0.940)">
        <g transform="translate(4.45,1.28) rotate(21.52) scale(0.920)">
        <g transform="translate(2.81,0.11) rotate(22.27) scale(0.900)" mask="url(#maskStripes)">
        <g transform="translate(0.49,-1.08) rotate(20.80) scale(0.880)">
        <path d="M23.8,13.7 L0.0,27.4 L-23.8,13.7 L-23.8,-13.7 L-0.0,-27.4 L23.8,-13.7Z" fill="url(#rgrad0)" filter="url(#blur0)" opacity="0.13"/>
        <ellipse cx="0" cy="0" rx="11.4" ry="7.6" fill="#FFFFFF" opacity="0.07"/>
      </g>
      </g>
      </g>
      </g>
      </g>
      </g>
      </g>
  </g>
  <g transform="translate(789.0, 364.2)">
      <g transform="translate(4.32,2.01) rotate(4.82) scale(1.000)">
        <g transform="translate(5.00,0.90) rotate(9.98) scale(0.980)">
        <g transform="translate(4.45,-0.29) rotate(14.86) scale(0.960)">
        <g transform="translate(2.81,-1.46) rotate(18.89) scale(0.940)">
        <g transform="translate(0.49,-2.49) rotate(21.52) scale(0.920)">
        <g transform="translate(-1.96,-3.31) rotate(22.27) scale(0.900)">
        <g transform="translate(-3.92,-3.82) rotate(20.80) scale(0.880)">
        <circle cx="0" cy="0" r="28.1" fill="url(#rgrad1)" filter="url(#shadow)" opacity="0.10"/>
        <text x="0" y="5" text-anchor="middle" font-family="Arial, sans-serif" font-size="14" fill="#FFFFFF" opacity="0.10">416</text>
      </g>
      </g>
      </g>
      </g>
      </g>
      </g>
      </g>
  </g>
  <g transform="translate(1001.8, 380.4)">
      <g transform="translate(4.45,-1.82) rotate(4.82) scale(1.000)">
        <g transform="translate(2.81,-2.79) rotate(9.98) scale(0.980)">
        <g transform="translate(0.49,-3.51) rotate(14.86) scale(0.960)">
        <g transform="translate(-1.96,-3.92) rotate(18.89) scale(0.940)" clip-path="url(#clipHex)">
        <g transform="translate(-3.92,-3.98) rotate(21.52) scale(0.920)">
        <g transform="translate(-4.93,-3.68) rotate(22.27) scale(0.900)">
        <g transform="translate(-4.73,-3.05) rotate(20.80) scale(0.880)">
        <path d="M0.0,-70.1 L20.6,-28.4 L66.7,-21.7 L33.3,10.8 L41.2,56.7 L0.0,35.0 L-41.2,56.7 L-33.3,10.8 L-66.7,-21.7 L-20.6,-28.4Z" fill="url(#lgrad2)" filter="url(#blur2)" opacity="0.11"/>
      </g>
      </g>
      </g>
      </g>
      </g>
      </g>
      </g>
  </g>
  <g transform="translate(1209.3, 396.4)">
      <g transform="translate(0.49,-3.98) rotate(4.82) scale(1.000)">
        <g transform="translate(-1.96,-3.92) rotate(9.98) scale(0.980)">
        <g transform="translate(-3.92,-3.51) rotate(14.86) scale(0.960)">
        <g transform="translate(-4.93,-2.78) rotate(18.89) scale(0.940)">
        <g transform="translate(-4.73,-1.81) rotate(21.52) scale(0.920)">
        <g transform="translate(-3.37,-0.67) rotate(22.27) scale(0.900)" mask="url(#maskCircleFade)">
        <g transform="translate(-1.19,0.52) rotate(20.80) scale(0.880)">
        <rect x="-37.4" y="-37.4" width="74.8" height="74.8" rx="18.7" fill="url(#rgrad3)" filter="url(#shadow)" opacity="0.15"/>
        <circle cx="0" cy="0" r="24.9" fill="url(#rgrad4)" opacity="0.10"/>
      </g>
      </g>
      </g>
      </g>
      </g>
      </g>
      </g>
  </g>
  <g transform="translate(1414.5, 404.7)">
      <g transform="translate(-3.92,-2.48) rotate(4.82) scale(1.000)">
        <g transform="translate(-4.93,-1.44) rotate(9.98) scale(0.980)">
        <g transform="translate(-4.73,-0.27) rotate(14.86) scale(0.960)">
        <g transform="translate(-3.37,0.92) rotate(18.89) scale(0.940)">
        <g transform="translate(-1.19,2.03) rotate(21.52) scale(0.920)">
        <g transform="translate(1.29,2.96) rotate(22.27) scale(0.900)">
        <g transform="translate(3.45,3.62) rotate(20.80) scale(0.880)">
        <path d="M34.2,19.8 L0.0,39.5 L-34.2,19.8 L-34.2,-19.8 L-0.0,-39.5 L34.2,-19.8Z" fill="url(#rgrad4)" filter="url(#blur4)" opacity="0.22"/>
        <ellipse cx="0" cy="0" rx="16.5" ry="11.0" fill="#FFFFFF" opacity="0.11"/>
      </g>
      </g>
      </g>
      </g>
      </g>
      </g>
      </g>
  </g>
  <g transform="translate(1621.0, 401.4)">
      <g transform="translate(-4.73,1.30) rotate(4.82) scale(1.000)">
        <g transform="translate(-3.37,2.36) rotate(9.98) scale(0.980)">
        <g transform="translate(-1.19,3.21) rotate(14.86) scale(0.960)">
        <g transform="translate(1.29,3.77) rotate(18.89) scale(0.940)" clip-path="url(#clipCircle)">
        <g transform="translate(3.45,4.00) rotate(21.52) scale(0.920)">
        <g transform="translate(4.76,3.86) rotate(22.27) scale(0.900)">
        <g transform="translate(4.91,3.39) rotate(20.80) scale(0.880)">
        <circle cx="0" cy="0" r="25.8" fill="url(#lgrad0)" filter="url(#shadow)" opacity="0.32"/>
        <text x="0" y="5" text-anchor="middle" font-family="Arial, sans-serif" font-size="14" fill="#FFFFFF" opacity="0.32">416</text>
      </g>
      </g>
      </g>
      </g>
      </g>
      </g>
      </g>
  </g>
  <g transform="translate(72.2, 668.0)">
      <g transform="translate(-1.19,3.89) rotate(4.82) scale(1.000)">
        <g transform="translate(1.29,3.99) rotate(9.98) scale(0.980)">
        <g transform="translate(3.45,3.74) rotate(14.86) scale(0.960)">
        <g transform="translate(4.76,3.16) rotate(18.89) scale(0.940)">
        <g transform="translate(4.91,2.29) rotate(21.52) scale(0.920)">
        <g transform="translate(3.86,1.22) rotate(22.27) scale(0.900)" mask="url(#maskGradient)">
        <g transform="translate(1.86,0.04) rotate(20.80) scale(0.880)">
        <path d="M0.0,-45.0 L13.2,-18.2 L42.8,-13.9 L21.4,7.0 L26.5,36.4 L0.0,22.5 L-26.5,36.4 L-21.4,7.0 L-42.8,-13.9 L-13.2,-18.2Z" fill="url(#rgrad1)" filter="url(#blur1)" opacity="0.43"/>
      </g>
      </g>
      </g>
      </g>
      </g>
      </g>
      </g>
  </g>
  <g transform="translate(290.2, 650.9)">
      <g transform="translate(3.45,2.90) rotate(4.82) scale(1.000)">
        <g transform="translate(4.76,1.95) rotate(9.98) scale(0.980)">
        <g transform="translate(4.91,0.83) rotate(14.86) scale(0.960)">
        <g transform="translate(3.86,-0.36) rotate(18.89) scale(0.940)">
        <g transform="translate(1.86,-1.52) rotate(21.52) scale(0.920)">
        <g transform="translate(-0.59,-2.55) rotate(22.27) scale(0.900)">
        <g transform="translate(-2.90,-3.34) rotate(20.80) scale(0.880)">
        <rect x="-26.1" y="-26.1" width="52.2" height="52.2" rx="13.1" fill="url(#rgrad2)" filter="url(#shadow)" opacity="0.55"/>
        <circle cx="0" cy="0" r="17.4" fill="url(#rgrad3)" opacity="0.38"/>
      </g>
      </g>
      </g>
      </g>
      </g>
      </g>
      </g>
  </g>
  <g transform="translate(515.5, 638.0)">
      <g transform="translate(4.91,-0.75) rotate(4.82) scale(1.000)">
        <g transform="translate(3.86,-1.88) rotate(9.98) scale(0.980)">
        <g transform="translate(1.86,-2.84) rotate(14.86) scale(0.960)">
        <g transform="translate(-0.59,-3.55) rotate(18.89) scale(0.940)" clip-path="url(#clipRect)">
        <g transform="translate(-2.90,-3.93) rotate(21.52) scale(0.920)">
        <g transform="translate(-4.50,-3.97) rotate(22.27) scale(0.900)">
        <g transform="translate(-4.99,-3.65) rotate(20.80) scale(0.880)">
        <path d="M34.6,20.0 L0.0,40.0 L-34.6,20.0 L-34.6,-20.0 L-0.0,-40.0 L34.6,-20.0Z" fill="url(#lgrad3)" filter="url(#blur3)" opacity="0.66"/>
        <ellipse cx="0" cy="0" rx="16.6" ry="11.1" fill="#FFFFFF" opacity="0.33"/>
      </g>
      </g>
      </g>
      </g>
      </g>
      </g>
      </g>
  </g>
  <g transform="translate(746.8, 635.5)">
      <g transform="translate(1.86,-3.71) rotate(4.82) scale(1.000)">
        <g transform="translate(-0.59,-3.99) rotate(9.98) scale(0.980)">
        <g transform="translate(-2.90,-3.90) rotate(14.86) scale(0.960)">
        <g transform="translate(-4.50,-3.47) rotate(18.89) scale(0.940)">
        <g transform="translate(-4.99,-2.73) rotate(21.52) scale(0.920)">
        <g transform="translate(-4.27,-1.75) rotate(22.27) scale(0.900)" mask="url(#maskDynamic)">
        <g transform="translate(-2.50,-0.60) rotate(20.80) scale(0.880)">
        <circle cx="0" cy="0" r="37.5" fill="url(#rgrad4)" filter="url(#shadow)" opacity="0.76"/>
        <text x="0" y="5" text-anchor="middle" font-family="Arial, sans-serif" font-size="14" fill="#FFFFFF" opacity="0.76">416</text>
      </g>
      </g>
      </g>
      </g>
      </g>
      </g>
      </g>
  </g>
  <g transform="translate(981.3, 644.5)">
      <g transform="translate(-2.90,-3.26) rotate(4.82) scale(1.000)">
        <g transform="translate(-4.50,-2.43) rotate(9.98) scale(0.980)">
        <g transform="translate(-4.99,-1.38) rotate(14.86) scale(0.960)">
        <g transform="translate(-4.27,-0.21) rotate(18.89) scale(0.940)">
        <g transform="translate(-2.50,0.98) rotate(21.52) scale(0.920)">
        <g transform="translate(-0.11,2.08) rotate(22.27) scale(0.900)">
        <g transform="translate(2.30,3.00) rotate(20.80) scale(0.880)">
        <path d="M0.0,-69.5 L20.4,-28.1 L66.1,-21.5 L33.1,10.7 L40.9,56.2 L0.0,34.8 L-40.9,56.2 L-33.1,10.7 L-66.1,-21.5 L-20.4,-28.1Z" fill="url(#rgrad0)" filter="url(#blur0)" opacity="0.84"/>
      </g>
      </g>
      </g>
      </g>
      </g>
      </g>
      </g>
  </g>
  <g transform="translate(1215.5, 660.8)">
      <g transform="translate(-4.99,0.19) rotate(4.82) scale(1.000)">
        <g transform="translate(-4.27,1.36) rotate(9.98) scale(0.980)">
        <g transform="translate(-2.50,2.41) rotate(14.86) scale(0.960)">
        <g transform="translate(-0.11,3.25) rotate(18.89) scale(0.940)" clip-path="url(#clipStar)">
        <g transform="translate(2.30,3.79) rotate(21.52) scale(0.920)">
        <g transform="translate(4.15,4.00) rotate(22.27) scale(0.900)">
        <g transform="translate(4.98,3.85) rotate(20.80) scale(0.880)">
        <rect x="-27.7" y="-27.7" width="55.4" height="55.4" rx="13.8" fill="url(#lgrad1)" filter="url(#shadow)" opacity="0.89"/>
        <circle cx="0" cy="0" r="18.5" fill="url(#rgrad2)" opacity="0.62"/>
      </g>
      </g>
      </g>
      </g>
      </g>
      </g>
      </g>
  </g>
  <g transform="translate(1445.9, 676.7)">
      <g transform="translate(-2.50,3.47) rotate(4.82) scale(1.000)">
        <g transform="translate(-0.11,3.90) rotate(9.98) scale(0.980)">
        <g transform="translate(2.30,3.99) rotate(14.86) scale(0.960)">
        <g transform="translate(4.15,3.72) rotate(18.89) scale(0.940)">
        <g transform="translate(4.98,3.12) rotate(21.52) scale(0.920)">
        <g transform="translate(4.59,2.24) rotate(22.27) scale(0.900)" mask="url(#maskStripes)">
        <g transform="translate(3.08,1.16) rotate(20.80) scale(0.880)">
        <path d="M23.6,13.6 L0.0,27.3 L-23.6,13.6 L-23.6,-13.6 L-0.0,-27.3 L23.6,-13.6Z" fill="url(#rgrad2)" filter="url(#blur2)" opacity="0.90"/>
        <ellipse cx="0" cy="0" rx="11.4" ry="7.6" fill="#FFFFFF" opacity="0.45"/>
      </g>
      </g>
      </g>
      </g>
      </g>
      </g>
      </g>
  </g>
  <g transform="translate(1670.0, 684.8)">
      <g transform="translate(2.30,3.55) rotate(4.82) scale(1.000)">
        <g transform="translate(4.15,2.85) rotate(9.98) scale(0.980)">
        <g transform="translate(4.98,1.89) rotate(14.86) scale(0.960)">
        <g transform="translate(4.59,0.77) rotate(18.89) scale(0.940)">
        <g transform="translate(3.08,-0.43) rotate(21.52) scale(0.920)">
        <g transform="translate(0.82,-1.58) rotate(22.27) scale(0.900)">
        <g transform="translate(-1.65,-2.60) rotate(20.80) scale(0.880)">
        <circle cx="0" cy="0" r="24.5" fill="url(#rgrad3)" filter="url(#shadow)" opacity="0.88"/>
        <text x="0" y="5" text-anchor="middle" font-family="Arial, sans-serif" font-size="14" fill="#FFFFFF" opacity="0.88">416</text>
      </g>
      </g>
      </g>
      </g>
      </g>
      </g>
      </g>
  </g>
  <g transform="translate(126.7, 961.2)">
      <g transform="translate(4.98,0.37) rotate(4.82) scale(1.000)">
        <g transform="translate(4.59,-0.82) rotate(9.98) scale(0.980)">
        <g transform="translate(3.08,-1.94) rotate(14.86) scale(0.960)">
        <g transform="translate(0.82,-2.89) rotate(18.89) scale(0.940)" clip-path="url(#clipDynamic)">
        <g transform="translate(-1.65,-3.58) rotate(21.52) scale(0.920)">
        <g transform="translate(-3.71,-3.95) rotate(22.27) scale(0.900)">
        <g transform="translate(-4.86,-3.96) rotate(20.80) scale(0.880)">
        <path d="M0.0,-62.6 L18.4,-25.3 L59.5,-19.3 L29.8,9.7 L36.8,50.6 L0.0,31.3 L-36.8,50.6 L-29.8,9.7 L-59.5,-19.3 L-18.4,-25.3Z" fill="url(#lgrad4)" filter="url(#blur4)" opacity="0.82"/>
      </g>
      </g>
      </g>
      </g>
      </g>
      </g>
      </g>
  </g>
  <g transform="translate(350.7, 231.0)" mask="url(#maskGradient)">
    <ellipse cx="0" cy="0" rx="200" ry="150" fill="url(#rgrad0)" filter="url(#blur3)" opacity="0.3"/>
  </g>
  <g transform="translate(754.8, 221.1)" mask="url(#maskCircleFade)">
    <ellipse cx="0" cy="0" rx="200" ry="150" fill="url(#rgrad1)" filter="url(#blur3)" opacity="0.3"/>
  </g>
  <g transform="translate(1200.5, 248.3)" mask="url(#maskStripes)">
    <ellipse cx="0" cy="0" rx="200" ry="150" fill="url(#rgrad2)" filter="url(#blur3)" opacity="0.3"/>
  </g>
</svg>