<?xml version="1.0" encoding="UTF-8"?>
<svg xmlns="http://www.w3.org/2000/svg" viewBox="0 0 1920 1080" width="1920" height="1080">
  <defs>
    <filter id="blur0" x="-50%" y="-50%" width="200%" height="200%">
      <feGaussianBlur in="SourceGraphic" stdDeviation="1"/>
    </filter>
    <filter id="blur1" x="-50%" y="-50%" width="200%" height="200%">
      <feGaussianBlur in="SourceGraphic" stdDeviation="3"/>
    </filter>
    <filter id="blur2" x="-50%" y="-50%" width="200%" height="200%">
      <feGaussianBlur in="SourceGraphic" stdDeviation="5"/>
    </filter>
    <filter id="blur3" x="-50%" y="-50%" width="200%" height="200%">
      <feGaussianBlur in="SourceGraphic" stdDeviation="7"/>
    </filter>
    <filter id="blur4" x="-50%" y="-50%" width="200%" height="200%">
      <feGaussianBlur in="SourceGraphic" stdDeviation="9"/>
    </filter>
    <filter id="shadow" x="-50%" y="-50%" width="200%" height="200%">
      <feGaussianBlur in="SourceAlpha" stdDeviation="3" result="blur"/>
      <feOffset in="blur" dx="4" dy="4" result="offsetBlur"/>
      <feMerge>
        <feMergeNode in="offsetBlur"/>
        <feMergeNode in="SourceGraphic"/>
      </feMerge>
    </filter>
    <linearGradient id="lgrad0" x1="0%" y1="0%" x2="97.7%" y2="65.0%">
      <stop offset="0%" stop-color="#FF6B6B"/>
      <stop offset="33%" stop-color="#4ECDC4"/>
      <stop offset="66%" stop-color="#45B7D1"/>
      <stop offset="100%" stop-color="#96E6A1"/>
    </linearGradient>
    <linearGradient id="lgrad1" x1="0%" y1="0%" x2="83.8%" y2="86.9%">
      <stop offset="0%" stop-color="#FFE66D"/>
      <stop offset="33%" stop-color="#FF6B6B"/>
      <stop offset="66%" stop-color="#C44D58"/>
      <stop offset="100%" stop-color="#8B0000"/>
    </linearGradient>
    <linearGradient id="lgrad2" x1="0%" y1="0%" x2="60.8%" y2="98.8%">
      <stop offset="0%" stop-color="#4169E1"/>
      <stop offset="33%" stop-color="#7B68EE"/>
      <stop offset="66%" stop-color="#9370DB"/>
      <stop offset="100%" stop-color="#FFD700"/>
    </linearGradient>
    <linearGradient id="lgrad3" x1="0%" y1="0%" x2="35.0%" y2="97.7%">
      <stop offset="0%" stop-color="#32CD32"/>
      <stop offset="33%" stop-color="#228B22"/>
      <stop offset="66%" stop-color="#006400"/>
      <stop offset="100%" stop-color="#ADFF2F"/>
    </linearGradient>
    <linearGradient id="lgrad4" x1="0%" y1="0%" x2="13.1%" y2="83.8%">
      <stop offset="0%" stop-color="#FF1493"/>
      <stop offset="33%" stop-color="#FF69B4"/>
      <stop offset="66%" stop-color="#FFB6C1"/>
      <stop offset="100%" stop-color="#FFC0CB"/>
    </linearGradient>
    <radialGradient id="rgrad0" cx="69.5%" cy="43.0%" r="60%">
      <stop offset="0%" stop-color="#FF6B6B" stop-opacity="1"/>
      <stop offset="50%" stop-color="#4ECDC4" stop-opacity="0.8"/>
      <stop offset="100%" stop-color="#45B7D1" stop-opacity="0.6"/>
    </radialGradient>
    <radialGradient id="rgrad1" cx="39.5%" cy="51.0%" r="60%">
      <stop offset="0%" stop-color="#FFE66D" stop-opacity="1"/>
      <stop offset="50%" stop-color="#FF6B6B" stop-opacity="0.8"/>
      <stop offset="100%" stop-color="#C44D58" stop-opacity="0.6"/>
    </radialGradient>
    <radialGradient id="rgrad2" cx="49.5%" cy="59.0%" r="60%">
      <stop offset="0%" stop-color="#4169E1" stop-opacity="1"/>
      <stop offset="50%" stop-color="#7B68EE" stop-opacity="0.8"/>
      <stop offset="100%" stop-color="#9370DB" stop-opacity="0.6"/>
    </radialGradient>
    <radialGradient id="rgrad3" cx="59.5%" cy="67.0%" r="60%">
      <stop offset="0%" stop-color="#32CD32" stop-opacity="1"/>
      <stop offset="50%" stop-color="#228B22" stop-opacity="0.8"/>
      <stop offset="100%" stop-color="#006400" stop-opacity="0.6"/>
    </radialGradient>
    <radialGradient id="rgrad4" cx="69.5%" cy="35.0%" r="60%">
      <stop offset="0%" stop-color="#FF1493" stop-opacity="1"/>
      <stop offset="50%" stop-color="#FF69B4" stop-opacity="0.8"/>
      <stop offset="100%" stop-color="#FFB6C1" stop-opacity="0.6"/>
    </radialGradient>
    <clipPath id="clipCircle">
      <circle cx="0" cy="0" r="50"/>
    </clipPath>
    <clipPath id="clipStar">
      <path d="M0.0,-50.0 L14.7,-20.2 L47.6,-15.5 L23.8,7.7 L29.4,40.5 L0.0,25.0 L-29.4,40.5 L-23.8,7.7 L-47.6,-15.5 L-14.7,-20.2Z"/>
    </clipPath>
    <clipPath id="clipHex">
      <path d="M39.0,22.5 L0.0,45.0 L-39.0,22.5 L-39.0,-22.5 L-0.0,-45.0 L39.0,-22.5Z"/>
    </clipPath>
    <clipPath id="clipRect">
      <rect x="-40" y="-30" width="80" height="60" rx="10"/>
    </clipPath>
    <clipPath id="clipDynamic">
      <circle cx="0" cy="0" r="22.1"/>
    </clipPath>
    <mask id="maskGradient" maskContentUnits="objectBoundingBox">
      <rect x="0" y="0" width="1" height="1" fill="url(#maskGrad)"/>
    </mask>
    <linearGradient id="maskGrad" x1="0%" y1="0%" x2="100%" y2="100%">
      <stop offset="0%" stop-color="white"/>
      <stop offset="100%" stop-color="black"/>
    </linearGradient>
    <mask id="maskCircleFade">
      <circle cx="0" cy="0" r="60" fill="white"/>
      <circle cx="0" cy="0" r="30" fill="black"/>
    </mask>
    <mask id="maskStripes">
      <rect x="-50" y="-50" width="100" height="100" fill="white"/>
      <rect x="-50" y="-40" width="100" height="10" fill="black"/>
      <rect x="-50" y="-20" width="100" height="10" fill="black"/>
      <rect x="-50" y="0" width="100" height="10" fill="black"/>
      <rect x="-50" y="20" width="100" height="10" fill="black"/>
      <rect x="-50" y="40" width="100" height="10" fill="black"/>
    </mask>
    <mask id="maskDynamic">
      <rect x="-60" y="-60" width="120" height="120" fill="white" fill-opacity="0.91"/>
      <circle cx="0" cy="0" r="25" fill="white"/>
    </mask>
  </defs>
  <rect width="1920" height="1080" fill="url(#lgrad0)"/>
  <g transform="translate(74.2, 87.2)">
      <g transform="translate(-4.30,-2.04) rotate(4.35) scale(1.000)">
        <g transform="translate(-5.00,-0.94) rotate(7.54) scale(0.980)">
        <g transform="translate(-4.47,0.26) rotate(9.12) scale(0.960)">
        <g transform="translate(-2.85,1.42) rotate(8.76) scale(0.940)" clip-path="url(#clipCircle)">
        <g transform="translate(-0.53,2.46) rotate(6.27) scale(0.920)">
        <g transform="translate(1.91,3.29) rotate(1.60) scale(0.900)">
        <g transform="translate(3.89,3.81) rotate(-5.11) scale(0.880)">
        <path d="M0.0,-73.0 L21.5,-29.5 L69.5,-22.6 L34.7,11.3 L42.9,59.1 L0.0,36.5 L-42.9,59.1 L-34.7,11.3 L-69.5,-22.6 L-21.5,-29.5Z" fill="url(#lgrad0)" filter="url(#blur0)" opacity="0.85"/>
      </g>
      </g>
      </g>
      </g>
      </g>
      </g>
      </g>
  </g>
  <g transform="translate(290.0, 104.1)">
      <g transform="translate(-4.47,1.79) rotate(4.35) scale(1.000)">
        <g transform="translate(-2.85,2.77) rotate(7.54) scale(0.980)">
        <g transform="translate(-0.53,3.50) rotate(9.12) scale(0.960)">
        <g transform="translate(1.91,3.91) rotate(8.76) scale(0.940)">
        <g transform="translate(3.89,3.98) rotate(6.27) scale(0.920)">
        <g transform="translate(4.92,3.70) rotate(1.60) scale(0.900)" mask="url(#maskCircleFade)">
        <g transform="translate(4.74,3.08) rotate(-5.11) scale(0.880)">
        <rect x="-30.4" y="-30.4" width="60.8" height="60.8" rx="15.2" fill="url(#rgrad1)" filter="url(#shadow)" opacity="0.77"/>
        <circle cx="0" cy="0" r="20.3" fill="url(#rgrad2)" opacity="0.54"/>
      </g>
      </g>
      </g>
      </g>
      </g>
      </g>
      </g>
  </g>
  <g transform="translate(513.2, 119.0)">
      <g transform="translate(-0.53,3.98) rotate(4.35) scale(1.000)">
        <g transform="translate(1.91,3.93) rotate(7.54) scale(0.980)">
        <g transform="translate(3.89,3.52) rotate(9.12) scale(0.960)">
        <g transform="translate(4.92,2.81) rotate(8.76) scale(0.940)">
        <g transform="translate(4.74,1.84) rotate(6.27) scale(0.920)">
        <g transform="translate(3.40,0.71) rotate(1.60) scale(0.900)">
        <g transform="translate(1.23,-0.49) rotate(-5.11) scale(0.880)">
        <path d="M24.9,14.3 L0.0,28.7 L-24.9,14.3 L-24.9,-14.3 L-0.0,-28.7 L24.9,-14.3Z" fill="url(#rgrad2)" filter="url(#blur2)" opacity="0.68"/>
        <ellipse cx="0" cy="0" rx="12.0" ry="8.0" fill="#FFFFFF" opacity="0.34"/>
      </g>
      </g>
      </g>
      </g>
      </g>
      </g>
      </g>
  </g>
  <g transform="translate(742.9, 125.0)">
      <g transform="translate(3.89,2.51) rotate(4.35) scale(1.000)">
        <g transform="translate(4.92,1.48) rotate(7.54) scale(0.980)">
        <g transform="translate(4.74,0.31) rotate(9.12) scale(0.960)">
        <g transform="translate(3.40,-0.88) rotate(8.76) scale(0.940)" clip-path="url(#clipRect)">
        <g transform="translate(1.23,-2.00) rotate(6.27) scale(0.920)">
        <g transform="translate(-1.24,-2.93) rotate(1.60) scale(0.900)">
        <g transform="translate(-3.41,-3.60) rotate(-5.11) scale(0.880)">
        <circle cx="0" cy="0" r="23.0" fill="url(#lgrad3)" filter="url(#shadow)" opacity="0.56"/>
        <text x="0" y="5" text-anchor="middle" font-family="Arial, sans-serif" font-size="14" fill="#FFFFFF" opacity="0.56">665</text>
      </g>
      </g>
      </g>
      </g>
      </g>
      </g>
      </g>
  </g>
  <g transform="translate(976.8, 119.2)">
      <g transform="translate(4.74,-1.27) rotate(4.35) scale(1.000)">
        <g transform="translate(3.40,-2.33) rotate(7.54) scale(0.980)">
        <g transform="translate(1.23,-3.19) rotate(9.12) scale(0.960)">
        <g transform="translate(-1.24,-3.76) rotate(8.76) scale(0.940)">
        <g transform="translate(-3.41,-4.00) rotate(6.27) scale(0.920)">
        <g transform="translate(-4.75,-3.87) rotate(1.60) scale(0.900)" mask="url(#maskGradient)">
        <g transform="translate(-4.92,-3.41) rotate(-5.11) scale(0.880)">
        <path d="M0.0,-57.1 L16.8,-23.1 L54.3,-17.6 L27.1,8.8 L33.6,46.2 L0.0,28.5 L-33.6,46.2 L-27.1,8.8 L-54.3,-17.6 L-16.8,-23.1Z" fill="url(#rgrad4)" filter="url(#blur4)" opacity="0.44"/>
      </g>
      </g>
      </g>
      </g>
      </g>
      </g>
      </g>
  </g>
  <g transform="translate(1211.5, 104.4)">
      <g transform="translate(1.23,-3.88) rotate(4.35) scale(1.000)">
        <g transform="translate(-1.24,-3.99) rotate(7.54) scale(0.980)">
        <g transform="translate(-3.41,-3.76) rotate(9.12) scale(0.960)">
        <g transform="translate(-4.75,-3.18) rotate(8.76) scale(0.940)">
        <g transform="translate(-4.92,-2.32) rotate(6.27) scale(0.920)">
        <g transform="translate(-3.89,-1.26) rotate(1.60) scale(0.900)">
        <g transform="translate(-1.90,-0.08) rotate(-5.11) scale(0.880)">
        <rect x="-35.4" y="-35.4" width="70.8" height="70.8" rx="17.7" fill="url(#rgrad0)" filter="url(#shadow)" opacity="0.33"/>
        <circle cx="0" cy="0" r="23.6" fill="url(#rgrad1)" opacity="0.23"/>
      </g>
      </g>
      </g>
      </g>
      </g>
      </g>
      </g>
  </g>
  <g transform="translate(1443.4, 87.5)">
      <g transform="translate(-3.41,-2.92) rotate(4.35) scale(1.000)">
        <g transform="translate(-4.75,-1.99) rotate(7.54) scale(0.980)">
        <g transform="translate(-4.92,-0.87) rotate(9.12) scale(0.960)">
        <g transform="translate(-3.89,0.32) rotate(8.76) scale(0.940)" clip-path="url(#clipStar)">
        <g transform="translate(-1.90,1.49) rotate(6.27) scale(0.920)">
        <g transform="translate(0.55,2.52) rotate(1.60) scale(0.900)">
        <g transform="translate(2.86,3.32) rotate(-5.11) scale(0.880)">
        <path d="M38.8,22.4 L0.0,44.8 L-38.8,22.4 L-38.8,-22.4 L-0.0,-44.8 L38.8,-22.4Z" fill="url(#lgrad1)" filter="url(#blur1)" opacity="0.23"/>
        <ellipse cx="0" cy="0" rx="18.6" ry="12.4" fill="#FFFFFF" opacity="0.11"/>
      </g>
      </g>
      </g>
      </g>
      </g>
      </g>
      </g>
  </g>
  <g transform="translate(1669.5, 76.5)">
      <g transform="translate(-4.92,0.72) rotate(4.35) scale(1.000)">
        <g transform="translate(-3.89,1.85) rotate(7.54) scale(0.980)">
        <g transform="translate(-1.90,2.81) rotate(9.12) scale(0.960)">
        <g transform="translate(0.55,3.53) rotate(8.76) scale(0.940)">
        <g transform="translate(2.86,3.93) rotate(6.27) scale(0.920)">
        <g transform="translate(4.48,3.98) rotate(1.60) scale(0.900)" mask="url(#maskDynamic)">
        <g transform="translate(5.00,3.67) rotate(-5.11) scale(0.880)">
        <circle cx="0" cy="0" r="32.5" fill="url(#rgrad2)" filter="url(#shadow)" opacity="0.15"/>
        <text x="0" y="5" text-anchor="middle" font-family="Arial, sans-serif" font-size="14" fill="#FFFFFF" opacity="0.15">665</text>
      </g>
      </g>
      </g>
      </g>
      </g>
      </g>
      </g>
  </g>
  <g transform="translate(128.5, 356.5)">
      <g transform="translate(-1.90,3.70) rotate(4.35) scale(1.000)">
        <g transform="translate(0.55,3.98) rotate(7.54) scale(0.980)">
        <g transform="translate(2.86,3.91) rotate(9.12) scale(0.960)">
        <g transform="translate(4.48,3.49) rotate(8.76) scale(0.940)">
        <g transform="translate(5.00,2.76) rotate(6.27) scale(0.920)">
        <g transform="translate(4.29,1.78) rotate(1.60) scale(0.900)">
        <g transform="translate(2.54,0.64) rotate(-5.11) scale(0.880)">
        <path d="M0.0,-50.8 L14.9,-20.5 L48.3,-15.7 L24.1,7.8 L29.8,41.1 L0.0,25.4 L-29.8,41.1 L-24.1,7.8 L-48.3,-15.7 L-14.9,-20.5Z" fill="url(#rgrad3)" filter="url(#blur3)" opacity="0.11"/>
      </g>
      </g>
      </g>
      </g>
      </g>
      </g>
      </g>
  </g>
  <g transform="translate(340.4, 367.6)">
      <g transform="translate(2.86,3.28) rotate(4.35) scale(1.000)">
        <g transform="translate(4.48,2.46) rotate(7.54) scale(0.980)">
        <g transform="translate(5.00,1.41) rotate(9.12) scale(0.960)">
        <g transform="translate(4.29,0.24) rotate(8.76) scale(0.940)" clip-path="url(#clipDynamic)">
        <g transform="translate(2.54,-0.95) rotate(6.27) scale(0.920)">
        <g transform="translate(0.16,-2.05) rotate(1.60) scale(0.900)">
        <g transform="translate(-2.26,-2.98) rotate(-5.11) scale(0.880)">
        <rect x="-22.5" y="-22.5" width="45.1" height="45.1" rx="11.3" fill="url(#lgrad4)" filter="url(#shadow)" opacity="0.10"/>
        <circle cx="0" cy="0" r="15.0" fill="url(#rgrad0)" opacity="0.07"/>
      </g>
      </g>
      </g>
      </g>
      </g>
      </g>
      </g>
  </g>
  <g transform="translate(547.4, 384.5)">
      <g transform="translate(5.00,-0.16) rotate(4.35) scale(1.000)">
        <g transform="translate(4.29,-1.33) rotate(7.54) scale(0.980)">
        <g transform="translate(2.54,-2.39) rotate(9.12) scale(0.960)">
        <g transform="translate(0.16,-3.23) rotate(8.76) scale(0.940)">
        <g transform="translate(-2.26,-3.78) rotate(6.27) scale(0.920)">
        <g transform="translate(-4.12,-4.00) rotate(1.60) scale(0.900)" mask="url(#maskStripes)">
        <g transform="translate(-4.97,-3.86) rotate(-5.11) scale(0.880)">
        <path d="M27.6,15.9 L0.0,31.9 L-27.6,15.9 L-27.6,-15.9 L-0.0,-31.9 L27.6,-15.9Z" fill="url(#rgrad0)" filter="url(#blur0)" opacity="0.13"/>
        <ellipse cx="0" cy="0" rx="13.3" ry="8.8" fill="#FFFFFF" opacity="0.06"/>
      </g>
      </g>
      </g>
      </g>
      </g>
      </g>
      </g>
  </g>
  <g transform="translate(752.5, 399.3)">
      <g transform="translate(2.54,-3.45) rotate(4.35) scale(1.000)">
        <g transform="translate(0.16,-3.89) rotate(7.54) scale(0.980)">
        <g transform="translate(-2.26,-3.99) rotate(9.12) scale(0.960)">
        <g transform="translate(-4.12,-3.73) rotate(8.76) scale(0.940)">
        <g transform="translate(-4.97,-3.14) rotate(6.27) scale(0.920)">
        <g transform="translate(-4.61,-2.27) rotate(1.60) scale(0.900)">
        <g transform="translate(-3.12,-1.19) rotate(-5.11) scale(0.880)">
        <circle cx="0" cy="0" r="33.7" fill="url(#rgrad1)" filter="url(#shadow)" opacity="0.19"/>
        <text x="0" y="5" text-anchor="middle" font-family="Arial, sans-serif" font-size="14" fill="#FFFFFF" opacity="0.19">665</text>
      </g>
      </g>
      </g>
      </g>
      </g>
      </g>
      </g>
  </g>
  <g transform="translate(959.5, 405.0)">
      <g transform="translate(-2.26,-3.57) rotate(4.35) scale(1.000)">
        <g transform="translate(-4.12,-2.88) rotate(7.54) scale(0.980)">
        <g transform="translate(-4.97,-1.93) rotate(9.12) scale(0.960)">
        <g transform="translate(-4.61,-0.80) rotate(8.76) scale(0.940)" clip-path="url(#clipHex)">
        <g transform="translate(-3.12,0.39) rotate(6.27) scale(0.920)">
        <g transform="translate(-0.86,1.55) rotate(1.60) scale(0.900)">
        <g transform="translate(1.60,2.57) rotate(-5.11) scale(0.880)">
        <path d="M0.0,-75.0 L22.0,-30.3 L71.3,-23.2 L35.7,11.6 L44.1,60.7 L0.0,37.5 L-44.1,60.7 L-35.7,11.6 L-71.3,-23.2 L-22.0,-30.3Z" fill="url(#lgrad2)" filter="url(#blur2)" opacity="0.28"/>
      </g>
      </g>
      </g>
      </g>
      </g>
      </g>
      </g>
  </g>
  <g transform="translate(1171.5, 399.0)">
      <g transform="translate(-4.97,-0.41) rotate(4.35) scale(1.000)">
        <g transform="translate(-4.61,0.78) rotate(7.54) scale(0.980)">
        <g transform="translate(-3.12,1.91) rotate(9.12) scale(0.960)">
        <g transform="translate(-0.86,2.86) rotate(8.76) scale(0.940)">
        <g transform="translate(1.60,3.56) rotate(6.27) scale(0.920)">
        <g transform="translate(3.68,3.94) rotate(1.60) scale(0.900)" mask="url(#maskCircleFade)">
        <g transform="translate(4.85,3.97) rotate(-5.11) scale(0.880)">
        <rect x="-34.4" y="-34.4" width="68.7" height="68.7" rx="17.2" fill="url(#rgrad3)" filter="url(#shadow)" opacity="0.38"/>
        <circle cx="0" cy="0" r="22.9" fill="url(#rgrad4)" opacity="0.27"/>
      </g>
      </g>
      </g>
      </g>
      </g>
      </g>
      </g>
  </g>
  <g transform="translate(1390.5, 384.0)">
      <g transform="translate(-3.12,3.13) rotate(4.35) scale(1.000)">
        <g transform="translate(-0.86,3.72) rotate(7.54) scale(0.980)">
        <g transform="translate(1.60,3.99) rotate(9.12) scale(0.960)">
        <g transform="translate(3.68,3.90) rotate(8.76) scale(0.940)">
        <g transform="translate(4.85,3.46) rotate(6.27) scale(0.920)">
        <g transform="translate(4.84,2.71) rotate(1.60) scale(0.900)">
        <g transform="translate(3.64,1.72) rotate(-5.11) scale(0.880)">
        <path d="M28.3,16.3 L0.0,32.7 L-28.3,16.3 L-28.3,-16.3 L-0.0,-32.7 L28.3,-16.3Z" fill="url(#rgrad4)" filter="url(#blur4)" opacity="0.50"/>
        <ellipse cx="0" cy="0" rx="13.6" ry="9.1" fill="#FFFFFF" opacity="0.25"/>
      </g>
      </g>
      </g>
      </g>
      </g>
      </g>
      </g>
  </g>
  <g transform="translate(1616.7, 367.2)">
      <g transform="translate(1.60,3.79) rotate(4.35) scale(1.000)">
        <g transform="translate(3.68,3.24) rotate(7.54) scale(0.980)">
        <g transform="translate(4.85,2.40) rotate(9.12) scale(0.960)">
        <g transform="translate(4.84,1.35) rotate(8.76) scale(0.940)" clip-path="url(#clipCircle)">
        <g transform="translate(3.64,0.18) rotate(6.27) scale(0.920)">
        <g transform="translate(1.55,-1.01) rotate(1.60) scale(0.900)">
        <g transform="translate(-0.92,-2.11) rotate(-5.11) scale(0.880)">
        <circle cx="0" cy="0" r="22.6" fill="url(#lgrad0)" filter="url(#shadow)" opacity="0.62"/>
        <text x="0" y="5" text-anchor="middle" font-family="Arial, sans-serif" font-size="14" fill="#FFFFFF" opacity="0.62">665</text>
      </g>
      </g>
      </g>
      </g>
      </g>
      </g>
      </g>
  </g>
  <g transform="translate(88.6, 636.4)">
      <g transform="translate(4.85,0.97) rotate(4.35) scale(1.000)">
        <g transform="translate(4.84,-0.22) rotate(7.54) scale(0.980)">
        <g transform="translate(3.64,-1.39) rotate(9.12) scale(0.960)">
        <g transform="translate(1.55,-2.44) rotate(8.76) scale(0.940)">
        <g transform="translate(-0.92,-3.27) rotate(6.27) scale(0.920)">
        <g transform="translate(-3.16,-3.80) rotate(1.60) scale(0.900)" mask="url(#maskGradient)">
        <g transform="translate(-4.63,-4.00) rotate(-5.11) scale(0.880)">
        <path d="M0.0,-49.7 L14.6,-20.1 L47.2,-15.3 L23.6,7.7 L29.2,40.2 L0.0,24.8 L-29.2,40.2 L-23.6,7.7 L-47.2,-15.3 L-14.6,-20.1Z" fill="url(#rgrad1)" filter="url(#blur1)" opacity="0.73"/>
      </g>
      </g>
      </g>
      </g>
      </g>
      </g>
      </g>
  </g>
  <g transform="translate(323.3, 636.7)">
      <g transform="translate(3.64,-2.74) rotate(4.35) scale(1.000)">
        <g transform="translate(1.55,-3.48) rotate(7.54) scale(0.980)">
        <g transform="translate(-0.92,-3.91) rotate(9.12) scale(0.960)">
        <g transform="translate(-3.16,-3.99) rotate(8.76) scale(0.940)">
        <g transform="translate(-4.63,-3.71) rotate(6.27) scale(0.920)">
        <g transform="translate(-4.97,-3.10) rotate(1.60) scale(0.900)">
        <g transform="translate(-4.09,-2.21) rotate(-5.11) scale(0.880)">
        <rect x="-31.8" y="-31.8" width="63.5" height="63.5" rx="15.9" fill="url(#rgrad2)" filter="url(#shadow)" opacity="0.81"/>
        <circle cx="0" cy="0" r="21.2" fill="url(#rgrad3)" opacity="0.57"/>
      </g>
      </g>
      </g>
      </g>
      </g>
      </g>
      </g>
  </g>
  <g transform="translate(557.2, 648.0)">
      <g transform="translate(-0.92,-3.93) rotate(4.35) scale(1.000)">
        <g transform="translate(-3.16,-3.54) rotate(7.54) scale(0.980)">
        <g transform="translate(-4.63,-2.83) rotate(9.12) scale(0.960)">
        <g transform="translate(-4.97,-1.87) rotate(8.76) scale(0.940)" clip-path="url(#clipRect)">
        <g transform="translate(-4.09,-0.74) rotate(6.27) scale(0.920)">
        <g transform="translate(-2.20,0.46) rotate(1.60) scale(0.900)">
        <g transform="translate(0.22,1.61) rotate(-5.11) scale(0.880)">
        <path d="M38.5,22.3 L0.0,44.5 L-38.5,22.3 L-38.5,-22.3 L-0.0,-44.5 L38.5,-22.3Z" fill="url(#lgrad3)" filter="url(#blur3)" opacity="0.87"/>
        <ellipse cx="0" cy="0" rx="18.5" ry="12.4" fill="#FFFFFF" opacity="0.44"/>
      </g>
      </g>
      </g>
      </g>
      </g>
      </g>
      </g>
  </g>
  <g transform="translate(786.9, 664.9)">
      <g transform="translate(-4.63,-1.50) rotate(4.35) scale(1.000)">
        <g transform="translate(-4.97,-0.34) rotate(7.54) scale(0.980)">
        <g transform="translate(-4.09,0.85) rotate(9.12) scale(0.960)">
        <g transform="translate(-2.20,1.97) rotate(8.76) scale(0.940)">
        <g transform="translate(0.22,2.91) rotate(6.27) scale(0.920)">
        <g transform="translate(2.59,3.59) rotate(1.60) scale(0.900)" mask="url(#maskDynamic)">
        <g transform="translate(4.32,3.95) rotate(-5.11) scale(0.880)">
        <circle cx="0" cy="0" r="35.9" fill="url(#rgrad4)" filter="url(#shadow)" opacity="0.90"/>
        <text x="0" y="5" text-anchor="middle" font-family="Arial, sans-serif" font-size="14" fill="#FFFFFF" opacity="0.90">665</text>
      </g>
      </g>
      </g>
      </g>
      </g>
      </g>
      </g>
  </g>
  <g transform="translate(1010.0, 679.5)">
      <g transform="translate(-4.09,2.31) rotate(4.35) scale(1.000)">
        <g transform="translate(-2.20,3.17) rotate(7.54) scale(0.980)">
        <g transform="translate(0.22,3.75) rotate(9.12) scale(0.960)">
        <g transform="translate(2.59,3.99) rotate(8.76) scale(0.940)">
        <g transform="translate(4.32,3.88) rotate(6.27) scale(0.920)">
        <g transform="translate(5.00,3.42) rotate(1.60) scale(0.900)">
        <g transform="translate(4.45,2.66) rotate(-5.11) scale(0.880)">
        <path d="M0.0,-58.5 L17.2,-23.7 L55.7,-18.1 L27.8,9.0 L34.4,47.4 L0.0,29.3 L-34.4,47.4 L-27.8,9.0 L-55.7,-18.1 L-17.2,-23.7Z" fill="url(#rgrad0)" filter="url(#blur0)" opacity="0.89"/>
      </g>
      </g>
      </g>
      </g>
      </g>
      </g>
      </g>
  </g>
  <g transform="translate(1225.7, 685.0)">
      <g transform="translate(0.22,4.00) rotate(4.35) scale(1.000)">
        <g transform="translate(2.59,3.77) rotate(7.54) scale(0.980)">
        <g transform="translate(4.32,3.20) rotate(9.12) scale(0.960)">
        <g transform="translate(5.00,2.35) rotate(8.76) scale(0.940)" clip-path="url(#clipStar)">
        <g transform="translate(4.45,1.29) rotate(6.27) scale(0.920)">
        <g transform="translate(2.82,0.11) rotate(1.60) scale(0.900)">
        <g transform="translate(0.49,-1.08) rotate(-5.11) scale(0.880)">
        <rect x="-23.3" y="-23.3" width="46.7" height="46.7" rx="11.7" fill="url(#lgrad1)" filter="url(#shadow)" opacity="0.84"/>
        <circle cx="0" cy="0" r="15.6" fill="url(#rgrad2)" opacity="0.59"/>
      </g>
      </g>
      </g>
      </g>
      </g>
      </g>
      </g>
  </g>
  <g transform="translate(1435.2, 678.7)">
      <g transform="translate(4.32,2.01) rotate(4.35) scale(1.000)">
        <g transform="translate(5.00,0.90) rotate(7.54) scale(0.980)">
        <g transform="translate(4.45,-0.29) rotate(9.12) scale(0.960)">
        <g transform="translate(2.82,-1.46) rotate(8.76) scale(0.940)">
        <g transform="translate(0.49,-2.49) rotate(6.27) scale(0.920)">
        <g transform="translate(-1.96,-3.31) rotate(1.60) scale(0.900)" mask="url(#maskStripes)">
        <g transform="translate(-3.92,-3.82) rotate(-5.11) scale(0.880)">
        <path d="M24.4,14.1 L0.0,28.2 L-24.4,14.1 L-24.4,-14.1 L-0.0,-28.2 L24.4,-14.1Z" fill="url(#rgrad2)" filter="url(#blur2)" opacity="0.77"/>
        <ellipse cx="0" cy="0" rx="11.8" ry="7.8" fill="#FFFFFF" opacity="0.38"/>
      </g>
      </g>
      </g>
      </g>
      </g>
      </g>
      </g>
  </g>
  <g transform="translate(1641.0, 663.6)">
      <g transform="translate(4.45,-1.82) rotate(4.35) scale(1.000)">
        <g transform="translate(2.82,-2.79) rotate(7.54) scale(0.980)">
        <g transform="translate(0.49,-3.51) rotate(9.12) scale(0.960)">
        <g transform="translate(-1.96,-3.92) rotate(8.76) scale(0.940)">
        <g transform="translate(-3.92,-3.98) rotate(6.27) scale(0.920)">
        <g transform="translate(-4.93,-3.68) rotate(1.60) scale(0.900)">
        <g transform="translate(-4.73,-3.05) rotate(-5.11) scale(0.880)">
        <circle cx="0" cy="0" r="29.7" fill="url(#rgrad3)" filter="url(#shadow)" opacity="0.67"/>
        <text x="0" y="5" text-anchor="middle" font-family="Arial, sans-serif" font-size="14" fill="#FFFFFF" opacity="0.67">665</text>
      </g>
      </g>
      </g>
      </g>
      </g>
      </g>
      </g>
  </g>
  <g transform="translate(86.5, 926.8)">
      <g transform="translate(0.49,-3.98) rotate(4.35) scale(1.000)">
        <g transform="translate(-1.96,-3.92) rotate(7.54) scale(0.980)">
        <g transform="translate(-3.92,-3.51) rotate(9.12) scale(0.960)">
        <g transform="translate(-4.93,-2.78) rotate(8.76) scale(0.940)" clip-path="url(#clipDynamic)">
        <g transform="translate(-4.73,-1.81) rotate(6.27) scale(0.920)">
        <g transform="translate(-3.37,-0.67) rotate(1.60) scale(0.900)">
        <g transform="translate(-1.19,0.52) rotate(-5.11) scale(0.880)">
        <path d="M0.0,-72.2 L21.2,-29.2 L68.7,-22.3 L34.4,11.2 L42.5,58.4 L0.0,36.1 L-42.5,58.4 L-34.4,11.2 L-68.7,-22.3 L-21.2,-29.2Z" fill="url(#lgrad4)" filter="url(#blur4)" opacity="0.55"/>
      </g>
      </g>
      </g>
      </g>
      </g>
      </g>
      </g>
  </g>
  <g transform="translate(214.0, 259.1)" mask="url(#maskGradient)">
    <ellipse cx="0" cy="0" rx="200" ry="150" fill="url(#rgrad0)" filter="url(#blur3)" opacity="0.3"/>
  </g>
  <g transform="translate(710.6, 313.0)" mask="url(#maskCircleFade)">
    <ellipse cx="0" cy="0" rx="200" ry="150" fill="url(#rgrad1)" filter="url(#blur3)" opacity="0.3"/>
  </g>
  <g transform="translate(1289.3, 360.8)" mask="url(#maskStripes)">
    <ellipse cx="0" cy="0" rx="200" ry="150" fill="url(#rgrad2)" filter="url(#blur3)" opacity="0.3"/>
  </g>
</svg>