<?xml version="1.0" encoding="UTF-8"?>
<svg xmlns="http://www.w3.org/2000/svg" viewBox="0 0 1920 1080" width="1920" height="1080">
  <defs>
    <filter id="blur0" x="-50%" y="-50%" width="200%" height="200%">
      <feGaussianBlur in="SourceGraphic" stdDeviation="1"/>
    </filter>
    <filter id="blur1" x="-50%" y="-50%" width="200%" height="200%">
      <feGaussianBlur in="SourceGraphic" stdDeviation="3"/>
    </filter>
    <filter id="blur2" x="-50%" y="-50%" width="200%" height="200%">
      <feGaussianBlur in="SourceGraphic" stdDeviation="5"/>
    </filter>
    <filter id="blur3" x="-50%" y="-50%" width="200%" height="200%">
      <feGaussianBlur in="SourceGraphic" stdDeviation="7"/>
    </filter>
    <filter id="blur4" x="-50%" y="-50%" width="200%" height="200%">
      <feGaussianBlur in="SourceGraphic" stdDeviation="9"/>
    </filter>
    <filter id="shadow" x="-50%" y="-50%" width="200%" height="200%">
      <feGaussianBlur in="SourceAlpha" stdDeviation="3" result="blur"/>
      <feOffset in="blur" dx="4" dy="4" result="offsetBlur"/>
      <feMerge>
        <feMergeNode in="offsetBlur"/>
        <feMergeNode in="SourceGraphic"/>
      </feMerge>
    </filter>
    <linearGradient id="lgrad0" x1="0%" y1="0%" x2="2.2%" y2="35.4%">
      <stop offset="0%" stop-color="#FF6B6B"/>
      <stop offset="33%" stop-color="#4ECDC4"/>
      <stop offset="66%" stop-color="#45B7D1"/>
      <stop offset="100%" stop-color="#96E6A1"/>
    </linearGradient>
    <linearGradient id="lgrad1" x1="0%" y1="0%" x2="15.9%" y2="13.4%">
      <stop offset="0%" stop-color="#FFE66D"/>
      <stop offset="33%" stop-color="#FF6B6B"/>
      <stop offset="66%" stop-color="#C44D58"/>
      <stop offset="100%" stop-color="#8B0000"/>
    </linearGradient>
    <linearGradient id="lgrad2" x1="0%" y1="0%" x2="38.8%" y2="1.3%">
      <stop offset="0%" stop-color="#4169E1"/>
      <stop offset="33%" stop-color="#7B68EE"/>
      <stop offset="66%" stop-color="#9370DB"/>
      <stop offset="100%" stop-color="#FFD700"/>
    </linearGradient>
    <linearGradient id="lgrad3" x1="0%" y1="0%" x2="64.6%" y2="2.2%">
      <stop offset="0%" stop-color="#32CD32"/>
      <stop offset="33%" stop-color="#228B22"/>
      <stop offset="66%" stop-color="#006400"/>
      <stop offset="100%" stop-color="#ADFF2F"/>
    </linearGradient>
    <linearGradient id="lgrad4" x1="0%" y1="0%" x2="86.6%" y2="15.9%">
      <stop offset="0%" stop-color="#FF1493"/>
      <stop offset="33%" stop-color="#FF69B4"/>
      <stop offset="66%" stop-color="#FFB6C1"/>
      <stop offset="100%" stop-color="#FFC0CB"/>
    </linearGradient>
    <radialGradient id="rgrad0" cx="41.2%" cy="50.8%" r="60%">
      <stop offset="0%" stop-color="#FF6B6B" stop-opacity="1"/>
      <stop offset="50%" stop-color="#4ECDC4" stop-opacity="0.8"/>
      <stop offset="100%" stop-color="#45B7D1" stop-opacity="0.6"/>
    </radialGradient>
    <radialGradient id="rgrad1" cx="51.2%" cy="58.8%" r="60%">
      <stop offset="0%" stop-color="#FFE66D" stop-opacity="1"/>
      <stop offset="50%" stop-color="#FF6B6B" stop-opacity="0.8"/>
      <stop offset="100%" stop-color="#C44D58" stop-opacity="0.6"/>
    </radialGradient>
    <radialGradient id="rgrad2" cx="61.2%" cy="66.8%" r="60%">
      <stop offset="0%" stop-color="#4169E1" stop-opacity="1"/>
      <stop offset="50%" stop-color="#7B68EE" stop-opacity="0.8"/>
      <stop offset="100%" stop-color="#9370DB" stop-opacity="0.6"/>
    </radialGradient>
    <radialGradient id="rgrad3" cx="31.2%" cy="34.8%" r="60%">
      <stop offset="0%" stop-color="#32CD32" stop-opacity="1"/>
      <stop offset="50%" stop-color="#228B22" stop-opacity="0.8"/>
      <stop offset="100%" stop-color="#006400" stop-opacity="0.6"/>
    </radialGradient>
    <radialGradient id="rgrad4" cx="41.2%" cy="42.8%" r="60%">
      <stop offset="0%" stop-color="#FF1493" stop-opacity="1"/>
      <stop offset="50%" stop-color="#FF69B4" stop-opacity="0.8"/>
      <stop offset="100%" stop-color="#FFB6C1" stop-opacity="0.6"/>
    </radialGradient>
    <clipPath id="clipCircle">
      <circle cx="0" cy="0" r="50"/>
    </clipPath>
    <clipPath id="clipStar">
      <path d="M0.0,-50.0 L14.7,-20.2 L47.6,-15.5 L23.8,7.7 L29.4,40.5 L0.0,25.0 L-29.4,40.5 L-23.8,7.7 L-47.6,-15.5 L-14.7,-20.2Z"/>
    </clipPath>
    <clipPath id="clipHex">
      <path d="M39.0,22.5 L0.0,45.0 L-39.0,22.5 L-39.0,-22.5 L-0.0,-45.0 L39.0,-22.5Z"/>
    </clipPath>
    <clipPath id="clipRect">
      <rect x="-40" y="-30" width="80" height="60" rx="10"/>
    </clipPath>
    <clipPath id="clipDynamic">
      <circle cx="0" cy="0" r="49.2"/>
    </clipPath>
    <mask id="maskGradient" maskContentUnits="objectBoundingBox">
      <rect x="0" y="0" width="1" height="1" fill="url(#maskGrad)"/>
    </mask>
    <linearGradient id="maskGrad" x1="0%" y1="0%" x2="100%" y2="100%">
      <stop offset="0%" stop-color="white"/>
      <stop offset="100%" stop-color="black"/>
    </linearGradient>
    <mask id="maskCircleFade">
      <circle cx="0" cy="0" r="60" fill="white"/>
      <circle cx="0" cy="0" r="30" fill="black"/>
    </mask>
    <mask id="maskStripes">
      <rect x="-50" y="-50" width="100" height="100" fill="white"/>
      <rect x="-50" y="-40" width="100" height="10" fill="black"/>
      <rect x="-50" y="-20" width="100" height="10" fill="black"/>
      <rect x="-50" y="0" width="100" height="10" fill="black"/>
      <rect x="-50" y="20" width="100" height="10" fill="black"/>
      <rect x="-50" y="40" width="100" height="10" fill="black"/>
    </mask>
    <mask id="maskDynamic">
      <rect x="-60" y="-60" width="120" height="120" fill="white" fill-opacity="0.87"/>
      <circle cx="0" cy="0" r="25" fill="white"/>
    </mask>
  </defs>
  <rect width="1920" height="1080" fill="url(#lgrad0)"/>
  <g transform="translate(128.3, 91.8)">
      <g transform="translate(4.72,-1.31) rotate(4.08) scale(1.000)">
        <g transform="translate(3.36,-2.37) rotate(9.14) scale(0.980)">
        <g transform="translate(1.17,-3.22) rotate(14.65) scale(0.960)">
        <g transform="translate(-1.31,-3.78) rotate(20.00) scale(0.940)" clip-path="url(#clipCircle)">
        <g transform="translate(-3.46,-4.00) rotate(24.59) scale(0.920)">
        <g transform="translate(-4.77,-3.86) rotate(27.84) scale(0.900)">
        <g transform="translate(-4.91,-3.38) rotate(29.24) scale(0.880)">
        <path d="M0.0,-72.2 L21.2,-29.2 L68.7,-22.3 L34.3,11.2 L42.5,58.4 L0.0,36.1 L-42.5,58.4 L-34.3,11.2 L-68.7,-22.3 L-21.2,-29.2Z" fill="url(#lgrad0)" filter="url(#blur0)" opacity="0.83"/>
      </g>
      </g>
      </g>
      </g>
      </g>
      </g>
      </g>
  </g>
  <g transform="translate(340.1, 78.5)">
      <g transform="translate(1.17,-3.89) rotate(4.08) scale(1.000)">
        <g transform="translate(-1.31,-3.99) rotate(9.14) scale(0.980)">
        <g transform="translate(-3.46,-3.74) rotate(14.65) scale(0.960)">
        <g transform="translate(-4.77,-3.15) rotate(20.00) scale(0.940)">
        <g transform="translate(-4.91,-2.28) rotate(24.59) scale(0.920)">
        <g transform="translate(-3.85,-1.21) rotate(27.84) scale(0.900)" mask="url(#maskCircleFade)">
        <g transform="translate(-1.84,-0.03) rotate(29.24) scale(0.880)">
        <rect x="-37.0" y="-37.0" width="73.9" height="73.9" rx="18.5" fill="url(#rgrad1)" filter="url(#shadow)" opacity="0.88"/>
        <circle cx="0" cy="0" r="24.6" fill="url(#rgrad2)" opacity="0.62"/>
      </g>
      </g>
      </g>
      </g>
      </g>
      </g>
      </g>
  </g>
  <g transform="translate(547.0, 75.3)">
      <g transform="translate(-3.46,-2.89) rotate(4.08) scale(1.000)">
        <g transform="translate(-4.77,-1.94) rotate(9.14) scale(0.980)">
        <g transform="translate(-4.91,-0.82) rotate(14.65) scale(0.960)">
        <g transform="translate(-3.85,0.37) rotate(20.00) scale(0.940)">
        <g transform="translate(-1.84,1.53) rotate(24.59) scale(0.920)">
        <g transform="translate(0.61,2.56) rotate(27.84) scale(0.900)">
        <g transform="translate(2.92,3.35) rotate(29.24) scale(0.880)">
        <path d="M32.6,18.8 L0.0,37.7 L-32.6,18.8 L-32.6,-18.8 L-0.0,-37.7 L32.6,-18.8Z" fill="url(#rgrad2)" filter="url(#blur2)" opacity="0.90"/>
        <ellipse cx="0" cy="0" rx="15.7" ry="10.5" fill="#FFFFFF" opacity="0.45"/>
      </g>
      </g>
      </g>
      </g>
      </g>
      </g>
      </g>
  </g>
  <g transform="translate(752.2, 83.8)">
      <g transform="translate(-4.91,0.77) rotate(4.08) scale(1.000)">
        <g transform="translate(-3.85,1.89) rotate(9.14) scale(0.980)">
        <g transform="translate(-1.84,2.85) rotate(14.65) scale(0.960)">
        <g transform="translate(0.61,3.55) rotate(20.00) scale(0.940)" clip-path="url(#clipRect)">
        <g transform="translate(2.92,3.94) rotate(24.59) scale(0.920)">
        <g transform="translate(4.51,3.97) rotate(27.84) scale(0.900)">
        <g transform="translate(4.99,3.65) rotate(29.24) scale(0.880)">
        <circle cx="0" cy="0" r="24.6" fill="url(#lgrad3)" filter="url(#shadow)" opacity="0.88"/>
        <text x="0" y="5" text-anchor="middle" font-family="Arial, sans-serif" font-size="14" fill="#FFFFFF" opacity="0.88">304</text>
      </g>
      </g>
      </g>
      </g>
      </g>
      </g>
      </g>
  </g>
  <g transform="translate(959.2, 99.8)">
      <g transform="translate(-1.84,3.72) rotate(4.08) scale(1.000)">
        <g transform="translate(0.61,3.99) rotate(9.14) scale(0.980)">
        <g transform="translate(2.92,3.90) rotate(14.65) scale(0.960)">
        <g transform="translate(4.51,3.47) rotate(20.00) scale(0.940)">
        <g transform="translate(4.99,2.72) rotate(24.59) scale(0.920)">
        <g transform="translate(4.26,1.73) rotate(27.84) scale(0.900)" mask="url(#maskGradient)">
        <g transform="translate(2.48,0.59) rotate(29.24) scale(0.880)">
        <path d="M0.0,-45.4 L13.4,-18.4 L43.2,-14.0 L21.6,7.0 L26.7,36.8 L0.0,22.7 L-26.7,36.8 L-21.6,7.0 L-43.2,-14.0 L-13.4,-18.4Z" fill="url(#rgrad4)" filter="url(#blur4)" opacity="0.83"/>
      </g>
      </g>
      </g>
      </g>
      </g>
      </g>
      </g>
  </g>
  <g transform="translate(1171.4, 116.0)">
      <g transform="translate(2.92,3.25) rotate(4.08) scale(1.000)">
        <g transform="translate(4.51,2.42) rotate(9.14) scale(0.980)">
        <g transform="translate(4.99,1.37) rotate(14.65) scale(0.960)">
        <g transform="translate(4.26,0.19) rotate(20.00) scale(0.940)">
        <g transform="translate(2.48,-1.00) rotate(24.59) scale(0.920)">
        <g transform="translate(0.10,-2.10) rotate(27.84) scale(0.900)">
        <g transform="translate(-2.31,-3.01) rotate(29.24) scale(0.880)">
        <rect x="-27.6" y="-27.6" width="55.1" height="55.1" rx="13.8" fill="url(#rgrad0)" filter="url(#shadow)" opacity="0.75"/>
        <circle cx="0" cy="0" r="18.4" fill="url(#rgrad1)" opacity="0.53"/>
      </g>
      </g>
      </g>
      </g>
      </g>
      </g>
      </g>
  </g>
  <g transform="translate(1390.6, 124.6)">
      <g transform="translate(4.99,-0.21) rotate(4.08) scale(1.000)">
        <g transform="translate(4.26,-1.38) rotate(9.14) scale(0.980)">
        <g transform="translate(2.48,-2.43) rotate(14.65) scale(0.960)">
        <g transform="translate(0.10,-3.26) rotate(20.00) scale(0.940)" clip-path="url(#clipStar)">
        <g transform="translate(-2.31,-3.80) rotate(24.59) scale(0.920)">
        <g transform="translate(-4.16,-4.00) rotate(27.84) scale(0.900)">
        <g transform="translate(-4.98,-3.84) rotate(29.24) scale(0.880)">
        <path d="M36.0,20.8 L0.0,41.6 L-36.0,20.8 L-36.0,-20.8 L-0.0,-41.6 L36.0,-20.8Z" fill="url(#lgrad1)" filter="url(#blur1)" opacity="0.65"/>
        <ellipse cx="0" cy="0" rx="17.3" ry="11.6" fill="#FFFFFF" opacity="0.33"/>
      </g>
      </g>
      </g>
      </g>
      </g>
      </g>
      </g>
  </g>
  <g transform="translate(1616.9, 121.7)">
      <g transform="translate(2.48,-3.47) rotate(4.08) scale(1.000)">
        <g transform="translate(0.10,-3.90) rotate(9.14) scale(0.980)">
        <g transform="translate(-2.31,-3.99) rotate(14.65) scale(0.960)">
        <g transform="translate(-4.16,-3.71) rotate(20.00) scale(0.940)">
        <g transform="translate(-4.98,-3.11) rotate(24.59) scale(0.920)">
        <g transform="translate(-4.59,-2.22) rotate(27.84) scale(0.900)" mask="url(#maskDynamic)">
        <g transform="translate(-3.07,-1.14) rotate(29.24) scale(0.880)">
        <circle cx="0" cy="0" r="37.5" fill="url(#rgrad2)" filter="url(#shadow)" opacity="0.54"/>
        <text x="0" y="5" text-anchor="middle" font-family="Arial, sans-serif" font-size="14" fill="#FFFFFF" opacity="0.54">304</text>
      </g>
      </g>
      </g>
      </g>
      </g>
      </g>
      </g>
  </g>
  <g transform="translate(88.9, 388.5)">
      <g transform="translate(-2.31,-3.55) rotate(4.08) scale(1.000)">
        <g transform="translate(-4.16,-2.84) rotate(9.14) scale(0.980)">
        <g transform="translate(-4.98,-1.88) rotate(14.65) scale(0.960)">
        <g transform="translate(-4.59,-0.75) rotate(20.00) scale(0.940)">
        <g transform="translate(-3.07,0.44) rotate(24.59) scale(0.920)">
        <g transform="translate(-0.80,1.59) rotate(27.84) scale(0.900)">
        <g transform="translate(1.66,2.61) rotate(29.24) scale(0.880)">
        <path d="M0.0,-66.8 L19.6,-27.0 L63.5,-20.6 L31.8,10.3 L39.3,54.1 L0.0,33.4 L-39.3,54.1 L-31.8,10.3 L-63.5,-20.6 L-19.6,-27.0Z" fill="url(#rgrad3)" filter="url(#blur3)" opacity="0.42"/>
      </g>
      </g>
      </g>
      </g>
      </g>
      </g>
      </g>
  </g>
  <g transform="translate(323.7, 371.4)">
      <g transform="translate(-4.98,-0.36) rotate(4.08) scale(1.000)">
        <g transform="translate(-4.59,0.83) rotate(9.14) scale(0.980)">
        <g transform="translate(-3.07,1.95) rotate(14.65) scale(0.960)">
        <g transform="translate(-0.80,2.90) rotate(20.00) scale(0.940)" clip-path="url(#clipDynamic)">
        <g transform="translate(1.66,3.58) rotate(24.59) scale(0.920)">
        <g transform="translate(3.72,3.95) rotate(27.84) scale(0.900)">
        <g transform="translate(4.87,3.96) rotate(29.24) scale(0.880)">
        <rect x="-26.2" y="-26.2" width="52.4" height="52.4" rx="13.1" fill="url(#lgrad4)" filter="url(#shadow)" opacity="0.30"/>
        <circle cx="0" cy="0" r="17.5" fill="url(#rgrad0)" opacity="0.21"/>
      </g>
      </g>
      </g>
      </g>
      </g>
      </g>
      </g>
  </g>
  <g transform="translate(557.5, 358.3)">
      <g transform="translate(-3.07,3.16) rotate(4.08) scale(1.000)">
        <g transform="translate(-0.80,3.74) rotate(9.14) scale(0.980)">
        <g transform="translate(1.66,3.99) rotate(14.65) scale(0.960)">
        <g transform="translate(3.72,3.89) rotate(20.00) scale(0.940)">
        <g transform="translate(4.87,3.43) rotate(24.59) scale(0.920)">
        <g transform="translate(4.82,2.67) rotate(27.84) scale(0.900)" mask="url(#maskStripes)">
        <g transform="translate(3.59,1.67) rotate(29.24) scale(0.880)">
        <path d="M23.4,13.5 L0.0,27.0 L-23.4,13.5 L-23.4,-13.5 L-0.0,-27.0 L23.4,-13.5Z" fill="url(#rgrad0)" filter="url(#blur0)" opacity="0.21"/>
        <ellipse cx="0" cy="0" rx="11.3" ry="7.5" fill="#FFFFFF" opacity="0.10"/>
      </g>
      </g>
      </g>
      </g>
      </g>
      </g>
      </g>
  </g>
  <g transform="translate(787.0, 355.4)">
      <g transform="translate(1.66,3.77) rotate(4.08) scale(1.000)">
        <g transform="translate(3.72,3.21) rotate(9.14) scale(0.980)">
        <g transform="translate(4.87,2.36) rotate(14.65) scale(0.960)">
        <g transform="translate(4.82,1.30) rotate(20.00) scale(0.940)">
        <g transform="translate(3.59,0.13) rotate(24.59) scale(0.920)">
        <g transform="translate(1.49,-1.06) rotate(27.84) scale(0.900)">
        <g transform="translate(-0.98,-2.15) rotate(29.24) scale(0.880)">
        <circle cx="0" cy="0" r="25.7" fill="url(#rgrad1)" filter="url(#shadow)" opacity="0.14"/>
        <text x="0" y="5" text-anchor="middle" font-family="Arial, sans-serif" font-size="14" fill="#FFFFFF" opacity="0.14">304</text>
      </g>
      </g>
      </g>
      </g>
      </g>
      </g>
      </g>
  </g>
  <g transform="translate(1010.0, 364.1)">
      <g transform="translate(4.87,0.92) rotate(4.08) scale(1.000)">
        <g transform="translate(4.82,-0.27) rotate(9.14) scale(0.980)">
        <g transform="translate(3.59,-1.44) rotate(14.65) scale(0.960)">
        <g transform="translate(1.49,-2.48) rotate(20.00) scale(0.940)" clip-path="url(#clipHex)">
        <g transform="translate(-0.98,-3.30) rotate(24.59) scale(0.920)">
        <g transform="translate(-3.21,-3.82) rotate(27.84) scale(0.900)">
        <g transform="translate(-4.66,-4.00) rotate(29.24) scale(0.880)">
        <path d="M0.0,-65.7 L19.3,-26.6 L62.4,-20.3 L31.2,10.1 L38.6,53.1 L0.0,32.8 L-38.6,53.1 L-31.2,10.1 L-62.4,-20.3 L-19.3,-26.6Z" fill="url(#lgrad2)" filter="url(#blur2)" opacity="0.11"/>
      </g>
      </g>
      </g>
      </g>
      </g>
      </g>
      </g>
  </g>
  <g transform="translate(1225.5, 380.3)">
      <g transform="translate(3.59,-2.78) rotate(4.08) scale(1.000)">
        <g transform="translate(1.49,-3.51) rotate(9.14) scale(0.980)">
        <g transform="translate(-0.98,-3.92) rotate(14.65) scale(0.960)">
        <g transform="translate(-3.21,-3.98) rotate(20.00) scale(0.940)">
        <g transform="translate(-4.66,-3.69) rotate(24.59) scale(0.920)">
        <g transform="translate(-4.96,-3.07) rotate(27.84) scale(0.900)" mask="url(#maskCircleFade)">
        <g transform="translate(-4.05,-2.17) rotate(29.24) scale(0.880)">
        <rect x="-37.4" y="-37.4" width="74.7" height="74.7" rx="18.7" fill="url(#rgrad3)" filter="url(#shadow)" opacity="0.10"/>
        <circle cx="0" cy="0" r="24.9" fill="url(#rgrad4)" opacity="0.07"/>
      </g>
      </g>
      </g>
      </g>
      </g>
      </g>
      </g>
  </g>
  <g transform="translate(1434.9, 396.3)">
      <g transform="translate(-0.98,-3.92) rotate(4.08) scale(1.000)">
        <g transform="translate(-3.21,-3.51) rotate(9.14) scale(0.980)">
        <g transform="translate(-4.66,-2.79) rotate(14.65) scale(0.960)">
        <g transform="translate(-4.96,-1.82) rotate(20.00) scale(0.940)">
        <g transform="translate(-4.05,-0.69) rotate(24.59) scale(0.920)">
        <g transform="translate(-2.15,0.51) rotate(27.84) scale(0.900)">
        <g transform="translate(0.28,1.66) rotate(29.24) scale(0.880)">
        <path d="M36.5,21.1 L0.0,42.2 L-36.5,21.1 L-36.5,-21.1 L-0.0,-42.2 L36.5,-21.1Z" fill="url(#rgrad4)" filter="url(#blur4)" opacity="0.14"/>
        <ellipse cx="0" cy="0" rx="17.6" ry="11.7" fill="#FFFFFF" opacity="0.07"/>
      </g>
      </g>
      </g>
      </g>
      </g>
      </g>
      </g>
  </g>
  <g transform="translate(1640.6, 404.7)">
      <g transform="translate(-4.66,-1.46) rotate(4.08) scale(1.000)">
        <g transform="translate(-4.96,-0.29) rotate(9.14) scale(0.980)">
        <g transform="translate(-4.05,0.90) rotate(14.65) scale(0.960)">
        <g transform="translate(-2.15,2.01) rotate(20.00) scale(0.940)" clip-path="url(#clipCircle)">
        <g transform="translate(0.28,2.94) rotate(24.59) scale(0.920)">
        <g transform="translate(2.64,3.61) rotate(27.84) scale(0.900)">
        <g transform="translate(4.35,3.96) rotate(29.24) scale(0.880)">
        <circle cx="0" cy="0" r="28.2" fill="url(#lgrad0)" filter="url(#shadow)" opacity="0.20"/>
        <text x="0" y="5" text-anchor="middle" font-family="Arial, sans-serif" font-size="14" fill="#FFFFFF" opacity="0.20">304</text>
      </g>
      </g>
      </g>
      </g>
      </g>
      </g>
      </g>
  </g>
  <g transform="translate(86.1, 681.5)">
      <g transform="translate(-4.05,2.35) rotate(4.08) scale(1.000)">
        <g transform="translate(-2.15,3.20) rotate(9.14) scale(0.980)">
        <g transform="translate(0.28,3.77) rotate(14.65) scale(0.960)">
        <g transform="translate(2.64,4.00) rotate(20.00) scale(0.940)">
        <g transform="translate(4.35,3.87) rotate(24.59) scale(0.920)">
        <g transform="translate(5.00,3.40) rotate(27.84) scale(0.900)" mask="url(#maskGradient)">
        <g transform="translate(4.42,2.62) rotate(29.24) scale(0.880)">
        <path d="M0.0,-45.8 L13.5,-18.5 L43.5,-14.1 L21.8,7.1 L26.9,37.0 L0.0,22.9 L-26.9,37.0 L-21.8,7.1 L-43.5,-14.1 L-13.5,-18.5Z" fill="url(#rgrad1)" filter="url(#blur1)" opacity="0.30"/>
      </g>
      </g>
      </g>
      </g>
      </g>
      </g>
      </g>
  </g>
  <g transform="translate(295.1, 668.1)">
      <g transform="translate(0.28,3.99) rotate(4.08) scale(1.000)">
        <g transform="translate(2.64,3.75) rotate(9.14) scale(0.980)">
        <g transform="translate(4.35,3.17) rotate(14.65) scale(0.960)">
        <g transform="translate(5.00,2.31) rotate(20.00) scale(0.940)">
        <g transform="translate(4.42,1.24) rotate(24.59) scale(0.920)">
        <g transform="translate(2.76,0.06) rotate(27.84) scale(0.900)">
        <g transform="translate(0.43,-1.13) rotate(29.24) scale(0.880)">
        <rect x="-24.1" y="-24.1" width="48.3" height="48.3" rx="12.1" fill="url(#rgrad2)" filter="url(#shadow)" opacity="0.41"/>
        <circle cx="0" cy="0" r="16.1" fill="url(#rgrad3)" opacity="0.29"/>
      </g>
      </g>
      </g>
      </g>
      </g>
      </g>
      </g>
  </g>
  <g transform="translate(510.1, 651.0)">
      <g transform="translate(4.35,1.97) rotate(4.08) scale(1.000)">
        <g transform="translate(5.00,0.85) rotate(9.14) scale(0.980)">
        <g transform="translate(4.42,-0.34) rotate(14.65) scale(0.960)">
        <g transform="translate(2.76,-1.50) rotate(20.00) scale(0.940)" clip-path="url(#clipRect)">
        <g transform="translate(0.43,-2.53) rotate(24.59) scale(0.920)">
        <g transform="translate(-2.01,-3.33) rotate(27.84) scale(0.900)">
        <g transform="translate(-3.96,-3.84) rotate(29.24) scale(0.880)">
        <path d="M32.0,18.5 L0.0,36.9 L-32.0,18.5 L-32.0,-18.5 L-0.0,-36.9 L32.0,-18.5Z" fill="url(#lgrad3)" filter="url(#blur3)" opacity="0.53"/>
        <ellipse cx="0" cy="0" rx="15.4" ry="10.3" fill="#FFFFFF" opacity="0.26"/>
      </g>
      </g>
      </g>
      </g>
      </g>
      </g>
      </g>
  </g>
  <g transform="translate(732.5, 638.1)">
      <g transform="translate(4.42,-1.87) rotate(4.08) scale(1.000)">
        <g transform="translate(2.76,-2.83) rotate(9.14) scale(0.980)">
        <g transform="translate(0.43,-3.54) rotate(14.65) scale(0.960)">
        <g transform="translate(-2.01,-3.93) rotate(20.00) scale(0.940)">
        <g transform="translate(-3.96,-3.97) rotate(24.59) scale(0.920)">
        <g transform="translate(-4.94,-3.66) rotate(27.84) scale(0.900)" mask="url(#maskDynamic)">
        <g transform="translate(-4.71,-3.02) rotate(29.24) scale(0.880)">
        <circle cx="0" cy="0" r="36.7" fill="url(#rgrad4)" filter="url(#shadow)" opacity="0.64"/>
        <text x="0" y="5" text-anchor="middle" font-family="Arial, sans-serif" font-size="14" fill="#FFFFFF" opacity="0.64">304</text>
      </g>
      </g>
      </g>
      </g>
      </g>
      </g>
      </g>
  </g>
  <g transform="translate(961.6, 635.5)">
      <g transform="translate(0.43,-3.99) rotate(4.08) scale(1.000)">
        <g transform="translate(-2.01,-3.91) rotate(9.14) scale(0.980)">
        <g transform="translate(-3.96,-3.48) rotate(14.65) scale(0.960)">
        <g transform="translate(-4.94,-2.74) rotate(20.00) scale(0.940)">
        <g transform="translate(-4.71,-1.76) rotate(24.59) scale(0.920)">
        <g transform="translate(-3.32,-0.62) rotate(27.84) scale(0.900)">
        <g transform="translate(-1.13,0.57) rotate(29.24) scale(0.880)">
        <path d="M0.0,-72.9 L21.4,-29.5 L69.4,-22.5 L34.7,11.3 L42.9,59.0 L0.0,36.5 L-42.9,59.0 L-34.7,11.3 L-69.4,-22.5 L-21.4,-29.5Z" fill="url(#rgrad0)" filter="url(#blur0)" opacity="0.75"/>
      </g>
      </g>
      </g>
      </g>
      </g>
      </g>
      </g>
  </g>
  <g transform="translate(1195.2, 644.4)">
      <g transform="translate(-3.96,-2.44) rotate(4.08) scale(1.000)">
        <g transform="translate(-4.94,-1.39) rotate(9.14) scale(0.980)">
        <g transform="translate(-4.71,-0.22) rotate(14.65) scale(0.960)">
        <g transform="translate(-3.32,0.97) rotate(20.00) scale(0.940)" clip-path="url(#clipStar)">
        <g transform="translate(-1.13,2.07) rotate(24.59) scale(0.920)">
        <g transform="translate(1.35,2.99) rotate(27.84) scale(0.900)">
        <g transform="translate(3.49,3.64) rotate(29.24) scale(0.880)">
        <rect x="-30.3" y="-30.3" width="60.6" height="60.6" rx="15.1" fill="url(#lgrad1)" filter="url(#shadow)" opacity="0.83"/>
        <circle cx="0" cy="0" r="20.2" fill="url(#rgrad2)" opacity="0.58"/>
      </g>
      </g>
      </g>
      </g>
      </g>
      </g>
      </g>
  </g>
  <g transform="translate(1430.0, 660.7)">
      <g transform="translate(-4.71,1.35) rotate(4.08) scale(1.000)">
        <g transform="translate(-3.32,2.40) rotate(9.14) scale(0.980)">
        <g transform="translate(-1.13,3.24) rotate(14.65) scale(0.960)">
        <g transform="translate(1.35,3.79) rotate(20.00) scale(0.940)">
        <g transform="translate(3.49,4.00) rotate(24.59) scale(0.920)">
        <g transform="translate(4.78,3.85) rotate(27.84) scale(0.900)" mask="url(#maskStripes)">
        <g transform="translate(4.90,3.36) rotate(29.24) scale(0.880)">
        <path d="M24.8,14.3 L0.0,28.6 L-24.8,14.3 L-24.8,-14.3 L-0.0,-28.6 L24.8,-14.3Z" fill="url(#rgrad2)" filter="url(#blur2)" opacity="0.88"/>
        <ellipse cx="0" cy="0" rx="11.9" ry="7.9" fill="#FFFFFF" opacity="0.44"/>
      </g>
      </g>
      </g>
      </g>
      </g>
      </g>
      </g>
  </g>
  <g transform="translate(1662.3, 676.6)">
      <g transform="translate(-1.13,3.90) rotate(4.08) scale(1.000)">
        <g transform="translate(1.35,3.99) rotate(9.14) scale(0.980)">
        <g transform="translate(3.49,3.72) rotate(14.65) scale(0.960)">
        <g transform="translate(4.78,3.13) rotate(20.00) scale(0.940)">
        <g transform="translate(4.90,2.25) rotate(24.59) scale(0.920)">
        <g transform="translate(3.82,1.17) rotate(27.84) scale(0.900)">
        <g transform="translate(1.80,-0.01) rotate(29.24) scale(0.880)">
        <circle cx="0" cy="0" r="23.1" fill="url(#rgrad3)" filter="url(#shadow)" opacity="0.90"/>
        <text x="0" y="5" text-anchor="middle" font-family="Arial, sans-serif" font-size="14" fill="#FFFFFF" opacity="0.90">304</text>
      </g>
      </g>
      </g>
      </g>
      </g>
      </g>
      </g>
  </g>
  <g transform="translate(129.2, 964.7)">
      <g transform="translate(3.49,2.86) rotate(4.08) scale(1.000)">
        <g transform="translate(4.78,1.91) rotate(9.14) scale(0.980)">
        <g transform="translate(4.90,0.79) rotate(14.65) scale(0.960)">
        <g transform="translate(3.82,-0.41) rotate(20.00) scale(0.940)" clip-path="url(#clipDynamic)">
        <g transform="translate(1.80,-1.57) rotate(24.59) scale(0.920)">
        <g transform="translate(-0.65,-2.58) rotate(27.84) scale(0.900)">
        <g transform="translate(-2.95,-3.37) rotate(29.24) scale(0.880)">
        <path d="M0.0,-57.3 L16.8,-23.2 L54.5,-17.7 L27.3,8.9 L33.7,46.4 L0.0,28.7 L-33.7,46.4 L-27.3,8.9 L-54.5,-17.7 L-16.8,-23.2Z" fill="url(#lgrad4)" filter="url(#blur4)" opacity="0.88"/>
      </g>
      </g>
      </g>
      </g>
      </g>
      </g>
      </g>
  </g>
  <g transform="translate(394.4, 273.7)" mask="url(#maskGradient)">
    <ellipse cx="0" cy="0" rx="200" ry="150" fill="url(#rgrad0)" filter="url(#blur3)" opacity="0.3"/>
  </g>
  <g transform="translate(823.4, 231.2)" mask="url(#maskCircleFade)">
    <ellipse cx="0" cy="0" rx="200" ry="150" fill="url(#rgrad1)" filter="url(#blur3)" opacity="0.3"/>
  </g>
  <g transform="translate(1230.8, 221.1)" mask="url(#maskStripes)">
    <ellipse cx="0" cy="0" rx="200" ry="150" fill="url(#rgrad2)" filter="url(#blur3)" opacity="0.3"/>
  </g>
</svg>