<?xml version="1.0" encoding="UTF-8"?>
<svg xmlns="http://www.w3.org/2000/svg" viewBox="0 0 1920 1080" width="1920" height="1080">
  <defs>
    <filter id="blur0" x="-50%" y="-50%" width="200%" height="200%">
      <feGaussianBlur in="SourceGraphic" stdDeviation="1"/>
    </filter>
    <filter id="blur1" x="-50%" y="-50%" width="200%" height="200%">
      <feGaussianBlur in="SourceGraphic" stdDeviation="3"/>
    </filter>
    <filter id="blur2" x="-50%" y="-50%" width="200%" height="200%">
      <feGaussianBlur in="SourceGraphic" stdDeviation="5"/>
    </filter>
    <filter id="blur3" x="-50%" y="-50%" width="200%" height="200%">
      <feGaussianBlur in="SourceGraphic" stdDeviation="7"/>
    </filter>
    <filter id="blur4" x="-50%" y="-50%" width="200%" height="200%">
      <feGaussianBlur in="SourceGraphic" stdDeviation="9"/>
    </filter>
    <filter id="shadow" x="-50%" y="-50%" width="200%" height="200%">
      <feGaussianBlur in="SourceAlpha" stdDeviation="3" result="blur"/>
      <feOffset in="blur" dx="4" dy="4" result="offsetBlur"/>
      <feMerge>
        <feMergeNode in="offsetBlur"/>
        <feMergeNode in="SourceGraphic"/>
      </feMerge>
    </filter>
    <linearGradient id="lgrad0" x1="0%" y1="0%" x2="84.1%" y2="86.6%">
      <stop offset="0%" stop-color="#FF6B6B"/>
      <stop offset="33%" stop-color="#4ECDC4"/>
      <stop offset="66%" stop-color="#45B7D1"/>
      <stop offset="100%" stop-color="#96E6A1"/>
    </linearGradient>
    <linearGradient id="lgrad1" x1="0%" y1="0%" x2="61.2%" y2="98.7%">
      <stop offset="0%" stop-color="#FFE66D"/>
      <stop offset="33%" stop-color="#FF6B6B"/>
      <stop offset="66%" stop-color="#C44D58"/>
      <stop offset="100%" stop-color="#8B0000"/>
    </linearGradient>
    <linearGradient id="lgrad2" x1="0%" y1="0%" x2="35.4%" y2="97.8%">
      <stop offset="0%" stop-color="#4169E1"/>
      <stop offset="33%" stop-color="#7B68EE"/>
      <stop offset="66%" stop-color="#9370DB"/>
      <stop offset="100%" stop-color="#FFD700"/>
    </linearGradient>
    <linearGradient id="lgrad3" x1="0%" y1="0%" x2="13.4%" y2="84.1%">
      <stop offset="0%" stop-color="#32CD32"/>
      <stop offset="33%" stop-color="#228B22"/>
      <stop offset="66%" stop-color="#006400"/>
      <stop offset="100%" stop-color="#ADFF2F"/>
    </linearGradient>
    <linearGradient id="lgrad4" x1="0%" y1="0%" x2="1.3%" y2="61.2%">
      <stop offset="0%" stop-color="#FF1493"/>
      <stop offset="33%" stop-color="#FF69B4"/>
      <stop offset="66%" stop-color="#FFB6C1"/>
      <stop offset="100%" stop-color="#FFC0CB"/>
    </linearGradient>
    <radialGradient id="rgrad0" cx="47.2%" cy="54.8%" r="60%">
      <stop offset="0%" stop-color="#FF6B6B" stop-opacity="1"/>
      <stop offset="50%" stop-color="#4ECDC4" stop-opacity="0.8"/>
      <stop offset="100%" stop-color="#45B7D1" stop-opacity="0.6"/>
    </radialGradient>
    <radialGradient id="rgrad1" cx="57.2%" cy="62.8%" r="60%">
      <stop offset="0%" stop-color="#FFE66D" stop-opacity="1"/>
      <stop offset="50%" stop-color="#FF6B6B" stop-opacity="0.8"/>
      <stop offset="100%" stop-color="#C44D58" stop-opacity="0.6"/>
    </radialGradient>
    <radialGradient id="rgrad2" cx="67.2%" cy="30.8%" r="60%">
      <stop offset="0%" stop-color="#4169E1" stop-opacity="1"/>
      <stop offset="50%" stop-color="#7B68EE" stop-opacity="0.8"/>
      <stop offset="100%" stop-color="#9370DB" stop-opacity="0.6"/>
    </radialGradient>
    <radialGradient id="rgrad3" cx="37.2%" cy="38.8%" r="60%">
      <stop offset="0%" stop-color="#32CD32" stop-opacity="1"/>
      <stop offset="50%" stop-color="#228B22" stop-opacity="0.8"/>
      <stop offset="100%" stop-color="#006400" stop-opacity="0.6"/>
    </radialGradient>
    <radialGradient id="rgrad4" cx="47.2%" cy="46.8%" r="60%">
      <stop offset="0%" stop-color="#FF1493" stop-opacity="1"/>
      <stop offset="50%" stop-color="#FF69B4" stop-opacity="0.8"/>
      <stop offset="100%" stop-color="#FFB6C1" stop-opacity="0.6"/>
    </radialGradient>
    <clipPath id="clipCircle">
      <circle cx="0" cy="0" r="50"/>
    </clipPath>
    <clipPath id="clipStar">
      <path d="M0.0,-50.0 L14.7,-20.2 L47.6,-15.5 L23.8,7.7 L29.4,40.5 L0.0,25.0 L-29.4,40.5 L-23.8,7.7 L-47.6,-15.5 L-14.7,-20.2Z"/>
    </clipPath>
    <clipPath id="clipHex">
      <path d="M39.0,22.5 L0.0,45.0 L-39.0,22.5 L-39.0,-22.5 L-0.0,-45.0 L39.0,-22.5Z"/>
    </clipPath>
    <clipPath id="clipRect">
      <rect x="-40" y="-30" width="80" height="60" rx="10"/>
    </clipPath>
    <clipPath id="clipDynamic">
      <circle cx="0" cy="0" r="20.2"/>
    </clipPath>
    <mask id="maskGradient" maskContentUnits="objectBoundingBox">
      <rect x="0" y="0" width="1" height="1" fill="url(#maskGrad)"/>
    </mask>
    <linearGradient id="maskGrad" x1="0%" y1="0%" x2="100%" y2="100%">
      <stop offset="0%" stop-color="white"/>
      <stop offset="100%" stop-color="black"/>
    </linearGradient>
    <mask id="maskCircleFade">
      <circle cx="0" cy="0" r="60" fill="white"/>
      <circle cx="0" cy="0" r="30" fill="black"/>
    </mask>
    <mask id="maskStripes">
      <rect x="-50" y="-50" width="100" height="100" fill="white"/>
      <rect x="-50" y="-40" width="100" height="10" fill="black"/>
      <rect x="-50" y="-20" width="100" height="10" fill="black"/>
      <rect x="-50" y="0" width="100" height="10" fill="black"/>
      <rect x="-50" y="20" width="100" height="10" fill="black"/>
      <rect x="-50" y="40" width="100" height="10" fill="black"/>
    </mask>
    <mask id="maskDynamic">
      <rect x="-60" y="-60" width="120" height="120" fill="white" fill-opacity="0.83"/>
      <circle cx="0" cy="0" r="25" fill="white"/>
    </mask>
  </defs>
  <rect width="1920" height="1080" fill="url(#lgrad0)"/>
  <g transform="translate(70.4, 95.9)">
      <g transform="translate(-4.93,-0.66) rotate(3.82) scale(1.000)">
        <g transform="translate(-4.72,0.54) rotate(6.19) scale(0.980)">
        <g transform="translate(-3.36,1.69) rotate(6.77) scale(0.960)">
        <g transform="translate(-1.17,2.68) rotate(5.30) scale(0.940)" clip-path="url(#clipCircle)">
        <g transform="translate(1.31,3.44) rotate(1.70) scale(0.920)">
        <g transform="translate(3.46,3.89) rotate(-3.95) scale(0.900)">
        <g transform="translate(4.77,3.99) rotate(-11.41) scale(0.880)">
        <path d="M0.0,-71.4 L21.0,-28.9 L67.9,-22.1 L34.0,11.0 L42.0,57.8 L0.0,35.7 L-42.0,57.8 L-34.0,11.0 L-67.9,-22.1 L-21.0,-28.9Z" fill="url(#lgrad0)" filter="url(#blur0)" opacity="0.81"/>
      </g>
      </g>
      </g>
      </g>
      </g>
      </g>
      </g>
  </g>
  <g transform="translate(291.7, 112.7)">
      <g transform="translate(-3.36,2.96) rotate(3.82) scale(1.000)">
        <g transform="translate(-1.17,3.63) rotate(6.19) scale(0.980)">
        <g transform="translate(1.31,3.96) rotate(6.77) scale(0.960)">
        <g transform="translate(3.46,3.95) rotate(5.30) scale(0.940)">
        <g transform="translate(4.77,3.58) rotate(1.70) scale(0.920)">
        <g transform="translate(4.91,2.89) rotate(-3.95) scale(0.900)" mask="url(#maskCircleFade)">
        <g transform="translate(3.85,1.94) rotate(-11.41) scale(0.880)">
        <rect x="-29.0" y="-29.0" width="58.0" height="58.0" rx="14.5" fill="url(#rgrad1)" filter="url(#shadow)" opacity="0.72"/>
        <circle cx="0" cy="0" r="19.3" fill="url(#rgrad2)" opacity="0.50"/>
      </g>
      </g>
      </g>
      </g>
      </g>
      </g>
      </g>
  </g>
  <g transform="translate(519.9, 123.6)">
      <g transform="translate(1.31,3.86) rotate(3.82) scale(1.000)">
        <g transform="translate(3.46,3.38) rotate(6.19) scale(0.980)">
        <g transform="translate(4.77,2.60) rotate(6.77) scale(0.960)">
        <g transform="translate(4.91,1.58) rotate(5.30) scale(0.940)">
        <g transform="translate(3.85,0.43) rotate(1.70) scale(0.920)">
        <g transform="translate(1.84,-0.77) rotate(-3.95) scale(0.900)">
        <g transform="translate(-0.61,-1.89) rotate(-11.41) scale(0.880)">
        <path d="M24.1,13.9 L0.0,27.9 L-24.1,13.9 L-24.1,-13.9 L-0.0,-27.9 L24.1,-13.9Z" fill="url(#rgrad2)" filter="url(#blur2)" opacity="0.61"/>
        <ellipse cx="0" cy="0" rx="11.6" ry="7.7" fill="#FFFFFF" opacity="0.30"/>
      </g>
      </g>
      </g>
      </g>
      </g>
      </g>
      </g>
  </g>
  <g transform="translate(753.0, 123.4)">
      <g transform="translate(4.77,1.21) rotate(3.82) scale(1.000)">
        <g transform="translate(4.91,0.03) rotate(6.19) scale(0.980)">
        <g transform="translate(3.85,-1.16) rotate(6.77) scale(0.960)">
        <g transform="translate(1.84,-2.24) rotate(5.30) scale(0.940)" clip-path="url(#clipRect)">
        <g transform="translate(-0.61,-3.12) rotate(1.70) scale(0.920)">
        <g transform="translate(-2.92,-3.72) rotate(-3.95) scale(0.900)">
        <g transform="translate(-4.51,-3.99) rotate(-11.41) scale(0.880)">
        <circle cx="0" cy="0" r="23.7" fill="url(#lgrad3)" filter="url(#shadow)" opacity="0.49"/>
        <text x="0" y="5" text-anchor="middle" font-family="Arial, sans-serif" font-size="14" fill="#FFFFFF" opacity="0.49">724</text>
      </g>
      </g>
      </g>
      </g>
      </g>
      </g>
      </g>
  </g>
  <g transform="translate(987.8, 112.1)">
      <g transform="translate(3.85,-2.56) rotate(3.82) scale(1.000)">
        <g transform="translate(1.84,-3.35) rotate(6.19) scale(0.980)">
        <g transform="translate(-0.61,-3.85) rotate(6.77) scale(0.960)">
        <g transform="translate(-2.92,-4.00) rotate(5.30) scale(0.940)">
        <g transform="translate(-4.51,-3.79) rotate(1.70) scale(0.920)">
        <g transform="translate(-4.99,-3.25) rotate(-3.95) scale(0.900)" mask="url(#maskGradient)">
        <g transform="translate(-4.26,-2.42) rotate(-11.41) scale(0.880)">
        <path d="M0.0,-59.9 L17.6,-24.2 L56.9,-18.5 L28.5,9.2 L35.2,48.4 L0.0,29.9 L-35.2,48.4 L-28.5,9.2 L-56.9,-18.5 L-17.6,-24.2Z" fill="url(#rgrad4)" filter="url(#blur4)" opacity="0.37"/>
      </g>
      </g>
      </g>
      </g>
      </g>
      </g>
      </g>
  </g>
  <g transform="translate(1220.8, 95.2)">
      <g transform="translate(-0.61,-3.97) rotate(3.82) scale(1.000)">
        <g transform="translate(-2.92,-3.65) rotate(6.19) scale(0.980)">
        <g transform="translate(-4.51,-3.00) rotate(6.77) scale(0.960)">
        <g transform="translate(-4.99,-2.08) rotate(5.30) scale(0.940)">
        <g transform="translate(-4.26,-0.98) rotate(1.70) scale(0.920)">
        <g transform="translate(-2.48,0.21) rotate(-3.95) scale(0.900)">
        <g transform="translate(-0.10,1.38) rotate(-11.41) scale(0.880)">
        <rect x="-36.3" y="-36.3" width="72.5" height="72.5" rx="18.1" fill="url(#rgrad0)" filter="url(#shadow)" opacity="0.26"/>
        <circle cx="0" cy="0" r="24.2" fill="url(#rgrad1)" opacity="0.18"/>
      </g>
      </g>
      </g>
      </g>
      </g>
      </g>
      </g>
  </g>
  <g transform="translate(1448.6, 80.5)">
      <g transform="translate(-4.51,-1.73) rotate(3.82) scale(1.000)">
        <g transform="translate(-4.99,-0.59) rotate(6.19) scale(0.980)">
        <g transform="translate(-4.26,0.60) rotate(6.77) scale(0.960)">
        <g transform="translate(-2.48,1.75) rotate(5.30) scale(0.940)" clip-path="url(#clipStar)">
        <g transform="translate(-0.10,2.73) rotate(1.70) scale(0.920)">
        <g transform="translate(2.31,3.47) rotate(-3.95) scale(0.900)">
        <g transform="translate(4.16,3.90) rotate(-11.41) scale(0.880)">
        <path d="M38.3,22.1 L0.0,44.2 L-38.3,22.1 L-38.3,-22.1 L-0.0,-44.2 L38.3,-22.1Z" fill="url(#lgrad1)" filter="url(#blur1)" opacity="0.18"/>
        <ellipse cx="0" cy="0" rx="18.4" ry="12.3" fill="#FFFFFF" opacity="0.09"/>
      </g>
      </g>
      </g>
      </g>
      </g>
      </g>
      </g>
  </g>
  <g transform="translate(1669.4, 75.0)">
      <g transform="translate(-4.26,2.10) rotate(3.82) scale(1.000)">
        <g transform="translate(-2.48,3.01) rotate(6.19) scale(0.980)">
        <g transform="translate(-0.10,3.65) rotate(6.77) scale(0.960)">
        <g transform="translate(2.31,3.97) rotate(5.30) scale(0.940)">
        <g transform="translate(4.16,3.93) rotate(1.70) scale(0.920)">
        <g transform="translate(4.98,3.55) rotate(-3.95) scale(0.900)" mask="url(#maskDynamic)">
        <g transform="translate(4.59,2.84) rotate(-11.41) scale(0.880)">
        <circle cx="0" cy="0" r="31.1" fill="url(#rgrad2)" filter="url(#shadow)" opacity="0.12"/>
        <text x="0" y="5" text-anchor="middle" font-family="Arial, sans-serif" font-size="14" fill="#FFFFFF" opacity="0.12">724</text>
      </g>
      </g>
      </g>
      </g>
      </g>
      </g>
      </g>
  </g>
  <g transform="translate(123.1, 361.2)">
      <g transform="translate(-0.10,4.00) rotate(3.82) scale(1.000)">
        <g transform="translate(2.31,3.84) rotate(6.19) scale(0.980)">
        <g transform="translate(4.16,3.34) rotate(6.77) scale(0.960)">
        <g transform="translate(4.98,2.55) rotate(5.30) scale(0.940)">
        <g transform="translate(4.59,1.52) rotate(1.70) scale(0.920)">
        <g transform="translate(3.07,0.36) rotate(-3.95) scale(0.900)">
        <g transform="translate(0.80,-0.83) rotate(-11.41) scale(0.880)">
        <path d="M0.0,-48.7 L14.3,-19.7 L46.4,-15.1 L23.2,7.5 L28.6,39.4 L0.0,24.4 L-28.6,39.4 L-23.2,7.5 L-46.4,-15.1 L-14.3,-19.7Z" fill="url(#rgrad3)" filter="url(#blur3)" opacity="0.10"/>
      </g>
      </g>
      </g>
      </g>
      </g>
      </g>
      </g>
  </g>
  <g transform="translate(331.1, 376.3)">
      <g transform="translate(4.16,2.23) rotate(3.82) scale(1.000)">
        <g transform="translate(4.98,1.14) rotate(6.19) scale(0.980)">
        <g transform="translate(4.59,-0.04) rotate(6.77) scale(0.960)">
        <g transform="translate(3.07,-1.22) rotate(5.30) scale(0.940)" clip-path="url(#clipDynamic)">
        <g transform="translate(0.80,-2.29) rotate(1.70) scale(0.920)">
        <g transform="translate(-1.66,-3.16) rotate(-3.95) scale(0.900)">
        <g transform="translate(-3.72,-3.74) rotate(-11.41) scale(0.880)">
        <rect x="-22.8" y="-22.8" width="45.6" height="45.6" rx="11.4" fill="url(#lgrad4)" filter="url(#shadow)" opacity="0.11"/>
        <circle cx="0" cy="0" r="15.2" fill="url(#rgrad0)" opacity="0.08"/>
      </g>
      </g>
      </g>
      </g>
      </g>
      </g>
      </g>
  </g>
  <g transform="translate(536.3, 393.1)">
      <g transform="translate(4.59,-1.59) rotate(3.82) scale(1.000)">
        <g transform="translate(3.07,-2.61) rotate(6.19) scale(0.980)">
        <g transform="translate(0.80,-3.39) rotate(6.77) scale(0.960)">
        <g transform="translate(-1.66,-3.86) rotate(5.30) scale(0.940)">
        <g transform="translate(-3.72,-4.00) rotate(1.70) scale(0.920)">
        <g transform="translate(-4.87,-3.77) rotate(-3.95) scale(0.900)" mask="url(#maskStripes)">
        <g transform="translate(-4.82,-3.21) rotate(-11.41) scale(0.880)">
        <path d="M28.9,16.7 L0.0,33.4 L-28.9,16.7 L-28.9,-16.7 L-0.0,-33.4 L28.9,-16.7Z" fill="url(#rgrad0)" filter="url(#blur0)" opacity="0.16"/>
        <ellipse cx="0" cy="0" rx="13.9" ry="9.3" fill="#FFFFFF" opacity="0.08"/>
      </g>
      </g>
      </g>
      </g>
      </g>
      </g>
      </g>
  </g>
  <g transform="translate(742.5, 403.7)">
      <g transform="translate(0.80,-3.95) rotate(3.82) scale(1.000)">
        <g transform="translate(-1.66,-3.96) rotate(6.19) scale(0.980)">
        <g transform="translate(-3.72,-3.62) rotate(6.77) scale(0.960)">
        <g transform="translate(-4.87,-2.96) rotate(5.30) scale(0.940)">
        <g transform="translate(-4.82,-2.03) rotate(1.70) scale(0.920)">
        <g transform="translate(-3.59,-0.92) rotate(-3.95) scale(0.900)">
        <g transform="translate(-1.49,0.27) rotate(-11.41) scale(0.880)">
        <circle cx="0" cy="0" r="34.9" fill="url(#rgrad1)" filter="url(#shadow)" opacity="0.24"/>
        <text x="0" y="5" text-anchor="middle" font-family="Arial, sans-serif" font-size="14" fill="#FFFFFF" opacity="0.24">724</text>
      </g>
      </g>
      </g>
      </g>
      </g>
      </g>
      </g>
  </g>
  <g transform="translate(953.0, 403.2)">
      <g transform="translate(-3.72,-2.67) rotate(3.82) scale(1.000)">
        <g transform="translate(-4.87,-1.67) rotate(6.19) scale(0.980)">
        <g transform="translate(-4.82,-0.52) rotate(6.77) scale(0.960)">
        <g transform="translate(-3.59,0.67) rotate(5.30) scale(0.940)" clip-path="url(#clipHex)">
        <g transform="translate(-1.49,1.81) rotate(1.70) scale(0.920)">
        <g transform="translate(0.98,2.78) rotate(-3.95) scale(0.900)">
        <g transform="translate(3.21,3.51) rotate(-11.41) scale(0.880)">
        <path d="M0.0,-74.9 L22.0,-30.3 L71.2,-23.1 L35.6,11.6 L44.0,60.6 L0.0,37.4 L-44.0,60.6 L-35.6,11.6 L-71.2,-23.1 L-22.0,-30.3Z" fill="url(#lgrad2)" filter="url(#blur2)" opacity="0.34"/>
      </g>
      </g>
      </g>
      </g>
      </g>
      </g>
      </g>
  </g>
  <g transform="translate(1170.0, 391.8)">
      <g transform="translate(-4.82,1.06) rotate(3.82) scale(1.000)">
        <g transform="translate(-3.59,2.15) rotate(6.19) scale(0.980)">
        <g transform="translate(-1.49,3.05) rotate(6.77) scale(0.960)">
        <g transform="translate(0.98,3.68) rotate(5.30) scale(0.940)">
        <g transform="translate(3.21,3.98) rotate(1.70) scale(0.920)">
        <g transform="translate(4.66,3.92) rotate(-3.95) scale(0.900)" mask="url(#maskCircleFade)">
        <g transform="translate(4.96,3.51) rotate(-11.41) scale(0.880)">
        <rect x="-33.2" y="-33.2" width="66.3" height="66.3" rx="16.6" fill="url(#rgrad3)" filter="url(#shadow)" opacity="0.46"/>
        <circle cx="0" cy="0" r="22.1" fill="url(#rgrad4)" opacity="0.32"/>
      </g>
      </g>
      </g>
      </g>
      </g>
      </g>
      </g>
  </g>
  <g transform="translate(1394.5, 374.8)">
      <g transform="translate(-1.49,3.82) rotate(3.82) scale(1.000)">
        <g transform="translate(0.98,4.00) rotate(6.19) scale(0.980)">
        <g transform="translate(3.21,3.82) rotate(6.77) scale(0.960)">
        <g transform="translate(4.66,3.31) rotate(5.30) scale(0.940)">
        <g transform="translate(4.96,2.49) rotate(1.70) scale(0.920)">
        <g transform="translate(4.05,1.46) rotate(-3.95) scale(0.900)">
        <g transform="translate(2.15,0.29) rotate(-11.41) scale(0.880)">
        <path d="M27.0,15.6 L0.0,31.2 L-27.0,15.6 L-27.0,-15.6 L-0.0,-31.2 L27.0,-15.6Z" fill="url(#rgrad4)" filter="url(#blur4)" opacity="0.58"/>
        <ellipse cx="0" cy="0" rx="13.0" ry="8.7" fill="#FFFFFF" opacity="0.29"/>
      </g>
      </g>
      </g>
      </g>
      </g>
      </g>
      </g>
  </g>
  <g transform="translate(1625.1, 360.3)">
      <g transform="translate(3.21,3.07) rotate(3.82) scale(1.000)">
        <g transform="translate(4.66,2.17) rotate(6.19) scale(0.980)">
        <g transform="translate(4.96,1.08) rotate(6.77) scale(0.960)">
        <g transform="translate(4.05,-0.11) rotate(5.30) scale(0.940)" clip-path="url(#clipCircle)">
        <g transform="translate(2.15,-1.28) rotate(1.70) scale(0.920)">
        <g transform="translate(-0.28,-2.35) rotate(-3.95) scale(0.900)">
        <g transform="translate(-2.64,-3.20) rotate(-11.41) scale(0.880)">
        <circle cx="0" cy="0" r="22.5" fill="url(#lgrad0)" filter="url(#shadow)" opacity="0.69"/>
        <text x="0" y="5" text-anchor="middle" font-family="Arial, sans-serif" font-size="14" fill="#FFFFFF" opacity="0.69">724</text>
      </g>
      </g>
      </g>
      </g>
      </g>
      </g>
      </g>
  </g>
  <g transform="translate(99.4, 635.0)">
      <g transform="translate(4.96,-0.51) rotate(3.82) scale(1.000)">
        <g transform="translate(4.05,-1.66) rotate(6.19) scale(0.980)">
        <g transform="translate(2.15,-2.66) rotate(6.77) scale(0.960)">
        <g transform="translate(-0.28,-3.42) rotate(5.30) scale(0.940)">
        <g transform="translate(-2.64,-3.88) rotate(1.70) scale(0.920)">
        <g transform="translate(-4.35,-3.99) rotate(-3.95) scale(0.900)" mask="url(#maskGradient)">
        <g transform="translate(-5.00,-3.75) rotate(-11.41) scale(0.880)">
        <path d="M0.0,-51.8 L15.2,-21.0 L49.3,-16.0 L24.6,8.0 L30.5,41.9 L0.0,25.9 L-30.5,41.9 L-24.6,8.0 L-49.3,-16.0 L-15.2,-21.0Z" fill="url(#rgrad1)" filter="url(#blur1)" opacity="0.78"/>
      </g>
      </g>
      </g>
      </g>
      </g>
      </g>
      </g>
  </g>
  <g transform="translate(333.9, 641.5)">
      <g transform="translate(2.15,-3.61) rotate(3.82) scale(1.000)">
        <g transform="translate(-0.28,-3.96) rotate(6.19) scale(0.980)">
        <g transform="translate(-2.64,-3.95) rotate(6.77) scale(0.960)">
        <g transform="translate(-4.35,-3.59) rotate(5.30) scale(0.940)">
        <g transform="translate(-5.00,-2.91) rotate(1.70) scale(0.920)">
        <g transform="translate(-4.42,-1.97) rotate(-3.95) scale(0.900)">
        <g transform="translate(-2.76,-0.85) rotate(-11.41) scale(0.880)">
        <rect x="-33.1" y="-33.1" width="66.2" height="66.2" rx="16.5" fill="url(#rgrad2)" filter="url(#shadow)" opacity="0.85"/>
        <circle cx="0" cy="0" r="22.1" fill="url(#rgrad3)" opacity="0.60"/>
      </g>
      </g>
      </g>
      </g>
      </g>
      </g>
      </g>
  </g>
  <g transform="translate(564.9, 656.7)">
      <g transform="translate(-2.64,-3.40) rotate(3.82) scale(1.000)">
        <g transform="translate(-4.35,-2.62) rotate(6.19) scale(0.980)">
        <g transform="translate(-5.00,-1.61) rotate(6.77) scale(0.960)">
        <g transform="translate(-4.42,-0.46) rotate(5.30) scale(0.940)" clip-path="url(#clipRect)">
        <g transform="translate(-2.76,0.74) rotate(1.70) scale(0.920)">
        <g transform="translate(-0.43,1.87) rotate(-3.95) scale(0.900)">
        <g transform="translate(2.01,2.83) rotate(-11.41) scale(0.880)">
        <path d="M38.9,22.5 L0.0,44.9 L-38.9,22.5 L-38.9,-22.5 L-0.0,-44.9 L38.9,-22.5Z" fill="url(#lgrad3)" filter="url(#blur3)" opacity="0.89"/>
        <ellipse cx="0" cy="0" rx="18.7" ry="12.5" fill="#FFFFFF" opacity="0.45"/>
      </g>
      </g>
      </g>
      </g>
      </g>
      </g>
      </g>
  </g>
  <g transform="translate(789.9, 673.5)">
      <g transform="translate(-5.00,-0.06) rotate(3.82) scale(1.000)">
        <g transform="translate(-4.42,1.13) rotate(6.19) scale(0.980)">
        <g transform="translate(-2.76,2.21) rotate(6.77) scale(0.960)">
        <g transform="translate(-0.43,3.10) rotate(5.30) scale(0.940)">
        <g transform="translate(2.01,3.71) rotate(1.70) scale(0.920)">
        <g transform="translate(3.96,3.99) rotate(-3.95) scale(0.900)" mask="url(#maskDynamic)">
        <g transform="translate(4.94,3.91) rotate(-11.41) scale(0.880)">
        <circle cx="0" cy="0" r="34.9" fill="url(#rgrad4)" filter="url(#shadow)" opacity="0.90"/>
        <text x="0" y="5" text-anchor="middle" font-family="Arial, sans-serif" font-size="14" fill="#FFFFFF" opacity="0.90">724</text>
      </g>
      </g>
      </g>
      </g>
      </g>
      </g>
      </g>
  </g>
  <g transform="translate(1007.5, 683.9)">
      <g transform="translate(-2.76,3.33) rotate(3.82) scale(1.000)">
        <g transform="translate(-0.43,3.84) rotate(6.19) scale(0.980)">
        <g transform="translate(2.01,4.00) rotate(6.77) scale(0.960)">
        <g transform="translate(3.96,3.80) rotate(5.30) scale(0.940)">
        <g transform="translate(4.94,3.27) rotate(1.70) scale(0.920)">
        <g transform="translate(4.71,2.44) rotate(-3.95) scale(0.900)">
        <g transform="translate(3.32,1.40) rotate(-11.41) scale(0.880)">
        <path d="M0.0,-55.8 L16.4,-22.6 L53.1,-17.2 L26.5,8.6 L32.8,45.2 L0.0,27.9 L-32.8,45.2 L-26.5,8.6 L-53.1,-17.2 L-16.4,-22.6Z" fill="url(#rgrad0)" filter="url(#blur0)" opacity="0.87"/>
      </g>
      </g>
      </g>
      </g>
      </g>
      </g>
      </g>
  </g>
  <g transform="translate(1218.4, 683.0)">
      <g transform="translate(2.01,3.66) rotate(3.82) scale(1.000)">
        <g transform="translate(3.96,3.02) rotate(6.19) scale(0.980)">
        <g transform="translate(4.94,2.11) rotate(6.77) scale(0.960)">
        <g transform="translate(4.71,1.01) rotate(5.30) scale(0.940)" clip-path="url(#clipStar)">
        <g transform="translate(3.32,-0.17) rotate(1.70) scale(0.920)">
        <g transform="translate(1.13,-1.35) rotate(-3.95) scale(0.900)">
        <g transform="translate(-1.35,-2.40) rotate(-11.41) scale(0.880)">
        <rect x="-22.8" y="-22.8" width="45.6" height="45.6" rx="11.4" fill="url(#lgrad1)" filter="url(#shadow)" opacity="0.80"/>
        <circle cx="0" cy="0" r="15.2" fill="url(#rgrad2)" opacity="0.56"/>
      </g>
      </g>
      </g>
      </g>
      </g>
      </g>
      </g>
  </g>
  <g transform="translate(1424.8, 671.4)">
      <g transform="translate(4.94,0.62) rotate(3.82) scale(1.000)">
        <g transform="translate(4.71,-0.57) rotate(6.19) scale(0.980)">
        <g transform="translate(3.32,-1.72) rotate(6.77) scale(0.960)">
        <g transform="translate(1.13,-2.71) rotate(5.30) scale(0.940)">
        <g transform="translate(-1.35,-3.46) rotate(1.70) scale(0.920)">
        <g transform="translate(-3.49,-3.90) rotate(-3.95) scale(0.900)" mask="url(#maskStripes)">
        <g transform="translate(-4.78,-3.99) rotate(-11.41) scale(0.880)">
        <path d="M25.3,14.6 L0.0,29.2 L-25.3,14.6 L-25.3,-14.6 L-0.0,-29.2 L25.3,-14.6Z" fill="url(#rgrad2)" filter="url(#blur2)" opacity="0.71"/>
        <ellipse cx="0" cy="0" rx="12.2" ry="8.1" fill="#FFFFFF" opacity="0.35"/>
      </g>
      </g>
      </g>
      </g>
      </g>
      </g>
      </g>
  </g>
  <g transform="translate(1630.0, 654.4)">
      <g transform="translate(3.32,-2.99) rotate(3.82) scale(1.000)">
        <g transform="translate(1.13,-3.64) rotate(6.19) scale(0.980)">
        <g transform="translate(-1.35,-3.97) rotate(6.77) scale(0.960)">
        <g transform="translate(-3.49,-3.94) rotate(5.30) scale(0.940)">
        <g transform="translate(-4.78,-3.56) rotate(1.70) scale(0.920)">
        <g transform="translate(-4.90,-2.86) rotate(-3.95) scale(0.900)">
        <g transform="translate(-3.82,-1.91) rotate(-11.41) scale(0.880)">
        <circle cx="0" cy="0" r="31.1" fill="url(#rgrad3)" filter="url(#shadow)" opacity="0.60"/>
        <text x="0" y="5" text-anchor="middle" font-family="Arial, sans-serif" font-size="14" fill="#FFFFFF" opacity="0.60">724</text>
      </g>
      </g>
      </g>
      </g>
      </g>
      </g>
      </g>
  </g>
  <g transform="translate(77.7, 920.0)">
      <g transform="translate(-1.35,-3.85) rotate(3.82) scale(1.000)">
        <g transform="translate(-3.49,-3.36) rotate(6.19) scale(0.980)">
        <g transform="translate(-4.78,-2.57) rotate(6.77) scale(0.960)">
        <g transform="translate(-4.90,-1.55) rotate(5.30) scale(0.940)" clip-path="url(#clipDynamic)">
        <g transform="translate(-3.82,-0.39) rotate(1.70) scale(0.920)">
        <g transform="translate(-1.80,0.80) rotate(-3.95) scale(0.900)">
        <g transform="translate(0.65,1.93) rotate(-11.41) scale(0.880)">
        <path d="M0.0,-73.6 L21.6,-29.8 L70.0,-22.8 L35.0,11.4 L43.3,59.6 L0.0,36.8 L-43.3,59.6 L-35.0,11.4 L-70.0,-22.8 L-21.6,-29.8Z" fill="url(#lgrad4)" filter="url(#blur4)" opacity="0.48"/>
      </g>
      </g>
      </g>
      </g>
      </g>
      </g>
      </g>
  </g>
  <g transform="translate(201.4, 286.9)" mask="url(#maskGradient)">
    <ellipse cx="0" cy="0" rx="200" ry="150" fill="url(#rgrad0)" filter="url(#blur3)" opacity="0.3"/>
  </g>
  <g transform="translate(732.9, 340.8)" mask="url(#maskCircleFade)">
    <ellipse cx="0" cy="0" rx="200" ry="150" fill="url(#rgrad1)" filter="url(#blur3)" opacity="0.3"/>
  </g>
  <g transform="translate(1326.1, 375.5)" mask="url(#maskStripes)">
    <ellipse cx="0" cy="0" rx="200" ry="150" fill="url(#rgrad2)" filter="url(#blur3)" opacity="0.3"/>
  </g>
</svg>