<?xml version="1.0" encoding="UTF-8"?>
<svg xmlns="http://www.w3.org/2000/svg" viewBox="0 0 1920 1080" width="1920" height="1080">
  <defs>
    <filter id="blur0" x="-50%" y="-50%" width="200%" height="200%">
      <feGaussianBlur in="SourceGraphic" stdDeviation="1"/>
    </filter>
    <filter id="blur1" x="-50%" y="-50%" width="200%" height="200%">
      <feGaussianBlur in="SourceGraphic" stdDeviation="3"/>
    </filter>
    <filter id="blur2" x="-50%" y="-50%" width="200%" height="200%">
      <feGaussianBlur in="SourceGraphic" stdDeviation="5"/>
    </filter>
    <filter id="blur3" x="-50%" y="-50%" width="200%" height="200%">
      <feGaussianBlur in="SourceGraphic" stdDeviation="7"/>
    </filter>
    <filter id="blur4" x="-50%" y="-50%" width="200%" height="200%">
      <feGaussianBlur in="SourceGraphic" stdDeviation="9"/>
    </filter>
    <filter id="shadow" x="-50%" y="-50%" width="200%" height="200%">
      <feGaussianBlur in="SourceAlpha" stdDeviation="3" result="blur"/>
      <feOffset in="blur" dx="4" dy="4" result="offsetBlur"/>
      <feMerge>
        <feMergeNode in="offsetBlur"/>
        <feMergeNode in="SourceGraphic"/>
      </feMerge>
    </filter>
    <linearGradient id="lgrad0" x1="0%" y1="0%" x2="74.2%" y2="6.3%">
      <stop offset="0%" stop-color="#FF6B6B"/>
      <stop offset="33%" stop-color="#4ECDC4"/>
      <stop offset="66%" stop-color="#45B7D1"/>
      <stop offset="100%" stop-color="#96E6A1"/>
    </linearGradient>
    <linearGradient id="lgrad1" x1="0%" y1="0%" x2="92.9%" y2="24.2%">
      <stop offset="0%" stop-color="#FFE66D"/>
      <stop offset="33%" stop-color="#FF6B6B"/>
      <stop offset="66%" stop-color="#C44D58"/>
      <stop offset="100%" stop-color="#8B0000"/>
    </linearGradient>
    <linearGradient id="lgrad2" x1="0%" y1="0%" x2="100.0%" y2="49.1%">
      <stop offset="0%" stop-color="#4169E1"/>
      <stop offset="33%" stop-color="#7B68EE"/>
      <stop offset="66%" stop-color="#9370DB"/>
      <stop offset="100%" stop-color="#FFD700"/>
    </linearGradient>
    <linearGradient id="lgrad3" x1="0%" y1="0%" x2="93.7%" y2="74.2%">
      <stop offset="0%" stop-color="#32CD32"/>
      <stop offset="33%" stop-color="#228B22"/>
      <stop offset="66%" stop-color="#006400"/>
      <stop offset="100%" stop-color="#ADFF2F"/>
    </linearGradient>
    <linearGradient id="lgrad4" x1="0%" y1="0%" x2="75.8%" y2="92.9%">
      <stop offset="0%" stop-color="#FF1493"/>
      <stop offset="33%" stop-color="#FF69B4"/>
      <stop offset="66%" stop-color="#FFB6C1"/>
      <stop offset="100%" stop-color="#FFC0CB"/>
    </linearGradient>
    <radialGradient id="rgrad0" cx="62.4%" cy="51.6%" r="60%">
      <stop offset="0%" stop-color="#FF6B6B" stop-opacity="1"/>
      <stop offset="50%" stop-color="#4ECDC4" stop-opacity="0.8"/>
      <stop offset="100%" stop-color="#45B7D1" stop-opacity="0.6"/>
    </radialGradient>
    <radialGradient id="rgrad1" cx="32.4%" cy="59.6%" r="60%">
      <stop offset="0%" stop-color="#FFE66D" stop-opacity="1"/>
      <stop offset="50%" stop-color="#FF6B6B" stop-opacity="0.8"/>
      <stop offset="100%" stop-color="#C44D58" stop-opacity="0.6"/>
    </radialGradient>
    <radialGradient id="rgrad2" cx="42.4%" cy="67.6%" r="60%">
      <stop offset="0%" stop-color="#4169E1" stop-opacity="1"/>
      <stop offset="50%" stop-color="#7B68EE" stop-opacity="0.8"/>
      <stop offset="100%" stop-color="#9370DB" stop-opacity="0.6"/>
    </radialGradient>
    <radialGradient id="rgrad3" cx="52.4%" cy="35.6%" r="60%">
      <stop offset="0%" stop-color="#32CD32" stop-opacity="1"/>
      <stop offset="50%" stop-color="#228B22" stop-opacity="0.8"/>
      <stop offset="100%" stop-color="#006400" stop-opacity="0.6"/>
    </radialGradient>
    <radialGradient id="rgrad4" cx="62.4%" cy="43.6%" r="60%">
      <stop offset="0%" stop-color="#FF1493" stop-opacity="1"/>
      <stop offset="50%" stop-color="#FF69B4" stop-opacity="0.8"/>
      <stop offset="100%" stop-color="#FFB6C1" stop-opacity="0.6"/>
    </radialGradient>
    <clipPath id="clipCircle">
      <circle cx="0" cy="0" r="50"/>
    </clipPath>
    <clipPath id="clipStar">
      <path d="M0.0,-50.0 L14.7,-20.2 L47.6,-15.5 L23.8,7.7 L29.4,40.5 L0.0,25.0 L-29.4,40.5 L-23.8,7.7 L-47.6,-15.5 L-14.7,-20.2Z"/>
    </clipPath>
    <clipPath id="clipHex">
      <path d="M39.0,22.5 L0.0,45.0 L-39.0,22.5 L-39.0,-22.5 L-0.0,-45.0 L39.0,-22.5Z"/>
    </clipPath>
    <clipPath id="clipRect">
      <rect x="-40" y="-30" width="80" height="60" rx="10"/>
    </clipPath>
    <clipPath id="clipDynamic">
      <circle cx="0" cy="0" r="34.3"/>
    </clipPath>
    <mask id="maskGradient" maskContentUnits="objectBoundingBox">
      <rect x="0" y="0" width="1" height="1" fill="url(#maskGrad)"/>
    </mask>
    <linearGradient id="maskGrad" x1="0%" y1="0%" x2="100%" y2="100%">
      <stop offset="0%" stop-color="white"/>
      <stop offset="100%" stop-color="black"/>
    </linearGradient>
    <mask id="maskCircleFade">
      <circle cx="0" cy="0" r="60" fill="white"/>
      <circle cx="0" cy="0" r="30" fill="black"/>
    </mask>
    <mask id="maskStripes">
      <rect x="-50" y="-50" width="100" height="100" fill="white"/>
      <rect x="-50" y="-40" width="100" height="10" fill="black"/>
      <rect x="-50" y="-20" width="100" height="10" fill="black"/>
      <rect x="-50" y="0" width="100" height="10" fill="black"/>
      <rect x="-50" y="20" width="100" height="10" fill="black"/>
      <rect x="-50" y="40" width="100" height="10" fill="black"/>
    </mask>
    <mask id="maskDynamic">
      <rect x="-60" y="-60" width="120" height="120" fill="white" fill-opacity="1.00"/>
      <circle cx="0" cy="0" r="25" fill="white"/>
    </mask>
  </defs>
  <rect width="1920" height="1080" fill="url(#lgrad0)"/>
  <g transform="translate(98.6, 75.0)">
      <g transform="translate(-0.24,-4.00) rotate(5.00) scale(1.000)">
        <g transform="translate(-2.60,-3.76) rotate(9.75) scale(0.980)">
        <g transform="translate(-4.33,-3.19) rotate(13.67) scale(0.960)">
        <g transform="translate(-5.00,-2.34) rotate(16.24) scale(0.940)" clip-path="url(#clipCircle)">
        <g transform="translate(-4.44,-1.27) rotate(16.99) scale(0.920)">
        <g transform="translate(-2.80,-0.09) rotate(15.61) scale(0.900)">
        <g transform="translate(-0.47,1.09) rotate(11.91) scale(0.880)">
        <path d="M0.0,-75.0 L22.0,-30.3 L71.3,-23.2 L35.7,11.6 L44.1,60.7 L0.0,37.5 L-44.1,60.7 L-35.7,11.6 L-71.3,-23.2 L-22.0,-30.3Z" fill="url(#lgrad0)" filter="url(#blur0)" opacity="0.90"/>
      </g>
      </g>
      </g>
      </g>
      </g>
      </g>
      </g>
  </g>
  <g transform="translate(304.4, 81.7)">
      <g transform="translate(-4.33,-2.00) rotate(5.00) scale(1.000)">
        <g transform="translate(-5.00,-0.89) rotate(9.75) scale(0.980)">
        <g transform="translate(-4.44,0.31) rotate(13.67) scale(0.960)">
        <g transform="translate(-2.80,1.47) rotate(16.24) scale(0.940)">
        <g transform="translate(-0.47,2.50) rotate(16.99) scale(0.920)">
        <g transform="translate(1.97,3.31) rotate(15.61) scale(0.900)" mask="url(#maskCircleFade)">
        <g transform="translate(3.93,3.83) rotate(11.91) scale(0.880)">
        <rect x="-33.9" y="-33.9" width="67.8" height="67.8" rx="17.0" fill="url(#rgrad1)" filter="url(#shadow)" opacity="0.88"/>
        <circle cx="0" cy="0" r="22.6" fill="url(#rgrad2)" opacity="0.62"/>
      </g>
      </g>
      </g>
      </g>
      </g>
      </g>
      </g>
  </g>
  <g transform="translate(514.0, 96.9)">
      <g transform="translate(-4.44,1.83) rotate(5.00) scale(1.000)">
        <g transform="translate(-2.80,2.80) rotate(9.75) scale(0.980)">
        <g transform="translate(-0.47,3.52) rotate(13.67) scale(0.960)">
        <g transform="translate(1.97,3.92) rotate(16.24) scale(0.940)">
        <g transform="translate(3.93,3.98) rotate(16.99) scale(0.920)">
        <g transform="translate(4.93,3.68) rotate(15.61) scale(0.900)">
        <g transform="translate(4.72,3.04) rotate(11.91) scale(0.880)">
        <path d="M27.8,16.0 L0.0,32.1 L-27.8,16.0 L-27.8,-16.0 L-0.0,-32.1 L27.8,-16.0Z" fill="url(#rgrad2)" filter="url(#blur2)" opacity="0.82"/>
        <ellipse cx="0" cy="0" rx="13.4" ry="8.9" fill="#FFFFFF" opacity="0.41"/>
      </g>
      </g>
      </g>
      </g>
      </g>
      </g>
      </g>
  </g>
  <g transform="translate(730.0, 113.6)">
      <g transform="translate(-0.47,3.98) rotate(5.00) scale(1.000)">
        <g transform="translate(1.97,3.92) rotate(9.75) scale(0.980)">
        <g transform="translate(3.93,3.50) rotate(13.67) scale(0.960)">
        <g transform="translate(4.93,2.77) rotate(16.24) scale(0.940)" clip-path="url(#clipRect)">
        <g transform="translate(4.72,1.79) rotate(16.99) scale(0.920)">
        <g transform="translate(3.36,0.66) rotate(15.61) scale(0.900)">
        <g transform="translate(1.17,-0.54) rotate(11.91) scale(0.880)">
        <circle cx="0" cy="0" r="22.6" fill="url(#lgrad3)" filter="url(#shadow)" opacity="0.74"/>
        <text x="0" y="5" text-anchor="middle" font-family="Arial, sans-serif" font-size="14" fill="#FFFFFF" opacity="0.74">508</text>
      </g>
      </g>
      </g>
      </g>
      </g>
      </g>
      </g>
  </g>
  <g transform="translate(953.3, 123.9)">
      <g transform="translate(3.93,2.47) rotate(5.00) scale(1.000)">
        <g transform="translate(4.93,1.43) rotate(9.75) scale(0.980)">
        <g transform="translate(4.72,0.26) rotate(13.67) scale(0.960)">
        <g transform="translate(3.36,-0.93) rotate(16.24) scale(0.940)">
        <g transform="translate(1.17,-2.04) rotate(16.99) scale(0.920)">
        <g transform="translate(-1.30,-2.96) rotate(15.61) scale(0.900)" mask="url(#maskGradient)">
        <g transform="translate(-3.46,-3.63) rotate(11.91) scale(0.880)">
        <path d="M0.0,-50.5 L14.8,-20.4 L48.0,-15.6 L24.0,7.8 L29.7,40.8 L0.0,25.2 L-29.7,40.8 L-24.0,7.8 L-48.0,-15.6 L-14.8,-20.4Z" fill="url(#rgrad4)" filter="url(#blur4)" opacity="0.64"/>
      </g>
      </g>
      </g>
      </g>
      </g>
      </g>
      </g>
  </g>
  <g transform="translate(1183.2, 123.0)">
      <g transform="translate(4.72,-1.31) rotate(5.00) scale(1.000)">
        <g transform="translate(3.36,-2.37) rotate(9.75) scale(0.980)">
        <g transform="translate(1.17,-3.22) rotate(13.67) scale(0.960)">
        <g transform="translate(-1.30,-3.78) rotate(16.24) scale(0.940)">
        <g transform="translate(-3.46,-4.00) rotate(16.99) scale(0.920)">
        <g transform="translate(-4.77,-3.86) rotate(15.61) scale(0.900)">
        <g transform="translate(-4.91,-3.38) rotate(11.91) scale(0.880)">
        <rect x="-32.3" y="-32.3" width="64.6" height="64.6" rx="16.1" fill="url(#rgrad0)" filter="url(#shadow)" opacity="0.52"/>
        <circle cx="0" cy="0" r="21.5" fill="url(#rgrad1)" opacity="0.36"/>
      </g>
      </g>
      </g>
      </g>
      </g>
      </g>
      </g>
  </g>
  <g transform="translate(1417.2, 111.2)">
      <g transform="translate(1.17,-3.89) rotate(5.00) scale(1.000)">
        <g transform="translate(-1.30,-3.99) rotate(9.75) scale(0.980)">
        <g transform="translate(-3.46,-3.74) rotate(13.67) scale(0.960)">
        <g transform="translate(-4.77,-3.15) rotate(16.24) scale(0.940)" clip-path="url(#clipStar)">
        <g transform="translate(-4.91,-2.28) rotate(16.99) scale(0.920)">
        <g transform="translate(-3.85,-1.21) rotate(15.61) scale(0.900)">
        <g transform="translate(-1.84,-0.03) rotate(11.91) scale(0.880)">
        <path d="M38.7,22.3 L0.0,44.7 L-38.7,22.3 L-38.7,-22.3 L-0.0,-44.7 L38.7,-22.3Z" fill="url(#lgrad1)" filter="url(#blur1)" opacity="0.40"/>
        <ellipse cx="0" cy="0" rx="18.6" ry="12.4" fill="#FFFFFF" opacity="0.20"/>
      </g>
      </g>
      </g>
      </g>
      </g>
      </g>
      </g>
  </g>
  <g transform="translate(1651.8, 94.2)">
      <g transform="translate(-3.46,-2.89) rotate(5.00) scale(1.000)">
        <g transform="translate(-4.77,-1.94) rotate(9.75) scale(0.980)">
        <g transform="translate(-4.91,-0.82) rotate(13.67) scale(0.960)">
        <g transform="translate(-3.85,0.37) rotate(16.24) scale(0.940)">
        <g transform="translate(-1.84,1.53) rotate(16.99) scale(0.920)">
        <g transform="translate(0.61,2.56) rotate(15.61) scale(0.900)" mask="url(#maskDynamic)">
        <g transform="translate(2.91,3.35) rotate(11.91) scale(0.880)">
        <circle cx="0" cy="0" r="35.5" fill="url(#rgrad2)" filter="url(#shadow)" opacity="0.29"/>
        <text x="0" y="5" text-anchor="middle" font-family="Arial, sans-serif" font-size="14" fill="#FFFFFF" opacity="0.29">508</text>
      </g>
      </g>
      </g>
      </g>
      </g>
      </g>
      </g>
  </g>
  <g transform="translate(123.6, 359.9)">
      <g transform="translate(-4.91,0.77) rotate(5.00) scale(1.000)">
        <g transform="translate(-3.85,1.89) rotate(9.75) scale(0.980)">
        <g transform="translate(-1.84,2.85) rotate(13.67) scale(0.960)">
        <g transform="translate(0.61,3.55) rotate(16.24) scale(0.940)">
        <g transform="translate(2.91,3.94) rotate(16.99) scale(0.920)">
        <g transform="translate(4.51,3.97) rotate(15.61) scale(0.900)">
        <g transform="translate(4.99,3.65) rotate(11.91) scale(0.880)">
        <path d="M0.0,-57.5 L16.9,-23.2 L54.7,-17.8 L27.3,8.9 L33.8,46.5 L0.0,28.7 L-33.8,46.5 L-27.3,8.9 L-54.7,-17.8 L-16.9,-23.2Z" fill="url(#rgrad3)" filter="url(#blur3)" opacity="0.20"/>
      </g>
      </g>
      </g>
      </g>
      </g>
      </g>
      </g>
  </g>
  <g transform="translate(349.6, 355.1)">
      <g transform="translate(-1.84,3.72) rotate(5.00) scale(1.000)">
        <g transform="translate(0.61,3.99) rotate(9.75) scale(0.980)">
        <g transform="translate(2.91,3.90) rotate(13.67) scale(0.960)">
        <g transform="translate(4.51,3.47) rotate(16.24) scale(0.940)" clip-path="url(#clipDynamic)">
        <g transform="translate(4.99,2.72) rotate(16.99) scale(0.920)">
        <g transform="translate(4.26,1.73) rotate(15.61) scale(0.900)">
        <g transform="translate(2.48,0.59) rotate(11.91) scale(0.880)">
        <rect x="-23.1" y="-23.1" width="46.2" height="46.2" rx="11.5" fill="url(#lgrad4)" filter="url(#shadow)" opacity="0.13"/>
        <circle cx="0" cy="0" r="15.4" fill="url(#rgrad0)" opacity="0.09"/>
      </g>
      </g>
      </g>
      </g>
      </g>
      </g>
      </g>
  </g>
  <g transform="translate(568.3, 361.9)">
      <g transform="translate(2.91,3.25) rotate(5.00) scale(1.000)">
        <g transform="translate(4.51,2.42) rotate(9.75) scale(0.980)">
        <g transform="translate(4.99,1.37) rotate(13.67) scale(0.960)">
        <g transform="translate(4.26,0.19) rotate(16.24) scale(0.940)">
        <g transform="translate(2.48,-1.00) rotate(16.99) scale(0.920)">
        <g transform="translate(0.10,-2.10) rotate(15.61) scale(0.900)" mask="url(#maskStripes)">
        <g transform="translate(-2.31,-3.01) rotate(11.91) scale(0.880)">
        <path d="M24.7,14.3 L0.0,28.6 L-24.7,14.3 L-24.7,-14.3 L-0.0,-28.6 L24.7,-14.3Z" fill="url(#rgrad0)" filter="url(#blur0)" opacity="0.10"/>
        <ellipse cx="0" cy="0" rx="11.9" ry="7.9" fill="#FFFFFF" opacity="0.05"/>
      </g>
      </g>
      </g>
      </g>
      </g>
      </g>
      </g>
  </g>
  <g transform="translate(780.1, 377.3)">
      <g transform="translate(4.99,-0.21) rotate(5.00) scale(1.000)">
        <g transform="translate(4.26,-1.38) rotate(9.75) scale(0.980)">
        <g transform="translate(2.48,-2.43) rotate(13.67) scale(0.960)">
        <g transform="translate(0.10,-3.26) rotate(16.24) scale(0.940)">
        <g transform="translate(-2.31,-3.80) rotate(16.99) scale(0.920)">
        <g transform="translate(-4.15,-4.00) rotate(15.61) scale(0.900)">
        <g transform="translate(-4.98,-3.84) rotate(11.91) scale(0.880)">
        <circle cx="0" cy="0" r="30.2" fill="url(#rgrad1)" filter="url(#shadow)" opacity="0.11"/>
        <text x="0" y="5" text-anchor="middle" font-family="Arial, sans-serif" font-size="14" fill="#FFFFFF" opacity="0.11">508</text>
      </g>
      </g>
      </g>
      </g>
      </g>
      </g>
      </g>
  </g>
  <g transform="translate(987.0, 394.0)">
      <g transform="translate(2.48,-3.47) rotate(5.00) scale(1.000)">
        <g transform="translate(0.10,-3.90) rotate(9.75) scale(0.980)">
        <g transform="translate(-2.31,-3.99) rotate(13.67) scale(0.960)">
        <g transform="translate(-4.15,-3.71) rotate(16.24) scale(0.940)" clip-path="url(#clipHex)">
        <g transform="translate(-4.98,-3.11) rotate(16.99) scale(0.920)">
        <g transform="translate(-4.59,-2.23) rotate(15.61) scale(0.900)">
        <g transform="translate(-3.07,-1.14) rotate(11.91) scale(0.880)">
        <path d="M0.0,-72.8 L21.4,-29.5 L69.3,-22.5 L34.6,11.3 L42.8,58.9 L0.0,36.4 L-42.8,58.9 L-34.6,11.3 L-69.3,-22.5 L-21.4,-29.5Z" fill="url(#lgrad2)" filter="url(#blur2)" opacity="0.15"/>
      </g>
      </g>
      </g>
      </g>
      </g>
      </g>
      </g>
  </g>
  <g transform="translate(1192.2, 404.0)">
      <g transform="translate(-2.31,-3.55) rotate(5.00) scale(1.000)">
        <g transform="translate(-4.15,-2.84) rotate(9.75) scale(0.980)">
        <g transform="translate(-4.98,-1.88) rotate(13.67) scale(0.960)">
        <g transform="translate(-4.59,-0.76) rotate(16.24) scale(0.940)">
        <g transform="translate(-3.07,0.44) rotate(16.99) scale(0.920)">
        <g transform="translate(-0.80,1.59) rotate(15.61) scale(0.900)" mask="url(#maskCircleFade)">
        <g transform="translate(1.66,2.61) rotate(11.91) scale(0.880)">
        <rect x="-36.7" y="-36.7" width="73.5" height="73.5" rx="18.4" fill="url(#rgrad3)" filter="url(#shadow)" opacity="0.22"/>
        <circle cx="0" cy="0" r="24.5" fill="url(#rgrad4)" opacity="0.15"/>
      </g>
      </g>
      </g>
      </g>
      </g>
      </g>
      </g>
  </g>
  <g transform="translate(1399.2, 402.8)">
      <g transform="translate(-4.98,-0.36) rotate(5.00) scale(1.000)">
        <g transform="translate(-4.59,0.83) rotate(9.75) scale(0.980)">
        <g transform="translate(-3.07,1.95) rotate(13.67) scale(0.960)">
        <g transform="translate(-0.80,2.90) rotate(16.24) scale(0.940)">
        <g transform="translate(1.66,3.58) rotate(16.99) scale(0.920)">
        <g transform="translate(3.72,3.95) rotate(15.61) scale(0.900)">
        <g transform="translate(4.87,3.96) rotate(11.91) scale(0.880)">
        <path d="M32.1,18.5 L0.0,37.0 L-32.1,18.5 L-32.1,-18.5 L-0.0,-37.0 L32.1,-18.5Z" fill="url(#rgrad4)" filter="url(#blur4)" opacity="0.31"/>
        <ellipse cx="0" cy="0" rx="15.4" ry="10.3" fill="#FFFFFF" opacity="0.16"/>
      </g>
      </g>
      </g>
      </g>
      </g>
      </g>
      </g>
  </g>
  <g transform="translate(1611.4, 390.8)">
      <g transform="translate(-3.07,3.16) rotate(5.00) scale(1.000)">
        <g transform="translate(-0.80,3.74) rotate(9.75) scale(0.980)">
        <g transform="translate(1.66,3.99) rotate(13.67) scale(0.960)">
        <g transform="translate(3.72,3.89) rotate(16.24) scale(0.940)" clip-path="url(#clipCircle)">
        <g transform="translate(4.87,3.43) rotate(16.99) scale(0.920)">
        <g transform="translate(4.82,2.67) rotate(15.61) scale(0.900)">
        <g transform="translate(3.60,1.67) rotate(11.91) scale(0.880)">
        <circle cx="0" cy="0" r="24.2" fill="url(#lgrad0)" filter="url(#shadow)" opacity="0.42"/>
        <text x="0" y="5" text-anchor="middle" font-family="Arial, sans-serif" font-size="14" fill="#FFFFFF" opacity="0.42">508</text>
      </g>
      </g>
      </g>
      </g>
      </g>
      </g>
      </g>
  </g>
  <g transform="translate(70.6, 653.8)">
      <g transform="translate(1.66,3.77) rotate(5.00) scale(1.000)">
        <g transform="translate(3.72,3.21) rotate(9.75) scale(0.980)">
        <g transform="translate(4.87,2.36) rotate(13.67) scale(0.960)">
        <g transform="translate(4.82,1.30) rotate(16.24) scale(0.940)">
        <g transform="translate(3.60,0.13) rotate(16.99) scale(0.920)">
        <g transform="translate(1.49,-1.06) rotate(15.61) scale(0.900)" mask="url(#maskGradient)">
        <g transform="translate(-0.98,-2.15) rotate(11.91) scale(0.880)">
        <path d="M0.0,-45.7 L13.4,-18.5 L43.5,-14.1 L21.8,7.1 L26.9,37.0 L0.0,22.9 L-26.9,37.0 L-21.8,7.1 L-43.5,-14.1 L-13.4,-18.5Z" fill="url(#rgrad1)" filter="url(#blur1)" opacity="0.54"/>
      </g>
      </g>
      </g>
      </g>
      </g>
      </g>
      </g>
  </g>
  <g transform="translate(296.9, 639.6)">
      <g transform="translate(4.87,0.92) rotate(5.00) scale(1.000)">
        <g transform="translate(4.82,-0.27) rotate(9.75) scale(0.980)">
        <g transform="translate(3.60,-1.44) rotate(13.67) scale(0.960)">
        <g transform="translate(1.49,-2.48) rotate(16.24) scale(0.940)">
        <g transform="translate(-0.98,-3.30) rotate(16.99) scale(0.920)">
        <g transform="translate(-3.21,-3.82) rotate(15.61) scale(0.900)">
        <g transform="translate(-4.66,-4.00) rotate(11.91) scale(0.880)">
        <rect x="-28.1" y="-28.1" width="56.2" height="56.2" rx="14.1" fill="url(#rgrad2)" filter="url(#shadow)" opacity="0.66"/>
        <circle cx="0" cy="0" r="18.7" fill="url(#rgrad3)" opacity="0.46"/>
      </g>
      </g>
      </g>
      </g>
      </g>
      </g>
      </g>
  </g>
  <g transform="translate(528.9, 635.1)">
      <g transform="translate(3.60,-2.78) rotate(5.00) scale(1.000)">
        <g transform="translate(1.49,-3.51) rotate(9.75) scale(0.980)">
        <g transform="translate(-0.98,-3.92) rotate(13.67) scale(0.960)">
        <g transform="translate(-3.21,-3.98) rotate(16.24) scale(0.940)" clip-path="url(#clipRect)">
        <g transform="translate(-4.66,-3.69) rotate(16.99) scale(0.920)">
        <g transform="translate(-4.96,-3.07) rotate(15.61) scale(0.900)">
        <g transform="translate(-4.05,-2.17) rotate(11.91) scale(0.880)">
        <path d="M36.5,21.1 L0.0,42.1 L-36.5,21.1 L-36.5,-21.1 L-0.0,-42.1 L36.5,-21.1Z" fill="url(#lgrad3)" filter="url(#blur3)" opacity="0.76"/>
        <ellipse cx="0" cy="0" rx="17.5" ry="11.7" fill="#FFFFFF" opacity="0.38"/>
      </g>
      </g>
      </g>
      </g>
      </g>
      </g>
      </g>
  </g>
  <g transform="translate(763.7, 642.2)">
      <g transform="translate(-0.98,-3.92) rotate(5.00) scale(1.000)">
        <g transform="translate(-3.21,-3.51) rotate(9.75) scale(0.980)">
        <g transform="translate(-4.66,-2.79) rotate(13.67) scale(0.960)">
        <g transform="translate(-4.96,-1.82) rotate(16.24) scale(0.940)">
        <g transform="translate(-4.05,-0.69) rotate(16.99) scale(0.920)">
        <g transform="translate(-2.15,0.51) rotate(15.61) scale(0.900)" mask="url(#maskDynamic)">
        <g transform="translate(0.28,1.66) rotate(11.91) scale(0.880)">
        <circle cx="0" cy="0" r="37.4" fill="url(#rgrad4)" filter="url(#shadow)" opacity="0.84"/>
        <text x="0" y="5" text-anchor="middle" font-family="Arial, sans-serif" font-size="14" fill="#FFFFFF" opacity="0.84">508</text>
      </g>
      </g>
      </g>
      </g>
      </g>
      </g>
      </g>
  </g>
  <g transform="translate(997.5, 657.8)">
      <g transform="translate(-4.66,-1.46) rotate(5.00) scale(1.000)">
        <g transform="translate(-4.96,-0.29) rotate(9.75) scale(0.980)">
        <g transform="translate(-4.05,0.90) rotate(13.67) scale(0.960)">
        <g transform="translate(-2.15,2.01) rotate(16.24) scale(0.940)">
        <g transform="translate(0.28,2.94) rotate(16.99) scale(0.920)">
        <g transform="translate(2.64,3.61) rotate(15.61) scale(0.900)">
        <g transform="translate(4.35,3.96) rotate(11.91) scale(0.880)">
        <path d="M0.0,-65.8 L19.3,-26.6 L62.6,-20.3 L31.3,10.2 L38.7,53.2 L0.0,32.9 L-38.7,53.2 L-31.3,10.2 L-62.6,-20.3 L-19.3,-26.6Z" fill="url(#rgrad0)" filter="url(#blur0)" opacity="0.89"/>
      </g>
      </g>
      </g>
      </g>
      </g>
      </g>
      </g>
  </g>
  <g transform="translate(1227.0, 674.3)">
      <g transform="translate(-4.05,2.35) rotate(5.00) scale(1.000)">
        <g transform="translate(-2.15,3.20) rotate(9.75) scale(0.980)">
        <g transform="translate(0.28,3.77) rotate(13.67) scale(0.960)">
        <g transform="translate(2.64,4.00) rotate(16.24) scale(0.940)" clip-path="url(#clipStar)">
        <g transform="translate(4.35,3.87) rotate(16.99) scale(0.920)">
        <g transform="translate(5.00,3.40) rotate(15.61) scale(0.900)">
        <g transform="translate(4.42,2.62) rotate(11.91) scale(0.880)">
        <rect x="-25.7" y="-25.7" width="51.5" height="51.5" rx="12.9" fill="url(#lgrad1)" filter="url(#shadow)" opacity="0.90"/>
        <circle cx="0" cy="0" r="17.2" fill="url(#rgrad2)" opacity="0.63"/>
      </g>
      </g>
      </g>
      </g>
      </g>
      </g>
      </g>
  </g>
  <g transform="translate(1450.0, 684.2)">
      <g transform="translate(0.28,3.99) rotate(5.00) scale(1.000)">
        <g transform="translate(2.64,3.75) rotate(9.75) scale(0.980)">
        <g transform="translate(4.35,3.17) rotate(13.67) scale(0.960)">
        <g transform="translate(5.00,2.31) rotate(16.24) scale(0.940)">
        <g transform="translate(4.42,1.24) rotate(16.99) scale(0.920)">
        <g transform="translate(2.76,0.06) rotate(15.61) scale(0.900)" mask="url(#maskStripes)">
        <g transform="translate(0.43,-1.13) rotate(11.91) scale(0.880)">
        <path d="M23.4,13.5 L0.0,27.0 L-23.4,13.5 L-23.4,-13.5 L-0.0,-27.0 L23.4,-13.5Z" fill="url(#rgrad2)" filter="url(#blur2)" opacity="0.88"/>
        <ellipse cx="0" cy="0" rx="11.3" ry="7.5" fill="#FFFFFF" opacity="0.44"/>
      </g>
      </g>
      </g>
      </g>
      </g>
      </g>
      </g>
  </g>
  <g transform="translate(1665.6, 682.6)">
      <g transform="translate(4.35,1.97) rotate(5.00) scale(1.000)">
        <g transform="translate(5.00,0.85) rotate(9.75) scale(0.980)">
        <g transform="translate(4.42,-0.34) rotate(13.67) scale(0.960)">
        <g transform="translate(2.76,-1.50) rotate(16.24) scale(0.940)">
        <g transform="translate(0.43,-2.53) rotate(16.99) scale(0.920)">
        <g transform="translate(-2.01,-3.33) rotate(15.61) scale(0.900)">
        <g transform="translate(-3.96,-3.84) rotate(11.91) scale(0.880)">
        <circle cx="0" cy="0" r="26.2" fill="url(#rgrad3)" filter="url(#shadow)" opacity="0.82"/>
        <text x="0" y="5" text-anchor="middle" font-family="Arial, sans-serif" font-size="14" fill="#FFFFFF" opacity="0.82">508</text>
      </g>
      </g>
      </g>
      </g>
      </g>
      </g>
      </g>
  </g>
  <g transform="translate(114.9, 950.5)">
      <g transform="translate(4.42,-1.87) rotate(5.00) scale(1.000)">
        <g transform="translate(2.76,-2.83) rotate(9.75) scale(0.980)">
        <g transform="translate(0.43,-3.54) rotate(13.67) scale(0.960)">
        <g transform="translate(-2.01,-3.93) rotate(16.24) scale(0.940)" clip-path="url(#clipDynamic)">
        <g transform="translate(-3.96,-3.97) rotate(16.99) scale(0.920)">
        <g transform="translate(-4.94,-3.66) rotate(15.61) scale(0.900)">
        <g transform="translate(-4.71,-3.02) rotate(11.91) scale(0.880)">
        <path d="M0.0,-66.7 L19.6,-27.0 L63.4,-20.6 L31.7,10.3 L39.2,53.9 L0.0,33.3 L-39.2,53.9 L-31.7,10.3 L-63.4,-20.6 L-19.6,-27.0Z" fill="url(#lgrad4)" filter="url(#blur4)" opacity="0.74"/>
      </g>
      </g>
      </g>
      </g>
      </g>
      </g>
      </g>
  </g>
  <g transform="translate(295.3, 220.1)" mask="url(#maskGradient)">
    <ellipse cx="0" cy="0" rx="200" ry="150" fill="url(#rgrad0)" filter="url(#blur3)" opacity="0.3"/>
  </g>
  <g transform="translate(713.4, 241.3)" mask="url(#maskCircleFade)">
    <ellipse cx="0" cy="0" rx="200" ry="150" fill="url(#rgrad1)" filter="url(#blur3)" opacity="0.3"/>
  </g>
  <g transform="translate(1211.1, 290.1)" mask="url(#maskStripes)">
    <ellipse cx="0" cy="0" rx="200" ry="150" fill="url(#rgrad2)" filter="url(#blur3)" opacity="0.3"/>
  </g>
</svg>