<?xml version="1.0" encoding="UTF-8"?>
<svg xmlns="http://www.w3.org/2000/svg" viewBox="0 0 1920 1080" width="1920" height="1080">
  <defs>
    <filter id="blur0" x="-50%" y="-50%" width="200%" height="200%">
      <feGaussianBlur in="SourceGraphic" stdDeviation="1"/>
    </filter>
    <filter id="blur1" x="-50%" y="-50%" width="200%" height="200%">
      <feGaussianBlur in="SourceGraphic" stdDeviation="3"/>
    </filter>
    <filter id="blur2" x="-50%" y="-50%" width="200%" height="200%">
      <feGaussianBlur in="SourceGraphic" stdDeviation="5"/>
    </filter>
    <filter id="blur3" x="-50%" y="-50%" width="200%" height="200%">
      <feGaussianBlur in="SourceGraphic" stdDeviation="7"/>
    </filter>
    <filter id="blur4" x="-50%" y="-50%" width="200%" height="200%">
      <feGaussianBlur in="SourceGraphic" stdDeviation="9"/>
    </filter>
    <filter id="shadow" x="-50%" y="-50%" width="200%" height="200%">
      <feGaussianBlur in="SourceAlpha" stdDeviation="3" result="blur"/>
      <feOffset in="blur" dx="4" dy="4" result="offsetBlur"/>
      <feMerge>
        <feMergeNode in="offsetBlur"/>
        <feMergeNode in="SourceGraphic"/>
      </feMerge>
    </filter>
    <linearGradient id="lgrad0" x1="0%" y1="0%" x2="27.3%" y2="5.4%">
      <stop offset="0%" stop-color="#FF6B6B"/>
      <stop offset="33%" stop-color="#4ECDC4"/>
      <stop offset="66%" stop-color="#45B7D1"/>
      <stop offset="100%" stop-color="#96E6A1"/>
    </linearGradient>
    <linearGradient id="lgrad1" x1="0%" y1="0%" x2="52.6%" y2="0.1%">
      <stop offset="0%" stop-color="#FFE66D"/>
      <stop offset="33%" stop-color="#FF6B6B"/>
      <stop offset="66%" stop-color="#C44D58"/>
      <stop offset="100%" stop-color="#8B0000"/>
    </linearGradient>
    <linearGradient id="lgrad2" x1="0%" y1="0%" x2="77.2%" y2="8.1%">
      <stop offset="0%" stop-color="#4169E1"/>
      <stop offset="33%" stop-color="#7B68EE"/>
      <stop offset="66%" stop-color="#9370DB"/>
      <stop offset="100%" stop-color="#FFD700"/>
    </linearGradient>
    <linearGradient id="lgrad3" x1="0%" y1="0%" x2="94.6%" y2="27.3%">
      <stop offset="0%" stop-color="#32CD32"/>
      <stop offset="33%" stop-color="#228B22"/>
      <stop offset="66%" stop-color="#006400"/>
      <stop offset="100%" stop-color="#ADFF2F"/>
    </linearGradient>
    <linearGradient id="lgrad4" x1="0%" y1="0%" x2="99.9%" y2="52.6%">
      <stop offset="0%" stop-color="#FF1493"/>
      <stop offset="33%" stop-color="#FF69B4"/>
      <stop offset="66%" stop-color="#FFB6C1"/>
      <stop offset="100%" stop-color="#FFC0CB"/>
    </linearGradient>
    <radialGradient id="rgrad0" cx="68.8%" cy="69.2%" r="60%">
      <stop offset="0%" stop-color="#FF6B6B" stop-opacity="1"/>
      <stop offset="50%" stop-color="#4ECDC4" stop-opacity="0.8"/>
      <stop offset="100%" stop-color="#45B7D1" stop-opacity="0.6"/>
    </radialGradient>
    <radialGradient id="rgrad1" cx="38.8%" cy="37.2%" r="60%">
      <stop offset="0%" stop-color="#FFE66D" stop-opacity="1"/>
      <stop offset="50%" stop-color="#FF6B6B" stop-opacity="0.8"/>
      <stop offset="100%" stop-color="#C44D58" stop-opacity="0.6"/>
    </radialGradient>
    <radialGradient id="rgrad2" cx="48.8%" cy="45.2%" r="60%">
      <stop offset="0%" stop-color="#4169E1" stop-opacity="1"/>
      <stop offset="50%" stop-color="#7B68EE" stop-opacity="0.8"/>
      <stop offset="100%" stop-color="#9370DB" stop-opacity="0.6"/>
    </radialGradient>
    <radialGradient id="rgrad3" cx="58.8%" cy="53.2%" r="60%">
      <stop offset="0%" stop-color="#32CD32" stop-opacity="1"/>
      <stop offset="50%" stop-color="#228B22" stop-opacity="0.8"/>
      <stop offset="100%" stop-color="#006400" stop-opacity="0.6"/>
    </radialGradient>
    <radialGradient id="rgrad4" cx="68.8%" cy="61.2%" r="60%">
      <stop offset="0%" stop-color="#FF1493" stop-opacity="1"/>
      <stop offset="50%" stop-color="#FF69B4" stop-opacity="0.8"/>
      <stop offset="100%" stop-color="#FFB6C1" stop-opacity="0.6"/>
    </radialGradient>
    <clipPath id="clipCircle">
      <circle cx="0" cy="0" r="50"/>
    </clipPath>
    <clipPath id="clipStar">
      <path d="M0.0,-50.0 L14.7,-20.2 L47.6,-15.5 L23.8,7.7 L29.4,40.5 L0.0,25.0 L-29.4,40.5 L-23.8,7.7 L-47.6,-15.5 L-14.7,-20.2Z"/>
    </clipPath>
    <clipPath id="clipHex">
      <path d="M39.0,22.5 L0.0,45.0 L-39.0,22.5 L-39.0,-22.5 L-0.0,-45.0 L39.0,-22.5Z"/>
    </clipPath>
    <clipPath id="clipRect">
      <rect x="-40" y="-30" width="80" height="60" rx="10"/>
    </clipPath>
    <clipPath id="clipDynamic">
      <circle cx="0" cy="0" r="44.2"/>
    </clipPath>
    <mask id="maskGradient" maskContentUnits="objectBoundingBox">
      <rect x="0" y="0" width="1" height="1" fill="url(#maskGrad)"/>
    </mask>
    <linearGradient id="maskGrad" x1="0%" y1="0%" x2="100%" y2="100%">
      <stop offset="0%" stop-color="white"/>
      <stop offset="100%" stop-color="black"/>
    </linearGradient>
    <mask id="maskCircleFade">
      <circle cx="0" cy="0" r="60" fill="white"/>
      <circle cx="0" cy="0" r="30" fill="black"/>
    </mask>
    <mask id="maskStripes">
      <rect x="-50" y="-50" width="100" height="100" fill="white"/>
      <rect x="-50" y="-40" width="100" height="10" fill="black"/>
      <rect x="-50" y="-20" width="100" height="10" fill="black"/>
      <rect x="-50" y="0" width="100" height="10" fill="black"/>
      <rect x="-50" y="20" width="100" height="10" fill="black"/>
      <rect x="-50" y="40" width="100" height="10" fill="black"/>
    </mask>
    <mask id="maskDynamic">
      <rect x="-60" y="-60" width="120" height="120" fill="white" fill-opacity="0.96"/>
      <circle cx="0" cy="0" r="25" fill="white"/>
    </mask>
  </defs>
  <rect width="1920" height="1080" fill="url(#lgrad0)"/>
  <g transform="translate(118.3, 80.2)">
      <g transform="translate(3.05,-3.17) rotate(4.73) scale(1.000)">
        <g transform="translate(0.78,-3.75) rotate(9.92) scale(0.980)">
        <g transform="translate(-1.68,-3.99) rotate(14.96) scale(0.960)">
        <g transform="translate(-3.73,-3.88) rotate(19.27) scale(0.940)" clip-path="url(#clipCircle)">
        <g transform="translate(-4.87,-3.43) rotate(22.27) scale(0.920)">
        <g transform="translate(-4.82,-2.66) rotate(23.49) scale(0.900)">
        <g transform="translate(-3.58,-1.66) rotate(22.53) scale(0.880)">
        <path d="M0.0,-74.2 L21.8,-30.0 L70.6,-22.9 L35.3,11.5 L43.6,60.0 L0.0,37.1 L-43.6,60.0 L-35.3,11.5 L-70.6,-22.9 L-21.8,-30.0Z" fill="url(#lgrad0)" filter="url(#blur0)" opacity="0.88"/>
      </g>
      </g>
      </g>
      </g>
      </g>
      </g>
      </g>
  </g>
  <g transform="translate(324.7, 75.0)">
      <g transform="translate(-1.68,-3.77) rotate(4.73) scale(1.000)">
        <g transform="translate(-3.73,-3.20) rotate(9.92) scale(0.980)">
        <g transform="translate(-4.87,-2.35) rotate(14.96) scale(0.960)">
        <g transform="translate(-4.82,-1.29) rotate(19.27) scale(0.940)">
        <g transform="translate(-3.58,-0.11) rotate(22.27) scale(0.920)">
        <g transform="translate(-1.47,1.07) rotate(23.49) scale(0.900)" mask="url(#maskCircleFade)">
        <g transform="translate(1.00,2.17) rotate(22.53) scale(0.880)">
        <rect x="-35.9" y="-35.9" width="71.7" height="71.7" rx="17.9" fill="url(#rgrad1)" filter="url(#shadow)" opacity="0.90"/>
        <circle cx="0" cy="0" r="23.9" fill="url(#rgrad2)" opacity="0.63"/>
      </g>
      </g>
      </g>
      </g>
      </g>
      </g>
      </g>
  </g>
  <g transform="translate(529.9, 81.6)">
      <g transform="translate(-4.87,-0.90) rotate(4.73) scale(1.000)">
        <g transform="translate(-4.82,0.29) rotate(9.92) scale(0.980)">
        <g transform="translate(-3.58,1.45) rotate(14.96) scale(0.960)">
        <g transform="translate(-1.47,2.49) rotate(19.27) scale(0.940)">
        <g transform="translate(1.00,3.30) rotate(22.27) scale(0.920)">
        <g transform="translate(3.23,3.82) rotate(23.49) scale(0.900)">
        <g transform="translate(4.66,4.00) rotate(22.53) scale(0.880)">
        <path d="M30.4,17.5 L0.0,35.1 L-30.4,17.5 L-30.4,-17.5 L-0.0,-35.1 L30.4,-17.5Z" fill="url(#rgrad2)" filter="url(#blur2)" opacity="0.89"/>
        <ellipse cx="0" cy="0" rx="14.6" ry="9.7" fill="#FFFFFF" opacity="0.44"/>
      </g>
      </g>
      </g>
      </g>
      </g>
      </g>
      </g>
  </g>
  <g transform="translate(737.6, 96.8)">
      <g transform="translate(-3.58,2.79) rotate(4.73) scale(1.000)">
        <g transform="translate(-1.47,3.51) rotate(9.92) scale(0.980)">
        <g transform="translate(1.00,3.92) rotate(14.96) scale(0.960)">
        <g transform="translate(3.23,3.98) rotate(19.27) scale(0.940)" clip-path="url(#clipRect)">
        <g transform="translate(4.66,3.68) rotate(22.27) scale(0.920)">
        <g transform="translate(4.96,3.06) rotate(23.49) scale(0.900)">
        <g transform="translate(4.04,2.16) rotate(22.53) scale(0.880)">
        <circle cx="0" cy="0" r="23.3" fill="url(#lgrad3)" filter="url(#shadow)" opacity="0.84"/>
        <text x="0" y="5" text-anchor="middle" font-family="Arial, sans-serif" font-size="14" fill="#FFFFFF" opacity="0.84">396</text>
      </g>
      </g>
      </g>
      </g>
      </g>
      </g>
      </g>
  </g>
  <g transform="translate(950.8, 113.5)">
      <g transform="translate(1.00,3.92) rotate(4.73) scale(1.000)">
        <g transform="translate(3.23,3.51) rotate(9.92) scale(0.980)">
        <g transform="translate(4.66,2.78) rotate(14.96) scale(0.960)">
        <g transform="translate(4.96,1.81) rotate(19.27) scale(0.940)">
        <g transform="translate(4.04,0.68) rotate(22.27) scale(0.920)">
        <g transform="translate(2.13,-0.52) rotate(23.49) scale(0.900)" mask="url(#maskGradient)">
        <g transform="translate(-0.30,-1.67) rotate(22.53) scale(0.880)">
        <path d="M0.0,-47.1 L13.8,-19.0 L44.8,-14.5 L22.4,7.3 L27.7,38.1 L0.0,23.5 L-27.7,38.1 L-22.4,7.3 L-44.8,-14.5 L-13.8,-19.0Z" fill="url(#rgrad4)" filter="url(#blur4)" opacity="0.76"/>
      </g>
      </g>
      </g>
      </g>
      </g>
      </g>
      </g>
  </g>
  <g transform="translate(1171.1, 123.9)">
      <g transform="translate(4.66,1.45) rotate(4.73) scale(1.000)">
        <g transform="translate(4.96,0.28) rotate(9.92) scale(0.980)">
        <g transform="translate(4.04,-0.91) rotate(14.96) scale(0.960)">
        <g transform="translate(2.13,-2.02) rotate(19.27) scale(0.940)">
        <g transform="translate(-0.30,-2.95) rotate(22.27) scale(0.920)">
        <g transform="translate(-2.65,-3.62) rotate(23.49) scale(0.900)">
        <g transform="translate(-4.36,-3.96) rotate(22.53) scale(0.880)">
        <rect x="-29.7" y="-29.7" width="59.4" height="59.4" rx="14.8" fill="url(#rgrad0)" filter="url(#shadow)" opacity="0.66"/>
        <circle cx="0" cy="0" r="19.8" fill="url(#rgrad1)" opacity="0.46"/>
      </g>
      </g>
      </g>
      </g>
      </g>
      </g>
      </g>
  </g>
  <g transform="translate(1398.5, 123.0)">
      <g transform="translate(4.04,-2.36) rotate(4.73) scale(1.000)">
        <g transform="translate(2.13,-3.21) rotate(9.92) scale(0.980)">
        <g transform="translate(-0.30,-3.77) rotate(14.96) scale(0.960)">
        <g transform="translate(-2.65,-4.00) rotate(19.27) scale(0.940)" clip-path="url(#clipStar)">
        <g transform="translate(-4.36,-3.87) rotate(22.27) scale(0.920)">
        <g transform="translate(-5.00,-3.39) rotate(23.49) scale(0.900)">
        <g transform="translate(-4.41,-2.61) rotate(22.53) scale(0.880)">
        <path d="M37.6,21.7 L0.0,43.4 L-37.6,21.7 L-37.6,-21.7 L-0.0,-43.4 L37.6,-21.7Z" fill="url(#lgrad1)" filter="url(#blur1)" opacity="0.54"/>
        <ellipse cx="0" cy="0" rx="18.1" ry="12.0" fill="#FFFFFF" opacity="0.27"/>
      </g>
      </g>
      </g>
      </g>
      </g>
      </g>
      </g>
  </g>
  <g transform="translate(1631.2, 111.3)">
      <g transform="translate(-0.30,-3.99) rotate(4.73) scale(1.000)">
        <g transform="translate(-2.65,-3.74) rotate(9.92) scale(0.980)">
        <g transform="translate(-4.36,-3.16) rotate(14.96) scale(0.960)">
        <g transform="translate(-5.00,-2.30) rotate(19.27) scale(0.940)">
        <g transform="translate(-4.41,-1.22) rotate(22.27) scale(0.920)">
        <g transform="translate(-2.75,-0.04) rotate(23.49) scale(0.900)" mask="url(#maskDynamic)">
        <g transform="translate(-0.41,1.14) rotate(22.53) scale(0.880)">
        <circle cx="0" cy="0" r="36.9" fill="url(#rgrad2)" filter="url(#shadow)" opacity="0.42"/>
        <text x="0" y="5" text-anchor="middle" font-family="Arial, sans-serif" font-size="14" fill="#FFFFFF" opacity="0.42">396</text>
      </g>
      </g>
      </g>
      </g>
      </g>
      </g>
      </g>
  </g>
  <g transform="translate(106.0, 374.3)">
      <g transform="translate(-4.36,-1.96) rotate(4.73) scale(1.000)">
        <g transform="translate(-5.00,-0.84) rotate(9.92) scale(0.980)">
        <g transform="translate(-4.41,0.35) rotate(14.96) scale(0.960)">
        <g transform="translate(-2.75,1.52) rotate(19.27) scale(0.940)">
        <g transform="translate(-0.41,2.54) rotate(22.27) scale(0.920)">
        <g transform="translate(2.03,3.34) rotate(23.49) scale(0.900)">
        <g transform="translate(3.97,3.84) rotate(22.53) scale(0.880)">
        <path d="M0.0,-62.7 L18.4,-25.4 L59.7,-19.4 L29.8,9.7 L36.9,50.7 L0.0,31.4 L-36.9,50.7 L-29.8,9.7 L-59.7,-19.4 L-18.4,-25.4Z" fill="url(#rgrad3)" filter="url(#blur3)" opacity="0.31"/>
      </g>
      </g>
      </g>
      </g>
      </g>
      </g>
      </g>
  </g>
  <g transform="translate(339.4, 360.0)">
      <g transform="translate(-4.41,1.88) rotate(4.73) scale(1.000)">
        <g transform="translate(-2.75,2.84) rotate(9.92) scale(0.980)">
        <g transform="translate(-0.41,3.54) rotate(14.96) scale(0.960)">
        <g transform="translate(2.03,3.93) rotate(19.27) scale(0.940)" clip-path="url(#clipDynamic)">
        <g transform="translate(3.97,3.97) rotate(22.27) scale(0.920)">
        <g transform="translate(4.94,3.66) rotate(23.49) scale(0.900)">
        <g transform="translate(4.70,3.01) rotate(22.53) scale(0.880)">
        <rect x="-24.5" y="-24.5" width="49.1" height="49.1" rx="12.3" fill="url(#lgrad4)" filter="url(#shadow)" opacity="0.21"/>
        <circle cx="0" cy="0" r="16.4" fill="url(#rgrad0)" opacity="0.15"/>
      </g>
      </g>
      </g>
      </g>
      </g>
      </g>
      </g>
  </g>
  <g transform="translate(568.0, 355.0)">
      <g transform="translate(-0.41,3.99) rotate(4.73) scale(1.000)">
        <g transform="translate(2.03,3.91) rotate(9.92) scale(0.980)">
        <g transform="translate(3.97,3.48) rotate(14.96) scale(0.960)">
        <g transform="translate(4.94,2.73) rotate(19.27) scale(0.940)">
        <g transform="translate(4.70,1.75) rotate(22.27) scale(0.920)">
        <g transform="translate(3.31,0.61) rotate(23.49) scale(0.900)" mask="url(#maskStripes)">
        <g transform="translate(1.11,-0.59) rotate(22.53) scale(0.880)">
        <path d="M23.6,13.6 L0.0,27.3 L-23.6,13.6 L-23.6,-13.6 L-0.0,-27.3 L23.6,-13.6Z" fill="url(#rgrad0)" filter="url(#blur0)" opacity="0.14"/>
        <ellipse cx="0" cy="0" rx="11.4" ry="7.6" fill="#FFFFFF" opacity="0.07"/>
      </g>
      </g>
      </g>
      </g>
      </g>
      </g>
      </g>
  </g>
  <g transform="translate(789.7, 361.9)">
      <g transform="translate(3.97,2.43) rotate(4.73) scale(1.000)">
        <g transform="translate(4.94,1.38) rotate(9.92) scale(0.980)">
        <g transform="translate(4.70,0.21) rotate(14.96) scale(0.960)">
        <g transform="translate(3.31,-0.98) rotate(19.27) scale(0.940)">
        <g transform="translate(1.11,-2.08) rotate(22.27) scale(0.920)">
        <g transform="translate(-1.36,-3.00) rotate(23.49) scale(0.900)">
        <g transform="translate(-3.50,-3.65) rotate(22.53) scale(0.880)">
        <circle cx="0" cy="0" r="27.6" fill="url(#rgrad1)" filter="url(#shadow)" opacity="0.11"/>
        <text x="0" y="5" text-anchor="middle" font-family="Arial, sans-serif" font-size="14" fill="#FFFFFF" opacity="0.11">396</text>
      </g>
      </g>
      </g>
      </g>
      </g>
      </g>
      </g>
  </g>
  <g transform="translate(1004.2, 377.2)">
      <g transform="translate(4.70,-1.36) rotate(4.73) scale(1.000)">
        <g transform="translate(3.31,-2.41) rotate(9.92) scale(0.980)">
        <g transform="translate(1.11,-3.25) rotate(14.96) scale(0.960)">
        <g transform="translate(-1.36,-3.79) rotate(19.27) scale(0.940)" clip-path="url(#clipHex)">
        <g transform="translate(-3.50,-4.00) rotate(22.27) scale(0.920)">
        <g transform="translate(-4.78,-3.85) rotate(23.49) scale(0.900)">
        <g transform="translate(-4.89,-3.35) rotate(22.53) scale(0.880)">
        <path d="M0.0,-69.4 L20.4,-28.1 L66.0,-21.4 L33.0,10.7 L40.8,56.1 L0.0,34.7 L-40.8,56.1 L-33.0,10.7 L-66.0,-21.4 L-20.4,-28.1Z" fill="url(#lgrad2)" filter="url(#blur2)" opacity="0.10"/>
      </g>
      </g>
      </g>
      </g>
      </g>
      </g>
      </g>
  </g>
  <g transform="translate(1212.8, 393.9)">
      <g transform="translate(1.11,-3.90) rotate(4.73) scale(1.000)">
        <g transform="translate(-1.36,-3.99) rotate(9.92) scale(0.980)">
        <g transform="translate(-3.50,-3.72) rotate(14.96) scale(0.960)">
        <g transform="translate(-4.78,-3.12) rotate(19.27) scale(0.940)">
        <g transform="translate(-4.89,-2.24) rotate(22.27) scale(0.920)">
        <g transform="translate(-3.81,-1.16) rotate(23.49) scale(0.900)" mask="url(#maskCircleFade)">
        <g transform="translate(-1.79,0.02) rotate(22.53) scale(0.880)">
        <rect x="-37.5" y="-37.5" width="74.9" height="74.9" rx="18.7" fill="url(#rgrad3)" filter="url(#shadow)" opacity="0.14"/>
        <circle cx="0" cy="0" r="25.0" fill="url(#rgrad4)" opacity="0.10"/>
      </g>
      </g>
      </g>
      </g>
      </g>
      </g>
      </g>
  </g>
  <g transform="translate(1418.2, 404.0)">
      <g transform="translate(-3.50,-2.85) rotate(4.73) scale(1.000)">
        <g transform="translate(-4.78,-1.90) rotate(9.92) scale(0.980)">
        <g transform="translate(-4.89,-0.77) rotate(14.96) scale(0.960)">
        <g transform="translate(-3.81,0.42) rotate(19.27) scale(0.940)">
        <g transform="translate(-1.79,1.58) rotate(22.27) scale(0.920)">
        <g transform="translate(0.67,2.59) rotate(23.49) scale(0.900)">
        <g transform="translate(2.97,3.38) rotate(22.53) scale(0.880)">
        <path d="M34.7,20.0 L0.0,40.0 L-34.7,20.0 L-34.7,-20.0 L-0.0,-40.0 L34.7,-20.0Z" fill="url(#rgrad4)" filter="url(#blur4)" opacity="0.20"/>
        <ellipse cx="0" cy="0" rx="16.7" ry="11.1" fill="#FFFFFF" opacity="0.10"/>
      </g>
      </g>
      </g>
      </g>
      </g>
      </g>
      </g>
  </g>
  <g transform="translate(1624.1, 402.8)">
      <g transform="translate(-4.89,0.82) rotate(4.73) scale(1.000)">
        <g transform="translate(-3.81,1.94) rotate(9.92) scale(0.980)">
        <g transform="translate(-1.79,2.88) rotate(14.96) scale(0.960)">
        <g transform="translate(0.67,3.57) rotate(19.27) scale(0.940)" clip-path="url(#clipCircle)">
        <g transform="translate(2.97,3.95) rotate(22.27) scale(0.920)">
        <g transform="translate(4.53,3.96) rotate(23.49) scale(0.900)">
        <g transform="translate(4.99,3.63) rotate(22.53) scale(0.880)">
        <circle cx="0" cy="0" r="26.2" fill="url(#lgrad0)" filter="url(#shadow)" opacity="0.29"/>
        <text x="0" y="5" text-anchor="middle" font-family="Arial, sans-serif" font-size="14" fill="#FFFFFF" opacity="0.29">396</text>
      </g>
      </g>
      </g>
      </g>
      </g>
      </g>
      </g>
  </g>
  <g transform="translate(73.8, 670.9)">
      <g transform="translate(-1.79,3.74) rotate(4.73) scale(1.000)">
        <g transform="translate(0.67,3.99) rotate(9.92) scale(0.980)">
        <g transform="translate(2.97,3.89) rotate(14.96) scale(0.960)">
        <g transform="translate(4.53,3.44) rotate(19.27) scale(0.940)">
        <g transform="translate(4.99,2.69) rotate(22.27) scale(0.920)">
        <g transform="translate(4.23,1.69) rotate(23.49) scale(0.900)" mask="url(#maskGradient)">
        <g transform="translate(2.43,0.54) rotate(22.53) scale(0.880)">
        <path d="M0.0,-45.0 L13.2,-18.2 L42.8,-13.9 L21.4,7.0 L26.5,36.4 L0.0,22.5 L-26.5,36.4 L-21.4,7.0 L-42.8,-13.9 L-13.2,-18.2Z" fill="url(#rgrad1)" filter="url(#blur1)" opacity="0.40"/>
      </g>
      </g>
      </g>
      </g>
      </g>
      </g>
      </g>
  </g>
  <g transform="translate(290.0, 653.9)">
      <g transform="translate(2.97,3.22) rotate(4.73) scale(1.000)">
        <g transform="translate(4.53,2.38) rotate(9.92) scale(0.980)">
        <g transform="translate(4.99,1.32) rotate(14.96) scale(0.960)">
        <g transform="translate(4.23,0.14) rotate(19.27) scale(0.940)">
        <g transform="translate(2.43,-1.04) rotate(22.27) scale(0.920)">
        <g transform="translate(0.03,-2.14) rotate(23.49) scale(0.900)">
        <g transform="translate(-2.37,-3.04) rotate(22.53) scale(0.880)">
        <rect x="-25.7" y="-25.7" width="51.4" height="51.4" rx="12.9" fill="url(#rgrad2)" filter="url(#shadow)" opacity="0.52"/>
        <circle cx="0" cy="0" r="17.1" fill="url(#rgrad3)" opacity="0.37"/>
      </g>
      </g>
      </g>
      </g>
      </g>
      </g>
      </g>
  </g>
  <g transform="translate(513.5, 639.7)">
      <g transform="translate(4.99,-0.26) rotate(4.73) scale(1.000)">
        <g transform="translate(4.23,-1.42) rotate(9.92) scale(0.980)">
        <g transform="translate(2.43,-2.47) rotate(14.96) scale(0.960)">
        <g transform="translate(0.03,-3.29) rotate(19.27) scale(0.940)" clip-path="url(#clipRect)">
        <g transform="translate(-2.37,-3.81) rotate(22.27) scale(0.920)">
        <g transform="translate(-4.19,-4.00) rotate(23.49) scale(0.900)">
        <g transform="translate(-4.98,-3.83) rotate(22.53) scale(0.880)">
        <path d="M34.2,19.7 L0.0,39.4 L-34.2,19.7 L-34.2,-19.7 L-0.0,-39.4 L34.2,-19.7Z" fill="url(#lgrad3)" filter="url(#blur3)" opacity="0.64"/>
        <ellipse cx="0" cy="0" rx="16.4" ry="11.0" fill="#FFFFFF" opacity="0.32"/>
      </g>
      </g>
      </g>
      </g>
      </g>
      </g>
      </g>
  </g>
  <g transform="translate(743.5, 635.1)">
      <g transform="translate(2.43,-3.50) rotate(4.73) scale(1.000)">
        <g transform="translate(0.03,-3.91) rotate(9.92) scale(0.980)">
        <g transform="translate(-2.37,-3.98) rotate(14.96) scale(0.960)">
        <g transform="translate(-4.19,-3.69) rotate(19.27) scale(0.940)">
        <g transform="translate(-4.98,-3.08) rotate(22.27) scale(0.920)">
        <g transform="translate(-4.56,-2.18) rotate(23.49) scale(0.900)" mask="url(#maskDynamic)">
        <g transform="translate(-3.02,-1.10) rotate(22.53) scale(0.880)">
        <circle cx="0" cy="0" r="37.4" fill="url(#rgrad4)" filter="url(#shadow)" opacity="0.74"/>
        <text x="0" y="5" text-anchor="middle" font-family="Arial, sans-serif" font-size="14" fill="#FFFFFF" opacity="0.74">396</text>
      </g>
      </g>
      </g>
      </g>
      </g>
      </g>
      </g>
  </g>
  <g transform="translate(977.5, 642.2)">
      <g transform="translate(-2.37,-3.52) rotate(4.73) scale(1.000)">
        <g transform="translate(-4.19,-2.81) rotate(9.92) scale(0.980)">
        <g transform="translate(-4.98,-1.84) rotate(14.96) scale(0.960)">
        <g transform="translate(-4.56,-0.71) rotate(19.27) scale(0.940)">
        <g transform="translate(-3.02,0.49) rotate(22.27) scale(0.920)">
        <g transform="translate(-0.74,1.64) rotate(23.49) scale(0.900)">
        <g transform="translate(1.72,2.64) rotate(22.53) scale(0.880)">
        <path d="M0.0,-70.2 L20.6,-28.4 L66.8,-21.7 L33.4,10.8 L41.3,56.8 L0.0,35.1 L-41.3,56.8 L-33.4,10.8 L-66.8,-21.7 L-20.6,-28.4Z" fill="url(#rgrad0)" filter="url(#blur0)" opacity="0.83"/>
      </g>
      </g>
      </g>
      </g>
      </g>
      </g>
      </g>
  </g>
  <g transform="translate(1212.2, 657.6)">
      <g transform="translate(-4.98,-0.31) rotate(4.73) scale(1.000)">
        <g transform="translate(-4.56,0.88) rotate(9.92) scale(0.980)">
        <g transform="translate(-3.02,2.00) rotate(14.96) scale(0.960)">
        <g transform="translate(-0.74,2.93) rotate(19.27) scale(0.940)" clip-path="url(#clipStar)">
        <g transform="translate(1.72,3.60) rotate(22.27) scale(0.920)">
        <g transform="translate(3.76,3.96) rotate(23.49) scale(0.900)">
        <g transform="translate(4.88,3.95) rotate(22.53) scale(0.880)">
        <rect x="-28.1" y="-28.1" width="56.3" height="56.3" rx="14.1" fill="url(#lgrad1)" filter="url(#shadow)" opacity="0.88"/>
        <circle cx="0" cy="0" r="18.8" fill="url(#rgrad2)" opacity="0.62"/>
      </g>
      </g>
      </g>
      </g>
      </g>
      </g>
      </g>
  </g>
  <g transform="translate(1443.8, 674.2)">
      <g transform="translate(-3.02,3.19) rotate(4.73) scale(1.000)">
        <g transform="translate(-0.74,3.76) rotate(9.92) scale(0.980)">
        <g transform="translate(1.72,4.00) rotate(14.96) scale(0.960)">
        <g transform="translate(3.76,3.87) rotate(19.27) scale(0.940)">
        <g transform="translate(4.88,3.41) rotate(22.27) scale(0.920)">
        <g transform="translate(4.80,2.64) rotate(23.49) scale(0.900)" mask="url(#maskStripes)">
        <g transform="translate(3.55,1.63) rotate(22.53) scale(0.880)">
        <path d="M23.8,13.7 L0.0,27.5 L-23.8,13.7 L-23.8,-13.7 L-0.0,-27.5 L23.8,-13.7Z" fill="url(#rgrad2)" filter="url(#blur2)" opacity="0.90"/>
        <ellipse cx="0" cy="0" rx="11.4" ry="7.6" fill="#FFFFFF" opacity="0.45"/>
      </g>
      </g>
      </g>
      </g>
      </g>
      </g>
      </g>
  </g>
  <g transform="translate(1669.7, 684.1)">
      <g transform="translate(1.72,3.76) rotate(4.73) scale(1.000)">
        <g transform="translate(3.76,3.18) rotate(9.92) scale(0.980)">
        <g transform="translate(4.88,2.32) rotate(14.96) scale(0.960)">
        <g transform="translate(4.80,1.26) rotate(19.27) scale(0.940)">
        <g transform="translate(3.55,0.08) rotate(22.27) scale(0.920)">
        <g transform="translate(1.43,-1.11) rotate(23.49) scale(0.900)">
        <g transform="translate(-1.04,-2.19) rotate(22.53) scale(0.880)">
        <circle cx="0" cy="0" r="24.2" fill="url(#rgrad3)" filter="url(#shadow)" opacity="0.88"/>
        <text x="0" y="5" text-anchor="middle" font-family="Arial, sans-serif" font-size="14" fill="#FFFFFF" opacity="0.88">396</text>
      </g>
      </g>
      </g>
      </g>
      </g>
      </g>
      </g>
  </g>
  <g transform="translate(128.2, 962.7)">
      <g transform="translate(4.88,0.87) rotate(4.73) scale(1.000)">
        <g transform="translate(4.80,-0.32) rotate(9.92) scale(0.980)">
        <g transform="translate(3.55,-1.49) rotate(14.96) scale(0.960)">
        <g transform="translate(1.43,-2.52) rotate(19.27) scale(0.940)" clip-path="url(#clipDynamic)">
        <g transform="translate(-1.04,-3.32) rotate(22.27) scale(0.920)">
        <g transform="translate(-3.26,-3.83) rotate(23.49) scale(0.900)">
        <g transform="translate(-4.68,-4.00) rotate(22.53) scale(0.880)">
        <path d="M0.0,-61.6 L18.1,-24.9 L58.6,-19.0 L29.3,9.5 L36.2,49.9 L0.0,30.8 L-36.2,49.9 L-29.3,9.5 L-58.6,-19.0 L-18.1,-24.9Z" fill="url(#lgrad4)" filter="url(#blur4)" opacity="0.83"/>
      </g>
      </g>
      </g>
      </g>
      </g>
      </g>
      </g>
  </g>
  <g transform="translate(361.1, 236.7)" mask="url(#maskGradient)">
    <ellipse cx="0" cy="0" rx="200" ry="150" fill="url(#rgrad0)" filter="url(#blur3)" opacity="0.3"/>
  </g>
  <g transform="translate(766.4, 220.1)" mask="url(#maskCircleFade)">
    <ellipse cx="0" cy="0" rx="200" ry="150" fill="url(#rgrad1)" filter="url(#blur3)" opacity="0.3"/>
  </g>
  <g transform="translate(1202.6, 241.1)" mask="url(#maskStripes)">
    <ellipse cx="0" cy="0" rx="200" ry="150" fill="url(#rgrad2)" filter="url(#blur3)" opacity="0.3"/>
  </g>
</svg>