<?xml version="1.0" encoding="UTF-8"?>
<svg xmlns="http://www.w3.org/2000/svg" viewBox="0 0 1920 1080" width="1920" height="1080">
  <defs>
    <filter id="blur0" x="-50%" y="-50%" width="200%" height="200%">
      <feGaussianBlur in="SourceGraphic" stdDeviation="1"/>
    </filter>
    <filter id="blur1" x="-50%" y="-50%" width="200%" height="200%">
      <feGaussianBlur in="SourceGraphic" stdDeviation="3"/>
    </filter>
    <filter id="blur2" x="-50%" y="-50%" width="200%" height="200%">
      <feGaussianBlur in="SourceGraphic" stdDeviation="5"/>
    </filter>
    <filter id="blur3" x="-50%" y="-50%" width="200%" height="200%">
      <feGaussianBlur in="SourceGraphic" stdDeviation="7"/>
    </filter>
    <filter id="blur4" x="-50%" y="-50%" width="200%" height="200%">
      <feGaussianBlur in="SourceGraphic" stdDeviation="9"/>
    </filter>
    <filter id="shadow" x="-50%" y="-50%" width="200%" height="200%">
      <feGaussianBlur in="SourceAlpha" stdDeviation="3" result="blur"/>
      <feOffset in="blur" dx="4" dy="4" result="offsetBlur"/>
      <feMerge>
        <feMergeNode in="offsetBlur"/>
        <feMergeNode in="SourceGraphic"/>
      </feMerge>
    </filter>
    <linearGradient id="lgrad0" x1="0%" y1="0%" x2="19.2%" y2="89.4%">
      <stop offset="0%" stop-color="#FF6B6B"/>
      <stop offset="33%" stop-color="#4ECDC4"/>
      <stop offset="66%" stop-color="#45B7D1"/>
      <stop offset="100%" stop-color="#96E6A1"/>
    </linearGradient>
    <linearGradient id="lgrad1" x1="0%" y1="0%" x2="3.6%" y2="68.7%">
      <stop offset="0%" stop-color="#FFE66D"/>
      <stop offset="33%" stop-color="#FF6B6B"/>
      <stop offset="66%" stop-color="#C44D58"/>
      <stop offset="100%" stop-color="#8B0000"/>
    </linearGradient>
    <linearGradient id="lgrad2" x1="0%" y1="0%" x2="0.5%" y2="43.0%">
      <stop offset="0%" stop-color="#4169E1"/>
      <stop offset="33%" stop-color="#7B68EE"/>
      <stop offset="66%" stop-color="#9370DB"/>
      <stop offset="100%" stop-color="#FFD700"/>
    </linearGradient>
    <linearGradient id="lgrad3" x1="0%" y1="0%" x2="10.6%" y2="19.2%">
      <stop offset="0%" stop-color="#32CD32"/>
      <stop offset="33%" stop-color="#228B22"/>
      <stop offset="66%" stop-color="#006400"/>
      <stop offset="100%" stop-color="#ADFF2F"/>
    </linearGradient>
    <linearGradient id="lgrad4" x1="0%" y1="0%" x2="31.3%" y2="3.6%">
      <stop offset="0%" stop-color="#FF1493"/>
      <stop offset="33%" stop-color="#FF69B4"/>
      <stop offset="66%" stop-color="#FFB6C1"/>
      <stop offset="100%" stop-color="#FFC0CB"/>
    </linearGradient>
    <radialGradient id="rgrad0" cx="39.8%" cy="63.2%" r="60%">
      <stop offset="0%" stop-color="#FF6B6B" stop-opacity="1"/>
      <stop offset="50%" stop-color="#4ECDC4" stop-opacity="0.8"/>
      <stop offset="100%" stop-color="#45B7D1" stop-opacity="0.6"/>
    </radialGradient>
    <radialGradient id="rgrad1" cx="49.8%" cy="31.2%" r="60%">
      <stop offset="0%" stop-color="#FFE66D" stop-opacity="1"/>
      <stop offset="50%" stop-color="#FF6B6B" stop-opacity="0.8"/>
      <stop offset="100%" stop-color="#C44D58" stop-opacity="0.6"/>
    </radialGradient>
    <radialGradient id="rgrad2" cx="59.8%" cy="39.2%" r="60%">
      <stop offset="0%" stop-color="#4169E1" stop-opacity="1"/>
      <stop offset="50%" stop-color="#7B68EE" stop-opacity="0.8"/>
      <stop offset="100%" stop-color="#9370DB" stop-opacity="0.6"/>
    </radialGradient>
    <radialGradient id="rgrad3" cx="69.8%" cy="47.2%" r="60%">
      <stop offset="0%" stop-color="#32CD32" stop-opacity="1"/>
      <stop offset="50%" stop-color="#228B22" stop-opacity="0.8"/>
      <stop offset="100%" stop-color="#006400" stop-opacity="0.6"/>
    </radialGradient>
    <radialGradient id="rgrad4" cx="39.8%" cy="55.2%" r="60%">
      <stop offset="0%" stop-color="#FF1493" stop-opacity="1"/>
      <stop offset="50%" stop-color="#FF69B4" stop-opacity="0.8"/>
      <stop offset="100%" stop-color="#FFB6C1" stop-opacity="0.6"/>
    </radialGradient>
    <clipPath id="clipCircle">
      <circle cx="0" cy="0" r="50"/>
    </clipPath>
    <clipPath id="clipStar">
      <path d="M0.0,-50.0 L14.7,-20.2 L47.6,-15.5 L23.8,7.7 L29.4,40.5 L0.0,25.0 L-29.4,40.5 L-23.8,7.7 L-47.6,-15.5 L-14.7,-20.2Z"/>
    </clipPath>
    <clipPath id="clipHex">
      <path d="M39.0,22.5 L0.0,45.0 L-39.0,22.5 L-39.0,-22.5 L-0.0,-45.0 L39.0,-22.5Z"/>
    </clipPath>
    <clipPath id="clipRect">
      <rect x="-40" y="-30" width="80" height="60" rx="10"/>
    </clipPath>
    <clipPath id="clipDynamic">
      <circle cx="0" cy="0" r="47.9"/>
    </clipPath>
    <mask id="maskGradient" maskContentUnits="objectBoundingBox">
      <rect x="0" y="0" width="1" height="1" fill="url(#maskGrad)"/>
    </mask>
    <linearGradient id="maskGrad" x1="0%" y1="0%" x2="100%" y2="100%">
      <stop offset="0%" stop-color="white"/>
      <stop offset="100%" stop-color="black"/>
    </linearGradient>
    <mask id="maskCircleFade">
      <circle cx="0" cy="0" r="60" fill="white"/>
      <circle cx="0" cy="0" r="30" fill="black"/>
    </mask>
    <mask id="maskStripes">
      <rect x="-50" y="-50" width="100" height="100" fill="white"/>
      <rect x="-50" y="-40" width="100" height="10" fill="black"/>
      <rect x="-50" y="-20" width="100" height="10" fill="black"/>
      <rect x="-50" y="0" width="100" height="10" fill="black"/>
      <rect x="-50" y="20" width="100" height="10" fill="black"/>
      <rect x="-50" y="40" width="100" height="10" fill="black"/>
    </mask>
    <mask id="maskDynamic">
      <rect x="-60" y="-60" width="120" height="120" fill="white" fill-opacity="0.65"/>
      <circle cx="0" cy="0" r="25" fill="white"/>
    </mask>
  </defs>
  <rect width="1920" height="1080" fill="url(#lgrad0)"/>
  <g transform="translate(125.8, 112.7)">
      <g transform="translate(4.31,2.03) rotate(2.48) scale(1.000)">
        <g transform="translate(5.00,0.92) rotate(6.59) scale(0.980)">
        <g transform="translate(4.46,-0.27) rotate(11.92) scale(0.960)">
        <g transform="translate(2.84,-1.44) rotate(17.99) scale(0.940)" clip-path="url(#clipCircle)">
        <g transform="translate(0.52,-2.47) rotate(24.21) scale(0.920)">
        <g transform="translate(-1.93,-3.29) rotate(29.96) scale(0.900)">
        <g transform="translate(-3.90,-3.82) rotate(34.62) scale(0.880)">
        <path d="M0.0,-67.4 L19.8,-27.3 L64.1,-20.8 L32.1,10.4 L39.6,54.6 L0.0,33.7 L-39.6,54.6 L-32.1,10.4 L-64.1,-20.8 L-19.8,-27.3Z" fill="url(#lgrad0)" filter="url(#blur0)" opacity="0.70"/>
      </g>
      </g>
      </g>
      </g>
      </g>
      </g>
      </g>
  </g>
  <g transform="translate(350.0, 95.8)">
      <g transform="translate(4.46,-1.80) rotate(2.48) scale(1.000)">
        <g transform="translate(2.84,-2.78) rotate(6.59) scale(0.980)">
        <g transform="translate(0.52,-3.50) rotate(11.92) scale(0.960)">
        <g transform="translate(-1.93,-3.92) rotate(17.99) scale(0.940)">
        <g transform="translate(-3.90,-3.98) rotate(24.21) scale(0.920)">
        <g transform="translate(-4.92,-3.69) rotate(29.96) scale(0.900)" mask="url(#maskCircleFade)">
        <g transform="translate(-4.74,-3.07) rotate(34.62) scale(0.880)">
        <rect x="-37.5" y="-37.5" width="75.0" height="75.0" rx="18.7" fill="url(#rgrad1)" filter="url(#shadow)" opacity="0.79"/>
        <circle cx="0" cy="0" r="25.0" fill="url(#rgrad2)" opacity="0.55"/>
      </g>
      </g>
      </g>
      </g>
      </g>
      </g>
      </g>
  </g>
  <g transform="translate(566.8, 80.9)">
      <g transform="translate(0.52,-3.98) rotate(2.48) scale(1.000)">
        <g transform="translate(-1.93,-3.92) rotate(6.59) scale(0.980)">
        <g transform="translate(-3.90,-3.52) rotate(11.92) scale(0.960)">
        <g transform="translate(-4.92,-2.80) rotate(17.99) scale(0.940)">
        <g transform="translate(-4.74,-1.83) rotate(24.21) scale(0.920)">
        <g transform="translate(-3.39,-0.69) rotate(29.96) scale(0.900)">
        <g transform="translate(-1.21,0.50) rotate(34.62) scale(0.880)">
        <path d="M35.7,20.6 L0.0,41.2 L-35.7,20.6 L-35.7,-20.6 L-0.0,-41.2 L35.7,-20.6Z" fill="url(#rgrad2)" filter="url(#blur2)" opacity="0.86"/>
        <ellipse cx="0" cy="0" rx="17.2" ry="11.5" fill="#FFFFFF" opacity="0.43"/>
      </g>
      </g>
      </g>
      </g>
      </g>
      </g>
      </g>
  </g>
  <g transform="translate(777.0, 75.0)">
      <g transform="translate(-3.90,-2.50) rotate(2.48) scale(1.000)">
        <g transform="translate(-4.92,-1.46) rotate(6.59) scale(0.980)">
        <g transform="translate(-4.74,-0.30) rotate(11.92) scale(0.960)">
        <g transform="translate(-3.39,0.89) rotate(17.99) scale(0.940)" clip-path="url(#clipRect)">
        <g transform="translate(-1.21,2.01) rotate(24.21) scale(0.920)">
        <g transform="translate(1.26,2.94) rotate(29.96) scale(0.900)">
        <g transform="translate(3.42,3.61) rotate(34.62) scale(0.880)">
        <circle cx="0" cy="0" r="27.2" fill="url(#lgrad3)" filter="url(#shadow)" opacity="0.90"/>
        <text x="0" y="5" text-anchor="middle" font-family="Arial, sans-serif" font-size="14" fill="#FFFFFF" opacity="0.90">166</text>
      </g>
      </g>
      </g>
      </g>
      </g>
      </g>
      </g>
  </g>
  <g transform="translate(983.1, 80.8)">
      <g transform="translate(-4.74,1.28) rotate(2.48) scale(1.000)">
        <g transform="translate(-3.39,2.34) rotate(6.59) scale(0.980)">
        <g transform="translate(-1.21,3.20) rotate(11.92) scale(0.960)">
        <g transform="translate(1.26,3.76) rotate(17.99) scale(0.940)">
        <g transform="translate(3.42,4.00) rotate(24.21) scale(0.920)">
        <g transform="translate(4.75,3.87) rotate(29.96) scale(0.900)" mask="url(#maskGradient)">
        <g transform="translate(4.92,3.40) rotate(34.62) scale(0.880)">
        <path d="M0.0,-45.3 L13.3,-18.3 L43.1,-14.0 L21.5,7.0 L26.6,36.6 L0.0,22.6 L-26.6,36.6 L-21.5,7.0 L-43.1,-14.0 L-13.3,-18.3Z" fill="url(#rgrad4)" filter="url(#blur4)" opacity="0.90"/>
      </g>
      </g>
      </g>
      </g>
      </g>
      </g>
      </g>
  </g>
  <g transform="translate(1188.4, 95.7)">
      <g transform="translate(-1.21,3.88) rotate(2.48) scale(1.000)">
        <g transform="translate(1.26,3.99) rotate(6.59) scale(0.980)">
        <g transform="translate(3.42,3.75) rotate(11.92) scale(0.960)">
        <g transform="translate(4.75,3.17) rotate(17.99) scale(0.940)">
        <g transform="translate(4.92,2.31) rotate(24.21) scale(0.920)">
        <g transform="translate(3.88,1.24) rotate(29.96) scale(0.900)">
        <g transform="translate(1.89,0.06) rotate(34.62) scale(0.880)">
        <rect x="-24.8" y="-24.8" width="49.6" height="49.6" rx="12.4" fill="url(#rgrad0)" filter="url(#shadow)" opacity="0.86"/>
        <circle cx="0" cy="0" r="16.5" fill="url(#rgrad1)" opacity="0.60"/>
      </g>
      </g>
      </g>
      </g>
      </g>
      </g>
      </g>
  </g>
  <g transform="translate(1396.6, 112.5)">
      <g transform="translate(3.42,2.91) rotate(2.48) scale(1.000)">
        <g transform="translate(4.75,1.97) rotate(6.59) scale(0.980)">
        <g transform="translate(4.92,0.86) rotate(11.92) scale(0.960)">
        <g transform="translate(3.88,-0.33) rotate(17.99) scale(0.940)" clip-path="url(#clipStar)">
        <g transform="translate(1.89,-1.50) rotate(24.21) scale(0.920)">
        <g transform="translate(-0.56,-2.53) rotate(29.96) scale(0.900)">
        <g transform="translate(-2.88,-3.33) rotate(34.62) scale(0.880)">
        <path d="M33.0,19.1 L0.0,38.1 L-33.0,19.1 L-33.0,-19.1 L-0.0,-38.1 L33.0,-19.1Z" fill="url(#lgrad1)" filter="url(#blur1)" opacity="0.79"/>
        <ellipse cx="0" cy="0" rx="15.9" ry="10.6" fill="#FFFFFF" opacity="0.40"/>
      </g>
      </g>
      </g>
      </g>
      </g>
      </g>
      </g>
  </g>
  <g transform="translate(1610.5, 123.5)">
      <g transform="translate(4.92,-0.73) rotate(2.48) scale(1.000)">
        <g transform="translate(3.88,-1.86) rotate(6.59) scale(0.980)">
        <g transform="translate(1.89,-2.82) rotate(11.92) scale(0.960)">
        <g transform="translate(-0.56,-3.53) rotate(17.99) scale(0.940)">
        <g transform="translate(-2.88,-3.93) rotate(24.21) scale(0.920)">
        <g transform="translate(-4.49,-3.97) rotate(29.96) scale(0.900)" mask="url(#maskDynamic)">
        <g transform="translate(-5.00,-3.66) rotate(34.62) scale(0.880)">
        <circle cx="0" cy="0" r="37.1" fill="url(#rgrad2)" filter="url(#shadow)" opacity="0.70"/>
        <text x="0" y="5" text-anchor="middle" font-family="Arial, sans-serif" font-size="14" fill="#FFFFFF" opacity="0.70">166</text>
      </g>
      </g>
      </g>
      </g>
      </g>
      </g>
      </g>
  </g>
  <g transform="translate(71.6, 403.4)">
      <g transform="translate(1.89,-3.70) rotate(2.48) scale(1.000)">
        <g transform="translate(-0.56,-3.98) rotate(6.59) scale(0.980)">
        <g transform="translate(-2.88,-3.91) rotate(11.92) scale(0.960)">
        <g transform="translate(-4.49,-3.49) rotate(17.99) scale(0.940)">
        <g transform="translate(-5.00,-2.75) rotate(24.21) scale(0.920)">
        <g transform="translate(-4.28,-1.77) rotate(29.96) scale(0.900)">
        <g transform="translate(-2.52,-0.63) rotate(34.62) scale(0.880)">
        <path d="M0.0,-71.8 L21.1,-29.0 L68.3,-22.2 L34.1,11.1 L42.2,58.1 L0.0,35.9 L-42.2,58.1 L-34.1,11.1 L-68.3,-22.2 L-21.1,-29.0Z" fill="url(#rgrad3)" filter="url(#blur3)" opacity="0.59"/>
      </g>
      </g>
      </g>
      </g>
      </g>
      </g>
      </g>
  </g>
  <g transform="translate(299.7, 392.3)">
      <g transform="translate(-2.88,-3.27) rotate(2.48) scale(1.000)">
        <g transform="translate(-4.49,-2.45) rotate(6.59) scale(0.980)">
        <g transform="translate(-5.00,-1.40) rotate(11.92) scale(0.960)">
        <g transform="translate(-4.28,-0.23) rotate(17.99) scale(0.940)" clip-path="url(#clipDynamic)">
        <g transform="translate(-2.52,0.96) rotate(24.21) scale(0.920)">
        <g transform="translate(-0.14,2.06) rotate(29.96) scale(0.900)">
        <g transform="translate(2.27,2.98) rotate(34.62) scale(0.880)">
        <rect x="-29.3" y="-29.3" width="58.6" height="58.6" rx="14.6" fill="url(#lgrad4)" filter="url(#shadow)" opacity="0.47"/>
        <circle cx="0" cy="0" r="19.5" fill="url(#rgrad0)" opacity="0.33"/>
      </g>
      </g>
      </g>
      </g>
      </g>
      </g>
      </g>
  </g>
  <g transform="translate(532.7, 375.4)">
      <g transform="translate(-5.00,0.17) rotate(2.48) scale(1.000)">
        <g transform="translate(-4.28,1.34) rotate(6.59) scale(0.980)">
        <g transform="translate(-2.52,2.40) rotate(11.92) scale(0.960)">
        <g transform="translate(-0.14,3.24) rotate(17.99) scale(0.940)">
        <g transform="translate(2.27,3.79) rotate(24.21) scale(0.920)">
        <g transform="translate(4.13,4.00) rotate(29.96) scale(0.900)" mask="url(#maskStripes)">
        <g transform="translate(4.98,3.85) rotate(34.62) scale(0.880)">
        <path d="M24.3,14.0 L0.0,28.0 L-24.3,14.0 L-24.3,-14.0 L-0.0,-28.0 L24.3,-14.0Z" fill="url(#rgrad0)" filter="url(#blur0)" opacity="0.35"/>
        <ellipse cx="0" cy="0" rx="11.7" ry="7.8" fill="#FFFFFF" opacity="0.18"/>
      </g>
      </g>
      </g>
      </g>
      </g>
      </g>
      </g>
  </g>
  <g transform="translate(767.6, 360.7)">
      <g transform="translate(-2.52,3.45) rotate(2.48) scale(1.000)">
        <g transform="translate(-0.14,3.90) rotate(6.59) scale(0.980)">
        <g transform="translate(2.27,3.99) rotate(11.92) scale(0.960)">
        <g transform="translate(4.13,3.73) rotate(17.99) scale(0.940)">
        <g transform="translate(4.98,3.13) rotate(24.21) scale(0.920)">
        <g transform="translate(4.60,2.26) rotate(29.96) scale(0.900)">
        <g transform="translate(3.11,1.18) rotate(34.62) scale(0.880)">
        <circle cx="0" cy="0" r="23.5" fill="url(#rgrad1)" filter="url(#shadow)" opacity="0.25"/>
        <text x="0" y="5" text-anchor="middle" font-family="Arial, sans-serif" font-size="14" fill="#FFFFFF" opacity="0.25">166</text>
      </g>
      </g>
      </g>
      </g>
      </g>
      </g>
      </g>
  </g>
  <g transform="translate(1000.5, 355.0)">
      <g transform="translate(2.27,3.56) rotate(2.48) scale(1.000)">
        <g transform="translate(4.13,2.87) rotate(6.59) scale(0.980)">
        <g transform="translate(4.98,1.92) rotate(11.92) scale(0.960)">
        <g transform="translate(4.60,0.79) rotate(17.99) scale(0.940)" clip-path="url(#clipHex)">
        <g transform="translate(3.11,-0.40) rotate(24.21) scale(0.920)">
        <g transform="translate(0.85,-1.56) rotate(29.96) scale(0.900)">
        <g transform="translate(-1.62,-2.58) rotate(34.62) scale(0.880)">
        <path d="M0.0,-59.3 L17.4,-24.0 L56.4,-18.3 L28.2,9.2 L34.8,48.0 L0.0,29.6 L-34.8,48.0 L-28.2,9.2 L-56.4,-18.3 L-17.4,-24.0Z" fill="url(#lgrad2)" filter="url(#blur2)" opacity="0.17"/>
      </g>
      </g>
      </g>
      </g>
      </g>
      </g>
      </g>
  </g>
  <g transform="translate(1228.5, 361.1)">
      <g transform="translate(4.98,0.40) rotate(2.48) scale(1.000)">
        <g transform="translate(4.60,-0.80) rotate(6.59) scale(0.980)">
        <g transform="translate(3.11,-1.92) rotate(11.92) scale(0.960)">
        <g transform="translate(0.85,-2.87) rotate(17.99) scale(0.940)">
        <g transform="translate(-1.62,-3.57) rotate(24.21) scale(0.920)">
        <g transform="translate(-3.69,-3.94) rotate(29.96) scale(0.900)" mask="url(#maskCircleFade)">
        <g transform="translate(-4.86,-3.97) rotate(34.62) scale(0.880)">
        <rect x="-36.1" y="-36.1" width="72.2" height="72.2" rx="18.1" fill="url(#rgrad3)" filter="url(#shadow)" opacity="0.12"/>
        <circle cx="0" cy="0" r="24.1" fill="url(#rgrad4)" opacity="0.08"/>
      </g>
      </g>
      </g>
      </g>
      </g>
      </g>
      </g>
  </g>
  <g transform="translate(1449.5, 376.1)">
      <g transform="translate(3.11,-3.13) rotate(2.48) scale(1.000)">
        <g transform="translate(0.85,-3.73) rotate(6.59) scale(0.980)">
        <g transform="translate(-1.62,-3.99) rotate(11.92) scale(0.960)">
        <g transform="translate(-3.69,-3.89) rotate(17.99) scale(0.940)">
        <g transform="translate(-4.86,-3.45) rotate(24.21) scale(0.920)">
        <g transform="translate(-4.83,-2.70) rotate(29.96) scale(0.900)">
        <g transform="translate(-3.63,-1.71) rotate(34.62) scale(0.880)">
        <path d="M38.4,22.2 L0.0,44.4 L-38.4,22.2 L-38.4,-22.2 L-0.0,-44.4 L38.4,-22.2Z" fill="url(#rgrad4)" filter="url(#blur4)" opacity="0.10"/>
        <ellipse cx="0" cy="0" rx="18.5" ry="12.3" fill="#FFFFFF" opacity="0.05"/>
      </g>
      </g>
      </g>
      </g>
      </g>
      </g>
      </g>
  </g>
  <g transform="translate(1663.3, 392.9)">
      <g transform="translate(-1.62,-3.78) rotate(2.48) scale(1.000)">
        <g transform="translate(-3.69,-3.23) rotate(6.59) scale(0.980)">
        <g transform="translate(-4.86,-2.39) rotate(11.92) scale(0.960)">
        <g transform="translate(-4.83,-1.34) rotate(17.99) scale(0.940)" clip-path="url(#clipCircle)">
        <g transform="translate(-3.63,-0.16) rotate(24.21) scale(0.920)">
        <g transform="translate(-1.53,1.02) rotate(29.96) scale(0.900)">
        <g transform="translate(0.94,2.12) rotate(34.62) scale(0.880)">
        <circle cx="0" cy="0" r="31.4" fill="url(#lgrad0)" filter="url(#shadow)" opacity="0.12"/>
        <text x="0" y="5" text-anchor="middle" font-family="Arial, sans-serif" font-size="14" fill="#FFFFFF" opacity="0.12">166</text>
      </g>
      </g>
      </g>
      </g>
      </g>
      </g>
      </g>
  </g>
  <g transform="translate(111.3, 683.7)">
      <g transform="translate(-4.86,-0.95) rotate(2.48) scale(1.000)">
        <g transform="translate(-4.83,0.24) rotate(6.59) scale(0.980)">
        <g transform="translate(-3.63,1.41) rotate(11.92) scale(0.960)">
        <g transform="translate(-1.53,2.45) rotate(17.99) scale(0.940)">
        <g transform="translate(0.94,3.27) rotate(24.21) scale(0.920)">
        <g transform="translate(3.18,3.81) rotate(29.96) scale(0.900)" mask="url(#maskGradient)">
        <g transform="translate(4.64,4.00) rotate(34.62) scale(0.880)">
        <path d="M0.0,-49.1 L14.4,-19.9 L46.7,-15.2 L23.4,7.6 L28.9,39.7 L0.0,24.6 L-28.9,39.7 L-23.4,7.6 L-46.7,-15.2 L-14.4,-19.9Z" fill="url(#rgrad1)" filter="url(#blur1)" opacity="0.17"/>
      </g>
      </g>
      </g>
      </g>
      </g>
      </g>
      </g>
  </g>
  <g transform="translate(316.6, 683.3)">
      <g transform="translate(-3.63,2.75) rotate(2.48) scale(1.000)">
        <g transform="translate(-1.53,3.49) rotate(6.59) scale(0.980)">
        <g transform="translate(0.94,3.91) rotate(11.92) scale(0.960)">
        <g transform="translate(3.18,3.98) rotate(17.99) scale(0.940)">
        <g transform="translate(4.64,3.70) rotate(24.21) scale(0.920)">
        <g transform="translate(4.97,3.09) rotate(29.96) scale(0.900)">
        <g transform="translate(4.08,2.20) rotate(34.62) scale(0.880)">
        <rect x="-22.7" y="-22.7" width="45.4" height="45.4" rx="11.4" fill="url(#rgrad2)" filter="url(#shadow)" opacity="0.25"/>
        <circle cx="0" cy="0" r="15.1" fill="url(#rgrad3)" opacity="0.18"/>
      </g>
      </g>
      </g>
      </g>
      </g>
      </g>
      </g>
  </g>
  <g transform="translate(522.7, 672.0)">
      <g transform="translate(0.94,3.93) rotate(2.48) scale(1.000)">
        <g transform="translate(3.18,3.53) rotate(6.59) scale(0.980)">
        <g transform="translate(4.64,2.82) rotate(11.92) scale(0.960)">
        <g transform="translate(4.97,1.86) rotate(17.99) scale(0.940)" clip-path="url(#clipRect)">
        <g transform="translate(4.08,0.73) rotate(24.21) scale(0.920)">
        <g transform="translate(2.19,-0.47) rotate(29.96) scale(0.900)">
        <g transform="translate(-0.23,-1.62) rotate(34.62) scale(0.880)">
        <path d="M28.6,16.5 L0.0,33.1 L-28.6,16.5 L-28.6,-16.5 L-0.0,-33.1 L28.6,-16.5Z" fill="url(#lgrad3)" filter="url(#blur3)" opacity="0.36"/>
        <ellipse cx="0" cy="0" rx="13.8" ry="9.2" fill="#FFFFFF" opacity="0.18"/>
      </g>
      </g>
      </g>
      </g>
      </g>
      </g>
      </g>
  </g>
  <g transform="translate(733.1, 655.0)">
      <g transform="translate(4.64,1.49) rotate(2.48) scale(1.000)">
        <g transform="translate(4.97,0.33) rotate(6.59) scale(0.980)">
        <g transform="translate(4.08,-0.86) rotate(11.92) scale(0.960)">
        <g transform="translate(2.19,-1.98) rotate(17.99) scale(0.940)">
        <g transform="translate(-0.23,-2.92) rotate(24.21) scale(0.920)">
        <g transform="translate(-2.60,-3.60) rotate(29.96) scale(0.900)" mask="url(#maskDynamic)">
        <g transform="translate(-4.33,-3.95) rotate(34.62) scale(0.880)">
        <circle cx="0" cy="0" r="34.7" fill="url(#rgrad4)" filter="url(#shadow)" opacity="0.47"/>
        <text x="0" y="5" text-anchor="middle" font-family="Arial, sans-serif" font-size="14" fill="#FFFFFF" opacity="0.47">166</text>
      </g>
      </g>
      </g>
      </g>
      </g>
      </g>
      </g>
  </g>
  <g transform="translate(950.0, 640.4)">
      <g transform="translate(4.08,-2.32) rotate(2.48) scale(1.000)">
        <g transform="translate(2.19,-3.18) rotate(6.59) scale(0.980)">
        <g transform="translate(-0.23,-3.75) rotate(11.92) scale(0.960)">
        <g transform="translate(-2.60,-3.99) rotate(17.99) scale(0.940)">
        <g transform="translate(-4.33,-3.88) rotate(24.21) scale(0.920)">
        <g transform="translate(-5.00,-3.42) rotate(29.96) scale(0.900)">
        <g transform="translate(-4.44,-2.65) rotate(34.62) scale(0.880)">
        <path d="M0.0,-74.9 L22.0,-30.3 L71.3,-23.2 L35.6,11.6 L44.0,60.6 L0.0,37.5 L-44.0,60.6 L-35.6,11.6 L-71.3,-23.2 L-22.0,-30.3Z" fill="url(#rgrad0)" filter="url(#blur0)" opacity="0.59"/>
      </g>
      </g>
      </g>
      </g>
      </g>
      </g>
      </g>
  </g>
  <g transform="translate(1174.3, 635.0)">
      <g transform="translate(-0.23,-4.00) rotate(2.48) scale(1.000)">
        <g transform="translate(-2.60,-3.76) rotate(6.59) scale(0.980)">
        <g transform="translate(-4.33,-3.19) rotate(11.92) scale(0.960)">
        <g transform="translate(-5.00,-2.34) rotate(17.99) scale(0.940)" clip-path="url(#clipStar)">
        <g transform="translate(-4.44,-1.27) rotate(24.21) scale(0.920)">
        <g transform="translate(-2.80,-0.10) rotate(29.96) scale(0.900)">
        <g transform="translate(-0.47,1.09) rotate(34.62) scale(0.880)">
        <rect x="-33.4" y="-33.4" width="66.8" height="66.8" rx="16.7" fill="url(#lgrad1)" filter="url(#shadow)" opacity="0.70"/>
        <circle cx="0" cy="0" r="22.3" fill="url(#rgrad2)" opacity="0.49"/>
      </g>
      </g>
      </g>
      </g>
      </g>
      </g>
      </g>
  </g>
  <g transform="translate(1404.9, 641.4)">
      <g transform="translate(-4.33,-2.00) rotate(2.48) scale(1.000)">
        <g transform="translate(-5.00,-0.89) rotate(6.59) scale(0.980)">
        <g transform="translate(-4.44,0.30) rotate(11.92) scale(0.960)">
        <g transform="translate(-2.80,1.47) rotate(17.99) scale(0.940)">
        <g transform="translate(-0.47,2.50) rotate(24.21) scale(0.920)">
        <g transform="translate(1.97,3.31) rotate(29.96) scale(0.900)" mask="url(#maskStripes)">
        <g transform="translate(3.93,3.83) rotate(34.62) scale(0.880)">
        <path d="M27.3,15.7 L0.0,31.5 L-27.3,15.7 L-27.3,-15.7 L-0.0,-31.5 L27.3,-15.7Z" fill="url(#rgrad2)" filter="url(#blur2)" opacity="0.80"/>
        <ellipse cx="0" cy="0" rx="13.1" ry="8.7" fill="#FFFFFF" opacity="0.40"/>
      </g>
      </g>
      </g>
      </g>
      </g>
      </g>
      </g>
  </g>
  <g transform="translate(1639.1, 656.5)">
      <g transform="translate(-4.44,1.83) rotate(2.48) scale(1.000)">
        <g transform="translate(-2.80,2.80) rotate(6.59) scale(0.980)">
        <g transform="translate(-0.47,3.52) rotate(11.92) scale(0.960)">
        <g transform="translate(1.97,3.92) rotate(17.99) scale(0.940)">
        <g transform="translate(3.93,3.98) rotate(24.21) scale(0.920)">
        <g transform="translate(4.93,3.68) rotate(29.96) scale(0.900)">
        <g transform="translate(4.72,3.05) rotate(34.62) scale(0.880)">
        <circle cx="0" cy="0" r="22.5" fill="url(#rgrad3)" filter="url(#shadow)" opacity="0.86"/>
        <text x="0" y="5" text-anchor="middle" font-family="Arial, sans-serif" font-size="14" fill="#FFFFFF" opacity="0.86">166</text>
      </g>
      </g>
      </g>
      </g>
      </g>
      </g>
      </g>
  </g>
  <g transform="translate(113.6, 953.3)">
      <g transform="translate(-0.47,3.98) rotate(2.48) scale(1.000)">
        <g transform="translate(1.97,3.92) rotate(6.59) scale(0.980)">
        <g transform="translate(3.93,3.50) rotate(11.92) scale(0.960)">
        <g transform="translate(4.93,2.77) rotate(17.99) scale(0.940)" clip-path="url(#clipDynamic)">
        <g transform="translate(4.72,1.80) rotate(24.21) scale(0.920)">
        <g transform="translate(3.36,0.66) rotate(29.96) scale(0.900)">
        <g transform="translate(1.17,-0.54) rotate(34.62) scale(0.880)">
        <path d="M0.0,-51.4 L15.1,-20.8 L48.8,-15.9 L24.4,7.9 L30.2,41.6 L0.0,25.7 L-30.2,41.6 L-24.4,7.9 L-48.8,-15.9 L-15.1,-20.8Z" fill="url(#lgrad4)" filter="url(#blur4)" opacity="0.90"/>
      </g>
      </g>
      </g>
      </g>
      </g>
      </g>
      </g>
  </g>
  <g transform="translate(386.1, 340.7)" mask="url(#maskGradient)">
    <ellipse cx="0" cy="0" rx="200" ry="150" fill="url(#rgrad0)" filter="url(#blur3)" opacity="0.3"/>
  </g>
  <g transform="translate(889.3, 286.7)" mask="url(#maskCircleFade)">
    <ellipse cx="0" cy="0" rx="200" ry="150" fill="url(#rgrad1)" filter="url(#blur3)" opacity="0.3"/>
  </g>
  <g transform="translate(1310.4, 239.0)" mask="url(#maskStripes)">
    <ellipse cx="0" cy="0" rx="200" ry="150" fill="url(#rgrad2)" filter="url(#blur3)" opacity="0.3"/>
  </g>
</svg>