<?xml version="1.0" encoding="UTF-8"?>
<svg xmlns="http://www.w3.org/2000/svg" viewBox="0 0 1920 1080" width="1920" height="1080">
  <defs>
    <filter id="blur0" x="-50%" y="-50%" width="200%" height="200%">
      <feGaussianBlur in="SourceGraphic" stdDeviation="1"/>
    </filter>
    <filter id="blur1" x="-50%" y="-50%" width="200%" height="200%">
      <feGaussianBlur in="SourceGraphic" stdDeviation="3"/>
    </filter>
    <filter id="blur2" x="-50%" y="-50%" width="200%" height="200%">
      <feGaussianBlur in="SourceGraphic" stdDeviation="5"/>
    </filter>
    <filter id="blur3" x="-50%" y="-50%" width="200%" height="200%">
      <feGaussianBlur in="SourceGraphic" stdDeviation="7"/>
    </filter>
    <filter id="blur4" x="-50%" y="-50%" width="200%" height="200%">
      <feGaussianBlur in="SourceGraphic" stdDeviation="9"/>
    </filter>
    <filter id="shadow" x="-50%" y="-50%" width="200%" height="200%">
      <feGaussianBlur in="SourceAlpha" stdDeviation="3" result="blur"/>
      <feOffset in="blur" dx="4" dy="4" result="offsetBlur"/>
      <feMerge>
        <feMergeNode in="offsetBlur"/>
        <feMergeNode in="SourceGraphic"/>
      </feMerge>
    </filter>
    <linearGradient id="lgrad0" x1="0%" y1="0%" x2="14.6%" y2="85.4%">
      <stop offset="0%" stop-color="#FF6B6B"/>
      <stop offset="33%" stop-color="#4ECDC4"/>
      <stop offset="66%" stop-color="#45B7D1"/>
      <stop offset="100%" stop-color="#96E6A1"/>
    </linearGradient>
    <linearGradient id="lgrad1" x1="0%" y1="0%" x2="1.7%" y2="62.9%">
      <stop offset="0%" stop-color="#FFE66D"/>
      <stop offset="33%" stop-color="#FF6B6B"/>
      <stop offset="66%" stop-color="#C44D58"/>
      <stop offset="100%" stop-color="#8B0000"/>
    </linearGradient>
    <linearGradient id="lgrad2" x1="0%" y1="0%" x2="1.7%" y2="37.1%">
      <stop offset="0%" stop-color="#4169E1"/>
      <stop offset="33%" stop-color="#7B68EE"/>
      <stop offset="66%" stop-color="#9370DB"/>
      <stop offset="100%" stop-color="#FFD700"/>
    </linearGradient>
    <linearGradient id="lgrad3" x1="0%" y1="0%" x2="14.6%" y2="14.6%">
      <stop offset="0%" stop-color="#32CD32"/>
      <stop offset="33%" stop-color="#228B22"/>
      <stop offset="66%" stop-color="#006400"/>
      <stop offset="100%" stop-color="#ADFF2F"/>
    </linearGradient>
    <linearGradient id="lgrad4" x1="0%" y1="0%" x2="37.1%" y2="1.7%">
      <stop offset="0%" stop-color="#FF1493"/>
      <stop offset="33%" stop-color="#FF69B4"/>
      <stop offset="66%" stop-color="#FFB6C1"/>
      <stop offset="100%" stop-color="#FFC0CB"/>
    </linearGradient>
    <radialGradient id="rgrad0" cx="44.0%" cy="66.0%" r="60%">
      <stop offset="0%" stop-color="#FF6B6B" stop-opacity="1"/>
      <stop offset="50%" stop-color="#4ECDC4" stop-opacity="0.8"/>
      <stop offset="100%" stop-color="#45B7D1" stop-opacity="0.6"/>
    </radialGradient>
    <radialGradient id="rgrad1" cx="54.0%" cy="34.0%" r="60%">
      <stop offset="0%" stop-color="#FFE66D" stop-opacity="1"/>
      <stop offset="50%" stop-color="#FF6B6B" stop-opacity="0.8"/>
      <stop offset="100%" stop-color="#C44D58" stop-opacity="0.6"/>
    </radialGradient>
    <radialGradient id="rgrad2" cx="64.0%" cy="42.0%" r="60%">
      <stop offset="0%" stop-color="#4169E1" stop-opacity="1"/>
      <stop offset="50%" stop-color="#7B68EE" stop-opacity="0.8"/>
      <stop offset="100%" stop-color="#9370DB" stop-opacity="0.6"/>
    </radialGradient>
    <radialGradient id="rgrad3" cx="34.0%" cy="50.0%" r="60%">
      <stop offset="0%" stop-color="#32CD32" stop-opacity="1"/>
      <stop offset="50%" stop-color="#228B22" stop-opacity="0.8"/>
      <stop offset="100%" stop-color="#006400" stop-opacity="0.6"/>
    </radialGradient>
    <radialGradient id="rgrad4" cx="44.0%" cy="58.0%" r="60%">
      <stop offset="0%" stop-color="#FF1493" stop-opacity="1"/>
      <stop offset="50%" stop-color="#FF69B4" stop-opacity="0.8"/>
      <stop offset="100%" stop-color="#FFB6C1" stop-opacity="0.6"/>
    </radialGradient>
    <clipPath id="clipCircle">
      <circle cx="0" cy="0" r="50"/>
    </clipPath>
    <clipPath id="clipStar">
      <path d="M0.0,-50.0 L14.7,-20.2 L47.6,-15.5 L23.8,7.7 L29.4,40.5 L0.0,25.0 L-29.4,40.5 L-23.8,7.7 L-47.6,-15.5 L-14.7,-20.2Z"/>
    </clipPath>
    <clipPath id="clipHex">
      <path d="M39.0,22.5 L0.0,45.0 L-39.0,22.5 L-39.0,-22.5 L-0.0,-45.0 L39.0,-22.5Z"/>
    </clipPath>
    <clipPath id="clipRect">
      <rect x="-40" y="-30" width="80" height="60" rx="10"/>
    </clipPath>
    <clipPath id="clipDynamic">
      <circle cx="0" cy="0" r="48.5"/>
    </clipPath>
    <mask id="maskGradient" maskContentUnits="objectBoundingBox">
      <rect x="0" y="0" width="1" height="1" fill="url(#maskGrad)"/>
    </mask>
    <linearGradient id="maskGrad" x1="0%" y1="0%" x2="100%" y2="100%">
      <stop offset="0%" stop-color="white"/>
      <stop offset="100%" stop-color="black"/>
    </linearGradient>
    <mask id="maskCircleFade">
      <circle cx="0" cy="0" r="60" fill="white"/>
      <circle cx="0" cy="0" r="30" fill="black"/>
    </mask>
    <mask id="maskStripes">
      <rect x="-50" y="-50" width="100" height="100" fill="white"/>
      <rect x="-50" y="-40" width="100" height="10" fill="black"/>
      <rect x="-50" y="-20" width="100" height="10" fill="black"/>
      <rect x="-50" y="0" width="100" height="10" fill="black"/>
      <rect x="-50" y="20" width="100" height="10" fill="black"/>
      <rect x="-50" y="40" width="100" height="10" fill="black"/>
    </mask>
    <mask id="maskDynamic">
      <rect x="-60" y="-60" width="120" height="120" fill="white" fill-opacity="0.67"/>
      <circle cx="0" cy="0" r="25" fill="white"/>
    </mask>
  </defs>
  <rect width="1920" height="1080" fill="url(#lgrad0)"/>
  <g transform="translate(127.1, 110.8)">
      <g transform="translate(4.51,1.72) rotate(2.67) scale(1.000)">
        <g transform="translate(4.99,0.58) rotate(6.91) scale(0.980)">
        <g transform="translate(4.25,-0.62) rotate(12.31) scale(0.960)">
        <g transform="translate(2.47,-1.76) rotate(18.36) scale(0.940)" clip-path="url(#clipCircle)">
        <g transform="translate(0.08,-2.74) rotate(24.46) scale(0.920)">
        <g transform="translate(-2.33,-3.48) rotate(30.00) scale(0.900)">
        <g transform="translate(-4.16,-3.91) rotate(34.36) scale(0.880)">
        <path d="M0.0,-68.0 L20.0,-27.5 L64.7,-21.0 L32.3,10.5 L40.0,55.0 L0.0,34.0 L-40.0,55.0 L-32.3,10.5 L-64.7,-21.0 L-20.0,-27.5Z" fill="url(#lgrad0)" filter="url(#blur0)" opacity="0.71"/>
      </g>
      </g>
      </g>
      </g>
      </g>
      </g>
      </g>
  </g>
  <g transform="translate(350.0, 93.7)">
      <g transform="translate(4.25,-2.11) rotate(2.67) scale(1.000)">
        <g transform="translate(2.47,-3.02) rotate(6.91) scale(0.980)">
        <g transform="translate(0.08,-3.66) rotate(12.31) scale(0.960)">
        <g transform="translate(-2.33,-3.97) rotate(18.36) scale(0.940)">
        <g transform="translate(-4.16,-3.93) rotate(24.46) scale(0.920)">
        <g transform="translate(-4.98,-3.54) rotate(30.00) scale(0.900)" mask="url(#maskCircleFade)">
        <g transform="translate(-4.58,-2.83) rotate(34.36) scale(0.880)">
        <rect x="-37.5" y="-37.5" width="75.0" height="75.0" rx="18.7" fill="url(#rgrad1)" filter="url(#shadow)" opacity="0.80"/>
        <circle cx="0" cy="0" r="25.0" fill="url(#rgrad2)" opacity="0.56"/>
      </g>
      </g>
      </g>
      </g>
      </g>
      </g>
      </g>
  </g>
  <g transform="translate(565.5, 79.6)">
      <g transform="translate(0.08,-4.00) rotate(2.67) scale(1.000)">
        <g transform="translate(-2.33,-3.84) rotate(6.91) scale(0.980)">
        <g transform="translate(-4.16,-3.34) rotate(12.31) scale(0.960)">
        <g transform="translate(-4.98,-2.54) rotate(18.36) scale(0.940)">
        <g transform="translate(-4.58,-1.51) rotate(24.46) scale(0.920)">
        <g transform="translate(-3.06,-0.35) rotate(30.00) scale(0.900)">
        <g transform="translate(-0.78,0.85) rotate(34.36) scale(0.880)">
        <path d="M35.4,20.5 L0.0,40.9 L-35.4,20.5 L-35.4,-20.5 L-0.0,-40.9 L35.4,-20.5Z" fill="url(#rgrad2)" filter="url(#blur2)" opacity="0.87"/>
        <ellipse cx="0" cy="0" rx="17.1" ry="11.4" fill="#FFFFFF" opacity="0.43"/>
      </g>
      </g>
      </g>
      </g>
      </g>
      </g>
      </g>
  </g>
  <g transform="translate(774.8, 75.1)">
      <g transform="translate(-4.16,-2.21) rotate(2.67) scale(1.000)">
        <g transform="translate(-4.98,-1.13) rotate(6.91) scale(0.980)">
        <g transform="translate(-4.58,0.05) rotate(12.31) scale(0.960)">
        <g transform="translate(-3.06,1.23) rotate(18.36) scale(0.940)" clip-path="url(#clipRect)">
        <g transform="translate(-0.78,2.30) rotate(24.46) scale(0.920)">
        <g transform="translate(1.68,3.17) rotate(30.00) scale(0.900)">
        <g transform="translate(3.73,3.75) rotate(34.36) scale(0.880)">
        <circle cx="0" cy="0" r="26.9" fill="url(#lgrad3)" filter="url(#shadow)" opacity="0.90"/>
        <text x="0" y="5" text-anchor="middle" font-family="Arial, sans-serif" font-size="14" fill="#FFFFFF" opacity="0.90">180</text>
      </g>
      </g>
      </g>
      </g>
      </g>
      </g>
      </g>
  </g>
  <g transform="translate(980.5, 82.3)">
      <g transform="translate(-4.58,1.61) rotate(2.67) scale(1.000)">
        <g transform="translate(-3.06,2.62) rotate(6.91) scale(0.980)">
        <g transform="translate(-0.78,3.39) rotate(12.31) scale(0.960)">
        <g transform="translate(1.68,3.87) rotate(18.36) scale(0.940)">
        <g transform="translate(3.73,4.00) rotate(24.46) scale(0.920)">
        <g transform="translate(4.87,3.77) rotate(30.00) scale(0.900)" mask="url(#maskGradient)">
        <g transform="translate(4.82,3.20) rotate(34.36) scale(0.880)">
        <path d="M0.0,-45.2 L13.3,-18.3 L43.0,-14.0 L21.5,7.0 L26.5,36.5 L0.0,22.6 L-26.5,36.5 L-21.5,7.0 L-43.0,-14.0 L-13.3,-18.3Z" fill="url(#rgrad4)" filter="url(#blur4)" opacity="0.89"/>
      </g>
      </g>
      </g>
      </g>
      </g>
      </g>
      </g>
  </g>
  <g transform="translate(1186.0, 97.8)">
      <g transform="translate(-0.78,3.95) rotate(2.67) scale(1.000)">
        <g transform="translate(1.68,3.96) rotate(6.91) scale(0.980)">
        <g transform="translate(3.73,3.61) rotate(12.31) scale(0.960)">
        <g transform="translate(4.87,2.95) rotate(18.36) scale(0.940)">
        <g transform="translate(4.82,2.02) rotate(24.46) scale(0.920)">
        <g transform="translate(3.58,0.90) rotate(30.00) scale(0.900)">
        <g transform="translate(1.47,-0.29) rotate(34.36) scale(0.880)">
        <rect x="-25.1" y="-25.1" width="50.1" height="50.1" rx="12.5" fill="url(#rgrad0)" filter="url(#shadow)" opacity="0.85"/>
        <circle cx="0" cy="0" r="16.7" fill="url(#rgrad1)" opacity="0.60"/>
      </g>
      </g>
      </g>
      </g>
      </g>
      </g>
      </g>
  </g>
  <g transform="translate(1395.0, 114.4)">
      <g transform="translate(3.73,2.66) rotate(2.67) scale(1.000)">
        <g transform="translate(4.87,1.66) rotate(6.91) scale(0.980)">
        <g transform="translate(4.82,0.51) rotate(12.31) scale(0.960)">
        <g transform="translate(3.58,-0.68) rotate(18.36) scale(0.940)" clip-path="url(#clipStar)">
        <g transform="translate(1.47,-1.82) rotate(24.46) scale(0.920)">
        <g transform="translate(-1.00,-2.79) rotate(30.00) scale(0.900)">
        <g transform="translate(-3.23,-3.51) rotate(34.36) scale(0.880)">
        <path d="M33.3,19.2 L0.0,38.5 L-33.3,19.2 L-33.3,-19.2 L-0.0,-38.5 L33.3,-19.2Z" fill="url(#lgrad1)" filter="url(#blur1)" opacity="0.78"/>
        <ellipse cx="0" cy="0" rx="16.0" ry="10.7" fill="#FFFFFF" opacity="0.39"/>
      </g>
      </g>
      </g>
      </g>
      </g>
      </g>
      </g>
  </g>
  <g transform="translate(1610.1, 124.2)">
      <g transform="translate(4.82,-1.07) rotate(2.67) scale(1.000)">
        <g transform="translate(3.58,-2.16) rotate(6.91) scale(0.980)">
        <g transform="translate(1.47,-3.06) rotate(12.31) scale(0.960)">
        <g transform="translate(-1.00,-3.69) rotate(18.36) scale(0.940)">
        <g transform="translate(-3.23,-3.98) rotate(24.46) scale(0.920)">
        <g transform="translate(-4.66,-3.92) rotate(30.00) scale(0.900)" mask="url(#maskDynamic)">
        <g transform="translate(-4.96,-3.51) rotate(34.36) scale(0.880)">
        <circle cx="0" cy="0" r="37.2" fill="url(#rgrad2)" filter="url(#shadow)" opacity="0.68"/>
        <text x="0" y="5" text-anchor="middle" font-family="Arial, sans-serif" font-size="14" fill="#FFFFFF" opacity="0.68">180</text>
      </g>
      </g>
      </g>
      </g>
      </g>
      </g>
      </g>
  </g>
  <g transform="translate(72.5, 402.6)">
      <g transform="translate(1.47,-3.82) rotate(2.67) scale(1.000)">
        <g transform="translate(-1.00,-4.00) rotate(6.91) scale(0.980)">
        <g transform="translate(-3.23,-3.82) rotate(12.31) scale(0.960)">
        <g transform="translate(-4.66,-3.30) rotate(18.36) scale(0.940)">
        <g transform="translate(-4.96,-2.48) rotate(24.46) scale(0.920)">
        <g transform="translate(-4.04,-1.45) rotate(30.00) scale(0.900)">
        <g transform="translate(-2.13,-0.28) rotate(34.36) scale(0.880)">
        <path d="M0.0,-71.4 L21.0,-28.9 L67.9,-22.1 L33.9,11.0 L42.0,57.8 L0.0,35.7 L-42.0,57.8 L-33.9,11.0 L-67.9,-22.1 L-21.0,-28.9Z" fill="url(#rgrad3)" filter="url(#blur3)" opacity="0.57"/>
      </g>
      </g>
      </g>
      </g>
      </g>
      </g>
      </g>
  </g>
  <g transform="translate(301.7, 390.4)">
      <g transform="translate(-3.23,-3.06) rotate(2.67) scale(1.000)">
        <g transform="translate(-4.66,-2.16) rotate(6.91) scale(0.980)">
        <g transform="translate(-4.96,-1.07) rotate(12.31) scale(0.960)">
        <g transform="translate(-4.04,0.12) rotate(18.36) scale(0.940)" clip-path="url(#clipDynamic)">
        <g transform="translate(-2.13,1.30) rotate(24.46) scale(0.920)">
        <g transform="translate(0.30,2.36) rotate(30.00) scale(0.900)">
        <g transform="translate(2.65,3.21) rotate(34.36) scale(0.880)">
        <rect x="-29.0" y="-29.0" width="57.9" height="57.9" rx="14.5" fill="url(#lgrad4)" filter="url(#shadow)" opacity="0.45"/>
        <circle cx="0" cy="0" r="19.3" fill="url(#rgrad0)" opacity="0.32"/>
      </g>
      </g>
      </g>
      </g>
      </g>
      </g>
      </g>
  </g>
  <g transform="translate(535.3, 373.3)">
      <g transform="translate(-4.96,0.52) rotate(2.67) scale(1.000)">
        <g transform="translate(-4.04,1.67) rotate(6.91) scale(0.980)">
        <g transform="translate(-2.13,2.67) rotate(12.31) scale(0.960)">
        <g transform="translate(0.30,3.43) rotate(18.36) scale(0.940)">
        <g transform="translate(2.65,3.88) rotate(24.46) scale(0.920)">
        <g transform="translate(4.36,3.99) rotate(30.00) scale(0.900)" mask="url(#maskStripes)">
        <g transform="translate(5.00,3.74) rotate(34.36) scale(0.880)">
        <path d="M24.1,13.9 L0.0,27.8 L-24.1,13.9 L-24.1,-13.9 L-0.0,-27.8 L24.1,-13.9Z" fill="url(#rgrad0)" filter="url(#blur0)" opacity="0.34"/>
        <ellipse cx="0" cy="0" rx="11.6" ry="7.7" fill="#FFFFFF" opacity="0.17"/>
      </g>
      </g>
      </g>
      </g>
      </g>
      </g>
      </g>
  </g>
  <g transform="translate(770.1, 359.4)">
      <g transform="translate(-2.13,3.62) rotate(2.67) scale(1.000)">
        <g transform="translate(0.30,3.96) rotate(6.91) scale(0.980)">
        <g transform="translate(2.65,3.95) rotate(12.31) scale(0.960)">
        <g transform="translate(4.36,3.59) rotate(18.36) scale(0.940)">
        <g transform="translate(5.00,2.90) rotate(24.46) scale(0.920)">
        <g transform="translate(4.41,1.96) rotate(30.00) scale(0.900)">
        <g transform="translate(2.75,0.84) rotate(34.36) scale(0.880)">
        <circle cx="0" cy="0" r="23.7" fill="url(#rgrad1)" filter="url(#shadow)" opacity="0.24"/>
        <text x="0" y="5" text-anchor="middle" font-family="Arial, sans-serif" font-size="14" fill="#FFFFFF" opacity="0.24">180</text>
      </g>
      </g>
      </g>
      </g>
      </g>
      </g>
      </g>
  </g>
  <g transform="translate(1002.4, 355.1)">
      <g transform="translate(2.65,3.39) rotate(2.67) scale(1.000)">
        <g transform="translate(4.36,2.61) rotate(6.91) scale(0.980)">
        <g transform="translate(5.00,1.60) rotate(12.31) scale(0.960)">
        <g transform="translate(4.41,0.44) rotate(18.36) scale(0.940)" clip-path="url(#clipHex)">
        <g transform="translate(2.75,-0.75) rotate(24.46) scale(0.920)">
        <g transform="translate(0.41,-1.88) rotate(30.00) scale(0.900)">
        <g transform="translate(-2.03,-2.84) rotate(34.36) scale(0.880)">
        <path d="M0.0,-59.9 L17.6,-24.2 L57.0,-18.5 L28.5,9.3 L35.2,48.5 L0.0,30.0 L-35.2,48.5 L-28.5,9.3 L-57.0,-18.5 L-17.6,-24.2Z" fill="url(#lgrad2)" filter="url(#blur2)" opacity="0.16"/>
      </g>
      </g>
      </g>
      </g>
      </g>
      </g>
      </g>
  </g>
  <g transform="translate(1229.2, 362.6)">
      <g transform="translate(5.00,0.05) rotate(2.67) scale(1.000)">
        <g transform="translate(4.41,-1.14) rotate(6.91) scale(0.980)">
        <g transform="translate(2.75,-2.22) rotate(12.31) scale(0.960)">
        <g transform="translate(0.41,-3.10) rotate(18.36) scale(0.940)">
        <g transform="translate(-2.03,-3.71) rotate(24.46) scale(0.920)">
        <g transform="translate(-3.97,-3.99) rotate(30.00) scale(0.900)" mask="url(#maskCircleFade)">
        <g transform="translate(-4.94,-3.91) rotate(34.36) scale(0.880)">
        <rect x="-36.3" y="-36.3" width="72.6" height="72.6" rx="18.1" fill="url(#rgrad3)" filter="url(#shadow)" opacity="0.11"/>
        <circle cx="0" cy="0" r="24.2" fill="url(#rgrad4)" opacity="0.08"/>
      </g>
      </g>
      </g>
      </g>
      </g>
      </g>
      </g>
  </g>
  <g transform="translate(1448.9, 378.3)">
      <g transform="translate(2.75,-3.34) rotate(2.67) scale(1.000)">
        <g transform="translate(0.41,-3.84) rotate(6.91) scale(0.980)">
        <g transform="translate(-2.03,-4.00) rotate(12.31) scale(0.960)">
        <g transform="translate(-3.97,-3.80) rotate(18.36) scale(0.940)">
        <g transform="translate(-4.94,-3.26) rotate(24.46) scale(0.920)">
        <g transform="translate(-4.70,-2.43) rotate(30.00) scale(0.900)">
        <g transform="translate(-3.31,-1.38) rotate(34.36) scale(0.880)">
        <path d="M38.3,22.1 L0.0,44.2 L-38.3,22.1 L-38.3,-22.1 L-0.0,-44.2 L38.3,-22.1Z" fill="url(#rgrad4)" filter="url(#blur4)" opacity="0.10"/>
        <ellipse cx="0" cy="0" rx="18.4" ry="12.3" fill="#FFFFFF" opacity="0.05"/>
      </g>
      </g>
      </g>
      </g>
      </g>
      </g>
      </g>
  </g>
  <g transform="translate(1661.5, 394.7)">
      <g transform="translate(-2.03,-3.66) rotate(2.67) scale(1.000)">
        <g transform="translate(-3.97,-3.01) rotate(6.91) scale(0.980)">
        <g transform="translate(-4.94,-2.10) rotate(12.31) scale(0.960)">
        <g transform="translate(-4.70,-1.00) rotate(18.36) scale(0.940)" clip-path="url(#clipCircle)">
        <g transform="translate(-3.31,0.19) rotate(24.46) scale(0.920)">
        <g transform="translate(-1.11,1.36) rotate(30.00) scale(0.900)">
        <g transform="translate(1.36,2.41) rotate(34.36) scale(0.880)">
        <circle cx="0" cy="0" r="31.1" fill="url(#lgrad0)" filter="url(#shadow)" opacity="0.12"/>
        <text x="0" y="5" text-anchor="middle" font-family="Arial, sans-serif" font-size="14" fill="#FFFFFF" opacity="0.12">180</text>
      </g>
      </g>
      </g>
      </g>
      </g>
      </g>
      </g>
  </g>
  <g transform="translate(108.8, 684.3)">
      <g transform="translate(-4.94,-0.61) rotate(2.67) scale(1.000)">
        <g transform="translate(-4.70,0.59) rotate(6.91) scale(0.980)">
        <g transform="translate(-3.31,1.73) rotate(12.31) scale(0.960)">
        <g transform="translate(-1.11,2.72) rotate(18.36) scale(0.940)">
        <g transform="translate(1.36,3.46) rotate(24.46) scale(0.920)">
        <g transform="translate(3.50,3.90) rotate(30.00) scale(0.900)" mask="url(#maskGradient)">
        <g transform="translate(4.78,3.99) rotate(34.36) scale(0.880)">
        <path d="M0.0,-48.7 L14.3,-19.7 L46.3,-15.0 L23.1,7.5 L28.6,39.4 L0.0,24.3 L-28.6,39.4 L-23.1,7.5 L-46.3,-15.0 L-14.3,-19.7Z" fill="url(#rgrad1)" filter="url(#blur1)" opacity="0.18"/>
      </g>
      </g>
      </g>
      </g>
      </g>
      </g>
      </g>
  </g>
  <g transform="translate(314.0, 682.4)">
      <g transform="translate(-3.31,3.00) rotate(2.67) scale(1.000)">
        <g transform="translate(-1.11,3.65) rotate(6.91) scale(0.980)">
        <g transform="translate(1.36,3.97) rotate(12.31) scale(0.960)">
        <g transform="translate(3.50,3.94) rotate(18.36) scale(0.940)">
        <g transform="translate(4.78,3.55) rotate(24.46) scale(0.920)">
        <g transform="translate(4.89,2.85) rotate(30.00) scale(0.900)">
        <g transform="translate(3.81,1.90) rotate(34.36) scale(0.880)">
        <rect x="-22.8" y="-22.8" width="45.6" height="45.6" rx="11.4" fill="url(#rgrad2)" filter="url(#shadow)" opacity="0.27"/>
        <circle cx="0" cy="0" r="15.2" fill="url(#rgrad3)" opacity="0.19"/>
      </g>
      </g>
      </g>
      </g>
      </g>
      </g>
      </g>
  </g>
  <g transform="translate(520.6, 670.0)">
      <g transform="translate(1.36,3.85) rotate(2.67) scale(1.000)">
        <g transform="translate(3.50,3.35) rotate(6.91) scale(0.980)">
        <g transform="translate(4.78,2.56) rotate(12.31) scale(0.960)">
        <g transform="translate(4.89,1.54) rotate(18.36) scale(0.940)" clip-path="url(#clipRect)">
        <g transform="translate(3.81,0.38) rotate(24.46) scale(0.920)">
        <g transform="translate(1.79,-0.82) rotate(30.00) scale(0.900)">
        <g transform="translate(-0.67,-1.94) rotate(34.36) scale(0.880)">
        <path d="M29.0,16.7 L0.0,33.5 L-29.0,16.7 L-29.0,-16.7 L-0.0,-33.5 L29.0,-16.7Z" fill="url(#lgrad3)" filter="url(#blur3)" opacity="0.37"/>
        <ellipse cx="0" cy="0" rx="13.9" ry="9.3" fill="#FFFFFF" opacity="0.19"/>
      </g>
      </g>
      </g>
      </g>
      </g>
      </g>
      </g>
  </g>
  <g transform="translate(732.0, 652.9)">
      <g transform="translate(4.78,1.16) rotate(2.67) scale(1.000)">
        <g transform="translate(4.89,-0.02) rotate(6.91) scale(0.980)">
        <g transform="translate(3.81,-1.20) rotate(12.31) scale(0.960)">
        <g transform="translate(1.79,-2.28) rotate(18.36) scale(0.940)">
        <g transform="translate(-0.67,-3.15) rotate(24.46) scale(0.920)">
        <g transform="translate(-2.96,-3.74) rotate(30.00) scale(0.900)" mask="url(#maskDynamic)">
        <g transform="translate(-4.53,-3.99) rotate(34.36) scale(0.880)">
        <circle cx="0" cy="0" r="34.9" fill="url(#rgrad4)" filter="url(#shadow)" opacity="0.49"/>
        <text x="0" y="5" text-anchor="middle" font-family="Arial, sans-serif" font-size="14" fill="#FFFFFF" opacity="0.49">180</text>
      </g>
      </g>
      </g>
      </g>
      </g>
      </g>
      </g>
  </g>
  <g transform="translate(950.3, 639.1)">
      <g transform="translate(3.81,-2.59) rotate(2.67) scale(1.000)">
        <g transform="translate(1.79,-3.38) rotate(6.91) scale(0.980)">
        <g transform="translate(-0.67,-3.86) rotate(12.31) scale(0.960)">
        <g transform="translate(-2.96,-4.00) rotate(18.36) scale(0.940)">
        <g transform="translate(-4.53,-3.78) rotate(24.46) scale(0.920)">
        <g transform="translate(-4.99,-3.22) rotate(30.00) scale(0.900)">
        <g transform="translate(-4.23,-2.38) rotate(34.36) scale(0.880)">
        <path d="M0.0,-74.8 L22.0,-30.3 L71.2,-23.1 L35.6,11.6 L44.0,60.6 L0.0,37.4 L-44.0,60.6 L-35.6,11.6 L-71.2,-23.1 L-22.0,-30.3Z" fill="url(#rgrad0)" filter="url(#blur0)" opacity="0.61"/>
      </g>
      </g>
      </g>
      </g>
      </g>
      </g>
      </g>
  </g>
  <g transform="translate(1175.8, 635.2)">
      <g transform="translate(-0.67,-3.96) rotate(2.67) scale(1.000)">
        <g transform="translate(-2.96,-3.63) rotate(6.91) scale(0.980)">
        <g transform="translate(-4.53,-2.97) rotate(12.31) scale(0.960)">
        <g transform="translate(-4.99,-2.04) rotate(18.36) scale(0.940)" clip-path="url(#clipStar)">
        <g transform="translate(-4.23,-0.94) rotate(24.46) scale(0.920)">
        <g transform="translate(-2.43,0.26) rotate(30.00) scale(0.900)">
        <g transform="translate(-0.03,1.42) rotate(34.36) scale(0.880)">
        <rect x="-33.1" y="-33.1" width="66.2" height="66.2" rx="16.6" fill="url(#lgrad1)" filter="url(#shadow)" opacity="0.72"/>
        <circle cx="0" cy="0" r="22.1" fill="url(#rgrad2)" opacity="0.50"/>
      </g>
      </g>
      </g>
      </g>
      </g>
      </g>
      </g>
  </g>
  <g transform="translate(1407.2, 642.9)">
      <g transform="translate(-4.53,-1.69) rotate(2.67) scale(1.000)">
        <g transform="translate(-4.99,-0.54) rotate(6.91) scale(0.980)">
        <g transform="translate(-4.23,0.65) rotate(12.31) scale(0.960)">
        <g transform="translate(-2.43,1.79) rotate(18.36) scale(0.940)">
        <g transform="translate(-0.03,2.77) rotate(24.46) scale(0.920)">
        <g transform="translate(2.37,3.50) rotate(30.00) scale(0.900)" mask="url(#maskStripes)">
        <g transform="translate(4.19,3.91) rotate(34.36) scale(0.880)">
        <path d="M27.0,15.6 L0.0,31.1 L-27.0,15.6 L-27.0,-15.6 L-0.0,-31.1 L27.0,-15.6Z" fill="url(#rgrad2)" filter="url(#blur2)" opacity="0.81"/>
        <ellipse cx="0" cy="0" rx="13.0" ry="8.6" fill="#FFFFFF" opacity="0.40"/>
      </g>
      </g>
      </g>
      </g>
      </g>
      </g>
      </g>
  </g>
  <g transform="translate(1641.8, 658.7)">
      <g transform="translate(-4.23,2.14) rotate(2.67) scale(1.000)">
        <g transform="translate(-2.43,3.04) rotate(6.91) scale(0.980)">
        <g transform="translate(-0.03,3.67) rotate(12.31) scale(0.960)">
        <g transform="translate(2.37,3.98) rotate(18.36) scale(0.940)">
        <g transform="translate(4.19,3.93) rotate(24.46) scale(0.920)">
        <g transform="translate(4.98,3.52) rotate(30.00) scale(0.900)">
        <g transform="translate(4.56,2.81) rotate(34.36) scale(0.880)">
        <circle cx="0" cy="0" r="22.5" fill="url(#rgrad3)" filter="url(#shadow)" opacity="0.87"/>
        <text x="0" y="5" text-anchor="middle" font-family="Arial, sans-serif" font-size="14" fill="#FFFFFF" opacity="0.87">180</text>
      </g>
      </g>
      </g>
      </g>
      </g>
      </g>
      </g>
  </g>
  <g transform="translate(115.9, 955.1)">
      <g transform="translate(-0.03,4.00) rotate(2.67) scale(1.000)">
        <g transform="translate(2.37,3.83) rotate(6.91) scale(0.980)">
        <g transform="translate(4.19,3.32) rotate(12.31) scale(0.960)">
        <g transform="translate(4.98,2.51) rotate(18.36) scale(0.940)" clip-path="url(#clipDynamic)">
        <g transform="translate(4.56,1.48) rotate(24.46) scale(0.920)">
        <g transform="translate(3.02,0.31) rotate(30.00) scale(0.900)">
        <g transform="translate(0.74,-0.88) rotate(34.36) scale(0.880)">
        <path d="M0.0,-51.9 L15.3,-21.0 L49.4,-16.0 L24.7,8.0 L30.5,42.0 L0.0,26.0 L-30.5,42.0 L-24.7,8.0 L-49.4,-16.0 L-15.3,-21.0Z" fill="url(#lgrad4)" filter="url(#blur4)" opacity="0.90"/>
      </g>
      </g>
      </g>
      </g>
      </g>
      </g>
      </g>
  </g>
  <g transform="translate(390.3, 334.4)" mask="url(#maskGradient)">
    <ellipse cx="0" cy="0" rx="200" ry="150" fill="url(#rgrad0)" filter="url(#blur3)" opacity="0.3"/>
  </g>
  <g transform="translate(885.0, 279.8)" mask="url(#maskCircleFade)">
    <ellipse cx="0" cy="0" rx="200" ry="150" fill="url(#rgrad1)" filter="url(#blur3)" opacity="0.3"/>
  </g>
  <g transform="translate(1301.6, 234.7)" mask="url(#maskStripes)">
    <ellipse cx="0" cy="0" rx="200" ry="150" fill="url(#rgrad2)" filter="url(#blur3)" opacity="0.3"/>
  </g>
</svg>