<?xml version="1.0" encoding="UTF-8"?>
<svg xmlns="http://www.w3.org/2000/svg" viewBox="0 0 1920 1080" width="1920" height="1080">
  <defs>
    <filter id="blur0" x="-50%" y="-50%" width="200%" height="200%">
      <feGaussianBlur in="SourceGraphic" stdDeviation="1"/>
    </filter>
    <filter id="blur1" x="-50%" y="-50%" width="200%" height="200%">
      <feGaussianBlur in="SourceGraphic" stdDeviation="3"/>
    </filter>
    <filter id="blur2" x="-50%" y="-50%" width="200%" height="200%">
      <feGaussianBlur in="SourceGraphic" stdDeviation="5"/>
    </filter>
    <filter id="blur3" x="-50%" y="-50%" width="200%" height="200%">
      <feGaussianBlur in="SourceGraphic" stdDeviation="7"/>
    </filter>
    <filter id="blur4" x="-50%" y="-50%" width="200%" height="200%">
      <feGaussianBlur in="SourceGraphic" stdDeviation="9"/>
    </filter>
    <filter id="shadow" x="-50%" y="-50%" width="200%" height="200%">
      <feGaussianBlur in="SourceAlpha" stdDeviation="3" result="blur"/>
      <feOffset in="blur" dx="4" dy="4" result="offsetBlur"/>
      <feMerge>
        <feMergeNode in="offsetBlur"/>
        <feMergeNode in="SourceGraphic"/>
      </feMerge>
    </filter>
    <linearGradient id="lgrad0" x1="0%" y1="0%" x2="7.4%" y2="76.1%">
      <stop offset="0%" stop-color="#FF6B6B"/>
      <stop offset="33%" stop-color="#4ECDC4"/>
      <stop offset="66%" stop-color="#45B7D1"/>
      <stop offset="100%" stop-color="#96E6A1"/>
    </linearGradient>
    <linearGradient id="lgrad1" x1="0%" y1="0%" x2="0.0%" y2="51.3%">
      <stop offset="0%" stop-color="#FFE66D"/>
      <stop offset="33%" stop-color="#FF6B6B"/>
      <stop offset="66%" stop-color="#C44D58"/>
      <stop offset="100%" stop-color="#8B0000"/>
    </linearGradient>
    <linearGradient id="lgrad2" x1="0%" y1="0%" x2="6.1%" y2="26.1%">
      <stop offset="0%" stop-color="#4169E1"/>
      <stop offset="33%" stop-color="#7B68EE"/>
      <stop offset="66%" stop-color="#9370DB"/>
      <stop offset="100%" stop-color="#FFD700"/>
    </linearGradient>
    <linearGradient id="lgrad3" x1="0%" y1="0%" x2="23.9%" y2="7.4%">
      <stop offset="0%" stop-color="#32CD32"/>
      <stop offset="33%" stop-color="#228B22"/>
      <stop offset="66%" stop-color="#006400"/>
      <stop offset="100%" stop-color="#ADFF2F"/>
    </linearGradient>
    <linearGradient id="lgrad4" x1="0%" y1="0%" x2="48.7%" y2="0.0%">
      <stop offset="0%" stop-color="#FF1493"/>
      <stop offset="33%" stop-color="#FF69B4"/>
      <stop offset="66%" stop-color="#FFB6C1"/>
      <stop offset="100%" stop-color="#FFC0CB"/>
    </linearGradient>
    <radialGradient id="rgrad0" cx="68.1%" cy="55.4%" r="60%">
      <stop offset="0%" stop-color="#FF6B6B" stop-opacity="1"/>
      <stop offset="50%" stop-color="#4ECDC4" stop-opacity="0.8"/>
      <stop offset="100%" stop-color="#45B7D1" stop-opacity="0.6"/>
    </radialGradient>
    <radialGradient id="rgrad1" cx="38.1%" cy="63.4%" r="60%">
      <stop offset="0%" stop-color="#FFE66D" stop-opacity="1"/>
      <stop offset="50%" stop-color="#FF6B6B" stop-opacity="0.8"/>
      <stop offset="100%" stop-color="#C44D58" stop-opacity="0.6"/>
    </radialGradient>
    <radialGradient id="rgrad2" cx="48.1%" cy="31.4%" r="60%">
      <stop offset="0%" stop-color="#4169E1" stop-opacity="1"/>
      <stop offset="50%" stop-color="#7B68EE" stop-opacity="0.8"/>
      <stop offset="100%" stop-color="#9370DB" stop-opacity="0.6"/>
    </radialGradient>
    <radialGradient id="rgrad3" cx="58.1%" cy="39.4%" r="60%">
      <stop offset="0%" stop-color="#32CD32" stop-opacity="1"/>
      <stop offset="50%" stop-color="#228B22" stop-opacity="0.8"/>
      <stop offset="100%" stop-color="#006400" stop-opacity="0.6"/>
    </radialGradient>
    <radialGradient id="rgrad4" cx="68.1%" cy="47.4%" r="60%">
      <stop offset="0%" stop-color="#FF1493" stop-opacity="1"/>
      <stop offset="50%" stop-color="#FF69B4" stop-opacity="0.8"/>
      <stop offset="100%" stop-color="#FFB6C1" stop-opacity="0.6"/>
    </radialGradient>
    <clipPath id="clipCircle">
      <circle cx="0" cy="0" r="50"/>
    </clipPath>
    <clipPath id="clipStar">
      <path d="M0.0,-50.0 L14.7,-20.2 L47.6,-15.5 L23.8,7.7 L29.4,40.5 L0.0,25.0 L-29.4,40.5 L-23.8,7.7 L-47.6,-15.5 L-14.7,-20.2Z"/>
    </clipPath>
    <clipPath id="clipHex">
      <path d="M39.0,22.5 L0.0,45.0 L-39.0,22.5 L-39.0,-22.5 L-0.0,-45.0 L39.0,-22.5Z"/>
    </clipPath>
    <clipPath id="clipRect">
      <rect x="-40" y="-30" width="80" height="60" rx="10"/>
    </clipPath>
    <clipPath id="clipDynamic">
      <circle cx="0" cy="0" r="28.4"/>
    </clipPath>
    <mask id="maskGradient" maskContentUnits="objectBoundingBox">
      <rect x="0" y="0" width="1" height="1" fill="url(#maskGrad)"/>
    </mask>
    <linearGradient id="maskGrad" x1="0%" y1="0%" x2="100%" y2="100%">
      <stop offset="0%" stop-color="white"/>
      <stop offset="100%" stop-color="black"/>
    </linearGradient>
    <mask id="maskCircleFade">
      <circle cx="0" cy="0" r="60" fill="white"/>
      <circle cx="0" cy="0" r="30" fill="black"/>
    </mask>
    <mask id="maskStripes">
      <rect x="-50" y="-50" width="100" height="100" fill="white"/>
      <rect x="-50" y="-40" width="100" height="10" fill="black"/>
      <rect x="-50" y="-20" width="100" height="10" fill="black"/>
      <rect x="-50" y="0" width="100" height="10" fill="black"/>
      <rect x="-50" y="20" width="100" height="10" fill="black"/>
      <rect x="-50" y="40" width="100" height="10" fill="black"/>
    </mask>
    <mask id="maskDynamic">
      <rect x="-60" y="-60" width="120" height="120" fill="white" fill-opacity="0.46"/>
      <circle cx="0" cy="0" r="25" fill="white"/>
    </mask>
  </defs>
  <rect width="1920" height="1080" fill="url(#lgrad0)"/>
  <g transform="translate(86.7, 122.4)">
      <g transform="translate(-2.22,3.59) rotate(1.14) scale(1.000)">
        <g transform="translate(0.20,3.95) rotate(0.30) scale(0.980)">
        <g transform="translate(2.57,3.96) rotate(-2.54) scale(0.960)">
        <g transform="translate(4.31,3.62) rotate(-7.24) scale(0.940)" clip-path="url(#clipCircle)">
        <g transform="translate(5.00,2.95) rotate(-13.50) scale(0.920)">
        <g transform="translate(4.46,2.02) rotate(-20.89) scale(0.900)">
        <g transform="translate(2.83,0.91) rotate(-28.88) scale(0.880)">
        <path d="M0.0,-63.4 L18.6,-25.7 L60.3,-19.6 L30.2,9.8 L37.3,51.3 L0.0,31.7 L-37.3,51.3 L-30.2,9.8 L-60.3,-19.6 L-18.6,-25.7Z" fill="url(#lgrad0)" filter="url(#blur0)" opacity="0.59"/>
      </g>
      </g>
      </g>
      </g>
      </g>
      </g>
      </g>
  </g>
  <g transform="translate(321.2, 124.3)">
      <g transform="translate(2.57,3.43) rotate(1.14) scale(1.000)">
        <g transform="translate(4.31,2.67) rotate(0.30) scale(0.980)">
        <g transform="translate(5.00,1.67) rotate(-2.54) scale(0.960)">
        <g transform="translate(4.46,0.52) rotate(-7.24) scale(0.940)">
        <g transform="translate(2.83,-0.68) rotate(-13.50) scale(0.920)">
        <g transform="translate(0.50,-1.81) rotate(-20.89) scale(0.900)" mask="url(#maskCircleFade)">
        <g transform="translate(-1.94,-2.78) rotate(-28.88) scale(0.880)">
        <rect x="-24.8" y="-24.8" width="49.6" height="49.6" rx="12.4" fill="url(#rgrad1)" filter="url(#shadow)" opacity="0.47"/>
        <circle cx="0" cy="0" r="16.5" fill="url(#rgrad2)" opacity="0.33"/>
      </g>
      </g>
      </g>
      </g>
      </g>
      </g>
      </g>
  </g>
  <g transform="translate(555.4, 114.7)">
      <g transform="translate(5.00,0.12) rotate(1.14) scale(1.000)">
        <g transform="translate(4.46,-1.07) rotate(0.30) scale(0.980)">
        <g transform="translate(2.83,-2.16) rotate(-2.54) scale(0.960)">
        <g transform="translate(0.50,-3.06) rotate(-7.24) scale(0.940)">
        <g transform="translate(-1.94,-3.68) rotate(-13.50) scale(0.920)">
        <g transform="translate(-3.91,-3.98) rotate(-20.89) scale(0.900)">
        <g transform="translate(-4.93,-3.92) rotate(-28.88) scale(0.880)">
        <path d="M23.5,13.6 L0.0,27.2 L-23.5,13.6 L-23.5,-13.6 L-0.0,-27.2 L23.5,-13.6Z" fill="url(#rgrad2)" filter="url(#blur2)" opacity="0.36"/>
        <ellipse cx="0" cy="0" rx="11.3" ry="7.5" fill="#FFFFFF" opacity="0.18"/>
      </g>
      </g>
      </g>
      </g>
      </g>
      </g>
      </g>
  </g>
  <g transform="translate(785.9, 98.2)">
      <g transform="translate(2.83,-3.30) rotate(1.14) scale(1.000)">
        <g transform="translate(0.50,-3.82) rotate(0.30) scale(0.980)">
        <g transform="translate(-1.94,-4.00) rotate(-2.54) scale(0.960)">
        <g transform="translate(-3.91,-3.82) rotate(-7.24) scale(0.940)" clip-path="url(#clipRect)">
        <g transform="translate(-4.93,-3.30) rotate(-13.50) scale(0.920)">
        <g transform="translate(-4.73,-2.49) rotate(-20.89) scale(0.900)">
        <g transform="translate(-3.38,-1.45) rotate(-28.88) scale(0.880)">
        <circle cx="0" cy="0" r="27.3" fill="url(#lgrad3)" filter="url(#shadow)" opacity="0.25"/>
        <text x="0" y="5" text-anchor="middle" font-family="Arial, sans-serif" font-size="14" fill="#FFFFFF" opacity="0.25">927</text>
      </g>
      </g>
      </g>
      </g>
      </g>
      </g>
      </g>
  </g>
  <g transform="translate(1010.0, 82.6)">
      <g transform="translate(-1.94,-3.69) rotate(1.14) scale(1.000)">
        <g transform="translate(-3.91,-3.06) rotate(0.30) scale(0.980)">
        <g transform="translate(-4.93,-2.16) rotate(-2.54) scale(0.960)">
        <g transform="translate(-4.73,-1.07) rotate(-7.24) scale(0.940)">
        <g transform="translate(-3.38,0.11) rotate(-13.50) scale(0.920)">
        <g transform="translate(-1.20,1.29) rotate(-20.89) scale(0.900)" mask="url(#maskGradient)">
        <g transform="translate(1.27,2.35) rotate(-28.88) scale(0.880)">
        <path d="M0.0,-68.8 L20.2,-27.8 L65.5,-21.3 L32.7,10.6 L40.5,55.7 L0.0,34.4 L-40.5,55.7 L-32.7,10.6 L-65.5,-21.3 L-20.2,-27.8Z" fill="url(#rgrad4)" filter="url(#blur4)" opacity="0.17"/>
      </g>
      </g>
      </g>
      </g>
      </g>
      </g>
      </g>
  </g>
  <g transform="translate(1226.7, 75.1)">
      <g transform="translate(-4.93,-0.68) rotate(1.14) scale(1.000)">
        <g transform="translate(-4.73,0.51) rotate(0.30) scale(0.980)">
        <g transform="translate(-3.38,1.66) rotate(-2.54) scale(0.960)">
        <g transform="translate(-1.20,2.66) rotate(-7.24) scale(0.940)">
        <g transform="translate(1.27,3.43) rotate(-13.50) scale(0.920)">
        <g transform="translate(3.44,3.88) rotate(-20.89) scale(0.900)">
        <g transform="translate(4.76,3.99) rotate(-28.88) scale(0.880)">
        <rect x="-37.5" y="-37.5" width="75.0" height="75.0" rx="18.7" fill="url(#rgrad0)" filter="url(#shadow)" opacity="0.12"/>
        <circle cx="0" cy="0" r="25.0" fill="url(#rgrad1)" opacity="0.08"/>
      </g>
      </g>
      </g>
      </g>
      </g>
      </g>
      </g>
  </g>
  <g transform="translate(1437.0, 79.4)">
      <g transform="translate(-3.38,2.95) rotate(1.14) scale(1.000)">
        <g transform="translate(-1.20,3.62) rotate(0.30) scale(0.980)">
        <g transform="translate(1.27,3.96) rotate(-2.54) scale(0.960)">
        <g transform="translate(3.44,3.95) rotate(-7.24) scale(0.940)" clip-path="url(#clipStar)">
        <g transform="translate(4.76,3.59) rotate(-13.50) scale(0.920)">
        <g transform="translate(4.91,2.91) rotate(-20.89) scale(0.900)">
        <g transform="translate(3.87,1.96) rotate(-28.88) scale(0.880)">
        <path d="M35.0,20.2 L0.0,40.4 L-35.0,20.2 L-35.0,-20.2 L-0.0,-40.4 L35.0,-20.2Z" fill="url(#lgrad1)" filter="url(#blur1)" opacity="0.10"/>
        <ellipse cx="0" cy="0" rx="16.8" ry="11.2" fill="#FFFFFF" opacity="0.05"/>
      </g>
      </g>
      </g>
      </g>
      </g>
      </g>
      </g>
  </g>
  <g transform="translate(1643.0, 93.3)">
      <g transform="translate(1.27,3.87) rotate(1.14) scale(1.000)">
        <g transform="translate(3.44,3.39) rotate(0.30) scale(0.980)">
        <g transform="translate(4.76,2.62) rotate(-2.54) scale(0.960)">
        <g transform="translate(4.91,1.61) rotate(-7.24) scale(0.940)">
        <g transform="translate(3.87,0.45) rotate(-13.50) scale(0.920)">
        <g transform="translate(1.87,-0.74) rotate(-20.89) scale(0.900)" mask="url(#maskDynamic)">
        <g transform="translate(-0.58,-1.87) rotate(-28.88) scale(0.880)">
        <circle cx="0" cy="0" r="26.5" fill="url(#rgrad2)" filter="url(#shadow)" opacity="0.12"/>
        <text x="0" y="5" text-anchor="middle" font-family="Arial, sans-serif" font-size="14" fill="#FFFFFF" opacity="0.12">927</text>
      </g>
      </g>
      </g>
      </g>
      </g>
      </g>
      </g>
  </g>
  <g transform="translate(88.3, 390.4)">
      <g transform="translate(4.76,1.23) rotate(1.14) scale(1.000)">
        <g transform="translate(4.91,0.05) rotate(0.30) scale(0.980)">
        <g transform="translate(3.87,-1.13) rotate(-2.54) scale(0.960)">
        <g transform="translate(1.87,-2.22) rotate(-7.24) scale(0.940)">
        <g transform="translate(-0.58,-3.10) rotate(-13.50) scale(0.920)">
        <g transform="translate(-2.89,-3.71) rotate(-20.89) scale(0.900)">
        <g transform="translate(-4.49,-3.99) rotate(-28.88) scale(0.880)">
        <path d="M0.0,-45.1 L13.2,-18.2 L42.8,-13.9 L21.4,7.0 L26.5,36.4 L0.0,22.5 L-26.5,36.4 L-21.4,7.0 L-42.8,-13.9 L-13.2,-18.2Z" fill="url(#rgrad3)" filter="url(#blur3)" opacity="0.17"/>
      </g>
      </g>
      </g>
      </g>
      </g>
      </g>
      </g>
  </g>
  <g transform="translate(296.5, 402.6)">
      <g transform="translate(3.87,-2.54) rotate(1.14) scale(1.000)">
        <g transform="translate(1.87,-3.34) rotate(0.30) scale(0.980)">
        <g transform="translate(-0.58,-3.84) rotate(-2.54) scale(0.960)">
        <g transform="translate(-2.89,-4.00) rotate(-7.24) scale(0.940)" clip-path="url(#clipDynamic)">
        <g transform="translate(-4.49,-3.80) rotate(-13.50) scale(0.920)">
        <g transform="translate(-4.99,-3.26) rotate(-20.89) scale(0.900)">
        <g transform="translate(-4.27,-2.44) rotate(-28.88) scale(0.880)">
        <rect x="-25.4" y="-25.4" width="50.9" height="50.9" rx="12.7" fill="url(#lgrad4)" filter="url(#shadow)" opacity="0.25"/>
        <circle cx="0" cy="0" r="17.0" fill="url(#rgrad0)" opacity="0.18"/>
      </g>
      </g>
      </g>
      </g>
      </g>
      </g>
      </g>
  </g>
  <g transform="translate(510.4, 404.2)">
      <g transform="translate(-0.58,-3.97) rotate(1.14) scale(1.000)">
        <g transform="translate(-2.89,-3.66) rotate(0.30) scale(0.980)">
        <g transform="translate(-4.49,-3.02) rotate(-2.54) scale(0.960)">
        <g transform="translate(-4.99,-2.11) rotate(-7.24) scale(0.940)">
        <g transform="translate(-4.27,-1.01) rotate(-13.50) scale(0.920)">
        <g transform="translate(-2.51,0.18) rotate(-20.89) scale(0.900)" mask="url(#maskStripes)">
        <g transform="translate(-0.13,1.35) rotate(-28.88) scale(0.880)">
        <path d="M33.8,19.5 L0.0,39.0 L-33.8,19.5 L-33.8,-19.5 L-0.0,-39.0 L33.8,-19.5Z" fill="url(#rgrad0)" filter="url(#blur0)" opacity="0.35"/>
        <ellipse cx="0" cy="0" rx="16.3" ry="10.8" fill="#FFFFFF" opacity="0.18"/>
      </g>
      </g>
      </g>
      </g>
      </g>
      </g>
      </g>
  </g>
  <g transform="translate(731.6, 394.4)">
      <g transform="translate(-4.49,-1.76) rotate(1.14) scale(1.000)">
        <g transform="translate(-4.99,-0.62) rotate(0.30) scale(0.980)">
        <g transform="translate(-4.27,0.58) rotate(-2.54) scale(0.960)">
        <g transform="translate(-2.51,1.72) rotate(-7.24) scale(0.940)">
        <g transform="translate(-0.13,2.71) rotate(-13.50) scale(0.920)">
        <g transform="translate(2.28,3.46) rotate(-20.89) scale(0.900)">
        <g transform="translate(4.14,3.90) rotate(-28.88) scale(0.880)">
        <circle cx="0" cy="0" r="37.3" fill="url(#rgrad1)" filter="url(#shadow)" opacity="0.47"/>
        <text x="0" y="5" text-anchor="middle" font-family="Arial, sans-serif" font-size="14" fill="#FFFFFF" opacity="0.47">927</text>
      </g>
      </g>
      </g>
      </g>
      </g>
      </g>
      </g>
  </g>
  <g transform="translate(959.7, 377.8)">
      <g transform="translate(-4.27,2.07) rotate(1.14) scale(1.000)">
        <g transform="translate(-2.51,2.99) rotate(0.30) scale(0.980)">
        <g transform="translate(-0.13,3.64) rotate(-2.54) scale(0.960)">
        <g transform="translate(2.28,3.97) rotate(-7.24) scale(0.940)" clip-path="url(#clipHex)">
        <g transform="translate(4.14,3.94) rotate(-13.50) scale(0.920)">
        <g transform="translate(4.98,3.56) rotate(-20.89) scale(0.900)">
        <g transform="translate(4.60,2.86) rotate(-28.88) scale(0.880)">
        <path d="M0.0,-70.7 L20.8,-28.6 L67.3,-21.9 L33.6,10.9 L41.6,57.2 L0.0,35.4 L-41.6,57.2 L-33.6,10.9 L-67.3,-21.9 L-20.8,-28.6Z" fill="url(#lgrad2)" filter="url(#blur2)" opacity="0.59"/>
      </g>
      </g>
      </g>
      </g>
      </g>
      </g>
      </g>
  </g>
  <g transform="translate(1192.8, 362.3)">
      <g transform="translate(-0.13,4.00) rotate(1.14) scale(1.000)">
        <g transform="translate(2.28,3.85) rotate(0.30) scale(0.980)">
        <g transform="translate(4.14,3.36) rotate(-2.54) scale(0.960)">
        <g transform="translate(4.98,2.57) rotate(-7.24) scale(0.940)">
        <g transform="translate(4.60,1.54) rotate(-13.50) scale(0.920)">
        <g transform="translate(3.09,0.38) rotate(-20.89) scale(0.900)" mask="url(#maskCircleFade)">
        <g transform="translate(0.83,-0.81) rotate(-28.88) scale(0.880)">
        <rect x="-28.5" y="-28.5" width="57.0" height="57.0" rx="14.2" fill="url(#rgrad3)" filter="url(#shadow)" opacity="0.70"/>
        <circle cx="0" cy="0" r="19.0" fill="url(#rgrad4)" opacity="0.49"/>
      </g>
      </g>
      </g>
      </g>
      </g>
      </g>
      </g>
  </g>
  <g transform="translate(1427.6, 355.1)">
      <g transform="translate(4.14,2.25) rotate(1.14) scale(1.000)">
        <g transform="translate(4.98,1.17) rotate(0.30) scale(0.980)">
        <g transform="translate(4.60,-0.01) rotate(-2.54) scale(0.960)">
        <g transform="translate(3.09,-1.20) rotate(-7.24) scale(0.940)">
        <g transform="translate(0.83,-2.27) rotate(-13.50) scale(0.920)">
        <g transform="translate(-1.63,-3.14) rotate(-20.89) scale(0.900)">
        <g transform="translate(-3.70,-3.73) rotate(-28.88) scale(0.880)">
        <path d="M23.9,13.8 L0.0,27.6 L-23.9,13.8 L-23.9,-13.8 L-0.0,-27.6 L23.9,-13.8Z" fill="url(#rgrad4)" filter="url(#blur4)" opacity="0.79"/>
        <ellipse cx="0" cy="0" rx="11.5" ry="7.7" fill="#FFFFFF" opacity="0.40"/>
      </g>
      </g>
      </g>
      </g>
      </g>
      </g>
      </g>
  </g>
  <g transform="translate(1660.6, 359.6)">
      <g transform="translate(4.60,-1.57) rotate(1.14) scale(1.000)">
        <g transform="translate(3.09,-2.59) rotate(0.30) scale(0.980)">
        <g transform="translate(0.83,-3.37) rotate(-2.54) scale(0.960)">
        <g transform="translate(-1.63,-3.86) rotate(-7.24) scale(0.940)" clip-path="url(#clipCircle)">
        <g transform="translate(-3.70,-4.00) rotate(-13.50) scale(0.920)">
        <g transform="translate(-4.86,-3.78) rotate(-20.89) scale(0.900)">
        <g transform="translate(-4.83,-3.23) rotate(-28.88) scale(0.880)">
        <circle cx="0" cy="0" r="24.0" fill="url(#lgrad0)" filter="url(#shadow)" opacity="0.86"/>
        <text x="0" y="5" text-anchor="middle" font-family="Arial, sans-serif" font-size="14" fill="#FFFFFF" opacity="0.86">927</text>
      </g>
      </g>
      </g>
      </g>
      </g>
      </g>
      </g>
  </g>
  <g transform="translate(128.5, 653.7)">
      <g transform="translate(0.83,-3.94) rotate(1.14) scale(1.000)">
        <g transform="translate(-1.63,-3.96) rotate(0.30) scale(0.980)">
        <g transform="translate(-3.70,-3.63) rotate(-2.54) scale(0.960)">
        <g transform="translate(-4.86,-2.97) rotate(-7.24) scale(0.940)">
        <g transform="translate(-4.83,-2.05) rotate(-13.50) scale(0.920)">
        <g transform="translate(-3.62,-0.94) rotate(-20.89) scale(0.900)" mask="url(#maskGradient)">
        <g transform="translate(-1.52,0.25) rotate(-28.88) scale(0.880)">
        <path d="M0.0,-60.9 L17.9,-24.6 L58.0,-18.8 L29.0,9.4 L35.8,49.3 L0.0,30.5 L-35.8,49.3 L-29.0,9.4 L-58.0,-18.8 L-17.9,-24.6Z" fill="url(#rgrad1)" filter="url(#blur1)" opacity="0.90"/>
      </g>
      </g>
      </g>
      </g>
      </g>
      </g>
      </g>
  </g>
  <g transform="translate(349.5, 670.8)">
      <g transform="translate(-3.70,-2.69) rotate(1.14) scale(1.000)">
        <g transform="translate(-4.86,-1.70) rotate(0.30) scale(0.980)">
        <g transform="translate(-4.83,-0.55) rotate(-2.54) scale(0.960)">
        <g transform="translate(-3.62,0.65) rotate(-7.24) scale(0.940)">
        <g transform="translate(-1.52,1.78) rotate(-13.50) scale(0.920)">
        <g transform="translate(0.95,2.76) rotate(-20.89) scale(0.900)">
        <g transform="translate(3.19,3.49) rotate(-28.88) scale(0.880)">
        <rect x="-36.6" y="-36.6" width="73.1" height="73.1" rx="18.3" fill="url(#rgrad2)" filter="url(#shadow)" opacity="0.90"/>
        <circle cx="0" cy="0" r="24.4" fill="url(#rgrad3)" opacity="0.63"/>
      </g>
      </g>
      </g>
      </g>
      </g>
      </g>
      </g>
  </g>
  <g transform="translate(563.2, 682.8)">
      <g transform="translate(-4.83,1.04) rotate(1.14) scale(1.000)">
        <g transform="translate(-3.62,2.13) rotate(0.30) scale(0.980)">
        <g transform="translate(-1.52,3.04) rotate(-2.54) scale(0.960)">
        <g transform="translate(0.95,3.67) rotate(-7.24) scale(0.940)" clip-path="url(#clipRect)">
        <g transform="translate(3.19,3.98) rotate(-13.50) scale(0.920)">
        <g transform="translate(4.64,3.93) rotate(-20.89) scale(0.900)">
        <g transform="translate(4.96,3.53) rotate(-28.88) scale(0.880)">
        <path d="M38.0,22.0 L0.0,43.9 L-38.0,22.0 L-38.0,-22.0 L-0.0,-43.9 L38.0,-22.0Z" fill="url(#lgrad3)" filter="url(#blur3)" opacity="0.86"/>
        <ellipse cx="0" cy="0" rx="18.3" ry="12.2" fill="#FFFFFF" opacity="0.43"/>
      </g>
      </g>
      </g>
      </g>
      </g>
      </g>
      </g>
  </g>
  <g transform="translate(771.2, 684.1)">
      <g transform="translate(-1.52,3.81) rotate(1.14) scale(1.000)">
        <g transform="translate(0.95,4.00) rotate(0.30) scale(0.980)">
        <g transform="translate(3.19,3.83) rotate(-2.54) scale(0.960)">
        <g transform="translate(4.64,3.32) rotate(-7.24) scale(0.940)">
        <g transform="translate(4.96,2.51) rotate(-13.50) scale(0.920)">
        <g transform="translate(4.07,1.48) rotate(-20.89) scale(0.900)" mask="url(#maskDynamic)">
        <g transform="translate(2.18,0.32) rotate(-28.88) scale(0.880)">
        <circle cx="0" cy="0" r="30.6" fill="url(#rgrad4)" filter="url(#shadow)" opacity="0.79"/>
        <text x="0" y="5" text-anchor="middle" font-family="Arial, sans-serif" font-size="14" fill="#FFFFFF" opacity="0.79">927</text>
      </g>
      </g>
      </g>
      </g>
      </g>
      </g>
      </g>
  </g>
  <g transform="translate(976.5, 674.0)">
      <g transform="translate(3.19,3.08) rotate(1.14) scale(1.000)">
        <g transform="translate(4.64,2.19) rotate(0.30) scale(0.980)">
        <g transform="translate(4.96,1.10) rotate(-2.54) scale(0.960)">
        <g transform="translate(4.07,-0.08) rotate(-7.24) scale(0.940)">
        <g transform="translate(2.18,-1.26) rotate(-13.50) scale(0.920)">
        <g transform="translate(-0.25,-2.33) rotate(-20.89) scale(0.900)">
        <g transform="translate(-2.61,-3.18) rotate(-28.88) scale(0.880)">
        <path d="M0.0,-48.1 L14.1,-19.4 L45.7,-14.9 L22.9,7.4 L28.2,38.9 L0.0,24.0 L-28.2,38.9 L-22.9,7.4 L-45.7,-14.9 L-14.1,-19.4Z" fill="url(#rgrad0)" filter="url(#blur0)" opacity="0.70"/>
      </g>
      </g>
      </g>
      </g>
      </g>
      </g>
      </g>
  </g>
  <g transform="translate(1182.7, 657.4)">
      <g transform="translate(4.96,-0.48) rotate(1.14) scale(1.000)">
        <g transform="translate(4.07,-1.63) rotate(0.30) scale(0.980)">
        <g transform="translate(2.18,-2.64) rotate(-2.54) scale(0.960)">
        <g transform="translate(-0.25,-3.41) rotate(-7.24) scale(0.940)" clip-path="url(#clipStar)">
        <g transform="translate(-2.61,-3.88) rotate(-13.50) scale(0.920)">
        <g transform="translate(-4.34,-4.00) rotate(-20.89) scale(0.900)">
        <g transform="translate(-5.00,-3.76) rotate(-28.88) scale(0.880)">
        <rect x="-23.0" y="-23.0" width="45.9" height="45.9" rx="11.5" fill="url(#lgrad1)" filter="url(#shadow)" opacity="0.58"/>
        <circle cx="0" cy="0" r="15.3" fill="url(#rgrad2)" opacity="0.41"/>
      </g>
      </g>
      </g>
      </g>
      </g>
      </g>
      </g>
  </g>
  <g transform="translate(1393.0, 642.0)">
      <g transform="translate(2.18,-3.60) rotate(1.14) scale(1.000)">
        <g transform="translate(-0.25,-3.95) rotate(0.30) scale(0.980)">
        <g transform="translate(-2.61,-3.96) rotate(-2.54) scale(0.960)">
        <g transform="translate(-4.34,-3.60) rotate(-7.24) scale(0.940)">
        <g transform="translate(-5.00,-2.93) rotate(-13.50) scale(0.920)">
        <g transform="translate(-4.44,-1.99) rotate(-20.89) scale(0.900)" mask="url(#maskStripes)">
        <g transform="translate(-2.79,-0.88) rotate(-28.88) scale(0.880)">
        <path d="M29.5,17.0 L0.0,34.0 L-29.5,17.0 L-29.5,-17.0 L-0.0,-34.0 L29.5,-17.0Z" fill="url(#rgrad2)" filter="url(#blur2)" opacity="0.47"/>
        <ellipse cx="0" cy="0" rx="14.2" ry="9.5" fill="#FFFFFF" opacity="0.23"/>
      </g>
      </g>
      </g>
      </g>
      </g>
      </g>
      </g>
  </g>
  <g transform="translate(1610.0, 635.1)">
      <g transform="translate(-2.61,-3.41) rotate(1.14) scale(1.000)">
        <g transform="translate(-4.34,-2.64) rotate(0.30) scale(0.980)">
        <g transform="translate(-5.00,-1.63) rotate(-2.54) scale(0.960)">
        <g transform="translate(-4.44,-0.48) rotate(-7.24) scale(0.940)">
        <g transform="translate(-2.79,0.71) rotate(-13.50) scale(0.920)">
        <g transform="translate(-0.46,1.84) rotate(-20.89) scale(0.900)">
        <g transform="translate(1.98,2.81) rotate(-28.88) scale(0.880)">
        <circle cx="0" cy="0" r="35.3" fill="url(#rgrad3)" filter="url(#shadow)" opacity="0.35"/>
        <text x="0" y="5" text-anchor="middle" font-family="Arial, sans-serif" font-size="14" fill="#FFFFFF" opacity="0.35">927</text>
      </g>
      </g>
      </g>
      </g>
      </g>
      </g>
      </g>
  </g>
  <g transform="translate(74.4, 919.8)">
      <g transform="translate(-5.00,-0.08) rotate(1.14) scale(1.000)">
        <g transform="translate(-4.44,1.10) rotate(0.30) scale(0.980)">
        <g transform="translate(-2.79,2.19) rotate(-2.54) scale(0.960)">
        <g transform="translate(-0.46,3.08) rotate(-7.24) scale(0.940)" clip-path="url(#clipDynamic)">
        <g transform="translate(1.98,3.70) rotate(-13.50) scale(0.920)">
        <g transform="translate(3.94,3.98) rotate(-20.89) scale(0.900)">
        <g transform="translate(4.93,3.91) rotate(-28.88) scale(0.880)">
        <path d="M0.0,-74.7 L21.9,-30.2 L71.0,-23.1 L35.5,11.5 L43.9,60.4 L0.0,37.3 L-43.9,60.4 L-35.5,11.5 L-71.0,-23.1 L-21.9,-30.2Z" fill="url(#lgrad4)" filter="url(#blur4)" opacity="0.25"/>
      </g>
      </g>
      </g>
      </g>
      </g>
      </g>
      </g>
  </g>
  <g transform="translate(255.7, 371.7)" mask="url(#maskGradient)">
    <ellipse cx="0" cy="0" rx="200" ry="150" fill="url(#rgrad0)" filter="url(#blur3)" opacity="0.3"/>
  </g>
  <g transform="translate(851.5, 377.7)" mask="url(#maskCircleFade)">
    <ellipse cx="0" cy="0" rx="200" ry="150" fill="url(#rgrad1)" filter="url(#blur3)" opacity="0.3"/>
  </g>
  <g transform="translate(1400.0, 347.1)" mask="url(#maskStripes)">
    <ellipse cx="0" cy="0" rx="200" ry="150" fill="url(#rgrad2)" filter="url(#blur3)" opacity="0.3"/>
  </g>
</svg>