<?xml version="1.0" encoding="UTF-8"?>
<svg xmlns="http://www.w3.org/2000/svg" viewBox="0 0 1920 1080" width="1920" height="1080">
  <defs>
    <filter id="blur0" x="-50%" y="-50%" width="200%" height="200%">
      <feGaussianBlur in="SourceGraphic" stdDeviation="1"/>
    </filter>
    <filter id="blur1" x="-50%" y="-50%" width="200%" height="200%">
      <feGaussianBlur in="SourceGraphic" stdDeviation="3"/>
    </filter>
    <filter id="blur2" x="-50%" y="-50%" width="200%" height="200%">
      <feGaussianBlur in="SourceGraphic" stdDeviation="5"/>
    </filter>
    <filter id="blur3" x="-50%" y="-50%" width="200%" height="200%">
      <feGaussianBlur in="SourceGraphic" stdDeviation="7"/>
    </filter>
    <filter id="blur4" x="-50%" y="-50%" width="200%" height="200%">
      <feGaussianBlur in="SourceGraphic" stdDeviation="9"/>
    </filter>
    <filter id="shadow" x="-50%" y="-50%" width="200%" height="200%">
      <feGaussianBlur in="SourceAlpha" stdDeviation="3" result="blur"/>
      <feOffset in="blur" dx="4" dy="4" result="offsetBlur"/>
      <feMerge>
        <feMergeNode in="offsetBlur"/>
        <feMergeNode in="SourceGraphic"/>
      </feMerge>
    </filter>
    <linearGradient id="lgrad0" x1="0%" y1="0%" x2="39.6%" y2="98.9%">
      <stop offset="0%" stop-color="#FF6B6B"/>
      <stop offset="33%" stop-color="#4ECDC4"/>
      <stop offset="66%" stop-color="#45B7D1"/>
      <stop offset="100%" stop-color="#96E6A1"/>
    </linearGradient>
    <linearGradient id="lgrad1" x1="0%" y1="0%" x2="16.5%" y2="87.2%">
      <stop offset="0%" stop-color="#FFE66D"/>
      <stop offset="33%" stop-color="#FF6B6B"/>
      <stop offset="66%" stop-color="#C44D58"/>
      <stop offset="100%" stop-color="#8B0000"/>
    </linearGradient>
    <linearGradient id="lgrad2" x1="0%" y1="0%" x2="2.4%" y2="65.5%">
      <stop offset="0%" stop-color="#4169E1"/>
      <stop offset="33%" stop-color="#7B68EE"/>
      <stop offset="66%" stop-color="#9370DB"/>
      <stop offset="100%" stop-color="#FFD700"/>
    </linearGradient>
    <linearGradient id="lgrad3" x1="0%" y1="0%" x2="1.1%" y2="39.6%">
      <stop offset="0%" stop-color="#32CD32"/>
      <stop offset="33%" stop-color="#228B22"/>
      <stop offset="66%" stop-color="#006400"/>
      <stop offset="100%" stop-color="#ADFF2F"/>
    </linearGradient>
    <linearGradient id="lgrad4" x1="0%" y1="0%" x2="12.8%" y2="16.5%">
      <stop offset="0%" stop-color="#FF1493"/>
      <stop offset="33%" stop-color="#FF69B4"/>
      <stop offset="66%" stop-color="#FFB6C1"/>
      <stop offset="100%" stop-color="#FFC0CB"/>
    </linearGradient>
    <radialGradient id="rgrad0" cx="40.2%" cy="36.8%" r="60%">
      <stop offset="0%" stop-color="#FF6B6B" stop-opacity="1"/>
      <stop offset="50%" stop-color="#4ECDC4" stop-opacity="0.8"/>
      <stop offset="100%" stop-color="#45B7D1" stop-opacity="0.6"/>
    </radialGradient>
    <radialGradient id="rgrad1" cx="50.2%" cy="44.8%" r="60%">
      <stop offset="0%" stop-color="#FFE66D" stop-opacity="1"/>
      <stop offset="50%" stop-color="#FF6B6B" stop-opacity="0.8"/>
      <stop offset="100%" stop-color="#C44D58" stop-opacity="0.6"/>
    </radialGradient>
    <radialGradient id="rgrad2" cx="60.2%" cy="52.8%" r="60%">
      <stop offset="0%" stop-color="#4169E1" stop-opacity="1"/>
      <stop offset="50%" stop-color="#7B68EE" stop-opacity="0.8"/>
      <stop offset="100%" stop-color="#9370DB" stop-opacity="0.6"/>
    </radialGradient>
    <radialGradient id="rgrad3" cx="30.2%" cy="60.8%" r="60%">
      <stop offset="0%" stop-color="#32CD32" stop-opacity="1"/>
      <stop offset="50%" stop-color="#228B22" stop-opacity="0.8"/>
      <stop offset="100%" stop-color="#006400" stop-opacity="0.6"/>
    </radialGradient>
    <radialGradient id="rgrad4" cx="40.2%" cy="68.8%" r="60%">
      <stop offset="0%" stop-color="#FF1493" stop-opacity="1"/>
      <stop offset="50%" stop-color="#FF69B4" stop-opacity="0.8"/>
      <stop offset="100%" stop-color="#FFB6C1" stop-opacity="0.6"/>
    </radialGradient>
    <clipPath id="clipCircle">
      <circle cx="0" cy="0" r="50"/>
    </clipPath>
    <clipPath id="clipStar">
      <path d="M0.0,-50.0 L14.7,-20.2 L47.6,-15.5 L23.8,7.7 L29.4,40.5 L0.0,25.0 L-29.4,40.5 L-23.8,7.7 L-47.6,-15.5 L-14.7,-20.2Z"/>
    </clipPath>
    <clipPath id="clipHex">
      <path d="M39.0,22.5 L0.0,45.0 L-39.0,22.5 L-39.0,-22.5 L-0.0,-45.0 L39.0,-22.5Z"/>
    </clipPath>
    <clipPath id="clipRect">
      <rect x="-40" y="-30" width="80" height="60" rx="10"/>
    </clipPath>
    <clipPath id="clipDynamic">
      <circle cx="0" cy="0" r="22.0"/>
    </clipPath>
    <mask id="maskGradient" maskContentUnits="objectBoundingBox">
      <rect x="0" y="0" width="1" height="1" fill="url(#maskGrad)"/>
    </mask>
    <linearGradient id="maskGrad" x1="0%" y1="0%" x2="100%" y2="100%">
      <stop offset="0%" stop-color="white"/>
      <stop offset="100%" stop-color="black"/>
    </linearGradient>
    <mask id="maskCircleFade">
      <circle cx="0" cy="0" r="60" fill="white"/>
      <circle cx="0" cy="0" r="30" fill="black"/>
    </mask>
    <mask id="maskStripes">
      <rect x="-50" y="-50" width="100" height="100" fill="white"/>
      <rect x="-50" y="-40" width="100" height="10" fill="black"/>
      <rect x="-50" y="-20" width="100" height="10" fill="black"/>
      <rect x="-50" y="0" width="100" height="10" fill="black"/>
      <rect x="-50" y="20" width="100" height="10" fill="black"/>
      <rect x="-50" y="40" width="100" height="10" fill="black"/>
    </mask>
    <mask id="maskDynamic">
      <rect x="-60" y="-60" width="120" height="120" fill="white" fill-opacity="0.65"/>
      <circle cx="0" cy="0" r="25" fill="white"/>
    </mask>
  </defs>
  <rect width="1920" height="1080" fill="url(#lgrad0)"/>
  <g transform="translate(74.1, 112.6)">
      <g transform="translate(-4.32,2.01) rotate(2.49) scale(1.000)">
        <g transform="translate(-2.59,2.94) rotate(3.16) scale(0.980)">
        <g transform="translate(-0.22,3.61) rotate(1.83) scale(0.960)">
        <g transform="translate(2.20,3.96) rotate(-1.56) scale(0.940)" clip-path="url(#clipCircle)">
        <g transform="translate(4.08,3.95) rotate(-6.86) scale(0.920)">
        <g transform="translate(4.97,3.59) rotate(-13.80) scale(0.900)">
        <g transform="translate(4.63,2.91) rotate(-21.95) scale(0.880)">
        <path d="M0.0,-67.5 L19.8,-27.3 L64.2,-20.9 L32.1,10.4 L39.7,54.6 L0.0,33.7 L-39.7,54.6 L-32.1,10.4 L-64.2,-20.9 L-19.8,-27.3Z" fill="url(#lgrad0)" filter="url(#blur0)" opacity="0.70"/>
      </g>
      </g>
      </g>
      </g>
      </g>
      </g>
      </g>
  </g>
  <g transform="translate(304.5, 123.5)">
      <g transform="translate(-0.22,4.00) rotate(2.49) scale(1.000)">
        <g transform="translate(2.20,3.87) rotate(3.16) scale(0.980)">
        <g transform="translate(4.08,3.40) rotate(1.83) scale(0.960)">
        <g transform="translate(4.97,2.62) rotate(-1.56) scale(0.940)">
        <g transform="translate(4.63,1.61) rotate(-6.86) scale(0.920)">
        <g transform="translate(3.17,0.46) rotate(-13.80) scale(0.900)" mask="url(#maskCircleFade)">
        <g transform="translate(0.92,-0.74) rotate(-21.95) scale(0.880)">
        <rect x="-26.6" y="-26.6" width="53.1" height="53.1" rx="13.3" fill="url(#rgrad1)" filter="url(#shadow)" opacity="0.59"/>
        <circle cx="0" cy="0" r="17.7" fill="url(#rgrad2)" opacity="0.41"/>
      </g>
      </g>
      </g>
      </g>
      </g>
      </g>
      </g>
  </g>
  <g transform="translate(538.7, 123.4)">
      <g transform="translate(4.08,2.31) rotate(2.49) scale(1.000)">
        <g transform="translate(4.97,1.24) rotate(3.16) scale(0.980)">
        <g transform="translate(4.63,0.06) rotate(1.83) scale(0.960)">
        <g transform="translate(3.17,-1.13) rotate(-1.56) scale(0.940)">
        <g transform="translate(0.92,-2.21) rotate(-6.86) scale(0.920)">
        <g transform="translate(-1.55,-3.10) rotate(-13.80) scale(0.900)">
        <g transform="translate(-3.64,-3.71) rotate(-21.95) scale(0.880)">
        <path d="M23.4,13.5 L0.0,27.0 L-23.4,13.5 L-23.4,-13.5 L-0.0,-27.0 L23.4,-13.5Z" fill="url(#rgrad2)" filter="url(#blur2)" opacity="0.47"/>
        <ellipse cx="0" cy="0" rx="11.3" ry="7.5" fill="#FFFFFF" opacity="0.23"/>
      </g>
      </g>
      </g>
      </g>
      </g>
      </g>
      </g>
  </g>
  <g transform="translate(773.2, 112.3)">
      <g transform="translate(4.63,-1.50) rotate(2.49) scale(1.000)">
        <g transform="translate(3.17,-2.53) rotate(3.16) scale(0.980)">
        <g transform="translate(0.92,-3.33) rotate(1.83) scale(0.960)">
        <g transform="translate(-1.55,-3.84) rotate(-1.56) scale(0.940)" clip-path="url(#clipRect)">
        <g transform="translate(-3.64,-4.00) rotate(-6.86) scale(0.920)">
        <g transform="translate(-4.84,-3.80) rotate(-13.80) scale(0.900)">
        <g transform="translate(-4.85,-3.27) rotate(-21.95) scale(0.880)">
        <circle cx="0" cy="0" r="25.4" fill="url(#lgrad3)" filter="url(#shadow)" opacity="0.35"/>
        <text x="0" y="5" text-anchor="middle" font-family="Arial, sans-serif" font-size="14" fill="#FFFFFF" opacity="0.35">834</text>
      </g>
      </g>
      </g>
      </g>
      </g>
      </g>
      </g>
  </g>
  <g transform="translate(1004.5, 95.4)">
      <g transform="translate(0.92,-3.93) rotate(2.49) scale(1.000)">
        <g transform="translate(-1.55,-3.97) rotate(3.16) scale(0.980)">
        <g transform="translate(-3.64,-3.66) rotate(1.83) scale(0.960)">
        <g transform="translate(-4.84,-3.02) rotate(-1.56) scale(0.940)">
        <g transform="translate(-4.85,-2.11) rotate(-6.86) scale(0.920)">
        <g transform="translate(-3.68,-1.01) rotate(-13.80) scale(0.900)" mask="url(#maskGradient)">
        <g transform="translate(-1.61,0.17) rotate(-21.95) scale(0.880)">
        <path d="M0.0,-65.0 L19.1,-26.3 L61.8,-20.1 L30.9,10.0 L38.2,52.5 L0.0,32.5 L-38.2,52.5 L-30.9,10.0 L-61.8,-20.1 L-19.1,-26.3Z" fill="url(#rgrad4)" filter="url(#blur4)" opacity="0.25"/>
      </g>
      </g>
      </g>
      </g>
      </g>
      </g>
      </g>
  </g>
  <g transform="translate(1229.8, 80.6)">
      <g transform="translate(-3.64,-2.75) rotate(2.49) scale(1.000)">
        <g transform="translate(-4.84,-1.76) rotate(3.16) scale(0.980)">
        <g transform="translate(-4.85,-0.62) rotate(1.83) scale(0.960)">
        <g transform="translate(-3.68,0.57) rotate(-1.56) scale(0.940)">
        <g transform="translate(-1.61,1.72) rotate(-6.86) scale(0.920)">
        <g transform="translate(0.86,2.71) rotate(-13.80) scale(0.900)">
        <g transform="translate(3.12,3.46) rotate(-21.95) scale(0.880)">
        <rect x="-37.3" y="-37.3" width="74.6" height="74.6" rx="18.6" fill="url(#rgrad0)" filter="url(#shadow)" opacity="0.17"/>
        <circle cx="0" cy="0" r="24.9" fill="url(#rgrad1)" opacity="0.12"/>
      </g>
      </g>
      </g>
      </g>
      </g>
      </g>
      </g>
  </g>
  <g transform="translate(1447.8, 75.0)">
      <g transform="translate(-4.85,0.96) rotate(2.49) scale(1.000)">
        <g transform="translate(-3.68,2.07) rotate(3.16) scale(0.980)">
        <g transform="translate(-1.61,2.99) rotate(1.83) scale(0.960)">
        <g transform="translate(0.86,3.64) rotate(-1.56) scale(0.940)" clip-path="url(#clipStar)">
        <g transform="translate(3.12,3.97) rotate(-6.86) scale(0.920)">
        <g transform="translate(4.61,3.94) rotate(-13.80) scale(0.900)">
        <g transform="translate(4.97,3.56) rotate(-21.95) scale(0.880)">
        <path d="M36.8,21.2 L0.0,42.5 L-36.8,21.2 L-36.8,-21.2 L-0.0,-42.5 L36.8,-21.2Z" fill="url(#lgrad1)" filter="url(#blur1)" opacity="0.12"/>
        <ellipse cx="0" cy="0" rx="17.7" ry="11.8" fill="#FFFFFF" opacity="0.06"/>
      </g>
      </g>
      </g>
      </g>
      </g>
      </g>
      </g>
  </g>
  <g transform="translate(1659.0, 81.1)">
      <g transform="translate(-1.61,3.79) rotate(2.49) scale(1.000)">
        <g transform="translate(0.86,4.00) rotate(3.16) scale(0.980)">
        <g transform="translate(3.12,3.85) rotate(1.83) scale(0.960)">
        <g transform="translate(4.61,3.36) rotate(-1.56) scale(0.940)">
        <g transform="translate(4.97,2.57) rotate(-6.86) scale(0.920)">
        <g transform="translate(4.12,1.55) rotate(-13.80) scale(0.900)" mask="url(#maskDynamic)">
        <g transform="translate(2.26,0.39) rotate(-21.95) scale(0.880)">
        <circle cx="0" cy="0" r="28.5" fill="url(#rgrad2)" filter="url(#shadow)" opacity="0.10"/>
        <text x="0" y="5" text-anchor="middle" font-family="Arial, sans-serif" font-size="14" fill="#FFFFFF" opacity="0.10">834</text>
      </g>
      </g>
      </g>
      </g>
      </g>
      </g>
      </g>
  </g>
  <g transform="translate(105.5, 376.1)">
      <g transform="translate(3.12,3.13) rotate(2.49) scale(1.000)">
        <g transform="translate(4.61,2.25) rotate(3.16) scale(0.980)">
        <g transform="translate(4.97,1.17) rotate(1.83) scale(0.960)">
        <g transform="translate(4.12,-0.01) rotate(-1.56) scale(0.940)">
        <g transform="translate(2.26,-1.19) rotate(-6.86) scale(0.920)">
        <g transform="translate(-0.16,-2.27) rotate(-13.80) scale(0.900)">
        <g transform="translate(-2.53,-3.14) rotate(-21.95) scale(0.880)">
        <path d="M0.0,-46.0 L13.5,-18.6 L43.8,-14.2 L21.9,7.1 L27.1,37.3 L0.0,23.0 L-27.1,37.3 L-21.9,7.1 L-43.8,-14.2 L-13.5,-18.6Z" fill="url(#rgrad3)" filter="url(#blur3)" opacity="0.12"/>
      </g>
      </g>
      </g>
      </g>
      </g>
      </g>
      </g>
  </g>
  <g transform="translate(310.7, 392.9)">
      <g transform="translate(4.97,-0.41) rotate(2.49) scale(1.000)">
        <g transform="translate(4.12,-1.56) rotate(3.16) scale(0.980)">
        <g transform="translate(2.26,-2.58) rotate(1.83) scale(0.960)">
        <g transform="translate(-0.16,-3.37) rotate(-1.56) scale(0.940)" clip-path="url(#clipDynamic)">
        <g transform="translate(-2.53,-3.86) rotate(-6.86) scale(0.920)">
        <g transform="translate(-4.29,-4.00) rotate(-13.80) scale(0.900)">
        <g transform="translate(-5.00,-3.78) rotate(-21.95) scale(0.880)">
        <rect x="-23.9" y="-23.9" width="47.8" height="47.8" rx="12.0" fill="url(#lgrad4)" filter="url(#shadow)" opacity="0.17"/>
        <circle cx="0" cy="0" r="15.9" fill="url(#rgrad0)" opacity="0.12"/>
      </g>
      </g>
      </g>
      </g>
      </g>
      </g>
      </g>
  </g>
  <g transform="translate(518.2, 403.7)">
      <g transform="translate(2.26,-3.57) rotate(2.49) scale(1.000)">
        <g transform="translate(-0.16,-3.94) rotate(3.16) scale(0.980)">
        <g transform="translate(-2.53,-3.97) rotate(1.83) scale(0.960)">
        <g transform="translate(-4.29,-3.63) rotate(-1.56) scale(0.940)">
        <g transform="translate(-5.00,-2.98) rotate(-6.86) scale(0.920)">
        <g transform="translate(-4.48,-2.06) rotate(-13.80) scale(0.900)" mask="url(#maskStripes)">
        <g transform="translate(-2.87,-0.95) rotate(-21.95) scale(0.880)">
        <path d="M31.6,18.2 L0.0,36.5 L-31.6,18.2 L-31.6,-18.2 L-0.0,-36.5 L31.6,-18.2Z" fill="url(#rgrad0)" filter="url(#blur0)" opacity="0.25"/>
        <ellipse cx="0" cy="0" rx="15.2" ry="10.1" fill="#FFFFFF" opacity="0.13"/>
      </g>
      </g>
      </g>
      </g>
      </g>
      </g>
      </g>
  </g>
  <g transform="translate(731.0, 403.3)">
      <g transform="translate(-2.53,-3.45) rotate(2.49) scale(1.000)">
        <g transform="translate(-4.29,-2.70) rotate(3.16) scale(0.980)">
        <g transform="translate(-5.00,-1.70) rotate(1.83) scale(0.960)">
        <g transform="translate(-4.48,-0.56) rotate(-1.56) scale(0.940)">
        <g transform="translate(-2.87,0.64) rotate(-6.86) scale(0.920)">
        <g transform="translate(-0.55,1.78) rotate(-13.80) scale(0.900)">
        <g transform="translate(1.90,2.76) rotate(-21.95) scale(0.880)">
        <circle cx="0" cy="0" r="36.5" fill="url(#rgrad1)" filter="url(#shadow)" opacity="0.36"/>
        <text x="0" y="5" text-anchor="middle" font-family="Arial, sans-serif" font-size="14" fill="#FFFFFF" opacity="0.36">834</text>
      </g>
      </g>
      </g>
      </g>
      </g>
      </g>
      </g>
  </g>
  <g transform="translate(950.9, 391.9)">
      <g transform="translate(-5.00,-0.16) rotate(2.49) scale(1.000)">
        <g transform="translate(-4.48,1.03) rotate(3.16) scale(0.980)">
        <g transform="translate(-2.87,2.13) rotate(1.83) scale(0.960)">
        <g transform="translate(-0.55,3.03) rotate(-1.56) scale(0.940)" clip-path="url(#clipHex)">
        <g transform="translate(1.90,3.67) rotate(-6.86) scale(0.920)">
        <g transform="translate(3.88,3.98) rotate(-13.80) scale(0.900)">
        <g transform="translate(4.92,3.93) rotate(-21.95) scale(0.880)">
        <path d="M0.0,-73.3 L21.5,-29.6 L69.7,-22.6 L34.9,11.3 L43.1,59.3 L0.0,36.6 L-43.1,59.3 L-34.9,11.3 L-69.7,-22.6 L-21.5,-29.6Z" fill="url(#lgrad2)" filter="url(#blur2)" opacity="0.47"/>
      </g>
      </g>
      </g>
      </g>
      </g>
      </g>
      </g>
  </g>
  <g transform="translate(1177.9, 375.0)">
      <g transform="translate(-2.87,3.28) rotate(2.49) scale(1.000)">
        <g transform="translate(-0.55,3.81) rotate(3.16) scale(0.980)">
        <g transform="translate(1.90,4.00) rotate(1.83) scale(0.960)">
        <g transform="translate(3.88,3.83) rotate(-1.56) scale(0.940)">
        <g transform="translate(4.92,3.32) rotate(-6.86) scale(0.920)">
        <g transform="translate(4.75,2.52) rotate(-13.80) scale(0.900)" mask="url(#maskCircleFade)">
        <g transform="translate(3.42,1.49) rotate(-21.95) scale(0.880)">
        <rect x="-30.7" y="-30.7" width="61.3" height="61.3" rx="15.3" fill="url(#rgrad3)" filter="url(#shadow)" opacity="0.59"/>
        <circle cx="0" cy="0" r="20.4" fill="url(#rgrad4)" opacity="0.42"/>
      </g>
      </g>
      </g>
      </g>
      </g>
      </g>
      </g>
  </g>
  <g transform="translate(1410.4, 360.4)">
      <g transform="translate(1.90,3.70) rotate(2.49) scale(1.000)">
        <g transform="translate(3.88,3.09) rotate(3.16) scale(0.980)">
        <g transform="translate(4.92,2.20) rotate(1.83) scale(0.960)">
        <g transform="translate(4.75,1.11) rotate(-1.56) scale(0.940)">
        <g transform="translate(3.42,-0.08) rotate(-6.86) scale(0.920)">
        <g transform="translate(1.25,-1.25) rotate(-13.80) scale(0.900)">
        <g transform="translate(-1.23,-2.32) rotate(-21.95) scale(0.880)">
        <path d="M25.0,14.4 L0.0,28.9 L-25.0,14.4 L-25.0,-14.4 L-0.0,-28.9 L25.0,-14.4Z" fill="url(#rgrad4)" filter="url(#blur4)" opacity="0.70"/>
        <ellipse cx="0" cy="0" rx="12.0" ry="8.0" fill="#FFFFFF" opacity="0.35"/>
      </g>
      </g>
      </g>
      </g>
      </g>
      </g>
      </g>
  </g>
  <g transform="translate(1645.2, 355.0)">
      <g transform="translate(4.92,0.72) rotate(2.49) scale(1.000)">
        <g transform="translate(4.75,-0.47) rotate(3.16) scale(0.980)">
        <g transform="translate(3.42,-1.63) rotate(1.83) scale(0.960)">
        <g transform="translate(1.25,-2.63) rotate(-1.56) scale(0.940)" clip-path="url(#clipCircle)">
        <g transform="translate(-1.23,-3.41) rotate(-6.86) scale(0.920)">
        <g transform="translate(-3.40,-3.87) rotate(-13.80) scale(0.900)">
        <g transform="translate(-4.74,-4.00) rotate(-21.95) scale(0.880)">
        <circle cx="0" cy="0" r="22.9" fill="url(#lgrad0)" filter="url(#shadow)" opacity="0.80"/>
        <text x="0" y="5" text-anchor="middle" font-family="Arial, sans-serif" font-size="14" fill="#FFFFFF" opacity="0.80">834</text>
      </g>
      </g>
      </g>
      </g>
      </g>
      </g>
      </g>
  </g>
  <g transform="translate(118.7, 641.4)">
      <g transform="translate(3.42,-2.92) rotate(2.49) scale(1.000)">
        <g transform="translate(1.25,-3.60) rotate(3.16) scale(0.980)">
        <g transform="translate(-1.23,-3.95) rotate(1.83) scale(0.960)">
        <g transform="translate(-3.40,-3.96) rotate(-1.56) scale(0.940)">
        <g transform="translate(-4.74,-3.61) rotate(-6.86) scale(0.920)">
        <g transform="translate(-4.92,-2.93) rotate(-13.80) scale(0.900)" mask="url(#maskGradient)">
        <g transform="translate(-3.90,-2.00) rotate(-21.95) scale(0.880)">
        <path d="M0.0,-56.6 L16.6,-22.9 L53.8,-17.5 L26.9,8.7 L33.3,45.8 L0.0,28.3 L-33.3,45.8 L-26.9,8.7 L-53.8,-17.5 L-16.6,-22.9Z" fill="url(#rgrad1)" filter="url(#blur1)" opacity="0.86"/>
      </g>
      </g>
      </g>
      </g>
      </g>
      </g>
      </g>
  </g>
  <g transform="translate(347.7, 656.5)">
      <g transform="translate(-1.23,-3.88) rotate(2.49) scale(1.000)">
        <g transform="translate(-3.40,-3.41) rotate(3.16) scale(0.980)">
        <g transform="translate(-4.74,-2.65) rotate(1.83) scale(0.960)">
        <g transform="translate(-4.92,-1.64) rotate(-1.56) scale(0.940)">
        <g transform="translate(-3.90,-0.49) rotate(-6.86) scale(0.920)">
        <g transform="translate(-1.92,0.71) rotate(-13.80) scale(0.900)">
        <g transform="translate(0.53,1.84) rotate(-21.95) scale(0.880)">
        <rect x="-35.2" y="-35.2" width="70.4" height="70.4" rx="17.6" fill="url(#rgrad2)" filter="url(#shadow)" opacity="0.90"/>
        <circle cx="0" cy="0" r="23.5" fill="url(#rgrad3)" opacity="0.63"/>
      </g>
      </g>
      </g>
      </g>
      </g>
      </g>
      </g>
  </g>
  <g transform="translate(569.8, 673.3)">
      <g transform="translate(-4.74,-1.27) rotate(2.49) scale(1.000)">
        <g transform="translate(-4.92,-0.09) rotate(3.16) scale(0.980)">
        <g transform="translate(-3.90,1.09) rotate(1.83) scale(0.960)">
        <g transform="translate(-1.92,2.18) rotate(-1.56) scale(0.940)" clip-path="url(#clipRect)">
        <g transform="translate(0.53,3.08) rotate(-6.86) scale(0.920)">
        <g transform="translate(2.85,3.69) rotate(-13.80) scale(0.900)">
        <g transform="translate(4.47,3.98) rotate(-21.95) scale(0.880)">
        <path d="M38.8,22.4 L0.0,44.8 L-38.8,22.4 L-38.8,-22.4 L-0.0,-44.8 L38.8,-22.4Z" fill="url(#lgrad3)" filter="url(#blur3)" opacity="0.89"/>
        <ellipse cx="0" cy="0" rx="18.7" ry="12.5" fill="#FFFFFF" opacity="0.45"/>
      </g>
      </g>
      </g>
      </g>
      </g>
      </g>
      </g>
  </g>
  <g transform="translate(784.7, 683.8)">
      <g transform="translate(-3.90,2.51) rotate(2.49) scale(1.000)">
        <g transform="translate(-1.92,3.32) rotate(3.16) scale(0.980)">
        <g transform="translate(0.53,3.83) rotate(1.83) scale(0.960)">
        <g transform="translate(2.85,4.00) rotate(-1.56) scale(0.940)">
        <g transform="translate(4.47,3.81) rotate(-6.86) scale(0.920)">
        <g transform="translate(5.00,3.29) rotate(-13.80) scale(0.900)" mask="url(#maskDynamic)">
        <g transform="translate(4.30,2.47) rotate(-21.95) scale(0.880)">
        <circle cx="0" cy="0" r="32.7" fill="url(#rgrad4)" filter="url(#shadow)" opacity="0.86"/>
        <text x="0" y="5" text-anchor="middle" font-family="Arial, sans-serif" font-size="14" fill="#FFFFFF" opacity="0.86">834</text>
      </g>
      </g>
      </g>
      </g>
      </g>
      </g>
      </g>
  </g>
  <g transform="translate(993.6, 683.1)">
      <g transform="translate(0.53,3.98) rotate(2.49) scale(1.000)">
        <g transform="translate(2.85,3.67) rotate(3.16) scale(0.980)">
        <g transform="translate(4.47,3.04) rotate(1.83) scale(0.960)">
        <g transform="translate(5.00,2.14) rotate(-1.56) scale(0.940)">
        <g transform="translate(4.30,1.05) rotate(-6.86) scale(0.920)">
        <g transform="translate(2.55,-0.14) rotate(-13.80) scale(0.900)">
        <g transform="translate(0.18,-1.32) rotate(-21.95) scale(0.880)">
        <path d="M0.0,-51.2 L15.0,-20.7 L48.7,-15.8 L24.3,7.9 L30.1,41.4 L0.0,25.6 L-30.1,41.4 L-24.3,7.9 L-48.7,-15.8 L-15.0,-20.7Z" fill="url(#rgrad0)" filter="url(#blur0)" opacity="0.79"/>
      </g>
      </g>
      </g>
      </g>
      </g>
      </g>
      </g>
  </g>
  <g transform="translate(1199.1, 671.6)">
      <g transform="translate(4.47,1.79) rotate(2.49) scale(1.000)">
        <g transform="translate(5.00,0.65) rotate(3.16) scale(0.980)">
        <g transform="translate(4.30,-0.54) rotate(1.83) scale(0.960)">
        <g transform="translate(2.55,-1.69) rotate(-1.56) scale(0.940)" clip-path="url(#clipStar)">
        <g transform="translate(0.18,-2.68) rotate(-6.86) scale(0.920)">
        <g transform="translate(-2.24,-3.44) rotate(-13.80) scale(0.900)">
        <g transform="translate(-4.11,-3.89) rotate(-21.95) scale(0.880)">
        <rect x="-22.5" y="-22.5" width="45.0" height="45.0" rx="11.3" fill="url(#lgrad1)" filter="url(#shadow)" opacity="0.69"/>
        <circle cx="0" cy="0" r="15.0" fill="url(#rgrad2)" opacity="0.49"/>
      </g>
      </g>
      </g>
      </g>
      </g>
      </g>
      </g>
  </g>
  <g transform="translate(1404.8, 654.6)">
      <g transform="translate(4.30,-2.04) rotate(2.49) scale(1.000)">
        <g transform="translate(2.55,-2.97) rotate(3.16) scale(0.980)">
        <g transform="translate(0.18,-3.63) rotate(1.83) scale(0.960)">
        <g transform="translate(-2.24,-3.96) rotate(-1.56) scale(0.940)">
        <g transform="translate(-4.11,-3.95) rotate(-6.86) scale(0.920)">
        <g transform="translate(-4.97,-3.58) rotate(-13.80) scale(0.900)" mask="url(#maskStripes)">
        <g transform="translate(-4.62,-2.89) rotate(-21.95) scale(0.880)">
        <path d="M27.4,15.8 L0.0,31.6 L-27.4,15.8 L-27.4,-15.8 L-0.0,-31.6 L27.4,-15.8Z" fill="url(#rgrad2)" filter="url(#blur2)" opacity="0.58"/>
        <ellipse cx="0" cy="0" rx="13.2" ry="8.8" fill="#FFFFFF" opacity="0.29"/>
      </g>
      </g>
      </g>
      </g>
      </g>
      </g>
      </g>
  </g>
  <g transform="translate(1614.3, 640.1)">
      <g transform="translate(0.18,-4.00) rotate(2.49) scale(1.000)">
        <g transform="translate(-2.24,-3.86) rotate(3.16) scale(0.980)">
        <g transform="translate(-4.11,-3.38) rotate(1.83) scale(0.960)">
        <g transform="translate(-4.97,-2.60) rotate(-1.56) scale(0.940)">
        <g transform="translate(-4.62,-1.58) rotate(-6.86) scale(0.920)">
        <g transform="translate(-3.13,-0.42) rotate(-13.80) scale(0.900)">
        <g transform="translate(-0.88,0.77) rotate(-21.95) scale(0.880)">
        <circle cx="0" cy="0" r="33.5" fill="url(#rgrad3)" filter="url(#shadow)" opacity="0.46"/>
        <text x="0" y="5" text-anchor="middle" font-family="Arial, sans-serif" font-size="14" fill="#FFFFFF" opacity="0.46">834</text>
      </g>
      </g>
      </g>
      </g>
      </g>
      </g>
      </g>
  </g>
  <g transform="translate(70.0, 915.0)">
      <g transform="translate(-4.11,-2.28) rotate(2.49) scale(1.000)">
        <g transform="translate(-4.97,-1.20) rotate(3.16) scale(0.980)">
        <g transform="translate(-4.62,-0.02) rotate(1.83) scale(0.960)">
        <g transform="translate(-3.13,1.16) rotate(-1.56) scale(0.940)" clip-path="url(#clipDynamic)">
        <g transform="translate(-0.88,2.24) rotate(-6.86) scale(0.920)">
        <g transform="translate(1.59,3.12) rotate(-13.80) scale(0.900)">
        <g transform="translate(3.67,3.72) rotate(-21.95) scale(0.880)">
        <path d="M0.0,-74.9 L22.0,-30.3 L71.3,-23.2 L35.6,11.6 L44.1,60.6 L0.0,37.5 L-44.1,60.6 L-35.6,11.6 L-71.3,-23.2 L-22.0,-30.3Z" fill="url(#lgrad4)" filter="url(#blur4)" opacity="0.35"/>
      </g>
      </g>
      </g>
      </g>
      </g>
      </g>
      </g>
  </g>
  <g transform="translate(213.6, 340.2)" mask="url(#maskGradient)">
    <ellipse cx="0" cy="0" rx="200" ry="150" fill="url(#rgrad0)" filter="url(#blur3)" opacity="0.3"/>
  </g>
  <g transform="translate(795.6, 375.3)" mask="url(#maskCircleFade)">
    <ellipse cx="0" cy="0" rx="200" ry="150" fill="url(#rgrad1)" filter="url(#blur3)" opacity="0.3"/>
  </g>
  <g transform="translate(1381.7, 375.0)" mask="url(#maskStripes)">
    <ellipse cx="0" cy="0" rx="200" ry="150" fill="url(#rgrad2)" filter="url(#blur3)" opacity="0.3"/>
  </g>
</svg>