<?xml version="1.0" encoding="UTF-8"?>
<svg xmlns="http://www.w3.org/2000/svg" viewBox="0 0 1920 1080" width="1920" height="1080">
  <defs>
    <filter id="blur0" x="-50%" y="-50%" width="200%" height="200%">
      <feGaussianBlur in="SourceGraphic" stdDeviation="1"/>
    </filter>
    <filter id="blur1" x="-50%" y="-50%" width="200%" height="200%">
      <feGaussianBlur in="SourceGraphic" stdDeviation="3"/>
    </filter>
    <filter id="blur2" x="-50%" y="-50%" width="200%" height="200%">
      <feGaussianBlur in="SourceGraphic" stdDeviation="5"/>
    </filter>
    <filter id="blur3" x="-50%" y="-50%" width="200%" height="200%">
      <feGaussianBlur in="SourceGraphic" stdDeviation="7"/>
    </filter>
    <filter id="blur4" x="-50%" y="-50%" width="200%" height="200%">
      <feGaussianBlur in="SourceGraphic" stdDeviation="9"/>
    </filter>
    <filter id="shadow" x="-50%" y="-50%" width="200%" height="200%">
      <feGaussianBlur in="SourceAlpha" stdDeviation="3" result="blur"/>
      <feOffset in="blur" dx="4" dy="4" result="offsetBlur"/>
      <feMerge>
        <feMergeNode in="offsetBlur"/>
        <feMergeNode in="SourceGraphic"/>
      </feMerge>
    </filter>
    <linearGradient id="lgrad0" x1="0%" y1="0%" x2="1.7%" y2="37.1%">
      <stop offset="0%" stop-color="#FF6B6B"/>
      <stop offset="33%" stop-color="#4ECDC4"/>
      <stop offset="66%" stop-color="#45B7D1"/>
      <stop offset="100%" stop-color="#96E6A1"/>
    </linearGradient>
    <linearGradient id="lgrad1" x1="0%" y1="0%" x2="14.6%" y2="14.6%">
      <stop offset="0%" stop-color="#FFE66D"/>
      <stop offset="33%" stop-color="#FF6B6B"/>
      <stop offset="66%" stop-color="#C44D58"/>
      <stop offset="100%" stop-color="#8B0000"/>
    </linearGradient>
    <linearGradient id="lgrad2" x1="0%" y1="0%" x2="37.1%" y2="1.7%">
      <stop offset="0%" stop-color="#4169E1"/>
      <stop offset="33%" stop-color="#7B68EE"/>
      <stop offset="66%" stop-color="#9370DB"/>
      <stop offset="100%" stop-color="#FFD700"/>
    </linearGradient>
    <linearGradient id="lgrad3" x1="0%" y1="0%" x2="62.9%" y2="1.7%">
      <stop offset="0%" stop-color="#32CD32"/>
      <stop offset="33%" stop-color="#228B22"/>
      <stop offset="66%" stop-color="#006400"/>
      <stop offset="100%" stop-color="#ADFF2F"/>
    </linearGradient>
    <linearGradient id="lgrad4" x1="0%" y1="0%" x2="85.4%" y2="14.6%">
      <stop offset="0%" stop-color="#FF1493"/>
      <stop offset="33%" stop-color="#FF69B4"/>
      <stop offset="66%" stop-color="#FFB6C1"/>
      <stop offset="100%" stop-color="#FFC0CB"/>
    </linearGradient>
    <radialGradient id="rgrad0" cx="40.0%" cy="50.0%" r="60%">
      <stop offset="0%" stop-color="#FF6B6B" stop-opacity="1"/>
      <stop offset="50%" stop-color="#4ECDC4" stop-opacity="0.8"/>
      <stop offset="100%" stop-color="#45B7D1" stop-opacity="0.6"/>
    </radialGradient>
    <radialGradient id="rgrad1" cx="50.0%" cy="58.0%" r="60%">
      <stop offset="0%" stop-color="#FFE66D" stop-opacity="1"/>
      <stop offset="50%" stop-color="#FF6B6B" stop-opacity="0.8"/>
      <stop offset="100%" stop-color="#C44D58" stop-opacity="0.6"/>
    </radialGradient>
    <radialGradient id="rgrad2" cx="60.0%" cy="66.0%" r="60%">
      <stop offset="0%" stop-color="#4169E1" stop-opacity="1"/>
      <stop offset="50%" stop-color="#7B68EE" stop-opacity="0.8"/>
      <stop offset="100%" stop-color="#9370DB" stop-opacity="0.6"/>
    </radialGradient>
    <radialGradient id="rgrad3" cx="30.0%" cy="34.0%" r="60%">
      <stop offset="0%" stop-color="#32CD32" stop-opacity="1"/>
      <stop offset="50%" stop-color="#228B22" stop-opacity="0.8"/>
      <stop offset="100%" stop-color="#006400" stop-opacity="0.6"/>
    </radialGradient>
    <radialGradient id="rgrad4" cx="40.0%" cy="42.0%" r="60%">
      <stop offset="0%" stop-color="#FF1493" stop-opacity="1"/>
      <stop offset="50%" stop-color="#FF69B4" stop-opacity="0.8"/>
      <stop offset="100%" stop-color="#FFB6C1" stop-opacity="0.6"/>
    </radialGradient>
    <clipPath id="clipCircle">
      <circle cx="0" cy="0" r="50"/>
    </clipPath>
    <clipPath id="clipStar">
      <path d="M0.0,-50.0 L14.7,-20.2 L47.6,-15.5 L23.8,7.7 L29.4,40.5 L0.0,25.0 L-29.4,40.5 L-23.8,7.7 L-47.6,-15.5 L-14.7,-20.2Z"/>
    </clipPath>
    <clipPath id="clipHex">
      <path d="M39.0,22.5 L0.0,45.0 L-39.0,22.5 L-39.0,-22.5 L-0.0,-45.0 L39.0,-22.5Z"/>
    </clipPath>
    <clipPath id="clipRect">
      <rect x="-40" y="-30" width="80" height="60" rx="10"/>
    </clipPath>
    <clipPath id="clipDynamic">
      <circle cx="0" cy="0" r="49.3"/>
    </clipPath>
    <mask id="maskGradient" maskContentUnits="objectBoundingBox">
      <rect x="0" y="0" width="1" height="1" fill="url(#maskGrad)"/>
    </mask>
    <linearGradient id="maskGrad" x1="0%" y1="0%" x2="100%" y2="100%">
      <stop offset="0%" stop-color="white"/>
      <stop offset="100%" stop-color="black"/>
    </linearGradient>
    <mask id="maskCircleFade">
      <circle cx="0" cy="0" r="60" fill="white"/>
      <circle cx="0" cy="0" r="30" fill="black"/>
    </mask>
    <mask id="maskStripes">
      <rect x="-50" y="-50" width="100" height="100" fill="white"/>
      <rect x="-50" y="-40" width="100" height="10" fill="black"/>
      <rect x="-50" y="-20" width="100" height="10" fill="black"/>
      <rect x="-50" y="0" width="100" height="10" fill="black"/>
      <rect x="-50" y="20" width="100" height="10" fill="black"/>
      <rect x="-50" y="40" width="100" height="10" fill="black"/>
    </mask>
    <mask id="maskDynamic">
      <rect x="-60" y="-60" width="120" height="120" fill="white" fill-opacity="0.87"/>
      <circle cx="0" cy="0" r="25" fill="white"/>
    </mask>
  </defs>
  <rect width="1920" height="1080" fill="url(#lgrad0)"/>
  <g transform="translate(128.6, 92.4)">
      <g transform="translate(4.76,-1.22) rotate(4.04) scale(1.000)">
        <g transform="translate(3.45,-2.29) rotate(9.09) scale(0.980)">
        <g transform="translate(1.29,-3.16) rotate(14.60) scale(0.960)">
        <g transform="translate(-1.18,-3.74) rotate(19.99) scale(0.940)" clip-path="url(#clipCircle)">
        <g transform="translate(-3.37,-3.99) rotate(24.64) scale(0.920)">
        <g transform="translate(-4.73,-3.89) rotate(27.98) scale(0.900)">
        <g transform="translate(-4.93,-3.43) rotate(29.48) scale(0.880)">
        <path d="M0.0,-72.1 L21.2,-29.2 L68.6,-22.3 L34.3,11.1 L42.4,58.3 L0.0,36.1 L-42.4,58.3 L-34.3,11.1 L-68.6,-22.3 L-21.2,-29.2Z" fill="url(#lgrad0)" filter="url(#blur0)" opacity="0.82"/>
      </g>
      </g>
      </g>
      </g>
      </g>
      </g>
      </g>
  </g>
  <g transform="translate(340.7, 78.8)">
      <g transform="translate(1.29,-3.86) rotate(4.04) scale(1.000)">
        <g transform="translate(-1.18,-4.00) rotate(9.09) scale(0.980)">
        <g transform="translate(-3.37,-3.77) rotate(14.60) scale(0.960)">
        <g transform="translate(-4.73,-3.21) rotate(19.99) scale(0.940)">
        <g transform="translate(-4.93,-2.36) rotate(24.64) scale(0.920)">
        <g transform="translate(-3.92,-1.30) rotate(27.98) scale(0.900)" mask="url(#maskCircleFade)">
        <g transform="translate(-1.96,-0.13) rotate(29.48) scale(0.880)">
        <rect x="-37.0" y="-37.0" width="74.0" height="74.0" rx="18.5" fill="url(#rgrad1)" filter="url(#shadow)" opacity="0.88"/>
        <circle cx="0" cy="0" r="24.7" fill="url(#rgrad2)" opacity="0.61"/>
      </g>
      </g>
      </g>
      </g>
      </g>
      </g>
      </g>
  </g>
  <g transform="translate(547.7, 75.2)">
      <g transform="translate(-3.37,-2.96) rotate(4.04) scale(1.000)">
        <g transform="translate(-4.73,-2.03) rotate(9.09) scale(0.980)">
        <g transform="translate(-4.93,-0.92) rotate(14.60) scale(0.960)">
        <g transform="translate(-3.92,0.27) rotate(19.99) scale(0.940)">
        <g transform="translate(-1.96,1.44) rotate(24.64) scale(0.920)">
        <g transform="translate(0.49,2.48) rotate(27.98) scale(0.900)">
        <g transform="translate(2.81,3.30) rotate(29.48) scale(0.880)">
        <path d="M32.7,18.9 L0.0,37.8 L-32.7,18.9 L-32.7,-18.9 L-0.0,-37.8 L32.7,-18.9Z" fill="url(#rgrad2)" filter="url(#blur2)" opacity="0.90"/>
        <ellipse cx="0" cy="0" rx="15.7" ry="10.5" fill="#FFFFFF" opacity="0.45"/>
      </g>
      </g>
      </g>
      </g>
      </g>
      </g>
      </g>
  </g>
  <g transform="translate(752.9, 83.3)">
      <g transform="translate(-4.93,0.67) rotate(4.04) scale(1.000)">
        <g transform="translate(-3.92,1.80) rotate(9.09) scale(0.980)">
        <g transform="translate(-1.96,2.78) rotate(14.60) scale(0.960)">
        <g transform="translate(0.49,3.51) rotate(19.99) scale(0.940)" clip-path="url(#clipRect)">
        <g transform="translate(2.81,3.92) rotate(24.64) scale(0.920)">
        <g transform="translate(4.45,3.98) rotate(27.98) scale(0.900)">
        <g transform="translate(5.00,3.69) rotate(29.48) scale(0.880)">
        <circle cx="0" cy="0" r="24.6" fill="url(#lgrad3)" filter="url(#shadow)" opacity="0.89"/>
        <text x="0" y="5" text-anchor="middle" font-family="Arial, sans-serif" font-size="14" fill="#FFFFFF" opacity="0.89">300</text>
      </g>
      </g>
      </g>
      </g>
      </g>
      </g>
      </g>
  </g>
  <g transform="translate(959.8, 99.2)">
      <g transform="translate(-1.96,3.68) rotate(4.04) scale(1.000)">
        <g transform="translate(0.49,3.98) rotate(9.09) scale(0.980)">
        <g transform="translate(2.81,3.92) rotate(14.60) scale(0.960)">
        <g transform="translate(4.45,3.52) rotate(19.99) scale(0.940)">
        <g transform="translate(5.00,2.79) rotate(24.64) scale(0.920)">
        <g transform="translate(4.32,1.82) rotate(27.98) scale(0.900)" mask="url(#maskGradient)">
        <g transform="translate(2.59,0.69) rotate(29.48) scale(0.880)">
        <path d="M0.0,-45.4 L13.3,-18.4 L43.2,-14.0 L21.6,7.0 L26.7,36.7 L0.0,22.7 L-26.7,36.7 L-21.6,7.0 L-43.2,-14.0 L-13.3,-18.4Z" fill="url(#rgrad4)" filter="url(#blur4)" opacity="0.84"/>
      </g>
      </g>
      </g>
      </g>
      </g>
      </g>
      </g>
  </g>
  <g transform="translate(1171.6, 115.5)">
      <g transform="translate(2.81,3.31) rotate(4.04) scale(1.000)">
        <g transform="translate(4.45,2.49) rotate(9.09) scale(0.980)">
        <g transform="translate(5.00,1.46) rotate(14.60) scale(0.960)">
        <g transform="translate(4.32,0.29) rotate(19.99) scale(0.940)">
        <g transform="translate(2.59,-0.90) rotate(24.64) scale(0.920)">
        <g transform="translate(0.22,-2.01) rotate(27.98) scale(0.900)">
        <g transform="translate(-2.20,-2.94) rotate(29.48) scale(0.880)">
        <rect x="-27.5" y="-27.5" width="55.0" height="55.0" rx="13.7" fill="url(#rgrad0)" filter="url(#shadow)" opacity="0.76"/>
        <circle cx="0" cy="0" r="18.3" fill="url(#rgrad1)" opacity="0.53"/>
      </g>
      </g>
      </g>
      </g>
      </g>
      </g>
      </g>
  </g>
  <g transform="translate(1390.4, 124.5)">
      <g transform="translate(5.00,-0.11) rotate(4.04) scale(1.000)">
        <g transform="translate(4.32,-1.28) rotate(9.09) scale(0.980)">
        <g transform="translate(2.59,-2.35) rotate(14.60) scale(0.960)">
        <g transform="translate(0.22,-3.20) rotate(19.99) scale(0.940)" clip-path="url(#clipStar)">
        <g transform="translate(-2.20,-3.77) rotate(24.64) scale(0.920)">
        <g transform="translate(-4.08,-4.00) rotate(27.98) scale(0.900)">
        <g transform="translate(-4.97,-3.87) rotate(29.48) scale(0.880)">
        <path d="M35.9,20.7 L0.0,41.5 L-35.9,20.7 L-35.9,-20.7 L-0.0,-41.5 L35.9,-20.7Z" fill="url(#lgrad1)" filter="url(#blur1)" opacity="0.66"/>
        <ellipse cx="0" cy="0" rx="17.3" ry="11.5" fill="#FFFFFF" opacity="0.33"/>
      </g>
      </g>
      </g>
      </g>
      </g>
      </g>
      </g>
  </g>
  <g transform="translate(1616.5, 122.0)">
      <g transform="translate(2.59,-3.42) rotate(4.04) scale(1.000)">
        <g transform="translate(0.22,-3.88) rotate(9.09) scale(0.980)">
        <g transform="translate(-2.20,-3.99) rotate(14.60) scale(0.960)">
        <g transform="translate(-4.08,-3.75) rotate(19.99) scale(0.940)">
        <g transform="translate(-4.97,-3.17) rotate(24.64) scale(0.920)">
        <g transform="translate(-4.63,-2.31) rotate(27.98) scale(0.900)" mask="url(#maskDynamic)">
        <g transform="translate(-3.17,-1.24) rotate(29.48) scale(0.880)">
        <circle cx="0" cy="0" r="37.5" fill="url(#rgrad2)" filter="url(#shadow)" opacity="0.54"/>
        <text x="0" y="5" text-anchor="middle" font-family="Arial, sans-serif" font-size="14" fill="#FFFFFF" opacity="0.54">300</text>
      </g>
      </g>
      </g>
      </g>
      </g>
      </g>
      </g>
  </g>
  <g transform="translate(88.2, 389.1)">
      <g transform="translate(-2.20,-3.59) rotate(4.04) scale(1.000)">
        <g transform="translate(-4.08,-2.91) rotate(9.09) scale(0.980)">
        <g transform="translate(-4.97,-1.97) rotate(14.60) scale(0.960)">
        <g transform="translate(-4.63,-0.85) rotate(19.99) scale(0.940)">
        <g transform="translate(-3.17,0.34) rotate(24.64) scale(0.920)">
        <g transform="translate(-0.92,1.50) rotate(27.98) scale(0.900)">
        <g transform="translate(1.55,2.53) rotate(29.48) scale(0.880)">
        <path d="M0.0,-67.0 L19.7,-27.1 L63.7,-20.7 L31.9,10.3 L39.4,54.2 L0.0,33.5 L-39.4,54.2 L-31.9,10.3 L-63.7,-20.7 L-19.7,-27.1Z" fill="url(#rgrad3)" filter="url(#blur3)" opacity="0.42"/>
      </g>
      </g>
      </g>
      </g>
      </g>
      </g>
      </g>
  </g>
  <g transform="translate(322.9, 372.0)">
      <g transform="translate(-4.97,-0.46) rotate(4.04) scale(1.000)">
        <g transform="translate(-4.63,0.74) rotate(9.09) scale(0.980)">
        <g transform="translate(-3.17,1.86) rotate(14.60) scale(0.960)">
        <g transform="translate(-0.92,2.83) rotate(19.99) scale(0.940)" clip-path="url(#clipDynamic)">
        <g transform="translate(1.55,3.54) rotate(24.64) scale(0.920)">
        <g transform="translate(3.64,3.93) rotate(27.98) scale(0.900)">
        <g transform="translate(4.84,3.97) rotate(29.48) scale(0.880)">
        <rect x="-26.3" y="-26.3" width="52.6" height="52.6" rx="13.2" fill="url(#lgrad4)" filter="url(#shadow)" opacity="0.31"/>
        <circle cx="0" cy="0" r="17.5" fill="url(#rgrad0)" opacity="0.22"/>
      </g>
      </g>
      </g>
      </g>
      </g>
      </g>
      </g>
  </g>
  <g transform="translate(556.9, 358.6)">
      <g transform="translate(-3.17,3.10) rotate(4.04) scale(1.000)">
        <g transform="translate(-0.92,3.71) rotate(9.09) scale(0.980)">
        <g transform="translate(1.55,3.99) rotate(14.60) scale(0.960)">
        <g transform="translate(3.64,3.91) rotate(19.99) scale(0.940)">
        <g transform="translate(4.84,3.48) rotate(24.64) scale(0.920)">
        <g transform="translate(4.85,2.75) rotate(27.98) scale(0.900)" mask="url(#maskStripes)">
        <g transform="translate(3.68,1.76) rotate(29.48) scale(0.880)">
        <path d="M23.4,13.5 L0.0,27.0 L-23.4,13.5 L-23.4,-13.5 L-0.0,-27.0 L23.4,-13.5Z" fill="url(#rgrad0)" filter="url(#blur0)" opacity="0.21"/>
        <ellipse cx="0" cy="0" rx="11.3" ry="7.5" fill="#FFFFFF" opacity="0.11"/>
      </g>
      </g>
      </g>
      </g>
      </g>
      </g>
      </g>
  </g>
  <g transform="translate(786.7, 355.3)">
      <g transform="translate(1.55,3.80) rotate(4.04) scale(1.000)">
        <g transform="translate(3.64,3.27) rotate(9.09) scale(0.980)">
        <g transform="translate(4.84,2.44) rotate(14.60) scale(0.960)">
        <g transform="translate(4.85,1.40) rotate(19.99) scale(0.940)">
        <g transform="translate(3.68,0.23) rotate(24.64) scale(0.920)">
        <g transform="translate(1.61,-0.96) rotate(27.98) scale(0.900)">
        <g transform="translate(-0.86,-2.07) rotate(29.48) scale(0.880)">
        <circle cx="0" cy="0" r="25.6" fill="url(#rgrad1)" filter="url(#shadow)" opacity="0.14"/>
        <text x="0" y="5" text-anchor="middle" font-family="Arial, sans-serif" font-size="14" fill="#FFFFFF" opacity="0.14">300</text>
      </g>
      </g>
      </g>
      </g>
      </g>
      </g>
      </g>
  </g>
  <g transform="translate(1010.0, 363.6)">
      <g transform="translate(4.84,1.02) rotate(4.04) scale(1.000)">
        <g transform="translate(4.85,-0.17) rotate(9.09) scale(0.980)">
        <g transform="translate(3.68,-1.35) rotate(14.60) scale(0.960)">
        <g transform="translate(1.61,-2.40) rotate(19.99) scale(0.940)" clip-path="url(#clipHex)">
        <g transform="translate(-0.86,-3.24) rotate(24.64) scale(0.920)">
        <g transform="translate(-3.12,-3.79) rotate(27.98) scale(0.900)">
        <g transform="translate(-4.61,-4.00) rotate(29.48) scale(0.880)">
        <path d="M0.0,-65.5 L19.2,-26.5 L62.3,-20.2 L31.1,10.1 L38.5,53.0 L0.0,32.7 L-38.5,53.0 L-31.1,10.1 L-62.3,-20.2 L-19.2,-26.5Z" fill="url(#lgrad2)" filter="url(#blur2)" opacity="0.11"/>
      </g>
      </g>
      </g>
      </g>
      </g>
      </g>
      </g>
  </g>
  <g transform="translate(1225.9, 379.6)">
      <g transform="translate(3.68,-2.71) rotate(4.04) scale(1.000)">
        <g transform="translate(1.61,-3.46) rotate(9.09) scale(0.980)">
        <g transform="translate(-0.86,-3.90) rotate(14.60) scale(0.960)">
        <g transform="translate(-3.12,-3.99) rotate(19.99) scale(0.940)">
        <g transform="translate(-4.61,-3.73) rotate(24.64) scale(0.920)">
        <g transform="translate(-4.97,-3.13) rotate(27.98) scale(0.900)" mask="url(#maskCircleFade)">
        <g transform="translate(-4.12,-2.25) rotate(29.48) scale(0.880)">
        <rect x="-37.4" y="-37.4" width="74.7" height="74.7" rx="18.7" fill="url(#rgrad3)" filter="url(#shadow)" opacity="0.10"/>
        <circle cx="0" cy="0" r="24.9" fill="url(#rgrad4)" opacity="0.07"/>
      </g>
      </g>
      </g>
      </g>
      </g>
      </g>
      </g>
  </g>
  <g transform="translate(1435.5, 395.8)">
      <g transform="translate(-0.86,-3.94) rotate(4.04) scale(1.000)">
        <g transform="translate(-3.12,-3.56) rotate(9.09) scale(0.980)">
        <g transform="translate(-4.61,-2.86) rotate(14.60) scale(0.960)">
        <g transform="translate(-4.97,-1.91) rotate(19.99) scale(0.940)">
        <g transform="translate(-4.12,-0.79) rotate(24.64) scale(0.920)">
        <g transform="translate(-2.26,0.41) rotate(27.98) scale(0.900)">
        <g transform="translate(0.15,1.56) rotate(29.48) scale(0.880)">
        <path d="M36.6,21.1 L0.0,42.3 L-36.6,21.1 L-36.6,-21.1 L-0.0,-42.3 L36.6,-21.1Z" fill="url(#rgrad4)" filter="url(#blur4)" opacity="0.14"/>
        <ellipse cx="0" cy="0" rx="17.6" ry="11.7" fill="#FFFFFF" opacity="0.07"/>
      </g>
      </g>
      </g>
      </g>
      </g>
      </g>
      </g>
  </g>
  <g transform="translate(1641.3, 404.6)">
      <g transform="translate(-4.61,-1.55) rotate(4.04) scale(1.000)">
        <g transform="translate(-4.97,-0.39) rotate(9.09) scale(0.980)">
        <g transform="translate(-4.12,0.80) rotate(14.60) scale(0.960)">
        <g transform="translate(-2.26,1.92) rotate(19.99) scale(0.940)" clip-path="url(#clipCircle)">
        <g transform="translate(0.15,2.87) rotate(24.64) scale(0.920)">
        <g transform="translate(2.53,3.57) rotate(27.98) scale(0.900)">
        <g transform="translate(4.29,3.94) rotate(29.48) scale(0.880)">
        <circle cx="0" cy="0" r="28.3" fill="url(#lgrad0)" filter="url(#shadow)" opacity="0.20"/>
        <text x="0" y="5" text-anchor="middle" font-family="Arial, sans-serif" font-size="14" fill="#FFFFFF" opacity="0.20">300</text>
      </g>
      </g>
      </g>
      </g>
      </g>
      </g>
      </g>
  </g>
  <g transform="translate(86.8, 681.8)">
      <g transform="translate(-4.12,2.26) rotate(4.04) scale(1.000)">
        <g transform="translate(-2.26,3.14) rotate(9.09) scale(0.980)">
        <g transform="translate(0.15,3.73) rotate(14.60) scale(0.960)">
        <g transform="translate(2.53,3.99) rotate(19.99) scale(0.940)">
        <g transform="translate(4.29,3.89) rotate(24.64) scale(0.920)">
        <g transform="translate(5.00,3.45) rotate(27.98) scale(0.900)" mask="url(#maskGradient)">
        <g transform="translate(4.48,2.70) rotate(29.48) scale(0.880)">
        <path d="M0.0,-45.9 L13.5,-18.5 L43.6,-14.2 L21.8,7.1 L27.0,37.1 L0.0,22.9 L-27.0,37.1 L-21.8,7.1 L-43.6,-14.2 L-13.5,-18.5Z" fill="url(#rgrad1)" filter="url(#blur1)" opacity="0.29"/>
      </g>
      </g>
      </g>
      </g>
      </g>
      </g>
      </g>
  </g>
  <g transform="translate(295.5, 668.7)">
      <g transform="translate(0.15,4.00) rotate(4.04) scale(1.000)">
        <g transform="translate(2.53,3.78) rotate(9.09) scale(0.980)">
        <g transform="translate(4.29,3.23) rotate(14.60) scale(0.960)">
        <g transform="translate(5.00,2.39) rotate(19.99) scale(0.940)">
        <g transform="translate(4.48,1.33) rotate(24.64) scale(0.920)">
        <g transform="translate(2.87,0.16) rotate(27.98) scale(0.900)">
        <g transform="translate(0.55,-1.03) rotate(29.48) scale(0.880)">
        <rect x="-24.1" y="-24.1" width="48.2" height="48.2" rx="12.0" fill="url(#rgrad2)" filter="url(#shadow)" opacity="0.40"/>
        <circle cx="0" cy="0" r="16.1" fill="url(#rgrad3)" opacity="0.28"/>
      </g>
      </g>
      </g>
      </g>
      </g>
      </g>
      </g>
  </g>
  <g transform="translate(510.2, 651.6)">
      <g transform="translate(4.29,2.06) rotate(4.04) scale(1.000)">
        <g transform="translate(5.00,0.95) rotate(9.09) scale(0.980)">
        <g transform="translate(4.48,-0.24) rotate(14.60) scale(0.960)">
        <g transform="translate(2.87,-1.41) rotate(19.99) scale(0.940)" clip-path="url(#clipRect)">
        <g transform="translate(0.55,-2.45) rotate(24.64) scale(0.920)">
        <g transform="translate(-1.90,-3.28) rotate(27.98) scale(0.900)">
        <g transform="translate(-3.88,-3.81) rotate(29.48) scale(0.880)">
        <path d="M31.9,18.4 L0.0,36.8 L-31.9,18.4 L-31.9,-18.4 L-0.0,-36.8 L31.9,-18.4Z" fill="url(#lgrad3)" filter="url(#blur3)" opacity="0.52"/>
        <ellipse cx="0" cy="0" rx="15.3" ry="10.2" fill="#FFFFFF" opacity="0.26"/>
      </g>
      </g>
      </g>
      </g>
      </g>
      </g>
      </g>
  </g>
  <g transform="translate(732.2, 638.4)">
      <g transform="translate(4.48,-1.78) rotate(4.04) scale(1.000)">
        <g transform="translate(2.87,-2.76) rotate(9.09) scale(0.980)">
        <g transform="translate(0.55,-3.49) rotate(14.60) scale(0.960)">
        <g transform="translate(-1.90,-3.91) rotate(19.99) scale(0.940)">
        <g transform="translate(-3.88,-3.98) rotate(24.64) scale(0.920)">
        <g transform="translate(-4.92,-3.70) rotate(27.98) scale(0.900)" mask="url(#maskDynamic)">
        <g transform="translate(-4.75,-3.09) rotate(29.48) scale(0.880)">
        <circle cx="0" cy="0" r="36.7" fill="url(#rgrad4)" filter="url(#shadow)" opacity="0.64"/>
        <text x="0" y="5" text-anchor="middle" font-family="Arial, sans-serif" font-size="14" fill="#FFFFFF" opacity="0.64">300</text>
      </g>
      </g>
      </g>
      </g>
      </g>
      </g>
      </g>
  </g>
  <g transform="translate(961.0, 635.4)">
      <g transform="translate(0.55,-3.98) rotate(4.04) scale(1.000)">
        <g transform="translate(-1.90,-3.93) rotate(9.09) scale(0.980)">
        <g transform="translate(-3.88,-3.53) rotate(14.60) scale(0.960)">
        <g transform="translate(-4.92,-2.82) rotate(19.99) scale(0.940)">
        <g transform="translate(-4.75,-1.85) rotate(24.64) scale(0.920)">
        <g transform="translate(-3.42,-0.72) rotate(27.98) scale(0.900)">
        <g transform="translate(-1.25,0.47) rotate(29.48) scale(0.880)">
        <path d="M0.0,-73.0 L21.5,-29.5 L69.4,-22.6 L34.7,11.3 L42.9,59.1 L0.0,36.5 L-42.9,59.1 L-34.7,11.3 L-69.4,-22.6 L-21.5,-29.5Z" fill="url(#rgrad0)" filter="url(#blur0)" opacity="0.74"/>
      </g>
      </g>
      </g>
      </g>
      </g>
      </g>
      </g>
  </g>
  <g transform="translate(1194.5, 643.9)">
      <g transform="translate(-3.88,-2.52) rotate(4.04) scale(1.000)">
        <g transform="translate(-4.92,-1.49) rotate(9.09) scale(0.980)">
        <g transform="translate(-4.75,-0.33) rotate(14.60) scale(0.960)">
        <g transform="translate(-3.42,0.87) rotate(19.99) scale(0.940)" clip-path="url(#clipStar)">
        <g transform="translate(-1.25,1.98) rotate(24.64) scale(0.920)">
        <g transform="translate(1.23,2.92) rotate(27.98) scale(0.900)">
        <g transform="translate(3.40,3.60) rotate(29.48) scale(0.880)">
        <rect x="-30.4" y="-30.4" width="60.8" height="60.8" rx="15.2" fill="url(#lgrad1)" filter="url(#shadow)" opacity="0.83"/>
        <circle cx="0" cy="0" r="20.3" fill="url(#rgrad2)" opacity="0.58"/>
      </g>
      </g>
      </g>
      </g>
      </g>
      </g>
      </g>
  </g>
  <g transform="translate(1429.3, 660.0)">
      <g transform="translate(-4.75,1.25) rotate(4.04) scale(1.000)">
        <g transform="translate(-3.42,2.32) rotate(9.09) scale(0.980)">
        <g transform="translate(-1.25,3.18) rotate(14.60) scale(0.960)">
        <g transform="translate(1.23,3.75) rotate(19.99) scale(0.940)">
        <g transform="translate(3.40,3.99) rotate(24.64) scale(0.920)">
        <g transform="translate(4.74,3.88) rotate(27.98) scale(0.900)" mask="url(#maskStripes)">
        <g transform="translate(4.92,3.41) rotate(29.48) scale(0.880)">
        <path d="M24.8,14.3 L0.0,28.7 L-24.8,14.3 L-24.8,-14.3 L-0.0,-28.7 L24.8,-14.3Z" fill="url(#rgrad2)" filter="url(#blur2)" opacity="0.88"/>
        <ellipse cx="0" cy="0" rx="12.0" ry="8.0" fill="#FFFFFF" opacity="0.44"/>
      </g>
      </g>
      </g>
      </g>
      </g>
      </g>
      </g>
  </g>
  <g transform="translate(1661.8, 676.1)">
      <g transform="translate(-1.25,3.87) rotate(4.04) scale(1.000)">
        <g transform="translate(1.23,4.00) rotate(9.09) scale(0.980)">
        <g transform="translate(3.40,3.76) rotate(14.60) scale(0.960)">
        <g transform="translate(4.74,3.19) rotate(19.99) scale(0.940)">
        <g transform="translate(4.92,2.33) rotate(24.64) scale(0.920)">
        <g transform="translate(3.90,1.27) rotate(27.98) scale(0.900)">
        <g transform="translate(1.92,0.09) rotate(29.48) scale(0.880)">
        <circle cx="0" cy="0" r="23.0" fill="url(#rgrad3)" filter="url(#shadow)" opacity="0.90"/>
        <text x="0" y="5" text-anchor="middle" font-family="Arial, sans-serif" font-size="14" fill="#FFFFFF" opacity="0.90">300</text>
      </g>
      </g>
      </g>
      </g>
      </g>
      </g>
      </g>
  </g>
  <g transform="translate(129.0, 964.6)">
      <g transform="translate(3.40,2.93) rotate(4.04) scale(1.000)">
        <g transform="translate(4.74,2.00) rotate(9.09) scale(0.980)">
        <g transform="translate(4.92,0.88) rotate(14.60) scale(0.960)">
        <g transform="translate(3.90,-0.31) rotate(19.99) scale(0.940)" clip-path="url(#clipDynamic)">
        <g transform="translate(1.92,-1.47) rotate(24.64) scale(0.920)">
        <g transform="translate(-0.53,-2.51) rotate(27.98) scale(0.900)">
        <g transform="translate(-2.85,-3.32) rotate(29.48) scale(0.880)">
        <path d="M0.0,-57.1 L16.8,-23.1 L54.3,-17.7 L27.2,8.8 L33.6,46.2 L0.0,28.6 L-33.6,46.2 L-27.2,8.8 L-54.3,-17.7 L-16.8,-23.1Z" fill="url(#lgrad4)" filter="url(#blur4)" opacity="0.88"/>
      </g>
      </g>
      </g>
      </g>
      </g>
      </g>
      </g>
  </g>
  <g transform="translate(395.2, 275.6)" mask="url(#maskGradient)">
    <ellipse cx="0" cy="0" rx="200" ry="150" fill="url(#rgrad0)" filter="url(#blur3)" opacity="0.3"/>
  </g>
  <g transform="translate(825.8, 232.3)" mask="url(#maskCircleFade)">
    <ellipse cx="0" cy="0" rx="200" ry="150" fill="url(#rgrad1)" filter="url(#blur3)" opacity="0.3"/>
  </g>
  <g transform="translate(1232.6, 220.8)" mask="url(#maskStripes)">
    <ellipse cx="0" cy="0" rx="200" ry="150" fill="url(#rgrad2)" filter="url(#blur3)" opacity="0.3"/>
  </g>
</svg>