<?xml version="1.0" encoding="UTF-8"?>
<svg xmlns="http://www.w3.org/2000/svg" viewBox="0 0 1920 1080" width="1920" height="1080">
  <defs>
    <filter id="blur0" x="-50%" y="-50%" width="200%" height="200%">
      <feGaussianBlur in="SourceGraphic" stdDeviation="1"/>
    </filter>
    <filter id="blur1" x="-50%" y="-50%" width="200%" height="200%">
      <feGaussianBlur in="SourceGraphic" stdDeviation="3"/>
    </filter>
    <filter id="blur2" x="-50%" y="-50%" width="200%" height="200%">
      <feGaussianBlur in="SourceGraphic" stdDeviation="5"/>
    </filter>
    <filter id="blur3" x="-50%" y="-50%" width="200%" height="200%">
      <feGaussianBlur in="SourceGraphic" stdDeviation="7"/>
    </filter>
    <filter id="blur4" x="-50%" y="-50%" width="200%" height="200%">
      <feGaussianBlur in="SourceGraphic" stdDeviation="9"/>
    </filter>
    <filter id="shadow" x="-50%" y="-50%" width="200%" height="200%">
      <feGaussianBlur in="SourceAlpha" stdDeviation="3" result="blur"/>
      <feOffset in="blur" dx="4" dy="4" result="offsetBlur"/>
      <feMerge>
        <feMergeNode in="offsetBlur"/>
        <feMergeNode in="SourceGraphic"/>
      </feMerge>
    </filter>
    <linearGradient id="lgrad0" x1="0%" y1="0%" x2="96.7%" y2="67.9%">
      <stop offset="0%" stop-color="#FF6B6B"/>
      <stop offset="33%" stop-color="#4ECDC4"/>
      <stop offset="66%" stop-color="#45B7D1"/>
      <stop offset="100%" stop-color="#96E6A1"/>
    </linearGradient>
    <linearGradient id="lgrad1" x1="0%" y1="0%" x2="81.5%" y2="88.9%">
      <stop offset="0%" stop-color="#FFE66D"/>
      <stop offset="33%" stop-color="#FF6B6B"/>
      <stop offset="66%" stop-color="#C44D58"/>
      <stop offset="100%" stop-color="#8B0000"/>
    </linearGradient>
    <linearGradient id="lgrad2" x1="0%" y1="0%" x2="57.8%" y2="99.4%">
      <stop offset="0%" stop-color="#4169E1"/>
      <stop offset="33%" stop-color="#7B68EE"/>
      <stop offset="66%" stop-color="#9370DB"/>
      <stop offset="100%" stop-color="#FFD700"/>
    </linearGradient>
    <linearGradient id="lgrad3" x1="0%" y1="0%" x2="32.1%" y2="96.7%">
      <stop offset="0%" stop-color="#32CD32"/>
      <stop offset="33%" stop-color="#228B22"/>
      <stop offset="66%" stop-color="#006400"/>
      <stop offset="100%" stop-color="#ADFF2F"/>
    </linearGradient>
    <linearGradient id="lgrad4" x1="0%" y1="0%" x2="11.1%" y2="81.5%">
      <stop offset="0%" stop-color="#FF1493"/>
      <stop offset="33%" stop-color="#FF69B4"/>
      <stop offset="66%" stop-color="#FFB6C1"/>
      <stop offset="100%" stop-color="#FFC0CB"/>
    </linearGradient>
    <radialGradient id="rgrad0" cx="31.6%" cy="44.4%" r="60%">
      <stop offset="0%" stop-color="#FF6B6B" stop-opacity="1"/>
      <stop offset="50%" stop-color="#4ECDC4" stop-opacity="0.8"/>
      <stop offset="100%" stop-color="#45B7D1" stop-opacity="0.6"/>
    </radialGradient>
    <radialGradient id="rgrad1" cx="41.6%" cy="52.4%" r="60%">
      <stop offset="0%" stop-color="#FFE66D" stop-opacity="1"/>
      <stop offset="50%" stop-color="#FF6B6B" stop-opacity="0.8"/>
      <stop offset="100%" stop-color="#C44D58" stop-opacity="0.6"/>
    </radialGradient>
    <radialGradient id="rgrad2" cx="51.6%" cy="60.4%" r="60%">
      <stop offset="0%" stop-color="#4169E1" stop-opacity="1"/>
      <stop offset="50%" stop-color="#7B68EE" stop-opacity="0.8"/>
      <stop offset="100%" stop-color="#9370DB" stop-opacity="0.6"/>
    </radialGradient>
    <radialGradient id="rgrad3" cx="61.6%" cy="68.4%" r="60%">
      <stop offset="0%" stop-color="#32CD32" stop-opacity="1"/>
      <stop offset="50%" stop-color="#228B22" stop-opacity="0.8"/>
      <stop offset="100%" stop-color="#006400" stop-opacity="0.6"/>
    </radialGradient>
    <radialGradient id="rgrad4" cx="31.6%" cy="36.4%" r="60%">
      <stop offset="0%" stop-color="#FF1493" stop-opacity="1"/>
      <stop offset="50%" stop-color="#FF69B4" stop-opacity="0.8"/>
      <stop offset="100%" stop-color="#FFB6C1" stop-opacity="0.6"/>
    </radialGradient>
    <clipPath id="clipCircle">
      <circle cx="0" cy="0" r="50"/>
    </clipPath>
    <clipPath id="clipStar">
      <path d="M0.0,-50.0 L14.7,-20.2 L47.6,-15.5 L23.8,7.7 L29.4,40.5 L0.0,25.0 L-29.4,40.5 L-23.8,7.7 L-47.6,-15.5 L-14.7,-20.2Z"/>
    </clipPath>
    <clipPath id="clipHex">
      <path d="M39.0,22.5 L0.0,45.0 L-39.0,22.5 L-39.0,-22.5 L-0.0,-45.0 L39.0,-22.5Z"/>
    </clipPath>
    <clipPath id="clipRect">
      <rect x="-40" y="-30" width="80" height="60" rx="10"/>
    </clipPath>
    <clipPath id="clipDynamic">
      <circle cx="0" cy="0" r="21.8"/>
    </clipPath>
    <mask id="maskGradient" maskContentUnits="objectBoundingBox">
      <rect x="0" y="0" width="1" height="1" fill="url(#maskGrad)"/>
    </mask>
    <linearGradient id="maskGrad" x1="0%" y1="0%" x2="100%" y2="100%">
      <stop offset="0%" stop-color="white"/>
      <stop offset="100%" stop-color="black"/>
    </linearGradient>
    <mask id="maskCircleFade">
      <circle cx="0" cy="0" r="60" fill="white"/>
      <circle cx="0" cy="0" r="30" fill="black"/>
    </mask>
    <mask id="maskStripes">
      <rect x="-50" y="-50" width="100" height="100" fill="white"/>
      <rect x="-50" y="-40" width="100" height="10" fill="black"/>
      <rect x="-50" y="-20" width="100" height="10" fill="black"/>
      <rect x="-50" y="0" width="100" height="10" fill="black"/>
      <rect x="-50" y="20" width="100" height="10" fill="black"/>
      <rect x="-50" y="40" width="100" height="10" fill="black"/>
    </mask>
    <mask id="maskDynamic">
      <rect x="-60" y="-60" width="120" height="120" fill="white" fill-opacity="0.90"/>
      <circle cx="0" cy="0" r="25" fill="white"/>
    </mask>
  </defs>
  <rect width="1920" height="1080" fill="url(#lgrad0)"/>
  <g transform="translate(73.6, 88.2)">
      <g transform="translate(-4.41,-1.89) rotate(4.29) scale(1.000)">
        <g transform="translate(-5.00,-0.76) rotate(7.39) scale(0.980)">
        <g transform="translate(-4.37,0.43) rotate(8.86) scale(0.960)">
        <g transform="translate(-2.67,1.59) rotate(8.36) scale(0.940)" clip-path="url(#clipCircle)">
        <g transform="translate(-0.31,2.60) rotate(5.74) scale(0.920)">
        <g transform="translate(2.12,3.38) rotate(0.94) scale(0.900)">
        <g transform="translate(4.03,3.86) rotate(-5.87) scale(0.880)">
        <path d="M0.0,-72.9 L21.4,-29.5 L69.3,-22.5 L34.7,11.3 L42.8,59.0 L0.0,36.4 L-42.8,59.0 L-34.7,11.3 L-69.3,-22.5 L-21.4,-29.5Z" fill="url(#lgrad0)" filter="url(#blur0)" opacity="0.84"/>
      </g>
      </g>
      </g>
      </g>
      </g>
      </g>
      </g>
  </g>
  <g transform="translate(290.0, 105.2)">
      <g transform="translate(-4.37,1.95) rotate(4.29) scale(1.000)">
        <g transform="translate(-2.67,2.89) rotate(7.39) scale(0.980)">
        <g transform="translate(-0.31,3.58) rotate(8.86) scale(0.960)">
        <g transform="translate(2.12,3.95) rotate(8.36) scale(0.940)">
        <g transform="translate(4.03,3.96) rotate(5.74) scale(0.920)">
        <g transform="translate(4.96,3.62) rotate(0.94) scale(0.900)" mask="url(#maskCircleFade)">
        <g transform="translate(4.67,2.96) rotate(-5.87) scale(0.880)">
        <rect x="-30.2" y="-30.2" width="60.5" height="60.5" rx="15.1" fill="url(#rgrad1)" filter="url(#shadow)" opacity="0.77"/>
        <circle cx="0" cy="0" r="20.2" fill="url(#rgrad2)" opacity="0.54"/>
      </g>
      </g>
      </g>
      </g>
      </g>
      </g>
      </g>
  </g>
  <g transform="translate(513.8, 119.7)">
      <g transform="translate(-0.31,3.99) rotate(4.29) scale(1.000)">
        <g transform="translate(2.12,3.89) rotate(7.39) scale(0.980)">
        <g transform="translate(4.03,3.44) rotate(8.86) scale(0.960)">
        <g transform="translate(4.96,2.68) rotate(8.36) scale(0.940)">
        <g transform="translate(4.67,1.68) rotate(5.74) scale(0.920)">
        <g transform="translate(3.24,0.53) rotate(0.94) scale(0.900)">
        <g transform="translate(1.02,-0.66) rotate(-5.87) scale(0.880)">
        <path d="M24.8,14.3 L0.0,28.6 L-24.8,14.3 L-24.8,-14.3 L-0.0,-28.6 L24.8,-14.3Z" fill="url(#rgrad2)" filter="url(#blur2)" opacity="0.67"/>
        <ellipse cx="0" cy="0" rx="11.9" ry="7.9" fill="#FFFFFF" opacity="0.33"/>
      </g>
      </g>
      </g>
      </g>
      </g>
      </g>
      </g>
  </g>
  <g transform="translate(744.0, 125.0)">
      <g transform="translate(4.03,2.37) rotate(4.29) scale(1.000)">
        <g transform="translate(4.96,1.31) rotate(7.39) scale(0.980)">
        <g transform="translate(4.67,0.13) rotate(8.86) scale(0.960)">
        <g transform="translate(3.24,-1.05) rotate(8.36) scale(0.940)" clip-path="url(#clipRect)">
        <g transform="translate(1.02,-2.15) rotate(5.74) scale(0.920)">
        <g transform="translate(-1.46,-3.05) rotate(0.94) scale(0.900)">
        <g transform="translate(-3.57,-3.68) rotate(-5.87) scale(0.880)">
        <circle cx="0" cy="0" r="23.1" fill="url(#lgrad3)" filter="url(#shadow)" opacity="0.55"/>
        <text x="0" y="5" text-anchor="middle" font-family="Arial, sans-serif" font-size="14" fill="#FFFFFF" opacity="0.55">672</text>
      </g>
      </g>
      </g>
      </g>
      </g>
      </g>
      </g>
  </g>
  <g transform="translate(978.1, 118.5)">
      <g transform="translate(4.67,-1.43) rotate(4.29) scale(1.000)">
        <g transform="translate(3.24,-2.47) rotate(7.39) scale(0.980)">
        <g transform="translate(1.02,-3.29) rotate(8.86) scale(0.960)">
        <g transform="translate(-1.46,-3.82) rotate(8.36) scale(0.940)">
        <g transform="translate(-3.57,-4.00) rotate(5.74) scale(0.920)">
        <g transform="translate(-4.81,-3.83) rotate(0.94) scale(0.900)" mask="url(#maskGradient)">
        <g transform="translate(-4.87,-3.31) rotate(-5.87) scale(0.880)">
        <path d="M0.0,-57.4 L16.9,-23.2 L54.6,-17.7 L27.3,8.9 L33.7,46.5 L0.0,28.7 L-33.7,46.5 L-27.3,8.9 L-54.6,-17.7 L-16.9,-23.2Z" fill="url(#rgrad4)" filter="url(#blur4)" opacity="0.43"/>
      </g>
      </g>
      </g>
      </g>
      </g>
      </g>
      </g>
  </g>
  <g transform="translate(1212.7, 103.3)">
      <g transform="translate(1.02,-3.92) rotate(4.29) scale(1.000)">
        <g transform="translate(-1.46,-3.98) rotate(7.39) scale(0.980)">
        <g transform="translate(-3.57,-3.69) rotate(8.86) scale(0.960)">
        <g transform="translate(-4.81,-3.07) rotate(8.36) scale(0.940)">
        <g transform="translate(-4.87,-2.18) rotate(5.74) scale(0.920)">
        <g transform="translate(-3.74,-1.09) rotate(0.94) scale(0.900)">
        <g transform="translate(-1.70,0.10) rotate(-5.87) scale(0.880)">
        <rect x="-35.5" y="-35.5" width="71.0" height="71.0" rx="17.8" fill="url(#rgrad0)" filter="url(#shadow)" opacity="0.32"/>
        <circle cx="0" cy="0" r="23.7" fill="url(#rgrad1)" opacity="0.22"/>
      </g>
      </g>
      </g>
      </g>
      </g>
      </g>
      </g>
  </g>
  <g transform="translate(1444.2, 86.6)">
      <g transform="translate(-3.57,-2.80) rotate(4.29) scale(1.000)">
        <g transform="translate(-4.81,-1.83) rotate(7.39) scale(0.980)">
        <g transform="translate(-4.87,-0.70) rotate(8.86) scale(0.960)">
        <g transform="translate(-3.74,0.50) rotate(8.36) scale(0.940)" clip-path="url(#clipStar)">
        <g transform="translate(-1.70,1.65) rotate(5.74) scale(0.920)">
        <g transform="translate(0.77,2.65) rotate(0.94) scale(0.900)">
        <g transform="translate(3.04,3.42) rotate(-5.87) scale(0.880)">
        <path d="M38.7,22.4 L0.0,44.7 L-38.7,22.4 L-38.7,-22.4 L-0.0,-44.7 L38.7,-22.4Z" fill="url(#lgrad1)" filter="url(#blur1)" opacity="0.22"/>
        <ellipse cx="0" cy="0" rx="18.6" ry="12.4" fill="#FFFFFF" opacity="0.11"/>
      </g>
      </g>
      </g>
      </g>
      </g>
      </g>
      </g>
  </g>
  <g transform="translate(1669.7, 76.2)">
      <g transform="translate(-4.87,0.89) rotate(4.29) scale(1.000)">
        <g transform="translate(-3.74,2.00) rotate(7.39) scale(0.980)">
        <g transform="translate(-1.70,2.94) rotate(8.86) scale(0.960)">
        <g transform="translate(0.77,3.61) rotate(8.36) scale(0.940)">
        <g transform="translate(3.04,3.96) rotate(5.74) scale(0.920)">
        <g transform="translate(4.57,3.95) rotate(0.94) scale(0.900)" mask="url(#maskDynamic)">
        <g transform="translate(4.98,3.60) rotate(-5.87) scale(0.880)">
        <circle cx="0" cy="0" r="32.3" fill="url(#rgrad2)" filter="url(#shadow)" opacity="0.15"/>
        <text x="0" y="5" text-anchor="middle" font-family="Arial, sans-serif" font-size="14" fill="#FFFFFF" opacity="0.15">672</text>
      </g>
      </g>
      </g>
      </g>
      </g>
      </g>
      </g>
  </g>
  <g transform="translate(128.0, 356.9)">
      <g transform="translate(-1.70,3.76) rotate(4.29) scale(1.000)">
        <g transform="translate(0.77,4.00) rotate(7.39) scale(0.980)">
        <g transform="translate(3.04,3.87) rotate(8.86) scale(0.960)">
        <g transform="translate(4.57,3.40) rotate(8.36) scale(0.940)">
        <g transform="translate(4.98,2.63) rotate(5.74) scale(0.920)">
        <g transform="translate(4.17,1.62) rotate(0.94) scale(0.900)">
        <g transform="translate(2.34,0.47) rotate(-5.87) scale(0.880)">
        <path d="M0.0,-50.5 L14.8,-20.4 L48.0,-15.6 L24.0,7.8 L29.7,40.9 L0.0,25.3 L-29.7,40.9 L-24.0,7.8 L-48.0,-15.6 L-14.8,-20.4Z" fill="url(#rgrad3)" filter="url(#blur3)" opacity="0.11"/>
      </g>
      </g>
      </g>
      </g>
      </g>
      </g>
      </g>
  </g>
  <g transform="translate(339.4, 368.6)">
      <g transform="translate(3.04,3.17) rotate(4.29) scale(1.000)">
        <g transform="translate(4.57,2.31) rotate(7.39) scale(0.980)">
        <g transform="translate(4.98,1.25) rotate(8.86) scale(0.960)">
        <g transform="translate(4.17,0.07) rotate(8.36) scale(0.940)" clip-path="url(#clipDynamic)">
        <g transform="translate(2.34,-1.12) rotate(5.74) scale(0.920)">
        <g transform="translate(-0.06,-2.20) rotate(0.94) scale(0.900)">
        <g transform="translate(-2.45,-3.09) rotate(-5.87) scale(0.880)">
        <rect x="-22.5" y="-22.5" width="45.1" height="45.1" rx="11.3" fill="url(#lgrad4)" filter="url(#shadow)" opacity="0.10"/>
        <circle cx="0" cy="0" r="15.0" fill="url(#rgrad0)" opacity="0.07"/>
      </g>
      </g>
      </g>
      </g>
      </g>
      </g>
      </g>
  </g>
  <g transform="translate(546.1, 385.6)">
      <g transform="translate(4.98,-0.33) rotate(4.29) scale(1.000)">
        <g transform="translate(4.17,-1.50) rotate(7.39) scale(0.980)">
        <g transform="translate(2.34,-2.52) rotate(8.86) scale(0.960)">
        <g transform="translate(-0.06,-3.33) rotate(8.36) scale(0.940)">
        <g transform="translate(-2.45,-3.84) rotate(5.74) scale(0.920)">
        <g transform="translate(-4.24,-4.00) rotate(0.94) scale(0.900)" mask="url(#maskStripes)">
        <g transform="translate(-4.99,-3.81) rotate(-5.87) scale(0.880)">
        <path d="M27.7,16.0 L0.0,32.0 L-27.7,16.0 L-27.7,-16.0 L-0.0,-32.0 L27.7,-16.0Z" fill="url(#rgrad0)" filter="url(#blur0)" opacity="0.13"/>
        <ellipse cx="0" cy="0" rx="13.3" ry="8.9" fill="#FFFFFF" opacity="0.07"/>
      </g>
      </g>
      </g>
      </g>
      </g>
      </g>
      </g>
  </g>
  <g transform="translate(751.3, 400.0)">
      <g transform="translate(2.34,-3.53) rotate(4.29) scale(1.000)">
        <g transform="translate(-0.06,-3.93) rotate(7.39) scale(0.980)">
        <g transform="translate(-2.45,-3.97) rotate(8.86) scale(0.960)">
        <g transform="translate(-4.24,-3.66) rotate(8.36) scale(0.940)">
        <g transform="translate(-4.99,-3.03) rotate(5.74) scale(0.920)">
        <g transform="translate(-4.52,-2.12) rotate(0.94) scale(0.900)">
        <g transform="translate(-2.94,-1.02) rotate(-5.87) scale(0.880)">
        <circle cx="0" cy="0" r="33.9" fill="url(#rgrad1)" filter="url(#shadow)" opacity="0.19"/>
        <text x="0" y="5" text-anchor="middle" font-family="Arial, sans-serif" font-size="14" fill="#FFFFFF" opacity="0.19">672</text>
      </g>
      </g>
      </g>
      </g>
      </g>
      </g>
      </g>
  </g>
  <g transform="translate(958.6, 405.0)">
      <g transform="translate(-2.45,-3.49) rotate(4.29) scale(1.000)">
        <g transform="translate(-4.24,-2.75) rotate(7.39) scale(0.980)">
        <g transform="translate(-4.99,-1.77) rotate(8.86) scale(0.960)">
        <g transform="translate(-4.52,-0.63) rotate(8.36) scale(0.940)" clip-path="url(#clipHex)">
        <g transform="translate(-2.94,0.56) rotate(5.74) scale(0.920)">
        <g transform="translate(-0.64,1.71) rotate(0.94) scale(0.900)">
        <g transform="translate(1.81,2.70) rotate(-5.87) scale(0.880)">
        <path d="M0.0,-75.0 L22.0,-30.3 L71.3,-23.2 L35.7,11.6 L44.1,60.7 L0.0,37.5 L-44.1,60.7 L-35.7,11.6 L-71.3,-23.2 L-22.0,-30.3Z" fill="url(#lgrad2)" filter="url(#blur2)" opacity="0.28"/>
      </g>
      </g>
      </g>
      </g>
      </g>
      </g>
      </g>
  </g>
  <g transform="translate(1171.1, 398.2)">
      <g transform="translate(-4.99,-0.23) rotate(4.29) scale(1.000)">
        <g transform="translate(-4.52,0.96) rotate(7.39) scale(0.980)">
        <g transform="translate(-2.94,2.06) rotate(8.86) scale(0.960)">
        <g transform="translate(-0.64,2.98) rotate(8.36) scale(0.940)">
        <g transform="translate(1.81,3.64) rotate(5.74) scale(0.920)">
        <g transform="translate(3.82,3.97) rotate(0.94) scale(0.900)" mask="url(#maskCircleFade)">
        <g transform="translate(4.90,3.94) rotate(-5.87) scale(0.880)">
        <rect x="-34.2" y="-34.2" width="68.4" height="68.4" rx="17.1" fill="url(#rgrad3)" filter="url(#shadow)" opacity="0.39"/>
        <circle cx="0" cy="0" r="22.8" fill="url(#rgrad4)" opacity="0.27"/>
      </g>
      </g>
      </g>
      </g>
      </g>
      </g>
      </g>
  </g>
  <g transform="translate(1390.8, 382.9)">
      <g transform="translate(-2.94,3.23) rotate(4.29) scale(1.000)">
        <g transform="translate(-0.64,3.79) rotate(7.39) scale(0.980)">
        <g transform="translate(1.81,4.00) rotate(8.86) scale(0.960)">
        <g transform="translate(3.82,3.85) rotate(8.36) scale(0.940)">
        <g transform="translate(4.90,3.37) rotate(5.74) scale(0.920)">
        <g transform="translate(4.78,2.58) rotate(0.94) scale(0.900)">
        <g transform="translate(3.48,1.56) rotate(-5.87) scale(0.880)">
        <path d="M28.1,16.2 L0.0,32.5 L-28.1,16.2 L-28.1,-16.2 L-0.0,-32.5 L28.1,-16.2Z" fill="url(#rgrad4)" filter="url(#blur4)" opacity="0.51"/>
        <ellipse cx="0" cy="0" rx="13.5" ry="9.0" fill="#FFFFFF" opacity="0.26"/>
      </g>
      </g>
      </g>
      </g>
      </g>
      </g>
      </g>
  </g>
  <g transform="translate(1617.5, 366.2)">
      <g transform="translate(1.81,3.73) rotate(4.29) scale(1.000)">
        <g transform="translate(3.82,3.13) rotate(7.39) scale(0.980)">
        <g transform="translate(4.90,2.26) rotate(8.86) scale(0.960)">
        <g transform="translate(4.78,1.18) rotate(8.36) scale(0.940)" clip-path="url(#clipCircle)">
        <g transform="translate(3.48,0.00) rotate(5.74) scale(0.920)">
        <g transform="translate(1.34,-1.18) rotate(0.94) scale(0.900)">
        <g transform="translate(-1.14,-2.26) rotate(-5.87) scale(0.880)">
        <circle cx="0" cy="0" r="22.6" fill="url(#lgrad0)" filter="url(#shadow)" opacity="0.63"/>
        <text x="0" y="5" text-anchor="middle" font-family="Arial, sans-serif" font-size="14" fill="#FFFFFF" opacity="0.63">672</text>
      </g>
      </g>
      </g>
      </g>
      </g>
      </g>
      </g>
  </g>
  <g transform="translate(89.8, 636.0)">
      <g transform="translate(4.90,0.80) rotate(4.29) scale(1.000)">
        <g transform="translate(4.78,-0.40) rotate(7.39) scale(0.980)">
        <g transform="translate(3.48,-1.56) rotate(8.86) scale(0.960)">
        <g transform="translate(1.34,-2.58) rotate(8.36) scale(0.940)">
        <g transform="translate(-1.14,-3.37) rotate(5.74) scale(0.920)">
        <g transform="translate(-3.33,-3.85) rotate(0.94) scale(0.900)" mask="url(#maskGradient)">
        <g transform="translate(-4.71,-4.00) rotate(-5.87) scale(0.880)">
        <path d="M0.0,-49.9 L14.7,-20.2 L47.5,-15.4 L23.7,7.7 L29.3,40.4 L0.0,24.9 L-29.3,40.4 L-23.7,7.7 L-47.5,-15.4 L-14.7,-20.2Z" fill="url(#rgrad1)" filter="url(#blur1)" opacity="0.73"/>
      </g>
      </g>
      </g>
      </g>
      </g>
      </g>
      </g>
  </g>
  <g transform="translate(324.6, 637.1)">
      <g transform="translate(3.48,-2.87) rotate(4.29) scale(1.000)">
        <g transform="translate(1.34,-3.56) rotate(7.39) scale(0.980)">
        <g transform="translate(-1.14,-3.94) rotate(8.86) scale(0.960)">
        <g transform="translate(-3.33,-3.97) rotate(8.36) scale(0.940)">
        <g transform="translate(-4.71,-3.64) rotate(5.74) scale(0.920)">
        <g transform="translate(-4.94,-2.98) rotate(0.94) scale(0.900)">
        <g transform="translate(-3.96,-2.06) rotate(-5.87) scale(0.880)">
        <rect x="-31.9" y="-31.9" width="63.9" height="63.9" rx="16.0" fill="url(#rgrad2)" filter="url(#shadow)" opacity="0.82"/>
        <circle cx="0" cy="0" r="21.3" fill="url(#rgrad3)" opacity="0.57"/>
      </g>
      </g>
      </g>
      </g>
      </g>
      </g>
      </g>
  </g>
  <g transform="translate(558.2, 648.9)">
      <g transform="translate(-1.14,-3.90) rotate(4.29) scale(1.000)">
        <g transform="translate(-3.33,-3.45) rotate(7.39) scale(0.980)">
        <g transform="translate(-4.71,-2.70) rotate(8.86) scale(0.960)">
        <g transform="translate(-4.94,-1.71) rotate(8.36) scale(0.940)" clip-path="url(#clipRect)">
        <g transform="translate(-3.96,-0.56) rotate(5.74) scale(0.920)">
        <g transform="translate(-2.00,0.63) rotate(0.94) scale(0.900)">
        <g transform="translate(0.44,1.77) rotate(-5.87) scale(0.880)">
        <path d="M38.6,22.3 L0.0,44.6 L-38.6,22.3 L-38.6,-22.3 L-0.0,-44.6 L38.6,-22.3Z" fill="url(#lgrad3)" filter="url(#blur3)" opacity="0.88"/>
        <ellipse cx="0" cy="0" rx="18.6" ry="12.4" fill="#FFFFFF" opacity="0.44"/>
      </g>
      </g>
      </g>
      </g>
      </g>
      </g>
      </g>
  </g>
  <g transform="translate(787.4, 666.0)">
      <g transform="translate(-4.71,-1.34) rotate(4.29) scale(1.000)">
        <g transform="translate(-4.94,-0.17) rotate(7.39) scale(0.980)">
        <g transform="translate(-3.96,1.02) rotate(8.86) scale(0.960)">
        <g transform="translate(-2.00,2.12) rotate(8.36) scale(0.940)">
        <g transform="translate(0.44,3.03) rotate(5.74) scale(0.920)">
        <g transform="translate(2.77,3.66) rotate(0.94) scale(0.900)" mask="url(#maskDynamic)">
        <g transform="translate(4.43,3.97) rotate(-5.87) scale(0.880)">
        <circle cx="0" cy="0" r="35.8" fill="url(#rgrad4)" filter="url(#shadow)" opacity="0.90"/>
        <text x="0" y="5" text-anchor="middle" font-family="Arial, sans-serif" font-size="14" fill="#FFFFFF" opacity="0.90">672</text>
      </g>
      </g>
      </g>
      </g>
      </g>
      </g>
      </g>
  </g>
  <g transform="translate(1009.9, 680.2)">
      <g transform="translate(-3.96,2.45) rotate(4.29) scale(1.000)">
        <g transform="translate(-2.00,3.27) rotate(7.39) scale(0.980)">
        <g transform="translate(0.44,3.81) rotate(8.86) scale(0.960)">
        <g transform="translate(2.77,4.00) rotate(8.36) scale(0.940)">
        <g transform="translate(4.43,3.84) rotate(5.74) scale(0.920)">
        <g transform="translate(5.00,3.33) rotate(0.94) scale(0.900)">
        <g transform="translate(4.35,2.53) rotate(-5.87) scale(0.880)">
        <path d="M0.0,-58.2 L17.1,-23.6 L55.4,-18.0 L27.7,9.0 L34.2,47.1 L0.0,29.1 L-34.2,47.1 L-27.7,9.0 L-55.4,-18.0 L-17.1,-23.6Z" fill="url(#rgrad0)" filter="url(#blur0)" opacity="0.89"/>
      </g>
      </g>
      </g>
      </g>
      </g>
      </g>
      </g>
  </g>
  <g transform="translate(1225.0, 684.9)">
      <g transform="translate(0.44,3.98) rotate(4.29) scale(1.000)">
        <g transform="translate(2.77,3.70) rotate(7.39) scale(0.980)">
        <g transform="translate(4.43,3.09) rotate(8.86) scale(0.960)">
        <g transform="translate(5.00,2.20) rotate(8.36) scale(0.940)" clip-path="url(#clipStar)">
        <g transform="translate(4.35,1.12) rotate(5.74) scale(0.920)">
        <g transform="translate(2.63,-0.07) rotate(0.94) scale(0.900)">
        <g transform="translate(0.27,-1.25) rotate(-5.87) scale(0.880)">
        <rect x="-23.3" y="-23.3" width="46.5" height="46.5" rx="11.6" fill="url(#lgrad1)" filter="url(#shadow)" opacity="0.84"/>
        <circle cx="0" cy="0" r="15.5" fill="url(#rgrad2)" opacity="0.59"/>
      </g>
      </g>
      </g>
      </g>
      </g>
      </g>
      </g>
  </g>
  <g transform="translate(1434.1, 677.9)">
      <g transform="translate(4.43,1.86) rotate(4.29) scale(1.000)">
        <g transform="translate(5.00,0.73) rotate(7.39) scale(0.980)">
        <g transform="translate(4.35,-0.47) rotate(8.86) scale(0.960)">
        <g transform="translate(2.63,-1.62) rotate(8.36) scale(0.940)">
        <g transform="translate(0.27,-2.63) rotate(5.74) scale(0.920)">
        <g transform="translate(-2.16,-3.40) rotate(0.94) scale(0.900)" mask="url(#maskStripes)">
        <g transform="translate(-4.06,-3.87) rotate(-5.87) scale(0.880)">
        <path d="M24.5,14.2 L0.0,28.3 L-24.5,14.2 L-24.5,-14.2 L-0.0,-28.3 L24.5,-14.2Z" fill="url(#rgrad2)" filter="url(#blur2)" opacity="0.76"/>
        <ellipse cx="0" cy="0" rx="11.8" ry="7.9" fill="#FFFFFF" opacity="0.38"/>
      </g>
      </g>
      </g>
      </g>
      </g>
      </g>
      </g>
  </g>
  <g transform="translate(1639.6, 662.5)">
      <g transform="translate(4.35,-1.98) rotate(4.29) scale(1.000)">
        <g transform="translate(2.63,-2.92) rotate(7.39) scale(0.980)">
        <g transform="translate(0.27,-3.59) rotate(8.86) scale(0.960)">
        <g transform="translate(-2.16,-3.95) rotate(8.36) scale(0.940)">
        <g transform="translate(-4.06,-3.96) rotate(5.74) scale(0.920)">
        <g transform="translate(-4.96,-3.61) rotate(0.94) scale(0.900)">
        <g transform="translate(-4.65,-2.94) rotate(-5.87) scale(0.880)">
        <circle cx="0" cy="0" r="29.8" fill="url(#rgrad3)" filter="url(#shadow)" opacity="0.66"/>
        <text x="0" y="5" text-anchor="middle" font-family="Arial, sans-serif" font-size="14" fill="#FFFFFF" opacity="0.66">672</text>
      </g>
      </g>
      </g>
      </g>
      </g>
      </g>
      </g>
  </g>
  <g transform="translate(85.3, 925.9)">
      <g transform="translate(0.27,-3.99) rotate(4.29) scale(1.000)">
        <g transform="translate(-2.16,-3.88) rotate(7.39) scale(0.980)">
        <g transform="translate(-4.06,-3.42) rotate(8.86) scale(0.960)">
        <g transform="translate(-4.96,-2.65) rotate(8.36) scale(0.940)" clip-path="url(#clipDynamic)">
        <g transform="translate(-4.65,-1.65) rotate(5.74) scale(0.920)">
        <g transform="translate(-3.20,-0.50) rotate(0.94) scale(0.900)">
        <g transform="translate(-0.97,0.70) rotate(-5.87) scale(0.880)">
        <path d="M0.0,-72.4 L21.3,-29.3 L68.9,-22.4 L34.4,11.2 L42.6,58.6 L0.0,36.2 L-42.6,58.6 L-34.4,11.2 L-68.9,-22.4 L-21.3,-29.3Z" fill="url(#lgrad4)" filter="url(#blur4)" opacity="0.55"/>
      </g>
      </g>
      </g>
      </g>
      </g>
      </g>
      </g>
  </g>
  <g transform="translate(211.9, 262.2)" mask="url(#maskGradient)">
    <ellipse cx="0" cy="0" rx="200" ry="150" fill="url(#rgrad0)" filter="url(#blur3)" opacity="0.3"/>
  </g>
  <g transform="translate(712.6, 316.5)" mask="url(#maskCircleFade)">
    <ellipse cx="0" cy="0" rx="200" ry="150" fill="url(#rgrad1)" filter="url(#blur3)" opacity="0.3"/>
  </g>
  <g transform="translate(1293.7, 363.1)" mask="url(#maskStripes)">
    <ellipse cx="0" cy="0" rx="200" ry="150" fill="url(#rgrad2)" filter="url(#blur3)" opacity="0.3"/>
  </g>
</svg>