<?xml version="1.0" encoding="UTF-8"?>
<svg xmlns="http://www.w3.org/2000/svg" viewBox="0 0 1920 1080" width="1920" height="1080">
  <defs>
    <filter id="blur0" x="-50%" y="-50%" width="200%" height="200%">
      <feGaussianBlur in="SourceGraphic" stdDeviation="1"/>
    </filter>
    <filter id="blur1" x="-50%" y="-50%" width="200%" height="200%">
      <feGaussianBlur in="SourceGraphic" stdDeviation="3"/>
    </filter>
    <filter id="blur2" x="-50%" y="-50%" width="200%" height="200%">
      <feGaussianBlur in="SourceGraphic" stdDeviation="5"/>
    </filter>
    <filter id="blur3" x="-50%" y="-50%" width="200%" height="200%">
      <feGaussianBlur in="SourceGraphic" stdDeviation="7"/>
    </filter>
    <filter id="blur4" x="-50%" y="-50%" width="200%" height="200%">
      <feGaussianBlur in="SourceGraphic" stdDeviation="9"/>
    </filter>
    <filter id="shadow" x="-50%" y="-50%" width="200%" height="200%">
      <feGaussianBlur in="SourceAlpha" stdDeviation="3" result="blur"/>
      <feOffset in="blur" dx="4" dy="4" result="offsetBlur"/>
      <feMerge>
        <feMergeNode in="offsetBlur"/>
        <feMergeNode in="SourceGraphic"/>
      </feMerge>
    </filter>
    <linearGradient id="lgrad0" x1="0%" y1="0%" x2="92.6%" y2="76.1%">
      <stop offset="0%" stop-color="#FF6B6B"/>
      <stop offset="33%" stop-color="#4ECDC4"/>
      <stop offset="66%" stop-color="#45B7D1"/>
      <stop offset="100%" stop-color="#96E6A1"/>
    </linearGradient>
    <linearGradient id="lgrad1" x1="0%" y1="0%" x2="73.9%" y2="93.9%">
      <stop offset="0%" stop-color="#FFE66D"/>
      <stop offset="33%" stop-color="#FF6B6B"/>
      <stop offset="66%" stop-color="#C44D58"/>
      <stop offset="100%" stop-color="#8B0000"/>
    </linearGradient>
    <linearGradient id="lgrad2" x1="0%" y1="0%" x2="48.7%" y2="100.0%">
      <stop offset="0%" stop-color="#4169E1"/>
      <stop offset="33%" stop-color="#7B68EE"/>
      <stop offset="66%" stop-color="#9370DB"/>
      <stop offset="100%" stop-color="#FFD700"/>
    </linearGradient>
    <linearGradient id="lgrad3" x1="0%" y1="0%" x2="23.9%" y2="92.6%">
      <stop offset="0%" stop-color="#32CD32"/>
      <stop offset="33%" stop-color="#228B22"/>
      <stop offset="66%" stop-color="#006400"/>
      <stop offset="100%" stop-color="#ADFF2F"/>
    </linearGradient>
    <linearGradient id="lgrad4" x1="0%" y1="0%" x2="6.1%" y2="73.9%">
      <stop offset="0%" stop-color="#FF1493"/>
      <stop offset="33%" stop-color="#FF69B4"/>
      <stop offset="66%" stop-color="#FFB6C1"/>
      <stop offset="100%" stop-color="#FFC0CB"/>
    </linearGradient>
    <radialGradient id="rgrad0" cx="37.9%" cy="48.6%" r="60%">
      <stop offset="0%" stop-color="#FF6B6B" stop-opacity="1"/>
      <stop offset="50%" stop-color="#4ECDC4" stop-opacity="0.8"/>
      <stop offset="100%" stop-color="#45B7D1" stop-opacity="0.6"/>
    </radialGradient>
    <radialGradient id="rgrad1" cx="47.9%" cy="56.6%" r="60%">
      <stop offset="0%" stop-color="#FFE66D" stop-opacity="1"/>
      <stop offset="50%" stop-color="#FF6B6B" stop-opacity="0.8"/>
      <stop offset="100%" stop-color="#C44D58" stop-opacity="0.6"/>
    </radialGradient>
    <radialGradient id="rgrad2" cx="57.9%" cy="64.6%" r="60%">
      <stop offset="0%" stop-color="#4169E1" stop-opacity="1"/>
      <stop offset="50%" stop-color="#7B68EE" stop-opacity="0.8"/>
      <stop offset="100%" stop-color="#9370DB" stop-opacity="0.6"/>
    </radialGradient>
    <radialGradient id="rgrad3" cx="67.9%" cy="32.6%" r="60%">
      <stop offset="0%" stop-color="#32CD32" stop-opacity="1"/>
      <stop offset="50%" stop-color="#228B22" stop-opacity="0.8"/>
      <stop offset="100%" stop-color="#006400" stop-opacity="0.6"/>
    </radialGradient>
    <radialGradient id="rgrad4" cx="37.9%" cy="40.6%" r="60%">
      <stop offset="0%" stop-color="#FF1493" stop-opacity="1"/>
      <stop offset="50%" stop-color="#FF69B4" stop-opacity="0.8"/>
      <stop offset="100%" stop-color="#FFB6C1" stop-opacity="0.6"/>
    </radialGradient>
    <clipPath id="clipCircle">
      <circle cx="0" cy="0" r="50"/>
    </clipPath>
    <clipPath id="clipStar">
      <path d="M0.0,-50.0 L14.7,-20.2 L47.6,-15.5 L23.8,7.7 L29.4,40.5 L0.0,25.0 L-29.4,40.5 L-23.8,7.7 L-47.6,-15.5 L-14.7,-20.2Z"/>
    </clipPath>
    <clipPath id="clipHex">
      <path d="M39.0,22.5 L0.0,45.0 L-39.0,22.5 L-39.0,-22.5 L-0.0,-45.0 L39.0,-22.5Z"/>
    </clipPath>
    <clipPath id="clipRect">
      <rect x="-40" y="-30" width="80" height="60" rx="10"/>
    </clipPath>
    <clipPath id="clipDynamic">
      <circle cx="0" cy="0" r="21.0"/>
    </clipPath>
    <mask id="maskGradient" maskContentUnits="objectBoundingBox">
      <rect x="0" y="0" width="1" height="1" fill="url(#maskGrad)"/>
    </mask>
    <linearGradient id="maskGrad" x1="0%" y1="0%" x2="100%" y2="100%">
      <stop offset="0%" stop-color="white"/>
      <stop offset="100%" stop-color="black"/>
    </linearGradient>
    <mask id="maskCircleFade">
      <circle cx="0" cy="0" r="60" fill="white"/>
      <circle cx="0" cy="0" r="30" fill="black"/>
    </mask>
    <mask id="maskStripes">
      <rect x="-50" y="-50" width="100" height="100" fill="white"/>
      <rect x="-50" y="-40" width="100" height="10" fill="black"/>
      <rect x="-50" y="-20" width="100" height="10" fill="black"/>
      <rect x="-50" y="0" width="100" height="10" fill="black"/>
      <rect x="-50" y="20" width="100" height="10" fill="black"/>
      <rect x="-50" y="40" width="100" height="10" fill="black"/>
    </mask>
    <mask id="maskDynamic">
      <rect x="-60" y="-60" width="120" height="120" fill="white" fill-opacity="0.88"/>
      <circle cx="0" cy="0" r="25" fill="white"/>
    </mask>
  </defs>
  <rect width="1920" height="1080" fill="url(#lgrad0)"/>
  <g transform="translate(71.9, 91.2)">
      <g transform="translate(-4.68,-1.41) rotate(4.11) scale(1.000)">
        <g transform="translate(-4.95,-0.24) rotate(6.93) scale(0.980)">
        <g transform="translate(-4.01,0.95) rotate(8.04) scale(0.960)">
        <g transform="translate(-2.09,2.06) rotate(7.15) scale(0.940)" clip-path="url(#clipCircle)">
        <g transform="translate(0.35,2.98) rotate(4.12) scale(0.920)">
        <g transform="translate(2.69,3.63) rotate(-1.04) scale(0.900)">
        <g transform="translate(4.38,3.97) rotate(-8.13) scale(0.880)">
        <path d="M0.0,-72.3 L21.3,-29.3 L68.8,-22.4 L34.4,11.2 L42.5,58.5 L0.0,36.2 L-42.5,58.5 L-34.4,11.2 L-68.8,-22.4 L-21.3,-29.3Z" fill="url(#lgrad0)" filter="url(#blur0)" opacity="0.83"/>
      </g>
      </g>
      </g>
      </g>
      </g>
      </g>
      </g>
  </g>
  <g transform="translate(290.3, 108.3)">
      <g transform="translate(-4.01,2.39) rotate(4.11) scale(1.000)">
        <g transform="translate(-2.09,3.23) rotate(6.93) scale(0.980)">
        <g transform="translate(0.35,3.78) rotate(8.04) scale(0.960)">
        <g transform="translate(2.69,4.00) rotate(7.15) scale(0.940)">
        <g transform="translate(4.38,3.86) rotate(4.12) scale(0.920)">
        <g transform="translate(5.00,3.37) rotate(-1.04) scale(0.900)" mask="url(#maskCircleFade)">
        <g transform="translate(4.39,2.58) rotate(-8.13) scale(0.880)">
        <rect x="-29.7" y="-29.7" width="59.5" height="59.5" rx="14.9" fill="url(#rgrad1)" filter="url(#shadow)" opacity="0.75"/>
        <circle cx="0" cy="0" r="19.8" fill="url(#rgrad2)" opacity="0.52"/>
      </g>
      </g>
      </g>
      </g>
      </g>
      </g>
      </g>
  </g>
  <g transform="translate(515.9, 121.6)">
      <g transform="translate(0.35,3.99) rotate(4.11) scale(1.000)">
        <g transform="translate(2.69,3.73) rotate(6.93) scale(0.980)">
        <g transform="translate(4.38,3.14) rotate(8.04) scale(0.960)">
        <g transform="translate(5.00,2.26) rotate(7.15) scale(0.940)">
        <g transform="translate(4.39,1.19) rotate(4.12) scale(0.920)">
        <g transform="translate(2.71,0.01) rotate(-1.04) scale(0.900)">
        <g transform="translate(0.36,-1.18) rotate(-8.13) scale(0.880)">
        <path d="M24.5,14.1 L0.0,28.3 L-24.5,14.1 L-24.5,-14.1 L-0.0,-28.3 L24.5,-14.1Z" fill="url(#rgrad2)" filter="url(#blur2)" opacity="0.64"/>
        <ellipse cx="0" cy="0" rx="11.8" ry="7.9" fill="#FFFFFF" opacity="0.32"/>
      </g>
      </g>
      </g>
      </g>
      </g>
      </g>
      </g>
  </g>
  <g transform="translate(747.5, 124.6)">
      <g transform="translate(4.38,1.92) rotate(4.11) scale(1.000)">
        <g transform="translate(5.00,0.80) rotate(6.93) scale(0.980)">
        <g transform="translate(4.39,-0.39) rotate(8.04) scale(0.960)">
        <g transform="translate(2.71,-1.55) rotate(7.15) scale(0.940)" clip-path="url(#clipRect)">
        <g transform="translate(0.36,-2.57) rotate(4.12) scale(0.920)">
        <g transform="translate(-2.07,-3.36) rotate(-1.04) scale(0.900)">
        <g transform="translate(-4.00,-3.85) rotate(-8.13) scale(0.880)">
        <circle cx="0" cy="0" r="23.3" fill="url(#lgrad3)" filter="url(#shadow)" opacity="0.53"/>
        <text x="0" y="5" text-anchor="middle" font-family="Arial, sans-serif" font-size="14" fill="#FFFFFF" opacity="0.53">693</text>
      </g>
      </g>
      </g>
      </g>
      </g>
      </g>
      </g>
  </g>
  <g transform="translate(982.1, 116.1)">
      <g transform="translate(4.39,-1.91) rotate(4.11) scale(1.000)">
        <g transform="translate(2.71,-2.86) rotate(6.93) scale(0.980)">
        <g transform="translate(0.36,-3.56) rotate(8.04) scale(0.960)">
        <g transform="translate(-2.07,-3.94) rotate(7.15) scale(0.940)">
        <g transform="translate(-4.00,-3.97) rotate(4.12) scale(0.920)">
        <g transform="translate(-4.95,-3.64) rotate(-1.04) scale(0.900)" mask="url(#maskGradient)">
        <g transform="translate(-4.69,-2.99) rotate(-8.13) scale(0.880)">
        <path d="M0.0,-58.4 L17.2,-23.6 L55.5,-18.0 L27.8,9.0 L34.3,47.2 L0.0,29.2 L-34.3,47.2 L-27.8,9.0 L-55.5,-18.0 L-17.2,-23.6Z" fill="url(#rgrad4)" filter="url(#blur4)" opacity="0.41"/>
      </g>
      </g>
      </g>
      </g>
      </g>
      </g>
      </g>
  </g>
  <g transform="translate(1216.2, 100.0)">
      <g transform="translate(0.36,-3.99) rotate(4.11) scale(1.000)">
        <g transform="translate(-2.07,-3.90) rotate(6.93) scale(0.980)">
        <g transform="translate(-4.00,-3.46) rotate(8.04) scale(0.960)">
        <g transform="translate(-4.95,-2.71) rotate(7.15) scale(0.940)">
        <g transform="translate(-4.69,-1.72) rotate(4.12) scale(0.920)">
        <g transform="translate(-3.27,-0.57) rotate(-1.04) scale(0.900)">
        <g transform="translate(-1.06,0.62) rotate(-8.13) scale(0.880)">
        <rect x="-35.8" y="-35.8" width="71.7" height="71.7" rx="17.9" fill="url(#rgrad0)" filter="url(#shadow)" opacity="0.30"/>
        <circle cx="0" cy="0" r="23.9" fill="url(#rgrad1)" opacity="0.21"/>
      </g>
      </g>
      </g>
      </g>
      </g>
      </g>
      </g>
  </g>
  <g transform="translate(1446.3, 83.9)">
      <g transform="translate(-4.00,-2.40) rotate(4.11) scale(1.000)">
        <g transform="translate(-4.95,-1.35) rotate(6.93) scale(0.980)">
        <g transform="translate(-4.69,-0.17) rotate(8.04) scale(0.960)">
        <g transform="translate(-3.27,1.02) rotate(7.15) scale(0.940)" clip-path="url(#clipStar)">
        <g transform="translate(-1.06,2.11) rotate(4.12) scale(0.920)">
        <g transform="translate(1.41,3.02) rotate(-1.04) scale(0.900)">
        <g transform="translate(3.54,3.66) rotate(-8.13) scale(0.880)">
        <path d="M38.6,22.3 L0.0,44.5 L-38.6,22.3 L-38.6,-22.3 L-0.0,-44.5 L38.6,-22.3Z" fill="url(#lgrad1)" filter="url(#blur1)" opacity="0.20"/>
        <ellipse cx="0" cy="0" rx="18.6" ry="12.4" fill="#FFFFFF" opacity="0.10"/>
      </g>
      </g>
      </g>
      </g>
      </g>
      </g>
      </g>
  </g>
  <g transform="translate(1670.0, 75.4)">
      <g transform="translate(-4.69,1.40) rotate(4.11) scale(1.000)">
        <g transform="translate(-3.27,2.44) rotate(6.93) scale(0.980)">
        <g transform="translate(-1.06,3.27) rotate(8.04) scale(0.960)">
        <g transform="translate(1.41,3.80) rotate(7.15) scale(0.940)">
        <g transform="translate(3.54,4.00) rotate(4.12) scale(0.920)">
        <g transform="translate(4.80,3.84) rotate(-1.04) scale(0.900)" mask="url(#maskDynamic)">
        <g transform="translate(4.88,3.33) rotate(-8.13) scale(0.880)">
        <circle cx="0" cy="0" r="31.8" fill="url(#rgrad2)" filter="url(#shadow)" opacity="0.14"/>
        <text x="0" y="5" text-anchor="middle" font-family="Arial, sans-serif" font-size="14" fill="#FFFFFF" opacity="0.14">693</text>
      </g>
      </g>
      </g>
      </g>
      </g>
      </g>
      </g>
  </g>
  <g transform="translate(126.4, 358.4)">
      <g transform="translate(-1.06,3.91) rotate(4.11) scale(1.000)">
        <g transform="translate(1.41,3.99) rotate(6.93) scale(0.980)">
        <g transform="translate(3.54,3.71) rotate(8.04) scale(0.960)">
        <g transform="translate(4.80,3.10) rotate(7.15) scale(0.940)">
        <g transform="translate(4.88,2.21) rotate(4.12) scale(0.920)">
        <g transform="translate(3.77,1.12) rotate(-1.04) scale(0.900)">
        <g transform="translate(1.74,-0.06) rotate(-8.13) scale(0.880)">
        <path d="M0.0,-49.8 L14.6,-20.1 L47.3,-15.4 L23.7,7.7 L29.2,40.3 L0.0,24.9 L-29.2,40.3 L-23.7,7.7 L-47.3,-15.4 L-14.6,-20.1Z" fill="url(#rgrad3)" filter="url(#blur3)" opacity="0.10"/>
      </g>
      </g>
      </g>
      </g>
      </g>
      </g>
      </g>
  </g>
  <g transform="translate(336.3, 371.6)">
      <g transform="translate(3.54,2.83) rotate(4.11) scale(1.000)">
        <g transform="translate(4.80,1.86) rotate(6.93) scale(0.980)">
        <g transform="translate(4.88,0.74) rotate(8.04) scale(0.960)">
        <g transform="translate(3.77,-0.46) rotate(7.15) scale(0.940)" clip-path="url(#clipDynamic)">
        <g transform="translate(1.74,-1.61) rotate(4.12) scale(0.920)">
        <g transform="translate(-0.72,-2.62) rotate(-1.04) scale(0.900)">
        <g transform="translate(-3.00,-3.40) rotate(-8.13) scale(0.880)">
        <rect x="-22.6" y="-22.6" width="45.2" height="45.2" rx="11.3" fill="url(#lgrad4)" filter="url(#shadow)" opacity="0.11"/>
        <circle cx="0" cy="0" r="15.1" fill="url(#rgrad0)" opacity="0.07"/>
      </g>
      </g>
      </g>
      </g>
      </g>
      </g>
      </g>
  </g>
  <g transform="translate(542.2, 388.7)">
      <g transform="translate(4.88,-0.85) rotate(4.11) scale(1.000)">
        <g transform="translate(3.77,-1.97) rotate(6.93) scale(0.980)">
        <g transform="translate(1.74,-2.91) rotate(8.04) scale(0.960)">
        <g transform="translate(-0.72,-3.59) rotate(7.15) scale(0.940)">
        <g transform="translate(-3.00,-3.95) rotate(4.12) scale(0.920)">
        <g transform="translate(-4.55,-3.96) rotate(-1.04) scale(0.900)" mask="url(#maskStripes)">
        <g transform="translate(-4.99,-3.61) rotate(-8.13) scale(0.880)">
        <path d="M28.2,16.3 L0.0,32.6 L-28.2,16.3 L-28.2,-16.3 L-0.0,-32.6 L28.2,-16.3Z" fill="url(#rgrad0)" filter="url(#blur0)" opacity="0.14"/>
        <ellipse cx="0" cy="0" rx="13.6" ry="9.0" fill="#FFFFFF" opacity="0.07"/>
      </g>
      </g>
      </g>
      </g>
      </g>
      </g>
      </g>
  </g>
  <g transform="translate(747.6, 401.8)">
      <g transform="translate(1.74,-3.75) rotate(4.11) scale(1.000)">
        <g transform="translate(-0.72,-3.99) rotate(6.93) scale(0.980)">
        <g transform="translate(-3.00,-3.88) rotate(8.04) scale(0.960)">
        <g transform="translate(-4.55,-3.42) rotate(7.15) scale(0.940)">
        <g transform="translate(-4.99,-2.66) rotate(4.12) scale(0.920)">
        <g transform="translate(-4.20,-1.65) rotate(-1.04) scale(0.900)">
        <g transform="translate(-2.39,-0.50) rotate(-8.13) scale(0.880)">
        <circle cx="0" cy="0" r="34.3" fill="url(#rgrad1)" filter="url(#shadow)" opacity="0.21"/>
        <text x="0" y="5" text-anchor="middle" font-family="Arial, sans-serif" font-size="14" fill="#FFFFFF" opacity="0.21">693</text>
      </g>
      </g>
      </g>
      </g>
      </g>
      </g>
      </g>
  </g>
  <g transform="translate(956.0, 404.6)">
      <g transform="translate(-3.00,-3.20) rotate(4.11) scale(1.000)">
        <g transform="translate(-4.55,-2.35) rotate(6.93) scale(0.980)">
        <g transform="translate(-4.99,-1.28) rotate(8.04) scale(0.960)">
        <g transform="translate(-4.20,-0.11) rotate(7.15) scale(0.940)" clip-path="url(#clipHex)">
        <g transform="translate(-2.39,1.08) rotate(4.12) scale(0.920)">
        <g transform="translate(0.01,2.17) rotate(-1.04) scale(0.900)">
        <g transform="translate(2.41,3.07) rotate(-8.13) scale(0.880)">
        <path d="M0.0,-75.0 L22.0,-30.3 L71.3,-23.2 L35.7,11.6 L44.1,60.7 L0.0,37.5 L-44.1,60.7 L-35.7,11.6 L-71.3,-23.2 L-22.0,-30.3Z" fill="url(#lgrad2)" filter="url(#blur2)" opacity="0.31"/>
      </g>
      </g>
      </g>
      </g>
      </g>
      </g>
      </g>
  </g>
  <g transform="translate(1170.3, 395.8)">
      <g transform="translate(-4.99,0.29) rotate(4.11) scale(1.000)">
        <g transform="translate(-4.20,1.46) rotate(6.93) scale(0.980)">
        <g transform="translate(-2.39,2.50) rotate(8.04) scale(0.960)">
        <g transform="translate(0.01,3.31) rotate(7.15) scale(0.940)">
        <g transform="translate(2.41,3.82) rotate(4.12) scale(0.920)">
        <g transform="translate(4.21,4.00) rotate(-1.04) scale(0.900)" mask="url(#maskCircleFade)">
        <g transform="translate(4.99,3.82) rotate(-8.13) scale(0.880)">
        <rect x="-33.8" y="-33.8" width="67.6" height="67.6" rx="16.9" fill="url(#rgrad3)" filter="url(#shadow)" opacity="0.42"/>
        <circle cx="0" cy="0" r="22.5" fill="url(#rgrad4)" opacity="0.29"/>
      </g>
      </g>
      </g>
      </g>
      </g>
      </g>
      </g>
  </g>
  <g transform="translate(1391.9, 379.6)">
      <g transform="translate(-2.39,3.52) rotate(4.11) scale(1.000)">
        <g transform="translate(0.01,3.92) rotate(6.93) scale(0.980)">
        <g transform="translate(2.41,3.98) rotate(8.04) scale(0.960)">
        <g transform="translate(4.21,3.68) rotate(7.15) scale(0.940)">
        <g transform="translate(4.99,3.05) rotate(4.12) scale(0.920)">
        <g transform="translate(4.54,2.15) rotate(-1.04) scale(0.900)">
        <g transform="translate(2.98,1.06) rotate(-8.13) scale(0.880)">
        <path d="M27.7,16.0 L0.0,31.9 L-27.7,16.0 L-27.7,-16.0 L-0.0,-31.9 L27.7,-16.0Z" fill="url(#rgrad4)" filter="url(#blur4)" opacity="0.54"/>
        <ellipse cx="0" cy="0" rx="13.3" ry="8.9" fill="#FFFFFF" opacity="0.27"/>
      </g>
      </g>
      </g>
      </g>
      </g>
      </g>
      </g>
  </g>
  <g transform="translate(1620.4, 363.6)">
      <g transform="translate(2.41,3.51) rotate(4.11) scale(1.000)">
        <g transform="translate(4.21,2.78) rotate(6.93) scale(0.980)">
        <g transform="translate(4.99,1.80) rotate(8.04) scale(0.960)">
        <g transform="translate(4.54,0.67) rotate(7.15) scale(0.940)" clip-path="url(#clipCircle)">
        <g transform="translate(2.98,-0.53) rotate(4.12) scale(0.920)">
        <g transform="translate(0.69,-1.67) rotate(-1.04) scale(0.900)">
        <g transform="translate(-1.77,-2.67) rotate(-8.13) scale(0.880)">
        <circle cx="0" cy="0" r="22.5" fill="url(#lgrad0)" filter="url(#shadow)" opacity="0.65"/>
        <text x="0" y="5" text-anchor="middle" font-family="Arial, sans-serif" font-size="14" fill="#FFFFFF" opacity="0.65">693</text>
      </g>
      </g>
      </g>
      </g>
      </g>
      </g>
      </g>
  </g>
  <g transform="translate(93.6, 635.3)">
      <g transform="translate(4.99,0.27) rotate(4.11) scale(1.000)">
        <g transform="translate(4.54,-0.92) rotate(6.93) scale(0.980)">
        <g transform="translate(2.98,-2.03) rotate(8.04) scale(0.960)">
        <g transform="translate(0.69,-2.96) rotate(7.15) scale(0.940)">
        <g transform="translate(-1.77,-3.62) rotate(4.12) scale(0.920)">
        <g transform="translate(-3.79,-3.96) rotate(-1.04) scale(0.900)" mask="url(#maskGradient)">
        <g transform="translate(-4.89,-3.95) rotate(-8.13) scale(0.880)">
        <path d="M0.0,-50.6 L14.9,-20.5 L48.2,-15.7 L24.1,7.8 L29.8,41.0 L0.0,25.3 L-29.8,41.0 L-24.1,7.8 L-48.2,-15.7 L-14.9,-20.5Z" fill="url(#rgrad1)" filter="url(#blur1)" opacity="0.76"/>
      </g>
      </g>
      </g>
      </g>
      </g>
      </g>
      </g>
  </g>
  <g transform="translate(328.5, 638.6)">
      <g transform="translate(2.98,-3.21) rotate(4.11) scale(1.000)">
        <g transform="translate(0.69,-3.77) rotate(6.93) scale(0.980)">
        <g transform="translate(-1.77,-4.00) rotate(8.04) scale(0.960)">
        <g transform="translate(-3.79,-3.86) rotate(7.15) scale(0.940)">
        <g transform="translate(-4.89,-3.39) rotate(4.12) scale(0.920)">
        <g transform="translate(-4.79,-2.61) rotate(-1.04) scale(0.900)">
        <g transform="translate(-3.52,-1.59) rotate(-8.13) scale(0.880)">
        <rect x="-32.4" y="-32.4" width="64.8" height="64.8" rx="16.2" fill="url(#rgrad2)" filter="url(#shadow)" opacity="0.84"/>
        <circle cx="0" cy="0" r="21.6" fill="url(#rgrad3)" opacity="0.58"/>
      </g>
      </g>
      </g>
      </g>
      </g>
      </g>
      </g>
  </g>
  <g transform="translate(561.2, 652.0)">
      <g transform="translate(-1.77,-3.74) rotate(4.11) scale(1.000)">
        <g transform="translate(-3.79,-3.16) rotate(6.93) scale(0.980)">
        <g transform="translate(-4.89,-2.29) rotate(8.04) scale(0.960)">
        <g transform="translate(-4.79,-1.22) rotate(7.15) scale(0.940)" clip-path="url(#clipRect)">
        <g transform="translate(-3.52,-0.04) rotate(4.12) scale(0.920)">
        <g transform="translate(-1.38,1.15) rotate(-1.04) scale(0.900)">
        <g transform="translate(1.09,2.23) rotate(-8.13) scale(0.880)">
        <path d="M38.7,22.4 L0.0,44.7 L-38.7,22.4 L-38.7,-22.4 L-0.0,-44.7 L38.7,-22.4Z" fill="url(#lgrad3)" filter="url(#blur3)" opacity="0.88"/>
        <ellipse cx="0" cy="0" rx="18.6" ry="12.4" fill="#FFFFFF" opacity="0.44"/>
      </g>
      </g>
      </g>
      </g>
      </g>
      </g>
      </g>
  </g>
  <g transform="translate(788.8, 669.1)">
      <g transform="translate(-4.89,-0.83) rotate(4.11) scale(1.000)">
        <g transform="translate(-4.79,0.36) rotate(6.93) scale(0.980)">
        <g transform="translate(-3.52,1.52) rotate(8.04) scale(0.960)">
        <g transform="translate(-1.38,2.55) rotate(7.15) scale(0.940)">
        <g transform="translate(1.09,3.34) rotate(4.12) scale(0.920)">
        <g transform="translate(3.30,3.84) rotate(-1.04) scale(0.900)" mask="url(#maskDynamic)">
        <g transform="translate(4.69,4.00) rotate(-8.13) scale(0.880)">
        <circle cx="0" cy="0" r="35.5" fill="url(#rgrad4)" filter="url(#shadow)" opacity="0.90"/>
        <text x="0" y="5" text-anchor="middle" font-family="Arial, sans-serif" font-size="14" fill="#FFFFFF" opacity="0.90">693</text>
      </g>
      </g>
      </g>
      </g>
      </g>
      </g>
      </g>
  </g>
  <g transform="translate(1009.3, 682.0)">
      <g transform="translate(-3.52,2.84) rotate(4.11) scale(1.000)">
        <g transform="translate(-1.38,3.55) rotate(6.93) scale(0.980)">
        <g transform="translate(1.09,3.94) rotate(8.04) scale(0.960)">
        <g transform="translate(3.30,3.97) rotate(7.15) scale(0.940)">
        <g transform="translate(4.69,3.65) rotate(4.12) scale(0.920)">
        <g transform="translate(4.94,3.01) rotate(-1.04) scale(0.900)">
        <g transform="translate(3.98,2.09) rotate(-8.13) scale(0.880)">
        <path d="M0.0,-57.2 L16.8,-23.2 L54.4,-17.7 L27.2,8.8 L33.6,46.3 L0.0,28.6 L-33.6,46.3 L-27.2,8.8 L-54.4,-17.7 L-16.8,-23.2Z" fill="url(#rgrad0)" filter="url(#blur0)" opacity="0.88"/>
      </g>
      </g>
      </g>
      </g>
      </g>
      </g>
      </g>
  </g>
  <g transform="translate(1222.6, 684.5)">
      <g transform="translate(1.09,3.90) rotate(4.11) scale(1.000)">
        <g transform="translate(3.30,3.47) rotate(6.93) scale(0.980)">
        <g transform="translate(4.69,2.73) rotate(8.04) scale(0.960)">
        <g transform="translate(4.94,1.74) rotate(7.15) scale(0.940)" clip-path="url(#clipStar)">
        <g transform="translate(3.98,0.60) rotate(4.12) scale(0.920)">
        <g transform="translate(2.05,-0.59) rotate(-1.04) scale(0.900)">
        <g transform="translate(-0.39,-1.74) rotate(-8.13) scale(0.880)">
        <rect x="-23.1" y="-23.1" width="46.1" height="46.1" rx="11.5" fill="url(#lgrad1)" filter="url(#shadow)" opacity="0.83"/>
        <circle cx="0" cy="0" r="15.4" fill="url(#rgrad2)" opacity="0.58"/>
      </g>
      </g>
      </g>
      </g>
      </g>
      </g>
      </g>
  </g>
  <g transform="translate(1430.4, 675.5)">
      <g transform="translate(4.69,1.38) rotate(4.11) scale(1.000)">
        <g transform="translate(4.94,0.20) rotate(6.93) scale(0.980)">
        <g transform="translate(3.98,-0.98) rotate(8.04) scale(0.960)">
        <g transform="translate(2.05,-2.09) rotate(7.15) scale(0.940)">
        <g transform="translate(-0.39,-3.00) rotate(4.12) scale(0.920)">
        <g transform="translate(-2.73,-3.65) rotate(-1.04) scale(0.900)" mask="url(#maskStripes)">
        <g transform="translate(-4.41,-3.97) rotate(-8.13) scale(0.880)">
        <path d="M24.8,14.3 L0.0,28.6 L-24.8,14.3 L-24.8,-14.3 L-0.0,-28.6 L24.8,-14.3Z" fill="url(#rgrad2)" filter="url(#blur2)" opacity="0.74"/>
        <ellipse cx="0" cy="0" rx="11.9" ry="8.0" fill="#FFFFFF" opacity="0.37"/>
      </g>
      </g>
      </g>
      </g>
      </g>
      </g>
      </g>
  </g>
  <g transform="translate(1635.7, 659.2)">
      <g transform="translate(3.98,-2.42) rotate(4.11) scale(1.000)">
        <g transform="translate(2.05,-3.25) rotate(6.93) scale(0.980)">
        <g transform="translate(-0.39,-3.79) rotate(8.04) scale(0.960)">
        <g transform="translate(-2.73,-4.00) rotate(7.15) scale(0.940)">
        <g transform="translate(-4.41,-3.85) rotate(4.12) scale(0.920)">
        <g transform="translate(-5.00,-3.35) rotate(-1.04) scale(0.900)">
        <g transform="translate(-4.37,-2.55) rotate(-8.13) scale(0.880)">
        <circle cx="0" cy="0" r="30.3" fill="url(#rgrad3)" filter="url(#shadow)" opacity="0.64"/>
        <text x="0" y="5" text-anchor="middle" font-family="Arial, sans-serif" font-size="14" fill="#FFFFFF" opacity="0.64">693</text>
      </g>
      </g>
      </g>
      </g>
      </g>
      </g>
      </g>
  </g>
  <g transform="translate(82.0, 923.3)">
      <g transform="translate(-0.39,-3.99) rotate(4.11) scale(1.000)">
        <g transform="translate(-2.73,-3.72) rotate(6.93) scale(0.980)">
        <g transform="translate(-4.41,-3.12) rotate(8.04) scale(0.960)">
        <g transform="translate(-5.00,-2.23) rotate(7.15) scale(0.940)" clip-path="url(#clipDynamic)">
        <g transform="translate(-4.37,-1.15) rotate(4.12) scale(0.920)">
        <g transform="translate(-2.67,0.03) rotate(-1.04) scale(0.900)">
        <g transform="translate(-0.32,1.21) rotate(-8.13) scale(0.880)">
        <path d="M0.0,-73.0 L21.4,-29.5 L69.4,-22.5 L34.7,11.3 L42.9,59.0 L0.0,36.5 L-42.9,59.0 L-34.7,11.3 L-69.4,-22.5 L-21.4,-29.5Z" fill="url(#lgrad4)" filter="url(#blur4)" opacity="0.52"/>
      </g>
      </g>
      </g>
      </g>
      </g>
      </g>
      </g>
  </g>
  <g transform="translate(206.4, 271.8)" mask="url(#maskGradient)">
    <ellipse cx="0" cy="0" rx="200" ry="150" fill="url(#rgrad0)" filter="url(#blur3)" opacity="0.3"/>
  </g>
  <g transform="translate(719.8, 326.7)" mask="url(#maskCircleFade)">
    <ellipse cx="0" cy="0" rx="200" ry="150" fill="url(#rgrad1)" filter="url(#blur3)" opacity="0.3"/>
  </g>
  <g transform="translate(1306.9, 369.0)" mask="url(#maskStripes)">
    <ellipse cx="0" cy="0" rx="200" ry="150" fill="url(#rgrad2)" filter="url(#blur3)" opacity="0.3"/>
  </g>
</svg>