<?xml version="1.0" encoding="UTF-8"?>
<svg xmlns="http://www.w3.org/2000/svg" viewBox="0 0 1920 1080" width="1920" height="1080">
  <defs>
    <filter id="blur0" x="-50%" y="-50%" width="200%" height="200%">
      <feGaussianBlur in="SourceGraphic" stdDeviation="1"/>
    </filter>
    <filter id="blur1" x="-50%" y="-50%" width="200%" height="200%">
      <feGaussianBlur in="SourceGraphic" stdDeviation="3"/>
    </filter>
    <filter id="blur2" x="-50%" y="-50%" width="200%" height="200%">
      <feGaussianBlur in="SourceGraphic" stdDeviation="5"/>
    </filter>
    <filter id="blur3" x="-50%" y="-50%" width="200%" height="200%">
      <feGaussianBlur in="SourceGraphic" stdDeviation="7"/>
    </filter>
    <filter id="blur4" x="-50%" y="-50%" width="200%" height="200%">
      <feGaussianBlur in="SourceGraphic" stdDeviation="9"/>
    </filter>
    <filter id="shadow" x="-50%" y="-50%" width="200%" height="200%">
      <feGaussianBlur in="SourceAlpha" stdDeviation="3" result="blur"/>
      <feOffset in="blur" dx="4" dy="4" result="offsetBlur"/>
      <feMerge>
        <feMergeNode in="offsetBlur"/>
        <feMergeNode in="SourceGraphic"/>
      </feMerge>
    </filter>
    <linearGradient id="lgrad0" x1="0%" y1="0%" x2="91.9%" y2="77.2%">
      <stop offset="0%" stop-color="#FF6B6B"/>
      <stop offset="33%" stop-color="#4ECDC4"/>
      <stop offset="66%" stop-color="#45B7D1"/>
      <stop offset="100%" stop-color="#96E6A1"/>
    </linearGradient>
    <linearGradient id="lgrad1" x1="0%" y1="0%" x2="72.7%" y2="94.6%">
      <stop offset="0%" stop-color="#FFE66D"/>
      <stop offset="33%" stop-color="#FF6B6B"/>
      <stop offset="66%" stop-color="#C44D58"/>
      <stop offset="100%" stop-color="#8B0000"/>
    </linearGradient>
    <linearGradient id="lgrad2" x1="0%" y1="0%" x2="47.4%" y2="99.9%">
      <stop offset="0%" stop-color="#4169E1"/>
      <stop offset="33%" stop-color="#7B68EE"/>
      <stop offset="66%" stop-color="#9370DB"/>
      <stop offset="100%" stop-color="#FFD700"/>
    </linearGradient>
    <linearGradient id="lgrad3" x1="0%" y1="0%" x2="22.8%" y2="91.9%">
      <stop offset="0%" stop-color="#32CD32"/>
      <stop offset="33%" stop-color="#228B22"/>
      <stop offset="66%" stop-color="#006400"/>
      <stop offset="100%" stop-color="#ADFF2F"/>
    </linearGradient>
    <linearGradient id="lgrad4" x1="0%" y1="0%" x2="5.4%" y2="72.7%">
      <stop offset="0%" stop-color="#FF1493"/>
      <stop offset="33%" stop-color="#FF69B4"/>
      <stop offset="66%" stop-color="#FFB6C1"/>
      <stop offset="100%" stop-color="#FFC0CB"/>
    </linearGradient>
    <radialGradient id="rgrad0" cx="38.8%" cy="49.2%" r="60%">
      <stop offset="0%" stop-color="#FF6B6B" stop-opacity="1"/>
      <stop offset="50%" stop-color="#4ECDC4" stop-opacity="0.8"/>
      <stop offset="100%" stop-color="#45B7D1" stop-opacity="0.6"/>
    </radialGradient>
    <radialGradient id="rgrad1" cx="48.8%" cy="57.2%" r="60%">
      <stop offset="0%" stop-color="#FFE66D" stop-opacity="1"/>
      <stop offset="50%" stop-color="#FF6B6B" stop-opacity="0.8"/>
      <stop offset="100%" stop-color="#C44D58" stop-opacity="0.6"/>
    </radialGradient>
    <radialGradient id="rgrad2" cx="58.8%" cy="65.2%" r="60%">
      <stop offset="0%" stop-color="#4169E1" stop-opacity="1"/>
      <stop offset="50%" stop-color="#7B68EE" stop-opacity="0.8"/>
      <stop offset="100%" stop-color="#9370DB" stop-opacity="0.6"/>
    </radialGradient>
    <radialGradient id="rgrad3" cx="68.8%" cy="33.2%" r="60%">
      <stop offset="0%" stop-color="#32CD32" stop-opacity="1"/>
      <stop offset="50%" stop-color="#228B22" stop-opacity="0.8"/>
      <stop offset="100%" stop-color="#006400" stop-opacity="0.6"/>
    </radialGradient>
    <radialGradient id="rgrad4" cx="38.8%" cy="41.2%" r="60%">
      <stop offset="0%" stop-color="#FF1493" stop-opacity="1"/>
      <stop offset="50%" stop-color="#FF69B4" stop-opacity="0.8"/>
      <stop offset="100%" stop-color="#FFB6C1" stop-opacity="0.6"/>
    </radialGradient>
    <clipPath id="clipCircle">
      <circle cx="0" cy="0" r="50"/>
    </clipPath>
    <clipPath id="clipStar">
      <path d="M0.0,-50.0 L14.7,-20.2 L47.6,-15.5 L23.8,7.7 L29.4,40.5 L0.0,25.0 L-29.4,40.5 L-23.8,7.7 L-47.6,-15.5 L-14.7,-20.2Z"/>
    </clipPath>
    <clipPath id="clipHex">
      <path d="M39.0,22.5 L0.0,45.0 L-39.0,22.5 L-39.0,-22.5 L-0.0,-45.0 L39.0,-22.5Z"/>
    </clipPath>
    <clipPath id="clipRect">
      <rect x="-40" y="-30" width="80" height="60" rx="10"/>
    </clipPath>
    <clipPath id="clipDynamic">
      <circle cx="0" cy="0" r="20.9"/>
    </clipPath>
    <mask id="maskGradient" maskContentUnits="objectBoundingBox">
      <rect x="0" y="0" width="1" height="1" fill="url(#maskGrad)"/>
    </mask>
    <linearGradient id="maskGrad" x1="0%" y1="0%" x2="100%" y2="100%">
      <stop offset="0%" stop-color="white"/>
      <stop offset="100%" stop-color="black"/>
    </linearGradient>
    <mask id="maskCircleFade">
      <circle cx="0" cy="0" r="60" fill="white"/>
      <circle cx="0" cy="0" r="30" fill="black"/>
    </mask>
    <mask id="maskStripes">
      <rect x="-50" y="-50" width="100" height="100" fill="white"/>
      <rect x="-50" y="-40" width="100" height="10" fill="black"/>
      <rect x="-50" y="-20" width="100" height="10" fill="black"/>
      <rect x="-50" y="0" width="100" height="10" fill="black"/>
      <rect x="-50" y="20" width="100" height="10" fill="black"/>
      <rect x="-50" y="40" width="100" height="10" fill="black"/>
    </mask>
    <mask id="maskDynamic">
      <rect x="-60" y="-60" width="120" height="120" fill="white" fill-opacity="0.87"/>
      <circle cx="0" cy="0" r="25" fill="white"/>
    </mask>
  </defs>
  <rect width="1920" height="1080" fill="url(#lgrad0)"/>
  <g transform="translate(71.7, 91.6)">
      <g transform="translate(-4.71,-1.34) rotate(4.08) scale(1.000)">
        <g transform="translate(-4.94,-0.16) rotate(6.86) scale(0.980)">
        <g transform="translate(-3.95,1.02) rotate(7.92) scale(0.960)">
        <g transform="translate(-2.00,2.12) rotate(6.97) scale(0.940)" clip-path="url(#clipCircle)">
        <g transform="translate(0.44,3.03) rotate(3.88) scale(0.920)">
        <g transform="translate(2.77,3.67) rotate(-1.32) scale(0.900)">
        <g transform="translate(4.43,3.97) rotate(-8.46) scale(0.880)">
        <path d="M0.0,-72.3 L21.2,-29.2 L68.7,-22.3 L34.4,11.2 L42.5,58.5 L0.0,36.1 L-42.5,58.5 L-34.4,11.2 L-68.7,-22.3 L-21.2,-29.2Z" fill="url(#lgrad0)" filter="url(#blur0)" opacity="0.83"/>
      </g>
      </g>
      </g>
      </g>
      </g>
      </g>
      </g>
  </g>
  <g transform="translate(290.4, 108.8)">
      <g transform="translate(-3.95,2.45) rotate(4.08) scale(1.000)">
        <g transform="translate(-2.00,3.27) rotate(6.86) scale(0.980)">
        <g transform="translate(0.44,3.81) rotate(7.92) scale(0.960)">
        <g transform="translate(2.77,4.00) rotate(6.97) scale(0.940)">
        <g transform="translate(4.43,3.84) rotate(3.88) scale(0.920)">
        <g transform="translate(5.00,3.33) rotate(-1.32) scale(0.900)" mask="url(#maskCircleFade)">
        <g transform="translate(4.35,2.52) rotate(-8.46) scale(0.880)">
        <rect x="-29.7" y="-29.7" width="59.3" height="59.3" rx="14.8" fill="url(#rgrad1)" filter="url(#shadow)" opacity="0.74"/>
        <circle cx="0" cy="0" r="19.8" fill="url(#rgrad2)" opacity="0.52"/>
      </g>
      </g>
      </g>
      </g>
      </g>
      </g>
      </g>
  </g>
  <g transform="translate(516.3, 121.8)">
      <g transform="translate(0.44,3.98) rotate(4.08) scale(1.000)">
        <g transform="translate(2.77,3.70) rotate(6.86) scale(0.980)">
        <g transform="translate(4.43,3.09) rotate(7.92) scale(0.960)">
        <g transform="translate(5.00,2.20) rotate(6.97) scale(0.940)">
        <g transform="translate(4.35,1.12) rotate(3.88) scale(0.920)">
        <g transform="translate(2.63,-0.07) rotate(-1.32) scale(0.900)">
        <g transform="translate(0.27,-1.25) rotate(-8.46) scale(0.880)">
        <path d="M24.4,14.1 L0.0,28.2 L-24.4,14.1 L-24.4,-14.1 L-0.0,-28.2 L24.4,-14.1Z" fill="url(#rgrad2)" filter="url(#blur2)" opacity="0.64"/>
        <ellipse cx="0" cy="0" rx="11.8" ry="7.8" fill="#FFFFFF" opacity="0.32"/>
      </g>
      </g>
      </g>
      </g>
      </g>
      </g>
      </g>
  </g>
  <g transform="translate(748.0, 124.6)">
      <g transform="translate(4.43,1.86) rotate(4.08) scale(1.000)">
        <g transform="translate(5.00,0.73) rotate(6.86) scale(0.980)">
        <g transform="translate(4.35,-0.47) rotate(7.92) scale(0.960)">
        <g transform="translate(2.63,-1.62) rotate(6.97) scale(0.940)" clip-path="url(#clipRect)">
        <g transform="translate(0.27,-2.63) rotate(3.88) scale(0.920)">
        <g transform="translate(-2.16,-3.40) rotate(-1.32) scale(0.900)">
        <g transform="translate(-4.06,-3.87) rotate(-8.46) scale(0.880)">
        <circle cx="0" cy="0" r="23.3" fill="url(#lgrad3)" filter="url(#shadow)" opacity="0.52"/>
        <text x="0" y="5" text-anchor="middle" font-family="Arial, sans-serif" font-size="14" fill="#FFFFFF" opacity="0.52">696</text>
      </g>
      </g>
      </g>
      </g>
      </g>
      </g>
      </g>
  </g>
  <g transform="translate(982.6, 115.8)">
      <g transform="translate(4.35,-1.98) rotate(4.08) scale(1.000)">
        <g transform="translate(2.63,-2.92) rotate(6.86) scale(0.980)">
        <g transform="translate(0.27,-3.60) rotate(7.92) scale(0.960)">
        <g transform="translate(-2.16,-3.95) rotate(6.97) scale(0.940)">
        <g transform="translate(-4.06,-3.96) rotate(3.88) scale(0.920)">
        <g transform="translate(-4.96,-3.61) rotate(-1.32) scale(0.900)" mask="url(#maskGradient)">
        <g transform="translate(-4.65,-2.94) rotate(-8.46) scale(0.880)">
        <path d="M0.0,-58.5 L17.2,-23.7 L55.7,-18.1 L27.8,9.0 L34.4,47.4 L0.0,29.3 L-34.4,47.4 L-27.8,9.0 L-55.7,-18.1 L-17.2,-23.7Z" fill="url(#rgrad4)" filter="url(#blur4)" opacity="0.40"/>
      </g>
      </g>
      </g>
      </g>
      </g>
      </g>
      </g>
  </g>
  <g transform="translate(1216.6, 99.6)">
      <g transform="translate(0.27,-3.99) rotate(4.08) scale(1.000)">
        <g transform="translate(-2.16,-3.88) rotate(6.86) scale(0.980)">
        <g transform="translate(-4.06,-3.42) rotate(7.92) scale(0.960)">
        <g transform="translate(-4.96,-2.65) rotate(6.97) scale(0.940)">
        <g transform="translate(-4.65,-1.65) rotate(3.88) scale(0.920)">
        <g transform="translate(-3.20,-0.50) rotate(-1.32) scale(0.900)">
        <g transform="translate(-0.97,0.70) rotate(-8.46) scale(0.880)">
        <rect x="-35.9" y="-35.9" width="71.8" height="71.8" rx="17.9" fill="url(#rgrad0)" filter="url(#shadow)" opacity="0.29"/>
        <circle cx="0" cy="0" r="23.9" fill="url(#rgrad1)" opacity="0.21"/>
      </g>
      </g>
      </g>
      </g>
      </g>
      </g>
      </g>
  </g>
  <g transform="translate(1446.6, 83.6)">
      <g transform="translate(-4.06,-2.34) rotate(4.08) scale(1.000)">
        <g transform="translate(-4.96,-1.27) rotate(6.86) scale(0.980)">
        <g transform="translate(-4.65,-0.10) rotate(7.92) scale(0.960)">
        <g transform="translate(-3.20,1.09) rotate(6.97) scale(0.940)" clip-path="url(#clipStar)">
        <g transform="translate(-0.97,2.18) rotate(3.88) scale(0.920)">
        <g transform="translate(1.50,3.07) rotate(-1.32) scale(0.900)">
        <g transform="translate(3.60,3.69) rotate(-8.46) scale(0.880)">
        <path d="M38.5,22.3 L0.0,44.5 L-38.5,22.3 L-38.5,-22.3 L-0.0,-44.5 L38.5,-22.3Z" fill="url(#lgrad1)" filter="url(#blur1)" opacity="0.20"/>
        <ellipse cx="0" cy="0" rx="18.5" ry="12.4" fill="#FFFFFF" opacity="0.10"/>
      </g>
      </g>
      </g>
      </g>
      </g>
      </g>
      </g>
  </g>
  <g transform="translate(1670.0, 75.3)">
      <g transform="translate(-4.65,1.47) rotate(4.08) scale(1.000)">
        <g transform="translate(-3.20,2.50) rotate(6.86) scale(0.980)">
        <g transform="translate(-0.97,3.31) rotate(7.92) scale(0.960)">
        <g transform="translate(1.50,3.83) rotate(6.97) scale(0.940)">
        <g transform="translate(3.60,4.00) rotate(3.88) scale(0.920)">
        <g transform="translate(4.82,3.82) rotate(-1.32) scale(0.900)" mask="url(#maskDynamic)">
        <g transform="translate(4.86,3.29) rotate(-8.46) scale(0.880)">
        <circle cx="0" cy="0" r="31.8" fill="url(#rgrad2)" filter="url(#shadow)" opacity="0.14"/>
        <text x="0" y="5" text-anchor="middle" font-family="Arial, sans-serif" font-size="14" fill="#FFFFFF" opacity="0.14">696</text>
      </g>
      </g>
      </g>
      </g>
      </g>
      </g>
      </g>
  </g>
  <g transform="translate(126.1, 358.6)">
      <g transform="translate(-0.97,3.92) rotate(4.08) scale(1.000)">
        <g transform="translate(1.50,3.98) rotate(6.86) scale(0.980)">
        <g transform="translate(3.60,3.68) rotate(7.92) scale(0.960)">
        <g transform="translate(4.82,3.05) rotate(6.97) scale(0.940)">
        <g transform="translate(4.86,2.14) rotate(3.88) scale(0.920)">
        <g transform="translate(3.71,1.05) rotate(-1.32) scale(0.900)">
        <g transform="translate(1.65,-0.14) rotate(-8.46) scale(0.880)">
        <path d="M0.0,-49.7 L14.6,-20.1 L47.2,-15.3 L23.6,7.7 L29.2,40.2 L0.0,24.8 L-29.2,40.2 L-23.6,7.7 L-47.2,-15.3 L-14.6,-20.1Z" fill="url(#rgrad3)" filter="url(#blur3)" opacity="0.10"/>
      </g>
      </g>
      </g>
      </g>
      </g>
      </g>
      </g>
  </g>
  <g transform="translate(335.8, 372.0)">
      <g transform="translate(3.60,2.77) rotate(4.08) scale(1.000)">
        <g transform="translate(4.82,1.80) rotate(6.86) scale(0.980)">
        <g transform="translate(4.86,0.66) rotate(7.92) scale(0.960)">
        <g transform="translate(3.71,-0.53) rotate(6.97) scale(0.940)" clip-path="url(#clipDynamic)">
        <g transform="translate(1.65,-1.68) rotate(3.88) scale(0.920)">
        <g transform="translate(-0.81,-2.68) rotate(-1.32) scale(0.900)">
        <g transform="translate(-3.08,-3.44) rotate(-8.46) scale(0.880)">
        <rect x="-22.6" y="-22.6" width="45.3" height="45.3" rx="11.3" fill="url(#lgrad4)" filter="url(#shadow)" opacity="0.11"/>
        <circle cx="0" cy="0" r="15.1" fill="url(#rgrad0)" opacity="0.07"/>
      </g>
      </g>
      </g>
      </g>
      </g>
      </g>
      </g>
  </g>
  <g transform="translate(541.6, 389.2)">
      <g transform="translate(4.86,-0.93) rotate(4.08) scale(1.000)">
        <g transform="translate(3.71,-2.04) rotate(6.86) scale(0.980)">
        <g transform="translate(1.65,-2.96) rotate(7.92) scale(0.960)">
        <g transform="translate(-0.81,-3.62) rotate(6.97) scale(0.940)">
        <g transform="translate(-3.08,-3.96) rotate(3.88) scale(0.920)">
        <g transform="translate(-4.59,-3.95) rotate(-1.32) scale(0.900)" mask="url(#maskStripes)">
        <g transform="translate(-4.98,-3.58) rotate(-8.46) scale(0.880)">
        <path d="M28.3,16.3 L0.0,32.7 L-28.3,16.3 L-28.3,-16.3 L-0.0,-32.7 L28.3,-16.3Z" fill="url(#rgrad0)" filter="url(#blur0)" opacity="0.14"/>
        <ellipse cx="0" cy="0" rx="13.6" ry="9.1" fill="#FFFFFF" opacity="0.07"/>
      </g>
      </g>
      </g>
      </g>
      </g>
      </g>
      </g>
  </g>
  <g transform="translate(747.0, 402.0)">
      <g transform="translate(1.65,-3.78) rotate(4.08) scale(1.000)">
        <g transform="translate(-0.81,-4.00) rotate(6.86) scale(0.980)">
        <g transform="translate(-3.08,-3.86) rotate(7.92) scale(0.960)">
        <g transform="translate(-4.59,-3.38) rotate(6.97) scale(0.940)">
        <g transform="translate(-4.98,-2.60) rotate(3.88) scale(0.920)">
        <g transform="translate(-4.15,-1.59) rotate(-1.32) scale(0.900)">
        <g transform="translate(-2.30,-0.43) rotate(-8.46) scale(0.880)">
        <circle cx="0" cy="0" r="34.4" fill="url(#rgrad1)" filter="url(#shadow)" opacity="0.21"/>
        <text x="0" y="5" text-anchor="middle" font-family="Arial, sans-serif" font-size="14" fill="#FFFFFF" opacity="0.21">696</text>
      </g>
      </g>
      </g>
      </g>
      </g>
      </g>
      </g>
  </g>
  <g transform="translate(955.7, 404.5)">
      <g transform="translate(-3.08,-3.15) rotate(4.08) scale(1.000)">
        <g transform="translate(-4.59,-2.28) rotate(6.86) scale(0.980)">
        <g transform="translate(-4.98,-1.21) rotate(7.92) scale(0.960)">
        <g transform="translate(-4.15,-0.03) rotate(6.97) scale(0.940)" clip-path="url(#clipHex)">
        <g transform="translate(-2.30,1.15) rotate(3.88) scale(0.920)">
        <g transform="translate(0.11,2.23) rotate(-1.32) scale(0.900)">
        <g transform="translate(2.49,3.11) rotate(-8.46) scale(0.880)">
        <path d="M0.0,-75.0 L22.0,-30.3 L71.3,-23.2 L35.7,11.6 L44.1,60.7 L0.0,37.5 L-44.1,60.7 L-35.7,11.6 L-71.3,-23.2 L-22.0,-30.3Z" fill="url(#lgrad2)" filter="url(#blur2)" opacity="0.31"/>
      </g>
      </g>
      </g>
      </g>
      </g>
      </g>
      </g>
  </g>
  <g transform="translate(1170.2, 395.4)">
      <g transform="translate(-4.98,0.37) rotate(4.08) scale(1.000)">
        <g transform="translate(-4.15,1.53) rotate(6.86) scale(0.980)">
        <g transform="translate(-2.30,2.55) rotate(7.92) scale(0.960)">
        <g transform="translate(0.11,3.35) rotate(6.97) scale(0.940)">
        <g transform="translate(2.49,3.85) rotate(3.88) scale(0.920)">
        <g transform="translate(4.26,4.00) rotate(-1.32) scale(0.900)" mask="url(#maskCircleFade)">
        <g transform="translate(4.99,3.79) rotate(-8.46) scale(0.880)">
        <rect x="-33.7" y="-33.7" width="67.5" height="67.5" rx="16.9" fill="url(#rgrad3)" filter="url(#shadow)" opacity="0.42"/>
        <circle cx="0" cy="0" r="22.5" fill="url(#rgrad4)" opacity="0.30"/>
      </g>
      </g>
      </g>
      </g>
      </g>
      </g>
      </g>
  </g>
  <g transform="translate(1392.1, 379.1)">
      <g transform="translate(-2.30,3.55) rotate(4.08) scale(1.000)">
        <g transform="translate(0.11,3.94) rotate(6.86) scale(0.980)">
        <g transform="translate(2.49,3.97) rotate(7.92) scale(0.960)">
        <g transform="translate(4.26,3.65) rotate(6.97) scale(0.940)">
        <g transform="translate(4.99,3.00) rotate(3.88) scale(0.920)">
        <g transform="translate(4.50,2.09) rotate(-1.32) scale(0.900)">
        <g transform="translate(2.91,0.99) rotate(-8.46) scale(0.880)">
        <path d="M27.6,15.9 L0.0,31.9 L-27.6,15.9 L-27.6,-15.9 L-0.0,-31.9 L27.6,-15.9Z" fill="url(#rgrad4)" filter="url(#blur4)" opacity="0.54"/>
        <ellipse cx="0" cy="0" rx="13.3" ry="8.9" fill="#FFFFFF" opacity="0.27"/>
      </g>
      </g>
      </g>
      </g>
      </g>
      </g>
      </g>
  </g>
  <g transform="translate(1620.8, 363.3)">
      <g transform="translate(2.49,3.47) rotate(4.08) scale(1.000)">
        <g transform="translate(4.26,2.72) rotate(6.86) scale(0.980)">
        <g transform="translate(4.99,1.74) rotate(7.92) scale(0.960)">
        <g transform="translate(4.50,0.59) rotate(6.97) scale(0.940)" clip-path="url(#clipCircle)">
        <g transform="translate(2.91,-0.60) rotate(3.88) scale(0.920)">
        <g transform="translate(0.60,-1.74) rotate(-1.32) scale(0.900)">
        <g transform="translate(-1.85,-2.73) rotate(-8.46) scale(0.880)">
        <circle cx="0" cy="0" r="22.5" fill="url(#lgrad0)" filter="url(#shadow)" opacity="0.66"/>
        <text x="0" y="5" text-anchor="middle" font-family="Arial, sans-serif" font-size="14" fill="#FFFFFF" opacity="0.66">696</text>
      </g>
      </g>
      </g>
      </g>
      </g>
      </g>
      </g>
  </g>
  <g transform="translate(94.2, 635.2)">
      <g transform="translate(4.99,0.20) rotate(4.08) scale(1.000)">
        <g transform="translate(4.50,-0.99) rotate(6.86) scale(0.980)">
        <g transform="translate(2.91,-2.09) rotate(7.92) scale(0.960)">
        <g transform="translate(0.60,-3.01) rotate(6.97) scale(0.940)">
        <g transform="translate(-1.85,-3.65) rotate(3.88) scale(0.920)">
        <g transform="translate(-3.85,-3.97) rotate(-1.32) scale(0.900)" mask="url(#maskGradient)">
        <g transform="translate(-4.91,-3.94) rotate(-8.46) scale(0.880)">
        <path d="M0.0,-50.8 L14.9,-20.5 L48.3,-15.7 L24.1,7.8 L29.8,41.1 L0.0,25.4 L-29.8,41.1 L-24.1,7.8 L-48.3,-15.7 L-14.9,-20.5Z" fill="url(#rgrad1)" filter="url(#blur1)" opacity="0.76"/>
      </g>
      </g>
      </g>
      </g>
      </g>
      </g>
      </g>
  </g>
  <g transform="translate(329.0, 638.9)">
      <g transform="translate(2.91,-3.26) rotate(4.08) scale(1.000)">
        <g transform="translate(0.60,-3.80) rotate(6.86) scale(0.980)">
        <g transform="translate(-1.85,-4.00) rotate(7.92) scale(0.960)">
        <g transform="translate(-3.85,-3.84) rotate(6.97) scale(0.940)">
        <g transform="translate(-4.91,-3.35) rotate(3.88) scale(0.920)">
        <g transform="translate(-4.76,-2.55) rotate(-1.32) scale(0.900)">
        <g transform="translate(-3.45,-1.52) rotate(-8.46) scale(0.880)">
        <rect x="-32.5" y="-32.5" width="64.9" height="64.9" rx="16.2" fill="url(#rgrad2)" filter="url(#shadow)" opacity="0.84"/>
        <circle cx="0" cy="0" r="21.6" fill="url(#rgrad3)" opacity="0.59"/>
      </g>
      </g>
      </g>
      </g>
      </g>
      </g>
      </g>
  </g>
  <g transform="translate(561.6, 652.4)">
      <g transform="translate(-1.85,-3.71) rotate(4.08) scale(1.000)">
        <g transform="translate(-3.85,-3.11) rotate(6.86) scale(0.980)">
        <g transform="translate(-4.91,-2.23) rotate(7.92) scale(0.960)">
        <g transform="translate(-4.76,-1.15) rotate(6.97) scale(0.940)" clip-path="url(#clipRect)">
        <g transform="translate(-3.45,0.04) rotate(3.88) scale(0.920)">
        <g transform="translate(-1.29,1.22) rotate(-1.32) scale(0.900)">
        <g transform="translate(1.18,2.29) rotate(-8.46) scale(0.880)">
        <path d="M38.8,22.4 L0.0,44.8 L-38.8,22.4 L-38.8,-22.4 L-0.0,-44.8 L38.8,-22.4Z" fill="url(#lgrad3)" filter="url(#blur3)" opacity="0.89"/>
        <ellipse cx="0" cy="0" rx="18.6" ry="12.4" fill="#FFFFFF" opacity="0.44"/>
      </g>
      </g>
      </g>
      </g>
      </g>
      </g>
      </g>
  </g>
  <g transform="translate(788.9, 669.6)">
      <g transform="translate(-4.91,-0.76) rotate(4.08) scale(1.000)">
        <g transform="translate(-4.76,0.44) rotate(6.86) scale(0.980)">
        <g transform="translate(-3.45,1.59) rotate(7.92) scale(0.960)">
        <g transform="translate(-1.29,2.61) rotate(6.97) scale(0.940)">
        <g transform="translate(1.18,3.39) rotate(3.88) scale(0.920)">
        <g transform="translate(3.37,3.86) rotate(-1.32) scale(0.900)" mask="url(#maskDynamic)">
        <g transform="translate(4.73,4.00) rotate(-8.46) scale(0.880)">
        <circle cx="0" cy="0" r="35.4" fill="url(#rgrad4)" filter="url(#shadow)" opacity="0.90"/>
        <text x="0" y="5" text-anchor="middle" font-family="Arial, sans-serif" font-size="14" fill="#FFFFFF" opacity="0.90">696</text>
      </g>
      </g>
      </g>
      </g>
      </g>
      </g>
      </g>
  </g>
  <g transform="translate(1009.2, 682.2)">
      <g transform="translate(-3.45,2.90) rotate(4.08) scale(1.000)">
        <g transform="translate(-1.29,3.58) rotate(6.86) scale(0.980)">
        <g transform="translate(1.18,3.95) rotate(7.92) scale(0.960)">
        <g transform="translate(3.37,3.96) rotate(6.97) scale(0.940)">
        <g transform="translate(4.73,3.62) rotate(3.88) scale(0.920)">
        <g transform="translate(4.93,2.96) rotate(-1.32) scale(0.900)">
        <g transform="translate(3.93,2.03) rotate(-8.46) scale(0.880)">
        <path d="M0.0,-57.1 L16.8,-23.1 L54.3,-17.6 L27.2,8.8 L33.6,46.2 L0.0,28.6 L-33.6,46.2 L-27.2,8.8 L-54.3,-17.6 L-16.8,-23.1Z" fill="url(#rgrad0)" filter="url(#blur0)" opacity="0.88"/>
      </g>
      </g>
      </g>
      </g>
      </g>
      </g>
      </g>
  </g>
  <g transform="translate(1222.3, 684.4)">
      <g transform="translate(1.18,3.89) rotate(4.08) scale(1.000)">
        <g transform="translate(3.37,3.43) rotate(6.86) scale(0.980)">
        <g transform="translate(4.73,2.67) rotate(7.92) scale(0.960)">
        <g transform="translate(4.93,1.68) rotate(6.97) scale(0.940)" clip-path="url(#clipStar)">
        <g transform="translate(3.93,0.53) rotate(3.88) scale(0.920)">
        <g transform="translate(1.96,-0.67) rotate(-1.32) scale(0.900)">
        <g transform="translate(-0.48,-1.80) rotate(-8.46) scale(0.880)">
        <rect x="-23.0" y="-23.0" width="46.0" height="46.0" rx="11.5" fill="url(#lgrad1)" filter="url(#shadow)" opacity="0.82"/>
        <circle cx="0" cy="0" r="15.3" fill="url(#rgrad2)" opacity="0.58"/>
      </g>
      </g>
      </g>
      </g>
      </g>
      </g>
      </g>
  </g>
  <g transform="translate(1429.9, 675.1)">
      <g transform="translate(4.73,1.31) rotate(4.08) scale(1.000)">
        <g transform="translate(4.93,0.13) rotate(6.86) scale(0.980)">
        <g transform="translate(3.93,-1.06) rotate(7.92) scale(0.960)">
        <g transform="translate(1.96,-2.15) rotate(6.97) scale(0.940)">
        <g transform="translate(-0.48,-3.05) rotate(3.88) scale(0.920)">
        <g transform="translate(-2.81,-3.68) rotate(-1.32) scale(0.900)" mask="url(#maskStripes)">
        <g transform="translate(-4.45,-3.98) rotate(-8.46) scale(0.880)">
        <path d="M24.8,14.3 L0.0,28.7 L-24.8,14.3 L-24.8,-14.3 L-0.0,-28.7 L24.8,-14.3Z" fill="url(#rgrad2)" filter="url(#blur2)" opacity="0.74"/>
        <ellipse cx="0" cy="0" rx="12.0" ry="8.0" fill="#FFFFFF" opacity="0.37"/>
      </g>
      </g>
      </g>
      </g>
      </g>
      </g>
      </g>
  </g>
  <g transform="translate(1635.1, 658.7)">
      <g transform="translate(3.93,-2.48) rotate(4.08) scale(1.000)">
        <g transform="translate(1.96,-3.29) rotate(6.86) scale(0.980)">
        <g transform="translate(-0.48,-3.82) rotate(7.92) scale(0.960)">
        <g transform="translate(-2.81,-4.00) rotate(6.97) scale(0.940)">
        <g transform="translate(-4.45,-3.83) rotate(3.88) scale(0.920)">
        <g transform="translate(-5.00,-3.31) rotate(-1.32) scale(0.900)">
        <g transform="translate(-4.32,-2.50) rotate(-8.46) scale(0.880)">
        <circle cx="0" cy="0" r="30.4" fill="url(#rgrad3)" filter="url(#shadow)" opacity="0.63"/>
        <text x="0" y="5" text-anchor="middle" font-family="Arial, sans-serif" font-size="14" fill="#FFFFFF" opacity="0.63">696</text>
      </g>
      </g>
      </g>
      </g>
      </g>
      </g>
      </g>
  </g>
  <g transform="translate(81.5, 922.9)">
      <g transform="translate(-0.48,-3.98) rotate(4.08) scale(1.000)">
        <g transform="translate(-2.81,-3.69) rotate(6.86) scale(0.980)">
        <g transform="translate(-4.45,-3.07) rotate(7.92) scale(0.960)">
        <g transform="translate(-5.00,-2.17) rotate(6.97) scale(0.940)" clip-path="url(#clipDynamic)">
        <g transform="translate(-4.32,-1.08) rotate(3.88) scale(0.920)">
        <g transform="translate(-2.59,0.10) rotate(-1.32) scale(0.900)">
        <g transform="translate(-0.22,1.28) rotate(-8.46) scale(0.880)">
        <path d="M0.0,-73.0 L21.5,-29.5 L69.5,-22.6 L34.7,11.3 L42.9,59.1 L0.0,36.5 L-42.9,59.1 L-34.7,11.3 L-69.5,-22.6 L-21.5,-29.5Z" fill="url(#lgrad4)" filter="url(#blur4)" opacity="0.52"/>
      </g>
      </g>
      </g>
      </g>
      </g>
      </g>
      </g>
  </g>
  <g transform="translate(205.8, 273.2)" mask="url(#maskGradient)">
    <ellipse cx="0" cy="0" rx="200" ry="150" fill="url(#rgrad0)" filter="url(#blur3)" opacity="0.3"/>
  </g>
  <g transform="translate(720.9, 328.1)" mask="url(#maskCircleFade)">
    <ellipse cx="0" cy="0" rx="200" ry="150" fill="url(#rgrad1)" filter="url(#blur3)" opacity="0.3"/>
  </g>
  <g transform="translate(1308.8, 369.7)" mask="url(#maskStripes)">
    <ellipse cx="0" cy="0" rx="200" ry="150" fill="url(#rgrad2)" filter="url(#blur3)" opacity="0.3"/>
  </g>
</svg>