<?xml version="1.0" encoding="UTF-8"?>
<svg xmlns="http://www.w3.org/2000/svg" viewBox="0 0 1920 1080" width="1920" height="1080">
  <defs>
    <filter id="blur0" x="-50%" y="-50%" width="200%" height="200%">
      <feGaussianBlur in="SourceGraphic" stdDeviation="1"/>
    </filter>
    <filter id="blur1" x="-50%" y="-50%" width="200%" height="200%">
      <feGaussianBlur in="SourceGraphic" stdDeviation="3"/>
    </filter>
    <filter id="blur2" x="-50%" y="-50%" width="200%" height="200%">
      <feGaussianBlur in="SourceGraphic" stdDeviation="5"/>
    </filter>
    <filter id="blur3" x="-50%" y="-50%" width="200%" height="200%">
      <feGaussianBlur in="SourceGraphic" stdDeviation="7"/>
    </filter>
    <filter id="blur4" x="-50%" y="-50%" width="200%" height="200%">
      <feGaussianBlur in="SourceGraphic" stdDeviation="9"/>
    </filter>
    <filter id="shadow" x="-50%" y="-50%" width="200%" height="200%">
      <feGaussianBlur in="SourceAlpha" stdDeviation="3" result="blur"/>
      <feOffset in="blur" dx="4" dy="4" result="offsetBlur"/>
      <feMerge>
        <feMergeNode in="offsetBlur"/>
        <feMergeNode in="SourceGraphic"/>
      </feMerge>
    </filter>
    <linearGradient id="lgrad0" x1="0%" y1="0%" x2="17.2%" y2="87.7%">
      <stop offset="0%" stop-color="#FF6B6B"/>
      <stop offset="33%" stop-color="#4ECDC4"/>
      <stop offset="66%" stop-color="#45B7D1"/>
      <stop offset="100%" stop-color="#96E6A1"/>
    </linearGradient>
    <linearGradient id="lgrad1" x1="0%" y1="0%" x2="2.7%" y2="66.3%">
      <stop offset="0%" stop-color="#FFE66D"/>
      <stop offset="33%" stop-color="#FF6B6B"/>
      <stop offset="66%" stop-color="#C44D58"/>
      <stop offset="100%" stop-color="#8B0000"/>
    </linearGradient>
    <linearGradient id="lgrad2" x1="0%" y1="0%" x2="0.9%" y2="40.5%">
      <stop offset="0%" stop-color="#4169E1"/>
      <stop offset="33%" stop-color="#7B68EE"/>
      <stop offset="66%" stop-color="#9370DB"/>
      <stop offset="100%" stop-color="#FFD700"/>
    </linearGradient>
    <linearGradient id="lgrad3" x1="0%" y1="0%" x2="12.3%" y2="17.2%">
      <stop offset="0%" stop-color="#32CD32"/>
      <stop offset="33%" stop-color="#228B22"/>
      <stop offset="66%" stop-color="#006400"/>
      <stop offset="100%" stop-color="#ADFF2F"/>
    </linearGradient>
    <linearGradient id="lgrad4" x1="0%" y1="0%" x2="33.7%" y2="2.7%">
      <stop offset="0%" stop-color="#FF1493"/>
      <stop offset="33%" stop-color="#FF69B4"/>
      <stop offset="66%" stop-color="#FFB6C1"/>
      <stop offset="100%" stop-color="#FFC0CB"/>
    </linearGradient>
    <radialGradient id="rgrad0" cx="41.6%" cy="64.4%" r="60%">
      <stop offset="0%" stop-color="#FF6B6B" stop-opacity="1"/>
      <stop offset="50%" stop-color="#4ECDC4" stop-opacity="0.8"/>
      <stop offset="100%" stop-color="#45B7D1" stop-opacity="0.6"/>
    </radialGradient>
    <radialGradient id="rgrad1" cx="51.6%" cy="32.4%" r="60%">
      <stop offset="0%" stop-color="#FFE66D" stop-opacity="1"/>
      <stop offset="50%" stop-color="#FF6B6B" stop-opacity="0.8"/>
      <stop offset="100%" stop-color="#C44D58" stop-opacity="0.6"/>
    </radialGradient>
    <radialGradient id="rgrad2" cx="61.6%" cy="40.4%" r="60%">
      <stop offset="0%" stop-color="#4169E1" stop-opacity="1"/>
      <stop offset="50%" stop-color="#7B68EE" stop-opacity="0.8"/>
      <stop offset="100%" stop-color="#9370DB" stop-opacity="0.6"/>
    </radialGradient>
    <radialGradient id="rgrad3" cx="31.6%" cy="48.4%" r="60%">
      <stop offset="0%" stop-color="#32CD32" stop-opacity="1"/>
      <stop offset="50%" stop-color="#228B22" stop-opacity="0.8"/>
      <stop offset="100%" stop-color="#006400" stop-opacity="0.6"/>
    </radialGradient>
    <radialGradient id="rgrad4" cx="41.6%" cy="56.4%" r="60%">
      <stop offset="0%" stop-color="#FF1493" stop-opacity="1"/>
      <stop offset="50%" stop-color="#FF69B4" stop-opacity="0.8"/>
      <stop offset="100%" stop-color="#FFB6C1" stop-opacity="0.6"/>
    </radialGradient>
    <clipPath id="clipCircle">
      <circle cx="0" cy="0" r="50"/>
    </clipPath>
    <clipPath id="clipStar">
      <path d="M0.0,-50.0 L14.7,-20.2 L47.6,-15.5 L23.8,7.7 L29.4,40.5 L0.0,25.0 L-29.4,40.5 L-23.8,7.7 L-47.6,-15.5 L-14.7,-20.2Z"/>
    </clipPath>
    <clipPath id="clipHex">
      <path d="M39.0,22.5 L0.0,45.0 L-39.0,22.5 L-39.0,-22.5 L-0.0,-45.0 L39.0,-22.5Z"/>
    </clipPath>
    <clipPath id="clipRect">
      <rect x="-40" y="-30" width="80" height="60" rx="10"/>
    </clipPath>
    <clipPath id="clipDynamic">
      <circle cx="0" cy="0" r="48.2"/>
    </clipPath>
    <mask id="maskGradient" maskContentUnits="objectBoundingBox">
      <rect x="0" y="0" width="1" height="1" fill="url(#maskGrad)"/>
    </mask>
    <linearGradient id="maskGrad" x1="0%" y1="0%" x2="100%" y2="100%">
      <stop offset="0%" stop-color="white"/>
      <stop offset="100%" stop-color="black"/>
    </linearGradient>
    <mask id="maskCircleFade">
      <circle cx="0" cy="0" r="60" fill="white"/>
      <circle cx="0" cy="0" r="30" fill="black"/>
    </mask>
    <mask id="maskStripes">
      <rect x="-50" y="-50" width="100" height="100" fill="white"/>
      <rect x="-50" y="-40" width="100" height="10" fill="black"/>
      <rect x="-50" y="-20" width="100" height="10" fill="black"/>
      <rect x="-50" y="0" width="100" height="10" fill="black"/>
      <rect x="-50" y="20" width="100" height="10" fill="black"/>
      <rect x="-50" y="40" width="100" height="10" fill="black"/>
    </mask>
    <mask id="maskDynamic">
      <rect x="-60" y="-60" width="120" height="120" fill="white" fill-opacity="0.66"/>
      <circle cx="0" cy="0" r="25" fill="white"/>
    </mask>
  </defs>
  <rect width="1920" height="1080" fill="url(#lgrad0)"/>
  <g transform="translate(126.4, 111.9)">
      <g transform="translate(4.40,1.90) rotate(2.56) scale(1.000)">
        <g transform="translate(5.00,0.78) rotate(6.73) scale(0.980)">
        <g transform="translate(4.38,-0.42) rotate(12.09) scale(0.960)">
        <g transform="translate(2.68,-1.57) rotate(18.15) scale(0.940)" clip-path="url(#clipCircle)">
        <g transform="translate(0.33,-2.59) rotate(24.32) scale(0.920)">
        <g transform="translate(-2.10,-3.38) rotate(29.98) scale(0.900)">
        <g transform="translate(-4.02,-3.86) rotate(34.51) scale(0.880)">
        <path d="M0.0,-67.7 L19.9,-27.4 L64.4,-20.9 L32.2,10.5 L39.8,54.8 L0.0,33.8 L-39.8,54.8 L-32.2,10.5 L-64.4,-20.9 L-19.9,-27.4Z" fill="url(#lgrad0)" filter="url(#blur0)" opacity="0.70"/>
      </g>
      </g>
      </g>
      </g>
      </g>
      </g>
      </g>
  </g>
  <g transform="translate(350.0, 94.9)">
      <g transform="translate(4.38,-1.93) rotate(2.56) scale(1.000)">
        <g transform="translate(2.68,-2.88) rotate(6.73) scale(0.980)">
        <g transform="translate(0.33,-3.57) rotate(12.09) scale(0.960)">
        <g transform="translate(-2.10,-3.94) rotate(18.15) scale(0.940)">
        <g transform="translate(-4.02,-3.96) rotate(24.32) scale(0.920)">
        <g transform="translate(-4.95,-3.63) rotate(29.98) scale(0.900)" mask="url(#maskCircleFade)">
        <g transform="translate(-4.67,-2.97) rotate(34.51) scale(0.880)">
        <rect x="-37.5" y="-37.5" width="75.0" height="75.0" rx="18.7" fill="url(#rgrad1)" filter="url(#shadow)" opacity="0.80"/>
        <circle cx="0" cy="0" r="25.0" fill="url(#rgrad2)" opacity="0.56"/>
      </g>
      </g>
      </g>
      </g>
      </g>
      </g>
      </g>
  </g>
  <g transform="translate(566.3, 80.3)">
      <g transform="translate(0.33,-3.99) rotate(2.56) scale(1.000)">
        <g transform="translate(-2.10,-3.89) rotate(6.73) scale(0.980)">
        <g transform="translate(-4.02,-3.44) rotate(12.09) scale(0.960)">
        <g transform="translate(-4.95,-2.69) rotate(18.15) scale(0.940)">
        <g transform="translate(-4.67,-1.69) rotate(24.32) scale(0.920)">
        <g transform="translate(-3.25,-0.55) rotate(29.98) scale(0.900)">
        <g transform="translate(-1.03,0.65) rotate(34.51) scale(0.880)">
        <path d="M35.6,20.6 L0.0,41.1 L-35.6,20.6 L-35.6,-20.6 L-0.0,-41.1 L35.6,-20.6Z" fill="url(#rgrad2)" filter="url(#blur2)" opacity="0.86"/>
        <ellipse cx="0" cy="0" rx="17.1" ry="11.4" fill="#FFFFFF" opacity="0.43"/>
      </g>
      </g>
      </g>
      </g>
      </g>
      </g>
      </g>
  </g>
  <g transform="translate(776.1, 75.0)">
      <g transform="translate(-4.02,-2.38) rotate(2.56) scale(1.000)">
        <g transform="translate(-4.95,-1.32) rotate(6.73) scale(0.980)">
        <g transform="translate(-4.67,-0.15) rotate(12.09) scale(0.960)">
        <g transform="translate(-3.25,1.04) rotate(18.15) scale(0.940)" clip-path="url(#clipRect)">
        <g transform="translate(-1.03,2.14) rotate(24.32) scale(0.920)">
        <g transform="translate(1.44,3.04) rotate(29.98) scale(0.900)">
        <g transform="translate(3.56,3.67) rotate(34.51) scale(0.880)">
        <circle cx="0" cy="0" r="27.1" fill="url(#lgrad3)" filter="url(#shadow)" opacity="0.90"/>
        <text x="0" y="5" text-anchor="middle" font-family="Arial, sans-serif" font-size="14" fill="#FFFFFF" opacity="0.90">172</text>
      </g>
      </g>
      </g>
      </g>
      </g>
      </g>
      </g>
  </g>
  <g transform="translate(982.0, 81.4)">
      <g transform="translate(-4.67,1.42) rotate(2.56) scale(1.000)">
        <g transform="translate(-3.25,2.46) rotate(6.73) scale(0.980)">
        <g transform="translate(-1.03,3.28) rotate(12.09) scale(0.960)">
        <g transform="translate(1.44,3.81) rotate(18.15) scale(0.940)">
        <g transform="translate(3.56,4.00) rotate(24.32) scale(0.920)">
        <g transform="translate(4.81,3.83) rotate(29.98) scale(0.900)" mask="url(#maskGradient)">
        <g transform="translate(4.88,3.32) rotate(34.51) scale(0.880)">
        <path d="M0.0,-45.2 L13.3,-18.3 L43.0,-14.0 L21.5,7.0 L26.6,36.6 L0.0,22.6 L-26.6,36.6 L-21.5,7.0 L-43.0,-14.0 L-13.3,-18.3Z" fill="url(#rgrad4)" filter="url(#blur4)" opacity="0.89"/>
      </g>
      </g>
      </g>
      </g>
      </g>
      </g>
      </g>
  </g>
  <g transform="translate(1187.4, 96.6)">
      <g transform="translate(-1.03,3.91) rotate(2.56) scale(1.000)">
        <g transform="translate(1.44,3.98) rotate(6.73) scale(0.980)">
        <g transform="translate(3.56,3.70) rotate(12.09) scale(0.960)">
        <g transform="translate(4.81,3.08) rotate(18.15) scale(0.940)">
        <g transform="translate(4.88,2.19) rotate(24.32) scale(0.920)">
        <g transform="translate(3.75,1.10) rotate(29.98) scale(0.900)">
        <g transform="translate(1.71,-0.09) rotate(34.51) scale(0.880)">
        <rect x="-24.9" y="-24.9" width="49.8" height="49.8" rx="12.5" fill="url(#rgrad0)" filter="url(#shadow)" opacity="0.86"/>
        <circle cx="0" cy="0" r="16.6" fill="url(#rgrad1)" opacity="0.60"/>
      </g>
      </g>
      </g>
      </g>
      </g>
      </g>
      </g>
  </g>
  <g transform="translate(1395.9, 113.3)">
      <g transform="translate(3.56,2.81) rotate(2.56) scale(1.000)">
        <g transform="translate(4.81,1.84) rotate(6.73) scale(0.980)">
        <g transform="translate(4.88,0.71) rotate(12.09) scale(0.960)">
        <g transform="translate(3.75,-0.48) rotate(18.15) scale(0.940)" clip-path="url(#clipStar)">
        <g transform="translate(1.71,-1.64) rotate(24.32) scale(0.920)">
        <g transform="translate(-0.75,-2.64) rotate(29.98) scale(0.900)">
        <g transform="translate(-3.03,-3.41) rotate(34.51) scale(0.880)">
        <path d="M33.1,19.1 L0.0,38.3 L-33.1,19.1 L-33.1,-19.1 L-0.0,-38.3 L33.1,-19.1Z" fill="url(#lgrad1)" filter="url(#blur1)" opacity="0.79"/>
        <ellipse cx="0" cy="0" rx="15.9" ry="10.6" fill="#FFFFFF" opacity="0.39"/>
      </g>
      </g>
      </g>
      </g>
      </g>
      </g>
      </g>
  </g>
  <g transform="translate(1610.3, 123.8)">
      <g transform="translate(4.88,-0.88) rotate(2.56) scale(1.000)">
        <g transform="translate(3.75,-1.99) rotate(6.73) scale(0.980)">
        <g transform="translate(1.71,-2.93) rotate(12.09) scale(0.960)">
        <g transform="translate(-0.75,-3.60) rotate(18.15) scale(0.940)">
        <g transform="translate(-3.03,-3.96) rotate(24.32) scale(0.920)">
        <g transform="translate(-4.57,-3.95) rotate(29.98) scale(0.900)" mask="url(#maskDynamic)">
        <g transform="translate(-4.98,-3.60) rotate(34.51) scale(0.880)">
        <circle cx="0" cy="0" r="37.1" fill="url(#rgrad2)" filter="url(#shadow)" opacity="0.69"/>
        <text x="0" y="5" text-anchor="middle" font-family="Arial, sans-serif" font-size="14" fill="#FFFFFF" opacity="0.69">172</text>
      </g>
      </g>
      </g>
      </g>
      </g>
      </g>
      </g>
  </g>
  <g transform="translate(72.0, 403.1)">
      <g transform="translate(1.71,-3.76) rotate(2.56) scale(1.000)">
        <g transform="translate(-0.75,-4.00) rotate(6.73) scale(0.980)">
        <g transform="translate(-3.03,-3.87) rotate(12.09) scale(0.960)">
        <g transform="translate(-4.57,-3.41) rotate(18.15) scale(0.940)">
        <g transform="translate(-4.98,-2.64) rotate(24.32) scale(0.920)">
        <g transform="translate(-4.18,-1.63) rotate(29.98) scale(0.900)">
        <g transform="translate(-2.36,-0.48) rotate(34.51) scale(0.880)">
        <path d="M0.0,-71.6 L21.1,-29.0 L68.1,-22.1 L34.1,11.1 L42.1,57.9 L0.0,35.8 L-42.1,57.9 L-34.1,11.1 L-68.1,-22.1 L-21.1,-29.0Z" fill="url(#rgrad3)" filter="url(#blur3)" opacity="0.58"/>
      </g>
      </g>
      </g>
      </g>
      </g>
      </g>
      </g>
  </g>
  <g transform="translate(300.5, 391.5)">
      <g transform="translate(-3.03,-3.18) rotate(2.56) scale(1.000)">
        <g transform="translate(-4.57,-2.32) rotate(6.73) scale(0.980)">
        <g transform="translate(-4.98,-1.26) rotate(12.09) scale(0.960)">
        <g transform="translate(-4.18,-0.08) rotate(18.15) scale(0.940)" clip-path="url(#clipDynamic)">
        <g transform="translate(-2.36,1.11) rotate(24.32) scale(0.920)">
        <g transform="translate(0.05,2.19) rotate(29.98) scale(0.900)">
        <g transform="translate(2.44,3.08) rotate(34.51) scale(0.880)">
        <rect x="-29.2" y="-29.2" width="58.3" height="58.3" rx="14.6" fill="url(#lgrad4)" filter="url(#shadow)" opacity="0.46"/>
        <circle cx="0" cy="0" r="19.4" fill="url(#rgrad0)" opacity="0.32"/>
      </g>
      </g>
      </g>
      </g>
      </g>
      </g>
      </g>
  </g>
  <g transform="translate(533.8, 374.5)">
      <g transform="translate(-4.98,0.32) rotate(2.56) scale(1.000)">
        <g transform="translate(-4.18,1.48) rotate(6.73) scale(0.980)">
        <g transform="translate(-2.36,2.51) rotate(12.09) scale(0.960)">
        <g transform="translate(0.05,3.32) rotate(18.15) scale(0.940)">
        <g transform="translate(2.44,3.83) rotate(24.32) scale(0.920)">
        <g transform="translate(4.23,4.00) rotate(29.98) scale(0.900)" mask="url(#maskStripes)">
        <g transform="translate(4.99,3.81) rotate(34.51) scale(0.880)">
        <path d="M24.2,14.0 L0.0,27.9 L-24.2,14.0 L-24.2,-14.0 L-0.0,-27.9 L24.2,-14.0Z" fill="url(#rgrad0)" filter="url(#blur0)" opacity="0.35"/>
        <ellipse cx="0" cy="0" rx="11.6" ry="7.8" fill="#FFFFFF" opacity="0.17"/>
      </g>
      </g>
      </g>
      </g>
      </g>
      </g>
      </g>
  </g>
  <g transform="translate(768.6, 360.1)">
      <g transform="translate(-2.36,3.53) rotate(2.56) scale(1.000)">
        <g transform="translate(0.05,3.93) rotate(6.73) scale(0.980)">
        <g transform="translate(2.44,3.98) rotate(12.09) scale(0.960)">
        <g transform="translate(4.23,3.67) rotate(18.15) scale(0.940)">
        <g transform="translate(4.99,3.04) rotate(24.32) scale(0.920)">
        <g transform="translate(4.53,2.13) rotate(29.98) scale(0.900)">
        <g transform="translate(2.96,1.03) rotate(34.51) scale(0.880)">
        <circle cx="0" cy="0" r="23.6" fill="url(#rgrad1)" filter="url(#shadow)" opacity="0.24"/>
        <text x="0" y="5" text-anchor="middle" font-family="Arial, sans-serif" font-size="14" fill="#FFFFFF" opacity="0.24">172</text>
      </g>
      </g>
      </g>
      </g>
      </g>
      </g>
      </g>
  </g>
  <g transform="translate(1001.4, 355.0)">
      <g transform="translate(2.44,3.49) rotate(2.56) scale(1.000)">
        <g transform="translate(4.23,2.76) rotate(6.73) scale(0.980)">
        <g transform="translate(4.99,1.78) rotate(12.09) scale(0.960)">
        <g transform="translate(4.53,0.64) rotate(18.15) scale(0.940)" clip-path="url(#clipHex)">
        <g transform="translate(2.96,-0.55) rotate(24.32) scale(0.920)">
        <g transform="translate(0.66,-1.70) rotate(29.98) scale(0.900)">
        <g transform="translate(-1.80,-2.69) rotate(34.51) scale(0.880)">
        <path d="M0.0,-59.6 L17.5,-24.1 L56.7,-18.4 L28.3,9.2 L35.0,48.2 L0.0,29.8 L-35.0,48.2 L-28.3,9.2 L-56.7,-18.4 L-17.5,-24.1Z" fill="url(#lgrad2)" filter="url(#blur2)" opacity="0.16"/>
      </g>
      </g>
      </g>
      </g>
      </g>
      </g>
      </g>
  </g>
  <g transform="translate(1228.8, 361.7)">
      <g transform="translate(4.99,0.25) rotate(2.56) scale(1.000)">
        <g transform="translate(4.53,-0.94) rotate(6.73) scale(0.980)">
        <g transform="translate(2.96,-2.05) rotate(12.09) scale(0.960)">
        <g transform="translate(0.66,-2.97) rotate(18.15) scale(0.940)">
        <g transform="translate(-1.80,-3.63) rotate(24.32) scale(0.920)">
        <g transform="translate(-3.81,-3.96) rotate(29.98) scale(0.900)" mask="url(#maskCircleFade)">
        <g transform="translate(-4.90,-3.94) rotate(34.51) scale(0.880)">
        <rect x="-36.2" y="-36.2" width="72.4" height="72.4" rx="18.1" fill="url(#rgrad3)" filter="url(#shadow)" opacity="0.11"/>
        <circle cx="0" cy="0" r="24.1" fill="url(#rgrad4)" opacity="0.08"/>
      </g>
      </g>
      </g>
      </g>
      </g>
      </g>
      </g>
  </g>
  <g transform="translate(1449.3, 377.0)">
      <g transform="translate(2.96,-3.23) rotate(2.56) scale(1.000)">
        <g transform="translate(0.66,-3.78) rotate(6.73) scale(0.980)">
        <g transform="translate(-1.80,-4.00) rotate(12.09) scale(0.960)">
        <g transform="translate(-3.81,-3.86) rotate(18.15) scale(0.940)">
        <g transform="translate(-4.90,-3.37) rotate(24.32) scale(0.920)">
        <g transform="translate(-4.78,-2.59) rotate(29.98) scale(0.900)">
        <g transform="translate(-3.50,-1.57) rotate(34.51) scale(0.880)">
        <path d="M38.4,22.1 L0.0,44.3 L-38.4,22.1 L-38.4,-22.1 L-0.0,-44.3 L38.4,-22.1Z" fill="url(#rgrad4)" filter="url(#blur4)" opacity="0.10"/>
        <ellipse cx="0" cy="0" rx="18.5" ry="12.3" fill="#FFFFFF" opacity="0.05"/>
      </g>
      </g>
      </g>
      </g>
      </g>
      </g>
      </g>
  </g>
  <g transform="translate(1662.5, 393.7)">
      <g transform="translate(-1.80,-3.73) rotate(2.56) scale(1.000)">
        <g transform="translate(-3.81,-3.14) rotate(6.73) scale(0.980)">
        <g transform="translate(-4.90,-2.27) rotate(12.09) scale(0.960)">
        <g transform="translate(-4.78,-1.19) rotate(18.15) scale(0.940)" clip-path="url(#clipCircle)">
        <g transform="translate(-3.50,-0.01) rotate(24.32) scale(0.920)">
        <g transform="translate(-1.35,1.17) rotate(29.98) scale(0.900)">
        <g transform="translate(1.12,2.25) rotate(34.51) scale(0.880)">
        <circle cx="0" cy="0" r="31.3" fill="url(#lgrad0)" filter="url(#shadow)" opacity="0.12"/>
        <text x="0" y="5" text-anchor="middle" font-family="Arial, sans-serif" font-size="14" fill="#FFFFFF" opacity="0.12">172</text>
      </g>
      </g>
      </g>
      </g>
      </g>
      </g>
      </g>
  </g>
  <g transform="translate(110.3, 683.9)">
      <g transform="translate(-4.90,-0.81) rotate(2.56) scale(1.000)">
        <g transform="translate(-4.78,0.39) rotate(6.73) scale(0.980)">
        <g transform="translate(-3.50,1.55) rotate(12.09) scale(0.960)">
        <g transform="translate(-1.35,2.57) rotate(18.15) scale(0.940)">
        <g transform="translate(1.12,3.36) rotate(24.32) scale(0.920)">
        <g transform="translate(3.32,3.85) rotate(29.98) scale(0.900)" mask="url(#maskGradient)">
        <g transform="translate(4.71,4.00) rotate(34.51) scale(0.880)">
        <path d="M0.0,-48.9 L14.4,-19.8 L46.5,-15.1 L23.3,7.6 L28.8,39.6 L0.0,24.5 L-28.8,39.6 L-23.3,7.6 L-46.5,-15.1 L-14.4,-19.8Z" fill="url(#rgrad1)" filter="url(#blur1)" opacity="0.18"/>
      </g>
      </g>
      </g>
      </g>
      </g>
      </g>
      </g>
  </g>
  <g transform="translate(315.5, 682.9)">
      <g transform="translate(-3.50,2.86) rotate(2.56) scale(1.000)">
        <g transform="translate(-1.35,3.56) rotate(6.73) scale(0.980)">
        <g transform="translate(1.12,3.94) rotate(12.09) scale(0.960)">
        <g transform="translate(3.32,3.97) rotate(18.15) scale(0.940)">
        <g transform="translate(4.71,3.64) rotate(24.32) scale(0.920)">
        <g transform="translate(4.94,2.99) rotate(29.98) scale(0.900)">
        <g transform="translate(3.96,2.07) rotate(34.51) scale(0.880)">
        <rect x="-22.8" y="-22.8" width="45.5" height="45.5" rx="11.4" fill="url(#rgrad2)" filter="url(#shadow)" opacity="0.26"/>
        <circle cx="0" cy="0" r="15.2" fill="url(#rgrad3)" opacity="0.18"/>
      </g>
      </g>
      </g>
      </g>
      </g>
      </g>
      </g>
  </g>
  <g transform="translate(521.8, 671.1)">
      <g transform="translate(1.12,3.90) rotate(2.56) scale(1.000)">
        <g transform="translate(3.32,3.46) rotate(6.73) scale(0.980)">
        <g transform="translate(4.71,2.71) rotate(12.09) scale(0.960)">
        <g transform="translate(4.94,1.72) rotate(18.15) scale(0.940)" clip-path="url(#clipRect)">
        <g transform="translate(3.96,0.58) rotate(24.32) scale(0.920)">
        <g transform="translate(2.02,-0.62) rotate(29.98) scale(0.900)">
        <g transform="translate(-0.42,-1.76) rotate(34.51) scale(0.880)">
        <path d="M28.8,16.6 L0.0,33.2 L-28.8,16.6 L-28.8,-16.6 L-0.0,-33.2 L28.8,-16.6Z" fill="url(#lgrad3)" filter="url(#blur3)" opacity="0.36"/>
        <ellipse cx="0" cy="0" rx="13.8" ry="9.2" fill="#FFFFFF" opacity="0.18"/>
      </g>
      </g>
      </g>
      </g>
      </g>
      </g>
      </g>
  </g>
  <g transform="translate(732.6, 654.1)">
      <g transform="translate(4.71,1.35) rotate(2.56) scale(1.000)">
        <g transform="translate(4.94,0.18) rotate(6.73) scale(0.980)">
        <g transform="translate(3.96,-1.01) rotate(12.09) scale(0.960)">
        <g transform="translate(2.02,-2.11) rotate(18.15) scale(0.940)">
        <g transform="translate(-0.42,-3.02) rotate(24.32) scale(0.920)">
        <g transform="translate(-2.76,-3.66) rotate(29.98) scale(0.900)" mask="url(#maskDynamic)">
        <g transform="translate(-4.42,-3.97) rotate(34.51) scale(0.880)">
        <circle cx="0" cy="0" r="34.8" fill="url(#rgrad4)" filter="url(#shadow)" opacity="0.48"/>
        <text x="0" y="5" text-anchor="middle" font-family="Arial, sans-serif" font-size="14" fill="#FFFFFF" opacity="0.48">172</text>
      </g>
      </g>
      </g>
      </g>
      </g>
      </g>
      </g>
  </g>
  <g transform="translate(950.1, 639.8)">
      <g transform="translate(3.96,-2.44) rotate(2.56) scale(1.000)">
        <g transform="translate(2.02,-3.27) rotate(6.73) scale(0.980)">
        <g transform="translate(-0.42,-3.80) rotate(12.09) scale(0.960)">
        <g transform="translate(-2.76,-4.00) rotate(18.15) scale(0.940)">
        <g transform="translate(-4.42,-3.84) rotate(24.32) scale(0.920)">
        <g transform="translate(-5.00,-3.34) rotate(29.98) scale(0.900)">
        <g transform="translate(-4.36,-2.54) rotate(34.51) scale(0.880)">
        <path d="M0.0,-74.9 L22.0,-30.3 L71.2,-23.1 L35.6,11.6 L44.0,60.6 L0.0,37.4 L-44.0,60.6 L-35.6,11.6 L-71.2,-23.1 L-22.0,-30.3Z" fill="url(#rgrad0)" filter="url(#blur0)" opacity="0.60"/>
      </g>
      </g>
      </g>
      </g>
      </g>
      </g>
      </g>
  </g>
  <g transform="translate(1174.9, 635.1)">
      <g transform="translate(-0.42,-3.99) rotate(2.56) scale(1.000)">
        <g transform="translate(-2.76,-3.71) rotate(6.73) scale(0.980)">
        <g transform="translate(-4.42,-3.10) rotate(12.09) scale(0.960)">
        <g transform="translate(-5.00,-2.21) rotate(18.15) scale(0.940)" clip-path="url(#clipStar)">
        <g transform="translate(-4.36,-1.13) rotate(24.32) scale(0.920)">
        <g transform="translate(-2.64,0.05) rotate(29.98) scale(0.900)">
        <g transform="translate(-0.29,1.23) rotate(34.51) scale(0.880)">
        <rect x="-33.3" y="-33.3" width="66.6" height="66.6" rx="16.6" fill="url(#lgrad1)" filter="url(#shadow)" opacity="0.71"/>
        <circle cx="0" cy="0" r="22.2" fill="url(#rgrad2)" opacity="0.50"/>
      </g>
      </g>
      </g>
      </g>
      </g>
      </g>
      </g>
  </g>
  <g transform="translate(1405.9, 642.0)">
      <g transform="translate(-4.42,-1.87) rotate(2.56) scale(1.000)">
        <g transform="translate(-5.00,-0.74) rotate(6.73) scale(0.980)">
        <g transform="translate(-4.36,0.45) rotate(12.09) scale(0.960)">
        <g transform="translate(-2.64,1.61) rotate(18.15) scale(0.940)">
        <g transform="translate(-0.29,2.62) rotate(24.32) scale(0.920)">
        <g transform="translate(2.14,3.39) rotate(29.98) scale(0.900)" mask="url(#maskStripes)">
        <g transform="translate(4.05,3.87) rotate(34.51) scale(0.880)">
        <path d="M27.1,15.7 L0.0,31.3 L-27.1,15.7 L-27.1,-15.7 L-0.0,-31.3 L27.1,-15.7Z" fill="url(#rgrad2)" filter="url(#blur2)" opacity="0.80"/>
        <ellipse cx="0" cy="0" rx="13.1" ry="8.7" fill="#FFFFFF" opacity="0.40"/>
      </g>
      </g>
      </g>
      </g>
      </g>
      </g>
      </g>
  </g>
  <g transform="translate(1640.3, 657.4)">
      <g transform="translate(-4.36,1.97) rotate(2.56) scale(1.000)">
        <g transform="translate(-2.64,2.91) rotate(6.73) scale(0.980)">
        <g transform="translate(-0.29,3.59) rotate(12.09) scale(0.960)">
        <g transform="translate(2.14,3.95) rotate(18.15) scale(0.940)">
        <g transform="translate(4.05,3.96) rotate(24.32) scale(0.920)">
        <g transform="translate(4.96,3.61) rotate(29.98) scale(0.900)">
        <g transform="translate(4.66,2.95) rotate(34.51) scale(0.880)">
        <circle cx="0" cy="0" r="22.5" fill="url(#rgrad3)" filter="url(#shadow)" opacity="0.87"/>
        <text x="0" y="5" text-anchor="middle" font-family="Arial, sans-serif" font-size="14" fill="#FFFFFF" opacity="0.87">172</text>
      </g>
      </g>
      </g>
      </g>
      </g>
      </g>
      </g>
  </g>
  <g transform="translate(114.6, 954.0)">
      <g transform="translate(-0.29,3.99) rotate(2.56) scale(1.000)">
        <g transform="translate(2.14,3.88) rotate(6.73) scale(0.980)">
        <g transform="translate(4.05,3.43) rotate(12.09) scale(0.960)">
        <g transform="translate(4.96,2.66) rotate(18.15) scale(0.940)" clip-path="url(#clipDynamic)">
        <g transform="translate(4.66,1.66) rotate(24.32) scale(0.920)">
        <g transform="translate(3.22,0.51) rotate(29.98) scale(0.900)">
        <g transform="translate(0.99,-0.68) rotate(34.51) scale(0.880)">
        <path d="M0.0,-51.6 L15.2,-20.9 L49.1,-15.9 L24.5,8.0 L30.3,41.7 L0.0,25.8 L-30.3,41.7 L-24.5,8.0 L-49.1,-15.9 L-15.2,-20.9Z" fill="url(#lgrad4)" filter="url(#blur4)" opacity="0.90"/>
      </g>
      </g>
      </g>
      </g>
      </g>
      </g>
      </g>
  </g>
  <g transform="translate(388.0, 338.0)" mask="url(#maskGradient)">
    <ellipse cx="0" cy="0" rx="200" ry="150" fill="url(#rgrad0)" filter="url(#blur3)" opacity="0.3"/>
  </g>
  <g transform="translate(887.5, 283.7)" mask="url(#maskCircleFade)">
    <ellipse cx="0" cy="0" rx="200" ry="150" fill="url(#rgrad1)" filter="url(#blur3)" opacity="0.3"/>
  </g>
  <g transform="translate(1306.6, 237.1)" mask="url(#maskStripes)">
    <ellipse cx="0" cy="0" rx="200" ry="150" fill="url(#rgrad2)" filter="url(#blur3)" opacity="0.3"/>
  </g>
</svg>