<?xml version="1.0" encoding="UTF-8"?>
<svg xmlns="http://www.w3.org/2000/svg" viewBox="0 0 1920 1080" width="1920" height="1080">
  <defs>
    <filter id="blur0" x="-50%" y="-50%" width="200%" height="200%">
      <feGaussianBlur in="SourceGraphic" stdDeviation="1"/>
    </filter>
    <filter id="blur1" x="-50%" y="-50%" width="200%" height="200%">
      <feGaussianBlur in="SourceGraphic" stdDeviation="3"/>
    </filter>
    <filter id="blur2" x="-50%" y="-50%" width="200%" height="200%">
      <feGaussianBlur in="SourceGraphic" stdDeviation="5"/>
    </filter>
    <filter id="blur3" x="-50%" y="-50%" width="200%" height="200%">
      <feGaussianBlur in="SourceGraphic" stdDeviation="7"/>
    </filter>
    <filter id="blur4" x="-50%" y="-50%" width="200%" height="200%">
      <feGaussianBlur in="SourceGraphic" stdDeviation="9"/>
    </filter>
    <filter id="shadow" x="-50%" y="-50%" width="200%" height="200%">
      <feGaussianBlur in="SourceAlpha" stdDeviation="3" result="blur"/>
      <feOffset in="blur" dx="4" dy="4" result="offsetBlur"/>
      <feMerge>
        <feMergeNode in="offsetBlur"/>
        <feMergeNode in="SourceGraphic"/>
      </feMerge>
    </filter>
    <linearGradient id="lgrad0" x1="0%" y1="0%" x2="81.5%" y2="11.1%">
      <stop offset="0%" stop-color="#FF6B6B"/>
      <stop offset="33%" stop-color="#4ECDC4"/>
      <stop offset="66%" stop-color="#45B7D1"/>
      <stop offset="100%" stop-color="#96E6A1"/>
    </linearGradient>
    <linearGradient id="lgrad1" x1="0%" y1="0%" x2="96.7%" y2="32.1%">
      <stop offset="0%" stop-color="#FFE66D"/>
      <stop offset="33%" stop-color="#FF6B6B"/>
      <stop offset="66%" stop-color="#C44D58"/>
      <stop offset="100%" stop-color="#8B0000"/>
    </linearGradient>
    <linearGradient id="lgrad2" x1="0%" y1="0%" x2="99.4%" y2="57.8%">
      <stop offset="0%" stop-color="#4169E1"/>
      <stop offset="33%" stop-color="#7B68EE"/>
      <stop offset="66%" stop-color="#9370DB"/>
      <stop offset="100%" stop-color="#FFD700"/>
    </linearGradient>
    <linearGradient id="lgrad3" x1="0%" y1="0%" x2="88.9%" y2="81.5%">
      <stop offset="0%" stop-color="#32CD32"/>
      <stop offset="33%" stop-color="#228B22"/>
      <stop offset="66%" stop-color="#006400"/>
      <stop offset="100%" stop-color="#ADFF2F"/>
    </linearGradient>
    <linearGradient id="lgrad4" x1="0%" y1="0%" x2="67.9%" y2="96.7%">
      <stop offset="0%" stop-color="#FF1493"/>
      <stop offset="33%" stop-color="#FF69B4"/>
      <stop offset="66%" stop-color="#FFB6C1"/>
      <stop offset="100%" stop-color="#FFC0CB"/>
    </linearGradient>
    <radialGradient id="rgrad0" cx="68.4%" cy="55.6%" r="60%">
      <stop offset="0%" stop-color="#FF6B6B" stop-opacity="1"/>
      <stop offset="50%" stop-color="#4ECDC4" stop-opacity="0.8"/>
      <stop offset="100%" stop-color="#45B7D1" stop-opacity="0.6"/>
    </radialGradient>
    <radialGradient id="rgrad1" cx="38.4%" cy="63.6%" r="60%">
      <stop offset="0%" stop-color="#FFE66D" stop-opacity="1"/>
      <stop offset="50%" stop-color="#FF6B6B" stop-opacity="0.8"/>
      <stop offset="100%" stop-color="#C44D58" stop-opacity="0.6"/>
    </radialGradient>
    <radialGradient id="rgrad2" cx="48.4%" cy="31.6%" r="60%">
      <stop offset="0%" stop-color="#4169E1" stop-opacity="1"/>
      <stop offset="50%" stop-color="#7B68EE" stop-opacity="0.8"/>
      <stop offset="100%" stop-color="#9370DB" stop-opacity="0.6"/>
    </radialGradient>
    <radialGradient id="rgrad3" cx="58.4%" cy="39.6%" r="60%">
      <stop offset="0%" stop-color="#32CD32" stop-opacity="1"/>
      <stop offset="50%" stop-color="#228B22" stop-opacity="0.8"/>
      <stop offset="100%" stop-color="#006400" stop-opacity="0.6"/>
    </radialGradient>
    <radialGradient id="rgrad4" cx="68.4%" cy="47.6%" r="60%">
      <stop offset="0%" stop-color="#FF1493" stop-opacity="1"/>
      <stop offset="50%" stop-color="#FF69B4" stop-opacity="0.8"/>
      <stop offset="100%" stop-color="#FFB6C1" stop-opacity="0.6"/>
    </radialGradient>
    <clipPath id="clipCircle">
      <circle cx="0" cy="0" r="50"/>
    </clipPath>
    <clipPath id="clipStar">
      <path d="M0.0,-50.0 L14.7,-20.2 L47.6,-15.5 L23.8,7.7 L29.4,40.5 L0.0,25.0 L-29.4,40.5 L-23.8,7.7 L-47.6,-15.5 L-14.7,-20.2Z"/>
    </clipPath>
    <clipPath id="clipHex">
      <path d="M39.0,22.5 L0.0,45.0 L-39.0,22.5 L-39.0,-22.5 L-0.0,-45.0 L39.0,-22.5Z"/>
    </clipPath>
    <clipPath id="clipRect">
      <rect x="-40" y="-30" width="80" height="60" rx="10"/>
    </clipPath>
    <clipPath id="clipDynamic">
      <circle cx="0" cy="0" r="32.4"/>
    </clipPath>
    <mask id="maskGradient" maskContentUnits="objectBoundingBox">
      <rect x="0" y="0" width="1" height="1" fill="url(#maskGrad)"/>
    </mask>
    <linearGradient id="maskGrad" x1="0%" y1="0%" x2="100%" y2="100%">
      <stop offset="0%" stop-color="white"/>
      <stop offset="100%" stop-color="black"/>
    </linearGradient>
    <mask id="maskCircleFade">
      <circle cx="0" cy="0" r="60" fill="white"/>
      <circle cx="0" cy="0" r="30" fill="black"/>
    </mask>
    <mask id="maskStripes">
      <rect x="-50" y="-50" width="100" height="100" fill="white"/>
      <rect x="-50" y="-40" width="100" height="10" fill="black"/>
      <rect x="-50" y="-20" width="100" height="10" fill="black"/>
      <rect x="-50" y="0" width="100" height="10" fill="black"/>
      <rect x="-50" y="20" width="100" height="10" fill="black"/>
      <rect x="-50" y="40" width="100" height="10" fill="black"/>
    </mask>
    <mask id="maskDynamic">
      <rect x="-60" y="-60" width="120" height="120" fill="white" fill-opacity="1.00"/>
      <circle cx="0" cy="0" r="25" fill="white"/>
    </mask>
  </defs>
  <rect width="1920" height="1080" fill="url(#lgrad0)"/>
  <g transform="translate(94.8, 75.4)">
      <g transform="translate(-0.86,-3.94) rotate(4.98) scale(1.000)">
        <g transform="translate(-3.12,-3.56) rotate(9.59) scale(0.980)">
        <g transform="translate(-4.61,-2.86) rotate(13.26) scale(0.960)">
        <g transform="translate(-4.97,-1.91) rotate(15.47) scale(0.940)" clip-path="url(#clipCircle)">
        <g transform="translate(-4.12,-0.79) rotate(15.80) scale(0.920)">
        <g transform="translate(-2.26,0.41) rotate(13.97) scale(0.900)">
        <g transform="translate(0.16,1.57) rotate(9.82) scale(0.880)">
        <path d="M0.0,-74.9 L22.0,-30.3 L71.3,-23.2 L35.6,11.6 L44.1,60.6 L0.0,37.5 L-44.1,60.6 L-35.6,11.6 L-71.3,-23.2 L-22.0,-30.3Z" fill="url(#lgrad0)" filter="url(#blur0)" opacity="0.90"/>
      </g>
      </g>
      </g>
      </g>
      </g>
      </g>
      </g>
  </g>
  <g transform="translate(301.3, 83.9)">
      <g transform="translate(-4.61,-1.55) rotate(4.98) scale(1.000)">
        <g transform="translate(-4.97,-0.39) rotate(9.59) scale(0.980)">
        <g transform="translate(-4.12,0.80) rotate(13.26) scale(0.960)">
        <g transform="translate(-2.26,1.93) rotate(15.47) scale(0.940)">
        <g transform="translate(0.16,2.88) rotate(15.80) scale(0.920)">
        <g transform="translate(2.53,3.57) rotate(13.97) scale(0.900)" mask="url(#maskCircleFade)">
        <g transform="translate(4.29,3.94) rotate(9.82) scale(0.880)">
        <rect x="-33.5" y="-33.5" width="67.0" height="67.0" rx="16.7" fill="url(#rgrad1)" filter="url(#shadow)" opacity="0.87"/>
        <circle cx="0" cy="0" r="22.3" fill="url(#rgrad2)" opacity="0.61"/>
      </g>
      </g>
      </g>
      </g>
      </g>
      </g>
      </g>
  </g>
  <g transform="translate(512.3, 100.1)">
      <g transform="translate(-4.12,2.27) rotate(4.98) scale(1.000)">
        <g transform="translate(-2.26,3.14) rotate(9.59) scale(0.980)">
        <g transform="translate(0.16,3.73) rotate(13.26) scale(0.960)">
        <g transform="translate(2.53,3.99) rotate(15.47) scale(0.940)">
        <g transform="translate(4.29,3.89) rotate(15.80) scale(0.920)">
        <g transform="translate(5.00,3.45) rotate(13.97) scale(0.900)">
        <g transform="translate(4.48,2.70) rotate(9.82) scale(0.880)">
        <path d="M27.3,15.8 L0.0,31.6 L-27.3,15.8 L-27.3,-15.8 L-0.0,-31.6 L27.3,-15.8Z" fill="url(#rgrad2)" filter="url(#blur2)" opacity="0.81"/>
        <ellipse cx="0" cy="0" rx="13.2" ry="8.8" fill="#FFFFFF" opacity="0.40"/>
      </g>
      </g>
      </g>
      </g>
      </g>
      </g>
      </g>
  </g>
  <g transform="translate(730.2, 116.1)">
      <g transform="translate(0.16,4.00) rotate(4.98) scale(1.000)">
        <g transform="translate(2.53,3.78) rotate(9.59) scale(0.980)">
        <g transform="translate(4.29,3.23) rotate(13.26) scale(0.960)">
        <g transform="translate(5.00,2.39) rotate(15.47) scale(0.940)" clip-path="url(#clipRect)">
        <g transform="translate(4.48,1.33) rotate(15.80) scale(0.920)">
        <g transform="translate(2.87,0.16) rotate(13.97) scale(0.900)">
        <g transform="translate(0.55,-1.03) rotate(9.82) scale(0.880)">
        <circle cx="0" cy="0" r="22.5" fill="url(#lgrad3)" filter="url(#shadow)" opacity="0.72"/>
        <text x="0" y="5" text-anchor="middle" font-family="Arial, sans-serif" font-size="14" fill="#FFFFFF" opacity="0.72">528</text>
      </g>
      </g>
      </g>
      </g>
      </g>
      </g>
      </g>
  </g>
  <g transform="translate(955.3, 124.6)">
      <g transform="translate(4.29,2.05) rotate(4.98) scale(1.000)">
        <g transform="translate(5.00,0.95) rotate(9.59) scale(0.980)">
        <g transform="translate(4.48,-0.24) rotate(13.26) scale(0.960)">
        <g transform="translate(2.87,-1.41) rotate(15.47) scale(0.940)">
        <g transform="translate(0.55,-2.45) rotate(15.80) scale(0.920)">
        <g transform="translate(-1.90,-3.28) rotate(13.97) scale(0.900)" mask="url(#maskGradient)">
        <g transform="translate(-3.88,-3.81) rotate(9.82) scale(0.880)">
        <path d="M0.0,-51.2 L15.1,-20.7 L48.7,-15.8 L24.4,7.9 L30.1,41.4 L0.0,25.6 L-30.1,41.4 L-24.4,7.9 L-48.7,-15.8 L-15.1,-20.7Z" fill="url(#rgrad4)" filter="url(#blur4)" opacity="0.61"/>
      </g>
      </g>
      </g>
      </g>
      </g>
      </g>
      </g>
  </g>
  <g transform="translate(1186.5, 121.6)">
      <g transform="translate(4.48,-1.78) rotate(4.98) scale(1.000)">
        <g transform="translate(2.87,-2.76) rotate(9.59) scale(0.980)">
        <g transform="translate(0.55,-3.49) rotate(13.26) scale(0.960)">
        <g transform="translate(-1.90,-3.91) rotate(15.47) scale(0.940)">
        <g transform="translate(-3.88,-3.98) rotate(15.80) scale(0.920)">
        <g transform="translate(-4.92,-3.70) rotate(13.97) scale(0.900)">
        <g transform="translate(-4.75,-3.09) rotate(9.82) scale(0.880)">
        <rect x="-32.7" y="-32.7" width="65.5" height="65.5" rx="16.4" fill="url(#rgrad0)" filter="url(#shadow)" opacity="0.49"/>
        <circle cx="0" cy="0" r="21.8" fill="url(#rgrad1)" opacity="0.35"/>
      </g>
      </g>
      </g>
      </g>
      </g>
      </g>
      </g>
  </g>
  <g transform="translate(1420.9, 108.3)">
      <g transform="translate(0.55,-3.98) rotate(4.98) scale(1.000)">
        <g transform="translate(-1.90,-3.93) rotate(9.59) scale(0.980)">
        <g transform="translate(-3.88,-3.53) rotate(13.26) scale(0.960)">
        <g transform="translate(-4.92,-2.82) rotate(15.47) scale(0.940)" clip-path="url(#clipStar)">
        <g transform="translate(-4.75,-1.85) rotate(15.80) scale(0.920)">
        <g transform="translate(-3.41,-0.72) rotate(13.97) scale(0.900)">
        <g transform="translate(-1.25,0.47) rotate(9.82) scale(0.880)">
        <path d="M38.8,22.4 L0.0,44.8 L-38.8,22.4 L-38.8,-22.4 L-0.0,-44.8 L38.8,-22.4Z" fill="url(#lgrad1)" filter="url(#blur1)" opacity="0.38"/>
        <ellipse cx="0" cy="0" rx="18.7" ry="12.5" fill="#FFFFFF" opacity="0.19"/>
      </g>
      </g>
      </g>
      </g>
      </g>
      </g>
      </g>
  </g>
  <g transform="translate(1655.2, 91.2)">
      <g transform="translate(-3.88,-2.52) rotate(4.98) scale(1.000)">
        <g transform="translate(-4.92,-1.49) rotate(9.59) scale(0.980)">
        <g transform="translate(-4.75,-0.32) rotate(13.26) scale(0.960)">
        <g transform="translate(-3.41,0.87) rotate(15.47) scale(0.940)">
        <g transform="translate(-1.25,1.98) rotate(15.80) scale(0.920)">
        <g transform="translate(1.23,2.92) rotate(13.97) scale(0.900)" mask="url(#maskDynamic)">
        <g transform="translate(3.40,3.60) rotate(9.82) scale(0.880)">
        <circle cx="0" cy="0" r="35.2" fill="url(#rgrad2)" filter="url(#shadow)" opacity="0.27"/>
        <text x="0" y="5" text-anchor="middle" font-family="Arial, sans-serif" font-size="14" fill="#FFFFFF" opacity="0.27">528</text>
      </g>
      </g>
      </g>
      </g>
      </g>
      </g>
      </g>
  </g>
  <g transform="translate(125.7, 358.2)">
      <g transform="translate(-4.75,1.25) rotate(4.98) scale(1.000)">
        <g transform="translate(-3.41,2.32) rotate(9.59) scale(0.980)">
        <g transform="translate(-1.25,3.18) rotate(13.26) scale(0.960)">
        <g transform="translate(1.23,3.75) rotate(15.47) scale(0.940)">
        <g transform="translate(3.40,3.99) rotate(15.80) scale(0.920)">
        <g transform="translate(4.74,3.88) rotate(13.97) scale(0.900)">
        <g transform="translate(4.92,3.41) rotate(9.82) scale(0.880)">
        <path d="M0.0,-56.5 L16.6,-22.9 L53.8,-17.5 L26.9,8.7 L33.2,45.7 L0.0,28.3 L-33.2,45.7 L-26.9,8.7 L-53.8,-17.5 L-16.6,-22.9Z" fill="url(#rgrad3)" filter="url(#blur3)" opacity="0.18"/>
      </g>
      </g>
      </g>
      </g>
      </g>
      </g>
      </g>
  </g>
  <g transform="translate(350.0, 355.4)">
      <g transform="translate(-1.25,3.87) rotate(4.98) scale(1.000)">
        <g transform="translate(1.23,4.00) rotate(9.59) scale(0.980)">
        <g transform="translate(3.40,3.76) rotate(13.26) scale(0.960)">
        <g transform="translate(4.74,3.19) rotate(15.47) scale(0.940)" clip-path="url(#clipDynamic)">
        <g transform="translate(4.92,2.33) rotate(15.80) scale(0.920)">
        <g transform="translate(3.90,1.27) rotate(13.97) scale(0.900)">
        <g transform="translate(1.92,0.09) rotate(9.82) scale(0.880)">
        <rect x="-22.9" y="-22.9" width="45.9" height="45.9" rx="11.5" fill="url(#lgrad4)" filter="url(#shadow)" opacity="0.12"/>
        <circle cx="0" cy="0" r="15.3" fill="url(#rgrad0)" opacity="0.09"/>
      </g>
      </g>
      </g>
      </g>
      </g>
      </g>
      </g>
  </g>
  <g transform="translate(566.9, 364.3)">
      <g transform="translate(3.40,2.93) rotate(4.98) scale(1.000)">
        <g transform="translate(4.74,2.00) rotate(9.59) scale(0.980)">
        <g transform="translate(4.92,0.88) rotate(13.26) scale(0.960)">
        <g transform="translate(3.90,-0.31) rotate(15.47) scale(0.940)">
        <g transform="translate(1.92,-1.47) rotate(15.80) scale(0.920)">
        <g transform="translate(-0.53,-2.51) rotate(13.97) scale(0.900)" mask="url(#maskStripes)">
        <g transform="translate(-2.85,-3.32) rotate(9.82) scale(0.880)">
        <path d="M25.0,14.4 L0.0,28.9 L-25.0,14.4 L-25.0,-14.4 L-0.0,-28.9 L25.0,-14.4Z" fill="url(#rgrad0)" filter="url(#blur0)" opacity="0.10"/>
        <ellipse cx="0" cy="0" rx="12.0" ry="8.0" fill="#FFFFFF" opacity="0.05"/>
      </g>
      </g>
      </g>
      </g>
      </g>
      </g>
      </g>
  </g>
  <g transform="translate(777.2, 380.5)">
      <g transform="translate(4.92,-0.71) rotate(4.98) scale(1.000)">
        <g transform="translate(3.90,-1.84) rotate(9.59) scale(0.980)">
        <g transform="translate(1.92,-2.81) rotate(13.26) scale(0.960)">
        <g transform="translate(-0.53,-3.52) rotate(15.47) scale(0.940)">
        <g transform="translate(-2.85,-3.93) rotate(15.80) scale(0.920)">
        <g transform="translate(-4.47,-3.98) rotate(13.97) scale(0.900)">
        <g transform="translate(-5.00,-3.67) rotate(9.82) scale(0.880)">
        <circle cx="0" cy="0" r="30.7" fill="url(#rgrad1)" filter="url(#shadow)" opacity="0.11"/>
        <text x="0" y="5" text-anchor="middle" font-family="Arial, sans-serif" font-size="14" fill="#FFFFFF" opacity="0.11">528</text>
      </g>
      </g>
      </g>
      </g>
      </g>
      </g>
      </g>
  </g>
  <g transform="translate(983.3, 396.5)">
      <g transform="translate(1.92,-3.69) rotate(4.98) scale(1.000)">
        <g transform="translate(-0.53,-3.98) rotate(9.59) scale(0.980)">
        <g transform="translate(-2.85,-3.91) rotate(13.26) scale(0.960)">
        <g transform="translate(-4.47,-3.50) rotate(15.47) scale(0.940)" clip-path="url(#clipHex)">
        <g transform="translate(-5.00,-2.77) rotate(15.80) scale(0.920)">
        <g transform="translate(-4.30,-1.79) rotate(13.97) scale(0.900)">
        <g transform="translate(-2.55,-0.65) rotate(9.82) scale(0.880)">
        <path d="M0.0,-73.3 L21.5,-29.7 L69.7,-22.7 L34.9,11.3 L43.1,59.3 L0.0,36.7 L-43.1,59.3 L-34.9,11.3 L-69.7,-22.7 L-21.5,-29.7Z" fill="url(#lgrad2)" filter="url(#blur2)" opacity="0.16"/>
      </g>
      </g>
      </g>
      </g>
      </g>
      </g>
      </g>
  </g>
  <g transform="translate(1188.6, 404.7)">
      <g transform="translate(-2.85,-3.29) rotate(4.98) scale(1.000)">
        <g transform="translate(-4.47,-2.47) rotate(9.59) scale(0.980)">
        <g transform="translate(-5.00,-1.42) rotate(13.26) scale(0.960)">
        <g transform="translate(-4.30,-0.26) rotate(15.47) scale(0.940)">
        <g transform="translate(-2.55,0.93) rotate(15.80) scale(0.920)">
        <g transform="translate(-0.17,2.04) rotate(13.97) scale(0.900)" mask="url(#maskCircleFade)">
        <g transform="translate(2.24,2.97) rotate(9.82) scale(0.880)">
        <rect x="-36.5" y="-36.5" width="73.0" height="73.0" rx="18.3" fill="url(#rgrad3)" filter="url(#shadow)" opacity="0.23"/>
        <circle cx="0" cy="0" r="24.3" fill="url(#rgrad4)" opacity="0.16"/>
      </g>
      </g>
      </g>
      </g>
      </g>
      </g>
      </g>
  </g>
  <g transform="translate(1396.7, 401.3)">
      <g transform="translate(-5.00,0.14) rotate(4.98) scale(1.000)">
        <g transform="translate(-4.30,1.32) rotate(9.59) scale(0.980)">
        <g transform="translate(-2.55,2.38) rotate(13.26) scale(0.960)">
        <g transform="translate(-0.17,3.22) rotate(15.47) scale(0.940)">
        <g transform="translate(2.24,3.78) rotate(15.80) scale(0.920)">
        <g transform="translate(4.11,4.00) rotate(13.97) scale(0.900)">
        <g transform="translate(4.97,3.86) rotate(9.82) scale(0.880)">
        <path d="M31.6,18.2 L0.0,36.5 L-31.6,18.2 L-31.6,-18.2 L-0.0,-36.5 L31.6,-18.2Z" fill="url(#rgrad4)" filter="url(#blur4)" opacity="0.33"/>
        <ellipse cx="0" cy="0" rx="15.2" ry="10.1" fill="#FFFFFF" opacity="0.17"/>
      </g>
      </g>
      </g>
      </g>
      </g>
      </g>
      </g>
  </g>
  <g transform="translate(1610.5, 387.9)">
      <g transform="translate(-2.55,3.44) rotate(4.98) scale(1.000)">
        <g transform="translate(-0.17,3.89) rotate(9.59) scale(0.980)">
        <g transform="translate(2.24,3.99) rotate(13.26) scale(0.960)">
        <g transform="translate(4.11,3.74) rotate(15.47) scale(0.940)" clip-path="url(#clipCircle)">
        <g transform="translate(4.97,3.15) rotate(15.80) scale(0.920)">
        <g transform="translate(4.62,2.28) rotate(13.97) scale(0.900)">
        <g transform="translate(3.13,1.20) rotate(9.82) scale(0.880)">
        <circle cx="0" cy="0" r="23.9" fill="url(#lgrad0)" filter="url(#shadow)" opacity="0.45"/>
        <text x="0" y="5" text-anchor="middle" font-family="Arial, sans-serif" font-size="14" fill="#FFFFFF" opacity="0.45">528</text>
      </g>
      </g>
      </g>
      </g>
      </g>
      </g>
      </g>
  </g>
  <g transform="translate(71.5, 650.8)">
      <g transform="translate(2.24,3.58) rotate(4.98) scale(1.000)">
        <g transform="translate(4.11,2.89) rotate(9.59) scale(0.980)">
        <g transform="translate(4.97,1.94) rotate(13.26) scale(0.960)">
        <g transform="translate(4.62,0.82) rotate(15.47) scale(0.940)">
        <g transform="translate(3.13,-0.38) rotate(15.80) scale(0.920)">
        <g transform="translate(0.88,-1.54) rotate(13.97) scale(0.900)" mask="url(#maskGradient)">
        <g transform="translate(-1.59,-2.56) rotate(9.82) scale(0.880)">
        <path d="M0.0,-46.1 L13.5,-18.6 L43.8,-14.2 L21.9,7.1 L27.1,37.3 L0.0,23.0 L-27.1,37.3 L-21.9,7.1 L-43.8,-14.2 L-13.5,-18.6Z" fill="url(#rgrad1)" filter="url(#blur1)" opacity="0.57"/>
      </g>
      </g>
      </g>
      </g>
      </g>
      </g>
      </g>
  </g>
  <g transform="translate(299.5, 638.0)">
      <g transform="translate(4.97,0.42) rotate(4.98) scale(1.000)">
        <g transform="translate(4.62,-0.77) rotate(9.59) scale(0.980)">
        <g transform="translate(3.13,-1.90) rotate(13.26) scale(0.960)">
        <g transform="translate(0.88,-2.85) rotate(15.47) scale(0.940)">
        <g transform="translate(-1.59,-3.55) rotate(15.80) scale(0.920)">
        <g transform="translate(-3.67,-3.94) rotate(13.97) scale(0.900)">
        <g transform="translate(-4.85,-3.97) rotate(9.82) scale(0.880)">
        <rect x="-28.6" y="-28.6" width="57.1" height="57.1" rx="14.3" fill="url(#rgrad2)" filter="url(#shadow)" opacity="0.68"/>
        <circle cx="0" cy="0" r="19.0" fill="url(#rgrad3)" opacity="0.48"/>
      </g>
      </g>
      </g>
      </g>
      </g>
      </g>
      </g>
  </g>
  <g transform="translate(532.5, 635.5)">
      <g transform="translate(3.13,-3.12) rotate(4.98) scale(1.000)">
        <g transform="translate(0.88,-3.72) rotate(9.59) scale(0.980)">
        <g transform="translate(-1.59,-3.99) rotate(13.26) scale(0.960)">
        <g transform="translate(-3.67,-3.90) rotate(15.47) scale(0.940)" clip-path="url(#clipRect)">
        <g transform="translate(-4.85,-3.46) rotate(15.80) scale(0.920)">
        <g transform="translate(-4.84,-2.72) rotate(13.97) scale(0.900)">
        <g transform="translate(-3.65,-1.73) rotate(9.82) scale(0.880)">
        <path d="M36.8,21.3 L0.0,42.5 L-36.8,21.3 L-36.8,-21.3 L-0.0,-42.5 L36.8,-21.3Z" fill="url(#lgrad3)" filter="url(#blur3)" opacity="0.78"/>
        <ellipse cx="0" cy="0" rx="17.7" ry="11.8" fill="#FFFFFF" opacity="0.39"/>
      </g>
      </g>
      </g>
      </g>
      </g>
      </g>
      </g>
  </g>
  <g transform="translate(767.4, 644.6)">
      <g transform="translate(-1.59,-3.79) rotate(4.98) scale(1.000)">
        <g transform="translate(-3.67,-3.25) rotate(9.59) scale(0.980)">
        <g transform="translate(-4.85,-2.41) rotate(13.26) scale(0.960)">
        <g transform="translate(-4.84,-1.36) rotate(15.47) scale(0.940)">
        <g transform="translate(-3.65,-0.19) rotate(15.80) scale(0.920)">
        <g transform="translate(-1.56,1.00) rotate(13.97) scale(0.900)" mask="url(#maskDynamic)">
        <g transform="translate(0.90,2.10) rotate(9.82) scale(0.880)">
        <circle cx="0" cy="0" r="37.3" fill="url(#rgrad4)" filter="url(#shadow)" opacity="0.85"/>
        <text x="0" y="5" text-anchor="middle" font-family="Arial, sans-serif" font-size="14" fill="#FFFFFF" opacity="0.85">528</text>
      </g>
      </g>
      </g>
      </g>
      </g>
      </g>
      </g>
  </g>
  <g transform="translate(1000.4, 660.9)">
      <g transform="translate(-4.85,-0.98) rotate(4.98) scale(1.000)">
        <g transform="translate(-4.84,0.21) rotate(9.59) scale(0.980)">
        <g transform="translate(-3.65,1.38) rotate(13.26) scale(0.960)">
        <g transform="translate(-1.56,2.43) rotate(15.47) scale(0.940)">
        <g transform="translate(0.90,3.26) rotate(15.80) scale(0.920)">
        <g transform="translate(3.15,3.80) rotate(13.97) scale(0.900)">
        <g transform="translate(4.63,4.00) rotate(9.82) scale(0.880)">
        <path d="M0.0,-64.9 L19.1,-26.3 L61.7,-20.1 L30.9,10.0 L38.2,52.5 L0.0,32.5 L-38.2,52.5 L-30.9,10.0 L-61.7,-20.1 L-19.1,-26.3Z" fill="url(#rgrad0)" filter="url(#blur0)" opacity="0.89"/>
      </g>
      </g>
      </g>
      </g>
      </g>
      </g>
      </g>
  </g>
  <g transform="translate(1228.5, 676.8)">
      <g transform="translate(-3.65,2.73) rotate(4.98) scale(1.000)">
        <g transform="translate(-1.56,3.47) rotate(9.59) scale(0.980)">
        <g transform="translate(0.90,3.91) rotate(13.26) scale(0.960)">
        <g transform="translate(3.15,3.99) rotate(15.47) scale(0.940)" clip-path="url(#clipStar)">
        <g transform="translate(4.63,3.71) rotate(15.80) scale(0.920)">
        <g transform="translate(4.97,3.11) rotate(13.97) scale(0.900)">
        <g transform="translate(4.10,2.22) rotate(9.82) scale(0.880)">
        <rect x="-25.4" y="-25.4" width="50.7" height="50.7" rx="12.7" fill="url(#lgrad1)" filter="url(#shadow)" opacity="0.90"/>
        <circle cx="0" cy="0" r="16.9" fill="url(#rgrad2)" opacity="0.63"/>
      </g>
      </g>
      </g>
      </g>
      </g>
      </g>
      </g>
  </g>
  <g transform="translate(1449.5, 684.8)">
      <g transform="translate(0.90,3.93) rotate(4.98) scale(1.000)">
        <g transform="translate(3.15,3.54) rotate(9.59) scale(0.980)">
        <g transform="translate(4.63,2.84) rotate(13.26) scale(0.960)">
        <g transform="translate(4.97,1.88) rotate(15.47) scale(0.940)">
        <g transform="translate(4.10,0.75) rotate(15.80) scale(0.920)">
        <g transform="translate(2.22,-0.44) rotate(13.97) scale(0.900)" mask="url(#maskStripes)">
        <g transform="translate(-0.20,-1.60) rotate(9.82) scale(0.880)">
        <path d="M23.4,13.5 L0.0,27.0 L-23.4,13.5 L-23.4,-13.5 L-0.0,-27.0 L23.4,-13.5Z" fill="url(#rgrad2)" filter="url(#blur2)" opacity="0.87"/>
        <ellipse cx="0" cy="0" rx="11.3" ry="7.5" fill="#FFFFFF" opacity="0.43"/>
      </g>
      </g>
      </g>
      </g>
      </g>
      </g>
      </g>
  </g>
  <g transform="translate(1663.4, 681.1)">
      <g transform="translate(4.63,1.52) rotate(4.98) scale(1.000)">
        <g transform="translate(4.97,0.36) rotate(9.59) scale(0.980)">
        <g transform="translate(4.10,-0.84) rotate(13.26) scale(0.960)">
        <g transform="translate(2.22,-1.96) rotate(15.47) scale(0.940)">
        <g transform="translate(-0.20,-2.90) rotate(15.80) scale(0.920)">
        <g transform="translate(-2.57,-3.58) rotate(13.97) scale(0.900)">
        <g transform="translate(-4.31,-3.95) rotate(9.82) scale(0.880)">
        <circle cx="0" cy="0" r="26.6" fill="url(#rgrad3)" filter="url(#shadow)" opacity="0.81"/>
        <text x="0" y="5" text-anchor="middle" font-family="Arial, sans-serif" font-size="14" fill="#FFFFFF" opacity="0.81">528</text>
      </g>
      </g>
      </g>
      </g>
      </g>
      </g>
      </g>
  </g>
  <g transform="translate(111.5, 947.5)">
      <g transform="translate(4.10,-2.29) rotate(4.98) scale(1.000)">
        <g transform="translate(2.22,-3.16) rotate(9.59) scale(0.980)">
        <g transform="translate(-0.20,-3.74) rotate(13.26) scale(0.960)">
        <g transform="translate(-2.57,-3.99) rotate(15.47) scale(0.940)" clip-path="url(#clipDynamic)">
        <g transform="translate(-4.31,-3.89) rotate(15.80) scale(0.920)">
        <g transform="translate(-5.00,-3.43) rotate(13.97) scale(0.900)">
        <g transform="translate(-4.46,-2.67) rotate(9.82) scale(0.880)">
        <path d="M0.0,-67.5 L19.8,-27.3 L64.2,-20.9 L32.1,10.4 L39.7,54.6 L0.0,33.8 L-39.7,54.6 L-32.1,10.4 L-64.2,-20.9 L-19.8,-27.3Z" fill="url(#lgrad4)" filter="url(#blur4)" opacity="0.72"/>
      </g>
      </g>
      </g>
      </g>
      </g>
      </g>
      </g>
  </g>
  <g transform="translate(282.8, 221.2)" mask="url(#maskGradient)">
    <ellipse cx="0" cy="0" rx="200" ry="150" fill="url(#rgrad0)" filter="url(#blur3)" opacity="0.3"/>
  </g>
  <g transform="translate(707.8, 248.6)" mask="url(#maskCircleFade)">
    <ellipse cx="0" cy="0" rx="200" ry="150" fill="url(#rgrad1)" filter="url(#blur3)" opacity="0.3"/>
  </g>
  <g transform="translate(1217.6, 300.2)" mask="url(#maskStripes)">
    <ellipse cx="0" cy="0" rx="200" ry="150" fill="url(#rgrad2)" filter="url(#blur3)" opacity="0.3"/>
  </g>
</svg>