<?xml version="1.0" encoding="UTF-8"?>
<svg xmlns="http://www.w3.org/2000/svg" viewBox="0 0 1920 1080" width="1920" height="1080">
  <defs>
    <filter id="blur0" x="-50%" y="-50%" width="200%" height="200%">
      <feGaussianBlur in="SourceGraphic" stdDeviation="1"/>
    </filter>
    <filter id="blur1" x="-50%" y="-50%" width="200%" height="200%">
      <feGaussianBlur in="SourceGraphic" stdDeviation="3"/>
    </filter>
    <filter id="blur2" x="-50%" y="-50%" width="200%" height="200%">
      <feGaussianBlur in="SourceGraphic" stdDeviation="5"/>
    </filter>
    <filter id="blur3" x="-50%" y="-50%" width="200%" height="200%">
      <feGaussianBlur in="SourceGraphic" stdDeviation="7"/>
    </filter>
    <filter id="blur4" x="-50%" y="-50%" width="200%" height="200%">
      <feGaussianBlur in="SourceGraphic" stdDeviation="9"/>
    </filter>
    <filter id="shadow" x="-50%" y="-50%" width="200%" height="200%">
      <feGaussianBlur in="SourceAlpha" stdDeviation="3" result="blur"/>
      <feOffset in="blur" dx="4" dy="4" result="offsetBlur"/>
      <feMerge>
        <feMergeNode in="offsetBlur"/>
        <feMergeNode in="SourceGraphic"/>
      </feMerge>
    </filter>
    <linearGradient id="lgrad0" x1="0%" y1="0%" x2="40.9%" y2="99.2%">
      <stop offset="0%" stop-color="#FF6B6B"/>
      <stop offset="33%" stop-color="#4ECDC4"/>
      <stop offset="66%" stop-color="#45B7D1"/>
      <stop offset="100%" stop-color="#96E6A1"/>
    </linearGradient>
    <linearGradient id="lgrad1" x1="0%" y1="0%" x2="17.5%" y2="88.0%">
      <stop offset="0%" stop-color="#FFE66D"/>
      <stop offset="33%" stop-color="#FF6B6B"/>
      <stop offset="66%" stop-color="#C44D58"/>
      <stop offset="100%" stop-color="#8B0000"/>
    </linearGradient>
    <linearGradient id="lgrad2" x1="0%" y1="0%" x2="2.9%" y2="66.7%">
      <stop offset="0%" stop-color="#4169E1"/>
      <stop offset="33%" stop-color="#7B68EE"/>
      <stop offset="66%" stop-color="#9370DB"/>
      <stop offset="100%" stop-color="#FFD700"/>
    </linearGradient>
    <linearGradient id="lgrad3" x1="0%" y1="0%" x2="0.8%" y2="40.9%">
      <stop offset="0%" stop-color="#32CD32"/>
      <stop offset="33%" stop-color="#228B22"/>
      <stop offset="66%" stop-color="#006400"/>
      <stop offset="100%" stop-color="#ADFF2F"/>
    </linearGradient>
    <linearGradient id="lgrad4" x1="0%" y1="0%" x2="12.0%" y2="17.5%">
      <stop offset="0%" stop-color="#FF1493"/>
      <stop offset="33%" stop-color="#FF69B4"/>
      <stop offset="66%" stop-color="#FFB6C1"/>
      <stop offset="100%" stop-color="#FFC0CB"/>
    </linearGradient>
    <radialGradient id="rgrad0" cx="39.3%" cy="36.2%" r="60%">
      <stop offset="0%" stop-color="#FF6B6B" stop-opacity="1"/>
      <stop offset="50%" stop-color="#4ECDC4" stop-opacity="0.8"/>
      <stop offset="100%" stop-color="#45B7D1" stop-opacity="0.6"/>
    </radialGradient>
    <radialGradient id="rgrad1" cx="49.3%" cy="44.2%" r="60%">
      <stop offset="0%" stop-color="#FFE66D" stop-opacity="1"/>
      <stop offset="50%" stop-color="#FF6B6B" stop-opacity="0.8"/>
      <stop offset="100%" stop-color="#C44D58" stop-opacity="0.6"/>
    </radialGradient>
    <radialGradient id="rgrad2" cx="59.3%" cy="52.2%" r="60%">
      <stop offset="0%" stop-color="#4169E1" stop-opacity="1"/>
      <stop offset="50%" stop-color="#7B68EE" stop-opacity="0.8"/>
      <stop offset="100%" stop-color="#9370DB" stop-opacity="0.6"/>
    </radialGradient>
    <radialGradient id="rgrad3" cx="69.3%" cy="60.2%" r="60%">
      <stop offset="0%" stop-color="#32CD32" stop-opacity="1"/>
      <stop offset="50%" stop-color="#228B22" stop-opacity="0.8"/>
      <stop offset="100%" stop-color="#006400" stop-opacity="0.6"/>
    </radialGradient>
    <radialGradient id="rgrad4" cx="39.3%" cy="68.2%" r="60%">
      <stop offset="0%" stop-color="#FF1493" stop-opacity="1"/>
      <stop offset="50%" stop-color="#FF69B4" stop-opacity="0.8"/>
      <stop offset="100%" stop-color="#FFB6C1" stop-opacity="0.6"/>
    </radialGradient>
    <clipPath id="clipCircle">
      <circle cx="0" cy="0" r="50"/>
    </clipPath>
    <clipPath id="clipStar">
      <path d="M0.0,-50.0 L14.7,-20.2 L47.6,-15.5 L23.8,7.7 L29.4,40.5 L0.0,25.0 L-29.4,40.5 L-23.8,7.7 L-47.6,-15.5 L-14.7,-20.2Z"/>
    </clipPath>
    <clipPath id="clipHex">
      <path d="M39.0,22.5 L0.0,45.0 L-39.0,22.5 L-39.0,-22.5 L-0.0,-45.0 L39.0,-22.5Z"/>
    </clipPath>
    <clipPath id="clipRect">
      <rect x="-40" y="-30" width="80" height="60" rx="10"/>
    </clipPath>
    <clipPath id="clipDynamic">
      <circle cx="0" cy="0" r="21.9"/>
    </clipPath>
    <mask id="maskGradient" maskContentUnits="objectBoundingBox">
      <rect x="0" y="0" width="1" height="1" fill="url(#maskGrad)"/>
    </mask>
    <linearGradient id="maskGrad" x1="0%" y1="0%" x2="100%" y2="100%">
      <stop offset="0%" stop-color="white"/>
      <stop offset="100%" stop-color="black"/>
    </linearGradient>
    <mask id="maskCircleFade">
      <circle cx="0" cy="0" r="60" fill="white"/>
      <circle cx="0" cy="0" r="30" fill="black"/>
    </mask>
    <mask id="maskStripes">
      <rect x="-50" y="-50" width="100" height="100" fill="white"/>
      <rect x="-50" y="-40" width="100" height="10" fill="black"/>
      <rect x="-50" y="-20" width="100" height="10" fill="black"/>
      <rect x="-50" y="0" width="100" height="10" fill="black"/>
      <rect x="-50" y="20" width="100" height="10" fill="black"/>
      <rect x="-50" y="40" width="100" height="10" fill="black"/>
    </mask>
    <mask id="maskDynamic">
      <rect x="-60" y="-60" width="120" height="120" fill="white" fill-opacity="0.65"/>
      <circle cx="0" cy="0" r="25" fill="white"/>
    </mask>
  </defs>
  <rect width="1920" height="1080" fill="url(#lgrad0)"/>
  <g transform="translate(73.8, 112.2)">
      <g transform="translate(-4.37,1.95) rotate(2.53) scale(1.000)">
        <g transform="translate(-2.67,2.89) rotate(3.25) scale(0.980)">
        <g transform="translate(-0.31,3.58) rotate(1.97) scale(0.960)">
        <g transform="translate(2.12,3.95) rotate(-1.37) scale(0.940)" clip-path="url(#clipCircle)">
        <g transform="translate(4.03,3.96) rotate(-6.63) scale(0.920)">
        <g transform="translate(4.96,3.62) rotate(-13.55) scale(0.900)">
        <g transform="translate(4.67,2.96) rotate(-21.69) scale(0.880)">
        <path d="M0.0,-67.6 L19.9,-27.3 L64.3,-20.9 L32.1,10.4 L39.7,54.7 L0.0,33.8 L-39.7,54.7 L-32.1,10.4 L-64.3,-20.9 L-19.9,-27.3Z" fill="url(#lgrad0)" filter="url(#blur0)" opacity="0.70"/>
      </g>
      </g>
      </g>
      </g>
      </g>
      </g>
      </g>
  </g>
  <g transform="translate(304.0, 123.4)">
      <g transform="translate(-0.31,3.99) rotate(2.53) scale(1.000)">
        <g transform="translate(2.12,3.89) rotate(3.25) scale(0.980)">
        <g transform="translate(4.03,3.44) rotate(1.97) scale(0.960)">
        <g transform="translate(4.96,2.68) rotate(-1.37) scale(0.940)">
        <g transform="translate(4.67,1.68) rotate(-6.63) scale(0.920)">
        <g transform="translate(3.24,0.53) rotate(-13.55) scale(0.900)" mask="url(#maskCircleFade)">
        <g transform="translate(1.02,-0.66) rotate(-21.69) scale(0.880)">
        <rect x="-26.6" y="-26.6" width="53.2" height="53.2" rx="13.3" fill="url(#rgrad1)" filter="url(#shadow)" opacity="0.59"/>
        <circle cx="0" cy="0" r="17.7" fill="url(#rgrad2)" opacity="0.41"/>
      </g>
      </g>
      </g>
      </g>
      </g>
      </g>
      </g>
  </g>
  <g transform="translate(538.1, 123.6)">
      <g transform="translate(4.03,2.37) rotate(2.53) scale(1.000)">
        <g transform="translate(4.96,1.31) rotate(3.25) scale(0.980)">
        <g transform="translate(4.67,0.13) rotate(1.97) scale(0.960)">
        <g transform="translate(3.24,-1.05) rotate(-1.37) scale(0.940)">
        <g transform="translate(1.02,-2.15) rotate(-6.63) scale(0.920)">
        <g transform="translate(-1.46,-3.05) rotate(-13.55) scale(0.900)">
        <g transform="translate(-3.57,-3.68) rotate(-21.69) scale(0.880)">
        <path d="M23.4,13.5 L0.0,27.0 L-23.4,13.5 L-23.4,-13.5 L-0.0,-27.0 L23.4,-13.5Z" fill="url(#rgrad2)" filter="url(#blur2)" opacity="0.47"/>
        <ellipse cx="0" cy="0" rx="11.3" ry="7.5" fill="#FFFFFF" opacity="0.24"/>
      </g>
      </g>
      </g>
      </g>
      </g>
      </g>
      </g>
  </g>
  <g transform="translate(772.7, 112.7)">
      <g transform="translate(4.67,-1.43) rotate(2.53) scale(1.000)">
        <g transform="translate(3.24,-2.47) rotate(3.25) scale(0.980)">
        <g transform="translate(1.02,-3.29) rotate(1.97) scale(0.960)">
        <g transform="translate(-1.46,-3.82) rotate(-1.37) scale(0.940)" clip-path="url(#clipRect)">
        <g transform="translate(-3.57,-4.00) rotate(-6.63) scale(0.920)">
        <g transform="translate(-4.81,-3.83) rotate(-13.55) scale(0.900)">
        <g transform="translate(-4.87,-3.31) rotate(-21.69) scale(0.880)">
        <circle cx="0" cy="0" r="25.3" fill="url(#lgrad3)" filter="url(#shadow)" opacity="0.36"/>
        <text x="0" y="5" text-anchor="middle" font-family="Arial, sans-serif" font-size="14" fill="#FFFFFF" opacity="0.36">831</text>
      </g>
      </g>
      </g>
      </g>
      </g>
      </g>
      </g>
  </g>
  <g transform="translate(1004.2, 95.9)">
      <g transform="translate(1.02,-3.92) rotate(2.53) scale(1.000)">
        <g transform="translate(-1.46,-3.98) rotate(3.25) scale(0.980)">
        <g transform="translate(-3.57,-3.69) rotate(1.97) scale(0.960)">
        <g transform="translate(-4.81,-3.07) rotate(-1.37) scale(0.940)">
        <g transform="translate(-4.87,-2.18) rotate(-6.63) scale(0.920)">
        <g transform="translate(-3.74,-1.09) rotate(-13.55) scale(0.900)" mask="url(#maskGradient)">
        <g transform="translate(-1.70,0.10) rotate(-21.69) scale(0.880)">
        <path d="M0.0,-64.8 L19.0,-26.2 L61.6,-20.0 L30.8,10.0 L38.1,52.4 L0.0,32.4 L-38.1,52.4 L-30.8,10.0 L-61.6,-20.0 L-19.0,-26.2Z" fill="url(#rgrad4)" filter="url(#blur4)" opacity="0.25"/>
      </g>
      </g>
      </g>
      </g>
      </g>
      </g>
      </g>
  </g>
  <g transform="translate(1229.7, 81.0)">
      <g transform="translate(-3.57,-2.80) rotate(2.53) scale(1.000)">
        <g transform="translate(-4.81,-1.83) rotate(3.25) scale(0.980)">
        <g transform="translate(-4.87,-0.70) rotate(1.97) scale(0.960)">
        <g transform="translate(-3.74,0.50) rotate(-1.37) scale(0.940)">
        <g transform="translate(-1.70,1.65) rotate(-6.63) scale(0.920)">
        <g transform="translate(0.77,2.65) rotate(-13.55) scale(0.900)">
        <g transform="translate(3.04,3.42) rotate(-21.69) scale(0.880)">
        <rect x="-37.3" y="-37.3" width="74.6" height="74.6" rx="18.6" fill="url(#rgrad0)" filter="url(#shadow)" opacity="0.17"/>
        <circle cx="0" cy="0" r="24.9" fill="url(#rgrad1)" opacity="0.12"/>
      </g>
      </g>
      </g>
      </g>
      </g>
      </g>
      </g>
  </g>
  <g transform="translate(1448.0, 75.0)">
      <g transform="translate(-4.87,0.89) rotate(2.53) scale(1.000)">
        <g transform="translate(-3.74,2.00) rotate(3.25) scale(0.980)">
        <g transform="translate(-1.70,2.94) rotate(1.97) scale(0.960)">
        <g transform="translate(0.77,3.61) rotate(-1.37) scale(0.940)" clip-path="url(#clipStar)">
        <g transform="translate(3.04,3.96) rotate(-6.63) scale(0.920)">
        <g transform="translate(4.57,3.95) rotate(-13.55) scale(0.900)">
        <g transform="translate(4.98,3.59) rotate(-21.69) scale(0.880)">
        <path d="M36.8,21.3 L0.0,42.5 L-36.8,21.3 L-36.8,-21.3 L-0.0,-42.5 L36.8,-21.3Z" fill="url(#lgrad1)" filter="url(#blur1)" opacity="0.12"/>
        <ellipse cx="0" cy="0" rx="17.7" ry="11.8" fill="#FFFFFF" opacity="0.06"/>
      </g>
      </g>
      </g>
      </g>
      </g>
      </g>
      </g>
  </g>
  <g transform="translate(1659.4, 80.8)">
      <g transform="translate(-1.70,3.76) rotate(2.53) scale(1.000)">
        <g transform="translate(0.77,4.00) rotate(3.25) scale(0.980)">
        <g transform="translate(3.04,3.87) rotate(1.97) scale(0.960)">
        <g transform="translate(4.57,3.40) rotate(-1.37) scale(0.940)">
        <g transform="translate(4.98,2.63) rotate(-6.63) scale(0.920)">
        <g transform="translate(4.17,1.62) rotate(-13.55) scale(0.900)" mask="url(#maskDynamic)">
        <g transform="translate(2.34,0.47) rotate(-21.69) scale(0.880)">
        <circle cx="0" cy="0" r="28.6" fill="url(#rgrad2)" filter="url(#shadow)" opacity="0.10"/>
        <text x="0" y="5" text-anchor="middle" font-family="Arial, sans-serif" font-size="14" fill="#FFFFFF" opacity="0.10">831</text>
      </g>
      </g>
      </g>
      </g>
      </g>
      </g>
      </g>
  </g>
  <g transform="translate(106.1, 375.6)">
      <g transform="translate(3.04,3.17) rotate(2.53) scale(1.000)">
        <g transform="translate(4.57,2.31) rotate(3.25) scale(0.980)">
        <g transform="translate(4.98,1.25) rotate(1.97) scale(0.960)">
        <g transform="translate(4.17,0.07) rotate(-1.37) scale(0.940)">
        <g transform="translate(2.34,-1.12) rotate(-6.63) scale(0.920)">
        <g transform="translate(-0.06,-2.20) rotate(-13.55) scale(0.900)">
        <g transform="translate(-2.45,-3.09) rotate(-21.69) scale(0.880)">
        <path d="M0.0,-46.1 L13.5,-18.6 L43.8,-14.2 L21.9,7.1 L27.1,37.3 L0.0,23.1 L-27.1,37.3 L-21.9,7.1 L-43.8,-14.2 L-13.5,-18.6Z" fill="url(#rgrad3)" filter="url(#blur3)" opacity="0.12"/>
      </g>
      </g>
      </g>
      </g>
      </g>
      </g>
      </g>
  </g>
  <g transform="translate(311.3, 392.5)">
      <g transform="translate(4.98,-0.33) rotate(2.53) scale(1.000)">
        <g transform="translate(4.17,-1.50) rotate(3.25) scale(0.980)">
        <g transform="translate(2.34,-2.52) rotate(1.97) scale(0.960)">
        <g transform="translate(-0.06,-3.33) rotate(-1.37) scale(0.940)" clip-path="url(#clipDynamic)">
        <g transform="translate(-2.45,-3.84) rotate(-6.63) scale(0.920)">
        <g transform="translate(-4.24,-4.00) rotate(-13.55) scale(0.900)">
        <g transform="translate(-4.99,-3.81) rotate(-21.69) scale(0.880)">
        <rect x="-23.9" y="-23.9" width="47.7" height="47.7" rx="11.9" fill="url(#lgrad4)" filter="url(#shadow)" opacity="0.17"/>
        <circle cx="0" cy="0" r="15.9" fill="url(#rgrad0)" opacity="0.12"/>
      </g>
      </g>
      </g>
      </g>
      </g>
      </g>
      </g>
  </g>
  <g transform="translate(518.6, 403.5)">
      <g transform="translate(2.34,-3.53) rotate(2.53) scale(1.000)">
        <g transform="translate(-0.06,-3.93) rotate(3.25) scale(0.980)">
        <g transform="translate(-2.45,-3.97) rotate(1.97) scale(0.960)">
        <g transform="translate(-4.24,-3.66) rotate(-1.37) scale(0.940)">
        <g transform="translate(-4.99,-3.03) rotate(-6.63) scale(0.920)">
        <g transform="translate(-4.52,-2.12) rotate(-13.55) scale(0.900)" mask="url(#maskStripes)">
        <g transform="translate(-2.94,-1.02) rotate(-21.69) scale(0.880)">
        <path d="M31.5,18.2 L0.0,36.4 L-31.5,18.2 L-31.5,-18.2 L-0.0,-36.4 L31.5,-18.2Z" fill="url(#rgrad0)" filter="url(#blur0)" opacity="0.25"/>
        <ellipse cx="0" cy="0" rx="15.2" ry="10.1" fill="#FFFFFF" opacity="0.13"/>
      </g>
      </g>
      </g>
      </g>
      </g>
      </g>
      </g>
  </g>
  <g transform="translate(731.1, 403.5)">
      <g transform="translate(-2.45,-3.49) rotate(2.53) scale(1.000)">
        <g transform="translate(-4.24,-2.75) rotate(3.25) scale(0.980)">
        <g transform="translate(-4.99,-1.77) rotate(1.97) scale(0.960)">
        <g transform="translate(-4.52,-0.63) rotate(-1.37) scale(0.940)">
        <g transform="translate(-2.94,0.56) rotate(-6.63) scale(0.920)">
        <g transform="translate(-0.64,1.71) rotate(-13.55) scale(0.900)">
        <g transform="translate(1.81,2.70) rotate(-21.69) scale(0.880)">
        <circle cx="0" cy="0" r="36.5" fill="url(#rgrad1)" filter="url(#shadow)" opacity="0.35"/>
        <text x="0" y="5" text-anchor="middle" font-family="Arial, sans-serif" font-size="14" fill="#FFFFFF" opacity="0.35">831</text>
      </g>
      </g>
      </g>
      </g>
      </g>
      </g>
      </g>
  </g>
  <g transform="translate(950.8, 392.4)">
      <g transform="translate(-4.99,-0.23) rotate(2.53) scale(1.000)">
        <g transform="translate(-4.52,0.96) rotate(3.25) scale(0.980)">
        <g transform="translate(-2.94,2.06) rotate(1.97) scale(0.960)">
        <g transform="translate(-0.64,2.98) rotate(-1.37) scale(0.940)" clip-path="url(#clipHex)">
        <g transform="translate(1.81,3.64) rotate(-6.63) scale(0.920)">
        <g transform="translate(3.82,3.97) rotate(-13.55) scale(0.900)">
        <g transform="translate(4.90,3.94) rotate(-21.69) scale(0.880)">
        <path d="M0.0,-73.4 L21.6,-29.7 L69.8,-22.7 L34.9,11.3 L43.1,59.3 L0.0,36.7 L-43.1,59.3 L-34.9,11.3 L-69.8,-22.7 L-21.6,-29.7Z" fill="url(#lgrad2)" filter="url(#blur2)" opacity="0.47"/>
      </g>
      </g>
      </g>
      </g>
      </g>
      </g>
      </g>
  </g>
  <g transform="translate(1177.5, 375.4)">
      <g transform="translate(-2.94,3.23) rotate(2.53) scale(1.000)">
        <g transform="translate(-0.64,3.79) rotate(3.25) scale(0.980)">
        <g transform="translate(1.81,4.00) rotate(1.97) scale(0.960)">
        <g transform="translate(3.82,3.85) rotate(-1.37) scale(0.940)">
        <g transform="translate(4.90,3.37) rotate(-6.63) scale(0.920)">
        <g transform="translate(4.78,2.58) rotate(-13.55) scale(0.900)" mask="url(#maskCircleFade)">
        <g transform="translate(3.48,1.56) rotate(-21.69) scale(0.880)">
        <rect x="-30.7" y="-30.7" width="61.5" height="61.5" rx="15.4" fill="url(#rgrad3)" filter="url(#shadow)" opacity="0.59"/>
        <circle cx="0" cy="0" r="20.5" fill="url(#rgrad4)" opacity="0.41"/>
      </g>
      </g>
      </g>
      </g>
      </g>
      </g>
      </g>
  </g>
  <g transform="translate(1409.8, 360.7)">
      <g transform="translate(1.81,3.73) rotate(2.53) scale(1.000)">
        <g transform="translate(3.82,3.13) rotate(3.25) scale(0.980)">
        <g transform="translate(4.90,2.26) rotate(1.97) scale(0.960)">
        <g transform="translate(4.78,1.18) rotate(-1.37) scale(0.940)">
        <g transform="translate(3.48,0.00) rotate(-6.63) scale(0.920)">
        <g transform="translate(1.34,-1.18) rotate(-13.55) scale(0.900)">
        <g transform="translate(-1.14,-2.26) rotate(-21.69) scale(0.880)">
        <path d="M25.1,14.5 L0.0,28.9 L-25.1,14.5 L-25.1,-14.5 L-0.0,-28.9 L25.1,-14.5Z" fill="url(#rgrad4)" filter="url(#blur4)" opacity="0.70"/>
        <ellipse cx="0" cy="0" rx="12.1" ry="8.0" fill="#FFFFFF" opacity="0.35"/>
      </g>
      </g>
      </g>
      </g>
      </g>
      </g>
      </g>
  </g>
  <g transform="translate(1644.6, 355.0)">
      <g transform="translate(4.90,0.80) rotate(2.53) scale(1.000)">
        <g transform="translate(4.78,-0.40) rotate(3.25) scale(0.980)">
        <g transform="translate(3.48,-1.56) rotate(1.97) scale(0.960)">
        <g transform="translate(1.34,-2.58) rotate(-1.37) scale(0.940)" clip-path="url(#clipCircle)">
        <g transform="translate(-1.14,-3.37) rotate(-6.63) scale(0.920)">
        <g transform="translate(-3.33,-3.85) rotate(-13.55) scale(0.900)">
        <g transform="translate(-4.71,-4.00) rotate(-21.69) scale(0.880)">
        <circle cx="0" cy="0" r="22.9" fill="url(#lgrad0)" filter="url(#shadow)" opacity="0.79"/>
        <text x="0" y="5" text-anchor="middle" font-family="Arial, sans-serif" font-size="14" fill="#FFFFFF" opacity="0.79">831</text>
      </g>
      </g>
      </g>
      </g>
      </g>
      </g>
      </g>
  </g>
  <g transform="translate(118.2, 641.1)">
      <g transform="translate(3.48,-2.87) rotate(2.53) scale(1.000)">
        <g transform="translate(1.34,-3.56) rotate(3.25) scale(0.980)">
        <g transform="translate(-1.14,-3.94) rotate(1.97) scale(0.960)">
        <g transform="translate(-3.33,-3.97) rotate(-1.37) scale(0.940)">
        <g transform="translate(-4.71,-3.64) rotate(-6.63) scale(0.920)">
        <g transform="translate(-4.94,-2.98) rotate(-13.55) scale(0.900)" mask="url(#maskGradient)">
        <g transform="translate(-3.96,-2.06) rotate(-21.69) scale(0.880)">
        <path d="M0.0,-56.4 L16.6,-22.8 L53.7,-17.4 L26.8,8.7 L33.2,45.7 L0.0,28.2 L-33.2,45.7 L-26.8,8.7 L-53.7,-17.4 L-16.6,-22.8Z" fill="url(#rgrad1)" filter="url(#blur1)" opacity="0.86"/>
      </g>
      </g>
      </g>
      </g>
      </g>
      </g>
      </g>
  </g>
  <g transform="translate(347.4, 656.1)">
      <g transform="translate(-1.14,-3.90) rotate(2.53) scale(1.000)">
        <g transform="translate(-3.33,-3.45) rotate(3.25) scale(0.980)">
        <g transform="translate(-4.71,-2.70) rotate(1.97) scale(0.960)">
        <g transform="translate(-4.94,-1.71) rotate(-1.37) scale(0.940)">
        <g transform="translate(-3.96,-0.56) rotate(-6.63) scale(0.920)">
        <g transform="translate(-2.00,0.63) rotate(-13.55) scale(0.900)">
        <g transform="translate(0.44,1.77) rotate(-21.69) scale(0.880)">
        <rect x="-35.2" y="-35.2" width="70.3" height="70.3" rx="17.6" fill="url(#rgrad2)" filter="url(#shadow)" opacity="0.90"/>
        <circle cx="0" cy="0" r="23.4" fill="url(#rgrad3)" opacity="0.63"/>
      </g>
      </g>
      </g>
      </g>
      </g>
      </g>
      </g>
  </g>
  <g transform="translate(569.9, 672.9)">
      <g transform="translate(-4.71,-1.34) rotate(2.53) scale(1.000)">
        <g transform="translate(-4.94,-0.17) rotate(3.25) scale(0.980)">
        <g transform="translate(-3.96,1.02) rotate(1.97) scale(0.960)">
        <g transform="translate(-2.00,2.12) rotate(-1.37) scale(0.940)" clip-path="url(#clipRect)">
        <g transform="translate(0.44,3.03) rotate(-6.63) scale(0.920)">
        <g transform="translate(2.77,3.66) rotate(-13.55) scale(0.900)">
        <g transform="translate(4.43,3.97) rotate(-21.69) scale(0.880)">
        <path d="M38.8,22.4 L0.0,44.8 L-38.8,22.4 L-38.8,-22.4 L-0.0,-44.8 L38.8,-22.4Z" fill="url(#lgrad3)" filter="url(#blur3)" opacity="0.90"/>
        <ellipse cx="0" cy="0" rx="18.7" ry="12.5" fill="#FFFFFF" opacity="0.45"/>
      </g>
      </g>
      </g>
      </g>
      </g>
      </g>
      </g>
  </g>
  <g transform="translate(785.0, 683.7)">
      <g transform="translate(-3.96,2.45) rotate(2.53) scale(1.000)">
        <g transform="translate(-2.00,3.27) rotate(3.25) scale(0.980)">
        <g transform="translate(0.44,3.81) rotate(1.97) scale(0.960)">
        <g transform="translate(2.77,4.00) rotate(-1.37) scale(0.940)">
        <g transform="translate(4.43,3.84) rotate(-6.63) scale(0.920)">
        <g transform="translate(5.00,3.33) rotate(-13.55) scale(0.900)" mask="url(#maskDynamic)">
        <g transform="translate(4.35,2.53) rotate(-21.69) scale(0.880)">
        <circle cx="0" cy="0" r="32.8" fill="url(#rgrad4)" filter="url(#shadow)" opacity="0.86"/>
        <text x="0" y="5" text-anchor="middle" font-family="Arial, sans-serif" font-size="14" fill="#FFFFFF" opacity="0.86">831</text>
      </g>
      </g>
      </g>
      </g>
      </g>
      </g>
      </g>
  </g>
  <g transform="translate(994.1, 683.3)">
      <g transform="translate(0.44,3.98) rotate(2.53) scale(1.000)">
        <g transform="translate(2.77,3.70) rotate(3.25) scale(0.980)">
        <g transform="translate(4.43,3.09) rotate(1.97) scale(0.960)">
        <g transform="translate(5.00,2.20) rotate(-1.37) scale(0.940)">
        <g transform="translate(4.35,1.12) rotate(-6.63) scale(0.920)">
        <g transform="translate(2.63,-0.07) rotate(-13.55) scale(0.900)">
        <g transform="translate(0.27,-1.25) rotate(-21.69) scale(0.880)">
        <path d="M0.0,-51.3 L15.1,-20.8 L48.8,-15.9 L24.4,7.9 L30.2,41.5 L0.0,25.6 L-30.2,41.5 L-24.4,7.9 L-48.8,-15.9 L-15.1,-20.8Z" fill="url(#rgrad0)" filter="url(#blur0)" opacity="0.79"/>
      </g>
      </g>
      </g>
      </g>
      </g>
      </g>
      </g>
  </g>
  <g transform="translate(1199.6, 672.0)">
      <g transform="translate(4.43,1.86) rotate(2.53) scale(1.000)">
        <g transform="translate(5.00,0.73) rotate(3.25) scale(0.980)">
        <g transform="translate(4.35,-0.47) rotate(1.97) scale(0.960)">
        <g transform="translate(2.63,-1.62) rotate(-1.37) scale(0.940)" clip-path="url(#clipStar)">
        <g transform="translate(0.27,-2.63) rotate(-6.63) scale(0.920)">
        <g transform="translate(-2.16,-3.40) rotate(-13.55) scale(0.900)">
        <g transform="translate(-4.06,-3.87) rotate(-21.69) scale(0.880)">
        <rect x="-22.5" y="-22.5" width="45.0" height="45.0" rx="11.3" fill="url(#lgrad1)" filter="url(#shadow)" opacity="0.70"/>
        <circle cx="0" cy="0" r="15.0" fill="url(#rgrad2)" opacity="0.49"/>
      </g>
      </g>
      </g>
      </g>
      </g>
      </g>
      </g>
  </g>
  <g transform="translate(1405.3, 655.0)">
      <g transform="translate(4.35,-1.98) rotate(2.53) scale(1.000)">
        <g transform="translate(2.63,-2.92) rotate(3.25) scale(0.980)">
        <g transform="translate(0.27,-3.59) rotate(1.97) scale(0.960)">
        <g transform="translate(-2.16,-3.95) rotate(-1.37) scale(0.940)">
        <g transform="translate(-4.06,-3.96) rotate(-6.63) scale(0.920)">
        <g transform="translate(-4.96,-3.61) rotate(-13.55) scale(0.900)" mask="url(#maskStripes)">
        <g transform="translate(-4.65,-2.94) rotate(-21.69) scale(0.880)">
        <path d="M27.3,15.8 L0.0,31.5 L-27.3,15.8 L-27.3,-15.8 L-0.0,-31.5 L27.3,-15.8Z" fill="url(#rgrad2)" filter="url(#blur2)" opacity="0.59"/>
        <ellipse cx="0" cy="0" rx="13.1" ry="8.8" fill="#FFFFFF" opacity="0.29"/>
      </g>
      </g>
      </g>
      </g>
      </g>
      </g>
      </g>
  </g>
  <g transform="translate(1614.6, 640.4)">
      <g transform="translate(0.27,-3.99) rotate(2.53) scale(1.000)">
        <g transform="translate(-2.16,-3.88) rotate(3.25) scale(0.980)">
        <g transform="translate(-4.06,-3.42) rotate(1.97) scale(0.960)">
        <g transform="translate(-4.96,-2.65) rotate(-1.37) scale(0.940)">
        <g transform="translate(-4.65,-1.65) rotate(-6.63) scale(0.920)">
        <g transform="translate(-3.20,-0.50) rotate(-13.55) scale(0.900)">
        <g transform="translate(-0.97,0.70) rotate(-21.69) scale(0.880)">
        <circle cx="0" cy="0" r="33.4" fill="url(#rgrad3)" filter="url(#shadow)" opacity="0.47"/>
        <text x="0" y="5" text-anchor="middle" font-family="Arial, sans-serif" font-size="14" fill="#FFFFFF" opacity="0.47">831</text>
      </g>
      </g>
      </g>
      </g>
      </g>
      </g>
      </g>
  </g>
  <g transform="translate(70.1, 915.0)">
      <g transform="translate(-4.06,-2.34) rotate(2.53) scale(1.000)">
        <g transform="translate(-4.96,-1.28) rotate(3.25) scale(0.980)">
        <g transform="translate(-4.65,-0.10) rotate(1.97) scale(0.960)">
        <g transform="translate(-3.20,1.09) rotate(-1.37) scale(0.940)" clip-path="url(#clipDynamic)">
        <g transform="translate(-0.97,2.18) rotate(-6.63) scale(0.920)">
        <g transform="translate(1.50,3.07) rotate(-13.55) scale(0.900)">
        <g transform="translate(3.60,3.69) rotate(-21.69) scale(0.880)">
        <path d="M0.0,-74.9 L22.0,-30.3 L71.3,-23.2 L35.6,11.6 L44.0,60.6 L0.0,37.5 L-44.0,60.6 L-35.6,11.6 L-71.3,-23.2 L-22.0,-30.3Z" fill="url(#lgrad4)" filter="url(#blur4)" opacity="0.35"/>
      </g>
      </g>
      </g>
      </g>
      </g>
      </g>
      </g>
  </g>
  <g transform="translate(212.6, 338.9)" mask="url(#maskGradient)">
    <ellipse cx="0" cy="0" rx="200" ry="150" fill="url(#rgrad0)" filter="url(#blur3)" opacity="0.3"/>
  </g>
  <g transform="translate(793.7, 374.8)" mask="url(#maskCircleFade)">
    <ellipse cx="0" cy="0" rx="200" ry="150" fill="url(#rgrad1)" filter="url(#blur3)" opacity="0.3"/>
  </g>
  <g transform="translate(1380.6, 375.5)" mask="url(#maskStripes)">
    <ellipse cx="0" cy="0" rx="200" ry="150" fill="url(#rgrad2)" filter="url(#blur3)" opacity="0.3"/>
  </g>
</svg>