<?xml version="1.0" encoding="UTF-8"?>
<svg xmlns="http://www.w3.org/2000/svg" viewBox="0 0 1920 1080" width="1920" height="1080">
  <defs>
    <filter id="blur0" x="-50%" y="-50%" width="200%" height="200%">
      <feGaussianBlur in="SourceGraphic" stdDeviation="1"/>
    </filter>
    <filter id="blur1" x="-50%" y="-50%" width="200%" height="200%">
      <feGaussianBlur in="SourceGraphic" stdDeviation="3"/>
    </filter>
    <filter id="blur2" x="-50%" y="-50%" width="200%" height="200%">
      <feGaussianBlur in="SourceGraphic" stdDeviation="5"/>
    </filter>
    <filter id="blur3" x="-50%" y="-50%" width="200%" height="200%">
      <feGaussianBlur in="SourceGraphic" stdDeviation="7"/>
    </filter>
    <filter id="blur4" x="-50%" y="-50%" width="200%" height="200%">
      <feGaussianBlur in="SourceGraphic" stdDeviation="9"/>
    </filter>
    <filter id="shadow" x="-50%" y="-50%" width="200%" height="200%">
      <feGaussianBlur in="SourceAlpha" stdDeviation="3" result="blur"/>
      <feOffset in="blur" dx="4" dy="4" result="offsetBlur"/>
      <feMerge>
        <feMergeNode in="offsetBlur"/>
        <feMergeNode in="SourceGraphic"/>
      </feMerge>
    </filter>
    <linearGradient id="lgrad0" x1="0%" y1="0%" x2="7.6%" y2="23.5%">
      <stop offset="0%" stop-color="#FF6B6B"/>
      <stop offset="33%" stop-color="#4ECDC4"/>
      <stop offset="66%" stop-color="#45B7D1"/>
      <stop offset="100%" stop-color="#96E6A1"/>
    </linearGradient>
    <linearGradient id="lgrad1" x1="0%" y1="0%" x2="26.5%" y2="5.9%">
      <stop offset="0%" stop-color="#FFE66D"/>
      <stop offset="33%" stop-color="#FF6B6B"/>
      <stop offset="66%" stop-color="#C44D58"/>
      <stop offset="100%" stop-color="#8B0000"/>
    </linearGradient>
    <linearGradient id="lgrad2" x1="0%" y1="0%" x2="51.7%" y2="0.0%">
      <stop offset="0%" stop-color="#4169E1"/>
      <stop offset="33%" stop-color="#7B68EE"/>
      <stop offset="66%" stop-color="#9370DB"/>
      <stop offset="100%" stop-color="#FFD700"/>
    </linearGradient>
    <linearGradient id="lgrad3" x1="0%" y1="0%" x2="76.5%" y2="7.6%">
      <stop offset="0%" stop-color="#32CD32"/>
      <stop offset="33%" stop-color="#228B22"/>
      <stop offset="66%" stop-color="#006400"/>
      <stop offset="100%" stop-color="#ADFF2F"/>
    </linearGradient>
    <linearGradient id="lgrad4" x1="0%" y1="0%" x2="94.1%" y2="26.5%">
      <stop offset="0%" stop-color="#FF1493"/>
      <stop offset="33%" stop-color="#FF69B4"/>
      <stop offset="66%" stop-color="#FFB6C1"/>
      <stop offset="100%" stop-color="#FFC0CB"/>
    </linearGradient>
    <radialGradient id="rgrad0" cx="50.2%" cy="56.8%" r="60%">
      <stop offset="0%" stop-color="#FF6B6B" stop-opacity="1"/>
      <stop offset="50%" stop-color="#4ECDC4" stop-opacity="0.8"/>
      <stop offset="100%" stop-color="#45B7D1" stop-opacity="0.6"/>
    </radialGradient>
    <radialGradient id="rgrad1" cx="60.2%" cy="64.8%" r="60%">
      <stop offset="0%" stop-color="#FFE66D" stop-opacity="1"/>
      <stop offset="50%" stop-color="#FF6B6B" stop-opacity="0.8"/>
      <stop offset="100%" stop-color="#C44D58" stop-opacity="0.6"/>
    </radialGradient>
    <radialGradient id="rgrad2" cx="30.2%" cy="32.8%" r="60%">
      <stop offset="0%" stop-color="#4169E1" stop-opacity="1"/>
      <stop offset="50%" stop-color="#7B68EE" stop-opacity="0.8"/>
      <stop offset="100%" stop-color="#9370DB" stop-opacity="0.6"/>
    </radialGradient>
    <radialGradient id="rgrad3" cx="40.2%" cy="40.8%" r="60%">
      <stop offset="0%" stop-color="#32CD32" stop-opacity="1"/>
      <stop offset="50%" stop-color="#228B22" stop-opacity="0.8"/>
      <stop offset="100%" stop-color="#006400" stop-opacity="0.6"/>
    </radialGradient>
    <radialGradient id="rgrad4" cx="50.2%" cy="48.8%" r="60%">
      <stop offset="0%" stop-color="#FF1493" stop-opacity="1"/>
      <stop offset="50%" stop-color="#FF69B4" stop-opacity="0.8"/>
      <stop offset="100%" stop-color="#FFB6C1" stop-opacity="0.6"/>
    </radialGradient>
    <clipPath id="clipCircle">
      <circle cx="0" cy="0" r="50"/>
    </clipPath>
    <clipPath id="clipStar">
      <path d="M0.0,-50.0 L14.7,-20.2 L47.6,-15.5 L23.8,7.7 L29.4,40.5 L0.0,25.0 L-29.4,40.5 L-23.8,7.7 L-47.6,-15.5 L-14.7,-20.2Z"/>
    </clipPath>
    <clipPath id="clipHex">
      <path d="M39.0,22.5 L0.0,45.0 L-39.0,22.5 L-39.0,-22.5 L-0.0,-45.0 L39.0,-22.5Z"/>
    </clipPath>
    <clipPath id="clipRect">
      <rect x="-40" y="-30" width="80" height="60" rx="10"/>
    </clipPath>
    <clipPath id="clipDynamic">
      <circle cx="0" cy="0" r="48.0"/>
    </clipPath>
    <mask id="maskGradient" maskContentUnits="objectBoundingBox">
      <rect x="0" y="0" width="1" height="1" fill="url(#maskGrad)"/>
    </mask>
    <linearGradient id="maskGrad" x1="0%" y1="0%" x2="100%" y2="100%">
      <stop offset="0%" stop-color="white"/>
      <stop offset="100%" stop-color="black"/>
    </linearGradient>
    <mask id="maskCircleFade">
      <circle cx="0" cy="0" r="60" fill="white"/>
      <circle cx="0" cy="0" r="30" fill="black"/>
    </mask>
    <mask id="maskStripes">
      <rect x="-50" y="-50" width="100" height="100" fill="white"/>
      <rect x="-50" y="-40" width="100" height="10" fill="black"/>
      <rect x="-50" y="-20" width="100" height="10" fill="black"/>
      <rect x="-50" y="0" width="100" height="10" fill="black"/>
      <rect x="-50" y="20" width="100" height="10" fill="black"/>
      <rect x="-50" y="40" width="100" height="10" fill="black"/>
    </mask>
    <mask id="maskDynamic">
      <rect x="-60" y="-60" width="120" height="120" fill="white" fill-opacity="0.91"/>
      <circle cx="0" cy="0" r="25" fill="white"/>
    </mask>
  </defs>
  <rect width="1920" height="1080" fill="url(#lgrad0)"/>
  <g transform="translate(126.0, 87.5)">
      <g transform="translate(4.33,-2.00) rotate(4.33) scale(1.000)">
        <g transform="translate(2.60,-2.93) rotate(9.48) scale(0.980)">
        <g transform="translate(0.24,-3.61) rotate(14.89) scale(0.960)">
        <g transform="translate(-2.19,-3.96) rotate(19.94) scale(0.940)" clip-path="url(#clipCircle)">
        <g transform="translate(-4.08,-3.95) rotate(24.05) scale(0.920)">
        <g transform="translate(-4.97,-3.60) rotate(26.66) scale(0.900)">
        <g transform="translate(-4.64,-2.92) rotate(27.29) scale(0.880)">
        <path d="M0.0,-73.0 L21.5,-29.5 L69.4,-22.6 L34.7,11.3 L42.9,59.1 L0.0,36.5 L-42.9,59.1 L-34.7,11.3 L-69.4,-22.6 L-21.5,-29.5Z" fill="url(#lgrad0)" filter="url(#blur0)" opacity="0.85"/>
      </g>
      </g>
      </g>
      </g>
      </g>
      </g>
      </g>
  </g>
  <g transform="translate(335.6, 76.5)">
      <g transform="translate(0.24,-4.00) rotate(4.33) scale(1.000)">
        <g transform="translate(-2.19,-3.87) rotate(9.48) scale(0.980)">
        <g transform="translate(-4.08,-3.40) rotate(14.89) scale(0.960)">
        <g transform="translate(-4.97,-2.63) rotate(19.94) scale(0.940)">
        <g transform="translate(-4.64,-1.62) rotate(24.05) scale(0.920)">
        <g transform="translate(-3.18,-0.47) rotate(26.66) scale(0.900)" mask="url(#maskCircleFade)">
        <g transform="translate(-0.94,0.72) rotate(27.29) scale(0.880)">
        <rect x="-36.7" y="-36.7" width="73.3" height="73.3" rx="18.3" fill="url(#rgrad1)" filter="url(#shadow)" opacity="0.89"/>
        <circle cx="0" cy="0" r="24.4" fill="url(#rgrad2)" opacity="0.62"/>
      </g>
      </g>
      </g>
      </g>
      </g>
      </g>
      </g>
  </g>
  <g transform="translate(541.4, 76.5)">
      <g transform="translate(-4.08,-2.32) rotate(4.33) scale(1.000)">
        <g transform="translate(-4.97,-1.25) rotate(9.48) scale(0.980)">
        <g transform="translate(-4.64,-0.07) rotate(14.89) scale(0.960)">
        <g transform="translate(-3.18,1.11) rotate(19.94) scale(0.940)">
        <g transform="translate(-0.94,2.20) rotate(24.05) scale(0.920)">
        <g transform="translate(1.53,3.09) rotate(26.66) scale(0.900)">
        <g transform="translate(3.63,3.70) rotate(27.29) scale(0.880)">
        <path d="M31.9,18.4 L0.0,36.8 L-31.9,18.4 L-31.9,-18.4 L-0.0,-36.8 L31.9,-18.4Z" fill="url(#rgrad2)" filter="url(#blur2)" opacity="0.90"/>
        <ellipse cx="0" cy="0" rx="15.4" ry="10.2" fill="#FFFFFF" opacity="0.45"/>
      </g>
      </g>
      </g>
      </g>
      </g>
      </g>
      </g>
  </g>
  <g transform="translate(746.9, 87.6)">
      <g transform="translate(-4.64,1.49) rotate(4.33) scale(1.000)">
        <g transform="translate(-3.18,2.52) rotate(9.48) scale(0.980)">
        <g transform="translate(-0.94,3.33) rotate(14.89) scale(0.960)">
        <g transform="translate(1.53,3.83) rotate(19.94) scale(0.940)" clip-path="url(#clipRect)">
        <g transform="translate(3.63,4.00) rotate(24.05) scale(0.920)">
        <g transform="translate(4.83,3.81) rotate(26.66) scale(0.900)">
        <g transform="translate(4.86,3.28) rotate(27.29) scale(0.880)">
        <circle cx="0" cy="0" r="24.1" fill="url(#lgrad3)" filter="url(#shadow)" opacity="0.87"/>
        <text x="0" y="5" text-anchor="middle" font-family="Arial, sans-serif" font-size="14" fill="#FFFFFF" opacity="0.87">334</text>
      </g>
      </g>
      </g>
      </g>
      </g>
      </g>
      </g>
  </g>
  <g transform="translate(955.5, 104.5)">
      <g transform="translate(-0.94,3.93) rotate(4.33) scale(1.000)">
        <g transform="translate(1.53,3.98) rotate(9.48) scale(0.980)">
        <g transform="translate(3.63,3.67) rotate(14.89) scale(0.960)">
        <g transform="translate(4.83,3.03) rotate(19.94) scale(0.940)">
        <g transform="translate(4.86,2.12) rotate(24.05) scale(0.920)">
        <g transform="translate(3.69,1.03) rotate(26.66) scale(0.900)" mask="url(#maskGradient)">
        <g transform="translate(1.62,-0.16) rotate(27.29) scale(0.880)">
        <path d="M0.0,-45.8 L13.5,-18.5 L43.6,-14.2 L21.8,7.1 L26.9,37.1 L0.0,22.9 L-26.9,37.1 L-21.8,7.1 L-43.6,-14.2 L-13.5,-18.5Z" fill="url(#rgrad4)" filter="url(#blur4)" opacity="0.81"/>
      </g>
      </g>
      </g>
      </g>
      </g>
      </g>
      </g>
  </g>
  <g transform="translate(1170.2, 119.3)">
      <g transform="translate(3.63,2.75) rotate(4.33) scale(1.000)">
        <g transform="translate(4.83,1.77) rotate(9.48) scale(0.980)">
        <g transform="translate(4.86,0.64) rotate(14.89) scale(0.960)">
        <g transform="translate(3.69,-0.56) rotate(19.94) scale(0.940)">
        <g transform="translate(1.62,-1.71) rotate(24.05) scale(0.920)">
        <g transform="translate(-0.84,-2.70) rotate(26.66) scale(0.900)">
        <g transform="translate(-3.10,-3.45) rotate(27.29) scale(0.880)">
        <rect x="-28.2" y="-28.2" width="56.5" height="56.5" rx="14.1" fill="url(#rgrad0)" filter="url(#shadow)" opacity="0.72"/>
        <circle cx="0" cy="0" r="18.8" fill="url(#rgrad1)" opacity="0.51"/>
      </g>
      </g>
      </g>
      </g>
      </g>
      </g>
      </g>
  </g>
  <g transform="translate(1392.2, 125.0)">
      <g transform="translate(4.86,-0.95) rotate(4.33) scale(1.000)">
        <g transform="translate(3.69,-2.06) rotate(9.48) scale(0.980)">
        <g transform="translate(1.62,-2.98) rotate(14.89) scale(0.960)">
        <g transform="translate(-0.84,-3.64) rotate(19.94) scale(0.940)" clip-path="url(#clipStar)">
        <g transform="translate(-3.10,-3.97) rotate(24.05) scale(0.920)">
        <g transform="translate(-4.60,-3.94) rotate(26.66) scale(0.900)">
        <g transform="translate(-4.98,-3.57) rotate(27.29) scale(0.880)">
        <path d="M36.6,21.1 L0.0,42.2 L-36.6,21.1 L-36.6,-21.1 L-0.0,-42.2 L36.6,-21.1Z" fill="url(#lgrad1)" filter="url(#blur1)" opacity="0.62"/>
        <ellipse cx="0" cy="0" rx="17.6" ry="11.7" fill="#FFFFFF" opacity="0.31"/>
      </g>
      </g>
      </g>
      </g>
      </g>
      </g>
      </g>
  </g>
  <g transform="translate(1620.9, 118.9)">
      <g transform="translate(1.62,-3.78) rotate(4.33) scale(1.000)">
        <g transform="translate(-0.84,-4.00) rotate(9.48) scale(0.980)">
        <g transform="translate(-3.10,-3.86) rotate(14.89) scale(0.960)">
        <g transform="translate(-4.60,-3.37) rotate(19.94) scale(0.940)">
        <g transform="translate(-4.98,-2.58) rotate(24.05) scale(0.920)">
        <g transform="translate(-4.13,-1.56) rotate(26.66) scale(0.900)" mask="url(#maskDynamic)">
        <g transform="translate(-2.27,-0.40) rotate(27.29) scale(0.880)">
        <circle cx="0" cy="0" r="37.4" fill="url(#rgrad2)" filter="url(#shadow)" opacity="0.50"/>
        <text x="0" y="5" text-anchor="middle" font-family="Arial, sans-serif" font-size="14" fill="#FFFFFF" opacity="0.50">334</text>
      </g>
      </g>
      </g>
      </g>
      </g>
      </g>
      </g>
  </g>
  <g transform="translate(94.4, 384.0)">
      <g transform="translate(-3.10,-3.14) rotate(4.33) scale(1.000)">
        <g transform="translate(-4.60,-2.26) rotate(9.48) scale(0.980)">
        <g transform="translate(-4.98,-1.19) rotate(14.89) scale(0.960)">
        <g transform="translate(-4.13,-0.00) rotate(19.94) scale(0.940)">
        <g transform="translate(-2.27,1.18) rotate(24.05) scale(0.920)">
        <g transform="translate(0.14,2.25) rotate(26.66) scale(0.900)">
        <g transform="translate(2.52,3.13) rotate(27.29) scale(0.880)">
        <path d="M0.0,-65.5 L19.3,-26.5 L62.3,-20.2 L31.2,10.1 L38.5,53.0 L0.0,32.8 L-38.5,53.0 L-31.2,10.1 L-62.3,-20.2 L-19.3,-26.5Z" fill="url(#rgrad3)" filter="url(#blur3)" opacity="0.38"/>
      </g>
      </g>
      </g>
      </g>
      </g>
      </g>
      </g>
  </g>
  <g transform="translate(329.2, 367.1)">
      <g transform="translate(-4.98,0.39) rotate(4.33) scale(1.000)">
        <g transform="translate(-4.13,1.55) rotate(9.48) scale(0.980)">
        <g transform="translate(-2.27,2.57) rotate(14.89) scale(0.960)">
        <g transform="translate(0.14,3.36) rotate(19.94) scale(0.940)" clip-path="url(#clipDynamic)">
        <g transform="translate(2.52,3.85) rotate(24.05) scale(0.920)">
        <g transform="translate(4.28,4.00) rotate(26.66) scale(0.900)">
        <g transform="translate(5.00,3.79) rotate(27.29) scale(0.880)">
        <rect x="-25.6" y="-25.6" width="51.3" height="51.3" rx="12.8" fill="url(#lgrad4)" filter="url(#shadow)" opacity="0.27"/>
        <circle cx="0" cy="0" r="17.1" fill="url(#rgrad0)" opacity="0.19"/>
      </g>
      </g>
      </g>
      </g>
      </g>
      </g>
      </g>
  </g>
  <g transform="translate(561.8, 356.4)">
      <g transform="translate(-2.27,3.56) rotate(4.33) scale(1.000)">
        <g transform="translate(0.14,3.94) rotate(9.48) scale(0.980)">
        <g transform="translate(2.52,3.97) rotate(14.89) scale(0.960)">
        <g transform="translate(4.28,3.64) rotate(19.94) scale(0.940)">
        <g transform="translate(5.00,2.99) rotate(24.05) scale(0.920)">
        <g transform="translate(4.49,2.07) rotate(26.66) scale(0.900)" mask="url(#maskStripes)">
        <g transform="translate(2.88,0.96) rotate(27.29) scale(0.880)">
        <path d="M23.4,13.5 L0.0,27.0 L-23.4,13.5 L-23.4,-13.5 L-0.0,-27.0 L23.4,-13.5Z" fill="url(#rgrad0)" filter="url(#blur0)" opacity="0.19"/>
        <ellipse cx="0" cy="0" rx="11.3" ry="7.5" fill="#FFFFFF" opacity="0.09"/>
      </g>
      </g>
      </g>
      </g>
      </g>
      </g>
      </g>
  </g>
  <g transform="translate(789.0, 356.7)">
      <g transform="translate(2.52,3.46) rotate(4.33) scale(1.000)">
        <g transform="translate(4.28,2.71) rotate(9.48) scale(0.980)">
        <g transform="translate(5.00,1.71) rotate(14.89) scale(0.960)">
        <g transform="translate(4.49,0.57) rotate(19.94) scale(0.940)">
        <g transform="translate(2.88,-0.63) rotate(24.05) scale(0.920)">
        <g transform="translate(0.57,-1.77) rotate(26.66) scale(0.900)">
        <g transform="translate(-1.88,-2.75) rotate(27.29) scale(0.880)">
        <circle cx="0" cy="0" r="26.3" fill="url(#rgrad1)" filter="url(#shadow)" opacity="0.13"/>
        <text x="0" y="5" text-anchor="middle" font-family="Arial, sans-serif" font-size="14" fill="#FFFFFF" opacity="0.13">334</text>
      </g>
      </g>
      </g>
      </g>
      </g>
      </g>
      </g>
  </g>
  <g transform="translate(1009.1, 368.0)">
      <g transform="translate(5.00,0.17) rotate(4.33) scale(1.000)">
        <g transform="translate(4.49,-1.02) rotate(9.48) scale(0.980)">
        <g transform="translate(2.88,-2.12) rotate(14.89) scale(0.960)">
        <g transform="translate(0.57,-3.02) rotate(19.94) scale(0.940)" clip-path="url(#clipHex)">
        <g transform="translate(-1.88,-3.66) rotate(24.05) scale(0.920)">
        <g transform="translate(-3.87,-3.97) rotate(26.66) scale(0.900)">
        <g transform="translate(-4.92,-3.93) rotate(27.29) scale(0.880)">
        <path d="M0.0,-66.9 L19.7,-27.1 L63.7,-20.7 L31.8,10.3 L39.3,54.2 L0.0,33.5 L-39.3,54.2 L-31.8,10.3 L-63.7,-20.7 L-19.7,-27.1Z" fill="url(#lgrad2)" filter="url(#blur2)" opacity="0.10"/>
      </g>
      </g>
      </g>
      </g>
      </g>
      </g>
      </g>
  </g>
  <g transform="translate(1222.1, 384.9)">
      <g transform="translate(2.88,-3.27) rotate(4.33) scale(1.000)">
        <g transform="translate(0.57,-3.80) rotate(9.48) scale(0.980)">
        <g transform="translate(-1.88,-4.00) rotate(14.89) scale(0.960)">
        <g transform="translate(-3.87,-3.84) rotate(19.94) scale(0.940)">
        <g transform="translate(-4.92,-3.33) rotate(24.05) scale(0.920)">
        <g transform="translate(-4.75,-2.53) rotate(26.66) scale(0.900)" mask="url(#maskCircleFade)">
        <g transform="translate(-3.43,-1.50) rotate(27.29) scale(0.880)">
        <rect x="-37.5" y="-37.5" width="74.9" height="74.9" rx="18.7" fill="url(#rgrad3)" filter="url(#shadow)" opacity="0.11"/>
        <circle cx="0" cy="0" r="25.0" fill="url(#rgrad4)" opacity="0.08"/>
      </g>
      </g>
      </g>
      </g>
      </g>
      </g>
      </g>
  </g>
  <g transform="translate(1429.7, 399.6)">
      <g transform="translate(-1.88,-3.71) rotate(4.33) scale(1.000)">
        <g transform="translate(-3.87,-3.09) rotate(9.48) scale(0.980)">
        <g transform="translate(-4.92,-2.21) rotate(14.89) scale(0.960)">
        <g transform="translate(-4.75,-1.12) rotate(19.94) scale(0.940)">
        <g transform="translate(-3.43,0.06) rotate(24.05) scale(0.920)">
        <g transform="translate(-1.26,1.24) rotate(26.66) scale(0.900)">
        <g transform="translate(1.21,2.31) rotate(27.29) scale(0.880)">
        <path d="M36.0,20.8 L0.0,41.5 L-36.0,20.8 L-36.0,-20.8 L-0.0,-41.5 L36.0,-20.8Z" fill="url(#rgrad4)" filter="url(#blur4)" opacity="0.16"/>
        <ellipse cx="0" cy="0" rx="17.3" ry="11.5" fill="#FFFFFF" opacity="0.08"/>
      </g>
      </g>
      </g>
      </g>
      </g>
      </g>
      </g>
  </g>
  <g transform="translate(1634.9, 405.0)">
      <g transform="translate(-4.92,-0.73) rotate(4.33) scale(1.000)">
        <g transform="translate(-4.75,0.46) rotate(9.48) scale(0.980)">
        <g transform="translate(-3.43,1.62) rotate(14.89) scale(0.960)">
        <g transform="translate(-1.26,2.62) rotate(19.94) scale(0.940)" clip-path="url(#clipCircle)">
        <g transform="translate(1.21,3.40) rotate(24.05) scale(0.920)">
        <g transform="translate(3.39,3.87) rotate(26.66) scale(0.900)">
        <g transform="translate(4.74,4.00) rotate(27.29) scale(0.880)">
        <circle cx="0" cy="0" r="27.5" fill="url(#lgrad0)" filter="url(#shadow)" opacity="0.23"/>
        <text x="0" y="5" text-anchor="middle" font-family="Arial, sans-serif" font-size="14" fill="#FFFFFF" opacity="0.23">334</text>
      </g>
      </g>
      </g>
      </g>
      </g>
      </g>
      </g>
  </g>
  <g transform="translate(81.4, 678.7)">
      <g transform="translate(-3.43,2.91) rotate(4.33) scale(1.000)">
        <g transform="translate(-1.26,3.59) rotate(9.48) scale(0.980)">
        <g transform="translate(1.21,3.95) rotate(14.89) scale(0.960)">
        <g transform="translate(3.39,3.96) rotate(19.94) scale(0.940)">
        <g transform="translate(4.74,3.61) rotate(24.05) scale(0.920)">
        <g transform="translate(4.92,2.94) rotate(26.66) scale(0.900)" mask="url(#maskGradient)">
        <g transform="translate(3.91,2.01) rotate(27.29) scale(0.880)">
        <path d="M0.0,-45.4 L13.3,-18.4 L43.2,-14.0 L21.6,7.0 L26.7,36.7 L0.0,22.7 L-26.7,36.7 L-21.6,7.0 L-43.2,-14.0 L-13.3,-18.4Z" fill="url(#rgrad1)" filter="url(#blur1)" opacity="0.33"/>
      </g>
      </g>
      </g>
      </g>
      </g>
      </g>
      </g>
  </g>
  <g transform="translate(292.4, 663.6)">
      <g transform="translate(1.21,3.88) rotate(4.33) scale(1.000)">
        <g transform="translate(3.39,3.42) rotate(9.48) scale(0.980)">
        <g transform="translate(4.74,2.66) rotate(14.89) scale(0.960)">
        <g transform="translate(4.92,1.65) rotate(19.94) scale(0.940)">
        <g transform="translate(3.91,0.50) rotate(24.05) scale(0.920)">
        <g transform="translate(1.93,-0.69) rotate(26.66) scale(0.900)">
        <g transform="translate(-0.52,-1.83) rotate(27.29) scale(0.880)">
        <rect x="-24.6" y="-24.6" width="49.2" height="49.2" rx="12.3" fill="url(#rgrad2)" filter="url(#shadow)" opacity="0.45"/>
        <circle cx="0" cy="0" r="16.4" fill="url(#rgrad3)" opacity="0.31"/>
      </g>
      </g>
      </g>
      </g>
      </g>
      </g>
      </g>
  </g>
  <g transform="translate(510.1, 646.8)">
      <g transform="translate(4.74,1.28) rotate(4.33) scale(1.000)">
        <g transform="translate(4.92,0.10) rotate(9.48) scale(0.980)">
        <g transform="translate(3.91,-1.08) rotate(14.89) scale(0.960)">
        <g transform="translate(1.93,-2.17) rotate(19.94) scale(0.940)" clip-path="url(#clipRect)">
        <g transform="translate(-0.52,-3.07) rotate(24.05) scale(0.920)">
        <g transform="translate(-2.84,-3.69) rotate(26.66) scale(0.900)">
        <g transform="translate(-4.46,-3.98) rotate(27.29) scale(0.880)">
        <path d="M32.7,18.9 L0.0,37.8 L-32.7,18.9 L-32.7,-18.9 L-0.0,-37.8 L32.7,-18.9Z" fill="url(#lgrad3)" filter="url(#blur3)" opacity="0.57"/>
        <ellipse cx="0" cy="0" rx="15.7" ry="10.5" fill="#FFFFFF" opacity="0.28"/>
      </g>
      </g>
      </g>
      </g>
      </g>
      </g>
      </g>
  </g>
  <g transform="translate(735.2, 636.2)">
      <g transform="translate(3.91,-2.50) rotate(4.33) scale(1.000)">
        <g transform="translate(1.93,-3.31) rotate(9.48) scale(0.980)">
        <g transform="translate(-0.52,-3.83) rotate(14.89) scale(0.960)">
        <g transform="translate(-2.84,-4.00) rotate(19.94) scale(0.940)">
        <g transform="translate(-4.46,-3.82) rotate(24.05) scale(0.920)">
        <g transform="translate(-5.00,-3.29) rotate(26.66) scale(0.900)" mask="url(#maskDynamic)">
        <g transform="translate(-4.31,-2.48) rotate(27.29) scale(0.880)">
        <circle cx="0" cy="0" r="37.0" fill="url(#rgrad4)" filter="url(#shadow)" opacity="0.68"/>
        <text x="0" y="5" text-anchor="middle" font-family="Arial, sans-serif" font-size="14" fill="#FFFFFF" opacity="0.68">334</text>
      </g>
      </g>
      </g>
      </g>
      </g>
      </g>
      </g>
  </g>
  <g transform="translate(966.4, 636.8)">
      <g transform="translate(-0.52,-3.98) rotate(4.33) scale(1.000)">
        <g transform="translate(-2.84,-3.68) rotate(9.48) scale(0.980)">
        <g transform="translate(-4.46,-3.05) rotate(14.89) scale(0.960)">
        <g transform="translate(-5.00,-2.15) rotate(19.94) scale(0.940)">
        <g transform="translate(-4.31,-1.06) rotate(24.05) scale(0.920)">
        <g transform="translate(-2.56,0.13) rotate(26.66) scale(0.900)">
        <g transform="translate(-0.19,1.31) rotate(27.29) scale(0.880)">
        <path d="M0.0,-72.1 L21.2,-29.2 L68.6,-22.3 L34.3,11.1 L42.4,58.4 L0.0,36.1 L-42.4,58.4 L-34.3,11.1 L-68.6,-22.3 L-21.2,-29.2Z" fill="url(#rgrad0)" filter="url(#blur0)" opacity="0.78"/>
      </g>
      </g>
      </g>
      </g>
      </g>
      </g>
      </g>
  </g>
  <g transform="translate(1200.8, 648.4)">
      <g transform="translate(-4.46,-1.80) rotate(4.33) scale(1.000)">
        <g transform="translate(-5.00,-0.67) rotate(9.48) scale(0.980)">
        <g transform="translate(-4.31,0.53) rotate(14.89) scale(0.960)">
        <g transform="translate(-2.56,1.68) rotate(19.94) scale(0.940)" clip-path="url(#clipStar)">
        <g transform="translate(-0.19,2.67) rotate(24.05) scale(0.920)">
        <g transform="translate(2.23,3.43) rotate(26.66) scale(0.900)">
        <g transform="translate(4.10,3.89) rotate(27.29) scale(0.880)">
        <rect x="-29.6" y="-29.6" width="59.2" height="59.2" rx="14.8" fill="url(#lgrad1)" filter="url(#shadow)" opacity="0.85"/>
        <circle cx="0" cy="0" r="19.7" fill="url(#rgrad2)" opacity="0.59"/>
      </g>
      </g>
      </g>
      </g>
      </g>
      </g>
      </g>
  </g>
  <g transform="translate(1435.1, 665.3)">
      <g transform="translate(-4.31,2.03) rotate(4.33) scale(1.000)">
        <g transform="translate(-2.56,2.96) rotate(9.48) scale(0.980)">
        <g transform="translate(-0.19,3.62) rotate(14.89) scale(0.960)">
        <g transform="translate(2.23,3.96) rotate(19.94) scale(0.940)">
        <g transform="translate(4.10,3.95) rotate(24.05) scale(0.920)">
        <g transform="translate(4.97,3.58) rotate(26.66) scale(0.900)" mask="url(#maskStripes)">
        <g transform="translate(4.62,2.89) rotate(27.29) scale(0.880)">
        <path d="M24.4,14.1 L0.0,28.2 L-24.4,14.1 L-24.4,-14.1 L-0.0,-28.2 L24.4,-14.1Z" fill="url(#rgrad2)" filter="url(#blur2)" opacity="0.89"/>
        <ellipse cx="0" cy="0" rx="11.7" ry="7.8" fill="#FFFFFF" opacity="0.45"/>
      </g>
      </g>
      </g>
      </g>
      </g>
      </g>
      </g>
  </g>
  <g transform="translate(1665.7, 679.8)">
      <g transform="translate(-0.19,4.00) rotate(4.33) scale(1.000)">
        <g transform="translate(2.23,3.86) rotate(9.48) scale(0.980)">
        <g transform="translate(4.10,3.39) rotate(14.89) scale(0.960)">
        <g transform="translate(4.97,2.60) rotate(19.94) scale(0.940)">
        <g transform="translate(4.62,1.59) rotate(24.05) scale(0.920)">
        <g transform="translate(3.14,0.44) rotate(26.66) scale(0.900)">
        <g transform="translate(0.89,-0.76) rotate(27.29) scale(0.880)">
        <circle cx="0" cy="0" r="23.4" fill="url(#rgrad3)" filter="url(#shadow)" opacity="0.90"/>
        <text x="0" y="5" text-anchor="middle" font-family="Arial, sans-serif" font-size="14" fill="#FFFFFF" opacity="0.90">334</text>
      </g>
      </g>
      </g>
      </g>
      </g>
      </g>
      </g>
  </g>
  <g transform="translate(130.0, 965.0)">
      <g transform="translate(4.10,2.29) rotate(4.33) scale(1.000)">
        <g transform="translate(4.97,1.22) rotate(9.48) scale(0.980)">
        <g transform="translate(4.62,0.04) rotate(14.89) scale(0.960)">
        <g transform="translate(3.14,-1.15) rotate(19.94) scale(0.940)" clip-path="url(#clipDynamic)">
        <g transform="translate(0.89,-2.23) rotate(24.05) scale(0.920)">
        <g transform="translate(-1.57,-3.11) rotate(26.66) scale(0.900)">
        <g transform="translate(-3.66,-3.71) rotate(27.29) scale(0.880)">
        <path d="M0.0,-58.7 L17.3,-23.8 L55.8,-18.1 L27.9,9.1 L34.5,47.5 L0.0,29.4 L-34.5,47.5 L-27.9,9.1 L-55.8,-18.1 L-17.3,-23.8Z" fill="url(#lgrad4)" filter="url(#blur4)" opacity="0.87"/>
      </g>
      </g>
      </g>
      </g>
      </g>
      </g>
      </g>
  </g>
  <g transform="translate(386.6, 260.0)" mask="url(#maskGradient)">
    <ellipse cx="0" cy="0" rx="200" ry="150" fill="url(#rgrad0)" filter="url(#blur3)" opacity="0.3"/>
  </g>
  <g transform="translate(804.7, 224.8)" mask="url(#maskCircleFade)">
    <ellipse cx="0" cy="0" rx="200" ry="150" fill="url(#rgrad1)" filter="url(#blur3)" opacity="0.3"/>
  </g>
  <g transform="translate(1218.5, 224.9)" mask="url(#maskStripes)">
    <ellipse cx="0" cy="0" rx="200" ry="150" fill="url(#rgrad2)" filter="url(#blur3)" opacity="0.3"/>
  </g>
</svg>