<?xml version="1.0" encoding="UTF-8"?>
<svg xmlns="http://www.w3.org/2000/svg" viewBox="0 0 1920 1080" width="1920" height="1080">
  <defs>
    <filter id="blur0" x="-50%" y="-50%" width="200%" height="200%">
      <feGaussianBlur in="SourceGraphic" stdDeviation="1"/>
    </filter>
    <filter id="blur1" x="-50%" y="-50%" width="200%" height="200%">
      <feGaussianBlur in="SourceGraphic" stdDeviation="3"/>
    </filter>
    <filter id="blur2" x="-50%" y="-50%" width="200%" height="200%">
      <feGaussianBlur in="SourceGraphic" stdDeviation="5"/>
    </filter>
    <filter id="blur3" x="-50%" y="-50%" width="200%" height="200%">
      <feGaussianBlur in="SourceGraphic" stdDeviation="7"/>
    </filter>
    <filter id="blur4" x="-50%" y="-50%" width="200%" height="200%">
      <feGaussianBlur in="SourceGraphic" stdDeviation="9"/>
    </filter>
    <filter id="shadow" x="-50%" y="-50%" width="200%" height="200%">
      <feGaussianBlur in="SourceAlpha" stdDeviation="3" result="blur"/>
      <feOffset in="blur" dx="4" dy="4" result="offsetBlur"/>
      <feMerge>
        <feMergeNode in="offsetBlur"/>
        <feMergeNode in="SourceGraphic"/>
      </feMerge>
    </filter>
    <linearGradient id="lgrad0" x1="0%" y1="0%" x2="35.8%" y2="97.9%">
      <stop offset="0%" stop-color="#FF6B6B"/>
      <stop offset="33%" stop-color="#4ECDC4"/>
      <stop offset="66%" stop-color="#45B7D1"/>
      <stop offset="100%" stop-color="#96E6A1"/>
    </linearGradient>
    <linearGradient id="lgrad1" x1="0%" y1="0%" x2="13.7%" y2="84.4%">
      <stop offset="0%" stop-color="#FFE66D"/>
      <stop offset="33%" stop-color="#FF6B6B"/>
      <stop offset="66%" stop-color="#C44D58"/>
      <stop offset="100%" stop-color="#8B0000"/>
    </linearGradient>
    <linearGradient id="lgrad2" x1="0%" y1="0%" x2="1.4%" y2="61.7%">
      <stop offset="0%" stop-color="#4169E1"/>
      <stop offset="33%" stop-color="#7B68EE"/>
      <stop offset="66%" stop-color="#9370DB"/>
      <stop offset="100%" stop-color="#FFD700"/>
    </linearGradient>
    <linearGradient id="lgrad3" x1="0%" y1="0%" x2="2.1%" y2="35.8%">
      <stop offset="0%" stop-color="#32CD32"/>
      <stop offset="33%" stop-color="#228B22"/>
      <stop offset="66%" stop-color="#006400"/>
      <stop offset="100%" stop-color="#ADFF2F"/>
    </linearGradient>
    <linearGradient id="lgrad4" x1="0%" y1="0%" x2="15.6%" y2="13.7%">
      <stop offset="0%" stop-color="#FF1493"/>
      <stop offset="33%" stop-color="#FF69B4"/>
      <stop offset="66%" stop-color="#FFB6C1"/>
      <stop offset="100%" stop-color="#FFC0CB"/>
    </linearGradient>
    <radialGradient id="rgrad0" cx="42.9%" cy="38.6%" r="60%">
      <stop offset="0%" stop-color="#FF6B6B" stop-opacity="1"/>
      <stop offset="50%" stop-color="#4ECDC4" stop-opacity="0.8"/>
      <stop offset="100%" stop-color="#45B7D1" stop-opacity="0.6"/>
    </radialGradient>
    <radialGradient id="rgrad1" cx="52.9%" cy="46.6%" r="60%">
      <stop offset="0%" stop-color="#FFE66D" stop-opacity="1"/>
      <stop offset="50%" stop-color="#FF6B6B" stop-opacity="0.8"/>
      <stop offset="100%" stop-color="#C44D58" stop-opacity="0.6"/>
    </radialGradient>
    <radialGradient id="rgrad2" cx="62.9%" cy="54.6%" r="60%">
      <stop offset="0%" stop-color="#4169E1" stop-opacity="1"/>
      <stop offset="50%" stop-color="#7B68EE" stop-opacity="0.8"/>
      <stop offset="100%" stop-color="#9370DB" stop-opacity="0.6"/>
    </radialGradient>
    <radialGradient id="rgrad3" cx="32.9%" cy="62.6%" r="60%">
      <stop offset="0%" stop-color="#32CD32" stop-opacity="1"/>
      <stop offset="50%" stop-color="#228B22" stop-opacity="0.8"/>
      <stop offset="100%" stop-color="#006400" stop-opacity="0.6"/>
    </radialGradient>
    <radialGradient id="rgrad4" cx="42.9%" cy="30.6%" r="60%">
      <stop offset="0%" stop-color="#FF1493" stop-opacity="1"/>
      <stop offset="50%" stop-color="#FF69B4" stop-opacity="0.8"/>
      <stop offset="100%" stop-color="#FFB6C1" stop-opacity="0.6"/>
    </radialGradient>
    <clipPath id="clipCircle">
      <circle cx="0" cy="0" r="50"/>
    </clipPath>
    <clipPath id="clipStar">
      <path d="M0.0,-50.0 L14.7,-20.2 L47.6,-15.5 L23.8,7.7 L29.4,40.5 L0.0,25.0 L-29.4,40.5 L-23.8,7.7 L-47.6,-15.5 L-14.7,-20.2Z"/>
    </clipPath>
    <clipPath id="clipHex">
      <path d="M39.0,22.5 L0.0,45.0 L-39.0,22.5 L-39.0,-22.5 L-0.0,-45.0 L39.0,-22.5Z"/>
    </clipPath>
    <clipPath id="clipRect">
      <rect x="-40" y="-30" width="80" height="60" rx="10"/>
    </clipPath>
    <clipPath id="clipDynamic">
      <circle cx="0" cy="0" r="22.5"/>
    </clipPath>
    <mask id="maskGradient" maskContentUnits="objectBoundingBox">
      <rect x="0" y="0" width="1" height="1" fill="url(#maskGrad)"/>
    </mask>
    <linearGradient id="maskGrad" x1="0%" y1="0%" x2="100%" y2="100%">
      <stop offset="0%" stop-color="white"/>
      <stop offset="100%" stop-color="black"/>
    </linearGradient>
    <mask id="maskCircleFade">
      <circle cx="0" cy="0" r="60" fill="white"/>
      <circle cx="0" cy="0" r="30" fill="black"/>
    </mask>
    <mask id="maskStripes">
      <rect x="-50" y="-50" width="100" height="100" fill="white"/>
      <rect x="-50" y="-40" width="100" height="10" fill="black"/>
      <rect x="-50" y="-20" width="100" height="10" fill="black"/>
      <rect x="-50" y="0" width="100" height="10" fill="black"/>
      <rect x="-50" y="20" width="100" height="10" fill="black"/>
      <rect x="-50" y="40" width="100" height="10" fill="black"/>
    </mask>
    <mask id="maskDynamic">
      <rect x="-60" y="-60" width="120" height="120" fill="white" fill-opacity="0.63"/>
      <circle cx="0" cy="0" r="25" fill="white"/>
    </mask>
  </defs>
  <rect width="1920" height="1080" fill="url(#lgrad0)"/>
  <g transform="translate(75.0, 113.8)">
      <g transform="translate(-4.17,2.20) rotate(2.37) scale(1.000)">
        <g transform="translate(-2.34,3.09) rotate(2.90) scale(0.980)">
        <g transform="translate(0.06,3.70) rotate(1.40) scale(0.960)">
        <g transform="translate(2.45,3.98) rotate(-2.12) scale(0.940)" clip-path="url(#clipCircle)">
        <g transform="translate(4.24,3.91) rotate(-7.54) scale(0.920)">
        <g transform="translate(4.99,3.49) rotate(-14.55) scale(0.900)">
        <g transform="translate(4.52,2.75) rotate(-22.72) scale(0.880)">
        <path d="M0.0,-67.1 L19.7,-27.1 L63.8,-20.7 L31.9,10.4 L39.4,54.3 L0.0,33.6 L-39.4,54.3 L-31.9,10.4 L-63.8,-20.7 L-19.7,-27.1Z" fill="url(#lgrad0)" filter="url(#blur0)" opacity="0.69"/>
      </g>
      </g>
      </g>
      </g>
      </g>
      </g>
      </g>
  </g>
  <g transform="translate(305.9, 124.0)">
      <g transform="translate(0.06,4.00) rotate(2.37) scale(1.000)">
        <g transform="translate(2.45,3.81) rotate(2.90) scale(0.980)">
        <g transform="translate(4.24,3.27) rotate(1.40) scale(0.960)">
        <g transform="translate(4.99,2.45) rotate(-2.12) scale(0.940)">
        <g transform="translate(4.52,1.40) rotate(-7.54) scale(0.920)">
        <g transform="translate(2.94,0.23) rotate(-14.55) scale(0.900)" mask="url(#maskCircleFade)">
        <g transform="translate(0.64,-0.96) rotate(-22.72) scale(0.880)">
        <rect x="-26.4" y="-26.4" width="52.7" height="52.7" rx="13.2" fill="url(#rgrad1)" filter="url(#shadow)" opacity="0.58"/>
        <circle cx="0" cy="0" r="17.6" fill="url(#rgrad2)" opacity="0.40"/>
      </g>
      </g>
      </g>
      </g>
      </g>
      </g>
      </g>
  </g>
  <g transform="translate(540.4, 122.9)">
      <g transform="translate(4.24,2.12) rotate(2.37) scale(1.000)">
        <g transform="translate(4.99,1.02) rotate(2.90) scale(0.980)">
        <g transform="translate(4.52,-0.17) rotate(1.40) scale(0.960)">
        <g transform="translate(2.94,-1.34) rotate(-2.12) scale(0.940)">
        <g transform="translate(0.64,-2.39) rotate(-7.54) scale(0.920)">
        <g transform="translate(-1.81,-3.23) rotate(-14.55) scale(0.900)">
        <g transform="translate(-3.82,-3.79) rotate(-22.72) scale(0.880)">
        <path d="M23.4,13.5 L0.0,27.0 L-23.4,13.5 L-23.4,-13.5 L-0.0,-27.0 L23.4,-13.5Z" fill="url(#rgrad2)" filter="url(#blur2)" opacity="0.46"/>
        <ellipse cx="0" cy="0" rx="11.3" ry="7.5" fill="#FFFFFF" opacity="0.23"/>
      </g>
      </g>
      </g>
      </g>
      </g>
      </g>
      </g>
  </g>
  <g transform="translate(774.7, 111.1)">
      <g transform="translate(4.52,-1.71) rotate(2.37) scale(1.000)">
        <g transform="translate(2.94,-2.70) rotate(2.90) scale(0.980)">
        <g transform="translate(0.64,-3.45) rotate(1.40) scale(0.960)">
        <g transform="translate(-1.81,-3.90) rotate(-2.12) scale(0.940)" clip-path="url(#clipRect)">
        <g transform="translate(-3.82,-3.99) rotate(-7.54) scale(0.920)">
        <g transform="translate(-4.90,-3.73) rotate(-14.55) scale(0.900)">
        <g transform="translate(-4.78,-3.13) rotate(-22.72) scale(0.880)">
        <circle cx="0" cy="0" r="25.5" fill="url(#lgrad3)" filter="url(#shadow)" opacity="0.34"/>
        <text x="0" y="5" text-anchor="middle" font-family="Arial, sans-serif" font-size="14" fill="#FFFFFF" opacity="0.34">843</text>
      </g>
      </g>
      </g>
      </g>
      </g>
      </g>
      </g>
  </g>
  <g transform="translate(1005.4, 94.0)">
      <g transform="translate(0.64,-3.97) rotate(2.37) scale(1.000)">
        <g transform="translate(-1.81,-3.94) rotate(2.90) scale(0.980)">
        <g transform="translate(-3.82,-3.56) rotate(1.40) scale(0.960)">
        <g transform="translate(-4.90,-2.87) rotate(-2.12) scale(0.940)">
        <g transform="translate(-4.78,-1.92) rotate(-7.54) scale(0.920)">
        <g transform="translate(-3.48,-0.79) rotate(-14.55) scale(0.900)" mask="url(#maskGradient)">
        <g transform="translate(-1.34,0.40) rotate(-22.72) scale(0.880)">
        <path d="M0.0,-65.3 L19.2,-26.4 L62.2,-20.2 L31.1,10.1 L38.4,52.9 L0.0,32.7 L-38.4,52.9 L-31.1,10.1 L-62.2,-20.2 L-19.2,-26.4Z" fill="url(#rgrad4)" filter="url(#blur4)" opacity="0.24"/>
      </g>
      </g>
      </g>
      </g>
      </g>
      </g>
      </g>
  </g>
  <g transform="translate(1229.9, 79.8)">
      <g transform="translate(-3.82,-2.58) rotate(2.37) scale(1.000)">
        <g transform="translate(-4.90,-1.56) rotate(2.90) scale(0.980)">
        <g transform="translate(-4.78,-0.40) rotate(1.40) scale(0.960)">
        <g transform="translate(-3.48,0.80) rotate(-2.12) scale(0.940)">
        <g transform="translate(-1.34,1.92) rotate(-7.54) scale(0.920)">
        <g transform="translate(1.14,2.87) rotate(-14.55) scale(0.900)">
        <g transform="translate(3.33,3.57) rotate(-22.72) scale(0.880)">
        <rect x="-37.3" y="-37.3" width="74.7" height="74.7" rx="18.7" fill="url(#rgrad0)" filter="url(#shadow)" opacity="0.16"/>
        <circle cx="0" cy="0" r="24.9" fill="url(#rgrad1)" opacity="0.11"/>
      </g>
      </g>
      </g>
      </g>
      </g>
      </g>
      </g>
  </g>
  <g transform="translate(1447.1, 75.1)">
      <g transform="translate(-4.78,1.18) rotate(2.37) scale(1.000)">
        <g transform="translate(-3.48,2.26) rotate(2.90) scale(0.980)">
        <g transform="translate(-1.34,3.13) rotate(1.40) scale(0.960)">
        <g transform="translate(1.14,3.73) rotate(-2.12) scale(0.940)" clip-path="url(#clipStar)">
        <g transform="translate(3.33,3.99) rotate(-7.54) scale(0.920)">
        <g transform="translate(4.71,3.90) rotate(-14.55) scale(0.900)">
        <g transform="translate(4.94,3.45) rotate(-22.72) scale(0.880)">
        <path d="M36.6,21.2 L0.0,42.3 L-36.6,21.2 L-36.6,-21.2 L-0.0,-42.3 L36.6,-21.2Z" fill="url(#lgrad1)" filter="url(#blur1)" opacity="0.11"/>
        <ellipse cx="0" cy="0" rx="17.6" ry="11.8" fill="#FFFFFF" opacity="0.06"/>
      </g>
      </g>
      </g>
      </g>
      </g>
      </g>
      </g>
  </g>
  <g transform="translate(1657.7, 82.1)">
      <g transform="translate(-1.34,3.85) rotate(2.37) scale(1.000)">
        <g transform="translate(1.14,4.00) rotate(2.90) scale(0.980)">
        <g transform="translate(3.33,3.78) rotate(1.40) scale(0.960)">
        <g transform="translate(4.71,3.23) rotate(-2.12) scale(0.940)">
        <g transform="translate(4.94,2.39) rotate(-7.54) scale(0.920)">
        <g transform="translate(3.95,1.34) rotate(-14.55) scale(0.900)" mask="url(#maskDynamic)">
        <g transform="translate(2.00,0.17) rotate(-22.72) scale(0.880)">
        <circle cx="0" cy="0" r="28.3" fill="url(#rgrad2)" filter="url(#shadow)" opacity="0.10"/>
        <text x="0" y="5" text-anchor="middle" font-family="Arial, sans-serif" font-size="14" fill="#FFFFFF" opacity="0.10">843</text>
      </g>
      </g>
      </g>
      </g>
      </g>
      </g>
      </g>
  </g>
  <g transform="translate(103.9, 377.5)">
      <g transform="translate(3.33,2.98) rotate(2.37) scale(1.000)">
        <g transform="translate(4.71,2.06) rotate(2.90) scale(0.980)">
        <g transform="translate(4.94,0.96) rotate(1.40) scale(0.960)">
        <g transform="translate(3.95,-0.23) rotate(-2.12) scale(0.940)">
        <g transform="translate(2.00,-1.40) rotate(-7.54) scale(0.920)">
        <g transform="translate(-0.44,-2.45) rotate(-14.55) scale(0.900)">
        <g transform="translate(-2.77,-3.27) rotate(-22.72) scale(0.880)">
        <path d="M0.0,-45.9 L13.5,-18.6 L43.7,-14.2 L21.8,7.1 L27.0,37.1 L0.0,22.9 L-27.0,37.1 L-21.8,7.1 L-43.7,-14.2 L-13.5,-18.6Z" fill="url(#rgrad3)" filter="url(#blur3)" opacity="0.12"/>
      </g>
      </g>
      </g>
      </g>
      </g>
      </g>
      </g>
  </g>
  <g transform="translate(309.1, 394.1)">
      <g transform="translate(4.94,-0.63) rotate(2.37) scale(1.000)">
        <g transform="translate(3.95,-1.77) rotate(2.90) scale(0.980)">
        <g transform="translate(2.00,-2.75) rotate(1.40) scale(0.960)">
        <g transform="translate(-0.44,-3.49) rotate(-2.12) scale(0.940)" clip-path="url(#clipDynamic)">
        <g transform="translate(-2.77,-3.91) rotate(-7.54) scale(0.920)">
        <g transform="translate(-4.43,-3.98) rotate(-14.55) scale(0.900)">
        <g transform="translate(-5.00,-3.70) rotate(-22.72) scale(0.880)">
        <rect x="-24.0" y="-24.0" width="48.1" height="48.1" rx="12.0" fill="url(#lgrad4)" filter="url(#shadow)" opacity="0.18"/>
        <circle cx="0" cy="0" r="16.0" fill="url(#rgrad0)" opacity="0.12"/>
      </g>
      </g>
      </g>
      </g>
      </g>
      </g>
      </g>
  </g>
  <g transform="translate(517.1, 404.1)">
      <g transform="translate(2.00,-3.66) rotate(2.37) scale(1.000)">
        <g transform="translate(-0.44,-3.97) rotate(2.90) scale(0.980)">
        <g transform="translate(-2.77,-3.93) rotate(1.40) scale(0.960)">
        <g transform="translate(-4.43,-3.53) rotate(-2.12) scale(0.940)">
        <g transform="translate(-5.00,-2.82) rotate(-7.54) scale(0.920)">
        <g transform="translate(-4.35,-1.86) rotate(-14.55) scale(0.900)" mask="url(#maskStripes)">
        <g transform="translate(-2.63,-0.73) rotate(-22.72) scale(0.880)">
        <path d="M31.8,18.4 L0.0,36.7 L-31.8,18.4 L-31.8,-18.4 L-0.0,-36.7 L31.8,-18.4Z" fill="url(#rgrad0)" filter="url(#blur0)" opacity="0.26"/>
        <ellipse cx="0" cy="0" rx="15.3" ry="10.2" fill="#FFFFFF" opacity="0.13"/>
      </g>
      </g>
      </g>
      </g>
      </g>
      </g>
      </g>
  </g>
  <g transform="translate(730.6, 402.7)">
      <g transform="translate(-2.77,-3.33) rotate(2.37) scale(1.000)">
        <g transform="translate(-4.43,-2.52) rotate(2.90) scale(0.980)">
        <g transform="translate(-5.00,-1.49) rotate(1.40) scale(0.960)">
        <g transform="translate(-4.35,-0.33) rotate(-2.12) scale(0.940)">
        <g transform="translate(-2.63,0.86) rotate(-7.54) scale(0.920)">
        <g transform="translate(-0.27,1.98) rotate(-14.55) scale(0.900)">
        <g transform="translate(2.16,2.92) rotate(-22.72) scale(0.880)">
        <circle cx="0" cy="0" r="36.6" fill="url(#rgrad1)" filter="url(#shadow)" opacity="0.37"/>
        <text x="0" y="5" text-anchor="middle" font-family="Arial, sans-serif" font-size="14" fill="#FFFFFF" opacity="0.37">843</text>
      </g>
      </g>
      </g>
      </g>
      </g>
      </g>
      </g>
  </g>
  <g transform="translate(951.3, 390.7)">
      <g transform="translate(-5.00,0.07) rotate(2.37) scale(1.000)">
        <g transform="translate(-4.35,1.25) rotate(2.90) scale(0.980)">
        <g transform="translate(-2.63,2.31) rotate(1.40) scale(0.960)">
        <g transform="translate(-0.27,3.18) rotate(-2.12) scale(0.940)" clip-path="url(#clipHex)">
        <g transform="translate(2.16,3.75) rotate(-7.54) scale(0.920)">
        <g transform="translate(4.06,3.99) rotate(-14.55) scale(0.900)">
        <g transform="translate(4.96,3.88) rotate(-22.72) scale(0.880)">
        <path d="M0.0,-73.1 L21.5,-29.6 L69.5,-22.6 L34.8,11.3 L43.0,59.1 L0.0,36.5 L-43.0,59.1 L-34.8,11.3 L-69.5,-22.6 L-21.5,-29.6Z" fill="url(#lgrad2)" filter="url(#blur2)" opacity="0.49"/>
      </g>
      </g>
      </g>
      </g>
      </g>
      </g>
      </g>
  </g>
  <g transform="translate(1179.1, 373.6)">
      <g transform="translate(-2.63,3.40) rotate(2.37) scale(1.000)">
        <g transform="translate(-0.27,3.87) rotate(2.90) scale(0.980)">
        <g transform="translate(2.16,4.00) rotate(1.40) scale(0.960)">
        <g transform="translate(4.06,3.76) rotate(-2.12) scale(0.940)">
        <g transform="translate(4.96,3.19) rotate(-7.54) scale(0.920)">
        <g transform="translate(4.65,2.34) rotate(-14.55) scale(0.900)" mask="url(#maskCircleFade)">
        <g transform="translate(3.20,1.28) rotate(-22.72) scale(0.880)">
        <rect x="-30.5" y="-30.5" width="60.9" height="60.9" rx="15.2" fill="url(#rgrad3)" filter="url(#shadow)" opacity="0.60"/>
        <circle cx="0" cy="0" r="20.3" fill="url(#rgrad4)" opacity="0.42"/>
      </g>
      </g>
      </g>
      </g>
      </g>
      </g>
      </g>
  </g>
  <g transform="translate(1412.0, 359.5)">
      <g transform="translate(2.16,3.61) rotate(2.37) scale(1.000)">
        <g transform="translate(4.06,2.94) rotate(2.90) scale(0.980)">
        <g transform="translate(4.96,2.00) rotate(1.40) scale(0.960)">
        <g transform="translate(4.65,0.89) rotate(-2.12) scale(0.940)">
        <g transform="translate(3.20,-0.30) rotate(-7.54) scale(0.920)">
        <g transform="translate(0.97,-1.47) rotate(-14.55) scale(0.900)">
        <g transform="translate(-1.50,-2.50) rotate(-22.72) scale(0.880)">
        <path d="M24.9,14.4 L0.0,28.7 L-24.9,14.4 L-24.9,-14.4 L-0.0,-28.7 L24.9,-14.4Z" fill="url(#rgrad4)" filter="url(#blur4)" opacity="0.71"/>
        <ellipse cx="0" cy="0" rx="12.0" ry="8.0" fill="#FFFFFF" opacity="0.36"/>
      </g>
      </g>
      </g>
      </g>
      </g>
      </g>
      </g>
  </g>
  <g transform="translate(1646.8, 355.1)">
      <g transform="translate(4.96,0.50) rotate(2.37) scale(1.000)">
        <g transform="translate(4.65,-0.70) rotate(2.90) scale(0.980)">
        <g transform="translate(3.20,-1.83) rotate(1.40) scale(0.960)">
        <g transform="translate(0.97,-2.80) rotate(-2.12) scale(0.940)" clip-path="url(#clipCircle)">
        <g transform="translate(-1.50,-3.52) rotate(-7.54) scale(0.920)">
        <g transform="translate(-3.60,-3.92) rotate(-14.55) scale(0.900)">
        <g transform="translate(-4.82,-3.98) rotate(-22.72) scale(0.880)">
        <circle cx="0" cy="0" r="23.0" fill="url(#lgrad0)" filter="url(#shadow)" opacity="0.80"/>
        <text x="0" y="5" text-anchor="middle" font-family="Arial, sans-serif" font-size="14" fill="#FFFFFF" opacity="0.80">843</text>
      </g>
      </g>
      </g>
      </g>
      </g>
      </g>
      </g>
  </g>
  <g transform="translate(120.0, 642.4)">
      <g transform="translate(3.20,-3.07) rotate(2.37) scale(1.000)">
        <g transform="translate(0.97,-3.69) rotate(2.90) scale(0.980)">
        <g transform="translate(-1.50,-3.98) rotate(1.40) scale(0.960)">
        <g transform="translate(-3.60,-3.92) rotate(-2.12) scale(0.940)">
        <g transform="translate(-4.82,-3.50) rotate(-7.54) scale(0.920)">
        <g transform="translate(-4.86,-2.77) rotate(-14.55) scale(0.900)" mask="url(#maskGradient)">
        <g transform="translate(-3.71,-1.80) rotate(-22.72) scale(0.880)">
        <path d="M0.0,-57.0 L16.8,-23.1 L54.2,-17.6 L27.1,8.8 L33.5,46.1 L0.0,28.5 L-33.5,46.1 L-27.1,8.8 L-54.2,-17.6 L-16.8,-23.1Z" fill="url(#rgrad1)" filter="url(#blur1)" opacity="0.87"/>
      </g>
      </g>
      </g>
      </g>
      </g>
      </g>
      </g>
  </g>
  <g transform="translate(348.3, 657.9)">
      <g transform="translate(-1.50,-3.82) rotate(2.37) scale(1.000)">
        <g transform="translate(-3.60,-3.29) rotate(2.90) scale(0.980)">
        <g transform="translate(-4.82,-2.47) rotate(1.40) scale(0.960)">
        <g transform="translate(-4.86,-1.43) rotate(-2.12) scale(0.940)">
        <g transform="translate(-3.71,-0.26) rotate(-7.54) scale(0.920)">
        <g transform="translate(-1.65,0.93) rotate(-14.55) scale(0.900)">
        <g transform="translate(0.81,2.04) rotate(-22.72) scale(0.880)">
        <rect x="-35.4" y="-35.4" width="70.7" height="70.7" rx="17.7" fill="url(#rgrad2)" filter="url(#shadow)" opacity="0.90"/>
        <circle cx="0" cy="0" r="23.6" fill="url(#rgrad3)" opacity="0.63"/>
      </g>
      </g>
      </g>
      </g>
      </g>
      </g>
      </g>
  </g>
  <g transform="translate(569.6, 674.5)">
      <g transform="translate(-4.82,-1.05) rotate(2.37) scale(1.000)">
        <g transform="translate(-4.86,0.14) rotate(2.90) scale(0.980)">
        <g transform="translate(-3.71,1.31) rotate(1.40) scale(0.960)">
        <g transform="translate(-1.65,2.37) rotate(-2.12) scale(0.940)" clip-path="url(#clipRect)">
        <g transform="translate(0.81,3.22) rotate(-7.54) scale(0.920)">
        <g transform="translate(3.08,3.77) rotate(-14.55) scale(0.900)">
        <g transform="translate(4.59,4.00) rotate(-22.72) scale(0.880)">
        <path d="M38.8,22.4 L0.0,44.8 L-38.8,22.4 L-38.8,-22.4 L-0.0,-44.8 L38.8,-22.4Z" fill="url(#lgrad3)" filter="url(#blur3)" opacity="0.89"/>
        <ellipse cx="0" cy="0" rx="18.7" ry="12.4" fill="#FFFFFF" opacity="0.45"/>
      </g>
      </g>
      </g>
      </g>
      </g>
      </g>
      </g>
  </g>
  <g transform="translate(783.7, 684.2)">
      <g transform="translate(-3.71,2.68) rotate(2.37) scale(1.000)">
        <g transform="translate(-1.65,3.44) rotate(2.90) scale(0.980)">
        <g transform="translate(0.81,3.89) rotate(1.40) scale(0.960)">
        <g transform="translate(3.08,3.99) rotate(-2.12) scale(0.940)">
        <g transform="translate(4.59,3.74) rotate(-7.54) scale(0.920)">
        <g transform="translate(4.98,3.15) rotate(-14.55) scale(0.900)" mask="url(#maskDynamic)">
        <g transform="translate(4.15,2.28) rotate(-22.72) scale(0.880)">
        <circle cx="0" cy="0" r="32.5" fill="url(#rgrad4)" filter="url(#shadow)" opacity="0.85"/>
        <text x="0" y="5" text-anchor="middle" font-family="Arial, sans-serif" font-size="14" fill="#FFFFFF" opacity="0.85">843</text>
      </g>
      </g>
      </g>
      </g>
      </g>
      </g>
      </g>
  </g>
  <g transform="translate(992.0, 682.6)">
      <g transform="translate(0.81,3.95) rotate(2.37) scale(1.000)">
        <g transform="translate(3.08,3.58) rotate(2.90) scale(0.980)">
        <g transform="translate(4.59,2.89) rotate(1.40) scale(0.960)">
        <g transform="translate(4.98,1.95) rotate(-2.12) scale(0.940)">
        <g transform="translate(4.15,0.83) rotate(-7.54) scale(0.920)">
        <g transform="translate(2.30,-0.37) rotate(-14.55) scale(0.900)">
        <g transform="translate(-0.11,-1.53) rotate(-22.72) scale(0.880)">
        <path d="M0.0,-50.8 L14.9,-20.6 L48.4,-15.7 L24.2,7.9 L29.9,41.1 L0.0,25.4 L-29.9,41.1 L-24.2,7.9 L-48.4,-15.7 L-14.9,-20.6Z" fill="url(#rgrad0)" filter="url(#blur0)" opacity="0.78"/>
      </g>
      </g>
      </g>
      </g>
      </g>
      </g>
      </g>
  </g>
  <g transform="translate(1197.4, 670.3)">
      <g transform="translate(4.59,1.59) rotate(2.37) scale(1.000)">
        <g transform="translate(4.98,0.43) rotate(2.90) scale(0.980)">
        <g transform="translate(4.15,-0.76) rotate(1.40) scale(0.960)">
        <g transform="translate(2.30,-1.89) rotate(-2.12) scale(0.940)" clip-path="url(#clipStar)">
        <g transform="translate(-0.11,-2.85) rotate(-7.54) scale(0.920)">
        <g transform="translate(-2.49,-3.55) rotate(-14.55) scale(0.900)">
        <g transform="translate(-4.26,-3.94) rotate(-22.72) scale(0.880)">
        <rect x="-22.5" y="-22.5" width="45.1" height="45.1" rx="11.3" fill="url(#lgrad1)" filter="url(#shadow)" opacity="0.68"/>
        <circle cx="0" cy="0" r="15.0" fill="url(#rgrad2)" opacity="0.48"/>
      </g>
      </g>
      </g>
      </g>
      </g>
      </g>
      </g>
  </g>
  <g transform="translate(1403.4, 653.2)">
      <g transform="translate(4.15,-2.23) rotate(2.37) scale(1.000)">
        <g transform="translate(2.30,-3.11) rotate(2.90) scale(0.980)">
        <g transform="translate(-0.11,-3.72) rotate(1.40) scale(0.960)">
        <g transform="translate(-2.49,-3.99) rotate(-2.12) scale(0.940)">
        <g transform="translate(-4.26,-3.90) rotate(-7.54) scale(0.920)">
        <g transform="translate(-4.99,-3.47) rotate(-14.55) scale(0.900)" mask="url(#maskStripes)">
        <g transform="translate(-4.50,-2.72) rotate(-22.72) scale(0.880)">
        <path d="M27.5,15.9 L0.0,31.8 L-27.5,15.9 L-27.5,-15.9 L-0.0,-31.8 L27.5,-15.9Z" fill="url(#rgrad2)" filter="url(#blur2)" opacity="0.57"/>
        <ellipse cx="0" cy="0" rx="13.3" ry="8.8" fill="#FFFFFF" opacity="0.29"/>
      </g>
      </g>
      </g>
      </g>
      </g>
      </g>
      </g>
  </g>
  <g transform="translate(1613.4, 639.3)">
      <g transform="translate(-0.11,-4.00) rotate(2.37) scale(1.000)">
        <g transform="translate(-2.49,-3.80) rotate(2.90) scale(0.980)">
        <g transform="translate(-4.26,-3.25) rotate(1.40) scale(0.960)">
        <g transform="translate(-4.99,-2.42) rotate(-2.12) scale(0.940)">
        <g transform="translate(-4.50,-1.37) rotate(-7.54) scale(0.920)">
        <g transform="translate(-2.91,-0.20) rotate(-14.55) scale(0.900)">
        <g transform="translate(-0.60,0.99) rotate(-22.72) scale(0.880)">
        <circle cx="0" cy="0" r="33.7" fill="url(#rgrad3)" filter="url(#shadow)" opacity="0.45"/>
        <text x="0" y="5" text-anchor="middle" font-family="Arial, sans-serif" font-size="14" fill="#FFFFFF" opacity="0.45">843</text>
      </g>
      </g>
      </g>
      </g>
      </g>
      </g>
      </g>
  </g>
  <g transform="translate(70.0, 915.1)">
      <g transform="translate(-4.26,-2.09) rotate(2.37) scale(1.000)">
        <g transform="translate(-4.99,-0.99) rotate(2.90) scale(0.980)">
        <g transform="translate(-4.50,0.20) rotate(1.40) scale(0.960)">
        <g transform="translate(-2.91,1.37) rotate(-2.12) scale(0.940)" clip-path="url(#clipDynamic)">
        <g transform="translate(-0.60,2.42) rotate(-7.54) scale(0.920)">
        <g transform="translate(1.85,3.26) rotate(-14.55) scale(0.900)">
        <g transform="translate(3.85,3.80) rotate(-22.72) scale(0.880)">
        <path d="M0.0,-75.0 L22.0,-30.3 L71.3,-23.2 L35.7,11.6 L44.1,60.7 L0.0,37.5 L-44.1,60.7 L-35.7,11.6 L-71.3,-23.2 L-22.0,-30.3Z" fill="url(#lgrad4)" filter="url(#blur4)" opacity="0.34"/>
      </g>
      </g>
      </g>
      </g>
      </g>
      </g>
      </g>
  </g>
  <g transform="translate(216.5, 344.1)" mask="url(#maskGradient)">
    <ellipse cx="0" cy="0" rx="200" ry="150" fill="url(#rgrad0)" filter="url(#blur3)" opacity="0.3"/>
  </g>
  <g transform="translate(801.3, 376.7)" mask="url(#maskCircleFade)">
    <ellipse cx="0" cy="0" rx="200" ry="150" fill="url(#rgrad1)" filter="url(#blur3)" opacity="0.3"/>
  </g>
  <g transform="translate(1384.8, 373.3)" mask="url(#maskStripes)">
    <ellipse cx="0" cy="0" rx="200" ry="150" fill="url(#rgrad2)" filter="url(#blur3)" opacity="0.3"/>
  </g>
</svg>