<?xml version="1.0" encoding="UTF-8"?>
<svg xmlns="http://www.w3.org/2000/svg" viewBox="0 0 1920 1080" width="1920" height="1080">
  <defs>
    <filter id="blur0" x="-50%" y="-50%" width="200%" height="200%">
      <feGaussianBlur in="SourceGraphic" stdDeviation="1"/>
    </filter>
    <filter id="blur1" x="-50%" y="-50%" width="200%" height="200%">
      <feGaussianBlur in="SourceGraphic" stdDeviation="3"/>
    </filter>
    <filter id="blur2" x="-50%" y="-50%" width="200%" height="200%">
      <feGaussianBlur in="SourceGraphic" stdDeviation="5"/>
    </filter>
    <filter id="blur3" x="-50%" y="-50%" width="200%" height="200%">
      <feGaussianBlur in="SourceGraphic" stdDeviation="7"/>
    </filter>
    <filter id="blur4" x="-50%" y="-50%" width="200%" height="200%">
      <feGaussianBlur in="SourceGraphic" stdDeviation="9"/>
    </filter>
    <filter id="shadow" x="-50%" y="-50%" width="200%" height="200%">
      <feGaussianBlur in="SourceAlpha" stdDeviation="3" result="blur"/>
      <feOffset in="blur" dx="4" dy="4" result="offsetBlur"/>
      <feMerge>
        <feMergeNode in="offsetBlur"/>
        <feMergeNode in="SourceGraphic"/>
      </feMerge>
    </filter>
    <linearGradient id="lgrad0" x1="0%" y1="0%" x2="0.9%" y2="59.5%">
      <stop offset="0%" stop-color="#FF6B6B"/>
      <stop offset="33%" stop-color="#4ECDC4"/>
      <stop offset="66%" stop-color="#45B7D1"/>
      <stop offset="100%" stop-color="#96E6A1"/>
    </linearGradient>
    <linearGradient id="lgrad1" x1="0%" y1="0%" x2="2.7%" y2="33.7%">
      <stop offset="0%" stop-color="#FFE66D"/>
      <stop offset="33%" stop-color="#FF6B6B"/>
      <stop offset="66%" stop-color="#C44D58"/>
      <stop offset="100%" stop-color="#8B0000"/>
    </linearGradient>
    <linearGradient id="lgrad2" x1="0%" y1="0%" x2="17.2%" y2="12.3%">
      <stop offset="0%" stop-color="#4169E1"/>
      <stop offset="33%" stop-color="#7B68EE"/>
      <stop offset="66%" stop-color="#9370DB"/>
      <stop offset="100%" stop-color="#FFD700"/>
    </linearGradient>
    <linearGradient id="lgrad3" x1="0%" y1="0%" x2="40.5%" y2="0.9%">
      <stop offset="0%" stop-color="#32CD32"/>
      <stop offset="33%" stop-color="#228B22"/>
      <stop offset="66%" stop-color="#006400"/>
      <stop offset="100%" stop-color="#ADFF2F"/>
    </linearGradient>
    <linearGradient id="lgrad4" x1="0%" y1="0%" x2="66.3%" y2="2.7%">
      <stop offset="0%" stop-color="#FF1493"/>
      <stop offset="33%" stop-color="#FF69B4"/>
      <stop offset="66%" stop-color="#FFB6C1"/>
      <stop offset="100%" stop-color="#FFC0CB"/>
    </linearGradient>
    <radialGradient id="rgrad0" cx="40.4%" cy="63.6%" r="60%">
      <stop offset="0%" stop-color="#FF6B6B" stop-opacity="1"/>
      <stop offset="50%" stop-color="#4ECDC4" stop-opacity="0.8"/>
      <stop offset="100%" stop-color="#45B7D1" stop-opacity="0.6"/>
    </radialGradient>
    <radialGradient id="rgrad1" cx="50.4%" cy="31.6%" r="60%">
      <stop offset="0%" stop-color="#FFE66D" stop-opacity="1"/>
      <stop offset="50%" stop-color="#FF6B6B" stop-opacity="0.8"/>
      <stop offset="100%" stop-color="#C44D58" stop-opacity="0.6"/>
    </radialGradient>
    <radialGradient id="rgrad2" cx="60.4%" cy="39.6%" r="60%">
      <stop offset="0%" stop-color="#4169E1" stop-opacity="1"/>
      <stop offset="50%" stop-color="#7B68EE" stop-opacity="0.8"/>
      <stop offset="100%" stop-color="#9370DB" stop-opacity="0.6"/>
    </radialGradient>
    <radialGradient id="rgrad3" cx="30.4%" cy="47.6%" r="60%">
      <stop offset="0%" stop-color="#32CD32" stop-opacity="1"/>
      <stop offset="50%" stop-color="#228B22" stop-opacity="0.8"/>
      <stop offset="100%" stop-color="#006400" stop-opacity="0.6"/>
    </radialGradient>
    <radialGradient id="rgrad4" cx="40.4%" cy="55.6%" r="60%">
      <stop offset="0%" stop-color="#FF1493" stop-opacity="1"/>
      <stop offset="50%" stop-color="#FF69B4" stop-opacity="0.8"/>
      <stop offset="100%" stop-color="#FFB6C1" stop-opacity="0.6"/>
    </radialGradient>
    <clipPath id="clipCircle">
      <circle cx="0" cy="0" r="50"/>
    </clipPath>
    <clipPath id="clipStar">
      <path d="M0.0,-50.0 L14.7,-20.2 L47.6,-15.5 L23.8,7.7 L29.4,40.5 L0.0,25.0 L-29.4,40.5 L-23.8,7.7 L-47.6,-15.5 L-14.7,-20.2Z"/>
    </clipPath>
    <clipPath id="clipHex">
      <path d="M39.0,22.5 L0.0,45.0 L-39.0,22.5 L-39.0,-22.5 L-0.0,-45.0 L39.0,-22.5Z"/>
    </clipPath>
    <clipPath id="clipRect">
      <rect x="-40" y="-30" width="80" height="60" rx="10"/>
    </clipPath>
    <clipPath id="clipDynamic">
      <circle cx="0" cy="0" r="32.0"/>
    </clipPath>
    <mask id="maskGradient" maskContentUnits="objectBoundingBox">
      <rect x="0" y="0" width="1" height="1" fill="url(#maskGrad)"/>
    </mask>
    <linearGradient id="maskGrad" x1="0%" y1="0%" x2="100%" y2="100%">
      <stop offset="0%" stop-color="white"/>
      <stop offset="100%" stop-color="black"/>
    </linearGradient>
    <mask id="maskCircleFade">
      <circle cx="0" cy="0" r="60" fill="white"/>
      <circle cx="0" cy="0" r="30" fill="black"/>
    </mask>
    <mask id="maskStripes">
      <rect x="-50" y="-50" width="100" height="100" fill="white"/>
      <rect x="-50" y="-40" width="100" height="10" fill="black"/>
      <rect x="-50" y="-20" width="100" height="10" fill="black"/>
      <rect x="-50" y="0" width="100" height="10" fill="black"/>
      <rect x="-50" y="20" width="100" height="10" fill="black"/>
      <rect x="-50" y="40" width="100" height="10" fill="black"/>
    </mask>
    <mask id="maskDynamic">
      <rect x="-60" y="-60" width="120" height="120" fill="white" fill-opacity="0.37"/>
      <circle cx="0" cy="0" r="25" fill="white"/>
    </mask>
  </defs>
  <rect width="1920" height="1080" fill="url(#lgrad0)"/>
  <g transform="translate(94.0, 124.5)">
      <g transform="translate(-1.00,3.92) rotate(0.50) scale(1.000)">
        <g transform="translate(1.47,3.98) rotate(-0.99) scale(0.980)">
        <g transform="translate(3.58,3.69) rotate(-4.42) scale(0.960)">
        <g transform="translate(4.82,3.06) rotate(-9.58) scale(0.940)" clip-path="url(#clipCircle)">
        <g transform="translate(4.87,2.17) rotate(-16.09) scale(0.920)">
        <g transform="translate(3.73,1.07) rotate(-23.49) scale(0.900)">
        <g transform="translate(1.68,-0.11) rotate(-31.18) scale(0.880)">
        <path d="M0.0,-61.5 L18.1,-24.9 L58.5,-19.0 L29.2,9.5 L36.2,49.8 L0.0,30.8 L-36.2,49.8 L-29.2,9.5 L-58.5,-19.0 L-18.1,-24.9Z" fill="url(#lgrad0)" filter="url(#blur0)" opacity="0.54"/>
      </g>
      </g>
      </g>
      </g>
      </g>
      </g>
      </g>
  </g>
  <g transform="translate(328.8, 122.0)">
      <g transform="translate(3.58,2.79) rotate(0.50) scale(1.000)">
        <g transform="translate(4.82,1.82) rotate(-0.99) scale(0.980)">
        <g transform="translate(4.87,0.68) rotate(-4.42) scale(0.960)">
        <g transform="translate(3.73,-0.51) rotate(-9.58) scale(0.940)">
        <g transform="translate(1.68,-1.66) rotate(-16.09) scale(0.920)">
        <g transform="translate(-0.78,-2.66) rotate(-23.49) scale(0.900)" mask="url(#maskCircleFade)">
        <g transform="translate(-3.05,-3.42) rotate(-31.18) scale(0.880)">
        <rect x="-24.1" y="-24.1" width="48.3" height="48.3" rx="12.1" fill="url(#rgrad1)" filter="url(#shadow)" opacity="0.42"/>
        <circle cx="0" cy="0" r="16.1" fill="url(#rgrad2)" opacity="0.29"/>
      </g>
      </g>
      </g>
      </g>
      </g>
      </g>
      </g>
  </g>
  <g transform="translate(561.5, 109.1)">
      <g transform="translate(4.87,-0.90) rotate(0.50) scale(1.000)">
        <g transform="translate(3.73,-2.02) rotate(-0.99) scale(0.980)">
        <g transform="translate(1.68,-2.95) rotate(-4.42) scale(0.960)">
        <g transform="translate(-0.78,-3.61) rotate(-9.58) scale(0.940)">
        <g transform="translate(-3.05,-3.96) rotate(-16.09) scale(0.920)">
        <g transform="translate(-4.58,-3.95) rotate(-23.49) scale(0.900)">
        <g transform="translate(-4.98,-3.59) rotate(-31.18) scale(0.880)">
        <path d="M23.8,13.7 L0.0,27.5 L-23.8,13.7 L-23.8,-13.7 L-0.0,-27.5 L23.8,-13.7Z" fill="url(#rgrad2)" filter="url(#blur2)" opacity="0.31"/>
        <ellipse cx="0" cy="0" rx="11.5" ry="7.6" fill="#FFFFFF" opacity="0.15"/>
      </g>
      </g>
      </g>
      </g>
      </g>
      </g>
      </g>
  </g>
  <g transform="translate(788.9, 91.9)">
      <g transform="translate(1.68,-3.77) rotate(0.50) scale(1.000)">
        <g transform="translate(-0.78,-4.00) rotate(-0.99) scale(0.980)">
        <g transform="translate(-3.05,-3.87) rotate(-4.42) scale(0.960)">
        <g transform="translate(-4.58,-3.40) rotate(-9.58) scale(0.940)" clip-path="url(#clipRect)">
        <g transform="translate(-4.98,-2.62) rotate(-16.09) scale(0.920)">
        <g transform="translate(-4.16,-1.61) rotate(-23.49) scale(0.900)">
        <g transform="translate(-2.33,-0.45) rotate(-31.18) scale(0.880)">
        <circle cx="0" cy="0" r="28.2" fill="url(#lgrad3)" filter="url(#shadow)" opacity="0.21"/>
        <text x="0" y="5" text-anchor="middle" font-family="Arial, sans-serif" font-size="14" fill="#FFFFFF" opacity="0.21">968</text>
      </g>
      </g>
      </g>
      </g>
      </g>
      </g>
      </g>
  </g>
  <g transform="translate(1009.2, 78.6)">
      <g transform="translate(-3.05,-3.17) rotate(0.50) scale(1.000)">
        <g transform="translate(-4.58,-2.30) rotate(-0.99) scale(0.980)">
        <g transform="translate(-4.98,-1.23) rotate(-4.42) scale(0.960)">
        <g transform="translate(-4.16,-0.05) rotate(-9.58) scale(0.940)">
        <g transform="translate(-2.33,1.13) rotate(-16.09) scale(0.920)">
        <g transform="translate(0.08,2.21) rotate(-23.49) scale(0.900)" mask="url(#maskGradient)">
        <g transform="translate(2.47,3.10) rotate(-31.18) scale(0.880)">
        <path d="M0.0,-70.3 L20.7,-28.4 L66.9,-21.7 L33.4,10.9 L41.3,56.9 L0.0,35.2 L-41.3,56.9 L-33.4,10.9 L-66.9,-21.7 L-20.7,-28.4Z" fill="url(#rgrad4)" filter="url(#blur4)" opacity="0.14"/>
      </g>
      </g>
      </g>
      </g>
      </g>
      </g>
      </g>
  </g>
  <g transform="translate(1222.4, 75.3)">
      <g transform="translate(-4.98,0.34) rotate(0.50) scale(1.000)">
        <g transform="translate(-4.16,1.51) rotate(-0.99) scale(0.980)">
        <g transform="translate(-2.33,2.53) rotate(-4.42) scale(0.960)">
        <g transform="translate(0.08,3.34) rotate(-9.58) scale(0.940)">
        <g transform="translate(2.47,3.84) rotate(-16.09) scale(0.920)">
        <g transform="translate(4.25,4.00) rotate(-23.49) scale(0.900)">
        <g transform="translate(4.99,3.80) rotate(-31.18) scale(0.880)">
        <rect x="-37.4" y="-37.4" width="74.7" height="74.7" rx="18.7" fill="url(#rgrad0)" filter="url(#shadow)" opacity="0.11"/>
        <circle cx="0" cy="0" r="24.9" fill="url(#rgrad1)" opacity="0.07"/>
      </g>
      </g>
      </g>
      </g>
      </g>
      </g>
      </g>
  </g>
  <g transform="translate(1430.1, 83.6)">
      <g transform="translate(-2.33,3.54) rotate(0.50) scale(1.000)">
        <g transform="translate(0.08,3.93) rotate(-0.99) scale(0.980)">
        <g transform="translate(2.47,3.97) rotate(-4.42) scale(0.960)">
        <g transform="translate(4.25,3.66) rotate(-9.58) scale(0.940)" clip-path="url(#clipStar)">
        <g transform="translate(4.99,3.02) rotate(-16.09) scale(0.920)">
        <g transform="translate(4.51,2.11) rotate(-23.49) scale(0.900)">
        <g transform="translate(2.93,1.01) rotate(-31.18) scale(0.880)">
        <path d="M34.1,19.7 L0.0,39.4 L-34.1,19.7 L-34.1,-19.7 L-0.0,-39.4 L34.1,-19.7Z" fill="url(#lgrad1)" filter="url(#blur1)" opacity="0.10"/>
        <ellipse cx="0" cy="0" rx="16.4" ry="10.9" fill="#FFFFFF" opacity="0.05"/>
      </g>
      </g>
      </g>
      </g>
      </g>
      </g>
      </g>
  </g>
  <g transform="translate(1635.3, 99.7)">
      <g transform="translate(2.47,3.48) rotate(0.50) scale(1.000)">
        <g transform="translate(4.25,2.74) rotate(-0.99) scale(0.980)">
        <g transform="translate(4.99,1.76) rotate(-4.42) scale(0.960)">
        <g transform="translate(4.51,0.62) rotate(-9.58) scale(0.940)">
        <g transform="translate(2.93,-0.58) rotate(-16.09) scale(0.920)">
        <g transform="translate(0.63,-1.72) rotate(-23.49) scale(0.900)" mask="url(#maskDynamic)">
        <g transform="translate(-1.83,-2.71) rotate(-31.18) scale(0.880)">
        <circle cx="0" cy="0" r="25.7" fill="url(#rgrad2)" filter="url(#shadow)" opacity="0.14"/>
        <text x="0" y="5" text-anchor="middle" font-family="Arial, sans-serif" font-size="14" fill="#FFFFFF" opacity="0.14">968</text>
      </g>
      </g>
      </g>
      </g>
      </g>
      </g>
      </g>
  </g>
  <g transform="translate(81.7, 395.8)">
      <g transform="translate(4.99,0.22) rotate(0.50) scale(1.000)">
        <g transform="translate(4.51,-0.97) rotate(-0.99) scale(0.980)">
        <g transform="translate(2.93,-2.07) rotate(-4.42) scale(0.960)">
        <g transform="translate(0.63,-2.99) rotate(-9.58) scale(0.940)">
        <g transform="translate(-1.83,-3.64) rotate(-16.09) scale(0.920)">
        <g transform="translate(-3.83,-3.97) rotate(-23.49) scale(0.900)">
        <g transform="translate(-4.90,-3.94) rotate(-31.18) scale(0.880)">
        <path d="M0.0,-45.0 L13.2,-18.2 L42.8,-13.9 L21.4,7.0 L26.5,36.4 L0.0,22.5 L-26.5,36.4 L-21.4,7.0 L-42.8,-13.9 L-13.2,-18.2Z" fill="url(#rgrad3)" filter="url(#blur3)" opacity="0.20"/>
      </g>
      </g>
      </g>
      </g>
      </g>
      </g>
      </g>
  </g>
  <g transform="translate(292.5, 404.6)">
      <g transform="translate(2.93,-3.24) rotate(0.50) scale(1.000)">
        <g transform="translate(0.63,-3.79) rotate(-0.99) scale(0.980)">
        <g transform="translate(-1.83,-4.00) rotate(-4.42) scale(0.960)">
        <g transform="translate(-3.83,-3.85) rotate(-9.58) scale(0.940)" clip-path="url(#clipDynamic)">
        <g transform="translate(-4.90,-3.36) rotate(-16.09) scale(0.920)">
        <g transform="translate(-4.77,-2.57) rotate(-23.49) scale(0.900)">
        <g transform="translate(-3.47,-1.55) rotate(-31.18) scale(0.880)">
        <rect x="-26.2" y="-26.2" width="52.5" height="52.5" rx="13.1" fill="url(#lgrad4)" filter="url(#shadow)" opacity="0.29"/>
        <circle cx="0" cy="0" r="17.5" fill="url(#rgrad0)" opacity="0.21"/>
      </g>
      </g>
      </g>
      </g>
      </g>
      </g>
      </g>
  </g>
  <g transform="translate(510.1, 401.8)">
      <g transform="translate(-1.83,-3.72) rotate(0.50) scale(1.000)">
        <g transform="translate(-3.83,-3.13) rotate(-0.99) scale(0.980)">
        <g transform="translate(-4.90,-2.25) rotate(-4.42) scale(0.960)">
        <g transform="translate(-4.77,-1.17) rotate(-9.58) scale(0.940)">
        <g transform="translate(-3.47,0.01) rotate(-16.09) scale(0.920)">
        <g transform="translate(-1.32,1.19) rotate(-23.49) scale(0.900)" mask="url(#maskStripes)">
        <g transform="translate(1.15,2.27) rotate(-31.18) scale(0.880)">
        <path d="M34.7,20.1 L0.0,40.1 L-34.7,20.1 L-34.7,-20.1 L-0.0,-40.1 L34.7,-20.1Z" fill="url(#rgrad0)" filter="url(#blur0)" opacity="0.40"/>
        <ellipse cx="0" cy="0" rx="16.7" ry="11.1" fill="#FFFFFF" opacity="0.20"/>
      </g>
      </g>
      </g>
      </g>
      </g>
      </g>
      </g>
  </g>
  <g transform="translate(735.0, 388.7)">
      <g transform="translate(-4.90,-0.78) rotate(0.50) scale(1.000)">
        <g transform="translate(-4.77,0.41) rotate(-0.99) scale(0.980)">
        <g transform="translate(-3.47,1.57) rotate(-4.42) scale(0.960)">
        <g transform="translate(-1.32,2.59) rotate(-9.58) scale(0.940)">
        <g transform="translate(1.15,3.37) rotate(-16.09) scale(0.920)">
        <g transform="translate(3.34,3.86) rotate(-23.49) scale(0.900)">
        <g transform="translate(4.72,4.00) rotate(-31.18) scale(0.880)">
        <circle cx="0" cy="0" r="37.5" fill="url(#rgrad1)" filter="url(#shadow)" opacity="0.52"/>
        <text x="0" y="5" text-anchor="middle" font-family="Arial, sans-serif" font-size="14" fill="#FFFFFF" opacity="0.52">968</text>
      </g>
      </g>
      </g>
      </g>
      </g>
      </g>
      </g>
  </g>
  <g transform="translate(966.0, 371.6)">
      <g transform="translate(-3.47,2.88) rotate(0.50) scale(1.000)">
        <g transform="translate(-1.32,3.57) rotate(-0.99) scale(0.980)">
        <g transform="translate(1.15,3.94) rotate(-4.42) scale(0.960)">
        <g transform="translate(3.34,3.97) rotate(-9.58) scale(0.940)" clip-path="url(#clipHex)">
        <g transform="translate(4.72,3.63) rotate(-16.09) scale(0.920)">
        <g transform="translate(4.93,2.97) rotate(-23.49) scale(0.900)">
        <g transform="translate(3.95,2.05) rotate(-31.18) scale(0.880)">
        <path d="M0.0,-69.3 L20.4,-28.0 L65.9,-21.4 L32.9,10.7 L40.7,56.0 L0.0,34.6 L-40.7,56.0 L-32.9,10.7 L-65.9,-21.4 L-20.4,-28.0Z" fill="url(#lgrad2)" filter="url(#blur2)" opacity="0.64"/>
      </g>
      </g>
      </g>
      </g>
      </g>
      </g>
      </g>
  </g>
  <g transform="translate(1200.5, 358.4)">
      <g transform="translate(1.15,3.89) rotate(0.50) scale(1.000)">
        <g transform="translate(3.34,3.45) rotate(-0.99) scale(0.980)">
        <g transform="translate(4.72,2.69) rotate(-4.42) scale(0.960)">
        <g transform="translate(4.93,1.70) rotate(-9.58) scale(0.940)">
        <g transform="translate(3.95,0.55) rotate(-16.09) scale(0.920)">
        <g transform="translate(1.99,-0.64) rotate(-23.49) scale(0.900)" mask="url(#maskCircleFade)">
        <g transform="translate(-0.45,-1.78) rotate(-31.18) scale(0.880)">
        <rect x="-27.5" y="-27.5" width="55.1" height="55.1" rx="13.8" fill="url(#rgrad3)" filter="url(#shadow)" opacity="0.74"/>
        <circle cx="0" cy="0" r="18.4" fill="url(#rgrad4)" opacity="0.52"/>
      </g>
      </g>
      </g>
      </g>
      </g>
      </g>
      </g>
  </g>
  <g transform="translate(1434.8, 355.4)">
      <g transform="translate(4.72,1.33) rotate(0.50) scale(1.000)">
        <g transform="translate(4.93,0.15) rotate(-0.99) scale(0.980)">
        <g transform="translate(3.95,-1.03) rotate(-4.42) scale(0.960)">
        <g transform="translate(1.99,-2.13) rotate(-9.58) scale(0.940)">
        <g transform="translate(-0.45,-3.04) rotate(-16.09) scale(0.920)">
        <g transform="translate(-2.79,-3.67) rotate(-23.49) scale(0.900)">
        <g transform="translate(-4.43,-3.98) rotate(-31.18) scale(0.880)">
        <path d="M23.6,13.6 L0.0,27.3 L-23.6,13.6 L-23.6,-13.6 L-0.0,-27.3 L23.6,-13.6Z" fill="url(#rgrad4)" filter="url(#blur4)" opacity="0.83"/>
        <ellipse cx="0" cy="0" rx="11.4" ry="7.6" fill="#FFFFFF" opacity="0.41"/>
      </g>
      </g>
      </g>
      </g>
      </g>
      </g>
      </g>
  </g>
  <g transform="translate(1665.5, 364.0)">
      <g transform="translate(3.95,-2.46) rotate(0.50) scale(1.000)">
        <g transform="translate(1.99,-3.28) rotate(-0.99) scale(0.980)">
        <g transform="translate(-0.45,-3.81) rotate(-4.42) scale(0.960)">
        <g transform="translate(-2.79,-4.00) rotate(-9.58) scale(0.940)" clip-path="url(#clipCircle)">
        <g transform="translate(-4.43,-3.83) rotate(-16.09) scale(0.920)">
        <g transform="translate(-5.00,-3.32) rotate(-23.49) scale(0.900)">
        <g transform="translate(-4.34,-2.52) rotate(-31.18) scale(0.880)">
        <circle cx="0" cy="0" r="24.6" fill="url(#lgrad0)" filter="url(#shadow)" opacity="0.88"/>
        <text x="0" y="5" text-anchor="middle" font-family="Arial, sans-serif" font-size="14" fill="#FFFFFF" opacity="0.88">968</text>
      </g>
      </g>
      </g>
      </g>
      </g>
      </g>
      </g>
  </g>
  <g transform="translate(130.0, 660.1)">
      <g transform="translate(-0.45,-3.98) rotate(0.50) scale(1.000)">
        <g transform="translate(-2.79,-3.70) rotate(-0.99) scale(0.980)">
        <g transform="translate(-4.43,-3.08) rotate(-4.42) scale(0.960)">
        <g transform="translate(-5.00,-2.19) rotate(-9.58) scale(0.940)">
        <g transform="translate(-4.34,-1.11) rotate(-16.09) scale(0.920)">
        <g transform="translate(-2.62,0.08) rotate(-23.49) scale(0.900)" mask="url(#maskGradient)">
        <g transform="translate(-0.25,1.26) rotate(-31.18) scale(0.880)">
        <path d="M0.0,-62.9 L18.5,-25.4 L59.8,-19.4 L29.9,9.7 L36.9,50.8 L0.0,31.4 L-36.9,50.8 L-29.9,9.7 L-59.8,-19.4 L-18.5,-25.4Z" fill="url(#rgrad1)" filter="url(#blur1)" opacity="0.90"/>
      </g>
      </g>
      </g>
      </g>
      </g>
      </g>
      </g>
  </g>
  <g transform="translate(347.1, 676.2)">
      <g transform="translate(-4.43,-1.85) rotate(0.50) scale(1.000)">
        <g transform="translate(-5.00,-0.72) rotate(-0.99) scale(0.980)">
        <g transform="translate(-4.34,0.48) rotate(-4.42) scale(0.960)">
        <g transform="translate(-2.62,1.63) rotate(-9.58) scale(0.940)">
        <g transform="translate(-0.25,2.64) rotate(-16.09) scale(0.920)">
        <g transform="translate(2.17,3.41) rotate(-23.49) scale(0.900)">
        <g transform="translate(4.06,3.87) rotate(-31.18) scale(0.880)">
        <rect x="-37.0" y="-37.0" width="73.9" height="73.9" rx="18.5" fill="url(#rgrad2)" filter="url(#shadow)" opacity="0.88"/>
        <circle cx="0" cy="0" r="24.6" fill="url(#rgrad3)" opacity="0.62"/>
      </g>
      </g>
      </g>
      </g>
      </g>
      </g>
      </g>
  </g>
  <g transform="translate(557.6, 684.6)">
      <g transform="translate(-4.34,1.99) rotate(0.50) scale(1.000)">
        <g transform="translate(-2.62,2.92) rotate(-0.99) scale(0.980)">
        <g transform="translate(-0.25,3.60) rotate(-4.42) scale(0.960)">
        <g transform="translate(2.17,3.95) rotate(-9.58) scale(0.940)" clip-path="url(#clipRect)">
        <g transform="translate(4.06,3.96) rotate(-16.09) scale(0.920)">
        <g transform="translate(4.96,3.60) rotate(-23.49) scale(0.900)">
        <g transform="translate(4.65,2.93) rotate(-31.18) scale(0.880)">
        <path d="M37.5,21.7 L0.0,43.3 L-37.5,21.7 L-37.5,-21.7 L-0.0,-43.3 L37.5,-21.7Z" fill="url(#lgrad3)" filter="url(#blur3)" opacity="0.83"/>
        <ellipse cx="0" cy="0" rx="18.1" ry="12.0" fill="#FFFFFF" opacity="0.42"/>
      </g>
      </g>
      </g>
      </g>
      </g>
      </g>
      </g>
  </g>
  <g transform="translate(763.8, 681.5)">
      <g transform="translate(-0.25,3.99) rotate(0.50) scale(1.000)">
        <g transform="translate(2.17,3.88) rotate(-0.99) scale(0.980)">
        <g transform="translate(4.06,3.41) rotate(-4.42) scale(0.960)">
        <g transform="translate(4.96,2.64) rotate(-9.58) scale(0.940)">
        <g transform="translate(4.65,1.64) rotate(-16.09) scale(0.920)">
        <g transform="translate(3.19,0.49) rotate(-23.49) scale(0.900)" mask="url(#maskDynamic)">
        <g transform="translate(0.96,-0.71) rotate(-31.18) scale(0.880)">
        <circle cx="0" cy="0" r="29.6" fill="url(#rgrad4)" filter="url(#shadow)" opacity="0.75"/>
        <text x="0" y="5" text-anchor="middle" font-family="Arial, sans-serif" font-size="14" fill="#FFFFFF" opacity="0.75">968</text>
      </g>
      </g>
      </g>
      </g>
      </g>
      </g>
      </g>
  </g>
  <g transform="translate(969.0, 668.3)">
      <g transform="translate(4.06,2.33) rotate(0.50) scale(1.000)">
        <g transform="translate(4.96,1.26) rotate(-0.99) scale(0.980)">
        <g transform="translate(4.65,0.09) rotate(-4.42) scale(0.960)">
        <g transform="translate(3.19,-1.10) rotate(-9.58) scale(0.940)">
        <g transform="translate(0.96,-2.19) rotate(-16.09) scale(0.920)">
        <g transform="translate(-1.51,-3.08) rotate(-23.49) scale(0.900)">
        <g transform="translate(-3.61,-3.70) rotate(-31.18) scale(0.880)">
        <path d="M0.0,-47.0 L13.8,-19.0 L44.7,-14.5 L22.3,7.3 L27.6,38.0 L0.0,23.5 L-27.6,38.0 L-22.3,7.3 L-44.7,-14.5 L-13.8,-19.0Z" fill="url(#rgrad0)" filter="url(#blur0)" opacity="0.65"/>
      </g>
      </g>
      </g>
      </g>
      </g>
      </g>
      </g>
  </g>
  <g transform="translate(1177.0, 651.2)">
      <g transform="translate(4.65,-1.48) rotate(0.50) scale(1.000)">
        <g transform="translate(3.19,-2.51) rotate(-0.99) scale(0.980)">
        <g transform="translate(0.96,-3.32) rotate(-4.42) scale(0.960)">
        <g transform="translate(-1.51,-3.83) rotate(-9.58) scale(0.940)" clip-path="url(#clipStar)">
        <g transform="translate(-3.61,-4.00) rotate(-16.09) scale(0.920)">
        <g transform="translate(-4.83,-3.81) rotate(-23.49) scale(0.900)">
        <g transform="translate(-4.86,-3.28) rotate(-31.18) scale(0.880)">
        <rect x="-23.3" y="-23.3" width="46.7" height="46.7" rx="11.7" fill="url(#lgrad1)" filter="url(#shadow)" opacity="0.53"/>
        <circle cx="0" cy="0" r="15.6" fill="url(#rgrad2)" opacity="0.37"/>
      </g>
      </g>
      </g>
      </g>
      </g>
      </g>
      </g>
  </g>
  <g transform="translate(1390.6, 638.2)">
      <g transform="translate(0.96,-3.93) rotate(0.50) scale(1.000)">
        <g transform="translate(-1.51,-3.98) rotate(-0.99) scale(0.980)">
        <g transform="translate(-3.61,-3.67) rotate(-4.42) scale(0.960)">
        <g transform="translate(-4.83,-3.04) rotate(-9.58) scale(0.940)">
        <g transform="translate(-4.86,-2.14) rotate(-16.09) scale(0.920)">
        <g transform="translate(-3.70,-1.04) rotate(-23.49) scale(0.900)" mask="url(#maskStripes)">
        <g transform="translate(-1.64,0.15) rotate(-31.18) scale(0.880)">
        <path d="M30.5,17.6 L0.0,35.2 L-30.5,17.6 L-30.5,-17.6 L-0.0,-35.2 L30.5,-17.6Z" fill="url(#rgrad2)" filter="url(#blur2)" opacity="0.41"/>
        <ellipse cx="0" cy="0" rx="14.7" ry="9.8" fill="#FFFFFF" opacity="0.21"/>
      </g>
      </g>
      </g>
      </g>
      </g>
      </g>
      </g>
  </g>
  <g transform="translate(1611.4, 635.5)">
      <g transform="translate(-3.61,-2.76) rotate(0.50) scale(1.000)">
        <g transform="translate(-4.83,-1.79) rotate(-0.99) scale(0.980)">
        <g transform="translate(-4.86,-0.65) rotate(-4.42) scale(0.960)">
        <g transform="translate(-3.70,0.55) rotate(-9.58) scale(0.940)">
        <g transform="translate(-1.64,1.69) rotate(-16.09) scale(0.920)">
        <g transform="translate(0.83,2.69) rotate(-23.49) scale(0.900)">
        <g transform="translate(3.09,3.44) rotate(-31.18) scale(0.880)">
        <circle cx="0" cy="0" r="35.9" fill="url(#rgrad3)" filter="url(#shadow)" opacity="0.30"/>
        <text x="0" y="5" text-anchor="middle" font-family="Arial, sans-serif" font-size="14" fill="#FFFFFF" opacity="0.30">968</text>
      </g>
      </g>
      </g>
      </g>
      </g>
      </g>
      </g>
  </g>
  <g transform="translate(79.2, 924.3)">
      <g transform="translate(-4.86,0.94) rotate(0.50) scale(1.000)">
        <g transform="translate(-3.70,2.05) rotate(-0.99) scale(0.980)">
        <g transform="translate(-1.64,2.97) rotate(-4.42) scale(0.960)">
        <g transform="translate(0.83,3.63) rotate(-9.58) scale(0.940)" clip-path="url(#clipDynamic)">
        <g transform="translate(3.09,3.96) rotate(-16.09) scale(0.920)">
        <g transform="translate(4.60,3.95) rotate(-23.49) scale(0.900)">
        <g transform="translate(4.98,3.57) rotate(-31.18) scale(0.880)">
        <path d="M0.0,-74.2 L21.8,-30.0 L70.5,-22.9 L35.3,11.5 L43.6,60.0 L0.0,37.1 L-43.6,60.0 L-35.3,11.5 L-70.5,-22.9 L-21.8,-30.0Z" fill="url(#lgrad4)" filter="url(#blur4)" opacity="0.21"/>
      </g>
      </g>
      </g>
      </g>
      </g>
      </g>
      </g>
  </g>
  <g transform="translate(280.0, 378.4)" mask="url(#maskGradient)">
    <ellipse cx="0" cy="0" rx="200" ry="150" fill="url(#rgrad0)" filter="url(#blur3)" opacity="0.3"/>
  </g>
  <g transform="translate(871.6, 370.3)" mask="url(#maskCircleFade)">
    <ellipse cx="0" cy="0" rx="200" ry="150" fill="url(#rgrad1)" filter="url(#blur3)" opacity="0.3"/>
  </g>
  <g transform="translate(1397.4, 329.1)" mask="url(#maskStripes)">
    <ellipse cx="0" cy="0" rx="200" ry="150" fill="url(#rgrad2)" filter="url(#blur3)" opacity="0.3"/>
  </g>
</svg>