<?xml version="1.0" encoding="UTF-8"?>
<svg xmlns="http://www.w3.org/2000/svg" viewBox="0 0 1920 1080" width="1920" height="1080">
  <defs>
    <filter id="blur0" x="-50%" y="-50%" width="200%" height="200%">
      <feGaussianBlur in="SourceGraphic" stdDeviation="1"/>
    </filter>
    <filter id="blur1" x="-50%" y="-50%" width="200%" height="200%">
      <feGaussianBlur in="SourceGraphic" stdDeviation="3"/>
    </filter>
    <filter id="blur2" x="-50%" y="-50%" width="200%" height="200%">
      <feGaussianBlur in="SourceGraphic" stdDeviation="5"/>
    </filter>
    <filter id="blur3" x="-50%" y="-50%" width="200%" height="200%">
      <feGaussianBlur in="SourceGraphic" stdDeviation="7"/>
    </filter>
    <filter id="blur4" x="-50%" y="-50%" width="200%" height="200%">
      <feGaussianBlur in="SourceGraphic" stdDeviation="9"/>
    </filter>
    <filter id="shadow" x="-50%" y="-50%" width="200%" height="200%">
      <feGaussianBlur in="SourceAlpha" stdDeviation="3" result="blur"/>
      <feOffset in="blur" dx="4" dy="4" result="offsetBlur"/>
      <feMerge>
        <feMergeNode in="offsetBlur"/>
        <feMergeNode in="SourceGraphic"/>
      </feMerge>
    </filter>
    <linearGradient id="lgrad0" x1="0%" y1="0%" x2="0.4%" y2="56.5%">
      <stop offset="0%" stop-color="#FF6B6B"/>
      <stop offset="33%" stop-color="#4ECDC4"/>
      <stop offset="66%" stop-color="#45B7D1"/>
      <stop offset="100%" stop-color="#96E6A1"/>
    </linearGradient>
    <linearGradient id="lgrad1" x1="0%" y1="0%" x2="3.8%" y2="30.9%">
      <stop offset="0%" stop-color="#FFE66D"/>
      <stop offset="33%" stop-color="#FF6B6B"/>
      <stop offset="66%" stop-color="#C44D58"/>
      <stop offset="100%" stop-color="#8B0000"/>
    </linearGradient>
    <linearGradient id="lgrad2" x1="0%" y1="0%" x2="19.6%" y2="10.3%">
      <stop offset="0%" stop-color="#4169E1"/>
      <stop offset="33%" stop-color="#7B68EE"/>
      <stop offset="66%" stop-color="#9370DB"/>
      <stop offset="100%" stop-color="#FFD700"/>
    </linearGradient>
    <linearGradient id="lgrad3" x1="0%" y1="0%" x2="43.5%" y2="0.4%">
      <stop offset="0%" stop-color="#32CD32"/>
      <stop offset="33%" stop-color="#228B22"/>
      <stop offset="66%" stop-color="#006400"/>
      <stop offset="100%" stop-color="#ADFF2F"/>
    </linearGradient>
    <linearGradient id="lgrad4" x1="0%" y1="0%" x2="69.1%" y2="3.8%">
      <stop offset="0%" stop-color="#FF1493"/>
      <stop offset="33%" stop-color="#FF69B4"/>
      <stop offset="66%" stop-color="#FFB6C1"/>
      <stop offset="100%" stop-color="#FFC0CB"/>
    </linearGradient>
    <radialGradient id="rgrad0" cx="66.5%" cy="41.0%" r="60%">
      <stop offset="0%" stop-color="#FF6B6B" stop-opacity="1"/>
      <stop offset="50%" stop-color="#4ECDC4" stop-opacity="0.8"/>
      <stop offset="100%" stop-color="#45B7D1" stop-opacity="0.6"/>
    </radialGradient>
    <radialGradient id="rgrad1" cx="36.5%" cy="49.0%" r="60%">
      <stop offset="0%" stop-color="#FFE66D" stop-opacity="1"/>
      <stop offset="50%" stop-color="#FF6B6B" stop-opacity="0.8"/>
      <stop offset="100%" stop-color="#C44D58" stop-opacity="0.6"/>
    </radialGradient>
    <radialGradient id="rgrad2" cx="46.5%" cy="57.0%" r="60%">
      <stop offset="0%" stop-color="#4169E1" stop-opacity="1"/>
      <stop offset="50%" stop-color="#7B68EE" stop-opacity="0.8"/>
      <stop offset="100%" stop-color="#9370DB" stop-opacity="0.6"/>
    </radialGradient>
    <radialGradient id="rgrad3" cx="56.5%" cy="65.0%" r="60%">
      <stop offset="0%" stop-color="#32CD32" stop-opacity="1"/>
      <stop offset="50%" stop-color="#228B22" stop-opacity="0.8"/>
      <stop offset="100%" stop-color="#006400" stop-opacity="0.6"/>
    </radialGradient>
    <radialGradient id="rgrad4" cx="66.5%" cy="33.0%" r="60%">
      <stop offset="0%" stop-color="#FF1493" stop-opacity="1"/>
      <stop offset="50%" stop-color="#FF69B4" stop-opacity="0.8"/>
      <stop offset="100%" stop-color="#FFB6C1" stop-opacity="0.6"/>
    </radialGradient>
    <clipPath id="clipCircle">
      <circle cx="0" cy="0" r="50"/>
    </clipPath>
    <clipPath id="clipStar">
      <path d="M0.0,-50.0 L14.7,-20.2 L47.6,-15.5 L23.8,7.7 L29.4,40.5 L0.0,25.0 L-29.4,40.5 L-23.8,7.7 L-47.6,-15.5 L-14.7,-20.2Z"/>
    </clipPath>
    <clipPath id="clipHex">
      <path d="M39.0,22.5 L0.0,45.0 L-39.0,22.5 L-39.0,-22.5 L-0.0,-45.0 L39.0,-22.5Z"/>
    </clipPath>
    <clipPath id="clipRect">
      <rect x="-40" y="-30" width="80" height="60" rx="10"/>
    </clipPath>
    <clipPath id="clipDynamic">
      <circle cx="0" cy="0" r="50.0"/>
    </clipPath>
    <mask id="maskGradient" maskContentUnits="objectBoundingBox">
      <rect x="0" y="0" width="1" height="1" fill="url(#maskGrad)"/>
    </mask>
    <linearGradient id="maskGrad" x1="0%" y1="0%" x2="100%" y2="100%">
      <stop offset="0%" stop-color="white"/>
      <stop offset="100%" stop-color="black"/>
    </linearGradient>
    <mask id="maskCircleFade">
      <circle cx="0" cy="0" r="60" fill="white"/>
      <circle cx="0" cy="0" r="30" fill="black"/>
    </mask>
    <mask id="maskStripes">
      <rect x="-50" y="-50" width="100" height="100" fill="white"/>
      <rect x="-50" y="-40" width="100" height="10" fill="black"/>
      <rect x="-50" y="-20" width="100" height="10" fill="black"/>
      <rect x="-50" y="0" width="100" height="10" fill="black"/>
      <rect x="-50" y="20" width="100" height="10" fill="black"/>
      <rect x="-50" y="40" width="100" height="10" fill="black"/>
    </mask>
    <mask id="maskDynamic">
      <rect x="-60" y="-60" width="120" height="120" fill="white" fill-opacity="0.80"/>
      <circle cx="0" cy="0" r="25" fill="white"/>
    </mask>
  </defs>
  <rect width="1920" height="1080" fill="url(#lgrad0)"/>
  <g transform="translate(130.0, 99.3)">
      <g transform="translate(5.00,-0.11) rotate(3.58) scale(1.000)">
        <g transform="translate(4.32,-1.28) rotate(8.41) scale(0.980)">
        <g transform="translate(2.59,-2.35) rotate(13.97) scale(0.960)">
        <g transform="translate(0.22,-3.20) rotate(19.70) scale(0.940)" clip-path="url(#clipCircle)">
        <g transform="translate(-2.20,-3.77) rotate(24.99) scale(0.920)">
        <g transform="translate(-4.08,-4.00) rotate(29.22) scale(0.900)">
        <g transform="translate(-4.97,-3.87) rotate(31.84) scale(0.880)">
        <path d="M0.0,-70.7 L20.8,-28.6 L67.3,-21.9 L33.6,10.9 L41.6,57.2 L0.0,35.4 L-41.6,57.2 L-33.6,10.9 L-67.3,-21.9 L-20.8,-28.6Z" fill="url(#lgrad0)" filter="url(#blur0)" opacity="0.79"/>
      </g>
      </g>
      </g>
      </g>
      </g>
      </g>
      </g>
  </g>
  <g transform="translate(345.9, 83.4)">
      <g transform="translate(2.59,-3.42) rotate(3.58) scale(1.000)">
        <g transform="translate(0.22,-3.88) rotate(8.41) scale(0.980)">
        <g transform="translate(-2.20,-3.99) rotate(13.97) scale(0.960)">
        <g transform="translate(-4.08,-3.75) rotate(19.70) scale(0.940)">
        <g transform="translate(-4.97,-3.17) rotate(24.99) scale(0.920)">
        <g transform="translate(-4.63,-2.31) rotate(29.22) scale(0.900)" mask="url(#maskCircleFade)">
        <g transform="translate(-3.17,-1.24) rotate(31.84) scale(0.880)">
        <rect x="-37.3" y="-37.3" width="74.6" height="74.6" rx="18.7" fill="url(#rgrad1)" filter="url(#shadow)" opacity="0.86"/>
        <circle cx="0" cy="0" r="24.9" fill="url(#rgrad2)" opacity="0.60"/>
      </g>
      </g>
      </g>
      </g>
      </g>
      </g>
      </g>
  </g>
  <g transform="translate(555.5, 75.3)">
      <g transform="translate(-2.20,-3.59) rotate(3.58) scale(1.000)">
        <g transform="translate(-4.08,-2.91) rotate(8.41) scale(0.980)">
        <g transform="translate(-4.97,-1.97) rotate(13.97) scale(0.960)">
        <g transform="translate(-4.63,-0.85) rotate(19.70) scale(0.940)">
        <g transform="translate(-3.17,0.34) rotate(24.99) scale(0.920)">
        <g transform="translate(-0.92,1.50) rotate(29.22) scale(0.900)">
        <g transform="translate(1.55,2.53) rotate(31.84) scale(0.880)">
        <path d="M33.8,19.5 L0.0,39.0 L-33.8,19.5 L-33.8,-19.5 L-0.0,-39.0 L33.8,-19.5Z" fill="url(#rgrad2)" filter="url(#blur2)" opacity="0.89"/>
        <ellipse cx="0" cy="0" rx="16.3" ry="10.8" fill="#FFFFFF" opacity="0.45"/>
      </g>
      </g>
      </g>
      </g>
      </g>
      </g>
      </g>
  </g>
  <g transform="translate(761.3, 78.8)">
      <g transform="translate(-4.97,-0.46) rotate(3.58) scale(1.000)">
        <g transform="translate(-4.63,0.74) rotate(8.41) scale(0.980)">
        <g transform="translate(-3.17,1.87) rotate(13.97) scale(0.960)">
        <g transform="translate(-0.92,2.83) rotate(19.70) scale(0.940)" clip-path="url(#clipRect)">
        <g transform="translate(1.55,3.54) rotate(24.99) scale(0.920)">
        <g transform="translate(3.64,3.93) rotate(29.22) scale(0.900)">
        <g transform="translate(4.84,3.97) rotate(31.84) scale(0.880)">
        <circle cx="0" cy="0" r="25.4" fill="url(#lgrad3)" filter="url(#shadow)" opacity="0.90"/>
        <text x="0" y="5" text-anchor="middle" font-family="Arial, sans-serif" font-size="14" fill="#FFFFFF" opacity="0.90">255</text>
      </g>
      </g>
      </g>
      </g>
      </g>
      </g>
      </g>
  </g>
  <g transform="translate(966.8, 92.3)">
      <g transform="translate(-3.17,3.10) rotate(3.58) scale(1.000)">
        <g transform="translate(-0.92,3.71) rotate(8.41) scale(0.980)">
        <g transform="translate(1.55,3.99) rotate(13.97) scale(0.960)">
        <g transform="translate(3.64,3.91) rotate(19.70) scale(0.940)">
        <g transform="translate(4.84,3.48) rotate(24.99) scale(0.920)">
        <g transform="translate(4.85,2.75) rotate(29.22) scale(0.900)" mask="url(#maskGradient)">
        <g transform="translate(3.68,1.76) rotate(31.84) scale(0.880)">
        <path d="M0.0,-45.1 L13.2,-18.2 L42.9,-13.9 L21.4,7.0 L26.5,36.5 L0.0,22.5 L-26.5,36.5 L-21.4,7.0 L-42.9,-13.9 L-13.2,-18.2Z" fill="url(#rgrad4)" filter="url(#blur4)" opacity="0.86"/>
      </g>
      </g>
      </g>
      </g>
      </g>
      </g>
      </g>
  </g>
  <g transform="translate(1175.5, 109.4)">
      <g transform="translate(1.55,3.80) rotate(3.58) scale(1.000)">
        <g transform="translate(3.64,3.27) rotate(8.41) scale(0.980)">
        <g transform="translate(4.84,2.44) rotate(13.97) scale(0.960)">
        <g transform="translate(4.85,1.40) rotate(19.70) scale(0.940)">
        <g transform="translate(3.68,0.23) rotate(24.99) scale(0.920)">
        <g transform="translate(1.61,-0.96) rotate(29.22) scale(0.900)">
        <g transform="translate(-0.86,-2.07) rotate(31.84) scale(0.880)">
        <rect x="-26.5" y="-26.5" width="53.0" height="53.0" rx="13.3" fill="url(#rgrad0)" filter="url(#shadow)" opacity="0.80"/>
        <circle cx="0" cy="0" r="17.7" fill="url(#rgrad1)" opacity="0.56"/>
      </g>
      </g>
      </g>
      </g>
      </g>
      </g>
      </g>
  </g>
  <g transform="translate(1390.2, 122.1)">
      <g transform="translate(4.84,1.01) rotate(3.58) scale(1.000)">
        <g transform="translate(4.85,-0.17) rotate(8.41) scale(0.980)">
        <g transform="translate(3.68,-1.35) rotate(13.97) scale(0.960)">
        <g transform="translate(1.61,-2.40) rotate(19.70) scale(0.940)" clip-path="url(#clipStar)">
        <g transform="translate(-0.86,-3.24) rotate(24.99) scale(0.920)">
        <g transform="translate(-3.12,-3.79) rotate(29.22) scale(0.900)">
        <g transform="translate(-4.61,-4.00) rotate(31.84) scale(0.880)">
        <path d="M35.0,20.2 L0.0,40.4 L-35.0,20.2 L-35.0,-20.2 L-0.0,-40.4 L35.0,-20.2Z" fill="url(#lgrad1)" filter="url(#blur1)" opacity="0.71"/>
        <ellipse cx="0" cy="0" rx="16.8" ry="11.2" fill="#FFFFFF" opacity="0.35"/>
      </g>
      </g>
      </g>
      </g>
      </g>
      </g>
      </g>
  </g>
  <g transform="translate(1612.2, 124.4)">
      <g transform="translate(3.68,-2.71) rotate(3.58) scale(1.000)">
        <g transform="translate(1.61,-3.46) rotate(8.41) scale(0.980)">
        <g transform="translate(-0.86,-3.90) rotate(13.97) scale(0.960)">
        <g transform="translate(-3.12,-3.99) rotate(19.70) scale(0.940)">
        <g transform="translate(-4.61,-3.73) rotate(24.99) scale(0.920)">
        <g transform="translate(-4.97,-3.13) rotate(29.22) scale(0.900)" mask="url(#maskDynamic)">
        <g transform="translate(-4.12,-2.25) rotate(31.84) scale(0.880)">
        <circle cx="0" cy="0" r="37.5" fill="url(#rgrad2)" filter="url(#shadow)" opacity="0.60"/>
        <text x="0" y="5" text-anchor="middle" font-family="Arial, sans-serif" font-size="14" fill="#FFFFFF" opacity="0.60">255</text>
      </g>
      </g>
      </g>
      </g>
      </g>
      </g>
      </g>
  </g>
  <g transform="translate(81.0, 395.3)">
      <g transform="translate(-0.86,-3.94) rotate(3.58) scale(1.000)">
        <g transform="translate(-3.12,-3.56) rotate(8.41) scale(0.980)">
        <g transform="translate(-4.61,-2.86) rotate(13.97) scale(0.960)">
        <g transform="translate(-4.97,-1.91) rotate(19.70) scale(0.940)">
        <g transform="translate(-4.12,-0.79) rotate(24.99) scale(0.920)">
        <g transform="translate(-2.26,0.41) rotate(29.22) scale(0.900)">
        <g transform="translate(0.16,1.56) rotate(31.84) scale(0.880)">
        <path d="M0.0,-68.8 L20.2,-27.8 L65.4,-21.3 L32.7,10.6 L40.4,55.7 L0.0,34.4 L-40.4,55.7 L-32.7,10.6 L-65.4,-21.3 L-20.2,-27.8Z" fill="url(#rgrad3)" filter="url(#blur3)" opacity="0.48"/>
      </g>
      </g>
      </g>
      </g>
      </g>
      </g>
      </g>
  </g>
  <g transform="translate(314.5, 378.9)">
      <g transform="translate(-4.61,-1.55) rotate(3.58) scale(1.000)">
        <g transform="translate(-4.97,-0.39) rotate(8.41) scale(0.980)">
        <g transform="translate(-4.12,0.80) rotate(13.97) scale(0.960)">
        <g transform="translate(-2.26,1.92) rotate(19.70) scale(0.940)" clip-path="url(#clipDynamic)">
        <g transform="translate(0.16,2.87) rotate(24.99) scale(0.920)">
        <g transform="translate(2.53,3.57) rotate(29.22) scale(0.900)">
        <g transform="translate(4.29,3.94) rotate(31.84) scale(0.880)">
        <rect x="-27.3" y="-27.3" width="54.5" height="54.5" rx="13.6" fill="url(#lgrad4)" filter="url(#shadow)" opacity="0.36"/>
        <circle cx="0" cy="0" r="18.2" fill="url(#rgrad0)" opacity="0.25"/>
      </g>
      </g>
      </g>
      </g>
      </g>
      </g>
      </g>
  </g>
  <g transform="translate(549.3, 363.1)">
      <g transform="translate(-4.12,2.27) rotate(3.58) scale(1.000)">
        <g transform="translate(-2.26,3.14) rotate(8.41) scale(0.980)">
        <g transform="translate(0.16,3.73) rotate(13.97) scale(0.960)">
        <g transform="translate(2.53,3.99) rotate(19.70) scale(0.940)">
        <g transform="translate(4.29,3.89) rotate(24.99) scale(0.920)">
        <g transform="translate(5.00,3.45) rotate(29.22) scale(0.900)" mask="url(#maskStripes)">
        <g transform="translate(4.48,2.70) rotate(31.84) scale(0.880)">
        <path d="M23.5,13.6 L0.0,27.2 L-23.5,13.6 L-23.5,-13.6 L-0.0,-27.2 L23.5,-13.6Z" fill="url(#rgrad0)" filter="url(#blur0)" opacity="0.26"/>
        <ellipse cx="0" cy="0" rx="11.3" ry="7.5" fill="#FFFFFF" opacity="0.13"/>
      </g>
      </g>
      </g>
      </g>
      </g>
      </g>
      </g>
  </g>
  <g transform="translate(781.8, 355.2)">
      <g transform="translate(0.16,4.00) rotate(3.58) scale(1.000)">
        <g transform="translate(2.53,3.78) rotate(8.41) scale(0.980)">
        <g transform="translate(4.29,3.23) rotate(13.97) scale(0.960)">
        <g transform="translate(5.00,2.39) rotate(19.70) scale(0.940)">
        <g transform="translate(4.48,1.33) rotate(24.99) scale(0.920)">
        <g transform="translate(2.87,0.16) rotate(29.22) scale(0.900)">
        <g transform="translate(0.55,-1.03) rotate(31.84) scale(0.880)">
        <circle cx="0" cy="0" r="24.8" fill="url(#rgrad1)" filter="url(#shadow)" opacity="0.17"/>
        <text x="0" y="5" text-anchor="middle" font-family="Arial, sans-serif" font-size="14" fill="#FFFFFF" opacity="0.17">255</text>
      </g>
      </g>
      </g>
      </g>
      </g>
      </g>
      </g>
  </g>
  <g transform="translate(1009.0, 359.0)">
      <g transform="translate(4.29,2.06) rotate(3.58) scale(1.000)">
        <g transform="translate(5.00,0.95) rotate(8.41) scale(0.980)">
        <g transform="translate(4.48,-0.24) rotate(13.97) scale(0.960)">
        <g transform="translate(2.87,-1.41) rotate(19.70) scale(0.940)" clip-path="url(#clipHex)">
        <g transform="translate(0.55,-2.45) rotate(24.99) scale(0.920)">
        <g transform="translate(-1.90,-3.28) rotate(29.22) scale(0.900)">
        <g transform="translate(-3.88,-3.81) rotate(31.84) scale(0.880)">
        <path d="M0.0,-63.5 L18.6,-25.7 L60.3,-19.6 L30.2,9.8 L37.3,51.3 L0.0,31.7 L-37.3,51.3 L-30.2,9.8 L-60.3,-19.6 L-18.6,-25.7Z" fill="url(#lgrad2)" filter="url(#blur2)" opacity="0.12"/>
      </g>
      </g>
      </g>
      </g>
      </g>
      </g>
      </g>
  </g>
  <g transform="translate(1229.1, 372.7)">
      <g transform="translate(4.48,-1.78) rotate(3.58) scale(1.000)">
        <g transform="translate(2.87,-2.76) rotate(8.41) scale(0.980)">
        <g transform="translate(0.55,-3.49) rotate(13.97) scale(0.960)">
        <g transform="translate(-1.90,-3.91) rotate(19.70) scale(0.940)">
        <g transform="translate(-3.88,-3.98) rotate(24.99) scale(0.920)">
        <g transform="translate(-4.92,-3.70) rotate(29.22) scale(0.900)" mask="url(#maskCircleFade)">
        <g transform="translate(-4.75,-3.09) rotate(31.84) scale(0.880)">
        <rect x="-37.1" y="-37.1" width="74.1" height="74.1" rx="18.5" fill="url(#rgrad3)" filter="url(#shadow)" opacity="0.10"/>
        <circle cx="0" cy="0" r="24.7" fill="url(#rgrad4)" opacity="0.07"/>
      </g>
      </g>
      </g>
      </g>
      </g>
      </g>
      </g>
  </g>
  <g transform="translate(1442.1, 389.8)">
      <g transform="translate(0.55,-3.98) rotate(3.58) scale(1.000)">
        <g transform="translate(-1.90,-3.93) rotate(8.41) scale(0.980)">
        <g transform="translate(-3.88,-3.53) rotate(13.97) scale(0.960)">
        <g transform="translate(-4.92,-2.82) rotate(19.70) scale(0.940)">
        <g transform="translate(-4.75,-1.85) rotate(24.99) scale(0.920)">
        <g transform="translate(-3.42,-0.72) rotate(29.22) scale(0.900)">
        <g transform="translate(-1.25,0.47) rotate(31.84) scale(0.880)">
        <path d="M37.3,21.6 L0.0,43.1 L-37.3,21.6 L-37.3,-21.6 L-0.0,-43.1 L37.3,-21.6Z" fill="url(#rgrad4)" filter="url(#blur4)" opacity="0.12"/>
        <ellipse cx="0" cy="0" rx="18.0" ry="12.0" fill="#FFFFFF" opacity="0.06"/>
      </g>
      </g>
      </g>
      </g>
      </g>
      </g>
      </g>
  </g>
  <g transform="translate(1649.6, 402.3)">
      <g transform="translate(-3.88,-2.52) rotate(3.58) scale(1.000)">
        <g transform="translate(-4.92,-1.49) rotate(8.41) scale(0.980)">
        <g transform="translate(-4.75,-0.32) rotate(13.97) scale(0.960)">
        <g transform="translate(-3.42,0.87) rotate(19.70) scale(0.940)" clip-path="url(#clipCircle)">
        <g transform="translate(-1.25,1.98) rotate(24.99) scale(0.920)">
        <g transform="translate(1.23,2.92) rotate(29.22) scale(0.900)">
        <g transform="translate(3.40,3.60) rotate(31.84) scale(0.880)">
        <circle cx="0" cy="0" r="29.3" fill="url(#lgrad0)" filter="url(#shadow)" opacity="0.17"/>
        <text x="0" y="5" text-anchor="middle" font-family="Arial, sans-serif" font-size="14" fill="#FFFFFF" opacity="0.17">255</text>
      </g>
      </g>
      </g>
      </g>
      </g>
      </g>
      </g>
  </g>
  <g transform="translate(94.8, 684.3)">
      <g transform="translate(-4.75,1.25) rotate(3.58) scale(1.000)">
        <g transform="translate(-3.42,2.32) rotate(8.41) scale(0.980)">
        <g transform="translate(-1.25,3.18) rotate(13.97) scale(0.960)">
        <g transform="translate(1.23,3.75) rotate(19.70) scale(0.940)">
        <g transform="translate(3.40,3.99) rotate(24.99) scale(0.920)">
        <g transform="translate(4.74,3.88) rotate(29.22) scale(0.900)" mask="url(#maskGradient)">
        <g transform="translate(4.92,3.41) rotate(31.84) scale(0.880)">
        <path d="M0.0,-46.7 L13.7,-18.9 L44.4,-14.4 L22.2,7.2 L27.4,37.8 L0.0,23.3 L-27.4,37.8 L-22.2,7.2 L-44.4,-14.4 L-13.7,-18.9Z" fill="url(#rgrad1)" filter="url(#blur1)" opacity="0.25"/>
      </g>
      </g>
      </g>
      </g>
      </g>
      </g>
      </g>
  </g>
  <g transform="translate(301.3, 674.9)">
      <g transform="translate(-1.25,3.87) rotate(3.58) scale(1.000)">
        <g transform="translate(1.23,4.00) rotate(8.41) scale(0.980)">
        <g transform="translate(3.40,3.76) rotate(13.97) scale(0.960)">
        <g transform="translate(4.74,3.19) rotate(19.70) scale(0.940)">
        <g transform="translate(4.92,2.33) rotate(24.99) scale(0.920)">
        <g transform="translate(3.90,1.27) rotate(29.22) scale(0.900)">
        <g transform="translate(1.92,0.09) rotate(31.84) scale(0.880)">
        <rect x="-23.5" y="-23.5" width="47.0" height="47.0" rx="11.7" fill="url(#rgrad2)" filter="url(#shadow)" opacity="0.35"/>
        <circle cx="0" cy="0" r="15.7" fill="url(#rgrad3)" opacity="0.24"/>
      </g>
      </g>
      </g>
      </g>
      </g>
      </g>
      </g>
  </g>
  <g transform="translate(512.3, 658.5)">
      <g transform="translate(3.40,2.93) rotate(3.58) scale(1.000)">
        <g transform="translate(4.74,2.00) rotate(8.41) scale(0.980)">
        <g transform="translate(4.92,0.88) rotate(13.97) scale(0.960)">
        <g transform="translate(3.90,-0.31) rotate(19.70) scale(0.940)" clip-path="url(#clipRect)">
        <g transform="translate(1.92,-1.47) rotate(24.99) scale(0.920)">
        <g transform="translate(-0.53,-2.51) rotate(29.22) scale(0.900)">
        <g transform="translate(-2.85,-3.32) rotate(31.84) scale(0.880)">
        <path d="M30.8,17.8 L0.0,35.5 L-30.8,17.8 L-30.8,-17.8 L-0.0,-35.5 L30.8,-17.8Z" fill="url(#lgrad3)" filter="url(#blur3)" opacity="0.47"/>
        <ellipse cx="0" cy="0" rx="14.8" ry="9.9" fill="#FFFFFF" opacity="0.23"/>
      </g>
      </g>
      </g>
      </g>
      </g>
      </g>
      </g>
  </g>
  <g transform="translate(730.2, 642.8)">
      <g transform="translate(4.92,-0.70) rotate(3.58) scale(1.000)">
        <g transform="translate(3.90,-1.84) rotate(8.41) scale(0.980)">
        <g transform="translate(1.92,-2.81) rotate(13.97) scale(0.960)">
        <g transform="translate(-0.53,-3.52) rotate(19.70) scale(0.940)">
        <g transform="translate(-2.85,-3.93) rotate(24.99) scale(0.920)">
        <g transform="translate(-4.47,-3.98) rotate(29.22) scale(0.900)" mask="url(#maskDynamic)">
        <g transform="translate(-5.00,-3.67) rotate(31.84) scale(0.880)">
        <circle cx="0" cy="0" r="36.1" fill="url(#rgrad4)" filter="url(#shadow)" opacity="0.59"/>
        <text x="0" y="5" text-anchor="middle" font-family="Arial, sans-serif" font-size="14" fill="#FFFFFF" opacity="0.59">255</text>
      </g>
      </g>
      </g>
      </g>
      </g>
      </g>
      </g>
  </g>
  <g transform="translate(955.3, 635.2)">
      <g transform="translate(1.92,-3.69) rotate(3.58) scale(1.000)">
        <g transform="translate(-0.53,-3.98) rotate(8.41) scale(0.980)">
        <g transform="translate(-2.85,-3.92) rotate(13.97) scale(0.960)">
        <g transform="translate(-4.47,-3.50) rotate(19.70) scale(0.940)">
        <g transform="translate(-5.00,-2.77) rotate(24.99) scale(0.920)">
        <g transform="translate(-4.30,-1.79) rotate(29.22) scale(0.900)">
        <g transform="translate(-2.55,-0.65) rotate(31.84) scale(0.880)">
        <path d="M0.0,-73.9 L21.7,-29.9 L70.3,-22.8 L35.2,11.4 L43.5,59.8 L0.0,37.0 L-43.5,59.8 L-35.2,11.4 L-70.3,-22.8 L-21.7,-29.9Z" fill="url(#rgrad0)" filter="url(#blur0)" opacity="0.70"/>
      </g>
      </g>
      </g>
      </g>
      </g>
      </g>
      </g>
  </g>
  <g transform="translate(1186.4, 639.2)">
      <g transform="translate(-2.85,-3.29) rotate(3.58) scale(1.000)">
        <g transform="translate(-4.47,-2.47) rotate(8.41) scale(0.980)">
        <g transform="translate(-5.00,-1.43) rotate(13.97) scale(0.960)">
        <g transform="translate(-4.30,-0.26) rotate(19.70) scale(0.940)" clip-path="url(#clipStar)">
        <g transform="translate(-2.55,0.93) rotate(24.99) scale(0.920)">
        <g transform="translate(-0.18,2.04) rotate(29.22) scale(0.900)">
        <g transform="translate(2.24,2.97) rotate(31.84) scale(0.880)">
        <rect x="-31.4" y="-31.4" width="62.9" height="62.9" rx="15.7" fill="url(#lgrad1)" filter="url(#shadow)" opacity="0.79"/>
        <circle cx="0" cy="0" r="21.0" fill="url(#rgrad2)" opacity="0.55"/>
      </g>
      </g>
      </g>
      </g>
      </g>
      </g>
      </g>
  </g>
  <g transform="translate(1420.9, 653.1)">
      <g transform="translate(-5.00,0.14) rotate(3.58) scale(1.000)">
        <g transform="translate(-4.30,1.32) rotate(8.41) scale(0.980)">
        <g transform="translate(-2.55,2.37) rotate(13.97) scale(0.960)">
        <g transform="translate(-0.18,3.22) rotate(19.70) scale(0.940)">
        <g transform="translate(2.24,3.78) rotate(24.99) scale(0.920)">
        <g transform="translate(4.11,4.00) rotate(29.22) scale(0.900)" mask="url(#maskStripes)">
        <g transform="translate(4.97,3.86) rotate(31.84) scale(0.880)">
        <path d="M25.5,14.7 L0.0,29.5 L-25.5,14.7 L-25.5,-14.7 L-0.0,-29.5 L25.5,-14.7Z" fill="url(#rgrad2)" filter="url(#blur2)" opacity="0.86"/>
        <ellipse cx="0" cy="0" rx="12.3" ry="8.2" fill="#FFFFFF" opacity="0.43"/>
      </g>
      </g>
      </g>
      </g>
      </g>
      </g>
      </g>
  </g>
  <g transform="translate(1655.2, 670.2)">
      <g transform="translate(-2.55,3.44) rotate(3.58) scale(1.000)">
        <g transform="translate(-0.18,3.89) rotate(8.41) scale(0.980)">
        <g transform="translate(2.24,3.99) rotate(13.97) scale(0.960)">
        <g transform="translate(4.11,3.74) rotate(19.70) scale(0.940)">
        <g transform="translate(4.97,3.15) rotate(24.99) scale(0.920)">
        <g transform="translate(4.62,2.28) rotate(29.22) scale(0.900)">
        <g transform="translate(3.13,1.21) rotate(31.84) scale(0.880)">
        <circle cx="0" cy="0" r="22.7" fill="url(#rgrad3)" filter="url(#shadow)" opacity="0.90"/>
        <text x="0" y="5" text-anchor="middle" font-family="Arial, sans-serif" font-size="14" fill="#FFFFFF" opacity="0.90">255</text>
      </g>
      </g>
      </g>
      </g>
      </g>
      </g>
      </g>
  </g>
  <g transform="translate(125.7, 962.5)">
      <g transform="translate(2.24,3.58) rotate(3.58) scale(1.000)">
        <g transform="translate(4.11,2.89) rotate(8.41) scale(0.980)">
        <g transform="translate(4.97,1.94) rotate(13.97) scale(0.960)">
        <g transform="translate(4.62,0.82) rotate(19.70) scale(0.940)" clip-path="url(#clipDynamic)">
        <g transform="translate(3.13,-0.38) rotate(24.99) scale(0.920)">
        <g transform="translate(0.88,-1.54) rotate(29.22) scale(0.900)">
        <g transform="translate(-1.59,-2.56) rotate(31.84) scale(0.880)">
        <path d="M0.0,-55.1 L16.2,-22.3 L52.4,-17.0 L26.2,8.5 L32.4,44.6 L0.0,27.5 L-32.4,44.6 L-26.2,8.5 L-52.4,-17.0 L-16.2,-22.3Z" fill="url(#lgrad4)" filter="url(#blur4)" opacity="0.90"/>
      </g>
      </g>
      </g>
      </g>
      </g>
      </g>
      </g>
  </g>
  <g transform="translate(400.0, 297.9)" mask="url(#maskGradient)">
    <ellipse cx="0" cy="0" rx="200" ry="150" fill="url(#rgrad0)" filter="url(#blur3)" opacity="0.3"/>
  </g>
  <g transform="translate(851.8, 246.8)" mask="url(#maskCircleFade)">
    <ellipse cx="0" cy="0" rx="200" ry="150" fill="url(#rgrad1)" filter="url(#blur3)" opacity="0.3"/>
  </g>
  <g transform="translate(1256.0, 220.8)" mask="url(#maskStripes)">
    <ellipse cx="0" cy="0" rx="200" ry="150" fill="url(#rgrad2)" filter="url(#blur3)" opacity="0.3"/>
  </g>
</svg>