<?xml version="1.0" encoding="UTF-8"?>
<svg xmlns="http://www.w3.org/2000/svg" viewBox="0 0 1920 1080" width="1920" height="1080">
  <defs>
    <filter id="blur0" x="-50%" y="-50%" width="200%" height="200%">
      <feGaussianBlur in="SourceGraphic" stdDeviation="1"/>
    </filter>
    <filter id="blur1" x="-50%" y="-50%" width="200%" height="200%">
      <feGaussianBlur in="SourceGraphic" stdDeviation="3"/>
    </filter>
    <filter id="blur2" x="-50%" y="-50%" width="200%" height="200%">
      <feGaussianBlur in="SourceGraphic" stdDeviation="5"/>
    </filter>
    <filter id="blur3" x="-50%" y="-50%" width="200%" height="200%">
      <feGaussianBlur in="SourceGraphic" stdDeviation="7"/>
    </filter>
    <filter id="blur4" x="-50%" y="-50%" width="200%" height="200%">
      <feGaussianBlur in="SourceGraphic" stdDeviation="9"/>
    </filter>
    <filter id="shadow" x="-50%" y="-50%" width="200%" height="200%">
      <feGaussianBlur in="SourceAlpha" stdDeviation="3" result="blur"/>
      <feOffset in="blur" dx="4" dy="4" result="offsetBlur"/>
      <feMerge>
        <feMergeNode in="offsetBlur"/>
        <feMergeNode in="SourceGraphic"/>
      </feMerge>
    </filter>
    <linearGradient id="lgrad0" x1="0%" y1="0%" x2="1.0%" y2="40.0%">
      <stop offset="0%" stop-color="#FF6B6B"/>
      <stop offset="33%" stop-color="#4ECDC4"/>
      <stop offset="66%" stop-color="#45B7D1"/>
      <stop offset="100%" stop-color="#96E6A1"/>
    </linearGradient>
    <linearGradient id="lgrad1" x1="0%" y1="0%" x2="12.6%" y2="16.9%">
      <stop offset="0%" stop-color="#FFE66D"/>
      <stop offset="33%" stop-color="#FF6B6B"/>
      <stop offset="66%" stop-color="#C44D58"/>
      <stop offset="100%" stop-color="#8B0000"/>
    </linearGradient>
    <linearGradient id="lgrad2" x1="0%" y1="0%" x2="34.1%" y2="2.6%">
      <stop offset="0%" stop-color="#4169E1"/>
      <stop offset="33%" stop-color="#7B68EE"/>
      <stop offset="66%" stop-color="#9370DB"/>
      <stop offset="100%" stop-color="#FFD700"/>
    </linearGradient>
    <linearGradient id="lgrad3" x1="0%" y1="0%" x2="60.0%" y2="1.0%">
      <stop offset="0%" stop-color="#32CD32"/>
      <stop offset="33%" stop-color="#228B22"/>
      <stop offset="66%" stop-color="#006400"/>
      <stop offset="100%" stop-color="#ADFF2F"/>
    </linearGradient>
    <linearGradient id="lgrad4" x1="0%" y1="0%" x2="83.1%" y2="12.6%">
      <stop offset="0%" stop-color="#FF1493"/>
      <stop offset="33%" stop-color="#FF69B4"/>
      <stop offset="66%" stop-color="#FFB6C1"/>
      <stop offset="100%" stop-color="#FFC0CB"/>
    </linearGradient>
    <radialGradient id="rgrad0" cx="37.9%" cy="48.6%" r="60%">
      <stop offset="0%" stop-color="#FF6B6B" stop-opacity="1"/>
      <stop offset="50%" stop-color="#4ECDC4" stop-opacity="0.8"/>
      <stop offset="100%" stop-color="#45B7D1" stop-opacity="0.6"/>
    </radialGradient>
    <radialGradient id="rgrad1" cx="47.9%" cy="56.6%" r="60%">
      <stop offset="0%" stop-color="#FFE66D" stop-opacity="1"/>
      <stop offset="50%" stop-color="#FF6B6B" stop-opacity="0.8"/>
      <stop offset="100%" stop-color="#C44D58" stop-opacity="0.6"/>
    </radialGradient>
    <radialGradient id="rgrad2" cx="57.9%" cy="64.6%" r="60%">
      <stop offset="0%" stop-color="#4169E1" stop-opacity="1"/>
      <stop offset="50%" stop-color="#7B68EE" stop-opacity="0.8"/>
      <stop offset="100%" stop-color="#9370DB" stop-opacity="0.6"/>
    </radialGradient>
    <radialGradient id="rgrad3" cx="67.9%" cy="32.6%" r="60%">
      <stop offset="0%" stop-color="#32CD32" stop-opacity="1"/>
      <stop offset="50%" stop-color="#228B22" stop-opacity="0.8"/>
      <stop offset="100%" stop-color="#006400" stop-opacity="0.6"/>
    </radialGradient>
    <radialGradient id="rgrad4" cx="37.9%" cy="40.6%" r="60%">
      <stop offset="0%" stop-color="#FF1493" stop-opacity="1"/>
      <stop offset="50%" stop-color="#FF69B4" stop-opacity="0.8"/>
      <stop offset="100%" stop-color="#FFB6C1" stop-opacity="0.6"/>
    </radialGradient>
    <clipPath id="clipCircle">
      <circle cx="0" cy="0" r="50"/>
    </clipPath>
    <clipPath id="clipStar">
      <path d="M0.0,-50.0 L14.7,-20.2 L47.6,-15.5 L23.8,7.7 L29.4,40.5 L0.0,25.0 L-29.4,40.5 L-23.8,7.7 L-47.6,-15.5 L-14.7,-20.2Z"/>
    </clipPath>
    <clipPath id="clipHex">
      <path d="M39.0,22.5 L0.0,45.0 L-39.0,22.5 L-39.0,-22.5 L-0.0,-45.0 L39.0,-22.5Z"/>
    </clipPath>
    <clipPath id="clipRect">
      <rect x="-40" y="-30" width="80" height="60" rx="10"/>
    </clipPath>
    <clipPath id="clipDynamic">
      <circle cx="0" cy="0" r="49.5"/>
    </clipPath>
    <mask id="maskGradient" maskContentUnits="objectBoundingBox">
      <rect x="0" y="0" width="1" height="1" fill="url(#maskGrad)"/>
    </mask>
    <linearGradient id="maskGrad" x1="0%" y1="0%" x2="100%" y2="100%">
      <stop offset="0%" stop-color="white"/>
      <stop offset="100%" stop-color="black"/>
    </linearGradient>
    <mask id="maskCircleFade">
      <circle cx="0" cy="0" r="60" fill="white"/>
      <circle cx="0" cy="0" r="30" fill="black"/>
    </mask>
    <mask id="maskStripes">
      <rect x="-50" y="-50" width="100" height="100" fill="white"/>
      <rect x="-50" y="-40" width="100" height="10" fill="black"/>
      <rect x="-50" y="-20" width="100" height="10" fill="black"/>
      <rect x="-50" y="0" width="100" height="10" fill="black"/>
      <rect x="-50" y="20" width="100" height="10" fill="black"/>
      <rect x="-50" y="40" width="100" height="10" fill="black"/>
    </mask>
    <mask id="maskDynamic">
      <rect x="-60" y="-60" width="120" height="120" fill="white" fill-opacity="0.86"/>
      <circle cx="0" cy="0" r="25" fill="white"/>
    </mask>
  </defs>
  <rect width="1920" height="1080" fill="url(#lgrad0)"/>
  <g transform="translate(128.9, 93.4)">
      <g transform="translate(4.82,-1.05) rotate(3.97) scale(1.000)">
        <g transform="translate(3.60,-2.14) rotate(8.99) scale(0.980)">
        <g transform="translate(1.50,-3.05) rotate(14.52) scale(0.960)">
        <g transform="translate(-0.97,-3.68) rotate(19.97) scale(0.940)" clip-path="url(#clipCircle)">
        <g transform="translate(-3.20,-3.98) rotate(24.73) scale(0.920)">
        <g transform="translate(-4.65,-3.92) rotate(28.21) scale(0.900)">
        <g transform="translate(-4.96,-3.52) rotate(29.88) scale(0.880)">
        <path d="M0.0,-71.9 L21.1,-29.1 L68.4,-22.2 L34.2,11.1 L42.3,58.2 L0.0,36.0 L-42.3,58.2 L-34.2,11.1 L-68.4,-22.2 L-21.1,-29.1Z" fill="url(#lgrad0)" filter="url(#blur0)" opacity="0.82"/>
      </g>
      </g>
      </g>
      </g>
      </g>
      </g>
      </g>
  </g>
  <g transform="translate(341.6, 79.4)">
      <g transform="translate(1.50,-3.82) rotate(3.97) scale(1.000)">
        <g transform="translate(-0.97,-4.00) rotate(8.99) scale(0.980)">
        <g transform="translate(-3.20,-3.83) rotate(14.52) scale(0.960)">
        <g transform="translate(-4.65,-3.31) rotate(19.97) scale(0.940)">
        <g transform="translate(-4.96,-2.50) rotate(24.73) scale(0.920)">
        <g transform="translate(-4.06,-1.47) rotate(28.21) scale(0.900)" mask="url(#maskCircleFade)">
        <g transform="translate(-2.16,-0.30) rotate(29.88) scale(0.880)">
        <rect x="-37.1" y="-37.1" width="74.1" height="74.1" rx="18.5" fill="url(#rgrad1)" filter="url(#shadow)" opacity="0.88"/>
        <circle cx="0" cy="0" r="24.7" fill="url(#rgrad2)" opacity="0.61"/>
      </g>
      </g>
      </g>
      </g>
      </g>
      </g>
      </g>
  </g>
  <g transform="translate(549.0, 75.1)">
      <g transform="translate(-3.20,-3.07) rotate(3.97) scale(1.000)">
        <g transform="translate(-4.65,-2.18) rotate(8.99) scale(0.980)">
        <g transform="translate(-4.96,-1.09) rotate(14.52) scale(0.960)">
        <g transform="translate(-4.06,0.10) rotate(19.97) scale(0.940)">
        <g transform="translate(-2.16,1.27) rotate(24.73) scale(0.920)">
        <g transform="translate(0.27,2.34) rotate(28.21) scale(0.900)">
        <g transform="translate(2.63,3.19) rotate(29.88) scale(0.880)">
        <path d="M32.9,19.0 L0.0,38.0 L-32.9,19.0 L-32.9,-19.0 L-0.0,-38.0 L32.9,-19.0Z" fill="url(#rgrad2)" filter="url(#blur2)" opacity="0.90"/>
        <ellipse cx="0" cy="0" rx="15.8" ry="10.6" fill="#FFFFFF" opacity="0.45"/>
      </g>
      </g>
      </g>
      </g>
      </g>
      </g>
      </g>
  </g>
  <g transform="translate(754.2, 82.5)">
      <g transform="translate(-4.96,0.50) rotate(3.97) scale(1.000)">
        <g transform="translate(-4.06,1.65) rotate(8.99) scale(0.980)">
        <g transform="translate(-2.16,2.65) rotate(14.52) scale(0.960)">
        <g transform="translate(0.27,3.42) rotate(19.97) scale(0.940)" clip-path="url(#clipRect)">
        <g transform="translate(2.63,3.88) rotate(24.73) scale(0.920)">
        <g transform="translate(4.35,3.99) rotate(28.21) scale(0.900)">
        <g transform="translate(5.00,3.75) rotate(29.88) scale(0.880)">
        <circle cx="0" cy="0" r="24.7" fill="url(#lgrad3)" filter="url(#shadow)" opacity="0.89"/>
        <text x="0" y="5" text-anchor="middle" font-family="Arial, sans-serif" font-size="14" fill="#FFFFFF" opacity="0.89">293</text>
      </g>
      </g>
      </g>
      </g>
      </g>
      </g>
      </g>
  </g>
  <g transform="translate(960.8, 98.1)">
      <g transform="translate(-2.16,3.61) rotate(3.97) scale(1.000)">
        <g transform="translate(0.27,3.96) rotate(8.99) scale(0.980)">
        <g transform="translate(2.63,3.95) rotate(14.52) scale(0.960)">
        <g transform="translate(4.35,3.60) rotate(19.97) scale(0.940)">
        <g transform="translate(5.00,2.92) rotate(24.73) scale(0.920)">
        <g transform="translate(4.43,1.98) rotate(28.21) scale(0.900)" mask="url(#maskGradient)">
        <g transform="translate(2.77,0.86) rotate(29.88) scale(0.880)">
        <path d="M0.0,-45.3 L13.3,-18.3 L43.1,-14.0 L21.5,7.0 L26.6,36.7 L0.0,22.7 L-26.6,36.7 L-21.5,7.0 L-43.1,-14.0 L-13.3,-18.3Z" fill="url(#rgrad4)" filter="url(#blur4)" opacity="0.84"/>
      </g>
      </g>
      </g>
      </g>
      </g>
      </g>
      </g>
  </g>
  <g transform="translate(1172.1, 114.6)">
      <g transform="translate(2.63,3.40) rotate(3.97) scale(1.000)">
        <g transform="translate(4.35,2.63) rotate(8.99) scale(0.980)">
        <g transform="translate(5.00,1.62) rotate(14.52) scale(0.960)">
        <g transform="translate(4.43,0.47) rotate(19.97) scale(0.940)">
        <g transform="translate(2.77,-0.73) rotate(24.73) scale(0.920)">
        <g transform="translate(0.44,-1.86) rotate(28.21) scale(0.900)">
        <g transform="translate(-2.00,-2.82) rotate(29.88) scale(0.880)">
        <rect x="-27.3" y="-27.3" width="54.6" height="54.6" rx="13.7" fill="url(#rgrad0)" filter="url(#shadow)" opacity="0.76"/>
        <circle cx="0" cy="0" r="18.2" fill="url(#rgrad1)" opacity="0.54"/>
      </g>
      </g>
      </g>
      </g>
      </g>
      </g>
      </g>
  </g>
  <g transform="translate(1390.2, 124.2)">
      <g transform="translate(5.00,0.07) rotate(3.97) scale(1.000)">
        <g transform="translate(4.43,-1.12) rotate(8.99) scale(0.980)">
        <g transform="translate(2.77,-2.20) rotate(14.52) scale(0.960)">
        <g transform="translate(0.44,-3.09) rotate(19.97) scale(0.940)" clip-path="url(#clipStar)">
        <g transform="translate(-2.00,-3.70) rotate(24.73) scale(0.920)">
        <g transform="translate(-3.95,-3.98) rotate(28.21) scale(0.900)">
        <g transform="translate(-4.94,-3.91) rotate(29.88) scale(0.880)">
        <path d="M35.8,20.7 L0.0,41.3 L-35.8,20.7 L-35.8,-20.7 L-0.0,-41.3 L35.8,-20.7Z" fill="url(#lgrad1)" filter="url(#blur1)" opacity="0.66"/>
        <ellipse cx="0" cy="0" rx="17.2" ry="11.5" fill="#FFFFFF" opacity="0.33"/>
      </g>
      </g>
      </g>
      </g>
      </g>
      </g>
      </g>
  </g>
  <g transform="translate(1615.7, 122.5)">
      <g transform="translate(2.77,-3.33) rotate(3.97) scale(1.000)">
        <g transform="translate(0.44,-3.83) rotate(8.99) scale(0.980)">
        <g transform="translate(-2.00,-4.00) rotate(14.52) scale(0.960)">
        <g transform="translate(-3.95,-3.81) rotate(19.97) scale(0.940)">
        <g transform="translate(-4.94,-3.27) rotate(24.73) scale(0.920)">
        <g transform="translate(-4.71,-2.45) rotate(28.21) scale(0.900)" mask="url(#maskDynamic)">
        <g transform="translate(-3.33,-1.41) rotate(29.88) scale(0.880)">
        <circle cx="0" cy="0" r="37.5" fill="url(#rgrad2)" filter="url(#shadow)" opacity="0.55"/>
        <text x="0" y="5" text-anchor="middle" font-family="Arial, sans-serif" font-size="14" fill="#FFFFFF" opacity="0.55">293</text>
      </g>
      </g>
      </g>
      </g>
      </g>
      </g>
      </g>
  </g>
  <g transform="translate(87.0, 390.1)">
      <g transform="translate(-2.00,-3.67) rotate(3.97) scale(1.000)">
        <g transform="translate(-3.95,-3.03) rotate(8.99) scale(0.980)">
        <g transform="translate(-4.94,-2.12) rotate(14.52) scale(0.960)">
        <g transform="translate(-4.71,-1.02) rotate(19.97) scale(0.940)">
        <g transform="translate(-3.33,0.16) rotate(24.73) scale(0.920)">
        <g transform="translate(-1.14,1.34) rotate(28.21) scale(0.900)">
        <g transform="translate(1.33,2.39) rotate(29.88) scale(0.880)">
        <path d="M0.0,-67.3 L19.8,-27.2 L64.0,-20.8 L32.0,10.4 L39.5,54.4 L0.0,33.6 L-39.5,54.4 L-32.0,10.4 L-64.0,-20.8 L-19.8,-27.2Z" fill="url(#rgrad3)" filter="url(#blur3)" opacity="0.43"/>
      </g>
      </g>
      </g>
      </g>
      </g>
      </g>
      </g>
  </g>
  <g transform="translate(321.6, 373.0)">
      <g transform="translate(-4.94,-0.63) rotate(3.97) scale(1.000)">
        <g transform="translate(-4.71,0.56) rotate(8.99) scale(0.980)">
        <g transform="translate(-3.33,1.71) rotate(14.52) scale(0.960)">
        <g transform="translate(-1.14,2.70) rotate(19.97) scale(0.940)" clip-path="url(#clipDynamic)">
        <g transform="translate(1.33,3.45) rotate(24.73) scale(0.920)">
        <g transform="translate(3.48,3.89) rotate(28.21) scale(0.900)">
        <g transform="translate(4.78,3.99) rotate(29.88) scale(0.880)">
        <rect x="-26.4" y="-26.4" width="52.9" height="52.9" rx="13.2" fill="url(#lgrad4)" filter="url(#shadow)" opacity="0.32"/>
        <circle cx="0" cy="0" r="17.6" fill="url(#rgrad0)" opacity="0.22"/>
      </g>
      </g>
      </g>
      </g>
      </g>
      </g>
      </g>
  </g>
  <g transform="translate(555.8, 359.2)">
      <g transform="translate(-3.33,2.98) rotate(3.97) scale(1.000)">
        <g transform="translate(-1.14,3.64) rotate(8.99) scale(0.980)">
        <g transform="translate(1.33,3.97) rotate(14.52) scale(0.960)">
        <g transform="translate(3.48,3.94) rotate(19.97) scale(0.940)">
        <g transform="translate(4.78,3.57) rotate(24.73) scale(0.920)">
        <g transform="translate(4.90,2.87) rotate(28.21) scale(0.900)" mask="url(#maskStripes)">
        <g transform="translate(3.83,1.92) rotate(29.88) scale(0.880)">
        <path d="M23.4,13.5 L0.0,27.0 L-23.4,13.5 L-23.4,-13.5 L-0.0,-27.0 L23.4,-13.5Z" fill="url(#rgrad0)" filter="url(#blur0)" opacity="0.22"/>
        <ellipse cx="0" cy="0" rx="11.3" ry="7.5" fill="#FFFFFF" opacity="0.11"/>
      </g>
      </g>
      </g>
      </g>
      </g>
      </g>
      </g>
  </g>
  <g transform="translate(786.1, 355.2)">
      <g transform="translate(1.33,3.85) rotate(3.97) scale(1.000)">
        <g transform="translate(3.48,3.37) rotate(8.99) scale(0.980)">
        <g transform="translate(4.78,2.58) rotate(14.52) scale(0.960)">
        <g transform="translate(4.90,1.56) rotate(19.97) scale(0.940)">
        <g transform="translate(3.83,0.40) rotate(24.73) scale(0.920)">
        <g transform="translate(1.81,-0.79) rotate(28.21) scale(0.900)">
        <g transform="translate(-0.64,-1.92) rotate(29.88) scale(0.880)">
        <circle cx="0" cy="0" r="25.5" fill="url(#rgrad1)" filter="url(#shadow)" opacity="0.15"/>
        <text x="0" y="5" text-anchor="middle" font-family="Arial, sans-serif" font-size="14" fill="#FFFFFF" opacity="0.15">293</text>
      </g>
      </g>
      </g>
      </g>
      </g>
      </g>
      </g>
  </g>
  <g transform="translate(1010.0, 362.8)">
      <g transform="translate(4.78,1.18) rotate(3.97) scale(1.000)">
        <g transform="translate(4.90,0.00) rotate(8.99) scale(0.980)">
        <g transform="translate(3.83,-1.18) rotate(14.52) scale(0.960)">
        <g transform="translate(1.81,-2.26) rotate(19.97) scale(0.940)" clip-path="url(#clipHex)">
        <g transform="translate(-0.64,-3.13) rotate(24.73) scale(0.920)">
        <g transform="translate(-2.94,-3.73) rotate(28.21) scale(0.900)">
        <g transform="translate(-4.52,-3.99) rotate(29.88) scale(0.880)">
        <path d="M0.0,-65.2 L19.2,-26.4 L62.0,-20.1 L31.0,10.1 L38.3,52.7 L0.0,32.6 L-38.3,52.7 L-31.0,10.1 L-62.0,-20.1 L-19.2,-26.4Z" fill="url(#lgrad2)" filter="url(#blur2)" opacity="0.11"/>
      </g>
      </g>
      </g>
      </g>
      </g>
      </g>
      </g>
  </g>
  <g transform="translate(1226.6, 378.5)">
      <g transform="translate(3.83,-2.57) rotate(3.97) scale(1.000)">
        <g transform="translate(1.81,-3.36) rotate(8.99) scale(0.980)">
        <g transform="translate(-0.64,-3.85) rotate(14.52) scale(0.960)">
        <g transform="translate(-2.94,-4.00) rotate(19.97) scale(0.940)">
        <g transform="translate(-4.52,-3.79) rotate(24.73) scale(0.920)">
        <g transform="translate(-4.99,-3.24) rotate(28.21) scale(0.900)" mask="url(#maskCircleFade)">
        <g transform="translate(-4.24,-2.40) rotate(29.88) scale(0.880)">
        <rect x="-37.3" y="-37.3" width="74.6" height="74.6" rx="18.7" fill="url(#rgrad3)" filter="url(#shadow)" opacity="0.10"/>
        <circle cx="0" cy="0" r="24.9" fill="url(#rgrad4)" opacity="0.07"/>
      </g>
      </g>
      </g>
      </g>
      </g>
      </g>
      </g>
  </g>
  <g transform="translate(1436.6, 394.9)">
      <g transform="translate(-0.64,-3.97) rotate(3.97) scale(1.000)">
        <g transform="translate(-2.94,-3.64) rotate(8.99) scale(0.980)">
        <g transform="translate(-4.52,-2.98) rotate(14.52) scale(0.960)">
        <g transform="translate(-4.99,-2.06) rotate(19.97) scale(0.940)">
        <g transform="translate(-4.24,-0.96) rotate(24.73) scale(0.920)">
        <g transform="translate(-2.45,0.23) rotate(28.21) scale(0.900)">
        <g transform="translate(-0.07,1.40) rotate(29.88) scale(0.880)">
        <path d="M36.7,21.2 L0.0,42.4 L-36.7,21.2 L-36.7,-21.2 L-0.0,-42.4 L36.7,-21.2Z" fill="url(#rgrad4)" filter="url(#blur4)" opacity="0.13"/>
        <ellipse cx="0" cy="0" rx="17.7" ry="11.8" fill="#FFFFFF" opacity="0.07"/>
      </g>
      </g>
      </g>
      </g>
      </g>
      </g>
      </g>
  </g>
  <g transform="translate(1642.6, 404.3)">
      <g transform="translate(-4.52,-1.71) rotate(3.97) scale(1.000)">
        <g transform="translate(-4.99,-0.57) rotate(8.99) scale(0.980)">
        <g transform="translate(-4.24,0.63) rotate(14.52) scale(0.960)">
        <g transform="translate(-2.45,1.77) rotate(19.97) scale(0.940)" clip-path="url(#clipCircle)">
        <g transform="translate(-0.07,2.75) rotate(24.73) scale(0.920)">
        <g transform="translate(2.34,3.49) rotate(28.21) scale(0.900)">
        <g transform="translate(4.17,3.91) rotate(29.88) scale(0.880)">
        <circle cx="0" cy="0" r="28.4" fill="url(#lgrad0)" filter="url(#shadow)" opacity="0.20"/>
        <text x="0" y="5" text-anchor="middle" font-family="Arial, sans-serif" font-size="14" fill="#FFFFFF" opacity="0.20">293</text>
      </g>
      </g>
      </g>
      </g>
      </g>
      </g>
      </g>
  </g>
  <g transform="translate(88.0, 682.3)">
      <g transform="translate(-4.24,2.12) rotate(3.97) scale(1.000)">
        <g transform="translate(-2.45,3.03) rotate(8.99) scale(0.980)">
        <g transform="translate(-0.07,3.66) rotate(14.52) scale(0.960)">
        <g transform="translate(2.34,3.97) rotate(19.97) scale(0.940)">
        <g transform="translate(4.17,3.93) rotate(24.73) scale(0.920)">
        <g transform="translate(4.98,3.54) rotate(28.21) scale(0.900)" mask="url(#maskGradient)">
        <g transform="translate(4.57,2.82) rotate(29.88) scale(0.880)">
        <path d="M0.0,-46.0 L13.5,-18.6 L43.7,-14.2 L21.9,7.1 L27.0,37.2 L0.0,23.0 L-27.0,37.2 L-21.9,7.1 L-43.7,-14.2 L-13.5,-18.6Z" fill="url(#rgrad1)" filter="url(#blur1)" opacity="0.29"/>
      </g>
      </g>
      </g>
      </g>
      </g>
      </g>
      </g>
  </g>
  <g transform="translate(296.3, 669.8)">
      <g transform="translate(-0.07,4.00) rotate(3.97) scale(1.000)">
        <g transform="translate(2.34,3.84) rotate(8.99) scale(0.980)">
        <g transform="translate(4.17,3.33) rotate(14.52) scale(0.960)">
        <g transform="translate(4.98,2.53) rotate(19.97) scale(0.940)">
        <g transform="translate(4.57,1.50) rotate(24.73) scale(0.920)">
        <g transform="translate(3.04,0.33) rotate(28.21) scale(0.900)">
        <g transform="translate(0.77,-0.86) rotate(29.88) scale(0.880)">
        <rect x="-24.0" y="-24.0" width="48.0" height="48.0" rx="12.0" fill="url(#rgrad2)" filter="url(#shadow)" opacity="0.40"/>
        <circle cx="0" cy="0" r="16.0" fill="url(#rgrad3)" opacity="0.28"/>
      </g>
      </g>
      </g>
      </g>
      </g>
      </g>
      </g>
  </g>
  <g transform="translate(510.4, 652.6)">
      <g transform="translate(4.17,2.20) rotate(3.97) scale(1.000)">
        <g transform="translate(4.98,1.12) rotate(8.99) scale(0.980)">
        <g transform="translate(4.57,-0.06) rotate(14.52) scale(0.960)">
        <g transform="translate(3.04,-1.24) rotate(19.97) scale(0.940)" clip-path="url(#clipRect)">
        <g transform="translate(0.77,-2.31) rotate(24.73) scale(0.920)">
        <g transform="translate(-1.69,-3.17) rotate(28.21) scale(0.900)">
        <g transform="translate(-3.74,-3.75) rotate(29.88) scale(0.880)">
        <path d="M31.7,18.3 L0.0,36.6 L-31.7,18.3 L-31.7,-18.3 L-0.0,-36.6 L31.7,-18.3Z" fill="url(#lgrad3)" filter="url(#blur3)" opacity="0.51"/>
        <ellipse cx="0" cy="0" rx="15.3" ry="10.2" fill="#FFFFFF" opacity="0.26"/>
      </g>
      </g>
      </g>
      </g>
      </g>
      </g>
      </g>
  </g>
  <g transform="translate(731.7, 639.0)">
      <g transform="translate(4.57,-1.62) rotate(3.97) scale(1.000)">
        <g transform="translate(3.04,-2.63) rotate(8.99) scale(0.980)">
        <g transform="translate(0.77,-3.40) rotate(14.52) scale(0.960)">
        <g transform="translate(-1.69,-3.87) rotate(19.97) scale(0.940)">
        <g transform="translate(-3.74,-4.00) rotate(24.73) scale(0.920)">
        <g transform="translate(-4.87,-3.76) rotate(28.21) scale(0.900)" mask="url(#maskDynamic)">
        <g transform="translate(-4.81,-3.20) rotate(29.88) scale(0.880)">
        <circle cx="0" cy="0" r="36.6" fill="url(#rgrad4)" filter="url(#shadow)" opacity="0.63"/>
        <text x="0" y="5" text-anchor="middle" font-family="Arial, sans-serif" font-size="14" fill="#FFFFFF" opacity="0.63">293</text>
      </g>
      </g>
      </g>
      </g>
      </g>
      </g>
      </g>
  </g>
  <g transform="translate(960.0, 635.2)">
      <g transform="translate(0.77,-3.95) rotate(3.97) scale(1.000)">
        <g transform="translate(-1.69,-3.96) rotate(8.99) scale(0.980)">
        <g transform="translate(-3.74,-3.61) rotate(14.52) scale(0.960)">
        <g transform="translate(-4.87,-2.94) rotate(19.97) scale(0.940)">
        <g transform="translate(-4.81,-2.01) rotate(24.73) scale(0.920)">
        <g transform="translate(-3.57,-0.89) rotate(28.21) scale(0.900)">
        <g transform="translate(-1.46,0.30) rotate(29.88) scale(0.880)">
        <path d="M0.0,-73.2 L21.5,-29.6 L69.6,-22.6 L34.8,11.3 L43.0,59.2 L0.0,36.6 L-43.0,59.2 L-34.8,11.3 L-69.6,-22.6 L-21.5,-29.6Z" fill="url(#rgrad0)" filter="url(#blur0)" opacity="0.74"/>
      </g>
      </g>
      </g>
      </g>
      </g>
      </g>
      </g>
  </g>
  <g transform="translate(1193.2, 643.1)">
      <g transform="translate(-3.74,-2.65) rotate(3.97) scale(1.000)">
        <g transform="translate(-4.87,-1.65) rotate(8.99) scale(0.980)">
        <g transform="translate(-4.81,-0.50) rotate(14.52) scale(0.960)">
        <g transform="translate(-3.57,0.69) rotate(19.97) scale(0.940)" clip-path="url(#clipStar)">
        <g transform="translate(-1.46,1.83) rotate(24.73) scale(0.920)">
        <g transform="translate(1.01,2.80) rotate(28.21) scale(0.900)">
        <g transform="translate(3.24,3.52) rotate(29.88) scale(0.880)">
        <rect x="-30.5" y="-30.5" width="61.1" height="61.1" rx="15.3" fill="url(#lgrad1)" filter="url(#shadow)" opacity="0.82"/>
        <circle cx="0" cy="0" r="20.4" fill="url(#rgrad2)" opacity="0.58"/>
      </g>
      </g>
      </g>
      </g>
      </g>
      </g>
      </g>
  </g>
  <g transform="translate(1428.0, 658.9)">
      <g transform="translate(-4.81,1.08) rotate(3.97) scale(1.000)">
        <g transform="translate(-3.57,2.17) rotate(8.99) scale(0.980)">
        <g transform="translate(-1.46,3.07) rotate(14.52) scale(0.960)">
        <g transform="translate(1.01,3.69) rotate(19.97) scale(0.940)">
        <g transform="translate(3.24,3.98) rotate(24.73) scale(0.920)">
        <g transform="translate(4.67,3.92) rotate(28.21) scale(0.900)" mask="url(#maskStripes)">
        <g transform="translate(4.96,3.50) rotate(29.88) scale(0.880)">
        <path d="M24.9,14.4 L0.0,28.8 L-24.9,14.4 L-24.9,-14.4 L-0.0,-28.8 L24.9,-14.4Z" fill="url(#rgrad2)" filter="url(#blur2)" opacity="0.88"/>
        <ellipse cx="0" cy="0" rx="12.0" ry="8.0" fill="#FFFFFF" opacity="0.44"/>
      </g>
      </g>
      </g>
      </g>
      </g>
      </g>
      </g>
  </g>
  <g transform="translate(1660.9, 675.3)">
      <g transform="translate(-1.46,3.83) rotate(3.97) scale(1.000)">
        <g transform="translate(1.01,4.00) rotate(8.99) scale(0.980)">
        <g transform="translate(3.24,3.82) rotate(14.52) scale(0.960)">
        <g transform="translate(4.67,3.29) rotate(19.97) scale(0.940)">
        <g transform="translate(4.96,2.47) rotate(24.73) scale(0.920)">
        <g transform="translate(4.03,1.44) rotate(28.21) scale(0.900)">
        <g transform="translate(2.12,0.27) rotate(29.88) scale(0.880)">
        <circle cx="0" cy="0" r="23.0" fill="url(#rgrad3)" filter="url(#shadow)" opacity="0.90"/>
        <text x="0" y="5" text-anchor="middle" font-family="Arial, sans-serif" font-size="14" fill="#FFFFFF" opacity="0.90">293</text>
      </g>
      </g>
      </g>
      </g>
      </g>
      </g>
      </g>
  </g>
  <g transform="translate(128.7, 964.4)">
      <g transform="translate(3.24,3.05) rotate(3.97) scale(1.000)">
        <g transform="translate(4.67,2.15) rotate(8.99) scale(0.980)">
        <g transform="translate(4.96,1.06) rotate(14.52) scale(0.960)">
        <g transform="translate(4.03,-0.13) rotate(19.97) scale(0.940)" clip-path="url(#clipDynamic)">
        <g transform="translate(2.12,-1.31) rotate(24.73) scale(0.920)">
        <g transform="translate(-0.31,-2.37) rotate(28.21) scale(0.900)">
        <g transform="translate(-2.67,-3.21) rotate(29.88) scale(0.880)">
        <path d="M0.0,-56.8 L16.7,-23.0 L54.0,-17.6 L27.0,8.8 L33.4,46.0 L0.0,28.4 L-33.4,46.0 L-27.0,8.8 L-54.0,-17.6 L-16.7,-23.0Z" fill="url(#lgrad4)" filter="url(#blur4)" opacity="0.89"/>
      </g>
      </g>
      </g>
      </g>
      </g>
      </g>
      </g>
  </g>
  <g transform="translate(396.5, 279.0)" mask="url(#maskGradient)">
    <ellipse cx="0" cy="0" rx="200" ry="150" fill="url(#rgrad0)" filter="url(#blur3)" opacity="0.3"/>
  </g>
  <g transform="translate(830.0, 234.2)" mask="url(#maskCircleFade)">
    <ellipse cx="0" cy="0" rx="200" ry="150" fill="url(#rgrad1)" filter="url(#blur3)" opacity="0.3"/>
  </g>
  <g transform="translate(1236.0, 220.4)" mask="url(#maskStripes)">
    <ellipse cx="0" cy="0" rx="200" ry="150" fill="url(#rgrad2)" filter="url(#blur3)" opacity="0.3"/>
  </g>
</svg>