<?xml version="1.0" encoding="UTF-8"?>
<svg xmlns="http://www.w3.org/2000/svg" viewBox="0 0 1920 1080" width="1920" height="1080">
  <defs>
    <filter id="blur0" x="-50%" y="-50%" width="200%" height="200%">
      <feGaussianBlur in="SourceGraphic" stdDeviation="1"/>
    </filter>
    <filter id="blur1" x="-50%" y="-50%" width="200%" height="200%">
      <feGaussianBlur in="SourceGraphic" stdDeviation="3"/>
    </filter>
    <filter id="blur2" x="-50%" y="-50%" width="200%" height="200%">
      <feGaussianBlur in="SourceGraphic" stdDeviation="5"/>
    </filter>
    <filter id="blur3" x="-50%" y="-50%" width="200%" height="200%">
      <feGaussianBlur in="SourceGraphic" stdDeviation="7"/>
    </filter>
    <filter id="blur4" x="-50%" y="-50%" width="200%" height="200%">
      <feGaussianBlur in="SourceGraphic" stdDeviation="9"/>
    </filter>
    <filter id="shadow" x="-50%" y="-50%" width="200%" height="200%">
      <feGaussianBlur in="SourceAlpha" stdDeviation="3" result="blur"/>
      <feOffset in="blur" dx="4" dy="4" result="offsetBlur"/>
      <feMerge>
        <feMergeNode in="offsetBlur"/>
        <feMergeNode in="SourceGraphic"/>
      </feMerge>
    </filter>
    <linearGradient id="lgrad0" x1="0%" y1="0%" x2="98.3%" y2="37.1%">
      <stop offset="0%" stop-color="#FF6B6B"/>
      <stop offset="33%" stop-color="#4ECDC4"/>
      <stop offset="66%" stop-color="#45B7D1"/>
      <stop offset="100%" stop-color="#96E6A1"/>
    </linearGradient>
    <linearGradient id="lgrad1" x1="0%" y1="0%" x2="98.3%" y2="62.9%">
      <stop offset="0%" stop-color="#FFE66D"/>
      <stop offset="33%" stop-color="#FF6B6B"/>
      <stop offset="66%" stop-color="#C44D58"/>
      <stop offset="100%" stop-color="#8B0000"/>
    </linearGradient>
    <linearGradient id="lgrad2" x1="0%" y1="0%" x2="85.4%" y2="85.4%">
      <stop offset="0%" stop-color="#4169E1"/>
      <stop offset="33%" stop-color="#7B68EE"/>
      <stop offset="66%" stop-color="#9370DB"/>
      <stop offset="100%" stop-color="#FFD700"/>
    </linearGradient>
    <linearGradient id="lgrad3" x1="0%" y1="0%" x2="62.9%" y2="98.3%">
      <stop offset="0%" stop-color="#32CD32"/>
      <stop offset="33%" stop-color="#228B22"/>
      <stop offset="66%" stop-color="#006400"/>
      <stop offset="100%" stop-color="#ADFF2F"/>
    </linearGradient>
    <linearGradient id="lgrad4" x1="0%" y1="0%" x2="37.1%" y2="98.3%">
      <stop offset="0%" stop-color="#FF1493"/>
      <stop offset="33%" stop-color="#FF69B4"/>
      <stop offset="66%" stop-color="#FFB6C1"/>
      <stop offset="100%" stop-color="#FFC0CB"/>
    </linearGradient>
    <radialGradient id="rgrad0" cx="50.0%" cy="30.0%" r="60%">
      <stop offset="0%" stop-color="#FF6B6B" stop-opacity="1"/>
      <stop offset="50%" stop-color="#4ECDC4" stop-opacity="0.8"/>
      <stop offset="100%" stop-color="#45B7D1" stop-opacity="0.6"/>
    </radialGradient>
    <radialGradient id="rgrad1" cx="60.0%" cy="38.0%" r="60%">
      <stop offset="0%" stop-color="#FFE66D" stop-opacity="1"/>
      <stop offset="50%" stop-color="#FF6B6B" stop-opacity="0.8"/>
      <stop offset="100%" stop-color="#C44D58" stop-opacity="0.6"/>
    </radialGradient>
    <radialGradient id="rgrad2" cx="30.0%" cy="46.0%" r="60%">
      <stop offset="0%" stop-color="#4169E1" stop-opacity="1"/>
      <stop offset="50%" stop-color="#7B68EE" stop-opacity="0.8"/>
      <stop offset="100%" stop-color="#9370DB" stop-opacity="0.6"/>
    </radialGradient>
    <radialGradient id="rgrad3" cx="40.0%" cy="54.0%" r="60%">
      <stop offset="0%" stop-color="#32CD32" stop-opacity="1"/>
      <stop offset="50%" stop-color="#228B22" stop-opacity="0.8"/>
      <stop offset="100%" stop-color="#006400" stop-opacity="0.6"/>
    </radialGradient>
    <radialGradient id="rgrad4" cx="50.0%" cy="62.0%" r="60%">
      <stop offset="0%" stop-color="#FF1493" stop-opacity="1"/>
      <stop offset="50%" stop-color="#FF69B4" stop-opacity="0.8"/>
      <stop offset="100%" stop-color="#FFB6C1" stop-opacity="0.6"/>
    </radialGradient>
    <clipPath id="clipCircle">
      <circle cx="0" cy="0" r="50"/>
    </clipPath>
    <clipPath id="clipStar">
      <path d="M0.0,-50.0 L14.7,-20.2 L47.6,-15.5 L23.8,7.7 L29.4,40.5 L0.0,25.0 L-29.4,40.5 L-23.8,7.7 L-47.6,-15.5 L-14.7,-20.2Z"/>
    </clipPath>
    <clipPath id="clipHex">
      <path d="M39.0,22.5 L0.0,45.0 L-39.0,22.5 L-39.0,-22.5 L-0.0,-45.0 L39.0,-22.5Z"/>
    </clipPath>
    <clipPath id="clipRect">
      <rect x="-40" y="-30" width="80" height="60" rx="10"/>
    </clipPath>
    <clipPath id="clipDynamic">
      <circle cx="0" cy="0" r="26.2"/>
    </clipPath>
    <mask id="maskGradient" maskContentUnits="objectBoundingBox">
      <rect x="0" y="0" width="1" height="1" fill="url(#maskGrad)"/>
    </mask>
    <linearGradient id="maskGrad" x1="0%" y1="0%" x2="100%" y2="100%">
      <stop offset="0%" stop-color="white"/>
      <stop offset="100%" stop-color="black"/>
    </linearGradient>
    <mask id="maskCircleFade">
      <circle cx="0" cy="0" r="60" fill="white"/>
      <circle cx="0" cy="0" r="30" fill="black"/>
    </mask>
    <mask id="maskStripes">
      <rect x="-50" y="-50" width="100" height="100" fill="white"/>
      <rect x="-50" y="-40" width="100" height="10" fill="black"/>
      <rect x="-50" y="-20" width="100" height="10" fill="black"/>
      <rect x="-50" y="0" width="100" height="10" fill="black"/>
      <rect x="-50" y="20" width="100" height="10" fill="black"/>
      <rect x="-50" y="40" width="100" height="10" fill="black"/>
    </mask>
    <mask id="maskDynamic">
      <rect x="-60" y="-60" width="120" height="120" fill="white" fill-opacity="0.97"/>
      <circle cx="0" cy="0" r="25" fill="white"/>
    </mask>
  </defs>
  <rect width="1920" height="1080" fill="url(#lgrad0)"/>
  <g transform="translate(82.4, 79.7)">
      <g transform="translate(-2.93,-3.24) rotate(4.76) scale(1.000)">
        <g transform="translate(-4.51,-2.40) rotate(8.71) scale(0.980)">
        <g transform="translate(-4.99,-1.35) rotate(11.35) scale(0.960)">
        <g transform="translate(-4.25,-0.18) rotate(12.23) scale(0.940)" clip-path="url(#clipCircle)">
        <g transform="translate(-2.47,1.01) rotate(11.05) scale(0.920)">
        <g transform="translate(-0.08,2.11) rotate(7.65) scale(0.900)">
        <g transform="translate(2.33,3.02) rotate(2.03) scale(0.880)">
        <path d="M0.0,-74.3 L21.8,-30.0 L70.6,-23.0 L35.3,11.5 L43.7,60.1 L0.0,37.1 L-43.7,60.1 L-35.3,11.5 L-70.6,-23.0 L-21.8,-30.0Z" fill="url(#lgrad0)" filter="url(#blur0)" opacity="0.88"/>
      </g>
      </g>
      </g>
      </g>
      </g>
      </g>
      </g>
  </g>
  <g transform="translate(292.9, 93.9)">
      <g transform="translate(-4.99,0.22) rotate(4.76) scale(1.000)">
        <g transform="translate(-4.25,1.39) rotate(8.71) scale(0.980)">
        <g transform="translate(-2.47,2.44) rotate(11.35) scale(0.960)">
        <g transform="translate(-0.08,3.27) rotate(12.23) scale(0.940)">
        <g transform="translate(2.33,3.80) rotate(11.05) scale(0.920)">
        <g transform="translate(4.16,4.00) rotate(7.65) scale(0.900)" mask="url(#maskCircleFade)">
        <g transform="translate(4.98,3.84) rotate(2.03) scale(0.880)">
        <rect x="-31.9" y="-31.9" width="63.8" height="63.8" rx="16.0" fill="url(#rgrad1)" filter="url(#shadow)" opacity="0.83"/>
        <circle cx="0" cy="0" r="21.3" fill="url(#rgrad2)" opacity="0.58"/>
      </g>
      </g>
      </g>
      </g>
      </g>
      </g>
      </g>
  </g>
  <g transform="translate(510.0, 111.0)">
      <g transform="translate(-2.47,3.48) rotate(4.76) scale(1.000)">
        <g transform="translate(-0.08,3.91) rotate(8.71) scale(0.980)">
        <g transform="translate(2.33,3.99) rotate(11.35) scale(0.960)">
        <g transform="translate(4.16,3.71) rotate(12.23) scale(0.940)">
        <g transform="translate(4.98,3.10) rotate(11.05) scale(0.920)">
        <g transform="translate(4.58,2.21) rotate(7.65) scale(0.900)">
        <g transform="translate(3.06,1.13) rotate(2.03) scale(0.880)">
        <path d="M25.9,15.0 L0.0,29.9 L-25.9,15.0 L-25.9,-15.0 L-0.0,-29.9 L25.9,-15.0Z" fill="url(#rgrad2)" filter="url(#blur2)" opacity="0.74"/>
        <ellipse cx="0" cy="0" rx="12.5" ry="8.3" fill="#FFFFFF" opacity="0.37"/>
      </g>
      </g>
      </g>
      </g>
      </g>
      </g>
      </g>
  </g>
  <g transform="translate(734.5, 122.9)">
      <g transform="translate(2.33,3.54) rotate(4.76) scale(1.000)">
        <g transform="translate(4.16,2.83) rotate(8.71) scale(0.980)">
        <g transform="translate(4.98,1.87) rotate(11.35) scale(0.960)">
        <g transform="translate(4.58,0.74) rotate(12.23) scale(0.940)" clip-path="url(#clipRect)">
        <g transform="translate(3.06,-0.45) rotate(11.05) scale(0.920)">
        <g transform="translate(0.78,-1.61) rotate(7.65) scale(0.900)">
        <g transform="translate(-1.68,-2.62) rotate(2.03) scale(0.880)">
        <circle cx="0" cy="0" r="22.6" fill="url(#lgrad3)" filter="url(#shadow)" opacity="0.64"/>
        <text x="0" y="5" text-anchor="middle" font-family="Arial, sans-serif" font-size="14" fill="#FFFFFF" opacity="0.64">600</text>
      </g>
      </g>
      </g>
      </g>
      </g>
      </g>
      </g>
  </g>
  <g transform="translate(965.2, 124.0)">
      <g transform="translate(4.98,0.35) rotate(4.76) scale(1.000)">
        <g transform="translate(4.58,-0.85) rotate(8.71) scale(0.980)">
        <g transform="translate(3.06,-1.96) rotate(11.35) scale(0.960)">
        <g transform="translate(0.78,-2.91) rotate(12.23) scale(0.940)">
        <g transform="translate(-1.68,-3.59) rotate(11.05) scale(0.920)">
        <g transform="translate(-3.73,-3.95) rotate(7.65) scale(0.900)" mask="url(#maskGradient)">
        <g transform="translate(-4.87,-3.96) rotate(2.03) scale(0.880)">
        <path d="M0.0,-54.2 L15.9,-21.9 L51.5,-16.7 L25.8,8.4 L31.8,43.8 L0.0,27.1 L-31.8,43.8 L-25.8,8.4 L-51.5,-16.7 L-15.9,-21.9Z" fill="url(#rgrad4)" filter="url(#blur4)" opacity="0.52"/>
      </g>
      </g>
      </g>
      </g>
      </g>
      </g>
      </g>
  </g>
  <g transform="translate(1199.5, 113.8)">
      <g transform="translate(3.06,-3.17) rotate(4.76) scale(1.000)">
        <g transform="translate(0.78,-3.75) rotate(8.71) scale(0.980)">
        <g transform="translate(-1.68,-3.99) rotate(11.35) scale(0.960)">
        <g transform="translate(-3.73,-3.88) rotate(12.23) scale(0.940)">
        <g transform="translate(-4.87,-3.43) rotate(11.05) scale(0.920)">
        <g transform="translate(-4.82,-2.66) rotate(7.65) scale(0.900)">
        <g transform="translate(-3.58,-1.66) rotate(2.03) scale(0.880)">
        <rect x="-34.2" y="-34.2" width="68.5" height="68.5" rx="17.1" fill="url(#rgrad0)" filter="url(#shadow)" opacity="0.40"/>
        <circle cx="0" cy="0" r="22.8" fill="url(#rgrad1)" opacity="0.28"/>
      </g>
      </g>
      </g>
      </g>
      </g>
      </g>
      </g>
  </g>
  <g transform="translate(1434.0, 97.2)">
      <g transform="translate(-1.68,-3.77) rotate(4.76) scale(1.000)">
        <g transform="translate(-3.73,-3.20) rotate(8.71) scale(0.980)">
        <g transform="translate(-4.87,-2.35) rotate(11.35) scale(0.960)">
        <g transform="translate(-4.82,-1.29) rotate(12.23) scale(0.940)" clip-path="url(#clipStar)">
        <g transform="translate(-3.58,-0.11) rotate(11.05) scale(0.920)">
        <g transform="translate(-1.47,1.07) rotate(7.65) scale(0.900)">
        <g transform="translate(1.00,2.16) rotate(2.03) scale(0.880)">
        <path d="M39.0,22.5 L0.0,45.0 L-39.0,22.5 L-39.0,-22.5 L-0.0,-45.0 L39.0,-22.5Z" fill="url(#lgrad1)" filter="url(#blur1)" opacity="0.29"/>
        <ellipse cx="0" cy="0" rx="18.7" ry="12.5" fill="#FFFFFF" opacity="0.15"/>
      </g>
      </g>
      </g>
      </g>
      </g>
      </g>
      </g>
  </g>
  <g transform="translate(1665.0, 81.8)">
      <g transform="translate(-4.87,-0.90) rotate(4.76) scale(1.000)">
        <g transform="translate(-4.82,0.29) rotate(8.71) scale(0.980)">
        <g transform="translate(-3.58,1.45) rotate(11.35) scale(0.960)">
        <g transform="translate(-1.47,2.49) rotate(12.23) scale(0.940)">
        <g transform="translate(1.00,3.30) rotate(11.05) scale(0.920)">
        <g transform="translate(3.23,3.82) rotate(7.65) scale(0.900)" mask="url(#maskDynamic)">
        <g transform="translate(4.66,4.00) rotate(2.03) scale(0.880)">
        <circle cx="0" cy="0" r="33.9" fill="url(#rgrad2)" filter="url(#shadow)" opacity="0.20"/>
        <text x="0" y="5" text-anchor="middle" font-family="Arial, sans-serif" font-size="14" fill="#FFFFFF" opacity="0.20">600</text>
      </g>
      </g>
      </g>
      </g>
      </g>
      </g>
      </g>
  </g>
  <g transform="translate(129.9, 355.0)">
      <g transform="translate(-3.58,2.79) rotate(4.76) scale(1.000)">
        <g transform="translate(-1.47,3.51) rotate(8.71) scale(0.980)">
        <g transform="translate(1.00,3.92) rotate(11.35) scale(0.960)">
        <g transform="translate(3.23,3.98) rotate(12.23) scale(0.940)">
        <g transform="translate(4.66,3.68) rotate(11.05) scale(0.920)">
        <g transform="translate(4.96,3.06) rotate(7.65) scale(0.900)">
        <g transform="translate(4.04,2.16) rotate(2.03) scale(0.880)">
        <path d="M0.0,-53.4 L15.7,-21.6 L50.7,-16.5 L25.4,8.2 L31.4,43.2 L0.0,26.7 L-31.4,43.2 L-25.4,8.2 L-50.7,-16.5 L-15.7,-21.6Z" fill="url(#rgrad3)" filter="url(#blur3)" opacity="0.14"/>
      </g>
      </g>
      </g>
      </g>
      </g>
      </g>
      </g>
  </g>
  <g transform="translate(347.5, 360.0)">
      <g transform="translate(1.00,3.92) rotate(4.76) scale(1.000)">
        <g transform="translate(3.23,3.51) rotate(8.71) scale(0.980)">
        <g transform="translate(4.66,2.78) rotate(11.35) scale(0.960)">
        <g transform="translate(4.96,1.81) rotate(12.23) scale(0.940)" clip-path="url(#clipDynamic)">
        <g transform="translate(4.04,0.68) rotate(11.05) scale(0.920)">
        <g transform="translate(2.13,-0.52) rotate(7.65) scale(0.900)">
        <g transform="translate(-0.30,-1.67) rotate(2.03) scale(0.880)">
        <rect x="-22.5" y="-22.5" width="45.1" height="45.1" rx="11.3" fill="url(#lgrad4)" filter="url(#shadow)" opacity="0.10"/>
        <circle cx="0" cy="0" r="15.0" fill="url(#rgrad0)" opacity="0.07"/>
      </g>
      </g>
      </g>
      </g>
      </g>
      </g>
      </g>
  </g>
  <g transform="translate(558.3, 374.3)">
      <g transform="translate(4.66,1.45) rotate(4.76) scale(1.000)">
        <g transform="translate(4.96,0.28) rotate(8.71) scale(0.980)">
        <g transform="translate(4.04,-0.91) rotate(11.35) scale(0.960)">
        <g transform="translate(2.13,-2.02) rotate(12.23) scale(0.940)">
        <g transform="translate(-0.30,-2.95) rotate(11.05) scale(0.920)">
        <g transform="translate(-2.65,-3.62) rotate(7.65) scale(0.900)" mask="url(#maskStripes)">
        <g transform="translate(-4.36,-3.96) rotate(2.03) scale(0.880)">
        <path d="M26.3,15.2 L0.0,30.3 L-26.3,15.2 L-26.3,-15.2 L-0.0,-30.3 L26.3,-15.2Z" fill="url(#rgrad0)" filter="url(#blur0)" opacity="0.11"/>
        <ellipse cx="0" cy="0" rx="12.6" ry="8.4" fill="#FFFFFF" opacity="0.05"/>
      </g>
      </g>
      </g>
      </g>
      </g>
      </g>
      </g>
  </g>
  <g transform="translate(764.7, 391.4)">
      <g transform="translate(4.04,-2.36) rotate(4.76) scale(1.000)">
        <g transform="translate(2.13,-3.21) rotate(8.71) scale(0.980)">
        <g transform="translate(-0.30,-3.77) rotate(11.35) scale(0.960)">
        <g transform="translate(-2.65,-4.00) rotate(12.23) scale(0.940)">
        <g transform="translate(-4.36,-3.87) rotate(11.05) scale(0.920)">
        <g transform="translate(-5.00,-3.39) rotate(7.65) scale(0.900)">
        <g transform="translate(-4.41,-2.61) rotate(2.03) scale(0.880)">
        <circle cx="0" cy="0" r="32.3" fill="url(#rgrad1)" filter="url(#shadow)" opacity="0.14"/>
        <text x="0" y="5" text-anchor="middle" font-family="Arial, sans-serif" font-size="14" fill="#FFFFFF" opacity="0.14">600</text>
      </g>
      </g>
      </g>
      </g>
      </g>
      </g>
      </g>
  </g>
  <g transform="translate(969.9, 403.0)">
      <g transform="translate(-0.30,-3.99) rotate(4.76) scale(1.000)">
        <g transform="translate(-2.65,-3.74) rotate(8.71) scale(0.980)">
        <g transform="translate(-4.36,-3.16) rotate(11.35) scale(0.960)">
        <g transform="translate(-5.00,-2.30) rotate(12.23) scale(0.940)" clip-path="url(#clipHex)">
        <g transform="translate(-4.41,-1.23) rotate(11.05) scale(0.920)">
        <g transform="translate(-2.75,-0.05) rotate(7.65) scale(0.900)">
        <g transform="translate(-0.41,1.14) rotate(2.03) scale(0.880)">
        <path d="M0.0,-74.5 L21.9,-30.1 L70.9,-23.0 L35.4,11.5 L43.8,60.3 L0.0,37.3 L-43.8,60.3 L-35.4,11.5 L-70.9,-23.0 L-21.9,-30.1Z" fill="url(#lgrad2)" filter="url(#blur2)" opacity="0.21"/>
      </g>
      </g>
      </g>
      </g>
      </g>
      </g>
      </g>
  </g>
  <g transform="translate(1177.6, 403.9)">
      <g transform="translate(-4.36,-1.96) rotate(4.76) scale(1.000)">
        <g transform="translate(-5.00,-0.84) rotate(8.71) scale(0.980)">
        <g transform="translate(-4.41,0.35) rotate(11.35) scale(0.960)">
        <g transform="translate(-2.75,1.52) rotate(12.23) scale(0.940)">
        <g transform="translate(-0.41,2.54) rotate(11.05) scale(0.920)">
        <g transform="translate(2.03,3.34) rotate(7.65) scale(0.900)" mask="url(#maskCircleFade)">
        <g transform="translate(3.97,3.84) rotate(2.03) scale(0.880)">
        <rect x="-35.5" y="-35.5" width="71.0" height="71.0" rx="17.8" fill="url(#rgrad3)" filter="url(#shadow)" opacity="0.31"/>
        <circle cx="0" cy="0" r="23.7" fill="url(#rgrad4)" opacity="0.22"/>
      </g>
      </g>
      </g>
      </g>
      </g>
      </g>
      </g>
  </g>
  <g transform="translate(1390.8, 393.5)">
      <g transform="translate(-4.41,1.88) rotate(4.76) scale(1.000)">
        <g transform="translate(-2.75,2.84) rotate(8.71) scale(0.980)">
        <g transform="translate(-0.41,3.54) rotate(11.35) scale(0.960)">
        <g transform="translate(2.03,3.93) rotate(12.23) scale(0.940)">
        <g transform="translate(3.97,3.97) rotate(11.05) scale(0.920)">
        <g transform="translate(4.94,3.66) rotate(7.65) scale(0.900)">
        <g transform="translate(4.70,3.01) rotate(2.03) scale(0.880)">
        <path d="M29.8,17.2 L0.0,34.4 L-29.8,17.2 L-29.8,-17.2 L-0.0,-34.4 L29.8,-17.2Z" fill="url(#rgrad4)" filter="url(#blur4)" opacity="0.42"/>
        <ellipse cx="0" cy="0" rx="14.3" ry="9.6" fill="#FFFFFF" opacity="0.21"/>
      </g>
      </g>
      </g>
      </g>
      </g>
      </g>
      </g>
  </g>
  <g transform="translate(1611.1, 376.8)">
      <g transform="translate(-0.41,3.99) rotate(4.76) scale(1.000)">
        <g transform="translate(2.03,3.91) rotate(8.71) scale(0.980)">
        <g transform="translate(3.97,3.48) rotate(11.35) scale(0.960)">
        <g transform="translate(4.94,2.74) rotate(12.23) scale(0.940)" clip-path="url(#clipCircle)">
        <g transform="translate(4.70,1.75) rotate(11.05) scale(0.920)">
        <g transform="translate(3.31,0.61) rotate(7.65) scale(0.900)">
        <g transform="translate(1.11,-0.59) rotate(2.03) scale(0.880)">
        <circle cx="0" cy="0" r="23.1" fill="url(#lgrad0)" filter="url(#shadow)" opacity="0.54"/>
        <text x="0" y="5" text-anchor="middle" font-family="Arial, sans-serif" font-size="14" fill="#FFFFFF" opacity="0.54">600</text>
      </g>
      </g>
      </g>
      </g>
      </g>
      </g>
      </g>
  </g>
  <g transform="translate(78.5, 641.5)">
      <g transform="translate(3.97,2.43) rotate(4.76) scale(1.000)">
        <g transform="translate(4.94,1.38) rotate(8.71) scale(0.980)">
        <g transform="translate(4.70,0.21) rotate(11.35) scale(0.960)">
        <g transform="translate(3.31,-0.98) rotate(12.23) scale(0.940)">
        <g transform="translate(1.11,-2.08) rotate(11.05) scale(0.920)">
        <g transform="translate(-1.36,-3.00) rotate(7.65) scale(0.900)" mask="url(#maskGradient)">
        <g transform="translate(-3.50,-3.65) rotate(2.03) scale(0.880)">
        <path d="M0.0,-47.7 L14.0,-19.3 L45.3,-14.7 L22.7,7.4 L28.0,38.6 L0.0,23.8 L-28.0,38.6 L-22.7,7.4 L-45.3,-14.7 L-14.0,-19.3Z" fill="url(#rgrad1)" filter="url(#blur1)" opacity="0.66"/>
      </g>
      </g>
      </g>
      </g>
      </g>
      </g>
      </g>
  </g>
  <g transform="translate(311.2, 635.0)">
      <g transform="translate(4.70,-1.36) rotate(4.76) scale(1.000)">
        <g transform="translate(3.31,-2.41) rotate(8.71) scale(0.980)">
        <g transform="translate(1.11,-3.25) rotate(11.35) scale(0.960)">
        <g transform="translate(-1.36,-3.79) rotate(12.23) scale(0.940)">
        <g transform="translate(-3.50,-4.00) rotate(11.05) scale(0.920)">
        <g transform="translate(-4.78,-3.85) rotate(7.65) scale(0.900)">
        <g transform="translate(-4.89,-3.35) rotate(2.03) scale(0.880)">
        <rect x="-30.3" y="-30.3" width="60.5" height="60.5" rx="15.1" fill="url(#rgrad2)" filter="url(#shadow)" opacity="0.76"/>
        <circle cx="0" cy="0" r="20.2" fill="url(#rgrad3)" opacity="0.53"/>
      </g>
      </g>
      </g>
      </g>
      </g>
      </g>
      </g>
  </g>
  <g transform="translate(546.0, 640.2)">
      <g transform="translate(1.11,-3.90) rotate(4.76) scale(1.000)">
        <g transform="translate(-1.36,-3.99) rotate(8.71) scale(0.980)">
        <g transform="translate(-3.50,-3.72) rotate(11.35) scale(0.960)">
        <g transform="translate(-4.78,-3.12) rotate(12.23) scale(0.940)" clip-path="url(#clipRect)">
        <g transform="translate(-4.89,-2.24) rotate(11.05) scale(0.920)">
        <g transform="translate(-3.81,-1.16) rotate(7.65) scale(0.900)">
        <g transform="translate(-1.79,0.02) rotate(2.03) scale(0.880)">
        <path d="M37.9,21.9 L0.0,43.7 L-37.9,21.9 L-37.9,-21.9 L-0.0,-43.7 L37.9,-21.9Z" fill="url(#lgrad3)" filter="url(#blur3)" opacity="0.84"/>
        <ellipse cx="0" cy="0" rx="18.2" ry="12.1" fill="#FFFFFF" opacity="0.42"/>
      </g>
      </g>
      </g>
      </g>
      </g>
      </g>
      </g>
  </g>
  <g transform="translate(779.4, 654.8)">
      <g transform="translate(-3.50,-2.85) rotate(4.76) scale(1.000)">
        <g transform="translate(-4.78,-1.90) rotate(8.71) scale(0.980)">
        <g transform="translate(-4.89,-0.77) rotate(11.35) scale(0.960)">
        <g transform="translate(-3.81,0.42) rotate(12.23) scale(0.940)">
        <g transform="translate(-1.79,1.58) rotate(11.05) scale(0.920)">
        <g transform="translate(0.67,2.59) rotate(7.65) scale(0.900)" mask="url(#maskDynamic)">
        <g transform="translate(2.96,3.38) rotate(2.03) scale(0.880)">
        <circle cx="0" cy="0" r="36.7" fill="url(#rgrad4)" filter="url(#shadow)" opacity="0.89"/>
        <text x="0" y="5" text-anchor="middle" font-family="Arial, sans-serif" font-size="14" fill="#FFFFFF" opacity="0.89">600</text>
      </g>
      </g>
      </g>
      </g>
      </g>
      </g>
      </g>
  </g>
  <g transform="translate(1008.0, 671.7)">
      <g transform="translate(-4.89,0.82) rotate(4.76) scale(1.000)">
        <g transform="translate(-3.81,1.94) rotate(8.71) scale(0.980)">
        <g transform="translate(-1.79,2.88) rotate(11.35) scale(0.960)">
        <g transform="translate(0.67,3.57) rotate(12.23) scale(0.940)">
        <g transform="translate(2.96,3.95) rotate(11.05) scale(0.920)">
        <g transform="translate(4.53,3.96) rotate(7.65) scale(0.900)">
        <g transform="translate(4.99,3.63) rotate(2.03) scale(0.880)">
        <path d="M0.0,-61.6 L18.1,-24.9 L58.6,-19.0 L29.3,9.5 L36.2,49.8 L0.0,30.8 L-36.2,49.8 L-29.3,9.5 L-58.6,-19.0 L-18.1,-24.9Z" fill="url(#rgrad0)" filter="url(#blur0)" opacity="0.90"/>
      </g>
      </g>
      </g>
      </g>
      </g>
      </g>
      </g>
  </g>
  <g transform="translate(1229.7, 683.2)">
      <g transform="translate(-1.79,3.74) rotate(4.76) scale(1.000)">
        <g transform="translate(0.67,3.99) rotate(8.71) scale(0.980)">
        <g transform="translate(2.96,3.89) rotate(11.35) scale(0.960)">
        <g transform="translate(4.53,3.44) rotate(12.23) scale(0.940)" clip-path="url(#clipStar)">
        <g transform="translate(4.99,2.69) rotate(11.05) scale(0.920)">
        <g transform="translate(4.23,1.69) rotate(7.65) scale(0.900)">
        <g transform="translate(2.43,0.54) rotate(2.03) scale(0.880)">
        <rect x="-24.2" y="-24.2" width="48.3" height="48.3" rx="12.1" fill="url(#lgrad1)" filter="url(#shadow)" opacity="0.88"/>
        <circle cx="0" cy="0" r="16.1" fill="url(#rgrad2)" opacity="0.61"/>
      </g>
      </g>
      </g>
      </g>
      </g>
      </g>
      </g>
  </g>
  <g transform="translate(1444.2, 683.7)">
      <g transform="translate(2.96,3.22) rotate(4.76) scale(1.000)">
        <g transform="translate(4.53,2.38) rotate(8.71) scale(0.980)">
        <g transform="translate(4.99,1.32) rotate(11.35) scale(0.960)">
        <g transform="translate(4.23,0.14) rotate(12.23) scale(0.940)">
        <g transform="translate(2.43,-1.04) rotate(11.05) scale(0.920)">
        <g transform="translate(0.03,-2.14) rotate(7.65) scale(0.900)" mask="url(#maskStripes)">
        <g transform="translate(-2.37,-3.04) rotate(2.03) scale(0.880)">
        <path d="M23.8,13.7 L0.0,27.5 L-23.8,13.7 L-23.8,-13.7 L-0.0,-27.5 L23.8,-13.7Z" fill="url(#rgrad2)" filter="url(#blur2)" opacity="0.82"/>
        <ellipse cx="0" cy="0" rx="11.4" ry="7.6" fill="#FFFFFF" opacity="0.41"/>
      </g>
      </g>
      </g>
      </g>
      </g>
      </g>
      </g>
  </g>
  <g transform="translate(1652.8, 673.1)">
      <g transform="translate(4.99,-0.26) rotate(4.76) scale(1.000)">
        <g transform="translate(4.23,-1.42) rotate(8.71) scale(0.980)">
        <g transform="translate(2.43,-2.46) rotate(11.35) scale(0.960)">
        <g transform="translate(0.03,-3.29) rotate(12.23) scale(0.940)">
        <g transform="translate(-2.37,-3.81) rotate(11.05) scale(0.920)">
        <g transform="translate(-4.19,-4.00) rotate(7.65) scale(0.900)">
        <g transform="translate(-4.98,-3.83) rotate(2.03) scale(0.880)">
        <circle cx="0" cy="0" r="28.2" fill="url(#rgrad3)" filter="url(#shadow)" opacity="0.74"/>
        <text x="0" y="5" text-anchor="middle" font-family="Arial, sans-serif" font-size="14" fill="#FFFFFF" opacity="0.74">600</text>
      </g>
      </g>
      </g>
      </g>
      </g>
      </g>
      </g>
  </g>
  <g transform="translate(98.2, 936.3)">
      <g transform="translate(2.43,-3.50) rotate(4.76) scale(1.000)">
        <g transform="translate(0.03,-3.91) rotate(8.71) scale(0.980)">
        <g transform="translate(-2.37,-3.98) rotate(11.35) scale(0.960)">
        <g transform="translate(-4.19,-3.69) rotate(12.23) scale(0.940)" clip-path="url(#clipDynamic)">
        <g transform="translate(-4.98,-3.08) rotate(11.05) scale(0.920)">
        <g transform="translate(-4.56,-2.18) rotate(7.65) scale(0.900)">
        <g transform="translate(-3.02,-1.10) rotate(2.03) scale(0.880)">
        <path d="M0.0,-70.2 L20.6,-28.4 L66.8,-21.7 L33.4,10.9 L41.3,56.8 L0.0,35.1 L-41.3,56.8 L-33.4,10.9 L-66.8,-21.7 L-20.6,-28.4Z" fill="url(#lgrad4)" filter="url(#blur4)" opacity="0.63"/>
      </g>
      </g>
      </g>
      </g>
      </g>
      </g>
      </g>
  </g>
  <g transform="translate(241.4, 235.2)" mask="url(#maskGradient)">
    <ellipse cx="0" cy="0" rx="200" ry="150" fill="url(#rgrad0)" filter="url(#blur3)" opacity="0.3"/>
  </g>
  <g transform="translate(700.2, 280.6)" mask="url(#maskCircleFade)">
    <ellipse cx="0" cy="0" rx="200" ry="150" fill="url(#rgrad1)" filter="url(#blur3)" opacity="0.3"/>
  </g>
  <g transform="translate(1250.7, 335.2)" mask="url(#maskStripes)">
    <ellipse cx="0" cy="0" rx="200" ry="150" fill="url(#rgrad2)" filter="url(#blur3)" opacity="0.3"/>
  </g>
</svg>