<?xml version="1.0" encoding="UTF-8"?>
<svg xmlns="http://www.w3.org/2000/svg" viewBox="0 0 1920 1080" width="1920" height="1080">
  <defs>
    <filter id="blur0" x="-50%" y="-50%" width="200%" height="200%">
      <feGaussianBlur in="SourceGraphic" stdDeviation="1"/>
    </filter>
    <filter id="blur1" x="-50%" y="-50%" width="200%" height="200%">
      <feGaussianBlur in="SourceGraphic" stdDeviation="3"/>
    </filter>
    <filter id="blur2" x="-50%" y="-50%" width="200%" height="200%">
      <feGaussianBlur in="SourceGraphic" stdDeviation="5"/>
    </filter>
    <filter id="blur3" x="-50%" y="-50%" width="200%" height="200%">
      <feGaussianBlur in="SourceGraphic" stdDeviation="7"/>
    </filter>
    <filter id="blur4" x="-50%" y="-50%" width="200%" height="200%">
      <feGaussianBlur in="SourceGraphic" stdDeviation="9"/>
    </filter>
    <filter id="shadow" x="-50%" y="-50%" width="200%" height="200%">
      <feGaussianBlur in="SourceAlpha" stdDeviation="3" result="blur"/>
      <feOffset in="blur" dx="4" dy="4" result="offsetBlur"/>
      <feMerge>
        <feMergeNode in="offsetBlur"/>
        <feMergeNode in="SourceGraphic"/>
      </feMerge>
    </filter>
    <linearGradient id="lgrad0" x1="0%" y1="0%" x2="75.4%" y2="93.1%">
      <stop offset="0%" stop-color="#FF6B6B"/>
      <stop offset="33%" stop-color="#4ECDC4"/>
      <stop offset="66%" stop-color="#45B7D1"/>
      <stop offset="100%" stop-color="#96E6A1"/>
    </linearGradient>
    <linearGradient id="lgrad1" x1="0%" y1="0%" x2="50.4%" y2="100.0%">
      <stop offset="0%" stop-color="#FFE66D"/>
      <stop offset="33%" stop-color="#FF6B6B"/>
      <stop offset="66%" stop-color="#C44D58"/>
      <stop offset="100%" stop-color="#8B0000"/>
    </linearGradient>
    <linearGradient id="lgrad2" x1="0%" y1="0%" x2="25.4%" y2="93.5%">
      <stop offset="0%" stop-color="#4169E1"/>
      <stop offset="33%" stop-color="#7B68EE"/>
      <stop offset="66%" stop-color="#9370DB"/>
      <stop offset="100%" stop-color="#FFD700"/>
    </linearGradient>
    <linearGradient id="lgrad3" x1="0%" y1="0%" x2="6.9%" y2="75.4%">
      <stop offset="0%" stop-color="#32CD32"/>
      <stop offset="33%" stop-color="#228B22"/>
      <stop offset="66%" stop-color="#006400"/>
      <stop offset="100%" stop-color="#ADFF2F"/>
    </linearGradient>
    <linearGradient id="lgrad4" x1="0%" y1="0%" x2="0.0%" y2="50.4%">
      <stop offset="0%" stop-color="#FF1493"/>
      <stop offset="33%" stop-color="#FF69B4"/>
      <stop offset="66%" stop-color="#FFB6C1"/>
      <stop offset="100%" stop-color="#FFC0CB"/>
    </linearGradient>
    <radialGradient id="rgrad0" cx="54.7%" cy="59.8%" r="60%">
      <stop offset="0%" stop-color="#FF6B6B" stop-opacity="1"/>
      <stop offset="50%" stop-color="#4ECDC4" stop-opacity="0.8"/>
      <stop offset="100%" stop-color="#45B7D1" stop-opacity="0.6"/>
    </radialGradient>
    <radialGradient id="rgrad1" cx="64.7%" cy="67.8%" r="60%">
      <stop offset="0%" stop-color="#FFE66D" stop-opacity="1"/>
      <stop offset="50%" stop-color="#FF6B6B" stop-opacity="0.8"/>
      <stop offset="100%" stop-color="#C44D58" stop-opacity="0.6"/>
    </radialGradient>
    <radialGradient id="rgrad2" cx="34.7%" cy="35.8%" r="60%">
      <stop offset="0%" stop-color="#4169E1" stop-opacity="1"/>
      <stop offset="50%" stop-color="#7B68EE" stop-opacity="0.8"/>
      <stop offset="100%" stop-color="#9370DB" stop-opacity="0.6"/>
    </radialGradient>
    <radialGradient id="rgrad3" cx="44.7%" cy="43.8%" r="60%">
      <stop offset="0%" stop-color="#32CD32" stop-opacity="1"/>
      <stop offset="50%" stop-color="#228B22" stop-opacity="0.8"/>
      <stop offset="100%" stop-color="#006400" stop-opacity="0.6"/>
    </radialGradient>
    <radialGradient id="rgrad4" cx="54.7%" cy="51.8%" r="60%">
      <stop offset="0%" stop-color="#FF1493" stop-opacity="1"/>
      <stop offset="50%" stop-color="#FF69B4" stop-opacity="0.8"/>
      <stop offset="100%" stop-color="#FFB6C1" stop-opacity="0.6"/>
    </radialGradient>
    <clipPath id="clipCircle">
      <circle cx="0" cy="0" r="50"/>
    </clipPath>
    <clipPath id="clipStar">
      <path d="M0.0,-50.0 L14.7,-20.2 L47.6,-15.5 L23.8,7.7 L29.4,40.5 L0.0,25.0 L-29.4,40.5 L-23.8,7.7 L-47.6,-15.5 L-14.7,-20.2Z"/>
    </clipPath>
    <clipPath id="clipHex">
      <path d="M39.0,22.5 L0.0,45.0 L-39.0,22.5 L-39.0,-22.5 L-0.0,-45.0 L39.0,-22.5Z"/>
    </clipPath>
    <clipPath id="clipRect">
      <rect x="-40" y="-30" width="80" height="60" rx="10"/>
    </clipPath>
    <clipPath id="clipDynamic">
      <circle cx="0" cy="0" r="20.0"/>
    </clipPath>
    <mask id="maskGradient" maskContentUnits="objectBoundingBox">
      <rect x="0" y="0" width="1" height="1" fill="url(#maskGrad)"/>
    </mask>
    <linearGradient id="maskGrad" x1="0%" y1="0%" x2="100%" y2="100%">
      <stop offset="0%" stop-color="white"/>
      <stop offset="100%" stop-color="black"/>
    </linearGradient>
    <mask id="maskCircleFade">
      <circle cx="0" cy="0" r="60" fill="white"/>
      <circle cx="0" cy="0" r="30" fill="black"/>
    </mask>
    <mask id="maskStripes">
      <rect x="-50" y="-50" width="100" height="100" fill="white"/>
      <rect x="-50" y="-40" width="100" height="10" fill="black"/>
      <rect x="-50" y="-20" width="100" height="10" fill="black"/>
      <rect x="-50" y="0" width="100" height="10" fill="black"/>
      <rect x="-50" y="20" width="100" height="10" fill="black"/>
      <rect x="-50" y="40" width="100" height="10" fill="black"/>
    </mask>
    <mask id="maskDynamic">
      <rect x="-60" y="-60" width="120" height="120" fill="white" fill-opacity="0.80"/>
      <circle cx="0" cy="0" r="25" fill="white"/>
    </mask>
  </defs>
  <rect width="1920" height="1080" fill="url(#lgrad0)"/>
  <g transform="translate(70.0, 99.8)">
      <g transform="translate(-5.00,-0.03) rotate(3.55) scale(1.000)">
        <g transform="translate(-4.41,1.15) rotate(5.56) scale(0.980)">
        <g transform="translate(-2.73,2.23) rotate(5.69) scale(0.960)">
        <g transform="translate(-0.39,3.11) rotate(3.76) scale(0.940)" clip-path="url(#clipCircle)">
        <g transform="translate(2.04,3.72) rotate(-0.27) scale(0.920)">
        <g transform="translate(3.98,3.99) rotate(-6.27) scale(0.900)">
        <g transform="translate(4.94,3.90) rotate(-13.97) scale(0.880)">
        <path d="M0.0,-70.6 L20.8,-28.6 L67.2,-21.8 L33.6,10.9 L41.5,57.2 L0.0,35.3 L-41.5,57.2 L-33.6,10.9 L-67.2,-21.8 L-20.8,-28.6Z" fill="url(#lgrad0)" filter="url(#blur0)" opacity="0.78"/>
      </g>
      </g>
      </g>
      </g>
      </g>
      </g>
      </g>
  </g>
  <g transform="translate(293.6, 116.0)">
      <g transform="translate(-2.73,3.35) rotate(3.55) scale(1.000)">
        <g transform="translate(-0.39,3.85) rotate(5.56) scale(0.980)">
        <g transform="translate(2.04,4.00) rotate(5.69) scale(0.960)">
        <g transform="translate(3.98,3.80) rotate(3.76) scale(0.940)">
        <g transform="translate(4.94,3.25) rotate(-0.27) scale(0.920)">
        <g transform="translate(4.70,2.42) rotate(-6.27) scale(0.900)" mask="url(#maskCircleFade)">
        <g transform="translate(3.30,1.37) rotate(-13.97) scale(0.880)">
        <rect x="-28.4" y="-28.4" width="56.9" height="56.9" rx="14.2" fill="url(#rgrad1)" filter="url(#shadow)" opacity="0.69"/>
        <circle cx="0" cy="0" r="19.0" fill="url(#rgrad2)" opacity="0.48"/>
      </g>
      </g>
      </g>
      </g>
      </g>
      </g>
      </g>
  </g>
  <g transform="translate(523.6, 124.6)">
      <g transform="translate(2.04,3.65) rotate(3.55) scale(1.000)">
        <g transform="translate(3.98,3.00) rotate(5.56) scale(0.980)">
        <g transform="translate(4.94,2.09) rotate(5.69) scale(0.960)">
        <g transform="translate(4.70,0.99) rotate(3.76) scale(0.940)">
        <g transform="translate(3.30,-0.20) rotate(-0.27) scale(0.920)">
        <g transform="translate(1.09,-1.37) rotate(-6.27) scale(0.900)">
        <g transform="translate(-1.38,-2.42) rotate(-13.97) scale(0.880)">
        <path d="M23.9,13.8 L0.0,27.6 L-23.9,13.8 L-23.9,-13.8 L-0.0,-27.6 L23.9,-13.8Z" fill="url(#rgrad2)" filter="url(#blur2)" opacity="0.58"/>
        <ellipse cx="0" cy="0" rx="11.5" ry="7.7" fill="#FFFFFF" opacity="0.29"/>
      </g>
      </g>
      </g>
      </g>
      </g>
      </g>
      </g>
  </g>
  <g transform="translate(757.6, 121.7)">
      <g transform="translate(4.94,0.60) rotate(3.55) scale(1.000)">
        <g transform="translate(4.70,-0.60) rotate(5.56) scale(0.980)">
        <g transform="translate(3.30,-1.74) rotate(5.69) scale(0.960)">
        <g transform="translate(1.09,-2.73) rotate(3.76) scale(0.940)" clip-path="url(#clipRect)">
        <g transform="translate(-1.38,-3.47) rotate(-0.27) scale(0.920)">
        <g transform="translate(-3.52,-3.90) rotate(-6.27) scale(0.900)">
        <g transform="translate(-4.79,-3.99) rotate(-13.97) scale(0.880)">
        <circle cx="0" cy="0" r="24.0" fill="url(#lgrad3)" filter="url(#shadow)" opacity="0.46"/>
        <text x="0" y="5" text-anchor="middle" font-family="Arial, sans-serif" font-size="14" fill="#FFFFFF" opacity="0.46">749</text>
      </g>
      </g>
      </g>
      </g>
      </g>
      </g>
      </g>
  </g>
  <g transform="translate(992.3, 108.6)">
      <g transform="translate(3.30,-3.01) rotate(3.55) scale(1.000)">
        <g transform="translate(1.09,-3.65) rotate(5.56) scale(0.980)">
        <g transform="translate(-1.38,-3.97) rotate(5.69) scale(0.960)">
        <g transform="translate(-3.52,-3.94) rotate(3.76) scale(0.940)">
        <g transform="translate(-4.79,-3.55) rotate(-0.27) scale(0.920)">
        <g transform="translate(-4.89,-2.84) rotate(-6.27) scale(0.900)" mask="url(#maskGradient)">
        <g transform="translate(-3.80,-1.89) rotate(-13.97) scale(0.880)">
        <path d="M0.0,-61.0 L17.9,-24.7 L58.0,-18.9 L29.0,9.4 L35.9,49.4 L0.0,30.5 L-35.9,49.4 L-29.0,9.4 L-58.0,-18.9 L-17.9,-24.7Z" fill="url(#rgrad4)" filter="url(#blur4)" opacity="0.34"/>
      </g>
      </g>
      </g>
      </g>
      </g>
      </g>
      </g>
  </g>
  <g transform="translate(1223.9, 91.4)">
      <g transform="translate(-1.38,-3.84) rotate(3.55) scale(1.000)">
        <g transform="translate(-3.52,-3.35) rotate(5.56) scale(0.980)">
        <g transform="translate(-4.79,-2.55) rotate(5.69) scale(0.960)">
        <g transform="translate(-4.89,-1.52) rotate(3.76) scale(0.940)">
        <g transform="translate(-3.80,-0.36) rotate(-0.27) scale(0.920)">
        <g transform="translate(-1.77,0.83) rotate(-6.27) scale(0.900)">
        <g transform="translate(0.69,1.95) rotate(-13.97) scale(0.880)">
        <rect x="-36.6" y="-36.6" width="73.2" height="73.2" rx="18.3" fill="url(#rgrad0)" filter="url(#shadow)" opacity="0.24"/>
        <circle cx="0" cy="0" r="24.4" fill="url(#rgrad1)" opacity="0.17"/>
      </g>
      </g>
      </g>
      </g>
      </g>
      </g>
      </g>
  </g>
  <g transform="translate(1449.7, 78.3)">
      <g transform="translate(-4.79,-1.15) rotate(3.55) scale(1.000)">
        <g transform="translate(-4.89,0.04) rotate(5.56) scale(0.980)">
        <g transform="translate(-3.80,1.22) rotate(5.69) scale(0.960)">
        <g transform="translate(-1.77,2.29) rotate(3.76) scale(0.940)" clip-path="url(#clipStar)">
        <g transform="translate(0.69,3.16) rotate(-0.27) scale(0.920)">
        <g transform="translate(2.98,3.74) rotate(-6.27) scale(0.900)">
        <g transform="translate(4.54,3.99) rotate(-13.97) scale(0.880)">
        <path d="M38.0,22.0 L0.0,43.9 L-38.0,22.0 L-38.0,-22.0 L-0.0,-43.9 L38.0,-22.0Z" fill="url(#lgrad1)" filter="url(#blur1)" opacity="0.16"/>
        <ellipse cx="0" cy="0" rx="18.3" ry="12.2" fill="#FFFFFF" opacity="0.08"/>
      </g>
      </g>
      </g>
      </g>
      </g>
      </g>
      </g>
  </g>
  <g transform="translate(1668.2, 75.4)">
      <g transform="translate(-3.80,2.60) rotate(3.55) scale(1.000)">
        <g transform="translate(-1.77,3.39) rotate(5.56) scale(0.980)">
        <g transform="translate(0.69,3.86) rotate(5.69) scale(0.960)">
        <g transform="translate(2.98,4.00) rotate(3.76) scale(0.940)">
        <g transform="translate(4.54,3.77) rotate(-0.27) scale(0.920)">
        <g transform="translate(4.99,3.21) rotate(-6.27) scale(0.900)" mask="url(#maskDynamic)">
        <g transform="translate(4.22,2.37) rotate(-13.97) scale(0.880)">
        <circle cx="0" cy="0" r="30.5" fill="url(#rgrad2)" filter="url(#shadow)" opacity="0.11"/>
        <text x="0" y="5" text-anchor="middle" font-family="Arial, sans-serif" font-size="14" fill="#FFFFFF" opacity="0.11">749</text>
      </g>
      </g>
      </g>
      </g>
      </g>
      </g>
      </g>
  </g>
  <g transform="translate(119.8, 364.1)">
      <g transform="translate(0.69,3.96) rotate(3.55) scale(1.000)">
        <g transform="translate(2.98,3.62) rotate(5.56) scale(0.980)">
        <g transform="translate(4.54,2.96) rotate(5.69) scale(0.960)">
        <g transform="translate(4.99,2.03) rotate(3.76) scale(0.940)">
        <g transform="translate(4.22,0.92) rotate(-0.27) scale(0.920)">
        <g transform="translate(2.41,-0.27) rotate(-6.27) scale(0.900)">
        <g transform="translate(0.02,-1.44) rotate(-13.97) scale(0.880)">
        <path d="M0.0,-48.0 L14.1,-19.4 L45.6,-14.8 L22.8,7.4 L28.2,38.8 L0.0,24.0 L-28.2,38.8 L-22.8,7.4 L-45.6,-14.8 L-14.1,-19.4Z" fill="url(#rgrad3)" filter="url(#blur3)" opacity="0.10"/>
      </g>
      </g>
      </g>
      </g>
      </g>
      </g>
      </g>
  </g>
  <g transform="translate(326.6, 380.2)">
      <g transform="translate(4.54,1.68) rotate(3.55) scale(1.000)">
        <g transform="translate(4.99,0.53) rotate(5.56) scale(0.980)">
        <g transform="translate(4.22,-0.67) rotate(5.69) scale(0.960)">
        <g transform="translate(2.41,-1.80) rotate(3.76) scale(0.940)" clip-path="url(#clipDynamic)">
        <g transform="translate(0.02,-2.78) rotate(-0.27) scale(0.920)">
        <g transform="translate(-2.38,-3.50) rotate(-6.27) scale(0.900)">
        <g transform="translate(-4.20,-3.92) rotate(-13.97) scale(0.880)">
        <rect x="-23.0" y="-23.0" width="45.9" height="45.9" rx="11.5" fill="url(#lgrad4)" filter="url(#shadow)" opacity="0.12"/>
        <circle cx="0" cy="0" r="15.3" fill="url(#rgrad0)" opacity="0.09"/>
      </g>
      </g>
      </g>
      </g>
      </g>
      </g>
      </g>
  </g>
  <g transform="translate(531.7, 396.3)">
      <g transform="translate(4.22,-2.15) rotate(3.55) scale(1.000)">
        <g transform="translate(2.41,-3.05) rotate(5.56) scale(0.980)">
        <g transform="translate(0.02,-3.68) rotate(5.69) scale(0.960)">
        <g transform="translate(-2.38,-3.98) rotate(3.76) scale(0.940)">
        <g transform="translate(-4.20,-3.92) rotate(-0.27) scale(0.920)">
        <g transform="translate(-4.99,-3.52) rotate(-6.27) scale(0.900)" mask="url(#maskStripes)">
        <g transform="translate(-4.55,-2.80) rotate(-13.97) scale(0.880)">
        <path d="M29.5,17.0 L0.0,34.1 L-29.5,17.0 L-29.5,-17.0 L-0.0,-34.1 L29.5,-17.0Z" fill="url(#rgrad0)" filter="url(#blur0)" opacity="0.18"/>
        <ellipse cx="0" cy="0" rx="14.2" ry="9.5" fill="#FFFFFF" opacity="0.09"/>
      </g>
      </g>
      </g>
      </g>
      </g>
      </g>
      </g>
  </g>
  <g transform="translate(738.9, 404.7)">
      <g transform="translate(0.02,-4.00) rotate(3.55) scale(1.000)">
        <g transform="translate(-2.38,-3.83) rotate(5.56) scale(0.980)">
        <g transform="translate(-4.20,-3.31) rotate(5.69) scale(0.960)">
        <g transform="translate(-4.99,-2.50) rotate(3.76) scale(0.940)">
        <g transform="translate(-4.55,-1.46) rotate(-0.27) scale(0.920)">
        <g transform="translate(-3.01,-0.30) rotate(-6.27) scale(0.900)">
        <g transform="translate(-0.72,0.90) rotate(-13.97) scale(0.880)">
        <circle cx="0" cy="0" r="35.3" fill="url(#rgrad1)" filter="url(#shadow)" opacity="0.26"/>
        <text x="0" y="5" text-anchor="middle" font-family="Arial, sans-serif" font-size="14" fill="#FFFFFF" opacity="0.26">749</text>
      </g>
      </g>
      </g>
      </g>
      </g>
      </g>
      </g>
  </g>
  <g transform="translate(951.3, 401.5)">
      <g transform="translate(-4.20,-2.17) rotate(3.55) scale(1.000)">
        <g transform="translate(-4.99,-1.08) rotate(5.56) scale(0.980)">
        <g transform="translate(-4.55,0.10) rotate(5.69) scale(0.960)">
        <g transform="translate(-3.01,1.28) rotate(3.76) scale(0.940)" clip-path="url(#clipHex)">
        <g transform="translate(-0.72,2.34) rotate(-0.27) scale(0.920)">
        <g transform="translate(1.74,3.20) rotate(-6.27) scale(0.900)">
        <g transform="translate(3.77,3.76) rotate(-13.97) scale(0.880)">
        <path d="M0.0,-74.7 L21.9,-30.2 L71.0,-23.1 L35.5,11.5 L43.9,60.4 L0.0,37.3 L-43.9,60.4 L-35.5,11.5 L-71.0,-23.1 L-21.9,-30.2Z" fill="url(#lgrad2)" filter="url(#blur2)" opacity="0.37"/>
      </g>
      </g>
      </g>
      </g>
      </g>
      </g>
      </g>
  </g>
  <g transform="translate(1170.7, 388.2)">
      <g transform="translate(-4.55,1.65) rotate(3.55) scale(1.000)">
        <g transform="translate(-3.01,2.65) rotate(5.56) scale(0.980)">
        <g transform="translate(-0.72,3.42) rotate(5.69) scale(0.960)">
        <g transform="translate(1.74,3.88) rotate(3.76) scale(0.940)">
        <g transform="translate(3.77,3.99) rotate(-0.27) scale(0.920)">
        <g transform="translate(4.88,3.75) rotate(-6.27) scale(0.900)" mask="url(#maskCircleFade)">
        <g transform="translate(4.80,3.17) rotate(-13.97) scale(0.880)">
        <rect x="-32.6" y="-32.6" width="65.2" height="65.2" rx="16.3" fill="url(#rgrad3)" filter="url(#shadow)" opacity="0.49"/>
        <circle cx="0" cy="0" r="21.7" fill="url(#rgrad4)" opacity="0.34"/>
      </g>
      </g>
      </g>
      </g>
      </g>
      </g>
      </g>
  </g>
  <g transform="translate(1397.2, 371.0)">
      <g transform="translate(-0.72,3.96) rotate(3.55) scale(1.000)">
        <g transform="translate(1.74,3.95) rotate(5.56) scale(0.980)">
        <g transform="translate(3.77,3.59) rotate(5.69) scale(0.960)">
        <g transform="translate(4.88,2.91) rotate(3.76) scale(0.940)">
        <g transform="translate(4.80,1.97) rotate(-0.27) scale(0.920)">
        <g transform="translate(3.54,0.86) rotate(-6.27) scale(0.900)">
        <g transform="translate(1.41,-0.34) rotate(-13.97) scale(0.880)">
        <path d="M26.5,15.3 L0.0,30.6 L-26.5,15.3 L-26.5,-15.3 L-0.0,-30.6 L26.5,-15.3Z" fill="url(#rgrad4)" filter="url(#blur4)" opacity="0.61"/>
        <ellipse cx="0" cy="0" rx="12.7" ry="8.5" fill="#FFFFFF" opacity="0.30"/>
      </g>
      </g>
      </g>
      </g>
      </g>
      </g>
      </g>
  </g>
  <g transform="translate(1629.4, 358.1)">
      <g transform="translate(3.77,2.62) rotate(3.55) scale(1.000)">
        <g transform="translate(4.88,1.62) rotate(5.56) scale(0.980)">
        <g transform="translate(4.80,0.46) rotate(5.69) scale(0.960)">
        <g transform="translate(3.54,-0.73) rotate(3.76) scale(0.940)" clip-path="url(#clipCircle)">
        <g transform="translate(1.41,-1.86) rotate(-0.27) scale(0.920)">
        <g transform="translate(-1.06,-2.82) rotate(-6.27) scale(0.900)">
        <g transform="translate(-3.27,-3.54) rotate(-13.97) scale(0.880)">
        <circle cx="0" cy="0" r="22.5" fill="url(#lgrad0)" filter="url(#shadow)" opacity="0.72"/>
        <text x="0" y="5" text-anchor="middle" font-family="Arial, sans-serif" font-size="14" fill="#FFFFFF" opacity="0.72">749</text>
      </g>
      </g>
      </g>
      </g>
      </g>
      </g>
      </g>
  </g>
  <g transform="translate(104.1, 635.5)">
      <g transform="translate(4.80,-1.12) rotate(3.55) scale(1.000)">
        <g transform="translate(3.54,-2.21) rotate(5.56) scale(0.980)">
        <g transform="translate(1.41,-3.09) rotate(5.69) scale(0.960)">
        <g transform="translate(-1.06,-3.70) rotate(3.76) scale(0.940)">
        <g transform="translate(-3.27,-3.99) rotate(-0.27) scale(0.920)">
        <g transform="translate(-4.68,-3.91) rotate(-6.27) scale(0.900)" mask="url(#maskGradient)">
        <g transform="translate(-4.95,-3.48) rotate(-13.97) scale(0.880)">
        <path d="M0.0,-52.8 L15.5,-21.4 L50.3,-16.3 L25.1,8.2 L31.1,42.8 L0.0,26.4 L-31.1,42.8 L-25.1,8.2 L-50.3,-16.3 L-15.5,-21.4Z" fill="url(#rgrad1)" filter="url(#blur1)" opacity="0.81"/>
      </g>
      </g>
      </g>
      </g>
      </g>
      </g>
      </g>
  </g>
  <g transform="translate(337.9, 644.4)">
      <g transform="translate(1.41,-3.84) rotate(3.55) scale(1.000)">
        <g transform="translate(-1.06,-4.00) rotate(5.56) scale(0.980)">
        <g transform="translate(-3.27,-3.81) rotate(5.69) scale(0.960)">
        <g transform="translate(-4.68,-3.27) rotate(3.76) scale(0.940)">
        <g transform="translate(-4.95,-2.44) rotate(-0.27) scale(0.920)">
        <g transform="translate(-4.00,-1.40) rotate(-6.27) scale(0.900)">
        <g transform="translate(-2.08,-0.23) rotate(-13.97) scale(0.880)">
        <rect x="-33.6" y="-33.6" width="67.2" height="67.2" rx="16.8" fill="url(#rgrad2)" filter="url(#shadow)" opacity="0.87"/>
        <circle cx="0" cy="0" r="22.4" fill="url(#rgrad3)" opacity="0.61"/>
      </g>
      </g>
      </g>
      </g>
      </g>
      </g>
      </g>
  </g>
  <g transform="translate(567.2, 660.6)">
      <g transform="translate(-3.27,-3.02) rotate(3.55) scale(1.000)">
        <g transform="translate(-4.68,-2.12) rotate(5.56) scale(0.980)">
        <g transform="translate(-4.95,-1.02) rotate(5.69) scale(0.960)">
        <g transform="translate(-4.00,0.17) rotate(3.76) scale(0.940)" clip-path="url(#clipRect)">
        <g transform="translate(-2.08,1.34) rotate(-0.27) scale(0.920)">
        <g transform="translate(0.36,2.40) rotate(-6.27) scale(0.900)">
        <g transform="translate(2.71,3.24) rotate(-13.97) scale(0.880)">
        <path d="M39.0,22.5 L0.0,45.0 L-39.0,22.5 L-39.0,-22.5 L-0.0,-45.0 L39.0,-22.5Z" fill="url(#lgrad3)" filter="url(#blur3)" opacity="0.90"/>
        <ellipse cx="0" cy="0" rx="18.7" ry="12.5" fill="#FFFFFF" opacity="0.45"/>
      </g>
      </g>
      </g>
      </g>
      </g>
      </g>
      </g>
  </g>
  <g transform="translate(789.9, 676.6)">
      <g transform="translate(-4.95,0.57) rotate(3.55) scale(1.000)">
        <g transform="translate(-4.00,1.71) rotate(5.56) scale(0.980)">
        <g transform="translate(-2.08,2.70) rotate(5.69) scale(0.960)">
        <g transform="translate(0.36,3.45) rotate(3.76) scale(0.940)">
        <g transform="translate(2.71,3.90) rotate(-0.27) scale(0.920)">
        <g transform="translate(4.39,3.99) rotate(-6.27) scale(0.900)" mask="url(#maskDynamic)">
        <g transform="translate(5.00,3.73) rotate(-13.97) scale(0.880)">
        <circle cx="0" cy="0" r="34.5" fill="url(#rgrad4)" filter="url(#shadow)" opacity="0.89"/>
        <text x="0" y="5" text-anchor="middle" font-family="Arial, sans-serif" font-size="14" fill="#FFFFFF" opacity="0.89">749</text>
      </g>
      </g>
      </g>
      </g>
      </g>
      </g>
      </g>
  </g>
  <g transform="translate(1005.3, 684.7)">
      <g transform="translate(-2.08,3.64) rotate(3.55) scale(1.000)">
        <g transform="translate(0.36,3.97) rotate(5.56) scale(0.980)">
        <g transform="translate(2.71,3.94) rotate(5.69) scale(0.960)">
        <g transform="translate(4.39,3.56) rotate(3.76) scale(0.940)">
        <g transform="translate(5.00,2.87) rotate(-0.27) scale(0.920)">
        <g transform="translate(4.39,1.91) rotate(-6.27) scale(0.900)">
        <g transform="translate(2.70,0.79) rotate(-13.97) scale(0.880)">
        <path d="M0.0,-54.7 L16.1,-22.1 L52.0,-16.9 L26.0,8.5 L32.2,44.3 L0.0,27.4 L-32.2,44.3 L-26.0,8.5 L-52.0,-16.9 L-16.1,-22.1Z" fill="url(#rgrad0)" filter="url(#blur0)" opacity="0.85"/>
      </g>
      </g>
      </g>
      </g>
      </g>
      </g>
      </g>
  </g>
  <g transform="translate(1214.5, 681.2)">
      <g transform="translate(2.71,3.36) rotate(3.55) scale(1.000)">
        <g transform="translate(4.39,2.57) rotate(5.56) scale(0.980)">
        <g transform="translate(5.00,1.55) rotate(5.69) scale(0.960)">
        <g transform="translate(4.39,0.40) rotate(3.76) scale(0.940)" clip-path="url(#clipStar)">
        <g transform="translate(2.70,-0.80) rotate(-0.27) scale(0.920)">
        <g transform="translate(0.35,-1.92) rotate(-6.27) scale(0.900)">
        <g transform="translate(-2.09,-2.87) rotate(-13.97) scale(0.880)">
        <rect x="-22.7" y="-22.7" width="45.3" height="45.3" rx="11.3" fill="url(#lgrad1)" filter="url(#shadow)" opacity="0.78"/>
        <circle cx="0" cy="0" r="15.1" fill="url(#rgrad2)" opacity="0.55"/>
      </g>
      </g>
      </g>
      </g>
      </g>
      </g>
      </g>
  </g>
  <g transform="translate(1420.1, 667.8)">
      <g transform="translate(5.00,-0.00) rotate(3.55) scale(1.000)">
        <g transform="translate(4.39,-1.19) rotate(5.56) scale(0.980)">
        <g transform="translate(2.70,-2.26) rotate(5.69) scale(0.960)">
        <g transform="translate(0.35,-3.14) rotate(3.76) scale(0.940)">
        <g transform="translate(-2.09,-3.73) rotate(-0.27) scale(0.920)">
        <g transform="translate(-4.01,-3.99) rotate(-6.27) scale(0.900)" mask="url(#maskStripes)">
        <g transform="translate(-4.95,-3.89) rotate(-13.97) scale(0.880)">
        <path d="M25.7,14.8 L0.0,29.7 L-25.7,14.8 L-25.7,-14.8 L-0.0,-29.7 L25.7,-14.8Z" fill="url(#rgrad2)" filter="url(#blur2)" opacity="0.68"/>
        <ellipse cx="0" cy="0" rx="12.4" ry="8.2" fill="#FFFFFF" opacity="0.34"/>
      </g>
      </g>
      </g>
      </g>
      </g>
      </g>
      </g>
  </g>
  <g transform="translate(1625.7, 650.6)">
      <g transform="translate(2.70,-3.37) rotate(3.55) scale(1.000)">
        <g transform="translate(0.35,-3.86) rotate(5.56) scale(0.980)">
        <g transform="translate(-2.09,-4.00) rotate(5.69) scale(0.960)">
        <g transform="translate(-4.01,-3.78) rotate(3.76) scale(0.940)">
        <g transform="translate(-4.95,-3.23) rotate(-0.27) scale(0.920)">
        <g transform="translate(-4.68,-2.39) rotate(-6.27) scale(0.900)">
        <g transform="translate(-3.26,-1.34) rotate(-13.97) scale(0.880)">
        <circle cx="0" cy="0" r="31.6" fill="url(#rgrad3)" filter="url(#shadow)" opacity="0.57"/>
        <text x="0" y="5" text-anchor="middle" font-family="Arial, sans-serif" font-size="14" fill="#FFFFFF" opacity="0.57">749</text>
      </g>
      </g>
      </g>
      </g>
      </g>
      </g>
      </g>
  </g>
  <g transform="translate(74.8, 917.9)">
      <g transform="translate(-2.09,-3.64) rotate(3.55) scale(1.000)">
        <g transform="translate(-4.01,-2.98) rotate(5.56) scale(0.980)">
        <g transform="translate(-4.95,-2.06) rotate(5.69) scale(0.960)">
        <g transform="translate(-4.68,-0.95) rotate(3.76) scale(0.940)" clip-path="url(#clipDynamic)">
        <g transform="translate(-3.26,0.24) rotate(-0.27) scale(0.920)">
        <g transform="translate(-1.05,1.41) rotate(-6.27) scale(0.900)">
        <g transform="translate(1.42,2.45) rotate(-13.97) scale(0.880)">
        <path d="M0.0,-74.1 L21.8,-30.0 L70.5,-22.9 L35.2,11.4 L43.5,59.9 L0.0,37.0 L-43.5,59.9 L-35.2,11.4 L-70.5,-22.9 L-21.8,-30.0Z" fill="url(#lgrad4)" filter="url(#blur4)" opacity="0.45"/>
      </g>
      </g>
      </g>
      </g>
      </g>
      </g>
      </g>
  </g>
  <g transform="translate(200.0, 299.4)" mask="url(#maskGradient)">
    <ellipse cx="0" cy="0" rx="200" ry="150" fill="url(#rgrad0)" filter="url(#blur3)" opacity="0.3"/>
  </g>
  <g transform="translate(745.3, 351.1)" mask="url(#maskCircleFade)">
    <ellipse cx="0" cy="0" rx="200" ry="150" fill="url(#rgrad1)" filter="url(#blur3)" opacity="0.3"/>
  </g>
  <g transform="translate(1340.9, 378.7)" mask="url(#maskStripes)">
    <ellipse cx="0" cy="0" rx="200" ry="150" fill="url(#rgrad2)" filter="url(#blur3)" opacity="0.3"/>
  </g>
</svg>