<?xml version="1.0" encoding="UTF-8"?>
<svg xmlns="http://www.w3.org/2000/svg" viewBox="0 0 1920 1080" width="1920" height="1080">
  <defs>
    <filter id="blur0" x="-50%" y="-50%" width="200%" height="200%">
      <feGaussianBlur in="SourceGraphic" stdDeviation="1"/>
    </filter>
    <filter id="blur1" x="-50%" y="-50%" width="200%" height="200%">
      <feGaussianBlur in="SourceGraphic" stdDeviation="3"/>
    </filter>
    <filter id="blur2" x="-50%" y="-50%" width="200%" height="200%">
      <feGaussianBlur in="SourceGraphic" stdDeviation="5"/>
    </filter>
    <filter id="blur3" x="-50%" y="-50%" width="200%" height="200%">
      <feGaussianBlur in="SourceGraphic" stdDeviation="7"/>
    </filter>
    <filter id="blur4" x="-50%" y="-50%" width="200%" height="200%">
      <feGaussianBlur in="SourceGraphic" stdDeviation="9"/>
    </filter>
    <filter id="shadow" x="-50%" y="-50%" width="200%" height="200%">
      <feGaussianBlur in="SourceAlpha" stdDeviation="3" result="blur"/>
      <feOffset in="blur" dx="4" dy="4" result="offsetBlur"/>
      <feMerge>
        <feMergeNode in="offsetBlur"/>
        <feMergeNode in="SourceGraphic"/>
      </feMerge>
    </filter>
    <linearGradient id="lgrad0" x1="0%" y1="0%" x2="7.4%" y2="76.1%">
      <stop offset="0%" stop-color="#FF6B6B"/>
      <stop offset="33%" stop-color="#4ECDC4"/>
      <stop offset="66%" stop-color="#45B7D1"/>
      <stop offset="100%" stop-color="#96E6A1"/>
    </linearGradient>
    <linearGradient id="lgrad1" x1="0%" y1="0%" x2="0.0%" y2="51.3%">
      <stop offset="0%" stop-color="#FFE66D"/>
      <stop offset="33%" stop-color="#FF6B6B"/>
      <stop offset="66%" stop-color="#C44D58"/>
      <stop offset="100%" stop-color="#8B0000"/>
    </linearGradient>
    <linearGradient id="lgrad2" x1="0%" y1="0%" x2="6.1%" y2="26.1%">
      <stop offset="0%" stop-color="#4169E1"/>
      <stop offset="33%" stop-color="#7B68EE"/>
      <stop offset="66%" stop-color="#9370DB"/>
      <stop offset="100%" stop-color="#FFD700"/>
    </linearGradient>
    <linearGradient id="lgrad3" x1="0%" y1="0%" x2="23.9%" y2="7.4%">
      <stop offset="0%" stop-color="#32CD32"/>
      <stop offset="33%" stop-color="#228B22"/>
      <stop offset="66%" stop-color="#006400"/>
      <stop offset="100%" stop-color="#ADFF2F"/>
    </linearGradient>
    <linearGradient id="lgrad4" x1="0%" y1="0%" x2="48.7%" y2="0.0%">
      <stop offset="0%" stop-color="#FF1493"/>
      <stop offset="33%" stop-color="#FF69B4"/>
      <stop offset="66%" stop-color="#FFB6C1"/>
      <stop offset="100%" stop-color="#FFC0CB"/>
    </linearGradient>
    <radialGradient id="rgrad0" cx="52.1%" cy="31.4%" r="60%">
      <stop offset="0%" stop-color="#FF6B6B" stop-opacity="1"/>
      <stop offset="50%" stop-color="#4ECDC4" stop-opacity="0.8"/>
      <stop offset="100%" stop-color="#45B7D1" stop-opacity="0.6"/>
    </radialGradient>
    <radialGradient id="rgrad1" cx="62.1%" cy="39.4%" r="60%">
      <stop offset="0%" stop-color="#FFE66D" stop-opacity="1"/>
      <stop offset="50%" stop-color="#FF6B6B" stop-opacity="0.8"/>
      <stop offset="100%" stop-color="#C44D58" stop-opacity="0.6"/>
    </radialGradient>
    <radialGradient id="rgrad2" cx="32.1%" cy="47.4%" r="60%">
      <stop offset="0%" stop-color="#4169E1" stop-opacity="1"/>
      <stop offset="50%" stop-color="#7B68EE" stop-opacity="0.8"/>
      <stop offset="100%" stop-color="#9370DB" stop-opacity="0.6"/>
    </radialGradient>
    <radialGradient id="rgrad3" cx="42.1%" cy="55.4%" r="60%">
      <stop offset="0%" stop-color="#32CD32" stop-opacity="1"/>
      <stop offset="50%" stop-color="#228B22" stop-opacity="0.8"/>
      <stop offset="100%" stop-color="#006400" stop-opacity="0.6"/>
    </radialGradient>
    <radialGradient id="rgrad4" cx="52.1%" cy="63.4%" r="60%">
      <stop offset="0%" stop-color="#FF1493" stop-opacity="1"/>
      <stop offset="50%" stop-color="#FF69B4" stop-opacity="0.8"/>
      <stop offset="100%" stop-color="#FFB6C1" stop-opacity="0.6"/>
    </radialGradient>
    <clipPath id="clipCircle">
      <circle cx="0" cy="0" r="50"/>
    </clipPath>
    <clipPath id="clipStar">
      <path d="M0.0,-50.0 L14.7,-20.2 L47.6,-15.5 L23.8,7.7 L29.4,40.5 L0.0,25.0 L-29.4,40.5 L-23.8,7.7 L-47.6,-15.5 L-14.7,-20.2Z"/>
    </clipPath>
    <clipPath id="clipHex">
      <path d="M39.0,22.5 L0.0,45.0 L-39.0,22.5 L-39.0,-22.5 L-0.0,-45.0 L39.0,-22.5Z"/>
    </clipPath>
    <clipPath id="clipRect">
      <rect x="-40" y="-30" width="80" height="60" rx="10"/>
    </clipPath>
    <clipPath id="clipDynamic">
      <circle cx="0" cy="0" r="49.4"/>
    </clipPath>
    <mask id="maskGradient" maskContentUnits="objectBoundingBox">
      <rect x="0" y="0" width="1" height="1" fill="url(#maskGrad)"/>
    </mask>
    <linearGradient id="maskGrad" x1="0%" y1="0%" x2="100%" y2="100%">
      <stop offset="0%" stop-color="white"/>
      <stop offset="100%" stop-color="black"/>
    </linearGradient>
    <mask id="maskCircleFade">
      <circle cx="0" cy="0" r="60" fill="white"/>
      <circle cx="0" cy="0" r="30" fill="black"/>
    </mask>
    <mask id="maskStripes">
      <rect x="-50" y="-50" width="100" height="100" fill="white"/>
      <rect x="-50" y="-40" width="100" height="10" fill="black"/>
      <rect x="-50" y="-20" width="100" height="10" fill="black"/>
      <rect x="-50" y="0" width="100" height="10" fill="black"/>
      <rect x="-50" y="20" width="100" height="10" fill="black"/>
      <rect x="-50" y="40" width="100" height="10" fill="black"/>
    </mask>
    <mask id="maskDynamic">
      <rect x="-60" y="-60" width="120" height="120" fill="white" fill-opacity="0.72"/>
      <circle cx="0" cy="0" r="25" fill="white"/>
    </mask>
  </defs>
  <rect width="1920" height="1080" fill="url(#lgrad0)"/>
  <g transform="translate(128.9, 106.8)">
      <g transform="translate(4.81,1.09) rotate(3.02) scale(1.000)">
        <g transform="translate(4.87,-0.10) rotate(7.50) scale(0.980)">
        <g transform="translate(3.74,-1.28) rotate(13.00) scale(0.960)">
        <g transform="translate(1.70,-2.34) rotate(18.97) scale(0.940)" clip-path="url(#clipCircle)">
        <g transform="translate(-0.77,-3.19) rotate(24.81) scale(0.920)">
        <g transform="translate(-3.04,-3.76) rotate(29.91) scale(0.900)">
        <g transform="translate(-4.57,-4.00) rotate(33.67) scale(0.880)">
        <path d="M0.0,-69.1 L20.3,-27.9 L65.7,-21.3 L32.8,10.7 L40.6,55.9 L0.0,34.5 L-40.6,55.9 L-32.8,10.7 L-65.7,-21.3 L-20.3,-27.9Z" fill="url(#lgrad0)" filter="url(#blur0)" opacity="0.74"/>
      </g>
      </g>
      </g>
      </g>
      </g>
      </g>
      </g>
  </g>
  <g transform="translate(349.2, 89.7)">
      <g transform="translate(3.74,-2.65) rotate(3.02) scale(1.000)">
        <g transform="translate(1.70,-3.42) rotate(7.50) scale(0.980)">
        <g transform="translate(-0.77,-3.88) rotate(13.00) scale(0.960)">
        <g transform="translate(-3.04,-3.99) rotate(18.97) scale(0.940)">
        <g transform="translate(-4.57,-3.75) rotate(24.81) scale(0.920)">
        <g transform="translate(-4.98,-3.17) rotate(29.91) scale(0.900)" mask="url(#maskCircleFade)">
        <g transform="translate(-4.17,-2.31) rotate(33.67) scale(0.880)">
        <rect x="-37.5" y="-37.5" width="75.0" height="75.0" rx="18.7" fill="url(#rgrad1)" filter="url(#shadow)" opacity="0.82"/>
        <circle cx="0" cy="0" r="25.0" fill="url(#rgrad2)" opacity="0.58"/>
      </g>
      </g>
      </g>
      </g>
      </g>
      </g>
      </g>
  </g>
  <g transform="translate(562.5, 77.4)">
      <g transform="translate(-0.77,-3.95) rotate(3.02) scale(1.000)">
        <g transform="translate(-3.04,-3.59) rotate(7.50) scale(0.980)">
        <g transform="translate(-4.57,-2.92) rotate(13.00) scale(0.960)">
        <g transform="translate(-4.98,-1.98) rotate(18.97) scale(0.940)">
        <g transform="translate(-4.17,-0.86) rotate(24.81) scale(0.920)">
        <g transform="translate(-2.34,0.33) rotate(29.91) scale(0.900)">
        <g transform="translate(0.06,1.50) rotate(33.67) scale(0.880)">
        <path d="M34.9,20.1 L0.0,40.3 L-34.9,20.1 L-34.9,-20.1 L-0.0,-40.3 L34.9,-20.1Z" fill="url(#rgrad2)" filter="url(#blur2)" opacity="0.88"/>
        <ellipse cx="0" cy="0" rx="16.8" ry="11.2" fill="#FFFFFF" opacity="0.44"/>
      </g>
      </g>
      </g>
      </g>
      </g>
      </g>
      </g>
  </g>
  <g transform="translate(770.2, 75.8)">
      <g transform="translate(-4.57,-1.62) rotate(3.02) scale(1.000)">
        <g transform="translate(-4.98,-0.47) rotate(7.50) scale(0.980)">
        <g transform="translate(-4.17,0.73) rotate(13.00) scale(0.960)">
        <g transform="translate(-2.34,1.86) rotate(18.97) scale(0.940)" clip-path="url(#clipRect)">
        <g transform="translate(0.06,2.82) rotate(24.81) scale(0.920)">
        <g transform="translate(2.45,3.53) rotate(29.91) scale(0.900)">
        <g transform="translate(4.24,3.93) rotate(33.67) scale(0.880)">
        <circle cx="0" cy="0" r="26.4" fill="url(#lgrad3)" filter="url(#shadow)" opacity="0.90"/>
        <text x="0" y="5" text-anchor="middle" font-family="Arial, sans-serif" font-size="14" fill="#FFFFFF" opacity="0.90">207</text>
      </g>
      </g>
      </g>
      </g>
      </g>
      </g>
      </g>
  </g>
  <g transform="translate(975.4, 85.5)">
      <g transform="translate(-4.17,2.20) rotate(3.02) scale(1.000)">
        <g transform="translate(-2.34,3.09) rotate(7.50) scale(0.980)">
        <g transform="translate(0.06,3.70) rotate(13.00) scale(0.960)">
        <g transform="translate(2.45,3.98) rotate(18.97) scale(0.940)">
        <g transform="translate(4.24,3.91) rotate(24.81) scale(0.920)">
        <g transform="translate(4.99,3.49) rotate(29.91) scale(0.900)" mask="url(#maskGradient)">
        <g transform="translate(4.52,2.75) rotate(33.67) scale(0.880)">
        <path d="M0.0,-45.0 L13.2,-18.2 L42.8,-13.9 L21.4,7.0 L26.5,36.4 L0.0,22.5 L-26.5,36.4 L-21.4,7.0 L-42.8,-13.9 L-13.2,-18.2Z" fill="url(#rgrad4)" filter="url(#blur4)" opacity="0.88"/>
      </g>
      </g>
      </g>
      </g>
      </g>
      </g>
      </g>
  </g>
  <g transform="translate(1181.7, 102.1)">
      <g transform="translate(0.06,4.00) rotate(3.02) scale(1.000)">
        <g transform="translate(2.45,3.81) rotate(7.50) scale(0.980)">
        <g transform="translate(4.24,3.27) rotate(13.00) scale(0.960)">
        <g transform="translate(4.99,2.45) rotate(18.97) scale(0.940)">
        <g transform="translate(4.52,1.40) rotate(24.81) scale(0.920)">
        <g transform="translate(2.94,0.23) rotate(29.91) scale(0.900)">
        <g transform="translate(0.64,-0.96) rotate(33.67) scale(0.880)">
        <rect x="-25.5" y="-25.5" width="51.1" height="51.1" rx="12.8" fill="url(#rgrad0)" filter="url(#shadow)" opacity="0.84"/>
        <circle cx="0" cy="0" r="17.0" fill="url(#rgrad1)" opacity="0.58"/>
      </g>
      </g>
      </g>
      </g>
      </g>
      </g>
      </g>
  </g>
  <g transform="translate(1392.6, 117.6)">
      <g transform="translate(4.24,2.12) rotate(3.02) scale(1.000)">
        <g transform="translate(4.99,1.02) rotate(7.50) scale(0.980)">
        <g transform="translate(4.52,-0.17) rotate(13.00) scale(0.960)">
        <g transform="translate(2.94,-1.34) rotate(18.97) scale(0.940)" clip-path="url(#clipStar)">
        <g transform="translate(0.64,-2.39) rotate(24.81) scale(0.920)">
        <g transform="translate(-1.81,-3.23) rotate(29.91) scale(0.900)">
        <g transform="translate(-3.82,-3.79) rotate(33.67) scale(0.880)">
        <path d="M34.0,19.6 L0.0,39.2 L-34.0,19.6 L-34.0,-19.6 L-0.0,-39.2 L34.0,-19.6Z" fill="url(#lgrad1)" filter="url(#blur1)" opacity="0.76"/>
        <ellipse cx="0" cy="0" rx="16.3" ry="10.9" fill="#FFFFFF" opacity="0.38"/>
      </g>
      </g>
      </g>
      </g>
      </g>
      </g>
      </g>
  </g>
  <g transform="translate(1610.1, 124.9)">
      <g transform="translate(4.52,-1.71) rotate(3.02) scale(1.000)">
        <g transform="translate(2.94,-2.70) rotate(7.50) scale(0.980)">
        <g transform="translate(0.64,-3.45) rotate(13.00) scale(0.960)">
        <g transform="translate(-1.81,-3.90) rotate(18.97) scale(0.940)">
        <g transform="translate(-3.82,-3.99) rotate(24.81) scale(0.920)">
        <g transform="translate(-4.90,-3.73) rotate(29.91) scale(0.900)" mask="url(#maskDynamic)">
        <g transform="translate(-4.78,-3.13) rotate(33.67) scale(0.880)">
        <circle cx="0" cy="0" r="37.3" fill="url(#rgrad2)" filter="url(#shadow)" opacity="0.65"/>
        <text x="0" y="5" text-anchor="middle" font-family="Arial, sans-serif" font-size="14" fill="#FFFFFF" opacity="0.65">207</text>
      </g>
      </g>
      </g>
      </g>
      </g>
      </g>
      </g>
  </g>
  <g transform="translate(75.0, 400.5)">
      <g transform="translate(0.64,-3.97) rotate(3.02) scale(1.000)">
        <g transform="translate(-1.81,-3.94) rotate(7.50) scale(0.980)">
        <g transform="translate(-3.82,-3.56) rotate(13.00) scale(0.960)">
        <g transform="translate(-4.90,-2.87) rotate(18.97) scale(0.940)">
        <g transform="translate(-4.78,-1.92) rotate(24.81) scale(0.920)">
        <g transform="translate(-3.48,-0.79) rotate(29.91) scale(0.900)">
        <g transform="translate(-1.34,0.40) rotate(33.67) scale(0.880)">
        <path d="M0.0,-70.5 L20.7,-28.5 L67.1,-21.8 L33.5,10.9 L41.4,57.0 L0.0,35.3 L-41.4,57.0 L-33.5,10.9 L-67.1,-21.8 L-20.7,-28.5Z" fill="url(#rgrad3)" filter="url(#blur3)" opacity="0.54"/>
      </g>
      </g>
      </g>
      </g>
      </g>
      </g>
      </g>
  </g>
  <g transform="translate(305.9, 386.4)">
      <g transform="translate(-3.82,-2.58) rotate(3.02) scale(1.000)">
        <g transform="translate(-4.90,-1.56) rotate(7.50) scale(0.980)">
        <g transform="translate(-4.78,-0.40) rotate(13.00) scale(0.960)">
        <g transform="translate(-3.48,0.79) rotate(18.97) scale(0.940)" clip-path="url(#clipDynamic)">
        <g transform="translate(-1.34,1.92) rotate(24.81) scale(0.920)">
        <g transform="translate(1.14,2.87) rotate(29.91) scale(0.900)">
        <g transform="translate(3.33,3.56) rotate(33.67) scale(0.880)">
        <rect x="-28.3" y="-28.3" width="56.7" height="56.7" rx="14.2" fill="url(#lgrad4)" filter="url(#shadow)" opacity="0.42"/>
        <circle cx="0" cy="0" r="18.9" fill="url(#rgrad0)" opacity="0.29"/>
      </g>
      </g>
      </g>
      </g>
      </g>
      </g>
      </g>
  </g>
  <g transform="translate(540.4, 369.3)">
      <g transform="translate(-4.78,1.18) rotate(3.02) scale(1.000)">
        <g transform="translate(-3.48,2.26) rotate(7.50) scale(0.980)">
        <g transform="translate(-1.34,3.13) rotate(13.00) scale(0.960)">
        <g transform="translate(1.14,3.73) rotate(18.97) scale(0.940)">
        <g transform="translate(3.33,3.99) rotate(24.81) scale(0.920)">
        <g transform="translate(4.71,3.90) rotate(29.91) scale(0.900)" mask="url(#maskStripes)">
        <g transform="translate(4.94,3.45) rotate(33.67) scale(0.880)">
        <path d="M23.8,13.8 L0.0,27.5 L-23.8,13.8 L-23.8,-13.8 L-0.0,-27.5 L23.8,-13.8Z" fill="url(#rgrad0)" filter="url(#blur0)" opacity="0.31"/>
        <ellipse cx="0" cy="0" rx="11.5" ry="7.6" fill="#FFFFFF" opacity="0.15"/>
      </g>
      </g>
      </g>
      </g>
      </g>
      </g>
      </g>
  </g>
  <g transform="translate(774.7, 357.3)">
      <g transform="translate(-1.34,3.85) rotate(3.02) scale(1.000)">
        <g transform="translate(1.14,4.00) rotate(7.50) scale(0.980)">
        <g transform="translate(3.33,3.79) rotate(13.00) scale(0.960)">
        <g transform="translate(4.71,3.23) rotate(18.97) scale(0.940)">
        <g transform="translate(4.94,2.39) rotate(24.81) scale(0.920)">
        <g transform="translate(3.95,1.34) rotate(29.91) scale(0.900)">
        <g transform="translate(2.00,0.17) rotate(33.67) scale(0.880)">
        <circle cx="0" cy="0" r="24.0" fill="url(#rgrad1)" filter="url(#shadow)" opacity="0.21"/>
        <text x="0" y="5" text-anchor="middle" font-family="Arial, sans-serif" font-size="14" fill="#FFFFFF" opacity="0.21">207</text>
      </g>
      </g>
      </g>
      </g>
      </g>
      </g>
      </g>
  </g>
  <g transform="translate(1005.4, 355.9)">
      <g transform="translate(3.33,2.98) rotate(3.02) scale(1.000)">
        <g transform="translate(4.71,2.06) rotate(7.50) scale(0.980)">
        <g transform="translate(4.94,0.96) rotate(13.00) scale(0.960)">
        <g transform="translate(3.95,-0.23) rotate(18.97) scale(0.940)" clip-path="url(#clipHex)">
        <g transform="translate(2.00,-1.40) rotate(24.81) scale(0.920)">
        <g transform="translate(-0.44,-2.45) rotate(29.91) scale(0.900)">
        <g transform="translate(-2.77,-3.27) rotate(33.67) scale(0.880)">
        <path d="M0.0,-61.2 L18.0,-24.8 L58.2,-18.9 L29.1,9.5 L36.0,49.5 L0.0,30.6 L-36.0,49.5 L-29.1,9.5 L-58.2,-18.9 L-18.0,-24.8Z" fill="url(#lgrad2)" filter="url(#blur2)" opacity="0.14"/>
      </g>
      </g>
      </g>
      </g>
      </g>
      </g>
      </g>
  </g>
  <g transform="translate(1229.9, 365.9)">
      <g transform="translate(4.94,-0.63) rotate(3.02) scale(1.000)">
        <g transform="translate(3.95,-1.77) rotate(7.50) scale(0.980)">
        <g transform="translate(2.00,-2.75) rotate(13.00) scale(0.960)">
        <g transform="translate(-0.44,-3.49) rotate(18.97) scale(0.940)">
        <g transform="translate(-2.77,-3.91) rotate(24.81) scale(0.920)">
        <g transform="translate(-4.43,-3.98) rotate(29.91) scale(0.900)" mask="url(#maskCircleFade)">
        <g transform="translate(-5.00,-3.70) rotate(33.67) scale(0.880)">
        <rect x="-36.6" y="-36.6" width="73.2" height="73.2" rx="18.3" fill="url(#rgrad3)" filter="url(#shadow)" opacity="0.11"/>
        <circle cx="0" cy="0" r="24.4" fill="url(#rgrad4)" opacity="0.07"/>
      </g>
      </g>
      </g>
      </g>
      </g>
      </g>
      </g>
  </g>
  <g transform="translate(1447.1, 382.5)">
      <g transform="translate(2.00,-3.66) rotate(3.02) scale(1.000)">
        <g transform="translate(-0.44,-3.97) rotate(7.50) scale(0.980)">
        <g transform="translate(-2.77,-3.93) rotate(13.00) scale(0.960)">
        <g transform="translate(-4.43,-3.53) rotate(18.97) scale(0.940)">
        <g transform="translate(-5.00,-2.82) rotate(24.81) scale(0.920)">
        <g transform="translate(-4.35,-1.86) rotate(29.91) scale(0.900)">
        <g transform="translate(-2.63,-0.73) rotate(33.67) scale(0.880)">
        <path d="M38.0,21.9 L0.0,43.9 L-38.0,21.9 L-38.0,-21.9 L-0.0,-43.9 L38.0,-21.9Z" fill="url(#rgrad4)" filter="url(#blur4)" opacity="0.10"/>
        <ellipse cx="0" cy="0" rx="18.3" ry="12.2" fill="#FFFFFF" opacity="0.05"/>
      </g>
      </g>
      </g>
      </g>
      </g>
      </g>
      </g>
  </g>
  <g transform="translate(1657.7, 397.9)">
      <g transform="translate(-2.77,-3.33) rotate(3.02) scale(1.000)">
        <g transform="translate(-4.43,-2.52) rotate(7.50) scale(0.980)">
        <g transform="translate(-5.00,-1.50) rotate(13.00) scale(0.960)">
        <g transform="translate(-4.35,-0.33) rotate(18.97) scale(0.940)" clip-path="url(#clipCircle)">
        <g transform="translate(-2.63,0.86) rotate(24.81) scale(0.920)">
        <g transform="translate(-0.27,1.98) rotate(29.91) scale(0.900)">
        <g transform="translate(2.16,2.92) rotate(33.67) scale(0.880)">
        <circle cx="0" cy="0" r="30.5" fill="url(#lgrad0)" filter="url(#shadow)" opacity="0.14"/>
        <text x="0" y="5" text-anchor="middle" font-family="Arial, sans-serif" font-size="14" fill="#FFFFFF" opacity="0.14">207</text>
      </g>
      </g>
      </g>
      </g>
      </g>
      </g>
      </g>
  </g>
  <g transform="translate(103.9, 684.9)">
      <g transform="translate(-5.00,0.07) rotate(3.02) scale(1.000)">
        <g transform="translate(-4.35,1.25) rotate(7.50) scale(0.980)">
        <g transform="translate(-2.63,2.31) rotate(13.00) scale(0.960)">
        <g transform="translate(-0.27,3.17) rotate(18.97) scale(0.940)">
        <g transform="translate(2.16,3.75) rotate(24.81) scale(0.920)">
        <g transform="translate(4.06,3.99) rotate(29.91) scale(0.900)" mask="url(#maskGradient)">
        <g transform="translate(4.96,3.88) rotate(33.67) scale(0.880)">
        <path d="M0.0,-47.9 L14.1,-19.4 L45.5,-14.8 L22.8,7.4 L28.1,38.7 L0.0,23.9 L-28.1,38.7 L-22.8,7.4 L-45.5,-14.8 L-14.1,-19.4Z" fill="url(#rgrad1)" filter="url(#blur1)" opacity="0.20"/>
      </g>
      </g>
      </g>
      </g>
      </g>
      </g>
      </g>
  </g>
  <g transform="translate(309.1, 680.2)">
      <g transform="translate(-2.63,3.40) rotate(3.02) scale(1.000)">
        <g transform="translate(-0.27,3.87) rotate(7.50) scale(0.980)">
        <g transform="translate(2.16,4.00) rotate(13.00) scale(0.960)">
        <g transform="translate(4.06,3.76) rotate(18.97) scale(0.940)">
        <g transform="translate(4.96,3.19) rotate(24.81) scale(0.920)">
        <g transform="translate(4.65,2.34) rotate(29.91) scale(0.900)">
        <g transform="translate(3.20,1.28) rotate(33.67) scale(0.880)">
        <rect x="-23.0" y="-23.0" width="46.0" height="46.0" rx="11.5" fill="url(#rgrad2)" filter="url(#shadow)" opacity="0.30"/>
        <circle cx="0" cy="0" r="15.3" fill="url(#rgrad3)" opacity="0.21"/>
      </g>
      </g>
      </g>
      </g>
      </g>
      </g>
      </g>
  </g>
  <g transform="translate(517.1, 666.0)">
      <g transform="translate(2.16,3.61) rotate(3.02) scale(1.000)">
        <g transform="translate(4.06,2.94) rotate(7.50) scale(0.980)">
        <g transform="translate(4.96,2.00) rotate(13.00) scale(0.960)">
        <g transform="translate(4.65,0.89) rotate(18.97) scale(0.940)" clip-path="url(#clipRect)">
        <g transform="translate(3.20,-0.30) rotate(24.81) scale(0.920)">
        <g transform="translate(0.97,-1.47) rotate(29.91) scale(0.900)">
        <g transform="translate(-1.50,-2.50) rotate(33.67) scale(0.880)">
        <path d="M29.6,17.1 L0.0,34.2 L-29.6,17.1 L-29.6,-17.1 L-0.0,-34.2 L29.6,-17.1Z" fill="url(#lgrad3)" filter="url(#blur3)" opacity="0.41"/>
        <ellipse cx="0" cy="0" rx="14.2" ry="9.5" fill="#FFFFFF" opacity="0.20"/>
      </g>
      </g>
      </g>
      </g>
      </g>
      </g>
      </g>
  </g>
  <g transform="translate(730.6, 648.9)">
      <g transform="translate(4.96,0.50) rotate(3.02) scale(1.000)">
        <g transform="translate(4.65,-0.70) rotate(7.50) scale(0.980)">
        <g transform="translate(3.20,-1.83) rotate(13.00) scale(0.960)">
        <g transform="translate(0.97,-2.80) rotate(18.97) scale(0.940)">
        <g transform="translate(-1.50,-3.52) rotate(24.81) scale(0.920)">
        <g transform="translate(-3.60,-3.92) rotate(29.91) scale(0.900)" mask="url(#maskDynamic)">
        <g transform="translate(-4.82,-3.98) rotate(33.67) scale(0.880)">
        <circle cx="0" cy="0" r="35.4" fill="url(#rgrad4)" filter="url(#shadow)" opacity="0.53"/>
        <text x="0" y="5" text-anchor="middle" font-family="Arial, sans-serif" font-size="14" fill="#FFFFFF" opacity="0.53">207</text>
      </g>
      </g>
      </g>
      </g>
      </g>
      </g>
      </g>
  </g>
  <g transform="translate(951.3, 637.1)">
      <g transform="translate(3.20,-3.07) rotate(3.02) scale(1.000)">
        <g transform="translate(0.97,-3.69) rotate(7.50) scale(0.980)">
        <g transform="translate(-1.50,-3.98) rotate(13.00) scale(0.960)">
        <g transform="translate(-3.60,-3.92) rotate(18.97) scale(0.940)">
        <g transform="translate(-4.82,-3.50) rotate(24.81) scale(0.920)">
        <g transform="translate(-4.86,-2.77) rotate(29.91) scale(0.900)">
        <g transform="translate(-3.71,-1.80) rotate(33.67) scale(0.880)">
        <path d="M0.0,-74.6 L21.9,-30.2 L71.0,-23.1 L35.5,11.5 L43.9,60.4 L0.0,37.3 L-43.9,60.4 L-35.5,11.5 L-71.0,-23.1 L-21.9,-30.2Z" fill="url(#rgrad0)" filter="url(#blur0)" opacity="0.64"/>
      </g>
      </g>
      </g>
      </g>
      </g>
      </g>
      </g>
  </g>
  <g transform="translate(1179.1, 636.0)">
      <g transform="translate(-1.50,-3.82) rotate(3.02) scale(1.000)">
        <g transform="translate(-3.60,-3.29) rotate(7.50) scale(0.980)">
        <g transform="translate(-4.82,-2.47) rotate(13.00) scale(0.960)">
        <g transform="translate(-4.86,-1.43) rotate(18.97) scale(0.940)" clip-path="url(#clipStar)">
        <g transform="translate(-3.71,-0.27) rotate(24.81) scale(0.920)">
        <g transform="translate(-1.65,0.93) rotate(29.91) scale(0.900)">
        <g transform="translate(0.81,2.03) rotate(33.67) scale(0.880)">
        <rect x="-32.5" y="-32.5" width="65.0" height="65.0" rx="16.3" fill="url(#lgrad1)" filter="url(#shadow)" opacity="0.75"/>
        <circle cx="0" cy="0" r="21.7" fill="url(#rgrad2)" opacity="0.52"/>
      </g>
      </g>
      </g>
      </g>
      </g>
      </g>
      </g>
  </g>
  <g transform="translate(1412.0, 646.2)">
      <g transform="translate(-4.82,-1.05) rotate(3.02) scale(1.000)">
        <g transform="translate(-4.86,0.13) rotate(7.50) scale(0.980)">
        <g transform="translate(-3.71,1.31) rotate(13.00) scale(0.960)">
        <g transform="translate(-1.65,2.37) rotate(18.97) scale(0.940)">
        <g transform="translate(0.81,3.22) rotate(24.81) scale(0.920)">
        <g transform="translate(3.08,3.77) rotate(29.91) scale(0.900)" mask="url(#maskStripes)">
        <g transform="translate(4.59,4.00) rotate(33.67) scale(0.880)">
        <path d="M26.4,15.3 L0.0,30.5 L-26.4,15.3 L-26.4,-15.3 L-0.0,-30.5 L26.4,-15.3Z" fill="url(#rgrad2)" filter="url(#blur2)" opacity="0.83"/>
        <ellipse cx="0" cy="0" rx="12.7" ry="8.5" fill="#FFFFFF" opacity="0.41"/>
      </g>
      </g>
      </g>
      </g>
      </g>
      </g>
      </g>
  </g>
  <g transform="translate(1646.8, 662.9)">
      <g transform="translate(-3.71,2.68) rotate(3.02) scale(1.000)">
        <g transform="translate(-1.65,3.44) rotate(7.50) scale(0.980)">
        <g transform="translate(0.81,3.89) rotate(13.00) scale(0.960)">
        <g transform="translate(3.08,3.99) rotate(18.97) scale(0.940)">
        <g transform="translate(4.59,3.74) rotate(24.81) scale(0.920)">
        <g transform="translate(4.98,3.15) rotate(29.91) scale(0.900)">
        <g transform="translate(4.15,2.28) rotate(33.67) scale(0.880)">
        <circle cx="0" cy="0" r="22.5" fill="url(#rgrad3)" filter="url(#shadow)" opacity="0.88"/>
        <text x="0" y="5" text-anchor="middle" font-family="Arial, sans-serif" font-size="14" fill="#FFFFFF" opacity="0.88">207</text>
      </g>
      </g>
      </g>
      </g>
      </g>
      </g>
      </g>
  </g>
  <g transform="translate(120.0, 958.2)">
      <g transform="translate(0.81,3.95) rotate(3.02) scale(1.000)">
        <g transform="translate(3.08,3.58) rotate(7.50) scale(0.980)">
        <g transform="translate(4.59,2.89) rotate(13.00) scale(0.960)">
        <g transform="translate(4.98,1.95) rotate(18.97) scale(0.940)" clip-path="url(#clipDynamic)">
        <g transform="translate(4.15,0.83) rotate(24.81) scale(0.920)">
        <g transform="translate(2.30,-0.37) rotate(29.91) scale(0.900)">
        <g transform="translate(-0.11,-1.53) rotate(33.67) scale(0.880)">
        <path d="M0.0,-53.0 L15.6,-21.4 L50.4,-16.4 L25.2,8.2 L31.2,42.9 L0.0,26.5 L-31.2,42.9 L-25.2,8.2 L-50.4,-16.4 L-15.6,-21.4Z" fill="url(#lgrad4)" filter="url(#blur4)" opacity="0.90"/>
      </g>
      </g>
      </g>
      </g>
      </g>
      </g>
      </g>
  </g>
  <g transform="translate(396.2, 321.7)" mask="url(#maskGradient)">
    <ellipse cx="0" cy="0" rx="200" ry="150" fill="url(#rgrad0)" filter="url(#blur3)" opacity="0.3"/>
  </g>
  <g transform="translate(874.9, 267.0)" mask="url(#maskCircleFade)">
    <ellipse cx="0" cy="0" rx="200" ry="150" fill="url(#rgrad1)" filter="url(#blur3)" opacity="0.3"/>
  </g>
  <g transform="translate(1284.7, 227.8)" mask="url(#maskStripes)">
    <ellipse cx="0" cy="0" rx="200" ry="150" fill="url(#rgrad2)" filter="url(#blur3)" opacity="0.3"/>
  </g>
</svg>