<?xml version="1.0" encoding="UTF-8"?>
<svg xmlns="http://www.w3.org/2000/svg" viewBox="0 0 1920 1080" width="1920" height="1080">
  <defs>
    <filter id="blur0" x="-50%" y="-50%" width="200%" height="200%">
      <feGaussianBlur in="SourceGraphic" stdDeviation="1"/>
    </filter>
    <filter id="blur1" x="-50%" y="-50%" width="200%" height="200%">
      <feGaussianBlur in="SourceGraphic" stdDeviation="3"/>
    </filter>
    <filter id="blur2" x="-50%" y="-50%" width="200%" height="200%">
      <feGaussianBlur in="SourceGraphic" stdDeviation="5"/>
    </filter>
    <filter id="blur3" x="-50%" y="-50%" width="200%" height="200%">
      <feGaussianBlur in="SourceGraphic" stdDeviation="7"/>
    </filter>
    <filter id="blur4" x="-50%" y="-50%" width="200%" height="200%">
      <feGaussianBlur in="SourceGraphic" stdDeviation="9"/>
    </filter>
    <filter id="shadow" x="-50%" y="-50%" width="200%" height="200%">
      <feGaussianBlur in="SourceAlpha" stdDeviation="3" result="blur"/>
      <feOffset in="blur" dx="4" dy="4" result="offsetBlur"/>
      <feMerge>
        <feMergeNode in="offsetBlur"/>
        <feMergeNode in="SourceGraphic"/>
      </feMerge>
    </filter>
    <linearGradient id="lgrad0" x1="0%" y1="0%" x2="83.5%" y2="87.2%">
      <stop offset="0%" stop-color="#FF6B6B"/>
      <stop offset="33%" stop-color="#4ECDC4"/>
      <stop offset="66%" stop-color="#45B7D1"/>
      <stop offset="100%" stop-color="#96E6A1"/>
    </linearGradient>
    <linearGradient id="lgrad1" x1="0%" y1="0%" x2="60.4%" y2="98.9%">
      <stop offset="0%" stop-color="#FFE66D"/>
      <stop offset="33%" stop-color="#FF6B6B"/>
      <stop offset="66%" stop-color="#C44D58"/>
      <stop offset="100%" stop-color="#8B0000"/>
    </linearGradient>
    <linearGradient id="lgrad2" x1="0%" y1="0%" x2="34.5%" y2="97.6%">
      <stop offset="0%" stop-color="#4169E1"/>
      <stop offset="33%" stop-color="#7B68EE"/>
      <stop offset="66%" stop-color="#9370DB"/>
      <stop offset="100%" stop-color="#FFD700"/>
    </linearGradient>
    <linearGradient id="lgrad3" x1="0%" y1="0%" x2="12.8%" y2="83.5%">
      <stop offset="0%" stop-color="#32CD32"/>
      <stop offset="33%" stop-color="#228B22"/>
      <stop offset="66%" stop-color="#006400"/>
      <stop offset="100%" stop-color="#ADFF2F"/>
    </linearGradient>
    <linearGradient id="lgrad4" x1="0%" y1="0%" x2="1.1%" y2="60.4%">
      <stop offset="0%" stop-color="#FF1493"/>
      <stop offset="33%" stop-color="#FF69B4"/>
      <stop offset="66%" stop-color="#FFB6C1"/>
      <stop offset="100%" stop-color="#FFC0CB"/>
    </linearGradient>
    <radialGradient id="rgrad0" cx="31.8%" cy="31.2%" r="60%">
      <stop offset="0%" stop-color="#FF6B6B" stop-opacity="1"/>
      <stop offset="50%" stop-color="#4ECDC4" stop-opacity="0.8"/>
      <stop offset="100%" stop-color="#45B7D1" stop-opacity="0.6"/>
    </radialGradient>
    <radialGradient id="rgrad1" cx="41.8%" cy="39.2%" r="60%">
      <stop offset="0%" stop-color="#FFE66D" stop-opacity="1"/>
      <stop offset="50%" stop-color="#FF6B6B" stop-opacity="0.8"/>
      <stop offset="100%" stop-color="#C44D58" stop-opacity="0.6"/>
    </radialGradient>
    <radialGradient id="rgrad2" cx="51.8%" cy="47.2%" r="60%">
      <stop offset="0%" stop-color="#4169E1" stop-opacity="1"/>
      <stop offset="50%" stop-color="#7B68EE" stop-opacity="0.8"/>
      <stop offset="100%" stop-color="#9370DB" stop-opacity="0.6"/>
    </radialGradient>
    <radialGradient id="rgrad3" cx="61.8%" cy="55.2%" r="60%">
      <stop offset="0%" stop-color="#32CD32" stop-opacity="1"/>
      <stop offset="50%" stop-color="#228B22" stop-opacity="0.8"/>
      <stop offset="100%" stop-color="#006400" stop-opacity="0.6"/>
    </radialGradient>
    <radialGradient id="rgrad4" cx="31.8%" cy="63.2%" r="60%">
      <stop offset="0%" stop-color="#FF1493" stop-opacity="1"/>
      <stop offset="50%" stop-color="#FF69B4" stop-opacity="0.8"/>
      <stop offset="100%" stop-color="#FFB6C1" stop-opacity="0.6"/>
    </radialGradient>
    <clipPath id="clipCircle">
      <circle cx="0" cy="0" r="50"/>
    </clipPath>
    <clipPath id="clipStar">
      <path d="M0.0,-50.0 L14.7,-20.2 L47.6,-15.5 L23.8,7.7 L29.4,40.5 L0.0,25.0 L-29.4,40.5 L-23.8,7.7 L-47.6,-15.5 L-14.7,-20.2Z"/>
    </clipPath>
    <clipPath id="clipHex">
      <path d="M39.0,22.5 L0.0,45.0 L-39.0,22.5 L-39.0,-22.5 L-0.0,-45.0 L39.0,-22.5Z"/>
    </clipPath>
    <clipPath id="clipRect">
      <rect x="-40" y="-30" width="80" height="60" rx="10"/>
    </clipPath>
    <clipPath id="clipDynamic">
      <circle cx="0" cy="0" r="35.5"/>
    </clipPath>
    <mask id="maskGradient" maskContentUnits="objectBoundingBox">
      <rect x="0" y="0" width="1" height="1" fill="url(#maskGrad)"/>
    </mask>
    <linearGradient id="maskGrad" x1="0%" y1="0%" x2="100%" y2="100%">
      <stop offset="0%" stop-color="white"/>
      <stop offset="100%" stop-color="black"/>
    </linearGradient>
    <mask id="maskCircleFade">
      <circle cx="0" cy="0" r="60" fill="white"/>
      <circle cx="0" cy="0" r="30" fill="black"/>
    </mask>
    <mask id="maskStripes">
      <rect x="-50" y="-50" width="100" height="100" fill="white"/>
      <rect x="-50" y="-40" width="100" height="10" fill="black"/>
      <rect x="-50" y="-20" width="100" height="10" fill="black"/>
      <rect x="-50" y="0" width="100" height="10" fill="black"/>
      <rect x="-50" y="20" width="100" height="10" fill="black"/>
      <rect x="-50" y="40" width="100" height="10" fill="black"/>
    </mask>
    <mask id="maskDynamic">
      <rect x="-60" y="-60" width="120" height="120" fill="white" fill-opacity="0.31"/>
      <circle cx="0" cy="0" r="25" fill="white"/>
    </mask>
  </defs>
  <rect width="1920" height="1080" fill="url(#lgrad0)"/>
  <g transform="translate(100.9, 125.0)">
      <g transform="translate(0.16,4.00) rotate(0.08) scale(1.000)">
        <g transform="translate(2.53,3.78) rotate(2.14) scale(0.980)">
        <g transform="translate(4.29,3.23) rotate(6.06) scale(0.960)">
        <g transform="translate(5.00,2.39) rotate(11.55) scale(0.940)" clip-path="url(#clipCircle)">
        <g transform="translate(4.48,1.33) rotate(18.21) scale(0.920)">
        <g transform="translate(2.86,0.16) rotate(25.50) scale(0.900)">
        <g transform="translate(0.55,-1.03) rotate(32.82) scale(0.880)">
        <path d="M0.0,-60.2 L17.7,-24.4 L57.3,-18.6 L28.6,9.3 L35.4,48.7 L0.0,30.1 L-35.4,48.7 L-28.6,9.3 L-57.3,-18.6 L-17.7,-24.4Z" fill="url(#lgrad0)" filter="url(#blur0)" opacity="0.51"/>
      </g>
      </g>
      </g>
      </g>
      </g>
      </g>
      </g>
  </g>
  <g transform="translate(335.2, 118.6)">
      <g transform="translate(4.29,2.05) rotate(0.08) scale(1.000)">
        <g transform="translate(5.00,0.95) rotate(2.14) scale(0.980)">
        <g transform="translate(4.48,-0.24) rotate(6.06) scale(0.960)">
        <g transform="translate(2.86,-1.41) rotate(11.55) scale(0.940)">
        <g transform="translate(0.55,-2.45) rotate(18.21) scale(0.920)">
        <g transform="translate(-1.90,-3.28) rotate(25.50) scale(0.900)" mask="url(#maskCircleFade)">
        <g transform="translate(-3.88,-3.81) rotate(32.82) scale(0.880)">
        <rect x="-36.4" y="-36.4" width="72.7" height="72.7" rx="18.2" fill="url(#rgrad1)" filter="url(#shadow)" opacity="0.62"/>
        <circle cx="0" cy="0" r="24.2" fill="url(#rgrad2)" opacity="0.44"/>
      </g>
      </g>
      </g>
      </g>
      </g>
      </g>
      </g>
  </g>
  <g transform="translate(565.7, 103.5)">
      <g transform="translate(4.48,-1.78) rotate(0.08) scale(1.000)">
        <g transform="translate(2.86,-2.76) rotate(2.14) scale(0.980)">
        <g transform="translate(0.55,-3.49) rotate(6.06) scale(0.960)">
        <g transform="translate(-1.90,-3.91) rotate(11.55) scale(0.940)">
        <g transform="translate(-3.88,-3.98) rotate(18.21) scale(0.920)">
        <g transform="translate(-4.92,-3.70) rotate(25.50) scale(0.900)">
        <g transform="translate(-4.75,-3.09) rotate(32.82) scale(0.880)">
        <path d="M38.2,22.1 L0.0,44.1 L-38.2,22.1 L-38.2,-22.1 L-0.0,-44.1 L38.2,-22.1Z" fill="url(#rgrad2)" filter="url(#blur2)" opacity="0.73"/>
        <ellipse cx="0" cy="0" rx="18.4" ry="12.3" fill="#FFFFFF" opacity="0.37"/>
      </g>
      </g>
      </g>
      </g>
      </g>
      </g>
      </g>
  </g>
  <g transform="translate(790.0, 86.7)">
      <g transform="translate(0.55,-3.98) rotate(0.08) scale(1.000)">
        <g transform="translate(-1.90,-3.93) rotate(2.14) scale(0.980)">
        <g transform="translate(-3.88,-3.53) rotate(6.06) scale(0.960)">
        <g transform="translate(-4.92,-2.82) rotate(11.55) scale(0.940)" clip-path="url(#clipRect)">
        <g transform="translate(-4.75,-1.85) rotate(18.21) scale(0.920)">
        <g transform="translate(-3.41,-0.72) rotate(25.50) scale(0.900)">
        <g transform="translate(-1.25,0.48) rotate(32.82) scale(0.880)">
        <circle cx="0" cy="0" r="30.9" fill="url(#lgrad3)" filter="url(#shadow)" opacity="0.82"/>
        <text x="0" y="5" text-anchor="middle" font-family="Arial, sans-serif" font-size="14" fill="#FFFFFF" opacity="0.82">6</text>
      </g>
      </g>
      </g>
      </g>
      </g>
      </g>
      </g>
  </g>
  <g transform="translate(1006.9, 76.2)">
      <g transform="translate(-3.88,-2.52) rotate(0.08) scale(1.000)">
        <g transform="translate(-4.92,-1.49) rotate(2.14) scale(0.980)">
        <g transform="translate(-4.75,-0.32) rotate(6.06) scale(0.960)">
        <g transform="translate(-3.41,0.87) rotate(11.55) scale(0.940)">
        <g transform="translate(-1.25,1.98) rotate(18.21) scale(0.920)">
        <g transform="translate(1.23,2.92) rotate(25.50) scale(0.900)" mask="url(#maskGradient)">
        <g transform="translate(3.40,3.60) rotate(32.82) scale(0.880)">
        <path d="M0.0,-48.5 L14.3,-19.6 L46.1,-15.0 L23.1,7.5 L28.5,39.2 L0.0,24.2 L-28.5,39.2 L-23.1,7.5 L-46.1,-15.0 L-14.3,-19.6Z" fill="url(#rgrad4)" filter="url(#blur4)" opacity="0.88"/>
      </g>
      </g>
      </g>
      </g>
      </g>
      </g>
      </g>
  </g>
  <g transform="translate(1217.2, 76.9)">
      <g transform="translate(-4.75,1.25) rotate(0.08) scale(1.000)">
        <g transform="translate(-3.41,2.32) rotate(2.14) scale(0.980)">
        <g transform="translate(-1.25,3.18) rotate(6.06) scale(0.960)">
        <g transform="translate(1.23,3.76) rotate(11.55) scale(0.940)">
        <g transform="translate(3.40,3.99) rotate(18.21) scale(0.920)">
        <g transform="translate(4.74,3.88) rotate(25.50) scale(0.900)">
        <g transform="translate(4.92,3.41) rotate(32.82) scale(0.880)">
        <rect x="-22.8" y="-22.8" width="45.7" height="45.7" rx="11.4" fill="url(#rgrad0)" filter="url(#shadow)" opacity="0.90"/>
        <circle cx="0" cy="0" r="15.2" fill="url(#rgrad1)" opacity="0.63"/>
      </g>
      </g>
      </g>
      </g>
      </g>
      </g>
      </g>
  </g>
  <g transform="translate(1423.3, 88.4)">
      <g transform="translate(-1.25,3.87) rotate(0.08) scale(1.000)">
        <g transform="translate(1.23,4.00) rotate(2.14) scale(0.980)">
        <g transform="translate(3.40,3.76) rotate(6.06) scale(0.960)">
        <g transform="translate(4.74,3.19) rotate(11.55) scale(0.940)" clip-path="url(#clipStar)">
        <g transform="translate(4.92,2.33) rotate(18.21) scale(0.920)">
        <g transform="translate(3.90,1.27) rotate(25.50) scale(0.900)">
        <g transform="translate(1.92,0.09) rotate(32.82) scale(0.880)">
        <path d="M29.1,16.8 L0.0,33.6 L-29.1,16.8 L-29.1,-16.8 L-0.0,-33.6 L29.1,-16.8Z" fill="url(#lgrad1)" filter="url(#blur1)" opacity="0.89"/>
        <ellipse cx="0" cy="0" rx="14.0" ry="9.3" fill="#FFFFFF" opacity="0.44"/>
      </g>
      </g>
      </g>
      </g>
      </g>
      </g>
      </g>
  </g>
  <g transform="translate(1628.6, 105.4)">
      <g transform="translate(3.40,2.93) rotate(0.08) scale(1.000)">
        <g transform="translate(4.74,2.00) rotate(2.14) scale(0.980)">
        <g transform="translate(4.92,0.88) rotate(6.06) scale(0.960)">
        <g transform="translate(3.90,-0.31) rotate(11.55) scale(0.940)">
        <g transform="translate(1.92,-1.47) rotate(18.21) scale(0.920)">
        <g transform="translate(-0.53,-2.51) rotate(25.50) scale(0.900)" mask="url(#maskDynamic)">
        <g transform="translate(-2.85,-3.32) rotate(32.82) scale(0.880)">
        <circle cx="0" cy="0" r="35.0" fill="url(#rgrad2)" filter="url(#shadow)" opacity="0.84"/>
        <text x="0" y="5" text-anchor="middle" font-family="Arial, sans-serif" font-size="14" fill="#FFFFFF" opacity="0.84">6</text>
      </g>
      </g>
      </g>
      </g>
      </g>
      </g>
      </g>
  </g>
  <g transform="translate(76.7, 399.9)">
      <g transform="translate(4.92,-0.71) rotate(0.08) scale(1.000)">
        <g transform="translate(3.90,-1.84) rotate(2.14) scale(0.980)">
        <g transform="translate(1.92,-2.81) rotate(6.06) scale(0.960)">
        <g transform="translate(-0.53,-3.52) rotate(11.55) scale(0.940)">
        <g transform="translate(-2.85,-3.93) rotate(18.21) scale(0.920)">
        <g transform="translate(-4.47,-3.98) rotate(25.50) scale(0.900)">
        <g transform="translate(-5.00,-3.67) rotate(32.82) scale(0.880)">
        <path d="M0.0,-74.8 L22.0,-30.3 L71.1,-23.1 L35.6,11.6 L44.0,60.5 L0.0,37.4 L-44.0,60.5 L-35.6,11.6 L-71.1,-23.1 L-22.0,-30.3Z" fill="url(#rgrad3)" filter="url(#blur3)" opacity="0.77"/>
      </g>
      </g>
      </g>
      </g>
      </g>
      </g>
      </g>
  </g>
  <g transform="translate(290.5, 405.0)">
      <g transform="translate(1.92,-3.69) rotate(0.08) scale(1.000)">
        <g transform="translate(-0.53,-3.98) rotate(2.14) scale(0.980)">
        <g transform="translate(-2.85,-3.91) rotate(6.06) scale(0.960)">
        <g transform="translate(-4.47,-3.50) rotate(11.55) scale(0.940)" clip-path="url(#clipDynamic)">
        <g transform="translate(-5.00,-2.77) rotate(18.21) scale(0.920)">
        <g transform="translate(-4.30,-1.79) rotate(25.50) scale(0.900)">
        <g transform="translate(-2.55,-0.65) rotate(32.82) scale(0.880)">
        <rect x="-33.0" y="-33.0" width="66.0" height="66.0" rx="16.5" fill="url(#lgrad4)" filter="url(#shadow)" opacity="0.67"/>
        <circle cx="0" cy="0" r="22.0" fill="url(#rgrad0)" opacity="0.47"/>
      </g>
      </g>
      </g>
      </g>
      </g>
      </g>
      </g>
  </g>
  <g transform="translate(511.5, 398.3)">
      <g transform="translate(-2.85,-3.29) rotate(0.08) scale(1.000)">
        <g transform="translate(-4.47,-2.47) rotate(2.14) scale(0.980)">
        <g transform="translate(-5.00,-1.42) rotate(6.06) scale(0.960)">
        <g transform="translate(-4.30,-0.26) rotate(11.55) scale(0.940)">
        <g transform="translate(-2.55,0.93) rotate(18.21) scale(0.920)">
        <g transform="translate(-0.17,2.04) rotate(25.50) scale(0.900)" mask="url(#maskStripes)">
        <g transform="translate(2.24,2.97) rotate(32.82) scale(0.880)">
        <path d="M26.8,15.5 L0.0,31.0 L-26.8,15.5 L-26.8,-15.5 L-0.0,-31.0 L26.8,-15.5Z" fill="url(#rgrad0)" filter="url(#blur0)" opacity="0.55"/>
        <ellipse cx="0" cy="0" rx="12.9" ry="8.6" fill="#FFFFFF" opacity="0.28"/>
      </g>
      </g>
      </g>
      </g>
      </g>
      </g>
      </g>
  </g>
  <g transform="translate(739.5, 383.1)">
      <g transform="translate(-5.00,0.14) rotate(0.08) scale(1.000)">
        <g transform="translate(-4.30,1.32) rotate(2.14) scale(0.980)">
        <g transform="translate(-2.55,2.38) rotate(6.06) scale(0.960)">
        <g transform="translate(-0.17,3.22) rotate(11.55) scale(0.940)">
        <g transform="translate(2.24,3.78) rotate(18.21) scale(0.920)">
        <g transform="translate(4.11,4.00) rotate(25.50) scale(0.900)">
        <g transform="translate(4.97,3.86) rotate(32.82) scale(0.880)">
        <circle cx="0" cy="0" r="22.5" fill="url(#rgrad1)" filter="url(#shadow)" opacity="0.43"/>
        <text x="0" y="5" text-anchor="middle" font-family="Arial, sans-serif" font-size="14" fill="#FFFFFF" opacity="0.43">6</text>
      </g>
      </g>
      </g>
      </g>
      </g>
      </g>
      </g>
  </g>
  <g transform="translate(972.5, 366.4)">
      <g transform="translate(-2.55,3.44) rotate(0.08) scale(1.000)">
        <g transform="translate(-0.17,3.89) rotate(2.14) scale(0.980)">
        <g transform="translate(2.24,3.99) rotate(6.06) scale(0.960)">
        <g transform="translate(4.11,3.74) rotate(11.55) scale(0.940)" clip-path="url(#clipHex)">
        <g transform="translate(4.97,3.15) rotate(18.21) scale(0.920)">
        <g transform="translate(4.62,2.28) rotate(25.50) scale(0.900)">
        <g transform="translate(3.13,1.20) rotate(32.82) scale(0.880)">
        <path d="M0.0,-52.2 L15.3,-21.1 L49.6,-16.1 L24.8,8.1 L30.7,42.2 L0.0,26.1 L-30.7,42.2 L-24.8,8.1 L-49.6,-16.1 L-15.3,-21.1Z" fill="url(#lgrad2)" filter="url(#blur2)" opacity="0.32"/>
      </g>
      </g>
      </g>
      </g>
      </g>
      </g>
      </g>
  </g>
  <g transform="translate(1207.4, 356.1)">
      <g transform="translate(2.24,3.58) rotate(0.08) scale(1.000)">
        <g transform="translate(4.11,2.89) rotate(2.14) scale(0.980)">
        <g transform="translate(4.97,1.94) rotate(6.06) scale(0.960)">
        <g transform="translate(4.62,0.82) rotate(11.55) scale(0.940)">
        <g transform="translate(3.13,-0.38) rotate(18.21) scale(0.920)">
        <g transform="translate(0.88,-1.54) rotate(25.50) scale(0.900)" mask="url(#maskCircleFade)">
        <g transform="translate(-1.59,-2.56) rotate(32.82) scale(0.880)">
        <rect x="-33.3" y="-33.3" width="66.5" height="66.5" rx="16.6" fill="url(#rgrad3)" filter="url(#shadow)" opacity="0.22"/>
        <circle cx="0" cy="0" r="22.2" fill="url(#rgrad4)" opacity="0.15"/>
      </g>
      </g>
      </g>
      </g>
      </g>
      </g>
      </g>
  </g>
  <g transform="translate(1440.4, 357.0)">
      <g transform="translate(4.97,0.42) rotate(0.08) scale(1.000)">
        <g transform="translate(4.62,-0.77) rotate(2.14) scale(0.980)">
        <g transform="translate(3.13,-1.90) rotate(6.06) scale(0.960)">
        <g transform="translate(0.88,-2.85) rotate(11.55) scale(0.940)">
        <g transform="translate(-1.59,-3.55) rotate(18.21) scale(0.920)">
        <g transform="translate(-3.67,-3.94) rotate(25.50) scale(0.900)">
        <g transform="translate(-4.85,-3.97) rotate(32.82) scale(0.880)">
        <path d="M38.9,22.5 L0.0,44.9 L-38.9,22.5 L-38.9,-22.5 L-0.0,-44.9 L38.9,-22.5Z" fill="url(#rgrad4)" filter="url(#blur4)" opacity="0.15"/>
        <ellipse cx="0" cy="0" rx="18.7" ry="12.5" fill="#FFFFFF" opacity="0.07"/>
      </g>
      </g>
      </g>
      </g>
      </g>
      </g>
      </g>
  </g>
  <g transform="translate(1668.5, 368.8)">
      <g transform="translate(3.13,-3.12) rotate(0.08) scale(1.000)">
        <g transform="translate(0.88,-3.72) rotate(2.14) scale(0.980)">
        <g transform="translate(-1.59,-3.99) rotate(6.06) scale(0.960)">
        <g transform="translate(-3.67,-3.90) rotate(11.55) scale(0.940)" clip-path="url(#clipCircle)">
        <g transform="translate(-4.85,-3.46) rotate(18.21) scale(0.920)">
        <g transform="translate(-4.84,-2.72) rotate(25.50) scale(0.900)">
        <g transform="translate(-3.65,-1.73) rotate(32.82) scale(0.880)">
        <circle cx="0" cy="0" r="34.8" fill="url(#lgrad0)" filter="url(#shadow)" opacity="0.11"/>
        <text x="0" y="5" text-anchor="middle" font-family="Arial, sans-serif" font-size="14" fill="#FFFFFF" opacity="0.11">6</text>
      </g>
      </g>
      </g>
      </g>
      </g>
      </g>
      </g>
  </g>
  <g transform="translate(129.5, 665.8)">
      <g transform="translate(-1.59,-3.79) rotate(0.08) scale(1.000)">
        <g transform="translate(-3.67,-3.25) rotate(2.14) scale(0.980)">
        <g transform="translate(-4.85,-2.41) rotate(6.06) scale(0.960)">
        <g transform="translate(-4.84,-1.36) rotate(11.55) scale(0.940)">
        <g transform="translate(-3.65,-0.19) rotate(18.21) scale(0.920)">
        <g transform="translate(-1.56,1.00) rotate(25.50) scale(0.900)" mask="url(#maskGradient)">
        <g transform="translate(0.90,2.10) rotate(32.82) scale(0.880)">
        <path d="M0.0,-55.5 L16.3,-22.4 L52.7,-17.1 L26.4,8.6 L32.6,44.9 L0.0,27.7 L-32.6,44.9 L-26.4,8.6 L-52.7,-17.1 L-16.3,-22.4Z" fill="url(#rgrad1)" filter="url(#blur1)" opacity="0.10"/>
      </g>
      </g>
      </g>
      </g>
      </g>
      </g>
      </g>
  </g>
  <g transform="translate(343.4, 680.1)">
      <g transform="translate(-4.85,-0.98) rotate(0.08) scale(1.000)">
        <g transform="translate(-4.84,0.21) rotate(2.14) scale(0.980)">
        <g transform="translate(-3.65,1.38) rotate(6.06) scale(0.960)">
        <g transform="translate(-1.56,2.43) rotate(11.55) scale(0.940)">
        <g transform="translate(0.90,3.26) rotate(18.21) scale(0.920)">
        <g transform="translate(3.15,3.80) rotate(25.50) scale(0.900)">
        <g transform="translate(4.63,4.00) rotate(32.82) scale(0.880)">
        <rect x="-22.8" y="-22.8" width="45.5" height="45.5" rx="11.4" fill="url(#rgrad2)" filter="url(#shadow)" opacity="0.13"/>
        <circle cx="0" cy="0" r="15.2" fill="url(#rgrad3)" opacity="0.09"/>
      </g>
      </g>
      </g>
      </g>
      </g>
      </g>
      </g>
  </g>
  <g transform="translate(551.5, 684.9)">
      <g transform="translate(-3.65,2.73) rotate(0.08) scale(1.000)">
        <g transform="translate(-1.56,3.48) rotate(2.14) scale(0.980)">
        <g transform="translate(0.90,3.91) rotate(6.06) scale(0.960)">
        <g transform="translate(3.15,3.99) rotate(11.55) scale(0.940)" clip-path="url(#clipRect)">
        <g transform="translate(4.63,3.71) rotate(18.21) scale(0.920)">
        <g transform="translate(4.97,3.11) rotate(25.50) scale(0.900)">
        <g transform="translate(4.10,2.22) rotate(32.82) scale(0.880)">
        <path d="M25.4,14.7 L0.0,29.3 L-25.4,14.7 L-25.4,-14.7 L-0.0,-29.3 L25.4,-14.7Z" fill="url(#lgrad3)" filter="url(#blur3)" opacity="0.19"/>
        <ellipse cx="0" cy="0" rx="12.2" ry="8.1" fill="#FFFFFF" opacity="0.10"/>
      </g>
      </g>
      </g>
      </g>
      </g>
      </g>
      </g>
  </g>
  <g transform="translate(756.8, 678.0)">
      <g transform="translate(0.90,3.93) rotate(0.08) scale(1.000)">
        <g transform="translate(3.15,3.54) rotate(2.14) scale(0.980)">
        <g transform="translate(4.63,2.84) rotate(6.06) scale(0.960)">
        <g transform="translate(4.97,1.88) rotate(11.55) scale(0.940)">
        <g transform="translate(4.10,0.75) rotate(18.21) scale(0.920)">
        <g transform="translate(2.22,-0.44) rotate(25.50) scale(0.900)" mask="url(#maskDynamic)">
        <g transform="translate(-0.20,-1.60) rotate(32.82) scale(0.880)">
        <circle cx="0" cy="0" r="31.2" fill="url(#rgrad4)" filter="url(#shadow)" opacity="0.29"/>
        <text x="0" y="5" text-anchor="middle" font-family="Arial, sans-serif" font-size="14" fill="#FFFFFF" opacity="0.29">6</text>
      </g>
      </g>
      </g>
      </g>
      </g>
      </g>
      </g>
  </g>
  <g transform="translate(962.9, 662.6)">
      <g transform="translate(4.63,1.52) rotate(0.08) scale(1.000)">
        <g transform="translate(4.97,0.36) rotate(2.14) scale(0.980)">
        <g transform="translate(4.10,-0.84) rotate(6.06) scale(0.960)">
        <g transform="translate(2.22,-1.96) rotate(11.55) scale(0.940)">
        <g transform="translate(-0.20,-2.90) rotate(18.21) scale(0.920)">
        <g transform="translate(-2.57,-3.58) rotate(25.50) scale(0.900)">
        <g transform="translate(-4.31,-3.95) rotate(32.82) scale(0.880)">
        <path d="M0.0,-73.8 L21.7,-29.8 L70.2,-22.8 L35.1,11.4 L43.4,59.7 L0.0,36.9 L-43.4,59.7 L-35.1,11.4 L-70.2,-22.8 L-21.7,-29.8Z" fill="url(#rgrad0)" filter="url(#blur0)" opacity="0.39"/>
      </g>
      </g>
      </g>
      </g>
      </g>
      </g>
      </g>
  </g>
  <g transform="translate(1173.2, 646.0)">
      <g transform="translate(4.10,-2.30) rotate(0.08) scale(1.000)">
        <g transform="translate(2.22,-3.16) rotate(2.14) scale(0.980)">
        <g transform="translate(-0.20,-3.74) rotate(6.06) scale(0.960)">
        <g transform="translate(-2.57,-3.99) rotate(11.55) scale(0.940)" clip-path="url(#clipStar)">
        <g transform="translate(-4.31,-3.89) rotate(18.21) scale(0.920)">
        <g transform="translate(-5.00,-3.43) rotate(25.50) scale(0.900)">
        <g transform="translate(-4.46,-2.67) rotate(32.82) scale(0.880)">
        <rect x="-36.2" y="-36.2" width="72.4" height="72.4" rx="18.1" fill="url(#lgrad1)" filter="url(#shadow)" opacity="0.51"/>
        <circle cx="0" cy="0" r="24.1" fill="url(#rgrad2)" opacity="0.36"/>
      </g>
      </g>
      </g>
      </g>
      </g>
      </g>
      </g>
  </g>
  <g transform="translate(1390.0, 635.9)">
      <g transform="translate(-0.20,-4.00) rotate(0.08) scale(1.000)">
        <g transform="translate(-2.57,-3.77) rotate(2.14) scale(0.980)">
        <g transform="translate(-4.31,-3.21) rotate(6.06) scale(0.960)">
        <g transform="translate(-5.00,-2.36) rotate(11.55) scale(0.940)">
        <g transform="translate(-4.46,-1.30) rotate(18.21) scale(0.920)">
        <g transform="translate(-2.83,-0.12) rotate(25.50) scale(0.900)" mask="url(#maskStripes)">
        <g transform="translate(-0.51,1.07) rotate(32.82) scale(0.880)">
        <path d="M31.0,17.9 L0.0,35.8 L-31.0,17.9 L-31.0,-17.9 L-0.0,-35.8 L31.0,-17.9Z" fill="url(#rgrad2)" filter="url(#blur2)" opacity="0.63"/>
        <ellipse cx="0" cy="0" rx="14.9" ry="9.9" fill="#FFFFFF" opacity="0.32"/>
      </g>
      </g>
      </g>
      </g>
      </g>
      </g>
      </g>
  </g>
  <g transform="translate(1614.2, 637.2)">
      <g transform="translate(-4.31,-2.02) rotate(0.08) scale(1.000)">
        <g transform="translate(-5.00,-0.91) rotate(2.14) scale(0.980)">
        <g transform="translate(-4.46,0.28) rotate(6.06) scale(0.960)">
        <g transform="translate(-2.83,1.44) rotate(11.55) scale(0.940)">
        <g transform="translate(-0.51,2.48) rotate(18.21) scale(0.920)">
        <g transform="translate(1.94,3.30) rotate(25.50) scale(0.900)">
        <g transform="translate(3.91,3.82) rotate(32.82) scale(0.880)">
        <circle cx="0" cy="0" r="23.6" fill="url(#rgrad3)" filter="url(#shadow)" opacity="0.74"/>
        <text x="0" y="5" text-anchor="middle" font-family="Arial, sans-serif" font-size="14" fill="#FFFFFF" opacity="0.74">6</text>
      </g>
      </g>
      </g>
      </g>
      </g>
      </g>
      </g>
  </g>
  <g transform="translate(84.7, 929.2)">
      <g transform="translate(-4.46,1.81) rotate(0.08) scale(1.000)">
        <g transform="translate(-2.83,2.78) rotate(2.14) scale(0.980)">
        <g transform="translate(-0.51,3.51) rotate(6.06) scale(0.960)">
        <g transform="translate(1.94,3.92) rotate(11.55) scale(0.940)" clip-path="url(#clipDynamic)">
        <g transform="translate(3.91,3.98) rotate(18.21) scale(0.920)">
        <g transform="translate(4.93,3.69) rotate(25.50) scale(0.900)">
        <g transform="translate(4.73,3.06) rotate(32.82) scale(0.880)">
        <path d="M0.0,-46.5 L13.7,-18.8 L44.2,-14.4 L22.1,7.2 L27.3,37.6 L0.0,23.3 L-27.3,37.6 L-22.1,7.2 L-44.2,-14.4 L-13.7,-18.8Z" fill="url(#lgrad4)" filter="url(#blur4)" opacity="0.82"/>
      </g>
      </g>
      </g>
      </g>
      </g>
      </g>
      </g>
  </g>
  <g transform="translate(303.1, 380.0)" mask="url(#maskGradient)">
    <ellipse cx="0" cy="0" rx="200" ry="150" fill="url(#rgrad0)" filter="url(#blur3)" opacity="0.3"/>
  </g>
  <g transform="translate(885.8, 359.5)" mask="url(#maskCircleFade)">
    <ellipse cx="0" cy="0" rx="200" ry="150" fill="url(#rgrad1)" filter="url(#blur3)" opacity="0.3"/>
  </g>
  <g transform="translate(1389.6, 311.1)" mask="url(#maskStripes)">
    <ellipse cx="0" cy="0" rx="200" ry="150" fill="url(#rgrad2)" filter="url(#blur3)" opacity="0.3"/>
  </g>
</svg>