<?xml version="1.0" encoding="UTF-8"?>
<svg xmlns="http://www.w3.org/2000/svg" viewBox="0 0 1920 1080" width="1920" height="1080">
  <defs>
    <filter id="blur0" x="-50%" y="-50%" width="200%" height="200%">
      <feGaussianBlur in="SourceGraphic" stdDeviation="1"/>
    </filter>
    <filter id="blur1" x="-50%" y="-50%" width="200%" height="200%">
      <feGaussianBlur in="SourceGraphic" stdDeviation="3"/>
    </filter>
    <filter id="blur2" x="-50%" y="-50%" width="200%" height="200%">
      <feGaussianBlur in="SourceGraphic" stdDeviation="5"/>
    </filter>
    <filter id="blur3" x="-50%" y="-50%" width="200%" height="200%">
      <feGaussianBlur in="SourceGraphic" stdDeviation="7"/>
    </filter>
    <filter id="blur4" x="-50%" y="-50%" width="200%" height="200%">
      <feGaussianBlur in="SourceGraphic" stdDeviation="9"/>
    </filter>
    <filter id="shadow" x="-50%" y="-50%" width="200%" height="200%">
      <feGaussianBlur in="SourceAlpha" stdDeviation="3" result="blur"/>
      <feOffset in="blur" dx="4" dy="4" result="offsetBlur"/>
      <feMerge>
        <feMergeNode in="offsetBlur"/>
        <feMergeNode in="SourceGraphic"/>
      </feMerge>
    </filter>
    <linearGradient id="lgrad0" x1="0%" y1="0%" x2="8.8%" y2="21.7%">
      <stop offset="0%" stop-color="#FF6B6B"/>
      <stop offset="33%" stop-color="#4ECDC4"/>
      <stop offset="66%" stop-color="#45B7D1"/>
      <stop offset="100%" stop-color="#96E6A1"/>
    </linearGradient>
    <linearGradient id="lgrad1" x1="0%" y1="0%" x2="28.5%" y2="4.9%">
      <stop offset="0%" stop-color="#FFE66D"/>
      <stop offset="33%" stop-color="#FF6B6B"/>
      <stop offset="66%" stop-color="#C44D58"/>
      <stop offset="100%" stop-color="#8B0000"/>
    </linearGradient>
    <linearGradient id="lgrad2" x1="0%" y1="0%" x2="53.9%" y2="0.2%">
      <stop offset="0%" stop-color="#4169E1"/>
      <stop offset="33%" stop-color="#7B68EE"/>
      <stop offset="66%" stop-color="#9370DB"/>
      <stop offset="100%" stop-color="#FFD700"/>
    </linearGradient>
    <linearGradient id="lgrad3" x1="0%" y1="0%" x2="78.3%" y2="8.8%">
      <stop offset="0%" stop-color="#32CD32"/>
      <stop offset="33%" stop-color="#228B22"/>
      <stop offset="66%" stop-color="#006400"/>
      <stop offset="100%" stop-color="#ADFF2F"/>
    </linearGradient>
    <linearGradient id="lgrad4" x1="0%" y1="0%" x2="95.1%" y2="28.5%">
      <stop offset="0%" stop-color="#FF1493"/>
      <stop offset="33%" stop-color="#FF69B4"/>
      <stop offset="66%" stop-color="#FFB6C1"/>
      <stop offset="100%" stop-color="#FFC0CB"/>
    </linearGradient>
    <radialGradient id="rgrad0" cx="51.7%" cy="57.8%" r="60%">
      <stop offset="0%" stop-color="#FF6B6B" stop-opacity="1"/>
      <stop offset="50%" stop-color="#4ECDC4" stop-opacity="0.8"/>
      <stop offset="100%" stop-color="#45B7D1" stop-opacity="0.6"/>
    </radialGradient>
    <radialGradient id="rgrad1" cx="61.7%" cy="65.8%" r="60%">
      <stop offset="0%" stop-color="#FFE66D" stop-opacity="1"/>
      <stop offset="50%" stop-color="#FF6B6B" stop-opacity="0.8"/>
      <stop offset="100%" stop-color="#C44D58" stop-opacity="0.6"/>
    </radialGradient>
    <radialGradient id="rgrad2" cx="31.7%" cy="33.8%" r="60%">
      <stop offset="0%" stop-color="#4169E1" stop-opacity="1"/>
      <stop offset="50%" stop-color="#7B68EE" stop-opacity="0.8"/>
      <stop offset="100%" stop-color="#9370DB" stop-opacity="0.6"/>
    </radialGradient>
    <radialGradient id="rgrad3" cx="41.7%" cy="41.8%" r="60%">
      <stop offset="0%" stop-color="#32CD32" stop-opacity="1"/>
      <stop offset="50%" stop-color="#228B22" stop-opacity="0.8"/>
      <stop offset="100%" stop-color="#006400" stop-opacity="0.6"/>
    </radialGradient>
    <radialGradient id="rgrad4" cx="51.7%" cy="49.8%" r="60%">
      <stop offset="0%" stop-color="#FF1493" stop-opacity="1"/>
      <stop offset="50%" stop-color="#FF69B4" stop-opacity="0.8"/>
      <stop offset="100%" stop-color="#FFB6C1" stop-opacity="0.6"/>
    </radialGradient>
    <clipPath id="clipCircle">
      <circle cx="0" cy="0" r="50"/>
    </clipPath>
    <clipPath id="clipStar">
      <path d="M0.0,-50.0 L14.7,-20.2 L47.6,-15.5 L23.8,7.7 L29.4,40.5 L0.0,25.0 L-29.4,40.5 L-23.8,7.7 L-47.6,-15.5 L-14.7,-20.2Z"/>
    </clipPath>
    <clipPath id="clipHex">
      <path d="M39.0,22.5 L0.0,45.0 L-39.0,22.5 L-39.0,-22.5 L-0.0,-45.0 L39.0,-22.5Z"/>
    </clipPath>
    <clipPath id="clipRect">
      <rect x="-40" y="-30" width="80" height="60" rx="10"/>
    </clipPath>
    <clipPath id="clipDynamic">
      <circle cx="0" cy="0" r="47.7"/>
    </clipPath>
    <mask id="maskGradient" maskContentUnits="objectBoundingBox">
      <rect x="0" y="0" width="1" height="1" fill="url(#maskGrad)"/>
    </mask>
    <linearGradient id="maskGrad" x1="0%" y1="0%" x2="100%" y2="100%">
      <stop offset="0%" stop-color="white"/>
      <stop offset="100%" stop-color="black"/>
    </linearGradient>
    <mask id="maskCircleFade">
      <circle cx="0" cy="0" r="60" fill="white"/>
      <circle cx="0" cy="0" r="30" fill="black"/>
    </mask>
    <mask id="maskStripes">
      <rect x="-50" y="-50" width="100" height="100" fill="white"/>
      <rect x="-50" y="-40" width="100" height="10" fill="black"/>
      <rect x="-50" y="-20" width="100" height="10" fill="black"/>
      <rect x="-50" y="0" width="100" height="10" fill="black"/>
      <rect x="-50" y="20" width="100" height="10" fill="black"/>
      <rect x="-50" y="40" width="100" height="10" fill="black"/>
    </mask>
    <mask id="maskDynamic">
      <rect x="-60" y="-60" width="120" height="120" fill="white" fill-opacity="0.91"/>
      <circle cx="0" cy="0" r="25" fill="white"/>
    </mask>
  </defs>
  <rect width="1920" height="1080" fill="url(#lgrad0)"/>
  <g transform="translate(125.5, 86.8)">
      <g transform="translate(4.25,-2.11) rotate(4.37) scale(1.000)">
        <g transform="translate(2.47,-3.02) rotate(9.53) scale(0.980)">
        <g transform="translate(0.08,-3.66) rotate(14.91) scale(0.960)">
        <g transform="translate(-2.33,-3.97) rotate(19.92) scale(0.940)" clip-path="url(#clipCircle)">
        <g transform="translate(-4.16,-3.93) rotate(23.94) scale(0.920)">
        <g transform="translate(-4.98,-3.54) rotate(26.44) scale(0.900)">
        <g transform="translate(-4.58,-2.83) rotate(26.95) scale(0.880)">
        <path d="M0.0,-73.1 L21.5,-29.6 L69.5,-22.6 L34.8,11.3 L43.0,59.1 L0.0,36.6 L-43.0,59.1 L-34.8,11.3 L-69.5,-22.6 L-21.5,-29.6Z" fill="url(#lgrad0)" filter="url(#blur0)" opacity="0.85"/>
      </g>
      </g>
      </g>
      </g>
      </g>
      </g>
      </g>
  </g>
  <g transform="translate(334.8, 76.2)">
      <g transform="translate(0.08,-4.00) rotate(4.37) scale(1.000)">
        <g transform="translate(-2.33,-3.84) rotate(9.53) scale(0.980)">
        <g transform="translate(-4.16,-3.34) rotate(14.91) scale(0.960)">
        <g transform="translate(-4.98,-2.54) rotate(19.92) scale(0.940)">
        <g transform="translate(-4.58,-1.51) rotate(23.94) scale(0.920)">
        <g transform="translate(-3.06,-0.35) rotate(26.44) scale(0.900)" mask="url(#maskCircleFade)">
        <g transform="translate(-0.78,0.85) rotate(26.95) scale(0.880)">
        <rect x="-36.6" y="-36.6" width="73.2" height="73.2" rx="18.3" fill="url(#rgrad1)" filter="url(#shadow)" opacity="0.89"/>
        <circle cx="0" cy="0" r="24.4" fill="url(#rgrad2)" opacity="0.62"/>
      </g>
      </g>
      </g>
      </g>
      </g>
      </g>
      </g>
  </g>
  <g transform="translate(540.5, 76.8)">
      <g transform="translate(-4.16,-2.21) rotate(4.37) scale(1.000)">
        <g transform="translate(-4.98,-1.13) rotate(9.53) scale(0.980)">
        <g transform="translate(-4.58,0.05) rotate(14.91) scale(0.960)">
        <g transform="translate(-3.06,1.23) rotate(19.92) scale(0.940)">
        <g transform="translate(-0.78,2.30) rotate(23.94) scale(0.920)">
        <g transform="translate(1.68,3.17) rotate(26.44) scale(0.900)">
        <g transform="translate(3.73,3.75) rotate(26.95) scale(0.880)">
        <path d="M31.8,18.4 L0.0,36.7 L-31.8,18.4 L-31.8,-18.4 L-0.0,-36.7 L31.8,-18.4Z" fill="url(#rgrad2)" filter="url(#blur2)" opacity="0.90"/>
        <ellipse cx="0" cy="0" rx="15.3" ry="10.2" fill="#FFFFFF" opacity="0.45"/>
      </g>
      </g>
      </g>
      </g>
      </g>
      </g>
      </g>
  </g>
  <g transform="translate(746.0, 88.3)">
      <g transform="translate(-4.58,1.61) rotate(4.37) scale(1.000)">
        <g transform="translate(-3.06,2.62) rotate(9.53) scale(0.980)">
        <g transform="translate(-0.78,3.39) rotate(14.91) scale(0.960)">
        <g transform="translate(1.68,3.87) rotate(19.92) scale(0.940)" clip-path="url(#clipRect)">
        <g transform="translate(3.73,4.00) rotate(23.94) scale(0.920)">
        <g transform="translate(4.87,3.77) rotate(26.44) scale(0.900)">
        <g transform="translate(4.82,3.20) rotate(26.95) scale(0.880)">
        <circle cx="0" cy="0" r="24.0" fill="url(#lgrad3)" filter="url(#shadow)" opacity="0.87"/>
        <text x="0" y="5" text-anchor="middle" font-family="Arial, sans-serif" font-size="14" fill="#FFFFFF" opacity="0.87">339</text>
      </g>
      </g>
      </g>
      </g>
      </g>
      </g>
      </g>
  </g>
  <g transform="translate(955.0, 105.3)">
      <g transform="translate(-0.78,3.95) rotate(4.37) scale(1.000)">
        <g transform="translate(1.68,3.96) rotate(9.53) scale(0.980)">
        <g transform="translate(3.73,3.61) rotate(14.91) scale(0.960)">
        <g transform="translate(4.87,2.95) rotate(19.92) scale(0.940)">
        <g transform="translate(4.82,2.02) rotate(23.94) scale(0.920)">
        <g transform="translate(3.58,0.90) rotate(26.44) scale(0.900)" mask="url(#maskGradient)">
        <g transform="translate(1.47,-0.29) rotate(26.95) scale(0.880)">
        <path d="M0.0,-45.9 L13.5,-18.6 L43.7,-14.2 L21.8,7.1 L27.0,37.1 L0.0,23.0 L-27.0,37.1 L-21.8,7.1 L-43.7,-14.2 L-13.5,-18.6Z" fill="url(#rgrad4)" filter="url(#blur4)" opacity="0.81"/>
      </g>
      </g>
      </g>
      </g>
      </g>
      </g>
      </g>
  </g>
  <g transform="translate(1170.1, 119.8)">
      <g transform="translate(3.73,2.66) rotate(4.37) scale(1.000)">
        <g transform="translate(4.87,1.66) rotate(9.53) scale(0.980)">
        <g transform="translate(4.82,0.51) rotate(14.91) scale(0.960)">
        <g transform="translate(3.58,-0.68) rotate(19.92) scale(0.940)">
        <g transform="translate(1.47,-1.82) rotate(23.94) scale(0.920)">
        <g transform="translate(-1.00,-2.79) rotate(26.44) scale(0.900)">
        <g transform="translate(-3.23,-3.51) rotate(26.95) scale(0.880)">
        <rect x="-28.4" y="-28.4" width="56.7" height="56.7" rx="14.2" fill="url(#rgrad0)" filter="url(#shadow)" opacity="0.72"/>
        <circle cx="0" cy="0" r="18.9" fill="url(#rgrad1)" opacity="0.50"/>
      </g>
      </g>
      </g>
      </g>
      </g>
      </g>
      </g>
  </g>
  <g transform="translate(1392.5, 125.0)">
      <g transform="translate(4.82,-1.07) rotate(4.37) scale(1.000)">
        <g transform="translate(3.58,-2.16) rotate(9.53) scale(0.980)">
        <g transform="translate(1.47,-3.06) rotate(14.91) scale(0.960)">
        <g transform="translate(-1.00,-3.69) rotate(19.92) scale(0.940)" clip-path="url(#clipStar)">
        <g transform="translate(-3.23,-3.98) rotate(23.94) scale(0.920)">
        <g transform="translate(-4.66,-3.92) rotate(26.44) scale(0.900)">
        <g transform="translate(-4.96,-3.51) rotate(26.95) scale(0.880)">
        <path d="M36.7,21.2 L0.0,42.3 L-36.7,21.2 L-36.7,-21.2 L-0.0,-42.3 L36.7,-21.2Z" fill="url(#lgrad1)" filter="url(#blur1)" opacity="0.61"/>
        <ellipse cx="0" cy="0" rx="17.6" ry="11.8" fill="#FFFFFF" opacity="0.31"/>
      </g>
      </g>
      </g>
      </g>
      </g>
      </g>
      </g>
  </g>
  <g transform="translate(1621.7, 118.4)">
      <g transform="translate(1.47,-3.82) rotate(4.37) scale(1.000)">
        <g transform="translate(-1.00,-4.00) rotate(9.53) scale(0.980)">
        <g transform="translate(-3.23,-3.82) rotate(14.91) scale(0.960)">
        <g transform="translate(-4.66,-3.30) rotate(19.92) scale(0.940)">
        <g transform="translate(-4.96,-2.48) rotate(23.94) scale(0.920)">
        <g transform="translate(-4.04,-1.45) rotate(26.44) scale(0.900)" mask="url(#maskDynamic)">
        <g transform="translate(-2.13,-0.28) rotate(26.95) scale(0.880)">
        <circle cx="0" cy="0" r="37.3" fill="url(#rgrad2)" filter="url(#shadow)" opacity="0.49"/>
        <text x="0" y="5" text-anchor="middle" font-family="Arial, sans-serif" font-size="14" fill="#FFFFFF" opacity="0.49">339</text>
      </g>
      </g>
      </g>
      </g>
      </g>
      </g>
      </g>
  </g>
  <g transform="translate(95.3, 383.2)">
      <g transform="translate(-3.23,-3.06) rotate(4.37) scale(1.000)">
        <g transform="translate(-4.66,-2.16) rotate(9.53) scale(0.980)">
        <g transform="translate(-4.96,-1.07) rotate(14.91) scale(0.960)">
        <g transform="translate(-4.04,0.12) rotate(19.92) scale(0.940)">
        <g transform="translate(-2.13,1.30) rotate(23.94) scale(0.920)">
        <g transform="translate(0.30,2.36) rotate(26.44) scale(0.900)">
        <g transform="translate(2.65,3.21) rotate(26.95) scale(0.880)">
        <path d="M0.0,-65.3 L19.2,-26.4 L62.1,-20.2 L31.1,10.1 L38.4,52.8 L0.0,32.7 L-38.4,52.8 L-31.1,10.1 L-62.1,-20.2 L-19.2,-26.4Z" fill="url(#rgrad3)" filter="url(#blur3)" opacity="0.37"/>
      </g>
      </g>
      </g>
      </g>
      </g>
      </g>
      </g>
  </g>
  <g transform="translate(330.1, 366.5)">
      <g transform="translate(-4.96,0.52) rotate(4.37) scale(1.000)">
        <g transform="translate(-4.04,1.67) rotate(9.53) scale(0.980)">
        <g transform="translate(-2.13,2.67) rotate(14.91) scale(0.960)">
        <g transform="translate(0.30,3.43) rotate(19.92) scale(0.940)" clip-path="url(#clipDynamic)">
        <g transform="translate(2.65,3.88) rotate(23.94) scale(0.920)">
        <g transform="translate(4.36,3.99) rotate(26.44) scale(0.900)">
        <g transform="translate(5.00,3.74) rotate(26.95) scale(0.880)">
        <rect x="-25.5" y="-25.5" width="51.1" height="51.1" rx="12.8" fill="url(#lgrad4)" filter="url(#shadow)" opacity="0.27"/>
        <circle cx="0" cy="0" r="17.0" fill="url(#rgrad0)" opacity="0.19"/>
      </g>
      </g>
      </g>
      </g>
      </g>
      </g>
      </g>
  </g>
  <g transform="translate(562.4, 356.1)">
      <g transform="translate(-2.13,3.62) rotate(4.37) scale(1.000)">
        <g transform="translate(0.30,3.96) rotate(9.53) scale(0.980)">
        <g transform="translate(2.65,3.95) rotate(14.91) scale(0.960)">
        <g transform="translate(4.36,3.59) rotate(19.92) scale(0.940)">
        <g transform="translate(5.00,2.90) rotate(23.94) scale(0.920)">
        <g transform="translate(4.41,1.96) rotate(26.44) scale(0.900)" mask="url(#maskStripes)">
        <g transform="translate(2.75,0.84) rotate(26.95) scale(0.880)">
        <path d="M23.4,13.5 L0.0,27.0 L-23.4,13.5 L-23.4,-13.5 L-0.0,-27.0 L23.4,-13.5Z" fill="url(#rgrad0)" filter="url(#blur0)" opacity="0.18"/>
        <ellipse cx="0" cy="0" rx="11.3" ry="7.5" fill="#FFFFFF" opacity="0.09"/>
      </g>
      </g>
      </g>
      </g>
      </g>
      </g>
      </g>
  </g>
  <g transform="translate(789.2, 357.0)">
      <g transform="translate(2.65,3.39) rotate(4.37) scale(1.000)">
        <g transform="translate(4.36,2.61) rotate(9.53) scale(0.980)">
        <g transform="translate(5.00,1.60) rotate(14.91) scale(0.960)">
        <g transform="translate(4.41,0.44) rotate(19.92) scale(0.940)">
        <g transform="translate(2.75,-0.75) rotate(23.94) scale(0.920)">
        <g transform="translate(0.41,-1.88) rotate(26.44) scale(0.900)">
        <g transform="translate(-2.03,-2.84) rotate(26.95) scale(0.880)">
        <circle cx="0" cy="0" r="26.4" fill="url(#rgrad1)" filter="url(#shadow)" opacity="0.12"/>
        <text x="0" y="5" text-anchor="middle" font-family="Arial, sans-serif" font-size="14" fill="#FFFFFF" opacity="0.12">339</text>
      </g>
      </g>
      </g>
      </g>
      </g>
      </g>
      </g>
  </g>
  <g transform="translate(1008.9, 368.7)">
      <g transform="translate(5.00,0.05) rotate(4.37) scale(1.000)">
        <g transform="translate(4.41,-1.14) rotate(9.53) scale(0.980)">
        <g transform="translate(2.75,-2.22) rotate(14.91) scale(0.960)">
        <g transform="translate(0.41,-3.10) rotate(19.92) scale(0.940)" clip-path="url(#clipHex)">
        <g transform="translate(-2.03,-3.71) rotate(23.94) scale(0.920)">
        <g transform="translate(-3.97,-3.99) rotate(26.44) scale(0.900)">
        <g transform="translate(-4.94,-3.91) rotate(26.95) scale(0.880)">
        <path d="M0.0,-67.1 L19.7,-27.2 L63.9,-20.7 L31.9,10.4 L39.5,54.3 L0.0,33.6 L-39.5,54.3 L-31.9,10.4 L-63.9,-20.7 L-19.7,-27.2Z" fill="url(#lgrad2)" filter="url(#blur2)" opacity="0.10"/>
      </g>
      </g>
      </g>
      </g>
      </g>
      </g>
      </g>
  </g>
  <g transform="translate(1221.5, 385.7)">
      <g transform="translate(2.75,-3.34) rotate(4.37) scale(1.000)">
        <g transform="translate(0.41,-3.84) rotate(9.53) scale(0.980)">
        <g transform="translate(-2.03,-4.00) rotate(14.91) scale(0.960)">
        <g transform="translate(-3.97,-3.80) rotate(19.92) scale(0.940)">
        <g transform="translate(-4.94,-3.26) rotate(23.94) scale(0.920)">
        <g transform="translate(-4.70,-2.43) rotate(26.44) scale(0.900)" mask="url(#maskCircleFade)">
        <g transform="translate(-3.31,-1.38) rotate(26.95) scale(0.880)">
        <rect x="-37.5" y="-37.5" width="75.0" height="75.0" rx="18.7" fill="url(#rgrad3)" filter="url(#shadow)" opacity="0.11"/>
        <circle cx="0" cy="0" r="25.0" fill="url(#rgrad4)" opacity="0.08"/>
      </g>
      </g>
      </g>
      </g>
      </g>
      </g>
      </g>
  </g>
  <g transform="translate(1428.8, 400.0)">
      <g transform="translate(-2.03,-3.66) rotate(4.37) scale(1.000)">
        <g transform="translate(-3.97,-3.01) rotate(9.53) scale(0.980)">
        <g transform="translate(-4.94,-2.10) rotate(14.91) scale(0.960)">
        <g transform="translate(-4.70,-1.00) rotate(19.92) scale(0.940)">
        <g transform="translate(-3.31,0.19) rotate(23.94) scale(0.920)">
        <g transform="translate(-1.11,1.36) rotate(26.44) scale(0.900)">
        <g transform="translate(1.36,2.41) rotate(26.95) scale(0.880)">
        <path d="M35.9,20.7 L0.0,41.4 L-35.9,20.7 L-35.9,-20.7 L-0.0,-41.4 L35.9,-20.7Z" fill="url(#rgrad4)" filter="url(#blur4)" opacity="0.16"/>
        <ellipse cx="0" cy="0" rx="17.3" ry="11.5" fill="#FFFFFF" opacity="0.08"/>
      </g>
      </g>
      </g>
      </g>
      </g>
      </g>
      </g>
  </g>
  <g transform="translate(1634.0, 405.0)">
      <g transform="translate(-4.94,-0.61) rotate(4.37) scale(1.000)">
        <g transform="translate(-4.70,0.59) rotate(9.53) scale(0.980)">
        <g transform="translate(-3.31,1.73) rotate(14.91) scale(0.960)">
        <g transform="translate(-1.11,2.72) rotate(19.92) scale(0.940)" clip-path="url(#clipCircle)">
        <g transform="translate(1.36,3.46) rotate(23.94) scale(0.920)">
        <g transform="translate(3.50,3.90) rotate(26.44) scale(0.900)">
        <g transform="translate(4.78,3.99) rotate(26.95) scale(0.880)">
        <circle cx="0" cy="0" r="27.4" fill="url(#lgrad0)" filter="url(#shadow)" opacity="0.24"/>
        <text x="0" y="5" text-anchor="middle" font-family="Arial, sans-serif" font-size="14" fill="#FFFFFF" opacity="0.24">339</text>
      </g>
      </g>
      </g>
      </g>
      </g>
      </g>
      </g>
  </g>
  <g transform="translate(80.6, 678.1)">
      <g transform="translate(-3.31,3.00) rotate(4.37) scale(1.000)">
        <g transform="translate(-1.11,3.65) rotate(9.53) scale(0.980)">
        <g transform="translate(1.36,3.97) rotate(14.91) scale(0.960)">
        <g transform="translate(3.50,3.94) rotate(19.92) scale(0.940)">
        <g transform="translate(4.78,3.55) rotate(23.94) scale(0.920)">
        <g transform="translate(4.89,2.85) rotate(26.44) scale(0.900)" mask="url(#maskGradient)">
        <g transform="translate(3.81,1.90) rotate(26.95) scale(0.880)">
        <path d="M0.0,-45.3 L13.3,-18.3 L43.1,-14.0 L21.6,7.0 L26.7,36.7 L0.0,22.7 L-26.7,36.7 L-21.6,7.0 L-43.1,-14.0 L-13.3,-18.3Z" fill="url(#rgrad1)" filter="url(#blur1)" opacity="0.34"/>
      </g>
      </g>
      </g>
      </g>
      </g>
      </g>
      </g>
  </g>
  <g transform="translate(292.0, 662.8)">
      <g transform="translate(1.36,3.85) rotate(4.37) scale(1.000)">
        <g transform="translate(3.50,3.35) rotate(9.53) scale(0.980)">
        <g transform="translate(4.78,2.56) rotate(14.91) scale(0.960)">
        <g transform="translate(4.89,1.54) rotate(19.92) scale(0.940)">
        <g transform="translate(3.81,0.38) rotate(23.94) scale(0.920)">
        <g transform="translate(1.79,-0.82) rotate(26.44) scale(0.900)">
        <g transform="translate(-0.67,-1.94) rotate(26.95) scale(0.880)">
        <rect x="-24.7" y="-24.7" width="49.4" height="49.4" rx="12.3" fill="url(#rgrad2)" filter="url(#shadow)" opacity="0.45"/>
        <circle cx="0" cy="0" r="16.5" fill="url(#rgrad3)" opacity="0.32"/>
      </g>
      </g>
      </g>
      </g>
      </g>
      </g>
      </g>
  </g>
  <g transform="translate(510.3, 646.1)">
      <g transform="translate(4.78,1.16) rotate(4.37) scale(1.000)">
        <g transform="translate(4.89,-0.02) rotate(9.53) scale(0.980)">
        <g transform="translate(3.81,-1.20) rotate(14.91) scale(0.960)">
        <g transform="translate(1.79,-2.28) rotate(19.92) scale(0.940)" clip-path="url(#clipRect)">
        <g transform="translate(-0.67,-3.15) rotate(23.94) scale(0.920)">
        <g transform="translate(-2.96,-3.74) rotate(26.44) scale(0.900)">
        <g transform="translate(-4.53,-3.99) rotate(26.95) scale(0.880)">
        <path d="M32.8,19.0 L0.0,37.9 L-32.8,19.0 L-32.8,-19.0 L-0.0,-37.9 L32.8,-19.0Z" fill="url(#lgrad3)" filter="url(#blur3)" opacity="0.57"/>
        <ellipse cx="0" cy="0" rx="15.8" ry="10.5" fill="#FFFFFF" opacity="0.29"/>
      </g>
      </g>
      </g>
      </g>
      </g>
      </g>
      </g>
  </g>
  <g transform="translate(735.8, 636.0)">
      <g transform="translate(3.81,-2.59) rotate(4.37) scale(1.000)">
        <g transform="translate(1.79,-3.38) rotate(9.53) scale(0.980)">
        <g transform="translate(-0.67,-3.86) rotate(14.91) scale(0.960)">
        <g transform="translate(-2.96,-4.00) rotate(19.92) scale(0.940)">
        <g transform="translate(-4.53,-3.78) rotate(23.94) scale(0.920)">
        <g transform="translate(-4.99,-3.22) rotate(26.44) scale(0.900)" mask="url(#maskDynamic)">
        <g transform="translate(-4.23,-2.38) rotate(26.95) scale(0.880)">
        <circle cx="0" cy="0" r="37.0" fill="url(#rgrad4)" filter="url(#shadow)" opacity="0.68"/>
        <text x="0" y="5" text-anchor="middle" font-family="Arial, sans-serif" font-size="14" fill="#FFFFFF" opacity="0.68">339</text>
      </g>
      </g>
      </g>
      </g>
      </g>
      </g>
      </g>
  </g>
  <g transform="translate(967.2, 637.2)">
      <g transform="translate(-0.67,-3.96) rotate(4.37) scale(1.000)">
        <g transform="translate(-2.96,-3.63) rotate(9.53) scale(0.980)">
        <g transform="translate(-4.53,-2.97) rotate(14.91) scale(0.960)">
        <g transform="translate(-4.99,-2.04) rotate(19.92) scale(0.940)">
        <g transform="translate(-4.23,-0.94) rotate(23.94) scale(0.920)">
        <g transform="translate(-2.43,0.26) rotate(26.44) scale(0.900)">
        <g transform="translate(-0.03,1.42) rotate(26.95) scale(0.880)">
        <path d="M0.0,-72.0 L21.2,-29.1 L68.5,-22.3 L34.2,11.1 L42.3,58.3 L0.0,36.0 L-42.3,58.3 L-34.2,11.1 L-68.5,-22.3 L-21.2,-29.1Z" fill="url(#rgrad0)" filter="url(#blur0)" opacity="0.78"/>
      </g>
      </g>
      </g>
      </g>
      </g>
      </g>
      </g>
  </g>
  <g transform="translate(1201.8, 649.1)">
      <g transform="translate(-4.53,-1.69) rotate(4.37) scale(1.000)">
        <g transform="translate(-4.99,-0.54) rotate(9.53) scale(0.980)">
        <g transform="translate(-4.23,0.65) rotate(14.91) scale(0.960)">
        <g transform="translate(-2.43,1.79) rotate(19.92) scale(0.940)" clip-path="url(#clipStar)">
        <g transform="translate(-0.03,2.77) rotate(23.94) scale(0.920)">
        <g transform="translate(2.37,3.50) rotate(26.44) scale(0.900)">
        <g transform="translate(4.19,3.91) rotate(26.95) scale(0.880)">
        <rect x="-29.5" y="-29.5" width="58.9" height="58.9" rx="14.7" fill="url(#lgrad1)" filter="url(#shadow)" opacity="0.85"/>
        <circle cx="0" cy="0" r="19.6" fill="url(#rgrad2)" opacity="0.60"/>
      </g>
      </g>
      </g>
      </g>
      </g>
      </g>
      </g>
  </g>
  <g transform="translate(1435.9, 666.1)">
      <g transform="translate(-4.23,2.14) rotate(4.37) scale(1.000)">
        <g transform="translate(-2.43,3.04) rotate(9.53) scale(0.980)">
        <g transform="translate(-0.03,3.67) rotate(14.91) scale(0.960)">
        <g transform="translate(2.37,3.98) rotate(19.92) scale(0.940)">
        <g transform="translate(4.19,3.93) rotate(23.94) scale(0.920)">
        <g transform="translate(4.98,3.52) rotate(26.44) scale(0.900)" mask="url(#maskStripes)">
        <g transform="translate(4.56,2.81) rotate(26.95) scale(0.880)">
        <path d="M24.3,14.0 L0.0,28.1 L-24.3,14.0 L-24.3,-14.0 L-0.0,-28.1 L24.3,-14.0Z" fill="url(#rgrad2)" filter="url(#blur2)" opacity="0.89"/>
        <ellipse cx="0" cy="0" rx="11.7" ry="7.8" fill="#FFFFFF" opacity="0.45"/>
      </g>
      </g>
      </g>
      </g>
      </g>
      </g>
      </g>
  </g>
  <g transform="translate(1666.2, 680.3)">
      <g transform="translate(-0.03,4.00) rotate(4.37) scale(1.000)">
        <g transform="translate(2.37,3.83) rotate(9.53) scale(0.980)">
        <g transform="translate(4.19,3.32) rotate(14.91) scale(0.960)">
        <g transform="translate(4.98,2.51) rotate(19.92) scale(0.940)">
        <g transform="translate(4.56,1.48) rotate(23.94) scale(0.920)">
        <g transform="translate(3.02,0.31) rotate(26.44) scale(0.900)">
        <g transform="translate(0.74,-0.88) rotate(26.95) scale(0.880)">
        <circle cx="0" cy="0" r="23.4" fill="url(#rgrad3)" filter="url(#shadow)" opacity="0.90"/>
        <text x="0" y="5" text-anchor="middle" font-family="Arial, sans-serif" font-size="14" fill="#FFFFFF" opacity="0.90">339</text>
      </g>
      </g>
      </g>
      </g>
      </g>
      </g>
      </g>
  </g>
  <g transform="translate(130.0, 964.9)">
      <g transform="translate(4.19,2.18) rotate(4.37) scale(1.000)">
        <g transform="translate(4.98,1.10) rotate(9.53) scale(0.980)">
        <g transform="translate(4.56,-0.09) rotate(14.91) scale(0.960)">
        <g transform="translate(3.02,-1.27) rotate(19.92) scale(0.940)" clip-path="url(#clipDynamic)">
        <g transform="translate(0.74,-2.33) rotate(23.94) scale(0.920)">
        <g transform="translate(-1.72,-3.19) rotate(26.44) scale(0.900)">
        <g transform="translate(-3.76,-3.76) rotate(26.95) scale(0.880)">
        <path d="M0.0,-59.0 L17.3,-23.8 L56.1,-18.2 L28.0,9.1 L34.7,47.7 L0.0,29.5 L-34.7,47.7 L-28.0,9.1 L-56.1,-18.2 L-17.3,-23.8Z" fill="url(#lgrad4)" filter="url(#blur4)" opacity="0.87"/>
      </g>
      </g>
      </g>
      </g>
      </g>
      </g>
      </g>
  </g>
  <g transform="translate(385.0, 257.8)" mask="url(#maskGradient)">
    <ellipse cx="0" cy="0" rx="200" ry="150" fill="url(#rgrad0)" filter="url(#blur3)" opacity="0.3"/>
  </g>
  <g transform="translate(801.6, 224.0)" mask="url(#maskCircleFade)">
    <ellipse cx="0" cy="0" rx="200" ry="150" fill="url(#rgrad1)" filter="url(#blur3)" opacity="0.3"/>
  </g>
  <g transform="translate(1216.7, 225.8)" mask="url(#maskStripes)">
    <ellipse cx="0" cy="0" rx="200" ry="150" fill="url(#rgrad2)" filter="url(#blur3)" opacity="0.3"/>
  </g>
</svg>