<?xml version="1.0" encoding="UTF-8"?>
<svg xmlns="http://www.w3.org/2000/svg" viewBox="0 0 1920 1080" width="1920" height="1080">
  <defs>
    <filter id="blur0" x="-50%" y="-50%" width="200%" height="200%">
      <feGaussianBlur in="SourceGraphic" stdDeviation="1"/>
    </filter>
    <filter id="blur1" x="-50%" y="-50%" width="200%" height="200%">
      <feGaussianBlur in="SourceGraphic" stdDeviation="3"/>
    </filter>
    <filter id="blur2" x="-50%" y="-50%" width="200%" height="200%">
      <feGaussianBlur in="SourceGraphic" stdDeviation="5"/>
    </filter>
    <filter id="blur3" x="-50%" y="-50%" width="200%" height="200%">
      <feGaussianBlur in="SourceGraphic" stdDeviation="7"/>
    </filter>
    <filter id="blur4" x="-50%" y="-50%" width="200%" height="200%">
      <feGaussianBlur in="SourceGraphic" stdDeviation="9"/>
    </filter>
    <filter id="shadow" x="-50%" y="-50%" width="200%" height="200%">
      <feGaussianBlur in="SourceAlpha" stdDeviation="3" result="blur"/>
      <feOffset in="blur" dx="4" dy="4" result="offsetBlur"/>
      <feMerge>
        <feMergeNode in="offsetBlur"/>
        <feMergeNode in="SourceGraphic"/>
      </feMerge>
    </filter>
    <linearGradient id="lgrad0" x1="0%" y1="0%" x2="2.3%" y2="65.0%">
      <stop offset="0%" stop-color="#FF6B6B"/>
      <stop offset="33%" stop-color="#4ECDC4"/>
      <stop offset="66%" stop-color="#45B7D1"/>
      <stop offset="100%" stop-color="#96E6A1"/>
    </linearGradient>
    <linearGradient id="lgrad1" x1="0%" y1="0%" x2="1.2%" y2="39.2%">
      <stop offset="0%" stop-color="#FFE66D"/>
      <stop offset="33%" stop-color="#FF6B6B"/>
      <stop offset="66%" stop-color="#C44D58"/>
      <stop offset="100%" stop-color="#8B0000"/>
    </linearGradient>
    <linearGradient id="lgrad2" x1="0%" y1="0%" x2="13.1%" y2="16.2%">
      <stop offset="0%" stop-color="#4169E1"/>
      <stop offset="33%" stop-color="#7B68EE"/>
      <stop offset="66%" stop-color="#9370DB"/>
      <stop offset="100%" stop-color="#FFD700"/>
    </linearGradient>
    <linearGradient id="lgrad3" x1="0%" y1="0%" x2="35.0%" y2="2.3%">
      <stop offset="0%" stop-color="#32CD32"/>
      <stop offset="33%" stop-color="#228B22"/>
      <stop offset="66%" stop-color="#006400"/>
      <stop offset="100%" stop-color="#ADFF2F"/>
    </linearGradient>
    <linearGradient id="lgrad4" x1="0%" y1="0%" x2="60.8%" y2="1.2%">
      <stop offset="0%" stop-color="#FF1493"/>
      <stop offset="33%" stop-color="#FF69B4"/>
      <stop offset="66%" stop-color="#FFB6C1"/>
      <stop offset="100%" stop-color="#FFC0CB"/>
    </linearGradient>
    <radialGradient id="rgrad0" cx="60.5%" cy="37.0%" r="60%">
      <stop offset="0%" stop-color="#FF6B6B" stop-opacity="1"/>
      <stop offset="50%" stop-color="#4ECDC4" stop-opacity="0.8"/>
      <stop offset="100%" stop-color="#45B7D1" stop-opacity="0.6"/>
    </radialGradient>
    <radialGradient id="rgrad1" cx="30.5%" cy="45.0%" r="60%">
      <stop offset="0%" stop-color="#FFE66D" stop-opacity="1"/>
      <stop offset="50%" stop-color="#FF6B6B" stop-opacity="0.8"/>
      <stop offset="100%" stop-color="#C44D58" stop-opacity="0.6"/>
    </radialGradient>
    <radialGradient id="rgrad2" cx="40.5%" cy="53.0%" r="60%">
      <stop offset="0%" stop-color="#4169E1" stop-opacity="1"/>
      <stop offset="50%" stop-color="#7B68EE" stop-opacity="0.8"/>
      <stop offset="100%" stop-color="#9370DB" stop-opacity="0.6"/>
    </radialGradient>
    <radialGradient id="rgrad3" cx="50.5%" cy="61.0%" r="60%">
      <stop offset="0%" stop-color="#32CD32" stop-opacity="1"/>
      <stop offset="50%" stop-color="#228B22" stop-opacity="0.8"/>
      <stop offset="100%" stop-color="#006400" stop-opacity="0.6"/>
    </radialGradient>
    <radialGradient id="rgrad4" cx="60.5%" cy="69.0%" r="60%">
      <stop offset="0%" stop-color="#FF1493" stop-opacity="1"/>
      <stop offset="50%" stop-color="#FF69B4" stop-opacity="0.8"/>
      <stop offset="100%" stop-color="#FFB6C1" stop-opacity="0.6"/>
    </radialGradient>
    <clipPath id="clipCircle">
      <circle cx="0" cy="0" r="50"/>
    </clipPath>
    <clipPath id="clipStar">
      <path d="M0.0,-50.0 L14.7,-20.2 L47.6,-15.5 L23.8,7.7 L29.4,40.5 L0.0,25.0 L-29.4,40.5 L-23.8,7.7 L-47.6,-15.5 L-14.7,-20.2Z"/>
    </clipPath>
    <clipPath id="clipHex">
      <path d="M39.0,22.5 L0.0,45.0 L-39.0,22.5 L-39.0,-22.5 L-0.0,-45.0 L39.0,-22.5Z"/>
    </clipPath>
    <clipPath id="clipRect">
      <rect x="-40" y="-30" width="80" height="60" rx="10"/>
    </clipPath>
    <clipPath id="clipDynamic">
      <circle cx="0" cy="0" r="49.9"/>
    </clipPath>
    <mask id="maskGradient" maskContentUnits="objectBoundingBox">
      <rect x="0" y="0" width="1" height="1" fill="url(#maskGrad)"/>
    </mask>
    <linearGradient id="maskGrad" x1="0%" y1="0%" x2="100%" y2="100%">
      <stop offset="0%" stop-color="white"/>
      <stop offset="100%" stop-color="black"/>
    </linearGradient>
    <mask id="maskCircleFade">
      <circle cx="0" cy="0" r="60" fill="white"/>
      <circle cx="0" cy="0" r="30" fill="black"/>
    </mask>
    <mask id="maskStripes">
      <rect x="-50" y="-50" width="100" height="100" fill="white"/>
      <rect x="-50" y="-40" width="100" height="10" fill="black"/>
      <rect x="-50" y="-20" width="100" height="10" fill="black"/>
      <rect x="-50" y="0" width="100" height="10" fill="black"/>
      <rect x="-50" y="20" width="100" height="10" fill="black"/>
      <rect x="-50" y="40" width="100" height="10" fill="black"/>
    </mask>
    <mask id="maskDynamic">
      <rect x="-60" y="-60" width="120" height="120" fill="white" fill-opacity="0.77"/>
      <circle cx="0" cy="0" r="25" fill="white"/>
    </mask>
  </defs>
  <rect width="1920" height="1080" fill="url(#lgrad0)"/>
  <g transform="translate(129.9, 102.5)">
      <g transform="translate(4.98,0.40) rotate(3.36) scale(1.000)">
        <g transform="translate(4.60,-0.80) rotate(8.05) scale(0.980)">
        <g transform="translate(3.10,-1.92) rotate(13.60) scale(0.960)">
        <g transform="translate(0.85,-2.87) rotate(19.45) scale(0.940)" clip-path="url(#clipCircle)">
        <g transform="translate(-1.62,-3.57) rotate(24.98) scale(0.920)">
        <g transform="translate(-3.69,-3.94) rotate(29.59) scale(0.900)">
        <g transform="translate(-4.86,-3.97) rotate(32.69) scale(0.880)">
        <path d="M0.0,-70.1 L20.6,-28.3 L66.6,-21.7 L33.3,10.8 L41.2,56.7 L0.0,35.0 L-41.2,56.7 L-33.3,10.8 L-66.6,-21.7 L-20.6,-28.3Z" fill="url(#lgrad0)" filter="url(#blur0)" opacity="0.77"/>
      </g>
      </g>
      </g>
      </g>
      </g>
      </g>
      </g>
  </g>
  <g transform="translate(347.6, 85.9)">
      <g transform="translate(3.10,-3.14) rotate(3.36) scale(1.000)">
        <g transform="translate(0.85,-3.73) rotate(8.05) scale(0.980)">
        <g transform="translate(-1.62,-3.99) rotate(13.60) scale(0.960)">
        <g transform="translate(-3.69,-3.89) rotate(19.45) scale(0.940)">
        <g transform="translate(-4.86,-3.45) rotate(24.98) scale(0.920)">
        <g transform="translate(-4.83,-2.70) rotate(29.59) scale(0.900)" mask="url(#maskCircleFade)">
        <g transform="translate(-3.63,-1.71) rotate(32.69) scale(0.880)">
        <rect x="-37.4" y="-37.4" width="74.8" height="74.8" rx="18.7" fill="url(#rgrad1)" filter="url(#shadow)" opacity="0.84"/>
        <circle cx="0" cy="0" r="24.9" fill="url(#rgrad2)" opacity="0.59"/>
      </g>
      </g>
      </g>
      </g>
      </g>
      </g>
      </g>
  </g>
  <g transform="translate(558.6, 75.9)">
      <g transform="translate(-1.62,-3.78) rotate(3.36) scale(1.000)">
        <g transform="translate(-3.69,-3.23) rotate(8.05) scale(0.980)">
        <g transform="translate(-4.86,-2.39) rotate(13.60) scale(0.960)">
        <g transform="translate(-4.83,-1.34) rotate(19.45) scale(0.940)">
        <g transform="translate(-3.63,-0.16) rotate(24.98) scale(0.920)">
        <g transform="translate(-1.53,1.03) rotate(29.59) scale(0.900)">
        <g transform="translate(0.94,2.12) rotate(32.69) scale(0.880)">
        <path d="M34.3,19.8 L0.0,39.6 L-34.3,19.8 L-34.3,-19.8 L-0.0,-39.6 L34.3,-19.8Z" fill="url(#rgrad2)" filter="url(#blur2)" opacity="0.89"/>
        <ellipse cx="0" cy="0" rx="16.5" ry="11.0" fill="#FFFFFF" opacity="0.44"/>
      </g>
      </g>
      </g>
      </g>
      </g>
      </g>
      </g>
  </g>
  <g transform="translate(765.1, 77.3)">
      <g transform="translate(-4.86,-0.95) rotate(3.36) scale(1.000)">
        <g transform="translate(-4.83,0.24) rotate(8.05) scale(0.980)">
        <g transform="translate(-3.63,1.41) rotate(13.60) scale(0.960)">
        <g transform="translate(-1.53,2.45) rotate(19.45) scale(0.940)" clip-path="url(#clipRect)">
        <g transform="translate(0.94,3.28) rotate(24.98) scale(0.920)">
        <g transform="translate(3.18,3.81) rotate(29.59) scale(0.900)">
        <g transform="translate(4.64,4.00) rotate(32.69) scale(0.880)">
        <circle cx="0" cy="0" r="25.8" fill="url(#lgrad3)" filter="url(#shadow)" opacity="0.90"/>
        <text x="0" y="5" text-anchor="middle" font-family="Arial, sans-serif" font-size="14" fill="#FFFFFF" opacity="0.90">235</text>
      </g>
      </g>
      </g>
      </g>
      </g>
      </g>
      </g>
  </g>
  <g transform="translate(970.3, 89.3)">
      <g transform="translate(-3.63,2.75) rotate(3.36) scale(1.000)">
        <g transform="translate(-1.53,3.49) rotate(8.05) scale(0.980)">
        <g transform="translate(0.94,3.91) rotate(13.60) scale(0.960)">
        <g transform="translate(3.18,3.98) rotate(19.45) scale(0.940)">
        <g transform="translate(4.64,3.70) rotate(24.98) scale(0.920)">
        <g transform="translate(4.97,3.09) rotate(29.59) scale(0.900)" mask="url(#maskGradient)">
        <g transform="translate(4.08,2.20) rotate(32.69) scale(0.880)">
        <path d="M0.0,-45.0 L13.2,-18.2 L42.8,-13.9 L21.4,7.0 L26.5,36.4 L0.0,22.5 L-26.5,36.4 L-21.4,7.0 L-42.8,-13.9 L-13.2,-18.2Z" fill="url(#rgrad4)" filter="url(#blur4)" opacity="0.87"/>
      </g>
      </g>
      </g>
      </g>
      </g>
      </g>
      </g>
  </g>
  <g transform="translate(1177.9, 106.4)">
      <g transform="translate(0.94,3.93) rotate(3.36) scale(1.000)">
        <g transform="translate(3.18,3.53) rotate(8.05) scale(0.980)">
        <g transform="translate(4.64,2.82) rotate(13.60) scale(0.960)">
        <g transform="translate(4.97,1.86) rotate(19.45) scale(0.940)">
        <g transform="translate(4.08,0.72) rotate(24.98) scale(0.920)">
        <g transform="translate(2.19,-0.47) rotate(29.59) scale(0.900)">
        <g transform="translate(-0.23,-1.62) rotate(32.69) scale(0.880)">
        <rect x="-26.1" y="-26.1" width="52.2" height="52.2" rx="13.0" fill="url(#rgrad0)" filter="url(#shadow)" opacity="0.81"/>
        <circle cx="0" cy="0" r="17.4" fill="url(#rgrad1)" opacity="0.57"/>
      </g>
      </g>
      </g>
      </g>
      </g>
      </g>
      </g>
  </g>
  <g transform="translate(1390.9, 120.5)">
      <g transform="translate(4.64,1.49) rotate(3.36) scale(1.000)">
        <g transform="translate(4.97,0.33) rotate(8.05) scale(0.980)">
        <g transform="translate(4.08,-0.86) rotate(13.60) scale(0.960)">
        <g transform="translate(2.19,-1.98) rotate(19.45) scale(0.940)" clip-path="url(#clipStar)">
        <g transform="translate(-0.23,-2.92) rotate(24.98) scale(0.920)">
        <g transform="translate(-2.60,-3.60) rotate(29.59) scale(0.900)">
        <g transform="translate(-4.33,-3.95) rotate(32.69) scale(0.880)">
        <path d="M34.6,20.0 L0.0,39.9 L-34.6,20.0 L-34.6,-20.0 L-0.0,-39.9 L34.6,-20.0Z" fill="url(#lgrad1)" filter="url(#blur1)" opacity="0.73"/>
        <ellipse cx="0" cy="0" rx="16.6" ry="11.1" fill="#FFFFFF" opacity="0.36"/>
      </g>
      </g>
      </g>
      </g>
      </g>
      </g>
      </g>
  </g>
  <g transform="translate(1611.0, 124.9)">
      <g transform="translate(4.08,-2.32) rotate(3.36) scale(1.000)">
        <g transform="translate(2.19,-3.18) rotate(8.05) scale(0.980)">
        <g transform="translate(-0.23,-3.75) rotate(13.60) scale(0.960)">
        <g transform="translate(-2.60,-3.99) rotate(19.45) scale(0.940)">
        <g transform="translate(-4.33,-3.88) rotate(24.98) scale(0.920)">
        <g transform="translate(-5.00,-3.42) rotate(29.59) scale(0.900)" mask="url(#maskDynamic)">
        <g transform="translate(-4.44,-2.65) rotate(32.69) scale(0.880)">
        <circle cx="0" cy="0" r="37.4" fill="url(#rgrad2)" filter="url(#shadow)" opacity="0.62"/>
        <text x="0" y="5" text-anchor="middle" font-family="Arial, sans-serif" font-size="14" fill="#FFFFFF" opacity="0.62">235</text>
      </g>
      </g>
      </g>
      </g>
      </g>
      </g>
      </g>
  </g>
  <g transform="translate(78.2, 397.6)">
      <g transform="translate(-0.23,-4.00) rotate(3.36) scale(1.000)">
        <g transform="translate(-2.60,-3.76) rotate(8.05) scale(0.980)">
        <g transform="translate(-4.33,-3.19) rotate(13.60) scale(0.960)">
        <g transform="translate(-5.00,-2.34) rotate(19.45) scale(0.940)">
        <g transform="translate(-4.44,-1.27) rotate(24.98) scale(0.920)">
        <g transform="translate(-2.80,-0.10) rotate(29.59) scale(0.900)">
        <g transform="translate(-0.47,1.09) rotate(32.69) scale(0.880)">
        <path d="M0.0,-69.5 L20.4,-28.1 L66.1,-21.5 L33.1,10.7 L40.9,56.3 L0.0,34.8 L-40.9,56.3 L-33.1,10.7 L-66.1,-21.5 L-20.4,-28.1Z" fill="url(#rgrad3)" filter="url(#blur3)" opacity="0.50"/>
      </g>
      </g>
      </g>
      </g>
      </g>
      </g>
      </g>
  </g>
  <g transform="translate(310.8, 382.1)">
      <g transform="translate(-4.33,-2.00) rotate(3.36) scale(1.000)">
        <g transform="translate(-5.00,-0.89) rotate(8.05) scale(0.980)">
        <g transform="translate(-4.44,0.30) rotate(13.60) scale(0.960)">
        <g transform="translate(-2.80,1.47) rotate(19.45) scale(0.940)" clip-path="url(#clipDynamic)">
        <g transform="translate(-0.47,2.50) rotate(24.98) scale(0.920)">
        <g transform="translate(1.97,3.31) rotate(29.59) scale(0.900)">
        <g transform="translate(3.93,3.83) rotate(32.69) scale(0.880)">
        <rect x="-27.7" y="-27.7" width="55.4" height="55.4" rx="13.9" fill="url(#lgrad4)" filter="url(#shadow)" opacity="0.38"/>
        <circle cx="0" cy="0" r="18.5" fill="url(#rgrad0)" opacity="0.27"/>
      </g>
      </g>
      </g>
      </g>
      </g>
      </g>
      </g>
  </g>
  <g transform="translate(545.6, 365.5)">
      <g transform="translate(-4.44,1.83) rotate(3.36) scale(1.000)">
        <g transform="translate(-2.80,2.80) rotate(8.05) scale(0.980)">
        <g transform="translate(-0.47,3.52) rotate(13.60) scale(0.960)">
        <g transform="translate(1.97,3.92) rotate(19.45) scale(0.940)">
        <g transform="translate(3.93,3.98) rotate(24.98) scale(0.920)">
        <g transform="translate(4.93,3.68) rotate(29.59) scale(0.900)" mask="url(#maskStripes)">
        <g transform="translate(4.72,3.05) rotate(32.69) scale(0.880)">
        <path d="M23.6,13.7 L0.0,27.3 L-23.6,13.7 L-23.6,-13.7 L-0.0,-27.3 L23.6,-13.7Z" fill="url(#rgrad0)" filter="url(#blur0)" opacity="0.28"/>
        <ellipse cx="0" cy="0" rx="11.4" ry="7.6" fill="#FFFFFF" opacity="0.14"/>
      </g>
      </g>
      </g>
      </g>
      </g>
      </g>
      </g>
  </g>
  <g transform="translate(779.1, 355.8)">
      <g transform="translate(-0.47,3.98) rotate(3.36) scale(1.000)">
        <g transform="translate(1.97,3.92) rotate(8.05) scale(0.980)">
        <g transform="translate(3.93,3.50) rotate(13.60) scale(0.960)">
        <g transform="translate(4.93,2.77) rotate(19.45) scale(0.940)">
        <g transform="translate(4.72,1.80) rotate(24.98) scale(0.920)">
        <g transform="translate(3.36,0.66) rotate(29.59) scale(0.900)">
        <g transform="translate(1.17,-0.54) rotate(32.69) scale(0.880)">
        <circle cx="0" cy="0" r="24.5" fill="url(#rgrad1)" filter="url(#shadow)" opacity="0.19"/>
        <text x="0" y="5" text-anchor="middle" font-family="Arial, sans-serif" font-size="14" fill="#FFFFFF" opacity="0.19">235</text>
      </g>
      </g>
      </g>
      </g>
      </g>
      </g>
      </g>
  </g>
  <g transform="translate(1007.8, 357.5)">
      <g transform="translate(3.93,2.47) rotate(3.36) scale(1.000)">
        <g transform="translate(4.93,1.43) rotate(8.05) scale(0.980)">
        <g transform="translate(4.72,0.26) rotate(13.60) scale(0.960)">
        <g transform="translate(3.36,-0.93) rotate(19.45) scale(0.940)" clip-path="url(#clipHex)">
        <g transform="translate(1.17,-2.04) rotate(24.98) scale(0.920)">
        <g transform="translate(-1.30,-2.96) rotate(29.59) scale(0.900)">
        <g transform="translate(-3.46,-3.63) rotate(32.69) scale(0.880)">
        <path d="M0.0,-62.5 L18.4,-25.3 L59.5,-19.3 L29.7,9.7 L36.8,50.6 L0.0,31.3 L-36.8,50.6 L-29.7,9.7 L-59.5,-19.3 L-18.4,-25.3Z" fill="url(#lgrad2)" filter="url(#blur2)" opacity="0.13"/>
      </g>
      </g>
      </g>
      </g>
      </g>
      </g>
      </g>
  </g>
  <g transform="translate(1229.8, 369.7)">
      <g transform="translate(4.72,-1.31) rotate(3.36) scale(1.000)">
        <g transform="translate(3.36,-2.37) rotate(8.05) scale(0.980)">
        <g transform="translate(1.17,-3.22) rotate(13.60) scale(0.960)">
        <g transform="translate(-1.30,-3.78) rotate(19.45) scale(0.940)">
        <g transform="translate(-3.46,-4.00) rotate(24.98) scale(0.920)">
        <g transform="translate(-4.77,-3.86) rotate(29.59) scale(0.900)" mask="url(#maskCircleFade)">
        <g transform="translate(-4.91,-3.38) rotate(32.69) scale(0.880)">
        <rect x="-36.9" y="-36.9" width="73.8" height="73.8" rx="18.5" fill="url(#rgrad3)" filter="url(#shadow)" opacity="0.10"/>
        <circle cx="0" cy="0" r="24.6" fill="url(#rgrad4)" opacity="0.07"/>
      </g>
      </g>
      </g>
      </g>
      </g>
      </g>
      </g>
  </g>
  <g transform="translate(1444.5, 386.8)">
      <g transform="translate(1.17,-3.89) rotate(3.36) scale(1.000)">
        <g transform="translate(-1.30,-3.99) rotate(8.05) scale(0.980)">
        <g transform="translate(-3.46,-3.74) rotate(13.60) scale(0.960)">
        <g transform="translate(-4.77,-3.15) rotate(19.45) scale(0.940)">
        <g transform="translate(-4.91,-2.28) rotate(24.98) scale(0.920)">
        <g transform="translate(-3.85,-1.21) rotate(29.59) scale(0.900)">
        <g transform="translate(-1.84,-0.03) rotate(32.69) scale(0.880)">
        <path d="M37.6,21.7 L0.0,43.4 L-37.6,21.7 L-37.6,-21.7 L-0.0,-43.4 L37.6,-21.7Z" fill="url(#rgrad4)" filter="url(#blur4)" opacity="0.11"/>
        <ellipse cx="0" cy="0" rx="18.1" ry="12.1" fill="#FFFFFF" opacity="0.05"/>
      </g>
      </g>
      </g>
      </g>
      </g>
      </g>
      </g>
  </g>
  <g transform="translate(1653.1, 400.7)">
      <g transform="translate(-3.46,-2.89) rotate(3.36) scale(1.000)">
        <g transform="translate(-4.77,-1.94) rotate(8.05) scale(0.980)">
        <g transform="translate(-4.91,-0.82) rotate(13.60) scale(0.960)">
        <g transform="translate(-3.85,0.37) rotate(19.45) scale(0.940)" clip-path="url(#clipCircle)">
        <g transform="translate(-1.84,1.53) rotate(24.98) scale(0.920)">
        <g transform="translate(0.61,2.56) rotate(29.59) scale(0.900)">
        <g transform="translate(2.91,3.35) rotate(32.69) scale(0.880)">
        <circle cx="0" cy="0" r="29.8" fill="url(#lgrad0)" filter="url(#shadow)" opacity="0.15"/>
        <text x="0" y="5" text-anchor="middle" font-family="Arial, sans-serif" font-size="14" fill="#FFFFFF" opacity="0.15">235</text>
      </g>
      </g>
      </g>
      </g>
      </g>
      </g>
      </g>
  </g>
  <g transform="translate(98.6, 684.9)">
      <g transform="translate(-4.91,0.77) rotate(3.36) scale(1.000)">
        <g transform="translate(-3.85,1.89) rotate(8.05) scale(0.980)">
        <g transform="translate(-1.84,2.85) rotate(13.60) scale(0.960)">
        <g transform="translate(0.61,3.55) rotate(19.45) scale(0.940)">
        <g transform="translate(2.91,3.94) rotate(24.98) scale(0.920)">
        <g transform="translate(4.51,3.97) rotate(29.59) scale(0.900)" mask="url(#maskGradient)">
        <g transform="translate(4.99,3.65) rotate(32.69) scale(0.880)">
        <path d="M0.0,-47.2 L13.9,-19.1 L44.8,-14.6 L22.4,7.3 L27.7,38.2 L0.0,23.6 L-27.7,38.2 L-22.4,7.3 L-44.8,-14.6 L-13.9,-19.1Z" fill="url(#rgrad1)" filter="url(#blur1)" opacity="0.23"/>
      </g>
      </g>
      </g>
      </g>
      </g>
      </g>
      </g>
  </g>
  <g transform="translate(304.4, 677.3)">
      <g transform="translate(-1.84,3.72) rotate(3.36) scale(1.000)">
        <g transform="translate(0.61,3.99) rotate(8.05) scale(0.980)">
        <g transform="translate(2.91,3.90) rotate(13.60) scale(0.960)">
        <g transform="translate(4.51,3.47) rotate(19.45) scale(0.940)">
        <g transform="translate(4.99,2.72) rotate(24.98) scale(0.920)">
        <g transform="translate(4.26,1.73) rotate(29.59) scale(0.900)">
        <g transform="translate(2.48,0.59) rotate(32.69) scale(0.880)">
        <rect x="-23.3" y="-23.3" width="46.5" height="46.5" rx="11.6" fill="url(#rgrad2)" filter="url(#shadow)" opacity="0.33"/>
        <circle cx="0" cy="0" r="15.5" fill="url(#rgrad3)" opacity="0.23"/>
      </g>
      </g>
      </g>
      </g>
      </g>
      </g>
      </g>
  </g>
  <g transform="translate(514.0, 661.6)">
      <g transform="translate(2.91,3.25) rotate(3.36) scale(1.000)">
        <g transform="translate(4.51,2.42) rotate(8.05) scale(0.980)">
        <g transform="translate(4.99,1.37) rotate(13.60) scale(0.960)">
        <g transform="translate(4.26,0.19) rotate(19.45) scale(0.940)" clip-path="url(#clipRect)">
        <g transform="translate(2.48,-0.99) rotate(24.98) scale(0.920)">
        <g transform="translate(0.10,-2.10) rotate(29.59) scale(0.900)">
        <g transform="translate(-2.31,-3.01) rotate(32.69) scale(0.880)">
        <path d="M30.3,17.5 L0.0,35.0 L-30.3,17.5 L-30.3,-17.5 L-0.0,-35.0 L30.3,-17.5Z" fill="url(#lgrad3)" filter="url(#blur3)" opacity="0.44"/>
        <ellipse cx="0" cy="0" rx="14.6" ry="9.7" fill="#FFFFFF" opacity="0.22"/>
      </g>
      </g>
      </g>
      </g>
      </g>
      </g>
      </g>
  </g>
  <g transform="translate(730.0, 645.2)">
      <g transform="translate(4.99,-0.21) rotate(3.36) scale(1.000)">
        <g transform="translate(4.26,-1.38) rotate(8.05) scale(0.980)">
        <g transform="translate(2.48,-2.43) rotate(13.60) scale(0.960)">
        <g transform="translate(0.10,-3.26) rotate(19.45) scale(0.940)">
        <g transform="translate(-2.31,-3.80) rotate(24.98) scale(0.920)">
        <g transform="translate(-4.15,-4.00) rotate(29.59) scale(0.900)" mask="url(#maskDynamic)">
        <g transform="translate(-4.98,-3.84) rotate(32.69) scale(0.880)">
        <circle cx="0" cy="0" r="35.8" fill="url(#rgrad4)" filter="url(#shadow)" opacity="0.56"/>
        <text x="0" y="5" text-anchor="middle" font-family="Arial, sans-serif" font-size="14" fill="#FFFFFF" opacity="0.56">235</text>
      </g>
      </g>
      </g>
      </g>
      </g>
      </g>
      </g>
  </g>
  <g transform="translate(953.3, 635.7)">
      <g transform="translate(2.48,-3.47) rotate(3.36) scale(1.000)">
        <g transform="translate(0.10,-3.90) rotate(8.05) scale(0.980)">
        <g transform="translate(-2.31,-3.99) rotate(13.60) scale(0.960)">
        <g transform="translate(-4.15,-3.71) rotate(19.45) scale(0.940)">
        <g transform="translate(-4.98,-3.11) rotate(24.98) scale(0.920)">
        <g transform="translate(-4.59,-2.23) rotate(29.59) scale(0.900)">
        <g transform="translate(-3.07,-1.14) rotate(32.69) scale(0.880)">
        <path d="M0.0,-74.3 L21.8,-30.0 L70.6,-22.9 L35.3,11.5 L43.6,60.1 L0.0,37.1 L-43.6,60.1 L-35.3,11.5 L-70.6,-22.9 L-21.8,-30.0Z" fill="url(#rgrad0)" filter="url(#blur0)" opacity="0.67"/>
      </g>
      </g>
      </g>
      </g>
      </g>
      </g>
      </g>
  </g>
  <g transform="translate(1183.2, 637.6)">
      <g transform="translate(-2.31,-3.55) rotate(3.36) scale(1.000)">
        <g transform="translate(-4.15,-2.84) rotate(8.05) scale(0.980)">
        <g transform="translate(-4.98,-1.88) rotate(13.60) scale(0.960)">
        <g transform="translate(-4.59,-0.76) rotate(19.45) scale(0.940)" clip-path="url(#clipStar)">
        <g transform="translate(-3.07,0.44) rotate(24.98) scale(0.920)">
        <g transform="translate(-0.80,1.59) rotate(29.59) scale(0.900)">
        <g transform="translate(1.66,2.61) rotate(32.69) scale(0.880)">
        <rect x="-31.9" y="-31.9" width="63.8" height="63.8" rx="15.9" fill="url(#lgrad1)" filter="url(#shadow)" opacity="0.77"/>
        <circle cx="0" cy="0" r="21.3" fill="url(#rgrad2)" opacity="0.54"/>
      </g>
      </g>
      </g>
      </g>
      </g>
      </g>
      </g>
  </g>
  <g transform="translate(1417.2, 650.1)">
      <g transform="translate(-4.98,-0.36) rotate(3.36) scale(1.000)">
        <g transform="translate(-4.59,0.83) rotate(8.05) scale(0.980)">
        <g transform="translate(-3.07,1.95) rotate(13.60) scale(0.960)">
        <g transform="translate(-0.80,2.90) rotate(19.45) scale(0.940)">
        <g transform="translate(1.66,3.58) rotate(24.98) scale(0.920)">
        <g transform="translate(3.72,3.95) rotate(29.59) scale(0.900)" mask="url(#maskStripes)">
        <g transform="translate(4.87,3.96) rotate(32.69) scale(0.880)">
        <path d="M25.9,15.0 L0.0,29.9 L-25.9,15.0 L-25.9,-15.0 L-0.0,-29.9 L25.9,-15.0Z" fill="url(#rgrad2)" filter="url(#blur2)" opacity="0.85"/>
        <ellipse cx="0" cy="0" rx="12.5" ry="8.3" fill="#FFFFFF" opacity="0.42"/>
      </g>
      </g>
      </g>
      </g>
      </g>
      </g>
      </g>
  </g>
  <g transform="translate(1651.8, 667.2)">
      <g transform="translate(-3.07,3.16) rotate(3.36) scale(1.000)">
        <g transform="translate(-0.80,3.74) rotate(8.05) scale(0.980)">
        <g transform="translate(1.66,3.99) rotate(13.60) scale(0.960)">
        <g transform="translate(3.72,3.89) rotate(19.45) scale(0.940)">
        <g transform="translate(4.87,3.43) rotate(24.98) scale(0.920)">
        <g transform="translate(4.82,2.67) rotate(29.59) scale(0.900)">
        <g transform="translate(3.60,1.67) rotate(32.69) scale(0.880)">
        <circle cx="0" cy="0" r="22.6" fill="url(#rgrad3)" filter="url(#shadow)" opacity="0.89"/>
        <text x="0" y="5" text-anchor="middle" font-family="Arial, sans-serif" font-size="14" fill="#FFFFFF" opacity="0.89">235</text>
      </g>
      </g>
      </g>
      </g>
      </g>
      </g>
      </g>
  </g>
  <g transform="translate(123.6, 960.9)">
      <g transform="translate(1.66,3.77) rotate(3.36) scale(1.000)">
        <g transform="translate(3.72,3.21) rotate(8.05) scale(0.980)">
        <g transform="translate(4.87,2.36) rotate(13.60) scale(0.960)">
        <g transform="translate(4.82,1.30) rotate(19.45) scale(0.940)" clip-path="url(#clipDynamic)">
        <g transform="translate(3.60,0.13) rotate(24.98) scale(0.920)">
        <g transform="translate(1.49,-1.06) rotate(29.59) scale(0.900)">
        <g transform="translate(-0.98,-2.15) rotate(32.69) scale(0.880)">
        <path d="M0.0,-54.2 L15.9,-21.9 L51.5,-16.7 L25.8,8.4 L31.9,43.9 L0.0,27.1 L-31.9,43.9 L-25.8,8.4 L-51.5,-16.7 L-15.9,-21.9Z" fill="url(#lgrad4)" filter="url(#blur4)" opacity="0.90"/>
      </g>
      </g>
      </g>
      </g>
      </g>
      </g>
      </g>
  </g>
  <g transform="translate(399.5, 307.9)" mask="url(#maskGradient)">
    <ellipse cx="0" cy="0" rx="200" ry="150" fill="url(#rgrad0)" filter="url(#blur3)" opacity="0.3"/>
  </g>
  <g transform="translate(862.1, 254.8)" mask="url(#maskCircleFade)">
    <ellipse cx="0" cy="0" rx="200" ry="150" fill="url(#rgrad1)" filter="url(#blur3)" opacity="0.3"/>
  </g>
  <g transform="translate(1267.6, 222.9)" mask="url(#maskStripes)">
    <ellipse cx="0" cy="0" rx="200" ry="150" fill="url(#rgrad2)" filter="url(#blur3)" opacity="0.3"/>
  </g>
</svg>