<?xml version="1.0" encoding="UTF-8"?>
<svg xmlns="http://www.w3.org/2000/svg" viewBox="0 0 1920 1080" width="1920" height="1080">
  <defs>
    <filter id="blur0" x="-50%" y="-50%" width="200%" height="200%">
      <feGaussianBlur in="SourceGraphic" stdDeviation="1"/>
    </filter>
    <filter id="blur1" x="-50%" y="-50%" width="200%" height="200%">
      <feGaussianBlur in="SourceGraphic" stdDeviation="3"/>
    </filter>
    <filter id="blur2" x="-50%" y="-50%" width="200%" height="200%">
      <feGaussianBlur in="SourceGraphic" stdDeviation="5"/>
    </filter>
    <filter id="blur3" x="-50%" y="-50%" width="200%" height="200%">
      <feGaussianBlur in="SourceGraphic" stdDeviation="7"/>
    </filter>
    <filter id="blur4" x="-50%" y="-50%" width="200%" height="200%">
      <feGaussianBlur in="SourceGraphic" stdDeviation="9"/>
    </filter>
    <filter id="shadow" x="-50%" y="-50%" width="200%" height="200%">
      <feGaussianBlur in="SourceAlpha" stdDeviation="3" result="blur"/>
      <feOffset in="blur" dx="4" dy="4" result="offsetBlur"/>
      <feMerge>
        <feMergeNode in="offsetBlur"/>
        <feMergeNode in="SourceGraphic"/>
      </feMerge>
    </filter>
    <linearGradient id="lgrad0" x1="0%" y1="0%" x2="99.3%" y2="58.3%">
      <stop offset="0%" stop-color="#FF6B6B"/>
      <stop offset="33%" stop-color="#4ECDC4"/>
      <stop offset="66%" stop-color="#45B7D1"/>
      <stop offset="100%" stop-color="#96E6A1"/>
    </linearGradient>
    <linearGradient id="lgrad1" x1="0%" y1="0%" x2="88.6%" y2="81.8%">
      <stop offset="0%" stop-color="#FFE66D"/>
      <stop offset="33%" stop-color="#FF6B6B"/>
      <stop offset="66%" stop-color="#C44D58"/>
      <stop offset="100%" stop-color="#8B0000"/>
    </linearGradient>
    <linearGradient id="lgrad2" x1="0%" y1="0%" x2="67.5%" y2="96.8%">
      <stop offset="0%" stop-color="#4169E1"/>
      <stop offset="33%" stop-color="#7B68EE"/>
      <stop offset="66%" stop-color="#9370DB"/>
      <stop offset="100%" stop-color="#FFD700"/>
    </linearGradient>
    <linearGradient id="lgrad3" x1="0%" y1="0%" x2="41.7%" y2="99.3%">
      <stop offset="0%" stop-color="#32CD32"/>
      <stop offset="33%" stop-color="#228B22"/>
      <stop offset="66%" stop-color="#006400"/>
      <stop offset="100%" stop-color="#ADFF2F"/>
    </linearGradient>
    <linearGradient id="lgrad4" x1="0%" y1="0%" x2="18.2%" y2="88.6%">
      <stop offset="0%" stop-color="#FF1493"/>
      <stop offset="33%" stop-color="#FF69B4"/>
      <stop offset="66%" stop-color="#FFB6C1"/>
      <stop offset="100%" stop-color="#FFC0CB"/>
    </linearGradient>
    <radialGradient id="rgrad0" cx="64.7%" cy="39.8%" r="60%">
      <stop offset="0%" stop-color="#FF6B6B" stop-opacity="1"/>
      <stop offset="50%" stop-color="#4ECDC4" stop-opacity="0.8"/>
      <stop offset="100%" stop-color="#45B7D1" stop-opacity="0.6"/>
    </radialGradient>
    <radialGradient id="rgrad1" cx="34.7%" cy="47.8%" r="60%">
      <stop offset="0%" stop-color="#FFE66D" stop-opacity="1"/>
      <stop offset="50%" stop-color="#FF6B6B" stop-opacity="0.8"/>
      <stop offset="100%" stop-color="#C44D58" stop-opacity="0.6"/>
    </radialGradient>
    <radialGradient id="rgrad2" cx="44.7%" cy="55.8%" r="60%">
      <stop offset="0%" stop-color="#4169E1" stop-opacity="1"/>
      <stop offset="50%" stop-color="#7B68EE" stop-opacity="0.8"/>
      <stop offset="100%" stop-color="#9370DB" stop-opacity="0.6"/>
    </radialGradient>
    <radialGradient id="rgrad3" cx="54.7%" cy="63.8%" r="60%">
      <stop offset="0%" stop-color="#32CD32" stop-opacity="1"/>
      <stop offset="50%" stop-color="#228B22" stop-opacity="0.8"/>
      <stop offset="100%" stop-color="#006400" stop-opacity="0.6"/>
    </radialGradient>
    <radialGradient id="rgrad4" cx="64.7%" cy="31.8%" r="60%">
      <stop offset="0%" stop-color="#FF1493" stop-opacity="1"/>
      <stop offset="50%" stop-color="#FF69B4" stop-opacity="0.8"/>
      <stop offset="100%" stop-color="#FFB6C1" stop-opacity="0.6"/>
    </radialGradient>
    <clipPath id="clipCircle">
      <circle cx="0" cy="0" r="50"/>
    </clipPath>
    <clipPath id="clipStar">
      <path d="M0.0,-50.0 L14.7,-20.2 L47.6,-15.5 L23.8,7.7 L29.4,40.5 L0.0,25.0 L-29.4,40.5 L-23.8,7.7 L-47.6,-15.5 L-14.7,-20.2Z"/>
    </clipPath>
    <clipPath id="clipHex">
      <path d="M39.0,22.5 L0.0,45.0 L-39.0,22.5 L-39.0,-22.5 L-0.0,-45.0 L39.0,-22.5Z"/>
    </clipPath>
    <clipPath id="clipRect">
      <rect x="-40" y="-30" width="80" height="60" rx="10"/>
    </clipPath>
    <clipPath id="clipDynamic">
      <circle cx="0" cy="0" r="22.9"/>
    </clipPath>
    <mask id="maskGradient" maskContentUnits="objectBoundingBox">
      <rect x="0" y="0" width="1" height="1" fill="url(#maskGrad)"/>
    </mask>
    <linearGradient id="maskGrad" x1="0%" y1="0%" x2="100%" y2="100%">
      <stop offset="0%" stop-color="white"/>
      <stop offset="100%" stop-color="black"/>
    </linearGradient>
    <mask id="maskCircleFade">
      <circle cx="0" cy="0" r="60" fill="white"/>
      <circle cx="0" cy="0" r="30" fill="black"/>
    </mask>
    <mask id="maskStripes">
      <rect x="-50" y="-50" width="100" height="100" fill="white"/>
      <rect x="-50" y="-40" width="100" height="10" fill="black"/>
      <rect x="-50" y="-20" width="100" height="10" fill="black"/>
      <rect x="-50" y="0" width="100" height="10" fill="black"/>
      <rect x="-50" y="20" width="100" height="10" fill="black"/>
      <rect x="-50" y="40" width="100" height="10" fill="black"/>
    </mask>
    <mask id="maskDynamic">
      <rect x="-60" y="-60" width="120" height="120" fill="white" fill-opacity="0.93"/>
      <circle cx="0" cy="0" r="25" fill="white"/>
    </mask>
  </defs>
  <rect width="1920" height="1080" fill="url(#lgrad0)"/>
  <g transform="translate(75.9, 85.1)">
      <g transform="translate(-4.02,-2.38) rotate(4.46) scale(1.000)">
        <g transform="translate(-4.95,-1.32) rotate(7.86) scale(0.980)">
        <g transform="translate(-4.67,-0.15) rotate(9.71) scale(0.960)">
        <g transform="translate(-3.25,1.04) rotate(9.66) scale(0.940)" clip-path="url(#clipCircle)">
        <g transform="translate(-1.03,2.14) rotate(7.48) scale(0.920)">
        <g transform="translate(1.44,3.04) rotate(3.11) scale(0.900)">
        <g transform="translate(3.56,3.67) rotate(-3.36) scale(0.880)">
        <path d="M0.0,-73.4 L21.6,-29.7 L69.8,-22.7 L34.9,11.3 L43.1,59.4 L0.0,36.7 L-43.1,59.4 L-34.9,11.3 L-69.8,-22.7 L-21.6,-29.7Z" fill="url(#lgrad0)" filter="url(#blur0)" opacity="0.86"/>
      </g>
      </g>
      </g>
      </g>
      </g>
      </g>
      </g>
  </g>
  <g transform="translate(290.3, 101.6)">
      <g transform="translate(-4.67,1.42) rotate(4.46) scale(1.000)">
        <g transform="translate(-3.25,2.46) rotate(7.86) scale(0.980)">
        <g transform="translate(-1.03,3.28) rotate(9.71) scale(0.960)">
        <g transform="translate(1.44,3.81) rotate(9.66) scale(0.940)">
        <g transform="translate(3.56,4.00) rotate(7.48) scale(0.920)">
        <g transform="translate(4.81,3.83) rotate(3.11) scale(0.900)" mask="url(#maskCircleFade)">
        <g transform="translate(4.88,3.32) rotate(-3.36) scale(0.880)">
        <rect x="-30.8" y="-30.8" width="61.6" height="61.6" rx="15.4" fill="url(#rgrad1)" filter="url(#shadow)" opacity="0.79"/>
        <circle cx="0" cy="0" r="20.5" fill="url(#rgrad2)" opacity="0.55"/>
      </g>
      </g>
      </g>
      </g>
      </g>
      </g>
      </g>
  </g>
  <g transform="translate(512.0, 117.3)">
      <g transform="translate(-1.03,3.91) rotate(4.46) scale(1.000)">
        <g transform="translate(1.44,3.98) rotate(7.86) scale(0.980)">
        <g transform="translate(3.56,3.70) rotate(9.71) scale(0.960)">
        <g transform="translate(4.81,3.08) rotate(9.66) scale(0.940)">
        <g transform="translate(4.88,2.19) rotate(7.48) scale(0.920)">
        <g transform="translate(3.75,1.10) rotate(3.11) scale(0.900)">
        <g transform="translate(1.71,-0.09) rotate(-3.36) scale(0.880)">
        <path d="M25.1,14.5 L0.0,29.0 L-25.1,14.5 L-25.1,-14.5 L-0.0,-29.0 L25.1,-14.5Z" fill="url(#rgrad2)" filter="url(#blur2)" opacity="0.69"/>
        <ellipse cx="0" cy="0" rx="12.1" ry="8.0" fill="#FFFFFF" opacity="0.35"/>
      </g>
      </g>
      </g>
      </g>
      </g>
      </g>
      </g>
  </g>
  <g transform="translate(740.5, 124.9)">
      <g transform="translate(3.56,2.81) rotate(4.46) scale(1.000)">
        <g transform="translate(4.81,1.84) rotate(7.86) scale(0.980)">
        <g transform="translate(4.88,0.71) rotate(9.71) scale(0.960)">
        <g transform="translate(3.75,-0.49) rotate(9.66) scale(0.940)" clip-path="url(#clipRect)">
        <g transform="translate(1.71,-1.64) rotate(7.48) scale(0.920)">
        <g transform="translate(-0.75,-2.64) rotate(3.11) scale(0.900)">
        <g transform="translate(-3.03,-3.41) rotate(-3.36) scale(0.880)">
        <circle cx="0" cy="0" r="22.9" fill="url(#lgrad3)" filter="url(#shadow)" opacity="0.58"/>
        <text x="0" y="5" text-anchor="middle" font-family="Arial, sans-serif" font-size="14" fill="#FFFFFF" opacity="0.58">649</text>
      </g>
      </g>
      </g>
      </g>
      </g>
      </g>
      </g>
  </g>
  <g transform="translate(973.8, 120.7)">
      <g transform="translate(4.88,-0.88) rotate(4.46) scale(1.000)">
        <g transform="translate(3.75,-1.99) rotate(7.86) scale(0.980)">
        <g transform="translate(1.71,-2.93) rotate(9.71) scale(0.960)">
        <g transform="translate(-0.75,-3.60) rotate(9.66) scale(0.940)">
        <g transform="translate(-3.03,-3.96) rotate(7.48) scale(0.920)">
        <g transform="translate(-4.57,-3.95) rotate(3.11) scale(0.900)" mask="url(#maskGradient)">
        <g transform="translate(-4.98,-3.60) rotate(-3.36) scale(0.880)">
        <path d="M0.0,-56.4 L16.6,-22.8 L53.6,-17.4 L26.8,8.7 L33.1,45.6 L0.0,28.2 L-33.1,45.6 L-26.8,8.7 L-53.6,-17.4 L-16.6,-22.8Z" fill="url(#rgrad4)" filter="url(#blur4)" opacity="0.46"/>
      </g>
      </g>
      </g>
      </g>
      </g>
      </g>
      </g>
  </g>
  <g transform="translate(1208.6, 106.9)">
      <g transform="translate(1.71,-3.76) rotate(4.46) scale(1.000)">
        <g transform="translate(-0.75,-4.00) rotate(7.86) scale(0.980)">
        <g transform="translate(-3.03,-3.87) rotate(9.71) scale(0.960)">
        <g transform="translate(-4.57,-3.41) rotate(9.66) scale(0.940)">
        <g transform="translate(-4.98,-2.64) rotate(7.48) scale(0.920)">
        <g transform="translate(-4.18,-1.63) rotate(3.11) scale(0.900)">
        <g transform="translate(-2.36,-0.48) rotate(-3.36) scale(0.880)">
        <rect x="-35.1" y="-35.1" width="70.3" height="70.3" rx="17.6" fill="url(#rgrad0)" filter="url(#shadow)" opacity="0.35"/>
        <circle cx="0" cy="0" r="23.4" fill="url(#rgrad1)" opacity="0.24"/>
      </g>
      </g>
      </g>
      </g>
      </g>
      </g>
      </g>
  </g>
  <g transform="translate(1441.4, 89.8)">
      <g transform="translate(-3.03,-3.18) rotate(4.46) scale(1.000)">
        <g transform="translate(-4.57,-2.32) rotate(7.86) scale(0.980)">
        <g transform="translate(-4.98,-1.26) rotate(9.71) scale(0.960)">
        <g transform="translate(-4.18,-0.08) rotate(9.66) scale(0.940)" clip-path="url(#clipStar)">
        <g transform="translate(-2.36,1.11) rotate(7.48) scale(0.920)">
        <g transform="translate(0.05,2.19) rotate(3.11) scale(0.900)">
        <g transform="translate(2.44,3.08) rotate(-3.36) scale(0.880)">
        <path d="M38.8,22.4 L0.0,44.8 L-38.8,22.4 L-38.8,-22.4 L-0.0,-44.8 L38.8,-22.4Z" fill="url(#lgrad1)" filter="url(#blur1)" opacity="0.24"/>
        <ellipse cx="0" cy="0" rx="18.7" ry="12.5" fill="#FFFFFF" opacity="0.12"/>
      </g>
      </g>
      </g>
      </g>
      </g>
      </g>
      </g>
  </g>
  <g transform="translate(1668.8, 77.5)">
      <g transform="translate(-4.98,0.32) rotate(4.46) scale(1.000)">
        <g transform="translate(-4.18,1.48) rotate(7.86) scale(0.980)">
        <g transform="translate(-2.36,2.52) rotate(9.71) scale(0.960)">
        <g transform="translate(0.05,3.32) rotate(9.66) scale(0.940)">
        <g transform="translate(2.44,3.83) rotate(7.48) scale(0.920)">
        <g transform="translate(4.23,4.00) rotate(3.11) scale(0.900)" mask="url(#maskDynamic)">
        <g transform="translate(4.99,3.81) rotate(-3.36) scale(0.880)">
        <circle cx="0" cy="0" r="32.8" fill="url(#rgrad2)" filter="url(#shadow)" opacity="0.16"/>
        <text x="0" y="5" text-anchor="middle" font-family="Arial, sans-serif" font-size="14" fill="#FFFFFF" opacity="0.16">649</text>
      </g>
      </g>
      </g>
      </g>
      </g>
      </g>
      </g>
  </g>
  <g transform="translate(129.3, 355.8)">
      <g transform="translate(-2.36,3.53) rotate(4.46) scale(1.000)">
        <g transform="translate(0.05,3.93) rotate(7.86) scale(0.980)">
        <g transform="translate(2.44,3.98) rotate(9.71) scale(0.960)">
        <g transform="translate(4.23,3.67) rotate(9.66) scale(0.940)">
        <g transform="translate(4.99,3.04) rotate(7.48) scale(0.920)">
        <g transform="translate(4.53,2.13) rotate(3.11) scale(0.900)">
        <g transform="translate(2.96,1.03) rotate(-3.36) scale(0.880)">
        <path d="M0.0,-51.4 L15.1,-20.8 L48.9,-15.9 L24.4,7.9 L30.2,41.6 L0.0,25.7 L-30.2,41.6 L-24.4,7.9 L-48.9,-15.9 L-15.1,-20.8Z" fill="url(#rgrad3)" filter="url(#blur3)" opacity="0.11"/>
      </g>
      </g>
      </g>
      </g>
      </g>
      </g>
      </g>
  </g>
  <g transform="translate(342.5, 365.5)">
      <g transform="translate(2.44,3.49) rotate(4.46) scale(1.000)">
        <g transform="translate(4.23,2.76) rotate(7.86) scale(0.980)">
        <g transform="translate(4.99,1.78) rotate(9.71) scale(0.960)">
        <g transform="translate(4.53,0.64) rotate(9.66) scale(0.940)" clip-path="url(#clipDynamic)">
        <g transform="translate(2.96,-0.55) rotate(7.48) scale(0.920)">
        <g transform="translate(0.66,-1.70) rotate(3.11) scale(0.900)">
        <g transform="translate(-1.80,-2.69) rotate(-3.36) scale(0.880)">
        <rect x="-22.5" y="-22.5" width="45.0" height="45.0" rx="11.3" fill="url(#lgrad4)" filter="url(#shadow)" opacity="0.10"/>
        <circle cx="0" cy="0" r="15.0" fill="url(#rgrad0)" opacity="0.07"/>
      </g>
      </g>
      </g>
      </g>
      </g>
      </g>
      </g>
  </g>
  <g transform="translate(550.3, 382.0)">
      <g transform="translate(4.99,0.25) rotate(4.46) scale(1.000)">
        <g transform="translate(4.53,-0.94) rotate(7.86) scale(0.980)">
        <g transform="translate(2.96,-2.05) rotate(9.71) scale(0.960)">
        <g transform="translate(0.66,-2.97) rotate(9.66) scale(0.940)">
        <g transform="translate(-1.80,-3.63) rotate(7.48) scale(0.920)">
        <g transform="translate(-3.81,-3.97) rotate(3.11) scale(0.900)" mask="url(#maskStripes)">
        <g transform="translate(-4.90,-3.94) rotate(-3.36) scale(0.880)">
        <path d="M27.2,15.7 L0.0,31.5 L-27.2,15.7 L-27.2,-15.7 L-0.0,-31.5 L27.2,-15.7Z" fill="url(#rgrad0)" filter="url(#blur0)" opacity="0.12"/>
        <ellipse cx="0" cy="0" rx="13.1" ry="8.7" fill="#FFFFFF" opacity="0.06"/>
      </g>
      </g>
      </g>
      </g>
      </g>
      </g>
      </g>
  </g>
  <g transform="translate(755.5, 397.6)">
      <g transform="translate(2.96,-3.23) rotate(4.46) scale(1.000)">
        <g transform="translate(0.66,-3.78) rotate(7.86) scale(0.980)">
        <g transform="translate(-1.80,-4.00) rotate(9.71) scale(0.960)">
        <g transform="translate(-3.81,-3.86) rotate(9.66) scale(0.940)">
        <g transform="translate(-4.90,-3.37) rotate(7.48) scale(0.920)">
        <g transform="translate(-4.78,-2.59) rotate(3.11) scale(0.900)">
        <g transform="translate(-3.49,-1.57) rotate(-3.36) scale(0.880)">
        <circle cx="0" cy="0" r="33.4" fill="url(#rgrad1)" filter="url(#shadow)" opacity="0.18"/>
        <text x="0" y="5" text-anchor="middle" font-family="Arial, sans-serif" font-size="14" fill="#FFFFFF" opacity="0.18">649</text>
      </g>
      </g>
      </g>
      </g>
      </g>
      </g>
      </g>
  </g>
  <g transform="translate(961.8, 404.9)">
      <g transform="translate(-1.80,-3.73) rotate(4.46) scale(1.000)">
        <g transform="translate(-3.81,-3.14) rotate(7.86) scale(0.980)">
        <g transform="translate(-4.90,-2.27) rotate(9.71) scale(0.960)">
        <g transform="translate(-4.78,-1.19) rotate(9.66) scale(0.940)" clip-path="url(#clipHex)">
        <g transform="translate(-3.49,-0.01) rotate(7.48) scale(0.920)">
        <g transform="translate(-1.35,1.17) rotate(3.11) scale(0.900)">
        <g transform="translate(1.12,2.25) rotate(-3.36) scale(0.880)">
        <path d="M0.0,-74.9 L22.0,-30.3 L71.3,-23.2 L35.6,11.6 L44.0,60.6 L0.0,37.5 L-44.0,60.6 L-35.6,11.6 L-71.3,-23.2 L-22.0,-30.3Z" fill="url(#lgrad2)" filter="url(#blur2)" opacity="0.26"/>
      </g>
      </g>
      </g>
      </g>
      </g>
      </g>
      </g>
  </g>
  <g transform="translate(1172.6, 400.5)">
      <g transform="translate(-4.90,-0.81) rotate(4.46) scale(1.000)">
        <g transform="translate(-4.78,0.39) rotate(7.86) scale(0.980)">
        <g transform="translate(-3.49,1.55) rotate(9.71) scale(0.960)">
        <g transform="translate(-1.35,2.57) rotate(9.66) scale(0.940)">
        <g transform="translate(1.12,3.36) rotate(7.48) scale(0.920)">
        <g transform="translate(3.32,3.85) rotate(3.11) scale(0.900)" mask="url(#maskCircleFade)">
        <g transform="translate(4.71,4.00) rotate(-3.36) scale(0.880)">
        <rect x="-34.7" y="-34.7" width="69.3" height="69.3" rx="17.3" fill="url(#rgrad3)" filter="url(#shadow)" opacity="0.36"/>
        <circle cx="0" cy="0" r="23.1" fill="url(#rgrad4)" opacity="0.26"/>
      </g>
      </g>
      </g>
      </g>
      </g>
      </g>
      </g>
  </g>
  <g transform="translate(1390.1, 386.5)">
      <g transform="translate(-3.49,2.86) rotate(4.46) scale(1.000)">
        <g transform="translate(-1.35,3.56) rotate(7.86) scale(0.980)">
        <g transform="translate(1.12,3.94) rotate(9.71) scale(0.960)">
        <g transform="translate(3.32,3.97) rotate(9.66) scale(0.940)">
        <g transform="translate(4.71,3.64) rotate(7.48) scale(0.920)">
        <g transform="translate(4.94,2.99) rotate(3.11) scale(0.900)">
        <g transform="translate(3.96,2.07) rotate(-3.36) scale(0.880)">
        <path d="M28.7,16.5 L0.0,33.1 L-28.7,16.5 L-28.7,-16.5 L-0.0,-33.1 L28.7,-16.5Z" fill="url(#rgrad4)" filter="url(#blur4)" opacity="0.48"/>
        <ellipse cx="0" cy="0" rx="13.8" ry="9.2" fill="#FFFFFF" opacity="0.24"/>
      </g>
      </g>
      </g>
      </g>
      </g>
      </g>
      </g>
  </g>
  <g transform="translate(1614.9, 369.4)">
      <g transform="translate(1.12,3.90) rotate(4.46) scale(1.000)">
        <g transform="translate(3.32,3.46) rotate(7.86) scale(0.980)">
        <g transform="translate(4.71,2.71) rotate(9.71) scale(0.960)">
        <g transform="translate(4.94,1.72) rotate(9.66) scale(0.940)" clip-path="url(#clipCircle)">
        <g transform="translate(3.96,0.58) rotate(7.48) scale(0.920)">
        <g transform="translate(2.02,-0.62) rotate(3.11) scale(0.900)">
        <g transform="translate(-0.42,-1.76) rotate(-3.36) scale(0.880)">
        <circle cx="0" cy="0" r="22.7" fill="url(#lgrad0)" filter="url(#shadow)" opacity="0.60"/>
        <text x="0" y="5" text-anchor="middle" font-family="Arial, sans-serif" font-size="14" fill="#FFFFFF" opacity="0.60">649</text>
      </g>
      </g>
      </g>
      </g>
      </g>
      </g>
      </g>
  </g>
  <g transform="translate(85.9, 637.3)">
      <g transform="translate(4.71,1.35) rotate(4.46) scale(1.000)">
        <g transform="translate(4.94,0.18) rotate(7.86) scale(0.980)">
        <g transform="translate(3.96,-1.01) rotate(9.71) scale(0.960)">
        <g transform="translate(2.02,-2.11) rotate(9.66) scale(0.940)">
        <g transform="translate(-0.42,-3.02) rotate(7.48) scale(0.920)">
        <g transform="translate(-2.76,-3.66) rotate(3.11) scale(0.900)" mask="url(#maskGradient)">
        <g transform="translate(-4.42,-3.97) rotate(-3.36) scale(0.880)">
        <path d="M0.0,-49.1 L14.4,-19.9 L46.7,-15.2 L23.4,7.6 L28.9,39.7 L0.0,24.6 L-28.9,39.7 L-23.4,7.6 L-46.7,-15.2 L-14.4,-19.9Z" fill="url(#rgrad1)" filter="url(#blur1)" opacity="0.71"/>
      </g>
      </g>
      </g>
      </g>
      </g>
      </g>
      </g>
  </g>
  <g transform="translate(320.3, 635.9)">
      <g transform="translate(3.96,-2.44) rotate(4.46) scale(1.000)">
        <g transform="translate(2.02,-3.27) rotate(7.86) scale(0.980)">
        <g transform="translate(-0.42,-3.80) rotate(9.71) scale(0.960)">
        <g transform="translate(-2.76,-4.00) rotate(9.66) scale(0.940)">
        <g transform="translate(-4.42,-3.84) rotate(7.48) scale(0.920)">
        <g transform="translate(-5.00,-3.34) rotate(3.11) scale(0.900)">
        <g transform="translate(-4.35,-2.53) rotate(-3.36) scale(0.880)">
        <rect x="-31.4" y="-31.4" width="62.8" height="62.8" rx="15.7" fill="url(#rgrad2)" filter="url(#shadow)" opacity="0.80"/>
        <circle cx="0" cy="0" r="20.9" fill="url(#rgrad3)" opacity="0.56"/>
      </g>
      </g>
      </g>
      </g>
      </g>
      </g>
      </g>
  </g>
  <g transform="translate(554.6, 645.8)">
      <g transform="translate(-0.42,-3.99) rotate(4.46) scale(1.000)">
        <g transform="translate(-2.76,-3.71) rotate(7.86) scale(0.980)">
        <g transform="translate(-4.42,-3.10) rotate(9.71) scale(0.960)">
        <g transform="translate(-5.00,-2.21) rotate(9.66) scale(0.940)" clip-path="url(#clipRect)">
        <g transform="translate(-4.35,-1.13) rotate(7.48) scale(0.920)">
        <g transform="translate(-2.64,0.05) rotate(3.11) scale(0.900)">
        <g transform="translate(-0.29,1.23) rotate(-3.36) scale(0.880)">
        <path d="M38.4,22.2 L0.0,44.3 L-38.4,22.2 L-38.4,-22.2 L-0.0,-44.3 L38.4,-22.2Z" fill="url(#lgrad3)" filter="url(#blur3)" opacity="0.87"/>
        <ellipse cx="0" cy="0" rx="18.5" ry="12.3" fill="#FFFFFF" opacity="0.43"/>
      </g>
      </g>
      </g>
      </g>
      </g>
      </g>
      </g>
  </g>
  <g transform="translate(785.4, 662.4)">
      <g transform="translate(-4.42,-1.87) rotate(4.46) scale(1.000)">
        <g transform="translate(-5.00,-0.74) rotate(7.86) scale(0.980)">
        <g transform="translate(-4.35,0.45) rotate(9.71) scale(0.960)">
        <g transform="translate(-2.64,1.61) rotate(9.66) scale(0.940)">
        <g transform="translate(-0.29,2.62) rotate(7.48) scale(0.920)">
        <g transform="translate(2.14,3.40) rotate(3.11) scale(0.900)" mask="url(#maskDynamic)">
        <g transform="translate(4.05,3.87) rotate(-3.36) scale(0.880)">
        <circle cx="0" cy="0" r="36.1" fill="url(#rgrad4)" filter="url(#shadow)" opacity="0.90"/>
        <text x="0" y="5" text-anchor="middle" font-family="Arial, sans-serif" font-size="14" fill="#FFFFFF" opacity="0.90">649</text>
      </g>
      </g>
      </g>
      </g>
      </g>
      </g>
      </g>
  </g>
  <g transform="translate(1009.9, 677.9)">
      <g transform="translate(-4.35,1.97) rotate(4.46) scale(1.000)">
        <g transform="translate(-2.64,2.91) rotate(7.86) scale(0.980)">
        <g transform="translate(-0.29,3.59) rotate(9.71) scale(0.960)">
        <g transform="translate(2.14,3.95) rotate(9.66) scale(0.940)">
        <g transform="translate(4.05,3.96) rotate(7.48) scale(0.920)">
        <g transform="translate(4.96,3.61) rotate(3.11) scale(0.900)">
        <g transform="translate(4.66,2.95) rotate(-3.36) scale(0.880)">
        <path d="M0.0,-59.3 L17.4,-24.0 L56.4,-18.3 L28.2,9.2 L34.9,48.0 L0.0,29.7 L-34.9,48.0 L-28.2,9.2 L-56.4,-18.3 L-17.4,-24.0Z" fill="url(#rgrad0)" filter="url(#blur0)" opacity="0.89"/>
      </g>
      </g>
      </g>
      </g>
      </g>
      </g>
      </g>
  </g>
  <g transform="translate(1227.2, 684.9)">
      <g transform="translate(-0.29,3.99) rotate(4.46) scale(1.000)">
        <g transform="translate(2.14,3.88) rotate(7.86) scale(0.980)">
        <g transform="translate(4.05,3.42) rotate(9.71) scale(0.960)">
        <g transform="translate(4.96,2.66) rotate(9.66) scale(0.940)" clip-path="url(#clipStar)">
        <g transform="translate(4.66,1.66) rotate(7.48) scale(0.920)">
        <g transform="translate(3.22,0.51) rotate(3.11) scale(0.900)">
        <g transform="translate(0.99,-0.68) rotate(-3.36) scale(0.880)">
        <rect x="-23.5" y="-23.5" width="47.0" height="47.0" rx="11.8" fill="url(#lgrad1)" filter="url(#shadow)" opacity="0.85"/>
        <circle cx="0" cy="0" r="15.7" fill="url(#rgrad2)" opacity="0.60"/>
      </g>
      </g>
      </g>
      </g>
      </g>
      </g>
      </g>
  </g>
  <g transform="translate(1437.7, 680.3)">
      <g transform="translate(4.05,2.35) rotate(4.46) scale(1.000)">
        <g transform="translate(4.96,1.29) rotate(7.86) scale(0.980)">
        <g transform="translate(4.66,0.11) rotate(9.71) scale(0.960)">
        <g transform="translate(3.22,-1.07) rotate(9.66) scale(0.940)">
        <g transform="translate(0.99,-2.17) rotate(7.48) scale(0.920)">
        <g transform="translate(-1.48,-3.06) rotate(3.11) scale(0.900)" mask="url(#maskStripes)">
        <g transform="translate(-3.59,-3.69) rotate(-3.36) scale(0.880)">
        <path d="M24.2,14.0 L0.0,28.0 L-24.2,14.0 L-24.2,-14.0 L-0.0,-28.0 L24.2,-14.0Z" fill="url(#rgrad2)" filter="url(#blur2)" opacity="0.78"/>
        <ellipse cx="0" cy="0" rx="11.7" ry="7.8" fill="#FFFFFF" opacity="0.39"/>
      </g>
      </g>
      </g>
      </g>
      </g>
      </g>
      </g>
  </g>
  <g transform="translate(1644.0, 666.1)">
      <g transform="translate(4.66,-1.45) rotate(4.46) scale(1.000)">
        <g transform="translate(3.22,-2.49) rotate(7.86) scale(0.980)">
        <g transform="translate(0.99,-3.30) rotate(9.71) scale(0.960)">
        <g transform="translate(-1.48,-3.82) rotate(9.66) scale(0.940)">
        <g transform="translate(-3.59,-4.00) rotate(7.48) scale(0.920)">
        <g transform="translate(-4.82,-3.82) rotate(3.11) scale(0.900)">
        <g transform="translate(-4.87,-3.30) rotate(-3.36) scale(0.880)">
        <circle cx="0" cy="0" r="29.3" fill="url(#rgrad3)" filter="url(#shadow)" opacity="0.69"/>
        <text x="0" y="5" text-anchor="middle" font-family="Arial, sans-serif" font-size="14" fill="#FFFFFF" opacity="0.69">649</text>
      </g>
      </g>
      </g>
      </g>
      </g>
      </g>
      </g>
  </g>
  <g transform="translate(89.2, 929.0)">
      <g transform="translate(0.99,-3.92) rotate(4.46) scale(1.000)">
        <g transform="translate(-1.48,-3.98) rotate(7.86) scale(0.980)">
        <g transform="translate(-3.59,-3.68) rotate(9.71) scale(0.960)">
        <g transform="translate(-4.82,-3.06) rotate(9.66) scale(0.940)" clip-path="url(#clipDynamic)">
        <g transform="translate(-4.87,-2.16) rotate(7.48) scale(0.920)">
        <g transform="translate(-3.72,-1.07) rotate(3.11) scale(0.900)">
        <g transform="translate(-1.67,0.12) rotate(-3.36) scale(0.880)">
        <path d="M0.0,-71.8 L21.1,-29.0 L68.3,-22.2 L34.1,11.1 L42.2,58.1 L0.0,35.9 L-42.2,58.1 L-34.1,11.1 L-68.3,-22.2 L-21.1,-29.0Z" fill="url(#lgrad4)" filter="url(#blur4)" opacity="0.57"/>
      </g>
      </g>
      </g>
      </g>
      </g>
      </g>
      </g>
  </g>
  <g transform="translate(219.6, 252.4)" mask="url(#maskGradient)">
    <ellipse cx="0" cy="0" rx="200" ry="150" fill="url(#rgrad0)" filter="url(#blur3)" opacity="0.3"/>
  </g>
  <g transform="translate(706.5, 305.1)" mask="url(#maskCircleFade)">
    <ellipse cx="0" cy="0" rx="200" ry="150" fill="url(#rgrad1)" filter="url(#blur3)" opacity="0.3"/>
  </g>
  <g transform="translate(1279.4, 355.3)" mask="url(#maskStripes)">
    <ellipse cx="0" cy="0" rx="200" ry="150" fill="url(#rgrad2)" filter="url(#blur3)" opacity="0.3"/>
  </g>
</svg>