<?xml version="1.0" encoding="UTF-8"?>
<svg xmlns="http://www.w3.org/2000/svg" viewBox="0 0 1920 1080" width="1920" height="1080">
  <defs>
    <filter id="blur0" x="-50%" y="-50%" width="200%" height="200%">
      <feGaussianBlur in="SourceGraphic" stdDeviation="1"/>
    </filter>
    <filter id="blur1" x="-50%" y="-50%" width="200%" height="200%">
      <feGaussianBlur in="SourceGraphic" stdDeviation="3"/>
    </filter>
    <filter id="blur2" x="-50%" y="-50%" width="200%" height="200%">
      <feGaussianBlur in="SourceGraphic" stdDeviation="5"/>
    </filter>
    <filter id="blur3" x="-50%" y="-50%" width="200%" height="200%">
      <feGaussianBlur in="SourceGraphic" stdDeviation="7"/>
    </filter>
    <filter id="blur4" x="-50%" y="-50%" width="200%" height="200%">
      <feGaussianBlur in="SourceGraphic" stdDeviation="9"/>
    </filter>
    <filter id="shadow" x="-50%" y="-50%" width="200%" height="200%">
      <feGaussianBlur in="SourceAlpha" stdDeviation="3" result="blur"/>
      <feOffset in="blur" dx="4" dy="4" result="offsetBlur"/>
      <feMerge>
        <feMergeNode in="offsetBlur"/>
        <feMergeNode in="SourceGraphic"/>
      </feMerge>
    </filter>
    <linearGradient id="lgrad0" x1="0%" y1="0%" x2="65.9%" y2="2.6%">
      <stop offset="0%" stop-color="#FF6B6B"/>
      <stop offset="33%" stop-color="#4ECDC4"/>
      <stop offset="66%" stop-color="#45B7D1"/>
      <stop offset="100%" stop-color="#96E6A1"/>
    </linearGradient>
    <linearGradient id="lgrad1" x1="0%" y1="0%" x2="87.4%" y2="16.9%">
      <stop offset="0%" stop-color="#FFE66D"/>
      <stop offset="33%" stop-color="#FF6B6B"/>
      <stop offset="66%" stop-color="#C44D58"/>
      <stop offset="100%" stop-color="#8B0000"/>
    </linearGradient>
    <linearGradient id="lgrad2" x1="0%" y1="0%" x2="99.0%" y2="40.0%">
      <stop offset="0%" stop-color="#4169E1"/>
      <stop offset="33%" stop-color="#7B68EE"/>
      <stop offset="66%" stop-color="#9370DB"/>
      <stop offset="100%" stop-color="#FFD700"/>
    </linearGradient>
    <linearGradient id="lgrad3" x1="0%" y1="0%" x2="97.4%" y2="65.9%">
      <stop offset="0%" stop-color="#32CD32"/>
      <stop offset="33%" stop-color="#228B22"/>
      <stop offset="66%" stop-color="#006400"/>
      <stop offset="100%" stop-color="#ADFF2F"/>
    </linearGradient>
    <linearGradient id="lgrad4" x1="0%" y1="0%" x2="83.1%" y2="87.4%">
      <stop offset="0%" stop-color="#FF1493"/>
      <stop offset="33%" stop-color="#FF69B4"/>
      <stop offset="66%" stop-color="#FFB6C1"/>
      <stop offset="100%" stop-color="#FFC0CB"/>
    </linearGradient>
    <radialGradient id="rgrad0" cx="56.1%" cy="47.4%" r="60%">
      <stop offset="0%" stop-color="#FF6B6B" stop-opacity="1"/>
      <stop offset="50%" stop-color="#4ECDC4" stop-opacity="0.8"/>
      <stop offset="100%" stop-color="#45B7D1" stop-opacity="0.6"/>
    </radialGradient>
    <radialGradient id="rgrad1" cx="66.1%" cy="55.4%" r="60%">
      <stop offset="0%" stop-color="#FFE66D" stop-opacity="1"/>
      <stop offset="50%" stop-color="#FF6B6B" stop-opacity="0.8"/>
      <stop offset="100%" stop-color="#C44D58" stop-opacity="0.6"/>
    </radialGradient>
    <radialGradient id="rgrad2" cx="36.1%" cy="63.4%" r="60%">
      <stop offset="0%" stop-color="#4169E1" stop-opacity="1"/>
      <stop offset="50%" stop-color="#7B68EE" stop-opacity="0.8"/>
      <stop offset="100%" stop-color="#9370DB" stop-opacity="0.6"/>
    </radialGradient>
    <radialGradient id="rgrad3" cx="46.1%" cy="31.4%" r="60%">
      <stop offset="0%" stop-color="#32CD32" stop-opacity="1"/>
      <stop offset="50%" stop-color="#228B22" stop-opacity="0.8"/>
      <stop offset="100%" stop-color="#006400" stop-opacity="0.6"/>
    </radialGradient>
    <radialGradient id="rgrad4" cx="56.1%" cy="39.4%" r="60%">
      <stop offset="0%" stop-color="#FF1493" stop-opacity="1"/>
      <stop offset="50%" stop-color="#FF69B4" stop-opacity="0.8"/>
      <stop offset="100%" stop-color="#FFB6C1" stop-opacity="0.6"/>
    </radialGradient>
    <clipPath id="clipCircle">
      <circle cx="0" cy="0" r="50"/>
    </clipPath>
    <clipPath id="clipStar">
      <path d="M0.0,-50.0 L14.7,-20.2 L47.6,-15.5 L23.8,7.7 L29.4,40.5 L0.0,25.0 L-29.4,40.5 L-23.8,7.7 L-47.6,-15.5 L-14.7,-20.2Z"/>
    </clipPath>
    <clipPath id="clipHex">
      <path d="M39.0,22.5 L0.0,45.0 L-39.0,22.5 L-39.0,-22.5 L-0.0,-45.0 L39.0,-22.5Z"/>
    </clipPath>
    <clipPath id="clipRect">
      <rect x="-40" y="-30" width="80" height="60" rx="10"/>
    </clipPath>
    <clipPath id="clipDynamic">
      <circle cx="0" cy="0" r="36.3"/>
    </clipPath>
    <mask id="maskGradient" maskContentUnits="objectBoundingBox">
      <rect x="0" y="0" width="1" height="1" fill="url(#maskGrad)"/>
    </mask>
    <linearGradient id="maskGrad" x1="0%" y1="0%" x2="100%" y2="100%">
      <stop offset="0%" stop-color="white"/>
      <stop offset="100%" stop-color="black"/>
    </linearGradient>
    <mask id="maskCircleFade">
      <circle cx="0" cy="0" r="60" fill="white"/>
      <circle cx="0" cy="0" r="30" fill="black"/>
    </mask>
    <mask id="maskStripes">
      <rect x="-50" y="-50" width="100" height="100" fill="white"/>
      <rect x="-50" y="-40" width="100" height="10" fill="black"/>
      <rect x="-50" y="-20" width="100" height="10" fill="black"/>
      <rect x="-50" y="0" width="100" height="10" fill="black"/>
      <rect x="-50" y="20" width="100" height="10" fill="black"/>
      <rect x="-50" y="40" width="100" height="10" fill="black"/>
    </mask>
    <mask id="maskDynamic">
      <rect x="-60" y="-60" width="120" height="120" fill="white" fill-opacity="1.00"/>
      <circle cx="0" cy="0" r="25" fill="white"/>
    </mask>
  </defs>
  <rect width="1920" height="1080" fill="url(#lgrad0)"/>
  <g transform="translate(102.5, 75.1)">
      <g transform="translate(0.42,-3.99) rotate(5.00) scale(1.000)">
        <g transform="translate(-2.02,-3.91) rotate(9.88) scale(0.980)">
        <g transform="translate(-3.96,-3.48) rotate(14.05) scale(0.960)">
        <g transform="translate(-4.94,-2.74) rotate(16.97) scale(0.940)" clip-path="url(#clipCircle)">
        <g transform="translate(-4.71,-1.76) rotate(18.16) scale(0.920)">
        <g transform="translate(-3.32,-0.62) rotate(17.27) scale(0.900)">
        <g transform="translate(-1.12,0.58) rotate(14.06) scale(0.880)">
        <path d="M0.0,-75.0 L22.0,-30.3 L71.3,-23.2 L35.7,11.6 L44.1,60.7 L0.0,37.5 L-44.1,60.7 L-35.7,11.6 L-71.3,-23.2 L-22.0,-30.3Z" fill="url(#lgrad0)" filter="url(#blur0)" opacity="0.90"/>
      </g>
      </g>
      </g>
      </g>
      </g>
      </g>
      </g>
  </g>
  <g transform="translate(307.9, 79.6)">
      <g transform="translate(-3.96,-2.44) rotate(5.00) scale(1.000)">
        <g transform="translate(-4.94,-1.39) rotate(9.88) scale(0.980)">
        <g transform="translate(-4.71,-0.22) rotate(14.05) scale(0.960)">
        <g transform="translate(-3.32,0.97) rotate(16.97) scale(0.940)">
        <g transform="translate(-1.12,2.07) rotate(18.16) scale(0.920)">
        <g transform="translate(1.35,2.99) rotate(17.27) scale(0.900)" mask="url(#maskCircleFade)">
        <g transform="translate(3.49,3.64) rotate(14.06) scale(0.880)">
        <rect x="-34.3" y="-34.3" width="68.6" height="68.6" rx="17.2" fill="url(#rgrad1)" filter="url(#shadow)" opacity="0.89"/>
        <circle cx="0" cy="0" r="22.9" fill="url(#rgrad2)" opacity="0.62"/>
      </g>
      </g>
      </g>
      </g>
      </g>
      </g>
      </g>
  </g>
  <g transform="translate(516.2, 93.7)">
      <g transform="translate(-4.71,1.35) rotate(5.00) scale(1.000)">
        <g transform="translate(-3.32,2.40) rotate(9.88) scale(0.980)">
        <g transform="translate(-1.12,3.24) rotate(14.05) scale(0.960)">
        <g transform="translate(1.35,3.79) rotate(16.97) scale(0.940)">
        <g transform="translate(3.49,4.00) rotate(18.16) scale(0.920)">
        <g transform="translate(4.78,3.85) rotate(17.27) scale(0.900)">
        <g transform="translate(4.90,3.36) rotate(14.06) scale(0.880)">
        <path d="M28.2,16.3 L0.0,32.6 L-28.2,16.3 L-28.2,-16.3 L-0.0,-32.6 L28.2,-16.3Z" fill="url(#rgrad2)" filter="url(#blur2)" opacity="0.84"/>
        <ellipse cx="0" cy="0" rx="13.6" ry="9.1" fill="#FFFFFF" opacity="0.42"/>
      </g>
      </g>
      </g>
      </g>
      </g>
      </g>
      </g>
  </g>
  <g transform="translate(730.4, 110.7)">
      <g transform="translate(-1.12,3.90) rotate(5.00) scale(1.000)">
        <g transform="translate(1.35,3.99) rotate(9.88) scale(0.980)">
        <g transform="translate(3.49,3.72) rotate(14.05) scale(0.960)">
        <g transform="translate(4.78,3.13) rotate(16.97) scale(0.940)" clip-path="url(#clipRect)">
        <g transform="translate(4.90,2.25) rotate(18.16) scale(0.920)">
        <g transform="translate(3.82,1.17) rotate(17.27) scale(0.900)">
        <g transform="translate(1.80,-0.01) rotate(14.06) scale(0.880)">
        <circle cx="0" cy="0" r="22.6" fill="url(#lgrad3)" filter="url(#shadow)" opacity="0.76"/>
        <text x="0" y="5" text-anchor="middle" font-family="Arial, sans-serif" font-size="14" fill="#FFFFFF" opacity="0.76">487</text>
      </g>
      </g>
      </g>
      </g>
      </g>
      </g>
      </g>
  </g>
  <g transform="translate(951.8, 122.8)">
      <g transform="translate(3.49,2.86) rotate(5.00) scale(1.000)">
        <g transform="translate(4.78,1.91) rotate(9.88) scale(0.980)">
        <g transform="translate(4.90,0.78) rotate(14.05) scale(0.960)">
        <g transform="translate(3.82,-0.41) rotate(16.97) scale(0.940)">
        <g transform="translate(1.80,-1.57) rotate(18.16) scale(0.920)">
        <g transform="translate(-0.66,-2.59) rotate(17.27) scale(0.900)" mask="url(#maskGradient)">
        <g transform="translate(-2.95,-3.37) rotate(14.06) scale(0.880)">
        <path d="M0.0,-49.7 L14.6,-20.1 L47.3,-15.4 L23.6,7.7 L29.2,40.2 L0.0,24.9 L-29.2,40.2 L-23.6,7.7 L-47.3,-15.4 L-14.6,-20.1Z" fill="url(#rgrad4)" filter="url(#blur4)" opacity="0.66"/>
      </g>
      </g>
      </g>
      </g>
      </g>
      </g>
      </g>
  </g>
  <g transform="translate(1180.1, 124.1)">
      <g transform="translate(4.90,-0.81) rotate(5.00) scale(1.000)">
        <g transform="translate(3.82,-1.93) rotate(9.88) scale(0.980)">
        <g transform="translate(1.80,-2.88) rotate(14.05) scale(0.960)">
        <g transform="translate(-0.66,-3.57) rotate(16.97) scale(0.940)">
        <g transform="translate(-2.95,-3.94) rotate(18.16) scale(0.920)">
        <g transform="translate(-4.53,-3.97) rotate(17.27) scale(0.900)">
        <g transform="translate(-4.99,-3.63) rotate(14.06) scale(0.880)">
        <rect x="-31.8" y="-31.8" width="63.6" height="63.6" rx="15.9" fill="url(#rgrad0)" filter="url(#shadow)" opacity="0.55"/>
        <circle cx="0" cy="0" r="21.2" fill="url(#rgrad1)" opacity="0.38"/>
      </g>
      </g>
      </g>
      </g>
      </g>
      </g>
      </g>
  </g>
  <g transform="translate(1413.3, 114.1)">
      <g transform="translate(1.80,-3.73) rotate(5.00) scale(1.000)">
        <g transform="translate(-0.66,-3.99) rotate(9.88) scale(0.980)">
        <g transform="translate(-2.95,-3.89) rotate(14.05) scale(0.960)">
        <g transform="translate(-4.53,-3.45) rotate(16.97) scale(0.940)" clip-path="url(#clipStar)">
        <g transform="translate(-4.99,-2.69) rotate(18.16) scale(0.920)">
        <g transform="translate(-4.23,-1.70) rotate(17.27) scale(0.900)">
        <g transform="translate(-2.44,-0.55) rotate(14.06) scale(0.880)">
        <path d="M38.6,22.3 L0.0,44.5 L-38.6,22.3 L-38.6,-22.3 L-0.0,-44.5 L38.6,-22.3Z" fill="url(#lgrad1)" filter="url(#blur1)" opacity="0.43"/>
        <ellipse cx="0" cy="0" rx="18.6" ry="12.4" fill="#FFFFFF" opacity="0.21"/>
      </g>
      </g>
      </g>
      </g>
      </g>
      </g>
      </g>
  </g>
  <g transform="translate(1648.1, 97.4)">
      <g transform="translate(-2.95,-3.23) rotate(5.00) scale(1.000)">
        <g transform="translate(-4.53,-2.39) rotate(9.88) scale(0.980)">
        <g transform="translate(-4.99,-1.33) rotate(14.05) scale(0.960)">
        <g transform="translate(-4.23,-0.16) rotate(16.97) scale(0.940)">
        <g transform="translate(-2.44,1.03) rotate(18.16) scale(0.920)">
        <g transform="translate(-0.05,2.13) rotate(17.27) scale(0.900)" mask="url(#maskDynamic)">
        <g transform="translate(2.35,3.03) rotate(14.06) scale(0.880)">
        <circle cx="0" cy="0" r="35.9" fill="url(#rgrad2)" filter="url(#shadow)" opacity="0.31"/>
        <text x="0" y="5" text-anchor="middle" font-family="Arial, sans-serif" font-size="14" fill="#FFFFFF" opacity="0.31">487</text>
      </g>
      </g>
      </g>
      </g>
      </g>
      </g>
      </g>
  </g>
  <g transform="translate(121.0, 362.0)">
      <g transform="translate(-4.99,0.24) rotate(5.00) scale(1.000)">
        <g transform="translate(-4.23,1.41) rotate(9.88) scale(0.980)">
        <g transform="translate(-2.44,2.46) rotate(14.05) scale(0.960)">
        <g transform="translate(-0.05,3.28) rotate(16.97) scale(0.940)">
        <g transform="translate(2.35,3.81) rotate(18.16) scale(0.920)">
        <g transform="translate(4.18,4.00) rotate(17.27) scale(0.900)">
        <g transform="translate(4.98,3.83) rotate(14.06) scale(0.880)">
        <path d="M0.0,-58.4 L17.2,-23.6 L55.6,-18.1 L27.8,9.0 L34.4,47.3 L0.0,29.2 L-34.4,47.3 L-27.8,9.0 L-55.6,-18.1 L-17.2,-23.6Z" fill="url(#rgrad3)" filter="url(#blur3)" opacity="0.22"/>
      </g>
      </g>
      </g>
      </g>
      </g>
      </g>
      </g>
  </g>
  <g transform="translate(348.7, 355.1)">
      <g transform="translate(-2.44,3.49) rotate(5.00) scale(1.000)">
        <g transform="translate(-0.05,3.91) rotate(9.88) scale(0.980)">
        <g transform="translate(2.35,3.98) rotate(14.05) scale(0.960)">
        <g transform="translate(4.18,3.70) rotate(16.97) scale(0.940)" clip-path="url(#clipDynamic)">
        <g transform="translate(4.98,3.08) rotate(18.16) scale(0.920)">
        <g transform="translate(4.57,2.19) rotate(17.27) scale(0.900)">
        <g transform="translate(3.03,1.11) rotate(14.06) scale(0.880)">
        <rect x="-23.3" y="-23.3" width="46.6" height="46.6" rx="11.7" fill="url(#lgrad4)" filter="url(#shadow)" opacity="0.15"/>
        <circle cx="0" cy="0" r="15.5" fill="url(#rgrad0)" opacity="0.10"/>
      </g>
      </g>
      </g>
      </g>
      </g>
      </g>
      </g>
  </g>
  <g transform="translate(569.4, 359.8)">
      <g transform="translate(2.35,3.53) rotate(5.00) scale(1.000)">
        <g transform="translate(4.18,2.81) rotate(9.88) scale(0.980)">
        <g transform="translate(4.98,1.85) rotate(14.05) scale(0.960)">
        <g transform="translate(4.57,0.72) rotate(16.97) scale(0.940)">
        <g transform="translate(3.03,-0.48) rotate(18.16) scale(0.920)">
        <g transform="translate(0.75,-1.63) rotate(17.27) scale(0.900)" mask="url(#maskStripes)">
        <g transform="translate(-1.71,-2.64) rotate(14.06) scale(0.880)">
        <path d="M24.5,14.1 L0.0,28.2 L-24.5,14.1 L-24.5,-14.1 L-0.0,-28.2 L24.5,-14.1Z" fill="url(#rgrad0)" filter="url(#blur0)" opacity="0.11"/>
        <ellipse cx="0" cy="0" rx="11.8" ry="7.8" fill="#FFFFFF" opacity="0.05"/>
      </g>
      </g>
      </g>
      </g>
      </g>
      </g>
      </g>
  </g>
  <g transform="translate(782.9, 374.1)">
      <g transform="translate(4.98,0.32) rotate(5.00) scale(1.000)">
        <g transform="translate(4.57,-0.87) rotate(9.88) scale(0.980)">
        <g transform="translate(3.03,-1.99) rotate(14.05) scale(0.960)">
        <g transform="translate(0.75,-2.92) rotate(16.97) scale(0.940)">
        <g transform="translate(-1.71,-3.60) rotate(18.16) scale(0.920)">
        <g transform="translate(-3.75,-3.95) rotate(17.27) scale(0.900)">
        <g transform="translate(-4.88,-3.96) rotate(14.06) scale(0.880)">
        <circle cx="0" cy="0" r="29.7" fill="url(#rgrad1)" filter="url(#shadow)" opacity="0.10"/>
        <text x="0" y="5" text-anchor="middle" font-family="Arial, sans-serif" font-size="14" fill="#FFFFFF" opacity="0.10">487</text>
      </g>
      </g>
      </g>
      </g>
      </g>
      </g>
      </g>
  </g>
  <g transform="translate(990.8, 391.1)">
      <g transform="translate(3.03,-3.18) rotate(5.00) scale(1.000)">
        <g transform="translate(0.75,-3.76) rotate(9.88) scale(0.980)">
        <g transform="translate(-1.71,-3.99) rotate(14.05) scale(0.960)">
        <g transform="translate(-3.75,-3.88) rotate(16.97) scale(0.940)" clip-path="url(#clipHex)">
        <g transform="translate(-4.88,-3.41) rotate(18.16) scale(0.920)">
        <g transform="translate(-4.81,-2.64) rotate(17.27) scale(0.900)">
        <g transform="translate(-3.56,-1.64) rotate(14.06) scale(0.880)">
        <path d="M0.0,-72.3 L21.2,-29.2 L68.8,-22.3 L34.4,11.2 L42.5,58.5 L0.0,36.2 L-42.5,58.5 L-34.4,11.2 L-68.8,-22.3 L-21.2,-29.2Z" fill="url(#lgrad2)" filter="url(#blur2)" opacity="0.13"/>
      </g>
      </g>
      </g>
      </g>
      </g>
      </g>
      </g>
  </g>
  <g transform="translate(1196.1, 402.9)">
      <g transform="translate(-1.71,-3.76) rotate(5.00) scale(1.000)">
        <g transform="translate(-3.75,-3.19) rotate(9.88) scale(0.980)">
        <g transform="translate(-4.88,-2.33) rotate(14.05) scale(0.960)">
        <g transform="translate(-4.81,-1.27) rotate(16.97) scale(0.940)">
        <g transform="translate(-3.56,-0.09) rotate(18.16) scale(0.920)">
        <g transform="translate(-1.44,1.10) rotate(17.27) scale(0.900)" mask="url(#maskCircleFade)">
        <g transform="translate(1.03,2.19) rotate(14.06) scale(0.880)">
        <rect x="-36.9" y="-36.9" width="73.9" height="73.9" rx="18.5" fill="url(#rgrad3)" filter="url(#shadow)" opacity="0.20"/>
        <circle cx="0" cy="0" r="24.6" fill="url(#rgrad4)" opacity="0.14"/>
      </g>
      </g>
      </g>
      </g>
      </g>
      </g>
      </g>
  </g>
  <g transform="translate(1402.3, 404.0)">
      <g transform="translate(-4.88,-0.88) rotate(5.00) scale(1.000)">
        <g transform="translate(-4.81,0.31) rotate(9.88) scale(0.980)">
        <g transform="translate(-3.56,1.48) rotate(14.05) scale(0.960)">
        <g transform="translate(-1.44,2.51) rotate(16.97) scale(0.940)">
        <g transform="translate(1.03,3.32) rotate(18.16) scale(0.920)">
        <g transform="translate(3.25,3.83) rotate(17.27) scale(0.900)">
        <g transform="translate(4.67,4.00) rotate(14.06) scale(0.880)">
        <path d="M32.6,18.8 L0.0,37.6 L-32.6,18.8 L-32.6,-18.8 L-0.0,-37.6 L32.6,-18.8Z" fill="url(#rgrad4)" filter="url(#blur4)" opacity="0.29"/>
        <ellipse cx="0" cy="0" rx="15.7" ry="10.4" fill="#FFFFFF" opacity="0.14"/>
      </g>
      </g>
      </g>
      </g>
      </g>
      </g>
      </g>
  </g>
  <g transform="translate(1612.8, 393.7)">
      <g transform="translate(-3.56,2.81) rotate(5.00) scale(1.000)">
        <g transform="translate(-1.44,3.52) rotate(9.88) scale(0.980)">
        <g transform="translate(1.03,3.93) rotate(14.05) scale(0.960)">
        <g transform="translate(3.25,3.98) rotate(16.97) scale(0.940)" clip-path="url(#clipCircle)">
        <g transform="translate(4.67,3.67) rotate(18.16) scale(0.920)">
        <g transform="translate(4.95,3.04) rotate(17.27) scale(0.900)">
        <g transform="translate(4.02,2.14) rotate(14.06) scale(0.880)">
        <circle cx="0" cy="0" r="24.5" fill="url(#lgrad0)" filter="url(#shadow)" opacity="0.40"/>
        <text x="0" y="5" text-anchor="middle" font-family="Arial, sans-serif" font-size="14" fill="#FFFFFF" opacity="0.40">487</text>
      </g>
      </g>
      </g>
      </g>
      </g>
      </g>
      </g>
  </g>
  <g transform="translate(70.1, 657.0)">
      <g transform="translate(1.03,3.91) rotate(5.00) scale(1.000)">
        <g transform="translate(3.25,3.50) rotate(9.88) scale(0.980)">
        <g transform="translate(4.67,2.77) rotate(14.05) scale(0.960)">
        <g transform="translate(4.95,1.79) rotate(16.97) scale(0.940)">
        <g transform="translate(4.02,0.65) rotate(18.16) scale(0.920)">
        <g transform="translate(2.10,-0.54) rotate(17.27) scale(0.900)" mask="url(#maskGradient)">
        <g transform="translate(-0.33,-1.69) rotate(14.06) scale(0.880)">
        <path d="M0.0,-45.5 L13.4,-18.4 L43.2,-14.0 L21.6,7.0 L26.7,36.8 L0.0,22.7 L-26.7,36.8 L-21.6,7.0 L-43.2,-14.0 L-13.4,-18.4Z" fill="url(#rgrad1)" filter="url(#blur1)" opacity="0.52"/>
      </g>
      </g>
      </g>
      </g>
      </g>
      </g>
      </g>
  </g>
  <g transform="translate(294.6, 641.7)">
      <g transform="translate(4.67,1.42) rotate(5.00) scale(1.000)">
        <g transform="translate(4.95,0.25) rotate(9.88) scale(0.980)">
        <g transform="translate(4.02,-0.94) rotate(14.05) scale(0.960)">
        <g transform="translate(2.10,-2.04) rotate(16.97) scale(0.940)">
        <g transform="translate(-0.33,-2.97) rotate(18.16) scale(0.920)">
        <g transform="translate(-2.68,-3.63) rotate(17.27) scale(0.900)">
        <g transform="translate(-4.38,-3.96) rotate(14.06) scale(0.880)">
        <rect x="-27.6" y="-27.6" width="55.3" height="55.3" rx="13.8" fill="url(#rgrad2)" filter="url(#shadow)" opacity="0.64"/>
        <circle cx="0" cy="0" r="18.4" fill="url(#rgrad3)" opacity="0.44"/>
      </g>
      </g>
      </g>
      </g>
      </g>
      </g>
      </g>
  </g>
  <g transform="translate(525.4, 635.0)">
      <g transform="translate(4.02,-2.38) rotate(5.00) scale(1.000)">
        <g transform="translate(2.10,-3.22) rotate(9.88) scale(0.980)">
        <g transform="translate(-0.33,-3.78) rotate(14.05) scale(0.960)">
        <g transform="translate(-2.68,-4.00) rotate(16.97) scale(0.940)" clip-path="url(#clipRect)">
        <g transform="translate(-4.38,-3.86) rotate(18.16) scale(0.920)">
        <g transform="translate(-5.00,-3.38) rotate(17.27) scale(0.900)">
        <g transform="translate(-4.40,-2.59) rotate(14.06) scale(0.880)">
        <path d="M36.1,20.8 L0.0,41.7 L-36.1,20.8 L-36.1,-20.8 L-0.0,-41.7 L36.1,-20.8Z" fill="url(#lgrad3)" filter="url(#blur3)" opacity="0.74"/>
        <ellipse cx="0" cy="0" rx="17.4" ry="11.6" fill="#FFFFFF" opacity="0.37"/>
      </g>
      </g>
      </g>
      </g>
      </g>
      </g>
      </g>
  </g>
  <g transform="translate(759.7, 640.1)">
      <g transform="translate(-0.33,-3.99) rotate(5.00) scale(1.000)">
        <g transform="translate(-2.68,-3.74) rotate(9.88) scale(0.980)">
        <g transform="translate(-4.38,-3.15) rotate(14.05) scale(0.960)">
        <g transform="translate(-5.00,-2.28) rotate(16.97) scale(0.940)">
        <g transform="translate(-4.40,-1.20) rotate(18.16) scale(0.920)">
        <g transform="translate(-2.72,-0.02) rotate(17.27) scale(0.900)" mask="url(#maskDynamic)">
        <g transform="translate(-0.38,1.16) rotate(14.06) scale(0.880)">
        <circle cx="0" cy="0" r="37.5" fill="url(#rgrad4)" filter="url(#shadow)" opacity="0.82"/>
        <text x="0" y="5" text-anchor="middle" font-family="Arial, sans-serif" font-size="14" fill="#FFFFFF" opacity="0.82">487</text>
      </g>
      </g>
      </g>
      </g>
      </g>
      </g>
      </g>
  </g>
  <g transform="translate(994.1, 654.5)">
      <g transform="translate(-4.38,-1.94) rotate(5.00) scale(1.000)">
        <g transform="translate(-5.00,-0.82) rotate(9.88) scale(0.980)">
        <g transform="translate(-4.40,0.38) rotate(14.05) scale(0.960)">
        <g transform="translate(-2.72,1.54) rotate(16.97) scale(0.940)">
        <g transform="translate(-0.38,2.56) rotate(18.16) scale(0.920)">
        <g transform="translate(2.06,3.35) rotate(17.27) scale(0.900)">
        <g transform="translate(3.99,3.85) rotate(14.06) scale(0.880)">
        <path d="M0.0,-66.7 L19.6,-27.0 L63.4,-20.6 L31.7,10.3 L39.2,54.0 L0.0,33.3 L-39.2,54.0 L-31.7,10.3 L-63.4,-20.6 L-19.6,-27.0Z" fill="url(#rgrad0)" filter="url(#blur0)" opacity="0.88"/>
      </g>
      </g>
      </g>
      </g>
      </g>
      </g>
      </g>
  </g>
  <g transform="translate(1225.1, 671.5)">
      <g transform="translate(-4.40,1.90) rotate(5.00) scale(1.000)">
        <g transform="translate(-2.72,2.85) rotate(9.88) scale(0.980)">
        <g transform="translate(-0.38,3.56) rotate(14.05) scale(0.960)">
        <g transform="translate(2.06,3.94) rotate(16.97) scale(0.940)" clip-path="url(#clipStar)">
        <g transform="translate(3.99,3.97) rotate(18.16) scale(0.920)">
        <g transform="translate(4.95,3.65) rotate(17.27) scale(0.900)">
        <g transform="translate(4.69,3.00) rotate(14.06) scale(0.880)">
        <rect x="-26.2" y="-26.2" width="52.3" height="52.3" rx="13.1" fill="url(#lgrad1)" filter="url(#shadow)" opacity="0.90"/>
        <circle cx="0" cy="0" r="17.4" fill="url(#rgrad2)" opacity="0.63"/>
      </g>
      </g>
      </g>
      </g>
      </g>
      </g>
      </g>
  </g>
  <g transform="translate(1449.9, 683.1)">
      <g transform="translate(-0.38,3.99) rotate(5.00) scale(1.000)">
        <g transform="translate(2.06,3.90) rotate(9.88) scale(0.980)">
        <g transform="translate(3.99,3.46) rotate(14.05) scale(0.960)">
        <g transform="translate(4.95,2.72) rotate(16.97) scale(0.940)">
        <g transform="translate(4.69,1.73) rotate(18.16) scale(0.920)">
        <g transform="translate(3.29,0.59) rotate(17.27) scale(0.900)" mask="url(#maskStripes)">
        <g transform="translate(1.08,-0.61) rotate(14.06) scale(0.880)">
        <path d="M23.4,13.5 L0.0,27.0 L-23.4,13.5 L-23.4,-13.5 L-0.0,-27.0 L23.4,-13.5Z" fill="url(#rgrad2)" filter="url(#blur2)" opacity="0.89"/>
        <ellipse cx="0" cy="0" rx="11.3" ry="7.5" fill="#FFFFFF" opacity="0.44"/>
      </g>
      </g>
      </g>
      </g>
      </g>
      </g>
      </g>
  </g>
  <g transform="translate(1667.4, 683.8)">
      <g transform="translate(3.99,2.41) rotate(5.00) scale(1.000)">
        <g transform="translate(4.95,1.36) rotate(9.88) scale(0.980)">
        <g transform="translate(4.69,0.19) rotate(14.05) scale(0.960)">
        <g transform="translate(3.29,-1.00) rotate(16.97) scale(0.940)">
        <g transform="translate(1.08,-2.10) rotate(18.16) scale(0.920)">
        <g transform="translate(-1.39,-3.01) rotate(17.27) scale(0.900)">
        <g transform="translate(-3.52,-3.66) rotate(14.06) scale(0.880)">
        <circle cx="0" cy="0" r="25.7" fill="url(#rgrad3)" filter="url(#shadow)" opacity="0.84"/>
        <text x="0" y="5" text-anchor="middle" font-family="Arial, sans-serif" font-size="14" fill="#FFFFFF" opacity="0.84">487</text>
      </g>
      </g>
      </g>
      </g>
      </g>
      </g>
      </g>
  </g>
  <g transform="translate(118.2, 953.4)">
      <g transform="translate(4.69,-1.38) rotate(5.00) scale(1.000)">
        <g transform="translate(3.29,-2.43) rotate(9.88) scale(0.980)">
        <g transform="translate(1.08,-3.26) rotate(14.05) scale(0.960)">
        <g transform="translate(-1.39,-3.80) rotate(16.97) scale(0.940)" clip-path="url(#clipDynamic)">
        <g transform="translate(-3.52,-4.00) rotate(18.16) scale(0.920)">
        <g transform="translate(-4.79,-3.84) rotate(17.27) scale(0.900)">
        <g transform="translate(-4.89,-3.34) rotate(14.06) scale(0.880)">
        <path d="M0.0,-65.8 L19.3,-26.6 L62.6,-20.3 L31.3,10.2 L38.7,53.2 L0.0,32.9 L-38.7,53.2 L-31.3,10.2 L-62.6,-20.3 L-19.3,-26.6Z" fill="url(#lgrad4)" filter="url(#blur4)" opacity="0.76"/>
      </g>
      </g>
      </g>
      </g>
      </g>
      </g>
      </g>
  </g>
  <g transform="translate(308.5, 220.3)" mask="url(#maskGradient)">
    <ellipse cx="0" cy="0" rx="200" ry="150" fill="url(#rgrad0)" filter="url(#blur3)" opacity="0.3"/>
  </g>
  <g transform="translate(720.7, 234.7)" mask="url(#maskCircleFade)">
    <ellipse cx="0" cy="0" rx="200" ry="150" fill="url(#rgrad1)" filter="url(#blur3)" opacity="0.3"/>
  </g>
  <g transform="translate(1205.9, 279.8)" mask="url(#maskStripes)">
    <ellipse cx="0" cy="0" rx="200" ry="150" fill="url(#rgrad2)" filter="url(#blur3)" opacity="0.3"/>
  </g>
</svg>