<?xml version="1.0" encoding="UTF-8"?>
<svg xmlns="http://www.w3.org/2000/svg" viewBox="0 0 1920 1080" width="1920" height="1080">
  <defs>
    <filter id="blur0" x="-50%" y="-50%" width="200%" height="200%">
      <feGaussianBlur in="SourceGraphic" stdDeviation="1"/>
    </filter>
    <filter id="blur1" x="-50%" y="-50%" width="200%" height="200%">
      <feGaussianBlur in="SourceGraphic" stdDeviation="3"/>
    </filter>
    <filter id="blur2" x="-50%" y="-50%" width="200%" height="200%">
      <feGaussianBlur in="SourceGraphic" stdDeviation="5"/>
    </filter>
    <filter id="blur3" x="-50%" y="-50%" width="200%" height="200%">
      <feGaussianBlur in="SourceGraphic" stdDeviation="7"/>
    </filter>
    <filter id="blur4" x="-50%" y="-50%" width="200%" height="200%">
      <feGaussianBlur in="SourceGraphic" stdDeviation="9"/>
    </filter>
    <filter id="shadow" x="-50%" y="-50%" width="200%" height="200%">
      <feGaussianBlur in="SourceAlpha" stdDeviation="3" result="blur"/>
      <feOffset in="blur" dx="4" dy="4" result="offsetBlur"/>
      <feMerge>
        <feMergeNode in="offsetBlur"/>
        <feMergeNode in="SourceGraphic"/>
      </feMerge>
    </filter>
    <linearGradient id="lgrad0" x1="0%" y1="0%" x2="99.7%" y2="44.8%">
      <stop offset="0%" stop-color="#FF6B6B"/>
      <stop offset="33%" stop-color="#4ECDC4"/>
      <stop offset="66%" stop-color="#45B7D1"/>
      <stop offset="100%" stop-color="#96E6A1"/>
    </linearGradient>
    <linearGradient id="lgrad1" x1="0%" y1="0%" x2="95.7%" y2="70.3%">
      <stop offset="0%" stop-color="#FFE66D"/>
      <stop offset="33%" stop-color="#FF6B6B"/>
      <stop offset="66%" stop-color="#C44D58"/>
      <stop offset="100%" stop-color="#8B0000"/>
    </linearGradient>
    <linearGradient id="lgrad2" x1="0%" y1="0%" x2="79.4%" y2="90.5%">
      <stop offset="0%" stop-color="#4169E1"/>
      <stop offset="33%" stop-color="#7B68EE"/>
      <stop offset="66%" stop-color="#9370DB"/>
      <stop offset="100%" stop-color="#FFD700"/>
    </linearGradient>
    <linearGradient id="lgrad3" x1="0%" y1="0%" x2="55.2%" y2="99.7%">
      <stop offset="0%" stop-color="#32CD32"/>
      <stop offset="33%" stop-color="#228B22"/>
      <stop offset="66%" stop-color="#006400"/>
      <stop offset="100%" stop-color="#ADFF2F"/>
    </linearGradient>
    <linearGradient id="lgrad4" x1="0%" y1="0%" x2="29.7%" y2="95.7%">
      <stop offset="0%" stop-color="#FF1493"/>
      <stop offset="33%" stop-color="#FF69B4"/>
      <stop offset="66%" stop-color="#FFB6C1"/>
      <stop offset="100%" stop-color="#FFC0CB"/>
    </linearGradient>
    <radialGradient id="rgrad0" cx="55.4%" cy="33.6%" r="60%">
      <stop offset="0%" stop-color="#FF6B6B" stop-opacity="1"/>
      <stop offset="50%" stop-color="#4ECDC4" stop-opacity="0.8"/>
      <stop offset="100%" stop-color="#45B7D1" stop-opacity="0.6"/>
    </radialGradient>
    <radialGradient id="rgrad1" cx="65.4%" cy="41.6%" r="60%">
      <stop offset="0%" stop-color="#FFE66D" stop-opacity="1"/>
      <stop offset="50%" stop-color="#FF6B6B" stop-opacity="0.8"/>
      <stop offset="100%" stop-color="#C44D58" stop-opacity="0.6"/>
    </radialGradient>
    <radialGradient id="rgrad2" cx="35.4%" cy="49.6%" r="60%">
      <stop offset="0%" stop-color="#4169E1" stop-opacity="1"/>
      <stop offset="50%" stop-color="#7B68EE" stop-opacity="0.8"/>
      <stop offset="100%" stop-color="#9370DB" stop-opacity="0.6"/>
    </radialGradient>
    <radialGradient id="rgrad3" cx="45.4%" cy="57.6%" r="60%">
      <stop offset="0%" stop-color="#32CD32" stop-opacity="1"/>
      <stop offset="50%" stop-color="#228B22" stop-opacity="0.8"/>
      <stop offset="100%" stop-color="#006400" stop-opacity="0.6"/>
    </radialGradient>
    <radialGradient id="rgrad4" cx="55.4%" cy="65.6%" r="60%">
      <stop offset="0%" stop-color="#FF1493" stop-opacity="1"/>
      <stop offset="50%" stop-color="#FF69B4" stop-opacity="0.8"/>
      <stop offset="100%" stop-color="#FFB6C1" stop-opacity="0.6"/>
    </radialGradient>
    <clipPath id="clipCircle">
      <circle cx="0" cy="0" r="50"/>
    </clipPath>
    <clipPath id="clipStar">
      <path d="M0.0,-50.0 L14.7,-20.2 L47.6,-15.5 L23.8,7.7 L29.4,40.5 L0.0,25.0 L-29.4,40.5 L-23.8,7.7 L-47.6,-15.5 L-14.7,-20.2Z"/>
    </clipPath>
    <clipPath id="clipHex">
      <path d="M39.0,22.5 L0.0,45.0 L-39.0,22.5 L-39.0,-22.5 L-0.0,-45.0 L39.0,-22.5Z"/>
    </clipPath>
    <clipPath id="clipRect">
      <rect x="-40" y="-30" width="80" height="60" rx="10"/>
    </clipPath>
    <clipPath id="clipDynamic">
      <circle cx="0" cy="0" r="24.9"/>
    </clipPath>
    <mask id="maskGradient" maskContentUnits="objectBoundingBox">
      <rect x="0" y="0" width="1" height="1" fill="url(#maskGrad)"/>
    </mask>
    <linearGradient id="maskGrad" x1="0%" y1="0%" x2="100%" y2="100%">
      <stop offset="0%" stop-color="white"/>
      <stop offset="100%" stop-color="black"/>
    </linearGradient>
    <mask id="maskCircleFade">
      <circle cx="0" cy="0" r="60" fill="white"/>
      <circle cx="0" cy="0" r="30" fill="black"/>
    </mask>
    <mask id="maskStripes">
      <rect x="-50" y="-50" width="100" height="100" fill="white"/>
      <rect x="-50" y="-40" width="100" height="10" fill="black"/>
      <rect x="-50" y="-20" width="100" height="10" fill="black"/>
      <rect x="-50" y="0" width="100" height="10" fill="black"/>
      <rect x="-50" y="20" width="100" height="10" fill="black"/>
      <rect x="-50" y="40" width="100" height="10" fill="black"/>
    </mask>
    <mask id="maskDynamic">
      <rect x="-60" y="-60" width="120" height="120" fill="white" fill-opacity="0.95"/>
      <circle cx="0" cy="0" r="25" fill="white"/>
    </mask>
  </defs>
  <rect width="1920" height="1080" fill="url(#lgrad0)"/>
  <g transform="translate(79.8, 81.5)">
      <g transform="translate(-3.37,-2.96) rotate(4.66) scale(1.000)">
        <g transform="translate(-4.73,-2.03) rotate(8.42) scale(0.980)">
        <g transform="translate(-4.93,-0.92) rotate(10.77) scale(0.960)">
        <g transform="translate(-3.92,0.27) rotate(11.31) scale(0.940)" clip-path="url(#clipCircle)">
        <g transform="translate(-1.96,1.44) rotate(9.77) scale(0.920)">
        <g transform="translate(0.49,2.48) rotate(6.00) scale(0.900)">
        <g transform="translate(2.81,3.30) rotate(0.05) scale(0.880)">
        <path d="M0.0,-74.0 L21.7,-29.9 L70.4,-22.9 L35.2,11.4 L43.5,59.9 L0.0,37.0 L-43.5,59.9 L-35.2,11.4 L-70.4,-22.9 L-21.7,-29.9Z" fill="url(#lgrad0)" filter="url(#blur0)" opacity="0.87"/>
      </g>
      </g>
      </g>
      </g>
      </g>
      </g>
      </g>
  </g>
  <g transform="translate(291.6, 96.7)">
      <g transform="translate(-4.93,0.67) rotate(4.66) scale(1.000)">
        <g transform="translate(-3.92,1.81) rotate(8.42) scale(0.980)">
        <g transform="translate(-1.96,2.78) rotate(10.77) scale(0.960)">
        <g transform="translate(0.49,3.51) rotate(11.31) scale(0.940)">
        <g transform="translate(2.81,3.92) rotate(9.77) scale(0.920)">
        <g transform="translate(4.45,3.98) rotate(6.00) scale(0.900)" mask="url(#maskCircleFade)">
        <g transform="translate(5.00,3.69) rotate(0.05) scale(0.880)">
        <rect x="-31.5" y="-31.5" width="63.0" height="63.0" rx="15.7" fill="url(#rgrad1)" filter="url(#shadow)" opacity="0.81"/>
        <circle cx="0" cy="0" r="21.0" fill="url(#rgrad2)" opacity="0.57"/>
      </g>
      </g>
      </g>
      </g>
      </g>
      </g>
      </g>
  </g>
  <g transform="translate(510.4, 113.5)">
      <g transform="translate(-1.96,3.68) rotate(4.66) scale(1.000)">
        <g transform="translate(0.49,3.98) rotate(8.42) scale(0.980)">
        <g transform="translate(2.81,3.92) rotate(10.77) scale(0.960)">
        <g transform="translate(4.45,3.52) rotate(11.31) scale(0.940)">
        <g transform="translate(5.00,2.79) rotate(9.77) scale(0.920)">
        <g transform="translate(4.32,1.82) rotate(6.00) scale(0.900)">
        <g transform="translate(2.59,0.69) rotate(0.05) scale(0.880)">
        <path d="M25.6,14.8 L0.0,29.6 L-25.6,14.8 L-25.6,-14.8 L-0.0,-29.6 L25.6,-14.8Z" fill="url(#rgrad2)" filter="url(#blur2)" opacity="0.73"/>
        <ellipse cx="0" cy="0" rx="12.3" ry="8.2" fill="#FFFFFF" opacity="0.36"/>
      </g>
      </g>
      </g>
      </g>
      </g>
      </g>
      </g>
  </g>
  <g transform="translate(736.5, 123.9)">
      <g transform="translate(2.81,3.31) rotate(4.66) scale(1.000)">
        <g transform="translate(4.45,2.49) rotate(8.42) scale(0.980)">
        <g transform="translate(5.00,1.46) rotate(10.77) scale(0.960)">
        <g transform="translate(4.32,0.29) rotate(11.31) scale(0.940)" clip-path="url(#clipRect)">
        <g transform="translate(2.59,-0.90) rotate(9.77) scale(0.920)">
        <g transform="translate(0.22,-2.01) rotate(6.00) scale(0.900)">
        <g transform="translate(-2.20,-2.94) rotate(0.05) scale(0.880)">
        <circle cx="0" cy="0" r="22.7" fill="url(#lgrad3)" filter="url(#shadow)" opacity="0.62"/>
        <text x="0" y="5" text-anchor="middle" font-family="Arial, sans-serif" font-size="14" fill="#FFFFFF" opacity="0.62">618</text>
      </g>
      </g>
      </g>
      </g>
      </g>
      </g>
      </g>
  </g>
  <g transform="translate(968.2, 123.1)">
      <g transform="translate(5.00,-0.11) rotate(4.66) scale(1.000)">
        <g transform="translate(4.32,-1.28) rotate(8.42) scale(0.980)">
        <g transform="translate(2.59,-2.35) rotate(10.77) scale(0.960)">
        <g transform="translate(0.22,-3.20) rotate(11.31) scale(0.940)">
        <g transform="translate(-2.20,-3.77) rotate(9.77) scale(0.920)">
        <g transform="translate(-4.08,-4.00) rotate(6.00) scale(0.900)" mask="url(#maskGradient)">
        <g transform="translate(-4.97,-3.87) rotate(0.05) scale(0.880)">
        <path d="M0.0,-55.0 L16.2,-22.2 L52.3,-17.0 L26.1,8.5 L32.3,44.5 L0.0,27.5 L-32.3,44.5 L-26.1,8.5 L-52.3,-17.0 L-16.2,-22.2Z" fill="url(#rgrad4)" filter="url(#blur4)" opacity="0.50"/>
      </g>
      </g>
      </g>
      </g>
      </g>
      </g>
      </g>
  </g>
  <g transform="translate(1202.9, 111.4)">
      <g transform="translate(2.59,-3.42) rotate(4.66) scale(1.000)">
        <g transform="translate(0.22,-3.88) rotate(8.42) scale(0.980)">
        <g transform="translate(-2.20,-3.99) rotate(10.77) scale(0.960)">
        <g transform="translate(-4.08,-3.75) rotate(11.31) scale(0.940)">
        <g transform="translate(-4.97,-3.17) rotate(9.77) scale(0.920)">
        <g transform="translate(-4.63,-2.31) rotate(6.00) scale(0.900)">
        <g transform="translate(-3.17,-1.24) rotate(0.05) scale(0.880)">
        <rect x="-34.6" y="-34.6" width="69.2" height="69.2" rx="17.3" fill="url(#rgrad0)" filter="url(#shadow)" opacity="0.38"/>
        <circle cx="0" cy="0" r="23.1" fill="url(#rgrad1)" opacity="0.27"/>
      </g>
      </g>
      </g>
      </g>
      </g>
      </g>
      </g>
  </g>
  <g transform="translate(1436.9, 94.4)">
      <g transform="translate(-2.20,-3.59) rotate(4.66) scale(1.000)">
        <g transform="translate(-4.08,-2.91) rotate(8.42) scale(0.980)">
        <g transform="translate(-4.97,-1.97) rotate(10.77) scale(0.960)">
        <g transform="translate(-4.63,-0.85) rotate(11.31) scale(0.940)" clip-path="url(#clipStar)">
        <g transform="translate(-3.17,0.34) rotate(9.77) scale(0.920)">
        <g transform="translate(-0.92,1.50) rotate(6.00) scale(0.900)">
        <g transform="translate(1.55,2.53) rotate(0.05) scale(0.880)">
        <path d="M38.9,22.5 L0.0,45.0 L-38.9,22.5 L-38.9,-22.5 L-0.0,-45.0 L38.9,-22.5Z" fill="url(#lgrad1)" filter="url(#blur1)" opacity="0.27"/>
        <ellipse cx="0" cy="0" rx="18.7" ry="12.5" fill="#FFFFFF" opacity="0.14"/>
      </g>
      </g>
      </g>
      </g>
      </g>
      </g>
      </g>
  </g>
  <g transform="translate(1666.7, 80.0)">
      <g transform="translate(-4.97,-0.46) rotate(4.66) scale(1.000)">
        <g transform="translate(-4.63,0.74) rotate(8.42) scale(0.980)">
        <g transform="translate(-3.17,1.86) rotate(10.77) scale(0.960)">
        <g transform="translate(-0.92,2.83) rotate(11.31) scale(0.940)">
        <g transform="translate(1.55,3.54) rotate(9.77) scale(0.920)">
        <g transform="translate(3.64,3.93) rotate(6.00) scale(0.900)" mask="url(#maskDynamic)">
        <g transform="translate(4.84,3.97) rotate(0.05) scale(0.880)">
        <circle cx="0" cy="0" r="33.5" fill="url(#rgrad2)" filter="url(#shadow)" opacity="0.19"/>
        <text x="0" y="5" text-anchor="middle" font-family="Arial, sans-serif" font-size="14" fill="#FFFFFF" opacity="0.19">618</text>
      </g>
      </g>
      </g>
      </g>
      </g>
      </g>
      </g>
  </g>
  <g transform="translate(130.0, 355.0)">
      <g transform="translate(-3.17,3.10) rotate(4.66) scale(1.000)">
        <g transform="translate(-0.92,3.71) rotate(8.42) scale(0.980)">
        <g transform="translate(1.55,3.99) rotate(10.77) scale(0.960)">
        <g transform="translate(3.64,3.91) rotate(11.31) scale(0.940)">
        <g transform="translate(4.84,3.48) rotate(9.77) scale(0.920)">
        <g transform="translate(4.85,2.75) rotate(6.00) scale(0.900)">
        <g transform="translate(3.68,1.76) rotate(0.05) scale(0.880)">
        <path d="M0.0,-52.6 L15.5,-21.3 L50.0,-16.3 L25.0,8.1 L30.9,42.6 L0.0,26.3 L-30.9,42.6 L-25.0,8.1 L-50.0,-16.3 L-15.5,-21.3Z" fill="url(#rgrad3)" filter="url(#blur3)" opacity="0.13"/>
      </g>
      </g>
      </g>
      </g>
      </g>
      </g>
      </g>
  </g>
  <g transform="translate(345.9, 361.8)">
      <g transform="translate(1.55,3.80) rotate(4.66) scale(1.000)">
        <g transform="translate(3.64,3.27) rotate(8.42) scale(0.980)">
        <g transform="translate(4.84,2.44) rotate(10.77) scale(0.960)">
        <g transform="translate(4.85,1.40) rotate(11.31) scale(0.940)" clip-path="url(#clipDynamic)">
        <g transform="translate(3.68,0.23) rotate(9.77) scale(0.920)">
        <g transform="translate(1.61,-0.96) rotate(6.00) scale(0.900)">
        <g transform="translate(-0.86,-2.07) rotate(0.05) scale(0.880)">
        <rect x="-22.5" y="-22.5" width="45.0" height="45.0" rx="11.3" fill="url(#lgrad4)" filter="url(#shadow)" opacity="0.10"/>
        <circle cx="0" cy="0" r="15.0" fill="url(#rgrad0)" opacity="0.07"/>
      </g>
      </g>
      </g>
      </g>
      </g>
      </g>
      </g>
  </g>
  <g transform="translate(555.5, 377.1)">
      <g transform="translate(4.84,1.02) rotate(4.66) scale(1.000)">
        <g transform="translate(4.85,-0.17) rotate(8.42) scale(0.980)">
        <g transform="translate(3.68,-1.35) rotate(10.77) scale(0.960)">
        <g transform="translate(1.61,-2.40) rotate(11.31) scale(0.940)">
        <g transform="translate(-0.86,-3.24) rotate(9.77) scale(0.920)">
        <g transform="translate(-3.12,-3.79) rotate(6.00) scale(0.900)" mask="url(#maskStripes)">
        <g transform="translate(-4.61,-4.00) rotate(0.05) scale(0.880)">
        <path d="M26.6,15.4 L0.0,30.7 L-26.6,15.4 L-26.6,-15.4 L-0.0,-30.7 L26.6,-15.4Z" fill="url(#rgrad0)" filter="url(#blur0)" opacity="0.11"/>
        <ellipse cx="0" cy="0" rx="12.8" ry="8.5" fill="#FFFFFF" opacity="0.06"/>
      </g>
      </g>
      </g>
      </g>
      </g>
      </g>
      </g>
  </g>
  <g transform="translate(761.3, 393.8)">
      <g transform="translate(3.68,-2.71) rotate(4.66) scale(1.000)">
        <g transform="translate(1.61,-3.46) rotate(8.42) scale(0.980)">
        <g transform="translate(-0.86,-3.90) rotate(10.77) scale(0.960)">
        <g transform="translate(-3.12,-3.99) rotate(11.31) scale(0.940)">
        <g transform="translate(-4.61,-3.73) rotate(9.77) scale(0.920)">
        <g transform="translate(-4.97,-3.13) rotate(6.00) scale(0.900)">
        <g transform="translate(-4.12,-2.25) rotate(0.05) scale(0.880)">
        <circle cx="0" cy="0" r="32.7" fill="url(#rgrad1)" filter="url(#shadow)" opacity="0.15"/>
        <text x="0" y="5" text-anchor="middle" font-family="Arial, sans-serif" font-size="14" fill="#FFFFFF" opacity="0.15">618</text>
      </g>
      </g>
      </g>
      </g>
      </g>
      </g>
      </g>
  </g>
  <g transform="translate(966.8, 404.0)">
      <g transform="translate(-0.86,-3.94) rotate(4.66) scale(1.000)">
        <g transform="translate(-3.12,-3.56) rotate(8.42) scale(0.980)">
        <g transform="translate(-4.61,-2.86) rotate(10.77) scale(0.960)">
        <g transform="translate(-4.97,-1.91) rotate(11.31) scale(0.940)" clip-path="url(#clipHex)">
        <g transform="translate(-4.12,-0.79) rotate(9.77) scale(0.920)">
        <g transform="translate(-2.26,0.41) rotate(6.00) scale(0.900)">
        <g transform="translate(0.16,1.56) rotate(0.05) scale(0.880)">
        <path d="M0.0,-74.7 L22.0,-30.2 L71.1,-23.1 L35.5,11.5 L43.9,60.4 L0.0,37.4 L-43.9,60.4 L-35.5,11.5 L-71.1,-23.1 L-22.0,-30.2Z" fill="url(#lgrad2)" filter="url(#blur2)" opacity="0.23"/>
      </g>
      </g>
      </g>
      </g>
      </g>
      </g>
      </g>
  </g>
  <g transform="translate(1175.5, 402.9)">
      <g transform="translate(-4.61,-1.55) rotate(4.66) scale(1.000)">
        <g transform="translate(-4.97,-0.39) rotate(8.42) scale(0.980)">
        <g transform="translate(-4.12,0.80) rotate(10.77) scale(0.960)">
        <g transform="translate(-2.26,1.92) rotate(11.31) scale(0.940)">
        <g transform="translate(0.16,2.87) rotate(9.77) scale(0.920)">
        <g transform="translate(2.53,3.57) rotate(6.00) scale(0.900)" mask="url(#maskCircleFade)">
        <g transform="translate(4.29,3.94) rotate(0.05) scale(0.880)">
        <rect x="-35.2" y="-35.2" width="70.4" height="70.4" rx="17.6" fill="url(#rgrad3)" filter="url(#shadow)" opacity="0.33"/>
        <circle cx="0" cy="0" r="23.5" fill="url(#rgrad4)" opacity="0.23"/>
      </g>
      </g>
      </g>
      </g>
      </g>
      </g>
      </g>
  </g>
  <g transform="translate(1390.2, 391.0)">
      <g transform="translate(-4.12,2.26) rotate(4.66) scale(1.000)">
        <g transform="translate(-2.26,3.14) rotate(8.42) scale(0.980)">
        <g transform="translate(0.16,3.73) rotate(10.77) scale(0.960)">
        <g transform="translate(2.53,3.99) rotate(11.31) scale(0.940)">
        <g transform="translate(4.29,3.89) rotate(9.77) scale(0.920)">
        <g transform="translate(5.00,3.45) rotate(6.00) scale(0.900)">
        <g transform="translate(4.48,2.70) rotate(0.05) scale(0.880)">
        <path d="M29.4,17.0 L0.0,33.9 L-29.4,17.0 L-29.4,-17.0 L-0.0,-33.9 L29.4,-17.0Z" fill="url(#rgrad4)" filter="url(#blur4)" opacity="0.44"/>
        <ellipse cx="0" cy="0" rx="14.1" ry="9.4" fill="#FFFFFF" opacity="0.22"/>
      </g>
      </g>
      </g>
      </g>
      </g>
      </g>
      </g>
  </g>
  <g transform="translate(1612.2, 374.0)">
      <g transform="translate(0.16,4.00) rotate(4.66) scale(1.000)">
        <g transform="translate(2.53,3.78) rotate(8.42) scale(0.980)">
        <g transform="translate(4.29,3.23) rotate(10.77) scale(0.960)">
        <g transform="translate(5.00,2.39) rotate(11.31) scale(0.940)" clip-path="url(#clipCircle)">
        <g transform="translate(4.48,1.33) rotate(9.77) scale(0.920)">
        <g transform="translate(2.87,0.16) rotate(6.00) scale(0.900)">
        <g transform="translate(0.55,-1.03) rotate(0.05) scale(0.880)">
        <circle cx="0" cy="0" r="22.9" fill="url(#lgrad0)" filter="url(#shadow)" opacity="0.56"/>
        <text x="0" y="5" text-anchor="middle" font-family="Arial, sans-serif" font-size="14" fill="#FFFFFF" opacity="0.56">618</text>
      </g>
      </g>
      </g>
      </g>
      </g>
      </g>
      </g>
  </g>
  <g transform="translate(81.0, 639.8)">
      <g transform="translate(4.29,2.06) rotate(4.66) scale(1.000)">
        <g transform="translate(5.00,0.95) rotate(8.42) scale(0.980)">
        <g transform="translate(4.48,-0.24) rotate(10.77) scale(0.960)">
        <g transform="translate(2.87,-1.41) rotate(11.31) scale(0.940)">
        <g transform="translate(0.55,-2.45) rotate(9.77) scale(0.920)">
        <g transform="translate(-1.90,-3.28) rotate(6.00) scale(0.900)" mask="url(#maskGradient)">
        <g transform="translate(-3.88,-3.81) rotate(0.05) scale(0.880)">
        <path d="M0.0,-48.2 L14.2,-19.5 L45.8,-14.9 L22.9,7.4 L28.3,39.0 L0.0,24.1 L-28.3,39.0 L-22.9,7.4 L-45.8,-14.9 L-14.2,-19.5Z" fill="url(#rgrad1)" filter="url(#blur1)" opacity="0.68"/>
      </g>
      </g>
      </g>
      </g>
      </g>
      </g>
      </g>
  </g>
  <g transform="translate(314.5, 635.1)">
      <g transform="translate(4.48,-1.78) rotate(4.66) scale(1.000)">
        <g transform="translate(2.87,-2.76) rotate(8.42) scale(0.980)">
        <g transform="translate(0.55,-3.49) rotate(10.77) scale(0.960)">
        <g transform="translate(-1.90,-3.91) rotate(11.31) scale(0.940)">
        <g transform="translate(-3.88,-3.98) rotate(9.77) scale(0.920)">
        <g transform="translate(-4.92,-3.70) rotate(6.00) scale(0.900)">
        <g transform="translate(-4.75,-3.09) rotate(0.05) scale(0.880)">
        <rect x="-30.7" y="-30.7" width="61.4" height="61.4" rx="15.3" fill="url(#rgrad2)" filter="url(#shadow)" opacity="0.77"/>
        <circle cx="0" cy="0" r="20.5" fill="url(#rgrad3)" opacity="0.54"/>
      </g>
      </g>
      </g>
      </g>
      </g>
      </g>
      </g>
  </g>
  <g transform="translate(549.3, 642.1)">
      <g transform="translate(0.55,-3.98) rotate(4.66) scale(1.000)">
        <g transform="translate(-1.90,-3.93) rotate(8.42) scale(0.980)">
        <g transform="translate(-3.88,-3.53) rotate(10.77) scale(0.960)">
        <g transform="translate(-4.92,-2.82) rotate(11.31) scale(0.940)" clip-path="url(#clipRect)">
        <g transform="translate(-4.75,-1.85) rotate(9.77) scale(0.920)">
        <g transform="translate(-3.42,-0.72) rotate(6.00) scale(0.900)">
        <g transform="translate(-1.25,0.47) rotate(0.05) scale(0.880)">
        <path d="M38.1,22.0 L0.0,44.0 L-38.1,22.0 L-38.1,-22.0 L-0.0,-44.0 L38.1,-22.0Z" fill="url(#lgrad3)" filter="url(#blur3)" opacity="0.85"/>
        <ellipse cx="0" cy="0" rx="18.3" ry="12.2" fill="#FFFFFF" opacity="0.42"/>
      </g>
      </g>
      </g>
      </g>
      </g>
      </g>
      </g>
  </g>
  <g transform="translate(781.8, 657.6)">
      <g transform="translate(-3.88,-2.52) rotate(4.66) scale(1.000)">
        <g transform="translate(-4.92,-1.49) rotate(8.42) scale(0.980)">
        <g transform="translate(-4.75,-0.32) rotate(10.77) scale(0.960)">
        <g transform="translate(-3.42,0.87) rotate(11.31) scale(0.940)">
        <g transform="translate(-1.25,1.98) rotate(9.77) scale(0.920)">
        <g transform="translate(1.23,2.92) rotate(6.00) scale(0.900)" mask="url(#maskDynamic)">
        <g transform="translate(3.40,3.60) rotate(0.05) scale(0.880)">
        <circle cx="0" cy="0" r="36.5" fill="url(#rgrad4)" filter="url(#shadow)" opacity="0.89"/>
        <text x="0" y="5" text-anchor="middle" font-family="Arial, sans-serif" font-size="14" fill="#FFFFFF" opacity="0.89">618</text>
      </g>
      </g>
      </g>
      </g>
      </g>
      </g>
      </g>
  </g>
  <g transform="translate(1009.0, 674.2)">
      <g transform="translate(-4.75,1.25) rotate(4.66) scale(1.000)">
        <g transform="translate(-3.42,2.32) rotate(8.42) scale(0.980)">
        <g transform="translate(-1.25,3.18) rotate(10.77) scale(0.960)">
        <g transform="translate(1.23,3.75) rotate(11.31) scale(0.940)">
        <g transform="translate(3.40,3.99) rotate(9.77) scale(0.920)">
        <g transform="translate(4.74,3.88) rotate(6.00) scale(0.900)">
        <g transform="translate(4.92,3.41) rotate(0.05) scale(0.880)">
        <path d="M0.0,-60.8 L17.9,-24.6 L57.8,-18.8 L28.9,9.4 L35.7,49.2 L0.0,30.4 L-35.7,49.2 L-28.9,9.4 L-57.8,-18.8 L-17.9,-24.6Z" fill="url(#rgrad0)" filter="url(#blur0)" opacity="0.90"/>
      </g>
      </g>
      </g>
      </g>
      </g>
      </g>
      </g>
  </g>
  <g transform="translate(1229.1, 684.1)">
      <g transform="translate(-1.25,3.87) rotate(4.66) scale(1.000)">
        <g transform="translate(1.23,4.00) rotate(8.42) scale(0.980)">
        <g transform="translate(3.40,3.76) rotate(10.77) scale(0.960)">
        <g transform="translate(4.74,3.19) rotate(11.31) scale(0.940)" clip-path="url(#clipStar)">
        <g transform="translate(4.92,2.33) rotate(9.77) scale(0.920)">
        <g transform="translate(3.90,1.27) rotate(6.00) scale(0.900)">
        <g transform="translate(1.92,0.09) rotate(0.05) scale(0.880)">
        <rect x="-23.9" y="-23.9" width="47.8" height="47.8" rx="12.0" fill="url(#lgrad1)" filter="url(#shadow)" opacity="0.87"/>
        <circle cx="0" cy="0" r="15.9" fill="url(#rgrad2)" opacity="0.61"/>
      </g>
      </g>
      </g>
      </g>
      </g>
      </g>
      </g>
  </g>
  <g transform="translate(1442.1, 682.7)">
      <g transform="translate(3.40,2.93) rotate(4.66) scale(1.000)">
        <g transform="translate(4.74,2.00) rotate(8.42) scale(0.980)">
        <g transform="translate(4.92,0.88) rotate(10.77) scale(0.960)">
        <g transform="translate(3.90,-0.31) rotate(11.31) scale(0.940)">
        <g transform="translate(1.92,-1.47) rotate(9.77) scale(0.920)">
        <g transform="translate(-0.53,-2.51) rotate(6.00) scale(0.900)" mask="url(#maskStripes)">
        <g transform="translate(-2.85,-3.32) rotate(0.05) scale(0.880)">
        <path d="M23.9,13.8 L0.0,27.6 L-23.9,13.8 L-23.9,-13.8 L-0.0,-27.6 L23.9,-13.8Z" fill="url(#rgrad2)" filter="url(#blur2)" opacity="0.81"/>
        <ellipse cx="0" cy="0" rx="11.5" ry="7.7" fill="#FFFFFF" opacity="0.40"/>
      </g>
      </g>
      </g>
      </g>
      </g>
      </g>
      </g>
  </g>
  <g transform="translate(1649.6, 670.6)">
      <g transform="translate(4.92,-0.70) rotate(4.66) scale(1.000)">
        <g transform="translate(3.90,-1.84) rotate(8.42) scale(0.980)">
        <g transform="translate(1.92,-2.80) rotate(10.77) scale(0.960)">
        <g transform="translate(-0.53,-3.52) rotate(11.31) scale(0.940)">
        <g transform="translate(-2.85,-3.93) rotate(9.77) scale(0.920)">
        <g transform="translate(-4.47,-3.98) rotate(6.00) scale(0.900)">
        <g transform="translate(-5.00,-3.67) rotate(0.05) scale(0.880)">
        <circle cx="0" cy="0" r="28.6" fill="url(#rgrad3)" filter="url(#shadow)" opacity="0.72"/>
        <text x="0" y="5" text-anchor="middle" font-family="Arial, sans-serif" font-size="14" fill="#FFFFFF" opacity="0.72">618</text>
      </g>
      </g>
      </g>
      </g>
      </g>
      </g>
      </g>
  </g>
  <g transform="translate(94.8, 933.6)">
      <g transform="translate(1.92,-3.69) rotate(4.66) scale(1.000)">
        <g transform="translate(-0.53,-3.98) rotate(8.42) scale(0.980)">
        <g transform="translate(-2.85,-3.92) rotate(10.77) scale(0.960)">
        <g transform="translate(-4.47,-3.50) rotate(11.31) scale(0.940)" clip-path="url(#clipDynamic)">
        <g transform="translate(-5.00,-2.77) rotate(9.77) scale(0.920)">
        <g transform="translate(-4.30,-1.79) rotate(6.00) scale(0.900)">
        <g transform="translate(-2.55,-0.66) rotate(0.05) scale(0.880)">
        <path d="M0.0,-70.8 L20.8,-28.7 L67.4,-21.9 L33.7,10.9 L41.6,57.3 L0.0,35.4 L-41.6,57.3 L-33.7,10.9 L-67.4,-21.9 L-20.8,-28.7Z" fill="url(#lgrad4)" filter="url(#blur4)" opacity="0.61"/>
      </g>
      </g>
      </g>
      </g>
      </g>
      </g>
      </g>
  </g>
  <g transform="translate(232.6, 240.9)" mask="url(#maskGradient)">
    <ellipse cx="0" cy="0" rx="200" ry="150" fill="url(#rgrad0)" filter="url(#blur3)" opacity="0.3"/>
  </g>
  <g transform="translate(701.4, 289.5)" mask="url(#maskCircleFade)">
    <ellipse cx="0" cy="0" rx="200" ry="150" fill="url(#rgrad1)" filter="url(#blur3)" opacity="0.3"/>
  </g>
  <g transform="translate(1260.8, 343.1)" mask="url(#maskStripes)">
    <ellipse cx="0" cy="0" rx="200" ry="150" fill="url(#rgrad2)" filter="url(#blur3)" opacity="0.3"/>
  </g>
</svg>