<?xml version="1.0" encoding="UTF-8"?>
<svg xmlns="http://www.w3.org/2000/svg" viewBox="0 0 1920 1080" width="1920" height="1080">
  <defs>
    <filter id="blur0" x="-50%" y="-50%" width="200%" height="200%">
      <feGaussianBlur in="SourceGraphic" stdDeviation="1"/>
    </filter>
    <filter id="blur1" x="-50%" y="-50%" width="200%" height="200%">
      <feGaussianBlur in="SourceGraphic" stdDeviation="3"/>
    </filter>
    <filter id="blur2" x="-50%" y="-50%" width="200%" height="200%">
      <feGaussianBlur in="SourceGraphic" stdDeviation="5"/>
    </filter>
    <filter id="blur3" x="-50%" y="-50%" width="200%" height="200%">
      <feGaussianBlur in="SourceGraphic" stdDeviation="7"/>
    </filter>
    <filter id="blur4" x="-50%" y="-50%" width="200%" height="200%">
      <feGaussianBlur in="SourceGraphic" stdDeviation="9"/>
    </filter>
    <filter id="shadow" x="-50%" y="-50%" width="200%" height="200%">
      <feGaussianBlur in="SourceAlpha" stdDeviation="3" result="blur"/>
      <feOffset in="blur" dx="4" dy="4" result="offsetBlur"/>
      <feMerge>
        <feMergeNode in="offsetBlur"/>
        <feMergeNode in="SourceGraphic"/>
      </feMerge>
    </filter>
    <linearGradient id="lgrad0" x1="0%" y1="0%" x2="64.2%" y2="97.9%">
      <stop offset="0%" stop-color="#FF6B6B"/>
      <stop offset="33%" stop-color="#4ECDC4"/>
      <stop offset="66%" stop-color="#45B7D1"/>
      <stop offset="100%" stop-color="#96E6A1"/>
    </linearGradient>
    <linearGradient id="lgrad1" x1="0%" y1="0%" x2="38.3%" y2="98.6%">
      <stop offset="0%" stop-color="#FFE66D"/>
      <stop offset="33%" stop-color="#FF6B6B"/>
      <stop offset="66%" stop-color="#C44D58"/>
      <stop offset="100%" stop-color="#8B0000"/>
    </linearGradient>
    <linearGradient id="lgrad2" x1="0%" y1="0%" x2="15.6%" y2="86.3%">
      <stop offset="0%" stop-color="#4169E1"/>
      <stop offset="33%" stop-color="#7B68EE"/>
      <stop offset="66%" stop-color="#9370DB"/>
      <stop offset="100%" stop-color="#FFD700"/>
    </linearGradient>
    <linearGradient id="lgrad3" x1="0%" y1="0%" x2="2.1%" y2="64.2%">
      <stop offset="0%" stop-color="#32CD32"/>
      <stop offset="33%" stop-color="#228B22"/>
      <stop offset="66%" stop-color="#006400"/>
      <stop offset="100%" stop-color="#ADFF2F"/>
    </linearGradient>
    <linearGradient id="lgrad4" x1="0%" y1="0%" x2="1.4%" y2="38.3%">
      <stop offset="0%" stop-color="#FF1493"/>
      <stop offset="33%" stop-color="#FF69B4"/>
      <stop offset="66%" stop-color="#FFB6C1"/>
      <stop offset="100%" stop-color="#FFC0CB"/>
    </linearGradient>
    <radialGradient id="rgrad0" cx="63.1%" cy="65.4%" r="60%">
      <stop offset="0%" stop-color="#FF6B6B" stop-opacity="1"/>
      <stop offset="50%" stop-color="#4ECDC4" stop-opacity="0.8"/>
      <stop offset="100%" stop-color="#45B7D1" stop-opacity="0.6"/>
    </radialGradient>
    <radialGradient id="rgrad1" cx="33.1%" cy="33.4%" r="60%">
      <stop offset="0%" stop-color="#FFE66D" stop-opacity="1"/>
      <stop offset="50%" stop-color="#FF6B6B" stop-opacity="0.8"/>
      <stop offset="100%" stop-color="#C44D58" stop-opacity="0.6"/>
    </radialGradient>
    <radialGradient id="rgrad2" cx="43.1%" cy="41.4%" r="60%">
      <stop offset="0%" stop-color="#4169E1" stop-opacity="1"/>
      <stop offset="50%" stop-color="#7B68EE" stop-opacity="0.8"/>
      <stop offset="100%" stop-color="#9370DB" stop-opacity="0.6"/>
    </radialGradient>
    <radialGradient id="rgrad3" cx="53.1%" cy="49.4%" r="60%">
      <stop offset="0%" stop-color="#32CD32" stop-opacity="1"/>
      <stop offset="50%" stop-color="#228B22" stop-opacity="0.8"/>
      <stop offset="100%" stop-color="#006400" stop-opacity="0.6"/>
    </radialGradient>
    <radialGradient id="rgrad4" cx="63.1%" cy="57.4%" r="60%">
      <stop offset="0%" stop-color="#FF1493" stop-opacity="1"/>
      <stop offset="50%" stop-color="#FF69B4" stop-opacity="0.8"/>
      <stop offset="100%" stop-color="#FFB6C1" stop-opacity="0.6"/>
    </radialGradient>
    <clipPath id="clipCircle">
      <circle cx="0" cy="0" r="50"/>
    </clipPath>
    <clipPath id="clipStar">
      <path d="M0.0,-50.0 L14.7,-20.2 L47.6,-15.5 L23.8,7.7 L29.4,40.5 L0.0,25.0 L-29.4,40.5 L-23.8,7.7 L-47.6,-15.5 L-14.7,-20.2Z"/>
    </clipPath>
    <clipPath id="clipHex">
      <path d="M39.0,22.5 L0.0,45.0 L-39.0,22.5 L-39.0,-22.5 L-0.0,-45.0 L39.0,-22.5Z"/>
    </clipPath>
    <clipPath id="clipRect">
      <rect x="-40" y="-30" width="80" height="60" rx="10"/>
    </clipPath>
    <clipPath id="clipDynamic">
      <circle cx="0" cy="0" r="20.2"/>
    </clipPath>
    <mask id="maskGradient" maskContentUnits="objectBoundingBox">
      <rect x="0" y="0" width="1" height="1" fill="url(#maskGrad)"/>
    </mask>
    <linearGradient id="maskGrad" x1="0%" y1="0%" x2="100%" y2="100%">
      <stop offset="0%" stop-color="white"/>
      <stop offset="100%" stop-color="black"/>
    </linearGradient>
    <mask id="maskCircleFade">
      <circle cx="0" cy="0" r="60" fill="white"/>
      <circle cx="0" cy="0" r="30" fill="black"/>
    </mask>
    <mask id="maskStripes">
      <rect x="-50" y="-50" width="100" height="100" fill="white"/>
      <rect x="-50" y="-40" width="100" height="10" fill="black"/>
      <rect x="-50" y="-20" width="100" height="10" fill="black"/>
      <rect x="-50" y="0" width="100" height="10" fill="black"/>
      <rect x="-50" y="20" width="100" height="10" fill="black"/>
      <rect x="-50" y="40" width="100" height="10" fill="black"/>
    </mask>
    <mask id="maskDynamic">
      <rect x="-60" y="-60" width="120" height="120" fill="white" fill-opacity="0.75"/>
      <circle cx="0" cy="0" r="25" fill="white"/>
    </mask>
  </defs>
  <rect width="1920" height="1080" fill="url(#lgrad0)"/>
  <g transform="translate(70.4, 104.2)">
      <g transform="translate(-4.93,0.67) rotate(3.23) scale(1.000)">
        <g transform="translate(-3.92,1.81) rotate(4.81) scale(0.980)">
        <g transform="translate(-1.96,2.78) rotate(4.45) scale(0.960)">
        <g transform="translate(0.49,3.51) rotate(2.02) scale(0.940)" clip-path="url(#clipCircle)">
        <g transform="translate(2.81,3.92) rotate(-2.46) scale(0.920)">
        <g transform="translate(4.45,3.98) rotate(-8.83) scale(0.900)">
        <g transform="translate(5.00,3.69) rotate(-16.74) scale(0.880)">
        <path d="M0.0,-69.7 L20.5,-28.2 L66.3,-21.5 L33.1,10.8 L41.0,56.4 L0.0,34.8 L-41.0,56.4 L-33.1,10.8 L-66.3,-21.5 L-20.5,-28.2Z" fill="url(#lgrad0)" filter="url(#blur0)" opacity="0.76"/>
      </g>
      </g>
      </g>
      </g>
      </g>
      </g>
      </g>
  </g>
  <g transform="translate(296.5, 119.1)">
      <g transform="translate(-1.96,3.68) rotate(3.23) scale(1.000)">
        <g transform="translate(0.49,3.98) rotate(4.81) scale(0.980)">
        <g transform="translate(2.81,3.92) rotate(4.45) scale(0.960)">
        <g transform="translate(4.45,3.52) rotate(2.02) scale(0.940)">
        <g transform="translate(5.00,2.79) rotate(-2.46) scale(0.920)">
        <g transform="translate(4.32,1.82) rotate(-8.83) scale(0.900)" mask="url(#maskCircleFade)">
        <g transform="translate(2.59,0.69) rotate(-16.74) scale(0.880)">
        <rect x="-27.8" y="-27.8" width="55.6" height="55.6" rx="13.9" fill="url(#rgrad1)" filter="url(#shadow)" opacity="0.66"/>
        <circle cx="0" cy="0" r="18.5" fill="url(#rgrad2)" opacity="0.46"/>
      </g>
      </g>
      </g>
      </g>
      </g>
      </g>
      </g>
  </g>
  <g transform="translate(528.2, 125.0)">
      <g transform="translate(2.81,3.31) rotate(3.23) scale(1.000)">
        <g transform="translate(4.45,2.49) rotate(4.81) scale(0.980)">
        <g transform="translate(5.00,1.46) rotate(4.45) scale(0.960)">
        <g transform="translate(4.32,0.29) rotate(2.02) scale(0.940)">
        <g transform="translate(2.59,-0.90) rotate(-2.46) scale(0.920)">
        <g transform="translate(0.22,-2.01) rotate(-8.83) scale(0.900)">
        <g transform="translate(-2.20,-2.94) rotate(-16.74) scale(0.880)">
        <path d="M23.7,13.7 L0.0,27.3 L-23.7,13.7 L-23.7,-13.7 L-0.0,-27.3 L23.7,-13.7Z" fill="url(#rgrad2)" filter="url(#blur2)" opacity="0.54"/>
        <ellipse cx="0" cy="0" rx="11.4" ry="7.6" fill="#FFFFFF" opacity="0.27"/>
      </g>
      </g>
      </g>
      </g>
      </g>
      </g>
      </g>
  </g>
  <g transform="translate(762.9, 119.2)">
      <g transform="translate(5.00,-0.11) rotate(3.23) scale(1.000)">
        <g transform="translate(4.32,-1.28) rotate(4.81) scale(0.980)">
        <g transform="translate(2.59,-2.35) rotate(4.45) scale(0.960)">
        <g transform="translate(0.22,-3.20) rotate(2.02) scale(0.940)" clip-path="url(#clipRect)">
        <g transform="translate(-2.20,-3.77) rotate(-2.46) scale(0.920)">
        <g transform="translate(-4.08,-4.00) rotate(-8.83) scale(0.900)">
        <g transform="translate(-4.97,-3.87) rotate(-16.74) scale(0.880)">
        <circle cx="0" cy="0" r="24.4" fill="url(#lgrad3)" filter="url(#shadow)" opacity="0.42"/>
        <text x="0" y="5" text-anchor="middle" font-family="Arial, sans-serif" font-size="14" fill="#FFFFFF" opacity="0.42">777</text>
      </g>
      </g>
      </g>
      </g>
      </g>
      </g>
      </g>
  </g>
  <g transform="translate(996.9, 104.3)">
      <g transform="translate(2.59,-3.42) rotate(3.23) scale(1.000)">
        <g transform="translate(0.22,-3.88) rotate(4.81) scale(0.980)">
        <g transform="translate(-2.20,-3.99) rotate(4.45) scale(0.960)">
        <g transform="translate(-4.08,-3.75) rotate(2.02) scale(0.940)">
        <g transform="translate(-4.97,-3.17) rotate(-2.46) scale(0.920)">
        <g transform="translate(-4.63,-2.31) rotate(-8.83) scale(0.900)" mask="url(#maskGradient)">
        <g transform="translate(-3.17,-1.24) rotate(-16.74) scale(0.880)">
        <path d="M0.0,-62.3 L18.3,-25.2 L59.3,-19.3 L29.6,9.6 L36.6,50.4 L0.0,31.2 L-36.6,50.4 L-29.6,9.6 L-59.3,-19.3 L-18.3,-25.2Z" fill="url(#rgrad4)" filter="url(#blur4)" opacity="0.31"/>
      </g>
      </g>
      </g>
      </g>
      </g>
      </g>
      </g>
  </g>
  <g transform="translate(1226.7, 87.4)">
      <g transform="translate(-2.20,-3.59) rotate(3.23) scale(1.000)">
        <g transform="translate(-4.08,-2.91) rotate(4.81) scale(0.980)">
        <g transform="translate(-4.97,-1.97) rotate(4.45) scale(0.960)">
        <g transform="translate(-4.63,-0.85) rotate(2.02) scale(0.940)">
        <g transform="translate(-3.17,0.34) rotate(-2.46) scale(0.920)">
        <g transform="translate(-0.92,1.50) rotate(-8.83) scale(0.900)">
        <g transform="translate(1.55,2.53) rotate(-16.74) scale(0.880)">
        <rect x="-36.9" y="-36.9" width="73.7" height="73.7" rx="18.4" fill="url(#rgrad0)" filter="url(#shadow)" opacity="0.21"/>
        <circle cx="0" cy="0" r="24.6" fill="url(#rgrad1)" opacity="0.15"/>
      </g>
      </g>
      </g>
      </g>
      </g>
      </g>
      </g>
  </g>
  <g transform="translate(1450.0, 76.5)">
      <g transform="translate(-4.97,-0.46) rotate(3.23) scale(1.000)">
        <g transform="translate(-4.63,0.74) rotate(4.81) scale(0.980)">
        <g transform="translate(-3.17,1.87) rotate(4.45) scale(0.960)">
        <g transform="translate(-0.92,2.83) rotate(2.02) scale(0.940)" clip-path="url(#clipStar)">
        <g transform="translate(1.55,3.54) rotate(-2.46) scale(0.920)">
        <g transform="translate(3.64,3.93) rotate(-8.83) scale(0.900)">
        <g transform="translate(4.84,3.97) rotate(-16.74) scale(0.880)">
        <path d="M37.7,21.7 L0.0,43.5 L-37.7,21.7 L-37.7,-21.7 L-0.0,-43.5 L37.7,-21.7Z" fill="url(#lgrad1)" filter="url(#blur1)" opacity="0.14"/>
        <ellipse cx="0" cy="0" rx="18.1" ry="12.1" fill="#FFFFFF" opacity="0.07"/>
      </g>
      </g>
      </g>
      </g>
      </g>
      </g>
      </g>
  </g>
  <g transform="translate(1665.9, 76.6)">
      <g transform="translate(-3.17,3.10) rotate(3.23) scale(1.000)">
        <g transform="translate(-0.92,3.71) rotate(4.81) scale(0.980)">
        <g transform="translate(1.55,3.99) rotate(4.45) scale(0.960)">
        <g transform="translate(3.64,3.91) rotate(2.02) scale(0.940)">
        <g transform="translate(4.84,3.48) rotate(-2.46) scale(0.920)">
        <g transform="translate(4.85,2.75) rotate(-8.83) scale(0.900)" mask="url(#maskDynamic)">
        <g transform="translate(3.68,1.76) rotate(-16.74) scale(0.880)">
        <circle cx="0" cy="0" r="29.9" fill="url(#rgrad2)" filter="url(#shadow)" opacity="0.11"/>
        <text x="0" y="5" text-anchor="middle" font-family="Arial, sans-serif" font-size="14" fill="#FFFFFF" opacity="0.11">777</text>
      </g>
      </g>
      </g>
      </g>
      </g>
      </g>
      </g>
  </g>
  <g transform="translate(115.5, 367.7)">
      <g transform="translate(1.55,3.80) rotate(3.23) scale(1.000)">
        <g transform="translate(3.64,3.27) rotate(4.81) scale(0.980)">
        <g transform="translate(4.84,2.44) rotate(4.45) scale(0.960)">
        <g transform="translate(4.85,1.40) rotate(2.02) scale(0.940)">
        <g transform="translate(3.68,0.23) rotate(-2.46) scale(0.920)">
        <g transform="translate(1.61,-0.96) rotate(-8.83) scale(0.900)">
        <g transform="translate(-0.86,-2.07) rotate(-16.74) scale(0.880)">
        <path d="M0.0,-47.3 L13.9,-19.1 L44.9,-14.6 L22.5,7.3 L27.8,38.2 L0.0,23.6 L-27.8,38.2 L-22.5,7.3 L-44.9,-14.6 L-13.9,-19.1Z" fill="url(#rgrad3)" filter="url(#blur3)" opacity="0.10"/>
      </g>
      </g>
      </g>
      </g>
      </g>
      </g>
      </g>
  </g>
  <g transform="translate(321.3, 384.6)">
      <g transform="translate(4.84,1.01) rotate(3.23) scale(1.000)">
        <g transform="translate(4.85,-0.17) rotate(4.81) scale(0.980)">
        <g transform="translate(3.68,-1.35) rotate(4.45) scale(0.960)">
        <g transform="translate(1.61,-2.40) rotate(2.02) scale(0.940)" clip-path="url(#clipDynamic)">
        <g transform="translate(-0.86,-3.24) rotate(-2.46) scale(0.920)">
        <g transform="translate(-3.12,-3.79) rotate(-8.83) scale(0.900)">
        <g transform="translate(-4.61,-4.00) rotate(-16.74) scale(0.880)">
        <rect x="-23.2" y="-23.2" width="46.5" height="46.5" rx="11.6" fill="url(#lgrad4)" filter="url(#shadow)" opacity="0.14"/>
        <circle cx="0" cy="0" r="15.5" fill="url(#rgrad0)" opacity="0.10"/>
      </g>
      </g>
      </g>
      </g>
      </g>
      </g>
      </g>
  </g>
  <g transform="translate(526.8, 399.3)">
      <g transform="translate(3.68,-2.71) rotate(3.23) scale(1.000)">
        <g transform="translate(1.61,-3.46) rotate(4.81) scale(0.980)">
        <g transform="translate(-0.86,-3.90) rotate(4.45) scale(0.960)">
        <g transform="translate(-3.12,-3.99) rotate(2.02) scale(0.940)">
        <g transform="translate(-4.61,-3.73) rotate(-2.46) scale(0.920)">
        <g transform="translate(-4.97,-3.13) rotate(-8.83) scale(0.900)" mask="url(#maskStripes)">
        <g transform="translate(-4.12,-2.25) rotate(-16.74) scale(0.880)">
        <path d="M30.2,17.4 L0.0,34.9 L-30.2,17.4 L-30.2,-17.4 L-0.0,-34.9 L30.2,-17.4Z" fill="url(#rgrad0)" filter="url(#blur0)" opacity="0.20"/>
        <ellipse cx="0" cy="0" rx="14.5" ry="9.7" fill="#FFFFFF" opacity="0.10"/>
      </g>
      </g>
      </g>
      </g>
      </g>
      </g>
      </g>
  </g>
  <g transform="translate(735.5, 405.0)">
      <g transform="translate(-0.86,-3.94) rotate(3.23) scale(1.000)">
        <g transform="translate(-3.12,-3.56) rotate(4.81) scale(0.980)">
        <g transform="translate(-4.61,-2.86) rotate(4.45) scale(0.960)">
        <g transform="translate(-4.97,-1.91) rotate(2.02) scale(0.940)">
        <g transform="translate(-4.12,-0.79) rotate(-2.46) scale(0.920)">
        <g transform="translate(-2.26,0.41) rotate(-8.83) scale(0.900)">
        <g transform="translate(0.16,1.56) rotate(-16.74) scale(0.880)">
        <circle cx="0" cy="0" r="35.8" fill="url(#rgrad1)" filter="url(#shadow)" opacity="0.29"/>
        <text x="0" y="5" text-anchor="middle" font-family="Arial, sans-serif" font-size="14" fill="#FFFFFF" opacity="0.29">777</text>
      </g>
      </g>
      </g>
      </g>
      </g>
      </g>
      </g>
  </g>
  <g transform="translate(950.2, 398.9)">
      <g transform="translate(-4.61,-1.55) rotate(3.23) scale(1.000)">
        <g transform="translate(-4.97,-0.39) rotate(4.81) scale(0.980)">
        <g transform="translate(-4.12,0.80) rotate(4.45) scale(0.960)">
        <g transform="translate(-2.26,1.92) rotate(2.02) scale(0.940)" clip-path="url(#clipHex)">
        <g transform="translate(0.16,2.87) rotate(-2.46) scale(0.920)">
        <g transform="translate(2.53,3.57) rotate(-8.83) scale(0.900)">
        <g transform="translate(4.29,3.94) rotate(-16.74) scale(0.880)">
        <path d="M0.0,-74.3 L21.8,-30.1 L70.7,-23.0 L35.3,11.5 L43.7,60.1 L0.0,37.2 L-43.7,60.1 L-35.3,11.5 L-70.7,-23.0 L-21.8,-30.1Z" fill="url(#lgrad2)" filter="url(#blur2)" opacity="0.40"/>
      </g>
      </g>
      </g>
      </g>
      </g>
      </g>
      </g>
  </g>
  <g transform="translate(1172.2, 383.9)">
      <g transform="translate(-4.12,2.26) rotate(3.23) scale(1.000)">
        <g transform="translate(-2.26,3.14) rotate(4.81) scale(0.980)">
        <g transform="translate(0.16,3.73) rotate(4.45) scale(0.960)">
        <g transform="translate(2.53,3.99) rotate(2.02) scale(0.940)">
        <g transform="translate(4.29,3.89) rotate(-2.46) scale(0.920)">
        <g transform="translate(5.00,3.45) rotate(-8.83) scale(0.900)" mask="url(#maskCircleFade)">
        <g transform="translate(4.48,2.70) rotate(-16.74) scale(0.880)">
        <rect x="-32.0" y="-32.0" width="64.0" height="64.0" rx="16.0" fill="url(#rgrad3)" filter="url(#shadow)" opacity="0.52"/>
        <circle cx="0" cy="0" r="21.3" fill="url(#rgrad4)" opacity="0.37"/>
      </g>
      </g>
      </g>
      </g>
      </g>
      </g>
      </g>
  </g>
  <g transform="translate(1401.0, 367.1)">
      <g transform="translate(0.16,4.00) rotate(3.23) scale(1.000)">
        <g transform="translate(2.53,3.78) rotate(4.81) scale(0.980)">
        <g transform="translate(4.29,3.23) rotate(4.45) scale(0.960)">
        <g transform="translate(5.00,2.39) rotate(2.02) scale(0.940)">
        <g transform="translate(4.48,1.33) rotate(-2.46) scale(0.920)">
        <g transform="translate(2.87,0.16) rotate(-8.83) scale(0.900)">
        <g transform="translate(0.55,-1.03) rotate(-16.74) scale(0.880)">
        <path d="M26.0,15.0 L0.0,30.0 L-26.0,15.0 L-26.0,-15.0 L-0.0,-30.0 L26.0,-15.0Z" fill="url(#rgrad4)" filter="url(#blur4)" opacity="0.64"/>
        <ellipse cx="0" cy="0" rx="12.5" ry="8.3" fill="#FFFFFF" opacity="0.32"/>
      </g>
      </g>
      </g>
      </g>
      </g>
      </g>
      </g>
  </g>
  <g transform="translate(1634.5, 356.3)">
      <g transform="translate(4.29,2.06) rotate(3.23) scale(1.000)">
        <g transform="translate(5.00,0.95) rotate(4.81) scale(0.980)">
        <g transform="translate(4.48,-0.24) rotate(4.45) scale(0.960)">
        <g transform="translate(2.87,-1.41) rotate(2.02) scale(0.940)" clip-path="url(#clipCircle)">
        <g transform="translate(0.55,-2.45) rotate(-2.46) scale(0.920)">
        <g transform="translate(-1.90,-3.28) rotate(-8.83) scale(0.900)">
        <g transform="translate(-3.88,-3.81) rotate(-16.74) scale(0.880)">
        <circle cx="0" cy="0" r="22.6" fill="url(#lgrad0)" filter="url(#shadow)" opacity="0.74"/>
        <text x="0" y="5" text-anchor="middle" font-family="Arial, sans-serif" font-size="14" fill="#FFFFFF" opacity="0.74">777</text>
      </g>
      </g>
      </g>
      </g>
      </g>
      </g>
      </g>
  </g>
  <g transform="translate(109.3, 636.7)">
      <g transform="translate(4.48,-1.78) rotate(3.23) scale(1.000)">
        <g transform="translate(2.87,-2.76) rotate(4.81) scale(0.980)">
        <g transform="translate(0.55,-3.49) rotate(4.45) scale(0.960)">
        <g transform="translate(-1.90,-3.91) rotate(2.02) scale(0.940)">
        <g transform="translate(-3.88,-3.98) rotate(-2.46) scale(0.920)">
        <g transform="translate(-4.92,-3.70) rotate(-8.83) scale(0.900)" mask="url(#maskGradient)">
        <g transform="translate(-4.75,-3.09) rotate(-16.74) scale(0.880)">
        <path d="M0.0,-54.0 L15.9,-21.9 L51.4,-16.7 L25.7,8.3 L31.8,43.7 L0.0,27.0 L-31.8,43.7 L-25.7,8.3 L-51.4,-16.7 L-15.9,-21.9Z" fill="url(#rgrad1)" filter="url(#blur1)" opacity="0.83"/>
      </g>
      </g>
      </g>
      </g>
      </g>
      </g>
      </g>
  </g>
  <g transform="translate(341.8, 648.1)">
      <g transform="translate(0.55,-3.98) rotate(3.23) scale(1.000)">
        <g transform="translate(-1.90,-3.93) rotate(4.81) scale(0.980)">
        <g transform="translate(-3.88,-3.53) rotate(4.45) scale(0.960)">
        <g transform="translate(-4.92,-2.82) rotate(2.02) scale(0.940)">
        <g transform="translate(-4.75,-1.85) rotate(-2.46) scale(0.920)">
        <g transform="translate(-3.42,-0.72) rotate(-8.83) scale(0.900)">
        <g transform="translate(-1.25,0.47) rotate(-16.74) scale(0.880)">
        <rect x="-34.2" y="-34.2" width="68.4" height="68.4" rx="17.1" fill="url(#rgrad2)" filter="url(#shadow)" opacity="0.88"/>
        <circle cx="0" cy="0" r="22.8" fill="url(#rgrad3)" opacity="0.62"/>
      </g>
      </g>
      </g>
      </g>
      </g>
      </g>
      </g>
  </g>
  <g transform="translate(569.0, 665.0)">
      <g transform="translate(-3.88,-2.52) rotate(3.23) scale(1.000)">
        <g transform="translate(-4.92,-1.49) rotate(4.81) scale(0.980)">
        <g transform="translate(-4.75,-0.32) rotate(4.45) scale(0.960)">
        <g transform="translate(-3.42,0.87) rotate(2.02) scale(0.940)" clip-path="url(#clipRect)">
        <g transform="translate(-1.25,1.98) rotate(-2.46) scale(0.920)">
        <g transform="translate(1.23,2.92) rotate(-8.83) scale(0.900)">
        <g transform="translate(3.40,3.60) rotate(-16.74) scale(0.880)">
        <path d="M39.0,22.5 L0.0,45.0 L-39.0,22.5 L-39.0,-22.5 L-0.0,-45.0 L39.0,-22.5Z" fill="url(#lgrad3)" filter="url(#blur3)" opacity="0.90"/>
        <ellipse cx="0" cy="0" rx="18.7" ry="12.5" fill="#FFFFFF" opacity="0.45"/>
      </g>
      </g>
      </g>
      </g>
      </g>
      </g>
      </g>
  </g>
  <g transform="translate(789.1, 679.6)">
      <g transform="translate(-4.75,1.25) rotate(3.23) scale(1.000)">
        <g transform="translate(-3.42,2.32) rotate(4.81) scale(0.980)">
        <g transform="translate(-1.25,3.18) rotate(4.45) scale(0.960)">
        <g transform="translate(1.23,3.75) rotate(2.02) scale(0.940)">
        <g transform="translate(3.40,3.99) rotate(-2.46) scale(0.920)">
        <g transform="translate(4.74,3.88) rotate(-8.83) scale(0.900)" mask="url(#maskDynamic)">
        <g transform="translate(4.92,3.41) rotate(-16.74) scale(0.880)">
        <circle cx="0" cy="0" r="33.9" fill="url(#rgrad4)" filter="url(#shadow)" opacity="0.88"/>
        <text x="0" y="5" text-anchor="middle" font-family="Arial, sans-serif" font-size="14" fill="#FFFFFF" opacity="0.88">777</text>
      </g>
      </g>
      </g>
      </g>
      </g>
      </g>
      </g>
  </g>
  <g transform="translate(1002.1, 685.0)">
      <g transform="translate(-1.25,3.87) rotate(3.23) scale(1.000)">
        <g transform="translate(1.23,4.00) rotate(4.81) scale(0.980)">
        <g transform="translate(3.40,3.76) rotate(4.45) scale(0.960)">
        <g transform="translate(4.74,3.19) rotate(2.02) scale(0.940)">
        <g transform="translate(4.92,2.33) rotate(-2.46) scale(0.920)">
        <g transform="translate(3.90,1.27) rotate(-8.83) scale(0.900)">
        <g transform="translate(1.92,0.09) rotate(-16.74) scale(0.880)">
        <path d="M0.0,-53.5 L15.7,-21.6 L50.9,-16.5 L25.4,8.3 L31.4,43.3 L0.0,26.7 L-31.4,43.3 L-25.4,8.3 L-50.9,-16.5 L-15.7,-21.6Z" fill="url(#rgrad0)" filter="url(#blur0)" opacity="0.83"/>
      </g>
      </g>
      </g>
      </g>
      </g>
      </g>
      </g>
  </g>
  <g transform="translate(1209.6, 678.6)">
      <g transform="translate(3.40,2.93) rotate(3.23) scale(1.000)">
        <g transform="translate(4.74,2.00) rotate(4.81) scale(0.980)">
        <g transform="translate(4.92,0.88) rotate(4.45) scale(0.960)">
        <g transform="translate(3.90,-0.31) rotate(2.02) scale(0.940)" clip-path="url(#clipStar)">
        <g transform="translate(1.92,-1.47) rotate(-2.46) scale(0.920)">
        <g transform="translate(-0.53,-2.51) rotate(-8.83) scale(0.900)">
        <g transform="translate(-2.85,-3.32) rotate(-16.74) scale(0.880)">
        <rect x="-22.6" y="-22.6" width="45.1" height="45.1" rx="11.3" fill="url(#lgrad1)" filter="url(#shadow)" opacity="0.75"/>
        <circle cx="0" cy="0" r="15.0" fill="url(#rgrad2)" opacity="0.53"/>
      </g>
      </g>
      </g>
      </g>
      </g>
      </g>
      </g>
  </g>
  <g transform="translate(1414.8, 663.5)">
      <g transform="translate(4.92,-0.70) rotate(3.23) scale(1.000)">
        <g transform="translate(3.90,-1.84) rotate(4.81) scale(0.980)">
        <g transform="translate(1.92,-2.80) rotate(4.45) scale(0.960)">
        <g transform="translate(-0.53,-3.52) rotate(2.02) scale(0.940)">
        <g transform="translate(-2.85,-3.93) rotate(-2.46) scale(0.920)">
        <g transform="translate(-4.47,-3.98) rotate(-8.83) scale(0.900)" mask="url(#maskStripes)">
        <g transform="translate(-5.00,-3.67) rotate(-16.74) scale(0.880)">
        <path d="M26.2,15.1 L0.0,30.3 L-26.2,15.1 L-26.2,-15.1 L-0.0,-30.3 L26.2,-15.1Z" fill="url(#rgrad2)" filter="url(#blur2)" opacity="0.65"/>
        <ellipse cx="0" cy="0" rx="12.6" ry="8.4" fill="#FFFFFF" opacity="0.33"/>
      </g>
      </g>
      </g>
      </g>
      </g>
      </g>
      </g>
  </g>
  <g transform="translate(1621.3, 646.7)">
      <g transform="translate(1.92,-3.69) rotate(3.23) scale(1.000)">
        <g transform="translate(-0.53,-3.98) rotate(4.81) scale(0.980)">
        <g transform="translate(-2.85,-3.92) rotate(4.45) scale(0.960)">
        <g transform="translate(-4.47,-3.50) rotate(2.02) scale(0.940)">
        <g transform="translate(-5.00,-2.77) rotate(-2.46) scale(0.920)">
        <g transform="translate(-4.30,-1.79) rotate(-8.83) scale(0.900)">
        <g transform="translate(-2.55,-0.66) rotate(-16.74) scale(0.880)">
        <circle cx="0" cy="0" r="32.3" fill="url(#rgrad3)" filter="url(#shadow)" opacity="0.53"/>
        <text x="0" y="5" text-anchor="middle" font-family="Arial, sans-serif" font-size="14" fill="#FFFFFF" opacity="0.53">777</text>
      </g>
      </g>
      </g>
      </g>
      </g>
      </g>
      </g>
  </g>
  <g transform="translate(72.3, 916.2)">
      <g transform="translate(-2.85,-3.29) rotate(3.23) scale(1.000)">
        <g transform="translate(-4.47,-2.47) rotate(4.81) scale(0.980)">
        <g transform="translate(-5.00,-1.43) rotate(4.45) scale(0.960)">
        <g transform="translate(-4.30,-0.26) rotate(2.02) scale(0.940)" clip-path="url(#clipDynamic)">
        <g transform="translate(-2.55,0.93) rotate(-2.46) scale(0.920)">
        <g transform="translate(-0.18,2.04) rotate(-8.83) scale(0.900)">
        <g transform="translate(2.24,2.97) rotate(-16.74) scale(0.880)">
        <path d="M0.0,-74.5 L21.9,-30.1 L70.8,-23.0 L35.4,11.5 L43.8,60.3 L0.0,37.2 L-43.8,60.3 L-35.4,11.5 L-70.8,-23.0 L-21.9,-30.1Z" fill="url(#lgrad4)" filter="url(#blur4)" opacity="0.41"/>
      </g>
      </g>
      </g>
      </g>
      </g>
      </g>
      </g>
  </g>
  <g transform="translate(201.4, 313.4)" mask="url(#maskGradient)">
    <ellipse cx="0" cy="0" rx="200" ry="150" fill="url(#rgrad0)" filter="url(#blur3)" opacity="0.3"/>
  </g>
  <g transform="translate(760.8, 361.1)" mask="url(#maskCircleFade)">
    <ellipse cx="0" cy="0" rx="200" ry="150" fill="url(#rgrad1)" filter="url(#blur3)" opacity="0.3"/>
  </g>
  <g transform="translate(1356.3, 380.0)" mask="url(#maskStripes)">
    <ellipse cx="0" cy="0" rx="200" ry="150" fill="url(#rgrad2)" filter="url(#blur3)" opacity="0.3"/>
  </g>
</svg>