<?xml version="1.0" encoding="UTF-8"?>
<svg xmlns="http://www.w3.org/2000/svg" viewBox="0 0 1920 1080" width="1920" height="1080">
  <defs>
    <filter id="blur0" x="-50%" y="-50%" width="200%" height="200%">
      <feGaussianBlur in="SourceGraphic" stdDeviation="1"/>
    </filter>
    <filter id="blur1" x="-50%" y="-50%" width="200%" height="200%">
      <feGaussianBlur in="SourceGraphic" stdDeviation="3"/>
    </filter>
    <filter id="blur2" x="-50%" y="-50%" width="200%" height="200%">
      <feGaussianBlur in="SourceGraphic" stdDeviation="5"/>
    </filter>
    <filter id="blur3" x="-50%" y="-50%" width="200%" height="200%">
      <feGaussianBlur in="SourceGraphic" stdDeviation="7"/>
    </filter>
    <filter id="blur4" x="-50%" y="-50%" width="200%" height="200%">
      <feGaussianBlur in="SourceGraphic" stdDeviation="9"/>
    </filter>
    <filter id="shadow" x="-50%" y="-50%" width="200%" height="200%">
      <feGaussianBlur in="SourceAlpha" stdDeviation="3" result="blur"/>
      <feOffset in="blur" dx="4" dy="4" result="offsetBlur"/>
      <feMerge>
        <feMergeNode in="offsetBlur"/>
        <feMergeNode in="SourceGraphic"/>
      </feMerge>
    </filter>
    <linearGradient id="lgrad0" x1="0%" y1="0%" x2="0.8%" y2="58.7%">
      <stop offset="0%" stop-color="#FF6B6B"/>
      <stop offset="33%" stop-color="#4ECDC4"/>
      <stop offset="66%" stop-color="#45B7D1"/>
      <stop offset="100%" stop-color="#96E6A1"/>
    </linearGradient>
    <linearGradient id="lgrad1" x1="0%" y1="0%" x2="3.0%" y2="32.9%">
      <stop offset="0%" stop-color="#FFE66D"/>
      <stop offset="33%" stop-color="#FF6B6B"/>
      <stop offset="66%" stop-color="#C44D58"/>
      <stop offset="100%" stop-color="#8B0000"/>
    </linearGradient>
    <linearGradient id="lgrad2" x1="0%" y1="0%" x2="17.9%" y2="11.7%">
      <stop offset="0%" stop-color="#4169E1"/>
      <stop offset="33%" stop-color="#7B68EE"/>
      <stop offset="66%" stop-color="#9370DB"/>
      <stop offset="100%" stop-color="#FFD700"/>
    </linearGradient>
    <linearGradient id="lgrad3" x1="0%" y1="0%" x2="41.3%" y2="0.8%">
      <stop offset="0%" stop-color="#32CD32"/>
      <stop offset="33%" stop-color="#228B22"/>
      <stop offset="66%" stop-color="#006400"/>
      <stop offset="100%" stop-color="#ADFF2F"/>
    </linearGradient>
    <linearGradient id="lgrad4" x1="0%" y1="0%" x2="67.1%" y2="3.0%">
      <stop offset="0%" stop-color="#FF1493"/>
      <stop offset="33%" stop-color="#FF69B4"/>
      <stop offset="66%" stop-color="#FFB6C1"/>
      <stop offset="100%" stop-color="#FFC0CB"/>
    </linearGradient>
    <radialGradient id="rgrad0" cx="41.0%" cy="64.0%" r="60%">
      <stop offset="0%" stop-color="#FF6B6B" stop-opacity="1"/>
      <stop offset="50%" stop-color="#4ECDC4" stop-opacity="0.8"/>
      <stop offset="100%" stop-color="#45B7D1" stop-opacity="0.6"/>
    </radialGradient>
    <radialGradient id="rgrad1" cx="51.0%" cy="32.0%" r="60%">
      <stop offset="0%" stop-color="#FFE66D" stop-opacity="1"/>
      <stop offset="50%" stop-color="#FF6B6B" stop-opacity="0.8"/>
      <stop offset="100%" stop-color="#C44D58" stop-opacity="0.6"/>
    </radialGradient>
    <radialGradient id="rgrad2" cx="61.0%" cy="40.0%" r="60%">
      <stop offset="0%" stop-color="#4169E1" stop-opacity="1"/>
      <stop offset="50%" stop-color="#7B68EE" stop-opacity="0.8"/>
      <stop offset="100%" stop-color="#9370DB" stop-opacity="0.6"/>
    </radialGradient>
    <radialGradient id="rgrad3" cx="31.0%" cy="48.0%" r="60%">
      <stop offset="0%" stop-color="#32CD32" stop-opacity="1"/>
      <stop offset="50%" stop-color="#228B22" stop-opacity="0.8"/>
      <stop offset="100%" stop-color="#006400" stop-opacity="0.6"/>
    </radialGradient>
    <radialGradient id="rgrad4" cx="41.0%" cy="56.0%" r="60%">
      <stop offset="0%" stop-color="#FF1493" stop-opacity="1"/>
      <stop offset="50%" stop-color="#FF69B4" stop-opacity="0.8"/>
      <stop offset="100%" stop-color="#FFB6C1" stop-opacity="0.6"/>
    </radialGradient>
    <clipPath id="clipCircle">
      <circle cx="0" cy="0" r="50"/>
    </clipPath>
    <clipPath id="clipStar">
      <path d="M0.0,-50.0 L14.7,-20.2 L47.6,-15.5 L23.8,7.7 L29.4,40.5 L0.0,25.0 L-29.4,40.5 L-23.8,7.7 L-47.6,-15.5 L-14.7,-20.2Z"/>
    </clipPath>
    <clipPath id="clipHex">
      <path d="M39.0,22.5 L0.0,45.0 L-39.0,22.5 L-39.0,-22.5 L-0.0,-45.0 L39.0,-22.5Z"/>
    </clipPath>
    <clipPath id="clipRect">
      <rect x="-40" y="-30" width="80" height="60" rx="10"/>
    </clipPath>
    <clipPath id="clipDynamic">
      <circle cx="0" cy="0" r="32.2"/>
    </clipPath>
    <mask id="maskGradient" maskContentUnits="objectBoundingBox">
      <rect x="0" y="0" width="1" height="1" fill="url(#maskGrad)"/>
    </mask>
    <linearGradient id="maskGrad" x1="0%" y1="0%" x2="100%" y2="100%">
      <stop offset="0%" stop-color="white"/>
      <stop offset="100%" stop-color="black"/>
    </linearGradient>
    <mask id="maskCircleFade">
      <circle cx="0" cy="0" r="60" fill="white"/>
      <circle cx="0" cy="0" r="30" fill="black"/>
    </mask>
    <mask id="maskStripes">
      <rect x="-50" y="-50" width="100" height="100" fill="white"/>
      <rect x="-50" y="-40" width="100" height="10" fill="black"/>
      <rect x="-50" y="-20" width="100" height="10" fill="black"/>
      <rect x="-50" y="0" width="100" height="10" fill="black"/>
      <rect x="-50" y="20" width="100" height="10" fill="black"/>
      <rect x="-50" y="40" width="100" height="10" fill="black"/>
    </mask>
    <mask id="maskDynamic">
      <rect x="-60" y="-60" width="120" height="120" fill="white" fill-opacity="0.37"/>
      <circle cx="0" cy="0" r="25" fill="white"/>
    </mask>
  </defs>
  <rect width="1920" height="1080" fill="url(#lgrad0)"/>
  <g transform="translate(94.4, 124.6)">
      <g transform="translate(-0.94,3.93) rotate(0.47) scale(1.000)">
        <g transform="translate(1.53,3.98) rotate(-1.05) scale(0.980)">
        <g transform="translate(3.63,3.67) rotate(-4.51) scale(0.960)">
        <g transform="translate(4.83,3.03) rotate(-9.69) scale(0.940)" clip-path="url(#clipCircle)">
        <g transform="translate(4.86,2.12) rotate(-16.21) scale(0.920)">
        <g transform="translate(3.69,1.03) rotate(-23.60) scale(0.900)">
        <g transform="translate(1.62,-0.16) rotate(-31.28) scale(0.880)">
        <path d="M0.0,-61.4 L18.0,-24.8 L58.4,-19.0 L29.2,9.5 L36.1,49.7 L0.0,30.7 L-36.1,49.7 L-29.2,9.5 L-58.4,-19.0 L-18.0,-24.8Z" fill="url(#lgrad0)" filter="url(#blur0)" opacity="0.54"/>
      </g>
      </g>
      </g>
      </g>
      </g>
      </g>
      </g>
  </g>
  <g transform="translate(329.2, 121.8)">
      <g transform="translate(3.63,2.75) rotate(0.47) scale(1.000)">
        <g transform="translate(4.83,1.77) rotate(-1.05) scale(0.980)">
        <g transform="translate(4.86,0.64) rotate(-4.51) scale(0.960)">
        <g transform="translate(3.69,-0.56) rotate(-9.69) scale(0.940)">
        <g transform="translate(1.62,-1.71) rotate(-16.21) scale(0.920)">
        <g transform="translate(-0.84,-2.70) rotate(-23.60) scale(0.900)" mask="url(#maskCircleFade)">
        <g transform="translate(-3.10,-3.45) rotate(-31.28) scale(0.880)">
        <rect x="-24.1" y="-24.1" width="48.2" height="48.2" rx="12.0" fill="url(#rgrad1)" filter="url(#shadow)" opacity="0.42"/>
        <circle cx="0" cy="0" r="16.1" fill="url(#rgrad2)" opacity="0.29"/>
      </g>
      </g>
      </g>
      </g>
      </g>
      </g>
      </g>
  </g>
  <g transform="translate(561.8, 108.8)">
      <g transform="translate(4.86,-0.95) rotate(0.47) scale(1.000)">
        <g transform="translate(3.69,-2.06) rotate(-1.05) scale(0.980)">
        <g transform="translate(1.62,-2.98) rotate(-4.51) scale(0.960)">
        <g transform="translate(-0.84,-3.64) rotate(-9.69) scale(0.940)">
        <g transform="translate(-3.10,-3.97) rotate(-16.21) scale(0.920)">
        <g transform="translate(-4.60,-3.94) rotate(-23.60) scale(0.900)">
        <g transform="translate(-4.98,-3.57) rotate(-31.28) scale(0.880)">
        <path d="M23.8,13.7 L0.0,27.5 L-23.8,13.7 L-23.8,-13.7 L-0.0,-27.5 L23.8,-13.7Z" fill="url(#rgrad2)" filter="url(#blur2)" opacity="0.31"/>
        <ellipse cx="0" cy="0" rx="11.5" ry="7.6" fill="#FFFFFF" opacity="0.15"/>
      </g>
      </g>
      </g>
      </g>
      </g>
      </g>
      </g>
  </g>
  <g transform="translate(789.0, 91.7)">
      <g transform="translate(1.62,-3.78) rotate(0.47) scale(1.000)">
        <g transform="translate(-0.84,-4.00) rotate(-1.05) scale(0.980)">
        <g transform="translate(-3.10,-3.86) rotate(-4.51) scale(0.960)">
        <g transform="translate(-4.60,-3.37) rotate(-9.69) scale(0.940)" clip-path="url(#clipRect)">
        <g transform="translate(-4.98,-2.58) rotate(-16.21) scale(0.920)">
        <g transform="translate(-4.13,-1.56) rotate(-23.60) scale(0.900)">
        <g transform="translate(-2.27,-0.40) rotate(-31.28) scale(0.880)">
        <circle cx="0" cy="0" r="28.2" fill="url(#lgrad3)" filter="url(#shadow)" opacity="0.21"/>
        <text x="0" y="5" text-anchor="middle" font-family="Arial, sans-serif" font-size="14" fill="#FFFFFF" opacity="0.21">970</text>
      </g>
      </g>
      </g>
      </g>
      </g>
      </g>
      </g>
  </g>
  <g transform="translate(1009.1, 78.4)">
      <g transform="translate(-3.10,-3.14) rotate(0.47) scale(1.000)">
        <g transform="translate(-4.60,-2.26) rotate(-1.05) scale(0.980)">
        <g transform="translate(-4.98,-1.19) rotate(-4.51) scale(0.960)">
        <g transform="translate(-4.13,-0.00) rotate(-9.69) scale(0.940)">
        <g transform="translate(-2.27,1.18) rotate(-16.21) scale(0.920)">
        <g transform="translate(0.14,2.26) rotate(-23.60) scale(0.900)" mask="url(#maskGradient)">
        <g transform="translate(2.52,3.13) rotate(-31.28) scale(0.880)">
        <path d="M0.0,-70.4 L20.7,-28.5 L66.9,-21.7 L33.5,10.9 L41.4,56.9 L0.0,35.2 L-41.4,56.9 L-33.5,10.9 L-66.9,-21.7 L-20.7,-28.5Z" fill="url(#rgrad4)" filter="url(#blur4)" opacity="0.14"/>
      </g>
      </g>
      </g>
      </g>
      </g>
      </g>
      </g>
  </g>
  <g transform="translate(1222.1, 75.4)">
      <g transform="translate(-4.98,0.40) rotate(0.47) scale(1.000)">
        <g transform="translate(-4.13,1.55) rotate(-1.05) scale(0.980)">
        <g transform="translate(-2.27,2.57) rotate(-4.51) scale(0.960)">
        <g transform="translate(0.14,3.36) rotate(-9.69) scale(0.940)">
        <g transform="translate(2.52,3.85) rotate(-16.21) scale(0.920)">
        <g transform="translate(4.28,4.00) rotate(-23.60) scale(0.900)">
        <g transform="translate(5.00,3.79) rotate(-31.28) scale(0.880)">
        <rect x="-37.4" y="-37.4" width="74.7" height="74.7" rx="18.7" fill="url(#rgrad0)" filter="url(#shadow)" opacity="0.11"/>
        <circle cx="0" cy="0" r="24.9" fill="url(#rgrad1)" opacity="0.07"/>
      </g>
      </g>
      </g>
      </g>
      </g>
      </g>
      </g>
  </g>
  <g transform="translate(1429.7, 83.9)">
      <g transform="translate(-2.27,3.56) rotate(0.47) scale(1.000)">
        <g transform="translate(0.14,3.94) rotate(-1.05) scale(0.980)">
        <g transform="translate(2.52,3.97) rotate(-4.51) scale(0.960)">
        <g transform="translate(4.28,3.64) rotate(-9.69) scale(0.940)" clip-path="url(#clipStar)">
        <g transform="translate(5.00,2.99) rotate(-16.21) scale(0.920)">
        <g transform="translate(4.49,2.07) rotate(-23.60) scale(0.900)">
        <g transform="translate(2.88,0.96) rotate(-31.28) scale(0.880)">
        <path d="M34.1,19.7 L0.0,39.3 L-34.1,19.7 L-34.1,-19.7 L-0.0,-39.3 L34.1,-19.7Z" fill="url(#lgrad1)" filter="url(#blur1)" opacity="0.10"/>
        <ellipse cx="0" cy="0" rx="16.4" ry="10.9" fill="#FFFFFF" opacity="0.05"/>
      </g>
      </g>
      </g>
      </g>
      </g>
      </g>
      </g>
  </g>
  <g transform="translate(1634.9, 100.0)">
      <g transform="translate(2.52,3.46) rotate(0.47) scale(1.000)">
        <g transform="translate(4.28,2.71) rotate(-1.05) scale(0.980)">
        <g transform="translate(5.00,1.71) rotate(-4.51) scale(0.960)">
        <g transform="translate(4.49,0.57) rotate(-9.69) scale(0.940)">
        <g transform="translate(2.88,-0.63) rotate(-16.21) scale(0.920)">
        <g transform="translate(0.57,-1.77) rotate(-23.60) scale(0.900)" mask="url(#maskDynamic)">
        <g transform="translate(-1.88,-2.75) rotate(-31.28) scale(0.880)">
        <circle cx="0" cy="0" r="25.6" fill="url(#rgrad2)" filter="url(#shadow)" opacity="0.14"/>
        <text x="0" y="5" text-anchor="middle" font-family="Arial, sans-serif" font-size="14" fill="#FFFFFF" opacity="0.14">970</text>
      </g>
      </g>
      </g>
      </g>
      </g>
      </g>
      </g>
  </g>
  <g transform="translate(81.4, 396.1)">
      <g transform="translate(5.00,0.17) rotate(0.47) scale(1.000)">
        <g transform="translate(4.49,-1.02) rotate(-1.05) scale(0.980)">
        <g transform="translate(2.88,-2.12) rotate(-4.51) scale(0.960)">
        <g transform="translate(0.57,-3.02) rotate(-9.69) scale(0.940)">
        <g transform="translate(-1.88,-3.66) rotate(-16.21) scale(0.920)">
        <g transform="translate(-3.87,-3.97) rotate(-23.60) scale(0.900)">
        <g transform="translate(-4.92,-3.93) rotate(-31.28) scale(0.880)">
        <path d="M0.0,-45.0 L13.2,-18.2 L42.8,-13.9 L21.4,7.0 L26.5,36.4 L0.0,22.5 L-26.5,36.4 L-21.4,7.0 L-42.8,-13.9 L-13.2,-18.2Z" fill="url(#rgrad3)" filter="url(#blur3)" opacity="0.20"/>
      </g>
      </g>
      </g>
      </g>
      </g>
      </g>
      </g>
  </g>
  <g transform="translate(292.4, 404.6)">
      <g transform="translate(2.88,-3.27) rotate(0.47) scale(1.000)">
        <g transform="translate(0.57,-3.81) rotate(-1.05) scale(0.980)">
        <g transform="translate(-1.88,-4.00) rotate(-4.51) scale(0.960)">
        <g transform="translate(-3.87,-3.84) rotate(-9.69) scale(0.940)" clip-path="url(#clipDynamic)">
        <g transform="translate(-4.92,-3.33) rotate(-16.21) scale(0.920)">
        <g transform="translate(-4.75,-2.53) rotate(-23.60) scale(0.900)">
        <g transform="translate(-3.43,-1.50) rotate(-31.28) scale(0.880)">
        <rect x="-26.3" y="-26.3" width="52.6" height="52.6" rx="13.1" fill="url(#lgrad4)" filter="url(#shadow)" opacity="0.30"/>
        <circle cx="0" cy="0" r="17.5" fill="url(#rgrad0)" opacity="0.21"/>
      </g>
      </g>
      </g>
      </g>
      </g>
      </g>
      </g>
  </g>
  <g transform="translate(510.1, 401.6)">
      <g transform="translate(-1.88,-3.70) rotate(0.47) scale(1.000)">
        <g transform="translate(-3.87,-3.09) rotate(-1.05) scale(0.980)">
        <g transform="translate(-4.92,-2.21) rotate(-4.51) scale(0.960)">
        <g transform="translate(-4.75,-1.12) rotate(-9.69) scale(0.940)">
        <g transform="translate(-3.43,0.06) rotate(-16.21) scale(0.920)">
        <g transform="translate(-1.26,1.24) rotate(-23.60) scale(0.900)" mask="url(#maskStripes)">
        <g transform="translate(1.21,2.31) rotate(-31.28) scale(0.880)">
        <path d="M34.8,20.1 L0.0,40.2 L-34.8,20.1 L-34.8,-20.1 L-0.0,-40.2 L34.8,-20.1Z" fill="url(#rgrad0)" filter="url(#blur0)" opacity="0.41"/>
        <ellipse cx="0" cy="0" rx="16.7" ry="11.2" fill="#FFFFFF" opacity="0.20"/>
      </g>
      </g>
      </g>
      </g>
      </g>
      </g>
      </g>
  </g>
  <g transform="translate(735.2, 388.4)">
      <g transform="translate(-4.92,-0.73) rotate(0.47) scale(1.000)">
        <g transform="translate(-4.75,0.46) rotate(-1.05) scale(0.980)">
        <g transform="translate(-3.43,1.62) rotate(-4.51) scale(0.960)">
        <g transform="translate(-1.26,2.62) rotate(-9.69) scale(0.940)">
        <g transform="translate(1.21,3.40) rotate(-16.21) scale(0.920)">
        <g transform="translate(3.39,3.87) rotate(-23.60) scale(0.900)">
        <g transform="translate(4.74,4.00) rotate(-31.28) scale(0.880)">
        <circle cx="0" cy="0" r="37.5" fill="url(#rgrad1)" filter="url(#shadow)" opacity="0.53"/>
        <text x="0" y="5" text-anchor="middle" font-family="Arial, sans-serif" font-size="14" fill="#FFFFFF" opacity="0.53">970</text>
      </g>
      </g>
      </g>
      </g>
      </g>
      </g>
      </g>
  </g>
  <g transform="translate(966.4, 371.3)">
      <g transform="translate(-3.43,2.91) rotate(0.47) scale(1.000)">
        <g transform="translate(-1.26,3.59) rotate(-1.05) scale(0.980)">
        <g transform="translate(1.21,3.95) rotate(-4.51) scale(0.960)">
        <g transform="translate(3.39,3.96) rotate(-9.69) scale(0.940)" clip-path="url(#clipHex)">
        <g transform="translate(4.74,3.61) rotate(-16.21) scale(0.920)">
        <g transform="translate(4.92,2.94) rotate(-23.60) scale(0.900)">
        <g transform="translate(3.91,2.01) rotate(-31.28) scale(0.880)">
        <path d="M0.0,-69.2 L20.3,-28.0 L65.8,-21.4 L32.9,10.7 L40.7,56.0 L0.0,34.6 L-40.7,56.0 L-32.9,10.7 L-65.8,-21.4 L-20.3,-28.0Z" fill="url(#lgrad2)" filter="url(#blur2)" opacity="0.64"/>
      </g>
      </g>
      </g>
      </g>
      </g>
      </g>
      </g>
  </g>
  <g transform="translate(1200.8, 358.2)">
      <g transform="translate(1.21,3.88) rotate(0.47) scale(1.000)">
        <g transform="translate(3.39,3.42) rotate(-1.05) scale(0.980)">
        <g transform="translate(4.74,2.66) rotate(-4.51) scale(0.960)">
        <g transform="translate(4.92,1.65) rotate(-9.69) scale(0.940)">
        <g transform="translate(3.91,0.50) rotate(-16.21) scale(0.920)">
        <g transform="translate(1.93,-0.69) rotate(-23.60) scale(0.900)" mask="url(#maskCircleFade)">
        <g transform="translate(-0.52,-1.83) rotate(-31.28) scale(0.880)">
        <rect x="-27.5" y="-27.5" width="55.0" height="55.0" rx="13.8" fill="url(#rgrad3)" filter="url(#shadow)" opacity="0.75"/>
        <circle cx="0" cy="0" r="18.3" fill="url(#rgrad4)" opacity="0.52"/>
      </g>
      </g>
      </g>
      </g>
      </g>
      </g>
      </g>
  </g>
  <g transform="translate(1435.1, 355.4)">
      <g transform="translate(4.74,1.28) rotate(0.47) scale(1.000)">
        <g transform="translate(4.92,0.10) rotate(-1.05) scale(0.980)">
        <g transform="translate(3.91,-1.08) rotate(-4.51) scale(0.960)">
        <g transform="translate(1.93,-2.17) rotate(-9.69) scale(0.940)">
        <g transform="translate(-0.52,-3.07) rotate(-16.21) scale(0.920)">
        <g transform="translate(-2.84,-3.69) rotate(-23.60) scale(0.900)">
        <g transform="translate(-4.46,-3.98) rotate(-31.28) scale(0.880)">
        <path d="M23.6,13.6 L0.0,27.2 L-23.6,13.6 L-23.6,-13.6 L-0.0,-27.2 L23.6,-13.6Z" fill="url(#rgrad4)" filter="url(#blur4)" opacity="0.83"/>
        <ellipse cx="0" cy="0" rx="11.4" ry="7.6" fill="#FFFFFF" opacity="0.41"/>
      </g>
      </g>
      </g>
      </g>
      </g>
      </g>
      </g>
  </g>
  <g transform="translate(1665.7, 364.2)">
      <g transform="translate(3.91,-2.50) rotate(0.47) scale(1.000)">
        <g transform="translate(1.93,-3.31) rotate(-1.05) scale(0.980)">
        <g transform="translate(-0.52,-3.83) rotate(-4.51) scale(0.960)">
        <g transform="translate(-2.84,-4.00) rotate(-9.69) scale(0.940)" clip-path="url(#clipCircle)">
        <g transform="translate(-4.46,-3.82) rotate(-16.21) scale(0.920)">
        <g transform="translate(-5.00,-3.29) rotate(-23.60) scale(0.900)">
        <g transform="translate(-4.31,-2.48) rotate(-31.28) scale(0.880)">
        <circle cx="0" cy="0" r="24.6" fill="url(#lgrad0)" filter="url(#shadow)" opacity="0.88"/>
        <text x="0" y="5" text-anchor="middle" font-family="Arial, sans-serif" font-size="14" fill="#FFFFFF" opacity="0.88">970</text>
      </g>
      </g>
      </g>
      </g>
      </g>
      </g>
      </g>
  </g>
  <g transform="translate(130.0, 660.4)">
      <g transform="translate(-0.52,-3.98) rotate(0.47) scale(1.000)">
        <g transform="translate(-2.84,-3.68) rotate(-1.05) scale(0.980)">
        <g transform="translate(-4.46,-3.05) rotate(-4.51) scale(0.960)">
        <g transform="translate(-5.00,-2.15) rotate(-9.69) scale(0.940)">
        <g transform="translate(-4.31,-1.06) rotate(-16.21) scale(0.920)">
        <g transform="translate(-2.56,0.13) rotate(-23.60) scale(0.900)" mask="url(#maskGradient)">
        <g transform="translate(-0.19,1.31) rotate(-31.28) scale(0.880)">
        <path d="M0.0,-62.9 L18.5,-25.5 L59.9,-19.5 L29.9,9.7 L37.0,50.9 L0.0,31.5 L-37.0,50.9 L-29.9,9.7 L-59.9,-19.5 L-18.5,-25.5Z" fill="url(#rgrad1)" filter="url(#blur1)" opacity="0.90"/>
      </g>
      </g>
      </g>
      </g>
      </g>
      </g>
      </g>
  </g>
  <g transform="translate(346.9, 676.4)">
      <g transform="translate(-4.46,-1.80) rotate(0.47) scale(1.000)">
        <g transform="translate(-5.00,-0.67) rotate(-1.05) scale(0.980)">
        <g transform="translate(-4.31,0.53) rotate(-4.51) scale(0.960)">
        <g transform="translate(-2.56,1.68) rotate(-9.69) scale(0.940)">
        <g transform="translate(-0.19,2.68) rotate(-16.21) scale(0.920)">
        <g transform="translate(2.23,3.43) rotate(-23.60) scale(0.900)">
        <g transform="translate(4.10,3.89) rotate(-31.28) scale(0.880)">
        <rect x="-37.0" y="-37.0" width="74.0" height="74.0" rx="18.5" fill="url(#rgrad2)" filter="url(#shadow)" opacity="0.88"/>
        <circle cx="0" cy="0" r="24.7" fill="url(#rgrad3)" opacity="0.62"/>
      </g>
      </g>
      </g>
      </g>
      </g>
      </g>
      </g>
  </g>
  <g transform="translate(557.3, 684.7)">
      <g transform="translate(-4.31,2.03) rotate(0.47) scale(1.000)">
        <g transform="translate(-2.56,2.96) rotate(-1.05) scale(0.980)">
        <g transform="translate(-0.19,3.62) rotate(-4.51) scale(0.960)">
        <g transform="translate(2.23,3.96) rotate(-9.69) scale(0.940)" clip-path="url(#clipRect)">
        <g transform="translate(4.10,3.95) rotate(-16.21) scale(0.920)">
        <g transform="translate(4.97,3.58) rotate(-23.60) scale(0.900)">
        <g transform="translate(4.62,2.89) rotate(-31.28) scale(0.880)">
        <path d="M37.5,21.6 L0.0,43.3 L-37.5,21.6 L-37.5,-21.6 L-0.0,-43.3 L37.5,-21.6Z" fill="url(#lgrad3)" filter="url(#blur3)" opacity="0.83"/>
        <ellipse cx="0" cy="0" rx="18.0" ry="12.0" fill="#FFFFFF" opacity="0.42"/>
      </g>
      </g>
      </g>
      </g>
      </g>
      </g>
      </g>
  </g>
  <g transform="translate(763.4, 681.4)">
      <g transform="translate(-0.19,4.00) rotate(0.47) scale(1.000)">
        <g transform="translate(2.23,3.86) rotate(-1.05) scale(0.980)">
        <g transform="translate(4.10,3.39) rotate(-4.51) scale(0.960)">
        <g transform="translate(4.97,2.60) rotate(-9.69) scale(0.940)">
        <g transform="translate(4.62,1.59) rotate(-16.21) scale(0.920)">
        <g transform="translate(3.14,0.44) rotate(-23.60) scale(0.900)" mask="url(#maskDynamic)">
        <g transform="translate(0.89,-0.76) rotate(-31.28) scale(0.880)">
        <circle cx="0" cy="0" r="29.6" fill="url(#rgrad4)" filter="url(#shadow)" opacity="0.75"/>
        <text x="0" y="5" text-anchor="middle" font-family="Arial, sans-serif" font-size="14" fill="#FFFFFF" opacity="0.75">970</text>
      </g>
      </g>
      </g>
      </g>
      </g>
      </g>
      </g>
  </g>
  <g transform="translate(968.7, 668.0)">
      <g transform="translate(4.10,2.29) rotate(0.47) scale(1.000)">
        <g transform="translate(4.97,1.22) rotate(-1.05) scale(0.980)">
        <g transform="translate(4.62,0.04) rotate(-4.51) scale(0.960)">
        <g transform="translate(3.14,-1.15) rotate(-9.69) scale(0.940)">
        <g transform="translate(0.89,-2.23) rotate(-16.21) scale(0.920)">
        <g transform="translate(-1.57,-3.11) rotate(-23.60) scale(0.900)">
        <g transform="translate(-3.66,-3.71) rotate(-31.28) scale(0.880)">
        <path d="M0.0,-46.9 L13.8,-19.0 L44.6,-14.5 L22.3,7.3 L27.6,38.0 L0.0,23.5 L-27.6,38.0 L-22.3,7.3 L-44.6,-14.5 L-13.8,-19.0Z" fill="url(#rgrad0)" filter="url(#blur0)" opacity="0.65"/>
      </g>
      </g>
      </g>
      </g>
      </g>
      </g>
      </g>
  </g>
  <g transform="translate(1176.8, 650.9)">
      <g transform="translate(4.62,-1.52) rotate(0.47) scale(1.000)">
        <g transform="translate(3.14,-2.55) rotate(-1.05) scale(0.980)">
        <g transform="translate(0.89,-3.35) rotate(-4.51) scale(0.960)">
        <g transform="translate(-1.57,-3.84) rotate(-9.69) scale(0.940)" clip-path="url(#clipStar)">
        <g transform="translate(-3.66,-4.00) rotate(-16.21) scale(0.920)">
        <g transform="translate(-4.84,-3.80) rotate(-23.60) scale(0.900)">
        <g transform="translate(-4.85,-3.26) rotate(-31.28) scale(0.880)">
        <rect x="-23.4" y="-23.4" width="46.7" height="46.7" rx="11.7" fill="url(#lgrad1)" filter="url(#shadow)" opacity="0.53"/>
        <circle cx="0" cy="0" r="15.6" fill="url(#rgrad2)" opacity="0.37"/>
      </g>
      </g>
      </g>
      </g>
      </g>
      </g>
      </g>
  </g>
  <g transform="translate(1390.5, 638.0)">
      <g transform="translate(0.89,-3.94) rotate(0.47) scale(1.000)">
        <g transform="translate(-1.57,-3.97) rotate(-1.05) scale(0.980)">
        <g transform="translate(-3.66,-3.65) rotate(-4.51) scale(0.960)">
        <g transform="translate(-4.84,-3.01) rotate(-9.69) scale(0.940)">
        <g transform="translate(-4.85,-2.09) rotate(-16.21) scale(0.920)">
        <g transform="translate(-3.66,-0.99) rotate(-23.60) scale(0.900)" mask="url(#maskStripes)">
        <g transform="translate(-1.58,0.20) rotate(-31.28) scale(0.880)">
        <path d="M30.5,17.6 L0.0,35.2 L-30.5,17.6 L-30.5,-17.6 L-0.0,-35.2 L30.5,-17.6Z" fill="url(#rgrad2)" filter="url(#blur2)" opacity="0.41"/>
        <ellipse cx="0" cy="0" rx="14.7" ry="9.8" fill="#FFFFFF" opacity="0.21"/>
      </g>
      </g>
      </g>
      </g>
      </g>
      </g>
      </g>
  </g>
  <g transform="translate(1611.5, 635.5)">
      <g transform="translate(-3.66,-2.73) rotate(0.47) scale(1.000)">
        <g transform="translate(-4.84,-1.74) rotate(-1.05) scale(0.980)">
        <g transform="translate(-4.85,-0.60) rotate(-4.51) scale(0.960)">
        <g transform="translate(-3.66,0.60) rotate(-9.69) scale(0.940)">
        <g transform="translate(-1.58,1.74) rotate(-16.21) scale(0.920)">
        <g transform="translate(0.89,2.72) rotate(-23.60) scale(0.900)">
        <g transform="translate(3.14,3.47) rotate(-31.28) scale(0.880)">
        <circle cx="0" cy="0" r="35.9" fill="url(#rgrad3)" filter="url(#shadow)" opacity="0.30"/>
        <text x="0" y="5" text-anchor="middle" font-family="Arial, sans-serif" font-size="14" fill="#FFFFFF" opacity="0.30">970</text>
      </g>
      </g>
      </g>
      </g>
      </g>
      </g>
      </g>
  </g>
  <g transform="translate(79.4, 924.5)">
      <g transform="translate(-4.85,0.99) rotate(0.47) scale(1.000)">
        <g transform="translate(-3.66,2.09) rotate(-1.05) scale(0.980)">
        <g transform="translate(-1.58,3.00) rotate(-4.51) scale(0.960)">
        <g transform="translate(0.89,3.65) rotate(-9.69) scale(0.940)" clip-path="url(#clipDynamic)">
        <g transform="translate(3.14,3.97) rotate(-16.21) scale(0.920)">
        <g transform="translate(4.62,3.94) rotate(-23.60) scale(0.900)">
        <g transform="translate(4.97,3.55) rotate(-31.28) scale(0.880)">
        <path d="M0.0,-74.1 L21.8,-30.0 L70.5,-22.9 L35.2,11.5 L43.6,60.0 L0.0,37.1 L-43.6,60.0 L-35.2,11.5 L-70.5,-22.9 L-21.8,-30.0Z" fill="url(#lgrad4)" filter="url(#blur4)" opacity="0.21"/>
      </g>
      </g>
      </g>
      </g>
      </g>
      </g>
      </g>
  </g>
  <g transform="translate(281.2, 378.6)" mask="url(#maskGradient)">
    <ellipse cx="0" cy="0" rx="200" ry="150" fill="url(#rgrad0)" filter="url(#blur3)" opacity="0.3"/>
  </g>
  <g transform="translate(872.5, 369.8)" mask="url(#maskCircleFade)">
    <ellipse cx="0" cy="0" rx="200" ry="150" fill="url(#rgrad1)" filter="url(#blur3)" opacity="0.3"/>
  </g>
  <g transform="translate(1397.1, 328.1)" mask="url(#maskStripes)">
    <ellipse cx="0" cy="0" rx="200" ry="150" fill="url(#rgrad2)" filter="url(#blur3)" opacity="0.3"/>
  </g>
</svg>