<?xml version="1.0" encoding="UTF-8"?>
<svg xmlns="http://www.w3.org/2000/svg" viewBox="0 0 1920 1080" width="1920" height="1080">
  <defs>
    <filter id="blur0" x="-50%" y="-50%" width="200%" height="200%">
      <feGaussianBlur in="SourceGraphic" stdDeviation="1"/>
    </filter>
    <filter id="blur1" x="-50%" y="-50%" width="200%" height="200%">
      <feGaussianBlur in="SourceGraphic" stdDeviation="3"/>
    </filter>
    <filter id="blur2" x="-50%" y="-50%" width="200%" height="200%">
      <feGaussianBlur in="SourceGraphic" stdDeviation="5"/>
    </filter>
    <filter id="blur3" x="-50%" y="-50%" width="200%" height="200%">
      <feGaussianBlur in="SourceGraphic" stdDeviation="7"/>
    </filter>
    <filter id="blur4" x="-50%" y="-50%" width="200%" height="200%">
      <feGaussianBlur in="SourceGraphic" stdDeviation="9"/>
    </filter>
    <filter id="shadow" x="-50%" y="-50%" width="200%" height="200%">
      <feGaussianBlur in="SourceAlpha" stdDeviation="3" result="blur"/>
      <feOffset in="blur" dx="4" dy="4" result="offsetBlur"/>
      <feMerge>
        <feMergeNode in="offsetBlur"/>
        <feMergeNode in="SourceGraphic"/>
      </feMerge>
    </filter>
    <linearGradient id="lgrad0" x1="0%" y1="0%" x2="53.1%" y2="0.1%">
      <stop offset="0%" stop-color="#FF6B6B"/>
      <stop offset="33%" stop-color="#4ECDC4"/>
      <stop offset="66%" stop-color="#45B7D1"/>
      <stop offset="100%" stop-color="#96E6A1"/>
    </linearGradient>
    <linearGradient id="lgrad1" x1="0%" y1="0%" x2="77.6%" y2="8.3%">
      <stop offset="0%" stop-color="#FFE66D"/>
      <stop offset="33%" stop-color="#FF6B6B"/>
      <stop offset="66%" stop-color="#C44D58"/>
      <stop offset="100%" stop-color="#8B0000"/>
    </linearGradient>
    <linearGradient id="lgrad2" x1="0%" y1="0%" x2="94.7%" y2="27.7%">
      <stop offset="0%" stop-color="#4169E1"/>
      <stop offset="33%" stop-color="#7B68EE"/>
      <stop offset="66%" stop-color="#9370DB"/>
      <stop offset="100%" stop-color="#FFD700"/>
    </linearGradient>
    <linearGradient id="lgrad3" x1="0%" y1="0%" x2="99.9%" y2="53.1%">
      <stop offset="0%" stop-color="#32CD32"/>
      <stop offset="33%" stop-color="#228B22"/>
      <stop offset="66%" stop-color="#006400"/>
      <stop offset="100%" stop-color="#ADFF2F"/>
    </linearGradient>
    <linearGradient id="lgrad4" x1="0%" y1="0%" x2="91.7%" y2="77.6%">
      <stop offset="0%" stop-color="#FF1493"/>
      <stop offset="33%" stop-color="#FF69B4"/>
      <stop offset="66%" stop-color="#FFB6C1"/>
      <stop offset="100%" stop-color="#FFC0CB"/>
    </linearGradient>
    <radialGradient id="rgrad0" cx="47.1%" cy="41.4%" r="60%">
      <stop offset="0%" stop-color="#FF6B6B" stop-opacity="1"/>
      <stop offset="50%" stop-color="#4ECDC4" stop-opacity="0.8"/>
      <stop offset="100%" stop-color="#45B7D1" stop-opacity="0.6"/>
    </radialGradient>
    <radialGradient id="rgrad1" cx="57.1%" cy="49.4%" r="60%">
      <stop offset="0%" stop-color="#FFE66D" stop-opacity="1"/>
      <stop offset="50%" stop-color="#FF6B6B" stop-opacity="0.8"/>
      <stop offset="100%" stop-color="#C44D58" stop-opacity="0.6"/>
    </radialGradient>
    <radialGradient id="rgrad2" cx="67.1%" cy="57.4%" r="60%">
      <stop offset="0%" stop-color="#4169E1" stop-opacity="1"/>
      <stop offset="50%" stop-color="#7B68EE" stop-opacity="0.8"/>
      <stop offset="100%" stop-color="#9370DB" stop-opacity="0.6"/>
    </radialGradient>
    <radialGradient id="rgrad3" cx="37.1%" cy="65.4%" r="60%">
      <stop offset="0%" stop-color="#32CD32" stop-opacity="1"/>
      <stop offset="50%" stop-color="#228B22" stop-opacity="0.8"/>
      <stop offset="100%" stop-color="#006400" stop-opacity="0.6"/>
    </radialGradient>
    <radialGradient id="rgrad4" cx="47.1%" cy="33.4%" r="60%">
      <stop offset="0%" stop-color="#FF1493" stop-opacity="1"/>
      <stop offset="50%" stop-color="#FF69B4" stop-opacity="0.8"/>
      <stop offset="100%" stop-color="#FFB6C1" stop-opacity="0.6"/>
    </radialGradient>
    <clipPath id="clipCircle">
      <circle cx="0" cy="0" r="50"/>
    </clipPath>
    <clipPath id="clipStar">
      <path d="M0.0,-50.0 L14.7,-20.2 L47.6,-15.5 L23.8,7.7 L29.4,40.5 L0.0,25.0 L-29.4,40.5 L-23.8,7.7 L-47.6,-15.5 L-14.7,-20.2Z"/>
    </clipPath>
    <clipPath id="clipHex">
      <path d="M39.0,22.5 L0.0,45.0 L-39.0,22.5 L-39.0,-22.5 L-0.0,-45.0 L39.0,-22.5Z"/>
    </clipPath>
    <clipPath id="clipRect">
      <rect x="-40" y="-30" width="80" height="60" rx="10"/>
    </clipPath>
    <clipPath id="clipDynamic">
      <circle cx="0" cy="0" r="39.1"/>
    </clipPath>
    <mask id="maskGradient" maskContentUnits="objectBoundingBox">
      <rect x="0" y="0" width="1" height="1" fill="url(#maskGrad)"/>
    </mask>
    <linearGradient id="maskGrad" x1="0%" y1="0%" x2="100%" y2="100%">
      <stop offset="0%" stop-color="white"/>
      <stop offset="100%" stop-color="black"/>
    </linearGradient>
    <mask id="maskCircleFade">
      <circle cx="0" cy="0" r="60" fill="white"/>
      <circle cx="0" cy="0" r="30" fill="black"/>
    </mask>
    <mask id="maskStripes">
      <rect x="-50" y="-50" width="100" height="100" fill="white"/>
      <rect x="-50" y="-40" width="100" height="10" fill="black"/>
      <rect x="-50" y="-20" width="100" height="10" fill="black"/>
      <rect x="-50" y="0" width="100" height="10" fill="black"/>
      <rect x="-50" y="20" width="100" height="10" fill="black"/>
      <rect x="-50" y="40" width="100" height="10" fill="black"/>
    </mask>
    <mask id="maskDynamic">
      <rect x="-60" y="-60" width="120" height="120" fill="white" fill-opacity="0.99"/>
      <circle cx="0" cy="0" r="25" fill="white"/>
    </mask>
  </defs>
  <rect width="1920" height="1080" fill="url(#lgrad0)"/>
  <g transform="translate(108.1, 75.9)">
      <g transform="translate(1.35,-3.85) rotate(4.95) scale(1.000)">
        <g transform="translate(-1.12,-4.00) rotate(9.98) scale(0.980)">
        <g transform="translate(-3.32,-3.79) rotate(14.48) scale(0.960)">
        <g transform="translate(-4.71,-3.24) rotate(17.89) scale(0.940)" clip-path="url(#clipCircle)">
        <g transform="translate(-4.94,-2.40) rotate(19.70) scale(0.920)">
        <g transform="translate(-3.96,-1.35) rotate(19.50) scale(0.900)">
        <g transform="translate(-2.02,-0.18) rotate(17.01) scale(0.880)">
        <path d="M0.0,-74.9 L22.0,-30.3 L71.2,-23.1 L35.6,11.6 L44.0,60.6 L0.0,37.4 L-44.0,60.6 L-35.6,11.6 L-71.2,-23.1 L-22.0,-30.3Z" fill="url(#lgrad0)" filter="url(#blur0)" opacity="0.90"/>
      </g>
      </g>
      </g>
      </g>
      </g>
      </g>
      </g>
  </g>
  <g transform="translate(313.3, 77.2)">
      <g transform="translate(-3.32,-2.99) rotate(4.95) scale(1.000)">
        <g transform="translate(-4.71,-2.07) rotate(9.98) scale(0.980)">
        <g transform="translate(-4.94,-0.97) rotate(14.48) scale(0.960)">
        <g transform="translate(-3.96,0.22) rotate(17.89) scale(0.940)">
        <g transform="translate(-2.02,1.39) rotate(19.70) scale(0.920)">
        <g transform="translate(0.42,2.44) rotate(19.50) scale(0.900)" mask="url(#maskCircleFade)">
        <g transform="translate(2.76,3.27) rotate(17.01) scale(0.880)">
        <rect x="-34.9" y="-34.9" width="69.8" height="69.8" rx="17.4" fill="url(#rgrad1)" filter="url(#shadow)" opacity="0.89"/>
        <circle cx="0" cy="0" r="23.3" fill="url(#rgrad2)" opacity="0.63"/>
      </g>
      </g>
      </g>
      </g>
      </g>
      </g>
      </g>
  </g>
  <g transform="translate(520.1, 89.3)">
      <g transform="translate(-4.94,0.62) rotate(4.95) scale(1.000)">
        <g transform="translate(-3.96,1.76) rotate(9.98) scale(0.980)">
        <g transform="translate(-2.02,2.74) rotate(14.48) scale(0.960)">
        <g transform="translate(0.42,3.48) rotate(17.89) scale(0.940)">
        <g transform="translate(2.76,3.91) rotate(19.70) scale(0.920)">
        <g transform="translate(4.42,3.99) rotate(19.50) scale(0.900)">
        <g transform="translate(5.00,3.71) rotate(17.01) scale(0.880)">
        <path d="M28.9,16.7 L0.0,33.4 L-28.9,16.7 L-28.9,-16.7 L-0.0,-33.4 L28.9,-16.7Z" fill="url(#rgrad2)" filter="url(#blur2)" opacity="0.86"/>
        <ellipse cx="0" cy="0" rx="13.9" ry="9.3" fill="#FFFFFF" opacity="0.43"/>
      </g>
      </g>
      </g>
      </g>
      </g>
      </g>
      </g>
  </g>
  <g transform="translate(731.8, 106.3)">
      <g transform="translate(-2.02,3.66) rotate(4.95) scale(1.000)">
        <g transform="translate(0.42,3.97) rotate(9.98) scale(0.980)">
        <g transform="translate(2.76,3.93) rotate(14.48) scale(0.960)">
        <g transform="translate(4.42,3.54) rotate(17.89) scale(0.940)" clip-path="url(#clipRect)">
        <g transform="translate(5.00,2.83) rotate(19.70) scale(0.920)">
        <g transform="translate(4.35,1.87) rotate(19.50) scale(0.900)">
        <g transform="translate(2.64,0.74) rotate(17.01) scale(0.880)">
        <circle cx="0" cy="0" r="22.8" fill="url(#lgrad3)" filter="url(#shadow)" opacity="0.79"/>
        <text x="0" y="5" text-anchor="middle" font-family="Arial, sans-serif" font-size="14" fill="#FFFFFF" opacity="0.79">457</text>
      </g>
      </g>
      </g>
      </g>
      </g>
      </g>
      </g>
  </g>
  <g transform="translate(950.4, 120.4)">
      <g transform="translate(2.76,3.34) rotate(4.95) scale(1.000)">
        <g transform="translate(4.42,2.53) rotate(9.98) scale(0.980)">
        <g transform="translate(5.00,1.51) rotate(14.48) scale(0.960)">
        <g transform="translate(4.35,0.34) rotate(17.89) scale(0.940)">
        <g transform="translate(2.64,-0.85) rotate(19.70) scale(0.920)">
        <g transform="translate(0.28,-1.97) rotate(19.50) scale(0.900)" mask="url(#maskGradient)">
        <g transform="translate(-2.14,-2.91) rotate(17.01) scale(0.880)">
        <path d="M0.0,-48.7 L14.3,-19.7 L46.4,-15.1 L23.2,7.5 L28.6,39.4 L0.0,24.4 L-28.6,39.4 L-23.2,7.5 L-46.4,-15.1 L-14.3,-19.7Z" fill="url(#rgrad4)" filter="url(#blur4)" opacity="0.69"/>
      </g>
      </g>
      </g>
      </g>
      </g>
      </g>
      </g>
  </g>
  <g transform="translate(1176.2, 124.9)">
      <g transform="translate(5.00,-0.06) rotate(4.95) scale(1.000)">
        <g transform="translate(4.35,-1.24) rotate(9.98) scale(0.980)">
        <g transform="translate(2.64,-2.30) rotate(14.48) scale(0.960)">
        <g transform="translate(0.28,-3.17) rotate(17.89) scale(0.940)">
        <g transform="translate(-2.14,-3.75) rotate(19.70) scale(0.920)">
        <g transform="translate(-4.05,-3.99) rotate(19.50) scale(0.900)">
        <g transform="translate(-4.96,-3.88) rotate(17.01) scale(0.880)">
        <rect x="-31.1" y="-31.1" width="62.3" height="62.3" rx="15.6" fill="url(#rgrad0)" filter="url(#shadow)" opacity="0.58"/>
        <circle cx="0" cy="0" r="20.8" fill="url(#rgrad1)" opacity="0.41"/>
      </g>
      </g>
      </g>
      </g>
      </g>
      </g>
      </g>
  </g>
  <g transform="translate(1407.9, 117.7)">
      <g transform="translate(2.64,-3.40) rotate(4.95) scale(1.000)">
        <g transform="translate(0.28,-3.87) rotate(9.98) scale(0.980)">
        <g transform="translate(-2.14,-4.00) rotate(14.48) scale(0.960)">
        <g transform="translate(-4.05,-3.77) rotate(17.89) scale(0.940)" clip-path="url(#clipStar)">
        <g transform="translate(-4.96,-3.20) rotate(19.70) scale(0.920)">
        <g transform="translate(-4.66,-2.35) rotate(19.50) scale(0.900)">
        <g transform="translate(-3.21,-1.29) rotate(17.01) scale(0.880)">
        <path d="M38.3,22.1 L0.0,44.2 L-38.3,22.1 L-38.3,-22.1 L-0.0,-44.2 L38.3,-22.1Z" fill="url(#lgrad1)" filter="url(#blur1)" opacity="0.46"/>
        <ellipse cx="0" cy="0" rx="18.4" ry="12.3" fill="#FFFFFF" opacity="0.23"/>
      </g>
      </g>
      </g>
      </g>
      </g>
      </g>
      </g>
  </g>
  <g transform="translate(1642.5, 102.1)">
      <g transform="translate(-2.14,-3.61) rotate(4.95) scale(1.000)">
        <g transform="translate(-4.05,-2.95) rotate(9.98) scale(0.980)">
        <g transform="translate(-4.96,-2.01) rotate(14.48) scale(0.960)">
        <g transform="translate(-4.66,-0.90) rotate(17.89) scale(0.940)">
        <g transform="translate(-3.21,0.29) rotate(19.70) scale(0.920)">
        <g transform="translate(-0.99,1.46) rotate(19.50) scale(0.900)" mask="url(#maskDynamic)">
        <g transform="translate(1.49,2.49) rotate(17.01) scale(0.880)">
        <circle cx="0" cy="0" r="36.3" fill="url(#rgrad2)" filter="url(#shadow)" opacity="0.35"/>
        <text x="0" y="5" text-anchor="middle" font-family="Arial, sans-serif" font-size="14" fill="#FFFFFF" opacity="0.35">457</text>
      </g>
      </g>
      </g>
      </g>
      </g>
      </g>
      </g>
  </g>
  <g transform="translate(116.6, 365.6)">
      <g transform="translate(-4.96,-0.51) rotate(4.95) scale(1.000)">
        <g transform="translate(-4.66,0.69) rotate(9.98) scale(0.980)">
        <g transform="translate(-3.21,1.82) rotate(14.48) scale(0.960)">
        <g transform="translate(-0.99,2.79) rotate(17.89) scale(0.940)">
        <g transform="translate(1.49,3.51) rotate(19.70) scale(0.920)">
        <g transform="translate(3.59,3.92) rotate(19.50) scale(0.900)">
        <g transform="translate(4.82,3.98) rotate(17.01) scale(0.880)">
        <path d="M0.0,-59.9 L17.6,-24.2 L56.9,-18.5 L28.5,9.2 L35.2,48.4 L0.0,29.9 L-35.2,48.4 L-28.5,9.2 L-56.9,-18.5 L-17.6,-24.2Z" fill="url(#rgrad3)" filter="url(#blur3)" opacity="0.24"/>
      </g>
      </g>
      </g>
      </g>
      </g>
      </g>
      </g>
  </g>
  <g transform="translate(346.5, 355.8)">
      <g transform="translate(-3.21,3.06) rotate(4.95) scale(1.000)">
        <g transform="translate(-0.99,3.69) rotate(9.98) scale(0.980)">
        <g transform="translate(1.49,3.98) rotate(14.48) scale(0.960)">
        <g transform="translate(3.59,3.92) rotate(17.89) scale(0.940)" clip-path="url(#clipDynamic)">
        <g transform="translate(4.82,3.51) rotate(19.70) scale(0.920)">
        <g transform="translate(4.87,2.78) rotate(19.50) scale(0.900)">
        <g transform="translate(3.72,1.81) rotate(17.01) scale(0.880)">
        <rect x="-23.7" y="-23.7" width="47.3" height="47.3" rx="11.8" fill="url(#lgrad4)" filter="url(#shadow)" opacity="0.17"/>
        <circle cx="0" cy="0" r="15.8" fill="url(#rgrad0)" opacity="0.12"/>
      </g>
      </g>
      </g>
      </g>
      </g>
      </g>
      </g>
  </g>
  <g transform="translate(570.0, 357.4)">
      <g transform="translate(1.49,3.82) rotate(4.95) scale(1.000)">
        <g transform="translate(3.59,3.30) rotate(9.98) scale(0.980)">
        <g transform="translate(4.82,2.48) rotate(14.48) scale(0.960)">
        <g transform="translate(4.87,1.44) rotate(17.89) scale(0.940)">
        <g transform="translate(3.72,0.28) rotate(19.70) scale(0.920)">
        <g transform="translate(1.67,-0.92) rotate(19.50) scale(0.900)" mask="url(#maskStripes)">
        <g transform="translate(-0.80,-2.03) rotate(17.01) scale(0.880)">
        <path d="M24.1,13.9 L0.0,27.9 L-24.1,13.9 L-24.1,-13.9 L-0.0,-27.9 L24.1,-13.9Z" fill="url(#rgrad0)" filter="url(#blur0)" opacity="0.12"/>
        <ellipse cx="0" cy="0" rx="11.6" ry="7.7" fill="#FFFFFF" opacity="0.06"/>
      </g>
      </g>
      </g>
      </g>
      </g>
      </g>
      </g>
  </g>
  <g transform="translate(786.1, 369.6)">
      <g transform="translate(4.82,1.06) rotate(4.95) scale(1.000)">
        <g transform="translate(4.87,-0.12) rotate(9.98) scale(0.980)">
        <g transform="translate(3.72,-1.30) rotate(14.48) scale(0.960)">
        <g transform="translate(1.67,-2.36) rotate(17.89) scale(0.940)">
        <g transform="translate(-0.80,-3.21) rotate(19.70) scale(0.920)">
        <g transform="translate(-3.07,-3.77) rotate(19.50) scale(0.900)">
        <g transform="translate(-4.58,-4.00) rotate(17.01) scale(0.880)">
        <circle cx="0" cy="0" r="29.0" fill="url(#rgrad1)" filter="url(#shadow)" opacity="0.10"/>
        <text x="0" y="5" text-anchor="middle" font-family="Arial, sans-serif" font-size="14" fill="#FFFFFF" opacity="0.10">457</text>
      </g>
      </g>
      </g>
      </g>
      </g>
      </g>
      </g>
  </g>
  <g transform="translate(995.9, 386.7)">
      <g transform="translate(3.72,-2.67) rotate(4.95) scale(1.000)">
        <g transform="translate(1.67,-3.43) rotate(9.98) scale(0.980)">
        <g transform="translate(-0.80,-3.89) rotate(14.48) scale(0.960)">
        <g transform="translate(-3.07,-3.99) rotate(17.89) scale(0.940)" clip-path="url(#clipHex)">
        <g transform="translate(-4.58,-3.74) rotate(19.70) scale(0.920)">
        <g transform="translate(-4.98,-3.16) rotate(19.50) scale(0.900)">
        <g transform="translate(-4.16,-2.29) rotate(17.01) scale(0.880)">
        <path d="M0.0,-71.4 L21.0,-28.9 L67.9,-22.1 L34.0,11.0 L42.0,57.8 L0.0,35.7 L-42.0,57.8 L-34.0,11.0 L-67.9,-22.1 L-21.0,-28.9Z" fill="url(#lgrad2)" filter="url(#blur2)" opacity="0.12"/>
      </g>
      </g>
      </g>
      </g>
      </g>
      </g>
      </g>
  </g>
  <g transform="translate(1201.7, 400.7)">
      <g transform="translate(-0.80,-3.95) rotate(4.95) scale(1.000)">
        <g transform="translate(-3.07,-3.58) rotate(9.98) scale(0.980)">
        <g transform="translate(-4.58,-2.90) rotate(14.48) scale(0.960)">
        <g transform="translate(-4.98,-1.96) rotate(17.89) scale(0.940)">
        <g transform="translate(-4.16,-0.84) rotate(19.70) scale(0.920)">
        <g transform="translate(-2.32,0.36) rotate(19.50) scale(0.900)" mask="url(#maskCircleFade)">
        <g transform="translate(0.09,1.52) rotate(17.01) scale(0.880)">
        <rect x="-37.2" y="-37.2" width="74.3" height="74.3" rx="18.6" fill="url(#rgrad3)" filter="url(#shadow)" opacity="0.17"/>
        <circle cx="0" cy="0" r="24.8" fill="url(#rgrad4)" opacity="0.12"/>
      </g>
      </g>
      </g>
      </g>
      </g>
      </g>
      </g>
  </g>
  <g transform="translate(1407.1, 404.9)">
      <g transform="translate(-4.58,-1.60) rotate(4.95) scale(1.000)">
        <g transform="translate(-4.98,-0.44) rotate(9.98) scale(0.980)">
        <g transform="translate(-4.16,0.75) rotate(14.48) scale(0.960)">
        <g transform="translate(-2.32,1.88) rotate(17.89) scale(0.940)">
        <g transform="translate(0.09,2.84) rotate(19.70) scale(0.920)">
        <g transform="translate(2.48,3.55) rotate(19.50) scale(0.900)">
        <g transform="translate(4.26,3.93) rotate(17.01) scale(0.880)">
        <path d="M33.3,19.2 L0.0,38.4 L-33.3,19.2 L-33.3,-19.2 L-0.0,-38.4 L33.3,-19.2Z" fill="url(#rgrad4)" filter="url(#blur4)" opacity="0.26"/>
        <ellipse cx="0" cy="0" rx="16.0" ry="10.7" fill="#FFFFFF" opacity="0.13"/>
      </g>
      </g>
      </g>
      </g>
      </g>
      </g>
      </g>
  </g>
  <g transform="translate(1615.7, 397.4)">
      <g transform="translate(-4.16,2.22) rotate(4.95) scale(1.000)">
        <g transform="translate(-2.32,3.11) rotate(9.98) scale(0.980)">
        <g transform="translate(0.09,3.71) rotate(14.48) scale(0.960)">
        <g transform="translate(2.48,3.99) rotate(17.89) scale(0.940)" clip-path="url(#clipCircle)">
        <g transform="translate(4.26,3.90) rotate(19.70) scale(0.920)">
        <g transform="translate(4.99,3.47) rotate(19.50) scale(0.900)">
        <g transform="translate(4.51,2.73) rotate(17.01) scale(0.880)">
        <circle cx="0" cy="0" r="25.0" fill="url(#lgrad0)" filter="url(#shadow)" opacity="0.36"/>
        <text x="0" y="5" text-anchor="middle" font-family="Arial, sans-serif" font-size="14" fill="#FFFFFF" opacity="0.36">457</text>
      </g>
      </g>
      </g>
      </g>
      </g>
      </g>
      </g>
  </g>
  <g transform="translate(70.2, 661.7)">
      <g transform="translate(0.09,4.00) rotate(4.95) scale(1.000)">
        <g transform="translate(2.48,3.80) rotate(9.98) scale(0.980)">
        <g transform="translate(4.26,3.26) rotate(14.48) scale(0.960)">
        <g transform="translate(4.99,2.43) rotate(17.89) scale(0.940)">
        <g transform="translate(4.51,1.38) rotate(19.70) scale(0.920)">
        <g transform="translate(2.92,0.21) rotate(19.50) scale(0.900)" mask="url(#maskGradient)">
        <g transform="translate(0.61,-0.98) rotate(17.01) scale(0.880)">
        <path d="M0.0,-45.2 L13.3,-18.3 L43.0,-14.0 L21.5,7.0 L26.6,36.6 L0.0,22.6 L-26.6,36.6 L-21.5,7.0 L-43.0,-14.0 L-13.3,-18.3Z" fill="url(#rgrad1)" filter="url(#blur1)" opacity="0.48"/>
      </g>
      </g>
      </g>
      </g>
      </g>
      </g>
      </g>
  </g>
  <g transform="translate(292.1, 645.3)">
      <g transform="translate(4.26,2.10) rotate(4.95) scale(1.000)">
        <g transform="translate(4.99,1.00) rotate(9.98) scale(0.980)">
        <g transform="translate(4.51,-0.19) rotate(14.48) scale(0.960)">
        <g transform="translate(2.92,-1.36) rotate(17.89) scale(0.940)">
        <g transform="translate(0.61,-2.41) rotate(19.70) scale(0.920)">
        <g transform="translate(-1.84,-3.25) rotate(19.50) scale(0.900)">
        <g transform="translate(-3.84,-3.79) rotate(17.01) scale(0.880)">
        <rect x="-27.0" y="-27.0" width="53.9" height="53.9" rx="13.5" fill="url(#rgrad2)" filter="url(#shadow)" opacity="0.60"/>
        <circle cx="0" cy="0" r="18.0" fill="url(#rgrad3)" opacity="0.42"/>
      </g>
      </g>
      </g>
      </g>
      </g>
      </g>
      </g>
  </g>
  <g transform="translate(520.7, 635.7)">
      <g transform="translate(4.51,-1.73) rotate(4.95) scale(1.000)">
        <g transform="translate(2.92,-2.72) rotate(9.98) scale(0.980)">
        <g transform="translate(0.61,-3.47) rotate(14.48) scale(0.960)">
        <g transform="translate(-1.84,-3.90) rotate(17.89) scale(0.940)" clip-path="url(#clipRect)">
        <g transform="translate(-3.84,-3.99) rotate(19.70) scale(0.920)">
        <g transform="translate(-4.91,-3.72) rotate(19.50) scale(0.900)">
        <g transform="translate(-4.77,-3.12) rotate(17.01) scale(0.880)">
        <path d="M35.5,20.5 L0.0,41.0 L-35.5,20.5 L-35.5,-20.5 L-0.0,-41.0 L35.5,-20.5Z" fill="url(#lgrad3)" filter="url(#blur3)" opacity="0.71"/>
        <ellipse cx="0" cy="0" rx="17.1" ry="11.4" fill="#FFFFFF" opacity="0.35"/>
      </g>
      </g>
      </g>
      </g>
      </g>
      </g>
      </g>
  </g>
  <g transform="translate(754.1, 637.6)">
      <g transform="translate(0.61,-3.97) rotate(4.95) scale(1.000)">
        <g transform="translate(-1.84,-3.94) rotate(9.98) scale(0.980)">
        <g transform="translate(-3.84,-3.55) rotate(14.48) scale(0.960)">
        <g transform="translate(-4.91,-2.85) rotate(17.89) scale(0.940)">
        <g transform="translate(-4.77,-1.90) rotate(19.70) scale(0.920)">
        <g transform="translate(-3.46,-0.77) rotate(19.50) scale(0.900)" mask="url(#maskDynamic)">
        <g transform="translate(-1.31,0.42) rotate(17.01) scale(0.880)">
        <circle cx="0" cy="0" r="37.5" fill="url(#rgrad4)" filter="url(#shadow)" opacity="0.80"/>
        <text x="0" y="5" text-anchor="middle" font-family="Arial, sans-serif" font-size="14" fill="#FFFFFF" opacity="0.80">457</text>
      </g>
      </g>
      </g>
      </g>
      </g>
      </g>
      </g>
  </g>
  <g transform="translate(988.9, 650.0)">
      <g transform="translate(-3.84,-2.56) rotate(4.95) scale(1.000)">
        <g transform="translate(-4.91,-1.54) rotate(9.98) scale(0.980)">
        <g transform="translate(-4.77,-0.38) rotate(14.48) scale(0.960)">
        <g transform="translate(-3.46,0.82) rotate(17.89) scale(0.940)">
        <g transform="translate(-1.31,1.94) rotate(19.70) scale(0.920)">
        <g transform="translate(1.17,2.89) rotate(19.50) scale(0.900)">
        <g transform="translate(3.35,3.58) rotate(17.01) scale(0.880)">
        <path d="M0.0,-67.9 L20.0,-27.5 L64.6,-21.0 L32.3,10.5 L39.9,55.0 L0.0,34.0 L-39.9,55.0 L-32.3,10.5 L-64.6,-21.0 L-20.0,-27.5Z" fill="url(#rgrad0)" filter="url(#blur0)" opacity="0.87"/>
      </g>
      </g>
      </g>
      </g>
      </g>
      </g>
      </g>
  </g>
  <g transform="translate(1221.6, 667.1)">
      <g transform="translate(-4.77,1.21) rotate(4.95) scale(1.000)">
        <g transform="translate(-3.46,2.28) rotate(9.98) scale(0.980)">
        <g transform="translate(-1.31,3.15) rotate(14.48) scale(0.960)">
        <g transform="translate(1.17,3.74) rotate(17.89) scale(0.940)" clip-path="url(#clipStar)">
        <g transform="translate(3.35,3.99) rotate(19.70) scale(0.920)">
        <g transform="translate(4.72,3.89) rotate(19.50) scale(0.900)">
        <g transform="translate(4.93,3.44) rotate(17.01) scale(0.880)">
        <rect x="-26.8" y="-26.8" width="53.6" height="53.6" rx="13.4" fill="url(#lgrad1)" filter="url(#shadow)" opacity="0.90"/>
        <circle cx="0" cy="0" r="17.9" fill="url(#rgrad2)" opacity="0.63"/>
      </g>
      </g>
      </g>
      </g>
      </g>
      </g>
      </g>
  </g>
  <g transform="translate(1448.9, 680.9)">
      <g transform="translate(-1.31,3.86) rotate(4.95) scale(1.000)">
        <g transform="translate(1.17,4.00) rotate(9.98) scale(0.980)">
        <g transform="translate(3.35,3.78) rotate(14.48) scale(0.960)">
        <g transform="translate(4.72,3.22) rotate(17.89) scale(0.940)">
        <g transform="translate(4.93,2.37) rotate(19.70) scale(0.920)">
        <g transform="translate(3.94,1.32) rotate(19.50) scale(0.900)" mask="url(#maskStripes)">
        <g transform="translate(1.98,0.14) rotate(17.01) scale(0.880)">
        <path d="M23.4,13.5 L0.0,27.1 L-23.4,13.5 L-23.4,-13.5 L-0.0,-27.1 L23.4,-13.5Z" fill="url(#rgrad2)" filter="url(#blur2)" opacity="0.89"/>
        <ellipse cx="0" cy="0" rx="11.3" ry="7.5" fill="#FFFFFF" opacity="0.45"/>
      </g>
      </g>
      </g>
      </g>
      </g>
      </g>
      </g>
  </g>
  <g transform="translate(1669.2, 684.8)">
      <g transform="translate(3.35,2.97) rotate(4.95) scale(1.000)">
        <g transform="translate(4.72,2.04) rotate(9.98) scale(0.980)">
        <g transform="translate(4.93,0.93) rotate(14.48) scale(0.960)">
        <g transform="translate(3.94,-0.26) rotate(17.89) scale(0.940)">
        <g transform="translate(1.98,-1.43) rotate(19.70) scale(0.920)">
        <g transform="translate(-0.47,-2.47) rotate(19.50) scale(0.900)">
        <g transform="translate(-2.80,-3.29) rotate(17.01) scale(0.880)">
        <circle cx="0" cy="0" r="25.2" fill="url(#rgrad3)" filter="url(#shadow)" opacity="0.85"/>
        <text x="0" y="5" text-anchor="middle" font-family="Arial, sans-serif" font-size="14" fill="#FFFFFF" opacity="0.85">457</text>
      </g>
      </g>
      </g>
      </g>
      </g>
      </g>
      </g>
  </g>
  <g transform="translate(122.3, 957.1)">
      <g transform="translate(4.93,-0.65) rotate(4.95) scale(1.000)">
        <g transform="translate(3.94,-1.79) rotate(9.98) scale(0.980)">
        <g transform="translate(1.98,-2.77) rotate(14.48) scale(0.960)">
        <g transform="translate(-0.47,-3.50) rotate(17.89) scale(0.940)" clip-path="url(#clipDynamic)">
        <g transform="translate(-2.80,-3.92) rotate(19.70) scale(0.920)">
        <g transform="translate(-4.44,-3.98) rotate(19.50) scale(0.900)">
        <g transform="translate(-5.00,-3.69) rotate(17.01) scale(0.880)">
        <path d="M0.0,-64.5 L18.9,-26.1 L61.3,-19.9 L30.6,10.0 L37.9,52.1 L0.0,32.2 L-37.9,52.1 L-30.6,10.0 L-61.3,-19.9 L-18.9,-26.1Z" fill="url(#lgrad4)" filter="url(#blur4)" opacity="0.78"/>
      </g>
      </g>
      </g>
      </g>
      </g>
      </g>
      </g>
  </g>
  <g transform="translate(327.0, 223.0)" mask="url(#maskGradient)">
    <ellipse cx="0" cy="0" rx="200" ry="150" fill="url(#rgrad0)" filter="url(#blur3)" opacity="0.3"/>
  </g>
  <g transform="translate(733.6, 227.2)" mask="url(#maskCircleFade)">
    <ellipse cx="0" cy="0" rx="200" ry="150" fill="url(#rgrad1)" filter="url(#blur3)" opacity="0.3"/>
  </g>
  <g transform="translate(1201.2, 265.6)" mask="url(#maskStripes)">
    <ellipse cx="0" cy="0" rx="200" ry="150" fill="url(#rgrad2)" filter="url(#blur3)" opacity="0.3"/>
  </g>
</svg>