<?xml version="1.0" encoding="UTF-8"?>
<svg xmlns="http://www.w3.org/2000/svg" viewBox="0 0 1920 1080" width="1920" height="1080">
  <defs>
    <filter id="blur0" x="-50%" y="-50%" width="200%" height="200%">
      <feGaussianBlur in="SourceGraphic" stdDeviation="1"/>
    </filter>
    <filter id="blur1" x="-50%" y="-50%" width="200%" height="200%">
      <feGaussianBlur in="SourceGraphic" stdDeviation="3"/>
    </filter>
    <filter id="blur2" x="-50%" y="-50%" width="200%" height="200%">
      <feGaussianBlur in="SourceGraphic" stdDeviation="5"/>
    </filter>
    <filter id="blur3" x="-50%" y="-50%" width="200%" height="200%">
      <feGaussianBlur in="SourceGraphic" stdDeviation="7"/>
    </filter>
    <filter id="blur4" x="-50%" y="-50%" width="200%" height="200%">
      <feGaussianBlur in="SourceGraphic" stdDeviation="9"/>
    </filter>
    <filter id="shadow" x="-50%" y="-50%" width="200%" height="200%">
      <feGaussianBlur in="SourceAlpha" stdDeviation="3" result="blur"/>
      <feOffset in="blur" dx="4" dy="4" result="offsetBlur"/>
      <feMerge>
        <feMergeNode in="offsetBlur"/>
        <feMergeNode in="SourceGraphic"/>
      </feMerge>
    </filter>
    <linearGradient id="lgrad0" x1="0%" y1="0%" x2="96.5%" y2="68.3%">
      <stop offset="0%" stop-color="#FF6B6B"/>
      <stop offset="33%" stop-color="#4ECDC4"/>
      <stop offset="66%" stop-color="#45B7D1"/>
      <stop offset="100%" stop-color="#96E6A1"/>
    </linearGradient>
    <linearGradient id="lgrad1" x1="0%" y1="0%" x2="81.1%" y2="89.1%">
      <stop offset="0%" stop-color="#FFE66D"/>
      <stop offset="33%" stop-color="#FF6B6B"/>
      <stop offset="66%" stop-color="#C44D58"/>
      <stop offset="100%" stop-color="#8B0000"/>
    </linearGradient>
    <linearGradient id="lgrad2" x1="0%" y1="0%" x2="57.4%" y2="99.5%">
      <stop offset="0%" stop-color="#4169E1"/>
      <stop offset="33%" stop-color="#7B68EE"/>
      <stop offset="66%" stop-color="#9370DB"/>
      <stop offset="100%" stop-color="#FFD700"/>
    </linearGradient>
    <linearGradient id="lgrad3" x1="0%" y1="0%" x2="31.7%" y2="96.5%">
      <stop offset="0%" stop-color="#32CD32"/>
      <stop offset="33%" stop-color="#228B22"/>
      <stop offset="66%" stop-color="#006400"/>
      <stop offset="100%" stop-color="#ADFF2F"/>
    </linearGradient>
    <linearGradient id="lgrad4" x1="0%" y1="0%" x2="10.9%" y2="81.1%">
      <stop offset="0%" stop-color="#FF1493"/>
      <stop offset="33%" stop-color="#FF69B4"/>
      <stop offset="66%" stop-color="#FFB6C1"/>
      <stop offset="100%" stop-color="#FFC0CB"/>
    </linearGradient>
    <radialGradient id="rgrad0" cx="31.9%" cy="44.6%" r="60%">
      <stop offset="0%" stop-color="#FF6B6B" stop-opacity="1"/>
      <stop offset="50%" stop-color="#4ECDC4" stop-opacity="0.8"/>
      <stop offset="100%" stop-color="#45B7D1" stop-opacity="0.6"/>
    </radialGradient>
    <radialGradient id="rgrad1" cx="41.9%" cy="52.6%" r="60%">
      <stop offset="0%" stop-color="#FFE66D" stop-opacity="1"/>
      <stop offset="50%" stop-color="#FF6B6B" stop-opacity="0.8"/>
      <stop offset="100%" stop-color="#C44D58" stop-opacity="0.6"/>
    </radialGradient>
    <radialGradient id="rgrad2" cx="51.9%" cy="60.6%" r="60%">
      <stop offset="0%" stop-color="#4169E1" stop-opacity="1"/>
      <stop offset="50%" stop-color="#7B68EE" stop-opacity="0.8"/>
      <stop offset="100%" stop-color="#9370DB" stop-opacity="0.6"/>
    </radialGradient>
    <radialGradient id="rgrad3" cx="61.9%" cy="68.6%" r="60%">
      <stop offset="0%" stop-color="#32CD32" stop-opacity="1"/>
      <stop offset="50%" stop-color="#228B22" stop-opacity="0.8"/>
      <stop offset="100%" stop-color="#006400" stop-opacity="0.6"/>
    </radialGradient>
    <radialGradient id="rgrad4" cx="31.9%" cy="36.6%" r="60%">
      <stop offset="0%" stop-color="#FF1493" stop-opacity="1"/>
      <stop offset="50%" stop-color="#FF69B4" stop-opacity="0.8"/>
      <stop offset="100%" stop-color="#FFB6C1" stop-opacity="0.6"/>
    </radialGradient>
    <clipPath id="clipCircle">
      <circle cx="0" cy="0" r="50"/>
    </clipPath>
    <clipPath id="clipStar">
      <path d="M0.0,-50.0 L14.7,-20.2 L47.6,-15.5 L23.8,7.7 L29.4,40.5 L0.0,25.0 L-29.4,40.5 L-23.8,7.7 L-47.6,-15.5 L-14.7,-20.2Z"/>
    </clipPath>
    <clipPath id="clipHex">
      <path d="M39.0,22.5 L0.0,45.0 L-39.0,22.5 L-39.0,-22.5 L-0.0,-45.0 L39.0,-22.5Z"/>
    </clipPath>
    <clipPath id="clipRect">
      <rect x="-40" y="-30" width="80" height="60" rx="10"/>
    </clipPath>
    <clipPath id="clipDynamic">
      <circle cx="0" cy="0" r="21.7"/>
    </clipPath>
    <mask id="maskGradient" maskContentUnits="objectBoundingBox">
      <rect x="0" y="0" width="1" height="1" fill="url(#maskGrad)"/>
    </mask>
    <linearGradient id="maskGrad" x1="0%" y1="0%" x2="100%" y2="100%">
      <stop offset="0%" stop-color="white"/>
      <stop offset="100%" stop-color="black"/>
    </linearGradient>
    <mask id="maskCircleFade">
      <circle cx="0" cy="0" r="60" fill="white"/>
      <circle cx="0" cy="0" r="30" fill="black"/>
    </mask>
    <mask id="maskStripes">
      <rect x="-50" y="-50" width="100" height="100" fill="white"/>
      <rect x="-50" y="-40" width="100" height="10" fill="black"/>
      <rect x="-50" y="-20" width="100" height="10" fill="black"/>
      <rect x="-50" y="0" width="100" height="10" fill="black"/>
      <rect x="-50" y="20" width="100" height="10" fill="black"/>
      <rect x="-50" y="40" width="100" height="10" fill="black"/>
    </mask>
    <mask id="maskDynamic">
      <rect x="-60" y="-60" width="120" height="120" fill="white" fill-opacity="0.90"/>
      <circle cx="0" cy="0" r="25" fill="white"/>
    </mask>
  </defs>
  <rect width="1920" height="1080" fill="url(#lgrad0)"/>
  <g transform="translate(73.5, 88.3)">
      <g transform="translate(-4.42,-1.87) rotate(4.28) scale(1.000)">
        <g transform="translate(-5.00,-0.74) rotate(7.37) scale(0.980)">
        <g transform="translate(-4.35,0.46) rotate(8.82) scale(0.960)">
        <g transform="translate(-2.64,1.61) rotate(8.31) scale(0.940)" clip-path="url(#clipCircle)">
        <g transform="translate(-0.28,2.62) rotate(5.66) scale(0.920)">
        <g transform="translate(2.14,3.40) rotate(0.85) scale(0.900)">
        <g transform="translate(4.05,3.87) rotate(-5.98) scale(0.880)">
        <path d="M0.0,-72.8 L21.4,-29.5 L69.3,-22.5 L34.6,11.3 L42.8,58.9 L0.0,36.4 L-42.8,58.9 L-34.6,11.3 L-69.3,-22.5 L-21.4,-29.5Z" fill="url(#lgrad0)" filter="url(#blur0)" opacity="0.84"/>
      </g>
      </g>
      </g>
      </g>
      </g>
      </g>
      </g>
  </g>
  <g transform="translate(290.0, 105.3)">
      <g transform="translate(-4.35,1.97) rotate(4.28) scale(1.000)">
        <g transform="translate(-2.64,2.91) rotate(7.37) scale(0.980)">
        <g transform="translate(-0.28,3.59) rotate(8.82) scale(0.960)">
        <g transform="translate(2.14,3.95) rotate(8.31) scale(0.940)">
        <g transform="translate(4.05,3.96) rotate(5.66) scale(0.920)">
        <g transform="translate(4.96,3.61) rotate(0.85) scale(0.900)" mask="url(#maskCircleFade)">
        <g transform="translate(4.66,2.94) rotate(-5.98) scale(0.880)">
        <rect x="-30.2" y="-30.2" width="60.4" height="60.4" rx="15.1" fill="url(#rgrad1)" filter="url(#shadow)" opacity="0.77"/>
        <circle cx="0" cy="0" r="20.1" fill="url(#rgrad2)" opacity="0.54"/>
      </g>
      </g>
      </g>
      </g>
      </g>
      </g>
      </g>
  </g>
  <g transform="translate(513.9, 119.8)">
      <g transform="translate(-0.28,3.99) rotate(4.28) scale(1.000)">
        <g transform="translate(2.14,3.88) rotate(7.37) scale(0.980)">
        <g transform="translate(4.05,3.42) rotate(8.82) scale(0.960)">
        <g transform="translate(4.96,2.66) rotate(8.31) scale(0.940)">
        <g transform="translate(4.66,1.66) rotate(5.66) scale(0.920)">
        <g transform="translate(3.21,0.51) rotate(0.85) scale(0.900)">
        <g transform="translate(0.98,-0.69) rotate(-5.98) scale(0.880)">
        <path d="M24.7,14.3 L0.0,28.6 L-24.7,14.3 L-24.7,-14.3 L-0.0,-28.6 L24.7,-14.3Z" fill="url(#rgrad2)" filter="url(#blur2)" opacity="0.67"/>
        <ellipse cx="0" cy="0" rx="11.9" ry="7.9" fill="#FFFFFF" opacity="0.33"/>
      </g>
      </g>
      </g>
      </g>
      </g>
      </g>
      </g>
  </g>
  <g transform="translate(744.1, 125.0)">
      <g transform="translate(4.05,2.35) rotate(4.28) scale(1.000)">
        <g transform="translate(4.96,1.29) rotate(7.37) scale(0.980)">
        <g transform="translate(4.66,0.11) rotate(8.82) scale(0.960)">
        <g transform="translate(3.21,-1.08) rotate(8.31) scale(0.940)" clip-path="url(#clipRect)">
        <g transform="translate(0.98,-2.17) rotate(5.66) scale(0.920)">
        <g transform="translate(-1.49,-3.06) rotate(0.85) scale(0.900)">
        <g transform="translate(-3.59,-3.69) rotate(-5.98) scale(0.880)">
        <circle cx="0" cy="0" r="23.1" fill="url(#lgrad3)" filter="url(#shadow)" opacity="0.55"/>
        <text x="0" y="5" text-anchor="middle" font-family="Arial, sans-serif" font-size="14" fill="#FFFFFF" opacity="0.55">673</text>
      </g>
      </g>
      </g>
      </g>
      </g>
      </g>
      </g>
  </g>
  <g transform="translate(978.3, 118.4)">
      <g transform="translate(4.66,-1.46) rotate(4.28) scale(1.000)">
        <g transform="translate(3.21,-2.49) rotate(7.37) scale(0.980)">
        <g transform="translate(0.98,-3.31) rotate(8.82) scale(0.960)">
        <g transform="translate(-1.49,-3.82) rotate(8.31) scale(0.940)">
        <g transform="translate(-3.59,-4.00) rotate(5.66) scale(0.920)">
        <g transform="translate(-4.82,-3.82) rotate(0.85) scale(0.900)" mask="url(#maskGradient)">
        <g transform="translate(-4.87,-3.30) rotate(-5.98) scale(0.880)">
        <path d="M0.0,-57.5 L16.9,-23.2 L54.7,-17.8 L27.3,8.9 L33.8,46.5 L0.0,28.7 L-33.8,46.5 L-27.3,8.9 L-54.7,-17.8 L-16.9,-23.2Z" fill="url(#rgrad4)" filter="url(#blur4)" opacity="0.43"/>
      </g>
      </g>
      </g>
      </g>
      </g>
      </g>
      </g>
  </g>
  <g transform="translate(1212.9, 103.2)">
      <g transform="translate(0.98,-3.92) rotate(4.28) scale(1.000)">
        <g transform="translate(-1.49,-3.98) rotate(7.37) scale(0.980)">
        <g transform="translate(-3.59,-3.68) rotate(8.82) scale(0.960)">
        <g transform="translate(-4.82,-3.05) rotate(8.31) scale(0.940)">
        <g transform="translate(-4.87,-2.16) rotate(5.66) scale(0.920)">
        <g transform="translate(-3.72,-1.06) rotate(0.85) scale(0.900)">
        <g transform="translate(-1.67,0.12) rotate(-5.98) scale(0.880)">
        <rect x="-35.5" y="-35.5" width="71.1" height="71.1" rx="17.8" fill="url(#rgrad0)" filter="url(#shadow)" opacity="0.32"/>
        <circle cx="0" cy="0" r="23.7" fill="url(#rgrad1)" opacity="0.22"/>
      </g>
      </g>
      </g>
      </g>
      </g>
      </g>
      </g>
  </g>
  <g transform="translate(1444.3, 86.5)">
      <g transform="translate(-3.59,-2.78) rotate(4.28) scale(1.000)">
        <g transform="translate(-4.82,-1.81) rotate(7.37) scale(0.980)">
        <g transform="translate(-4.87,-0.67) rotate(8.82) scale(0.960)">
        <g transform="translate(-3.72,0.52) rotate(8.31) scale(0.940)" clip-path="url(#clipStar)">
        <g transform="translate(-1.67,1.67) rotate(5.66) scale(0.920)">
        <g transform="translate(0.80,2.67) rotate(0.85) scale(0.900)">
        <g transform="translate(3.07,3.43) rotate(-5.98) scale(0.880)">
        <path d="M38.7,22.3 L0.0,44.7 L-38.7,22.3 L-38.7,-22.3 L-0.0,-44.7 L38.7,-22.3Z" fill="url(#lgrad1)" filter="url(#blur1)" opacity="0.22"/>
        <ellipse cx="0" cy="0" rx="18.6" ry="12.4" fill="#FFFFFF" opacity="0.11"/>
      </g>
      </g>
      </g>
      </g>
      </g>
      </g>
      </g>
  </g>
  <g transform="translate(1669.8, 76.1)">
      <g transform="translate(-4.87,0.92) rotate(4.28) scale(1.000)">
        <g transform="translate(-3.72,2.03) rotate(7.37) scale(0.980)">
        <g transform="translate(-1.67,2.95) rotate(8.82) scale(0.960)">
        <g transform="translate(0.80,3.62) rotate(8.31) scale(0.940)">
        <g transform="translate(3.07,3.96) rotate(5.66) scale(0.920)">
        <g transform="translate(4.58,3.95) rotate(0.85) scale(0.900)" mask="url(#maskDynamic)">
        <g transform="translate(4.98,3.58) rotate(-5.98) scale(0.880)">
        <circle cx="0" cy="0" r="32.3" fill="url(#rgrad2)" filter="url(#shadow)" opacity="0.15"/>
        <text x="0" y="5" text-anchor="middle" font-family="Arial, sans-serif" font-size="14" fill="#FFFFFF" opacity="0.15">673</text>
      </g>
      </g>
      </g>
      </g>
      </g>
      </g>
      </g>
  </g>
  <g transform="translate(127.9, 357.0)">
      <g transform="translate(-1.67,3.77) rotate(4.28) scale(1.000)">
        <g transform="translate(0.80,4.00) rotate(7.37) scale(0.980)">
        <g transform="translate(3.07,3.87) rotate(8.82) scale(0.960)">
        <g transform="translate(4.58,3.39) rotate(8.31) scale(0.940)">
        <g transform="translate(4.98,2.61) rotate(5.66) scale(0.920)">
        <g transform="translate(4.16,1.60) rotate(0.85) scale(0.900)">
        <g transform="translate(2.32,0.44) rotate(-5.98) scale(0.880)">
        <path d="M0.0,-50.5 L14.8,-20.4 L48.0,-15.6 L24.0,7.8 L29.7,40.8 L0.0,25.2 L-29.7,40.8 L-24.0,7.8 L-48.0,-15.6 L-14.8,-20.4Z" fill="url(#rgrad3)" filter="url(#blur3)" opacity="0.11"/>
      </g>
      </g>
      </g>
      </g>
      </g>
      </g>
      </g>
  </g>
  <g transform="translate(339.3, 368.7)">
      <g transform="translate(3.07,3.16) rotate(4.28) scale(1.000)">
        <g transform="translate(4.58,2.29) rotate(7.37) scale(0.980)">
        <g transform="translate(4.98,1.22) rotate(8.82) scale(0.960)">
        <g transform="translate(4.16,0.04) rotate(8.31) scale(0.940)" clip-path="url(#clipDynamic)">
        <g transform="translate(2.32,-1.14) rotate(5.66) scale(0.920)">
        <g transform="translate(-0.09,-2.22) rotate(0.85) scale(0.900)">
        <g transform="translate(-2.48,-3.11) rotate(-5.98) scale(0.880)">
        <rect x="-22.6" y="-22.6" width="45.1" height="45.1" rx="11.3" fill="url(#lgrad4)" filter="url(#shadow)" opacity="0.10"/>
        <circle cx="0" cy="0" r="15.0" fill="url(#rgrad0)" opacity="0.07"/>
      </g>
      </g>
      </g>
      </g>
      </g>
      </g>
      </g>
  </g>
  <g transform="translate(545.9, 385.7)">
      <g transform="translate(4.98,-0.36) rotate(4.28) scale(1.000)">
        <g transform="translate(4.16,-1.52) rotate(7.37) scale(0.980)">
        <g transform="translate(2.32,-2.54) rotate(8.82) scale(0.960)">
        <g transform="translate(-0.09,-3.34) rotate(8.31) scale(0.940)">
        <g transform="translate(-2.48,-3.84) rotate(5.66) scale(0.920)">
        <g transform="translate(-4.26,-4.00) rotate(0.85) scale(0.900)" mask="url(#maskStripes)">
        <g transform="translate(-4.99,-3.80) rotate(-5.98) scale(0.880)">
        <path d="M27.8,16.0 L0.0,32.1 L-27.8,16.0 L-27.8,-16.0 L-0.0,-32.1 L27.8,-16.0Z" fill="url(#rgrad0)" filter="url(#blur0)" opacity="0.13"/>
        <ellipse cx="0" cy="0" rx="13.4" ry="8.9" fill="#FFFFFF" opacity="0.07"/>
      </g>
      </g>
      </g>
      </g>
      </g>
      </g>
      </g>
  </g>
  <g transform="translate(751.1, 400.1)">
      <g transform="translate(2.32,-3.55) rotate(4.28) scale(1.000)">
        <g transform="translate(-0.09,-3.93) rotate(7.37) scale(0.980)">
        <g transform="translate(-2.48,-3.97) rotate(8.82) scale(0.960)">
        <g transform="translate(-4.26,-3.65) rotate(8.31) scale(0.940)">
        <g transform="translate(-4.99,-3.01) rotate(5.66) scale(0.920)">
        <g transform="translate(-4.51,-2.10) rotate(0.85) scale(0.900)">
        <g transform="translate(-2.92,-1.00) rotate(-5.98) scale(0.880)">
        <circle cx="0" cy="0" r="33.9" fill="url(#rgrad1)" filter="url(#shadow)" opacity="0.19"/>
        <text x="0" y="5" text-anchor="middle" font-family="Arial, sans-serif" font-size="14" fill="#FFFFFF" opacity="0.19">673</text>
      </g>
      </g>
      </g>
      </g>
      </g>
      </g>
      </g>
  </g>
  <g transform="translate(958.4, 405.0)">
      <g transform="translate(-2.48,-3.47) rotate(4.28) scale(1.000)">
        <g transform="translate(-4.26,-2.73) rotate(7.37) scale(0.980)">
        <g transform="translate(-4.99,-1.75) rotate(8.82) scale(0.960)">
        <g transform="translate(-4.51,-0.61) rotate(8.31) scale(0.940)" clip-path="url(#clipHex)">
        <g transform="translate(-2.92,0.59) rotate(5.66) scale(0.920)">
        <g transform="translate(-0.61,1.73) rotate(0.85) scale(0.900)">
        <g transform="translate(1.84,2.72) rotate(-5.98) scale(0.880)">
        <path d="M0.0,-75.0 L22.0,-30.3 L71.3,-23.2 L35.7,11.6 L44.1,60.7 L0.0,37.5 L-44.1,60.7 L-35.7,11.6 L-71.3,-23.2 L-22.0,-30.3Z" fill="url(#lgrad2)" filter="url(#blur2)" opacity="0.28"/>
      </g>
      </g>
      </g>
      </g>
      </g>
      </g>
      </g>
  </g>
  <g transform="translate(1171.1, 398.1)">
      <g transform="translate(-4.99,-0.21) rotate(4.28) scale(1.000)">
        <g transform="translate(-4.51,0.98) rotate(7.37) scale(0.980)">
        <g transform="translate(-2.92,2.08) rotate(8.82) scale(0.960)">
        <g transform="translate(-0.61,3.00) rotate(8.31) scale(0.940)">
        <g transform="translate(1.84,3.65) rotate(5.66) scale(0.920)">
        <g transform="translate(3.84,3.97) rotate(0.85) scale(0.900)" mask="url(#maskCircleFade)">
        <g transform="translate(4.91,3.94) rotate(-5.98) scale(0.880)">
        <rect x="-34.2" y="-34.2" width="68.4" height="68.4" rx="17.1" fill="url(#rgrad3)" filter="url(#shadow)" opacity="0.39"/>
        <circle cx="0" cy="0" r="22.8" fill="url(#rgrad4)" opacity="0.28"/>
      </g>
      </g>
      </g>
      </g>
      </g>
      </g>
      </g>
  </g>
  <g transform="translate(1390.8, 382.8)">
      <g transform="translate(-2.92,3.25) rotate(4.28) scale(1.000)">
        <g transform="translate(-0.61,3.79) rotate(7.37) scale(0.980)">
        <g transform="translate(1.84,4.00) rotate(8.82) scale(0.960)">
        <g transform="translate(3.84,3.85) rotate(8.31) scale(0.940)">
        <g transform="translate(4.91,3.35) rotate(5.66) scale(0.920)">
        <g transform="translate(4.77,2.56) rotate(0.85) scale(0.900)">
        <g transform="translate(3.46,1.53) rotate(-5.98) scale(0.880)">
        <path d="M28.1,16.2 L0.0,32.5 L-28.1,16.2 L-28.1,-16.2 L-0.0,-32.5 L28.1,-16.2Z" fill="url(#rgrad4)" filter="url(#blur4)" opacity="0.51"/>
        <ellipse cx="0" cy="0" rx="13.5" ry="9.0" fill="#FFFFFF" opacity="0.26"/>
      </g>
      </g>
      </g>
      </g>
      </g>
      </g>
      </g>
  </g>
  <g transform="translate(1617.7, 366.1)">
      <g transform="translate(1.84,3.72) rotate(4.28) scale(1.000)">
        <g transform="translate(3.84,3.12) rotate(7.37) scale(0.980)">
        <g transform="translate(4.91,2.24) rotate(8.82) scale(0.960)">
        <g transform="translate(4.77,1.16) rotate(8.31) scale(0.940)" clip-path="url(#clipCircle)">
        <g transform="translate(3.46,-0.02) rotate(5.66) scale(0.920)">
        <g transform="translate(1.31,-1.21) rotate(0.85) scale(0.900)">
        <g transform="translate(-1.17,-2.28) rotate(-5.98) scale(0.880)">
        <circle cx="0" cy="0" r="22.6" fill="url(#lgrad0)" filter="url(#shadow)" opacity="0.63"/>
        <text x="0" y="5" text-anchor="middle" font-family="Arial, sans-serif" font-size="14" fill="#FFFFFF" opacity="0.63">673</text>
      </g>
      </g>
      </g>
      </g>
      </g>
      </g>
      </g>
  </g>
  <g transform="translate(90.0, 636.0)">
      <g transform="translate(4.91,0.77) rotate(4.28) scale(1.000)">
        <g transform="translate(4.77,-0.42) rotate(7.37) scale(0.980)">
        <g transform="translate(3.46,-1.58) rotate(8.82) scale(0.960)">
        <g transform="translate(1.31,-2.60) rotate(8.31) scale(0.940)">
        <g transform="translate(-1.17,-3.38) rotate(5.66) scale(0.920)">
        <g transform="translate(-3.35,-3.86) rotate(0.85) scale(0.900)" mask="url(#maskGradient)">
        <g transform="translate(-4.72,-4.00) rotate(-5.98) scale(0.880)">
        <path d="M0.0,-49.9 L14.7,-20.2 L47.5,-15.4 L23.7,7.7 L29.3,40.4 L0.0,25.0 L-29.3,40.4 L-23.7,7.7 L-47.5,-15.4 L-14.7,-20.2Z" fill="url(#rgrad1)" filter="url(#blur1)" opacity="0.74"/>
      </g>
      </g>
      </g>
      </g>
      </g>
      </g>
      </g>
  </g>
  <g transform="translate(324.8, 637.2)">
      <g transform="translate(3.46,-2.89) rotate(4.28) scale(1.000)">
        <g transform="translate(1.31,-3.58) rotate(7.37) scale(0.980)">
        <g transform="translate(-1.17,-3.95) rotate(8.82) scale(0.960)">
        <g transform="translate(-3.35,-3.96) rotate(8.31) scale(0.940)">
        <g transform="translate(-4.72,-3.63) rotate(5.66) scale(0.920)">
        <g transform="translate(-4.93,-2.97) rotate(0.85) scale(0.900)">
        <g transform="translate(-3.94,-2.04) rotate(-5.98) scale(0.880)">
        <rect x="-32.0" y="-32.0" width="63.9" height="63.9" rx="16.0" fill="url(#rgrad2)" filter="url(#shadow)" opacity="0.82"/>
        <circle cx="0" cy="0" r="21.3" fill="url(#rgrad3)" opacity="0.57"/>
      </g>
      </g>
      </g>
      </g>
      </g>
      </g>
      </g>
  </g>
  <g transform="translate(558.4, 649.1)">
      <g transform="translate(-1.17,-3.89) rotate(4.28) scale(1.000)">
        <g transform="translate(-3.35,-3.44) rotate(7.37) scale(0.980)">
        <g transform="translate(-4.72,-2.68) rotate(8.82) scale(0.960)">
        <g transform="translate(-4.93,-1.69) rotate(8.31) scale(0.940)" clip-path="url(#clipRect)">
        <g transform="translate(-3.94,-0.54) rotate(5.66) scale(0.920)">
        <g transform="translate(-1.98,0.66) rotate(0.85) scale(0.900)">
        <g transform="translate(0.47,1.79) rotate(-5.98) scale(0.880)">
        <path d="M38.6,22.3 L0.0,44.6 L-38.6,22.3 L-38.6,-22.3 L-0.0,-44.6 L38.6,-22.3Z" fill="url(#lgrad3)" filter="url(#blur3)" opacity="0.88"/>
        <ellipse cx="0" cy="0" rx="18.6" ry="12.4" fill="#FFFFFF" opacity="0.44"/>
      </g>
      </g>
      </g>
      </g>
      </g>
      </g>
      </g>
  </g>
  <g transform="translate(787.5, 666.1)">
      <g transform="translate(-4.72,-1.32) rotate(4.28) scale(1.000)">
        <g transform="translate(-4.93,-0.14) rotate(7.37) scale(0.980)">
        <g transform="translate(-3.94,1.05) rotate(8.82) scale(0.960)">
        <g transform="translate(-1.98,2.14) rotate(8.31) scale(0.940)">
        <g transform="translate(0.47,3.04) rotate(5.66) scale(0.920)">
        <g transform="translate(2.80,3.67) rotate(0.85) scale(0.900)" mask="url(#maskDynamic)">
        <g transform="translate(4.44,3.98) rotate(-5.98) scale(0.880)">
        <circle cx="0" cy="0" r="35.8" fill="url(#rgrad4)" filter="url(#shadow)" opacity="0.90"/>
        <text x="0" y="5" text-anchor="middle" font-family="Arial, sans-serif" font-size="14" fill="#FFFFFF" opacity="0.90">673</text>
      </g>
      </g>
      </g>
      </g>
      </g>
      </g>
      </g>
  </g>
  <g transform="translate(1009.9, 680.3)">
      <g transform="translate(-3.94,2.47) rotate(4.28) scale(1.000)">
        <g transform="translate(-1.98,3.29) rotate(7.37) scale(0.980)">
        <g transform="translate(0.47,3.81) rotate(8.82) scale(0.960)">
        <g transform="translate(2.80,4.00) rotate(8.31) scale(0.940)">
        <g transform="translate(4.44,3.83) rotate(5.66) scale(0.920)">
        <g transform="translate(5.00,3.32) rotate(0.85) scale(0.900)">
        <g transform="translate(4.33,2.51) rotate(-5.98) scale(0.880)">
        <path d="M0.0,-58.2 L17.1,-23.5 L55.3,-18.0 L27.7,9.0 L34.2,47.1 L0.0,29.1 L-34.2,47.1 L-27.7,9.0 L-55.3,-18.0 L-17.1,-23.5Z" fill="url(#rgrad0)" filter="url(#blur0)" opacity="0.89"/>
      </g>
      </g>
      </g>
      </g>
      </g>
      </g>
      </g>
  </g>
  <g transform="translate(1224.9, 684.9)">
      <g transform="translate(0.47,3.98) rotate(4.28) scale(1.000)">
        <g transform="translate(2.80,3.69) rotate(7.37) scale(0.980)">
        <g transform="translate(4.44,3.08) rotate(8.82) scale(0.960)">
        <g transform="translate(5.00,2.18) rotate(8.31) scale(0.940)" clip-path="url(#clipStar)">
        <g transform="translate(4.33,1.09) rotate(5.66) scale(0.920)">
        <g transform="translate(2.60,-0.09) rotate(0.85) scale(0.900)">
        <g transform="translate(0.24,-1.27) rotate(-5.98) scale(0.880)">
        <rect x="-23.2" y="-23.2" width="46.5" height="46.5" rx="11.6" fill="url(#lgrad1)" filter="url(#shadow)" opacity="0.84"/>
        <circle cx="0" cy="0" r="15.5" fill="url(#rgrad2)" opacity="0.59"/>
      </g>
      </g>
      </g>
      </g>
      </g>
      </g>
      </g>
  </g>
  <g transform="translate(1433.9, 677.8)">
      <g transform="translate(4.44,1.84) rotate(4.28) scale(1.000)">
        <g transform="translate(5.00,0.70) rotate(7.37) scale(0.980)">
        <g transform="translate(4.33,-0.49) rotate(8.82) scale(0.960)">
        <g transform="translate(2.60,-1.64) rotate(8.31) scale(0.940)">
        <g transform="translate(0.24,-2.65) rotate(5.66) scale(0.920)">
        <g transform="translate(-2.18,-3.41) rotate(0.85) scale(0.900)" mask="url(#maskStripes)">
        <g transform="translate(-4.07,-3.88) rotate(-5.98) scale(0.880)">
        <path d="M24.5,14.2 L0.0,28.3 L-24.5,14.2 L-24.5,-14.2 L-0.0,-28.3 L24.5,-14.2Z" fill="url(#rgrad2)" filter="url(#blur2)" opacity="0.76"/>
        <ellipse cx="0" cy="0" rx="11.8" ry="7.9" fill="#FFFFFF" opacity="0.38"/>
      </g>
      </g>
      </g>
      </g>
      </g>
      </g>
      </g>
  </g>
  <g transform="translate(1639.4, 662.3)">
      <g transform="translate(4.33,-2.00) rotate(4.28) scale(1.000)">
        <g transform="translate(2.60,-2.93) rotate(7.37) scale(0.980)">
        <g transform="translate(0.24,-3.61) rotate(8.82) scale(0.960)">
        <g transform="translate(-2.18,-3.96) rotate(8.31) scale(0.940)">
        <g transform="translate(-4.07,-3.95) rotate(5.66) scale(0.920)">
        <g transform="translate(-4.96,-3.60) rotate(0.85) scale(0.900)">
        <g transform="translate(-4.64,-2.92) rotate(-5.98) scale(0.880)">
        <circle cx="0" cy="0" r="29.9" fill="url(#rgrad3)" filter="url(#shadow)" opacity="0.66"/>
        <text x="0" y="5" text-anchor="middle" font-family="Arial, sans-serif" font-size="14" fill="#FFFFFF" opacity="0.66">673</text>
      </g>
      </g>
      </g>
      </g>
      </g>
      </g>
      </g>
  </g>
  <g transform="translate(85.1, 925.8)">
      <g transform="translate(0.24,-4.00) rotate(4.28) scale(1.000)">
        <g transform="translate(-2.18,-3.87) rotate(7.37) scale(0.980)">
        <g transform="translate(-4.07,-3.41) rotate(8.82) scale(0.960)">
        <g transform="translate(-4.96,-2.63) rotate(8.31) scale(0.940)" clip-path="url(#clipDynamic)">
        <g transform="translate(-4.64,-1.63) rotate(5.66) scale(0.920)">
        <g transform="translate(-3.18,-0.47) rotate(0.85) scale(0.900)">
        <g transform="translate(-0.94,0.72) rotate(-5.98) scale(0.880)">
        <path d="M0.0,-72.5 L21.3,-29.3 L68.9,-22.4 L34.5,11.2 L42.6,58.6 L0.0,36.2 L-42.6,58.6 L-34.5,11.2 L-68.9,-22.4 L-21.3,-29.3Z" fill="url(#lgrad4)" filter="url(#blur4)" opacity="0.54"/>
      </g>
      </g>
      </g>
      </g>
      </g>
      </g>
      </g>
  </g>
  <g transform="translate(211.6, 262.6)" mask="url(#maskGradient)">
    <ellipse cx="0" cy="0" rx="200" ry="150" fill="url(#rgrad0)" filter="url(#blur3)" opacity="0.3"/>
  </g>
  <g transform="translate(712.9, 317.0)" mask="url(#maskCircleFade)">
    <ellipse cx="0" cy="0" rx="200" ry="150" fill="url(#rgrad1)" filter="url(#blur3)" opacity="0.3"/>
  </g>
  <g transform="translate(1294.3, 363.4)" mask="url(#maskStripes)">
    <ellipse cx="0" cy="0" rx="200" ry="150" fill="url(#rgrad2)" filter="url(#blur3)" opacity="0.3"/>
  </g>
</svg>