<?xml version="1.0" encoding="UTF-8"?>
<svg xmlns="http://www.w3.org/2000/svg" viewBox="0 0 1920 1080" width="1920" height="1080">
  <defs>
    <filter id="blur0" x="-50%" y="-50%" width="200%" height="200%">
      <feGaussianBlur in="SourceGraphic" stdDeviation="1"/>
    </filter>
    <filter id="blur1" x="-50%" y="-50%" width="200%" height="200%">
      <feGaussianBlur in="SourceGraphic" stdDeviation="3"/>
    </filter>
    <filter id="blur2" x="-50%" y="-50%" width="200%" height="200%">
      <feGaussianBlur in="SourceGraphic" stdDeviation="5"/>
    </filter>
    <filter id="blur3" x="-50%" y="-50%" width="200%" height="200%">
      <feGaussianBlur in="SourceGraphic" stdDeviation="7"/>
    </filter>
    <filter id="blur4" x="-50%" y="-50%" width="200%" height="200%">
      <feGaussianBlur in="SourceGraphic" stdDeviation="9"/>
    </filter>
    <filter id="shadow" x="-50%" y="-50%" width="200%" height="200%">
      <feGaussianBlur in="SourceAlpha" stdDeviation="3" result="blur"/>
      <feOffset in="blur" dx="4" dy="4" result="offsetBlur"/>
      <feMerge>
        <feMergeNode in="offsetBlur"/>
        <feMergeNode in="SourceGraphic"/>
      </feMerge>
    </filter>
    <linearGradient id="lgrad0" x1="0%" y1="0%" x2="24.2%" y2="7.1%">
      <stop offset="0%" stop-color="#FF6B6B"/>
      <stop offset="33%" stop-color="#4ECDC4"/>
      <stop offset="66%" stop-color="#45B7D1"/>
      <stop offset="100%" stop-color="#96E6A1"/>
    </linearGradient>
    <linearGradient id="lgrad1" x1="0%" y1="0%" x2="49.1%" y2="0.0%">
      <stop offset="0%" stop-color="#FFE66D"/>
      <stop offset="33%" stop-color="#FF6B6B"/>
      <stop offset="66%" stop-color="#C44D58"/>
      <stop offset="100%" stop-color="#8B0000"/>
    </linearGradient>
    <linearGradient id="lgrad2" x1="0%" y1="0%" x2="74.2%" y2="6.3%">
      <stop offset="0%" stop-color="#4169E1"/>
      <stop offset="33%" stop-color="#7B68EE"/>
      <stop offset="66%" stop-color="#9370DB"/>
      <stop offset="100%" stop-color="#FFD700"/>
    </linearGradient>
    <linearGradient id="lgrad3" x1="0%" y1="0%" x2="92.9%" y2="24.2%">
      <stop offset="0%" stop-color="#32CD32"/>
      <stop offset="33%" stop-color="#228B22"/>
      <stop offset="66%" stop-color="#006400"/>
      <stop offset="100%" stop-color="#ADFF2F"/>
    </linearGradient>
    <linearGradient id="lgrad4" x1="0%" y1="0%" x2="100.0%" y2="49.1%">
      <stop offset="0%" stop-color="#FF1493"/>
      <stop offset="33%" stop-color="#FF69B4"/>
      <stop offset="66%" stop-color="#FFB6C1"/>
      <stop offset="100%" stop-color="#FFC0CB"/>
    </linearGradient>
    <radialGradient id="rgrad0" cx="66.4%" cy="67.6%" r="60%">
      <stop offset="0%" stop-color="#FF6B6B" stop-opacity="1"/>
      <stop offset="50%" stop-color="#4ECDC4" stop-opacity="0.8"/>
      <stop offset="100%" stop-color="#45B7D1" stop-opacity="0.6"/>
    </radialGradient>
    <radialGradient id="rgrad1" cx="36.4%" cy="35.6%" r="60%">
      <stop offset="0%" stop-color="#FFE66D" stop-opacity="1"/>
      <stop offset="50%" stop-color="#FF6B6B" stop-opacity="0.8"/>
      <stop offset="100%" stop-color="#C44D58" stop-opacity="0.6"/>
    </radialGradient>
    <radialGradient id="rgrad2" cx="46.4%" cy="43.6%" r="60%">
      <stop offset="0%" stop-color="#4169E1" stop-opacity="1"/>
      <stop offset="50%" stop-color="#7B68EE" stop-opacity="0.8"/>
      <stop offset="100%" stop-color="#9370DB" stop-opacity="0.6"/>
    </radialGradient>
    <radialGradient id="rgrad3" cx="56.4%" cy="51.6%" r="60%">
      <stop offset="0%" stop-color="#32CD32" stop-opacity="1"/>
      <stop offset="50%" stop-color="#228B22" stop-opacity="0.8"/>
      <stop offset="100%" stop-color="#006400" stop-opacity="0.6"/>
    </radialGradient>
    <radialGradient id="rgrad4" cx="66.4%" cy="59.6%" r="60%">
      <stop offset="0%" stop-color="#FF1493" stop-opacity="1"/>
      <stop offset="50%" stop-color="#FF69B4" stop-opacity="0.8"/>
      <stop offset="100%" stop-color="#FFB6C1" stop-opacity="0.6"/>
    </radialGradient>
    <clipPath id="clipCircle">
      <circle cx="0" cy="0" r="50"/>
    </clipPath>
    <clipPath id="clipStar">
      <path d="M0.0,-50.0 L14.7,-20.2 L47.6,-15.5 L23.8,7.7 L29.4,40.5 L0.0,25.0 L-29.4,40.5 L-23.8,7.7 L-47.6,-15.5 L-14.7,-20.2Z"/>
    </clipPath>
    <clipPath id="clipHex">
      <path d="M39.0,22.5 L0.0,45.0 L-39.0,22.5 L-39.0,-22.5 L-0.0,-45.0 L39.0,-22.5Z"/>
    </clipPath>
    <clipPath id="clipRect">
      <rect x="-40" y="-30" width="80" height="60" rx="10"/>
    </clipPath>
    <clipPath id="clipDynamic">
      <circle cx="0" cy="0" r="44.7"/>
    </clipPath>
    <mask id="maskGradient" maskContentUnits="objectBoundingBox">
      <rect x="0" y="0" width="1" height="1" fill="url(#maskGrad)"/>
    </mask>
    <linearGradient id="maskGrad" x1="0%" y1="0%" x2="100%" y2="100%">
      <stop offset="0%" stop-color="white"/>
      <stop offset="100%" stop-color="black"/>
    </linearGradient>
    <mask id="maskCircleFade">
      <circle cx="0" cy="0" r="60" fill="white"/>
      <circle cx="0" cy="0" r="30" fill="black"/>
    </mask>
    <mask id="maskStripes">
      <rect x="-50" y="-50" width="100" height="100" fill="white"/>
      <rect x="-50" y="-40" width="100" height="10" fill="black"/>
      <rect x="-50" y="-20" width="100" height="10" fill="black"/>
      <rect x="-50" y="0" width="100" height="10" fill="black"/>
      <rect x="-50" y="20" width="100" height="10" fill="black"/>
      <rect x="-50" y="40" width="100" height="10" fill="black"/>
    </mask>
    <mask id="maskDynamic">
      <rect x="-60" y="-60" width="120" height="120" fill="white" fill-opacity="0.96"/>
      <circle cx="0" cy="0" r="25" fill="white"/>
    </mask>
  </defs>
  <rect width="1920" height="1080" fill="url(#lgrad0)"/>
  <g transform="translate(119.5, 81.0)">
      <g transform="translate(3.25,-3.04) rotate(4.69) scale(1.000)">
        <g transform="translate(1.03,-3.67) rotate(9.88) scale(0.980)">
        <g transform="translate(-1.44,-3.98) rotate(14.98) scale(0.960)">
        <g transform="translate(-3.56,-3.93) rotate(19.40) scale(0.940)" clip-path="url(#clipCircle)">
        <g transform="translate(-4.81,-3.52) rotate(22.55) scale(0.920)">
        <g transform="translate(-4.88,-2.81) rotate(23.95) scale(0.900)">
        <g transform="translate(-3.75,-1.84) rotate(23.20) scale(0.880)">
        <path d="M0.0,-74.1 L21.8,-30.0 L70.4,-22.9 L35.2,11.4 L43.5,59.9 L0.0,37.0 L-43.5,59.9 L-35.2,11.4 L-70.4,-22.9 L-21.8,-30.0Z" fill="url(#lgrad0)" filter="url(#blur0)" opacity="0.88"/>
      </g>
      </g>
      </g>
      </g>
      </g>
      </g>
      </g>
  </g>
  <g transform="translate(326.2, 75.0)">
      <g transform="translate(-1.44,-3.83) rotate(4.69) scale(1.000)">
        <g transform="translate(-3.56,-3.32) rotate(9.88) scale(0.980)">
        <g transform="translate(-4.81,-2.51) rotate(14.98) scale(0.960)">
        <g transform="translate(-4.88,-1.48) rotate(19.40) scale(0.940)">
        <g transform="translate(-3.75,-0.31) rotate(22.55) scale(0.920)">
        <g transform="translate(-1.71,0.88) rotate(23.95) scale(0.900)" mask="url(#maskCircleFade)">
        <g transform="translate(0.75,1.99) rotate(23.20) scale(0.880)">
        <rect x="-36.0" y="-36.0" width="72.0" height="72.0" rx="18.0" fill="url(#rgrad1)" filter="url(#shadow)" opacity="0.90"/>
        <circle cx="0" cy="0" r="24.0" fill="url(#rgrad2)" opacity="0.63"/>
      </g>
      </g>
      </g>
      </g>
      </g>
      </g>
      </g>
  </g>
  <g transform="translate(531.4, 80.8)">
      <g transform="translate(-4.81,-1.10) rotate(4.69) scale(1.000)">
        <g transform="translate(-4.88,0.09) rotate(9.88) scale(0.980)">
        <g transform="translate(-3.75,1.26) rotate(14.98) scale(0.960)">
        <g transform="translate(-1.71,2.33) rotate(19.40) scale(0.940)">
        <g transform="translate(0.75,3.19) rotate(22.55) scale(0.920)">
        <g transform="translate(3.03,3.76) rotate(23.95) scale(0.900)">
        <g transform="translate(4.57,4.00) rotate(23.20) scale(0.880)">
        <path d="M30.6,17.7 L0.0,35.3 L-30.6,17.7 L-30.6,-17.7 L-0.0,-35.3 L30.6,-17.7Z" fill="url(#rgrad2)" filter="url(#blur2)" opacity="0.89"/>
        <ellipse cx="0" cy="0" rx="14.7" ry="9.8" fill="#FFFFFF" opacity="0.44"/>
      </g>
      </g>
      </g>
      </g>
      </g>
      </g>
      </g>
  </g>
  <g transform="translate(738.6, 95.6)">
      <g transform="translate(-3.75,2.64) rotate(4.69) scale(1.000)">
        <g transform="translate(-1.71,3.41) rotate(9.88) scale(0.980)">
        <g transform="translate(0.75,3.88) rotate(14.98) scale(0.960)">
        <g transform="translate(3.03,3.99) rotate(19.40) scale(0.940)" clip-path="url(#clipRect)">
        <g transform="translate(4.57,3.76) rotate(22.55) scale(0.920)">
        <g transform="translate(4.98,3.18) rotate(23.95) scale(0.900)">
        <g transform="translate(4.18,2.32) rotate(23.20) scale(0.880)">
        <circle cx="0" cy="0" r="23.4" fill="url(#lgrad3)" filter="url(#shadow)" opacity="0.84"/>
        <text x="0" y="5" text-anchor="middle" font-family="Arial, sans-serif" font-size="14" fill="#FFFFFF" opacity="0.84">388</text>
      </g>
      </g>
      </g>
      </g>
      </g>
      </g>
      </g>
  </g>
  <g transform="translate(951.2, 112.5)">
      <g transform="translate(0.75,3.95) rotate(4.69) scale(1.000)">
        <g transform="translate(3.03,3.60) rotate(9.88) scale(0.980)">
        <g transform="translate(4.57,2.92) rotate(14.98) scale(0.960)">
        <g transform="translate(4.98,1.99) rotate(19.40) scale(0.940)">
        <g transform="translate(4.18,0.87) rotate(22.55) scale(0.920)">
        <g transform="translate(2.36,-0.32) rotate(23.95) scale(0.900)" mask="url(#maskGradient)">
        <g transform="translate(-0.05,-1.48) rotate(23.20) scale(0.880)">
        <path d="M0.0,-46.9 L13.8,-19.0 L44.6,-14.5 L22.3,7.2 L27.5,37.9 L0.0,23.4 L-27.5,37.9 L-22.3,7.2 L-44.6,-14.5 L-13.8,-19.0Z" fill="url(#rgrad4)" filter="url(#blur4)" opacity="0.77"/>
      </g>
      </g>
      </g>
      </g>
      </g>
      </g>
      </g>
  </g>
  <g transform="translate(1170.7, 123.5)">
      <g transform="translate(4.57,1.63) rotate(4.69) scale(1.000)">
        <g transform="translate(4.98,0.48) rotate(9.88) scale(0.980)">
        <g transform="translate(4.18,-0.72) rotate(14.98) scale(0.960)">
        <g transform="translate(2.36,-1.85) rotate(19.40) scale(0.940)">
        <g transform="translate(-0.05,-2.81) rotate(22.55) scale(0.920)">
        <g transform="translate(-2.44,-3.53) rotate(23.95) scale(0.900)">
        <g transform="translate(-4.23,-3.93) rotate(23.20) scale(0.880)">
        <rect x="-29.5" y="-29.5" width="59.0" height="59.0" rx="14.8" fill="url(#rgrad0)" filter="url(#shadow)" opacity="0.66"/>
        <circle cx="0" cy="0" r="19.7" fill="url(#rgrad1)" opacity="0.47"/>
      </g>
      </g>
      </g>
      </g>
      </g>
      </g>
      </g>
  </g>
  <g transform="translate(1397.5, 123.5)">
      <g transform="translate(4.18,-2.19) rotate(4.69) scale(1.000)">
        <g transform="translate(2.36,-3.08) rotate(9.88) scale(0.980)">
        <g transform="translate(-0.05,-3.70) rotate(14.98) scale(0.960)">
        <g transform="translate(-2.44,-3.98) rotate(19.40) scale(0.940)" clip-path="url(#clipStar)">
        <g transform="translate(-4.23,-3.91) rotate(22.55) scale(0.920)">
        <g transform="translate(-4.99,-3.49) rotate(23.95) scale(0.900)">
        <g transform="translate(-4.53,-2.76) rotate(23.20) scale(0.880)">
        <path d="M37.4,21.6 L0.0,43.2 L-37.4,21.6 L-37.4,-21.6 L-0.0,-43.2 L37.4,-21.6Z" fill="url(#lgrad1)" filter="url(#blur1)" opacity="0.55"/>
        <ellipse cx="0" cy="0" rx="18.0" ry="12.0" fill="#FFFFFF" opacity="0.27"/>
      </g>
      </g>
      </g>
      </g>
      </g>
      </g>
      </g>
  </g>
  <g transform="translate(1629.7, 112.4)">
      <g transform="translate(-0.05,-4.00) rotate(4.69) scale(1.000)">
        <g transform="translate(-2.44,-3.81) rotate(9.88) scale(0.980)">
        <g transform="translate(-4.23,-3.28) rotate(14.98) scale(0.960)">
        <g transform="translate(-4.99,-2.46) rotate(19.40) scale(0.940)">
        <g transform="translate(-4.53,-1.41) rotate(22.55) scale(0.920)">
        <g transform="translate(-2.96,-0.25) rotate(23.95) scale(0.900)" mask="url(#maskDynamic)">
        <g transform="translate(-0.66,0.94) rotate(23.20) scale(0.880)">
        <circle cx="0" cy="0" r="37.0" fill="url(#rgrad2)" filter="url(#shadow)" opacity="0.43"/>
        <text x="0" y="5" text-anchor="middle" font-family="Arial, sans-serif" font-size="14" fill="#FFFFFF" opacity="0.43">388</text>
      </g>
      </g>
      </g>
      </g>
      </g>
      </g>
      </g>
  </g>
  <g transform="translate(104.5, 375.5)">
      <g transform="translate(-4.23,-2.13) rotate(4.69) scale(1.000)">
        <g transform="translate(-4.99,-1.03) rotate(9.88) scale(0.980)">
        <g transform="translate(-4.53,0.15) rotate(14.98) scale(0.960)">
        <g transform="translate(-2.96,1.33) rotate(19.40) scale(0.940)">
        <g transform="translate(-0.66,2.38) rotate(22.55) scale(0.920)">
        <g transform="translate(1.80,3.23) rotate(23.95) scale(0.900)">
        <g transform="translate(3.81,3.78) rotate(23.20) scale(0.880)">
        <path d="M0.0,-63.1 L18.5,-25.5 L60.0,-19.5 L30.0,9.7 L37.1,51.0 L0.0,31.5 L-37.1,51.0 L-30.0,9.7 L-60.0,-19.5 L-18.5,-25.5Z" fill="url(#rgrad3)" filter="url(#blur3)" opacity="0.32"/>
      </g>
      </g>
      </g>
      </g>
      </g>
      </g>
      </g>
  </g>
  <g transform="translate(338.2, 360.7)">
      <g transform="translate(-4.53,1.70) rotate(4.69) scale(1.000)">
        <g transform="translate(-2.96,2.69) rotate(9.88) scale(0.980)">
        <g transform="translate(-0.66,3.45) rotate(14.98) scale(0.960)">
        <g transform="translate(1.80,3.89) rotate(19.40) scale(0.940)" clip-path="url(#clipDynamic)">
        <g transform="translate(3.81,3.99) rotate(22.55) scale(0.920)">
        <g transform="translate(4.90,3.73) rotate(23.95) scale(0.900)">
        <g transform="translate(4.78,3.14) rotate(23.20) scale(0.880)">
        <rect x="-24.7" y="-24.7" width="49.3" height="49.3" rx="12.3" fill="url(#lgrad4)" filter="url(#shadow)" opacity="0.22"/>
        <circle cx="0" cy="0" r="16.4" fill="url(#rgrad0)" opacity="0.15"/>
      </g>
      </g>
      </g>
      </g>
      </g>
      </g>
      </g>
  </g>
  <g transform="translate(567.4, 355.0)">
      <g transform="translate(-0.66,3.97) rotate(4.69) scale(1.000)">
        <g transform="translate(1.80,3.94) rotate(9.88) scale(0.980)">
        <g transform="translate(3.81,3.57) rotate(14.98) scale(0.960)">
        <g transform="translate(4.90,2.88) rotate(19.40) scale(0.940)">
        <g transform="translate(4.78,1.93) rotate(22.55) scale(0.920)">
        <g transform="translate(3.49,0.81) rotate(23.95) scale(0.900)" mask="url(#maskStripes)">
        <g transform="translate(1.35,-0.39) rotate(23.20) scale(0.880)">
        <path d="M23.6,13.6 L0.0,27.2 L-23.6,13.6 L-23.6,-13.6 L-0.0,-27.2 L23.6,-13.6Z" fill="url(#rgrad0)" filter="url(#blur0)" opacity="0.15"/>
        <ellipse cx="0" cy="0" rx="11.3" ry="7.6" fill="#FFFFFF" opacity="0.07"/>
      </g>
      </g>
      </g>
      </g>
      </g>
      </g>
      </g>
  </g>
  <g transform="translate(789.9, 361.0)">
      <g transform="translate(3.81,2.59) rotate(4.69) scale(1.000)">
        <g transform="translate(4.90,1.57) rotate(9.88) scale(0.980)">
        <g transform="translate(4.78,0.41) rotate(14.98) scale(0.960)">
        <g transform="translate(3.49,-0.78) rotate(19.40) scale(0.940)">
        <g transform="translate(1.35,-1.91) rotate(22.55) scale(0.920)">
        <g transform="translate(-1.12,-2.86) rotate(23.95) scale(0.900)">
        <g transform="translate(-3.32,-3.56) rotate(23.20) scale(0.880)">
        <circle cx="0" cy="0" r="27.4" fill="url(#rgrad1)" filter="url(#shadow)" opacity="0.11"/>
        <text x="0" y="5" text-anchor="middle" font-family="Arial, sans-serif" font-size="14" fill="#FFFFFF" opacity="0.11">388</text>
      </g>
      </g>
      </g>
      </g>
      </g>
      </g>
      </g>
  </g>
  <g transform="translate(1005.1, 376.0)">
      <g transform="translate(4.78,-1.17) rotate(4.69) scale(1.000)">
        <g transform="translate(3.49,-2.25) rotate(9.88) scale(0.980)">
        <g transform="translate(1.35,-3.13) rotate(14.98) scale(0.960)">
        <g transform="translate(-1.12,-3.72) rotate(19.40) scale(0.940)" clip-path="url(#clipHex)">
        <g transform="translate(-3.32,-3.99) rotate(22.55) scale(0.920)">
        <g transform="translate(-4.71,-3.90) rotate(23.95) scale(0.900)">
        <g transform="translate(-4.94,-3.46) rotate(23.20) scale(0.880)">
        <path d="M0.0,-69.1 L20.3,-27.9 L65.7,-21.3 L32.9,10.7 L40.6,55.9 L0.0,34.5 L-40.6,55.9 L-32.9,10.7 L-65.7,-21.3 L-20.3,-27.9Z" fill="url(#lgrad2)" filter="url(#blur2)" opacity="0.10"/>
      </g>
      </g>
      </g>
      </g>
      </g>
      </g>
      </g>
  </g>
  <g transform="translate(1214.1, 392.8)">
      <g transform="translate(1.35,-3.85) rotate(4.69) scale(1.000)">
        <g transform="translate(-1.12,-4.00) rotate(9.88) scale(0.980)">
        <g transform="translate(-3.32,-3.79) rotate(14.98) scale(0.960)">
        <g transform="translate(-4.71,-3.24) rotate(19.40) scale(0.940)">
        <g transform="translate(-4.94,-2.40) rotate(22.55) scale(0.920)">
        <g transform="translate(-3.96,-1.35) rotate(23.95) scale(0.900)" mask="url(#maskCircleFade)">
        <g transform="translate(-2.02,-0.18) rotate(23.20) scale(0.880)">
        <rect x="-37.5" y="-37.5" width="75.0" height="75.0" rx="18.7" fill="url(#rgrad3)" filter="url(#shadow)" opacity="0.13"/>
        <circle cx="0" cy="0" r="25.0" fill="url(#rgrad4)" opacity="0.09"/>
      </g>
      </g>
      </g>
      </g>
      </g>
      </g>
      </g>
  </g>
  <g transform="translate(1419.7, 403.6)">
      <g transform="translate(-3.32,-2.99) rotate(4.69) scale(1.000)">
        <g transform="translate(-4.71,-2.07) rotate(9.88) scale(0.980)">
        <g transform="translate(-4.94,-0.97) rotate(14.98) scale(0.960)">
        <g transform="translate(-3.96,0.22) rotate(19.40) scale(0.940)">
        <g transform="translate(-2.02,1.39) rotate(22.55) scale(0.920)">
        <g transform="translate(0.42,2.44) rotate(23.95) scale(0.900)">
        <g transform="translate(2.76,3.27) rotate(23.20) scale(0.880)">
        <path d="M34.9,20.1 L0.0,40.2 L-34.9,20.1 L-34.9,-20.1 L-0.0,-40.2 L34.9,-20.1Z" fill="url(#rgrad4)" filter="url(#blur4)" opacity="0.20"/>
        <ellipse cx="0" cy="0" rx="16.8" ry="11.2" fill="#FFFFFF" opacity="0.10"/>
      </g>
      </g>
      </g>
      </g>
      </g>
      </g>
      </g>
  </g>
  <g transform="translate(1625.4, 403.3)">
      <g transform="translate(-4.94,0.62) rotate(4.69) scale(1.000)">
        <g transform="translate(-3.96,1.76) rotate(9.88) scale(0.980)">
        <g transform="translate(-2.02,2.74) rotate(14.98) scale(0.960)">
        <g transform="translate(0.42,3.48) rotate(19.40) scale(0.940)" clip-path="url(#clipCircle)">
        <g transform="translate(2.76,3.91) rotate(22.55) scale(0.920)">
        <g transform="translate(4.42,3.99) rotate(23.95) scale(0.900)">
        <g transform="translate(5.00,3.71) rotate(23.20) scale(0.880)">
        <circle cx="0" cy="0" r="26.3" fill="url(#lgrad0)" filter="url(#shadow)" opacity="0.29"/>
        <text x="0" y="5" text-anchor="middle" font-family="Arial, sans-serif" font-size="14" fill="#FFFFFF" opacity="0.29">388</text>
      </g>
      </g>
      </g>
      </g>
      </g>
      </g>
      </g>
  </g>
  <g transform="translate(74.6, 672.1)">
      <g transform="translate(-2.02,3.66) rotate(4.69) scale(1.000)">
        <g transform="translate(0.42,3.97) rotate(9.88) scale(0.980)">
        <g transform="translate(2.76,3.93) rotate(14.98) scale(0.960)">
        <g transform="translate(4.42,3.54) rotate(19.40) scale(0.940)">
        <g transform="translate(5.00,2.83) rotate(22.55) scale(0.920)">
        <g transform="translate(4.35,1.87) rotate(23.95) scale(0.900)" mask="url(#maskGradient)">
        <g transform="translate(2.64,0.74) rotate(23.20) scale(0.880)">
        <path d="M0.0,-45.0 L13.2,-18.2 L42.8,-13.9 L21.4,7.0 L26.5,36.4 L0.0,22.5 L-26.5,36.4 L-21.4,7.0 L-42.8,-13.9 L-13.2,-18.2Z" fill="url(#rgrad1)" filter="url(#blur1)" opacity="0.39"/>
      </g>
      </g>
      </g>
      </g>
      </g>
      </g>
      </g>
  </g>
  <g transform="translate(290.1, 655.1)">
      <g transform="translate(2.76,3.34) rotate(4.69) scale(1.000)">
        <g transform="translate(4.42,2.53) rotate(9.88) scale(0.980)">
        <g transform="translate(5.00,1.51) rotate(14.98) scale(0.960)">
        <g transform="translate(4.35,0.34) rotate(19.40) scale(0.940)">
        <g transform="translate(2.64,-0.85) rotate(22.55) scale(0.920)">
        <g transform="translate(0.29,-1.97) rotate(23.95) scale(0.900)">
        <g transform="translate(-2.14,-2.91) rotate(23.20) scale(0.880)">
        <rect x="-25.6" y="-25.6" width="51.1" height="51.1" rx="12.8" fill="url(#rgrad2)" filter="url(#shadow)" opacity="0.51"/>
        <circle cx="0" cy="0" r="17.0" fill="url(#rgrad3)" opacity="0.36"/>
      </g>
      </g>
      </g>
      </g>
      </g>
      </g>
      </g>
  </g>
  <g transform="translate(512.8, 640.5)">
      <g transform="translate(5.00,-0.05) rotate(4.69) scale(1.000)">
        <g transform="translate(4.35,-1.23) rotate(9.88) scale(0.980)">
        <g transform="translate(2.64,-2.30) rotate(14.98) scale(0.960)">
        <g transform="translate(0.29,-3.17) rotate(19.40) scale(0.940)" clip-path="url(#clipRect)">
        <g transform="translate(-2.14,-3.75) rotate(22.55) scale(0.920)">
        <g transform="translate(-4.05,-3.99) rotate(23.95) scale(0.900)">
        <g transform="translate(-4.96,-3.88) rotate(23.20) scale(0.880)">
        <path d="M34.0,19.6 L0.0,39.2 L-34.0,19.6 L-34.0,-19.6 L-0.0,-39.2 L34.0,-19.6Z" fill="url(#lgrad3)" filter="url(#blur3)" opacity="0.63"/>
        <ellipse cx="0" cy="0" rx="16.3" ry="10.9" fill="#FFFFFF" opacity="0.32"/>
      </g>
      </g>
      </g>
      </g>
      </g>
      </g>
      </g>
  </g>
  <g transform="translate(742.3, 635.0)">
      <g transform="translate(2.64,-3.40) rotate(4.69) scale(1.000)">
        <g transform="translate(0.29,-3.87) rotate(9.88) scale(0.980)">
        <g transform="translate(-2.14,-4.00) rotate(14.98) scale(0.960)">
        <g transform="translate(-4.05,-3.77) rotate(19.40) scale(0.940)">
        <g transform="translate(-4.96,-3.20) rotate(22.55) scale(0.920)">
        <g transform="translate(-4.66,-2.35) rotate(23.95) scale(0.900)" mask="url(#maskDynamic)">
        <g transform="translate(-3.22,-1.29) rotate(23.20) scale(0.880)">
        <circle cx="0" cy="0" r="37.3" fill="url(#rgrad4)" filter="url(#shadow)" opacity="0.74"/>
        <text x="0" y="5" text-anchor="middle" font-family="Arial, sans-serif" font-size="14" fill="#FFFFFF" opacity="0.74">388</text>
      </g>
      </g>
      </g>
      </g>
      </g>
      </g>
      </g>
  </g>
  <g transform="translate(976.0, 641.3)">
      <g transform="translate(-2.14,-3.61) rotate(4.69) scale(1.000)">
        <g transform="translate(-4.05,-2.95) rotate(9.88) scale(0.980)">
        <g transform="translate(-4.96,-2.01) rotate(14.98) scale(0.960)">
        <g transform="translate(-4.66,-0.90) rotate(19.40) scale(0.940)">
        <g transform="translate(-3.22,0.29) rotate(22.55) scale(0.920)">
        <g transform="translate(-0.99,1.45) rotate(23.95) scale(0.900)">
        <g transform="translate(1.48,2.49) rotate(23.20) scale(0.880)">
        <path d="M0.0,-70.5 L20.7,-28.5 L67.0,-21.8 L33.5,10.9 L41.4,57.0 L0.0,35.2 L-41.4,57.0 L-33.5,10.9 L-67.0,-21.8 L-20.7,-28.5Z" fill="url(#rgrad0)" filter="url(#blur0)" opacity="0.82"/>
      </g>
      </g>
      </g>
      </g>
      </g>
      </g>
      </g>
  </g>
  <g transform="translate(1210.8, 656.4)">
      <g transform="translate(-4.96,-0.51) rotate(4.69) scale(1.000)">
        <g transform="translate(-4.66,0.68) rotate(9.88) scale(0.980)">
        <g transform="translate(-3.22,1.82) rotate(14.98) scale(0.960)">
        <g transform="translate(-0.99,2.79) rotate(19.40) scale(0.940)" clip-path="url(#clipStar)">
        <g transform="translate(1.48,3.51) rotate(22.55) scale(0.920)">
        <g transform="translate(3.59,3.92) rotate(23.95) scale(0.900)">
        <g transform="translate(4.82,3.98) rotate(23.20) scale(0.880)">
        <rect x="-28.3" y="-28.3" width="56.6" height="56.6" rx="14.2" fill="url(#lgrad1)" filter="url(#shadow)" opacity="0.88"/>
        <circle cx="0" cy="0" r="18.9" fill="url(#rgrad2)" opacity="0.61"/>
      </g>
      </g>
      </g>
      </g>
      </g>
      </g>
      </g>
  </g>
  <g transform="translate(1442.9, 673.2)">
      <g transform="translate(-3.22,3.06) rotate(4.69) scale(1.000)">
        <g transform="translate(-0.99,3.69) rotate(9.88) scale(0.980)">
        <g transform="translate(1.48,3.98) rotate(14.98) scale(0.960)">
        <g transform="translate(3.59,3.92) rotate(19.40) scale(0.940)">
        <g transform="translate(4.82,3.51) rotate(22.55) scale(0.920)">
        <g transform="translate(4.87,2.78) rotate(23.95) scale(0.900)" mask="url(#maskStripes)">
        <g transform="translate(3.72,1.81) rotate(23.20) scale(0.880)">
        <path d="M23.8,13.8 L0.0,27.5 L-23.8,13.8 L-23.8,-13.8 L-0.0,-27.5 L23.8,-13.8Z" fill="url(#rgrad2)" filter="url(#blur2)" opacity="0.90"/>
        <ellipse cx="0" cy="0" rx="11.5" ry="7.6" fill="#FFFFFF" opacity="0.45"/>
      </g>
      </g>
      </g>
      </g>
      </g>
      </g>
      </g>
  </g>
  <g transform="translate(1669.4, 683.8)">
      <g transform="translate(1.48,3.82) rotate(4.69) scale(1.000)">
        <g transform="translate(3.59,3.30) rotate(9.88) scale(0.980)">
        <g transform="translate(4.82,2.48) rotate(14.98) scale(0.960)">
        <g transform="translate(4.87,1.44) rotate(19.40) scale(0.940)">
        <g transform="translate(3.72,0.28) rotate(22.55) scale(0.920)">
        <g transform="translate(1.67,-0.91) rotate(23.95) scale(0.900)">
        <g transform="translate(-0.80,-2.02) rotate(23.20) scale(0.880)">
        <circle cx="0" cy="0" r="24.1" fill="url(#rgrad3)" filter="url(#shadow)" opacity="0.89"/>
        <text x="0" y="5" text-anchor="middle" font-family="Arial, sans-serif" font-size="14" fill="#FFFFFF" opacity="0.89">388</text>
      </g>
      </g>
      </g>
      </g>
      </g>
      </g>
      </g>
  </g>
  <g transform="translate(128.7, 963.2)">
      <g transform="translate(4.82,1.07) rotate(4.69) scale(1.000)">
        <g transform="translate(4.87,-0.12) rotate(9.88) scale(0.980)">
        <g transform="translate(3.72,-1.30) rotate(14.98) scale(0.960)">
        <g transform="translate(1.67,-2.36) rotate(19.40) scale(0.940)" clip-path="url(#clipDynamic)">
        <g transform="translate(-0.80,-3.21) rotate(22.55) scale(0.920)">
        <g transform="translate(-3.06,-3.77) rotate(23.95) scale(0.900)">
        <g transform="translate(-4.58,-4.00) rotate(23.20) scale(0.880)">
        <path d="M0.0,-61.3 L18.0,-24.8 L58.3,-18.9 L29.1,9.5 L36.0,49.6 L0.0,30.6 L-36.0,49.6 L-29.1,9.5 L-58.3,-18.9 L-18.0,-24.8Z" fill="url(#lgrad4)" filter="url(#blur4)" opacity="0.84"/>
      </g>
      </g>
      </g>
      </g>
      </g>
      </g>
      </g>
  </g>
  <g transform="translate(365.0, 239.2)" mask="url(#maskGradient)">
    <ellipse cx="0" cy="0" rx="200" ry="150" fill="url(#rgrad0)" filter="url(#blur3)" opacity="0.3"/>
  </g>
  <g transform="translate(771.2, 220.0)" mask="url(#maskCircleFade)">
    <ellipse cx="0" cy="0" rx="200" ry="150" fill="url(#rgrad1)" filter="url(#blur3)" opacity="0.3"/>
  </g>
  <g transform="translate(1203.8, 238.4)" mask="url(#maskStripes)">
    <ellipse cx="0" cy="0" rx="200" ry="150" fill="url(#rgrad2)" filter="url(#blur3)" opacity="0.3"/>
  </g>
</svg>