<?xml version="1.0" encoding="UTF-8"?>
<svg xmlns="http://www.w3.org/2000/svg" viewBox="0 0 1920 1080" width="1920" height="1080">
  <defs>
    <filter id="blur0" x="-50%" y="-50%" width="200%" height="200%">
      <feGaussianBlur in="SourceGraphic" stdDeviation="1"/>
    </filter>
    <filter id="blur1" x="-50%" y="-50%" width="200%" height="200%">
      <feGaussianBlur in="SourceGraphic" stdDeviation="3"/>
    </filter>
    <filter id="blur2" x="-50%" y="-50%" width="200%" height="200%">
      <feGaussianBlur in="SourceGraphic" stdDeviation="5"/>
    </filter>
    <filter id="blur3" x="-50%" y="-50%" width="200%" height="200%">
      <feGaussianBlur in="SourceGraphic" stdDeviation="7"/>
    </filter>
    <filter id="blur4" x="-50%" y="-50%" width="200%" height="200%">
      <feGaussianBlur in="SourceGraphic" stdDeviation="9"/>
    </filter>
    <filter id="shadow" x="-50%" y="-50%" width="200%" height="200%">
      <feGaussianBlur in="SourceAlpha" stdDeviation="3" result="blur"/>
      <feOffset in="blur" dx="4" dy="4" result="offsetBlur"/>
      <feMerge>
        <feMergeNode in="offsetBlur"/>
        <feMergeNode in="SourceGraphic"/>
      </feMerge>
    </filter>
    <linearGradient id="lgrad0" x1="0%" y1="0%" x2="36.6%" y2="1.8%">
      <stop offset="0%" stop-color="#FF6B6B"/>
      <stop offset="33%" stop-color="#4ECDC4"/>
      <stop offset="66%" stop-color="#45B7D1"/>
      <stop offset="100%" stop-color="#96E6A1"/>
    </linearGradient>
    <linearGradient id="lgrad1" x1="0%" y1="0%" x2="62.5%" y2="1.6%">
      <stop offset="0%" stop-color="#FFE66D"/>
      <stop offset="33%" stop-color="#FF6B6B"/>
      <stop offset="66%" stop-color="#C44D58"/>
      <stop offset="100%" stop-color="#8B0000"/>
    </linearGradient>
    <linearGradient id="lgrad2" x1="0%" y1="0%" x2="85.0%" y2="14.3%">
      <stop offset="0%" stop-color="#4169E1"/>
      <stop offset="33%" stop-color="#7B68EE"/>
      <stop offset="66%" stop-color="#9370DB"/>
      <stop offset="100%" stop-color="#FFD700"/>
    </linearGradient>
    <linearGradient id="lgrad3" x1="0%" y1="0%" x2="98.2%" y2="36.6%">
      <stop offset="0%" stop-color="#32CD32"/>
      <stop offset="33%" stop-color="#228B22"/>
      <stop offset="66%" stop-color="#006400"/>
      <stop offset="100%" stop-color="#ADFF2F"/>
    </linearGradient>
    <linearGradient id="lgrad4" x1="0%" y1="0%" x2="98.4%" y2="62.5%">
      <stop offset="0%" stop-color="#FF1493"/>
      <stop offset="33%" stop-color="#FF69B4"/>
      <stop offset="66%" stop-color="#FFB6C1"/>
      <stop offset="100%" stop-color="#FFC0CB"/>
    </linearGradient>
    <radialGradient id="rgrad0" cx="35.7%" cy="33.8%" r="60%">
      <stop offset="0%" stop-color="#FF6B6B" stop-opacity="1"/>
      <stop offset="50%" stop-color="#4ECDC4" stop-opacity="0.8"/>
      <stop offset="100%" stop-color="#45B7D1" stop-opacity="0.6"/>
    </radialGradient>
    <radialGradient id="rgrad1" cx="45.7%" cy="41.8%" r="60%">
      <stop offset="0%" stop-color="#FFE66D" stop-opacity="1"/>
      <stop offset="50%" stop-color="#FF6B6B" stop-opacity="0.8"/>
      <stop offset="100%" stop-color="#C44D58" stop-opacity="0.6"/>
    </radialGradient>
    <radialGradient id="rgrad2" cx="55.7%" cy="49.8%" r="60%">
      <stop offset="0%" stop-color="#4169E1" stop-opacity="1"/>
      <stop offset="50%" stop-color="#7B68EE" stop-opacity="0.8"/>
      <stop offset="100%" stop-color="#9370DB" stop-opacity="0.6"/>
    </radialGradient>
    <radialGradient id="rgrad3" cx="65.7%" cy="57.8%" r="60%">
      <stop offset="0%" stop-color="#32CD32" stop-opacity="1"/>
      <stop offset="50%" stop-color="#228B22" stop-opacity="0.8"/>
      <stop offset="100%" stop-color="#006400" stop-opacity="0.6"/>
    </radialGradient>
    <radialGradient id="rgrad4" cx="35.7%" cy="65.8%" r="60%">
      <stop offset="0%" stop-color="#FF1493" stop-opacity="1"/>
      <stop offset="50%" stop-color="#FF69B4" stop-opacity="0.8"/>
      <stop offset="100%" stop-color="#FFB6C1" stop-opacity="0.6"/>
    </radialGradient>
    <clipPath id="clipCircle">
      <circle cx="0" cy="0" r="50"/>
    </clipPath>
    <clipPath id="clipStar">
      <path d="M0.0,-50.0 L14.7,-20.2 L47.6,-15.5 L23.8,7.7 L29.4,40.5 L0.0,25.0 L-29.4,40.5 L-23.8,7.7 L-47.6,-15.5 L-14.7,-20.2Z"/>
    </clipPath>
    <clipPath id="clipHex">
      <path d="M39.0,22.5 L0.0,45.0 L-39.0,22.5 L-39.0,-22.5 L-0.0,-45.0 L39.0,-22.5Z"/>
    </clipPath>
    <clipPath id="clipRect">
      <rect x="-40" y="-30" width="80" height="60" rx="10"/>
    </clipPath>
    <clipPath id="clipDynamic">
      <circle cx="0" cy="0" r="42.4"/>
    </clipPath>
    <mask id="maskGradient" maskContentUnits="objectBoundingBox">
      <rect x="0" y="0" width="1" height="1" fill="url(#maskGrad)"/>
    </mask>
    <linearGradient id="maskGrad" x1="0%" y1="0%" x2="100%" y2="100%">
      <stop offset="0%" stop-color="white"/>
      <stop offset="100%" stop-color="black"/>
    </linearGradient>
    <mask id="maskCircleFade">
      <circle cx="0" cy="0" r="60" fill="white"/>
      <circle cx="0" cy="0" r="30" fill="black"/>
    </mask>
    <mask id="maskStripes">
      <rect x="-50" y="-50" width="100" height="100" fill="white"/>
      <rect x="-50" y="-40" width="100" height="10" fill="black"/>
      <rect x="-50" y="-20" width="100" height="10" fill="black"/>
      <rect x="-50" y="0" width="100" height="10" fill="black"/>
      <rect x="-50" y="20" width="100" height="10" fill="black"/>
      <rect x="-50" y="40" width="100" height="10" fill="black"/>
    </mask>
    <mask id="maskDynamic">
      <rect x="-60" y="-60" width="120" height="120" fill="white" fill-opacity="0.98"/>
      <circle cx="0" cy="0" r="25" fill="white"/>
    </mask>
  </defs>
  <rect width="1920" height="1080" fill="url(#lgrad0)"/>
  <g transform="translate(114.7, 78.2)">
      <g transform="translate(2.45,-3.49) rotate(4.84) scale(1.000)">
        <g transform="translate(0.06,-3.91) rotate(9.98) scale(0.980)">
        <g transform="translate(-2.34,-3.98) rotate(14.85) scale(0.960)">
        <g transform="translate(-4.17,-3.70) rotate(18.83) scale(0.940)" clip-path="url(#clipCircle)">
        <g transform="translate(-4.98,-3.09) rotate(21.39) scale(0.920)">
        <g transform="translate(-4.57,-2.20) rotate(22.08) scale(0.900)">
        <g transform="translate(-3.04,-1.12) rotate(20.54) scale(0.880)">
        <path d="M0.0,-74.5 L21.9,-30.1 L70.9,-23.0 L35.4,11.5 L43.8,60.3 L0.0,37.3 L-43.8,60.3 L-35.4,11.5 L-70.9,-23.0 L-21.9,-30.1Z" fill="url(#lgrad0)" filter="url(#blur0)" opacity="0.89"/>
      </g>
      </g>
      </g>
      </g>
      </g>
      </g>
      </g>
  </g>
  <g transform="translate(320.4, 75.4)">
      <g transform="translate(-2.34,-3.53) rotate(4.84) scale(1.000)">
        <g transform="translate(-4.17,-2.82) rotate(9.98) scale(0.980)">
        <g transform="translate(-4.98,-1.86) rotate(14.85) scale(0.960)">
        <g transform="translate(-4.57,-0.73) rotate(18.83) scale(0.940)">
        <g transform="translate(-3.04,0.47) rotate(21.39) scale(0.920)">
        <g transform="translate(-0.77,1.62) rotate(22.08) scale(0.900)" mask="url(#maskCircleFade)">
        <g transform="translate(1.69,2.63) rotate(20.54) scale(0.880)">
        <rect x="-35.5" y="-35.5" width="71.0" height="71.0" rx="17.8" fill="url(#rgrad1)" filter="url(#shadow)" opacity="0.90"/>
        <circle cx="0" cy="0" r="23.7" fill="url(#rgrad2)" opacity="0.63"/>
      </g>
      </g>
      </g>
      </g>
      </g>
      </g>
      </g>
  </g>
  <g transform="translate(525.9, 84.2)">
      <g transform="translate(-4.98,-0.33) rotate(4.84) scale(1.000)">
        <g transform="translate(-4.57,0.86) rotate(9.98) scale(0.980)">
        <g transform="translate(-3.04,1.98) rotate(14.85) scale(0.960)">
        <g transform="translate(-0.77,2.92) rotate(18.83) scale(0.940)">
        <g transform="translate(1.69,3.59) rotate(21.39) scale(0.920)">
        <g transform="translate(3.74,3.95) rotate(22.08) scale(0.900)">
        <g transform="translate(4.87,3.96) rotate(20.54) scale(0.880)">
        <path d="M29.8,17.2 L0.0,34.5 L-29.8,17.2 L-29.8,-17.2 L-0.0,-34.5 L29.8,-17.2Z" fill="url(#rgrad2)" filter="url(#blur2)" opacity="0.88"/>
        <ellipse cx="0" cy="0" rx="14.4" ry="9.6" fill="#FFFFFF" opacity="0.44"/>
      </g>
      </g>
      </g>
      </g>
      </g>
      </g>
      </g>
  </g>
  <g transform="translate(735.0, 100.4)">
      <g transform="translate(-3.04,3.17) rotate(4.84) scale(1.000)">
        <g transform="translate(-0.77,3.75) rotate(9.98) scale(0.980)">
        <g transform="translate(1.69,3.99) rotate(14.85) scale(0.960)">
        <g transform="translate(3.74,3.88) rotate(18.83) scale(0.940)" clip-path="url(#clipRect)">
        <g transform="translate(4.87,3.42) rotate(21.39) scale(0.920)">
        <g transform="translate(4.81,2.65) rotate(22.08) scale(0.900)">
        <g transform="translate(3.57,1.65) rotate(20.54) scale(0.880)">
        <circle cx="0" cy="0" r="23.1" fill="url(#lgrad3)" filter="url(#shadow)" opacity="0.82"/>
        <text x="0" y="5" text-anchor="middle" font-family="Arial, sans-serif" font-size="14" fill="#FFFFFF" opacity="0.82">419</text>
      </g>
      </g>
      </g>
      </g>
      </g>
      </g>
      </g>
  </g>
  <g transform="translate(950.1, 116.4)">
      <g transform="translate(1.69,3.76) rotate(4.84) scale(1.000)">
        <g transform="translate(3.74,3.19) rotate(9.98) scale(0.980)">
        <g transform="translate(4.87,2.34) rotate(14.85) scale(0.960)">
        <g transform="translate(4.81,1.28) rotate(18.83) scale(0.940)">
        <g transform="translate(3.57,0.10) rotate(21.39) scale(0.920)">
        <g transform="translate(1.46,-1.09) rotate(22.08) scale(0.900)" mask="url(#maskGradient)">
        <g transform="translate(-1.01,-2.18) rotate(20.54) scale(0.880)">
        <path d="M0.0,-47.6 L14.0,-19.3 L45.3,-14.7 L22.7,7.4 L28.0,38.5 L0.0,23.8 L-28.0,38.5 L-22.7,7.4 L-45.3,-14.7 L-14.0,-19.3Z" fill="url(#rgrad4)" filter="url(#blur4)" opacity="0.73"/>
      </g>
      </g>
      </g>
      </g>
      </g>
      </g>
      </g>
  </g>
  <g transform="translate(1172.6, 124.7)">
      <g transform="translate(4.87,0.89) rotate(4.84) scale(1.000)">
        <g transform="translate(4.81,-0.30) rotate(9.98) scale(0.980)">
        <g transform="translate(3.57,-1.47) rotate(14.85) scale(0.960)">
        <g transform="translate(1.46,-2.50) rotate(18.83) scale(0.940)">
        <g transform="translate(-1.01,-3.31) rotate(21.39) scale(0.920)">
        <g transform="translate(-3.24,-3.83) rotate(22.08) scale(0.900)">
        <g transform="translate(-4.67,-4.00) rotate(20.54) scale(0.880)">
        <rect x="-30.2" y="-30.2" width="60.5" height="60.5" rx="15.1" fill="url(#rgrad0)" filter="url(#shadow)" opacity="0.63"/>
        <circle cx="0" cy="0" r="20.2" fill="url(#rgrad1)" opacity="0.44"/>
      </g>
      </g>
      </g>
      </g>
      </g>
      </g>
      </g>
  </g>
  <g transform="translate(1401.7, 121.4)">
      <g transform="translate(3.57,-2.80) rotate(4.84) scale(1.000)">
        <g transform="translate(1.46,-3.52) rotate(9.98) scale(0.980)">
        <g transform="translate(-1.01,-3.92) rotate(14.85) scale(0.960)">
        <g transform="translate(-3.24,-3.98) rotate(18.83) scale(0.940)" clip-path="url(#clipStar)">
        <g transform="translate(-4.67,-3.68) rotate(21.39) scale(0.920)">
        <g transform="translate(-4.96,-3.05) rotate(22.08) scale(0.900)">
        <g transform="translate(-4.03,-2.15) rotate(20.54) scale(0.880)">
        <path d="M37.9,21.9 L0.0,43.7 L-37.9,21.9 L-37.9,-21.9 L-0.0,-43.7 L37.9,-21.9Z" fill="url(#lgrad1)" filter="url(#blur1)" opacity="0.51"/>
        <ellipse cx="0" cy="0" rx="18.2" ry="12.1" fill="#FFFFFF" opacity="0.26"/>
      </g>
      </g>
      </g>
      </g>
      </g>
      </g>
      </g>
  </g>
  <g transform="translate(1635.4, 108.0)">
      <g transform="translate(-1.01,-3.92) rotate(4.84) scale(1.000)">
        <g transform="translate(-3.24,-3.50) rotate(9.98) scale(0.980)">
        <g transform="translate(-4.67,-2.77) rotate(14.85) scale(0.960)">
        <g transform="translate(-4.96,-1.80) rotate(18.83) scale(0.940)">
        <g transform="translate(-4.03,-0.66) rotate(21.39) scale(0.920)">
        <g transform="translate(-2.12,0.53) rotate(22.08) scale(0.900)" mask="url(#maskDynamic)">
        <g transform="translate(0.31,1.68) rotate(20.54) scale(0.880)">
        <circle cx="0" cy="0" r="36.7" fill="url(#rgrad2)" filter="url(#shadow)" opacity="0.39"/>
        <text x="0" y="5" text-anchor="middle" font-family="Arial, sans-serif" font-size="14" fill="#FFFFFF" opacity="0.39">419</text>
      </g>
      </g>
      </g>
      </g>
      </g>
      </g>
      </g>
  </g>
  <g transform="translate(110.2, 370.8)">
      <g transform="translate(-4.67,-1.43) rotate(4.84) scale(1.000)">
        <g transform="translate(-4.96,-0.27) rotate(9.98) scale(0.980)">
        <g transform="translate(-4.03,0.93) rotate(14.85) scale(0.960)">
        <g transform="translate(-2.12,2.03) rotate(18.83) scale(0.940)">
        <g transform="translate(0.31,2.96) rotate(21.39) scale(0.920)">
        <g transform="translate(2.67,3.62) rotate(22.08) scale(0.900)">
        <g transform="translate(4.37,3.96) rotate(20.54) scale(0.880)">
        <path d="M0.0,-61.7 L18.1,-24.9 L58.6,-19.1 L29.3,9.5 L36.2,49.9 L0.0,30.8 L-36.2,49.9 L-29.3,9.5 L-58.6,-19.1 L-18.1,-24.9Z" fill="url(#rgrad3)" filter="url(#blur3)" opacity="0.28"/>
      </g>
      </g>
      </g>
      </g>
      </g>
      </g>
      </g>
  </g>
  <g transform="translate(342.5, 358.0)">
      <g transform="translate(-4.03,2.37) rotate(4.84) scale(1.000)">
        <g transform="translate(-2.12,3.21) rotate(9.98) scale(0.980)">
        <g transform="translate(0.31,3.77) rotate(14.85) scale(0.960)">
        <g transform="translate(2.67,4.00) rotate(18.83) scale(0.940)" clip-path="url(#clipDynamic)">
        <g transform="translate(4.37,3.86) rotate(21.39) scale(0.920)">
        <g transform="translate(5.00,3.38) rotate(22.08) scale(0.900)">
        <g transform="translate(4.41,2.60) rotate(20.54) scale(0.880)">
        <rect x="-24.2" y="-24.2" width="48.3" height="48.3" rx="12.1" fill="url(#lgrad4)" filter="url(#shadow)" opacity="0.19"/>
        <circle cx="0" cy="0" r="16.1" fill="url(#rgrad0)" opacity="0.14"/>
      </g>
      </g>
      </g>
      </g>
      </g>
      </g>
      </g>
  </g>
  <g transform="translate(569.2, 355.5)">
      <g transform="translate(0.31,3.99) rotate(4.84) scale(1.000)">
        <g transform="translate(2.67,3.74) rotate(9.98) scale(0.980)">
        <g transform="translate(4.37,3.15) rotate(14.85) scale(0.960)">
        <g transform="translate(5.00,2.29) rotate(18.83) scale(0.940)">
        <g transform="translate(4.41,1.21) rotate(21.39) scale(0.920)">
        <g transform="translate(2.74,0.03) rotate(22.08) scale(0.900)" mask="url(#maskStripes)">
        <g transform="translate(0.39,-1.15) rotate(20.54) scale(0.880)">
        <path d="M23.8,13.7 L0.0,27.5 L-23.8,13.7 L-23.8,-13.7 L-0.0,-27.5 L23.8,-13.7Z" fill="url(#rgrad0)" filter="url(#blur0)" opacity="0.13"/>
        <ellipse cx="0" cy="0" rx="11.4" ry="7.6" fill="#FFFFFF" opacity="0.07"/>
      </g>
      </g>
      </g>
      </g>
      </g>
      </g>
      </g>
  </g>
  <g transform="translate(788.9, 364.5)">
      <g transform="translate(4.37,1.95) rotate(4.84) scale(1.000)">
        <g transform="translate(5.00,0.83) rotate(9.98) scale(0.980)">
        <g transform="translate(4.41,-0.37) rotate(14.85) scale(0.960)">
        <g transform="translate(2.74,-1.53) rotate(18.83) scale(0.940)">
        <g transform="translate(0.39,-2.55) rotate(21.39) scale(0.920)">
        <g transform="translate(-2.04,-3.35) rotate(22.08) scale(0.900)">
        <g transform="translate(-3.98,-3.85) rotate(20.54) scale(0.880)">
        <circle cx="0" cy="0" r="28.1" fill="url(#rgrad1)" filter="url(#shadow)" opacity="0.10"/>
        <text x="0" y="5" text-anchor="middle" font-family="Arial, sans-serif" font-size="14" fill="#FFFFFF" opacity="0.10">419</text>
      </g>
      </g>
      </g>
      </g>
      </g>
      </g>
      </g>
  </g>
  <g transform="translate(1001.4, 380.8)">
      <g transform="translate(4.41,-1.89) rotate(4.84) scale(1.000)">
        <g transform="translate(2.74,-2.85) rotate(9.98) scale(0.980)">
        <g transform="translate(0.39,-3.55) rotate(14.85) scale(0.960)">
        <g transform="translate(-2.04,-3.94) rotate(18.83) scale(0.940)" clip-path="url(#clipHex)">
        <g transform="translate(-3.98,-3.97) rotate(21.39) scale(0.920)">
        <g transform="translate(-4.94,-3.65) rotate(22.08) scale(0.900)">
        <g transform="translate(-4.70,-3.00) rotate(20.54) scale(0.880)">
        <path d="M0.0,-70.2 L20.6,-28.4 L66.8,-21.7 L33.4,10.8 L41.3,56.8 L0.0,35.1 L-41.3,56.8 L-33.4,10.8 L-66.8,-21.7 L-20.6,-28.4Z" fill="url(#lgrad2)" filter="url(#blur2)" opacity="0.11"/>
      </g>
      </g>
      </g>
      </g>
      </g>
      </g>
      </g>
  </g>
  <g transform="translate(1208.7, 396.7)">
      <g transform="translate(0.39,-3.99) rotate(4.84) scale(1.000)">
        <g transform="translate(-2.04,-3.90) rotate(9.98) scale(0.980)">
        <g transform="translate(-3.98,-3.47) rotate(14.85) scale(0.960)">
        <g transform="translate(-4.94,-2.73) rotate(18.83) scale(0.940)">
        <g transform="translate(-4.70,-1.74) rotate(21.39) scale(0.920)">
        <g transform="translate(-3.30,-0.60) rotate(22.08) scale(0.900)" mask="url(#maskCircleFade)">
        <g transform="translate(-1.09,0.60) rotate(20.54) scale(0.880)">
        <rect x="-37.4" y="-37.4" width="74.8" height="74.8" rx="18.7" fill="url(#rgrad3)" filter="url(#shadow)" opacity="0.15"/>
        <circle cx="0" cy="0" r="24.9" fill="url(#rgrad4)" opacity="0.10"/>
      </g>
      </g>
      </g>
      </g>
      </g>
      </g>
      </g>
  </g>
  <g transform="translate(1413.9, 404.8)">
      <g transform="translate(-3.98,-2.42) rotate(4.84) scale(1.000)">
        <g transform="translate(-4.94,-1.37) rotate(9.98) scale(0.980)">
        <g transform="translate(-4.70,-0.20) rotate(14.85) scale(0.960)">
        <g transform="translate(-3.30,0.99) rotate(18.83) scale(0.940)">
        <g transform="translate(-1.09,2.09) rotate(21.39) scale(0.920)">
        <g transform="translate(1.38,3.01) rotate(22.08) scale(0.900)">
        <g transform="translate(3.51,3.65) rotate(20.54) scale(0.880)">
        <path d="M34.2,19.7 L0.0,39.5 L-34.2,19.7 L-34.2,-19.7 L-0.0,-39.5 L34.2,-19.7Z" fill="url(#rgrad4)" filter="url(#blur4)" opacity="0.22"/>
        <ellipse cx="0" cy="0" rx="16.4" ry="11.0" fill="#FFFFFF" opacity="0.11"/>
      </g>
      </g>
      </g>
      </g>
      </g>
      </g>
      </g>
  </g>
  <g transform="translate(1620.6, 401.1)">
      <g transform="translate(-4.70,1.37) rotate(4.84) scale(1.000)">
        <g transform="translate(-3.30,2.42) rotate(9.98) scale(0.980)">
        <g transform="translate(-1.09,3.25) rotate(14.85) scale(0.960)">
        <g transform="translate(1.38,3.80) rotate(18.83) scale(0.940)" clip-path="url(#clipCircle)">
        <g transform="translate(3.51,4.00) rotate(21.39) scale(0.920)">
        <g transform="translate(4.79,3.84) rotate(22.08) scale(0.900)">
        <g transform="translate(4.89,3.35) rotate(20.54) scale(0.880)">
        <circle cx="0" cy="0" r="25.7" fill="url(#lgrad0)" filter="url(#shadow)" opacity="0.32"/>
        <text x="0" y="5" text-anchor="middle" font-family="Arial, sans-serif" font-size="14" fill="#FFFFFF" opacity="0.32">419</text>
      </g>
      </g>
      </g>
      </g>
      </g>
      </g>
      </g>
  </g>
  <g transform="translate(72.0, 667.6)">
      <g transform="translate(-1.09,3.90) rotate(4.84) scale(1.000)">
        <g transform="translate(1.38,3.99) rotate(9.98) scale(0.980)">
        <g transform="translate(3.51,3.72) rotate(14.85) scale(0.960)">
        <g transform="translate(4.79,3.11) rotate(18.83) scale(0.940)">
        <g transform="translate(4.89,2.23) rotate(21.39) scale(0.920)">
        <g transform="translate(3.80,1.15) rotate(22.08) scale(0.900)" mask="url(#maskGradient)">
        <g transform="translate(1.77,-0.03) rotate(20.54) scale(0.880)">
        <path d="M0.0,-45.0 L13.2,-18.2 L42.8,-13.9 L21.4,7.0 L26.5,36.4 L0.0,22.5 L-26.5,36.4 L-21.4,7.0 L-42.8,-13.9 L-13.2,-18.2Z" fill="url(#rgrad1)" filter="url(#blur1)" opacity="0.43"/>
      </g>
      </g>
      </g>
      </g>
      </g>
      </g>
      </g>
  </g>
  <g transform="translate(290.3, 650.5)">
      <g transform="translate(3.51,2.85) rotate(4.84) scale(1.000)">
        <g transform="translate(4.79,1.89) rotate(9.98) scale(0.980)">
        <g transform="translate(4.89,0.76) rotate(14.85) scale(0.960)">
        <g transform="translate(3.80,-0.43) rotate(18.83) scale(0.940)">
        <g transform="translate(1.77,-1.59) rotate(21.39) scale(0.920)">
        <g transform="translate(-0.69,-2.60) rotate(22.08) scale(0.900)">
        <g transform="translate(-2.98,-3.38) rotate(20.54) scale(0.880)">
        <rect x="-26.2" y="-26.2" width="52.4" height="52.4" rx="13.1" fill="url(#rgrad2)" filter="url(#shadow)" opacity="0.55"/>
        <circle cx="0" cy="0" r="17.5" fill="url(#rgrad3)" opacity="0.39"/>
      </g>
      </g>
      </g>
      </g>
      </g>
      </g>
      </g>
  </g>
  <g transform="translate(515.8, 637.8)">
      <g transform="translate(4.89,-0.83) rotate(4.84) scale(1.000)">
        <g transform="translate(3.80,-1.95) rotate(9.98) scale(0.980)">
        <g transform="translate(1.77,-2.89) rotate(14.85) scale(0.960)">
        <g transform="translate(-0.69,-3.58) rotate(18.83) scale(0.940)" clip-path="url(#clipRect)">
        <g transform="translate(-2.98,-3.95) rotate(21.39) scale(0.920)">
        <g transform="translate(-4.54,-3.96) rotate(22.08) scale(0.900)">
        <g transform="translate(-4.99,-3.62) rotate(20.54) scale(0.880)">
        <path d="M34.7,20.0 L0.0,40.0 L-34.7,20.0 L-34.7,-20.0 L-0.0,-40.0 L34.7,-20.0Z" fill="url(#lgrad3)" filter="url(#blur3)" opacity="0.67"/>
        <ellipse cx="0" cy="0" rx="16.7" ry="11.1" fill="#FFFFFF" opacity="0.33"/>
      </g>
      </g>
      </g>
      </g>
      </g>
      </g>
      </g>
  </g>
  <g transform="translate(747.3, 635.6)">
      <g transform="translate(1.77,-3.74) rotate(4.84) scale(1.000)">
        <g transform="translate(-0.69,-3.99) rotate(9.98) scale(0.980)">
        <g transform="translate(-2.98,-3.89) rotate(14.85) scale(0.960)">
        <g transform="translate(-4.54,-3.44) rotate(18.83) scale(0.940)">
        <g transform="translate(-4.99,-2.68) rotate(21.39) scale(0.920)">
        <g transform="translate(-4.22,-1.68) rotate(22.08) scale(0.900)" mask="url(#maskDynamic)">
        <g transform="translate(-2.41,-0.53) rotate(20.54) scale(0.880)">
        <circle cx="0" cy="0" r="37.5" fill="url(#rgrad4)" filter="url(#shadow)" opacity="0.77"/>
        <text x="0" y="5" text-anchor="middle" font-family="Arial, sans-serif" font-size="14" fill="#FFFFFF" opacity="0.77">419</text>
      </g>
      </g>
      </g>
      </g>
      </g>
      </g>
      </g>
  </g>
  <g transform="translate(981.9, 644.9)">
      <g transform="translate(-2.98,-3.21) rotate(4.84) scale(1.000)">
        <g transform="translate(-4.54,-2.37) rotate(9.98) scale(0.980)">
        <g transform="translate(-4.99,-1.31) rotate(14.85) scale(0.960)">
        <g transform="translate(-4.22,-0.13) rotate(18.83) scale(0.940)">
        <g transform="translate(-2.41,1.06) rotate(21.39) scale(0.920)">
        <g transform="translate(-0.02,2.15) rotate(22.08) scale(0.900)">
        <g transform="translate(2.38,3.05) rotate(20.54) scale(0.880)">
        <path d="M0.0,-69.4 L20.4,-28.1 L66.0,-21.4 L33.0,10.7 L40.8,56.1 L0.0,34.7 L-40.8,56.1 L-33.0,10.7 L-66.0,-21.4 L-20.4,-28.1Z" fill="url(#rgrad0)" filter="url(#blur0)" opacity="0.84"/>
      </g>
      </g>
      </g>
      </g>
      </g>
      </g>
      </g>
  </g>
  <g transform="translate(1216.0, 661.3)">
      <g transform="translate(-4.99,0.27) rotate(4.84) scale(1.000)">
        <g transform="translate(-4.22,1.44) rotate(9.98) scale(0.980)">
        <g transform="translate(-2.41,2.47) rotate(14.85) scale(0.960)">
        <g transform="translate(-0.02,3.29) rotate(18.83) scale(0.940)" clip-path="url(#clipStar)">
        <g transform="translate(2.38,3.82) rotate(21.39) scale(0.920)">
        <g transform="translate(4.20,4.00) rotate(22.08) scale(0.900)">
        <g transform="translate(4.99,3.83) rotate(20.54) scale(0.880)">
        <rect x="-27.6" y="-27.6" width="55.2" height="55.2" rx="13.8" fill="url(#lgrad1)" filter="url(#shadow)" opacity="0.89"/>
        <circle cx="0" cy="0" r="18.4" fill="url(#rgrad2)" opacity="0.62"/>
      </g>
      </g>
      </g>
      </g>
      </g>
      </g>
      </g>
  </g>
  <g transform="translate(1446.2, 677.0)">
      <g transform="translate(-2.41,3.50) rotate(4.84) scale(1.000)">
        <g transform="translate(-0.02,3.92) rotate(9.98) scale(0.980)">
        <g transform="translate(2.38,3.98) rotate(14.85) scale(0.960)">
        <g transform="translate(4.20,3.69) rotate(18.83) scale(0.940)">
        <g transform="translate(4.99,3.07) rotate(21.39) scale(0.920)">
        <g transform="translate(4.55,2.17) rotate(22.08) scale(0.900)" mask="url(#maskStripes)">
        <g transform="translate(3.01,1.08) rotate(20.54) scale(0.880)">
        <path d="M23.6,13.6 L0.0,27.3 L-23.6,13.6 L-23.6,-13.6 L-0.0,-27.3 L23.6,-13.6Z" fill="url(#rgrad2)" filter="url(#blur2)" opacity="0.90"/>
        <ellipse cx="0" cy="0" rx="11.4" ry="7.6" fill="#FFFFFF" opacity="0.45"/>
      </g>
      </g>
      </g>
      </g>
      </g>
      </g>
      </g>
  </g>
  <g transform="translate(1670.0, 684.8)">
      <g transform="translate(2.38,3.52) rotate(4.84) scale(1.000)">
        <g transform="translate(4.20,2.80) rotate(9.98) scale(0.980)">
        <g transform="translate(4.99,1.83) rotate(14.85) scale(0.960)">
        <g transform="translate(4.55,0.69) rotate(18.83) scale(0.940)">
        <g transform="translate(3.01,-0.50) rotate(21.39) scale(0.920)">
        <g transform="translate(0.72,-1.65) rotate(22.08) scale(0.900)">
        <g transform="translate(-1.74,-2.65) rotate(20.54) scale(0.880)">
        <circle cx="0" cy="0" r="24.5" fill="url(#rgrad3)" filter="url(#shadow)" opacity="0.87"/>
        <text x="0" y="5" text-anchor="middle" font-family="Arial, sans-serif" font-size="14" fill="#FFFFFF" opacity="0.87">419</text>
      </g>
      </g>
      </g>
      </g>
      </g>
      </g>
      </g>
  </g>
  <g transform="translate(126.4, 960.9)">
      <g transform="translate(4.99,0.30) rotate(4.84) scale(1.000)">
        <g transform="translate(4.55,-0.89) rotate(9.98) scale(0.980)">
        <g transform="translate(3.01,-2.01) rotate(14.85) scale(0.960)">
        <g transform="translate(0.72,-2.94) rotate(18.83) scale(0.940)" clip-path="url(#clipDynamic)">
        <g transform="translate(-1.74,-3.61) rotate(21.39) scale(0.920)">
        <g transform="translate(-3.77,-3.96) rotate(22.08) scale(0.900)">
        <g transform="translate(-4.88,-3.95) rotate(20.54) scale(0.880)">
        <path d="M0.0,-62.7 L18.4,-25.4 L59.6,-19.4 L29.8,9.7 L36.9,50.7 L0.0,31.4 L-36.9,50.7 L-29.8,9.7 L-59.6,-19.4 L-18.4,-25.4Z" fill="url(#lgrad4)" filter="url(#blur4)" opacity="0.82"/>
      </g>
      </g>
      </g>
      </g>
      </g>
      </g>
      </g>
  </g>
  <g transform="translate(349.0, 230.3)" mask="url(#maskGradient)">
    <ellipse cx="0" cy="0" rx="200" ry="150" fill="url(#rgrad0)" filter="url(#blur3)" opacity="0.3"/>
  </g>
  <g transform="translate(753.2, 221.4)" mask="url(#maskCircleFade)">
    <ellipse cx="0" cy="0" rx="200" ry="150" fill="url(#rgrad1)" filter="url(#blur3)" opacity="0.3"/>
  </g>
  <g transform="translate(1200.3, 249.5)" mask="url(#maskStripes)">
    <ellipse cx="0" cy="0" rx="200" ry="150" fill="url(#rgrad2)" filter="url(#blur3)" opacity="0.3"/>
  </g>
</svg>