<?xml version="1.0" encoding="UTF-8"?>
<svg xmlns="http://www.w3.org/2000/svg" viewBox="0 0 1920 1080" width="1920" height="1080">
  <defs>
    <filter id="blur0" x="-50%" y="-50%" width="200%" height="200%">
      <feGaussianBlur in="SourceGraphic" stdDeviation="1"/>
    </filter>
    <filter id="blur1" x="-50%" y="-50%" width="200%" height="200%">
      <feGaussianBlur in="SourceGraphic" stdDeviation="3"/>
    </filter>
    <filter id="blur2" x="-50%" y="-50%" width="200%" height="200%">
      <feGaussianBlur in="SourceGraphic" stdDeviation="5"/>
    </filter>
    <filter id="blur3" x="-50%" y="-50%" width="200%" height="200%">
      <feGaussianBlur in="SourceGraphic" stdDeviation="7"/>
    </filter>
    <filter id="blur4" x="-50%" y="-50%" width="200%" height="200%">
      <feGaussianBlur in="SourceGraphic" stdDeviation="9"/>
    </filter>
    <filter id="shadow" x="-50%" y="-50%" width="200%" height="200%">
      <feGaussianBlur in="SourceAlpha" stdDeviation="3" result="blur"/>
      <feOffset in="blur" dx="4" dy="4" result="offsetBlur"/>
      <feMerge>
        <feMergeNode in="offsetBlur"/>
        <feMergeNode in="SourceGraphic"/>
      </feMerge>
    </filter>
    <linearGradient id="lgrad0" x1="0%" y1="0%" x2="0.2%" y2="54.8%">
      <stop offset="0%" stop-color="#FF6B6B"/>
      <stop offset="33%" stop-color="#4ECDC4"/>
      <stop offset="66%" stop-color="#45B7D1"/>
      <stop offset="100%" stop-color="#96E6A1"/>
    </linearGradient>
    <linearGradient id="lgrad1" x1="0%" y1="0%" x2="4.5%" y2="29.3%">
      <stop offset="0%" stop-color="#FFE66D"/>
      <stop offset="33%" stop-color="#FF6B6B"/>
      <stop offset="66%" stop-color="#C44D58"/>
      <stop offset="100%" stop-color="#8B0000"/>
    </linearGradient>
    <linearGradient id="lgrad2" x1="0%" y1="0%" x2="21.0%" y2="9.3%">
      <stop offset="0%" stop-color="#4169E1"/>
      <stop offset="33%" stop-color="#7B68EE"/>
      <stop offset="66%" stop-color="#9370DB"/>
      <stop offset="100%" stop-color="#FFD700"/>
    </linearGradient>
    <linearGradient id="lgrad3" x1="0%" y1="0%" x2="45.2%" y2="0.2%">
      <stop offset="0%" stop-color="#32CD32"/>
      <stop offset="33%" stop-color="#228B22"/>
      <stop offset="66%" stop-color="#006400"/>
      <stop offset="100%" stop-color="#ADFF2F"/>
    </linearGradient>
    <linearGradient id="lgrad4" x1="0%" y1="0%" x2="70.7%" y2="4.5%">
      <stop offset="0%" stop-color="#FF1493"/>
      <stop offset="33%" stop-color="#FF69B4"/>
      <stop offset="66%" stop-color="#FFB6C1"/>
      <stop offset="100%" stop-color="#FFC0CB"/>
    </linearGradient>
    <radialGradient id="rgrad0" cx="43.7%" cy="65.8%" r="60%">
      <stop offset="0%" stop-color="#FF6B6B" stop-opacity="1"/>
      <stop offset="50%" stop-color="#4ECDC4" stop-opacity="0.8"/>
      <stop offset="100%" stop-color="#45B7D1" stop-opacity="0.6"/>
    </radialGradient>
    <radialGradient id="rgrad1" cx="53.7%" cy="33.8%" r="60%">
      <stop offset="0%" stop-color="#FFE66D" stop-opacity="1"/>
      <stop offset="50%" stop-color="#FF6B6B" stop-opacity="0.8"/>
      <stop offset="100%" stop-color="#C44D58" stop-opacity="0.6"/>
    </radialGradient>
    <radialGradient id="rgrad2" cx="63.7%" cy="41.8%" r="60%">
      <stop offset="0%" stop-color="#4169E1" stop-opacity="1"/>
      <stop offset="50%" stop-color="#7B68EE" stop-opacity="0.8"/>
      <stop offset="100%" stop-color="#9370DB" stop-opacity="0.6"/>
    </radialGradient>
    <radialGradient id="rgrad3" cx="33.7%" cy="49.8%" r="60%">
      <stop offset="0%" stop-color="#32CD32" stop-opacity="1"/>
      <stop offset="50%" stop-color="#228B22" stop-opacity="0.8"/>
      <stop offset="100%" stop-color="#006400" stop-opacity="0.6"/>
    </radialGradient>
    <radialGradient id="rgrad4" cx="43.7%" cy="57.8%" r="60%">
      <stop offset="0%" stop-color="#FF1493" stop-opacity="1"/>
      <stop offset="50%" stop-color="#FF69B4" stop-opacity="0.8"/>
      <stop offset="100%" stop-color="#FFB6C1" stop-opacity="0.6"/>
    </radialGradient>
    <clipPath id="clipCircle">
      <circle cx="0" cy="0" r="50"/>
    </clipPath>
    <clipPath id="clipStar">
      <path d="M0.0,-50.0 L14.7,-20.2 L47.6,-15.5 L23.8,7.7 L29.4,40.5 L0.0,25.0 L-29.4,40.5 L-23.8,7.7 L-47.6,-15.5 L-14.7,-20.2Z"/>
    </clipPath>
    <clipPath id="clipHex">
      <path d="M39.0,22.5 L0.0,45.0 L-39.0,22.5 L-39.0,-22.5 L-0.0,-45.0 L39.0,-22.5Z"/>
    </clipPath>
    <clipPath id="clipRect">
      <rect x="-40" y="-30" width="80" height="60" rx="10"/>
    </clipPath>
    <clipPath id="clipDynamic">
      <circle cx="0" cy="0" r="33.0"/>
    </clipPath>
    <mask id="maskGradient" maskContentUnits="objectBoundingBox">
      <rect x="0" y="0" width="1" height="1" fill="url(#maskGrad)"/>
    </mask>
    <linearGradient id="maskGrad" x1="0%" y1="0%" x2="100%" y2="100%">
      <stop offset="0%" stop-color="white"/>
      <stop offset="100%" stop-color="black"/>
    </linearGradient>
    <mask id="maskCircleFade">
      <circle cx="0" cy="0" r="60" fill="white"/>
      <circle cx="0" cy="0" r="30" fill="black"/>
    </mask>
    <mask id="maskStripes">
      <rect x="-50" y="-50" width="100" height="100" fill="white"/>
      <rect x="-50" y="-40" width="100" height="10" fill="black"/>
      <rect x="-50" y="-20" width="100" height="10" fill="black"/>
      <rect x="-50" y="0" width="100" height="10" fill="black"/>
      <rect x="-50" y="20" width="100" height="10" fill="black"/>
      <rect x="-50" y="40" width="100" height="10" fill="black"/>
    </mask>
    <mask id="maskDynamic">
      <rect x="-60" y="-60" width="120" height="120" fill="white" fill-opacity="0.35"/>
      <circle cx="0" cy="0" r="25" fill="white"/>
    </mask>
  </defs>
  <rect width="1920" height="1080" fill="url(#lgrad0)"/>
  <g transform="translate(96.0, 124.8)">
      <g transform="translate(-0.66,3.97) rotate(0.33) scale(1.000)">
        <g transform="translate(1.80,3.94) rotate(-1.34) scale(0.980)">
        <g transform="translate(3.81,3.57) rotate(-4.92) scale(0.960)">
        <g transform="translate(4.90,2.88) rotate(-10.18) scale(0.940)" clip-path="url(#clipCircle)">
        <g transform="translate(4.78,1.93) rotate(-16.75) scale(0.920)">
        <g transform="translate(3.49,0.81) rotate(-24.12) scale(0.900)">
        <g transform="translate(1.35,-0.39) rotate(-31.71) scale(0.880)">
        <path d="M0.0,-61.0 L17.9,-24.7 L58.0,-18.8 L29.0,9.4 L35.8,49.3 L0.0,30.5 L-35.8,49.3 L-29.0,9.4 L-58.0,-18.8 L-17.9,-24.7Z" fill="url(#lgrad0)" filter="url(#blur0)" opacity="0.53"/>
      </g>
      </g>
      </g>
      </g>
      </g>
      </g>
      </g>
  </g>
  <g transform="translate(330.8, 121.1)">
      <g transform="translate(3.81,2.59) rotate(0.33) scale(1.000)">
        <g transform="translate(4.90,1.57) rotate(-1.34) scale(0.980)">
        <g transform="translate(4.78,0.41) rotate(-4.92) scale(0.960)">
        <g transform="translate(3.49,-0.78) rotate(-10.18) scale(0.940)">
        <g transform="translate(1.35,-1.91) rotate(-16.75) scale(0.920)">
        <g transform="translate(-1.12,-2.86) rotate(-24.12) scale(0.900)" mask="url(#maskCircleFade)">
        <g transform="translate(-3.32,-3.56) rotate(-31.71) scale(0.880)">
        <rect x="-24.0" y="-24.0" width="47.9" height="47.9" rx="12.0" fill="url(#rgrad1)" filter="url(#shadow)" opacity="0.41"/>
        <circle cx="0" cy="0" r="16.0" fill="url(#rgrad2)" opacity="0.29"/>
      </g>
      </g>
      </g>
      </g>
      </g>
      </g>
      </g>
  </g>
  <g transform="translate(562.9, 107.5)">
      <g transform="translate(4.78,-1.17) rotate(0.33) scale(1.000)">
        <g transform="translate(3.49,-2.25) rotate(-1.34) scale(0.980)">
        <g transform="translate(1.35,-3.13) rotate(-4.92) scale(0.960)">
        <g transform="translate(-1.12,-3.72) rotate(-10.18) scale(0.940)">
        <g transform="translate(-3.32,-3.99) rotate(-16.75) scale(0.920)">
        <g transform="translate(-4.71,-3.90) rotate(-24.12) scale(0.900)">
        <g transform="translate(-4.94,-3.46) rotate(-31.71) scale(0.880)">
        <path d="M23.9,13.8 L0.0,27.6 L-23.9,13.8 L-23.9,-13.8 L-0.0,-27.6 L23.9,-13.8Z" fill="url(#rgrad2)" filter="url(#blur2)" opacity="0.30"/>
        <ellipse cx="0" cy="0" rx="11.5" ry="7.7" fill="#FFFFFF" opacity="0.15"/>
      </g>
      </g>
      </g>
      </g>
      </g>
      </g>
      </g>
  </g>
  <g transform="translate(789.4, 90.3)">
      <g transform="translate(1.35,-3.85) rotate(0.33) scale(1.000)">
        <g transform="translate(-1.12,-4.00) rotate(-1.34) scale(0.980)">
        <g transform="translate(-3.32,-3.79) rotate(-4.92) scale(0.960)">
        <g transform="translate(-4.71,-3.24) rotate(-10.18) scale(0.940)" clip-path="url(#clipRect)">
        <g transform="translate(-4.94,-2.40) rotate(-16.75) scale(0.920)">
        <g transform="translate(-3.96,-1.35) rotate(-24.12) scale(0.900)">
        <g transform="translate(-2.02,-0.18) rotate(-31.71) scale(0.880)">
        <circle cx="0" cy="0" r="28.5" fill="url(#lgrad3)" filter="url(#shadow)" opacity="0.20"/>
        <text x="0" y="5" text-anchor="middle" font-family="Arial, sans-serif" font-size="14" fill="#FFFFFF" opacity="0.20">979</text>
      </g>
      </g>
      </g>
      </g>
      </g>
      </g>
      </g>
  </g>
  <g transform="translate(1008.7, 77.8)">
      <g transform="translate(-3.32,-2.99) rotate(0.33) scale(1.000)">
        <g transform="translate(-4.71,-2.07) rotate(-1.34) scale(0.980)">
        <g transform="translate(-4.94,-0.97) rotate(-4.92) scale(0.960)">
        <g transform="translate(-3.96,0.22) rotate(-10.18) scale(0.940)">
        <g transform="translate(-2.02,1.39) rotate(-16.75) scale(0.920)">
        <g transform="translate(0.42,2.44) rotate(-24.12) scale(0.900)" mask="url(#maskGradient)">
        <g transform="translate(2.76,3.27) rotate(-31.71) scale(0.880)">
        <path d="M0.0,-70.7 L20.8,-28.6 L67.2,-21.8 L33.6,10.9 L41.5,57.2 L0.0,35.3 L-41.5,57.2 L-33.6,10.9 L-67.2,-21.8 L-20.8,-28.6Z" fill="url(#rgrad4)" filter="url(#blur4)" opacity="0.14"/>
      </g>
      </g>
      </g>
      </g>
      </g>
      </g>
      </g>
  </g>
  <g transform="translate(1221.0, 75.6)">
      <g transform="translate(-4.94,0.62) rotate(0.33) scale(1.000)">
        <g transform="translate(-3.96,1.76) rotate(-1.34) scale(0.980)">
        <g transform="translate(-2.02,2.74) rotate(-4.92) scale(0.960)">
        <g transform="translate(0.42,3.48) rotate(-10.18) scale(0.940)">
        <g transform="translate(2.76,3.91) rotate(-16.75) scale(0.920)">
        <g transform="translate(4.42,3.99) rotate(-24.12) scale(0.900)">
        <g transform="translate(5.00,3.71) rotate(-31.71) scale(0.880)">
        <rect x="-37.3" y="-37.3" width="74.6" height="74.6" rx="18.7" fill="url(#rgrad0)" filter="url(#shadow)" opacity="0.10"/>
        <circle cx="0" cy="0" r="24.9" fill="url(#rgrad1)" opacity="0.07"/>
      </g>
      </g>
      </g>
      </g>
      </g>
      </g>
      </g>
  </g>
  <g transform="translate(1428.1, 85.0)">
      <g transform="translate(-2.02,3.66) rotate(0.33) scale(1.000)">
        <g transform="translate(0.42,3.97) rotate(-1.34) scale(0.980)">
        <g transform="translate(2.76,3.93) rotate(-4.92) scale(0.960)">
        <g transform="translate(4.42,3.54) rotate(-10.18) scale(0.940)" clip-path="url(#clipStar)">
        <g transform="translate(5.00,2.83) rotate(-16.75) scale(0.920)">
        <g transform="translate(4.35,1.87) rotate(-24.12) scale(0.900)">
        <g transform="translate(2.64,0.74) rotate(-31.71) scale(0.880)">
        <path d="M33.8,19.5 L0.0,39.1 L-33.8,19.5 L-33.8,-19.5 L-0.0,-39.1 L33.8,-19.5Z" fill="url(#lgrad1)" filter="url(#blur1)" opacity="0.11"/>
        <ellipse cx="0" cy="0" rx="16.3" ry="10.9" fill="#FFFFFF" opacity="0.05"/>
      </g>
      </g>
      </g>
      </g>
      </g>
      </g>
      </g>
  </g>
  <g transform="translate(1633.3, 101.4)">
      <g transform="translate(2.76,3.34) rotate(0.33) scale(1.000)">
        <g transform="translate(4.42,2.53) rotate(-1.34) scale(0.980)">
        <g transform="translate(5.00,1.51) rotate(-4.92) scale(0.960)">
        <g transform="translate(4.35,0.34) rotate(-10.18) scale(0.940)">
        <g transform="translate(2.64,-0.85) rotate(-16.75) scale(0.920)">
        <g transform="translate(0.28,-1.97) rotate(-24.12) scale(0.900)" mask="url(#maskDynamic)">
        <g transform="translate(-2.14,-2.91) rotate(-31.71) scale(0.880)">
        <circle cx="0" cy="0" r="25.5" fill="url(#rgrad2)" filter="url(#shadow)" opacity="0.14"/>
        <text x="0" y="5" text-anchor="middle" font-family="Arial, sans-serif" font-size="14" fill="#FFFFFF" opacity="0.14">979</text>
      </g>
      </g>
      </g>
      </g>
      </g>
      </g>
      </g>
  </g>
  <g transform="translate(80.1, 397.1)">
      <g transform="translate(5.00,-0.06) rotate(0.33) scale(1.000)">
        <g transform="translate(4.35,-1.24) rotate(-1.34) scale(0.980)">
        <g transform="translate(2.64,-2.30) rotate(-4.92) scale(0.960)">
        <g transform="translate(0.28,-3.17) rotate(-10.18) scale(0.940)">
        <g transform="translate(-2.14,-3.75) rotate(-16.75) scale(0.920)">
        <g transform="translate(-4.05,-3.99) rotate(-24.12) scale(0.900)">
        <g transform="translate(-4.96,-3.88) rotate(-31.71) scale(0.880)">
        <path d="M0.0,-45.0 L13.2,-18.2 L42.8,-13.9 L21.4,7.0 L26.5,36.4 L0.0,22.5 L-26.5,36.4 L-21.4,7.0 L-42.8,-13.9 L-13.2,-18.2Z" fill="url(#rgrad3)" filter="url(#blur3)" opacity="0.21"/>
      </g>
      </g>
      </g>
      </g>
      </g>
      </g>
      </g>
  </g>
  <g transform="translate(291.8, 404.8)">
      <g transform="translate(2.64,-3.40) rotate(0.33) scale(1.000)">
        <g transform="translate(0.28,-3.87) rotate(-1.34) scale(0.980)">
        <g transform="translate(-2.14,-4.00) rotate(-4.92) scale(0.960)">
        <g transform="translate(-4.05,-3.77) rotate(-10.18) scale(0.940)" clip-path="url(#clipDynamic)">
        <g transform="translate(-4.96,-3.20) rotate(-16.75) scale(0.920)">
        <g transform="translate(-4.66,-2.35) rotate(-24.12) scale(0.900)">
        <g transform="translate(-3.22,-1.29) rotate(-31.71) scale(0.880)">
        <rect x="-26.5" y="-26.5" width="52.9" height="52.9" rx="13.2" fill="url(#lgrad4)" filter="url(#shadow)" opacity="0.31"/>
        <circle cx="0" cy="0" r="17.6" fill="url(#rgrad0)" opacity="0.21"/>
      </g>
      </g>
      </g>
      </g>
      </g>
      </g>
      </g>
  </g>
  <g transform="translate(510.4, 400.8)">
      <g transform="translate(-2.14,-3.61) rotate(0.33) scale(1.000)">
        <g transform="translate(-4.05,-2.95) rotate(-1.34) scale(0.980)">
        <g transform="translate(-4.96,-2.01) rotate(-4.92) scale(0.960)">
        <g transform="translate(-4.66,-0.90) rotate(-10.18) scale(0.940)">
        <g transform="translate(-3.22,0.29) rotate(-16.75) scale(0.920)">
        <g transform="translate(-0.99,1.46) rotate(-24.12) scale(0.900)" mask="url(#maskStripes)">
        <g transform="translate(1.49,2.49) rotate(-31.71) scale(0.880)">
        <path d="M35.0,20.2 L0.0,40.4 L-35.0,20.2 L-35.0,-20.2 L-0.0,-40.4 L35.0,-20.2Z" fill="url(#rgrad0)" filter="url(#blur0)" opacity="0.42"/>
        <ellipse cx="0" cy="0" rx="16.8" ry="11.2" fill="#FFFFFF" opacity="0.21"/>
      </g>
      </g>
      </g>
      </g>
      </g>
      </g>
      </g>
  </g>
  <g transform="translate(736.2, 387.1)">
      <g transform="translate(-4.96,-0.51) rotate(0.33) scale(1.000)">
        <g transform="translate(-4.66,0.69) rotate(-1.34) scale(0.980)">
        <g transform="translate(-3.22,1.82) rotate(-4.92) scale(0.960)">
        <g transform="translate(-0.99,2.79) rotate(-10.18) scale(0.940)">
        <g transform="translate(1.49,3.51) rotate(-16.75) scale(0.920)">
        <g transform="translate(3.59,3.92) rotate(-24.12) scale(0.900)">
        <g transform="translate(4.82,3.98) rotate(-31.71) scale(0.880)">
        <circle cx="0" cy="0" r="37.5" fill="url(#rgrad1)" filter="url(#shadow)" opacity="0.54"/>
        <text x="0" y="5" text-anchor="middle" font-family="Arial, sans-serif" font-size="14" fill="#FFFFFF" opacity="0.54">979</text>
      </g>
      </g>
      </g>
      </g>
      </g>
      </g>
      </g>
  </g>
  <g transform="translate(967.9, 369.9)">
      <g transform="translate(-3.22,3.06) rotate(0.33) scale(1.000)">
        <g transform="translate(-0.99,3.69) rotate(-1.34) scale(0.980)">
        <g transform="translate(1.49,3.98) rotate(-4.92) scale(0.960)">
        <g transform="translate(3.59,3.92) rotate(-10.18) scale(0.940)" clip-path="url(#clipHex)">
        <g transform="translate(4.82,3.51) rotate(-16.75) scale(0.920)">
        <g transform="translate(4.87,2.78) rotate(-24.12) scale(0.900)">
        <g transform="translate(3.72,1.81) rotate(-31.71) scale(0.880)">
        <path d="M0.0,-68.9 L20.2,-27.9 L65.5,-21.3 L32.7,10.6 L40.5,55.7 L0.0,34.4 L-40.5,55.7 L-32.7,10.6 L-65.5,-21.3 L-20.2,-27.9Z" fill="url(#lgrad2)" filter="url(#blur2)" opacity="0.65"/>
      </g>
      </g>
      </g>
      </g>
      </g>
      </g>
      </g>
  </g>
  <g transform="translate(1202.5, 357.6)">
      <g transform="translate(1.49,3.82) rotate(0.33) scale(1.000)">
        <g transform="translate(3.59,3.30) rotate(-1.34) scale(0.980)">
        <g transform="translate(4.82,2.48) rotate(-4.92) scale(0.960)">
        <g transform="translate(4.87,1.44) rotate(-10.18) scale(0.940)">
        <g transform="translate(3.72,0.28) rotate(-16.75) scale(0.920)">
        <g transform="translate(1.67,-0.91) rotate(-24.12) scale(0.900)" mask="url(#maskCircleFade)">
        <g transform="translate(-0.80,-2.02) rotate(-31.71) scale(0.880)">
        <rect x="-27.3" y="-27.3" width="54.6" height="54.6" rx="13.7" fill="url(#rgrad3)" filter="url(#shadow)" opacity="0.76"/>
        <circle cx="0" cy="0" r="18.2" fill="url(#rgrad4)" opacity="0.53"/>
      </g>
      </g>
      </g>
      </g>
      </g>
      </g>
      </g>
  </g>
  <g transform="translate(1436.6, 355.7)">
      <g transform="translate(4.82,1.06) rotate(0.33) scale(1.000)">
        <g transform="translate(4.87,-0.12) rotate(-1.34) scale(0.980)">
        <g transform="translate(3.72,-1.30) rotate(-4.92) scale(0.960)">
        <g transform="translate(1.67,-2.36) rotate(-10.18) scale(0.940)">
        <g transform="translate(-0.80,-3.21) rotate(-16.75) scale(0.920)">
        <g transform="translate(-3.07,-3.77) rotate(-24.12) scale(0.900)">
        <g transform="translate(-4.58,-4.00) rotate(-31.71) scale(0.880)">
        <path d="M23.5,13.6 L0.0,27.2 L-23.5,13.6 L-23.5,-13.6 L-0.0,-27.2 L23.5,-13.6Z" fill="url(#rgrad4)" filter="url(#blur4)" opacity="0.83"/>
        <ellipse cx="0" cy="0" rx="11.3" ry="7.6" fill="#FFFFFF" opacity="0.42"/>
      </g>
      </g>
      </g>
      </g>
      </g>
      </g>
      </g>
  </g>
  <g transform="translate(1666.5, 365.3)">
      <g transform="translate(3.72,-2.67) rotate(0.33) scale(1.000)">
        <g transform="translate(1.67,-3.43) rotate(-1.34) scale(0.980)">
        <g transform="translate(-0.80,-3.89) rotate(-4.92) scale(0.960)">
        <g transform="translate(-3.07,-3.99) rotate(-10.18) scale(0.940)" clip-path="url(#clipCircle)">
        <g transform="translate(-4.58,-3.74) rotate(-16.75) scale(0.920)">
        <g transform="translate(-4.98,-3.16) rotate(-24.12) scale(0.900)">
        <g transform="translate(-4.16,-2.29) rotate(-31.71) scale(0.880)">
        <circle cx="0" cy="0" r="24.8" fill="url(#lgrad0)" filter="url(#shadow)" opacity="0.88"/>
        <text x="0" y="5" text-anchor="middle" font-family="Arial, sans-serif" font-size="14" fill="#FFFFFF" opacity="0.88">979</text>
      </g>
      </g>
      </g>
      </g>
      </g>
      </g>
      </g>
  </g>
  <g transform="translate(130.0, 661.8)">
      <g transform="translate(-0.80,-3.95) rotate(0.33) scale(1.000)">
        <g transform="translate(-3.07,-3.58) rotate(-1.34) scale(0.980)">
        <g transform="translate(-4.58,-2.90) rotate(-4.92) scale(0.960)">
        <g transform="translate(-4.98,-1.96) rotate(-10.18) scale(0.940)">
        <g transform="translate(-4.16,-0.84) rotate(-16.75) scale(0.920)">
        <g transform="translate(-2.32,0.36) rotate(-24.12) scale(0.900)" mask="url(#maskGradient)">
        <g transform="translate(0.09,1.52) rotate(-31.71) scale(0.880)">
        <path d="M0.0,-63.4 L18.6,-25.6 L60.3,-19.6 L30.1,9.8 L37.2,51.3 L0.0,31.7 L-37.2,51.3 L-30.1,9.8 L-60.3,-19.6 L-18.6,-25.6Z" fill="url(#rgrad1)" filter="url(#blur1)" opacity="0.90"/>
      </g>
      </g>
      </g>
      </g>
      </g>
      </g>
      </g>
  </g>
  <g transform="translate(346.1, 677.4)">
      <g transform="translate(-4.58,-1.60) rotate(0.33) scale(1.000)">
        <g transform="translate(-4.98,-0.44) rotate(-1.34) scale(0.980)">
        <g transform="translate(-4.16,0.75) rotate(-4.92) scale(0.960)">
        <g transform="translate(-2.32,1.88) rotate(-10.18) scale(0.940)">
        <g transform="translate(0.09,2.84) rotate(-16.75) scale(0.920)">
        <g transform="translate(2.48,3.54) rotate(-24.12) scale(0.900)">
        <g transform="translate(4.26,3.93) rotate(-31.71) scale(0.880)">
        <rect x="-37.1" y="-37.1" width="74.1" height="74.1" rx="18.5" fill="url(#rgrad2)" filter="url(#shadow)" opacity="0.88"/>
        <circle cx="0" cy="0" r="24.7" fill="url(#rgrad3)" opacity="0.62"/>
      </g>
      </g>
      </g>
      </g>
      </g>
      </g>
      </g>
  </g>
  <g transform="translate(555.9, 684.9)">
      <g transform="translate(-4.16,2.22) rotate(0.33) scale(1.000)">
        <g transform="translate(-2.32,3.11) rotate(-1.34) scale(0.980)">
        <g transform="translate(0.09,3.71) rotate(-4.92) scale(0.960)">
        <g transform="translate(2.48,3.99) rotate(-10.18) scale(0.940)" clip-path="url(#clipRect)">
        <g transform="translate(4.26,3.91) rotate(-16.75) scale(0.920)">
        <g transform="translate(4.99,3.47) rotate(-24.12) scale(0.900)">
        <g transform="translate(4.51,2.73) rotate(-31.71) scale(0.880)">
        <path d="M37.4,21.6 L0.0,43.1 L-37.4,21.6 L-37.4,-21.6 L-0.0,-43.1 L37.4,-21.6Z" fill="url(#lgrad3)" filter="url(#blur3)" opacity="0.83"/>
        <ellipse cx="0" cy="0" rx="18.0" ry="12.0" fill="#FFFFFF" opacity="0.41"/>
      </g>
      </g>
      </g>
      </g>
      </g>
      </g>
      </g>
  </g>
  <g transform="translate(761.7, 680.6)">
      <g transform="translate(0.09,4.00) rotate(0.33) scale(1.000)">
        <g transform="translate(2.48,3.80) rotate(-1.34) scale(0.980)">
        <g transform="translate(4.26,3.26) rotate(-4.92) scale(0.960)">
        <g transform="translate(4.99,2.43) rotate(-10.18) scale(0.940)">
        <g transform="translate(4.51,1.38) rotate(-16.75) scale(0.920)">
        <g transform="translate(2.92,0.21) rotate(-24.12) scale(0.900)" mask="url(#maskDynamic)">
        <g transform="translate(0.61,-0.98) rotate(-31.71) scale(0.880)">
        <circle cx="0" cy="0" r="29.4" fill="url(#rgrad4)" filter="url(#shadow)" opacity="0.74"/>
        <text x="0" y="5" text-anchor="middle" font-family="Arial, sans-serif" font-size="14" fill="#FFFFFF" opacity="0.74">979</text>
      </g>
      </g>
      </g>
      </g>
      </g>
      </g>
      </g>
  </g>
  <g transform="translate(967.1, 666.7)">
      <g transform="translate(4.26,2.10) rotate(0.33) scale(1.000)">
        <g transform="translate(4.99,1.00) rotate(-1.34) scale(0.980)">
        <g transform="translate(4.51,-0.19) rotate(-4.92) scale(0.960)">
        <g transform="translate(2.92,-1.36) rotate(-10.18) scale(0.940)">
        <g transform="translate(0.61,-2.41) rotate(-16.75) scale(0.920)">
        <g transform="translate(-1.84,-3.25) rotate(-24.12) scale(0.900)">
        <g transform="translate(-3.84,-3.79) rotate(-31.71) scale(0.880)">
        <path d="M0.0,-46.7 L13.7,-18.9 L44.5,-14.4 L22.2,7.2 L27.5,37.8 L0.0,23.4 L-27.5,37.8 L-22.2,7.2 L-44.5,-14.4 L-13.7,-18.9Z" fill="url(#rgrad0)" filter="url(#blur0)" opacity="0.64"/>
      </g>
      </g>
      </g>
      </g>
      </g>
      </g>
      </g>
  </g>
  <g transform="translate(1175.7, 649.6)">
      <g transform="translate(4.51,-1.73) rotate(0.33) scale(1.000)">
        <g transform="translate(2.92,-2.72) rotate(-1.34) scale(0.980)">
        <g transform="translate(0.61,-3.46) rotate(-4.92) scale(0.960)">
        <g transform="translate(-1.84,-3.90) rotate(-10.18) scale(0.940)" clip-path="url(#clipStar)">
        <g transform="translate(-3.84,-3.99) rotate(-16.75) scale(0.920)">
        <g transform="translate(-4.91,-3.72) rotate(-24.12) scale(0.900)">
        <g transform="translate(-4.77,-3.12) rotate(-31.71) scale(0.880)">
        <rect x="-23.5" y="-23.5" width="46.9" height="46.9" rx="11.7" fill="url(#lgrad1)" filter="url(#shadow)" opacity="0.52"/>
        <circle cx="0" cy="0" r="15.6" fill="url(#rgrad2)" opacity="0.36"/>
      </g>
      </g>
      </g>
      </g>
      </g>
      </g>
      </g>
  </g>
  <g transform="translate(1390.2, 637.4)">
      <g transform="translate(0.61,-3.97) rotate(0.33) scale(1.000)">
        <g transform="translate(-1.84,-3.94) rotate(-1.34) scale(0.980)">
        <g transform="translate(-3.84,-3.55) rotate(-4.92) scale(0.960)">
        <g transform="translate(-4.91,-2.85) rotate(-10.18) scale(0.940)">
        <g transform="translate(-4.77,-1.90) rotate(-16.75) scale(0.920)">
        <g transform="translate(-3.46,-0.77) rotate(-24.12) scale(0.900)" mask="url(#maskStripes)">
        <g transform="translate(-1.31,0.42) rotate(-31.71) scale(0.880)">
        <path d="M30.7,17.7 L0.0,35.5 L-30.7,17.7 L-30.7,-17.7 L-0.0,-35.5 L30.7,-17.7Z" fill="url(#rgrad2)" filter="url(#blur2)" opacity="0.40"/>
        <ellipse cx="0" cy="0" rx="14.8" ry="9.9" fill="#FFFFFF" opacity="0.20"/>
      </g>
      </g>
      </g>
      </g>
      </g>
      </g>
      </g>
  </g>
  <g transform="translate(1612.1, 635.8)">
      <g transform="translate(-3.84,-2.56) rotate(0.33) scale(1.000)">
        <g transform="translate(-4.91,-1.54) rotate(-1.34) scale(0.980)">
        <g transform="translate(-4.77,-0.38) rotate(-4.92) scale(0.960)">
        <g transform="translate(-3.46,0.82) rotate(-10.18) scale(0.940)">
        <g transform="translate(-1.31,1.94) rotate(-16.75) scale(0.920)">
        <g transform="translate(1.17,2.89) rotate(-24.12) scale(0.900)">
        <g transform="translate(3.35,3.58) rotate(-31.71) scale(0.880)">
        <circle cx="0" cy="0" r="36.1" fill="url(#rgrad3)" filter="url(#shadow)" opacity="0.29"/>
        <text x="0" y="5" text-anchor="middle" font-family="Arial, sans-serif" font-size="14" fill="#FFFFFF" opacity="0.29">979</text>
      </g>
      </g>
      </g>
      </g>
      </g>
      </g>
      </g>
  </g>
  <g transform="translate(80.7, 925.7)">
      <g transform="translate(-4.77,1.20) rotate(0.33) scale(1.000)">
        <g transform="translate(-3.46,2.28) rotate(-1.34) scale(0.980)">
        <g transform="translate(-1.31,3.15) rotate(-4.92) scale(0.960)">
        <g transform="translate(1.17,3.74) rotate(-10.18) scale(0.940)" clip-path="url(#clipDynamic)">
        <g transform="translate(3.35,3.99) rotate(-16.75) scale(0.920)">
        <g transform="translate(4.72,3.89) rotate(-24.12) scale(0.900)">
        <g transform="translate(4.93,3.44) rotate(-31.71) scale(0.880)">
        <path d="M0.0,-74.0 L21.7,-29.9 L70.4,-22.9 L35.2,11.4 L43.5,59.8 L0.0,37.0 L-43.5,59.8 L-35.2,11.4 L-70.4,-22.9 L-21.7,-29.9Z" fill="url(#lgrad4)" filter="url(#blur4)" opacity="0.20"/>
      </g>
      </g>
      </g>
      </g>
      </g>
      </g>
      </g>
  </g>
  <g transform="translate(286.8, 379.3)" mask="url(#maskGradient)">
    <ellipse cx="0" cy="0" rx="200" ry="150" fill="url(#rgrad0)" filter="url(#blur3)" opacity="0.3"/>
  </g>
  <g transform="translate(876.3, 367.4)" mask="url(#maskCircleFade)">
    <ellipse cx="0" cy="0" rx="200" ry="150" fill="url(#rgrad1)" filter="url(#blur3)" opacity="0.3"/>
  </g>
  <g transform="translate(1395.6, 323.9)" mask="url(#maskStripes)">
    <ellipse cx="0" cy="0" rx="200" ry="150" fill="url(#rgrad2)" filter="url(#blur3)" opacity="0.3"/>
  </g>
</svg>