<?xml version="1.0" encoding="UTF-8"?>
<svg xmlns="http://www.w3.org/2000/svg" viewBox="0 0 1920 1080" width="1920" height="1080">
  <defs>
    <filter id="blur0" x="-50%" y="-50%" width="200%" height="200%">
      <feGaussianBlur in="SourceGraphic" stdDeviation="1"/>
    </filter>
    <filter id="blur1" x="-50%" y="-50%" width="200%" height="200%">
      <feGaussianBlur in="SourceGraphic" stdDeviation="3"/>
    </filter>
    <filter id="blur2" x="-50%" y="-50%" width="200%" height="200%">
      <feGaussianBlur in="SourceGraphic" stdDeviation="5"/>
    </filter>
    <filter id="blur3" x="-50%" y="-50%" width="200%" height="200%">
      <feGaussianBlur in="SourceGraphic" stdDeviation="7"/>
    </filter>
    <filter id="blur4" x="-50%" y="-50%" width="200%" height="200%">
      <feGaussianBlur in="SourceGraphic" stdDeviation="9"/>
    </filter>
    <filter id="shadow" x="-50%" y="-50%" width="200%" height="200%">
      <feGaussianBlur in="SourceAlpha" stdDeviation="3" result="blur"/>
      <feOffset in="blur" dx="4" dy="4" result="offsetBlur"/>
      <feMerge>
        <feMergeNode in="offsetBlur"/>
        <feMergeNode in="SourceGraphic"/>
      </feMerge>
    </filter>
    <linearGradient id="lgrad0" x1="0%" y1="0%" x2="6.9%" y2="75.4%">
      <stop offset="0%" stop-color="#FF6B6B"/>
      <stop offset="33%" stop-color="#4ECDC4"/>
      <stop offset="66%" stop-color="#45B7D1"/>
      <stop offset="100%" stop-color="#96E6A1"/>
    </linearGradient>
    <linearGradient id="lgrad1" x1="0%" y1="0%" x2="0.0%" y2="50.4%">
      <stop offset="0%" stop-color="#FFE66D"/>
      <stop offset="33%" stop-color="#FF6B6B"/>
      <stop offset="66%" stop-color="#C44D58"/>
      <stop offset="100%" stop-color="#8B0000"/>
    </linearGradient>
    <linearGradient id="lgrad2" x1="0%" y1="0%" x2="6.5%" y2="25.4%">
      <stop offset="0%" stop-color="#4169E1"/>
      <stop offset="33%" stop-color="#7B68EE"/>
      <stop offset="66%" stop-color="#9370DB"/>
      <stop offset="100%" stop-color="#FFD700"/>
    </linearGradient>
    <linearGradient id="lgrad3" x1="0%" y1="0%" x2="24.6%" y2="6.9%">
      <stop offset="0%" stop-color="#32CD32"/>
      <stop offset="33%" stop-color="#228B22"/>
      <stop offset="66%" stop-color="#006400"/>
      <stop offset="100%" stop-color="#ADFF2F"/>
    </linearGradient>
    <linearGradient id="lgrad4" x1="0%" y1="0%" x2="49.6%" y2="0.0%">
      <stop offset="0%" stop-color="#FF1493"/>
      <stop offset="33%" stop-color="#FF69B4"/>
      <stop offset="66%" stop-color="#FFB6C1"/>
      <stop offset="100%" stop-color="#FFC0CB"/>
    </linearGradient>
    <radialGradient id="rgrad0" cx="52.7%" cy="31.8%" r="60%">
      <stop offset="0%" stop-color="#FF6B6B" stop-opacity="1"/>
      <stop offset="50%" stop-color="#4ECDC4" stop-opacity="0.8"/>
      <stop offset="100%" stop-color="#45B7D1" stop-opacity="0.6"/>
    </radialGradient>
    <radialGradient id="rgrad1" cx="62.7%" cy="39.8%" r="60%">
      <stop offset="0%" stop-color="#FFE66D" stop-opacity="1"/>
      <stop offset="50%" stop-color="#FF6B6B" stop-opacity="0.8"/>
      <stop offset="100%" stop-color="#C44D58" stop-opacity="0.6"/>
    </radialGradient>
    <radialGradient id="rgrad2" cx="32.7%" cy="47.8%" r="60%">
      <stop offset="0%" stop-color="#4169E1" stop-opacity="1"/>
      <stop offset="50%" stop-color="#7B68EE" stop-opacity="0.8"/>
      <stop offset="100%" stop-color="#9370DB" stop-opacity="0.6"/>
    </radialGradient>
    <radialGradient id="rgrad3" cx="42.7%" cy="55.8%" r="60%">
      <stop offset="0%" stop-color="#32CD32" stop-opacity="1"/>
      <stop offset="50%" stop-color="#228B22" stop-opacity="0.8"/>
      <stop offset="100%" stop-color="#006400" stop-opacity="0.6"/>
    </radialGradient>
    <radialGradient id="rgrad4" cx="52.7%" cy="63.8%" r="60%">
      <stop offset="0%" stop-color="#FF1493" stop-opacity="1"/>
      <stop offset="50%" stop-color="#FF69B4" stop-opacity="0.8"/>
      <stop offset="100%" stop-color="#FFB6C1" stop-opacity="0.6"/>
    </radialGradient>
    <clipPath id="clipCircle">
      <circle cx="0" cy="0" r="50"/>
    </clipPath>
    <clipPath id="clipStar">
      <path d="M0.0,-50.0 L14.7,-20.2 L47.6,-15.5 L23.8,7.7 L29.4,40.5 L0.0,25.0 L-29.4,40.5 L-23.8,7.7 L-47.6,-15.5 L-14.7,-20.2Z"/>
    </clipPath>
    <clipPath id="clipHex">
      <path d="M39.0,22.5 L0.0,45.0 L-39.0,22.5 L-39.0,-22.5 L-0.0,-45.0 L39.0,-22.5Z"/>
    </clipPath>
    <clipPath id="clipRect">
      <rect x="-40" y="-30" width="80" height="60" rx="10"/>
    </clipPath>
    <clipPath id="clipDynamic">
      <circle cx="0" cy="0" r="49.5"/>
    </clipPath>
    <mask id="maskGradient" maskContentUnits="objectBoundingBox">
      <rect x="0" y="0" width="1" height="1" fill="url(#maskGrad)"/>
    </mask>
    <linearGradient id="maskGrad" x1="0%" y1="0%" x2="100%" y2="100%">
      <stop offset="0%" stop-color="white"/>
      <stop offset="100%" stop-color="black"/>
    </linearGradient>
    <mask id="maskCircleFade">
      <circle cx="0" cy="0" r="60" fill="white"/>
      <circle cx="0" cy="0" r="30" fill="black"/>
    </mask>
    <mask id="maskStripes">
      <rect x="-50" y="-50" width="100" height="100" fill="white"/>
      <rect x="-50" y="-40" width="100" height="10" fill="black"/>
      <rect x="-50" y="-20" width="100" height="10" fill="black"/>
      <rect x="-50" y="0" width="100" height="10" fill="black"/>
      <rect x="-50" y="20" width="100" height="10" fill="black"/>
      <rect x="-50" y="40" width="100" height="10" fill="black"/>
    </mask>
    <mask id="maskDynamic">
      <rect x="-60" y="-60" width="120" height="120" fill="white" fill-opacity="0.73"/>
      <circle cx="0" cy="0" r="25" fill="white"/>
    </mask>
  </defs>
  <rect width="1920" height="1080" fill="url(#lgrad0)"/>
  <g transform="translate(129.0, 106.5)">
      <g transform="translate(4.83,1.04) rotate(3.04) scale(1.000)">
        <g transform="translate(4.86,-0.15) rotate(7.54) scale(0.980)">
        <g transform="translate(3.70,-1.32) rotate(13.04) scale(0.960)">
        <g transform="translate(1.64,-2.38) rotate(19.01) scale(0.940)" clip-path="url(#clipCircle)">
        <g transform="translate(-0.83,-3.22) rotate(24.83) scale(0.920)">
        <g transform="translate(-3.09,-3.78) rotate(29.90) scale(0.900)">
        <g transform="translate(-4.60,-4.00) rotate(33.60) scale(0.880)">
        <path d="M0.0,-69.1 L20.3,-28.0 L65.7,-21.4 L32.9,10.7 L40.6,55.9 L0.0,34.6 L-40.6,55.9 L-32.9,10.7 L-65.7,-21.4 L-20.3,-28.0Z" fill="url(#lgrad0)" filter="url(#blur0)" opacity="0.74"/>
      </g>
      </g>
      </g>
      </g>
      </g>
      </g>
      </g>
  </g>
  <g transform="translate(349.2, 89.4)">
      <g transform="translate(3.70,-2.69) rotate(3.04) scale(1.000)">
        <g transform="translate(1.64,-3.44) rotate(7.54) scale(0.980)">
        <g transform="translate(-0.83,-3.89) rotate(13.04) scale(0.960)">
        <g transform="translate(-3.09,-3.99) rotate(19.01) scale(0.940)">
        <g transform="translate(-4.60,-3.73) rotate(24.83) scale(0.920)">
        <g transform="translate(-4.98,-3.14) rotate(29.90) scale(0.900)" mask="url(#maskCircleFade)">
        <g transform="translate(-4.14,-2.27) rotate(33.60) scale(0.880)">
        <rect x="-37.5" y="-37.5" width="74.9" height="74.9" rx="18.7" fill="url(#rgrad1)" filter="url(#shadow)" opacity="0.83"/>
        <circle cx="0" cy="0" r="25.0" fill="url(#rgrad2)" opacity="0.58"/>
      </g>
      </g>
      </g>
      </g>
      </g>
      </g>
      </g>
  </g>
  <g transform="translate(562.2, 77.3)">
      <g transform="translate(-0.83,-3.94) rotate(3.04) scale(1.000)">
        <g transform="translate(-3.09,-3.57) rotate(7.54) scale(0.980)">
        <g transform="translate(-4.60,-2.88) rotate(13.04) scale(0.960)">
        <g transform="translate(-4.98,-1.93) rotate(19.01) scale(0.940)">
        <g transform="translate(-4.14,-0.81) rotate(24.83) scale(0.920)">
        <g transform="translate(-2.29,0.38) rotate(29.90) scale(0.900)">
        <g transform="translate(0.13,1.54) rotate(33.60) scale(0.880)">
        <path d="M34.8,20.1 L0.0,40.2 L-34.8,20.1 L-34.8,-20.1 L-0.0,-40.2 L34.8,-20.1Z" fill="url(#rgrad2)" filter="url(#blur2)" opacity="0.88"/>
        <ellipse cx="0" cy="0" rx="16.8" ry="11.2" fill="#FFFFFF" opacity="0.44"/>
      </g>
      </g>
      </g>
      </g>
      </g>
      </g>
      </g>
  </g>
  <g transform="translate(769.8, 75.9)">
      <g transform="translate(-4.60,-1.57) rotate(3.04) scale(1.000)">
        <g transform="translate(-4.98,-0.42) rotate(7.54) scale(0.980)">
        <g transform="translate(-4.14,0.78) rotate(13.04) scale(0.960)">
        <g transform="translate(-2.29,1.90) rotate(19.01) scale(0.940)" clip-path="url(#clipRect)">
        <g transform="translate(0.13,2.86) rotate(24.83) scale(0.920)">
        <g transform="translate(2.51,3.56) rotate(29.90) scale(0.900)">
        <g transform="translate(4.27,3.94) rotate(33.60) scale(0.880)">
        <circle cx="0" cy="0" r="26.3" fill="url(#lgrad3)" filter="url(#shadow)" opacity="0.90"/>
        <text x="0" y="5" text-anchor="middle" font-family="Arial, sans-serif" font-size="14" fill="#FFFFFF" opacity="0.90">209</text>
      </g>
      </g>
      </g>
      </g>
      </g>
      </g>
      </g>
  </g>
  <g transform="translate(975.0, 85.8)">
      <g transform="translate(-4.14,2.24) rotate(3.04) scale(1.000)">
        <g transform="translate(-2.29,3.12) rotate(7.54) scale(0.980)">
        <g transform="translate(0.13,3.72) rotate(13.04) scale(0.960)">
        <g transform="translate(2.51,3.99) rotate(19.01) scale(0.940)">
        <g transform="translate(4.27,3.90) rotate(24.83) scale(0.920)">
        <g transform="translate(4.99,3.46) rotate(29.90) scale(0.900)" mask="url(#maskGradient)">
        <g transform="translate(4.49,2.71) rotate(33.60) scale(0.880)">
        <path d="M0.0,-45.0 L13.2,-18.2 L42.8,-13.9 L21.4,7.0 L26.5,36.4 L0.0,22.5 L-26.5,36.4 L-21.4,7.0 L-42.8,-13.9 L-13.2,-18.2Z" fill="url(#rgrad4)" filter="url(#blur4)" opacity="0.88"/>
      </g>
      </g>
      </g>
      </g>
      </g>
      </g>
      </g>
  </g>
  <g transform="translate(1181.5, 102.4)">
      <g transform="translate(0.13,4.00) rotate(3.04) scale(1.000)">
        <g transform="translate(2.51,3.79) rotate(7.54) scale(0.980)">
        <g transform="translate(4.27,3.24) rotate(13.04) scale(0.960)">
        <g transform="translate(4.99,2.41) rotate(19.01) scale(0.940)">
        <g transform="translate(4.49,1.36) rotate(24.83) scale(0.920)">
        <g transform="translate(2.89,0.18) rotate(29.90) scale(0.900)">
        <g transform="translate(0.58,-1.01) rotate(33.60) scale(0.880)">
        <rect x="-25.6" y="-25.6" width="51.2" height="51.2" rx="12.8" fill="url(#rgrad0)" filter="url(#shadow)" opacity="0.83"/>
        <circle cx="0" cy="0" r="17.1" fill="url(#rgrad1)" opacity="0.58"/>
      </g>
      </g>
      </g>
      </g>
      </g>
      </g>
      </g>
  </g>
  <g transform="translate(1392.4, 117.9)">
      <g transform="translate(4.27,2.08) rotate(3.04) scale(1.000)">
        <g transform="translate(4.99,0.97) rotate(7.54) scale(0.980)">
        <g transform="translate(4.49,-0.22) rotate(13.04) scale(0.960)">
        <g transform="translate(2.89,-1.39) rotate(19.01) scale(0.940)" clip-path="url(#clipStar)">
        <g transform="translate(0.58,-2.43) rotate(24.83) scale(0.920)">
        <g transform="translate(-1.87,-3.26) rotate(29.90) scale(0.900)">
        <g transform="translate(-3.86,-3.80) rotate(33.60) scale(0.880)">
        <path d="M34.0,19.6 L0.0,39.3 L-34.0,19.6 L-34.0,-19.6 L-0.0,-39.3 L34.0,-19.6Z" fill="url(#lgrad1)" filter="url(#blur1)" opacity="0.75"/>
        <ellipse cx="0" cy="0" rx="16.4" ry="10.9" fill="#FFFFFF" opacity="0.38"/>
      </g>
      </g>
      </g>
      </g>
      </g>
      </g>
      </g>
  </g>
  <g transform="translate(1610.1, 124.9)">
      <g transform="translate(4.49,-1.76) rotate(3.04) scale(1.000)">
        <g transform="translate(2.89,-2.74) rotate(7.54) scale(0.980)">
        <g transform="translate(0.58,-3.48) rotate(13.04) scale(0.960)">
        <g transform="translate(-1.87,-3.91) rotate(19.01) scale(0.940)">
        <g transform="translate(-3.86,-3.99) rotate(24.83) scale(0.920)">
        <g transform="translate(-4.91,-3.71) rotate(29.90) scale(0.900)" mask="url(#maskDynamic)">
        <g transform="translate(-4.76,-3.10) rotate(33.60) scale(0.880)">
        <circle cx="0" cy="0" r="37.4" fill="url(#rgrad2)" filter="url(#shadow)" opacity="0.65"/>
        <text x="0" y="5" text-anchor="middle" font-family="Arial, sans-serif" font-size="14" fill="#FFFFFF" opacity="0.65">209</text>
      </g>
      </g>
      </g>
      </g>
      </g>
      </g>
      </g>
  </g>
  <g transform="translate(75.2, 400.3)">
      <g transform="translate(0.58,-3.97) rotate(3.04) scale(1.000)">
        <g transform="translate(-1.87,-3.93) rotate(7.54) scale(0.980)">
        <g transform="translate(-3.86,-3.54) rotate(13.04) scale(0.960)">
        <g transform="translate(-4.91,-2.83) rotate(19.01) scale(0.940)">
        <g transform="translate(-4.76,-1.87) rotate(24.83) scale(0.920)">
        <g transform="translate(-3.44,-0.75) rotate(29.90) scale(0.900)">
        <g transform="translate(-1.28,0.45) rotate(33.60) scale(0.880)">
        <path d="M0.0,-70.4 L20.7,-28.5 L67.0,-21.8 L33.5,10.9 L41.4,57.0 L0.0,35.2 L-41.4,57.0 L-33.5,10.9 L-67.0,-21.8 L-20.7,-28.5Z" fill="url(#rgrad3)" filter="url(#blur3)" opacity="0.53"/>
      </g>
      </g>
      </g>
      </g>
      </g>
      </g>
      </g>
  </g>
  <g transform="translate(306.3, 386.1)">
      <g transform="translate(-3.86,-2.54) rotate(3.04) scale(1.000)">
        <g transform="translate(-4.91,-1.51) rotate(7.54) scale(0.980)">
        <g transform="translate(-4.76,-0.35) rotate(13.04) scale(0.960)">
        <g transform="translate(-3.44,0.84) rotate(19.01) scale(0.940)" clip-path="url(#clipDynamic)">
        <g transform="translate(-1.28,1.96) rotate(24.83) scale(0.920)">
        <g transform="translate(1.20,2.90) rotate(29.90) scale(0.900)">
        <g transform="translate(3.38,3.59) rotate(33.60) scale(0.880)">
        <rect x="-28.3" y="-28.3" width="56.6" height="56.6" rx="14.1" fill="url(#lgrad4)" filter="url(#shadow)" opacity="0.42"/>
        <circle cx="0" cy="0" r="18.9" fill="url(#rgrad0)" opacity="0.29"/>
      </g>
      </g>
      </g>
      </g>
      </g>
      </g>
      </g>
  </g>
  <g transform="translate(540.8, 369.0)">
      <g transform="translate(-4.76,1.23) rotate(3.04) scale(1.000)">
        <g transform="translate(-3.44,2.30) rotate(7.54) scale(0.980)">
        <g transform="translate(-1.28,3.16) rotate(13.04) scale(0.960)">
        <g transform="translate(1.20,3.75) rotate(19.01) scale(0.940)">
        <g transform="translate(3.38,3.99) rotate(24.83) scale(0.920)">
        <g transform="translate(4.73,3.88) rotate(29.90) scale(0.900)" mask="url(#maskStripes)">
        <g transform="translate(4.93,3.43) rotate(33.60) scale(0.880)">
        <path d="M23.8,13.8 L0.0,27.5 L-23.8,13.8 L-23.8,-13.8 L-0.0,-27.5 L23.8,-13.8Z" fill="url(#rgrad0)" filter="url(#blur0)" opacity="0.30"/>
        <ellipse cx="0" cy="0" rx="11.5" ry="7.6" fill="#FFFFFF" opacity="0.15"/>
      </g>
      </g>
      </g>
      </g>
      </g>
      </g>
      </g>
  </g>
  <g transform="translate(775.0, 357.1)">
      <g transform="translate(-1.28,3.87) rotate(3.04) scale(1.000)">
        <g transform="translate(1.20,4.00) rotate(7.54) scale(0.980)">
        <g transform="translate(3.38,3.77) rotate(13.04) scale(0.960)">
        <g transform="translate(4.73,3.20) rotate(19.01) scale(0.940)">
        <g transform="translate(4.93,2.35) rotate(24.83) scale(0.920)">
        <g transform="translate(3.92,1.29) rotate(29.90) scale(0.900)">
        <g transform="translate(1.95,0.12) rotate(33.60) scale(0.880)">
        <circle cx="0" cy="0" r="24.1" fill="url(#rgrad1)" filter="url(#shadow)" opacity="0.21"/>
        <text x="0" y="5" text-anchor="middle" font-family="Arial, sans-serif" font-size="14" fill="#FFFFFF" opacity="0.21">209</text>
      </g>
      </g>
      </g>
      </g>
      </g>
      </g>
      </g>
  </g>
  <g transform="translate(1005.6, 356.0)">
      <g transform="translate(3.38,2.95) rotate(3.04) scale(1.000)">
        <g transform="translate(4.73,2.02) rotate(7.54) scale(0.980)">
        <g transform="translate(4.93,0.91) rotate(13.04) scale(0.960)">
        <g transform="translate(3.92,-0.28) rotate(19.01) scale(0.940)" clip-path="url(#clipHex)">
        <g transform="translate(1.95,-1.45) rotate(24.83) scale(0.920)">
        <g transform="translate(-0.50,-2.49) rotate(29.90) scale(0.900)">
        <g transform="translate(-2.82,-3.30) rotate(33.60) scale(0.880)">
        <path d="M0.0,-61.3 L18.0,-24.8 L58.3,-18.9 L29.2,9.5 L36.0,49.6 L0.0,30.7 L-36.0,49.6 L-29.2,9.5 L-58.3,-18.9 L-18.0,-24.8Z" fill="url(#lgrad2)" filter="url(#blur2)" opacity="0.14"/>
      </g>
      </g>
      </g>
      </g>
      </g>
      </g>
      </g>
  </g>
  <g transform="translate(1230.0, 366.1)">
      <g transform="translate(4.93,-0.68) rotate(3.04) scale(1.000)">
        <g transform="translate(3.92,-1.82) rotate(7.54) scale(0.980)">
        <g transform="translate(1.95,-2.79) rotate(13.04) scale(0.960)">
        <g transform="translate(-0.50,-3.51) rotate(19.01) scale(0.940)">
        <g transform="translate(-2.82,-3.92) rotate(24.83) scale(0.920)">
        <g transform="translate(-4.46,-3.98) rotate(29.90) scale(0.900)" mask="url(#maskCircleFade)">
        <g transform="translate(-5.00,-3.68) rotate(33.60) scale(0.880)">
        <rect x="-36.6" y="-36.6" width="73.3" height="73.3" rx="18.3" fill="url(#rgrad3)" filter="url(#shadow)" opacity="0.11"/>
        <circle cx="0" cy="0" r="24.4" fill="url(#rgrad4)" opacity="0.07"/>
      </g>
      </g>
      </g>
      </g>
      </g>
      </g>
      </g>
  </g>
  <g transform="translate(1447.0, 382.8)">
      <g transform="translate(1.95,-3.68) rotate(3.04) scale(1.000)">
        <g transform="translate(-0.50,-3.98) rotate(7.54) scale(0.980)">
        <g transform="translate(-2.82,-3.92) rotate(13.04) scale(0.960)">
        <g transform="translate(-4.46,-3.51) rotate(19.01) scale(0.940)">
        <g transform="translate(-5.00,-2.79) rotate(24.83) scale(0.920)">
        <g transform="translate(-4.32,-1.81) rotate(29.90) scale(0.900)">
        <g transform="translate(-2.58,-0.68) rotate(33.60) scale(0.880)">
        <path d="M38.0,21.9 L0.0,43.8 L-38.0,21.9 L-38.0,-21.9 L-0.0,-43.8 L38.0,-21.9Z" fill="url(#rgrad4)" filter="url(#blur4)" opacity="0.10"/>
        <ellipse cx="0" cy="0" rx="18.3" ry="12.2" fill="#FFFFFF" opacity="0.05"/>
      </g>
      </g>
      </g>
      </g>
      </g>
      </g>
      </g>
  </g>
  <g transform="translate(1657.3, 398.2)">
      <g transform="translate(-2.82,-3.30) rotate(3.04) scale(1.000)">
        <g transform="translate(-4.46,-2.49) rotate(7.54) scale(0.980)">
        <g transform="translate(-5.00,-1.45) rotate(13.04) scale(0.960)">
        <g transform="translate(-4.32,-0.28) rotate(19.01) scale(0.940)" clip-path="url(#clipCircle)">
        <g transform="translate(-2.58,0.91) rotate(24.83) scale(0.920)">
        <g transform="translate(-0.21,2.02) rotate(29.90) scale(0.900)">
        <g transform="translate(2.21,2.95) rotate(33.60) scale(0.880)">
        <circle cx="0" cy="0" r="30.4" fill="url(#lgrad0)" filter="url(#shadow)" opacity="0.14"/>
        <text x="0" y="5" text-anchor="middle" font-family="Arial, sans-serif" font-size="14" fill="#FFFFFF" opacity="0.14">209</text>
      </g>
      </g>
      </g>
      </g>
      </g>
      </g>
      </g>
  </g>
  <g transform="translate(103.5, 685.0)">
      <g transform="translate(-5.00,0.12) rotate(3.04) scale(1.000)">
        <g transform="translate(-4.32,1.29) rotate(7.54) scale(0.980)">
        <g transform="translate(-2.58,2.35) rotate(13.04) scale(0.960)">
        <g transform="translate(-0.21,3.21) rotate(19.01) scale(0.940)">
        <g transform="translate(2.21,3.77) rotate(24.83) scale(0.920)">
        <g transform="translate(4.09,4.00) rotate(29.90) scale(0.900)" mask="url(#maskGradient)">
        <g transform="translate(4.97,3.87) rotate(33.60) scale(0.880)">
        <path d="M0.0,-47.8 L14.1,-19.3 L45.5,-14.8 L22.7,7.4 L28.1,38.7 L0.0,23.9 L-28.1,38.7 L-22.7,7.4 L-45.5,-14.8 L-14.1,-19.3Z" fill="url(#rgrad1)" filter="url(#blur1)" opacity="0.21"/>
      </g>
      </g>
      </g>
      </g>
      </g>
      </g>
      </g>
  </g>
  <g transform="translate(308.8, 680.0)">
      <g transform="translate(-2.58,3.43) rotate(3.04) scale(1.000)">
        <g transform="translate(-0.21,3.88) rotate(7.54) scale(0.980)">
        <g transform="translate(2.21,3.99) rotate(13.04) scale(0.960)">
        <g transform="translate(4.09,3.75) rotate(19.01) scale(0.940)">
        <g transform="translate(4.97,3.16) rotate(24.83) scale(0.920)">
        <g transform="translate(4.63,2.30) rotate(29.90) scale(0.900)">
        <g transform="translate(3.16,1.23) rotate(33.60) scale(0.880)">
        <rect x="-23.0" y="-23.0" width="46.0" height="46.0" rx="11.5" fill="url(#rgrad2)" filter="url(#shadow)" opacity="0.30"/>
        <circle cx="0" cy="0" r="15.3" fill="url(#rgrad3)" opacity="0.21"/>
      </g>
      </g>
      </g>
      </g>
      </g>
      </g>
      </g>
  </g>
  <g transform="translate(516.8, 665.7)">
      <g transform="translate(2.21,3.59) rotate(3.04) scale(1.000)">
        <g transform="translate(4.09,2.90) rotate(7.54) scale(0.980)">
        <g transform="translate(4.97,1.96) rotate(13.04) scale(0.960)">
        <g transform="translate(4.63,0.84) rotate(19.01) scale(0.940)" clip-path="url(#clipRect)">
        <g transform="translate(3.16,-0.35) rotate(24.83) scale(0.920)">
        <g transform="translate(0.91,-1.51) rotate(29.90) scale(0.900)">
        <g transform="translate(-1.56,-2.54) rotate(33.60) scale(0.880)">
        <path d="M29.7,17.1 L0.0,34.3 L-29.7,17.1 L-29.7,-17.1 L-0.0,-34.3 L29.7,-17.1Z" fill="url(#lgrad3)" filter="url(#blur3)" opacity="0.41"/>
        <ellipse cx="0" cy="0" rx="14.3" ry="9.5" fill="#FFFFFF" opacity="0.20"/>
      </g>
      </g>
      </g>
      </g>
      </g>
      </g>
      </g>
  </g>
  <g transform="translate(730.5, 648.7)">
      <g transform="translate(4.97,0.45) rotate(3.04) scale(1.000)">
        <g transform="translate(4.63,-0.75) rotate(7.54) scale(0.980)">
        <g transform="translate(3.16,-1.87) rotate(13.04) scale(0.960)">
        <g transform="translate(0.91,-2.84) rotate(19.01) scale(0.940)">
        <g transform="translate(-1.56,-3.54) rotate(24.83) scale(0.920)">
        <g transform="translate(-3.65,-3.93) rotate(29.90) scale(0.900)" mask="url(#maskDynamic)">
        <g transform="translate(-4.84,-3.97) rotate(33.60) scale(0.880)">
        <circle cx="0" cy="0" r="35.4" fill="url(#rgrad4)" filter="url(#shadow)" opacity="0.53"/>
        <text x="0" y="5" text-anchor="middle" font-family="Arial, sans-serif" font-size="14" fill="#FFFFFF" opacity="0.53">209</text>
      </g>
      </g>
      </g>
      </g>
      </g>
      </g>
      </g>
  </g>
  <g transform="translate(951.5, 637.0)">
      <g transform="translate(3.16,-3.10) rotate(3.04) scale(1.000)">
        <g transform="translate(0.91,-3.71) rotate(7.54) scale(0.980)">
        <g transform="translate(-1.56,-3.99) rotate(13.04) scale(0.960)">
        <g transform="translate(-3.65,-3.91) rotate(19.01) scale(0.940)">
        <g transform="translate(-4.84,-3.48) rotate(24.83) scale(0.920)">
        <g transform="translate(-4.85,-2.74) rotate(29.90) scale(0.900)">
        <g transform="translate(-3.67,-1.75) rotate(33.60) scale(0.880)">
        <path d="M0.0,-74.6 L21.9,-30.2 L70.9,-23.1 L35.5,11.5 L43.8,60.3 L0.0,37.3 L-43.8,60.3 L-35.5,11.5 L-70.9,-23.1 L-21.9,-30.2Z" fill="url(#rgrad0)" filter="url(#blur0)" opacity="0.64"/>
      </g>
      </g>
      </g>
      </g>
      </g>
      </g>
      </g>
  </g>
  <g transform="translate(1179.4, 636.1)">
      <g transform="translate(-1.56,-3.80) rotate(3.04) scale(1.000)">
        <g transform="translate(-3.65,-3.26) rotate(7.54) scale(0.980)">
        <g transform="translate(-4.84,-2.43) rotate(13.04) scale(0.960)">
        <g transform="translate(-4.85,-1.39) rotate(19.01) scale(0.940)" clip-path="url(#clipStar)">
        <g transform="translate(-3.67,-0.21) rotate(24.83) scale(0.920)">
        <g transform="translate(-1.59,0.98) rotate(29.90) scale(0.900)">
        <g transform="translate(0.87,2.08) rotate(33.60) scale(0.880)">
        <rect x="-32.5" y="-32.5" width="65.0" height="65.0" rx="16.2" fill="url(#lgrad1)" filter="url(#shadow)" opacity="0.75"/>
        <circle cx="0" cy="0" r="21.7" fill="url(#rgrad2)" opacity="0.52"/>
      </g>
      </g>
      </g>
      </g>
      </g>
      </g>
      </g>
  </g>
  <g transform="translate(1412.3, 646.5)">
      <g transform="translate(-4.84,-1.00) rotate(3.04) scale(1.000)">
        <g transform="translate(-4.85,0.18) rotate(7.54) scale(0.980)">
        <g transform="translate(-3.67,1.36) rotate(13.04) scale(0.960)">
        <g transform="translate(-1.59,2.41) rotate(19.01) scale(0.940)">
        <g transform="translate(0.87,3.24) rotate(24.83) scale(0.920)">
        <g transform="translate(3.13,3.79) rotate(29.90) scale(0.900)" mask="url(#maskStripes)">
        <g transform="translate(4.61,4.00) rotate(33.60) scale(0.880)">
        <path d="M26.4,15.2 L0.0,30.5 L-26.4,15.2 L-26.4,-15.2 L-0.0,-30.5 L26.4,-15.2Z" fill="url(#rgrad2)" filter="url(#blur2)" opacity="0.83"/>
        <ellipse cx="0" cy="0" rx="12.7" ry="8.5" fill="#FFFFFF" opacity="0.42"/>
      </g>
      </g>
      </g>
      </g>
      </g>
      </g>
      </g>
  </g>
  <g transform="translate(1647.2, 663.2)">
      <g transform="translate(-3.67,2.72) rotate(3.04) scale(1.000)">
        <g transform="translate(-1.59,3.46) rotate(7.54) scale(0.980)">
        <g transform="translate(0.87,3.90) rotate(13.04) scale(0.960)">
        <g transform="translate(3.13,3.99) rotate(19.01) scale(0.940)">
        <g transform="translate(4.61,3.72) rotate(24.83) scale(0.920)">
        <g transform="translate(4.97,3.12) rotate(29.90) scale(0.900)">
        <g transform="translate(4.11,2.24) rotate(33.60) scale(0.880)">
        <circle cx="0" cy="0" r="22.5" fill="url(#rgrad3)" filter="url(#shadow)" opacity="0.88"/>
        <text x="0" y="5" text-anchor="middle" font-family="Arial, sans-serif" font-size="14" fill="#FFFFFF" opacity="0.88">209</text>
      </g>
      </g>
      </g>
      </g>
      </g>
      </g>
      </g>
  </g>
  <g transform="translate(120.3, 958.4)">
      <g transform="translate(0.87,3.94) rotate(3.04) scale(1.000)">
        <g transform="translate(3.13,3.56) rotate(7.54) scale(0.980)">
        <g transform="translate(4.61,2.86) rotate(13.04) scale(0.960)">
        <g transform="translate(4.97,1.90) rotate(19.01) scale(0.940)" clip-path="url(#clipDynamic)">
        <g transform="translate(4.11,0.78) rotate(24.83) scale(0.920)">
        <g transform="translate(2.25,-0.42) rotate(29.90) scale(0.900)">
        <g transform="translate(-0.17,-1.57) rotate(33.60) scale(0.880)">
        <path d="M0.0,-53.1 L15.6,-21.5 L50.5,-16.4 L25.2,8.2 L31.2,43.0 L0.0,26.5 L-31.2,43.0 L-25.2,8.2 L-50.5,-16.4 L-15.6,-21.5Z" fill="url(#lgrad4)" filter="url(#blur4)" opacity="0.90"/>
      </g>
      </g>
      </g>
      </g>
      </g>
      </g>
      </g>
  </g>
  <g transform="translate(396.6, 320.8)" mask="url(#maskGradient)">
    <ellipse cx="0" cy="0" rx="200" ry="150" fill="url(#rgrad0)" filter="url(#blur3)" opacity="0.3"/>
  </g>
  <g transform="translate(874.0, 266.1)" mask="url(#maskCircleFade)">
    <ellipse cx="0" cy="0" rx="200" ry="150" fill="url(#rgrad1)" filter="url(#blur3)" opacity="0.3"/>
  </g>
  <g transform="translate(1283.4, 227.4)" mask="url(#maskStripes)">
    <ellipse cx="0" cy="0" rx="200" ry="150" fill="url(#rgrad2)" filter="url(#blur3)" opacity="0.3"/>
  </g>
</svg>