<?xml version="1.0" encoding="UTF-8"?>
<svg xmlns="http://www.w3.org/2000/svg" viewBox="0 0 1920 1080" width="1920" height="1080">
  <defs>
    <filter id="blur0" x="-50%" y="-50%" width="200%" height="200%">
      <feGaussianBlur in="SourceGraphic" stdDeviation="1"/>
    </filter>
    <filter id="blur1" x="-50%" y="-50%" width="200%" height="200%">
      <feGaussianBlur in="SourceGraphic" stdDeviation="3"/>
    </filter>
    <filter id="blur2" x="-50%" y="-50%" width="200%" height="200%">
      <feGaussianBlur in="SourceGraphic" stdDeviation="5"/>
    </filter>
    <filter id="blur3" x="-50%" y="-50%" width="200%" height="200%">
      <feGaussianBlur in="SourceGraphic" stdDeviation="7"/>
    </filter>
    <filter id="blur4" x="-50%" y="-50%" width="200%" height="200%">
      <feGaussianBlur in="SourceGraphic" stdDeviation="9"/>
    </filter>
    <filter id="shadow" x="-50%" y="-50%" width="200%" height="200%">
      <feGaussianBlur in="SourceAlpha" stdDeviation="3" result="blur"/>
      <feOffset in="blur" dx="4" dy="4" result="offsetBlur"/>
      <feMerge>
        <feMergeNode in="offsetBlur"/>
        <feMergeNode in="SourceGraphic"/>
      </feMerge>
    </filter>
    <linearGradient id="lgrad0" x1="0%" y1="0%" x2="100.0%" y2="49.6%">
      <stop offset="0%" stop-color="#FF6B6B"/>
      <stop offset="33%" stop-color="#4ECDC4"/>
      <stop offset="66%" stop-color="#45B7D1"/>
      <stop offset="100%" stop-color="#96E6A1"/>
    </linearGradient>
    <linearGradient id="lgrad1" x1="0%" y1="0%" x2="93.5%" y2="74.6%">
      <stop offset="0%" stop-color="#FFE66D"/>
      <stop offset="33%" stop-color="#FF6B6B"/>
      <stop offset="66%" stop-color="#C44D58"/>
      <stop offset="100%" stop-color="#8B0000"/>
    </linearGradient>
    <linearGradient id="lgrad2" x1="0%" y1="0%" x2="75.4%" y2="93.1%">
      <stop offset="0%" stop-color="#4169E1"/>
      <stop offset="33%" stop-color="#7B68EE"/>
      <stop offset="66%" stop-color="#9370DB"/>
      <stop offset="100%" stop-color="#FFD700"/>
    </linearGradient>
    <linearGradient id="lgrad3" x1="0%" y1="0%" x2="50.4%" y2="100.0%">
      <stop offset="0%" stop-color="#32CD32"/>
      <stop offset="33%" stop-color="#228B22"/>
      <stop offset="66%" stop-color="#006400"/>
      <stop offset="100%" stop-color="#ADFF2F"/>
    </linearGradient>
    <linearGradient id="lgrad4" x1="0%" y1="0%" x2="25.4%" y2="93.5%">
      <stop offset="0%" stop-color="#FF1493"/>
      <stop offset="33%" stop-color="#FF69B4"/>
      <stop offset="66%" stop-color="#FFB6C1"/>
      <stop offset="100%" stop-color="#FFC0CB"/>
    </linearGradient>
    <radialGradient id="rgrad0" cx="58.7%" cy="35.8%" r="60%">
      <stop offset="0%" stop-color="#FF6B6B" stop-opacity="1"/>
      <stop offset="50%" stop-color="#4ECDC4" stop-opacity="0.8"/>
      <stop offset="100%" stop-color="#45B7D1" stop-opacity="0.6"/>
    </radialGradient>
    <radialGradient id="rgrad1" cx="68.7%" cy="43.8%" r="60%">
      <stop offset="0%" stop-color="#FFE66D" stop-opacity="1"/>
      <stop offset="50%" stop-color="#FF6B6B" stop-opacity="0.8"/>
      <stop offset="100%" stop-color="#C44D58" stop-opacity="0.6"/>
    </radialGradient>
    <radialGradient id="rgrad2" cx="38.7%" cy="51.8%" r="60%">
      <stop offset="0%" stop-color="#4169E1" stop-opacity="1"/>
      <stop offset="50%" stop-color="#7B68EE" stop-opacity="0.8"/>
      <stop offset="100%" stop-color="#9370DB" stop-opacity="0.6"/>
    </radialGradient>
    <radialGradient id="rgrad3" cx="48.7%" cy="59.8%" r="60%">
      <stop offset="0%" stop-color="#32CD32" stop-opacity="1"/>
      <stop offset="50%" stop-color="#228B22" stop-opacity="0.8"/>
      <stop offset="100%" stop-color="#006400" stop-opacity="0.6"/>
    </radialGradient>
    <radialGradient id="rgrad4" cx="58.7%" cy="67.8%" r="60%">
      <stop offset="0%" stop-color="#FF1493" stop-opacity="1"/>
      <stop offset="50%" stop-color="#FF69B4" stop-opacity="0.8"/>
      <stop offset="100%" stop-color="#FFB6C1" stop-opacity="0.6"/>
    </radialGradient>
    <clipPath id="clipCircle">
      <circle cx="0" cy="0" r="50"/>
    </clipPath>
    <clipPath id="clipStar">
      <path d="M0.0,-50.0 L14.7,-20.2 L47.6,-15.5 L23.8,7.7 L29.4,40.5 L0.0,25.0 L-29.4,40.5 L-23.8,7.7 L-47.6,-15.5 L-14.7,-20.2Z"/>
    </clipPath>
    <clipPath id="clipHex">
      <path d="M39.0,22.5 L0.0,45.0 L-39.0,22.5 L-39.0,-22.5 L-0.0,-45.0 L39.0,-22.5Z"/>
    </clipPath>
    <clipPath id="clipRect">
      <rect x="-40" y="-30" width="80" height="60" rx="10"/>
    </clipPath>
    <clipPath id="clipDynamic">
      <circle cx="0" cy="0" r="24.2"/>
    </clipPath>
    <mask id="maskGradient" maskContentUnits="objectBoundingBox">
      <rect x="0" y="0" width="1" height="1" fill="url(#maskGrad)"/>
    </mask>
    <linearGradient id="maskGrad" x1="0%" y1="0%" x2="100%" y2="100%">
      <stop offset="0%" stop-color="white"/>
      <stop offset="100%" stop-color="black"/>
    </linearGradient>
    <mask id="maskCircleFade">
      <circle cx="0" cy="0" r="60" fill="white"/>
      <circle cx="0" cy="0" r="30" fill="black"/>
    </mask>
    <mask id="maskStripes">
      <rect x="-50" y="-50" width="100" height="100" fill="white"/>
      <rect x="-50" y="-40" width="100" height="10" fill="black"/>
      <rect x="-50" y="-20" width="100" height="10" fill="black"/>
      <rect x="-50" y="0" width="100" height="10" fill="black"/>
      <rect x="-50" y="20" width="100" height="10" fill="black"/>
      <rect x="-50" y="40" width="100" height="10" fill="black"/>
    </mask>
    <mask id="maskDynamic">
      <rect x="-60" y="-60" width="120" height="120" fill="white" fill-opacity="0.94"/>
      <circle cx="0" cy="0" r="25" fill="white"/>
    </mask>
  </defs>
  <rect width="1920" height="1080" fill="url(#lgrad0)"/>
  <g transform="translate(78.3, 82.7)">
      <g transform="translate(-3.62,-2.76) rotate(4.60) scale(1.000)">
        <g transform="translate(-4.83,-1.79) rotate(8.23) scale(0.980)">
        <g transform="translate(-4.86,-0.65) rotate(10.41) scale(0.960)">
        <g transform="translate(-3.70,0.55) rotate(10.74) scale(0.940)" clip-path="url(#clipCircle)">
        <g transform="translate(-1.64,1.69) rotate(8.96) scale(0.920)">
        <g transform="translate(0.83,2.69) rotate(4.98) scale(0.900)">
        <g transform="translate(3.09,3.44) rotate(-1.17) scale(0.880)">
        <path d="M0.0,-73.8 L21.7,-29.8 L70.2,-22.8 L35.1,11.4 L43.4,59.7 L0.0,36.9 L-43.4,59.7 L-35.1,11.4 L-70.2,-22.8 L-21.7,-29.8Z" fill="url(#lgrad0)" filter="url(#blur0)" opacity="0.87"/>
      </g>
      </g>
      </g>
      </g>
      </g>
      </g>
      </g>
  </g>
  <g transform="translate(291.0, 98.4)">
      <g transform="translate(-4.86,0.94) rotate(4.60) scale(1.000)">
        <g transform="translate(-3.70,2.05) rotate(8.23) scale(0.980)">
        <g transform="translate(-1.64,2.97) rotate(10.41) scale(0.960)">
        <g transform="translate(0.83,3.63) rotate(10.74) scale(0.940)">
        <g transform="translate(3.09,3.96) rotate(8.96) scale(0.920)">
        <g transform="translate(4.60,3.94) rotate(4.98) scale(0.900)" mask="url(#maskCircleFade)">
        <g transform="translate(4.98,3.57) rotate(-1.17) scale(0.880)">
        <rect x="-31.2" y="-31.2" width="62.5" height="62.5" rx="15.6" fill="url(#rgrad1)" filter="url(#shadow)" opacity="0.80"/>
        <circle cx="0" cy="0" r="20.8" fill="url(#rgrad2)" opacity="0.56"/>
      </g>
      </g>
      </g>
      </g>
      </g>
      </g>
      </g>
  </g>
  <g transform="translate(510.8, 114.9)">
      <g transform="translate(-1.64,3.78) rotate(4.60) scale(1.000)">
        <g transform="translate(0.83,4.00) rotate(8.23) scale(0.980)">
        <g transform="translate(3.09,3.86) rotate(10.41) scale(0.960)">
        <g transform="translate(4.60,3.37) rotate(10.74) scale(0.940)">
        <g transform="translate(4.98,2.59) rotate(8.96) scale(0.920)">
        <g transform="translate(4.14,1.57) rotate(4.98) scale(0.900)">
        <g transform="translate(2.29,0.42) rotate(-1.17) scale(0.880)">
        <path d="M25.4,14.7 L0.0,29.3 L-25.4,14.7 L-25.4,-14.7 L-0.0,-29.3 L25.4,-14.7Z" fill="url(#rgrad2)" filter="url(#blur2)" opacity="0.71"/>
        <ellipse cx="0" cy="0" rx="12.2" ry="8.1" fill="#FFFFFF" opacity="0.36"/>
      </g>
      </g>
      </g>
      </g>
      </g>
      </g>
      </g>
  </g>
  <g transform="translate(737.8, 124.3)">
      <g transform="translate(3.09,3.14) rotate(4.60) scale(1.000)">
        <g transform="translate(4.60,2.27) rotate(8.23) scale(0.980)">
        <g transform="translate(4.98,1.20) rotate(10.41) scale(0.960)">
        <g transform="translate(4.14,0.02) rotate(10.74) scale(0.940)" clip-path="url(#clipRect)">
        <g transform="translate(2.29,-1.17) rotate(8.96) scale(0.920)">
        <g transform="translate(-0.13,-2.24) rotate(4.98) scale(0.900)">
        <g transform="translate(-2.51,-3.12) rotate(-1.17) scale(0.880)">
        <circle cx="0" cy="0" r="22.8" fill="url(#lgrad3)" filter="url(#shadow)" opacity="0.61"/>
        <text x="0" y="5" text-anchor="middle" font-family="Arial, sans-serif" font-size="14" fill="#FFFFFF" opacity="0.61">629</text>
      </g>
      </g>
      </g>
      </g>
      </g>
      </g>
      </g>
  </g>
  <g transform="translate(970.2, 122.3)">
      <g transform="translate(4.98,-0.38) rotate(4.60) scale(1.000)">
        <g transform="translate(4.14,-1.54) rotate(8.23) scale(0.980)">
        <g transform="translate(2.29,-2.56) rotate(10.41) scale(0.960)">
        <g transform="translate(-0.13,-3.36) rotate(10.74) scale(0.940)">
        <g transform="translate(-2.51,-3.85) rotate(8.96) scale(0.920)">
        <g transform="translate(-4.27,-4.00) rotate(4.98) scale(0.900)" mask="url(#maskGradient)">
        <g transform="translate(-4.99,-3.79) rotate(-1.17) scale(0.880)">
        <path d="M0.0,-55.4 L16.3,-22.4 L52.7,-17.1 L26.4,8.6 L32.6,44.9 L0.0,27.7 L-32.6,44.9 L-26.4,8.6 L-52.7,-17.1 L-16.3,-22.4Z" fill="url(#rgrad4)" filter="url(#blur4)" opacity="0.49"/>
      </g>
      </g>
      </g>
      </g>
      </g>
      </g>
      </g>
  </g>
  <g transform="translate(1205.0, 109.8)">
      <g transform="translate(2.29,-3.56) rotate(4.60) scale(1.000)">
        <g transform="translate(-0.13,-3.94) rotate(8.23) scale(0.980)">
        <g transform="translate(-2.51,-3.97) rotate(10.41) scale(0.960)">
        <g transform="translate(-4.27,-3.64) rotate(10.74) scale(0.940)">
        <g transform="translate(-4.99,-2.99) rotate(8.96) scale(0.920)">
        <g transform="translate(-4.49,-2.08) rotate(4.98) scale(0.900)">
        <g transform="translate(-2.89,-0.97) rotate(-1.17) scale(0.880)">
        <rect x="-34.8" y="-34.8" width="69.6" height="69.6" rx="17.4" fill="url(#rgrad0)" filter="url(#shadow)" opacity="0.37"/>
        <circle cx="0" cy="0" r="23.2" fill="url(#rgrad1)" opacity="0.26"/>
      </g>
      </g>
      </g>
      </g>
      </g>
      </g>
      </g>
  </g>
  <g transform="translate(1438.5, 92.7)">
      <g transform="translate(-2.51,-3.46) rotate(4.60) scale(1.000)">
        <g transform="translate(-4.27,-2.71) rotate(8.23) scale(0.980)">
        <g transform="translate(-4.99,-1.72) rotate(10.41) scale(0.960)">
        <g transform="translate(-4.49,-0.58) rotate(10.74) scale(0.940)" clip-path="url(#clipStar)">
        <g transform="translate(-2.89,0.61) rotate(8.96) scale(0.920)">
        <g transform="translate(-0.58,1.76) rotate(4.98) scale(0.900)">
        <g transform="translate(1.87,2.74) rotate(-1.17) scale(0.880)">
        <path d="M38.9,22.5 L0.0,44.9 L-38.9,22.5 L-38.9,-22.5 L-0.0,-44.9 L38.9,-22.5Z" fill="url(#lgrad1)" filter="url(#blur1)" opacity="0.26"/>
        <ellipse cx="0" cy="0" rx="18.7" ry="12.5" fill="#FFFFFF" opacity="0.13"/>
      </g>
      </g>
      </g>
      </g>
      </g>
      </g>
      </g>
  </g>
  <g transform="translate(1667.6, 79.0)">
      <g transform="translate(-4.99,-0.18) rotate(4.60) scale(1.000)">
        <g transform="translate(-4.49,1.01) rotate(8.23) scale(0.980)">
        <g transform="translate(-2.89,2.11) rotate(10.41) scale(0.960)">
        <g transform="translate(-0.58,3.02) rotate(10.74) scale(0.940)">
        <g transform="translate(1.87,3.66) rotate(8.96) scale(0.920)">
        <g transform="translate(3.86,3.97) rotate(4.98) scale(0.900)" mask="url(#maskDynamic)">
        <g transform="translate(4.91,3.93) rotate(-1.17) scale(0.880)">
        <circle cx="0" cy="0" r="33.3" fill="url(#rgrad2)" filter="url(#shadow)" opacity="0.18"/>
        <text x="0" y="5" text-anchor="middle" font-family="Arial, sans-serif" font-size="14" fill="#FFFFFF" opacity="0.18">629</text>
      </g>
      </g>
      </g>
      </g>
      </g>
      </g>
      </g>
  </g>
  <g transform="translate(129.9, 355.2)">
      <g transform="translate(-2.89,3.26) rotate(4.60) scale(1.000)">
        <g transform="translate(-0.58,3.80) rotate(8.23) scale(0.980)">
        <g transform="translate(1.87,4.00) rotate(10.41) scale(0.960)">
        <g transform="translate(3.86,3.84) rotate(10.74) scale(0.940)">
        <g transform="translate(4.91,3.34) rotate(8.96) scale(0.920)">
        <g transform="translate(4.76,2.54) rotate(4.98) scale(0.900)">
        <g transform="translate(3.44,1.51) rotate(-1.17) scale(0.880)">
        <path d="M0.0,-52.2 L15.3,-21.1 L49.6,-16.1 L24.8,8.1 L30.7,42.2 L0.0,26.1 L-30.7,42.2 L-24.8,8.1 L-49.6,-16.1 L-15.3,-21.1Z" fill="url(#rgrad3)" filter="url(#blur3)" opacity="0.12"/>
      </g>
      </g>
      </g>
      </g>
      </g>
      </g>
      </g>
  </g>
  <g transform="translate(344.8, 363.0)">
      <g transform="translate(1.87,3.71) rotate(4.60) scale(1.000)">
        <g transform="translate(3.86,3.10) rotate(8.23) scale(0.980)">
        <g transform="translate(4.91,2.22) rotate(10.41) scale(0.960)">
        <g transform="translate(4.76,1.13) rotate(10.74) scale(0.940)" clip-path="url(#clipDynamic)">
        <g transform="translate(3.44,-0.05) rotate(8.96) scale(0.920)">
        <g transform="translate(1.28,-1.23) rotate(4.98) scale(0.900)">
        <g transform="translate(-1.20,-2.30) rotate(-1.17) scale(0.880)">
        <rect x="-22.5" y="-22.5" width="45.0" height="45.0" rx="11.3" fill="url(#lgrad4)" filter="url(#shadow)" opacity="0.10"/>
        <circle cx="0" cy="0" r="15.0" fill="url(#rgrad0)" opacity="0.07"/>
      </g>
      </g>
      </g>
      </g>
      </g>
      </g>
      </g>
  </g>
  <g transform="translate(553.7, 378.9)">
      <g transform="translate(4.91,0.75) rotate(4.60) scale(1.000)">
        <g transform="translate(4.76,-0.45) rotate(8.23) scale(0.980)">
        <g transform="translate(3.44,-1.60) rotate(10.41) scale(0.960)">
        <g transform="translate(1.28,-2.62) rotate(10.74) scale(0.940)">
        <g transform="translate(-1.20,-3.39) rotate(8.96) scale(0.920)">
        <g transform="translate(-3.38,-3.87) rotate(4.98) scale(0.900)" mask="url(#maskStripes)">
        <g transform="translate(-4.73,-4.00) rotate(-1.17) scale(0.880)">
        <path d="M26.8,15.5 L0.0,31.0 L-26.8,15.5 L-26.8,-15.5 L-0.0,-31.0 L26.8,-15.5Z" fill="url(#rgrad0)" filter="url(#blur0)" opacity="0.11"/>
        <ellipse cx="0" cy="0" rx="12.9" ry="8.6" fill="#FFFFFF" opacity="0.06"/>
      </g>
      </g>
      </g>
      </g>
      </g>
      </g>
      </g>
  </g>
  <g transform="translate(759.2, 395.2)">
      <g transform="translate(3.44,-2.90) rotate(4.60) scale(1.000)">
        <g transform="translate(1.28,-3.59) rotate(8.23) scale(0.980)">
        <g transform="translate(-1.20,-3.95) rotate(10.41) scale(0.960)">
        <g transform="translate(-3.38,-3.96) rotate(10.74) scale(0.940)">
        <g transform="translate(-4.73,-3.62) rotate(8.96) scale(0.920)">
        <g transform="translate(-4.93,-2.95) rotate(4.98) scale(0.900)">
        <g transform="translate(-3.92,-2.02) rotate(-1.17) scale(0.880)">
        <circle cx="0" cy="0" r="33.0" fill="url(#rgrad1)" filter="url(#shadow)" opacity="0.16"/>
        <text x="0" y="5" text-anchor="middle" font-family="Arial, sans-serif" font-size="14" fill="#FFFFFF" opacity="0.16">629</text>
      </g>
      </g>
      </g>
      </g>
      </g>
      </g>
      </g>
  </g>
  <g transform="translate(965.0, 404.4)">
      <g transform="translate(-1.20,-3.88) rotate(4.60) scale(1.000)">
        <g transform="translate(-3.38,-3.43) rotate(8.23) scale(0.980)">
        <g transform="translate(-4.73,-2.66) rotate(10.41) scale(0.960)">
        <g transform="translate(-4.93,-1.66) rotate(10.74) scale(0.940)" clip-path="url(#clipHex)">
        <g transform="translate(-3.92,-0.51) rotate(8.96) scale(0.920)">
        <g transform="translate(-1.95,0.68) rotate(4.98) scale(0.900)">
        <g transform="translate(0.50,1.82) rotate(-1.17) scale(0.880)">
        <path d="M0.0,-74.8 L22.0,-30.3 L71.1,-23.1 L35.6,11.6 L44.0,60.5 L0.0,37.4 L-44.0,60.5 L-35.6,11.6 L-71.1,-23.1 L-22.0,-30.3Z" fill="url(#lgrad2)" filter="url(#blur2)" opacity="0.24"/>
      </g>
      </g>
      </g>
      </g>
      </g>
      </g>
      </g>
  </g>
  <g transform="translate(1174.4, 402.1)">
      <g transform="translate(-4.73,-1.29) rotate(4.60) scale(1.000)">
        <g transform="translate(-4.93,-0.12) rotate(8.23) scale(0.980)">
        <g transform="translate(-3.92,1.07) rotate(10.41) scale(0.960)">
        <g transform="translate(-1.95,2.16) rotate(10.74) scale(0.940)">
        <g transform="translate(0.50,3.06) rotate(8.96) scale(0.920)">
        <g transform="translate(2.82,3.68) rotate(4.98) scale(0.900)" mask="url(#maskCircleFade)">
        <g transform="translate(4.46,3.98) rotate(-1.17) scale(0.880)">
        <rect x="-35.0" y="-35.0" width="70.0" height="70.0" rx="17.5" fill="url(#rgrad3)" filter="url(#shadow)" opacity="0.34"/>
        <circle cx="0" cy="0" r="23.3" fill="url(#rgrad4)" opacity="0.24"/>
      </g>
      </g>
      </g>
      </g>
      </g>
      </g>
      </g>
  </g>
  <g transform="translate(1390.0, 389.4)">
      <g transform="translate(-3.92,2.49) rotate(4.60) scale(1.000)">
        <g transform="translate(-1.95,3.30) rotate(8.23) scale(0.980)">
        <g transform="translate(0.50,3.82) rotate(10.41) scale(0.960)">
        <g transform="translate(2.82,4.00) rotate(10.74) scale(0.940)">
        <g transform="translate(4.46,3.82) rotate(8.96) scale(0.920)">
        <g transform="translate(5.00,3.30) rotate(4.98) scale(0.900)">
        <g transform="translate(4.32,2.49) rotate(-1.17) scale(0.880)">
        <path d="M29.1,16.8 L0.0,33.6 L-29.1,16.8 L-29.1,-16.8 L-0.0,-33.6 L29.1,-16.8Z" fill="url(#rgrad4)" filter="url(#blur4)" opacity="0.46"/>
        <ellipse cx="0" cy="0" rx="14.0" ry="9.3" fill="#FFFFFF" opacity="0.23"/>
      </g>
      </g>
      </g>
      </g>
      </g>
      </g>
      </g>
  </g>
  <g transform="translate(1613.0, 372.3)">
      <g transform="translate(0.50,3.98) rotate(4.60) scale(1.000)">
        <g transform="translate(2.82,3.68) rotate(8.23) scale(0.980)">
        <g transform="translate(4.46,3.06) rotate(10.41) scale(0.960)">
        <g transform="translate(5.00,2.16) rotate(10.74) scale(0.940)" clip-path="url(#clipCircle)">
        <g transform="translate(4.32,1.07) rotate(8.96) scale(0.920)">
        <g transform="translate(2.58,-0.12) rotate(4.98) scale(0.900)">
        <g transform="translate(0.21,-1.29) rotate(-1.17) scale(0.880)">
        <circle cx="0" cy="0" r="22.8" fill="url(#lgrad0)" filter="url(#shadow)" opacity="0.58"/>
        <text x="0" y="5" text-anchor="middle" font-family="Arial, sans-serif" font-size="14" fill="#FFFFFF" opacity="0.58">629</text>
      </g>
      </g>
      </g>
      </g>
      </g>
      </g>
      </g>
  </g>
  <g transform="translate(82.7, 638.8)">
      <g transform="translate(4.46,1.81) rotate(4.60) scale(1.000)">
        <g transform="translate(5.00,0.68) rotate(8.23) scale(0.980)">
        <g transform="translate(4.32,-0.52) rotate(10.41) scale(0.960)">
        <g transform="translate(2.58,-1.67) rotate(10.74) scale(0.940)">
        <g transform="translate(0.21,-2.67) rotate(8.96) scale(0.920)">
        <g transform="translate(-2.21,-3.43) rotate(4.98) scale(0.900)" mask="url(#maskGradient)">
        <g transform="translate(-4.09,-3.88) rotate(-1.17) scale(0.880)">
        <path d="M0.0,-48.5 L14.3,-19.6 L46.1,-15.0 L23.1,7.5 L28.5,39.2 L0.0,24.2 L-28.5,39.2 L-23.1,7.5 L-46.1,-15.0 L-14.3,-19.6Z" fill="url(#rgrad1)" filter="url(#blur1)" opacity="0.69"/>
      </g>
      </g>
      </g>
      </g>
      </g>
      </g>
      </g>
  </g>
  <g transform="translate(316.5, 635.3)">
      <g transform="translate(4.32,-2.02) rotate(4.60) scale(1.000)">
        <g transform="translate(2.58,-2.95) rotate(8.23) scale(0.980)">
        <g transform="translate(0.21,-3.62) rotate(10.41) scale(0.960)">
        <g transform="translate(-2.21,-3.96) rotate(10.74) scale(0.940)">
        <g transform="translate(-4.09,-3.95) rotate(8.96) scale(0.920)">
        <g transform="translate(-4.97,-3.59) rotate(4.98) scale(0.900)">
        <g transform="translate(-4.63,-2.90) rotate(-1.17) scale(0.880)">
        <rect x="-30.9" y="-30.9" width="61.9" height="61.9" rx="15.5" fill="url(#rgrad2)" filter="url(#shadow)" opacity="0.78"/>
        <circle cx="0" cy="0" r="20.6" fill="url(#rgrad3)" opacity="0.55"/>
      </g>
      </g>
      </g>
      </g>
      </g>
      </g>
      </g>
  </g>
  <g transform="translate(551.2, 643.3)">
      <g transform="translate(0.21,-4.00) rotate(4.60) scale(1.000)">
        <g transform="translate(-2.21,-3.87) rotate(8.23) scale(0.980)">
        <g transform="translate(-4.09,-3.39) rotate(10.41) scale(0.960)">
        <g transform="translate(-4.97,-2.61) rotate(10.74) scale(0.940)" clip-path="url(#clipRect)">
        <g transform="translate(-4.63,-1.60) rotate(8.96) scale(0.920)">
        <g transform="translate(-3.16,-0.45) rotate(4.98) scale(0.900)">
        <g transform="translate(-0.91,0.75) rotate(-1.17) scale(0.880)">
        <path d="M38.2,22.1 L0.0,44.1 L-38.2,22.1 L-38.2,-22.1 L-0.0,-44.1 L38.2,-22.1Z" fill="url(#lgrad3)" filter="url(#blur3)" opacity="0.85"/>
        <ellipse cx="0" cy="0" rx="18.4" ry="12.3" fill="#FFFFFF" opacity="0.43"/>
      </g>
      </g>
      </g>
      </g>
      </g>
      </g>
      </g>
  </g>
  <g transform="translate(783.2, 659.3)">
      <g transform="translate(-4.09,-2.30) rotate(4.60) scale(1.000)">
        <g transform="translate(-4.97,-1.23) rotate(8.23) scale(0.980)">
        <g transform="translate(-4.63,-0.05) rotate(10.41) scale(0.960)">
        <g transform="translate(-3.16,1.14) rotate(10.74) scale(0.940)">
        <g transform="translate(-0.91,2.22) rotate(8.96) scale(0.920)">
        <g transform="translate(1.56,3.10) rotate(4.98) scale(0.900)" mask="url(#maskDynamic)">
        <g transform="translate(3.65,3.71) rotate(-1.17) scale(0.880)">
        <circle cx="0" cy="0" r="36.4" fill="url(#rgrad4)" filter="url(#shadow)" opacity="0.89"/>
        <text x="0" y="5" text-anchor="middle" font-family="Arial, sans-serif" font-size="14" fill="#FFFFFF" opacity="0.89">629</text>
      </g>
      </g>
      </g>
      </g>
      </g>
      </g>
      </g>
  </g>
  <g transform="translate(1009.5, 675.5)">
      <g transform="translate(-4.63,1.51) rotate(4.60) scale(1.000)">
        <g transform="translate(-3.16,2.54) rotate(8.23) scale(0.980)">
        <g transform="translate(-0.91,3.34) rotate(10.41) scale(0.960)">
        <g transform="translate(1.56,3.84) rotate(10.74) scale(0.940)">
        <g transform="translate(3.65,4.00) rotate(8.96) scale(0.920)">
        <g transform="translate(4.84,3.80) rotate(4.98) scale(0.900)">
        <g transform="translate(4.85,3.26) rotate(-1.17) scale(0.880)">
        <path d="M0.0,-60.2 L17.7,-24.4 L57.3,-18.6 L28.6,9.3 L35.4,48.7 L0.0,30.1 L-35.4,48.7 L-28.6,9.3 L-57.3,-18.6 L-17.7,-24.4Z" fill="url(#rgrad0)" filter="url(#blur0)" opacity="0.90"/>
      </g>
      </g>
      </g>
      </g>
      </g>
      </g>
      </g>
  </g>
  <g transform="translate(1228.5, 684.5)">
      <g transform="translate(-0.91,3.93) rotate(4.60) scale(1.000)">
        <g transform="translate(1.56,3.97) rotate(8.23) scale(0.980)">
        <g transform="translate(3.65,3.66) rotate(10.41) scale(0.960)">
        <g transform="translate(4.84,3.01) rotate(10.74) scale(0.940)" clip-path="url(#clipStar)">
        <g transform="translate(4.85,2.10) rotate(8.96) scale(0.920)">
        <g transform="translate(3.67,1.00) rotate(4.98) scale(0.900)">
        <g transform="translate(1.59,-0.18) rotate(-1.17) scale(0.880)">
        <rect x="-23.8" y="-23.8" width="47.5" height="47.5" rx="11.9" fill="url(#lgrad1)" filter="url(#shadow)" opacity="0.87"/>
        <circle cx="0" cy="0" r="15.8" fill="url(#rgrad2)" opacity="0.61"/>
      </g>
      </g>
      </g>
      </g>
      </g>
      </g>
      </g>
  </g>
  <g transform="translate(1440.6, 681.9)">
      <g transform="translate(3.65,2.74) rotate(4.60) scale(1.000)">
        <g transform="translate(4.84,1.75) rotate(8.23) scale(0.980)">
        <g transform="translate(4.85,0.61) rotate(10.41) scale(0.960)">
        <g transform="translate(3.67,-0.58) rotate(10.74) scale(0.940)">
        <g transform="translate(1.59,-1.73) rotate(8.96) scale(0.920)">
        <g transform="translate(-0.87,-2.72) rotate(4.98) scale(0.900)" mask="url(#maskStripes)">
        <g transform="translate(-3.13,-3.46) rotate(-1.17) scale(0.880)">
        <path d="M24.0,13.9 L0.0,27.8 L-24.0,13.9 L-24.0,-13.9 L-0.0,-27.8 L24.0,-13.9Z" fill="url(#rgrad2)" filter="url(#blur2)" opacity="0.80"/>
        <ellipse cx="0" cy="0" rx="11.6" ry="7.7" fill="#FFFFFF" opacity="0.40"/>
      </g>
      </g>
      </g>
      </g>
      </g>
      </g>
      </g>
  </g>
  <g transform="translate(1647.7, 669.1)">
      <g transform="translate(4.85,-0.98) rotate(4.60) scale(1.000)">
        <g transform="translate(3.67,-2.08) rotate(8.23) scale(0.980)">
        <g transform="translate(1.59,-3.00) rotate(10.41) scale(0.960)">
        <g transform="translate(-0.87,-3.64) rotate(10.74) scale(0.940)">
        <g transform="translate(-3.13,-3.97) rotate(8.96) scale(0.920)">
        <g transform="translate(-4.61,-3.94) rotate(4.98) scale(0.900)">
        <g transform="translate(-4.97,-3.56) rotate(-1.17) scale(0.880)">
        <circle cx="0" cy="0" r="28.8" fill="url(#rgrad3)" filter="url(#shadow)" opacity="0.71"/>
        <text x="0" y="5" text-anchor="middle" font-family="Arial, sans-serif" font-size="14" fill="#FFFFFF" opacity="0.71">629</text>
      </g>
      </g>
      </g>
      </g>
      </g>
      </g>
      </g>
  </g>
  <g transform="translate(92.8, 931.9)">
      <g transform="translate(1.59,-3.79) rotate(4.60) scale(1.000)">
        <g transform="translate(-0.87,-4.00) rotate(8.23) scale(0.980)">
        <g transform="translate(-3.13,-3.85) rotate(10.41) scale(0.960)">
        <g transform="translate(-4.61,-3.36) rotate(10.74) scale(0.940)" clip-path="url(#clipDynamic)">
        <g transform="translate(-4.97,-2.56) rotate(8.96) scale(0.920)">
        <g transform="translate(-4.11,-1.54) rotate(4.98) scale(0.900)">
        <g transform="translate(-2.25,-0.38) rotate(-1.17) scale(0.880)">
        <path d="M0.0,-71.2 L20.9,-28.8 L67.7,-22.0 L33.9,11.0 L41.8,57.6 L0.0,35.6 L-41.8,57.6 L-33.9,11.0 L-67.7,-22.0 L-20.9,-28.8Z" fill="url(#lgrad4)" filter="url(#blur4)" opacity="0.60"/>
      </g>
      </g>
      </g>
      </g>
      </g>
      </g>
      </g>
  </g>
  <g transform="translate(227.7, 244.7)" mask="url(#maskGradient)">
    <ellipse cx="0" cy="0" rx="200" ry="150" fill="url(#rgrad0)" filter="url(#blur3)" opacity="0.3"/>
  </g>
  <g transform="translate(702.8, 295.0)" mask="url(#maskCircleFade)">
    <ellipse cx="0" cy="0" rx="200" ry="150" fill="url(#rgrad1)" filter="url(#blur3)" opacity="0.3"/>
  </g>
  <g transform="translate(1267.3, 347.6)" mask="url(#maskStripes)">
    <ellipse cx="0" cy="0" rx="200" ry="150" fill="url(#rgrad2)" filter="url(#blur3)" opacity="0.3"/>
  </g>
</svg>