<?xml version="1.0" encoding="UTF-8"?>
<svg xmlns="http://www.w3.org/2000/svg" viewBox="0 0 1920 1080" width="1920" height="1080">
  <defs>
    <filter id="blur0" x="-50%" y="-50%" width="200%" height="200%">
      <feGaussianBlur in="SourceGraphic" stdDeviation="1"/>
    </filter>
    <filter id="blur1" x="-50%" y="-50%" width="200%" height="200%">
      <feGaussianBlur in="SourceGraphic" stdDeviation="3"/>
    </filter>
    <filter id="blur2" x="-50%" y="-50%" width="200%" height="200%">
      <feGaussianBlur in="SourceGraphic" stdDeviation="5"/>
    </filter>
    <filter id="blur3" x="-50%" y="-50%" width="200%" height="200%">
      <feGaussianBlur in="SourceGraphic" stdDeviation="7"/>
    </filter>
    <filter id="blur4" x="-50%" y="-50%" width="200%" height="200%">
      <feGaussianBlur in="SourceGraphic" stdDeviation="9"/>
    </filter>
    <filter id="shadow" x="-50%" y="-50%" width="200%" height="200%">
      <feGaussianBlur in="SourceAlpha" stdDeviation="3" result="blur"/>
      <feOffset in="blur" dx="4" dy="4" result="offsetBlur"/>
      <feMerge>
        <feMergeNode in="offsetBlur"/>
        <feMergeNode in="SourceGraphic"/>
      </feMerge>
    </filter>
    <linearGradient id="lgrad0" x1="0%" y1="0%" x2="37.9%" y2="98.5%">
      <stop offset="0%" stop-color="#FF6B6B"/>
      <stop offset="33%" stop-color="#4ECDC4"/>
      <stop offset="66%" stop-color="#45B7D1"/>
      <stop offset="100%" stop-color="#96E6A1"/>
    </linearGradient>
    <linearGradient id="lgrad1" x1="0%" y1="0%" x2="15.3%" y2="86.0%">
      <stop offset="0%" stop-color="#FFE66D"/>
      <stop offset="33%" stop-color="#FF6B6B"/>
      <stop offset="66%" stop-color="#C44D58"/>
      <stop offset="100%" stop-color="#8B0000"/>
    </linearGradient>
    <linearGradient id="lgrad2" x1="0%" y1="0%" x2="1.9%" y2="63.8%">
      <stop offset="0%" stop-color="#4169E1"/>
      <stop offset="33%" stop-color="#7B68EE"/>
      <stop offset="66%" stop-color="#9370DB"/>
      <stop offset="100%" stop-color="#FFD700"/>
    </linearGradient>
    <linearGradient id="lgrad3" x1="0%" y1="0%" x2="1.5%" y2="37.9%">
      <stop offset="0%" stop-color="#32CD32"/>
      <stop offset="33%" stop-color="#228B22"/>
      <stop offset="66%" stop-color="#006400"/>
      <stop offset="100%" stop-color="#ADFF2F"/>
    </linearGradient>
    <linearGradient id="lgrad4" x1="0%" y1="0%" x2="14.0%" y2="15.3%">
      <stop offset="0%" stop-color="#FF1493"/>
      <stop offset="33%" stop-color="#FF69B4"/>
      <stop offset="66%" stop-color="#FFB6C1"/>
      <stop offset="100%" stop-color="#FFC0CB"/>
    </linearGradient>
    <radialGradient id="rgrad0" cx="41.4%" cy="37.6%" r="60%">
      <stop offset="0%" stop-color="#FF6B6B" stop-opacity="1"/>
      <stop offset="50%" stop-color="#4ECDC4" stop-opacity="0.8"/>
      <stop offset="100%" stop-color="#45B7D1" stop-opacity="0.6"/>
    </radialGradient>
    <radialGradient id="rgrad1" cx="51.4%" cy="45.6%" r="60%">
      <stop offset="0%" stop-color="#FFE66D" stop-opacity="1"/>
      <stop offset="50%" stop-color="#FF6B6B" stop-opacity="0.8"/>
      <stop offset="100%" stop-color="#C44D58" stop-opacity="0.6"/>
    </radialGradient>
    <radialGradient id="rgrad2" cx="61.4%" cy="53.6%" r="60%">
      <stop offset="0%" stop-color="#4169E1" stop-opacity="1"/>
      <stop offset="50%" stop-color="#7B68EE" stop-opacity="0.8"/>
      <stop offset="100%" stop-color="#9370DB" stop-opacity="0.6"/>
    </radialGradient>
    <radialGradient id="rgrad3" cx="31.4%" cy="61.6%" r="60%">
      <stop offset="0%" stop-color="#32CD32" stop-opacity="1"/>
      <stop offset="50%" stop-color="#228B22" stop-opacity="0.8"/>
      <stop offset="100%" stop-color="#006400" stop-opacity="0.6"/>
    </radialGradient>
    <radialGradient id="rgrad4" cx="41.4%" cy="69.6%" r="60%">
      <stop offset="0%" stop-color="#FF1493" stop-opacity="1"/>
      <stop offset="50%" stop-color="#FF69B4" stop-opacity="0.8"/>
      <stop offset="100%" stop-color="#FFB6C1" stop-opacity="0.6"/>
    </radialGradient>
    <clipPath id="clipCircle">
      <circle cx="0" cy="0" r="50"/>
    </clipPath>
    <clipPath id="clipStar">
      <path d="M0.0,-50.0 L14.7,-20.2 L47.6,-15.5 L23.8,7.7 L29.4,40.5 L0.0,25.0 L-29.4,40.5 L-23.8,7.7 L-47.6,-15.5 L-14.7,-20.2Z"/>
    </clipPath>
    <clipPath id="clipHex">
      <path d="M39.0,22.5 L0.0,45.0 L-39.0,22.5 L-39.0,-22.5 L-0.0,-45.0 L39.0,-22.5Z"/>
    </clipPath>
    <clipPath id="clipRect">
      <rect x="-40" y="-30" width="80" height="60" rx="10"/>
    </clipPath>
    <clipPath id="clipDynamic">
      <circle cx="0" cy="0" r="22.2"/>
    </clipPath>
    <mask id="maskGradient" maskContentUnits="objectBoundingBox">
      <rect x="0" y="0" width="1" height="1" fill="url(#maskGrad)"/>
    </mask>
    <linearGradient id="maskGrad" x1="0%" y1="0%" x2="100%" y2="100%">
      <stop offset="0%" stop-color="white"/>
      <stop offset="100%" stop-color="black"/>
    </linearGradient>
    <mask id="maskCircleFade">
      <circle cx="0" cy="0" r="60" fill="white"/>
      <circle cx="0" cy="0" r="30" fill="black"/>
    </mask>
    <mask id="maskStripes">
      <rect x="-50" y="-50" width="100" height="100" fill="white"/>
      <rect x="-50" y="-40" width="100" height="10" fill="black"/>
      <rect x="-50" y="-20" width="100" height="10" fill="black"/>
      <rect x="-50" y="0" width="100" height="10" fill="black"/>
      <rect x="-50" y="20" width="100" height="10" fill="black"/>
      <rect x="-50" y="40" width="100" height="10" fill="black"/>
    </mask>
    <mask id="maskDynamic">
      <rect x="-60" y="-60" width="120" height="120" fill="white" fill-opacity="0.64"/>
      <circle cx="0" cy="0" r="25" fill="white"/>
    </mask>
  </defs>
  <rect width="1920" height="1080" fill="url(#lgrad0)"/>
  <g transform="translate(74.5, 113.1)">
      <g transform="translate(-4.26,2.10) rotate(2.44) scale(1.000)">
        <g transform="translate(-2.48,3.01) rotate(3.05) scale(0.980)">
        <g transform="translate(-0.09,3.65) rotate(1.64) scale(0.960)">
        <g transform="translate(2.31,3.97) rotate(-1.81) scale(0.940)" clip-path="url(#clipCircle)">
        <g transform="translate(4.16,3.93) rotate(-7.16) scale(0.920)">
        <g transform="translate(4.98,3.55) rotate(-14.13) scale(0.900)">
        <g transform="translate(4.58,2.84) rotate(-22.29) scale(0.880)">
        <path d="M0.0,-67.3 L19.8,-27.2 L64.0,-20.8 L32.0,10.4 L39.6,54.5 L0.0,33.7 L-39.6,54.5 L-32.0,10.4 L-64.0,-20.8 L-19.8,-27.2Z" fill="url(#lgrad0)" filter="url(#blur0)" opacity="0.70"/>
      </g>
      </g>
      </g>
      </g>
      </g>
      </g>
      </g>
  </g>
  <g transform="translate(305.1, 123.7)">
      <g transform="translate(-0.09,4.00) rotate(2.44) scale(1.000)">
        <g transform="translate(2.31,3.84) rotate(3.05) scale(0.980)">
        <g transform="translate(4.16,3.34) rotate(1.64) scale(0.960)">
        <g transform="translate(4.98,2.55) rotate(-1.81) scale(0.940)">
        <g transform="translate(4.58,1.52) rotate(-7.16) scale(0.920)">
        <g transform="translate(3.07,0.36) rotate(-14.13) scale(0.900)" mask="url(#maskCircleFade)">
        <g transform="translate(0.80,-0.84) rotate(-22.29) scale(0.880)">
        <rect x="-26.5" y="-26.5" width="52.9" height="52.9" rx="13.2" fill="url(#rgrad1)" filter="url(#shadow)" opacity="0.58"/>
        <circle cx="0" cy="0" r="17.6" fill="url(#rgrad2)" opacity="0.41"/>
      </g>
      </g>
      </g>
      </g>
      </g>
      </g>
      </g>
  </g>
  <g transform="translate(539.4, 123.2)">
      <g transform="translate(4.16,2.22) rotate(2.44) scale(1.000)">
        <g transform="translate(4.98,1.14) rotate(3.05) scale(0.980)">
        <g transform="translate(4.58,-0.04) rotate(1.64) scale(0.960)">
        <g transform="translate(3.07,-1.22) rotate(-1.81) scale(0.940)">
        <g transform="translate(0.80,-2.29) rotate(-7.16) scale(0.920)">
        <g transform="translate(-1.67,-3.16) rotate(-14.13) scale(0.900)">
        <g transform="translate(-3.72,-3.74) rotate(-22.29) scale(0.880)">
        <path d="M23.4,13.5 L0.0,27.0 L-23.4,13.5 L-23.4,-13.5 L-0.0,-27.0 L23.4,-13.5Z" fill="url(#rgrad2)" filter="url(#blur2)" opacity="0.46"/>
        <ellipse cx="0" cy="0" rx="11.3" ry="7.5" fill="#FFFFFF" opacity="0.23"/>
      </g>
      </g>
      </g>
      </g>
      </g>
      </g>
      </g>
  </g>
  <g transform="translate(773.9, 111.8)">
      <g transform="translate(4.58,-1.60) rotate(2.44) scale(1.000)">
        <g transform="translate(3.07,-2.61) rotate(3.05) scale(0.980)">
        <g transform="translate(0.80,-3.39) rotate(1.64) scale(0.960)">
        <g transform="translate(-1.67,-3.87) rotate(-1.81) scale(0.940)" clip-path="url(#clipRect)">
        <g transform="translate(-3.72,-4.00) rotate(-7.16) scale(0.920)">
        <g transform="translate(-4.87,-3.77) rotate(-14.13) scale(0.900)">
        <g transform="translate(-4.82,-3.21) rotate(-22.29) scale(0.880)">
        <circle cx="0" cy="0" r="25.5" fill="url(#lgrad3)" filter="url(#shadow)" opacity="0.35"/>
        <text x="0" y="5" text-anchor="middle" font-family="Arial, sans-serif" font-size="14" fill="#FFFFFF" opacity="0.35">838</text>
      </g>
      </g>
      </g>
      </g>
      </g>
      </g>
      </g>
  </g>
  <g transform="translate(1004.9, 94.8)">
      <g transform="translate(0.80,-3.95) rotate(2.44) scale(1.000)">
        <g transform="translate(-1.67,-3.96) rotate(3.05) scale(0.980)">
        <g transform="translate(-3.72,-3.62) rotate(1.64) scale(0.960)">
        <g transform="translate(-4.87,-2.96) rotate(-1.81) scale(0.940)">
        <g transform="translate(-4.82,-2.03) rotate(-7.16) scale(0.920)">
        <g transform="translate(-3.59,-0.92) rotate(-14.13) scale(0.900)" mask="url(#maskGradient)">
        <g transform="translate(-1.49,0.27) rotate(-22.29) scale(0.880)">
        <path d="M0.0,-65.1 L19.1,-26.3 L61.9,-20.1 L31.0,10.1 L38.3,52.7 L0.0,32.6 L-38.3,52.7 L-31.0,10.1 L-61.9,-20.1 L-19.1,-26.3Z" fill="url(#rgrad4)" filter="url(#blur4)" opacity="0.25"/>
      </g>
      </g>
      </g>
      </g>
      </g>
      </g>
      </g>
  </g>
  <g transform="translate(1229.9, 80.3)">
      <g transform="translate(-3.72,-2.67) rotate(2.44) scale(1.000)">
        <g transform="translate(-4.87,-1.67) rotate(3.05) scale(0.980)">
        <g transform="translate(-4.82,-0.52) rotate(1.64) scale(0.960)">
        <g transform="translate(-3.59,0.67) rotate(-1.81) scale(0.940)">
        <g transform="translate(-1.49,1.81) rotate(-7.16) scale(0.920)">
        <g transform="translate(0.98,2.78) rotate(-14.13) scale(0.900)">
        <g transform="translate(3.21,3.51) rotate(-22.29) scale(0.880)">
        <rect x="-37.3" y="-37.3" width="74.6" height="74.6" rx="18.7" fill="url(#rgrad0)" filter="url(#shadow)" opacity="0.17"/>
        <circle cx="0" cy="0" r="24.9" fill="url(#rgrad1)" opacity="0.12"/>
      </g>
      </g>
      </g>
      </g>
      </g>
      </g>
      </g>
  </g>
  <g transform="translate(1447.5, 75.0)">
      <g transform="translate(-4.82,1.06) rotate(2.44) scale(1.000)">
        <g transform="translate(-3.59,2.15) rotate(3.05) scale(0.980)">
        <g transform="translate(-1.49,3.05) rotate(1.64) scale(0.960)">
        <g transform="translate(0.98,3.68) rotate(-1.81) scale(0.940)" clip-path="url(#clipStar)">
        <g transform="translate(3.21,3.98) rotate(-7.16) scale(0.920)">
        <g transform="translate(4.66,3.92) rotate(-14.13) scale(0.900)">
        <g transform="translate(4.96,3.51) rotate(-22.29) scale(0.880)">
        <path d="M36.7,21.2 L0.0,42.4 L-36.7,21.2 L-36.7,-21.2 L-0.0,-42.4 L36.7,-21.2Z" fill="url(#lgrad1)" filter="url(#blur1)" opacity="0.12"/>
        <ellipse cx="0" cy="0" rx="17.7" ry="11.8" fill="#FFFFFF" opacity="0.06"/>
      </g>
      </g>
      </g>
      </g>
      </g>
      </g>
      </g>
  </g>
  <g transform="translate(1658.4, 81.5)">
      <g transform="translate(-1.49,3.82) rotate(2.44) scale(1.000)">
        <g transform="translate(0.98,4.00) rotate(3.05) scale(0.980)">
        <g transform="translate(3.21,3.82) rotate(1.64) scale(0.960)">
        <g transform="translate(4.66,3.31) rotate(-1.81) scale(0.940)">
        <g transform="translate(4.96,2.49) rotate(-7.16) scale(0.920)">
        <g transform="translate(4.05,1.46) rotate(-14.13) scale(0.900)" mask="url(#maskDynamic)">
        <g transform="translate(2.15,0.29) rotate(-22.29) scale(0.880)">
        <circle cx="0" cy="0" r="28.5" fill="url(#rgrad2)" filter="url(#shadow)" opacity="0.10"/>
        <text x="0" y="5" text-anchor="middle" font-family="Arial, sans-serif" font-size="14" fill="#FFFFFF" opacity="0.10">838</text>
      </g>
      </g>
      </g>
      </g>
      </g>
      </g>
      </g>
  </g>
  <g transform="translate(104.8, 376.7)">
      <g transform="translate(3.21,3.06) rotate(2.44) scale(1.000)">
        <g transform="translate(4.66,2.17) rotate(3.05) scale(0.980)">
        <g transform="translate(4.96,1.08) rotate(1.64) scale(0.960)">
        <g transform="translate(4.05,-0.11) rotate(-1.81) scale(0.940)">
        <g transform="translate(2.15,-1.29) rotate(-7.16) scale(0.920)">
        <g transform="translate(-0.28,-2.35) rotate(-14.13) scale(0.900)">
        <g transform="translate(-2.64,-3.20) rotate(-22.29) scale(0.880)">
        <path d="M0.0,-46.0 L13.5,-18.6 L43.7,-14.2 L21.9,7.1 L27.0,37.2 L0.0,23.0 L-27.0,37.2 L-21.9,7.1 L-43.7,-14.2 L-13.5,-18.6Z" fill="url(#rgrad3)" filter="url(#blur3)" opacity="0.12"/>
      </g>
      </g>
      </g>
      </g>
      </g>
      </g>
      </g>
  </g>
  <g transform="translate(310.0, 393.5)">
      <g transform="translate(4.96,-0.51) rotate(2.44) scale(1.000)">
        <g transform="translate(4.05,-1.66) rotate(3.05) scale(0.980)">
        <g transform="translate(2.15,-2.66) rotate(1.64) scale(0.960)">
        <g transform="translate(-0.28,-3.42) rotate(-1.81) scale(0.940)" clip-path="url(#clipDynamic)">
        <g transform="translate(-2.64,-3.88) rotate(-7.16) scale(0.920)">
        <g transform="translate(-4.35,-3.99) rotate(-14.13) scale(0.900)">
        <g transform="translate(-5.00,-3.75) rotate(-22.29) scale(0.880)">
        <rect x="-24.0" y="-24.0" width="47.9" height="47.9" rx="12.0" fill="url(#lgrad4)" filter="url(#shadow)" opacity="0.17"/>
        <circle cx="0" cy="0" r="16.0" fill="url(#rgrad0)" opacity="0.12"/>
      </g>
      </g>
      </g>
      </g>
      </g>
      </g>
      </g>
  </g>
  <g transform="translate(517.7, 403.9)">
      <g transform="translate(2.15,-3.61) rotate(2.44) scale(1.000)">
        <g transform="translate(-0.28,-3.96) rotate(3.05) scale(0.980)">
        <g transform="translate(-2.64,-3.95) rotate(1.64) scale(0.960)">
        <g transform="translate(-4.35,-3.59) rotate(-1.81) scale(0.940)">
        <g transform="translate(-5.00,-2.91) rotate(-7.16) scale(0.920)">
        <g transform="translate(-4.42,-1.97) rotate(-14.13) scale(0.900)" mask="url(#maskStripes)">
        <g transform="translate(-2.76,-0.85) rotate(-22.29) scale(0.880)">
        <path d="M31.7,18.3 L0.0,36.6 L-31.7,18.3 L-31.7,-18.3 L-0.0,-36.6 L31.7,-18.3Z" fill="url(#rgrad0)" filter="url(#blur0)" opacity="0.26"/>
        <ellipse cx="0" cy="0" rx="15.2" ry="10.2" fill="#FFFFFF" opacity="0.13"/>
      </g>
      </g>
      </g>
      </g>
      </g>
      </g>
      </g>
  </g>
  <g transform="translate(730.8, 403.0)">
      <g transform="translate(-2.64,-3.40) rotate(2.44) scale(1.000)">
        <g transform="translate(-4.35,-2.62) rotate(3.05) scale(0.980)">
        <g transform="translate(-5.00,-1.61) rotate(1.64) scale(0.960)">
        <g transform="translate(-4.42,-0.46) rotate(-1.81) scale(0.940)">
        <g transform="translate(-2.76,0.74) rotate(-7.16) scale(0.920)">
        <g transform="translate(-0.43,1.87) rotate(-14.13) scale(0.900)">
        <g transform="translate(2.01,2.83) rotate(-22.29) scale(0.880)">
        <circle cx="0" cy="0" r="36.6" fill="url(#rgrad1)" filter="url(#shadow)" opacity="0.36"/>
        <text x="0" y="5" text-anchor="middle" font-family="Arial, sans-serif" font-size="14" fill="#FFFFFF" opacity="0.36">838</text>
      </g>
      </g>
      </g>
      </g>
      </g>
      </g>
      </g>
  </g>
  <g transform="translate(951.1, 391.4)">
      <g transform="translate(-5.00,-0.06) rotate(2.44) scale(1.000)">
        <g transform="translate(-4.42,1.13) rotate(3.05) scale(0.980)">
        <g transform="translate(-2.76,2.21) rotate(1.64) scale(0.960)">
        <g transform="translate(-0.43,3.10) rotate(-1.81) scale(0.940)" clip-path="url(#clipHex)">
        <g transform="translate(2.01,3.71) rotate(-7.16) scale(0.920)">
        <g transform="translate(3.96,3.99) rotate(-14.13) scale(0.900)">
        <g transform="translate(4.94,3.91) rotate(-22.29) scale(0.880)">
        <path d="M0.0,-73.2 L21.5,-29.6 L69.6,-22.6 L34.8,11.3 L43.0,59.2 L0.0,36.6 L-43.0,59.2 L-34.8,11.3 L-69.6,-22.6 L-21.5,-29.6Z" fill="url(#lgrad2)" filter="url(#blur2)" opacity="0.48"/>
      </g>
      </g>
      </g>
      </g>
      </g>
      </g>
      </g>
  </g>
  <g transform="translate(1178.4, 374.4)">
      <g transform="translate(-2.76,3.33) rotate(2.44) scale(1.000)">
        <g transform="translate(-0.43,3.84) rotate(3.05) scale(0.980)">
        <g transform="translate(2.01,4.00) rotate(1.64) scale(0.960)">
        <g transform="translate(3.96,3.80) rotate(-1.81) scale(0.940)">
        <g transform="translate(4.94,3.27) rotate(-7.16) scale(0.920)">
        <g transform="translate(4.71,2.44) rotate(-14.13) scale(0.900)" mask="url(#maskCircleFade)">
        <g transform="translate(3.32,1.39) rotate(-22.29) scale(0.880)">
        <rect x="-30.6" y="-30.6" width="61.1" height="61.1" rx="15.3" fill="url(#rgrad3)" filter="url(#shadow)" opacity="0.60"/>
        <circle cx="0" cy="0" r="20.4" fill="url(#rgrad4)" opacity="0.42"/>
      </g>
      </g>
      </g>
      </g>
      </g>
      </g>
      </g>
  </g>
  <g transform="translate(1411.1, 360.0)">
      <g transform="translate(2.01,3.66) rotate(2.44) scale(1.000)">
        <g transform="translate(3.96,3.02) rotate(3.05) scale(0.980)">
        <g transform="translate(4.94,2.11) rotate(1.64) scale(0.960)">
        <g transform="translate(4.71,1.01) rotate(-1.81) scale(0.940)">
        <g transform="translate(3.32,-0.18) rotate(-7.16) scale(0.920)">
        <g transform="translate(1.12,-1.35) rotate(-14.13) scale(0.900)">
        <g transform="translate(-1.35,-2.40) rotate(-22.29) scale(0.880)">
        <path d="M25.0,14.4 L0.0,28.8 L-25.0,14.4 L-25.0,-14.4 L-0.0,-28.8 L25.0,-14.4Z" fill="url(#rgrad4)" filter="url(#blur4)" opacity="0.71"/>
        <ellipse cx="0" cy="0" rx="12.0" ry="8.0" fill="#FFFFFF" opacity="0.35"/>
      </g>
      </g>
      </g>
      </g>
      </g>
      </g>
      </g>
  </g>
  <g transform="translate(1645.9, 355.0)">
      <g transform="translate(4.94,0.62) rotate(2.44) scale(1.000)">
        <g transform="translate(4.71,-0.57) rotate(3.05) scale(0.980)">
        <g transform="translate(3.32,-1.72) rotate(1.64) scale(0.960)">
        <g transform="translate(1.12,-2.71) rotate(-1.81) scale(0.940)" clip-path="url(#clipCircle)">
        <g transform="translate(-1.35,-3.46) rotate(-7.16) scale(0.920)">
        <g transform="translate(-3.49,-3.90) rotate(-14.13) scale(0.900)">
        <g transform="translate(-4.78,-3.99) rotate(-22.29) scale(0.880)">
        <circle cx="0" cy="0" r="23.0" fill="url(#lgrad0)" filter="url(#shadow)" opacity="0.80"/>
        <text x="0" y="5" text-anchor="middle" font-family="Arial, sans-serif" font-size="14" fill="#FFFFFF" opacity="0.80">838</text>
      </g>
      </g>
      </g>
      </g>
      </g>
      </g>
      </g>
  </g>
  <g transform="translate(119.3, 641.8)">
      <g transform="translate(3.32,-2.99) rotate(2.44) scale(1.000)">
        <g transform="translate(1.12,-3.64) rotate(3.05) scale(0.980)">
        <g transform="translate(-1.35,-3.97) rotate(1.64) scale(0.960)">
        <g transform="translate(-3.49,-3.94) rotate(-1.81) scale(0.940)">
        <g transform="translate(-4.78,-3.56) rotate(-7.16) scale(0.920)">
        <g transform="translate(-4.90,-2.86) rotate(-14.13) scale(0.900)" mask="url(#maskGradient)">
        <g transform="translate(-3.82,-1.91) rotate(-22.29) scale(0.880)">
        <path d="M0.0,-56.8 L16.7,-23.0 L54.0,-17.5 L27.0,8.8 L33.4,45.9 L0.0,28.4 L-33.4,45.9 L-27.0,8.8 L-54.0,-17.5 L-16.7,-23.0Z" fill="url(#rgrad1)" filter="url(#blur1)" opacity="0.86"/>
      </g>
      </g>
      </g>
      </g>
      </g>
      </g>
      </g>
  </g>
  <g transform="translate(347.9, 657.1)">
      <g transform="translate(-1.35,-3.85) rotate(2.44) scale(1.000)">
        <g transform="translate(-3.49,-3.36) rotate(3.05) scale(0.980)">
        <g transform="translate(-4.78,-2.57) rotate(1.64) scale(0.960)">
        <g transform="translate(-4.90,-1.55) rotate(-1.81) scale(0.940)">
        <g transform="translate(-3.82,-0.39) rotate(-7.16) scale(0.920)">
        <g transform="translate(-1.80,0.80) rotate(-14.13) scale(0.900)">
        <g transform="translate(0.66,1.93) rotate(-22.29) scale(0.880)">
        <rect x="-35.3" y="-35.3" width="70.6" height="70.6" rx="17.6" fill="url(#rgrad2)" filter="url(#shadow)" opacity="0.90"/>
        <circle cx="0" cy="0" r="23.5" fill="url(#rgrad3)" opacity="0.63"/>
      </g>
      </g>
      </g>
      </g>
      </g>
      </g>
      </g>
  </g>
  <g transform="translate(569.8, 673.8)">
      <g transform="translate(-4.78,-1.17) rotate(2.44) scale(1.000)">
        <g transform="translate(-4.90,0.01) rotate(3.05) scale(0.980)">
        <g transform="translate(-3.82,1.19) rotate(1.64) scale(0.960)">
        <g transform="translate(-1.80,2.27) rotate(-1.81) scale(0.940)" clip-path="url(#clipRect)">
        <g transform="translate(0.66,3.14) rotate(-7.16) scale(0.920)">
        <g transform="translate(2.95,3.73) rotate(-14.13) scale(0.900)">
        <g transform="translate(4.53,3.99) rotate(-22.29) scale(0.880)">
        <path d="M38.8,22.4 L0.0,44.8 L-38.8,22.4 L-38.8,-22.4 L-0.0,-44.8 L38.8,-22.4Z" fill="url(#lgrad3)" filter="url(#blur3)" opacity="0.89"/>
        <ellipse cx="0" cy="0" rx="18.7" ry="12.4" fill="#FFFFFF" opacity="0.45"/>
      </g>
      </g>
      </g>
      </g>
      </g>
      </g>
      </g>
  </g>
  <g transform="translate(784.3, 684.0)">
      <g transform="translate(-3.82,2.58) rotate(2.44) scale(1.000)">
        <g transform="translate(-1.80,3.37) rotate(3.05) scale(0.980)">
        <g transform="translate(0.66,3.86) rotate(1.64) scale(0.960)">
        <g transform="translate(2.95,4.00) rotate(-1.81) scale(0.940)">
        <g transform="translate(4.53,3.78) rotate(-7.16) scale(0.920)">
        <g transform="translate(4.99,3.23) rotate(-14.13) scale(0.900)" mask="url(#maskDynamic)">
        <g transform="translate(4.23,2.39) rotate(-22.29) scale(0.880)">
        <circle cx="0" cy="0" r="32.6" fill="url(#rgrad4)" filter="url(#shadow)" opacity="0.86"/>
        <text x="0" y="5" text-anchor="middle" font-family="Arial, sans-serif" font-size="14" fill="#FFFFFF" opacity="0.86">838</text>
      </g>
      </g>
      </g>
      </g>
      </g>
      </g>
      </g>
  </g>
  <g transform="translate(992.9, 682.9)">
      <g transform="translate(0.66,3.97) rotate(2.44) scale(1.000)">
        <g transform="translate(2.95,3.63) rotate(3.05) scale(0.980)">
        <g transform="translate(4.53,2.98) rotate(1.64) scale(0.960)">
        <g transform="translate(4.99,2.05) rotate(-1.81) scale(0.940)">
        <g transform="translate(4.23,0.95) rotate(-7.16) scale(0.920)">
        <g transform="translate(2.44,-0.24) rotate(-14.13) scale(0.900)">
        <g transform="translate(0.05,-1.41) rotate(-22.29) scale(0.880)">
        <path d="M0.0,-51.0 L15.0,-20.6 L48.5,-15.8 L24.3,7.9 L30.0,41.3 L0.0,25.5 L-30.0,41.3 L-24.3,7.9 L-48.5,-15.8 L-15.0,-20.6Z" fill="url(#rgrad0)" filter="url(#blur0)" opacity="0.78"/>
      </g>
      </g>
      </g>
      </g>
      </g>
      </g>
      </g>
  </g>
  <g transform="translate(1198.3, 671.0)">
      <g transform="translate(4.53,1.70) rotate(2.44) scale(1.000)">
        <g transform="translate(4.99,0.56) rotate(3.05) scale(0.980)">
        <g transform="translate(4.23,-0.64) rotate(1.64) scale(0.960)">
        <g transform="translate(2.44,-1.78) rotate(-1.81) scale(0.940)" clip-path="url(#clipStar)">
        <g transform="translate(0.05,-2.76) rotate(-7.16) scale(0.920)">
        <g transform="translate(-2.35,-3.49) rotate(-14.13) scale(0.900)">
        <g transform="translate(-4.18,-3.91) rotate(-22.29) scale(0.880)">
        <rect x="-22.5" y="-22.5" width="45.0" height="45.0" rx="11.3" fill="url(#lgrad1)" filter="url(#shadow)" opacity="0.69"/>
        <circle cx="0" cy="0" r="15.0" fill="url(#rgrad2)" opacity="0.48"/>
      </g>
      </g>
      </g>
      </g>
      </g>
      </g>
      </g>
  </g>
  <g transform="translate(1404.2, 654.0)">
      <g transform="translate(4.23,-2.13) rotate(2.44) scale(1.000)">
        <g transform="translate(2.44,-3.03) rotate(3.05) scale(0.980)">
        <g transform="translate(0.05,-3.67) rotate(1.64) scale(0.960)">
        <g transform="translate(-2.35,-3.98) rotate(-1.81) scale(0.940)">
        <g transform="translate(-4.18,-3.93) rotate(-7.16) scale(0.920)">
        <g transform="translate(-4.98,-3.53) rotate(-14.13) scale(0.900)" mask="url(#maskStripes)">
        <g transform="translate(-4.57,-2.82) rotate(-22.29) scale(0.880)">
        <path d="M27.4,15.8 L0.0,31.7 L-27.4,15.8 L-27.4,-15.8 L-0.0,-31.7 L27.4,-15.8Z" fill="url(#rgrad2)" filter="url(#blur2)" opacity="0.58"/>
        <ellipse cx="0" cy="0" rx="13.2" ry="8.8" fill="#FFFFFF" opacity="0.29"/>
      </g>
      </g>
      </g>
      </g>
      </g>
      </g>
      </g>
  </g>
  <g transform="translate(1613.9, 639.8)">
      <g transform="translate(0.05,-4.00) rotate(2.44) scale(1.000)">
        <g transform="translate(-2.35,-3.83) rotate(3.05) scale(0.980)">
        <g transform="translate(-4.18,-3.32) rotate(1.64) scale(0.960)">
        <g transform="translate(-4.98,-2.52) rotate(-1.81) scale(0.940)">
        <g transform="translate(-4.57,-1.49) rotate(-7.16) scale(0.920)">
        <g transform="translate(-3.03,-0.32) rotate(-14.13) scale(0.900)">
        <g transform="translate(-0.76,0.87) rotate(-22.29) scale(0.880)">
        <circle cx="0" cy="0" r="33.6" fill="url(#rgrad3)" filter="url(#shadow)" opacity="0.46"/>
        <text x="0" y="5" text-anchor="middle" font-family="Arial, sans-serif" font-size="14" fill="#FFFFFF" opacity="0.46">838</text>
      </g>
      </g>
      </g>
      </g>
      </g>
      </g>
      </g>
  </g>
  <g transform="translate(70.0, 915.1)">
      <g transform="translate(-4.18,-2.19) rotate(2.44) scale(1.000)">
        <g transform="translate(-4.98,-1.11) rotate(3.05) scale(0.980)">
        <g transform="translate(-4.57,0.08) rotate(1.64) scale(0.960)">
        <g transform="translate(-3.03,1.26) rotate(-1.81) scale(0.940)" clip-path="url(#clipDynamic)">
        <g transform="translate(-0.76,2.32) rotate(-7.16) scale(0.920)">
        <g transform="translate(1.71,3.18) rotate(-14.13) scale(0.900)">
        <g transform="translate(3.75,3.76) rotate(-22.29) scale(0.880)">
        <path d="M0.0,-75.0 L22.0,-30.3 L71.3,-23.2 L35.6,11.6 L44.1,60.6 L0.0,37.5 L-44.1,60.6 L-35.6,11.6 L-71.3,-23.2 L-22.0,-30.3Z" fill="url(#lgrad4)" filter="url(#blur4)" opacity="0.34"/>
      </g>
      </g>
      </g>
      </g>
      </g>
      </g>
      </g>
  </g>
  <g transform="translate(214.8, 341.9)" mask="url(#maskGradient)">
    <ellipse cx="0" cy="0" rx="200" ry="150" fill="url(#rgrad0)" filter="url(#blur3)" opacity="0.3"/>
  </g>
  <g transform="translate(798.1, 376.0)" mask="url(#maskCircleFade)">
    <ellipse cx="0" cy="0" rx="200" ry="150" fill="url(#rgrad1)" filter="url(#blur3)" opacity="0.3"/>
  </g>
  <g transform="translate(1383.1, 374.3)" mask="url(#maskStripes)">
    <ellipse cx="0" cy="0" rx="200" ry="150" fill="url(#rgrad2)" filter="url(#blur3)" opacity="0.3"/>
  </g>
</svg>