<?xml version="1.0" encoding="UTF-8"?>
<svg xmlns="http://www.w3.org/2000/svg" viewBox="0 0 1920 1080" width="1920" height="1080">
  <defs>
    <filter id="blur0" x="-50%" y="-50%" width="200%" height="200%">
      <feGaussianBlur in="SourceGraphic" stdDeviation="1"/>
    </filter>
    <filter id="blur1" x="-50%" y="-50%" width="200%" height="200%">
      <feGaussianBlur in="SourceGraphic" stdDeviation="3"/>
    </filter>
    <filter id="blur2" x="-50%" y="-50%" width="200%" height="200%">
      <feGaussianBlur in="SourceGraphic" stdDeviation="5"/>
    </filter>
    <filter id="blur3" x="-50%" y="-50%" width="200%" height="200%">
      <feGaussianBlur in="SourceGraphic" stdDeviation="7"/>
    </filter>
    <filter id="blur4" x="-50%" y="-50%" width="200%" height="200%">
      <feGaussianBlur in="SourceGraphic" stdDeviation="9"/>
    </filter>
    <filter id="shadow" x="-50%" y="-50%" width="200%" height="200%">
      <feGaussianBlur in="SourceAlpha" stdDeviation="3" result="blur"/>
      <feOffset in="blur" dx="4" dy="4" result="offsetBlur"/>
      <feMerge>
        <feMergeNode in="offsetBlur"/>
        <feMergeNode in="SourceGraphic"/>
      </feMerge>
    </filter>
    <linearGradient id="lgrad0" x1="0%" y1="0%" x2="30.1%" y2="95.9%">
      <stop offset="0%" stop-color="#FF6B6B"/>
      <stop offset="33%" stop-color="#4ECDC4"/>
      <stop offset="66%" stop-color="#45B7D1"/>
      <stop offset="100%" stop-color="#96E6A1"/>
    </linearGradient>
    <linearGradient id="lgrad1" x1="0%" y1="0%" x2="9.8%" y2="79.7%">
      <stop offset="0%" stop-color="#FFE66D"/>
      <stop offset="33%" stop-color="#FF6B6B"/>
      <stop offset="66%" stop-color="#C44D58"/>
      <stop offset="100%" stop-color="#8B0000"/>
    </linearGradient>
    <linearGradient id="lgrad2" x1="0%" y1="0%" x2="0.3%" y2="55.7%">
      <stop offset="0%" stop-color="#4169E1"/>
      <stop offset="33%" stop-color="#7B68EE"/>
      <stop offset="66%" stop-color="#9370DB"/>
      <stop offset="100%" stop-color="#FFD700"/>
    </linearGradient>
    <linearGradient id="lgrad3" x1="0%" y1="0%" x2="4.1%" y2="30.1%">
      <stop offset="0%" stop-color="#32CD32"/>
      <stop offset="33%" stop-color="#228B22"/>
      <stop offset="66%" stop-color="#006400"/>
      <stop offset="100%" stop-color="#ADFF2F"/>
    </linearGradient>
    <linearGradient id="lgrad4" x1="0%" y1="0%" x2="20.3%" y2="9.8%">
      <stop offset="0%" stop-color="#FF1493"/>
      <stop offset="33%" stop-color="#FF69B4"/>
      <stop offset="66%" stop-color="#FFB6C1"/>
      <stop offset="100%" stop-color="#FFC0CB"/>
    </linearGradient>
    <radialGradient id="rgrad0" cx="47.1%" cy="41.4%" r="60%">
      <stop offset="0%" stop-color="#FF6B6B" stop-opacity="1"/>
      <stop offset="50%" stop-color="#4ECDC4" stop-opacity="0.8"/>
      <stop offset="100%" stop-color="#45B7D1" stop-opacity="0.6"/>
    </radialGradient>
    <radialGradient id="rgrad1" cx="57.1%" cy="49.4%" r="60%">
      <stop offset="0%" stop-color="#FFE66D" stop-opacity="1"/>
      <stop offset="50%" stop-color="#FF6B6B" stop-opacity="0.8"/>
      <stop offset="100%" stop-color="#C44D58" stop-opacity="0.6"/>
    </radialGradient>
    <radialGradient id="rgrad2" cx="67.1%" cy="57.4%" r="60%">
      <stop offset="0%" stop-color="#4169E1" stop-opacity="1"/>
      <stop offset="50%" stop-color="#7B68EE" stop-opacity="0.8"/>
      <stop offset="100%" stop-color="#9370DB" stop-opacity="0.6"/>
    </radialGradient>
    <radialGradient id="rgrad3" cx="37.1%" cy="65.4%" r="60%">
      <stop offset="0%" stop-color="#32CD32" stop-opacity="1"/>
      <stop offset="50%" stop-color="#228B22" stop-opacity="0.8"/>
      <stop offset="100%" stop-color="#006400" stop-opacity="0.6"/>
    </radialGradient>
    <radialGradient id="rgrad4" cx="47.1%" cy="33.4%" r="60%">
      <stop offset="0%" stop-color="#FF1493" stop-opacity="1"/>
      <stop offset="50%" stop-color="#FF69B4" stop-opacity="0.8"/>
      <stop offset="100%" stop-color="#FFB6C1" stop-opacity="0.6"/>
    </radialGradient>
    <clipPath id="clipCircle">
      <circle cx="0" cy="0" r="50"/>
    </clipPath>
    <clipPath id="clipStar">
      <path d="M0.0,-50.0 L14.7,-20.2 L47.6,-15.5 L23.8,7.7 L29.4,40.5 L0.0,25.0 L-29.4,40.5 L-23.8,7.7 L-47.6,-15.5 L-14.7,-20.2Z"/>
    </clipPath>
    <clipPath id="clipHex">
      <path d="M39.0,22.5 L0.0,45.0 L-39.0,22.5 L-39.0,-22.5 L-0.0,-45.0 L39.0,-22.5Z"/>
    </clipPath>
    <clipPath id="clipRect">
      <rect x="-40" y="-30" width="80" height="60" rx="10"/>
    </clipPath>
    <clipPath id="clipDynamic">
      <circle cx="0" cy="0" r="23.3"/>
    </clipPath>
    <mask id="maskGradient" maskContentUnits="objectBoundingBox">
      <rect x="0" y="0" width="1" height="1" fill="url(#maskGrad)"/>
    </mask>
    <linearGradient id="maskGrad" x1="0%" y1="0%" x2="100%" y2="100%">
      <stop offset="0%" stop-color="white"/>
      <stop offset="100%" stop-color="black"/>
    </linearGradient>
    <mask id="maskCircleFade">
      <circle cx="0" cy="0" r="60" fill="white"/>
      <circle cx="0" cy="0" r="30" fill="black"/>
    </mask>
    <mask id="maskStripes">
      <rect x="-50" y="-50" width="100" height="100" fill="white"/>
      <rect x="-50" y="-40" width="100" height="10" fill="black"/>
      <rect x="-50" y="-20" width="100" height="10" fill="black"/>
      <rect x="-50" y="0" width="100" height="10" fill="black"/>
      <rect x="-50" y="20" width="100" height="10" fill="black"/>
      <rect x="-50" y="40" width="100" height="10" fill="black"/>
    </mask>
    <mask id="maskDynamic">
      <rect x="-60" y="-60" width="120" height="120" fill="white" fill-opacity="0.60"/>
      <circle cx="0" cy="0" r="25" fill="white"/>
    </mask>
  </defs>
  <rect width="1920" height="1080" fill="url(#lgrad0)"/>
  <g transform="translate(76.5, 115.6)">
      <g transform="translate(-3.91,2.49) rotate(2.17) scale(1.000)">
        <g transform="translate(-1.94,3.30) rotate(2.47) scale(0.980)">
        <g transform="translate(0.50,3.82) rotate(0.75) scale(0.960)">
        <g transform="translate(2.83,4.00) rotate(-2.99) scale(0.940)" clip-path="url(#clipCircle)">
        <g transform="translate(4.46,3.82) rotate(-8.58) scale(0.920)">
        <g transform="translate(5.00,3.30) rotate(-15.69) scale(0.900)">
        <g transform="translate(4.31,2.48) rotate(-23.87) scale(0.880)">
        <path d="M0.0,-66.5 L19.5,-26.9 L63.3,-20.6 L31.6,10.3 L39.1,53.8 L0.0,33.3 L-39.1,53.8 L-31.6,10.3 L-63.3,-20.6 L-19.5,-26.9Z" fill="url(#lgrad0)" filter="url(#blur0)" opacity="0.67"/>
      </g>
      </g>
      </g>
      </g>
      </g>
      </g>
      </g>
  </g>
  <g transform="translate(308.3, 124.5)">
      <g transform="translate(0.50,3.98) rotate(2.17) scale(1.000)">
        <g transform="translate(2.83,3.68) rotate(2.47) scale(0.980)">
        <g transform="translate(4.46,3.06) rotate(0.75) scale(0.960)">
        <g transform="translate(5.00,2.16) rotate(-2.99) scale(0.940)">
        <g transform="translate(4.31,1.07) rotate(-8.58) scale(0.920)">
        <g transform="translate(2.57,-0.12) rotate(-15.69) scale(0.900)" mask="url(#maskCircleFade)">
        <g transform="translate(0.20,-1.30) rotate(-23.87) scale(0.880)">
        <rect x="-26.1" y="-26.1" width="52.2" height="52.2" rx="13.0" fill="url(#rgrad1)" filter="url(#shadow)" opacity="0.56"/>
        <circle cx="0" cy="0" r="17.4" fill="url(#rgrad2)" opacity="0.39"/>
      </g>
      </g>
      </g>
      </g>
      </g>
      </g>
      </g>
  </g>
  <g transform="translate(543.0, 121.9)">
      <g transform="translate(4.46,1.81) rotate(2.17) scale(1.000)">
        <g transform="translate(5.00,0.68) rotate(2.47) scale(0.980)">
        <g transform="translate(4.31,-0.52) rotate(0.75) scale(0.960)">
        <g transform="translate(2.57,-1.67) rotate(-2.99) scale(0.940)">
        <g transform="translate(0.20,-2.67) rotate(-8.58) scale(0.920)">
        <g transform="translate(-2.22,-3.43) rotate(-15.69) scale(0.900)">
        <g transform="translate(-4.09,-3.88) rotate(-23.87) scale(0.880)">
        <path d="M23.4,13.5 L0.0,27.0 L-23.4,13.5 L-23.4,-13.5 L-0.0,-27.0 L23.4,-13.5Z" fill="url(#rgrad2)" filter="url(#blur2)" opacity="0.44"/>
        <ellipse cx="0" cy="0" rx="11.3" ry="7.5" fill="#FFFFFF" opacity="0.22"/>
      </g>
      </g>
      </g>
      </g>
      </g>
      </g>
      </g>
  </g>
  <g transform="translate(777.0, 109.0)">
      <g transform="translate(4.31,-2.02) rotate(2.17) scale(1.000)">
        <g transform="translate(2.57,-2.95) rotate(2.47) scale(0.980)">
        <g transform="translate(0.20,-3.62) rotate(0.75) scale(0.960)">
        <g transform="translate(-2.22,-3.96) rotate(-2.99) scale(0.940)" clip-path="url(#clipRect)">
        <g transform="translate(-4.09,-3.95) rotate(-8.58) scale(0.920)">
        <g transform="translate(-4.97,-3.59) rotate(-15.69) scale(0.900)">
        <g transform="translate(-4.63,-2.90) rotate(-23.87) scale(0.880)">
        <circle cx="0" cy="0" r="25.8" fill="url(#lgrad3)" filter="url(#shadow)" opacity="0.33"/>
        <text x="0" y="5" text-anchor="middle" font-family="Arial, sans-serif" font-size="14" fill="#FFFFFF" opacity="0.33">857</text>
      </g>
      </g>
      </g>
      </g>
      </g>
      </g>
      </g>
  </g>
  <g transform="translate(1006.7, 91.9)">
      <g transform="translate(0.20,-4.00) rotate(2.17) scale(1.000)">
        <g transform="translate(-2.22,-3.87) rotate(2.47) scale(0.980)">
        <g transform="translate(-4.09,-3.39) rotate(0.75) scale(0.960)">
        <g transform="translate(-4.97,-2.61) rotate(-2.99) scale(0.940)">
        <g transform="translate(-4.63,-1.60) rotate(-8.58) scale(0.920)">
        <g transform="translate(-3.15,-0.45) rotate(-15.69) scale(0.900)" mask="url(#maskGradient)">
        <g transform="translate(-0.91,0.75) rotate(-23.87) scale(0.880)">
        <path d="M0.0,-66.0 L19.4,-26.7 L62.7,-20.4 L31.4,10.2 L38.8,53.4 L0.0,33.0 L-38.8,53.4 L-31.4,10.2 L-62.7,-20.4 L-19.4,-26.7Z" fill="url(#rgrad4)" filter="url(#blur4)" opacity="0.23"/>
      </g>
      </g>
      </g>
      </g>
      </g>
      </g>
      </g>
  </g>
  <g transform="translate(1230.0, 78.6)">
      <g transform="translate(-4.09,-2.30) rotate(2.17) scale(1.000)">
        <g transform="translate(-4.97,-1.23) rotate(2.47) scale(0.980)">
        <g transform="translate(-4.63,-0.05) rotate(0.75) scale(0.960)">
        <g transform="translate(-3.15,1.14) rotate(-2.99) scale(0.940)">
        <g transform="translate(-0.91,2.22) rotate(-8.58) scale(0.920)">
        <g transform="translate(1.56,3.10) rotate(-15.69) scale(0.900)">
        <g transform="translate(3.65,3.71) rotate(-23.87) scale(0.880)">
        <rect x="-37.4" y="-37.4" width="74.8" height="74.8" rx="18.7" fill="url(#rgrad0)" filter="url(#shadow)" opacity="0.15"/>
        <circle cx="0" cy="0" r="24.9" fill="url(#rgrad1)" opacity="0.11"/>
      </g>
      </g>
      </g>
      </g>
      </g>
      </g>
      </g>
  </g>
  <g transform="translate(1445.9, 75.3)">
      <g transform="translate(-4.63,1.51) rotate(2.17) scale(1.000)">
        <g transform="translate(-3.15,2.54) rotate(2.47) scale(0.980)">
        <g transform="translate(-0.91,3.34) rotate(0.75) scale(0.960)">
        <g transform="translate(1.56,3.84) rotate(-2.99) scale(0.940)" clip-path="url(#clipStar)">
        <g transform="translate(3.65,4.00) rotate(-8.58) scale(0.920)">
        <g transform="translate(4.84,3.80) rotate(-15.69) scale(0.900)">
        <g transform="translate(4.85,3.26) rotate(-23.87) scale(0.880)">
        <path d="M36.4,21.0 L0.0,42.0 L-36.4,21.0 L-36.4,-21.0 L-0.0,-42.0 L36.4,-21.0Z" fill="url(#lgrad1)" filter="url(#blur1)" opacity="0.11"/>
        <ellipse cx="0" cy="0" rx="17.5" ry="11.7" fill="#FFFFFF" opacity="0.05"/>
      </g>
      </g>
      </g>
      </g>
      </g>
      </g>
      </g>
  </g>
  <g transform="translate(1655.4, 83.7)">
      <g transform="translate(-0.91,3.93) rotate(2.17) scale(1.000)">
        <g transform="translate(1.56,3.97) rotate(2.47) scale(0.980)">
        <g transform="translate(3.65,3.66) rotate(0.75) scale(0.960)">
        <g transform="translate(4.84,3.01) rotate(-2.99) scale(0.940)">
        <g transform="translate(4.85,2.10) rotate(-8.58) scale(0.920)">
        <g transform="translate(3.67,1.00) rotate(-15.69) scale(0.900)" mask="url(#maskDynamic)">
        <g transform="translate(1.59,-0.19) rotate(-23.87) scale(0.880)">
        <circle cx="0" cy="0" r="28.0" fill="url(#rgrad2)" filter="url(#shadow)" opacity="0.10"/>
        <text x="0" y="5" text-anchor="middle" font-family="Arial, sans-serif" font-size="14" fill="#FFFFFF" opacity="0.10">857</text>
      </g>
      </g>
      </g>
      </g>
      </g>
      </g>
      </g>
  </g>
  <g transform="translate(101.2, 379.7)">
      <g transform="translate(3.65,2.74) rotate(2.17) scale(1.000)">
        <g transform="translate(4.84,1.75) rotate(2.47) scale(0.980)">
        <g transform="translate(4.85,0.61) rotate(0.75) scale(0.960)">
        <g transform="translate(3.67,-0.58) rotate(-2.99) scale(0.940)">
        <g transform="translate(1.59,-1.73) rotate(-8.58) scale(0.920)">
        <g transform="translate(-0.87,-2.72) rotate(-15.69) scale(0.900)">
        <g transform="translate(-3.13,-3.46) rotate(-23.87) scale(0.880)">
        <path d="M0.0,-45.7 L13.4,-18.5 L43.5,-14.1 L21.7,7.1 L26.9,37.0 L0.0,22.8 L-26.9,37.0 L-21.7,7.1 L-43.5,-14.1 L-13.4,-18.5Z" fill="url(#rgrad3)" filter="url(#blur3)" opacity="0.13"/>
      </g>
      </g>
      </g>
      </g>
      </g>
      </g>
      </g>
  </g>
  <g transform="translate(306.7, 395.9)">
      <g transform="translate(4.85,-0.98) rotate(2.17) scale(1.000)">
        <g transform="translate(3.67,-2.08) rotate(2.47) scale(0.980)">
        <g transform="translate(1.59,-3.00) rotate(0.75) scale(0.960)">
        <g transform="translate(-0.87,-3.65) rotate(-2.99) scale(0.940)" clip-path="url(#clipDynamic)">
        <g transform="translate(-3.13,-3.97) rotate(-8.58) scale(0.920)">
        <g transform="translate(-4.62,-3.94) rotate(-15.69) scale(0.900)">
        <g transform="translate(-4.97,-3.56) rotate(-23.87) scale(0.880)">
        <rect x="-24.2" y="-24.2" width="48.5" height="48.5" rx="12.1" fill="url(#lgrad4)" filter="url(#shadow)" opacity="0.19"/>
        <circle cx="0" cy="0" r="16.2" fill="url(#rgrad0)" opacity="0.13"/>
      </g>
      </g>
      </g>
      </g>
      </g>
      </g>
      </g>
  </g>
  <g transform="translate(515.4, 404.6)">
      <g transform="translate(1.59,-3.79) rotate(2.17) scale(1.000)">
        <g transform="translate(-0.87,-4.00) rotate(2.47) scale(0.980)">
        <g transform="translate(-3.13,-3.85) rotate(0.75) scale(0.960)">
        <g transform="translate(-4.62,-3.35) rotate(-2.99) scale(0.940)">
        <g transform="translate(-4.97,-2.56) rotate(-8.58) scale(0.920)">
        <g transform="translate(-4.11,-1.54) rotate(-15.69) scale(0.900)" mask="url(#maskStripes)">
        <g transform="translate(-2.25,-0.38) rotate(-23.87) scale(0.880)">
        <path d="M32.2,18.6 L0.0,37.1 L-32.2,18.6 L-32.2,-18.6 L-0.0,-37.1 L32.2,-18.6Z" fill="url(#rgrad0)" filter="url(#blur0)" opacity="0.28"/>
        <ellipse cx="0" cy="0" rx="15.5" ry="10.3" fill="#FFFFFF" opacity="0.14"/>
      </g>
      </g>
      </g>
      </g>
      </g>
      </g>
      </g>
  </g>
  <g transform="translate(730.2, 401.7)">
      <g transform="translate(-3.13,-3.12) rotate(2.17) scale(1.000)">
        <g transform="translate(-4.62,-2.24) rotate(2.47) scale(0.980)">
        <g transform="translate(-4.97,-1.16) rotate(0.75) scale(0.960)">
        <g transform="translate(-4.11,0.02) rotate(-2.99) scale(0.940)">
        <g transform="translate(-2.25,1.20) rotate(-8.58) scale(0.920)">
        <g transform="translate(0.17,2.28) rotate(-15.69) scale(0.900)">
        <g transform="translate(2.55,3.15) rotate(-23.87) scale(0.880)">
        <circle cx="0" cy="0" r="36.8" fill="url(#rgrad1)" filter="url(#shadow)" opacity="0.39"/>
        <text x="0" y="5" text-anchor="middle" font-family="Arial, sans-serif" font-size="14" fill="#FFFFFF" opacity="0.39">857</text>
      </g>
      </g>
      </g>
      </g>
      </g>
      </g>
      </g>
  </g>
  <g transform="translate(952.2, 388.7)">
      <g transform="translate(-4.97,0.42) rotate(2.17) scale(1.000)">
        <g transform="translate(-4.11,1.58) rotate(2.47) scale(0.980)">
        <g transform="translate(-2.25,2.59) rotate(0.75) scale(0.960)">
        <g transform="translate(0.17,3.38) rotate(-2.99) scale(0.940)" clip-path="url(#clipHex)">
        <g transform="translate(2.55,3.86) rotate(-8.58) scale(0.920)">
        <g transform="translate(4.30,4.00) rotate(-15.69) scale(0.900)">
        <g transform="translate(5.00,3.78) rotate(-23.87) scale(0.880)">
        <path d="M0.0,-72.8 L21.4,-29.4 L69.2,-22.5 L34.6,11.2 L42.8,58.9 L0.0,36.4 L-42.8,58.9 L-34.6,11.2 L-69.2,-22.5 L-21.4,-29.4Z" fill="url(#lgrad2)" filter="url(#blur2)" opacity="0.50"/>
      </g>
      </g>
      </g>
      </g>
      </g>
      </g>
      </g>
  </g>
  <g transform="translate(1181.1, 371.5)">
      <g transform="translate(-2.25,3.57) rotate(2.17) scale(1.000)">
        <g transform="translate(0.17,3.95) rotate(2.47) scale(0.980)">
        <g transform="translate(2.55,3.96) rotate(0.75) scale(0.960)">
        <g transform="translate(4.30,3.63) rotate(-2.99) scale(0.940)">
        <g transform="translate(5.00,2.97) rotate(-8.58) scale(0.920)">
        <g transform="translate(4.47,2.04) rotate(-15.69) scale(0.900)" mask="url(#maskCircleFade)">
        <g transform="translate(2.85,0.94) rotate(-23.87) scale(0.880)">
        <rect x="-30.1" y="-30.1" width="60.2" height="60.2" rx="15.1" fill="url(#rgrad3)" filter="url(#shadow)" opacity="0.62"/>
        <circle cx="0" cy="0" r="20.1" fill="url(#rgrad4)" opacity="0.44"/>
      </g>
      </g>
      </g>
      </g>
      </g>
      </g>
      </g>
  </g>
  <g transform="translate(1414.6, 358.4)">
      <g transform="translate(2.55,3.44) rotate(2.17) scale(1.000)">
        <g transform="translate(4.30,2.69) rotate(2.47) scale(0.980)">
        <g transform="translate(5.00,1.69) rotate(0.75) scale(0.960)">
        <g transform="translate(4.47,0.54) rotate(-2.99) scale(0.940)">
        <g transform="translate(2.85,-0.65) rotate(-8.58) scale(0.920)">
        <g transform="translate(0.54,-1.79) rotate(-15.69) scale(0.900)">
        <g transform="translate(-1.91,-2.77) rotate(-23.87) scale(0.880)">
        <path d="M24.7,14.3 L0.0,28.5 L-24.7,14.3 L-24.7,-14.3 L-0.0,-28.5 L24.7,-14.3Z" fill="url(#rgrad4)" filter="url(#blur4)" opacity="0.73"/>
        <ellipse cx="0" cy="0" rx="11.9" ry="7.9" fill="#FFFFFF" opacity="0.36"/>
      </g>
      </g>
      </g>
      </g>
      </g>
      </g>
      </g>
  </g>
  <g transform="translate(1649.4, 355.4)">
      <g transform="translate(5.00,0.15) rotate(2.17) scale(1.000)">
        <g transform="translate(4.47,-1.04) rotate(2.47) scale(0.980)">
        <g transform="translate(2.85,-2.14) rotate(0.75) scale(0.960)">
        <g transform="translate(0.54,-3.04) rotate(-2.99) scale(0.940)" clip-path="url(#clipCircle)">
        <g transform="translate(-1.91,-3.67) rotate(-8.58) scale(0.920)">
        <g transform="translate(-3.89,-3.98) rotate(-15.69) scale(0.900)">
        <g transform="translate(-4.92,-3.93) rotate(-23.87) scale(0.880)">
        <circle cx="0" cy="0" r="23.1" fill="url(#lgrad0)" filter="url(#shadow)" opacity="0.82"/>
        <text x="0" y="5" text-anchor="middle" font-family="Arial, sans-serif" font-size="14" fill="#FFFFFF" opacity="0.82">857</text>
      </g>
      </g>
      </g>
      </g>
      </g>
      </g>
      </g>
  </g>
  <g transform="translate(121.9, 644.0)">
      <g transform="translate(2.85,-3.28) rotate(2.17) scale(1.000)">
        <g transform="translate(0.54,-3.81) rotate(2.47) scale(0.980)">
        <g transform="translate(-1.91,-4.00) rotate(0.75) scale(0.960)">
        <g transform="translate(-3.89,-3.83) rotate(-2.99) scale(0.940)">
        <g transform="translate(-4.92,-3.32) rotate(-8.58) scale(0.920)">
        <g transform="translate(-4.74,-2.51) rotate(-15.69) scale(0.900)" mask="url(#maskGradient)">
        <g transform="translate(-3.40,-1.48) rotate(-23.87) scale(0.880)">
        <path d="M0.0,-57.6 L16.9,-23.3 L54.8,-17.8 L27.4,8.9 L33.9,46.6 L0.0,28.8 L-33.9,46.6 L-27.4,8.9 L-54.8,-17.8 L-16.9,-23.3Z" fill="url(#rgrad1)" filter="url(#blur1)" opacity="0.87"/>
      </g>
      </g>
      </g>
      </g>
      </g>
      </g>
      </g>
  </g>
  <g transform="translate(349.0, 660.1)">
      <g transform="translate(-1.91,-3.70) rotate(2.17) scale(1.000)">
        <g transform="translate(-3.89,-3.08) rotate(2.47) scale(0.980)">
        <g transform="translate(-4.92,-2.19) rotate(0.75) scale(0.960)">
        <g transform="translate(-4.74,-1.10) rotate(-2.99) scale(0.940)">
        <g transform="translate(-3.40,0.09) rotate(-8.58) scale(0.920)">
        <g transform="translate(-1.23,1.27) rotate(-15.69) scale(0.900)">
        <g transform="translate(1.24,2.33) rotate(-23.87) scale(0.880)">
        <rect x="-35.6" y="-35.6" width="71.2" height="71.2" rx="17.8" fill="url(#rgrad2)" filter="url(#shadow)" opacity="0.90"/>
        <circle cx="0" cy="0" r="23.7" fill="url(#rgrad3)" opacity="0.63"/>
      </g>
      </g>
      </g>
      </g>
      </g>
      </g>
      </g>
  </g>
  <g transform="translate(569.1, 676.2)">
      <g transform="translate(-4.92,-0.71) rotate(2.17) scale(1.000)">
        <g transform="translate(-4.74,0.49) rotate(2.47) scale(0.980)">
        <g transform="translate(-3.40,1.64) rotate(0.75) scale(0.960)">
        <g transform="translate(-1.23,2.64) rotate(-2.99) scale(0.940)" clip-path="url(#clipRect)">
        <g transform="translate(1.24,3.41) rotate(-8.58) scale(0.920)">
        <g transform="translate(3.41,3.88) rotate(-15.69) scale(0.900)">
        <g transform="translate(4.75,3.99) rotate(-23.87) scale(0.880)">
        <path d="M38.7,22.3 L0.0,44.7 L-38.7,22.3 L-38.7,-22.3 L-0.0,-44.7 L38.7,-22.3Z" fill="url(#lgrad3)" filter="url(#blur3)" opacity="0.89"/>
        <ellipse cx="0" cy="0" rx="18.6" ry="12.4" fill="#FFFFFF" opacity="0.44"/>
      </g>
      </g>
      </g>
      </g>
      </g>
      </g>
      </g>
  </g>
  <g transform="translate(782.0, 684.7)">
      <g transform="translate(-3.40,2.93) rotate(2.17) scale(1.000)">
        <g transform="translate(-1.23,3.60) rotate(2.47) scale(0.980)">
        <g transform="translate(1.24,3.96) rotate(0.75) scale(0.960)">
        <g transform="translate(3.41,3.95) rotate(-2.99) scale(0.940)">
        <g transform="translate(4.75,3.60) rotate(-8.58) scale(0.920)">
        <g transform="translate(4.92,2.92) rotate(-15.69) scale(0.900)" mask="url(#maskDynamic)">
        <g transform="translate(3.89,1.99) rotate(-23.87) scale(0.880)">
        <circle cx="0" cy="0" r="32.2" fill="url(#rgrad4)" filter="url(#shadow)" opacity="0.84"/>
        <text x="0" y="5" text-anchor="middle" font-family="Arial, sans-serif" font-size="14" fill="#FFFFFF" opacity="0.84">857</text>
      </g>
      </g>
      </g>
      </g>
      </g>
      </g>
      </g>
  </g>
  <g transform="translate(989.6, 681.5)">
      <g transform="translate(1.24,3.87) rotate(2.17) scale(1.000)">
        <g transform="translate(3.41,3.41) rotate(2.47) scale(0.980)">
        <g transform="translate(4.75,2.64) rotate(0.75) scale(0.960)">
        <g transform="translate(4.92,1.63) rotate(-2.99) scale(0.940)">
        <g transform="translate(3.89,0.48) rotate(-8.58) scale(0.920)">
        <g transform="translate(1.90,-0.72) rotate(-15.69) scale(0.900)">
        <g transform="translate(-0.55,-1.85) rotate(-23.87) scale(0.880)">
        <path d="M0.0,-50.3 L14.8,-20.4 L47.9,-15.6 L23.9,7.8 L29.6,40.7 L0.0,25.2 L-29.6,40.7 L-23.9,7.8 L-47.9,-15.6 L-14.8,-20.4Z" fill="url(#rgrad0)" filter="url(#blur0)" opacity="0.77"/>
      </g>
      </g>
      </g>
      </g>
      </g>
      </g>
      </g>
  </g>
  <g transform="translate(1194.8, 668.3)">
      <g transform="translate(4.75,1.26) rotate(2.17) scale(1.000)">
        <g transform="translate(4.92,0.08) rotate(2.47) scale(0.980)">
        <g transform="translate(3.89,-1.11) rotate(0.75) scale(0.960)">
        <g transform="translate(1.90,-2.19) rotate(-2.99) scale(0.940)" clip-path="url(#clipStar)">
        <g transform="translate(-0.55,-3.08) rotate(-8.58) scale(0.920)">
        <g transform="translate(-2.86,-3.70) rotate(-15.69) scale(0.900)">
        <g transform="translate(-4.48,-3.98) rotate(-23.87) scale(0.880)">
        <rect x="-22.6" y="-22.6" width="45.1" height="45.1" rx="11.3" fill="url(#lgrad1)" filter="url(#shadow)" opacity="0.67"/>
        <circle cx="0" cy="0" r="15.0" fill="url(#rgrad2)" opacity="0.47"/>
      </g>
      </g>
      </g>
      </g>
      </g>
      </g>
      </g>
  </g>
  <g transform="translate(1401.2, 651.1)">
      <g transform="translate(3.89,-2.52) rotate(2.17) scale(1.000)">
        <g transform="translate(1.90,-3.32) rotate(2.47) scale(0.980)">
        <g transform="translate(-0.55,-3.83) rotate(0.75) scale(0.960)">
        <g transform="translate(-2.86,-4.00) rotate(-2.99) scale(0.940)">
        <g transform="translate(-4.48,-3.81) rotate(-8.58) scale(0.920)">
        <g transform="translate(-5.00,-3.28) rotate(-15.69) scale(0.900)" mask="url(#maskStripes)">
        <g transform="translate(-4.29,-2.46) rotate(-23.87) scale(0.880)">
        <path d="M27.9,16.1 L0.0,32.2 L-27.9,16.1 L-27.9,-16.1 L-0.0,-32.2 L27.9,-16.1Z" fill="url(#rgrad2)" filter="url(#blur2)" opacity="0.55"/>
        <ellipse cx="0" cy="0" rx="13.4" ry="8.9" fill="#FFFFFF" opacity="0.28"/>
      </g>
      </g>
      </g>
      </g>
      </g>
      </g>
      </g>
  </g>
  <g transform="translate(1612.3, 638.1)">
      <g transform="translate(-0.55,-3.98) rotate(2.17) scale(1.000)">
        <g transform="translate(-2.86,-3.67) rotate(2.47) scale(0.980)">
        <g transform="translate(-4.48,-3.03) rotate(0.75) scale(0.960)">
        <g transform="translate(-5.00,-2.13) rotate(-2.99) scale(0.940)">
        <g transform="translate(-4.29,-1.03) rotate(-8.58) scale(0.920)">
        <g transform="translate(-2.54,0.15) rotate(-15.69) scale(0.900)">
        <g transform="translate(-0.16,1.33) rotate(-23.87) scale(0.880)">
        <circle cx="0" cy="0" r="34.0" fill="url(#rgrad3)" filter="url(#shadow)" opacity="0.43"/>
        <text x="0" y="5" text-anchor="middle" font-family="Arial, sans-serif" font-size="14" fill="#FFFFFF" opacity="0.43">857</text>
      </g>
      </g>
      </g>
      </g>
      </g>
      </g>
      </g>
  </g>
  <g transform="translate(70.2, 915.5)">
      <g transform="translate(-4.48,-1.78) rotate(2.17) scale(1.000)">
        <g transform="translate(-5.00,-0.64) rotate(2.47) scale(0.980)">
        <g transform="translate(-4.29,0.55) rotate(0.75) scale(0.960)">
        <g transform="translate(-2.54,1.70) rotate(-2.99) scale(0.940)" clip-path="url(#clipDynamic)">
        <g transform="translate(-0.16,2.69) rotate(-8.58) scale(0.920)">
        <g transform="translate(2.25,3.45) rotate(-15.69) scale(0.900)">
        <g transform="translate(4.12,3.89) rotate(-23.87) scale(0.880)">
        <path d="M0.0,-75.0 L22.0,-30.3 L71.3,-23.2 L35.7,11.6 L44.1,60.7 L0.0,37.5 L-44.1,60.7 L-35.7,11.6 L-71.3,-23.2 L-22.0,-30.3Z" fill="url(#lgrad4)" filter="url(#blur4)" opacity="0.32"/>
      </g>
      </g>
      </g>
      </g>
      </g>
      </g>
      </g>
  </g>
  <g transform="translate(221.7, 349.8)" mask="url(#maskGradient)">
    <ellipse cx="0" cy="0" rx="200" ry="150" fill="url(#rgrad0)" filter="url(#blur3)" opacity="0.3"/>
  </g>
  <g transform="translate(810.0, 378.4)" mask="url(#maskCircleFade)">
    <ellipse cx="0" cy="0" rx="200" ry="150" fill="url(#rgrad1)" filter="url(#blur3)" opacity="0.3"/>
  </g>
  <g transform="translate(1389.1, 370.2)" mask="url(#maskStripes)">
    <ellipse cx="0" cy="0" rx="200" ry="150" fill="url(#rgrad2)" filter="url(#blur3)" opacity="0.3"/>
  </g>
</svg>