<?xml version="1.0" encoding="UTF-8"?>
<svg xmlns="http://www.w3.org/2000/svg" viewBox="0 0 1920 1080" width="1920" height="1080">
  <defs>
    <filter id="blur0" x="-50%" y="-50%" width="200%" height="200%">
      <feGaussianBlur in="SourceGraphic" stdDeviation="1"/>
    </filter>
    <filter id="blur1" x="-50%" y="-50%" width="200%" height="200%">
      <feGaussianBlur in="SourceGraphic" stdDeviation="3"/>
    </filter>
    <filter id="blur2" x="-50%" y="-50%" width="200%" height="200%">
      <feGaussianBlur in="SourceGraphic" stdDeviation="5"/>
    </filter>
    <filter id="blur3" x="-50%" y="-50%" width="200%" height="200%">
      <feGaussianBlur in="SourceGraphic" stdDeviation="7"/>
    </filter>
    <filter id="blur4" x="-50%" y="-50%" width="200%" height="200%">
      <feGaussianBlur in="SourceGraphic" stdDeviation="9"/>
    </filter>
    <filter id="shadow" x="-50%" y="-50%" width="200%" height="200%">
      <feGaussianBlur in="SourceAlpha" stdDeviation="3" result="blur"/>
      <feOffset in="blur" dx="4" dy="4" result="offsetBlur"/>
      <feMerge>
        <feMergeNode in="offsetBlur"/>
        <feMergeNode in="SourceGraphic"/>
      </feMerge>
    </filter>
    <linearGradient id="lgrad0" x1="0%" y1="0%" x2="85.0%" y2="14.3%">
      <stop offset="0%" stop-color="#FF6B6B"/>
      <stop offset="33%" stop-color="#4ECDC4"/>
      <stop offset="66%" stop-color="#45B7D1"/>
      <stop offset="100%" stop-color="#96E6A1"/>
    </linearGradient>
    <linearGradient id="lgrad1" x1="0%" y1="0%" x2="98.2%" y2="36.6%">
      <stop offset="0%" stop-color="#FFE66D"/>
      <stop offset="33%" stop-color="#FF6B6B"/>
      <stop offset="66%" stop-color="#C44D58"/>
      <stop offset="100%" stop-color="#8B0000"/>
    </linearGradient>
    <linearGradient id="lgrad2" x1="0%" y1="0%" x2="98.4%" y2="62.5%">
      <stop offset="0%" stop-color="#4169E1"/>
      <stop offset="33%" stop-color="#7B68EE"/>
      <stop offset="66%" stop-color="#9370DB"/>
      <stop offset="100%" stop-color="#FFD700"/>
    </linearGradient>
    <linearGradient id="lgrad3" x1="0%" y1="0%" x2="85.7%" y2="85.0%">
      <stop offset="0%" stop-color="#32CD32"/>
      <stop offset="33%" stop-color="#228B22"/>
      <stop offset="66%" stop-color="#006400"/>
      <stop offset="100%" stop-color="#ADFF2F"/>
    </linearGradient>
    <linearGradient id="lgrad4" x1="0%" y1="0%" x2="63.4%" y2="98.2%">
      <stop offset="0%" stop-color="#FF1493"/>
      <stop offset="33%" stop-color="#FF69B4"/>
      <stop offset="66%" stop-color="#FFB6C1"/>
      <stop offset="100%" stop-color="#FFC0CB"/>
    </linearGradient>
    <radialGradient id="rgrad0" cx="31.7%" cy="57.8%" r="60%">
      <stop offset="0%" stop-color="#FF6B6B" stop-opacity="1"/>
      <stop offset="50%" stop-color="#4ECDC4" stop-opacity="0.8"/>
      <stop offset="100%" stop-color="#45B7D1" stop-opacity="0.6"/>
    </radialGradient>
    <radialGradient id="rgrad1" cx="41.7%" cy="65.8%" r="60%">
      <stop offset="0%" stop-color="#FFE66D" stop-opacity="1"/>
      <stop offset="50%" stop-color="#FF6B6B" stop-opacity="0.8"/>
      <stop offset="100%" stop-color="#C44D58" stop-opacity="0.6"/>
    </radialGradient>
    <radialGradient id="rgrad2" cx="51.7%" cy="33.8%" r="60%">
      <stop offset="0%" stop-color="#4169E1" stop-opacity="1"/>
      <stop offset="50%" stop-color="#7B68EE" stop-opacity="0.8"/>
      <stop offset="100%" stop-color="#9370DB" stop-opacity="0.6"/>
    </radialGradient>
    <radialGradient id="rgrad3" cx="61.7%" cy="41.8%" r="60%">
      <stop offset="0%" stop-color="#32CD32" stop-opacity="1"/>
      <stop offset="50%" stop-color="#228B22" stop-opacity="0.8"/>
      <stop offset="100%" stop-color="#006400" stop-opacity="0.6"/>
    </radialGradient>
    <radialGradient id="rgrad4" cx="31.7%" cy="49.8%" r="60%">
      <stop offset="0%" stop-color="#FF1493" stop-opacity="1"/>
      <stop offset="50%" stop-color="#FF69B4" stop-opacity="0.8"/>
      <stop offset="100%" stop-color="#FFB6C1" stop-opacity="0.6"/>
    </radialGradient>
    <clipPath id="clipCircle">
      <circle cx="0" cy="0" r="50"/>
    </clipPath>
    <clipPath id="clipStar">
      <path d="M0.0,-50.0 L14.7,-20.2 L47.6,-15.5 L23.8,7.7 L29.4,40.5 L0.0,25.0 L-29.4,40.5 L-23.8,7.7 L-47.6,-15.5 L-14.7,-20.2Z"/>
    </clipPath>
    <clipPath id="clipHex">
      <path d="M39.0,22.5 L0.0,45.0 L-39.0,22.5 L-39.0,-22.5 L-0.0,-45.0 L39.0,-22.5Z"/>
    </clipPath>
    <clipPath id="clipRect">
      <rect x="-40" y="-30" width="80" height="60" rx="10"/>
    </clipPath>
    <clipPath id="clipDynamic">
      <circle cx="0" cy="0" r="31.4"/>
    </clipPath>
    <mask id="maskGradient" maskContentUnits="objectBoundingBox">
      <rect x="0" y="0" width="1" height="1" fill="url(#maskGrad)"/>
    </mask>
    <linearGradient id="maskGrad" x1="0%" y1="0%" x2="100%" y2="100%">
      <stop offset="0%" stop-color="white"/>
      <stop offset="100%" stop-color="black"/>
    </linearGradient>
    <mask id="maskCircleFade">
      <circle cx="0" cy="0" r="60" fill="white"/>
      <circle cx="0" cy="0" r="30" fill="black"/>
    </mask>
    <mask id="maskStripes">
      <rect x="-50" y="-50" width="100" height="100" fill="white"/>
      <rect x="-50" y="-40" width="100" height="10" fill="black"/>
      <rect x="-50" y="-20" width="100" height="10" fill="black"/>
      <rect x="-50" y="0" width="100" height="10" fill="black"/>
      <rect x="-50" y="20" width="100" height="10" fill="black"/>
      <rect x="-50" y="40" width="100" height="10" fill="black"/>
    </mask>
    <mask id="maskDynamic">
      <rect x="-60" y="-60" width="120" height="120" fill="white" fill-opacity="0.99"/>
      <circle cx="0" cy="0" r="25" fill="white"/>
    </mask>
  </defs>
  <rect width="1920" height="1080" fill="url(#lgrad0)"/>
  <g transform="translate(92.8, 75.7)">
      <g transform="translate(-1.20,-3.88) rotate(4.96) scale(1.000)">
        <g transform="translate(-3.38,-3.43) rotate(9.49) scale(0.980)">
        <g transform="translate(-4.73,-2.66) rotate(13.01) scale(0.960)">
        <g transform="translate(-4.93,-1.66) rotate(15.02) scale(0.940)" clip-path="url(#clipCircle)">
        <g transform="translate(-3.91,-0.51) rotate(15.12) scale(0.920)">
        <g transform="translate(-1.94,0.68) rotate(13.04) scale(0.900)">
        <g transform="translate(0.50,1.82) rotate(8.65) scale(0.880)">
        <path d="M0.0,-74.9 L22.0,-30.3 L71.2,-23.1 L35.6,11.6 L44.0,60.6 L0.0,37.4 L-44.0,60.6 L-35.6,11.6 L-71.2,-23.1 L-22.0,-30.3Z" fill="url(#lgrad0)" filter="url(#blur0)" opacity="0.90"/>
      </g>
      </g>
      </g>
      </g>
      </g>
      </g>
      </g>
  </g>
  <g transform="translate(299.7, 85.3)">
      <g transform="translate(-4.73,-1.29) rotate(4.96) scale(1.000)">
        <g transform="translate(-4.93,-0.11) rotate(9.49) scale(0.980)">
        <g transform="translate(-3.91,1.07) rotate(13.01) scale(0.960)">
        <g transform="translate(-1.94,2.16) rotate(15.02) scale(0.940)">
        <g transform="translate(0.50,3.06) rotate(15.12) scale(0.920)">
        <g transform="translate(2.83,3.69) rotate(13.04) scale(0.900)" mask="url(#maskCircleFade)">
        <g transform="translate(4.46,3.98) rotate(8.65) scale(0.880)">
        <rect x="-33.3" y="-33.3" width="66.5" height="66.5" rx="16.6" fill="url(#rgrad1)" filter="url(#shadow)" opacity="0.87"/>
        <circle cx="0" cy="0" r="22.2" fill="url(#rgrad2)" opacity="0.61"/>
      </g>
      </g>
      </g>
      </g>
      </g>
      </g>
      </g>
  </g>
  <g transform="translate(511.6, 101.8)">
      <g transform="translate(-3.91,2.49) rotate(4.96) scale(1.000)">
        <g transform="translate(-1.94,3.30) rotate(9.49) scale(0.980)">
        <g transform="translate(0.50,3.82) rotate(13.01) scale(0.960)">
        <g transform="translate(2.83,4.00) rotate(15.02) scale(0.940)">
        <g transform="translate(4.46,3.82) rotate(15.12) scale(0.920)">
        <g transform="translate(5.00,3.30) rotate(13.04) scale(0.900)">
        <g transform="translate(4.31,2.48) rotate(8.65) scale(0.880)">
        <path d="M27.1,15.6 L0.0,31.3 L-27.1,15.6 L-27.1,-15.6 L-0.0,-31.3 L27.1,-15.6Z" fill="url(#rgrad2)" filter="url(#blur2)" opacity="0.80"/>
        <ellipse cx="0" cy="0" rx="13.0" ry="8.7" fill="#FFFFFF" opacity="0.40"/>
      </g>
      </g>
      </g>
      </g>
      </g>
      </g>
      </g>
  </g>
  <g transform="translate(730.4, 117.4)">
      <g transform="translate(0.50,3.98) rotate(4.96) scale(1.000)">
        <g transform="translate(2.83,3.68) rotate(9.49) scale(0.980)">
        <g transform="translate(4.46,3.06) rotate(13.01) scale(0.960)">
        <g transform="translate(5.00,2.16) rotate(15.02) scale(0.940)" clip-path="url(#clipRect)">
        <g transform="translate(4.31,1.07) rotate(15.12) scale(0.920)">
        <g transform="translate(2.58,-0.12) rotate(13.04) scale(0.900)">
        <g transform="translate(0.21,-1.30) rotate(8.65) scale(0.880)">
        <circle cx="0" cy="0" r="22.5" fill="url(#lgrad3)" filter="url(#shadow)" opacity="0.71"/>
        <text x="0" y="5" text-anchor="middle" font-family="Arial, sans-serif" font-size="14" fill="#FFFFFF" opacity="0.71">539</text>
      </g>
      </g>
      </g>
      </g>
      </g>
      </g>
      </g>
  </g>
  <g transform="translate(956.5, 124.9)">
      <g transform="translate(4.46,1.81) rotate(4.96) scale(1.000)">
        <g transform="translate(5.00,0.68) rotate(9.49) scale(0.980)">
        <g transform="translate(4.31,-0.52) rotate(13.01) scale(0.960)">
        <g transform="translate(2.58,-1.67) rotate(15.02) scale(0.940)">
        <g transform="translate(0.21,-2.67) rotate(15.12) scale(0.920)">
        <g transform="translate(-2.22,-3.43) rotate(13.04) scale(0.900)" mask="url(#maskGradient)">
        <g transform="translate(-4.09,-3.88) rotate(8.65) scale(0.880)">
        <path d="M0.0,-51.6 L15.2,-20.9 L49.1,-16.0 L24.6,8.0 L30.4,41.8 L0.0,25.8 L-30.4,41.8 L-24.6,8.0 L-49.1,-16.0 L-15.2,-20.9Z" fill="url(#rgrad4)" filter="url(#blur4)" opacity="0.60"/>
      </g>
      </g>
      </g>
      </g>
      </g>
      </g>
      </g>
  </g>
  <g transform="translate(1188.3, 120.6)">
      <g transform="translate(4.31,-2.02) rotate(4.96) scale(1.000)">
        <g transform="translate(2.58,-2.95) rotate(9.49) scale(0.980)">
        <g transform="translate(0.21,-3.62) rotate(13.01) scale(0.960)">
        <g transform="translate(-2.22,-3.96) rotate(15.02) scale(0.940)">
        <g transform="translate(-4.09,-3.95) rotate(15.12) scale(0.920)">
        <g transform="translate(-4.97,-3.59) rotate(13.04) scale(0.900)">
        <g transform="translate(-4.63,-2.90) rotate(8.65) scale(0.880)">
        <rect x="-33.0" y="-33.0" width="66.0" height="66.0" rx="16.5" fill="url(#rgrad0)" filter="url(#shadow)" opacity="0.48"/>
        <circle cx="0" cy="0" r="22.0" fill="url(#rgrad1)" opacity="0.34"/>
      </g>
      </g>
      </g>
      </g>
      </g>
      </g>
      </g>
  </g>
  <g transform="translate(1423.0, 106.7)">
      <g transform="translate(0.21,-4.00) rotate(4.96) scale(1.000)">
        <g transform="translate(-2.22,-3.87) rotate(9.49) scale(0.980)">
        <g transform="translate(-4.09,-3.39) rotate(13.01) scale(0.960)">
        <g transform="translate(-4.97,-2.61) rotate(15.02) scale(0.940)" clip-path="url(#clipStar)">
        <g transform="translate(-4.63,-1.60) rotate(15.12) scale(0.920)">
        <g transform="translate(-3.15,-0.45) rotate(13.04) scale(0.900)">
        <g transform="translate(-0.91,0.75) rotate(8.65) scale(0.880)">
        <path d="M38.9,22.4 L0.0,44.9 L-38.9,22.4 L-38.9,-22.4 L-0.0,-44.9 L38.9,-22.4Z" fill="url(#lgrad1)" filter="url(#blur1)" opacity="0.36"/>
        <ellipse cx="0" cy="0" rx="18.7" ry="12.5" fill="#FFFFFF" opacity="0.18"/>
      </g>
      </g>
      </g>
      </g>
      </g>
      </g>
      </g>
  </g>
  <g transform="translate(1657.0, 89.6)">
      <g transform="translate(-4.09,-2.30) rotate(4.96) scale(1.000)">
        <g transform="translate(-4.97,-1.23) rotate(9.49) scale(0.980)">
        <g transform="translate(-4.63,-0.05) rotate(13.01) scale(0.960)">
        <g transform="translate(-3.15,1.14) rotate(15.02) scale(0.940)">
        <g transform="translate(-0.91,2.22) rotate(15.12) scale(0.920)">
        <g transform="translate(1.56,3.10) rotate(13.04) scale(0.900)" mask="url(#maskDynamic)">
        <g transform="translate(3.65,3.71) rotate(8.65) scale(0.880)">
        <circle cx="0" cy="0" r="35.0" fill="url(#rgrad2)" filter="url(#shadow)" opacity="0.26"/>
        <text x="0" y="5" text-anchor="middle" font-family="Arial, sans-serif" font-size="14" fill="#FFFFFF" opacity="0.26">539</text>
      </g>
      </g>
      </g>
      </g>
      </g>
      </g>
      </g>
  </g>
  <g transform="translate(126.7, 357.4)">
      <g transform="translate(-4.63,1.51) rotate(4.96) scale(1.000)">
        <g transform="translate(-3.15,2.54) rotate(9.49) scale(0.980)">
        <g transform="translate(-0.91,3.34) rotate(13.01) scale(0.960)">
        <g transform="translate(1.56,3.84) rotate(15.02) scale(0.940)">
        <g transform="translate(3.65,4.00) rotate(15.12) scale(0.920)">
        <g transform="translate(4.84,3.80) rotate(13.04) scale(0.900)">
        <g transform="translate(4.85,3.26) rotate(8.65) scale(0.880)">
        <path d="M0.0,-56.0 L16.5,-22.7 L53.3,-17.3 L26.6,8.7 L32.9,45.3 L0.0,28.0 L-32.9,45.3 L-26.6,8.7 L-53.3,-17.3 L-16.5,-22.7Z" fill="url(#rgrad3)" filter="url(#blur3)" opacity="0.17"/>
      </g>
      </g>
      </g>
      </g>
      </g>
      </g>
      </g>
  </g>
  <g transform="translate(350.0, 355.8)">
      <g transform="translate(-0.91,3.93) rotate(4.96) scale(1.000)">
        <g transform="translate(1.56,3.97) rotate(9.49) scale(0.980)">
        <g transform="translate(3.65,3.66) rotate(13.01) scale(0.960)">
        <g transform="translate(4.84,3.01) rotate(15.02) scale(0.940)" clip-path="url(#clipDynamic)">
        <g transform="translate(4.85,2.10) rotate(15.12) scale(0.920)">
        <g transform="translate(3.67,1.00) rotate(13.04) scale(0.900)">
        <g transform="translate(1.59,-0.19) rotate(8.65) scale(0.880)">
        <rect x="-22.8" y="-22.8" width="45.7" height="45.7" rx="11.4" fill="url(#lgrad4)" filter="url(#shadow)" opacity="0.12"/>
        <circle cx="0" cy="0" r="15.2" fill="url(#rgrad0)" opacity="0.08"/>
      </g>
      </g>
      </g>
      </g>
      </g>
      </g>
      </g>
  </g>
  <g transform="translate(565.9, 365.6)">
      <g transform="translate(3.65,2.74) rotate(4.96) scale(1.000)">
        <g transform="translate(4.84,1.75) rotate(9.49) scale(0.980)">
        <g transform="translate(4.85,0.61) rotate(13.01) scale(0.960)">
        <g transform="translate(3.67,-0.58) rotate(15.02) scale(0.940)">
        <g transform="translate(1.59,-1.73) rotate(15.12) scale(0.920)">
        <g transform="translate(-0.87,-2.72) rotate(13.04) scale(0.900)" mask="url(#maskStripes)">
        <g transform="translate(-3.13,-3.46) rotate(8.65) scale(0.880)">
        <path d="M25.2,14.5 L0.0,29.1 L-25.2,14.5 L-25.2,-14.5 L-0.0,-29.1 L25.2,-14.5Z" fill="url(#rgrad0)" filter="url(#blur0)" opacity="0.10"/>
        <ellipse cx="0" cy="0" rx="12.1" ry="8.1" fill="#FFFFFF" opacity="0.05"/>
      </g>
      </g>
      </g>
      </g>
      </g>
      </g>
      </g>
  </g>
  <g transform="translate(775.5, 382.2)">
      <g transform="translate(4.85,-0.98) rotate(4.96) scale(1.000)">
        <g transform="translate(3.67,-2.08) rotate(9.49) scale(0.980)">
        <g transform="translate(1.59,-3.00) rotate(13.01) scale(0.960)">
        <g transform="translate(-0.87,-3.65) rotate(15.02) scale(0.940)">
        <g transform="translate(-3.13,-3.97) rotate(15.12) scale(0.920)">
        <g transform="translate(-4.61,-3.94) rotate(13.04) scale(0.900)">
        <g transform="translate(-4.97,-3.56) rotate(8.65) scale(0.880)">
        <circle cx="0" cy="0" r="30.9" fill="url(#rgrad1)" filter="url(#shadow)" opacity="0.12"/>
        <text x="0" y="5" text-anchor="middle" font-family="Arial, sans-serif" font-size="14" fill="#FFFFFF" opacity="0.12">539</text>
      </g>
      </g>
      </g>
      </g>
      </g>
      </g>
      </g>
  </g>
  <g transform="translate(981.2, 397.7)">
      <g transform="translate(1.59,-3.79) rotate(4.96) scale(1.000)">
        <g transform="translate(-0.87,-4.00) rotate(9.49) scale(0.980)">
        <g transform="translate(-3.13,-3.85) rotate(13.01) scale(0.960)">
        <g transform="translate(-4.61,-3.36) rotate(15.02) scale(0.940)" clip-path="url(#clipHex)">
        <g transform="translate(-4.97,-2.56) rotate(15.12) scale(0.920)">
        <g transform="translate(-4.11,-1.54) rotate(13.04) scale(0.900)">
        <g transform="translate(-2.25,-0.38) rotate(8.65) scale(0.880)">
        <path d="M0.0,-73.5 L21.6,-29.7 L69.9,-22.7 L35.0,11.4 L43.2,59.5 L0.0,36.8 L-43.2,59.5 L-35.0,11.4 L-69.9,-22.7 L-21.6,-29.7Z" fill="url(#lgrad2)" filter="url(#blur2)" opacity="0.17"/>
      </g>
      </g>
      </g>
      </g>
      </g>
      </g>
      </g>
  </g>
  <g transform="translate(1186.7, 404.9)">
      <g transform="translate(-3.13,-3.12) rotate(4.96) scale(1.000)">
        <g transform="translate(-4.61,-2.24) rotate(9.49) scale(0.980)">
        <g transform="translate(-4.97,-1.16) rotate(13.01) scale(0.960)">
        <g transform="translate(-4.11,0.02) rotate(15.02) scale(0.940)">
        <g transform="translate(-2.25,1.20) rotate(15.12) scale(0.920)">
        <g transform="translate(0.17,2.27) rotate(13.04) scale(0.900)" mask="url(#maskCircleFade)">
        <g transform="translate(2.55,3.15) rotate(8.65) scale(0.880)">
        <rect x="-36.4" y="-36.4" width="72.8" height="72.8" rx="18.2" fill="url(#rgrad3)" filter="url(#shadow)" opacity="0.24"/>
        <circle cx="0" cy="0" r="24.3" fill="url(#rgrad4)" opacity="0.17"/>
      </g>
      </g>
      </g>
      </g>
      </g>
      </g>
      </g>
  </g>
  <g transform="translate(1395.4, 400.4)">
      <g transform="translate(-4.97,0.42) rotate(4.96) scale(1.000)">
        <g transform="translate(-4.11,1.58) rotate(9.49) scale(0.980)">
        <g transform="translate(-2.25,2.59) rotate(13.01) scale(0.960)">
        <g transform="translate(0.17,3.38) rotate(15.02) scale(0.940)">
        <g transform="translate(2.55,3.86) rotate(15.12) scale(0.920)">
        <g transform="translate(4.30,4.00) rotate(13.04) scale(0.900)">
        <g transform="translate(5.00,3.78) rotate(8.65) scale(0.880)">
        <path d="M31.3,18.1 L0.0,36.1 L-31.3,18.1 L-31.3,-18.1 L-0.0,-36.1 L31.3,-18.1Z" fill="url(#rgrad4)" filter="url(#blur4)" opacity="0.35"/>
        <ellipse cx="0" cy="0" rx="15.1" ry="10.0" fill="#FFFFFF" opacity="0.17"/>
      </g>
      </g>
      </g>
      </g>
      </g>
      </g>
      </g>
  </g>
  <g transform="translate(1610.2, 386.3)">
      <g transform="translate(-2.25,3.57) rotate(4.96) scale(1.000)">
        <g transform="translate(0.17,3.95) rotate(9.49) scale(0.980)">
        <g transform="translate(2.55,3.96) rotate(13.01) scale(0.960)">
        <g transform="translate(4.30,3.63) rotate(15.02) scale(0.940)" clip-path="url(#clipCircle)">
        <g transform="translate(5.00,2.97) rotate(15.12) scale(0.920)">
        <g transform="translate(4.47,2.04) rotate(13.04) scale(0.900)">
        <g transform="translate(2.85,0.94) rotate(8.65) scale(0.880)">
        <circle cx="0" cy="0" r="23.8" fill="url(#lgrad0)" filter="url(#shadow)" opacity="0.46"/>
        <text x="0" y="5" text-anchor="middle" font-family="Arial, sans-serif" font-size="14" fill="#FFFFFF" opacity="0.46">539</text>
      </g>
      </g>
      </g>
      </g>
      </g>
      </g>
      </g>
  </g>
  <g transform="translate(72.2, 649.2)">
      <g transform="translate(2.55,3.44) rotate(4.96) scale(1.000)">
        <g transform="translate(4.30,2.69) rotate(9.49) scale(0.980)">
        <g transform="translate(5.00,1.69) rotate(13.01) scale(0.960)">
        <g transform="translate(4.47,0.54) rotate(15.02) scale(0.940)">
        <g transform="translate(2.85,-0.65) rotate(15.12) scale(0.920)">
        <g transform="translate(0.54,-1.79) rotate(13.04) scale(0.900)" mask="url(#maskGradient)">
        <g transform="translate(-1.91,-2.77) rotate(8.65) scale(0.880)">
        <path d="M0.0,-46.3 L13.6,-18.7 L44.0,-14.3 L22.0,7.1 L27.2,37.4 L0.0,23.1 L-27.2,37.4 L-22.0,7.1 L-44.0,-14.3 L-13.6,-18.7Z" fill="url(#rgrad1)" filter="url(#blur1)" opacity="0.58"/>
      </g>
      </g>
      </g>
      </g>
      </g>
      </g>
      </g>
  </g>
  <g transform="translate(301.1, 637.2)">
      <g transform="translate(5.00,0.15) rotate(4.96) scale(1.000)">
        <g transform="translate(4.47,-1.04) rotate(9.49) scale(0.980)">
        <g transform="translate(2.85,-2.14) rotate(13.01) scale(0.960)">
        <g transform="translate(0.54,-3.04) rotate(15.02) scale(0.940)">
        <g transform="translate(-1.91,-3.67) rotate(15.12) scale(0.920)">
        <g transform="translate(-3.89,-3.98) rotate(13.04) scale(0.900)">
        <g transform="translate(-4.92,-3.93) rotate(8.65) scale(0.880)">
        <rect x="-28.8" y="-28.8" width="57.6" height="57.6" rx="14.4" fill="url(#rgrad2)" filter="url(#shadow)" opacity="0.69"/>
        <circle cx="0" cy="0" r="19.2" fill="url(#rgrad3)" opacity="0.49"/>
      </g>
      </g>
      </g>
      </g>
      </g>
      </g>
      </g>
  </g>
  <g transform="translate(534.6, 635.9)">
      <g transform="translate(2.85,-3.28) rotate(4.96) scale(1.000)">
        <g transform="translate(0.54,-3.81) rotate(9.49) scale(0.980)">
        <g transform="translate(-1.91,-4.00) rotate(13.01) scale(0.960)">
        <g transform="translate(-3.89,-3.83) rotate(15.02) scale(0.940)" clip-path="url(#clipRect)">
        <g transform="translate(-4.92,-3.32) rotate(15.12) scale(0.920)">
        <g transform="translate(-4.74,-2.51) rotate(13.04) scale(0.900)">
        <g transform="translate(-3.40,-1.48) rotate(8.65) scale(0.880)">
        <path d="M37.0,21.4 L0.0,42.7 L-37.0,21.4 L-37.0,-21.4 L-0.0,-42.7 L37.0,-21.4Z" fill="url(#lgrad3)" filter="url(#blur3)" opacity="0.79"/>
        <ellipse cx="0" cy="0" rx="17.8" ry="11.9" fill="#FFFFFF" opacity="0.39"/>
      </g>
      </g>
      </g>
      </g>
      </g>
      </g>
      </g>
  </g>
  <g transform="translate(769.4, 646.0)">
      <g transform="translate(-1.91,-3.70) rotate(4.96) scale(1.000)">
        <g transform="translate(-3.89,-3.08) rotate(9.49) scale(0.980)">
        <g transform="translate(-4.92,-2.19) rotate(13.01) scale(0.960)">
        <g transform="translate(-4.74,-1.10) rotate(15.02) scale(0.940)">
        <g transform="translate(-3.40,0.09) rotate(15.12) scale(0.920)">
        <g transform="translate(-1.23,1.27) rotate(13.04) scale(0.900)" mask="url(#maskDynamic)">
        <g transform="translate(1.24,2.33) rotate(8.65) scale(0.880)">
        <circle cx="0" cy="0" r="37.2" fill="url(#rgrad4)" filter="url(#shadow)" opacity="0.86"/>
        <text x="0" y="5" text-anchor="middle" font-family="Arial, sans-serif" font-size="14" fill="#FFFFFF" opacity="0.86">539</text>
      </g>
      </g>
      </g>
      </g>
      </g>
      </g>
      </g>
  </g>
  <g transform="translate(1001.9, 662.6)">
      <g transform="translate(-4.92,-0.71) rotate(4.96) scale(1.000)">
        <g transform="translate(-4.74,0.49) rotate(9.49) scale(0.980)">
        <g transform="translate(-3.40,1.64) rotate(13.01) scale(0.960)">
        <g transform="translate(-1.23,2.64) rotate(15.02) scale(0.940)">
        <g transform="translate(1.24,3.41) rotate(15.12) scale(0.920)">
        <g transform="translate(3.41,3.88) rotate(13.04) scale(0.900)">
        <g transform="translate(4.75,3.99) rotate(8.65) scale(0.880)">
        <path d="M0.0,-64.4 L18.9,-26.1 L61.3,-19.9 L30.6,10.0 L37.9,52.1 L0.0,32.2 L-37.9,52.1 L-30.6,10.0 L-61.3,-19.9 L-18.9,-26.1Z" fill="url(#rgrad0)" filter="url(#blur0)" opacity="0.89"/>
      </g>
      </g>
      </g>
      </g>
      </g>
      </g>
      </g>
  </g>
  <g transform="translate(1229.0, 678.0)">
      <g transform="translate(-3.40,2.93) rotate(4.96) scale(1.000)">
        <g transform="translate(-1.23,3.60) rotate(9.49) scale(0.980)">
        <g transform="translate(1.24,3.96) rotate(13.01) scale(0.960)">
        <g transform="translate(3.41,3.95) rotate(15.02) scale(0.940)" clip-path="url(#clipStar)">
        <g transform="translate(4.75,3.60) rotate(15.12) scale(0.920)">
        <g transform="translate(4.92,2.92) rotate(13.04) scale(0.900)">
        <g transform="translate(3.89,1.99) rotate(8.65) scale(0.880)">
        <rect x="-25.2" y="-25.2" width="50.3" height="50.3" rx="12.6" fill="url(#lgrad1)" filter="url(#shadow)" opacity="0.90"/>
        <circle cx="0" cy="0" r="16.8" fill="url(#rgrad2)" opacity="0.63"/>
      </g>
      </g>
      </g>
      </g>
      </g>
      </g>
      </g>
  </g>
  <g transform="translate(1449.1, 684.9)">
      <g transform="translate(1.24,3.87) rotate(4.96) scale(1.000)">
        <g transform="translate(3.41,3.41) rotate(9.49) scale(0.980)">
        <g transform="translate(4.75,2.64) rotate(13.01) scale(0.960)">
        <g transform="translate(4.92,1.63) rotate(15.02) scale(0.940)">
        <g transform="translate(3.89,0.48) rotate(15.12) scale(0.920)">
        <g transform="translate(1.90,-0.72) rotate(13.04) scale(0.900)" mask="url(#maskStripes)">
        <g transform="translate(-0.55,-1.85) rotate(8.65) scale(0.880)">
        <path d="M23.4,13.5 L0.0,27.1 L-23.4,13.5 L-23.4,-13.5 L-0.0,-27.1 L23.4,-13.5Z" fill="url(#rgrad2)" filter="url(#blur2)" opacity="0.86"/>
        <ellipse cx="0" cy="0" rx="11.3" ry="7.5" fill="#FFFFFF" opacity="0.43"/>
      </g>
      </g>
      </g>
      </g>
      </g>
      </g>
      </g>
  </g>
  <g transform="translate(1662.0, 680.1)">
      <g transform="translate(4.75,1.26) rotate(4.96) scale(1.000)">
        <g transform="translate(4.92,0.08) rotate(9.49) scale(0.980)">
        <g transform="translate(3.89,-1.11) rotate(13.01) scale(0.960)">
        <g transform="translate(1.90,-2.19) rotate(15.02) scale(0.940)">
        <g transform="translate(-0.55,-3.08) rotate(15.12) scale(0.920)">
        <g transform="translate(-2.86,-3.70) rotate(13.04) scale(0.900)">
        <g transform="translate(-4.48,-3.98) rotate(8.65) scale(0.880)">
        <circle cx="0" cy="0" r="26.8" fill="url(#rgrad3)" filter="url(#shadow)" opacity="0.80"/>
        <text x="0" y="5" text-anchor="middle" font-family="Arial, sans-serif" font-size="14" fill="#FFFFFF" opacity="0.80">539</text>
      </g>
      </g>
      </g>
      </g>
      </g>
      </g>
      </g>
  </g>
  <g transform="translate(109.6, 945.9)">
      <g transform="translate(3.89,-2.52) rotate(4.96) scale(1.000)">
        <g transform="translate(1.90,-3.32) rotate(9.49) scale(0.980)">
        <g transform="translate(-0.55,-3.83) rotate(13.01) scale(0.960)">
        <g transform="translate(-2.86,-4.00) rotate(15.02) scale(0.940)" clip-path="url(#clipDynamic)">
        <g transform="translate(-4.48,-3.81) rotate(15.12) scale(0.920)">
        <g transform="translate(-5.00,-3.28) rotate(13.04) scale(0.900)">
        <g transform="translate(-4.29,-2.46) rotate(8.65) scale(0.880)">
        <path d="M0.0,-68.0 L20.0,-27.5 L64.6,-21.0 L32.3,10.5 L39.9,55.0 L0.0,34.0 L-39.9,55.0 L-32.3,10.5 L-64.6,-21.0 L-20.0,-27.5Z" fill="url(#lgrad4)" filter="url(#blur4)" opacity="0.70"/>
      </g>
      </g>
      </g>
      </g>
      </g>
      </g>
      </g>
  </g>
  <g transform="translate(276.0, 222.3)" mask="url(#maskGradient)">
    <ellipse cx="0" cy="0" rx="200" ry="150" fill="url(#rgrad0)" filter="url(#blur3)" opacity="0.3"/>
  </g>
  <g transform="translate(705.4, 253.0)" mask="url(#maskCircleFade)">
    <ellipse cx="0" cy="0" rx="200" ry="150" fill="url(#rgrad1)" filter="url(#blur3)" opacity="0.3"/>
  </g>
  <g transform="translate(1221.7, 305.7)" mask="url(#maskStripes)">
    <ellipse cx="0" cy="0" rx="200" ry="150" fill="url(#rgrad2)" filter="url(#blur3)" opacity="0.3"/>
  </g>
</svg>