<?xml version="1.0" encoding="UTF-8"?>
<svg xmlns="http://www.w3.org/2000/svg" viewBox="0 0 1920 1080" width="1920" height="1080">
  <defs>
    <linearGradient id="bgGrad" x1="0%" y1="0%" x2="100%" y2="100%">
      <stop offset="0%" stop-color="#00CED1"/>
      <stop offset="100%" stop-color="#FF69B4"/>
    </linearGradient>
    <clipPath id="complexClip"><polygon points="1602.4,540.0 1548.6,581.8 1468.9,613.5 1336.1,623.8 1537.7,718.6 1378.7,711.1 1341.3,741.4 1365.0,815.4 1306.3,847.0 1131.9,745.5 1098.3,779.4 1061.3,838.7 991.6,822.6 933.7,774.8 884.7,762.0 768.6,871.3 765.2,772.9 696.8,773.3 549.1,819.4 584.5,738.4 600.9,686.8 462.0,694.0 594.1,621.5 461.3,612.0 555.8,568.7 347.6,540.0 429.1,502.3 354.2,452.5 454.9,427.5 400.4,367.0 465.1,337.7 530.9,313.3 605.2,298.8 710.3,318.7 686.6,213.2 752.6,181.0 869.6,273.5 930.0,271.6 990.6,266.4 1084.0,174.5 1121.4,260.7 1184.5,271.6 1208.4,319.9 1309.6,302.3 1412.4,301.0 1486.3,324.9 1476.1,380.4 1369.7,448.8 1550.7,454.7 1620.2,493.1"/></clipPath>
    <radialGradient id="leaf0" cx="50%" cy="50%" r="70%">
      <stop offset="0%" stop-color="#9370DB"/>
      <stop offset="50%" stop-color="#FF6B6B"/>
      <stop offset="100%" stop-color="#FFD700"/>
    </radialGradient>
    <radialGradient id="leaf1" cx="50%" cy="50%" r="70%">
      <stop offset="0%" stop-color="#9370DB"/>
      <stop offset="50%" stop-color="#4ECDC4"/>
      <stop offset="100%" stop-color="#FF1493"/>
    </radialGradient>
    <radialGradient id="leaf2" cx="50%" cy="50%" r="70%">
      <stop offset="0%" stop-color="#DC143C"/>
      <stop offset="50%" stop-color="#9370DB"/>
      <stop offset="100%" stop-color="#96E6A1"/>
    </radialGradient>
    <radialGradient id="leaf3" cx="50%" cy="50%" r="70%">
      <stop offset="0%" stop-color="#00CED1"/>
      <stop offset="50%" stop-color="#7B68EE"/>
      <stop offset="100%" stop-color="#96E6A1"/>
    </radialGradient>
    <radialGradient id="leaf4" cx="50%" cy="50%" r="70%">
      <stop offset="0%" stop-color="#FF6B6B"/>
      <stop offset="50%" stop-color="#32CD32"/>
      <stop offset="100%" stop-color="#FFE66D"/>
    </radialGradient>
    <radialGradient id="leaf5" cx="50%" cy="50%" r="70%">
      <stop offset="0%" stop-color="#FF4500"/>
      <stop offset="50%" stop-color="#96E6A1"/>
      <stop offset="100%" stop-color="#FF6B6B"/>
    </radialGradient>
    <radialGradient id="leaf6" cx="50%" cy="50%" r="70%">
      <stop offset="0%" stop-color="#FF1493"/>
      <stop offset="50%" stop-color="#FF4500"/>
      <stop offset="100%" stop-color="#4ECDC4"/>
    </radialGradient>
    <radialGradient id="leaf7" cx="50%" cy="50%" r="70%">
      <stop offset="0%" stop-color="#4ECDC4"/>
      <stop offset="50%" stop-color="#DC143C"/>
      <stop offset="100%" stop-color="#FFE66D"/>
    </radialGradient>
    <radialGradient id="leaf8" cx="50%" cy="50%" r="70%">
      <stop offset="0%" stop-color="#FF4500"/>
      <stop offset="50%" stop-color="#FF6B6B"/>
      <stop offset="100%" stop-color="#FFD700"/>
    </radialGradient>
    <radialGradient id="leaf9" cx="50%" cy="50%" r="70%">
      <stop offset="0%" stop-color="#DC143C"/>
      <stop offset="50%" stop-color="#96E6A1"/>
      <stop offset="100%" stop-color="#7B68EE"/>
    </radialGradient>
    <radialGradient id="leaf10" cx="50%" cy="50%" r="70%">
      <stop offset="0%" stop-color="#7B68EE"/>
      <stop offset="50%" stop-color="#32CD32"/>
      <stop offset="100%" stop-color="#96E6A1"/>
    </radialGradient>
    <radialGradient id="leaf11" cx="50%" cy="50%" r="70%">
      <stop offset="0%" stop-color="#00FA9A"/>
      <stop offset="50%" stop-color="#FFD700"/>
      <stop offset="100%" stop-color="#FF1493"/>
    </radialGradient>
    <radialGradient id="leaf12" cx="50%" cy="50%" r="70%">
      <stop offset="0%" stop-color="#DC143C"/>
      <stop offset="50%" stop-color="#FF4500"/>
      <stop offset="100%" stop-color="#FF69B4"/>
    </radialGradient>
    <radialGradient id="leaf13" cx="50%" cy="50%" r="70%">
      <stop offset="0%" stop-color="#4ECDC4"/>
      <stop offset="50%" stop-color="#FF69B4"/>
      <stop offset="100%" stop-color="#FF4500"/>
    </radialGradient>
    <radialGradient id="leaf14" cx="50%" cy="50%" r="70%">
      <stop offset="0%" stop-color="#FFE66D"/>
      <stop offset="50%" stop-color="#45B7D1"/>
      <stop offset="100%" stop-color="#00CED1"/>
    </radialGradient>
    <radialGradient id="leaf15" cx="50%" cy="50%" r="70%">
      <stop offset="0%" stop-color="#00FA9A"/>
      <stop offset="50%" stop-color="#45B7D1"/>
      <stop offset="100%" stop-color="#DC143C"/>
    </radialGradient>
    <radialGradient id="leaf16" cx="50%" cy="50%" r="70%">
      <stop offset="0%" stop-color="#FFE66D"/>
      <stop offset="50%" stop-color="#96E6A1"/>
      <stop offset="100%" stop-color="#32CD32"/>
    </radialGradient>
    <radialGradient id="leaf17" cx="50%" cy="50%" r="70%">
      <stop offset="0%" stop-color="#45B7D1"/>
      <stop offset="50%" stop-color="#4ECDC4"/>
      <stop offset="100%" stop-color="#96E6A1"/>
    </radialGradient>
    <radialGradient id="leaf18" cx="50%" cy="50%" r="70%">
      <stop offset="0%" stop-color="#FFD700"/>
      <stop offset="50%" stop-color="#9370DB"/>
      <stop offset="100%" stop-color="#FF69B4"/>
    </radialGradient>
    <radialGradient id="leaf19" cx="50%" cy="50%" r="70%">
      <stop offset="0%" stop-color="#00FA9A"/>
      <stop offset="50%" stop-color="#45B7D1"/>
      <stop offset="100%" stop-color="#FF1493"/>
    </radialGradient>
    <radialGradient id="leaf20" cx="50%" cy="50%" r="70%">
      <stop offset="0%" stop-color="#FF6B6B"/>
      <stop offset="50%" stop-color="#DC143C"/>
      <stop offset="100%" stop-color="#4ECDC4"/>
    </radialGradient>
    <radialGradient id="leaf21" cx="50%" cy="50%" r="70%">
      <stop offset="0%" stop-color="#FFD700"/>
      <stop offset="50%" stop-color="#FF69B4"/>
      <stop offset="100%" stop-color="#FF1493"/>
    </radialGradient>
    <radialGradient id="leaf22" cx="50%" cy="50%" r="70%">
      <stop offset="0%" stop-color="#FFD700"/>
      <stop offset="50%" stop-color="#FF4500"/>
      <stop offset="100%" stop-color="#00CED1"/>
    </radialGradient>
    <radialGradient id="leaf23" cx="50%" cy="50%" r="70%">
      <stop offset="0%" stop-color="#32CD32"/>
      <stop offset="50%" stop-color="#7B68EE"/>
      <stop offset="100%" stop-color="#45B7D1"/>
    </radialGradient>
    <radialGradient id="leaf24" cx="50%" cy="50%" r="70%">
      <stop offset="0%" stop-color="#DC143C"/>
      <stop offset="50%" stop-color="#00FA9A"/>
      <stop offset="100%" stop-color="#9370DB"/>
    </radialGradient>
    <radialGradient id="leaf25" cx="50%" cy="50%" r="70%">
      <stop offset="0%" stop-color="#FF6B6B"/>
      <stop offset="50%" stop-color="#FFD700"/>
      <stop offset="100%" stop-color="#00FA9A"/>
    </radialGradient>
    <radialGradient id="leaf26" cx="50%" cy="50%" r="70%">
      <stop offset="0%" stop-color="#FFD700"/>
      <stop offset="50%" stop-color="#00FA9A"/>
      <stop offset="100%" stop-color="#FF6B6B"/>
    </radialGradient>
    <radialGradient id="leaf27" cx="50%" cy="50%" r="70%">
      <stop offset="0%" stop-color="#00FA9A"/>
      <stop offset="50%" stop-color="#FF6B6B"/>
      <stop offset="100%" stop-color="#7B68EE"/>
    </radialGradient>
    <radialGradient id="leaf28" cx="50%" cy="50%" r="70%">
      <stop offset="0%" stop-color="#00CED1"/>
      <stop offset="50%" stop-color="#FF6B6B"/>
      <stop offset="100%" stop-color="#4ECDC4"/>
    </radialGradient>
    <radialGradient id="leaf29" cx="50%" cy="50%" r="70%">
      <stop offset="0%" stop-color="#7B68EE"/>
      <stop offset="50%" stop-color="#4ECDC4"/>
      <stop offset="100%" stop-color="#96E6A1"/>
    </radialGradient>
  </defs>

  <!-- Scaled content -->
  <g transform="translate(960.0,540.0) scale(3.0) translate(-960.0,-540.0)">
    <!-- Background -->
    <rect width="1920" height="1080" fill="url(#bgGrad)"/>
    
    <!-- Leaves with clip-path -->
    <g clip-path="url(#complexClip)">
    <path d="M 1071.9610878388435,834.1771442089735 C 1102.5116867397096,859.635976626362 1112.695219706665,895.278342010706 1071.9610878388435,936.0124738785275 C 1031.2269559710219,895.278342010706 1041.4104889379773,859.635976626362 1071.9610878388435,834.1771442089735 Z" fill="url(#leaf0)" opacity="0.17" transform="rotate(321.0 1072.0 885.1)"/>
    <path d="M 119.35404354918249,661.306990358006 C 147.49272460434943,684.7558912373117 156.87228495607175,717.5843524683398 119.35404354918249,755.1025938752291 C 81.83580214229323,717.5843524683398 91.21536249401555,684.7558912373117 119.35404354918249,661.306990358006 Z" fill="url(#leaf1)" opacity="0.24" transform="rotate(79.5 119.4 708.2)"/>
    <path d="M 803.7856709366072,725.4837015994485 C 839.7615858591571,755.4636307015734 851.753557500007,797.4355314445484 803.7856709366072,845.4034180079482 C 755.8177843732074,797.4355314445484 767.8097560140573,755.4636307015734 803.7856709366072,725.4837015994485 Z" fill="url(#leaf2)" opacity="0.20" transform="rotate(124.3 803.8 785.4)"/>
    <path d="M 156.08166042893964,726.9790535614609 C 181.56535482522924,748.2154655583688 190.05991962399244,777.9464423540401 156.08166042893964,811.9247015490928 C 122.10340123388684,777.9464423540401 130.59796603265005,748.2154655583688 156.08166042893964,726.9790535614609 Z" fill="url(#leaf3)" opacity="0.22" transform="rotate(276.4 156.1 769.5)"/>
    <path d="M 809.4445996331146,73.24181117997755 C 847.202345788221,104.7065996425662 859.7882611732565,148.7573034901903 809.4445996331146,199.10096503033213 C 759.1009380929728,148.7573034901903 771.6868534780083,104.7065996425662 809.4445996331146,73.24181117997755 Z" fill="url(#leaf4)" opacity="0.15" transform="rotate(150.4 809.4 136.2)"/>
    <path d="M 1529.0001694369919,198.14818144891018 C 1547.1874407319635,213.30424086138663 1553.2498644969542,234.52272403885362 1529.0001694369919,258.77241909881593 C 1504.7504743770296,234.52272403885362 1510.8128981420202,213.30424086138663 1529.0001694369919,198.14818144891018 Z" fill="url(#leaf5)" opacity="0.16" transform="rotate(260.0 1529.0 228.5)"/>
    <path d="M 1530.0788440029698,2.054308115774326 C 1563.1588101309967,29.62094655579675 1574.1854655070058,68.21424037182814 1530.0788440029698,112.32086187586401 C 1485.972222498934,68.21424037182814 1496.998877874943,29.62094655579675 1530.0788440029698,2.054308115774326 Z" fill="url(#leaf6)" opacity="0.18" transform="rotate(34.3 1530.1 57.2)"/>
    <path d="M 525.4689191259711,965.349851429412 C 552.2137903336987,987.6372441025184 561.1287474029414,1018.8395938448673 525.4689191259711,1054.4994221218376 C 489.8090908490008,1018.8395938448673 498.7240479182434,987.6372441025184 525.4689191259711,965.349851429412 Z" fill="url(#leaf7)" opacity="0.20" transform="rotate(344.8 525.5 1009.9)"/>
    <path d="M 1572.1334785084423,955.1355688853332 C 1612.0286203053008,988.3815203827153 1625.3270009042535,1034.9258524790503 1572.1334785084423,1088.1193748748615 C 1518.939956112631,1034.9258524790503 1532.2383367115838,988.3815203827153 1572.1334785084423,955.1355688853332 Z" fill="url(#leaf8)" opacity="0.18" transform="rotate(163.8 1572.1 1021.6)"/>
    <path d="M 713.9175669072828,575.1190777998978 C 753.9037688040386,608.4409127138609 767.2325027696239,655.0914815934094 713.9175669072828,708.4064174557506 C 660.6026310449416,655.0914815934094 673.931365010527,608.4409127138609 713.9175669072828,575.1190777998978 Z" fill="url(#leaf9)" opacity="0.16" transform="rotate(71.4 713.9 641.8)"/>
    <path d="M 526.772939874708,910.4369668336271 C 570.7751842794315,947.1055038375634 585.442599081006,998.4414556430743 526.772939874708,1057.1111148493724 C 468.10328066840987,998.4414556430743 482.7706954699844,947.1055038375634 526.772939874708,910.4369668336271 Z" fill="url(#leaf10)" opacity="0.22" transform="rotate(6.0 526.8 983.8)"/>
    <path d="M 772.9145527851159,333.3548299875934 C 792.7190471111978,349.8585752593283 799.3205452198918,372.9638186397571 772.9145527851159,399.36981107453295 C 746.5085603503401,372.9638186397571 753.110058459034,349.8585752593283 772.9145527851159,333.3548299875934 Z" fill="url(#leaf11)" opacity="0.19" transform="rotate(319.5 772.9 366.4)"/>
    <path d="M 1139.1855922719142,839.5447797937702 C 1179.9446104238605,873.5106282537255 1193.5309498078425,921.0628160976629 1139.1855922719142,975.4081736335913 C 1084.8402347359859,921.0628160976629 1098.4265741199679,873.5106282537255 1139.1855922719142,839.5447797937702 Z" fill="url(#leaf12)" opacity="0.15" transform="rotate(224.2 1139.2 907.5)"/>
    <path d="M 1868.7985704951411,714.3119976689869 C 1915.7839745549409,753.4665010521534 1931.4457759082075,808.2828057885864 1868.7985704951411,870.9300112016527 C 1806.1513650820748,808.2828057885864 1821.8131664353414,753.4665010521534 1868.7985704951411,714.3119976689869 Z" fill="url(#leaf13)" opacity="0.20" transform="rotate(230.8 1868.8 792.6)"/>
    <path d="M 639.0202821208666,366.0701990277363 C 682.4949601227077,402.2990973626039 696.9865194566547,453.0195550314186 639.0202821208666,510.9857923672067 C 581.0540447850784,453.0195550314186 595.5456041190255,402.2990973626039 639.0202821208666,366.0701990277363 Z" fill="url(#leaf14)" opacity="0.22" transform="rotate(323.5 639.0 438.5)"/>
    <path d="M 481.38823228267773,528.7644763308735 C 516.1190102774318,557.7067913265018 527.6959362756832,598.2260323203816 481.38823228267773,644.533736313387 C 435.0805282896723,598.2260323203816 446.6574542879237,557.7067913265018 481.38823228267773,528.7644763308735 Z" fill="url(#leaf15)" opacity="0.22" transform="rotate(291.5 481.4 586.6)"/>
    <path d="M 162.52691977529693,331.0095369315572 C 191.88473942132723,355.47438663658244 201.67067930333735,389.7251762236178 162.52691977529693,428.86893575165817 C 123.38316024725651,389.7251762236178 133.16910012926664,355.47438663658244 162.52691977529693,331.0095369315572 Z" fill="url(#leaf16)" opacity="0.20" transform="rotate(182.5 162.5 379.9)"/>
    <path d="M 277.66155724914336,605.7831099537689 C 324.6064766961415,644.9038761596006 340.2547831784742,699.6729488477652 277.66155724914336,762.266174777096 C 215.06833131981247,699.6729488477652 230.71663780214521,644.9038761596006 277.66155724914336,605.7831099537689 Z" fill="url(#leaf17)" opacity="0.24" transform="rotate(44.0 277.7 684.0)"/>
    <path d="M 517.735415410581,263.84410471391305 C 548.8642698615391,289.7848167563782 559.2405546785252,326.10181361582937 517.735415410581,367.60695288377354 C 476.23027614263685,326.10181361582937 486.60656095962287,289.7848167563782 517.735415410581,263.84410471391305 Z" fill="url(#leaf18)" opacity="0.16" transform="rotate(235.1 517.7 315.7)"/>
    <path d="M 1743.2102506935146,699.9244890939035 C 1772.570890868214,724.3916892394865 1782.3577709264473,758.6457694433027 1743.2102506935146,797.7932896762354 C 1704.0627304605819,758.6457694433027 1713.849610518815,724.3916892394865 1743.2102506935146,699.9244890939035 Z" fill="url(#leaf19)" opacity="0.15" transform="rotate(325.9 1743.2 748.9)"/>
    <path d="M 1567.8329093291532,792.6080423458217 C 1605.475162560454,823.976586705239 1618.0225803042208,867.8925488084233 1567.8329093291532,918.082219783491 C 1517.6432383540855,867.8925488084233 1530.1906560978523,823.976586705239 1567.8329093291532,792.6080423458217 Z" fill="url(#leaf20)" opacity="0.24" transform="rotate(256.6 1567.8 855.3)"/>
    <path d="M 1761.7319401065613,699.913601189406 C 1804.5248994793467,735.5744006667271 1818.789219270275,785.4995199349767 1761.7319401065613,842.5567990986905 C 1704.6746609428476,785.4995199349767 1718.938980733776,735.5744006667271 1761.7319401065613,699.913601189406 Z" fill="url(#leaf21)" opacity="0.23" transform="rotate(219.1 1761.7 771.2)"/>
    <path d="M 1224.4674167033932,494.5223738776009 C 1254.3691453185083,519.4404810568634 1264.3363881902133,554.325831107831 1224.4674167033932,594.1948025946512 C 1184.598445216573,554.325831107831 1194.565688088278,519.4404810568634 1224.4674167033932,494.5223738776009 Z" fill="url(#leaf22)" opacity="0.21" transform="rotate(76.6 1224.5 544.4)"/>
    <path d="M 530.5371753236338,861.2468168457345 C 566.9361687103337,891.5793113346512 579.0691665059003,934.0448036191343 530.5371753236338,982.5767948014008 C 482.00518414136735,934.0448036191343 494.138181936934,891.5793113346512 530.5371753236338,861.2468168457345 Z" fill="url(#leaf23)" opacity="0.21" transform="rotate(61.1 530.5 921.9)"/>
    <path d="M 859.6247179782308,-8.713203905130356 C 902.2218325707335,26.78439158862181 916.4208707682343,76.48102527987484 859.6247179782308,133.2771780698783 C 802.8285651882273,76.48102527987484 817.0276033857282,26.78439158862181 859.6247179782308,-8.713203905130356 Z" fill="url(#leaf24)" opacity="0.19" transform="rotate(288.5 859.6 62.3)"/>
    <path d="M 1313.9312163987245,679.2333313350008 C 1349.349761682655,708.7487857382764 1361.1559434439653,750.0704219028621 1313.9312163987245,797.295148948103 C 1266.7064893534837,750.0704219028621 1278.5126711147939,708.7487857382764 1313.9312163987245,679.2333313350008 Z" fill="url(#leaf25)" opacity="0.22" transform="rotate(234.8 1313.9 738.3)"/>
    <path d="M 1816.3045182088554,983.7552880658509 C 1835.0362659137788,999.3650778199537 1841.28018181542,1021.2187834756978 1816.3045182088554,1046.1944470822625 C 1791.3288546022907,1021.2187834756978 1797.572770503932,999.3650778199537 1816.3045182088554,983.7552880658509 Z" fill="url(#leaf26)" opacity="0.16" transform="rotate(128.2 1816.3 1015.0)"/>
    <path d="M 1841.8199514769194,670.38008727371 C 1881.8381900990014,703.7286194587783 1895.1776029730288,750.4165645178739 1841.8199514769194,803.7742160139832 C 1788.46229998081,750.4165645178739 1801.8017128548374,703.7286194587783 1841.8199514769194,670.38008727371 Z" fill="url(#leaf27)" opacity="0.20" transform="rotate(350.5 1841.8 737.1)"/>
    <path d="M 1237.390551884363,660.9779281886705 C 1264.3359784717293,683.4324503448091 1273.3177873341847,714.8687813634031 1237.390551884363,750.7960168132248 C 1201.4633164345414,714.8687813634031 1210.4451252969968,683.4324503448091 1237.390551884363,660.9779281886705 Z" fill="url(#leaf28)" opacity="0.25" transform="rotate(156.9 1237.4 705.9)"/>
    <path d="M 1285.7368072660647,385.8221653652511 C 1310.066270731681,406.0967182532647 1318.1760918868865,434.4810922964838 1285.7368072660647,466.92037691730553 C 1253.297522645243,434.4810922964838 1261.4073438004484,406.0967182532647 1285.7368072660647,385.8221653652511 Z" fill="url(#leaf29)" opacity="0.20" transform="rotate(174.6 1285.7 426.4)"/>
    <path d="M 397.26581814438583,692.0984781265406 C 442.332127826771,729.6537361951949 457.35423105423274,782.231097491311 397.26581814438583,842.3195104011579 C 337.1774052345389,782.231097491311 352.19950846200067,729.6537361951949 397.26581814438583,692.0984781265406 Z" fill="url(#leaf0)" opacity="0.21" transform="rotate(250.6 397.3 767.2)"/>
    <path d="M 861.5537276427566,150.77905833488074 C 902.7627267685692,185.1198909397246 916.4990598105068,233.19705658650602 861.5537276427566,288.1423887542562 C 806.6083954750064,233.19705658650602 820.344728516944,185.1198909397246 861.5537276427566,150.77905833488074 Z" fill="url(#leaf1)" opacity="0.21" transform="rotate(323.9 861.6 219.5)"/>
    <path d="M 1749.6481306678827,234.68213755616165 C 1787.2192962002869,265.99144216649853 1799.7430180444217,309.82446862097015 1749.6481306678827,359.9193559975092 C 1699.5532432913437,309.82446862097015 1712.0769651354785,265.99144216649853 1749.6481306678827,234.68213755616165 Z" fill="url(#leaf2)" opacity="0.17" transform="rotate(38.1 1749.6 297.3)"/>
    <path d="M 913.5378918208344,849.1780805228711 C 958.5864210049906,886.7185215096681 973.6025973997095,939.2751388911837 913.5378918208344,999.3398444700588 C 853.4731862419593,939.2751388911837 868.4893626366782,886.7185215096681 913.5378918208344,849.1780805228711 Z" fill="url(#leaf3)" opacity="0.19" transform="rotate(305.4 913.5 924.3)"/>
    <path d="M 643.1584337081708,699.1573270538477 C 682.7868453240446,732.1810034004092 695.9963158626692,778.4141502855953 643.1584337081708,831.2520324400937 C 590.3205515536724,778.4141502855953 603.530022092297,732.1810034004092 643.1584337081708,699.1573270538477 Z" fill="url(#leaf4)" opacity="0.19" transform="rotate(303.2 643.2 765.2)"/>
    <path d="M 833.1165918306137,792.5755689412131 C 878.2388234770833,830.1774286466044 893.2795673592399,882.8200322341523 833.1165918306137,942.9830077627785 C 772.9536163019876,882.8200322341523 787.9943601841442,830.1774286466044 833.1165918306137,792.5755689412131 Z" fill="url(#leaf5)" opacity="0.19" transform="rotate(36.6 833.1 867.8)"/>
    <path d="M 850.4280948139975,381.08769096760886 C 888.0011474281615,412.3985681460789 900.5254982995496,456.233796195937 850.4280948139975,506.331199681489 C 800.3306913284455,456.233796195937 812.8550421998335,412.3985681460789 850.4280948139975,381.08769096760886 Z" fill="url(#leaf6)" opacity="0.17" transform="rotate(297.4 850.4 443.7)"/>
    <path d="M 524.140975710623,867.432973220848 C 565.8814586904232,902.2167090373481 579.7949530170232,950.9139391804482 524.140975710623,1006.5679164868484 C 468.48699840422285,950.9139391804482 482.4004927308229,902.2167090373481 524.140975710623,867.432973220848 Z" fill="url(#leaf7)" opacity="0.20" transform="rotate(282.1 524.1 937.0)"/>
    <path d="M 1296.979691684532,448.2548940670851 C 1329.7584411182763,475.5705185952054 1340.6846909295245,513.8123929345738 1296.979691684532,557.5173921795662 C 1253.2746924395396,513.8123929345738 1264.2009422507879,475.5705185952054 1296.979691684532,448.2548940670851 Z" fill="url(#leaf8)" opacity="0.21" transform="rotate(213.2 1297.0 502.9)"/>
    <path d="M 742.1826799133263,170.2733771409678 C 783.5811502488019,204.77210242053079 797.3806403606271,253.07031781191898 742.1826799133263,308.26827825921976 C 686.9847194660255,253.07031781191898 700.7842095778507,204.77210242053079 742.1826799133263,170.2733771409678 Z" fill="url(#leaf9)" opacity="0.24" transform="rotate(113.2 742.2 239.3)"/>
    <path d="M 1519.3920278977596,761.4284691780716 C 1547.6585789116991,784.9839283563547 1557.0807625830125,817.9615712059509 1519.3920278977596,855.6503058912039 C 1481.7032932125067,817.9615712059509 1491.12547688382,784.9839283563547 1519.3920278977596,761.4284691780716 Z" fill="url(#leaf10)" opacity="0.18" transform="rotate(23.2 1519.4 808.5)"/>
    <path d="M 996.5806089273116,103.95289453803949 C 1041.7430457886112,141.58825858912252 1056.7971914090444,194.27776826063874 996.5806089273116,254.49435074237155 C 936.3640264455787,194.27776826063874 951.418172066012,141.58825858912252 996.5806089273116,103.95289453803949 Z" fill="url(#leaf11)" opacity="0.22" transform="rotate(290.0 996.6 179.2)"/>
    <path d="M 1186.749848872335,807.8867144728024 C 1222.5278064755596,837.7016791421562 1234.453792343301,879.4426296792517 1186.749848872335,927.1465731502178 C 1139.0459054013688,879.4426296792517 1150.9718912691103,837.7016791421562 1186.749848872335,807.8867144728024 Z" fill="url(#leaf12)" opacity="0.20" transform="rotate(352.0 1186.7 867.5)"/>
    <path d="M 1434.408598460368,834.4809256814025 C 1456.7486601141095,853.097643726187 1464.1953473320232,879.1610489888853 1434.408598460368,908.9477978605406 C 1404.6218495887128,879.1610489888853 1412.0685368066265,853.097643726187 1434.408598460368,834.4809256814025 Z" fill="url(#leaf13)" opacity="0.16" transform="rotate(257.0 1434.4 871.7)"/>
    <path d="M 799.4763811927951,951.2483643670828 C 839.5970251312066,984.682234315759 852.970573110677,1031.4896522439058 799.4763811927951,1084.9838441617878 C 745.9821892749131,1031.4896522439058 759.3557372543836,984.682234315759 799.4763811927951,951.2483643670828 Z" fill="url(#leaf14)" opacity="0.18" transform="rotate(220.2 799.5 1018.1)"/>
    <path d="M 426.9006154832325,147.4131843493338 C 455.6886865595452,171.40324357959435 465.2847102516494,204.9893265019591 426.9006154832325,243.373421270376 C 388.5165207148156,204.9893265019591 398.1125444069198,171.40324357959435 426.9006154832325,147.4131843493338 Z" fill="url(#leaf15)" opacity="0.17" transform="rotate(38.5 426.9 195.4)"/>
    <path d="M 585.3834735198005,156.27078850050532 C 612.6488771158537,178.9919581638829 621.7373449812047,210.80159569261158 585.3834735198005,247.15546715401575 C 549.0296020583963,210.80159569261158 558.1180699237474,178.9919581638829 585.3834735198005,156.27078850050532 Z" fill="url(#leaf16)" opacity="0.17" transform="rotate(9.5 585.4 201.7)"/>
    <path d="M 1808.596291819561,20.37647480353487 C 1836.8469556620819,43.91869467230228 1846.2638436095888,76.87780248857666 1808.596291819561,114.54535427860452 C 1770.9287400295332,76.87780248857666 1780.34562797704,43.91869467230228 1808.596291819561,20.37647480353487 Z" fill="url(#leaf17)" opacity="0.15" transform="rotate(123.2 1808.6 67.5)"/>
    <path d="M 1028.5655805815927,666.76697700607 C 1053.9552676092235,687.9250495290956 1062.418496618434,717.5463510613316 1028.5655805815927,751.3992670981727 C 994.7126645447516,717.5463510613316 1003.1758935539618,687.9250495290956 1028.5655805815927,666.76697700607 Z" fill="url(#leaf18)" opacity="0.18" transform="rotate(163.7 1028.6 709.1)"/>
    <path d="M 882.646689379072,201.01612249775636 C 911.9579309888667,225.44215717258533 921.7283448587983,259.63860571734585 882.646689379072,298.72026119707215 C 843.5650338993456,259.63860571734585 853.3354477692773,225.44215717258533 882.646689379072,201.01612249775636 Z" fill="url(#leaf19)" opacity="0.22" transform="rotate(268.7 882.6 249.9)"/>
    <path d="M 1161.8997354144333,745.2627412762856 C 1192.3717342334596,770.6560736254744 1202.5290671731352,806.2067389143385 1161.8997354144333,846.8360706730405 C 1121.2704036557313,806.2067389143385 1131.427736595407,770.6560736254744 1161.8997354144333,745.2627412762856 Z" fill="url(#leaf20)" opacity="0.22" transform="rotate(99.4 1161.9 796.0)"/>
    <path d="M 1294.2421969822117,575.2167005837932 C 1333.854197930431,608.2267013739759 1347.058198246504,654.4407024802317 1294.2421969822117,707.256703744524 C 1241.4261957179194,654.4407024802317 1254.6301960339924,608.2267013739759 1294.2421969822117,575.2167005837932 Z" fill="url(#leaf21)" opacity="0.16" transform="rotate(145.3 1294.2 641.2)"/>
    <path d="M 220.9399891701918,332.2141775711531 C 251.93948031896323,358.0470868617959 262.27264403522037,394.2131598686959 220.9399891701918,435.54581473372446 C 179.60733430516322,394.2131598686959 189.94049802142038,358.0470868617959 220.9399891701918,332.2141775711531 Z" fill="url(#leaf22)" opacity="0.20" transform="rotate(21.5 220.9 383.9)"/>
    <path d="M 796.8733618644978,333.6162031995815 C 843.1147000444763,372.15065168289686 858.5284794378025,426.0988795595384 796.8733618644978,487.753997132843 C 735.2182442911932,426.0988795595384 750.6320236845194,372.15065168289686 796.8733618644978,333.6162031995815 Z" fill="url(#leaf23)" opacity="0.24" transform="rotate(103.2 796.9 410.7)"/>
    <path d="M 467.0839189033698,819.1672995513264 C 506.6204709627915,852.1144262675111 519.7993216492655,898.2404036701698 467.0839189033698,950.9558064160655 C 414.3685161574742,898.2404036701698 427.5473668439481,852.1144262675111 467.0839189033698,819.1672995513264 Z" fill="url(#leaf24)" opacity="0.24" transform="rotate(315.6 467.1 885.1)"/>
    <path d="M 1041.5324122652555,928.8189779084398 C 1080.6416081422021,961.409974472562 1093.678006767851,1007.0373696623332 1041.5324122652555,1059.1829641649288 C 989.3868177626599,1007.0373696623332 1002.4232163883088,961.409974472562 1041.5324122652555,928.8189779084398 Z" fill="url(#leaf25)" opacity="0.25" transform="rotate(337.2 1041.5 994.0)"/>
    <path d="M 57.06771499979029,363.88966011303603 C 87.74071143786853,389.45049047810124 97.96504358389461,425.23565298919254 57.06771499979029,466.1329815732969 C 16.17038641568596,425.23565298919254 26.394718561712047,389.45049047810124 57.06771499979029,363.88966011303603 Z" fill="url(#leaf26)" opacity="0.18" transform="rotate(198.1 57.1 415.0)"/>
    <path d="M 865.1964407891147,461.8246404296334 C 901.8659671887656,492.3825790960091 914.0891426553159,535.1636932289351 865.1964407891147,584.0563950951363 C 816.3037389229136,535.1636932289351 828.5269143894639,492.3825790960091 865.1964407891147,461.8246404296334 Z" fill="url(#leaf27)" opacity="0.20" transform="rotate(245.5 865.2 522.9)"/>
    <path d="M 113.49538617337866,685.2470707041791 C 161.22215018086482,725.019374043751 177.13107151669354,780.7005987191515 113.49538617337866,844.3362840624663 C 49.859700830063794,780.7005987191515 65.76862216589251,725.019374043751 113.49538617337866,685.2470707041791 Z" fill="url(#leaf28)" opacity="0.22" transform="rotate(260.5 113.5 764.8)"/>
    <path d="M 254.57074466748682,102.15191732594013 C 285.41214253911136,127.85308221896057 295.6926084963195,163.83471306918918 254.57074466748682,204.95657689802186 C 213.44888083865413,163.83471306918918 223.72934679586228,127.85308221896057 254.57074466748682,102.15191732594013 Z" fill="url(#leaf29)" opacity="0.18" transform="rotate(319.8 254.6 153.6)"/>
    <path d="M 1138.4405969397371,36.266284245308555 C 1181.7465915350183,72.35461307470949 1196.1819230667786,122.8782734358708 1138.4405969397371,180.6195995629123 C 1080.6992708126957,122.8782734358708 1095.134602344456,72.35461307470949 1138.4405969397371,36.266284245308555 Z" fill="url(#leaf0)" opacity="0.23" transform="rotate(321.8 1138.4 108.4)"/>
    <path d="M 714.5189458034148,157.75934687791425 C 745.5564337812016,183.62392019273653 755.9022631071305,219.83432283348773 714.5189458034148,261.2176401372034 C 673.1356284996991,219.83432283348773 683.481457825628,183.62392019273653 714.5189458034148,157.75934687791425 Z" fill="url(#leaf1)" opacity="0.18" transform="rotate(42.6 714.5 209.5)"/>
    <path d="M 147.1840976768106,601.8306198391542 C 170.8870379975301,621.5830701064205 178.78801810443656,649.2365004805931 147.1840976768106,680.8404209082191 C 115.58017724918464,649.2365004805931 123.48115735609113,621.5830701064205 147.1840976768106,601.8306198391542 Z" fill="url(#leaf2)" opacity="0.15" transform="rotate(359.5 147.2 641.3)"/>
    <path d="M 391.91525973924973,608.7994195896141 C 431.5818129487889,641.8548805975634 444.80399735196863,688.1325260086925 391.91525973924973,741.0212636214113 C 339.02652212653084,688.1325260086925 352.24870652971055,641.8548805975634 391.91525973924973,608.7994195896141 Z" fill="url(#leaf3)" opacity="0.16" transform="rotate(102.1 391.9 674.9)"/>
    <path d="M 1620.9517559609276,882.8551613343739 C 1660.5418403798653,915.8468983501552 1673.7385351861778,962.0353301722494 1620.9517559609276,1014.8221093974996 C 1568.1649767356773,962.0353301722494 1581.3616715419898,915.8468983501552 1620.9517559609276,882.8551613343739 Z" fill="url(#leaf4)" opacity="0.16" transform="rotate(158.6 1621.0 948.8)"/>
    <path d="M 158.61028465871476,252.09574192186233 C 201.73532353252477,288.033274316704 216.11033649046144,338.34581966948235 158.61028465871476,395.845871501229 C 101.11023282696809,338.34581966948235 115.48524578490476,288.033274316704 158.61028465871476,252.09574192186233 Z" fill="url(#leaf5)" opacity="0.22" transform="rotate(198.0 158.6 324.0)"/>
    <path d="M 573.9916361055122,264.49784894462584 C 613.9037310540956,297.75792806844544 627.2077627036234,344.3220388417928 573.9916361055122,397.5381654399041 C 520.7755095074009,344.3220388417928 534.0795411569287,297.75792806844544 573.9916361055122,264.49784894462584 Z" fill="url(#leaf6)" opacity="0.19" transform="rotate(166.1 574.0 331.0)"/>
    <path d="M 615.0057285542543,642.2424611029447 C 649.9424614058062,671.3564051459047 661.5880390229901,712.1159268060484 615.0057285542543,758.6982372747842 C 568.4234180855186,712.1159268060484 580.0689957027025,671.3564051459047 615.0057285542543,642.2424611029447 Z" fill="url(#leaf7)" opacity="0.25" transform="rotate(328.9 615.0 700.5)"/>
    <path d="M 299.3018079931294,831.8093741370217 C 344.16207722266375,869.1929318283003 359.1155002991752,921.5299125960903 299.3018079931294,981.3436049021361 C 239.4881156870836,921.5299125960903 254.44153876359505,869.1929318283003 299.3018079931294,831.8093741370217 Z" fill="url(#leaf8)" opacity="0.23" transform="rotate(231.8 299.3 906.6)"/>
    <path d="M 122.59449779848568,873.9929954719794 C 150.4130243222296,897.1751009084326 159.6858664968109,929.6300485194672 122.59449779848568,966.7214172177924 C 85.50312910016045,929.6300485194672 94.77597127474175,897.1751009084326 122.59449779848568,873.9929954719794 Z" fill="url(#leaf9)" opacity="0.24" transform="rotate(297.7 122.6 920.4)"/>
    <path d="M 1503.471203689013,950.4276756126538 C 1535.8151590550556,977.3809717510228 1546.5964775104032,1015.1155863447392 1503.471203689013,1058.2408601661293 C 1460.3459298676228,1015.1155863447392 1471.1272483229704,977.3809717510228 1503.471203689013,950.4276756126538 Z" fill="url(#leaf10)" opacity="0.21" transform="rotate(121.4 1503.5 1004.3)"/>
    <path d="M 814.5905988784308,810.724230431926 C 845.7778461315705,836.7136031428757 856.1735952159504,873.0987249382054 814.5905988784308,914.681721275725 C 773.0076025409112,873.0987249382054 783.4033516252911,836.7136031428757 814.5905988784308,810.724230431926 Z" fill="url(#leaf11)" opacity="0.23" transform="rotate(27.3 814.6 862.7)"/>
    <path d="M 1141.9813598108738,119.94512954918454 C 1180.8295706184513,152.3186385554992 1193.7789742209773,197.64155116433977 1141.9813598108738,249.43916557444325 C 1090.1837454007702,197.64155116433977 1103.1331490032962,152.3186385554992 1141.9813598108738,119.94512954918454 Z" fill="url(#leaf12)" opacity="0.15" transform="rotate(211.4 1142.0 184.7)"/>
    <path d="M 377.9133255552639,528.2870750104674 C 413.75841526335955,558.1579831005472 425.7067784993915,599.9772544266589 377.9133255552639,647.7707073707865 C 330.1198726111363,599.9772544266589 342.06823584716824,558.1579831005472 377.9133255552639,528.2870750104674 Z" fill="url(#leaf13)" opacity="0.22" transform="rotate(316.2 377.9 588.0)"/>
    <path d="M 1071.836615499669,732.1048305659956 C 1114.4820693732174,767.6427087939526 1128.6972206644,817.3957383130922 1071.836615499669,874.2563434778233 C 1014.976010334938,817.3957383130922 1029.1911616261207,767.6427087939526 1071.836615499669,732.1048305659956 Z" fill="url(#leaf14)" opacity="0.16" transform="rotate(227.9 1071.8 803.2)"/>
    <path d="M 1764.9204808324962,608.6237154934811 C 1792.5151646172399,631.6192853141008 1801.7133925454877,663.8130830629684 1764.9204808324962,700.60599477596 C 1728.1275691195046,663.8130830629684 1737.3257970477525,631.6192853141008 1764.9204808324962,608.6237154934811 Z" fill="url(#leaf15)" opacity="0.21" transform="rotate(326.8 1764.9 654.6)"/>
    <path d="M 994.7747094252309,696.7943380683021 C 1019.3158192680296,717.245262937301 1027.4961892156293,745.8765577538996 994.7747094252309,778.598037544298 C 962.0532296348325,745.8765577538996 970.2335995824321,717.245262937301 994.7747094252309,696.7943380683021 Z" fill="url(#leaf16)" opacity="0.23" transform="rotate(69.4 994.8 737.7)"/>
    <path d="M 1057.4805838351222,984.3927926689298 C 1080.744736597617,1003.7795866376755 1088.4994541851154,1030.9210981939195 1057.4805838351222,1061.9399685439128 C 1026.461713485129,1030.9210981939195 1034.2164310726273,1003.7795866376755 1057.4805838351222,984.3927926689298 Z" fill="url(#leaf17)" opacity="0.24" transform="rotate(274.1 1057.5 1023.2)"/>
    <path d="M 1144.781091857155,651.9553006925508 C 1178.9452069301487,680.4253965867124 1190.3332452878135,720.2835308385386 1144.781091857155,765.835684269197 C 1099.2289384264964,720.2835308385386 1110.6169767841611,680.4253965867124 1144.781091857155,651.9553006925508 Z" fill="url(#leaf18)" opacity="0.18" transform="rotate(91.4 1144.8 708.9)"/>
    <path d="M 1099.5882783751892,472.6541894408555 C 1147.3522474190515,512.4574969774073 1163.2735704336724,568.18212752858 1099.5882783751892,631.8674195870632 C 1035.9029863167061,568.18212752858 1051.824309331327,512.4574969774073 1099.5882783751892,472.6541894408555 Z" fill="url(#leaf19)" opacity="0.17" transform="rotate(166.1 1099.6 552.3)"/>
    <path d="M 1244.010128906385,196.8518849596759 C 1278.7551747838968,225.8060898576024 1290.3368567430675,266.3419767146995 1244.010128906385,312.6687045513819 C 1197.6834010697025,266.3419767146995 1209.2650830288733,225.8060898576024 1244.010128906385,196.8518849596759 Z" fill="url(#leaf20)" opacity="0.18" transform="rotate(346.8 1244.0 254.8)"/>
    <path d="M 1146.9919973691806,603.9511938931919 C 1189.1143844752594,639.0531831482576 1203.1551801772857,688.1959681053495 1146.9919973691806,744.3591509134546 C 1090.8288145610754,688.1959681053495 1104.8696102631018,639.0531831482576 1146.9919973691806,603.9511938931919 Z" fill="url(#leaf21)" opacity="0.20" transform="rotate(130.5 1147.0 674.2)"/>
    <path d="M 1153.206595277213,105.95528195763691 C 1177.55210822613,126.24320941506774 1185.6672792091022,154.6463078554709 1153.206595277213,187.10699178736022 C 1120.7459113453237,154.6463078554709 1128.8610823282959,126.24320941506774 1153.206595277213,105.95528195763691 Z" fill="url(#leaf22)" opacity="0.24" transform="rotate(318.4 1153.2 146.5)"/>
    <path d="M 721.5820655311268,546.9986634717251 C 752.2581568734281,572.562072923643 762.4835206541953,608.3508461563279 721.5820655311268,649.2523012793964 C 680.6806104080582,608.3508461563279 690.9059741888254,572.562072923643 721.5820655311268,546.9986634717251 Z" fill="url(#leaf23)" opacity="0.25" transform="rotate(259.1 721.6 598.1)"/>
    <path d="M 503.07109573859015,955.7522785844667 C 529.4198118950152,977.7095420481543 538.2027172804902,1008.4497108973169 503.07109573859015,1043.581332439217 C 467.93947419669,1008.4497108973169 476.72237958216505,977.7095420481543 503.07109573859015,955.7522785844667 Z" fill="url(#leaf24)" opacity="0.16" transform="rotate(352.6 503.1 999.7)"/>
    <path d="M 529.9173882960852,480.2377843694009 C 567.5414988287756,511.59120981330966 580.0828690063391,555.4860054347819 529.9173882960852,605.6514861450357 C 479.7519075858312,555.4860054347819 492.2932777633947,511.59120981330966 529.9173882960852,480.2377843694009 Z" fill="url(#leaf25)" opacity="0.23" transform="rotate(351.8 529.9 542.9)"/>
    <path d="M 908.0481423909471,302.21035637303305 C 934.3849779084593,324.15771930429327 943.1639230809634,354.8840274080576 908.0481423909471,389.9998080980739 C 872.9323617009308,354.8840274080576 881.7113068734349,324.15771930429327 908.0481423909471,302.21035637303305 Z" fill="url(#leaf26)" opacity="0.15" transform="rotate(332.2 908.0 346.1)"/>
    <path d="M 1188.386602674865,36.44764878257067 C 1233.437301287754,73.98989762664493 1248.4542008253836,126.54904600834891 1188.386602674865,186.61664415886773 C 1128.3190045243462,126.54904600834891 1143.3359040619757,73.98989762664493 1188.386602674865,36.44764878257067 Z" fill="url(#leaf27)" opacity="0.16" transform="rotate(98.1 1188.4 111.5)"/>
    <path d="M 62.390606750073296,55.59525915995477 C 93.7269530252727,81.70888105595428 104.17240178367251,118.2679517103536 62.390606750073296,160.04974674395282 C 20.608811716474072,118.2679517103536 31.054260474873885,81.70888105595428 62.390606750073296,55.59525915995477 Z" fill="url(#leaf28)" opacity="0.16" transform="rotate(79.1 62.4 107.8)"/>
    <path d="M 708.1326606727081,86.77113905921553 C 737.6163653473917,111.34089295478522 747.4442669056195,145.7385484085828 708.1326606727081,185.0501546414943 C 668.8210544397966,145.7385484085828 678.6489559980245,111.34089295478522 708.1326606727081,86.77113905921553 Z" fill="url(#leaf29)" opacity="0.20" transform="rotate(138.7 708.1 135.9)"/>
    <path d="M 952.1302503114822,516.8207927506479 C 987.1001378052819,545.9623656621477 998.7567669698817,586.7605677382472 952.1302503114822,633.3870843966469 C 905.5037336530827,586.7605677382472 917.1603628176825,545.9623656621477 952.1302503114822,516.8207927506479 Z" fill="url(#leaf0)" opacity="0.22" transform="rotate(266.7 952.1 575.1)"/>
    <path d="M 1008.5318751251464,850.0943655842884 C 1040.8788785279503,877.0502017532917 1051.6612129955515,914.7883723898963 1008.5318751251464,957.9177102603014 C 965.4025372547412,914.7883723898963 976.1848717223425,877.0502017532917 1008.5318751251464,850.0943655842884 Z" fill="url(#leaf1)" opacity="0.22" transform="rotate(280.0 1008.5 904.0)"/>
    <path d="M 1102.1772192061794,783.1818928199182 C 1144.9345689509519,818.8130176072284 1159.1870188658759,868.6965923094629 1102.1772192061794,925.7063919691593 C 1045.167419546483,868.6965923094629 1059.419869461407,818.8130176072284 1102.1772192061794,783.1818928199182 Z" fill="url(#leaf2)" opacity="0.17" transform="rotate(186.1 1102.2 854.4)"/>
    <path d="M 527.5246738626857,462.4659178679574 C 560.1234955793203,489.63160263181953 570.9897694848652,527.6635613012265 527.5246738626857,571.128656923406 C 484.0595782405063,527.6635613012265 494.92585214605117,489.63160263181953 527.5246738626857,462.4659178679574 Z" fill="url(#leaf3)" opacity="0.23" transform="rotate(53.9 527.5 516.8)"/>
    <path d="M 604.4543616716597,808.0662732761225 C 622.7467446353769,823.3099257458869 628.8442056232826,844.6510392035569 604.4543616716597,869.0408831551799 C 580.0645177200369,844.6510392035569 586.1619787079426,823.3099257458869 604.4543616716597,808.0662732761225 Z" fill="url(#leaf4)" opacity="0.18" transform="rotate(31.5 604.5 838.6)"/>
    <path d="M 377.690231360777,525.0170215098606 C 403.3766392704591,546.4223614345957 411.9387752403532,576.3898373292249 377.690231360777,610.6383812088011 C 343.44168748120074,576.3898373292249 352.00382345109483,546.4223614345957 377.690231360777,525.0170215098606 Z" fill="url(#leaf5)" opacity="0.18" transform="rotate(249.8 377.7 567.8)"/>
    <path d="M 358.8681866378702,105.03252750568893 C 404.98168676892755,143.46044428157003 420.35285347928,197.25952776780358 358.8681866378702,258.7441946092133 C 297.38351979646046,197.25952776780358 312.7546865068129,143.46044428157003 358.8681866378702,105.03252750568893 Z" fill="url(#leaf6)" opacity="0.17" transform="rotate(295.4 358.9 181.9)"/>
    <path d="M 819.8268822102087,822.5535770686743 C 845.6334364614745,844.0590389447291 854.2356212118964,874.1666855712057 819.8268822102087,908.5754245728933 C 785.4181432085211,874.1666855712057 794.020327958943,844.0590389447291 819.8268822102087,822.5535770686743 Z" fill="url(#leaf7)" opacity="0.19" transform="rotate(159.3 819.8 865.6)"/>
    <path d="M 1500.2098833097102,363.983750819476 C 1524.0139665071595,383.82048681735034 1531.9486609063092,411.59191721437446 1500.2098833097102,443.33069481097345 C 1468.4711057131112,411.59191721437446 1476.405800112261,383.82048681735034 1500.2098833097102,363.983750819476 Z" fill="url(#leaf8)" opacity="0.20" transform="rotate(267.8 1500.2 403.7)"/>
    <path d="M 1513.7341419556906,392.43586221905286 C 1552.9248464945422,425.09478266809583 1565.9884146741592,470.8172712967559 1513.7341419556906,523.0715440152246 C 1461.479869237222,470.8172712967559 1474.543437416839,425.09478266809583 1513.7341419556906,392.43586221905286 Z" fill="url(#leaf9)" opacity="0.23" transform="rotate(233.6 1513.7 457.8)"/>
    <path d="M 1398.826732650494,777.5992778954273 C 1417.1342040317065,792.8555040464378 1423.2366944921107,814.2142206578523 1398.826732650494,838.6241824994688 C 1374.4167708088773,814.2142206578523 1380.5192612692815,792.8555040464378 1398.826732650494,777.5992778954273 Z" fill="url(#leaf10)" opacity="0.23" transform="rotate(21.6 1398.8 808.1)"/>
    <path d="M 1782.8403046935177,60.692028081688605 C 1811.4276926096643,84.51485134514408 1820.9568219150465,117.86680391398177 1782.8403046935177,155.98332113551055 C 1744.723787471989,117.86680391398177 1754.2529167773712,84.51485134514408 1782.8403046935177,60.692028081688605 Z" fill="url(#leaf11)" opacity="0.20" transform="rotate(268.3 1782.8 108.3)"/>
    <path d="M 671.5037500304719,132.5781358806038 C 708.3162607975448,163.2552281864979 720.5870977199024,206.20315741474965 671.5037500304719,255.28650510418024 C 622.4204023410414,206.20315741474965 634.691239263399,163.2552281864979 671.5037500304719,132.5781358806038 Z" fill="url(#leaf12)" opacity="0.25" transform="rotate(324.5 671.5 193.9)"/>
    <path d="M 1253.154368074779,382.6964635652816 C 1279.8477332029938,404.9409345054606 1288.7455215790653,436.08319382171106 1253.154368074779,471.6743473259974 C 1217.5632145704928,436.08319382171106 1226.4610029465643,404.9409345054606 1253.154368074779,382.6964635652816 Z" fill="url(#leaf13)" opacity="0.17" transform="rotate(340.9 1253.2 427.2)"/>
    <path d="M 1196.3720199427657,656.5380703757285 C 1234.059278023338,687.9441187762054 1246.621697383529,731.9125865368732 1196.3720199427657,782.1622639776363 C 1146.1223425020025,731.9125865368732 1158.6847618621935,687.9441187762054 1196.3720199427657,656.5380703757285 Z" fill="url(#leaf14)" opacity="0.20" transform="rotate(21.5 1196.4 719.4)"/>
    <path d="M 778.8751806867818,870.142527145427 C 800.158532439031,887.8786536056347 807.2529830231141,912.7092306499253 778.8751806867818,941.0870329862576 C 750.4973783504496,912.7092306499253 757.5918289345327,887.8786536056347 778.8751806867818,870.142527145427 Z" fill="url(#leaf15)" opacity="0.20" transform="rotate(9.6 778.9 905.6)"/>
    <path d="M 1528.2601349424626,654.106620191572 C 1553.2558609105192,674.9363918316192 1561.587769566538,704.0980721276852 1528.2601349424626,737.4257067517607 C 1494.9325003183872,704.0980721276852 1503.264408974406,674.9363918316192 1528.2601349424626,654.106620191572 Z" fill="url(#leaf16)" opacity="0.15" transform="rotate(129.4 1528.3 695.8)"/>
    <path d="M 387.3373142213762,148.83328888153767 C 419.8084237026779,175.89254678262242 430.6321268631118,213.7755078441411 387.3373142213762,257.0703204858767 C 344.04250157964054,213.7755078441411 354.86620474007447,175.89254678262242 387.3373142213762,148.83328888153767 Z" fill="url(#leaf17)" opacity="0.19" transform="rotate(102.6 387.3 203.0)"/>
    <path d="M 1552.3872409483054,935.6359888357799 C 1585.8105389439422,963.4887371654773 1596.9516382758213,1002.4825848270538 1552.3872409483054,1047.0469821545696 C 1507.8228436207894,1002.4825848270538 1518.9639429526685,963.4887371654773 1552.3872409483054,935.6359888357799 Z" fill="url(#leaf18)" opacity="0.16" transform="rotate(157.3 1552.4 991.3)"/>
    <path d="M 1615.241473717212,816.7551411412207 C 1649.9838574024943,845.7071275456227 1661.5646519642553,886.2399085117854 1615.241473717212,932.5630867588286 C 1568.918295470169,886.2399085117854 1580.4990900319299,845.7071275456227 1615.241473717212,816.7551411412207 Z" fill="url(#leaf19)" opacity="0.16" transform="rotate(138.7 1615.2 874.7)"/>
    <path d="M 1841.0562996765645,661.9270250759454 C 1864.089590401217,681.1214340131559 1871.7673539761013,707.9936065252506 1841.0562996765645,738.7046608247873 C 1810.3452453770278,707.9936065252506 1818.023008951912,681.1214340131559 1841.0562996765645,661.9270250759454 Z" fill="url(#leaf20)" opacity="0.22" transform="rotate(35.2 1841.1 700.3)"/>
    <path d="M 1210.0376642751683,437.5781799032663 C 1249.8700556087947,470.77183934795505 1263.1475193866702,517.2429625705194 1210.0376642751683,570.3528176820214 C 1156.9278091636663,517.2429625705194 1170.2052729415418,470.77183934795505 1210.0376642751683,437.5781799032663 Z" fill="url(#leaf21)" opacity="0.23" transform="rotate(284.5 1210.0 504.0)"/>
    <path d="M 481.88915736908086,94.89408426343485 C 503.4044480935051,112.82349320045502 510.57621166831314,137.92466571228326 481.88915736908086,166.61172001151553 C 453.2021030698486,137.92466571228326 460.37386664465663,112.82349320045502 481.88915736908086,94.89408426343485 Z" fill="url(#leaf22)" opacity="0.16" transform="rotate(28.0 481.9 130.8)"/>
    <path d="M 263.64416929362926,874.2769789381796 C 301.5959652906721,905.903475602382 314.24656395635304,950.1805709322653 263.64416929362926,1000.782965594989 C 213.04177463090545,950.1805709322653 225.69237329658642,905.903475602382 263.64416929362926,874.2769789381796 Z" fill="url(#leaf23)" opacity="0.19" transform="rotate(8.6 263.6 937.5)"/>
    <path d="M 1095.4228534017936,452.13099407781027 C 1135.8495198780151,485.81988280799476 1149.3250753700888,532.9843270302531 1095.4228534017936,586.8865489985483 C 1041.5206314334985,532.9843270302531 1054.9961869255721,485.81988280799476 1095.4228534017936,452.13099407781027 Z" fill="url(#leaf24)" opacity="0.25" transform="rotate(179.3 1095.4 519.5)"/>
    <path d="M 832.6887366177017,692.9224388308076 C 871.5407413966191,725.2991094799054 884.4914096562582,770.6264483886423 832.6887366177017,822.4291214271989 C 780.8860635791452,770.6264483886423 793.8367318387843,725.2991094799054 832.6887366177017,692.9224388308076 Z" fill="url(#leaf25)" opacity="0.16" transform="rotate(188.9 832.7 757.7)"/>
    <path d="M 875.5065663198939,53.71654317083454 C 905.6609496961904,78.84519598441497 915.7124108216226,114.02530992342757 875.5065663198939,154.23115442515626 C 835.3007218181651,114.02530992342757 845.3521829435973,78.84519598441497 875.5065663198939,53.71654317083454 Z" fill="url(#leaf26)" opacity="0.20" transform="rotate(304.0 875.5 104.0)"/>
    <path d="M 1105.5131292678552,539.5455542458548 C 1149.5527109273503,576.2452056287674 1164.2325714805154,627.6247175648449 1105.5131292678552,686.3441597775051 C 1046.793687055195,627.6247175648449 1061.4735476083601,576.2452056287674 1105.5131292678552,539.5455542458548 Z" fill="url(#leaf27)" opacity="0.18" transform="rotate(223.3 1105.5 612.9)"/>
    <path d="M 660.2151674502741,640.5387314378507 C 705.2141100239843,678.037850249276 720.2137575485544,730.5366165852712 660.2151674502741,790.5352066835516 C 600.2165773519937,730.5366165852712 615.2162248765638,678.037850249276 660.2151674502741,640.5387314378507 Z" fill="url(#leaf28)" opacity="0.22" transform="rotate(320.2 660.2 715.5)"/>
    <path d="M 108.88249066093317,65.42626020825506 C 128.28284743610135,81.59322418756187 134.74963302782407,104.22697375859141 108.88249066093317,130.09411612548232 C 83.01534829404227,104.22697375859141 89.482133885765,81.59322418756187 108.88249066093317,65.42626020825506 Z" fill="url(#leaf29)" opacity="0.20" transform="rotate(233.6 108.9 97.8)"/>
    <path d="M 1416.966395147836,543.7641263008892 C 1449.3763962703795,570.7724605696756 1460.179729977894,608.5841285459763 1416.966395147836,651.7974633760344 C 1373.753060317778,608.5841285459763 1384.5563940252925,570.7724605696756 1416.966395147836,543.7641263008892 Z" fill="url(#leaf0)" opacity="0.20" transform="rotate(46.7 1417.0 597.8)"/>
    <path d="M 1580.7121140433464,591.1385136369765 C 1612.748031980519,617.8351119179537 1623.4266712929098,655.2103495113216 1580.7121140433464,697.924906760885 C 1537.9975567937831,655.2103495113216 1548.6761961061738,617.8351119179537 1580.7121140433464,591.1385136369765 Z" fill="url(#leaf1)" opacity="0.23" transform="rotate(174.2 1580.7 644.5)"/>
    <path d="M 497.9136052071001,806.2570738842721 C 539.2465872294993,840.7012255696047 553.0242479036324,888.9230379290705 497.9136052071001,944.0336806256028 C 442.8029625105678,888.9230379290705 456.58062318470087,840.7012255696047 497.9136052071001,806.2570738842721 Z" fill="url(#leaf2)" opacity="0.16" transform="rotate(179.3 497.9 875.1)"/>
    <path d="M 1325.0686905860714,734.1454938111394 C 1365.8438968566045,768.1248323699169 1379.4356322801154,815.6959063522054 1325.0686905860714,870.0628480462494 C 1270.7017488920274,815.6959063522054 1284.2934843155383,768.1248323699169 1325.0686905860714,734.1454938111394 Z" fill="url(#leaf3)" opacity="0.23" transform="rotate(53.0 1325.1 802.1)"/>
    <path d="M 139.16307952515498,682.56596959993 C 158.25975779509534,698.4798681582135 164.6253172184088,720.7593261398107 139.16307952515498,746.2215638330645 C 113.70084183190116,720.7593261398107 120.06640125521463,698.4798681582135 139.16307952515498,682.56596959993 Z" fill="url(#leaf4)" opacity="0.21" transform="rotate(115.1 139.2 714.4)"/>
    <path d="M 1199.2332979028158,498.28737923656627 C 1238.4009043450137,530.9270512717311 1251.4567731590796,576.6225921209618 1199.2332979028158,628.8460673772256 C 1147.009822646552,576.6225921209618 1160.065691460618,530.9270512717311 1199.2332979028158,498.28737923656627 Z" fill="url(#leaf5)" opacity="0.20" transform="rotate(265.8 1199.2 563.6)"/>
    <path d="M 762.7390027019559,163.83465894274084 C 794.8614053708487,190.6033278334849 805.5688729271463,228.07946428052657 762.7390027019559,270.9093345057171 C 719.9091324767654,228.07946428052657 730.616600033063,190.6033278334849 762.7390027019559,163.83465894274084 Z" fill="url(#leaf6)" opacity="0.22" transform="rotate(61.6 762.7 217.4)"/>
    <path d="M 451.01403553853277,961.0181636090605 C 480.19006023842985,985.3315175256413 489.9154018050622,1019.3702130088545 451.01403553853277,1058.271579275384 C 412.11266927200336,1019.3702130088545 421.8380108386357,985.3315175256413 451.01403553853277,961.0181636090605 Z" fill="url(#leaf7)" opacity="0.21" transform="rotate(180.0 451.0 1009.6)"/>
    <path d="M 701.948711911699,936.1272326852477 C 720.045098084632,951.2075544960252 726.0772268089429,972.3200050311136 701.948711911699,996.4485199283577 C 677.8201970144551,972.3200050311136 683.852325738766,951.2075544960252 701.948711911699,936.1272326852477 Z" fill="url(#leaf8)" opacity="0.24" transform="rotate(271.1 701.9 966.3)"/>
    <path d="M 929.7723405455654,178.37542716964325 C 951.461026950956,196.4493325074688 958.6905890860863,221.7527999804246 929.7723405455654,250.6710485209455 C 900.8540920050444,221.7527999804246 908.0836541401748,196.4493325074688 929.7723405455654,178.37542716964325 Z" fill="url(#leaf9)" opacity="0.24" transform="rotate(109.7 929.8 214.5)"/>
    <path d="M 1342.5367462477009,36.95357625339342 C 1362.5072112459732,53.59563041862039 1369.164032912064,76.89450624993815 1342.5367462477009,103.52179291430129 C 1315.9094595833378,76.89450624993815 1322.5662812494286,53.59563041862039 1342.5367462477009,36.95357625339342 Z" fill="url(#leaf10)" opacity="0.18" transform="rotate(216.5 1342.5 70.2)"/>
    <path d="M 773.8534474606153,51.75180266712779 C 807.3239351328118,79.64387572729157 818.4807643568773,118.69277801152086 773.8534474606153,163.3200949077829 C 729.2261305643532,118.69277801152086 740.3829597884187,79.64387572729157 773.8534474606153,51.75180266712779 Z" fill="url(#leaf11)" opacity="0.18" transform="rotate(28.9 773.9 107.5)"/>
    <path d="M 992.2659362578413,740.0953069367044 C 1024.5421331004136,766.992137638848 1035.3008653812713,804.6477006218491 992.2659362578413,847.682629745279 C 949.2310071344115,804.6477006218491 959.9897394152689,766.992137638848 992.2659362578413,740.0953069367044 Z" fill="url(#leaf12)" opacity="0.19" transform="rotate(170.3 992.3 793.9)"/>
    <path d="M 1405.0525367780976,396.0167145485607 C 1449.115186746093,432.7355895218901 1463.8027367354248,484.1420144845514 1405.0525367780976,542.8922144418785 C 1346.3023368207705,484.1420144845514 1360.9898868101022,432.7355895218901 1405.0525367780976,396.0167145485607 Z" fill="url(#leaf13)" opacity="0.18" transform="rotate(114.1 1405.1 469.5)"/>
    <path d="M 602.8040756690015,643.7146264085468 C 637.930526128492,672.9866684581223 649.6393429483222,713.9675273275279 602.8040756690015,760.8027946068487 C 555.9688083896807,713.9675273275279 567.6776252095109,672.9866684581223 602.8040756690015,643.7146264085468 Z" fill="url(#leaf14)" opacity="0.24" transform="rotate(287.4 602.8 702.3)"/>
    <path d="M 455.98716600852305,604.4767334880836 C 494.02412657578816,636.1742006274711 506.7031134315432,680.5506546226138 455.98716600852305,731.2666020456339 C 405.2712185855029,680.5506546226138 417.95020544125794,636.1742006274711 455.98716600852305,604.4767334880836 Z" fill="url(#leaf15)" opacity="0.24" transform="rotate(306.9 456.0 667.9)"/>
    <path d="M 506.425554201718,681.2055222934182 C 547.473355218943,715.4120231411056 561.1559555580179,763.301124327868 506.425554201718,818.031525684168 C 451.6951528454181,763.301124327868 465.37775318449303,715.4120231411056 506.425554201718,681.2055222934182 Z" fill="url(#leaf16)" opacity="0.16" transform="rotate(319.2 506.4 749.6)"/>
    <path d="M 230.46893768576913,230.18627131361114 C 259.8790010551047,254.6946574547241 269.6823555115499,289.00639805228224 230.46893768576913,328.219815878063 C 191.2555198599884,289.00639805228224 201.0588743164336,254.6946574547241 230.46893768576913,230.18627131361114 Z" fill="url(#leaf17)" opacity="0.21" transform="rotate(197.8 230.5 279.2)"/>
    <path d="M 1321.0272592697067,768.3444264798447 C 1364.4451795158016,804.5260266849237 1378.9178195978332,855.1802669720344 1321.0272592697067,913.0708273001608 C 1263.1366989415803,855.1802669720344 1277.609339023612,804.5260266849237 1321.0272592697067,768.3444264798447 Z" fill="url(#leaf18)" opacity="0.23" transform="rotate(350.8 1321.0 840.7)"/>
    <path d="M 845.3413032975982,49.322852154530835 C 892.980628510309,89.02228983178983 908.8604035812126,144.60150257995244 845.3413032975982,208.12060286356683 C 781.8222030139838,144.60150257995244 797.7019780848874,89.02228983178983 845.3413032975982,49.322852154530835 Z" fill="url(#leaf19)" opacity="0.20" transform="rotate(89.2 845.3 128.7)"/>
    <path d="M 585.7049283394707,75.71307661415351 C 617.6324224535505,102.31932170921996 628.2749204915771,139.568064842313 585.7049283394707,182.1380569944193 C 543.1349361873644,139.568064842313 553.777434225391,102.31932170921996 585.7049283394707,75.71307661415351 Z" fill="url(#leaf20)" opacity="0.24" transform="rotate(11.0 585.7 128.9)"/>
    <path d="M 175.01628898286623,397.3792666975994 C 216.3425862710787,431.81784777110977 230.11801870048285,480.0318612740243 175.01628898286623,535.133590991641 C 119.91455926524961,480.0318612740243 133.68999169465377,431.81784777110977 175.01628898286623,397.3792666975994 Z" fill="url(#leaf21)" opacity="0.23" transform="rotate(329.9 175.0 466.3)"/>
    <path d="M 669.8216907233173,357.7709916426789 C 707.2130356419465,388.9304457415366 719.6768172814895,432.5536814799374 669.8216907233173,482.4088080381097 C 619.966564165145,432.5536814799374 632.430345804688,388.9304457415366 669.8216907233173,357.7709916426789 Z" fill="url(#leaf22)" opacity="0.22" transform="rotate(14.0 669.8 420.1)"/>
    <path d="M 855.8510361744903,186.36950713688128 C 889.9016258555624,214.7449985377747 901.2518224159198,254.4706864990255 855.8510361744903,299.871472740455 C 810.4502499330608,254.4706864990255 821.8004464934182,214.7449985377747 855.8510361744903,186.36950713688128 Z" fill="url(#leaf23)" opacity="0.15" transform="rotate(98.1 855.9 243.1)"/>
    <path d="M 368.0313624963423,748.8919215308741 C 402.92835108664303,777.9727453561247 414.5606806167433,818.6858987114756 368.0313624963423,865.2152168318765 C 321.5020443759413,818.6858987114756 333.13437390604156,777.9727453561247 368.0313624963423,748.8919215308741 Z" fill="url(#leaf24)" opacity="0.17" transform="rotate(6.1 368.0 807.1)"/>
    <path d="M 238.61219416055857,830.0947752148465 C 282.96151796894236,867.0525450551663 297.7446259050703,918.7934228316142 238.61219416055857,977.9258545761259 C 179.47976241604684,918.7934228316142 194.2628703521748,867.0525450551663 238.61219416055857,830.0947752148465 Z" fill="url(#leaf25)" opacity="0.15" transform="rotate(232.2 238.6 904.0)"/>
    <path d="M 983.3506843559761,772.3703310415215 C 1019.3992617700918,802.4108122199511 1031.4154542414637,844.4674858697529 983.3506843559761,892.5322557552404 C 935.2859144704885,844.4674858697529 947.3021069418604,802.4108122199511 983.3506843559761,772.3703310415215 Z" fill="url(#leaf26)" opacity="0.18" transform="rotate(86.2 983.4 832.5)"/>
    <path d="M 71.34948436823095,138.41211858220942 C 94.99665090557627,158.11809069666384 102.87903975135806,185.70645165690007 71.34948436823095,217.23600704002718 C 39.81992898510383,185.70645165690007 47.70231783088561,158.11809069666384 71.34948436823095,138.41211858220942 Z" fill="url(#leaf27)" opacity="0.18" transform="rotate(271.2 71.3 177.8)"/>
    <path d="M 1243.4622304226828,686.3978643092058 C 1273.462346953972,711.3979614186136 1283.4623857977351,746.3980973717843 1243.4622304226828,786.3982527468366 C 1203.4620750476304,746.3980973717843 1213.4621138913935,711.3979614186136 1243.4622304226828,686.3978643092058 Z" fill="url(#leaf28)" opacity="0.20" transform="rotate(16.0 1243.5 736.4)"/>
    <path d="M 1036.2992933091741,588.5193317453865 C 1079.2149084749215,624.2823443835092 1093.5201135301704,674.350562076881 1036.2992933091741,731.5713822978774 C 979.0784730881777,674.350562076881 993.3836781434269,624.2823443835092 1036.2992933091741,588.5193317453865 Z" fill="url(#leaf29)" opacity="0.23" transform="rotate(100.8 1036.3 660.0)"/>
    <path d="M 1824.167112687641,925.710242001486 C 1864.868432850048,959.6280088034918 1878.4355395708503,1007.1128823262998 1824.167112687641,1061.381309209509 C 1769.8986858044318,1007.1128823262998 1783.465792525234,959.6280088034918 1824.167112687641,925.710242001486 Z" fill="url(#leaf0)" opacity="0.19" transform="rotate(146.3 1824.2 993.5)"/>
    <path d="M 1375.9555510442017,794.8859458372615 C 1404.8749196914953,818.9854197100062 1414.5147092405932,852.7246831318487 1375.9555510442017,891.2838413282402 C 1337.3963928478101,852.7246831318487 1347.036182396908,818.9854197100062 1375.9555510442017,794.8859458372615 Z" fill="url(#leaf1)" opacity="0.18" transform="rotate(340.9 1376.0 843.1)"/>
    <path d="M 1283.861510486931,78.75406305143323 C 1308.8980995556772,99.61788727538848 1317.2436292452594,128.82724118892583 1283.861510486931,162.2093599472542 C 1250.4793917286024,128.82724118892583 1258.8249214181847,99.61788727538848 1283.861510486931,78.75406305143323 Z" fill="url(#leaf2)" opacity="0.20" transform="rotate(241.2 1283.9 120.5)"/>
    <path d="M 1454.3395111828231,170.88570816022354 C 1498.1167850606892,207.36676972511196 1512.7092096866445,258.4402559159558 1454.3395111828231,316.8099544197773 C 1395.9698126790017,258.4402559159558 1410.562237304957,207.36676972511196 1454.3395111828231,170.88570816022354 Z" fill="url(#leaf3)" opacity="0.18" transform="rotate(11.5 1454.3 243.8)"/>
    <path d="M 1664.289923446569,970.5365527464746 C 1688.436821565767,990.6589678458064 1696.4857876054998,1018.830348984871 1664.289923446569,1051.026213143802 C 1632.0940592876382,1018.830348984871 1640.1430253273709,990.6589678458064 1664.289923446569,970.5365527464746 Z" fill="url(#leaf4)" opacity="0.19" transform="rotate(312.9 1664.3 1010.8)"/>
    <path d="M 802.6019063035557,756.1611572259924 C 833.3369076444046,781.7736583433666 843.5819080913543,817.6311599076904 802.6019063035557,858.611161695489 C 761.621904515757,817.6311599076904 771.8669049627067,781.7736583433666 802.6019063035557,756.1611572259924 Z" fill="url(#leaf5)" opacity="0.18" transform="rotate(128.5 802.6 807.4)"/>
    <path d="M 1530.7396284810372,878.7963362076567 C 1578.5143383727523,918.6085944507527 1594.4392416699907,974.3457559910868 1530.7396284810372,1038.04536918004 C 1467.0400152920838,974.3457559910868 1482.9649185893222,918.6085944507527 1530.7396284810372,878.7963362076567 Z" fill="url(#leaf6)" opacity="0.17" transform="rotate(244.4 1530.7 958.4)"/>
    <path d="M 1222.9291023980304,379.2314135758433 C 1250.680499066477,402.3575774662155 1259.9309646226259,434.73420691273657 1222.9291023980304,471.7360691373321 C 1185.927240173435,434.73420691273657 1195.1777057295837,402.3575774662155 1222.9291023980304,379.2314135758433 Z" fill="url(#leaf7)" opacity="0.16" transform="rotate(305.0 1222.9 425.5)"/>
    <path d="M 1717.5278208399616,880.5747765933188 C 1749.7618545493362,907.4364713511311 1760.5065324524612,945.0428440120684 1717.5278208399616,988.021555624568 C 1674.549109227462,945.0428440120684 1685.293787130587,907.4364713511311 1717.5278208399616,880.5747765933188 Z" fill="url(#leaf8)" opacity="0.24" transform="rotate(26.9 1717.5 934.3)"/>
    <path d="M 801.8389598115245,626.3539546103112 C 827.7163342257224,647.9184332888094 836.3421256971217,678.108703438707 801.8389598115245,712.6118693243042 C 767.3357939259274,678.108703438707 775.9615853973266,647.9184332888094 801.8389598115245,626.3539546103112 Z" fill="url(#leaf9)" opacity="0.19" transform="rotate(290.4 801.8 669.5)"/>
    <path d="M 997.9843521048685,441.3241337418688 C 1032.9608903581586,470.47124895294394 1044.6197364425886,511.2772102484491 997.9843521048685,557.9125945861692 C 951.3489677671483,511.2772102484491 963.0078138515785,470.47124895294394 997.9843521048685,441.3241337418688 Z" fill="url(#leaf10)" opacity="0.16" transform="rotate(87.9 998.0 499.6)"/>
    <path d="M 1697.8091350404968,732.036259574269 C 1716.8173019783326,747.8763986891321 1723.1533576242778,770.0525934499403 1697.8091350404968,795.3968160337213 C 1672.4649124567159,770.0525934499403 1678.800968102661,747.8763986891321 1697.8091350404968,732.036259574269 Z" fill="url(#leaf11)" opacity="0.15" transform="rotate(316.2 1697.8 763.7)"/>
    <path d="M 952.6466189105068,837.7737865064146 C 977.9809973385736,858.8857685298036 986.4257901479293,888.4425433625482 952.6466189105068,922.2217145999707 C 918.8674476730844,888.4425433625482 927.3122404824401,858.8857685298036 952.6466189105068,837.7737865064146 Z" fill="url(#leaf12)" opacity="0.22" transform="rotate(145.3 952.6 880.0)"/>
    <path d="M 1248.5882632301295,919.7773472393644 C 1279.0792595638716,945.186510850816 1289.2429250084522,980.7593399068483 1248.5882632301295,1021.4140016851709 C 1207.933601451807,980.7593399068483 1218.0972668963875,945.186510850816 1248.5882632301295,919.7773472393644 Z" fill="url(#leaf13)" opacity="0.16" transform="rotate(321.0 1248.6 970.6)"/>
    <path d="M 1422.0678989159783,693.0338448564091 C 1445.771933280117,712.7872068265247 1453.6732780681632,740.4419135846865 1422.0678989159783,772.0472927368714 C 1390.4625197637934,740.4419135846865 1398.3638645518395,712.7872068265247 1422.0678989159783,693.0338448564091 Z" fill="url(#leaf14)" opacity="0.15" transform="rotate(156.6 1422.1 732.5)"/>
    <path d="M 747.4306028290756,582.9046738099481 C 765.8876490209338,598.2855456364967 772.0399977515533,619.8187661936647 747.4306028290756,644.4281611161424 C 722.8212079065979,619.8187661936647 728.9735566372174,598.2855456364967 747.4306028290756,582.9046738099481 Z" fill="url(#leaf15)" opacity="0.18" transform="rotate(105.3 747.4 613.7)"/>
    <path d="M 959.1078070565889,58.30256535257834 C 1005.8333696275317,97.24053416169743 1021.4085571511794,151.75369049446414 959.1078070565889,214.05444058905468 C 896.8070569619983,151.75369049446414 912.382244485646,97.24053416169743 959.1078070565889,58.30256535257834 Z" fill="url(#leaf16)" opacity="0.20" transform="rotate(185.7 959.1 136.2)"/>
    <path d="M 1404.7304438842843,423.2583663861295 C 1442.7134579823796,454.9108781345422 1455.3744626817447,499.22439458232 1404.7304438842843,549.8684133797802 C 1354.086425086824,499.22439458232 1366.747429786189,454.9108781345422 1404.7304438842843,423.2583663861295 Z" fill="url(#leaf17)" opacity="0.22" transform="rotate(324.2 1404.7 486.6)"/>
    <path d="M 684.17090458898,126.04153288916962 C 727.6748136589301,162.29479044746142 742.1761166822469,213.04935102906998 684.17090458898,271.0545631223369 C 626.1656924957131,213.04935102906998 640.6669955190298,162.29479044746142 684.17090458898,126.04153288916962 Z" fill="url(#leaf18)" opacity="0.24" transform="rotate(283.6 684.2 198.5)"/>
    <path d="M 193.32625096441063,671.807273982216 C 217.16592300377994,691.6736673483571 225.11248035023635,719.4866180609546 193.32625096441063,751.2728474467804 C 161.5400215785849,719.4866180609546 169.48657892504133,691.6736673483571 193.32625096441063,671.807273982216 Z" fill="url(#leaf19)" opacity="0.24" transform="rotate(51.2 193.3 711.5)"/>
    <path d="M 1786.4226390471592,975.3234566792588 C 1815.440311960213,999.5048507734703 1825.1128695978975,1033.3588025053662 1786.4226390471592,1072.0490330561042 C 1747.732408496421,1033.3588025053662 1757.4049661341055,999.5048507734703 1786.4226390471592,975.3234566792588 Z" fill="url(#leaf20)" opacity="0.20" transform="rotate(101.9 1786.4 1023.7)"/>
    <path d="M 883.2749008644665,426.5478743778532 C 915.82186476268,453.670344293031 926.6708527287511,491.64180217428003 883.2749008644665,535.0377540385646 C 839.8789490001819,491.64180217428003 850.7279369662531,453.670344293031 883.2749008644665,426.5478743778532 Z" fill="url(#leaf21)" opacity="0.23" transform="rotate(186.2 883.3 480.8)"/>
    <path d="M 430.2824540708255,771.2134715595943 C 459.12398121186766,795.2480775104627 468.737823592215,828.8965258416786 430.2824540708255,867.3518953630681 C 391.827084549436,828.8965258416786 401.44092692978336,795.2480775104627 430.2824540708255,771.2134715595943 Z" fill="url(#leaf22)" opacity="0.18" transform="rotate(335.4 430.3 819.3)"/>
    <path d="M 1678.784117331979,553.4650567837756 C 1722.398762114061,589.8105941021773 1736.9369770414216,640.6943463479396 1678.784117331979,698.8472060573823 C 1620.6312576225362,640.6943463479396 1635.169472549897,589.8105941021773 1678.784117331979,553.4650567837756 Z" fill="url(#leaf23)" opacity="0.24" transform="rotate(199.2 1678.8 626.2)"/>
    <path d="M 1333.2235312391867,69.41999228890906 C 1352.1609534302966,85.20117744816721 1358.473427494,107.29483667112865 1333.2235312391867,132.54473292594173 C 1307.9736349843736,107.29483667112865 1314.286109048077,85.20117744816721 1333.2235312391867,69.41999228890906 Z" fill="url(#leaf24)" opacity="0.19" transform="rotate(247.6 1333.2 101.0)"/>
    <path d="M 1443.0516902078507,359.2261872959674 C 1480.888531411231,390.7568882987844 1493.500811812358,434.8998697027283 1443.0516902078507,485.34899130723556 C 1392.6025686033433,434.8998697027283 1405.2148490044704,390.7568882987844 1443.0516902078507,359.2261872959674 Z" fill="url(#leaf25)" opacity="0.20" transform="rotate(100.4 1443.1 422.3)"/>
    <path d="M 345.2316627585074,46.919636063157526 C 383.68688808221157,78.96565716624434 396.5052965234463,123.83008671056588 345.2316627585074,175.1037204755048 C 293.9580289935685,123.83008671056588 306.77643743480326,78.96565716624434 345.2316627585074,46.919636063157526 Z" fill="url(#leaf26)" opacity="0.23" transform="rotate(240.7 345.2 111.0)"/>
    <path d="M 513.6831984021044,974.2036079589823 C 531.7914165338289,989.2937897354194 537.8274892444036,1010.4200442224312 513.6831984021044,1034.5643350647306 C 489.53890755980507,1010.4200442224312 495.5749802703799,989.2937897354194 513.6831984021044,974.2036079589823 Z" fill="url(#leaf27)" opacity="0.19" transform="rotate(359.8 513.7 1004.4)"/>
    <path d="M 1753.4578713372352,491.8931295477835 C 1782.7333537977443,516.2893649315411 1792.4918479512473,550.4440944688017 1753.4578713372352,589.4780710828138 C 1714.4238947232232,550.4440944688017 1724.1823888767262,516.2893649315411 1753.4578713372352,491.8931295477835 Z" fill="url(#leaf28)" opacity="0.18" transform="rotate(60.0 1753.5 540.7)"/>
    <path d="M 1716.6156147489346,833.5478997891339 C 1762.87926850106,872.1009445825719 1778.3004864184352,926.0752072933849 1716.6156147489346,987.7600789628855 C 1654.930743079434,926.0752072933849 1670.351960996809,872.1009445825719 1716.6156147489346,833.5478997891339 Z" fill="url(#leaf29)" opacity="0.24" transform="rotate(177.4 1716.6 910.7)"/>
    <path d="M 1242.9167759753752,34.97263963710229 C 1273.0248905424842,60.06273510969314 1283.0609287315206,95.18886877132034 1242.9167759753752,135.3330215274657 C 1202.77262321923,95.18886877132034 1212.8086614082663,60.06273510969314 1242.9167759753752,34.97263963710229 Z" fill="url(#leaf0)" opacity="0.17" transform="rotate(54.0 1242.9 85.2)"/>
    <path d="M 398.0895377842161,633.2925550619901 C 430.5626097042473,660.3534483286828 441.3869670109244,698.2386989020525 398.0895377842161,741.5361281287609 C 354.79210855750773,698.2386989020525 365.6164658641849,660.3534483286828 398.0895377842161,633.2925550619901 Z" fill="url(#leaf1)" opacity="0.16" transform="rotate(280.2 398.1 687.4)"/>
    <path d="M 623.3031298915225,441.4753608177443 C 641.588498867183,456.7131682974614 647.68362185907,478.04609876906534 623.3031298915225,502.4265907366127 C 598.9226379239751,478.04609876906534 605.017760915862,456.7131682974614 623.3031298915225,441.4753608177443 Z" fill="url(#leaf2)" opacity="0.17" transform="rotate(6.7 623.3 472.0)"/>
    <path d="M 1138.230068122707,801.5054409941367 C 1180.1529680754172,836.4411909547285 1194.127268059654,885.351240899557 1138.230068122707,941.2484408365037 C 1082.3328681857602,885.351240899557 1096.3071681699969,836.4411909547285 1138.230068122707,801.5054409941367 Z" fill="url(#leaf3)" opacity="0.19" transform="rotate(223.6 1138.2 871.4)"/>
    <path d="M 1610.003204635443,693.5268016750897 C 1632.8074111839792,712.5303071322032 1640.4088133668247,739.1352147721623 1610.003204635443,769.5408235035441 C 1579.597595904061,739.1352147721623 1587.1989980869066,712.5303071322032 1610.003204635443,693.5268016750897 Z" fill="url(#leaf4)" opacity="0.17" transform="rotate(244.7 1610.0 731.5)"/>
    <path d="M 1190.076283934702,651.3973620341795 C 1220.49419879791,676.7456244201863 1230.6335037523127,712.2331917605959 1190.076283934702,752.7904115782068 C 1149.5190641170911,712.2331917605959 1159.6583690714938,676.7456244201863 1190.076283934702,651.3973620341795 Z" fill="url(#leaf5)" opacity="0.18" transform="rotate(64.1 1190.1 702.1)"/>
    <path d="M 1419.0113944923928,397.0595460827876 C 1464.403987396643,434.8867068363295 1479.5348516980598,487.8447318912881 1419.0113944923928,548.3681890969551 C 1358.4879372867258,487.8447318912881 1373.6188015881426,434.8867068363295 1419.0113944923928,397.0595460827876 Z" fill="url(#leaf6)" opacity="0.22" transform="rotate(232.4 1419.0 472.7)"/>
    <path d="M 1693.046037067037,935.2329601758763 C 1714.2246256421195,952.881783988445 1721.284155167147,977.5901373260413 1693.046037067037,1005.8282554261511 C 1664.8079189669272,977.5901373260413 1671.8674484919547,952.881783988445 1693.046037067037,935.2329601758763 Z" fill="url(#leaf7)" opacity="0.25" transform="rotate(340.6 1693.0 970.5)"/>
    <path d="M 899.1730214641648,578.742283351592 C 940.0487709734244,612.8054079426419 953.6740208098444,660.4937823701115 899.1730214641648,714.9947817157911 C 844.6720221184852,660.4937823701115 858.2972719549051,612.8054079426419 899.1730214641648,578.742283351592 Z" fill="url(#leaf8)" opacity="0.20" transform="rotate(185.4 899.2 646.9)"/>
    <path d="M 1045.711980026519,842.8036740034818 C 1093.5502848389742,882.668928013861 1109.4963864431259,938.480283628392 1045.711980026519,1002.2646900449988 C 981.9275736099122,938.480283628392 997.873675214064,882.668928013861 1045.711980026519,842.8036740034818 Z" fill="url(#leaf9)" opacity="0.17" transform="rotate(30.4 1045.7 922.5)"/>
    <path d="M 966.21548279912,578.4746382925821 C 989.840885583624,598.1624739463355 997.7160198451253,625.7254438615901 966.21548279912,657.2259809075954 C 934.7149457531146,625.7254438615901 942.590080014616,598.1624739463355 966.21548279912,578.4746382925821 Z" fill="url(#leaf10)" opacity="0.23" transform="rotate(223.7 966.2 617.9)"/>
    <path d="M 1343.425215236344,78.78044552501748 C 1372.0264554037185,102.61481233116285 1381.5602021261766,135.98292585976634 1343.425215236344,174.11791274959893 C 1305.2902283465114,135.98292585976634 1314.8239750689695,102.61481233116285 1343.425215236344,78.78044552501748 Z" fill="url(#leaf11)" opacity="0.21" transform="rotate(252.2 1343.4 126.4)"/>
    <path d="M 1410.9654392874006,200.26283092531068 C 1440.80959662014,225.1329620359268 1450.7576490643864,259.95114559078934 1410.9654392874006,299.74335536777517 C 1371.1732295104148,259.95114559078934 1381.1212819546613,225.1329620359268 1410.9654392874006,200.26283092531068 Z" fill="url(#leaf12)" opacity="0.18" transform="rotate(65.8 1411.0 250.0)"/>
    <path d="M 1375.6299387345587,813.4607160320555 C 1405.9979914381333,838.7674266183677 1416.120675672658,874.1968214392048 1375.6299387345587,914.6875583773043 C 1335.1392017964592,874.1968214392048 1345.261886030984,838.7674266183677 1375.6299387345587,813.4607160320555 Z" fill="url(#leaf13)" opacity="0.23" transform="rotate(230.6 1375.6 864.1)"/>
    <path d="M 235.9451495305631,603.3174252414715 C 278.0520424662895,638.4065026879102 292.087673444865,687.5312111129243 235.9451495305631,743.6737350272263 C 179.80262561626122,687.5312111129243 193.8382565948367,638.4065026879102 235.9451495305631,603.3174252414715 Z" fill="url(#leaf14)" opacity="0.15" transform="rotate(181.4 235.9 673.5)"/>
    <path d="M 484.21862986081567,606.7484360794653 C 524.0772321112591,639.9639379548347 537.3634328614069,686.4656405803521 484.21862986081567,739.6104435809433 C 431.0738268602244,686.4656405803521 444.36002761037224,639.9639379548347 484.21862986081567,606.7484360794653 Z" fill="url(#leaf15)" opacity="0.19" transform="rotate(220.9 484.2 673.2)"/>
    <path d="M 55.90540381585914,670.917377439277 C 92.7861723778615,701.6513512409456 105.07976189852896,744.6789145632816 55.90540381585914,793.8532726459515 C 6.731045733189319,744.6789145632816 19.02463525385678,701.6513512409456 55.90540381585914,670.917377439277 Z" fill="url(#leaf16)" opacity="0.23" transform="rotate(205.5 55.9 732.4)"/>
    <path d="M 59.859981848897306,387.31782502552676 C 80.20266243262873,404.27005884530297 86.98355596053919,428.0031861929896 59.859981848897306,455.1267603046315 C 32.73640773725542,428.0031861929896 39.51730126516589,404.27005884530297 59.859981848897306,387.31782502552676 Z" fill="url(#leaf17)" opacity="0.18" transform="rotate(79.8 59.9 421.2)"/>
    <path d="M 613.1601080957442,774.6707977048392 C 657.8340382832613,811.8990728611035 672.7253483457671,864.0186580798734 613.1601080957442,923.5838983298962 C 553.5948678457214,864.0186580798734 568.4861779082272,811.8990728611035 613.1601080957442,774.6707977048392 Z" fill="url(#leaf18)" opacity="0.21" transform="rotate(11.0 613.2 849.1)"/>
    <path d="M 518.2564872823575,459.2305784592856 C 565.0220340912656,498.201867466709 580.6105496942349,552.7616720771017 518.2564872823575,615.1157344889791 C 455.9024248704801,552.7616720771017 471.4909404734494,498.201867466709 518.2564872823575,459.2305784592856 Z" fill="url(#leaf19)" opacity="0.21" transform="rotate(287.8 518.3 537.2)"/>
    <path d="M 1385.9603475432755,427.71408538695425 C 1405.9548905187107,444.37620453315037 1412.6197381771892,467.7031713378249 1385.9603475432755,494.3625619717387 C 1359.3009569093617,467.7031713378249 1365.9658045678402,444.37620453315037 1385.9603475432755,427.71408538695425 Z" fill="url(#leaf20)" opacity="0.18" transform="rotate(248.0 1386.0 461.0)"/>
    <path d="M 574.5323380208557,37.70281754937339 C 602.8582302306942,61.307727724238745 612.3001943006403,94.35460196905024 574.5323380208557,132.1224582488348 C 536.7644817410711,94.35460196905024 546.2064458110173,61.307727724238745 574.5323380208557,37.70281754937339 Z" fill="url(#leaf21)" opacity="0.17" transform="rotate(32.3 574.5 84.9)"/>
    <path d="M 320.71413688495153,529.9135575298394 C 354.7255793683344,558.2564262659918 366.06272686279544,597.9364424966052 320.71413688495153,643.285032474449 C 275.3655469071076,597.9364424966052 286.70269440156864,558.2564262659918 320.71413688495153,529.9135575298394 Z" fill="url(#leaf22)" opacity="0.17" transform="rotate(106.4 320.7 586.6)"/>
    <path d="M 1587.9141645556238,341.1509465119427 C 1620.5542689363804,368.35103349590656 1631.434303729966,406.43115527345594 1587.9141645556238,449.9512944477981 C 1544.3940253812816,406.43115527345594 1555.2740601748671,368.35103349590656 1587.9141645556238,341.1509465119427 Z" fill="url(#leaf23)" opacity="0.22" transform="rotate(214.7 1587.9 395.6)"/>
    <path d="M 88.57155262618515,707.7156961201235 C 126.6377762595425,739.4375491479213 139.32651747066163,783.8481433868383 88.57155262618515,834.6031082313148 C 37.816587781708684,783.8481433868383 50.505328992827806,739.4375491479213 88.57155262618515,707.7156961201235 Z" fill="url(#leaf24)" opacity="0.20" transform="rotate(296.1 88.6 771.2)"/>
    <path d="M 1572.3096898306615,236.4786935472524 C 1596.5743967091082,256.6992826126247 1604.662632335257,285.00810730414594 1572.3096898306615,317.36104980874165 C 1539.9567473260659,285.00810730414594 1548.0449829522147,256.6992826126247 1572.3096898306615,236.4786935472524 Z" fill="url(#leaf25)" opacity="0.22" transform="rotate(125.2 1572.3 276.9)"/>
    <path d="M 1115.3969080864129,158.43611045402758 C 1138.659036861139,177.82121776629936 1146.4130797860475,204.9603680034798 1115.3969080864129,235.9765397031146 C 1084.3807363867782,204.9603680034798 1092.1347793116868,177.82121776629936 1115.3969080864129,158.43611045402758 Z" fill="url(#leaf26)" opacity="0.24" transform="rotate(279.5 1115.4 197.2)"/>
    <path d="M 1676.0053516304363,239.29852868129734 C 1715.4414555247083,272.1619485931907 1728.5868234894656,318.17073646984136 1676.0053516304363,370.7522083288707 C 1623.423879771407,318.17073646984136 1636.5692477361642,272.1619485931907 1676.0053516304363,239.29852868129734 Z" fill="url(#leaf27)" opacity="0.22" transform="rotate(105.8 1676.0 305.0)"/>
    <path d="M 898.803835605999,286.6679151269778 C 936.2068540738871,317.8370971835512 948.6745268965165,361.473952062754 898.803835605999,411.34464335327147 C 848.9331443154815,361.473952062754 861.4008171381108,317.8370971835512 898.803835605999,286.6679151269778 Z" fill="url(#leaf28)" opacity="0.16" transform="rotate(56.4 898.8 349.0)"/>
    <path d="M 814.6060322763282,408.77485009427687 C 857.7758950244116,444.7497357176797 872.1658492737727,495.1145755904437 814.6060322763282,552.6743925878882 C 757.0462152788837,495.1145755904437 771.4361695282447,444.7497357176797 814.6060322763282,408.77485009427687 Z" fill="url(#leaf29)" opacity="0.18" transform="rotate(192.5 814.6 480.7)"/>
    <path d="M 63.802729854619884,864.0277540637807 C 108.26558850838308,901.08013627525 123.0865413929708,952.953471371307 63.802729854619884,1012.2372829096579 C 4.518918316268966,952.953471371307 19.3398712008567,901.08013627525 63.802729854619884,864.0277540637807 Z" fill="url(#leaf0)" opacity="0.24" transform="rotate(332.4 63.8 938.1)"/>
    <path d="M 1620.73097142389,698.7905417915904 C 1655.9771066408107,728.1623211390244 1667.7258183797844,769.2828122254319 1620.73097142389,816.2776591813263 C 1573.7361244679955,769.2828122254319 1585.4848362069692,728.1623211390244 1620.73097142389,698.7905417915904 Z" fill="url(#leaf1)" opacity="0.19" transform="rotate(90.2 1620.7 757.5)"/>
    <path d="M 1314.7834323366267,222.11623682203611 C 1338.7850831854912,242.1176125294232 1346.7856334684461,270.1195385197652 1314.7834323366267,302.1217396515845 C 1282.7812312048072,270.1195385197652 1290.7817814877621,242.1176125294232 1314.7834323366267,222.11623682203611 Z" fill="url(#leaf2)" opacity="0.20" transform="rotate(98.9 1314.8 262.1)"/>
    <path d="M 755.2292474639686,126.09680241593318 C 780.9680429388198,147.5457986449759 789.5476414304369,177.57439336563567 755.2292474639686,211.892787332104 C 720.9108534975003,177.57439336563567 729.4904519891173,147.5457986449759 755.2292474639686,126.09680241593318 Z" fill="url(#leaf3)" opacity="0.23" transform="rotate(38.7 755.2 169.0)"/>
    <path d="M 632.7460755200697,340.7816216855673 C 666.2555012029812,368.7061430879936 677.4253097639518,407.80047305139044 632.7460755200697,452.47970729527253 C 588.0668412761876,407.80047305139044 599.2366498371581,368.7061430879936 632.7460755200697,340.7816216855673 Z" fill="url(#leaf4)" opacity="0.25" transform="rotate(20.5 632.7 396.6)"/>
    <path d="M 627.6744246320172,666.8390714997718 C 649.4206098599301,684.9608925230325 656.6693382692345,710.3314419555975 627.6744246320172,739.3263555928147 C 598.6795109948,710.3314419555975 605.9282394041044,684.9608925230325 627.6744246320172,666.8390714997718 Z" fill="url(#leaf5)" opacity="0.20" transform="rotate(173.4 627.7 703.1)"/>
    <path d="M 264.17957351047875,673.0580675273825 C 302.2171354652603,704.7560358230338 314.8963227835208,749.1331914369457 264.17957351047875,799.8499407099878 C 213.46282423743668,749.1331914369457 226.1420115556972,704.7560358230338 264.17957351047875,673.0580675273825 Z" fill="url(#leaf6)" opacity="0.21" transform="rotate(324.7 264.2 736.5)"/>
    <path d="M 698.1296107311251,828.9795264859293 C 740.3849131576147,864.192278508004 754.4700139664446,913.4901313389087 698.1296107311251,969.8305345742282 C 641.7892074958056,913.4901313389087 655.8743083046355,864.192278508004 698.1296107311251,828.9795264859293 Z" fill="url(#leaf7)" opacity="0.21" transform="rotate(74.7 698.1 899.4)"/>
    <path d="M 1113.9422422557197,264.58638927228924 C 1152.0002830872777,296.30142329858757 1164.6862966977972,340.70247093540524 1113.9422422557197,391.44652537748254 C 1063.1981878136423,340.70247093540524 1075.8842014241618,296.30142329858757 1113.9422422557197,264.58638927228924 Z" fill="url(#leaf8)" opacity="0.17" transform="rotate(143.3 1113.9 328.0)"/>
    <path d="M 1188.9936928313266,63.75089065743947 C 1232.781736421815,100.2409269828464 1247.3777509519778,151.3269778384161 1188.9936928313266,209.7110359590672 C 1130.6096347106754,151.3269778384161 1145.2056492408383,100.2409269828464 1188.9936928313266,63.75089065743947 Z" fill="url(#leaf9)" opacity="0.23" transform="rotate(2.6 1189.0 136.7)"/>
    <path d="M 998.2772173278761,931.7886110578268 C 1023.7685747063903,953.0314088732553 1032.2656938325617,982.7713258148551 998.2772173278761,1016.7598023195408 C 964.2887408231904,982.7713258148551 972.7858599493619,953.0314088732553 998.2772173278761,931.7886110578268 Z" fill="url(#leaf10)" opacity="0.15" transform="rotate(9.1 998.3 974.3)"/>
    <path d="M 1425.1472613587014,934.3873077763132 C 1458.8967013815031,962.5118411286479 1470.1465147224371,1001.8861878219166 1425.1472613587014,1046.8854411856523 C 1380.1480079949656,1001.8861878219166 1391.3978213358996,962.5118411286479 1425.1472613587014,934.3873077763132 Z" fill="url(#leaf11)" opacity="0.19" transform="rotate(342.9 1425.1 990.6)"/>
    <path d="M 1250.814881874956,225.93930563879516 C 1288.8934066276472,257.67140959937115 1301.5862482118775,302.0963551441775 1250.814881874956,352.86772148109907 C 1200.0435155380344,302.0963551441775 1212.7363571222647,257.67140959937115 1250.814881874956,225.93930563879516 Z" fill="url(#leaf12)" opacity="0.20" transform="rotate(3.1 1250.8 289.4)"/>
    <path d="M 652.4018624143289,802.511122673659 C 674.4477220947967,820.8826724073822 681.796341988286,846.6028420345947 652.4018624143289,875.9973216085518 C 623.0073828403717,846.6028420345947 630.356002733861,820.8826724073822 652.4018624143289,802.511122673659 Z" fill="url(#leaf13)" opacity="0.24" transform="rotate(132.3 652.4 839.3)"/>
    <path d="M 386.5134334582553,878.6414171799315 C 420.8516286329456,907.2565798255067 432.29769369117577,947.3178075293122 386.5134334582553,993.1020677622325 C 340.7291732253348,947.3178075293122 352.17523828356497,907.2565798255067 386.5134334582553,878.6414171799315 Z" fill="url(#leaf14)" opacity="0.19" transform="rotate(253.9 386.5 935.9)"/>
    <path d="M 1338.4017352028955,-0.2797899171849707 C 1384.5905991175039,38.21093001165531 1399.98688708904,92.0979379120317 1338.4017352028955,153.68308979817613 C 1276.816583316751,92.0979379120317 1292.212871288287,38.21093001165531 1338.4017352028955,-0.2797899171849707 Z" fill="url(#leaf15)" opacity="0.16" transform="rotate(149.6 1338.4 76.7)"/>
    <path d="M 903.5756781707241,79.29492585435068 C 947.5237957944654,115.91835720746845 962.1731683357126,167.19116110183333 903.5756781707241,225.78865126682174 C 844.9781880057357,167.19116110183333 859.6275605469829,115.91835720746845 903.5756781707241,79.29492585435068 Z" fill="url(#leaf16)" opacity="0.20" transform="rotate(36.3 903.6 152.5)"/>
    <path d="M 711.1203348348613,320.0441580901613 C 757.176276164258,358.4241091979919 772.5282566073902,412.1560407489547 711.1203348348613,473.56396252148363 C 649.7124130623324,412.1560407489547 665.0643935054646,358.4241091979919 711.1203348348613,320.0441580901613 Z" fill="url(#leaf17)" opacity="0.18" transform="rotate(188.7 711.1 396.8)"/>
    <path d="M 1269.0876970018112,289.1574531604717 C 1300.8518618609219,315.62759054306395 1311.439916813959,352.6857828786932 1269.0876970018112,395.03800269084087 C 1226.7354771896635,352.6857828786932 1237.3235321427005,315.62759054306395 1269.0876970018112,289.1574531604717 Z" fill="url(#leaf18)" opacity="0.23" transform="rotate(339.1 1269.1 342.1)"/>
    <path d="M 1172.9372169201447,549.4809231547702 C 1195.7574463823985,568.4977810399816 1203.364189536483,595.1213820792777 1172.9372169201447,625.5483546956161 C 1142.5102443038063,595.1213820792777 1150.116987457891,568.4977810399816 1172.9372169201447,549.4809231547702 Z" fill="url(#leaf19)" opacity="0.24" transform="rotate(122.8 1172.9 587.5)"/>
    <path d="M 303.0639628195771,144.0473301817123 C 350.6470486484725,183.69990170579177 366.50807725810427,239.213501839503 303.0639628195771,302.65761627803016 C 239.61984838104996,239.213501839503 255.48087699068176,183.69990170579177 303.0639628195771,144.0473301817123 Z" fill="url(#leaf20)" opacity="0.17" transform="rotate(229.1 303.1 223.4)"/>
    <path d="M 738.9678506086026,929.2137145947945 C 762.1015940839927,948.4918341576196 769.8128419091228,975.4812015455748 738.9678506086026,1006.326192846095 C 708.1228593080824,975.4812015455748 715.8341071332125,948.4918341576196 738.9678506086026,929.2137145947945 Z" fill="url(#leaf21)" opacity="0.16" transform="rotate(154.8 739.0 967.8)"/>
    <path d="M 702.4841089577935,960.0150117380037 C 726.5641876652612,980.0817439942268 734.5908805677504,1008.1751691529391 702.4841089577935,1040.281940762896 C 670.3773373478366,1008.1751691529391 678.4040302503258,980.0817439942268 702.4841089577935,960.0150117380037 Z" fill="url(#leaf22)" opacity="0.18" transform="rotate(9.6 702.5 1000.1)"/>
    <path d="M 1096.476440533888,294.66388079906034 C 1122.2467434090488,316.1391331950277 1130.8368443674358,346.2044865493819 1096.476440533888,380.5648903829296 C 1062.1160367003404,346.2044865493819 1070.7061376587274,316.1391331950277 1096.476440533888,294.66388079906034 Z" fill="url(#leaf23)" opacity="0.19" transform="rotate(93.4 1096.5 337.6)"/>
    <path d="M 512.0643945371439,446.44990286144383 C 543.6129752682606,472.740386804041 554.1291688452994,509.54706432367703 512.0643945371439,551.6118386318326 C 469.9996202289884,509.54706432367703 480.5158138060273,472.740386804041 512.0643945371439,446.44990286144383 Z" fill="url(#leaf24)" opacity="0.25" transform="rotate(267.9 512.1 499.0)"/>
    <path d="M 1810.4029425938106,815.2880536544355 C 1830.0808606039745,831.6863186629055 1836.6401666073625,854.6438896747634 1810.4029425938106,880.8811136883153 C 1784.1657185802587,854.6438896747634 1790.7250245836467,831.6863186629055 1810.4029425938106,815.2880536544355 Z" fill="url(#leaf25)" opacity="0.22" transform="rotate(349.4 1810.4 848.1)"/>
    <path d="M 1158.403419739256,558.5114183167366 C 1202.4767799416322,595.2392184853836 1217.167900009091,646.6581387214893 1158.403419739256,705.4226189913245 C 1099.6389394694208,646.6581387214893 1114.3300595368796,595.2392184853836 1158.403419739256,558.5114183167366 Z" fill="url(#leaf26)" opacity="0.21" transform="rotate(286.7 1158.4 632.0)"/>
    <path d="M 851.5138812128374,509.4372803213463 C 884.0191613776764,536.5250137920455 894.854254765956,574.4478406510242 851.5138812128374,617.7882142041427 C 808.1735076597189,574.4478406510242 819.0086010479985,536.5250137920455 851.5138812128374,509.4372803213463 Z" fill="url(#leaf27)" opacity="0.20" transform="rotate(90.5 851.5 563.6)"/>
    <path d="M 126.95430243333671,393.47704581405264 C 149.6487635891033,412.3890967771915 157.21358397435887,438.8659681255859 126.95430243333671,469.12524966660806 C 96.69502089231455,438.8659681255859 104.25984127757009,412.3890967771915 126.95430243333671,393.47704581405264 Z" fill="url(#leaf28)" opacity="0.22" transform="rotate(270.4 127.0 431.3)"/>
    <path d="M 286.2825868975611,715.6443292563342 C 326.4552926110261,749.121584017555 339.84619451551447,795.9897406832642 286.2825868975611,849.5533483012175 C 232.71897927960774,795.9897406832642 246.10988118409608,749.121584017555 286.2825868975611,715.6443292563342 Z" fill="url(#leaf29)" opacity="0.21" transform="rotate(83.8 286.3 782.6)"/>
    <path d="M 700.0213302875533,682.6346009701942 C 741.4692148629294,717.1745047830078 755.2851763880549,765.5303701209467 700.0213302875533,820.7942162214483 C 644.7574841870517,765.5303701209467 658.5734457121771,717.1745047830078 700.0213302875533,682.6346009701942 Z" fill="url(#leaf0)" opacity="0.19" transform="rotate(257.7 700.0 751.7)"/>
    <path d="M 713.3523919161764,977.8249294807738 C 741.2689742482362,1001.0887480908236 750.5745016922561,1033.6580941448933 713.3523919161764,1070.8802039209731 C 676.1302821400967,1033.6580941448933 685.4358095841167,1001.0887480908236 713.3523919161764,977.8249294807738 Z" fill="url(#leaf1)" opacity="0.24" transform="rotate(175.0 713.4 1024.4)"/>
    <path d="M 71.8789015915372,91.01691049855172 C 90.4570562176647,106.49870602032465 96.64977442637387,128.1732197508067 71.8789015915372,152.94409258564338 C 47.108028756700534,128.1732197508067 53.3007469654097,106.49870602032465 71.8789015915372,91.01691049855172 Z" fill="url(#leaf2)" opacity="0.22" transform="rotate(307.8 71.9 122.0)"/>
    <path d="M 50.19984643309437,950.6921174920675 C 83.02903607996117,978.0497755311231 93.97209929558346,1016.350496785801 50.19984643309437,1060.1227496482902 C 6.427593570605289,1016.350496785801 17.370656786227563,978.0497755311231 50.19984643309437,950.6921174920675 Z" fill="url(#leaf3)" opacity="0.23" transform="rotate(54.8 50.2 1005.4)"/>
    <path d="M 1017.7047514786632,460.04217912871707 C 1065.5217737855633,499.8896977178005 1081.4607812211966,555.6762237425173 1017.7047514786632,619.4322534850509 C 953.9487217361296,555.6762237425173 969.887729171763,499.8896977178005 1017.7047514786632,460.04217912871707 Z" fill="url(#leaf4)" opacity="0.18" transform="rotate(45.9 1017.7 539.7)"/>
    <path d="M 1316.774376591341,50.464353285405 C 1346.8437918570658,75.52219934017555 1356.866930278974,110.60318381685431 1316.774376591341,150.6957375044872 C 1276.681822903708,110.60318381685431 1286.7049613256163,75.52219934017555 1316.774376591341,50.464353285405 Z" fill="url(#leaf5)" opacity="0.22" transform="rotate(333.3 1316.8 100.6)"/>
    <path d="M 1458.926546726648,77.46335254989575 C 1477.2005261216914,92.69166871243193 1483.291852586706,114.01131133998261 1458.926546726648,138.37661720004053 C 1434.56124086659,114.01131133998261 1440.6525673316046,92.69166871243193 1458.926546726648,77.46335254989575 Z" fill="url(#leaf6)" opacity="0.16" transform="rotate(103.9 1458.9 107.9)"/>
    <path d="M 480.4538268419411,792.6666077828495 C 499.36959148141744,808.4297449824131 505.6748463612429,830.4981370618023 480.4538268419411,855.719156581104 C 455.23280732263936,830.4981370618023 461.5380622024648,808.4297449824131 480.4538268419411,792.6666077828495 Z" fill="url(#leaf7)" opacity="0.20" transform="rotate(217.9 480.5 824.2)"/>
    <path d="M 197.50191470552954,275.6617940954566 C 240.46738711592005,311.46635443744873 254.78921125271688,361.5927389162377 197.50191470552954,418.88003546342503 C 140.2146181583422,361.5927389162377 154.53644229513904,311.46635443744873 197.50191470552954,275.6617940954566 Z" fill="url(#leaf8)" opacity="0.15" transform="rotate(23.9 197.5 347.3)"/>
    <path d="M 1283.037331770822,486.90162489111316 C 1304.4445495242767,504.74097301899207 1311.5802887754282,529.7160603980226 1283.037331770822,558.259017402629 C 1254.4943747662157,529.7160603980226 1261.6301140173673,504.74097301899207 1283.037331770822,486.90162489111316 Z" fill="url(#leaf9)" opacity="0.20" transform="rotate(298.9 1283.0 522.6)"/>
    <path d="M 680.1286427763595,459.9926688581776 C 720.713784417416,493.8136202257248 734.242164964435,541.1629521402908 680.1286427763595,595.2764743283664 C 626.0151205882839,541.1629521402908 639.5435011353029,493.8136202257248 680.1286427763595,459.9926688581776 Z" fill="url(#leaf10)" opacity="0.23" transform="rotate(8.5 680.1 527.6)"/>
    <path d="M 224.82499049720101,444.7300055084587 C 271.12772146044784,483.3156146444977 286.5619651148634,537.3354674349523 224.82499049720101,599.0724420526147 C 163.0880158795386,537.3354674349523 178.5222595339542,483.3156146444977 224.82499049720101,444.7300055084587 Z" fill="url(#leaf11)" opacity="0.24" transform="rotate(350.3 224.8 521.9)"/>
    <path d="M 459.31911411707296,226.95403171316715 C 500.1532768570162,260.9825006631199 513.7646644369972,308.62235719305363 459.31911411707296,363.06790751297797 C 404.8735637971486,308.62235719305363 418.48495137712973,260.9825006631199 459.31911411707296,226.95403171316715 Z" fill="url(#leaf12)" opacity="0.22" transform="rotate(26.8 459.3 295.0)"/>
    <path d="M 1752.634643854466,610.2965208379726 C 1786.0568581159157,638.1483660558473 1797.1975962030654,677.1409493608718 1752.634643854466,721.7039017094712 C 1708.0716915058667,677.1409493608718 1719.2124295930164,638.1483660558473 1752.634643854466,610.2965208379726 Z" fill="url(#leaf13)" opacity="0.25" transform="rotate(94.0 1752.6 666.0)"/>
    <path d="M 848.3725469887216,487.46978394288783 C 888.6898058255231,521.0674996402224 902.128892104457,568.1043016164908 848.3725469887216,621.8606467322262 C 794.6162018729863,568.1043016164908 808.0552881519202,521.0674996402224 848.3725469887216,487.46978394288783 Z" fill="url(#leaf14)" opacity="0.23" transform="rotate(54.5 848.4 554.7)"/>
    <path d="M 734.6738324001027,500.01758232499924 C 767.3583109519776,527.254647784895 778.253137135936,565.3865394287492 734.6738324001027,608.9658441645824 C 691.0945276642694,565.3865394287492 701.9893538482278,527.254647784895 734.6738324001027,500.01758232499924 Z" fill="url(#leaf15)" opacity="0.19" transform="rotate(307.7 734.7 554.5)"/>
    <path d="M 1518.8477807274978,503.4859942546403 C 1553.7544736914017,532.5749050578935 1565.390038012703,573.2993801824479 1518.8477807274978,619.841637467653 C 1472.3055234422927,573.2993801824479 1483.941087763594,532.5749050578935 1518.8477807274978,503.4859942546403 Z" fill="url(#leaf16)" opacity="0.23" transform="rotate(356.1 1518.8 561.7)"/>
    </g>

    <!-- Text with SOLID fill only (ThorVG compatible) -->
    <text x="858.7" y="845.1"
          font-family="Arial, Helvetica, sans-serif"
          font-size="1080px"
          font-weight="bold"
          fill="#96E6A1"
          text-anchor="middle"
          transform="rotate(0.2 960.0 540.0)">
      F
    </text>
  </g>

  <!-- Frame counter -->
  <text x="960.0" y="1050.0"
        font-family="monospace"
        font-size="24px"
        fill="#FFFFFF"
        text-anchor="middle"
        opacity="0.7">
    Frame 00042 - Compatible
  </text>
</svg>