<?xml version="1.0" encoding="UTF-8"?>
<svg xmlns="http://www.w3.org/2000/svg" viewBox="0 0 1920 1080" width="1920" height="1080">
  <defs>
    <linearGradient id="bgGrad" x1="0%" y1="0%" x2="100%" y2="100%">
      <stop offset="0%" stop-color="#45B7D1"/>
      <stop offset="100%" stop-color="#FFE66D"/>
    </linearGradient>
    <clipPath id="complexClip"><polygon points="1344.9,540.0 1539.2,581.2 1446.7,610.3 1478.5,655.5 1465.4,696.3 1455.2,742.4 1386.3,765.2 1343.3,800.6 1290.0,832.5 1172.8,794.4 1140.9,853.2 1085.2,909.1 989.9,807.2 926.1,842.8 849.4,866.2 766.0,875.8 748.9,792.3 655.8,809.6 565.9,807.9 491.0,787.8 573.4,698.0 392.0,715.6 516.1,638.9 364.7,626.0 377.1,581.4 506.8,540.0 296.6,492.9 359.6,453.3 474.4,431.9 507.4,400.1 483.6,345.3 536.0,316.0 703.5,365.6 653.5,268.3 754.4,294.3 757.8,189.9 853.7,226.6 930.7,278.2 997.9,201.5 1078.7,190.1 1129.7,246.1 1186.6,269.1 1180.8,344.3 1281.1,321.6 1433.2,290.0 1420.2,351.9 1524.4,365.5 1581.7,401.5 1511.6,460.3 1469.9,503.8"/></clipPath>
    <radialGradient id="leaf0" cx="50%" cy="50%" r="70%">
      <stop offset="0%" stop-color="#00CED1"/>
      <stop offset="50%" stop-color="#45B7D1"/>
      <stop offset="100%" stop-color="#FF6B6B"/>
    </radialGradient>
    <radialGradient id="leaf1" cx="50%" cy="50%" r="70%">
      <stop offset="0%" stop-color="#96E6A1"/>
      <stop offset="50%" stop-color="#9370DB"/>
      <stop offset="100%" stop-color="#FF1493"/>
    </radialGradient>
    <radialGradient id="leaf2" cx="50%" cy="50%" r="70%">
      <stop offset="0%" stop-color="#FF69B4"/>
      <stop offset="50%" stop-color="#00FA9A"/>
      <stop offset="100%" stop-color="#FFE66D"/>
    </radialGradient>
    <radialGradient id="leaf3" cx="50%" cy="50%" r="70%">
      <stop offset="0%" stop-color="#32CD32"/>
      <stop offset="50%" stop-color="#FFE66D"/>
      <stop offset="100%" stop-color="#7B68EE"/>
    </radialGradient>
    <radialGradient id="leaf4" cx="50%" cy="50%" r="70%">
      <stop offset="0%" stop-color="#00CED1"/>
      <stop offset="50%" stop-color="#00FA9A"/>
      <stop offset="100%" stop-color="#FF69B4"/>
    </radialGradient>
    <radialGradient id="leaf5" cx="50%" cy="50%" r="70%">
      <stop offset="0%" stop-color="#96E6A1"/>
      <stop offset="50%" stop-color="#FF69B4"/>
      <stop offset="100%" stop-color="#7B68EE"/>
    </radialGradient>
    <radialGradient id="leaf6" cx="50%" cy="50%" r="70%">
      <stop offset="0%" stop-color="#7B68EE"/>
      <stop offset="50%" stop-color="#DC143C"/>
      <stop offset="100%" stop-color="#45B7D1"/>
    </radialGradient>
    <radialGradient id="leaf7" cx="50%" cy="50%" r="70%">
      <stop offset="0%" stop-color="#00FA9A"/>
      <stop offset="50%" stop-color="#FFD700"/>
      <stop offset="100%" stop-color="#4ECDC4"/>
    </radialGradient>
    <radialGradient id="leaf8" cx="50%" cy="50%" r="70%">
      <stop offset="0%" stop-color="#DC143C"/>
      <stop offset="50%" stop-color="#00FA9A"/>
      <stop offset="100%" stop-color="#4ECDC4"/>
    </radialGradient>
    <radialGradient id="leaf9" cx="50%" cy="50%" r="70%">
      <stop offset="0%" stop-color="#45B7D1"/>
      <stop offset="50%" stop-color="#FFD700"/>
      <stop offset="100%" stop-color="#FF69B4"/>
    </radialGradient>
    <radialGradient id="leaf10" cx="50%" cy="50%" r="70%">
      <stop offset="0%" stop-color="#00FA9A"/>
      <stop offset="50%" stop-color="#DC143C"/>
      <stop offset="100%" stop-color="#96E6A1"/>
    </radialGradient>
    <radialGradient id="leaf11" cx="50%" cy="50%" r="70%">
      <stop offset="0%" stop-color="#96E6A1"/>
      <stop offset="50%" stop-color="#FF6B6B"/>
      <stop offset="100%" stop-color="#9370DB"/>
    </radialGradient>
    <radialGradient id="leaf12" cx="50%" cy="50%" r="70%">
      <stop offset="0%" stop-color="#FFE66D"/>
      <stop offset="50%" stop-color="#45B7D1"/>
      <stop offset="100%" stop-color="#FF69B4"/>
    </radialGradient>
    <radialGradient id="leaf13" cx="50%" cy="50%" r="70%">
      <stop offset="0%" stop-color="#9370DB"/>
      <stop offset="50%" stop-color="#FF1493"/>
      <stop offset="100%" stop-color="#45B7D1"/>
    </radialGradient>
    <radialGradient id="leaf14" cx="50%" cy="50%" r="70%">
      <stop offset="0%" stop-color="#7B68EE"/>
      <stop offset="50%" stop-color="#96E6A1"/>
      <stop offset="100%" stop-color="#9370DB"/>
    </radialGradient>
    <radialGradient id="leaf15" cx="50%" cy="50%" r="70%">
      <stop offset="0%" stop-color="#00CED1"/>
      <stop offset="50%" stop-color="#FF69B4"/>
      <stop offset="100%" stop-color="#4ECDC4"/>
    </radialGradient>
    <radialGradient id="leaf16" cx="50%" cy="50%" r="70%">
      <stop offset="0%" stop-color="#4ECDC4"/>
      <stop offset="50%" stop-color="#96E6A1"/>
      <stop offset="100%" stop-color="#FFE66D"/>
    </radialGradient>
    <radialGradient id="leaf17" cx="50%" cy="50%" r="70%">
      <stop offset="0%" stop-color="#96E6A1"/>
      <stop offset="50%" stop-color="#4ECDC4"/>
      <stop offset="100%" stop-color="#FFD700"/>
    </radialGradient>
    <radialGradient id="leaf18" cx="50%" cy="50%" r="70%">
      <stop offset="0%" stop-color="#32CD32"/>
      <stop offset="50%" stop-color="#4ECDC4"/>
      <stop offset="100%" stop-color="#9370DB"/>
    </radialGradient>
    <radialGradient id="leaf19" cx="50%" cy="50%" r="70%">
      <stop offset="0%" stop-color="#FFE66D"/>
      <stop offset="50%" stop-color="#32CD32"/>
      <stop offset="100%" stop-color="#DC143C"/>
    </radialGradient>
    <radialGradient id="leaf20" cx="50%" cy="50%" r="70%">
      <stop offset="0%" stop-color="#DC143C"/>
      <stop offset="50%" stop-color="#FF4500"/>
      <stop offset="100%" stop-color="#4ECDC4"/>
    </radialGradient>
    <radialGradient id="leaf21" cx="50%" cy="50%" r="70%">
      <stop offset="0%" stop-color="#96E6A1"/>
      <stop offset="50%" stop-color="#4ECDC4"/>
      <stop offset="100%" stop-color="#FF6B6B"/>
    </radialGradient>
    <radialGradient id="leaf22" cx="50%" cy="50%" r="70%">
      <stop offset="0%" stop-color="#FF6B6B"/>
      <stop offset="50%" stop-color="#00CED1"/>
      <stop offset="100%" stop-color="#9370DB"/>
    </radialGradient>
    <radialGradient id="leaf23" cx="50%" cy="50%" r="70%">
      <stop offset="0%" stop-color="#96E6A1"/>
      <stop offset="50%" stop-color="#FFE66D"/>
      <stop offset="100%" stop-color="#7B68EE"/>
    </radialGradient>
    <radialGradient id="leaf24" cx="50%" cy="50%" r="70%">
      <stop offset="0%" stop-color="#FF69B4"/>
      <stop offset="50%" stop-color="#FF1493"/>
      <stop offset="100%" stop-color="#00CED1"/>
    </radialGradient>
    <radialGradient id="leaf25" cx="50%" cy="50%" r="70%">
      <stop offset="0%" stop-color="#FF1493"/>
      <stop offset="50%" stop-color="#00CED1"/>
      <stop offset="100%" stop-color="#00FA9A"/>
    </radialGradient>
    <radialGradient id="leaf26" cx="50%" cy="50%" r="70%">
      <stop offset="0%" stop-color="#FFD700"/>
      <stop offset="50%" stop-color="#FF1493"/>
      <stop offset="100%" stop-color="#DC143C"/>
    </radialGradient>
    <radialGradient id="leaf27" cx="50%" cy="50%" r="70%">
      <stop offset="0%" stop-color="#45B7D1"/>
      <stop offset="50%" stop-color="#4ECDC4"/>
      <stop offset="100%" stop-color="#00FA9A"/>
    </radialGradient>
    <radialGradient id="leaf28" cx="50%" cy="50%" r="70%">
      <stop offset="0%" stop-color="#DC143C"/>
      <stop offset="50%" stop-color="#00FA9A"/>
      <stop offset="100%" stop-color="#00CED1"/>
    </radialGradient>
    <radialGradient id="leaf29" cx="50%" cy="50%" r="70%">
      <stop offset="0%" stop-color="#FF1493"/>
      <stop offset="50%" stop-color="#00CED1"/>
      <stop offset="100%" stop-color="#00FA9A"/>
    </radialGradient>
  </defs>

  <!-- Scaled content -->
  <g transform="translate(960.0,540.0) scale(3.0) translate(-960.0,-540.0)">
    <!-- Background -->
    <rect width="1920" height="1080" fill="url(#bgGrad)"/>
    
    <!-- Leaves with clip-path -->
    <g clip-path="url(#complexClip)">
    <path d="M 1457.092739512778,234.25238781973212 C 1501.1084872179201,270.9321775740172 1515.7804031196342,322.2838832300163 1457.092739512778,380.97154683687234 C 1398.4050759059219,322.2838832300163 1413.076991807636,270.9321775740172 1457.092739512778,234.25238781973212 Z" fill="url(#leaf0)" opacity="0.16" transform="rotate(1.2 1457.1 307.6)"/>
    <path d="M 1176.6493604172883,338.09329482005523 C 1224.4520928005545,377.9289051394436 1240.3863369283097,433.69875958658736 1176.6493604172883,497.4357360976088 C 1112.912383906267,433.69875958658736 1128.8466280340222,377.9289051394436 1176.6493604172883,338.09329482005523 Z" fill="url(#leaf1)" opacity="0.20" transform="rotate(229.1 1176.6 417.8)"/>
    <path d="M 1514.166115246211,662.8511598096328 C 1552.0033952297952,694.3822264626197 1564.6158218909898,738.5257197768012 1514.166115246211,788.9754264215802 C 1463.716408601432,738.5257197768012 1476.3288352626266,694.3822264626197 1514.166115246211,662.8511598096328 Z" fill="url(#leaf2)" opacity="0.23" transform="rotate(238.6 1514.2 725.9)"/>
    <path d="M 317.5003174705564,396.76863697006377 C 337.2527233013168,413.22897516236407 343.8368585782369,436.2734486315845 317.5003174705564,462.60998973926496 C 291.1637763628759,436.2734486315845 297.74791163979603,413.22897516236407 317.5003174705564,396.76863697006377 Z" fill="url(#leaf3)" opacity="0.16" transform="rotate(28.1 317.5 429.7)"/>
    <path d="M 469.81322736528995,264.5965391582344 C 492.47840925286766,283.4841907312158 500.0334698820602,309.9269029333898 469.81322736528995,340.14714545016005 C 439.5929848485197,309.9269029333898 447.14804547771223,283.4841907312158 469.81322736528995,264.5965391582344 Z" fill="url(#leaf4)" opacity="0.16" transform="rotate(256.1 469.8 302.4)"/>
    <path d="M 1851.217107688745,148.66426424494395 C 1872.3835387136573,166.3029567657042 1879.4390157219614,190.99712629476855 1851.217107688745,219.21903432798493 C 1822.9951996555287,190.99712629476855 1830.0506766638327,166.3029567657042 1851.217107688745,148.66426424494395 Z" fill="url(#leaf5)" opacity="0.16" transform="rotate(349.8 1851.2 183.9)"/>
    <path d="M 821.9396038851636,716.6435746716194 C 851.0066512769454,740.8661141647708 860.695667074206,774.777669455183 821.9396038851636,813.5337326442253 C 783.1835406961212,774.777669455183 792.8725564933818,740.8661141647708 821.9396038851636,716.6435746716194 Z" fill="url(#leaf6)" opacity="0.22" transform="rotate(58.0 821.9 765.1)"/>
    <path d="M 1519.3712151380455,65.70416335656027 C 1558.7134753684475,98.4893802152285 1571.8275621119146,144.38868381736398 1519.3712151380455,196.8450307912331 C 1466.9148681641764,144.38868381736398 1480.0289549076435,98.4893802152285 1519.3712151380455,65.70416335656027 Z" fill="url(#leaf7)" opacity="0.25" transform="rotate(222.2 1519.4 131.3)"/>
    <path d="M 1357.5849489462555,528.5958752643061 C 1386.809348122702,552.9495412446781 1396.5508145148508,587.044673617199 1357.5849489462555,626.0105391857943 C 1318.6190833776602,587.044673617199 1328.360549769809,552.9495412446781 1357.5849489462555,528.5958752643061 Z" fill="url(#leaf8)" opacity="0.17" transform="rotate(133.2 1357.6 577.3)"/>
    <path d="M 670.1760917690158,123.4455124230197 C 712.907692182081,159.05517943390734 727.151558986436,208.90871324915005 670.1760917690158,265.8841804665703 C 613.2006245515955,208.90871324915005 627.4444913559506,159.05517943390734 670.1760917690158,123.4455124230197 Z" fill="url(#leaf9)" opacity="0.22" transform="rotate(49.7 670.2 194.7)"/>
    <path d="M 371.1707189592318,209.8244555328531 C 400.6638474355124,234.4020625964203 410.4948902609393,268.8107124854144 371.1707189592318,308.1348837871219 C 331.8465476575243,268.8107124854144 341.6775904829512,234.4020625964203 371.1707189592318,209.8244555328531 Z" fill="url(#leaf10)" opacity="0.16" transform="rotate(178.5 371.2 259.0)"/>
    <path d="M 1526.5006360078912,378.9531704954105 C 1554.9862723403044,402.69120077242155 1564.4814844511088,435.924443160237 1526.5006360078912,473.90529160345466 C 1488.5197875646736,435.924443160237 1498.014999675478,402.69120077242155 1526.5006360078912,378.9531704954105 Z" fill="url(#leaf11)" opacity="0.25" transform="rotate(98.7 1526.5 426.4)"/>
    <path d="M 1757.8190839792555,948.9315816690939 C 1776.7829098425798,964.7347698885308 1783.1041851303546,986.8592333957424 1757.8190839792555,1012.1443345468415 C 1732.5339828281565,986.8592333957424 1738.8552581159313,964.7347698885308 1757.8190839792555,948.9315816690939 Z" fill="url(#leaf12)" opacity="0.23" transform="rotate(65.5 1757.8 980.5)"/>
    <path d="M 1739.7327690720263,568.7624190236618 C 1763.6760304268612,588.7151368193574 1771.6571175451395,616.6489417333315 1739.7327690720263,648.5732902064447 C 1707.808420598913,616.6489417333315 1715.7895077171913,588.7151368193574 1739.7327690720263,568.7624190236618 Z" fill="url(#leaf13)" opacity="0.15" transform="rotate(61.3 1739.7 608.7)"/>
    <path d="M 1770.155173583006,714.7737121116718 C 1798.1153894105476,738.0738919679565 1807.4354613530616,770.694143766755 1770.155173583006,807.9744315368105 C 1732.8748858129504,770.694143766755 1742.1949577554644,738.0738919679565 1770.155173583006,714.7737121116718 Z" fill="url(#leaf14)" opacity="0.19" transform="rotate(172.3 1770.2 761.4)"/>
    <path d="M 550.0711993529246,632.4904204719704 C 584.6273658871718,661.2872259171763 596.1460880652542,701.6027535404647 550.0711993529246,747.6776422527943 C 503.996310640595,701.6027535404647 515.5150328186775,661.2872259171763 550.0711993529246,632.4904204719704 Z" fill="url(#leaf15)" opacity="0.16" transform="rotate(148.8 550.1 690.1)"/>
    <path d="M 230.6126242655438,567.474202980019 C 249.93298108140885,583.5745003265731 256.3731000200305,606.1149166117491 230.6126242655438,631.8753923662358 C 204.85214851105704,606.1149166117491 211.29226744967872,583.5745003265731 230.6126242655438,567.474202980019 Z" fill="url(#leaf16)" opacity="0.21" transform="rotate(256.4 230.6 599.7)"/>
    <path d="M 317.2858360623533,207.50616857350315 C 354.28598273556133,238.33962413450982 366.619364959964,281.50646191991916 317.2858360623533,330.83999081752984 C 267.95230716474265,281.50646191991916 280.2856893891453,238.33962413450982 317.2858360623533,207.50616857350315 Z" fill="url(#leaf17)" opacity="0.17" transform="rotate(222.8 317.3 269.2)"/>
    <path d="M 1561.434054123082,596.0385752214773 C 1582.191203557974,613.336199750554 1589.1102533696044,637.5528740912612 1561.434054123082,665.2290733377837 C 1533.7578548765596,637.5528740912612 1540.67690468819,613.336199750554 1561.434054123082,596.0385752214773 Z" fill="url(#leaf18)" opacity="0.20" transform="rotate(153.4 1561.4 630.6)"/>
    <path d="M 1604.6794683118835,109.40142272899227 C 1634.1807252902724,133.98580354431647 1644.0144776164022,168.40393668577036 1604.6794683118835,207.7389459902891 C 1565.3444590073648,168.40393668577036 1575.1782113334946,133.98580354431647 1604.6794683118835,109.40142272899227 Z" fill="url(#leaf19)" opacity="0.17" transform="rotate(271.6 1604.7 158.6)"/>
    <path d="M 1355.6112937843257,321.3337385893964 C 1391.271584746959,351.0506477249242 1403.15834840117,392.6543205146631 1355.6112937843257,440.2013751315076 C 1308.0642391674812,392.6543205146631 1319.9510028216923,351.0506477249242 1355.6112937843257,321.3337385893964 Z" fill="url(#leaf20)" opacity="0.21" transform="rotate(40.2 1355.6 380.8)"/>
    <path d="M 608.3385598287123,399.77195219065266 C 642.5923286547626,428.31675954569454 654.0102515967793,468.27948984275326 608.3385598287123,513.9511816108203 C 562.6668680606452,468.27948984275326 574.084791002662,428.31675954569454 608.3385598287123,399.77195219065266 Z" fill="url(#leaf21)" opacity="0.24" transform="rotate(93.7 608.3 456.9)"/>
    <path d="M 187.43865705267973,760.4252281312781 C 233.90034014806622,799.1432973774336 249.3875678465284,853.3485943220512 187.43865705267973,915.2975051158999 C 125.48974625883105,853.3485943220512 140.97697395729324,799.1432973774336 187.43865705267973,760.4252281312781 Z" fill="url(#leaf22)" opacity="0.21" transform="rotate(225.3 187.4 837.9)"/>
    <path d="M 1515.0945676172446,401.96507341476286 C 1553.0988204895498,433.6352841416839 1565.7669047803183,477.97357915937334 1515.0945676172446,528.645916322447 C 1464.4222304541709,477.97357915937334 1477.0903147449394,433.6352841416839 1515.0945676172446,401.96507341476286 Z" fill="url(#leaf23)" opacity="0.23" transform="rotate(249.5 1515.1 465.3)"/>
    <path d="M 153.18535442643784,188.3336001890571 C 191.88395755031289,220.58243612561964 204.7834919249379,265.7308064368072 153.18535442643784,317.3289439353072 C 101.58721692793779,265.7308064368072 114.4867513025628,220.58243612561964 153.18535442643784,188.3336001890571 Z" fill="url(#leaf24)" opacity="0.25" transform="rotate(311.6 153.2 252.8)"/>
    <path d="M 1581.1167362663425,143.02997411846547 C 1622.7201838834762,177.69951379941023 1636.587999755854,226.23686935273287 1581.1167362663425,281.7081328422445 C 1525.645472776831,226.23686935273287 1539.5132886492088,177.69951379941023 1581.1167362663425,143.02997411846547 Z" fill="url(#leaf25)" opacity="0.20" transform="rotate(12.0 1581.1 212.4)"/>
    <path d="M 217.03341837047535,229.05465344293998 C 237.3479504484203,245.9834301745608 244.11946114106865,269.68371759882996 217.03341837047535,296.76976036942324 C 189.94737559988204,269.68371759882996 196.71888629253039,245.9834301745608 217.03341837047535,229.05465344293998 Z" fill="url(#leaf26)" opacity="0.20" transform="rotate(331.6 217.0 262.9)"/>
    <path d="M 711.4200469661753,131.44799203007398 C 746.5203594663561,160.69825244689136 758.2204636330831,201.6486170304357 711.4200469661753,248.4490336973435 C 664.6196302992674,201.6486170304357 676.3197344659944,160.69825244689136 711.4200469661753,131.44799203007398 Z" fill="url(#leaf27)" opacity="0.18" transform="rotate(132.7 711.4 189.9)"/>
    <path d="M 94.60514482212318,607.6026568232621 C 140.54401258681816,645.8850466271747 155.85696850838315,699.4803923526522 94.60514482212318,760.7322160389122 C 33.35332113586321,699.4803923526522 48.6662770574282,645.8850466271747 94.60514482212318,607.6026568232621 Z" fill="url(#leaf28)" opacity="0.17" transform="rotate(189.1 94.6 684.2)"/>
    <path d="M 1553.9946462118373,824.0614211467772 C 1587.5978946478954,852.0641281768255 1598.7989774599146,891.2679180188932 1553.9946462118373,936.0722492669705 C 1509.19031496376,891.2679180188932 1520.3913977757793,852.0641281768255 1553.9946462118373,824.0614211467772 Z" fill="url(#leaf29)" opacity="0.16" transform="rotate(195.8 1554.0 880.1)"/>
    <path d="M 1117.909432769955,701.5481317292265 C 1140.2151003561837,720.1361880510836 1147.6503228849265,746.1594669016838 1117.909432769955,775.9003570166553 C 1088.1685426549834,746.1594669016838 1095.6037651837262,720.1361880510836 1117.909432769955,701.5481317292265 Z" fill="url(#leaf0)" opacity="0.24" transform="rotate(274.5 1117.9 738.7)"/>
    <path d="M 530.6472172389357,114.73542905020932 C 563.4733762828378,142.09056158679437 574.4154292974717,180.3877471380134 530.6472172389357,224.15595919654945 C 486.87900518039964,180.3877471380134 497.82105819503363,142.09056158679437 530.6472172389357,114.73542905020932 Z" fill="url(#leaf1)" opacity="0.25" transform="rotate(230.6 530.6 169.4)"/>
    <path d="M 473.7739617327771,281.0995199059464 C 496.8459586500611,300.32618400368307 504.5366242891558,327.2435137405144 473.7739617327771,358.00617629689305 C 443.0112991763984,327.2435137405144 450.70196481549306,300.32618400368307 473.7739617327771,281.0995199059464 Z" fill="url(#leaf2)" opacity="0.21" transform="rotate(217.2 473.8 319.6)"/>
    <path d="M 1823.500123059697,137.43523471481518 C 1849.8114759750133,159.36136214424548 1858.5819269467854,190.05794054544788 1823.500123059697,225.13974443253636 C 1788.4183191726086,190.05794054544788 1797.1887701443807,159.36136214424548 1823.500123059697,137.43523471481518 Z" fill="url(#leaf3)" opacity="0.21" transform="rotate(81.1 1823.5 181.3)"/>
    <path d="M 126.28954562208943,740.9955288150959 C 161.00638899348334,769.9262316245909 172.57867011728132,810.4292155578838 126.28954562208943,856.7183400530757 C 80.00042112689755,810.4292155578838 91.57270225069553,769.9262316245909 126.28954562208943,740.9955288150959 Z" fill="url(#leaf4)" opacity="0.16" transform="rotate(123.6 126.3 798.9)"/>
    <path d="M 658.8368790934135,918.4857610261453 C 684.5764132949812,939.935372860785 693.1562580288371,969.9648294292807 658.8368790934135,1004.2842083647043 C 624.5175001579898,969.9648294292807 633.0973448918458,939.935372860785 658.8368790934135,918.4857610261453 Z" fill="url(#leaf5)" opacity="0.18" transform="rotate(56.8 658.8 961.4)"/>
    <path d="M 864.0536157043089,746.2806483215089 C 894.4600137483969,771.619313358249 904.595479763093,807.093444409685 864.0536157043089,847.6353084684691 C 823.5117516455248,807.093444409685 833.6472176602208,771.619313358249 864.0536157043089,746.2806483215089 Z" fill="url(#leaf6)" opacity="0.16" transform="rotate(167.3 864.1 797.0)"/>
    <path d="M 195.143958524271,509.6100072415713 C 225.2752077617218,534.7193816061136 235.31895750753873,569.8725057164729 195.143958524271,610.0475046997406 C 154.96895954100327,569.8725057164729 165.0127092868202,534.7193816061136 195.143958524271,509.6100072415713 Z" fill="url(#leaf7)" opacity="0.21" transform="rotate(70.1 195.1 559.8)"/>
    <path d="M 759.7616602421624,950.6922686967192 C 799.7238898174336,983.9941266761118 813.0446330091906,1030.6167278472617 759.7616602421624,1083.89970061429 C 706.4786874751342,1030.6167278472617 719.7994306668912,983.9941266761118 759.7616602421624,950.6922686967192 Z" fill="url(#leaf8)" opacity="0.21" transform="rotate(215.2 759.8 1017.3)"/>
    <path d="M 1594.4575992876532,224.00791824151239 C 1627.6427966069334,251.66224934091258 1638.7045290466936,290.3783128800729 1594.4575992876532,334.62524263911325 C 1550.210669528613,290.3783128800729 1561.272401968373,251.66224934091258 1594.4575992876532,224.00791824151239 Z" fill="url(#leaf9)" opacity="0.20" transform="rotate(39.7 1594.5 279.3)"/>
    <path d="M 810.2044643060192,116.33953566619424 C 849.0711916136091,148.72847508918585 862.0267673828057,194.07299028137408 810.2044643060192,245.89529335816064 C 758.3821612292327,194.07299028137408 771.3377369984292,148.72847508918585 810.2044643060192,116.33953566619424 Z" fill="url(#leaf10)" opacity="0.19" transform="rotate(351.0 810.2 181.1)"/>
    <path d="M 976.6934748150762,137.56686814082957 C 1011.8624367126854,166.87433638883726 1023.5854240118886,207.90479193604804 976.6934748150762,254.79674113286035 C 929.8015256182639,207.90479193604804 941.5245129174671,166.87433638883726 976.6934748150762,137.56686814082957 Z" fill="url(#leaf11)" opacity="0.22" transform="rotate(42.8 976.7 196.2)"/>
    <path d="M 308.3072965891173,517.7366453767779 C 355.6500937273597,557.1889763253132 371.43102610677386,612.4222396532627 308.3072965891173,675.5459691709193 C 245.18356707146071,612.4222396532627 260.9644994508749,557.1889763253132 308.3072965891173,517.7366453767779 Z" fill="url(#leaf12)" opacity="0.25" transform="rotate(36.7 308.3 596.6)"/>
    <path d="M 1025.3406524984216,0.3116322791438293 C 1056.314103238878,26.122841229524106 1066.63858681903,62.258533760056494 1025.3406524984216,103.55646808066493 C 984.0427181778132,62.258533760056494 994.3672017579653,26.122841229524106 1025.3406524984216,0.3116322791438293 Z" fill="url(#leaf13)" opacity="0.18" transform="rotate(314.9 1025.3 51.9)"/>
    <path d="M 493.6809883916364,761.5429227621524 C 522.5149316863159,785.5712088410521 532.1262461178758,819.2108093515116 493.6809883916364,857.6560670777509 C 455.23573066539706,819.2108093515116 464.8470450969569,785.5712088410521 493.6809883916364,761.5429227621524 Z" fill="url(#leaf14)" opacity="0.21" transform="rotate(68.4 493.7 809.6)"/>
    <path d="M 727.2835784699595,686.7762931692487 C 768.3503519420697,720.9986043960072 782.0392764327731,768.909840113469 727.2835784699595,823.6655380762827 C 672.5278805071458,768.909840113469 686.2168049978493,720.9986043960072 727.2835784699595,686.7762931692487 Z" fill="url(#leaf15)" opacity="0.22" transform="rotate(155.3 727.3 755.2)"/>
    <path d="M 1824.530477050037,126.59203350460433 C 1854.1704310022258,151.29199513142834 1864.0504156529555,185.8719414089819 1824.530477050037,225.3918800119003 C 1785.0105384471185,185.8719414089819 1794.8905230978482,151.29199513142834 1824.530477050037,126.59203350460433 Z" fill="url(#leaf16)" opacity="0.20" transform="rotate(237.5 1824.5 176.0)"/>
    <path d="M 90.9231525436648,418.4758457614276 C 134.54018343540147,454.82337150454146 149.079193732647,505.70990754490094 90.9231525436648,563.8659487338832 C 32.76711135468257,505.70990754490094 47.30612165192813,454.82337150454146 90.9231525436648,418.4758457614276 Z" fill="url(#leaf17)" opacity="0.15" transform="rotate(289.6 90.9 491.2)"/>
    <path d="M 1019.6242193518266,656.9065371973985 C 1046.4561584941177,679.2664864826412 1055.4001382082147,710.5704154819808 1019.6242193518266,746.346334338369 C 983.8483004954384,710.5704154819808 992.7922802095354,679.2664864826412 1019.6242193518266,656.9065371973985 Z" fill="url(#leaf18)" opacity="0.16" transform="rotate(169.6 1019.6 701.6)"/>
    <path d="M 378.89025950903755,88.72638247461614 C 399.3808545468731,105.80187833947906 406.2110528928182,129.70757255028715 378.89025950903755,157.02836593406784 C 351.5694661252569,129.70757255028715 358.399664471202,105.80187833947906 378.89025950903755,88.72638247461614 Z" fill="url(#leaf19)" opacity="0.23" transform="rotate(114.0 378.9 122.9)"/>
    <path d="M 259.4239841830547,824.2080029358203 C 278.8307893890471,840.3803406074807 285.2997244577112,863.0216133478051 259.4239841830547,888.8973536224617 C 233.5482439083982,863.0216133478051 240.01717897706231,840.3803406074807 259.4239841830547,824.2080029358203 Z" fill="url(#leaf20)" opacity="0.20" transform="rotate(333.5 259.4 856.6)"/>
    <path d="M 1586.4878847589719,485.6673941021758 C 1616.7380926255973,510.87590065769695 1626.8214952478056,546.1678098354266 1586.4878847589719,586.5014203242605 C 1546.154274270138,546.1678098354266 1556.2376768923464,510.87590065769695 1586.4878847589719,485.6673941021758 Z" fill="url(#leaf21)" opacity="0.18" transform="rotate(300.7 1586.5 536.1)"/>
    <path d="M 1450.9998778629474,407.5410351090982 C 1471.4132732992866,424.5521979727142 1478.2177384447332,448.3678259817768 1450.9998778629474,475.5856865635625 C 1423.7820172811616,448.3678259817768 1430.5864824266082,424.5521979727142 1450.9998778629474,407.5410351090982 Z" fill="url(#leaf22)" opacity="0.25" transform="rotate(108.2 1451.0 441.6)"/>
    <path d="M 51.88163417408558,726.6705590199605 C 89.12575038920056,757.7073225325563 101.54045579423888,801.1587914501905 51.88163417408558,850.8176130703438 C 2.222812553932279,801.1587914501905 14.637517958970605,757.7073225325563 51.88163417408558,726.6705590199605 Z" fill="url(#leaf23)" opacity="0.16" transform="rotate(281.4 51.9 788.7)"/>
    <path d="M 336.11305907303966,386.6502367848929 C 356.74591808926823,403.8442859650834 363.6235377613444,427.91595481735004 336.11305907303966,455.42643350565476 C 308.60258038473495,427.91595481735004 315.4802000568111,403.8442859650834 336.11305907303966,386.6502367848929 Z" fill="url(#leaf24)" opacity="0.19" transform="rotate(136.9 336.1 421.0)"/>
    <path d="M 570.8458776397439,477.9257764758389 C 589.5198637260938,493.48743154779726 595.7445257548773,515.2737486485389 570.8458776397439,540.1723967636723 C 545.9472295246105,515.2737486485389 552.171891553394,493.48743154779726 570.8458776397439,477.9257764758389 Z" fill="url(#leaf25)" opacity="0.16" transform="rotate(329.5 570.8 509.0)"/>
    <path d="M 184.49225232752403,367.6714767887712 C 210.65723654692385,389.4756303049377 219.37889795339046,420.0014452275708 184.49225232752403,454.88809085343723 C 149.6056067016576,420.0014452275708 158.3272681081242,389.4756303049377 184.49225232752403,367.6714767887712 Z" fill="url(#leaf26)" opacity="0.15" transform="rotate(113.8 184.5 411.3)"/>
    <path d="M 1731.7486477375512,592.546572459465 C 1775.5880886639477,629.0794398981286 1790.2012356394132,680.2254543122579 1731.7486477375512,738.6780422141197 C 1673.2960598356892,680.2254543122579 1687.9092068111547,629.0794398981286 1731.7486477375512,592.546572459465 Z" fill="url(#leaf27)" opacity="0.23" transform="rotate(185.6 1731.7 665.6)"/>
    <path d="M 788.2160292994815,895.2270855838716 C 819.005209262751,920.8847355532629 829.2682692505075,956.8054455104107 788.2160292994815,997.8576854614367 C 747.1637893484556,956.8054455104107 757.4268493362121,920.8847355532629 788.2160292994815,895.2270855838716 Z" fill="url(#leaf28)" opacity="0.23" transform="rotate(284.3 788.2 946.5)"/>
    <path d="M 1652.1908247921613,653.5440348088317 C 1690.536093237918,685.4984251802957 1703.3178493865037,730.2345717003453 1652.1908247921613,781.3615962946877 C 1601.0638001978189,730.2345717003453 1613.8455563464045,685.4984251802957 1652.1908247921613,653.5440348088317 Z" fill="url(#leaf29)" opacity="0.20" transform="rotate(166.2 1652.2 717.5)"/>
    <path d="M 589.0999518788852,817.8748394398699 C 627.1588408984364,849.590580289496 639.8451372382868,893.9926174789723 589.0999518788852,944.7378028383739 C 538.3547665194836,893.9926174789723 551.041062859334,849.590580289496 589.0999518788852,817.8748394398699 Z" fill="url(#leaf0)" opacity="0.20" transform="rotate(106.3 589.1 881.3)"/>
    <path d="M 551.1481613041447,428.82763417201943 C 570.2204537192151,444.7212111845781 576.5778845242386,466.9722190021603 551.1481613041447,492.4019422222542 C 525.7184380840507,466.9722190021603 532.0758688890742,444.7212111845781 551.1481613041447,428.82763417201943 Z" fill="url(#leaf1)" opacity="0.24" transform="rotate(53.9 551.1 460.6)"/>
    <path d="M 1361.4343688289673,470.92181895747564 C 1386.75942046819,492.026028656828 1395.201104347931,521.5719222359212 1361.4343688289673,555.3386577548848 C 1327.6676333100036,521.5719222359212 1336.1093171897446,492.026028656828 1361.4343688289673,470.92181895747564 Z" fill="url(#leaf2)" opacity="0.24" transform="rotate(26.4 1361.4 513.1)"/>
    <path d="M 679.3123829252534,438.3296300876193 C 719.5137011046046,471.83072857041196 732.9141404977216,518.7322664463217 679.3123829252534,572.3340240187899 C 625.7106253527851,518.7322664463217 639.1110647459021,471.83072857041196 679.3123829252534,438.3296300876193 Z" fill="url(#leaf3)" opacity="0.22" transform="rotate(355.6 679.3 505.3)"/>
    <path d="M 335.0708921330262,757.3678903910884 C 368.8489204569475,785.5162473276895 380.10826323158796,824.923947038931 335.0708921330262,869.9613181374928 C 290.0335210344644,824.923947038931 301.29286380910486,785.5162473276895 335.0708921330262,757.3678903910884 Z" fill="url(#leaf4)" opacity="0.17" transform="rotate(101.2 335.1 813.7)"/>
    <path d="M 1265.4563851994528,8.538184744145035 C 1296.8306247552914,34.68338437401057 1307.2887046072376,71.28666385582233 1265.4563851994528,113.11898326360719 C 1223.624065791668,71.28666385582233 1234.0821456436142,34.68338437401057 1265.4563851994528,8.538184744145035 Z" fill="url(#leaf5)" opacity="0.23" transform="rotate(64.4 1265.5 60.8)"/>
    <path d="M 833.1455891572697,889.0833494765753 C 860.8795451260512,912.1949794505599 870.1241971156451,944.5512614141385 833.1455891572697,981.5298693725139 C 796.1669811988943,944.5512614141385 805.4116331884882,912.1949794505599 833.1455891572697,889.0833494765753 Z" fill="url(#leaf6)" opacity="0.24" transform="rotate(354.1 833.1 935.3)"/>
    <path d="M 1513.5825235101172,261.4527568445799 C 1535.0347181624156,279.3295857214952 1542.1854497131817,304.3571461491767 1513.5825235101172,332.96007235224124 C 1484.9795973070527,304.3571461491767 1492.1303288578188,279.3295857214952 1513.5825235101172,261.4527568445799 Z" fill="url(#leaf7)" opacity="0.21" transform="rotate(127.6 1513.6 297.2)"/>
    <path d="M 560.973705174494,967.4047907553878 C 582.733717145173,985.5381340642871 589.9870544687327,1010.924814696746 560.973705174494,1039.9381639909848 C 531.9603558802552,1010.924814696746 539.2136932038148,985.5381340642871 560.973705174494,967.4047907553878 Z" fill="url(#leaf8)" opacity="0.25" transform="rotate(85.6 561.0 1003.7)"/>
    <path d="M 574.8919501982099,724.0154084519653 C 618.8534609488963,760.650000744204 633.5072978657918,811.9384299533382 574.8919501982099,870.5537776209202 C 516.276602530628,811.9384299533382 530.9304394475234,760.650000744204 574.8919501982099,724.0154084519653 Z" fill="url(#leaf9)" opacity="0.16" transform="rotate(356.9 574.9 797.3)"/>
    <path d="M 142.891643425848,376.8096501267491 C 176.24007242160337,404.60000762321187 187.3562154201885,443.50650811825983 142.891643425848,487.9710801126003 C 98.4270714315075,443.50650811825983 109.54321443009263,404.60000762321187 142.891643425848,376.8096501267491 Z" fill="url(#leaf10)" opacity="0.17" transform="rotate(214.4 142.9 432.4)"/>
    <path d="M 994.34480106159,136.2613919289137 C 1017.5475375478404,155.59700566745573 1025.2817830432573,182.66686490141456 994.34480106159,213.6038468830818 C 963.4078190799228,182.66686490141456 971.1420645753396,155.59700566745573 994.34480106159,136.2613919289137 Z" fill="url(#leaf11)" opacity="0.15" transform="rotate(41.1 994.3 174.9)"/>
    <path d="M 377.4880867274967,474.0611504163182 C 410.4195878163134,501.50406799033215 421.39675484591896,539.9241525939516 377.4880867274967,583.8328207123739 C 333.5794186090744,539.9241525939516 344.55658563867996,501.50406799033215 377.4880867274967,474.0611504163182 Z" fill="url(#leaf12)" opacity="0.19" transform="rotate(125.6 377.5 528.9)"/>
    <path d="M 1477.0037469830675,694.9412465342548 C 1521.661204734776,732.1557946606786 1536.5470239853455,784.2561620376719 1477.0037469830675,843.7994390399499 C 1417.4604699807894,784.2561620376719 1432.346289231359,732.1557946606786 1477.0037469830675,694.9412465342548 Z" fill="url(#leaf13)" opacity="0.24" transform="rotate(269.2 1477.0 769.4)"/>
    <path d="M 205.4949071354046,327.07293099343093 C 248.58076923888382,362.9778160796636 262.9427232733769,413.2446552003894 205.4949071354046,470.6924713383617 C 148.04709099743226,413.2446552003894 162.40904503192536,362.9778160796636 205.4949071354046,327.07293099343093 Z" fill="url(#leaf14)" opacity="0.20" transform="rotate(103.9 205.5 398.9)"/>
    <path d="M 157.18619151398946,152.67146490541916 C 198.7006413406224,187.2668397609466 212.5387912828334,235.70036455868504 157.18619151398946,291.05296432752897 C 101.83359174514553,235.70036455868504 115.6717416873565,187.2668397609466 157.18619151398946,152.67146490541916 Z" fill="url(#leaf15)" opacity="0.24" transform="rotate(149.7 157.2 221.9)"/>
    <path d="M 572.5152151574772,162.05043084956003 C 597.3107289793888,182.71335903448642 605.5759002533595,211.6414584933834 572.5152151574772,244.70214358926563 C 539.4545300615949,211.6414584933834 547.7197013355656,182.71335903448642 572.5152151574772,162.05043084956003 Z" fill="url(#leaf16)" opacity="0.16" transform="rotate(55.9 572.5 203.4)"/>
    <path d="M 420.9999424104437,247.4845035480714 C 456.2408636614469,276.8519379239074 467.98783741178136,317.96634605007785 420.9999424104437,364.95424105141547 C 374.012047409106,317.96634605007785 385.75902115944046,276.8519379239074 420.9999424104437,247.4845035480714 Z" fill="url(#leaf17)" opacity="0.18" transform="rotate(55.2 421.0 306.2)"/>
    <path d="M 1226.3050665610763,693.7367768302624 C 1248.5946783529748,712.3114533235113 1256.0245489502743,738.3160004140595 1226.3050665610763,768.0354828032575 C 1196.5855841718783,738.3160004140595 1204.0154547691777,712.3114533235113 1226.3050665610763,693.7367768302624 Z" fill="url(#leaf18)" opacity="0.21" transform="rotate(309.1 1226.3 730.9)"/>
    <path d="M 1095.995219516448,715.4749515139346 C 1119.627486456506,735.1685072973161 1127.5049087698585,762.7394853940501 1095.995219516448,794.2491746474606 C 1064.4855302630376,762.7394853940501 1072.3629525763902,735.1685072973161 1095.995219516448,715.4749515139346 Z" fill="url(#leaf19)" opacity="0.21" transform="rotate(327.3 1096.0 754.9)"/>
    <path d="M 872.289707077401,547.7819613300226 C 896.1590147049864,567.673051019677 904.1154505808482,595.5205765851933 872.289707077401,627.3463200886406 C 840.4639635739537,595.5205765851933 848.4203994498156,567.673051019677 872.289707077401,547.7819613300226 Z" fill="url(#leaf20)" opacity="0.23" transform="rotate(263.1 872.3 587.6)"/>
    <path d="M 1771.683169044807,505.85572783768674 C 1794.55157380487,524.9127318044059 1802.1743753915578,551.5925373578126 1771.683169044807,582.0837437045632 C 1741.1919626980564,551.5925373578126 1748.8147642847441,524.9127318044059 1771.683169044807,505.85572783768674 Z" fill="url(#leaf21)" opacity="0.22" transform="rotate(267.6 1771.7 544.0)"/>
    <path d="M 1741.6414505957173,89.5762301634046 C 1769.1394556690304,112.49123439116563 1778.3054573601348,144.57224031003108 1741.6414505957173,181.23624707444873 C 1704.9774438312998,144.57224031003108 1714.1434455224041,112.49123439116563 1741.6414505957173,89.5762301634046 Z" fill="url(#leaf22)" opacity="0.24" transform="rotate(58.0 1741.6 135.4)"/>
    <path d="M 328.75426273370226,23.137466998092894 C 347.3425766946032,38.627728632177046 353.53868134823693,60.31409491989486 328.75426273370226,85.09851353442951 C 303.9698441191676,60.31409491989486 310.1659487728013,38.627728632177046 328.75426273370226,23.137466998092894 Z" fill="url(#leaf23)" opacity="0.19" transform="rotate(130.0 328.8 54.1)"/>
    <path d="M 344.10896717854973,397.45633191056334 C 366.55817335877975,416.16400372742163 374.04124208552304,442.3547442710233 344.10896717854973,472.2870191779966 C 314.1766922715764,442.3547442710233 321.6597609983197,416.16400372742163 344.10896717854973,397.45633191056334 Z" fill="url(#leaf24)" opacity="0.22" transform="rotate(228.6 344.1 434.9)"/>
    <path d="M 798.4247033335314,216.06556445372055 C 818.6962900404395,232.958553376144 825.453485609409,256.60873786753683 798.4247033335314,283.63752014341435 C 771.3959210576538,256.60873786753683 778.1531166266233,232.958553376144 798.4247033335314,216.06556445372055 Z" fill="url(#leaf25)" opacity="0.24" transform="rotate(195.1 798.4 249.9)"/>
    <path d="M 1015.3964986814055,286.4262603070818 C 1042.2512488894904,308.80521881381924 1051.2028322921853,340.1357607232516 1015.3964986814055,375.94209433403154 C 979.5901650706256,340.1357607232516 988.5417484733206,308.80521881381924 1015.3964986814055,286.4262603070818 Z" fill="url(#leaf26)" opacity="0.22" transform="rotate(5.4 1015.4 331.2)"/>
    <path d="M 952.5037524540534,395.3180502404317 C 991.9165701567221,428.16206499265564 1005.0541760576117,474.14368564576915 952.5037524540534,526.6941092493274 C 899.953328850495,474.14368564576915 913.0909347513847,428.16206499265564 952.5037524540534,395.3180502404317 Z" fill="url(#leaf27)" opacity="0.23" transform="rotate(317.4 952.5 461.0)"/>
    <path d="M 1030.8633338253994,64.73721644546464 C 1069.672802379352,97.07844024042527 1082.6092918973363,142.35615355337015 1030.8633338253994,194.10211162530715 C 979.1173757534624,142.35615355337015 992.0538652714466,97.07844024042527 1030.8633338253994,64.73721644546464 Z" fill="url(#leaf28)" opacity="0.16" transform="rotate(33.8 1030.9 129.4)"/>
    <path d="M 1698.1215403895833,260.89866225165497 C 1722.0000373490032,280.79740971783815 1729.9595363354763,308.6556561704945 1698.1215403895833,340.4936521163876 C 1666.2835444436903,308.6556561704945 1674.2430434301634,280.79740971783815 1698.1215403895833,260.89866225165497 Z" fill="url(#leaf29)" opacity="0.21" transform="rotate(284.4 1698.1 300.7)"/>
    <path d="M 229.01971824445224,46.63939387206382 C 256.78985936599236,69.7811781400139 266.04657307317234,102.179676115144 229.01971824445224,139.20653094386415 C 191.9928634157321,102.179676115144 201.24957712291214,69.7811781400139 229.01971824445224,46.63939387206382 Z" fill="url(#leaf0)" opacity="0.24" transform="rotate(186.8 229.0 92.9)"/>
    <path d="M 1510.0564623892249,542.2206633340446 C 1541.799243469804,568.6729809011939 1552.3801704966638,605.706225495203 1510.0564623892249,648.0299336026418 C 1467.732754281786,605.706225495203 1478.3136813086458,568.6729809011939 1510.0564623892249,542.2206633340446 Z" fill="url(#leaf1)" opacity="0.22" transform="rotate(329.5 1510.1 595.1)"/>
    <path d="M 1641.895624083195,591.6004850474021 C 1674.6753072105878,618.916887653563 1685.6018682530523,657.1598513021881 1641.895624083195,700.8660954720456 C 1598.1893799133375,657.1598513021881 1609.115940955802,618.916887653563 1641.895624083195,591.6004850474021 Z" fill="url(#leaf2)" opacity="0.19" transform="rotate(299.6 1641.9 646.2)"/>
    <path d="M 962.6217792057138,258.8172086645567 C 1003.0566726779109,292.51295322472095 1016.5349705019765,339.6869956089509 962.6217792057138,393.6001869052137 C 908.708587909451,339.6869956089509 922.1868857335166,292.51295322472095 962.6217792057138,258.8172086645567 Z" fill="url(#leaf3)" opacity="0.17" transform="rotate(70.9 962.6 326.2)"/>
    <path d="M 1793.6635922033004,103.15164726061785 C 1838.4037844399436,140.43514079115394 1853.3171818521582,192.63203173390448 1793.6635922033004,252.28562138276226 C 1734.0100025544425,192.63203173390448 1748.9233999666571,140.43514079115394 1793.6635922033004,103.15164726061785 Z" fill="url(#leaf4)" opacity="0.17" transform="rotate(47.2 1793.7 177.7)"/>
    <path d="M 516.0717061707974,979.5102057269921 C 542.4028570818807,1001.4528314862282 551.1799073855752,1032.1725075491588 516.0717061707974,1067.2807087639367 C 480.9635049560195,1032.1725075491588 489.740555259714,1001.4528314862282 516.0717061707974,979.5102057269921 Z" fill="url(#leaf5)" opacity="0.25" transform="rotate(97.4 516.1 1023.4)"/>
    <path d="M 1726.8062950171093,835.1624834076231 C 1753.8703811429507,857.715888512491 1762.891743184898,889.2906556593061 1726.8062950171093,925.3761038270948 C 1690.7208468493207,889.2906556593061 1699.7422088912679,857.715888512491 1726.8062950171093,835.1624834076231 Z" fill="url(#leaf6)" opacity="0.20" transform="rotate(75.3 1726.8 880.3)"/>
    <path d="M 1103.826537300346,593.7245456584017 C 1139.654507183163,623.5811872274161 1151.597163810769,665.3804854240361 1103.826537300346,713.1511119344591 C 1056.055910789923,665.3804854240361 1067.9985674175289,623.5811872274161 1103.826537300346,593.7245456584017 Z" fill="url(#leaf7)" opacity="0.19" transform="rotate(113.5 1103.8 653.4)"/>
    <path d="M 1637.332297237788,482.13029587237907 C 1675.8322238515282,514.213568050496 1688.665532722775,559.1301490998594 1637.332297237788,610.4633845848464 C 1585.999061752801,559.1301490998594 1598.8323706240478,514.213568050496 1637.332297237788,482.13029587237907 Z" fill="url(#leaf8)" opacity="0.22" transform="rotate(105.4 1637.3 546.3)"/>
    <path d="M 623.7316534243694,677.2821027711353 C 645.1648515373389,695.14310119861 652.3092509083289,720.1484989970745 623.7316534243694,748.726096481034 C 595.1540559404099,720.1484989970745 602.2984553113998,695.14310119861 623.7316534243694,677.2821027711353 Z" fill="url(#leaf9)" opacity="0.20" transform="rotate(189.1 623.7 713.0)"/>
    <path d="M 782.4461405661052,253.88318138736187 C 817.2185820236914,282.86021593535037 828.8093958428868,323.4280643025343 782.4461405661052,369.79131957931594 C 736.0828852893236,323.4280643025343 747.673699108519,282.86021593535037 782.4461405661052,253.88318138736187 Z" fill="url(#leaf10)" opacity="0.17" transform="rotate(155.4 782.4 311.8)"/>
    <path d="M 874.1235555141421,112.02020036415216 C 900.3346202290184,133.86275429321566 909.0716418006438,164.44232979390458 874.1235555141421,199.39041608040617 C 839.1754692276405,164.44232979390458 847.9124907992659,133.86275429321566 874.1235555141421,112.02020036415216 Z" fill="url(#leaf11)" opacity="0.23" transform="rotate(282.3 874.1 155.7)"/>
    <path d="M 1231.742490590624,786.6989921249989 C 1251.7157821580497,803.3434017645205 1258.3735460138585,826.6455752598507 1231.742490590624,853.2766306830853 C 1205.1114351673893,826.6455752598507 1211.769199023198,803.3434017645205 1231.742490590624,786.6989921249989 Z" fill="url(#leaf12)" opacity="0.21" transform="rotate(111.4 1231.7 820.0)"/>
    <path d="M 359.67701871604146,540.6064317514603 C 378.13774130406074,555.9903672414764 384.2913155000672,577.5278769274988 359.67701871604146,602.1421737115246 C 335.06272193201573,577.5278769274988 341.2162961280222,555.9903672414764 359.67701871604146,540.6064317514603 Z" fill="url(#leaf13)" opacity="0.18" transform="rotate(106.2 359.7 571.4)"/>
    <path d="M 302.37109083972047,174.0538643204842 C 338.3280111799362,204.01796460399729 350.3136512933414,245.9677050009156 302.37109083972047,293.91026545453656 C 254.4285303860995,245.9677050009156 266.41417049950473,204.01796460399729 302.37109083972047,174.0538643204842 Z" fill="url(#leaf14)" opacity="0.23" transform="rotate(297.1 302.4 234.0)"/>
    <path d="M 876.6795019451957,400.44683283235923 C 896.761152347577,417.1815415010103 903.4550358150374,440.61013363712175 876.6795019451957,467.38566750696344 C 849.9039680753541,440.61013363712175 856.5978515428145,417.1815415010103 876.6795019451957,400.44683283235923 Z" fill="url(#leaf15)" opacity="0.20" transform="rotate(261.6 876.7 433.9)"/>
    <path d="M 1553.6079482000102,770.4424878896751 C 1585.5918467669894,797.0957366954912 1596.2531462893157,834.4102850236335 1553.6079482000102,877.055483112939 C 1510.9627501107047,834.4102850236335 1521.624049633031,797.0957366954912 1553.6079482000102,770.4424878896751 Z" fill="url(#leaf16)" opacity="0.15" transform="rotate(30.6 1553.6 823.7)"/>
    <path d="M 1701.481072569367,80.76298104006844 C 1728.5554422280402,103.32495575562953 1737.5802321142646,134.91172035741505 1701.481072569367,171.0108799023128 C 1665.3819130244692,134.91172035741505 1674.4067029106936,103.32495575562953 1701.481072569367,80.76298104006844 Z" fill="url(#leaf17)" opacity="0.15" transform="rotate(2.7 1701.5 125.9)"/>
    <path d="M 1316.4911491157964,147.39234399341254 C 1361.6277311019821,185.00616231523395 1376.6732584307106,237.6655079657839 1316.4911491157964,297.84761728069816 C 1256.3090398008821,237.6655079657839 1271.3545671296106,185.00616231523395 1316.4911491157964,147.39234399341254 Z" fill="url(#leaf18)" opacity="0.16" transform="rotate(172.6 1316.5 222.6)"/>
    <path d="M 1759.6610108366249,877.3776741785794 C 1786.2151653245412,899.5061362518429 1795.0665501538465,930.4859831544119 1759.6610108366249,965.8915224716336 C 1724.2554715194033,930.4859831544119 1733.1068563487086,899.5061362518429 1759.6610108366249,877.3776741785794 Z" fill="url(#leaf19)" opacity="0.17" transform="rotate(112.7 1759.7 921.6)"/>
    <path d="M 1825.4837489388922,459.12973477744345 C 1852.0037471895632,481.2297333196694 1860.8437466064536,512.1697312787857 1825.4837489388922,547.5297289463472 C 1790.1237512713308,512.1697312787857 1798.9637506882211,481.2297333196694 1825.4837489388922,459.12973477744345 Z" fill="url(#leaf20)" opacity="0.17" transform="rotate(114.2 1825.5 503.3)"/>
    <path d="M 999.4084705921488,124.31073443692736 C 1027.157120370385,147.4346092521242 1036.4066702964637,179.8080339933998 999.4084705921488,216.80623369771473 C 962.4102708878338,179.8080339933998 971.6598208139126,147.4346092521242 999.4084705921488,124.31073443692736 Z" fill="url(#leaf21)" opacity="0.21" transform="rotate(226.6 999.4 170.6)"/>
    <path d="M 149.04376552086376,66.2221229983077 C 181.74651394149208,93.47441334883132 192.64743008170154,131.62761983956437 149.04376552086376,175.23128440040216 C 105.44010096002597,131.62761983956437 116.34101710023543,93.47441334883132 149.04376552086376,66.2221229983077 Z" fill="url(#leaf22)" opacity="0.25" transform="rotate(54.2 149.0 120.7)"/>
    <path d="M 795.1657573761174,801.326667564138 C 828.6078405031183,829.195070169972 839.7552015454519,868.2108338181397 795.1657573761174,912.8002779874741 C 750.576313206783,868.2108338181397 761.7236742491166,829.195070169972 795.1657573761174,801.326667564138 Z" fill="url(#leaf23)" opacity="0.20" transform="rotate(293.3 795.2 857.1)"/>
    <path d="M 354.1186627147432,426.175647863674 C 387.66739919346287,454.132928262607 398.8503113530361,493.27312082111325 354.1186627147432,538.0047694594061 C 309.3870140764503,493.27312082111325 320.56992623602355,454.132928262607 354.1186627147432,426.175647863674 Z" fill="url(#leaf24)" opacity="0.16" transform="rotate(216.7 354.1 482.1)"/>
    <path d="M 1868.2018535034192,63.26165202041499 C 1894.0650518030714,84.81431727012506 1902.6861179029554,114.98804861971914 1868.2018535034192,149.47231301925524 C 1833.717589103883,114.98804861971914 1842.338655203767,84.81431727012506 1868.2018535034192,63.26165202041499 Z" fill="url(#leaf25)" opacity="0.18" transform="rotate(35.8 1868.2 106.4)"/>
    <path d="M 776.0108458148029,791.7380644297517 C 818.5262455901259,827.1675642425208 832.6980455152335,876.7688639803976 776.0108458148029,933.4560636808282 C 719.3236461143723,876.7688639803976 733.4954460394799,827.1675642425208 776.0108458148029,791.7380644297517 Z" fill="url(#leaf26)" opacity="0.20" transform="rotate(321.4 776.0 862.6)"/>
    <path d="M 1452.6348165664651,371.72748234618484 C 1476.5339281922882,391.6434087010374 1484.5002987342293,419.52570559783106 1452.6348165664651,451.3911877655952 C 1420.769334398701,419.52570559783106 1428.735704940642,391.6434087010374 1452.6348165664651,371.72748234618484 Z" fill="url(#leaf27)" opacity="0.18" transform="rotate(67.8 1452.6 411.6)"/>
    <path d="M 1833.4643312648966,497.85840637772776 C 1875.2219162670644,532.6563938795342 1889.141111267787,581.3735763820632 1833.4643312648966,637.0503563849536 C 1777.7875512620062,581.3735763820632 1791.7067462627288,532.6563938795342 1833.4643312648966,497.85840637772776 Z" fill="url(#leaf28)" opacity="0.20" transform="rotate(317.0 1833.5 567.5)"/>
    <path d="M 868.1950623753838,778.8491811120294 C 892.5529619436682,799.1474307522664 900.672261799763,827.5649802485982 868.1950623753838,860.0421796729773 C 835.7178629510047,827.5649802485982 843.8371628070995,799.1474307522664 868.1950623753838,778.8491811120294 Z" fill="url(#leaf29)" opacity="0.19" transform="rotate(85.4 868.2 819.4)"/>
    <path d="M 800.0924973948626,815.3328757004324 C 819.9989424748107,831.9215799337226 826.6344241681269,855.1457658603288 800.0924973948626,881.6876926335931 C 773.5505706215982,855.1457658603288 780.1860523149144,831.9215799337226 800.0924973948626,815.3328757004324 Z" fill="url(#leaf0)" opacity="0.21" transform="rotate(197.9 800.1 848.5)"/>
    <path d="M 481.1215461554218,489.77321025932935 C 524.1225445838786,525.6073756163767 538.4562107266976,575.775207116243 481.1215461554218,633.1098716875188 C 423.78688158414604,575.775207116243 438.120547726965,525.6073756163767 481.1215461554218,489.77321025932935 Z" fill="url(#leaf1)" opacity="0.19" transform="rotate(144.3 481.1 561.4)"/>
    <path d="M 666.2542977960375,789.804413918283 C 708.3443612682432,824.8794668117879 722.3743824256452,873.9845408626946 666.2542977960375,930.1046254923024 C 610.1342131664297,873.9845408626946 624.1642343238317,824.8794668117879 666.2542977960375,789.804413918283 Z" fill="url(#leaf2)" opacity="0.16" transform="rotate(141.2 666.3 860.0)"/>
    <path d="M 1142.5936543190821,397.8059837094853 C 1174.7453237370241,424.59904155777036 1185.4625468763384,462.10932254536954 1142.5936543190821,504.97821510262565 C 1099.724761761826,462.10932254536954 1110.4419849011401,424.59904155777036 1142.5936543190821,397.8059837094853 Z" fill="url(#leaf3)" opacity="0.19" transform="rotate(245.9 1142.6 451.4)"/>
    <path d="M 1634.2915648031685,798.7124506767593 C 1677.3869308911542,834.6252557500807 1691.7520529204826,884.9031828527305 1634.2915648031685,942.3636709700447 C 1576.8310766858544,884.9031828527305 1591.1961987151828,834.6252557500807 1634.2915648031685,798.7124506767593 Z" fill="url(#leaf4)" opacity="0.25" transform="rotate(84.2 1634.3 870.5)"/>
    <path d="M 632.939394841852,536.4920478917496 C 680.8327498744809,576.4031770856069 696.7972015520238,632.2787579570072 632.939394841852,696.136564667179 C 569.0815881316803,632.2787579570072 585.0460398092232,576.4031770856069 632.939394841852,536.4920478917496 Z" fill="url(#leaf5)" opacity="0.21" transform="rotate(125.6 632.9 616.3)"/>
    <path d="M 175.85039713759414,83.47616248056426 C 196.80711978430637,100.9400980194911 203.7926939998771,125.38960777398869 175.85039713759414,153.33190463627164 C 147.9081002753112,125.38960777398869 154.89367449088192,100.9400980194911 175.85039713759414,83.47616248056426 Z" fill="url(#leaf6)" opacity="0.20" transform="rotate(19.4 175.9 118.4)"/>
    <path d="M 1473.0544266242482,671.3650497152905 C 1503.2281152385722,696.5097902272272 1513.2860114433468,731.7124269439386 1473.0544266242482,771.9440117630372 C 1432.8228418051497,731.7124269439386 1442.8807380099242,696.5097902272272 1473.0544266242482,671.3650497152905 Z" fill="url(#leaf7)" opacity="0.21" transform="rotate(258.2 1473.1 721.7)"/>
    <path d="M 567.2920346037182,456.68999647288257 C 596.8097132872238,481.28806204247053 606.648939515059,515.7253538398937 567.2920346037182,555.0822587512346 C 527.9351296923774,515.7253538398937 537.7743559202127,481.28806204247053 567.2920346037182,456.68999647288257 Z" fill="url(#leaf8)" opacity="0.17" transform="rotate(119.9 567.3 505.9)"/>
    <path d="M 1848.1410240609264,82.9746231239933 C 1878.0239503330204,107.87706168407162 1887.9849257570518,142.74047566818126 1848.1410240609264,182.5843773643066 C 1808.297122364801,142.74047566818126 1818.2580977888324,107.87706168407162 1848.1410240609264,82.9746231239933 Z" fill="url(#leaf9)" opacity="0.19" transform="rotate(174.4 1848.1 132.8)"/>
    <path d="M 691.0702178762486,970.9453541424834 C 723.8212208439897,998.237856615601 734.7382218332368,1036.4473600779656 691.0702178762486,1080.1153640349537 C 647.4022139192605,1036.4473600779656 658.3192149085075,998.237856615601 691.0702178762486,970.9453541424834 Z" fill="url(#leaf10)" opacity="0.18" transform="rotate(335.9 691.1 1025.5)"/>
    <path d="M 1180.9358367038285,953.2043244335134 C 1224.7793168534072,989.7405578914957 1239.3938102366,1040.8912847326708 1180.9358367038285,1099.3492582654424 C 1122.477863171057,1040.8912847326708 1137.0923565542498,989.7405578914957 1180.9358367038285,953.2043244335134 Z" fill="url(#leaf11)" opacity="0.15" transform="rotate(108.7 1180.9 1026.3)"/>
    <path d="M 1349.2464348242177,718.8117019145102 C 1390.5742962603,753.2515864445787 1404.350250072327,801.4674247866745 1349.2464348242177,856.5712400347841 C 1294.1426195761082,801.4674247866745 1307.9185733881354,753.2515864445787 1349.2464348242177,718.8117019145102 Z" fill="url(#leaf12)" opacity="0.24" transform="rotate(120.0 1349.2 787.7)"/>
    <path d="M 283.6766049772343,949.1729452148495 C 318.7552826050999,978.4051765714042 330.44817514772177,1019.3303004705807 283.6766049772343,1066.1018706410682 C 236.90503480674687,1019.3303004705807 248.59792734936872,978.4051765714042 283.6766049772343,949.1729452148495 Z" fill="url(#leaf13)" opacity="0.21" transform="rotate(54.5 283.7 1007.6)"/>
    <path d="M 377.1491111734925,270.0762622176467 C 399.57938553369263,288.7681575178135 407.05614365375936,314.936810938047 377.1491111734925,344.8438434183139 C 347.2420786932256,314.936810938047 354.71883681329234,288.7681575178135 377.1491111734925,270.0762622176467 Z" fill="url(#leaf14)" opacity="0.22" transform="rotate(339.5 377.1 307.5)"/>
    <path d="M 334.8574826080628,684.8769140910501 C 354.47275435627006,701.2229738812227 361.0111782723391,724.1074575874645 334.8574826080628,750.2611532517408 C 308.7037869437865,724.1074575874645 315.24221085985556,701.2229738812227 334.8574826080628,684.8769140910501 Z" fill="url(#leaf15)" opacity="0.22" transform="rotate(84.9 334.9 717.6)"/>
    <path d="M 881.3998865534082,335.2328394238911 C 905.870343204682,355.6248866332858 914.0271620884398,384.1737527264384 881.3998865534082,416.80102826147 C 848.7726110183767,384.1737527264384 856.9294299021345,355.6248866332858 881.3998865534082,335.2328394238911 Z" fill="url(#leaf16)" opacity="0.17" transform="rotate(44.1 881.4 376.0)"/>
    <path d="M 497.62152240237816,281.9347436911537 C 523.7486836049852,303.7073780266596 532.4577373391876,334.18906609636787 497.62152240237816,369.0252810331773 C 462.78530746556874,334.18906609636787 471.4943611997711,303.7073780266596 497.62152240237816,281.9347436911537 Z" fill="url(#leaf17)" opacity="0.16" transform="rotate(52.4 497.6 325.5)"/>
    <path d="M 1715.3676813025518,782.1282606387556 C 1749.9365803894766,810.9356765445264 1761.459546751785,851.2660588126053 1715.3676813025518,897.3579242618384 C 1669.2758158533186,851.2660588126053 1680.798782215627,810.9356765445264 1715.3676813025518,782.1282606387556 Z" fill="url(#leaf18)" opacity="0.16" transform="rotate(155.4 1715.4 839.7)"/>
    <path d="M 441.3635222051911,45.217680581799954 C 473.9960953031434,72.41149149676023 484.87361966912755,110.48282677770463 441.3635222051911,153.99292424164108 C 397.8534247412546,110.48282677770463 408.73094910723876,72.41149149676023 441.3635222051911,45.217680581799954 Z" fill="url(#leaf19)" opacity="0.19" transform="rotate(293.0 441.4 99.6)"/>
    <path d="M 160.55445611931725,-17.067165832132538 C 202.97680992578992,18.284795673261364 217.1175945279475,67.77754178081283 160.55445611931725,124.34068018944308 C 103.99131771068701,67.77754178081283 118.13210231284458,18.284795673261364 160.55445611931725,-17.067165832132538 Z" fill="url(#leaf20)" opacity="0.21" transform="rotate(216.8 160.6 53.6)"/>
    <path d="M 895.0809046031496,420.0794967748251 C 930.1945889427346,449.34090039114596 941.899150389263,490.3068654539952 895.0809046031496,537.1251112401086 C 848.2626588170363,490.3068654539952 859.9672202635646,449.34090039114596 895.0809046031496,420.0794967748251 Z" fill="url(#leaf21)" opacity="0.22" transform="rotate(352.2 895.1 478.6)"/>
    <path d="M 884.1521752137004,385.442634197903 C 910.7599666175265,407.61579370109143 919.6292304188019,438.65821700555523 884.1521752137004,474.1352722106567 C 848.6751200085989,438.65821700555523 857.5443838098743,407.61579370109143 884.1521752137004,385.442634197903 Z" fill="url(#leaf22)" opacity="0.19" transform="rotate(234.8 884.2 429.8)"/>
    <path d="M 516.1285109968323,413.0638513443548 C 541.0102901200306,433.7986672803534 549.3042164944301,462.82740959075136 516.1285109968323,496.0031150883491 C 482.95280549923467,462.82740959075136 491.2467318736341,433.7986672803534 516.1285109968323,413.0638513443548 Z" fill="url(#leaf23)" opacity="0.19" transform="rotate(41.8 516.1 454.5)"/>
    <path d="M 543.5833052286386,933.9573004153658 C 572.0805852361016,957.7050337549183 581.5796785719225,990.9518604302918 543.5833052286386,1028.9482337735758 C 505.58693188535455,990.9518604302918 515.0860252211755,957.7050337549183 543.5833052286386,933.9573004153658 Z" fill="url(#leaf24)" opacity="0.20" transform="rotate(107.4 543.6 981.5)"/>
    <path d="M 1224.808621311088,263.5896186050756 C 1272.8018790729732,303.58400007331323 1288.7996316602682,359.5761341288459 1224.808621311088,423.56714447802614 C 1160.8176109619078,359.5761341288459 1176.8153635492029,303.58400007331323 1224.808621311088,263.5896186050756 Z" fill="url(#leaf25)" opacity="0.15" transform="rotate(161.1 1224.8 343.6)"/>
    <path d="M 106.57766532880106,735.3599397490294 C 154.47967440126774,775.2782806427517 170.44701075875665,831.1639578939628 106.57766532880106,895.0333033239184 C 42.70831989884547,831.1639578939628 58.67565625633437,775.2782806427517 106.57766532880106,735.3599397490294 Z" fill="url(#leaf26)" opacity="0.25" transform="rotate(294.0 106.6 815.2)"/>
    <path d="M 356.7509579519806,10.88648676066645 C 394.16819050955985,42.067513891982514 406.6406013620863,85.72095187582501 356.7509579519806,135.6105952859307 C 306.8613145418749,85.72095187582501 319.3337253944013,42.067513891982514 356.7509579519806,10.88648676066645 Z" fill="url(#leaf27)" opacity="0.22" transform="rotate(166.8 356.8 73.2)"/>
    <path d="M 312.0389454870581,429.88499993144205 C 336.7088717386591,450.4432718077763 344.93218048919283,479.2248524346442 312.0389454870581,512.118087436779 C 279.1457104849233,479.2248524346442 287.369019235457,450.4432718077763 312.0389454870581,429.88499993144205 Z" fill="url(#leaf28)" opacity="0.19" transform="rotate(198.2 312.0 471.0)"/>
    <path d="M 287.3270393645289,189.43664067140236 C 334.45751739190945,228.7120390275528 350.1676767343696,283.69759672616345 287.3270393645289,346.53823409600415 C 224.48640199468818,283.69759672616345 240.19656133714835,228.7120390275528 287.3270393645289,189.43664067140236 Z" fill="url(#leaf29)" opacity="0.16" transform="rotate(268.4 287.3 268.0)"/>
    <path d="M 833.3760120847111,907.0192198532687 C 864.236622610061,932.7363952910603 874.5234927851776,968.7404409039685 833.3760120847111,1009.8879216044351 C 792.2285313842445,968.7404409039685 802.5154015593612,932.7363952910603 833.3760120847111,907.0192198532687 Z" fill="url(#leaf0)" opacity="0.23" transform="rotate(181.4 833.4 958.5)"/>
    <path d="M 131.1474222221645,896.8792464659377 C 170.88581295873405,929.9945720797457 184.13194320425723,976.3560279390769 131.1474222221645,1029.3405489211696 C 78.16290124007176,976.3560279390769 91.40903148559495,929.9945720797457 131.1474222221645,896.8792464659377 Z" fill="url(#leaf1)" opacity="0.22" transform="rotate(267.7 131.1 963.1)"/>
    <path d="M 657.7785266047374,121.48963871130965 C 686.5783990178606,145.48953238891238 696.1783564889017,179.08938353755616 657.7785266047374,217.4892134217205 C 619.3786967205731,179.08938353755616 628.9786541916142,145.48953238891238 657.7785266047374,121.48963871130965 Z" fill="url(#leaf2)" opacity="0.19" transform="rotate(283.2 657.8 169.5)"/>
    <path d="M 83.7109225787139,786.1766511494969 C 107.08862436741654,805.6580693067492 114.88119163031743,832.9320547269023 83.7109225787139,864.1023237785058 C 52.54065352711038,832.9320547269023 60.33322079001126,805.6580693067492 83.7109225787139,786.1766511494969 Z" fill="url(#leaf3)" opacity="0.22" transform="rotate(14.2 83.7 825.1)"/>
    <path d="M 867.1624639031788,326.85773934119555 C 901.0219167065036,355.0739500106328 912.3084009742785,394.57664494784495 867.1624639031788,439.7225820189446 C 822.0165268320792,394.57664494784495 833.3030110998541,355.0739500106328 867.1624639031788,326.85773934119555 Z" fill="url(#leaf4)" opacity="0.20" transform="rotate(285.4 867.2 383.3)"/>
    <path d="M 412.3553130016597,233.32819775189427 C 435.93673380619487,252.9793817556736 443.7972074077066,280.49103936096463 412.3553130016597,311.93293376701155 C 380.91341859561277,280.49103936096463 388.7738921971245,252.9793817556736 412.3553130016597,233.32819775189427 Z" fill="url(#leaf5)" opacity="0.15" transform="rotate(149.0 412.4 272.6)"/>
    <path d="M 1585.3561922650917,160.91319832791942 C 1619.6517178981012,189.4928030220939 1631.083559775771,229.5042495939382 1585.3561922650917,275.2316171046174 C 1539.6288247544126,229.5042495939382 1551.0606666320823,189.4928030220939 1585.3561922650917,160.91319832791942 Z" fill="url(#leaf6)" opacity="0.18" transform="rotate(332.8 1585.4 218.1)"/>
    <path d="M 499.72300070946045,924.039809369527 C 518.8997216395513,940.0204101446028 525.2919619495816,962.3932512297088 499.72300070946045,987.96221246983 C 474.1540394693393,962.3932512297088 480.54627977936957,940.0204101446028 499.72300070946045,924.039809369527 Z" fill="url(#leaf7)" opacity="0.23" transform="rotate(237.3 499.7 956.0)"/>
    <path d="M 528.9958013402309,381.28193947803095 C 548.9334118569869,397.896614908661 555.5792820292389,421.157160511543 528.9958013402309,447.74064120055107 C 502.4123206512228,421.157160511543 509.05819082347483,397.896614908661 528.9958013402309,381.28193947803095 Z" fill="url(#leaf8)" opacity="0.18" transform="rotate(195.7 529.0 414.5)"/>
    <path d="M 631.9052077934099,677.6271132781773 C 677.7702716482894,715.8479998239102 693.0586262665826,769.3572409879363 631.9052077934099,830.510659461109 C 570.7517893202372,769.3572409879363 586.0401439385304,715.8479998239102 631.9052077934099,677.6271132781773 Z" fill="url(#leaf9)" opacity="0.24" transform="rotate(11.6 631.9 754.1)"/>
    <path d="M 338.37663003386257,328.47925966687103 C 369.742874121144,354.6177964062722 380.1982888169045,391.21174784143386 338.37663003386257,433.0334066244758 C 296.55497125082064,391.21174784143386 307.01038594658115,354.6177964062722 338.37663003386257,328.47925966687103 Z" fill="url(#leaf10)" opacity="0.19" transform="rotate(254.4 338.4 380.8)"/>
    <path d="M 1080.8071006045982,435.9992316800933 C 1121.829497026297,470.1845620315091 1135.5036291668634,518.0440245234911 1080.8071006045982,572.7405530857563 C 1026.110572042333,518.0440245234911 1039.7847041828993,470.1845620315091 1080.8071006045982,435.9992316800933 Z" fill="url(#leaf11)" opacity="0.18" transform="rotate(356.3 1080.8 504.4)"/>
    <path d="M 1498.2065698335903,389.65179150834376 C 1533.1710128305297,418.7888273391266 1544.8258271628429,459.5806775022226 1498.2065698335903,506.19993483147516 C 1451.5873125043377,459.5806775022226 1463.2421268366509,418.7888273391266 1498.2065698335903,389.65179150834376 Z" fill="url(#leaf12)" opacity="0.18" transform="rotate(26.0 1498.2 447.9)"/>
    <path d="M 208.20476780026237,189.41784001981603 C 233.260286690221,210.29743909478154 241.6121263202072,239.52887779973327 208.20476780026237,272.9362363196781 C 174.79740928031754,239.52887779973327 183.14924891030375,210.29743909478154 208.20476780026237,189.41784001981603 Z" fill="url(#leaf13)" opacity="0.23" transform="rotate(319.1 208.2 231.2)"/>
    <path d="M 742.5484440614829,809.4184842074808 C 785.5864707541655,845.283506451383 799.9324796517265,895.4945375928461 742.5484440614829,952.8785731830897 C 685.1644084712393,895.4945375928461 699.5104173688003,845.283506451383 742.5484440614829,809.4184842074808 Z" fill="url(#leaf14)" opacity="0.20" transform="rotate(302.0 742.5 881.1)"/>
    <path d="M 759.4213499446674,791.4234460506319 C 794.7573575625336,820.8701190655204 806.536026768489,862.0954612863642 759.4213499446674,909.2101381101858 C 712.3066731208459,862.0954612863642 724.0853423268013,820.8701190655204 759.4213499446674,791.4234460506319 Z" fill="url(#leaf15)" opacity="0.25" transform="rotate(89.1 759.4 850.3)"/>
    <path d="M 1183.6506993779687,33.40307710097818 C 1203.3784598280236,49.84287747602394 1209.954379978042,72.85859800108801 1183.6506993779687,99.16227860116123 C 1157.3470187778955,72.85859800108801 1163.922938927914,49.84287747602394 1183.6506993779687,33.40307710097818 Z" fill="url(#leaf16)" opacity="0.17" transform="rotate(260.2 1183.7 66.3)"/>
    <path d="M 931.2822832727668,495.13704898242645 C 970.8490799108305,528.1093795141462 984.0380121235185,574.2706422585538 931.2822832727668,627.0263711093055 C 878.5265544220151,574.2706422585538 891.7154866347031,528.1093795141462 931.2822832727668,495.13704898242645 Z" fill="url(#leaf17)" opacity="0.19" transform="rotate(208.3 931.3 561.1)"/>
    <path d="M 1686.4058077074178,699.3321670765359 C 1732.0935802559095,737.4053108669457 1747.3228377720734,790.7077121735193 1686.4058077074178,851.6247422381749 C 1625.4887776427622,790.7077121735193 1640.718035158926,737.4053108669457 1686.4058077074178,699.3321670765359 Z" fill="url(#leaf18)" opacity="0.17" transform="rotate(276.4 1686.4 775.5)"/>
    <path d="M 321.69925177621127,323.8814536684647 C 362.4122032491304,357.80891322923065 375.9831870734368,405.307356614303 321.69925177621127,459.5912919115285 C 267.41531647898574,405.307356614303 280.9863003032921,357.80891322923065 321.69925177621127,323.8814536684647 Z" fill="url(#leaf19)" opacity="0.18" transform="rotate(162.2 321.7 391.7)"/>
    <path d="M 1811.875159614856,894.1744903533622 C 1846.075519934357,922.6747906196131 1857.4756400408573,962.5752109923642 1811.875159614856,1008.1756914183654 C 1766.2746791888549,962.5752109923642 1777.6747992953551,922.6747906196131 1811.875159614856,894.1744903533622 Z" fill="url(#leaf20)" opacity="0.20" transform="rotate(190.7 1811.9 951.2)"/>
    <path d="M 901.4121908472846,461.9980690244377 C 922.0707061603587,479.21349845199944 928.9568779313832,503.3150996505858 901.4121908472846,530.8597867346845 C 873.8675037631859,503.3150996505858 880.7536755342105,479.21349845199944 901.4121908472846,461.9980690244377 Z" fill="url(#leaf21)" opacity="0.19" transform="rotate(340.1 901.4 496.4)"/>
    <path d="M 1403.4339818013962,626.1895816836095 C 1450.1987156639348,665.1601932357249 1465.786960284781,719.7190494086865 1403.4339818013962,782.0720278920712 C 1341.0810033180114,719.7190494086865 1356.6692479388576,665.1601932357249 1403.4339818013962,626.1895816836095 Z" fill="url(#leaf22)" opacity="0.18" transform="rotate(273.2 1403.4 704.1)"/>
    <path d="M 1704.074794811599,385.8361542434761 C 1722.1279174652145,400.88042312148895 1728.1456250164197,421.94239955070697 1704.074794811599,446.01322975552756 C 1680.0039646067785,421.94239955070697 1686.0216721579836,400.88042312148895 1704.074794811599,385.8361542434761 Z" fill="url(#leaf23)" opacity="0.20" transform="rotate(298.5 1704.1 415.9)"/>
    <path d="M 1178.1768570288436,219.1830094267054 C 1197.3808843887464,235.1863655599576 1203.782226842047,257.5910641465107 1178.1768570288436,283.1964339597142 C 1152.5714872156402,257.5910641465107 1158.972829668941,235.1863655599576 1178.1768570288436,219.1830094267054 Z" fill="url(#leaf24)" opacity="0.17" transform="rotate(7.2 1178.2 251.2)"/>
    <path d="M 1751.2510719192305,424.54589758235767 C 1789.431752410762,456.3631313253006 1802.1586459079392,500.9072585654207 1751.2510719192305,551.8148325541295 C 1700.3434979305218,500.9072585654207 1713.070391427699,456.3631313253006 1751.2510719192305,424.54589758235767 Z" fill="url(#leaf25)" opacity="0.17" transform="rotate(61.0 1751.3 488.2)"/>
    <path d="M 300.20282140569566,511.13855075644324 C 335.84686083299437,540.8419169458589 347.7282073087606,582.4266296110407 300.20282140569566,629.9520155141056 C 252.67743550263071,582.4266296110407 264.55878197839695,540.8419169458589 300.20282140569566,511.13855075644324 Z" fill="url(#leaf26)" opacity="0.25" transform="rotate(0.1 300.2 570.5)"/>
    <path d="M 983.5057968170285,231.48744374003243 C 1030.4035051377846,270.56886734066245 1046.0360745780365,325.28286038154454 983.5057968170285,387.8131381425526 C 920.9755190560204,325.28286038154454 936.6080884962724,270.56886734066245 983.5057968170285,231.48744374003243 Z" fill="url(#leaf27)" opacity="0.25" transform="rotate(57.5 983.5 309.7)"/>
    <path d="M 820.1623973996332,508.6473356791164 C 867.4755146892578,548.0749334204703 883.2465537857994,603.2735702583658 820.1623973996332,666.357726644532 C 757.0782410134669,603.2735702583658 772.8492801100085,548.0749334204703 820.1623973996332,508.6473356791164 Z" fill="url(#leaf28)" opacity="0.20" transform="rotate(90.3 820.2 587.5)"/>
    <path d="M 1789.0123186629921,307.41895242676037 C 1820.8090359320195,333.91621681761654 1831.407941688362,371.01238696481516 1789.0123186629921,413.40800999018506 C 1746.6166956376223,371.01238696481516 1757.2156013939648,333.91621681761654 1789.0123186629921,307.41895242676037 Z" fill="url(#leaf29)" opacity="0.18" transform="rotate(359.1 1789.0 360.4)"/>
    <path d="M 747.0602183374399,739.7150423076796 C 780.8862740365166,767.9034220569102 792.1616259362088,807.3671537058331 747.0602183374399,852.468561304602 C 701.958810738671,807.3671537058331 713.2341626383632,767.9034220569102 747.0602183374399,739.7150423076796 Z" fill="url(#leaf0)" opacity="0.24" transform="rotate(359.4 747.1 796.1)"/>
    <path d="M 1369.3835201555894,689.6396365356421 C 1396.8427788125373,712.5223520830987 1405.9958650315198,744.5581538495378 1369.3835201555894,781.1704987254683 C 1332.771175279659,744.5581538495378 1341.9242614986415,712.5223520830987 1369.3835201555894,689.6396365356421 Z" fill="url(#leaf1)" opacity="0.23" transform="rotate(267.6 1369.4 735.4)"/>
    <path d="M 1383.6204066031353,159.88778022183496 C 1424.5803657936938,194.02107954730045 1438.23368552388,241.80769860295212 1383.6204066031353,296.42097752369693 C 1329.0071276823905,241.80769860295212 1342.6604474125768,194.02107954730045 1383.6204066031353,159.88778022183496 Z" fill="url(#leaf2)" opacity="0.15" transform="rotate(259.6 1383.6 228.2)"/>
    <path d="M 185.85108729571564,847.6412137516735 C 225.3454104944844,880.5531497506475 238.51018489407403,926.6298601492111 185.85108729571564,979.2889577475695 C 133.19198969735726,926.6298601492111 146.35676409694688,880.5531497506475 185.85108729571564,847.6412137516735 Z" fill="url(#leaf3)" opacity="0.15" transform="rotate(283.8 185.9 913.5)"/>
    <path d="M 1407.3321755258726,188.6676453222471 C 1450.5450729322577,224.67839316090127 1464.9493720677192,275.0934401350171 1407.3321755258726,332.71063667686377 C 1349.714978984026,275.0934401350171 1364.1192781194875,224.67839316090127 1407.3321755258726,188.6676453222471 Z" fill="url(#leaf4)" opacity="0.19" transform="rotate(236.9 1407.3 260.7)"/>
    <path d="M 168.38170314268757,717.0475987763929 C 204.6722818638015,747.2897477106544 216.76914143750614,789.6287562186207 168.38170314268757,838.0161945134392 C 119.994264847869,789.6287562186207 132.09112442157365,747.2897477106544 168.38170314268757,717.0475987763929 Z" fill="url(#leaf5)" opacity="0.23" transform="rotate(99.5 168.4 777.5)"/>
    <path d="M 791.5637479139083,5.257126967657214 C 821.8911486366279,30.529960903256878 832.0002822108678,65.9119284130964 791.5637479139083,106.34846271005587 C 751.1272136169488,65.9119284130964 761.2363471911887,30.529960903256878 791.5637479139083,5.257126967657214 Z" fill="url(#leaf6)" opacity="0.16" transform="rotate(176.0 791.6 55.8)"/>
    <path d="M 1103.9348004943085,427.6654908771303 C 1139.139339827198,457.0026069878715 1150.8741862714944,498.07456954290916 1103.9348004943085,545.0139553200951 C 1056.9954147171227,498.07456954290916 1068.730261161419,457.0026069878715 1103.9348004943085,427.6654908771303 Z" fill="url(#leaf7)" opacity="0.20" transform="rotate(81.6 1103.9 486.3)"/>
    <path d="M 1480.3354977513743,497.6036591703858 C 1501.3676152443136,515.1304237478353 1508.3783210752933,539.6678941562644 1480.3354977513743,567.7107174801836 C 1452.2926744274553,539.6678941562644 1459.303380258435,515.1304237478353 1480.3354977513743,497.6036591703858 Z" fill="url(#leaf8)" opacity="0.16" transform="rotate(123.5 1480.3 532.7)"/>
    <path d="M 901.474893668385,525.6694814175278 C 922.6987635382177,543.3560396423884 929.7733868281618,568.1172211571932 901.474893668385,596.41571431697 C 873.1764005086081,568.1172211571932 880.2510237985523,543.3560396423884 901.474893668385,525.6694814175278 Z" fill="url(#leaf9)" opacity="0.21" transform="rotate(187.8 901.5 561.0)"/>
    <path d="M 128.19036303261197,108.16071131712074 C 158.34701435147227,133.29125408283767 168.39923145775904,168.47401395484135 128.19036303261197,208.68288237998843 C 87.9814946074649,168.47401395484135 98.03371171375167,133.29125408283767 128.19036303261197,108.16071131712074 Z" fill="url(#leaf10)" opacity="0.18" transform="rotate(204.4 128.2 158.4)"/>
    <path d="M 1656.1365273505494,302.40580158345716 C 1699.4339694008372,338.4870032920304 1713.8664500842665,389.00068568403293 1656.1365273505494,446.73060841775015 C 1598.4066046168323,389.00068568403293 1612.8390853002616,338.4870032920304 1656.1365273505494,302.40580158345716 Z" fill="url(#leaf11)" opacity="0.24" transform="rotate(244.8 1656.1 374.6)"/>
    <path d="M 1469.4168565213372,34.87938004230247 C 1501.475132060953,61.59460965864899 1512.1612239074916,98.99593112153411 1469.4168565213372,141.74029850768855 C 1426.6724891351828,98.99593112153411 1437.3585809817214,61.59460965864899 1469.4168565213372,34.87938004230247 Z" fill="url(#leaf12)" opacity="0.23" transform="rotate(9.7 1469.4 88.3)"/>
    <path d="M 1849.5450315871376,245.93194323337153 C 1869.8501383330188,262.85286552160585 1876.6185072483127,286.54215672513396 1849.5450315871376,313.6156323863089 C 1822.4715559259625,286.54215672513396 1829.2399248412564,262.85286552160585 1849.5450315871376,245.93194323337153 Z" fill="url(#leaf13)" opacity="0.17" transform="rotate(62.7 1849.5 279.8)"/>
    <path d="M 1405.6968861478751,98.081141016473 C 1444.5187600965094,130.43270264033487 1457.4593847460542,175.7248889137415 1405.6968861478751,227.48738751192047 C 1353.934387549696,175.7248889137415 1366.875012199241,130.43270264033487 1405.6968861478751,98.081141016473 Z" fill="url(#leaf14)" opacity="0.21" transform="rotate(86.6 1405.7 162.8)"/>
    <path d="M 197.71133335678707,924.5251204175967 C 219.68910274200462,942.8399282386114 227.01502587041048,968.4806591880318 197.71133335678707,997.7843517016553 C 168.40764084316365,968.4806591880318 175.7335639715695,942.8399282386114 197.71133335678707,924.5251204175967 Z" fill="url(#leaf15)" opacity="0.21" transform="rotate(90.1 197.7 961.2)"/>
    <path d="M 1784.5475910918892,247.40216667485697 C 1826.8671727416252,282.6684847163036 1840.9736999582037,332.04132997432885 1784.5475910918892,388.46743884064347 C 1728.1214822255747,332.04132997432885 1742.2280094421533,282.6684847163036 1784.5475910918892,247.40216667485697 Z" fill="url(#leaf16)" opacity="0.23" transform="rotate(300.8 1784.5 317.9)"/>
    <path d="M 1660.096684874886,801.6468474003518 C 1691.2863585803264,827.6382421548853 1701.6829164821397,864.0261948112325 1660.096684874886,905.6124264184862 C 1618.5104532676323,864.0261948112325 1628.9070111694457,827.6382421548853 1660.096684874886,801.6468474003518 Z" fill="url(#leaf17)" opacity="0.17" transform="rotate(119.4 1660.1 853.6)"/>
    <path d="M 463.76265205284903,264.95412916061537 C 494.59134609178426,290.64470752639477 504.867577438096,326.6115172384859 463.76265205284903,367.71644262373286 C 422.65772666760205,326.6115172384859 432.9339580139138,290.64470752639477 463.76265205284903,264.95412916061537 Z" fill="url(#leaf18)" opacity="0.17" transform="rotate(291.8 463.8 316.3)"/>
    <path d="M 1234.1320063419485,380.31095573593774 C 1256.1908640292718,398.6933371420405 1263.5438165917128,424.42867111058433 1234.1320063419485,453.84048136034875 C 1204.720196092184,424.42867111058433 1212.0731486546251,398.6933371420405 1234.1320063419485,380.31095573593774 Z" fill="url(#leaf19)" opacity="0.22" transform="rotate(65.8 1234.1 417.1)"/>
    <path d="M 70.12791309154728,478.84573388365766 C 113.8021733113589,515.2409507335007 128.3602600512961,566.1942543232808 70.12791309154728,624.4266012830296 C 11.895566131798468,566.1942543232808 26.453652871735677,515.2409507335007 70.12791309154728,478.84573388365766 Z" fill="url(#leaf20)" opacity="0.17" transform="rotate(129.6 70.1 551.6)"/>
    </g>

    <!-- Text with SOLID fill only (ThorVG compatible) -->
    <text x="1010.4" y="901.4"
          font-family="Arial, Helvetica, sans-serif"
          font-size="1080px"
          font-weight="bold"
          fill="#7B68EE"
          text-anchor="middle"
          transform="rotate(14.2 960.0 540.0)">
      8
    </text>
  </g>

  <!-- Frame counter -->
  <text x="960.0" y="1050.0"
        font-family="monospace"
        font-size="24px"
        fill="#FFFFFF"
        text-anchor="middle"
        opacity="0.7">
    Frame 00007 - Compatible
  </text>
</svg>