<?xml version="1.0" encoding="UTF-8"?>
<svg xmlns="http://www.w3.org/2000/svg" viewBox="0 0 1920 1080" width="1920" height="1080">
  <defs>
    <linearGradient id="bgGrad" x1="0%" y1="0%" x2="100%" y2="100%">
      <stop offset="0%" stop-color="#00FA9A"/>
      <stop offset="100%" stop-color="#FF6B6B"/>
    </linearGradient>
    <clipPath id="complexClip"><polygon points="1466.4,540.0 1572.2,583.5 1521.7,621.1 1372.4,631.8 1480.2,700.9 1430.3,732.2 1327.6,734.2 1302.2,772.7 1239.7,787.9 1149.1,766.0 1156.2,879.6 1077.5,886.4 990.7,814.7 928.6,820.6 878.9,779.1 754.4,895.9 747.2,794.4 714.6,757.5 554.0,816.1 635.5,711.4 630.5,674.7 528.1,673.6 585.6,623.4 460.8,612.1 468.4,574.9 515.8,540.0 343.8,496.2 380.6,456.3 525.6,443.2 380.5,360.8 429.9,323.4 548.6,322.7 696.9,361.1 628.2,245.9 717.4,250.1 820.0,297.7 846.5,205.4 923.1,209.9 999.5,187.0 1077.2,194.4 1135.4,236.4 1203.5,249.0 1187.0,338.8 1369.5,261.6 1252.4,385.5 1349.6,380.8 1474.9,380.8 1342.0,454.9 1432.2,471.8 1458.6,504.6"/></clipPath>
    <radialGradient id="leaf0" cx="50%" cy="50%" r="70%">
      <stop offset="0%" stop-color="#FF69B4"/>
      <stop offset="50%" stop-color="#7B68EE"/>
      <stop offset="100%" stop-color="#FF4500"/>
    </radialGradient>
    <radialGradient id="leaf1" cx="50%" cy="50%" r="70%">
      <stop offset="0%" stop-color="#FF4500"/>
      <stop offset="50%" stop-color="#4ECDC4"/>
      <stop offset="100%" stop-color="#9370DB"/>
    </radialGradient>
    <radialGradient id="leaf2" cx="50%" cy="50%" r="70%">
      <stop offset="0%" stop-color="#32CD32"/>
      <stop offset="50%" stop-color="#FF69B4"/>
      <stop offset="100%" stop-color="#4ECDC4"/>
    </radialGradient>
    <radialGradient id="leaf3" cx="50%" cy="50%" r="70%">
      <stop offset="0%" stop-color="#FF4500"/>
      <stop offset="50%" stop-color="#FFE66D"/>
      <stop offset="100%" stop-color="#FF1493"/>
    </radialGradient>
    <radialGradient id="leaf4" cx="50%" cy="50%" r="70%">
      <stop offset="0%" stop-color="#FFD700"/>
      <stop offset="50%" stop-color="#4ECDC4"/>
      <stop offset="100%" stop-color="#7B68EE"/>
    </radialGradient>
    <radialGradient id="leaf5" cx="50%" cy="50%" r="70%">
      <stop offset="0%" stop-color="#96E6A1"/>
      <stop offset="50%" stop-color="#FFD700"/>
      <stop offset="100%" stop-color="#FF1493"/>
    </radialGradient>
    <radialGradient id="leaf6" cx="50%" cy="50%" r="70%">
      <stop offset="0%" stop-color="#FF1493"/>
      <stop offset="50%" stop-color="#FFD700"/>
      <stop offset="100%" stop-color="#00CED1"/>
    </radialGradient>
    <radialGradient id="leaf7" cx="50%" cy="50%" r="70%">
      <stop offset="0%" stop-color="#FF4500"/>
      <stop offset="50%" stop-color="#DC143C"/>
      <stop offset="100%" stop-color="#FFD700"/>
    </radialGradient>
    <radialGradient id="leaf8" cx="50%" cy="50%" r="70%">
      <stop offset="0%" stop-color="#00FA9A"/>
      <stop offset="50%" stop-color="#4ECDC4"/>
      <stop offset="100%" stop-color="#96E6A1"/>
    </radialGradient>
    <radialGradient id="leaf9" cx="50%" cy="50%" r="70%">
      <stop offset="0%" stop-color="#FF69B4"/>
      <stop offset="50%" stop-color="#9370DB"/>
      <stop offset="100%" stop-color="#00FA9A"/>
    </radialGradient>
    <radialGradient id="leaf10" cx="50%" cy="50%" r="70%">
      <stop offset="0%" stop-color="#4ECDC4"/>
      <stop offset="50%" stop-color="#7B68EE"/>
      <stop offset="100%" stop-color="#FF69B4"/>
    </radialGradient>
    <radialGradient id="leaf11" cx="50%" cy="50%" r="70%">
      <stop offset="0%" stop-color="#DC143C"/>
      <stop offset="50%" stop-color="#FF1493"/>
      <stop offset="100%" stop-color="#32CD32"/>
    </radialGradient>
    <radialGradient id="leaf12" cx="50%" cy="50%" r="70%">
      <stop offset="0%" stop-color="#DC143C"/>
      <stop offset="50%" stop-color="#FFD700"/>
      <stop offset="100%" stop-color="#FF69B4"/>
    </radialGradient>
    <radialGradient id="leaf13" cx="50%" cy="50%" r="70%">
      <stop offset="0%" stop-color="#00CED1"/>
      <stop offset="50%" stop-color="#FF4500"/>
      <stop offset="100%" stop-color="#7B68EE"/>
    </radialGradient>
    <radialGradient id="leaf14" cx="50%" cy="50%" r="70%">
      <stop offset="0%" stop-color="#45B7D1"/>
      <stop offset="50%" stop-color="#7B68EE"/>
      <stop offset="100%" stop-color="#FF69B4"/>
    </radialGradient>
    <radialGradient id="leaf15" cx="50%" cy="50%" r="70%">
      <stop offset="0%" stop-color="#FF6B6B"/>
      <stop offset="50%" stop-color="#32CD32"/>
      <stop offset="100%" stop-color="#45B7D1"/>
    </radialGradient>
    <radialGradient id="leaf16" cx="50%" cy="50%" r="70%">
      <stop offset="0%" stop-color="#00CED1"/>
      <stop offset="50%" stop-color="#FF4500"/>
      <stop offset="100%" stop-color="#00FA9A"/>
    </radialGradient>
    <radialGradient id="leaf17" cx="50%" cy="50%" r="70%">
      <stop offset="0%" stop-color="#FF1493"/>
      <stop offset="50%" stop-color="#FFE66D"/>
      <stop offset="100%" stop-color="#7B68EE"/>
    </radialGradient>
    <radialGradient id="leaf18" cx="50%" cy="50%" r="70%">
      <stop offset="0%" stop-color="#32CD32"/>
      <stop offset="50%" stop-color="#FFD700"/>
      <stop offset="100%" stop-color="#96E6A1"/>
    </radialGradient>
    <radialGradient id="leaf19" cx="50%" cy="50%" r="70%">
      <stop offset="0%" stop-color="#7B68EE"/>
      <stop offset="50%" stop-color="#FF6B6B"/>
      <stop offset="100%" stop-color="#9370DB"/>
    </radialGradient>
    <radialGradient id="leaf20" cx="50%" cy="50%" r="70%">
      <stop offset="0%" stop-color="#00FA9A"/>
      <stop offset="50%" stop-color="#FF6B6B"/>
      <stop offset="100%" stop-color="#FFE66D"/>
    </radialGradient>
    <radialGradient id="leaf21" cx="50%" cy="50%" r="70%">
      <stop offset="0%" stop-color="#96E6A1"/>
      <stop offset="50%" stop-color="#DC143C"/>
      <stop offset="100%" stop-color="#FFD700"/>
    </radialGradient>
    <radialGradient id="leaf22" cx="50%" cy="50%" r="70%">
      <stop offset="0%" stop-color="#FF69B4"/>
      <stop offset="50%" stop-color="#45B7D1"/>
      <stop offset="100%" stop-color="#00FA9A"/>
    </radialGradient>
    <radialGradient id="leaf23" cx="50%" cy="50%" r="70%">
      <stop offset="0%" stop-color="#00FA9A"/>
      <stop offset="50%" stop-color="#45B7D1"/>
      <stop offset="100%" stop-color="#96E6A1"/>
    </radialGradient>
    <radialGradient id="leaf24" cx="50%" cy="50%" r="70%">
      <stop offset="0%" stop-color="#FFE66D"/>
      <stop offset="50%" stop-color="#FFD700"/>
      <stop offset="100%" stop-color="#FF1493"/>
    </radialGradient>
    <radialGradient id="leaf25" cx="50%" cy="50%" r="70%">
      <stop offset="0%" stop-color="#00FA9A"/>
      <stop offset="50%" stop-color="#FFD700"/>
      <stop offset="100%" stop-color="#32CD32"/>
    </radialGradient>
    <radialGradient id="leaf26" cx="50%" cy="50%" r="70%">
      <stop offset="0%" stop-color="#FF4500"/>
      <stop offset="50%" stop-color="#FFD700"/>
      <stop offset="100%" stop-color="#00FA9A"/>
    </radialGradient>
    <radialGradient id="leaf27" cx="50%" cy="50%" r="70%">
      <stop offset="0%" stop-color="#00FA9A"/>
      <stop offset="50%" stop-color="#FF69B4"/>
      <stop offset="100%" stop-color="#FFD700"/>
    </radialGradient>
    <radialGradient id="leaf28" cx="50%" cy="50%" r="70%">
      <stop offset="0%" stop-color="#FF69B4"/>
      <stop offset="50%" stop-color="#DC143C"/>
      <stop offset="100%" stop-color="#7B68EE"/>
    </radialGradient>
    <radialGradient id="leaf29" cx="50%" cy="50%" r="70%">
      <stop offset="0%" stop-color="#FFD700"/>
      <stop offset="50%" stop-color="#7B68EE"/>
      <stop offset="100%" stop-color="#96E6A1"/>
    </radialGradient>
  </defs>

  <!-- Scaled content -->
  <g transform="translate(960.0,540.0) scale(3.0) translate(-960.0,-540.0)">
    <!-- Background -->
    <rect width="1920" height="1080" fill="url(#bgGrad)"/>
    
    <!-- Leaves with clip-path -->
    <g clip-path="url(#complexClip)">
    <path d="M 1721.2894911451615,23.888938953838704 C 1743.3681555839191,42.28782598613681 1750.7277103968383,68.04626783135414 1721.2894911451615,97.48448708303111 C 1691.8512718934846,68.04626783135414 1699.2108267064039,42.28782598613681 1721.2894911451615,23.888938953838704 Z" fill="url(#leaf0)" opacity="0.19" transform="rotate(25.2 1721.3 60.7)"/>
    <path d="M 342.2950825286442,817.9451834681696 C 362.70411246435935,834.9527084145989 369.5071224429311,858.7632433396 342.2950825286442,885.9752832538869 C 315.0830426143572,858.7632433396 321.886052592929,834.9527084145989 342.2950825286442,817.9451834681696 Z" fill="url(#leaf1)" opacity="0.25" transform="rotate(325.2 342.3 852.0)"/>
    <path d="M 1589.2403372541212,74.43069454809975 C 1625.4521688806635,104.60722090355175 1637.5227794228445,146.85435780118453 1589.2403372541212,195.13679996990774 C 1540.957895085398,146.85435780118453 1553.0285056275789,104.60722090355175 1589.2403372541212,74.43069454809975 Z" fill="url(#leaf2)" opacity="0.23" transform="rotate(50.0 1589.2 134.8)"/>
    <path d="M 140.53161908224843,490.6176439748304 C 173.31213273394062,517.9347386845739 184.238970617838,556.1786712782148 140.53161908224843,599.8860228138044 C 96.82426754665885,556.1786712782148 107.75110543055624,517.9347386845739 140.53161908224843,490.6176439748304 Z" fill="url(#leaf3)" opacity="0.15" transform="rotate(159.2 140.5 545.3)"/>
    <path d="M 630.6886259174219,282.7032949279634 C 661.5963661115057,308.45974508969994 671.8989461762003,344.5187753161311 630.6886259174219,385.7290955749096 C 589.4783056586434,344.5187753161311 599.780885723338,308.45974508969994 630.6886259174219,282.7032949279634 Z" fill="url(#leaf4)" opacity="0.20" transform="rotate(324.8 630.7 334.2)"/>
    <path d="M 1762.5704205162456,-8.251448888419091 C 1806.1940776124277,28.10159869173264 1820.7352966444882,78.99586530394507 1762.5704205162456,137.16074143218782 C 1704.405544388003,78.99586530394507 1718.9467634200635,28.10159869173264 1762.5704205162456,-8.251448888419091 Z" fill="url(#leaf5)" opacity="0.24" transform="rotate(133.9 1762.6 64.5)"/>
    <path d="M 1114.3701873426562,799.7166581848909 C 1148.7011203512714,828.3257690254035 1160.1447646874765,868.3785242021212 1114.3701873426562,914.1531015469415 C 1068.595609997836,868.3785242021212 1080.039254334041,828.3257690254035 1114.3701873426562,799.7166581848909 Z" fill="url(#leaf6)" opacity="0.15" transform="rotate(219.9 1114.4 856.9)"/>
    <path d="M 1009.874966622269,642.404952775915 C 1030.8893617788092,659.9169487396986 1037.8941601643228,684.4337430889957 1009.874966622269,712.4529366310494 C 981.8557730802152,684.4337430889957 988.8605714657286,659.9169487396986 1009.874966622269,642.404952775915 Z" fill="url(#leaf7)" opacity="0.17" transform="rotate(196.7 1009.9 677.4)"/>
    <path d="M 1675.5807386739427,722.9341454901262 C 1707.1934230499785,749.2780491368226 1717.730984508657,786.1595142421975 1675.5807386739427,828.3097600769117 C 1633.4304928392285,786.1595142421975 1643.968054297907,749.2780491368226 1675.5807386739427,722.9341454901262 Z" fill="url(#leaf8)" opacity="0.18" transform="rotate(80.1 1675.6 775.6)"/>
    <path d="M 599.024084218909,675.4778460937486 C 625.327175402945,697.3970887471119 634.0948724642903,728.0840284618205 599.024084218909,763.1548167072018 C 563.9532959735277,728.0840284618205 572.720993034873,697.3970887471119 599.024084218909,675.4778460937486 Z" fill="url(#leaf9)" opacity="0.23" transform="rotate(172.6 599.0 719.3)"/>
    <path d="M 1623.971828478384,697.6426351677031 C 1646.5770627374293,716.4803303835744 1654.1121408237777,742.8531036857939 1623.971828478384,772.9934160311878 C 1593.8315161329901,742.8531036857939 1601.3665942193386,716.4803303835744 1623.971828478384,697.6426351677031 Z" fill="url(#leaf10)" opacity="0.20" transform="rotate(152.3 1624.0 735.3)"/>
    <path d="M 1722.653114109089,340.51080399368993 C 1740.8568158528333,355.6805554468101 1746.9247164340813,376.9182074811783 1722.653114109089,401.1898098061705 C 1698.3815117840968,376.9182074811783 1704.4494123653449,355.6805554468101 1722.653114109089,340.51080399368993 Z" fill="url(#leaf11)" opacity="0.23" transform="rotate(357.6 1722.7 370.9)"/>
    <path d="M 602.3891921756152,229.1261699916562 C 628.180020438274,250.61852687720517 636.7769631924936,280.70782651697374 602.3891921756152,315.09559753385213 C 568.0014211587369,280.70782651697374 576.5983639129564,250.61852687720517 602.3891921756152,229.1261699916562 Z" fill="url(#leaf12)" opacity="0.22" transform="rotate(267.8 602.4 272.1)"/>
    <path d="M 73.70358518880508,213.14451521884914 C 121.5082152967774,252.98170697549273 137.44309199943484,308.7537754347938 73.70358518880508,372.49328224542353 C 9.964078378175309,308.7537754347938 25.898955080832756,252.98170697549273 73.70358518880508,213.14451521884914 Z" fill="url(#leaf13)" opacity="0.22" transform="rotate(112.0 73.7 292.8)"/>
    <path d="M 178.1111157462998,210.59336313032009 C 216.70507393448565,242.7549949538083 229.56972666388094,287.7812795066918 178.1111157462998,339.23989042427297 C 126.65250482871863,287.7812795066918 139.51715755811392,242.7549949538083 178.1111157462998,210.59336313032009 Z" fill="url(#leaf14)" opacity="0.18" transform="rotate(218.1 178.1 274.9)"/>
    <path d="M 1301.2857419579143,687.7658684666549 C 1344.8343063655311,724.0563388063356 1359.3504945014035,774.8629972818886 1301.2857419579143,832.9277498253778 C 1243.220989414425,774.8629972818886 1257.7371775502975,724.0563388063356 1301.2857419579143,687.7658684666549 Z" fill="url(#leaf15)" opacity="0.17" transform="rotate(297.5 1301.3 760.3)"/>
    <path d="M 1521.8934545202305,816.1556535985728 C 1543.1137494660977,833.839232720129 1550.1871811147203,858.5962434903074 1521.8934545202305,886.8899700847971 C 1493.5997279257408,858.5962434903074 1500.6731595743634,833.839232720129 1521.8934545202305,816.1556535985728 Z" fill="url(#leaf16)" opacity="0.16" transform="rotate(18.5 1521.9 851.5)"/>
    <path d="M 270.59646138550096,141.900170195498 C 306.0940991352546,171.48153498695936 317.92664505183916,212.89544569500526 270.59646138550096,260.22562936134347 C 223.26627771916276,212.89544569500526 235.0988236357473,171.48153498695936 270.59646138550096,141.900170195498 Z" fill="url(#leaf17)" opacity="0.22" transform="rotate(275.0 270.6 201.1)"/>
    <path d="M 129.18005121487386,661.7399222404899 C 159.87963660976905,687.3229100695693 170.11283174140078,723.1390930302804 129.18005121487386,764.0718735568073 C 88.24727068834693,723.1390930302804 98.48046581997866,687.3229100695693 129.18005121487386,661.7399222404899 Z" fill="url(#leaf18)" opacity="0.16" transform="rotate(2.2 129.2 712.9)"/>
    <path d="M 965.4900828003903,651.1590947843944 C 988.938602810496,670.6995281261492 996.754776147198,698.0561348046059 965.4900828003903,729.3208281514136 C 934.2253894535826,698.0561348046059 942.0415627902845,670.6995281261492 965.4900828003903,651.1590947843944 Z" fill="url(#leaf19)" opacity="0.25" transform="rotate(299.5 965.5 690.2)"/>
    <path d="M 1736.7579447998205,328.0054457599106 C 1781.8094673836013,365.54838124639446 1796.8266415781948,418.1084909274719 1736.7579447998205,478.1771877058461 C 1676.6892480214462,418.1084909274719 1691.7064222160398,365.54838124639446 1736.7579447998205,328.0054457599106 Z" fill="url(#leaf20)" opacity="0.19" transform="rotate(69.7 1736.8 403.1)"/>
    <path d="M 553.2759550442627,301.31770666581406 C 594.5757755169813,335.7342237264129 608.3423823412207,383.9173476112512 553.2759550442627,438.9837749082093 C 498.2095277473046,383.9173476112512 511.9761345715441,335.7342237264129 553.2759550442627,301.31770666581406 Z" fill="url(#leaf21)" opacity="0.25" transform="rotate(53.6 553.3 370.2)"/>
    <path d="M 236.94230890170203,367.1794014052664 C 266.20651025185026,391.56623586372325 275.961244035233,425.70780410556284 236.94230890170203,464.72673923909383 C 197.92337376817107,425.70780410556284 207.6781075515538,391.56623586372325 236.94230890170203,367.1794014052664 Z" fill="url(#leaf22)" opacity="0.15" transform="rotate(141.8 236.9 416.0)"/>
    <path d="M 708.7763563306502,891.1041582970333 C 743.1776725349873,919.7719218006475 754.644777936433,959.9067907057075 708.7763563306502,1005.7752123114903 C 662.9079347248673,959.9067907057075 674.375040126313,919.7719218006475 708.7763563306502,891.1041582970333 Z" fill="url(#leaf23)" opacity="0.18" transform="rotate(223.9 708.8 948.4)"/>
    <path d="M 1679.7351864758361,660.211408685429 C 1708.784646828376,684.4192923125455 1718.4678002792225,718.3103293905086 1679.7351864758361,757.0429431938951 C 1641.0025726724498,718.3103293905086 1650.6857261232963,684.4192923125455 1679.7351864758361,660.211408685429 Z" fill="url(#leaf24)" opacity="0.24" transform="rotate(262.3 1679.7 708.6)"/>
    <path d="M 938.9140463467572,306.4080267959514 C 977.0723486029601,338.2066120094538 989.7917826883612,382.72463130835723 938.9140463467572,433.60236764996114 C 888.0363100051533,382.72463130835723 900.7557440905543,338.2066120094538 938.9140463467572,306.4080267959514 Z" fill="url(#leaf25)" opacity="0.21" transform="rotate(306.5 938.9 370.0)"/>
    <path d="M 1057.6301655864759,291.4706212607691 C 1077.3952947007695,307.94156218934717 1083.9836710722007,331.0008794893564 1057.6301655864759,357.3543849750813 C 1031.276660100751,331.0008794893564 1037.8650364721823,307.94156218934717 1057.6301655864759,291.4706212607691 Z" fill="url(#leaf26)" opacity="0.18" transform="rotate(189.0 1057.6 324.4)"/>
    <path d="M 1017.9057401164844,837.3518170732706 C 1058.9749415170625,871.5761515737522 1072.6646753172552,919.4902198744267 1017.9057401164844,974.2491550751973 C 963.1468049157137,919.4902198744267 976.8365387159064,871.5761515737522 1017.9057401164844,837.3518170732706 Z" fill="url(#leaf27)" opacity="0.19" transform="rotate(78.5 1017.9 905.8)"/>
    <path d="M 1690.0515038270958,377.1244628539958 C 1721.3549015259478,403.21062760303914 1731.7893674255652,439.73125825169984 1690.0515038270958,481.4691218501692 C 1648.3136402286264,439.73125825169984 1658.7481061282438,403.21062760303914 1690.0515038270958,377.1244628539958 Z" fill="url(#leaf28)" opacity="0.20" transform="rotate(171.0 1690.1 429.3)"/>
    <path d="M 777.8366681729759,39.271109142247276 C 813.352020897011,68.86723641227651 825.1904718050228,110.30181459031743 777.8366681729759,157.6556182223642 C 730.4828645409291,110.30181459031743 742.3213154489408,68.86723641227651 777.8366681729759,39.271109142247276 Z" fill="url(#leaf29)" opacity="0.18" transform="rotate(52.1 777.8 98.5)"/>
    <path d="M 454.38710978530617,176.02202677927053 C 499.2667815318235,213.4217532347016 514.226672113996,265.78137027230514 454.38710978530617,325.62093260099493 C 394.5475474566164,265.78137027230514 409.50743803878885,213.4217532347016 454.38710978530617,176.02202677927053 Z" fill="url(#leaf0)" opacity="0.21" transform="rotate(168.5 454.4 250.8)"/>
    <path d="M 1681.9357817490468,849.4039768339245 C 1723.6409836653847,884.1583117642061 1737.5427176374974,932.8143806666005 1681.9357817490468,988.4213165550512 C 1626.3288458605962,932.8143806666005 1640.2305798327088,884.1583117642061 1681.9357817490468,849.4039768339245 Z" fill="url(#leaf1)" opacity="0.16" transform="rotate(50.7 1681.9 918.9)"/>
    <path d="M 1020.3427969471568,975.5525426325792 C 1039.0068698273321,991.105936699392 1045.2282274540573,1012.8806883929301 1020.3427969471568,1037.7661188998306 C 995.4573664402562,1012.8806883929301 1001.6787240669813,991.105936699392 1020.3427969471568,975.5525426325792 Z" fill="url(#leaf2)" opacity="0.20" transform="rotate(259.5 1020.3 1006.7)"/>
    <path d="M 171.49188890927286,336.5375679635606 C 202.44545486434686,362.33220625945563 212.76331018270486,398.4446998737086 171.49188890927286,439.7161211471406 C 130.22046763584086,398.4446998737086 140.53832295419886,362.33220625945563 171.49188890927286,336.5375679635606 Z" fill="url(#leaf3)" opacity="0.16" transform="rotate(90.0 171.5 388.1)"/>
    <path d="M 1356.7679341232335,251.94044803282546 C 1399.5903689930747,287.6258104243597 1413.8645139496884,337.5853177725077 1356.7679341232335,394.68189759896256 C 1299.6713542967786,337.5853177725077 1313.9454992533924,287.6258104243597 1356.7679341232335,251.94044803282546 Z" fill="url(#leaf4)" opacity="0.21" transform="rotate(14.0 1356.8 323.3)"/>
    <path d="M 62.87565393007951,273.6074929466027 C 90.56450543195818,296.6815358648349 99.79412259925107,328.98519595036004 62.87565393007951,365.90366461953164 C 25.95718526090794,328.98519595036004 35.186802428200835,296.6815358648349 62.87565393007951,273.6074929466027 Z" fill="url(#leaf5)" opacity="0.21" transform="rotate(119.3 62.9 319.8)"/>
    <path d="M 1045.3688727912331,986.412808416024 C 1063.6149850197799,1001.617901939813 1069.6970224292954,1022.9050328731175 1045.3688727912331,1047.2331825111798 C 1021.0407231531707,1022.9050328731175 1027.1227605626864,1001.617901939813 1045.3688727912331,986.412808416024 Z" fill="url(#leaf6)" opacity="0.25" transform="rotate(141.1 1045.4 1016.8)"/>
    <path d="M 681.9831163834564,238.11310297846882 C 726.4287985670345,275.151171464784 741.2440259615606,327.0044673456252 681.9831163834564,386.26537692372943 C 622.7222068053521,327.0044673456252 637.5374341998782,275.151171464784 681.9831163834564,238.11310297846882 Z" fill="url(#leaf7)" opacity="0.17" transform="rotate(156.8 682.0 312.2)"/>
    <path d="M 131.9950358031189,774.6996101068772 C 152.36854964694496,791.6775383100655 159.1597209282203,815.4466377945292 131.9950358031189,842.6113229196307 C 104.8303506780175,815.4466377945292 111.62152195929285,791.6775383100655 131.9950358031189,774.6996101068772 Z" fill="url(#leaf8)" opacity="0.17" transform="rotate(334.3 132.0 808.7)"/>
    <path d="M 1032.0844257246622,208.7183778016987 C 1054.381865150196,227.29957732297692 1061.8143449587074,253.3132566527664 1032.0844257246622,283.0431758868115 C 1002.354506490617,253.3132566527664 1009.7869862991283,227.29957732297692 1032.0844257246622,208.7183778016987 Z" fill="url(#leaf9)" opacity="0.18" transform="rotate(166.3 1032.1 245.9)"/>
    <path d="M 1390.6028677458564,665.754708819806 C 1435.8225532836038,703.4377801012621 1450.8957817961864,756.1940798953008 1390.6028677458564,816.4869939456307 C 1330.3099536955265,756.1940798953008 1345.383182208109,703.4377801012621 1390.6028677458564,665.754708819806 Z" fill="url(#leaf10)" opacity="0.23" transform="rotate(317.0 1390.6 741.1)"/>
    <path d="M 75.0665889563768,25.988659375899175 C 119.88951291059551,63.341096004414766 134.83048756200174,115.63450728433659 75.0665889563768,175.39840588996154 C 15.30269035075186,115.63450728433659 30.243665002158096,63.341096004414766 75.0665889563768,25.988659375899175 Z" fill="url(#leaf11)" opacity="0.20" transform="rotate(120.6 75.1 100.7)"/>
    <path d="M 700.0949296344315,383.37570554819274 C 743.4290955094418,419.4875104440347 757.8738174677786,470.0440372982133 700.0949296344315,527.8229251315604 C 642.3160418010845,470.0440372982133 656.7607637594213,419.4875104440347 700.0949296344315,383.37570554819274 Z" fill="url(#leaf12)" opacity="0.17" transform="rotate(188.1 700.1 455.6)"/>
    <path d="M 1267.0568767823884,494.6566040978265 C 1293.6509060216592,516.8182951305521 1302.5155824347494,547.844662576368 1267.0568767823884,583.303368228729 C 1231.5981711300274,547.844662576368 1240.4628475431175,516.8182951305521 1267.0568767823884,494.6566040978265 Z" fill="url(#leaf13)" opacity="0.18" transform="rotate(38.9 1267.1 539.0)"/>
    <path d="M 627.3889473110315,104.08564871344409 C 664.3137182826342,134.85629118977965 676.6219752731685,177.93519065664947 627.3889473110315,227.1682186187864 C 578.1559193488946,177.93519065664947 590.4641763394288,134.85629118977965 627.3889473110315,104.08564871344409 Z" fill="url(#leaf14)" opacity="0.23" transform="rotate(108.2 627.4 165.6)"/>
    <path d="M 843.4988714404233,814.2450244603932 C 884.338051463868,848.2776744799305 897.9511114716829,895.9233845072828 843.4988714404233,950.3756245385424 C 789.0466314091636,895.9233845072828 802.6596914169785,848.2776744799305 843.4988714404233,814.2450244603932 Z" fill="url(#leaf15)" opacity="0.19" transform="rotate(213.1 843.5 882.3)"/>
    <path d="M 1003.2982128640786,46.92369412567699 C 1032.8718199996633,71.5683667386644 1042.7296890448583,106.07090839684679 1003.2982128640786,145.50238457762663 C 963.8667366832987,106.07090839684679 973.7246057284937,71.5683667386644 1003.2982128640786,46.92369412567699 Z" fill="url(#leaf16)" opacity="0.19" transform="rotate(116.8 1003.3 96.2)"/>
    <path d="M 1624.7245920135279,947.325199509078 C 1648.8551534719352,967.4340007244175 1656.8986739580712,995.5863224258928 1624.7245920135279,1027.7604043704362 C 1592.5505100689845,995.5863224258928 1600.5940305551205,967.4340007244175 1624.7245920135279,947.325199509078 Z" fill="url(#leaf17)" opacity="0.21" transform="rotate(51.6 1624.7 987.5)"/>
    <path d="M 355.9234337087557,964.9833829138428 C 382.41374134652415,987.0586392786498 391.243843892447,1017.9639981893797 355.9234337087557,1053.284408373071 C 320.6030235250644,1017.9639981893797 329.4331260709872,987.0586392786498 355.9234337087557,964.9833829138428 Z" fill="url(#leaf18)" opacity="0.16" transform="rotate(284.7 355.9 1009.1)"/>
    <path d="M 1571.9698724176264,260.2511349245366 C 1609.0960854161065,291.18964575660334 1621.4714897489332,334.5035609214967 1571.9698724176264,384.0051782528035 C 1522.4682550863197,334.5035609214967 1534.8436594191464,291.18964575660334 1571.9698724176264,260.2511349245366 Z" fill="url(#leaf19)" opacity="0.18" transform="rotate(46.7 1572.0 322.1)"/>
    <path d="M 1086.6381524723192,763.7335634668949 C 1119.2309165236288,790.8942001763195 1130.0951712073986,828.9190915695139 1086.6381524723192,872.3761103045932 C 1043.1811337372399,828.9190915695139 1054.0453884210096,790.8942001763195 1086.6381524723192,763.7335634668949 Z" fill="url(#leaf20)" opacity="0.19" transform="rotate(105.9 1086.6 818.1)"/>
    <path d="M 1204.0404050446646,893.2895092804796 C 1222.294692188058,908.5014152333073 1228.379454569189,929.7980835672662 1204.0404050446646,954.1371330917906 C 1179.7013555201402,929.7980835672662 1185.7861179012712,908.5014152333073 1204.0404050446646,893.2895092804796 Z" fill="url(#leaf21)" opacity="0.20" transform="rotate(344.5 1204.0 923.7)"/>
    <path d="M 328.26725140548683,948.6993289578478 C 374.9029818250077,987.5624376407818 390.44822529818134,1041.9707897968897 328.26725140548683,1104.1517636895842 C 266.0862775127923,1041.9707897968897 281.63152098596595,987.5624376407818 328.26725140548683,948.6993289578478 Z" fill="url(#leaf22)" opacity="0.24" transform="rotate(175.7 328.3 1026.4)"/>
    <path d="M 1519.618706806465,142.07166567203527 C 1557.1704283602392,173.364766966847 1569.6876688781638,217.17510877958338 1519.618706806465,267.2440708512821 C 1469.5497447347664,217.17510877958338 1482.066985252691,173.364766966847 1519.618706806465,142.07166567203527 Z" fill="url(#leaf23)" opacity="0.19" transform="rotate(44.8 1519.6 204.7)"/>
    <path d="M 1481.4650302645402,730.3876031868047 C 1506.558533412072,751.2988558097477 1514.923034461249,780.5746094818679 1481.4650302645402,814.0326136785768 C 1448.0070260678315,780.5746094818679 1456.3715271170086,751.2988558097477 1481.4650302645402,730.3876031868047 Z" fill="url(#leaf24)" opacity="0.23" transform="rotate(194.5 1481.5 772.2)"/>
    <path d="M 134.4259796534647,101.75249366377776 C 152.8025131577001,117.06627158397391 158.92802432577855,138.50556067224855 134.4259796534647,163.0076053445624 C 109.92393498115086,138.50556067224855 116.04944614922933,117.06627158397391 134.4259796534647,101.75249366377776 Z" fill="url(#leaf25)" opacity="0.23" transform="rotate(345.2 134.4 132.4)"/>
    <path d="M 1693.8988317422697,2.820132024438692 C 1732.8030154815065,35.24028514046924 1745.7710767279186,80.628499502912 1693.8988317422697,132.50074448856088 C 1642.0265867566209,80.628499502912 1654.994648003033,35.24028514046924 1693.8988317422697,2.820132024438692 Z" fill="url(#leaf26)" opacity="0.21" transform="rotate(85.3 1693.9 67.7)"/>
    <path d="M 1647.0705198133492,174.42678173672988 C 1694.3980378338492,213.86638008714664 1710.173877174016,269.0818177777301 1647.0705198133492,332.18517513839697 C 1583.9671624526823,269.0818177777301 1599.743001792849,213.86638008714664 1647.0705198133492,174.42678173672988 Z" fill="url(#leaf27)" opacity="0.16" transform="rotate(323.9 1647.1 253.3)"/>
    <path d="M 1250.9275001244603,590.067169543437 C 1290.189866288064,622.7858080131068 1303.277321675932,668.5919018706444 1250.9275001244603,720.9417234221161 C 1198.5776785729886,668.5919018706444 1211.6651339608566,622.7858080131068 1250.9275001244603,590.067169543437 Z" fill="url(#leaf28)" opacity="0.24" transform="rotate(237.1 1250.9 655.5)"/>
    <path d="M 1498.2018127733293,643.9487951471906 C 1534.2355085450367,673.9768749569469 1546.2467404689392,716.0161866906055 1498.2018127733293,764.0611143862154 C 1450.1568850777194,716.0161866906055 1462.1681170016218,673.9768749569469 1498.2018127733293,643.9487951471906 Z" fill="url(#leaf29)" opacity="0.23" transform="rotate(127.3 1498.2 704.0)"/>
    <path d="M 300.3315345456924,34.43547079542242 C 335.7239253284288,63.92912978103604 347.5213889226742,105.2202523608951 300.3315345456924,152.4101067378769 C 253.14168016871062,105.2202523608951 264.93914376295606,63.92912978103604 300.3315345456924,34.43547079542242 Z" fill="url(#leaf0)" opacity="0.22" transform="rotate(161.9 300.3 93.4)"/>
    <path d="M 1533.670521733448,252.67721823852878 C 1574.6208480465793,286.8024901661384 1588.2709568176233,334.57787086479186 1533.670521733448,389.17830594896725 C 1479.0700866492725,334.57787086479186 1492.7201954203165,286.8024901661384 1533.670521733448,252.67721823852878 Z" fill="url(#leaf1)" opacity="0.22" transform="rotate(247.0 1533.7 320.9)"/>
    <path d="M 1809.1598251086975,938.9395794968272 C 1851.9072068476091,974.5623976125868 1866.1563340939128,1024.4343429746502 1809.1598251086975,1081.4308519598658 C 1752.1633161234822,1024.4343429746502 1766.412443369786,974.5623976125868 1809.1598251086975,938.9395794968272 Z" fill="url(#leaf2)" opacity="0.22" transform="rotate(274.3 1809.2 1010.2)"/>
    <path d="M 1403.0529614412771,542.1892764860028 C 1443.426147522129,575.833598220046 1456.8838762157463,622.9356486477067 1403.0529614412771,676.7665634221759 C 1349.222046666808,622.9356486477067 1362.6797753604253,575.833598220046 1403.0529614412771,542.1892764860028 Z" fill="url(#leaf3)" opacity="0.18" transform="rotate(324.6 1403.1 609.5)"/>
    <path d="M 1810.441562173866,660.0392134002598 C 1856.5900899534524,698.4963198832485 1871.9729325466478,752.3362689594327 1810.441562173866,813.8676393322146 C 1748.9101918010842,752.3362689594327 1764.2930343942796,698.4963198832485 1810.441562173866,660.0392134002598 Z" fill="url(#leaf4)" opacity="0.17" transform="rotate(56.9 1810.4 737.0)"/>
    <path d="M 489.2247787269021,36.6634199285718 C 508.2357975869939,52.50593564531494 514.5728038736911,74.68545764875535 489.2247787269021,100.03348279554437 C 463.8767535801131,74.68545764875535 470.21375986681034,52.50593564531494 489.2247787269021,36.6634199285718 Z" fill="url(#leaf5)" opacity="0.20" transform="rotate(304.8 489.2 68.3)"/>
    <path d="M 1001.4104300809389,589.2558131347979 C 1048.1830438066645,628.2329912395692 1063.7739150485731,682.8010405862491 1001.4104300809389,745.1645255538832 C 939.0469451133048,682.8010405862491 954.6378163552133,628.2329912395692 1001.4104300809389,589.2558131347979 Z" fill="url(#leaf6)" opacity="0.25" transform="rotate(291.6 1001.4 667.2)"/>
    <path d="M 1518.6823333730515,242.37439829019203 C 1559.4373730778566,276.33693137752954 1573.0223863127915,323.88447769980206 1518.6823333730515,378.2245306395421 C 1464.3422804333115,323.88447769980206 1477.9272936682464,276.33693137752954 1518.6823333730515,242.37439829019203 Z" fill="url(#leaf7)" opacity="0.22" transform="rotate(42.0 1518.7 310.3)"/>
    <path d="M 100.4939020321709,692.0913896544262 C 144.62286815346675,728.8655280888394 159.33252352723204,780.3493218970178 100.4939020321709,839.187943392079 C 41.655280537109746,780.3493218970178 56.36493591087503,728.8655280888394 100.4939020321709,692.0913896544262 Z" fill="url(#leaf8)" opacity="0.15" transform="rotate(159.7 100.5 765.6)"/>
    <path d="M 527.3164989751832,985.0769166915713 C 552.4730053217178,1006.0406719803501 560.8585074372293,1035.3899293846405 527.3164989751832,1068.9319378466864 C 493.77449051313715,1035.3899293846405 502.15999262864864,1006.0406719803501 527.3164989751832,985.0769166915713 Z" fill="url(#leaf9)" opacity="0.17" transform="rotate(85.8 527.3 1027.0)"/>
    <path d="M 639.1895303000214,787.2622263604844 C 667.0598743376856,810.4875130585381 676.3499890169071,843.0029144358131 639.1895303000214,880.1633731526988 C 602.0290715831356,843.0029144358131 611.3191862623571,810.4875130585381 639.1895303000214,787.2622263604844 Z" fill="url(#leaf10)" opacity="0.25" transform="rotate(65.7 639.2 833.7)"/>
    <path d="M 1838.1803900050093,224.41522744494893 C 1867.017395462324,248.44606532604448 1876.6297306147621,282.08923835957825 1838.1803900050093,320.5385789693311 C 1799.7310493952564,282.08923835957825 1809.3433845476945,248.44606532604448 1838.1803900050093,224.41522744494893 Z" fill="url(#leaf11)" opacity="0.16" transform="rotate(213.2 1838.2 272.5)"/>
    <path d="M 1699.9077966393381,39.72709009444621 C 1743.741781222971,76.25541058080688 1758.3531094175153,127.39505926171182 1699.9077966393381,185.8403720398889 C 1641.462483861161,127.39505926171182 1656.0738120557053,76.25541058080688 1699.9077966393381,39.72709009444621 Z" fill="url(#leaf12)" opacity="0.25" transform="rotate(271.8 1699.9 112.8)"/>
    <path d="M 1843.858751736603,785.4436549967136 C 1886.325208890951,820.8323692920037 1900.480694609067,870.3765693054099 1843.858751736603,926.9985121778741 C 1787.2368088641388,870.3765693054099 1801.3922945822549,820.8323692920037 1843.858751736603,785.4436549967136 Z" fill="url(#leaf13)" opacity="0.18" transform="rotate(320.0 1843.9 856.2)"/>
    <path d="M 780.5590043603138,500.29948198391634 C 801.8381301012226,518.032086768007 808.9311720148589,542.8577334657341 780.5590043603138,571.2299011202792 C 752.1868367057687,542.8577334657341 759.2798786194049,518.032086768007 780.5590043603138,500.29948198391634 Z" fill="url(#leaf14)" opacity="0.18" transform="rotate(343.2 780.6 535.8)"/>
    <path d="M 1587.1363223572926,923.2238418934771 C 1611.176821093338,943.2575908401816 1619.1903206720199,971.304839365568 1587.1363223572926,1003.3588376802952 C 1555.0823240425652,971.304839365568 1563.095823621247,943.2575908401816 1587.1363223572926,923.2238418934771 Z" fill="url(#leaf15)" opacity="0.24" transform="rotate(35.7 1587.1 963.3)"/>
    <path d="M 1615.5842554055773,326.33870633977733 C 1637.1947416319051,344.34744486171724 1644.3982370406811,369.5596787924331 1615.5842554055773,398.37366042753695 C 1586.7702737704735,369.5596787924331 1593.9737691792495,344.34744486171724 1615.5842554055773,326.33870633977733 Z" fill="url(#leaf16)" opacity="0.23" transform="rotate(291.2 1615.6 362.4)"/>
    <path d="M 1187.752837682319,753.940893148807 C 1234.084436280738,792.5505586474894 1249.5283024802106,846.6040903456446 1187.752837682319,908.3795551435363 C 1125.9773728844275,846.6040903456446 1141.4212390839002,792.5505586474894 1187.752837682319,753.940893148807 Z" fill="url(#leaf17)" opacity="0.22" transform="rotate(83.9 1187.8 831.2)"/>
    <path d="M 1691.8195826965157,226.4163083686026 C 1709.9519297949237,241.526597617276 1715.9960454943932,262.6810025654188 1691.8195826965157,286.8574653632962 C 1667.6431198986381,262.6810025654188 1673.6872355981077,241.526597617276 1691.8195826965157,226.4163083686026 Z" fill="url(#leaf18)" opacity="0.18" transform="rotate(253.3 1691.8 256.6)"/>
    <path d="M 850.3095976523907,664.839892571533 C 895.3762000284572,702.3953945515885 910.3984008204794,754.9730973236661 850.3095976523907,815.0619004917548 C 790.220794484302,754.9730973236661 805.2429952763242,702.3953945515885 850.3095976523907,664.839892571533 Z" fill="url(#leaf19)" opacity="0.17" transform="rotate(98.9 850.3 740.0)"/>
    <path d="M 357.3571024474379,603.9186277917007 C 390.0546883372657,631.1666160332239 400.95388363387497,669.3137995713563 357.3571024474379,712.9105807577934 C 313.76032126100085,669.3137995713563 324.6595165576101,631.1666160332239 357.3571024474379,603.9186277917007 Z" fill="url(#leaf20)" opacity="0.19" transform="rotate(205.7 357.4 658.4)"/>
    <path d="M 429.45069822668756,971.3437614857409 C 464.6109911043724,1000.6440055504781 476.3310887302673,1041.6643472411106 429.45069822668756,1088.5447377446903 C 382.5703077231078,1041.6643472411106 394.29040534900275,1000.6440055504781 429.45069822668756,971.3437614857409 Z" fill="url(#leaf21)" opacity="0.17" transform="rotate(51.5 429.5 1029.9)"/>
    <path d="M 1642.692579216867,734.9288933179204 C 1687.3563933318067,772.1487384137035 1702.2443313701199,824.2565215477998 1642.692579216867,883.8082737010528 C 1583.140827063614,824.2565215477998 1598.0287651019273,772.1487384137035 1642.692579216867,734.9288933179204 Z" fill="url(#leaf22)" opacity="0.16" transform="rotate(191.0 1642.7 809.4)"/>
    <path d="M 215.65645306484188,384.29975565871854 C 247.40025167263093,410.75292116520944 257.98151787522727,447.78735287429663 215.65645306484188,490.11241768468204 C 173.3313882544565,447.78735287429663 183.91265445705284,410.75292116520944 215.65645306484188,384.29975565871854 Z" fill="url(#leaf23)" opacity="0.23" transform="rotate(279.2 215.7 437.2)"/>
    <path d="M 1700.2821350315928,435.78970326587074 C 1733.5386182057082,463.50343924430024 1744.62411259708,502.30266961410155 1700.2821350315928,546.6446471795887 C 1655.9401574661056,502.30266961410155 1667.0256518574774,463.50343924430024 1700.2821350315928,435.78970326587074 Z" fill="url(#leaf24)" opacity="0.23" transform="rotate(236.3 1700.3 491.2)"/>
    <path d="M 1575.740446810146,358.88652607069577 C 1622.3936061914883,397.76415888848095 1637.9446593186024,452.1928448333802 1575.740446810146,514.3970573418364 C 1513.5362343016898,452.1928448333802 1529.0872874288038,397.76415888848095 1575.740446810146,358.88652607069577 Z" fill="url(#leaf25)" opacity="0.20" transform="rotate(217.9 1575.7 436.6)"/>
    <path d="M 94.05886110413974,431.6786802930858 C 134.00691843942883,464.9687280724933 147.32293755119184,511.5747949636639 94.05886110413974,564.838871410716 C 40.79478465708762,511.5747949636639 54.11080376885065,464.9687280724933 94.05886110413974,431.6786802930858 Z" fill="url(#leaf26)" opacity="0.25" transform="rotate(268.1 94.1 498.3)"/>
    <path d="M 864.9432766094361,212.11651735618952 C 897.1013106077046,238.91487902141324 907.820655273794,276.4325853527264 864.9432766094361,319.3099640170843 C 822.0658979450782,276.4325853527264 832.7852426111676,238.91487902141324 864.9432766094361,212.11651735618952 Z" fill="url(#leaf27)" opacity="0.24" transform="rotate(30.7 864.9 265.7)"/>
    <path d="M 690.3049937992009,460.46093333009253 C 716.3677882807526,482.17992873138564 725.0553864412699,512.5865222931959 690.3049937992009,547.3369149352649 C 655.554601157132,512.5865222931959 664.2421993176492,482.17992873138564 690.3049937992009,460.46093333009253 Z" fill="url(#leaf28)" opacity="0.21" transform="rotate(331.1 690.3 503.9)"/>
    <path d="M 1684.7073597378273,338.9070676341906 C 1722.5090839712022,370.4085044953363 1735.1096587156605,414.51051610094027 1684.7073597378273,464.91281507877335 C 1634.3050607599941,414.51051610094027 1646.9056355044524,370.4085044953363 1684.7073597378273,338.9070676341906 Z" fill="url(#leaf29)" opacity="0.22" transform="rotate(16.4 1684.7 401.9)"/>
    <path d="M 846.7081230399966,236.80814945397162 C 873.4962473921702,259.13158641411627 882.4256221762281,290.3843981583188 846.7081230399966,326.1018972945502 C 810.9906239037651,290.3843981583188 819.9199986878231,259.13158641411627 846.7081230399966,236.80814945397162 Z" fill="url(#leaf0)" opacity="0.17" transform="rotate(197.5 846.7 281.5)"/>
    <path d="M 185.12953301191362,738.7468138885122 C 222.6371671353668,770.0031756580564 235.13971184318453,813.7620821354185 185.12953301191362,863.7722609666894 C 135.11935418064272,813.7620821354185 147.62189888846044,770.0031756580564 185.12953301191362,738.7468138885122 Z" fill="url(#leaf1)" opacity="0.25" transform="rotate(264.1 185.1 801.3)"/>
    <path d="M 813.6442599675911,124.07737231065931 C 857.2222645642352,160.39237614119605 871.7482660964499,211.23338150394753 813.6442599675911,269.3373876328063 C 755.5402538387323,211.23338150394753 770.066255370947,160.39237614119605 813.6442599675911,124.07737231065931 Z" fill="url(#leaf2)" opacity="0.24" transform="rotate(159.7 813.6 196.7)"/>
    <path d="M 1149.839281113444,890.6408533366788 C 1168.3315851458408,906.0511066970095 1174.4956864899732,927.6254614014724 1149.839281113444,952.2818667780015 C 1125.1828757369149,927.6254614014724 1131.3469770810473,906.0511066970095 1149.839281113444,890.6408533366788 Z" fill="url(#leaf3)" opacity="0.21" transform="rotate(270.5 1149.8 921.5)"/>
    <path d="M 693.4140288521755,581.800503626526 C 739.3839611440869,620.1087805364523 754.7072719080574,673.7403682103488 693.4140288521755,735.0336112662308 C 632.1207857962937,673.7403682103488 647.4440965602641,620.1087805364523 693.4140288521755,581.800503626526 Z" fill="url(#leaf4)" opacity="0.19" transform="rotate(34.2 693.4 658.4)"/>
    <path d="M 667.3590444893779,960.7602574550862 C 695.1193094815927,983.8938116152651 704.3727311456644,1016.2807874395158 667.3590444893779,1053.2944740958023 C 630.3453578330914,1016.2807874395158 639.598779497163,983.8938116152651 667.3590444893779,960.7602574550862 Z" fill="url(#leaf5)" opacity="0.19" transform="rotate(326.0 667.4 1007.0)"/>
    <path d="M 1589.7394641859416,427.0323689910638 C 1618.3797510752352,450.89927473214175 1627.9265133716665,484.31294276965093 1589.7394641859416,522.4999919553757 C 1551.5524150002168,484.31294276965093 1561.0991772966481,450.89927473214175 1589.7394641859416,427.0323689910638 Z" fill="url(#leaf6)" opacity="0.20" transform="rotate(259.0 1589.7 474.8)"/>
    <path d="M 1246.0005055733263,346.77313014120637 C 1273.6949107754888,369.85180114300846 1282.9263791762096,402.16194054553137 1246.0005055733263,439.08781414841474 C 1209.074631970443,402.16194054553137 1218.306100371164,369.85180114300846 1246.0005055733263,346.77313014120637 Z" fill="url(#leaf7)" opacity="0.19" transform="rotate(301.3 1246.0 392.9)"/>
    <path d="M 1758.0218779134618,745.2231723179073 C 1805.2206393860395,784.5554735450553 1820.9535598768987,839.6206952630627 1758.0218779134618,902.5523772264996 C 1695.090195950025,839.6206952630627 1710.8231164408842,784.5554735450553 1758.0218779134618,745.2231723179073 Z" fill="url(#leaf8)" opacity="0.25" transform="rotate(54.9 1758.0 823.9)"/>
    <path d="M 1242.174525232362,805.2892137861213 C 1281.2466252306756,837.8492971180493 1294.2706585634467,883.4334137827485 1242.174525232362,935.5295471138334 C 1190.0783919012772,883.4334137827485 1203.1024252340483,837.8492971180493 1242.174525232362,805.2892137861213 Z" fill="url(#leaf9)" opacity="0.17" transform="rotate(184.9 1242.2 870.4)"/>
    <path d="M 945.954659142433,706.5334427383673 C 972.4868448338523,728.6435974812167 981.330906730992,759.5978141212058 945.954659142433,794.9740617097648 C 910.578411553874,759.5978141212058 919.4224734510137,728.6435974812167 945.954659142433,706.5334427383673 Z" fill="url(#leaf10)" opacity="0.19" transform="rotate(40.4 946.0 750.8)"/>
    <path d="M 572.4281231309934,567.4600775961849 C 610.3934610436197,599.0978591900401 623.0485736811618,643.3907534214375 572.4281231309934,694.0112039716059 C 521.807672580825,643.3907534214375 534.4627852183671,599.0978591900401 572.4281231309934,567.4600775961849 Z" fill="url(#leaf11)" opacity="0.23" transform="rotate(12.6 572.4 630.7)"/>
    <path d="M 469.0768614711955,604.3853297361682 C 504.2677309361659,633.7110542903101 515.9980207578227,674.7670686661089 469.0768614711955,721.688227952736 C 422.1557021845683,674.7670686661089 433.88599200622514,633.7110542903101 469.0768614711955,604.3853297361682 Z" fill="url(#leaf12)" opacity="0.21" transform="rotate(159.1 469.1 663.0)"/>
    <path d="M 1566.2183908125878,597.6302152576699 C 1590.9155757920787,618.2112027405789 1599.1479707852423,647.0245852166516 1566.2183908125878,679.9541651893061 C 1533.2888108399334,647.0245852166516 1541.521205833097,618.2112027405789 1566.2183908125878,597.6302152576699 Z" fill="url(#leaf13)" opacity="0.23" transform="rotate(16.2 1566.2 638.8)"/>
    <path d="M 1096.7455843918794,10.667631337565048 C 1133.2391223896498,41.07891300237365 1145.4036350555732,83.65470733310569 1096.7455843918794,132.31275799679946 C 1048.0875337281857,83.65470733310569 1060.2520463941091,41.07891300237365 1096.7455843918794,10.667631337565048 Z" fill="url(#leaf14)" opacity="0.15" transform="rotate(226.6 1096.7 71.5)"/>
    <path d="M 382.3609952003367,477.66417019881635 C 421.86703897032356,510.5858733404721 435.0357202269859,556.6762577387902 382.3609952003367,609.3509827654394 C 329.68627017368743,556.6762577387902 342.8549514303498,510.5858733404721 382.3609952003367,477.66417019881635 Z" fill="url(#leaf15)" opacity="0.17" transform="rotate(164.8 382.4 543.5)"/>
    <path d="M 1604.3779218672305,430.7152961148403 C 1642.2842718919594,462.3039211354478 1654.9197219002024,506.52799616429826 1604.3779218672305,557.0697961972702 C 1553.8361218342586,506.52799616429826 1566.4715718425016,462.3039211354478 1604.3779218672305,430.7152961148403 Z" fill="url(#leaf16)" opacity="0.24" transform="rotate(315.8 1604.4 493.9)"/>
    <path d="M 1444.9177678066249,967.3285365427593 C 1480.72210257494,997.1654821830218 1492.656880831045,1038.9372060793896 1444.9177678066249,1086.6763191038099 C 1397.1786547822046,1038.9372060793896 1409.1134330383097,997.1654821830218 1444.9177678066249,967.3285365427593 Z" fill="url(#leaf17)" opacity="0.18" transform="rotate(225.0 1444.9 1027.0)"/>
    <path d="M 1469.914414650428,967.8591068405917 C 1500.7368950723442,993.5445071921886 1511.0110552129827,1029.504067684424 1469.914414650428,1070.600708246979 C 1428.8177740878732,1029.504067684424 1439.0919342285117,993.5445071921886 1469.914414650428,967.8591068405917 Z" fill="url(#leaf18)" opacity="0.20" transform="rotate(348.3 1469.9 1019.2)"/>
    <path d="M 272.6161654119167,979.5637702236163 C 294.6196884976319,997.9000394617123 301.95419619287026,1023.5708163950466 272.6161654119167,1052.908847176 C 243.27813463096314,1023.5708163950466 250.61264232620155,997.9000394617123 272.6161654119167,979.5637702236163 Z" fill="url(#leaf19)" opacity="0.19" transform="rotate(149.5 272.6 1016.2)"/>
    <path d="M 1118.1849422256564,256.6148019935457 C 1153.473089014671,286.0215909843912 1165.2358046110091,327.19109557157486 1118.1849422256564,374.24195795692765 C 1071.1340798403037,327.19109557157486 1082.896795436642,286.0215909843912 1118.1849422256564,256.6148019935457 Z" fill="url(#leaf20)" opacity="0.25" transform="rotate(65.0 1118.2 315.4)"/>
    <path d="M 904.3230775824269,656.6606375091883 C 924.4307614980647,673.4170407722199 931.1333228032775,696.8760053404641 904.3230775824269,723.6862505613146 C 877.5128323615763,696.8760053404641 884.215393666789,673.4170407722199 904.3230775824269,656.6606375091883 Z" fill="url(#leaf21)" opacity="0.21" transform="rotate(148.2 904.3 690.2)"/>
    <path d="M 877.1359927528806,869.546140111755 C 911.3580975801738,898.064560801166 922.7654658559381,937.9903497663413 877.1359927528806,983.6198228693988 C 831.5065196498231,937.9903497663413 842.9138879255875,898.064560801166 877.1359927528806,869.546140111755 Z" fill="url(#leaf22)" opacity="0.21" transform="rotate(132.3 877.1 926.6)"/>
    <path d="M 897.117782792851,755.3440949136088 C 931.9552288132312,784.3752999305923 943.5677108200247,825.0189869543692 897.117782792851,871.4689149815429 C 850.6678547656774,825.0189869543692 862.2803367724708,784.3752999305923 897.117782792851,755.3440949136088 Z" fill="url(#leaf23)" opacity="0.16" transform="rotate(148.3 897.1 813.4)"/>
    <path d="M 282.9084034053774,539.782523262373 C 323.82714244878287,573.8814724652109 337.466722129918,621.620001349184 282.9084034053774,676.1783200737246 C 228.35008468083672,621.620001349184 241.9896643619719,573.8814724652109 282.9084034053774,539.782523262373 Z" fill="url(#leaf24)" opacity="0.17" transform="rotate(142.2 282.9 608.0)"/>
    <path d="M 950.7236031605095,793.0091532433406 C 979.238335881253,816.7714305106268 988.7432467881675,850.0386186848276 950.7236031605095,888.0582623124857 C 912.7039595328514,850.0386186848276 922.208870439766,816.7714305106268 950.7236031605095,793.0091532433406 Z" fill="url(#leaf25)" opacity="0.22" transform="rotate(58.0 950.7 840.5)"/>
    <path d="M 309.53124960820537,985.8788769789227 C 334.62300775819693,1006.788675437249 342.9869271415274,1036.0623932789058 309.53124960820537,1069.5180708122277 C 276.0755720748833,1036.0623932789058 284.4394914582138,1006.788675437249 309.53124960820537,985.8788769789227 Z" fill="url(#leaf26)" opacity="0.23" transform="rotate(120.7 309.5 1027.7)"/>
    <path d="M 397.5313493276522,914.947001738748 C 416.08690500301316,930.4099648015488 422.2720902281335,952.0581130894699 397.5313493276522,976.7988539899511 C 372.7906084271709,952.0581130894699 378.97579365229126,930.4099648015488 397.5313493276522,914.947001738748 Z" fill="url(#leaf27)" opacity="0.21" transform="rotate(309.4 397.5 945.9)"/>
    <path d="M 874.7565818959125,547.482808006015 C 894.4305734582792,563.877800974654 900.9885706457347,586.8307911307485 874.7565818959125,613.0627798805707 C 848.5245931460903,586.8307911307485 855.0825903335458,563.877800974654 874.7565818959125,547.482808006015 Z" fill="url(#leaf28)" opacity="0.19" transform="rotate(246.8 874.8 580.3)"/>
    <path d="M 1157.2600478846668,965.7287056295704 C 1192.7678277026062,995.3185221445199 1204.603754308586,1036.744265265449 1157.2600478846668,1084.0879716893683 C 1109.9163414607476,1036.744265265449 1121.7522680667275,995.3185221445199 1157.2600478846668,965.7287056295704 Z" fill="url(#leaf29)" opacity="0.23" transform="rotate(266.9 1157.3 1024.9)"/>
    <path d="M 98.26426021335398,359.39520484800175 C 138.65712982988035,393.0559295284404 152.1214197020558,440.1809440810545 98.26426021335398,494.03810356975634 C 44.40710072465215,440.1809440810545 57.87139059682761,393.0559295284404 98.26426021335398,359.39520484800175 Z" fill="url(#leaf0)" opacity="0.20" transform="rotate(357.4 98.3 426.7)"/>
    <path d="M 726.2547345931611,226.48475211434936 C 752.2044676107464,248.10952962900382 760.8543786166082,278.38421814952005 726.2547345931611,312.9838621729672 C 691.6550905697139,278.38421814952005 700.3050015755757,248.10952962900382 726.2547345931611,226.48475211434936 Z" fill="url(#leaf1)" opacity="0.20" transform="rotate(278.0 726.3 269.7)"/>
    <path d="M 498.9782335787423,384.7557189263858 C 534.4936074986294,414.3518638596251 546.3320654719251,455.7864667661601 498.9782335787423,503.14029865934305 C 451.6244016855594,455.7864667661601 463.4628596588551,414.3518638596251 498.9782335787423,384.7557189263858 Z" fill="url(#leaf2)" opacity="0.22" transform="rotate(222.7 499.0 443.9)"/>
    <path d="M 344.70841733875545,945.6529614740964 C 370.310895748291,966.9883601487094 378.84505521813617,996.8579182931676 344.70841733875545,1030.9945561725483 C 310.57177945937474,996.8579182931676 319.1059389292199,966.9883601487094 344.70841733875545,945.6529614740964 Z" fill="url(#leaf3)" opacity="0.21" transform="rotate(217.1 344.7 988.3)"/>
    <path d="M 1108.5570080330492,928.3329210192559 C 1155.9072820238437,967.7914826782513 1171.690706687442,1023.033469000845 1108.5570080330492,1086.1671676552378 C 1045.4233093786565,1023.033469000845 1061.2067340422548,967.7914826782513 1108.5570080330492,928.3329210192559 Z" fill="url(#leaf4)" opacity="0.17" transform="rotate(298.5 1108.6 1007.3)"/>
    <path d="M 627.8142580312999,128.68805661459854 C 665.291920859588,159.9194423048386 677.784475135684,203.64338227117472 627.8142580312999,253.61359937555883 C 577.8440409269158,203.64338227117472 590.3365952030118,159.9194423048386 627.8142580312999,128.68805661459854 Z" fill="url(#leaf5)" opacity="0.22" transform="rotate(140.5 627.8 191.2)"/>
    <path d="M 1088.2548094646804,826.3008095230047 C 1123.9566093943288,856.0523094643783 1135.8572093708783,897.7044093823014 1088.2548094646804,945.3068092884993 C 1040.6524095584825,897.7044093823014 1052.553009535032,856.0523094643783 1088.2548094646804,826.3008095230047 Z" fill="url(#leaf6)" opacity="0.23" transform="rotate(301.7 1088.3 885.8)"/>
    <path d="M 1589.0057559165957,479.14197506611123 C 1607.5486968761259,494.59442586571964 1613.729677195969,516.2278569851715 1589.0057559165957,540.9517782645449 C 1564.2818346372223,516.2278569851715 1570.4628149570656,494.59442586571964 1589.0057559165957,479.14197506611123 Z" fill="url(#leaf7)" opacity="0.25" transform="rotate(190.5 1589.0 510.0)"/>
    <path d="M 1722.2434237047548,349.2995606783477 C 1743.7698194872817,367.23822383045336 1750.9452847481239,392.35235224340124 1722.2434237047548,421.0542132867703 C 1693.5415626613858,392.35235224340124 1700.717027922228,367.23822383045336 1722.2434237047548,349.2995606783477 Z" fill="url(#leaf8)" opacity="0.18" transform="rotate(218.5 1722.2 385.2)"/>
    <path d="M 1464.6890226327203,689.8565550765778 C 1497.3358325137986,717.0622299774765 1508.218102474158,755.1501748387346 1464.6890226327203,798.6792546801724 C 1421.1599427912824,755.1501748387346 1432.042212751642,717.0622299774765 1464.6890226327203,689.8565550765778 Z" fill="url(#leaf9)" opacity="0.25" transform="rotate(108.3 1464.7 744.3)"/>
    <path d="M 1757.4298547512635,818.5487038510968 C 1800.9028657767474,854.7762130389999 1815.3938694519086,905.4947259020645 1757.4298547512635,963.4587406027096 C 1699.4658400506185,905.4947259020645 1713.9568437257797,854.7762130389999 1757.4298547512635,818.5487038510968 Z" fill="url(#leaf10)" opacity="0.25" transform="rotate(34.5 1757.4 891.0)"/>
    <path d="M 932.3012281991654,377.67419607788906 C 964.3456434814861,404.377875479823 975.0271152422597,441.76302664253046 932.3012281991654,484.48891368562477 C 889.5753411560711,441.76302664253046 900.2568129168446,404.377875479823 932.3012281991654,377.67419607788906 Z" fill="url(#leaf11)" opacity="0.23" transform="rotate(315.1 932.3 431.1)"/>
    <path d="M 566.6534947734345,499.0883870396383 C 601.4588975626688,528.0928893640001 613.0606984924135,568.6991926181067 566.6534947734345,615.1063963370857 C 520.2462910544556,568.6991926181067 531.8480919842003,528.0928893640001 566.6534947734345,499.0883870396383 Z" fill="url(#leaf12)" opacity="0.24" transform="rotate(12.3 566.7 557.1)"/>
    <path d="M 654.1921157447943,14.939403717697786 C 695.5867665675493,49.43494606999366 709.3849835084676,97.72870536320788 654.1921157447943,152.92157312688127 C 598.9992479811209,97.72870536320788 612.7974649220392,49.43494606999366 654.1921157447943,14.939403717697786 Z" fill="url(#leaf13)" opacity="0.17" transform="rotate(357.2 654.2 83.9)"/>
    <path d="M 210.2207642732498,764.9775108586128 C 230.52279203154336,781.8958673238575 237.2901346176412,805.5815663751999 210.2207642732498,832.6509367195914 C 183.15139392885843,805.5815663751999 189.91873651495627,781.8958673238575 210.2207642732498,764.9775108586128 Z" fill="url(#leaf14)" opacity="0.18" transform="rotate(213.2 210.2 798.8)"/>
    <path d="M 420.974765170095,655.1564173635148 C 448.2928865454638,677.9215185096555 457.39892700392,709.7926601142524 420.974765170095,746.2168219480774 C 384.55060333627,709.7926601142524 393.6566437947262,677.9215185096555 420.974765170095,655.1564173635148 Z" fill="url(#leaf15)" opacity="0.19" transform="rotate(327.7 421.0 700.7)"/>
    <path d="M 616.4206215978743,357.71228577908454 C 641.7561144988222,378.82519652987446 650.2012787991382,408.3832715809804 616.4206215978743,442.16392878224434 C 582.6399643966104,408.3832715809804 591.0851286969264,378.82519652987446 616.4206215978743,357.71228577908454 Z" fill="url(#leaf16)" opacity="0.16" transform="rotate(326.2 616.4 399.9)"/>
    <path d="M 1197.8156354848973,955.6643266292945 C 1224.7062238981352,978.0731503069927 1233.6697533692145,1009.4455034557702 1197.8156354848973,1045.2996213400875 C 1161.96151760058,1009.4455034557702 1170.9250470716593,978.0731503069927 1197.8156354848973,955.6643266292945 Z" fill="url(#leaf17)" opacity="0.21" transform="rotate(153.6 1197.8 1000.5)"/>
    <path d="M 672.5159218334671,410.34529773108727 C 715.3850460479129,446.0695679097921 729.6747541193948,496.0835461599788 672.5159218334671,553.2423784459065 C 615.3570895475394,496.0835461599788 629.6467976190214,446.0695679097921 672.5159218334671,410.34529773108727 Z" fill="url(#leaf18)" opacity="0.17" transform="rotate(110.4 672.5 481.8)"/>
    <path d="M 244.7864079368987,172.24841869845505 C 270.20122213211704,193.42743052780366 278.67282686385647,223.0780470888917 244.7864079368987,256.9644660158495 C 210.89998900994092,223.0780470888917 219.37159374168039,193.42743052780366 244.7864079368987,172.24841869845505 Z" fill="url(#leaf19)" opacity="0.18" transform="rotate(309.5 244.8 214.6)"/>
    <path d="M 1678.279349696198,77.40765841333925 C 1707.127055080104,101.44741289992737 1716.742956874739,135.10306918115077 1678.279349696198,173.56667635969177 C 1639.815742517657,135.10306918115077 1649.4316443122923,101.44741289992737 1678.279349696198,77.40765841333925 Z" fill="url(#leaf20)" opacity="0.16" transform="rotate(83.1 1678.3 125.5)"/>
    <path d="M 457.09754432503007,940.7837042620184 C 475.5972063019417,956.2000892427781 481.76376029424557,977.7830282158417 457.09754432503007,1002.4492441850572 C 432.43132835581457,977.7830282158417 438.59788234811845,956.2000892427781 457.09754432503007,940.7837042620184 Z" fill="url(#leaf21)" opacity="0.20" transform="rotate(47.4 457.1 971.6)"/>
    <path d="M 1142.5305188341217,540.5987228030859 C 1185.649289209116,576.5310314489146 1200.0222126674475,626.8362635530747 1142.5305188341217,684.3279573864005 C 1085.038825000796,626.8362635530747 1099.4117484591275,576.5310314489146 1142.5305188341217,540.5987228030859 Z" fill="url(#leaf22)" opacity="0.22" transform="rotate(105.6 1142.5 612.5)"/>
    <path d="M 1269.394526679881,137.24373445146034 C 1313.7906725399666,174.2405226681984 1328.5893878266618,226.03602617163168 1269.394526679881,285.23088731841256 C 1210.1996655331002,226.03602617163168 1224.9983808197953,174.2405226681984 1269.394526679881,137.24373445146034 Z" fill="url(#leaf23)" opacity="0.21" transform="rotate(284.1 1269.4 211.2)"/>
    <path d="M 172.58887109742426,291.1643506000253 C 206.91569045519094,319.7700333981642 218.3579635744465,359.81798931555863 172.58887109742426,405.5870817925809 C 126.81977862040203,359.81798931555863 138.26205173965758,319.7700333981642 172.58887109742426,291.1643506000253 Z" fill="url(#leaf24)" opacity="0.25" transform="rotate(268.1 172.6 348.4)"/>
    <path d="M 1532.345507944087,351.4767160233544 C 1570.4703200122945,383.2473927468605 1583.178590701697,427.7263401597691 1532.345507944087,478.55942291737887 C 1481.5124251864772,427.7263401597691 1494.2206958758798,383.2473927468605 1532.345507944087,351.4767160233544 Z" fill="url(#leaf25)" opacity="0.16" transform="rotate(271.6 1532.3 415.0)"/>
    <path d="M 131.54543778703078,918.5232329884863 C 157.2300949561065,939.927113962716 165.79164734579842,969.8925473266377 131.54543778703078,1004.1387568854053 C 97.29922822826313,969.8925473266377 105.86078061795506,939.927113962716 131.54543778703078,918.5232329884863 Z" fill="url(#leaf26)" opacity="0.24" transform="rotate(74.3 131.5 961.3)"/>
    <path d="M 661.0308985785651,530.8235996696625 C 701.2359830538526,564.3278367324019 714.6376778789484,611.2337686202372 661.0308985785651,664.8405479206205 C 607.4241192781819,611.2337686202372 620.8258141032777,564.3278367324019 661.0308985785651,530.8235996696625 Z" fill="url(#leaf27)" opacity="0.20" transform="rotate(227.1 661.0 597.8)"/>
    <path d="M 662.5572000255894,691.3854104855333 C 683.3929282304812,708.7485173229431 690.3381709654451,733.0568668953168 662.5572000255894,760.8378378351725 C 634.7762290857337,733.0568668953168 641.7214718206976,708.7485173229431 662.5572000255894,691.3854104855333 Z" fill="url(#leaf28)" opacity="0.25" transform="rotate(17.0 662.6 726.1)"/>
    <path d="M 249.55527372414903,279.3829446056834 C 293.05214815127573,315.6303399616223 307.5511062936513,366.3766934599368 249.55527372414903,424.3725260294391 C 191.55944115464678,366.3766934599368 206.05839929702233,315.6303399616223 249.55527372414903,279.3829446056834 Z" fill="url(#leaf29)" opacity="0.19" transform="rotate(36.8 249.6 351.9)"/>
    <path d="M 1615.34443896325,312.75924482538824 C 1659.6389785128797,349.6713611167464 1674.4038250294232,401.34832392464784 1615.34443896325,460.4077099908209 C 1556.2850528970769,401.34832392464784 1571.0498994136203,349.6713611167464 1615.34443896325,312.75924482538824 Z" fill="url(#leaf0)" opacity="0.23" transform="rotate(315.2 1615.3 386.6)"/>
    <path d="M 322.4355257540134,241.60302058283617 C 352.6260435110985,266.7617853804071 362.6895494301269,301.98405609700643 322.4355257540134,342.2380797731199 C 282.1815020778999,301.98405609700643 292.2450079969283,266.7617853804071 322.4355257540134,241.60302058283617 Z" fill="url(#leaf1)" opacity="0.19" transform="rotate(73.1 322.4 291.9)"/>
    <path d="M 78.84519597719944,795.6984044880919 C 126.18352061577022,835.1470083535676 141.9629621619605,890.3750537652335 78.84519597719944,953.4928199499946 C 15.727429792438379,890.3750537652335 31.50687133862865,835.1470083535676 78.84519597719944,795.6984044880919 Z" fill="url(#leaf2)" opacity="0.25" transform="rotate(64.8 78.8 874.6)"/>
    <path d="M 1581.0573903532402,458.5551313041733 C 1607.3561213605499,480.4707404769313 1616.122365029653,511.1525933187926 1581.0573903532402,546.2175679952054 C 1545.9924156768272,511.1525933187926 1554.7586593459305,480.4707404769313 1581.0573903532402,458.5551313041733 Z" fill="url(#leaf3)" opacity="0.24" transform="rotate(207.6 1581.1 502.4)"/>
    <path d="M 1030.9158900125976,200.2144675472312 C 1077.60103449824,239.11875461859987 1093.1627493267874,293.584756518516 1030.9158900125976,355.83161583270584 C 968.6690306984078,293.584756518516 984.2307455269553,239.11875461859987 1030.9158900125976,200.2144675472312 Z" fill="url(#leaf4)" opacity="0.23" transform="rotate(32.6 1030.9 278.0)"/>
    <path d="M 730.5876758209891,570.1683647349676 C 767.9969366255144,601.3427487387386 780.4666902270228,644.986886344018 730.5876758209891,694.8659007500517 C 680.7086614149555,644.986886344018 693.1784150164639,601.3427487387386 730.5876758209891,570.1683647349676 Z" fill="url(#leaf5)" opacity="0.25" transform="rotate(294.8 730.6 632.5)"/>
    <path d="M 625.0389711644088,208.5301706195186 C 652.0793311165094,231.06380391293575 661.0927844338763,262.6108905237197 625.0389711644088,298.66470379318713 C 588.9851578949414,262.6108905237197 597.9986112123083,231.06380391293575 625.0389711644088,208.5301706195186 Z" fill="url(#leaf6)" opacity="0.25" transform="rotate(330.1 625.0 253.6)"/>
    <path d="M 1202.3826096761877,1.795037356991429 C 1234.0144655806425,28.154917277370384 1244.558417548794,65.05874916590092 1202.3826096761877,107.23455703850725 C 1160.2068018035814,65.05874916590092 1170.750753771733,28.154917277370384 1202.3826096761877,1.795037356991429 Z" fill="url(#leaf7)" opacity="0.23" transform="rotate(181.3 1202.4 54.5)"/>
    <path d="M 260.91432373169164,436.4518481852537 C 279.55035247234474,451.98187213579797 285.7623620525624,473.72390566655986 260.91432373169164,498.57194398743064 C 236.06628541082085,473.72390566655986 242.27829499103856,451.98187213579797 260.91432373169164,436.4518481852537 Z" fill="url(#leaf8)" opacity="0.23" transform="rotate(66.8 260.9 467.5)"/>
    <path d="M 1129.8734683461194,347.25297901246796 C 1148.849943138522,363.0667080061367 1155.1754347359893,385.2059285972729 1129.8734683461194,410.50789498714283 C 1104.5715019562494,385.2059285972729 1110.8969935537168,363.0667080061367 1129.8734683461194,347.25297901246796 Z" fill="url(#leaf9)" opacity="0.22" transform="rotate(122.1 1129.9 378.9)"/>
    <path d="M 554.2009129480298,187.11871120608632 C 582.770579894564,210.9267669948648 592.2938022100753,244.25804509915469 554.2009129480298,282.35093436120025 C 516.1080236859842,244.25804509915469 525.6312460014956,210.9267669948648 554.2009129480298,187.11871120608632 Z" fill="url(#leaf10)" opacity="0.16" transform="rotate(135.3 554.2 234.7)"/>
    <path d="M 850.731588255092,678.4753028647773 C 882.4533497006937,704.9101040694454 893.0272701825609,741.9188257559807 850.731588255092,784.2145076834496 C 808.4359063276231,741.9188257559807 819.0098268094903,704.9101040694454 850.731588255092,678.4753028647773 Z" fill="url(#leaf11)" opacity="0.21" transform="rotate(348.7 850.7 731.3)"/>
    <path d="M 897.0861276717252,774.9484422272437 C 916.3172146614116,790.9743480519824 922.7275769913072,813.4106162066166 897.0861276717252,839.0520655261985 C 871.4446783521432,813.4106162066166 877.8550406820387,790.9743480519824 897.0861276717252,774.9484422272437 Z" fill="url(#leaf12)" opacity="0.18" transform="rotate(153.4 897.1 807.0)"/>
    <path d="M 1536.6377652852932,635.7450890464982 C 1572.7329287393488,665.8243919248779 1584.7646498907009,707.9354159546095 1536.6377652852932,756.0623005600171 C 1488.5108806798855,707.9354159546095 1500.5426018312376,665.8243919248779 1536.6377652852932,635.7450890464982 Z" fill="url(#leaf13)" opacity="0.23" transform="rotate(16.4 1536.6 695.9)"/>
    <path d="M 671.7561774512367,170.54336474109368 C 697.8275329725387,192.2694943421787 706.5179848129727,222.6860757836977 671.7561774512367,257.4478831454337 C 636.9943700895006,222.6860757836977 645.6848219299346,192.2694943421787 671.7561774512367,170.54336474109368 Z" fill="url(#leaf14)" opacity="0.23" transform="rotate(5.5 671.8 214.0)"/>
    <path d="M 773.6101554289428,403.1890867627625 C 806.2432447967428,430.3833279025958 817.1209412526762,468.4552654983625 773.6101554289428,511.96605132209584 C 730.0993696052094,468.4552654983625 740.9770660611428,430.3833279025958 773.6101554289428,403.1890867627625 Z" fill="url(#leaf15)" opacity="0.16" transform="rotate(331.5 773.6 457.6)"/>
    <path d="M 969.8827872023126,481.73010273253294 C 989.7820357098218,498.312809822124 996.4151185456583,521.5285997475514 969.8827872023126,548.0609310908972 C 943.3504558589668,521.5285997475514 949.9835386948033,498.312809822124 969.8827872023126,481.73010273253294 Z" fill="url(#leaf16)" opacity="0.15" transform="rotate(338.2 969.9 514.9)"/>
    <path d="M 822.9488459906247,84.76306189847227 C 868.5711532125933,122.7816512501128 883.7785889532496,176.00767634240955 822.9488459906247,236.8374193050344 C 762.1191030279998,176.00767634240955 777.3265387686561,122.7816512501128 822.9488459906247,84.76306189847227 Z" fill="url(#leaf17)" opacity="0.18" transform="rotate(47.9 822.9 160.8)"/>
    <path d="M 302.66119539774127,791.3410390540492 C 338.05306257019333,820.8342616977593 349.85035162767736,862.1247733989534 302.66119539774127,909.3139296288895 C 255.47203916780515,862.1247733989534 267.2693282252892,820.8342616977593 302.66119539774127,791.3410390540492 Z" fill="url(#leaf18)" opacity="0.20" transform="rotate(178.1 302.7 850.3)"/>
    <path d="M 789.2108485871508,63.4115639407554 C 829.1819367669432,96.72080409058233 842.5056328268739,143.35374030034004 789.2108485871508,196.64852454006314 C 735.9160643474278,143.35374030034004 749.2397604073585,96.72080409058233 789.2108485871508,63.4115639407554 Z" fill="url(#leaf19)" opacity="0.15" transform="rotate(163.5 789.2 130.0)"/>
    <path d="M 176.20220227022332,-25.078787041861304 C 223.51773667371424,14.350824961047806 239.2895814748779,69.55228176512057 176.20220227022332,132.63966096977515 C 113.11482306556874,69.55228176512057 128.8866678667324,14.350824961047806 176.20220227022332,-25.078787041861304 Z" fill="url(#leaf20)" opacity="0.20" transform="rotate(144.6 176.2 53.8)"/>
    <path d="M 274.2746281158534,829.0986867172131 C 311.32378150335813,859.9729812068003 323.67349929919305,903.1969934922225 274.2746281158534,952.5958646755622 C 224.8757569325137,903.1969934922225 237.22547472834862,859.9729812068003 274.2746281158534,829.0986867172131 Z" fill="url(#leaf21)" opacity="0.17" transform="rotate(83.8 274.3 890.8)"/>
    <path d="M 692.7922127556011,868.6057825733336 C 735.4232379896025,904.1316369350016 749.6335797342697,953.8678330413366 692.7922127556011,1010.7092000200051 C 635.9508457769325,953.8678330413366 650.1611875215997,904.1316369350016 692.7922127556011,868.6057825733336 Z" fill="url(#leaf22)" opacity="0.17" transform="rotate(86.0 692.8 939.7)"/>
    <path d="M 946.7558587078001,260.1210871403946 C 980.9706644140786,288.63342522895994 992.3755996495048,328.5506985529515 946.7558587078001,374.1704394946561 C 901.1361177660955,328.5506985529515 912.5410530015217,288.63342522895994 946.7558587078001,260.1210871403946 Z" fill="url(#leaf23)" opacity="0.16" transform="rotate(44.9 946.8 317.1)"/>
    <path d="M 811.7735183622698,106.81180679157693 C 830.3820584452665,122.31892352740746 836.5849051395986,144.02888695757022 811.7735183622698,168.8402737348991 C 786.962131584941,144.02888695757022 793.1649782792731,122.31892352740746 811.7735183622698,106.81180679157693 Z" fill="url(#leaf24)" opacity="0.20" transform="rotate(64.9 811.8 137.8)"/>
    <path d="M 1132.247789484001,37.64536146647449 C 1155.6753871135547,57.168359491102564 1163.484586323406,84.50055672558187 1132.247789484001,115.73735356498679 C 1101.0109926445962,84.50055672558187 1108.8201918544473,57.168359491102564 1132.247789484001,37.64536146647449 Z" fill="url(#leaf25)" opacity="0.23" transform="rotate(351.3 1132.2 76.7)"/>
    <path d="M 411.9527674020625,233.8602820491683 C 453.9519768983299,268.8596232960578 467.9517133970857,317.8587010417031 411.9527674020625,373.85764703672635 C 355.95382140703924,317.8587010417031 369.95355790579504,268.8596232960578 411.9527674020625,233.8602820491683 Z" fill="url(#leaf26)" opacity="0.23" transform="rotate(265.5 412.0 303.9)"/>
    <path d="M 940.2688927848445,243.12905251761393 C 971.8248764322591,269.4257055571261 982.3435376480641,306.24101981244314 940.2688927848445,348.3156646756627 C 898.194247921625,306.24101981244314 908.71290913743,269.4257055571261 940.2688927848445,243.12905251761393 Z" fill="url(#leaf27)" opacity="0.18" transform="rotate(327.5 940.3 295.7)"/>
    <path d="M 634.0437689804507,545.6282144376149 C 677.3521308958518,581.7185160337824 691.7882515343189,632.2449382684171 634.0437689804507,689.9894208222851 C 576.2992864265826,632.2449382684171 590.7354070650497,581.7185160337824 634.0437689804507,545.6282144376149 Z" fill="url(#leaf28)" opacity="0.21" transform="rotate(177.8 634.0 617.8)"/>
    <path d="M 1186.3947374378154,549.9407766516913 C 1219.144045788909,577.2318669442693 1230.0604819059402,615.4393933538786 1186.3947374378154,659.1051378220034 C 1142.7289929696906,615.4393933538786 1153.6454290867218,577.2318669442693 1186.3947374378154,549.9407766516913 Z" fill="url(#leaf29)" opacity="0.15" transform="rotate(243.7 1186.4 604.5)"/>
    <path d="M 1186.6462428871598,166.81481029125763 C 1220.3542318025561,194.90480105408795 1231.5902281076883,234.2307881220504 1186.6462428871598,279.17477334257893 C 1141.7022576666313,234.2307881220504 1152.9382539717635,194.90480105408795 1186.6462428871598,166.81481029125763 Z" fill="url(#leaf0)" opacity="0.25" transform="rotate(285.0 1186.6 223.0)"/>
    <path d="M 259.65339991243275,627.8801286008589 C 287.23824355595247,650.867498303792 296.43319143712574,683.0498158878984 259.65339991243275,719.8296074125914 C 222.87360838773975,683.0498158878984 232.06855626891303,650.867498303792 259.65339991243275,627.8801286008589 Z" fill="url(#leaf1)" opacity="0.24" transform="rotate(183.2 259.7 673.9)"/>
    <path d="M 276.4831192822732,991.0078316315016 C 296.1595812621846,1007.4048832814277 302.71840192215507,1030.3607555913243 276.4831192822732,1056.5960382312062 C 250.24783664239138,1030.3607555913243 256.8066573023618,1007.4048832814277 276.4831192822732,991.0078316315016 Z" fill="url(#leaf2)" opacity="0.16" transform="rotate(332.7 276.5 1023.8)"/>
    <path d="M 1571.6576146625525,898.4049372812262 C 1595.5650087799745,918.3277657124113 1603.5341401524486,946.2197255160704 1571.6576146625525,978.0962510059665 C 1539.7810891726565,946.2197255160704 1547.7502205451306,918.3277657124113 1571.6576146625525,898.4049372812262 Z" fill="url(#leaf3)" opacity="0.20" transform="rotate(145.4 1571.7 938.3)"/>
    <path d="M 1707.1009327661948,644.2140890475875 C 1737.7583538816216,669.7619399771098 1747.9774942534305,705.528931278441 1707.1009327661948,746.4054927656766 C 1666.224371278959,705.528931278441 1676.443511650768,669.7619399771098 1707.1009327661948,644.2140890475875 Z" fill="url(#leaf4)" opacity="0.19" transform="rotate(92.2 1707.1 695.3)"/>
    <path d="M 1213.6111071040639,239.10949791994057 C 1237.5251036672553,259.0378283892667 1245.4964358549855,286.93749104632315 1213.6111071040639,318.8228197972449 C 1181.7257783531422,286.93749104632315 1189.6971105408725,259.0378283892667 1213.6111071040639,239.10949791994057 Z" fill="url(#leaf5)" opacity="0.24" transform="rotate(309.9 1213.6 279.0)"/>
    <path d="M 1670.9466574018018,748.6233366845051 C 1705.3511709976394,777.2937646810365 1716.819342196252,817.4323638761805 1670.9466574018018,863.3050486706306 C 1625.0739726073516,817.4323638761805 1636.542143805964,777.2937646810365 1670.9466574018018,748.6233366845051 Z" fill="url(#leaf6)" opacity="0.24" transform="rotate(134.1 1670.9 806.0)"/>
    <path d="M 859.9091322698049,314.6315916888474 C 892.3666256897377,341.6795028721247 903.1857901630485,379.5465785287129 859.9091322698049,422.8232364219566 C 816.6324743765613,379.5465785287129 827.4516388498721,341.6795028721247 859.9091322698049,314.6315916888474 Z" fill="url(#leaf7)" opacity="0.16" transform="rotate(120.7 859.9 368.7)"/>
    <path d="M 1842.735485974486,215.99127446026085 C 1861.9399398576704,231.9949860295813 1868.3414244853986,254.4001822266299 1842.735485974486,280.00612073754263 C 1817.1295474635733,254.4001822266299 1823.5310320913015,231.9949860295813 1842.735485974486,215.99127446026085 Z" fill="url(#leaf8)" opacity="0.22" transform="rotate(334.3 1842.7 248.0)"/>
    <path d="M 673.3769679818474,79.95884185771034 C 695.5277560227435,98.41783189179041 702.9113520363755,124.26041793950252 673.3769679818474,153.79480199403065 C 643.8425839273193,124.26041793950252 651.2261799409514,98.41783189179041 673.3769679818474,79.95884185771034 Z" fill="url(#leaf9)" opacity="0.17" transform="rotate(186.1 673.4 116.9)"/>
    <path d="M 1764.9819415743225,768.6912912163657 C 1797.4654682922958,795.7608968146769 1808.2933105316204,833.6583446523125 1764.9819415743225,876.9697136096104 C 1721.6705726170246,833.6583446523125 1732.4984148563492,795.7608968146769 1764.9819415743225,768.6912912163657 Z" fill="url(#leaf10)" opacity="0.24" transform="rotate(295.9 1765.0 822.8)"/>
    <path d="M 1767.5219125720957,419.14197060641857 C 1804.0572710035847,449.58810263265934 1816.235723814081,492.21268746939637 1767.5219125720957,540.9264987113816 C 1718.8081013301105,492.21268746939637 1730.9865541406068,449.58810263265934 1767.5219125720957,419.14197060641857 Z" fill="url(#leaf11)" opacity="0.18" transform="rotate(66.7 1767.5 480.0)"/>
    <path d="M 1373.438487231499,768.901468020794 C 1418.6036067903678,806.5390676531847 1433.6586466433241,859.2317071385316 1373.438487231499,919.4518665503567 C 1313.218327819674,859.2317071385316 1328.2733676726302,806.5390676531847 1373.438487231499,768.901468020794 Z" fill="url(#leaf12)" opacity="0.22" transform="rotate(272.2 1373.4 844.2)"/>
    <path d="M 439.5231188983215,198.5190724143173 C 465.9978186289288,220.5813221898234 474.8227185391313,251.46847187553195 439.5231188983215,286.7680715163417 C 404.2235192575117,251.46847187553195 413.0484191677142,220.5813221898234 439.5231188983215,198.5190724143173 Z" fill="url(#leaf13)" opacity="0.19" transform="rotate(116.2 439.5 242.6)"/>
    <path d="M 1648.2777684348134,496.97166946613754 C 1678.2874055698453,521.9797004119973 1688.2906179481893,556.9909437362012 1648.2777684348134,597.0037932495769 C 1608.2649189214376,556.9909437362012 1618.2681312997815,521.9797004119973 1648.2777684348134,496.97166946613754 Z" fill="url(#leaf14)" opacity="0.22" transform="rotate(305.6 1648.3 547.0)"/>
    <path d="M 560.2905172053868,226.27949617147118 C 608.1841256406445,266.19083653418596 624.1486617857304,322.06671304198665 560.2905172053868,385.9248576223303 C 496.4323726250431,322.06671304198665 512.396908770129,266.19083653418596 560.2905172053868,226.27949617147118 Z" fill="url(#leaf15)" opacity="0.24" transform="rotate(185.4 560.3 306.1)"/>
    <path d="M 156.4943364922276,478.2088706042132 C 180.34736834800202,498.0863971506919 188.29837896659353,525.914934315762 156.4943364922276,557.718976790128 C 124.69029401786169,525.914934315762 132.64130463645319,498.0863971506919 156.4943364922276,478.2088706042132 Z" fill="url(#leaf16)" opacity="0.24" transform="rotate(213.2 156.5 518.0)"/>
    <path d="M 1526.2727578751346,948.1995251305514 C 1551.9425046670017,969.5909807904404 1560.4990869309572,999.5390187142852 1526.2727578751346,1033.7653477701078 C 1492.046428819312,999.5390187142852 1500.6030110832676,969.5909807904404 1526.2727578751346,948.1995251305514 Z" fill="url(#leaf17)" opacity="0.17" transform="rotate(347.0 1526.3 991.0)"/>
    <path d="M 1217.3160814108526,719.6841591260791 C 1252.9665225075707,749.3928600400109 1264.8500028731432,790.9850413195153 1217.3160814108526,838.5189627818061 C 1169.782159948562,790.9850413195153 1181.6656403141344,749.3928600400109 1217.3160814108526,719.6841591260791 Z" fill="url(#leaf18)" opacity="0.18" transform="rotate(56.2 1217.3 779.1)"/>
    <path d="M 1820.2044706699864,991.0300875063048 C 1842.9463107238398,1009.9816208845158 1850.5269240751243,1036.5137676140114 1820.2044706699864,1066.8362210191492 C 1789.8820172648486,1036.5137676140114 1797.462630616133,1009.9816208845158 1820.2044706699864,991.0300875063048 Z" fill="url(#leaf19)" opacity="0.17" transform="rotate(256.9 1820.2 1028.9)"/>
    <path d="M 1753.9694401393883,70.74671389447394 C 1800.992478469496,109.93257916956378 1816.666824579532,164.79279055468956 1753.9694401393883,227.4901749948333 C 1691.2720556992447,164.79279055468956 1706.9464018092806,109.93257916956378 1753.9694401393883,70.74671389447394 Z" fill="url(#leaf20)" opacity="0.23" transform="rotate(15.0 1754.0 149.1)"/>
    <path d="M 1020.26944050922,859.3727042427254 C 1062.854175706505,894.8599835737962 1077.0490874389332,944.5421746372951 1020.26944050922,1001.3218215670083 C 963.4897935795068,944.5421746372951 977.6847053119351,894.8599835737962 1020.26944050922,859.3727042427254 Z" fill="url(#leaf21)" opacity="0.20" transform="rotate(336.2 1020.3 930.3)"/>
    <path d="M 1757.4059773385022,550.7477866219832 C 1785.8355260991632,574.4390772558673 1795.3120423527168,607.6068841433053 1757.4059773385022,645.51294915752 C 1719.4999123242876,607.6068841433053 1728.9764285778413,574.4390772558673 1757.4059773385022,550.7477866219832 Z" fill="url(#leaf22)" opacity="0.19" transform="rotate(162.9 1757.4 598.1)"/>
    <path d="M 1240.6885326983058,222.76211153133016 C 1284.9018428891586,259.60653669037424 1299.6396129527764,311.1887319130359 1240.6885326983058,370.13981216750636 C 1181.7374524438353,311.1887319130359 1196.475222507453,259.60653669037424 1240.6885326983058,222.76211153133016 Z" fill="url(#leaf23)" opacity="0.19" transform="rotate(220.0 1240.7 296.5)"/>
    <path d="M 1559.217184450028,313.35006096039746 C 1588.3568493146986,337.6331150142896 1598.0700709362557,371.6293906897387 1559.217184450028,410.4822771759662 C 1520.3642979638005,371.6293906897387 1530.0775195853575,337.6331150142896 1559.217184450028,313.35006096039746 Z" fill="url(#leaf24)" opacity="0.18" transform="rotate(71.1 1559.2 361.9)"/>
    <path d="M 1090.4177640008165,596.7564510723034 C 1117.839304394047,619.6077347333288 1126.9798178584572,651.5995318587643 1090.4177640008165,688.1615857164049 C 1053.8557101431759,651.5995318587643 1062.996223607586,619.6077347333288 1090.4177640008165,596.7564510723034 Z" fill="url(#leaf25)" opacity="0.24" transform="rotate(159.9 1090.4 642.5)"/>
    <path d="M 158.46154751270768,765.4527923586228 C 180.2797949554194,783.6346652275492 187.55254410299,809.0892872440463 158.46154751270768,838.1802838343286 C 129.37055092242537,809.0892872440463 136.64330006999597,783.6346652275492 158.46154751270768,765.4527923586228 Z" fill="url(#leaf26)" opacity="0.19" transform="rotate(256.0 158.5 801.8)"/>
    <path d="M 471.1743811564614,85.66601833413773 C 503.97816780465104,113.00250720762911 514.9127633540476,151.27359163051705 471.1743811564614,195.01197382810324 C 427.4359989588752,151.27359163051705 438.3705945082717,113.00250720762911 471.1743811564614,85.66601833413773 Z" fill="url(#leaf27)" opacity="0.17" transform="rotate(324.3 471.2 140.3)"/>
    <path d="M 1323.6799208614152,528.0174669074299 C 1353.3649074941895,552.7549557680752 1363.2599030384476,587.3874401729786 1323.6799208614152,626.967422350011 C 1284.0999386843828,587.3874401729786 1293.994934228641,552.7549557680752 1323.6799208614152,528.0174669074299 Z" fill="url(#leaf28)" opacity="0.18" transform="rotate(53.9 1323.7 577.5)"/>
    <path d="M 903.319266568795,575.072583347807 C 933.6449153996977,600.3439573735592 943.7534650099985,635.7238810096122 903.319266568795,676.1580794508156 C 862.8850681275915,635.7238810096122 872.9936177378924,600.3439573735592 903.319266568795,575.072583347807 Z" fill="url(#leaf29)" opacity="0.18" transform="rotate(108.1 903.3 625.6)"/>
    <path d="M 169.63125396183733,774.792236604824 C 199.38783951347844,799.5893912311916 209.30670136402549,834.3054077081063 169.63125396183733,873.9808551102944 C 129.95580655964918,834.3054077081063 139.87466841019622,799.5893912311916 169.63125396183733,774.792236604824 Z" fill="url(#leaf0)" opacity="0.16" transform="rotate(267.1 169.6 824.4)"/>
    <path d="M 1770.3579399677574,842.1914687911624 C 1815.5263869843243,879.8318413049682 1830.5825359898467,932.5283628242963 1770.3579399677574,992.7529588463856 C 1710.133343945668,932.5283628242963 1725.1894929511905,879.8318413049682 1770.3579399677574,842.1914687911624 Z" fill="url(#leaf1)" opacity="0.23" transform="rotate(193.7 1770.4 917.5)"/>
    <path d="M 1187.8443770235103,935.9407420887976 C 1213.9193350937214,957.6698738139735 1222.6109877837916,988.0906582292197 1187.8443770235103,1022.8572689895011 C 1153.077766263229,988.0906582292197 1161.7694189532992,957.6698738139735 1187.8443770235103,935.9407420887976 Z" fill="url(#leaf2)" opacity="0.20" transform="rotate(56.9 1187.8 979.4)"/>
    <path d="M 1567.4549053436267,422.3534992989384 C 1600.7652308720817,450.1121039059842 1611.8686727149,488.97415035584834 1567.4549053436267,533.3879177271216 C 1523.0411379723535,488.97415035584834 1534.1445798151717,450.1121039059842 1567.4549053436267,422.3534992989384 Z" fill="url(#leaf3)" opacity="0.18" transform="rotate(202.9 1567.5 477.9)"/>
    <path d="M 348.52154771158763,235.27410066429505 C 393.1432930487467,272.458888445261 408.0172081611331,324.5175913386133 348.52154771158763,384.01325178815875 C 289.02588726204215,324.5175913386133 303.89980237442853,272.458888445261 348.52154771158763,235.27410066429505 Z" fill="url(#leaf4)" opacity="0.16" transform="rotate(136.3 348.5 309.6)"/>
    <path d="M 1560.8524260121706,214.89903339098987 C 1608.2722676015308,254.41556804878996 1624.0788814646507,309.7387165697101 1560.8524260121706,372.96517202219025 C 1497.6259705596904,309.7387165697101 1513.4325844228104,254.41556804878996 1560.8524260121706,214.89903339098987 Z" fill="url(#leaf5)" opacity="0.18" transform="rotate(43.6 1560.9 293.9)"/>
    <path d="M 462.8555160082057,762.6805062106599 C 492.4136185183554,787.3122583024514 502.26631935507197,821.7967112309594 462.8555160082057,861.2075145778257 C 423.44471266133945,821.7967112309594 433.297413498056,787.3122583024514 462.8555160082057,762.6805062106599 Z" fill="url(#leaf6)" opacity="0.17" transform="rotate(204.3 462.9 811.9)"/>
    </g>

    <!-- Text with SOLID fill only (ThorVG compatible) -->
    <text x="875.6" y="889.2"
          font-family="Arial, Helvetica, sans-serif"
          font-size="1080px"
          font-weight="bold"
          fill="#9370DB"
          text-anchor="middle"
          transform="rotate(-1.5 960.0 540.0)">
      6
    </text>
  </g>

  <!-- Frame counter -->
  <text x="960.0" y="1050.0"
        font-family="monospace"
        font-size="24px"
        fill="#FFFFFF"
        text-anchor="middle"
        opacity="0.7">
    Frame 00086 - Compatible
  </text>
</svg>