<?xml version="1.0" encoding="UTF-8"?>
<svg xmlns="http://www.w3.org/2000/svg" viewBox="0 0 1920 1080" width="1920" height="1080">
  <defs>
    <linearGradient id="bgGrad" x1="0%" y1="0%" x2="100%" y2="100%">
      <stop offset="0%" stop-color="#DC143C"/>
      <stop offset="100%" stop-color="#FFD700"/>
    </linearGradient>
    <clipPath id="complexClip"><polygon points="1568.1,540.0 1620.2,586.9 1547.4,624.8 1339.4,624.5 1334.6,655.8 1372.2,708.5 1442.3,794.8 1285.2,761.1 1172.7,728.5 1235.8,869.7 1117.7,813.0 1042.6,783.7 986.3,774.8 929.6,811.9 836.0,905.7 791.1,832.5 682.1,872.2 682.3,786.1 556.3,814.5 626.0,716.4 618.3,679.7 541.2,669.5 601.7,619.8 459.9,612.2 301.3,586.8 422.5,540.0 348.3,496.5 554.5,481.4 466.4,430.1 613.2,432.7 512.1,357.0 562.9,330.3 708.7,369.1 662.5,276.3 699.0,228.0 776.3,222.0 878.6,299.9 928.1,254.6 996.5,213.9 1075.7,198.7 1128.7,248.0 1212.7,237.9 1229.4,301.2 1233.6,353.9 1269.4,376.5 1424.3,350.3 1490.2,376.0 1521.6,414.9 1576.5,451.0 1362.8,511.4"/></clipPath>
    <radialGradient id="leaf0" cx="50%" cy="50%" r="70%">
      <stop offset="0%" stop-color="#FF6B6B"/>
      <stop offset="50%" stop-color="#00CED1"/>
      <stop offset="100%" stop-color="#9370DB"/>
    </radialGradient>
    <radialGradient id="leaf1" cx="50%" cy="50%" r="70%">
      <stop offset="0%" stop-color="#00FA9A"/>
      <stop offset="50%" stop-color="#FF6B6B"/>
      <stop offset="100%" stop-color="#96E6A1"/>
    </radialGradient>
    <radialGradient id="leaf2" cx="50%" cy="50%" r="70%">
      <stop offset="0%" stop-color="#32CD32"/>
      <stop offset="50%" stop-color="#FF1493"/>
      <stop offset="100%" stop-color="#7B68EE"/>
    </radialGradient>
    <radialGradient id="leaf3" cx="50%" cy="50%" r="70%">
      <stop offset="0%" stop-color="#32CD32"/>
      <stop offset="50%" stop-color="#FF4500"/>
      <stop offset="100%" stop-color="#96E6A1"/>
    </radialGradient>
    <radialGradient id="leaf4" cx="50%" cy="50%" r="70%">
      <stop offset="0%" stop-color="#FF69B4"/>
      <stop offset="50%" stop-color="#00FA9A"/>
      <stop offset="100%" stop-color="#FFD700"/>
    </radialGradient>
    <radialGradient id="leaf5" cx="50%" cy="50%" r="70%">
      <stop offset="0%" stop-color="#4ECDC4"/>
      <stop offset="50%" stop-color="#FF1493"/>
      <stop offset="100%" stop-color="#FFE66D"/>
    </radialGradient>
    <radialGradient id="leaf6" cx="50%" cy="50%" r="70%">
      <stop offset="0%" stop-color="#00FA9A"/>
      <stop offset="50%" stop-color="#45B7D1"/>
      <stop offset="100%" stop-color="#FF6B6B"/>
    </radialGradient>
    <radialGradient id="leaf7" cx="50%" cy="50%" r="70%">
      <stop offset="0%" stop-color="#96E6A1"/>
      <stop offset="50%" stop-color="#FFE66D"/>
      <stop offset="100%" stop-color="#00CED1"/>
    </radialGradient>
    <radialGradient id="leaf8" cx="50%" cy="50%" r="70%">
      <stop offset="0%" stop-color="#9370DB"/>
      <stop offset="50%" stop-color="#FF4500"/>
      <stop offset="100%" stop-color="#7B68EE"/>
    </radialGradient>
    <radialGradient id="leaf9" cx="50%" cy="50%" r="70%">
      <stop offset="0%" stop-color="#FFD700"/>
      <stop offset="50%" stop-color="#FFE66D"/>
      <stop offset="100%" stop-color="#FF69B4"/>
    </radialGradient>
    <radialGradient id="leaf10" cx="50%" cy="50%" r="70%">
      <stop offset="0%" stop-color="#7B68EE"/>
      <stop offset="50%" stop-color="#4ECDC4"/>
      <stop offset="100%" stop-color="#FF4500"/>
    </radialGradient>
    <radialGradient id="leaf11" cx="50%" cy="50%" r="70%">
      <stop offset="0%" stop-color="#FFD700"/>
      <stop offset="50%" stop-color="#DC143C"/>
      <stop offset="100%" stop-color="#FF1493"/>
    </radialGradient>
    <radialGradient id="leaf12" cx="50%" cy="50%" r="70%">
      <stop offset="0%" stop-color="#FF69B4"/>
      <stop offset="50%" stop-color="#FF4500"/>
      <stop offset="100%" stop-color="#FFD700"/>
    </radialGradient>
    <radialGradient id="leaf13" cx="50%" cy="50%" r="70%">
      <stop offset="0%" stop-color="#00CED1"/>
      <stop offset="50%" stop-color="#FF6B6B"/>
      <stop offset="100%" stop-color="#4ECDC4"/>
    </radialGradient>
    <radialGradient id="leaf14" cx="50%" cy="50%" r="70%">
      <stop offset="0%" stop-color="#9370DB"/>
      <stop offset="50%" stop-color="#FFE66D"/>
      <stop offset="100%" stop-color="#FF69B4"/>
    </radialGradient>
    <radialGradient id="leaf15" cx="50%" cy="50%" r="70%">
      <stop offset="0%" stop-color="#00FA9A"/>
      <stop offset="50%" stop-color="#FF4500"/>
      <stop offset="100%" stop-color="#9370DB"/>
    </radialGradient>
    <radialGradient id="leaf16" cx="50%" cy="50%" r="70%">
      <stop offset="0%" stop-color="#FFD700"/>
      <stop offset="50%" stop-color="#DC143C"/>
      <stop offset="100%" stop-color="#FF6B6B"/>
    </radialGradient>
    <radialGradient id="leaf17" cx="50%" cy="50%" r="70%">
      <stop offset="0%" stop-color="#4ECDC4"/>
      <stop offset="50%" stop-color="#FF4500"/>
      <stop offset="100%" stop-color="#00CED1"/>
    </radialGradient>
    <radialGradient id="leaf18" cx="50%" cy="50%" r="70%">
      <stop offset="0%" stop-color="#96E6A1"/>
      <stop offset="50%" stop-color="#FF1493"/>
      <stop offset="100%" stop-color="#00FA9A"/>
    </radialGradient>
    <radialGradient id="leaf19" cx="50%" cy="50%" r="70%">
      <stop offset="0%" stop-color="#FF1493"/>
      <stop offset="50%" stop-color="#4ECDC4"/>
      <stop offset="100%" stop-color="#00CED1"/>
    </radialGradient>
    <radialGradient id="leaf20" cx="50%" cy="50%" r="70%">
      <stop offset="0%" stop-color="#DC143C"/>
      <stop offset="50%" stop-color="#FF6B6B"/>
      <stop offset="100%" stop-color="#00CED1"/>
    </radialGradient>
    <radialGradient id="leaf21" cx="50%" cy="50%" r="70%">
      <stop offset="0%" stop-color="#4ECDC4"/>
      <stop offset="50%" stop-color="#FF69B4"/>
      <stop offset="100%" stop-color="#FF1493"/>
    </radialGradient>
    <radialGradient id="leaf22" cx="50%" cy="50%" r="70%">
      <stop offset="0%" stop-color="#32CD32"/>
      <stop offset="50%" stop-color="#00FA9A"/>
      <stop offset="100%" stop-color="#FF69B4"/>
    </radialGradient>
    <radialGradient id="leaf23" cx="50%" cy="50%" r="70%">
      <stop offset="0%" stop-color="#00FA9A"/>
      <stop offset="50%" stop-color="#45B7D1"/>
      <stop offset="100%" stop-color="#FF6B6B"/>
    </radialGradient>
    <radialGradient id="leaf24" cx="50%" cy="50%" r="70%">
      <stop offset="0%" stop-color="#FF6B6B"/>
      <stop offset="50%" stop-color="#32CD32"/>
      <stop offset="100%" stop-color="#FF69B4"/>
    </radialGradient>
    <radialGradient id="leaf25" cx="50%" cy="50%" r="70%">
      <stop offset="0%" stop-color="#FF69B4"/>
      <stop offset="50%" stop-color="#9370DB"/>
      <stop offset="100%" stop-color="#7B68EE"/>
    </radialGradient>
    <radialGradient id="leaf26" cx="50%" cy="50%" r="70%">
      <stop offset="0%" stop-color="#00CED1"/>
      <stop offset="50%" stop-color="#7B68EE"/>
      <stop offset="100%" stop-color="#FF4500"/>
    </radialGradient>
    <radialGradient id="leaf27" cx="50%" cy="50%" r="70%">
      <stop offset="0%" stop-color="#FF1493"/>
      <stop offset="50%" stop-color="#96E6A1"/>
      <stop offset="100%" stop-color="#FF6B6B"/>
    </radialGradient>
    <radialGradient id="leaf28" cx="50%" cy="50%" r="70%">
      <stop offset="0%" stop-color="#45B7D1"/>
      <stop offset="50%" stop-color="#4ECDC4"/>
      <stop offset="100%" stop-color="#DC143C"/>
    </radialGradient>
    <radialGradient id="leaf29" cx="50%" cy="50%" r="70%">
      <stop offset="0%" stop-color="#FF1493"/>
      <stop offset="50%" stop-color="#4ECDC4"/>
      <stop offset="100%" stop-color="#FF4500"/>
    </radialGradient>
  </defs>

  <!-- Scaled content -->
  <g transform="translate(960.0,540.0) scale(3.0) translate(-960.0,-540.0)">
    <!-- Background -->
    <rect width="1920" height="1080" fill="url(#bgGrad)"/>
    
    <!-- Leaves with clip-path -->
    <g clip-path="url(#complexClip)">
    <path d="M 644.5929398067059,25.46410761508841 C 678.6928313500209,53.88068390118424 690.0594618644592,93.6638907017184 644.5929398067059,139.13041275947174 C 599.1264177489526,93.6638907017184 610.4930482633908,53.88068390118424 644.5929398067059,25.46410761508841 Z" fill="url(#leaf0)" opacity="0.24" transform="rotate(269.7 644.6 82.3)"/>
    <path d="M 1127.5813845044215,786.8397273335908 C 1148.7896982726124,804.5133221404164 1155.8591361953427,829.2563548699724 1127.5813845044215,857.5341065608935 C 1099.3036328135004,829.2563548699724 1106.3730707362306,804.5133221404164 1127.5813845044215,786.8397273335908 Z" fill="url(#leaf1)" opacity="0.18" transform="rotate(270.7 1127.6 822.2)"/>
    <path d="M 1838.2490757688593,837.2941805483836 C 1870.3141695161994,864.0150920045004 1881.0025340986463,901.424368043064 1838.2490757688593,944.1778263728509 C 1795.4956174390722,901.424368043064 1806.1839820215191,864.0150920045004 1838.2490757688593,837.2941805483836 Z" fill="url(#leaf2)" opacity="0.21" transform="rotate(316.9 1838.2 890.7)"/>
    <path d="M 419.2855902400278,577.9715717375709 C 446.6230634136271,600.752799382237 455.7355544714936,632.6465180847696 419.2855902400278,669.0964823162353 C 382.835626008562,632.6465180847696 391.94811706642844,600.752799382237 419.2855902400278,577.9715717375709 Z" fill="url(#leaf3)" opacity="0.18" transform="rotate(253.1 419.3 623.5)"/>
    <path d="M 876.5164368074526,248.77974610062603 C 924.2182197074358,288.531231850612 940.1188140074302,344.1833119005924 876.5164368074526,407.78568910057 C 812.914059607475,344.1833119005924 828.8146539074694,288.531231850612 876.5164368074526,248.77974610062603 Z" fill="url(#leaf4)" opacity="0.23" transform="rotate(78.5 876.5 328.3)"/>
    <path d="M 612.5584549768313,323.23870089409326 C 650.2852353881332,354.6776845701782 662.8608288585672,398.69226171669703 612.5584549768313,448.9946355984329 C 562.2560810950954,398.69226171669703 574.8316745655294,354.6776845701782 612.5584549768313,323.23870089409326 Z" fill="url(#leaf5)" opacity="0.16" transform="rotate(199.5 612.6 386.1)"/>
    <path d="M 196.42431566463023,285.7118499219142 C 226.33305346490235,310.63579808880763 236.30263273165974,345.52932552245846 196.42431566463023,385.407642589488 C 156.54599859760071,345.52932552245846 166.5155778643581,310.63579808880763 196.42431566463023,285.7118499219142 Z" fill="url(#leaf6)" opacity="0.18" transform="rotate(49.5 196.4 335.6)"/>
    <path d="M 1379.936659203076,413.24490048662716 C 1413.3391990548218,441.08035036308206 1424.4733790054038,480.0499801901189 1379.936659203076,524.5866999924468 C 1335.3999394007483,480.0499801901189 1346.5341193513302,441.08035036308206 1379.936659203076,413.24490048662716 Z" fill="url(#leaf7)" opacity="0.24" transform="rotate(121.3 1379.9 468.9)"/>
    <path d="M 1263.7556358537904,677.9452788486426 C 1296.8605847644922,705.5327362742274 1307.8955677347262,744.1551766700462 1263.7556358537904,788.2951085509819 C 1219.6157039728546,744.1551766700462 1230.6506869430887,705.5327362742274 1263.7556358537904,677.9452788486426 Z" fill="url(#leaf8)" opacity="0.24" transform="rotate(145.2 1263.8 733.1)"/>
    <path d="M 1039.976488806582,341.9824020694391 C 1079.9957763918626,375.3318083905063 1093.3355389202893,422.0209772400003 1039.976488806582,475.38002735370776 C 986.6174386928745,422.0209772400003 999.9572012213014,375.3318083905063 1039.976488806582,341.9824020694391 Z" fill="url(#leaf9)" opacity="0.19" transform="rotate(248.1 1040.0 408.7)"/>
    <path d="M 1819.802144574864,200.94402154158843 C 1862.008986960509,236.1163901962925 1876.0779344223906,285.35770631287824 1819.802144574864,341.6334961604048 C 1763.5263547273375,285.35770631287824 1777.5953021892192,236.1163901962925 1819.802144574864,200.94402154158843 Z" fill="url(#leaf10)" opacity="0.19" transform="rotate(104.5 1819.8 271.3)"/>
    <path d="M 1521.6732650117733,789.5346151657793 C 1561.8840562949415,823.0436079017527 1575.287653389331,869.9561977321156 1521.6732650117733,923.5705861096731 C 1468.0588766342157,869.9561977321156 1481.4624737286051,823.0436079017527 1521.6732650117733,789.5346151657793 Z" fill="url(#leaf11)" opacity="0.20" transform="rotate(108.7 1521.7 856.6)"/>
    <path d="M 824.6507803421173,884.6553730134119 C 843.6623782969481,900.4983713091042 849.999577615225,922.6785689230734 824.6507803421173,948.027366196181 C 799.3019830690096,922.6785689230734 805.6391823872865,900.4983713091042 824.6507803421173,884.6553730134119 Z" fill="url(#leaf12)" opacity="0.15" transform="rotate(154.9 824.7 916.3)"/>
    <path d="M 613.3287447449104,888.07496669734 C 645.9823802141239,915.2863295883511 656.8669253705284,953.3822376357668 613.3287447449104,996.9204182613848 C 569.7905641192924,953.3822376357668 580.675109275697,915.2863295883511 613.3287447449104,888.07496669734 Z" fill="url(#leaf13)" opacity="0.24" transform="rotate(251.6 613.3 942.5)"/>
    <path d="M 1859.5745946810166,246.8364544782433 C 1901.2447974780105,281.56162347573826 1915.1348650770085,330.1768600722312 1859.5745946810166,385.73713046822314 C 1804.0143242850247,330.1768600722312 1817.9043918840227,281.56162347573826 1859.5745946810166,246.8364544782433 Z" fill="url(#leaf14)" opacity="0.24" transform="rotate(141.0 1859.6 316.3)"/>
    <path d="M 1089.1756987299232,685.7103650725242 C 1109.3457601205082,702.5187495646784 1116.0691139173698,726.0504878536942 1089.1756987299232,752.9439030411409 C 1062.2822835424765,726.0504878536942 1069.0056373393381,702.5187495646784 1089.1756987299232,685.7103650725242 Z" fill="url(#leaf15)" opacity="0.19" transform="rotate(191.4 1089.2 719.3)"/>
    <path d="M 1011.3886194949133,515.2519211150752 C 1042.9679474016689,541.5680277040383 1053.494390037254,578.4105769285866 1011.3886194949133,620.5163474709275 C 969.2828489525724,578.4105769285866 979.8092915881576,541.5680277040383 1011.3886194949133,515.2519211150752 Z" fill="url(#leaf16)" opacity="0.22" transform="rotate(356.9 1011.4 567.9)"/>
    <path d="M 1517.8253982065953,259.3631252663399 C 1554.8898580853051,290.2501751652648 1567.2446780448752,333.49204502375966 1517.8253982065953,382.91132486203946 C 1468.4061183683154,333.49204502375966 1480.7609383278855,290.2501751652648 1517.8253982065953,259.3631252663399 Z" fill="url(#leaf17)" opacity="0.23" transform="rotate(250.7 1517.8 321.1)"/>
    <path d="M 1010.6092306668357,686.9079393216475 C 1039.7766316948537,711.2141068449959 1049.499098704193,745.2427413776835 1010.6092306668357,784.1326094150409 C 971.7193626294785,745.2427413776835 981.4418296388178,711.2141068449959 1010.6092306668357,686.9079393216475 Z" fill="url(#leaf18)" opacity="0.17" transform="rotate(97.0 1010.6 735.5)"/>
    <path d="M 1689.7008737491483,630.8176092247866 C 1721.761749210884,657.5350054428998 1732.4487076981295,694.9393601482583 1689.7008737491483,737.6871940972394 C 1646.953039800167,694.9393601482583 1657.6399982874125,657.5350054428998 1689.7008737491483,630.8176092247866 Z" fill="url(#leaf19)" opacity="0.15" transform="rotate(68.3 1689.7 684.3)"/>
    <path d="M 403.12809614972036,173.22858820530735 C 439.24556341756005,203.32647759517377 451.28471917350663,245.46352274098672 403.12809614972036,293.620145764773 C 354.9714731259341,245.46352274098672 367.0106288818807,203.32647759517377 403.12809614972036,173.22858820530735 Z" fill="url(#leaf20)" opacity="0.19" transform="rotate(187.7 403.1 233.4)"/>
    <path d="M 1307.3705543221636,594.4882679755735 C 1354.3630967835657,633.648720026742 1370.027277604033,688.4733528983777 1307.3705543221636,751.1300761802472 C 1244.713831040294,688.4733528983777 1260.3780118607615,633.648720026742 1307.3705543221636,594.4882679755735 Z" fill="url(#leaf21)" opacity="0.23" transform="rotate(295.1 1307.4 672.8)"/>
    <path d="M 1575.5056024048042,441.2675183861099 C 1598.777881122432,460.6610839841332 1606.5353073616416,487.8120758213658 1575.5056024048042,518.841780778203 C 1544.4758974479669,487.8120758213658 1552.2333236871764,460.6610839841332 1575.5056024048042,441.2675183861099 Z" fill="url(#leaf22)" opacity="0.22" transform="rotate(337.5 1575.5 480.1)"/>
    <path d="M 480.6493815960985,260.7866335307026 C 510.233558985873,285.440114688848 520.0949514491311,319.9549883102515 480.6493815960985,359.40055816328413 C 441.2038117430659,319.9549883102515 451.06520420632404,285.440114688848 480.6493815960985,260.7866335307026 Z" fill="url(#leaf23)" opacity="0.17" transform="rotate(23.3 480.6 310.1)"/>
    <path d="M 900.0672559651933,390.57305476255027 C 932.7355459587052,417.79662975714353 943.6249759565426,455.9096347495741 900.0672559651933,499.4673547409233 C 856.5095359738441,455.9096347495741 867.3989659716815,417.79662975714353 900.0672559651933,390.57305476255027 Z" fill="url(#leaf24)" opacity="0.22" transform="rotate(232.9 900.1 445.0)"/>
    <path d="M 393.02040393925193,657.1135996264308 C 425.7161135154751,684.3600242732833 436.61468337421616,722.5050187788771 393.02040393925193,766.0992982138413 C 349.4261245042877,722.5050187788771 360.32469436302875,684.3600242732833 393.02040393925193,657.1135996264308 Z" fill="url(#leaf25)" opacity="0.23" transform="rotate(81.6 393.0 711.6)"/>
    <path d="M 1712.5189360803417,711.3206081340835 C 1740.6994255254242,734.804349338319 1750.0929220071184,767.6815870242484 1712.5189360803417,805.2555729510251 C 1674.944950153565,767.6815870242484 1684.3384466352593,734.804349338319 1712.5189360803417,711.3206081340835 Z" fill="url(#leaf26)" opacity="0.17" transform="rotate(264.7 1712.5 758.3)"/>
    <path d="M 189.44414769827006,676.1433416329571 C 210.0455685068795,693.3111923067983 216.912708776416,717.346183250176 189.44414769827006,744.8147443283219 C 161.97558662012412,717.346183250176 168.8427268896606,693.3111923067983 189.44414769827006,676.1433416329571 Z" fill="url(#leaf27)" opacity="0.19" transform="rotate(355.9 189.4 710.5)"/>
    <path d="M 1386.0554552203155,261.3829984808384 C 1410.8286591285014,282.0273350709932 1419.0863937645631,310.92940629721 1386.0554552203155,343.96034484145775 C 1353.0245166760678,310.92940629721 1361.2822513121296,282.0273350709932 1386.0554552203155,261.3829984808384 Z" fill="url(#leaf28)" opacity="0.24" transform="rotate(357.2 1386.1 302.7)"/>
    <path d="M 782.9243108227732,417.71111090442355 C 806.2873924516069,437.1803455951183 814.0750863278848,464.43727416209094 782.9243108227732,495.58804966720254 C 751.7735353176616,464.43727416209094 759.5612291939395,437.1803455951183 782.9243108227732,417.71111090442355 Z" fill="url(#leaf29)" opacity="0.24" transform="rotate(333.9 782.9 456.6)"/>
    <path d="M 682.2764220966661,516.4005843294486 C 724.7472398528103,551.7929324595688 738.9041791048583,601.3422198417369 682.2764220966661,657.9699768499291 C 625.648665088474,601.3422198417369 639.805604340522,551.7929324595688 682.2764220966661,516.4005843294486 Z" fill="url(#leaf0)" opacity="0.19" transform="rotate(249.5 682.3 587.2)"/>
    <path d="M 903.0686487277106,45.09257859303348 C 937.4210810281846,73.71960551009516 948.8718917950093,113.79744319398152 903.0686487277106,159.6006862612802 C 857.265405660412,113.79744319398152 868.7162164272366,73.71960551009516 903.0686487277106,45.09257859303348 Z" fill="url(#leaf1)" opacity="0.21" transform="rotate(351.9 903.1 102.3)"/>
    <path d="M 1866.8146673986294,831.6159686753689 C 1885.091943760077,846.8470323099085 1891.1843692138925,868.1705213982639 1866.8146673986294,892.5402232135272 C 1842.4449655833662,868.1705213982639 1848.5373910371818,846.8470323099085 1866.8146673986294,831.6159686753689 Z" fill="url(#leaf2)" opacity="0.17" transform="rotate(157.8 1866.8 862.1)"/>
    <path d="M 1739.3112067675288,920.840685206178 C 1758.3141427921958,936.676465226734 1764.6484548004182,958.8465572555122 1739.3112067675288,984.1838052884016 C 1713.9739587346394,958.8465572555122 1720.3082707428619,936.676465226734 1739.3112067675288,920.840685206178 Z" fill="url(#leaf3)" opacity="0.16" transform="rotate(254.7 1739.3 952.5)"/>
    <path d="M 1301.2363839231139,390.6337001785588 C 1336.1000055336895,419.6867181873717 1347.7212127372145,460.36094339970975 1301.2363839231139,506.8457722138104 C 1254.7515551090132,460.36094339970975 1266.3727623125383,419.6867181873717 1301.2363839231139,390.6337001785588 Z" fill="url(#leaf4)" opacity="0.19" transform="rotate(245.5 1301.2 448.7)"/>
    <path d="M 1666.6437678474915,468.75524182237973 C 1699.9939006944926,496.5470191948807 1711.110611643493,535.4555075163821 1666.6437678474915,579.9223513123836 C 1622.17692405149,535.4555075163821 1633.2936350004904,496.5470191948807 1666.6437678474915,468.75524182237973 Z" fill="url(#leaf5)" opacity="0.25" transform="rotate(10.8 1666.6 524.3)"/>
    <path d="M 802.482896335949,397.4223860546141 C 826.2843616876256,417.2569405143446 834.2181834715178,445.0253167579673 802.482896335949,476.7606038935361 C 770.7476092003802,445.0253167579673 778.6814309842724,417.2569405143446 802.482896335949,397.4223860546141 Z" fill="url(#leaf6)" opacity="0.23" transform="rotate(15.6 802.5 437.1)"/>
    <path d="M 1511.473804723893,75.28501157683473 C 1531.4896638388363,91.96489417262084 1538.1616168771507,115.31672980672138 1511.473804723893,142.00454195997915 C 1484.7859925706352,115.31672980672138 1491.4579456089496,91.96489417262084 1511.473804723893,75.28501157683473 Z" fill="url(#leaf7)" opacity="0.22" transform="rotate(64.8 1511.5 108.6)"/>
    <path d="M 1396.1068969468658,773.6410139912944 C 1430.7686671494598,802.525822493456 1442.3225905503245,842.9645543964823 1396.1068969468658,889.180247999941 C 1349.8912033434071,842.9645543964823 1361.4451267442719,802.525822493456 1396.1068969468658,773.6410139912944 Z" fill="url(#leaf8)" opacity="0.17" transform="rotate(310.3 1396.1 831.4)"/>
    <path d="M 228.9935819524257,450.51046884119165 C 255.9424873546175,472.9678900096848 264.9254558220148,504.40827964557525 228.9935819524257,540.3401535151643 C 193.06170808283665,504.40827964557525 202.0446765502339,472.9678900096848 228.9935819524257,450.51046884119165 Z" fill="url(#leaf9)" opacity="0.21" transform="rotate(301.0 229.0 495.4)"/>
    <path d="M 832.9983828162251,938.1408683493753 C 854.6648557544654,956.1962624645755 861.8870134005456,981.4738142258559 832.9983828162251,1010.3624448101764 C 804.1097522319046,981.4738142258559 811.3319098779848,956.1962624645755 832.9983828162251,938.1408683493753 Z" fill="url(#leaf10)" opacity="0.22" transform="rotate(18.8 833.0 974.3)"/>
    <path d="M 1307.2871380812087,230.7352310851852 C 1343.2365976065093,260.69311402293584 1355.2197507816097,302.63415013578674 1307.2871380812087,350.56676283618776 C 1259.3545253808077,302.63415013578674 1271.337678555908,260.69311402293584 1307.2871380812087,230.7352310851852 Z" fill="url(#leaf11)" opacity="0.24" transform="rotate(77.4 1307.3 290.7)"/>
    <path d="M 984.773273768553,596.7330117487307 C 1030.6516496057745,634.964991613082 1045.944441551515,688.4897634231738 984.773273768553,749.6609312061358 C 923.602105985591,688.4897634231738 938.8948979313316,634.964991613082 984.773273768553,596.7330117487307 Z" fill="url(#leaf12)" opacity="0.25" transform="rotate(184.4 984.8 673.2)"/>
    <path d="M 1854.468853017988,106.0606179254077 C 1893.2798414807596,138.40310831105074 1906.2168376350169,183.68259485095098 1854.468853017988,235.43057946797984 C 1802.7208684009593,183.68259485095098 1815.6578645552165,138.40310831105074 1854.468853017988,106.0606179254077 Z" fill="url(#leaf13)" opacity="0.18" transform="rotate(239.5 1854.5 170.7)"/>
    <path d="M 481.4340155210657,427.60685790340597 C 520.5995864306364,460.2448336613815 533.6547767338266,505.93799972254726 481.4340155210657,558.1587609353081 C 429.21325430830484,505.93799972254726 442.26844461149506,460.2448336613815 481.4340155210657,427.60685790340597 Z" fill="url(#leaf14)" opacity="0.23" transform="rotate(45.5 481.4 492.9)"/>
    <path d="M 1124.4244985388646,656.2332540284204 C 1150.6262662230458,678.0680604319048 1159.3601887844395,708.6367893967828 1124.4244985388646,743.5724796423577 C 1089.4888082932896,708.6367893967828 1098.2227308546833,678.0680604319048 1124.4244985388646,656.2332540284204 Z" fill="url(#leaf15)" opacity="0.16" transform="rotate(199.4 1124.4 699.9)"/>
    <path d="M 1448.9361734067936,787.450910227146 C 1472.540348138451,807.1210558368605 1480.408406382337,834.6592596904609 1448.9361734067936,866.1314926660042 C 1417.4639404312502,834.6592596904609 1425.3319986751362,807.1210558368605 1448.9361734067936,787.450910227146 Z" fill="url(#leaf16)" opacity="0.18" transform="rotate(325.0 1448.9 826.8)"/>
    <path d="M 163.42443908261566,97.39351803785662 C 182.8829216853434,113.6089202067964 189.3690825529193,136.3104832433121 163.42443908261566,162.25512671361577 C 137.47979561231202,136.3104832433121 143.96595647988792,113.6089202067964 163.42443908261566,97.39351803785662 Z" fill="url(#leaf17)" opacity="0.24" transform="rotate(28.8 163.4 129.8)"/>
    <path d="M 1842.5792501458304,13.956715580686819 C 1880.9680722421078,45.947400660917914 1893.7643462742,90.73435977324145 1842.5792501458304,141.9194559016112 C 1791.3941540174608,90.73435977324145 1804.190428049553,45.947400660917914 1842.5792501458304,13.956715580686819 Z" fill="url(#leaf18)" opacity="0.19" transform="rotate(160.0 1842.6 77.9)"/>
    <path d="M 450.41377320530324,451.13101363988073 C 497.0898375674735,490.0277339416893 512.648525688197,544.4831423642213 450.41377320530324,606.717894847115 C 388.1790207224096,544.4831423642213 403.73770884313296,490.0277339416893 450.41377320530324,451.13101363988073 Z" fill="url(#leaf19)" opacity="0.18" transform="rotate(157.4 450.4 528.9)"/>
    <path d="M 1374.2382081354424,458.29581665121856 C 1410.5750224979872,488.5764952866725 1422.6872939521688,530.9694453763082 1374.2382081354424,579.4185311930346 C 1325.789122318716,530.9694453763082 1337.9013937728976,488.5764952866725 1374.2382081354424,458.29581665121856 Z" fill="url(#leaf20)" opacity="0.20" transform="rotate(232.2 1374.2 518.9)"/>
    <path d="M 687.2684257700308,879.3773141288618 C 711.0665447636011,899.2090799568371 718.9992510947911,926.9735521160022 687.2684257700308,958.7043774407625 C 655.5376004452705,926.9735521160022 663.4703067764606,899.2090799568371 687.2684257700308,879.3773141288618 Z" fill="url(#leaf21)" opacity="0.24" transform="rotate(244.6 687.3 919.0)"/>
    <path d="M 477.1612493390488,10.519819203106138 C 523.3227536383109,48.98773945249123 538.709921738065,102.84282780163036 477.1612493390488,164.39150020064653 C 415.6125769400327,102.84282780163036 430.9997450397867,48.98773945249123 477.1612493390488,10.519819203106138 Z" fill="url(#leaf22)" opacity="0.22" transform="rotate(52.9 477.2 87.5)"/>
    <path d="M 552.058649743964,326.69478966748915 C 589.7701097410596,358.1210063317355 602.3405964067581,402.11770966168035 552.058649743964,452.3996563244745 C 501.77670308116984,402.11770966168035 514.3471897468684,358.1210063317355 552.058649743964,326.69478966748915 Z" fill="url(#leaf23)" opacity="0.23" transform="rotate(326.6 552.1 389.5)"/>
    <path d="M 937.2846150931686,213.38150524206858 C 984.8300051367579,253.0026636117264 1000.6784684846211,308.47228532924737 937.2846150931686,371.86613872069995 C 873.890761701716,308.47228532924737 889.7392250495792,253.0026636117264 937.2846150931686,213.38150524206858 Z" fill="url(#leaf24)" opacity="0.25" transform="rotate(105.5 937.3 292.6)"/>
    <path d="M 62.181779231565635,151.10605342328225 C 83.58800435740733,168.94457436148366 90.72341273268789,193.91850367496565 62.181779231565635,222.4601371760879 C 33.64014573044338,193.91850367496565 40.77555410572394,168.94457436148366 62.181779231565635,151.10605342328225 Z" fill="url(#leaf25)" opacity="0.18" transform="rotate(304.9 62.2 186.8)"/>
    <path d="M 1297.8696693101476,840.0311545831994 C 1331.599115503005,868.1390264105803 1342.8422642339572,907.4900469689137 1297.8696693101476,952.4626418927232 C 1252.897074386338,907.4900469689137 1264.1402231172904,868.1390264105803 1297.8696693101476,840.0311545831994 Z" fill="url(#leaf26)" opacity="0.22" transform="rotate(342.8 1297.9 896.2)"/>
    <path d="M 1062.3954705925664,720.5474353803796 C 1100.162027999625,752.0195665529285 1112.7508804686447,796.0805501944969 1062.3954705925664,846.4359600705751 C 1012.0400607164883,796.0805501944969 1024.6289131855078,752.0195665529285 1062.3954705925664,720.5474353803796 Z" fill="url(#leaf27)" opacity="0.20" transform="rotate(195.6 1062.4 783.5)"/>
    <path d="M 1767.1858672424396,532.284958837745 C 1795.1052184150794,555.5510848149447 1804.4116688059594,588.1236611830245 1767.1858672424396,625.3494627465442 C 1729.9600656789198,588.1236611830245 1739.2665160697998,555.5510848149447 1767.1858672424396,532.284958837745 Z" fill="url(#leaf28)" opacity="0.19" transform="rotate(102.6 1767.2 578.8)"/>
    <path d="M 101.04229834764811,161.5857207603737 C 132.78789896178972,188.04038793882503 143.36976583317025,225.0769219886569 101.04229834764811,267.404389474179 C 58.71483086212598,225.0769219886569 69.29669773350652,188.04038793882503 101.04229834764811,161.5857207603737 Z" fill="url(#leaf29)" opacity="0.15" transform="rotate(173.9 101.0 214.5)"/>
    <path d="M 1498.1079011981092,135.64618870237797 C 1535.8836075875101,167.12594402687876 1548.4755097173104,211.19760148117984 1498.1079011981092,261.5652100003811 C 1447.740292678908,211.19760148117984 1460.3321948087082,167.12594402687876 1498.1079011981092,135.64618870237797 Z" fill="url(#leaf0)" opacity="0.22" transform="rotate(180.1 1498.1 198.6)"/>
    <path d="M 1620.753588670812,458.6576485847707 C 1646.2112517317364,479.8723678022077 1654.697139418711,509.5729747066194 1620.753588670812,543.5165254545185 C 1586.810037922913,509.5729747066194 1595.2959256098875,479.8723678022077 1620.753588670812,458.6576485847707 Z" fill="url(#leaf1)" opacity="0.23" transform="rotate(100.5 1620.8 501.1)"/>
    <path d="M 1402.158772502496,248.53889021581892 C 1439.6619797276296,279.7915629034303 1452.1630488026742,323.5453046660862 1402.158772502496,373.54958096626444 C 1352.154496202318,323.5453046660862 1364.6555652773625,279.7915629034303 1402.158772502496,248.53889021581892 Z" fill="url(#leaf2)" opacity="0.17" transform="rotate(321.1 1402.2 311.0)"/>
    <path d="M 1494.4772232178238,267.58243335470377 C 1525.5033984946597,293.43757941873366 1535.8454569202718,329.63478390837554 1494.4772232178238,371.00301761082335 C 1453.108989515376,329.63478390837554 1463.451047940988,293.43757941873366 1494.4772232178238,267.58243335470377 Z" fill="url(#leaf3)" opacity="0.15" transform="rotate(247.4 1494.5 319.3)"/>
    <path d="M 1756.7261999360214,781.6067508287654 C 1776.644583009851,798.2054033902899 1783.2840440344607,821.4435169764242 1756.7261999360214,848.0013610748636 C 1730.168355837582,821.4435169764242 1736.8078168621919,798.2054033902899 1756.7261999360214,781.6067508287654 Z" fill="url(#leaf4)" opacity="0.23" transform="rotate(113.9 1756.7 814.8)"/>
    <path d="M 1487.419903020657,638.3747360072526 C 1529.3136017384602,673.2861516054218 1543.278167977728,722.1621334428587 1487.419903020657,778.0203983999294 C 1431.5616380635863,722.1621334428587 1445.526204302854,673.2861516054218 1487.419903020657,638.3747360072526 Z" fill="url(#leaf5)" opacity="0.24" transform="rotate(76.5 1487.4 708.2)"/>
    <path d="M 1804.9094737266546,31.74361471341841 C 1847.2561748591288,67.03253232381363 1861.3717419032869,116.43701697836693 1804.9094737266546,172.8992851549993 C 1748.4472055500223,116.43701697836693 1762.5627725941804,67.03253232381363 1804.9094737266546,31.74361471341841 Z" fill="url(#leaf6)" opacity="0.20" transform="rotate(223.9 1804.9 102.3)"/>
    <path d="M 1632.1858176460762,580.9167597630316 C 1662.942819920513,606.5475949917289 1673.1951540119921,642.4307643119054 1632.1858176460762,683.4401006778213 C 1591.1764812801603,642.4307643119054 1601.4288153716393,606.5475949917289 1632.1858176460762,580.9167597630316 Z" fill="url(#leaf7)" opacity="0.23" transform="rotate(88.0 1632.2 632.2)"/>
    <path d="M 1387.4799011096,500.9371254581834 C 1433.5768003784056,539.351208182188 1448.9424334680073,593.1309239957944 1387.4799011096,654.5934563542019 C 1326.0173687511926,593.1309239957944 1341.3830018407943,539.351208182188 1387.4799011096,500.9371254581834 Z" fill="url(#leaf8)" opacity="0.23" transform="rotate(168.5 1387.5 577.8)"/>
    <path d="M 489.80170195078927,190.37062813839978 C 536.0218915653264,228.88745281718076 551.4286214368389,282.8110073674741 489.80170195078927,344.43792685352366 C 428.17478246473974,282.8110073674741 443.5815123362521,228.88745281718076 489.80170195078927,190.37062813839978 Z" fill="url(#leaf9)" opacity="0.17" transform="rotate(113.0 489.8 267.4)"/>
    <path d="M 1445.6819887795696,26.240668698349054 C 1480.0586258542723,54.887866260601406 1491.5175048791734,94.9939428477547 1445.6819887795696,140.82945894735846 C 1399.8464726799657,94.9939428477547 1411.3053517048668,54.887866260601406 1445.6819887795696,26.240668698349054 Z" fill="url(#leaf10)" opacity="0.25" transform="rotate(3.5 1445.7 83.5)"/>
    <path d="M 361.90276631690364,757.4758087330879 C 403.34816765676453,792.013643182972 417.16330143671814,840.3666114128097 361.90276631690364,895.6271465326242 C 306.64223119708913,840.3666114128097 320.45736497704274,792.013643182972 361.90276631690364,757.4758087330879 Z" fill="url(#leaf11)" opacity="0.22" transform="rotate(277.9 361.9 826.6)"/>
    <path d="M 462.212213521452,754.7265839324169 C 486.1231212104848,774.6523403399442 494.0934237734957,802.5483993104825 462.212213521452,834.4296095625263 C 430.33100326940826,802.5483993104825 438.3013058324192,774.6523403399442 462.212213521452,754.7265839324169 Z" fill="url(#leaf12)" opacity="0.20" transform="rotate(43.7 462.2 794.6)"/>
    <path d="M 738.4701886314019,15.93453322953647 C 761.5783748668567,35.19135509241546 769.2811036120083,62.15090570044605 738.4701886314019,92.96182068105244 C 707.6592736507955,62.15090570044605 715.3620023959471,35.19135509241546 738.4701886314019,15.93453322953647 Z" fill="url(#leaf13)" opacity="0.22" transform="rotate(97.7 738.5 54.4)"/>
    <path d="M 605.1666895355635,126.20379241344463 C 639.8416653965699,155.09960563094998 651.399990683572,195.55374413545746 605.1666895355635,241.78704528346603 C 558.9333883875549,195.55374413545746 570.4917136745571,155.09960563094998 605.1666895355635,126.20379241344463 Z" fill="url(#leaf14)" opacity="0.18" transform="rotate(215.5 605.2 184.0)"/>
    <path d="M 808.0962831775379,843.4241580900404 C 835.7119692905538,866.437229850887 844.9171979948925,898.6555303160723 808.0962831775379,935.4764451334269 C 771.2753683601833,898.6555303160723 780.4805970645219,866.437229850887 808.0962831775379,843.4241580900404 Z" fill="url(#leaf15)" opacity="0.22" transform="rotate(52.7 808.1 889.5)"/>
    <path d="M 1077.4544919973198,774.7643480796376 C 1121.4294261359928,811.4101265285318 1136.0877375155505,862.7142163569838 1077.4544919973198,921.3474618752145 C 1018.821246479089,862.7142163569838 1033.4795578586468,811.4101265285318 1077.4544919973198,774.7643480796376 Z" fill="url(#leaf16)" opacity="0.16" transform="rotate(102.7 1077.5 848.1)"/>
    <path d="M 807.2377710836403,887.5445217247345 C 839.6838477175789,914.5829189196834 850.4992065955586,952.4366749926119 807.2377710836403,995.6981105045302 C 763.976335571722,952.4366749926119 774.7916944497016,914.5829189196834 807.2377710836403,887.5445217247345 Z" fill="url(#leaf17)" opacity="0.24" transform="rotate(79.4 807.2 941.6)"/>
    <path d="M 915.1086942082192,886.2820291601442 C 939.1957094672126,906.3545418759721 947.2247145535438,934.4560596781312 915.1086942082192,966.5720800234558 C 882.9926738628945,934.4560596781312 891.0216789492257,906.3545418759721 915.1086942082192,886.2820291601442 Z" fill="url(#leaf18)" opacity="0.16" transform="rotate(316.2 915.1 926.4)"/>
    <path d="M 499.0973600326096,903.2726795693715 C 536.8975279472166,934.7728194982107 549.4975839187523,978.8730153985855 499.0973600326096,1029.273239284728 C 448.69713614646685,978.8730153985855 461.29719211800256,934.7728194982107 499.0973600326096,903.2726795693715 Z" fill="url(#leaf19)" opacity="0.18" transform="rotate(158.6 499.1 966.3)"/>
    <path d="M 210.56555255783877,923.725397868303 C 250.90234830292883,957.3393943225448 264.3479468846255,1004.3989893584832 210.56555255783877,1058.1813836852698 C 156.78315823105203,1004.3989893584832 170.2287568127487,957.3393943225448 210.56555255783877,923.725397868303 Z" fill="url(#leaf20)" opacity="0.23" transform="rotate(4.2 210.6 991.0)"/>
    <path d="M 1533.1119944782006,517.2756459244894 C 1565.3542431029002,544.1441864450725 1576.1016593111335,581.7601431738889 1533.1119944782006,624.7498080068218 C 1490.1223296452677,581.7601431738889 1500.869745853501,544.1441864450725 1533.1119944782006,517.2756459244894 Z" fill="url(#leaf21)" opacity="0.19" transform="rotate(340.5 1533.1 571.0)"/>
    <path d="M 663.4376267574964,426.7208281023476 C 699.3814123149576,456.6739827335652 711.3626741674447,498.60839921726995 663.4376267574964,546.5334466272182 C 615.5125793475482,498.60839921726995 627.4938412000353,456.6739827335652 663.4376267574964,426.7208281023476 Z" fill="url(#leaf22)" opacity="0.17" transform="rotate(262.3 663.4 486.6)"/>
    <path d="M 890.6769441169617,78.92317172538252 C 921.712615431371,104.78623115405688 932.0578392028407,140.99451435420096 890.6769441169617,182.37540944007992 C 849.2960490310828,140.99451435420096 859.6412728025525,104.78623115405688 890.6769441169617,78.92317172538252 Z" fill="url(#leaf23)" opacity="0.15" transform="rotate(203.8 890.7 130.6)"/>
    <path d="M 194.66078514752445,417.04748741556216 C 232.64413689019767,448.7002805344565 245.3052541377554,493.0141909009086 194.66078514752445,543.6586598911396 C 144.0163161572935,493.0141909009086 156.67743340485123,448.7002805344565 194.66078514752445,417.04748741556216 Z" fill="url(#leaf24)" opacity="0.17" transform="rotate(281.3 194.7 480.4)"/>
    <path d="M 1067.3779672465039,892.612726676357 C 1092.0885494377872,913.2048785024265 1100.3254101682148,942.0338910589237 1067.3779672465039,974.9813339806348 C 1034.430524324793,942.0338910589237 1042.6673850552206,913.2048785024265 1067.3779672465039,892.612726676357 Z" fill="url(#leaf25)" opacity="0.20" transform="rotate(8.2 1067.4 933.8)"/>
    <path d="M 448.34812258348944,956.658562733625 C 487.6427344562692,989.4040726276081 500.7409384138624,1035.2477864791845 448.34812258348944,1087.6406023095574 C 395.9553067531165,1035.2477864791845 409.0535107107097,989.4040726276081 448.34812258348944,956.658562733625 Z" fill="url(#leaf26)" opacity="0.23" transform="rotate(282.1 448.3 1022.1)"/>
    <path d="M 561.8074856041286,602.2276519361559 C 594.8478914971901,629.7613235137071 605.8613601282105,668.3084637222788 561.8074856041286,712.3623382463608 C 517.7536110800467,668.3084637222788 528.7670797110671,629.7613235137071 561.8074856041286,602.2276519361559 Z" fill="url(#leaf27)" opacity="0.17" transform="rotate(138.3 561.8 657.3)"/>
    <path d="M 925.4189279662668,218.65022691654684 C 959.668020831755,247.19113763778702 971.0843851202511,287.1484126475233 925.4189279662668,332.81386980150756 C 879.7534708122824,287.1484126475233 891.1698351007785,247.19113763778702 925.4189279662668,218.65022691654684 Z" fill="url(#leaf28)" opacity="0.21" transform="rotate(211.1 925.4 275.7)"/>
    <path d="M 830.0645100753443,957.6603054315867 C 865.1552183454309,986.9025623233255 876.8521211021264,1027.8417219717596 830.0645100753443,1074.6293329985417 C 783.2768990485622,1027.8417219717596 794.9738018052577,986.9025623233255 830.0645100753443,957.6603054315867 Z" fill="url(#leaf29)" opacity="0.16" transform="rotate(166.4 830.1 1016.1)"/>
    <path d="M 699.3951512177874,61.446235870547156 C 747.3271802879119,101.38959342898426 763.3045233112867,157.31029401079618 699.3951512177874,221.21966610429556 C 635.4857791242881,157.31029401079618 651.463122147663,101.38959342898426 699.3951512177874,61.446235870547156 Z" fill="url(#leaf0)" opacity="0.17" transform="rotate(267.9 699.4 141.3)"/>
    <path d="M 1508.615249512385,77.89525323769662 C 1542.9442859595135,106.50278361030385 1554.3872981085565,146.55332613195398 1508.615249512385,192.32537472812555 C 1462.8432009162134,146.55332613195398 1474.2862130652563,106.50278361030385 1508.615249512385,77.89525323769662 Z" fill="url(#leaf1)" opacity="0.15" transform="rotate(202.0 1508.6 135.1)"/>
    <path d="M 1173.5443608242588,871.902303357619 C 1211.5462413150929,903.5705370999808 1224.2135348120378,947.9060643392874 1173.5443608242588,998.5752383270664 C 1122.8751868364798,947.9060643392874 1135.5424803334247,903.5705370999808 1173.5443608242588,871.902303357619 Z" fill="url(#leaf2)" opacity="0.25" transform="rotate(286.7 1173.5 935.2)"/>
    <path d="M 266.77744380787504,893.4848650801954 C 312.4037768116465,931.506809250005 327.6125544795703,984.7375310877384 266.77744380787504,1045.5726417594335 C 205.9423331361798,984.7375310877384 221.1511108041036,931.506809250005 266.77744380787504,893.4848650801954 Z" fill="url(#leaf3)" opacity="0.19" transform="rotate(329.5 266.8 969.5)"/>
    <path d="M 527.781552269129,860.9318780831226 C 561.6885928222285,889.1877452107057 572.9909396732618,928.7459591893219 527.781552269129,973.9553465934547 C 482.5721648649961,928.7459591893219 493.87451171602936,889.1877452107057 527.781552269129,860.9318780831226 Z" fill="url(#leaf4)" opacity="0.18" transform="rotate(54.5 527.8 917.4)"/>
    <path d="M 829.485851100967,262.47043498157564 C 864.0313086405264,291.25831626454186 875.5464611537129,331.5613500606945 829.485851100967,377.6219601134404 C 783.4252410482211,331.5613500606945 794.9403935614076,291.25831626454186 829.485851100967,262.47043498157564 Z" fill="url(#leaf5)" opacity="0.24" transform="rotate(40.3 829.5 320.0)"/>
    <path d="M 92.21617952718486,611.5044103392845 C 121.55015090060223,635.9493864837989 131.328141358408,670.1723530861192 92.21617952718486,709.2843149173423 C 53.10421769596171,670.1723530861192 62.8822081537675,635.9493864837989 92.21617952718486,611.5044103392845 Z" fill="url(#leaf6)" opacity="0.24" transform="rotate(306.7 92.2 660.4)"/>
    <path d="M 1009.2853345878929,767.9577941764855 C 1032.2928874788447,787.1307549189455 1039.9620717758287,813.9728999583893 1009.2853345878929,844.6496371463252 C 978.608597399957,813.9728999583893 986.277781696941,787.1307549189455 1009.2853345878929,767.9577941764855 Z" fill="url(#leaf7)" opacity="0.18" transform="rotate(62.2 1009.3 806.3)"/>
    <path d="M 334.9380482538483,582.7400802941312 C 353.67531489529216,598.354469162001 359.9210704424401,620.2146135770189 334.9380482538483,645.1976357656107 C 309.9550260652565,620.2146135770189 316.20078161240446,598.354469162001 334.9380482538483,582.7400802941312 Z" fill="url(#leaf8)" opacity="0.19" transform="rotate(46.0 334.9 614.0)"/>
    <path d="M 526.8395657531003,273.85853761314394 C 558.7203194059542,300.4258323238555 569.3472372902388,337.62004491885176 526.8395657531003,380.1277164559903 C 484.3318942159617,337.62004491885176 494.95881210024635,300.4258323238555 526.8395657531003,273.85853761314394 Z" fill="url(#leaf9)" opacity="0.21" transform="rotate(173.1 526.8 327.0)"/>
    <path d="M 1096.5974938971715,944.285976637819 C 1143.6254930651482,983.4759759444663 1159.3014927878073,1038.3419749737725 1096.5974938971715,1101.0459738644083 C 1033.8934950065357,1038.3419749737725 1049.5694947291947,983.4759759444663 1096.5974938971715,944.285976637819 Z" fill="url(#leaf10)" opacity="0.21" transform="rotate(159.5 1096.6 1022.7)"/>
    <path d="M 895.6852077807408,318.2542216791043 C 928.726746157474,345.7888369930486 939.7405922830518,384.3372984325707 895.6852077807408,428.39268293488163 C 851.6298232784299,384.3372984325707 862.6436694040076,345.7888369930486 895.6852077807408,318.2542216791043 Z" fill="url(#leaf11)" opacity="0.20" transform="rotate(199.8 895.7 373.3)"/>
    <path d="M 188.55459901201894,390.4996613908161 C 225.3976761987829,421.20222571311933 237.67870192770422,464.18581576434394 188.55459901201894,513.3099186800292 C 139.43049609633366,464.18581576434394 151.71152182525498,421.20222571311933 188.55459901201894,390.4996613908161 Z" fill="url(#leaf12)" opacity="0.23" transform="rotate(3.1 188.6 451.9)"/>
    <path d="M 692.5201143931548,251.84745717359908 C 735.0913203069887,287.323462101794 749.2817222782667,336.9898690012668 692.5201143931548,393.75147688637867 C 635.758506508043,336.9898690012668 649.948908479321,287.323462101794 692.5201143931548,251.84745717359908 Z" fill="url(#leaf13)" opacity="0.24" transform="rotate(292.3 692.5 322.8)"/>
    <path d="M 1316.0682632541505,953.3863340399258 C 1350.541316345373,982.1138782826113 1362.0323340424472,1022.3324402223709 1316.0682632541505,1068.2965110106675 C 1270.1041924658537,1022.3324402223709 1281.595210162928,982.1138782826113 1316.0682632541505,953.3863340399258 Z" fill="url(#leaf14)" opacity="0.18" transform="rotate(342.4 1316.1 1010.8)"/>
    <path d="M 1714.9951508454992,50.83382721328142 C 1745.6549944880705,76.38369691542428 1755.8749423689278,112.15351449842429 1714.9951508454992,153.03330602185287 C 1674.1153593220706,112.15351449842429 1684.3353072029279,76.38369691542428 1714.9951508454992,50.83382721328142 Z" fill="url(#leaf15)" opacity="0.24" transform="rotate(215.4 1715.0 101.9)"/>
    <path d="M 1237.2001420133518,957.2375633184885 C 1267.0308510844898,982.0964875444369 1276.974420774869,1016.8989814607645 1237.2001420133518,1056.6732602222817 C 1197.4258632518345,1016.8989814607645 1207.3694329422137,982.0964875444369 1237.2001420133518,957.2375633184885 Z" fill="url(#leaf16)" opacity="0.18" transform="rotate(217.7 1237.2 1007.0)"/>
    <path d="M 477.04332632857376,168.93213140115762 C 507.41098197157277,194.23851110365678 517.5335338525724,229.66744268715559 477.04332632857376,270.15765021115425 C 436.5531188045751,229.66744268715559 446.67567068557474,194.23851110365678 477.04332632857376,168.93213140115762 Z" fill="url(#leaf17)" opacity="0.23" transform="rotate(235.9 477.0 219.5)"/>
    <path d="M 812.746671849431,312.2663114231293 C 850.3849515702333,343.6315445237979 862.9310448105007,387.5428708647339 812.746671849431,437.7272438258036 C 762.5622988883613,387.5428708647339 775.1083921286287,343.6315445237979 812.746671849431,312.2663114231293 Z" fill="url(#leaf18)" opacity="0.16" transform="rotate(14.1 812.7 375.0)"/>
    <path d="M 480.2395557345001,80.822417835545 C 525.2270066963862,118.31196030378347 540.2228236836817,170.79731975931733 480.2395557345001,230.78058770849887 C 420.25628778531853,170.79731975931733 435.2521047726139,118.31196030378347 480.2395557345001,80.822417835545 Z" fill="url(#leaf19)" opacity="0.22" transform="rotate(54.4 480.2 155.8)"/>
    <path d="M 1222.7060424555214,506.31113400601174 C 1250.6897222716045,529.6308671860811 1260.0176155436325,562.2784936381782 1222.7060424555214,599.5900667262894 C 1185.3944693674102,562.2784936381782 1194.7223626394382,529.6308671860811 1222.7060424555214,506.31113400601174 Z" fill="url(#leaf20)" opacity="0.22" transform="rotate(130.6 1222.7 553.0)"/>
    <path d="M 1615.0071224019566,812.608769303344 C 1635.1301823675412,829.3779859413313 1641.8378690227362,852.8548892345135 1615.0071224019566,879.6856358552931 C 1588.176375781177,852.8548892345135 1594.884062436372,829.3779859413313 1615.0071224019566,812.608769303344 Z" fill="url(#leaf21)" opacity="0.22" transform="rotate(143.7 1615.0 846.1)"/>
    <path d="M 1140.4946570835561,987.6796928592328 C 1162.8143376048413,1006.2794266269703 1170.2542311119362,1032.319053901803 1140.4946570835561,1062.078627930183 C 1110.7350830551761,1032.319053901803 1118.174976562271,1006.2794266269703 1140.4946570835561,987.6796928592328 Z" fill="url(#leaf22)" opacity="0.23" transform="rotate(240.6 1140.5 1024.9)"/>
    <path d="M 1734.9883683287117,866.7388000274772 C 1764.5642826771764,891.3853953178645 1774.4229207933315,925.8906287244068 1734.9883683287117,965.3251811890267 C 1695.5538158640918,925.8906287244068 1705.412453980247,891.3853953178645 1734.9883683287117,866.7388000274772 Z" fill="url(#leaf23)" opacity="0.21" transform="rotate(238.7 1735.0 916.0)"/>
    <path d="M 434.40753148753294,285.8142108074784 C 463.4389304416391,310.0070432692335 473.11606342634116,343.8770087156907 434.40753148753294,382.5855406544989 C 395.6989995487247,343.8770087156907 405.37613253342676,310.0070432692335 434.40753148753294,285.8142108074784 Z" fill="url(#leaf24)" opacity="0.16" transform="rotate(32.8 434.4 334.2)"/>
    <path d="M 113.10176931881401,329.2432618305007 C 153.03329165566717,362.519530444545 166.3437991012849,409.10630650420705 113.10176931881401,462.348336286678 C 59.859739536343106,409.10630650420705 73.17024698196084,362.519530444545 113.10176931881401,329.2432618305007 Z" fill="url(#leaf25)" opacity="0.20" transform="rotate(330.5 113.1 395.8)"/>
    <path d="M 1190.806778404877,503.8849718026419 C 1236.8353950980018,542.242152380246 1252.1782673290434,595.9422051888916 1190.806778404877,657.3136941130582 C 1129.4352894807105,595.9422051888916 1144.778161711752,542.242152380246 1190.806778404877,503.8849718026419 Z" fill="url(#leaf26)" opacity="0.18" transform="rotate(207.0 1190.8 580.6)"/>
    <path d="M 1582.867543981977,594.7771745004737 C 1610.4844199562367,617.7912378123568 1619.6900452809898,650.0109264489931 1582.867543981977,686.8334277480061 C 1546.045042682964,650.0109264489931 1555.2506680077172,617.7912378123568 1582.867543981977,594.7771745004737 Z" fill="url(#leaf27)" opacity="0.16" transform="rotate(67.7 1582.9 640.8)"/>
    <path d="M 530.8819861328017,965.2871097887042 C 566.8092238694845,995.2264745692734 578.7849697817121,1037.14158526207 530.8819861328017,1085.0445689109804 C 482.9790024838912,1037.14158526207 494.9547483961188,995.2264745692734 530.8819861328017,965.2871097887042 Z" fill="url(#leaf28)" opacity="0.18" transform="rotate(97.0 530.9 1025.2)"/>
    <path d="M 780.7355448223924,144.67142497967427 C 809.9677267491683,169.0315765853208 819.7117873914269,203.13578883322594 780.7355448223924,242.1120314022604 C 741.7593022533579,203.13578883322594 751.5033628956165,169.0315765853208 780.7355448223924,144.67142497967427 Z" fill="url(#leaf29)" opacity="0.24" transform="rotate(137.2 780.7 193.4)"/>
    <path d="M 300.3354953519299,449.8832472007813 C 343.00229637313765,485.4389147184544 357.22456338020686,535.2168492431967 300.3354953519299,592.1059172714737 C 243.44642732365298,535.2168492431967 257.6686943307222,485.4389147184544 300.3354953519299,449.8832472007813 Z" fill="url(#leaf0)" opacity="0.22" transform="rotate(277.3 300.3 521.0)"/>
    <path d="M 1260.5342612368656,737.5193612565262 C 1291.3261167963747,763.1792408894504 1301.5900686495443,799.1030723755442 1260.5342612368656,840.1588797882229 C 1219.478453824187,799.1030723755442 1229.7424056773566,763.1792408894504 1260.5342612368656,737.5193612565262 Z" fill="url(#leaf1)" opacity="0.20" transform="rotate(292.2 1260.5 788.8)"/>
    <path d="M 196.128117350523,470.5767206521827 C 215.28149278825373,486.5378668502916 221.66595126749732,508.88347152764413 196.128117350523,534.4213054446185 C 170.5902834335487,508.88347152764413 176.9747419127923,486.5378668502916 196.128117350523,470.5767206521827 Z" fill="url(#leaf2)" opacity="0.17" transform="rotate(291.7 196.1 502.5)"/>
    <path d="M 1432.9926311069673,732.1098218661381 C 1470.5990077008657,763.4484690277201 1483.1344665654985,807.3225750539348 1432.9926311069673,857.4644105124659 C 1382.8507956484361,807.3225750539348 1395.386254513069,763.4484690277201 1432.9926311069673,732.1098218661381 Z" fill="url(#leaf3)" opacity="0.22" transform="rotate(356.3 1433.0 794.8)"/>
    <path d="M 550.0378385486556,34.76954044368254 C 585.3603817238157,64.2049930896493 597.1345627822025,105.4146267940028 550.0378385486556,152.51135102754964 C 502.94111431510873,105.4146267940028 514.7152953734955,64.2049930896493 550.0378385486556,34.76954044368254 Z" fill="url(#leaf4)" opacity="0.20" transform="rotate(182.7 550.0 93.6)"/>
    <path d="M 1318.1653637925187,284.94023156927165 C 1355.5058788267786,316.0573274311548 1367.9527171715317,359.62126163779124 1318.1653637925187,409.40861501680433 C 1268.3780104135058,359.62126163779124 1280.824848758259,316.0573274311548 1318.1653637925187,284.94023156927165 Z" fill="url(#leaf5)" opacity="0.20" transform="rotate(294.8 1318.2 347.2)"/>
    <path d="M 90.08880465412163,19.550010628077708 C 117.88620338972463,42.71450957441354 127.15200296825896,75.1448080992837 90.08880465412163,112.20800641342103 C 53.0256063399843,75.1448080992837 62.291405918518635,42.71450957441354 90.08880465412163,19.550010628077708 Z" fill="url(#leaf6)" opacity="0.23" transform="rotate(90.7 90.1 65.9)"/>
    <path d="M 424.1729648288489,593.1131662521458 C 449.37849542538214,614.1177750825901 457.78033895755993,643.5242274452123 424.1729648288489,677.1316015739234 C 390.5655907001378,643.5242274452123 398.9674342323156,614.1177750825901 424.1729648288489,593.1131662521458 Z" fill="url(#leaf7)" opacity="0.22" transform="rotate(328.4 424.2 635.1)"/>
    <path d="M 1524.5528497686387,257.750332631393 C 1550.341971164885,279.241267128265 1558.9383449636339,309.3285754238858 1524.5528497686387,343.714070618881 C 1490.1673545736435,309.3285754238858 1498.7637283723923,279.241267128265 1524.5528497686387,257.750332631393 Z" fill="url(#leaf8)" opacity="0.21" transform="rotate(85.8 1524.6 300.7)"/>
    <path d="M 186.78724557441868,147.41602002477234 C 221.7586343982715,176.5588440446497 233.41576400622245,217.35879767247798 186.78724557441868,263.9873161042817 C 140.1587271426149,217.35879767247798 151.81585675056584,176.5588440446497 186.78724557441868,147.41602002477234 Z" fill="url(#leaf9)" opacity="0.19" transform="rotate(205.7 186.8 205.7)"/>
    <path d="M 1126.2143345353325,63.776877246376955 C 1145.3556668253314,79.72798748804269 1151.7361109219976,102.05954182637471 1126.2143345353325,127.58131821303988 C 1100.6925581486673,102.05954182637471 1107.0730022453336,79.72798748804269 1126.2143345353325,63.776877246376955 Z" fill="url(#leaf10)" opacity="0.21" transform="rotate(111.3 1126.2 95.7)"/>
    <path d="M 1738.3748960840157,216.42366141793397 C 1783.1320394879465,253.7212809212096 1798.0510872892567,305.9379482257954 1738.3748960840157,365.6141394310364 C 1678.6987048787748,305.9379482257954 1693.617752680085,253.7212809212096 1738.3748960840157,216.42366141793397 Z" fill="url(#leaf11)" opacity="0.18" transform="rotate(301.6 1738.4 291.0)"/>
    <path d="M 52.3026248167996,312.683934953842 C 88.79600615655266,343.0950860703029 100.96046660313702,385.67069763334814 52.3026248167996,434.3285394196855 C 3.644783030462179,385.67069763334814 15.809243477046536,343.0950860703029 52.3026248167996,312.683934953842 Z" fill="url(#leaf12)" opacity="0.20" transform="rotate(185.0 52.3 373.5)"/>
    <path d="M 298.64132749313245,57.39368819767698 C 331.7254668314415,84.96380431293451 342.7535132775445,123.56196687429508 298.64132749313245,167.67415265870716 C 254.52914170872037,123.56196687429508 265.5571881548234,84.96380431293451 298.64132749313245,57.39368819767698 Z" fill="url(#leaf13)" opacity="0.20" transform="rotate(122.1 298.6 112.5)"/>
    <path d="M 1461.8730013073969,789.2266609665883 C 1508.8946985141063,828.4114086388461 1524.5685975830093,883.270055380007 1461.8730013073969,945.9656516556195 C 1399.1774050317845,883.270055380007 1414.8513041006875,828.4114086388461 1461.8730013073969,789.2266609665883 Z" fill="url(#leaf14)" opacity="0.23" transform="rotate(267.7 1461.9 867.6)"/>
    <path d="M 1486.7048192923035,364.04372649545553 C 1531.044322283258,400.9933123212509 1545.8241566135762,452.7227324773645 1486.7048192923035,511.8420697986371 C 1427.5854819710307,452.7227324773645 1442.365316301349,400.9933123212509 1486.7048192923035,364.04372649545553 Z" fill="url(#leaf15)" opacity="0.16" transform="rotate(194.7 1486.7 437.9)"/>
    <path d="M 1363.9035860217416,58.38704668558375 C 1393.2043349949527,82.80433749659298 1402.9712513193563,116.9885446320059 1363.9035860217416,156.05620992962065 C 1324.835920724127,116.9885446320059 1334.6028370485305,82.80433749659298 1363.9035860217416,58.38704668558375 Z" fill="url(#leaf16)" opacity="0.16" transform="rotate(66.6 1363.9 107.2)"/>
    <path d="M 1386.2971302189533,559.1234841444705 C 1423.456773365325,590.0898534331136 1435.843321080782,633.4427704372139 1386.2971302189533,682.9889612990428 C 1336.7509393571245,633.4427704372139 1349.1374870725815,590.0898534331136 1386.2971302189533,559.1234841444705 Z" fill="url(#leaf17)" opacity="0.20" transform="rotate(229.0 1386.3 621.1)"/>
    <path d="M 1024.9041417708709,190.99187348969355 C 1053.6851180417896,214.97602038212574 1063.2787767987625,248.5538260315308 1024.9041417708709,286.9284610594223 C 986.5295067429794,248.5538260315308 996.1231654999523,214.97602038212574 1024.9041417708709,190.99187348969355 Z" fill="url(#leaf18)" opacity="0.23" transform="rotate(57.4 1024.9 239.0)"/>
    <path d="M 1562.425721324474,29.839813856580342 C 1581.2786537941786,45.550590914667495 1587.5629646174134,67.54567879598952 1562.425721324474,92.68292208892896 C 1537.2884780315344,67.54567879598952 1543.5727888547692,45.550590914667495 1562.425721324474,29.839813856580342 Z" fill="url(#leaf19)" opacity="0.22" transform="rotate(77.8 1562.4 61.3)"/>
    <path d="M 176.26165901852534,514.4801812363216 C 221.2456407315844,551.9668326638708 236.24030130260405,604.4481446624397 176.26165901852534,664.4267869465184 C 116.2830167344466,604.4481446624397 131.27767730546628,551.9668326638708 176.26165901852534,514.4801812363216 Z" fill="url(#leaf20)" opacity="0.18" transform="rotate(193.9 176.3 589.5)"/>
    <path d="M 1365.9944337589625,884.5512879506653 C 1385.222934928786,900.5750389255181 1391.632435318727,923.0082902903121 1365.9944337589625,948.6462918500765 C 1340.356432199198,923.0082902903121 1346.765932589139,900.5750389255181 1365.9944337589625,884.5512879506653 Z" fill="url(#leaf21)" opacity="0.18" transform="rotate(157.7 1366.0 916.6)"/>
    <path d="M 1736.8236582696343,341.4932012278624 C 1781.3289157003283,378.58091575344065 1796.1640015105595,430.5037160892502 1736.8236582696343,489.84405933017536 C 1677.483315028709,430.5037160892502 1692.3184008389403,378.58091575344065 1736.8236582696343,341.4932012278624 Z" fill="url(#leaf22)" opacity="0.25" transform="rotate(283.4 1736.8 415.7)"/>
    <path d="M 649.0739993056877,317.4253053643614 C 667.6444882453416,332.90071281407296 673.8346512252263,354.56628324366915 649.0739993056877,379.3269351632076 C 624.3133473861492,354.56628324366915 630.5035103660339,332.90071281407296 649.0739993056877,317.4253053643614 Z" fill="url(#leaf23)" opacity="0.20" transform="rotate(266.8 649.1 348.4)"/>
    <path d="M 1763.380674730036,125.626480796213 C 1782.5551121237988,141.60517862434878 1788.9465912550531,163.97535558373886 1763.380674730036,189.54127210875612 C 1737.8147582050187,163.97535558373886 1744.206237336273,141.60517862434878 1763.380674730036,125.626480796213 Z" fill="url(#leaf24)" opacity="0.16" transform="rotate(106.4 1763.4 157.6)"/>
    <path d="M 1662.081529985957,682.7644325219736 C 1685.877244303001,702.5941944528436 1693.8091490753488,730.3558611560613 1662.081529985957,762.0834802454532 C 1630.3539108965654,730.3558611560613 1638.2858156689133,702.5941944528436 1662.081529985957,682.7644325219736 Z" fill="url(#leaf25)" opacity="0.23" transform="rotate(179.1 1662.1 722.4)"/>
    <path d="M 353.1999591224442,816.8164486195892 C 395.53284353500885,852.0938522967265 409.6438050058638,901.4822174447186 353.1999591224442,957.9260633281381 C 296.75611323902467,901.4822174447186 310.8670747098796,852.0938522967265 353.1999591224442,816.8164486195892 Z" fill="url(#leaf26)" opacity="0.16" transform="rotate(108.2 353.2 887.4)"/>
    <path d="M 1054.3705657577907,985.9361127235447 C 1078.9450741102887,1006.4148696839598 1087.1365768944547,1035.0851294285408 1054.3705657577907,1067.8511405652048 C 1021.6045546211267,1035.0851294285408 1029.7960574052927,1006.4148696839598 1054.3705657577907,985.9361127235447 Z" fill="url(#leaf27)" opacity="0.20" transform="rotate(311.5 1054.4 1026.9)"/>
    <path d="M 398.490176166695,286.10271432775437 C 440.33525057451715,320.9736096676062 454.2836087104579,369.7928631433987 398.490176166695,425.5862956871615 C 342.6967436229321,369.7928631433987 356.64510175887284,320.9736096676062 398.490176166695,286.10271432775437 Z" fill="url(#leaf28)" opacity="0.24" transform="rotate(236.5 398.5 355.8)"/>
    <path d="M 244.95989296537786,833.9571911898097 C 285.2928188765441,867.5679627824481 298.73712751359955,914.6230430121421 244.95989296537786,968.4002775603637 C 191.18265841715618,914.6230430121421 204.6269670542116,867.5679627824481 244.95989296537786,833.9571911898097 Z" fill="url(#leaf29)" opacity="0.24" transform="rotate(83.3 245.0 901.2)"/>
    <path d="M 613.4713396200403,707.9610446179366 C 659.0678637638046,745.9581480710734 674.2667051450592,799.154092905465 613.4713396200403,859.9494584304838 C 552.6759740950215,799.154092905465 567.8748154762761,745.9581480710734 613.4713396200403,707.9610446179366 Z" fill="url(#leaf0)" opacity="0.15" transform="rotate(152.5 613.5 784.0)"/>
    <path d="M 1635.0958658164582,573.1580111204909 C 1678.9875610764839,609.734423837179 1693.618126163159,660.9414016405423 1635.0958658164582,719.4636619872432 C 1576.5736054697572,660.9414016405423 1591.2041705564325,609.734423837179 1635.0958658164582,573.1580111204909 Z" fill="url(#leaf1)" opacity="0.21" transform="rotate(122.2 1635.1 646.3)"/>
    <path d="M 1573.4904042336111,451.0650637501222 C 1609.9031321848763,481.4090037095098 1622.0407081686312,523.8905196526525 1573.4904042336111,572.4408235876726 C 1524.940100298591,523.8905196526525 1537.077676282346,481.4090037095098 1573.4904042336111,451.0650637501222 Z" fill="url(#leaf2)" opacity="0.19" transform="rotate(321.3 1573.5 511.8)"/>
    <path d="M 1109.178715209066,716.5211875422387 C 1147.5957687379898,748.535398816342 1160.4014532476313,793.3552946000865 1109.178715209066,844.5780326386516 C 1057.9559771705008,793.3552946000865 1070.7616616801422,748.535398816342 1109.178715209066,716.5211875422387 Z" fill="url(#leaf3)" opacity="0.19" transform="rotate(98.2 1109.2 780.5)"/>
    <path d="M 822.4824299267144,527.8416885161562 C 854.7764951580833,554.753409542297 865.5411835685396,592.4298189788941 822.4824299267144,635.4885726207194 C 779.4236762848892,592.4298189788941 790.1883646953455,554.753409542297 822.4824299267144,527.8416885161562 Z" fill="url(#leaf4)" opacity="0.17" transform="rotate(132.6 822.5 581.7)"/>
    <path d="M 1437.5358054886424,716.4161684134002 C 1474.9919777451387,747.6296452938137 1487.477368497304,791.3285129263926 1437.5358054886424,841.2700759350543 C 1387.5942424799807,791.3285129263926 1400.079633232146,747.6296452938137 1437.5358054886424,716.4161684134002 Z" fill="url(#leaf5)" opacity="0.19" transform="rotate(223.5 1437.5 778.8)"/>
    <path d="M 133.011905568621,511.65916418498836 C 164.52877912393257,537.9232254810813 175.03440364236977,574.6929112956116 133.011905568621,616.7154093693603 C 90.98940749487221,574.6929112956116 101.49503201330941,537.9232254810813 133.011905568621,511.65916418498836 Z" fill="url(#leaf6)" opacity="0.20" transform="rotate(65.2 133.0 564.2)"/>
    <path d="M 354.3397989256978,747.0185929845657 C 388.4354894635476,775.4316684327739 399.8007196428308,815.2099740602653 354.3397989256978,860.6708947773984 C 308.87887820856474,815.2099740602653 320.244108387848,775.4316684327739 354.3397989256978,747.0185929845657 Z" fill="url(#leaf7)" opacity="0.23" transform="rotate(91.8 354.3 803.8)"/>
    <path d="M 1584.8359293606145,80.50110994359211 C 1615.018380896893,105.65315289049079 1625.0791980756524,140.86601301614894 1584.8359293606145,181.10928173118685 C 1544.5926606455766,140.86601301614894 1554.653477824336,105.65315289049079 1584.8359293606145,80.50110994359211 Z" fill="url(#leaf8)" opacity="0.20" transform="rotate(182.0 1584.8 130.8)"/>
    <path d="M 1233.472989182789,380.6066348044698 C 1259.5335546116733,402.3237726618734 1268.2204097546348,432.72776566223854 1233.472989182789,467.47518623408433 C 1198.7255686109431,432.72776566223854 1207.4124237539047,402.3237726618734 1233.472989182789,380.6066348044698 Z" fill="url(#leaf9)" opacity="0.19" transform="rotate(319.8 1233.5 424.0)"/>
    <path d="M 390.75295710936297,425.44272633404546 C 413.63844419101764,444.5139655687577 421.26693988490257,471.2137004973548 390.75295710936297,501.7276832728944 C 360.23897433382336,471.2137004973548 367.8674700277083,444.5139655687577 390.75295710936297,425.44272633404546 Z" fill="url(#leaf10)" opacity="0.23" transform="rotate(57.9 390.8 463.6)"/>
    <path d="M 771.6776317728699,724.0098386579717 C 818.2555484412832,762.8247692149828 833.7815206640877,817.1656719947983 771.6776317728699,879.2695608860162 C 709.573742881652,817.1656719947983 725.0997151044565,762.8247692149828 771.6776317728699,724.0098386579717 Z" fill="url(#leaf11)" opacity="0.23" transform="rotate(341.1 771.7 801.6)"/>
    <path d="M 1423.2086994725612,678.8741113015066 C 1457.5648452744538,707.5042328030837 1469.0168938750846,747.5864029052917 1423.2086994725612,793.3945973078152 C 1377.4005050700378,747.5864029052917 1388.8525536706686,707.5042328030837 1423.2086994725612,678.8741113015066 Z" fill="url(#leaf12)" opacity="0.17" transform="rotate(13.2 1423.2 736.1)"/>
    <path d="M 723.06095533021,380.4332563937235 C 765.7517108301646,416.008885977019 779.9819626634828,465.81476739363274 723.06095533021,522.7357747269054 C 666.1399479969373,465.81476739363274 680.3701998302555,416.008885977019 723.06095533021,380.4332563937235 Z" fill="url(#leaf13)" opacity="0.22" transform="rotate(6.2 723.1 451.6)"/>
    <path d="M 971.4938293641302,271.66346068095174 C 999.9279347869102,295.35854853326845 1009.405969927837,328.53167152651184 971.4938293641302,366.44381209021856 C 933.5816888004234,328.53167152651184 943.0597239413502,295.35854853326845 971.4938293641302,271.66346068095174 Z" fill="url(#leaf14)" opacity="0.25" transform="rotate(175.9 971.5 319.1)"/>
    <path d="M 477.76549944726986,205.14593978535416 C 517.942516157017,238.62678704347684 531.3348550602661,285.49997320484863 477.76549944726986,339.06932881784496 C 424.1961438342735,285.49997320484863 437.5884827375226,238.62678704347684 477.76549944726986,205.14593978535416 Z" fill="url(#leaf15)" opacity="0.25" transform="rotate(14.2 477.8 272.1)"/>
    <path d="M 1546.437135809567,685.7717536366694 C 1592.2193742545865,723.9236190075188 1607.4801204029263,777.3362305267082 1546.437135809567,838.3792151200674 C 1485.3941512162078,777.3362305267082 1500.6548973645477,723.9236190075188 1546.437135809567,685.7717536366694 Z" fill="url(#leaf16)" opacity="0.22" transform="rotate(188.7 1546.4 762.1)"/>
    <path d="M 91.85201109064985,108.93524035567147 C 115.76809600050315,128.86531111388254 123.74012430378758,156.76741017537807 91.85201109064985,188.6555233885158 C 59.963897877512125,156.76741017537807 67.93592618079656,128.86531111388254 91.85201109064985,108.93524035567147 Z" fill="url(#leaf17)" opacity="0.20" transform="rotate(16.5 91.9 148.8)"/>
    <path d="M 1081.8119413286734,192.25636412203505 C 1106.9724765828614,213.22347683385834 1115.3593216675906,242.57743463041098 1081.8119413286734,276.12481496932827 C 1048.264560989756,242.57743463041098 1056.6514060744853,213.22347683385834 1081.8119413286734,192.25636412203505 Z" fill="url(#leaf18)" opacity="0.19" transform="rotate(88.8 1081.8 234.2)"/>
    <path d="M 1279.5287007323016,801.3706873256054 C 1313.2544133905358,829.475447874134 1324.4963176099473,868.8221126420739 1279.5287007323016,913.7897295197196 C 1234.5610838546559,868.8221126420739 1245.8029880740673,829.475447874134 1279.5287007323016,801.3706873256054 Z" fill="url(#leaf19)" opacity="0.16" transform="rotate(53.8 1279.5 857.6)"/>
    <path d="M 819.2433380772036,304.4037267979785 C 862.7755113374018,340.6805378481437 877.2862357574678,391.4680733183749 819.2433380772036,449.5109709986391 C 761.2004403969394,391.4680733183749 775.7111648170054,340.6805378481437 819.2433380772036,304.4037267979785 Z" fill="url(#leaf20)" opacity="0.17" transform="rotate(14.5 819.2 377.0)"/>
    <path d="M 1313.3511874701142,60.16567805350205 C 1354.0428250657133,94.0753760498347 1367.6067042642464,141.5489532447004 1313.3511874701142,195.80447003883268 C 1259.0956706759819,141.5489532447004 1272.659549874515,94.0753760498347 1313.3511874701142,60.16567805350205 Z" fill="url(#leaf21)" opacity="0.15" transform="rotate(252.0 1313.4 128.0)"/>
    <path d="M 876.318377483373,45.67323434002458 C 900.1607534720828,65.54188099728276 908.108212134986,93.35798631744422 876.318377483373,125.1478209690573 C 844.5285428317599,93.35798631744422 852.4760014946631,65.54188099728276 876.318377483373,45.67323434002458 Z" fill="url(#leaf22)" opacity="0.23" transform="rotate(65.6 876.3 85.4)"/>
    <path d="M 660.6979053254178,518.7494860496123 C 695.3322988167661,547.6114806257359 706.8770966472155,588.0182730323089 660.6979053254178,634.1974643541067 C 614.5187140036201,588.0182730323089 626.0635118340695,547.6114806257359 660.6979053254178,518.7494860496123 Z" fill="url(#leaf23)" opacity="0.21" transform="rotate(137.5 660.7 576.5)"/>
    <path d="M 155.0258850870273,516.9281118554238 C 176.3090460523897,534.6640793265592 183.40343304084385,559.4944337861488 155.0258850870273,587.8719817399653 C 126.64833713321073,559.4944337861488 133.74272412166488,534.6640793265592 155.0258850870273,516.9281118554238 Z" fill="url(#leaf24)" opacity="0.19" transform="rotate(5.7 155.0 552.4)"/>
    <path d="M 822.8302695654452,478.1175732544207 C 854.1173172789743,504.1901130156949 864.546333183484,540.6916686814789 822.8302695654452,582.4077322995176 C 781.1142059474064,540.6916686814789 791.5432218519161,504.1901130156949 822.8302695654452,478.1175732544207 Z" fill="url(#leaf25)" opacity="0.20" transform="rotate(196.9 822.8 530.3)"/>
    <path d="M 1668.2921118723953,262.0021221805348 C 1714.9394211995268,300.87487995314433 1730.4885243085705,355.2967408347977 1668.2921118723953,417.4931532709729 C 1606.09569943622,355.2967408347977 1621.6448025452637,300.87487995314433 1668.2921118723953,262.0021221805348 Z" fill="url(#leaf26)" opacity="0.23" transform="rotate(265.1 1668.3 339.7)"/>
    <path d="M 1180.3668419853336,639.741080752644 C 1211.1951432281817,665.4313317883508 1221.4712436424643,701.3976832383403 1180.3668419853336,742.5020848954711 C 1139.262440328203,701.3976832383403 1149.5385407424856,665.4313317883508 1180.3668419853336,639.741080752644 Z" fill="url(#leaf27)" opacity="0.16" transform="rotate(278.0 1180.4 691.1)"/>
    <path d="M 284.3512725645678,316.7677830852297 C 330.8561271530041,355.5218285755933 346.35774534914947,409.77749226210227 284.3512725645678,471.78396504668393 C 222.34479977998612,409.77749226210227 237.84641797613153,355.5218285755933 284.3512725645678,316.7677830852297 Z" fill="url(#leaf28)" opacity="0.18" transform="rotate(272.5 284.4 394.3)"/>
    <path d="M 889.4475213152164,90.6972835338506 C 915.2475817932698,112.1973339322284 923.8476019526208,142.29740448995733 889.4475213152164,176.69748512736183 C 855.0474406778119,142.29740448995733 863.647460837163,112.1973339322284 889.4475213152164,90.6972835338506 Z" fill="url(#leaf29)" opacity="0.22" transform="rotate(275.8 889.4 133.7)"/>
    <path d="M 745.0186134441014,261.21426700430584 C 785.667624522175,295.0884429027004 799.2172948815328,342.51228916045284 745.0186134441014,396.71097059788417 C 690.8199320066701,342.51228916045284 704.369602366028,295.0884429027004 745.0186134441014,261.21426700430584 Z" fill="url(#leaf0)" opacity="0.18" transform="rotate(167.9 745.0 329.0)"/>
    <path d="M 569.0480683345027,905.3133415001649 C 601.0300227503519,931.9649701800394 611.6906742223016,969.2772503318635 569.0480683345027,1011.9198562196624 C 526.4054624467037,969.2772503318635 537.0661139186534,931.9649701800394 569.0480683345027,905.3133415001649 Z" fill="url(#leaf1)" opacity="0.19" transform="rotate(152.0 569.0 958.6)"/>
    <path d="M 1002.3591562284249,749.638373987305 C 1024.0571420070462,767.7200288028229 1031.2898039332533,793.0343455445477 1002.3591562284249,821.9649932493761 C 973.4285085235965,793.0343455445477 980.6611704498036,767.7200288028229 1002.3591562284249,749.638373987305 Z" fill="url(#leaf2)" opacity="0.20" transform="rotate(30.2 1002.4 785.8)"/>
    <path d="M 937.8238203884018,688.2963963140027 C 965.8307213043964,711.6354804106649 975.1663549430613,744.3101981459918 937.8238203884018,781.6527327006512 C 900.4812858337424,744.3101981459918 909.8169194724072,711.6354804106649 937.8238203884018,688.2963963140027 Z" fill="url(#leaf3)" opacity="0.20" transform="rotate(112.8 937.8 735.0)"/>
    <path d="M 1772.893787314735,837.2248314320553 C 1810.0184552728044,868.1620547304467 1822.393344592161,911.4741673481944 1772.893787314735,960.9737246256205 C 1723.394230037309,911.4741673481944 1735.7691193566654,868.1620547304467 1772.893787314735,837.2248314320553 Z" fill="url(#leaf4)" opacity="0.22" transform="rotate(210.5 1772.9 899.1)"/>
    <path d="M 1134.922805282578,275.33684949904114 C 1162.2739422426112,298.129463632402 1171.3909878959555,330.03912341910717 1134.922805282578,366.5073060324845 C 1098.4546226692007,330.03912341910717 1107.571668322545,298.129463632402 1134.922805282578,275.33684949904114 Z" fill="url(#leaf5)" opacity="0.23" transform="rotate(141.8 1134.9 320.9)"/>
    <path d="M 1265.0705750344666,850.0730228224136 C 1308.8485839912644,886.5546969530785 1323.4412536435304,937.6290407360093 1265.0705750344666,995.9997193450731 C 1206.6998964254028,937.6290407360093 1221.2925660776689,886.5546969530785 1265.0705750344666,850.0730228224136 Z" fill="url(#leaf6)" opacity="0.20" transform="rotate(139.9 1265.1 923.0)"/>
    <path d="M 1023.4706203071959,312.66657687742213 C 1051.0848535084492,335.67843787846664 1060.289597908867,367.8950432799289 1023.4706203071959,404.71402088160016 C 986.6516427055246,367.8950432799289 995.8563871059424,335.67843787846664 1023.4706203071959,312.66657687742213 Z" fill="url(#leaf7)" opacity="0.17" transform="rotate(84.6 1023.5 358.7)"/>
    <path d="M 946.3947026512587,711.9909670807062 C 966.4472815378398,728.7014494861904 973.1314745000334,752.0961248538683 946.3947026512587,778.832896702643 C 919.6579308024841,752.0961248538683 926.3421237646777,728.7014494861904 946.3947026512587,711.9909670807062 Z" fill="url(#leaf8)" opacity="0.19" transform="rotate(249.1 946.4 745.4)"/>
    <path d="M 1867.071700190466,722.3178948106472 C 1910.2869200839123,758.3305780551858 1924.6919933817276,808.7483345975398 1867.071700190466,866.3686277888016 C 1809.4514069992042,808.7483345975398 1823.8564802970195,758.3305780551858 1867.071700190466,722.3178948106472 Z" fill="url(#leaf9)" opacity="0.24" transform="rotate(225.0 1867.1 794.3)"/>
    <path d="M 384.4912722220929,914.2374796168125 C 416.13228949543935,940.6049940112679 426.67929525322154,977.5195141635054 384.4912722220929,1019.707537194634 C 342.30324919096427,977.5195141635054 352.85025494874645,940.6049940112679 384.4912722220929,914.2374796168125 Z" fill="url(#leaf10)" opacity="0.22" transform="rotate(91.9 384.5 967.0)"/>
    <path d="M 901.2985590797648,658.5067479208207 C 920.6622958245345,674.6431952081288 927.1168747394577,697.23422141036 901.2985590797648,723.0525370700528 C 875.4802434200719,697.23422141036 881.9348223349951,674.6431952081288 901.2985590797648,658.5067479208207 Z" fill="url(#leaf11)" opacity="0.19" transform="rotate(226.8 901.3 690.8)"/>
    <path d="M 404.78128094309056,295.66513834575596 C 426.54236817486367,313.7993777055668 433.79606391878804,339.1873128093021 404.78128094309056,368.2020957849995 C 375.7664979673931,339.1873128093021 383.02019371131746,313.7993777055668 404.78128094309056,295.66513834575596 Z" fill="url(#leaf12)" opacity="0.18" transform="rotate(70.6 404.8 331.9)"/>
    <path d="M 1229.3093393671488,857.7441527171336 C 1267.9640200125539,889.9563865883044 1280.848913561022,935.0535140079436 1229.3093393671488,986.593088201817 C 1177.7697651732756,935.0535140079436 1190.6546587217438,889.9563865883044 1229.3093393671488,857.7441527171336 Z" fill="url(#leaf13)" opacity="0.20" transform="rotate(87.6 1229.3 922.2)"/>
    <path d="M 316.8337591740907,767.9710993788156 C 338.8076953857563,786.2827128885369 346.1323407896448,811.9189718021468 316.8337591740907,841.2175534177009 C 287.5351775585366,811.9189718021468 294.8598229624251,786.2827128885369 316.8337591740907,767.9710993788156 Z" fill="url(#leaf14)" opacity="0.17" transform="rotate(135.6 316.8 804.6)"/>
    <path d="M 1056.0776540797908,886.8954250348204 C 1086.7609118128894,912.4648064790691 1096.9886643905888,948.2619405010175 1056.0776540797908,989.1729508118156 C 1015.1666437689927,948.2619405010175 1025.3943963466922,912.4648064790691 1056.0776540797908,886.8954250348204 Z" fill="url(#leaf15)" opacity="0.18" transform="rotate(89.3 1056.1 938.0)"/>
    <path d="M 1035.7189685107764,106.73213271792993 C 1061.5968077276818,128.2969987320178 1070.222754133317,158.48781115174083 1035.7189685107764,192.99159677428145 C 1001.2151828882359,158.48781115174083 1009.841129293871,128.2969987320178 1035.7189685107764,106.73213271792993 Z" fill="url(#leaf16)" opacity="0.17" transform="rotate(222.3 1035.7 149.9)"/>
    <path d="M 1391.9513993456874,208.03097430271086 C 1430.5832032377778,240.22414421278614 1443.4604712018079,285.2945820868915 1391.9513993456874,336.8036539430119 C 1340.4423274895669,285.2945820868915 1353.319595453597,240.22414421278614 1391.9513993456874,208.03097430271086 Z" fill="url(#leaf17)" opacity="0.16" transform="rotate(189.7 1392.0 272.4)"/>
    <path d="M 1230.873422955813,881.0387502524436 C 1274.9886466735438,917.8014366838859 1289.6937212461207,969.269197687905 1230.873422955813,1028.0894959782127 C 1172.0531246655055,969.269197687905 1186.7581992380824,917.8014366838859 1230.873422955813,881.0387502524436 Z" fill="url(#leaf18)" opacity="0.21" transform="rotate(92.2 1230.9 954.6)"/>
    <path d="M 638.7691197690315,667.1667256461474 C 680.1995945090376,701.6921212628191 694.0097527557064,750.0276751261596 638.7691197690315,805.2683081128343 C 583.5284867823566,750.0276751261596 597.3386450290253,701.6921212628191 638.7691197690315,667.1667256461474 Z" fill="url(#leaf19)" opacity="0.21" transform="rotate(2.9 638.8 736.2)"/>
    <path d="M 1359.4069094578042,58.85374958355848 C 1388.8990029653205,83.43049417315544 1398.7297008011594,117.8379365985912 1359.4069094578042,157.16072794194633 C 1320.084118114449,117.8379365985912 1329.914815950288,83.43049417315544 1359.4069094578042,58.85374958355848 Z" fill="url(#leaf20)" opacity="0.19" transform="rotate(41.0 1359.4 108.0)"/>
    <path d="M 1352.5971220280676,306.9809610408269 C 1372.8170197339953,323.8308757957666 1379.5569856359712,347.4207564526822 1352.5971220280676,374.3806200605857 C 1325.637258420164,347.4207564526822 1332.37722432214,323.8308757957666 1352.5971220280676,306.9809610408269 Z" fill="url(#leaf21)" opacity="0.19" transform="rotate(250.0 1352.6 340.7)"/>
    <path d="M 455.23272815613456,117.99103159544377 C 475.7553797569492,135.0932412627893 482.5962636238874,159.03633479707304 455.23272815613456,186.3998702648259 C 427.8691926883817,159.03633479707304 434.7100765553199,135.0932412627893 455.23272815613456,117.99103159544377 Z" fill="url(#leaf22)" opacity="0.20" transform="rotate(147.0 455.2 152.2)"/>
    <path d="M 1667.1262441483889,607.8768777002365 C 1709.6078161857838,643.2781877313989 1723.7683401982488,692.8400217750263 1667.1262441483889,749.4821178248862 C 1610.484148098529,692.8400217750263 1624.644672110994,643.2781877313989 1667.1262441483889,607.8768777002365 Z" fill="url(#leaf23)" opacity="0.17" transform="rotate(263.1 1667.1 678.7)"/>
    <path d="M 854.1318409148911,966.5525279397514 C 889.8265687500201,996.2981344690255 901.7248113617297,1037.9419836100094 854.1318409148911,1085.534954056848 C 806.5388704680524,1037.9419836100094 818.4371130797621,996.2981344690255 854.1318409148911,966.5525279397514 Z" fill="url(#leaf24)" opacity="0.22" transform="rotate(340.1 854.1 1026.0)"/>
    <path d="M 1200.90671370256,383.822574492679 C 1243.4995655706664,419.316617716101 1257.6971828600351,469.00827822889175 1200.90671370256,525.7987473863669 C 1144.1162445450848,469.00827822889175 1158.3138618344535,419.316617716101 1200.90671370256,383.822574492679 Z" fill="url(#leaf25)" opacity="0.21" transform="rotate(153.5 1200.9 454.8)"/>
    <path d="M 1683.5082190817743,358.8438625321657 C 1725.5520511837346,393.8803892837993 1739.566661884388,442.93152673608625 1683.5082190817743,498.9899695387 C 1627.4497762791607,442.93152673608625 1641.464386979814,393.8803892837993 1683.5082190817743,358.8438625321657 Z" fill="url(#leaf26)" opacity="0.20" transform="rotate(34.3 1683.5 428.9)"/>
    <path d="M 326.4875881634762,641.8210032365214 C 366.1239705472669,674.8513218896802 379.3360980085304,721.0937680041027 326.4875881634762,773.9422778491569 C 273.6390783184219,721.0937680041027 286.8512057796855,674.8513218896802 326.4875881634762,641.8210032365214 Z" fill="url(#leaf27)" opacity="0.19" transform="rotate(302.8 326.5 707.9)"/>
    <path d="M 1428.6002267398137,774.9594254331347 C 1475.032451972977,813.6529464607707 1490.5098603840313,867.8238758994612 1428.6002267398137,929.7335095436789 C 1366.6905930955961,867.8238758994612 1382.1680015066504,813.6529464607707 1428.6002267398137,774.9594254331347 Z" fill="url(#leaf28)" opacity="0.16" transform="rotate(126.1 1428.6 852.3)"/>
    <path d="M 1699.5664941543218,735.4762814631843 C 1730.013410718919,760.8487119336819 1740.1623829071182,796.3701145923786 1699.5664941543218,836.9660033451748 C 1658.9706054015255,796.3701145923786 1669.1195775897247,760.8487119336819 1699.5664941543218,735.4762814631843 Z" fill="url(#leaf29)" opacity="0.18" transform="rotate(270.0 1699.6 786.2)"/>
    <path d="M 1593.6517864617201,674.2160321797663 C 1629.8575829641402,704.3875292651163 1641.9261817982801,746.6276251846065 1593.6517864617201,794.9020205211665 C 1545.37739112516,746.6276251846065 1557.4459899593,704.3875292651163 1593.6517864617201,674.2160321797663 Z" fill="url(#leaf0)" opacity="0.24" transform="rotate(132.1 1593.7 734.6)"/>
    <path d="M 1034.0683913315966,765.5565984848279 C 1079.8339867132977,803.6945946362456 1095.089185173865,857.0877892482304 1034.0683913315966,918.1085830904988 C 973.0475974893283,857.0877892482304 988.3027959498953,803.6945946362456 1034.0683913315966,765.5565984848279 Z" fill="url(#leaf1)" opacity="0.22" transform="rotate(88.1 1034.1 841.8)"/>
    <path d="M 1191.393688393392,311.5218027210907 C 1218.7147816462762,334.2893804318274 1227.8218127305709,366.1639892268588 1191.393688393392,402.5921135640375 C 1154.9655640562132,366.1639892268588 1164.072595140508,334.2893804318274 1191.393688393392,311.5218027210907 Z" fill="url(#leaf2)" opacity="0.22" transform="rotate(120.7 1191.4 357.1)"/>
    <path d="M 882.7122354114261,634.9725267935797 C 908.1311602042665,656.1549641209467 916.6041351352133,685.8103763792604 882.7122354114261,719.7022761030477 C 848.820335687639,685.8103763792604 857.2933106185858,656.1549641209467 882.7122354114261,634.9725267935797 Z" fill="url(#leaf3)" opacity="0.24" transform="rotate(18.9 882.7 677.3)"/>
    <path d="M 1737.8308287285151,535.2590389040602 C 1755.9656341376801,550.3713767450311 1762.0105692740685,571.5286497223904 1737.8308287285151,595.7083902679437 C 1713.6510881829618,571.5286497223904 1719.6960233193502,550.3713767450311 1737.8308287285151,535.2590389040602 Z" fill="url(#leaf4)" opacity="0.22" transform="rotate(281.0 1737.8 565.5)"/>
    <path d="M 771.6476461153177,712.0203579159313 C 806.090120684526,740.7224200569382 817.5709455409287,780.905307054348 771.6476461153177,826.828606479959 C 725.7243466897066,780.905307054348 737.2051715461093,740.7224200569382 771.6476461153177,712.0203579159313 Z" fill="url(#leaf5)" opacity="0.23" transform="rotate(106.0 771.6 769.4)"/>
    <path d="M 318.1181973419956,40.044543220300696 C 353.2948565655772,69.35842590661869 365.0204096401044,110.3978616674639 318.1181973419956,157.30007396557272 C 271.2159850438868,110.3978616674639 282.941538118414,69.35842590661869 318.1181973419956,40.044543220300696 Z" fill="url(#leaf6)" opacity="0.22" transform="rotate(141.8 318.1 98.7)"/>
    <path d="M 1486.2735811745697,873.1570504873846 C 1532.266487345326,911.4844722963483 1547.5974560689115,965.1428628288973 1486.2735811745697,1026.466737723239 C 1424.949706280228,965.1428628288973 1440.2806750038135,911.4844722963483 1486.2735811745697,873.1570504873846 Z" fill="url(#leaf7)" opacity="0.18" transform="rotate(278.4 1486.3 949.8)"/>
    <path d="M 1558.4827265050128,150.66849371658225 C 1592.5986105662219,179.09839710092317 1603.9705719199583,218.90026183900048 1558.4827265050128,264.388107253946 C 1512.9948810900673,218.90026183900048 1524.3668424438038,179.09839710092317 1558.4827265050128,150.66849371658225 Z" fill="url(#leaf8)" opacity="0.25" transform="rotate(328.4 1558.5 207.5)"/>
    <path d="M 1097.0211664542412,733.5116036903839 C 1137.8274959738033,767.5168782900189 1151.4296058136572,815.124262729508 1097.0211664542412,869.532702088924 C 1042.6127270948252,815.124262729508 1056.2148369346792,767.5168782900189 1097.0211664542412,733.5116036903839 Z" fill="url(#leaf9)" opacity="0.23" transform="rotate(82.8 1097.0 801.5)"/>
    <path d="M 845.3073860641456,822.7281099531104 C 874.641585316955,847.1732759971183 884.4196517345581,881.3965084587292 845.3073860641456,920.5087741291417 C 806.1951203937331,881.3965084587292 815.9731868113362,847.1732759971183 845.3073860641456,822.7281099531104 Z" fill="url(#leaf10)" opacity="0.15" transform="rotate(137.9 845.3 871.6)"/>
    <path d="M 775.2039038452867,445.94505028482325 C 807.7524042104299,473.06880058910923 818.6019043321443,511.0420510151096 775.2039038452867,554.4400515019672 C 731.8059033584292,511.0420510151096 742.6554034801436,473.06880058910923 775.2039038452867,445.94505028482325 Z" fill="url(#leaf11)" opacity="0.23" transform="rotate(154.7 775.2 500.2)"/>
    <path d="M 991.1603622352233,513.9434237083179 C 1014.0342693373581,533.0050129600969 1021.6589050380697,559.6912379125876 991.1603622352233,590.189780715434 C 960.6618194323768,559.6912379125876 968.2864551330885,533.0050129600969 991.1603622352233,513.9434237083179 Z" fill="url(#leaf12)" opacity="0.25" transform="rotate(247.5 991.2 552.1)"/>
    <path d="M 859.7738492391562,88.9943513748734 C 882.6826009214086,108.08497777675038 890.3188514821594,134.81185473937816 859.7738492391562,165.35685698238132 C 829.228846996153,134.81185473937816 836.8650975569038,108.08497777675038 859.7738492391562,88.9943513748734 Z" fill="url(#leaf13)" opacity="0.23" transform="rotate(115.3 859.8 127.2)"/>
    <path d="M 81.92945138638481,593.5250693336634 C 125.25837996164405,629.6325098130461 139.70135615339714,680.182926484182 81.92945138638481,737.9548312511943 C 24.157546619372482,680.182926484182 38.60052281112557,629.6325098130461 81.92945138638481,593.5250693336634 Z" fill="url(#leaf14)" opacity="0.16" transform="rotate(77.3 81.9 665.7)"/>
    </g>

    <!-- Text with SOLID fill only (ThorVG compatible) -->
    <text x="933.8" y="854.4"
          font-family="Arial, Helvetica, sans-serif"
          font-size="1080px"
          font-weight="bold"
          fill="#FF69B4"
          text-anchor="middle"
          transform="rotate(-1.3 960.0 540.0)">
      B
    </text>
  </g>

  <!-- Frame counter -->
  <text x="960.0" y="1050.0"
        font-family="monospace"
        font-size="24px"
        fill="#FFFFFF"
        text-anchor="middle"
        opacity="0.7">
    Frame 00003 - Compatible
  </text>
</svg>