<?xml version="1.0" encoding="UTF-8"?>
<svg xmlns="http://www.w3.org/2000/svg" viewBox="0 0 1920 1080" width="1920" height="1080">
  <defs>
    <linearGradient id="bgGrad" x1="0%" y1="0%" x2="100%" y2="100%">
      <stop offset="0%" stop-color="#00CED1"/>
      <stop offset="100%" stop-color="#FF69B4"/>
    </linearGradient>
    <clipPath id="complexClip"><polygon points="1369.9,540.0 1550.4,582.0 1591.6,631.2 1370.0,631.3 1445.2,690.0 1373.6,709.0 1405.7,775.4 1317.7,783.2 1269.5,814.4 1147.2,763.8 1113.1,805.1 1057.1,826.4 988.6,795.7 929.7,810.5 866.8,814.7 757.1,891.3 689.4,863.4 614.8,846.0 612.7,776.1 488.7,789.0 468.8,740.8 422.9,706.1 588.6,622.7 432.7,616.1 395.3,580.1 414.4,540.0 500.5,507.3 360.5,453.4 431.7,422.3 509.9,400.8 625.4,403.3 477.1,284.9 577.6,280.0 695.8,305.8 764.5,306.3 808.8,278.2 876.1,292.7 933.7,305.3 990.8,264.7 1074.5,202.5 1128.6,248.2 1123.6,344.4 1292.8,245.0 1256.1,338.7 1268.4,377.1 1420.7,351.7 1510.9,369.7 1441.7,432.7 1452.8,468.8 1539.4,498.8"/></clipPath>
    <radialGradient id="leaf0" cx="50%" cy="50%" r="70%">
      <stop offset="0%" stop-color="#00FA9A"/>
      <stop offset="50%" stop-color="#32CD32"/>
      <stop offset="100%" stop-color="#4ECDC4"/>
    </radialGradient>
    <radialGradient id="leaf1" cx="50%" cy="50%" r="70%">
      <stop offset="0%" stop-color="#00CED1"/>
      <stop offset="50%" stop-color="#FF6B6B"/>
      <stop offset="100%" stop-color="#32CD32"/>
    </radialGradient>
    <radialGradient id="leaf2" cx="50%" cy="50%" r="70%">
      <stop offset="0%" stop-color="#00CED1"/>
      <stop offset="50%" stop-color="#FFE66D"/>
      <stop offset="100%" stop-color="#9370DB"/>
    </radialGradient>
    <radialGradient id="leaf3" cx="50%" cy="50%" r="70%">
      <stop offset="0%" stop-color="#7B68EE"/>
      <stop offset="50%" stop-color="#FF69B4"/>
      <stop offset="100%" stop-color="#4ECDC4"/>
    </radialGradient>
    <radialGradient id="leaf4" cx="50%" cy="50%" r="70%">
      <stop offset="0%" stop-color="#00CED1"/>
      <stop offset="50%" stop-color="#FF6B6B"/>
      <stop offset="100%" stop-color="#9370DB"/>
    </radialGradient>
    <radialGradient id="leaf5" cx="50%" cy="50%" r="70%">
      <stop offset="0%" stop-color="#FF4500"/>
      <stop offset="50%" stop-color="#45B7D1"/>
      <stop offset="100%" stop-color="#00CED1"/>
    </radialGradient>
    <radialGradient id="leaf6" cx="50%" cy="50%" r="70%">
      <stop offset="0%" stop-color="#00CED1"/>
      <stop offset="50%" stop-color="#FFD700"/>
      <stop offset="100%" stop-color="#FF69B4"/>
    </radialGradient>
    <radialGradient id="leaf7" cx="50%" cy="50%" r="70%">
      <stop offset="0%" stop-color="#FFD700"/>
      <stop offset="50%" stop-color="#45B7D1"/>
      <stop offset="100%" stop-color="#9370DB"/>
    </radialGradient>
    <radialGradient id="leaf8" cx="50%" cy="50%" r="70%">
      <stop offset="0%" stop-color="#00FA9A"/>
      <stop offset="50%" stop-color="#FFD700"/>
      <stop offset="100%" stop-color="#FF69B4"/>
    </radialGradient>
    <radialGradient id="leaf9" cx="50%" cy="50%" r="70%">
      <stop offset="0%" stop-color="#9370DB"/>
      <stop offset="50%" stop-color="#45B7D1"/>
      <stop offset="100%" stop-color="#FF1493"/>
    </radialGradient>
    <radialGradient id="leaf10" cx="50%" cy="50%" r="70%">
      <stop offset="0%" stop-color="#9370DB"/>
      <stop offset="50%" stop-color="#00CED1"/>
      <stop offset="100%" stop-color="#96E6A1"/>
    </radialGradient>
    <radialGradient id="leaf11" cx="50%" cy="50%" r="70%">
      <stop offset="0%" stop-color="#FF6B6B"/>
      <stop offset="50%" stop-color="#FF4500"/>
      <stop offset="100%" stop-color="#DC143C"/>
    </radialGradient>
    <radialGradient id="leaf12" cx="50%" cy="50%" r="70%">
      <stop offset="0%" stop-color="#FF69B4"/>
      <stop offset="50%" stop-color="#FFE66D"/>
      <stop offset="100%" stop-color="#FFD700"/>
    </radialGradient>
    <radialGradient id="leaf13" cx="50%" cy="50%" r="70%">
      <stop offset="0%" stop-color="#FF69B4"/>
      <stop offset="50%" stop-color="#4ECDC4"/>
      <stop offset="100%" stop-color="#00FA9A"/>
    </radialGradient>
    <radialGradient id="leaf14" cx="50%" cy="50%" r="70%">
      <stop offset="0%" stop-color="#FF1493"/>
      <stop offset="50%" stop-color="#FF4500"/>
      <stop offset="100%" stop-color="#32CD32"/>
    </radialGradient>
    <radialGradient id="leaf15" cx="50%" cy="50%" r="70%">
      <stop offset="0%" stop-color="#FFD700"/>
      <stop offset="50%" stop-color="#7B68EE"/>
      <stop offset="100%" stop-color="#32CD32"/>
    </radialGradient>
    <radialGradient id="leaf16" cx="50%" cy="50%" r="70%">
      <stop offset="0%" stop-color="#FFD700"/>
      <stop offset="50%" stop-color="#96E6A1"/>
      <stop offset="100%" stop-color="#FFE66D"/>
    </radialGradient>
    <radialGradient id="leaf17" cx="50%" cy="50%" r="70%">
      <stop offset="0%" stop-color="#00CED1"/>
      <stop offset="50%" stop-color="#FF1493"/>
      <stop offset="100%" stop-color="#DC143C"/>
    </radialGradient>
    <radialGradient id="leaf18" cx="50%" cy="50%" r="70%">
      <stop offset="0%" stop-color="#FFD700"/>
      <stop offset="50%" stop-color="#4ECDC4"/>
      <stop offset="100%" stop-color="#96E6A1"/>
    </radialGradient>
    <radialGradient id="leaf19" cx="50%" cy="50%" r="70%">
      <stop offset="0%" stop-color="#FF4500"/>
      <stop offset="50%" stop-color="#00CED1"/>
      <stop offset="100%" stop-color="#96E6A1"/>
    </radialGradient>
    <radialGradient id="leaf20" cx="50%" cy="50%" r="70%">
      <stop offset="0%" stop-color="#FFD700"/>
      <stop offset="50%" stop-color="#FF1493"/>
      <stop offset="100%" stop-color="#FF69B4"/>
    </radialGradient>
    <radialGradient id="leaf21" cx="50%" cy="50%" r="70%">
      <stop offset="0%" stop-color="#DC143C"/>
      <stop offset="50%" stop-color="#9370DB"/>
      <stop offset="100%" stop-color="#FFE66D"/>
    </radialGradient>
    <radialGradient id="leaf22" cx="50%" cy="50%" r="70%">
      <stop offset="0%" stop-color="#45B7D1"/>
      <stop offset="50%" stop-color="#FF6B6B"/>
      <stop offset="100%" stop-color="#9370DB"/>
    </radialGradient>
    <radialGradient id="leaf23" cx="50%" cy="50%" r="70%">
      <stop offset="0%" stop-color="#FFE66D"/>
      <stop offset="50%" stop-color="#7B68EE"/>
      <stop offset="100%" stop-color="#96E6A1"/>
    </radialGradient>
    <radialGradient id="leaf24" cx="50%" cy="50%" r="70%">
      <stop offset="0%" stop-color="#32CD32"/>
      <stop offset="50%" stop-color="#FF6B6B"/>
      <stop offset="100%" stop-color="#FFE66D"/>
    </radialGradient>
    <radialGradient id="leaf25" cx="50%" cy="50%" r="70%">
      <stop offset="0%" stop-color="#FF4500"/>
      <stop offset="50%" stop-color="#DC143C"/>
      <stop offset="100%" stop-color="#9370DB"/>
    </radialGradient>
    <radialGradient id="leaf26" cx="50%" cy="50%" r="70%">
      <stop offset="0%" stop-color="#32CD32"/>
      <stop offset="50%" stop-color="#FFE66D"/>
      <stop offset="100%" stop-color="#FF4500"/>
    </radialGradient>
    <radialGradient id="leaf27" cx="50%" cy="50%" r="70%">
      <stop offset="0%" stop-color="#45B7D1"/>
      <stop offset="50%" stop-color="#00CED1"/>
      <stop offset="100%" stop-color="#9370DB"/>
    </radialGradient>
    <radialGradient id="leaf28" cx="50%" cy="50%" r="70%">
      <stop offset="0%" stop-color="#45B7D1"/>
      <stop offset="50%" stop-color="#96E6A1"/>
      <stop offset="100%" stop-color="#00CED1"/>
    </radialGradient>
    <radialGradient id="leaf29" cx="50%" cy="50%" r="70%">
      <stop offset="0%" stop-color="#32CD32"/>
      <stop offset="50%" stop-color="#DC143C"/>
      <stop offset="100%" stop-color="#FF6B6B"/>
    </radialGradient>
  </defs>

  <!-- Scaled content -->
  <g transform="translate(960.0,540.0) scale(3.0) translate(-960.0,-540.0)">
    <!-- Background -->
    <rect width="1920" height="1080" fill="url(#bgGrad)"/>
    
    <!-- Leaves with clip-path -->
    <g clip-path="url(#complexClip)">
    <path d="M 466.7424645538893,70.20131181288221 C 494.25769936808484,93.13067415804514 503.42944430615,125.23178144127324 466.7424645538893,161.91876119353392 C 430.0554848016286,125.23178144127324 439.22722973969377,93.13067415804514 466.7424645538893,70.20131181288221 Z" fill="url(#leaf0)" opacity="0.16" transform="rotate(317.6 466.7 116.1)"/>
    <path d="M 1525.4607129997726,848.0498755197534 C 1555.6048900734,873.1700230811097 1565.6529490979424,908.3382296670082 1525.4607129997726,948.5304657651782 C 1485.2684769016028,908.3382296670082 1495.3165359261452,873.1700230811097 1525.4607129997726,848.0498755197534 Z" fill="url(#leaf1)" opacity="0.23" transform="rotate(200.6 1525.5 898.3)"/>
    <path d="M 1571.334199814842,561.3772882724593 C 1599.2826900689217,584.6676968175257 1608.5988534869482,617.2742687806187 1571.334199814842,654.538922452725 C 1534.0695461427356,617.2742687806187 1543.385709560762,584.6676968175257 1571.334199814842,561.3772882724593 Z" fill="url(#leaf2)" opacity="0.18" transform="rotate(91.6 1571.3 608.0)"/>
    <path d="M 1332.0253568594069,649.0963129154213 C 1358.0713200175248,670.8012822138528 1366.7533077368973,701.188239231657 1332.0253568594069,735.9161901091475 C 1297.2974059819164,701.188239231657 1305.979393701289,670.8012822138528 1332.0253568594069,649.0963129154213 Z" fill="url(#leaf3)" opacity="0.22" transform="rotate(233.0 1332.0 692.5)"/>
    <path d="M 567.9082756111103,183.56570211793283 C 586.7314229199578,199.25165820863904 593.0058053562402,221.21199673562776 567.9082756111103,246.30952648075774 C 542.8107458659804,221.21199673562776 549.0851283022628,199.25165820863904 567.9082756111103,183.56570211793283 Z" fill="url(#leaf4)" opacity="0.21" transform="rotate(134.1 567.9 214.9)"/>
    <path d="M 233.90382389344282,384.4123444383079 C 281.50267125087623,424.07805056950247 297.36895370335407,479.6100391531748 233.90382389344282,543.0751689630861 C 170.43869408353157,479.6100391531748 186.3049765360094,424.07805056950247 233.90382389344282,384.4123444383079 Z" fill="url(#leaf5)" opacity="0.22" transform="rotate(282.8 233.9 463.7)"/>
    <path d="M 1122.124152261442,262.365949860331 C 1159.5764758587973,293.5762195247937 1172.0605837245826,337.2705970550416 1122.124152261442,387.20702851818197 C 1072.1877207983016,337.2705970550416 1084.671828664087,293.5762195247937 1122.124152261442,262.365949860331 Z" fill="url(#leaf6)" opacity="0.19" transform="rotate(279.0 1122.1 324.8)"/>
    <path d="M 1500.2565921069356,215.65526728593704 C 1542.2990898680061,250.69068208682918 1556.313255788363,299.74026280807817 1500.2565921069356,355.7969264895056 C 1444.1999284255082,299.74026280807817 1458.214094345865,250.69068208682918 1500.2565921069356,215.65526728593704 Z" fill="url(#leaf7)" opacity="0.23" transform="rotate(320.9 1500.3 285.7)"/>
    <path d="M 1057.4873668920998,964.1660040635159 C 1096.59102423541,996.752385182941 1109.62557668318,1042.3733187501361 1057.4873668920998,1094.5115285412164 C 1005.3491571010195,1042.3733187501361 1018.3837095487896,996.752385182941 1057.4873668920998,964.1660040635159 Z" fill="url(#leaf8)" opacity="0.20" transform="rotate(149.9 1057.5 1029.3)"/>
    <path d="M 758.6290216503963,150.84680735545376 C 789.1887345283119,176.3132347537167 799.375305487617,211.96623311128477 758.6290216503963,252.71251694850545 C 717.8827378131757,211.96623311128477 728.0693087724808,176.3132347537167 758.6290216503963,150.84680735545376 Z" fill="url(#leaf9)" opacity="0.24" transform="rotate(77.8 758.6 201.8)"/>
    <path d="M 388.40442566044686,947.2874118110434 C 425.38169174187425,978.1018002122329 437.70744710235005,1021.2419439738982 388.40442566044686,1070.5449654158015 C 339.1014042185437,1021.2419439738982 351.4271595790195,978.1018002122329 388.40442566044686,947.2874118110434 Z" fill="url(#leaf10)" opacity="0.22" transform="rotate(316.1 388.4 1008.9)"/>
    <path d="M 1732.882097416551,484.2909890076782 C 1753.054460197559,501.1012913251849 1759.7785811245617,524.6357145696942 1732.882097416551,551.5321982777048 C 1705.9856137085403,524.6357145696942 1712.709734635543,501.1012913251849 1732.882097416551,484.2909890076782 Z" fill="url(#leaf11)" opacity="0.22" transform="rotate(3.6 1732.9 517.9)"/>
    <path d="M 1837.437463740331,101.47866331530811 C 1869.5970490781,128.27831776344908 1880.3169108573566,165.79783399084647 1837.437463740331,208.67728110787203 C 1794.5580166233053,165.79783399084647 1805.2778784025618,128.27831776344908 1837.437463740331,101.47866331530811 Z" fill="url(#leaf12)" opacity="0.21" transform="rotate(278.1 1837.4 155.1)"/>
    <path d="M 1763.5643455879065,755.6322477830033 C 1799.5412044714215,785.6129635192658 1811.5334907659262,827.5859655500332 1763.5643455879065,875.555110728053 C 1715.5952004098867,827.5859655500332 1727.5874867043915,785.6129635192658 1763.5643455879065,755.6322477830033 Z" fill="url(#leaf13)" opacity="0.23" transform="rotate(21.5 1763.6 815.6)"/>
    <path d="M 1834.4628554993071,27.787566729553973 C 1869.238989844153,56.76767868359211 1880.831034625768,97.3398354192455 1834.4628554993071,143.70801454570653 C 1788.0946763728462,97.3398354192455 1799.6867211544613,56.76767868359211 1834.4628554993071,27.787566729553973 Z" fill="url(#leaf14)" opacity="0.15" transform="rotate(277.7 1834.5 85.7)"/>
    <path d="M 665.0881966550635,461.35722359673633 C 690.2511368741889,482.3263404460075 698.6387836138973,511.68310403498714 665.0881966550635,545.2336909938209 C 631.5376096962297,511.68310403498714 639.9252564359381,482.3263404460075 665.0881966550635,461.35722359673633 Z" fill="url(#leaf15)" opacity="0.23" transform="rotate(298.1 665.1 503.3)"/>
    <path d="M 1757.8597662046766,578.9612187211078 C 1785.8455913029668,602.2827396363496 1795.1741996690635,634.9328689176882 1757.8597662046766,672.2473023820751 C 1720.5453327402897,634.9328689176882 1729.8739411063864,602.2827396363496 1757.8597662046766,578.9612187211078 Z" fill="url(#leaf16)" opacity="0.21" transform="rotate(105.2 1757.9 625.6)"/>
    <path d="M 332.552396759466,72.93271030198423 C 356.54042582259814,92.92273452126105 364.5364355103089,120.90876842824859 332.552396759466,152.8928071790915 C 300.5683580086231,120.90876842824859 308.5643676963338,92.92273452126105 332.552396759466,72.93271030198423 Z" fill="url(#leaf17)" opacity="0.24" transform="rotate(282.2 332.6 112.9)"/>
    <path d="M 1272.3632040024859,232.8716809326104 C 1314.891753569521,268.31213890513953 1329.0679367585326,317.92878006668036 1272.3632040024859,374.63351282272697 C 1215.6584712464391,317.92878006668036 1229.8346544354508,268.31213890513953 1272.3632040024859,232.8716809326104 Z" fill="url(#leaf18)" opacity="0.23" transform="rotate(17.2 1272.4 303.8)"/>
    <path d="M 1696.2009732931772,413.8711843266094 C 1739.664288159523,450.0906133818977 1754.1520597816384,500.79781405930123 1696.2009732931772,558.7489005477624 C 1638.249886804716,500.79781405930123 1652.7376584268313,450.0906133818977 1696.2009732931772,413.8711843266094 Z" fill="url(#leaf19)" opacity="0.18" transform="rotate(243.4 1696.2 486.3)"/>
    <path d="M 489.2396532317004,122.756802606632 C 536.4696336928356,162.11511965757796 552.212960513214,217.21676352890236 489.2396532317004,280.19007081041593 C 426.2663459501868,217.21676352890236 442.0096727705652,162.11511965757796 489.2396532317004,122.756802606632 Z" fill="url(#leaf20)" opacity="0.19" transform="rotate(260.6 489.2 201.5)"/>
    <path d="M 355.70153173777754,731.6015712066031 C 384.08889537321465,755.2577075694675 393.55134991836036,788.3762984774775 355.70153173777754,826.2261166580603 C 317.8517135571947,788.3762984774775 327.31416810234043,755.2577075694675 355.70153173777754,731.6015712066031 Z" fill="url(#leaf21)" opacity="0.18" transform="rotate(233.1 355.7 778.9)"/>
    <path d="M 1470.6407851056642,363.3357142856717 C 1494.0756053403184,382.86473114788345 1501.887212085203,410.20535475497985 1470.6407851056642,441.45178173451865 C 1439.3943581261256,410.20535475497985 1447.20596487101,382.86473114788345 1470.6407851056642,363.3357142856717 Z" fill="url(#leaf22)" opacity="0.23" transform="rotate(148.6 1470.6 402.4)"/>
    <path d="M 862.7860932240134,335.49301622588007 C 895.119372106422,362.43741529455394 905.8971317338916,400.1595739906973 862.7860932240134,443.27061250057545 C 819.6750547141352,400.1595739906973 830.4528143416047,362.43741529455394 862.7860932240134,335.49301622588007 Z" fill="url(#leaf23)" opacity="0.24" transform="rotate(14.4 862.8 389.4)"/>
    <path d="M 1775.178560328855,380.0042428877646 C 1816.3066093329335,414.27761705783 1830.0159590009596,462.2603408959216 1775.178560328855,517.0977395680263 C 1720.3411616567503,462.2603408959216 1734.0505113247764,414.27761705783 1775.178560328855,380.0042428877646 Z" fill="url(#leaf24)" opacity="0.25" transform="rotate(87.4 1775.2 448.6)"/>
    <path d="M 1254.6646926553326,842.2382281266135 C 1298.8497942599774,879.0591461304841 1313.5781614615257,930.6084313359031 1254.6646926553326,989.5219001420961 C 1195.7512238491395,930.6084313359031 1210.4795910506878,879.0591461304841 1254.6646926553326,842.2382281266135 Z" fill="url(#leaf25)" opacity="0.22" transform="rotate(343.5 1254.7 915.9)"/>
    <path d="M 1807.3940239636977,728.8962460454579 C 1850.7330220831348,765.0120778116554 1865.1793547896139,815.574242284332 1807.3940239636977,873.359573110248 C 1749.6086931377815,815.574242284332 1764.0550258442606,765.0120778116554 1807.3940239636977,728.8962460454579 Z" fill="url(#leaf26)" opacity="0.19" transform="rotate(205.9 1807.4 801.1)"/>
    <path d="M 875.65443027986,296.485509447246 C 909.5499460641795,324.7317726008456 920.8484513256194,364.2765410158851 875.65443027986,409.47056206164444 C 830.4604092341006,364.2765410158851 841.7589144955405,324.7317726008456 875.65443027986,296.485509447246 Z" fill="url(#leaf27)" opacity="0.18" transform="rotate(37.7 875.7 353.0)"/>
    <path d="M 444.9957665344201,606.5546016137166 C 490.95070254024114,644.8503816185674 506.2690145421815,698.4644736253586 444.9957665344201,759.7377216331199 C 383.72251852665875,698.4644736253586 399.0408305285991,644.8503816185674 444.9957665344201,606.5546016137166 Z" fill="url(#leaf28)" opacity="0.17" transform="rotate(5.5 445.0 683.1)"/>
    <path d="M 799.8800269585488,300.8883152764265 C 834.8089251110672,329.99573040352516 846.4518911619066,370.74611158146325 799.8800269585488,417.3179757848211 C 753.308162755191,370.74611158146325 764.9511288060304,329.99573040352516 799.8800269585488,300.8883152764265 Z" fill="url(#leaf29)" opacity="0.19" transform="rotate(163.7 799.9 359.1)"/>
    <path d="M 790.9946177965215,656.1943131414683 C 837.6700608028738,695.0905156467619 853.2285418049911,749.5451991541728 790.9946177965215,811.7791231626423 C 728.760693788052,749.5451991541728 744.3191747901693,695.0905156467619 790.9946177965215,656.1943131414683 Z" fill="url(#leaf0)" opacity="0.16" transform="rotate(95.3 791.0 734.0)"/>
    <path d="M 419.82770395726556,797.439900804838 C 456.0072766913699,827.5895447499249 468.0671342694047,869.7990462730467 419.82770395726556,918.0384765851858 C 371.58827364512643,869.7990462730467 383.6481312231612,827.5895447499249 419.82770395726556,797.439900804838 Z" fill="url(#leaf1)" opacity="0.22" transform="rotate(282.2 419.8 857.7)"/>
    <path d="M 58.66946194558405,879.588897629035 C 76.69679073678945,894.6116716217061 82.70590033385793,915.6435552114458 58.66946194558405,939.6799935997196 C 34.63302355731017,915.6435552114458 40.64213315437864,894.6116716217061 58.66946194558405,879.588897629035 Z" fill="url(#leaf2)" opacity="0.16" transform="rotate(107.7 58.7 909.6)"/>
    <path d="M 174.91584038643845,910.6079070797689 C 221.7246757967587,949.6152699217025 237.3276209335321,1004.2255779004095 174.91584038643845,1066.6373584475032 C 112.50405983934478,1004.2255779004095 128.1070049761182,949.6152699217025 174.91584038643845,910.6079070797689 Z" fill="url(#leaf3)" opacity="0.23" transform="rotate(319.8 174.9 988.6)"/>
    <path d="M 449.74718503017317,965.5932063757455 C 487.4775103768197,997.0351441646176 500.05428549236854,1041.0538570690385 449.74718503017317,1091.360957531234 C 399.4400845679778,1041.0538570690385 412.01685968352666,997.0351441646176 449.74718503017317,965.5932063757455 Z" fill="url(#leaf4)" opacity="0.22" transform="rotate(126.0 449.7 1028.5)"/>
    <path d="M 1083.4533239414354,373.2498777247223 C 1124.9055378617288,407.79338932496677 1138.7229425018265,456.154305565309 1083.4533239414354,511.4239241257002 C 1028.1837053810443,456.154305565309 1042.001110021142,407.79338932496677 1083.4533239414354,373.2498777247223 Z" fill="url(#leaf5)" opacity="0.19" transform="rotate(208.3 1083.5 442.3)"/>
    <path d="M 570.0598174134009,692.2114424918982 C 612.3652151771028,727.4659406283164 626.46701443167,776.8222380193018 570.0598174134009,833.229435037571 C 513.6526203951317,776.8222380193018 527.754419649699,727.4659406283164 570.0598174134009,692.2114424918982 Z" fill="url(#leaf6)" opacity="0.24" transform="rotate(105.0 570.1 762.7)"/>
    <path d="M 1380.6492549105778,852.1510882978791 C 1410.6808351383872,877.1774051543869 1420.6913618809904,912.2142487534978 1380.6492549105778,952.2563557239102 C 1340.6071479401653,912.2142487534978 1350.6176746827684,877.1774051543869 1380.6492549105778,852.1510882978791 Z" fill="url(#leaf7)" opacity="0.18" transform="rotate(42.1 1380.6 902.2)"/>
    <path d="M 161.54075024228587,117.53276688289847 C 198.05809288958406,147.96388575564697 210.23054043868348,190.56745217749486 161.54075024228587,239.25724237389247 C 112.85096004588826,190.56745217749486 125.02340759498767,147.96388575564697 161.54075024228587,117.53276688289847 Z" fill="url(#leaf8)" opacity="0.22" transform="rotate(14.0 161.5 178.4)"/>
    <path d="M 313.9740698544716,904.8262123432469 C 360.9591044340272,943.9804078262099 376.6207826272124,998.7962815023582 313.9740698544716,1061.442994275099 C 251.3273570817308,998.7962815023582 266.98903527491603,943.9804078262099 313.9740698544716,904.8262123432469 Z" fill="url(#leaf9)" opacity="0.19" transform="rotate(347.3 314.0 983.1)"/>
    <path d="M 1421.788383376508,42.187169871023734 C 1448.368976430661,64.33766408281791 1457.2291741153786,95.34835597932977 1421.788383376508,130.78914671820044 C 1386.3475926376373,95.34835597932977 1395.2077903223549,64.33766408281791 1421.788383376508,42.187169871023734 Z" fill="url(#leaf10)" opacity="0.18" transform="rotate(151.3 1421.8 86.5)"/>
    <path d="M 806.2023865779538,828.4450452130976 C 825.4241598621378,844.4631896165844 831.8314176235325,866.8885917814657 806.2023865779538,892.5176228270444 C 780.5733555323751,866.8885917814657 786.9806132937698,844.4631896165844 806.2023865779538,828.4450452130976 Z" fill="url(#leaf11)" opacity="0.18" transform="rotate(89.3 806.2 860.5)"/>
    <path d="M 297.6469034235255,848.1072397442769 C 334.43495337070453,878.7639480335927 346.6976366864309,921.683339638635 297.6469034235255,970.7340729015403 C 248.5961701606201,921.683339638635 260.85885347634644,878.7639480335927 297.6469034235255,848.1072397442769 Z" fill="url(#leaf12)" opacity="0.23" transform="rotate(140.4 297.6 909.4)"/>
    <path d="M 1581.0864502803756,131.20706033479652 C 1615.8459457930344,160.17330659534557 1627.432444297254,200.7260513601142 1581.0864502803756,247.0720453769927 C 1534.7404562634972,200.7260513601142 1546.3269547677169,160.17330659534557 1581.0864502803756,131.20706033479652 Z" fill="url(#leaf13)" opacity="0.19" transform="rotate(303.4 1581.1 189.1)"/>
    <path d="M 1556.2179810263535,182.78020415263904 C 1585.3060887857057,207.0202939520991 1595.0021247054897,240.9564196713432 1556.2179810263535,279.7405633504793 C 1517.4338373472174,240.9564196713432 1527.1298732670014,207.0202939520991 1556.2179810263535,182.78020415263904 Z" fill="url(#leaf14)" opacity="0.23" transform="rotate(221.3 1556.2 231.3)"/>
    <path d="M 1092.699558515188,407.10385963414825 C 1111.8342698780568,423.04945243653884 1118.212506999013,445.37328235988565 1092.699558515188,470.8862308437106 C 1067.1866100313632,445.37328235988565 1073.5648471523193,423.04945243653884 1092.699558515188,407.10385963414825 Z" fill="url(#leaf15)" opacity="0.22" transform="rotate(102.7 1092.7 439.0)"/>
    <path d="M 1306.6902029046028,559.0949760234627 C 1329.807315503145,578.3592365222479 1337.5130197026592,605.3292012205472 1306.6902029046028,636.1520180186036 C 1275.8673861065463,605.3292012205472 1283.5730903060605,578.3592365222479 1306.6902029046028,559.0949760234627 Z" fill="url(#leaf16)" opacity="0.20" transform="rotate(178.3 1306.7 597.6)"/>
    <path d="M 1758.3660352807635,565.228979435145 C 1805.1812076011563,604.2416230354722 1820.7862650412872,658.8593240759303 1758.3660352807635,721.2795538364539 C 1695.94580552024,658.8593240759303 1711.5508629603708,604.2416230354722 1758.3660352807635,565.228979435145 Z" fill="url(#leaf17)" opacity="0.23" transform="rotate(342.4 1758.4 643.3)"/>
    <path d="M 148.50203615223597,510.84837822701013 C 189.94666478127257,545.3855687512073 203.76154099095146,593.7376354850834 148.50203615223597,648.9971403237988 C 93.24253131352049,593.7376354850834 107.05740752319937,545.3855687512073 148.50203615223597,510.84837822701013 Z" fill="url(#leaf18)" opacity="0.25" transform="rotate(115.0 148.5 579.9)"/>
    <path d="M 1378.9824371070697,308.6258856918586 C 1407.9042186150434,332.7273702818368 1417.5448124510347,366.4694487078062 1378.9824371070697,405.03182405177125 C 1340.4200617631047,366.4694487078062 1350.060655599096,332.7273702818368 1378.9824371070697,308.6258856918586 Z" fill="url(#leaf19)" opacity="0.22" transform="rotate(89.3 1379.0 356.8)"/>
    <path d="M 97.6891948666027,792.5420919647922 C 136.2511594854498,824.6770624804981 149.10514769173216,869.6660212024864 97.6891948666027,921.0819740276158 C 46.27324204147326,869.6660212024864 59.12723024775563,824.6770624804981 97.6891948666027,792.5420919647922 Z" fill="url(#leaf20)" opacity="0.16" transform="rotate(323.1 97.7 856.8)"/>
    <path d="M 286.5306488099642,37.235952021736935 C 321.8670047174387,66.68291527796569 333.64579001993025,107.90866383668597 286.5306488099642,155.023805046652 C 239.41550759999816,107.90866383668597 251.19429290248968,66.68291527796569 286.5306488099642,37.235952021736935 Z" fill="url(#leaf21)" opacity="0.19" transform="rotate(22.9 286.5 96.1)"/>
    <path d="M 1275.3064220454708,516.3708030132719 C 1305.5524088064426,541.5757919807485 1315.6344043934332,576.8627765352156 1275.3064220454708,617.1907588831781 C 1234.9784396975083,576.8627765352156 1245.060435284499,541.5757919807485 1275.3064220454708,516.3708030132719 Z" fill="url(#leaf22)" opacity="0.20" transform="rotate(245.0 1275.3 566.8)"/>
    <path d="M 548.466824646007,136.26978932484593 C 584.1695709778717,166.02207793473318 596.0704864218266,207.6752819885753 548.466824646007,255.2789437643949 C 500.8631628701874,207.6752819885753 512.7640783141424,166.02207793473318 548.466824646007,136.26978932484593 Z" fill="url(#leaf23)" opacity="0.23" transform="rotate(314.6 548.5 195.8)"/>
    <path d="M 1048.6765281454655,165.2813084408802 C 1086.1392792217896,196.50026767115028 1098.6268629138976,240.20681059352844 1048.6765281454655,290.1571453619606 C 998.7261933770333,240.20681059352844 1011.2137770691413,196.50026767115028 1048.6765281454655,165.2813084408802 Z" fill="url(#leaf24)" opacity="0.15" transform="rotate(201.8 1048.7 227.7)"/>
    <path d="M 1860.9658092014606,579.7782936123244 C 1879.7947844318705,595.4691063043327 1886.071109508674,617.4362440731444 1860.9658092014606,642.5415443803577 C 1835.8605088942472,617.4362440731444 1842.1368339710507,595.4691063043327 1860.9658092014606,579.7782936123244 Z" fill="url(#leaf25)" opacity="0.24" transform="rotate(232.8 1861.0 611.2)"/>
    <path d="M 465.0995860544551,614.3651732504901 C 508.4869662787885,650.5213234374346 522.9494263535663,701.1399336991569 465.0995860544551,758.9897739982681 C 407.24974575534384,701.1399336991569 421.71220583012166,650.5213234374346 465.0995860544551,614.3651732504901 Z" fill="url(#leaf26)" opacity="0.16" transform="rotate(134.6 465.1 686.7)"/>
    <path d="M 771.593158204356,517.0152835547024 C 819.4045728577908,556.8581290992314 835.3417110756023,612.6381128615719 771.593158204356,676.3866657328183 C 707.8446053331096,612.6381128615719 723.7817435509212,556.8581290992314 771.593158204356,517.0152835547024 Z" fill="url(#leaf27)" opacity="0.23" transform="rotate(142.3 771.6 596.7)"/>
    <path d="M 1061.8722711045975,67.17118057710827 C 1087.6554832780778,88.65719072167522 1096.2498873359045,118.73760492406893 1061.8722711045975,153.11522115537605 C 1027.4946548732905,118.73760492406893 1036.0890589311173,88.65719072167522 1061.8722711045975,67.17118057710827 Z" fill="url(#leaf28)" opacity="0.21" transform="rotate(196.2 1061.9 110.1)"/>
    <path d="M 1057.158227337727,276.2745970444979 C 1098.0384829943791,310.3414767583745 1111.6652348799296,358.03510835780173 1057.158227337727,412.5421159000043 C 1002.6512197955245,358.03510835780173 1016.2779716810752,310.3414767583745 1057.158227337727,276.2745970444979 Z" fill="url(#leaf29)" opacity="0.17" transform="rotate(244.9 1057.2 344.4)"/>
    <path d="M 155.92610234231086,78.71072461140996 C 199.3464057523481,114.894310786441 213.8198402223605,165.55133143148444 155.92610234231086,223.4450693115341 C 98.0323644622612,165.55133143148444 112.50579893227362,114.894310786441 155.92610234231086,78.71072461140996 Z" fill="url(#leaf0)" opacity="0.18" transform="rotate(138.9 155.9 151.1)"/>
    <path d="M 1514.7331453543245,-5.953259348360746 C 1559.112890166374,31.02986132834718 1573.9061384370573,82.80623027573827 1514.7331453543245,141.97922335847096 C 1455.5601522715917,82.80623027573827 1470.353400542275,31.02986132834718 1514.7331453543245,-5.953259348360746 Z" fill="url(#leaf1)" opacity="0.19" transform="rotate(330.8 1514.7 68.0)"/>
    <path d="M 1610.5648979880825,303.42432384773747 C 1635.9543335388776,324.58218680673326 1644.4174787224758,354.20319494932744 1610.5648979880825,388.05577568372075 C 1576.7123172536892,354.20319494932744 1585.1754624372875,324.58218680673326 1610.5648979880825,303.42432384773747 Z" fill="url(#leaf2)" opacity="0.23" transform="rotate(126.2 1610.6 345.7)"/>
    <path d="M 742.3686449550785,890.1419840467144 C 784.2595362805368,925.051060151263 798.2231667223564,973.9237666976311 742.3686449550785,1029.778288464909 C 686.5141231878006,973.9237666976311 700.4777536296201,925.051060151263 742.3686449550785,890.1419840467144 Z" fill="url(#leaf3)" opacity="0.19" transform="rotate(72.9 742.4 960.0)"/>
    <path d="M 688.6000268617078,40.16902006937906 C 707.5251294942254,55.939938929810424 713.8334970383979,78.01922533441433 688.6000268617078,103.25269551110452 C 663.3665566850176,78.01922533441433 669.6749242291901,55.939938929810424 688.6000268617078,40.16902006937906 Z" fill="url(#leaf4)" opacity="0.20" transform="rotate(215.7 688.6 71.7)"/>
    <path d="M 1544.1436655107943,403.4505065847009 C 1571.4110298971468,426.1733102399946 1580.5001513592642,457.98523535740577 1544.1436655107943,494.3417212058757 C 1507.7871796623244,457.98523535740577 1516.8763011244419,426.1733102399946 1544.1436655107943,403.4505065847009 Z" fill="url(#leaf5)" opacity="0.23" transform="rotate(187.4 1544.1 448.9)"/>
    <path d="M 410.2160508113506,200.8986802539909 C 435.55691176574953,222.01606438265668 444.0038654172158,251.58040216278877 410.2160508113506,285.368216768654 C 376.4282362054854,251.58040216278877 384.8751898569517,222.01606438265668 410.2160508113506,200.8986802539909 Z" fill="url(#leaf6)" opacity="0.23" transform="rotate(195.0 410.2 243.1)"/>
    <path d="M 226.07147664577303,858.6292120181755 C 271.1469978668435,896.1921463690676 286.1721716072003,948.7802544603165 226.07147664577303,1008.8809494217438 C 165.97078168434575,948.7802544603165 180.99595542470257,896.1921463690676 226.07147664577303,858.6292120181755 Z" fill="url(#leaf7)" opacity="0.15" transform="rotate(35.5 226.1 933.8)"/>
    <path d="M 1171.1784151369325,433.21931483546405 C 1197.3356760365434,455.01703225180654 1206.0547630030806,485.5338366346861 1171.1784151369325,520.4101845008341 C 1136.3020672707844,485.5338366346861 1145.0211542373215,455.01703225180654 1171.1784151369325,433.21931483546405 Z" fill="url(#leaf8)" opacity="0.20" transform="rotate(328.8 1171.2 476.8)"/>
    <path d="M 664.1967435353035,279.88960393261584 C 702.0775867016619,311.45697323791444 714.7045344237813,355.6512902653324 664.1967435353035,406.1590811538101 C 613.6889526468258,355.6512902653324 626.3159003689452,311.45697323791444 664.1967435353035,279.88960393261584 Z" fill="url(#leaf9)" opacity="0.23" transform="rotate(13.7 664.2 343.0)"/>
    <path d="M 541.71834130197,473.23130265824074 C 568.0616949739784,495.1840973849145 576.842812864648,525.9180100022577 541.71834130197,561.0424815649355 C 506.5938697392921,525.9180100022577 515.3749876299615,495.1840973849145 541.71834130197,473.23130265824074 Z" fill="url(#leaf10)" opacity="0.24" transform="rotate(77.9 541.7 517.1)"/>
    <path d="M 1711.5425399465664,322.16639897509845 C 1732.9534144292372,340.00879437732414 1740.0903725901276,364.9881479404402 1711.5425399465664,393.5359805840013 C 1682.9947073030053,364.9881479404402 1690.1316654638956,340.00879437732414 1711.5425399465664,322.16639897509845 Z" fill="url(#leaf11)" opacity="0.23" transform="rotate(82.1 1711.5 357.9)"/>
    <path d="M 1142.5923031764075,608.3974857207381 C 1185.3356937041797,644.0169778272148 1199.5834905467702,693.8842667762822 1142.5923031764075,750.8754541466449 C 1085.6011158060448,693.8842667762822 1099.8489126486354,644.0169778272148 1142.5923031764075,608.3974857207381 Z" fill="url(#leaf12)" opacity="0.19" transform="rotate(57.4 1142.6 679.6)"/>
    <path d="M 1202.8483025640642,476.4689004021898 C 1240.5697231074378,507.9034175216678 1253.143529955229,551.911741488937 1202.8483025640642,602.2069688801018 C 1152.5530751728993,551.911741488937 1165.1268820206906,507.9034175216678 1202.8483025640642,476.4689004021898 Z" fill="url(#leaf13)" opacity="0.16" transform="rotate(152.2 1202.8 539.3)"/>
    <path d="M 330.512072825992,87.50411448814671 C 353.5132090116752,106.67172797621606 361.180254406903,133.50638685951316 330.512072825992,164.1745684404241 C 299.843891245081,133.50638685951316 307.5109366403088,106.67172797621606 330.512072825992,87.50411448814671 Z" fill="url(#leaf14)" opacity="0.15" transform="rotate(234.2 330.5 125.8)"/>
    <path d="M 802.8817001800111,102.50774541402254 C 842.1440920347763,135.22640529299358 855.2315559863647,181.03252912355302 802.8817001800111,233.3823849299067 C 750.5318443736575,181.03252912355302 763.6193083252458,135.22640529299358 802.8817001800111,102.50774541402254 Z" fill="url(#leaf15)" opacity="0.16" transform="rotate(302.3 802.9 167.9)"/>
    <path d="M 183.43340568033483,867.1906851792496 C 231.1730270254405,906.9737029668377 247.08623414047574,962.6699278694609 183.43340568033483,1026.3227563296018 C 119.78057722019392,962.6699278694609 135.69378433522917,906.9737029668377 183.43340568033483,867.1906851792496 Z" fill="url(#leaf16)" opacity="0.16" transform="rotate(194.7 183.4 946.8)"/>
    <path d="M 1318.9129286412158,531.8033526900674 C 1337.7730996219384,547.5201618406696 1344.0598232821794,569.5236946515128 1318.9129286412158,594.6705892924763 C 1293.7660340002521,569.5236946515128 1300.0527576604932,547.5201618406696 1318.9129286412158,531.8033526900674 Z" fill="url(#leaf17)" opacity="0.15" transform="rotate(37.8 1318.9 563.2)"/>
    <path d="M 1115.7599716005052,593.2883954499412 C 1134.3981707395958,608.82022806585 1140.6109037859592,630.5647937281223 1115.7599716005052,655.4157259135764 C 1090.9090394150512,630.5647937281223 1097.1217724614146,608.82022806585 1115.7599716005052,593.2883954499412 Z" fill="url(#leaf18)" opacity="0.17" transform="rotate(48.4 1115.8 624.4)"/>
    <path d="M 751.9229357589461,239.65009721376035 C 775.3154813210389,259.143885182171 783.1129965084032,286.435188337946 751.9229357589461,317.62524908740306 C 720.732875009489,286.435188337946 728.5303901968533,259.143885182171 751.9229357589461,239.65009721376035 Z" fill="url(#leaf19)" opacity="0.21" transform="rotate(61.5 751.9 278.6)"/>
    <path d="M 1783.302637138265,618.060816757769 C 1825.117757035917,652.9067500058122 1839.0561303351344,701.6910565530729 1783.302637138265,757.4445497499422 C 1727.5491439413956,701.6910565530729 1741.487517240613,652.9067500058122 1783.302637138265,618.060816757769 Z" fill="url(#leaf20)" opacity="0.21" transform="rotate(161.2 1783.3 687.8)"/>
    <path d="M 708.1480695987905,51.79044939800265 C 734.006426335731,73.33908001211978 742.6258785813778,103.50716287188375 708.1480695987905,137.98497185447115 C 673.6702606162031,103.50716287188375 682.2897128618499,73.33908001211978 708.1480695987905,51.79044939800265 Z" fill="url(#leaf21)" opacity="0.20" transform="rotate(136.7 708.1 94.9)"/>
    <path d="M 1826.2901362684818,61.659325767564496 C 1860.4924429249322,90.16124798127326 1871.8932118104158,130.06393908046553 1826.2901362684818,175.66701462239956 C 1780.6870607265478,130.06393908046553 1792.0878296120313,90.16124798127326 1826.2901362684818,61.659325767564496 Z" fill="url(#leaf22)" opacity="0.17" transform="rotate(255.9 1826.3 118.7)"/>
    <path d="M 335.7082209592836,5.966266969893212 C 368.5495179352156,33.334014449836545 379.4966169271929,71.6488609217572 335.7082209592836,115.43725688966654 C 291.9198249913743,71.6488609217572 302.8669239833516,33.334014449836545 335.7082209592836,5.966266969893212 Z" fill="url(#leaf23)" opacity="0.15" transform="rotate(47.4 335.7 60.7)"/>
    <path d="M 1562.5502121636607,905.5665962710751 C 1607.252172443718,942.8182298377895 1622.1528258704038,994.9705168311897 1562.5502121636607,1054.573130537933 C 1502.9475984569176,994.9705168311897 1517.8482518836033,942.8182298377895 1562.5502121636607,905.5665962710751 Z" fill="url(#leaf24)" opacity="0.23" transform="rotate(259.8 1562.6 980.1)"/>
    <path d="M 1424.9138821133706,291.29438291251404 C 1445.7493379823666,308.65726280334394 1452.6944899386986,332.9652946505058 1424.9138821133706,360.74590247583365 C 1397.1332742880427,332.9652946505058 1404.0784262443747,308.65726280334394 1424.9138821133706,291.29438291251404 Z" fill="url(#leaf25)" opacity="0.24" transform="rotate(97.9 1424.9 326.0)"/>
    <path d="M 1612.2490523837498,344.1751613926874 C 1635.8461449144238,363.83940516824913 1643.7118424246487,391.3693464540356 1612.2490523837498,422.8321364949344 C 1580.786262342851,391.3693464540356 1588.6519598530758,363.83940516824913 1612.2490523837498,344.1751613926874 Z" fill="url(#leaf26)" opacity="0.16" transform="rotate(350.2 1612.2 383.5)"/>
    <path d="M 1051.6332512829424,102.80512676995282 C 1082.0967587277053,128.1913829739218 1092.2512612092928,163.73214165947837 1051.6332512829424,204.3501515858287 C 1011.015241356592,163.73214165947837 1021.1697438381797,128.1913829739218 1051.6332512829424,102.80512676995282 Z" fill="url(#leaf27)" opacity="0.17" transform="rotate(249.0 1051.6 153.6)"/>
    <path d="M 1558.1480910112423,943.7972630982115 C 1605.0762836854683,982.9040903267331 1620.719014576877,1037.6536484466635 1558.1480910112423,1100.2245720122983 C 1495.5771674456075,1037.6536484466635 1511.2198983370163,982.9040903267331 1558.1480910112423,943.7972630982115 Z" fill="url(#leaf28)" opacity="0.22" transform="rotate(263.0 1558.1 1022.0)"/>
    <path d="M 1725.848634248499,8.133121055023167 C 1752.893345663001,30.670380567108168 1761.9082494678348,62.22254388402717 1725.848634248499,98.28215910336317 C 1689.789019029163,62.22254388402717 1698.803922833997,30.670380567108168 1725.848634248499,8.133121055023167 Z" fill="url(#leaf29)" opacity="0.23" transform="rotate(245.9 1725.8 53.2)"/>
    <path d="M 1826.0950342513015,141.324808098338 C 1863.1504959738027,172.2043595337557 1875.50231654797,215.4357315433405 1826.0950342513015,264.84301384000884 C 1776.687751954633,215.4357315433405 1789.0395725288004,172.2043595337557 1826.0950342513015,141.324808098338 Z" fill="url(#leaf0)" opacity="0.25" transform="rotate(10.8 1826.1 203.1)"/>
    <path d="M 1265.9273095050546,851.6400821588828 C 1313.054302688434,890.9125764783656 1328.7633004162271,945.8940685256415 1265.9273095050546,1008.730059436814 C 1203.091318593882,945.8940685256415 1218.8003163216752,890.9125764783656 1265.9273095050546,851.6400821588828 Z" fill="url(#leaf1)" opacity="0.16" transform="rotate(38.0 1265.9 930.2)"/>
    <path d="M 1604.9918567440693,24.550842626843405 C 1648.7974687065455,61.05551926224017 1663.399339360704,112.16206655179563 1604.9918567440693,170.56954916843046 C 1546.5843741274346,112.16206655179563 1561.1862447815931,61.05551926224017 1604.9918567440693,24.550842626843405 Z" fill="url(#leaf2)" opacity="0.16" transform="rotate(102.0 1605.0 97.6)"/>
    <path d="M 1588.6787406021176,226.92105064553914 C 1621.3563258473373,254.15237168322224 1632.2488542624105,292.2762211359786 1588.6787406021176,335.84633479627155 C 1545.1086269418247,292.2762211359786 1556.001155356898,254.15237168322224 1588.6787406021176,226.92105064553914 Z" fill="url(#leaf3)" opacity="0.25" transform="rotate(308.7 1588.7 281.4)"/>
    <path d="M 1400.8989050977907,729.2661922942024 C 1441.4184452044549,763.0324757164226 1454.924958573343,810.305272507531 1400.8989050977907,864.3313259830833 C 1346.8728516222384,810.305272507531 1360.3793649911265,763.0324757164226 1400.8989050977907,729.2661922942024 Z" fill="url(#leaf4)" opacity="0.15" transform="rotate(85.3 1400.9 796.8)"/>
    <path d="M 1459.9556121702512,101.29891646614801 C 1486.3650060633317,123.30674471038171 1495.1681373610252,154.11770425230887 1459.9556121702512,189.33022944308277 C 1424.7430869794773,154.11770425230887 1433.5462182771707,123.30674471038171 1459.9556121702512,101.29891646614801 Z" fill="url(#leaf5)" opacity="0.20" transform="rotate(272.2 1460.0 145.3)"/>
    <path d="M 443.0234826067596,371.3729832858312 C 469.9507142120519,393.8123429569081 478.92645808048263,425.2274464964157 443.0234826067596,461.13042197013874 C 407.1205071330366,425.2274464964157 416.09625100146735,393.8123429569081 443.0234826067596,371.3729832858312 Z" fill="url(#leaf6)" opacity="0.22" transform="rotate(99.4 443.0 416.3)"/>
    <path d="M 183.5079828390382,342.696617997673 C 229.77717984674703,381.2542821707637 245.2002455159833,435.2350120130907 183.5079828390382,496.9272746900358 C 121.81572016209307,435.2350120130907 137.23878583132935,381.2542821707637 183.5079828390382,342.696617997673 Z" fill="url(#leaf7)" opacity="0.19" transform="rotate(222.9 183.5 419.8)"/>
    <path d="M 1063.8534130291373,284.6424847398526 C 1097.5548858777374,312.72704544701946 1108.7887101606043,352.0454304370531 1063.8534130291373,396.9807275685201 C 1018.9181158976703,352.0454304370531 1030.1519401805372,312.72704544701946 1063.8534130291373,284.6424847398526 Z" fill="url(#leaf8)" opacity="0.20" transform="rotate(340.4 1063.9 340.8)"/>
    <path d="M 1654.5691565104707,133.28109626775478 C 1688.9874907740216,161.9630414873805 1700.460268861872,202.11776479485653 1654.5691565104707,248.0088771462577 C 1608.6780441590695,202.11776479485653 1620.15082224692,161.9630414873805 1654.5691565104707,133.28109626775478 Z" fill="url(#leaf9)" opacity="0.19" transform="rotate(280.6 1654.6 190.6)"/>
    <path d="M 691.6029198433872,537.2003087392111 C 732.9588095391463,571.6635501523435 746.7441061043992,619.9120881307291 691.6029198433872,675.0532743917411 C 636.4617335823752,619.9120881307291 650.2470301476282,571.6635501523435 691.6029198433872,537.2003087392111 Z" fill="url(#leaf10)" opacity="0.16" transform="rotate(197.1 691.6 606.1)"/>
    <path d="M 647.4068748222084,617.4511498258555 C 673.0936504332959,638.8567961684284 681.6559089703252,668.8247010480306 647.4068748222084,703.0737351961475 C 613.1578406740915,668.8247010480306 621.7200992111208,638.8567961684284 647.4068748222084,617.4511498258555 Z" fill="url(#leaf11)" opacity="0.18" transform="rotate(114.2 647.4 660.3)"/>
    <path d="M 368.16563689787296,558.7821537911259 C 399.56984139589554,584.9523242061447 410.03790956190306,621.5905627871709 368.16563689787296,663.462835451201 C 326.29336423384285,621.5905627871709 336.7614323998504,584.9523242061447 368.16563689787296,558.7821537911259 Z" fill="url(#leaf12)" opacity="0.22" transform="rotate(27.0 368.2 611.1)"/>
    <path d="M 1194.6162411805558,910.6588029218452 C 1228.908944845964,939.2360559763522 1240.3398460677668,979.2442102526618 1194.6162411805558,1024.967815139873 C 1148.8926362933448,979.2442102526618 1160.3235375151476,939.2360559763522 1194.6162411805558,910.6588029218452 Z" fill="url(#leaf13)" opacity="0.19" transform="rotate(178.3 1194.6 967.8)"/>
    <path d="M 869.2722469476674,116.51407906659236 C 917.0591019588219,156.33645824255441 932.9880536292068,212.0877890889013 869.2722469476674,275.80359577044055 C 805.5564402661281,212.0877890889013 821.485391936513,156.33645824255441 869.2722469476674,116.51407906659236 Z" fill="url(#leaf14)" opacity="0.23" transform="rotate(266.9 869.3 196.2)"/>
    <path d="M 1066.4146137441685,431.21203629254154 C 1102.3927298481872,461.19379971255717 1114.3854352161934,503.16826850057896 1066.4146137441685,551.1390899726039 C 1018.4437922721436,503.16826850057896 1030.4364976401498,461.19379971255717 1066.4146137441685,431.21203629254154 Z" fill="url(#leaf15)" opacity="0.23" transform="rotate(289.1 1066.4 491.2)"/>
    <path d="M 1379.167188850458,247.02065296921177 C 1425.5018348533977,285.6328579716616 1440.9467168543777,339.6899449750914 1379.167188850458,401.4694729790112 C 1317.3876608465382,339.6899449750914 1332.8325428475182,285.6328579716616 1379.167188850458,247.02065296921177 Z" fill="url(#leaf16)" opacity="0.17" transform="rotate(122.6 1379.2 324.2)"/>
    <path d="M 616.4379060508381,332.9443831163311 C 645.8199729742104,357.42943888580794 655.613995282001,391.7085169630755 616.4379060508381,430.8846061942385 C 577.2618168196752,391.7085169630755 587.0558391274659,357.42943888580794 616.4379060508381,332.9443831163311 Z" fill="url(#leaf17)" opacity="0.17" transform="rotate(256.5 616.4 381.9)"/>
    <path d="M 564.2430705260825,65.84946155823624 C 603.8261439495923,98.83535607782765 617.0205017574287,145.01560840525562 564.2430705260825,197.7930396366019 C 511.46563929473626,145.01560840525562 524.6599971025728,98.83535607782765 564.2430705260825,65.84946155823624 Z" fill="url(#leaf18)" opacity="0.18" transform="rotate(89.2 564.2 131.8)"/>
    <path d="M 584.9538938510889,403.4666173480287 C 604.687699384488,419.911455292528 611.2656345622877,442.934228414827 584.9538938510889,469.24596912602584 C 558.6421531398901,442.934228414827 565.2200883176897,419.911455292528 584.9538938510889,403.4666173480287 Z" fill="url(#leaf19)" opacity="0.21" transform="rotate(54.0 585.0 436.4)"/>
    <path d="M 1531.9040049791895,408.64147742985324 C 1562.6973981310289,434.3026383897195 1572.9618625149756,470.22826373353223 1531.9040049791895,511.2861212693182 C 1490.8461474434034,470.22826373353223 1501.11061182735,434.3026383897195 1531.9040049791895,408.64147742985324 Z" fill="url(#leaf20)" opacity="0.23" transform="rotate(324.3 1531.9 460.0)"/>
    <path d="M 985.6411133960255,588.9084624019451 C 1005.9899783785336,605.8658498873684 1012.7729333727029,629.6061923669612 985.6411133960255,656.7380123436385 C 958.5092934193481,629.6061923669612 965.2922484135174,605.8658498873684 985.6411133960255,588.9084624019451 Z" fill="url(#leaf21)" opacity="0.16" transform="rotate(239.6 985.6 622.8)"/>
    <path d="M 362.7305497749417,91.01944939990135 C 383.7829949381095,108.56315370254114 390.8004766591654,133.12433972623683 362.7305497749417,161.1942666104605 C 334.66062289071806,133.12433972623683 341.67810461177396,108.56315370254114 362.7305497749417,91.01944939990135 Z" fill="url(#leaf22)" opacity="0.17" transform="rotate(337.7 362.7 126.1)"/>
    <path d="M 333.8788295112808,50.28349805936976 C 352.68143728227074,65.95233786852803 358.94897320593407,87.88871360134964 333.8788295112808,112.95885729600288 C 308.80868581662753,87.88871360134964 315.07622174029086,65.95233786852803 333.8788295112808,50.28349805936976 Z" fill="url(#leaf23)" opacity="0.17" transform="rotate(139.5 333.9 81.6)"/>
    <path d="M 1659.7717000824327,882.9047451444844 C 1687.8052616152552,906.2660464218366 1697.1497821261962,938.9718682101295 1659.7717000824327,976.349950253893 C 1622.3936180386693,938.9718682101295 1631.7381385496103,906.2660464218366 1659.7717000824327,882.9047451444844 Z" fill="url(#leaf24)" opacity="0.16" transform="rotate(265.9 1659.8 929.6)"/>
    <path d="M 633.036744218483,3.9260605852280577 C 672.0492506417968,36.436482604656234 685.0534194495681,81.95107343185569 633.036744218483,133.96774866294078 C 581.020068987398,81.95107343185569 594.0242377951693,36.436482604656234 633.036744218483,3.9260605852280577 Z" fill="url(#leaf25)" opacity="0.18" transform="rotate(289.3 633.0 68.9)"/>
    <path d="M 1559.9026043342806,742.0436133121497 C 1605.752692111392,780.2520197930758 1621.0360547037624,833.7437888663725 1559.9026043342806,894.8772392358543 C 1498.7691539647988,833.7437888663725 1514.0525165571692,780.2520197930758 1559.9026043342806,742.0436133121497 Z" fill="url(#leaf26)" opacity="0.15" transform="rotate(155.7 1559.9 818.5)"/>
    <path d="M 1231.1499492190899,677.5720567227806 C 1268.7949898268228,708.9429238958915 1281.3433366960671,752.8621379382464 1231.1499492190899,803.0555254152237 C 1180.9565617421126,752.8621379382464 1193.504908611357,708.9429238958915 1231.1499492190899,677.5720567227806 Z" fill="url(#leaf27)" opacity="0.17" transform="rotate(304.8 1231.1 740.3)"/>
    <path d="M 1740.3434795113194,135.1247749541643 C 1770.3777602682387,160.15334225159714 1780.389187187212,195.1933364680031 1740.3434795113194,235.23904414389563 C 1700.2977718354268,195.1933364680031 1710.3091987544,160.15334225159714 1740.3434795113194,135.1247749541643 Z" fill="url(#leaf28)" opacity="0.17" transform="rotate(223.5 1740.3 185.2)"/>
    <path d="M 1242.1596852951477,113.17421242871899 C 1278.4000228880739,143.3744937561574 1290.4801354190492,185.65488761457115 1242.1596852951477,233.9753377384726 C 1193.8392351712462,185.65488761457115 1205.9193477022216,143.3744937561574 1242.1596852951477,113.17421242871899 Z" fill="url(#leaf29)" opacity="0.18" transform="rotate(268.1 1242.2 173.6)"/>
    <path d="M 103.83085197199098,624.7981924141662 C 131.799395224344,648.1053117911272 141.12224297512836,680.7352789188724 103.83085197199098,718.0266699220098 C 66.5394609688536,680.7352789188724 75.86230871963795,648.1053117911272 103.83085197199098,624.7981924141662 Z" fill="url(#leaf0)" opacity="0.23" transform="rotate(228.8 103.8 671.4)"/>
    <path d="M 1715.5765630823153,412.65441349691287 C 1754.7461999547465,445.29577755727223 1767.8027455788902,490.99368724177526 1715.5765630823153,543.2198697383502 C 1663.3503805857404,490.99368724177526 1676.406926209884,445.29577755727223 1715.5765630823153,412.65441349691287 Z" fill="url(#leaf1)" opacity="0.21" transform="rotate(109.0 1715.6 477.9)"/>
    <path d="M 1373.0982837823474,644.8829996532343 C 1403.3433185134802,670.0871952625116 1413.4249967571911,705.3730691154998 1373.0982837823474,745.6997820903434 C 1332.7715708075036,705.3730691154998 1342.8532490512146,670.0871952625116 1373.0982837823474,644.8829996532343 Z" fill="url(#leaf2)" opacity="0.24" transform="rotate(54.7 1373.1 695.3)"/>
    <path d="M 862.2347381633447,229.29427563778924 C 903.9922052930461,264.0921649125405 917.9113610029467,312.80920989719226 862.2347381633447,368.48583273679424 C 806.5581153237426,312.80920989719226 820.4772710336432,264.0921649125405 862.2347381633447,229.29427563778924 Z" fill="url(#leaf3)" opacity="0.25" transform="rotate(240.9 862.2 298.9)"/>
    <path d="M 1311.0299396944317,949.34324610592 C 1335.2923028541443,969.5618820723472 1343.3797572407152,997.8679724253451 1311.0299396944317,1030.2177899716285 C 1278.6801221481483,997.8679724253451 1286.7675765347192,969.5618820723472 1311.0299396944317,949.34324610592 Z" fill="url(#leaf4)" opacity="0.23" transform="rotate(15.5 1311.0 989.8)"/>
    <path d="M 350.328372753902,437.21120029978135 C 390.7682344353885,470.91108503435345 404.2481883292173,518.0909236627543 350.328372753902,572.0107392380697 C 296.40855717858665,518.0909236627543 309.8885110724155,470.91108503435345 350.328372753902,437.21120029978135 Z" fill="url(#leaf5)" opacity="0.18" transform="rotate(270.2 350.3 504.6)"/>
    <path d="M 748.5724074727851,441.879326472118 C 788.6995634203467,475.3186230950861 802.075282069534,522.1336383672414 748.5724074727851,575.6365129639902 C 695.0695328760363,522.1336383672414 708.4452515252235,475.3186230950861 748.5724074727851,441.879326472118 Z" fill="url(#leaf6)" opacity="0.20" transform="rotate(115.8 748.6 508.8)"/>
    <path d="M 929.9797496341396,149.01945555978602 C 973.2698765318202,185.0945613078532 987.6999188310471,235.59970935514727 929.9797496341396,293.3198785520548 C 872.2595804372321,235.59970935514727 886.689622736459,185.0945613078532 929.9797496341396,149.01945555978602 Z" fill="url(#leaf7)" opacity="0.21" transform="rotate(209.3 930.0 221.2)"/>
    <path d="M 1624.0380820537273,542.564419761336 C 1667.9685696681074,579.1731594399861 1682.6120655395675,630.4253949900963 1624.0380820537273,688.9993784759365 C 1565.464098567887,630.4253949900963 1580.1075944393472,579.1731594399861 1624.0380820537273,542.564419761336 Z" fill="url(#leaf8)" opacity="0.25" transform="rotate(16.7 1624.0 615.8)"/>
    <path d="M 1324.2587584667547,469.0883606606249 C 1361.7821458388134,500.3578501373407 1374.2899416295,544.1351354047426 1324.2587584667547,594.1663185674878 C 1274.2275753040094,544.1351354047426 1286.735371094696,500.3578501373407 1324.2587584667547,469.0883606606249 Z" fill="url(#leaf9)" opacity="0.20" transform="rotate(241.9 1324.3 531.6)"/>
    <path d="M 500.43851746852965,847.4662404679656 C 520.7763457672443,864.4144307168945 527.5556218668158,888.1418970653949 500.43851746852965,915.2590014636811 C 473.32141307024347,888.1418970653949 480.10068916981504,864.4144307168945 500.43851746852965,847.4662404679656 Z" fill="url(#leaf10)" opacity="0.22" transform="rotate(199.0 500.4 881.4)"/>
    <path d="M 1457.094372976357,246.89771914557872 C 1495.933153706426,279.26336975396964 1508.8794139497822,324.57528060571684 1457.094372976357,376.3603215791423 C 1405.3093320029316,324.57528060571684 1418.2555922462877,279.26336975396964 1457.094372976357,246.89771914557872 Z" fill="url(#leaf11)" opacity="0.17" transform="rotate(25.2 1457.1 311.6)"/>
    <path d="M 81.56682480765053,574.0023508371223 C 116.33983344719684,602.9798580367443 127.93083632704561,643.548368116215 81.56682480765053,689.91237963561 C 35.202813288255456,643.548368116215 46.79381616810423,602.9798580367443 81.56682480765053,574.0023508371223 Z" fill="url(#leaf12)" opacity="0.16" transform="rotate(288.1 81.6 632.0)"/>
    <path d="M 1351.2952431473186,87.9897158449836 C 1373.8010596995662,106.74456297185657 1381.3029985503154,133.0013489494787 1351.2952431473186,163.00910435247545 C 1321.2874877443219,133.0013489494787 1328.789426595071,106.74456297185657 1351.2952431473186,87.9897158449836 Z" fill="url(#leaf13)" opacity="0.17" transform="rotate(157.9 1351.3 125.5)"/>
    <path d="M 1413.2133723519155,574.528708749527 C 1458.6886228205663,612.4247508067359 1473.8470396434498,665.4792096868283 1413.2133723519155,726.1128769783626 C 1352.5797050603812,665.4792096868283 1367.7381218832647,612.4247508067359 1413.2133723519155,574.528708749527 Z" fill="url(#leaf14)" opacity="0.21" transform="rotate(235.2 1413.2 650.3)"/>
    <path d="M 1237.3940550186414,357.78355136805686 C 1280.5718745624092,393.76506765453007 1294.9644810769985,444.13919045559254 1237.3940550186414,501.7096165139497 C 1179.8236289602844,444.13919045559254 1194.2162354748737,393.76506765453007 1237.3940550186414,357.78355136805686 Z" fill="url(#leaf15)" opacity="0.24" transform="rotate(40.2 1237.4 429.7)"/>
    <path d="M 1830.6366935457836,709.4721506497559 C 1855.9147632903434,730.5372087702224 1864.34078653853,760.0282901388756 1830.6366935457836,793.732383131622 C 1796.9326005530372,760.0282901388756 1805.3586238012238,730.5372087702224 1830.6366935457836,709.4721506497559 Z" fill="url(#leaf16)" opacity="0.17" transform="rotate(322.5 1830.6 751.6)"/>
    <path d="M 965.4611987980281,831.094993948617 C 1013.2557912174653,870.9238209648147 1029.1873220239445,926.6841787874914 965.4611987980281,990.4103020134078 C 901.7350755721119,926.6841787874914 917.6666063785909,870.9238209648147 965.4611987980281,831.094993948617 Z" fill="url(#leaf17)" opacity="0.18" transform="rotate(1.0 965.5 910.8)"/>
    <path d="M 1588.6394230804526,149.9216478426692 C 1616.4817910341944,173.12362113745394 1625.7625803521082,205.60638375015262 1588.6394230804526,242.72954102180825 C 1551.516265808797,205.60638375015262 1560.7970551267108,173.12362113745394 1588.6394230804526,149.9216478426692 Z" fill="url(#leaf18)" opacity="0.16" transform="rotate(193.9 1588.6 196.3)"/>
    <path d="M 1674.4533652036914,750.641181961233 C 1692.9942712285745,766.0919369819687 1699.1745732368686,787.7229940109988 1674.4533652036914,812.444202044176 C 1649.7321571705143,787.7229940109988 1655.9124591788084,766.0919369819687 1674.4533652036914,750.641181961233 Z" fill="url(#leaf19)" opacity="0.17" transform="rotate(269.2 1674.5 781.5)"/>
    <path d="M 1670.4302753844324,549.1751327928298 C 1715.7676136764508,586.9562480361783 1730.8800597737902,639.8498093768663 1670.4302753844324,700.299593766224 C 1609.9804909950747,639.8498093768663 1625.092937092414,586.9562480361783 1670.4302753844324,549.1751327928298 Z" fill="url(#leaf20)" opacity="0.17" transform="rotate(85.5 1670.4 624.7)"/>
    <path d="M 1429.850674245381,76.81093974100651 C 1475.8248972038368,115.12279220638632 1491.1496381899888,168.75938565791807 1429.850674245381,230.05834960252577 C 1368.5517103007733,168.75938565791807 1383.8764512869252,115.12279220638632 1429.850674245381,76.81093974100651 Z" fill="url(#leaf21)" opacity="0.15" transform="rotate(195.9 1429.9 153.4)"/>
    <path d="M 1245.915764575283,113.6073328779069 C 1278.379049060615,140.66006994901693 1289.200143889059,178.533901848571 1245.915764575283,221.81828116234703 C 1202.631385261507,178.533901848571 1213.452480089951,140.66006994901693 1245.915764575283,113.6073328779069 Z" fill="url(#leaf22)" opacity="0.16" transform="rotate(330.1 1245.9 167.7)"/>
    <path d="M 600.262368711682,963.2402079694947 C 639.2262753246231,995.7101301469456 652.2142441956034,1041.1680211953767 600.262368711682,1093.119896679298 C 548.3104932277606,1041.1680211953767 561.298462098741,995.7101301469456 600.262368711682,963.2402079694947 Z" fill="url(#leaf23)" opacity="0.19" transform="rotate(359.9 600.3 1028.2)"/>
    <path d="M 1070.7075051785685,620.6469190744917 C 1115.234360052452,657.7526314693947 1130.0766450104131,709.7006288222589 1070.7075051785685,769.0697686541037 C 1011.3383653467237,709.7006288222589 1026.1806503046848,657.7526314693947 1070.7075051785685,620.6469190744917 Z" fill="url(#leaf24)" opacity="0.20" transform="rotate(148.4 1070.7 694.9)"/>
    <path d="M 256.3676764085818,397.70717875337584 C 296.8806238009575,431.4679682470222 310.38493959841605,478.7330735381272 256.3676764085818,532.7503367279614 C 202.35041321874758,478.7330735381272 215.85472901620614,431.4679682470222 256.3676764085818,397.70717875337584 Z" fill="url(#leaf25)" opacity="0.25" transform="rotate(258.7 256.4 465.2)"/>
    <path d="M 1017.862638460062,11.45659445335724 C 1053.7720119353846,41.3810723494594 1065.7418030938254,83.27534140400243 1017.862638460062,131.15450603776588 C 969.9834738262986,83.27534140400243 981.9532649847395,41.3810723494594 1017.862638460062,11.45659445335724 Z" fill="url(#leaf26)" opacity="0.21" transform="rotate(114.6 1017.9 71.3)"/>
    <path d="M 777.1208701921285,852.4611145380694 C 824.0807921755672,891.5943828576018 839.7340995033802,946.3809585049471 777.1208701921285,1008.9941878161989 C 714.5076408808767,946.3809585049471 730.1609482086897,891.5943828576018 777.1208701921285,852.4611145380694 Z" fill="url(#leaf27)" opacity="0.15" transform="rotate(337.9 777.1 930.7)"/>
    <path d="M 1798.904938442956,583.885656340705 C 1837.3835413490717,615.951158762468 1850.2097423177768,660.8428621529362 1798.904938442956,712.1476660277569 C 1747.6001345681354,660.8428621529362 1760.4263355368405,615.951158762468 1798.904938442956,583.885656340705 Z" fill="url(#leaf28)" opacity="0.17" transform="rotate(217.7 1798.9 648.0)"/>
    <path d="M 735.6877428795591,949.4854775006528 C 773.4629203379671,980.9647920493262 786.0546461574365,1025.035832417469 735.6877428795591,1075.4027356953463 C 685.3208396016817,1025.035832417469 697.912565421151,980.9647920493262 735.6877428795591,949.4854775006528 Z" fill="url(#leaf29)" opacity="0.16" transform="rotate(172.5 735.7 1012.4)"/>
    <path d="M 326.90160128359673,524.0360763830097 C 366.1266009115722,556.7235760729893 379.2016007875641,602.4860756389606 326.90160128359673,654.786075142928 C 274.6016017796294,602.4860756389606 287.67660165562125,556.7235760729893 326.90160128359673,524.0360763830097 Z" fill="url(#leaf0)" opacity="0.15" transform="rotate(171.9 326.9 589.4)"/>
    <path d="M 1178.2108652038303,588.9978598275816 C 1218.4351139703288,622.5180671329971 1231.843196892495,669.4463573605786 1178.2108652038303,723.0786890492434 C 1124.5785335151656,669.4463573605786 1137.9866164373318,622.5180671329971 1178.2108652038303,588.9978598275816 Z" fill="url(#leaf1)" opacity="0.22" transform="rotate(21.8 1178.2 656.0)"/>
    <path d="M 1779.694259056943,448.5292789558455 C 1809.9136899209693,473.7121380092007 1819.9868335423116,508.9681406838981 1779.694259056943,549.2607151692665 C 1739.4016845715746,508.9681406838981 1749.474828192917,473.7121380092007 1779.694259056943,448.5292789558455 Z" fill="url(#leaf2)" opacity="0.23" transform="rotate(69.1 1779.7 498.9)"/>
    <path d="M 1492.6338281548828,379.1606661894656 C 1532.8302877238632,412.65771583028265 1546.2291075801902,459.5535853274265 1492.6338281548828,513.1488647527337 C 1439.0385487295755,459.5535853274265 1452.4373685859025,412.65771583028265 1492.6338281548828,379.1606661894656 Z" fill="url(#leaf3)" opacity="0.20" transform="rotate(86.8 1492.6 446.2)"/>
    <path d="M 272.1206033741991,638.8416154559137 C 293.17490395824746,656.3868659426207 300.1930041529302,680.9502166240104 272.1206033741991,709.0226174027415 C 244.048202595468,680.9502166240104 251.0663027901508,656.3868659426207 272.1206033741991,638.8416154559137 Z" fill="url(#leaf4)" opacity="0.18" transform="rotate(355.5 272.1 673.9)"/>
    <path d="M 1464.6601912801402,595.5130719396325 C 1486.6287880020002,613.8202358745158 1493.9516535759535,639.4502653833524 1464.6601912801402,668.7417276791657 C 1435.368728984327,639.4502653833524 1442.6915945582803,613.8202358745158 1464.6601912801402,595.5130719396325 Z" fill="url(#leaf5)" opacity="0.18" transform="rotate(288.5 1464.7 632.1)"/>
    <path d="M 277.7838601489432,610.5572298096071 C 301.8950053951753,630.6498508481338 309.932053810586,658.7795203020713 277.7838601489432,690.9277139637142 C 245.63566648730034,658.7795203020713 253.67271490271105,630.6498508481338 277.7838601489432,610.5572298096071 Z" fill="url(#leaf6)" opacity="0.17" transform="rotate(41.7 277.8 650.7)"/>
    <path d="M 601.0846266616685,885.300657553596 C 624.2208211171834,904.5808195998584 631.9328859356883,931.5730464646257 601.0846266616685,962.4213057386455 C 570.2363673876487,931.5730464646257 577.9484322061536,904.5808195998584 601.0846266616685,885.300657553596 Z" fill="url(#leaf7)" opacity="0.16" transform="rotate(325.3 601.1 923.9)"/>
    <path d="M 1702.6263724711077,305.43215284241813 C 1748.7971047304902,343.9077630585702 1764.187348816951,397.7736173611831 1702.6263724711077,459.3345937070264 C 1641.0653961252644,397.7736173611831 1656.4556402117253,343.9077630585702 1702.6263724711077,305.43215284241813 Z" fill="url(#leaf8)" opacity="0.21" transform="rotate(320.1 1702.6 382.4)"/>
    <path d="M 1743.459121947415,880.4280081235597 C 1779.553319923988,910.5065064373707 1791.5847192495125,952.616404076706 1743.459121947415,1000.7420013788035 C 1695.3335246453175,952.616404076706 1707.364923970842,910.5065064373707 1743.459121947415,880.4280081235597 Z" fill="url(#leaf9)" opacity="0.23" transform="rotate(197.2 1743.5 940.6)"/>
    <path d="M 979.7279286134574,340.1728726488145 C 1011.4500515985902,366.60797513642524 1022.0240925936345,403.6171186190802 979.7279286134574,445.9132825992573 C 937.4317646332803,403.6171186190802 948.0058056283245,366.60797513642524 979.7279286134574,340.1728726488145 Z" fill="url(#leaf10)" opacity="0.16" transform="rotate(37.5 979.7 393.0)"/>
    <path d="M 937.5192757691481,70.66698068030358 C 964.0661576701991,92.7893822645128 972.9151183038828,123.76074448240571 937.5192757691481,159.15658701714045 C 902.1234332344134,123.76074448240571 910.972393868097,92.7893822645128 937.5192757691481,70.66698068030358 Z" fill="url(#leaf11)" opacity="0.16" transform="rotate(209.3 937.5 114.9)"/>
    <path d="M 1080.5586350393976,565.8578622926026 C 1117.1181107042632,596.324092013324 1129.3046025925519,638.9768136223341 1080.5586350393976,687.7227811754884 C 1031.8126674862433,638.9768136223341 1043.999159374532,596.324092013324 1080.5586350393976,565.8578622926026 Z" fill="url(#leaf12)" opacity="0.18" transform="rotate(294.6 1080.6 626.8)"/>
    <path d="M 86.46316523987103,295.7439596624648 C 125.44096048244836,328.2254556979459 138.43355889664082,373.6995501476195 86.46316523987103,425.6699438043893 C 34.492771583101245,373.6995501476195 47.485369997293695,328.2254556979459 86.46316523987103,295.7439596624648 Z" fill="url(#leaf13)" opacity="0.18" transform="rotate(285.8 86.5 360.7)"/>
    <path d="M 247.41328661339912,903.1653604576104 C 273.1077118978854,924.5773815280156 281.67252032604745,954.554211026583 247.41328661339912,988.8134447392313 C 213.1540529007508,954.554211026583 221.71886132891288,924.5773815280156 247.41328661339912,903.1653604576104 Z" fill="url(#leaf14)" opacity="0.20" transform="rotate(173.1 247.4 946.0)"/>
    <path d="M 1269.4138824230934,232.93254632667202 C 1297.9961111333446,256.7510702518814 1307.5235207034284,290.0970037471746 1269.4138824230934,328.20664202750964 C 1231.3042441427583,290.0970037471746 1240.8316537128421,256.7510702518814 1269.4138824230934,232.93254632667202 Z" fill="url(#leaf15)" opacity="0.23" transform="rotate(263.1 1269.4 280.6)"/>
    <path d="M 807.0168044772774,837.8479807662766 C 835.3920731278447,861.4940379750826 844.8504960113671,894.5985180674111 807.0168044772774,932.4322096015007 C 769.1831129431878,894.5985180674111 778.6415358267102,861.4940379750826 807.0168044772774,837.8479807662766 Z" fill="url(#leaf16)" opacity="0.18" transform="rotate(307.7 807.0 885.1)"/>
    <path d="M 1831.5448806446416,527.4256415431263 C 1858.8130776854941,550.14913907717 1867.9024766991117,581.9620356248314 1831.5448806446416,618.3196316793016 C 1795.1872845901714,581.9620356248314 1804.276683603789,550.14913907717 1831.5448806446416,527.4256415431263 Z" fill="url(#leaf17)" opacity="0.19" transform="rotate(161.9 1831.5 572.9)"/>
    <path d="M 451.3259392897125,112.5167964307407 C 492.93338671997725,147.18966928929467 506.8025358633988,195.7316912912702 451.3259392897125,251.20828786495653 C 395.8493427160262,195.7316912912702 409.71849185944774,147.18966928929467 451.3259392897125,112.5167964307407 Z" fill="url(#leaf18)" opacity="0.22" transform="rotate(249.1 451.3 181.9)"/>
    <path d="M 221.1910301575381,434.3378998446696 C 261.456643404403,467.89257755039034 274.8785144866913,514.8691263383994 221.1910301575381,568.5566106675526 C 167.50354582838492,514.8691263383994 180.92541691067322,467.89257755039034 221.1910301575381,434.3378998446696 Z" fill="url(#leaf19)" opacity="0.16" transform="rotate(203.0 221.2 501.4)"/>
    <path d="M 1220.2515806656222,794.8963867499799 C 1252.3919789904432,821.6800520206641 1263.1054450987167,859.1771833996219 1220.2515806656222,902.0310478327165 C 1177.3977162325277,859.1771833996219 1188.1111823408012,821.6800520206641 1220.2515806656222,794.8963867499799 Z" fill="url(#leaf20)" opacity="0.19" transform="rotate(229.5 1220.3 848.5)"/>
    <path d="M 805.9544899097054,766.723382908136 C 830.3669524815765,787.0671017180285 838.5044400055334,815.548308051878 805.9544899097054,848.098258147706 C 773.4045398138775,815.548308051878 781.5420273378344,787.0671017180285 805.9544899097054,766.723382908136 Z" fill="url(#leaf21)" opacity="0.16" transform="rotate(216.0 806.0 807.4)"/>
    <path d="M 591.2760013817494,458.5546270675748 C 620.194260282223,482.6531761513027 629.8336799157141,516.3911448685219 591.2760013817494,554.9488234024866 C 552.7183228477847,516.3911448685219 562.3577424812759,482.6531761513027 591.2760013817494,458.5546270675748 Z" fill="url(#leaf22)" opacity="0.15" transform="rotate(299.4 591.3 506.8)"/>
    <path d="M 314.3825210086861,524.9450830697458 C 333.028025461264,540.483003446894 339.24319361212326,562.2360919749016 314.3825210086861,587.0967645783387 C 289.521848405249,562.2360919749016 295.73701655610824,540.483003446894 314.3825210086861,524.9450830697458 Z" fill="url(#leaf23)" opacity="0.23" transform="rotate(139.4 314.4 556.0)"/>
    <path d="M 866.8588084328167,378.4419062690272 C 896.7869918282795,403.3820590985796 906.7630529601005,438.298273059953 866.8588084328167,478.2025175872368 C 826.9545639055328,438.298273059953 836.9306250373538,403.3820590985796 866.8588084328167,378.4419062690272 Z" fill="url(#leaf24)" opacity="0.22" transform="rotate(180.0 866.9 428.3)"/>
    <path d="M 1791.050655935778,968.3132343115032 C 1819.8553336707196,992.3171324239544 1829.4568929157,1025.9225897813863 1791.050655935778,1064.3288267613084 C 1752.6444189558558,1025.9225897813863 1762.2459782008364,992.3171324239544 1791.050655935778,968.3132343115032 Z" fill="url(#leaf25)" opacity="0.21" transform="rotate(255.3 1791.1 1016.3)"/>
    <path d="M 1680.0195681072055,216.80938406669642 C 1713.3331846157957,244.57073115718822 1724.4377234519925,283.43661708387674 1680.0195681072055,327.85477242866364 C 1635.6014127624185,283.43661708387674 1646.7059515986152,244.57073115718822 1680.0195681072055,216.80938406669642 Z" fill="url(#leaf26)" opacity="0.16" transform="rotate(47.8 1680.0 272.3)"/>
    <path d="M 587.3775833833859,580.9760654003863 C 619.0721174664781,607.3881771362966 629.6369621608422,644.3651335665709 587.3775833833859,686.6245123440273 C 545.1182046059295,644.3651335665709 555.6830493002936,607.3881771362966 587.3775833833859,580.9760654003863 Z" fill="url(#leaf27)" opacity="0.23" transform="rotate(340.6 587.4 633.8)"/>
    <path d="M 914.1456767340543,660.7443536097094 C 943.6773812476699,685.3541073710556 953.5212827522084,719.8077626369405 914.1456767340543,759.1833686550947 C 874.7700707159001,719.8077626369405 884.6139722204387,685.3541073710556 914.1456767340543,660.7443536097094 Z" fill="url(#leaf28)" opacity="0.16" transform="rotate(73.6 914.1 710.0)"/>
    <path d="M 119.56452711825163,460.72817385980284 C 143.12983290695107,480.365928683719 150.98493483651754,507.85878543720173 119.56452711825163,539.2791931554676 C 88.14411939998571,507.85878543720173 95.9992213295522,480.365928683719 119.56452711825163,460.72817385980284 Z" fill="url(#leaf29)" opacity="0.25" transform="rotate(294.7 119.6 500.0)"/>
    <path d="M 269.1649757294499,761.1316141125925 C 304.4653897978427,790.5486258362532 316.23219448730697,831.7324422493781 269.1649757294499,878.7996610072352 C 222.09775697159284,831.7324422493781 233.8645616610571,790.5486258362532 269.1649757294499,761.1316141125925 Z" fill="url(#leaf0)" opacity="0.18" transform="rotate(284.2 269.2 820.0)"/>
    <path d="M 1491.0971776936585,655.6847634798744 C 1527.8481241879053,686.3105522250801 1540.0984396859878,729.1866564683681 1491.0971776936585,778.1879184606973 C 1442.0959157013292,729.1866564683681 1454.3462311994117,686.3105522250801 1491.0971776936585,655.6847634798744 Z" fill="url(#leaf1)" opacity="0.20" transform="rotate(76.5 1491.1 716.9)"/>
    <path d="M 542.544730031184,905.6416390099287 C 585.0526842785656,941.06493421608 599.2220023610262,990.6575475046919 542.544730031184,1047.334819834534 C 485.8674577013419,990.6575475046919 500.03677578380245,941.06493421608 542.544730031184,905.6416390099287 Z" fill="url(#leaf2)" opacity="0.22" transform="rotate(239.7 542.5 976.5)"/>
    <path d="M 1821.9245936556995,474.5117348436415 C 1858.237981388626,504.7728912877468 1870.3424439662679,547.1385103094942 1821.9245936556995,595.5563606200626 C 1773.506743345131,547.1385103094942 1785.611205922773,504.7728912877468 1821.9245936556995,474.5117348436415 Z" fill="url(#leaf3)" opacity="0.18" transform="rotate(281.0 1821.9 535.0)"/>
    <path d="M 1130.679822731886,495.4416021698021 C 1177.8086377612601,534.7156146942807 1193.5182427710515,589.6992322285506 1130.679822731886,652.5376522677163 C 1067.8414026927203,589.6992322285506 1083.5510077025117,534.7156146942807 1130.679822731886,495.4416021698021 Z" fill="url(#leaf4)" opacity="0.16" transform="rotate(332.5 1130.7 574.0)"/>
    <path d="M 964.8976087879474,215.84121682254235 C 1001.7514468432678,246.5527485353093 1014.0360595283745,289.54889293318297 964.8976087879474,338.68734367361003 C 915.7591580475204,289.54889293318297 928.0437707326271,246.5527485353093 964.8976087879474,215.84121682254235 Z" fill="url(#leaf5)" opacity="0.21" transform="rotate(347.4 964.9 277.3)"/>
    <path d="M 880.9004239061153,337.7144153134156 C 912.7741909462533,364.2758878468639 923.3987799596325,401.4619493936915 880.9004239061153,443.9603054472088 C 838.4020678525981,401.4619493936915 849.0266568659773,364.2758878468639 880.9004239061153,337.7144153134156 Z" fill="url(#leaf6)" opacity="0.19" transform="rotate(69.4 880.9 390.8)"/>
    <path d="M 1153.202649297045,935.0149573794104 C 1197.0553822825486,971.5589015339968 1211.6729599443834,1022.720423350418 1153.202649297045,1081.1907339977563 C 1094.7323386497064,1022.720423350418 1109.3499163115412,971.5589015339968 1153.202649297045,935.0149573794104 Z" fill="url(#leaf7)" opacity="0.18" transform="rotate(283.9 1153.2 1008.1)"/>
    <path d="M 1016.1822864146641,624.6230963928966 C 1035.1475499341072,640.4274826590993 1041.4693044405883,662.553623431783 1016.1822864146641,687.8406414577072 C 990.8952683887399,662.553623431783 997.2170228952209,640.4274826590993 1016.1822864146641,624.6230963928966 Z" fill="url(#leaf8)" opacity="0.20" transform="rotate(169.5 1016.2 656.2)"/>
    <path d="M 77.20934322087918,739.262404278911 C 99.10674675312637,757.5102405557836 106.40588126387544,783.0572113434054 77.20934322087918,812.2537493864016 C 48.01280517788291,783.0572113434054 55.31193968863198,757.5102405557836 77.20934322087918,739.262404278911 Z" fill="url(#leaf9)" opacity="0.16" transform="rotate(184.8 77.2 775.8)"/>
    <path d="M 1247.0257619018632,359.9920450596686 C 1284.5751743042722,391.283222061676 1297.091645105075,435.09086986448636 1247.0257619018632,485.1567530676982 C 1196.9598786986514,435.09086986448636 1209.4763494994543,391.283222061676 1247.0257619018632,359.9920450596686 Z" fill="url(#leaf10)" opacity="0.20" transform="rotate(74.7 1247.0 422.6)"/>
    <path d="M 1432.96169531469,154.36074683898653 C 1455.5988131689596,173.22501171754462 1463.144519120383,199.63498254752596 1432.96169531469,229.81780635321894 C 1402.7788715089969,199.63498254752596 1410.3245774604202,173.22501171754462 1432.96169531469,154.36074683898653 Z" fill="url(#leaf11)" opacity="0.21" transform="rotate(64.4 1433.0 192.1)"/>
    <path d="M 461.31762979154547,537.6604335279332 C 503.6609535125072,572.9465366287345 517.7753947528278,622.3470809698566 461.31762979154547,678.8048459311389 C 404.8598648302632,622.3470809698566 418.97430607058374,572.9465366287345 461.31762979154547,537.6604335279332 Z" fill="url(#leaf12)" opacity="0.23" transform="rotate(181.2 461.3 608.2)"/>
    <path d="M 763.6228703305483,697.5118205417247 C 803.3229710000695,730.5952377663257 816.5563378899099,776.9120218807672 763.6228703305483,829.8454894401287 C 710.6894027711867,776.9120218807672 723.922769661027,730.5952377663257 763.6228703305483,697.5118205417247 Z" fill="url(#leaf13)" opacity="0.21" transform="rotate(250.9 763.6 763.7)"/>
    <path d="M 609.9491875958578,501.1319926583941 C 652.1984954124248,536.3397491721998 666.2815980179471,585.630608291528 609.9491875958578,641.9630187136173 C 553.6167771737685,585.630608291528 567.6998797792908,536.3397491721998 609.9491875958578,501.1319926583941 Z" fill="url(#leaf14)" opacity="0.22" transform="rotate(101.6 609.9 571.5)"/>
    <path d="M 672.953499125444,253.03536422195896 C 693.299397748279,269.9902797409882 700.0813639558908,293.72716146762923 672.953499125444,320.85502629807604 C 645.8256342949971,293.72716146762923 652.6076005026089,269.9902797409882 672.953499125444,253.03536422195896 Z" fill="url(#leaf15)" opacity="0.24" transform="rotate(331.3 673.0 286.9)"/>
    <path d="M 761.1556303936272,339.8056665897523 C 785.7559214545496,360.3059091405209 793.956018474857,389.006248711597 761.1556303936272,421.80663679282674 C 728.3552423123974,389.006248711597 736.5553393327049,360.3059091405209 761.1556303936272,339.8056665897523 Z" fill="url(#leaf16)" opacity="0.19" transform="rotate(217.5 761.2 380.8)"/>
    <path d="M 1111.547797467724,352.8213569217089 C 1151.1055016562225,385.78611041212434 1164.2914030523887,431.9367652987059 1111.547797467724,484.68037088337053 C 1058.8041918830593,431.9367652987059 1071.9900932792254,385.78611041212434 1111.547797467724,352.8213569217089 Z" fill="url(#leaf17)" opacity="0.20" transform="rotate(1.2 1111.5 418.8)"/>
    <path d="M 127.53014319273993,981.1526338492965 C 156.53520181935502,1005.3235160381424 166.2035546948934,1039.1627511025267 127.53014319273993,1077.83616260468 C 88.85673169058647,1039.1627511025267 98.52508456612483,1005.3235160381424 127.53014319273993,981.1526338492965 Z" fill="url(#leaf18)" opacity="0.19" transform="rotate(316.6 127.5 1029.5)"/>
    <path d="M 1039.4755782514133,490.3282816513006 C 1058.8375605050599,506.46326686267275 1065.2915545896087,529.0522461585938 1039.4755782514133,554.8682224967893 C 1013.6596019132178,529.0522461585938 1020.1135959977667,506.46326686267275 1039.4755782514133,490.3282816513006 Z" fill="url(#leaf19)" opacity="0.22" transform="rotate(82.6 1039.5 522.6)"/>
    <path d="M 1866.0872233318707,937.0667891048394 C 1895.8473040948452,961.8668564073181 1905.7673310158368,996.5869506307884 1866.0872233318707,1036.2670583147542 C 1826.4071156479047,996.5869506307884 1836.3271425688963,961.8668564073181 1866.0872233318707,937.0667891048394 Z" fill="url(#leaf20)" opacity="0.21" transform="rotate(248.6 1866.1 986.7)"/>
    <path d="M 681.505468504224,274.15090618708825 C 726.8633130927482,311.9491100108583 741.9825946222562,364.86659536413646 681.505468504224,425.3437214821686 C 621.0283423861919,364.86659536413646 636.1476239156999,311.9491100108583 681.505468504224,274.15090618708825 Z" fill="url(#leaf21)" opacity="0.24" transform="rotate(95.5 681.5 349.7)"/>
    <path d="M 349.9893238899119,226.90560234826017 C 375.63033922761406,248.27311512967864 384.17734434018143,278.1876330236645 349.9893238899119,312.37565347393405 C 315.8013034396423,278.1876330236645 324.3483085522097,248.27311512967864 349.9893238899119,226.90560234826017 Z" fill="url(#leaf22)" opacity="0.23" transform="rotate(311.9 350.0 269.6)"/>
    <path d="M 854.4040680175929,154.22697444204567 C 883.0592515499682,178.10629405235844 892.6109793940933,211.5373415067963 854.4040680175929,249.74425288329672 C 816.1971566410924,211.5373415067963 825.7488844852176,178.10629405235844 854.4040680175929,154.22697444204567 Z" fill="url(#leaf23)" opacity="0.24" transform="rotate(127.0 854.4 202.0)"/>
    <path d="M 1569.377601342257,373.0257364037818 C 1612.3094104407644,408.8022439858712 1626.6200134736,458.88935460079625 1569.377601342257,516.1317667321392 C 1512.1351892109142,458.88935460079625 1526.4457922437498,408.8022439858712 1569.377601342257,373.0257364037818 Z" fill="url(#leaf24)" opacity="0.18" transform="rotate(168.9 1569.4 444.6)"/>
    <path d="M 1414.627107252459,158.68546694453957 C 1435.7726323962172,176.30673789767147 1442.82114077747,200.97651723205615 1414.627107252459,229.17055075706722 C 1386.433073727448,200.97651723205615 1393.4815821087006,176.30673789767147 1414.627107252459,158.68546694453957 Z" fill="url(#leaf25)" opacity="0.23" transform="rotate(60.1 1414.6 193.9)"/>
    <path d="M 606.3740928410011,922.9987438837227 C 650.585258733462,959.84138212744 665.322314030949,1011.4210756686443 606.3740928410011,1070.3692968585922 C 547.4258716510533,1011.4210756686443 562.1629269485403,959.84138212744 606.3740928410011,922.9987438837227 Z" fill="url(#leaf26)" opacity="0.21" transform="rotate(121.1 606.4 996.7)"/>
    <path d="M 995.3679397663357,16.59652959979661 C 1040.5453136495303,54.24434116912536 1055.6044382772616,106.95127736618562 995.3679397663357,167.18777587711162 C 935.1314412554096,106.95127736618562 950.1905658831412,54.24434116912536 995.3679397663357,16.59652959979661 Z" fill="url(#leaf27)" opacity="0.18" transform="rotate(305.2 995.4 91.9)"/>
    <path d="M 385.60568964798836,412.31021840540836 C 425.7959658924919,445.80211527582793 439.1927246406597,492.6907708944154 385.60568964798836,546.2778058870867 C 332.018654655317,492.6907708944154 345.4154134034848,445.80211527582793 385.60568964798836,412.31021840540836 Z" fill="url(#leaf28)" opacity="0.17" transform="rotate(353.8 385.6 479.3)"/>
    <path d="M 407.79779634740635,261.3071636728984 C 448.77410516108614,295.45408768429826 462.4328747656461,343.25978130025806 407.79779634740635,397.8948597184978 C 353.1627179291666,343.25978130025806 366.82148753372655,295.45408768429826 407.79779634740635,261.3071636728984 Z" fill="url(#leaf29)" opacity="0.17" transform="rotate(157.0 407.8 329.6)"/>
    <path d="M 556.83510929199,279.30879067940185 C 599.2862329738119,314.6847270809202 613.4366075344193,364.2110380430459 556.83510929199,420.81253628547523 C 500.23361104956064,364.2110380430459 514.383985610168,314.6847270809202 556.83510929199,279.30879067940185 Z" fill="url(#leaf0)" opacity="0.16" transform="rotate(22.1 556.8 350.1)"/>
    <path d="M 288.03969543636424,-18.193561795156718 C 332.45245074583994,18.817067629406374 347.2567025156652,70.6319488237947 288.03969543636424,129.84895590309566 C 228.8226883570633,70.6319488237947 243.62694012688854,18.817067629406374 288.03969543636424,-18.193561795156718 Z" fill="url(#leaf1)" opacity="0.19" transform="rotate(172.1 288.0 55.8)"/>
    <path d="M 1200.5154511356172,602.2904996152841 C 1245.8360601123059,640.0576737625247 1260.942929771202,692.9317175686615 1200.5154511356172,753.3591962042464 C 1140.0879725000325,692.9317175686615 1155.1948421589286,640.0576737625247 1200.5154511356172,602.2904996152841 Z" fill="url(#leaf2)" opacity="0.17" transform="rotate(255.8 1200.5 677.8)"/>
    <path d="M 1674.2861798938525,105.14419090025316 C 1709.170401621762,134.2143756735112 1720.7984755310654,174.9126343560724 1674.2861798938525,221.42492999328525 C 1627.7738842566396,174.9126343560724 1639.401958165943,134.2143756735112 1674.2861798938525,105.14419090025316 Z" fill="url(#leaf3)" opacity="0.22" transform="rotate(111.6 1674.3 163.3)"/>
    <path d="M 1464.9531853287874,835.4899482523087 C 1488.1363383014195,854.8092423961689 1495.8640559589635,881.856254197573 1464.9531853287874,912.7671248277491 C 1434.0423146986113,881.856254197573 1441.7700323561553,854.8092423961689 1464.9531853287874,835.4899482523087 Z" fill="url(#leaf4)" opacity="0.19" transform="rotate(267.6 1465.0 874.1)"/>
    <path d="M 128.8075259491714,944.647923173271 C 172.8041716624368,981.3117946009922 187.46972023352527,1032.6412145998017 128.8075259491714,1091.3034088841557 C 70.14533166481755,1032.6412145998017 84.81088023590601,981.3117946009922 128.8075259491714,944.647923173271 Z" fill="url(#leaf5)" opacity="0.18" transform="rotate(316.4 128.8 1018.0)"/>
    <path d="M 1711.7757644608348,538.3353541246352 C 1736.8786273771316,559.2544065548824 1745.2462483492304,588.5410799572285 1711.7757644608348,622.0115638456241 C 1678.3052805724392,588.5410799572285 1686.672901544538,559.2544065548824 1711.7757644608348,538.3353541246352 Z" fill="url(#leaf6)" opacity="0.20" transform="rotate(132.4 1711.8 580.2)"/>
    </g>

    <!-- Text with SOLID fill only (ThorVG compatible) -->
    <text x="908.8" y="847.5"
          font-family="Arial, Helvetica, sans-serif"
          font-size="1080px"
          font-weight="bold"
          fill="#FF4500"
          text-anchor="middle"
          transform="rotate(-7.1 960.0 540.0)">
      D
    </text>
  </g>

  <!-- Frame counter -->
  <text x="960.0" y="1050.0"
        font-family="monospace"
        font-size="24px"
        fill="#FFFFFF"
        text-anchor="middle"
        opacity="0.7">
    Frame 00011 - Compatible
  </text>
</svg>