<?xml version="1.0" encoding="UTF-8"?>
<svg xmlns="http://www.w3.org/2000/svg" viewBox="0 0 1920 1080" width="1920" height="1080">
  <defs>
    <linearGradient id="bgGrad" x1="0%" y1="0%" x2="100%" y2="100%">
      <stop offset="0%" stop-color="#9370DB"/>
      <stop offset="100%" stop-color="#FF69B4"/>
    </linearGradient>
    <clipPath id="complexClip"><polygon points="1582.2,540.0 1611.2,586.3 1439.7,609.3 1572.8,676.5 1519.4,713.0 1340.9,695.7 1352.8,747.5 1293.3,766.6 1168.7,725.0 1234.4,868.0 1141.2,853.7 1080.6,895.5 996.1,863.1 926.0,844.1 852.7,856.4 786.5,840.3 714.5,833.4 617.8,843.3 564.4,809.0 578.4,741.6 470.6,740.0 373.4,721.4 508.7,640.5 485.3,608.6 570.5,567.7 369.2,540.0 381.4,498.9 447.2,465.9 510.0,439.8 601.2,429.0 534.2,366.0 599.2,349.4 662.6,337.8 735.5,341.0 772.8,316.2 791.8,248.8 839.7,185.4 927.3,247.6 991.3,260.2 1056.3,256.0 1103.3,291.9 1160.9,299.9 1295.6,242.5 1283.1,320.3 1282.1,369.8 1320.3,392.8 1309.2,432.0 1447.1,431.5 1372.7,480.4 1531.0,499.4"/></clipPath>
    <radialGradient id="leaf0" cx="50%" cy="50%" r="70%">
      <stop offset="0%" stop-color="#FFD700"/>
      <stop offset="50%" stop-color="#96E6A1"/>
      <stop offset="100%" stop-color="#FF1493"/>
    </radialGradient>
    <radialGradient id="leaf1" cx="50%" cy="50%" r="70%">
      <stop offset="0%" stop-color="#4ECDC4"/>
      <stop offset="50%" stop-color="#00CED1"/>
      <stop offset="100%" stop-color="#DC143C"/>
    </radialGradient>
    <radialGradient id="leaf2" cx="50%" cy="50%" r="70%">
      <stop offset="0%" stop-color="#FF69B4"/>
      <stop offset="50%" stop-color="#9370DB"/>
      <stop offset="100%" stop-color="#96E6A1"/>
    </radialGradient>
    <radialGradient id="leaf3" cx="50%" cy="50%" r="70%">
      <stop offset="0%" stop-color="#96E6A1"/>
      <stop offset="50%" stop-color="#45B7D1"/>
      <stop offset="100%" stop-color="#FFE66D"/>
    </radialGradient>
    <radialGradient id="leaf4" cx="50%" cy="50%" r="70%">
      <stop offset="0%" stop-color="#00FA9A"/>
      <stop offset="50%" stop-color="#FF6B6B"/>
      <stop offset="100%" stop-color="#9370DB"/>
    </radialGradient>
    <radialGradient id="leaf5" cx="50%" cy="50%" r="70%">
      <stop offset="0%" stop-color="#32CD32"/>
      <stop offset="50%" stop-color="#00FA9A"/>
      <stop offset="100%" stop-color="#96E6A1"/>
    </radialGradient>
    <radialGradient id="leaf6" cx="50%" cy="50%" r="70%">
      <stop offset="0%" stop-color="#FFE66D"/>
      <stop offset="50%" stop-color="#FF69B4"/>
      <stop offset="100%" stop-color="#96E6A1"/>
    </radialGradient>
    <radialGradient id="leaf7" cx="50%" cy="50%" r="70%">
      <stop offset="0%" stop-color="#FF1493"/>
      <stop offset="50%" stop-color="#00CED1"/>
      <stop offset="100%" stop-color="#FF69B4"/>
    </radialGradient>
    <radialGradient id="leaf8" cx="50%" cy="50%" r="70%">
      <stop offset="0%" stop-color="#9370DB"/>
      <stop offset="50%" stop-color="#7B68EE"/>
      <stop offset="100%" stop-color="#FFD700"/>
    </radialGradient>
    <radialGradient id="leaf9" cx="50%" cy="50%" r="70%">
      <stop offset="0%" stop-color="#FF1493"/>
      <stop offset="50%" stop-color="#45B7D1"/>
      <stop offset="100%" stop-color="#00CED1"/>
    </radialGradient>
    <radialGradient id="leaf10" cx="50%" cy="50%" r="70%">
      <stop offset="0%" stop-color="#00CED1"/>
      <stop offset="50%" stop-color="#4ECDC4"/>
      <stop offset="100%" stop-color="#FF1493"/>
    </radialGradient>
    <radialGradient id="leaf11" cx="50%" cy="50%" r="70%">
      <stop offset="0%" stop-color="#4ECDC4"/>
      <stop offset="50%" stop-color="#96E6A1"/>
      <stop offset="100%" stop-color="#FF1493"/>
    </radialGradient>
    <radialGradient id="leaf12" cx="50%" cy="50%" r="70%">
      <stop offset="0%" stop-color="#FF4500"/>
      <stop offset="50%" stop-color="#4ECDC4"/>
      <stop offset="100%" stop-color="#9370DB"/>
    </radialGradient>
    <radialGradient id="leaf13" cx="50%" cy="50%" r="70%">
      <stop offset="0%" stop-color="#7B68EE"/>
      <stop offset="50%" stop-color="#DC143C"/>
      <stop offset="100%" stop-color="#00CED1"/>
    </radialGradient>
    <radialGradient id="leaf14" cx="50%" cy="50%" r="70%">
      <stop offset="0%" stop-color="#DC143C"/>
      <stop offset="50%" stop-color="#00CED1"/>
      <stop offset="100%" stop-color="#45B7D1"/>
    </radialGradient>
    <radialGradient id="leaf15" cx="50%" cy="50%" r="70%">
      <stop offset="0%" stop-color="#45B7D1"/>
      <stop offset="50%" stop-color="#FFD700"/>
      <stop offset="100%" stop-color="#9370DB"/>
    </radialGradient>
    <radialGradient id="leaf16" cx="50%" cy="50%" r="70%">
      <stop offset="0%" stop-color="#FF1493"/>
      <stop offset="50%" stop-color="#00FA9A"/>
      <stop offset="100%" stop-color="#32CD32"/>
    </radialGradient>
    <radialGradient id="leaf17" cx="50%" cy="50%" r="70%">
      <stop offset="0%" stop-color="#FF1493"/>
      <stop offset="50%" stop-color="#7B68EE"/>
      <stop offset="100%" stop-color="#FFE66D"/>
    </radialGradient>
    <radialGradient id="leaf18" cx="50%" cy="50%" r="70%">
      <stop offset="0%" stop-color="#45B7D1"/>
      <stop offset="50%" stop-color="#FF1493"/>
      <stop offset="100%" stop-color="#7B68EE"/>
    </radialGradient>
    <radialGradient id="leaf19" cx="50%" cy="50%" r="70%">
      <stop offset="0%" stop-color="#7B68EE"/>
      <stop offset="50%" stop-color="#32CD32"/>
      <stop offset="100%" stop-color="#96E6A1"/>
    </radialGradient>
    <radialGradient id="leaf20" cx="50%" cy="50%" r="70%">
      <stop offset="0%" stop-color="#FF69B4"/>
      <stop offset="50%" stop-color="#FFE66D"/>
      <stop offset="100%" stop-color="#00FA9A"/>
    </radialGradient>
    <radialGradient id="leaf21" cx="50%" cy="50%" r="70%">
      <stop offset="0%" stop-color="#FFE66D"/>
      <stop offset="50%" stop-color="#FF4500"/>
      <stop offset="100%" stop-color="#96E6A1"/>
    </radialGradient>
    <radialGradient id="leaf22" cx="50%" cy="50%" r="70%">
      <stop offset="0%" stop-color="#FF1493"/>
      <stop offset="50%" stop-color="#FFE66D"/>
      <stop offset="100%" stop-color="#FF69B4"/>
    </radialGradient>
    <radialGradient id="leaf23" cx="50%" cy="50%" r="70%">
      <stop offset="0%" stop-color="#FF1493"/>
      <stop offset="50%" stop-color="#FF69B4"/>
      <stop offset="100%" stop-color="#96E6A1"/>
    </radialGradient>
    <radialGradient id="leaf24" cx="50%" cy="50%" r="70%">
      <stop offset="0%" stop-color="#DC143C"/>
      <stop offset="50%" stop-color="#FF6B6B"/>
      <stop offset="100%" stop-color="#00CED1"/>
    </radialGradient>
    <radialGradient id="leaf25" cx="50%" cy="50%" r="70%">
      <stop offset="0%" stop-color="#FF1493"/>
      <stop offset="50%" stop-color="#00CED1"/>
      <stop offset="100%" stop-color="#96E6A1"/>
    </radialGradient>
    <radialGradient id="leaf26" cx="50%" cy="50%" r="70%">
      <stop offset="0%" stop-color="#DC143C"/>
      <stop offset="50%" stop-color="#FF1493"/>
      <stop offset="100%" stop-color="#00CED1"/>
    </radialGradient>
    <radialGradient id="leaf27" cx="50%" cy="50%" r="70%">
      <stop offset="0%" stop-color="#4ECDC4"/>
      <stop offset="50%" stop-color="#00CED1"/>
      <stop offset="100%" stop-color="#FF6B6B"/>
    </radialGradient>
    <radialGradient id="leaf28" cx="50%" cy="50%" r="70%">
      <stop offset="0%" stop-color="#FF4500"/>
      <stop offset="50%" stop-color="#96E6A1"/>
      <stop offset="100%" stop-color="#9370DB"/>
    </radialGradient>
    <radialGradient id="leaf29" cx="50%" cy="50%" r="70%">
      <stop offset="0%" stop-color="#FF6B6B"/>
      <stop offset="50%" stop-color="#4ECDC4"/>
      <stop offset="100%" stop-color="#FFD700"/>
    </radialGradient>
  </defs>

  <!-- Scaled content -->
  <g transform="translate(960.0,540.0) scale(3.0) translate(-960.0,-540.0)">
    <!-- Background -->
    <rect width="1920" height="1080" fill="url(#bgGrad)"/>
    
    <!-- Leaves with clip-path -->
    <g clip-path="url(#complexClip)">
    <path d="M 485.4289260129209,346.3008561256431 C 528.8698398597893,382.50161766470006 543.3501444754121,433.18268381937986 485.4289260129209,491.103902281871 C 427.5077075504297,433.18268381937986 441.9880121660525,382.50161766470006 485.4289260129209,346.3008561256431 Z" fill="url(#leaf0)" opacity="0.23" transform="rotate(228.4 485.4 418.7)"/>
    <path d="M 59.52092997387605,814.7585023508367 C 94.53279447109112,843.9350560985159 106.20341597016282,884.7822313452668 59.52092997387605,931.4647173415536 C 12.838443977589279,884.7822313452668 24.50906547666098,843.9350560985159 59.52092997387605,814.7585023508367 Z" fill="url(#leaf1)" opacity="0.19" transform="rotate(43.2 59.5 873.1)"/>
    <path d="M 815.7922498791388,638.804137636845 C 859.9929181396689,675.6380278539534 874.7264742265122,727.2054741579051 815.7922498791388,786.1396985052785 C 756.8580255317654,727.2054741579051 771.5915816186088,675.6380278539534 815.7922498791388,638.804137636845 Z" fill="url(#leaf2)" opacity="0.19" transform="rotate(316.9 815.8 712.5)"/>
    <path d="M 1712.2530953150804,739.2495103384196 C 1732.4095354825422,756.0465438113043 1739.128348871696,779.5623906733432 1712.2530953150804,806.4376442299589 C 1685.3778417584647,779.5623906733432 1692.0966551476185,756.0465438113043 1712.2530953150804,739.2495103384196 Z" fill="url(#leaf3)" opacity="0.16" transform="rotate(195.3 1712.3 772.8)"/>
    <path d="M 1471.525533479092,769.0301399077237 C 1499.194464767958,792.0875826484453 1508.4174418642467,824.3680024854556 1471.525533479092,861.2599108706102 C 1434.6336250939373,824.3680024854556 1443.856602190226,792.0875826484453 1471.525533479092,769.0301399077237 Z" fill="url(#leaf4)" opacity="0.17" transform="rotate(90.5 1471.5 815.1)"/>
    <path d="M 1421.5434792338424,693.3586139819641 C 1465.7355948798343,730.1853770202906 1480.4663000951648,781.7428452739476 1421.5434792338424,840.66566613527 C 1362.62065837252,781.7428452739476 1377.3513635878505,730.1853770202906 1421.5434792338424,693.3586139819641 Z" fill="url(#leaf5)" opacity="0.16" transform="rotate(36.3 1421.5 767.0)"/>
    <path d="M 1232.8414209451755,682.0224143526298 C 1264.5347591788693,708.4335295473746 1275.0992052567674,745.4090908200175 1232.8414209451755,787.6668751316092 C 1190.5836366335836,745.4090908200175 1201.1480827114817,708.4335295473746 1232.8414209451755,682.0224143526298 Z" fill="url(#leaf6)" opacity="0.19" transform="rotate(57.9 1232.8 734.8)"/>
    <path d="M 177.45233106678089,414.5224510702421 C 211.27117267774227,442.70481907937653 222.54411988139606,482.16013429216486 177.45233106678089,527.25192310678 C 132.36054225216571,482.16013429216486 143.6334894558195,442.70481907937653 177.45233106678089,414.5224510702421 Z" fill="url(#leaf7)" opacity="0.18" transform="rotate(176.9 177.5 470.9)"/>
    <path d="M 1628.9792686416752,693.2046942334828 C 1673.637096661747,730.419550916876 1688.5230393351042,782.5203502736264 1628.9792686416752,842.0641209670555 C 1569.4354979482462,782.5203502736264 1584.3214406216034,730.419550916876 1628.9792686416752,693.2046942334828 Z" fill="url(#leaf8)" opacity="0.23" transform="rotate(212.9 1629.0 767.6)"/>
    <path d="M 1790.860576186528,711.8614635566296 C 1835.1681256930533,748.784421478734 1849.937308861895,800.4765625696801 1790.860576186528,859.5532952450471 C 1731.7838435111612,800.4765625696801 1746.5530266800029,748.784421478734 1790.860576186528,711.8614635566296 Z" fill="url(#leaf9)" opacity="0.16" transform="rotate(182.3 1790.9 785.7)"/>
    <path d="M 550.0548801285001,52.343581062009626 C 579.001109199194,76.46543862092122 588.6498522227587,110.23603920339744 550.0548801285001,148.83101129765598 C 511.4599080342416,110.23603920339744 521.1086510578062,76.46543862092122 550.0548801285001,52.343581062009626 Z" fill="url(#leaf10)" opacity="0.25" transform="rotate(91.6 550.1 100.6)"/>
    <path d="M 513.2829725252418,858.6390649175626 C 560.063301861404,897.6226726976977 575.6567449734581,952.199723589887 513.2829725252418,1014.5734960381033 C 450.9092000770255,952.199723589887 466.50264318907955,897.6226726976977 513.2829725252418,858.6390649175626 Z" fill="url(#leaf11)" opacity="0.22" transform="rotate(92.3 513.3 936.6)"/>
    <path d="M 1745.688906908775,125.0440264888608 C 1786.037504950535,158.66785819032762 1799.487037631122,205.7412225723812 1745.688906908775,259.53935329472813 C 1691.890776186428,205.7412225723812 1705.3403088670148,158.66785819032762 1745.688906908775,125.0440264888608 Z" fill="url(#leaf12)" opacity="0.15" transform="rotate(174.7 1745.7 192.3)"/>
    <path d="M 1419.969856635542,417.90300779042605 C 1456.8483216795817,448.63506199379225 1469.141143360928,491.65993787850493 1419.969856635542,540.8312246038909 C 1370.7985699101562,491.65993787850493 1383.0913915915025,448.63506199379225 1419.969856635542,417.90300779042605 Z" fill="url(#leaf13)" opacity="0.18" transform="rotate(13.7 1420.0 479.4)"/>
    <path d="M 1725.4601812209291,109.30971800910974 C 1764.0032309256542,141.4289260963806 1776.8509141605625,186.39581741855977 1725.4601812209291,237.7865503581931 C 1674.0694482812958,186.39581741855977 1686.917131516204,141.4289260963806 1725.4601812209291,109.30971800910974 Z" fill="url(#leaf14)" opacity="0.17" transform="rotate(262.4 1725.5 173.5)"/>
    <path d="M 780.3713657830498,320.1327630174298 C 816.7263085603192,350.42854866515427 828.844622819409,392.8426485719686 780.3713657830498,441.3159056083278 C 731.8981087466906,392.8426485719686 744.0164230057803,350.42854866515427 780.3713657830498,320.1327630174298 Z" fill="url(#leaf15)" opacity="0.19" transform="rotate(353.8 780.4 380.7)"/>
    <path d="M 1050.4402783508172,238.8104383337139 C 1089.9129916270924,271.70436606394327 1103.0705627191842,317.75586488626436 1050.4402783508172,370.3861492546313 C 997.8099939824502,317.75586488626436 1010.9675650745419,271.70436606394327 1050.4402783508172,238.8104383337139 Z" fill="url(#leaf16)" opacity="0.21" transform="rotate(243.8 1050.4 304.6)"/>
    <path d="M 369.44518399963766,434.38881934259183 C 401.7284583132845,461.29154793729754 412.48954975116675,498.95536796988546 369.44518399963766,541.9997337214145 C 326.4008182481086,498.95536796988546 337.16190968599085,461.29154793729754 369.44518399963766,434.38881934259183 Z" fill="url(#leaf17)" opacity="0.20" transform="rotate(211.0 369.4 488.2)"/>
    <path d="M 1830.8944238538697,562.5154462120149 C 1855.4099076243951,582.9450160207862 1863.5817355479037,611.5464137530657 1830.8944238538697,644.2337254470997 C 1798.2071121598358,611.5464137530657 1806.3789400833443,582.9450160207862 1830.8944238538697,562.5154462120149 Z" fill="url(#leaf18)" opacity="0.16" transform="rotate(2.3 1830.9 603.4)"/>
    <path d="M 1234.9742730124085,565.8998380843846 C 1277.364139867266,601.2247271300992 1291.494095485552,650.6795717940996 1234.9742730124085,707.199394267243 C 1178.454450539265,650.6795717940996 1192.584406157551,601.2247271300992 1234.9742730124085,565.8998380843846 Z" fill="url(#leaf19)" opacity="0.19" transform="rotate(356.9 1235.0 636.5)"/>
    <path d="M 584.2279315850969,972.3959637301144 C 605.5608760053157,990.17341741363 612.6718574787219,1015.0618525705519 584.2279315850969,1043.5057784641767 C 555.784005691472,1015.0618525705519 562.8949871648782,990.17341741363 584.2279315850969,972.3959637301144 Z" fill="url(#leaf20)" opacity="0.16" transform="rotate(150.6 584.2 1008.0)"/>
    <path d="M 416.2223563756644,685.1359765466121 C 449.0153328566766,712.4634569474557 459.946325017014,750.7219295086365 416.2223563756644,794.4458981499862 C 372.4983877343148,750.7219295086365 383.4293798946522,712.4634569474557 416.2223563756644,685.1359765466121 Z" fill="url(#leaf21)" opacity="0.19" transform="rotate(170.0 416.2 739.8)"/>
    <path d="M 831.7702889458398,444.9106091645396 C 852.8023154385327,462.43729790845043 859.812990936097,486.9746621499255 831.7702889458398,515.0173641401827 C 803.7275869555825,486.9746621499255 810.7382624531468,462.43729790845043 831.7702889458398,444.9106091645396 Z" fill="url(#leaf22)" opacity="0.18" transform="rotate(105.4 831.8 480.0)"/>
    <path d="M 1450.1718343929178,209.28349892201237 C 1488.8169221734925,241.48773873915786 1501.6986181003506,286.57367448316154 1450.1718343929178,338.10045819059434 C 1398.645050685485,286.57367448316154 1411.5267466123432,241.48773873915786 1450.1718343929178,209.28349892201237 Z" fill="url(#leaf23)" opacity="0.15" transform="rotate(315.2 1450.2 273.7)"/>
    <path d="M 1547.1905341230924,653.0792250086073 C 1591.9748381351255,690.3994783519682 1606.9029394724698,742.6478330326735 1547.1905341230924,802.3602383820509 C 1487.478128773715,742.6478330326735 1502.4062301110594,690.3994783519682 1547.1905341230924,653.0792250086073 Z" fill="url(#leaf24)" opacity="0.17" transform="rotate(133.1 1547.2 727.7)"/>
    <path d="M 1440.5352316127896,604.59794545381 C 1487.166759150387,643.457551735141 1502.7106016629193,697.8610005290044 1440.5352316127896,760.0363705791341 C 1378.35986156266,697.8610005290044 1393.9037040751923,643.457551735141 1440.5352316127896,604.59794545381 Z" fill="url(#leaf25)" opacity="0.15" transform="rotate(6.4 1440.5 682.3)"/>
    <path d="M 821.2064349358355,609.2328808908889 C 863.1399089217467,644.1774425458149 877.1177335837172,693.0998288627113 821.2064349358355,749.0111275105929 C 765.2951362879539,693.0998288627113 779.2729609499244,644.1774425458149 821.2064349358355,609.2328808908889 Z" fill="url(#leaf26)" opacity="0.20" transform="rotate(53.7 821.2 679.1)"/>
    <path d="M 734.2338286591639,748.1215114127076 C 764.8146522084244,773.6055310370913 775.0082600581778,809.2831585112284 734.2338286591639,850.0575899102423 C 693.45939726015,809.2831585112284 703.6530051099035,773.6055310370913 734.2338286591639,748.1215114127076 Z" fill="url(#leaf27)" opacity="0.24" transform="rotate(184.4 734.2 799.1)"/>
    <path d="M 509.21016589788866,904.9380340541975 C 545.880593456795,935.4967236866195 558.1040693097639,978.2788891720103 509.21016589788866,1027.1727925838854 C 460.31626248601344,978.2788891720103 472.53973833898226,935.4967236866195 509.21016589788866,904.9380340541975 Z" fill="url(#leaf28)" opacity="0.17" transform="rotate(333.5 509.2 966.1)"/>
    <path d="M 249.1935486669133,684.4160681444241 C 291.2013586358162,719.4225764518432 305.2039619587838,768.4316880822298 249.1935486669133,824.4421013741003 C 193.18313537504284,768.4316880822298 207.18573869801045,719.4225764518432 249.1935486669133,684.4160681444241 Z" fill="url(#leaf29)" opacity="0.16" transform="rotate(347.1 249.2 754.4)"/>
    <path d="M 821.6597843742494,835.8679399690557 C 843.6695484502158,854.209410032361 851.0061364755378,879.8874681209884 821.6597843742494,909.2338202222768 C 792.313432272961,879.8874681209884 799.650020298283,854.209410032361 821.6597843742494,835.8679399690557 Z" fill="url(#leaf0)" opacity="0.20" transform="rotate(108.3 821.7 872.6)"/>
    <path d="M 142.27444631513677,156.18064194201176 C 187.99348152797415,194.27983795270958 203.2331599322533,247.61871236768653 142.27444631513677,308.5774259848031 C 81.31573269802024,247.61871236768653 96.55541110229939,194.27983795270958 142.27444631513677,156.18064194201176 Z" fill="url(#leaf1)" opacity="0.18" transform="rotate(101.4 142.3 232.4)"/>
    <path d="M 1867.6932423029011,734.6643406391447 C 1888.2984818591988,751.835373602726 1895.1668950446312,775.87481975174 1867.6932423029011,803.3484724934701 C 1840.219589561171,775.87481975174 1847.0880027466035,751.835373602726 1867.6932423029011,734.6643406391447 Z" fill="url(#leaf2)" opacity="0.25" transform="rotate(291.0 1867.7 769.0)"/>
    <path d="M 268.5249742043118,88.04217605925055 C 297.96777951147436,112.5778471485527 307.7820479471952,146.92778667357572 268.5249742043118,186.18486041645917 C 229.26790046142833,146.92778667357572 239.0821688971492,112.5778471485527 268.5249742043118,88.04217605925055 Z" fill="url(#leaf3)" opacity="0.21" transform="rotate(301.4 268.5 137.1)"/>
    <path d="M 1758.0363687416645,535.5705707990321 C 1783.3179871677953,556.6385861541411 1791.7451933098387,586.1338076512935 1758.0363687416645,619.8426322194678 C 1724.3275441734904,586.1338076512935 1732.7547503155338,556.6385861541411 1758.0363687416645,535.5705707990321 Z" fill="url(#leaf4)" opacity="0.20" transform="rotate(281.4 1758.0 577.7)"/>
    <path d="M 1039.6009996841544,714.0771789923058 C 1075.5474271129594,744.0325351829767 1087.5295695892278,785.9700338499159 1039.6009996841544,833.8986037549894 C 991.672429779081,785.9700338499159 1003.6545722553494,744.0325351829767 1039.6009996841544,714.0771789923058 Z" fill="url(#leaf5)" opacity="0.21" transform="rotate(57.0 1039.6 774.0)"/>
    <path d="M 1717.463945840682,620.5044226435045 C 1745.0218037913744,643.4693042690815 1754.2077564416054,675.6201385448893 1717.463945840682,712.3639491458125 C 1680.7201352397587,675.6201385448893 1689.9060878899897,643.4693042690815 1717.463945840682,620.5044226435045 Z" fill="url(#leaf6)" opacity="0.21" transform="rotate(268.7 1717.5 666.4)"/>
    <path d="M 775.6263227278245,552.3592606647322 C 817.2119497158506,587.0139498214206 831.0738253785258,635.5305146407844 775.6263227278245,690.9780172914858 C 720.1788200771231,635.5305146407844 734.0406957397984,587.0139498214206 775.6263227278245,552.3592606647322 Z" fill="url(#leaf7)" opacity="0.19" transform="rotate(259.8 775.6 621.7)"/>
    <path d="M 928.9831978546094,447.29303067072976 C 958.0617747890844,471.5251781161255 967.7546337672427,505.45018453967964 928.9831978546094,544.2216204523129 C 890.2117619419762,505.45018453967964 899.9046209201344,471.5251781161255 928.9831978546094,447.29303067072976 Z" fill="url(#leaf8)" opacity="0.18" transform="rotate(287.0 929.0 495.8)"/>
    <path d="M 1784.4094951560455,47.69908795747938 C 1811.7042998987135,70.44475857636944 1820.8025681462696,102.28869744281552 1784.4094951560455,138.68177043303962 C 1748.0164221658215,102.28869744281552 1757.1146904133775,70.44475857636944 1784.4094951560455,47.69908795747938 Z" fill="url(#leaf9)" opacity="0.20" transform="rotate(240.2 1784.4 93.2)"/>
    <path d="M 908.1574580125392,860.6341952129437 C 938.9311241632798,886.2789170052275 949.1890128801933,922.1815275144248 908.1574580125392,963.2130823820789 C 867.1259031448851,922.1815275144248 877.3837918617986,886.2789170052275 908.1574580125392,860.6341952129437 Z" fill="url(#leaf10)" opacity="0.24" transform="rotate(272.8 908.2 911.9)"/>
    <path d="M 821.2888415092943,918.1475714303571 C 862.9643356994445,952.8771499221488 876.8561670961611,1001.4985598106573 821.2888415092943,1057.0658853975242 C 765.7215159224276,1001.4985598106573 779.6133473191442,952.8771499221488 821.2888415092943,918.1475714303571 Z" fill="url(#leaf11)" opacity="0.18" transform="rotate(301.8 821.3 987.6)"/>
    <path d="M 926.1918037005985,217.50309397315107 C 973.435921311776,256.87319198246576 989.1839605155019,311.99132919550624 926.1918037005985,374.9834860104097 C 863.1996468856951,311.99132919550624 878.9476860894209,256.87319198246576 926.1918037005985,217.50309397315107 Z" fill="url(#leaf12)" opacity="0.15" transform="rotate(355.9 926.2 296.2)"/>
    <path d="M 778.8687173595107,656.0320012755936 C 810.725665310961,682.5794579018021 821.3446479614443,719.745897178494 778.8687173595107,762.2218277804276 C 736.3927867575771,719.745897178494 747.0117694080604,682.5794579018021 778.8687173595107,656.0320012755936 Z" fill="url(#leaf13)" opacity="0.20" transform="rotate(302.2 778.9 709.1)"/>
    <path d="M 427.2756330998467,531.8771037457188 C 451.73637476595314,552.261055134141 459.88995532132196,580.7985870779319 427.2756330998467,613.4129092994071 C 394.6613108783714,580.7985870779319 402.81489143374023,552.261055134141 427.2756330998467,531.8771037457188 Z" fill="url(#leaf14)" opacity="0.16" transform="rotate(141.1 427.3 572.6)"/>
    <path d="M 80.83771123157467,467.1205390435531 C 100.32729406343502,483.3618580701034 106.82382167405514,506.09970470727376 80.83771123157467,532.0858151497542 C 54.851600789094206,506.09970470727376 61.34812839971433,483.3618580701034 80.83771123157467,467.1205390435531 Z" fill="url(#leaf15)" opacity="0.17" transform="rotate(297.6 80.8 499.6)"/>
    <path d="M 1038.9572205498762,160.02839070904784 C 1067.9157080224704,184.16046360287643 1077.5685371800018,217.94536565423644 1038.9572205498762,256.5566822843621 C 1000.3459039197504,217.94536565423644 1009.9987330772819,184.16046360287643 1038.9572205498762,160.02839070904784 Z" fill="url(#leaf16)" opacity="0.19" transform="rotate(102.7 1039.0 208.3)"/>
    <path d="M 1345.9242167064222,729.7251767596588 C 1384.5765371360105,761.9354437843157 1397.4606439458732,807.0298176188353 1345.9242167064222,858.5662448582864 C 1294.387789466971,807.0298176188353 1307.2718962768338,761.9354437843157 1345.9242167064222,729.7251767596588 Z" fill="url(#leaf17)" opacity="0.19" transform="rotate(281.6 1345.9 794.1)"/>
    <path d="M 504.43547396437606,188.69704638441982 C 525.2586152814232,206.04966414862574 532.1996623871055,230.34332901851403 504.43547396437606,258.1075174412435 C 476.6712855416466,230.34332901851403 483.61233264732897,206.04966414862574 504.43547396437606,188.69704638441982 Z" fill="url(#leaf18)" opacity="0.18" transform="rotate(216.6 504.4 223.4)"/>
    <path d="M 425.3025931505916,439.23235914235147 C 458.5671031036943,466.9527841032704 469.6552730880619,505.761379048557 425.3025931505916,550.1140589860273 C 380.94991321312125,505.761379048557 392.03808319748885,466.9527841032704 425.3025931505916,439.23235914235147 Z" fill="url(#leaf19)" opacity="0.23" transform="rotate(317.4 425.3 494.7)"/>
    <path d="M 91.94537205573047,874.7904944270367 C 136.4808780434851,911.9034160834989 151.32604670606997,963.861506402546 91.94537205573047,1023.2421810528854 C 32.56469740539099,963.861506402546 47.40986606797586,911.9034160834989 91.94537205573047,874.7904944270367 Z" fill="url(#leaf20)" opacity="0.22" transform="rotate(293.2 91.9 949.0)"/>
    <path d="M 763.4367402369426,309.7810183491517 C 797.2400700145927,337.9504598305267 808.5078466071427,377.38767790445183 763.4367402369426,422.4587842746519 C 718.3656338667424,377.38767790445183 729.6334104592925,337.9504598305267 763.4367402369426,309.7810183491517 Z" fill="url(#leaf21)" opacity="0.24" transform="rotate(164.9 763.4 366.1)"/>
    <path d="M 1049.1031446599936,748.0380341087763 C 1073.8871695795435,768.6913882084012 1082.1485112193936,797.6060839478762 1049.1031446599936,830.6514505072761 C 1016.0577781005936,797.6060839478762 1024.3191197404437,768.6913882084012 1049.1031446599936,748.0380341087763 Z" fill="url(#leaf22)" opacity="0.24" transform="rotate(347.9 1049.1 789.3)"/>
    <path d="M 1856.5349618611358,326.3529565693142 C 1879.4415406118303,345.44177219489296 1887.0770668620619,372.16611407070326 1856.5349618611358,402.7082190716293 C 1825.9928568602097,372.16611407070326 1833.6283831104413,345.44177219489296 1856.5349618611358,326.3529565693142 Z" fill="url(#leaf23)" opacity="0.20" transform="rotate(48.7 1856.5 364.5)"/>
    <path d="M 359.5922300335448,3.7433519755108478 C 388.7438338133341,28.03635512533525 398.4610350732639,62.04655953508941 359.5922300335448,100.91536457480845 C 320.72342499382574,62.04655953508941 330.4406262537555,28.03635512533525 359.5922300335448,3.7433519755108478 Z" fill="url(#leaf24)" opacity="0.25" transform="rotate(220.7 359.6 52.3)"/>
    <path d="M 1015.2634243579298,469.27688365879015 C 1052.4474487925124,500.26357068760905 1064.8421236040401,543.6449325279556 1015.2634243579298,593.2236317740659 C 965.6847251118195,543.6449325279556 978.0793999233471,500.26357068760905 1015.2634243579298,469.27688365879015 Z" fill="url(#leaf25)" opacity="0.23" transform="rotate(250.2 1015.3 531.3)"/>
    <path d="M 1783.5270513515986,99.42005917137908 C 1814.550109174757,125.27260735734427 1824.891128449143,161.46617481769553 1783.5270513515986,202.83025191523984 C 1742.1629742540542,161.46617481769553 1752.5039935284403,125.27260735734427 1783.5270513515986,99.42005917137908 Z" fill="url(#leaf26)" opacity="0.19" transform="rotate(183.2 1783.5 151.1)"/>
    <path d="M 1106.5229301278177,290.2407871176073 C 1132.4690818827698,311.862580246734 1141.1177991344205,342.1330906275114 1106.5229301278177,376.7279596341142 C 1071.928061121215,342.1330906275114 1080.5767783728656,311.862580246734 1106.5229301278177,290.2407871176073 Z" fill="url(#leaf27)" opacity="0.19" transform="rotate(173.1 1106.5 333.5)"/>
    <path d="M 1753.7940705008027,345.73966933616407 C 1778.9070500614557,366.6671523033749 1787.27804324834,395.96562845747 1753.7940705008027,429.4496012050073 C 1720.3100977532654,395.96562845747 1728.6810909401497,366.6671523033749 1753.7940705008027,345.73966933616407 Z" fill="url(#leaf28)" opacity="0.18" transform="rotate(62.4 1753.8 387.6)"/>
    <path d="M 1037.8728028335931,402.6001966009261 C 1078.3872920215472,436.3622709242212 1091.8921217508653,483.6291749768343 1037.8728028335931,537.6484938941064 C 983.853483916321,483.6291749768343 997.3583136456391,436.3622709242212 1037.8728028335931,402.6001966009261 Z" fill="url(#leaf29)" opacity="0.19" transform="rotate(359.6 1037.9 470.1)"/>
    <path d="M 547.8696018684266,246.83542597215902 C 586.3799693224569,278.9273988505176 599.2167584738003,323.85616088021965 547.8696018684266,375.2033174855934 C 496.5224452630528,323.85616088021965 509.35923441439627,278.9273988505176 547.8696018684266,246.83542597215902 Z" fill="url(#leaf0)" opacity="0.23" transform="rotate(191.9 547.9 311.0)"/>
    <path d="M 1848.1942422108414,192.03696844762203 C 1885.368597696184,223.01559801874086 1897.7600495246315,266.3856794183072 1848.1942422108414,315.9514867320973 C 1798.6284348970512,266.3856794183072 1811.0198867254987,223.01559801874086 1848.1942422108414,192.03696844762203 Z" fill="url(#leaf1)" opacity="0.15" transform="rotate(246.8 1848.2 254.0)"/>
    <path d="M 1453.9653593804007,214.05112131441518 C 1480.1595884559686,235.87964554405497 1488.8909981478243,266.43957946555065 1453.9653593804007,301.3652182329743 C 1419.0397206129771,266.43957946555065 1427.771130304833,235.87964554405497 1453.9653593804007,214.05112131441518 Z" fill="url(#leaf2)" opacity="0.15" transform="rotate(151.5 1454.0 257.7)"/>
    <path d="M 1592.0761383512593,392.63077047251994 C 1613.2717427391194,410.29377412907013 1620.3369442017395,435.02197924824037 1592.0761383512593,463.2827850987207 C 1563.815332500779,435.02197924824037 1570.880533963399,410.29377412907013 1592.0761383512593,392.63077047251994 Z" fill="url(#leaf3)" opacity="0.21" transform="rotate(202.3 1592.1 428.0)"/>
    <path d="M 911.6246834871102,778.0373558337645 C 956.7728522854557,815.6608298323857 971.8222418849042,868.3336934304554 911.6246834871102,928.5312518282493 C 851.4271250893163,868.3336934304554 866.4765146887648,815.6608298323857 911.6246834871102,778.0373558337645 Z" fill="url(#leaf4)" opacity="0.18" transform="rotate(252.7 911.6 853.3)"/>
    <path d="M 1491.7429691618986,710.5392630806853 C 1515.5552255767948,730.3828100930987 1523.49264438176,758.1637759104774 1491.7429691618986,789.9134511303389 C 1459.993293942037,758.1637759104774 1467.9307127470024,730.3828100930987 1491.7429691618986,710.5392630806853 Z" fill="url(#leaf5)" opacity="0.22" transform="rotate(102.0 1491.7 750.2)"/>
    <path d="M 510.4877981639688,678.4605391855458 C 531.5164896390459,695.9844487481099 538.5260534640714,720.5179221356998 510.4877981639688,748.5561774358024 C 482.44954286386616,720.5179221356998 489.45910668889184,695.9844487481099 510.4877981639688,678.4605391855458 Z" fill="url(#leaf6)" opacity="0.17" transform="rotate(51.3 510.5 713.5)"/>
    <path d="M 1336.4313601819981,565.7600016180895 C 1370.259041109298,593.9497357241727 1381.5349347517313,633.4153634726893 1336.4313601819981,678.5189380424224 C 1291.327785612265,633.4153634726893 1302.6036792546981,593.9497357241727 1336.4313601819981,565.7600016180895 Z" fill="url(#leaf7)" opacity="0.22" transform="rotate(315.6 1336.4 622.1)"/>
    <path d="M 68.46058133415247,331.5232658661702 C 100.52520307350116,358.24378398229413 111.21341031995074,395.6525093448676 68.46058133415247,438.40533833066587 C 25.70775234835419,395.6525093448676 36.39595959480376,358.24378398229413 68.46058133415247,331.5232658661702 Z" fill="url(#leaf8)" opacity="0.16" transform="rotate(199.9 68.5 385.0)"/>
    <path d="M 86.16378934501927,637.6515699061885 C 122.85633829598987,668.2286940319973 135.0871879463134,711.0366678081297 86.16378934501927,759.9600664094238 C 37.240390743725115,711.0366678081297 49.47124039404866,668.2286940319973 86.16378934501927,637.6515699061885 Z" fill="url(#leaf9)" opacity="0.22" transform="rotate(31.3 86.2 698.8)"/>
    <path d="M 865.4122241331365,201.00188776367412 C 902.3202108715857,231.75854337904846 914.6228731177355,274.81786124057254 865.4122241331365,324.0285102251715 C 816.2015751485376,274.81786124057254 828.5042373946874,231.75854337904846 865.4122241331365,201.00188776367412 Z" fill="url(#leaf10)" opacity="0.23" transform="rotate(110.9 865.4 262.5)"/>
    <path d="M 98.29791613225584,500.98608622741796 C 123.09621369278032,521.6513341945217 131.3623128796218,550.582681348467 98.29791613225584,583.647078095833 C 65.23351938488986,550.582681348467 73.49961857173135,521.6513341945217 98.29791613225584,500.98608622741796 Z" fill="url(#leaf11)" opacity="0.23" transform="rotate(56.3 98.3 542.3)"/>
    <path d="M 1658.3179558172321,917.9047794384563 C 1703.6849463564463,955.7106048878014 1718.8072765361842,1008.6387605168845 1658.3179558172321,1069.1280812358368 C 1597.82863509828,1008.6387605168845 1612.950965278018,955.7106048878014 1658.3179558172321,917.9047794384563 Z" fill="url(#leaf12)" opacity="0.20" transform="rotate(283.1 1658.3 993.5)"/>
    <path d="M 489.85335952121767,230.94418456749764 C 520.0841614041617,256.13651946995105 530.1610953651431,291.4057883333858 489.85335952121767,331.71352417731117 C 449.54562367729227,291.4057883333858 459.62255763827363,256.13651946995105 489.85335952121767,230.94418456749764 Z" fill="url(#leaf13)" opacity="0.16" transform="rotate(212.2 489.9 281.3)"/>
    <path d="M 1662.7518855548055,437.2922719750197 C 1689.020937987146,459.18314900197004 1697.777288797926,489.8303768397005 1662.7518855548055,524.855780082821 C 1627.726482311685,489.8303768397005 1636.482833122465,459.18314900197004 1662.7518855548055,437.2922719750197 Z" fill="url(#leaf14)" opacity="0.18" transform="rotate(355.2 1662.8 481.1)"/>
    <path d="M 490.7781750687891,495.9009415821911 C 510.57169154846764,512.3955386485899 517.1695303750272,535.4879745415482 490.7781750687891,561.8793298477863 C 464.38681976255106,535.4879745415482 470.98465858911055,512.3955386485899 490.7781750687891,495.9009415821911 Z" fill="url(#leaf15)" opacity="0.18" transform="rotate(200.2 490.8 528.9)"/>
    <path d="M 90.74606518212988,411.7472393447782 C 117.51687944984155,434.05625123453797 126.44048420574546,465.2888678802016 90.74606518212988,500.9832869038172 C 55.05164615851431,465.2888678802016 63.97525091441821,434.05625123453797 90.74606518212988,411.7472393447782 Z" fill="url(#leaf16)" opacity="0.20" transform="rotate(237.8 90.7 456.4)"/>
    <path d="M 439.0058146869397,650.2918303272104 C 475.8953353946095,681.033097583602 488.19184229716615,724.0708717425501 439.0058146869397,773.2568993527766 C 389.8197870767132,724.0708717425501 402.11629397926987,681.033097583602 439.0058146869397,650.2918303272104 Z" fill="url(#leaf17)" opacity="0.23" transform="rotate(290.7 439.0 711.8)"/>
    <path d="M 726.8705315875263,843.8715610010971 C 772.7081471937367,882.0695740062724 787.987352395807,935.546792213518 726.8705315875263,996.6636130217986 C 665.7537107792457,935.546792213518 681.0329159813159,882.0695740062724 726.8705315875263,843.8715610010971 Z" fill="url(#leaf18)" opacity="0.24" transform="rotate(224.5 726.9 920.3)"/>
    <path d="M 1010.1104441314553,725.0308802453618 C 1042.9600467308842,752.4055490782192 1053.909914264027,790.7300854442195 1010.1104441314553,834.5295555767913 C 966.3109739988836,790.7300854442195 977.2608415320265,752.4055490782192 1010.1104441314553,725.0308802453618 Z" fill="url(#leaf19)" opacity="0.25" transform="rotate(213.8 1010.1 779.8)"/>
    <path d="M 1171.8949917524917,440.615196591653 C 1190.1170866585965,455.80027568007364 1196.1911182939648,477.0593864038626 1171.8949917524917,501.3555129453357 C 1147.5988652110186,477.0593864038626 1153.672896846387,455.80027568007364 1171.8949917524917,440.615196591653 Z" fill="url(#leaf20)" opacity="0.19" transform="rotate(283.1 1171.9 471.0)"/>
    <path d="M 1519.9566247477796,171.27461201406982 C 1564.57526851677,208.45681515489514 1579.4481497731,260.51189955205064 1519.9566247477796,320.00342457737116 C 1460.4650997224592,260.51189955205064 1475.3379809787893,208.45681515489514 1519.9566247477796,171.27461201406982 Z" fill="url(#leaf21)" opacity="0.19" transform="rotate(311.8 1520.0 245.6)"/>
    <path d="M 428.50648184655614,170.4770785820225 C 472.14623613895276,206.843540492353 486.69282090308496,257.7565871668157 428.50648184655614,315.9429262233445 C 370.3201427900273,257.7565871668157 384.8667275541595,206.843540492353 428.50648184655614,170.4770785820225 Z" fill="url(#leaf22)" opacity="0.17" transform="rotate(59.7 428.5 243.2)"/>
    <path d="M 1615.2725531038138,26.03547208629803 C 1645.6079613870463,51.31497898899177 1655.7197641481239,86.706288652763 1615.2725531038138,127.15349969707299 C 1574.8253420595038,86.706288652763 1584.9371448205814,51.31497898899177 1615.2725531038138,26.03547208629803 Z" fill="url(#leaf23)" opacity="0.16" transform="rotate(158.4 1615.3 76.6)"/>
    <path d="M 417.58219847926097,26.89233217192649 C 438.83915550240374,44.60646302454548 445.92480784345133,69.40624621821206 417.58219847926097,97.74885558240246 C 389.2395891150706,69.40624621821206 396.3252414561182,44.60646302454548 417.58219847926097,26.89233217192649 Z" fill="url(#leaf24)" opacity="0.25" transform="rotate(13.3 417.6 62.3)"/>
    <path d="M 792.688354525711,729.3231027702428 C 814.0952972471035,747.1622217047366 821.230944820901,772.1369882130278 792.688354525711,800.6795785082178 C 764.1457642305211,772.1369882130278 771.2814118043185,747.1622217047366 792.688354525711,729.3231027702428 Z" fill="url(#leaf25)" opacity="0.20" transform="rotate(253.9 792.7 765.0)"/>
    <path d="M 98.0552865309555,679.8799039053079 C 141.70609292081028,716.2555758968534 156.25636171742855,767.1815166850174 98.0552865309555,825.3825918714904 C 39.854211344482465,767.1815166850174 54.40448014110073,716.2555758968534 98.0552865309555,679.8799039053079 Z" fill="url(#leaf26)" opacity="0.17" transform="rotate(277.5 98.1 752.6)"/>
    <path d="M 275.74395529627884,533.1643769502862 C 322.794090193649,572.3728226980946 338.47746849277246,627.2646467450265 275.74395529627884,689.99815994152 C 213.01044209978525,627.2646467450265 228.69382039890866,572.3728226980946 275.74395529627884,533.1643769502862 Z" fill="url(#leaf27)" opacity="0.18" transform="rotate(320.2 275.7 611.6)"/>
    <path d="M 146.85852736141666,749.1314486214476 C 184.8866598350599,780.8215590161502 197.56270399294098,825.187713568734 146.85852736141666,875.8918902002583 C 96.15435072989234,825.187713568734 108.83039488777342,780.8215590161502 146.85852736141666,749.1314486214476 Z" fill="url(#leaf28)" opacity="0.18" transform="rotate(284.7 146.9 812.5)"/>
    <path d="M 372.7780451214535,515.823353141448 C 406.2932066040003,543.7526543769037 417.4649270981826,582.8536761065417 372.7780451214535,627.5405580832708 C 328.09116314472436,582.8536761065417 339.26288363890666,543.7526543769037 372.7780451214535,515.823353141448 Z" fill="url(#leaf29)" opacity="0.20" transform="rotate(207.6 372.8 571.7)"/>
    <path d="M 381.86810919691527,452.6259186650096 C 410.4558250690184,476.4490152250955 419.9850636930527,509.80135040921573 381.86810919691527,547.9183049053531 C 343.7511547007778,509.80135040921573 353.28039332481217,476.4490152250955 381.86810919691527,452.6259186650096 Z" fill="url(#leaf0)" opacity="0.22" transform="rotate(2.9 381.9 500.3)"/>
    <path d="M 1801.8881043752535,370.73473217641515 C 1820.3896902147121,386.152720375964 1826.5568854945318,407.73790385533243 1801.8881043752535,432.4066849746106 C 1777.2193232559753,407.73790385533243 1783.386518535795,386.152720375964 1801.8881043752535,370.73473217641515 Z" fill="url(#leaf1)" opacity="0.17" transform="rotate(199.6 1801.9 401.6)"/>
    <path d="M 1189.4354867960546,812.6894072173972 C 1235.4678350876159,851.0496974603648 1250.8119511848029,904.7541038005194 1189.4354867960546,966.1305681892676 C 1128.0590224073064,904.7541038005194 1143.4031385044934,851.0496974603648 1189.4354867960546,812.6894072173972 Z" fill="url(#leaf2)" opacity="0.18" transform="rotate(38.1 1189.4 889.4)"/>
    <path d="M 109.94278772979648,541.2491621346237 C 157.39012268922028,580.7886079341434 173.2059010090282,636.1438320534712 109.94278772979648,699.4069453327029 C 46.679674450564754,636.1438320534712 62.49545277037269,580.7886079341434 109.94278772979648,541.2491621346237 Z" fill="url(#leaf3)" opacity="0.23" transform="rotate(25.5 109.9 620.3)"/>
    <path d="M 1710.3493148284003,801.2577123541839 C 1749.875041508284,834.1958179207537 1763.050283734912,880.3091657139514 1710.3493148284003,933.0101346204631 C 1657.6483459218887,880.3091657139514 1670.8235881485166,834.1958179207537 1710.3493148284003,801.2577123541839 Z" fill="url(#leaf4)" opacity="0.25" transform="rotate(177.0 1710.3 867.1)"/>
    <path d="M 1683.1359765760392,236.3962587573907 C 1724.5772806786101,270.93067884286654 1738.3910487128005,319.27886696253273 1683.1359765760392,374.5339390992941 C 1627.8809044392779,319.27886696253273 1641.6946724734682,270.93067884286654 1683.1359765760392,236.3962587573907 Z" fill="url(#leaf5)" opacity="0.15" transform="rotate(25.5 1683.1 305.5)"/>
    <path d="M 1309.3951007401363,202.70431141666862 C 1344.3509833720843,231.8342136099586 1356.0029442494003,272.6160766805646 1309.3951007401363,319.2239201898286 C 1262.7872572308722,272.6160766805646 1274.4392181081882,231.8342136099586 1309.3951007401363,202.70431141666862 Z" fill="url(#leaf6)" opacity="0.24" transform="rotate(302.3 1309.4 261.0)"/>
    <path d="M 1062.5916959998053,691.4279757330218 C 1089.3918350796284,713.7614249662076 1098.3252147729029,745.028253892668 1062.5916959998053,780.7617726657655 C 1026.8581772267078,745.028253892668 1035.7915569199822,713.7614249662076 1062.5916959998053,691.4279757330218 Z" fill="url(#leaf7)" opacity="0.16" transform="rotate(350.9 1062.6 736.1)"/>
    <path d="M 900.60482957599,608.917800404935 C 948.1629125928179,648.5495362522914 964.0156069317604,704.0339664385905 900.60482957599,767.4447437943609 C 837.1940522202196,704.0339664385905 853.0467465591622,648.5495362522914 900.60482957599,608.917800404935 Z" fill="url(#leaf8)" opacity="0.15" transform="rotate(71.4 900.6 688.2)"/>
    <path d="M 553.0513811212911,298.6689606518975 C 592.7115286104578,331.7190835595364 605.9315777735133,377.9892556302308 553.0513811212911,430.869452282453 C 500.1711844690689,377.9892556302308 513.3912336321245,331.7190835595364 553.0513811212911,298.6689606518975 Z" fill="url(#leaf9)" opacity="0.15" transform="rotate(62.7 553.1 364.8)"/>
    <path d="M 643.960379530994,864.6992856363748 C 662.3729675645858,880.0431089977013 668.5104969091163,901.5244617035584 643.960379530994,926.0745790816808 C 619.4102621528717,901.5244617035584 625.5477914974023,880.0431089977013 643.960379530994,864.6992856363748 Z" fill="url(#leaf10)" opacity="0.20" transform="rotate(212.7 644.0 895.4)"/>
    <path d="M 201.62947363413565,325.0052836864847 C 223.56721387450222,343.28673388679016 230.8797939546244,368.8807641672178 201.62947363413565,398.1310844877066 C 172.3791533136469,368.8807641672178 179.69173339376908,343.28673388679016 201.62947363413565,325.0052836864847 Z" fill="url(#leaf11)" opacity="0.17" transform="rotate(295.7 201.6 361.6)"/>
    <path d="M 1708.3668046859048,331.7493087080201 C 1747.1849309381037,364.09774725151914 1760.1243063555032,409.38556121241777 1708.3668046859048,461.1430628820162 C 1656.6093030163063,409.38556121241777 1669.5486784337058,364.09774725151914 1708.3668046859048,331.7493087080201 Z" fill="url(#leaf12)" opacity="0.25" transform="rotate(330.9 1708.4 396.4)"/>
    <path d="M 401.81365153566327,88.63350870106864 C 426.1794957368204,108.93837886869957 434.30144380387276,137.3651971033829 401.81365153566327,169.8529893715924 C 369.3258592674538,137.3651971033829 377.44780733450614,108.93837886869957 401.81365153566327,88.63350870106864 Z" fill="url(#leaf13)" opacity="0.19" transform="rotate(282.2 401.8 129.2)"/>
    <path d="M 1865.904356800586,89.84600333071415 C 1898.4854709229096,116.99693176598396 1909.3458422970175,155.0082315753617 1865.904356800586,198.44971707179337 C 1822.4628713041543,155.0082315753617 1833.3232426782622,116.99693176598396 1865.904356800586,89.84600333071415 Z" fill="url(#leaf14)" opacity="0.24" transform="rotate(96.8 1865.9 144.1)"/>
    <path d="M 1216.1798499956703,425.9136970315943 C 1248.2638083361608,452.6503289820031 1258.9584611163243,490.0816137125753 1216.1798499956703,532.8602248332293 C 1173.4012388750164,490.0816137125753 1184.09589165518,452.6503289820031 1216.1798499956703,425.9136970315943 Z" fill="url(#leaf15)" opacity="0.22" transform="rotate(51.7 1216.2 479.4)"/>
    <path d="M 1231.585267803552,564.4450861627035 C 1274.5230693740277,600.2265874714334 1288.8356698975197,650.3206893036552 1231.585267803552,707.5710913976229 C 1174.3348657095842,650.3206893036552 1188.647466233076,600.2265874714334 1231.585267803552,564.4450861627035 Z" fill="url(#leaf16)" opacity="0.22" transform="rotate(147.1 1231.6 636.0)"/>
    <path d="M 646.0057418548101,211.14630045951588 C 669.6266734447889,230.83041011783158 677.5003173081152,258.38816363947353 646.0057418548101,289.88273909277865 C 614.5111664015051,258.38816363947353 622.3848102648313,230.83041011783158 646.0057418548101,211.14630045951588 Z" fill="url(#leaf17)" opacity="0.17" transform="rotate(181.8 646.0 250.5)"/>
    <path d="M 983.2348375903541,262.7610584485523 C 1015.5943012584195,289.72727817194016 1026.3807891477745,327.47998578468304 983.2348375903541,370.62593734210355 C 940.0888860329336,327.47998578468304 950.8753739222888,289.72727817194016 983.2348375903541,262.7610584485523 Z" fill="url(#leaf18)" opacity="0.19" transform="rotate(314.0 983.2 316.7)"/>
    <path d="M 955.3432033236902,764.9108283179773 C 1001.2443776677227,803.1618069380045 1016.5447691157335,856.7131770060423 955.3432033236902,917.9147427980856 C 894.1416375316469,856.7131770060423 909.4420289796577,803.1618069380045 955.3432033236902,764.9108283179773 Z" fill="url(#leaf19)" opacity="0.22" transform="rotate(143.5 955.3 841.4)"/>
    <path d="M 631.5937424583719,369.44655593527017 C 652.2854748080623,386.6896662266788 659.1827189246258,410.83002063465096 631.5937424583719,438.41899710090485 C 604.0047659921181,410.83002063465096 610.9020101086816,386.6896662266788 631.5937424583719,369.44655593527017 Z" fill="url(#leaf20)" opacity="0.22" transform="rotate(10.1 631.6 403.9)"/>
    <path d="M 1829.129473638043,424.1098553434455 C 1861.7209468817537,451.2694163798711 1872.5847712963239,489.2928018308669 1829.129473638043,532.7480994891479 C 1785.6741759797621,489.2928018308669 1796.5380003943324,451.2694163798711 1829.129473638043,424.1098553434455 Z" fill="url(#leaf21)" opacity="0.16" transform="rotate(246.1 1829.1 478.4)"/>
    <path d="M 1296.9998494679803,299.3330513179765 C 1331.8177910539623,328.34800263962813 1343.423771582623,368.9689344899404 1296.9998494679803,415.39285660458296 C 1250.5759273533376,368.9689344899404 1262.1819078819983,328.34800263962813 1296.9998494679803,299.3330513179765 Z" fill="url(#leaf22)" opacity="0.16" transform="rotate(70.5 1297.0 357.4)"/>
    <path d="M 1779.725605546619,107.88384042704925 C 1813.477059835861,136.01005233475084 1824.7275445989414,175.38674900553306 1779.725605546619,220.3886880578556 C 1734.7236664942964,175.38674900553306 1745.974151257377,136.01005233475084 1779.725605546619,107.88384042704925 Z" fill="url(#leaf23)" opacity="0.19" transform="rotate(227.4 1779.7 164.1)"/>
    <path d="M 105.19093895952435,758.3353215953742 C 145.59487042153296,792.0052644803814 159.06284757553584,839.1431845193914 105.19093895952435,893.0150931354029 C 51.319030343512864,839.1431845193914 64.78700749751573,792.0052644803814 105.19093895952435,758.3353215953742 Z" fill="url(#leaf24)" opacity="0.24" transform="rotate(135.5 105.2 825.7)"/>
    <path d="M 1076.4319229398502,236.40991730703996 C 1096.3656548931774,253.0213606014793 1103.010232210953,276.27738121369435 1076.4319229398502,302.8556904847973 C 1049.8536136687474,276.27738121369435 1056.498190986523,253.0213606014793 1076.4319229398502,236.40991730703996 Z" fill="url(#leaf25)" opacity="0.25" transform="rotate(110.7 1076.4 269.6)"/>
    <path d="M 158.61647336973223,161.28434511616535 C 193.56544851861923,190.40849107357118 205.21510690158158,231.18229541393936 158.61647336973223,277.7809289457887 C 112.0178398378829,231.18229541393936 123.66749822084523,190.40849107357118 158.61647336973223,161.28434511616535 Z" fill="url(#leaf26)" opacity="0.17" transform="rotate(192.9 158.6 219.5)"/>
    <path d="M 1354.4471410548028,194.9801907372403 C 1395.6811562849064,229.34187009565989 1409.4258280282743,277.44822119744737 1354.4471410548028,332.42690817091875 C 1299.4684540813314,277.44822119744737 1313.2131258246993,229.34187009565989 1354.4471410548028,194.9801907372403 Z" fill="url(#leaf27)" opacity="0.19" transform="rotate(10.5 1354.4 263.7)"/>
    <path d="M 838.0910004899765,585.8510654010648 C 869.9266164700814,612.3807453844855 880.5384884634497,649.5222973612745 838.0910004899765,691.9697853347476 C 795.6435125165034,649.5222973612745 806.2553845098716,612.3807453844855 838.0910004899765,585.8510654010648 Z" fill="url(#leaf28)" opacity="0.20" transform="rotate(279.5 838.1 638.9)"/>
    <path d="M 1042.7198183982907,415.2157394848977 C 1067.874114186128,436.1776526414289 1076.2588794487406,465.5243310605725 1042.7198183982907,499.0633921110223 C 1009.1807573478409,465.5243310605725 1017.5655226104534,436.1776526414289 1042.7198183982907,415.2157394848977 Z" fill="url(#leaf29)" opacity="0.16" transform="rotate(297.9 1042.7 457.1)"/>
    <path d="M 520.8138226257198,872.1351823294585 C 550.448334391406,896.8306088008636 560.326504979968,931.4042058608309 520.8138226257198,970.9168882150791 C 481.3011402714716,931.4042058608309 491.17931086003364,896.8306088008636 520.8138226257198,872.1351823294585 Z" fill="url(#leaf0)" opacity="0.19" transform="rotate(266.0 520.8 921.5)"/>
    <path d="M 117.2713415265875,417.92096204274117 C 148.50122051081507,443.94586119626416 158.91118017222428,480.38072001119633 117.2713415265875,522.0205586568331 C 75.63150288095073,480.38072001119633 86.04146254235994,443.94586119626416 117.2713415265875,417.92096204274117 Z" fill="url(#leaf1)" opacity="0.19" transform="rotate(64.3 117.3 470.0)"/>
    <path d="M 185.1353795256256,606.1178308702017 C 206.92857833886214,624.2788298812322 214.19297794327434,649.7042284966749 185.1353795256256,678.7618269143236 C 156.07778110797688,649.7042284966749 163.34218071238908,624.2788298812322 185.1353795256256,606.1178308702017 Z" fill="url(#leaf2)" opacity="0.23" transform="rotate(300.3 185.1 642.4)"/>
    <path d="M 1846.8111167573065,413.5353187566509 C 1884.2260457859527,444.71442628052273 1896.6976887955016,488.3651768139433 1846.8111167573065,538.2517488521382 C 1796.9245447191115,488.3651768139433 1809.3961877286604,444.71442628052273 1846.8111167573065,413.5353187566509 Z" fill="url(#leaf3)" opacity="0.24" transform="rotate(90.8 1846.8 475.9)"/>
    <path d="M 823.2663083551968,367.93920672535535 C 867.5149733376334,404.81309421071916 882.2645283317788,456.4365366902285 823.2663083551968,515.4347566668106 C 764.2680883786147,456.4365366902285 779.0176433727602,404.81309421071916 823.2663083551968,367.93920672535535 Z" fill="url(#leaf4)" opacity="0.24" transform="rotate(69.4 823.3 441.7)"/>
    <path d="M 458.1557948821947,607.7231573540938 C 481.30150693425486,627.0112507308106 489.0167442849416,654.0145814582141 458.1557948821947,684.875530860961 C 427.2948454794478,654.0145814582141 435.01008283013454,627.0112507308106 458.1557948821947,607.7231573540938 Z" fill="url(#leaf5)" opacity="0.23" transform="rotate(340.9 458.2 646.3)"/>
    <path d="M 685.0869663213932,477.64948511129967 C 723.9759251576835,510.0569508082082 736.9389114364469,555.4274027838802 685.0869663213932,607.2793478989339 C 633.2350212063395,555.4274027838802 646.198007485103,510.0569508082082 685.0869663213932,477.64948511129967 Z" fill="url(#leaf6)" opacity="0.17" transform="rotate(142.4 685.1 542.5)"/>
    <path d="M 945.2229675693953,220.89236553978662 C 986.2421150922281,255.0749884754806 999.9151642665057,302.9306605854522 945.2229675693953,357.62285728256256 C 890.530770872285,302.9306605854522 904.2038200465626,255.0749884754806 945.2229675693953,220.89236553978662 Z" fill="url(#leaf7)" opacity="0.20" transform="rotate(5.1 945.2 289.3)"/>
    <path d="M 1732.837107835878,648.2119963407132 C 1757.2336400265447,668.5424398329353 1765.3658174234333,697.0050607220463 1732.837107835878,729.5337703096017 C 1700.3083982483226,697.0050607220463 1708.4405756452113,668.5424398329353 1732.837107835878,648.2119963407132 Z" fill="url(#leaf8)" opacity="0.22" transform="rotate(183.3 1732.8 688.9)"/>
    <path d="M 1615.5862127166226,300.6048111738811 C 1646.5899999190551,326.4413005092415 1656.9245956531993,362.61238557874606 1615.5862127166226,403.9507685153227 C 1574.247829780046,362.61238557874606 1584.5824255141902,326.4413005092415 1615.5862127166226,300.6048111738811 Z" fill="url(#leaf9)" opacity="0.20" transform="rotate(336.7 1615.6 352.3)"/>
    <path d="M 204.79459031297813,693.5243418547051 C 236.04788318684888,719.5687525829306 246.46564747813912,756.0309276024466 204.79459031297813,797.7019847676075 C 163.12353314781714,756.0309276024466 173.54129743910738,719.5687525829306 204.79459031297813,693.5243418547051 Z" fill="url(#leaf10)" opacity="0.21" transform="rotate(52.8 204.8 745.6)"/>
    <path d="M 1746.6173722999147,591.381864683299 C 1784.6580174939338,623.0824023449816 1797.338232558607,667.4631550713373 1746.6173722999147,718.1840153300295 C 1695.8965120412224,667.4631550713373 1708.5767271058955,623.0824023449816 1746.6173722999147,591.381864683299 Z" fill="url(#leaf11)" opacity="0.24" transform="rotate(103.8 1746.6 654.8)"/>
    <path d="M 551.4352129469976,798.0967443483114 C 599.4210636361253,838.0849532559179 615.4163471991678,894.0684457265669 551.4352129469976,958.0495799787373 C 487.4540786948273,894.0684457265669 503.44936225786984,838.0849532559179 551.4352129469976,798.0967443483114 Z" fill="url(#leaf12)" opacity="0.17" transform="rotate(252.9 551.4 878.1)"/>
    <path d="M 612.4799098944211,522.9576742922087 C 637.447319347356,543.7638488363211 645.769789165001,572.8924931980786 612.4799098944211,606.1823724686584 C 579.1900306238412,572.8924931980786 587.5125004414862,543.7638488363211 612.4799098944211,522.9576742922087 Z" fill="url(#leaf13)" opacity="0.16" transform="rotate(189.1 612.5 564.6)"/>
    <path d="M 1017.2119188349582,736.1159283730891 C 1051.34362502418,764.5590168641073 1062.7208604205873,804.3793407515327 1017.2119188349582,849.8882823371617 C 971.7029772493291,804.3793407515327 983.0802126457364,764.5590168641073 1017.2119188349582,736.1159283730891 Z" fill="url(#leaf14)" opacity="0.24" transform="rotate(182.1 1017.2 793.0)"/>
    <path d="M 626.4293171750207,556.6961171519717 C 649.0748644639189,575.5674065593869 656.6233802268849,601.9872117297681 626.4293171750207,632.1812747816323 C 596.2352541231566,601.9872117297681 603.7837698861226,575.5674065593869 626.4293171750207,556.6961171519717 Z" fill="url(#leaf15)" opacity="0.23" transform="rotate(287.2 626.4 594.4)"/>
    <path d="M 243.74002485701857,778.6139404528076 C 278.2377550364973,807.3620489357065 289.73699842965686,847.609400811765 243.74002485701857,893.6063743844034 C 197.74305128438027,847.609400811765 209.24229467753986,807.3620489357065 243.74002485701857,778.6139404528076 Z" fill="url(#leaf16)" opacity="0.23" transform="rotate(198.7 243.7 836.1)"/>
    <path d="M 353.36552437280045,337.9912496964924 C 386.0220598253804,365.205029240309 396.907571642907,403.30432060165225 353.36552437280045,446.8463678717588 C 309.8234771026939,403.30432060165225 320.7089889202205,365.205029240309 353.36552437280045,337.9912496964924 Z" fill="url(#leaf17)" opacity="0.20" transform="rotate(309.6 353.4 392.4)"/>
    <path d="M 373.8680249541083,751.2709270248697 C 397.29353775356043,770.7921876910798 405.10204202004445,798.121952623774 373.8680249541083,829.35596968971 C 342.63400788817216,798.121952623774 350.4425121546562,770.7921876910798 373.8680249541083,751.2709270248697 Z" fill="url(#leaf18)" opacity="0.16" transform="rotate(60.1 373.9 790.3)"/>
    <path d="M 1010.4130326875157,846.7533389211715 C 1044.701759522401,875.3272779502425 1056.1313351340295,915.3307925909422 1010.4130326875157,961.049095037456 C 964.6947302410019,915.3307925909422 976.1243058526303,875.3272779502425 1010.4130326875157,846.7533389211715 Z" fill="url(#leaf19)" opacity="0.25" transform="rotate(257.4 1010.4 903.9)"/>
    <path d="M 1572.5866249641567,699.3950850939536 C 1591.5811659804622,715.2238692742081 1597.912679652564,737.3841671265645 1572.5866249641567,762.7102218149719 C 1547.2605702757494,737.3841671265645 1553.5920839478513,715.2238692742081 1572.5866249641567,699.3950850939536 Z" fill="url(#leaf20)" opacity="0.19" transform="rotate(101.0 1572.6 731.1)"/>
    <path d="M 1781.5351647947205,268.15843325779065 C 1801.5233110804445,284.8152218292273 1808.186026509019,308.1347258292386 1781.5351647947205,334.7855875435373 C 1754.884303080422,308.1347258292386 1761.5470185089964,284.8152218292273 1781.5351647947205,268.15843325779065 Z" fill="url(#leaf21)" opacity="0.21" transform="rotate(93.0 1781.5 301.5)"/>
    <path d="M 113.23784335639289,648.869416555447 C 145.44212616492075,675.7063188958869 156.1768871010967,713.2779821725027 113.23784335639289,756.2170259172066 C 70.29879961168908,713.2779821725027 81.03356054786502,675.7063188958869 113.23784335639289,648.869416555447 Z" fill="url(#leaf22)" opacity="0.16" transform="rotate(254.2 113.2 702.5)"/>
    <path d="M 140.76606060937456,826.7012428649534 C 185.83958337807397,864.2625118388696 200.86409096764044,916.8482884023523 140.76606060937456,976.9463187606182 C 80.66803025110869,916.8482884023523 95.69253784067516,864.2625118388696 140.76606060937456,826.7012428649534 Z" fill="url(#leaf23)" opacity="0.16" transform="rotate(225.6 140.8 901.8)"/>
    <path d="M 939.3012714631009,473.28905526810007 C 985.6562442868366,511.9181992878798 1001.1079018947485,565.9990009155715 939.3012714631009,627.8056313472191 C 877.4946410314533,565.9990009155715 892.9462986393652,511.9181992878798 939.3012714631009,473.28905526810007 Z" fill="url(#leaf24)" opacity="0.21" transform="rotate(200.6 939.3 550.5)"/>
    <path d="M 230.6623899255696,724.5619743919654 C 257.80470076119013,747.1805667549825 266.85213770639695,778.8465960632064 230.6623899255696,815.0363438440338 C 194.47264214474225,778.8465960632064 203.5200790899491,747.1805667549825 230.6623899255696,724.5619743919654 Z" fill="url(#leaf25)" opacity="0.18" transform="rotate(94.9 230.7 769.8)"/>
    <path d="M 1132.7104593407025,938.3435545444312 C 1160.470121969794,961.4766067353407 1169.7233428461577,993.8628798026141 1132.7104593407025,1030.8757633080693 C 1095.6975758352473,993.8628798026141 1104.950796711611,961.4766067353407 1132.7104593407025,938.3435545444312 Z" fill="url(#leaf26)" opacity="0.19" transform="rotate(331.4 1132.7 984.6)"/>
    <path d="M 497.8278467871279,919.5884506155257 C 523.3039841512796,940.818565085652 531.7960299393301,970.540725343829 497.8278467871279,1004.5089084960312 C 463.8596636349257,970.540725343829 472.3517094229763,940.818565085652 497.8278467871279,919.5884506155257 Z" fill="url(#leaf27)" opacity="0.23" transform="rotate(205.9 497.8 962.0)"/>
    <path d="M 169.9685739379923,806.4254872688836 C 207.50233819578733,837.7036241503795 220.01359294838568,881.4930157844736 169.9685739379923,931.538034794867 C 119.9235549275989,881.4930157844736 132.43480968019725,837.7036241503795 169.9685739379923,806.4254872688836 Z" fill="url(#leaf28)" opacity="0.15" transform="rotate(339.7 170.0 869.0)"/>
    <path d="M 660.9561132697196,805.8221014034516 C 704.456559614009,842.0724733570261 718.9567083954389,892.8229940920305 660.9561132697196,950.8235892177497 C 602.9555181440003,892.8229940920305 617.4556669254301,842.0724733570261 660.9561132697196,805.8221014034516 Z" fill="url(#leaf29)" opacity="0.23" transform="rotate(198.6 661.0 878.3)"/>
    <path d="M 1185.3550254404122,521.6583294752189 C 1224.9883627091176,554.6861105324734 1238.1994751320194,600.9250040126299 1185.3550254404122,653.7694537042372 C 1132.510575748805,600.9250040126299 1145.7216881717068,554.6861105324734 1185.3550254404122,521.6583294752189 Z" fill="url(#leaf0)" opacity="0.24" transform="rotate(329.4 1185.4 587.7)"/>
    <path d="M 142.42096398750132,825.9304839516179 C 167.477709451905,846.8111051719544 175.8299579400396,876.0439748804254 142.42096398750132,909.4529688329636 C 109.01197003496304,876.0439748804254 117.36421852309762,846.8111051719544 142.42096398750132,825.9304839516179 Z" fill="url(#leaf1)" opacity="0.19" transform="rotate(344.3 142.4 867.7)"/>
    <path d="M 173.12509140937073,356.8618642007243 C 200.03124132550926,379.2836557975064 208.9999579642221,410.6741640330014 173.12509140937073,446.5490305878527 C 137.25022485451936,410.6741640330014 146.2189414932322,379.2836557975064 173.12509140937073,356.8618642007243 Z" fill="url(#leaf2)" opacity="0.23" transform="rotate(304.9 173.1 401.7)"/>
    <path d="M 1325.647600221455,154.98711204753064 C 1357.1085785806688,181.20459401354213 1367.5955713670733,217.90906876595818 1325.647600221455,259.8570399115765 C 1283.6996290758366,217.90906876595818 1294.186621862241,181.20459401354213 1325.647600221455,154.98711204753064 Z" fill="url(#leaf3)" opacity="0.23" transform="rotate(228.5 1325.6 207.4)"/>
    <path d="M 863.8424696178971,336.3414067852547 C 898.3590922593994,365.1052589865066 909.8646331399001,405.37465206825925 863.8424696178971,451.3968155902623 C 817.8203060958941,405.37465206825925 829.3258469763948,365.1052589865066 863.8424696178971,336.3414067852547 Z" fill="url(#leaf4)" opacity="0.24" transform="rotate(200.2 863.8 393.9)"/>
    <path d="M 1771.402212516444,947.1161243797744 C 1799.989802350428,970.9391159080944 1809.5189989617559,1004.2913040477423 1771.402212516444,1042.4080904930543 C 1733.2854260711322,1004.2913040477423 1742.8146226824601,970.9391159080944 1771.402212516444,947.1161243797744 Z" fill="url(#leaf5)" opacity="0.24" transform="rotate(18.2 1771.4 994.8)"/>
    <path d="M 1441.4432202183632,853.4759191009271 C 1482.8495859011657,887.9812238365957 1496.6517077954331,936.2886504665321 1441.4432202183632,991.497138043602 C 1386.2347326412932,936.2886504665321 1400.0368545355607,887.9812238365957 1441.4432202183632,853.4759191009271 Z" fill="url(#leaf6)" opacity="0.21" transform="rotate(254.1 1441.4 922.5)"/>
    <path d="M 185.07274184086023,930.1843331767054 C 219.95073009519814,959.2493233886537 231.57672617997744,999.9403096853813 185.07274184086023,1046.4442940244985 C 138.56875750174302,999.9403096853813 150.19475358652232,959.2493233886537 185.07274184086023,930.1843331767054 Z" fill="url(#leaf7)" opacity="0.23" transform="rotate(73.8 185.1 988.3)"/>
    <path d="M 792.3687663301997,560.580159756715 C 839.1584158089489,599.5715343223394 854.7549656351987,654.1594587142135 792.3687663301997,716.5456580192125 C 729.9825670252008,654.1594587142135 745.5791168514505,599.5715343223394 792.3687663301997,560.580159756715 Z" fill="url(#leaf8)" opacity="0.18" transform="rotate(259.5 792.4 638.6)"/>
    <path d="M 905.4448868839238,627.2426183518288 C 932.7568202258564,650.0025628034393 941.8607980065005,681.8664850356939 905.4448868839238,718.2823961582707 C 869.028975761347,681.8664850356939 878.1329535419912,650.0025628034393 905.4448868839238,627.2426183518288 Z" fill="url(#leaf9)" opacity="0.18" transform="rotate(267.3 905.4 672.8)"/>
    <path d="M 1752.311267920202,796.8813843437274 C 1799.6081295934503,836.295435738101 1815.3737501511996,891.4751076902239 1752.311267920202,954.5375899212215 C 1689.2487856892044,891.4751076902239 1705.0144062469537,836.295435738101 1752.311267920202,796.8813843437274 Z" fill="url(#leaf10)" opacity="0.20" transform="rotate(268.5 1752.3 875.7)"/>
    <path d="M 1322.121170597501,30.125327359490413 C 1349.4589936114717,52.90684653779924 1358.5716012827952,84.8009733874316 1322.121170597501,121.25140407272572 C 1285.670739912207,84.8009733874316 1294.7833475835305,52.90684653779924 1322.121170597501,30.125327359490413 Z" fill="url(#leaf11)" opacity="0.22" transform="rotate(290.8 1322.1 75.7)"/>
    <path d="M 1339.9190807606985,584.2552494807969 C 1385.9388871821204,622.6050881653151 1401.2788226559278,676.2948623236406 1339.9190807606985,737.6546042188697 C 1278.5593388654693,676.2948623236406 1293.8992743392766,622.6050881653151 1339.9190807606985,584.2552494807969 Z" fill="url(#leaf12)" opacity="0.20" transform="rotate(37.4 1339.9 661.0)"/>
    <path d="M 70.2337549423002,932.8659718633625 C 113.02214828374255,968.5229663145644 127.28494606422335,1018.4427585462472 70.2337549423002,1075.4939496681704 C 13.182563820377041,1018.4427585462472 27.445361600857836,968.5229663145644 70.2337549423002,932.8659718633625 Z" fill="url(#leaf13)" opacity="0.16" transform="rotate(332.4 70.2 1004.2)"/>
    <path d="M 1524.6097701270157,531.9883319349804 C 1555.680881085372,557.8809244002772 1566.0379180714906,594.1305538516928 1524.6097701270157,635.5587017961677 C 1483.1816221825409,594.1305538516928 1493.5386591686595,557.8809244002772 1524.6097701270157,531.9883319349804 Z" fill="url(#leaf14)" opacity="0.15" transform="rotate(305.8 1524.6 583.8)"/>
    <path d="M 931.373414066732,89.98319263659508 C 952.5024355598179,107.59071054749997 959.5454427241799,132.24123562276682 931.373414066732,160.41326428021463 C 903.2013854092842,132.24123562276682 910.2443925736462,107.59071054749997 931.373414066732,89.98319263659508 Z" fill="url(#leaf15)" opacity="0.19" transform="rotate(354.1 931.4 125.2)"/>
    <path d="M 1751.1122896057743,226.02137156725055 C 1772.083798656001,243.49762910910607 1779.074301672743,267.9643896677038 1751.1122896057743,295.9264017346727 C 1723.1502775388055,267.9643896677038 1730.1407805555477,243.49762910910607 1751.1122896057743,226.02137156725055 Z" fill="url(#leaf16)" opacity="0.19" transform="rotate(66.5 1751.1 261.0)"/>
    <path d="M 387.90831149176466,561.3305464194912 C 409.778253313849,579.5554979378949 417.0682339212105,605.07043006366 387.90831149176466,634.2303524931058 C 358.74838906231884,605.07043006366 366.0383696696803,579.5554979378949 387.90831149176466,561.3305464194912 Z" fill="url(#leaf17)" opacity="0.23" transform="rotate(186.9 387.9 597.8)"/>
    <path d="M 1074.620295739502,34.696640546199724 C 1104.1903773660129,59.3383752349589 1114.0470712415165,93.83680379922177 1074.620295739502,133.26357930123646 C 1035.1935202374873,93.83680379922177 1045.050214112991,59.3383752349589 1074.620295739502,34.696640546199724 Z" fill="url(#leaf18)" opacity="0.19" transform="rotate(270.0 1074.6 84.0)"/>
    <path d="M 669.4464076849168,815.3418551772995 C 702.4204097713091,842.8201902492931 713.4117438001065,881.289859350084 669.4464076849168,925.2551954652738 C 625.4810715697272,881.289859350084 636.4724055985246,842.8201902492931 669.4464076849168,815.3418551772995 Z" fill="url(#leaf19)" opacity="0.23" transform="rotate(320.8 669.4 870.3)"/>
    <path d="M 1190.5952233016499,310.59643276594386 C 1232.5146143826594,345.5292586667851 1246.4877447429958,394.4352149279628 1190.5952233016499,450.3277363693088 C 1134.702701860304,394.4352149279628 1148.6758322206404,345.5292586667851 1190.5952233016499,310.59643276594386 Z" fill="url(#leaf20)" opacity="0.21" transform="rotate(42.0 1190.6 380.5)"/>
    <path d="M 1630.6975701935617,737.7778848768037 C 1676.061282384813,775.5809783695131 1691.1825197818969,828.5053092593063 1630.6975701935617,888.9902588476414 C 1570.2126206052264,828.5053092593063 1585.3338580023103,775.5809783695131 1630.6975701935617,737.7778848768037 Z" fill="url(#leaf21)" opacity="0.19" transform="rotate(193.2 1630.7 813.4)"/>
    <path d="M 414.1380950466333,248.83255318771188 C 448.0946305787509,277.12966613114327 459.41347575612343,316.74562425194716 414.1380950466333,362.0210049614373 C 368.86271433714313,316.74562425194716 380.18155951451564,277.12966613114327 414.1380950466333,248.83255318771188 Z" fill="url(#leaf22)" opacity="0.17" transform="rotate(314.7 414.1 305.4)"/>
    <path d="M 1246.1400130879183,931.8194494678071 C 1292.6364577387226,970.5664866768105 1308.135272622324,1024.8123387694154 1246.1400130879183,1086.8075983038211 C 1184.1447535535126,1024.8123387694154 1199.643568437114,970.5664866768105 1246.1400130879183,931.8194494678071 Z" fill="url(#leaf23)" opacity="0.20" transform="rotate(166.1 1246.1 1009.3)"/>
    <path d="M 463.4134372487209,916.9841916036689 C 510.95784400597614,956.6045305680483 526.8059795917279,1012.0730051181794 463.4134372487209,1075.4655474611864 C 400.02089490571393,1012.0730051181794 415.8690304914657,956.6045305680483 463.4134372487209,916.9841916036689 Z" fill="url(#leaf24)" opacity="0.23" transform="rotate(23.7 463.4 996.2)"/>
    <path d="M 1725.104941595855,896.6077131007447 C 1767.780657696136,932.1708098509788 1782.0058963962297,981.9591453013065 1725.104941595855,1038.860100101681 C 1668.2039867954804,981.9591453013065 1682.4292254955742,932.1708098509788 1725.104941595855,896.6077131007447 Z" fill="url(#leaf25)" opacity="0.25" transform="rotate(22.6 1725.1 967.7)"/>
    <path d="M 1223.9995075356449,276.5463017871789 C 1247.4853610593145,296.11784639023705 1255.313978900538,323.51800883451847 1223.9995075356449,354.8324801994115 C 1192.6850361707518,323.51800883451847 1200.5136540119752,296.11784639023705 1223.9995075356449,276.5463017871789 Z" fill="url(#leaf26)" opacity="0.19" transform="rotate(163.3 1224.0 315.7)"/>
    <path d="M 645.31894285782,518.9395111776194 C 689.5447305745272,555.7943342748754 704.2866598134297,607.3910866110339 645.31894285782,666.3588035666435 C 586.3512259022104,607.3910866110339 601.0931551411129,555.7943342748754 645.31894285782,518.9395111776194 Z" fill="url(#leaf27)" opacity="0.23" transform="rotate(264.1 645.3 592.6)"/>
    <path d="M 1301.3271197396248,375.77501660369904 C 1348.946390940731,415.4577426046209 1364.8194813410996,471.01355900591136 1301.3271197396248,534.5059206073863 C 1237.83475813815,471.01355900591136 1253.7078485385186,415.4577426046209 1301.3271197396248,375.77501660369904 Z" fill="url(#leaf28)" opacity="0.16" transform="rotate(138.0 1301.3 455.1)"/>
    <path d="M 967.7979583694413,47.485163818255884 C 985.8904607824164,62.562249162401834 991.9212949200748,83.67016864420616 967.7979583694413,107.79350519483968 C 943.6746218188077,83.67016864420616 949.7054559564662,62.562249162401834 967.7979583694413,47.485163818255884 Z" fill="url(#leaf29)" opacity="0.17" transform="rotate(25.4 967.8 77.6)"/>
    <path d="M 107.56295711330924,465.2472280844572 C 130.20591693959545,484.11636127302904 137.7535702150242,510.53314773702965 107.56295711330924,540.7237608387446 C 77.37234401159428,510.53314773702965 84.91999728702302,484.11636127302904 107.56295711330924,465.2472280844572 Z" fill="url(#leaf0)" opacity="0.16" transform="rotate(238.3 107.6 503.0)"/>
    <path d="M 405.49772998605283,191.3838685245832 C 443.51016903123144,223.06090106223206 456.180982046291,267.40874661494047 405.49772998605283,318.0919986751786 C 354.8144779258147,267.40874661494047 367.4852909408742,223.06090106223206 405.49772998605283,191.3838685245832 Z" fill="url(#leaf1)" opacity="0.17" transform="rotate(97.4 405.5 254.7)"/>
    <path d="M 752.6283393631725,564.0886158584573 C 792.5811656547013,597.3826377680647 805.8987744185442,643.9942684415149 752.6283393631725,697.2647034968867 C 699.3579043078007,643.9942684415149 712.6755130716436,597.3826377680647 752.6283393631725,564.0886158584573 Z" fill="url(#leaf2)" opacity="0.16" transform="rotate(341.0 752.6 630.7)"/>
    <path d="M 85.56505020149464,334.6915087814502 C 121.42569471378775,364.57537920836114 133.37924288455213,406.4127978060364 85.56505020149464,454.2269904890939 C 37.75085751843716,406.4127978060364 49.70440568920153,364.57537920836114 85.56505020149464,334.6915087814502 Z" fill="url(#leaf3)" opacity="0.18" transform="rotate(47.7 85.6 394.5)"/>
    <path d="M 1195.6827301122494,710.6195997877041 C 1214.9814278789138,726.7018479265911 1221.4143271344685,749.2169953210328 1195.6827301122494,774.9485923432519 C 1169.9511330900302,749.2169953210328 1176.384032345585,726.7018479265911 1195.6827301122494,710.6195997877041 Z" fill="url(#leaf4)" opacity="0.16" transform="rotate(69.6 1195.7 742.8)"/>
    <path d="M 233.37856880121853,353.8065730643718 C 260.94562296067033,376.77911819724824 270.13464101382095,408.9406813832754 233.37856880121853,445.69675359587774 C 196.62249658861612,408.9406813832754 205.81151464176673,376.77911819724824 233.37856880121853,353.8065730643718 Z" fill="url(#leaf5)" opacity="0.20" transform="rotate(235.2 233.4 399.8)"/>
    <path d="M 983.1984244123146,267.4448794008611 C 1014.7109434658162,293.7053119454458 1025.21511648365,330.4699175078644 983.1984244123146,372.4866095792 C 941.181732340979,330.4699175078644 951.685905358813,293.7053119454458 983.1984244123146,267.4448794008611 Z" fill="url(#leaf6)" opacity="0.23" transform="rotate(64.8 983.2 320.0)"/>
    <path d="M 534.561172119201,816.8305944608426 C 571.4511209742423,847.5722185067103 583.7477705925893,890.610492170925 534.561172119201,939.7970906443134 C 485.37457364581275,890.610492170925 497.67122326415983,847.5722185067103 534.561172119201,816.8305944608426 Z" fill="url(#leaf7)" opacity="0.24" transform="rotate(276.2 534.6 878.3)"/>
    <path d="M 1379.2872078389644,589.5603152320124 C 1402.958201704115,609.2861434529713 1410.8485329924986,636.9023029623137 1379.2872078389644,668.4636281158479 C 1347.7258826854302,636.9023029623137 1355.6162139738137,609.2861434529713 1379.2872078389644,589.5603152320124 Z" fill="url(#leaf8)" opacity="0.20" transform="rotate(214.0 1379.3 629.0)"/>
    <path d="M 1064.4103920637253,704.80874440532 C 1110.540830873292,743.2507767466254 1125.917643809814,797.069622024453 1064.4103920637253,858.5768737705417 C 1002.9031403176366,797.069622024453 1018.2799532541588,743.2507767466254 1064.4103920637253,704.80874440532 Z" fill="url(#leaf9)" opacity="0.19" transform="rotate(219.5 1064.4 781.7)"/>
    <path d="M 770.7281111504427,931.7612218173697 C 814.7516428656019,968.4474982466689 829.4261534373215,1019.8082852476879 770.7281111504427,1078.5063275345667 C 712.0300688635639,1019.8082852476879 726.7045794352836,968.4474982466689 770.7281111504427,931.7612218173697 Z" fill="url(#leaf10)" opacity="0.18" transform="rotate(93.1 770.7 1005.1)"/>
    <path d="M 152.3370721406252,893.692460735455 C 186.39095594506807,922.0706972391574 197.74225054654903,961.8002283443408 152.3370721406252,1007.2054067502646 C 106.93189373470136,961.8002283443408 118.28318833618232,922.0706972391574 152.3370721406252,893.692460735455 Z" fill="url(#leaf11)" opacity="0.19" transform="rotate(246.0 152.3 950.4)"/>
    <path d="M 229.73523416173944,38.18490696349181 C 276.01769607362246,76.75362522339435 291.4451833775835,130.7498307872579 229.73523416173944,192.45978000310197 C 168.02528494589538,130.7498307872579 183.4527722498564,76.75362522339435 229.73523416173944,38.18490696349181 Z" fill="url(#leaf12)" opacity="0.21" transform="rotate(179.8 229.7 115.3)"/>
    <path d="M 618.4634566810936,895.4120496304523 C 642.0033617223115,915.0286371648006 649.8499967360508,942.4918597128881 618.4634566810936,973.8783997678453 C 587.0769166261364,942.4918597128881 594.9235516398757,915.0286371648006 618.4634566810936,895.4120496304523 Z" fill="url(#leaf13)" opacity="0.21" transform="rotate(290.1 618.5 934.6)"/>
    <path d="M 174.17177785074546,5.091678904595156 C 206.67983314465533,32.181724982853396 217.51585157595866,70.10778949241494 174.17177785074546,113.45186321762813 C 130.82770412553225,70.10778949241494 141.66372255683558,32.181724982853396 174.17177785074546,5.091678904595156 Z" fill="url(#leaf14)" opacity="0.20" transform="rotate(230.7 174.2 59.3)"/>
    <path d="M 1392.2657601396202,84.87968912992757 C 1410.4718770483234,100.0514532205136 1416.5405826845579,121.29192294733403 1392.2657601396202,145.56674549227165 C 1367.9909375946825,121.29192294733403 1374.059643230917,100.0514532205136 1392.2657601396202,84.87968912992757 Z" fill="url(#leaf15)" opacity="0.22" transform="rotate(123.4 1392.3 115.2)"/>
    <path d="M 850.1658091506166,719.1232664776596 C 890.7747783419508,752.9640741371047 904.3111014057288,800.3412048603278 850.1658091506166,854.48649711544 C 796.0205168955044,800.3412048603278 809.5568399592825,752.9640741371047 850.1658091506166,719.1232664776596 Z" fill="url(#leaf16)" opacity="0.23" transform="rotate(112.5 850.2 786.8)"/>
    <path d="M 989.4845552826076,447.00619041801554 C 1022.3423641865594,474.38769783797534 1033.2949671545434,512.7218082259192 989.4845552826076,556.5322200978549 C 945.674143410672,512.7218082259192 956.6267463786559,474.38769783797534 989.4845552826076,447.00619041801554 Z" fill="url(#leaf17)" opacity="0.16" transform="rotate(120.5 989.5 501.8)"/>
    <path d="M 975.0775135399218,663.6856298643509 C 1000.8326105590379,685.1482107136142 1009.4176428987432,715.1958239025829 975.0775135399218,749.5359532614043 C 940.7373841811004,715.1958239025829 949.3224165208057,685.1482107136142 975.0775135399218,663.6856298643509 Z" fill="url(#leaf18)" opacity="0.19" transform="rotate(300.6 975.1 706.6)"/>
    <path d="M 869.6491244639833,784.5976276831811 C 917.4926071268513,824.4671965689046 933.4404346811407,880.2845930089172 869.6491244639833,944.0759032260746 C 805.8578142468259,880.2845930089172 821.8056418011153,824.4671965689046 869.6491244639833,784.5976276831811 Z" fill="url(#leaf19)" opacity="0.17" transform="rotate(293.3 869.6 864.3)"/>
    <path d="M 1016.5363323054958,273.2755955907619 C 1054.744713400443,305.1159131698847 1067.4808404320922,349.69235778065666 1016.5363323054958,400.6368659072532 C 965.5918241788993,349.69235778065666 978.3279512105483,305.1159131698847 1016.5363323054958,273.2755955907619 Z" fill="url(#leaf20)" opacity="0.20" transform="rotate(141.9 1016.5 337.0)"/>
    <path d="M 1423.1969146784527,252.35906077643494 C 1449.2544609553947,274.07368267388665 1457.9403097143754,304.4741533303191 1423.1969146784527,339.2175483662419 C 1388.45351964253,304.4741533303191 1397.1393684015106,274.07368267388665 1423.1969146784527,252.35906077643494 Z" fill="url(#leaf21)" opacity="0.19" transform="rotate(223.3 1423.2 295.8)"/>
    <path d="M 1254.522210230823,572.8163921022854 C 1288.01568641719,600.7276222575913 1299.1801784793124,639.8033444750195 1254.522210230823,684.4613127235089 C 1209.8642419823336,639.8033444750195 1221.028734044456,600.7276222575913 1254.522210230823,572.8163921022854 Z" fill="url(#leaf22)" opacity="0.24" transform="rotate(215.9 1254.5 628.6)"/>
    <path d="M 1690.0776859077596,340.22877387802976 C 1709.415499325823,356.34361839308264 1715.8614371318442,378.90440071415674 1690.0776859077596,404.6881519382414 C 1664.293934683675,378.90440071415674 1670.7398724896962,356.34361839308264 1690.0776859077596,340.22877387802976 Z" fill="url(#leaf23)" opacity="0.18" transform="rotate(301.5 1690.1 372.5)"/>
    <path d="M 1105.181834577006,163.55526034691383 C 1137.8019369776243,190.73867901409582 1148.6753044444972,228.7954651481506 1105.181834577006,272.2889350156418 C 1061.6883647095146,228.7954651481506 1072.5617321763875,190.73867901409582 1105.181834577006,163.55526034691383 Z" fill="url(#leaf24)" opacity="0.23" transform="rotate(189.9 1105.2 217.9)"/>
    <path d="M 1162.714557797573,936.5003390231893 C 1188.1484615811298,957.6952588428201 1196.6264295089823,987.3681465903031 1162.714557797573,1021.2800183017123 C 1128.8026860861637,987.3681465903031 1137.2806540140161,957.6952588428201 1162.714557797573,936.5003390231893 Z" fill="url(#leaf25)" opacity="0.22" transform="rotate(52.3 1162.7 978.9)"/>
    <path d="M 1400.5222258813985,957.751198327324 C 1439.1107608860639,989.9083108312118 1451.973605887619,1034.9282683366546 1400.5222258813985,1086.379648342875 C 1349.070845875178,1034.9282683366546 1361.9336908767332,989.9083108312118 1400.5222258813985,957.751198327324 Z" fill="url(#leaf26)" opacity="0.24" transform="rotate(110.4 1400.5 1022.1)"/>
    <path d="M 1191.9585845260601,531.1711336132659 C 1222.0458691525232,556.243870801985 1232.0749640280108,591.3457028661919 1191.9585845260601,631.4620823681427 C 1151.8422050241095,591.3457028661919 1161.871299899597,556.243870801985 1191.9585845260601,531.1711336132659 Z" fill="url(#leaf27)" opacity="0.19" transform="rotate(52.2 1192.0 581.3)"/>
    <path d="M 218.42503008568505,766.205678192309 C 244.9838679011306,788.3380430385137 253.83681383961246,819.3233538232001 218.42503008568505,854.7351375771275 C 183.01324633175764,819.3233538232001 191.8661922702395,788.3380430385137 218.42503008568505,766.205678192309 Z" fill="url(#leaf28)" opacity="0.21" transform="rotate(272.9 218.4 810.5)"/>
    <path d="M 402.54192468121266,325.4777240228027 C 433.8730166982317,351.5869673703186 444.31671403723806,388.1399080568408 402.54192468121266,429.9146974128662 C 360.76713532518727,388.1399080568408 371.2108326641936,351.5869673703186 402.54192468121266,325.4777240228027 Z" fill="url(#leaf29)" opacity="0.20" transform="rotate(158.4 402.5 377.7)"/>
    <path d="M 1400.1593900398966,214.74650091690924 C 1436.346678756467,244.90257484738464 1448.409108328657,287.1210783500502 1400.1593900398966,335.3707966388108 C 1351.909671751136,287.1210783500502 1363.9721013233261,244.90257484738464 1400.1593900398966,214.74650091690924 Z" fill="url(#leaf0)" opacity="0.25" transform="rotate(61.7 1400.2 275.1)"/>
    <path d="M 621.0574204537091,832.0146980508213 C 645.0818661499443,852.0350694643505 653.090014715356,880.0635894432916 621.0574204537091,912.0961837049384 C 589.0248261920623,880.0635894432916 597.032974757474,852.0350694643505 621.0574204537091,832.0146980508213 Z" fill="url(#leaf1)" opacity="0.19" transform="rotate(52.8 621.1 872.1)"/>
    <path d="M 810.2860857119234,503.83371641191104 C 839.3940675120056,528.0903679119796 849.0967281120329,562.0496800120753 810.2860857119234,600.8603224121849 C 771.4754433118139,562.0496800120753 781.1781039118413,528.0903679119796 810.2860857119234,503.83371641191104 Z" fill="url(#leaf2)" opacity="0.20" transform="rotate(352.8 810.3 552.3)"/>
    <path d="M 850.554535806215,268.89415238488175 C 872.3426920122158,287.05094922321575 879.6054107475494,312.47046479688333 850.554535806215,341.52133973821776 C 821.5036608648805,312.47046479688333 828.7663796002141,287.05094922321575 850.554535806215,268.89415238488175 Z" fill="url(#leaf3)" opacity="0.24" transform="rotate(278.5 850.6 305.2)"/>
    <path d="M 645.7083398432021,688.1242232992881 C 684.9053110304775,720.7883659553509 697.9709680929026,766.5181656738388 645.7083398432021,818.7807939235392 C 593.4457115935016,766.5181656738388 606.5113686559267,720.7883659553509 645.7083398432021,688.1242232992881 Z" fill="url(#leaf4)" opacity="0.21" transform="rotate(47.2 645.7 753.5)"/>
    <path d="M 1025.0058122667053,232.27046165193275 C 1063.4590179763136,264.31479974327294 1076.2767532128496,309.17687307114915 1025.0058122667053,360.4478140172934 C 973.7348713205611,309.17687307114915 986.5526065570971,264.31479974327294 1025.0058122667053,232.27046165193275 Z" fill="url(#leaf5)" opacity="0.22" transform="rotate(331.5 1025.0 296.4)"/>
    <path d="M 952.0310901593049,866.8788647087965 C 970.539128075996,882.3022296393724 976.7084740482264,903.8949405421788 952.0310901593049,928.5723244311002 C 927.3537062703833,903.8949405421788 933.5230522426137,882.3022296393724 952.0310901593049,866.8788647087965 Z" fill="url(#leaf6)" opacity="0.21" transform="rotate(21.9 952.0 897.7)"/>
    <path d="M 348.4736518246567,323.2634849132483 C 366.77850903206263,338.5175325860866 372.8801281011979,359.87319932806014 348.4736518246567,384.2796756046013 C 324.06717554811553,359.87319932806014 330.1687946172508,338.5175325860866 348.4736518246567,323.2634849132483 Z" fill="url(#leaf7)" opacity="0.21" transform="rotate(29.5 348.5 353.8)"/>
    <path d="M 693.8484073294014,659.8059824428658 C 741.0125057796633,699.1093978180841 756.7338719297506,754.1341793433896 693.8484073294014,817.0196439437389 C 630.9629427290522,754.1341793433896 646.6843088791395,699.1093978180841 693.8484073294014,659.8059824428658 Z" fill="url(#leaf8)" opacity="0.17" transform="rotate(244.4 693.8 738.4)"/>
    <path d="M 632.0975626991619,625.7249097956593 C 677.1825500249184,663.295732567123 692.2108791335039,715.8948844471722 632.0975626991619,776.0082008815142 C 571.98424626482,715.8948844471722 587.0125753734054,663.295732567123 632.0975626991619,625.7249097956593 Z" fill="url(#leaf9)" opacity="0.22" transform="rotate(47.2 632.1 700.9)"/>
    <path d="M 643.1624551251659,799.7783686665266 C 680.4888457299069,830.8836941704774 692.9309759314872,874.4311498760085 643.1624551251659,924.1996706823297 C 593.3939343188447,874.4311498760085 605.836064520425,830.8836941704774 643.1624551251659,799.7783686665266 Z" fill="url(#leaf10)" opacity="0.21" transform="rotate(263.4 643.2 862.0)"/>
    </g>

    <!-- Text with SOLID fill only (ThorVG compatible) -->
    <text x="902.6" y="895.9"
          font-family="Arial, Helvetica, sans-serif"
          font-size="1080px"
          font-weight="bold"
          fill="#FF1493"
          text-anchor="middle"
          transform="rotate(13.8 960.0 540.0)">
      G
    </text>
  </g>

  <!-- Frame counter -->
  <text x="960.0" y="1050.0"
        font-family="monospace"
        font-size="24px"
        fill="#FFFFFF"
        text-anchor="middle"
        opacity="0.7">
    Frame 00053 - Compatible
  </text>
</svg>