<?xml version="1.0" encoding="UTF-8"?>
<svg xmlns="http://www.w3.org/2000/svg" viewBox="0 0 1920 1080" width="1920" height="1080">
  <defs>
    <linearGradient id="bgGrad" x1="0%" y1="0%" x2="100%" y2="100%">
      <stop offset="0%" stop-color="#96E6A1"/>
      <stop offset="100%" stop-color="#4ECDC4"/>
    </linearGradient>
    <clipPath id="complexClip"><polygon points="1378.3,540.0 1538.3,581.1 1400.3,603.6 1365.4,630.3 1402.6,676.9 1444.4,738.0 1284.0,711.1 1252.0,738.5 1171.6,727.6 1142.3,757.9 1113.6,805.9 1081.3,897.8 994.1,845.3 932.0,790.4 839.8,894.5 792.3,830.4 779.9,755.3 715.5,756.7 585.2,794.9 551.7,755.7 522.0,719.0 381.6,718.9 575.2,625.7 360.1,626.6 346.2,583.6 445.9,540.0 484.1,506.2 544.7,480.0 504.0,438.4 591.3,426.0 536.6,367.0 656.4,379.7 683.8,352.2 668.6,281.7 733.6,269.3 815.7,290.1 867.5,267.2 928.3,256.7 991.3,259.9 1036.4,314.6 1142.3,224.4 1125.5,342.2 1281.2,255.3 1272.6,327.4 1416.7,298.8 1368.5,373.0 1518.1,367.4 1432.3,434.8 1552.5,454.4 1437.9,506.0"/></clipPath>
    <radialGradient id="leaf0" cx="50%" cy="50%" r="70%">
      <stop offset="0%" stop-color="#9370DB"/>
      <stop offset="50%" stop-color="#7B68EE"/>
      <stop offset="100%" stop-color="#FFD700"/>
    </radialGradient>
    <radialGradient id="leaf1" cx="50%" cy="50%" r="70%">
      <stop offset="0%" stop-color="#45B7D1"/>
      <stop offset="50%" stop-color="#00FA9A"/>
      <stop offset="100%" stop-color="#FFE66D"/>
    </radialGradient>
    <radialGradient id="leaf2" cx="50%" cy="50%" r="70%">
      <stop offset="0%" stop-color="#4ECDC4"/>
      <stop offset="50%" stop-color="#FF6B6B"/>
      <stop offset="100%" stop-color="#FF69B4"/>
    </radialGradient>
    <radialGradient id="leaf3" cx="50%" cy="50%" r="70%">
      <stop offset="0%" stop-color="#FFD700"/>
      <stop offset="50%" stop-color="#00FA9A"/>
      <stop offset="100%" stop-color="#FF1493"/>
    </radialGradient>
    <radialGradient id="leaf4" cx="50%" cy="50%" r="70%">
      <stop offset="0%" stop-color="#00CED1"/>
      <stop offset="50%" stop-color="#4ECDC4"/>
      <stop offset="100%" stop-color="#7B68EE"/>
    </radialGradient>
    <radialGradient id="leaf5" cx="50%" cy="50%" r="70%">
      <stop offset="0%" stop-color="#FF4500"/>
      <stop offset="50%" stop-color="#9370DB"/>
      <stop offset="100%" stop-color="#FF1493"/>
    </radialGradient>
    <radialGradient id="leaf6" cx="50%" cy="50%" r="70%">
      <stop offset="0%" stop-color="#00FA9A"/>
      <stop offset="50%" stop-color="#45B7D1"/>
      <stop offset="100%" stop-color="#96E6A1"/>
    </radialGradient>
    <radialGradient id="leaf7" cx="50%" cy="50%" r="70%">
      <stop offset="0%" stop-color="#FFE66D"/>
      <stop offset="50%" stop-color="#9370DB"/>
      <stop offset="100%" stop-color="#FFD700"/>
    </radialGradient>
    <radialGradient id="leaf8" cx="50%" cy="50%" r="70%">
      <stop offset="0%" stop-color="#DC143C"/>
      <stop offset="50%" stop-color="#7B68EE"/>
      <stop offset="100%" stop-color="#9370DB"/>
    </radialGradient>
    <radialGradient id="leaf9" cx="50%" cy="50%" r="70%">
      <stop offset="0%" stop-color="#FFE66D"/>
      <stop offset="50%" stop-color="#32CD32"/>
      <stop offset="100%" stop-color="#9370DB"/>
    </radialGradient>
    <radialGradient id="leaf10" cx="50%" cy="50%" r="70%">
      <stop offset="0%" stop-color="#7B68EE"/>
      <stop offset="50%" stop-color="#FF4500"/>
      <stop offset="100%" stop-color="#9370DB"/>
    </radialGradient>
    <radialGradient id="leaf11" cx="50%" cy="50%" r="70%">
      <stop offset="0%" stop-color="#96E6A1"/>
      <stop offset="50%" stop-color="#4ECDC4"/>
      <stop offset="100%" stop-color="#7B68EE"/>
    </radialGradient>
    <radialGradient id="leaf12" cx="50%" cy="50%" r="70%">
      <stop offset="0%" stop-color="#7B68EE"/>
      <stop offset="50%" stop-color="#00FA9A"/>
      <stop offset="100%" stop-color="#4ECDC4"/>
    </radialGradient>
    <radialGradient id="leaf13" cx="50%" cy="50%" r="70%">
      <stop offset="0%" stop-color="#FF4500"/>
      <stop offset="50%" stop-color="#DC143C"/>
      <stop offset="100%" stop-color="#7B68EE"/>
    </radialGradient>
    <radialGradient id="leaf14" cx="50%" cy="50%" r="70%">
      <stop offset="0%" stop-color="#9370DB"/>
      <stop offset="50%" stop-color="#7B68EE"/>
      <stop offset="100%" stop-color="#DC143C"/>
    </radialGradient>
    <radialGradient id="leaf15" cx="50%" cy="50%" r="70%">
      <stop offset="0%" stop-color="#4ECDC4"/>
      <stop offset="50%" stop-color="#FF69B4"/>
      <stop offset="100%" stop-color="#96E6A1"/>
    </radialGradient>
    <radialGradient id="leaf16" cx="50%" cy="50%" r="70%">
      <stop offset="0%" stop-color="#FFE66D"/>
      <stop offset="50%" stop-color="#DC143C"/>
      <stop offset="100%" stop-color="#00FA9A"/>
    </radialGradient>
    <radialGradient id="leaf17" cx="50%" cy="50%" r="70%">
      <stop offset="0%" stop-color="#DC143C"/>
      <stop offset="50%" stop-color="#FFD700"/>
      <stop offset="100%" stop-color="#FF6B6B"/>
    </radialGradient>
    <radialGradient id="leaf18" cx="50%" cy="50%" r="70%">
      <stop offset="0%" stop-color="#45B7D1"/>
      <stop offset="50%" stop-color="#00FA9A"/>
      <stop offset="100%" stop-color="#9370DB"/>
    </radialGradient>
    <radialGradient id="leaf19" cx="50%" cy="50%" r="70%">
      <stop offset="0%" stop-color="#32CD32"/>
      <stop offset="50%" stop-color="#00FA9A"/>
      <stop offset="100%" stop-color="#00CED1"/>
    </radialGradient>
    <radialGradient id="leaf20" cx="50%" cy="50%" r="70%">
      <stop offset="0%" stop-color="#32CD32"/>
      <stop offset="50%" stop-color="#4ECDC4"/>
      <stop offset="100%" stop-color="#FF69B4"/>
    </radialGradient>
    <radialGradient id="leaf21" cx="50%" cy="50%" r="70%">
      <stop offset="0%" stop-color="#7B68EE"/>
      <stop offset="50%" stop-color="#FF4500"/>
      <stop offset="100%" stop-color="#4ECDC4"/>
    </radialGradient>
    <radialGradient id="leaf22" cx="50%" cy="50%" r="70%">
      <stop offset="0%" stop-color="#96E6A1"/>
      <stop offset="50%" stop-color="#FFE66D"/>
      <stop offset="100%" stop-color="#9370DB"/>
    </radialGradient>
    <radialGradient id="leaf23" cx="50%" cy="50%" r="70%">
      <stop offset="0%" stop-color="#FF4500"/>
      <stop offset="50%" stop-color="#9370DB"/>
      <stop offset="100%" stop-color="#FF69B4"/>
    </radialGradient>
    <radialGradient id="leaf24" cx="50%" cy="50%" r="70%">
      <stop offset="0%" stop-color="#96E6A1"/>
      <stop offset="50%" stop-color="#FF69B4"/>
      <stop offset="100%" stop-color="#7B68EE"/>
    </radialGradient>
    <radialGradient id="leaf25" cx="50%" cy="50%" r="70%">
      <stop offset="0%" stop-color="#45B7D1"/>
      <stop offset="50%" stop-color="#FF6B6B"/>
      <stop offset="100%" stop-color="#FF4500"/>
    </radialGradient>
    <radialGradient id="leaf26" cx="50%" cy="50%" r="70%">
      <stop offset="0%" stop-color="#FF4500"/>
      <stop offset="50%" stop-color="#7B68EE"/>
      <stop offset="100%" stop-color="#32CD32"/>
    </radialGradient>
    <radialGradient id="leaf27" cx="50%" cy="50%" r="70%">
      <stop offset="0%" stop-color="#4ECDC4"/>
      <stop offset="50%" stop-color="#FF69B4"/>
      <stop offset="100%" stop-color="#FF6B6B"/>
    </radialGradient>
    <radialGradient id="leaf28" cx="50%" cy="50%" r="70%">
      <stop offset="0%" stop-color="#FFD700"/>
      <stop offset="50%" stop-color="#DC143C"/>
      <stop offset="100%" stop-color="#FF6B6B"/>
    </radialGradient>
    <radialGradient id="leaf29" cx="50%" cy="50%" r="70%">
      <stop offset="0%" stop-color="#32CD32"/>
      <stop offset="50%" stop-color="#00CED1"/>
      <stop offset="100%" stop-color="#DC143C"/>
    </radialGradient>
  </defs>

  <!-- Scaled content -->
  <g transform="translate(960.0,540.0) scale(3.0) translate(-960.0,-540.0)">
    <!-- Background -->
    <rect width="1920" height="1080" fill="url(#bgGrad)"/>
    
    <!-- Leaves with clip-path -->
    <g clip-path="url(#complexClip)">
    <path d="M 1042.010809896687,152.80433308606234 C 1076.5066935226293,181.55090277434763 1088.0053213979436,221.79610033794708 1042.010809896687,267.79061183920356 C 996.0162983954306,221.79610033794708 1007.5149262707447,181.55090277434763 1042.010809896687,152.80433308606234 Z" fill="url(#leaf0)" opacity="0.23" transform="rotate(325.4 1042.0 210.3)"/>
    <path d="M 1366.0387280234324,277.37909145641356 C 1405.1621180120367,309.9819164469171 1418.203248008238,355.625871433622 1366.0387280234324,407.7903914184277 C 1313.8742080386269,355.625871433622 1326.9153380348282,309.9819164469171 1366.0387280234324,277.37909145641356 Z" fill="url(#leaf1)" opacity="0.23" transform="rotate(35.8 1366.0 342.6)"/>
    <path d="M 1330.4358178378504,174.71828719063672 C 1367.6445920482076,205.725599032601 1380.0475167849931,249.13583561135096 1330.4358178378504,298.7475345584938 C 1280.8241188907077,249.13583561135096 1293.2270436274932,205.725599032601 1330.4358178378504,174.71828719063672 Z" fill="url(#leaf2)" opacity="0.17" transform="rotate(110.7 1330.4 236.7)"/>
    <path d="M 299.65257571683117,639.1095736876749 C 334.15183971133354,667.8589603497603 345.6515943761677,708.1081016766797 299.65257571683117,754.1071203360162 C 253.65355705749465,708.1081016766797 265.1533117223288,667.8589603497603 299.65257571683117,639.1095736876749 Z" fill="url(#leaf3)" opacity="0.18" transform="rotate(9.8 299.7 696.6)"/>
    <path d="M 674.50059497941,633.3990704628666 C 703.2404667062982,657.3489635686067 712.8204239485943,690.8788139166429 674.50059497941,729.1986428858272 C 636.1807660102257,690.8788139166429 645.7607232525219,657.3489635686067 674.50059497941,633.3990704628666 Z" fill="url(#leaf4)" opacity="0.18" transform="rotate(192.3 674.5 681.3)"/>
    <path d="M 290.7372869049338,523.4909965714174 C 326.2671808075934,553.0992414903004 338.1104787751466,594.5507843767366 290.7372869049338,641.9239762469493 C 243.36409503472103,594.5507843767366 255.20739300227422,553.0992414903004 290.7372869049338,523.4909965714174 Z" fill="url(#leaf5)" opacity="0.20" transform="rotate(93.1 290.7 582.7)"/>
    <path d="M 1306.8307851333445,246.03211165871207 C 1354.3214270588185,285.6076465966071 1370.1516410339766,341.0133955096601 1306.8307851333445,404.33425141029204 C 1243.5099292327125,341.0133955096601 1259.3401432078706,285.6076465966071 1306.8307851333445,246.03211165871207 Z" fill="url(#leaf6)" opacity="0.22" transform="rotate(8.2 1306.8 325.2)"/>
    <path d="M 1296.2990917630177,577.5226992631149 C 1328.6850989093866,604.5110385517556 1339.4804346248432,642.2947135558528 1296.2990917630177,685.4760564176781 C 1253.1177489011923,642.2947135558528 1263.9130846166488,604.5110385517556 1296.2990917630177,577.5226992631149 Z" fill="url(#leaf7)" opacity="0.15" transform="rotate(309.0 1296.3 631.5)"/>
    <path d="M 276.09559366638837,841.2278193540894 C 312.73564419623403,871.7611947956275 324.94899437284926,914.5079204137808 276.09559366638837,963.3613211202417 C 227.24219295992745,914.5079204137808 239.4555431365427,871.7611947956275 276.09559366638837,841.2278193540894 Z" fill="url(#leaf8)" opacity="0.22" transform="rotate(112.2 276.1 902.3)"/>
    <path d="M 1100.4389902636333,77.0315133857475 C 1130.972080797465,102.47575549727398 1141.1497776420756,138.09769445341107 1100.4389902636333,178.80848183185344 C 1059.728202885191,138.09769445341107 1069.9058997298016,102.47575549727398 1100.4389902636333,77.0315133857475 Z" fill="url(#leaf9)" opacity="0.18" transform="rotate(120.8 1100.4 127.9)"/>
    <path d="M 182.30027577539354,19.320026122376404 C 222.98182952159718,53.221320910879435 236.5423474369984,100.68313361478369 182.30027577539354,154.9252052763885 C 128.0582041137887,100.68313361478369 141.6187220291899,53.221320910879435 182.30027577539354,19.320026122376404 Z" fill="url(#leaf10)" opacity="0.19" transform="rotate(78.4 182.3 87.1)"/>
    <path d="M 814.1004050150855,31.44009589007932 C 852.8235492462204,63.709382749358454 865.7312639899321,108.88638435234924 814.1004050150855,160.51724332719584 C 762.4695460402388,108.88638435234924 775.3772607839505,63.709382749358454 814.1004050150855,31.44009589007932 Z" fill="url(#leaf11)" opacity="0.18" transform="rotate(25.3 814.1 96.0)"/>
    <path d="M 547.9405696327447,918.7865519478225 C 577.3953102311214,943.3321691131365 587.2135570972468,977.696033144576 547.9405696327447,1016.9690206090781 C 508.66758216824246,977.696033144576 518.485829034368,943.3321691131365 547.9405696327447,918.7865519478225 Z" fill="url(#leaf12)" opacity="0.21" transform="rotate(268.0 547.9 967.9)"/>
    <path d="M 959.0132225332724,543.434498670715 C 995.4253710679244,573.777955782925 1007.5627539128084,616.258795740019 959.0132225332724,664.808327119555 C 910.4636911537364,616.258795740019 922.6010739986203,573.777955782925 959.0132225332724,543.434498670715 Z" fill="url(#leaf13)" opacity="0.24" transform="rotate(6.9 959.0 604.1)"/>
    <path d="M 970.0424788191231,72.09210854780022 C 997.0039171011626,94.5599737828332 1005.9910631951758,126.01498511187934 970.0424788191231,161.9635694879321 C 934.0938944430703,126.01498511187934 943.0810405370835,94.5599737828332 970.0424788191231,72.09210854780022 Z" fill="url(#leaf14)" opacity="0.24" transform="rotate(280.3 970.0 117.0)"/>
    <path d="M 164.49803507676944,312.197435565003 C 184.39433037878877,328.7776816500191 191.02642881279522,351.99002616904164 164.49803507676944,378.51841990506745 C 137.96964134074366,351.99002616904164 144.60173977475011,328.7776816500191 164.49803507676944,312.197435565003 Z" fill="url(#leaf15)" opacity="0.20" transform="rotate(341.0 164.5 345.4)"/>
    <path d="M 355.25031752312174,326.7759966076595 C 399.4819330352002,363.6356762010583 414.2258048725597,415.2392276318165 355.25031752312174,474.2147149812545 C 296.27483017368377,415.2392276318165 311.0187020110433,363.6356762010583 355.25031752312174,326.7759966076595 Z" fill="url(#leaf16)" opacity="0.22" transform="rotate(331.2 355.3 400.5)"/>
    <path d="M 598.193009182112,289.0506940811393 C 631.8779757275303,317.12149953565455 643.1062979093364,356.4206271719759 598.193009182112,401.33391589920035 C 553.2797204548875,356.4206271719759 564.5080426366936,317.12149953565455 598.193009182112,289.0506940811393 Z" fill="url(#leaf17)" opacity="0.24" transform="rotate(277.1 598.2 345.2)"/>
    <path d="M 979.2334135977704,178.46826037225742 C 1006.1209674368685,200.87455523817238 1015.0834853832343,232.24336805045334 979.2334135977704,268.0934398359173 C 943.3833418123065,232.24336805045334 952.3458597586724,200.87455523817238 979.2334135977704,178.46826037225742 Z" fill="url(#leaf18)" opacity="0.17" transform="rotate(135.6 979.2 223.3)"/>
    <path d="M 698.8038432698183,624.5055360761784 C 722.3966721112118,644.1662267773396 730.2609483916764,671.6911937589654 698.8038432698183,703.1482988808233 C 667.3467381479603,671.6911937589654 675.2110144284248,644.1662267773396 698.8038432698183,624.5055360761784 Z" fill="url(#leaf19)" opacity="0.25" transform="rotate(359.3 698.8 663.8)"/>
    <path d="M 404.1644834079487,574.204491783896 C 450.03545605410073,612.430302322356 465.32578026948477,665.9464370762 404.1644834079487,727.1077339377362 C 343.0031865464126,665.9464370762 358.29351076179665,612.430302322356 404.1644834079487,574.204491783896 Z" fill="url(#leaf20)" opacity="0.19" transform="rotate(7.9 404.2 650.7)"/>
    <path d="M 1498.0688818671877,818.7533630351974 C 1524.895904721638,841.1092154139061 1533.8382456731217,872.4074087440983 1498.0688818671877,908.1767725500323 C 1462.2995180612536,872.4074087440983 1471.2418590127372,841.1092154139061 1498.0688818671877,818.7533630351974 Z" fill="url(#leaf21)" opacity="0.17" transform="rotate(66.0 1498.1 863.5)"/>
    <path d="M 501.9633287240986,925.4649904789455 C 535.1788763931842,953.1446135365168 546.2507256162127,991.8960858171166 501.9633287240986,1036.1834827092307 C 457.6759318319845,991.8960858171166 468.747781055013,953.1446135365168 501.9633287240986,925.4649904789455 Z" fill="url(#leaf22)" opacity="0.22" transform="rotate(191.8 502.0 980.8)"/>
    <path d="M 1034.3264007271025,213.77527633669425 C 1074.0654086830164,246.8911162999558 1087.311744668321,293.25329224852203 1034.3264007271025,346.23863618974053 C 981.341056785884,293.25329224852203 994.5873927711887,246.8911162999558 1034.3264007271025,213.77527633669425 Z" fill="url(#leaf23)" opacity="0.21" transform="rotate(98.4 1034.3 280.0)"/>
    <path d="M 215.04347698669167,181.99654235135137 C 235.62726230252903,199.14969678121582 242.48852407447484,223.1641129830261 215.04347698669167,250.60916007080925 C 187.5984298989085,223.1641129830261 194.4596916708543,199.14969678121582 215.04347698669167,181.99654235135137 Z" fill="url(#leaf24)" opacity="0.18" transform="rotate(339.5 215.0 216.3)"/>
    <path d="M 1511.382605448555,212.70721200368573 C 1552.1450802718005,246.67594102305685 1565.732571879549,294.2321616501764 1511.382605448555,348.58212808117014 C 1457.0326390175612,294.2321616501764 1470.6201306253097,246.67594102305685 1511.382605448555,212.70721200368573 Z" fill="url(#leaf25)" opacity="0.24" transform="rotate(17.3 1511.4 280.6)"/>
    <path d="M 556.8992941524248,381.38405612044653 C 578.3150688719548,399.2305350533883 585.4536604451316,424.21560555950674 556.8992941524248,452.76997185221353 C 528.3449278597179,424.21560555950674 535.4835194328947,399.2305350533883 556.8992941524248,381.38405612044653 Z" fill="url(#leaf26)" opacity="0.18" transform="rotate(211.7 556.9 417.1)"/>
    <path d="M 814.1527408326909,150.519146084797 C 859.9161146362442,188.65529092109142 875.170572570762,242.0458936919036 814.1527408326909,303.0637254299746 C 753.1349090946198,242.0458936919036 768.3893670291377,188.65529092109142 814.1527408326909,150.519146084797 Z" fill="url(#leaf27)" opacity="0.17" transform="rotate(330.3 814.2 226.8)"/>
    <path d="M 1029.2030248410501,152.11565769552666 C 1051.3643157067113,170.58340008357766 1058.7514126619317,196.438239426849 1029.2030248410501,225.98662724773058 C 999.6546370201686,196.438239426849 1007.041733975389,170.58340008357766 1029.2030248410501,152.11565769552666 Z" fill="url(#leaf28)" opacity="0.23" transform="rotate(231.3 1029.2 189.1)"/>
    <path d="M 1836.1884433215348,439.25286368498064 C 1868.1647835939273,465.8998139119744 1878.8235636847248,503.2055442297656 1836.1884433215348,545.8406645929556 C 1793.5533229583448,503.2055442297656 1804.2121030491423,465.8998139119744 1836.1884433215348,439.25286368498064 Z" fill="url(#leaf29)" opacity="0.17" transform="rotate(346.8 1836.2 492.5)"/>
    <path d="M 1068.954020886375,137.13111124923802 C 1091.6055235985539,156.00736350938706 1099.1560245026135,182.43411667359575 1068.954020886375,212.63612028983425 C 1038.7520172701365,182.43411667359575 1046.3025181741962,156.00736350938706 1068.954020886375,137.13111124923802 Z" fill="url(#leaf0)" opacity="0.16" transform="rotate(264.1 1069.0 174.9)"/>
    <path d="M 281.25347560775464,572.8389309266702 C 302.98687255755476,590.9500950515037 310.23133820748814,616.3057248262705 281.25347560775464,645.283587426004 C 252.27561300802114,616.3057248262705 259.5200786579545,590.9500950515037 281.25347560775464,572.8389309266702 Z" fill="url(#leaf1)" opacity="0.23" transform="rotate(329.5 281.3 609.1)"/>
    <path d="M 976.5681384065296,329.16686847301696 C 996.5811585639068,345.8443852708313 1003.2521652830326,369.19290878777144 976.5681384065296,395.87693566427447 C 949.8841115300265,369.19290878777144 956.5551182491523,345.8443852708313 976.5681384065296,329.16686847301696 Z" fill="url(#leaf2)" opacity="0.21" transform="rotate(294.0 976.6 362.5)"/>
    <path d="M 612.8839598081023,307.8854561011659 C 656.5963380141601,344.3124379395474 671.1671307495128,395.31021251328156 612.8839598081023,453.593383454692 C 554.6007888666918,395.31021251328156 569.1715816020445,344.3124379395474 612.8839598081023,307.8854561011659 Z" fill="url(#leaf3)" opacity="0.24" transform="rotate(123.2 612.9 380.7)"/>
    <path d="M 1163.4600202939755,941.0937344183363 C 1185.4068348807848,959.3827465740108 1192.7224397430543,984.9873635919548 1163.4600202939755,1014.2497830410338 C 1134.1976008448967,984.9873635919548 1141.5132057071662,959.3827465740108 1163.4600202939755,941.0937344183363 Z" fill="url(#leaf4)" opacity="0.17" transform="rotate(199.7 1163.5 977.7)"/>
    <path d="M 1447.4946029603643,468.4716682939332 C 1489.370905498345,503.36858707558395 1503.3296730110055,552.224273369895 1447.4946029603643,608.0593434205362 C 1391.659532909723,552.224273369895 1405.6183004223835,503.36858707558395 1447.4946029603643,468.4716682939332 Z" fill="url(#leaf5)" opacity="0.18" transform="rotate(186.6 1447.5 538.3)"/>
    <path d="M 1771.325582651544,829.4671210921867 C 1804.846449903428,857.4011771354235 1816.0200723207229,896.508855595955 1771.325582651544,941.2033452651337 C 1726.631092982365,896.508855595955 1737.80471539966,857.4011771354235 1771.325582651544,829.4671210921867 Z" fill="url(#leaf6)" opacity="0.22" transform="rotate(188.3 1771.3 885.3)"/>
    <path d="M 52.09605738424109,170.45861954356533 C 75.15014619544905,189.670360219572 82.83484246585172,216.56679716598128 52.09605738424109,247.3055822475919 C 21.357272302630463,216.56679716598128 29.041968573033124,189.670360219572 52.09605738424109,170.45861954356533 Z" fill="url(#leaf7)" opacity="0.23" transform="rotate(218.2 52.1 208.9)"/>
    <path d="M 1230.8934764744492,416.54622515290686 C 1256.8986537841922,438.2172062443594 1265.5670462207734,468.5565797723929 1230.8934764744492,503.2301495187169 C 1196.2199067281251,468.5565797723929 1204.8882991647063,438.2172062443594 1230.8934764744492,416.54622515290686 Z" fill="url(#leaf8)" opacity="0.23" transform="rotate(145.7 1230.9 459.9)"/>
    <path d="M 717.7167113203441,921.0670495369933 C 750.6161689187378,948.4832642023214 761.5826547848691,986.8659647337809 717.7167113203441,1030.731908198306 C 673.8507678558191,986.8659647337809 684.8172537219504,948.4832642023214 717.7167113203441,921.0670495369933 Z" fill="url(#leaf9)" opacity="0.24" transform="rotate(116.5 717.7 975.9)"/>
    <path d="M 864.8391968232854,915.7970553426867 C 902.1472701657572,946.887116461413 914.5832946132477,990.4132020276301 864.8391968232854,1040.1572998175923 C 815.0950990333231,990.4132020276301 827.5311234808137,946.887116461413 864.8391968232854,915.7970553426867 Z" fill="url(#leaf10)" opacity="0.21" transform="rotate(285.0 864.8 978.0)"/>
    <path d="M 1092.4087999507947,606.8669704039773 C 1123.8827209407514,633.0952378956079 1134.3740279374035,669.8148123838905 1092.4087999507947,711.7800403704994 C 1050.4435719641858,669.8148123838905 1060.934878960838,633.0952378956079 1092.4087999507947,606.8669704039773 Z" fill="url(#leaf11)" opacity="0.23" transform="rotate(124.1 1092.4 659.3)"/>
    <path d="M 919.1729490795952,48.939423653789206 C 964.9037148735969,87.04839514879056 980.1473034715974,140.40095524179247 919.1729490795952,201.37530963379464 C 858.1985946875931,140.40095524179247 873.4421832855936,87.04839514879056 919.1729490795952,48.939423653789206 Z" fill="url(#leaf12)" opacity="0.19" transform="rotate(270.7 919.2 125.2)"/>
    <path d="M 489.01122002063505,707.5388847676392 C 521.3037733886817,734.449345907678 532.0679578446973,772.1239915037324 489.01122002063505,815.1807293277947 C 445.9544821965728,772.1239915037324 456.71866665258835,734.449345907678 489.01122002063505,707.5388847676392 Z" fill="url(#leaf13)" opacity="0.22" transform="rotate(15.0 489.0 761.4)"/>
    <path d="M 1283.2125159726047,538.5327048587278 C 1317.8839598890368,567.4255747890878 1329.4411078611806,607.8755926915918 1283.2125159726047,654.1041845801678 C 1236.9839240840288,607.8755926915918 1248.5410720561727,567.4255747890878 1283.2125159726047,538.5327048587278 Z" fill="url(#leaf14)" opacity="0.19" transform="rotate(79.1 1283.2 596.3)"/>
    <path d="M 119.7374696724174,482.69035794513445 C 166.23727380382195,521.4401947213049 181.73720851429016,575.6899662079436 119.7374696724174,637.6897050498163 C 57.73773083054466,575.6899662079436 73.23766554101286,521.4401947213049 119.7374696724174,482.69035794513445 Z" fill="url(#leaf15)" opacity="0.24" transform="rotate(15.6 119.7 560.2)"/>
    <path d="M 1627.3971906487398,236.7338126244881 C 1675.3066509224836,276.6583628526081 1691.2764710137317,332.55273317197606 1627.3971906487398,396.43201353696804 C 1563.5179102837478,332.55273317197606 1579.4877303749959,276.6583628526081 1627.3971906487398,236.7338126244881 Z" fill="url(#leaf16)" opacity="0.20" transform="rotate(132.2 1627.4 316.6)"/>
    <path d="M 469.3450900517601,311.5434101835164 C 506.30119307131156,342.3401626998093 518.6198940778287,385.4556162226193 469.3450900517601,434.73042024868795 C 420.07028602569153,385.4556162226193 432.38898703220866,342.3401626998093 469.3450900517601,311.5434101835164 Z" fill="url(#leaf17)" opacity="0.21" transform="rotate(193.6 469.3 373.1)"/>
    <path d="M 988.6596264151415,334.435343773727 C 1035.1107903025072,373.14464701319844 1050.5945115982956,427.3376715484584 988.6596264151415,489.27255673161267 C 926.7247412319872,427.3376715484584 942.2084625277757,373.14464701319844 988.6596264151415,334.435343773727 Z" fill="url(#leaf18)" opacity="0.22" transform="rotate(256.2 988.7 411.9)"/>
    <path d="M 72.41804782638592,215.54814017561205 C 98.35813198892761,237.16487697773013 107.00482670977485,267.42830850069544 72.41804782638592,302.0150873840844 C 37.83126894299699,267.42830850069544 46.47796366384422,237.16487697773013 72.41804782638592,215.54814017561205 Z" fill="url(#leaf19)" opacity="0.16" transform="rotate(272.3 72.4 258.8)"/>
    <path d="M 825.2380395086841,762.7392387298851 C 847.7903254957947,781.5328103858105 855.3077541581649,807.8438107041063 825.2380395086841,837.9135253535871 C 795.1683248592033,807.8438107041063 802.6857535215735,781.5328103858105 825.2380395086841,762.7392387298851 Z" fill="url(#leaf20)" opacity="0.18" transform="rotate(53.9 825.2 800.3)"/>
    <path d="M 817.508494713662,744.402496590783 C 849.2695084416472,770.8700080307707 859.8565130176423,807.9245240467534 817.508494713662,850.2725423507337 C 775.1604764096817,807.9245240467534 785.7474809856768,770.8700080307707 817.508494713662,744.402496590783 Z" fill="url(#leaf21)" opacity="0.25" transform="rotate(233.0 817.5 797.3)"/>
    <path d="M 1489.2298997934565,44.2446538485314 C 1520.6589439520299,70.43552398067587 1531.1352920048876,107.10274216567811 1489.2298997934565,149.00813437710923 C 1447.3245075820255,107.10274216567811 1457.8008556348832,70.43552398067587 1489.2298997934565,44.2446538485314 Z" fill="url(#leaf22)" opacity="0.18" transform="rotate(88.6 1489.2 96.6)"/>
    <path d="M 1726.1010305425607,366.84658696518323 C 1746.4430520896676,383.7982715877723 1753.2237259387032,407.530630059397 1726.1010305425607,434.6533254555396 C 1698.9783351464182,407.530630059397 1705.7590089954538,383.7982715877723 1726.1010305425607,366.84658696518323 Z" fill="url(#leaf23)" opacity="0.18" transform="rotate(313.9 1726.1 400.7)"/>
    <path d="M 619.7046460986526,303.06564353597673 C 650.1917150949167,328.4715343661968 660.3540714270048,364.039781528505 619.7046460986526,404.68920685685714 C 579.0552207703004,364.039781528505 589.2175771023884,328.4715343661968 619.7046460986526,303.06564353597673 Z" fill="url(#leaf24)" opacity="0.23" transform="rotate(320.2 619.7 353.9)"/>
    <path d="M 296.3088023301202,662.0226781089327 C 327.0359111762701,687.628602147391 337.2782807916534,723.4768958012324 296.3088023301202,764.4463742627656 C 255.33932386858706,723.4768958012324 265.58169348397035,687.628602147391 296.3088023301202,662.0226781089327 Z" fill="url(#leaf25)" opacity="0.21" transform="rotate(60.3 296.3 713.2)"/>
    <path d="M 1308.6230646764739,257.90096575775823 C 1332.5723988510238,277.8587442365499 1340.5555102425405,305.7996341068582 1308.6230646764739,337.73207967292484 C 1276.6906191104072,305.7996341068582 1284.673730501924,277.8587442365499 1308.6230646764739,257.90096575775823 Z" fill="url(#leaf26)" opacity="0.15" transform="rotate(292.2 1308.6 297.8)"/>
    <path d="M 1124.8125913037584,546.6357129639003 C 1157.9224631637678,574.2272728472415 1168.9590871171042,612.8554566839192 1124.8125913037584,657.001952497265 C 1080.6660954904125,612.8554566839192 1091.702719443749,574.2272728472415 1124.8125913037584,546.6357129639003 Z" fill="url(#leaf27)" opacity="0.20" transform="rotate(196.8 1124.8 601.8)"/>
    <path d="M 232.71962697510125,535.6131145986844 C 269.3727168301298,566.1573561445415 281.59041344847265,608.9192943087415 232.71962697510125,657.7900807821129 C 183.84884050172985,608.9192943087415 196.0665371200727,566.1573561445415 232.71962697510125,535.6131145986844 Z" fill="url(#leaf28)" opacity="0.21" transform="rotate(322.3 232.7 596.7)"/>
    <path d="M 981.6981147400965,277.2393291507972 C 1018.1761365114565,307.63768062693055 1030.3354771019099,350.19537269351736 981.6981147400965,398.8327350553308 C 933.060752378283,350.19537269351736 945.2200929687364,307.63768062693055 981.6981147400965,277.2393291507972 Z" fill="url(#leaf29)" opacity="0.21" transform="rotate(156.0 981.7 338.0)"/>
    <path d="M 367.4774588564898,287.6680444223225 C 409.62802428912767,322.7935156161874 423.67821276667365,371.9691752875982 367.4774588564898,428.16992919778204 C 311.276704946306,371.9691752875982 325.32689342385197,322.7935156161874 367.4774588564898,287.6680444223225 Z" fill="url(#leaf0)" opacity="0.18" transform="rotate(234.9 367.5 357.9)"/>
    <path d="M 1342.3031217519842,454.8478655943447 C 1380.1703652461765,486.40390183950484 1392.7927797442405,530.5823525827292 1342.3031217519842,581.0720105749855 C 1291.813463759728,530.5823525827292 1304.435878257792,486.40390183950484 1342.3031217519842,454.8478655943447 Z" fill="url(#leaf1)" opacity="0.21" transform="rotate(338.7 1342.3 518.0)"/>
    <path d="M 1480.8901771211092,574.0500220735087 C 1510.140625311026,598.425395565106 1519.890774707665,632.5509184533422 1480.8901771211092,671.5515160398979 C 1441.8895795345534,632.5509184533422 1451.6397289311924,598.425395565106 1480.8901771211092,574.0500220735087 Z" fill="url(#leaf2)" opacity="0.24" transform="rotate(204.0 1480.9 622.8)"/>
    <path d="M 959.6351563308092,280.33002245473836 C 1000.7071500882216,314.5566839192487 1014.3978146740258,362.4740099695632 959.6351563308092,417.2366683127798 C 904.8724979875926,362.4740099695632 918.5631625733968,314.5566839192487 959.6351563308092,280.33002245473836 Z" fill="url(#leaf3)" opacity="0.21" transform="rotate(309.6 959.6 348.8)"/>
    <path d="M 871.9155101536641,282.47481185260494 C 903.850526779491,309.08732570746076 914.4955323214333,346.34484510425887 871.9155101536641,388.9248672720281 C 829.3354879858948,346.34484510425887 839.9804935278371,309.08732570746076 871.9155101536641,282.47481185260494 Z" fill="url(#leaf4)" opacity="0.19" transform="rotate(122.7 871.9 335.7)"/>
    <path d="M 151.22188211937362,508.47237222975264 C 185.12120159411438,536.7218051253699 196.4209747523613,576.2710111792342 151.22188211937362,621.4701038122219 C 106.02278948638592,576.2710111792342 117.32256264463285,536.7218051253699 151.22188211937362,508.47237222975264 Z" fill="url(#leaf5)" opacity="0.22" transform="rotate(340.0 151.2 565.0)"/>
    <path d="M 667.6307950797255,637.4194960668785 C 706.0082682829149,669.400723736203 718.8007593506446,714.1744424732572 667.6307950797255,765.3444067441762 C 616.4608308088065,714.1744424732572 629.2533218765362,669.400723736203 667.6307950797255,637.4194960668785 Z" fill="url(#leaf6)" opacity="0.22" transform="rotate(96.1 667.6 701.4)"/>
    <path d="M 978.9603615727518,775.4435022645241 C 1019.493323346685,809.2209704094684 1033.0043106046628,856.5094258123904 978.9603615727518,910.5533748443013 C 924.916412540841,856.5094258123904 938.4273997988187,809.2209704094684 978.9603615727518,775.4435022645241 Z" fill="url(#leaf7)" opacity="0.20" transform="rotate(94.0 979.0 843.0)"/>
    <path d="M 1183.7738936944797,40.02056465420593 C 1205.4506860880308,58.08455831549851 1212.6762835525478,83.37414944130813 1183.7738936944797,112.27653929937627 C 1154.8715038364116,83.37414944130813 1162.0971013009287,58.08455831549851 1183.7738936944797,40.02056465420593 Z" fill="url(#leaf8)" opacity="0.16" transform="rotate(24.8 1183.8 76.1)"/>
    <path d="M 1236.0957587220864,302.0505512495434 C 1266.8422319467202,327.6726122700715 1277.0910563549314,363.5434976988108 1236.0957587220864,404.53879533165576 C 1195.1004610892414,363.5434976988108 1205.3492854974527,327.6726122700715 1236.0957587220864,302.0505512495434 Z" fill="url(#leaf9)" opacity="0.21" transform="rotate(323.1 1236.1 353.3)"/>
    <path d="M 709.7902358750101,104.15873306767645 C 744.9489421143762,133.4576549338149 756.6685108608316,174.4761455464087 709.7902358750101,221.35442053223022 C 662.9119608891887,174.4761455464087 674.631529635644,133.4576549338149 709.7902358750101,104.15873306767645 Z" fill="url(#leaf10)" opacity="0.20" transform="rotate(282.2 709.8 162.8)"/>
    <path d="M 359.05574592876036,164.96893658403192 C 406.592583487469,204.5829678829558 422.43819600703864,260.0426117014493 359.05574592876036,323.42506177972757 C 295.6732958504821,260.0426117014493 311.5189083700517,204.5829678829558 359.05574592876036,164.96893658403192 Z" fill="url(#leaf11)" opacity="0.18" transform="rotate(201.3 359.1 244.2)"/>
    <path d="M 113.18691314330007,183.42207355022907 C 137.19767835079267,203.43104455647293 145.2012667532902,231.4436039652143 113.18691314330007,263.45795757520443 C 81.17255953330994,231.4436039652143 89.17614793580748,203.43104455647293 113.18691314330007,183.42207355022907 Z" fill="url(#leaf12)" opacity="0.21" transform="rotate(335.4 113.2 223.4)"/>
    <path d="M 223.70715914218084,462.2546900333111 C 266.92049612056627,498.26580418196556 281.3249417800281,548.6813639900819 223.70715914218084,606.2991466279291 C 166.08937650433361,548.6813639900819 180.49382216379541,498.26580418196556 223.70715914218084,462.2546900333111 Z" fill="url(#leaf13)" opacity="0.22" transform="rotate(99.1 223.7 534.3)"/>
    <path d="M 352.58619982145893,683.1228220779406 C 397.3164463077751,720.398027483204 412.2265284698805,772.5833150505729 352.58619982145893,832.2236436989945 C 292.94587117303735,772.5833150505729 307.8559533351428,720.398027483204 352.58619982145893,683.1228220779406 Z" fill="url(#leaf14)" opacity="0.15" transform="rotate(66.2 352.6 757.7)"/>
    <path d="M 1588.2385531061534,876.8810691655464 C 1625.5834358830712,908.0018048129778 1638.0317301420437,951.5708347193819 1588.2385531061534,1001.3640117552721 C 1538.4453760702631,951.5708347193819 1550.8936703292356,908.0018048129778 1588.2385531061534,876.8810691655464 Z" fill="url(#leaf15)" opacity="0.22" transform="rotate(115.9 1588.2 939.1)"/>
    <path d="M 1548.5326580324086,557.061635367792 C 1582.926817162503,585.7234346428708 1594.3915368725345,625.849953627981 1548.5326580324086,671.708832468107 C 1502.6737791922826,625.849953627981 1514.138498902314,585.7234346428708 1548.5326580324086,557.061635367792 Z" fill="url(#leaf16)" opacity="0.21" transform="rotate(312.6 1548.5 614.4)"/>
    <path d="M 239.9620469190332,275.4972438338678 C 285.55781319151237,313.49371572760043 300.7564019490054,366.6887763788261 239.9620469190332,427.48313140879833 C 179.167691889061,366.6887763788261 194.36628064655406,313.49371572760043 239.9620469190332,275.4972438338678 Z" fill="url(#leaf17)" opacity="0.17" transform="rotate(45.5 240.0 351.5)"/>
    <path d="M 234.33906730850265,55.404781939197065 C 276.5913405192248,90.61500961479882 290.67543158946546,139.90932836064127 234.33906730850265,196.24569264160408 C 178.00270302753984,139.90932836064127 192.08679409778054,90.61500961479882 234.33906730850265,55.404781939197065 Z" fill="url(#leaf18)" opacity="0.17" transform="rotate(272.2 234.3 125.8)"/>
    <path d="M 389.41706025182714,932.4853852879658 C 423.28619027171396,960.7096603045381 434.57590027834294,1000.2236453277395 389.41706025182714,1045.3824853542553 C 344.25822022531133,1000.2236453277395 355.5479302319403,960.7096603045381 389.41706025182714,932.4853852879658 Z" fill="url(#leaf19)" opacity="0.17" transform="rotate(318.3 389.4 988.9)"/>
    <path d="M 532.9242133777957,-11.12960392827408 C 578.6357939483005,26.963379880479927 593.8729874718022,80.29355721273554 532.9242133777957,141.24233130674196 C 471.9754392837893,80.29355721273554 487.2126328072909,26.963379880479927 532.9242133777957,-11.12960392827408 Z" fill="url(#leaf20)" opacity="0.18" transform="rotate(242.1 532.9 65.1)"/>
    <path d="M 824.1864971380527,266.89247292325825 C 845.6142972412052,284.7489730092187 852.7568972755894,309.74807312956324 824.1864971380527,338.31847326709993 C 795.616097000516,309.74807312956324 802.7586970349001,284.7489730092187 824.1864971380527,266.89247292325825 Z" fill="url(#leaf21)" opacity="0.24" transform="rotate(325.0 824.2 302.6)"/>
    <path d="M 767.2982434537229,838.472066903687 C 808.9999560003068,873.2234940258404 822.9005268491682,921.875491996855 767.2982434537229,977.4777753923003 C 711.6959600582776,921.875491996855 725.5965309071389,873.2234940258404 767.2982434537229,838.472066903687 Z" fill="url(#leaf22)" opacity="0.18" transform="rotate(121.1 767.3 908.0)"/>
    <path d="M 634.5774163123117,583.5421349035383 C 667.6446900390761,611.0981963425086 678.6671146146642,649.6766823570671 634.5774163123117,693.7663806594195 C 590.4877180099592,649.6766823570671 601.5101425855473,611.0981963425086 634.5774163123117,583.5421349035383 Z" fill="url(#leaf23)" opacity="0.16" transform="rotate(238.5 634.6 638.7)"/>
    <path d="M 1718.954307888214,848.1813835880602 C 1759.3833819760926,881.8722786612921 1772.8597400053852,929.0395317638169 1718.954307888214,982.944963880988 C 1665.048875771043,929.0395317638169 1678.5252338003356,881.8722786612921 1718.954307888214,848.1813835880602 Z" fill="url(#leaf24)" opacity="0.20" transform="rotate(351.6 1719.0 915.6)"/>
    <path d="M 181.19598037416364,227.1183255840899 C 221.57799881180696,260.77000761545935 235.03867162435475,307.88236245937657 181.19598037416364,361.72505370956765 C 127.35328912397253,307.88236245937657 140.81396193652031,260.77000761545935 181.19598037416364,227.1183255840899 Z" fill="url(#leaf25)" opacity="0.25" transform="rotate(252.2 181.2 294.4)"/>
    <path d="M 1466.1077219623112,589.9884478783102 C 1491.8919849766435,611.4753337235873 1500.4867393147545,641.556973906975 1466.1077219623112,675.9359912594183 C 1431.728704609868,641.556973906975 1440.323458947979,611.4753337235873 1466.1077219623112,589.9884478783102 Z" fill="url(#leaf26)" opacity="0.24" transform="rotate(242.5 1466.1 633.0)"/>
    <path d="M 1036.926873868231,134.76733164762524 C 1081.2881813514018,171.73508788360093 1096.0752838457922,223.48994661396688 1036.926873868231,282.638356591528 C 977.77846389067,223.48994661396688 992.5655663850603,171.73508788360093 1036.926873868231,134.76733164762524 Z" fill="url(#leaf27)" opacity="0.17" transform="rotate(37.2 1036.9 208.7)"/>
    <path d="M 1619.4664802196403,56.71020756195169 C 1664.8189680156981,94.50394739199996 1679.9364639477176,147.41518315406756 1619.4664802196403,207.8851668821448 C 1558.996496491563,147.41518315406756 1574.1139924235824,94.50394739199996 1619.4664802196403,56.71020756195169 Z" fill="url(#leaf28)" opacity="0.24" transform="rotate(313.0 1619.5 132.3)"/>
    <path d="M 344.6418109641004,874.897370797988 C 378.05053611144297,902.7379750874402 389.18677782722386,941.7148210926732 344.6418109641004,986.2597879557967 C 300.0968441009769,941.7148210926732 311.2330858167578,902.7379750874402 344.6418109641004,874.897370797988 Z" fill="url(#leaf29)" opacity="0.24" transform="rotate(234.6 344.6 930.6)"/>
    <path d="M 1172.2765151221938,276.450390696148 C 1213.8952855941159,311.1326994227498 1227.7682090847566,359.68793163999226 1172.2765151221938,415.1796256025551 C 1116.784821159631,359.68793163999226 1130.6577446502718,311.1326994227498 1172.2765151221938,276.450390696148 Z" fill="url(#leaf0)" opacity="0.20" transform="rotate(273.6 1172.3 345.8)"/>
    <path d="M 889.4808473704603,149.48018294480687 C 911.3064243495699,167.6681637607315 918.5816166759397,193.13133690302598 889.4808473704603,222.2321062085054 C 860.3800780649809,193.13133690302598 867.6552703913508,167.6681637607315 889.4808473704603,149.48018294480687 Z" fill="url(#leaf1)" opacity="0.19" transform="rotate(133.7 889.5 185.9)"/>
    <path d="M 1121.760322931333,900.9805727070318 C 1140.0795679938515,916.2466102591305 1146.185983014691,937.6190628320687 1121.760322931333,962.0447229154267 C 1097.3346628479749,937.6190628320687 1103.4410778688143,916.2466102591305 1121.760322931333,900.9805727070318 Z" fill="url(#leaf2)" opacity="0.17" transform="rotate(338.6 1121.8 931.5)"/>
    <path d="M 135.9556311343298,903.9266580551246 C 183.6532690208904,943.6746896272584 199.55248164974395,999.3219338282458 135.9556311343298,1062.91878434366 C 72.35878061891563,999.3219338282458 88.25799324776918,943.6746896272584 135.9556311343298,903.9266580551246 Z" fill="url(#leaf3)" opacity="0.22" transform="rotate(139.8 136.0 983.4)"/>
    <path d="M 1827.3399162251173,215.27545139042212 C 1846.1973437030479,230.9899742886975 1852.4831528623579,252.99030634628306 1827.3399162251173,278.1335429835237 C 1802.1966795878768,252.99030634628306 1808.4824887471868,230.9899742886975 1827.3399162251173,215.27545139042212 Z" fill="url(#leaf4)" opacity="0.16" transform="rotate(285.0 1827.3 246.7)"/>
    <path d="M 439.11140855549996,931.0566835788139 C 486.82186859288925,970.8154002766383 502.725355272019,1026.4776036535925 439.11140855549996,1090.0915503701115 C 375.49746183898094,1026.4776036535925 391.4009485181107,970.8154002766383 439.11140855549996,931.0566835788139 Z" fill="url(#leaf5)" opacity="0.24" transform="rotate(35.1 439.1 1010.6)"/>
    <path d="M 554.8433993479157,632.7580332539894 C 597.6881494003694,668.4619916310342 611.9697327511873,718.4475333588967 554.8433993479157,775.5738667621683 C 497.7170659446441,718.4475333588967 511.998649295462,668.4619916310342 554.8433993479157,632.7580332539894 Z" fill="url(#leaf6)" opacity="0.16" transform="rotate(121.7 554.8 704.2)"/>
    <path d="M 840.129994917131,805.4094529221343 C 875.7792100715444,835.1171322174788 887.6622817896822,876.7078832309611 840.129994917131,924.2401701035124 C 792.5977080445797,876.7078832309611 804.4807797627175,835.1171322174788 840.129994917131,805.4094529221343 Z" fill="url(#leaf7)" opacity="0.17" transform="rotate(20.2 840.1 864.8)"/>
    <path d="M 510.1374750060728,165.96901533277233 C 538.5715660154417,189.6640911739131 548.049596351898,222.83719735151016 510.1374750060728,260.7493186973354 C 472.2253536602476,222.83719735151016 481.7033839967039,189.6640911739131 510.1374750060728,165.96901533277233 Z" fill="url(#leaf8)" opacity="0.25" transform="rotate(211.1 510.1 213.4)"/>
    <path d="M 1153.1222910189358,591.59341846393 C 1179.053840190024,613.2030427731702 1187.69768991372,643.4565168061065 1153.1222910189358,678.0319157008907 C 1118.5468921241516,643.4565168061065 1127.1907418478477,613.2030427731702 1153.1222910189358,591.59341846393 Z" fill="url(#leaf9)" opacity="0.17" transform="rotate(119.0 1153.1 634.8)"/>
    <path d="M 1821.7127048531802,36.20498218907674 C 1840.8591200429366,52.16032818054039 1847.241258439522,74.49781256858951 1821.7127048531802,100.02636615493137 C 1796.1841512668384,74.49781256858951 1802.5662896634237,52.16032818054039 1821.7127048531802,36.20498218907674 Z" fill="url(#leaf10)" opacity="0.20" transform="rotate(36.5 1821.7 68.1)"/>
    <path d="M 1491.0463212533177,881.3534015787727 C 1517.585518981982,903.4693996859929 1526.4319182248698,934.4317970361011 1491.0463212533177,969.8173940076533 C 1455.6607242817656,934.4317970361011 1464.5071235246535,903.4693996859929 1491.0463212533177,881.3534015787727 Z" fill="url(#leaf11)" opacity="0.17" transform="rotate(195.2 1491.0 925.6)"/>
    <path d="M 965.9854300076341,964.1603762138525 C 999.4489227635582,992.0466201771227 1010.6034203488664,1031.087361725701 965.9854300076341,1075.705352066933 C 921.3674396664019,1031.087361725701 932.52193725171,992.0466201771227 965.9854300076341,964.1603762138525 Z" fill="url(#leaf12)" opacity="0.20" transform="rotate(250.1 966.0 1019.9)"/>
    <path d="M 719.0423899932841,774.5384076351494 C 756.9015867330695,806.0877382516372 769.5213189796647,850.2568011147202 719.0423899932841,900.7357301011008 C 668.5634610069036,850.2568011147202 681.1831932534988,806.0877382516372 719.0423899932841,774.5384076351494 Z" fill="url(#leaf13)" opacity="0.21" transform="rotate(238.3 719.0 837.6)"/>
    <path d="M 928.4877843464016,856.5023762607294 C 967.137286690204,888.7102948805648 980.0204541381381,933.8013809483343 928.4877843464016,985.3340507400709 C 876.955114554665,933.8013809483343 889.8382820025992,888.7102948805648 928.4877843464016,856.5023762607294 Z" fill="url(#leaf14)" opacity="0.17" transform="rotate(328.2 928.5 920.9)"/>
    <path d="M 1524.8998831288827,917.0256232995982 C 1548.0798906679302,936.3422962488044 1555.8065598476126,963.3856383776931 1524.8998831288827,994.292315096423 C 1493.9932064101529,963.3856383776931 1501.7198755898353,936.3422962488044 1524.8998831288827,917.0256232995982 Z" fill="url(#leaf15)" opacity="0.22" transform="rotate(214.3 1524.9 955.7)"/>
    <path d="M 344.9845801444986,603.0757880396638 C 382.43603443940594,634.2853332854199 394.91985253770844,677.9786966294786 344.9845801444986,727.9139690226884 C 295.0493077512887,677.9786966294786 307.5331258495912,634.2853332854199 344.9845801444986,603.0757880396638 Z" fill="url(#leaf16)" opacity="0.23" transform="rotate(300.8 345.0 665.5)"/>
    <path d="M 895.6274105357029,877.2995321241209 C 928.6119549015312,904.7866524289778 939.606803023474,943.2686208557776 895.6274105357029,987.2480133435487 C 851.6480180479318,943.2686208557776 862.6428661698745,904.7866524289778 895.6274105357029,877.2995321241209 Z" fill="url(#leaf17)" opacity="0.17" transform="rotate(218.6 895.6 932.3)"/>
    <path d="M 1546.0668594472254,507.4299508145137 C 1570.4732154912463,527.7685808511978 1578.60866750592,556.2426629025556 1546.0668594472254,588.7844709612501 C 1513.5250513885308,556.2426629025556 1521.6605034032045,527.7685808511978 1546.0668594472254,507.4299508145137 Z" fill="url(#leaf18)" opacity="0.21" transform="rotate(201.2 1546.1 548.1)"/>
    <path d="M 635.068299540416,217.78348378229163 C 669.7177946628657,246.6580630509997 681.2676263703489,287.082474027191 635.068299540416,333.28180085712387 C 588.868972710483,287.082474027191 600.4188044179663,246.6580630509997 635.068299540416,217.78348378229163 Z" fill="url(#leaf19)" opacity="0.20" transform="rotate(4.3 635.1 275.5)"/>
    <path d="M 1462.6398619570914,432.50117258611147 C 1501.522810994354,464.90363011716363 1514.4837940067748,510.26707066063665 1462.6398619570914,562.1110027103201 C 1410.795929907408,510.26707066063665 1423.756912919829,464.90363011716363 1462.6398619570914,432.50117258611147 Z" fill="url(#leaf20)" opacity="0.21" transform="rotate(202.5 1462.6 497.3)"/>
    <path d="M 450.66570881250414,690.8316542459612 C 480.24904334458057,715.4844330226916 490.11015485527275,749.9983233101141 450.66570881250414,789.4427693528827 C 411.2212627697355,749.9983233101141 421.0823742804277,715.4844330226916 450.66570881250414,690.8316542459612 Z" fill="url(#leaf21)" opacity="0.24" transform="rotate(166.6 450.7 740.1)"/>
    <path d="M 1018.3053373181805,965.129873048877 C 1041.3733470408438,984.3532144844297 1049.0626836150648,1011.2658924942035 1018.3053373181805,1042.0232387910878 C 987.5479910212962,1011.2658924942035 995.2373275955173,984.3532144844297 1018.3053373181805,965.129873048877 Z" fill="url(#leaf22)" opacity="0.22" transform="rotate(203.4 1018.3 1003.6)"/>
    <path d="M 1380.6988655162095,501.7917126212424 C 1403.3023537710117,520.6279528335775 1410.8368498559457,546.9986891308467 1380.6988655162095,577.1366734705829 C 1350.5608811764732,546.9986891308467 1358.0953772614073,520.6279528335775 1380.6988655162095,501.7917126212424 Z" fill="url(#leaf23)" opacity="0.17" transform="rotate(309.2 1380.7 539.5)"/>
    <path d="M 513.4942643448281,383.3843724551557 C 548.7929278704539,412.7999253931772 560.5591490456625,453.98169950640727 513.4942643448281,501.0465842072416 C 466.4293796439938,453.98169950640727 478.19560081920235,412.7999253931772 513.4942643448281,383.3843724551557 Z" fill="url(#leaf24)" opacity="0.17" transform="rotate(159.7 513.5 442.2)"/>
    <path d="M 499.58081161696003,523.1928745347045 C 518.0192384834495,538.5582302567791 524.1653807722794,560.0697282676836 499.58081161696003,584.6542974230028 C 474.99624246164075,560.0697282676836 481.14238475047057,538.5582302567791 499.58081161696003,523.1928745347045 Z" fill="url(#leaf25)" opacity="0.19" transform="rotate(329.4 499.6 553.9)"/>
    <path d="M 1219.992892953029,226.8586394168909 C 1250.028560136898,251.8883620701151 1260.0404491981876,286.92997378462894 1219.992892953029,326.97753002978766 C 1179.9453367078704,286.92997378462894 1189.95722576916,251.8883620701151 1219.992892953029,226.8586394168909 Z" fill="url(#leaf26)" opacity="0.23" transform="rotate(72.9 1220.0 276.9)"/>
    <path d="M 1782.968316976588,478.9089876401738 C 1815.7765929032296,506.2492175790418 1826.7126848787768,544.525539493457 1782.968316976588,588.2699073956458 C 1739.2239490743993,544.525539493457 1750.1600410499466,506.2492175790418 1782.968316976588,478.9089876401738 Z" fill="url(#leaf27)" opacity="0.22" transform="rotate(255.0 1783.0 533.6)"/>
    <path d="M 1691.1829055521732,418.3727197646927 C 1713.6256546231043,437.07501065713524 1721.1065709800814,463.2582179065549 1691.1829055521732,493.18188333446295 C 1661.259240124265,463.2582179065549 1668.7401564812421,437.07501065713524 1691.1829055521732,418.3727197646927 Z" fill="url(#leaf28)" opacity="0.20" transform="rotate(10.3 1691.2 455.8)"/>
    <path d="M 1772.616123674131,353.17222961678624 C 1804.192748450734,379.4860835972887 1814.7182900429348,416.32547916999215 1772.616123674131,458.4276455387961 C 1730.513957305327,416.32547916999215 1741.039498897528,379.4860835972887 1772.616123674131,353.17222961678624 Z" fill="url(#leaf29)" opacity="0.17" transform="rotate(182.0 1772.6 405.8)"/>
    <path d="M 860.1579457296081,730.7468240156929 C 901.355008952931,765.0777100351287 915.0873633607054,813.1409504623389 860.1579457296081,868.0703680934362 C 805.2285280985108,813.1409504623389 818.9608825062851,765.0777100351287 860.1579457296081,730.7468240156929 Z" fill="url(#leaf0)" opacity="0.19" transform="rotate(337.3 860.2 799.4)"/>
    <path d="M 154.9967976804975,2.831597279034355 C 198.3641759778887,38.97107919352702 212.81996874368576,89.56635387381675 154.9967976804975,147.389524937005 C 97.17362661730925,89.56635387381675 111.62941938310632,38.97107919352702 154.9967976804975,2.831597279034355 Z" fill="url(#leaf1)" opacity="0.16" transform="rotate(238.8 155.0 75.1)"/>
    <path d="M 1742.9047066813735,18.909692508074777 C 1763.4056556430994,35.99381664284631 1770.2393052970078,59.91159043152647 1742.9047066813735,87.24618904716093 C 1715.570108065739,59.91159043152647 1722.4037577196475,35.99381664284631 1742.9047066813735,18.909692508074777 Z" fill="url(#leaf2)" opacity="0.22" transform="rotate(146.1 1742.9 53.1)"/>
    <path d="M 332.5664893507561,514.2137948850262 C 376.8074859129962,551.0812920202262 391.5544847670762,602.6957880095064 332.5664893507561,661.6837834258264 C 273.57849393443604,602.6957880095064 288.32549278851604,551.0812920202262 332.5664893507561,514.2137948850262 Z" fill="url(#leaf3)" opacity="0.17" transform="rotate(234.1 332.6 587.9)"/>
    <path d="M 752.0297910930917,16.39645822334826 C 792.3336043928341,49.982969306466956 805.7682088260816,97.00408482283314 752.0297910930917,150.74250255582302 C 698.2913733601018,97.00408482283314 711.7259777933493,49.982969306466956 752.0297910930917,16.39645822334826 Z" fill="url(#leaf4)" opacity="0.23" transform="rotate(24.3 752.0 83.6)"/>
    <path d="M 1757.6213276342344,511.72597916008175 C 1795.317235771724,543.1392359413231 1807.8825384842207,587.1177954350611 1757.6213276342344,637.3790062850475 C 1707.360116784248,587.1177954350611 1719.9254194967448,543.1392359413231 1757.6213276342344,511.72597916008175 Z" fill="url(#leaf5)" opacity="0.25" transform="rotate(191.7 1757.6 574.6)"/>
    <path d="M 814.1498261200342,89.4693367643404 C 847.0963266331096,116.92475385856996 858.0784934708015,155.36233779049135 814.1498261200342,199.29100514125864 C 770.2211587692668,155.36233779049135 781.2033256069587,116.92475385856996 814.1498261200342,89.4693367643404 Z" fill="url(#leaf6)" opacity="0.18" transform="rotate(292.6 814.1 144.4)"/>
    <path d="M 876.9217864622675,94.9956815545545 C 900.9689245756224,115.03496331568356 908.984637280074,143.08995778126425 876.9217864622675,175.15280859907074 C 844.858935644461,143.08995778126425 852.8746483489126,115.03496331568356 876.9217864622675,94.9956815545545 Z" fill="url(#leaf7)" opacity="0.22" transform="rotate(114.7 876.9 135.1)"/>
    <path d="M 1017.9302471524915,694.0580800670054 C 1058.8689728453642,728.1736848110661 1072.5152147429885,775.935531452751 1017.9302471524915,830.520499043248 C 963.3452795619944,775.935531452751 976.9915214596186,728.1736848110661 1017.9302471524915,694.0580800670054 Z" fill="url(#leaf8)" opacity="0.22" transform="rotate(296.2 1017.9 762.3)"/>
    <path d="M 1061.6980457548398,717.1201338019276 C 1090.4371977632811,741.0694271422955 1100.0169150994282,774.5984378188103 1061.6980457548398,812.9173071633987 C 1023.3791764102514,774.5984378188103 1032.9588937463984,741.0694271422955 1061.6980457548398,717.1201338019276 Z" fill="url(#leaf9)" opacity="0.17" transform="rotate(287.4 1061.7 765.0)"/>
    <path d="M 297.533371800613,929.6806508864099 C 333.80058306601825,959.9033269409143 345.88965348782,1002.2150734172205 297.533371800613,1050.5713551044275 C 249.177090113406,1002.2150734172205 261.26616053520775,959.9033269409143 297.533371800613,929.6806508864099 Z" fill="url(#leaf10)" opacity="0.24" transform="rotate(157.6 297.5 990.1)"/>
    <path d="M 590.1259716174335,600.5065742164271 C 618.2534352794127,623.9461272680763 627.6292565000724,656.7615015403854 590.1259716174335,694.2647864230242 C 552.6226867347946,656.7615015403854 561.9985079554543,623.9461272680763 590.1259716174335,600.5065742164271 Z" fill="url(#leaf11)" opacity="0.20" transform="rotate(4.3 590.1 647.4)"/>
    <path d="M 1579.8369724502802,84.0477968971561 C 1627.6602654678147,123.9005410784349 1643.6013631403262,179.6943829322252 1579.8369724502802,243.45877362227128 C 1516.0725817602342,179.6943829322252 1532.0136794327457,123.9005410784349 1579.8369724502802,84.0477968971561 Z" fill="url(#leaf12)" opacity="0.23" transform="rotate(13.7 1579.8 163.8)"/>
    <path d="M 1809.945271504414,270.5763962077207 C 1852.2743347737965,305.85061559887265 1866.3840225302572,355.2345227464854 1809.945271504414,411.67327377232857 C 1753.5065204785708,355.2345227464854 1767.6162082350315,305.85061559887265 1809.945271504414,270.5763962077207 Z" fill="url(#leaf13)" opacity="0.18" transform="rotate(310.5 1809.9 341.1)"/>
    <path d="M 1011.2246759101564,787.5028694013382 C 1055.994075333261,824.8107022539253 1070.9172084742959,877.0416682475474 1011.2246759101564,936.7342008116867 C 951.5321433460169,877.0416682475474 966.4552764870518,824.8107022539253 1011.2246759101564,787.5028694013382 Z" fill="url(#leaf14)" opacity="0.18" transform="rotate(310.9 1011.2 862.1)"/>
    <path d="M 1485.6486403950025,952.9817820650854 C 1521.39539842474,982.7707470898666 1533.3109844346525,1024.4752981245604 1485.6486403950025,1072.1376421642103 C 1437.9862963553526,1024.4752981245604 1449.901882365265,982.7707470898666 1485.6486403950025,952.9817820650854 Z" fill="url(#leaf15)" opacity="0.23" transform="rotate(94.1 1485.6 1012.6)"/>
    <path d="M 1105.3582856217997,430.17708832833506 C 1132.674941742978,452.94096842931697 1141.7804937833707,484.8104005706916 1105.3582856217997,521.2326087322626 C 1068.9360774602287,484.8104005706916 1078.0416295006214,452.94096842931697 1105.3582856217997,430.17708832833506 Z" fill="url(#leaf16)" opacity="0.22" transform="rotate(189.6 1105.4 475.7)"/>
    <path d="M 1453.665837942638,532.0992670351942 C 1497.1943696488179,568.3730434570108 1511.7038802175446,619.1563304475541 1453.665837942638,677.1943727224606 C 1395.6277956677316,619.1563304475541 1410.1373062364582,568.3730434570108 1453.665837942638,532.0992670351942 Z" fill="url(#leaf17)" opacity="0.15" transform="rotate(190.5 1453.7 604.6)"/>
    <path d="M 1319.2384812629466,463.44894063455797 C 1347.2855476682244,486.82149597228937 1356.634569803317,519.5430734451134 1319.2384812629466,556.9391619854836 C 1281.8423927225763,519.5430734451134 1291.1914148576689,486.82149597228937 1319.2384812629466,463.44894063455797 Z" fill="url(#leaf18)" opacity="0.22" transform="rotate(345.3 1319.2 510.2)"/>
    <path d="M 1366.6624995338343,763.502233792314 C 1388.9191350966871,782.0494300946912 1396.338013617638,808.0155049180194 1366.6624995338343,837.691019001823 C 1336.9869854500307,808.0155049180194 1344.4058639709815,782.0494300946912 1366.6624995338343,763.502233792314 Z" fill="url(#leaf19)" opacity="0.22" transform="rotate(350.3 1366.7 800.6)"/>
    <path d="M 1061.4925444466846,555.5045492975897 C 1104.0389135067248,590.9598568476232 1118.221036526738,640.59728741767 1061.4925444466846,697.3257794977236 C 1004.7640523666311,640.59728741767 1018.9461753866444,590.9598568476232 1061.4925444466846,555.5045492975897 Z" fill="url(#leaf20)" opacity="0.17" transform="rotate(11.7 1061.5 626.4)"/>
    <path d="M 612.1271181219296,866.3619547890227 C 639.0666371930073,888.8115540149208 648.0464768833666,920.2409929311781 612.1271181219296,956.1603516926151 C 576.2077593604926,920.2409929311781 585.1875990508519,888.8115540149208 612.1271181219296,866.3619547890227 Z" fill="url(#leaf21)" opacity="0.17" transform="rotate(256.6 612.1 911.3)"/>
    <path d="M 664.991107594525,946.1229031065388 C 707.3368845849142,981.4110505985299 721.4521435817105,1030.8144570873171 664.991107594525,1087.2754930745027 C 608.5300716073396,1030.8144570873171 622.6453306041359,981.4110505985299 664.991107594525,946.1229031065388 Z" fill="url(#leaf22)" opacity="0.23" transform="rotate(224.2 665.0 1016.7)"/>
    <path d="M 1519.71741076048,788.2678134415464 C 1560.2495051232968,822.0445587438935 1573.7602032442355,869.3320021671796 1519.71741076048,923.374794650935 C 1465.6746182767247,869.3320021671796 1479.1853163976634,822.0445587438935 1519.71741076048,788.2678134415464 Z" fill="url(#leaf23)" opacity="0.21" transform="rotate(282.2 1519.7 855.8)"/>
    <path d="M 804.1936593164245,723.4905065071019 C 843.0574951690645,755.877036384302 856.0121071199445,801.218178212382 804.1936593164245,853.036626015902 C 752.3752115129045,801.218178212382 765.3298234637845,755.877036384302 804.1936593164245,723.4905065071019 Z" fill="url(#leaf24)" opacity="0.24" transform="rotate(123.9 804.2 788.3)"/>
    <path d="M 1819.1649167080063,644.9952674892652 C 1842.5400314407505,664.474529766552 1850.3317363516653,691.7454969547535 1819.1649167080063,722.9123165984124 C 1787.9980970643473,691.7454969547535 1795.7898019752622,664.474529766552 1819.1649167080063,644.9952674892652 Z" fill="url(#leaf25)" opacity="0.23" transform="rotate(257.8 1819.2 684.0)"/>
    <path d="M 1570.9474781669292,399.17198930312355 C 1592.2620246961033,416.9341114107687 1599.3668735391614,441.8010823614719 1570.9474781669292,470.2204777337042 C 1542.528082794697,441.8010823614719 1549.632931637755,416.9341114107687 1570.9474781669292,399.17198930312355 Z" fill="url(#leaf26)" opacity="0.20" transform="rotate(317.1 1570.9 434.7)"/>
    <path d="M 790.4245717430124,809.3867303484853 C 817.8008558117618,832.2003004057765 826.9262838346783,864.1392984859842 790.4245717430124,900.6410105776501 C 753.9228596513465,864.1392984859842 763.048287674263,832.2003004057765 790.4245717430124,809.3867303484853 Z" fill="url(#leaf27)" opacity="0.18" transform="rotate(115.5 790.4 855.0)"/>
    <path d="M 1152.037311917741,532.3378542471912 C 1190.1252368295886,564.0777916737311 1202.8212118002048,608.5137040708869 1152.037311917741,659.2976039533507 C 1101.253412035277,608.5137040708869 1113.9493870058932,564.0777916737311 1152.037311917741,532.3378542471912 Z" fill="url(#leaf28)" opacity="0.16" transform="rotate(326.3 1152.0 595.8)"/>
    <path d="M 1651.8281726596429,807.1376080208756 C 1699.0216200513141,846.4654808472684 1714.7527691818714,901.5245028042183 1651.8281726596429,964.4490993264467 C 1588.9035761374143,901.5245028042183 1604.6347252679716,846.4654808472684 1651.8281726596429,807.1376080208756 Z" fill="url(#leaf29)" opacity="0.25" transform="rotate(247.0 1651.8 885.8)"/>
    <path d="M 62.364028403377674,411.6467050075675 C 95.56043022278178,439.3103731904042 106.62589749591648,478.0395086463757 62.364028403377674,522.3013777389145 C 18.10215931083887,478.0395086463757 29.16762658397358,439.3103731904042 62.364028403377674,411.6467050075675 Z" fill="url(#leaf0)" opacity="0.15" transform="rotate(30.2 62.4 467.0)"/>
    <path d="M 1437.7315006435474,671.3734363832083 C 1460.6791921205834,690.4965126140715 1468.3284226129285,717.2688193372801 1437.7315006435474,747.8657413066613 C 1407.1345786741663,717.2688193372801 1414.7838091665114,690.4965126140715 1437.7315006435474,671.3734363832083 Z" fill="url(#leaf1)" opacity="0.17" transform="rotate(193.8 1437.7 709.6)"/>
    <path d="M 519.1950311066196,436.1636927120108 C 546.0500311097076,458.5428593812508 555.0016977774036,489.87369271818676 519.1950311066196,525.6803593889707 C 483.38836443583557,489.87369271818676 492.3400311035316,458.5428593812508 519.1950311066196,436.1636927120108 Z" fill="url(#leaf2)" opacity="0.23" transform="rotate(23.3 519.2 480.9)"/>
    <path d="M 1440.4021867919496,380.53353760666323 C 1474.0320791654626,408.55844791792407 1485.242043289967,447.7933223536892 1440.4021867919496,492.6331788517065 C 1395.5623302939323,447.7933223536892 1406.7722944184366,408.55844791792407 1440.4021867919496,380.53353760666323 Z" fill="url(#leaf3)" opacity="0.24" transform="rotate(309.2 1440.4 436.6)"/>
    <path d="M 857.061459649831,583.4776402730347 C 885.6101534499122,607.268218439769 895.1263847166059,640.5750278731971 857.061459649831,678.6399529399721 C 818.9965345830561,640.5750278731971 828.5127658497498,607.268218439769 857.061459649831,583.4776402730347 Z" fill="url(#leaf4)" opacity="0.21" transform="rotate(91.6 857.1 631.1)"/>
    <path d="M 898.2359601688056,261.76581580831555 C 942.5278784736238,298.6757477289974 957.2918512418966,350.34965241795203 898.2359601688056,409.405543491043 C 839.1800690957147,350.34965241795203 853.9440418639874,298.6757477289974 898.2359601688056,261.76581580831555 Z" fill="url(#leaf5)" opacity="0.22" transform="rotate(162.2 898.2 335.6)"/>
    <path d="M 794.2778662613152,961.3118672572003 C 828.2843369695248,989.650592847375 839.6198272055947,1029.3248086736194 794.2778662613152,1074.6667696178988 C 748.9359053170358,1029.3248086736194 760.2713955531057,989.650592847375 794.2778662613152,961.3118672572003 Z" fill="url(#leaf6)" opacity="0.15" transform="rotate(58.1 794.3 1018.0)"/>
    <path d="M 297.5527180382313,331.1603082689418 C 321.43979845521017,351.06620861642415 329.4021585942031,378.93446910289947 297.5527180382313,410.78390965887127 C 265.7032774822595,378.93446910289947 273.6656376212525,351.06620861642415 297.5527180382313,331.1603082689418 Z" fill="url(#leaf7)" opacity="0.23" transform="rotate(31.5 297.6 371.0)"/>
    <path d="M 119.62486401983014,567.0321734394545 C 161.27160298408816,601.7377892430029 175.15384930550752,650.3256513679705 119.62486401983014,705.854636653648 C 64.09587873415276,650.3256513679705 77.97812505557212,601.7377892430029 119.62486401983014,567.0321734394545 Z" fill="url(#leaf8)" opacity="0.16" transform="rotate(204.3 119.6 636.4)"/>
    <path d="M 1603.2742519853036,254.65121432700101 C 1637.659797648219,283.3058357127637 1649.121646202524,323.4223056528316 1603.2742519853036,369.26969987005197 C 1557.4268577680832,323.4223056528316 1568.8887063223883,283.3058357127637 1603.2742519853036,254.65121432700101 Z" fill="url(#leaf9)" opacity="0.20" transform="rotate(92.7 1603.3 312.0)"/>
    <path d="M 1734.2892981789241,346.29626003626095 C 1762.3432069785572,369.6745173692886 1771.6945099117684,402.4040776355273 1734.2892981789241,439.80928936837154 C 1696.88408644608,402.4040776355273 1706.235389379291,369.6745173692886 1734.2892981789241,346.29626003626095 Z" fill="url(#leaf10)" opacity="0.17" transform="rotate(359.5 1734.3 393.1)"/>
    <path d="M 281.1032015857908,566.3228086752424 C 310.6211359500444,590.9210873121203 320.46044740479556,625.3586774037494 281.1032015857908,664.7159232227541 C 241.7459557667861,625.3586774037494 251.5852672215373,590.9210873121203 281.1032015857908,566.3228086752424 Z" fill="url(#leaf11)" opacity="0.19" transform="rotate(210.1 281.1 615.5)"/>
    <path d="M 1338.7224723898103,542.6456495309722 C 1386.2465954659476,582.2490854277531 1402.08796982466,637.6938956832466 1338.7224723898103,701.0593931180963 C 1275.3569749549606,637.6938956832466 1291.198349313673,582.2490854277531 1338.7224723898103,542.6456495309722 Z" fill="url(#leaf12)" opacity="0.18" transform="rotate(7.5 1338.7 621.9)"/>
    <path d="M 125.06875756096689,1.4047077174520197 C 159.08342391421206,29.75026301182301 170.42164603196048,69.43404042394239 125.06875756096689,114.78692889493598 C 79.7158690899733,69.43404042394239 91.05409120772171,29.75026301182301 125.06875756096689,1.4047077174520197 Z" fill="url(#leaf13)" opacity="0.25" transform="rotate(315.9 125.1 58.1)"/>
    <path d="M 1283.2121898932883,652.9072580508939 C 1325.4462143588144,688.1022784388324 1339.5242225139898,737.3753069819463 1283.2121898932883,793.6873396026479 C 1226.9001572725867,737.3753069819463 1240.9781654277622,688.1022784388324 1283.2121898932883,652.9072580508939 Z" fill="url(#leaf14)" opacity="0.20" transform="rotate(145.7 1283.2 723.3)"/>
    <path d="M 149.9131444778589,772.6371880116986 C 181.28144631199353,798.7774395401441 191.73754692337175,835.3737916799679 149.9131444778589,877.1981941254807 C 108.08874203234606,835.3737916799679 118.54484264372428,798.7774395401441 149.9131444778589,772.6371880116986 Z" fill="url(#leaf15)" opacity="0.19" transform="rotate(146.0 149.9 824.9)"/>
    <path d="M 1091.1497629009384,171.89300335684618 C 1120.4973002394074,196.34928447223697 1130.2798126855637,230.5880780337841 1091.1497629009384,269.71812781840936 C 1052.0197131163131,230.5880780337841 1061.8022255624694,196.34928447223697 1091.1497629009384,171.89300335684618 Z" fill="url(#leaf16)" opacity="0.20" transform="rotate(348.2 1091.1 220.8)"/>
    <path d="M 1823.3508628412678,968.7558547565188 C 1851.3974865581472,992.1280411872516 1860.7463611304402,1024.8491021902776 1823.3508628412678,1062.24460047945 C 1785.9553645520955,1024.8491021902776 1795.3042391243885,992.1280411872516 1823.3508628412678,968.7558547565188 Z" fill="url(#leaf17)" opacity="0.22" transform="rotate(193.8 1823.4 1015.5)"/>
    <path d="M 976.6988099869278,605.9016879065075 C 1007.5979165882236,631.6509434075873 1017.8976187886556,667.6999011090991 976.6988099869278,708.8987099108267 C 935.5000011852001,667.6999011090991 945.799703385632,631.6509434075873 976.6988099869278,605.9016879065075 Z" fill="url(#leaf18)" opacity="0.19" transform="rotate(87.7 976.7 657.4)"/>
    <path d="M 1834.8755230905676,266.9722363264997 C 1861.3356380268026,289.02233210669544 1870.1556763388808,319.89246619896943 1834.8755230905676,355.1726194472826 C 1799.5953698422545,319.89246619896943 1808.4154081543327,289.02233210669544 1834.8755230905676,266.9722363264997 Z" fill="url(#leaf19)" opacity="0.20" transform="rotate(228.5 1834.9 311.1)"/>
    <path d="M 156.0953436719097,-26.9573471925262 C 202.51172487579186,11.722970477375597 217.98385194375257,65.87541521523812 156.0953436719097,127.76392348708099 C 94.20683540006681,65.87541521523812 109.67896246802754,11.722970477375597 156.0953436719097,-26.9573471925262 Z" fill="url(#leaf20)" opacity="0.17" transform="rotate(42.6 156.1 50.4)"/>
    <path d="M 1654.3544539829138,291.60815987154814 C 1681.2724102575398,314.0397901004032 1690.245062349082,345.4440724208003 1654.3544539829138,381.33468078696836 C 1618.4638456167456,345.4440724208003 1627.4364977082878,314.0397901004032 1654.3544539829138,291.60815987154814 Z" fill="url(#leaf21)" opacity="0.24" transform="rotate(276.8 1654.4 336.5)"/>
    <path d="M 392.0867188000562,363.23461776485266 C 419.19024716437394,385.82089140178414 428.22475661914655,417.4416744934882 392.0867188000562,453.5797123125786 C 355.94868098096583,417.4416744934882 364.98319043573844,385.82089140178414 392.0867188000562,363.23461776485266 Z" fill="url(#leaf22)" opacity="0.22" transform="rotate(284.1 392.1 408.4)"/>
    <path d="M 573.7879469570399,701.2078001523117 C 601.0596570656227,723.9342252427973 610.1502271018169,755.7512203694771 573.7879469570399,792.113500514254 C 537.425666812263,755.7512203694771 546.5162368484572,723.9342252427973 573.7879469570399,701.2078001523117 Z" fill="url(#leaf23)" opacity="0.17" transform="rotate(131.6 573.8 746.7)"/>
    <path d="M 924.6685142700176,906.663591447096 C 960.389804697576,936.4313334700613 972.2969015067622,978.1061723022128 924.6685142700176,1025.7345595389575 C 877.0401270332729,978.1061723022128 888.9472238424592,936.4313334700613 924.6685142700176,906.663591447096 Z" fill="url(#leaf24)" opacity="0.24" transform="rotate(253.9 924.7 966.2)"/>
    <path d="M 733.3632444449286,788.6742095818275 C 775.9686082422047,824.178679412891 790.17039617463,873.8849371763798 733.3632444449286,930.6920889060813 C 676.5560927152271,873.8849371763798 690.7578806476524,824.178679412891 733.3632444449286,788.6742095818275 Z" fill="url(#leaf25)" opacity="0.25" transform="rotate(38.7 733.4 859.7)"/>
    <path d="M 1004.7066343096404,197.0830441908434 C 1030.407057523738,218.50006353592474 1038.9738652617707,248.48389061903865 1004.7066343096404,282.7511215711688 C 970.4394033575103,248.48389061903865 979.0062110955428,218.50006353592474 1004.7066343096404,197.0830441908434 Z" fill="url(#leaf26)" opacity="0.16" transform="rotate(232.1 1004.7 239.9)"/>
    <path d="M 255.49074141223275,54.917464990258324 C 273.9024682056409,70.26057065143178 280.03971047011026,91.74091857707462 255.49074141223275,116.28988763495217 C 230.9417723543552,91.74091857707462 237.0790146188246,70.26057065143178 255.49074141223275,54.917464990258324 Z" fill="url(#leaf27)" opacity="0.25" transform="rotate(185.6 255.5 85.6)"/>
    <path d="M 611.4978559638602,100.95717298465985 C 634.8101968234695,120.38412370100092 642.5809771100058,147.5818547038784 611.4978559638602,178.66497585002412 C 580.4147348177145,147.5818547038784 588.1855151042508,120.38412370100092 611.4978559638602,100.95717298465985 Z" fill="url(#leaf28)" opacity="0.17" transform="rotate(49.3 611.5 139.8)"/>
    <path d="M 578.740125256556,596.0132902886746 C 607.8889385800887,620.3039680582851 617.605209687933,654.31091693574 578.740125256556,693.1760013671169 C 539.875040825179,654.31091693574 549.5913119330232,620.3039680582851 578.740125256556,596.0132902886746 Z" fill="url(#leaf29)" opacity="0.24" transform="rotate(137.1 578.7 644.6)"/>
    <path d="M 692.5499921812328,65.1541498381275 C 712.0805814347584,81.42964088273219 718.5907778526004,104.21532834517876 692.5499921812328,130.25611401654626 C 666.5092065098653,104.21532834517876 673.0194029277072,81.42964088273219 692.5499921812328,65.1541498381275 Z" fill="url(#leaf0)" opacity="0.17" transform="rotate(46.0 692.5 97.7)"/>
    <path d="M 777.748696602604,280.0823006220333 C 819.2206472377206,314.64225948463053 833.0446307827596,363.02620189226667 777.748696602604,418.3221360724222 C 722.4527624224485,363.02620189226667 736.2767459674874,314.64225948463053 777.748696602604,280.0823006220333 Z" fill="url(#leaf1)" opacity="0.19" transform="rotate(51.7 777.7 349.2)"/>
    <path d="M 154.0985484634126,710.5036752152719 C 176.2928913316143,728.9989609387733 183.69100562101485,754.8923609516753 154.0985484634126,784.4848181092775 C 124.50609130581037,754.8923609516753 131.90420559521093,728.9989609387733 154.0985484634126,710.5036752152719 Z" fill="url(#leaf2)" opacity="0.19" transform="rotate(359.1 154.1 747.5)"/>
    <path d="M 306.69853258325713,441.7115385552556 C 338.7328139147447,468.4067729981619 349.41090769190725,505.78010121823075 306.69853258325713,548.4924763268809 C 263.986157474607,505.78010121823075 274.66425125176954,468.4067729981619 306.69853258325713,441.7115385552556 Z" fill="url(#leaf3)" opacity="0.20" transform="rotate(349.1 306.7 495.1)"/>
    <path d="M 1288.1763919067587,254.51420876416967 C 1309.7636409418699,272.50358296009574 1316.9593906202404,297.68870683439224 1288.1763919067587,326.47170554787397 C 1259.393393193277,297.68870683439224 1266.5891428716475,272.50358296009574 1288.1763919067587,254.51420876416967 Z" fill="url(#leaf4)" opacity="0.17" transform="rotate(64.1 1288.2 290.5)"/>
    <path d="M 1718.8761196588102,834.7374070720241 C 1751.499527022228,861.9235798748723 1762.3739961433673,899.9842217988598 1718.8761196588102,943.4820982834169 C 1675.3782431742532,899.9842217988598 1686.2527122953925,861.9235798748723 1718.8761196588102,834.7374070720241 Z" fill="url(#leaf5)" opacity="0.22" transform="rotate(119.8 1718.9 889.1)"/>
    <path d="M 316.43078082445436,476.18673039796477 C 357.0759491253508,510.05770398204515 370.62433855898297,557.4770669997577 316.43078082445436,611.6706247342863 C 262.23722308992575,557.4770669997577 275.7856125235579,510.05770398204515 316.43078082445436,476.18673039796477 Z" fill="url(#leaf6)" opacity="0.19" transform="rotate(30.4 316.4 543.9)"/>
    <path d="M 1476.7795277817552,195.36272256644168 C 1519.5410917465892,230.99735920380346 1533.794946401534,280.8858504961099 1476.7795277817552,337.9012691158888 C 1419.7641091619764,280.8858504961099 1434.017963816921,230.99735920380346 1476.7795277817552,195.36272256644168 Z" fill="url(#leaf7)" opacity="0.19" transform="rotate(9.7 1476.8 266.6)"/>
    <path d="M 633.4834402830672,953.5486709390456 C 675.8931383245938,988.8900859736511 690.0297043384361,1038.3680670220988 633.4834402830672,1094.9143310774675 C 576.9371762276984,1038.3680670220988 591.0737422415407,988.8900859736511 633.4834402830672,953.5486709390456 Z" fill="url(#leaf8)" opacity="0.18" transform="rotate(272.0 633.5 1024.2)"/>
    <path d="M 718.9588118453074,938.9355719310154 C 737.7558705904522,954.5997875519694 744.0215568388338,976.529689421305 718.9588118453074,1001.5924344148314 C 693.896066851781,976.529689421305 700.1617531001626,954.5997875519694 718.9588118453074,938.9355719310154 Z" fill="url(#leaf9)" opacity="0.19" transform="rotate(270.2 719.0 970.3)"/>
    <path d="M 331.83935623130924,886.0912375704899 C 361.904578886013,911.145589782743 371.92631977091423,946.2216828798972 331.83935623130924,986.3086464195022 C 291.75239269170424,946.2216828798972 301.7741335766055,911.145589782743 331.83935623130924,886.0912375704899 Z" fill="url(#leaf10)" opacity="0.23" transform="rotate(96.8 331.8 936.2)"/>
    <path d="M 95.64096351573707,-1.2250500480611635 C 138.65510674548045,34.62006931005832 152.99315448872824,84.8032364114256 95.64096351573707,142.15542738441678 C 38.288772542745896,84.8032364114256 52.626820285993695,34.62006931005832 95.64096351573707,-1.2250500480611635 Z" fill="url(#leaf11)" opacity="0.22" transform="rotate(279.6 95.6 70.5)"/>
    <path d="M 243.45656131449655,740.3046400695955 C 262.57343279721636,756.2353663051954 268.9457232914563,778.5383830350352 243.45656131449655,804.027545011995 C 217.9673993375368,778.5383830350352 224.33968983177672,756.2353663051954 243.45656131449655,740.3046400695955 Z" fill="url(#leaf12)" opacity="0.16" transform="rotate(345.1 243.5 772.2)"/>
    <path d="M 1295.6337859456485,574.2373056901747 C 1324.802031265512,598.544176790061 1334.5247797054665,632.5737963299018 1295.6337859456485,671.4647900897198 C 1256.7427921858305,632.5737963299018 1266.465540625785,598.544176790061 1295.6337859456485,574.2373056901747 Z" fill="url(#leaf13)" opacity="0.23" transform="rotate(162.4 1295.6 622.9)"/>
    <path d="M 1402.3589769341104,608.4044308913644 C 1436.6596928406882,636.9883608135125 1448.0932648095475,677.0058627045199 1402.3589769341104,722.7401505799569 C 1356.6246890586733,677.0058627045199 1368.0582610275326,636.9883608135125 1402.3589769341104,608.4044308913644 Z" fill="url(#leaf14)" opacity="0.25" transform="rotate(235.9 1402.4 665.6)"/>
    <path d="M 286.42003621717413,270.5918567921112 C 313.2070113274863,292.91433605070466 322.1360030309237,324.16580701273557 286.42003621717413,359.88177382648513 C 250.70406940342457,324.16580701273557 259.63306110686193,292.91433605070466 286.42003621717413,270.5918567921112 Z" fill="url(#leaf15)" opacity="0.23" transform="rotate(262.9 286.4 315.2)"/>
    <path d="M 1583.7479807441337,740.1507416173877 C 1614.698108355208,765.9425146266162 1625.0148175588995,802.0509968395363 1583.7479807441337,843.3178336543021 C 1542.4811439293678,802.0509968395363 1552.7978531330593,765.9425146266162 1583.7479807441337,740.1507416173877 Z" fill="url(#leaf16)" opacity="0.19" transform="rotate(142.4 1583.7 791.7)"/>
    <path d="M 645.4527063936966,349.84056445449835 C 690.8653758358217,387.6844556562692 706.0029323165301,440.6659033387484 645.4527063936966,501.21612926158184 C 584.9024804708632,440.6659033387484 600.0400369515716,387.6844556562692 645.4527063936966,349.84056445449835 Z" fill="url(#leaf17)" opacity="0.24" transform="rotate(105.5 645.5 425.5)"/>
    <path d="M 261.84076791897974,113.98716852994906 C 303.537783894203,148.73468184263515 317.43678921927744,197.38120048039565 261.84076791897974,252.97722178069338 C 206.244746618682,197.38120048039565 220.14375194375646,148.73468184263515 261.84076791897974,113.98716852994906 Z" fill="url(#leaf18)" opacity="0.18" transform="rotate(327.3 261.8 183.5)"/>
    <path d="M 464.5325885286829,828.9180462855632 C 497.1891084701416,856.1318129034454 508.0746151172945,894.2310861684805 464.5325885286829,937.7731127570921 C 420.99056194007125,894.2310861684805 431.87606858722415,856.1318129034454 464.5325885286829,828.9180462855632 Z" fill="url(#leaf19)" opacity="0.23" transform="rotate(61.3 464.5 883.3)"/>
    <path d="M 1010.0203487482027,609.1134213298468 C 1043.7321634553052,637.2066002524324 1054.9694350243394,676.5370507440521 1010.0203487482027,721.486137020189 C 965.0712624720659,676.5370507440521 976.3085340411001,637.2066002524324 1010.0203487482027,609.1134213298468 Z" fill="url(#leaf20)" opacity="0.16" transform="rotate(271.4 1010.0 665.3)"/>
    <path d="M 356.4416856504894,399.90419906763424 C 383.855779010192,422.7492768673864 392.9938101300929,454.7323857870395 356.4416856504894,491.28451026664305 C 319.8895611708858,454.7323857870395 329.02759229078674,422.7492768673864 356.4416856504894,399.90419906763424 Z" fill="url(#leaf21)" opacity="0.19" transform="rotate(175.9 356.4 445.6)"/>
    <path d="M 1308.2723691826766,716.5490421953106 C 1346.38384587173,748.308606102855 1359.0876714347478,792.7719955734175 1308.2723691826766,843.5872978254887 C 1257.4570669306054,792.7719955734175 1270.1608924936231,748.308606102855 1308.2723691826766,716.5490421953106 Z" fill="url(#leaf22)" opacity="0.22" transform="rotate(0.3 1308.3 780.1)"/>
    <path d="M 142.37524625106812,212.71450098953164 C 172.31856966364404,237.66727050001157 182.299677467836,272.6011478146835 142.37524625106812,312.52557903145134 C 102.45081503430023,272.6011478146835 112.4319228384922,237.66727050001157 142.37524625106812,212.71450098953164 Z" fill="url(#leaf23)" opacity="0.22" transform="rotate(24.9 142.4 262.6)"/>
    <path d="M 263.1425989628201,365.45675560934063 C 305.8544023638845,401.0499251102276 320.0916701642393,450.88036241146943 263.1425989628201,507.82943361288864 C 206.1935277614009,450.88036241146943 220.4307955617557,401.0499251102276 263.1425989628201,365.45675560934063 Z" fill="url(#leaf24)" opacity="0.17" transform="rotate(67.6 263.1 436.6)"/>
    <path d="M 1415.1690635266,557.3153092240016 C 1462.8684183986675,597.0647716173912 1478.7682033560234,652.7140189681368 1415.1690635266,716.3131587975602 C 1351.5699236971766,652.7140189681368 1367.4697086545325,597.0647716173912 1415.1690635266,557.3153092240016 Z" fill="url(#leaf25)" opacity="0.21" transform="rotate(68.7 1415.2 636.8)"/>
    <path d="M 418.3892282369033,668.9464862323125 C 443.09243265784835,689.5324899164333 451.3268341314967,718.3528950742025 418.3892282369033,751.2905009687959 C 385.4516223423099,718.3528950742025 393.68602381595827,689.5324899164333 418.3892282369033,668.9464862323125 Z" fill="url(#leaf26)" opacity="0.18" transform="rotate(195.7 418.4 710.1)"/>
    <path d="M 559.892689342739,650.0271983005251 C 598.6554047616596,682.3294611496257 611.5763099012999,727.5526291383665 559.892689342739,779.2362496969273 C 508.20906878417816,727.5526291383665 521.1299739238184,682.3294611496257 559.892689342739,650.0271983005251 Z" fill="url(#leaf27)" opacity="0.24" transform="rotate(345.3 559.9 714.6)"/>
    <path d="M 1685.903905186053,849.5044819034521 C 1715.5052791871035,874.1722935709942 1725.3724038541204,908.707229905553 1685.903905186053,948.1757285736204 C 1646.4354065179855,908.707229905553 1656.3025311850024,874.1722935709942 1685.903905186053,849.5044819034521 Z" fill="url(#leaf28)" opacity="0.21" transform="rotate(141.2 1685.9 898.8)"/>
    <path d="M 1539.293947213942,223.67744542218435 C 1575.1222785670702,253.53438821645787 1587.0650556847795,295.3341081284408 1539.293947213942,343.10521659927844 C 1491.5228387431043,295.3341081284408 1503.4656158608136,253.53438821645787 1539.293947213942,223.67744542218435 Z" fill="url(#leaf29)" opacity="0.16" transform="rotate(214.5 1539.3 283.4)"/>
    <path d="M 893.4625168773509,111.67246272925917 C 921.3996222648486,134.9533838855073 930.7119907273479,167.54667350425467 893.4625168773509,204.79614735425167 C 856.2130430273539,167.54667350425467 865.5254114898532,134.9533838855073 893.4625168773509,111.67246272925917 Z" fill="url(#leaf0)" opacity="0.24" transform="rotate(354.6 893.5 158.2)"/>
    <path d="M 417.0969429586914,781.7270252063046 C 449.1172568968355,808.4106201547579 459.79069487621683,845.7676530825927 417.0969429586914,888.4614050001181 C 374.40319104116594,845.7676530825927 385.0766290205473,808.4106201547579 417.0969429586914,781.7270252063046 Z" fill="url(#leaf1)" opacity="0.17" transform="rotate(213.6 417.1 835.1)"/>
    <path d="M 1709.9411523026404,244.61908978716477 C 1745.1772521391856,273.98250631761914 1756.9226187513673,315.0912894602552 1709.9411523026404,362.07275590898223 C 1662.9596858539135,315.0912894602552 1674.7050524660951,273.98250631761914 1709.9411523026404,244.61908978716477 Z" fill="url(#leaf2)" opacity="0.15" transform="rotate(94.8 1709.9 303.3)"/>
    <path d="M 486.9356154447819,331.5585548931866 C 533.0011606785228,369.94650925463736 548.356342423103,423.68964536066835 486.9356154447819,485.11037233898946 C 425.5148884664608,423.68964536066835 440.870070211041,369.94650925463736 486.9356154447819,331.5585548931866 Z" fill="url(#leaf3)" opacity="0.20" transform="rotate(339.1 486.9 408.3)"/>
    <path d="M 1716.7928091338622,761.6666628600483 C 1758.0582501819606,796.0545304001303 1771.8133971979933,844.197544956245 1716.7928091338622,899.2181330203762 C 1661.7722210697311,844.197544956245 1675.5273680857638,796.0545304001303 1716.7928091338622,761.6666628600483 Z" fill="url(#leaf4)" opacity="0.18" transform="rotate(221.5 1716.8 830.4)"/>
    <path d="M 440.94136081178686,351.93026787012406 C 481.7521264188037,385.93923920930473 495.35571495447596,433.55179908415766 440.94136081178686,487.96615322684676 C 386.5270066690978,433.55179908415766 400.13059520477003,385.93923920930473 440.94136081178686,351.93026787012406 Z" fill="url(#leaf5)" opacity="0.21" transform="rotate(6.9 440.9 419.9)"/>
    <path d="M 500.29460538725016,269.51075091928277 C 543.0649965397283,305.1527435463479 557.3217935905543,355.05153322423905 500.29460538725016,412.07872142754326 C 443.26741718394595,355.05153322423905 457.524214234772,305.1527435463479 500.29460538725016,269.51075091928277 Z" fill="url(#leaf6)" opacity="0.17" transform="rotate(74.4 500.3 340.8)"/>
    <path d="M 1482.3620546088707,374.6933582918205 C 1500.7892866563916,390.04938499808793 1506.9316973388986,411.54782238686226 1482.3620546088707,436.11746511689006 C 1457.7924118788428,411.54782238686226 1463.9348225613498,390.04938499808793 1482.3620546088707,374.6933582918205 Z" fill="url(#leaf7)" opacity="0.19" transform="rotate(43.0 1482.4 405.4)"/>
    <path d="M 701.29487519273,390.7288799461579 C 725.9880951063119,411.3065632074762 734.2191684108392,440.1153197733217 701.29487519273,473.0396129914309 C 668.3705819746209,440.1153197733217 676.6016552791482,411.3065632074762 701.29487519273,390.7288799461579 Z" fill="url(#leaf8)" opacity="0.17" transform="rotate(199.3 701.3 431.9)"/>
    <path d="M 196.91490718027345,637.3349012182201 C 244.6266692498877,677.0947029428987 260.5305899397591,732.7584253574486 196.91490718027345,796.3741081169343 C 133.29922442078777,732.7584253574486 149.2031451106592,677.0947029428987 196.91490718027345,637.3349012182201 Z" fill="url(#leaf9)" opacity="0.18" transform="rotate(197.8 196.9 716.9)"/>
    <path d="M 367.42061141594144,153.00479305008128 C 389.7021840465952,171.5727702422928 397.1293749234798,197.56793831138887 367.42061141594144,227.27670181892728 C 337.71184790840306,197.56793831138887 345.13903878528765,171.5727702422928 367.42061141594144,153.00479305008128 Z" fill="url(#leaf10)" opacity="0.22" transform="rotate(55.2 367.4 190.1)"/>
    <path d="M 356.23160718745,759.4059265354222 C 382.36593186727924,781.18453043528 391.0773734272223,811.6745758950807 356.23160718745,846.5203421348531 C 321.38584094767765,811.6745758950807 330.0972825076207,781.18453043528 356.23160718745,759.4059265354222 Z" fill="url(#leaf11)" opacity="0.22" transform="rotate(235.9 356.2 803.0)"/>
    <path d="M 350.69772475595215,324.4869492118298 C 389.513735541055,356.8336248660822 402.45240580275595,402.1189707820355 350.69772475595215,453.87365182883923 C 298.94304370914836,402.1189707820355 311.8817139708493,356.8336248660822 350.69772475595215,324.4869492118298 Z" fill="url(#leaf12)" opacity="0.16" transform="rotate(332.8 350.7 389.2)"/>
    <path d="M 1097.358722821552,531.3787956803938 C 1135.2380379159113,562.9448915923597 1147.8644762806975,607.1374258691121 1097.358722821552,657.6431793282577 C 1046.8529693624064,607.1374258691121 1059.4794077271927,562.9448915923597 1097.358722821552,531.3787956803938 Z" fill="url(#leaf13)" opacity="0.17" transform="rotate(307.5 1097.4 594.5)"/>
    <path d="M 1618.5142183244677,281.63679301580146 C 1647.1957214760666,305.5380456421339 1656.7562225265997,338.99979931899935 1618.5142183244677,377.24180352113126 C 1580.2722141223358,338.99979931899935 1589.8327151728688,305.5380456421339 1618.5142183244677,281.63679301580146 Z" fill="url(#leaf14)" opacity="0.23" transform="rotate(134.0 1618.5 329.4)"/>
    <path d="M 1393.0307078141793,757.1327365485371 C 1433.6069786563091,790.9462955836452 1447.1324022703523,838.2852782327966 1393.0307078141793,892.3869726889696 C 1338.9290133580064,838.2852782327966 1352.4544369720495,790.9462955836452 1393.0307078141793,757.1327365485371 Z" fill="url(#leaf15)" opacity="0.25" transform="rotate(232.8 1393.0 824.8)"/>
    <path d="M 328.0875080041161,343.350373743945 C 373.0562172622297,380.8242981257063 388.04578701493426,433.28779226017224 328.0875080041161,493.2460712709904 C 268.12922899329794,433.28779226017224 283.1187987460025,380.8242981257063 328.0875080041161,343.350373743945 Z" fill="url(#leaf16)" opacity="0.19" transform="rotate(74.1 328.1 418.3)"/>
    <path d="M 961.226547468927,581.7271032405224 C 998.4050576698224,612.7091950746019 1010.7978944034543,656.0841236423133 961.226547468927,705.6554705768406 C 911.6552005343998,656.0841236423133 924.0480372680316,612.7091950746019 961.226547468927,581.7271032405224 Z" fill="url(#leaf17)" opacity="0.21" transform="rotate(317.4 961.2 643.7)"/>
    <path d="M 977.6778699040162,824.6363663295566 C 997.1188532924283,840.8371858198999 1003.5991810885656,863.5183331063806 977.6778699040162,889.43964429093 C 951.7565587194669,863.5183331063806 958.2368865156042,840.8371858198999 977.6778699040162,824.6363663295566 Z" fill="url(#leaf18)" opacity="0.25" transform="rotate(41.7 977.7 857.0)"/>
    <path d="M 623.9134010510232,795.8159913939522 C 668.3421670968697,832.8399630988242 683.1517557788186,884.6735234856452 623.9134010510232,943.9118782134404 C 564.6750463232279,884.6735234856452 579.4846350051768,832.8399630988242 623.9134010510232,795.8159913939522 Z" fill="url(#leaf19)" opacity="0.19" transform="rotate(212.9 623.9 869.9)"/>
    <path d="M 772.285637490488,66.96408712585995 C 794.8807726397472,85.79336641690925 802.4124843561669,112.15435742437828 772.285637490488,142.28120429005716 C 742.1587906248092,112.15435742437828 749.6905023412289,85.79336641690925 772.285637490488,66.96408712585995 Z" fill="url(#leaf20)" opacity="0.15" transform="rotate(214.0 772.3 104.6)"/>
    <path d="M 128.2681913461157,733.718308223179 C 165.3665101654712,764.6335739059753 177.73261643858967,807.9149458618899 128.2681913461157,857.3793709543639 C 78.80376625364175,807.9149458618899 91.16987252676024,764.6335739059753 128.2681913461157,733.718308223179 Z" fill="url(#leaf21)" opacity="0.15" transform="rotate(208.4 128.3 795.5)"/>
    <path d="M 463.04544194746944,492.34489732405655 C 502.2097150485896,524.98179157499 515.2644727489629,570.6734435262968 463.04544194746944,622.8924743277903 C 410.8264111459759,570.6734435262968 423.8811688463493,524.98179157499 463.04544194746944,492.34489732405655 Z" fill="url(#leaf22)" opacity="0.24" transform="rotate(31.3 463.0 557.6)"/>
    <path d="M 392.75653146753405,549.3220457586579 C 440.7412674884104,589.3093257760547 456.7361794953692,645.2915178004105 392.75653146753405,709.2711658282456 C 328.7768834396989,645.2915178004105 344.7717954466577,589.3093257760547 392.75653146753405,549.3220457586579 Z" fill="url(#leaf23)" opacity="0.22" transform="rotate(317.7 392.8 629.3)"/>
    <path d="M 352.4578962568538,663.8512582986465 C 399.0493209933184,702.6774455790337 414.57979590547325,757.0341077715757 352.4578962568538,819.1560074201951 C 290.3359966082344,757.0341077715757 305.8664715203892,702.6774455790337 352.4578962568538,663.8512582986465 Z" fill="url(#leaf24)" opacity="0.17" transform="rotate(66.0 352.5 741.5)"/>
    <path d="M 53.594334868480615,343.8183228963819 C 93.68440364996857,377.22671354762184 107.04775991046458,423.99846045935783 53.594334868480615,477.45188550134174 C 0.14090982649666017,423.99846045935783 13.50426608699265,377.22671354762184 53.594334868480615,343.8183228963819 Z" fill="url(#leaf25)" opacity="0.22" transform="rotate(331.3 53.6 410.6)"/>
    <path d="M 1305.2040614291252,350.25863727213385 C 1337.7399165799493,377.3718498978206 1348.585201630224,415.3303475737821 1305.2040614291252,458.71148777488094 C 1261.8229212280264,415.3303475737821 1272.668206278301,377.3718498978206 1305.2040614291252,350.25863727213385 Z" fill="url(#leaf26)" opacity="0.15" transform="rotate(267.2 1305.2 404.5)"/>
    <path d="M 1843.9287002494098,515.4591367909884 C 1863.779297889626,532.0013014911684 1870.3961637696978,555.1603320714205 1843.9287002494098,581.6277955917085 C 1817.4612367291218,555.1603320714205 1824.0781026091936,532.0013014911684 1843.9287002494098,515.4591367909884 Z" fill="url(#leaf27)" opacity="0.20" transform="rotate(258.6 1843.9 548.5)"/>
    <path d="M 74.83478727216392,124.30819492679545 C 93.88005685020558,140.17925290849684 100.22848004288613,162.39873408287875 74.83478727216392,187.79242685360097 C 49.44109450144171,162.39873408287875 55.78951769412227,140.17925290849684 74.83478727216392,124.30819492679545 Z" fill="url(#leaf28)" opacity="0.21" transform="rotate(199.6 74.8 156.1)"/>
    <path d="M 1683.8364811133072,125.56741001428718 C 1707.8376370450314,145.56837329072414 1715.8380223556062,173.56972187773587 1683.8364811133072,205.57126312003498 C 1651.8349398710081,173.56972187773587 1659.835325181583,145.56837329072414 1683.8364811133072,125.56741001428718 Z" fill="url(#leaf29)" opacity="0.19" transform="rotate(19.2 1683.8 165.6)"/>
    <path d="M 1513.4573328900822,139.01398013090287 C 1539.480475684904,160.69993245992094 1548.154856616511,191.06026572054628 1513.4573328900822,225.75778944697524 C 1478.7598091636532,191.06026572054628 1487.4341900952604,160.69993245992094 1513.4573328900822,139.01398013090287 Z" fill="url(#leaf0)" opacity="0.17" transform="rotate(301.2 1513.5 182.4)"/>
    <path d="M 495.4105381881683,901.4732392381344 C 529.0975927007973,929.5457846653253 540.3266108716738,968.8473482633925 495.4105381881683,1013.763420946898 C 450.49446550466286,968.8473482633925 461.7234836755392,929.5457846653253 495.4105381881683,901.4732392381344 Z" fill="url(#leaf1)" opacity="0.22" transform="rotate(26.7 495.4 957.6)"/>
    <path d="M 372.3838993667849,871.5845628586126 C 396.34564803613654,891.552686749739 404.3328975925871,919.5080601973159 372.3838993667849,951.457058423118 C 340.4349011409827,919.5080601973159 348.4221506974332,891.552686749739 372.3838993667849,871.5845628586126 Z" fill="url(#leaf2)" opacity="0.22" transform="rotate(198.3 372.4 911.5)"/>
    <path d="M 946.5008090406512,470.1570184483396 C 967.3411112068103,487.5239369201388 974.28787859553,511.8376227806576 946.5008090406512,539.6246923355363 C 918.7137394857725,511.8376227806576 925.6605068744922,487.5239369201388 946.5008090406512,470.1570184483396 Z" fill="url(#leaf3)" opacity="0.21" transform="rotate(240.5 946.5 504.9)"/>
    <path d="M 243.74197036211686,888.8489518197431 C 262.3491403442156,904.3549268048254 268.5515303382485,926.0632917839406 243.74197036211686,950.8728517600722 C 218.9324103859852,926.0632917839406 225.13480038001813,904.3549268048254 243.74197036211686,888.8489518197431 Z" fill="url(#leaf4)" opacity="0.23" transform="rotate(41.0 243.7 919.9)"/>
    <path d="M 88.62629637629668,964.8499715459618 C 125.25010382295825,995.3698110848464 137.4580396385121,1038.097586439285 88.62629637629668,1086.9293297015004 C 39.79455311408124,1038.097586439285 52.002488929635106,995.3698110848464 88.62629637629668,964.8499715459618 Z" fill="url(#leaf5)" opacity="0.16" transform="rotate(46.5 88.6 1025.9)"/>
    <path d="M 826.6136498790219,939.8589796744757 C 854.5951150592757,963.1768673246872 863.9222701193603,995.8219100349834 826.6136498790219,1033.130530275322 C 789.3050296386834,995.8219100349834 798.632184698768,963.1768673246872 826.6136498790219,939.8589796744757 Z" fill="url(#leaf6)" opacity="0.19" transform="rotate(351.7 826.6 986.5)"/>
    <path d="M 1668.3508291610274,234.08777596887109 C 1691.1803868307989,253.11240736034725 1698.7902393873892,279.74689130841386 1668.3508291610274,310.18630153477574 C 1637.9114189346656,279.74689130841386 1645.521271491256,253.11240736034725 1668.3508291610274,234.08777596887109 Z" fill="url(#leaf7)" opacity="0.22" transform="rotate(90.1 1668.4 272.1)"/>
    <path d="M 535.6627872824021,775.5053865957157 C 576.5844244698849,809.606750918618 590.2249701990459,857.3486609706813 535.6627872824021,911.910843887325 C 481.10060436575833,857.3486609706813 494.74115009491925,809.606750918618 535.6627872824021,775.5053865957157 Z" fill="url(#leaf8)" opacity="0.17" transform="rotate(235.3 535.7 843.7)"/>
    <path d="M 562.597385856733,474.74541916436874 C 595.0209525220515,501.7650580521341 605.8288080771576,539.5925524950056 562.597385856733,582.8239747154303 C 519.3659636363084,539.5925524950056 530.1738191914145,501.7650580521341 562.597385856733,474.74541916436874 Z" fill="url(#leaf9)" opacity="0.22" transform="rotate(205.2 562.6 528.8)"/>
    <path d="M 904.0694595241749,656.4447540531123 C 934.0594295344113,681.4363957283092 944.05608620449,716.424694073585 904.0694595241749,756.4113207539001 C 864.0828328438598,716.424694073585 874.0794895139386,681.4363957283092 904.0694595241749,656.4447540531123 Z" fill="url(#leaf10)" opacity="0.18" transform="rotate(303.2 904.1 706.4)"/>
    <path d="M 1331.747091363031,842.8237938581135 C 1354.091031860236,861.4437442724509 1361.5390120259708,887.5116748525234 1331.747091363031,917.3035955154633 C 1301.955170700091,887.5116748525234 1309.4031508658259,861.4437442724509 1331.747091363031,842.8237938581135 Z" fill="url(#leaf11)" opacity="0.24" transform="rotate(119.0 1331.7 880.1)"/>
    <path d="M 1294.3404146265116,123.33870594957871 C 1324.945836680049,148.8432243275267 1335.1476440312283,184.54955005665394 1294.3404146265116,225.35677946137076 C 1253.5331852217948,184.54955005665394 1263.734992572974,148.8432243275267 1294.3404146265116,123.33870594957871 Z" fill="url(#leaf12)" opacity="0.23" transform="rotate(139.4 1294.3 174.3)"/>
    <path d="M 427.8177877176877,63.63049722544442 C 451.4461669696838,83.32081326877451 459.32229338701586,110.88725572943665 427.8177877176877,142.3917613987648 C 396.3132820483595,110.88725572943665 404.18940846569154,83.32081326877451 427.8177877176877,63.63049722544442 Z" fill="url(#leaf13)" opacity="0.18" transform="rotate(64.8 427.8 103.0)"/>
    <path d="M 1178.6083153800444,397.673070752961 C 1211.4116935296445,425.00921921096113 1222.3461529128447,463.2798270521614 1178.6083153800444,507.01766458496166 C 1134.870477847244,463.2798270521614 1145.8049372304442,425.00921921096113 1178.6083153800444,397.673070752961 Z" fill="url(#leaf14)" opacity="0.20" transform="rotate(248.7 1178.6 452.3)"/>
    <path d="M 1371.479500193208,802.6372118782049 C 1394.0050021660345,821.408463522227 1401.5135028236434,847.6882158238578 1371.479500193208,877.7222184542932 C 1341.4454975627725,847.6882158238578 1348.9539982203814,821.408463522227 1371.479500193208,802.6372118782049 Z" fill="url(#leaf15)" opacity="0.20" transform="rotate(247.0 1371.5 840.2)"/>
    </g>

    <!-- Text with SOLID fill only (ThorVG compatible) -->
    <text x="945.2" y="946.9"
          font-family="Arial, Helvetica, sans-serif"
          font-size="1080px"
          font-weight="bold"
          fill="#7B68EE"
          text-anchor="middle"
          transform="rotate(-14.3 960.0 540.0)">
      0
    </text>
  </g>

  <!-- Frame counter -->
  <text x="960.0" y="1050.0"
        font-family="monospace"
        font-size="24px"
        fill="#FFFFFF"
        text-anchor="middle"
        opacity="0.7">
    Frame 00083 - Compatible
  </text>
</svg>