<?xml version="1.0" encoding="UTF-8"?>
<svg xmlns="http://www.w3.org/2000/svg" viewBox="0 0 1920 1080" width="1920" height="1080">
  <defs>
    <linearGradient id="bgGrad" x1="0%" y1="0%" x2="100%" y2="100%">
      <stop offset="0%" stop-color="#DC143C"/>
      <stop offset="100%" stop-color="#FFE66D"/>
    </linearGradient>
    <clipPath id="complexClip"><polygon points="1504.4,540.0 1619.7,586.9 1498.5,617.8 1485.3,657.0 1455.1,693.1 1284.3,672.5 1326.7,733.7 1258.4,742.9 1269.3,814.2 1189.7,814.6 1106.4,793.5 1032.1,752.7 999.7,895.1 919.4,903.1 878.9,779.0 807.1,804.8 717.7,829.6 701.4,769.2 684.8,727.2 601.3,729.5 645.9,668.4 403.5,712.1 589.6,622.5 482.2,609.0 429.7,577.7 351.1,540.0 368.5,498.0 457.2,467.4 597.5,459.3 490.1,394.7 429.2,323.1 487.4,290.4 605.6,299.1 649.5,264.8 721.2,254.6 766.4,204.9 857.2,237.0 935.9,324.4 988.7,283.5 1045.3,288.5 1123.5,256.9 1223.6,224.9 1182.7,342.6 1207.5,371.7 1250.2,386.7 1368.5,373.1 1458.3,385.9 1448.1,431.3 1530.4,457.6 1444.8,505.5"/></clipPath>
    <radialGradient id="leaf0" cx="50%" cy="50%" r="70%">
      <stop offset="0%" stop-color="#32CD32"/>
      <stop offset="50%" stop-color="#96E6A1"/>
      <stop offset="100%" stop-color="#DC143C"/>
    </radialGradient>
    <radialGradient id="leaf1" cx="50%" cy="50%" r="70%">
      <stop offset="0%" stop-color="#96E6A1"/>
      <stop offset="50%" stop-color="#FFE66D"/>
      <stop offset="100%" stop-color="#FF69B4"/>
    </radialGradient>
    <radialGradient id="leaf2" cx="50%" cy="50%" r="70%">
      <stop offset="0%" stop-color="#9370DB"/>
      <stop offset="50%" stop-color="#00FA9A"/>
      <stop offset="100%" stop-color="#96E6A1"/>
    </radialGradient>
    <radialGradient id="leaf3" cx="50%" cy="50%" r="70%">
      <stop offset="0%" stop-color="#DC143C"/>
      <stop offset="50%" stop-color="#FF4500"/>
      <stop offset="100%" stop-color="#FF6B6B"/>
    </radialGradient>
    <radialGradient id="leaf4" cx="50%" cy="50%" r="70%">
      <stop offset="0%" stop-color="#00CED1"/>
      <stop offset="50%" stop-color="#96E6A1"/>
      <stop offset="100%" stop-color="#7B68EE"/>
    </radialGradient>
    <radialGradient id="leaf5" cx="50%" cy="50%" r="70%">
      <stop offset="0%" stop-color="#9370DB"/>
      <stop offset="50%" stop-color="#7B68EE"/>
      <stop offset="100%" stop-color="#45B7D1"/>
    </radialGradient>
    <radialGradient id="leaf6" cx="50%" cy="50%" r="70%">
      <stop offset="0%" stop-color="#45B7D1"/>
      <stop offset="50%" stop-color="#9370DB"/>
      <stop offset="100%" stop-color="#FF1493"/>
    </radialGradient>
    <radialGradient id="leaf7" cx="50%" cy="50%" r="70%">
      <stop offset="0%" stop-color="#FFD700"/>
      <stop offset="50%" stop-color="#45B7D1"/>
      <stop offset="100%" stop-color="#96E6A1"/>
    </radialGradient>
    <radialGradient id="leaf8" cx="50%" cy="50%" r="70%">
      <stop offset="0%" stop-color="#96E6A1"/>
      <stop offset="50%" stop-color="#DC143C"/>
      <stop offset="100%" stop-color="#FF69B4"/>
    </radialGradient>
    <radialGradient id="leaf9" cx="50%" cy="50%" r="70%">
      <stop offset="0%" stop-color="#FFE66D"/>
      <stop offset="50%" stop-color="#45B7D1"/>
      <stop offset="100%" stop-color="#9370DB"/>
    </radialGradient>
    <radialGradient id="leaf10" cx="50%" cy="50%" r="70%">
      <stop offset="0%" stop-color="#4ECDC4"/>
      <stop offset="50%" stop-color="#00CED1"/>
      <stop offset="100%" stop-color="#FF69B4"/>
    </radialGradient>
    <radialGradient id="leaf11" cx="50%" cy="50%" r="70%">
      <stop offset="0%" stop-color="#FF4500"/>
      <stop offset="50%" stop-color="#DC143C"/>
      <stop offset="100%" stop-color="#96E6A1"/>
    </radialGradient>
    <radialGradient id="leaf12" cx="50%" cy="50%" r="70%">
      <stop offset="0%" stop-color="#32CD32"/>
      <stop offset="50%" stop-color="#9370DB"/>
      <stop offset="100%" stop-color="#FF69B4"/>
    </radialGradient>
    <radialGradient id="leaf13" cx="50%" cy="50%" r="70%">
      <stop offset="0%" stop-color="#7B68EE"/>
      <stop offset="50%" stop-color="#32CD32"/>
      <stop offset="100%" stop-color="#00FA9A"/>
    </radialGradient>
    <radialGradient id="leaf14" cx="50%" cy="50%" r="70%">
      <stop offset="0%" stop-color="#FF1493"/>
      <stop offset="50%" stop-color="#DC143C"/>
      <stop offset="100%" stop-color="#96E6A1"/>
    </radialGradient>
    <radialGradient id="leaf15" cx="50%" cy="50%" r="70%">
      <stop offset="0%" stop-color="#FFE66D"/>
      <stop offset="50%" stop-color="#FF6B6B"/>
      <stop offset="100%" stop-color="#00CED1"/>
    </radialGradient>
    <radialGradient id="leaf16" cx="50%" cy="50%" r="70%">
      <stop offset="0%" stop-color="#32CD32"/>
      <stop offset="50%" stop-color="#FF69B4"/>
      <stop offset="100%" stop-color="#45B7D1"/>
    </radialGradient>
    <radialGradient id="leaf17" cx="50%" cy="50%" r="70%">
      <stop offset="0%" stop-color="#96E6A1"/>
      <stop offset="50%" stop-color="#9370DB"/>
      <stop offset="100%" stop-color="#FFD700"/>
    </radialGradient>
    <radialGradient id="leaf18" cx="50%" cy="50%" r="70%">
      <stop offset="0%" stop-color="#DC143C"/>
      <stop offset="50%" stop-color="#FF69B4"/>
      <stop offset="100%" stop-color="#96E6A1"/>
    </radialGradient>
    <radialGradient id="leaf19" cx="50%" cy="50%" r="70%">
      <stop offset="0%" stop-color="#00CED1"/>
      <stop offset="50%" stop-color="#45B7D1"/>
      <stop offset="100%" stop-color="#FF4500"/>
    </radialGradient>
    <radialGradient id="leaf20" cx="50%" cy="50%" r="70%">
      <stop offset="0%" stop-color="#32CD32"/>
      <stop offset="50%" stop-color="#FFE66D"/>
      <stop offset="100%" stop-color="#FF1493"/>
    </radialGradient>
    <radialGradient id="leaf21" cx="50%" cy="50%" r="70%">
      <stop offset="0%" stop-color="#DC143C"/>
      <stop offset="50%" stop-color="#96E6A1"/>
      <stop offset="100%" stop-color="#FF4500"/>
    </radialGradient>
    <radialGradient id="leaf22" cx="50%" cy="50%" r="70%">
      <stop offset="0%" stop-color="#9370DB"/>
      <stop offset="50%" stop-color="#00FA9A"/>
      <stop offset="100%" stop-color="#FF1493"/>
    </radialGradient>
    <radialGradient id="leaf23" cx="50%" cy="50%" r="70%">
      <stop offset="0%" stop-color="#45B7D1"/>
      <stop offset="50%" stop-color="#FF1493"/>
      <stop offset="100%" stop-color="#00CED1"/>
    </radialGradient>
    <radialGradient id="leaf24" cx="50%" cy="50%" r="70%">
      <stop offset="0%" stop-color="#FFD700"/>
      <stop offset="50%" stop-color="#45B7D1"/>
      <stop offset="100%" stop-color="#32CD32"/>
    </radialGradient>
    <radialGradient id="leaf25" cx="50%" cy="50%" r="70%">
      <stop offset="0%" stop-color="#FFD700"/>
      <stop offset="50%" stop-color="#96E6A1"/>
      <stop offset="100%" stop-color="#4ECDC4"/>
    </radialGradient>
    <radialGradient id="leaf26" cx="50%" cy="50%" r="70%">
      <stop offset="0%" stop-color="#00FA9A"/>
      <stop offset="50%" stop-color="#FF69B4"/>
      <stop offset="100%" stop-color="#FF1493"/>
    </radialGradient>
    <radialGradient id="leaf27" cx="50%" cy="50%" r="70%">
      <stop offset="0%" stop-color="#00FA9A"/>
      <stop offset="50%" stop-color="#FFD700"/>
      <stop offset="100%" stop-color="#FF4500"/>
    </radialGradient>
    <radialGradient id="leaf28" cx="50%" cy="50%" r="70%">
      <stop offset="0%" stop-color="#96E6A1"/>
      <stop offset="50%" stop-color="#4ECDC4"/>
      <stop offset="100%" stop-color="#FFE66D"/>
    </radialGradient>
    <radialGradient id="leaf29" cx="50%" cy="50%" r="70%">
      <stop offset="0%" stop-color="#45B7D1"/>
      <stop offset="50%" stop-color="#4ECDC4"/>
      <stop offset="100%" stop-color="#FFD700"/>
    </radialGradient>
  </defs>

  <!-- Scaled content -->
  <g transform="translate(960.0,540.0) scale(3.0) translate(-960.0,-540.0)">
    <!-- Background -->
    <rect width="1920" height="1080" fill="url(#bgGrad)"/>
    
    <!-- Leaves with clip-path -->
    <g clip-path="url(#complexClip)">
    <path d="M 1251.5144717555158,256.02968155467113 C 1277.4056837768937,277.60569157248614 1286.0360877840199,307.81210559742715 1251.5144717555158,342.33372162593116 C 1216.9928557270118,307.81210559742715 1225.623259734138,277.60569157248614 1251.5144717555158,256.02968155467113 Z" fill="url(#leaf0)" opacity="0.20" transform="rotate(333.9 1251.5 299.2)"/>
    <path d="M 356.8834420727,803.885797065052 C 379.09540956941265,822.3957699789792 386.4993987349835,848.3097320584773 356.8834420727,877.9256887207607 C 327.2674854104165,848.3097320584773 334.67147457598736,822.3957699789792 356.8834420727,803.885797065052 Z" fill="url(#leaf1)" opacity="0.16" transform="rotate(251.1 356.9 840.9)"/>
    <path d="M 920.7176797357646,446.5773649804736 C 954.9498267226811,475.10415413623736 966.3605423849866,515.0416589543065 920.7176797357646,560.6845216035285 C 875.0748170865426,515.0416589543065 886.4855327488481,475.10415413623736 920.7176797357646,446.5773649804736 Z" fill="url(#leaf2)" opacity="0.24" transform="rotate(103.5 920.7 503.6)"/>
    <path d="M 893.4146548683242,926.1532517235245 C 918.4276890997695,946.9974469163956 926.765367176918,976.1793201864151 893.4146548683242,1009.5300324950089 C 860.0639425597304,976.1793201864151 868.4016206368789,946.9974469163956 893.4146548683242,926.1532517235245 Z" fill="url(#leaf3)" opacity="0.17" transform="rotate(82.4 893.4 967.8)"/>
    <path d="M 382.0631032423618,482.6584096671533 C 424.85762200002495,518.3205086318726 439.1224615859127,568.2474471824795 382.0631032423618,625.3068055260303 C 325.00374489881096,568.2474471824795 339.2685844846987,518.3205086318726 382.0631032423618,482.6584096671533 Z" fill="url(#leaf4)" opacity="0.21" transform="rotate(309.3 382.1 554.0)"/>
    <path d="M 1728.974537151586,826.1952615338141 C 1754.0073654658186,847.0559517956746 1762.3516415705626,876.2609181622792 1728.974537151586,909.6380225812559 C 1695.5974327326094,876.2609181622792 1703.9417088373534,847.0559517956746 1728.974537151586,826.1952615338141 Z" fill="url(#leaf5)" opacity="0.15" transform="rotate(344.5 1729.0 867.9)"/>
    <path d="M 997.8481308073038,448.24363329909886 C 1024.1303163190519,470.14545455888884 1032.8910448229678,500.8080043225948 997.8481308073038,535.8509183382588 C 962.8052167916399,500.8080043225948 971.5659452955558,470.14545455888884 997.8481308073038,448.24363329909886 Z" fill="url(#leaf6)" opacity="0.21" transform="rotate(299.5 997.8 492.0)"/>
    <path d="M 1599.202474317864,846.4538651508766 C 1638.4220099619456,879.1368115209447 1651.4951885099729,924.89293643904 1599.202474317864,977.1856506311489 C 1546.9097601257552,924.89293643904 1559.9829386737824,879.1368115209447 1599.202474317864,846.4538651508766 Z" fill="url(#leaf7)" opacity="0.20" transform="rotate(167.9 1599.2 911.8)"/>
    <path d="M 1562.2777659559843,145.67001635687603 C 1588.7723875986226,167.74886772574132 1597.6039281461688,198.65925964215268 1562.2777659559843,233.98542183233712 C 1526.9516037657997,198.65925964215268 1535.783144313346,167.74886772574132 1562.2777659559843,145.67001635687603 Z" fill="url(#leaf8)" opacity="0.24" transform="rotate(120.5 1562.3 189.8)"/>
    <path d="M 771.7401347189391,170.22948923347673 C 795.6465862167706,190.15153214833632 803.6154033827144,218.0423922291397 771.7401347189391,249.91766089291502 C 739.8648660551638,218.0423922291397 747.8336832211075,190.15153214833632 771.7401347189391,170.22948923347673 Z" fill="url(#leaf9)" opacity="0.25" transform="rotate(83.0 771.7 210.1)"/>
    <path d="M 1302.8072851519864,485.3336742882302 C 1345.073092085776,520.5551800663882 1359.1616943970391,569.8652881558094 1302.8072851519864,626.2196974008621 C 1246.4528759069337,569.8652881558094 1260.541478218197,520.5551800663882 1302.8072851519864,485.3336742882302 Z" fill="url(#leaf10)" opacity="0.16" transform="rotate(168.7 1302.8 555.8)"/>
    <path d="M 907.9260824758986,916.3689676658007 C 947.3340585986293,949.2089477680763 960.4700506395396,995.1849199112621 907.9260824758986,1047.7288880749031 C 855.3821143122576,995.1849199112621 868.5181063531679,949.2089477680763 907.9260824758986,916.3689676658007 Z" fill="url(#leaf11)" opacity="0.16" transform="rotate(228.6 907.9 982.0)"/>
    <path d="M 1137.6322194818683,448.6439692242823 C 1178.0620153700718,482.3354657977851 1191.5386139994728,529.503561000689 1137.6322194818683,583.4099555182936 C 1083.725824964264,529.503561000689 1097.202423593665,482.3354657977851 1137.6322194818683,448.6439692242823 Z" fill="url(#leaf12)" opacity="0.22" transform="rotate(52.6 1137.6 516.0)"/>
    <path d="M 606.3413507929346,812.7198340197313 C 645.6035289876801,845.4383158486859 658.690921719262,891.2441904092224 606.3413507929346,943.5937613355497 C 553.9917798666072,891.2441904092224 567.0791725981891,845.4383158486859 606.3413507929346,812.7198340197313 Z" fill="url(#leaf13)" opacity="0.18" transform="rotate(297.1 606.3 878.2)"/>
    <path d="M 155.12916414393442,628.801919736902 C 181.06635860546882,650.4162484548474 189.71209009264697,680.6763086599709 155.12916414393442,715.2592346086834 C 120.54623819522186,680.6763086599709 129.1919696824,650.4162484548474 155.12916414393442,628.801919736902 Z" fill="url(#leaf14)" opacity="0.15" transform="rotate(68.5 155.1 672.0)"/>
    <path d="M 576.8978836284997,160.29579033792686 C 605.3616390869398,184.01558655329364 614.8495575730866,217.22330125480715 576.8978836284997,255.174975199394 C 538.9462096839128,217.22330125480715 548.4341281700596,184.01558655329364 576.8978836284997,160.29579033792686 Z" fill="url(#leaf15)" opacity="0.19" transform="rotate(193.3 576.9 207.7)"/>
    <path d="M 798.5528156147702,364.6189811063416 C 833.3304796749593,393.6003678231658 844.9230343616889,434.1743092267197 798.5528156147702,480.5445279736384 C 752.1825968678515,434.1743092267197 763.7751515545812,393.6003678231658 798.5528156147702,364.6189811063416 Z" fill="url(#leaf16)" opacity="0.22" transform="rotate(182.2 798.6 422.6)"/>
    <path d="M 1443.6297563900705,941.3522317265191 C 1464.0134504980535,958.3386434831716 1470.8080152007146,982.1196199424852 1443.6297563900705,1009.2978787531293 C 1416.4514975794264,982.1196199424852 1423.2460622820875,958.3386434831716 1443.6297563900705,941.3522317265191 Z" fill="url(#leaf17)" opacity="0.19" transform="rotate(299.3 1443.6 975.3)"/>
    <path d="M 1484.4829508296111,646.7402979680728 C 1506.6422263738248,665.2063609215841 1514.028651555229,691.0588490564999 1484.4829508296111,720.6045497821178 C 1454.9372501039932,691.0588490564999 1462.3236752853975,665.2063609215841 1484.4829508296111,646.7402979680728 Z" fill="url(#leaf18)" opacity="0.24" transform="rotate(8.2 1484.5 683.7)"/>
    <path d="M 1176.3703414615388,42.55333871142999 C 1219.1575071284565,78.20931010052797 1233.4198956840955,128.12767004526518 1176.3703414615388,185.17722426782194 C 1119.3207872389821,128.12767004526518 1133.5831757946212,78.20931010052797 1176.3703414615388,42.55333871142999 Z" fill="url(#leaf19)" opacity="0.17" transform="rotate(281.2 1176.4 113.9)"/>
    <path d="M 1621.1538665052374,732.2452357053298 C 1643.6558411449998,750.9968812384653 1651.156499358254,777.2491849848549 1621.1538665052374,807.2518178378716 C 1591.1512336522208,777.2491849848549 1598.651891865475,750.9968812384653 1621.1538665052374,732.2452357053298 Z" fill="url(#leaf20)" opacity="0.24" transform="rotate(131.1 1621.2 769.7)"/>
    <path d="M 1433.7086279978432,147.88307662909895 C 1477.040668559835,183.99311043075872 1491.484682080499,234.5471577530824 1433.7086279978432,292.323211835738 C 1375.9325739151875,234.5471577530824 1390.3765874358514,183.99311043075872 1433.7086279978432,147.88307662909895 Z" fill="url(#leaf21)" opacity="0.17" transform="rotate(11.6 1433.7 220.1)"/>
    <path d="M 773.0147579186112,439.70442287686444 C 799.7365037877279,461.97254443446167 808.6437524107668,493.1479146150979 773.0147579186112,528.7769091072535 C 737.3857634264556,493.1479146150979 746.2930120494945,461.97254443446167 773.0147579186112,439.70442287686444 Z" fill="url(#leaf22)" opacity="0.23" transform="rotate(178.6 773.0 484.2)"/>
    <path d="M 57.431420166400315,93.6340509606161 C 90.78844027025286,121.43156771382655 101.90744697153706,160.3480911683212 57.431420166400315,204.82411797345793 C 12.955393361263575,160.3480911683212 24.074400062547767,121.43156771382655 57.431420166400315,93.6340509606161 Z" fill="url(#leaf23)" opacity="0.16" transform="rotate(286.7 57.4 149.2)"/>
    <path d="M 60.87039451131233,10.833684492861536 C 92.9209014140965,37.54244024518168 103.60440371502456,74.93469829842988 60.87039451131233,117.66870750214211 C 18.136385307600094,74.93469829842988 28.819887608528155,37.54244024518168 60.87039451131233,10.833684492861536 Z" fill="url(#leaf24)" opacity="0.21" transform="rotate(306.2 60.9 64.3)"/>
    <path d="M 1300.4411524532068,885.6391295848833 C 1326.0297626888994,906.9629714479604 1334.5592994341303,936.8163500562684 1300.4411524532068,970.9344970371918 C 1266.3230054722833,936.8163500562684 1274.8525422175142,906.9629714479604 1300.4411524532068,885.6391295848833 Z" fill="url(#leaf25)" opacity="0.21" transform="rotate(270.4 1300.4 928.3)"/>
    <path d="M 134.7293873905436,867.763229859795 C 168.7553701528281,896.1182154950321 180.09736440692294,935.8151953843641 134.7293873905436,981.1831724007434 C 89.36141037416425,935.8151953843641 100.70340462825908,896.1182154950321 134.7293873905436,867.763229859795 Z" fill="url(#leaf26)" opacity="0.23" transform="rotate(229.7 134.7 924.5)"/>
    <path d="M 697.1555361822882,223.7939386540005 C 732.4195896784156,253.18064990077335 744.1742741771247,294.32204564625533 697.1555361822882,341.3407836410919 C 650.1367981874516,294.32204564625533 661.8914826861608,253.18064990077335 697.1555361822882,223.7939386540005 Z" fill="url(#leaf27)" opacity="0.17" transform="rotate(330.0 697.2 282.6)"/>
    <path d="M 1715.4256916502222,737.4448348985832 C 1763.252152406766,777.3002188623697 1779.1943059922808,833.0977564116707 1715.4256916502222,896.8663707537291 C 1651.6570773081637,833.0977564116707 1667.5992308936784,777.3002188623697 1715.4256916502222,737.4448348985832 Z" fill="url(#leaf28)" opacity="0.15" transform="rotate(67.7 1715.4 817.2)"/>
    <path d="M 637.981213793135,945.7532632430122 C 678.0223915473578,979.1209113715312 691.3694507987653,1025.8356187514576 637.981213793135,1079.223855757088 C 584.5929767875047,1025.8356187514576 597.9400360389122,979.1209113715312 637.981213793135,945.7532632430122 Z" fill="url(#leaf29)" opacity="0.19" transform="rotate(201.9 638.0 1012.5)"/>
    <path d="M 188.10488442265242,42.15621825996847 C 214.56313534809686,64.20476069783882 223.382552323245,95.07272011085733 188.10488442265242,130.35038801144992 C 152.82721652205984,95.07272011085733 161.64663349720797,64.20476069783882 188.10488442265242,42.15621825996847 Z" fill="url(#leaf0)" opacity="0.15" transform="rotate(219.3 188.1 86.3)"/>
    <path d="M 1275.6582209090013,110.07193894734222 C 1307.601593495203,136.69141610251023 1318.2493843572702,173.95868411974544 1275.6582209090013,216.54984756801423 C 1233.0670574607325,173.95868411974544 1243.7148483227998,136.69141610251023 1275.6582209090013,110.07193894734222 Z" fill="url(#leaf1)" opacity="0.18" transform="rotate(272.6 1275.7 163.3)"/>
    <path d="M 963.0626870138818,707.0335239792646 C 994.3364108657593,733.0949605224957 1004.7609854830516,769.5809716830194 963.0626870138818,811.2792701521892 C 921.364388544712,769.5809716830194 931.7889631620044,733.0949605224957 963.0626870138818,707.0335239792646 Z" fill="url(#leaf2)" opacity="0.21" transform="rotate(344.8 963.1 759.2)"/>
    <path d="M 1640.1315641827036,177.1404757937481 C 1668.887045970609,201.10337728366923 1678.4722065665774,234.65143936955883 1640.1315641827036,272.99208175343267 C 1601.79092179883,234.65143936955883 1611.3760823947982,201.10337728366923 1640.1315641827036,177.1404757937481 Z" fill="url(#leaf3)" opacity="0.21" transform="rotate(313.4 1640.1 225.1)"/>
    <path d="M 672.8898297669948,86.49992237933778 C 702.6205522298005,111.2755244316759 712.5307930507358,145.96136730494928 672.8898297669948,185.60233058869028 C 633.2488664832538,145.96136730494928 643.1591073041891,111.2755244316759 672.8898297669948,86.49992237933778 Z" fill="url(#leaf4)" opacity="0.19" transform="rotate(17.2 672.9 136.1)"/>
    <path d="M 860.2269781157435,42.38202235998851 C 893.6450631343686,70.23042654217613 904.7844248072437,109.21819239723881 860.2269781157435,153.775639088739 C 815.6695314242432,109.21819239723881 826.8088930971184,70.23042654217613 860.2269781157435,42.38202235998851 Z" fill="url(#leaf5)" opacity="0.19" transform="rotate(180.3 860.2 98.1)"/>
    <path d="M 213.3502774060373,494.0299315040482 C 245.94420866045428,521.191540882729 256.80885241192664,559.2177940128822 213.3502774060373,602.6763690187715 C 169.89170240014798,559.2177940128822 180.7563461516203,521.191540882729 213.3502774060373,494.0299315040482 Z" fill="url(#leaf6)" opacity="0.18" transform="rotate(2.0 213.4 548.4)"/>
    <path d="M 1264.112997835547,231.52653398877118 C 1303.443250414816,264.3017444714952 1316.5533346079055,310.18703914730895 1264.112997835547,362.6273759196675 C 1211.6726610631886,310.18703914730895 1224.782745256278,264.3017444714952 1264.112997835547,231.52653398877118 Z" fill="url(#leaf7)" opacity="0.20" transform="rotate(101.7 1264.1 297.1)"/>
    <path d="M 821.8034474593842,665.4331590870942 C 848.1425026377597,687.3823717357404 856.9221876972182,718.1112694438452 821.8034474593842,753.2300096816792 C 786.6847072215502,718.1112694438452 795.4643922810087,687.3823717357404 821.8034474593842,665.4331590870942 Z" fill="url(#leaf8)" opacity="0.18" transform="rotate(298.0 821.8 709.3)"/>
    <path d="M 1480.5583827574233,814.0976515793877 C 1504.223634033136,833.8186943091482 1512.1120511250401,861.428154130813 1480.5583827574233,892.9818224984299 C 1449.0047143898064,861.428154130813 1456.8931314817105,833.8186943091482 1480.5583827574233,814.0976515793877 Z" fill="url(#leaf9)" opacity="0.16" transform="rotate(72.3 1480.6 853.5)"/>
    <path d="M 1321.9942866091103,844.2506640486305 C 1341.2678685959215,860.3119823709732 1347.6923959248586,882.7978280222529 1321.9942866091103,908.4959373380012 C 1296.296177293362,882.7978280222529 1302.720704622299,860.3119823709732 1321.9942866091103,844.2506640486305 Z" fill="url(#leaf10)" opacity="0.18" transform="rotate(206.3 1322.0 876.4)"/>
    <path d="M 833.0355740347399,410.56225867953776 C 851.632221399478,426.05946481681957 857.8311038543907,447.75555340901406 833.0355740347399,472.5510832286649 C 808.240044215089,447.75555340901406 814.4389266700017,426.05946481681957 833.0355740347399,410.56225867953776 Z" fill="url(#leaf11)" opacity="0.17" transform="rotate(30.4 833.0 441.6)"/>
    <path d="M 877.217360594793,146.22014399895485 C 924.0312256277161,185.2316981930574 939.6358473053572,239.84787406480103 877.217360594793,302.2663607753651 C 814.7988738842289,239.84787406480103 830.4034955618699,185.2316981930574 877.217360594793,146.22014399895485 Z" fill="url(#leaf12)" opacity="0.18" transform="rotate(196.4 877.2 224.2)"/>
    <path d="M 266.63896559119735,511.5072190523903 C 300.2323600717184,539.5017144528246 311.43015823189205,578.6940080134324 266.63896559119735,623.4852006541271 C 221.84777295050262,578.6940080134324 233.0455711106763,539.5017144528246 266.63896559119735,511.5072190523903 Z" fill="url(#leaf13)" opacity="0.21" transform="rotate(298.3 266.6 567.5)"/>
    <path d="M 334.96117466073525,18.19656720300094 C 374.8371992560546,51.42658769910037 388.12920745449435,97.94861639363957 334.96117466073525,151.11664918739865 C 281.79314186697616,97.94861639363957 295.0851500654159,51.42658769910037 334.96117466073525,18.19656720300094 Z" fill="url(#leaf14)" opacity="0.19" transform="rotate(73.5 335.0 84.7)"/>
    <path d="M 401.95217448012454,834.6161121125313 C 439.188179879576,865.6461166120741 451.6001816793932,909.0881229114342 401.95217448012454,958.7361301107028 C 352.3041672808559,909.0881229114342 364.71616908067307,865.6461166120741 401.95217448012454,834.6161121125313 Z" fill="url(#leaf15)" opacity="0.19" transform="rotate(259.0 402.0 896.7)"/>
    <path d="M 1105.6762742874348,76.53875005556272 C 1138.3453887918215,103.76301214255156 1149.235093626617,141.87697906433596 1105.6762742874348,185.4357984035181 C 1062.1174549482525,141.87697906433596 1073.007159783048,103.76301214255156 1105.6762742874348,76.53875005556272 Z" fill="url(#leaf16)" opacity="0.17" transform="rotate(65.4 1105.7 131.0)"/>
    <path d="M 1219.8475909674548,763.8538824751697 C 1260.7477007054747,797.937307256853 1274.381070618148,845.6541019512096 1219.8475909674548,900.1875816019028 C 1165.3141113167617,845.6541019512096 1178.947481229435,797.937307256853 1219.8475909674548,763.8538824751697 Z" fill="url(#leaf17)" opacity="0.18" transform="rotate(292.3 1219.8 832.0)"/>
    <path d="M 1563.6557463884724,949.0272517905079 C 1584.7797043388573,966.6305500824952 1591.8210236556522,991.2751676912775 1563.6557463884724,1019.4404449584573 C 1535.4904691212926,991.2751676912775 1542.5317884380875,966.6305500824952 1563.6557463884724,949.0272517905079 Z" fill="url(#leaf18)" opacity="0.25" transform="rotate(209.8 1563.7 984.2)"/>
    <path d="M 312.72909381192545,137.62762796923272 C 341.3810057621344,161.50422126107352 350.9316430788707,194.93145186965066 312.72909381192545,233.13400113659594 C 274.5265445449802,194.93145186965066 284.0771818617165,161.50422126107352 312.72909381192545,137.62762796923272 Z" fill="url(#leaf19)" opacity="0.19" transform="rotate(86.6 312.7 185.4)"/>
    <path d="M 195.76032492492456,378.11399548261227 C 223.8478284489127,401.520248419269 233.21032962357543,434.28900253058856 195.76032492492456,471.7390072292394 C 158.3103202262737,434.28900253058856 167.6728214009364,401.520248419269 195.76032492492456,378.11399548261227 Z" fill="url(#leaf20)" opacity="0.15" transform="rotate(269.4 195.8 424.9)"/>
    <path d="M 485.68817634889604,111.26828415055104 C 522.0874751562474,141.60103315667718 534.2205747586979,184.06688176525375 485.68817634889604,232.59928017505558 C 437.1557779390942,184.06688176525375 449.28887754154465,141.60103315667718 485.68817634889604,111.26828415055104 Z" fill="url(#leaf21)" opacity="0.21" transform="rotate(275.1 485.7 171.9)"/>
    <path d="M 554.5541849260744,407.97648706394307 C 594.9270904506201,441.62057500106454 608.3847256254687,488.7222981130345 554.5541849260744,542.5528388124288 C 500.7236442266801,488.7222981130345 514.1812794015287,441.62057500106454 554.5541849260744,407.97648706394307 Z" fill="url(#leaf22)" opacity="0.17" transform="rotate(225.5 554.6 475.3)"/>
    <path d="M 1206.85812355177,630.8920746702462 C 1248.9451707569733,665.9646140079155 1262.974186492041,715.0661690806528 1206.85812355177,771.1822320209238 C 1150.7420606114988,715.0661690806528 1164.7710763465666,665.9646140079155 1206.85812355177,630.8920746702462 Z" fill="url(#leaf23)" opacity="0.21" transform="rotate(349.7 1206.9 701.0)"/>
    <path d="M 1770.6161108751603,516.0187216341164 C 1798.340284155075,539.1221993673788 1807.58167524838,571.467068193946 1770.6161108751603,608.4326325671657 C 1733.6505465019407,571.467068193946 1742.8919375952455,539.1221993673788 1770.6161108751603,516.0187216341164 Z" fill="url(#leaf24)" opacity="0.23" transform="rotate(78.4 1770.6 562.2)"/>
    <path d="M 281.5461175599768,391.1528651707877 C 303.8950270280814,409.7769563942083 311.34466351744965,435.85068410699705 281.5461175599768,465.6492300644699 C 251.7475716025039,435.85068410699705 259.19720809187214,409.7769563942083 281.5461175599768,391.1528651707877 Z" fill="url(#leaf25)" opacity="0.21" transform="rotate(133.6 281.5 428.4)"/>
    <path d="M 826.4474103013232,605.9099446943378 C 846.11778868974,622.3019266846851 852.6745814858789,645.2507014711713 826.4474103013232,671.477872655727 C 800.2202391167675,645.2507014711713 806.7770319129064,622.3019266846851 826.4474103013232,605.9099446943378 Z" fill="url(#leaf26)" opacity="0.24" transform="rotate(130.2 826.4 638.7)"/>
    <path d="M 1297.3246083898678,152.8542048649162 C 1322.478149811529,173.8154893829672 1330.8626636187494,203.1612877082386 1297.3246083898678,236.6993429371202 C 1263.7865531609862,203.1612877082386 1272.1710669682066,173.8154893829672 1297.3246083898678,152.8542048649162 Z" fill="url(#leaf27)" opacity="0.17" transform="rotate(182.9 1297.3 194.8)"/>
    <path d="M 527.2695738707005,172.1067290757055 C 563.6590820673644,202.43131923959206 575.788918132919,244.88574546903322 527.2695738707005,293.4050897312517 C 478.75022960848196,244.88574546903322 490.8800656740366,202.43131923959206 527.2695738707005,172.1067290757055 Z" fill="url(#leaf28)" opacity="0.15" transform="rotate(231.3 527.3 232.8)"/>
    <path d="M 1315.9212052704531,777.7580597778622 C 1352.5279824928457,808.2637074631893 1364.7302415669765,850.9716142226473 1315.9212052704531,899.7806505191706 C 1267.1121689739298,850.9716142226473 1279.3144280480606,808.2637074631893 1315.9212052704531,777.7580597778622 Z" fill="url(#leaf29)" opacity="0.20" transform="rotate(162.1 1315.9 838.8)"/>
    <path d="M 948.9162812499212,845.1845349767175 C 994.8530204710057,883.4651509942879 1010.1652668780339,937.0580134188865 948.9162812499212,998.3069990469992 C 887.6672956218085,937.0580134188865 902.9795420288367,883.4651509942879 948.9162812499212,845.1845349767175 Z" fill="url(#leaf0)" opacity="0.22" transform="rotate(2.5 948.9 921.7)"/>
    <path d="M 641.8428457009477,400.76950834208026 C 682.6849991571771,434.80463622227137 696.2990503092535,482.453815254539 641.8428457009477,536.9100198628448 C 587.3866410926419,482.453815254539 601.0006922447183,434.80463622227137 641.8428457009477,400.76950834208026 Z" fill="url(#leaf1)" opacity="0.20" transform="rotate(179.4 641.8 468.8)"/>
    <path d="M 703.2426399704448,585.886367278615 C 744.8226384369578,620.5363660007093 758.6826379257956,669.0463642116413 703.2426399704448,724.4863621669921 C 647.802642015094,669.0463642116413 661.6626415039317,620.5363660007093 703.2426399704448,585.886367278615 Z" fill="url(#leaf2)" opacity="0.17" transform="rotate(281.5 703.2 655.2)"/>
    <path d="M 1665.4088652065996,914.1783955610716 C 1684.418444826152,930.0197119106986 1690.7549713660026,952.1975548001762 1665.4088652065996,977.5436609595794 C 1640.0627590471966,952.1975548001762 1646.3992855870472,930.0197119106986 1665.4088652065996,914.1783955610716 Z" fill="url(#leaf3)" opacity="0.15" transform="rotate(57.5 1665.4 945.9)"/>
    <path d="M 1472.8706651596606,511.91255262978746 C 1503.3524436425714,537.3140346988797 1513.5130364702084,572.876109595609 1472.8706651596606,613.5184809061567 C 1432.2282938491128,572.876109595609 1442.3888866767497,537.3140346988797 1472.8706651596606,511.91255262978746 Z" fill="url(#leaf4)" opacity="0.15" transform="rotate(244.3 1472.9 562.7)"/>
    <path d="M 965.7969198746779,408.2498697892987 C 1000.6098657747616,437.26065803936854 1012.2141810747896,477.87576158946626 965.7969198746779,524.293022789578 C 919.3796586745661,477.87576158946626 930.9839739745942,437.26065803936854 965.7969198746779,408.2498697892987 Z" fill="url(#leaf5)" opacity="0.20" transform="rotate(127.0 965.8 466.3)"/>
    <path d="M 454.00626846492713,340.8141752118133 C 501.99896674692235,380.8080904468093 517.9965328409207,436.7995717758037 454.00626846492713,500.7898361517974 C 390.01600408893347,436.7995717758037 406.0135701829319,380.8080904468093 454.00626846492713,340.8141752118133 Z" fill="url(#leaf6)" opacity="0.15" transform="rotate(187.1 454.0 420.8)"/>
    <path d="M 1670.8501230064248,260.92864919734194 C 1690.9547040095588,277.68246669995347 1697.6562310106033,301.13781120360966 1670.8501230064248,327.94391920778816 C 1644.0440150022464,301.13781120360966 1650.745542003291,277.68246669995347 1670.8501230064248,260.92864919734194 Z" fill="url(#leaf7)" opacity="0.24" transform="rotate(122.3 1670.9 294.4)"/>
    <path d="M 1670.6701586645993,168.3281001549522 C 1709.9323072218592,201.04655728600213 1723.0196900742792,246.85239726947202 1670.6701586645993,299.2019286791519 C 1618.3206272549194,246.85239726947202 1631.4080101073394,201.04655728600213 1670.6701586645993,168.3281001549522 Z" fill="url(#leaf8)" opacity="0.23" transform="rotate(274.5 1670.7 233.8)"/>
    <path d="M 816.175635085724,897.679460819272 C 857.7649386026898,932.3372137500768 871.6280397750116,980.8580678532035 816.175635085724,1036.3104725424912 C 760.7232303964364,980.8580678532035 774.5863315687583,932.3372137500768 816.175635085724,897.679460819272 Z" fill="url(#leaf9)" opacity="0.21" transform="rotate(153.5 816.2 967.0)"/>
    <path d="M 176.97172006367592,786.646255414531 C 207.77559788258802,812.3161535969577 218.04355715555872,848.2540110523553 176.97172006367592,889.3258481442381 C 135.89988297179312,848.2540110523553 146.16784224476382,812.3161535969577 176.97172006367592,786.646255414531 Z" fill="url(#leaf10)" opacity="0.20" transform="rotate(339.7 177.0 838.0)"/>
    <path d="M 880.9535288779751,261.42906267831785 C 910.6382613343092,286.1663397252629 920.5331721530872,320.7985275909859 880.9535288779751,360.37817086609795 C 841.3738856028631,320.7985275909859 851.2687964216411,286.1663397252629 880.9535288779751,261.42906267831785 Z" fill="url(#leaf11)" opacity="0.21" transform="rotate(39.7 881.0 310.9)"/>
    <path d="M 428.95602716764665,490.9689697296256 C 464.9576930772808,520.9703579876541 476.9582483804922,562.9723015488939 428.95602716764665,610.9745227617394 C 380.9538059548011,562.9723015488939 392.9543612580125,520.9703579876541 428.95602716764665,490.9689697296256 Z" fill="url(#leaf12)" opacity="0.17" transform="rotate(12.6 429.0 551.0)"/>
    <path d="M 1833.5073797573712,492.5174349268251 C 1868.747668721129,521.8843423966233 1880.4944317090485,562.9980128543409 1833.5073797573712,609.9850648060182 C 1786.5203278056938,562.9980128543409 1798.2670907936133,521.8843423966233 1833.5073797573712,492.5174349268251 Z" fill="url(#leaf13)" opacity="0.22" transform="rotate(27.5 1833.5 551.3)"/>
    <path d="M 823.7467732741145,429.6699199695351 C 846.0346108526415,448.24311795164095 853.4638900454839,474.2455951265892 823.7467732741145,503.9627118979586 C 794.0296565027451,474.2455951265892 801.4589356955875,448.24311795164095 823.7467732741145,429.6699199695351 Z" fill="url(#leaf14)" opacity="0.17" transform="rotate(275.2 823.7 466.8)"/>
    <path d="M 1010.3818312911037,133.38664421345328 C 1045.3630368290776,162.53764882843143 1057.0234386750687,203.34905528940087 1010.3818312911037,249.99066267336593 C 963.7402239071387,203.34905528940087 975.4006257531299,162.53764882843143 1010.3818312911037,133.38664421345328 Z" fill="url(#leaf15)" opacity="0.24" transform="rotate(136.0 1010.4 191.7)"/>
    <path d="M 1387.7753760813437,550.4905681471416 C 1429.579354593794,585.327216907517 1443.5140140979443,634.0985251720426 1387.7753760813437,689.8371631886432 C 1332.036738064743,634.0985251720426 1345.9713975688933,585.327216907517 1387.7753760813437,550.4905681471416 Z" fill="url(#leaf16)" opacity="0.19" transform="rotate(195.3 1387.8 620.2)"/>
    <path d="M 970.1908073308368,258.25273879369223 C 1003.087335255014,285.6665120638398 1014.052844563073,324.0457946420464 970.1908073308368,367.9078318742825 C 926.3287700986007,324.0457946420464 937.2942794066597,285.6665120638398 970.1908073308368,258.25273879369223 Z" fill="url(#leaf17)" opacity="0.16" transform="rotate(49.6 970.2 313.1)"/>
    <path d="M 1092.1365271807913,724.0290385936732 C 1126.1284583831787,752.3556479289961 1137.4591021173078,792.0129009984479 1092.1365271807913,837.3354759349643 C 1046.8139522442748,792.0129009984479 1058.144595978404,752.3556479289961 1092.1365271807913,724.0290385936732 Z" fill="url(#leaf18)" opacity="0.22" transform="rotate(159.8 1092.1 780.7)"/>
    <path d="M 690.5623364618064,497.04440076298283 C 710.3452472025524,513.5301597136046 716.9395507828011,536.610222244475 690.5623364618064,562.9874365654698 C 664.1851221408116,536.610222244475 670.7794257210603,513.5301597136046 690.5623364618064,497.04440076298283 Z" fill="url(#leaf19)" opacity="0.15" transform="rotate(261.7 690.6 530.0)"/>
    <path d="M 101.24072925139063,628.7489578953662 C 137.981847940144,659.3665568026606 150.2288875030618,702.2311952728728 101.24072925139063,751.219353524544 C 52.252570999719474,702.2311952728728 64.49961056263726,659.3665568026606 101.24072925139063,628.7489578953662 Z" fill="url(#leaf20)" opacity="0.16" transform="rotate(95.5 101.2 690.0)"/>
    <path d="M 1118.5774133293758,256.8830745501272 C 1142.9411872976946,277.18621952372615 1151.062445287134,305.61062248676467 1118.5774133293758,338.09565444452295 C 1086.0923813716174,305.61062248676467 1094.213639361057,277.18621952372615 1118.5774133293758,256.8830745501272 Z" fill="url(#leaf21)" opacity="0.21" transform="rotate(335.1 1118.6 297.5)"/>
    <path d="M 1254.7769739429193,280.2152331108401 C 1279.5983566381017,300.89971869015875 1287.872150869829,329.8579985012048 1254.7769739429193,362.95317542811466 C 1221.6817970160096,329.8579985012048 1229.955591247737,300.89971869015875 1254.7769739429193,280.2152331108401 Z" fill="url(#leaf22)" opacity="0.22" transform="rotate(235.7 1254.8 321.6)"/>
    <path d="M 53.739744923107864,788.4958162884645 C 73.28059785907425,804.7798604017698 79.79421550439639,827.5775221603973 53.739744923107864,853.6319927416857 C 27.685274341819337,827.5775221603973 34.19889198714147,804.7798604017698 53.739744923107864,788.4958162884645 Z" fill="url(#leaf23)" opacity="0.18" transform="rotate(129.9 53.7 821.1)"/>
    <path d="M 684.9472365192534,330.89354536476174 C 714.772067457875,355.7475711469464 724.713677770749,390.54320724200505 684.9472365192534,430.3096484935006 C 645.1807952677577,390.54320724200505 655.1224055806317,355.7475711469464 684.9472365192534,330.89354536476174 Z" fill="url(#leaf24)" opacity="0.23" transform="rotate(10.5 684.9 380.6)"/>
    <path d="M 897.3499328138757,663.9360447209953 C 929.7932730985655,690.9721616249033 940.6077198601287,728.8227252903746 897.3499328138757,772.0805123366275 C 854.0921457676228,728.8227252903746 864.906592529186,690.9721616249033 897.3499328138757,663.9360447209953 Z" fill="url(#leaf25)" opacity="0.22" transform="rotate(42.0 897.3 718.0)"/>
    <path d="M 341.3610311533176,634.0303321079913 C 375.4695018026453,662.4540576490978 386.8389920190879,702.2472734066469 341.3610311533176,747.7252342724172 C 295.88307028754724,702.2472734066469 307.25256050398986,662.4540576490978 341.3610311533176,634.0303321079913 Z" fill="url(#leaf26)" opacity="0.16" transform="rotate(274.3 341.4 690.9)"/>
    <path d="M 484.71382873217806,782.8055959545685 C 519.6720802094911,811.9374721856627 531.3248307019288,852.7220989091946 484.71382873217806,899.3331008789454 C 438.1028267624273,852.7220989091946 449.755577254865,811.9374721856627 484.71382873217806,782.8055959545685 Z" fill="url(#leaf27)" opacity="0.15" transform="rotate(309.3 484.7 841.1)"/>
    <path d="M 946.3875111351466,392.80224458644875 C 980.4313233019639,421.1720880587965 991.7792606909029,460.88986892008325 946.3875111351466,506.28161847583954 C 900.9957615793903,460.88986892008325 912.3436989683294,421.1720880587965 946.3875111351466,392.80224458644875 Z" fill="url(#leaf28)" opacity="0.20" transform="rotate(303.3 946.4 449.5)"/>
    <path d="M 328.3796581332597,756.6694591900601 C 356.1432648873017,779.8057981517618 365.3978004719824,812.1966726981442 328.3796581332597,849.214815036867 C 291.36151579453696,812.1966726981442 300.61605137921765,779.8057981517618 328.3796581332597,756.6694591900601 Z" fill="url(#leaf29)" opacity="0.17" transform="rotate(286.3 328.4 802.9)"/>
    <path d="M 922.5886804796901,47.953650172110144 C 957.2169249338726,76.81052055059558 968.7596730852667,117.2101390804752 922.5886804796901,163.3811316860519 C 876.4176878741134,117.2101390804752 887.9604360255075,76.81052055059558 922.5886804796901,47.953650172110144 Z" fill="url(#leaf0)" opacity="0.25" transform="rotate(0.1 922.6 105.7)"/>
    <path d="M 1394.8811513289902,306.7605238459943 C 1424.386384929299,331.3482185129184 1434.2214627960686,365.77099104661204 1394.8811513289902,405.11130251369053 C 1355.5408398619118,365.77099104661204 1365.3759177286813,331.3482185129184 1394.8811513289902,306.7605238459943 Z" fill="url(#leaf1)" opacity="0.17" transform="rotate(229.3 1394.9 355.9)"/>
    <path d="M 1787.0122988506444,959.5690156665204 C 1805.135321253428,974.6715343355067 1811.1763287210226,995.8150604720877 1787.0122988506444,1019.9790903424658 C 1762.848268980266,995.8150604720877 1768.8892764478608,974.6715343355067 1787.0122988506444,959.5690156665204 Z" fill="url(#leaf2)" opacity="0.20" transform="rotate(354.0 1787.0 989.8)"/>
    <path d="M 692.5874488340393,923.6168715450101 C 712.8251483089635,940.4816211074469 719.5710481339383,964.0922704948587 692.5874488340393,991.0758697947576 C 665.6038495341402,964.0922704948587 672.349749359115,940.4816211074469 692.5874488340393,923.6168715450101 Z" fill="url(#leaf3)" opacity="0.24" transform="rotate(329.1 692.6 957.3)"/>
    <path d="M 1190.2390006766004,756.7616324011838 C 1236.3124952243484,795.1562111909736 1251.6703267402643,848.9086214966796 1190.2390006766004,910.3399475603435 C 1128.8076746129366,848.9086214966796 1144.1655061288525,795.1562111909736 1190.2390006766004,756.7616324011838 Z" fill="url(#leaf4)" opacity="0.18" transform="rotate(210.0 1190.2 833.6)"/>
    <path d="M 323.91003471569417,816.6003621878548 C 346.716804750613,835.6060038836205 354.3190614289192,862.2139022576924 323.91003471569417,892.6229289709175 C 293.5010080024691,862.2139022576924 301.10326468077534,835.6060038836205 323.91003471569417,816.6003621878548 Z" fill="url(#leaf5)" opacity="0.18" transform="rotate(190.9 323.9 854.6)"/>
    <path d="M 933.0155058021847,862.0499432739269 C 955.601282055493,880.8714234850172 963.1298741399291,907.2214957805436 933.0155058021847,937.335864118288 C 902.9011374644404,907.2214957805436 910.4297295488765,880.8714234850172 933.0155058021847,862.0499432739269 Z" fill="url(#leaf6)" opacity="0.16" transform="rotate(235.3 933.0 899.7)"/>
    <path d="M 773.3349623141027,670.0330696496418 C 795.3403598180201,688.3709009029063 802.6754923193259,714.0438646574767 773.3349623141027,743.3843946627 C 743.9944323088794,714.0438646574767 751.3295648101852,688.3709009029063 773.3349623141027,670.0330696496418 Z" fill="url(#leaf7)" opacity="0.24" transform="rotate(38.4 773.3 706.7)"/>
    <path d="M 1603.835516684076,66.17507869069951 C 1630.4782171599395,88.3773290872523 1639.3591173185605,119.46047964242622 1603.835516684076,154.9840802769107 C 1568.3119160495917,119.46047964242622 1577.1928162082127,88.3773290872523 1603.835516684076,66.17507869069951 Z" fill="url(#leaf8)" opacity="0.16" transform="rotate(35.6 1603.8 110.6)"/>
    <path d="M 214.00854463779044,184.29709891305347 C 248.16827888958147,212.76354412287935 259.55485697351185,252.61656741663558 214.00854463779044,298.16287975235696 C 168.46223230206903,252.61656741663558 179.8488103859994,212.76354412287935 214.00854463779044,184.29709891305347 Z" fill="url(#leaf9)" opacity="0.20" transform="rotate(284.8 214.0 241.2)"/>
    <path d="M 306.9017205813585,498.93744559465085 C 339.6767563739658,526.2499754218236 350.6017683048349,564.4875171798654 306.9017205813585,608.1875649033418 C 263.20167285788216,564.4875171798654 274.1266847887512,526.2499754218236 306.9017205813585,498.93744559465085 Z" fill="url(#leaf10)" opacity="0.16" transform="rotate(272.2 306.9 553.6)"/>
    <path d="M 252.54142368010434,38.06746151336014 C 291.08859265613523,70.19010232671924 303.9376489814789,115.16179946542198 252.54142368010434,166.55802476679654 C 201.1451983787298,115.16179946542198 213.99425470407343,70.19010232671924 252.54142368010434,38.06746151336014 Z" fill="url(#leaf11)" opacity="0.19" transform="rotate(250.4 252.5 102.3)"/>
    <path d="M 1655.9591308220733,926.5568662762627 C 1680.0833929682233,946.6604180647208 1688.1248136836066,974.8053905685624 1655.9591308220733,1006.9710734300955 C 1623.79344796054,974.8053905685624 1631.8348686759234,946.6604180647208 1655.9591308220733,926.5568662762627 Z" fill="url(#leaf12)" opacity="0.17" transform="rotate(165.6 1656.0 966.8)"/>
    <path d="M 361.8062456548943,467.4564561076956 C 395.6877205013966,495.69101847978084 406.98154545023067,535.2194058007001 361.8062456548943,580.3947055960364 C 316.630945859558,535.2194058007001 327.92477080839205,495.69101847978084 361.8062456548943,467.4564561076956 Z" fill="url(#leaf13)" opacity="0.18" transform="rotate(288.9 361.8 523.9)"/>
    <path d="M 339.0218174453804,789.8118197821748 C 366.00223366750265,812.2954999672766 374.99570574154336,843.7726522264192 339.0218174453804,879.7465405225821 C 303.04792914921745,843.7726522264192 312.04140122325816,812.2954999672766 339.0218174453804,789.8118197821748 Z" fill="url(#leaf14)" opacity="0.18" transform="rotate(254.4 339.0 834.8)"/>
    <path d="M 782.2712984169901,659.4326503917569 C 804.3007022343852,677.7904869062528 811.6438368401836,703.491458026547 782.2712984169901,732.8639964497404 C 752.8987599937967,703.491458026547 760.2418945995951,677.7904869062528 782.2712984169901,659.4326503917569 Z" fill="url(#leaf15)" opacity="0.15" transform="rotate(130.9 782.3 696.1)"/>
    <path d="M 1260.817439483544,354.2655515570166 C 1279.473552942852,369.81231277310667 1285.692257429288,391.5777784756327 1260.817439483544,416.4525964213768 C 1235.9426215377998,391.5777784756327 1242.161326024236,369.81231277310667 1260.817439483544,354.2655515570166 Z" fill="url(#leaf16)" opacity="0.16" transform="rotate(246.4 1260.8 385.4)"/>
    <path d="M 157.77077294804124,924.6333597009506 C 183.61768613529648,946.1724540236632 192.23332386438156,976.327186075461 157.77077294804124,1010.7897369918013 C 123.30822203170092,976.327186075461 131.923859760786,946.1724540236632 157.77077294804124,924.6333597009506 Z" fill="url(#leaf17)" opacity="0.15" transform="rotate(140.2 157.8 967.7)"/>
    <path d="M 478.0862040971523,655.4834427859834 C 525.1154635955193,694.6744923679557 540.7918834283082,749.5419617827172 478.0862040971523,812.2476411138731 C 415.38052476599637,749.5419617827172 431.0569445987854,694.6744923679557 478.0862040971523,655.4834427859834 Z" fill="url(#leaf18)" opacity="0.21" transform="rotate(79.2 478.1 733.9)"/>
    <path d="M 1576.4360479518828,361.5840935702413 C 1594.466992604124,376.6098807804423 1600.4773074882044,397.64598287472376 1576.4360479518828,421.6872424110454 C 1552.3947884155612,397.64598287472376 1558.4051032996415,376.6098807804423 1576.4360479518828,361.5840935702413 Z" fill="url(#leaf19)" opacity="0.22" transform="rotate(216.0 1576.4 391.6)"/>
    <path d="M 598.4600300101849,758.279441700063 C 619.7150706139576,775.99197553654 626.8000841485484,800.7895229076081 598.4600300101849,829.1295770459715 C 570.1199758718215,800.7895229076081 577.2049894064123,775.99197553654 598.4600300101849,758.279441700063 Z" fill="url(#leaf20)" opacity="0.24" transform="rotate(316.9 598.5 793.7)"/>
    <path d="M 541.7414136390915,571.1849676362624 C 559.8216659022289,586.2518445222101 565.848416656608,607.345472162537 541.7414136390915,631.4524751800534 C 517.6344106215751,607.345472162537 523.6611613759542,586.2518445222101 541.7414136390915,571.1849676362624 Z" fill="url(#leaf21)" opacity="0.23" transform="rotate(58.1 541.7 601.3)"/>
    <path d="M 661.3892055876987,27.206222472158316 C 704.9240226099464,63.485236657364766 719.435628284029,114.27585651665379 661.3892055876987,172.3222792129841 C 603.3427828913684,114.27585651665379 617.854388565451,63.485236657364766 661.3892055876987,27.206222472158316 Z" fill="url(#leaf22)" opacity="0.19" transform="rotate(245.5 661.4 99.8)"/>
    <path d="M 1368.685924355731,420.05841826455566 C 1391.1754171531638,438.7996622624163 1398.671914752308,465.03740385942126 1368.685924355731,495.0233942559983 C 1338.699933959154,465.03740385942126 1346.1964315582982,438.7996622624163 1368.685924355731,420.05841826455566 Z" fill="url(#leaf23)" opacity="0.17" transform="rotate(106.9 1368.7 457.5)"/>
    <path d="M 608.604637649433,777.364272833146 C 649.3569381985473,811.3245232907411 662.9410383815853,858.8688739313744 608.604637649433,913.2052746635267 C 554.2682369172808,858.8688739313744 567.8523371003188,811.3245232907411 608.604637649433,777.364272833146 Z" fill="url(#leaf24)" opacity="0.16" transform="rotate(40.1 608.6 845.3)"/>
    <path d="M 1082.8937009896736,117.74501695797163 C 1103.0222905144863,134.5188415619822 1109.7318203560906,158.002196007597 1082.8937009896736,184.84031537401393 C 1056.0555816232566,158.002196007597 1062.7651114648609,134.5188415619822 1082.8937009896736,117.74501695797163 Z" fill="url(#leaf25)" opacity="0.16" transform="rotate(292.6 1082.9 151.3)"/>
    <path d="M 1559.3008440303654,568.9789060188269 C 1588.7240325748878,593.4982298059291 1598.5317620897288,627.825283107872 1559.3008440303654,667.0562011672354 C 1520.069925971002,627.825283107872 1529.877655485843,593.4982298059291 1559.3008440303654,568.9789060188269 Z" fill="url(#leaf26)" opacity="0.16" transform="rotate(172.2 1559.3 618.0)"/>
    <path d="M 927.1563189212677,578.8746288695501 C 949.8507371358656,597.7866440483816 957.4155432073983,624.2634652987459 927.1563189212677,654.5226895848765 C 896.8970946351371,624.2634652987459 904.4619007066698,597.7866440483816 927.1563189212677,578.8746288695501 Z" fill="url(#leaf27)" opacity="0.24" transform="rotate(171.0 927.2 616.7)"/>
    <path d="M 1400.0818801113055,467.74685654069606 C 1420.7164322658598,484.9423166694913 1427.5946163173778,509.01596084980457 1400.0818801113055,536.5286970558769 C 1372.5691439052332,509.01596084980457 1379.4473279567512,484.9423166694913 1400.0818801113055,467.74685654069606 Z" fill="url(#leaf28)" opacity="0.20" transform="rotate(104.2 1400.1 502.1)"/>
    <path d="M 1323.8929748067233,864.5812356547424 C 1350.9328544257212,887.1144686705741 1359.946147632054,918.6609948927385 1323.8929748067233,954.7141677180691 C 1287.8398019813926,918.6609948927385 1296.8530951877253,887.1144686705741 1323.8929748067233,864.5812356547424 Z" fill="url(#leaf29)" opacity="0.19" transform="rotate(341.9 1323.9 909.6)"/>
    <path d="M 669.9938163586912,521.5953919227943 C 703.9827493163546,549.919502720847 715.3123936355756,589.5732578381209 669.9938163586912,634.8918351150053 C 624.6752390818068,589.5732578381209 636.0048834010279,549.919502720847 669.9938163586912,521.5953919227943 Z" fill="url(#leaf0)" opacity="0.17" transform="rotate(21.0 670.0 578.2)"/>
    <path d="M 1459.8760387790114,204.14421778066773 C 1501.804114586875,239.08428095388734 1515.7801398561628,288.0003693963948 1459.8760387790114,343.9044704735461 C 1403.97193770186,288.0003693963948 1417.947962971148,239.08428095388734 1459.8760387790114,204.14421778066773 Z" fill="url(#leaf1)" opacity="0.16" transform="rotate(80.0 1459.9 274.0)"/>
    <path d="M 773.4272828388478,937.0296780677223 C 801.7688548749601,960.6476547644826 811.2160455536642,993.7128221399471 773.4272828388478,1031.5015848547637 C 735.6385201240313,993.7128221399471 745.0857108027354,960.6476547644826 773.4272828388478,937.0296780677223 Z" fill="url(#leaf2)" opacity="0.17" transform="rotate(41.6 773.4 984.3)"/>
    <path d="M 543.4939601604932,286.0336398132534 C 590.0546131719093,324.8341839894334 605.5748308423813,379.1549458360856 543.4939601604932,441.23581651797366 C 481.4130894786051,379.1549458360856 496.9333071490771,324.8341839894334 543.4939601604932,286.0336398132534 Z" fill="url(#leaf3)" opacity="0.25" transform="rotate(327.4 543.5 363.6)"/>
    <path d="M 155.25398690755193,157.39520245364213 C 177.96423268214386,176.32040726580206 185.53431460700781,202.81569400282598 155.25398690755193,233.09602170228186 C 124.97365920809605,202.81569400282598 132.54374113296,176.32040726580206 155.25398690755193,157.39520245364213 Z" fill="url(#leaf4)" opacity="0.22" transform="rotate(79.3 155.3 195.2)"/>
    <path d="M 495.7949296934379,344.33852510315376 C 517.7726055316392,362.6532549683215 525.0984974777062,388.29387677955634 495.7949296934379,417.59744456382475 C 466.49136190916954,388.29387677955634 473.81725385523663,362.6532549683215 495.7949296934379,344.33852510315376 Z" fill="url(#leaf5)" opacity="0.21" transform="rotate(75.0 495.8 381.0)"/>
    <path d="M 158.6316659576978,884.3811081978764 C 185.43078443721768,906.7137069308096 194.363823930391,937.9793451569161 158.6316659576978,973.7115031296092 C 122.89950798500463,937.9793451569161 131.83254747817793,906.7137069308096 158.6316659576978,884.3811081978764 Z" fill="url(#leaf6)" opacity="0.18" transform="rotate(270.9 158.6 929.0)"/>
    <path d="M 1730.6315899408087,599.3196889909697 C 1776.4918082130976,637.5365375512105 1791.778547637194,691.0401255355476 1730.6315899408087,752.1870832319329 C 1669.4846322444234,691.0401255355476 1684.7713716685198,637.5365375512105 1730.6315899408087,599.3196889909697 Z" fill="url(#leaf7)" opacity="0.18" transform="rotate(247.3 1730.6 675.8)"/>
    <path d="M 1499.8252580025696,548.4971065781692 C 1533.6969152114518,576.7234875855711 1544.9874676144127,616.2404209959337 1499.8252580025696,661.4026306077767 C 1454.6630483907265,616.2404209959337 1465.9536007936874,576.7234875855711 1499.8252580025696,548.4971065781692 Z" fill="url(#leaf8)" opacity="0.17" transform="rotate(46.3 1499.8 604.9)"/>
    <path d="M 619.6128714342492,136.68723242162213 C 640.0099507485273,153.6847985168539 646.80897718662,177.4813910501784 619.6128714342492,204.67749680254923 C 592.4167656818784,177.4813910501784 599.2157921199711,153.6847985168539 619.6128714342492,136.68723242162213 Z" fill="url(#leaf9)" opacity="0.20" transform="rotate(335.0 619.6 170.7)"/>
    <path d="M 1260.2879521217385,835.9239647870513 C 1301.9230060420089,870.6198430539433 1315.8013573487656,919.1940726275922 1260.2879521217385,974.7074778546194 C 1204.7745468947114,919.1940726275922 1218.6528982014681,870.6198430539433 1260.2879521217385,835.9239647870513 Z" fill="url(#leaf10)" opacity="0.17" transform="rotate(279.8 1260.3 905.3)"/>
    <path d="M 407.62825136827354,894.1234638760011 C 436.1140395615031,917.8616207036924 445.60930229257957,951.0950402624602 407.62825136827354,989.0760911867662 C 369.6472004439675,951.0950402624602 379.142463175044,917.8616207036924 407.62825136827354,894.1234638760011 Z" fill="url(#leaf11)" opacity="0.16" transform="rotate(104.7 407.6 941.6)"/>
    <path d="M 1729.517829386481,649.8345799586929 C 1763.7681674500573,678.3765283450064 1775.1849468045825,718.3352560858452 1729.517829386481,764.0023735039468 C 1683.8507119683795,718.3352560858452 1695.2674913229048,678.3765283450064 1729.517829386481,649.8345799586929 Z" fill="url(#leaf12)" opacity="0.17" transform="rotate(198.0 1729.5 706.9)"/>
    <path d="M 1840.5336522308576,299.3986814020861 C 1875.909440860461,328.87850526008907 1887.7013704036624,370.1502586612932 1840.5336522308576,417.3179768340979 C 1793.3659340580527,370.1502586612932 1805.1578636012541,328.87850526008907 1840.5336522308576,299.3986814020861 Z" fill="url(#leaf13)" opacity="0.18" transform="rotate(65.1 1840.5 358.4)"/>
    <path d="M 89.4125472267958,844.3858357169505 C 123.40951714711488,872.7166439838832 134.74184045388793,912.3797755575887 89.4125472267958,957.7090687846809 C 44.08325399970366,912.3797755575887 55.4155773064767,872.7166439838832 89.4125472267958,844.3858357169505 Z" fill="url(#leaf14)" opacity="0.18" transform="rotate(38.9 89.4 901.0)"/>
    <path d="M 1499.3830832862172,416.9766753753112 C 1523.0389670179609,436.68991181843086 1530.9242615952087,464.28844283879835 1499.3830832862172,495.8296211477898 C 1467.8419049772258,464.28844283879835 1475.7271995544736,436.68991181843086 1499.3830832862172,416.9766753753112 Z" fill="url(#leaf15)" opacity="0.22" transform="rotate(205.7 1499.4 456.4)"/>
    <path d="M 676.9769214406468,287.0950054669628 C 695.836015289003,302.81091700725955 702.1223799051216,324.813193163675 676.9769214406468,349.9586516281498 C 651.831462976172,324.813193163675 658.1178275922907,302.81091700725955 676.9769214406468,287.0950054669628 Z" fill="url(#leaf16)" opacity="0.22" transform="rotate(13.7 677.0 318.5)"/>
    <path d="M 1165.1775543147257,91.69961975062196 C 1201.233816295729,121.7465047347914 1213.2525702893968,163.81214371262863 1165.1775543147257,211.88715968729971 C 1117.1025383400547,163.81214371262863 1129.1212923337225,121.7465047347914 1165.1775543147257,91.69961975062196 Z" fill="url(#leaf17)" opacity="0.15" transform="rotate(113.7 1165.2 151.8)"/>
    <path d="M 680.1615433899844,817.8109311236783 C 724.0940494708987,854.4213528577735 738.7382181645366,905.6759432855067 680.1615433899844,964.2526180600589 C 621.5848686154322,905.6759432855067 636.2290373090702,854.4213528577735 680.1615433899844,817.8109311236783 Z" fill="url(#leaf18)" opacity="0.15" transform="rotate(213.0 680.2 891.0)"/>
    <path d="M 1575.6260851978755,827.6581414227614 C 1613.1291101311194,858.9106622004648 1625.630118442201,902.6641912892495 1575.6260851978755,952.6682245335749 C 1525.62205195355,902.6641912892495 1538.1230602646315,858.9106622004648 1575.6260851978755,827.6581414227614 Z" fill="url(#leaf19)" opacity="0.21" transform="rotate(63.3 1575.6 890.2)"/>
    <path d="M 811.0013096881604,822.6073460433499 C 844.1317777010742,850.2160693874448 855.175267038712,888.8682820691774 811.0013096881604,933.0422394197292 C 766.8273523376088,888.8682820691774 777.8708416752467,850.2160693874448 811.0013096881604,822.6073460433499 Z" fill="url(#leaf20)" opacity="0.21" transform="rotate(16.8 811.0 877.8)"/>
    <path d="M 1186.4230941274307,764.1772675235605 C 1215.2052584968362,788.1624044980651 1224.7993132866382,821.7415962623716 1186.4230941274307,860.1178154215789 C 1148.0468749682232,821.7415962623716 1157.640929758025,788.1624044980651 1186.4230941274307,764.1772675235605 Z" fill="url(#leaf21)" opacity="0.23" transform="rotate(346.3 1186.4 812.1)"/>
    <path d="M 1010.9323485043817,950.1003262782988 C 1045.0207801218462,978.5073526261858 1056.383590661001,1018.2771895132278 1010.9323485043817,1063.7284316698472 C 965.4811063477623,1018.2771895132278 976.8439168869172,978.5073526261858 1010.9323485043817,950.1003262782988 Z" fill="url(#leaf22)" opacity="0.17" transform="rotate(232.3 1010.9 1006.9)"/>
    <path d="M 538.3175386969738,758.0426961919914 C 579.0557538503973,791.9912088198442 592.6351589015385,839.5191264988384 538.3175386969738,893.8367467034032 C 483.99991849240905,839.5191264988384 497.57932354355023,791.9912088198442 538.3175386969738,758.0426961919914 Z" fill="url(#leaf23)" opacity="0.19" transform="rotate(265.2 538.3 825.9)"/>
    <path d="M 1247.7711891946508,387.8625833943743 C 1270.2686097376632,406.6104338468847 1277.7677499186673,432.8574244803992 1247.7711891946508,462.8539852044158 C 1217.7746284706343,432.8574244803992 1225.2737686516384,406.6104338468847 1247.7711891946508,387.8625833943743 Z" fill="url(#leaf24)" opacity="0.22" transform="rotate(331.4 1247.8 425.4)"/>
    <path d="M 133.4754393549789,415.5360553073578 C 158.36677657783898,436.2788363264078 166.66388898545898,465.31872975307795 133.4754393549789,498.507179383558 C 100.28698972449881,465.31872975307795 108.58410213211883,436.2788363264078 133.4754393549789,415.5360553073578 Z" fill="url(#leaf25)" opacity="0.16" transform="rotate(251.9 133.5 457.0)"/>
    <path d="M 1859.658695077476,51.41701707318667 C 1878.1118489625007,66.79464531070715 1884.2629002575088,88.32332484323585 1859.658695077476,112.92753002326863 C 1835.0544898974433,88.32332484323585 1841.2055411924514,66.79464531070715 1859.658695077476,51.41701707318667 Z" fill="url(#leaf26)" opacity="0.19" transform="rotate(333.9 1859.7 82.2)"/>
    <path d="M 1056.6037119383482,955.9272963968776 C 1081.9666465515497,977.0630752412122 1090.4209580892834,1006.6531656232806 1056.6037119383482,1040.470411774216 C 1022.7864657874128,1006.6531656232806 1031.2407773251466,977.0630752412122 1056.6037119383482,955.9272963968776 Z" fill="url(#leaf27)" opacity="0.25" transform="rotate(334.1 1056.6 998.2)"/>
    <path d="M 119.2588489244052,342.6700929128455 C 137.92276190286847,358.2233537282316 144.14406622902288,379.9979188697721 119.2588489244052,404.8831361743898 C 94.3736316197875,379.9979188697721 100.59493594594193,358.2233537282316 119.2588489244052,342.6700929128455 Z" fill="url(#leaf28)" opacity="0.22" transform="rotate(255.0 119.3 373.8)"/>
    <path d="M 1324.81227121825,154.77578576598347 C 1370.297288881067,192.67996715166421 1385.4589614353392,245.74582109161724 1324.81227121825,306.39251130870645 C 1264.165581001161,245.74582109161724 1279.3272535554331,192.67996715166421 1324.81227121825,154.77578576598347 Z" fill="url(#leaf29)" opacity="0.17" transform="rotate(247.7 1324.8 230.6)"/>
    <path d="M 1706.1894830598385,775.7169731578526 C 1747.2294821005207,809.9169723584212 1760.9094817807481,857.7969712392172 1706.1894830598385,912.516969960127 C 1651.4694843389289,857.7969712392172 1665.1494840191563,809.9169723584212 1706.1894830598385,775.7169731578526 Z" fill="url(#leaf0)" opacity="0.25" transform="rotate(151.9 1706.2 844.1)"/>
    <path d="M 1127.4386706560522,59.00228548356742 C 1172.3779384575569,96.45167531815473 1187.3576943913918,148.88082108657696 1127.4386706560522,208.79984482191665 C 1067.5196469207126,148.88082108657696 1082.4994028545475,96.45167531815473 1127.4386706560522,59.00228548356742 Z" fill="url(#leaf1)" opacity="0.19" transform="rotate(284.4 1127.4 133.9)"/>
    <path d="M 1167.7467174489484,638.0436974916908 C 1197.178583010912,662.5702521266605 1206.9892048648999,696.9074286156181 1167.7467174489484,736.1499160315697 C 1128.504230032997,696.9074286156181 1138.3148518869848,662.5702521266605 1167.7467174489484,638.0436974916908 Z" fill="url(#leaf2)" opacity="0.21" transform="rotate(343.5 1167.7 687.1)"/>
    <path d="M 1819.1432849634737,559.8823574765356 C 1857.2953694281775,591.6757611971221 1870.0127309164122,636.1865264059434 1819.1432849634737,687.055972358882 C 1768.273839010535,636.1865264059434 1780.9912004987698,591.6757611971221 1819.1432849634737,559.8823574765356 Z" fill="url(#leaf3)" opacity="0.23" transform="rotate(53.9 1819.1 623.5)"/>
    <path d="M 1296.808542590391,68.43759258711056 C 1331.3998173927114,97.2636549223775 1342.9302423268182,137.6201421917512 1296.808542590391,183.7418419281783 C 1250.6868428539638,137.6201421917512 1262.2172677880706,97.2636549223775 1296.808542590391,68.43759258711056 Z" fill="url(#leaf4)" opacity="0.24" transform="rotate(278.6 1296.8 126.1)"/>
    <path d="M 1399.6391532103487,440.1584889704702 C 1417.6661995270972,455.1810275677607 1423.6752149660133,476.21258160396724 1399.6391532103487,500.24864335963196 C 1375.603091454684,476.21258160396724 1381.6121068936002,455.1810275677607 1399.6391532103487,440.1584889704702 Z" fill="url(#leaf5)" opacity="0.25" transform="rotate(94.7 1399.6 470.2)"/>
    <path d="M 925.9023163461658,860.9640181805637 C 968.5424697412548,896.4974793431379 982.7558542062844,946.2443249707417 925.9023163461658,1003.0978628308603 C 869.0487784860471,946.2443249707417 883.2621629510768,896.4974793431379 925.9023163461658,860.9640181805637 Z" fill="url(#leaf6)" opacity="0.24" transform="rotate(106.3 925.9 932.0)"/>
    <path d="M 1710.0281140365012,341.072216624125 C 1744.3209153541281,369.64955105548086 1755.7518491266705,409.6578192593791 1710.0281140365012,455.3815543495485 C 1664.3043789463318,409.6578192593791 1675.7353127188742,369.64955105548086 1710.0281140365012,341.072216624125 Z" fill="url(#leaf7)" opacity="0.16" transform="rotate(334.3 1710.0 398.2)"/>
    <path d="M 601.5930426257827,150.8357318103886 C 647.0416212843884,188.70954735922675 662.1911475039237,241.73288912760012 601.5930426257827,302.3309940057411 C 540.9949377476416,241.73288912760012 556.144463967177,188.70954735922675 601.5930426257827,150.8357318103886 Z" fill="url(#leaf8)" opacity="0.21" transform="rotate(296.4 601.6 226.6)"/>
    <path d="M 1101.382975535542,889.2404761052244 C 1133.1744561787182,915.7333766412044 1143.7716163931102,952.8234373915765 1101.382975535542,995.2120782491445 C 1058.994334677974,952.8234373915765 1069.591494892366,915.7333766412044 1101.382975535542,889.2404761052244 Z" fill="url(#leaf9)" opacity="0.17" transform="rotate(304.3 1101.4 942.2)"/>
    <path d="M 1358.7202520232074,716.101275331293 C 1381.3179332831364,734.9326763812337 1388.8504937031125,761.2966378511508 1358.7202520232074,791.4268795310559 C 1328.5900103433023,761.2966378511508 1336.1225707632784,734.9326763812337 1358.7202520232074,716.101275331293 Z" fill="url(#leaf10)" opacity="0.25" transform="rotate(269.9 1358.7 753.8)"/>
    <path d="M 747.5978161347907,970.27952508223 C 767.379109138653,986.7639359187818 773.9728734732738,1009.8421110899545 747.5978161347907,1036.2171684284376 C 721.2227587963076,1009.8421110899545 727.8165231309284,986.7639359187818 747.5978161347907,970.27952508223 Z" fill="url(#leaf11)" opacity="0.17" transform="rotate(56.2 747.6 1003.2)"/>
    <path d="M 252.96334594378663,359.83887786628185 C 282.0257353808306,384.0575357304852 291.7131985265119,417.9636567403698 252.96334594378663,456.71350932309514 C 214.21349336106132,417.9636567403698 223.90095650674266,384.0575357304852 252.96334594378663,359.83887786628185 Z" fill="url(#leaf12)" opacity="0.23" transform="rotate(126.4 253.0 408.3)"/>
    <path d="M 1010.0186667710997,320.99826598782295 C 1049.9797820572405,354.2991953929403 1063.3001538192875,400.9204965601046 1010.0186667710997,454.2019836082924 C 956.737179722912,400.9204965601046 970.0575514849588,354.2991953929403 1010.0186667710997,320.99826598782295 Z" fill="url(#leaf13)" opacity="0.20" transform="rotate(245.4 1010.0 387.6)"/>
    <path d="M 1006.8886788374276,822.0859801009011 C 1039.7450175158776,849.4662623329427 1050.6971304086942,887.798657457801 1006.8886788374276,931.6071090290676 C 963.080227266161,887.798657457801 974.0323401589776,849.4662623329427 1006.8886788374276,822.0859801009011 Z" fill="url(#leaf14)" opacity="0.21" transform="rotate(332.6 1006.9 876.8)"/>
    <path d="M 1492.2296802072576,252.68540328424442 C 1530.1845720644412,284.31447983189736 1542.8362026835023,328.59518699861144 1492.2296802072576,379.20170947485616 C 1441.623157731013,328.59518699861144 1454.274788350074,284.31447983189736 1492.2296802072576,252.68540328424442 Z" fill="url(#leaf15)" opacity="0.16" transform="rotate(286.7 1492.2 315.9)"/>
    <path d="M 435.78759781704446,598.6802524822292 C 467.5116465692725,625.1169597757525 478.08632948668185,662.1283499866852 435.78759781704446,704.4270816563226 C 393.48886614740707,662.1283499866852 404.0635490648164,625.1169597757525 435.78759781704446,598.6802524822292 Z" fill="url(#leaf16)" opacity="0.22" transform="rotate(150.6 435.8 651.6)"/>
    <path d="M 179.01762907577339,937.0291944018759 C 216.5440510844143,968.3012127424099 229.05285842062793,1012.0820384191577 179.01762907577339,1062.1172677640122 C 128.98239973091884,1012.0820384191577 141.49120706713248,968.3012127424099 179.01762907577339,937.0291944018759 Z" fill="url(#leaf17)" opacity="0.18" transform="rotate(345.3 179.0 999.6)"/>
    <path d="M 1487.6258103037792,961.1521016589443 C 1510.8734646678997,980.5251469623781 1518.6226827892733,1007.6474103871856 1487.6258103037792,1038.6442828726797 C 1456.628937818285,1007.6474103871856 1464.3781559396587,980.5251469623781 1487.6258103037792,961.1521016589443 Z" fill="url(#leaf18)" opacity="0.16" transform="rotate(2.3 1487.6 999.9)"/>
    <path d="M 218.16663508934096,505.4846504804348 C 257.2380375648919,538.0441525433939 270.2618383900756,583.6274554315368 218.16663508934096,635.7226587322714 C 166.07143178860636,583.6274554315368 179.09523261379002,538.0441525433939 218.16663508934096,505.4846504804348 Z" fill="url(#leaf19)" opacity="0.20" transform="rotate(283.1 218.2 570.6)"/>
    <path d="M 1554.3571417807188,770.0954324313628 C 1582.8752910078604,793.8605567873142 1592.381340750241,827.1317308856459 1554.3571417807188,865.155929855168 C 1516.3329428111967,827.1317308856459 1525.8389925535773,793.8605567873142 1554.3571417807188,770.0954324313628 Z" fill="url(#leaf20)" opacity="0.21" transform="rotate(275.6 1554.4 817.6)"/>
    <path d="M 1329.8068037663775,317.68921801355924 C 1368.1959700363159,349.68018990517453 1380.992358792962,394.46755055343596 1329.8068037663775,445.6531055800204 C 1278.621248739793,394.46755055343596 1291.417637496439,349.68018990517453 1329.8068037663775,317.68921801355924 Z" fill="url(#leaf21)" opacity="0.17" transform="rotate(318.1 1329.8 381.7)"/>
    <path d="M 603.6833475576465,680.2464150086254 C 650.7606612351682,719.4775097398934 666.4530991276754,774.4010423636687 603.6833475576465,837.1707939336976 C 540.9135959876176,774.4010423636687 556.6060338801248,719.4775097398934 603.6833475576465,680.2464150086254 Z" fill="url(#leaf22)" opacity="0.18" transform="rotate(160.9 603.7 758.7)"/>
    <path d="M 1058.5590501006354,262.63053111832266 C 1091.172488184478,289.8083961881915 1102.0436342124256,327.8574072860079 1058.5590501006354,371.3419913977981 C 1015.0744659888453,327.8574072860079 1025.945612016793,289.8083961881915 1058.5590501006354,262.63053111832266 Z" fill="url(#leaf23)" opacity="0.24" transform="rotate(201.2 1058.6 317.0)"/>
    <path d="M 361.5795217332227,444.4395075598762 C 402.21462855745045,478.30209658006595 415.7596641655264,525.7097212083318 361.5795217332227,579.8898636406354 C 307.399379300919,525.7097212083318 320.94441490899493,478.30209658006595 361.5795217332227,444.4395075598762 Z" fill="url(#leaf24)" opacity="0.21" transform="rotate(87.4 361.6 512.2)"/>
    <path d="M 897.3080676486896,247.40947974001736 C 933.8634948093139,277.8723357072043 946.0486371961888,320.520334061266 897.3080676486896,369.26090360876515 C 848.5674981011905,320.520334061266 860.7526404880654,277.8723357072043 897.3080676486896,247.40947974001736 Z" fill="url(#leaf25)" opacity="0.16" transform="rotate(69.5 897.3 308.3)"/>
    <path d="M 527.1656786449371,430.63167193681386 C 561.9284252541847,459.6006274445202 573.5160074572673,500.1571651553091 527.1656786449371,546.5074939676392 C 480.81534983260696,500.1571651553091 492.4029320356895,459.6006274445202 527.1656786449371,430.63167193681386 Z" fill="url(#leaf26)" opacity="0.23" transform="rotate(101.4 527.2 488.6)"/>
    <path d="M 707.8985102832916,526.068908554897 C 738.0088498509359,551.1608581946007 748.0456297068173,586.2895876901857 707.8985102832916,626.4367071137115 C 667.7513908597658,586.2895876901857 677.7881707156472,551.1608581946007 707.8985102832916,526.068908554897 Z" fill="url(#leaf27)" opacity="0.24" transform="rotate(221.7 707.9 576.3)"/>
    <path d="M 993.4844973981247,464.9179825869441 C 1026.595071822352,492.5101279404669 1037.6319299637612,531.1391314353987 993.4844973981247,575.286564001035 C 949.3370648324884,531.1391314353987 960.3739229738975,492.5101279404669 993.4844973981247,464.9179825869441 Z" fill="url(#leaf28)" opacity="0.24" transform="rotate(322.7 993.5 520.1)"/>
    <path d="M 1157.4354621572747,115.90096063485583 C 1187.184602780577,140.69191115427438 1197.1009829883444,175.39924188146034 1157.4354621572747,215.06476271253 C 1117.769941326205,175.39924188146034 1127.6863215339724,140.69191115427438 1157.4354621572747,115.90096063485583 Z" fill="url(#leaf29)" opacity="0.23" transform="rotate(210.9 1157.4 165.5)"/>
    <path d="M 237.16212708486557,632.2176063849878 C 267.8360238869469,657.7791870533889 278.06065615430737,693.5653999891505 237.16212708486557,734.4639290585923 C 196.26359801542375,693.5653999891505 206.4882302827842,657.7791870533889 237.16212708486557,632.2176063849878 Z" fill="url(#leaf0)" opacity="0.16" transform="rotate(351.7 237.2 683.3)"/>
    <path d="M 1640.6818213215556,925.8210536019913 C 1664.646785590125,945.7918571591325 1672.6351070129817,973.7509821391303 1640.6818213215556,1005.7042678305563 C 1608.7285356301295,973.7509821391303 1616.7168570529861,945.7918571591325 1640.6818213215556,925.8210536019913 Z" fill="url(#leaf1)" opacity="0.18" transform="rotate(306.1 1640.7 965.8)"/>
    <path d="M 1054.785232253332,485.1023327892301 C 1094.8809795816867,518.515455562859 1108.2462286911382,565.2938274459395 1054.785232253332,618.7548238837458 C 1001.3242358155256,565.2938274459395 1014.6894849249773,518.515455562859 1054.785232253332,485.1023327892301 Z" fill="url(#leaf2)" opacity="0.23" transform="rotate(51.9 1054.8 551.9)"/>
    <path d="M 86.97171655909372,414.39596992720436 C 107.22201359369046,431.27121745603495 113.9721126052227,454.89656399639784 86.97171655909372,481.8969600425268 C 59.97132051296474,454.89656399639784 66.72141952449698,431.27121745603495 86.97171655909372,414.39596992720436 Z" fill="url(#leaf3)" opacity="0.16" transform="rotate(70.1 87.0 448.1)"/>
    <path d="M 661.4050823404998,-27.126020391327145 C 708.4180502097269,12.051452833028776 724.0890394994693,66.89991534712706 661.4050823404998,129.58387250609655 C 598.7211251815303,66.89991534712706 614.3921144712727,12.051452833028776 661.4050823404998,-27.126020391327145 Z" fill="url(#leaf4)" opacity="0.18" transform="rotate(321.6 661.4 51.2)"/>
    <path d="M 1000.0532786478574,949.1982690131861 C 1039.8913896666581,982.3966948621867 1053.1707600062582,1028.8744910507874 1000.0532786478574,1081.9919724091883 C 946.9357972894564,1028.8744910507874 960.2151676290567,982.3966948621867 1000.0532786478574,949.1982690131861 Z" fill="url(#leaf5)" opacity="0.21" transform="rotate(339.6 1000.1 1015.6)"/>
    <path d="M 1790.6631948895947,354.95604822175426 C 1819.3199305194817,378.8366612466601 1828.872175729444,412.2695194815283 1790.6631948895947,450.4785003213776 C 1752.4542140497454,412.2695194815283 1762.0064592597078,378.8366612466601 1790.6631948895947,354.95604822175426 Z" fill="url(#leaf6)" opacity="0.19" transform="rotate(133.3 1790.7 402.7)"/>
    <path d="M 351.7223695513766,624.3067345023433 C 399.4465708209565,664.0769022269932 415.35463791081645,719.7551370415031 351.7223695513766,783.387405400943 C 288.0901011919367,719.7551370415031 303.99816828179667,664.0769022269932 351.7223695513766,624.3067345023433 Z" fill="url(#leaf7)" opacity="0.23" transform="rotate(137.9 351.7 703.8)"/>
    <path d="M 829.6883975260181,116.0536587934737 C 859.4538073795061,140.85816700471375 869.3756106640021,175.5844785004498 829.6883975260181,215.27169163843388 C 790.0011843880341,175.5844785004498 799.9229876725301,140.85816700471375 829.6883975260181,116.0536587934737 Z" fill="url(#leaf8)" opacity="0.17" transform="rotate(258.4 829.7 165.7)"/>
    <path d="M 177.73401318365947,288.6441816478175 C 209.2906720018354,314.9413973296308 219.8095582745607,351.75749928416934 177.73401318365947,393.8330443750706 C 135.65846809275826,351.75749928416934 146.17735436548355,314.9413973296308 177.73401318365947,288.6441816478175 Z" fill="url(#leaf9)" opacity="0.21" transform="rotate(188.7 177.7 341.2)"/>
    <path d="M 1129.4314723098003,654.2232210547363 C 1166.524824053067,685.1343475074585 1178.8892746341558,728.4099245412697 1129.4314723098003,777.8677268656252 C 1079.9736699854448,728.4099245412697 1092.3381205665335,685.1343475074585 1129.4314723098003,654.2232210547363 Z" fill="url(#leaf10)" opacity="0.24" transform="rotate(37.8 1129.4 716.0)"/>
    <path d="M 487.5575101491233,261.5863750530922 C 515.2931592273884,284.6994159516465 524.5383755868102,317.05767320962246 487.5575101491233,354.03853864730934 C 450.5766447114364,317.05767320962246 459.8218610708581,284.6994159516465 487.5575101491233,261.5863750530922 Z" fill="url(#leaf11)" opacity="0.16" transform="rotate(42.3 487.6 307.8)"/>
    <path d="M 1480.4694530290014,986.3205998414252 C 1505.3374481593446,1007.0439291167112 1513.626779869459,1036.0565901021114 1480.4694530290014,1069.2139169425689 C 1447.312126188544,1036.0565901021114 1455.6014578986583,1007.0439291167112 1480.4694530290014,986.3205998414252 Z" fill="url(#leaf12)" opacity="0.16" transform="rotate(88.4 1480.5 1027.8)"/>
    <path d="M 1136.9218411054085,782.6166745912582 C 1162.6775289401576,804.0797477868825 1171.2627582184073,834.1280502607565 1136.9218411054085,868.4689673737554 C 1102.5809239924097,834.1280502607565 1111.1661532706594,804.0797477868825 1136.9218411054085,782.6166745912582 Z" fill="url(#leaf13)" opacity="0.23" transform="rotate(76.2 1136.9 825.5)"/>
    <path d="M 1545.4082996896486,154.05598255586293 C 1587.2023663904802,188.8843714732226 1601.133721957424,237.6441159575261 1545.4082996896486,293.36953822530154 C 1489.6828774218732,237.6441159575261 1503.614232988817,188.8843714732226 1545.4082996896486,154.05598255586293 Z" fill="url(#leaf14)" opacity="0.22" transform="rotate(263.4 1545.4 223.7)"/>
    <path d="M 1822.9837146867462,320.2260109016795 C 1848.2375481660024,341.27087213439285 1856.6554926590877,370.7336778601916 1822.9837146867462,404.405455832533 C 1789.3119367144047,370.7336778601916 1797.72988120749,341.27087213439285 1822.9837146867462,320.2260109016795 Z" fill="url(#leaf15)" opacity="0.17" transform="rotate(167.9 1823.0 362.3)"/>
    <path d="M 949.7843241177953,196.45249425986032 C 974.1254662618729,216.73677937992497 982.2391803098988,245.1347785480155 949.7843241177953,277.589634740119 C 917.3294679256919,245.1347785480155 925.4431819737177,216.73677937992497 949.7843241177953,196.45249425986032 Z" fill="url(#leaf16)" opacity="0.24" transform="rotate(103.5 949.8 237.0)"/>
    <path d="M 1306.3030444652286,516.4164876399499 C 1339.2609535651736,543.881411889904 1350.2469232651554,582.3323058398398 1306.3030444652286,626.2761846397665 C 1262.3591656653018,582.3323058398398 1273.3451353652836,543.881411889904 1306.3030444652286,516.4164876399499 Z" fill="url(#leaf17)" opacity="0.24" transform="rotate(304.5 1306.3 571.3)"/>
    <path d="M 392.720352029951,856.1069077362804 C 423.8043071026817,882.0102036302227 434.16562546025864,918.2748178817419 392.720352029951,959.7200913120496 C 351.2750785996434,918.2748178817419 361.6363969572203,882.0102036302227 392.720352029951,856.1069077362804 Z" fill="url(#leaf18)" opacity="0.23" transform="rotate(153.7 392.7 907.9)"/>
    <path d="M 1083.3389481089757,756.4767842690684 C 1102.3004517605118,772.2780373120153 1108.6209529776906,794.3997915721408 1083.3389481089757,819.6817964408557 C 1058.0569432402608,794.3997915721408 1064.3774444574397,772.2780373120153 1083.3389481089757,756.4767842690684 Z" fill="url(#leaf19)" opacity="0.22" transform="rotate(152.9 1083.3 788.1)"/>
    <path d="M 1674.6205873050556,121.01035537006703 C 1714.3465086796723,154.1152898489143 1727.5884824712111,200.46219811930047 1674.6205873050556,253.4300932854561 C 1621.6526921389,200.46219811930047 1634.8946659304388,154.1152898489143 1674.6205873050556,121.01035537006703 Z" fill="url(#leaf20)" opacity="0.21" transform="rotate(343.2 1674.6 187.2)"/>
    <path d="M 840.0873876783523,678.5403632470528 C 864.4659054687244,698.8557947390295 872.5920780655151,727.2973988277969 840.0873876783523,759.8020892149597 C 807.5826972911896,727.2973988277969 815.7088698879803,698.8557947390295 840.0873876783523,678.5403632470528 Z" fill="url(#leaf21)" opacity="0.17" transform="rotate(291.4 840.1 719.2)"/>
    <path d="M 315.7012110805448,49.119439640707334 C 338.485722313158,68.10653233455169 346.0805593906958,94.6884621059338 315.7012110805448,125.06781041608477 C 285.3218627703938,94.6884621059338 292.91669984793157,68.10653233455169 315.7012110805448,49.119439640707334 Z" fill="url(#leaf22)" opacity="0.21" transform="rotate(310.9 315.7 87.1)"/>
    <path d="M 1304.9785429533445,617.0978749714934 C 1337.8391923061868,644.4817494321952 1348.7927420904675,682.8191736771779 1304.9785429533445,726.6333728143009 C 1261.1643438162214,682.8191736771779 1272.1178936005022,644.4817494321952 1304.9785429533445,617.0978749714934 Z" fill="url(#leaf23)" opacity="0.24" transform="rotate(233.5 1305.0 671.9)"/>
    <path d="M 751.4037833742149,352.78698637398315 C 795.3315080372272,389.39342359316004 809.974082924898,440.64243570000775 751.4037833742149,499.2127352506908 C 692.8334838235318,440.64243570000775 707.4760587112025,389.39342359316004 751.4037833742149,352.78698637398315 Z" fill="url(#leaf24)" opacity="0.19" transform="rotate(338.8 751.4 426.0)"/>
    <path d="M 80.01171017804532,170.64974260897327 C 115.22466227871232,199.99386935952907 126.96231297893465,241.07564681030723 80.01171017804532,288.02624961119653 C 33.061107377156,241.07564681030723 44.79875807737833,199.99386935952907 80.01171017804532,170.64974260897327 Z" fill="url(#leaf25)" opacity="0.21" transform="rotate(174.9 80.0 229.3)"/>
    <path d="M 437.0223021498584,341.75959137409836 C 460.6280460476434,361.43104462225256 468.4966273469051,388.9710791696684 437.0223021498584,420.44540436671514 C 405.54797695281167,388.9710791696684 413.41655825207334,361.43104462225256 437.0223021498584,341.75959137409836 Z" fill="url(#leaf26)" opacity="0.20" transform="rotate(212.4 437.0 381.1)"/>
    <path d="M 619.7893026235462,905.8451184461103 C 654.6030677774545,934.8565894077005 666.2076561620906,975.472648753927 619.7893026235462,1021.8910022924715 C 573.3709490850017,975.472648753927 584.9755374696379,934.8565894077005 619.7893026235462,905.8451184461103 Z" fill="url(#leaf27)" opacity="0.18" transform="rotate(132.8 619.8 963.9)"/>
    <path d="M 690.9907606699863,730.0648436239474 C 724.58201720461,758.0575574028004 735.7791027161512,797.2473566931947 690.9907606699863,842.0356987393595 C 646.2024186238215,797.2473566931947 657.3995041353627,758.0575574028004 690.9907606699863,730.0648436239474 Z" fill="url(#leaf28)" opacity="0.24" transform="rotate(225.0 691.0 786.1)"/>
    <path d="M 935.9883927719767,470.16999910324074 C 973.6451748556066,501.550650839599 986.19743555015,545.4835632705006 935.9883927719767,595.6926060486738 C 885.7793499938034,545.4835632705006 898.3316106883468,501.550650839599 935.9883927719767,470.16999910324074 Z" fill="url(#leaf29)" opacity="0.20" transform="rotate(107.4 936.0 532.9)"/>
    <path d="M 1459.5539798311493,580.2922873137973 C 1504.4154515546459,617.6768470833777 1519.369275462478,670.0152307607904 1459.5539798311493,729.830526392119 C 1399.7386841998205,670.0152307607904 1414.6925081076527,617.6768470833777 1459.5539798311493,580.2922873137973 Z" fill="url(#leaf0)" opacity="0.15" transform="rotate(283.0 1459.6 655.1)"/>
    <path d="M 1644.193149140718,872.5920714450232 C 1675.4568388154476,898.6451461739642 1685.8780687070239,935.1194507944818 1644.193149140718,976.8043703607876 C 1602.5082295744123,935.1194507944818 1612.9294594659887,898.6451461739642 1644.193149140718,872.5920714450232 Z" fill="url(#leaf1)" opacity="0.21" transform="rotate(181.2 1644.2 924.7)"/>
    <path d="M 203.06523416665217,845.8408244987302 C 228.55932377161463,867.0858991695322 237.05735363993546,896.8290037086551 203.06523416665217,930.8211231819384 C 169.0731146933689,896.8290037086551 177.57114456168972,867.0858991695322 203.06523416665217,845.8408244987302 Z" fill="url(#leaf2)" opacity="0.16" transform="rotate(82.6 203.1 888.3)"/>
    <path d="M 1792.8631884792892,404.8955868666287 C 1814.809106601513,423.18385196848186 1822.1244126422541,448.78742311107624 1792.8631884792892,478.0486472740413 C 1763.6019643163243,448.78742311107624 1770.9172703570655,423.18385196848186 1792.8631884792892,404.8955868666287 Z" fill="url(#leaf3)" opacity="0.19" transform="rotate(100.1 1792.9 441.5)"/>
    <path d="M 1748.370111653422,476.5042608628265 C 1789.309007049928,510.6200070265814 1802.95530551543,558.3820516558382 1748.370111653422,612.967245517846 C 1693.7849177914143,558.3820516558382 1707.4312162569163,510.6200070265814 1748.370111653422,476.5042608628265 Z" fill="url(#leaf4)" opacity="0.16" transform="rotate(234.2 1748.4 544.7)"/>
    <path d="M 218.03943114021726,695.6640427169439 C 238.18050026064768,712.4482669839692 244.89418996745783,735.9461809578047 218.03943114021726,762.8009397850453 C 191.1846723129767,735.9461809578047 197.89836201978684,712.4482669839692 218.03943114021726,695.6640427169439 Z" fill="url(#leaf5)" opacity="0.16" transform="rotate(33.4 218.0 729.2)"/>
    <path d="M 1084.5538396511608,561.7083245519593 C 1121.795506708336,592.7430470996052 1134.2093957273944,636.1916586663095 1084.5538396511608,685.847214742543 C 1034.8982835749273,636.1916586663095 1047.3121725939857,592.7430470996052 1084.5538396511608,561.7083245519593 Z" fill="url(#leaf6)" opacity="0.19" transform="rotate(244.1 1084.6 623.8)"/>
    <path d="M 257.17358481851585,976.2046559612061 C 275.5245057477477,991.4970900688993 281.641479390825,1012.9064978196698 257.17358481851585,1037.374392391979 C 232.70569024620673,1012.9064978196698 238.822663889284,991.4970900688993 257.17358481851585,976.2046559612061 Z" fill="url(#leaf7)" opacity="0.24" transform="rotate(271.7 257.2 1006.8)"/>
    <path d="M 556.3442608959649,769.0675367952008 C 598.0031656931958,803.7832907928931 611.8894672922728,852.3853463896626 556.3442608959649,907.9305527859703 C 500.799054499657,852.3853463896626 514.685356098734,803.7832907928931 556.3442608959649,769.0675367952008 Z" fill="url(#leaf8)" opacity="0.18" transform="rotate(305.9 556.3 838.5)"/>
    <path d="M 1442.225977706016,574.2860864816469 C 1484.450646370266,609.4733103685219 1498.525535925016,658.7354238101469 1442.225977706016,715.0349820291469 C 1385.9264194870161,658.7354238101469 1400.001309041766,609.4733103685219 1442.225977706016,574.2860864816469 Z" fill="url(#leaf9)" opacity="0.22" transform="rotate(123.1 1442.2 644.7)"/>
    <path d="M 443.1539244028625,263.92860501794877 C 482.96467060533945,297.10422685334623 496.23491933949845,343.5500974229027 443.1539244028625,396.6310923595386 C 390.0729294662266,343.5500974229027 403.3431782003856,297.10422685334623 443.1539244028625,263.92860501794877 Z" fill="url(#leaf10)" opacity="0.19" transform="rotate(106.3 443.2 330.3)"/>
    <path d="M 1119.6066138752217,510.8032570001409 C 1165.4768568230281,549.0284594566463 1180.7669378056303,602.5437428957539 1119.6066138752217,663.7040668261626 C 1058.446289944813,602.5437428957539 1073.7363709274152,549.0284594566463 1119.6066138752217,510.8032570001409 Z" fill="url(#leaf11)" opacity="0.24" transform="rotate(46.1 1119.6 587.3)"/>
    <path d="M 1300.8389873956296,588.6321976238758 C 1333.3941742097024,615.7615199689366 1344.2459031477267,653.7425712520215 1300.8389873956296,697.1494870041188 C 1257.4320716435325,653.7425712520215 1268.2838005815568,615.7615199689366 1300.8389873956296,588.6321976238758 Z" fill="url(#leaf12)" opacity="0.24" transform="rotate(171.5 1300.8 642.9)"/>
    <path d="M 602.0975671596983,842.7403330624858 C 634.2521240716961,869.5357971558174 644.9703097090288,907.0494468864814 602.0975671596983,949.9221894358119 C 559.2248246103678,907.0494468864814 569.9430102477005,869.5357971558174 602.0975671596983,842.7403330624858 Z" fill="url(#leaf13)" opacity="0.17" transform="rotate(297.5 602.1 896.3)"/>
    <path d="M 1601.7265509825384,102.65387242500357 C 1630.9855477849105,127.03636976031373 1640.7385467190347,161.17186602974797 1601.7265509825384,200.18386176624426 C 1562.714555246042,161.17186602974797 1572.4675541801662,127.03636976031373 1601.7265509825384,102.65387242500357 Z" fill="url(#leaf14)" opacity="0.24" transform="rotate(238.0 1601.7 151.4)"/>
    <path d="M 340.4866130868806,53.615030160275396 C 366.65025802363914,75.41806760757419 375.3714730025587,105.9423200337925 340.4866130868806,140.82717994947058 C 305.6017531712025,105.9423200337925 314.32296815012205,75.41806760757419 340.4866130868806,53.615030160275396 Z" fill="url(#leaf15)" opacity="0.16" transform="rotate(88.7 340.5 97.2)"/>
    <path d="M 832.9996944030954,908.6001082748506 C 860.6129483801325,931.6111532557148 869.8173663724781,963.8266162289248 832.9996944030954,1000.6442881983074 C 796.1820224337127,963.8266162289248 805.3864404260584,931.6111532557148 832.9996944030954,908.6001082748506 Z" fill="url(#leaf16)" opacity="0.15" transform="rotate(274.4 833.0 954.6)"/>
    <path d="M 52.9028065244502,865.3848192422986 C 98.35488825987548,903.2615540218197 113.50558217168393,956.2889827131492 52.9028065244502,1016.8917583603829 C -7.699969122783521,956.2889827131492 7.45072478902491,903.2615540218197 52.9028065244502,865.3848192422986 Z" fill="url(#leaf17)" opacity="0.20" transform="rotate(241.8 52.9 941.1)"/>
    <path d="M 1685.2716913797226,879.5639922781037 C 1703.6227547104463,894.8565450537067 1709.7397758206876,916.266118939551 1685.2716913797226,940.7342033805159 C 1660.8036069387576,916.266118939551 1666.9206280489989,894.8565450537067 1685.2716913797226,879.5639922781037 Z" fill="url(#leaf18)" opacity="0.16" transform="rotate(159.8 1685.3 910.1)"/>
    <path d="M 1265.125942388836,115.25629222782743 C 1304.767573128323,148.2909845107332 1317.9814500414852,194.53955370680134 1265.125942388836,247.3950613594506 C 1212.2704347361866,194.53955370680134 1225.484311649349,148.2909845107332 1265.125942388836,115.25629222782743 Z" fill="url(#leaf19)" opacity="0.24" transform="rotate(96.0 1265.1 181.3)"/>
    <path d="M 1069.7931582100068,445.01898645657815 C 1091.9723122175537,463.5016147962006 1099.3653635534029,489.3772944716721 1069.7931582100068,518.9494998150681 C 1040.2209528666108,489.3772944716721 1047.61400420246,463.5016147962006 1069.7931582100068,445.01898645657815 Z" fill="url(#leaf20)" opacity="0.20" transform="rotate(99.7 1069.8 482.0)"/>
    <path d="M 485.97875203490275,148.31243526612442 C 508.42002286264545,167.01349428924334 515.900446471893,193.19497692160982 485.97875203490275,223.1166713586001 C 456.0570575979125,193.19497692160982 463.53748120716006,167.01349428924334 485.97875203490275,148.31243526612442 Z" fill="url(#leaf21)" opacity="0.24" transform="rotate(334.7 486.0 185.7)"/>
    <path d="M 1066.6904906161858,430.721073812251 C 1100.1224609591923,458.5810490980898 1111.2664510735278,497.58501449826406 1066.6904906161858,542.1609749556061 C 1022.1145301588438,497.58501449826406 1033.2585202731793,458.5810490980898 1066.6904906161858,430.721073812251 Z" fill="url(#leaf22)" opacity="0.22" transform="rotate(180.9 1066.7 486.4)"/>
    <path d="M 1593.2237186479076,906.0930333092937 C 1613.9490743223614,923.3641630380051 1620.857526213846,947.5437446582013 1593.2237186479076,975.1775522241397 C 1565.5899110819691,947.5437446582013 1572.4983629734538,923.3641630380051 1593.2237186479076,906.0930333092937 Z" fill="url(#leaf23)" opacity="0.16" transform="rotate(278.8 1593.2 940.6)"/>
    <path d="M 1252.060665542772,304.4661949290444 C 1293.5560457806587,339.04567846061656 1307.3878391932876,387.4569554048176 1252.060665542772,442.7841290553331 C 1196.7334918922566,387.4569554048176 1210.5652853048855,339.04567846061656 1252.060665542772,304.4661949290444 Z" fill="url(#leaf24)" opacity="0.24" transform="rotate(32.7 1252.1 373.6)"/>
    <path d="M 1129.9294796410484,392.7643373412032 C 1154.95738821198,413.62092781697964 1163.3000244022905,442.8201544830666 1129.9294796410484,476.19069924430886 C 1096.5589348798062,442.8201544830666 1104.9015710701167,413.62092781697964 1129.9294796410484,392.7643373412032 Z" fill="url(#leaf25)" opacity="0.25" transform="rotate(200.0 1129.9 434.5)"/>
    <path d="M 1752.1667457057986,433.75752225948753 C 1771.5440606800432,449.9052847380247 1778.003165671458,472.5121522079767 1752.1667457057986,498.3485721736362 C 1726.3303257401392,472.5121522079767 1732.789430731554,449.9052847380247 1752.1667457057986,433.75752225948753 Z" fill="url(#leaf26)" opacity="0.18" transform="rotate(203.8 1752.2 466.1)"/>
    <path d="M 1703.509377406941,449.2753834840765 C 1722.570015444056,465.1592485150057 1728.9235614564277,487.39665955830657 1703.509377406941,512.8108436077932 C 1678.0951933574543,487.39665955830657 1684.448739369826,465.1592485150057 1703.509377406941,449.2753834840765 Z" fill="url(#leaf27)" opacity="0.15" transform="rotate(23.9 1703.5 481.0)"/>
    <path d="M 707.1507258014497,737.3576968313592 C 725.7548535128963,752.8611365908981 731.9562294167117,774.5659522542525 707.1507258014497,799.3714558695145 C 682.3452221861876,774.5659522542525 688.546598090003,752.8611365908981 707.1507258014497,737.3576968313592 Z" fill="url(#leaf28)" opacity="0.20" transform="rotate(278.0 707.2 768.4)"/>
    <path d="M 706.4192902556723,941.4509973987454 C 753.5280408364863,980.7082895494237 769.2309576967576,1035.6684985603736 706.4192902556723,1098.4801660014589 C 643.607622814587,1035.6684985603736 659.3105396748583,980.7082895494237 706.4192902556723,941.4509973987454 Z" fill="url(#leaf29)" opacity="0.19" transform="rotate(253.1 706.4 1020.0)"/>
    <path d="M 690.1876597281565,28.849639574139523 C 715.4424647690964,49.89531044158949 723.8607331160764,79.35924965601943 690.1876597281565,113.03232304393936 C 656.5145863402366,79.35924965601943 664.9328546872166,49.89531044158949 690.1876597281565,28.849639574139523 Z" fill="url(#leaf0)" opacity="0.22" transform="rotate(116.9 690.2 70.9)"/>
    <path d="M 1373.7304550392328,318.3562409608826 C 1417.6668449423105,354.9698992134475 1432.3123082433365,406.22902076703826 1373.7304550392328,464.8108739711421 C 1315.148601835129,406.22902076703826 1329.794065136155,354.9698992134475 1373.7304550392328,318.3562409608826 Z" fill="url(#leaf1)" opacity="0.21" transform="rotate(86.8 1373.7 391.6)"/>
    <path d="M 1068.2945008253591,733.5670628813349 C 1105.3950210991406,764.4841631094862 1117.7618611904013,807.768103428898 1068.2945008253591,857.2354637939401 C 1018.8271404603171,807.768103428898 1031.1939805515776,764.4841631094862 1068.2945008253591,733.5670628813349 Z" fill="url(#leaf2)" opacity="0.19" transform="rotate(336.4 1068.3 795.4)"/>
    <path d="M 879.778531486468,849.0815944814653 C 910.6942777473788,874.8447163655578 920.9995265010158,910.9130870032872 879.778531486468,952.134082017835 C 838.5575364719201,910.9130870032872 848.8627852255571,874.8447163655578 879.778531486468,849.0815944814653 Z" fill="url(#leaf3)" opacity="0.18" transform="rotate(333.4 879.8 900.6)"/>
    <path d="M 1071.2934507273528,600.4124335181882 C 1097.342432062878,622.1199179644592 1106.0254258413863,652.5103961892386 1071.2934507273528,687.2423713032722 C 1036.5614756133193,652.5103961892386 1045.2444693918276,622.1199179644592 1071.2934507273528,600.4124335181882 Z" fill="url(#leaf4)" opacity="0.17" transform="rotate(201.4 1071.3 643.8)"/>
    </g>

    <!-- Text with SOLID fill only (ThorVG compatible) -->
    <text x="895.5" y="895.5"
          font-family="Arial, Helvetica, sans-serif"
          font-size="1080px"
          font-weight="bold"
          fill="#FF6B6B"
          text-anchor="middle"
          transform="rotate(-6.0 960.0 540.0)">
      Y
    </text>
  </g>

  <!-- Frame counter -->
  <text x="960.0" y="1050.0"
        font-family="monospace"
        font-size="24px"
        fill="#FFFFFF"
        text-anchor="middle"
        opacity="0.7">
    Frame 00094 - Compatible
  </text>
</svg>