<?xml version="1.0" encoding="UTF-8"?>
<svg xmlns="http://www.w3.org/2000/svg" viewBox="0 0 1920 1080" width="1920" height="1080">
  <defs>
    <linearGradient id="bgGrad" x1="0%" y1="0%" x2="100%" y2="100%">
      <stop offset="0%" stop-color="#96E6A1"/>
      <stop offset="100%" stop-color="#00FA9A"/>
    </linearGradient>
    <clipPath id="complexClip"><polygon points="1496.2,540.0 1391.0,570.6 1422.2,606.8 1536.0,668.3 1469.5,697.6 1277.7,669.8 1299.9,719.6 1209.1,709.4 1267.9,812.9 1186.8,811.1 1095.7,775.0 1070.1,864.6 985.5,767.9 927.9,827.2 846.3,875.2 795.5,824.8 757.6,782.0 724.9,748.4 627.1,766.3 673.2,691.5 557.1,704.7 516.9,677.0 374.7,670.3 356.8,627.1 556.0,568.7 354.6,540.0 530.3,509.5 311.0,446.3 593.5,458.4 454.3,383.6 575.4,382.8 529.2,312.4 679.7,349.4 662.6,276.4 775.7,319.7 811.7,283.3 883.0,312.9 918.4,167.7 988.8,282.7 1046.2,285.9 1142.0,224.8 1175.5,282.4 1298.0,240.5 1356.8,270.2 1305.2,357.6 1476.5,328.9 1379.2,410.4 1493.4,421.2 1603.6,447.1 1419.6,507.3"/></clipPath>
    <radialGradient id="leaf0" cx="50%" cy="50%" r="70%">
      <stop offset="0%" stop-color="#4ECDC4"/>
      <stop offset="50%" stop-color="#FF1493"/>
      <stop offset="100%" stop-color="#00FA9A"/>
    </radialGradient>
    <radialGradient id="leaf1" cx="50%" cy="50%" r="70%">
      <stop offset="0%" stop-color="#00FA9A"/>
      <stop offset="50%" stop-color="#FF4500"/>
      <stop offset="100%" stop-color="#7B68EE"/>
    </radialGradient>
    <radialGradient id="leaf2" cx="50%" cy="50%" r="70%">
      <stop offset="0%" stop-color="#7B68EE"/>
      <stop offset="50%" stop-color="#FF1493"/>
      <stop offset="100%" stop-color="#FFE66D"/>
    </radialGradient>
    <radialGradient id="leaf3" cx="50%" cy="50%" r="70%">
      <stop offset="0%" stop-color="#FF1493"/>
      <stop offset="50%" stop-color="#FF69B4"/>
      <stop offset="100%" stop-color="#00FA9A"/>
    </radialGradient>
    <radialGradient id="leaf4" cx="50%" cy="50%" r="70%">
      <stop offset="0%" stop-color="#FFE66D"/>
      <stop offset="50%" stop-color="#96E6A1"/>
      <stop offset="100%" stop-color="#FF69B4"/>
    </radialGradient>
    <radialGradient id="leaf5" cx="50%" cy="50%" r="70%">
      <stop offset="0%" stop-color="#FFD700"/>
      <stop offset="50%" stop-color="#96E6A1"/>
      <stop offset="100%" stop-color="#FF4500"/>
    </radialGradient>
    <radialGradient id="leaf6" cx="50%" cy="50%" r="70%">
      <stop offset="0%" stop-color="#FFE66D"/>
      <stop offset="50%" stop-color="#96E6A1"/>
      <stop offset="100%" stop-color="#7B68EE"/>
    </radialGradient>
    <radialGradient id="leaf7" cx="50%" cy="50%" r="70%">
      <stop offset="0%" stop-color="#7B68EE"/>
      <stop offset="50%" stop-color="#FFE66D"/>
      <stop offset="100%" stop-color="#FF69B4"/>
    </radialGradient>
    <radialGradient id="leaf8" cx="50%" cy="50%" r="70%">
      <stop offset="0%" stop-color="#FFD700"/>
      <stop offset="50%" stop-color="#7B68EE"/>
      <stop offset="100%" stop-color="#00FA9A"/>
    </radialGradient>
    <radialGradient id="leaf9" cx="50%" cy="50%" r="70%">
      <stop offset="0%" stop-color="#FF4500"/>
      <stop offset="50%" stop-color="#4ECDC4"/>
      <stop offset="100%" stop-color="#00FA9A"/>
    </radialGradient>
    <radialGradient id="leaf10" cx="50%" cy="50%" r="70%">
      <stop offset="0%" stop-color="#45B7D1"/>
      <stop offset="50%" stop-color="#DC143C"/>
      <stop offset="100%" stop-color="#4ECDC4"/>
    </radialGradient>
    <radialGradient id="leaf11" cx="50%" cy="50%" r="70%">
      <stop offset="0%" stop-color="#00CED1"/>
      <stop offset="50%" stop-color="#FF6B6B"/>
      <stop offset="100%" stop-color="#32CD32"/>
    </radialGradient>
    <radialGradient id="leaf12" cx="50%" cy="50%" r="70%">
      <stop offset="0%" stop-color="#FFE66D"/>
      <stop offset="50%" stop-color="#DC143C"/>
      <stop offset="100%" stop-color="#FF4500"/>
    </radialGradient>
    <radialGradient id="leaf13" cx="50%" cy="50%" r="70%">
      <stop offset="0%" stop-color="#FFD700"/>
      <stop offset="50%" stop-color="#DC143C"/>
      <stop offset="100%" stop-color="#45B7D1"/>
    </radialGradient>
    <radialGradient id="leaf14" cx="50%" cy="50%" r="70%">
      <stop offset="0%" stop-color="#FFE66D"/>
      <stop offset="50%" stop-color="#FF6B6B"/>
      <stop offset="100%" stop-color="#96E6A1"/>
    </radialGradient>
    <radialGradient id="leaf15" cx="50%" cy="50%" r="70%">
      <stop offset="0%" stop-color="#00FA9A"/>
      <stop offset="50%" stop-color="#96E6A1"/>
      <stop offset="100%" stop-color="#FF1493"/>
    </radialGradient>
    <radialGradient id="leaf16" cx="50%" cy="50%" r="70%">
      <stop offset="0%" stop-color="#FFD700"/>
      <stop offset="50%" stop-color="#96E6A1"/>
      <stop offset="100%" stop-color="#FF1493"/>
    </radialGradient>
    <radialGradient id="leaf17" cx="50%" cy="50%" r="70%">
      <stop offset="0%" stop-color="#32CD32"/>
      <stop offset="50%" stop-color="#FF1493"/>
      <stop offset="100%" stop-color="#FFE66D"/>
    </radialGradient>
    <radialGradient id="leaf18" cx="50%" cy="50%" r="70%">
      <stop offset="0%" stop-color="#96E6A1"/>
      <stop offset="50%" stop-color="#DC143C"/>
      <stop offset="100%" stop-color="#FFE66D"/>
    </radialGradient>
    <radialGradient id="leaf19" cx="50%" cy="50%" r="70%">
      <stop offset="0%" stop-color="#96E6A1"/>
      <stop offset="50%" stop-color="#FF4500"/>
      <stop offset="100%" stop-color="#4ECDC4"/>
    </radialGradient>
    <radialGradient id="leaf20" cx="50%" cy="50%" r="70%">
      <stop offset="0%" stop-color="#45B7D1"/>
      <stop offset="50%" stop-color="#FF1493"/>
      <stop offset="100%" stop-color="#FF6B6B"/>
    </radialGradient>
    <radialGradient id="leaf21" cx="50%" cy="50%" r="70%">
      <stop offset="0%" stop-color="#96E6A1"/>
      <stop offset="50%" stop-color="#7B68EE"/>
      <stop offset="100%" stop-color="#FF69B4"/>
    </radialGradient>
    <radialGradient id="leaf22" cx="50%" cy="50%" r="70%">
      <stop offset="0%" stop-color="#FF6B6B"/>
      <stop offset="50%" stop-color="#FF4500"/>
      <stop offset="100%" stop-color="#FF69B4"/>
    </radialGradient>
    <radialGradient id="leaf23" cx="50%" cy="50%" r="70%">
      <stop offset="0%" stop-color="#45B7D1"/>
      <stop offset="50%" stop-color="#FF69B4"/>
      <stop offset="100%" stop-color="#4ECDC4"/>
    </radialGradient>
    <radialGradient id="leaf24" cx="50%" cy="50%" r="70%">
      <stop offset="0%" stop-color="#FF6B6B"/>
      <stop offset="50%" stop-color="#00FA9A"/>
      <stop offset="100%" stop-color="#00CED1"/>
    </radialGradient>
    <radialGradient id="leaf25" cx="50%" cy="50%" r="70%">
      <stop offset="0%" stop-color="#7B68EE"/>
      <stop offset="50%" stop-color="#FFE66D"/>
      <stop offset="100%" stop-color="#00CED1"/>
    </radialGradient>
    <radialGradient id="leaf26" cx="50%" cy="50%" r="70%">
      <stop offset="0%" stop-color="#4ECDC4"/>
      <stop offset="50%" stop-color="#45B7D1"/>
      <stop offset="100%" stop-color="#96E6A1"/>
    </radialGradient>
    <radialGradient id="leaf27" cx="50%" cy="50%" r="70%">
      <stop offset="0%" stop-color="#4ECDC4"/>
      <stop offset="50%" stop-color="#FFE66D"/>
      <stop offset="100%" stop-color="#FF6B6B"/>
    </radialGradient>
    <radialGradient id="leaf28" cx="50%" cy="50%" r="70%">
      <stop offset="0%" stop-color="#FF4500"/>
      <stop offset="50%" stop-color="#7B68EE"/>
      <stop offset="100%" stop-color="#DC143C"/>
    </radialGradient>
    <radialGradient id="leaf29" cx="50%" cy="50%" r="70%">
      <stop offset="0%" stop-color="#00FA9A"/>
      <stop offset="50%" stop-color="#96E6A1"/>
      <stop offset="100%" stop-color="#DC143C"/>
    </radialGradient>
  </defs>

  <!-- Scaled content -->
  <g transform="translate(960.0,540.0) scale(3.0) translate(-960.0,-540.0)">
    <!-- Background -->
    <rect width="1920" height="1080" fill="url(#bgGrad)"/>
    
    <!-- Leaves with clip-path -->
    <g clip-path="url(#complexClip)">
    <path d="M 1075.7467841884297,226.46297334874157 C 1108.4558650666593,253.72054074726623 1119.3588920260693,291.88113510520077 1075.7467841884297,335.4932429428402 C 1032.1346763507902,291.88113510520077 1043.0377033102002,253.72054074726623 1075.7467841884297,226.46297334874157 Z" fill="url(#leaf0)" opacity="0.23" transform="rotate(159.0 1075.7 281.0)"/>
    <path d="M 1301.7592538910214,793.023342610894 C 1342.9755211162083,827.3702319652162 1356.7142768579372,875.4558770612675 1301.7592538910214,930.4109000281832 C 1246.8042309241057,875.4558770612675 1260.5429866658346,827.3702319652162 1301.7592538910214,793.023342610894 Z" fill="url(#leaf1)" opacity="0.15" transform="rotate(231.0 1301.8 861.7)"/>
    <path d="M 1495.4585423148014,176.91148062363993 C 1531.3174848094814,206.79393270253976 1543.2704656410413,248.62936561299955 1495.4585423148014,296.4412889392393 C 1447.6466189885616,248.62936561299955 1459.5995998201215,206.79393270253976 1495.4585423148014,176.91148062363993 Z" fill="url(#leaf2)" opacity="0.17" transform="rotate(175.4 1495.5 236.7)"/>
    <path d="M 1425.3745897282447,505.9173878272645 C 1447.4311763035773,524.2978766400417 1454.7833718286884,550.0305609779299 1425.3745897282447,579.4393430783734 C 1395.965807627801,550.0305609779299 1403.318003152912,524.2978766400417 1425.3745897282447,505.9173878272645 Z" fill="url(#leaf3)" opacity="0.23" transform="rotate(195.1 1425.4 542.7)"/>
    <path d="M 465.0556868066849,112.78985851277457 C 485.91148342294,130.1696890263205 492.8634156283584,154.50145174528478 465.0556868066849,182.30918056695828 C 437.2479579850114,154.50145174528478 444.19989019042976,130.1696890263205 465.0556868066849,112.78985851277457 Z" fill="url(#leaf4)" opacity="0.20" transform="rotate(268.5 465.1 147.5)"/>
    <path d="M 783.2718982172028,347.6979900235168 C 806.7225647803764,367.2402121594949 814.5394536347676,394.5993231498641 783.2718982172028,425.866878567429 C 752.0043427996379,394.5993231498641 759.8212316540291,367.2402121594949 783.2718982172028,347.6979900235168 Z" fill="url(#leaf5)" opacity="0.19" transform="rotate(239.5 783.3 386.8)"/>
    <path d="M 1283.2776273546524,682.5254550508325 C 1316.371915921488,710.1040288565289 1327.4033454437665,748.7140321845036 1283.2776273546524,792.8397502736177 C 1239.1519092655383,748.7140321845036 1250.1833387878169,710.1040288565289 1283.2776273546524,682.5254550508325 Z" fill="url(#leaf6)" opacity="0.16" transform="rotate(337.2 1283.3 737.7)"/>
    <path d="M 1112.0339108761445,278.41936767283846 C 1132.8121602590998,295.73457549196786 1139.7382433867515,319.975866438749 1112.0339108761445,347.68019894935605 C 1084.3295783655376,319.975866438749 1091.2556614931893,295.73457549196786 1112.0339108761445,278.41936767283846 Z" fill="url(#leaf7)" opacity="0.23" transform="rotate(122.3 1112.0 313.0)"/>
    <path d="M 1585.9738432504084,706.9276654244895 C 1626.5969169333516,740.7802268269423 1640.1379414943328,788.1738127903761 1585.9738432504084,842.3379110343005 C 1531.809745006484,788.1738127903761 1545.3507695674652,740.7802268269423 1585.9738432504084,706.9276654244895 Z" fill="url(#leaf8)" opacity="0.21" transform="rotate(277.9 1586.0 774.6)"/>
    <path d="M 565.0027670866784,581.371101711746 C 597.237260254239,608.2331793513797 607.9820913100925,645.8400880468671 565.0027670866784,688.8194122702812 C 522.0234428632643,645.8400880468671 532.7682739191179,608.2331793513797 565.0027670866784,581.371101711746 Z" fill="url(#leaf9)" opacity="0.23" transform="rotate(139.9 565.0 635.1)"/>
    <path d="M 514.8740557515972,27.453687504376433 C 548.5012438659952,55.476344266374795 559.7103065707946,94.70806373317251 514.8740557515972,139.54431455236988 C 470.0378049323998,94.70806373317251 481.24686763719916,55.476344266374795 514.8740557515972,27.453687504376433 Z" fill="url(#leaf10)" opacity="0.21" transform="rotate(145.7 514.9 83.5)"/>
    <path d="M 1281.8401664769085,865.8990951934215 C 1315.913434631222,894.2934853220161 1327.2711906826598,934.0456315020484 1281.8401664769085,979.4766557077996 C 1236.4091422711572,934.0456315020484 1247.7668983225951,894.2934853220161 1281.8401664769085,865.8990951934215 Z" fill="url(#leaf11)" opacity="0.23" transform="rotate(1.2 1281.8 922.7)"/>
    <path d="M 1208.1920307890182,631.8458100568979 C 1238.3611594290155,656.9867505902289 1248.417535642348,692.1840673368924 1208.1920307890182,732.4095721902221 C 1167.9665259356884,692.1840673368924 1178.0229021490209,656.9867505902289 1208.1920307890182,631.8458100568979 Z" fill="url(#leaf12)" opacity="0.18" transform="rotate(14.1 1208.2 682.1)"/>
    <path d="M 1485.4842354510495,283.5758601432565 C 1524.5518435409738,316.13220021819336 1537.5743795709484,361.711076323105 1485.4842354510495,413.801220443004 C 1433.3940913311505,361.711076323105 1446.4166273611252,316.13220021819336 1485.4842354510495,283.5758601432565 Z" fill="url(#leaf13)" opacity="0.16" transform="rotate(145.7 1485.5 348.7)"/>
    <path d="M 668.3105127061593,485.19014611331045 C 713.2579049858729,522.6463063464051 728.2403690791107,575.0849306727375 668.3105127061593,635.014787045689 C 608.380656333208,575.0849306727375 623.3631204264458,522.6463063464051 668.3105127061593,485.19014611331045 Z" fill="url(#leaf14)" opacity="0.17" transform="rotate(134.1 668.3 560.1)"/>
    <path d="M 1026.3614219546953,204.86794281859605 C 1051.986302883334,226.2220102591283 1060.527929859547,256.1177046758734 1026.3614219546953,290.284212580725 C 992.1949140498438,256.1177046758734 1000.7365410260566,226.2220102591283 1026.3614219546953,204.86794281859605 Z" fill="url(#leaf15)" opacity="0.18" transform="rotate(47.4 1026.4 247.6)"/>
    <path d="M 454.42402502253753,191.90768062296087 C 472.74109023082906,207.17190162987046 478.8467786335929,228.5418110395439 454.42402502253753,252.96456465059924 C 430.00127141148215,228.5418110395439 436.106959814246,207.17190162987046 454.42402502253753,191.90768062296087 Z" fill="url(#leaf16)" opacity="0.20" transform="rotate(187.0 454.4 222.4)"/>
    <path d="M 1362.8402961532563,308.11749989572195 C 1381.0078930294726,323.2571639592355 1387.063758654878,344.45269364815454 1362.8402961532563,368.67615614977626 C 1338.6168336516346,344.45269364815454 1344.67269927704,323.2571639592355 1362.8402961532563,308.11749989572195 Z" fill="url(#leaf17)" opacity="0.25" transform="rotate(194.0 1362.8 338.4)"/>
    <path d="M 446.8016719098207,248.8962402452647 C 483.87068595473255,279.78708528269124 496.22702396970317,323.0342683350884 446.8016719098207,372.4596203949709 C 397.3763198499382,323.0342683350884 409.73265786490884,279.78708528269124 446.8016719098207,248.8962402452647 Z" fill="url(#leaf18)" opacity="0.22" transform="rotate(279.4 446.8 310.7)"/>
    <path d="M 1773.1374046755907,976.7530290703573 C 1797.710995137147,997.2310211216542 1805.9021919576658,1025.9002099934698 1773.1374046755907,1058.664997275545 C 1740.3726173935156,1025.9002099934698 1748.5638142140344,997.2310211216542 1773.1374046755907,976.7530290703573 Z" fill="url(#leaf19)" opacity="0.20" transform="rotate(188.9 1773.1 1017.7)"/>
    <path d="M 902.5859437592812,718.4673282821204 C 947.5747052716822,755.9579628757879 962.5709591091493,808.4448513069224 902.5859437592812,868.4298666567904 C 842.6009284094132,808.4448513069224 857.5971822468803,755.9579628757879 902.5859437592812,718.4673282821204 Z" fill="url(#leaf20)" opacity="0.22" transform="rotate(26.1 902.6 793.4)"/>
    <path d="M 1320.250235259977,699.4348411101047 C 1348.4054150128288,722.897490904148 1357.7904749304462,755.7452006158086 1320.250235259977,793.2854402862778 C 1282.7099955895078,755.7452006158086 1292.0950555071252,722.897490904148 1320.250235259977,699.4348411101047 Z" fill="url(#leaf21)" opacity="0.19" transform="rotate(291.0 1320.3 746.4)"/>
    <path d="M 370.68041382031646,480.8036357688768 C 416.74484077193824,519.1906582285617 432.0996497558122,572.9324896721204 370.68041382031646,634.3517256076161 C 309.2611778848207,572.9324896721204 324.6159868686947,519.1906582285617 370.68041382031646,480.8036357688768 Z" fill="url(#leaf22)" opacity="0.20" transform="rotate(299.6 370.7 557.6)"/>
    <path d="M 298.8201440344732,37.10633102868991 C 322.74264371277127,57.04174742727163 330.71681027220393,84.95133038528604 298.8201440344732,116.8479966230168 C 266.9234777967424,84.95133038528604 274.8976443561751,57.04174742727163 298.8201440344732,37.10633102868991 Z" fill="url(#leaf23)" opacity="0.18" transform="rotate(170.2 298.8 77.0)"/>
    <path d="M 247.59815230502596,387.7373110781848 C 271.83910065596854,407.9381013706369 279.9194167729494,436.2192077800699 247.59815230502596,468.5404722479933 C 215.27688783710255,436.2192077800699 223.3572039540834,407.9381013706369 247.59815230502596,387.7373110781848 Z" fill="url(#leaf24)" opacity="0.20" transform="rotate(48.1 247.6 428.1)"/>
    <path d="M 1770.2839871584827,42.76936938454418 C 1798.517939965186,66.2976633901304 1807.9292575674206,99.2372749979511 1770.2839871584827,136.88254540688905 C 1732.6387167495448,99.2372749979511 1742.0500343517792,66.2976633901304 1770.2839871584827,42.76936938454418 Z" fill="url(#leaf25)" opacity="0.16" transform="rotate(235.1 1770.3 89.8)"/>
    <path d="M 420.5527852781441,490.7854423582998 C 463.0619850893673,526.2097755343192 477.2317183597751,575.8038419807463 420.5527852781441,632.4827750623772 C 363.8738521965131,575.8038419807463 378.0435854669209,526.2097755343192 420.5527852781441,490.7854423582998 Z" fill="url(#leaf26)" opacity="0.16" transform="rotate(176.4 420.6 561.6)"/>
    <path d="M 1203.0630250110275,196.66430935493028 C 1234.2620865827616,222.66352733137535 1244.6617737733395,259.0624324983984 1203.0630250110275,300.66118126071046 C 1161.4642762487156,259.0624324983984 1171.8639634392935,222.66352733137535 1203.0630250110275,196.66430935493028 Z" fill="url(#leaf27)" opacity="0.23" transform="rotate(23.1 1203.1 248.7)"/>
    <path d="M 1272.656752238064,694.1808936838967 C 1300.6832277439337,717.5362899387881 1310.02538624589,750.233844695636 1272.656752238064,787.6024787034622 C 1235.2881182302378,750.233844695636 1244.6302767321943,717.5362899387881 1272.656752238064,694.1808936838967 Z" fill="url(#leaf28)" opacity="0.21" transform="rotate(66.6 1272.7 740.9)"/>
    <path d="M 1867.5643440160902,524.5228199577116 C 1902.7491000871514,553.8434500169294 1914.4773521108386,594.8923320998342 1867.5643440160902,641.8053401945826 C 1820.6513359213418,594.8923320998342 1832.379587945029,553.8434500169294 1867.5643440160902,524.5228199577116 Z" fill="url(#leaf29)" opacity="0.18" transform="rotate(1.2 1867.6 583.2)"/>
    <path d="M 1038.8992058734918,795.4838810360254 C 1074.777143344094,825.3821622615272 1086.7364558342947,867.2397559772298 1038.8992058734918,915.0770059380327 C 991.0619559126889,867.2397559772298 1003.0212684028896,825.3821622615272 1038.8992058734918,795.4838810360254 Z" fill="url(#leaf0)" opacity="0.23" transform="rotate(274.4 1038.9 855.3)"/>
    <path d="M 1479.1512348708445,322.2176983653091 C 1517.9640834622153,354.56173885811813 1530.9016996593389,399.84339554805075 1479.1512348708445,451.5938603365452 C 1427.4007700823502,399.84339554805075 1440.3383862794738,354.56173885811813 1479.1512348708445,322.2176983653091 Z" fill="url(#leaf1)" opacity="0.20" transform="rotate(201.9 1479.2 386.9)"/>
    <path d="M 326.32362384090817,253.87233243061905 C 350.20445300505565,273.773023400742 358.16472939310484,301.6339907589141 326.32362384090817,333.47509631111075 C 294.4825182887115,301.6339907589141 302.4427946767607,273.773023400742 326.32362384090817,253.87233243061905 Z" fill="url(#leaf2)" opacity="0.20" transform="rotate(146.8 326.3 293.7)"/>
    <path d="M 825.6870471217052,516.684998376618 C 866.2509701098709,550.4882675334227 879.7722777725928,597.8128443529494 825.6870471217052,651.8980750038369 C 771.6018164708175,597.8128443529494 785.1231241335395,550.4882675334227 825.6870471217052,516.684998376618 Z" fill="url(#leaf3)" opacity="0.20" transform="rotate(288.8 825.7 584.3)"/>
    <path d="M 1373.4092275987582,56.68523273436359 C 1403.3976432242403,81.675579088932 1413.3937817660676,116.66206398532778 1373.4092275987582,156.64661815263725 C 1333.4246734314488,116.66206398532778 1343.4208119732762,81.675579088932 1373.4092275987582,56.68523273436359 Z" fill="url(#leaf4)" opacity="0.17" transform="rotate(266.2 1373.4 106.7)"/>
    <path d="M 399.2986065150719,88.38629180797739 C 419.1225970891081,104.90628395300757 425.7305939471202,128.03427295604985 399.2986065150719,154.46626038809814 C 372.86661908302364,128.03427295604985 379.4746159410357,104.90628395300757 399.2986065150719,88.38629180797739 Z" fill="url(#leaf5)" opacity="0.23" transform="rotate(235.5 399.3 121.4)"/>
    <path d="M 1198.240407319563,804.2237721101665 C 1237.5140747937467,836.951828338653 1250.6052972851412,882.7711070585339 1198.240407319563,935.1359970241122 C 1145.8755173539848,882.7711070585339 1158.9667398453794,836.951828338653 1198.240407319563,804.2237721101665 Z" fill="url(#leaf6)" opacity="0.23" transform="rotate(35.7 1198.2 869.7)"/>
    <path d="M 1595.065479924737,321.413207693486 C 1638.074061251379,357.25369213235433 1652.4102550269263,407.43037034676996 1595.065479924737,464.7751454489593 C 1537.7207048225478,407.43037034676996 1552.0568985980951,357.25369213235433 1595.065479924737,321.413207693486 Z" fill="url(#leaf7)" opacity="0.16" transform="rotate(340.3 1595.1 393.1)"/>
    <path d="M 327.07555559236346,366.46996815841214 C 366.04975017600225,398.94846364477786 379.0411483705485,444.4183573256898 327.07555559236346,496.3839501038749 C 275.1099628141784,444.4183573256898 288.10136100872467,398.94846364477786 327.07555559236346,366.46996815841214 Z" fill="url(#leaf8)" opacity="0.22" transform="rotate(299.8 327.1 431.4)"/>
    <path d="M 1057.986704528153,554.2580006718595 C 1081.430045132618,573.7941178422469 1089.244492000773,601.1446818807894 1057.986704528153,632.4024693534095 C 1026.728917055533,601.1446818807894 1034.543363923688,573.7941178422469 1057.986704528153,554.2580006718595 Z" fill="url(#leaf9)" opacity="0.18" transform="rotate(343.4 1058.0 593.3)"/>
    <path d="M 1556.0110726064374,469.8757990990138 C 1574.7552405574013,485.4959390581503 1581.0032965410558,507.36413500094136 1556.0110726064374,532.3563589355597 C 1531.0188486718191,507.36413500094136 1537.2669046554736,485.4959390581503 1556.0110726064374,469.8757990990138 Z" fill="url(#leaf10)" opacity="0.23" transform="rotate(284.9 1556.0 501.1)"/>
    <path d="M 1210.7901633934805,815.2878770715822 C 1256.9508756610794,853.7551372945812 1272.337779750279,907.6093016067798 1210.7901633934805,969.1569179635783 C 1149.242547036682,907.6093016067798 1164.6294511258816,853.7551372945812 1210.7901633934805,815.2878770715822 Z" fill="url(#leaf11)" opacity="0.22" transform="rotate(323.2 1210.8 892.2)"/>
    <path d="M 1084.8549223239627,771.8293439844404 C 1121.005299555143,801.9546583437574 1133.0554252988697,844.1300984468011 1084.8549223239627,892.3306014217083 C 1036.6544193490556,844.1300984468011 1048.7045450927824,801.9546583437574 1084.8549223239627,771.8293439844404 Z" fill="url(#leaf12)" opacity="0.15" transform="rotate(317.0 1084.9 832.1)"/>
    <path d="M 1033.7078821149244,461.6425101835365 C 1080.4264648468916,500.57466246017594 1095.9993257575475,555.0796756474712 1033.7078821149244,617.3711192900943 C 971.4164384723013,555.0796756474712 986.989299382957,500.57466246017594 1033.7078821149244,461.6425101835365 Z" fill="url(#leaf13)" opacity="0.25" transform="rotate(110.8 1033.7 539.5)"/>
    <path d="M 745.6777698312461,423.86726118668014 C 789.0664195860392,460.02446931567437 803.5293028376368,510.6445606962663 745.6777698312461,568.496093702657 C 687.8262368248554,510.6445606962663 702.2891200764531,460.02446931567437 745.6777698312461,423.86726118668014 Z" fill="url(#leaf14)" opacity="0.24" transform="rotate(205.4 745.7 496.2)"/>
    <path d="M 1222.4403635557467,255.74069511195557 C 1251.0900769658963,279.6154562870803 1260.639981435946,313.0401219322548 1222.4403635557467,351.23973981245433 C 1184.2407456755473,313.0401219322548 1193.790650145597,279.6154562870803 1222.4403635557467,255.74069511195557 Z" fill="url(#leaf15)" opacity="0.24" transform="rotate(78.6 1222.4 303.5)"/>
    <path d="M 998.5554887228601,626.2830755836775 C 1030.0572371182182,652.5345325798091 1040.5578199166707,689.2865723743935 998.5554887228601,731.2889035682041 C 956.5531575290495,689.2865723743935 967.0537403275022,652.5345325798091 998.5554887228601,626.2830755836775 Z" fill="url(#leaf16)" opacity="0.16" transform="rotate(71.9 998.6 678.8)"/>
    <path d="M 385.901794030077,980.8656660982873 C 405.2692343764611,997.005199720274 411.7250478252558,1019.6005467910555 385.901794030077,1045.4238005862344 C 360.0785402348982,1019.6005467910555 366.53435368369287,997.005199720274 385.901794030077,980.8656660982873 Z" fill="url(#leaf17)" opacity="0.24" transform="rotate(176.2 385.9 1013.1)"/>
    <path d="M 685.377936052928,676.1054756866929 C 726.3384932684896,710.2392733663277 739.9920123403435,758.0265901178162 685.377936052928,812.6406664052317 C 630.7638597655125,758.0265901178162 644.4173788373664,710.2392733663277 685.377936052928,676.1054756866929 Z" fill="url(#leaf18)" opacity="0.21" transform="rotate(50.7 685.4 744.4)"/>
    <path d="M 158.97415911795747,180.32526295317933 C 192.31507897570592,208.10936283463639 203.42871892828873,247.00710266867623 158.97415911795747,291.4616624790075 C 114.51959930762621,247.00710266867623 125.63323926020902,208.10936283463639 158.97415911795747,180.32526295317933 Z" fill="url(#leaf19)" opacity="0.17" transform="rotate(188.4 159.0 235.9)"/>
    <path d="M 700.1626919497076,642.6580599201834 C 735.736611855568,672.3029931750671 747.5945851575215,713.8058997319042 700.1626919497076,761.237792939718 C 652.7307987418936,713.8058997319042 664.5887720438471,672.3029931750671 700.1626919497076,642.6580599201834 Z" fill="url(#leaf20)" opacity="0.24" transform="rotate(291.7 700.2 701.9)"/>
    <path d="M 522.2059817935041,147.81619161204551 C 565.4362334096356,183.84140129215515 579.8463172816795,234.27669484430865 522.2059817935041,291.91703033248405 C 464.56564630532864,234.27669484430865 478.9757301773725,183.84140129215515 522.2059817935041,147.81619161204551 Z" fill="url(#leaf21)" opacity="0.22" transform="rotate(267.2 522.2 219.9)"/>
    <path d="M 1278.4831804576256,43.716438731511076 C 1311.3223842674392,71.0824419063558 1322.2687855373772,109.39484635113843 1278.4831804576256,153.18045143089 C 1234.697575377874,109.39484635113843 1245.643976647812,71.0824419063558 1278.4831804576256,43.716438731511076 Z" fill="url(#leaf22)" opacity="0.15" transform="rotate(124.6 1278.5 98.4)"/>
    <path d="M 1584.8979759033687,765.3417262764676 C 1628.5247282567711,801.6973532376363 1643.0669790412385,852.5952309832725 1584.8979759033687,910.7642341211424 C 1526.7289727654988,852.5952309832725 1541.2712235499662,801.6973532376363 1584.8979759033687,765.3417262764676 Z" fill="url(#leaf23)" opacity="0.17" transform="rotate(18.2 1584.9 838.1)"/>
    <path d="M 113.4205732867533,25.739398635129177 C 154.67310217391446,60.11650604109682 168.42394513630154,108.24445640945152 113.4205732867533,163.24782825899973 C 58.417201437205065,108.24445640945152 72.16804439959213,60.11650604109682 113.4205732867533,25.739398635129177 Z" fill="url(#leaf24)" opacity="0.23" transform="rotate(111.8 113.4 94.5)"/>
    <path d="M 1807.6906924130233,398.7549128926747 C 1842.7462339009392,427.96786413260463 1854.4314143969111,468.86599586850656 1807.6906924130233,515.6067178523945 C 1760.9499704291354,468.86599586850656 1772.6351509251074,427.96786413260463 1807.6906924130233,398.7549128926747 Z" fill="url(#leaf25)" opacity="0.17" transform="rotate(264.7 1807.7 457.2)"/>
    <path d="M 157.23221010883486,679.8656630861863 C 200.25772282483,715.7202570161822 214.5995603968284,765.9166885181767 157.23221010883486,823.2840388061702 C 99.86485982084133,765.9166885181767 114.20669739283971,715.7202570161822 157.23221010883486,679.8656630861863 Z" fill="url(#leaf26)" opacity="0.19" transform="rotate(293.5 157.2 751.6)"/>
    <path d="M 419.72482398738066,333.79545051175455 C 465.3626231209328,371.82694978971466 480.5752228321169,425.0710487788589 419.72482398738066,485.9214476235951 C 358.87442514264444,425.0710487788589 374.0870248538285,371.82694978971466 419.72482398738066,333.79545051175455 Z" fill="url(#leaf27)" opacity="0.25" transform="rotate(356.3 419.7 409.9)"/>
    <path d="M 1725.4762673824332,819.1272835897893 C 1750.491463037369,839.9732799689023 1758.829861589014,869.1576748996605 1725.4762673824332,902.5112691062412 C 1692.1226731758525,869.1576748996605 1700.4610717274975,839.9732799689023 1725.4762673824332,819.1272835897893 Z" fill="url(#leaf28)" opacity="0.17" transform="rotate(344.1 1725.5 860.8)"/>
    <path d="M 1299.1096599390817,389.3644709654987 C 1342.7477475376177,425.7295439642786 1357.2937767371295,476.64064616257053 1299.1096599390817,534.8247629606185 C 1240.9255431410338,476.64064616257053 1255.4715723405457,425.7295439642786 1299.1096599390817,389.3644709654987 Z" fill="url(#leaf29)" opacity="0.17" transform="rotate(48.3 1299.1 462.1)"/>
    <path d="M 1114.2442590179958,163.8342051092643 C 1145.0830756346277,189.53321895645763 1155.362681173505,225.51183834252828 1114.2442590179958,266.6302604980376 C 1073.1258368624865,225.51183834252828 1083.4054424013639,189.53321895645763 1114.2442590179958,163.8342051092643 Z" fill="url(#leaf0)" opacity="0.19" transform="rotate(9.3 1114.2 215.2)"/>
    <path d="M 908.9619549736178,351.3234695474746 C 943.1973843832195,379.852994055476 954.6091941864202,419.79432836667803 908.9619549736178,465.4415675794803 C 863.3147157608155,419.79432836667803 874.7265255640161,379.852994055476 908.9619549736178,351.3234695474746 Z" fill="url(#leaf1)" opacity="0.18" transform="rotate(210.3 909.0 408.4)"/>
    <path d="M 1025.7938415278925,977.1840697809483 C 1054.3755416802521,1001.0021532412482 1063.902775064372,1034.3474700856677 1025.7938415278925,1072.4564036221473 C 987.6849079914128,1034.3474700856677 997.2121413755328,1001.0021532412482 1025.7938415278925,977.1840697809483 Z" fill="url(#leaf2)" opacity="0.17" transform="rotate(125.7 1025.8 1024.8)"/>
    <path d="M 386.2169194846083,59.5447879825907 C 407.43875161765106,77.22964809345967 414.5126956619987,101.98845224867625 386.2169194846083,130.28422842606662 C 357.9211433072179,101.98845224867625 364.99508735156553,77.22964809345967 386.2169194846083,59.5447879825907 Z" fill="url(#leaf3)" opacity="0.19" transform="rotate(11.7 386.2 94.9)"/>
    <path d="M 1561.0370559052014,877.1728806431713 C 1594.6419030694144,905.1769199466822 1605.8435187908187,944.3825749715974 1561.0370559052014,989.1890378572148 C 1516.2305930195841,944.3825749715974 1527.4322087409885,905.1769199466822 1561.0370559052014,877.1728806431713 Z" fill="url(#leaf4)" opacity="0.20" transform="rotate(170.2 1561.0 933.2)"/>
    <path d="M 604.8243610213327,734.131383632412 C 644.5219945876096,767.2127449376428 657.7545391097019,813.5266507649659 604.8243610213327,866.4568288533351 C 551.8941829329635,813.5266507649659 565.1267274550559,767.2127449376428 604.8243610213327,734.131383632412 Z" fill="url(#leaf5)" opacity="0.25" transform="rotate(210.7 604.8 800.3)"/>
    <path d="M 1605.433033877502,816.099714054616 C 1643.7632333003432,848.0415469069837 1656.5399664412903,892.7601129002984 1605.433033877502,943.8670454640867 C 1554.326101313714,892.7601129002984 1567.102834454661,848.0415469069837 1605.433033877502,816.099714054616 Z" fill="url(#leaf6)" opacity="0.25" transform="rotate(150.2 1605.4 880.0)"/>
    <path d="M 318.6893943438999,566.2878094787035 C 362.94411970289076,603.1667472778626 377.6956948225544,654.7972601966852 318.6893943438999,713.8035606753398 C 259.6830938652454,654.7972601966852 274.434668984909,603.1667472778626 318.6893943438999,566.2878094787035 Z" fill="url(#leaf7)" opacity="0.22" transform="rotate(260.3 318.7 640.0)"/>
    <path d="M 313.27633130904337,740.3442648440288 C 339.65363783739264,762.3253536176531 348.4460733468424,793.0988779007273 313.27633130904337,828.2686199385263 C 278.10658927124433,793.0988779007273 286.8990247806941,762.3253536176531 313.27633130904337,740.3442648440288 Z" fill="url(#leaf8)" opacity="0.19" transform="rotate(175.6 313.3 784.3)"/>
    <path d="M 1307.056558407443,261.0189723677951 C 1343.893276577769,291.71623750973356 1356.1721826345445,334.6924087084474 1307.056558407443,383.8080329355489 C 1257.9409341803414,334.6924087084474 1270.2198402371168,291.71623750973356 1307.056558407443,261.0189723677951 Z" fill="url(#leaf9)" opacity="0.16" transform="rotate(218.9 1307.1 322.4)"/>
    <path d="M 864.9818325570019,18.17543829929849 C 896.4880785378676,44.43064328335329 906.9901605314896,81.18793026103 864.9818325570019,123.19625823551769 C 822.9735045825142,81.18793026103 833.4755865761362,44.43064328335329 864.9818325570019,18.17543829929849 Z" fill="url(#leaf10)" opacity="0.19" transform="rotate(179.8 865.0 70.7)"/>
    <path d="M 588.8650649925735,351.11547975908707 C 629.6382171021185,385.09310651704124 643.2292678053001,432.6617839781771 588.8650649925735,487.02598679090374 C 534.5008621798469,432.6617839781771 548.0919128830285,385.09310651704124 588.8650649925735,351.11547975908707 Z" fill="url(#leaf11)" opacity="0.24" transform="rotate(92.5 588.9 419.1)"/>
    <path d="M 1683.6453038463574,308.8558786286725 C 1718.130391036639,337.5934512872403 1729.625420100066,377.82605300923535 1683.6453038463574,423.80616926294397 C 1637.6651875926486,377.82605300923535 1649.1602166560758,337.5934512872403 1683.6453038463574,308.8558786286725 Z" fill="url(#leaf12)" opacity="0.15" transform="rotate(47.6 1683.6 366.3)"/>
    <path d="M 134.27895154049077,883.5888659614789 C 174.36507118557063,916.9939656657122 187.7271110672639,963.7611052516386 134.27895154049077,1017.2092647784118 C 80.83079201371763,963.7611052516386 94.19283189541092,916.9939656657122 134.27895154049077,883.5888659614789 Z" fill="url(#leaf13)" opacity="0.17" transform="rotate(26.3 134.3 950.4)"/>
    <path d="M 860.6045619184815,262.24257160218576 C 890.09939900217,286.8216025052595 899.9310113633995,321.2322457695627 860.6045619184815,360.55869521448074 C 821.2781124735635,321.2322457695627 831.109724834793,286.8216025052595 860.6045619184815,262.24257160218576 Z" fill="url(#leaf14)" opacity="0.18" transform="rotate(26.7 860.6 311.4)"/>
    <path d="M 472.2547949738592,631.0506590110749 C 514.9751698731153,666.6509714271217 529.2152948395341,716.4914088095873 472.2547949738592,773.4519086752621 C 415.2942951081843,716.4914088095873 429.534420074603,666.6509714271217 472.2547949738592,631.0506590110749 Z" fill="url(#leaf15)" opacity="0.16" transform="rotate(125.9 472.3 702.3)"/>
    <path d="M 1098.0245379062014,183.74083812694386 C 1143.1846537060394,221.37426796014225 1158.238025639319,274.06106972662 1098.0245379062014,334.2745574597374 C 1037.811050173084,274.06106972662 1052.8644221063635,221.37426796014225 1098.0245379062014,183.74083812694386 Z" fill="url(#leaf16)" opacity="0.22" transform="rotate(97.6 1098.0 259.0)"/>
    <path d="M 1148.1561807629885,145.51877973050435 C 1193.3096751833875,183.14669174750352 1208.360839990187,235.82576857130238 1148.1561807629885,296.030427798501 C 1087.9515215357899,235.82576857130238 1103.0026863425894,183.14669174750352 1148.1561807629885,145.51877973050435 Z" fill="url(#leaf17)" opacity="0.23" transform="rotate(331.1 1148.2 220.8)"/>
    <path d="M 687.9750162417944,472.71108469497324 C 726.1811853639858,504.54955896346615 738.916575071383,549.1234229393563 687.9750162417944,600.0649817689449 C 637.0334574122057,549.1234229393563 649.7688471196029,504.54955896346615 687.9750162417944,472.71108469497324 Z" fill="url(#leaf18)" opacity="0.20" transform="rotate(101.9 688.0 536.4)"/>
    <path d="M 791.3921278514503,759.8018025539853 C 812.1508930551029,777.1007735570292 819.0704814563205,801.3193329612907 791.3921278514503,828.997686566161 C 763.71377424658,801.3193329612907 770.6333626477976,777.1007735570292 791.3921278514503,759.8018025539853 Z" fill="url(#leaf19)" opacity="0.18" transform="rotate(166.9 791.4 794.4)"/>
    <path d="M 1325.1864862798368,157.95840108895814 C 1346.8456308260004,176.00768821076107 1354.0653456747216,201.27669018128518 1325.1864862798368,230.15554957616988 C 1296.307626884952,201.27669018128518 1303.5273417336732,176.00768821076107 1325.1864862798368,157.95840108895814 Z" fill="url(#leaf20)" opacity="0.23" transform="rotate(22.3 1325.2 194.1)"/>
    <path d="M 1260.4414118791087,606.8343548698987 C 1300.659337490971,640.3492928797839 1314.065312694925,687.2702060936231 1260.4414118791087,740.8941069094393 C 1206.8175110632924,687.2702060936231 1220.2234862672465,640.3492928797839 1260.4414118791087,606.8343548698987 Z" fill="url(#leaf21)" opacity="0.24" transform="rotate(306.7 1260.4 673.9)"/>
    <path d="M 820.0733132961504,596.7060387273324 C 862.4540946064158,632.0233564858868 876.5810217098375,681.4676013478629 820.0733132961504,737.97530976155 C 763.5656048824634,681.4676013478629 777.6925319858851,632.0233564858868 820.0733132961504,596.7060387273324 Z" fill="url(#leaf22)" opacity="0.17" transform="rotate(308.6 820.1 667.3)"/>
    <path d="M 1590.973565135687,729.6525871397107 C 1634.3656242831398,765.8126364292546 1648.8296439989574,816.4367054346161 1590.973565135687,874.2927842978863 C 1533.1174862724167,816.4367054346161 1547.5815059882343,765.8126364292546 1590.973565135687,729.6525871397107 Z" fill="url(#leaf23)" opacity="0.25" transform="rotate(296.0 1591.0 802.0)"/>
    <path d="M 167.29600488868456,389.10571581381714 C 204.13438693589143,419.8043675198229 216.41384761829372,462.7824799082309 167.29600488868456,511.9003226378401 C 118.17816215907541,462.7824799082309 130.4576228414777,419.8043675198229 167.29600488868456,389.10571581381714 Z" fill="url(#leaf24)" opacity="0.18" transform="rotate(296.9 167.3 450.5)"/>
    <path d="M 1390.7032607449157,354.21620030813483 C 1433.939018957956,390.2459988190017 1448.3509383623027,440.68771673421537 1390.7032607449157,498.3353943516024 C 1333.0555831275287,440.68771673421537 1347.4675025318754,390.2459988190017 1390.7032607449157,354.21620030813483 Z" fill="url(#leaf25)" opacity="0.16" transform="rotate(22.8 1390.7 426.3)"/>
    <path d="M 183.63859606583787,925.7093933191002 C 226.7579778520898,961.6422114743101 241.13110511417378,1011.948156891604 183.63859606583787,1069.44066593994 C 126.14608701750197,1011.948156891604 140.51921427958595,961.6422114743101 183.63859606583787,925.7093933191002 Z" fill="url(#leaf26)" opacity="0.16" transform="rotate(307.5 183.6 997.6)"/>
    <path d="M 890.8466976328286,644.0885235653391 C 930.7832025795769,677.368944354296 944.0953708951597,723.9615334588357 890.8466976328286,777.2102067211667 C 837.5980243704976,723.9615334588357 850.9101926860803,677.368944354296 890.8466976328286,644.0885235653391 Z" fill="url(#leaf27)" opacity="0.24" transform="rotate(253.4 890.8 710.6)"/>
    <path d="M 191.74806493043496,859.768411890483 C 224.90235910221494,887.3969903669663 235.95379049280828,926.0770002340429 191.74806493043496,970.2827257964162 C 147.54233936806165,926.0770002340429 158.59377075865498,887.3969903669663 191.74806493043496,859.768411890483 Z" fill="url(#leaf28)" opacity="0.22" transform="rotate(335.0 191.7 915.0)"/>
    <path d="M 225.35706208149355,553.7126528852308 C 262.3468935192741,584.5375124167145 274.6768373318676,627.6923157607918 225.35706208149355,677.0120910111658 C 176.03728683111953,627.6923157607918 188.36723064371304,584.5375124167145 225.35706208149355,553.7126528852308 Z" fill="url(#leaf29)" opacity="0.24" transform="rotate(104.0 225.4 615.4)"/>
    <path d="M 1649.0529706306768,300.65241864270934 C 1679.5663224564883,326.0802118308857 1689.737439731759,361.6791222943325 1649.0529706306768,402.3635913954146 C 1608.3685015295946,361.6791222943325 1618.5396188048653,326.0802118308857 1649.0529706306768,300.65241864270934 Z" fill="url(#leaf0)" opacity="0.16" transform="rotate(244.9 1649.1 351.5)"/>
    <path d="M 146.8544401283023,333.5162347483309 C 182.46423361383293,363.1910626529397 194.33416477567647,404.73582171939216 146.8544401283023,452.2155463667663 C 99.37471548092809,404.73582171939216 111.24464664277164,363.1910626529397 146.8544401283023,333.5162347483309 Z" fill="url(#leaf1)" opacity="0.17" transform="rotate(255.1 146.9 392.9)"/>
    <path d="M 1722.7620730422454,43.70299812811335 C 1757.0065963829286,72.24010091201589 1768.4214374964895,112.19204480947947 1722.7620730422454,157.85140926372355 C 1677.1027085880014,112.19204480947947 1688.5175497015623,72.24010091201589 1722.7620730422454,43.70299812811335 Z" fill="url(#leaf2)" opacity="0.24" transform="rotate(213.1 1722.8 100.8)"/>
    <path d="M 1054.9161647655696,27.96025804477118 C 1088.118338579255,55.628736222842164 1099.1857298504833,94.36460567214155 1054.9161647655696,138.63417075705513 C 1010.6465996806561,94.36460567214155 1021.7139909518845,55.628736222842164 1054.9161647655696,27.96025804477118 Z" fill="url(#leaf3)" opacity="0.20" transform="rotate(257.9 1054.9 83.3)"/>
    <path d="M 604.8089945662612,679.8674880966065 C 623.4088945895105,695.3674047826476 629.608861263927,717.0672881431052 604.8089945662612,741.8671548407709 C 580.0091278685953,717.0672881431052 586.2090945430118,695.3674047826476 604.8089945662612,679.8674880966065 Z" fill="url(#leaf4)" opacity="0.17" transform="rotate(123.5 604.8 710.9)"/>
    <path d="M 501.05522892797075,513.2885634026163 C 542.0020276279853,547.4108956526285 555.6509605279902,595.1821608026455 501.05522892797075,649.777892402665 C 446.4594973279513,595.1821608026455 460.10843022795615,547.4108956526285 501.05522892797075,513.2885634026163 Z" fill="url(#leaf5)" opacity="0.24" transform="rotate(19.7 501.1 581.5)"/>
    <path d="M 1231.5155932608402,632.0348348102405 C 1268.6191562158415,662.9544706060749 1280.9870105341754,706.2419607202431 1231.5155932608402,755.7133779935782 C 1182.044175987505,706.2419607202431 1194.412030305839,662.9544706060749 1231.5155932608402,632.0348348102405 Z" fill="url(#leaf6)" opacity="0.22" transform="rotate(189.4 1231.5 693.9)"/>
    <path d="M 1849.0772552917988,876.938333840806 C 1893.4345489826753,913.9027452498697 1908.2203135463008,965.652921222559 1849.0772552917988,1024.7959794770609 C 1789.9341970372968,965.652921222559 1804.7199616009223,913.9027452498697 1849.0772552917988,876.938333840806 Z" fill="url(#leaf7)" opacity="0.17" transform="rotate(123.5 1849.1 950.9)"/>
    <path d="M 960.7504677297513,799.4147871888306 C 980.95144054197,816.2489311990129 987.6850981460428,839.8167328132679 960.7504677297513,866.7513632295595 C 933.8158373134598,839.8167328132679 940.5494949175327,816.2489311990129 960.7504677297513,799.4147871888306 Z" fill="url(#leaf8)" opacity="0.23" transform="rotate(27.7 960.8 833.1)"/>
    <path d="M 1130.4145445279673,275.12894138870956 C 1170.9619727383074,308.91846489732626 1184.477782141754,356.22379780938957 1130.4145445279673,410.28703542317623 C 1076.3513069141807,356.22379780938957 1089.8671163176273,308.91846489732626 1130.4145445279673,275.12894138870956 Z" fill="url(#leaf9)" opacity="0.22" transform="rotate(356.0 1130.4 342.7)"/>
    <path d="M 100.67789922232457,740.3092710286786 C 147.61833783275176,779.4263032040346 163.26515070289418,834.1901482495331 100.67789922232457,896.7773997301027 C 38.09064774175495,834.1901482495331 53.73746061189736,779.4263032040346 100.67789922232457,740.3092710286786 Z" fill="url(#leaf10)" opacity="0.22" transform="rotate(298.0 100.7 818.5)"/>
    <path d="M 931.8710283618848,65.03598154238529 C 960.8719042304656,89.20337809953594 970.5388628533258,123.03773327954687 931.8710283618848,161.70556777098793 C 893.2031938704438,123.03773327954687 902.870152493304,89.20337809953594 931.8710283618848,65.03598154238529 Z" fill="url(#leaf11)" opacity="0.17" transform="rotate(52.5 931.9 113.4)"/>
    <path d="M 773.4281187725031,687.7104356759224 C 807.1918325465219,715.8468638209381 818.4464038045281,755.2378632239601 773.4281187725031,800.2561482559851 C 728.4098337404781,755.2378632239601 739.6644049984843,715.8468638209381 773.4281187725031,687.7104356759224 Z" fill="url(#leaf12)" opacity="0.17" transform="rotate(171.3 773.4 744.0)"/>
    <path d="M 219.5638850179292,512.7520180575629 C 251.2292326252936,539.1398077303664 261.7843484944151,576.0827132722916 219.5638850179292,618.3031767487774 C 177.34342154144332,576.0827132722916 187.8985374105648,539.1398077303664 219.5638850179292,512.7520180575629 Z" fill="url(#leaf13)" opacity="0.16" transform="rotate(186.9 219.6 565.5)"/>
    <path d="M 1246.5817548347286,452.11667713967194 C 1291.6866038510784,489.70405131996347 1306.721553523195,542.3263751723715 1246.5817548347286,602.4661738608379 C 1186.441956146262,542.3263751723715 1201.4769058183788,489.70405131996347 1246.5817548347286,452.11667713967194 Z" fill="url(#leaf14)" opacity="0.16" transform="rotate(179.1 1246.6 527.3)"/>
    <path d="M 794.065005514745,45.85359570681483 C 814.4645555771752,62.85322075884 821.2644055979854,86.65269583167525 794.065005514745,113.85209591491552 C 766.8656054315047,86.65269583167525 773.6654554523149,62.85322075884 794.065005514745,45.85359570681483 Z" fill="url(#leaf15)" opacity="0.23" transform="rotate(135.5 794.1 79.9)"/>
    <path d="M 1206.173716659836,204.6239256454779 C 1230.592440376239,224.97286207581374 1238.7320149483733,253.46137307828388 1206.173716659836,286.01967136682117 C 1173.6154183712986,253.46137307828388 1181.7549929434329,224.97286207581374 1206.173716659836,204.6239256454779 Z" fill="url(#leaf16)" opacity="0.15" transform="rotate(210.8 1206.2 245.3)"/>
    <path d="M 1323.2214264143931,813.2279341898201 C 1345.290445847797,831.6187837176566 1352.6467856589315,857.3659730566278 1323.2214264143931,886.7913323011663 C 1293.7960671698547,857.3659730566278 1301.1524069809893,831.6187837176566 1323.2214264143931,813.2279341898201 Z" fill="url(#leaf17)" opacity="0.22" transform="rotate(315.3 1323.2 850.0)"/>
    <path d="M 754.5020652341125,517.2780705865607 C 777.4161795421679,536.3731658432736 785.0542176448531,563.1062992026716 754.5020652341125,593.6584516134121 C 723.9499128233718,563.1062992026716 731.587950926057,536.3731658432736 754.5020652341125,517.2780705865607 Z" fill="url(#leaf18)" opacity="0.22" transform="rotate(318.0 754.5 555.5)"/>
    <path d="M 1544.2481259449823,630.8264819539804 C 1581.6097405446599,661.9611607870451 1594.0636120778859,705.5497111533356 1544.2481259449823,755.365197286239 C 1494.4326398120788,705.5497111533356 1506.8865113453048,661.9611607870451 1544.2481259449823,630.8264819539804 Z" fill="url(#leaf19)" opacity="0.17" transform="rotate(252.2 1544.2 693.1)"/>
    <path d="M 107.77426091711294,720.9600582998565 C 144.72404544104418,751.7515454031326 157.04064028235462,794.8596273477191 107.77426091711294,844.1260067129607 C 58.50788155187127,794.8596273477191 70.8244763931817,751.7515454031326 107.77426091711294,720.9600582998565 Z" fill="url(#leaf20)" opacity="0.19" transform="rotate(273.6 107.8 782.5)"/>
    <path d="M 1737.699213018627,726.2890096623289 C 1760.1284340515526,744.980027189767 1767.6048410625278,771.1474517281803 1737.699213018627,801.0530797720812 C 1707.7935849747262,771.1474517281803 1715.2699919857014,744.980027189767 1737.699213018627,726.2890096623289 Z" fill="url(#leaf21)" opacity="0.24" transform="rotate(103.3 1737.7 763.7)"/>
    <path d="M 744.5570621443427,440.8349085303889 C 792.3713414314346,480.68014126963214 808.309434527132,536.4634671045728 744.5570621443427,600.2158394873621 C 680.8046897615534,536.4634671045728 696.7427828572507,480.68014126963214 744.5570621443427,440.8349085303889 Z" fill="url(#leaf22)" opacity="0.23" transform="rotate(262.7 744.6 520.5)"/>
    <path d="M 563.9218682813128,349.0481790028625 C 611.6753929394681,388.8427828846587 627.5932344921865,444.55522831917324 563.9218682813128,508.226594530047 C 500.250502070439,444.55522831917324 516.1683436231574,388.8427828846587 563.9218682813128,349.0481790028625 Z" fill="url(#leaf23)" opacity="0.21" transform="rotate(57.8 563.9 428.6)"/>
    <path d="M 983.2200497156006,340.3038727245948 C 1030.2873821085363,379.5266497187079 1045.9764929061816,434.4385375104663 983.2200497156006,497.1949807010473 C 920.4636065250196,434.4385375104663 936.1527173226648,379.5266497187079 983.2200497156006,340.3038727245948 Z" fill="url(#leaf24)" opacity="0.18" transform="rotate(299.0 983.2 418.7)"/>
    <path d="M 149.22038323763783,840.0798570276352 C 184.2974998905206,869.3107875717042 195.98987210814823,910.2340903334008 149.22038323763783,957.0035792039112 C 102.45089436712745,910.2340903334008 114.14326658475505,869.3107875717042 149.22038323763783,840.0798570276352 Z" fill="url(#leaf25)" opacity="0.22" transform="rotate(129.2 149.2 898.5)"/>
    <path d="M 812.0804179977752,721.1540490649792 C 848.3525857207821,751.3808555008184 860.4433082951177,793.6983845109932 812.0804179977752,842.0612748083357 C 763.7175277004326,793.6983845109932 775.8082502747682,751.3808555008184 812.0804179977752,721.1540490649792 Z" fill="url(#leaf26)" opacity="0.22" transform="rotate(91.4 812.1 781.6)"/>
    <path d="M 1320.223953448087,31.793380530416286 C 1362.2540258708266,66.81844088269915 1376.2640500117395,115.85352537589516 1320.223953448087,171.89362193954776 C 1264.1838568844346,115.85352537589516 1278.1938810253475,66.81844088269915 1320.223953448087,31.793380530416286 Z" fill="url(#leaf27)" opacity="0.21" transform="rotate(137.9 1320.2 101.8)"/>
    <path d="M 240.53041802945913,198.027634296815 C 276.5125909420805,228.01277839066614 288.50664857962096,269.9919801220577 240.53041802945913,317.9682106722196 C 192.55418747929727,269.9919801220577 204.54824511683773,228.01277839066614 240.53041802945913,198.027634296815 Z" fill="url(#leaf28)" opacity="0.22" transform="rotate(83.2 240.5 258.0)"/>
    <path d="M 380.21763716775365,924.2681388645831 C 415.33572197563683,953.5332095378191 427.0417502449312,994.5043084803494 380.21763716775365,1041.328421557527 C 333.3935240905761,994.5043084803494 345.0995523598705,953.5332095378191 380.21763716775365,924.2681388645831 Z" fill="url(#leaf29)" opacity="0.19" transform="rotate(70.1 380.2 982.8)"/>
    <path d="M 1150.8803567557536,401.45329955384807 C 1191.2081242466186,435.0597724629021 1204.65071341024,482.1088345355778 1150.8803567557536,535.8791911900643 C 1097.1100001012671,482.1088345355778 1110.5525892648886,435.0597724629021 1150.8803567557536,401.45329955384807 Z" fill="url(#leaf0)" opacity="0.18" transform="rotate(37.1 1150.9 468.7)"/>
    <path d="M 83.98450790435066,683.7887409575134 C 121.12004801410637,714.7350243823098 133.49856138402495,758.0598211770248 83.98450790435066,807.5738746566991 C 34.47045442467638,758.0598211770248 46.848967794594955,714.7350243823098 83.98450790435066,683.7887409575134 Z" fill="url(#leaf1)" opacity="0.22" transform="rotate(330.7 84.0 745.7)"/>
    <path d="M 449.1004803864356,746.3848580773392 C 475.9161763364615,768.7312713690275 484.8547416531368,800.016249977391 449.1004803864356,835.7705112440922 C 413.3462191197344,800.016249977391 422.2847844364097,768.7312713690275 449.1004803864356,746.3848580773392 Z" fill="url(#leaf2)" opacity="0.19" transform="rotate(80.1 449.1 791.1)"/>
    <path d="M 1843.529859402029,404.61925348703744 C 1873.6449971871014,429.7152016412644 1883.6833764487922,464.84952905718217 1843.529859402029,505.0030461039453 C 1803.3763423552657,464.84952905718217 1813.4147216169565,429.7152016412644 1843.529859402029,404.61925348703744 Z" fill="url(#leaf3)" opacity="0.23" transform="rotate(190.8 1843.5 454.8)"/>
    <path d="M 1407.4328362625606,255.66451464093498 C 1428.9896900421998,273.628559457301 1436.1753079687462,298.7782222002134 1407.4328362625606,327.52069390639906 C 1378.690364556375,298.7782222002134 1385.8759824829215,273.628559457301 1407.4328362625606,255.66451464093498 Z" fill="url(#leaf4)" opacity="0.23" transform="rotate(153.9 1407.4 291.6)"/>
    <path d="M 902.8547917179649,477.322572301147 C 932.2645810732702,501.83073009723466 942.0678441917053,536.1421510117575 902.8547917179649,575.3552034854979 C 863.6417392442245,536.1421510117575 873.4450023626596,501.83073009723466 902.8547917179649,477.322572301147 Z" fill="url(#leaf5)" opacity="0.19" transform="rotate(290.2 902.9 526.3)"/>
    <path d="M 145.80445983342008,523.2000668689517 C 171.7859741732089,544.8513288187758 180.4464789531385,575.1630955485293 145.80445983342008,609.8051146682477 C 111.16244071370167,575.1630955485293 119.82294549363128,544.8513288187758 145.80445983342008,523.2000668689517 Z" fill="url(#leaf6)" opacity="0.24" transform="rotate(259.0 145.8 566.5)"/>
    <path d="M 1240.0083165713659,428.72760876727466 C 1281.682002896828,463.4556807051597 1295.573231671982,512.0749814181988 1240.0083165713659,567.6398965188149 C 1184.4434014707497,512.0749814181988 1198.3346302459038,463.4556807051597 1240.0083165713659,428.72760876727466 Z" fill="url(#leaf7)" opacity="0.22" transform="rotate(116.9 1240.0 498.2)"/>
    <path d="M 969.5704577050769,655.1641111301245 C 1017.2663695491143,694.910704333489 1033.16500683046,750.5559348181993 969.5704577050769,814.1504839435823 C 905.9759085796939,750.5559348181993 921.8745458610396,694.910704333489 969.5704577050769,655.1641111301245 Z" fill="url(#leaf8)" opacity="0.17" transform="rotate(195.4 969.6 734.7)"/>
    <path d="M 996.1910246412039,531.4470996039009 C 1039.7325171356654,567.7316766826189 1054.2463479671524,618.5300845928238 996.1910246412039,676.5854079187724 C 938.1357013152553,618.5300845928238 952.6495321467424,567.7316766826189 996.1910246412039,531.4470996039009 Z" fill="url(#leaf9)" opacity="0.22" transform="rotate(115.4 996.2 604.0)"/>
    <path d="M 802.1490560478483,854.5872031493136 C 827.9241065518922,876.0664119026836 836.5157900532402,906.1373041574016 802.1490560478483,940.5040381627934 C 767.7823220424564,906.1373041574016 776.3740055438043,876.0664119026836 802.1490560478483,854.5872031493136 Z" fill="url(#leaf10)" opacity="0.23" transform="rotate(145.1 802.1 897.5)"/>
    <path d="M 745.621102255845,795.0865076878633 C 783.6389866191529,826.7680779906199 796.3116147402554,871.1222764144791 745.621102255845,921.8127888988895 C 694.9305897714346,871.1222764144791 707.6032178925371,826.7680779906199 745.621102255845,795.0865076878633 Z" fill="url(#leaf11)" opacity="0.18" transform="rotate(302.1 745.6 858.4)"/>
    <path d="M 1118.854687342883,603.6778741156279 C 1147.0411813134933,627.1666190911366 1156.4366793036968,660.0508620568487 1118.854687342883,697.6328540176626 C 1081.272695382069,660.0508620568487 1090.6681933722725,627.1666190911366 1118.854687342883,603.6778741156279 Z" fill="url(#leaf12)" opacity="0.25" transform="rotate(152.6 1118.9 650.7)"/>
    <path d="M 1509.7539026334591,74.73982535073281 C 1533.731640991836,94.72127398271351 1541.7242204446281,122.6953020674865 1509.7539026334591,154.6656198786556 C 1477.78358482229,122.6953020674865 1485.7761642750822,94.72127398271351 1509.7539026334591,74.73982535073281 Z" fill="url(#leaf13)" opacity="0.23" transform="rotate(230.8 1509.8 114.7)"/>
    <path d="M 1513.1108348032635,410.7520015616335 C 1550.0182332083348,441.50816689919293 1562.3206993433585,484.56679837177603 1513.1108348032635,533.7766629118711 C 1463.9009702631686,484.56679837177603 1476.2034363981923,441.50816689919293 1513.1108348032635,410.7520015616335 Z" fill="url(#leaf14)" opacity="0.21" transform="rotate(175.5 1513.1 472.3)"/>
    <path d="M 548.7156603591568,150.76747440448182 C 579.6760914395878,176.56783363817436 589.9962351330648,212.6883365653439 548.7156603591568,253.96891133925195 C 507.43508558524877,212.6883365653439 517.7552292787258,176.56783363817436 548.7156603591568,150.76747440448182 Z" fill="url(#leaf15)" opacity="0.25" transform="rotate(146.5 548.7 202.4)"/>
    <path d="M 637.9892173223536,465.8503713551362 C 670.1531133939983,492.65361808150675 680.8744120845465,530.1781634984255 637.9892173223536,573.0633582606184 C 595.1040225601607,530.1781634984255 605.825321250709,492.65361808150675 637.9892173223536,465.8503713551362 Z" fill="url(#leaf16)" opacity="0.15" transform="rotate(322.4 638.0 519.5)"/>
    <path d="M 755.5605579323642,405.347628554595 C 783.40000142314,428.54716479690825 792.6798159200653,461.0265155361467 755.5605579323642,498.1457735238478 C 718.4412999446631,461.0265155361467 727.7211144415884,428.54716479690825 755.5605579323642,405.347628554595 Z" fill="url(#leaf17)" opacity="0.16" transform="rotate(297.4 755.6 451.7)"/>
    <path d="M 499.4853149395333,801.0266022376555 C 530.0645191839623,826.5092724413463 540.2575872654386,862.1850107265134 499.4853149395333,902.9572830524186 C 458.71304261362803,862.1850107265134 468.90611069510436,826.5092724413463 499.4853149395333,801.0266022376555 Z" fill="url(#leaf18)" opacity="0.18" transform="rotate(278.3 499.5 852.0)"/>
    <path d="M 963.1122982589667,293.1534910417277 C 989.0100673149384,314.7349652550374 997.6426570002623,344.949029153671 963.1122982589667,379.4793878949666 C 928.5819395176711,344.949029153671 937.214529202995,314.7349652550374 963.1122982589667,293.1534910417277 Z" fill="url(#leaf19)" opacity="0.25" transform="rotate(203.1 963.1 336.3)"/>
    <path d="M 1715.578634335919,519.2596605439267 C 1752.322840989296,549.8798327550742 1764.570909873755,592.7480738506806 1715.578634335919,641.7403493885165 C 1666.5863587980832,592.7480738506806 1678.8344276825421,549.8798327550742 1715.578634335919,519.2596605439267 Z" fill="url(#leaf20)" opacity="0.17" transform="rotate(253.6 1715.6 580.5)"/>
    <path d="M 1134.5200726843016,69.03891632252403 C 1169.5706741718782,98.24775089550462 1181.2542080010705,139.14011929767744 1134.5200726843016,185.8742546144464 C 1087.7859373675326,139.14011929767744 1099.469471196725,98.24775089550462 1134.5200726843016,69.03891632252403 Z" fill="url(#leaf21)" opacity="0.24" transform="rotate(113.8 1134.5 127.5)"/>
    <path d="M 1662.6355065307696,153.23578638044637 C 1686.8211667236983,173.39050320788704 1694.8830534546746,201.60710676630396 1662.6355065307696,233.85465369020903 C 1630.3879596068646,201.60710676630396 1638.4498463378409,173.39050320788704 1662.6355065307696,153.23578638044637 Z" fill="url(#leaf22)" opacity="0.17" transform="rotate(163.3 1662.6 193.5)"/>
    <path d="M 789.8095186110958,308.02618676952216 C 808.090239908332,323.2601211838857 814.1838136740774,344.58762936399467 789.8095186110958,368.96192442697634 C 765.4352235481141,344.58762936399467 771.5287973138595,323.2601211838857 789.8095186110958,308.02618676952216 Z" fill="url(#leaf23)" opacity="0.17" transform="rotate(338.1 789.8 338.5)"/>
    <path d="M 1420.4435294220723,903.5408284232907 C 1465.5604719439393,941.1382805248467 1480.5994527845617,993.7747134670249 1420.4435294220723,1053.9306368295142 C 1360.287606059583,993.7747134670249 1375.3265869002053,941.1382805248467 1420.4435294220723,903.5408284232907 Z" fill="url(#leaf24)" opacity="0.23" transform="rotate(147.0 1420.4 978.7)"/>
    <path d="M 1063.8092976758048,484.61372002901567 C 1088.1367780566347,504.88662034637395 1096.2459381835781,533.2686807906755 1063.8092976758048,565.7053212984488 C 1031.3726571680315,533.2686807906755 1039.481817294975,504.88662034637395 1063.8092976758048,484.61372002901567 Z" fill="url(#leaf25)" opacity="0.20" transform="rotate(15.5 1063.8 525.2)"/>
    <path d="M 808.5083995346314,696.8022688589328 C 841.8992840722942,724.628005973652 853.0295789181819,763.5840379342586 808.5083995346314,808.1052173178091 C 763.9872201510809,763.5840379342586 775.1175149969686,724.628005973652 808.5083995346314,696.8022688589328 Z" fill="url(#leaf26)" opacity="0.21" transform="rotate(147.2 808.5 752.5)"/>
    <path d="M 790.1701089563893,791.7214459016109 C 827.8970101453082,823.16053022571 840.4726438749478,867.1752482794487 790.1701089563893,917.4777831980073 C 739.8675740378308,867.1752482794487 752.4432077674704,823.16053022571 790.1701089563893,791.7214459016109 Z" fill="url(#leaf27)" opacity="0.15" transform="rotate(173.9 790.2 854.6)"/>
    <path d="M 503.5709763053793,498.3116928628343 C 547.0370619815292,534.5334309262925 561.5257572069124,585.243864215134 503.5709763053793,643.1986451166671 C 445.6161954038462,585.243864215134 460.10489062922943,534.5334309262925 503.5709763053793,498.3116928628343 Z" fill="url(#leaf28)" opacity="0.25" transform="rotate(181.8 503.6 570.8)"/>
    <path d="M 886.2054253460517,131.48323257655386 C 914.4709761783346,155.03785827012297 923.8928264557622,188.0143342411197 886.2054253460517,225.7017353508303 C 848.5180242363411,188.0143342411197 857.9398745137688,155.03785827012297 886.2054253460517,131.48323257655386 Z" fill="url(#leaf29)" opacity="0.21" transform="rotate(161.3 886.2 178.6)"/>
    <path d="M 1095.6870490021915,825.8087991729708 C 1119.2399221118867,845.43619343105 1127.0908798151183,872.9145453923609 1095.6870490021915,904.3183762052877 C 1064.2832181892647,872.9145453923609 1072.1341758924964,845.43619343105 1095.6870490021915,825.8087991729708 Z" fill="url(#leaf0)" opacity="0.21" transform="rotate(42.1 1095.7 865.1)"/>
    <path d="M 1252.385996584054,210.82226446658785 C 1279.7342871855249,233.61250663448027 1288.8503840526819,265.51884566952964 1252.385996584054,301.9832331381575 C 1215.9216091154262,265.51884566952964 1225.0377059825832,233.61250663448027 1252.385996584054,210.82226446658785 Z" fill="url(#leaf1)" opacity="0.21" transform="rotate(57.0 1252.4 256.4)"/>
    <path d="M 1737.1386152019575,326.6000139856711 C 1782.4643283058822,364.371441572275 1797.5728993405237,417.25144019352047 1737.1386152019575,477.6857243320867 C 1676.7043310633912,417.25144019352047 1691.8129020980327,364.371441572275 1737.1386152019575,326.6000139856711 Z" fill="url(#leaf2)" opacity="0.16" transform="rotate(238.1 1737.1 402.1)"/>
    <path d="M 1320.4477015371483,461.72461840233353 C 1349.8257946538906,486.2063626662856 1359.6184923594715,520.4808046358185 1320.4477015371483,559.6515954581416 C 1281.2769107148251,520.4808046358185 1291.069608420406,486.2063626662856 1320.4477015371483,461.72461840233353 Z" fill="url(#leaf3)" opacity="0.21" transform="rotate(290.6 1320.4 510.7)"/>
    <path d="M 1296.6414699819723,757.5941293917521 C 1326.451545013542,782.4358585847269 1336.388236690732,817.2142794548918 1296.6414699819723,856.9610461636515 C 1256.8947032732126,817.2142794548918 1266.8313949504025,782.4358585847269 1296.6414699819723,757.5941293917521 Z" fill="url(#leaf4)" opacity="0.20" transform="rotate(222.1 1296.6 807.3)"/>
    <path d="M 1830.281111074835,791.4317637655229 C 1858.1788510536173,814.679880414508 1867.4780977132114,847.2272437230874 1830.281111074835,884.4242303614637 C 1793.0841244364588,847.2272437230874 1802.3833710960528,814.679880414508 1830.281111074835,791.4317637655229 Z" fill="url(#leaf5)" opacity="0.21" transform="rotate(122.4 1830.3 837.9)"/>
    <path d="M 581.5043335349595,213.6511216063457 C 623.3613387770273,248.53195930806885 637.3136738577166,297.3651320904812 581.5043335349595,353.1744724132383 C 525.6949932122025,297.3651320904812 539.6473282928918,248.53195930806885 581.5043335349595,213.6511216063457 Z" fill="url(#leaf6)" opacity="0.17" transform="rotate(29.7 581.5 283.4)"/>
    <path d="M 301.06446874580536,313.5762539809367 C 334.3322015725102,341.29936466985737 345.42144584807846,380.11171963434634 301.06446874580536,424.46869673661945 C 256.70749164353225,380.11171963434634 267.7967359191005,341.29936466985737 301.06446874580536,313.5762539809367 Z" fill="url(#leaf7)" opacity="0.23" transform="rotate(188.0 301.1 369.0)"/>
    <path d="M 1486.5683612470393,334.25555550775897 C 1517.1544607181665,359.7439717336984 1527.3498272085424,395.4277544500136 1486.5683612470393,436.2092204115167 C 1445.7868952855363,395.4277544500136 1455.982261775912,359.7439717336984 1486.5683612470393,334.25555550775897 Z" fill="url(#leaf8)" opacity="0.16" transform="rotate(280.8 1486.6 385.2)"/>
    <path d="M 1666.34209961613,390.1109626176046 C 1710.8839622629114,427.2291814899223 1725.7312498118383,479.1946879111671 1666.34209961613,538.5838381068754 C 1606.9529494204219,479.1946879111671 1621.8002369693488,427.2291814899223 1666.34209961613,390.1109626176046 Z" fill="url(#leaf9)" opacity="0.21" transform="rotate(3.8 1666.3 464.3)"/>
    <path d="M 1429.3799538164615,52.38247425082967 C 1466.1348525187097,83.01155650270317 1478.3864854194592,125.89227165532607 1429.3799538164615,174.89880325832368 C 1380.3734222134638,125.89227165532607 1392.6250551142132,83.01155650270317 1429.3799538164615,52.38247425082967 Z" fill="url(#leaf10)" opacity="0.22" transform="rotate(297.5 1429.4 113.6)"/>
    <path d="M 1664.5791157514452,858.4292916318502 C 1706.6570313632742,893.4942213083744 1720.683003233884,942.5851228555084 1664.5791157514452,998.6890103379471 C 1608.4752282690065,942.5851228555084 1622.5012001396162,893.4942213083744 1664.5791157514452,858.4292916318502 Z" fill="url(#leaf11)" opacity="0.16" transform="rotate(38.5 1664.6 928.6)"/>
    <path d="M 418.607439251221,425.3447221208677 C 443.93915245089346,446.45448312059466 452.3830568507842,476.0081485202125 418.607439251221,509.7837661197757 C 384.83182165165783,476.0081485202125 393.2757260515486,446.45448312059466 418.607439251221,425.3447221208677 Z" fill="url(#leaf12)" opacity="0.18" transform="rotate(272.7 418.6 467.6)"/>
    <path d="M 420.3634760698499,478.7583888037467 C 466.5373768666316,517.2366394677315 481.9286771322255,571.1061903973101 420.3634760698499,632.6713914596857 C 358.79827500747433,571.1061903973101 374.1895752730683,517.2366394677315 420.3634760698499,478.7583888037467 Z" fill="url(#leaf13)" opacity="0.16" transform="rotate(181.2 420.4 555.7)"/>
    <path d="M 1721.5169785379123,956.5882873985609 C 1754.5522470271312,984.1176778062434 1765.5640031902042,1022.6588243769987 1721.5169785379123,1066.7058490292907 C 1677.4699538856205,1022.6588243769987 1688.4817100486935,984.1176778062434 1721.5169785379123,956.5882873985609 Z" fill="url(#leaf14)" opacity="0.17" transform="rotate(343.6 1721.5 1011.6)"/>
    <path d="M 1402.666927105834,266.00884637010495 C 1430.2036500146485,288.9561154607836 1439.38255765092,321.08229218773386 1402.666927105834,357.79792273281976 C 1365.951296560748,321.08229218773386 1375.1302041970196,288.9561154607836 1402.666927105834,266.00884637010495 Z" fill="url(#leaf15)" opacity="0.22" transform="rotate(40.0 1402.7 311.9)"/>
    <path d="M 1128.515897364147,610.0956457965408 C 1173.7666618409764,647.8046161938987 1188.8502499999197,700.5971747501998 1128.515897364147,760.9315273859725 C 1068.181544728374,700.5971747501998 1083.2651328873173,647.8046161938987 1128.515897364147,610.0956457965408 Z" fill="url(#leaf16)" opacity="0.23" transform="rotate(166.7 1128.5 685.5)"/>
    <path d="M 388.9803238277609,372.44953071559695 C 417.07039261728767,395.85792137353593 426.43374888046327,428.6296682946505 388.9803238277609,466.0830933473529 C 351.52689877505856,428.6296682946505 360.89025503823416,395.85792137353593 388.9803238277609,372.44953071559695 Z" fill="url(#leaf17)" opacity="0.24" transform="rotate(266.7 389.0 419.3)"/>
    <path d="M 966.0255444837111,867.7743402389766 C 1011.6947176976391,905.8319845839167 1026.917775435615,959.1126866668327 966.0255444837111,1020.0049176187368 C 905.1333135318071,959.1126866668327 920.356371269783,905.8319845839167 966.0255444837111,867.7743402389766 Z" fill="url(#leaf18)" opacity="0.16" transform="rotate(35.9 966.0 943.9)"/>
    <path d="M 79.21247999512516,613.6652467894463 C 103.7480644299128,634.1115671517693 111.92659257484203,662.7364156590216 79.21247999512516,695.4505282387385 C 46.4983674154083,662.7364156590216 54.67689556033753,634.1115671517693 79.21247999512516,613.6652467894463 Z" fill="url(#leaf19)" opacity="0.22" transform="rotate(29.2 79.2 654.6)"/>
    <path d="M 878.2073044664322,448.8731708786649 C 897.0322049181771,464.56058792178567 903.3071717354254,486.5229717821547 878.2073044664322,511.6228390511479 C 853.107437197439,486.5229717821547 859.3824040146874,464.56058792178567 878.2073044664322,448.8731708786649 Z" fill="url(#leaf20)" opacity="0.18" transform="rotate(353.2 878.2 480.2)"/>
    <path d="M 1041.3733972592786,536.6712386775388 C 1065.8805454810745,557.0938621957021 1074.04959488834,585.6855351211307 1041.3733972592786,618.3617327501919 C 1008.6971996302174,585.6855351211307 1016.8662490374827,557.0938621957021 1041.3733972592786,536.6712386775388 Z" fill="url(#leaf21)" opacity="0.24" transform="rotate(2.3 1041.4 577.5)"/>
    <path d="M 760.7186822517461,404.35338330532676 C 806.8816322203555,442.8225082791679 822.269282209892,496.6792832425455 760.7186822517461,558.2298832006915 C 699.1680822936003,496.6792832425455 714.5557322831368,442.8225082791679 760.7186822517461,404.35338330532676 Z" fill="url(#leaf22)" opacity="0.20" transform="rotate(230.4 760.7 481.3)"/>
    <path d="M 1100.4866889443072,979.0931986967859 C 1130.8821994182013,1004.4227907583642 1141.0140362428326,1039.884219644574 1100.4866889443072,1080.4115669430994 C 1059.9593416457817,1039.884219644574 1070.091178470413,1004.4227907583642 1100.4866889443072,979.0931986967859 Z" fill="url(#leaf23)" opacity="0.23" transform="rotate(103.8 1100.5 1029.8)"/>
    <path d="M 1034.9128466946645,788.3327864141406 C 1054.781219929022,804.8897641094385 1061.404011007141,828.0695328828555 1034.9128466946645,854.5606971953321 C 1008.4216823821879,828.0695328828555 1015.0444734603071,804.8897641094385 1034.9128466946645,788.3327864141406 Z" fill="url(#leaf24)" opacity="0.16" transform="rotate(9.8 1034.9 821.4)"/>
    <path d="M 208.9599366275815,434.77558017541116 C 240.556919743899,461.10639943900907 251.08924744933813,497.96954640804614 208.9599366275815,540.0988572298028 C 166.83062580582487,497.96954640804614 177.362953511264,461.10639943900907 208.9599366275815,434.77558017541116 Z" fill="url(#leaf25)" opacity="0.16" transform="rotate(341.9 209.0 487.4)"/>
    <path d="M 143.7466673805506,282.73123965663723 C 179.03857386508577,312.1411617270832 190.80254269326417,353.3150526257076 143.7466673805506,400.3709279384212 C 96.69079206783704,353.3150526257076 108.45476089601544,312.1411617270832 143.7466673805506,282.73123965663723 Z" fill="url(#leaf26)" opacity="0.24" transform="rotate(212.0 143.7 341.6)"/>
    <path d="M 1294.3828134208723,666.0652893043073 C 1330.2901521634458,695.9880715897851 1342.2592650776369,737.8799667894543 1294.3828134208723,785.756418446219 C 1246.5063617641076,737.8799667894543 1258.4754746782987,695.9880715897851 1294.3828134208723,666.0652893043073 Z" fill="url(#leaf27)" opacity="0.18" transform="rotate(320.1 1294.4 725.9)"/>
    <path d="M 859.035329619367,88.46684334003672 C 881.5888965480021,107.26148244723265 889.1067521908805,133.57397719730696 859.035329619367,163.64539976882045 C 828.9639070478535,133.57397719730696 836.4817626907318,107.26148244723265 859.035329619367,88.46684334003672 Z" fill="url(#leaf28)" opacity="0.16" transform="rotate(205.4 859.0 126.1)"/>
    <path d="M 229.85851002997694,37.82679134855155 C 275.3436052992405,75.73103740627117 290.50530372232834,128.79698188707863 229.85851002997694,189.44377557943002 C 169.21171633762555,128.79698188707863 184.3734147607134,75.73103740627117 229.85851002997694,37.82679134855155 Z" fill="url(#leaf29)" opacity="0.22" transform="rotate(278.5 229.9 113.6)"/>
    <path d="M 1318.44319060107,718.6755234841706 C 1365.5690291907656,757.9470556422503 1381.2776420539974,812.9272006635618 1318.44319060107,875.7616521164892 C 1255.6087391481426,812.9272006635618 1271.3173520113744,757.9470556422503 1318.44319060107,718.6755234841706 Z" fill="url(#leaf0)" opacity="0.24" transform="rotate(246.2 1318.4 797.2)"/>
    <path d="M 145.05141969189154,96.16795491595141 C 163.959756471193,111.92490223203596 170.26253539762683,133.98462847455434 145.05141969189154,159.1957441802896 C 119.84030398615626,133.98462847455434 126.14308291259007,111.92490223203596 145.05141969189154,96.16795491595141 Z" fill="url(#leaf1)" opacity="0.19" transform="rotate(280.0 145.1 127.7)"/>
    <path d="M 280.3762658128776,120.24924286410712 C 300.7410472018191,137.21989402155833 307.52930766479955,160.97880564199008 280.3762658128776,188.13184749391203 C 253.22322396095564,160.97880564199008 260.0114844239361,137.21989402155833 280.3762658128776,120.24924286410712 Z" fill="url(#leaf2)" opacity="0.23" transform="rotate(232.2 280.4 154.2)"/>
    <path d="M 945.6497006975435,363.41283019029515 C 980.6053443626157,392.542533244522 992.2572255843065,433.32411752043964 945.6497006975435,479.9316424072026 C 899.0421758107805,433.32411752043964 910.6940570324713,392.542533244522 945.6497006975435,363.41283019029515 Z" fill="url(#leaf3)" opacity="0.17" transform="rotate(138.1 945.6 421.7)"/>
    <path d="M 965.5114017775794,274.67117409523627 C 1003.2210544816118,306.0958846819299 1015.7909387162892,350.0904795033009 965.5114017775794,400.3700164420107 C 915.2318648388696,350.0904795033009 927.8017490735471,306.0958846819299 965.5114017775794,274.67117409523627 Z" fill="url(#leaf4)" opacity="0.19" transform="rotate(153.5 965.5 337.5)"/>
    <path d="M 818.4171725182912,835.6963707027171 C 838.85722612973,852.7297487122494 845.6705773335428,876.5764779255945 818.4171725182912,903.8298827408462 C 791.1637677030395,876.5764779255945 797.9771189068524,852.7297487122494 818.4171725182912,835.6963707027171 Z" fill="url(#leaf5)" opacity="0.21" transform="rotate(306.3 818.4 869.8)"/>
    <path d="M 506.55741620222017,124.53470963196125 C 542.3357058904104,154.3499510387864 554.2618024531405,196.09128900834165 506.55741620222017,243.7956752592619 C 458.8530299512999,196.09128900834165 470.77912651402994,154.3499510387864 506.55741620222017,124.53470963196125 Z" fill="url(#leaf6)" opacity="0.18" transform="rotate(178.8 506.6 184.2)"/>
    <path d="M 1374.3556045959301,671.5441107413187 C 1408.8892561292907,700.3221536857859 1420.4004733070774,740.6114138080399 1374.3556045959301,786.6562825191872 C 1328.3107358847828,740.6114138080399 1339.8219530625695,700.3221536857859 1374.3556045959301,671.5441107413187 Z" fill="url(#leaf7)" opacity="0.17" transform="rotate(295.5 1374.4 729.1)"/>
    <path d="M 307.712994727334,221.2288478706656 C 334.36491818373196,243.43878408433056 343.24889266919797,274.5326947834616 307.712994727334,310.0685927253255 C 272.17709678547,274.5326947834616 281.061071270936,243.43878408433056 307.712994727334,221.2288478706656 Z" fill="url(#leaf8)" opacity="0.23" transform="rotate(149.6 307.7 265.6)"/>
    <path d="M 651.7294654193004,216.48104621889905 C 675.6864005384564,236.44515881819572 683.672045578175,264.3949164572111 651.7294654193004,296.33749661608573 C 619.7868852604257,264.3949164572111 627.7725303001444,236.44515881819572 651.7294654193004,216.48104621889905 Z" fill="url(#leaf9)" opacity="0.24" transform="rotate(204.4 651.7 256.4)"/>
    <path d="M 549.5798252366867,79.26553452501108 C 584.0044175853036,107.95269481552516 595.4792817015092,148.11471922224487 549.5798252366867,194.01417568706742 C 503.68036877186415,148.11471922224487 515.1552328880698,107.95269481552516 549.5798252366867,79.26553452501108 Z" fill="url(#leaf10)" opacity="0.19" transform="rotate(336.3 549.6 136.6)"/>
    <path d="M 1804.0609088177703,687.3142395873604 C 1824.5049616730353,704.3509503000812 1831.3196459581236,728.2023452978904 1804.0609088177703,755.4610824382437 C 1776.802171677417,728.2023452978904 1783.6168559625053,704.3509503000812 1804.0609088177703,687.3142395873604 Z" fill="url(#leaf11)" opacity="0.17" transform="rotate(205.4 1804.1 721.4)"/>
    <path d="M 749.7194001280418,64.58991391805738 C 785.917919775919,94.75534695795507 797.9840929918781,136.98695321381183 749.7194001280418,185.25164607764816 C 701.4547072642055,136.98695321381183 713.5208804801646,94.75534695795507 749.7194001280418,64.58991391805738 Z" fill="url(#leaf12)" opacity="0.20" transform="rotate(45.3 749.7 124.9)"/>
    <path d="M 1592.1192982953773,280.9395304992213 C 1615.18357618184,300.1597620712735 1622.8716688106608,327.06808627214656 1592.1192982953773,357.8204567874301 C 1561.3669277800939,327.06808627214656 1569.0550204089147,300.1597620712735 1592.1192982953773,280.9395304992213 Z" fill="url(#leaf13)" opacity="0.18" transform="rotate(45.9 1592.1 319.4)"/>
    <path d="M 774.8419697894246,275.2436924318728 C 804.2959108670675,299.7886433299085 814.1138912262819,334.15157458715856 774.8419697894246,373.4234960240158 C 735.5700483525674,334.15157458715856 745.3880287117818,299.7886433299085 774.8419697894246,275.2436924318728 Z" fill="url(#leaf14)" opacity="0.20" transform="rotate(40.4 774.8 324.3)"/>
    <path d="M 1381.31031531485,856.7431713418918 C 1402.3565677326628,874.2817150234025 1409.3719852052673,898.8356761775176 1381.31031531485,926.8973460679348 C 1353.2486454244327,898.8356761775176 1360.264062897037,874.2817150234025 1381.31031531485,856.7431713418918 Z" fill="url(#leaf15)" opacity="0.16" transform="rotate(282.8 1381.3 891.8)"/>
    <path d="M 704.0675178727877,125.09448331064189 C 728.9137081240522,145.79964185336235 737.1957715411404,174.78686381317095 704.0675178727877,207.91511748152365 C 670.939264204435,174.78686381317095 679.2213276215232,145.79964185336235 704.0675178727877,125.09448331064189 Z" fill="url(#leaf16)" opacity="0.23" transform="rotate(328.1 704.1 166.5)"/>
    <path d="M 1240.6861900966144,231.53723267897675 C 1263.5108435664754,250.55777723719433 1271.1190613897625,277.18653961869893 1240.6861900966144,307.61941091184707 C 1210.2533188034663,277.18653961869893 1217.8615366267534,250.55777723719433 1240.6861900966144,231.53723267897675 Z" fill="url(#leaf17)" opacity="0.25" transform="rotate(53.0 1240.7 269.6)"/>
    <path d="M 748.1071574601377,531.4747781962491 C 785.3406994937033,562.502729890887 797.7518801715584,605.9418622633801 748.1071574601377,655.5865849748008 C 698.4624347487171,605.9418622633801 710.8736154265722,562.502729890887 748.1071574601377,531.4747781962491 Z" fill="url(#leaf18)" opacity="0.22" transform="rotate(321.5 748.1 593.5)"/>
    <path d="M 493.38891256633235,856.038207220407 C 513.4724872771997,872.774519479463 520.167012180822,896.2053566421415 493.38891256633235,922.9834562566311 C 466.61081295184266,896.2053566421415 473.3053378554651,872.774519479463 493.38891256633235,856.038207220407 Z" fill="url(#leaf19)" opacity="0.21" transform="rotate(38.8 493.4 889.5)"/>
    <path d="M 253.60029397660142,806.9875366469846 C 281.92496754730365,830.5914312892365 291.36652540420437,863.6368837883891 253.60029397660142,901.4031152159921 C 215.83406254899847,863.6368837883891 225.27562040589922,830.5914312892365 253.60029397660142,806.9875366469846 Z" fill="url(#leaf20)" opacity="0.24" transform="rotate(218.3 253.6 854.2)"/>
    <path d="M 1277.4012640904075,454.98435345099034 C 1296.1977332133904,470.6480777201427 1302.4632229210513,492.57729169695597 1277.4012640904075,517.6392505275998 C 1252.3393052597637,492.57729169695597 1258.6047949674246,470.6480777201427 1277.4012640904075,454.98435345099034 Z" fill="url(#leaf21)" opacity="0.17" transform="rotate(334.8 1277.4 486.3)"/>
    <path d="M 1602.6570658397247,491.1099250824797 C 1633.2435749549363,516.5986826784895 1643.4390779933403,552.2829433129031 1602.6570658397247,593.0649554665185 C 1561.8750536861091,552.2829433129031 1572.0705567245132,516.5986826784895 1602.6570658397247,491.1099250824797 Z" fill="url(#leaf22)" opacity="0.18" transform="rotate(262.0 1602.7 542.1)"/>
    <path d="M 1628.5374842765048,733.5841872549485 C 1675.09917218672,772.3855938467944 1690.6197348234582,826.7075630753787 1628.5374842765048,888.7898136223322 C 1566.4552337295513,826.7075630753787 1581.9757963662896,772.3855938467944 1628.5374842765048,733.5841872549485 Z" fill="url(#leaf23)" opacity="0.20" transform="rotate(331.5 1628.5 811.2)"/>
    <path d="M 1032.1312770017294,965.8915295414488 C 1067.9760241599963,995.762152173338 1079.924273212752,1037.581023857983 1032.1312770017294,1085.3740200690056 C 984.3382807907067,1037.581023857983 996.2865298434623,995.762152173338 1032.1312770017294,965.8915295414488 Z" fill="url(#leaf24)" opacity="0.18" transform="rotate(263.2 1032.1 1025.6)"/>
    </g>

    <!-- Text with SOLID fill only (ThorVG compatible) -->
    <text x="1106.5" y="872.0"
          font-family="Arial, Helvetica, sans-serif"
          font-size="1080px"
          font-weight="bold"
          fill="#DC143C"
          text-anchor="middle"
          transform="rotate(-9.9 960.0 540.0)">
      5
    </text>
  </g>

  <!-- Frame counter -->
  <text x="960.0" y="1050.0"
        font-family="monospace"
        font-size="24px"
        fill="#FFFFFF"
        text-anchor="middle"
        opacity="0.7">
    Frame 00001 - Compatible
  </text>
</svg>