<?xml version="1.0" encoding="UTF-8"?>
<svg xmlns="http://www.w3.org/2000/svg" viewBox="0 0 1920 1080" width="1920" height="1080">
  <defs>
    <linearGradient id="bgGrad" x1="0%" y1="0%" x2="100%" y2="100%">
      <stop offset="0%" stop-color="#7B68EE"/>
      <stop offset="100%" stop-color="#32CD32"/>
    </linearGradient>
    <clipPath id="complexClip"><polygon points="1527.5,540.0 1502.8,578.6 1558.2,626.4 1322.4,620.7 1400.4,676.2 1330.4,691.4 1287.8,713.2 1383.2,827.8 1225.4,775.3 1240.4,875.2 1139.7,851.1 1045.8,793.1 998.7,886.0 926.3,841.1 858.0,840.8 771.5,866.3 700.6,850.0 701.5,769.1 543.7,823.1 591.8,734.5 429.9,756.7 403.1,712.2 598.1,620.6 316.0,633.0 361.1,582.6 480.4,540.0 530.6,509.5 500.0,473.6 576.0,454.5 491.4,395.1 487.2,346.8 625.1,363.1 707.4,368.2 688.2,299.1 711.8,243.3 815.4,289.7 876.3,293.3 919.1,174.5 1000.7,176.4 1083.7,175.4 1153.9,204.4 1141.2,323.4 1319.5,221.3 1288.0,317.0 1346.1,336.0 1387.4,365.3 1451.1,388.1 1516.9,416.0 1421.7,473.3 1434.9,506.3"/></clipPath>
    <radialGradient id="leaf0" cx="50%" cy="50%" r="70%">
      <stop offset="0%" stop-color="#45B7D1"/>
      <stop offset="50%" stop-color="#4ECDC4"/>
      <stop offset="100%" stop-color="#FF4500"/>
    </radialGradient>
    <radialGradient id="leaf1" cx="50%" cy="50%" r="70%">
      <stop offset="0%" stop-color="#4ECDC4"/>
      <stop offset="50%" stop-color="#FF69B4"/>
      <stop offset="100%" stop-color="#7B68EE"/>
    </radialGradient>
    <radialGradient id="leaf2" cx="50%" cy="50%" r="70%">
      <stop offset="0%" stop-color="#FFE66D"/>
      <stop offset="50%" stop-color="#45B7D1"/>
      <stop offset="100%" stop-color="#9370DB"/>
    </radialGradient>
    <radialGradient id="leaf3" cx="50%" cy="50%" r="70%">
      <stop offset="0%" stop-color="#FF69B4"/>
      <stop offset="50%" stop-color="#DC143C"/>
      <stop offset="100%" stop-color="#9370DB"/>
    </radialGradient>
    <radialGradient id="leaf4" cx="50%" cy="50%" r="70%">
      <stop offset="0%" stop-color="#45B7D1"/>
      <stop offset="50%" stop-color="#96E6A1"/>
      <stop offset="100%" stop-color="#DC143C"/>
    </radialGradient>
    <radialGradient id="leaf5" cx="50%" cy="50%" r="70%">
      <stop offset="0%" stop-color="#FFE66D"/>
      <stop offset="50%" stop-color="#45B7D1"/>
      <stop offset="100%" stop-color="#DC143C"/>
    </radialGradient>
    <radialGradient id="leaf6" cx="50%" cy="50%" r="70%">
      <stop offset="0%" stop-color="#7B68EE"/>
      <stop offset="50%" stop-color="#00FA9A"/>
      <stop offset="100%" stop-color="#00CED1"/>
    </radialGradient>
    <radialGradient id="leaf7" cx="50%" cy="50%" r="70%">
      <stop offset="0%" stop-color="#32CD32"/>
      <stop offset="50%" stop-color="#00FA9A"/>
      <stop offset="100%" stop-color="#FF1493"/>
    </radialGradient>
    <radialGradient id="leaf8" cx="50%" cy="50%" r="70%">
      <stop offset="0%" stop-color="#FFD700"/>
      <stop offset="50%" stop-color="#00FA9A"/>
      <stop offset="100%" stop-color="#32CD32"/>
    </radialGradient>
    <radialGradient id="leaf9" cx="50%" cy="50%" r="70%">
      <stop offset="0%" stop-color="#7B68EE"/>
      <stop offset="50%" stop-color="#FFE66D"/>
      <stop offset="100%" stop-color="#FF1493"/>
    </radialGradient>
    <radialGradient id="leaf10" cx="50%" cy="50%" r="70%">
      <stop offset="0%" stop-color="#9370DB"/>
      <stop offset="50%" stop-color="#FF69B4"/>
      <stop offset="100%" stop-color="#FF1493"/>
    </radialGradient>
    <radialGradient id="leaf11" cx="50%" cy="50%" r="70%">
      <stop offset="0%" stop-color="#FFD700"/>
      <stop offset="50%" stop-color="#FFE66D"/>
      <stop offset="100%" stop-color="#4ECDC4"/>
    </radialGradient>
    <radialGradient id="leaf12" cx="50%" cy="50%" r="70%">
      <stop offset="0%" stop-color="#00FA9A"/>
      <stop offset="50%" stop-color="#FF69B4"/>
      <stop offset="100%" stop-color="#7B68EE"/>
    </radialGradient>
    <radialGradient id="leaf13" cx="50%" cy="50%" r="70%">
      <stop offset="0%" stop-color="#FFD700"/>
      <stop offset="50%" stop-color="#DC143C"/>
      <stop offset="100%" stop-color="#7B68EE"/>
    </radialGradient>
    <radialGradient id="leaf14" cx="50%" cy="50%" r="70%">
      <stop offset="0%" stop-color="#FF4500"/>
      <stop offset="50%" stop-color="#00CED1"/>
      <stop offset="100%" stop-color="#4ECDC4"/>
    </radialGradient>
    <radialGradient id="leaf15" cx="50%" cy="50%" r="70%">
      <stop offset="0%" stop-color="#DC143C"/>
      <stop offset="50%" stop-color="#FF1493"/>
      <stop offset="100%" stop-color="#7B68EE"/>
    </radialGradient>
    <radialGradient id="leaf16" cx="50%" cy="50%" r="70%">
      <stop offset="0%" stop-color="#4ECDC4"/>
      <stop offset="50%" stop-color="#FFD700"/>
      <stop offset="100%" stop-color="#7B68EE"/>
    </radialGradient>
    <radialGradient id="leaf17" cx="50%" cy="50%" r="70%">
      <stop offset="0%" stop-color="#DC143C"/>
      <stop offset="50%" stop-color="#32CD32"/>
      <stop offset="100%" stop-color="#4ECDC4"/>
    </radialGradient>
    <radialGradient id="leaf18" cx="50%" cy="50%" r="70%">
      <stop offset="0%" stop-color="#32CD32"/>
      <stop offset="50%" stop-color="#FFE66D"/>
      <stop offset="100%" stop-color="#FFD700"/>
    </radialGradient>
    <radialGradient id="leaf19" cx="50%" cy="50%" r="70%">
      <stop offset="0%" stop-color="#FF4500"/>
      <stop offset="50%" stop-color="#7B68EE"/>
      <stop offset="100%" stop-color="#32CD32"/>
    </radialGradient>
    <radialGradient id="leaf20" cx="50%" cy="50%" r="70%">
      <stop offset="0%" stop-color="#FF6B6B"/>
      <stop offset="50%" stop-color="#4ECDC4"/>
      <stop offset="100%" stop-color="#9370DB"/>
    </radialGradient>
    <radialGradient id="leaf21" cx="50%" cy="50%" r="70%">
      <stop offset="0%" stop-color="#FF6B6B"/>
      <stop offset="50%" stop-color="#FF69B4"/>
      <stop offset="100%" stop-color="#32CD32"/>
    </radialGradient>
    <radialGradient id="leaf22" cx="50%" cy="50%" r="70%">
      <stop offset="0%" stop-color="#FF6B6B"/>
      <stop offset="50%" stop-color="#FF69B4"/>
      <stop offset="100%" stop-color="#FF4500"/>
    </radialGradient>
    <radialGradient id="leaf23" cx="50%" cy="50%" r="70%">
      <stop offset="0%" stop-color="#FFE66D"/>
      <stop offset="50%" stop-color="#FF69B4"/>
      <stop offset="100%" stop-color="#96E6A1"/>
    </radialGradient>
    <radialGradient id="leaf24" cx="50%" cy="50%" r="70%">
      <stop offset="0%" stop-color="#FF4500"/>
      <stop offset="50%" stop-color="#00CED1"/>
      <stop offset="100%" stop-color="#96E6A1"/>
    </radialGradient>
    <radialGradient id="leaf25" cx="50%" cy="50%" r="70%">
      <stop offset="0%" stop-color="#9370DB"/>
      <stop offset="50%" stop-color="#4ECDC4"/>
      <stop offset="100%" stop-color="#FFD700"/>
    </radialGradient>
    <radialGradient id="leaf26" cx="50%" cy="50%" r="70%">
      <stop offset="0%" stop-color="#DC143C"/>
      <stop offset="50%" stop-color="#FFE66D"/>
      <stop offset="100%" stop-color="#96E6A1"/>
    </radialGradient>
    <radialGradient id="leaf27" cx="50%" cy="50%" r="70%">
      <stop offset="0%" stop-color="#9370DB"/>
      <stop offset="50%" stop-color="#FF4500"/>
      <stop offset="100%" stop-color="#45B7D1"/>
    </radialGradient>
    <radialGradient id="leaf28" cx="50%" cy="50%" r="70%">
      <stop offset="0%" stop-color="#7B68EE"/>
      <stop offset="50%" stop-color="#00FA9A"/>
      <stop offset="100%" stop-color="#FF1493"/>
    </radialGradient>
    <radialGradient id="leaf29" cx="50%" cy="50%" r="70%">
      <stop offset="0%" stop-color="#FF1493"/>
      <stop offset="50%" stop-color="#FFD700"/>
      <stop offset="100%" stop-color="#96E6A1"/>
    </radialGradient>
  </defs>

  <!-- Scaled content -->
  <g transform="translate(960.0,540.0) scale(3.0) translate(-960.0,-540.0)">
    <!-- Background -->
    <rect width="1920" height="1080" fill="url(#bgGrad)"/>
    
    <!-- Leaves with clip-path -->
    <g clip-path="url(#complexClip)">
    <path d="M 1108.4089307746374,659.2761232346609 C 1145.8166930757966,690.449258485627 1158.285947176183,734.0916478369795 1108.4089307746374,783.9686642385252 C 1058.5319143730917,734.0916478369795 1071.0011684734782,690.449258485627 1108.4089307746374,659.2761232346609 Z" fill="url(#leaf0)" opacity="0.22" transform="rotate(107.7 1108.4 721.6)"/>
    <path d="M 321.9047296712585,847.0678028610981 C 365.93285170065104,883.7579045522587 380.60889237711524,935.1240469198832 321.9047296712585,993.82820962574 C 263.2005669654018,935.1240469198832 277.876607641866,883.7579045522587 321.9047296712585,847.0678028610981 Z" fill="url(#leaf1)" opacity="0.17" transform="rotate(351.4 321.9 920.4)"/>
    <path d="M 1828.6579009578284,735.9463366365105 C 1871.1313424139132,771.3408711832479 1885.289156232608,820.8932195486803 1828.6579009578284,877.5244748234602 C 1772.0266456830486,820.8932195486803 1786.1844595017435,771.3408711832479 1828.6579009578284,735.9463366365105 Z" fill="url(#leaf2)" opacity="0.16" transform="rotate(315.9 1828.7 806.7)"/>
    <path d="M 1768.7913136756217,821.7543012528806 C 1799.14358633211,847.0478617999543 1809.2610105509395,882.4588465658574 1768.7913136756217,922.9285434411752 C 1728.321616800304,882.4588465658574 1738.4390410191334,847.0478617999543 1768.7913136756217,821.7543012528806 Z" fill="url(#leaf3)" opacity="0.25" transform="rotate(236.1 1768.8 872.3)"/>
    <path d="M 442.7668289407387,150.84687187367368 C 489.842341525442,190.07646569425975 505.53417905367644,244.99789704308023 442.7668289407387,307.76524715601795 C 379.999478827801,244.99789704308023 395.69131635603543,190.07646569425975 442.7668289407387,150.84687187367368 Z" fill="url(#leaf4)" opacity="0.23" transform="rotate(72.5 442.8 229.3)"/>
    <path d="M 1413.2887121648469,706.0771183962455 C 1451.5395543548816,737.9528202212746 1464.2898350848932,782.5788027763151 1413.2887121648469,833.5799256963616 C 1362.2875892448005,782.5788027763151 1375.037869974812,737.9528202212746 1413.2887121648469,706.0771183962455 Z" fill="url(#leaf5)" opacity="0.22" transform="rotate(105.9 1413.3 769.8)"/>
    <path d="M 1374.7571415652362,595.7269813513019 C 1420.5218479485814,633.8642366707561 1435.776750076363,687.2563941179919 1374.7571415652362,748.2760026291187 C 1313.7375330541095,687.2563941179919 1328.992435181891,633.8642366707561 1374.7571415652362,595.7269813513019 Z" fill="url(#leaf6)" opacity="0.16" transform="rotate(9.8 1374.8 672.0)"/>
    <path d="M 1436.8538644310554,776.668368796496 C 1459.769792415663,795.7649754503356 1467.4084350771989,822.5002247657111 1436.8538644310554,853.0547954118545 C 1406.299293784912,822.5002247657111 1413.9379364464478,795.7649754503356 1436.8538644310554,776.668368796496 Z" fill="url(#leaf7)" opacity="0.25" transform="rotate(203.8 1436.9 814.9)"/>
    <path d="M 1541.9458457624796,188.98365288202666 C 1565.6094994247348,208.70336426723932 1573.49738397882,236.31096020653706 1541.9458457624796,267.8624984228773 C 1510.3943075461393,236.31096020653706 1518.2821921002244,208.70336426723932 1541.9458457624796,188.98365288202666 Z" fill="url(#leaf8)" opacity="0.17" transform="rotate(23.3 1541.9 228.4)"/>
    <path d="M 1167.520600945071,651.3626498159855 C 1202.4580178001609,680.4771638618938 1214.1038234185241,721.2374835261653 1167.520600945071,767.8207059996186 C 1120.9373784716179,721.2374835261653 1132.5831840899812,680.4771638618938 1167.520600945071,651.3626498159855 Z" fill="url(#leaf9)" opacity="0.23" transform="rotate(42.3 1167.5 709.6)"/>
    <path d="M 1388.487798280587,818.2833081215056 C 1434.8384115988918,856.9088192200928 1450.2886160383266,910.9845347581152 1388.487798280587,972.7853525158548 C 1326.6869805228473,910.9845347581152 1342.1371849622822,856.9088192200928 1388.487798280587,818.2833081215056 Z" fill="url(#leaf10)" opacity="0.17" transform="rotate(238.4 1388.5 895.5)"/>
    <path d="M 335.39763644161,758.2444933702241 C 369.4350748675008,786.6090253917997 380.7808876761311,826.3193702220057 335.39763644161,871.7026214565267 C 290.01438520708894,826.3193702220057 301.3601980157192,786.6090253917997 335.39763644161,758.2444933702241 Z" fill="url(#leaf11)" opacity="0.18" transform="rotate(82.4 335.4 815.0)"/>
    <path d="M 329.74368971884763,328.5784061090875 C 361.7186581618695,355.2242131449391 372.3769809762101,392.52834299513125 329.74368971884763,435.16163425249374 C 287.11039846148515,392.52834299513125 297.7687212758258,355.2242131449391 329.74368971884763,328.5784061090875 Z" fill="url(#leaf12)" opacity="0.21" transform="rotate(292.7 329.7 381.9)"/>
    <path d="M 494.7159028799298,331.252876089609 C 519.2567914338267,351.7036165511898 527.437087618459,380.3346531974029 494.7159028799298,413.0558379359321 C 461.99471814140054,380.3346531974029 470.17501432603285,351.7036165511898 494.7159028799298,331.252876089609 Z" fill="url(#leaf13)" opacity="0.16" transform="rotate(136.5 494.7 372.2)"/>
    <path d="M 1038.4394699850545,706.80682959809 C 1081.5273073174578,742.7133607084262 1095.8899197615924,792.9825042628968 1038.4394699850545,850.4329540394347 C 980.9890202085166,792.9825042628968 995.3516326526511,742.7133607084262 1038.4394699850545,706.80682959809 Z" fill="url(#leaf14)" opacity="0.21" transform="rotate(75.4 1038.4 778.6)"/>
    <path d="M 1161.0422428053728,83.83478324629705 C 1197.353637382288,114.09427872705982 1209.4574355745933,156.4575724001277 1161.0422428053728,204.87276516934816 C 1112.6270500361522,156.4575724001277 1124.7308482284575,114.09427872705982 1161.0422428053728,83.83478324629705 Z" fill="url(#leaf15)" opacity="0.18" transform="rotate(149.1 1161.0 144.4)"/>
    <path d="M 1443.5734274678243,492.5774366201364 C 1489.4196122907808,530.7825906392668 1504.701673898433,584.2698062660495 1443.5734274678243,645.3980526966583 C 1382.4451810372157,584.2698062660495 1397.7272426448678,530.7825906392668 1443.5734274678243,492.5774366201364 Z" fill="url(#leaf16)" opacity="0.18" transform="rotate(69.0 1443.6 569.0)"/>
    <path d="M 855.1262038997706,454.2702093601592 C 895.6955254895449,488.07797735163774 909.2186326861364,535.4088525397078 855.1262038997706,589.5012813260735 C 801.0337751134049,535.4088525397078 814.5568823099964,488.07797735163774 855.1262038997706,454.2702093601592 Z" fill="url(#leaf17)" opacity="0.22" transform="rotate(119.7 855.1 521.9)"/>
    <path d="M 1558.8265388775005,620.2454567973194 C 1601.619684251796,655.9064112758988 1615.8840660432277,705.83174754591 1558.8265388775005,762.8892747116371 C 1501.7690117117734,705.83174754591 1516.0333935032052,655.9064112758988 1558.8265388775005,620.2454567973194 Z" fill="url(#leaf18)" opacity="0.16" transform="rotate(217.5 1558.8 691.6)"/>
    <path d="M 1325.9274143045584,930.2792230413295 C 1344.6072210116292,945.8457286305552 1350.8338232473195,967.6388364554712 1325.9274143045584,992.5452453982323 C 1301.0210053617973,967.6388364554712 1307.2476075974876,945.8457286305552 1325.9274143045584,930.2792230413295 Z" fill="url(#leaf19)" opacity="0.21" transform="rotate(64.0 1325.9 961.4)"/>
    <path d="M 994.5945372993037,524.259086715022 C 1020.1099144881073,545.521901039025 1028.6150402177086,575.2898410926292 994.5945372993037,609.310344011034 C 960.574034380899,575.2898410926292 969.0791601105002,545.521901039025 994.5945372993037,524.259086715022 Z" fill="url(#leaf20)" opacity="0.23" transform="rotate(10.6 994.6 566.8)"/>
    <path d="M 553.2839851838314,75.83748234925639 C 582.756432990262,100.39785552128188 592.5805822590722,134.78237796211758 553.2839851838314,174.07897503735836 C 513.9873881085906,134.78237796211758 523.8115373774008,100.39785552128188 553.2839851838314,75.83748234925639 Z" fill="url(#leaf21)" opacity="0.24" transform="rotate(245.7 553.3 125.0)"/>
    <path d="M 765.5662112191131,718.3325033970683 C 812.6849781300036,757.598142489477 828.3912337669672,812.5700372188493 765.5662112191131,875.3950597667032 C 702.7411886712591,812.5700372188493 718.4474443082227,757.598142489477 765.5662112191131,718.3325033970683 Z" fill="url(#leaf22)" opacity="0.24" transform="rotate(3.3 765.6 796.9)"/>
    <path d="M 76.29405865914543,101.08392224440806 C 95.93172390644278,117.44864328382252 102.47761232220857,140.35925273900276 76.29405865914543,166.5428064020659 C 50.1105049960823,140.35925273900276 56.656393411848086,117.44864328382252 76.29405865914543,101.08392224440806 Z" fill="url(#leaf23)" opacity="0.24" transform="rotate(237.3 76.3 133.8)"/>
    <path d="M 624.0444233915396,825.500854962789 C 670.3935673495109,864.1251415944319 685.843282002168,918.1991428787318 624.0444233915396,979.9980014893603 C 562.2455647809111,918.1991428787318 577.6952794335682,864.1251415944319 624.0444233915396,825.500854962789 Z" fill="url(#leaf24)" opacity="0.23" transform="rotate(16.9 624.0 902.7)"/>
    <path d="M 943.4668949556811,842.2398788417291 C 969.3607383034108,863.8180816315039 977.9920194193207,894.0275655371886 943.4668949556811,928.5526900008282 C 908.9417704920415,894.0275655371886 917.5730516079515,863.8180816315039 943.4668949556811,842.2398788417291 Z" fill="url(#leaf25)" opacity="0.18" transform="rotate(88.7 943.5 885.4)"/>
    <path d="M 659.0487389130949,417.1885544585427 C 684.5510175368217,438.4404533116484 693.051777078064,468.1931117059964 659.0487389130949,502.1961498709655 C 625.0457007481258,468.1931117059964 633.546460289368,438.4404533116484 659.0487389130949,417.1885544585427 Z" fill="url(#leaf26)" opacity="0.25" transform="rotate(186.2 659.0 459.7)"/>
    <path d="M 359.7858444665872,311.772276975778 C 404.22001636294794,348.8007535560786 419.03140699506815,400.6406207684994 359.7858444665872,459.88618329698033 C 300.54028193810626,400.6406207684994 315.35167257022647,348.8007535560786 359.7858444665872,311.772276975778 Z" fill="url(#leaf27)" opacity="0.18" transform="rotate(169.0 359.8 385.8)"/>
    <path d="M 291.67498423242216,296.7812503468524 C 328.16181541654703,327.1869430002898 340.32409247792197,369.7549127151021 291.67498423242216,418.4040209606019 C 243.02587598692236,369.7549127151021 255.1881530482973,327.1869430002898 291.67498423242216,296.7812503468524 Z" fill="url(#leaf28)" opacity="0.16" transform="rotate(185.3 291.7 357.6)"/>
    <path d="M 1044.4406813910778,161.32071947485048 C 1078.5085612976181,189.71061939696756 1089.864521266465,229.45647928793144 1044.4406813910778,274.88031916331875 C 999.0168415156904,229.45647928793144 1010.3728014845373,189.71061939696756 1044.4406813910778,161.32071947485048 Z" fill="url(#leaf29)" opacity="0.18" transform="rotate(291.9 1044.4 218.1)"/>
    <path d="M 1697.567460704503,931.5566284451197 C 1719.1524068655845,949.5440835793544 1726.3473889192783,974.7265207672828 1697.567460704503,1003.5064489820581 C 1668.7875324897277,974.7265207672828 1675.9825145434215,949.5440835793544 1697.567460704503,931.5566284451197 Z" fill="url(#leaf0)" opacity="0.25" transform="rotate(149.0 1697.6 967.5)"/>
    <path d="M 1607.4181811843964,566.5081506953558 C 1651.4113993234241,603.1691658112121 1666.0758053697666,654.4945869734112 1607.4181811843964,713.1522111587814 C 1548.7605569990262,654.4945869734112 1563.4249630453687,603.1691658112121 1607.4181811843964,566.5081506953558 Z" fill="url(#leaf1)" opacity="0.22" transform="rotate(275.2 1607.4 639.8)"/>
    <path d="M 1402.0717942290055,947.3100124957892 C 1422.173398428636,964.0613493288146 1428.873933161846,987.51322089505 1402.0717942290055,1014.3153598278906 C 1375.269655296165,987.51322089505 1381.970190029375,964.0613493288146 1402.0717942290055,947.3100124957892 Z" fill="url(#leaf2)" opacity="0.19" transform="rotate(198.2 1402.1 980.8)"/>
    <path d="M 544.9080856776336,844.6155915313741 C 570.0355265571767,865.55512559766 578.4113401836911,894.8704732904604 544.9080856776336,928.3737277965179 C 511.40483117157606,894.8704732904604 519.7806447980905,865.55512559766 544.9080856776336,844.6155915313741 Z" fill="url(#leaf3)" opacity="0.22" transform="rotate(105.3 544.9 886.5)"/>
    <path d="M 539.018384167287,375.5971301984871 C 578.3212110085101,408.34948589950636 591.4221532889178,454.2027838809334 539.018384167287,506.6065530025643 C 486.6146150456561,454.2027838809334 499.7155573260638,408.34948589950636 539.018384167287,375.5971301984871 Z" fill="url(#leaf4)" opacity="0.23" transform="rotate(297.6 539.0 441.1)"/>
    <path d="M 630.5977737331802,712.0897519311408 C 651.9454573931157,729.8794883144203 659.0613519464275,754.7851192510117 630.5977737331802,783.248697464259 C 602.134195519933,754.7851192510117 609.2500900732448,729.8794883144203 630.5977737331802,712.0897519311408 Z" fill="url(#leaf5)" opacity="0.21" transform="rotate(15.7 630.6 747.7)"/>
    <path d="M 1866.844591367288,943.6335103571254 C 1893.6129677687682,965.940490691692 1902.535759902595,997.1702631600855 1866.844591367288,1032.8614316953922 C 1831.1534228319813,997.1702631600855 1840.076214965808,965.940490691692 1866.844591367288,943.6335103571254 Z" fill="url(#leaf6)" opacity="0.17" transform="rotate(75.9 1866.8 988.2)"/>
    <path d="M 435.5233121916563,23.7336132866795 C 477.9177600328111,59.06231982097517 492.04924264652936,108.52250896898911 435.5233121916563,165.0484394238622 C 378.99738173678327,108.52250896898911 393.12886435050154,59.06231982097517 435.5233121916563,23.7336132866795 Z" fill="url(#leaf7)" opacity="0.24" transform="rotate(240.8 435.5 94.4)"/>
    <path d="M 1206.1518635749594,867.9604211071473 C 1247.3950546349056,902.3297469904358 1261.142784988221,950.4468032270397 1206.1518635749594,1005.4377246403012 C 1151.160942161698,950.4468032270397 1164.9086725150132,902.3297469904358 1206.1518635749594,867.9604211071473 Z" fill="url(#leaf8)" opacity="0.17" transform="rotate(238.7 1206.2 936.7)"/>
    <path d="M 1689.3601984699715,290.3535048124478 C 1712.8717289621077,309.946446889228 1720.7089057928197,337.37656579672034 1689.3601984699715,368.72527311956867 C 1658.0114911471233,337.37656579672034 1665.8486679778352,309.946446889228 1689.3601984699715,290.3535048124478 Z" fill="url(#leaf9)" opacity="0.21" transform="rotate(333.3 1689.4 329.5)"/>
    <path d="M 162.57006775629992,919.4682500770344 C 197.38420393441882,948.4800302254669 208.9889159937918,989.0965224332723 162.57006775629992,1035.515370670764 C 116.15121951880805,989.0965224332723 127.75593157818102,948.4800302254669 162.57006775629992,919.4682500770344 Z" fill="url(#leaf10)" opacity="0.25" transform="rotate(232.7 162.6 977.5)"/>
    <path d="M 436.4037711799864,733.4069397667826 C 457.00735960510326,750.5765967877134 463.87522241347557,774.6141166170163 436.4037711799864,802.0855678505055 C 408.9323199464972,774.6141166170163 415.8001827548695,750.5765967877134 436.4037711799864,733.4069397667826 Z" fill="url(#leaf11)" opacity="0.17" transform="rotate(40.1 436.4 767.7)"/>
    <path d="M 1744.8052547722536,600.8630818038274 C 1790.9683434587546,639.3323223759115 1806.3560396875882,693.1892591768293 1744.8052547722536,754.7400440921639 C 1683.254469856919,693.1892591768293 1698.6421660857527,639.3323223759115 1744.8052547722536,600.8630818038274 Z" fill="url(#leaf12)" opacity="0.16" transform="rotate(343.8 1744.8 677.8)"/>
    <path d="M 992.3561864758207,478.33522709557326 C 1017.5411902280018,499.32273022239093 1025.936191478729,528.7052345999357 992.3561864758207,562.285239602844 C 958.7761814729124,528.7052345999357 967.1711827236395,499.32273022239093 992.3561864758207,478.33522709557326 Z" fill="url(#leaf13)" opacity="0.18" transform="rotate(356.1 992.4 520.3)"/>
    <path d="M 1725.8467344742983,685.4450531821269 C 1767.9209897629082,720.5069325893019 1781.9457415257782,769.5935637593468 1725.8467344742983,825.6925708108267 C 1669.7477274228183,769.5935637593468 1683.7724791856883,720.5069325893019 1725.8467344742983,685.4450531821269 Z" fill="url(#leaf14)" opacity="0.20" transform="rotate(342.6 1725.8 755.6)"/>
    <path d="M 839.5881595005454,383.29253309944716 C 875.078905104273,412.8681544358868 886.9091536388488,454.2740243069023 839.5881595005454,501.5950184452057 C 792.267165362242,454.2740243069023 804.0974138968179,412.8681544358868 839.5881595005454,383.29253309944716 Z" fill="url(#leaf15)" opacity="0.22" transform="rotate(263.4 839.6 442.4)"/>
    <path d="M 592.2164759038815,924.0987017859943 C 625.5207967495531,951.8523024907206 636.6222370314437,990.7073434773375 592.2164759038815,1035.1131046048997 C 547.8107147763193,990.7073434773375 558.9121550582098,951.8523024907206 592.2164759038815,924.0987017859943 Z" fill="url(#leaf16)" opacity="0.16" transform="rotate(335.3 592.2 979.6)"/>
    <path d="M 382.1548309220588,23.475121728188363 C 418.6213997263671,53.86392906511192 430.7769226611365,96.4082593368049 382.1548309220588,145.0303510758826 C 333.5327391829811,96.4082593368049 345.6882621177505,53.86392906511192 382.1548309220588,23.475121728188363 Z" fill="url(#leaf17)" opacity="0.20" transform="rotate(300.3 382.2 84.3)"/>
    <path d="M 956.9951638930906,575.4074929322226 C 993.7439254607378,606.031460905262 1005.9935126499537,648.9050160675171 956.9951638930906,697.9033648243801 C 907.9968151362276,648.9050160675171 920.2464023254435,606.031460905262 956.9951638930906,575.4074929322226 Z" fill="url(#leaf18)" opacity="0.16" transform="rotate(255.8 957.0 636.7)"/>
    <path d="M 599.5700411360285,156.68965244582847 C 640.3513677844298,190.67409131949626 653.945143333897,238.2523057426312 599.5700411360285,292.62740794049967 C 545.19493893816,238.2523057426312 558.7887144876272,190.67409131949626 599.5700411360285,156.68965244582847 Z" fill="url(#leaf19)" opacity="0.25" transform="rotate(219.7 599.6 224.7)"/>
    <path d="M 553.2229568862017,274.2620228084305 C 588.285400561188,303.4807258709191 599.9728817861834,344.3869101584031 553.2229568862017,391.1368350583848 C 506.47303198622,344.3869101584031 518.1605132112154,303.4807258709191 553.2229568862017,274.2620228084305 Z" fill="url(#leaf20)" opacity="0.19" transform="rotate(209.9 553.2 332.7)"/>
    <path d="M 260.51905763643555,500.5121044444392 C 287.3899381865502,522.9045049028681 296.3468983699217,554.2538655446684 260.51905763643555,590.0817062781546 C 224.6912169029494,554.2538655446684 233.64817708632094,522.9045049028681 260.51905763643555,500.5121044444392 Z" fill="url(#leaf21)" opacity="0.18" transform="rotate(294.5 260.5 545.3)"/>
    <path d="M 756.6142998801909,738.5786016868689 C 777.5829466304764,756.0524739787735 784.5724955472383,780.5158951874399 756.6142998801909,808.4740908544874 C 728.6561042131434,780.5158951874399 735.6456531299053,756.0524739787735 756.6142998801909,738.5786016868689 Z" fill="url(#leaf22)" opacity="0.23" transform="rotate(187.1 756.6 773.5)"/>
    <path d="M 1635.736691130092,393.5619914054015 C 1654.974018418044,409.5930974786949 1661.3864608473614,432.03664598130564 1635.736691130092,457.68641569857505 C 1610.0869214128224,432.03664598130564 1616.49936384214,409.5930974786949 1635.736691130092,393.5619914054015 Z" fill="url(#leaf23)" opacity="0.23" transform="rotate(6.3 1635.7 425.6)"/>
    <path d="M 1004.2068174003603,314.3040623104132 C 1025.9495156094092,332.42297748462073 1033.1970816790922,357.78945872851125 1004.2068174003603,386.7797230072433 C 975.2165531216282,357.78945872851125 982.4641191913112,332.42297748462073 1004.2068174003603,314.3040623104132 Z" fill="url(#leaf24)" opacity="0.21" transform="rotate(257.4 1004.2 350.5)"/>
    <path d="M 1113.0442104459758,448.3164177806597 C 1151.7530501739986,480.5737842206788 1164.6559967500064,525.7340972367055 1113.0442104459758,577.3458835407359 C 1061.4324241419451,525.7340972367055 1074.3353707179529,480.5737842206788 1113.0442104459758,448.3164177806597 Z" fill="url(#leaf25)" opacity="0.19" transform="rotate(32.4 1113.0 512.8)"/>
    <path d="M 980.7148812452058,889.020447955579 C 1001.2037101258856,906.094472022812 1008.0333197527788,929.9981057169384 980.7148812452058,957.3165442245114 C 953.3964427376328,929.9981057169384 960.226052364526,906.094472022812 980.7148812452058,889.020447955579 Z" fill="url(#leaf26)" opacity="0.19" transform="rotate(70.8 980.7 923.2)"/>
    <path d="M 903.3964966900746,749.0143225781082 C 938.2157705123108,778.0303840966384 949.8221951197229,818.6528702225805 903.3964966900746,865.0785686522288 C 856.9707982604264,818.6528702225805 868.5772228678385,778.0303840966384 903.3964966900746,749.0143225781082 Z" fill="url(#leaf27)" opacity="0.22" transform="rotate(97.6 903.4 807.0)"/>
    <path d="M 1431.804418367348,783.2238925853015 C 1474.209414866559,818.5613896679774 1488.3444136996293,868.0338855837235 1431.804418367348,924.5738809160049 C 1375.2644230350668,868.0338855837235 1389.399421868137,818.5613896679774 1431.804418367348,783.2238925853015 Z" fill="url(#leaf28)" opacity="0.16" transform="rotate(89.5 1431.8 853.9)"/>
    <path d="M 884.9833475472868,48.29935113841317 C 930.873111381515,86.54082100026991 946.1696993262576,140.07887880686934 884.9833475472868,201.26523058584013 C 823.796995768316,140.07887880686934 839.0935837130587,86.54082100026991 884.9833475472868,48.29935113841317 Z" fill="url(#leaf29)" opacity="0.19" transform="rotate(66.9 885.0 124.8)"/>
    <path d="M 1473.589791771814,738.6587454623168 C 1513.7928870728394,772.161324879838 1527.1939188398478,819.0649360643678 1473.589791771814,872.6690631324018 C 1419.98566470378,819.0649360643678 1433.3866964707884,772.161324879838 1473.589791771814,738.6587454623168 Z" fill="url(#leaf0)" opacity="0.19" transform="rotate(69.8 1473.6 805.7)"/>
    <path d="M 184.41287649051287,123.79958239287663 C 206.28235615068775,142.0241487763557 213.5721827040794,167.5385417132264 184.41287649051287,196.69784792679292 C 155.25357027694633,167.5385417132264 162.543396830338,142.0241487763557 184.41287649051287,123.79958239287663 Z" fill="url(#leaf1)" opacity="0.22" transform="rotate(283.6 184.4 160.2)"/>
    <path d="M 731.2990793612867,665.4409877854872 C 759.7709017720163,689.1675064610952 769.2615092422595,722.3846326069464 731.2990793612867,760.3470624879193 C 693.3366494803138,722.3846326069464 702.8272569505571,689.1675064610952 731.2990793612867,665.4409877854872 Z" fill="url(#leaf2)" opacity="0.19" transform="rotate(356.1 731.3 712.9)"/>
    <path d="M 600.9455790364632,360.0262980678956 C 623.9967483696163,379.2356058455232 631.6804714806674,406.12863673420185 600.9455790364632,436.863529178406 C 570.210686592259,406.12863673420185 577.8944097033101,379.2356058455232 600.9455790364632,360.0262980678956 Z" fill="url(#leaf3)" opacity="0.19" transform="rotate(245.4 600.9 398.4)"/>
    <path d="M 1199.6533848052916,251.43599304975206 C 1236.776337243356,282.3717867481391 1249.150654722711,325.6818979258809 1199.6533848052916,375.1791678433001 C 1150.1561148878723,325.6818979258809 1162.5304323672271,282.3717867481391 1199.6533848052916,251.43599304975206 Z" fill="url(#leaf4)" opacity="0.21" transform="rotate(317.6 1199.7 313.3)"/>
    <path d="M 1821.653594788385,599.7865079570357 C 1867.1535516064646,637.7031386387688 1882.3202038791578,690.7864215931951 1821.653594788385,751.453030683968 C 1760.986985697612,690.7864215931951 1776.1536379703052,637.7031386387688 1821.653594788385,599.7865079570357 Z" fill="url(#leaf5)" opacity="0.23" transform="rotate(324.6 1821.7 675.6)"/>
    <path d="M 872.7169093589699,360.5192091404525 C 893.6736957076325,377.98319776433794 900.6592911571867,402.4327818377776 872.7169093589699,430.37516363599434 C 844.7745275607532,402.4327818377776 851.7601230103073,377.98319776433794 872.7169093589699,360.5192091404525 Z" fill="url(#leaf6)" opacity="0.17" transform="rotate(146.4 872.7 395.4)"/>
    <path d="M 1429.4953583104054,471.58459369201387 C 1464.2540651184436,500.5501826987124 1475.840300721123,541.1020073080903 1429.4953583104054,587.4469497188079 C 1383.150415899688,541.1020073080903 1394.7366515023673,500.5501826987124 1429.4953583104054,471.58459369201387 Z" fill="url(#leaf7)" opacity="0.20" transform="rotate(31.1 1429.5 529.5)"/>
    <path d="M 846.9567322661005,940.9472247106016 C 876.4387583226962,965.5155797577648 886.2661003415616,999.9112768237932 846.9567322661005,1039.2206448992542 C 807.6473641906395,999.9112768237932 817.4747062095048,965.5155797577648 846.9567322661005,940.9472247106016 Z" fill="url(#leaf8)" opacity="0.24" transform="rotate(118.2 847.0 990.1)"/>
    <path d="M 1329.46101178306,868.4052241098758 C 1374.6872808992566,906.0937817067063 1389.7627039379888,958.8577623422691 1329.46101178306,1019.159454497198 C 1269.1593196281312,958.8577623422691 1284.2347426668634,906.0937817067063 1329.46101178306,868.4052241098758 Z" fill="url(#leaf9)" opacity="0.16" transform="rotate(326.6 1329.5 943.8)"/>
    <path d="M 1664.8742847300218,212.44071842553515 C 1707.7667735208495,248.18445908455817 1722.0642697844587,298.2256960071904 1664.8742847300218,355.4156810616272 C 1607.684299675585,298.2256960071904 1621.9817959391942,248.18445908455817 1664.8742847300218,212.44071842553515 Z" fill="url(#leaf10)" opacity="0.22" transform="rotate(27.3 1664.9 283.9)"/>
    <path d="M 1853.148294158091,205.8493127021415 C 1888.326146925945,235.16419000868657 1900.052097848563,276.2050182378497 1853.148294158091,323.1088219283218 C 1806.2444904676188,276.2050182378497 1817.9704413902368,235.16419000868657 1853.148294158091,205.8493127021415 Z" fill="url(#leaf11)" opacity="0.25" transform="rotate(129.6 1853.1 264.5)"/>
    <path d="M 261.5787970646113,273.9448215410912 C 290.8210821464927,298.313392442659 300.56851050711987,332.42939170485397 261.5787970646113,371.41910514736253 C 222.58908362210275,332.42939170485397 232.3365119827299,298.313392442659 261.5787970646113,273.9448215410912 Z" fill="url(#leaf12)" opacity="0.23" transform="rotate(41.9 261.6 322.7)"/>
    <path d="M 525.3756290467907,504.6732974623375 C 548.6898753032259,524.1018360093668 556.4612907220377,551.3017899752081 525.3756290467907,582.3874516504551 C 494.28996737154364,551.3017899752081 502.06138279035537,524.1018360093668 525.3756290467907,504.6732974623375 Z" fill="url(#leaf13)" opacity="0.24" transform="rotate(215.5 525.4 543.5)"/>
    <path d="M 327.53736538474016,53.41767253238724 C 373.7333693985448,91.91434254389114 389.1320374031464,145.80968055999656 327.53736538474016,207.40435257840278 C 265.9426933663339,145.80968055999656 281.3413613709355,91.91434254389114 327.53736538474016,53.41767253238724 Z" fill="url(#leaf14)" opacity="0.21" transform="rotate(66.3 327.5 130.4)"/>
    <path d="M 1332.2881069114337,56.95018961639422 C 1370.3026244658672,88.62895424508886 1382.974130317345,132.97922472526136 1332.2881069114337,183.66524813117277 C 1281.6020835055224,132.97922472526136 1294.2735893570002,88.62895424508886 1332.2881069114337,56.95018961639422 Z" fill="url(#leaf15)" opacity="0.16" transform="rotate(227.6 1332.3 120.3)"/>
    <path d="M 1685.0696576761945,819.8685234901053 C 1720.4136059299842,849.3218137015966 1732.1949220145807,890.5564199976847 1685.0696576761945,937.6816843360708 C 1637.9443933378084,890.5564199976847 1649.7257094224049,849.3218137015966 1685.0696576761945,819.8685234901053 Z" fill="url(#leaf16)" opacity="0.15" transform="rotate(34.9 1685.1 878.8)"/>
    <path d="M 465.53137779447434,627.2545692185283 C 488.67910257172105,646.5443398662338 496.39501083080324,673.5500187730216 465.53137779447434,704.4136518093505 C 434.66774475814543,673.5500187730216 442.38365301722763,646.5443398662338 465.53137779447434,627.2545692185283 Z" fill="url(#leaf17)" opacity="0.18" transform="rotate(143.7 465.5 665.8)"/>
    <path d="M 756.2359917485214,765.639382154135 C 791.6517329575827,795.1524998283528 803.4569800272699,836.4708645722576 756.2359917485214,883.691852851006 C 709.015003469773,836.4708645722576 720.8202505394602,795.1524998283528 756.2359917485214,765.639382154135 Z" fill="url(#leaf18)" opacity="0.22" transform="rotate(269.4 756.2 824.7)"/>
    <path d="M 1661.9222116753967,887.6578042184735 C 1693.5101564175447,913.9810915035969 1704.039471331594,950.8336937027696 1661.9222116753967,992.9509533589669 C 1619.8049520191994,950.8336937027696 1630.3342669332487,913.9810915035969 1661.9222116753967,887.6578042184735 Z" fill="url(#leaf19)" opacity="0.19" transform="rotate(7.2 1661.9 940.3)"/>
    <path d="M 888.892780950394,873.4098228242484 C 912.8583580414229,893.3811370667726 920.8468837384326,921.3409770063063 888.892780950394,953.2950797943448 C 856.9386781623555,921.3409770063063 864.9272038593651,893.3811370667726 888.892780950394,873.4098228242484 Z" fill="url(#leaf20)" opacity="0.20" transform="rotate(312.7 888.9 913.4)"/>
    <path d="M 339.7506619047198,789.569677656502 C 365.3669136622012,810.9165541210698 373.90566424802836,840.8021811714649 339.7506619047198,874.9571835147734 C 305.5956595614112,840.8021811714649 314.1344101472383,810.9165541210698 339.7506619047198,789.569677656502 Z" fill="url(#leaf21)" opacity="0.24" transform="rotate(85.9 339.8 832.3)"/>
    <path d="M 1034.5423434455115,379.09990716937915 C 1082.2307023173626,418.8402062292551 1098.126821941313,474.47662491308137 1034.5423434455115,538.0611034088828 C 970.95786494971,474.47662491308137 986.8539845736605,418.8402062292551 1034.5423434455115,379.09990716937915 Z" fill="url(#leaf22)" opacity="0.20" transform="rotate(204.8 1034.5 458.6)"/>
    <path d="M 312.51597608342854,252.83285930727715 C 347.1654862329889,281.70745109857745 358.715322949509,322.1318796063979 312.51597608342854,368.33122647247836 C 266.31662921734807,322.1318796063979 277.8664659338682,281.70745109857745 312.51597608342854,252.83285930727715 Z" fill="url(#leaf23)" opacity="0.20" transform="rotate(64.1 312.5 310.6)"/>
    <path d="M 1676.29052438293,586.4337896660126 C 1721.4053163496303,624.0294496382628 1736.4435803385304,676.6633735994131 1676.29052438293,736.8164295550135 C 1616.1374684273296,676.6633735994131 1631.1757324162297,624.0294496382628 1676.29052438293,586.4337896660126 Z" fill="url(#leaf24)" opacity="0.19" transform="rotate(275.2 1676.3 661.6)"/>
    <path d="M 1441.8531885000746,899.6482647521208 C 1466.5962816986098,920.2675090842334 1474.843979431455,949.1344511491912 1441.8531885000746,982.1252420805716 C 1408.8623975686942,949.1344511491912 1417.1100953015393,920.2675090842334 1441.8531885000746,899.6482647521208 Z" fill="url(#leaf25)" opacity="0.16" transform="rotate(189.0 1441.9 940.9)"/>
    <path d="M 674.2930787534351,867.5825775384129 C 699.117589735746,888.269670023672 707.3924267298496,917.2315995030348 674.2930787534351,950.3309474794493 C 641.1937307770206,917.2315995030348 649.4685677711242,888.269670023672 674.2930787534351,867.5825775384129 Z" fill="url(#leaf26)" opacity="0.16" transform="rotate(153.6 674.3 909.0)"/>
    <path d="M 596.275682060798,840.1865337317053 C 639.7068050656902,876.3791362357822 654.183846067321,927.0487797414897 596.275682060798,984.9569437480128 C 538.3675180542749,927.0487797414897 552.8445590559057,876.3791362357822 596.275682060798,840.1865337317053 Z" fill="url(#leaf27)" opacity="0.20" transform="rotate(233.2 596.3 912.6)"/>
    <path d="M 936.2269344001811,410.74128033025806 C 959.5396045508917,430.1685054558502 967.3104946011285,457.36662063167915 936.2269344001811,488.45018083262653 C 905.1433741992337,457.36662063167915 912.9142642494705,430.1685054558502 936.2269344001811,410.74128033025806 Z" fill="url(#leaf28)" opacity="0.25" transform="rotate(192.7 936.2 449.6)"/>
    <path d="M 958.6756405928487,785.8084810360008 C 979.3574840223378,803.043350560575 986.2514318321674,827.172167894979 958.6756405928487,854.7479591342978 C 931.09984935353,827.172167894979 937.9937971633597,803.043350560575 958.6756405928487,785.8084810360008 Z" fill="url(#leaf29)" opacity="0.16" transform="rotate(290.7 958.7 820.3)"/>
    <path d="M 1140.0822911140679,356.29989103882207 C 1164.851580600201,376.9409656105998 1173.1080104289122,405.83847001108853 1140.0822911140679,438.86418932593284 C 1107.0565717992235,405.83847001108853 1115.3130016279347,376.9409656105998 1140.0822911140679,356.29989103882207 Z" fill="url(#leaf0)" opacity="0.18" transform="rotate(333.0 1140.1 397.6)"/>
    <path d="M 1084.97603154402,868.9891287962915 C 1121.540482084001,899.4595042462755 1133.7286322639945,942.1180298762532 1084.97603154402,990.8706305962277 C 1036.2234308240456,942.1180298762532 1048.4115810040391,899.4595042462755 1084.97603154402,868.9891287962915 Z" fill="url(#leaf1)" opacity="0.22" transform="rotate(91.8 1085.0 929.9)"/>
    <path d="M 783.1456078079342,442.4578770872072 C 808.4009391802037,463.50398656409845 816.8193829709603,492.9685398317462 783.1456078079342,526.6423149947723 C 749.4718326449081,492.9685398317462 757.8902764356646,463.50398656409845 783.1456078079342,442.4578770872072 Z" fill="url(#leaf2)" opacity="0.20" transform="rotate(335.2 783.1 484.6)"/>
    <path d="M 609.9662074103392,865.1098567139913 C 630.0820989975086,881.8730997032992 636.7873961932319,905.3416398883303 609.9662074103392,932.162828671223 C 583.1450186274465,905.3416398883303 589.8503158231697,881.8730997032992 609.9662074103392,865.1098567139913 Z" fill="url(#leaf3)" opacity="0.20" transform="rotate(332.5 610.0 898.6)"/>
    <path d="M 732.457424739492,705.5756697630353 C 770.6965921859245,737.4416426350624 783.4429813347354,782.0540046559004 732.457424739492,833.0395612511437 C 681.4718681442487,782.0540046559004 694.2182572930595,737.4416426350624 732.457424739492,705.5756697630353 Z" fill="url(#leaf4)" opacity="0.19" transform="rotate(64.4 732.5 769.3)"/>
    <path d="M 339.36342560067055,745.3141446234049 C 365.7874771761764,767.3341876029932 374.5954943680117,798.1622477744168 339.36342560067055,833.3943165417579 C 304.1313568333294,798.1622477744168 312.9393740251647,767.3341876029932 339.36342560067055,745.3141446234049 Z" fill="url(#leaf5)" opacity="0.22" transform="rotate(23.6 339.4 789.4)"/>
    <path d="M 1168.3031987084582,123.6791070066303 C 1200.6720538575885,150.6531529642388 1211.461672240632,188.41681730489074 1168.3031987084582,231.57529083706436 C 1125.1447251762845,188.41681730489074 1135.934343559328,150.6531529642388 1168.3031987084582,123.6791070066303 Z" fill="url(#leaf6)" opacity="0.23" transform="rotate(132.7 1168.3 177.6)"/>
    <path d="M 979.0263845657752,171.9605617887825 C 1023.4096371514838,208.9466056102064 1038.2040546800533,260.72706696019986 979.0263845657752,319.9047370744781 C 919.8487144514969,260.72706696019986 934.6431319800665,208.9466056102064 979.0263845657752,171.9605617887825 Z" fill="url(#leaf7)" opacity="0.21" transform="rotate(348.6 979.0 245.9)"/>
    <path d="M 613.6671296382895,582.5176735210603 C 633.9372933962161,599.4094766526658 640.6940146488582,623.0580010369135 613.6671296382895,650.0848860474823 C 586.6402446277207,623.0580010369135 593.3969658803628,599.4094766526658 613.6671296382895,582.5176735210603 Z" fill="url(#leaf8)" opacity="0.20" transform="rotate(5.7 613.7 616.3)"/>
    <path d="M 625.2367433572033,193.6072487131502 C 656.8708177308763,219.96897735787766 667.4155091887673,256.8753974604962 625.2367433572033,299.05416329206014 C 583.0579775256393,256.8753974604962 593.6026689835303,219.96897735787766 625.2367433572033,193.6072487131502 Z" fill="url(#leaf9)" opacity="0.19" transform="rotate(283.1 625.2 246.3)"/>
    <path d="M 325.6588979401424,914.2517919629306 C 357.8655126221972,941.0906375313097 368.6010508495488,978.6650213270402 325.6588979401424,1021.6071742364466 C 282.71674503073604,978.6650213270402 293.4522832580877,941.0906375313097 325.6588979401424,914.2517919629306 Z" fill="url(#leaf10)" opacity="0.20" transform="rotate(102.6 325.7 967.9)"/>
    <path d="M 1337.5031606372656,430.8522575092577 C 1373.0073827811414,460.4391092958208 1384.8421234957666,501.8607017970091 1337.5031606372656,549.19966465551 C 1290.1641977787647,501.8607017970091 1301.99893849339,460.4391092958208 1337.5031606372656,430.8522575092577 Z" fill="url(#leaf11)" opacity="0.17" transform="rotate(36.0 1337.5 490.0)"/>
    <path d="M 1004.5713745557965,136.67438353440454 C 1051.5488057138398,175.82224283277395 1067.2079494331877,230.6292458504911 1004.5713745557965,293.2658207278821 C 941.9347996784055,230.6292458504911 957.5939433977533,175.82224283277395 1004.5713745557965,136.67438353440454 Z" fill="url(#leaf12)" opacity="0.24" transform="rotate(246.0 1004.6 215.0)"/>
    <path d="M 1170.5194262848593,502.1587515572554 C 1202.115506614697,528.4888184987869 1212.6475333913097,565.350912216931 1170.5194262848593,607.4790193233813 C 1128.3913191784088,565.350912216931 1138.9233459550214,528.4888184987869 1170.5194262848593,502.1587515572554 Z" fill="url(#leaf13)" opacity="0.19" transform="rotate(51.7 1170.5 554.8)"/>
    <path d="M 1058.3788207297548,188.2917548024424 C 1100.8841098574871,223.71282907555258 1115.0525395667312,273.3023330579069 1058.3788207297548,329.9760518948832 C 1001.7051018927785,273.3023330579069 1015.8735316020226,223.71282907555258 1058.3788207297548,188.2917548024424 Z" fill="url(#leaf14)" opacity="0.19" transform="rotate(73.7 1058.4 259.1)"/>
    <path d="M 1008.6735172126074,509.414301424386 C 1052.368497914978,545.8267853430281 1066.9334914824349,596.8042628291271 1008.6735172126074,655.0642370989544 C 950.41354294278,596.8042628291271 964.9785365102368,545.8267853430281 1008.6735172126074,509.414301424386 Z" fill="url(#leaf15)" opacity="0.25" transform="rotate(28.1 1008.7 582.2)"/>
    <path d="M 159.25483112405072,626.8828108283251 C 191.99066636779776,654.1626735314476 202.90261144904676,692.354481315819 159.25483112405072,736.002261640815 C 115.60705079905469,692.354481315819 126.5189958803037,654.1626735314476 159.25483112405072,626.8828108283251 Z" fill="url(#leaf16)" opacity="0.17" transform="rotate(194.5 159.3 681.4)"/>
    <path d="M 766.9819057630988,462.49741655243406 C 791.3710708396769,482.82172078291586 799.5007925318697,511.2757467055904 766.9819057630988,543.7946334743613 C 734.4630189943279,511.2757467055904 742.5927406865206,482.82172078291586 766.9819057630988,462.49741655243406 Z" fill="url(#leaf17)" opacity="0.21" transform="rotate(339.1 767.0 503.1)"/>
    <path d="M 807.2474315521707,846.213089930254 C 833.8708826522515,868.3992991803212 842.7453663522783,899.4599921304153 807.2474315521707,934.957926930523 C 771.7494967520631,899.4599921304153 780.62398045209,868.3992991803212 807.2474315521707,846.213089930254 Z" fill="url(#leaf18)" opacity="0.15" transform="rotate(65.8 807.2 890.6)"/>
    <path d="M 1084.9902703184139,207.86163605524652 C 1106.9926219639271,226.1969290931742 1114.3267391790982,251.86633934627295 1084.9902703184139,281.2028082069573 C 1055.6538014577295,251.86633934627295 1062.9879186729006,226.1969290931742 1084.9902703184139,207.86163605524652 Z" fill="url(#leaf19)" opacity="0.24" transform="rotate(295.0 1085.0 244.5)"/>
    <path d="M 1318.0109089256687,582.3444160261809 C 1358.1708811150909,615.8110595173661 1371.557538511565,662.6643604050254 1318.0109089256687,716.2109899909217 C 1264.4642793397722,662.6643604050254 1277.8509367362465,615.8110595173661 1318.0109089256687,582.3444160261809 Z" fill="url(#leaf20)" opacity="0.16" transform="rotate(351.3 1318.0 649.3)"/>
    <path d="M 1086.1689061124075,145.23283461078276 C 1115.7274033549866,169.86491564626533 1125.5802357691796,204.3498290959409 1086.1689061124075,243.761158752713 C 1046.7575764556354,204.3498290959409 1056.6104088698285,169.86491564626533 1086.1689061124075,145.23283461078276 Z" fill="url(#leaf21)" opacity="0.16" transform="rotate(235.2 1086.2 194.5)"/>
    <path d="M 884.5981779444304,112.47140297051416 C 905.6639213869742,130.02618917263396 912.6858358678221,154.6028898556017 884.5981779444304,182.69054777899336 C 856.5105200210387,154.6028898556017 863.5324345018867,130.02618917263396 884.5981779444304,112.47140297051416 Z" fill="url(#leaf22)" opacity="0.17" transform="rotate(193.8 884.6 147.6)"/>
    <path d="M 592.014302504301,608.2161758923572 C 625.9210890989791,636.4718313879223 637.2233512972051,676.0297490817134 592.014302504301,721.2387978746175 C 546.8052537113969,676.0297490817134 558.1075159096229,636.4718313879223 592.014302504301,608.2161758923572 Z" fill="url(#leaf23)" opacity="0.24" transform="rotate(49.1 592.0 664.7)"/>
    <path d="M 457.4331993441326,856.340436882186 C 490.6810561604382,884.0469842291074 501.76367509920675,922.8361505147972 457.4331993441326,967.1666262698712 C 413.1027235890585,922.8361505147972 424.18534252782706,884.0469842291074 457.4331993441326,856.340436882186 Z" fill="url(#leaf24)" opacity="0.18" transform="rotate(304.6 457.4 911.8)"/>
    <path d="M 422.37056149362047,385.04957451818393 C 455.49894400344294,412.656559943036 466.5417381733838,451.3063395378289 422.37056149362047,495.4775162175922 C 378.19938481385714,451.3063395378289 389.242178983798,412.656559943036 422.37056149362047,385.04957451818393 Z" fill="url(#leaf25)" opacity="0.21" transform="rotate(195.3 422.4 440.3)"/>
    <path d="M 285.54600946827486,916.3015816538649 C 311.3103452179208,937.7718614452365 319.8984571344695,967.8302531531568 285.54600946827486,1002.1827008193515 C 251.19356180208024,967.8302531531568 259.7816737186289,937.7718614452365 285.54600946827486,916.3015816538649 Z" fill="url(#leaf26)" opacity="0.21" transform="rotate(141.1 285.5 959.2)"/>
    <path d="M 1256.0668544306213,766.494734987459 C 1297.3015801430859,800.8570064145129 1311.0464887139074,848.9641864123881 1256.0668544306213,903.9438206956743 C 1201.0872201473353,848.9641864123881 1214.8321287181568,800.8570064145129 1256.0668544306213,766.494734987459 Z" fill="url(#leaf27)" opacity="0.21" transform="rotate(197.7 1256.1 835.2)"/>
    <path d="M 1853.760703251385,67.89948766276807 C 1876.0283773869617,86.45588277574868 1883.450935432154,112.43483593392153 1853.760703251385,142.12506811469052 C 1824.070471070616,112.43483593392153 1831.4930291158082,86.45588277574868 1853.760703251385,67.89948766276807 Z" fill="url(#leaf28)" opacity="0.25" transform="rotate(274.7 1853.8 105.0)"/>
    <path d="M 1077.809344704061,552.2237148600695 C 1099.3511353795423,570.1752070896374 1106.5317322713695,595.3072962110323 1077.809344704061,624.0296837783408 C 1049.0869571367525,595.3072962110323 1056.2675540285798,570.1752070896374 1077.809344704061,552.2237148600695 Z" fill="url(#leaf29)" opacity="0.16" transform="rotate(27.8 1077.8 588.1)"/>
    <path d="M 1127.9379003725908,894.2915072642046 C 1162.6799597193997,923.2432233865453 1174.260646168336,963.7756259578224 1127.9379003725908,1010.0983717535677 C 1081.6151545768455,963.7756259578224 1093.1958410257819,923.2432233865453 1127.9379003725908,894.2915072642046 Z" fill="url(#leaf0)" opacity="0.22" transform="rotate(321.8 1127.9 952.2)"/>
    <path d="M 386.18008604662714,74.7934600643199 C 428.0880769223564,109.71678579409425 442.0574072142661,158.60944181577833 386.18008604662714,214.4867629834173 C 330.30276487898817,158.60944181577833 344.2720951708979,109.71678579409425 386.18008604662714,74.7934600643199 Z" fill="url(#leaf1)" opacity="0.16" transform="rotate(238.3 386.2 144.6)"/>
    <path d="M 1863.0912174321124,107.59176558511699 C 1894.0647625143931,133.40305315368423 1904.38927754182,169.53885574967833 1863.0912174321124,210.8369158593859 C 1821.7931573224048,169.53885574967833 1832.1176723498318,133.40305315368423 1863.0912174321124,107.59176558511699 Z" fill="url(#leaf2)" opacity="0.20" transform="rotate(315.2 1863.1 159.2)"/>
    <path d="M 661.2418513992582,301.8107455847725 C 698.7085161583285,333.03296621733114 711.197404411352,376.74407510291326 661.2418513992582,426.6996281150071 C 611.2862983871644,376.74407510291326 623.7751866401878,333.03296621733114 661.2418513992582,301.8107455847725 Z" fill="url(#leaf3)" opacity="0.18" transform="rotate(177.8 661.2 364.3)"/>
    <path d="M 1755.0860869620278,222.2104278004426 C 1787.3782891971698,249.12059632972762 1798.1423566088838,286.79483227072666 1755.0860869620278,329.85110191758275 C 1712.0298173151718,286.79483227072666 1722.7938847268858,249.12059632972762 1755.0860869620278,222.2104278004426 Z" fill="url(#leaf4)" opacity="0.20" transform="rotate(328.0 1755.1 276.0)"/>
    <path d="M 585.2987422141346,846.8845900020848 C 619.3224021742409,875.2376399688401 630.663622160943,914.9319099222975 585.2987422141346,960.296789869106 C 539.9338622673262,914.9319099222975 551.2750822540282,875.2376399688401 585.2987422141346,846.8845900020848 Z" fill="url(#leaf5)" opacity="0.24" transform="rotate(354.2 585.3 903.6)"/>
    <path d="M 1155.020583417208,588.9764771861873 C 1202.6811682805626,628.6936312389828 1218.5680299016806,684.2976469128964 1155.020583417208,747.8450933973692 C 1091.4731369327353,684.2976469128964 1107.3599985538533,628.6936312389828 1155.020583417208,588.9764771861873 Z" fill="url(#leaf6)" opacity="0.15" transform="rotate(172.3 1155.0 668.4)"/>
    <path d="M 364.4090299175282,96.21525956183436 C 384.0201084311131,112.55782498982178 390.55713460230805,135.4374165890042 364.4090299175282,161.58552127378405 C 338.2609252327483,135.4374165890042 344.7979514039433,112.55782498982178 364.4090299175282,96.21525956183436 Z" fill="url(#leaf7)" opacity="0.19" transform="rotate(148.7 364.4 128.9)"/>
    <path d="M 1538.4514872515472,731.7187182985914 C 1576.5678544482503,763.4823576291774 1589.2733101804847,807.9514526919976 1538.4514872515472,858.7732756209351 C 1487.6296643226096,807.9514526919976 1500.335120054844,763.4823576291774 1538.4514872515472,731.7187182985914 Z" fill="url(#leaf8)" opacity="0.23" transform="rotate(228.6 1538.5 795.2)"/>
    <path d="M 496.117905373547,42.446899697992194 C 522.5272157716914,64.45465836311253 531.3303192377396,95.26552049428099 496.117905373547,130.47793435847353 C 460.9054915093545,95.26552049428099 469.7085949754026,64.45465836311253 496.117905373547,42.446899697992194 Z" fill="url(#leaf9)" opacity="0.19" transform="rotate(310.4 496.1 86.5)"/>
    <path d="M 180.9766602326366,904.4166423758003 C 222.97506398044536,939.4153121656409 236.97453189638162,988.4134498714178 180.9766602326366,1044.4113215351629 C 124.97878856889157,988.4134498714178 138.97825648482782,939.4153121656409 180.9766602326366,904.4166423758003 Z" fill="url(#leaf10)" opacity="0.18" transform="rotate(6.9 181.0 974.4)"/>
    <path d="M 360.32981034239884,63.609766652185314 C 396.8651776664674,94.0559060889091 409.0436334411569,136.6805013003224 360.32981034239884,185.39432439908046 C 311.6159872436408,136.6805013003224 323.7944430183303,94.0559060889091 360.32981034239884,63.609766652185314 Z" fill="url(#leaf11)" opacity="0.24" transform="rotate(345.6 360.3 124.5)"/>
    <path d="M 1398.4220615375505,-2.238482257764474 C 1440.5099036296942,32.83471948568874 1454.5391843270756,81.93720192652323 1398.4220615375505,138.05432471604837 C 1342.3049387480253,81.93720192652323 1356.3342194454067,32.83471948568874 1398.4220615375505,-2.238482257764474 Z" fill="url(#leaf12)" opacity="0.16" transform="rotate(189.6 1398.4 67.9)"/>
    <path d="M 1749.6762763427087,790.7170219048695 C 1787.2613085484745,822.0378820763411 1799.7896526170632,865.8870863164015 1749.6762763427087,916.000462590756 C 1699.562900068354,865.8870863164015 1712.0912441369428,822.0378820763411 1749.6762763427087,790.7170219048695 Z" fill="url(#leaf13)" opacity="0.22" transform="rotate(218.5 1749.7 853.4)"/>
    <path d="M 1443.1744556770952,717.8960167463151 C 1475.380888373616,744.7347106600824 1486.116365939123,782.3088821393567 1443.1744556770952,825.2507924013844 C 1400.2325454150675,782.3088821393567 1410.9680229805745,744.7347106600824 1443.1744556770952,717.8960167463151 Z" fill="url(#leaf14)" opacity="0.20" transform="rotate(356.3 1443.2 771.6)"/>
    <path d="M 1674.2219754272353,194.64200404013047 C 1717.4598160384255,230.67353788278893 1731.872429575489,281.1176852625108 1674.2219754272353,338.7681394107643 C 1616.5715212789817,281.1176852625108 1630.984134816045,230.67353788278893 1674.2219754272353,194.64200404013047 Z" fill="url(#leaf15)" opacity="0.24" transform="rotate(56.4 1674.2 266.7)"/>
    <path d="M 1047.4831193674108,874.976764107118 C 1090.719693079728,911.0072422007156 1105.1318843171669,961.4499115317523 1047.4831193674108,1019.0986764815084 C 989.8343544176547,961.4499115317523 1004.2465456550938,911.0072422007156 1047.4831193674108,874.976764107118 Z" fill="url(#leaf16)" opacity="0.19" transform="rotate(330.6 1047.5 947.0)"/>
    <path d="M 1301.8555336367356,26.88331118637052 C 1341.0106695885402,59.512591146207754 1354.0623815724753,105.19358308997988 1301.8555336367356,157.40043102571946 C 1249.6486857009959,105.19358308997988 1262.700397684931,59.512591146207754 1301.8555336367356,26.88331118637052 Z" fill="url(#leaf17)" opacity="0.15" transform="rotate(300.7 1301.9 92.1)"/>
    <path d="M 1528.4584485560245,793.5747750240554 C 1567.6345804794357,826.2215516268981 1580.6932911205727,871.9270388708778 1528.4584485560245,924.1618814354262 C 1476.2236059914762,871.9270388708778 1489.2823166326132,826.2215516268981 1528.4584485560245,793.5747750240554 Z" fill="url(#leaf18)" opacity="0.17" transform="rotate(110.6 1528.5 858.9)"/>
    <path d="M 761.6515940108796,583.1140894353927 C 798.9208574109133,614.1718089354208 811.3439452109246,657.6526162354601 761.6515940108796,707.344967435505 C 711.9592428108347,657.6526162354601 724.382330610846,614.1718089354208 761.6515940108796,583.1140894353927 Z" fill="url(#leaf19)" opacity="0.25" transform="rotate(230.6 761.7 645.2)"/>
    <path d="M 1458.4499484346213,459.555816094159 C 1480.090996367635,477.5900227050037 1487.304679011973,502.8379119601863 1458.4499484346213,531.6926425375378 C 1429.5952178572697,502.8379119601863 1436.8089005016077,477.5900227050037 1458.4499484346213,459.555816094159 Z" fill="url(#leaf20)" opacity="0.16" transform="rotate(268.2 1458.4 495.6)"/>
    <path d="M 1478.1812110756387,626.6743157890176 C 1522.3188135590992,663.4556511919014 1537.0313477202528,714.9495207559389 1478.1812110756387,773.7996574005531 C 1419.3310744310245,714.9495207559389 1434.043608592178,663.4556511919014 1478.1812110756387,626.6743157890176 Z" fill="url(#leaf21)" opacity="0.16" transform="rotate(82.0 1478.2 700.2)"/>
    <path d="M 1476.878366440168,242.60349090108656 C 1517.0138493446775,276.04972665484445 1530.3923436461807,322.87445671010545 1476.878366440168,376.388433916118 C 1423.3643892341554,322.87445671010545 1436.7428835356586,276.04972665484445 1476.878366440168,242.60349090108656 Z" fill="url(#leaf22)" opacity="0.16" transform="rotate(0.7 1476.9 309.5)"/>
    <path d="M 1425.7776432154049,460.26788813983075 C 1444.108639972131,475.54371877043576 1450.218972224373,496.9298816532828 1425.7776432154049,521.3712106622509 C 1401.3363142064368,496.9298816532828 1407.4466464586787,475.54371877043576 1425.7776432154049,460.26788813983075 Z" fill="url(#leaf23)" opacity="0.24" transform="rotate(83.7 1425.8 490.8)"/>
    <path d="M 1439.053783252213,417.300601276817 C 1469.7045848766404,442.84293596383986 1479.9215187514494,478.60220452567177 1439.053783252213,519.4699400249083 C 1398.1860477529765,478.60220452567177 1408.4029816277855,442.84293596383986 1439.053783252213,417.300601276817 Z" fill="url(#leaf24)" opacity="0.25" transform="rotate(54.2 1439.1 468.4)"/>
    <path d="M 590.1918775100885,389.0276421990673 C 609.9434492852904,405.48728534506887 616.527306543691,428.53078574947114 590.1918775100885,454.86621478307364 C 563.856448476486,428.53078574947114 570.4403057348866,405.48728534506887 590.1918775100885,389.0276421990673 Z" fill="url(#leaf25)" opacity="0.18" transform="rotate(347.5 590.2 421.9)"/>
    <path d="M 702.7511637216686,46.17289762423421 C 742.791327491494,79.53970076575543 756.1380487481025,126.25322516388513 702.7511637216686,179.6401101903191 C 649.3642786952347,126.25322516388513 662.7109999518432,79.53970076575543 702.7511637216686,46.17289762423421 Z" fill="url(#leaf26)" opacity="0.21" transform="rotate(17.9 702.8 112.9)"/>
    <path d="M 841.1745375778888,541.9639372406521 C 879.7771241544931,574.1327593878223 892.6446530133611,619.1691103938606 841.1745375778888,670.6392258293329 C 789.7044221424165,619.1691103938606 802.5719510012846,574.1327593878223 841.1745375778888,541.9639372406521 Z" fill="url(#leaf27)" opacity="0.23" transform="rotate(69.3 841.2 606.3)"/>
    <path d="M 1408.5831724447328,842.6170265865399 C 1454.621054737914,880.9819284975242 1469.9670155023077,934.6927911729022 1408.5831724447328,996.0766342304771 C 1347.1993293871578,934.6927911729022 1362.5452901515516,880.9819284975242 1408.5831724447328,842.6170265865399 Z" fill="url(#leaf28)" opacity="0.21" transform="rotate(142.5 1408.6 919.3)"/>
    <path d="M 1495.1514813979848,654.595583828454 C 1534.5676332960784,687.4423770768653 1547.706350595443,733.4278876246412 1495.1514813979848,785.9827568220994 C 1442.5966122005266,733.4278876246412 1455.7353294998911,687.4423770768653 1495.1514813979848,654.595583828454 Z" fill="url(#leaf29)" opacity="0.16" transform="rotate(88.4 1495.2 720.3)"/>
    <path d="M 1584.8159805747873,812.1859272361927 C 1615.1986034217368,837.5047796086506 1625.32614437072,872.9511729300917 1584.8159805747873,913.4613367260243 C 1544.3058167788547,872.9511729300917 1554.4333577278378,837.5047796086506 1584.8159805747873,812.1859272361927 Z" fill="url(#leaf0)" opacity="0.18" transform="rotate(100.1 1584.8 862.8)"/>
    <path d="M 106.96435512103355,529.9665523291915 C 129.61564227733476,548.8426249594424 137.16607132943514,575.2691266417938 106.96435512103355,605.4708428501954 C 76.76263891263196,575.2691266417938 84.31306796473235,548.8426249594424 106.96435512103355,529.9665523291915 Z" fill="url(#leaf1)" opacity="0.17" transform="rotate(302.2 107.0 567.7)"/>
    <path d="M 309.71539945001496,413.3721042758108 C 334.9856285670158,434.43062853997816 343.4090382726828,463.91256250981246 309.71539945001496,497.6062013324803 C 276.02176062734713,463.91256250981246 284.4451703330141,434.43062853997816 309.71539945001496,413.3721042758108 Z" fill="url(#leaf2)" opacity="0.25" transform="rotate(162.5 309.7 455.5)"/>
    <path d="M 604.5436122789428,895.2146522542829 C 625.6182787257095,912.7768742932552 632.6431675412985,937.3639851478165 604.5436122789428,965.4635404101722 C 576.4440570165871,937.3639851478165 583.468945832176,912.7768742932552 604.5436122789428,895.2146522542829 Z" fill="url(#leaf3)" opacity="0.25" transform="rotate(281.6 604.5 930.3)"/>
    <path d="M 459.73653285027336,225.51770706397193 C 506.28078447190194,264.30458341532903 521.7955350124448,318.60621030722905 459.73653285027336,380.66521246940044 C 397.67753068810197,318.60621030722905 413.1922812286448,264.30458341532903 459.73653285027336,225.51770706397193 Z" fill="url(#leaf4)" opacity="0.19" transform="rotate(327.5 459.7 303.1)"/>
    <path d="M 1571.5324289638386,115.7482375265464 C 1613.301742065663,150.55599844473338 1627.2248464329377,199.28686373019514 1571.5324289638386,254.9792811992943 C 1515.8400114947394,199.28686373019514 1529.7631158620143,150.55599844473338 1571.5324289638386,115.7482375265464 Z" fill="url(#leaf5)" opacity="0.23" transform="rotate(185.9 1571.5 185.4)"/>
    <path d="M 1100.4956387586183,410.5427074463476 C 1132.966273935097,437.6015700934132 1143.7898189939233,475.48397779930514 1100.4956387586183,518.7781580346102 C 1057.2014585233132,475.48397779930514 1068.0250035821396,437.6015700934132 1100.4956387586183,410.5427074463476 Z" fill="url(#leaf6)" opacity="0.23" transform="rotate(46.5 1100.5 464.7)"/>
    <path d="M 1411.6776956168035,313.24809437629597 C 1444.2496428803033,340.3913837625458 1455.1069586348033,378.3919889032956 1411.6776956168035,421.82125192129536 C 1368.2484325988037,378.3919889032956 1379.1057483533036,340.3913837625458 1411.6776956168035,313.24809437629597 Z" fill="url(#leaf7)" opacity="0.17" transform="rotate(55.2 1411.7 367.5)"/>
    <path d="M 393.5592451412197,-5.027126440589285 C 438.40452158949506,32.343937266306824 453.3529470722535,84.66342645596137 393.5592451412197,144.45712838699515 C 333.7655432101859,84.66342645596137 348.7139686929444,32.343937266306824 393.5592451412197,-5.027126440589285 Z" fill="url(#leaf8)" opacity="0.24" transform="rotate(284.8 393.6 69.7)"/>
    <path d="M 142.43109091164274,782.5811916068182 C 162.89173752883028,799.6317304544745 169.7119530678928,823.5024848411932 142.43109091164274,850.7833469974433 C 115.15022875539269,823.5024848411932 121.9704442944552,799.6317304544745 142.43109091164274,782.5811916068182 Z" fill="url(#leaf9)" opacity="0.17" transform="rotate(347.2 142.4 816.7)"/>
    <path d="M 76.69746852988033,693.8740722447708 C 114.08824815229701,725.0330552634514 126.55184135976924,768.6556314896043 76.69746852988033,818.5100043194932 C 26.8430956999914,768.6556314896043 39.30668890746364,725.0330552634514 76.69746852988033,693.8740722447708 Z" fill="url(#leaf10)" opacity="0.22" transform="rotate(134.1 76.7 756.2)"/>
    <path d="M 1064.0529957694916,-13.226574047241513 C 1108.912735549573,24.15654243615954 1123.8659821429333,76.49290551292101 1064.0529957694916,136.3058918863627 C 1004.2400093960499,76.49290551292101 1019.1932559894104,24.15654243615954 1064.0529957694916,-13.226574047241513 Z" fill="url(#leaf11)" opacity="0.19" transform="rotate(2.2 1064.1 61.5)"/>
    <path d="M 1539.323378285546,865.6870991811936 C 1581.792744703725,901.0782378630095 1595.9492001764513,950.6258320175516 1539.323378285546,1007.251653908457 C 1482.6975563946405,950.6258320175516 1496.8540118673668,901.0782378630095 1539.323378285546,865.6870991811936 Z" fill="url(#leaf12)" opacity="0.22" transform="rotate(333.5 1539.3 936.5)"/>
    <path d="M 1776.152717084456,875.3306450073429 C 1794.2832750977602,890.4394433517631 1800.3267944355284,911.5917610339513 1776.152717084456,935.7658383850236 C 1751.9786397333837,911.5917610339513 1758.022159071152,890.4394433517631 1776.152717084456,875.3306450073429 Z" fill="url(#leaf13)" opacity="0.21" transform="rotate(257.8 1776.2 905.5)"/>
    <path d="M 540.0966202301965,430.7815379566144 C 584.456604523357,467.7481915342481 599.2432659544105,519.5015065429353 540.0966202301965,578.6481522671493 C 480.9499745059826,519.5015065429353 495.7366359370361,467.7481915342481 540.0966202301965,430.7815379566144 Z" fill="url(#leaf14)" opacity="0.18" transform="rotate(25.3 540.1 504.7)"/>
    <path d="M 561.1720909742662,605.6389973636283 C 600.8645688049309,638.7160622225155 614.0953947484858,685.0239530249576 561.1720909742662,737.947256799177 C 508.24878720004665,685.0239530249576 521.4796131436016,638.7160622225155 561.1720909742662,605.6389973636283 Z" fill="url(#leaf15)" opacity="0.24" transform="rotate(243.4 561.2 671.8)"/>
    <path d="M 626.5015678898354,968.010844341132 C 651.6736579360631,988.9875860463217 660.064354618139,1018.3550244335872 626.5015678898354,1051.9178111618908 C 592.9387811615319,1018.3550244335872 601.3294778436077,988.9875860463217 626.5015678898354,968.010844341132 Z" fill="url(#leaf16)" opacity="0.24" transform="rotate(331.9 626.5 1010.0)"/>
    <path d="M 365.1939397900871,485.21797632474124 C 392.17681633416515,507.70370677813963 401.1711085155245,539.1837294128974 365.1939397900871,575.1608981383348 C 329.21677106464966,539.1837294128974 338.211063246009,507.70370677813963 365.1939397900871,485.21797632474124 Z" fill="url(#leaf17)" opacity="0.22" transform="rotate(191.5 365.2 530.2)"/>
    <path d="M 896.7047648104001,321.72573921511156 C 923.8047191316487,344.3090344828186 932.8380372387314,375.92564785760857 896.7047648104001,412.0589202859399 C 860.5714923820688,375.92564785760857 869.6048104891515,344.3090344828186 896.7047648104001,321.72573921511156 Z" fill="url(#leaf18)" opacity="0.22" transform="rotate(319.8 896.7 366.9)"/>
    <path d="M 690.1111987581775,428.0517026649464 C 717.265944789911,450.68065769139105 726.3175268004888,482.3611947284135 690.1111987581775,518.567522770725 C 653.9048707158661,482.3611947284135 662.9564527264439,450.68065769139105 690.1111987581775,428.0517026649464 Z" fill="url(#leaf19)" opacity="0.19" transform="rotate(285.8 690.1 473.3)"/>
    <path d="M 1782.9155453854073,865.5567326540129 C 1819.8468919264974,896.3328547715879 1832.1573407735273,939.4194257361929 1782.9155453854073,988.661221124313 C 1733.6737499972874,939.4194257361929 1745.9841988443172,896.3328547715879 1782.9155453854073,865.5567326540129 Z" fill="url(#leaf20)" opacity="0.16" transform="rotate(290.1 1782.9 927.1)"/>
    <path d="M 1821.542932650135,840.9510128920891 C 1867.521082338011,879.2661376319858 1882.8471322339697,932.9073122678411 1821.542932650135,994.2115118516757 C 1760.2387330663005,932.9073122678411 1775.5647829622592,879.2661376319858 1821.542932650135,840.9510128920891 Z" fill="url(#leaf21)" opacity="0.21" transform="rotate(136.5 1821.5 917.6)"/>
    <path d="M 646.2201933895395,553.7572490333206 C 687.7902198407925,588.398937742698 701.6468953245435,636.8973019358265 646.2201933895395,692.3240038708303 C 590.7934914545356,636.8973019358265 604.6501669382866,588.398937742698 646.2201933895395,553.7572490333206 Z" fill="url(#leaf22)" opacity="0.22" transform="rotate(84.7 646.2 623.0)"/>
    <path d="M 1211.103143991634,639.2797826352732 C 1259.0109942848992,679.2029912129942 1274.9802777159875,735.0954832218038 1211.103143991634,798.9726169461574 C 1147.2260102672803,735.0954832218038 1163.1952936983687,679.2029912129942 1211.103143991634,639.2797826352732 Z" fill="url(#leaf23)" opacity="0.19" transform="rotate(18.0 1211.1 719.1)"/>
    <path d="M 641.2083386189491,633.5008150864846 C 682.162654036727,667.6294112679661 695.8140925093195,715.4094459220403 641.2083386189491,770.0151998124106 C 586.6025847285788,715.4094459220403 600.2540232011713,667.6294112679661 641.2083386189491,633.5008150864846 Z" fill="url(#leaf24)" opacity="0.18" transform="rotate(332.2 641.2 701.8)"/>
    <path d="M 858.8743706354684,182.55007772118378 C 878.4141904585272,198.83326090706612 884.9274637328801,221.6297173673014 858.8743706354684,247.68281046471313 C 832.8212775380566,221.6297173673014 839.3345508124096,198.83326090706612 858.8743706354684,182.55007772118378 Z" fill="url(#leaf25)" opacity="0.21" transform="rotate(66.6 858.9 215.1)"/>
    <path d="M 964.2057919546514,806.7224745787428 C 992.6262659662219,830.4062029217182 1002.099757303412,863.5634226018838 964.2057919546514,901.4573879506445 C 926.3118266058908,863.5634226018838 935.7853179430809,830.4062029217182 964.2057919546514,806.7224745787428 Z" fill="url(#leaf26)" opacity="0.22" transform="rotate(211.3 964.2 854.1)"/>
    <path d="M 1838.8000385632988,394.5188509388879 C 1880.8718726409538,429.578712670267 1894.8958173335054,478.66251909419776 1838.8000385632988,534.7582978644043 C 1782.7042597930922,478.66251909419776 1796.7282044856438,429.578712670267 1838.8000385632988,394.5188509388879 Z" fill="url(#leaf27)" opacity="0.17" transform="rotate(29.1 1838.8 464.6)"/>
    <path d="M 610.9315565490033,625.6949152480089 C 642.6036024323558,652.0882868174693 653.1609510601401,689.039007014714 610.9315565490033,731.2684015258507 C 568.7021620378665,689.039007014714 579.2595106656507,652.0882868174693 610.9315565490033,625.6949152480089 Z" fill="url(#leaf28)" opacity="0.19" transform="rotate(86.0 610.9 678.5)"/>
    <path d="M 1284.472846773328,494.28077587862157 C 1319.4948846078032,523.4658074073509 1331.1688972192949,564.3248515475719 1284.472846773328,611.0209019935388 C 1237.7767963273611,564.3248515475719 1249.4508089388528,523.4658074073509 1284.472846773328,494.28077587862157 Z" fill="url(#leaf29)" opacity="0.16" transform="rotate(75.8 1284.5 552.7)"/>
    <path d="M 1792.2201588160333,540.3848332148967 C 1820.3117013084743,563.7944519585977 1829.6755488059548,596.567918199779 1792.2201588160333,634.0233081897005 C 1754.7647688261118,596.567918199779 1764.1286163235923,563.7944519585977 1792.2201588160333,540.3848332148967 Z" fill="url(#leaf0)" opacity="0.23" transform="rotate(158.8 1792.2 587.2)"/>
    <path d="M 1506.3175003447864,536.93736841956 C 1527.6696026482048,554.730787005742 1534.7869700826775,579.6415730263968 1506.3175003447864,608.111042764288 C 1477.8480306068952,579.6415730263968 1484.965398041368,554.730787005742 1506.3175003447864,536.93736841956 Z" fill="url(#leaf1)" opacity="0.24" transform="rotate(197.8 1506.3 572.5)"/>
    <path d="M 1471.1572276706481,523.2993783954985 C 1512.826201554478,558.0235232986902 1526.7158595157548,606.6373261631586 1471.1572276706481,662.1959580082653 C 1415.5985958255415,606.6373261631586 1429.4882537868182,558.0235232986902 1471.1572276706481,523.2993783954985 Z" fill="url(#leaf2)" opacity="0.23" transform="rotate(108.1 1471.2 592.7)"/>
    <path d="M 1027.0031191723897,112.43023794424414 C 1068.9195240523418,147.36057534420416 1082.8916590123258,196.26304770414816 1027.0031191723897,252.15158754408418 C 971.1145793324537,196.26304770414816 985.0867142924377,147.36057534420416 1027.0031191723897,112.43023794424414 Z" fill="url(#leaf3)" opacity="0.22" transform="rotate(264.6 1027.0 182.3)"/>
    <path d="M 316.04708950346827,226.25670609529135 C 357.59838621941356,260.88278669191243 371.44881845806196,309.35929952718186 316.04708950346827,364.76102848177555 C 260.6453605488746,309.35929952718186 274.495792787523,260.88278669191243 316.04708950346827,226.25670609529135 Z" fill="url(#leaf4)" opacity="0.19" transform="rotate(331.5 316.0 295.5)"/>
    <path d="M 1450.0007116138756,716.0775625912338 C 1476.4499713019857,738.1186123313255 1485.2663911980221,768.9760819674538 1450.0007116138756,804.2417615516003 C 1414.7350320297292,768.9760819674538 1423.5514519257656,738.1186123313255 1450.0007116138756,716.0775625912338 Z" fill="url(#leaf5)" opacity="0.21" transform="rotate(304.2 1450.0 760.2)"/>
    <path d="M 853.0665500716863,202.7633554033436 C 897.6578884216939,239.92280402834993 912.5216678716963,291.9460321033588 853.0665500716863,351.4011499033689 C 793.6114322716762,291.9460321033588 808.4752117216786,239.92280402834993 853.0665500716863,202.7633554033436 Z" fill="url(#leaf6)" opacity="0.21" transform="rotate(66.9 853.1 277.1)"/>
    <path d="M 701.2921607049756,278.91889628895143 C 727.1333272588079,300.4532017504783 735.7470494434185,330.6012293966159 701.2921607049756,365.05611813505885 C 666.8372719665326,330.6012293966159 675.4509941511433,300.4532017504783 701.2921607049756,278.91889628895143 Z" fill="url(#leaf7)" opacity="0.16" transform="rotate(137.0 701.3 322.0)"/>
    <path d="M 594.0129791595945,551.6258187496402 C 614.4814586465181,568.6828849887432 621.3042851421593,592.5627777234876 594.0129791595945,619.8540837060524 C 566.7216731770296,592.5627777234876 573.5444996726708,568.6828849887432 594.0129791595945,551.6258187496402 Z" fill="url(#leaf8)" opacity="0.23" transform="rotate(157.0 594.0 585.7)"/>
    <path d="M 126.9648170998307,789.8198240128249 C 147.16588925019485,806.6540508047951 153.89957996698288,830.2219683135532 126.9648170998307,857.1567311807055 C 100.03005423267851,830.2219683135532 106.76374494946656,806.6540508047951 126.9648170998307,789.8198240128249 Z" fill="url(#leaf9)" opacity="0.15" transform="rotate(188.9 127.0 823.5)"/>
    <path d="M 756.3849028493989,206.13717253687503 C 802.7211637384063,244.75072327771448 818.1665840347421,298.8096943148897 756.3849028493989,360.59137550023286 C 694.6032216640558,298.8096943148897 710.0486419603916,244.75072327771448 756.3849028493989,206.13717253687503 Z" fill="url(#leaf10)" opacity="0.23" transform="rotate(29.8 756.4 283.4)"/>
    <path d="M 1375.2264685161665,609.9146403493492 C 1397.934807687036,628.8382563250738 1405.5042540773259,655.3313186910883 1375.2264685161665,685.6091042522478 C 1344.9486829550071,655.3313186910883 1352.518129345297,628.8382563250738 1375.2264685161665,609.9146403493492 Z" fill="url(#leaf11)" opacity="0.17" transform="rotate(269.6 1375.2 647.8)"/>
    <path d="M 1666.8129263093285,432.5020775690389 C 1688.6357090397228,450.6877298443675 1695.9099699498543,476.1476430298275 1666.8129263093285,505.2446866703533 C 1637.7158826688028,476.1476430298275 1644.9901435789343,450.6877298443675 1666.8129263093285,432.5020775690389 Z" fill="url(#leaf12)" opacity="0.16" transform="rotate(176.2 1666.8 468.9)"/>
    <path d="M 1588.4422365698301,698.882932531223 C 1629.6632715375476,733.2337950043209 1643.403616526787,781.325002466658 1588.4422365698301,836.2863824236148 C 1533.4808566128734,781.325002466658 1547.2212016021126,733.2337950043209 1588.4422365698301,698.882932531223 Z" fill="url(#leaf13)" opacity="0.19" transform="rotate(26.9 1588.4 767.6)"/>
    <path d="M 611.3375328072741,56.71295988206328 C 634.6790953845855,76.16426202982278 642.4596162436893,103.39608503668609 611.3375328072741,134.5181684731013 C 580.2154493708589,103.39608503668609 587.9959702299627,76.16426202982278 611.3375328072741,56.71295988206328 Z" fill="url(#leaf14)" opacity="0.22" transform="rotate(346.7 611.3 95.6)"/>
    <path d="M 721.0153692736002,411.4724493033224 C 763.0245398599955,446.4800914586517 777.0275967221272,495.49079047611286 721.0153692736002,551.5030179246398 C 665.0031418250732,495.49079047611286 679.0061986872049,446.4800914586517 721.0153692736002,411.4724493033224 Z" fill="url(#leaf15)" opacity="0.24" transform="rotate(86.6 721.0 481.5)"/>
    <path d="M 839.4104506103969,677.463477706244 C 885.3714042498374,715.7642724057778 900.6917221296509,769.385384985125 839.4104506103969,830.666656504379 C 778.1291790911429,769.385384985125 793.4494969709564,715.7642724057778 839.4104506103969,677.463477706244 Z" fill="url(#leaf16)" opacity="0.24" transform="rotate(143.7 839.4 754.1)"/>
    <path d="M 1591.7978934015778,138.7395395774484 C 1616.1118505346465,159.00117052167224 1624.216502912336,187.36745384358565 1591.7978934015778,219.7860633543438 C 1559.3792838908196,187.36745384358565 1567.483936268509,159.00117052167224 1591.7978934015778,138.7395395774484 Z" fill="url(#leaf17)" opacity="0.17" transform="rotate(310.4 1591.8 179.3)"/>
    <path d="M 471.28338009607756,592.1248870963304 C 509.4300303236091,623.91376228594 522.1455803994529,668.4181875513934 471.28338009607756,719.2803878547688 C 420.42117979270216,668.4181875513934 433.136729868546,623.91376228594 471.28338009607756,592.1248870963304 Z" fill="url(#leaf18)" opacity="0.20" transform="rotate(283.8 471.3 655.7)"/>
    <path d="M 461.8522072590047,105.22260656474387 C 498.73090650354766,135.95485593519635 511.0238062517286,178.9800050538298 461.8522072590047,228.15160404655379 C 412.68060826628073,178.9800050538298 424.9735080144617,135.95485593519635 461.8522072590047,105.22260656474387 Z" fill="url(#leaf19)" opacity="0.17" transform="rotate(344.8 461.9 166.7)"/>
    <path d="M 711.5323405029368,346.81937010294735 C 738.5830200692745,369.36160307489547 747.5999132580538,400.9207292356228 711.5323405029368,436.9883019907397 C 675.4647677478198,400.9207292356228 684.481660936599,369.36160307489547 711.5323405029368,346.81937010294735 Z" fill="url(#leaf20)" opacity="0.19" transform="rotate(3.7 711.5 391.9)"/>
    <path d="M 1468.7842276883928,656.8388365581527 C 1511.2967773830599,692.2659613037087 1525.4676272812821,741.863935947487 1468.7842276883928,798.5473355403765 C 1412.1008280955034,741.863935947487 1426.2716779937257,692.2659613037087 1468.7842276883928,656.8388365581527 Z" fill="url(#leaf21)" opacity="0.17" transform="rotate(160.3 1468.8 727.7)"/>
    <path d="M 1191.5803773908528,841.2658487547303 C 1228.4446301709536,871.9860594048141 1240.732714430987,914.9943543149316 1191.5803773908528,964.1466913550657 C 1142.4280403507187,914.9943543149316 1154.716124610752,871.9860594048141 1191.5803773908528,841.2658487547303 Z" fill="url(#leaf22)" opacity="0.25" transform="rotate(278.5 1191.6 902.7)"/>
    <path d="M 1175.7985366020337,185.4847157850672 C 1215.3985243706954,218.48470559228537 1228.5985202935826,264.6846913223908 1175.7985366020337,317.48467501393986 C 1122.9985529104847,264.6846913223908 1136.198548833372,218.48470559228537 1175.7985366020337,185.4847157850672 Z" fill="url(#leaf23)" opacity="0.19" transform="rotate(30.9 1175.8 251.5)"/>
    <path d="M 1109.5683896826974,78.51622264415766 C 1140.44188882076,104.24413859254301 1150.733055200114,140.2632209202825 1109.5683896826974,181.42788643769904 C 1068.403724165281,140.2632209202825 1078.694890544635,104.24413859254301 1109.5683896826974,78.51622264415766 Z" fill="url(#leaf24)" opacity="0.16" transform="rotate(122.6 1109.6 130.0)"/>
    <path d="M 975.3118796573757,159.1979681971815 C 993.9878329588784,174.76126261510038 1000.2131507260459,196.54987480018679 975.3118796573757,221.45114586885697 C 950.4106085887055,196.54987480018679 956.635926355873,174.76126261510038 975.3118796573757,159.1979681971815 Z" fill="url(#leaf25)" opacity="0.24" transform="rotate(141.3 975.3 190.3)"/>
    <path d="M 1349.4136285124887,35.856298209718226 C 1383.2488223818193,64.05229310082701 1394.5272203382629,103.52668594837931 1349.4136285124887,148.64027777415336 C 1304.3000366867145,103.52668594837931 1315.578434643158,64.05229310082701 1349.4136285124887,35.856298209718226 Z" fill="url(#leaf26)" opacity="0.20" transform="rotate(44.1 1349.4 92.2)"/>
    <path d="M 1172.8355000862891,849.6838188069732 C 1191.6653020102835,865.375320410302 1197.941902651615,887.3434226549622 1172.8355000862891,912.4498252202882 C 1147.7290975209633,887.3434226549622 1154.0056981622947,865.375320410302 1172.8355000862891,849.6838188069732 Z" fill="url(#leaf27)" opacity="0.16" transform="rotate(70.9 1172.8 881.1)"/>
    <path d="M 749.8791232273603,513.3609618968808 C 794.5734389857498,550.606225028872 809.4715442385462,602.7495934136598 749.8791232273603,662.3420144248457 C 690.2867022161744,602.7495934136598 705.1848074689708,550.606225028872 749.8791232273603,513.3609618968808 Z" fill="url(#leaf28)" opacity="0.19" transform="rotate(355.2 749.9 587.9)"/>
    <path d="M 596.1756289828726,276.47155548469243 C 640.4539428379235,313.3701503639015 655.2133807896071,365.0281831947941 596.1756289828726,424.0659350015286 C 537.1378771761381,365.0281831947941 551.8973151278217,313.3701503639015 596.1756289828726,276.47155548469243 Z" fill="url(#leaf29)" opacity="0.15" transform="rotate(32.2 596.2 350.3)"/>
    <path d="M 642.3157016973529,428.15078523496186 C 669.3032969187171,450.6404479194321 678.2991619925052,482.1259756776904 642.3157016973529,518.1094359728428 C 606.3322414022006,482.1259756776904 615.3281064759886,450.6404479194321 642.3157016973529,428.15078523496186 Z" fill="url(#leaf0)" opacity="0.24" transform="rotate(66.9 642.3 473.1)"/>
    <path d="M 1435.1015831799275,128.00152260874535 C 1453.6280375191016,143.44023455805706 1459.8035222988262,165.05443128709342 1435.1015831799275,189.75637040599213 C 1410.3996440610288,165.05443128709342 1416.5751288407535,143.44023455805706 1435.1015831799275,128.00152260874535 Z" fill="url(#leaf1)" opacity="0.25" transform="rotate(31.9 1435.1 158.9)"/>
    <path d="M 179.40745056549204,904.9501101950246 C 197.44961063568869,919.9852435868552 203.4636639924209,941.0344303354179 179.40745056549204,965.0906437623468 C 155.3512371385632,941.0344303354179 161.3652904952954,919.9852435868552 179.40745056549204,904.9501101950246 Z" fill="url(#leaf2)" opacity="0.21" transform="rotate(208.9 179.4 935.0)"/>
    <path d="M 219.2780265995813,897.4936742470277 C 267.066594085536,937.3174804853234 282.9961165808542,993.0708092189371 219.2780265995813,1056.7888992002102 C 155.55993661830834,993.0708092189371 171.4894591136266,937.3174804853234 219.2780265995813,897.4936742470277 Z" fill="url(#leaf3)" opacity="0.20" transform="rotate(117.2 219.3 977.1)"/>
    <path d="M 1524.0311233224882,336.6771782946725 C 1546.9732647660721,355.7956294976592 1554.620645247267,382.5614611818407 1524.0311233224882,413.15098310661944 C 1493.4416013977093,382.5614611818407 1501.0889818789042,355.7956294976592 1524.0311233224882,336.6771782946725 Z" fill="url(#leaf4)" opacity="0.25" transform="rotate(25.0 1524.0 374.9)"/>
    <path d="M 1161.7479891245712,441.7953442051472 C 1195.465830577404,469.8935454158411 1206.7051110616815,509.2310271108126 1161.7479891245712,554.1881490479228 C 1116.790867187461,509.2310271108126 1128.0301476717384,469.8935454158411 1161.7479891245712,441.7953442051472 Z" fill="url(#leaf5)" opacity="0.17" transform="rotate(76.6 1161.7 498.0)"/>
    <path d="M 333.78269628992535,215.01479408760403 C 361.0662149829321,237.75105966510964 370.16072121393427,269.58183147361746 333.78269628992535,305.95985639762637 C 297.40467136591644,269.58183147361746 306.4991775969186,237.75105966510964 333.78269628992535,215.01479408760403 Z" fill="url(#leaf6)" opacity="0.19" transform="rotate(237.6 333.8 260.5)"/>
    <path d="M 1214.5274239036276,384.744887502186 C 1242.9566165742222,408.43588139434814 1252.433014131087,441.6032728433752 1214.5274239036276,479.50886307083465 C 1176.621833676168,441.6032728433752 1186.098231233033,408.43588139434814 1214.5274239036276,384.744887502186 Z" fill="url(#leaf7)" opacity="0.20" transform="rotate(269.2 1214.5 432.1)"/>
    <path d="M 1064.7068446015235,783.4581043561919 C 1111.7229625606205,822.6382026554395 1127.3950018803196,877.4903402743861 1064.7068446015235,940.1784975531822 C 1002.0186873227274,877.4903402743861 1017.6907266424264,822.6382026554395 1064.7068446015235,783.4581043561919 Z" fill="url(#leaf8)" opacity="0.16" transform="rotate(190.0 1064.7 861.8)"/>
    <path d="M 342.44589014975867,519.0268840407526 C 365.29279677341145,538.0659728937967 372.90843231462907,564.7206972880582 342.44589014975867,595.1832394529287 C 311.98334798488827,564.7206972880582 319.5989835261059,538.0659728937967 342.44589014975867,519.0268840407526 Z" fill="url(#leaf9)" opacity="0.20" transform="rotate(164.5 342.4 557.1)"/>
    <path d="M 486.68335854289563,865.5328539225441 C 534.2035176424891,905.1329865055386 550.043570675687,960.573172121731 486.68335854289563,1023.9333842545223 C 423.3231464101043,960.573172121731 439.1631994433022,905.1329865055386 486.68335854289563,865.5328539225441 Z" fill="url(#leaf10)" opacity="0.20" transform="rotate(154.9 486.7 944.7)"/>
    <path d="M 1339.696044280671,160.95065199872732 C 1378.048876689098,192.91134567241653 1390.8331541585737,237.65631681558145 1339.696044280671,288.7934266934842 C 1288.5589344027683,237.65631681558145 1301.343211872244,192.91134567241653 1339.696044280671,160.95065199872732 Z" fill="url(#leaf11)" opacity="0.22" transform="rotate(161.6 1339.7 224.9)"/>
    <path d="M 1065.7600285210776,157.9711065275941 C 1112.8084652925818,197.17813717051428 1128.4912775497498,252.06798007060252 1065.7600285210776,314.7992290992748 C 1003.0287794924053,252.06798007060252 1018.7115917495735,197.17813717051428 1065.7600285210776,157.9711065275941 Z" fill="url(#leaf12)" opacity="0.18" transform="rotate(346.5 1065.8 236.4)"/>
    <path d="M 582.058857683195,681.7725942080913 C 618.1784946495559,711.8722916800588 630.2183736383429,754.0118681408131 582.058857683195,802.171384095961 C 533.8993417280471,754.0118681408131 545.9392207168341,711.8722916800588 582.058857683195,681.7725942080913 Z" fill="url(#leaf13)" opacity="0.17" transform="rotate(190.9 582.1 742.0)"/>
    <path d="M 1072.5426566910214,524.9876743212484 C 1110.1285417464462,556.309245200769 1122.6571700982545,600.159444432098 1072.5426566910214,650.273957839331 C 1022.4281432837884,600.159444432098 1034.9567716355966,556.309245200769 1072.5426566910214,524.9876743212484 Z" fill="url(#leaf14)" opacity="0.24" transform="rotate(5.0 1072.5 587.6)"/>
    <path d="M 611.9587974010055,657.8143089607264 C 644.6404813817788,685.0490456113708 655.5343760420366,723.177676922273 611.9587974010055,766.7532555633042 C 568.3832187599745,723.177676922273 579.2771134202322,685.0490456113708 611.9587974010055,657.8143089607264 Z" fill="url(#leaf15)" opacity="0.21" transform="rotate(354.0 612.0 712.3)"/>
    <path d="M 408.15657727565144,808.9491160448808 C 449.93524903063434,843.7646758407 463.861472948962,892.5064595548467 408.15657727565144,948.2113552281573 C 352.4516816023409,892.5064595548467 366.37790552066855,843.7646758407 408.15657727565144,808.9491160448808 Z" fill="url(#leaf16)" opacity="0.19" transform="rotate(327.8 408.2 878.6)"/>
    <path d="M 505.972619176998,148.6366675741599 C 526.4296278684675,165.68417481705114 533.2486307656241,189.55068495709892 505.972619176998,216.82669654572493 C 478.696607588372,189.55068495709892 485.5156104855285,165.68417481705114 505.972619176998,148.6366675741599 Z" fill="url(#leaf17)" opacity="0.20" transform="rotate(205.3 506.0 182.7)"/>
    <path d="M 151.79219290220897,693.9626632621095 C 177.67894018310946,715.53495266286 186.30785594340963,745.7361578239105 151.79219290220897,780.2518208651112 C 117.2765298610083,745.7361578239105 125.90544562130847,715.53495266286 151.79219290220897,693.9626632621095 Z" fill="url(#leaf18)" opacity="0.24" transform="rotate(77.9 151.8 737.1)"/>
    <path d="M 1020.7306049049362,678.9433814845568 C 1060.9546204120861,712.4633944071818 1074.3626255811362,759.3914124988567 1020.7306049049362,813.0234331750567 C 967.0985842287362,759.3914124988567 980.5065893977862,712.4633944071818 1020.7306049049362,678.9433814845568 Z" fill="url(#leaf19)" opacity="0.24" transform="rotate(53.0 1020.7 746.0)"/>
    <path d="M 1603.3154496349755,233.8731864091279 C 1624.1495052640823,251.2348994333836 1631.0941904737847,275.5412976673415 1603.3154496349755,303.3200385061506 C 1575.5367087961663,275.5412976673415 1582.4813940058687,251.2348994333836 1603.3154496349755,233.8731864091279 Z" fill="url(#leaf20)" opacity="0.25" transform="rotate(33.7 1603.3 268.6)"/>
    <path d="M 378.2478579104087,756.5433846523367 C 424.0299789528039,794.695152187666 439.29068596693565,848.1076267371271 378.2478579104087,909.150454793654 C 317.20502985388174,848.1076267371271 332.4657368680135,794.695152187666 378.2478579104087,756.5433846523367 Z" fill="url(#leaf21)" opacity="0.21" transform="rotate(149.6 378.2 832.8)"/>
    <path d="M 379.10150624715277,947.5155367214014 C 402.08227797730706,966.6661798298634 409.7425352206918,993.47708018171 379.10150624715277,1024.118109155249 C 348.4604772736137,993.47708018171 356.1207345169985,966.6661798298634 379.10150624715277,947.5155367214014 Z" fill="url(#leaf22)" opacity="0.19" transform="rotate(349.8 379.1 985.8)"/>
    <path d="M 851.8546779371428,84.78558805703292 C 897.5300952423573,122.84843581137832 912.7552343440955,176.1364226674619 851.8546779371428,237.03697907441452 C 790.9541215301902,176.1364226674619 806.1792606319283,122.84843581137832 851.8546779371428,84.78558805703292 Z" fill="url(#leaf23)" opacity="0.24" transform="rotate(294.9 851.9 160.9)"/>
    <path d="M 772.0403501247183,27.629128117843262 C 790.533656709901,43.04021693882888 796.6980922382953,64.61574128820874 772.0403501247183,89.27348340178573 C 747.3826080111413,64.61574128820874 753.5470435395356,43.04021693882888 772.0403501247183,27.629128117843262 Z" fill="url(#leaf24)" opacity="0.21" transform="rotate(298.7 772.0 58.5)"/>
    </g>

    <!-- Text with SOLID fill only (ThorVG compatible) -->
    <text x="1088.6" y="976.1"
          font-family="Arial, Helvetica, sans-serif"
          font-size="1080px"
          font-weight="bold"
          fill="#00FA9A"
          text-anchor="middle"
          transform="rotate(12.8 960.0 540.0)">
      2
    </text>
  </g>

  <!-- Frame counter -->
  <text x="960.0" y="1050.0"
        font-family="monospace"
        font-size="24px"
        fill="#FFFFFF"
        text-anchor="middle"
        opacity="0.7">
    Frame 00097 - Compatible
  </text>
</svg>