<?xml version="1.0" encoding="UTF-8"?>
<svg xmlns="http://www.w3.org/2000/svg" viewBox="0 0 1920 1080" width="1920" height="1080">
  <defs>
    <linearGradient id="bgGrad" x1="0%" y1="0%" x2="100%" y2="100%">
      <stop offset="0%" stop-color="#32CD32"/>
      <stop offset="100%" stop-color="#FF1493"/>
    </linearGradient>
    <clipPath id="complexClip"><polygon points="1531.0,540.0 1455.1,575.2 1430.9,608.0 1324.2,621.1 1527.7,715.6 1379.9,711.6 1421.0,783.5 1287.4,762.6 1235.0,783.7 1169.8,790.8 1133.8,840.8 1056.9,825.7 996.0,861.6 919.1,906.0 840.1,893.5 776.6,857.6 766.3,771.6 620.4,841.0 592.0,790.2 557.7,752.5 547.7,708.5 531.2,672.6 496.0,643.3 310.6,633.8 478.3,574.2 421.4,540.0 495.4,507.0 441.3,465.1 510.2,439.8 577.9,421.9 620.9,401.4 578.2,338.3 611.1,302.8 622.0,240.4 681.9,207.6 762.7,198.5 872.6,282.4 927.2,247.0 992.6,248.1 1037.2,312.5 1079.9,332.4 1126.9,340.5 1269.4,265.8 1251.2,342.0 1297.0,362.0 1288.7,405.7 1484.1,377.9 1466.4,427.2 1594.4,448.4 1507.2,501.1"/></clipPath>
    <radialGradient id="leaf0" cx="50%" cy="50%" r="70%">
      <stop offset="0%" stop-color="#7B68EE"/>
      <stop offset="50%" stop-color="#DC143C"/>
      <stop offset="100%" stop-color="#4ECDC4"/>
    </radialGradient>
    <radialGradient id="leaf1" cx="50%" cy="50%" r="70%">
      <stop offset="0%" stop-color="#FFE66D"/>
      <stop offset="50%" stop-color="#4ECDC4"/>
      <stop offset="100%" stop-color="#45B7D1"/>
    </radialGradient>
    <radialGradient id="leaf2" cx="50%" cy="50%" r="70%">
      <stop offset="0%" stop-color="#9370DB"/>
      <stop offset="50%" stop-color="#FFD700"/>
      <stop offset="100%" stop-color="#45B7D1"/>
    </radialGradient>
    <radialGradient id="leaf3" cx="50%" cy="50%" r="70%">
      <stop offset="0%" stop-color="#96E6A1"/>
      <stop offset="50%" stop-color="#FFE66D"/>
      <stop offset="100%" stop-color="#4ECDC4"/>
    </radialGradient>
    <radialGradient id="leaf4" cx="50%" cy="50%" r="70%">
      <stop offset="0%" stop-color="#FFD700"/>
      <stop offset="50%" stop-color="#FFE66D"/>
      <stop offset="100%" stop-color="#4ECDC4"/>
    </radialGradient>
    <radialGradient id="leaf5" cx="50%" cy="50%" r="70%">
      <stop offset="0%" stop-color="#FFE66D"/>
      <stop offset="50%" stop-color="#7B68EE"/>
      <stop offset="100%" stop-color="#00CED1"/>
    </radialGradient>
    <radialGradient id="leaf6" cx="50%" cy="50%" r="70%">
      <stop offset="0%" stop-color="#FFD700"/>
      <stop offset="50%" stop-color="#9370DB"/>
      <stop offset="100%" stop-color="#00FA9A"/>
    </radialGradient>
    <radialGradient id="leaf7" cx="50%" cy="50%" r="70%">
      <stop offset="0%" stop-color="#32CD32"/>
      <stop offset="50%" stop-color="#FF69B4"/>
      <stop offset="100%" stop-color="#96E6A1"/>
    </radialGradient>
    <radialGradient id="leaf8" cx="50%" cy="50%" r="70%">
      <stop offset="0%" stop-color="#FFE66D"/>
      <stop offset="50%" stop-color="#DC143C"/>
      <stop offset="100%" stop-color="#FF1493"/>
    </radialGradient>
    <radialGradient id="leaf9" cx="50%" cy="50%" r="70%">
      <stop offset="0%" stop-color="#00CED1"/>
      <stop offset="50%" stop-color="#45B7D1"/>
      <stop offset="100%" stop-color="#4ECDC4"/>
    </radialGradient>
    <radialGradient id="leaf10" cx="50%" cy="50%" r="70%">
      <stop offset="0%" stop-color="#FF4500"/>
      <stop offset="50%" stop-color="#4ECDC4"/>
      <stop offset="100%" stop-color="#DC143C"/>
    </radialGradient>
    <radialGradient id="leaf11" cx="50%" cy="50%" r="70%">
      <stop offset="0%" stop-color="#00FA9A"/>
      <stop offset="50%" stop-color="#32CD32"/>
      <stop offset="100%" stop-color="#DC143C"/>
    </radialGradient>
    <radialGradient id="leaf12" cx="50%" cy="50%" r="70%">
      <stop offset="0%" stop-color="#DC143C"/>
      <stop offset="50%" stop-color="#00CED1"/>
      <stop offset="100%" stop-color="#32CD32"/>
    </radialGradient>
    <radialGradient id="leaf13" cx="50%" cy="50%" r="70%">
      <stop offset="0%" stop-color="#9370DB"/>
      <stop offset="50%" stop-color="#45B7D1"/>
      <stop offset="100%" stop-color="#FF1493"/>
    </radialGradient>
    <radialGradient id="leaf14" cx="50%" cy="50%" r="70%">
      <stop offset="0%" stop-color="#FF1493"/>
      <stop offset="50%" stop-color="#FF69B4"/>
      <stop offset="100%" stop-color="#FFE66D"/>
    </radialGradient>
    <radialGradient id="leaf15" cx="50%" cy="50%" r="70%">
      <stop offset="0%" stop-color="#FFD700"/>
      <stop offset="50%" stop-color="#32CD32"/>
      <stop offset="100%" stop-color="#00FA9A"/>
    </radialGradient>
    <radialGradient id="leaf16" cx="50%" cy="50%" r="70%">
      <stop offset="0%" stop-color="#4ECDC4"/>
      <stop offset="50%" stop-color="#FF1493"/>
      <stop offset="100%" stop-color="#FFE66D"/>
    </radialGradient>
    <radialGradient id="leaf17" cx="50%" cy="50%" r="70%">
      <stop offset="0%" stop-color="#96E6A1"/>
      <stop offset="50%" stop-color="#DC143C"/>
      <stop offset="100%" stop-color="#FFE66D"/>
    </radialGradient>
    <radialGradient id="leaf18" cx="50%" cy="50%" r="70%">
      <stop offset="0%" stop-color="#7B68EE"/>
      <stop offset="50%" stop-color="#4ECDC4"/>
      <stop offset="100%" stop-color="#96E6A1"/>
    </radialGradient>
    <radialGradient id="leaf19" cx="50%" cy="50%" r="70%">
      <stop offset="0%" stop-color="#00FA9A"/>
      <stop offset="50%" stop-color="#9370DB"/>
      <stop offset="100%" stop-color="#7B68EE"/>
    </radialGradient>
    <radialGradient id="leaf20" cx="50%" cy="50%" r="70%">
      <stop offset="0%" stop-color="#00CED1"/>
      <stop offset="50%" stop-color="#96E6A1"/>
      <stop offset="100%" stop-color="#FFE66D"/>
    </radialGradient>
    <radialGradient id="leaf21" cx="50%" cy="50%" r="70%">
      <stop offset="0%" stop-color="#4ECDC4"/>
      <stop offset="50%" stop-color="#9370DB"/>
      <stop offset="100%" stop-color="#DC143C"/>
    </radialGradient>
    <radialGradient id="leaf22" cx="50%" cy="50%" r="70%">
      <stop offset="0%" stop-color="#32CD32"/>
      <stop offset="50%" stop-color="#96E6A1"/>
      <stop offset="100%" stop-color="#FFE66D"/>
    </radialGradient>
    <radialGradient id="leaf23" cx="50%" cy="50%" r="70%">
      <stop offset="0%" stop-color="#FF1493"/>
      <stop offset="50%" stop-color="#FFE66D"/>
      <stop offset="100%" stop-color="#FFD700"/>
    </radialGradient>
    <radialGradient id="leaf24" cx="50%" cy="50%" r="70%">
      <stop offset="0%" stop-color="#FF69B4"/>
      <stop offset="50%" stop-color="#32CD32"/>
      <stop offset="100%" stop-color="#FF1493"/>
    </radialGradient>
    <radialGradient id="leaf25" cx="50%" cy="50%" r="70%">
      <stop offset="0%" stop-color="#00CED1"/>
      <stop offset="50%" stop-color="#7B68EE"/>
      <stop offset="100%" stop-color="#32CD32"/>
    </radialGradient>
    <radialGradient id="leaf26" cx="50%" cy="50%" r="70%">
      <stop offset="0%" stop-color="#00CED1"/>
      <stop offset="50%" stop-color="#4ECDC4"/>
      <stop offset="100%" stop-color="#32CD32"/>
    </radialGradient>
    <radialGradient id="leaf27" cx="50%" cy="50%" r="70%">
      <stop offset="0%" stop-color="#FF4500"/>
      <stop offset="50%" stop-color="#32CD32"/>
      <stop offset="100%" stop-color="#FF69B4"/>
    </radialGradient>
    <radialGradient id="leaf28" cx="50%" cy="50%" r="70%">
      <stop offset="0%" stop-color="#96E6A1"/>
      <stop offset="50%" stop-color="#7B68EE"/>
      <stop offset="100%" stop-color="#9370DB"/>
    </radialGradient>
    <radialGradient id="leaf29" cx="50%" cy="50%" r="70%">
      <stop offset="0%" stop-color="#7B68EE"/>
      <stop offset="50%" stop-color="#FF4500"/>
      <stop offset="100%" stop-color="#FFE66D"/>
    </radialGradient>
  </defs>

  <!-- Scaled content -->
  <g transform="translate(960.0,540.0) scale(3.0) translate(-960.0,-540.0)">
    <!-- Background -->
    <rect width="1920" height="1080" fill="url(#bgGrad)"/>
    
    <!-- Leaves with clip-path -->
    <g clip-path="url(#complexClip)">
    <path d="M 368.57570215310517,508.5277431169175 C 390.1385278987931,526.4967645716574 397.32613648068906,551.6533946082934 368.57570215310517,580.4038289358773 C 339.8252678255213,551.6533946082934 347.01287640741725,526.4967645716574 368.57570215310517,508.5277431169175 Z" fill="url(#leaf0)" opacity="0.22" transform="rotate(356.6 368.6 544.5)"/>
    <path d="M 909.8505604144134,802.3079490843202 C 956.699123058748,841.348417954599 972.3153106068595,896.0050743729893 909.8505604144134,958.4698245654354 C 847.3858102219673,896.0050743729893 863.0019977700788,841.348417954599 909.8505604144134,802.3079490843202 Z" fill="url(#leaf1)" opacity="0.23" transform="rotate(127.5 909.9 880.4)"/>
    <path d="M 1265.1296091047845,796.3232299706293 C 1290.6744395996943,817.6105887163875 1299.1893830979977,847.412890960449 1265.1296091047845,881.472664953662 C 1231.0698351115714,847.412890960449 1239.5847786098748,817.6105887163875 1265.1296091047845,796.3232299706293 Z" fill="url(#leaf2)" opacity="0.17" transform="rotate(151.7 1265.1 838.9)"/>
    <path d="M 1589.007546992475,508.3991480786602 C 1624.9029653290218,538.3119966924492 1636.8681047745374,580.1899847517539 1589.007546992475,628.0505425338163 C 1541.1469892104126,580.1899847517539 1553.1121286559282,538.3119966924492 1589.007546992475,508.3991480786602 Z" fill="url(#leaf3)" opacity="0.19" transform="rotate(162.0 1589.0 568.2)"/>
    <path d="M 1509.0873295373228,711.5300013252787 C 1531.3457984802833,730.0787254444124 1538.7652881279369,756.0469392111995 1509.0873295373228,785.7248978018134 C 1479.4093709467088,756.0469392111995 1486.8288605943624,730.0787254444124 1509.0873295373228,711.5300013252787 Z" fill="url(#leaf4)" opacity="0.24" transform="rotate(299.5 1509.1 748.6)"/>
    <path d="M 454.11927877233984,442.38041670218956 C 474.7846300191363,459.60154274118656 481.6730804347351,483.71111919578243 454.11927877233984,511.2649208581777 C 426.5654771099446,483.71111919578243 433.4539275255434,459.60154274118656 454.11927877233984,442.38041670218956 Z" fill="url(#leaf5)" opacity="0.24" transform="rotate(77.6 454.1 476.8)"/>
    <path d="M 732.0504498474152,139.35222539534072 C 761.5944824382806,163.9722525543952 771.4424933019023,198.4402905770715 732.0504498474152,237.83233403155867 C 692.658406392928,198.4402905770715 702.5064172565498,163.9722525543952 732.0504498474152,139.35222539534072 Z" fill="url(#leaf6)" opacity="0.16" transform="rotate(324.4 732.1 188.6)"/>
    <path d="M 1315.6187757844598,643.7637680181253 C 1348.109682580729,670.8395236816831 1358.9399848461521,708.745581610664 1315.6187757844598,752.0667906723563 C 1272.2975667227674,708.745581610664 1283.1278689881906,670.8395236816831 1315.6187757844598,643.7637680181253 Z" fill="url(#leaf7)" opacity="0.18" transform="rotate(102.1 1315.6 697.9)"/>
    <path d="M 1089.15348005024,157.83424759486184 C 1118.7223734060176,182.47499205800983 1128.5786711912767,216.972034306417 1089.15348005024,256.39722544745376 C 1049.7282889092032,216.972034306417 1059.5845866944624,182.47499205800983 1089.15348005024,157.83424759486184 Z" fill="url(#leaf8)" opacity="0.17" transform="rotate(188.7 1089.2 207.1)"/>
    <path d="M 1805.5281935216706,789.5175182542071 C 1830.2792637244875,810.1434100898879 1838.5296204587598,839.0196586598408 1805.5281935216706,872.0210855969301 C 1772.5267665845813,839.0196586598408 1780.7771233188537,810.1434100898879 1805.5281935216706,789.5175182542071 Z" fill="url(#leaf9)" opacity="0.23" transform="rotate(115.4 1805.5 830.8)"/>
    <path d="M 1196.8090613843237,823.5113314914843 C 1228.7167489066296,850.1010710934058 1239.3526447473982,887.326706536096 1196.8090613843237,929.8702898991705 C 1154.2654780212492,887.326706536096 1164.9013738620179,850.1010710934058 1196.8090613843237,823.5113314914843 Z" fill="url(#leaf10)" opacity="0.24" transform="rotate(95.3 1196.8 876.7)"/>
    <path d="M 479.008506466074,95.39992336107842 C 511.88405996809206,122.79621794609349 522.842577802098,161.15103036511456 479.008506466074,204.98510170113866 C 435.17443513004986,161.15103036511456 446.1329529640559,122.79621794609349 479.008506466074,95.39992336107842 Z" fill="url(#leaf11)" opacity="0.25" transform="rotate(263.5 479.0 150.2)"/>
    <path d="M 590.1239560541396,208.58147430562462 C 636.8963537679458,247.55847240046313 652.4871530058813,302.12626973323705 590.1239560541396,364.48946668497865 C 527.760759102398,302.12626973323705 543.3515583403334,247.55847240046313 590.1239560541396,208.58147430562462 Z" fill="url(#leaf12)" opacity="0.17" transform="rotate(290.6 590.1 286.5)"/>
    <path d="M 1065.4178004722094,654.9442499979475 C 1084.3682660133768,670.736304615587 1090.6850878604325,692.8451810802821 1065.4178004722094,718.1124684685053 C 1040.1505130839862,692.8451810802821 1046.467334931042,670.736304615587 1065.4178004722094,654.9442499979475 Z" fill="url(#leaf13)" opacity="0.24" transform="rotate(207.3 1065.4 686.5)"/>
    <path d="M 205.60720297361394,458.0222149099884 C 240.5468882657851,487.13861932013106 252.19345002984215,527.9015854943308 205.60720297361394,574.487832550559 C 159.02095591738572,527.9015854943308 170.66751768144277,487.13861932013106 205.60720297361394,458.0222149099884 Z" fill="url(#leaf14)" opacity="0.19" transform="rotate(185.6 205.6 516.3)"/>
    <path d="M 1671.4778909144152,476.1288358006375 C 1717.464706652065,514.451182248679 1732.7936452312815,568.102467275937 1671.4778909144152,629.4182215928033 C 1610.1621365975489,568.102467275937 1625.4910751767654,514.451182248679 1671.4778909144152,476.1288358006375 Z" fill="url(#leaf15)" opacity="0.19" transform="rotate(140.4 1671.5 552.8)"/>
    <path d="M 1616.4884246218055,737.7864256219256 C 1638.3088761365516,755.9701352175472 1645.5823599748,781.4273286514175 1616.4884246218055,810.521264004412 C 1587.394489268811,781.4273286514175 1594.6679731070594,755.9701352175472 1616.4884246218055,737.7864256219256 Z" fill="url(#leaf16)" opacity="0.20" transform="rotate(285.7 1616.5 774.2)"/>
    <path d="M 603.0025125987515,171.14079304549708 C 646.0321093933201,206.99879037430418 660.3753083248429,257.1999866346341 603.0025125987515,314.57278236072545 C 545.6297168726602,257.1999866346341 559.972915804183,206.99879037430418 603.0025125987515,171.14079304549708 Z" fill="url(#leaf17)" opacity="0.23" transform="rotate(160.8 603.0 242.9)"/>
    <path d="M 896.5365219070102,62.77304541648075 C 917.2171870572593,80.00693304168827 924.1107421073422,104.1343757169788 896.5365219070102,131.70859591731082 C 868.9623017066782,104.1343757169788 875.8558567567611,80.00693304168827 896.5365219070102,62.77304541648075 Z" fill="url(#leaf18)" opacity="0.24" transform="rotate(64.1 896.5 97.2)"/>
    <path d="M 1718.5886698854529,474.10596951600553 C 1758.7113572610099,507.5415423289697 1772.0855863861955,554.3513442671195 1718.5886698854529,607.8482607678621 C 1665.0917533847103,554.3513442671195 1678.4659825098959,507.5415423289697 1718.5886698854529,474.10596951600553 Z" fill="url(#leaf19)" opacity="0.22" transform="rotate(281.4 1718.6 541.0)"/>
    <path d="M 1330.8978837772036,150.97694902121762 C 1349.2348110399632,166.25772174018408 1355.34712012755,187.65080354673714 1330.8978837772036,212.10003989708346 C 1306.4486474268572,187.65080354673714 1312.560956514444,166.25772174018408 1330.8978837772036,150.97694902121762 Z" fill="url(#leaf20)" opacity="0.21" transform="rotate(134.5 1330.9 181.5)"/>
    <path d="M 347.27313776965,72.73733877511481 C 387.1412606327811,105.9607744943907 400.43063492049146,152.47358450137696 347.27313776965,205.6310816522184 C 294.1156406188086,152.47358450137696 307.40501490651894,105.9607744943907 347.27313776965,72.73733877511481 Z" fill="url(#leaf21)" opacity="0.21" transform="rotate(155.8 347.3 139.2)"/>
    <path d="M 480.2484107861062,270.6119253067999 C 514.7778187226183,299.38643192055997 526.2876213681224,339.67074117982406 480.2484107861062,385.7099517618402 C 434.20920020409005,339.67074117982406 445.71900284959406,299.38643192055997 480.2484107861062,270.6119253067999 Z" fill="url(#leaf22)" opacity="0.18" transform="rotate(191.3 480.2 328.2)"/>
    <path d="M 1850.5396130046324,277.3331394622791 C 1873.7255459528146,296.6547502524309 1881.4541902688754,323.7050053586435 1850.5396130046324,354.6195826228864 C 1819.6250357403894,323.7050053586435 1827.3536800564502,296.6547502524309 1850.5396130046324,277.3331394622791 Z" fill="url(#leaf23)" opacity="0.25" transform="rotate(186.3 1850.5 316.0)"/>
    <path d="M 451.629757351736,451.5922573564483 C 492.317677214808,485.4988572423416 505.8803171691653,532.9680970825923 451.629757351736,587.2186569000216 C 397.3791975343066,532.9680970825923 410.94183748866396,485.4988572423416 451.629757351736,451.5922573564483 Z" fill="url(#leaf24)" opacity="0.23" transform="rotate(246.8 451.6 519.4)"/>
    <path d="M 1711.2689284876155,50.192854095467396 C 1756.2234709660763,87.65497282751805 1771.2083184588967,140.10193905238896 1711.2689284876155,200.04132902367002 C 1651.3295385163344,140.10193905238896 1666.3143860091548,87.65497282751805 1711.2689284876155,50.192854095467396 Z" fill="url(#leaf25)" opacity="0.19" transform="rotate(109.0 1711.3 125.1)"/>
    <path d="M 247.46557613996035,700.3225203071188 C 290.70727097801034,736.3572660054938 305.12116925736035,786.8059099832187 247.46557613996035,844.4615031006188 C 189.80998302256035,786.8059099832187 204.22388130191035,736.3572660054938 247.46557613996035,700.3225203071188 Z" fill="url(#leaf26)" opacity="0.19" transform="rotate(223.8 247.5 772.4)"/>
    <path d="M 703.271851846344,758.0184496858865 C 734.1859195624742,783.7801727826616 744.4906088011843,819.8465851181468 703.271851846344,861.065342072987 C 662.0530948915037,819.8465851181468 672.3577841302139,783.7801727826616 703.271851846344,758.0184496858865 Z" fill="url(#leaf27)" opacity="0.18" transform="rotate(228.1 703.3 809.5)"/>
    <path d="M 495.9645704083198,947.840621873147 C 524.780683662456,971.8540495849272 534.3860547471681,1005.4728483814195 495.9645704083198,1043.8943327202678 C 457.5430860694714,1005.4728483814195 467.1484571541836,971.8540495849272 495.9645704083198,947.840621873147 Z" fill="url(#leaf28)" opacity="0.22" transform="rotate(66.0 496.0 995.9)"/>
    <path d="M 306.7946165082346,262.2903564245749 C 353.4585392186706,301.17695868327155 369.01318012214927,355.6182018454469 306.7946165082346,417.8367654593615 C 244.57605289431993,355.6182018454469 260.1306937977986,301.17695868327155 306.7946165082346,262.2903564245749 Z" fill="url(#leaf29)" opacity="0.24" transform="rotate(10.9 306.8 340.1)"/>
    <path d="M 412.5765137039171,150.20216894916126 C 438.60171027540395,171.88983275873363 447.2767757992329,202.25256209213495 412.5765137039171,236.95282418745074 C 377.8762516086013,202.25256209213495 386.55131713243026,171.88983275873363 412.5765137039171,150.20216894916126 Z" fill="url(#leaf0)" opacity="0.18" transform="rotate(73.2 412.6 193.6)"/>
    <path d="M 1713.9184769599885,907.4842052394686 C 1740.3953567313788,929.548271715627 1749.2209833218421,960.4379647822489 1713.9184769599885,995.7404711441025 C 1678.615970598135,960.4379647822489 1687.4415971885983,929.548271715627 1713.9184769599885,907.4842052394686 Z" fill="url(#leaf1)" opacity="0.20" transform="rotate(56.1 1713.9 951.6)"/>
    <path d="M 1113.707034857803,211.682611881531 C 1149.4930222950954,241.50426807927482 1161.421684774193,283.25458675611617 1113.707034857803,330.9692366725063 C 1065.9923849414129,283.25458675611617 1077.9210474205104,241.50426807927482 1113.707034857803,211.682611881531 Z" fill="url(#leaf2)" opacity="0.22" transform="rotate(237.2 1113.7 271.3)"/>
    <path d="M 1731.9139085373974,28.68265738821669 C 1768.0212271368594,58.77208955443493 1780.0570000033467,100.89729458714046 1731.9139085373974,149.04038605308966 C 1683.7708170714482,100.89729458714046 1695.8065899379355,58.77208955443493 1731.9139085373974,28.68265738821669 Z" fill="url(#leaf3)" opacity="0.15" transform="rotate(294.6 1731.9 88.9)"/>
    <path d="M 975.2509482597928,590.9140196923199 C 998.3192420414521,610.1375978437027 1006.0086733020051,637.0506072556384 975.2509482597928,667.8083322978507 C 944.4932232175805,637.0506072556384 952.1826544781336,610.1375978437027 975.2509482597928,590.9140196923199 Z" fill="url(#leaf4)" opacity="0.20" transform="rotate(289.3 975.3 629.4)"/>
    <path d="M 412.4712375778728,817.8036679985803 C 450.02892734131626,849.1017428014499 462.5481572624641,892.9190475254672 412.4712375778728,942.9959672100586 C 362.3943178932815,892.9190475254672 374.9135478144293,849.1017428014499 412.4712375778728,817.8036679985803 Z" fill="url(#leaf5)" opacity="0.18" transform="rotate(54.8 412.5 880.4)"/>
    <path d="M 1632.667373285113,747.6888278108854 C 1676.7022011583692,784.3845177052657 1691.3804771161213,835.7584835573981 1632.667373285113,894.4715873884065 C 1573.9542694541046,835.7584835573981 1588.6325454118567,784.3845177052657 1632.667373285113,747.6888278108854 Z" fill="url(#leaf6)" opacity="0.15" transform="rotate(162.7 1632.7 821.1)"/>
    <path d="M 834.5426588409531,775.8855087814945 C 869.0266623634582,804.6221783835821 880.5213302042931,844.8535158265047 834.5426588409531,890.8321871898447 C 788.5639874776131,844.8535158265047 800.058655318448,804.6221783835821 834.5426588409531,775.8855087814945 Z" fill="url(#leaf7)" opacity="0.18" transform="rotate(102.0 834.5 833.4)"/>
    <path d="M 1129.413620478215,362.9683262609183 C 1176.3616038460946,402.09164573415114 1192.0109316353878,456.86429299667714 1129.413620478215,519.4616041538497 C 1066.8163093210424,456.86429299667714 1082.4656371103356,402.09164573415114 1129.413620478215,362.9683262609183 Z" fill="url(#leaf8)" opacity="0.24" transform="rotate(214.3 1129.4 441.2)"/>
    <path d="M 1308.9175918971887,341.5764507077728 C 1340.5628990249177,367.94753998088026 1351.1113347341607,404.86706496323075 1308.9175918971887,447.0608078002027 C 1266.7238490602167,404.86706496323075 1277.2722847694597,367.94753998088026 1308.9175918971887,341.5764507077728 Z" fill="url(#leaf9)" opacity="0.22" transform="rotate(145.1 1308.9 394.3)"/>
    <path d="M 253.38606456006093,868.5188183805199 C 287.9089061627798,897.2878530494522 299.41652003035273,937.5645015859575 253.38606456006093,983.5949570562493 C 207.35560908976913,937.5645015859575 218.8632229573421,897.2878530494522 253.38606456006093,868.5188183805199 Z" fill="url(#leaf10)" opacity="0.17" transform="rotate(84.1 253.4 926.1)"/>
    <path d="M 1806.4534401389376,932.11827497259 C 1841.1868989667955,961.0628239958048 1852.7647185760813,1001.5851926283057 1806.4534401389376,1047.8964710654495 C 1760.1421617017938,1001.5851926283057 1771.7199813110797,961.0628239958048 1806.4534401389376,932.11827497259 Z" fill="url(#leaf11)" opacity="0.22" transform="rotate(244.0 1806.5 990.0)"/>
    <path d="M 494.8743135666131,508.4468107824225 C 525.6113506351701,534.0610083395533 535.8570296580224,569.9208849195364 494.8743135666131,610.9036010109457 C 453.8915974752038,569.9208849195364 464.13727649805617,534.0610083395533 494.8743135666131,508.4468107824225 Z" fill="url(#leaf12)" opacity="0.25" transform="rotate(86.1 494.9 559.7)"/>
    <path d="M 769.1767937370687,864.009460725942 C 793.4469632896025,884.2346020197201 801.5370198071138,912.5497998310095 769.1767937370687,944.9100259010546 C 736.8165676670236,912.5497998310095 744.9066241845348,884.2346020197201 769.1767937370687,864.009460725942 Z" fill="url(#leaf13)" opacity="0.16" transform="rotate(185.8 769.2 904.5)"/>
    <path d="M 708.6042299576794,610.4870813001099 C 735.8508875715438,633.1926293116636 744.9331067761653,664.9803965278387 708.6042299576794,701.3092733463246 C 672.2753531391935,664.9803965278387 681.357572343815,633.1926293116636 708.6042299576794,610.4870813001099 Z" fill="url(#leaf14)" opacity="0.23" transform="rotate(320.4 708.6 655.9)"/>
    <path d="M 154.28070418023165,389.1896291055341 C 201.82380467015489,428.80887951380345 217.67150483346265,484.27583008538056 154.28070418023165,547.6666307386115 C 90.88990352700066,484.27583008538056 106.73760369030842,428.80887951380345 154.28070418023165,389.1896291055341 Z" fill="url(#leaf15)" opacity="0.25" transform="rotate(283.4 154.3 468.4)"/>
    <path d="M 415.3715178762895,932.1061810415837 C 444.6863820447196,956.5352345152755 454.45800343419637,990.735909378444 415.3715178762895,1029.8223949363507 C 376.2850323183826,990.735909378444 386.05665370785937,956.5352345152755 415.3715178762895,932.1061810415837 Z" fill="url(#leaf16)" opacity="0.17" transform="rotate(225.7 415.4 981.0)"/>
    <path d="M 325.233392461118,103.98213751768223 C 346.8693988609403,122.01214285086746 354.08140099421433,147.25415031732678 325.233392461118,176.1021588504231 C 296.38538392802167,147.25415031732678 303.5973860612957,122.01214285086746 325.233392461118,103.98213751768223 Z" fill="url(#leaf17)" opacity="0.24" transform="rotate(178.4 325.2 140.0)"/>
    <path d="M 1131.6725384478354,42.821672522064205 C 1166.9221830937233,72.19637639363752 1178.6720646423528,113.32096181384017 1131.6725384478354,160.32048800835747 C 1084.6730122533181,113.32096181384017 1096.4228938019476,72.19637639363752 1131.6725384478354,42.821672522064205 Z" fill="url(#leaf18)" opacity="0.21" transform="rotate(69.9 1131.7 101.6)"/>
    <path d="M 769.7851236284566,370.9239021325571 C 803.1784535928751,398.7516771029059 814.3095635810147,437.7105620613942 769.7851236284566,482.2350020139523 C 725.2606836758986,437.7105620613942 736.3917936640381,398.7516771029059 769.7851236284566,370.9239021325571 Z" fill="url(#leaf19)" opacity="0.24" transform="rotate(77.2 769.8 426.6)"/>
    <path d="M 1787.8226419318685,654.4972011145778 C 1826.984119077417,687.1317654025349 1840.0379447926,732.820155405675 1787.8226419318685,785.0354582664065 C 1735.607339071137,732.820155405675 1748.66116478632,687.1317654025349 1787.8226419318685,654.4972011145778 Z" fill="url(#leaf20)" opacity="0.16" transform="rotate(275.3 1787.8 719.8)"/>
    <path d="M 1013.6843335621419,219.94202712550958 C 1053.9843077703729,253.525338965702 1067.4176325064498,300.54197554197134 1013.6843335621419,354.2752744862792 C 959.951034617834,300.54197554197134 973.384359353911,253.525338965702 1013.6843335621419,219.94202712550958 Z" fill="url(#leaf21)" opacity="0.21" transform="rotate(139.4 1013.7 287.1)"/>
    <path d="M 1461.158559292239,473.225886553767 C 1486.4809885984182,494.32791097558305 1494.9217983671447,523.8707451661254 1461.158559292239,557.633984241031 C 1427.3953202173334,523.8707451661254 1435.8361299860599,494.32791097558305 1461.158559292239,473.225886553767 Z" fill="url(#leaf22)" opacity="0.20" transform="rotate(132.3 1461.2 515.4)"/>
    <path d="M 1170.0779136968179,519.6939802528194 C 1206.537295613079,550.0767985163706 1218.6904229184995,592.612744085342 1170.0779136968179,641.2252533070238 C 1121.4654044751362,592.612744085342 1133.6185317805566,550.0767985163706 1170.0779136968179,519.6939802528194 Z" fill="url(#leaf23)" opacity="0.17" transform="rotate(241.2 1170.1 580.5)"/>
    <path d="M 813.0573063851069,140.65264899030265 C 854.1908221354897,174.9305787822883 867.901994052284,222.9196804910682 813.0573063851069,277.76436815824525 C 758.2126187179299,222.9196804910682 771.9237906347241,174.9305787822883 813.0573063851069,140.65264899030265 Z" fill="url(#leaf24)" opacity="0.21" transform="rotate(260.4 813.1 209.2)"/>
    <path d="M 126.98916938781278,78.26803906416154 C 155.5169208123167,102.04116525124815 165.02617128715133,135.32354191316938 126.98916938781278,173.36054381250793 C 88.95216748847423,135.32354191316938 98.46141796330886,102.04116525124815 126.98916938781278,78.26803906416154 Z" fill="url(#leaf25)" opacity="0.21" transform="rotate(181.1 127.0 125.8)"/>
    <path d="M 1128.2723167706376,120.14111310197852 C 1159.6260668669033,146.26923818219998 1170.077316898992,182.84861329451002 1128.2723167706376,224.65361342286434 C 1086.4673166422833,182.84861329451002 1096.918566674372,146.26923818219998 1128.2723167706376,120.14111310197852 Z" fill="url(#leaf26)" opacity="0.16" transform="rotate(28.1 1128.3 172.4)"/>
    <path d="M 377.42549708661386,946.2105915812724 C 402.757555840374,967.3206405427392 411.2015754249607,996.8747090887927 377.42549708661386,1030.6507874271394 C 343.649418748267,996.8747090887927 352.09343833285374,967.3206405427392 377.42549708661386,946.2105915812724 Z" fill="url(#leaf27)" opacity="0.22" transform="rotate(91.1 377.4 988.4)"/>
    <path d="M 157.99359978329994,685.1704277836881 C 194.88787807772388,715.9156596957081 207.18597084253187,758.958984372536 157.99359978329994,808.1513554317679 C 108.80122872406801,758.958984372536 121.099321488876,715.9156596957081 157.99359978329994,685.1704277836881 Z" fill="url(#leaf28)" opacity="0.15" transform="rotate(194.9 158.0 746.7)"/>
    <path d="M 348.35460171085293,702.3106184155403 C 384.93278269641974,732.7924359035126 397.1255096916086,775.4669803866738 348.35460171085293,824.2378883674295 C 299.58369373009725,775.4669803866738 311.77642072528613,732.7924359035126 348.35460171085293,702.3106184155403 Z" fill="url(#leaf29)" opacity="0.19" transform="rotate(293.2 348.4 763.3)"/>
    <path d="M 589.1277363238037,835.2940697508454 C 613.2393867358761,855.3871117609058 621.2766035399002,883.5173705749903 589.1277363238037,915.6662377910868 C 556.9788691077072,883.5173705749903 565.0160859117312,855.3871117609058 589.1277363238037,835.2940697508454 Z" fill="url(#leaf0)" opacity="0.18" transform="rotate(354.3 589.1 875.5)"/>
    <path d="M 1842.4443832184772,748.1583282653298 C 1871.15544151502,772.0842101791153 1880.725794280534,805.5804448584149 1842.4443832184772,843.8618559204717 C 1804.1629721564204,805.5804448584149 1813.7333249219346,772.0842101791153 1842.4443832184772,748.1583282653298 Z" fill="url(#leaf1)" opacity="0.19" transform="rotate(291.7 1842.4 796.0)"/>
    <path d="M 1254.3892621602195,919.617715888234 C 1279.202655843597,940.2955439577155 1287.4737870713898,969.2445032549895 1254.3892621602195,1002.3290281661598 C 1221.3047372490491,969.2445032549895 1229.5758684768418,940.2955439577155 1254.3892621602195,919.617715888234 Z" fill="url(#leaf2)" opacity="0.24" transform="rotate(140.0 1254.4 961.0)"/>
    <path d="M 267.7488396109886,622.6286531235863 C 296.02851642406887,646.1950504678199 305.4550753617623,679.1880067497469 267.7488396109886,716.8942425005206 C 230.04260386021497,679.1880067497469 239.46916279790838,646.1950504678199 267.7488396109886,622.6286531235863 Z" fill="url(#leaf3)" opacity="0.24" transform="rotate(61.3 267.7 669.8)"/>
    <path d="M 1841.2091576577452,502.97094056677366 C 1867.2643254787129,524.6835804175801 1875.9493814190355,555.0812762087091 1841.2091576577452,589.8214999699994 C 1806.468933896455,555.0812762087091 1815.1539898367776,524.6835804175801 1841.2091576577452,502.97094056677366 Z" fill="url(#leaf4)" opacity="0.21" transform="rotate(17.8 1841.2 546.4)"/>
    <path d="M 1763.3239791161932,458.8688293639945 C 1791.140422844935,482.04919913794606 1800.4125707545156,514.5017168214781 1763.3239791161932,551.5903084598006 C 1726.2353874778707,514.5017168214781 1735.5075353874513,482.04919913794606 1763.3239791161932,458.8688293639945 Z" fill="url(#leaf5)" opacity="0.23" transform="rotate(63.9 1763.3 505.2)"/>
    <path d="M 1694.2373297898373,784.3838144196079 C 1733.4258693137176,817.0409306895083 1746.488715821678,862.7608934673688 1694.2373297898373,915.0122794992094 C 1641.9859437579967,862.7608934673688 1655.048790265957,817.0409306895083 1694.2373297898373,784.3838144196079 Z" fill="url(#leaf6)" opacity="0.19" transform="rotate(141.0 1694.2 849.7)"/>
    <path d="M 112.64292267807869,295.5095044141353 C 160.63397259280094,335.50204600973717 176.63098923104172,391.49160424357984 112.64292267807869,455.47967079654285 C 48.65485612511566,391.49160424357984 64.65187276335642,335.50204600973717 112.64292267807869,295.5095044141353 Z" fill="url(#leaf7)" opacity="0.17" transform="rotate(165.8 112.6 375.5)"/>
    <path d="M 232.84570938695163,360.4663197111762 C 271.036336763334,392.2918425248282 283.76654588879484,436.84757446394104 232.84570938695163,487.76841096578426 C 181.9248728851084,436.84757446394104 194.65508201056923,392.2918425248282 232.84570938695163,360.4663197111762 Z" fill="url(#leaf8)" opacity="0.20" transform="rotate(336.3 232.8 424.1)"/>
    <path d="M 159.75167843632067,239.2359508718273 C 195.26346110377347,268.82910309470464 207.1007219929244,310.2595162067329 159.75167843632067,357.60855976333664 C 112.40263487971694,310.2595162067329 124.23989576886788,268.82910309470464 159.75167843632067,239.2359508718273 Z" fill="url(#leaf9)" opacity="0.16" transform="rotate(84.2 159.8 298.4)"/>
    <path d="M 1828.578674171037,923.4702902005629 C 1848.8684045615844,940.3783988593524 1855.6316480251003,964.0497509816578 1828.578674171037,991.1027248357211 C 1801.5257003169736,964.0497509816578 1808.2889437804895,940.3783988593524 1828.578674171037,923.4702902005629 Z" fill="url(#leaf10)" opacity="0.25" transform="rotate(156.4 1828.6 957.3)"/>
    <path d="M 1414.0555974510128,365.24778842932636 C 1453.4857633473016,398.10626000956705 1466.6291519793979,444.108120221904 1414.0555974510128,496.6816747502891 C 1361.4820429226277,444.108120221904 1374.625431554724,398.10626000956705 1414.0555974510128,365.24778842932636 Z" fill="url(#leaf11)" opacity="0.18" transform="rotate(93.8 1414.1 431.0)"/>
    <path d="M 1241.9970309012022,562.7871188056536 C 1265.3720773982382,582.2663242198503 1273.163759563917,609.5372117997257 1241.9970309012022,640.7039404624404 C 1210.8303022384873,609.5372117997257 1218.6219844041661,582.2663242198503 1241.9970309012022,562.7871188056536 Z" fill="url(#leaf12)" opacity="0.21" transform="rotate(71.1 1242.0 601.7)"/>
    <path d="M 1457.6082994536148,138.99583688671822 C 1486.921295356527,163.42333347247845 1496.692293990831,197.62182869254275 1457.6082994536148,236.70582322975912 C 1418.5243049163985,197.62182869254275 1428.2953035507026,163.42333347247845 1457.6082994536148,138.99583688671822 Z" fill="url(#leaf13)" opacity="0.20" transform="rotate(53.9 1457.6 187.9)"/>
    <path d="M 164.94317271869303,101.79659421028802 C 206.20294267033927,136.17973583665986 219.956199320888,184.31613411358046 164.94317271869303,239.32916071577543 C 109.93014611649807,184.31613411358046 123.68340276704681,136.17973583665986 164.94317271869303,101.79659421028802 Z" fill="url(#leaf14)" opacity="0.24" transform="rotate(323.6 164.9 170.6)"/>
    <path d="M 283.86687896867176,425.2300277959989 C 304.1491316328192,442.13190501612183 310.90988252086834,465.7945331242938 283.86687896867176,492.83753667649046 C 256.8238754164752,465.7945331242938 263.5846263045243,442.13190501612183 283.86687896867176,425.2300277959989 Z" fill="url(#leaf15)" opacity="0.19" transform="rotate(57.3 283.9 459.0)"/>
    <path d="M 788.449848303568,397.79317290701215 C 834.248738291584,435.9589145636921 849.515034954256,489.39095288304395 788.449848303568,550.4561395337319 C 727.3846616528801,489.39095288304395 742.6509583155521,435.9589145636921 788.449848303568,397.79317290701215 Z" fill="url(#leaf16)" opacity="0.19" transform="rotate(108.6 788.4 474.1)"/>
    <path d="M 1671.1517382886764,536.5197288134917 C 1697.7428953112299,558.6790263322863 1706.6066143187477,589.7020428585987 1671.1517382886764,625.15691888867 C 1635.696862258605,589.7020428585987 1644.5605812661229,558.6790263322863 1671.1517382886764,536.5197288134917 Z" fill="url(#leaf17)" opacity="0.24" transform="rotate(249.2 1671.2 580.8)"/>
    <path d="M 356.857460970114,887.772937036164 C 392.2195516108547,917.241345903448 404.0069151577683,958.4971183176453 356.857460970114,1005.6465725052997 C 309.70800678245973,958.4971183176453 321.4953703293733,917.241345903448 356.857460970114,887.772937036164 Z" fill="url(#leaf18)" opacity="0.20" transform="rotate(199.3 356.9 946.7)"/>
    <path d="M 253.6214492041425,391.4663860691077 C 288.72641345574414,420.7205229454424 300.428068206278,461.67631457231096 253.6214492041425,508.48293357444646 C 206.814830202007,461.67631457231096 218.51648495254085,420.7205229454424 253.6214492041425,391.4663860691077 Z" fill="url(#leaf19)" opacity="0.22" transform="rotate(1.7 253.6 450.0)"/>
    <path d="M 361.061121585881,35.905578732232314 C 380.108030259156,51.77800262662818 386.4569998169144,73.9993960787824 361.061121585881,99.39527430981578 C 335.6652433548476,73.9993960787824 342.01421291260596,51.77800262662818 361.061121585881,35.905578732232314 Z" fill="url(#leaf20)" opacity="0.19" transform="rotate(51.8 361.1 67.7)"/>
    <path d="M 1138.5744519098744,323.0784244835912 C 1176.4716529844477,354.65942537906903 1189.104053342639,398.872826632738 1138.5744519098744,449.4024280655025 C 1088.0448504771098,398.872826632738 1100.677250835301,354.65942537906903 1138.5744519098744,323.0784244835912 Z" fill="url(#leaf21)" opacity="0.21" transform="rotate(318.7 1138.6 386.2)"/>
    <path d="M 589.2553146508766,79.51647193206793 C 626.050610791387,110.17921871582662 638.3157095048905,153.1070642130888 589.2553146508766,202.1674590671027 C 540.1949197968627,153.1070642130888 552.4600185103661,110.17921871582662 589.2553146508766,79.51647193206793 Z" fill="url(#leaf22)" opacity="0.17" transform="rotate(247.9 589.3 140.8)"/>
    <path d="M 412.0124878744077,729.2349571942551 C 452.4830442330866,762.9604208264876 465.9732296859796,810.176069911613 412.0124878744077,864.1368117231849 C 358.05174606283583,810.176069911613 371.54193151572883,762.9604208264876 412.0124878744077,729.2349571942551 Z" fill="url(#leaf23)" opacity="0.16" transform="rotate(110.2 412.0 796.7)"/>
    <path d="M 761.184193444783,3.170243990272489 C 790.2973216125617,27.431184130088134 800.001697668488,61.39650032583004 761.184193444783,100.21400454953508 C 722.366689221078,61.39650032583004 732.0710652770042,27.431184130088134 761.184193444783,3.170243990272489 Z" fill="url(#leaf24)" opacity="0.21" transform="rotate(46.2 761.2 51.7)"/>
    <path d="M 1401.5672478822544,380.8978694516792 C 1440.1261666466849,413.03030175537117 1452.9791395681616,458.01570698053996 1401.5672478822544,509.4275986664471 C 1350.1553561963472,458.01570698053996 1363.008329117824,413.03030175537117 1401.5672478822544,380.8978694516792 Z" fill="url(#leaf25)" opacity="0.17" transform="rotate(77.4 1401.6 445.2)"/>
    <path d="M 1765.541951984771,615.1705551964222 C 1804.0167692571288,647.232902923387 1816.8417083479146,692.1201897411376 1765.541951984771,743.4199461042812 C 1714.2421956216274,692.1201897411376 1727.0671347124132,647.232902923387 1765.541951984771,615.1705551964222 Z" fill="url(#leaf26)" opacity="0.25" transform="rotate(63.5 1765.5 679.3)"/>
    <path d="M 866.4094807950758,724.8331320708664 C 892.9736861678986,746.9699698815521 901.8284212921728,777.9615428165121 866.4094807950758,813.3804833136091 C 830.9905402979787,777.9615428165121 839.8452754222529,746.9699698815521 866.4094807950758,724.8331320708664 Z" fill="url(#leaf27)" opacity="0.19" transform="rotate(251.9 866.4 769.1)"/>
    <path d="M 273.9242079131464,929.4057378827639 C 311.89868428991474,961.0511348634042 324.5568430821709,1005.3546906363006 273.9242079131464,1055.987325805325 C 223.29157274412194,1005.3546906363006 235.94973153637807,961.0511348634042 273.9242079131464,929.4057378827639 Z" fill="url(#leaf28)" opacity="0.17" transform="rotate(143.7 273.9 992.7)"/>
    <path d="M 1137.5713728758142,693.3450557515141 C 1161.4241591562547,713.2223776518813 1169.3750879164015,741.0506283123954 1137.5713728758142,772.8543433529828 C 1105.7676578352268,741.0506283123954 1113.7185865953736,713.2223776518813 1137.5713728758142,693.3450557515141 Z" fill="url(#leaf29)" opacity="0.22" transform="rotate(289.7 1137.6 733.1)"/>
    <path d="M 1868.4855014494656,774.2227948426345 C 1888.9387408522289,791.2671610116039 1895.7564873198166,815.1292736481611 1868.4855014494656,842.4002595185121 C 1841.2145155791145,815.1292736481611 1848.0322620467023,791.2671610116039 1868.4855014494656,774.2227948426345 Z" fill="url(#leaf0)" opacity="0.23" transform="rotate(203.6 1868.5 808.3)"/>
    <path d="M 983.250658099675,364.4570912169742 C 1005.9980187466631,383.4132250894643 1013.5804722956591,409.95181251095045 983.250658099675,440.28162670693456 C 952.9208439036909,409.95181251095045 960.5032974526869,383.4132250894643 983.250658099675,364.4570912169742 Z" fill="url(#leaf1)" opacity="0.16" transform="rotate(34.3 983.3 402.4)"/>
    <path d="M 873.4374313986108,22.072300649422033 C 901.5803132126132,45.524702161090744 910.9612738172807,78.35806427742693 873.4374313986108,115.88190669609688 C 835.9135889799409,78.35806427742693 845.2945495846084,45.524702161090744 873.4374313986108,22.072300649422033 Z" fill="url(#leaf2)" opacity="0.19" transform="rotate(226.7 873.4 69.0)"/>
    <path d="M 1736.4960830923449,587.1229658951135 C 1757.9042647104275,604.9631172435156 1765.0403252497886,629.9393291312788 1736.4960830923449,658.4835712887224 C 1707.9518409349012,629.9393291312788 1715.0879014742623,604.9631172435156 1736.4960830923449,587.1229658951135 Z" fill="url(#leaf3)" opacity="0.24" transform="rotate(155.4 1736.5 622.8)"/>
    <path d="M 987.7038483174515,6.669444375204826 C 1019.3764569458934,33.063284898906474 1029.933993155374,70.01466163208877 987.7038483174515,112.24480647001141 C 945.4737034795289,70.01466163208877 956.0312396890096,33.063284898906474 987.7038483174515,6.669444375204826 Z" fill="url(#leaf4)" opacity="0.22" transform="rotate(286.7 987.7 59.5)"/>
    <path d="M 1803.0981191210572,210.52297364114293 C 1835.9556302463745,237.90423291224067 1846.9081339548136,276.23799589177753 1803.0981191210572,320.0480107255339 C 1759.2881042873007,276.23799589177753 1770.2406079957398,237.90423291224067 1803.0981191210572,210.52297364114293 Z" fill="url(#leaf5)" opacity="0.22" transform="rotate(262.4 1803.1 265.3)"/>
    <path d="M 783.7660416872948,464.4076738216779 C 825.6367913596932,499.2999652153433 839.5937079171595,548.1491731664748 783.7660416872948,603.9768393963395 C 727.9383754574301,548.1491731664748 741.8952920148963,499.2999652153433 783.7660416872948,464.4076738216779 Z" fill="url(#leaf6)" opacity="0.17" transform="rotate(131.3 783.8 534.2)"/>
    <path d="M 961.4753083714999,738.0482522417341 C 991.0289750471214,762.676307804752 1000.8801972723286,797.1555855929771 961.4753083714999,836.5604744938058 C 922.0704194706711,797.1555855929771 931.9216416958783,762.676307804752 961.4753083714999,738.0482522417341 Z" fill="url(#leaf7)" opacity="0.17" transform="rotate(309.4 961.5 787.3)"/>
    <path d="M 722.9040157913525,214.4263168528434 C 763.17557594096,247.98595031084963 776.5994293241625,294.96943715205833 722.9040157913525,348.6648506848683 C 669.2086022585426,294.96943715205833 682.6324556417451,247.98595031084963 722.9040157913525,214.4263168528434 Z" fill="url(#leaf8)" opacity="0.19" transform="rotate(233.7 722.9 281.5)"/>
    <path d="M 555.2123720629365,251.2657420760985 C 600.3089273071341,288.8462047795965 615.3411123885334,341.4588525644938 555.2123720629365,401.5875928900906 C 495.0836317373397,341.4588525644938 510.1158168187389,288.8462047795965 555.2123720629365,251.2657420760985 Z" fill="url(#leaf9)" opacity="0.18" transform="rotate(326.3 555.2 326.4)"/>
    <path d="M 1267.8945566307755,890.18045191391 C 1308.8834280909948,924.3378447974262 1322.5463852444013,972.1581948343489 1267.8945566307755,1026.8100234479748 C 1213.2427280171496,972.1581948343489 1226.9056851705561,924.3378447974262 1267.8945566307755,890.18045191391 Z" fill="url(#leaf10)" opacity="0.19" transform="rotate(50.5 1267.9 958.5)"/>
    <path d="M 263.1627401495436,877.165527475792 C 295.68737412216797,904.2693891196458 306.52891877970944,942.2147954210409 263.1627401495436,985.5809740512068 C 219.79656151937772,942.2147954210409 230.6381061769192,904.2693891196458 263.1627401495436,877.165527475792 Z" fill="url(#leaf11)" opacity="0.21" transform="rotate(10.0 263.2 931.4)"/>
    <path d="M 1790.943686373716,965.5702818034712 C 1824.9769159646164,993.9313064625549 1836.3213258282499,1033.6367409852721 1790.943686373716,1079.014380439806 C 1745.566046919182,1033.6367409852721 1756.9104567828156,993.9313064625549 1790.943686373716,965.5702818034712 Z" fill="url(#leaf12)" opacity="0.17" transform="rotate(271.0 1790.9 1022.3)"/>
    <path d="M 1313.168934267076,762.3238827488407 C 1359.7202629521896,801.1166566531019 1375.2373725138941,855.4265401190678 1313.168934267076,917.4949783658859 C 1251.100496020258,855.4265401190678 1266.6176055819626,801.1166566531019 1313.168934267076,762.3238827488407 Z" fill="url(#leaf13)" opacity="0.16" transform="rotate(308.6 1313.2 839.9)"/>
    <path d="M 1561.4531212807485,190.49689073247941 C 1579.8146694318148,205.798180858368 1585.9351854821703,227.21998703461202 1561.4531212807485,251.70205123603375 C 1536.9710570793268,227.21998703461202 1543.0915731296823,205.798180858368 1561.4531212807485,190.49689073247941 Z" fill="url(#leaf14)" opacity="0.15" transform="rotate(268.7 1561.5 221.1)"/>
    <path d="M 800.4394809261067,458.7669807642849 C 828.5795667653529,482.21705229698995 837.9595953784349,515.047152442777 800.4394809261067,552.5672668951051 C 762.9193664737786,515.047152442777 772.2993950868606,482.21705229698995 800.4394809261067,458.7669807642849 Z" fill="url(#leaf15)" opacity="0.20" transform="rotate(350.9 800.4 505.7)"/>
    <path d="M 735.1899574514653,819.1448221858035 C 768.716760087608,847.0838243825891 779.8923609663223,886.198427458089 735.1899574514653,930.900830972946 C 690.4875539366083,886.198427458089 701.6631548153225,847.0838243825891 735.1899574514653,819.1448221858035 Z" fill="url(#leaf16)" opacity="0.21" transform="rotate(353.5 735.2 875.0)"/>
    <path d="M 341.33325313683594,855.3627351970442 C 362.08717645953567,872.6576712992941 369.0051509004355,896.8705818424437 341.33325313683594,924.5424796060433 C 313.66135537323635,896.8705818424437 320.5793298141362,872.6576712992941 341.33325313683594,855.3627351970442 Z" fill="url(#leaf17)" opacity="0.15" transform="rotate(144.2 341.3 890.0)"/>
    <path d="M 758.1886279190094,44.756234923726105 C 786.1282481896657,68.03925181593966 795.4414549465511,100.63547546503864 758.1886279190094,137.88830249258032 C 720.9358008914677,100.63547546503864 730.2490076483531,68.03925181593966 758.1886279190094,44.756234923726105 Z" fill="url(#leaf18)" opacity="0.21" transform="rotate(296.5 758.2 91.3)"/>
    <path d="M 545.95020159604,961.9446309597951 C 584.3246923560487,993.9233732598024 597.1161892760515,1038.6936124798124 545.95020159604,1089.859600159824 C 494.7842139160284,1038.6936124798124 507.5757108360313,993.9233732598024 545.95020159604,961.9446309597951 Z" fill="url(#leaf19)" opacity="0.22" transform="rotate(312.5 546.0 1025.9)"/>
    <path d="M 927.8435067322624,430.67161795763815 C 956.7379441616143,454.75031581543146 966.3694233047316,488.460492816342 927.8435067322624,526.9864093888112 C 889.3175901597932,488.460492816342 898.9490693029105,454.75031581543146 927.8435067322624,430.67161795763815 Z" fill="url(#leaf20)" opacity="0.25" transform="rotate(307.2 927.8 478.8)"/>
    <path d="M 274.6165878427508,453.8759512470783 C 303.78726770828644,478.1848511350247 313.51082766346497,512.2173109781496 274.6165878427508,551.1115507988638 C 235.7223480220366,512.2173109781496 245.44590797721514,478.1848511350247 274.6165878427508,453.8759512470783 Z" fill="url(#leaf21)" opacity="0.20" transform="rotate(17.1 274.6 502.5)"/>
    <path d="M 754.7671225708717,588.8647722116224 C 794.3080854630057,621.815574621734 807.4884064270503,667.9466979958903 754.7671225708717,720.6679818520689 C 702.0458387146931,667.9466979958903 715.2261596787378,621.815574621734 754.7671225708717,588.8647722116224 Z" fill="url(#leaf22)" opacity="0.18" transform="rotate(96.8 754.8 654.8)"/>
    <path d="M 1246.855835578914,791.983354819896 C 1266.3965747194404,808.267304103668 1272.9101544329492,831.064833100949 1246.855835578914,857.1191519549843 C 1220.8015167248786,831.064833100949 1227.3150964383874,808.267304103668 1246.855835578914,791.983354819896 Z" fill="url(#leaf23)" opacity="0.22" transform="rotate(266.9 1246.9 824.6)"/>
    <path d="M 321.5025554410978,122.5166851774633 C 363.87655966033424,157.82835536016034 378.0012277334131,207.26469361593624 321.5025554410978,263.76336590825156 C 265.0038831487825,207.26469361593624 279.12855122186136,157.82835536016034 321.5025554410978,122.5166851774633 Z" fill="url(#leaf24)" opacity="0.21" transform="rotate(13.5 321.5 193.1)"/>
    <path d="M 1193.3935402793645,565.237566387948 C 1216.5161779766725,584.5064311357046 1224.223723875775,611.4828417825639 1193.3935402793645,642.3130253789744 C 1162.563356682954,611.4828417825639 1170.2709025820566,584.5064311357046 1193.3935402793645,565.237566387948 Z" fill="url(#leaf25)" opacity="0.21" transform="rotate(124.7 1193.4 603.8)"/>
    <path d="M 330.76448213888176,72.66784881262689 C 353.522091842496,91.63252356563878 361.1079617437008,118.18306821985543 330.76448213888176,148.52654782467445 C 300.4210025340627,118.18306821985543 308.0068724352675,91.63252356563878 330.76448213888176,72.66784881262689 Z" fill="url(#leaf26)" opacity="0.17" transform="rotate(30.4 330.8 110.6)"/>
    <path d="M 199.6235156350554,765.1378359610775 C 226.9011067398303,787.8691618817232 235.99363710808862,819.6930181706273 199.6235156350554,856.0631396436605 C 163.2533941620222,819.6930181706273 172.3459245302805,787.8691618817232 199.6235156350554,765.1378359610775 Z" fill="url(#leaf27)" opacity="0.19" transform="rotate(227.4 199.6 810.6)"/>
    <path d="M 1764.7468905384167,27.697024183181263 C 1795.1170647935803,53.00550272915089 1805.2404562119682,88.43737269350838 1764.7468905384167,128.93093836705978 C 1724.2533248648651,88.43737269350838 1734.376716283253,53.00550272915089 1764.7468905384167,27.697024183181263 Z" fill="url(#leaf28)" opacity="0.16" transform="rotate(80.7 1764.7 78.3)"/>
    <path d="M 1007.4984883075026,336.1489070534339 C 1039.5040247807142,362.82018744777696 1050.1725369384515,400.1599799998572 1007.4984883075026,442.83402863080613 C 964.8244396765538,400.1599799998572 975.4929518342909,362.82018744777696 1007.4984883075026,336.1489070534339 Z" fill="url(#leaf29)" opacity="0.16" transform="rotate(134.9 1007.5 389.5)"/>
    <path d="M 644.9529232112576,609.7783485785093 C 686.8587104980112,644.6998379841374 700.8273062602625,693.5899231520166 644.9529232112576,749.4643062010215 C 589.0785401622527,693.5899231520166 603.047135924504,644.6998379841374 644.9529232112576,609.7783485785093 Z" fill="url(#leaf0)" opacity="0.24" transform="rotate(260.0 645.0 679.6)"/>
    <path d="M 1030.1207299232594,700.4079956805276 C 1077.079258063795,739.5401024643072 1092.7321007773069,794.3250519615987 1030.1207299232594,856.936422815646 C 967.509359069212,794.3250519615987 983.1622017827239,739.5401024643072 1030.1207299232594,700.4079956805276 Z" fill="url(#leaf1)" opacity="0.15" transform="rotate(341.2 1030.1 778.7)"/>
    <path d="M 1078.8871476676154,708.137569943547 C 1126.5334194200236,747.8427964038872 1142.4155100041598,803.4301134483635 1078.8871476676154,866.9584757849078 C 1015.3587853310711,803.4301134483635 1031.2408759152072,747.8427964038872 1078.8871476676154,708.137569943547 Z" fill="url(#leaf2)" opacity="0.22" transform="rotate(62.0 1078.9 787.5)"/>
    <path d="M 1402.6112014452003,190.70170569321454 C 1433.0519149226725,216.06896692444136 1443.1988194151634,251.58313264815894 1402.6112014452003,292.1707506181219 C 1362.0235834752373,251.58313264815894 1372.1704879677281,216.06896692444136 1402.6112014452003,190.70170569321454 Z" fill="url(#leaf3)" opacity="0.23" transform="rotate(3.6 1402.6 241.4)"/>
    <path d="M 1493.6316485725883,98.73145170608917 C 1533.1769230508594,131.6858471046484 1546.358681210283,177.8220006626313 1493.6316485725883,230.54903330032607 C 1440.9046159348936,177.8220006626313 1454.0863740943173,131.6858471046484 1493.6316485725883,98.73145170608917 Z" fill="url(#leaf4)" opacity="0.23" transform="rotate(71.4 1493.6 164.6)"/>
    <path d="M 314.5888985540719,198.24530515264738 C 332.7974620835023,213.41910809383938 338.86698325997907,234.6624322115082 314.5888985540719,258.9405169174154 C 290.3108138481647,234.6624322115082 296.38033502464145,213.41910809383938 314.5888985540719,198.24530515264738 Z" fill="url(#leaf5)" opacity="0.20" transform="rotate(220.2 314.6 228.6)"/>
    <path d="M 1094.1556147102003,77.10640218730812 C 1140.5213066548517,115.74447880785095 1155.9765373030689,169.8377860766109 1094.1556147102003,231.65870866947944 C 1032.3346921173318,169.8377860766109 1047.789922765549,115.74447880785095 1094.1556147102003,77.10640218730812 Z" fill="url(#leaf6)" opacity="0.22" transform="rotate(265.7 1094.2 154.4)"/>
    <path d="M 1175.2805328417276,895.8632255303376 C 1214.2252116892673,928.317124569954 1227.2067713051138,973.752583225417 1175.2805328417276,1025.6788216888033 C 1123.3542943783414,973.752583225417 1136.3358539941878,928.317124569954 1175.2805328417276,895.8632255303376 Z" fill="url(#leaf7)" opacity="0.23" transform="rotate(155.1 1175.3 960.8)"/>
    <path d="M 390.06579610815425,542.0893094386747 C 415.29038695725154,563.1098018129225 423.69858390695066,592.5384911368693 390.06579610815425,626.1712789356657 C 356.43300830935783,592.5384911368693 364.84120525905695,563.1098018129225 390.06579610815425,542.0893094386747 Z" fill="url(#leaf8)" opacity="0.17" transform="rotate(232.6 390.1 584.1)"/>
    <path d="M 146.50467001656267,349.88541532342674 C 175.27771256660998,373.8629507817995 184.86872674995908,407.43150042352136 146.50467001656267,445.79555715691777 C 108.14061328316626,407.43150042352136 117.73162746651538,373.8629507817995 146.50467001656267,349.88541532342674 Z" fill="url(#leaf9)" opacity="0.19" transform="rotate(283.4 146.5 397.8)"/>
    <path d="M 276.9839925617026,179.05641857036602 C 299.08394776731626,197.4730479083774 306.45059950252084,223.25632898159333 276.9839925617026,252.72293592241152 C 247.51738562088443,223.25632898159333 254.88403735608898,197.4730479083774 276.9839925617026,179.05641857036602 Z" fill="url(#leaf10)" opacity="0.20" transform="rotate(131.6 277.0 215.9)"/>
    <path d="M 958.4985582793139,492.3006784785944 C 995.6603295633939,523.2688212153278 1008.0475866580873,566.6242210467545 958.4985582793139,616.173249425528 C 908.9495299005405,566.6242210467545 921.3367869952339,523.2688212153278 958.4985582793139,492.3006784785944 Z" fill="url(#leaf11)" opacity="0.16" transform="rotate(123.0 958.5 554.2)"/>
    <path d="M 1603.998605263088,418.64315769240847 C 1636.8290366326262,446.001850500357 1647.7725137558057,484.304020431485 1603.998605263088,528.0779289242028 C 1560.2246967703702,484.304020431485 1571.1681738935497,446.001850500357 1603.998605263088,418.64315769240847 Z" fill="url(#leaf12)" opacity="0.17" transform="rotate(281.9 1604.0 473.4)"/>
    <path d="M 1651.0732050460722,573.4088286633685 C 1675.396696571259,593.6784049343576 1683.5045270796547,622.0558117137423 1651.0732050460722,654.4871337473248 C 1618.6418830124896,622.0558117137423 1626.7497135208853,593.6784049343576 1651.0732050460722,573.4088286633685 Z" fill="url(#leaf13)" opacity="0.23" transform="rotate(9.6 1651.1 613.9)"/>
    <path d="M 660.781375933437,203.05645935079903 C 682.567361260837,221.2114471236324 689.8293563699704,246.6284300055991 660.781375933437,275.67641044213246 C 631.7333954969035,246.6284300055991 638.995390606037,221.2114471236324 660.781375933437,203.05645935079903 Z" fill="url(#leaf14)" opacity="0.16" transform="rotate(220.5 660.8 239.4)"/>
    <path d="M 234.5787632715594,691.9654089277286 C 270.457697295561,721.8645206143966 282.41734197022816,763.7232769757318 234.5787632715594,811.5618556744006 C 186.74018457289066,763.7232769757318 198.69982924755783,721.8645206143966 234.5787632715594,691.9654089277286 Z" fill="url(#leaf15)" opacity="0.23" transform="rotate(68.6 234.6 751.8)"/>
    <path d="M 1091.4158337517047,767.2567294973774 C 1109.590058547116,782.4019168268868 1115.6481334789198,803.6051790882 1091.4158337517047,827.8374788154151 C 1067.1835340244895,803.6051790882 1073.2416089562932,782.4019168268868 1091.4158337517047,767.2567294973774 Z" fill="url(#leaf16)" opacity="0.20" transform="rotate(276.5 1091.4 797.5)"/>
    <path d="M 655.5244336245456,288.6864153166128 C 675.1195962190072,305.01571747866416 681.6513170838278,327.8767405055361 655.5244336245456,354.00362396481825 C 629.3975501652634,327.8767405055361 635.929271030084,305.01571747866416 655.5244336245456,288.6864153166128 Z" fill="url(#leaf17)" opacity="0.18" transform="rotate(122.7 655.5 321.3)"/>
    <path d="M 870.9602939965084,147.19325002741874 C 894.0743899491081,166.4549966545851 901.7790885999746,193.421441932618 870.9602939965084,224.24023653608418 C 840.1414993930423,193.421441932618 847.8461980439088,166.4549966545851 870.9602939965084,147.19325002741874 Z" fill="url(#leaf18)" opacity="0.21" transform="rotate(274.1 871.0 185.7)"/>
    <path d="M 801.9173974884213,469.79959751427805 C 846.4577658538863,506.9165711521655 861.3045553090412,558.8803342452079 801.9173974884213,618.2674920658278 C 742.5302396678014,558.8803342452079 757.3770291229564,506.9165711521655 801.9173974884213,469.79959751427805 Z" fill="url(#leaf19)" opacity="0.19" transform="rotate(94.2 801.9 544.0)"/>
    <path d="M 1034.9482755291265,140.02203724029653 C 1056.326424742296,157.83716158460442 1063.4524744800192,182.77833566663546 1034.9482755291265,211.28253461752809 C 1006.4440765782339,182.77833566663546 1013.570126315957,157.83716158460442 1034.9482755291265,140.02203724029653 Z" fill="url(#leaf20)" opacity="0.16" transform="rotate(325.8 1034.9 175.7)"/>
    <path d="M 1684.100084363433,135.71181686089116 C 1711.717678273758,158.72647845282862 1720.9235429105331,190.94700468154105 1684.100084363433,227.77046322864098 C 1647.276625816333,190.94700468154105 1656.482490453108,158.72647845282862 1684.100084363433,135.71181686089116 Z" fill="url(#leaf21)" opacity="0.16" transform="rotate(289.6 1684.1 181.7)"/>
    <path d="M 1757.082304752749,169.2792770800628 C 1799.3725951489832,204.5211857435914 1813.4693586143947,253.85985787253142 1757.082304752749,310.24691173417716 C 1700.6952508911033,253.85985787253142 1714.7920143565148,204.5211857435914 1757.082304752749,169.2792770800628 Z" fill="url(#leaf22)" opacity="0.16" transform="rotate(15.4 1757.1 239.8)"/>
    <path d="M 173.36700285667607,835.8182384099847 C 192.72831930381685,851.952668782602 199.18209145286377,874.5408713042663 173.36700285667607,900.355959900454 C 147.55191426048836,874.5408713042663 154.0056864095353,851.952668782602 173.36700285667607,835.8182384099847 Z" fill="url(#leaf23)" opacity="0.18" transform="rotate(72.9 173.4 868.1)"/>
    <path d="M 1648.7005351435375,574.960098366008 C 1667.4233779138647,590.5624673412806 1673.6643255039737,612.4057839066624 1648.7005351435375,637.3695742670986 C 1623.7367447831014,612.4057839066624 1629.9776923732104,590.5624673412806 1648.7005351435375,574.960098366008 Z" fill="url(#leaf24)" opacity="0.21" transform="rotate(264.4 1648.7 606.2)"/>
    <path d="M 336.45602110411295,474.2493205384269 C 356.37023606849226,490.8444996754097 363.0083077232854,514.0777504671855 336.45602110411295,540.630037086358 C 309.9037344849405,514.0777504671855 316.54180613973364,490.8444996754097 336.45602110411295,474.2493205384269 Z" fill="url(#leaf25)" opacity="0.21" transform="rotate(81.2 336.5 507.4)"/>
    <path d="M 390.1269558357535,199.29102433179995 C 435.8901940036577,237.42705613838677 451.14460672629247,290.8175006676084 390.1269558357535,351.83515155814734 C 329.10930494521455,290.8175006676084 344.3637176678493,237.42705613838677 390.1269558357535,199.29102433179995 Z" fill="url(#leaf26)" opacity="0.17" transform="rotate(321.4 390.1 275.6)"/>
    <path d="M 1013.4058261150911,92.226645280891 C 1044.291336871852,117.96457091152517 1054.5865071241058,153.997666794413 1013.4058261150911,195.17834780342767 C 972.2251451060765,153.997666794413 982.5203153583301,117.96457091152517 1013.4058261150911,92.226645280891 Z" fill="url(#leaf27)" opacity="0.21" transform="rotate(338.7 1013.4 143.7)"/>
    <path d="M 1381.7787358496616,103.09088748346662 C 1408.3486677229084,125.23249737783895 1417.2053116806574,156.23075122996022 1381.7787358496616,191.65732706095596 C 1346.352160018666,156.23075122996022 1355.2088039764149,125.23249737783895 1381.7787358496616,103.09088748346662 Z" fill="url(#leaf28)" opacity="0.17" transform="rotate(26.5 1381.8 147.4)"/>
    <path d="M 1579.936072019495,821.4282857127888 C 1606.7566122171704,843.7787358775182 1615.6967922830622,875.0693661081395 1579.936072019495,910.8300863717067 C 1544.1753517559277,875.0693661081395 1553.1155318218196,843.7787358775182 1579.936072019495,821.4282857127888 Z" fill="url(#leaf29)" opacity="0.21" transform="rotate(334.4 1579.9 866.1)"/>
    <path d="M 186.50224706154754,115.40453589643786 C 212.5149808477605,137.08181405161534 221.1858921098315,167.43000346886384 186.50224706154754,202.11364851714782 C 151.81860201326356,167.43000346886384 160.48951327533456,137.08181405161534 186.50224706154754,115.40453589643786 Z" fill="url(#leaf0)" opacity="0.25" transform="rotate(70.2 186.5 158.8)"/>
    <path d="M 201.83937334093324,571.6909005751563 C 241.75844850798853,604.9567965477023 255.06480689700697,651.5290509092669 201.83937334093324,704.7544844653405 C 148.6139397848595,651.5290509092669 161.92029817387794,604.9567965477023 201.83937334093324,571.6909005751563 Z" fill="url(#leaf1)" opacity="0.17" transform="rotate(219.8 201.8 638.2)"/>
    <path d="M 1180.9107997015776,791.4038053526006 C 1214.2968148665607,819.2254846567531 1225.4254865882217,858.1758356825668 1180.9107997015776,902.690522569211 C 1136.3961128149335,858.1758356825668 1147.5247845365946,819.2254846567531 1180.9107997015776,791.4038053526006 Z" fill="url(#leaf2)" opacity="0.18" transform="rotate(271.1 1180.9 847.0)"/>
    <path d="M 50.06347102913972,630.8260795181134 C 88.62621787367843,662.9617018885623 101.48046682185799,707.9515732071908 50.06347102913972,759.368568999909 C -1.3535247635785552,707.9515732071908 11.500724184601019,662.9617018885623 50.06347102913972,630.8260795181134 Z" fill="url(#leaf3)" opacity="0.23" transform="rotate(330.8 50.1 695.1)"/>
    <path d="M 1209.248409306905,120.76013026357424 C 1255.3279687893807,159.15976316563734 1270.687821950206,212.9192492285257 1209.248409306905,274.35866187182665 C 1147.808996663604,212.9192492285257 1163.1688498244291,159.15976316563734 1209.248409306905,120.76013026357424 Z" fill="url(#leaf4)" opacity="0.22" transform="rotate(52.2 1209.2 197.6)"/>
    <path d="M 246.3330993439559,246.12000871774 C 284.89269264380334,278.25300313427954 297.7458904104192,323.23919531743496 246.3330993439559,374.65198638389825 C 194.9203082774926,323.23919531743496 207.77350604410842,278.25300313427954 246.3330993439559,246.12000871774 Z" fill="url(#leaf5)" opacity="0.18" transform="rotate(144.8 246.3 310.4)"/>
    <path d="M 1792.8200059519213,154.7486955959768 C 1816.3068881711167,174.32109744530632 1824.1358489108486,201.72246003436766 1792.8200059519213,233.0383029932949 C 1761.504162992994,201.72246003436766 1769.3331237327259,174.32109744530632 1792.8200059519213,154.7486955959768 Z" fill="url(#leaf6)" opacity="0.19" transform="rotate(309.7 1792.8 193.9)"/>
    <path d="M 1842.493875490979,889.1080781100542 C 1882.4520932317168,922.4065928940023 1895.771499145296,969.0245135915296 1842.493875490979,1022.3021372458467 C 1789.216251836662,969.0245135915296 1802.5356577502412,922.4065928940023 1842.493875490979,889.1080781100542 Z" fill="url(#leaf7)" opacity="0.24" transform="rotate(109.0 1842.5 955.7)"/>
    <path d="M 562.958772565415,733.4772552567258 C 610.2094116226887,772.8527878044539 625.9596246417799,827.9785333712732 562.958772565415,890.9793854476382 C 499.95792048905,827.9785333712732 515.7081335081413,772.8527878044539 562.958772565415,733.4772552567258 Z" fill="url(#leaf8)" opacity="0.17" transform="rotate(102.6 563.0 812.2)"/>
    <path d="M 942.01727220105,312.62836953652703 C 985.7920835834564,349.10737902186565 1000.3836873775917,400.1779923013397 942.01727220105,458.5444074778815 C 883.6508570245082,400.1779923013397 898.2424608186436,349.10737902186565 942.01727220105,312.62836953652703 Z" fill="url(#leaf9)" opacity="0.17" transform="rotate(211.4 942.0 385.6)"/>
    <path d="M 1727.8313098679746,890.1494051508844 C 1750.8011901620496,909.2909720626135 1758.457816926741,936.0891657390342 1727.8313098679746,966.7156727978008 C 1697.204802809208,936.0891657390342 1704.8614295738996,909.2909720626135 1727.8313098679746,890.1494051508844 Z" fill="url(#leaf10)" opacity="0.24" transform="rotate(55.0 1727.8 928.4)"/>
    <path d="M 1583.5098543156653,364.7401147410009 C 1625.0549715916306,399.3610458043054 1638.9033440169524,447.83034929293154 1583.5098543156653,503.2238389942186 C 1528.1163646143782,447.83034929293154 1541.9647370397,399.3610458043054 1583.5098543156653,364.7401147410009 Z" fill="url(#leaf11)" opacity="0.20" transform="rotate(22.0 1583.5 434.0)"/>
    <path d="M 151.72069119320963,242.85766527016364 C 197.07908027964223,280.6563228421908 212.1985433084531,333.5744434430288 151.72069119320963,394.0522955582723 C 91.24283907796615,333.5744434430288 106.36230210677704,280.6563228421908 151.72069119320963,242.85766527016364 Z" fill="url(#leaf12)" opacity="0.22" transform="rotate(20.9 151.7 318.5)"/>
    <path d="M 136.2596453479671,785.246497963808 C 155.57656450410386,801.3439305939219 162.01553755614944,823.8803362760814 136.2596453479671,849.6362284842637 C 110.50375313978478,823.8803362760814 116.94272619183036,801.3439305939219 136.2596453479671,785.246497963808 Z" fill="url(#leaf13)" opacity="0.19" transform="rotate(345.9 136.3 817.4)"/>
    <path d="M 677.0829197224892,794.7423469506529 C 697.0838400683676,811.4097805722182 703.7508135169937,834.7441876424095 677.0829197224892,861.412081436914 C 650.4150259279847,834.7441876424095 657.0819993766108,811.4097805722182 677.0829197224892,794.7423469506529 Z" fill="url(#leaf14)" opacity="0.23" transform="rotate(196.0 677.1 828.1)"/>
    <path d="M 1564.1185494908343,507.3361829830428 C 1595.2693708248107,533.2952007613565 1605.652977936136,569.6378256509954 1564.1185494908343,611.1722540962971 C 1522.5841210455326,569.6378256509954 1532.967728156858,533.2952007613565 1564.1185494908343,507.3361829830428 Z" fill="url(#leaf15)" opacity="0.18" transform="rotate(19.3 1564.1 559.3)"/>
    <path d="M 810.2938626132326,54.56590201909652 C 842.8175240326839,81.66895320197257 853.6587445058343,119.61322485799906 810.2938626132326,162.97810675060074 C 766.9289807206309,119.61322485799906 777.7702011937813,81.66895320197257 810.2938626132326,54.56590201909652 Z" fill="url(#leaf16)" opacity="0.23" transform="rotate(121.8 810.3 108.8)"/>
    <path d="M 703.0554094240624,234.46594426364535 C 745.4155829445513,269.76608886405273 759.5356407847142,319.18629130462307 703.0554094240624,375.6665226652749 C 646.5751780634106,319.18629130462307 660.6952359035736,269.76608886405273 703.0554094240624,234.46594426364535 Z" fill="url(#leaf17)" opacity="0.16" transform="rotate(308.0 703.1 305.1)"/>
    <path d="M 1016.9052486024502,205.54454422897257 C 1051.4763016231293,234.35375507953847 1062.9999859633558,274.6866502703308 1016.9052486024502,320.78138763123627 C 970.8105112415448,274.6866502703308 982.3341955817712,234.35375507953847 1016.9052486024502,205.54454422897257 Z" fill="url(#leaf18)" opacity="0.18" transform="rotate(214.2 1016.9 263.2)"/>
    <path d="M 97.33811076349139,554.3274189185893 C 131.2811368882077,582.6132740225195 142.5954789297798,622.2134711680219 97.33811076349139,667.4708393343103 C 52.080742597202956,622.2134711680219 63.39508463877507,582.6132740225195 97.33811076349139,554.3274189185893 Z" fill="url(#leaf19)" opacity="0.17" transform="rotate(200.9 97.3 610.9)"/>
    <path d="M 1676.472036591356,755.8207525753581 C 1695.0892167822144,771.3350694010735 1701.2949435125006,793.0551129570748 1676.472036591356,817.8780198782193 C 1651.6491296702116,793.0551129570748 1657.8548564004977,771.3350694010735 1676.472036591356,755.8207525753581 Z" fill="url(#leaf20)" opacity="0.20" transform="rotate(31.8 1676.5 786.8)"/>
    <path d="M 863.8896867882335,533.9236998665879 C 885.154183463209,551.6441137624008 892.2423490215343,576.452693216539 863.8896867882335,604.8053554498399 C 835.5370245549326,576.452693216539 842.6251901132579,551.6441137624008 863.8896867882335,533.9236998665879 Z" fill="url(#leaf21)" opacity="0.21" transform="rotate(167.1 863.9 569.4)"/>
    <path d="M 375.17437536472926,879.7524158980807 C 398.2714150898341,898.9999490023348 405.9704283315357,925.9464953482905 375.17437536472926,956.7425483150969 C 344.37832239792283,925.9464953482905 352.07733563962444,898.9999490023348 375.17437536472926,879.7524158980807 Z" fill="url(#leaf22)" opacity="0.21" transform="rotate(174.0 375.2 918.2)"/>
    <path d="M 721.3432312593329,777.1052281803461 C 751.0829463276764,801.8883240706324 760.996184683791,836.584658317033 721.3432312593329,876.237611741491 C 681.6902778348749,836.584658317033 691.6035161909895,801.8883240706324 721.3432312593329,777.1052281803461 Z" fill="url(#leaf23)" opacity="0.18" transform="rotate(154.6 721.3 826.7)"/>
    <path d="M 1471.1906882719968,141.6460673531583 C 1518.044803959573,180.69116375947195 1533.6628425220986,235.35429872831108 1471.1906882719968,297.82645297841293 C 1408.718534021895,235.35429872831108 1424.3365725844205,180.69116375947195 1471.1906882719968,141.6460673531583 Z" fill="url(#leaf24)" opacity="0.19" transform="rotate(172.3 1471.2 219.7)"/>
    <path d="M 385.30367514288105,21.380387148639812 C 429.7571793041722,58.42497394971576 444.5750140246026,110.2873954712221 385.30367514288105,169.55873435294362 C 326.0323362611595,110.2873954712221 340.8501709815899,58.42497394971576 385.30367514288105,21.380387148639812 Z" fill="url(#leaf25)" opacity="0.20" transform="rotate(178.5 385.3 95.5)"/>
    <path d="M 893.6279878592271,647.287880885336 C 937.2102331056883,683.6064185907204 951.7376481878421,734.4523713782585 893.6279878592271,792.5620317068734 C 835.5183275306122,734.4523713782585 850.0457426127659,683.6064185907204 893.6279878592271,647.287880885336 Z" fill="url(#leaf26)" opacity="0.16" transform="rotate(74.1 893.6 719.9)"/>
    <path d="M 1671.3799582508143,690.6026716975572 C 1689.6059340663635,705.7909848771814 1695.681259338213,727.0546233286553 1671.3799582508143,751.3559244160541 C 1647.0786571634155,727.0546233286553 1653.153982435265,705.7909848771814 1671.3799582508143,690.6026716975572 Z" fill="url(#leaf27)" opacity="0.22" transform="rotate(339.3 1671.4 721.0)"/>
    <path d="M 555.8686879086971,625.9742328204601 C 593.6987739169132,657.4993044939736 606.3088025863185,701.6344048368923 555.8686879086971,752.0745195145138 C 505.42857323107563,701.6344048368923 518.038601900481,657.4993044939736 555.8686879086971,625.9742328204601 Z" fill="url(#leaf28)" opacity="0.16" transform="rotate(120.3 555.9 689.0)"/>
    <path d="M 1436.8923193577996,238.39282260314934 C 1482.5484753981825,276.43961930346853 1497.7671940783102,329.7051346839154 1436.8923193577996,390.5800094044261 C 1376.017444637289,329.7051346839154 1391.2361633174166,276.43961930346853 1436.8923193577996,238.39282260314934 Z" fill="url(#leaf29)" opacity="0.24" transform="rotate(210.4 1436.9 314.5)"/>
    <path d="M 1604.9233029799746,250.94244318494358 C 1631.618432387036,273.1883843574948 1640.5168088560565,304.33270199906644 1604.9233029799746,339.9262078751483 C 1569.3297971038926,304.33270199906644 1578.2281735729132,273.1883843574948 1604.9233029799746,250.94244318494358 Z" fill="url(#leaf0)" opacity="0.20" transform="rotate(96.3 1604.9 295.4)"/>
    <path d="M 1392.0503140833432,242.93564990153914 C 1431.3423879070467,275.67904475462547 1444.4397458482813,321.5197975489463 1392.0503140833432,373.90922931388445 C 1339.6608823184051,321.5197975489463 1352.7582402596397,275.67904475462547 1392.0503140833432,242.93564990153914 Z" fill="url(#leaf1)" opacity="0.18" transform="rotate(73.4 1392.1 308.4)"/>
    <path d="M 533.713398706141,611.7577696507553 C 562.9200388992408,636.0966364783385 572.6555856302741,670.171050036955 533.713398706141,709.113236961088 C 494.7712117820079,670.171050036955 504.5067585130412,636.0966364783385 533.713398706141,611.7577696507553 Z" fill="url(#leaf2)" opacity="0.25" transform="rotate(331.5 533.7 660.4)"/>
    <path d="M 1617.2038331551234,742.2698419654909 C 1650.7602598449496,770.2335308736795 1661.9457354082251,809.3826953451434 1617.2038331551234,854.124597598245 C 1572.4619309020218,809.3826953451434 1583.6474064652973,770.2335308736795 1617.2038331551234,742.2698419654909 Z" fill="url(#leaf3)" opacity="0.24" transform="rotate(9.2 1617.2 798.2)"/>
    <path d="M 1450.102023974549,158.46941011062083 C 1481.9168267573962,184.9817457629934 1492.5217610183452,222.09901567631502 1450.102023974549,264.51875272011114 C 1407.6822869307528,222.09901567631502 1418.2872211917017,184.9817457629934 1450.102023974549,158.46941011062083 Z" fill="url(#leaf4)" opacity="0.17" transform="rotate(160.5 1450.1 211.5)"/>
    <path d="M 791.544846945335,31.42510486479982 C 834.8790465512591,67.53693786973648 849.3237797532337,118.09350407664778 791.544846945335,175.8724368845464 C 733.7659141374364,118.09350407664778 748.210647339411,67.53693786973648 791.544846945335,31.42510486479982 Z" fill="url(#leaf5)" opacity="0.24" transform="rotate(27.1 791.5 103.6)"/>
    <path d="M 300.76689926979213,280.0229682701517 C 323.58281447055293,299.0362309374524 331.1881195374732,325.6547986716733 300.76689926979213,356.07601893935436 C 270.34567900211107,325.6547986716733 277.95098406903134,299.0362309374524 300.76689926979213,280.0229682701517 Z" fill="url(#leaf6)" opacity="0.19" transform="rotate(32.0 300.8 318.0)"/>
    <path d="M 661.9256270740673,507.62172945697 C 703.6818208684815,542.4185576189818 717.6005521332862,591.1341170457983 661.9256270740673,646.8090421050173 C 606.2507020148483,591.1341170457983 620.169433279653,542.4185576189818 661.9256270740673,507.62172945697 Z" fill="url(#leaf7)" opacity="0.20" transform="rotate(6.6 661.9 577.2)"/>
    <path d="M 1574.2711915102693,126.3062486275571 C 1620.1563228577472,164.54385808378868 1635.45136664024,218.07651132251286 1574.2711915102693,279.25668645248334 C 1513.0910163802987,218.07651132251286 1528.3860601627914,164.54385808378868 1574.2711915102693,126.3062486275571 Z" fill="url(#leaf8)" opacity="0.19" transform="rotate(158.2 1574.3 202.8)"/>
    <path d="M 847.7784900377216,808.5799571537162 C 882.3937073273142,837.4259715617102 893.9321130905117,877.8103917329016 847.7784900377216,923.9640147856918 C 801.6248669849314,877.8103917329016 813.1632727481289,837.4259715617102 847.7784900377216,808.5799571537162 Z" fill="url(#leaf9)" opacity="0.20" transform="rotate(315.5 847.8 866.3)"/>
    <path d="M 1025.9161963790975,476.419525433169 C 1054.3506843258056,500.1149320554256 1063.828846974708,533.2885013265849 1025.9161963790975,571.2011519221955 C 988.0035457834869,533.2885013265849 997.4817084323896,500.1149320554256 1025.9161963790975,476.419525433169 Z" fill="url(#leaf10)" opacity="0.20" transform="rotate(346.9 1025.9 523.8)"/>
    <path d="M 1368.5084752282485,748.8312590345217 C 1391.5110753943543,768.0000925062766 1399.1786087830562,794.8364593667334 1368.5084752282485,825.5065929215411 C 1337.8383416734407,794.8364593667334 1345.5058750621426,768.0000925062766 1368.5084752282485,748.8312590345217 Z" fill="url(#leaf11)" opacity="0.20" transform="rotate(20.1 1368.5 787.2)"/>
    <path d="M 372.6085271991331,136.52729003897073 C 406.6817927263158,164.92167797828964 418.03954790204335,204.6738210933361 372.6085271991331,250.10484179624635 C 327.17750649622286,204.6738210933361 338.5352616719504,164.92167797828964 372.6085271991331,136.52729003897073 Z" fill="url(#leaf12)" opacity="0.16" transform="rotate(329.9 372.6 193.3)"/>
    <path d="M 1251.4648253585083,517.8988209226256 C 1277.625049585589,539.6990077785263 1286.3451243279492,570.2192693767871 1251.4648253585083,605.0995683462281 C 1216.5845263890674,570.2192693767871 1225.3046011314275,539.6990077785263 1251.4648253585083,517.8988209226256 Z" fill="url(#leaf13)" opacity="0.24" transform="rotate(192.7 1251.5 561.5)"/>
    <path d="M 1443.305060929018,81.01124077663779 C 1483.7711800572267,114.73300671681167 1497.2598864332963,161.94347903305513 1443.305060929018,215.89830453733333 C 1389.3502354247398,161.94347903305513 1402.8389418008094,114.73300671681167 1443.305060929018,81.01124077663779 Z" fill="url(#leaf14)" opacity="0.23" transform="rotate(276.9 1443.3 148.5)"/>
    <path d="M 266.0771388828148,797.2942386124055 C 301.016401065038,826.4102904309248 312.66282179244575,867.1727629768519 266.0771388828148,913.7584458864828 C 219.4914559731838,867.1727629768519 231.13787670059156,826.4102904309248 266.0771388828148,797.2942386124055 Z" fill="url(#leaf15)" opacity="0.21" transform="rotate(91.8 266.1 855.5)"/>
    <path d="M 545.774558289208,841.0320472615009 C 592.4232596648131,879.9059650745053 607.9728267900149,934.3294500127113 545.774558289208,996.5277185135182 C 483.57628978840114,934.3294500127113 499.12585691360283,879.9059650745053 545.774558289208,841.0320472615009 Z" fill="url(#leaf16)" opacity="0.19" transform="rotate(116.4 545.8 918.8)"/>
    <path d="M 833.0452029824462,201.50403050254477 C 867.9957192820876,230.629460752246 879.6458913819681,271.4050631018277 833.0452029824462,318.00575150134966 C 786.4445145829243,271.4050631018277 798.0946866828048,230.629460752246 833.0452029824462,201.50403050254477 Z" fill="url(#leaf17)" opacity="0.17" transform="rotate(147.2 833.0 259.8)"/>
    <path d="M 1840.8901759824732,620.4121725141622 C 1859.187726311593,635.660131121762 1865.286909754633,657.0072731724017 1840.8901759824732,681.4040069445614 C 1816.4934422103136,657.0072731724017 1822.5926256533535,635.660131121762 1840.8901759824732,620.4121725141622 Z" fill="url(#leaf18)" opacity="0.18" transform="rotate(151.7 1840.9 650.9)"/>
    <path d="M 1211.639335042932,270.1707124079926 C 1231.2202214356969,286.48811773529667 1237.7471835666186,309.33248519352236 1211.639335042932,335.4403337172089 C 1185.5314865192456,309.33248519352236 1192.0584486501673,286.48811773529667 1211.639335042932,270.1707124079926 Z" fill="url(#leaf19)" opacity="0.23" transform="rotate(125.2 1211.6 302.8)"/>
    <path d="M 118.31879296721412,981.8438678423339 C 137.06322368185053,997.4642267711976 143.31136725339599,1019.3327292716067 118.31879296721412,1044.3253035577886 C 93.32621868103226,1019.3327292716067 99.57436225257771,997.4642267711976 118.31879296721412,981.8438678423339 Z" fill="url(#leaf20)" opacity="0.25" transform="rotate(333.5 118.3 1013.1)"/>
    <path d="M 247.75997363385335,921.2246787029212 C 277.034935954853,945.6204806370876 286.7932567285195,979.7746033449205 247.75997363385335,1018.8078864395866 C 208.7266905391872,979.7746033449205 218.48501131285371,945.6204806370876 247.75997363385335,921.2246787029212 Z" fill="url(#leaf21)" opacity="0.16" transform="rotate(105.8 247.8 970.0)"/>
    <path d="M 1615.9434548159672,227.69371082375199 C 1656.641398121298,261.6086635781942 1670.2073792230747,309.08959743441324 1615.9434548159672,363.3535218415208 C 1561.6795304088598,309.08959743441324 1575.2455115106366,261.6086635781942 1615.9434548159672,227.69371082375199 Z" fill="url(#leaf22)" opacity="0.23" transform="rotate(25.9 1615.9 295.5)"/>
    <path d="M 876.1693009097563,451.77606765583425 C 923.5028254302749,491.2206714229331 939.2806669371145,546.4431166968715 876.1693009097563,609.5544827242296 C 813.0579348823982,546.4431166968715 828.8357763892377,491.2206714229331 876.1693009097563,451.77606765583425 Z" fill="url(#leaf23)" opacity="0.16" transform="rotate(280.7 876.2 530.7)"/>
    <path d="M 300.98345109025206,174.50657804322924 C 342.70598946713034,209.27536002396113 356.6135022594231,257.9516547969858 300.98345109025206,313.58170596615685 C 245.353399921081,257.9516547969858 259.2609127133738,209.27536002396113 300.98345109025206,174.50657804322924 Z" fill="url(#leaf24)" opacity="0.18" transform="rotate(286.9 301.0 244.0)"/>
    <path d="M 855.970120407838,7.0157487410484265 C 903.8773327846282,46.938425721706935 919.8464035768916,102.83017349462885 855.970120407838,166.70645666368245 C 792.0938372387843,102.83017349462885 808.0629080310478,46.938425721706935 855.970120407838,7.0157487410484265 Z" fill="url(#leaf25)" opacity="0.15" transform="rotate(186.3 856.0 86.9)"/>
    <path d="M 1154.9947047384476,668.8110081728051 C 1180.3007630814936,689.8993901253434 1188.736115862509,719.4231248588972 1154.9947047384476,753.1645359829585 C 1121.2532936143862,719.4231248588972 1129.6886463954015,689.8993901253434 1154.9947047384476,668.8110081728051 Z" fill="url(#leaf26)" opacity="0.19" transform="rotate(320.0 1155.0 711.0)"/>
    <path d="M 1757.229102814756,578.7200603548664 C 1782.7743365212398,600.0077551102695 1791.289414423401,629.8105277678338 1757.229102814756,663.8708393764788 C 1723.168791206111,629.8105277678338 1731.6838691082723,600.0077551102695 1757.229102814756,578.7200603548664 Z" fill="url(#leaf27)" opacity="0.17" transform="rotate(58.6 1757.2 621.3)"/>
    <path d="M 261.6005869145773,791.6717005424858 C 307.29035139835855,829.7465042789702 322.5202728929523,883.0512295100483 261.6005869145773,943.9709154884232 C 200.68090093620236,883.0512295100483 215.9108224307961,829.7465042789702 261.6005869145773,791.6717005424858 Z" fill="url(#leaf28)" opacity="0.15" transform="rotate(337.3 261.6 867.8)"/>
    <path d="M 411.2455451575845,499.98330316868567 C 452.81267286401237,534.6225762573755 466.6683820994883,583.1175585815414 411.2455451575845,638.5403955234452 C 355.8227082156807,583.1175585815414 369.67841745115663,534.6225762573755 411.2455451575845,499.98330316868567 Z" fill="url(#leaf29)" opacity="0.21" transform="rotate(3.6 411.2 569.3)"/>
    </g>

    <!-- Text with SOLID fill only (ThorVG compatible) -->
    <text x="1057.6" y="916.7"
          font-family="Arial, Helvetica, sans-serif"
          font-size="1080px"
          font-weight="bold"
          fill="#FF1493"
          text-anchor="middle"
          transform="rotate(14.3 960.0 540.0)">
      9
    </text>
  </g>

  <!-- Frame counter -->
  <text x="960.0" y="1050.0"
        font-family="monospace"
        font-size="24px"
        fill="#FFFFFF"
        text-anchor="middle"
        opacity="0.7">
    Frame 00062 - Compatible
  </text>
</svg>