<?xml version="1.0" encoding="UTF-8"?>
<svg xmlns="http://www.w3.org/2000/svg" viewBox="0 0 1920 1080" width="1920" height="1080">
  <defs>
    <linearGradient id="bgGrad" x1="0%" y1="0%" x2="100%" y2="100%">
      <stop offset="0%" stop-color="#FF4500"/>
      <stop offset="100%" stop-color="#FF69B4"/>
    </linearGradient>
    <clipPath id="complexClip"><polygon points="1443.3,540.0 1483.8,577.2 1471.7,613.9 1469.4,653.5 1548.4,722.0 1431.5,732.7 1408.8,777.1 1339.6,798.1 1196.8,749.9 1218.1,848.5 1126.8,828.8 1036.7,766.1 988.7,796.6 927.5,830.2 872.4,798.3 790.1,834.1 682.5,871.7 720.1,752.7 679.8,730.5 472.2,797.7 486.7,733.4 622.9,644.2 403.4,664.0 499.0,606.6 380.8,581.2 386.0,540.0 531.7,509.6 560.3,482.3 385.2,412.0 418.9,372.7 434.7,325.3 487.2,290.3 667.6,341.2 742.3,347.1 697.2,225.8 768.0,207.7 838.5,181.7 935.7,322.5 993.6,239.3 1036.5,314.3 1123.0,257.8 1231.4,215.6 1272.1,263.4 1294.7,312.4 1357.7,330.0 1294.6,403.3 1373.0,412.3 1510.6,417.4 1480.8,464.8 1499.0,501.7"/></clipPath>
    <radialGradient id="leaf0" cx="50%" cy="50%" r="70%">
      <stop offset="0%" stop-color="#FF1493"/>
      <stop offset="50%" stop-color="#7B68EE"/>
      <stop offset="100%" stop-color="#00CED1"/>
    </radialGradient>
    <radialGradient id="leaf1" cx="50%" cy="50%" r="70%">
      <stop offset="0%" stop-color="#FF69B4"/>
      <stop offset="50%" stop-color="#FFD700"/>
      <stop offset="100%" stop-color="#96E6A1"/>
    </radialGradient>
    <radialGradient id="leaf2" cx="50%" cy="50%" r="70%">
      <stop offset="0%" stop-color="#FFE66D"/>
      <stop offset="50%" stop-color="#45B7D1"/>
      <stop offset="100%" stop-color="#FFD700"/>
    </radialGradient>
    <radialGradient id="leaf3" cx="50%" cy="50%" r="70%">
      <stop offset="0%" stop-color="#FFE66D"/>
      <stop offset="50%" stop-color="#4ECDC4"/>
      <stop offset="100%" stop-color="#FF69B4"/>
    </radialGradient>
    <radialGradient id="leaf4" cx="50%" cy="50%" r="70%">
      <stop offset="0%" stop-color="#FFD700"/>
      <stop offset="50%" stop-color="#45B7D1"/>
      <stop offset="100%" stop-color="#4ECDC4"/>
    </radialGradient>
    <radialGradient id="leaf5" cx="50%" cy="50%" r="70%">
      <stop offset="0%" stop-color="#FF1493"/>
      <stop offset="50%" stop-color="#00CED1"/>
      <stop offset="100%" stop-color="#FFD700"/>
    </radialGradient>
    <radialGradient id="leaf6" cx="50%" cy="50%" r="70%">
      <stop offset="0%" stop-color="#9370DB"/>
      <stop offset="50%" stop-color="#FF1493"/>
      <stop offset="100%" stop-color="#00FA9A"/>
    </radialGradient>
    <radialGradient id="leaf7" cx="50%" cy="50%" r="70%">
      <stop offset="0%" stop-color="#9370DB"/>
      <stop offset="50%" stop-color="#45B7D1"/>
      <stop offset="100%" stop-color="#4ECDC4"/>
    </radialGradient>
    <radialGradient id="leaf8" cx="50%" cy="50%" r="70%">
      <stop offset="0%" stop-color="#FF69B4"/>
      <stop offset="50%" stop-color="#00FA9A"/>
      <stop offset="100%" stop-color="#00CED1"/>
    </radialGradient>
    <radialGradient id="leaf9" cx="50%" cy="50%" r="70%">
      <stop offset="0%" stop-color="#9370DB"/>
      <stop offset="50%" stop-color="#32CD32"/>
      <stop offset="100%" stop-color="#DC143C"/>
    </radialGradient>
    <radialGradient id="leaf10" cx="50%" cy="50%" r="70%">
      <stop offset="0%" stop-color="#00FA9A"/>
      <stop offset="50%" stop-color="#7B68EE"/>
      <stop offset="100%" stop-color="#FF1493"/>
    </radialGradient>
    <radialGradient id="leaf11" cx="50%" cy="50%" r="70%">
      <stop offset="0%" stop-color="#FF6B6B"/>
      <stop offset="50%" stop-color="#32CD32"/>
      <stop offset="100%" stop-color="#00FA9A"/>
    </radialGradient>
    <radialGradient id="leaf12" cx="50%" cy="50%" r="70%">
      <stop offset="0%" stop-color="#00CED1"/>
      <stop offset="50%" stop-color="#FF69B4"/>
      <stop offset="100%" stop-color="#FFE66D"/>
    </radialGradient>
    <radialGradient id="leaf13" cx="50%" cy="50%" r="70%">
      <stop offset="0%" stop-color="#FFD700"/>
      <stop offset="50%" stop-color="#4ECDC4"/>
      <stop offset="100%" stop-color="#45B7D1"/>
    </radialGradient>
    <radialGradient id="leaf14" cx="50%" cy="50%" r="70%">
      <stop offset="0%" stop-color="#FF4500"/>
      <stop offset="50%" stop-color="#DC143C"/>
      <stop offset="100%" stop-color="#FFE66D"/>
    </radialGradient>
    <radialGradient id="leaf15" cx="50%" cy="50%" r="70%">
      <stop offset="0%" stop-color="#32CD32"/>
      <stop offset="50%" stop-color="#FFD700"/>
      <stop offset="100%" stop-color="#96E6A1"/>
    </radialGradient>
    <radialGradient id="leaf16" cx="50%" cy="50%" r="70%">
      <stop offset="0%" stop-color="#FF4500"/>
      <stop offset="50%" stop-color="#DC143C"/>
      <stop offset="100%" stop-color="#45B7D1"/>
    </radialGradient>
    <radialGradient id="leaf17" cx="50%" cy="50%" r="70%">
      <stop offset="0%" stop-color="#FF1493"/>
      <stop offset="50%" stop-color="#FF6B6B"/>
      <stop offset="100%" stop-color="#FF4500"/>
    </radialGradient>
    <radialGradient id="leaf18" cx="50%" cy="50%" r="70%">
      <stop offset="0%" stop-color="#FF1493"/>
      <stop offset="50%" stop-color="#FF69B4"/>
      <stop offset="100%" stop-color="#7B68EE"/>
    </radialGradient>
    <radialGradient id="leaf19" cx="50%" cy="50%" r="70%">
      <stop offset="0%" stop-color="#4ECDC4"/>
      <stop offset="50%" stop-color="#FF6B6B"/>
      <stop offset="100%" stop-color="#DC143C"/>
    </radialGradient>
    <radialGradient id="leaf20" cx="50%" cy="50%" r="70%">
      <stop offset="0%" stop-color="#FF6B6B"/>
      <stop offset="50%" stop-color="#00CED1"/>
      <stop offset="100%" stop-color="#9370DB"/>
    </radialGradient>
    <radialGradient id="leaf21" cx="50%" cy="50%" r="70%">
      <stop offset="0%" stop-color="#32CD32"/>
      <stop offset="50%" stop-color="#FF4500"/>
      <stop offset="100%" stop-color="#7B68EE"/>
    </radialGradient>
    <radialGradient id="leaf22" cx="50%" cy="50%" r="70%">
      <stop offset="0%" stop-color="#DC143C"/>
      <stop offset="50%" stop-color="#7B68EE"/>
      <stop offset="100%" stop-color="#FFD700"/>
    </radialGradient>
    <radialGradient id="leaf23" cx="50%" cy="50%" r="70%">
      <stop offset="0%" stop-color="#FF6B6B"/>
      <stop offset="50%" stop-color="#7B68EE"/>
      <stop offset="100%" stop-color="#96E6A1"/>
    </radialGradient>
    <radialGradient id="leaf24" cx="50%" cy="50%" r="70%">
      <stop offset="0%" stop-color="#FF1493"/>
      <stop offset="50%" stop-color="#96E6A1"/>
      <stop offset="100%" stop-color="#4ECDC4"/>
    </radialGradient>
    <radialGradient id="leaf25" cx="50%" cy="50%" r="70%">
      <stop offset="0%" stop-color="#45B7D1"/>
      <stop offset="50%" stop-color="#96E6A1"/>
      <stop offset="100%" stop-color="#FF69B4"/>
    </radialGradient>
    <radialGradient id="leaf26" cx="50%" cy="50%" r="70%">
      <stop offset="0%" stop-color="#7B68EE"/>
      <stop offset="50%" stop-color="#FFE66D"/>
      <stop offset="100%" stop-color="#45B7D1"/>
    </radialGradient>
    <radialGradient id="leaf27" cx="50%" cy="50%" r="70%">
      <stop offset="0%" stop-color="#7B68EE"/>
      <stop offset="50%" stop-color="#FFD700"/>
      <stop offset="100%" stop-color="#45B7D1"/>
    </radialGradient>
    <radialGradient id="leaf28" cx="50%" cy="50%" r="70%">
      <stop offset="0%" stop-color="#FF6B6B"/>
      <stop offset="50%" stop-color="#9370DB"/>
      <stop offset="100%" stop-color="#45B7D1"/>
    </radialGradient>
    <radialGradient id="leaf29" cx="50%" cy="50%" r="70%">
      <stop offset="0%" stop-color="#96E6A1"/>
      <stop offset="50%" stop-color="#7B68EE"/>
      <stop offset="100%" stop-color="#45B7D1"/>
    </radialGradient>
  </defs>

  <!-- Scaled content -->
  <g transform="translate(960.0,540.0) scale(3.0) translate(-960.0,-540.0)">
    <!-- Background -->
    <rect width="1920" height="1080" fill="url(#bgGrad)"/>
    
    <!-- Leaves with clip-path -->
    <g clip-path="url(#complexClip)">
    <path d="M 1581.16619204197,832.365110705068 C 1600.9121565671267,848.8200811426985 1607.4941447421788,871.8570397553813 1581.16619204197,898.1849924555902 C 1554.838239341761,871.8570397553813 1561.4202275168132,848.8200811426985 1581.16619204197,832.365110705068 Z" fill="url(#leaf0)" opacity="0.17" transform="rotate(166.9 1581.2 865.3)"/>
    <path d="M 1509.8254188506562,398.86793243737316 C 1532.8935968436951,418.09141409823894 1540.5829895080415,445.0042884234511 1509.8254188506562,475.7618590808364 C 1479.067848193271,445.0042884234511 1486.7572408576173,418.09141409823894 1509.8254188506562,398.86793243737316 Z" fill="url(#leaf1)" opacity="0.15" transform="rotate(187.6 1509.8 437.3)"/>
    <path d="M 827.4788002395914,325.45762206880096 C 848.6311954932221,343.0846181134932 855.681993911099,367.76241257606233 827.4788002395914,395.96560624756995 C 799.2756065680837,367.76241257606233 806.3264049859606,343.0846181134932 827.4788002395914,325.45762206880096 Z" fill="url(#leaf2)" opacity="0.19" transform="rotate(235.1 827.5 360.7)"/>
    <path d="M 1816.3732248234858,626.7445430476901 C 1854.9171907947393,658.8645146904014 1867.7651794518238,703.8324749901973 1816.3732248234858,755.2244296185354 C 1764.9812701951478,703.8324749901973 1777.8292588522322,658.8645146904014 1816.3732248234858,626.7445430476901 Z" fill="url(#leaf3)" opacity="0.19" transform="rotate(338.0 1816.4 691.0)"/>
    <path d="M 728.9475807118242,614.1595536821089 C 774.9894791950841,652.5278024181588 790.3367786895041,706.2433506486286 728.9475807118242,767.6325486263083 C 667.5583827341444,706.2433506486286 682.9056822285644,652.5278024181588 728.9475807118242,614.1595536821089 Z" fill="url(#leaf4)" opacity="0.21" transform="rotate(63.3 728.9 690.9)"/>
    <path d="M 1775.4106382457287,396.29283711949046 C 1794.6252326666488,412.3049991369238 1801.0300974736222,434.7220259613306 1775.4106382457287,460.341485189224 C 1749.7911790178352,434.7220259613306 1756.1960438248086,412.3049991369238 1775.4106382457287,396.29283711949046 Z" fill="url(#leaf5)" opacity="0.17" transform="rotate(89.9 1775.4 428.3)"/>
    <path d="M 256.9720638222311,145.81506664952616 C 289.30530016638784,172.75943026965678 300.0830456144401,210.48153933783965 256.9720638222311,253.59252113004862 C 213.86108203002215,210.48153933783965 224.6388274780744,172.75943026965678 256.9720638222311,145.81506664952616 Z" fill="url(#leaf6)" opacity="0.25" transform="rotate(135.8 257.0 199.7)"/>
    <path d="M 1480.9305151303797,131.86081851520166 C 1515.1134822354952,160.34662443613126 1526.507804603867,200.22675272543273 1480.9305151303797,245.8040421989201 C 1435.3532256568924,200.22675272543273 1446.7475480252642,160.34662443613126 1480.9305151303797,131.86081851520166 Z" fill="url(#leaf7)" opacity="0.20" transform="rotate(94.8 1480.9 188.8)"/>
    <path d="M 1238.9965110484861,716.4045195241112 C 1271.4186620317475,743.4229786768288 1282.2260456928345,781.2488214906338 1238.9965110484861,824.4783561349822 C 1195.7669764041377,781.2488214906338 1206.5743600652247,743.4229786768288 1238.9965110484861,716.4045195241112 Z" fill="url(#leaf8)" opacity="0.24" transform="rotate(137.1 1239.0 770.4)"/>
    <path d="M 124.68399590641683,504.50264815306696 C 163.61890521419605,536.9484059095496 176.59720831678914,582.3724667686254 124.68399590641683,634.2856791789977 C 72.77078349604452,582.3724667686254 85.7490865986376,536.9484059095496 124.68399590641683,504.50264815306696 Z" fill="url(#leaf9)" opacity="0.17" transform="rotate(284.0 124.7 569.4)"/>
    <path d="M 1328.5562596218108,245.98454374488222 C 1360.6751459449074,272.7502823474627 1371.3814413859395,310.22231639107537 1328.5562596218108,353.04749815520415 C 1285.731077857682,310.22231639107537 1296.4373732987142,272.7502823474627 1328.5562596218108,245.98454374488222 Z" fill="url(#leaf10)" opacity="0.19" transform="rotate(161.8 1328.6 299.5)"/>
    <path d="M 232.65261041375018,529.34593258522 C 266.2643147754785,557.3556862199937 277.46821622938796,596.5693413086767 232.65261041375018,641.3849471243145 C 187.83700459811237,596.5693413086767 199.04090605202182,557.3556862199937 232.65261041375018,529.34593258522 Z" fill="url(#leaf11)" opacity="0.15" transform="rotate(37.2 232.7 585.4)"/>
    <path d="M 464.3297876924847,449.6262101670741 C 502.5196405164858,481.45108752040835 515.2495914578195,526.0059158150764 464.3297876924847,576.9257195804112 C 413.4099839271498,526.0059158150764 426.1399348684835,481.45108752040835 464.3297876924847,449.6262101670741 Z" fill="url(#leaf12)" opacity="0.22" transform="rotate(64.1 464.3 513.3)"/>
    <path d="M 1605.7391957254065,596.079803017599 C 1643.3286262818956,627.40432848134 1655.858436467392,671.2586641305772 1605.7391957254065,721.3779048725628 C 1555.619954983421,671.2586641305772 1568.1497651689174,627.40432848134 1605.7391957254065,596.079803017599 Z" fill="url(#leaf13)" opacity="0.18" transform="rotate(277.5 1605.7 658.7)"/>
    <path d="M 1109.457795413685,731.875842009814 C 1130.8533798247904,749.7054956857352 1137.9852412951589,774.6670108320247 1109.457795413685,803.1944567134985 C 1080.9303495322113,774.6670108320247 1088.0622110025797,749.7054956857352 1109.457795413685,731.875842009814 Z" fill="url(#leaf14)" opacity="0.20" transform="rotate(247.7 1109.5 767.5)"/>
    <path d="M 933.1087987472764,241.41354311909328 C 973.3613039306995,274.95729743861244 986.7788056585072,321.91855348593936 933.1087987472764,375.58856039717006 C 879.4387918360457,321.91855348593936 892.8562935638533,274.95729743861244 933.1087987472764,241.41354311909328 Z" fill="url(#leaf15)" opacity="0.17" transform="rotate(38.0 933.1 308.5)"/>
    <path d="M 859.0128116033052,807.4446315906662 C 903.4366554073043,844.4645014273322 918.2446033419708,896.2923191986645 859.0128116033052,955.5241109373301 C 799.7810198646396,896.2923191986645 814.588967799306,844.4645014273322 859.0128116033052,807.4446315906662 Z" fill="url(#leaf16)" opacity="0.20" transform="rotate(265.8 859.0 881.5)"/>
    <path d="M 1512.365848636103,589.4123207848471 C 1543.18508918077,615.0950212387363 1553.4581693623256,651.0508018741812 1512.365848636103,692.1431226004039 C 1471.2735279098804,651.0508018741812 1481.546608091436,615.0950212387363 1512.365848636103,589.4123207848471 Z" fill="url(#leaf17)" opacity="0.17" transform="rotate(164.6 1512.4 640.8)"/>
    <path d="M 53.7071715659112,668.0815562475323 C 83.60587286165648,692.9971406606533 93.57210662690491,727.8789588390227 53.7071715659112,767.7438939000165 C 13.842236504917501,727.8789588390227 23.808470270165934,692.9971406606533 53.7071715659112,668.0815562475323 Z" fill="url(#leaf18)" opacity="0.19" transform="rotate(150.4 53.7 717.9)"/>
    <path d="M 203.1031768303401,61.50413884185606 C 229.81279297768577,83.76215229797745 238.71599836013434,114.92337113654742 203.1031768303401,150.53619266634166 C 167.49035530054584,114.92337113654742 176.3935606829944,83.76215229797745 203.1031768303401,61.50413884185606 Z" fill="url(#leaf19)" opacity="0.19" transform="rotate(117.5 203.1 106.0)"/>
    <path d="M 1472.0715669489487,542.6331763027798 C 1493.607082137198,560.5794389596543 1500.7855871999477,585.7042066792785 1472.0715669489487,614.4182269302777 C 1443.3575466979496,585.7042066792785 1450.5360517606994,560.5794389596543 1472.0715669489487,542.6331763027798 Z" fill="url(#leaf20)" opacity="0.19" transform="rotate(200.5 1472.1 578.5)"/>
    <path d="M 1644.9965601846227,9.04078469384838 C 1687.1048389479383,44.13101699661141 1701.1409318690435,93.25734222047964 1644.9965601846227,149.40171390490048 C 1588.852188500202,93.25734222047964 1602.888281421307,44.13101699661141 1644.9965601846227,9.04078469384838 Z" fill="url(#leaf21)" opacity="0.17" transform="rotate(5.4 1645.0 79.2)"/>
    <path d="M 921.8315902664282,930.2273996135909 C 959.8283124720075,961.891334784907 972.4938865405339,1006.2208440247496 921.8315902664282,1056.8831402988553 C 871.1692939923224,1006.2208440247496 883.8348680608489,961.891334784907 921.8315902664282,930.2273996135909 Z" fill="url(#leaf22)" opacity="0.23" transform="rotate(244.0 921.8 993.6)"/>
    <path d="M 80.02201547340638,176.3336108108037 C 111.61474087940799,202.6608819824717 122.14564934807518,239.5190616228069 80.02201547340638,281.6426954974757 C 37.89838159873758,239.5190616228069 48.42929006740478,202.6608819824717 80.02201547340638,176.3336108108037 Z" fill="url(#leaf23)" opacity="0.18" transform="rotate(217.0 80.0 229.0)"/>
    <path d="M 816.8057455667981,767.7160241191925 C 835.2979950025056,783.126231982282 841.4620781477414,804.7005229906074 816.8057455667981,829.3568555715506 C 792.1494129858548,804.7005229906074 798.3134961310907,783.126231982282 816.8057455667981,767.7160241191925 Z" fill="url(#leaf24)" opacity="0.16" transform="rotate(125.4 816.8 798.5)"/>
    <path d="M 533.426320143421,466.0342519578629 C 575.1417527301411,500.79711244679635 589.0468969257145,549.4651171313031 533.426320143421,605.0856939135966 C 477.8057433611275,549.4651171313031 491.71088755670087,500.79711244679635 533.426320143421,466.0342519578629 Z" fill="url(#leaf25)" opacity="0.15" transform="rotate(344.7 533.4 535.6)"/>
    <path d="M 785.573325391783,350.82986486762405 C 831.4586722695601,389.06765393243825 846.7537878954857,442.6005586231782 785.573325391783,503.78102112688094 C 724.3928628880802,442.6005586231782 739.6879785140059,389.06765393243825 785.573325391783,350.82986486762405 Z" fill="url(#leaf26)" opacity="0.23" transform="rotate(177.4 785.6 427.3)"/>
    <path d="M 120.20170951760522,538.915211083345 C 165.73389460428112,576.8586986555749 180.91128963317308,629.9795812566967 120.20170951760522,690.6891613722646 C 59.492129402037364,629.9795812566967 74.66952443092933,576.8586986555749 120.20170951760522,538.915211083345 Z" fill="url(#leaf27)" opacity="0.24" transform="rotate(273.6 120.2 614.8)"/>
    <path d="M 94.10663303535645,265.65204432927936 C 121.7979692197252,288.7281578162533 131.0284146145148,321.03471669801684 94.10663303535645,357.95649827717517 C 57.18485145619812,321.03471669801684 66.4152968509877,288.7281578162533 94.10663303535645,265.65204432927936 Z" fill="url(#leaf28)" opacity="0.25" transform="rotate(187.7 94.1 311.8)"/>
    <path d="M 1857.61552993347,143.12547501409892 C 1893.2950233896604,172.8583862275908 1905.188187875057,214.48446192647947 1857.61552993347,262.0571198680665 C 1810.042871991883,214.48446192647947 1821.9360364772797,172.8583862275908 1857.61552993347,143.12547501409892 Z" fill="url(#leaf29)" opacity="0.17" transform="rotate(138.6 1857.6 202.6)"/>
    <path d="M 401.72151663973233,680.283683036245 C 421.90787994409186,697.1056524565446 428.6366677122117,720.6564096449641 401.72151663973233,747.5715607174435 C 374.80636556725295,720.6564096449641 381.5351533353728,697.1056524565446 401.72151663973233,680.283683036245 Z" fill="url(#leaf0)" opacity="0.20" transform="rotate(288.0 401.7 713.9)"/>
    <path d="M 1837.0790118883592,819.787890774368 C 1876.8432729257281,852.9247749721753 1890.0980266048512,899.3164128491056 1837.0790118883592,952.3354275655975 C 1784.0599971718673,899.3164128491056 1797.3147508509903,852.9247749721753 1837.0790118883592,819.787890774368 Z" fill="url(#leaf1)" opacity="0.19" transform="rotate(303.2 1837.1 886.1)"/>
    <path d="M 1838.4932659636913,466.472458853326 C 1856.9552187452805,481.8574195046503 1863.1092030058103,503.39636441650435 1838.4932659636913,528.0123014586233 C 1813.8773289215724,503.39636441650435 1820.0313131821022,481.8574195046503 1838.4932659636913,466.472458853326 Z" fill="url(#leaf2)" opacity="0.25" transform="rotate(194.8 1838.5 497.2)"/>
    <path d="M 776.2155670359552,375.5268010033212 C 797.470573814871,393.2393066524177 804.5555760745096,418.0368145611528 776.2155670359552,446.3768235997072 C 747.8755579974008,418.0368145611528 754.9605602570394,393.2393066524177 776.2155670359552,375.5268010033212 Z" fill="url(#leaf3)" opacity="0.17" transform="rotate(293.4 776.2 411.0)"/>
    <path d="M 915.9327721759888,730.2316348818019 C 962.311847590977,768.880864394292 977.7715393959729,822.9897857117782 915.9327721759888,884.8285529317623 C 854.0940049560047,822.9897857117782 869.5536967610007,768.880864394292 915.9327721759888,730.2316348818019 Z" fill="url(#leaf4)" opacity="0.16" transform="rotate(290.6 915.9 807.5)"/>
    <path d="M 535.7575590065619,612.2037373657191 C 579.1374451105846,648.3536424524046 593.5974071452589,698.9635095737646 535.7575590065619,756.8033577124614 C 477.91771086786497,698.9635095737646 492.3776729025392,648.3536424524046 535.7575590065619,612.2037373657191 Z" fill="url(#leaf5)" opacity="0.20" transform="rotate(288.8 535.8 684.5)"/>
    <path d="M 1754.460070008802,12.984340276003778 C 1784.6249880986054,38.12177201750668 1794.6799607952066,73.31417645561075 1754.460070008802,113.53406724201538 C 1714.2401792223973,73.31417645561075 1724.2951519189985,38.12177201750668 1754.460070008802,12.984340276003778 Z" fill="url(#leaf6)" opacity="0.24" transform="rotate(300.6 1754.5 63.3)"/>
    <path d="M 251.2440379514989,931.2066443231491 C 293.8240184463664,966.6899614022054 308.01734527798885,1016.3666053128841 251.2440379514989,1073.139912639374 C 194.47073062500897,1016.3666053128841 208.66405745663144,966.6899614022054 251.2440379514989,931.2066443231491 Z" fill="url(#leaf7)" opacity="0.23" transform="rotate(294.1 251.2 1002.2)"/>
    <path d="M 347.1071803114853,679.2528159927425 C 369.59959404479275,697.996494103832 377.09706528922857,724.2376434593574 347.1071803114853,754.2275284371007 C 317.11729533374205,724.2376434593574 324.61476657817786,697.996494103832 347.1071803114853,679.2528159927425 Z" fill="url(#leaf8)" opacity="0.21" transform="rotate(92.3 347.1 716.7)"/>
    <path d="M 1614.7815772218564,590.0940768671717 C 1644.8468263331476,615.1484511265811 1654.8685760369115,650.2245750897541 1614.7815772218564,690.3115739048092 C 1574.6945784068014,650.2245750897541 1584.7163281105652,615.1484511265811 1614.7815772218564,590.0940768671717 Z" fill="url(#leaf9)" opacity="0.25" transform="rotate(294.7 1614.8 640.2)"/>
    <path d="M 825.7249157707283,530.8963754669568 C 860.0607354246064,559.5095585118551 871.5060086425657,599.5680147747128 825.7249157707283,645.3491076465501 C 779.943822898891,599.5680147747128 791.3890961168503,559.5095585118551 825.7249157707283,530.8963754669568 Z" fill="url(#leaf10)" opacity="0.16" transform="rotate(262.3 825.7 588.1)"/>
    <path d="M 972.8786156048316,60.32855185420483 C 1003.3832311723401,85.74906482712856 1013.5514363615096,121.33778298922181 972.8786156048316,162.0106037458998 C 932.2057948481536,121.33778298922181 942.3740000373231,85.74906482712856 972.8786156048316,60.32855185420483 Z" fill="url(#leaf11)" opacity="0.19" transform="rotate(184.8 972.9 111.2)"/>
    <path d="M 1533.2352743278673,83.33161993662242 C 1574.1264684276505,117.40761501977516 1587.7568664609116,165.114008136189 1533.2352743278673,219.6356002692334 C 1478.713682194823,165.114008136189 1492.344080228084,117.40761501977516 1533.2352743278673,83.33161993662242 Z" fill="url(#leaf12)" opacity="0.17" transform="rotate(260.4 1533.2 151.5)"/>
    <path d="M 1113.5050579111407,820.6008580445854 C 1149.9136586718807,850.9413586785354 1162.0498589254607,893.4180595660655 1113.5050579111407,941.9628605803856 C 1064.9602568968207,893.4180595660655 1077.0964571504007,850.9413586785354 1113.5050579111407,820.6008580445854 Z" fill="url(#leaf13)" opacity="0.24" transform="rotate(219.3 1113.5 881.3)"/>
    <path d="M 1134.506541713215,298.5560861562528 C 1155.543652502691,316.0870118141494 1162.5560227658495,340.63030773520467 1134.506541713215,368.6797887878393 C 1106.4570606605805,340.63030773520467 1113.469430923739,316.0870118141494 1134.506541713215,298.5560861562528 Z" fill="url(#leaf14)" opacity="0.20" transform="rotate(155.9 1134.5 333.6)"/>
    <path d="M 1101.9770108111238,817.5082526922043 C 1130.468296163502,841.2509904858528 1139.9653912809613,874.4908233969605 1101.9770108111238,912.479203866798 C 1063.9886303412864,874.4908233969605 1073.4857254587457,841.2509904858528 1101.9770108111238,817.5082526922043 Z" fill="url(#leaf15)" opacity="0.19" transform="rotate(84.9 1102.0 865.0)"/>
    <path d="M 321.14190752452123,671.4993690155775 C 340.24544308670096,687.4189819840607 346.6132882740942,709.7064401399371 321.14190752452123,735.17782088951 C 295.67052677494826,709.7064401399371 302.0383719623415,687.4189819840607 321.14190752452123,671.4993690155775 Z" fill="url(#leaf16)" opacity="0.24" transform="rotate(336.7 321.1 703.3)"/>
    <path d="M 1476.2845686907394,651.3770440296182 C 1503.8910522014746,674.3824469552309 1513.0932133717197,706.5900110510886 1476.2845686907394,743.3986557320688 C 1439.4759240097592,706.5900110510886 1448.6780851800042,674.3824469552309 1476.2845686907394,651.3770440296182 Z" fill="url(#leaf17)" opacity="0.24" transform="rotate(237.2 1476.3 697.4)"/>
    <path d="M 553.4837417606461,545.9217853624364 C 594.2802653860141,579.9188883835764 607.87910659447,627.5148326131723 553.4837417606461,681.9101974469963 C 499.08837692682215,627.5148326131723 512.6872181352782,579.9188883835764 553.4837417606461,545.9217853624364 Z" fill="url(#leaf18)" opacity="0.22" transform="rotate(66.2 553.5 613.9)"/>
    <path d="M 847.041794656836,551.6117538306262 C 868.0621558865324,569.1287215220399 875.0689429630979,593.6524762900191 847.041794656836,621.679624596281 C 819.0146463505741,593.6524762900191 826.0214334271396,569.1287215220399 847.041794656836,551.6117538306262 Z" fill="url(#leaf19)" opacity="0.23" transform="rotate(116.2 847.0 586.6)"/>
    <path d="M 1616.5018133191816,850.1109681220644 C 1654.8915878972036,882.1024469370827 1667.6881794232108,926.8905172781084 1616.5018133191816,978.0768833821378 C 1565.3154472151523,926.8905172781084 1578.1120387411595,882.1024469370827 1616.5018133191816,850.1109681220644 Z" fill="url(#leaf20)" opacity="0.24" transform="rotate(315.3 1616.5 914.1)"/>
    <path d="M 671.6784451883159,639.2174630998122 C 711.8335001876787,672.6800089326146 725.2185185207998,719.5275730985379 671.6784451883159,773.0676464310218 C 618.138371855832,719.5275730985379 631.523390188953,672.6800089326146 671.6784451883159,639.2174630998122 Z" fill="url(#leaf21)" opacity="0.24" transform="rotate(335.6 671.7 706.1)"/>
    <path d="M 314.3680070365067,132.34277361273385 C 358.9015077172841,169.45402418004838 373.74600794420996,221.40977497428872 314.3680070365067,280.78777588199193 C 254.99000612880346,221.40977497428872 269.8345063557293,169.45402418004838 314.3680070365067,132.34277361273385 Z" fill="url(#leaf22)" opacity="0.22" transform="rotate(83.1 314.4 206.6)"/>
    <path d="M 170.08376294012356,240.42963243899857 C 205.5377166349434,269.97459385134846 217.35570119988333,311.3375398286382 170.08376294012356,358.609478088398 C 122.8118246803638,311.3375398286382 134.62980924530373,269.97459385134846 170.08376294012356,240.42963243899857 Z" fill="url(#leaf23)" opacity="0.23" transform="rotate(68.9 170.1 299.5)"/>
    <path d="M 1264.703796542739,61.19167326412354 C 1292.131742258628,84.04829469403106 1301.2743908305908,116.04756469590157 1264.703796542739,152.61815898375357 C 1228.133202254887,116.04756469590157 1237.2758508268498,84.04829469403106 1264.703796542739,61.19167326412354 Z" fill="url(#leaf24)" opacity="0.19" transform="rotate(82.6 1264.7 106.9)"/>
    <path d="M 1669.4682081034923,968.4252664888135 C 1687.6518583928046,983.5783083965737 1693.7130751559087,1004.7925670674381 1669.4682081034923,1029.0374341198547 C 1645.223341051076,1004.7925670674381 1651.28455781418,983.5783083965737 1669.4682081034923,968.4252664888135 Z" fill="url(#leaf25)" opacity="0.19" transform="rotate(278.8 1669.5 998.7)"/>
    <path d="M 1131.4716240792022,142.47418529854207 C 1160.4218241608955,166.5993520332864 1170.071890854793,200.3745854619285 1131.4716240792022,238.97485223751943 C 1092.8713573036114,200.3745854619285 1102.521423997509,166.5993520332864 1131.4716240792022,142.47418529854207 Z" fill="url(#leaf26)" opacity="0.16" transform="rotate(150.6 1131.5 190.7)"/>
    <path d="M 1583.909373182816,440.2787582945417 C 1609.4163463572195,461.5345692732113 1617.9186707486872,491.29270464334866 1583.909373182816,525.30200220922 C 1549.9000756169446,491.29270464334866 1558.4024000084123,461.5345692732113 1583.909373182816,440.2787582945417 Z" fill="url(#leaf27)" opacity="0.24" transform="rotate(130.8 1583.9 482.8)"/>
    <path d="M 1073.1479491911364,281.3896863938006 C 1119.6169995853963,320.11389505568394 1135.1066830501497,374.3277871823206 1073.1479491911364,436.2865210413339 C 1011.1892153321231,374.3277871823206 1026.6788987968764,320.11389505568394 1073.1479491911364,281.3896863938006 Z" fill="url(#leaf28)" opacity="0.19" transform="rotate(275.4 1073.1 358.8)"/>
    <path d="M 575.0591497342333,931.8577074655509 C 607.0245796598224,958.4955657368752 617.6797229683522,995.7885673167291 575.0591497342333,1038.409140550848 C 532.4385765001144,995.7885673167291 543.0937198086442,958.4955657368752 575.0591497342333,931.8577074655509 Z" fill="url(#leaf29)" opacity="0.22" transform="rotate(246.5 575.1 985.1)"/>
    <path d="M 1320.386165692391,575.023083419512 C 1353.633535424436,602.7292248628829 1364.7159920017846,641.5178228836023 1320.386165692391,685.847649192996 C 1276.0563393829973,641.5178228836023 1287.1387959603458,602.7292248628829 1320.386165692391,575.023083419512 Z" fill="url(#leaf0)" opacity="0.22" transform="rotate(126.5 1320.4 630.4)"/>
    <path d="M 366.8096135765391,99.92468087274693 C 413.5004207680597,138.8336868656808 429.06402316523327,193.3062952557882 366.8096135765391,255.56070484448236 C 304.55520398784495,193.3062952557882 320.1188063850185,138.8336868656808 366.8096135765391,99.92468087274693 Z" fill="url(#leaf1)" opacity="0.20" transform="rotate(88.2 366.8 177.7)"/>
    <path d="M 487.9310685304869,167.68844170066916 C 526.3931092823236,199.74014232719978 539.213789532936,244.61252320434264 487.9310685304869,295.89524420679163 C 436.6483475280379,244.61252320434264 449.4690277786502,199.74014232719978 487.9310685304869,167.68844170066916 Z" fill="url(#leaf2)" opacity="0.18" transform="rotate(161.4 487.9 231.8)"/>
    <path d="M 877.6666040293366,452.29058614075893 C 920.2178881791422,487.74998959893026 934.4016495624106,537.3931544403702 877.6666040293366,594.1281999734442 C 820.9315584962625,537.3931544403702 835.115319879531,487.74998959893026 877.6666040293366,452.29058614075893 Z" fill="url(#leaf3)" opacity="0.21" transform="rotate(40.3 877.7 523.2)"/>
    <path d="M 1321.7539377923758,789.8910560745691 C 1343.3616290674752,807.8974654704853 1350.5641928258417,833.106438624768 1321.7539377923758,861.9166936582338 C 1292.94368275891,833.106438624768 1300.1462465172765,807.8974654704853 1321.7539377923758,789.8910560745691 Z" fill="url(#leaf4)" opacity="0.24" transform="rotate(359.7 1321.8 825.9)"/>
    <path d="M 904.524137289555,296.8540900918386 C 932.9961055019565,320.5807302688399 942.486761572757,353.79802651664164 904.524137289555,391.76065079984363 C 866.561513006353,353.79802651664164 876.0521690771535,320.5807302688399 904.524137289555,296.8540900918386 Z" fill="url(#leaf5)" opacity="0.20" transform="rotate(206.4 904.5 344.3)"/>
    <path d="M 1473.777973452515,462.6265889076465 C 1514.1738345869876,496.289806519707 1527.6391216318118,543.4183111765917 1473.777973452515,597.2794593558885 C 1419.9168252732181,543.4183111765917 1433.3821123180423,496.289806519707 1473.777973452515,462.6265889076465 Z" fill="url(#leaf6)" opacity="0.21" transform="rotate(101.0 1473.8 530.0)"/>
    <path d="M 813.7335575580727,802.2056945433566 C 857.6656341337668,838.815758356435 872.3096596589983,890.0698476947449 813.7335575580727,948.6459497956704 C 755.1574554571471,890.0698476947449 769.8014809823785,838.815758356435 813.7335575580727,802.2056945433566 Z" fill="url(#leaf7)" opacity="0.19" transform="rotate(93.0 813.7 875.4)"/>
    <path d="M 615.0764507000806,36.818461501091704 C 637.5399509952817,55.53804508042602 645.0277844270155,81.74546209149408 615.0764507000806,111.69679581842898 C 585.1251169731457,81.74546209149408 592.6129504048795,55.53804508042602 615.0764507000806,36.818461501091704 Z" fill="url(#leaf8)" opacity="0.23" transform="rotate(178.8 615.1 74.3)"/>
    <path d="M 211.98696113336618,926.6202484030841 C 238.54430477458666,948.7513681041012 247.3967526549935,979.734935685525 211.98696113336618,1015.1447272071523 C 176.57716961173887,979.734935685525 185.4296174921457,948.7513681041012 211.98696113336618,926.6202484030841 Z" fill="url(#leaf9)" opacity="0.22" transform="rotate(272.1 212.0 970.9)"/>
    <path d="M 1310.6913043092766,750.5866949117217 C 1335.106524214647,770.9327114995305 1343.2449308497705,799.4171347224626 1310.6913043092766,831.9707612629566 C 1278.1376777687826,799.4171347224626 1286.2760844039062,770.9327114995305 1310.6913043092766,750.5866949117217 Z" fill="url(#leaf10)" opacity="0.21" transform="rotate(177.1 1310.7 791.3)"/>
    <path d="M 157.70275448176326,794.25274149226 C 191.5660048552987,822.4721168035395 202.85375497981053,861.9792422393309 157.70275448176326,907.1302427373781 C 112.551753983716,861.9792422393309 123.83950410822783,822.4721168035395 157.70275448176326,794.25274149226 Z" fill="url(#leaf11)" opacity="0.21" transform="rotate(168.5 157.7 850.7)"/>
    <path d="M 1347.6328994845212,582.7333937947326 C 1378.0031097649394,608.0419023617478 1388.1265131917455,643.4738143555692 1347.6328994845212,683.9674280627935 C 1307.139285777297,643.4738143555692 1317.262689204103,608.0419023617478 1347.6328994845212,582.7333937947326 Z" fill="url(#leaf12)" opacity="0.23" transform="rotate(244.6 1347.6 633.4)"/>
    <path d="M 1078.9063222426257,697.1527687573233 C 1122.1878604342055,733.2207172503064 1136.6150398313987,783.7158451404827 1078.9063222426257,841.4245627292556 C 1021.1976046538529,783.7158451404827 1035.624784051046,733.2207172503064 1078.9063222426257,697.1527687573233 Z" fill="url(#leaf13)" opacity="0.23" transform="rotate(141.6 1078.9 769.3)"/>
    <path d="M 416.3145088615743,321.36117697134097 C 434.35649390725706,336.3961645094099 440.37048892248464,357.44514706270644 416.3145088615743,381.50112712361675 C 392.258528800664,357.44514706270644 398.2725238158916,336.3961645094099 416.3145088615743,321.36117697134097 Z" fill="url(#leaf14)" opacity="0.19" transform="rotate(163.0 416.3 351.4)"/>
    <path d="M 1352.3961684749224,852.1619668405935 C 1395.10102365171,887.7493461545831 1409.3359753773059,937.5716771941686 1352.3961684749224,994.5114840965521 C 1295.456361572539,937.5716771941686 1309.691313298135,887.7493461545831 1352.3961684749224,852.1619668405935 Z" fill="url(#leaf15)" opacity="0.16" transform="rotate(185.0 1352.4 923.3)"/>
    <path d="M 1813.346931841445,842.725125236339 C 1845.2882065527415,869.3428541624193 1855.9352981231734,906.6076746589317 1813.346931841445,949.1960409406602 C 1770.7585655597165,906.6076746589317 1781.4056571301485,869.3428541624193 1813.346931841445,842.725125236339 Z" fill="url(#leaf16)" opacity="0.18" transform="rotate(283.3 1813.3 896.0)"/>
    <path d="M 148.16056198176324,681.8461284941785 C 191.3199145191354,717.8122556086554 205.7063653649261,768.1648335689229 148.16056198176324,825.7106369520858 C 90.61475859860036,768.1648335689229 105.00120944439108,717.8122556086554 148.16056198176324,681.8461284941785 Z" fill="url(#leaf17)" opacity="0.16" transform="rotate(323.4 148.2 753.8)"/>
    <path d="M 69.3175065852968,946.6566044138638 C 98.5540890743943,971.0204231547784 108.29961657076012,1005.1297693920588 69.3175065852968,1044.1118793775222 C 30.335396599833466,1005.1297693920588 40.0809240961993,971.0204231547784 69.3175065852968,946.6566044138638 Z" fill="url(#leaf18)" opacity="0.20" transform="rotate(254.0 69.3 995.4)"/>
    <path d="M 543.5819135459808,638.7780339978699 C 591.4668598719661,678.682155936191 607.4285086472945,734.5479266498404 543.5819135459808,798.3945217511541 C 479.7353184446671,734.5479266498404 495.6969672199955,678.682155936191 543.5819135459808,638.7780339978699 Z" fill="url(#leaf19)" opacity="0.16" transform="rotate(39.0 543.6 718.6)"/>
    <path d="M 487.65347869234597,141.44237637542003 C 509.76507919577693,159.86871012827916 517.1356126969206,185.66557738228192 487.65347869234597,215.1477113868565 C 458.17134468777135,185.66557738228192 465.541878188915,159.86871012827916 487.65347869234597,141.44237637542003 Z" fill="url(#leaf20)" opacity="0.16" transform="rotate(150.7 487.7 178.3)"/>
    <path d="M 300.4619406789572,79.88524652545036 C 346.8581165104674,118.54872638504219 362.32350845430415,172.67759818847074 300.4619406789572,234.53916596381768 C 238.60037290361026,172.67759818847074 254.065764847447,118.54872638504219 300.4619406789572,79.88524652545036 Z" fill="url(#leaf21)" opacity="0.20" transform="rotate(158.9 300.5 157.2)"/>
    <path d="M 134.72853445132893,615.5931779003093 C 166.0355447566675,641.6823531547582 176.47121485844704,678.2071985109866 134.72853445132893,719.9498789181047 C 92.98585404421081,678.2071985109866 103.42152414599035,641.6823531547582 134.72853445132893,615.5931779003093 Z" fill="url(#leaf22)" opacity="0.20" transform="rotate(206.8 134.7 667.8)"/>
    <path d="M 227.18173059767628,544.7679966919758 C 248.49588429721513,562.5297914415916 255.6006021970614,587.3963040910535 227.18173059767628,615.8151756904387 C 198.76285899829116,587.3963040910535 205.86757689813743,562.5297914415916 227.18173059767628,544.7679966919758 Z" fill="url(#leaf23)" opacity="0.23" transform="rotate(142.4 227.2 580.3)"/>
    <path d="M 1587.0832241618525,804.2642642514714 C 1624.418959741434,835.377377234456 1636.864204934628,878.9357354106346 1587.0832241618525,928.7167161834101 C 1537.302243389077,878.9357354106346 1549.747488582271,835.377377234456 1587.0832241618525,804.2642642514714 Z" fill="url(#leaf24)" opacity="0.16" transform="rotate(198.4 1587.1 866.5)"/>
    <path d="M 702.0511930767975,268.34466502050884 C 739.770159860571,299.77713734032 752.3431487884953,343.78259858805563 702.0511930767975,394.07455429975346 C 651.7592373650997,343.78259858805563 664.3322262930241,299.77713734032 702.0511930767975,268.34466502050884 Z" fill="url(#leaf25)" opacity="0.17" transform="rotate(71.1 702.1 331.2)"/>
    <path d="M 50.70446869090458,658.0848758935646 C 85.01477293130367,686.6767960938972 96.45154101143672,726.7054843743628 50.70446869090458,772.452556694895 C 4.957396370372443,726.7054843743628 16.394164450505478,686.6767960938972 50.70446869090458,658.0848758935646 Z" fill="url(#leaf26)" opacity="0.16" transform="rotate(26.9 50.7 715.3)"/>
    <path d="M 542.5673141359193,546.8588833746771 C 573.3334953547067,572.4973677236665 583.5888890943023,608.3912458122517 542.5673141359193,649.4128207706347 C 501.5457391775363,608.3912458122517 511.80113291713207,572.4973677236665 542.5673141359193,546.8588833746771 Z" fill="url(#leaf27)" opacity="0.23" transform="rotate(257.9 542.6 598.1)"/>
    <path d="M 1630.726070102208,782.5150036680875 C 1672.3013884349,817.1611022786642 1686.1598278791307,865.6656403334714 1630.726070102208,921.0993981103941 C 1575.2923123252854,865.6656403334714 1589.150751769516,817.1611022786642 1630.726070102208,782.5150036680875 Z" fill="url(#leaf28)" opacity="0.23" transform="rotate(226.1 1630.7 851.8)"/>
    <path d="M 1331.1355745709939,39.721351916273434 C 1357.1135880448178,61.36969647779338 1365.7729258694258,91.6773788639213 1331.1355745709939,126.31473016235323 C 1296.498223272562,91.6773788639213 1305.15756109717,61.36969647779338 1331.1355745709939,39.721351916273434 Z" fill="url(#leaf29)" opacity="0.19" transform="rotate(130.1 1331.1 83.0)"/>
    <path d="M 1577.8577075696526,571.5701277829654 C 1604.3983684136215,593.6873451529394 1613.245255361611,624.651449470903 1577.8577075696526,660.0389972628615 C 1542.470159777694,624.651449470903 1551.3170467256837,593.6873451529394 1577.8577075696526,571.5701277829654 Z" fill="url(#leaf0)" opacity="0.22" transform="rotate(269.3 1577.9 615.8)"/>
    <path d="M 1009.0950698194252,177.23021313721097 C 1043.205739458137,205.65577116947077 1054.575962671041,245.45155241463453 1009.0950698194252,290.9324452662502 C 963.6141769678095,245.45155241463453 974.9844001807135,205.65577116947077 1009.0950698194252,177.23021313721097 Z" fill="url(#leaf1)" opacity="0.17" transform="rotate(19.5 1009.1 234.1)"/>
    <path d="M 384.07495455101844,316.1305450287824 C 427.5131752958045,352.32906231610417 441.9925822107332,403.00698651835455 384.07495455101844,460.9246141780693 C 326.1573268913037,403.00698651835455 340.63673380623237,352.32906231610417 384.07495455101844,316.1305450287824 Z" fill="url(#leaf2)" opacity="0.18" transform="rotate(127.7 384.1 388.5)"/>
    <path d="M 1240.385724511127,277.4886126202475 C 1277.3449057143027,308.2879302895606 1289.6646327820279,351.40697502659896 1240.385724511127,400.6858832974999 C 1191.106816240226,351.40697502659896 1203.426543307951,308.2879302895606 1240.385724511127,277.4886126202475 Z" fill="url(#leaf3)" opacity="0.24" transform="rotate(145.8 1240.4 339.1)"/>
    <path d="M 1300.8832778257083,210.15381446279008 C 1328.3686972403912,233.05833064169244 1337.5305037119522,265.12465329215576 1300.8832778257083,301.77187917839956 C 1264.2360519394645,265.12465329215576 1273.3978584110255,233.05833064169244 1300.8832778257083,210.15381446279008 Z" fill="url(#leaf4)" opacity="0.16" transform="rotate(85.5 1300.9 256.0)"/>
    <path d="M 1644.7955391596226,966.2617540566737 C 1670.906134244334,988.020583293933 1679.6096659392376,1018.4829442260962 1644.7955391596226,1053.2970710057111 C 1609.9814123800077,1018.4829442260962 1618.6849440749113,988.020583293933 1644.7955391596226,966.2617540566737 Z" fill="url(#leaf5)" opacity="0.19" transform="rotate(236.8 1644.8 1009.8)"/>
    <path d="M 932.745434281531,848.0743386965298 C 954.5936104044174,866.2811521322685 961.8763357787129,891.7706909423028 932.745434281531,920.9015924394848 C 903.614532784349,891.7706909423028 910.8972581586445,866.2811521322685 932.745434281531,848.0743386965298 Z" fill="url(#leaf6)" opacity="0.21" transform="rotate(334.3 932.7 884.5)"/>
    <path d="M 391.07254558537176,229.65311820073015 C 418.1744425115316,252.23803230586336 427.2084081535849,283.8569120530498 391.07254558537176,319.992774621263 C 354.9366830171586,283.8569120530498 363.9706486592119,252.23803230586336 391.07254558537176,229.65311820073015 Z" fill="url(#leaf7)" opacity="0.16" transform="rotate(309.9 391.1 274.8)"/>
    <path d="M 407.9175741603292,591.0803407814202 C 426.03838707328487,606.1810182088833 432.0786580442701,627.3219666073317 407.9175741603292,651.4830504912726 C 383.75649027638826,627.3219666073317 389.7967612473735,606.1810182088833 407.9175741603292,591.0803407814202 Z" fill="url(#leaf8)" opacity="0.24" transform="rotate(186.3 407.9 621.3)"/>
    <path d="M 683.0590195446391,418.7778893321598 C 726.9079495374814,455.3186643261951 741.5242595350956,506.4757493178445 683.0590195446391,564.9409893083009 C 624.5937795541827,506.4757493178445 639.2100895517968,455.3186643261951 683.0590195446391,418.7778893321598 Z" fill="url(#leaf9)" opacity="0.22" transform="rotate(25.6 683.1 491.9)"/>
    <path d="M 742.1580951304995,816.6376362231952 C 771.8954117425056,841.4187333998669 781.8078506131743,876.1122694472073 742.1580951304995,915.762024929882 C 702.5083396478248,876.1122694472073 712.4207785184934,841.4187333998669 742.1580951304995,816.6376362231952 Z" fill="url(#leaf10)" opacity="0.16" transform="rotate(355.9 742.2 866.2)"/>
    <path d="M 883.6458241482095,649.1760874039028 C 914.9359261453227,675.2511724014971 925.3659601443604,711.7562913981292 883.6458241482095,753.4764273942801 C 841.9256881520586,711.7562913981292 852.3557221510963,675.2511724014971 883.6458241482095,649.1760874039028 Z" fill="url(#leaf11)" opacity="0.24" transform="rotate(235.0 883.6 701.3)"/>
    <path d="M 1801.2756065534963,52.94951984810535 C 1837.6236691929764,83.23957204767206 1849.7396900728031,125.64564512706544 1801.2756065534963,174.10972864637216 C 1752.8115230341896,125.64564512706544 1764.9275439140163,83.23957204767206 1801.2756065534963,52.94951984810535 Z" fill="url(#leaf12)" opacity="0.18" transform="rotate(11.3 1801.3 113.5)"/>
    <path d="M 1816.636617898514,255.92697493662683 C 1847.12068910499,281.3303676086902 1857.2820461738154,316.8951173495789 1816.636617898514,357.54054562488034 C 1775.9911896232127,316.8951173495789 1786.152546692038,281.3303676086902 1816.636617898514,255.92697493662683 Z" fill="url(#leaf13)" opacity="0.17" transform="rotate(346.6 1816.6 306.7)"/>
    <path d="M 1166.502889431154,534.9622893267481 C 1185.0887098310259,550.450472993308 1191.28398329765,572.133930126492 1166.502889431154,596.9150239929879 C 1141.7217955646581,572.133930126492 1147.9170690312822,550.450472993308 1166.502889431154,534.9622893267481 Z" fill="url(#leaf14)" opacity="0.21" transform="rotate(44.2 1166.5 565.9)"/>
    <path d="M 1046.2138649958124,545.9593843261085 C 1075.52225955637,570.3830464599066 1085.2917244098894,604.5761734472239 1046.2138649958124,643.6540328613008 C 1007.1360055817355,604.5761734472239 1016.9054704352548,570.3830464599066 1046.2138649958124,545.9593843261085 Z" fill="url(#leaf15)" opacity="0.25" transform="rotate(92.5 1046.2 594.8)"/>
    <path d="M 51.31550599598514,429.259265383138 C 98.58487442691299,468.6504057422445 114.34133057055561,523.7980022449937 51.31550599598514,586.8238268195641 C -11.710318578585323,523.7980022449937 4.0461375650573,468.6504057422445 51.31550599598514,429.259265383138 Z" fill="url(#leaf16)" opacity="0.15" transform="rotate(346.6 51.3 508.0)"/>
    <path d="M 1322.0330101436025,893.9867228808554 C 1350.2384282525184,917.4912379716187 1359.6402342888236,950.3975590986872 1322.0330101436025,988.0047832439085 C 1284.4257859983813,950.3975590986872 1293.8275920346866,917.4912379716187 1322.0330101436025,893.9867228808554 Z" fill="url(#leaf17)" opacity="0.21" transform="rotate(117.2 1322.0 941.0)"/>
    <path d="M 1315.2355432458723,900.9398329177237 C 1362.8211571678205,940.5945111860138 1378.6830284751366,996.11106076162 1315.2355432458723,1059.558545990884 C 1251.7880580166081,996.11106076162 1267.6499293239242,940.5945111860138 1315.2355432458723,900.9398329177237 Z" fill="url(#leaf18)" opacity="0.19" transform="rotate(217.3 1315.2 980.2)"/>
    <path d="M 958.5656969985018,600.7278783846332 C 1003.7971474502957,638.420753761128 1018.8742976008936,691.1907792882208 958.5656969985018,751.4993798906125 C 898.2570963961101,691.1907792882208 913.334246546708,638.420753761128 958.5656969985018,600.7278783846332 Z" fill="url(#leaf19)" opacity="0.21" transform="rotate(44.2 958.6 676.1)"/>
    <path d="M 1081.3389340181518,238.5594694507658 C 1105.5324565759126,258.72073824889975 1113.5969640951662,286.9465145662873 1081.3389340181518,319.20454464330163 C 1049.0809039411374,286.9465145662873 1057.145411460391,258.72073824889975 1081.3389340181518,238.5594694507658 Z" fill="url(#leaf20)" opacity="0.20" transform="rotate(269.7 1081.3 278.9)"/>
    <path d="M 1256.7182183081547,939.1997972942311 C 1295.1934795035186,971.2625149570342 1308.01856656864,1016.1503196849587 1256.7182183081547,1067.450667945444 C 1205.4178700476696,1016.1503196849587 1218.242957112791,971.2625149570342 1256.7182183081547,939.1997972942311 Z" fill="url(#leaf21)" opacity="0.23" transform="rotate(81.8 1256.7 1003.3)"/>
    <path d="M 1753.9376679011089,954.6214427631901 C 1774.7761447945245,971.9868401743698 1781.7223037589965,996.2983965500215 1753.9376679011089,1024.083032407909 C 1726.1530320432212,996.2983965500215 1733.0991910076932,971.9868401743698 1753.9376679011089,954.6214427631901 Z" fill="url(#leaf22)" opacity="0.16" transform="rotate(92.6 1753.9 989.4)"/>
    <path d="M 1434.4197433959794,483.44635978993807 C 1467.2868097161163,510.83558172338553 1478.2424984894953,549.1804924302121 1434.4197433959794,593.0032475237281 C 1390.5969883024634,549.1804924302121 1401.5526770758424,510.83558172338553 1434.4197433959794,483.44635978993807 Z" fill="url(#leaf23)" opacity="0.16" transform="rotate(211.0 1434.4 538.2)"/>
    <path d="M 1202.2659736731475,80.37119580192143 C 1245.6359028824727,116.51280347635907 1260.0925459522477,167.11105422057176 1202.2659736731475,224.93762649967198 C 1144.4394013940473,167.11105422057176 1158.8960444638224,116.51280347635907 1202.2659736731475,80.37119580192143 Z" fill="url(#leaf24)" opacity="0.16" transform="rotate(207.8 1202.3 152.7)"/>
    <path d="M 1556.0257528162347,891.4504940854242 C 1578.5503289993455,910.2209742380165 1586.0585210603824,936.499646451646 1556.0257528162347,966.5324146957937 C 1525.992984572087,936.499646451646 1533.5011766331238,910.2209742380165 1556.0257528162347,891.4504940854242 Z" fill="url(#leaf25)" opacity="0.23" transform="rotate(127.5 1556.0 929.0)"/>
    <path d="M 1670.1945598478565,215.3975078535339 C 1697.7359132713434,238.34863570643964 1706.9163644125056,270.48021470050764 1670.1945598478565,307.2020192651568 C 1633.4727552832073,270.48021470050764 1642.6532064243695,238.34863570643964 1670.1945598478565,215.3975078535339 Z" fill="url(#leaf26)" opacity="0.22" transform="rotate(311.4 1670.2 261.3)"/>
    <path d="M 245.29153961417924,736.8916781693547 C 269.4111736583234,756.9913732061415 277.45105167303814,785.130946257643 245.29153961417924,817.2904583165018 C 213.13202755532035,785.130946257643 221.17190557003508,756.9913732061415 245.29153961417924,736.8916781693547 Z" fill="url(#leaf27)" opacity="0.20" transform="rotate(179.2 245.3 777.1)"/>
    <path d="M 1555.9683137504333,129.4286950380545 C 1588.195354992349,156.28456273965094 1598.9377020729876,193.88277752188588 1555.9683137504333,236.85216584444015 C 1512.998925427879,193.88277752188588 1523.7412725085176,156.28456273965094 1555.9683137504333,129.4286950380545 Z" fill="url(#leaf28)" opacity="0.21" transform="rotate(219.4 1556.0 183.1)"/>
    <path d="M 1854.7458294483597,257.5096028292352 C 1884.8823547136162,282.6233738836156 1894.9278631353684,317.7826533597482 1854.7458294483597,357.9646870467569 C 1814.563795761351,317.7826533597482 1824.6093041831032,282.6233738836156 1854.7458294483597,257.5096028292352 Z" fill="url(#leaf29)" opacity="0.24" transform="rotate(6.5 1854.7 307.7)"/>
    <path d="M 143.23906928503214,152.15093185486097 C 180.4554825536243,183.1646095786878 192.86095364315503,226.5837583920453 143.23906928503214,276.2056427501682 C 93.61718492690926,226.5837583920453 106.02265601643998,183.1646095786878 143.23906928503214,152.15093185486097 Z" fill="url(#leaf0)" opacity="0.22" transform="rotate(247.6 143.2 214.2)"/>
    <path d="M 1154.4721348648736,569.1392529235222 C 1183.2708507583898,593.1381828347855 1192.870422722895,626.7366847105543 1154.4721348648736,665.1349725685757 C 1116.0738470068522,626.7366847105543 1125.6734189713575,593.1381828347855 1154.4721348648736,569.1392529235222 Z" fill="url(#leaf1)" opacity="0.19" transform="rotate(282.0 1154.5 617.1)"/>
    <path d="M 1032.7936620765363,119.46458865952101 C 1080.2934035983833,159.04770659439345 1096.1266507723321,214.4640717032148 1032.7936620765363,277.79706039901066 C 969.4606733807404,214.4640717032148 985.2939205546894,159.04770659439345 1032.7936620765363,119.46458865952101 Z" fill="url(#leaf2)" opacity="0.18" transform="rotate(22.9 1032.8 198.6)"/>
    <path d="M 684.2497766566797,392.6943401606207 C 711.7847164327264,415.64012330732635 720.9630296914087,447.7642197127142 684.2497766566797,484.4774727474432 C 647.5365236219508,447.7642197127142 656.714836880633,415.64012330732635 684.2497766566797,392.6943401606207 Z" fill="url(#leaf3)" opacity="0.16" transform="rotate(229.1 684.2 438.6)"/>
    <path d="M 1293.6185716585721,615.1308998356673 C 1317.5259434992374,635.0537097028883 1325.4950674461259,662.9456435169978 1293.6185716585721,694.8221393045516 C 1261.7420758710184,662.9456435169978 1269.7111998179068,635.0537097028883 1293.6185716585721,615.1308998356673 Z" fill="url(#leaf4)" opacity="0.16" transform="rotate(59.5 1293.6 655.0)"/>
    <path d="M 682.4185893739592,525.6050234539351 C 701.659108012329,541.6387889859101 708.072614225119,564.0860607306748 682.4185893739592,589.7400855818347 C 656.7645645227994,564.0860607306748 663.1780707355894,541.6387889859101 682.4185893739592,525.6050234539351 Z" fill="url(#leaf5)" opacity="0.20" transform="rotate(274.6 682.4 557.7)"/>
    <path d="M 597.7244453380763,800.627235471736 C 636.0338656876124,832.5517524296828 648.8036724707912,877.2460761708084 597.7244453380763,928.3253033035232 C 546.6452182053614,877.2460761708084 559.4150249885402,832.5517524296828 597.7244453380763,800.627235471736 Z" fill="url(#leaf6)" opacity="0.21" transform="rotate(310.2 597.7 864.5)"/>
    <path d="M 1212.402665636918,236.9798283100289 C 1241.7416893832951,261.4290147653431 1251.5213639654207,295.65787580278294 1212.402665636918,334.77657413128566 C 1173.2839673084154,295.65787580278294 1183.063641890541,261.4290147653431 1212.402665636918,236.9798283100289 Z" fill="url(#leaf7)" opacity="0.17" transform="rotate(281.6 1212.4 285.9)"/>
    <path d="M 1821.4397256130196,494.88922864740925 C 1856.2011893854547,523.8571151244385 1867.7883439762663,564.4121561922793 1821.4397256130196,610.760774555526 C 1775.091107249773,564.4121561922793 1786.6782618405846,523.8571151244385 1821.4397256130196,494.88922864740925 Z" fill="url(#leaf8)" opacity="0.21" transform="rotate(131.0 1821.4 552.8)"/>
    <path d="M 1083.967917851324,901.3435977793378 C 1103.2974469562573,917.4515387001155 1109.7406233245686,940.0026559892044 1083.967917851324,965.7753614624488 C 1058.1952123780795,940.0026559892044 1064.6383887463908,917.4515387001155 1083.967917851324,901.3435977793378 Z" fill="url(#leaf9)" opacity="0.15" transform="rotate(137.8 1084.0 933.6)"/>
    <path d="M 434.38494707688864,252.90630510771558 C 476.8620253783105,288.30387035890044 491.02105147878444,337.8604617105593 434.38494707688864,394.4965661124551 C 377.74884267499283,337.8604617105593 391.9078687754668,288.30387035890044 434.38494707688864,252.90630510771558 Z" fill="url(#leaf10)" opacity="0.15" transform="rotate(107.0 434.4 323.7)"/>
    <path d="M 534.7642719780802,247.624841950163 C 565.8560824449485,273.53468400588656 576.2200192672378,309.8084628838995 534.7642719780802,351.26421017305717 C 493.3085246889225,309.8084628838995 503.6724615112119,273.53468400588656 534.7642719780802,247.624841950163 Z" fill="url(#leaf11)" opacity="0.19" transform="rotate(32.1 534.8 299.4)"/>
    <path d="M 1753.6714449487656,898.0154336380117 C 1795.2742321742662,932.6844229925955 1809.1418279160996,981.2210080890128 1753.6714449487656,1036.691391056347 C 1698.2010619814316,981.2210080890128 1712.068657723265,932.6844229925955 1753.6714449487656,898.0154336380117 Z" fill="url(#leaf12)" opacity="0.19" transform="rotate(187.3 1753.7 967.4)"/>
    <path d="M 1234.3302991840942,428.75115187554206 C 1253.2060699818073,444.4809608736363 1259.497993581045,466.5026934709683 1234.3302991840942,491.6703878679192 C 1209.1626047871434,466.5026934709683 1215.454528386381,444.4809608736363 1234.3302991840942,428.75115187554206 Z" fill="url(#leaf13)" opacity="0.19" transform="rotate(331.9 1234.3 460.2)"/>
    <path d="M 604.021329218734,326.260950520619 C 637.9685771435722,354.5503237913176 649.2843264518517,394.1554463702957 604.021329218734,439.41844360341344 C 558.7583319856162,394.1554463702957 570.0740812938957,354.5503237913176 604.021329218734,326.260950520619 Z" fill="url(#leaf14)" opacity="0.15" transform="rotate(284.2 604.0 382.8)"/>
    <path d="M 198.6494985848145,528.5237138580019 C 234.28592528260322,558.2207361061592 246.16473418186612,599.7965672535794 198.6494985848145,647.311802850631 C 151.13426298776287,599.7965672535794 163.01307188702577,558.2207361061592 198.6494985848145,528.5237138580019 Z" fill="url(#leaf15)" opacity="0.15" transform="rotate(134.0 198.6 587.9)"/>
    <path d="M 1537.7277205811167,265.32427955321634 C 1579.7150554593934,300.3137252851135 1593.7108337521522,349.2989493097695 1537.7277205811167,405.28206248080494 C 1481.7446074100812,349.2989493097695 1495.74038570284,300.3137252851135 1537.7277205811167,265.32427955321634 Z" fill="url(#leaf16)" opacity="0.18" transform="rotate(258.2 1537.7 335.3)"/>
    <path d="M 1188.532616227096,227.10151001979406 C 1219.2946264279865,252.7365185205361 1229.5486298282833,288.625530421575 1188.532616227096,329.6415440227623 C 1147.5166026259087,288.625530421575 1157.7706060262055,252.7365185205361 1188.532616227096,227.10151001979406 Z" fill="url(#leaf17)" opacity="0.24" transform="rotate(271.9 1188.5 278.4)"/>
    <path d="M 1205.6130637158535,605.0824792995403 C 1244.068013703471,637.1282709558883 1256.8863303660103,681.9923792747755 1205.6130637158535,733.2656459249323 C 1154.3397970656968,681.9923792747755 1167.158113728236,637.1282709558883 1205.6130637158535,605.0824792995403 Z" fill="url(#leaf18)" opacity="0.23" transform="rotate(352.8 1205.6 669.2)"/>
    <path d="M 1679.8758660639146,290.9091355758438 C 1726.6036844191806,329.8489842052321 1742.179623870936,384.36477228637585 1679.8758660639146,446.66853009339724 C 1617.5721082568932,384.36477228637585 1633.1480477086486,329.8489842052321 1679.8758660639146,290.9091355758438 Z" fill="url(#leaf19)" opacity="0.18" transform="rotate(257.9 1679.9 368.8)"/>
    <path d="M 408.5313213982366,122.85342946112252 C 429.836282030542,140.607563321377 436.9379355746438,165.46335072573328 408.5313213982366,193.86996490214045 C 380.12470722182945,165.46335072573328 387.22636076593125,140.607563321377 408.5313213982366,122.85342946112252 Z" fill="url(#leaf20)" opacity="0.15" transform="rotate(214.8 408.5 158.4)"/>
    <path d="M 1140.8450773976442,464.95286310996494 C 1159.6583959467325,480.6306285675386 1165.929502129762,502.5795002081418 1140.8450773976442,527.6639249402597 C 1115.7606526655263,502.5795002081418 1122.031758848556,480.6306285675386 1140.8450773976442,464.95286310996494 Z" fill="url(#leaf21)" opacity="0.18" transform="rotate(133.1 1140.8 496.3)"/>
    <path d="M 1433.4719830901015,292.8972048278357 C 1476.5783202558075,328.819152465924 1490.9470993110428,379.1098791592476 1433.4719830901015,436.58499538018884 C 1375.9968668691602,379.1098791592476 1390.3656459243955,328.819152465924 1433.4719830901015,292.8972048278357 Z" fill="url(#leaf22)" opacity="0.20" transform="rotate(191.9 1433.5 364.7)"/>
    <path d="M 242.96103508743846,49.50923742174141 C 265.6917525213523,68.45150195000298 273.26865833265697,94.97067228956918 242.96103508743846,125.2782955347877 C 212.65341184221995,94.97067228956918 220.23031765352457,68.45150195000298 242.96103508743846,49.50923742174141 Z" fill="url(#leaf23)" opacity="0.17" transform="rotate(98.2 243.0 87.4)"/>
    <path d="M 424.7114908669951,166.989991191055 C 451.8638977592343,189.61699693458763 460.91470005664735,221.29480497553337 424.7114908669951,257.4980141651856 C 388.5082816773429,221.29480497553337 397.55908397475594,189.61699693458763 424.7114908669951,166.989991191055 Z" fill="url(#leaf24)" opacity="0.22" transform="rotate(312.7 424.7 212.2)"/>
    <path d="M 105.78351901280737,71.63283306456327 C 151.42258392532736,109.66538715832993 166.63560556283403,162.91096288960327 105.78351901280737,223.76304943962992 C 44.93143246278071,162.91096288960327 60.14445410028738,109.66538715832993 105.78351901280737,71.63283306456327 Z" fill="url(#leaf25)" opacity="0.17" transform="rotate(114.5 105.8 147.7)"/>
    <path d="M 765.4141028809603,539.801767974345 C 789.2093457233539,559.631137009673 797.141093337485,587.3922536591322 765.4141028809603,619.119244115657 C 733.6871124244356,587.3922536591322 741.6188600385667,559.631137009673 765.4141028809603,539.801767974345 Z" fill="url(#leaf26)" opacity="0.20" transform="rotate(190.1 765.4 579.5)"/>
    <path d="M 1232.2066904704684,453.20369621814245 C 1278.5441282994657,491.8182277423068 1293.9899409091313,545.8785718761369 1232.2066904704684,607.6618223147999 C 1170.4234400318055,545.8785718761369 1185.8692526414711,491.8182277423068 1232.2066904704684,453.20369621814245 Z" fill="url(#leaf27)" opacity="0.17" transform="rotate(183.8 1232.2 530.4)"/>
    <path d="M 1466.4787795550312,16.60813772825452 C 1513.6684236407584,55.93284113302724 1529.3983050026675,110.98742589970905 1466.4787795550312,173.9069513473454 C 1403.559254107395,110.98742589970905 1419.289135469304,55.93284113302724 1466.4787795550312,16.60813772825452 Z" fill="url(#leaf28)" opacity="0.18" transform="rotate(28.2 1466.5 95.3)"/>
    <path d="M 1394.9888938345973,498.14560781629376 C 1422.087626912983,520.7278853816151 1431.1205379391115,552.3430739730651 1394.9888938345973,588.4747180775794 C 1358.8572497300831,552.3430739730651 1367.8901607562116,520.7278853816151 1394.9888938345973,498.14560781629376 Z" fill="url(#leaf29)" opacity="0.17" transform="rotate(126.0 1395.0 543.3)"/>
    <path d="M 538.1584544668592,920.2758105325189 C 568.5843020631737,945.6306835294477 578.7262512619452,981.1275057251479 538.1584544668592,1021.6953025202339 C 497.5906576717732,981.1275057251479 507.7326068705447,945.6306835294477 538.1584544668592,920.2758105325189 Z" fill="url(#leaf0)" opacity="0.20" transform="rotate(202.9 538.2 971.0)"/>
    <path d="M 657.6054214020966,523.18335860186 C 691.643296895091,551.5482548460221 702.9892553927558,591.2591095878489 657.6054214020966,636.6429435785082 C 612.2215874114373,591.2591095878489 623.5675459091021,551.5482548460221 657.6054214020966,523.18335860186 Z" fill="url(#leaf1)" opacity="0.16" transform="rotate(340.7 657.6 579.9)"/>
    <path d="M 800.8358384971475,970.79939229349 C 826.7533971756851,992.397357858938 835.3925834018643,1022.6345096505652 800.8358384971475,1057.191254555282 C 766.2790935924307,1022.6345096505652 774.9182798186099,992.397357858938 800.8358384971475,970.79939229349 Z" fill="url(#leaf2)" opacity="0.16" transform="rotate(253.7 800.8 1014.0)"/>
    <path d="M 1665.2183945802278,223.30634675905952 C 1699.9418681959326,252.24257477214675 1711.5163594011674,292.7532939904689 1665.2183945802278,339.05125881140845 C 1618.9204297592883,292.7532939904689 1630.494920964523,252.24257477214675 1665.2183945802278,223.30634675905952 Z" fill="url(#leaf3)" opacity="0.22" transform="rotate(19.7 1665.2 281.2)"/>
    <path d="M 1257.912501610307,378.3664080045833 C 1299.8039923319507,413.2759836059531 1313.7678225724985,462.1493894478709 1257.912501610307,518.0047104100627 C 1202.0571806481153,462.1493894478709 1216.021010888663,413.2759836059531 1257.912501610307,378.3664080045833 Z" fill="url(#leaf4)" opacity="0.23" transform="rotate(65.3 1257.9 448.2)"/>
    <path d="M 430.26533790292314,132.886309187507 C 451.45290576850886,150.54261574216181 458.5154283903708,175.2614449186785 430.26533790292314,203.51153540612617 C 402.01524741547547,175.2614449186785 409.0777700373374,150.54261574216181 430.26533790292314,132.886309187507 Z" fill="url(#leaf5)" opacity="0.23" transform="rotate(102.4 430.3 168.2)"/>
    <path d="M 55.55643931444647,446.1306914671132 C 100.54133703401672,483.6181062334217 115.53630294054014,536.1004869062538 55.55643931444647,596.0803505323474 C -4.423424311647203,536.1004869062538 10.571541594876216,483.6181062334217 55.55643931444647,446.1306914671132 Z" fill="url(#leaf6)" opacity="0.21" transform="rotate(197.0 55.6 521.1)"/>
    <path d="M 1837.1198615744604,809.30896495814 C 1869.939227564905,836.6584366168438 1880.8790162283865,874.9476969390291 1837.1198615744604,918.7068515929552 C 1793.3607069205343,874.9476969390291 1804.3004955840158,836.6584366168438 1837.1198615744604,809.30896495814 Z" fill="url(#leaf7)" opacity="0.15" transform="rotate(91.2 1837.1 864.0)"/>
    <path d="M 475.28395079364964,435.1339514819852 C 500.48416993009283,456.13413409568784 508.8842429755739,485.5343897548716 475.28395079364964,519.1346819367959 C 441.6836586117254,485.5343897548716 450.08373165720644,456.13413409568784 475.28395079364964,435.1339514819852 Z" fill="url(#leaf8)" opacity="0.24" transform="rotate(70.9 475.3 477.1)"/>
    <path d="M 1775.6586371472376,295.18952459340323 C 1819.0894187395952,331.38184258703444 1833.5663459370476,382.05108777811813 1775.6586371472376,439.95879656792806 C 1717.7509283574277,382.05108777811813 1732.22785555488,331.38184258703444 1775.6586371472376,295.18952459340323 Z" fill="url(#leaf9)" opacity="0.23" transform="rotate(213.1 1775.7 367.6)"/>
    <path d="M 1850.447699459486,816.0296624717739 C 1896.403954722041,854.3265418572363 1911.722706476226,907.9421729968836 1850.447699459486,969.2171800136234 C 1789.1726924427462,907.9421729968836 1804.4914441969313,854.3265418572363 1850.447699459486,816.0296624717739 Z" fill="url(#leaf10)" opacity="0.22" transform="rotate(54.5 1850.4 892.6)"/>
    <path d="M 1814.7579006423648,49.07039847427447 C 1846.1516974810693,75.23189583986152 1856.6162964273042,111.85799215168339 1814.7579006423648,153.71638793662268 C 1772.8995048574254,111.85799215168339 1783.3641038036603,75.23189583986152 1814.7579006423648,49.07039847427447 Z" fill="url(#leaf11)" opacity="0.22" transform="rotate(81.6 1814.8 101.4)"/>
    <path d="M 1649.3688949067305,547.624721046575 C 1680.630139355303,573.6757580870521 1691.0505541714938,610.1472099437201 1649.3688949067305,651.8288692084835 C 1607.6872356419672,610.1472099437201 1618.1076504581579,573.6757580870521 1649.3688949067305,547.624721046575 Z" fill="url(#leaf12)" opacity="0.15" transform="rotate(201.0 1649.4 599.7)"/>
    <path d="M 116.54935214077318,827.5577771831662 C 158.74395584328315,862.7199469352579 172.80882374411982,911.9469845881862 116.54935214077318,968.2064561915328 C 60.28988053742655,911.9469845881862 74.35474843826321,862.7199469352579 116.54935214077318,827.5577771831662 Z" fill="url(#leaf13)" opacity="0.17" transform="rotate(232.6 116.5 897.9)"/>
    <path d="M 1245.9490580013214,853.6220372224388 C 1290.8105301706244,891.0065973635246 1305.7643542270584,943.3449815610446 1245.9490580013214,1003.1602777867818 C 1186.1337617755844,943.3449815610446 1201.0875858320185,891.0065973635246 1245.9490580013214,853.6220372224388 Z" fill="url(#leaf14)" opacity="0.23" transform="rotate(333.4 1245.9 928.4)"/>
    <path d="M 684.8570461259986,720.2902187593469 C 705.4489958181458,737.4501768361362 712.3129790488616,761.4741181436412 684.8570461259986,788.9300510665042 C 657.4011132031357,761.4741181436412 664.2650964338515,737.4501768361362 684.8570461259986,720.2902187593469 Z" fill="url(#leaf15)" opacity="0.25" transform="rotate(221.2 684.9 754.6)"/>
    <path d="M 1813.4478186287395,789.0709837334873 C 1851.8145215410873,821.0432361604438 1864.6034225118701,865.8043895581831 1813.4478186287395,916.9599934413136 C 1762.2922147456088,865.8043895581831 1775.0811157163917,821.0432361604438 1813.4478186287395,789.0709837334873 Z" fill="url(#leaf16)" opacity="0.18" transform="rotate(218.0 1813.4 853.0)"/>
    <path d="M 671.7551120317709,621.216618482673 C 715.3484610862104,657.5444093613726 729.8795774376903,708.403316591552 671.7551120317709,766.5277819974714 C 613.6306466258515,708.403316591552 628.1617629773314,657.5444093613726 671.7551120317709,621.216618482673 Z" fill="url(#leaf17)" opacity="0.20" transform="rotate(245.4 671.8 693.9)"/>
    <path d="M 1824.2842558978389,115.31051926018864 C 1855.1072744851922,140.99636808298303 1865.38161401431,176.95655643489516 1824.2842558978389,218.05391455136618 C 1783.1868977813679,176.95655643489516 1793.4612373104856,140.99636808298303 1824.2842558978389,115.31051926018864 Z" fill="url(#leaf18)" opacity="0.16" transform="rotate(168.2 1824.3 166.7)"/>
    <path d="M 1012.826297509226,148.85859237851992 C 1056.5887738615113,185.32732267209104 1071.17626597894,236.3835450830906 1012.826297509226,294.7335135528044 C 954.4763290395123,236.3835450830906 969.0638211569407,185.32732267209104 1012.826297509226,148.85859237851992 Z" fill="url(#leaf19)" opacity="0.19" transform="rotate(253.4 1012.8 221.8)"/>
    <path d="M 1691.857596862518,580.7794750152088 C 1728.5001702082873,611.3149528033499 1740.7143613235437,654.0646217067474 1691.857596862518,702.9213861677731 C 1643.0008324014923,654.0646217067474 1655.2150235167487,611.3149528033499 1691.857596862518,580.7794750152088 Z" fill="url(#leaf20)" opacity="0.22" transform="rotate(208.7 1691.9 641.9)"/>
    <path d="M 91.20061828773439,535.7198430797712 C 128.629326728951,566.9104334474516 141.1055628760232,610.5772599622044 91.20061828773439,660.4822045504932 C 41.295673699445565,610.5772599622044 53.77190984651777,566.9104334474516 91.20061828773439,535.7198430797712 Z" fill="url(#leaf21)" opacity="0.21" transform="rotate(346.8 91.2 598.1)"/>
    <path d="M 1791.0652125544805,868.15999178185 C 1811.1267470238695,884.8779371730075 1817.8139251803327,908.2830607206281 1791.0652125544805,935.0317733464802 C 1764.3164999286282,908.2830607206281 1771.0036780850915,884.8779371730075 1791.0652125544805,868.15999178185 Z" fill="url(#leaf22)" opacity="0.19" transform="rotate(61.1 1791.1 901.6)"/>
    <path d="M 1103.5282944070937,919.458078947763 C 1144.9437035668211,953.9709199142026 1158.7488399533968,1002.2888972672179 1103.5282944070937,1057.509442813521 C 1048.3077488607905,1002.2888972672179 1062.1128852473662,953.9709199142026 1103.5282944070937,919.458078947763 Z" fill="url(#leaf23)" opacity="0.21" transform="rotate(92.7 1103.5 988.5)"/>
    <path d="M 555.4702024040844,494.9047834268845 C 591.1970279320209,524.6771380334983 603.1059697746664,566.3584344827575 555.4702024040844,613.9942018533395 C 507.83443503350236,566.3584344827575 519.7433768761479,524.6771380334983 555.4702024040844,494.9047834268845 Z" fill="url(#leaf24)" opacity="0.19" transform="rotate(173.9 555.5 554.4)"/>
    <path d="M 1000.3372636372552,67.30529464694523 C 1045.162824707598,104.65992887223095 1060.1046783977124,156.95641678763099 1000.3372636372552,216.72383154808813 C 940.569848876798,156.95641678763099 955.5117025669124,104.65992887223095 1000.3372636372552,67.30529464694523 Z" fill="url(#leaf25)" opacity="0.16" transform="rotate(302.0 1000.3 142.0)"/>
    <path d="M 691.684707651394,462.8006981991613 C 730.0168215894844,494.7441264809033 742.7941929021812,539.4649260753421 691.684707651394,590.5744113261293 C 640.5752224006068,539.4649260753421 653.3525937133036,494.7441264809033 691.684707651394,462.8006981991613 Z" fill="url(#leaf26)" opacity="0.22" transform="rotate(309.1 691.7 526.7)"/>
    <path d="M 1673.1249468665865,841.9367976094123 C 1705.6261547342147,869.0211374991026 1716.4598906900908,906.9392133446689 1673.1249468665865,950.2741571681732 C 1629.7900030430822,906.9392133446689 1640.6237389989583,869.0211374991026 1673.1249468665865,841.9367976094123 Z" fill="url(#leaf27)" opacity="0.19" transform="rotate(123.0 1673.1 896.1)"/>
    <path d="M 1191.4021595615031,717.506381987015 C 1232.0171004133572,751.3521660302267 1245.555414030642,798.736263690723 1191.4021595615031,852.8895181598618 C 1137.2489050923643,798.736263690723 1150.787218709649,751.3521660302267 1191.4021595615031,717.506381987015 Z" fill="url(#leaf28)" opacity="0.16" transform="rotate(286.1 1191.4 785.2)"/>
    <path d="M 1508.456437416648,135.48915462101732 C 1540.2508351414604,161.98448605836091 1550.8489677163977,199.07795007064198 1508.456437416648,241.47048037039175 C 1466.0639071168982,199.07795007064198 1476.6620396918356,161.98448605836091 1508.456437416648,135.48915462101732 Z" fill="url(#leaf29)" opacity="0.15" transform="rotate(54.2 1508.5 188.5)"/>
    <path d="M 385.87873508274976,251.7847871292861 C 418.61573383504077,279.0656194228619 429.52806675247115,317.2587846338681 385.87873508274976,360.9081163035895 C 342.22940341302836,317.2587846338681 353.14173633045874,279.0656194228619 385.87873508274976,251.7847871292861 Z" fill="url(#leaf0)" opacity="0.17" transform="rotate(206.2 385.9 306.3)"/>
    <path d="M 124.63194884358238,864.4121584665451 C 168.6759787597559,901.1155167300229 183.3573220651471,952.500218298892 124.63194884358238,1011.2255915204568 C 65.90657562201767,952.500218298892 80.58791892740885,901.1155167300229 124.63194884358238,864.4121584665451 Z" fill="url(#leaf1)" opacity="0.18" transform="rotate(62.7 124.6 937.8)"/>
    <path d="M 967.4350889480835,533.8528132544405 C 1005.1069668575363,565.2460448456513 1017.6642594940206,609.1965690733463 967.4350889480835,659.4257396192835 C 917.2059184021464,609.1965690733463 929.7632110386306,565.2460448456513 967.4350889480835,533.8528132544405 Z" fill="url(#leaf2)" opacity="0.17" transform="rotate(310.8 967.4 596.6)"/>
    <path d="M 152.76560474304313,701.9507150970071 C 199.66034471487768,741.0296650735359 215.2919247054892,795.7401950406762 152.76560474304313,858.2665150031223 C 90.23928478059705,795.7401950406762 105.87086477120857,741.0296650735359 152.76560474304313,701.9507150970071 Z" fill="url(#leaf3)" opacity="0.15" transform="rotate(210.8 152.8 780.1)"/>
    <path d="M 427.9580275079118,12.924723776750476 C 450.5800261310149,31.77638929600306 458.12069233871597,58.16872102295668 427.9580275079118,88.33138585376082 C 397.7953626771077,58.16872102295668 405.33602888480874,31.77638929600306 427.9580275079118,12.924723776750476 Z" fill="url(#leaf4)" opacity="0.17" transform="rotate(230.1 428.0 50.6)"/>
    <path d="M 337.99265123730197,407.7905956971969 C 380.29600621322703,443.0433915104678 394.39712453853537,492.397305649047 337.99265123730197,548.8017789502803 C 281.5881779360686,492.397305649047 295.6892962613769,443.0433915104678 337.99265123730197,407.7905956971969 Z" fill="url(#leaf5)" opacity="0.22" transform="rotate(219.5 338.0 478.3)"/>
    <path d="M 854.5545962249981,923.163058329055 C 897.1941070134915,958.6959839861328 911.4072772763226,1008.4420799060417 854.5545962249981,1065.2947609573662 C 797.7019151736737,1008.4420799060417 811.9150854365048,958.6959839861328 854.5545962249981,923.163058329055 Z" fill="url(#leaf6)" opacity="0.22" transform="rotate(273.2 854.6 994.2)"/>
    <path d="M 1128.586761938069,346.8488739692597 C 1149.5462074922482,364.3150785977424 1156.5326893436413,388.7677650776182 1128.586761938069,416.7136924831905 C 1100.6408345324967,388.7677650776182 1107.6273163838898,364.3150785977424 1128.586761938069,346.8488739692597 Z" fill="url(#leaf7)" opacity="0.16" transform="rotate(341.4 1128.6 381.8)"/>
    <path d="M 759.2687717288312,115.95859152718462 C 783.890412055727,136.47662513293108 792.0976254980255,165.20187218097612 759.2687717288312,198.03072595017045 C 726.4399179596369,165.20187218097612 734.6471314019354,136.47662513293108 759.2687717288312,115.95859152718462 Z" fill="url(#leaf8)" opacity="0.17" transform="rotate(345.1 759.3 157.0)"/>
    <path d="M 673.7681145968305,409.2416703828429 C 700.2885622348946,431.342043414563 709.1287114475826,462.2825656589712 673.7681145968305,497.6431625097233 C 638.4075177460784,462.2825656589712 647.2476669587664,431.342043414563 673.7681145968305,409.2416703828429 Z" fill="url(#leaf9)" opacity="0.17" transform="rotate(73.9 673.8 453.4)"/>
    <path d="M 120.15488727193747,807.9455453861383 C 141.0677181696333,825.3729044675515 148.0386618021986,849.77120718153 120.15488727193747,877.6549817117912 C 92.27111274167635,849.77120718153 99.24205637424163,825.3729044675515 120.15488727193747,807.9455453861383 Z" fill="url(#leaf10)" opacity="0.18" transform="rotate(301.6 120.2 842.8)"/>
    <path d="M 1684.2539206164145,669.610345492991 C 1703.2076451792677,685.4051159620353 1709.5255533668856,707.5177946186975 1684.2539206164145,732.7894273691686 C 1658.9822878659434,707.5177946186975 1665.3001960535612,685.4051159620353 1684.2539206164145,669.610345492991 Z" fill="url(#leaf11)" opacity="0.16" transform="rotate(218.8 1684.3 701.2)"/>
    <path d="M 794.2947485014861,934.3267718209183 C 817.1524948848855,953.3748938070845 824.771743679352,980.0422645877171 794.2947485014861,1010.519259765583 C 763.8177533236202,980.0422645877171 771.4370021180866,953.3748938070845 794.2947485014861,934.3267718209183 Z" fill="url(#leaf12)" opacity="0.18" transform="rotate(257.3 794.3 972.4)"/>
    <path d="M 1196.6903413694486,378.1082487501017 C 1242.070325823372,415.92490246170456 1257.1969873080131,468.8682176579486 1196.6903413694486,529.3748635965133 C 1136.183695430884,468.8682176579486 1151.310356915525,415.92490246170456 1196.6903413694486,378.1082487501017 Z" fill="url(#leaf13)" opacity="0.19" transform="rotate(180.0 1196.7 453.7)"/>
    <path d="M 302.4980564612585,812.7725799660251 C 340.9318120592022,844.8007096309782 353.74306392518344,889.6400911619126 302.4980564612585,940.8850986258375 C 251.25304899733356,889.6400911619126 264.0643008633148,844.8007096309782 302.4980564612585,812.7725799660251 Z" fill="url(#leaf14)" opacity="0.22" transform="rotate(19.1 302.5 876.8)"/>
    <path d="M 400.0068319781388,697.1458334668587 C 443.001674389281,732.9748688094772 457.3332885263284,783.1355182891431 400.0068319781388,840.4619748373327 C 342.6803754299492,783.1355182891431 357.0119895669966,732.9748688094772 400.0068319781388,697.1458334668587 Z" fill="url(#leaf15)" opacity="0.19" transform="rotate(305.2 400.0 768.8)"/>
    <path d="M 1197.8580513650038,774.0982901561401 C 1240.9772216538674,810.0309320635265 1255.3502784168222,860.3366307338675 1197.8580513650038,917.8288577856858 C 1140.3658243131854,860.3366307338675 1154.7388810761402,810.0309320635265 1197.8580513650038,774.0982901561401 Z" fill="url(#leaf16)" opacity="0.25" transform="rotate(313.9 1197.9 846.0)"/>
    <path d="M 839.4235341376399,558.4297690430658 C 869.8268484849373,583.7658643324804 879.9612866007031,619.2363977376608 839.4235341376399,659.7741502007241 C 798.8857816745766,619.2363977376608 809.0202197903425,583.7658643324804 839.4235341376399,558.4297690430658 Z" fill="url(#leaf17)" opacity="0.25" transform="rotate(234.3 839.4 609.1)"/>
    <path d="M 1694.9380192414837,169.02637858385037 C 1718.243666622317,188.4477514012115 1726.0122157492615,215.63767334551704 1694.9380192414837,246.71186985329484 C 1663.863822733706,215.63767334551704 1671.6323718606504,188.4477514012115 1694.9380192414837,169.02637858385037 Z" fill="url(#leaf18)" opacity="0.19" transform="rotate(118.4 1694.9 207.9)"/>
    <path d="M 1252.5220272661336,917.8453687778999 C 1294.9417027504678,953.1950983481784 1309.0815945785791,1002.6847197465681 1252.5220272661336,1059.2442870590137 C 1195.962459953688,1002.6847197465681 1210.1023517817994,953.1950983481784 1252.5220272661336,917.8453687778999 Z" fill="url(#leaf19)" opacity="0.22" transform="rotate(22.9 1252.5 988.5)"/>
    <path d="M 1621.54316907841,938.0627489746001 C 1667.1878893194137,976.1000158421032 1682.402796066415,1029.3521894566074 1621.54316907841,1090.2118164446124 C 1560.6835420904051,1029.3521894566074 1575.8984488374065,976.1000158421032 1621.54316907841,938.0627489746001 Z" fill="url(#leaf20)" opacity="0.19" transform="rotate(102.8 1621.5 1014.1)"/>
    <path d="M 132.1075604167056,586.8130797710731 C 174.66028581903294,622.2736842730126 188.84452761980873,671.9185305757278 132.1075604167056,728.6554977788309 C 75.37059321360249,671.9185305757278 89.55483501437828,622.2736842730126 132.1075604167056,586.8130797710731 Z" fill="url(#leaf21)" opacity="0.23" transform="rotate(346.4 132.1 657.7)"/>
    <path d="M 1267.0635419039256,706.3410243037474 C 1306.196015557245,738.9514190148468 1319.2401734416846,784.605971610386 1267.0635419039256,836.782603148145 C 1214.8869103661666,784.605971610386 1227.9310682506064,738.9514190148468 1267.0635419039256,706.3410243037474 Z" fill="url(#leaf22)" opacity="0.18" transform="rotate(191.0 1267.1 771.6)"/>
    <path d="M 914.1352511101448,365.7245188739874 C 960.9105609212828,404.7039437166024 976.5023308583288,459.2751384962634 914.1352511101448,521.6422182444475 C 851.7681713619609,459.2751384962634 867.3599412990069,404.7039437166024 914.1352511101448,365.7245188739874 Z" fill="url(#leaf23)" opacity="0.19" transform="rotate(1.8 914.1 443.7)"/>
    <path d="M 131.11822920247008,282.52769808087186 C 158.64243181490656,305.4645335912356 167.81716601905205,337.57610330574477 131.11822920247008,374.27504012232674 C 94.4192923858881,337.57610330574477 103.59402659003361,305.4645335912356 131.11822920247008,282.52769808087186 Z" fill="url(#leaf24)" opacity="0.20" transform="rotate(12.1 131.1 328.4)"/>
    <path d="M 1585.7953368996766,558.2055233244689 C 1625.2582177231736,591.0912573440497 1638.4125113310058,637.1312849714628 1585.7953368996766,689.7484594027922 C 1533.1781624683474,637.1312849714628 1546.3324560761796,591.0912573440497 1585.7953368996766,558.2055233244689 Z" fill="url(#leaf25)" opacity="0.16" transform="rotate(10.8 1585.8 624.0)"/>
    <path d="M 887.9061787891482,295.54137869269624 C 924.9213273838409,326.38733585494015 937.2597102487384,369.5716758820816 887.9061787891482,418.92520734167186 C 838.5526473295579,369.5716758820816 850.8910301944554,326.38733585494015 887.9061787891482,295.54137869269624 Z" fill="url(#leaf26)" opacity="0.22" transform="rotate(47.9 887.9 357.2)"/>
    <path d="M 1829.6137554753905,513.0314777762461 C 1850.5849376945455,530.5074629588754 1857.5753317675972,554.9738422145563 1829.6137554753905,582.9354185067631 C 1801.6521791831838,554.9738422145563 1808.6425732562354,530.5074629588754 1829.6137554753905,513.0314777762461 Z" fill="url(#leaf27)" opacity="0.22" transform="rotate(289.3 1829.6 548.0)"/>
    <path d="M 1535.3773354632947,285.3560879026858 C 1568.2530080206564,312.75248170048724 1579.211565539777,351.1074330174093 1535.3773354632947,394.94166309389163 C 1491.5431053868124,351.1074330174093 1502.501662905933,312.75248170048724 1535.3773354632947,285.3560879026858 Z" fill="url(#leaf28)" opacity="0.19" transform="rotate(48.9 1535.4 340.1)"/>
    <path d="M 1586.776294986891,283.3413756495007 C 1608.3815828495462,301.3457822017136 1615.5833454704314,326.55195137481155 1586.776294986891,355.35900185835214 C 1557.9692445033504,326.55195137481155 1565.1710071242355,301.3457822017136 1586.776294986891,283.3413756495007 Z" fill="url(#leaf29)" opacity="0.24" transform="rotate(302.1 1586.8 319.4)"/>
    <path d="M 975.694363825413,919.8546994690869 C 1003.5119559692716,943.0360262556356 1012.7844866838911,975.489883756804 975.694363825413,1012.5800066152822 C 938.6042409669349,975.489883756804 947.8767716815544,943.0360262556356 975.694363825413,919.8546994690869 Z" fill="url(#leaf0)" opacity="0.22" transform="rotate(215.9 975.7 966.2)"/>
    <path d="M 561.8065379176459,377.6582588282515 C 602.3090648608642,411.41036461426677 615.8099071752703,458.66331271468806 561.8065379176459,512.6666819723124 C 507.8031686600215,458.66331271468806 521.3040109744276,411.41036461426677 561.8065379176459,377.6582588282515 Z" fill="url(#leaf1)" opacity="0.17" transform="rotate(317.3 561.8 445.2)"/>
    <path d="M 1100.31320592995,169.94688407261322 C 1138.001108771948,201.35346977427827 1150.5637430526142,245.32268975660935 1100.31320592995,295.5732268792734 C 1050.062668807286,245.32268975660935 1062.625303087952,201.35346977427827 1100.31320592995,169.94688407261322 Z" fill="url(#leaf2)" opacity="0.20" transform="rotate(178.7 1100.3 232.8)"/>
    <path d="M 1646.6700774522183,242.01960016700417 C 1690.4774775616752,278.5257669248849 1705.0799442648274,329.634400385918 1646.6700774522183,388.0442671985273 C 1588.260210639609,329.634400385918 1602.8626773427613,278.5257669248849 1646.6700774522183,242.01960016700417 Z" fill="url(#leaf3)" opacity="0.18" transform="rotate(332.5 1646.7 315.0)"/>
    <path d="M 1203.7531260816872,-21.185401155085444 C 1251.6016555187111,18.688373375767817 1267.5511653310525,74.51165771896238 1203.7531260816872,138.30969696832761 C 1139.955086832322,74.51165771896238 1155.9045966446633,18.688373375767817 1203.7531260816872,-21.185401155085444 Z" fill="url(#leaf4)" opacity="0.25" transform="rotate(328.2 1203.8 58.6)"/>
    <path d="M 751.0032453570766,17.567376947931066 C 779.8066954476714,41.570252023426704 789.4078454778696,75.1742771291206 751.0032453570766,113.57887724991362 C 712.5986452362836,75.1742771291206 722.1997952664818,41.570252023426704 751.0032453570766,17.567376947931066 Z" fill="url(#leaf5)" opacity="0.22" transform="rotate(99.0 751.0 65.6)"/>
    <path d="M 1024.6038086613175,571.7773278564282 C 1067.9770666861727,607.9217095438075 1082.4348193611245,658.5238439061387 1024.6038086613175,716.3548546059458 C 966.7727979615105,658.5238439061387 981.2305506364622,607.9217095438075 1024.6038086613175,571.7773278564282 Z" fill="url(#leaf6)" opacity="0.22" transform="rotate(275.7 1024.6 644.1)"/>
    <path d="M 1058.2621530889323,276.5954133534055 C 1104.2507234882855,314.9192220195331 1119.5802469547366,368.57255415211176 1058.2621530889323,429.8906480179159 C 996.9440592231282,368.57255415211176 1012.2735826895793,314.9192220195331 1058.2621530889323,276.5954133534055 Z" fill="url(#leaf7)" opacity="0.16" transform="rotate(49.7 1058.3 353.2)"/>
    <path d="M 1658.9636899644747,209.74793848385406 C 1693.3082618045578,238.36841501725655 1704.7564524179188,278.43708216402007 1658.9636899644747,324.22984461746404 C 1613.1709275110306,278.43708216402007 1624.6191181243917,238.36841501725655 1658.9636899644747,209.74793848385406 Z" fill="url(#leaf8)" opacity="0.21" transform="rotate(139.0 1659.0 267.0)"/>
    <path d="M 762.1012628498609,826.4915779990935 C 792.8794661845375,852.1400807779906 803.1388672960964,888.0479846684467 762.1012628498609,929.0855891146822 C 721.0636584036254,888.0479846684467 731.3230595151842,852.1400807779906 762.1012628498609,826.4915779990935 Z" fill="url(#leaf9)" opacity="0.17" transform="rotate(161.2 762.1 877.8)"/>
    <path d="M 1302.3868749340877,600.0386788027266 C 1327.791552898235,621.2092437728494 1336.2597788862843,650.8480347310212 1302.3868749340877,684.7209386832177 C 1268.5139709818911,650.8480347310212 1276.9821969699403,621.2092437728494 1302.3868749340877,600.0386788027266 Z" fill="url(#leaf10)" opacity="0.23" transform="rotate(68.0 1302.4 642.4)"/>
    <path d="M 274.7351788682297,165.7324220347696 C 305.791799990001,191.61293963624564 316.1440070305914,227.84566427831214 274.7351788682297,269.25449244067386 C 233.326350705868,227.84566427831214 243.67855774645844,191.61293963624564 274.7351788682297,165.7324220347696 Z" fill="url(#leaf11)" opacity="0.25" transform="rotate(2.6 274.7 217.5)"/>
    <path d="M 1786.0752807793183,377.9276944277868 C 1827.8447240423545,412.7355638136503 1841.7678717966999,461.46658095385914 1786.0752807793183,517.1591719712407 C 1730.3826897619367,461.46658095385914 1744.305837516282,412.7355638136503 1786.0752807793183,377.9276944277868 Z" fill="url(#leaf12)" opacity="0.19" transform="rotate(110.7 1786.1 447.5)"/>
    <path d="M 1805.8481533963122,47.627895924417416 C 1827.400319677347,65.58803449194636 1834.5843751043585,90.7322284864869 1805.8481533963122,119.46845019453322 C 1777.111931688266,90.7322284864869 1784.2959871152775,65.58803449194636 1805.8481533963122,47.627895924417416 Z" fill="url(#leaf13)" opacity="0.17" transform="rotate(208.7 1805.8 83.5)"/>
    <path d="M 315.88673701071514,725.8767764756286 C 350.5210300709482,754.7386873591562 362.06579442435924,795.1453625960947 315.88673701071514,841.3244200097389 C 269.70767959707104,795.1453625960947 281.2524439504821,754.7386873591562 315.88673701071514,725.8767764756286 Z" fill="url(#leaf14)" opacity="0.15" transform="rotate(112.0 315.9 783.6)"/>
    <path d="M 1714.7461934927871,936.61974417302 C 1749.562584984421,965.6334037493815 1761.1680488149655,1006.2525271562877 1714.7461934927871,1052.674382478466 C 1668.3243381706088,1006.2525271562877 1679.9298020011533,965.6334037493815 1714.7461934927871,936.61974417302 Z" fill="url(#leaf15)" opacity="0.23" transform="rotate(56.4 1714.7 994.6)"/>
    </g>

    <!-- Text with SOLID fill only (ThorVG compatible) -->
    <text x="861.4" y="862.4"
          font-family="Arial, Helvetica, sans-serif"
          font-size="1080px"
          font-weight="bold"
          fill="#FFD700"
          text-anchor="middle"
          transform="rotate(12.5 960.0 540.0)">
      U
    </text>
  </g>

  <!-- Frame counter -->
  <text x="960.0" y="1050.0"
        font-family="monospace"
        font-size="24px"
        fill="#FFFFFF"
        text-anchor="middle"
        opacity="0.7">
    Frame 00021 - Compatible
  </text>
</svg>