<?xml version="1.0" encoding="UTF-8"?>
<svg xmlns="http://www.w3.org/2000/svg" viewBox="0 0 1920 1080" width="1920" height="1080">
  <defs>
    <linearGradient id="bgGrad" x1="0%" y1="0%" x2="100%" y2="100%">
      <stop offset="0%" stop-color="#FF4500"/>
      <stop offset="100%" stop-color="#4ECDC4"/>
    </linearGradient>
    <clipPath id="complexClip"><polygon points="1432.1,540.0 1580.4,584.1 1555.5,626.0 1442.2,647.4 1315.4,649.9 1377.3,710.5 1378.8,761.2 1356.1,809.3 1299.5,840.9 1242.5,877.6 1155.9,879.1 1053.3,815.2 993.6,840.4 933.8,774.0 877.6,782.9 794.1,827.3 703.3,846.9 714.6,757.5 615.0,774.6 670.1,693.1 482.3,735.2 504.1,681.0 600.1,620.2 581.5,594.7 432.8,577.5 485.1,540.0 461.8,504.6 558.9,482.1 525.4,443.2 428.1,375.5 614.3,398.7 596.1,347.8 571.2,275.6 736.7,342.0 697.6,226.4 752.7,181.1 861.4,249.4 927.4,248.7 1000.8,174.8 1076.4,196.8 1121.2,261.0 1188.6,266.8 1181.5,343.7 1226.9,358.5 1346.4,335.9 1274.9,411.3 1444.4,390.2 1475.6,425.2 1372.3,480.5 1393.6,509.2"/></clipPath>
    <radialGradient id="leaf0" cx="50%" cy="50%" r="70%">
      <stop offset="0%" stop-color="#FF69B4"/>
      <stop offset="50%" stop-color="#FF1493"/>
      <stop offset="100%" stop-color="#32CD32"/>
    </radialGradient>
    <radialGradient id="leaf1" cx="50%" cy="50%" r="70%">
      <stop offset="0%" stop-color="#FF6B6B"/>
      <stop offset="50%" stop-color="#FF4500"/>
      <stop offset="100%" stop-color="#9370DB"/>
    </radialGradient>
    <radialGradient id="leaf2" cx="50%" cy="50%" r="70%">
      <stop offset="0%" stop-color="#9370DB"/>
      <stop offset="50%" stop-color="#32CD32"/>
      <stop offset="100%" stop-color="#DC143C"/>
    </radialGradient>
    <radialGradient id="leaf3" cx="50%" cy="50%" r="70%">
      <stop offset="0%" stop-color="#45B7D1"/>
      <stop offset="50%" stop-color="#96E6A1"/>
      <stop offset="100%" stop-color="#FFD700"/>
    </radialGradient>
    <radialGradient id="leaf4" cx="50%" cy="50%" r="70%">
      <stop offset="0%" stop-color="#FF4500"/>
      <stop offset="50%" stop-color="#96E6A1"/>
      <stop offset="100%" stop-color="#9370DB"/>
    </radialGradient>
    <radialGradient id="leaf5" cx="50%" cy="50%" r="70%">
      <stop offset="0%" stop-color="#DC143C"/>
      <stop offset="50%" stop-color="#96E6A1"/>
      <stop offset="100%" stop-color="#32CD32"/>
    </radialGradient>
    <radialGradient id="leaf6" cx="50%" cy="50%" r="70%">
      <stop offset="0%" stop-color="#FFD700"/>
      <stop offset="50%" stop-color="#00FA9A"/>
      <stop offset="100%" stop-color="#FF6B6B"/>
    </radialGradient>
    <radialGradient id="leaf7" cx="50%" cy="50%" r="70%">
      <stop offset="0%" stop-color="#FF69B4"/>
      <stop offset="50%" stop-color="#7B68EE"/>
      <stop offset="100%" stop-color="#9370DB"/>
    </radialGradient>
    <radialGradient id="leaf8" cx="50%" cy="50%" r="70%">
      <stop offset="0%" stop-color="#32CD32"/>
      <stop offset="50%" stop-color="#FFD700"/>
      <stop offset="100%" stop-color="#00CED1"/>
    </radialGradient>
    <radialGradient id="leaf9" cx="50%" cy="50%" r="70%">
      <stop offset="0%" stop-color="#96E6A1"/>
      <stop offset="50%" stop-color="#00FA9A"/>
      <stop offset="100%" stop-color="#FFD700"/>
    </radialGradient>
    <radialGradient id="leaf10" cx="50%" cy="50%" r="70%">
      <stop offset="0%" stop-color="#FF4500"/>
      <stop offset="50%" stop-color="#FF6B6B"/>
      <stop offset="100%" stop-color="#FFE66D"/>
    </radialGradient>
    <radialGradient id="leaf11" cx="50%" cy="50%" r="70%">
      <stop offset="0%" stop-color="#FF6B6B"/>
      <stop offset="50%" stop-color="#45B7D1"/>
      <stop offset="100%" stop-color="#7B68EE"/>
    </radialGradient>
    <radialGradient id="leaf12" cx="50%" cy="50%" r="70%">
      <stop offset="0%" stop-color="#00FA9A"/>
      <stop offset="50%" stop-color="#FF4500"/>
      <stop offset="100%" stop-color="#32CD32"/>
    </radialGradient>
    <radialGradient id="leaf13" cx="50%" cy="50%" r="70%">
      <stop offset="0%" stop-color="#32CD32"/>
      <stop offset="50%" stop-color="#4ECDC4"/>
      <stop offset="100%" stop-color="#FF4500"/>
    </radialGradient>
    <radialGradient id="leaf14" cx="50%" cy="50%" r="70%">
      <stop offset="0%" stop-color="#45B7D1"/>
      <stop offset="50%" stop-color="#7B68EE"/>
      <stop offset="100%" stop-color="#00CED1"/>
    </radialGradient>
    <radialGradient id="leaf15" cx="50%" cy="50%" r="70%">
      <stop offset="0%" stop-color="#DC143C"/>
      <stop offset="50%" stop-color="#4ECDC4"/>
      <stop offset="100%" stop-color="#FF69B4"/>
    </radialGradient>
    <radialGradient id="leaf16" cx="50%" cy="50%" r="70%">
      <stop offset="0%" stop-color="#FF1493"/>
      <stop offset="50%" stop-color="#DC143C"/>
      <stop offset="100%" stop-color="#FFE66D"/>
    </radialGradient>
    <radialGradient id="leaf17" cx="50%" cy="50%" r="70%">
      <stop offset="0%" stop-color="#45B7D1"/>
      <stop offset="50%" stop-color="#32CD32"/>
      <stop offset="100%" stop-color="#DC143C"/>
    </radialGradient>
    <radialGradient id="leaf18" cx="50%" cy="50%" r="70%">
      <stop offset="0%" stop-color="#96E6A1"/>
      <stop offset="50%" stop-color="#32CD32"/>
      <stop offset="100%" stop-color="#4ECDC4"/>
    </radialGradient>
    <radialGradient id="leaf19" cx="50%" cy="50%" r="70%">
      <stop offset="0%" stop-color="#45B7D1"/>
      <stop offset="50%" stop-color="#FF69B4"/>
      <stop offset="100%" stop-color="#32CD32"/>
    </radialGradient>
    <radialGradient id="leaf20" cx="50%" cy="50%" r="70%">
      <stop offset="0%" stop-color="#FFD700"/>
      <stop offset="50%" stop-color="#96E6A1"/>
      <stop offset="100%" stop-color="#FF1493"/>
    </radialGradient>
    <radialGradient id="leaf21" cx="50%" cy="50%" r="70%">
      <stop offset="0%" stop-color="#FFE66D"/>
      <stop offset="50%" stop-color="#FF1493"/>
      <stop offset="100%" stop-color="#45B7D1"/>
    </radialGradient>
    <radialGradient id="leaf22" cx="50%" cy="50%" r="70%">
      <stop offset="0%" stop-color="#7B68EE"/>
      <stop offset="50%" stop-color="#FFD700"/>
      <stop offset="100%" stop-color="#96E6A1"/>
    </radialGradient>
    <radialGradient id="leaf23" cx="50%" cy="50%" r="70%">
      <stop offset="0%" stop-color="#FF1493"/>
      <stop offset="50%" stop-color="#FFD700"/>
      <stop offset="100%" stop-color="#FF6B6B"/>
    </radialGradient>
    <radialGradient id="leaf24" cx="50%" cy="50%" r="70%">
      <stop offset="0%" stop-color="#96E6A1"/>
      <stop offset="50%" stop-color="#9370DB"/>
      <stop offset="100%" stop-color="#4ECDC4"/>
    </radialGradient>
    <radialGradient id="leaf25" cx="50%" cy="50%" r="70%">
      <stop offset="0%" stop-color="#FF1493"/>
      <stop offset="50%" stop-color="#FF4500"/>
      <stop offset="100%" stop-color="#00CED1"/>
    </radialGradient>
    <radialGradient id="leaf26" cx="50%" cy="50%" r="70%">
      <stop offset="0%" stop-color="#FFD700"/>
      <stop offset="50%" stop-color="#FF6B6B"/>
      <stop offset="100%" stop-color="#00FA9A"/>
    </radialGradient>
    <radialGradient id="leaf27" cx="50%" cy="50%" r="70%">
      <stop offset="0%" stop-color="#DC143C"/>
      <stop offset="50%" stop-color="#45B7D1"/>
      <stop offset="100%" stop-color="#FF6B6B"/>
    </radialGradient>
    <radialGradient id="leaf28" cx="50%" cy="50%" r="70%">
      <stop offset="0%" stop-color="#DC143C"/>
      <stop offset="50%" stop-color="#FF69B4"/>
      <stop offset="100%" stop-color="#00CED1"/>
    </radialGradient>
    <radialGradient id="leaf29" cx="50%" cy="50%" r="70%">
      <stop offset="0%" stop-color="#96E6A1"/>
      <stop offset="50%" stop-color="#FF6B6B"/>
      <stop offset="100%" stop-color="#FFD700"/>
    </radialGradient>
  </defs>

  <!-- Scaled content -->
  <g transform="translate(960.0,540.0) scale(3.0) translate(-960.0,-540.0)">
    <!-- Background -->
    <rect width="1920" height="1080" fill="url(#bgGrad)"/>
    
    <!-- Leaves with clip-path -->
    <g clip-path="url(#complexClip)">
    <path d="M 519.8238834127258,467.40977404890907 C 540.706357221239,484.8118355560034 547.6671818240767,509.1747216659355 519.8238834127258,537.0180200772865 C 491.9805850013748,509.1747216659355 498.94140960421254,484.8118355560034 519.8238834127258,467.40977404890907 Z" fill="url(#leaf0)" opacity="0.19" transform="rotate(39.0 519.8 502.2)"/>
    <path d="M 848.5824619257556,193.75187263849477 C 872.0083486024765,213.27344486909553 879.8169774947169,240.6036459919366 848.5824619257556,271.8381615608978 C 817.3479463567944,240.6036459919366 825.1565752490347,213.27344486909553 848.5824619257556,193.75187263849477 Z" fill="url(#leaf1)" opacity="0.25" transform="rotate(142.8 848.6 232.8)"/>
    <path d="M 449.4104929201895,16.916359322865162 C 488.55675595430284,49.53824518462628 501.6055102990073,95.20888539109184 449.4104929201895,147.40390276990962 C 397.2154755413717,95.20888539109184 410.2642298860761,49.53824518462628 449.4104929201895,16.916359322865162 Z" fill="url(#leaf2)" opacity="0.22" transform="rotate(7.7 449.4 82.2)"/>
    <path d="M 1153.4320902971338,424.5227581205426 C 1174.6501561019259,442.20447962453596 1181.7228447035232,466.95888973012666 1153.4320902971338,495.249644136516 C 1125.1413358907444,466.95888973012666 1132.2140244923417,442.20447962453596 1153.4320902971338,424.5227581205426 Z" fill="url(#leaf3)" opacity="0.18" transform="rotate(234.8 1153.4 459.9)"/>
    <path d="M 1027.0347666171388,166.4541985410764 C 1072.7868279885663,204.5809163505994 1088.0375151123756,257.9583212839316 1027.0347666171388,318.9610697791684 C 966.032018121902,257.9583212839316 981.2827052457112,204.5809163505994 1027.0347666171388,166.4541985410764 Z" fill="url(#leaf4)" opacity="0.22" transform="rotate(192.8 1027.0 242.7)"/>
    <path d="M 1042.457957094815,575.1603516986016 C 1066.1900959323632,594.9371340632252 1074.1008088782125,622.6246293736983 1042.457957094815,654.2674811570961 C 1010.8151053114171,622.6246293736983 1018.7258182572666,594.9371340632252 1042.457957094815,575.1603516986016 Z" fill="url(#leaf5)" opacity="0.25" transform="rotate(194.3 1042.5 614.7)"/>
    <path d="M 1552.7900819109607,250.32954248082768 C 1599.0099781508236,288.84612268071334 1614.4166102307777,342.7693349605533 1552.7900819109607,404.3958632803704 C 1491.1635535911437,342.7693349605533 1506.5701856710978,288.84612268071334 1552.7900819109607,250.32954248082768 Z" fill="url(#leaf6)" opacity="0.16" transform="rotate(60.0 1552.8 327.4)"/>
    <path d="M 186.29873540142353,210.1979180316822 C 225.153605379133,242.57697634644012 238.10522870503618,287.9076579871012 186.29873540142353,339.71415129071386 C 134.49224209781087,287.9076579871012 147.44386542371404,242.57697634644012 186.29873540142353,210.1979180316822 Z" fill="url(#leaf7)" opacity="0.19" transform="rotate(51.6 186.3 275.0)"/>
    <path d="M 628.7135262520248,101.42370750474362 C 674.4566759950656,139.5429989572775 689.704392576079,192.9100069908249 628.7135262520248,253.9008733148791 C 567.7226599279707,192.9100069908249 582.9703765089841,139.5429989572775 628.7135262520248,101.42370750474362 Z" fill="url(#leaf8)" opacity="0.19" transform="rotate(209.0 628.7 177.7)"/>
    <path d="M 1787.7435962520171,74.75890234743187 C 1820.65335401364,102.1837004821175 1831.6232732675142,140.57841787067738 1787.7435962520171,184.4580948861744 C 1743.8639192365201,140.57841787067738 1754.8338384903943,102.1837004821175 1787.7435962520171,74.75890234743187 Z" fill="url(#leaf9)" opacity="0.20" transform="rotate(290.7 1787.7 129.6)"/>
    <path d="M 1595.6933502842285,593.6391142934516 C 1628.2126774664957,620.7385536120076 1639.0524531939182,658.6777686579861 1595.6933502842285,702.0368715676758 C 1552.3342473745388,658.6777686579861 1563.1740231019612,620.7385536120076 1595.6933502842285,593.6391142934516 Z" fill="url(#leaf10)" opacity="0.18" transform="rotate(203.0 1595.7 647.8)"/>
    <path d="M 884.0301301488353,264.78056959286704 C 913.4508618950287,289.2978460480282 923.2577724770931,323.62203308525386 884.0301301488353,362.84967541351176 C 844.8024878205774,323.62203308525386 854.6093984026419,289.2978460480282 884.0301301488353,264.78056959286704 Z" fill="url(#leaf11)" opacity="0.16" transform="rotate(229.2 884.0 313.8)"/>
    <path d="M 499.3530609165887,908.067479669647 C 534.5256842550341,937.3779991183515 546.2498920345158,978.4127263465379 499.3530609165887,1025.3095574644651 C 452.45622979866147,978.4127263465379 464.18043757814326,937.3779991183515 499.3530609165887,908.067479669647 Z" fill="url(#leaf12)" opacity="0.20" transform="rotate(288.8 499.4 966.7)"/>
    <path d="M 155.38363715299255,549.7528301110212 C 180.7277304942616,570.8729078954121 189.17576160801798,600.4410167935594 155.38363715299255,634.2331412485848 C 121.59151269796712,600.4410167935594 130.0395438117235,570.8729078954121 155.38363715299255,549.7528301110212 Z" fill="url(#leaf13)" opacity="0.21" transform="rotate(189.8 155.4 592.0)"/>
    <path d="M 565.1758254289998,139.3415662881153 C 608.5023653505298,175.4470162227236 622.944545324373,225.9946461311752 565.1758254289998,283.76336602654845 C 507.4071055336266,225.9946461311752 521.8492855074699,175.4470162227236 565.1758254289998,139.3415662881153 Z" fill="url(#leaf14)" opacity="0.21" transform="rotate(342.1 565.2 211.6)"/>
    <path d="M 1292.467660406217,518.6206311752717 C 1322.9083671256915,543.9878867748338 1333.0552693655163,579.5020446142207 1292.467660406217,620.0896535735201 C 1251.8800514469176,579.5020446142207 1262.0269536867424,543.9878867748338 1292.467660406217,518.6206311752717 Z" fill="url(#leaf15)" opacity="0.24" transform="rotate(213.3 1292.5 569.4)"/>
    <path d="M 1273.93904363205,547.5636992138341 C 1293.2721283995336,563.674603186737 1299.7164899886948,586.2298687488012 1273.93904363205,612.007315105446 C 1248.1615972754053,586.2298687488012 1254.6059588645664,563.674603186737 1273.93904363205,547.5636992138341 Z" fill="url(#leaf16)" opacity="0.20" transform="rotate(317.0 1273.9 579.8)"/>
    <path d="M 1556.3893607006933,475.40767493555427 C 1583.4433807809148,497.95269166907224 1592.461387474322,529.5157150959974 1556.3893607006933,565.5877418696261 C 1520.3173339270645,529.5157150959974 1529.3353406204717,497.95269166907224 1556.3893607006933,475.40767493555427 Z" fill="url(#leaf17)" opacity="0.16" transform="rotate(256.0 1556.4 520.5)"/>
    <path d="M 909.7767658194454,478.93319188267554 C 937.9467115872948,502.4081466892167 947.3366935099112,535.2730834183744 909.7767658194454,572.8330111088404 C 872.2168381289795,535.2730834183744 881.606820051596,502.4081466892167 909.7767658194454,478.93319188267554 Z" fill="url(#leaf18)" opacity="0.20" transform="rotate(302.0 909.8 525.9)"/>
    <path d="M 1630.0914899914976,339.305201474374 C 1656.4454867805116,361.26686546521904 1665.2301523768497,392.01319505240207 1630.0914899914976,427.15185743775413 C 1594.9528276061455,392.01319505240207 1603.7374932024836,361.26686546521904 1630.0914899914976,339.305201474374 Z" fill="url(#leaf19)" opacity="0.17" transform="rotate(321.7 1630.1 383.2)"/>
    <path d="M 720.09997463859,527.5846839615315 C 752.2655310010492,554.3893142635809 762.987383121869,591.9157966864501 720.09997463859,634.8032051697292 C 677.2125661553109,591.9157966864501 687.9344182761307,554.3893142635809 720.09997463859,527.5846839615315 Z" fill="url(#leaf20)" opacity="0.21" transform="rotate(0.6 720.1 581.2)"/>
    <path d="M 1228.0198574864237,67.37913517872973 C 1272.852171696835,104.73939702073926 1287.796276433639,157.04376359955262 1228.0198574864237,216.8201825467679 C 1168.2434385392085,157.04376359955262 1183.1875432760123,104.73939702073926 1228.0198574864237,67.37913517872973 Z" fill="url(#leaf21)" opacity="0.23" transform="rotate(255.9 1228.0 142.1)"/>
    <path d="M 1458.0539866362053,281.83610673849114 C 1492.0573626178941,310.17225338989846 1503.391821278457,349.84285870186864 1458.0539866362053,395.1806933441203 C 1412.7161519939536,349.84285870186864 1424.0506106545165,310.17225338989846 1458.0539866362053,281.83610673849114 Z" fill="url(#leaf22)" opacity="0.17" transform="rotate(256.5 1458.1 338.5)"/>
    <path d="M 665.2613282934559,759.3445533985922 C 712.9335427932247,799.0713988150662 728.8242809598144,854.6889823981298 665.2613282934559,918.2519350644883 C 601.6983756270974,854.6889823981298 617.5891137936871,799.0713988150662 665.2613282934559,759.3445533985922 Z" fill="url(#leaf23)" opacity="0.23" transform="rotate(358.3 665.3 838.8)"/>
    <path d="M 150.140387707772,710.9688955353512 C 177.46405309883886,733.7386166945736 186.5719415625278,765.6162263174849 150.140387707772,802.0477801722408 C 113.70883385301619,765.6162263174849 122.81672231670514,733.7386166945736 150.140387707772,710.9688955353512 Z" fill="url(#leaf24)" opacity="0.16" transform="rotate(53.1 150.1 756.5)"/>
    <path d="M 1804.398179568398,552.4263040765559 C 1838.4667173119142,580.8167521961525 1849.8228965597527,620.5633795635879 1804.398179568398,665.9880965549426 C 1758.9734625770434,620.5633795635879 1770.329641824882,580.8167521961525 1804.398179568398,552.4263040765559 Z" fill="url(#leaf25)" opacity="0.25" transform="rotate(20.9 1804.4 609.2)"/>
    <path d="M 1339.7590471102803,411.58514833694494 C 1381.3672691252773,446.25866668277564 1395.2366764636095,494.8015923669387 1339.7590471102803,550.2792217202679 C 1284.2814177569512,494.8015923669387 1298.1508250952834,446.25866668277564 1339.7590471102803,411.58514833694494 Z" fill="url(#leaf26)" opacity="0.18" transform="rotate(210.5 1339.8 480.9)"/>
    <path d="M 1330.752740371927,157.46624189808546 C 1374.4726127230563,193.89946885735984 1389.045903506766,244.90598660034397 1330.752740371927,303.19914973518297 C 1272.459577237088,244.90598660034397 1287.0328680207979,193.89946885735984 1330.752740371927,157.46624189808546 Z" fill="url(#leaf27)" opacity="0.18" transform="rotate(42.0 1330.8 230.3)"/>
    <path d="M 1188.9182587645928,348.5630192674064 C 1233.1621284158919,385.432910643489 1247.910084966325,437.05075857000463 1188.9182587645928,496.04258477173676 C 1129.9264325628606,437.05075857000463 1144.6743891132937,385.432910643489 1188.9182587645928,348.5630192674064 Z" fill="url(#leaf28)" opacity="0.19" transform="rotate(355.0 1188.9 422.3)"/>
    <path d="M 223.3154909249218,157.43652586218212 C 246.71125888753383,176.93299916435885 254.50984820840452,204.22806178740623 223.3154909249218,235.42241907088896 C 192.12113364143906,204.22806178740623 199.91972296230975,176.93299916435885 223.3154909249218,157.43652586218212 Z" fill="url(#leaf29)" opacity="0.16" transform="rotate(26.7 223.3 196.4)"/>
    <path d="M 1333.6494180238344,615.6037197267267 C 1357.1840701749138,635.2159298526262 1365.0289542252738,662.6730240288857 1333.6494180238344,694.0525602303251 C 1302.269881822395,662.6730240288857 1310.114765872755,635.2159298526262 1333.6494180238344,615.6037197267267 Z" fill="url(#leaf0)" opacity="0.20" transform="rotate(304.2 1333.6 654.8)"/>
    <path d="M 1320.6162028275025,671.4855428497635 C 1348.4483999188942,694.6790404259233 1357.725798949358,727.1499370325469 1320.6162028275025,764.2595331544023 C 1283.506606705647,727.1499370325469 1292.7840057361109,694.6790404259233 1320.6162028275025,671.4855428497635 Z" fill="url(#leaf1)" opacity="0.25" transform="rotate(203.0 1320.6 717.9)"/>
    <path d="M 927.2940933362845,90.86332881185277 C 949.1018266982569,109.03643994682974 956.3710711522477,134.47879553579753 927.2940933362845,163.5557733517607 C 898.2171155203213,134.47879553579753 905.4863599743121,109.03643994682974 927.2940933362845,90.86332881185277 Z" fill="url(#leaf2)" opacity="0.19" transform="rotate(350.6 927.3 127.2)"/>
    <path d="M 1833.4036804466803,282.62587166890296 C 1851.5305128552836,297.73156534273915 1857.5727903248182,318.8795364861099 1833.4036804466803,343.0486463642478 C 1809.2345705685423,318.8795364861099 1815.2768480380769,297.73156534273915 1833.4036804466803,282.62587166890296 Z" fill="url(#leaf3)" opacity="0.18" transform="rotate(349.8 1833.4 312.8)"/>
    <path d="M 1121.7801312499414,696.929389367213 C 1168.14417374907,735.5660914498202 1183.5988545821126,789.6574743654701 1121.7801312499414,851.4761976976414 C 1059.9614079177702,789.6574743654701 1075.4160887508128,735.5660914498202 1121.7801312499414,696.929389367213 Z" fill="url(#leaf4)" opacity="0.23" transform="rotate(140.7 1121.8 774.2)"/>
    <path d="M 815.9374615436157,703.8645893010828 C 843.6944912201515,726.9954473648626 852.9468344456634,759.3786486541543 815.9374615436157,796.3880215562019 C 778.9280886415679,759.3786486541543 788.1804318670798,726.9954473648626 815.9374615436157,703.8645893010828 Z" fill="url(#leaf5)" opacity="0.20" transform="rotate(356.2 815.9 750.1)"/>
    <path d="M 718.5312332496143,617.2093417329015 C 737.2773613945088,632.8311151869804 743.5260707761404,654.7015980226907 718.5312332496143,679.6964355492169 C 693.5363957230882,654.7015980226907 699.7851051047197,632.8311151869804 718.5312332496143,617.2093417329015 Z" fill="url(#leaf6)" opacity="0.24" transform="rotate(205.5 718.5 648.5)"/>
    <path d="M 1701.179370760318,257.8701568598882 C 1742.2678188713508,292.11053028574884 1755.963968241695,340.04705308195366 1701.179370760318,394.83165056333064 C 1646.394773278941,340.04705308195366 1660.0909226492854,292.11053028574884 1701.179370760318,257.8701568598882 Z" fill="url(#leaf7)" opacity="0.16" transform="rotate(60.1 1701.2 326.4)"/>
    <path d="M 1865.011455263951,727.363792147341 C 1911.935383697226,766.4670658417369 1927.5766931749843,821.2116490138911 1865.011455263951,883.7768869249246 C 1802.4462173529175,821.2116490138911 1818.0875268306759,766.4670658417369 1865.011455263951,727.363792147341 Z" fill="url(#leaf8)" opacity="0.18" transform="rotate(29.3 1865.0 805.6)"/>
    <path d="M 1031.6225043171346,921.6594899232982 C 1076.7074322264932,959.2302631810969 1091.7357415296126,1011.8293457420152 1031.6225043171346,1071.9425829544932 C 971.5092671046566,1011.8293457420152 986.5375764077761,959.2302631810969 1031.6225043171346,921.6594899232982 Z" fill="url(#leaf9)" opacity="0.19" transform="rotate(46.7 1031.6 996.8)"/>
    <path d="M 1502.9792890909587,884.4646741486961 C 1538.7531531588777,914.2762275386286 1550.6777745148509,956.0124022845342 1502.9792890909587,1003.7108877084263 C 1455.2808036670665,956.0124022845342 1467.2054250230397,914.2762275386286 1502.9792890909587,884.4646741486961 Z" fill="url(#leaf10)" opacity="0.17" transform="rotate(95.5 1503.0 944.1)"/>
    <path d="M 1405.1319695958987,215.28830952750474 C 1448.5154801394401,251.44123498045585 1462.9766503206204,302.0553306145874 1405.1319695958987,359.9000113393092 C 1347.287288871177,302.0553306145874 1361.7484590523572,251.44123498045585 1405.1319695958987,215.28830952750474 Z" fill="url(#leaf11)" opacity="0.24" transform="rotate(77.9 1405.1 287.6)"/>
    <path d="M 516.1453660801385,264.5974052195085 C 562.786293830294,303.46484501130476 578.3332697470125,357.87926071981957 516.1453660801385,420.0671643866936 C 453.95746241326447,357.87926071981957 469.504438329983,303.46484501130476 516.1453660801385,264.5974052195085 Z" fill="url(#leaf12)" opacity="0.17" transform="rotate(190.3 516.1 342.3)"/>
    <path d="M 914.3983670458109,662.0265133770986 C 962.2954040648059,701.9407108929278 978.2610830711376,757.8205874150887 914.3983670458109,821.6833034404153 C 850.5356510204842,757.8205874150887 866.5013300268159,701.9407108929278 914.3983670458109,662.0265133770986 Z" fill="url(#leaf13)" opacity="0.17" transform="rotate(78.5 914.4 741.9)"/>
    <path d="M 227.43868261554272,644.0089362314973 C 264.5053076525406,674.8977904289956 276.8608493315399,718.142186305493 227.43868261554272,767.5643530214902 C 178.01651589954557,718.142186305493 190.37205757854485,674.8977904289956 227.43868261554272,644.0089362314973 Z" fill="url(#leaf14)" opacity="0.20" transform="rotate(34.9 227.4 705.8)"/>
    <path d="M 433.65998184023294,824.8016908478315 C 461.1335918976462,847.696365895676 470.291461916784,879.7489109626582 433.65998184023294,916.3803910392093 C 397.0285017636819,879.7489109626582 406.18637178281966,847.696365895676 433.65998184023294,824.8016908478315 Z" fill="url(#leaf15)" opacity="0.17" transform="rotate(117.8 433.7 870.6)"/>
    <path d="M 782.6345553136857,39.89612824146137 C 805.6295354211396,59.05861166433961 813.2945287902909,85.88608845636914 782.6345553136857,116.54606193297433 C 751.9745818370806,85.88608845636914 759.6395752062318,59.05861166433961 782.6345553136857,39.89612824146137 Z" fill="url(#leaf16)" opacity="0.21" transform="rotate(331.5 782.6 78.2)"/>
    <path d="M 986.9077673156964,296.53651716878 C 1024.455288853201,327.8261184500338 1036.9711293657026,371.6315602437891 986.9077673156964,421.6949222937952 C 936.8444052656904,371.6315602437891 949.3602457781919,327.8261184500338 986.9077673156964,296.53651716878 Z" fill="url(#leaf17)" opacity="0.19" transform="rotate(199.4 986.9 359.1)"/>
    <path d="M 1278.3473227818133,168.97276785548527 C 1317.3759315874993,201.49660852689033 1330.3854678560615,247.02998546685737 1278.3473227818133,299.06813054110546 C 1226.3091777075651,247.02998546685737 1239.3187139761274,201.49660852689033 1278.3473227818133,168.97276785548527 Z" fill="url(#leaf18)" opacity="0.22" transform="rotate(40.2 1278.3 234.0)"/>
    <path d="M 1781.6682960614376,812.2997032249529 C 1811.1528125734505,836.8701336516303 1820.9809847441215,871.2687362489788 1781.6682960614376,910.5814249316628 C 1742.3556073787536,871.2687362489788 1752.1837795494246,836.8701336516303 1781.6682960614376,812.2997032249529 Z" fill="url(#leaf19)" opacity="0.20" transform="rotate(335.8 1781.7 861.4)"/>
    <path d="M 1415.4785165258156,25.148962542423448 C 1443.0330077161707,48.11103853438599 1452.2178381129556,80.25794492313355 1415.4785165258156,116.99726651027362 C 1378.7391949386756,80.25794492313355 1387.9240253354606,48.11103853438599 1415.4785165258156,25.148962542423448 Z" fill="url(#leaf20)" opacity="0.21" transform="rotate(354.3 1415.5 71.1)"/>
    <path d="M 54.413771158348425,818.7435433370575 C 89.48070245724783,847.9659860861404 101.16967955688096,888.8774059348564 54.413771158348425,935.633314333389 C 7.657862759815885,888.8774059348564 19.34683985944902,847.9659860861404 54.413771158348425,818.7435433370575 Z" fill="url(#leaf21)" opacity="0.24" transform="rotate(78.9 54.4 877.2)"/>
    <path d="M 1770.0469510321843,844.7434159878242 C 1816.3177781047889,883.3024385483279 1831.7413871289905,937.2850701330333 1770.0469510321843,998.9795062298394 C 1708.3525149353782,937.2850701330333 1723.7761239595798,883.3024385483279 1770.0469510321843,844.7434159878242 Z" fill="url(#leaf22)" opacity="0.15" transform="rotate(159.1 1770.0 921.9)"/>
    <path d="M 319.30210742436356,178.98741030058468 C 339.724168401215,196.0057944479609 346.53152206016546,219.8315322542876 319.30210742436356,247.06094689008953 C 292.07269278856165,219.8315322542876 298.8800464475121,196.0057944479609 319.30210742436356,178.98741030058468 Z" fill="url(#leaf23)" opacity="0.20" transform="rotate(65.8 319.3 213.0)"/>
    <path d="M 1753.621713963178,260.04293308312475 C 1771.8678377987362,275.2480362794231 1777.9498790772554,296.53518075424086 1753.621713963178,320.8633458683183 C 1729.2935488491007,296.53518075424086 1735.37559012762,275.2480362794231 1753.621713963178,260.04293308312475 Z" fill="url(#leaf24)" opacity="0.19" transform="rotate(330.0 1753.6 290.5)"/>
    <path d="M 1425.3198143032992,886.2068617335058 C 1471.4191152833948,924.6229458835854 1486.7855489434266,978.4054636936969 1425.3198143032992,1039.8711983338244 C 1363.8540796631717,978.4054636936969 1379.2205133232035,924.6229458835854 1425.3198143032992,886.2068617335058 Z" fill="url(#leaf25)" opacity="0.19" transform="rotate(52.0 1425.3 963.0)"/>
    <path d="M 1466.4407463728826,521.2214551523327 C 1504.9563039451823,553.317753129249 1517.7948231359487,598.2525702969319 1466.4407463728826,649.6066470599981 C 1415.0866696098165,598.2525702969319 1427.9251888005829,553.317753129249 1466.4407463728826,521.2214551523327 Z" fill="url(#leaf26)" opacity="0.24" transform="rotate(283.8 1466.4 585.4)"/>
    <path d="M 693.5315824176982,487.6516524556899 C 715.0911517296652,505.61796021566226 722.2776748336541,530.7707910796237 693.5315824176982,559.5168834955796 C 664.7854900017423,530.7707910796237 671.9720131057313,505.61796021566226 693.5315824176982,487.6516524556899 Z" fill="url(#leaf27)" opacity="0.16" transform="rotate(143.9 693.5 523.6)"/>
    <path d="M 1031.7649654357979,662.6278582376182 C 1054.6722455895645,681.7172583657568 1062.3080056408198,708.4424185451511 1031.7649654357979,738.985458750173 C 1001.2219252307759,708.4424185451511 1008.8576852820314,681.7172583657568 1031.7649654357979,662.6278582376182 Z" fill="url(#leaf28)" opacity="0.16" transform="rotate(274.3 1031.8 700.8)"/>
    <path d="M 509.03634280664056,563.2102200017415 C 549.1320144590377,596.6232797120724 562.49723834317,643.4015633065356 509.03634280664056,696.8624588430652 C 455.5754472701111,643.4015633065356 468.9406711542435,596.6232797120724 509.03634280664056,563.2102200017415 Z" fill="url(#leaf29)" opacity="0.20" transform="rotate(320.7 509.0 630.0)"/>
    <path d="M 178.86494562250945,720.2467689150169 C 201.93994970516016,739.4759389838925 209.6316177327104,766.3967770803183 178.86494562250945,797.1634491905193 C 148.0982735123085,766.3967770803183 155.78994153985875,739.4759389838925 178.86494562250945,720.2467689150169 Z" fill="url(#leaf0)" opacity="0.23" transform="rotate(265.4 178.9 758.7)"/>
    <path d="M 1796.6825912334787,840.8843253916203 C 1828.1023625055134,867.0674681183159 1838.5756195961915,903.7238679356897 1796.6825912334787,945.6168962984026 C 1754.7895628707658,903.7238679356897 1765.262819961444,867.0674681183159 1796.6825912334787,840.8843253916203 Z" fill="url(#leaf1)" opacity="0.23" transform="rotate(260.0 1796.7 893.3)"/>
    <path d="M 1210.4073103844237,317.5458688726423 C 1243.6736753120144,345.26783964563464 1254.7624636212115,384.07859872782393 1210.4073103844237,428.43375196461164 C 1166.0521571476359,384.07859872782393 1177.140945456833,345.26783964563464 1210.4073103844237,317.5458688726423 Z" fill="url(#leaf2)" opacity="0.17" transform="rotate(9.1 1210.4 373.0)"/>
    <path d="M 1472.6004731888354,632.4776325877951 C 1493.635787387341,650.0070610865499 1500.647558786843,674.5482609848066 1472.6004731888354,702.5953465828143 C 1444.5533875908277,674.5482609848066 1451.5651589903298,650.0070610865499 1472.6004731888354,632.4776325877951 Z" fill="url(#leaf3)" opacity="0.23" transform="rotate(343.1 1472.6 667.5)"/>
    <path d="M 1664.162898323759,218.172498805368 C 1687.7646067088995,237.84058912631838 1695.6318428372797,265.37591557564895 1664.162898323759,296.8448600891695 C 1632.6939538102383,265.37591557564895 1640.5611899386186,237.84058912631838 1664.162898323759,218.172498805368 Z" fill="url(#leaf4)" opacity="0.16" transform="rotate(326.9 1664.2 257.5)"/>
    <path d="M 1108.965734048459,901.810885235655 C 1127.4522530131476,917.2163177062289 1133.6144260013773,938.7839231650324 1108.965734048459,963.4326151179507 C 1084.3170420955405,938.7839231650324 1090.4792150837702,917.2163177062289 1108.965734048459,901.810885235655 Z" fill="url(#leaf5)" opacity="0.20" transform="rotate(223.9 1109.0 932.6)"/>
    <path d="M 1364.7162868394073,669.4981652277365 C 1390.495694939621,690.981005311248 1399.0888309730256,721.056981428164 1364.7162868394073,755.4295255617824 C 1330.343742705789,721.056981428164 1338.9368787391936,690.981005311248 1364.7162868394073,669.4981652277365 Z" fill="url(#leaf6)" opacity="0.25" transform="rotate(135.0 1364.7 712.5)"/>
    <path d="M 1244.611754087985,518.7877621030865 C 1266.6705008067038,537.1700510353522 1274.0234163796101,562.9052555405241 1244.611754087985,592.3169178321492 C 1215.2000917963599,562.9052555405241 1222.5530073692662,537.1700510353522 1244.611754087985,518.7877621030865 Z" fill="url(#leaf7)" opacity="0.23" transform="rotate(68.9 1244.6 555.6)"/>
    <path d="M 341.1387252366568,312.79793009206185 C 360.53858704226997,328.96448159673946 367.00520764414097,351.59765370328813 341.1387252366568,377.4641361107723 C 315.2722428291726,351.59765370328813 321.7388634310436,328.96448159673946 341.1387252366568,312.79793009206185 Z" fill="url(#leaf8)" opacity="0.23" transform="rotate(119.7 341.1 345.1)"/>
    <path d="M 1501.2540651030613,730.8062497350222 C 1527.7167146926015,752.8584577263058 1536.537597889115,783.7315489141026 1501.2540651030613,819.0150817001563 C 1465.9705323170076,783.7315489141026 1474.791415513521,752.8584577263058 1501.2540651030613,730.8062497350222 Z" fill="url(#leaf9)" opacity="0.16" transform="rotate(36.0 1501.3 774.9)"/>
    <path d="M 280.0950230303755,865.732413292447 C 304.0289191094609,885.6773266916847 312.00688446915603,913.6002054506176 280.0950230303755,945.5120668893982 C 248.183161591595,913.6002054506176 256.1611269512901,885.6773266916847 280.0950230303755,865.732413292447 Z" fill="url(#leaf10)" opacity="0.17" transform="rotate(215.9 280.1 905.6)"/>
    <path d="M 137.34824334658663,657.0219389374665 C 156.94423236018488,673.3519297821318 163.476228698051,696.2139169646631 137.34824334658663,722.3419023161275 C 111.22025799512228,696.2139169646631 117.75225433298837,673.3519297821318 137.34824334658663,657.0219389374665 Z" fill="url(#leaf11)" opacity="0.20" transform="rotate(70.7 137.3 689.7)"/>
    <path d="M 1827.9119643918993,764.8373186831307 C 1847.56707373116,781.2165764658479 1854.118776844247,804.147537361652 1827.9119643918993,830.3543498139995 C 1801.7051519395518,804.147537361652 1808.2568550526387,781.2165764658479 1827.9119643918993,764.8373186831307 Z" fill="url(#leaf12)" opacity="0.21" transform="rotate(15.7 1827.9 797.6)"/>
    <path d="M 1774.1198427504883,191.00329073968211 C 1813.2072419045269,223.57612336804772 1826.236374955873,269.1780890477595 1774.1198427504883,321.29462125314444 C 1722.0033105451034,269.1780890477595 1735.0324435964496,223.57612336804772 1774.1198427504883,191.00329073968211 Z" fill="url(#leaf13)" opacity="0.21" transform="rotate(115.7 1774.1 256.1)"/>
    <path d="M 172.02977249513455,870.9033204523564 C 190.86686344858083,886.600896246895 197.14589376639626,908.577502359249 172.02977249513455,933.6936236305107 C 146.91365122387285,908.577502359249 153.19268154168827,886.600896246895 172.02977249513455,870.9033204523564 Z" fill="url(#leaf14)" opacity="0.21" transform="rotate(181.4 172.0 902.3)"/>
    <path d="M 1840.1889451715115,57.36111892666278 C 1886.8866544515306,96.275876660012 1902.4525575448702,150.75653748670092 1840.1889451715115,213.02014986005966 C 1777.9253327981528,150.75653748670092 1793.4912358914924,96.275876660012 1840.1889451715115,57.36111892666278 Z" fill="url(#leaf15)" opacity="0.17" transform="rotate(175.3 1840.2 135.2)"/>
    <path d="M 620.2684959531731,138.02605734292771 C 657.9150958009842,169.39822388277034 670.4639624169213,213.31925703854998 620.2684959531731,263.5147235022981 C 570.0730294894249,213.31925703854998 582.621896105362,169.39822388277034 620.2684959531731,138.02605734292771 Z" fill="url(#leaf16)" opacity="0.16" transform="rotate(89.5 620.3 200.8)"/>
    <path d="M 1313.4730025948109,301.73097428410085 C 1339.8370033648685,323.70097492581556 1348.6250036215545,354.4589758242162 1313.4730025948109,389.6109768509598 C 1278.3210015680672,354.4589758242162 1287.1090018247532,323.70097492581556 1313.4730025948109,301.73097428410085 Z" fill="url(#leaf17)" opacity="0.19" transform="rotate(79.2 1313.5 345.7)"/>
    <path d="M 153.82008526337245,509.6073766771034 C 176.22967358900237,528.2820336151284 183.69953636421235,554.4265533283633 153.82008526337245,584.3060044292032 C 123.94063416253255,554.4265533283633 131.41049693774252,528.2820336151284 153.82008526337245,509.6073766771034 Z" fill="url(#leaf18)" opacity="0.20" transform="rotate(334.1 153.8 547.0)"/>
    <path d="M 1723.1328752809277,576.2956068527674 C 1743.6803581132629,593.4185092130467 1750.5295190573747,617.3905725174378 1723.1328752809277,644.7872162938847 C 1695.7362315044807,617.3905725174378 1702.5853924485925,593.4185092130467 1723.1328752809277,576.2956068527674 Z" fill="url(#leaf19)" opacity="0.22" transform="rotate(351.7 1723.1 610.5)"/>
    <path d="M 829.4582679834305,663.6429551817224 C 863.2798142875384,691.8275771018124 874.5536630555745,731.2860477899384 829.4582679834305,776.3814428620823 C 784.3628729112864,731.2860477899384 795.6367216793225,691.8275771018124 829.4582679834305,663.6429551817224 Z" fill="url(#leaf20)" opacity="0.16" transform="rotate(265.2 829.5 720.0)"/>
    <path d="M 1008.8404115347769,48.77012027104041 C 1030.2132739034332,66.58083891158742 1037.337561359652,91.51584500835321 1008.8404115347769,120.01299483322842 C 980.3432617099016,91.51584500835321 987.4675491661204,66.58083891158742 1008.8404115347769,48.77012027104041 Z" fill="url(#leaf21)" opacity="0.22" transform="rotate(85.1 1008.8 84.4)"/>
    <path d="M 480.1193898888387,764.7384864237715 C 519.2011460875109,797.3066165893316 532.2283981537349,842.9019988211157 480.1193898888387,895.0110070860119 C 428.0103816239425,842.9019988211157 441.0376336901666,797.3066165893316 480.1193898888387,764.7384864237715 Z" fill="url(#leaf22)" opacity="0.15" transform="rotate(288.2 480.1 829.9)"/>
    <path d="M 729.7019344383465,984.8413583363002 C 752.0680795958501,1003.4798126342199 759.523461315018,1029.5736486513076 729.7019344383465,1059.3951755279793 C 699.8804075616749,1029.5736486513076 707.3357892808428,1003.4798126342199 729.7019344383465,984.8413583363002 Z" fill="url(#leaf23)" opacity="0.15" transform="rotate(27.4 729.7 1022.1)"/>
    <path d="M 283.72449294862486,492.7216876757635 C 329.00115393497424,530.4522384977214 344.09337426375737,583.2750096484623 283.72449294862486,643.6438909635948 C 223.35561163349237,583.2750096484623 238.4478319622755,530.4522384977214 283.72449294862486,492.7216876757635 Z" fill="url(#leaf24)" opacity="0.18" transform="rotate(144.3 283.7 568.2)"/>
    <path d="M 854.3089343025275,23.768866073159757 C 880.7385894577618,45.79357870252169 889.5484745095066,76.6281763836284 854.3089343025275,111.8677165906075 C 819.0693940955484,76.6281763836284 827.8792791472932,45.79357870252169 854.3089343025275,23.768866073159757 Z" fill="url(#leaf25)" opacity="0.25" transform="rotate(264.1 854.3 67.8)"/>
    <path d="M 935.8443255461008,525.4952155298519 C 962.7120676422002,547.8850006099347 971.6679816742333,579.2306997220505 935.8443255461008,615.054355850183 C 900.0206694179683,579.2306997220505 908.9765834500014,547.8850006099347 935.8443255461008,525.4952155298519 Z" fill="url(#leaf26)" opacity="0.15" transform="rotate(258.0 935.8 570.3)"/>
    <path d="M 682.491682856091,255.74700810919626 C 714.1228481572358,282.10631252681696 724.6665699242841,319.00933871148595 682.491682856091,361.1842257796791 C 640.3167957878978,319.00933871148595 650.8605175549461,282.10631252681696 682.491682856091,255.74700810919626 Z" fill="url(#leaf27)" opacity="0.18" transform="rotate(333.6 682.5 308.5)"/>
    <path d="M 201.19305303237005,215.5613921756934 C 223.04272310576783,233.76945057019157 230.3259464635671,259.260732322489 201.19305303237005,288.393625753686 C 172.06015960117298,259.260732322489 179.34338295897226,233.76945057019157 201.19305303237005,215.5613921756934 Z" fill="url(#leaf28)" opacity="0.24" transform="rotate(325.4 201.2 252.0)"/>
    <path d="M 301.9669273056163,89.84819893820307 C 349.65512395515316,129.58836281281714 365.5511895049988,185.2245922372768 301.9669273056163,248.8088544366593 C 238.38266510623382,185.2245922372768 254.27873065607946,129.58836281281714 301.9669273056163,89.84819893820307 Z" fill="url(#leaf29)" opacity="0.22" transform="rotate(233.7 302.0 169.3)"/>
    <path d="M 1140.97081737461,227.73049409215253 C 1172.054844371905,253.63384992323154 1182.4161867043365,289.89854808674215 1140.97081737461,331.34391741646857 C 1099.5254480448837,289.89854808674215 1109.8867903773153,253.63384992323154 1140.97081737461,227.73049409215253 Z" fill="url(#leaf0)" opacity="0.15" transform="rotate(343.2 1141.0 279.5)"/>
    <path d="M 531.0995724542422,429.4938542606837 C 554.090349629121,448.65283523974927 561.7539420207472,475.47540861044115 531.0995724542422,506.1297781769461 C 500.44520288773725,475.47540861044115 508.1087952793635,448.65283523974927 531.0995724542422,429.4938542606837 Z" fill="url(#leaf1)" opacity="0.24" transform="rotate(313.9 531.1 467.8)"/>
    <path d="M 959.679548843472,48.36248597178508 C 1006.590912984101,87.45528942230925 1022.2280343643107,142.18521425304309 959.679548843472,204.73369977388174 C 897.1310633226334,142.18521425304309 912.7681847028431,87.45528942230925 959.679548843472,48.36248597178508 Z" fill="url(#leaf2)" opacity="0.17" transform="rotate(114.3 959.7 126.5)"/>
    <path d="M 347.57614771500926,75.4616330063646 C 370.2840067910828,94.38484890309252 377.85329314977395,120.87735115851162 347.57614771500926,151.1544965932763 C 317.29900228024457,120.87735115851162 324.8682886389357,94.38484890309252 347.57614771500926,75.4616330063646 Z" fill="url(#leaf3)" opacity="0.24" transform="rotate(272.5 347.6 113.3)"/>
    <path d="M 327.2798795685301,269.5771923129522 C 369.74931072245175,304.9683849412203 383.90578777375896,354.51605462079556 327.2798795685301,411.1419628260245 C 270.6539713633012,354.51605462079556 284.8104484146084,304.9683849412203 327.2798795685301,269.5771923129522 Z" fill="url(#leaf4)" opacity="0.15" transform="rotate(153.5 327.3 340.4)"/>
    <path d="M 597.9537408231461,6.2699595499279965 C 635.7188961109247,37.74092228974355 648.3072812068509,81.80027012548533 597.9537408231461,132.1538105091902 C 547.6002004394412,81.80027012548533 560.1885855353675,37.74092228974355 597.9537408231461,6.2699595499279965 Z" fill="url(#leaf5)" opacity="0.22" transform="rotate(297.6 598.0 69.2)"/>
    <path d="M 263.9126675031341,909.4773998422904 C 288.7575937942397,930.1815050848785 297.0392358912749,959.1672524245016 263.9126675031341,992.2938208126425 C 230.78609911499333,959.1672524245016 239.06774121202852,930.1815050848785 263.9126675031341,909.4773998422904 Z" fill="url(#leaf6)" opacity="0.19" transform="rotate(28.6 263.9 950.9)"/>
    <path d="M 1070.5572956193678,884.5418415101694 C 1098.354279024392,907.7059943476899 1107.6199401594004,940.1358083202183 1070.5572956193678,977.1984528602509 C 1033.4946510793352,940.1358083202183 1042.7603122143435,907.7059943476899 1070.5572956193678,884.5418415101694 Z" fill="url(#leaf7)" opacity="0.16" transform="rotate(190.6 1070.6 930.9)"/>
    <path d="M 864.8386938276947,872.6424030950876 C 884.1989851821287,888.7759792237827 890.6524156336068,911.3629858039557 864.8386938276947,937.1767076098678 C 839.0249720217826,911.3629858039557 845.4784024732606,888.7759792237827 864.8386938276947,872.6424030950876 Z" fill="url(#leaf8)" opacity="0.18" transform="rotate(190.6 864.8 904.9)"/>
    <path d="M 348.20718264782846,749.9197849815067 C 373.61074977902297,771.0894242575021 382.0786054894211,800.7269192438956 348.20718264782846,834.5983420854883 C 314.33575980623584,800.7269192438956 322.80361551663395,771.0894242575021 348.20718264782846,749.9197849815067 Z" fill="url(#leaf9)" opacity="0.20" transform="rotate(20.5 348.2 792.3)"/>
    <path d="M 1606.4248570256273,457.6041087393034 C 1629.2482287965029,476.62358521503313 1636.8560193867947,503.2508522810547 1606.4248570256273,533.6820146422222 C 1575.9936946644598,503.2508522810547 1583.6014852547517,476.62358521503313 1606.4248570256273,457.6041087393034 Z" fill="url(#leaf10)" opacity="0.18" transform="rotate(147.4 1606.4 495.6)"/>
    <path d="M 1009.4014890354839,536.2220154344755 C 1039.3285709454115,561.1612503594151 1049.3042649153874,596.0761792543307 1009.4014890354839,635.9789551342342 C 969.4987131555804,596.0761792543307 979.4744071255564,561.1612503594151 1009.4014890354839,536.2220154344755 Z" fill="url(#leaf11)" opacity="0.24" transform="rotate(234.0 1009.4 586.1)"/>
    <path d="M 856.278449141857,534.218813885743 C 896.4157606383078,567.6665734661186 909.7948644704582,614.4934368786446 856.278449141857,668.0098522072458 C 802.7620338132558,614.4934368786446 816.1411376454062,567.6665734661186 856.278449141857,534.218813885743 Z" fill="url(#leaf12)" opacity="0.22" transform="rotate(341.0 856.3 601.1)"/>
    <path d="M 1393.0220995878428,173.7629493703002 C 1423.9347547610687,199.52349534798847 1434.2389731521441,235.58825971675208 1393.0220995878428,276.8051332810533 C 1351.8052260235415,235.58825971675208 1362.109444414617,199.52349534798847 1393.0220995878428,173.7629493703002 Z" fill="url(#leaf13)" opacity="0.16" transform="rotate(348.6 1393.0 225.3)"/>
    <path d="M 208.35533614916378,708.5789601522508 C 234.5111671162851,730.3754859581853 243.22977743865886,760.8906220864935 208.35533614916378,795.7650633759886 C 173.4808948596687,760.8906220864935 182.19950518204246,730.3754859581853 208.35533614916378,708.5789601522508 Z" fill="url(#leaf14)" opacity="0.22" transform="rotate(214.1 208.4 752.2)"/>
    <path d="M 448.8962040222848,835.5336438288255 C 470.81202150904784,853.7968250677947 478.1172940046355,879.3652788023516 448.8962040222848,908.5863687847022 C 419.6751140399341,879.3652788023516 426.98038653552175,853.7968250677947 448.8962040222848,835.5336438288255 Z" fill="url(#leaf15)" opacity="0.17" transform="rotate(200.8 448.9 872.1)"/>
    <path d="M 1283.9923701618952,792.175185290605 C 1322.504814146789,824.2688886113498 1335.3422954750868,869.2000732603925 1283.9923701618952,920.5499985735842 C 1232.6424448487037,869.2000732603925 1245.4799261770015,824.2688886113498 1283.9923701618952,792.175185290605 Z" fill="url(#leaf16)" opacity="0.25" transform="rotate(177.6 1284.0 856.4)"/>
    <path d="M 66.44720546844957,506.1096352547361 C 102.3574815900145,536.0348653560402 114.32757363053615,577.930187497866 66.44720546844957,625.8105556599526 C 18.566837306362984,577.930187497866 30.536929346884634,536.0348653560402 66.44720546844957,506.1096352547361 Z" fill="url(#leaf17)" opacity="0.20" transform="rotate(51.5 66.4 566.0)"/>
    <path d="M 318.2035865541187,282.38355381080646 C 343.95533474928936,303.84334397344867 352.53925081434625,333.88705020114776 318.2035865541187,368.2227144613753 C 283.8679222938912,333.88705020114776 292.45183835894807,303.84334397344867 318.2035865541187,282.38355381080646 Z" fill="url(#leaf18)" opacity="0.16" transform="rotate(104.0 318.2 325.3)"/>
    <path d="M 747.2703580915598,827.4191938811574 C 781.1804694756552,855.6776200345703 792.4838399370203,895.2394166493482 747.2703580915598,940.4528984948087 C 702.0568762460994,895.2394166493482 713.3602467074645,855.6776200345703 747.2703580915598,827.4191938811574 Z" fill="url(#leaf19)" opacity="0.20" transform="rotate(77.6 747.3 883.9)"/>
    <path d="M 79.54631765903304,234.10294978661383 C 118.32721407203468,266.4203634641152 131.2541795430352,311.6647426126171 79.54631765903304,363.37260449661926 C 27.83845577503085,311.6647426126171 40.7654212460314,266.4203634641152 79.54631765903304,234.10294978661383 Z" fill="url(#leaf20)" opacity="0.21" transform="rotate(172.4 79.5 298.7)"/>
    <path d="M 113.92547527434436,387.10977370469556 C 155.98046232047201,422.1555962431352 169.9987913358479,471.2197477969508 113.92547527434436,527.2930638584544 C 57.85215921284084,471.2197477969508 71.87048822821671,422.1555962431352 113.92547527434436,387.10977370469556 Z" fill="url(#leaf21)" opacity="0.18" transform="rotate(104.4 113.9 457.2)"/>
    <path d="M 457.0967328785839,139.75451981646526 C 490.17874234080034,167.32286103497896 501.2060788282058,205.91853874089813 457.0967328785839,250.02788469052004 C 412.987386928962,205.91853874089813 424.0147234163675,167.32286103497896 457.0967328785839,139.75451981646526 Z" fill="url(#leaf22)" opacity="0.15" transform="rotate(145.8 457.1 194.9)"/>
    <path d="M 148.94363970731837,471.2401251701958 C 169.34814857125033,488.2438825568058 176.1496515258943,512.0491428980597 148.94363970731837,539.2551547166356 C 121.73762788874242,512.0491428980597 128.5391308433864,488.2438825568058 148.94363970731837,471.2401251701958 Z" fill="url(#leaf23)" opacity="0.19" transform="rotate(311.8 148.9 505.2)"/>
    <path d="M 232.06216462997642,91.02896005665036 C 266.4061498551332,119.64894774428103 277.8541449301855,159.71693050696396 232.06216462997642,205.50891080717304 C 186.27018432976735,159.71693050696396 197.71817940481964,119.64894774428103 232.06216462997642,91.02896005665036 Z" fill="url(#leaf24)" opacity="0.16" transform="rotate(69.2 232.1 148.3)"/>
    <path d="M 1775.9721374311277,775.4294431089421 C 1811.215674982363,804.7990577349715 1822.9635208327747,845.9165182114126 1775.9721374311277,892.9079016130596 C 1728.9807540294807,845.9165182114126 1740.7285998798925,804.7990577349715 1775.9721374311277,775.4294431089421 Z" fill="url(#leaf25)" opacity="0.25" transform="rotate(23.4 1776.0 834.2)"/>
    <path d="M 131.63941230763834,500.09809202830513 C 168.92808661192856,531.1719872818803 181.35764471335864,574.6754406368856 131.63941230763834,624.3936730426059 C 81.92117990191804,574.6754406368856 94.35073800334811,531.1719872818803 131.63941230763834,500.09809202830513 Z" fill="url(#leaf26)" opacity="0.20" transform="rotate(215.1 131.6 562.2)"/>
    <path d="M 770.6050869370582,610.3879287335371 C 808.8079658420178,642.2236611543368 821.5422588103376,686.7936865434563 770.6050869370582,737.7308584167356 C 719.6679150637789,686.7936865434563 732.4022080320987,642.2236611543368 770.6050869370582,610.3879287335371 Z" fill="url(#leaf27)" opacity="0.15" transform="rotate(124.0 770.6 674.1)"/>
    <path d="M 1022.7205861506534,168.16421243388248 C 1070.0726492800113,207.62426504168084 1085.8566703231309,262.86833869259857 1022.7205861506534,326.0044228650759 C 959.584501978176,262.86833869259857 975.3685230212953,207.62426504168084 1022.7205861506534,168.16421243388248 Z" fill="url(#leaf28)" opacity="0.17" transform="rotate(249.5 1022.7 247.1)"/>
    <path d="M 1232.7626877529772,596.1306614267186 C 1265.7310427004236,623.6042905495906 1276.7204943495726,662.0673713216115 1232.7626877529772,706.0251779182069 C 1188.8048811563817,662.0673713216115 1199.7943328055308,623.6042905495906 1232.7626877529772,596.1306614267186 Z" fill="url(#leaf29)" opacity="0.15" transform="rotate(51.1 1232.8 651.1)"/>
    <path d="M 110.28609225494705,256.8887594324534 C 154.74792044821942,293.94028292684703 169.56852984597685,345.8124158189981 110.28609225494705,405.0948534100279 C 51.003654663917246,345.8124158189981 65.8242640616747,293.94028292684703 110.28609225494705,256.8887594324534 Z" fill="url(#leaf0)" opacity="0.15" transform="rotate(115.2 110.3 331.0)"/>
    <path d="M 97.21306366021423,196.64507676196473 C 136.9614173130746,229.76870480601505 150.21086853069474,276.1417840676855 97.21306366021423,329.139588938166 C 44.21525878973372,276.1417840676855 57.46471000735385,229.76870480601505 97.21306366021423,196.64507676196473 Z" fill="url(#leaf1)" opacity="0.21" transform="rotate(228.1 97.2 262.9)"/>
    <path d="M 1707.521092266224,37.19279473635213 C 1749.6417983604422,72.29338314820055 1763.6820337251816,121.43420692478836 1707.521092266224,177.59514838374582 C 1651.3601508072666,121.43420692478836 1665.400386172006,72.29338314820055 1707.521092266224,37.19279473635213 Z" fill="url(#leaf2)" opacity="0.21" transform="rotate(119.8 1707.5 107.4)"/>
    <path d="M 633.4657855820873,346.88163419134577 C 670.4660706451984,377.7152050772717 682.7994989995688,420.88220431756804 633.4657855820873,470.2159177350496 C 584.1320721646058,420.88220431756804 596.4655005189761,377.7152050772717 633.4657855820873,346.88163419134577 Z" fill="url(#leaf3)" opacity="0.17" transform="rotate(113.5 633.5 408.5)"/>
    <path d="M 1775.2503272664733,897.4991108875828 C 1812.4716072449648,928.5168442029923 1824.8787005711285,971.9416708445657 1775.2503272664733,1021.570044149221 C 1725.621953961818,971.9416708445657 1738.0290472879817,928.5168442029923 1775.2503272664733,897.4991108875828 Z" fill="url(#leaf4)" opacity="0.22" transform="rotate(145.5 1775.3 959.5)"/>
    <path d="M 1175.6084611833542,481.15402364389354 C 1219.0222378625015,517.3321708765163 1233.4934967555505,567.9815770021881 1175.6084611833542,625.8666125743845 C 1117.7234256111578,567.9815770021881 1132.1946845042069,517.3321708765163 1175.6084611833542,481.15402364389354 Z" fill="url(#leaf5)" opacity="0.17" transform="rotate(79.3 1175.6 553.5)"/>
    <path d="M 1185.0666617194493,344.02620828292953 C 1229.7274350438756,381.2435193866181 1244.614359485351,433.3477549317822 1185.0666617194493,492.895452697684 C 1125.5189639535474,433.3477549317822 1140.4058883950229,381.2435193866181 1185.0666617194493,344.02620828292953 Z" fill="url(#leaf6)" opacity="0.21" transform="rotate(217.3 1185.1 418.5)"/>
    <path d="M 1765.0572802423042,24.50304976747067 C 1806.2525179901857,58.83241455737196 1819.9842639061462,106.89352526323377 1765.0572802423042,161.82050892707582 C 1710.130296578462,106.89352526323377 1723.8620424944227,58.83241455737196 1765.0572802423042,24.50304976747067 Z" fill="url(#leaf7)" opacity="0.18" transform="rotate(152.9 1765.1 93.2)"/>
    <path d="M 1265.8775429805526,736.3677754945211 C 1284.4489346156083,751.8439351904009 1290.63939849396,773.5105587646325 1265.8775429805526,798.2724142780401 C 1241.115687467145,773.5105587646325 1247.3061513454968,751.8439351904009 1265.8775429805526,736.3677754945211 Z" fill="url(#leaf8)" opacity="0.20" transform="rotate(17.7 1265.9 767.3)"/>
    <path d="M 513.50816200299,669.9916137241717 C 532.6845358659212,685.9719252766143 539.0766604868983,708.344361450034 513.50816200299,733.9128599339422 C 487.9396635190819,708.344361450034 494.3317881400589,685.9719252766143 513.50816200299,669.9916137241717 Z" fill="url(#leaf9)" opacity="0.15" transform="rotate(277.7 513.5 702.0)"/>
    <path d="M 1781.4642582727902,304.6021746727002 C 1809.775025645228,328.19448081639837 1819.2119481027073,361.2237094175759 1781.4642582727902,398.971399247493 C 1743.716568442873,361.2237094175759 1753.1534909003524,328.19448081639837 1781.4642582727902,304.6021746727002 Z" fill="url(#leaf10)" opacity="0.23" transform="rotate(159.0 1781.5 351.8)"/>
    <path d="M 67.28582224744862,348.2330954213104 C 96.19355511853145,372.3228728138794 105.82946607555907,406.04856116347605 67.28582224744862,444.5922049915865 C 28.742178419338174,406.04856116347605 38.37808937636579,372.3228728138794 67.28582224744862,348.2330954213104 Z" fill="url(#leaf11)" opacity="0.19" transform="rotate(214.9 67.3 396.4)"/>
    <path d="M 1024.769506276813,650.4681563449595 C 1052.3165250725851,673.4240053414363 1061.4988646711756,705.5621939365037 1024.769506276813,742.2915523308665 C 988.0401478824502,705.5621939365037 997.222487481041,673.4240053414363 1024.769506276813,650.4681563449595 Z" fill="url(#leaf12)" opacity="0.25" transform="rotate(240.9 1024.8 696.4)"/>
    <path d="M 1460.1981607351036,368.5585912996838 C 1505.133125288342,406.00439509404913 1520.111446806088,458.42852040616054 1460.1981607351036,518.341806477145 C 1400.2848746641191,458.42852040616054 1415.2631961818652,406.00439509404913 1460.1981607351036,368.5585912996838 Z" fill="url(#leaf13)" opacity="0.17" transform="rotate(326.6 1460.2 443.5)"/>
    <path d="M 970.3336652241848,52.849196053655874 C 1016.803854128463,91.57435347388773 1032.2939170965558,145.7895738622123 970.3336652241848,207.74982573458328 C 908.3734133518138,145.7895738622123 923.8634763199066,91.57435347388773 970.3336652241848,52.849196053655874 Z" fill="url(#leaf14)" opacity="0.15" transform="rotate(304.9 970.3 130.3)"/>
    <path d="M 938.760139166021,583.5682393964514 C 961.1456936973925,602.2228681725944 968.6075452078497,628.3393484591946 938.760139166021,658.1867545010234 C 908.9127331241922,628.3393484591946 916.3745846346494,602.2228681725944 938.760139166021,583.5682393964514 Z" fill="url(#leaf15)" opacity="0.19" transform="rotate(104.7 938.8 620.9)"/>
    <path d="M 1511.1834399253905,857.9473925689756 C 1557.2104117707572,896.3032024401145 1572.552735719213,950.0013362597091 1511.1834399253905,1011.3706320535314 C 1449.8141441315681,950.0013362597091 1465.1564680800238,896.3032024401145 1511.1834399253905,857.9473925689756 Z" fill="url(#leaf16)" opacity="0.18" transform="rotate(229.6 1511.2 934.7)"/>
    <path d="M 144.04619334067883,958.4848012805812 C 185.36183797656653,992.914505143821 199.13371952186245,1041.1160905523566 144.04619334067883,1096.2036167335402 C 88.9586671594952,1041.1160905523566 102.73054870479112,992.914505143821 144.04619334067883,958.4848012805812 Z" fill="url(#leaf17)" opacity="0.17" transform="rotate(210.0 144.0 1027.3)"/>
    <path d="M 1379.5197569667048,817.1001343128651 C 1426.1916825099356,855.9934055988908 1441.748991024346,910.443985399327 1379.5197569667048,972.6732194569681 C 1317.2905229090636,910.443985399327 1332.847831423474,855.9934055988908 1379.5197569667048,817.1001343128651 Z" fill="url(#leaf18)" opacity="0.17" transform="rotate(38.1 1379.5 894.9)"/>
    <path d="M 1620.9161680849486,838.4005170798443 C 1651.4708334120066,863.862738185726 1661.6557218543594,899.5098477339604 1620.9161680849486,940.2494015033712 C 1580.1766143155378,899.5098477339604 1590.3615027578905,863.862738185726 1620.9161680849486,838.4005170798443 Z" fill="url(#leaf19)" opacity="0.19" transform="rotate(149.8 1620.9 889.3)"/>
    <path d="M 384.90993227920166,427.4440474739314 C 414.36330090651484,451.9885213300257 424.1810904489526,486.35078472855776 384.90993227920166,525.6219428983087 C 345.6387741094507,486.35078472855776 355.4565636518885,451.9885213300257 384.90993227920166,427.4440474739314 Z" fill="url(#leaf20)" opacity="0.16" transform="rotate(189.1 384.9 476.5)"/>
    <path d="M 1866.1784571599683,228.29527980186606 C 1900.366830808794,256.7855911758876 1911.7629553584027,296.6720270995177 1866.1784571599683,342.2565252979522 C 1820.5939589615339,296.6720270995177 1831.9900835111425,256.7855911758876 1866.1784571599683,228.29527980186606 Z" fill="url(#leaf21)" opacity="0.20" transform="rotate(349.7 1866.2 285.3)"/>
    <path d="M 1449.4634046224492,885.775128246986 C 1476.3331986761737,908.1666232917564 1485.289796694082,939.5147163544351 1449.4634046224492,975.3411084260679 C 1413.6370125508163,939.5147163544351 1422.5936105687247,908.1666232917564 1449.4634046224492,885.775128246986 Z" fill="url(#leaf22)" opacity="0.20" transform="rotate(296.2 1449.5 930.6)"/>
    <path d="M 695.7633638910505,279.2179312986553 C 715.8796620621254,295.9815131078843 722.5850947858169,319.4505276408049 695.7633638910505,346.2722585355713 C 668.9416329962842,319.4505276408049 675.6470657199757,295.9815131078843 695.7633638910505,279.2179312986553 Z" fill="url(#leaf23)" opacity="0.22" transform="rotate(27.7 695.8 312.7)"/>
    <path d="M 360.13212704375485,478.4784680275705 C 391.60664379523433,504.7072319871367 402.0981493790608,541.4275015305295 360.13212704375485,583.3935238658355 C 318.16610470844887,541.4275015305295 328.65761029227536,504.7072319871367 360.13212704375485,478.4784680275705 Z" fill="url(#leaf24)" opacity="0.16" transform="rotate(250.5 360.1 530.9)"/>
    <path d="M 97.53886731235994,84.01856499463537 C 118.8546676758572,101.78173196421642 125.95993446368962,126.65016572162989 97.53886731235994,155.07123287295957 C 69.11780016103026,126.65016572162989 76.22306694886268,101.78173196421642 97.53886731235994,84.01856499463537 Z" fill="url(#leaf25)" opacity="0.19" transform="rotate(171.6 97.5 119.5)"/>
    <path d="M 1459.6146146106828,287.2001329584574 C 1481.8756667501816,305.75100974137314 1489.2960174633479,331.72223723745515 1459.6146146106828,361.40364009012035 C 1429.9332117580177,331.72223723745515 1437.353562471184,305.75100974137314 1459.6146146106828,287.2001329584574 Z" fill="url(#leaf26)" opacity="0.23" transform="rotate(218.9 1459.6 324.3)"/>
    <path d="M 1051.0492008304132,819.6253377576313 C 1083.8884026583148,846.9913392808827 1094.8348032676154,885.3037414134346 1051.0492008304132,929.0893438506369 C 1007.2635983932109,885.3037414134346 1018.2099990025115,846.9913392808827 1051.0492008304132,819.6253377576313 Z" fill="url(#leaf27)" opacity="0.20" transform="rotate(303.7 1051.0 874.4)"/>
    <path d="M 742.4466712640931,708.0931570764615 C 786.6118566473192,744.8974782291499 801.3335851083946,796.4235278429137 742.4466712640931,855.3104416872152 C 683.5597574197916,796.4235278429137 698.281485880867,744.8974782291499 742.4466712640931,708.0931570764615 Z" fill="url(#leaf28)" opacity="0.18" transform="rotate(156.0 742.4 781.7)"/>
    <path d="M 1679.3198081711967,306.9997425054538 C 1701.3838939938605,325.386480691007 1708.7385892680818,351.12791415078146 1679.3198081711967,380.54669524766655 C 1649.9010270743115,351.12791415078146 1657.2557223485328,325.386480691007 1679.3198081711967,306.9997425054538 Z" fill="url(#leaf29)" opacity="0.24" transform="rotate(171.3 1679.3 343.8)"/>
    <path d="M 319.67781884696905,840.6921853102668 C 352.6883841381606,868.200989719593 363.6919059018911,906.7133158926499 319.67781884696905,950.7274029475719 C 275.663731792047,906.7133158926499 286.6672535557775,868.200989719593 319.67781884696905,840.6921853102668 Z" fill="url(#leaf0)" opacity="0.21" transform="rotate(257.1 319.7 895.7)"/>
    <path d="M 358.9823106864296,598.3743117384342 C 402.9640088477271,635.0257268728488 417.6245749014929,686.3377080610292 358.9823106864296,744.9799722760924 C 300.34004647136635,686.3377080610292 315.00061252513217,635.0257268728488 358.9823106864296,598.3743117384342 Z" fill="url(#leaf1)" opacity="0.23" transform="rotate(327.1 359.0 671.7)"/>
    <path d="M 400.9141430101128,34.07389621863629 C 431.7796705042381,59.79516913040737 442.0681796689465,95.80495120688688 400.9141430101128,136.95898786572062 C 359.7601063512791,95.80495120688688 370.04861551598754,59.79516913040737 400.9141430101128,34.07389621863629 Z" fill="url(#leaf2)" opacity="0.20" transform="rotate(110.9 400.9 85.5)"/>
    <path d="M 68.66157047200977,601.1788522579809 C 93.19398295965127,621.6225293310155 101.37145378886511,650.2436772332638 68.66157047200977,682.9535605501192 C 35.95168715515443,650.2436772332638 44.12915798436827,621.6225293310155 68.66157047200977,601.1788522579809 Z" fill="url(#leaf3)" opacity="0.23" transform="rotate(357.7 68.7 642.1)"/>
    <path d="M 1610.8338087085408,99.75137397821649 C 1656.8998748275865,138.13976241075449 1672.2552302006015,191.88350621630772 1610.8338087085408,253.30492770836852 C 1549.41238721648,191.88350621630772 1564.7677425894951,138.13976241075449 1610.8338087085408,99.75137397821649 Z" fill="url(#leaf4)" opacity="0.21" transform="rotate(228.5 1610.8 176.5)"/>
    <path d="M 1714.321002525201,530.6889113622608 C 1753.4059189236038,563.2596750275965 1766.4342243897381,608.8587441590665 1714.321002525201,660.9719660236037 C 1662.207780660664,608.8587441590665 1675.2360861267982,563.2596750275965 1714.321002525201,530.6889113622608 Z" fill="url(#leaf5)" opacity="0.22" transform="rotate(216.8 1714.3 595.8)"/>
    <path d="M 734.0001904070905,873.9948626105897 C 776.2913175625542,909.2374685734762 790.3883599477088,958.5771169215172 734.0001904070905,1014.9652864621355 C 677.6120208664722,958.5771169215172 691.7090632516267,909.2374685734762 734.0001904070905,873.9948626105897 Z" fill="url(#leaf6)" opacity="0.20" transform="rotate(176.5 734.0 944.5)"/>
    <path d="M 248.31355275425852,463.4393049262592 C 282.08180972145345,491.5795190655883 293.3378953771851,530.975818860649 248.31355275425852,576.0001614835755 C 203.28921013133197,530.975818860649 214.5452957870636,491.5795190655883 248.31355275425852,463.4393049262592 Z" fill="url(#leaf7)" opacity="0.22" transform="rotate(70.0 248.3 519.7)"/>
    <path d="M 937.599591968871,493.0993325748421 C 971.3729678179411,521.2438124490671 982.6307597676312,560.6460842729823 937.599591968871,605.6772520717425 C 892.5684241701108,560.6460842729823 903.8262161198008,521.2438124490671 937.599591968871,493.0993325748421 Z" fill="url(#leaf8)" opacity="0.19" transform="rotate(226.1 937.6 549.4)"/>
    <path d="M 1585.2866199187283,778.5673190852294 C 1610.74123267057,799.779496378431 1619.2261035878507,829.4765445889132 1585.2866199187283,863.4160282580356 C 1551.347136249606,829.4765445889132 1559.8320071668866,799.779496378431 1585.2866199187283,778.5673190852294 Z" fill="url(#leaf9)" opacity="0.18" transform="rotate(341.6 1585.3 821.0)"/>
    <path d="M 1104.3932628455448,518.8924917343194 C 1124.3919312200944,535.5580487131107 1131.058154011611,558.8898284834187 1104.3932628455448,585.5547196494848 C 1077.7283716794786,558.8898284834187 1084.3945944709951,535.5580487131107 1104.3932628455448,518.8924917343194 Z" fill="url(#leaf10)" opacity="0.16" transform="rotate(79.7 1104.4 552.2)"/>
    <path d="M 1626.716604360257,314.7460453042918 C 1645.9355347057103,330.76182059216956 1652.3418448208613,353.1839059951984 1626.716604360257,378.8091464558029 C 1601.0913638996526,353.1839059951984 1607.4976740148036,330.76182059216956 1626.716604360257,314.7460453042918 Z" fill="url(#leaf11)" opacity="0.21" transform="rotate(331.9 1626.7 346.8)"/>
    <path d="M 65.25413295952899,185.7982591105148 C 112.60799349553847,225.25980955718939 128.3926136742083,280.5059801825338 65.25413295952899,343.6444608972131 C 2.1156522448496844,280.5059801825338 17.90027242351951,225.25980955718939 65.25413295952899,185.7982591105148 Z" fill="url(#leaf12)" opacity="0.18" transform="rotate(193.0 65.3 264.7)"/>
    <path d="M 1318.5628490990246,91.79033862625313 C 1337.6125341511472,107.66507616968875 1343.9624291685216,129.8897087304986 1318.5628490990246,155.28928879999555 C 1293.1632690295276,129.8897087304986 1299.513164046902,107.66507616968875 1318.5628490990246,91.79033862625313 Z" fill="url(#leaf13)" opacity="0.18" transform="rotate(276.4 1318.6 123.5)"/>
    <path d="M 769.5719401831552,17.567359018683938 C 801.7346547606401,44.36962116658793 812.4555596198016,81.89278817365354 769.5719401831552,124.77640761029994 C 726.6883207465088,81.89278817365354 737.4092256056704,44.36962116658793 769.5719401831552,17.567359018683938 Z" fill="url(#leaf14)" opacity="0.22" transform="rotate(80.4 769.6 71.2)"/>
    <path d="M 1023.3557168595792,122.36780698037381 C 1062.0916799555073,154.6477762269805 1075.00366765415,199.8397331722299 1023.3557168595792,251.4876839668006 C 971.7077660650084,199.8397331722299 984.6197537636511,154.6477762269805 1023.3557168595792,122.36780698037381 Z" fill="url(#leaf15)" opacity="0.16" transform="rotate(175.7 1023.4 186.9)"/>
    <path d="M 1286.8718886626439,280.64194097595555 C 1318.887711293452,307.3217931682956 1329.559652170388,344.6735862375717 1286.8718886626439,387.3613497453158 C 1244.1841251548997,344.6735862375717 1254.8560660318358,307.3217931682956 1286.8718886626439,280.64194097595555 Z" fill="url(#leaf16)" opacity="0.22" transform="rotate(10.5 1286.9 334.0)"/>
    <path d="M 518.197686954931,580.5914191745086 C 559.4760168318221,614.9900274052512 573.2354601241192,663.1480789282909 518.197686954931,718.1858520974791 C 463.1599137857428,663.1480789282909 476.91935707803987,614.9900274052512 518.197686954931,580.5914191745086 Z" fill="url(#leaf17)" opacity="0.18" transform="rotate(83.4 518.2 649.4)"/>
    <path d="M 253.95528664954668,765.8266135795946 C 288.2441853380033,794.4006958199751 299.67381823415553,834.404410956508 253.95528664954668,880.1229425411168 C 208.23675506493782,834.404410956508 219.66638796109004,794.4006958199751 253.95528664954668,765.8266135795946 Z" fill="url(#leaf18)" opacity="0.18" transform="rotate(52.9 254.0 823.0)"/>
    <path d="M 630.4766181477717,853.5820651403681 C 670.4069503018079,886.8573419353982 683.71706101982,933.4427294484404 630.4766181477717,986.6831723204887 C 577.2361752757233,933.4427294484404 590.5462859937354,886.8573419353982 630.4766181477717,853.5820651403681 Z" fill="url(#leaf19)" opacity="0.25" transform="rotate(257.7 630.5 920.1)"/>
    <path d="M 280.23722711199395,615.8780264211725 C 317.806423561996,647.1856901295076 330.32948904533,691.0164193211766 280.23722711199395,741.1086812545127 C 230.14496517865788,691.0164193211766 242.6680306619919,647.1856901295076 280.23722711199395,615.8780264211725 Z" fill="url(#leaf20)" opacity="0.18" transform="rotate(299.5 280.2 678.5)"/>
    <path d="M 1126.6545187714758,189.13022726917796 C 1160.1078493070493,217.00800271548917 1171.2589594855738,256.0368883403249 1126.6545187714758,300.6413290544228 C 1082.0500780573777,256.0368883403249 1093.2011882359022,217.00800271548917 1126.6545187714758,189.13022726917796 Z" fill="url(#leaf21)" opacity="0.22" transform="rotate(109.5 1126.7 244.9)"/>
    <path d="M 1505.5760178578482,282.40591057533 C 1531.9047082511586,304.3464859030887 1540.6809383822622,335.0632913619509 1505.5760178578482,370.1682118863649 C 1470.4710973334343,335.0632913619509 1479.2473274645379,304.3464859030887 1505.5760178578482,282.40591057533 Z" fill="url(#leaf22)" opacity="0.17" transform="rotate(351.4 1505.6 326.3)"/>
    <path d="M 642.6854769901724,568.9835635699596 C 677.4414865711672,597.9469048874553 689.0268230981654,638.4955827319492 642.6854769901724,684.8369288399422 C 596.3441308821795,638.4955827319492 607.9294674091777,597.9469048874553 642.6854769901724,568.9835635699596 Z" fill="url(#leaf23)" opacity="0.16" transform="rotate(145.8 642.7 626.9)"/>
    <path d="M 215.00485436464845,889.4233518905364 C 261.3104889157804,928.0113806831464 276.7457004328244,982.0346209928003 215.00485436464845,1043.7754670609763 C 153.26400829647253,982.0346209928003 168.6992198135165,928.0113806831464 215.00485436464845,889.4233518905364 Z" fill="url(#leaf24)" opacity="0.21" transform="rotate(122.3 215.0 966.6)"/>
    <path d="M 1321.6892672309916,464.54560852028357 C 1363.5147389097172,499.40016825255486 1377.4565628026257,548.1965518777346 1321.6892672309916,603.9638474493686 C 1265.9219716593575,548.1965518777346 1279.863795552266,499.40016825255486 1321.6892672309916,464.54560852028357 Z" fill="url(#leaf25)" opacity="0.18" transform="rotate(50.2 1321.7 534.3)"/>
    <path d="M 689.5768451908099,68.48872561041487 C 712.7600896935719,87.80809602938322 720.4878378611593,114.85521461593892 689.5768451908099,145.7662072862883 C 658.6658525204605,114.85521461593892 666.3936006880479,87.80809602938322 689.5768451908099,68.48872561041487 Z" fill="url(#leaf26)" opacity="0.15" transform="rotate(59.7 689.6 107.1)"/>
    <path d="M 1545.4707934781368,412.92514749998816 C 1590.369857629323,450.3410342926433 1605.3362123463849,502.7232758023605 1545.4707934781368,562.5886946706087 C 1485.6053746098887,502.7232758023605 1500.5717293269506,450.3410342926433 1545.4707934781368,412.92514749998816 Z" fill="url(#leaf27)" opacity="0.19" transform="rotate(167.3 1545.5 487.8)"/>
    <path d="M 933.0089638448771,-21.347490165603944 C 980.313851642383,18.07324966565102 996.0821475748851,73.26228542940797 933.0089638448771,136.3354691594159 C 869.9357801148692,73.26228542940797 885.7040760473712,18.07324966565102 933.0089638448771,-21.347490165603944 Z" fill="url(#leaf28)" opacity="0.16" transform="rotate(31.3 933.0 57.5)"/>
    <path d="M 441.52439721403135,526.8806096157966 C 486.11976420079435,564.0434154380991 500.98488652971537,616.0713435893226 441.52439721403135,675.5318329050067 C 382.06390789834734,616.0713435893226 396.92903022726836,564.0434154380991 441.52439721403135,526.8806096157966 Z" fill="url(#leaf29)" opacity="0.17" transform="rotate(332.6 441.5 601.2)"/>
    <path d="M 1478.0852206346551,22.432289630511583 C 1509.8153911909121,48.87409842739234 1520.3921147096644,85.89263074302539 1478.0852206346551,128.1995248180346 C 1435.7783265596458,85.89263074302539 1446.355050078398,48.87409842739234 1478.0852206346551,22.432289630511583 Z" fill="url(#leaf0)" opacity="0.21" transform="rotate(183.9 1478.1 75.3)"/>
    <path d="M 1653.1755063527203,555.3431092650271 C 1694.3667554178114,589.669150152603 1708.0971717728416,637.7256073952093 1653.1755063527203,692.6472728153308 C 1598.253840932599,637.7256073952093 1611.9842572876291,589.669150152603 1653.1755063527203,555.3431092650271 Z" fill="url(#leaf1)" opacity="0.20" transform="rotate(12.5 1653.2 624.0)"/>
    <path d="M 596.4458172376218,204.974949646962 C 624.4484175998272,228.31044994879983 633.7826177205623,260.9801503713728 596.4458172376218,298.31695085431335 C 559.1090167546813,260.9801503713728 568.4432168754164,228.31044994879983 596.4458172376218,204.974949646962 Z" fill="url(#leaf2)" opacity="0.24" transform="rotate(125.4 596.4 251.6)"/>
    <path d="M 271.96554694303234,42.661912316219045 C 296.29263966781576,62.93448958687191 304.4016705760769,91.31609776578593 271.96554694303234,123.75222139883051 C 239.52942330998775,91.31609776578593 247.6384542182489,62.93448958687191 271.96554694303234,42.661912316219045 Z" fill="url(#leaf3)" opacity="0.18" transform="rotate(218.1 272.0 83.2)"/>
    <path d="M 1106.5199124791725,423.50972035934353 C 1143.0258345761445,453.9313221068202 1155.1944752751351,496.52156455328753 1106.5199124791725,545.1961273492502 C 1057.8453496832099,496.52156455328753 1070.0139903822005,453.9313221068202 1106.5199124791725,423.50972035934353 Z" fill="url(#leaf4)" opacity="0.23" transform="rotate(351.1 1106.5 484.4)"/>
    <path d="M 1346.0719882633564,359.7268443363211 C 1382.4060928956246,390.00526486321127 1394.5174611063806,432.3950536008574 1346.0719882633564,480.84052644388163 C 1297.6265154203322,432.3950536008574 1309.7378836310882,390.00526486321127 1346.0719882633564,359.7268443363211 Z" fill="url(#leaf5)" opacity="0.23" transform="rotate(52.7 1346.1 420.3)"/>
    <path d="M 211.79502114458936,371.48536487490037 C 238.11985753091238,393.4227285301696 246.89480299302005,424.1350376475464 211.79502114458936,459.23481949597715 C 176.69523929615866,424.1350376475464 185.47018475826633,393.4227285301696 211.79502114458936,371.48536487490037 Z" fill="url(#leaf6)" opacity="0.21" transform="rotate(83.7 211.8 415.4)"/>
    <path d="M 570.3947722990952,734.6150283537996 C 615.2926373933682,772.0299159323605 630.2585924247926,824.4107585423457 570.3947722990952,884.2745786680431 C 510.53095217339774,824.4107585423457 525.4969072048222,772.0299159323605 570.3947722990952,734.6150283537996 Z" fill="url(#leaf7)" opacity="0.25" transform="rotate(335.9 570.4 809.4)"/>
    <path d="M 1541.330872086419,231.57648753052953 C 1564.867783989168,251.19058078282035 1572.7134212900844,278.65031133602747 1541.330872086419,310.0328605396927 C 1509.9483228827537,278.65031133602747 1517.7939601836702,251.19058078282035 1541.330872086419,231.57648753052953 Z" fill="url(#leaf8)" opacity="0.22" transform="rotate(204.2 1541.3 270.8)"/>
    <path d="M 1207.5258806734562,947.4408131002207 C 1236.5515711083292,971.6288884626148 1246.2268012532868,1005.4921939699665 1207.5258806734562,1044.193114549797 C 1168.8249600936256,1005.4921939699665 1178.5001902385832,971.6288884626148 1207.5258806734562,947.4408131002207 Z" fill="url(#leaf9)" opacity="0.25" transform="rotate(355.1 1207.5 995.8)"/>
    <path d="M 1389.113088849294,817.081221881722 C 1410.2110667014397,834.6628700918434 1417.2437259854883,859.2771775860133 1389.113088849294,887.4078147222075 C 1360.9824517130996,859.2771775860133 1368.0151109971482,834.6628700918434 1389.113088849294,817.081221881722 Z" fill="url(#leaf10)" opacity="0.24" transform="rotate(89.9 1389.1 852.2)"/>
    <path d="M 1561.1967462499365,345.95315639060163 C 1606.551640155908,383.74890131224447 1621.669938124565,436.6629442025445 1561.1967462499365,497.1361360771731 C 1500.723554375308,436.6629442025445 1515.841852343965,383.74890131224447 1561.1967462499365,345.95315639060163 Z" fill="url(#leaf11)" opacity="0.23" transform="rotate(274.5 1561.2 421.5)"/>
    <path d="M 1476.1980521764222,75.33170706918948 C 1521.8880492364349,113.40670461920004 1537.1180482564391,166.71170118921486 1476.1980521764222,227.63169726923178 C 1415.2780560964052,166.71170118921486 1430.5080551164094,113.40670461920004 1476.1980521764222,75.33170706918948 Z" fill="url(#leaf12)" opacity="0.20" transform="rotate(254.7 1476.2 151.5)"/>
    <path d="M 574.8711710684593,319.6371459812748 C 619.5619357476764,356.8794498806224 634.4588573074154,409.0186753397091 574.8711710684593,468.6063615786653 C 515.2834848295031,409.0186753397091 530.1804063892421,356.8794498806224 574.8711710684593,319.6371459812748 Z" fill="url(#leaf13)" opacity="0.16" transform="rotate(113.3 574.9 394.1)"/>
    <path d="M 786.6471169025681,493.1337621616434 C 834.3061579172935,532.8496296739146 850.1925049222019,588.4518441910942 786.6471169025681,651.9972322107282 C 723.1017288829343,588.4518441910942 738.9880758878427,532.8496296739146 786.6471169025681,493.1337621616434 Z" fill="url(#leaf14)" opacity="0.24" transform="rotate(193.7 786.6 572.6)"/>
    <path d="M 1584.2262098160193,267.04049441281757 C 1612.1974666930864,290.3498751437069 1621.5212189854421,322.98300816695195 1584.2262098160193,360.2780173363749 C 1546.9312006465964,322.98300816695195 1556.254952938952,290.3498751437069 1584.2262098160193,267.04049441281757 Z" fill="url(#leaf15)" opacity="0.20" transform="rotate(263.3 1584.2 313.7)"/>
    <path d="M 1035.3272804114408,343.83295306683567 C 1079.8534176231008,380.93806740988555 1094.6954633603207,432.8852274901554 1035.3272804114408,492.2534104390352 C 975.9590974625611,432.8852274901554 990.801143199781,380.93806740988555 1035.3272804114408,343.83295306683567 Z" fill="url(#leaf16)" opacity="0.22" transform="rotate(154.7 1035.3 418.0)"/>
    <path d="M 730.2531116764843,25.171963244801006 C 751.1829751597944,42.61351614755942 758.1595963208978,67.03169021142119 730.2531116764843,94.93817485583466 C 702.3466270320708,67.03169021142119 709.3232481931742,42.61351614755942 730.2531116764843,25.171963244801006 Z" fill="url(#leaf17)" opacity="0.21" transform="rotate(43.6 730.3 60.1)"/>
    <path d="M 659.7744426036699,743.353842904641 C 707.1758801251372,782.855040839197 722.9763592989596,838.1567179475755 659.7744426036699,901.3586346428652 C 596.5725259083802,838.1567179475755 612.3730050822026,782.855040839197 659.7744426036699,743.353842904641 Z" fill="url(#leaf18)" opacity="0.18" transform="rotate(246.1 659.8 822.4)"/>
    <path d="M 1663.9833379006607,780.7618000390952 C 1705.2543227914073,815.1542874480507 1719.0113177549895,863.3037698205884 1663.9833379006607,918.3317496749172 C 1608.9553580463319,863.3037698205884 1622.712353009914,815.1542874480507 1663.9833379006607,780.7618000390952 Z" fill="url(#leaf19)" opacity="0.18" transform="rotate(142.6 1664.0 849.5)"/>
    <path d="M 790.9488369437266,131.54490787856832 C 814.9783954311961,151.5695399514595 822.9882482603525,179.60402485350713 790.9488369437266,211.643436170133 C 758.9094256271007,179.60402485350713 766.9192784562572,151.5695399514595 790.9488369437266,131.54490787856832 Z" fill="url(#leaf20)" opacity="0.20" transform="rotate(291.7 790.9 171.6)"/>
    <path d="M 328.6771492050095,147.65202644438693 C 372.40527051344196,184.09212753474728 386.9813109495861,235.10826906125175 328.6771492050095,293.4124308058283 C 270.37298746043297,235.10826906125175 284.9490278965771,184.09212753474728 328.6771492050095,147.65202644438693 Z" fill="url(#leaf21)" opacity="0.23" transform="rotate(1.2 328.7 220.5)"/>
    <path d="M 765.1552840754393,788.8641495253269 C 791.156966215558,810.5322179754257 799.8241935955975,840.8675138055642 765.1552840754393,875.5364233257224 C 730.4863745552811,840.8675138055642 739.1536019353207,810.5322179754257 765.1552840754393,788.8641495253269 Z" fill="url(#leaf22)" opacity="0.25" transform="rotate(208.7 765.2 832.2)"/>
    <path d="M 1190.8847541025384,314.9544254389383 C 1232.4037962365192,349.5536272172555 1246.243476947846,397.9925097068996 1190.8847541025384,453.3512325522072 C 1135.526031257231,397.9925097068996 1149.3657119685577,349.5536272172555 1190.8847541025384,314.9544254389383 Z" fill="url(#leaf23)" opacity="0.22" transform="rotate(222.7 1190.9 384.2)"/>
    <path d="M 83.17367256812055,-3.0938639082274193 C 130.65763797739658,36.47610726616927 146.48562644715525,91.87406691032464 83.17367256812055,155.18602078935936 C 19.86171868908584,91.87406691032464 35.68970715884452,36.47610726616927 83.17367256812055,-3.0938639082274193 Z" fill="url(#leaf24)" opacity="0.21" transform="rotate(300.1 83.2 76.0)"/>
    <path d="M 1691.675749083984,624.0056558149329 C 1724.0544940539892,650.987943289937 1734.8474090439909,688.7631457549429 1691.675749083984,731.9348057149496 C 1648.5040891239773,688.7631457549429 1659.297004113979,650.987943289937 1691.675749083984,624.0056558149329 Z" fill="url(#leaf25)" opacity="0.16" transform="rotate(174.1 1691.7 678.0)"/>
    <path d="M 252.35121143578,118.45264772429127 C 277.4234724241593,139.34619854794067 285.78089275361907,168.59716970104986 252.35121143578,202.02685101888895 C 218.9215301179409,168.59716970104986 227.2789504474007,139.34619854794067 252.35121143578,118.45264772429127 Z" fill="url(#leaf26)" opacity="0.24" transform="rotate(35.8 252.4 160.2)"/>
    <path d="M 569.543120385403,510.47745232940684 C 594.8924971749088,531.6019329873284 603.3422894380774,561.1762059084185 569.543120385403,594.9753749610929 C 535.7439513327286,561.1762059084185 544.1937435958971,531.6019329873284 569.543120385403,510.47745232940684 Z" fill="url(#leaf27)" opacity="0.20" transform="rotate(295.5 569.5 552.7)"/>
    <path d="M 1387.9853401652,771.6230046507795 C 1413.7070293701493,793.0577456549041 1422.280925771799,823.0663830606784 1387.9853401652,857.3619686672777 C 1353.6897545586007,823.0663830606784 1362.2636509602505,793.0577456549041 1387.9853401652,771.6230046507795 Z" fill="url(#leaf28)" opacity="0.24" transform="rotate(240.2 1388.0 814.5)"/>
    <path d="M 1281.3145345936755,863.3781587661117 C 1327.8052560262263,902.1204266265709 1343.30216317041,956.3596016312135 1281.3145345936755,1018.3472302079481 C 1219.326906016941,956.3596016312135 1234.8238131611247,902.1204266265709 1281.3145345936755,863.3781587661117 Z" fill="url(#leaf29)" opacity="0.15" transform="rotate(12.0 1281.3 940.9)"/>
    <path d="M 1338.2152034749538,826.3566932987801 C 1383.321908684813,863.945614306996 1398.3574770880994,916.5701037184986 1338.2152034749538,976.7123773316441 C 1278.0729298618082,916.5701037184986 1293.1084982650946,863.945614306996 1338.2152034749538,826.3566932987801 Z" fill="url(#leaf0)" opacity="0.19" transform="rotate(32.7 1338.2 901.5)"/>
    <path d="M 1536.7836377971246,3.7029238923020102 C 1572.3540532911609,33.344936803998976 1584.2108584558398,74.84375488037473 1536.7836377971246,122.27097553908987 C 1489.3564171384094,74.84375488037473 1501.2132223030883,33.344936803998976 1536.7836377971246,3.7029238923020102 Z" fill="url(#leaf1)" opacity="0.18" transform="rotate(239.3 1536.8 63.0)"/>
    <path d="M 840.9020065307066,847.2592945529306 C 868.7853042154328,870.4953759568691 878.0797367770083,903.025889922383 840.9020065307066,940.2036201686848 C 803.7242762844048,903.025889922383 813.0187088459803,870.4953759568691 840.9020065307066,847.2592945529306 Z" fill="url(#leaf2)" opacity="0.23" transform="rotate(196.1 840.9 893.7)"/>
    <path d="M 91.95286420519291,298.45214074099647 C 126.2901375739471,327.06653521495826 137.73589536353182,367.12668747850483 91.95286420519291,412.90971863684376 C 46.16983304685398,367.12668747850483 57.61559083643871,327.06653521495826 91.95286420519291,298.45214074099647 Z" fill="url(#leaf3)" opacity="0.18" transform="rotate(183.2 92.0 355.7)"/>
    <path d="M 292.9158909303423,323.0885019602038 C 329.5386595918979,353.60747584483346 341.7462491457498,396.334039283315 292.9158909303423,445.1643974987225 C 244.0855327149348,396.334039283315 256.2931222687867,353.60747584483346 292.9158909303423,323.0885019602038 Z" fill="url(#leaf4)" opacity="0.20" transform="rotate(182.5 292.9 384.1)"/>
    <path d="M 505.9608626314918,666.4104662655322 C 539.231574460043,694.1360594559917 550.3218117362269,732.9518899226348 505.9608626314918,777.3128390273698 C 461.5999135267568,732.9518899226348 472.69015080294054,694.1360594559917 505.9608626314918,666.4104662655322 Z" fill="url(#leaf5)" opacity="0.22" transform="rotate(349.3 506.0 721.9)"/>
    <path d="M 940.9418863825571,232.6978597790473 C 983.2838538769258,267.98283269102126 997.3978430417154,317.3817947677848 940.9418863825571,373.83775142694316 C 884.4859297233987,317.3817947677848 898.5999188881883,267.98283269102126 940.9418863825571,232.6978597790473 Z" fill="url(#leaf6)" opacity="0.16" transform="rotate(151.5 940.9 303.3)"/>
    <path d="M 1823.8717537529878,521.9571645665587 C 1870.786085409415,561.0524409469145 1886.4241959615572,615.7858278794126 1823.8717537529878,678.338270087982 C 1761.3193115444185,615.7858278794126 1776.9574220965608,561.0524409469145 1823.8717537529878,521.9571645665587 Z" fill="url(#leaf7)" opacity="0.22" transform="rotate(341.4 1823.9 600.1)"/>
    <path d="M 888.7861986027257,365.5321000358588 C 925.088354661327,395.78389675135986 937.1890733475275,438.13641215306137 888.7861986027257,486.5392868978631 C 840.3833238579239,438.13641215306137 852.4840425441243,395.78389675135986 888.7861986027257,365.5321000358588 Z" fill="url(#leaf8)" opacity="0.17" transform="rotate(9.5 888.8 426.0)"/>
    <path d="M 1784.0742413412734,107.46910513278988 C 1805.6101253267664,125.41567512070067 1812.7887533219307,150.54087310377577 1784.0742413412734,179.25538508443304 C 1755.359729360616,150.54087310377577 1762.5383573557804,125.41567512070067 1784.0742413412734,107.46910513278988 Z" fill="url(#leaf9)" opacity="0.21" transform="rotate(126.0 1784.1 143.4)"/>
    <path d="M 86.54877807979254,872.4101367564484 C 132.35972371276006,910.5859247839214 147.63003892374923,964.0320280223835 86.54877807979254,1025.11328886634 C 25.467517235835842,964.0320280223835 40.737832446825024,910.5859247839214 86.54877807979254,872.4101367564484 Z" fill="url(#leaf10)" opacity="0.20" transform="rotate(91.7 86.5 948.8)"/>
    <path d="M 1667.3742840234427,684.6633760239012 C 1714.946610696304,724.3069815846189 1730.8040529205912,779.808029369624 1667.3742840234427,843.2377982667725 C 1603.9445151262942,779.808029369624 1619.8019573505812,724.3069815846189 1667.3742840234427,684.6633760239012 Z" fill="url(#leaf11)" opacity="0.25" transform="rotate(32.9 1667.4 764.0)"/>
    <path d="M 613.4391424004849,720.5860145656076 C 645.8138267377534,747.5649181799979 656.6053881835096,785.3353832401446 613.4391424004849,828.5016290231691 C 570.2728966174602,785.3353832401446 581.0644580632164,747.5649181799979 613.4391424004849,720.5860145656076 Z" fill="url(#leaf12)" opacity="0.16" transform="rotate(180.4 613.4 774.5)"/>
    <path d="M 923.7694577295043,281.09134889263885 C 945.9882078513249,299.606973994156 953.3944578919318,325.52884913628 923.7694577295043,355.1538492987074 C 894.1444575670769,325.52884913628 901.5507076076838,299.606973994156 923.7694577295043,281.09134889263885 Z" fill="url(#leaf13)" opacity="0.22" transform="rotate(189.0 923.8 318.1)"/>
    <path d="M 830.9685608148216,374.3546672782693 C 860.6561035287638,399.09428620655444 870.5519511000779,433.7297527061537 830.9685608148216,473.31314299141 C 791.3851705295652,433.7297527061537 801.2810181008794,399.09428620655444 830.9685608148216,374.3546672782693 Z" fill="url(#leaf14)" opacity="0.16" transform="rotate(48.4 831.0 423.8)"/>
    <path d="M 1818.3198327110667,34.40526156201089 C 1841.0791808504655,53.371385011509865 1848.6656302302652,79.92395784080843 1818.3198327110667,110.26975536000678 C 1787.9740351918683,79.92395784080843 1795.560484571668,53.371385011509865 1818.3198327110667,34.40526156201089 Z" fill="url(#leaf15)" opacity="0.18" transform="rotate(231.6 1818.3 72.3)"/>
    <path d="M 1109.2067872172015,534.5856606838744 C 1140.085309814703,560.3177628484589 1150.3781506805367,596.3427058788772 1109.2067872172015,637.5140693422123 C 1068.0354237538663,596.3427058788772 1078.3282646197001,560.3177628484589 1109.2067872172015,534.5856606838744 Z" fill="url(#leaf16)" opacity="0.20" transform="rotate(71.0 1109.2 586.0)"/>
    <path d="M 906.3755118760823,364.85084933805774 C 942.5400752320166,394.987985468003 954.5949296839947,437.1799760499263 906.3755118760823,485.39939385783873 C 858.15609406817,437.1799760499263 870.210948520148,394.987985468003 906.3755118760823,364.85084933805774 Z" fill="url(#leaf17)" opacity="0.23" transform="rotate(79.1 906.4 425.1)"/>
    <path d="M 528.105943497833,339.7671036823738 C 557.6234249431939,364.3650048868412 567.4625854249808,398.80206657309554 528.105943497833,438.1587085002434 C 488.74930157068513,398.80206657309554 498.5884620524721,364.3650048868412 528.105943497833,339.7671036823738 Z" fill="url(#leaf18)" opacity="0.24" transform="rotate(213.0 528.1 389.0)"/>
    <path d="M 1323.7976834082629,691.6784262897058 C 1348.925542422616,712.6183088016668 1357.3014954274001,741.934144318412 1323.7976834082629,775.4379563375494 C 1290.2938713891256,741.934144318412 1298.6698243939097,712.6183088016668 1323.7976834082629,691.6784262897058 Z" fill="url(#leaf19)" opacity="0.17" transform="rotate(100.3 1323.8 733.6)"/>
    <path d="M 739.9275595324199,757.3433361600468 C 768.994209284266,781.5655442865852 778.6830925348814,815.4766356637391 739.9275595324199,854.2321686662007 C 701.1720265299583,815.4766356637391 710.8609097805737,781.5655442865852 739.9275595324199,757.3433361600468 Z" fill="url(#leaf20)" opacity="0.23" transform="rotate(114.1 739.9 805.8)"/>
    <path d="M 191.0228026695969,655.8569762695081 C 237.64264608679127,694.7068457838368 253.18259389252273,749.0966631038968 191.0228026695969,811.2564543268227 C 128.86301144667107,749.0966631038968 144.40295925240252,694.7068457838368 191.0228026695969,655.8569762695081 Z" fill="url(#leaf21)" opacity="0.19" transform="rotate(304.4 191.0 733.6)"/>
    <path d="M 114.93250478168022,217.39579393392393 C 146.82127764961643,243.96977132387076 157.45086860559516,281.17333966979635 114.93250478168022,323.69170349371126 C 72.41414095776528,281.17333966979635 83.04373191374403,243.96977132387076 114.93250478168022,217.39579393392393 Z" fill="url(#leaf22)" opacity="0.22" transform="rotate(217.8 114.9 270.5)"/>
    <path d="M 947.4107735214917,61.359027437783496 C 977.0957643026848,86.0965197554444 986.9907612297492,120.72900900016967 947.4107735214917,160.30899670842712 C 907.8307858132342,120.72900900016967 917.7257827402987,86.0965197554444 947.4107735214917,61.359027437783496 Z" fill="url(#leaf23)" opacity="0.25" transform="rotate(237.1 947.4 110.8)"/>
    <path d="M 1194.1928986419248,137.04176102047876 C 1241.198251768627,176.21288862606391 1256.866702810861,231.0524672738831 1194.1928986419248,293.7262714428193 C 1131.5190944729886,231.0524672738831 1147.1875455152226,176.21288862606391 1194.1928986419248,137.04176102047876 Z" fill="url(#leaf24)" opacity="0.17" transform="rotate(274.4 1194.2 215.4)"/>
    <path d="M 367.2405698965246,449.08941621802796 C 409.77668796679507,484.53618127658666 423.9553939902185,534.1616523585689 367.2405698965246,590.8764764522628 C 310.5257458028307,534.1616523585689 324.70445182625417,484.53618127658666 367.2405698965246,449.08941621802796 Z" fill="url(#leaf25)" opacity="0.19" transform="rotate(13.4 367.2 520.0)"/>
    <path d="M 713.9308978368023,327.03792754348603 C 752.1074028637528,358.85168173261144 764.8329045394029,403.390937597387 713.9308978368023,454.29294429998765 C 663.0288911342017,403.390937597387 675.7543928098518,358.85168173261144 713.9308978368023,327.03792754348603 Z" fill="url(#leaf26)" opacity="0.20" transform="rotate(141.8 713.9 390.7)"/>
    <path d="M 691.0573765659203,566.1588548791476 C 738.192725604799,605.4383124115465 753.9045086177586,660.4295529569049 691.0573765659203,723.276685008743 C 628.2102445140821,660.4295529569049 643.9220275270417,605.4383124115465 691.0573765659203,566.1588548791476 Z" fill="url(#leaf27)" opacity="0.16" transform="rotate(298.8 691.1 644.7)"/>
    <path d="M 1730.0671443395079,700.4550010682536 C 1756.9213201988175,722.8334809510116 1765.8727121519207,754.1633527868728 1730.0671443395079,789.9689205992855 C 1694.261576527095,754.1633527868728 1703.2129684801982,722.8334809510116 1730.0671443395079,700.4550010682536 Z" fill="url(#leaf28)" opacity="0.19" transform="rotate(336.4 1730.1 745.2)"/>
    <path d="M 1745.9525447999504,546.857983906032 C 1787.981159668849,581.8818296301141 1801.9906979584816,630.915213643829 1745.9525447999504,686.9533668023604 C 1689.9143916414191,630.915213643829 1703.9239299310518,581.8818296301141 1745.9525447999504,546.857983906032 Z" fill="url(#leaf29)" opacity="0.17" transform="rotate(221.6 1746.0 616.9)"/>
    <path d="M 1770.2822165238113,243.7942531646846 C 1800.9707050316067,269.36799358784754 1811.200201200872,305.17123018027564 1770.2822165238113,346.0892148573363 C 1729.3642318467505,305.17123018027564 1739.5937280160158,269.36799358784754 1770.2822165238113,243.7942531646846 Z" fill="url(#leaf0)" opacity="0.16" transform="rotate(310.7 1770.3 294.9)"/>
    <path d="M 1129.2747677428456,763.7410812195305 C 1151.5080055614403,782.2687794016929 1158.9190848343053,808.20755685672 1129.2747677428456,837.8518739481797 C 1099.630450651386,808.20755685672 1107.0415299242509,782.2687794016929 1129.2747677428456,763.7410812195305 Z" fill="url(#leaf1)" opacity="0.21" transform="rotate(175.8 1129.3 800.8)"/>
    <path d="M 1408.662142015637,377.96134059833054 C 1428.6500625198717,394.6179410185259 1435.3127026879497,417.93718160679947 1408.662142015637,444.5877422791121 C 1382.0115813433245,417.93718160679947 1388.6742215114025,394.6179410185259 1408.662142015637,377.96134059833054 Z" fill="url(#leaf2)" opacity="0.20" transform="rotate(90.0 1408.7 411.3)"/>
    <path d="M 261.85051397145725,631.3620531898271 C 289.0090445941491,653.9941620420703 298.0618881350464,685.6791144352107 261.85051397145725,721.8904885988 C 225.63913980786813,685.6791144352107 234.6919833487654,653.9941620420703 261.85051397145725,631.3620531898271 Z" fill="url(#leaf3)" opacity="0.17" transform="rotate(336.5 261.9 676.6)"/>
    </g>

    <!-- Text with SOLID fill only (ThorVG compatible) -->
    <text x="956.8" y="905.1"
          font-family="Arial, Helvetica, sans-serif"
          font-size="1080px"
          font-weight="bold"
          fill="#4ECDC4"
          text-anchor="middle"
          transform="rotate(-11.6 960.0 540.0)">
      7
    </text>
  </g>

  <!-- Frame counter -->
  <text x="960.0" y="1050.0"
        font-family="monospace"
        font-size="24px"
        fill="#FFFFFF"
        text-anchor="middle"
        opacity="0.7">
    Frame 00075 - Compatible
  </text>
</svg>