<?xml version="1.0" encoding="UTF-8"?>
<svg xmlns="http://www.w3.org/2000/svg" viewBox="0 0 1920 1080" width="1920" height="1080">
  <defs>
    <linearGradient id="bgGrad" x1="0%" y1="0%" x2="100%" y2="100%">
      <stop offset="0%" stop-color="#FF1493"/>
      <stop offset="100%" stop-color="#9370DB"/>
    </linearGradient>
    <clipPath id="complexClip"><polygon points="1607.7,540.0 1426.6,573.2 1392.3,602.4 1417.6,641.9 1443.5,689.5 1338.1,694.5 1247.8,692.0 1336.0,795.7 1292.9,835.1 1154.6,772.7 1109.1,798.0 1073.0,873.1 994.5,848.8 921.8,882.0 853.2,854.9 811.1,797.8 733.0,811.3 638.4,825.0 632.6,762.6 649.9,703.8 642.8,669.6 490.3,685.2 513.7,639.4 385.7,622.9 409.2,579.1 406.4,540.0 570.2,512.3 333.0,449.4 558.1,450.5 404.7,368.3 505.7,354.3 592.8,346.0 567.5,273.1 711.4,319.6 740.9,278.1 759.7,193.3 839.2,183.9 918.7,170.6 998.5,195.6 1038.0,310.1 1088.9,316.9 1200.9,252.0 1209.0,319.3 1255.4,339.2 1249.7,387.0 1394.9,362.3 1350.6,419.2 1512.3,417.0 1558.3,453.6 1588.9,495.3"/></clipPath>
    <radialGradient id="leaf0" cx="50%" cy="50%" r="70%">
      <stop offset="0%" stop-color="#96E6A1"/>
      <stop offset="50%" stop-color="#00FA9A"/>
      <stop offset="100%" stop-color="#DC143C"/>
    </radialGradient>
    <radialGradient id="leaf1" cx="50%" cy="50%" r="70%">
      <stop offset="0%" stop-color="#32CD32"/>
      <stop offset="50%" stop-color="#FFD700"/>
      <stop offset="100%" stop-color="#DC143C"/>
    </radialGradient>
    <radialGradient id="leaf2" cx="50%" cy="50%" r="70%">
      <stop offset="0%" stop-color="#FF1493"/>
      <stop offset="50%" stop-color="#FFE66D"/>
      <stop offset="100%" stop-color="#45B7D1"/>
    </radialGradient>
    <radialGradient id="leaf3" cx="50%" cy="50%" r="70%">
      <stop offset="0%" stop-color="#7B68EE"/>
      <stop offset="50%" stop-color="#FFE66D"/>
      <stop offset="100%" stop-color="#FF69B4"/>
    </radialGradient>
    <radialGradient id="leaf4" cx="50%" cy="50%" r="70%">
      <stop offset="0%" stop-color="#4ECDC4"/>
      <stop offset="50%" stop-color="#7B68EE"/>
      <stop offset="100%" stop-color="#96E6A1"/>
    </radialGradient>
    <radialGradient id="leaf5" cx="50%" cy="50%" r="70%">
      <stop offset="0%" stop-color="#4ECDC4"/>
      <stop offset="50%" stop-color="#7B68EE"/>
      <stop offset="100%" stop-color="#FF1493"/>
    </radialGradient>
    <radialGradient id="leaf6" cx="50%" cy="50%" r="70%">
      <stop offset="0%" stop-color="#9370DB"/>
      <stop offset="50%" stop-color="#FFD700"/>
      <stop offset="100%" stop-color="#FFE66D"/>
    </radialGradient>
    <radialGradient id="leaf7" cx="50%" cy="50%" r="70%">
      <stop offset="0%" stop-color="#FF69B4"/>
      <stop offset="50%" stop-color="#00CED1"/>
      <stop offset="100%" stop-color="#DC143C"/>
    </radialGradient>
    <radialGradient id="leaf8" cx="50%" cy="50%" r="70%">
      <stop offset="0%" stop-color="#32CD32"/>
      <stop offset="50%" stop-color="#9370DB"/>
      <stop offset="100%" stop-color="#00FA9A"/>
    </radialGradient>
    <radialGradient id="leaf9" cx="50%" cy="50%" r="70%">
      <stop offset="0%" stop-color="#DC143C"/>
      <stop offset="50%" stop-color="#00CED1"/>
      <stop offset="100%" stop-color="#7B68EE"/>
    </radialGradient>
    <radialGradient id="leaf10" cx="50%" cy="50%" r="70%">
      <stop offset="0%" stop-color="#FF1493"/>
      <stop offset="50%" stop-color="#FFD700"/>
      <stop offset="100%" stop-color="#9370DB"/>
    </radialGradient>
    <radialGradient id="leaf11" cx="50%" cy="50%" r="70%">
      <stop offset="0%" stop-color="#FF4500"/>
      <stop offset="50%" stop-color="#FF1493"/>
      <stop offset="100%" stop-color="#FFD700"/>
    </radialGradient>
    <radialGradient id="leaf12" cx="50%" cy="50%" r="70%">
      <stop offset="0%" stop-color="#FFE66D"/>
      <stop offset="50%" stop-color="#00FA9A"/>
      <stop offset="100%" stop-color="#00CED1"/>
    </radialGradient>
    <radialGradient id="leaf13" cx="50%" cy="50%" r="70%">
      <stop offset="0%" stop-color="#45B7D1"/>
      <stop offset="50%" stop-color="#FF4500"/>
      <stop offset="100%" stop-color="#FFD700"/>
    </radialGradient>
    <radialGradient id="leaf14" cx="50%" cy="50%" r="70%">
      <stop offset="0%" stop-color="#FF6B6B"/>
      <stop offset="50%" stop-color="#DC143C"/>
      <stop offset="100%" stop-color="#00FA9A"/>
    </radialGradient>
    <radialGradient id="leaf15" cx="50%" cy="50%" r="70%">
      <stop offset="0%" stop-color="#7B68EE"/>
      <stop offset="50%" stop-color="#FFD700"/>
      <stop offset="100%" stop-color="#00FA9A"/>
    </radialGradient>
    <radialGradient id="leaf16" cx="50%" cy="50%" r="70%">
      <stop offset="0%" stop-color="#96E6A1"/>
      <stop offset="50%" stop-color="#7B68EE"/>
      <stop offset="100%" stop-color="#32CD32"/>
    </radialGradient>
    <radialGradient id="leaf17" cx="50%" cy="50%" r="70%">
      <stop offset="0%" stop-color="#00FA9A"/>
      <stop offset="50%" stop-color="#00CED1"/>
      <stop offset="100%" stop-color="#9370DB"/>
    </radialGradient>
    <radialGradient id="leaf18" cx="50%" cy="50%" r="70%">
      <stop offset="0%" stop-color="#45B7D1"/>
      <stop offset="50%" stop-color="#00CED1"/>
      <stop offset="100%" stop-color="#FF6B6B"/>
    </radialGradient>
    <radialGradient id="leaf19" cx="50%" cy="50%" r="70%">
      <stop offset="0%" stop-color="#DC143C"/>
      <stop offset="50%" stop-color="#FF69B4"/>
      <stop offset="100%" stop-color="#FF6B6B"/>
    </radialGradient>
    <radialGradient id="leaf20" cx="50%" cy="50%" r="70%">
      <stop offset="0%" stop-color="#4ECDC4"/>
      <stop offset="50%" stop-color="#FFD700"/>
      <stop offset="100%" stop-color="#00CED1"/>
    </radialGradient>
    <radialGradient id="leaf21" cx="50%" cy="50%" r="70%">
      <stop offset="0%" stop-color="#4ECDC4"/>
      <stop offset="50%" stop-color="#DC143C"/>
      <stop offset="100%" stop-color="#FF4500"/>
    </radialGradient>
    <radialGradient id="leaf22" cx="50%" cy="50%" r="70%">
      <stop offset="0%" stop-color="#7B68EE"/>
      <stop offset="50%" stop-color="#FF6B6B"/>
      <stop offset="100%" stop-color="#DC143C"/>
    </radialGradient>
    <radialGradient id="leaf23" cx="50%" cy="50%" r="70%">
      <stop offset="0%" stop-color="#FFD700"/>
      <stop offset="50%" stop-color="#DC143C"/>
      <stop offset="100%" stop-color="#45B7D1"/>
    </radialGradient>
    <radialGradient id="leaf24" cx="50%" cy="50%" r="70%">
      <stop offset="0%" stop-color="#9370DB"/>
      <stop offset="50%" stop-color="#FFE66D"/>
      <stop offset="100%" stop-color="#96E6A1"/>
    </radialGradient>
    <radialGradient id="leaf25" cx="50%" cy="50%" r="70%">
      <stop offset="0%" stop-color="#7B68EE"/>
      <stop offset="50%" stop-color="#FFD700"/>
      <stop offset="100%" stop-color="#32CD32"/>
    </radialGradient>
    <radialGradient id="leaf26" cx="50%" cy="50%" r="70%">
      <stop offset="0%" stop-color="#7B68EE"/>
      <stop offset="50%" stop-color="#9370DB"/>
      <stop offset="100%" stop-color="#4ECDC4"/>
    </radialGradient>
    <radialGradient id="leaf27" cx="50%" cy="50%" r="70%">
      <stop offset="0%" stop-color="#FF4500"/>
      <stop offset="50%" stop-color="#4ECDC4"/>
      <stop offset="100%" stop-color="#45B7D1"/>
    </radialGradient>
    <radialGradient id="leaf28" cx="50%" cy="50%" r="70%">
      <stop offset="0%" stop-color="#DC143C"/>
      <stop offset="50%" stop-color="#FF6B6B"/>
      <stop offset="100%" stop-color="#32CD32"/>
    </radialGradient>
    <radialGradient id="leaf29" cx="50%" cy="50%" r="70%">
      <stop offset="0%" stop-color="#FFD700"/>
      <stop offset="50%" stop-color="#FF69B4"/>
      <stop offset="100%" stop-color="#DC143C"/>
    </radialGradient>
  </defs>

  <!-- Scaled content -->
  <g transform="translate(960.0,540.0) scale(3.0) translate(-960.0,-540.0)">
    <!-- Background -->
    <rect width="1920" height="1080" fill="url(#bgGrad)"/>
    
    <!-- Leaves with clip-path -->
    <g clip-path="url(#complexClip)">
    <path d="M 382.8606587491188,300.26843870489614 C 419.97407473503483,331.1962853598262 432.3452133970069,374.49527067672824 382.8606587491188,423.97982532461634 C 333.3761041012307,374.49527067672824 345.74724276320273,331.1962853598262 382.8606587491188,300.26843870489614 Z" fill="url(#leaf0)" opacity="0.20" transform="rotate(58.9 382.9 362.1)"/>
    <path d="M 270.9647607079095,519.7900810773142 C 293.76047352963604,538.7865084287531 301.3590444702116,565.3815067207674 270.9647607079095,595.7757904830696 C 240.57047694560734,565.3815067207674 248.16904788618288,538.7865084287531 270.9647607079095,519.7900810773142 Z" fill="url(#leaf1)" opacity="0.16" transform="rotate(247.5 271.0 557.8)"/>
    <path d="M 1669.6898791122837,236.3195160999913 C 1716.054388460554,274.9566072235499 1731.5092249099775,329.04853479653195 1669.6898791122837,390.8678805942257 C 1607.87053331459,329.04853479653195 1623.3253697640134,274.9566072235499 1669.6898791122837,236.3195160999913 Z" fill="url(#leaf2)" opacity="0.17" transform="rotate(122.5 1669.7 313.6)"/>
    <path d="M 1817.1339930257723,912.6565049151227 C 1852.152170207499,941.8383192332284 1863.8248959347413,982.6928592785762 1817.1339930257723,1029.3837621875452 C 1770.4430901168032,982.6928592785762 1782.1158158440455,941.8383192332284 1817.1339930257723,912.6565049151227 Z" fill="url(#leaf3)" opacity="0.20" transform="rotate(121.5 1817.1 971.0)"/>
    <path d="M 859.848786870695,809.6957708586527 C 880.0081376955711,826.4952298793828 886.7279213038632,850.014472508405 859.848786870695,876.8936069415732 C 832.9696524375267,850.014472508405 839.6894360458189,826.4952298793828 859.848786870695,809.6957708586527 Z" fill="url(#leaf4)" opacity="0.18" transform="rotate(252.2 859.8 843.3)"/>
    <path d="M 1598.933825130293,734.8204000432731 C 1641.6700956231798,770.4339587873454 1655.9155191208088,820.2929410290468 1598.933825130293,877.2746350195625 C 1541.952131139777,820.2929410290468 1556.197554637406,770.4339587873454 1598.933825130293,734.8204000432731 Z" fill="url(#leaf5)" opacity="0.22" transform="rotate(137.4 1598.9 806.0)"/>
    <path d="M 694.6098750114315,367.50160652597475 C 739.0579249464076,404.5416481384548 753.8739415913997,456.3977063959269 694.6098750114315,515.661772975895 C 635.3458084314634,456.3977063959269 650.1618250764554,404.5416481384548 694.6098750114315,367.50160652597475 Z" fill="url(#leaf6)" opacity="0.22" transform="rotate(123.6 694.6 441.6)"/>
    <path d="M 343.3611354833724,847.355319843579 C 370.43204762083,869.9144132914603 379.45568499998257,901.4971441184942 343.3611354833724,937.5916936351044 C 307.2665859667622,901.4971441184942 316.29022334591474,869.9144132914603 343.3611354833724,847.355319843579 Z" fill="url(#leaf7)" opacity="0.20" transform="rotate(131.9 343.4 892.5)"/>
    <path d="M 182.28870812088746,918.714866694478 C 212.9842019322142,944.2944448705836 223.21603320265643,980.1058543171315 182.28870812088746,1021.0331793989004 C 141.3613830391185,980.1058543171315 151.59321430956072,944.2944448705836 182.28870812088746,918.714866694478 Z" fill="url(#leaf8)" opacity="0.18" transform="rotate(156.9 182.3 969.9)"/>
    <path d="M 905.1246052025821,320.1457210714226 C 937.7803297487333,347.35882485988196 948.665571264117,385.4571701637251 905.1246052025821,428.99813622526005 C 861.5836391410471,385.4571701637251 872.4688806564309,347.35882485988196 905.1246052025821,320.1457210714226 Z" fill="url(#leaf9)" opacity="0.16" transform="rotate(216.9 905.1 374.6)"/>
    <path d="M 364.1428107597006,99.07351589816874 C 388.1442626710356,119.07472582428127 396.14474664148065,147.0764197208388 364.1428107597006,179.07835560261884 C 332.1408748779205,147.0764197208388 340.14135884836554,119.07472582428127 364.1428107597006,99.07351589816874 Z" fill="url(#leaf10)" opacity="0.16" transform="rotate(165.1 364.1 139.1)"/>
    <path d="M 220.1113557280594,799.2683854930724 C 242.00728143751653,817.5149902509534 249.3059233406689,843.0602369119867 220.1113557280594,872.2548045245962 C 190.91678811544992,843.0602369119867 198.2154300186023,817.5149902509534 220.1113557280594,799.2683854930724 Z" fill="url(#leaf11)" opacity="0.18" transform="rotate(235.3 220.1 835.8)"/>
    <path d="M 592.3926099648206,919.5139905200374 C 610.7304464522445,934.7955209262238 616.8430586147191,956.189663494885 592.3926099648206,980.6401121447834 C 567.9421613149221,956.189663494885 574.0547734773968,934.7955209262238 592.3926099648206,919.5139905200374 Z" fill="url(#leaf12)" opacity="0.22" transform="rotate(115.8 592.4 950.1)"/>
    <path d="M 893.0754347745985,876.3369075476629 C 934.8246539513192,911.1279235282634 948.7410603435594,959.8353459011042 893.0754347745985,1015.5009714700651 C 837.4098092056377,959.8353459011042 851.3262155978779,911.1279235282634 893.0754347745985,876.3369075476629 Z" fill="url(#leaf13)" opacity="0.21" transform="rotate(137.9 893.1 945.9)"/>
    <path d="M 925.8410696262034,788.5428614326986 C 965.820780004932,821.8592867483057 979.1473501311749,868.5022821901557 925.8410696262034,921.8085626951272 C 872.5347891212319,868.5022821901557 885.8613592474749,821.8592867483057 925.8410696262034,788.5428614326986 Z" fill="url(#leaf14)" opacity="0.21" transform="rotate(114.6 925.8 855.2)"/>
    <path d="M 1703.89315434443,439.3717482140216 C 1727.8715557075373,459.35374934994417 1735.8643561619062,487.3285509402358 1703.89315434443,519.2997527577119 C 1671.9219525269539,487.3285509402358 1679.9147529813229,459.35374934994417 1703.89315434443,439.3717482140216 Z" fill="url(#leaf15)" opacity="0.15" transform="rotate(177.2 1703.9 479.3)"/>
    <path d="M 519.274364082617,745.6652895610072 C 545.7184863362761,767.702058105723 554.5331937541625,798.5535340683253 519.274364082617,833.8123637398709 C 484.01553441107154,798.5535340683253 492.83024182895787,767.702058105723 519.274364082617,745.6652895610072 Z" fill="url(#leaf16)" opacity="0.17" transform="rotate(37.7 519.3 789.7)"/>
    <path d="M 1867.666596120972,520.9614808562744 C 1886.5136917020786,536.6673938405299 1892.7960568957808,558.6556720184876 1867.666596120972,583.7851327932965 C 1842.537135346163,558.6556720184876 1848.8195005398652,536.6673938405299 1867.666596120972,520.9614808562744 Z" fill="url(#leaf17)" opacity="0.16" transform="rotate(81.4 1867.7 552.4)"/>
    <path d="M 489.78509629585795,852.5457224984152 C 525.9809625929875,882.7089444126897 538.0462513586972,924.9374550926741 489.78509629585795,973.1986101555133 C 441.5239412330187,924.9374550926741 453.5892299987285,882.7089444126897 489.78509629585795,852.5457224984152 Z" fill="url(#leaf18)" opacity="0.17" transform="rotate(101.3 489.8 912.9)"/>
    <path d="M 499.14664180767426,54.55803873647727 C 537.6003273964592,86.60277672713141 550.4182225927209,131.4654099140472 499.14664180767426,182.7369906990938 C 447.8750610226276,131.4654099140472 460.6929562188893,86.60277672713141 499.14664180767426,54.55803873647727 Z" fill="url(#leaf19)" opacity="0.21" transform="rotate(112.7 499.1 118.6)"/>
    <path d="M 1390.585225233337,215.76269399899854 C 1431.2500901978392,249.6500814694171 1444.8050451860067,297.0924239280031 1390.585225233337,351.3122438806728 C 1336.3654052806673,297.0924239280031 1349.9203602688349,249.6500814694171 1390.585225233337,215.76269399899854 Z" fill="url(#leaf20)" opacity="0.16" transform="rotate(120.8 1390.6 283.5)"/>
    <path d="M 1210.0425286805664,859.3939027997039 C 1253.742044521466,895.8101660004536 1268.3085498017658,946.7929344815032 1210.0425286805664,1005.0589556027026 C 1151.776507559367,946.7929344815032 1166.343012839667,895.8101660004536 1210.0425286805664,859.3939027997039 Z" fill="url(#leaf21)" opacity="0.24" transform="rotate(136.8 1210.0 932.2)"/>
    <path d="M 681.5286173496951,196.66656074821773 C 702.3760584387767,214.0394283224524 709.3252054684706,238.36144292638096 681.5286173496951,266.1580310451564 C 653.7320292309196,238.36144292638096 660.6811762606135,214.0394283224524 681.5286173496951,196.66656074821773 Z" fill="url(#leaf22)" opacity="0.16" transform="rotate(4.8 681.5 231.4)"/>
    <path d="M 1646.0162575289087,582.6947939955594 C 1690.396980763229,619.6787300241597 1705.190555174669,671.4562404642 1646.0162575289087,730.6305381099605 C 1586.8419598831483,671.4562404642 1601.6355342945883,619.6787300241597 1646.0162575289087,582.6947939955594 Z" fill="url(#leaf23)" opacity="0.17" transform="rotate(290.5 1646.0 656.7)"/>
    <path d="M 777.7190089273985,636.37313865807 C 825.5976649273844,676.2720186580584 841.5572169273797,732.130450658042 777.7190089273985,795.9686586580233 C 713.8808009274172,732.130450658042 729.8403529274126,676.2720186580584 777.7190089273985,636.37313865807 Z" fill="url(#leaf24)" opacity="0.20" transform="rotate(225.9 777.7 716.2)"/>
    <path d="M 967.7214876085027,105.5131877352532 C 1009.8217699250919,140.59675633241085 1023.8551973639549,189.71375236843153 967.7214876085027,245.84746212388376 C 911.5877778530505,189.71375236843153 925.6212052919135,140.59675633241085 967.7214876085027,105.5131877352532 Z" fill="url(#leaf25)" opacity="0.24" transform="rotate(101.4 967.7 175.7)"/>
    <path d="M 1835.934617894589,710.2960479356348 C 1855.639987684724,726.7171894274138 1862.2084442814355,749.7067875159045 1835.934617894589,775.980613902751 C 1809.6607915077427,749.7067875159045 1816.2292481044542,726.7171894274138 1835.934617894589,710.2960479356348 Z" fill="url(#leaf26)" opacity="0.19" transform="rotate(199.8 1835.9 743.1)"/>
    <path d="M 541.203406052861,808.6244759903 C 575.0100246385193,836.7966581450152 586.2788975004054,876.2377131616164 541.203406052861,921.3132046091607 C 496.12791460531673,876.2377131616164 507.3967874672028,836.7966581450152 541.203406052861,808.6244759903 Z" fill="url(#leaf27)" opacity="0.22" transform="rotate(67.6 541.2 865.0)"/>
    <path d="M 1053.6087859373708,315.47762025817394 C 1086.043540741724,342.5065825951349 1096.8551256765084,380.3471298668802 1053.6087859373708,423.5934696060177 C 1010.3624461982333,380.3471298668802 1021.1740311330177,342.5065825951349 1053.6087859373708,315.47762025817394 Z" fill="url(#leaf28)" opacity="0.21" transform="rotate(197.1 1053.6 369.5)"/>
    <path d="M 1432.3835700365523,529.2212458833164 C 1453.8137461816095,547.0797260041975 1460.9571382299619,572.0815981734308 1432.3835700365523,600.6551663668404 C 1403.8100018431428,572.0815981734308 1410.9533938914951,547.0797260041975 1432.3835700365523,529.2212458833164 Z" fill="url(#leaf29)" opacity="0.23" transform="rotate(227.8 1432.4 564.9)"/>
    <path d="M 1743.3963543744112,173.03245782744642 C 1789.440667835927,211.40271904537622 1804.7887723230988,265.1210847504779 1743.3963543744112,326.5135026991656 C 1682.0039364257236,265.1210847504779 1697.3520409128955,211.40271904537622 1743.3963543744112,173.03245782744642 Z" fill="url(#leaf0)" opacity="0.16" transform="rotate(314.8 1743.4 249.8)"/>
    <path d="M 809.6617046113611,764.5262128884283 C 829.1129696945275,780.7356004577337 835.5967247222495,803.4287430547611 809.6617046113611,829.3637631656495 C 783.7266845004726,803.4287430547611 790.2104395281947,780.7356004577337 809.6617046113611,764.5262128884283 Z" fill="url(#leaf1)" opacity="0.17" transform="rotate(264.9 809.7 796.9)"/>
    <path d="M 1315.6161995994296,966.4560868239436 C 1349.2576407311944,994.4906211004143 1360.471454441783,1033.7389690874734 1315.6161995994296,1078.5942239298267 C 1270.7609447570762,1033.7389690874734 1281.9747584676647,994.4906211004143 1315.6161995994296,966.4560868239436 Z" fill="url(#leaf2)" opacity="0.22" transform="rotate(347.8 1315.6 1022.5)"/>
    <path d="M 1772.8619494606532,496.8432791012923 C 1814.367405024183,531.4311587375671 1828.202556878693,579.8541902283519 1772.8619494606532,635.1947976463915 C 1717.5213420426135,579.8541902283519 1731.3564938971235,531.4311587375671 1772.8619494606532,496.8432791012923 Z" fill="url(#leaf3)" opacity="0.22" transform="rotate(306.2 1772.9 566.0)"/>
    <path d="M 983.0907540713534,242.0916838895356 C 1029.0348423693167,280.37842413783824 1044.3495384686375,333.9798604854619 983.0907540713534,395.23864488274614 C 921.8319696740692,333.9798604854619 937.1466657733903,280.37842413783824 983.0907540713534,242.0916838895356 Z" fill="url(#leaf4)" opacity="0.19" transform="rotate(129.5 983.1 318.7)"/>
    <path d="M 799.857385340726,621.9535069791757 C 835.0925797318899,651.3161689718123 846.8376445289446,692.4238957615036 799.857385340726,739.4041549497222 C 752.8771261525073,692.4238957615036 764.622190949562,651.3161689718123 799.857385340726,621.9535069791757 Z" fill="url(#leaf5)" opacity="0.16" transform="rotate(139.9 799.9 680.7)"/>
    <path d="M 1104.7390794480204,842.3276752182812 C 1150.5110633778452,880.4709951598018 1165.7683913544533,933.8716430779305 1104.7390794480204,994.9009549843634 C 1043.7097675415876,933.8716430779305 1058.9670955181957,880.4709951598018 1104.7390794480204,842.3276752182812 Z" fill="url(#leaf6)" opacity="0.17" transform="rotate(205.2 1104.7 918.6)"/>
    <path d="M 1056.6893309102543,749.4940331968164 C 1086.8362657344571,774.6164788836521 1096.8852440091916,809.7879028452222 1056.6893309102543,849.9838159441595 C 1016.493417811317,809.7879028452222 1026.5423960860514,774.6164788836521 1056.6893309102543,749.4940331968164 Z" fill="url(#leaf7)" opacity="0.19" transform="rotate(83.9 1056.7 799.7)"/>
    <path d="M 705.9916232630177,535.2941287865909 C 726.0405965954881,552.0016065636496 732.7235877063115,575.3920754515317 705.9916232630177,602.1240398948256 C 679.2596588197239,575.3920754515317 685.9426499305473,552.0016065636496 705.9916232630177,535.2941287865909 Z" fill="url(#leaf8)" opacity="0.19" transform="rotate(167.2 706.0 568.7)"/>
    <path d="M 535.6147608747408,649.9265714435486 C 567.25931688753,676.2970347875396 577.8075022251264,713.2156834691269 535.6147608747408,755.4084248195126 C 493.42201952435516,713.2156834691269 503.9702048619516,676.2970347875396 535.6147608747408,649.9265714435486 Z" fill="url(#leaf9)" opacity="0.23" transform="rotate(247.6 535.6 702.7)"/>
    <path d="M 1128.116789553632,845.5474686111838 C 1168.9586416839109,879.5823453864163 1182.5725923940038,927.2311728717415 1128.116789553632,981.6869757121133 C 1073.6609867132604,927.2311728717415 1087.2749374233533,879.5823453864163 1128.116789553632,845.5474686111838 Z" fill="url(#leaf10)" opacity="0.19" transform="rotate(358.1 1128.1 913.6)"/>
    <path d="M 524.8949247337132,747.7626991616835 C 567.4249397370385,783.2043783311212 581.6016114048135,832.822729168334 524.8949247337132,889.5294158394345 C 468.18823806261287,832.822729168334 482.3649097303879,783.2043783311212 524.8949247337132,747.7626991616835 Z" fill="url(#leaf11)" opacity="0.25" transform="rotate(178.3 524.9 818.6)"/>
    <path d="M 132.50227704319974,310.3553683500297 C 151.42964961593398,326.12817882730826 157.7387738068454,348.2101134954982 132.50227704319974,373.4466102591439 C 107.2657802795541,348.2101134954982 113.5749044704655,326.12817882730826 132.50227704319974,310.3553683500297 Z" fill="url(#leaf12)" opacity="0.19" transform="rotate(232.7 132.5 341.9)"/>
    <path d="M 58.136445133040965,343.5080478380136 C 85.3963995953259,366.22467655658437 94.48305108275422,398.02795676258347 58.136445133040965,434.3745627122967 C 21.789839183327715,398.02795676258347 30.876490670756027,366.22467655658437 58.136445133040965,343.5080478380136 Z" fill="url(#leaf13)" opacity="0.16" transform="rotate(15.9 58.1 388.9)"/>
    <path d="M 1322.2901678703909,754.67980322424 C 1356.4770870742573,783.1689025607952 1367.8727268088794,823.0536416319727 1322.2901678703909,868.6362005704611 C 1276.7076089319023,823.0536416319727 1288.1032486665245,783.1689025607952 1322.2901678703909,754.67980322424 Z" fill="url(#leaf14)" opacity="0.24" transform="rotate(344.1 1322.3 811.7)"/>
    <path d="M 1798.1619643706729,80.88856867076024 C 1821.5563069473635,100.3838541513358 1829.3544211395938,127.67725382414159 1798.1619643706729,158.86971059306248 C 1766.969507601752,127.67725382414159 1774.7676217939822,100.3838541513358 1798.1619643706729,80.88856867076024 Z" fill="url(#leaf15)" opacity="0.17" transform="rotate(203.0 1798.2 119.9)"/>
    <path d="M 1578.7331477883715,820.5780908740176 C 1597.7120751123027,836.3938636439603 1604.03838422028,858.5359455218802 1578.7331477883715,883.8411819537887 C 1553.427911356463,858.5359455218802 1559.7542204644403,836.3938636439603 1578.7331477883715,820.5780908740176 Z" fill="url(#leaf16)" opacity="0.25" transform="rotate(64.2 1578.7 852.2)"/>
    <path d="M 461.00804087674885,548.544999147002 C 508.27638508063126,587.9352859835707 524.0324998152588,643.0816875547669 461.00804087674885,706.1061464932768 C 397.9835819382389,643.0816875547669 413.73969667286644,587.9352859835707 461.00804087674885,548.544999147002 Z" fill="url(#leaf17)" opacity="0.15" transform="rotate(315.7 461.0 627.3)"/>
    <path d="M 705.6680245176568,945.0292131940259 C 742.9566766496382,976.103089970677 755.3862273602987,1019.6065174579887 705.6680245176568,1069.3247203006306 C 655.949821675015,1019.6065174579887 668.3793723856754,976.103089970677 705.6680245176568,945.0292131940259 Z" fill="url(#leaf18)" opacity="0.17" transform="rotate(95.4 705.7 1007.2)"/>
    <path d="M 851.9033168291045,803.720674686014 C 886.2249840822849,832.3220640636644 897.665539833345,872.3640091923749 851.9033168291045,918.1262321966153 C 806.141093824864,872.3640091923749 817.5816495759241,832.3220640636644 851.9033168291045,803.720674686014 Z" fill="url(#leaf19)" opacity="0.23" transform="rotate(313.2 851.9 860.9)"/>
    <path d="M 1157.4498857066308,30.818693682913434 C 1183.5532112081228,52.57146493415675 1192.2543197086202,83.0253446858974 1157.4498857066308,117.8297786878867 C 1122.6454517046413,83.0253446858974 1131.3465602051388,52.57146493415675 1157.4498857066308,30.818693682913434 Z" fill="url(#leaf20)" opacity="0.18" transform="rotate(188.7 1157.4 74.3)"/>
    <path d="M 842.5852573390451,760.9317200016087 C 874.5451548494402,787.5649679269379 885.1984540195718,824.8515150223989 842.5852573390451,867.4647117029256 C 799.9720606585184,824.8515150223989 810.6253598286501,787.5649679269379 842.5852573390451,760.9317200016087 Z" fill="url(#leaf21)" opacity="0.21" transform="rotate(356.3 842.6 814.2)"/>
    <path d="M 1676.6076999703773,734.7251988057325 C 1720.7550060981387,771.5146205788669 1735.4707748073924,823.0198110612552 1676.6076999703773,881.8828858982703 C 1617.7446251333622,823.0198110612552 1632.460393842616,771.5146205788669 1676.6076999703773,734.7251988057325 Z" fill="url(#leaf22)" opacity="0.19" transform="rotate(274.2 1676.6 808.3)"/>
    <path d="M 1838.965988337901,15.902502441703973 C 1886.6318738747989,55.62407372245211 1902.520502387098,111.2342735154995 1838.965988337901,174.78878756469652 C 1775.411474288704,111.2342735154995 1791.3001028010033,55.62407372245211 1838.965988337901,15.902502441703973 Z" fill="url(#leaf23)" opacity="0.17" transform="rotate(117.5 1839.0 95.3)"/>
    <path d="M 330.092437247223,863.8552359230191 C 370.2027239477486,897.2804748401238 383.57281951459044,944.0758093240703 330.092437247223,997.5561915914377 C 276.6120549798556,944.0758093240703 289.9821505466974,897.2804748401238 330.092437247223,863.8552359230191 Z" fill="url(#leaf24)" opacity="0.15" transform="rotate(262.1 330.1 930.7)"/>
    <path d="M 116.44769419905163,770.4808443261325 C 145.21789468855997,794.4560114007227 154.8079615183961,828.0212453051491 116.44769419905163,866.3815126244936 C 78.08742687970715,828.0212453051491 87.67749370954327,794.4560114007227 116.44769419905163,770.4808443261325 Z" fill="url(#leaf25)" opacity="0.16" transform="rotate(132.1 116.4 818.4)"/>
    <path d="M 397.46416255176604,757.2880891446845 C 442.97067325492196,795.2101813973145 458.139510155974,848.3011105509964 397.46416255176604,908.9764581552043 C 336.7888149475581,848.3011105509964 351.9576518486101,795.2101813973145 397.46416255176604,757.2880891446845 Z" fill="url(#leaf26)" opacity="0.22" transform="rotate(194.3 397.5 833.1)"/>
    <path d="M 721.5180349701967,5.125066039143789 C 767.3318020098584,43.30320523886184 782.6030576897456,96.75260011846711 721.5180349701967,157.837622838016 C 660.4330122506478,96.75260011846711 675.704267930535,43.30320523886184 721.5180349701967,5.125066039143789 Z" fill="url(#leaf27)" opacity="0.19" transform="rotate(231.8 721.5 81.5)"/>
    <path d="M 1088.6581145126768,451.46454313990836 C 1116.5617670533738,474.7175869238226 1125.8629845669395,507.27184822130255 1088.6581145126768,544.4767182755654 C 1051.453244458414,507.27184822130255 1060.7544619719797,474.7175869238226 1088.6581145126768,451.46454313990836 Z" fill="url(#leaf28)" opacity="0.24" transform="rotate(144.8 1088.7 498.0)"/>
    <path d="M 1169.83243851003,252.56804605639798 C 1215.6716482416655,290.7673874994277 1230.9513848188774,344.2464655196692 1169.83243851003,405.3654118285167 C 1108.7134922011826,344.2464655196692 1123.9932287783945,290.7673874994277 1169.83243851003,252.56804605639798 Z" fill="url(#leaf29)" opacity="0.18" transform="rotate(310.3 1169.8 329.0)"/>
    <path d="M 1501.2011050178594,636.7283221351487 C 1537.6431030502697,667.096653828824 1549.7904357277398,709.6123181999693 1501.2011050178594,758.2016489098497 C 1452.611774307979,709.6123181999693 1464.759106985449,667.096653828824 1501.2011050178594,636.7283221351487 Z" fill="url(#leaf0)" opacity="0.21" transform="rotate(160.1 1501.2 697.5)"/>
    <path d="M 186.6661277230258,900.5354695069369 C 231.18394318311405,937.6336490570104 246.0232150031435,989.5711004271135 186.6661277230258,1048.9281877072312 C 127.3090404429081,989.5711004271135 142.14831226293754,937.6336490570104 186.6661277230258,900.5354695069369 Z" fill="url(#leaf1)" opacity="0.15" transform="rotate(192.3 186.7 974.7)"/>
    <path d="M 944.0775457780637,958.1454761726844 C 984.9064446522947,992.169558567877 998.5160776103717,1039.8032739211462 944.0775457780637,1094.2418057534542 C 889.6390139457558,1039.8032739211462 903.2486469038328,992.169558567877 944.0775457780637,958.1454761726844 Z" fill="url(#leaf2)" opacity="0.18" transform="rotate(182.8 944.1 1026.2)"/>
    <path d="M 1448.9789202012619,457.747865309872 C 1480.7335089074243,484.2100225650073 1491.3183718094783,521.2570427221967 1448.9789202012619,563.5964943304132 C 1406.6394685930454,521.2570427221967 1417.2243314950995,484.2100225650073 1448.9789202012619,457.747865309872 Z" fill="url(#leaf3)" opacity="0.21" transform="rotate(239.1 1449.0 510.7)"/>
    <path d="M 510.20460674559126,160.91406612605726 C 550.1220267403036,194.17858278831756 563.4278334052077,240.74890611548193 510.20460674559126,293.9721327750984 C 456.9813800859748,240.74890611548193 470.28718675087896,194.17858278831756 510.20460674559126,160.91406612605726 Z" fill="url(#leaf4)" opacity="0.23" transform="rotate(307.1 510.2 227.4)"/>
    <path d="M 1823.2516574911956,596.0884295268238 C 1848.1925923073807,616.8725418736446 1856.506237246109,645.9702991591939 1823.2516574911956,679.2248789141074 C 1789.997077736282,645.9702991591939 1798.3107226750105,616.8725418736446 1823.2516574911956,596.0884295268238 Z" fill="url(#leaf5)" opacity="0.18" transform="rotate(204.0 1823.3 637.7)"/>
    <path d="M 1068.0944467616905,775.402014177155 C 1098.6860524858953,800.8950189473256 1108.8832543939634,836.5852256255645 1068.0944467616905,877.3740332578375 C 1027.3056391294176,836.5852256255645 1037.5028410374857,800.8950189473256 1068.0944467616905,775.402014177155 Z" fill="url(#leaf6)" opacity="0.19" transform="rotate(40.7 1068.1 826.4)"/>
    <path d="M 819.560964283173,280.86417866915906 C 838.8781811683926,296.96185940684217 845.3172534634659,319.49861243959845 819.560964283173,345.25490161989137 C 793.8046751028801,319.49861243959845 800.2437473979534,296.96185940684217 819.560964283173,280.86417866915906 Z" fill="url(#leaf7)" opacity="0.18" transform="rotate(285.6 819.6 313.1)"/>
    <path d="M 345.8056041950947,716.4705497123241 C 387.1206172239455,750.8997272363665 400.89228823356245,799.1005757700258 345.8056041950947,854.1872598084935 C 290.71892015662695,799.1005757700258 304.4905911662439,750.8997272363665 345.8056041950947,716.4705497123241 Z" fill="url(#leaf8)" opacity="0.20" transform="rotate(130.9 345.8 785.3)"/>
    <path d="M 1574.357088540889,327.37323249047654 C 1610.6975346622626,357.6569375916212 1622.8110167027205,400.0541247332238 1574.357088540889,448.50805289505524 C 1525.9031603790575,400.0541247332238 1538.0166424195154,357.6569375916212 1574.357088540889,327.37323249047654 Z" fill="url(#leaf9)" opacity="0.19" transform="rotate(68.5 1574.4 387.9)"/>
    <path d="M 1744.7960477982117,533.1604410871957 C 1765.7177667414046,550.5952068731897 1772.691673055802,575.0038789735813 1744.7960477982117,602.8995042311717 C 1716.9004225406213,575.0038789735813 1723.8743288550188,550.5952068731897 1744.7960477982117,533.1604410871957 Z" fill="url(#leaf10)" opacity="0.19" transform="rotate(309.5 1744.8 568.0)"/>
    <path d="M 1306.7184692822195,962.8952177608677 C 1346.5981791434917,996.1283093119278 1359.8914157639158,1042.654637483412 1306.7184692822195,1095.8275839651083 C 1253.5455228005233,1042.654637483412 1266.8387594209473,996.1283093119278 1306.7184692822195,962.8952177608677 Z" fill="url(#leaf11)" opacity="0.24" transform="rotate(255.7 1306.7 1029.4)"/>
    <path d="M 560.3958250638652,863.0357035202105 C 602.5004613157857,898.122900396811 616.535340066426,947.2449760240515 560.3958250638652,1003.3844910266123 C 504.25631006130453,947.2449760240515 518.2911888119447,898.122900396811 560.3958250638652,863.0357035202105 Z" fill="url(#leaf12)" opacity="0.25" transform="rotate(137.5 560.4 933.2)"/>
    <path d="M 1771.8522423715453,93.85361254723742 C 1814.5913461164012,129.46953233461727 1828.837714031353,179.33182003694904 1771.8522423715453,236.31729169675677 C 1714.8667707117377,179.33182003694904 1729.1131386266895,129.46953233461727 1771.8522423715453,93.85361254723742 Z" fill="url(#leaf13)" opacity="0.23" transform="rotate(324.7 1771.9 165.1)"/>
    <path d="M 1104.6931117205033,224.47591241461674 C 1133.9900495721988,248.89002729102972 1143.7556955227642,283.0697881180079 1104.6931117205033,322.13237192026867 C 1065.6305279182425,283.0697881180079 1075.3961738688079,248.89002729102972 1104.6931117205033,224.47591241461674 Z" fill="url(#leaf14)" opacity="0.15" transform="rotate(148.5 1104.7 273.3)"/>
    <path d="M 1774.9911979694975,222.1568727764608 C 1812.5132838966838,253.42527771578264 1825.0206458724126,297.2010446308333 1774.9911979694975,347.23049253374825 C 1724.9617500665825,297.2010446308333 1737.4691120423113,253.42527771578264 1774.9911979694975,222.1568727764608 Z" fill="url(#leaf15)" opacity="0.19" transform="rotate(6.2 1775.0 284.7)"/>
    <path d="M 796.4551658549717,280.7182916868885 C 826.9230595524027,306.1082031014144 837.079024118213,341.6540790817506 796.4551658549717,382.277937344992 C 755.8313075917304,341.6540790817506 765.9872721575407,306.1082031014144 796.4551658549717,280.7182916868885 Z" fill="url(#leaf16)" opacity="0.16" transform="rotate(40.8 796.5 331.5)"/>
    <path d="M 1639.1836739858736,630.212427392036 C 1685.1963744900456,668.5563444788461 1700.5339413247696,722.2378284003801 1639.1836739858736,783.588095739276 C 1577.8334066469777,722.2378284003801 1593.1709734817016,668.5563444788461 1639.1836739858736,630.212427392036 Z" fill="url(#leaf17)" opacity="0.16" transform="rotate(296.7 1639.2 706.9)"/>
    <path d="M 125.34524867342992,288.94401740649505 C 168.1192155283677,324.5889897856099 182.37720448001366,374.49195111637067 125.34524867342992,431.52390692295444 C 68.31329286684618,374.49195111637067 82.57128181849212,324.5889897856099 125.34524867342992,288.94401740649505 Z" fill="url(#leaf18)" opacity="0.19" transform="rotate(14.7 125.3 360.2)"/>
    <path d="M 1514.7095006510076,255.43069091555157 C 1561.5430461835106,294.4586455259707 1577.1542280276783,349.0977819805576 1514.7095006510076,411.5425093572283 C 1452.264773274337,349.0977819805576 1467.8759551185046,294.4586455259707 1514.7095006510076,255.43069091555157 Z" fill="url(#leaf19)" opacity="0.21" transform="rotate(224.3 1514.7 333.5)"/>
    <path d="M 1652.6872315600697,623.0782076954602 C 1692.207881386147,656.0120825505245 1705.3814313281725,702.1195073476146 1652.6872315600697,754.8137071157175 C 1599.9930317919668,702.1195073476146 1613.1665817339924,656.0120825505245 1652.6872315600697,623.0782076954602 Z" fill="url(#leaf20)" opacity="0.19" transform="rotate(188.1 1652.7 688.9)"/>
    <path d="M 310.31596684159837,496.6849754733676 C 356.4120830618188,535.0984056568847 371.77745513522564,588.8772079138084 310.31596684159837,650.3386962074358 C 248.85447854797113,588.8772079138084 264.21985062137793,535.0984056568847 310.31596684159837,496.6849754733676 Z" fill="url(#leaf21)" opacity="0.19" transform="rotate(81.2 310.3 573.5)"/>
    <path d="M 904.6858807339593,555.4203905712109 C 935.5829197855422,581.1679231141966 945.8819328027365,617.2144686743767 904.6858807339593,658.4105207431539 C 863.489828665182,617.2144686743767 873.7888416823763,581.1679231141966 904.6858807339593,555.4203905712109 Z" fill="url(#leaf22)" opacity="0.23" transform="rotate(130.4 904.7 606.9)"/>
    <path d="M 1229.9553242433838,584.9563109150836 C 1264.9226377668574,614.0957388513115 1276.5784089413485,654.8909379620306 1229.9553242433838,701.5140226599954 C 1183.332239545419,654.8909379620306 1194.98801071991,614.0957388513115 1229.9553242433838,584.9563109150836 Z" fill="url(#leaf23)" opacity="0.16" transform="rotate(275.5 1230.0 643.2)"/>
    <path d="M 826.0683778461632,727.7828386502478 C 865.6218216650215,760.7440418326297 878.8063029379742,806.8897262879643 826.0683778461632,859.6276513797753 C 773.3304527543522,806.8897262879643 786.514934027305,760.7440418326297 826.0683778461632,727.7828386502478 Z" fill="url(#leaf24)" opacity="0.20" transform="rotate(71.8 826.1 793.7)"/>
    <path d="M 581.0518870362797,924.7042129759408 C 615.6983158778636,953.576237010594 627.2471254917249,993.9970706591085 581.0518870362797,1040.1923091145538 C 534.8566485808345,993.9970706591085 546.4054581946958,953.576237010594 581.0518870362797,924.7042129759408 Z" fill="url(#leaf25)" opacity="0.16" transform="rotate(11.9 581.1 982.4)"/>
    <path d="M 892.4097368938556,295.4657828432642 C 911.0708255702004,311.0166900735516 917.2911884623154,332.78796019595404 892.4097368938556,357.66941176441395 C 867.5282853253957,332.78796019595404 873.7486482175107,311.0166900735516 892.4097368938556,295.4657828432642 Z" fill="url(#leaf26)" opacity="0.23" transform="rotate(282.0 892.4 326.6)"/>
    <path d="M 1038.012000886416,814.3343905466686 C 1058.4848185150345,831.3950719038507 1065.3090910579074,855.2800258039056 1038.012000886416,882.577115975397 C 1010.7149107149246,855.2800258039056 1017.5391832577975,831.3950719038507 1038.012000886416,814.3343905466686 Z" fill="url(#leaf27)" opacity="0.16" transform="rotate(187.4 1038.0 848.5)"/>
    <path d="M 1020.6377608312157,353.88933172763177 C 1067.8445265223004,393.228303136869 1083.5801150859952,448.3028631098011 1020.6377608312157,511.24521736458064 C 957.6954065764362,448.3028631098011 973.430995140131,393.228303136869 1020.6377608312157,353.88933172763177 Z" fill="url(#leaf28)" opacity="0.15" transform="rotate(241.3 1020.6 432.6)"/>
    <path d="M 263.3885122478048,753.4834973414777 C 287.7046692344706,773.7469614970324 295.8100548966925,802.1158113148092 263.3885122478048,834.5373539636969 C 230.96696959891705,802.1158113148092 239.072355261139,773.7469614970324 263.3885122478048,753.4834973414777 Z" fill="url(#leaf29)" opacity="0.21" transform="rotate(69.2 263.4 794.0)"/>
    <path d="M 1396.8240615108116,14.25802188045482 C 1444.3252882659635,53.842377509748204 1460.159030517681,109.26047539075894 1396.8240615108116,172.59544439762834 C 1333.4890925039422,109.26047539075894 1349.3228347556596,53.842377509748204 1396.8240615108116,14.25802188045482 Z" fill="url(#leaf0)" opacity="0.16" transform="rotate(43.7 1396.8 93.4)"/>
    <path d="M 1570.9225456650672,587.6490575883811 C 1594.8198509020588,607.5634786192072 1602.7856193143891,635.4436680623639 1570.9225456650672,667.3067417116858 C 1539.0594720157453,635.4436680623639 1547.0252404280757,607.5634786192072 1570.9225456650672,587.6490575883811 Z" fill="url(#leaf1)" opacity="0.16" transform="rotate(151.2 1570.9 627.5)"/>
    <path d="M 406.0401382022977,501.1956822359075 C 453.44528874064605,540.6999743511977 469.24700558676216,596.005983312604 406.0401382022977,659.2128506970685 C 342.8332708178333,596.005983312604 358.6349876639494,540.6999743511977 406.0401382022977,501.1956822359075 Z" fill="url(#leaf2)" opacity="0.23" transform="rotate(151.2 406.0 580.2)"/>
    <path d="M 403.7793009573921,65.96403376540457 C 435.5622429809506,92.44981878503665 446.1565569888034,129.52991781252157 403.7793009573921,171.90717384393292 C 361.40204492598076,129.52991781252157 371.99635893383356,92.44981878503665 403.7793009573921,65.96403376540457 Z" fill="url(#leaf3)" opacity="0.24" transform="rotate(277.5 403.8 118.9)"/>
    <path d="M 738.1404162457366,505.2008355268844 C 772.5918535035662,533.9103665750758 784.0756659228427,574.1037100425438 738.1404162457366,620.0389597196499 C 692.2051665686304,574.1037100425438 703.6889789879069,533.9103665750758 738.1404162457366,505.2008355268844 Z" fill="url(#leaf4)" opacity="0.24" transform="rotate(158.8 738.1 562.6)"/>
    <path d="M 1105.8629526937202,644.9992052145833 C 1148.5342801958743,680.5586447997117 1162.7580560299257,730.3418602188916 1105.8629526937202,787.2369635550972 C 1048.9678493575148,730.3418602188916 1063.1916251915661,680.5586447997117 1105.8629526937202,644.9992052145833 Z" fill="url(#leaf5)" opacity="0.19" transform="rotate(288.5 1105.9 716.1)"/>
    <path d="M 489.7726498411157,177.68427289679656 C 509.74903886339257,194.3312637486939 516.4078352041515,217.63705094135025 489.7726498411157,244.27223630438604 C 463.1374644780799,217.63705094135025 469.79626081883885,194.3312637486939 489.7726498411157,177.68427289679656 Z" fill="url(#leaf6)" opacity="0.21" transform="rotate(247.8 489.8 211.0)"/>
    <path d="M 1482.9115927247576,655.3082639246833 C 1502.2507949367491,671.4242657680095 1508.6971956740795,693.9866683486661 1482.9115927247576,719.7722712979879 C 1457.1259897754358,693.9866683486661 1463.572390512766,671.4242657680095 1482.9115927247576,655.3082639246833 Z" fill="url(#leaf7)" opacity="0.15" transform="rotate(246.4 1482.9 687.5)"/>
    <path d="M 577.8974725015846,781.8895235467846 C 624.869080783056,821.0325304480107 640.5262835435464,875.8327401097273 577.8974725015846,938.461551151689 C 515.2686614596229,875.8327401097273 530.9258642201132,821.0325304480107 577.8974725015846,781.8895235467846 Z" fill="url(#leaf8)" opacity="0.22" transform="rotate(33.2 577.9 860.2)"/>
    <path d="M 1214.6107889385842,742.5867300014178 C 1236.4260283314904,760.7660961621731 1243.6977747957926,786.2172087872306 1214.6107889385842,815.304194644439 C 1185.5238030813757,786.2172087872306 1192.7955495456779,760.7660961621731 1214.6107889385842,742.5867300014178 Z" fill="url(#leaf9)" opacity="0.24" transform="rotate(165.1 1214.6 778.9)"/>
    <path d="M 1576.519201374243,717.3392216604909 C 1598.6845373975914,735.8103350132812 1606.0729827387074,761.6698937071877 1576.519201374243,791.2236750716522 C 1546.9654200097787,761.6698937071877 1554.3538653508947,735.8103350132812 1576.519201374243,717.3392216604909 Z" fill="url(#leaf10)" opacity="0.21" transform="rotate(47.0 1576.5 754.3)"/>
    <path d="M 668.4038839999461,854.7504010418209 C 712.5512958616945,891.5399109266111 727.2670998156105,943.0452247653177 668.4038839999461,1001.9084405809822 C 609.5406681842816,943.0452247653177 624.2564721381976,891.5399109266111 668.4038839999461,854.7504010418209 Z" fill="url(#leaf11)" opacity="0.21" transform="rotate(125.7 668.4 928.3)"/>
    <path d="M 1276.7863576904795,31.46752059952493 C 1319.2792703183302,66.87828112273378 1333.4435745276137,116.45334585522617 1276.7863576904795,173.11056269236033 C 1220.1291408533452,116.45334585522617 1234.2934450626287,66.87828112273378 1276.7863576904795,31.46752059952493 Z" fill="url(#leaf12)" opacity="0.21" transform="rotate(260.9 1276.8 102.3)"/>
    <path d="M 1158.7290802566931,832.7251036081041 C 1181.524785092177,851.7215243043405 1189.1233533706716,878.3165132790715 1158.7290802566931,908.7107863930498 C 1128.3348071427147,878.3165132790715 1135.9333754212093,851.7215243043405 1158.7290802566931,832.7251036081041 Z" fill="url(#leaf13)" opacity="0.19" transform="rotate(57.2 1158.7 870.7)"/>
    <path d="M 1080.3191794051634,805.3605347050056 C 1100.0852460606457,821.8322569179076 1106.6739349458066,844.8926680159703 1080.3191794051634,871.2474235566135 C 1053.96442386452,844.8926680159703 1060.553112749681,821.8322569179076 1080.3191794051634,805.3605347050056 Z" fill="url(#leaf14)" opacity="0.17" transform="rotate(195.4 1080.3 838.3)"/>
    <path d="M 557.5665792152402,392.20373848167384 C 584.2294896394326,414.42283050183426 593.1171264474967,445.52955933005876 557.5665792152402,481.0801065623154 C 522.0160319829836,445.52955933005876 530.9036687910477,414.42283050183426 557.5665792152402,392.20373848167384 Z" fill="url(#leaf15)" opacity="0.15" transform="rotate(56.2 557.6 436.6)"/>
    <path d="M 547.9071891314522,159.0683778639073 C 588.9088497520845,193.23642838110084 602.5760699589619,241.07169910517177 547.9071891314522,295.74057993268144 C 493.2383083039426,241.07169910517177 506.90552851082,193.23642838110084 547.9071891314522,159.0683778639073 Z" fill="url(#leaf16)" opacity="0.24" transform="rotate(253.5 547.9 227.4)"/>
    <path d="M 606.783985652958,335.23859168205655 C 630.2530180849546,354.7961187087204 638.0760288956202,382.17665654604986 606.783985652958,413.46869978871206 C 575.4919424102958,382.17665654604986 583.3149532209613,354.7961187087204 606.783985652958,335.23859168205655 Z" fill="url(#leaf17)" opacity="0.16" transform="rotate(288.4 606.8 374.4)"/>
    <path d="M 719.8652630549508,597.2941808501373 C 751.0680294334006,623.2964861655121 761.4689515595505,659.6997136070369 719.8652630549508,701.3034021116366 C 678.261574550351,659.6997136070369 688.662496676501,623.2964861655121 719.8652630549508,597.2941808501373 Z" fill="url(#leaf18)" opacity="0.17" transform="rotate(286.9 719.9 649.3)"/>
    <path d="M 615.3748177979286,570.8955655188934 C 652.2282349584032,601.6067464859555 664.5127073452279,644.6023998398424 615.3748177979286,693.7402893871417 C 566.2369282506293,644.6023998398424 578.521400637454,601.6067464859555 615.3748177979286,570.8955655188934 Z" fill="url(#leaf19)" opacity="0.15" transform="rotate(231.2 615.4 632.3)"/>
    <path d="M 1783.526749888631,769.2131668917208 C 1827.4126180673193,805.7847237072942 1842.0412407935487,856.9849032490972 1783.526749888631,915.4993941540148 C 1725.0122589837133,856.9849032490972 1739.6408817099427,805.7847237072942 1783.526749888631,769.2131668917208 Z" fill="url(#leaf20)" opacity="0.25" transform="rotate(89.5 1783.5 842.4)"/>
    <path d="M 1828.8611905187145,868.2276189847175 C 1871.579740137461,903.826410333673 1885.819256677043,953.6647182222106 1828.8611905187145,1010.6227843805393 C 1771.9031243603858,953.6647182222106 1786.142640899968,903.826410333673 1828.8611905187145,868.2276189847175 Z" fill="url(#leaf21)" opacity="0.17" transform="rotate(218.2 1828.9 939.4)"/>
    <path d="M 1518.5974354262435,186.53913664409458 C 1552.7273154497598,214.98070333035812 1564.1039421242651,254.79889669112708 1518.5974354262435,300.30540338914875 C 1473.0909287282218,254.79889669112708 1484.4675554027272,214.98070333035812 1518.5974354262435,186.53913664409458 Z" fill="url(#leaf22)" opacity="0.22" transform="rotate(280.1 1518.6 243.4)"/>
    <path d="M 1002.4289431818703,9.67253601072155 C 1036.726451590981,38.25379301831376 1048.1589543940179,78.26755282894284 1002.4289431818703,123.99756404109036 C 956.6989319697227,78.26755282894284 968.1314347727597,38.25379301831376 1002.4289431818703,9.67253601072155 Z" fill="url(#leaf23)" opacity="0.19" transform="rotate(326.1 1002.4 66.8)"/>
    <path d="M 72.00110284401455,348.43920327954 C 90.62382190098606,363.95813582701624 96.83139491997656,385.684641393483 72.00110284401455,410.514933469445 C 47.17081076805255,385.684641393483 53.37838378704305,363.95813582701624 72.00110284401455,348.43920327954 Z" fill="url(#leaf24)" opacity="0.23" transform="rotate(165.7 72.0 379.5)"/>
    <path d="M 290.94141905707545,484.0491899302642 C 333.42654503783734,519.4534615808992 347.5882536980913,569.0194418917881 290.94141905707545,625.666276532804 C 234.29458441605956,569.0194418917881 248.45629307631356,519.4534615808992 290.94141905707545,484.0491899302642 Z" fill="url(#leaf25)" opacity="0.22" transform="rotate(285.9 290.9 554.9)"/>
    <path d="M 1169.1166575388017,973.9463503348203 C 1198.4736209022394,998.4104864710182 1208.2592753567185,1032.6602770616955 1169.1166575388017,1071.8028948796123 C 1129.974039720885,1032.6602770616955 1139.759694175364,998.4104864710182 1169.1166575388017,973.9463503348203 Z" fill="url(#leaf26)" opacity="0.23" transform="rotate(166.8 1169.1 1022.9)"/>
    <path d="M 924.1282313860614,494.94046486851005 C 969.3392879837664,532.6163453665976 984.4096401830014,585.3625780639201 924.1282313860614,645.6439868608601 C 863.8468225891214,585.3625780639201 878.9171747883564,532.6163453665976 924.1282313860614,494.94046486851005 Z" fill="url(#leaf27)" opacity="0.22" transform="rotate(113.5 924.1 570.3)"/>
    <path d="M 788.3628681743486,450.7472697918369 C 833.3431533299456,488.2308407548345 848.3365817151447,540.707840103031 788.3628681743486,600.6815536438271 C 728.3891546335525,540.707840103031 743.3825830187516,488.2308407548345 788.3628681743486,450.7472697918369 Z" fill="url(#leaf28)" opacity="0.17" transform="rotate(71.1 788.4 525.7)"/>
    <path d="M 1475.983978047313,773.7385551102254 C 1497.9038694475548,792.0051312770935 1505.210499914302,817.5783379107089 1475.983978047313,846.8048597776979 C 1446.757456180324,817.5783379107089 1454.0640866470712,792.0051312770935 1475.983978047313,773.7385551102254 Z" fill="url(#leaf29)" opacity="0.23" transform="rotate(315.5 1476.0 810.3)"/>
    <path d="M 571.7028454600306,201.50224381429675 C 607.741142243096,231.53415780018457 619.7539078374512,273.5788373804275 571.7028454600306,321.62989975784797 C 523.6517830826101,273.5788373804275 535.6645486769653,231.53415780018457 571.7028454600306,201.50224381429675 Z" fill="url(#leaf0)" opacity="0.18" transform="rotate(75.2 571.7 261.6)"/>
    <path d="M 715.4294688900511,404.30665319095243 C 755.078552839545,437.34755648219726 768.2949141560429,483.60482108994 715.4294688900511,536.4702663559317 C 662.5640236240594,483.60482108994 675.7803849405573,437.34755648219726 715.4294688900511,404.30665319095243 Z" fill="url(#leaf1)" opacity="0.21" transform="rotate(233.0 715.4 470.4)"/>
    <path d="M 601.7519389671817,743.9477536725717 C 639.2154383996148,775.1673365329325 651.7032715437591,818.8747525374378 601.7519389671817,868.8260851140151 C 551.8006063906042,818.8747525374378 564.2884395347486,775.1673365329325 601.7519389671817,743.9477536725717 Z" fill="url(#leaf2)" opacity="0.24" transform="rotate(70.1 601.8 806.4)"/>
    <path d="M 364.4707727723798,245.22474009707568 C 382.65149658296616,260.3753432725643 388.7117378531616,281.58618771824837 364.4707727723798,305.8271527990302 C 340.229807691598,281.58618771824837 346.29004896179345,260.3753432725643 364.4707727723798,245.22474009707568 Z" fill="url(#leaf3)" opacity="0.15" transform="rotate(342.1 364.5 275.5)"/>
    <path d="M 1052.8580187205137,782.88134138746 C 1090.9276252199359,814.6060134703118 1103.6174940530766,859.0205543863045 1052.8580187205137,909.7800297188676 C 1002.0985433879506,859.0205543863045 1014.7884122210913,814.6060134703118 1052.8580187205137,782.88134138746 Z" fill="url(#leaf4)" opacity="0.20" transform="rotate(89.1 1052.9 846.3)"/>
    <path d="M 536.917940882113,449.9899867713117 C 580.5141962137193,486.3201995476502 595.0462813242547,537.1824974345241 536.917940882113,595.3108378766657 C 478.7896004399714,537.1824974345241 493.32168555050686,486.3201995476502 536.917940882113,449.9899867713117 Z" fill="url(#leaf5)" opacity="0.23" transform="rotate(279.0 536.9 522.7)"/>
    <path d="M 308.7423408191188,528.222837075667 C 354.6812221365502,566.5052381735265 369.994182575694,620.1005997105299 308.7423408191188,681.3524414671051 C 247.4904990625436,620.1005997105299 262.80345950168737,566.5052381735265 308.7423408191188,528.222837075667 Z" fill="url(#leaf6)" opacity="0.23" transform="rotate(258.3 308.7 604.8)"/>
    <path d="M 1437.1908124275562,44.97871420816429 C 1469.752773224937,72.113681539315 1480.6067601573973,110.10263580292599 1437.1908124275562,153.5185835327671 C 1393.7748646977152,110.10263580292599 1404.6288516301754,72.113681539315 1437.1908124275562,44.97871420816429 Z" fill="url(#leaf7)" opacity="0.23" transform="rotate(182.0 1437.2 99.2)"/>
    <path d="M 206.07550492996316,524.4184318516352 C 245.1914189015739,557.0150268279775 258.23005689211084,602.6502597948568 206.07550492996316,654.8048117570045 C 153.92095296781548,602.6502597948568 166.9595909583524,557.0150268279775 206.07550492996316,524.4184318516352 Z" fill="url(#leaf8)" opacity="0.22" transform="rotate(222.7 206.1 589.6)"/>
    <path d="M 843.2610942098281,759.7296191472458 C 884.6626010074259,794.2308748119106 898.4631032732918,842.5326327424413 843.2610942098281,897.7346418059049 C 788.0590851463644,842.5326327424413 801.8595874122303,794.2308748119106 843.2610942098281,759.7296191472458 Z" fill="url(#leaf9)" opacity="0.24" transform="rotate(200.9 843.3 828.7)"/>
    <path d="M 486.45746104510715,296.99315663923136 C 529.2514119029918,332.6547823541352 543.5160621889532,382.58105835500055 486.45746104510715,439.6396594988467 C 429.398859901261,382.58105835500055 443.6635101872225,332.6547823541352 486.45746104510715,296.99315663923136 Z" fill="url(#leaf10)" opacity="0.19" transform="rotate(125.0 486.5 368.3)"/>
    <path d="M 1066.0710004535372,593.9833519944107 C 1099.6477126814884,621.9639455177035 1110.8399500908056,661.1367764503134 1066.0710004535372,705.9057260875818 C 1021.3020508162688,661.1367764503134 1032.494288225586,621.9639455177035 1066.0710004535372,593.9833519944107 Z" fill="url(#leaf11)" opacity="0.21" transform="rotate(276.6 1066.1 649.9)"/>
    <path d="M 1751.132290356301,225.51047958322738 C 1780.6885515288814,250.14069722704437 1790.540638586408,284.62300192838813 1751.132290356301,324.03135015849534 C 1711.7239421261938,284.62300192838813 1721.5760291837205,250.14069722704437 1751.132290356301,225.51047958322738 Z" fill="url(#leaf12)" opacity="0.17" transform="rotate(182.2 1751.1 274.8)"/>
    <path d="M 705.5025054312865,962.2772564867962 C 725.1353233976675,978.6379381254471 731.6795960531279,1001.5428924195583 705.5025054312865,1027.7199830413997 C 679.3254148094452,1001.5428924195583 685.8696874649055,978.6379381254471 705.5025054312865,962.2772564867962 Z" fill="url(#leaf13)" opacity="0.20" transform="rotate(190.1 705.5 995.0)"/>
    <path d="M 1599.8620278722365,941.0640105685083 C 1639.1097264268035,973.7704260306474 1652.192292611659,1019.5594076776422 1599.8620278722365,1071.889672417065 C 1547.531763132814,1019.5594076776422 1560.6143293176694,973.7704260306474 1599.8620278722365,941.0640105685083 Z" fill="url(#leaf14)" opacity="0.19" transform="rotate(356.4 1599.9 1006.5)"/>
    <path d="M 229.3127223897346,432.4016757448332 C 255.5406303298104,454.2582656948964 264.28326630983565,484.85749162498485 229.3127223897346,519.8280355450859 C 194.34217846963352,484.85749162498485 203.0848144496588,454.2582656948964 229.3127223897346,432.4016757448332 Z" fill="url(#leaf15)" opacity="0.19" transform="rotate(330.6 229.3 476.1)"/>
    <path d="M 1392.4616244161443,746.9493588338335 C 1418.1677754099496,768.3711513286712 1426.7364924078845,798.3616608214439 1392.4616244161443,832.6365288131842 C 1358.1867564244042,798.3616608214439 1366.755473422339,768.3711513286712 1392.4616244161443,746.9493588338335 Z" fill="url(#leaf16)" opacity="0.15" transform="rotate(132.6 1392.5 789.8)"/>
    <path d="M 1363.4023470665743,8.494308629839779 C 1398.365744443496,37.63047311060786 1410.0202102358032,78.42110338368317 1363.4023470665743,125.0389665529121 C 1316.7844838973454,78.42110338368317 1328.4389496896526,37.63047311060786 1363.4023470665743,8.494308629839779 Z" fill="url(#leaf17)" opacity="0.20" transform="rotate(106.7 1363.4 66.8)"/>
    <path d="M 864.5398535358927,118.80784841014118 C 897.7949669694045,146.52044293806773 908.8800047805752,185.31807527716492 864.5398535358927,229.65822652184744 C 820.1997022912102,185.31807527716492 831.2847401023809,146.52044293806773 864.5398535358927,118.80784841014118 Z" fill="url(#leaf18)" opacity="0.16" transform="rotate(27.2 864.5 174.2)"/>
    <path d="M 263.89527683989957,176.18939034725452 C 302.05564165954274,207.9896943636238 314.77576326609045,252.51011998654081 263.89527683989957,303.3906064127317 C 213.01479041370868,252.51011998654081 225.73491202025642,207.9896943636238 263.89527683989957,176.18939034725452 Z" fill="url(#leaf19)" opacity="0.20" transform="rotate(20.2 263.9 239.8)"/>
    <path d="M 1111.2730510099248,12.976243008317113 C 1140.8755643421332,37.645004118490775 1150.7430687862027,72.1812696727339 1111.2730510099248,111.65128744901176 C 1071.8030332336468,72.1812696727339 1081.6705376777163,37.645004118490775 1111.2730510099248,12.976243008317113 Z" fill="url(#leaf20)" opacity="0.17" transform="rotate(50.8 1111.3 62.3)"/>
    <path d="M 1564.141364842465,765.7704452227507 C 1611.251972349878,805.0292848122615 1626.9555081856824,859.9916602375768 1564.141364842465,922.8058035807941 C 1501.3272214992476,859.9916602375768 1517.030757335052,805.0292848122615 1564.141364842465,765.7704452227507 Z" fill="url(#leaf21)" opacity="0.21" transform="rotate(207.6 1564.1 844.3)"/>
    <path d="M 922.3493174221524,914.3082361162662 C 963.978773545584,948.9994495524592 977.8552589200611,997.5671483631294 922.3493174221524,1053.0730898610382 C 866.8433759242436,997.5671483631294 880.7198612987207,948.9994495524592 922.3493174221524,914.3082361162662 Z" fill="url(#leaf22)" opacity="0.17" transform="rotate(103.9 922.3 983.7)"/>
    <path d="M 1289.8392010063935,548.247118837317 C 1315.931521271308,569.9907190580791 1324.6289613596127,600.4317593671459 1289.8392010063935,635.2215197203652 C 1255.0494406531743,600.4317593671459 1263.7468807414791,569.9907190580791 1289.8392010063935,548.247118837317 Z" fill="url(#leaf23)" opacity="0.17" transform="rotate(312.2 1289.8 591.7)"/>
    <path d="M 960.8971894761443,708.1681834979686 C 1006.9392472188372,746.5365649502128 1022.2865997997349,800.2522989833545 960.8971894761443,861.6417093069451 C 899.5077791525537,800.2522989833545 914.8551317334513,746.5365649502128 960.8971894761443,708.1681834979686 Z" fill="url(#leaf24)" opacity="0.19" transform="rotate(350.7 960.9 784.9)"/>
    <path d="M 1621.9854875668548,765.846113080834 C 1647.6738045489344,787.2530438992338 1656.2365768762945,817.2227470449935 1621.9854875668548,851.4738363544333 C 1587.734398257415,817.2227470449935 1596.2971705847751,787.2530438992338 1621.9854875668548,765.846113080834 Z" fill="url(#leaf25)" opacity="0.18" transform="rotate(65.0 1622.0 808.7)"/>
    <path d="M 87.10898913630506,953.3301381211871 C 129.1460650743319,988.3610347362095 143.15842372034086,1037.4042899972408 87.10898913630506,1093.4537245812767 C 31.05955455226926,1037.4042899972408 45.07191319827821,988.3610347362095 87.10898913630506,953.3301381211871 Z" fill="url(#leaf26)" opacity="0.24" transform="rotate(236.4 87.1 1023.4)"/>
    <path d="M 1057.1126521317947,552.5587123662185 C 1098.0406475907946,586.6653752487184 1111.6833127437947,634.4147032842184 1057.1126521317947,688.9853638962184 C 1002.5419915197947,634.4147032842184 1016.1846566727947,586.6653752487184 1057.1126521317947,552.5587123662185 Z" fill="url(#leaf27)" opacity="0.21" transform="rotate(77.9 1057.1 620.8)"/>
    <path d="M 1515.9237213858135,93.60786008082017 C 1549.9963824205945,122.00174427647099 1561.3539360988548,161.75318215038214 1515.9237213858135,207.18339686342347 C 1470.4935066727721,161.75318215038214 1481.8510603510324,122.00174427647099 1515.9237213858135,93.60786008082017 Z" fill="url(#leaf28)" opacity="0.22" transform="rotate(228.3 1515.9 150.4)"/>
    <path d="M 457.6744858091528,955.1952205839351 C 492.9367186512365,984.5804146190048 504.6907962652644,1025.7196862681026 457.6744858091528,1072.7359967242141 C 410.65817535304126,1025.7196862681026 422.41225296706915,984.5804146190048 457.6744858091528,955.1952205839351 Z" fill="url(#leaf29)" opacity="0.18" transform="rotate(183.5 457.7 1014.0)"/>
    <path d="M 764.029152889637,718.5823285365382 C 809.3763813617767,756.3716855966545 824.4921241858233,809.2767854808176 764.029152889637,869.7397567770038 C 703.5661815934507,809.2767854808176 718.6819244174973,756.3716855966545 764.029152889637,718.5823285365382 Z" fill="url(#leaf0)" opacity="0.24" transform="rotate(230.6 764.0 794.2)"/>
    <path d="M 170.3583534487156,396.1568028597671 C 188.52977307491938,411.2996525482703 194.58691295032065,432.4996421121747 170.3583534487156,456.72820161377973 C 146.12979394711056,432.4996421121747 152.18693382251183,411.2996525482703 170.3583534487156,396.1568028597671 Z" fill="url(#leaf1)" opacity="0.17" transform="rotate(34.7 170.4 426.4)"/>
    <path d="M 1543.9608799920466,873.5595468477761 C 1568.6996908732287,894.1752225820946 1576.9459611669563,923.0371686101406 1543.9608799920466,956.0222497850502 C 1510.9757988171368,923.0371686101406 1519.2220691108644,894.1752225820946 1543.9608799920466,873.5595468477761 Z" fill="url(#leaf2)" opacity="0.18" transform="rotate(309.8 1544.0 914.8)"/>
    <path d="M 234.08759702044205,339.9429003587413 C 265.28212143745435,365.9383373729182 275.6802962431251,402.3319491927659 234.08759702044205,443.9246484154489 C 192.494897797759,402.3319491927659 202.89307260342974,365.9383373729182 234.08759702044205,339.9429003587413 Z" fill="url(#leaf3)" opacity="0.19" transform="rotate(227.0 234.1 391.9)"/>
    <path d="M 423.1193914569679,913.9553312110281 C 459.02403733181114,943.8758694400641 470.99225262342554,985.7646229607146 423.1193914569679,1033.6374841271722 C 375.24653029051024,985.7646229607146 387.21474558212464,943.8758694400641 423.1193914569679,913.9553312110281 Z" fill="url(#leaf4)" opacity="0.16" transform="rotate(36.8 423.1 973.8)"/>
    <path d="M 1318.6574151730008,148.17484523734367 C 1357.6201855651693,180.6438205641507 1370.607775695892,226.10038602168058 1318.6574151730008,278.05074654457184 C 1266.7070546501095,226.10038602168058 1279.6946447808323,180.6438205641507 1318.6574151730008,148.17484523734367 Z" fill="url(#leaf5)" opacity="0.15" transform="rotate(182.2 1318.7 213.1)"/>
    <path d="M 731.504805059711,865.1262600396634 C 755.1978401810328,884.8704559740983 763.0955185548067,912.5123302823071 731.504805059711,944.1030437774028 C 699.9140915646152,912.5123302823071 707.8117699383891,884.8704559740983 731.504805059711,865.1262600396634 Z" fill="url(#leaf6)" opacity="0.22" transform="rotate(94.7 731.5 904.6)"/>
    <path d="M 1429.902440696856,664.1662051687108 C 1471.2162324479427,698.5943649612831 1484.9874963649718,746.7937886708843 1429.902440696856,801.8788443389999 C 1374.8173850287403,746.7937886708843 1388.5886489457694,698.5943649612831 1429.902440696856,664.1662051687108 Z" fill="url(#leaf7)" opacity="0.21" transform="rotate(234.3 1429.9 733.0)"/>
    <path d="M 1218.6587110423561,372.3219834758832 C 1255.286242816578,402.844926621068 1267.4954200746517,445.5770470243267 1218.6587110423561,494.4137560566224 C 1169.8220020100605,445.5770470243267 1182.0311792681343,402.844926621068 1218.6587110423561,372.3219834758832 Z" fill="url(#leaf8)" opacity="0.24" transform="rotate(159.0 1218.7 433.4)"/>
    <path d="M 1713.1480567539945,209.1936261118388 C 1749.9344180409275,239.84892718428299 1762.1965384699051,282.7663486857048 1713.1480567539945,331.81483040161555 C 1664.099575038084,282.7663486857048 1676.3616954670615,239.84892718428299 1713.1480567539945,209.1936261118388 Z" fill="url(#leaf9)" opacity="0.24" transform="rotate(242.5 1713.1 270.5)"/>
    <path d="M 473.98437599348034,136.12786785096205 C 497.86169877806395,156.02563683811505 505.8208063729252,183.88251342012927 473.98437599348034,215.7189437995741 C 442.1479456140355,183.88251342012927 450.10705320889673,156.02563683811505 473.98437599348034,136.12786785096205 Z" fill="url(#leaf10)" opacity="0.17" transform="rotate(54.0 474.0 175.9)"/>
    <path d="M 1217.3398834175366,307.3196191036609 C 1265.1330496220205,347.1472576073975 1281.0641050235151,402.90595151262863 1217.3398834175366,466.6301731186071 C 1153.615661811558,402.90595151262863 1169.5467172130527,347.1472576073975 1217.3398834175366,307.3196191036609 Z" fill="url(#leaf11)" opacity="0.20" transform="rotate(343.6 1217.3 387.0)"/>
    <path d="M 1363.4132248965261,510.09481111798306 C 1381.7476665130566,525.3735124650917 1387.8591470519,546.7636943510439 1363.4132248965261,571.2096165064178 C 1338.9673027411523,546.7636943510439 1345.0787832799956,525.3735124650917 1363.4132248965261,510.09481111798306 Z" fill="url(#leaf12)" opacity="0.24" transform="rotate(278.4 1363.4 540.7)"/>
    <path d="M 363.0474898740633,803.5292084812933 C 397.26282714961934,832.0419895442567 408.66793957480473,871.9598830324055 363.0474898740633,917.580332733147 C 317.4270401733218,871.9598830324055 328.8321525985072,832.0419895442567 363.0474898740633,803.5292084812933 Z" fill="url(#leaf13)" opacity="0.23" transform="rotate(129.4 363.0 860.6)"/>
    <path d="M 1761.6746729215595,484.791634157182 C 1798.1440512690074,515.1827827800553 1810.3005107181568,557.7303908520779 1761.6746729215595,606.3562286486751 C 1713.0488351249621,557.7303908520779 1725.2052945741116,515.1827827800553 1761.6746729215595,484.791634157182 Z" fill="url(#leaf14)" opacity="0.23" transform="rotate(197.4 1761.7 545.6)"/>
    <path d="M 800.4467395498224,253.97445980466904 C 830.5185663383234,279.03431546175324 840.542508601157,314.11811338167104 800.4467395498224,354.2138824330057 C 760.3509704984878,314.11811338167104 770.3749127613214,279.03431546175324 800.4467395498224,253.97445980466904 Z" fill="url(#leaf15)" opacity="0.16" transform="rotate(297.5 800.4 304.1)"/>
    <path d="M 1810.9586572279643,328.3661790665742 C 1830.0465918051837,344.272791214257 1836.4092366642567,366.5420482210128 1810.9586572279643,391.9926276573052 C 1785.508077791672,366.5420482210128 1791.870722650745,344.272791214257 1810.9586572279643,328.3661790665742 Z" fill="url(#leaf16)" opacity="0.16" transform="rotate(78.6 1811.0 360.2)"/>
    <path d="M 1297.8480552339931,922.1115978663807 C 1337.4458466846206,955.1097574085703 1350.6451105014964,1001.3071807676357 1297.8480552339931,1054.104236035139 C 1245.0509999664898,1001.3071807676357 1258.2502637833657,955.1097574085703 1297.8480552339931,922.1115978663807 Z" fill="url(#leaf17)" opacity="0.20" transform="rotate(332.8 1297.8 988.1)"/>
    <path d="M 794.2443020342446,659.1974993502889 C 817.923370188015,678.9300561450978 825.8163929059386,706.55563565783 794.2443020342446,738.127726529524 C 762.6722111625505,706.55563565783 770.5652338804741,678.9300561450978 794.2443020342446,659.1974993502889 Z" fill="url(#leaf18)" opacity="0.16" transform="rotate(289.3 794.2 698.7)"/>
    <path d="M 1815.3458477712502,7.615688250842339 C 1860.6024490316331,45.32952263449468 1875.687982785094,98.12889077160796 1815.3458477712502,158.4710257854517 C 1755.0037127574064,98.12889077160796 1770.0892465108673,45.32952263449468 1815.3458477712502,7.615688250842339 Z" fill="url(#leaf19)" opacity="0.19" transform="rotate(236.6 1815.3 83.0)"/>
    <path d="M 548.2959530760695,197.19835504050727 C 581.7958490024141,225.11493497912772 592.9624809778622,264.1981468931964 548.2959530760695,308.8646747949891 C 503.6294251742768,264.1981468931964 514.7960571497249,225.11493497912772 548.2959530760695,197.19835504050727 Z" fill="url(#leaf20)" opacity="0.21" transform="rotate(76.2 548.3 253.0)"/>
    <path d="M 1088.4108236741183,141.24238191066314 C 1126.176725337053,172.71396662977548 1138.765359224698,216.77418523653273 1088.4108236741183,267.12872078711246 C 1038.0562881235387,216.77418523653273 1050.6449220111836,172.71396662977548 1088.4108236741183,141.24238191066314 Z" fill="url(#leaf21)" opacity="0.20" transform="rotate(48.7 1088.4 204.2)"/>
    <path d="M 247.55693939468733,574.1887715139645 C 267.894750003084,591.1369470209618 274.6740202058829,614.8643927307579 247.55693939468733,641.9814735419535 C 220.43985858349174,614.8643927307579 227.21912878629064,591.1369470209618 247.55693939468733,574.1887715139645 Z" fill="url(#leaf22)" opacity="0.22" transform="rotate(312.2 247.6 608.1)"/>
    <path d="M 963.1989067639465,600.9840383687803 C 1008.4377028059104,638.6830350704167 1023.517301486565,691.4616304527079 963.1989067639465,751.7800251753264 C 902.8805120413281,691.4616304527079 917.9601107219827,638.6830350704167 963.1989067639465,600.9840383687803 Z" fill="url(#leaf23)" opacity="0.17" transform="rotate(353.2 963.2 676.4)"/>
    <path d="M 1223.6950312134352,63.83588594016978 C 1259.0992900413753,93.33943496345317 1270.9007096506887,134.64440359604993 1223.6950312134352,181.85008203330335 C 1176.4893527761817,134.64440359604993 1188.290772385495,93.33943496345317 1223.6950312134352,63.83588594016978 Z" fill="url(#leaf24)" opacity="0.17" transform="rotate(140.8 1223.7 122.8)"/>
    <path d="M 541.6702748413851,274.1862319739284 C 567.9439983249912,296.0810015436001 576.7019061528598,326.7336789411405 541.6702748413851,361.7653102526153 C 506.6386435299103,326.7336789411405 515.396551357779,296.0810015436001 541.6702748413851,274.1862319739284 Z" fill="url(#leaf25)" opacity="0.24" transform="rotate(114.5 541.7 318.0)"/>
    <path d="M 760.2771787041971,834.4694244161955 C 785.7909717211342,855.7309185969763 794.2955693934465,885.4970104500695 760.2771787041971,919.5154011393189 C 726.2587880149478,885.4970104500695 734.7633856872601,855.7309185969763 760.2771787041971,834.4694244161955 Z" fill="url(#leaf26)" opacity="0.24" transform="rotate(80.0 760.3 877.0)"/>
    <path d="M 572.0701892423343,11.992691941052172 C 611.0827862610317,44.50318945663339 624.0869852672643,90.01788597844711 572.0701892423343,142.03468200337704 C 520.0533932174044,90.01788597844711 533.0575922236369,44.50318945663339 572.0701892423343,11.992691941052172 Z" fill="url(#leaf27)" opacity="0.21" transform="rotate(43.0 572.1 77.0)"/>
    <path d="M 800.5394608209596,635.542571033146 C 827.3913962628455,657.9191839013843 836.3420414101408,689.2464419169179 800.5394608209596,725.0490225060992 C 764.7368802317783,689.2464419169179 773.6875253790736,657.9191839013843 800.5394608209596,635.542571033146 Z" fill="url(#leaf28)" opacity="0.24" transform="rotate(136.1 800.5 680.3)"/>
    <path d="M 1496.3298226616314,431.5392831542786 C 1523.0771269705826,453.82870341173805 1531.9928950735664,485.0338917721812 1496.3298226616314,520.6969641841163 C 1460.6667502496964,485.0338917721812 1469.5825183526802,453.82870341173805 1496.3298226616314,431.5392831542786 Z" fill="url(#leaf29)" opacity="0.20" transform="rotate(164.1 1496.3 476.1)"/>
    <path d="M 1429.5968611358117,314.6466064793532 C 1475.7370798618908,353.09678875108585 1491.117152770584,406.9270439315116 1429.5968611358117,468.44733556628387 C 1368.0765695010393,406.9270439315116 1383.4566424097325,353.09678875108585 1429.5968611358117,314.6466064793532 Z" fill="url(#leaf0)" opacity="0.25" transform="rotate(163.2 1429.6 391.5)"/>
    <path d="M 1234.527309003482,311.04245665344786 C 1256.1178504780078,329.0345745488859 1263.314697636183,354.2235396024992 1234.527309003482,383.01092823520014 C 1205.7399203707812,354.2235396024992 1212.9367675289564,329.0345745488859 1234.527309003482,311.04245665344786 Z" fill="url(#leaf1)" opacity="0.18" transform="rotate(317.1 1234.5 347.0)"/>
    <path d="M 234.4314439685042,756.5696167517116 C 260.09348892464965,777.9546542151661 268.64750391003145,807.8937066640025 234.4314439685042,842.1097666055297 C 200.21538402697692,807.8937066640025 208.76939901235875,777.9546542151661 234.4314439685042,756.5696167517116 Z" fill="url(#leaf2)" opacity="0.15" transform="rotate(244.7 234.4 799.3)"/>
    <path d="M 663.6174316997129,474.8998732810309 C 683.3985498549457,491.3841384103916 689.9922559066899,514.4621095914964 663.6174316997129,540.8369337984734 C 637.2426074927359,514.4621095914964 643.8363135444802,491.3841384103916 663.6174316997129,474.8998732810309 Z" fill="url(#leaf3)" opacity="0.25" transform="rotate(246.5 663.6 507.9)"/>
    <path d="M 456.8998607550278,201.36570752028348 C 485.4581810208494,225.16430774180145 494.97762110945655,258.48234805192664 456.8998607550278,296.56010840635537 C 418.8221004005991,258.48234805192664 428.34154048920624,225.16430774180145 456.8998607550278,201.36570752028348 Z" fill="url(#leaf4)" opacity="0.22" transform="rotate(160.1 456.9 249.0)"/>
    <path d="M 1451.936896980254,484.88283734758585 C 1475.0182481980412,504.1172966957418 1482.7120319373034,531.04553978316 1451.936896980254,561.8206747402095 C 1421.1617620232046,531.04553978316 1428.8555457624668,504.1172966957418 1451.936896980254,484.88283734758585 Z" fill="url(#leaf5)" opacity="0.20" transform="rotate(134.0 1451.9 523.4)"/>
    <path d="M 369.55454197807234,487.2507917891817 C 407.8149382650754,519.1344553616842 420.56840369407644,563.7715843631878 369.55454197807234,614.7854460791918 C 318.54068026206824,563.7715843631878 331.2941456910693,519.1344553616842 369.55454197807234,487.2507917891817 Z" fill="url(#leaf6)" opacity="0.20" transform="rotate(322.9 369.6 551.0)"/>
    <path d="M 121.67794292901142,588.6365244839627 C 167.12841943227195,626.5119215700131 182.27857826669214,679.5374774904838 121.67794292901142,740.1381128281645 C 61.077307591330715,679.5374774904838 76.22746642575089,626.5119215700131 121.67794292901142,588.6365244839627 Z" fill="url(#leaf7)" opacity="0.22" transform="rotate(47.6 121.7 664.4)"/>
    <path d="M 1349.5036219860465,514.2264365825198 C 1393.9728202464548,551.2841017995268 1408.7958863332576,603.1648331033365 1349.5036219860465,662.4570974505476 C 1290.2113576388354,603.1648331033365 1305.0344237256381,551.2841017995268 1349.5036219860465,514.2264365825198 Z" fill="url(#leaf8)" opacity="0.23" transform="rotate(91.3 1349.5 588.3)"/>
    <path d="M 275.3925536751341,363.85312912366686 C 300.246585202119,384.56482206282095 308.53126237778065,413.56119217763666 275.3925536751341,446.6999008802832 C 242.2538449724875,413.56119217763666 250.53852214814916,384.56482206282095 275.3925536751341,363.85312912366686 Z" fill="url(#leaf9)" opacity="0.16" transform="rotate(79.5 275.4 405.3)"/>
    <path d="M 789.533413327295,319.2129183986501 C 832.557482534485,355.0663094046418 846.8988389368816,405.26105681303017 789.533413327295,462.62648242261685 C 732.1679877177083,405.26105681303017 746.509344120105,355.0663094046418 789.533413327295,319.2129183986501 Z" fill="url(#leaf10)" opacity="0.21" transform="rotate(280.8 789.5 390.9)"/>
    <path d="M 939.7428372941391,385.95898340197544 C 967.5229720732342,409.109095717888 976.7830169995993,441.51925296016566 939.7428372941391,478.5594326656258 C 902.7026575886789,441.51925296016566 911.962702515044,409.109095717888 939.7428372941391,385.95898340197544 Z" fill="url(#leaf11)" opacity="0.18" transform="rotate(38.1 939.7 432.3)"/>
    <path d="M 1603.5147145629753,0.24329672956335457 C 1642.5169871998773,32.74519059364832 1655.5177447455112,78.24784200336727 1603.5147145629753,130.2508721859032 C 1551.5116843804394,78.24784200336727 1564.5124419260733,32.74519059364832 1603.5147145629753,0.24329672956335457 Z" fill="url(#leaf12)" opacity="0.21" transform="rotate(311.1 1603.5 65.2)"/>
    <path d="M 510.5563160194583,762.8087814711714 C 543.5567793169067,790.3091675523784 554.5569337493895,828.8097080660682 510.5563160194583,872.8103257959995 C 466.5556982895271,828.8097080660682 477.5558527220099,790.3091675523784 510.5563160194583,762.8087814711714 Z" fill="url(#leaf13)" opacity="0.18" transform="rotate(350.1 510.6 817.8)"/>
    <path d="M 1711.1309914943702,137.6772620239278 C 1750.4543958655483,170.4467656665763 1763.5621973226077,216.32407076628422 1711.1309914943702,268.7552765945219 C 1658.6997856661326,216.32407076628422 1671.807587123192,170.4467656665763 1711.1309914943702,137.6772620239278 Z" fill="url(#leaf14)" opacity="0.21" transform="rotate(122.1 1711.1 203.2)"/>
    <path d="M 422.85475872402236,201.27568525959407 C 449.45153403347956,223.43966468414175 458.3171258032986,254.46923587850847 422.85475872402236,289.9316029577847 C 387.3923916447461,254.46923587850847 396.25798341456516,223.43966468414175 422.85475872402236,201.27568525959407 Z" fill="url(#leaf15)" opacity="0.16" transform="rotate(45.5 422.9 245.6)"/>
    <path d="M 1036.2049643342534,891.7695848409804 C 1063.6204094557604,914.615789108903 1072.7588911629293,946.6004750839944 1036.2049643342534,983.1544019126703 C 999.6510375055775,946.6004750839944 1008.7895192127464,914.615789108903 1036.2049643342534,891.7695848409804 Z" fill="url(#leaf16)" opacity="0.15" transform="rotate(335.6 1036.2 937.5)"/>
    <path d="M 169.51425741274886,940.3841350077081 C 192.46865535175937,959.5127999568836 200.12012133142957,986.2929308857292 169.51425741274886,1016.8987948044099 C 138.90839349406815,986.2929308857292 146.55985947373836,959.5127999568836 169.51425741274886,940.3841350077081 Z" fill="url(#leaf17)" opacity="0.18" transform="rotate(101.6 169.5 978.6)"/>
    <path d="M 947.720187899417,338.4389500262252 C 984.9960616255689,369.5021781313517 997.4213528676195,412.99069747852883 947.720187899417,462.69186244673125 C 898.0190229312146,412.99069747852883 910.4443141732652,369.5021781313517 947.720187899417,338.4389500262252 Z" fill="url(#leaf18)" opacity="0.18" transform="rotate(341.9 947.7 400.6)"/>
    <path d="M 717.0387844369671,706.9167770525183 C 753.588585840654,737.374944888924 765.7718529752163,780.016379859892 717.0387844369671,828.7494483981412 C 668.305715898718,780.016379859892 680.4889830332803,737.374944888924 717.0387844369671,706.9167770525183 Z" fill="url(#leaf19)" opacity="0.19" transform="rotate(74.2 717.0 767.8)"/>
    <path d="M 625.2419162557369,708.1791239991113 C 657.9017812883625,735.3956781929659 668.7884029659043,773.4988540643624 625.2419162557369,817.0453407745298 C 581.6954295455695,773.4988540643624 592.5820512231113,735.3956781929659 625.2419162557369,708.1791239991113 Z" fill="url(#leaf20)" opacity="0.24" transform="rotate(251.0 625.2 762.6)"/>
    <path d="M 1017.4915523500964,413.4723229603684 C 1065.1333102388169,453.1737878676353 1081.0138962017236,508.7558387378091 1017.4915523500964,572.2781825894363 C 953.9692084984692,508.7558387378091 969.8497944613761,453.1737878676353 1017.4915523500964,413.4723229603684 Z" fill="url(#leaf21)" opacity="0.25" transform="rotate(53.0 1017.5 492.9)"/>
    <path d="M 828.2443566908634,541.1048460629071 C 870.8453299654942,576.6056571250996 885.0456543903713,626.3067926121689 828.2443566908634,683.1080903116768 C 771.4430589913554,626.3067926121689 785.6433834162325,576.6056571250996 828.2443566908634,541.1048460629071 Z" fill="url(#leaf22)" opacity="0.16" transform="rotate(353.8 828.2 612.1)"/>
    <path d="M 704.2882693601705,37.86871585803567 C 748.5882618816371,74.78537629259118 763.3549260554593,126.4687009009689 704.2882693601705,185.5353575962577 C 645.2216126648817,126.4687009009689 659.9882768387039,74.78537629259118 704.2882693601705,37.86871585803567 Z" fill="url(#leaf23)" opacity="0.20" transform="rotate(37.4 704.3 111.7)"/>
    <path d="M 876.935045171451,767.7679321813467 C 898.5163403642387,785.7523448420031 905.7101054285013,810.9305225669223 876.935045171451,839.7055828239726 C 848.1599849144006,810.9305225669223 855.3537499786632,785.7523448420031 876.935045171451,767.7679321813467 Z" fill="url(#leaf24)" opacity="0.16" transform="rotate(53.9 876.9 803.7)"/>
    <path d="M 1224.5981076814835,694.3518165441184 C 1265.7340375310234,728.6317580854017 1279.4460141475367,776.6236762431982 1224.5981076814835,831.4715827092515 C 1169.7502012154303,776.6236762431982 1183.4621778319436,728.6317580854017 1224.5981076814835,694.3518165441184 Z" fill="url(#leaf25)" opacity="0.24" transform="rotate(305.7 1224.6 762.9)"/>
    <path d="M 1691.9682720790756,453.79786628240805 C 1730.8013830265147,486.1587920719405 1743.7457533423276,531.464088177286 1691.9682720790756,583.2415694405381 C 1640.1907908158237,531.464088177286 1653.1351611316366,486.1587920719405 1691.9682720790756,453.79786628240805 Z" fill="url(#leaf26)" opacity="0.24" transform="rotate(257.4 1692.0 518.5)"/>
    <path d="M 502.3022712651638,483.7150395010135 C 533.7121213757441,509.8899145931638 544.1820714126043,546.5347397221742 502.3022712651638,588.4145398696146 C 460.4224711177234,546.5347397221742 470.8924211545835,509.8899145931638 502.3022712651638,483.7150395010135 Z" fill="url(#leaf27)" opacity="0.19" transform="rotate(203.3 502.3 536.1)"/>
    <path d="M 78.55512566001556,504.0508271487025 C 117.7769953623627,536.7357185673252 130.85095192981174,582.4945665533968 78.55512566001556,634.790392823193 C 26.259299390219383,582.4945665533968 39.33325595766843,536.7357185673252 78.55512566001556,504.0508271487025 Z" fill="url(#leaf28)" opacity="0.15" transform="rotate(245.3 78.6 569.4)"/>
    <path d="M 92.08548015659579,697.9097508619452 C 130.651314663631,730.0479462844746 143.50659283264275,775.0414198760157 92.08548015659579,826.4625325520626 C 40.66436748054883,775.0414198760157 53.51964564956057,730.0479462844746 92.08548015659579,697.9097508619452 Z" fill="url(#leaf29)" opacity="0.17" transform="rotate(242.8 92.1 762.2)"/>
    <path d="M 1229.1569147952778,830.0295356812649 C 1273.4990687194531,866.9813306180777 1288.2797866941783,918.7138435296156 1229.1569147952778,977.8367154285161 C 1170.0340428963773,918.7138435296156 1184.8147608711024,866.9813306180777 1229.1569147952778,830.0295356812649 Z" fill="url(#leaf0)" opacity="0.25" transform="rotate(19.4 1229.2 903.9)"/>
    <path d="M 1329.813576069191,632.4258336901436 C 1348.6604491482533,648.1315612560288 1354.9427401746073,670.1195798482681 1329.813576069191,695.2487439536845 C 1304.6844119637747,670.1195798482681 1310.9667029901286,648.1315612560288 1329.813576069191,632.4258336901436 Z" fill="url(#leaf1)" opacity="0.19" transform="rotate(137.7 1329.8 663.8)"/>
    <path d="M 1121.022865322359,210.3299007297711 C 1156.7892586565786,240.13522850828747 1168.711389767985,281.86268739821037 1121.022865322359,329.55121184383654 C 1073.3343408767328,281.86268739821037 1085.2564719881393,240.13522850828747 1121.022865322359,210.3299007297711 Z" fill="url(#leaf2)" opacity="0.20" transform="rotate(124.4 1121.0 269.9)"/>
    <path d="M 1678.2169482220716,572.8734732932918 C 1715.785333540148,604.1804610583555 1728.3081286461734,648.0102439294446 1678.2169482220716,698.1014243535466 C 1628.1257677979697,648.0102439294446 1640.648562903995,604.1804610583555 1678.2169482220716,572.8734732932918 Z" fill="url(#leaf3)" opacity="0.22" transform="rotate(330.3 1678.2 635.5)"/>
    <path d="M 863.765755620339,449.9088109767475 C 895.0277800064799,475.96049796519833 905.4484548018603,512.4328597490295 863.765755620339,554.1155589305508 C 822.0830564388176,512.4328597490295 832.503731234198,475.96049796519833 863.765755620339,449.9088109767475 Z" fill="url(#leaf4)" opacity="0.20" transform="rotate(292.6 863.8 502.0)"/>
    <path d="M 650.1192184571179,125.01605412915633 C 680.6020778830118,150.41843698406794 690.7630310249765,185.9817729809442 650.1192184571179,226.6255855488028 C 609.4754058892593,185.9817729809442 619.636359031224,150.41843698406794 650.1192184571179,125.01605412915633 Z" fill="url(#leaf5)" opacity="0.23" transform="rotate(207.6 650.1 175.8)"/>
    <path d="M 821.5213514173349,563.8900524043729 C 865.3281366289664,600.3957067473991 879.9303983661769,651.5036228276358 821.5213514173349,709.9126697764777 C 763.112304468493,651.5036228276358 777.7145662057035,600.3957067473991 821.5213514173349,563.8900524043729 Z" fill="url(#leaf6)" opacity="0.20" transform="rotate(110.0 821.5 636.9)"/>
    <path d="M 775.3078208809754,171.9593532106596 C 819.877370688625,209.1006447170342 834.7338872911748,261.0984528259587 775.3078208809754,320.5245192361581 C 715.8817544707761,261.0984528259587 730.7382710733259,209.1006447170342 775.3078208809754,171.9593532106596 Z" fill="url(#leaf7)" opacity="0.22" transform="rotate(0.3 775.3 246.2)"/>
    <path d="M 90.73354282693745,975.9671254511209 C 118.26135475558155,998.9069687249909 127.43729206512958,1031.022749308409 90.73354282693745,1067.726498546601 C 54.02979358874532,1031.022749308409 63.20573089829335,998.9069687249909 90.73354282693745,975.9671254511209 Z" fill="url(#leaf8)" opacity="0.21" transform="rotate(14.1 90.7 1021.8)"/>
    <path d="M 554.3982220563073,742.3698394649807 C 587.219151953726,769.7206143794963 598.1594619195323,808.0116992598182 554.3982220563073,851.7729391230432 C 510.63698219308225,808.0116992598182 521.5772921588886,769.7206143794963 554.3982220563073,742.3698394649807 Z" fill="url(#leaf9)" opacity="0.16" transform="rotate(304.5 554.4 797.1)"/>
    <path d="M 638.9888287839416,275.7667165490851 C 677.6526718440301,307.98658576582557 690.5406195307263,353.0944026692622 638.9888287839416,404.6461934160469 C 587.4370380371569,353.0944026692622 600.324985723853,307.98658576582557 638.9888287839416,275.7667165490851 Z" fill="url(#leaf10)" opacity="0.24" transform="rotate(153.7 639.0 340.2)"/>
    <path d="M 221.0273105404917,779.4484614366636 C 252.40000363007596,805.5923723446505 262.8575679932707,842.193847615832 221.0273105404917,884.0241050686111 C 179.19705308771267,842.193847615832 189.65461745090744,805.5923723446505 221.0273105404917,779.4484614366636 Z" fill="url(#leaf11)" opacity="0.24" transform="rotate(277.1 221.0 831.7)"/>
    <path d="M 175.7556145239145,104.3574241047551 C 218.3157618071436,139.82421350744602 232.50247756821994,189.47771867121327 175.7556145239145,246.22458171551872 C 119.00875147960903,189.47771867121327 133.1954672406854,139.82421350744602 175.7556145239145,104.3574241047551 Z" fill="url(#leaf12)" opacity="0.22" transform="rotate(22.6 175.8 175.3)"/>
    <path d="M 969.8433930689733,560.0808278766737 C 991.2048540968132,577.8820453998736 998.3253411060932,602.8037499323534 969.8433930689733,631.2856979694733 C 941.3614450318535,602.8037499323534 948.4819320411335,577.8820453998736 969.8433930689733,560.0808278766737 Z" fill="url(#leaf13)" opacity="0.21" transform="rotate(143.1 969.8 595.7)"/>
    <path d="M 1675.3686956776323,798.2826050353437 C 1710.740545159479,827.759146270216 1722.531161653428,869.0263039990373 1675.3686956776323,916.1887699748329 C 1628.2062297018367,869.0263039990373 1639.9968461957856,827.759146270216 1675.3686956776323,798.2826050353437 Z" fill="url(#leaf14)" opacity="0.22" transform="rotate(209.8 1675.4 857.2)"/>
    <path d="M 1276.654605380566,709.5484537473174 C 1297.5841922514921,726.9897761397557 1304.5607212084674,751.4076274891695 1276.654605380566,779.3137433170709 C 1248.7484895526645,751.4076274891695 1255.7250185096398,726.9897761397557 1276.654605380566,709.5484537473174 Z" fill="url(#leaf15)" opacity="0.23" transform="rotate(5.5 1276.7 744.4)"/>
    <path d="M 1187.6574395619948,305.05139770997357 C 1231.8121909945369,341.84702390375867 1246.530441472051,393.3609005750579 1187.6574395619948,452.2339024851141 C 1128.7844376519386,393.3609005750579 1143.5026881294527,341.84702390375867 1187.6574395619948,305.05139770997357 Z" fill="url(#leaf16)" opacity="0.17" transform="rotate(131.3 1187.7 378.6)"/>
    <path d="M 1442.0104889194076,360.00048248722237 C 1486.8211922312362,397.3427352470795 1501.758093335179,449.6218891108794 1442.0104889194076,509.3694935266508 C 1382.2628845036363,449.6218891108794 1397.199785607579,397.3427352470795 1442.0104889194076,360.00048248722237 Z" fill="url(#leaf17)" opacity="0.21" transform="rotate(235.6 1442.0 434.7)"/>
    <path d="M 1318.7101765104117,693.1146503788251 C 1344.3410302758757,714.4736951833784 1352.884648197697,744.3763579097531 1318.7101765104117,778.5508295970384 C 1284.5357048231263,744.3763579097531 1293.0793227449476,714.4736951833784 1318.7101765104117,693.1146503788251 Z" fill="url(#leaf18)" opacity="0.23" transform="rotate(358.1 1318.7 735.8)"/>
    <path d="M 184.73199644832908,570.740483559278 C 231.34935089885118,609.588278934713 246.88846904902522,663.9751924603221 184.73199644832908,726.1316650610182 C 122.57552384763295,663.9751924603221 138.11464199780698,609.588278934713 184.73199644832908,570.740483559278 Z" fill="url(#leaf19)" opacity="0.19" transform="rotate(232.7 184.7 648.4)"/>
    <path d="M 406.8676500306092,211.82501297214793 C 454.22610733248615,251.2903940570454 470.01225976644514,306.54192757590187 406.8676500306092,369.6865373117378 C 343.7230402947732,306.54192757590187 359.5091927287322,251.2903940570454 406.8676500306092,211.82501297214793 Z" fill="url(#leaf20)" opacity="0.20" transform="rotate(100.4 406.9 290.8)"/>
    <path d="M 1747.686794931258,106.25546540518991 C 1784.2339132907737,136.71139737145307 1796.416286077279,179.3497021242215 1747.686794931258,228.07919327024257 C 1698.957303785237,179.3497021242215 1711.1396765717423,136.71139737145307 1747.686794931258,106.25546540518991 Z" fill="url(#leaf21)" opacity="0.18" transform="rotate(183.9 1747.7 167.2)"/>
    <path d="M 648.4193663635452,774.5416990395511 C 675.931705601359,797.4686484043959 685.1024853472969,829.5663775151787 648.4193663635452,866.2494964989305 C 611.7362473797936,829.5663775151787 620.9070271257315,797.4686484043959 648.4193663635452,774.5416990395511 Z" fill="url(#leaf22)" opacity="0.23" transform="rotate(334.7 648.4 820.4)"/>
    <path d="M 777.6928807530696,323.4654318731532 C 812.1008911504815,352.1387738709965 823.5702279496189,392.2814526679771 777.6928807530696,438.1587998645264 C 731.8155335565203,392.2814526679771 743.2848703556577,352.1387738709965 777.6928807530696,323.4654318731532 Z" fill="url(#leaf23)" opacity="0.16" transform="rotate(314.0 777.7 380.8)"/>
    <path d="M 613.3036032092407,734.2263413840433 C 640.8011931045302,757.1409996301179 649.96705640296,789.2215211746222 613.3036032092407,825.8849743683415 C 576.6401500155214,789.2215211746222 585.8060133139512,757.1409996301179 613.3036032092407,734.2263413840433 Z" fill="url(#leaf24)" opacity="0.18" transform="rotate(114.8 613.3 780.1)"/>
    <path d="M 1156.775619421415,845.0762366787822 C 1202.0192011819843,882.7792214792565 1217.100395102174,935.5634001999207 1156.775619421415,995.8881758806797 C 1096.4508437406562,935.5634001999207 1111.5320376608458,882.7792214792565 1156.775619421415,845.0762366787822 Z" fill="url(#leaf25)" opacity="0.16" transform="rotate(94.6 1156.8 920.5)"/>
    <path d="M 173.88088509698633,871.5576623423221 C 202.49886002042157,895.4059747785182 212.03818499489998,928.7936121891926 173.88088509698633,966.9509120871062 C 135.7235851990727,928.7936121891926 145.2629101735511,895.4059747785182 173.88088509698633,871.5576623423221 Z" fill="url(#leaf26)" opacity="0.24" transform="rotate(21.0 173.9 919.3)"/>
    <path d="M 730.5776170294226,292.8957822370455 C 773.8473638573349,328.9539045936391 788.2706127999725,379.43527589287015 730.5776170294226,437.1282716634199 C 672.8846212588728,379.43527589287015 687.3078702015104,328.9539045936391 730.5776170294226,292.8957822370455 Z" fill="url(#leaf27)" opacity="0.22" transform="rotate(150.7 730.6 365.0)"/>
    <path d="M 1637.7424696457065,274.4042918856455 C 1684.267140148706,313.174850638145 1699.7753636497057,367.45363289164436 1637.7424696457065,429.48652689564364 C 1575.7095756417073,367.45363289164436 1591.217799142707,313.174850638145 1637.7424696457065,274.4042918856455 Z" fill="url(#leaf28)" opacity="0.24" transform="rotate(134.1 1637.7 351.9)"/>
    <path d="M 82.21702222634728,637.1233004076643 C 109.34551518084334,659.7303778697443 118.38834616567534,691.3802863166563 82.21702222634728,727.5516102559844 C 46.04569828701922,691.3802863166563 55.088529271851236,659.7303778697443 82.21702222634728,637.1233004076643 Z" fill="url(#leaf29)" opacity="0.22" transform="rotate(320.0 82.2 682.3)"/>
    <path d="M 539.7145943466606,437.1865230473972 C 560.2525849764905,454.30151523892204 567.0985818531004,478.2625043070569 539.7145943466606,505.64649181349665 C 512.3306068402209,478.2625043070569 519.1766037168308,454.30151523892204 539.7145943466606,437.1865230473972 Z" fill="url(#leaf0)" opacity="0.16" transform="rotate(149.8 539.7 471.4)"/>
    <path d="M 1036.3267993822346,570.751932852552 C 1060.4100692089105,590.8213243747821 1068.4378258178026,618.918472505904 1036.3267993822346,651.029498941472 C 1004.2157729466667,618.918472505904 1012.2435295555587,590.8213243747821 1036.3267993822346,570.751932852552 Z" fill="url(#leaf1)" opacity="0.17" transform="rotate(359.6 1036.3 610.9)"/>
    <path d="M 833.6251865054102,464.6417036855797 C 881.5098712602552,504.5456076479506 897.4714328452036,560.4110731952698 833.6251865054102,624.2573195350632 C 769.7789401656167,560.4110731952698 785.7405017505652,504.5456076479506 833.6251865054102,464.6417036855797 Z" fill="url(#leaf2)" opacity="0.17" transform="rotate(354.2 833.6 544.4)"/>
    <path d="M 1155.12956774009,95.82112218007067 C 1194.5037818689325,128.63296728743944 1207.62851991188,174.5695504377557 1155.12956774009,227.0685026095457 C 1102.6306155682998,174.5695504377557 1115.7553536112473,128.63296728743944 1155.12956774009,95.82112218007067 Z" fill="url(#leaf3)" opacity="0.25" transform="rotate(341.2 1155.1 161.4)"/>
    <path d="M 1724.421348139433,607.0505313171356 C 1759.3175110534116,636.1306670787844 1770.9495653580711,676.842857145093 1724.421348139433,723.3710743637313 C 1677.8931309207946,676.842857145093 1689.5251852254542,636.1306670787844 1724.421348139433,607.0505313171356 Z" fill="url(#leaf4)" opacity="0.20" transform="rotate(12.0 1724.4 665.2)"/>
    <path d="M 938.3442739889572,351.99192035249655 C 979.6423306083101,386.4069675352907 993.4083494814278,434.5880335912025 938.3442739889572,489.65210908367305 C 883.2801984964866,434.5880335912025 897.0462173696043,386.4069675352907 938.3442739889572,351.99192035249655 Z" fill="url(#leaf5)" opacity="0.25" transform="rotate(63.2 938.3 420.8)"/>
    <path d="M 1384.6719344224525,341.55659624559513 C 1408.3187174853113,361.26224879797746 1416.2009785062642,388.8501623713127 1384.6719344224525,420.37920645512446 C 1353.1428903386409,388.8501623713127 1361.0251513595938,361.26224879797746 1384.6719344224525,341.55659624559513 Z" fill="url(#leaf6)" opacity="0.24" transform="rotate(159.7 1384.7 381.0)"/>
    <path d="M 1426.3602487691846,446.44211769668084 C 1465.070613385468,478.700754876917 1477.9740682575625,523.8628469292477 1426.3602487691846,575.4766664176256 C 1374.7464292808068,523.8628469292477 1387.6498841529012,478.700754876917 1426.3602487691846,446.44211769668084 Z" fill="url(#leaf7)" opacity="0.16" transform="rotate(181.5 1426.4 511.0)"/>
    <path d="M 243.56501895628708,230.58307656690909 C 268.0202571652678,250.9624417410597 276.17200323492807,279.4935529848706 243.56501895628708,312.10053726351157 C 210.95803467764608,279.4935529848706 219.10978074730633,250.9624417410597 243.56501895628708,230.58307656690909 Z" fill="url(#leaf8)" opacity="0.18" transform="rotate(242.1 243.6 271.3)"/>
    <path d="M 1263.9454768925152,580.6992817252532 C 1297.9394827256988,609.0276199195728 1309.2708180034267,648.6872933916203 1263.9454768925152,694.0126345025318 C 1218.6201357816037,648.6872933916203 1229.9514710593317,609.0276199195728 1263.9454768925152,580.6992817252532 Z" fill="url(#leaf9)" opacity="0.23" transform="rotate(242.0 1263.9 637.4)"/>
    <path d="M 1765.977525547958,429.9838600423793 C 1804.0922253135261,461.7461098470194 1816.7971252353823,506.21325957351553 1765.977525547958,557.0328592609396 C 1715.1579258605339,506.21325957351553 1727.86282578239,461.7461098470194 1765.977525547958,429.9838600423793 Z" fill="url(#leaf10)" opacity="0.24" transform="rotate(144.8 1766.0 493.5)"/>
    <path d="M 1376.585030888259,888.9378937351748 C 1415.363998409668,921.2537000030156 1428.2903209168044,966.4958287779929 1376.585030888259,1018.2011188065383 C 1324.8797408597138,966.4958287779929 1337.8060633668501,921.2537000030156 1376.585030888259,888.9378937351748 Z" fill="url(#leaf11)" opacity="0.19" transform="rotate(132.3 1376.6 953.6)"/>
    <path d="M 1439.614842542624,796.9677806608065 C 1483.9381965156256,833.903908971641 1498.7126478399593,885.6144886068093 1439.614842542624,944.7122939041446 C 1380.5170372452887,885.6144886068093 1395.2914885696225,833.903908971641 1439.614842542624,796.9677806608065 Z" fill="url(#leaf12)" opacity="0.21" transform="rotate(312.6 1439.6 870.8)"/>
    <path d="M 249.50772205442328,163.03929144283245 C 287.19650468942507,194.44661030533393 299.7594322344257,238.41685671283605 249.50772205442328,288.66856689283844 C 199.2560118744209,238.41685671283605 211.8189394194215,194.44661030533393 249.50772205442328,163.03929144283245 Z" fill="url(#leaf13)" opacity="0.23" transform="rotate(73.8 249.5 225.9)"/>
    <path d="M 722.5834667521458,610.614930137009 C 769.8578057149894,650.0102126060453 785.6159187026038,705.1636080626961 722.5834667521458,768.1960600131542 C 659.5510148016878,705.1636080626961 675.3091277893022,650.0102126060453 722.5834667521458,610.614930137009 Z" fill="url(#leaf14)" opacity="0.15" transform="rotate(258.5 722.6 689.4)"/>
    <path d="M 1242.4537362966462,736.6225159839303 C 1264.706850626607,755.1667779255644 1272.1245554032605,781.128744643852 1242.4537362966462,810.7995637504664 C 1212.7829171900319,781.128744643852 1220.2006219666853,755.1667779255644 1242.4537362966462,736.6225159839303 Z" fill="url(#leaf15)" opacity="0.21" transform="rotate(296.6 1242.5 773.7)"/>
    <path d="M 1665.2553522763908,507.834840260373 C 1697.547490999362,534.7449558628491 1708.3115372403524,572.4191177063155 1665.2553522763908,615.4753026702772 C 1622.1991673124292,572.4191177063155 1632.9632135534196,534.7449558628491 1665.2553522763908,507.834840260373 Z" fill="url(#leaf16)" opacity="0.23" transform="rotate(85.6 1665.3 561.7)"/>
    <path d="M 765.0282361233405,445.7223693439952 C 787.9697779536004,464.8403208692117 795.616958563687,491.60545300451486 765.0282361233405,522.1941754448613 C 734.4395136829941,491.60545300451486 742.0866942930807,464.8403208692117 765.0282361233405,445.7223693439952 Z" fill="url(#leaf17)" opacity="0.21" transform="rotate(302.4 765.0 484.0)"/>
    </g>

    <!-- Text with SOLID fill only (ThorVG compatible) -->
    <text x="1004.2" y="999.7"
          font-family="Arial, Helvetica, sans-serif"
          font-size="1080px"
          font-weight="bold"
          fill="#FFD700"
          text-anchor="middle"
          transform="rotate(-10.8 960.0 540.0)">
      Y
    </text>
  </g>

  <!-- Frame counter -->
  <text x="960.0" y="1050.0"
        font-family="monospace"
        font-size="24px"
        fill="#FFFFFF"
        text-anchor="middle"
        opacity="0.7">
    Frame 00026 - Compatible
  </text>
</svg>